<?xml version="1.0" encoding="UTF-8" standalone="no"?>
<!DOCTYPE svg PUBLIC "-//W3C//DTD SVG 1.1//EN"
 "http://www.w3.org/Graphics/SVG/1.1/DTD/svg11.dtd">
<!-- Generated by graphviz version 2.38.0 (20140413.2041)
 -->
<!-- Title: ml Pages: 1 -->
<svg width="1462pt" height="421pt"
 viewBox="0.00 0.00 1461.50 421.00" xmlns="http://www.w3.org/2000/svg" xmlns:xlink="http://www.w3.org/1999/xlink">
<g id="graph0" class="graph" transform="scale(1 1) rotate(0) translate(4 417)">
<title>ml</title>
<polygon fill="white" stroke="none" points="-4,4 -4,-417 1457.5,-417 1457.5,4 -4,4"/>
<!-- ndSignatureAggregator -->
<g id="node1" class="node"><title>ndSignatureAggregator</title>
<polygon fill="lightblue" stroke="none" points="379,-154 379,-191 917,-191 917,-154 379,-154"/>
<polygon fill="none" stroke="black" points="379,-154 379,-191 917,-191 917,-154 379,-154"/>
<text text-anchor="start" x="574.5" y="-169.8" font-family="Arial" font-weight="bold" font-size="14.00">SignatureAggregator</text>
<polygon fill="white" stroke="none" points="379,-102 379,-154 917,-154 917,-102 379,-102"/>
<polygon fill="none" stroke="black" points="379,-102 379,-154 917,-154 917,-102 379,-102"/>
<text text-anchor="start" x="390" y="-131.8" font-family="Arial" font-size="14.00">&#45; map: HashMap&lt;Digest256, State&gt;</text>
<text text-anchor="start" x="390" y="-116.8" font-family="Arial" font-size="14.00">&#45; expiration: Duration</text>
<polygon fill="white" stroke="none" points="379,-5 379,-102 917,-102 917,-5 379,-5"/>
<polygon fill="none" stroke="black" points="379,-5 379,-102 917,-102 917,-5 379,-5"/>
<text text-anchor="start" x="390" y="-79.8" font-family="Arial" font-size="14.00">&#45; new() &#45;&gt; Self</text>
<text text-anchor="start" x="390" y="-64.8" font-family="Arial" font-size="14.00">&#45; with_expiration(expiration: Duration) &#45;&gt; Self</text>
<text text-anchor="start" x="390" y="-49.8" font-family="Arial" font-size="14.00">&#45; add(&amp;mut self, payload: &amp;[u8], proof_share: ProofShare) &#45;&gt; Result&lt;Proof, Error&gt;</text>
<text text-anchor="start" x="390" y="-34.8" font-family="Arial" font-size="14.00">&#45; remove_expired(&amp;mut self)</text>
<text text-anchor="start" x="390" y="-19.8" font-family="Arial" font-size="14.00">&#45; default() &#45;&gt; Self</text>
<polygon fill="none" stroke="black" points="378,-4 378,-192 918,-192 918,-4 378,-4"/>
</g>
<!-- ndError -->
<g id="node2" class="node"><title>ndError</title>
<polygon fill="yellow" stroke="none" points="1107,-337.5 1107,-374.5 1292,-374.5 1292,-337.5 1107,-337.5"/>
<polygon fill="none" stroke="black" points="1107,-337.5 1107,-374.5 1292,-374.5 1292,-337.5 1107,-337.5"/>
<text text-anchor="start" x="1181" y="-353.3" font-family="Arial" font-weight="bold" font-size="14.00">Error</text>
<polygon fill="white" stroke="none" points="1107,-270.5 1107,-337.5 1292,-337.5 1292,-270.5 1107,-270.5"/>
<polygon fill="none" stroke="black" points="1107,-270.5 1107,-337.5 1292,-337.5 1292,-270.5 1107,-270.5"/>
<text text-anchor="start" x="1118" y="-315.3" font-family="Arial" font-size="14.00">NotEnoughShares</text>
<text text-anchor="start" x="1118" y="-300.3" font-family="Arial" font-size="14.00">InvalidShare</text>
<text text-anchor="start" x="1118" y="-285.3" font-family="Arial" font-size="14.00">Combine(bls::error::Error)</text>
<polygon fill="none" stroke="black" points="1105.5,-269.5 1105.5,-375.5 1292.5,-375.5 1292.5,-269.5 1105.5,-269.5"/>
</g>
<!-- ndError&#45;&gt;ndSignatureAggregator -->
<g id="edge1" class="edge"><title>ndError&#45;&gt;ndSignatureAggregator</title>
<path fill="none" stroke="black" d="M1139.87,-265.315C1124.26,-252.842 1106.78,-240.746 1089,-232 1026.31,-201.172 1003.18,-215.17 936,-196 935.897,-195.971 935.794,-195.941 935.691,-195.912"/>
<polygon fill="black" stroke="black" points="926.055,-193.134 936.91,-191.58 930.86,-194.519 935.664,-195.904 935.664,-195.904 935.664,-195.904 930.86,-194.519 934.417,-200.228 926.055,-193.134 926.055,-193.134"/>
</g>
<!-- ndState -->
<g id="node3" class="node"><title>ndState</title>
<polygon fill="lightblue" stroke="none" points="954,-131 954,-168 1445,-168 1445,-131 954,-131"/>
<polygon fill="none" stroke="black" points="954,-131 954,-168 1445,-168 1445,-131 954,-131"/>
<text text-anchor="start" x="1181.5" y="-146.8" font-family="Arial" font-weight="bold" font-size="14.00">State</text>
<polygon fill="white" stroke="none" points="954,-79 954,-131 1445,-131 1445,-79 954,-79"/>
<polygon fill="none" stroke="black" points="954,-79 954,-131 1445,-131 1445,-79 954,-79"/>
<text text-anchor="start" x="965" y="-108.8" font-family="Arial" font-size="14.00">&#45; shares: HashMap&lt;usize, bls::SignatureShare&gt;</text>
<text text-anchor="start" x="965" y="-93.8" font-family="Arial" font-size="14.00">&#45; modified: Instant</text>
<polygon fill="white" stroke="none" points="954,-27 954,-79 1445,-79 1445,-27 954,-27"/>
<polygon fill="none" stroke="black" points="954,-27 954,-79 1445,-79 1445,-27 954,-27"/>
<text text-anchor="start" x="965" y="-56.8" font-family="Arial" font-size="14.00">&#45; new() &#45;&gt; Self</text>
<text text-anchor="start" x="965" y="-41.8" font-family="Arial" font-size="14.00">&#45; add(&amp;mut self, proof_share: ProofShare) &#45;&gt; Result&lt;bls::Signature, Error&gt;</text>
<polygon fill="none" stroke="black" points="952.5,-26.5 952.5,-169.5 1445.5,-169.5 1445.5,-26.5 952.5,-26.5"/>
</g>
<!-- ndError&#45;&gt;ndState -->
<g id="edge2" class="edge"><title>ndError&#45;&gt;ndState</title>
<path fill="none" stroke="black" d="M1199,-265.354C1199,-240.697 1199,-211.208 1199,-183.953"/>
<polygon fill="black" stroke="black" points="1199,-173.631 1203.5,-183.631 1199,-178.631 1199,-183.631 1199,-183.631 1199,-183.631 1199,-178.631 1194.5,-183.631 1199,-173.631 1199,-173.631"/>
</g>
<!-- ndProof -->
<g id="node4" class="node"><title>ndProof</title>
<polygon fill="lightblue" stroke="none" points="9,-348.5 9,-385.5 261,-385.5 261,-348.5 9,-348.5"/>
<polygon fill="none" stroke="black" points="9,-348.5 9,-385.5 261,-385.5 261,-348.5 9,-348.5"/>
<text text-anchor="start" x="115.5" y="-364.3" font-family="Arial" font-weight="bold" font-size="14.00">Proof</text>
<polygon fill="white" stroke="none" points="9,-296.5 9,-348.5 261,-348.5 261,-296.5 9,-296.5"/>
<polygon fill="none" stroke="black" points="9,-296.5 9,-348.5 261,-348.5 261,-296.5 9,-296.5"/>
<text text-anchor="start" x="20" y="-326.3" font-family="Arial" font-size="14.00">+ public_key: bls::PublicKey</text>
<text text-anchor="start" x="20" y="-311.3" font-family="Arial" font-size="14.00">+ signature: bls::Signature</text>
<polygon fill="white" stroke="none" points="9,-259.5 9,-296.5 261,-296.5 261,-259.5 9,-259.5"/>
<polygon fill="none" stroke="black" points="9,-259.5 9,-296.5 261,-296.5 261,-259.5 9,-259.5"/>
<text text-anchor="start" x="20" y="-274.3" font-family="Arial" font-size="14.00">&#45; verify(&amp;self, payload: &amp;[u8]) &#45;&gt; bool</text>
<polygon fill="none" stroke="black" points="8,-258.5 8,-386.5 262,-386.5 262,-258.5 8,-258.5"/>
</g>
<!-- ndProof&#45;&gt;ndSignatureAggregator -->
<g id="edge3" class="edge"><title>ndProof&#45;&gt;ndSignatureAggregator</title>
<path fill="none" stroke="black" d="M237.346,-254.288C251.103,-246.326 265.224,-238.672 279,-232 305.017,-219.4 332.552,-207.321 360.387,-195.937"/>
<polygon fill="black" stroke="black" points="369.836,-192.104 362.262,-200.033 365.203,-193.983 360.57,-195.863 360.57,-195.863 360.57,-195.863 365.203,-193.983 358.878,-191.693 369.836,-192.104 369.836,-192.104"/>
</g>
<!-- ndProofShare -->
<g id="node5" class="node"><title>ndProofShare</title>
<polygon fill="lightblue" stroke="none" points="298,-370.5 298,-407.5 1071,-407.5 1071,-370.5 298,-370.5"/>
<polygon fill="none" stroke="black" points="298,-370.5 298,-407.5 1071,-407.5 1071,-370.5 298,-370.5"/>
<text text-anchor="start" x="644.5" y="-386.3" font-family="Arial" font-weight="bold" font-size="14.00">ProofShare</text>
<polygon fill="white" stroke="none" points="298,-303.5 298,-370.5 1071,-370.5 1071,-303.5 298,-303.5"/>
<polygon fill="none" stroke="black" points="298,-303.5 298,-370.5 1071,-370.5 1071,-303.5 298,-303.5"/>
<text text-anchor="start" x="309" y="-348.3" font-family="Arial" font-size="14.00">+ public_key_set: bls::PublicKeySet</text>
<text text-anchor="start" x="309" y="-333.3" font-family="Arial" font-size="14.00">+ index: usize</text>
<text text-anchor="start" x="309" y="-318.3" font-family="Arial" font-size="14.00">+ signature_share: bls::SignatureShare</text>
<polygon fill="white" stroke="none" points="298,-236.5 298,-303.5 1071,-303.5 1071,-236.5 298,-236.5"/>
<polygon fill="none" stroke="black" points="298,-236.5 298,-303.5 1071,-303.5 1071,-236.5 298,-236.5"/>
<text text-anchor="start" x="309" y="-281.3" font-family="Arial" font-size="14.00">&#45; new(public_key_set: bls::PublicKeySet, index: usize, secret_key_share: &amp;bls::SecretKeyShare, payload: &amp;[u8]) &#45;&gt; Self</text>
<text text-anchor="start" x="309" y="-266.3" font-family="Arial" font-size="14.00">&#45; verify(&amp;self, payload: &amp;[u8]) &#45;&gt; bool</text>
<text text-anchor="start" x="309" y="-251.3" font-family="Arial" font-size="14.00">&#45; fmt(&amp;self, formatter: &amp;mut Formatter) &#45;&gt; fmt::Result</text>
<polygon fill="none" stroke="black" points="296.5,-236 296.5,-409 1071.5,-409 1071.5,-236 296.5,-236"/>
</g>
<!-- ndProofShare&#45;&gt;ndSignatureAggregator -->
<g id="edge4" class="edge"><title>ndProofShare&#45;&gt;ndSignatureAggregator</title>
<path fill="none" stroke="black" stroke-dasharray="5,2" d="M669.513,-231.963C668.137,-223.457 666.732,-214.775 665.333,-206.126"/>
<polygon fill="black" stroke="black" points="663.695,-196.001 669.734,-205.154 664.493,-200.937 665.292,-205.873 665.292,-205.873 665.292,-205.873 664.493,-200.937 660.85,-206.592 663.695,-196.001 663.695,-196.001"/>
</g>
<!-- ndProofShare&#45;&gt;ndState -->
<g id="edge5" class="edge"><title>ndProofShare&#45;&gt;ndState</title>
<path fill="none" stroke="black" stroke-dasharray="5,2" d="M891.244,-231.963C932.95,-213.944 976.486,-195.135 1017.24,-177.526"/>
<polygon fill="black" stroke="black" points="1026.44,-173.552 1019.05,-181.65 1021.85,-175.536 1017.26,-177.519 1017.26,-177.519 1017.26,-177.519 1021.85,-175.536 1015.48,-173.388 1026.44,-173.552 1026.44,-173.552"/>
</g>
</g>
</svg>
