<?xml version="1.0" encoding="UTF-8" standalone="no"?>
<!DOCTYPE svg PUBLIC "-//W3C//DTD SVG 1.1//EN"
 "http://www.w3.org/Graphics/SVG/1.1/DTD/svg11.dtd">
<!-- Generated by graphviz version 2.38.0 (20140413.2041)
 -->
<!-- Title: ml Pages: 1 -->
<svg width="1871pt" height="221pt"
 viewBox="0.00 0.00 1871.00 221.00" xmlns="http://www.w3.org/2000/svg" xmlns:xlink="http://www.w3.org/1999/xlink">
<g id="graph0" class="graph" transform="scale(1 1) rotate(0) translate(4 217)">
<title>ml</title>
<polygon fill="white" stroke="none" points="-4,4 -4,-217 1867,-217 1867,4 -4,4"/>
<!-- ndKey -->
<g id="node1" class="node"><title>ndKey</title>
<g id="a_node1_0"><a xlink:href="https://github.com/maidsafe/bls_dkg/blob/master/src/key_gen/encryptor.rs#:~:text=struct%20Key" xlink:title="&lt;TABLE&gt;">
<polygon fill="lightblue" stroke="none" points="553,-170.5 553,-207.5 603,-207.5 603,-170.5 553,-170.5"/>
<polygon fill="none" stroke="black" points="553,-170.5 553,-207.5 603,-207.5 603,-170.5 553,-170.5"/>
<text text-anchor="start" x="564" y="-186.3" font-family="Arial" font-weight="bold" font-size="14.00">Key</text>
<polygon fill="none" stroke="black" points="552,-170 552,-209 604,-209 604,-170 552,-170"/>
</a>
</g>
</g>
<!-- ndEncryptor -->
<g id="node3" class="node"><title>ndEncryptor</title>
<g id="a_node3_1"><a xlink:href="https://github.com/maidsafe/bls_dkg/blob/master/src/key_gen/encryptor.rs#:~:text=struct%20Encryptor" xlink:title="&lt;TABLE&gt;">
<polygon fill="lightblue" stroke="none" points="571,-87.5 571,-124.5 663,-124.5 663,-87.5 571,-87.5"/>
<polygon fill="none" stroke="black" points="571,-87.5 571,-124.5 663,-124.5 663,-87.5 571,-87.5"/>
<text text-anchor="start" x="582" y="-103.3" font-family="Arial" font-weight="bold" font-size="14.00">Encryptor</text>
<polygon fill="none" stroke="black" points="570,-87 570,-126 664,-126 664,-87 570,-87"/>
</a>
</g>
</g>
<!-- ndKey&#45;&gt;ndEncryptor -->
<g id="edge1" class="edge"><title>ndKey&#45;&gt;ndEncryptor</title>
<path fill="none" stroke="black" d="M588.864,-165.937C592.552,-158.278 596.756,-149.545 600.77,-141.209"/>
<polygon fill="black" stroke="black" points="600.853,-141.035 599.852,-133.894 606.059,-130.223 607.06,-137.364 600.853,-141.035"/>
</g>
<!-- ndIv -->
<g id="node2" class="node"><title>ndIv</title>
<g id="a_node2_2"><a xlink:href="https://github.com/maidsafe/bls_dkg/blob/master/src/key_gen/encryptor.rs#:~:text=struct%20Iv" xlink:title="&lt;TABLE&gt;">
<polygon fill="lightblue" stroke="none" points="640,-170.5 640,-207.5 675,-207.5 675,-170.5 640,-170.5"/>
<polygon fill="none" stroke="black" points="640,-170.5 640,-207.5 675,-207.5 675,-170.5 640,-170.5"/>
<text text-anchor="start" x="651" y="-186.3" font-family="Arial" font-weight="bold" font-size="14.00">Iv</text>
<polygon fill="none" stroke="black" points="638.5,-170 638.5,-209 675.5,-209 675.5,-170 638.5,-170"/>
</a>
</g>
</g>
<!-- ndIv&#45;&gt;ndEncryptor -->
<g id="edge2" class="edge"><title>ndIv&#45;&gt;ndEncryptor</title>
<path fill="none" stroke="black" d="M645.858,-165.937C641.774,-157.668 637.074,-148.149 632.668,-139.227"/>
<polygon fill="black" stroke="black" points="628.221,-130.223 636.684,-137.197 630.435,-134.706 632.649,-139.189 632.649,-139.189 632.649,-139.189 630.435,-134.706 628.614,-141.182 628.221,-130.223 628.221,-130.223"/>
</g>
<!-- ndKeyGen -->
<g id="node13" class="node"><title>ndKeyGen</title>
<g id="a_node13_3"><a xlink:href="https://github.com/maidsafe/bls_dkg/blob/master/src/key_gen/mod.rs#:~:text=struct%20KeyGen" xlink:title="&lt;TABLE&gt;">
<polygon fill="lightblue" stroke="none" points="783,-4.5 783,-41.5 861,-41.5 861,-4.5 783,-4.5"/>
<polygon fill="none" stroke="black" points="783,-4.5 783,-41.5 861,-41.5 861,-4.5 783,-4.5"/>
<text text-anchor="start" x="794" y="-20.3" font-family="Arial" font-weight="bold" font-size="14.00">KeyGen</text>
<polygon fill="none" stroke="black" points="782,-4 782,-43 862,-43 862,-4 782,-4"/>
</a>
</g>
</g>
<!-- ndEncryptor&#45;&gt;ndKeyGen -->
<g id="edge3" class="edge"><title>ndEncryptor&#45;&gt;ndKeyGen</title>
<path fill="none" stroke="black" d="M672.206,-83.6869C700.035,-72.691 733.822,-59.3412 762.258,-48.1052"/>
<polygon fill="black" stroke="black" points="762.518,-48.0029 766.628,-42.0779 773.678,-43.5931 769.568,-49.5181 762.518,-48.0029"/>
</g>
<!-- ndOutcome -->
<g id="node4" class="node"><title>ndOutcome</title>
<g id="a_node4_4"><a xlink:href="https://github.com/maidsafe/bls_dkg/blob/master/src/key_gen/outcome.rs#:~:text=struct%20Outcome" xlink:title="&lt;TABLE&gt;">
<polygon fill="lightblue" stroke="none" points="699,-87.5 699,-124.5 785,-124.5 785,-87.5 699,-87.5"/>
<polygon fill="none" stroke="black" points="699,-87.5 699,-124.5 785,-124.5 785,-87.5 699,-87.5"/>
<text text-anchor="start" x="710" y="-103.3" font-family="Arial" font-weight="bold" font-size="14.00">Outcome</text>
<polygon fill="none" stroke="black" points="698,-87 698,-126 786,-126 786,-87 698,-87"/>
</a>
</g>
</g>
<!-- ndOutcome&#45;&gt;ndKeyGen -->
<g id="edge4" class="edge"><title>ndOutcome&#45;&gt;ndKeyGen</title>
<path fill="none" stroke="black" d="M764.284,-82.937C772.967,-74.146 783.045,-63.9421 792.326,-54.5444"/>
<polygon fill="black" stroke="black" points="799.558,-47.2229 795.732,-57.5 796.044,-50.7804 792.531,-54.3378 792.531,-54.3378 792.531,-54.3378 796.044,-50.7804 789.329,-51.1757 799.558,-47.2229 799.558,-47.2229"/>
</g>
<!-- ndError -->
<g id="node5" class="node"><title>ndError</title>
<g id="a_node5_5"><a xlink:href="https://github.com/maidsafe/bls_dkg/blob/master/src/key_gen/mod.rs#:~:text=enum%20Error" xlink:title="&lt;TABLE&gt;">
<polygon fill="yellow" stroke="none" points="733,-170.5 733,-207.5 792,-207.5 792,-170.5 733,-170.5"/>
<polygon fill="none" stroke="black" points="733,-170.5 733,-207.5 792,-207.5 792,-170.5 733,-170.5"/>
<text text-anchor="start" x="744" y="-186.3" font-family="Arial" font-weight="bold" font-size="14.00">Error</text>
<polygon fill="none" stroke="black" points="731.5,-170 731.5,-209 792.5,-209 792.5,-170 731.5,-170"/>
</a>
</g>
</g>
<!-- ndError&#45;&gt;ndEncryptor -->
<g id="edge5" class="edge"><title>ndError&#45;&gt;ndEncryptor</title>
<path fill="none" stroke="black" d="M723.143,-166.793C705.697,-157.048 684.911,-145.436 666.377,-135.083"/>
<polygon fill="black" stroke="black" points="657.484,-130.115 668.409,-131.063 661.849,-132.554 666.214,-134.992 666.214,-134.992 666.214,-134.992 661.849,-132.554 664.02,-138.921 657.484,-130.115 657.484,-130.115"/>
</g>
<!-- ndError&#45;&gt;ndKeyGen -->
<g id="edge6" class="edge"><title>ndError&#45;&gt;ndKeyGen</title>
<path fill="none" stroke="black" d="M781.253,-165.965C789.143,-155.622 797.658,-142.822 803,-130 812.674,-106.78 817.429,-78.6693 819.763,-57.3057"/>
<polygon fill="black" stroke="black" points="820.75,-47.1114 824.265,-57.4987 820.268,-52.0881 819.786,-57.0648 819.786,-57.0648 819.786,-57.0648 820.268,-52.0881 815.307,-56.6309 820.75,-47.1114 820.75,-47.1114"/>
</g>
<!-- ndPart -->
<g id="node6" class="node"><title>ndPart</title>
<g id="a_node6_6"><a xlink:href="https://github.com/maidsafe/bls_dkg/blob/master/src/key_gen/mod.rs#:~:text=struct%20Part" xlink:title="&lt;TABLE&gt;">
<polygon fill="lightblue" stroke="none" points="860,-87.5 860,-124.5 911,-124.5 911,-87.5 860,-87.5"/>
<polygon fill="none" stroke="black" points="860,-87.5 860,-124.5 911,-124.5 911,-87.5 860,-87.5"/>
<text text-anchor="start" x="871" y="-103.3" font-family="Arial" font-weight="bold" font-size="14.00">Part</text>
<polygon fill="none" stroke="black" points="858.5,-87 858.5,-126 911.5,-126 911.5,-87 858.5,-87"/>
</a>
</g>
</g>
<!-- ndPart&#45;&gt;ndKeyGen -->
<g id="edge7" class="edge"><title>ndPart&#45;&gt;ndKeyGen</title>
<path fill="none" stroke="black" stroke-dasharray="5,2" d="M867.451,-82.937C860.817,-74.4071 853.148,-64.547 846.021,-55.3839"/>
<polygon fill="black" stroke="black" points="839.673,-47.2229 849.365,-52.3537 842.743,-51.1697 845.813,-55.1165 845.813,-55.1165 845.813,-55.1165 842.743,-51.1697 842.261,-57.8792 839.673,-47.2229 839.673,-47.2229"/>
</g>
<!-- ndAcknowledgment -->
<g id="node7" class="node"><title>ndAcknowledgment</title>
<g id="a_node7_7"><a xlink:href="https://github.com/maidsafe/bls_dkg/blob/master/src/key_gen/mod.rs#:~:text=struct%20Acknowledgment" xlink:title="&lt;TABLE&gt;">
<polygon fill="lightblue" stroke="none" points="1402,-87.5 1402,-124.5 1545,-124.5 1545,-87.5 1402,-87.5"/>
<polygon fill="none" stroke="black" points="1402,-87.5 1402,-124.5 1545,-124.5 1545,-87.5 1402,-87.5"/>
<text text-anchor="start" x="1413" y="-103.3" font-family="Arial" font-weight="bold" font-size="14.00">Acknowledgment</text>
<polygon fill="none" stroke="black" points="1400.5,-87 1400.5,-126 1545.5,-126 1545.5,-87 1400.5,-87"/>
</a>
</g>
</g>
<!-- ndPartOutcome -->
<g id="node9" class="node"><title>ndPartOutcome</title>
<g id="a_node9_8"><a xlink:href="https://github.com/maidsafe/bls_dkg/blob/master/src/key_gen/mod.rs#:~:text=enum%20PartOutcome" xlink:title="&lt;TABLE&gt;">
<polygon fill="yellow" stroke="none" points="1340,-4.5 1340,-41.5 1454,-41.5 1454,-4.5 1340,-4.5"/>
<polygon fill="none" stroke="black" points="1340,-4.5 1340,-41.5 1454,-41.5 1454,-4.5 1340,-4.5"/>
<text text-anchor="start" x="1351" y="-20.3" font-family="Arial" font-weight="bold" font-size="14.00">PartOutcome</text>
<polygon fill="none" stroke="black" points="1339,-4 1339,-43 1455,-43 1455,-4 1339,-4"/>
</a>
</g>
</g>
<!-- ndAcknowledgment&#45;&gt;ndPartOutcome -->
<g id="edge8" class="edge"><title>ndAcknowledgment&#45;&gt;ndPartOutcome</title>
<path fill="none" stroke="black" d="M1451.83,-82.937C1444.07,-74.6683 1435.14,-65.1495 1426.77,-56.2273"/>
<polygon fill="black" stroke="black" points="1426.53,-55.974 1419.51,-54.3355 1418.32,-47.2229 1425.34,-48.8615 1426.53,-55.974"/>
</g>
<!-- ndAcknowledgment&#45;&gt;ndKeyGen -->
<g id="edge9" class="edge"><title>ndAcknowledgment&#45;&gt;ndKeyGen</title>
<path fill="none" stroke="black" stroke-dasharray="5,2" d="M1392.16,-84.719C1389.08,-84.1073 1386.01,-83.5311 1383,-83 1201.19,-50.9593 982.915,-34.3839 880.483,-27.8721"/>
<polygon fill="black" stroke="black" points="870.346,-27.2366 880.608,-23.3712 875.336,-27.5495 880.326,-27.8623 880.326,-27.8623 880.326,-27.8623 875.336,-27.5495 880.045,-32.3535 870.346,-27.2366 870.346,-27.2366"/>
</g>
<!-- ndProposalState -->
<g id="node8" class="node"><title>ndProposalState</title>
<g id="a_node8_9"><a xlink:href="https://github.com/maidsafe/bls_dkg/blob/master/src/key_gen/mod.rs#:~:text=struct%20ProposalState" xlink:title="&lt;TABLE&gt;">
<polygon fill="lightblue" stroke="none" points="918,-170.5 918,-207.5 1039,-207.5 1039,-170.5 918,-170.5"/>
<polygon fill="none" stroke="black" points="918,-170.5 918,-207.5 1039,-207.5 1039,-170.5 918,-170.5"/>
<text text-anchor="start" x="929" y="-186.3" font-family="Arial" font-weight="bold" font-size="14.00">ProposalState</text>
<polygon fill="none" stroke="black" points="916.5,-170 916.5,-209 1039.5,-209 1039.5,-170 916.5,-170"/>
</a>
</g>
</g>
<!-- ndPhase -->
<g id="node10" class="node"><title>ndPhase</title>
<g id="a_node10_10"><a xlink:href="https://github.com/maidsafe/bls_dkg/blob/master/src/key_gen/mod.rs#:~:text=enum%20Phase" xlink:title="&lt;TABLE&gt;">
<polygon fill="yellow" stroke="none" points="947,-87.5 947,-124.5 1013,-124.5 1013,-87.5 947,-87.5"/>
<polygon fill="none" stroke="black" points="947,-87.5 947,-124.5 1013,-124.5 1013,-87.5 947,-87.5"/>
<text text-anchor="start" x="958" y="-103.3" font-family="Arial" font-weight="bold" font-size="14.00">Phase</text>
<polygon fill="none" stroke="black" points="946,-87 946,-126 1014,-126 1014,-87 946,-87"/>
</a>
</g>
</g>
<!-- ndPhase&#45;&gt;ndKeyGen -->
<g id="edge10" class="edge"><title>ndPhase&#45;&gt;ndKeyGen</title>
<path fill="none" stroke="black" stroke-dasharray="5,2" d="M937.659,-83.7935C918.994,-74.2249 896.822,-62.858 876.908,-52.649"/>
<polygon fill="black" stroke="black" points="876.792,-52.5897 869.628,-53.4119 866.114,-47.1152 873.278,-46.2929 876.792,-52.5897"/>
</g>
<!-- ndInitializationAccumulator -->
<g id="node11" class="node"><title>ndInitializationAccumulator</title>
<g id="a_node11_11"><a xlink:href="https://github.com/maidsafe/bls_dkg/blob/master/src/key_gen/mod.rs#:~:text=struct%20InitializationAccumulator" xlink:title="&lt;TABLE&gt;">
<polygon fill="lightblue" stroke="none" points="1049,-87.5 1049,-124.5 1243,-124.5 1243,-87.5 1049,-87.5"/>
<polygon fill="none" stroke="black" points="1049,-87.5 1049,-124.5 1243,-124.5 1243,-87.5 1049,-87.5"/>
<text text-anchor="start" x="1060" y="-103.3" font-family="Arial" font-weight="bold" font-size="14.00">InitializationAccumulator</text>
<polygon fill="none" stroke="black" points="1048,-87 1048,-126 1244,-126 1244,-87 1048,-87"/>
</a>
</g>
</g>
<!-- ndInitializationAccumulator&#45;&gt;ndKeyGen -->
<g id="edge11" class="edge"><title>ndInitializationAccumulator&#45;&gt;ndKeyGen</title>
<path fill="none" stroke="black" d="M1055.75,-82.937C1000.34,-69.0846 930.895,-51.7238 882.15,-39.5375"/>
<polygon fill="black" stroke="black" points="881.866,-39.4666 875.075,-41.8919 870.224,-36.5561 877.015,-34.1308 881.866,-39.4666"/>
</g>
<!-- ndComplaintsAccumulator -->
<g id="node12" class="node"><title>ndComplaintsAccumulator</title>
<g id="a_node12_12"><a xlink:href="https://github.com/maidsafe/bls_dkg/blob/master/src/key_gen/mod.rs#:~:text=struct%20ComplaintsAccumulator" xlink:title="&lt;TABLE&gt;">
<polygon fill="lightblue" stroke="none" points="9,-87.5 9,-124.5 199,-124.5 199,-87.5 9,-87.5"/>
<polygon fill="none" stroke="black" points="9,-87.5 9,-124.5 199,-124.5 199,-87.5 9,-87.5"/>
<text text-anchor="start" x="20" y="-103.3" font-family="Arial" font-weight="bold" font-size="14.00">ComplaintsAccumulator</text>
<polygon fill="none" stroke="black" points="8,-87 8,-126 200,-126 200,-87 8,-87"/>
</a>
</g>
</g>
<!-- ndComplaintsAccumulator&#45;&gt;ndKeyGen -->
<g id="edge12" class="edge"><title>ndComplaintsAccumulator&#45;&gt;ndKeyGen</title>
<path fill="none" stroke="black" d="M208.293,-84.3385C211.224,-83.8709 214.131,-83.4233 217,-83 415.528,-53.7119 652.96,-35.6552 761.942,-28.3054"/>
<polygon fill="black" stroke="black" points="761.987,-28.3025 767.707,-23.9118 773.96,-27.5033 768.24,-31.894 761.987,-28.3025"/>
</g>
<!-- ndAcknowledgmentFault -->
<g id="node14" class="node"><title>ndAcknowledgmentFault</title>
<g id="a_node14_13"><a xlink:href="https://github.com/maidsafe/bls_dkg/blob/master/src/key_gen/mod.rs#:~:text=enum%20AcknowledgmentFault" xlink:title="&lt;TABLE&gt;">
<polygon fill="yellow" stroke="none" points="236,-87.5 236,-124.5 413,-124.5 413,-87.5 236,-87.5"/>
<polygon fill="none" stroke="black" points="236,-87.5 236,-124.5 413,-124.5 413,-87.5 236,-87.5"/>
<text text-anchor="start" x="247" y="-103.3" font-family="Arial" font-weight="bold" font-size="14.00">AcknowledgmentFault</text>
<polygon fill="none" stroke="black" points="234.5,-87 234.5,-126 413.5,-126 413.5,-87 234.5,-87"/>
</a>
</g>
</g>
<!-- ndAcknowledgmentFault&#45;&gt;ndKeyGen -->
<g id="edge13" class="edge"><title>ndAcknowledgmentFault&#45;&gt;ndKeyGen</title>
<path fill="none" stroke="black" d="M421.629,-84.7236C424.787,-84.1305 427.917,-83.5542 431,-83 548.828,-61.816 687.601,-42.3425 764.082,-32.0823"/>
<polygon fill="black" stroke="black" points="774,-30.7568 764.684,-36.542 769.044,-31.4192 764.088,-32.0817 764.088,-32.0817 764.088,-32.0817 769.044,-31.4192 763.492,-27.6214 774,-30.7568 774,-30.7568"/>
</g>
<!-- ndPartFault -->
<g id="node15" class="node"><title>ndPartFault</title>
<g id="a_node15_14"><a xlink:href="https://github.com/maidsafe/bls_dkg/blob/master/src/key_gen/mod.rs#:~:text=enum%20PartFault" xlink:title="&lt;TABLE&gt;">
<polygon fill="yellow" stroke="none" points="1279,-87.5 1279,-124.5 1365,-124.5 1365,-87.5 1279,-87.5"/>
<polygon fill="none" stroke="black" points="1279,-87.5 1279,-124.5 1365,-124.5 1365,-87.5 1279,-87.5"/>
<text text-anchor="start" x="1290" y="-103.3" font-family="Arial" font-weight="bold" font-size="14.00">PartFault</text>
<polygon fill="none" stroke="black" points="1278,-87 1278,-126 1366,-126 1366,-87 1278,-87"/>
</a>
</g>
</g>
<!-- ndPartFault&#45;&gt;ndPartOutcome -->
<g id="edge14" class="edge"><title>ndPartFault&#45;&gt;ndPartOutcome</title>
<path fill="none" stroke="black" d="M1342.89,-82.937C1350.55,-74.6683 1359.36,-65.1495 1367.62,-56.2273"/>
<polygon fill="black" stroke="black" points="1367.81,-56.0281 1368.95,-48.9079 1375.96,-47.2229 1374.82,-54.3432 1367.81,-56.0281"/>
</g>
<!-- ndPartFault&#45;&gt;ndKeyGen -->
<g id="edge15" class="edge"><title>ndPartFault&#45;&gt;ndKeyGen</title>
<path fill="none" stroke="black" d="M1269.99,-85.4579C1266.97,-84.5618 1263.96,-83.7331 1261,-83 1127.03,-49.7992 965.082,-34.3955 880.27,-28.1547"/>
<polygon fill="black" stroke="black" points="870.068,-27.421 880.365,-23.65 875.055,-27.7797 880.043,-28.1384 880.043,-28.1384 880.043,-28.1384 875.055,-27.7797 879.72,-32.6268 870.068,-27.421 870.068,-27.421"/>
</g>
<!-- ndRngAdapter -->
<g id="node16" class="node"><title>ndRngAdapter</title>
<g id="a_node16_15"><a xlink:href="https://github.com/maidsafe/bls_dkg/blob/master/src/key_gen/rng_adapter.rs#:~:text=struct%20RngAdapter" xlink:title="&lt;TABLE&gt;">
<polygon fill="lightblue" stroke="none" points="1255,-170.5 1255,-207.5 1360,-207.5 1360,-170.5 1255,-170.5"/>
<polygon fill="none" stroke="black" points="1255,-170.5 1255,-207.5 1360,-207.5 1360,-170.5 1255,-170.5"/>
<text text-anchor="start" x="1266" y="-186.3" font-family="Arial" font-weight="bold" font-size="14.00">RngAdapter</text>
<polygon fill="none" stroke="black" points="1253.5,-170 1253.5,-209 1360.5,-209 1360.5,-170 1253.5,-170"/>
</a>
</g>
</g>
<!-- ndMessage -->
<g id="node17" class="node"><title>ndMessage</title>
<g id="a_node17_16"><a xlink:href="https://github.com/maidsafe/bls_dkg/blob/master/src/key_gen/message.rs#:~:text=enum%20Message" xlink:title="&lt;TABLE&gt;">
<polygon fill="yellow" stroke="none" points="449,-87.5 449,-124.5 535,-124.5 535,-87.5 449,-87.5"/>
<polygon fill="none" stroke="black" points="449,-87.5 449,-124.5 535,-124.5 535,-87.5 449,-87.5"/>
<text text-anchor="start" x="460" y="-103.3" font-family="Arial" font-weight="bold" font-size="14.00">Message</text>
<polygon fill="none" stroke="black" points="448,-87 448,-126 536,-126 536,-87 448,-87"/>
</a>
</g>
</g>
<!-- ndMessage&#45;&gt;ndKeyGen -->
<g id="edge16" class="edge"><title>ndMessage&#45;&gt;ndKeyGen</title>
<path fill="none" stroke="black" stroke-dasharray="5,2" d="M544.084,-85.7463C547.087,-84.7768 550.074,-83.8532 553,-83 623.809,-62.3506 707.004,-45.3378 761.919,-35.0814"/>
<polygon fill="black" stroke="black" points="762.075,-35.0526 767.249,-30.0287 773.876,-32.8716 768.702,-37.8955 762.075,-35.0526"/>
</g>
<!-- ndPeerId -->
<g id="node18" class="node"><title>ndPeerId</title>
<g id="a_node18_17"><a xlink:href="https://github.com/maidsafe/bls_dkg/blob/master/src/dev_utils/peer.rs#:~:text=struct%20PeerId" xlink:title="&lt;TABLE&gt;">
<polygon fill="lightblue" stroke="none" points="1581,-87.5 1581,-124.5 1649,-124.5 1649,-87.5 1581,-87.5"/>
<polygon fill="none" stroke="black" points="1581,-87.5 1581,-124.5 1649,-124.5 1649,-87.5 1581,-87.5"/>
<text text-anchor="start" x="1592" y="-103.3" font-family="Arial" font-weight="bold" font-size="14.00">PeerId</text>
<polygon fill="none" stroke="black" points="1580,-87 1580,-126 1650,-126 1650,-87 1580,-87"/>
</a>
</g>
</g>
<!-- ndPublicKey -->
<g id="node19" class="node"><title>ndPublicKey</title>
<g id="a_node19_18"><a xlink:href="https://github.com/maidsafe/bls_dkg/blob/master/src/dev_utils/peer.rs#:~:text=struct%20PublicKey" xlink:title="&lt;TABLE&gt;">
<polygon fill="lightblue" stroke="none" points="1504,-170.5 1504,-207.5 1597,-207.5 1597,-170.5 1504,-170.5"/>
<polygon fill="none" stroke="black" points="1504,-170.5 1504,-207.5 1597,-207.5 1597,-170.5 1504,-170.5"/>
<text text-anchor="start" x="1515" y="-186.3" font-family="Arial" font-weight="bold" font-size="14.00">PublicKey</text>
<polygon fill="none" stroke="black" points="1502.5,-170 1502.5,-209 1597.5,-209 1597.5,-170 1502.5,-170"/>
</a>
</g>
</g>
<!-- ndPublicKey&#45;&gt;ndPeerId -->
<g id="edge17" class="edge"><title>ndPublicKey&#45;&gt;ndPeerId</title>
<path fill="none" stroke="black" d="M1568.11,-165.937C1574.6,-157.842 1582.06,-148.55 1589.09,-139.792"/>
<polygon fill="black" stroke="black" points="1589.26,-139.582 1589.89,-132.399 1596.77,-130.223 1596.13,-137.406 1589.26,-139.582"/>
</g>
<!-- ndSecretKey -->
<g id="node20" class="node"><title>ndSecretKey</title>
<g id="a_node20_19"><a xlink:href="https://github.com/maidsafe/bls_dkg/blob/master/src/dev_utils/peer.rs#:~:text=struct%20SecretKey" xlink:title="&lt;TABLE&gt;">
<polygon fill="lightblue" stroke="none" points="1633,-170.5 1633,-207.5 1728,-207.5 1728,-170.5 1633,-170.5"/>
<polygon fill="none" stroke="black" points="1633,-170.5 1633,-207.5 1728,-207.5 1728,-170.5 1633,-170.5"/>
<text text-anchor="start" x="1644" y="-186.3" font-family="Arial" font-weight="bold" font-size="14.00">SecretKey</text>
<polygon fill="none" stroke="black" points="1631.5,-170 1631.5,-209 1728.5,-209 1728.5,-170 1631.5,-170"/>
</a>
</g>
</g>
<!-- ndSecretKey&#45;&gt;ndPeerId -->
<g id="edge18" class="edge"><title>ndSecretKey&#45;&gt;ndPeerId</title>
<path fill="none" stroke="black" d="M1661.89,-165.937C1655.4,-157.842 1647.94,-148.55 1640.91,-139.792"/>
<polygon fill="black" stroke="black" points="1640.74,-139.582 1633.87,-137.406 1633.23,-130.223 1640.11,-132.399 1640.74,-139.582"/>
</g>
<!-- ndSignature -->
<g id="node21" class="node"><title>ndSignature</title>
<g id="a_node21_20"><a xlink:href="https://github.com/maidsafe/bls_dkg/blob/master/src/dev_utils/peer.rs#:~:text=struct%20Signature" xlink:title="&lt;TABLE&gt;">
<polygon fill="lightblue" stroke="none" points="1764,-170.5 1764,-207.5 1854,-207.5 1854,-170.5 1764,-170.5"/>
<polygon fill="none" stroke="black" points="1764,-170.5 1764,-207.5 1854,-207.5 1854,-170.5 1764,-170.5"/>
<text text-anchor="start" x="1775" y="-186.3" font-family="Arial" font-weight="bold" font-size="14.00">Signature</text>
<polygon fill="none" stroke="black" points="1763,-170 1763,-209 1855,-209 1855,-170 1763,-170"/>
</a>
</g>
</g>
</g>
</svg>
