<?xml version="1.0" encoding="UTF-8" standalone="no"?>
<!DOCTYPE svg PUBLIC "-//W3C//DTD SVG 1.1//EN"
 "http://www.w3.org/Graphics/SVG/1.1/DTD/svg11.dtd">
<!-- Generated by graphviz version 2.38.0 (20140413.2041)
 -->
<!-- Title: ml Pages: 1 -->
<svg width="819pt" height="257pt"
 viewBox="0.00 0.00 818.50 257.00" xmlns="http://www.w3.org/2000/svg" xmlns:xlink="http://www.w3.org/1999/xlink">
<g id="graph0" class="graph" transform="scale(1 1) rotate(0) translate(4 253)">
<title>ml</title>
<polygon fill="white" stroke="none" points="-4,4 -4,-253 814.5,-253 814.5,4 -4,4"/>
<!-- ndSignatureAggregator -->
<g id="node1" class="node"><title>ndSignatureAggregator</title>
<polygon fill="lightblue" stroke="none" points="196,-56.5 196,-93.5 444,-93.5 444,-56.5 196,-56.5"/>
<polygon fill="none" stroke="black" points="196,-56.5 196,-93.5 444,-93.5 444,-56.5 196,-56.5"/>
<text text-anchor="start" x="246.5" y="-72.3" font-family="Arial" font-weight="bold" font-size="14.00">SignatureAggregator</text>
<polygon fill="white" stroke="none" points="196,-4.5 196,-56.5 444,-56.5 444,-4.5 196,-4.5"/>
<polygon fill="none" stroke="black" points="196,-4.5 196,-56.5 444,-56.5 444,-4.5 196,-4.5"/>
<text text-anchor="start" x="207" y="-34.3" font-family="Arial" font-size="14.00">&#45; map: HashMap&lt;Digest256, State&gt;</text>
<text text-anchor="start" x="207" y="-19.3" font-family="Arial" font-size="14.00">&#45; expiration: Duration</text>
<polygon fill="none" stroke="black" points="195,-4 195,-95 445,-95 445,-4 195,-4"/>
</g>
<!-- ndError -->
<g id="node2" class="node"><title>ndError</title>
<polygon fill="yellow" stroke="none" points="549,-207 549,-244 734,-244 734,-207 549,-207"/>
<polygon fill="none" stroke="black" points="549,-207 549,-244 734,-244 734,-207 549,-207"/>
<text text-anchor="start" x="623" y="-222.8" font-family="Arial" font-weight="bold" font-size="14.00">Error</text>
<polygon fill="white" stroke="none" points="549,-140 549,-207 734,-207 734,-140 549,-140"/>
<polygon fill="none" stroke="black" points="549,-140 549,-207 734,-207 734,-140 549,-140"/>
<text text-anchor="start" x="560" y="-184.8" font-family="Arial" font-size="14.00">NotEnoughShares</text>
<text text-anchor="start" x="560" y="-169.8" font-family="Arial" font-size="14.00">InvalidShare</text>
<text text-anchor="start" x="560" y="-154.8" font-family="Arial" font-size="14.00">Combine(bls::error::Error)</text>
<polygon fill="none" stroke="black" points="547.5,-139 547.5,-245 734.5,-245 734.5,-139 547.5,-139"/>
</g>
<!-- ndError&#45;&gt;ndSignatureAggregator -->
<g id="edge1" class="edge"><title>ndError&#45;&gt;ndSignatureAggregator</title>
<path fill="none" stroke="black" d="M539.275,-138.807C536.494,-137.511 533.732,-136.239 531,-135 507.022,-124.122 481.209,-113.174 456.147,-102.931"/>
<polygon fill="black" stroke="black" points="446.583,-99.0418 457.542,-98.6408 451.215,-100.926 455.846,-102.809 455.846,-102.809 455.846,-102.809 451.215,-100.926 454.151,-106.978 446.583,-99.0418 446.583,-99.0418"/>
</g>
<!-- ndState -->
<g id="node3" class="node"><title>ndState</title>
<polygon fill="lightblue" stroke="none" points="481,-56.5 481,-93.5 802,-93.5 802,-56.5 481,-56.5"/>
<polygon fill="none" stroke="black" points="481,-56.5 481,-93.5 802,-93.5 802,-56.5 481,-56.5"/>
<text text-anchor="start" x="623.5" y="-72.3" font-family="Arial" font-weight="bold" font-size="14.00">State</text>
<polygon fill="white" stroke="none" points="481,-4.5 481,-56.5 802,-56.5 802,-4.5 481,-4.5"/>
<polygon fill="none" stroke="black" points="481,-4.5 481,-56.5 802,-56.5 802,-4.5 481,-4.5"/>
<text text-anchor="start" x="492" y="-34.3" font-family="Arial" font-size="14.00">&#45; shares: HashMap&lt;usize, bls::SignatureShare&gt;</text>
<text text-anchor="start" x="492" y="-19.3" font-family="Arial" font-size="14.00">&#45; modified: Instant</text>
<polygon fill="none" stroke="black" points="479.5,-4 479.5,-95 802.5,-95 802.5,-4 479.5,-4"/>
</g>
<!-- ndError&#45;&gt;ndState -->
<g id="edge2" class="edge"><title>ndError&#45;&gt;ndState</title>
<path fill="none" stroke="black" d="M641,-134.663C641,-126.304 641,-117.672 641,-109.265"/>
<polygon fill="black" stroke="black" points="641,-99.1565 645.5,-109.156 641,-104.157 641,-109.157 641,-109.157 641,-109.157 641,-104.157 636.5,-109.157 641,-99.1565 641,-99.1565"/>
</g>
<!-- ndProof -->
<g id="node4" class="node"><title>ndProof</title>
<polygon fill="lightblue" stroke="none" points="9,-199 9,-236 209,-236 209,-199 9,-199"/>
<polygon fill="none" stroke="black" points="9,-199 9,-236 209,-236 209,-199 9,-199"/>
<text text-anchor="start" x="89.5" y="-214.8" font-family="Arial" font-weight="bold" font-size="14.00">Proof</text>
<polygon fill="white" stroke="none" points="9,-147 9,-199 209,-199 209,-147 9,-147"/>
<polygon fill="none" stroke="black" points="9,-147 9,-199 209,-199 209,-147 9,-147"/>
<text text-anchor="start" x="20" y="-176.8" font-family="Arial" font-size="14.00">+ public_key: bls::PublicKey</text>
<text text-anchor="start" x="20" y="-161.8" font-family="Arial" font-size="14.00">+ signature: bls::Signature</text>
<polygon fill="none" stroke="black" points="8,-146.5 8,-237.5 210,-237.5 210,-146.5 8,-146.5"/>
</g>
<!-- ndProof&#45;&gt;ndSignatureAggregator -->
<g id="edge3" class="edge"><title>ndProof&#45;&gt;ndSignatureAggregator</title>
<path fill="none" stroke="black" d="M181.91,-142.451C200.193,-130.276 219.925,-117.137 238.594,-104.706"/>
<polygon fill="black" stroke="black" points="247.087,-99.0508 241.258,-108.339 242.926,-101.822 238.764,-104.593 238.764,-104.593 238.764,-104.593 242.926,-101.822 236.27,-100.848 247.087,-99.0508 247.087,-99.0508"/>
</g>
<!-- ndProofShare -->
<g id="node5" class="node"><title>ndProofShare</title>
<polygon fill="lightblue" stroke="none" points="246,-207 246,-244 513,-244 513,-207 246,-207"/>
<polygon fill="none" stroke="black" points="246,-207 246,-244 513,-244 513,-207 246,-207"/>
<text text-anchor="start" x="339.5" y="-222.8" font-family="Arial" font-weight="bold" font-size="14.00">ProofShare</text>
<polygon fill="white" stroke="none" points="246,-140 246,-207 513,-207 513,-140 246,-140"/>
<polygon fill="none" stroke="black" points="246,-140 246,-207 513,-207 513,-140 246,-140"/>
<text text-anchor="start" x="257" y="-184.8" font-family="Arial" font-size="14.00">+ public_key_set: bls::PublicKeySet</text>
<text text-anchor="start" x="257" y="-169.8" font-family="Arial" font-size="14.00">+ index: usize</text>
<text text-anchor="start" x="257" y="-154.8" font-family="Arial" font-size="14.00">+ signature_share: bls::SignatureShare</text>
<polygon fill="none" stroke="black" points="244.5,-139 244.5,-245 513.5,-245 513.5,-139 244.5,-139"/>
</g>
<!-- ndProofShare&#45;&gt;ndSignatureAggregator -->
<g id="edge4" class="edge"><title>ndProofShare&#45;&gt;ndSignatureAggregator</title>
<path fill="none" stroke="black" stroke-dasharray="5,2" d="M355.342,-134.663C351.717,-126.029 347.968,-117.103 344.328,-108.435"/>
<polygon fill="black" stroke="black" points="340.432,-99.1565 348.453,-106.634 342.368,-103.767 344.304,-108.377 344.304,-108.377 344.304,-108.377 342.368,-103.767 340.155,-110.119 340.432,-99.1565 340.432,-99.1565"/>
</g>
<!-- ndProofShare&#45;&gt;ndState -->
<g id="edge5" class="edge"><title>ndProofShare&#45;&gt;ndState</title>
<path fill="none" stroke="black" stroke-dasharray="5,2" d="M483.679,-134.865C502.751,-124.637 522.6,-113.993 541.516,-103.849"/>
<polygon fill="black" stroke="black" points="550.427,-99.0708 543.741,-107.763 546.02,-101.434 541.614,-103.797 541.614,-103.797 541.614,-103.797 546.02,-101.434 539.487,-99.831 550.427,-99.0708 550.427,-99.0708"/>
</g>
</g>
</svg>
