<?xml version="1.0" encoding="UTF-8" standalone="no"?>
<!DOCTYPE svg PUBLIC "-//W3C//DTD SVG 1.1//EN"
 "http://www.w3.org/Graphics/SVG/1.1/DTD/svg11.dtd">
<!-- Generated by graphviz version 2.38.0 (20140413.2041)
 -->
<!-- Title: ml Pages: 1 -->
<svg width="3307pt" height="662pt"
 viewBox="0.00 0.00 3306.50 662.00" xmlns="http://www.w3.org/2000/svg" xmlns:xlink="http://www.w3.org/1999/xlink">
<g id="graph0" class="graph" transform="scale(1 1) rotate(0) translate(4 658)">
<title>ml</title>
<polygon fill="white" stroke="none" points="-4,4 -4,-658 3302.5,-658 3302.5,4 -4,4"/>
<!-- ndKey -->
<g id="node1" class="node"><title>ndKey</title>
<g id="a_node1_0"><a xlink:href="https://github.com/maidsafe/bls_dkg/blob/master/src/key_gen/encryptor.rs#:~:text=struct%20Key" xlink:title="&lt;TABLE&gt;">
<polygon fill="lightblue" stroke="none" points="823,-559.5 823,-596.5 958,-596.5 958,-559.5 823,-559.5"/>
<polygon fill="none" stroke="black" points="823,-559.5 823,-596.5 958,-596.5 958,-559.5 823,-559.5"/>
<text text-anchor="start" x="876.5" y="-575.3" font-family="Arial" font-weight="bold" font-size="14.00">Key</text>
<polygon fill="white" stroke="none" points="823,-522.5 823,-559.5 958,-559.5 958,-522.5 823,-522.5"/>
<polygon fill="none" stroke="black" points="823,-522.5 823,-559.5 958,-559.5 958,-522.5 823,-522.5"/>
<text text-anchor="start" x="834" y="-537.3" font-family="Arial" font-size="14.00">+ [u8; KEY_SIZE]</text>
<polygon fill="none" stroke="black" points="821.5,-521.5 821.5,-597.5 958.5,-597.5 958.5,-521.5 821.5,-521.5"/>
</a>
</g>
</g>
<!-- ndEncryptor -->
<g id="node3" class="node"><title>ndEncryptor</title>
<g id="a_node3_1"><a xlink:href="https://github.com/maidsafe/bls_dkg/blob/master/src/key_gen/encryptor.rs#:~:text=struct%20Encryptor" xlink:title="&lt;TABLE&gt;">
<polygon fill="lightblue" stroke="none" points="820,-349.5 820,-386.5 1125,-386.5 1125,-349.5 820,-349.5"/>
<polygon fill="none" stroke="black" points="820,-349.5 820,-386.5 1125,-386.5 1125,-349.5 820,-349.5"/>
<text text-anchor="start" x="937.5" y="-365.3" font-family="Arial" font-weight="bold" font-size="14.00">Encryptor</text>
<polygon fill="white" stroke="none" points="820,-312.5 820,-349.5 1125,-349.5 1125,-312.5 820,-312.5"/>
<polygon fill="none" stroke="black" points="820,-312.5 820,-349.5 1125,-349.5 1125,-312.5 820,-312.5"/>
<text text-anchor="start" x="831" y="-327.3" font-family="Arial" font-size="14.00">&#45; keys_map: BTreeMap&lt;XorName, (Key, Iv)&gt;</text>
<polygon fill="none" stroke="black" points="818.5,-311.5 818.5,-387.5 1125.5,-387.5 1125.5,-311.5 818.5,-311.5"/>
</a>
</g>
</g>
<!-- ndKey&#45;&gt;ndEncryptor -->
<g id="edge1" class="edge"><title>ndKey&#45;&gt;ndEncryptor</title>
<path fill="none" stroke="black" d="M906.201,-517.406C919.116,-484.644 937.291,-438.542 951.268,-403.089"/>
<polygon fill="black" stroke="black" points="951.432,-402.673 949.911,-395.624 955.833,-391.509 957.354,-398.558 951.432,-402.673"/>
</g>
<!-- ndIv -->
<g id="node2" class="node"><title>ndIv</title>
<g id="a_node2_2"><a xlink:href="https://github.com/maidsafe/bls_dkg/blob/master/src/key_gen/encryptor.rs#:~:text=struct%20Iv" xlink:title="&lt;TABLE&gt;">
<polygon fill="lightblue" stroke="none" points="994,-559.5 994,-596.5 1115,-596.5 1115,-559.5 994,-559.5"/>
<polygon fill="none" stroke="black" points="994,-559.5 994,-596.5 1115,-596.5 1115,-559.5 994,-559.5"/>
<text text-anchor="start" x="1048" y="-575.3" font-family="Arial" font-weight="bold" font-size="14.00">Iv</text>
<polygon fill="white" stroke="none" points="994,-522.5 994,-559.5 1115,-559.5 1115,-522.5 994,-522.5"/>
<polygon fill="none" stroke="black" points="994,-522.5 994,-559.5 1115,-559.5 1115,-522.5 994,-522.5"/>
<text text-anchor="start" x="1005" y="-537.3" font-family="Arial" font-size="14.00">+ [u8; IV_SIZE]</text>
<polygon fill="none" stroke="black" points="992.5,-521.5 992.5,-597.5 1115.5,-597.5 1115.5,-521.5 992.5,-521.5"/>
</a>
</g>
</g>
<!-- ndIv&#45;&gt;ndEncryptor -->
<g id="edge2" class="edge"><title>ndIv&#45;&gt;ndEncryptor</title>
<path fill="none" stroke="black" d="M1037.8,-517.406C1024.66,-484.074 1006.08,-436.934 992.007,-401.249"/>
<polygon fill="black" stroke="black" points="988.167,-391.509 996.021,-399.161 990.001,-396.16 991.835,-400.812 991.835,-400.812 991.835,-400.812 990.001,-396.16 987.648,-402.462 988.167,-391.509 988.167,-391.509"/>
</g>
<!-- ndKeyGen -->
<g id="node13" class="node"><title>ndKeyGen</title>
<g id="a_node13_3"><a xlink:href="https://github.com/maidsafe/bls_dkg/blob/master/src/key_gen/mod.rs#:~:text=struct%20KeyGen" xlink:title="&lt;TABLE&gt;">
<polygon fill="lightblue" stroke="none" points="1282,-192 1282,-229 1635,-229 1635,-192 1282,-192"/>
<polygon fill="none" stroke="black" points="1282,-192 1282,-229 1635,-229 1635,-192 1282,-192"/>
<text text-anchor="start" x="1430.5" y="-207.8" font-family="Arial" font-weight="bold" font-size="14.00">KeyGen</text>
<polygon fill="white" stroke="none" points="1282,-5 1282,-192 1635,-192 1635,-5 1282,-5"/>
<polygon fill="none" stroke="black" points="1282,-5 1282,-192 1635,-192 1635,-5 1282,-5"/>
<text text-anchor="start" x="1293" y="-169.8" font-family="Arial" font-size="14.00">&#45; our_id: XorName</text>
<text text-anchor="start" x="1293" y="-154.8" font-family="Arial" font-size="14.00">&#45; our_index: u64</text>
<text text-anchor="start" x="1293" y="-139.8" font-family="Arial" font-size="14.00">&#45; names: BTreeSet&lt;XorName&gt;</text>
<text text-anchor="start" x="1293" y="-124.8" font-family="Arial" font-size="14.00">&#45; encryptor: Encryptor</text>
<text text-anchor="start" x="1293" y="-109.8" font-family="Arial" font-size="14.00">&#45; parts: BTreeMap&lt;u64, ProposalState&gt;</text>
<text text-anchor="start" x="1293" y="-94.8" font-family="Arial" font-size="14.00">&#45; threshold: usize</text>
<text text-anchor="start" x="1293" y="-79.8" font-family="Arial" font-size="14.00">&#45; phase: Phase</text>
<text text-anchor="start" x="1293" y="-64.8" font-family="Arial" font-size="14.00">&#45; initalization_accumulator: InitializationAccumulator</text>
<text text-anchor="start" x="1293" y="-49.8" font-family="Arial" font-size="14.00">&#45; complaints_accumulator: ComplaintsAccumulator</text>
<text text-anchor="start" x="1293" y="-34.8" font-family="Arial" font-size="14.00">&#45; pending_complain_messages: Vec&lt;Message&gt;</text>
<text text-anchor="start" x="1293" y="-19.8" font-family="Arial" font-size="14.00">&#45; message_cache: BTreeMap&lt;XorName, Message&gt;</text>
<polygon fill="none" stroke="black" points="1280.5,-4 1280.5,-230 1635.5,-230 1635.5,-4 1280.5,-4"/>
</a>
</g>
</g>
<!-- ndEncryptor&#45;&gt;ndKeyGen -->
<g id="edge3" class="edge"><title>ndEncryptor&#45;&gt;ndKeyGen</title>
<path fill="none" stroke="black" d="M1058.61,-307.424C1114.88,-280.733 1190.62,-244.814 1261.01,-211.43"/>
<polygon fill="black" stroke="black" points="1261.41,-211.238 1265.12,-205.053 1272.25,-206.096 1268.55,-212.281 1261.41,-211.238"/>
</g>
<!-- ndOutcome -->
<g id="node4" class="node"><title>ndOutcome</title>
<g id="a_node4_4"><a xlink:href="https://github.com/maidsafe/bls_dkg/blob/master/src/key_gen/outcome.rs#:~:text=struct%20Outcome" xlink:title="&lt;TABLE&gt;">
<polygon fill="lightblue" stroke="none" points="1161,-364.5 1161,-401.5 1421,-401.5 1421,-364.5 1161,-364.5"/>
<polygon fill="none" stroke="black" points="1161,-364.5 1161,-401.5 1421,-401.5 1421,-364.5 1161,-364.5"/>
<text text-anchor="start" x="1259" y="-380.3" font-family="Arial" font-weight="bold" font-size="14.00">Outcome</text>
<polygon fill="white" stroke="none" points="1161,-297.5 1161,-364.5 1421,-364.5 1421,-297.5 1161,-297.5"/>
<polygon fill="none" stroke="black" points="1161,-297.5 1161,-364.5 1421,-364.5 1421,-297.5 1161,-297.5"/>
<text text-anchor="start" x="1172" y="-342.3" font-family="Arial" font-size="14.00">+ public_key_set: PublicKeySet</text>
<text text-anchor="start" x="1172" y="-327.3" font-family="Arial" font-size="14.00">+ secret_key_share: SecretKeyShare</text>
<text text-anchor="start" x="1172" y="-312.3" font-family="Arial" font-size="14.00">+ index: usize</text>
<polygon fill="none" stroke="black" points="1160,-296.5 1160,-402.5 1422,-402.5 1422,-296.5 1160,-296.5"/>
</a>
</g>
</g>
<!-- ndOutcome&#45;&gt;ndKeyGen -->
<g id="edge4" class="edge"><title>ndOutcome&#45;&gt;ndKeyGen</title>
<path fill="none" stroke="black" d="M1331.64,-292.408C1342.67,-277.177 1355.08,-260.055 1367.69,-242.644"/>
<polygon fill="black" stroke="black" points="1373.9,-234.082 1371.67,-244.82 1370.96,-238.131 1368.03,-242.18 1368.03,-242.18 1368.03,-242.18 1370.96,-238.131 1364.39,-239.539 1373.9,-234.082 1373.9,-234.082"/>
</g>
<!-- ndError -->
<g id="node5" class="node"><title>ndError</title>
<g id="a_node5_5"><a xlink:href="https://github.com/maidsafe/bls_dkg/blob/master/src/key_gen/mod.rs#:~:text=enum%20Error" xlink:title="&lt;TABLE&gt;">
<polygon fill="yellow" stroke="none" points="1199,-611.5 1199,-648.5 1456,-648.5 1456,-611.5 1199,-611.5"/>
<polygon fill="none" stroke="black" points="1199,-611.5 1199,-648.5 1456,-648.5 1456,-611.5 1199,-611.5"/>
<text text-anchor="start" x="1309" y="-627.3" font-family="Arial" font-weight="bold" font-size="14.00">Error</text>
<polygon fill="white" stroke="none" points="1199,-469.5 1199,-611.5 1456,-611.5 1456,-469.5 1199,-469.5"/>
<polygon fill="none" stroke="black" points="1199,-469.5 1199,-611.5 1456,-611.5 1456,-469.5 1199,-469.5"/>
<text text-anchor="start" x="1210" y="-589.3" font-family="Arial" font-size="14.00">Unknown</text>
<text text-anchor="start" x="1210" y="-574.3" font-family="Arial" font-size="14.00">UnknownSender</text>
<text text-anchor="start" x="1210" y="-559.3" font-family="Arial" font-size="14.00">Serialization(String)</text>
<text text-anchor="start" x="1210" y="-544.3" font-family="Arial" font-size="14.00">QuicP2P(String)</text>
<text text-anchor="start" x="1210" y="-529.3" font-family="Arial" font-size="14.00">Encryption</text>
<text text-anchor="start" x="1210" y="-514.3" font-family="Arial" font-size="14.00">TooManyNonVoters(BTreeSet&lt;u64&gt;)</text>
<text text-anchor="start" x="1210" y="-499.3" font-family="Arial" font-size="14.00">UnexpectedPhase</text>
<text text-anchor="start" x="1210" y="-484.3" font-family="Arial" font-size="14.00">MissingPart</text>
<polygon fill="none" stroke="black" points="1197.5,-469 1197.5,-650 1456.5,-650 1456.5,-469 1197.5,-469"/>
</a>
</g>
</g>
<!-- ndError&#45;&gt;ndEncryptor -->
<g id="edge5" class="edge"><title>ndError&#45;&gt;ndEncryptor</title>
<path fill="none" stroke="black" d="M1189.49,-477.933C1142.62,-450.47 1091.82,-420.707 1051.12,-396.857"/>
<polygon fill="black" stroke="black" points="1042.33,-391.705 1053.23,-392.878 1046.64,-394.233 1050.95,-396.761 1050.95,-396.761 1050.95,-396.761 1046.64,-394.233 1048.68,-400.643 1042.33,-391.705 1042.33,-391.705"/>
</g>
<!-- ndError&#45;&gt;ndKeyGen -->
<g id="edge6" class="edge"><title>ndError&#45;&gt;ndKeyGen</title>
<path fill="none" stroke="black" d="M1419.55,-464.842C1427.22,-453.42 1433.95,-441.387 1439,-429 1462.5,-371.349 1468.71,-302.677 1468.43,-244.545"/>
<polygon fill="black" stroke="black" points="1468.31,-234.193 1472.92,-244.141 1468.36,-239.193 1468.42,-244.193 1468.42,-244.193 1468.42,-244.193 1468.36,-239.193 1463.92,-244.244 1468.31,-234.193 1468.31,-234.193"/>
</g>
<!-- ndPart -->
<g id="node6" class="node"><title>ndPart</title>
<g id="a_node6_6"><a xlink:href="https://github.com/maidsafe/bls_dkg/blob/master/src/key_gen/mod.rs#:~:text=struct%20Part" xlink:title="&lt;TABLE&gt;">
<polygon fill="lightblue" stroke="none" points="1496,-371.5 1496,-408.5 1725,-408.5 1725,-371.5 1496,-371.5"/>
<polygon fill="none" stroke="black" points="1496,-371.5 1496,-408.5 1725,-408.5 1725,-371.5 1496,-371.5"/>
<text text-anchor="start" x="1596" y="-387.3" font-family="Arial" font-weight="bold" font-size="14.00">Part</text>
<polygon fill="white" stroke="none" points="1496,-289.5 1496,-371.5 1725,-371.5 1725,-289.5 1496,-289.5"/>
<polygon fill="none" stroke="black" points="1496,-289.5 1496,-371.5 1725,-371.5 1725,-289.5 1496,-289.5"/>
<text text-anchor="start" x="1507" y="-349.3" font-family="Arial" font-size="14.00">&#45; receiver: u64</text>
<text text-anchor="start" x="1507" y="-334.3" font-family="Arial" font-size="14.00">&#45; commitment: BivarCommitment</text>
<text text-anchor="start" x="1507" y="-319.3" font-family="Arial" font-size="14.00">&#45; ser_row: Vec&lt;u8&gt;</text>
<text text-anchor="start" x="1507" y="-304.3" font-family="Arial" font-size="14.00">&#45; enc_rows: Vec&lt;Vec&lt;u8&gt;&gt;</text>
<polygon fill="none" stroke="black" points="1494.5,-289 1494.5,-410 1725.5,-410 1725.5,-289 1494.5,-289"/>
</a>
</g>
</g>
<!-- ndPart&#45;&gt;ndKeyGen -->
<g id="edge7" class="edge"><title>ndPart&#45;&gt;ndKeyGen</title>
<path fill="none" stroke="black" stroke-dasharray="5,2" d="M1568.06,-284.905C1559.32,-271.649 1549.82,-257.244 1540.19,-242.636"/>
<polygon fill="black" stroke="black" points="1534.51,-234.019 1543.77,-239.89 1537.26,-238.193 1540.01,-242.367 1540.01,-242.367 1540.01,-242.367 1537.26,-238.193 1536.26,-244.845 1534.51,-234.019 1534.51,-234.019"/>
</g>
<!-- ndAcknowledgment -->
<g id="node7" class="node"><title>ndAcknowledgment</title>
<g id="a_node7_7"><a xlink:href="https://github.com/maidsafe/bls_dkg/blob/master/src/key_gen/mod.rs#:~:text=struct%20Acknowledgment" xlink:title="&lt;TABLE&gt;">
<polygon fill="lightblue" stroke="none" points="2602,-371.5 2602,-408.5 2745,-408.5 2745,-371.5 2602,-371.5"/>
<polygon fill="none" stroke="black" points="2602,-371.5 2602,-408.5 2745,-408.5 2745,-371.5 2602,-371.5"/>
<text text-anchor="start" x="2613" y="-387.3" font-family="Arial" font-weight="bold" font-size="14.00">Acknowledgment</text>
<polygon fill="white" stroke="none" points="2602,-289.5 2602,-371.5 2745,-371.5 2745,-289.5 2602,-289.5"/>
<polygon fill="none" stroke="black" points="2602,-289.5 2602,-371.5 2745,-371.5 2745,-289.5 2602,-289.5"/>
<text text-anchor="start" x="2613" y="-349.3" font-family="Arial" font-size="14.00">&#45; u64</text>
<text text-anchor="start" x="2613" y="-334.3" font-family="Arial" font-size="14.00">&#45; u64</text>
<text text-anchor="start" x="2613" y="-319.3" font-family="Arial" font-size="14.00">&#45; Vec&lt;u8&gt;</text>
<text text-anchor="start" x="2613" y="-304.3" font-family="Arial" font-size="14.00">&#45; Vec&lt;Vec&lt;u8&gt;&gt;</text>
<polygon fill="none" stroke="black" points="2600.5,-289 2600.5,-410 2745.5,-410 2745.5,-289 2600.5,-289"/>
</a>
</g>
</g>
<!-- ndPartOutcome -->
<g id="node9" class="node"><title>ndPartOutcome</title>
<g id="a_node9_8"><a xlink:href="https://github.com/maidsafe/bls_dkg/blob/master/src/key_gen/mod.rs#:~:text=enum%20PartOutcome" xlink:title="&lt;TABLE&gt;">
<polygon fill="yellow" stroke="none" points="2464,-124 2464,-161 2694,-161 2694,-124 2464,-124"/>
<polygon fill="none" stroke="black" points="2464,-124 2464,-161 2694,-161 2694,-124 2464,-124"/>
<text text-anchor="start" x="2533" y="-139.8" font-family="Arial" font-weight="bold" font-size="14.00">PartOutcome</text>
<polygon fill="white" stroke="none" points="2464,-72 2464,-124 2694,-124 2694,-72 2464,-72"/>
<polygon fill="none" stroke="black" points="2464,-72 2464,-124 2694,-124 2694,-72 2464,-72"/>
<text text-anchor="start" x="2475" y="-101.8" font-family="Arial" font-size="14.00">Valid(Option&lt;Acknowledgment&gt;)</text>
<text text-anchor="start" x="2475" y="-86.8" font-family="Arial" font-size="14.00">Invalid(PartFault)</text>
<polygon fill="none" stroke="black" points="2463,-71.5 2463,-162.5 2695,-162.5 2695,-71.5 2463,-71.5"/>
</a>
</g>
</g>
<!-- ndAcknowledgment&#45;&gt;ndPartOutcome -->
<g id="edge8" class="edge"><title>ndAcknowledgment&#45;&gt;ndPartOutcome</title>
<path fill="none" stroke="black" d="M2647.07,-284.905C2633.45,-251.528 2616.87,-210.865 2603.48,-178.031"/>
<polygon fill="black" stroke="black" points="2603.42,-177.88 2597.45,-173.835 2598.89,-166.769 2604.86,-170.814 2603.42,-177.88"/>
</g>
<!-- ndAcknowledgment&#45;&gt;ndKeyGen -->
<g id="edge9" class="edge"><title>ndAcknowledgment&#45;&gt;ndKeyGen</title>
<path fill="none" stroke="black" stroke-dasharray="5,2" d="M2608.47,-284.829C2600.34,-279.107 2591.78,-273.982 2583,-270 2500.28,-232.485 1953.34,-170.181 1653.64,-138.242"/>
<polygon fill="black" stroke="black" points="1643.52,-137.166 1653.94,-133.749 1648.5,-137.695 1653.47,-138.224 1653.47,-138.224 1653.47,-138.224 1648.5,-137.695 1652.99,-142.699 1643.52,-137.166 1643.52,-137.166"/>
</g>
<!-- ndProposalState -->
<g id="node8" class="node"><title>ndProposalState</title>
<g id="a_node8_9"><a xlink:href="https://github.com/maidsafe/bls_dkg/blob/master/src/key_gen/mod.rs#:~:text=struct%20ProposalState" xlink:title="&lt;TABLE&gt;">
<polygon fill="lightblue" stroke="none" points="1682,-581.5 1682,-618.5 1911,-618.5 1911,-581.5 1682,-581.5"/>
<polygon fill="none" stroke="black" points="1682,-581.5 1682,-618.5 1911,-618.5 1911,-581.5 1682,-581.5"/>
<text text-anchor="start" x="1747" y="-597.3" font-family="Arial" font-weight="bold" font-size="14.00">ProposalState</text>
<polygon fill="white" stroke="none" points="1682,-499.5 1682,-581.5 1911,-581.5 1911,-499.5 1682,-499.5"/>
<polygon fill="none" stroke="black" points="1682,-499.5 1682,-581.5 1911,-581.5 1911,-499.5 1682,-499.5"/>
<text text-anchor="start" x="1693" y="-559.3" font-family="Arial" font-size="14.00">&#45; commitment: BivarCommitment</text>
<text text-anchor="start" x="1693" y="-544.3" font-family="Arial" font-size="14.00">&#45; values: BTreeMap&lt;u64, Fr&gt;</text>
<text text-anchor="start" x="1693" y="-529.3" font-family="Arial" font-size="14.00">&#45; enc_values: Vec&lt;Vec&lt;u8&gt;&gt;</text>
<text text-anchor="start" x="1693" y="-514.3" font-family="Arial" font-size="14.00">&#45; acks: BTreeSet&lt;u64&gt;</text>
<polygon fill="none" stroke="black" points="1680.5,-499 1680.5,-620 1911.5,-620 1911.5,-499 1680.5,-499"/>
</a>
</g>
</g>
<!-- ndPhase -->
<g id="node10" class="node"><title>ndPhase</title>
<g id="a_node10_10"><a xlink:href="https://github.com/maidsafe/bls_dkg/blob/master/src/key_gen/mod.rs#:~:text=enum%20Phase" xlink:title="&lt;TABLE&gt;">
<polygon fill="yellow" stroke="none" points="1761,-386.5 1761,-423.5 1865,-423.5 1865,-386.5 1761,-386.5"/>
<polygon fill="none" stroke="black" points="1761,-386.5 1761,-423.5 1865,-423.5 1865,-386.5 1761,-386.5"/>
<text text-anchor="start" x="1791" y="-402.3" font-family="Arial" font-weight="bold" font-size="14.00">Phase</text>
<polygon fill="white" stroke="none" points="1761,-274.5 1761,-386.5 1865,-386.5 1865,-274.5 1761,-274.5"/>
<polygon fill="none" stroke="black" points="1761,-274.5 1761,-386.5 1865,-386.5 1865,-274.5 1761,-274.5"/>
<text text-anchor="start" x="1772" y="-364.3" font-family="Arial" font-size="14.00">Initialization</text>
<text text-anchor="start" x="1772" y="-349.3" font-family="Arial" font-size="14.00">Contribution</text>
<text text-anchor="start" x="1772" y="-334.3" font-family="Arial" font-size="14.00">Complaining</text>
<text text-anchor="start" x="1772" y="-319.3" font-family="Arial" font-size="14.00">Justification</text>
<text text-anchor="start" x="1772" y="-304.3" font-family="Arial" font-size="14.00">Commitment</text>
<text text-anchor="start" x="1772" y="-289.3" font-family="Arial" font-size="14.00">Finalization</text>
<polygon fill="none" stroke="black" points="1760,-274 1760,-425 1866,-425 1866,-274 1760,-274"/>
</a>
</g>
</g>
<!-- ndPhase&#45;&gt;ndKeyGen -->
<g id="edge10" class="edge"><title>ndPhase&#45;&gt;ndKeyGen</title>
<path fill="none" stroke="black" stroke-dasharray="5,2" d="M1751.89,-278.256C1748.63,-275.372 1745.33,-272.603 1742,-270 1715.1,-248.973 1684.88,-229.331 1654.45,-211.608"/>
<polygon fill="black" stroke="black" points="1654.09,-211.4 1646.89,-211.878 1643.68,-205.42 1650.88,-204.942 1654.09,-211.4"/>
</g>
<!-- ndInitializationAccumulator -->
<g id="node11" class="node"><title>ndInitializationAccumulator</title>
<g id="a_node11_11"><a xlink:href="https://github.com/maidsafe/bls_dkg/blob/master/src/key_gen/mod.rs#:~:text=struct%20InitializationAccumulator" xlink:title="&lt;TABLE&gt;">
<polygon fill="lightblue" stroke="none" points="1902,-356.5 1902,-393.5 2369,-393.5 2369,-356.5 1902,-356.5"/>
<polygon fill="none" stroke="black" points="1902,-356.5 1902,-393.5 2369,-393.5 2369,-356.5 1902,-356.5"/>
<text text-anchor="start" x="2049.5" y="-372.3" font-family="Arial" font-weight="bold" font-size="14.00">InitializationAccumulator</text>
<polygon fill="white" stroke="none" points="1902,-304.5 1902,-356.5 2369,-356.5 2369,-304.5 1902,-304.5"/>
<polygon fill="none" stroke="black" points="1902,-304.5 1902,-356.5 2369,-356.5 2369,-304.5 1902,-304.5"/>
<text text-anchor="start" x="1913" y="-334.3" font-family="Arial" font-size="14.00">&#45; senders: BTreeSet&lt;u64&gt;</text>
<text text-anchor="start" x="1913" y="-319.3" font-family="Arial" font-size="14.00">&#45; initializations: BTreeMap&lt;(usize, usize, BTreeSet&lt;XorName&gt;), usize&gt;</text>
<polygon fill="none" stroke="black" points="1900.5,-304 1900.5,-395 2369.5,-395 2369.5,-304 1900.5,-304"/>
</a>
</g>
</g>
<!-- ndInitializationAccumulator&#45;&gt;ndKeyGen -->
<g id="edge11" class="edge"><title>ndInitializationAccumulator&#45;&gt;ndKeyGen</title>
<path fill="none" stroke="black" d="M1992.25,-299.899C1894.27,-266.54 1762.96,-221.83 1655.04,-185.086"/>
<polygon fill="black" stroke="black" points="1655.03,-185.083 1648.06,-186.936 1643.67,-181.215 1650.64,-179.363 1655.03,-185.083"/>
</g>
<!-- ndComplaintsAccumulator -->
<g id="node12" class="node"><title>ndComplaintsAccumulator</title>
<g id="a_node12_12"><a xlink:href="https://github.com/maidsafe/bls_dkg/blob/master/src/key_gen/mod.rs#:~:text=struct%20ComplaintsAccumulator" xlink:title="&lt;TABLE&gt;">
<polygon fill="lightblue" stroke="none" points="9,-364.5 9,-401.5 403,-401.5 403,-364.5 9,-364.5"/>
<polygon fill="none" stroke="black" points="9,-364.5 9,-401.5 403,-401.5 403,-364.5 9,-364.5"/>
<text text-anchor="start" x="122" y="-380.3" font-family="Arial" font-weight="bold" font-size="14.00">ComplaintsAccumulator</text>
<polygon fill="white" stroke="none" points="9,-297.5 9,-364.5 403,-364.5 403,-297.5 9,-297.5"/>
<polygon fill="none" stroke="black" points="9,-297.5 9,-364.5 403,-364.5 403,-297.5 9,-297.5"/>
<text text-anchor="start" x="20" y="-342.3" font-family="Arial" font-size="14.00">&#45; names: BTreeSet&lt;XorName&gt;</text>
<text text-anchor="start" x="20" y="-327.3" font-family="Arial" font-size="14.00">&#45; threshold: usize</text>
<text text-anchor="start" x="20" y="-312.3" font-family="Arial" font-size="14.00">&#45; complaints: BTreeMap&lt;XorName, BTreeSet&lt;XorName&gt;&gt;</text>
<polygon fill="none" stroke="black" points="8,-296.5 8,-402.5 404,-402.5 404,-296.5 8,-296.5"/>
</a>
</g>
</g>
<!-- ndComplaintsAccumulator&#45;&gt;ndKeyGen -->
<g id="edge12" class="edge"><title>ndComplaintsAccumulator&#45;&gt;ndKeyGen</title>
<path fill="none" stroke="black" d="M346.673,-292.492C371.184,-284.075 396.634,-276.165 421,-270 708.248,-197.324 1049.65,-155.604 1260.08,-134.864"/>
<polygon fill="black" stroke="black" points="1260.24,-134.848 1265.83,-130.283 1272.19,-133.68 1266.61,-138.245 1260.24,-134.848"/>
</g>
<!-- ndAcknowledgmentFault -->
<g id="node14" class="node"><title>ndAcknowledgmentFault</title>
<g id="a_node14_13"><a xlink:href="https://github.com/maidsafe/bls_dkg/blob/master/src/key_gen/mod.rs#:~:text=enum%20AcknowledgmentFault" xlink:title="&lt;TABLE&gt;">
<polygon fill="yellow" stroke="none" points="440,-379.5 440,-416.5 617,-416.5 617,-379.5 440,-379.5"/>
<polygon fill="none" stroke="black" points="440,-379.5 440,-416.5 617,-416.5 617,-379.5 440,-379.5"/>
<text text-anchor="start" x="451" y="-395.3" font-family="Arial" font-weight="bold" font-size="14.00">AcknowledgmentFault</text>
<polygon fill="white" stroke="none" points="440,-282.5 440,-379.5 617,-379.5 617,-282.5 440,-282.5"/>
<polygon fill="none" stroke="black" points="440,-282.5 440,-379.5 617,-379.5 617,-282.5 440,-282.5"/>
<text text-anchor="start" x="451" y="-357.3" font-family="Arial" font-size="14.00">ValueCount</text>
<text text-anchor="start" x="451" y="-342.3" font-family="Arial" font-size="14.00">MissingPart</text>
<text text-anchor="start" x="451" y="-327.3" font-family="Arial" font-size="14.00">DecryptValue</text>
<text text-anchor="start" x="451" y="-312.3" font-family="Arial" font-size="14.00">DeserializeValue</text>
<text text-anchor="start" x="451" y="-297.3" font-family="Arial" font-size="14.00">ValueAcknowledgment</text>
<polygon fill="none" stroke="black" points="438.5,-281.5 438.5,-417.5 617.5,-417.5 617.5,-281.5 438.5,-281.5"/>
</a>
</g>
</g>
<!-- ndAcknowledgmentFault&#45;&gt;ndKeyGen -->
<g id="edge13" class="edge"><title>ndAcknowledgmentFault&#45;&gt;ndKeyGen</title>
<path fill="none" stroke="black" d="M618.96,-277.337C623.932,-274.66 628.959,-272.19 634,-270 837.248,-181.68 1090.39,-144.649 1262.08,-129.14"/>
<polygon fill="black" stroke="black" points="1272.24,-128.239 1262.67,-133.605 1267.26,-128.681 1262.28,-129.122 1262.28,-129.122 1262.28,-129.122 1267.26,-128.681 1261.88,-124.64 1272.24,-128.239 1272.24,-128.239"/>
</g>
<!-- ndPartFault -->
<g id="node15" class="node"><title>ndPartFault</title>
<g id="a_node15_14"><a xlink:href="https://github.com/maidsafe/bls_dkg/blob/master/src/key_gen/mod.rs#:~:text=enum%20PartFault" xlink:title="&lt;TABLE&gt;">
<polygon fill="yellow" stroke="none" points="2405,-379.5 2405,-416.5 2565,-416.5 2565,-379.5 2405,-379.5"/>
<polygon fill="none" stroke="black" points="2405,-379.5 2405,-416.5 2565,-416.5 2565,-379.5 2405,-379.5"/>
<text text-anchor="start" x="2453" y="-395.3" font-family="Arial" font-weight="bold" font-size="14.00">PartFault</text>
<polygon fill="white" stroke="none" points="2405,-282.5 2405,-379.5 2565,-379.5 2565,-282.5 2405,-282.5"/>
<polygon fill="none" stroke="black" points="2405,-282.5 2405,-379.5 2565,-379.5 2565,-282.5 2405,-282.5"/>
<text text-anchor="start" x="2416" y="-357.3" font-family="Arial" font-size="14.00">RowCount</text>
<text text-anchor="start" x="2416" y="-342.3" font-family="Arial" font-size="14.00">MultipleParts</text>
<text text-anchor="start" x="2416" y="-327.3" font-family="Arial" font-size="14.00">DecryptRow</text>
<text text-anchor="start" x="2416" y="-312.3" font-family="Arial" font-size="14.00">DeserializeRow</text>
<text text-anchor="start" x="2416" y="-297.3" font-family="Arial" font-size="14.00">RowAcknowledgment</text>
<polygon fill="none" stroke="black" points="2404,-281.5 2404,-417.5 2566,-417.5 2566,-281.5 2404,-281.5"/>
</a>
</g>
</g>
<!-- ndPartFault&#45;&gt;ndPartOutcome -->
<g id="edge14" class="edge"><title>ndPartFault&#45;&gt;ndPartOutcome</title>
<path fill="none" stroke="black" d="M2513.97,-277.462C2526.98,-245.558 2542.16,-208.326 2554.59,-177.866"/>
<polygon fill="black" stroke="black" points="2554.67,-177.66 2553.23,-170.594 2559.2,-166.549 2560.64,-173.615 2554.67,-177.66"/>
</g>
<!-- ndPartFault&#45;&gt;ndKeyGen -->
<g id="edge15" class="edge"><title>ndPartFault&#45;&gt;ndKeyGen</title>
<path fill="none" stroke="black" d="M2400.6,-277.352C2395.8,-274.65 2390.91,-272.174 2386,-270 2148.25,-164.859 1847.24,-131.707 1653.64,-121.667"/>
<polygon fill="black" stroke="black" points="1643.64,-121.164 1653.85,-117.172 1648.63,-121.415 1653.62,-121.666 1653.62,-121.666 1653.62,-121.666 1648.63,-121.415 1653.4,-126.161 1643.64,-121.164 1643.64,-121.164"/>
</g>
<!-- ndRngAdapter -->
<g id="node16" class="node"><title>ndRngAdapter</title>
<g id="a_node16_15"><a xlink:href="https://github.com/maidsafe/bls_dkg/blob/master/src/key_gen/rng_adapter.rs#:~:text=struct%20RngAdapter" xlink:title="&lt;TABLE&gt;">
<polygon fill="lightblue" stroke="none" points="2328,-559.5 2328,-596.5 2433,-596.5 2433,-559.5 2328,-559.5"/>
<polygon fill="none" stroke="black" points="2328,-559.5 2328,-596.5 2433,-596.5 2433,-559.5 2328,-559.5"/>
<text text-anchor="start" x="2339" y="-575.3" font-family="Arial" font-weight="bold" font-size="14.00">RngAdapter</text>
<polygon fill="white" stroke="none" points="2328,-522.5 2328,-559.5 2433,-559.5 2433,-522.5 2328,-522.5"/>
<polygon fill="none" stroke="black" points="2328,-522.5 2328,-559.5 2433,-559.5 2433,-522.5 2328,-522.5"/>
<text text-anchor="start" x="2339" y="-537.3" font-family="Arial" font-size="14.00">+ &amp;&#39;a mut T</text>
<polygon fill="none" stroke="black" points="2326.5,-521.5 2326.5,-597.5 2433.5,-597.5 2433.5,-521.5 2326.5,-521.5"/>
</a>
</g>
</g>
<!-- ndMessage -->
<g id="node17" class="node"><title>ndMessage</title>
<g id="a_node17_16"><a xlink:href="https://github.com/maidsafe/bls_dkg/blob/master/src/key_gen/message.rs#:~:text=enum%20Message" xlink:title="&lt;TABLE&gt;">
<polygon fill="yellow" stroke="none" points="653,-379.5 653,-416.5 784,-416.5 784,-379.5 653,-379.5"/>
<polygon fill="none" stroke="black" points="653,-379.5 653,-416.5 784,-416.5 784,-379.5 653,-379.5"/>
<text text-anchor="start" x="686.5" y="-395.3" font-family="Arial" font-weight="bold" font-size="14.00">Message</text>
<polygon fill="white" stroke="none" points="653,-282.5 653,-379.5 784,-379.5 784,-282.5 653,-282.5"/>
<polygon fill="none" stroke="black" points="653,-282.5 653,-379.5 784,-379.5 784,-282.5 653,-282.5"/>
<text text-anchor="start" x="664" y="-357.3" font-family="Arial" font-size="14.00">Initialization</text>
<text text-anchor="start" x="664" y="-342.3" font-family="Arial" font-size="14.00">Proposal</text>
<text text-anchor="start" x="664" y="-327.3" font-family="Arial" font-size="14.00">Complaint</text>
<text text-anchor="start" x="664" y="-312.3" font-family="Arial" font-size="14.00">Justification</text>
<text text-anchor="start" x="664" y="-297.3" font-family="Arial" font-size="14.00">Acknowledgment</text>
<polygon fill="none" stroke="black" points="651.5,-281.5 651.5,-417.5 784.5,-417.5 784.5,-281.5 651.5,-281.5"/>
</a>
</g>
</g>
<!-- ndMessage&#45;&gt;ndKeyGen -->
<g id="edge16" class="edge"><title>ndMessage&#45;&gt;ndKeyGen</title>
<path fill="none" stroke="black" stroke-dasharray="5,2" d="M788.614,-277.485C792.668,-274.769 796.806,-272.25 801,-270 943.952,-193.301 1124.64,-155.099 1260.33,-136.191"/>
<polygon fill="black" stroke="black" points="1260.6,-136.155 1266.01,-131.38 1272.49,-134.532 1267.09,-139.306 1260.6,-136.155"/>
</g>
<!-- ndPeerId -->
<g id="node18" class="node"><title>ndPeerId</title>
<g id="a_node18_17"><a xlink:href="https://github.com/maidsafe/bls_dkg/blob/master/src/dev_utils/peer.rs#:~:text=struct%20PeerId" xlink:title="&lt;TABLE&gt;">
<polygon fill="lightblue" stroke="none" points="2781,-364.5 2781,-401.5 2956,-401.5 2956,-364.5 2781,-364.5"/>
<polygon fill="none" stroke="black" points="2781,-364.5 2781,-401.5 2956,-401.5 2956,-364.5 2781,-364.5"/>
<text text-anchor="start" x="2845.5" y="-380.3" font-family="Arial" font-weight="bold" font-size="14.00">PeerId</text>
<polygon fill="white" stroke="none" points="2781,-297.5 2781,-364.5 2956,-364.5 2956,-297.5 2781,-297.5"/>
<polygon fill="none" stroke="black" points="2781,-297.5 2781,-364.5 2956,-364.5 2956,-297.5 2781,-297.5"/>
<text text-anchor="start" x="2792" y="-342.3" font-family="Arial" font-size="14.00">&#45; id: XorName</text>
<text text-anchor="start" x="2792" y="-327.3" font-family="Arial" font-size="14.00">&#45; public_key: PublicKey</text>
<text text-anchor="start" x="2792" y="-312.3" font-family="Arial" font-size="14.00">&#45; secret_key: SecretKey</text>
<polygon fill="none" stroke="black" points="2779.5,-296.5 2779.5,-402.5 2956.5,-402.5 2956.5,-296.5 2779.5,-296.5"/>
</a>
</g>
</g>
<!-- ndPublicKey -->
<g id="node19" class="node"><title>ndPublicKey</title>
<g id="a_node19_18"><a xlink:href="https://github.com/maidsafe/bls_dkg/blob/master/src/dev_utils/peer.rs#:~:text=struct%20PublicKey" xlink:title="&lt;TABLE&gt;">
<polygon fill="lightblue" stroke="none" points="2694,-559.5 2694,-596.5 2850,-596.5 2850,-559.5 2694,-559.5"/>
<polygon fill="none" stroke="black" points="2694,-559.5 2694,-596.5 2850,-596.5 2850,-559.5 2694,-559.5"/>
<text text-anchor="start" x="2736.5" y="-575.3" font-family="Arial" font-weight="bold" font-size="14.00">PublicKey</text>
<polygon fill="white" stroke="none" points="2694,-522.5 2694,-559.5 2850,-559.5 2850,-522.5 2694,-522.5"/>
<polygon fill="none" stroke="black" points="2694,-522.5 2694,-559.5 2850,-559.5 2850,-522.5 2694,-522.5"/>
<text text-anchor="start" x="2705" y="-537.3" font-family="Arial" font-size="14.00">&#45; [u8; KEY_LENGTH]</text>
<polygon fill="none" stroke="black" points="2693,-521.5 2693,-597.5 2851,-597.5 2851,-521.5 2693,-521.5"/>
</a>
</g>
</g>
<!-- ndPublicKey&#45;&gt;ndPeerId -->
<g id="edge17" class="edge"><title>ndPublicKey&#45;&gt;ndPeerId</title>
<path fill="none" stroke="black" d="M2790.97,-517.406C2804.02,-489.129 2821.66,-450.913 2836.76,-418.185"/>
<polygon fill="black" stroke="black" points="2836.96,-417.758 2835.84,-410.634 2841.99,-406.863 2843.1,-413.987 2836.96,-417.758"/>
</g>
<!-- ndSecretKey -->
<g id="node20" class="node"><title>ndSecretKey</title>
<g id="a_node20_19"><a xlink:href="https://github.com/maidsafe/bls_dkg/blob/master/src/dev_utils/peer.rs#:~:text=struct%20SecretKey" xlink:title="&lt;TABLE&gt;">
<polygon fill="lightblue" stroke="none" points="2886,-559.5 2886,-596.5 3042,-596.5 3042,-559.5 2886,-559.5"/>
<polygon fill="none" stroke="black" points="2886,-559.5 2886,-596.5 3042,-596.5 3042,-559.5 2886,-559.5"/>
<text text-anchor="start" x="2927.5" y="-575.3" font-family="Arial" font-weight="bold" font-size="14.00">SecretKey</text>
<polygon fill="white" stroke="none" points="2886,-522.5 2886,-559.5 3042,-559.5 3042,-522.5 2886,-522.5"/>
<polygon fill="none" stroke="black" points="2886,-522.5 2886,-559.5 3042,-559.5 3042,-522.5 2886,-522.5"/>
<text text-anchor="start" x="2897" y="-537.3" font-family="Arial" font-size="14.00">&#45; [u8; KEY_LENGTH]</text>
<polygon fill="none" stroke="black" points="2885,-521.5 2885,-597.5 3043,-597.5 3043,-521.5 2885,-521.5"/>
</a>
</g>
</g>
<!-- ndSecretKey&#45;&gt;ndPeerId -->
<g id="edge18" class="edge"><title>ndSecretKey&#45;&gt;ndPeerId</title>
<path fill="none" stroke="black" d="M2945.03,-517.406C2931.98,-489.129 2914.34,-450.913 2899.24,-418.185"/>
<polygon fill="black" stroke="black" points="2899.04,-417.758 2892.9,-413.987 2894.01,-406.863 2900.16,-410.634 2899.04,-417.758"/>
</g>
<!-- ndSignature -->
<g id="node21" class="node"><title>ndSignature</title>
<g id="a_node21_20"><a xlink:href="https://github.com/maidsafe/bls_dkg/blob/master/src/dev_utils/peer.rs#:~:text=struct%20Signature" xlink:title="&lt;TABLE&gt;">
<polygon fill="lightblue" stroke="none" points="3079,-559.5 3079,-596.5 3290,-596.5 3290,-559.5 3079,-559.5"/>
<polygon fill="none" stroke="black" points="3079,-559.5 3079,-596.5 3290,-596.5 3290,-559.5 3079,-559.5"/>
<text text-anchor="start" x="3150.5" y="-575.3" font-family="Arial" font-weight="bold" font-size="14.00">Signature</text>
<polygon fill="white" stroke="none" points="3079,-522.5 3079,-559.5 3290,-559.5 3290,-522.5 3079,-522.5"/>
<polygon fill="none" stroke="black" points="3079,-522.5 3079,-559.5 3290,-559.5 3290,-522.5 3079,-522.5"/>
<text text-anchor="start" x="3090" y="-537.3" font-family="Arial" font-size="14.00">&#45; [u8; SIGNATURE_LENGTH]</text>
<polygon fill="none" stroke="black" points="3077.5,-521.5 3077.5,-597.5 3290.5,-597.5 3290.5,-521.5 3077.5,-521.5"/>
</a>
</g>
</g>
</g>
</svg>
