<?xml version="1.0" encoding="UTF-8" standalone="no"?>
<!DOCTYPE svg PUBLIC "-//W3C//DTD SVG 1.1//EN"
 "http://www.w3.org/Graphics/SVG/1.1/DTD/svg11.dtd">
<!-- Generated by graphviz version 2.38.0 (20140413.2041)
 -->
<!-- Title: ml Pages: 1 -->
<svg width="2617pt" height="662pt"
 viewBox="0.00 0.00 2617.00 662.00" xmlns="http://www.w3.org/2000/svg" xmlns:xlink="http://www.w3.org/1999/xlink">
<g id="graph0" class="graph" transform="scale(1 1) rotate(0) translate(4 658)">
<title>ml</title>
<polygon fill="white" stroke="none" points="-4,4 -4,-658 2613,-658 2613,4 -4,4"/>
<!-- ndEncryptor -->
<g id="node1" class="node"><title>ndEncryptor</title>
<polygon fill="lightblue" stroke="none" points="306,-349.5 306,-386.5 611,-386.5 611,-349.5 306,-349.5"/>
<polygon fill="none" stroke="black" points="306,-349.5 306,-386.5 611,-386.5 611,-349.5 306,-349.5"/>
<text text-anchor="start" x="423.5" y="-365.3" font-family="Arial" font-weight="bold" font-size="14.00">Encryptor</text>
<polygon fill="white" stroke="none" points="306,-312.5 306,-349.5 611,-349.5 611,-312.5 306,-312.5"/>
<polygon fill="none" stroke="black" points="306,-312.5 306,-349.5 611,-349.5 611,-312.5 306,-312.5"/>
<text text-anchor="start" x="317" y="-327.3" font-family="Arial" font-size="14.00">&#45; keys_map: BTreeMap&lt;XorName, (Key, Iv)&gt;</text>
<polygon fill="none" stroke="black" points="304.5,-311.5 304.5,-387.5 611.5,-387.5 611.5,-311.5 304.5,-311.5"/>
</g>
<!-- ndKeyGen -->
<g id="node10" class="node"><title>ndKeyGen</title>
<polygon fill="lightblue" stroke="none" points="994,-192 994,-229 1335,-229 1335,-192 994,-192"/>
<polygon fill="none" stroke="black" points="994,-192 994,-229 1335,-229 1335,-192 994,-192"/>
<text text-anchor="start" x="1136.5" y="-207.8" font-family="Arial" font-weight="bold" font-size="14.00">KeyGen</text>
<polygon fill="white" stroke="none" points="994,-5 994,-192 1335,-192 1335,-5 994,-5"/>
<polygon fill="none" stroke="black" points="994,-5 994,-192 1335,-192 1335,-5 994,-5"/>
<text text-anchor="start" x="1005" y="-169.8" font-family="Arial" font-size="14.00">&#45; our_id: XorName</text>
<text text-anchor="start" x="1005" y="-154.8" font-family="Arial" font-size="14.00">&#45; our_index: u64</text>
<text text-anchor="start" x="1005" y="-139.8" font-family="Arial" font-size="14.00">&#45; names: BTreeSet&lt;XorName&gt;</text>
<text text-anchor="start" x="1005" y="-124.8" font-family="Arial" font-size="14.00">&#45; encryptor: Encryptor</text>
<text text-anchor="start" x="1005" y="-109.8" font-family="Arial" font-size="14.00">&#45; parts: BTreeMap&lt;u64, ProposalState&gt;</text>
<text text-anchor="start" x="1005" y="-94.8" font-family="Arial" font-size="14.00">&#45; threshold: usize</text>
<text text-anchor="start" x="1005" y="-79.8" font-family="Arial" font-size="14.00">&#45; phase: Phase</text>
<text text-anchor="start" x="1005" y="-64.8" font-family="Arial" font-size="14.00">&#45; initalization_accumulator: InitializationAccumulator</text>
<text text-anchor="start" x="1005" y="-49.8" font-family="Arial" font-size="14.00">&#45; complaints_accumulator: ComplaintsAccumulator</text>
<text text-anchor="start" x="1005" y="-34.8" font-family="Arial" font-size="14.00">&#45; pending_complain_messages: Vec&lt;Message&gt;</text>
<text text-anchor="start" x="1005" y="-19.8" font-family="Arial" font-size="14.00">&#45; pending_messages: Vec&lt;Message&gt;</text>
<polygon fill="none" stroke="black" points="992.5,-4 992.5,-230 1335.5,-230 1335.5,-4 992.5,-4"/>
</g>
<!-- ndEncryptor&#45;&gt;ndKeyGen -->
<g id="edge1" class="edge"><title>ndEncryptor&#45;&gt;ndKeyGen</title>
<path fill="none" stroke="black" d="M543.842,-307.319C572.2,-294.497 604.136,-280.881 634,-270 744.525,-229.728 871.068,-193.094 972.782,-165.885"/>
<polygon fill="black" stroke="black" points="972.834,-165.872 977.601,-160.462 984.429,-162.782 979.661,-168.192 972.834,-165.872"/>
</g>
<!-- ndOutcome -->
<g id="node2" class="node"><title>ndOutcome</title>
<polygon fill="lightblue" stroke="none" points="9,-364.5 9,-401.5 269,-401.5 269,-364.5 9,-364.5"/>
<polygon fill="none" stroke="black" points="9,-364.5 9,-401.5 269,-401.5 269,-364.5 9,-364.5"/>
<text text-anchor="start" x="107" y="-380.3" font-family="Arial" font-weight="bold" font-size="14.00">Outcome</text>
<polygon fill="white" stroke="none" points="9,-297.5 9,-364.5 269,-364.5 269,-297.5 9,-297.5"/>
<polygon fill="none" stroke="black" points="9,-297.5 9,-364.5 269,-364.5 269,-297.5 9,-297.5"/>
<text text-anchor="start" x="20" y="-342.3" font-family="Arial" font-size="14.00">+ public_key_set: PublicKeySet</text>
<text text-anchor="start" x="20" y="-327.3" font-family="Arial" font-size="14.00">+ secret_key_share: SecretKeyShare</text>
<text text-anchor="start" x="20" y="-312.3" font-family="Arial" font-size="14.00">+ index: usize</text>
<polygon fill="none" stroke="black" points="8,-296.5 8,-402.5 270,-402.5 270,-296.5 8,-296.5"/>
</g>
<!-- ndOutcome&#45;&gt;ndKeyGen -->
<g id="edge2" class="edge"><title>ndOutcome&#45;&gt;ndKeyGen</title>
<path fill="none" stroke="black" d="M234.154,-292.434C251.332,-283.945 269.388,-276.026 287,-270 516.232,-191.574 793.633,-152.197 974.219,-133.456"/>
<polygon fill="black" stroke="black" points="984.356,-132.415 974.868,-137.913 979.382,-132.926 974.408,-133.437 974.408,-133.437 974.408,-133.437 979.382,-132.926 973.949,-128.96 984.356,-132.415 984.356,-132.415"/>
</g>
<!-- ndError -->
<g id="node3" class="node"><title>ndError</title>
<polygon fill="yellow" stroke="none" points="425,-611.5 425,-648.5 682,-648.5 682,-611.5 425,-611.5"/>
<polygon fill="none" stroke="black" points="425,-611.5 425,-648.5 682,-648.5 682,-611.5 425,-611.5"/>
<text text-anchor="start" x="535" y="-627.3" font-family="Arial" font-weight="bold" font-size="14.00">Error</text>
<polygon fill="white" stroke="none" points="425,-469.5 425,-611.5 682,-611.5 682,-469.5 425,-469.5"/>
<polygon fill="none" stroke="black" points="425,-469.5 425,-611.5 682,-611.5 682,-469.5 425,-469.5"/>
<text text-anchor="start" x="436" y="-589.3" font-family="Arial" font-size="14.00">Unknown</text>
<text text-anchor="start" x="436" y="-574.3" font-family="Arial" font-size="14.00">UnknownSender</text>
<text text-anchor="start" x="436" y="-559.3" font-family="Arial" font-size="14.00">Serialization(String)</text>
<text text-anchor="start" x="436" y="-544.3" font-family="Arial" font-size="14.00">QuicP2P(String)</text>
<text text-anchor="start" x="436" y="-529.3" font-family="Arial" font-size="14.00">Encryption</text>
<text text-anchor="start" x="436" y="-514.3" font-family="Arial" font-size="14.00">TooManyNonVoters(BTreeSet&lt;u64&gt;)</text>
<text text-anchor="start" x="436" y="-499.3" font-family="Arial" font-size="14.00">UnexpectedPhase</text>
<text text-anchor="start" x="436" y="-484.3" font-family="Arial" font-size="14.00">MissingPart</text>
<polygon fill="none" stroke="black" points="423.5,-469 423.5,-650 682.5,-650 682.5,-469 423.5,-469"/>
</g>
<!-- ndError&#45;&gt;ndEncryptor -->
<g id="edge3" class="edge"><title>ndError&#45;&gt;ndEncryptor</title>
<path fill="none" stroke="black" d="M510.224,-464.844C500.152,-442.79 489.792,-420.109 480.983,-400.821"/>
<polygon fill="black" stroke="black" points="476.791,-391.643 485.039,-398.869 478.868,-396.191 480.946,-400.739 480.946,-400.739 480.946,-400.739 478.868,-396.191 476.852,-402.608 476.791,-391.643 476.791,-391.643"/>
</g>
<!-- ndError&#45;&gt;ndKeyGen -->
<g id="edge4" class="edge"><title>ndError&#45;&gt;ndKeyGen</title>
<path fill="none" stroke="black" d="M611.297,-464.94C617.447,-453.088 623.197,-440.93 628,-429 655.174,-361.503 617.018,-322.877 667,-270 746.185,-186.23 870.11,-148.215 974.4,-131.15"/>
<polygon fill="black" stroke="black" points="984.43,-129.563 975.256,-135.57 979.491,-130.344 974.552,-131.126 974.552,-131.126 974.552,-131.126 979.491,-130.344 973.849,-126.681 984.43,-129.563 984.43,-129.563"/>
</g>
<!-- ndPart -->
<g id="node4" class="node"><title>ndPart</title>
<polygon fill="lightblue" stroke="none" points="686,-371.5 686,-408.5 915,-408.5 915,-371.5 686,-371.5"/>
<polygon fill="none" stroke="black" points="686,-371.5 686,-408.5 915,-408.5 915,-371.5 686,-371.5"/>
<text text-anchor="start" x="786" y="-387.3" font-family="Arial" font-weight="bold" font-size="14.00">Part</text>
<polygon fill="white" stroke="none" points="686,-289.5 686,-371.5 915,-371.5 915,-289.5 686,-289.5"/>
<polygon fill="none" stroke="black" points="686,-289.5 686,-371.5 915,-371.5 915,-289.5 686,-289.5"/>
<text text-anchor="start" x="697" y="-349.3" font-family="Arial" font-size="14.00">&#45; receiver: u64</text>
<text text-anchor="start" x="697" y="-334.3" font-family="Arial" font-size="14.00">&#45; commitment: BivarCommitment</text>
<text text-anchor="start" x="697" y="-319.3" font-family="Arial" font-size="14.00">&#45; ser_row: Vec&lt;u8&gt;</text>
<text text-anchor="start" x="697" y="-304.3" font-family="Arial" font-size="14.00">&#45; enc_rows: Vec&lt;Vec&lt;u8&gt;&gt;</text>
<polygon fill="none" stroke="black" points="684.5,-289 684.5,-410 915.5,-410 915.5,-289 684.5,-289"/>
</g>
<!-- ndPart&#45;&gt;ndKeyGen -->
<g id="edge5" class="edge"><title>ndPart&#45;&gt;ndKeyGen</title>
<path fill="none" stroke="black" stroke-dasharray="5,2" d="M900.428,-284.905C923.872,-270.059 949.592,-253.772 975.488,-237.373"/>
<polygon fill="black" stroke="black" points="984.274,-231.81 978.233,-240.962 980.05,-234.485 975.826,-237.16 975.826,-237.16 975.826,-237.16 980.05,-234.485 973.418,-233.358 984.274,-231.81 984.274,-231.81"/>
</g>
<!-- ndProposalState -->
<g id="node5" class="node"><title>ndProposalState</title>
<polygon fill="lightblue" stroke="none" points="718,-581.5 718,-618.5 947,-618.5 947,-581.5 718,-581.5"/>
<polygon fill="none" stroke="black" points="718,-581.5 718,-618.5 947,-618.5 947,-581.5 718,-581.5"/>
<text text-anchor="start" x="783" y="-597.3" font-family="Arial" font-weight="bold" font-size="14.00">ProposalState</text>
<polygon fill="white" stroke="none" points="718,-499.5 718,-581.5 947,-581.5 947,-499.5 718,-499.5"/>
<polygon fill="none" stroke="black" points="718,-499.5 718,-581.5 947,-581.5 947,-499.5 718,-499.5"/>
<text text-anchor="start" x="729" y="-559.3" font-family="Arial" font-size="14.00">&#45; commitment: BivarCommitment</text>
<text text-anchor="start" x="729" y="-544.3" font-family="Arial" font-size="14.00">&#45; values: BTreeMap&lt;u64, Fr&gt;</text>
<text text-anchor="start" x="729" y="-529.3" font-family="Arial" font-size="14.00">&#45; enc_values: Vec&lt;Vec&lt;u8&gt;&gt;</text>
<text text-anchor="start" x="729" y="-514.3" font-family="Arial" font-size="14.00">&#45; acks: BTreeSet&lt;u64&gt;</text>
<polygon fill="none" stroke="black" points="716.5,-499 716.5,-620 947.5,-620 947.5,-499 716.5,-499"/>
</g>
<!-- ndPartOutcome -->
<g id="node6" class="node"><title>ndPartOutcome</title>
<polygon fill="yellow" stroke="none" points="2370,-124 2370,-161 2600,-161 2600,-124 2370,-124"/>
<polygon fill="none" stroke="black" points="2370,-124 2370,-161 2600,-161 2600,-124 2370,-124"/>
<text text-anchor="start" x="2439" y="-139.8" font-family="Arial" font-weight="bold" font-size="14.00">PartOutcome</text>
<polygon fill="white" stroke="none" points="2370,-72 2370,-124 2600,-124 2600,-72 2370,-72"/>
<polygon fill="none" stroke="black" points="2370,-72 2370,-124 2600,-124 2600,-72 2370,-72"/>
<text text-anchor="start" x="2381" y="-101.8" font-family="Arial" font-size="14.00">Valid(Option&lt;Acknowledgment&gt;)</text>
<text text-anchor="start" x="2381" y="-86.8" font-family="Arial" font-size="14.00">Invalid(PartFault)</text>
<polygon fill="none" stroke="black" points="2369,-71.5 2369,-162.5 2601,-162.5 2601,-71.5 2369,-71.5"/>
</g>
<!-- ndPhase -->
<g id="node7" class="node"><title>ndPhase</title>
<polygon fill="yellow" stroke="none" points="951,-386.5 951,-423.5 1055,-423.5 1055,-386.5 951,-386.5"/>
<polygon fill="none" stroke="black" points="951,-386.5 951,-423.5 1055,-423.5 1055,-386.5 951,-386.5"/>
<text text-anchor="start" x="981" y="-402.3" font-family="Arial" font-weight="bold" font-size="14.00">Phase</text>
<polygon fill="white" stroke="none" points="951,-274.5 951,-386.5 1055,-386.5 1055,-274.5 951,-274.5"/>
<polygon fill="none" stroke="black" points="951,-274.5 951,-386.5 1055,-386.5 1055,-274.5 951,-274.5"/>
<text text-anchor="start" x="962" y="-364.3" font-family="Arial" font-size="14.00">Initialization</text>
<text text-anchor="start" x="962" y="-349.3" font-family="Arial" font-size="14.00">Contribution</text>
<text text-anchor="start" x="962" y="-334.3" font-family="Arial" font-size="14.00">Complaining</text>
<text text-anchor="start" x="962" y="-319.3" font-family="Arial" font-size="14.00">Justification</text>
<text text-anchor="start" x="962" y="-304.3" font-family="Arial" font-size="14.00">Commitment</text>
<text text-anchor="start" x="962" y="-289.3" font-family="Arial" font-size="14.00">Finalization</text>
<polygon fill="none" stroke="black" points="950,-274 950,-425 1056,-425 1056,-274 950,-274"/>
</g>
<!-- ndPhase&#45;&gt;ndKeyGen -->
<g id="edge6" class="edge"><title>ndPhase&#45;&gt;ndKeyGen</title>
<path fill="none" stroke="black" stroke-dasharray="5,2" d="M1057.96,-269.82C1063.78,-261.481 1069.8,-252.858 1075.89,-244.15"/>
<polygon fill="black" stroke="black" points="1075.9,-244.132 1076.06,-236.923 1082.77,-234.295 1082.61,-241.504 1075.9,-244.132"/>
</g>
<!-- ndInitializationAccumulator -->
<g id="node8" class="node"><title>ndInitializationAccumulator</title>
<polygon fill="lightblue" stroke="none" points="1092,-356.5 1092,-393.5 1559,-393.5 1559,-356.5 1092,-356.5"/>
<polygon fill="none" stroke="black" points="1092,-356.5 1092,-393.5 1559,-393.5 1559,-356.5 1092,-356.5"/>
<text text-anchor="start" x="1239.5" y="-372.3" font-family="Arial" font-weight="bold" font-size="14.00">InitializationAccumulator</text>
<polygon fill="white" stroke="none" points="1092,-304.5 1092,-356.5 1559,-356.5 1559,-304.5 1092,-304.5"/>
<polygon fill="none" stroke="black" points="1092,-304.5 1092,-356.5 1559,-356.5 1559,-304.5 1092,-304.5"/>
<text text-anchor="start" x="1103" y="-334.3" font-family="Arial" font-size="14.00">&#45; senders: BTreeSet&lt;u64&gt;</text>
<text text-anchor="start" x="1103" y="-319.3" font-family="Arial" font-size="14.00">&#45; initializations: BTreeMap&lt;(usize, usize, BTreeSet&lt;XorName&gt;), usize&gt;</text>
<polygon fill="none" stroke="black" points="1090.5,-304 1090.5,-395 1559.5,-395 1559.5,-304 1090.5,-304"/>
</g>
<!-- ndInitializationAccumulator&#45;&gt;ndKeyGen -->
<g id="edge7" class="edge"><title>ndInitializationAccumulator&#45;&gt;ndKeyGen</title>
<path fill="none" stroke="black" d="M1291.05,-299.899C1279.53,-283.402 1266.07,-264.129 1252.3,-244.416"/>
<polygon fill="black" stroke="black" points="1252.17,-244.237 1245.46,-241.608 1245.3,-234.399 1252.02,-237.027 1252.17,-244.237"/>
</g>
<!-- ndComplaintsAccumulator -->
<g id="node9" class="node"><title>ndComplaintsAccumulator</title>
<polygon fill="lightblue" stroke="none" points="1595,-364.5 1595,-401.5 1989,-401.5 1989,-364.5 1595,-364.5"/>
<polygon fill="none" stroke="black" points="1595,-364.5 1595,-401.5 1989,-401.5 1989,-364.5 1595,-364.5"/>
<text text-anchor="start" x="1708" y="-380.3" font-family="Arial" font-weight="bold" font-size="14.00">ComplaintsAccumulator</text>
<polygon fill="white" stroke="none" points="1595,-297.5 1595,-364.5 1989,-364.5 1989,-297.5 1595,-297.5"/>
<polygon fill="none" stroke="black" points="1595,-297.5 1595,-364.5 1989,-364.5 1989,-297.5 1595,-297.5"/>
<text text-anchor="start" x="1606" y="-342.3" font-family="Arial" font-size="14.00">&#45; names: BTreeSet&lt;XorName&gt;</text>
<text text-anchor="start" x="1606" y="-327.3" font-family="Arial" font-size="14.00">&#45; threshold: usize</text>
<text text-anchor="start" x="1606" y="-312.3" font-family="Arial" font-size="14.00">&#45; complaints: BTreeMap&lt;XorName, BTreeSet&lt;XorName&gt;&gt;</text>
<polygon fill="none" stroke="black" points="1594,-296.5 1594,-402.5 1990,-402.5 1990,-296.5 1594,-296.5"/>
</g>
<!-- ndComplaintsAccumulator&#45;&gt;ndKeyGen -->
<g id="edge8" class="edge"><title>ndComplaintsAccumulator&#45;&gt;ndKeyGen</title>
<path fill="none" stroke="black" d="M1639.18,-292.408C1553.61,-261.003 1446.14,-221.557 1355.06,-188.126"/>
<polygon fill="black" stroke="black" points="1355.02,-188.111 1348.01,-189.798 1343.75,-183.976 1350.76,-182.288 1355.02,-188.111"/>
</g>
<!-- ndAcknowledgmentFault -->
<g id="node11" class="node"><title>ndAcknowledgmentFault</title>
<polygon fill="yellow" stroke="none" points="2026,-379.5 2026,-416.5 2203,-416.5 2203,-379.5 2026,-379.5"/>
<polygon fill="none" stroke="black" points="2026,-379.5 2026,-416.5 2203,-416.5 2203,-379.5 2026,-379.5"/>
<text text-anchor="start" x="2037" y="-395.3" font-family="Arial" font-weight="bold" font-size="14.00">AcknowledgmentFault</text>
<polygon fill="white" stroke="none" points="2026,-282.5 2026,-379.5 2203,-379.5 2203,-282.5 2026,-282.5"/>
<polygon fill="none" stroke="black" points="2026,-282.5 2026,-379.5 2203,-379.5 2203,-282.5 2026,-282.5"/>
<text text-anchor="start" x="2037" y="-357.3" font-family="Arial" font-size="14.00">ValueCount</text>
<text text-anchor="start" x="2037" y="-342.3" font-family="Arial" font-size="14.00">MissingPart</text>
<text text-anchor="start" x="2037" y="-327.3" font-family="Arial" font-size="14.00">DecryptValue</text>
<text text-anchor="start" x="2037" y="-312.3" font-family="Arial" font-size="14.00">DeserializeValue</text>
<text text-anchor="start" x="2037" y="-297.3" font-family="Arial" font-size="14.00">ValueAcknowledgment</text>
<polygon fill="none" stroke="black" points="2024.5,-281.5 2024.5,-417.5 2203.5,-417.5 2203.5,-281.5 2024.5,-281.5"/>
</g>
<!-- ndAcknowledgmentFault&#45;&gt;ndKeyGen -->
<g id="edge9" class="edge"><title>ndAcknowledgmentFault&#45;&gt;ndKeyGen</title>
<path fill="none" stroke="black" d="M2022.48,-277.484C2017.36,-274.748 2012.19,-272.228 2007,-270 1794.71,-178.823 1529.62,-142.331 1353.99,-127.73"/>
<polygon fill="black" stroke="black" points="1343.87,-126.904 1354.2,-123.232 1348.85,-127.311 1353.83,-127.717 1353.83,-127.717 1353.83,-127.717 1348.85,-127.311 1353.47,-132.202 1343.87,-126.904 1343.87,-126.904"/>
</g>
<!-- ndPartFault -->
<g id="node12" class="node"><title>ndPartFault</title>
<polygon fill="yellow" stroke="none" points="2405,-379.5 2405,-416.5 2565,-416.5 2565,-379.5 2405,-379.5"/>
<polygon fill="none" stroke="black" points="2405,-379.5 2405,-416.5 2565,-416.5 2565,-379.5 2405,-379.5"/>
<text text-anchor="start" x="2453" y="-395.3" font-family="Arial" font-weight="bold" font-size="14.00">PartFault</text>
<polygon fill="white" stroke="none" points="2405,-282.5 2405,-379.5 2565,-379.5 2565,-282.5 2405,-282.5"/>
<polygon fill="none" stroke="black" points="2405,-282.5 2405,-379.5 2565,-379.5 2565,-282.5 2405,-282.5"/>
<text text-anchor="start" x="2416" y="-357.3" font-family="Arial" font-size="14.00">RowCount</text>
<text text-anchor="start" x="2416" y="-342.3" font-family="Arial" font-size="14.00">MultipleParts</text>
<text text-anchor="start" x="2416" y="-327.3" font-family="Arial" font-size="14.00">DecryptRow</text>
<text text-anchor="start" x="2416" y="-312.3" font-family="Arial" font-size="14.00">DeserializeRow</text>
<text text-anchor="start" x="2416" y="-297.3" font-family="Arial" font-size="14.00">RowAcknowledgment</text>
<polygon fill="none" stroke="black" points="2404,-281.5 2404,-417.5 2566,-417.5 2566,-281.5 2404,-281.5"/>
</g>
<!-- ndPartFault&#45;&gt;ndPartOutcome -->
<g id="edge10" class="edge"><title>ndPartFault&#45;&gt;ndPartOutcome</title>
<path fill="none" stroke="black" d="M2485,-277.462C2485,-245.839 2485,-208.982 2485,-178.673"/>
<polygon fill="black" stroke="black" points="2485,-178.549 2481,-172.549 2485,-166.549 2489,-172.549 2485,-178.549"/>
</g>
<!-- ndPartFault&#45;&gt;ndKeyGen -->
<g id="edge11" class="edge"><title>ndPartFault&#45;&gt;ndKeyGen</title>
<path fill="none" stroke="black" d="M2403.06,-277.438C2398.12,-274.671 2393.08,-272.161 2388,-270 2206.09,-192.667 1649.95,-147.82 1353.97,-128.824"/>
<polygon fill="black" stroke="black" points="1343.55,-128.159 1353.82,-124.306 1348.54,-128.478 1353.53,-128.796 1353.53,-128.796 1353.53,-128.796 1348.54,-128.478 1353.24,-133.287 1343.55,-128.159 1343.55,-128.159"/>
</g>
<!-- ndMessage -->
<g id="node13" class="node"><title>ndMessage</title>
<polygon fill="yellow" stroke="none" points="2239,-379.5 2239,-416.5 2370,-416.5 2370,-379.5 2239,-379.5"/>
<polygon fill="none" stroke="black" points="2239,-379.5 2239,-416.5 2370,-416.5 2370,-379.5 2239,-379.5"/>
<text text-anchor="start" x="2272.5" y="-395.3" font-family="Arial" font-weight="bold" font-size="14.00">Message</text>
<polygon fill="white" stroke="none" points="2239,-282.5 2239,-379.5 2370,-379.5 2370,-282.5 2239,-282.5"/>
<polygon fill="none" stroke="black" points="2239,-282.5 2239,-379.5 2370,-379.5 2370,-282.5 2239,-282.5"/>
<text text-anchor="start" x="2250" y="-357.3" font-family="Arial" font-size="14.00">Initialization</text>
<text text-anchor="start" x="2250" y="-342.3" font-family="Arial" font-size="14.00">Proposal</text>
<text text-anchor="start" x="2250" y="-327.3" font-family="Arial" font-size="14.00">Complaint</text>
<text text-anchor="start" x="2250" y="-312.3" font-family="Arial" font-size="14.00">Justification</text>
<text text-anchor="start" x="2250" y="-297.3" font-family="Arial" font-size="14.00">Acknowledgment</text>
<polygon fill="none" stroke="black" points="2237.5,-281.5 2237.5,-417.5 2370.5,-417.5 2370.5,-281.5 2237.5,-281.5"/>
</g>
<!-- ndMessage&#45;&gt;ndKeyGen -->
<g id="edge12" class="edge"><title>ndMessage&#45;&gt;ndKeyGen</title>
<path fill="none" stroke="black" stroke-dasharray="5,2" d="M2234.13,-277.37C2229.85,-274.642 2225.46,-272.158 2221,-270 2072.19,-198.084 1617.95,-152.612 1355.91,-131.634"/>
<polygon fill="black" stroke="black" points="1355.54,-131.604 1349.24,-135.116 1343.57,-130.653 1349.87,-127.141 1355.54,-131.604"/>
</g>
<!-- ndPeerId -->
<g id="node14" class="node"><title>ndPeerId</title>
<polygon fill="lightblue" stroke="none" points="983,-574.5 983,-611.5 1158,-611.5 1158,-574.5 983,-574.5"/>
<polygon fill="none" stroke="black" points="983,-574.5 983,-611.5 1158,-611.5 1158,-574.5 983,-574.5"/>
<text text-anchor="start" x="1047.5" y="-590.3" font-family="Arial" font-weight="bold" font-size="14.00">PeerId</text>
<polygon fill="white" stroke="none" points="983,-507.5 983,-574.5 1158,-574.5 1158,-507.5 983,-507.5"/>
<polygon fill="none" stroke="black" points="983,-507.5 983,-574.5 1158,-574.5 1158,-507.5 983,-507.5"/>
<text text-anchor="start" x="994" y="-552.3" font-family="Arial" font-size="14.00">&#45; id: XorName</text>
<text text-anchor="start" x="994" y="-537.3" font-family="Arial" font-size="14.00">&#45; public_key: PublicKey</text>
<text text-anchor="start" x="994" y="-522.3" font-family="Arial" font-size="14.00">&#45; secret_key: SecretKey</text>
<polygon fill="none" stroke="black" points="981.5,-506.5 981.5,-612.5 1158.5,-612.5 1158.5,-506.5 981.5,-506.5"/>
</g>
</g>
</svg>
