<?xml version="1.0" encoding="UTF-8" standalone="no"?>
<!DOCTYPE svg PUBLIC "-//W3C//DTD SVG 1.1//EN"
 "http://www.w3.org/Graphics/SVG/1.1/DTD/svg11.dtd">
<!-- Generated by graphviz version 2.38.0 (20140413.2041)
 -->
<!-- Title: ml Pages: 1 -->
<svg width="3547pt" height="261pt"
 viewBox="0.00 0.00 3547.00 261.00" xmlns="http://www.w3.org/2000/svg" xmlns:xlink="http://www.w3.org/1999/xlink">
<g id="graph0" class="graph" transform="scale(1 1) rotate(0) translate(4 257)">
<title>ml</title>
<polygon fill="white" stroke="none" points="-4,4 -4,-257 3543,-257 3543,4 -4,4"/>
<!-- ndSignatureAggregator -->
<g id="node1" class="node"><title>ndSignatureAggregator</title>
<text text-anchor="middle" x="2259.5" y="-14.3" font-family="Times,serif" font-size="14.00">ndSignatureAggregator</text>
</g>
<!-- ndError -->
<g id="node2" class="node"><title>ndError</title>
<g id="a_node2_0"><a xlink:href="https://github.com/maidsafe/bls_signature_aggregator/blob/master/src/signature_aggregator.rs#:~:text=enum%20Error" xlink:title="&lt;TABLE&gt;">
<polygon fill="yellow" stroke="none" points="3345.5,-177.5 3345.5,-214.5 3530.5,-214.5 3530.5,-177.5 3345.5,-177.5"/>
<polygon fill="none" stroke="black" points="3345.5,-177.5 3345.5,-214.5 3530.5,-214.5 3530.5,-177.5 3345.5,-177.5"/>
<text text-anchor="start" x="3419.5" y="-193.3" font-family="Arial" font-weight="bold" font-size="14.00">Error</text>
<polygon fill="white" stroke="none" points="3345.5,-110.5 3345.5,-177.5 3530.5,-177.5 3530.5,-110.5 3345.5,-110.5"/>
<polygon fill="none" stroke="black" points="3345.5,-110.5 3345.5,-177.5 3530.5,-177.5 3530.5,-110.5 3345.5,-110.5"/>
<text text-anchor="start" x="3356.5" y="-155.3" font-family="Arial" font-size="14.00">NotEnoughShares</text>
<text text-anchor="start" x="3356.5" y="-140.3" font-family="Arial" font-size="14.00">InvalidShare</text>
<text text-anchor="start" x="3356.5" y="-125.3" font-family="Arial" font-size="14.00">Combine(bls::error::Error)</text>
<polygon fill="none" stroke="black" points="3344,-109.5 3344,-215.5 3531,-215.5 3531,-109.5 3344,-109.5"/>
</a>
</g>
</g>
<!-- ndError&#45;&gt;ndSignatureAggregator -->
<g id="edge1" class="edge"><title>ndError&#45;&gt;ndSignatureAggregator</title>
<path fill="none" stroke="black" d="M3382.27,-105.314C3365.95,-92.0258 3347.15,-79.5392 3327.5,-72 3281.71,-54.4351 2583.66,-29.7506 2341.49,-21.6726"/>
<polygon fill="black" stroke="black" points="2331.34,-21.3348 2341.49,-17.17 2336.34,-21.5012 2341.34,-21.6675 2341.34,-21.6675 2341.34,-21.6675 2336.34,-21.5012 2341.19,-26.165 2331.34,-21.3348 2331.34,-21.3348"/>
</g>
<!-- ndState -->
<g id="node3" class="node"><title>ndState</title>
<text text-anchor="middle" x="2907.5" y="-14.3" font-family="Times,serif" font-size="14.00">ndState</text>
</g>
<!-- ndError&#45;&gt;ndState -->
<g id="edge2" class="edge"><title>ndError&#45;&gt;ndState</title>
<path fill="none" stroke="black" d="M3380.72,-105.368C3364.67,-92.4191 3346.4,-80.0862 3327.5,-72 3259.17,-42.7672 3036.68,-26.6447 2946.24,-21.1626"/>
<polygon fill="black" stroke="black" points="2936.14,-20.5613 2946.39,-16.6635 2941.13,-20.8584 2946.12,-21.1555 2946.12,-21.1555 2946.12,-21.1555 2941.13,-20.8584 2945.86,-25.6476 2936.14,-20.5613 2936.14,-20.5613"/>
</g>
<!-- ndProof -->
<g id="node4" class="node"><title>ndProof</title>
<g id="a_node4_1"><a xlink:href="https://github.com/maidsafe/bls_signature_aggregator/blob/master/src/proof.rs#:~:text=struct%20Proof" xlink:title="&lt;TABLE&gt;">
<polygon fill="lightblue" stroke="none" points="9.5,-188.5 9.5,-225.5 1174.5,-225.5 1174.5,-188.5 9.5,-188.5"/>
<polygon fill="none" stroke="black" points="9.5,-188.5 9.5,-225.5 1174.5,-225.5 1174.5,-188.5 9.5,-188.5"/>
<text text-anchor="start" x="20.5" y="-204.3" font-family="Arial" font-weight="bold" font-size="14.00">pub struct Proof { &#160;&#160;&#160;/// The BLS public key. &#160;&#160;&#160;pub public_key: bls::PublicKey, &#160;&#160;&#160;/// The BLS signature corresponding to the public key. &#160;&#160;&#160;pub signature: bls::Signature,}</text>
<polygon fill="white" stroke="none" points="9.5,-136.5 9.5,-188.5 1174.5,-188.5 1174.5,-136.5 9.5,-136.5"/>
<polygon fill="none" stroke="black" points="9.5,-136.5 9.5,-188.5 1174.5,-188.5 1174.5,-136.5 9.5,-136.5"/>
<text text-anchor="start" x="20.5" y="-166.3" font-family="Arial" font-size="14.00">+ public_key: bls::PublicKey</text>
<text text-anchor="start" x="20.5" y="-151.3" font-family="Arial" font-size="14.00">+ signature: bls::Signature</text>
<polygon fill="white" stroke="none" points="9.5,-99.5 9.5,-136.5 1174.5,-136.5 1174.5,-99.5 9.5,-99.5"/>
<polygon fill="none" stroke="black" points="9.5,-99.5 9.5,-136.5 1174.5,-136.5 1174.5,-99.5 9.5,-99.5"/>
<text text-anchor="start" x="20.5" y="-114.3" font-family="Arial" font-size="14.00">&#45; verify(&amp;self, payload: &amp;[u8]) &#45;&gt; bool</text>
<polygon fill="none" stroke="black" points="8,-98.5 8,-226.5 1175,-226.5 1175,-98.5 8,-98.5"/>
</a>
</g>
</g>
<!-- ndProof&#45;&gt;ndSignatureAggregator -->
<g id="edge3" class="edge"><title>ndProof&#45;&gt;ndSignatureAggregator</title>
<path fill="none" stroke="black" d="M1005.07,-94.4684C1067.74,-85.8894 1131.74,-78.0181 1192.5,-72 1558.91,-35.706 1998.69,-23.8301 2177.7,-20.3268"/>
<polygon fill="black" stroke="black" points="2187.83,-20.1321 2177.92,-24.8235 2182.83,-20.2282 2177.83,-20.3244 2177.83,-20.3244 2177.83,-20.3244 2182.83,-20.2282 2177.74,-15.8252 2187.83,-20.1321 2187.83,-20.1321"/>
</g>
<!-- ndProofShare -->
<g id="node5" class="node"><title>ndProofShare</title>
<g id="a_node5_2"><a xlink:href="https://github.com/maidsafe/bls_signature_aggregator/blob/master/src/proof.rs#:~:text=struct%20ProofShare" xlink:title="&lt;TABLE&gt;">
<polygon fill="lightblue" stroke="none" points="1210.5,-210.5 1210.5,-247.5 3309.5,-247.5 3309.5,-210.5 1210.5,-210.5"/>
<polygon fill="none" stroke="black" points="1210.5,-210.5 1210.5,-247.5 3309.5,-247.5 3309.5,-210.5 1210.5,-210.5"/>
<text text-anchor="start" x="1221.5" y="-226.3" font-family="Arial" font-weight="bold" font-size="14.00">pub struct ProofShare { &#160;&#160;&#160;/// BLS public key set. &#160;&#160;&#160;pub public_key_set: bls::PublicKeySet, &#160;&#160;&#160;/// Index of the node that created this proof share. &#160;&#160;&#160;pub index: usize, &#160;&#160;&#160;/// BLS signature share corresponding to the `index`&#45;th public key share of the public key set. &#160;&#160;&#160;pub signature_share: bls::SignatureShare,}</text>
<polygon fill="white" stroke="none" points="1210.5,-143.5 1210.5,-210.5 3309.5,-210.5 3309.5,-143.5 1210.5,-143.5"/>
<polygon fill="none" stroke="black" points="1210.5,-143.5 1210.5,-210.5 3309.5,-210.5 3309.5,-143.5 1210.5,-143.5"/>
<text text-anchor="start" x="1221.5" y="-188.3" font-family="Arial" font-size="14.00">+ public_key_set: bls::PublicKeySet</text>
<text text-anchor="start" x="1221.5" y="-173.3" font-family="Arial" font-size="14.00">+ index: usize</text>
<text text-anchor="start" x="1221.5" y="-158.3" font-family="Arial" font-size="14.00">+ signature_share: bls::SignatureShare</text>
<polygon fill="white" stroke="none" points="1210.5,-76.5 1210.5,-143.5 3309.5,-143.5 3309.5,-76.5 1210.5,-76.5"/>
<polygon fill="none" stroke="black" points="1210.5,-76.5 1210.5,-143.5 3309.5,-143.5 3309.5,-76.5 1210.5,-76.5"/>
<text text-anchor="start" x="1221.5" y="-121.3" font-family="Arial" font-size="14.00">&#45; new(public_key_set: bls::PublicKeySet, index: usize, secret_key_share: &amp;bls::SecretKeyShare, payload: &amp;[u8]) &#45;&gt; Self</text>
<text text-anchor="start" x="1221.5" y="-106.3" font-family="Arial" font-size="14.00">&#45; verify(&amp;self, payload: &amp;[u8]) &#45;&gt; bool</text>
<text text-anchor="start" x="1221.5" y="-91.3" font-family="Arial" font-size="14.00">&#45; fmt(&amp;self, formatter: &amp;mut Formatter) &#45;&gt; fmt::Result</text>
<polygon fill="none" stroke="black" points="1209,-76 1209,-249 3310,-249 3310,-76 1209,-76"/>
</a>
</g>
</g>
<!-- ndProofShare&#45;&gt;ndSignatureAggregator -->
<g id="edge4" class="edge"><title>ndProofShare&#45;&gt;ndSignatureAggregator</title>
<path fill="none" stroke="black" stroke-dasharray="5,2" d="M2259.5,-71.6569C2259.5,-62.5457 2259.5,-53.8707 2259.5,-46.2866"/>
<polygon fill="black" stroke="black" points="2259.5,-36.0318 2264,-46.0318 2259.5,-41.0318 2259.5,-46.0318 2259.5,-46.0318 2259.5,-46.0318 2259.5,-41.0318 2255,-46.0319 2259.5,-36.0318 2259.5,-36.0318"/>
</g>
<!-- ndProofShare&#45;&gt;ndState -->
<g id="edge5" class="edge"><title>ndProofShare&#45;&gt;ndState</title>
<path fill="none" stroke="black" stroke-dasharray="5,2" d="M2666.67,-71.9605C2750.11,-53.6107 2825.66,-36.9968 2869.07,-27.451"/>
<polygon fill="black" stroke="black" points="2878.88,-25.2942 2870.08,-31.837 2873.99,-26.3681 2869.11,-27.442 2869.11,-27.442 2869.11,-27.442 2873.99,-26.3681 2868.14,-23.047 2878.88,-25.2942 2878.88,-25.2942"/>
</g>
</g>
</svg>
