<?xml version="1.0" encoding="UTF-8" standalone="no"?>
<!DOCTYPE svg PUBLIC "-//W3C//DTD SVG 1.1//EN"
 "http://www.w3.org/Graphics/SVG/1.1/DTD/svg11.dtd">
<!-- Generated by graphviz version 2.38.0 (20140413.2041)
 -->
<!-- Title: ml Pages: 1 -->
<svg width="3421pt" height="127pt"
 viewBox="0.00 0.00 3421.00 127.00" xmlns="http://www.w3.org/2000/svg" xmlns:xlink="http://www.w3.org/1999/xlink">
<g id="graph0" class="graph" transform="scale(1 1) rotate(0) translate(4 123)">
<title>ml</title>
<polygon fill="white" stroke="none" points="-4,4 -4,-123 3417,-123 3417,4 -4,4"/>
<!-- ndSignatureAggregator -->
<g id="node1" class="node"><title>ndSignatureAggregator</title>
<text text-anchor="middle" x="2259.5" y="-14.3" font-family="Times,serif" font-size="14.00">ndSignatureAggregator</text>
</g>
<!-- ndError -->
<g id="node2" class="node"><title>ndError</title>
<g id="a_node2_0"><a xlink:href="https://github.com/maidsafe/bls_signature_aggregator/blob/master/src/signature_aggregator.rs#:~:text=enum%20Error" xlink:title="&lt;TABLE&gt;">
<polygon fill="yellow" stroke="none" points="3345.5,-76.5 3345.5,-113.5 3404.5,-113.5 3404.5,-76.5 3345.5,-76.5"/>
<polygon fill="none" stroke="black" points="3345.5,-76.5 3345.5,-113.5 3404.5,-113.5 3404.5,-76.5 3345.5,-76.5"/>
<text text-anchor="start" x="3356.5" y="-92.3" font-family="Arial" font-weight="bold" font-size="14.00">Error</text>
<polygon fill="none" stroke="black" points="3344,-76 3344,-115 3405,-115 3405,-76 3344,-76"/>
</a>
</g>
</g>
<!-- ndError&#45;&gt;ndSignatureAggregator -->
<g id="edge1" class="edge"><title>ndError&#45;&gt;ndSignatureAggregator</title>
<path fill="none" stroke="black" d="M3335.97,-74.5992C3333.15,-73.5953 3330.31,-72.7107 3327.5,-72 3233.02,-48.0726 2574.86,-27.7362 2341.4,-21.2008"/>
<polygon fill="black" stroke="black" points="2331.27,-20.9185 2341.39,-16.699 2336.27,-21.0579 2341.26,-21.1973 2341.26,-21.1973 2341.26,-21.1973 2336.27,-21.0579 2341.14,-25.6955 2331.27,-20.9185 2331.27,-20.9185"/>
</g>
<!-- ndState -->
<g id="node3" class="node"><title>ndState</title>
<text text-anchor="middle" x="2875.5" y="-14.3" font-family="Times,serif" font-size="14.00">ndState</text>
</g>
<!-- ndError&#45;&gt;ndState -->
<g id="edge2" class="edge"><title>ndError&#45;&gt;ndState</title>
<path fill="none" stroke="black" d="M3335.91,-74.8146C3333.1,-73.7594 3330.28,-72.8045 3327.5,-72 3178.96,-29.0283 2993.36,-20.784 2914.18,-19.2841"/>
<polygon fill="black" stroke="black" points="2904.17,-19.1203 2914.25,-14.7846 2909.17,-19.2022 2914.17,-19.284 2914.17,-19.284 2914.17,-19.284 2909.17,-19.2022 2914.1,-23.7834 2904.17,-19.1203 2904.17,-19.1203"/>
</g>
<!-- ndProof -->
<g id="node4" class="node"><title>ndProof</title>
<g id="a_node4_1"><a xlink:href="https://github.com/maidsafe/bls_signature_aggregator/blob/master/src/proof.rs#:~:text=struct%20Proof" xlink:title="&lt;TABLE&gt;">
<polygon fill="lightblue" stroke="none" points="9.5,-76.5 9.5,-113.5 1174.5,-113.5 1174.5,-76.5 9.5,-76.5"/>
<polygon fill="none" stroke="black" points="9.5,-76.5 9.5,-113.5 1174.5,-113.5 1174.5,-76.5 9.5,-76.5"/>
<text text-anchor="start" x="20.5" y="-92.3" font-family="Arial" font-weight="bold" font-size="14.00">pub struct Proof { &#160;&#160;&#160;/// The BLS public key. &#160;&#160;&#160;pub public_key: bls::PublicKey, &#160;&#160;&#160;/// The BLS signature corresponding to the public key. &#160;&#160;&#160;pub signature: bls::Signature,}</text>
<polygon fill="none" stroke="black" points="8,-76 8,-115 1175,-115 1175,-76 8,-76"/>
</a>
</g>
</g>
<!-- ndProof&#45;&gt;ndSignatureAggregator -->
<g id="edge3" class="edge"><title>ndProof&#45;&gt;ndSignatureAggregator</title>
<path fill="none" stroke="black" d="M1088.85,-71.9881C1477.22,-54.4089 1982.64,-31.5319 2177.73,-22.7012"/>
<polygon fill="black" stroke="black" points="2187.9,-22.2408 2178.12,-27.1885 2182.91,-22.467 2177.91,-22.6931 2177.91,-22.6931 2177.91,-22.6931 2182.91,-22.467 2177.71,-18.1977 2187.9,-22.2408 2187.9,-22.2408"/>
</g>
<!-- ndProofShare -->
<g id="node5" class="node"><title>ndProofShare</title>
<g id="a_node5_2"><a xlink:href="https://github.com/maidsafe/bls_signature_aggregator/blob/master/src/proof.rs#:~:text=struct%20ProofShare" xlink:title="&lt;TABLE&gt;">
<polygon fill="lightblue" stroke="none" points="1210.5,-76.5 1210.5,-113.5 3309.5,-113.5 3309.5,-76.5 1210.5,-76.5"/>
<polygon fill="none" stroke="black" points="1210.5,-76.5 1210.5,-113.5 3309.5,-113.5 3309.5,-76.5 1210.5,-76.5"/>
<text text-anchor="start" x="1221.5" y="-92.3" font-family="Arial" font-weight="bold" font-size="14.00">pub struct ProofShare { &#160;&#160;&#160;/// BLS public key set. &#160;&#160;&#160;pub public_key_set: bls::PublicKeySet, &#160;&#160;&#160;/// Index of the node that created this proof share. &#160;&#160;&#160;pub index: usize, &#160;&#160;&#160;/// BLS signature share corresponding to the `index`&#45;th public key share of the public key set. &#160;&#160;&#160;pub signature_share: bls::SignatureShare,}</text>
<polygon fill="none" stroke="black" points="1209,-76 1209,-115 3310,-115 3310,-76 1209,-76"/>
</a>
</g>
</g>
<!-- ndProofShare&#45;&gt;ndSignatureAggregator -->
<g id="edge4" class="edge"><title>ndProofShare&#45;&gt;ndSignatureAggregator</title>
<path fill="none" stroke="black" stroke-dasharray="5,2" d="M2259.5,-71.8475C2259.5,-63.7848 2259.5,-54.622 2259.5,-46.2165"/>
<polygon fill="black" stroke="black" points="2259.5,-36.1144 2264,-46.1144 2259.5,-41.1144 2259.5,-46.1144 2259.5,-46.1144 2259.5,-46.1144 2259.5,-41.1144 2255,-46.1145 2259.5,-36.1144 2259.5,-36.1144"/>
</g>
<!-- ndProofShare&#45;&gt;ndState -->
<g id="edge5" class="edge"><title>ndProofShare&#45;&gt;ndState</title>
<path fill="none" stroke="black" stroke-dasharray="5,2" d="M2443.49,-71.9498C2581.46,-55.0386 2759.3,-33.2418 2836.67,-23.7586"/>
<polygon fill="black" stroke="black" points="2846.91,-22.504 2837.53,-28.1872 2841.95,-23.1123 2836.99,-23.7207 2836.99,-23.7207 2836.99,-23.7207 2841.95,-23.1123 2836.44,-19.2541 2846.91,-22.504 2846.91,-22.504"/>
</g>
</g>
</svg>
