<?xml version="1.0" encoding="UTF-8" standalone="no"?>
<!DOCTYPE svg PUBLIC "-//W3C//DTD SVG 1.1//EN"
 "http://www.w3.org/Graphics/SVG/1.1/DTD/svg11.dtd">
<!-- Generated by graphviz version 2.38.0 (20140413.2041)
 -->
<!-- Title: ml Pages: 1 -->
<svg width="4333pt" height="662pt"
 viewBox="0.00 0.00 4332.50 662.00" xmlns="http://www.w3.org/2000/svg" xmlns:xlink="http://www.w3.org/1999/xlink">
<g id="graph0" class="graph" transform="scale(1 1) rotate(0) translate(4 658)">
<title>ml</title>
<polygon fill="white" stroke="none" points="-4,4 -4,-658 4328.5,-658 4328.5,4 -4,4"/>
<!-- ndKey -->
<g id="node1" class="node"><title>ndKey</title>
<g id="a_node1_0"><a xlink:href="https://github.com/maidsafe/bls_dkg/blob/master/src/key_gen/encryptor.rs#:~:text=struct%20Key" xlink:title="&lt;TABLE&gt;">
<polygon fill="lightblue" stroke="none" points="570,-541 570,-578 845,-578 845,-541 570,-541"/>
<polygon fill="none" stroke="black" points="570,-541 570,-578 845,-578 845,-541 570,-541"/>
<text text-anchor="start" x="581" y="-556.8" font-family="Arial" font-weight="bold" font-size="14.00">pub struct Key(pub [u8; KEY_SIZE]);</text>
<polygon fill="white" stroke="none" points="570,-504 570,-541 845,-541 845,-504 570,-504"/>
<polygon fill="none" stroke="black" points="570,-504 570,-541 845,-541 845,-504 570,-504"/>
<text text-anchor="start" x="581" y="-518.8" font-family="Arial" font-size="14.00">+ [u8; KEY_SIZE]</text>
<polygon fill="none" stroke="black" points="568.5,-503 568.5,-579 845.5,-579 845.5,-503 568.5,-503"/>
</a>
</g>
</g>
<!-- ndEncryptor -->
<g id="node3" class="node"><title>ndEncryptor</title>
<text text-anchor="middle" x="854" y="-259.8" font-family="Times,serif" font-size="14.00">ndEncryptor</text>
</g>
<!-- ndKey&#45;&gt;ndEncryptor -->
<g id="edge1" class="edge"><title>ndKey&#45;&gt;ndEncryptor</title>
<path fill="none" stroke="black" d="M736.776,-498.889C756.99,-469.894 783.489,-429.664 803,-392 819.946,-359.288 835.016,-319.612 844.301,-293.297"/>
<polygon fill="black" stroke="black" points="844.328,-293.219 842.516,-286.239 848.261,-281.881 850.074,-288.861 844.328,-293.219"/>
</g>
<!-- ndIv -->
<g id="node2" class="node"><title>ndIv</title>
<g id="a_node2_1"><a xlink:href="https://github.com/maidsafe/bls_dkg/blob/master/src/key_gen/encryptor.rs#:~:text=struct%20Iv" xlink:title="&lt;TABLE&gt;">
<polygon fill="lightblue" stroke="none" points="881,-541 881,-578 1124,-578 1124,-541 881,-541"/>
<polygon fill="none" stroke="black" points="881,-541 881,-578 1124,-578 1124,-541 881,-541"/>
<text text-anchor="start" x="892" y="-556.8" font-family="Arial" font-weight="bold" font-size="14.00">pub struct Iv(pub [u8; IV_SIZE]);</text>
<polygon fill="white" stroke="none" points="881,-504 881,-541 1124,-541 1124,-504 881,-504"/>
<polygon fill="none" stroke="black" points="881,-504 881,-541 1124,-541 1124,-504 881,-504"/>
<text text-anchor="start" x="892" y="-518.8" font-family="Arial" font-size="14.00">+ [u8; IV_SIZE]</text>
<polygon fill="none" stroke="black" points="879.5,-503 879.5,-579 1124.5,-579 1124.5,-503 879.5,-503"/>
</a>
</g>
</g>
<!-- ndIv&#45;&gt;ndEncryptor -->
<g id="edge2" class="edge"><title>ndIv&#45;&gt;ndEncryptor</title>
<path fill="none" stroke="black" d="M971.88,-498.933C951.44,-469.958 924.661,-429.734 905,-392 887.592,-358.589 872.242,-317.844 863.043,-291.55"/>
<polygon fill="black" stroke="black" points="859.714,-281.894 867.228,-289.881 861.344,-286.621 862.973,-291.348 862.973,-291.348 862.973,-291.348 861.344,-286.621 858.719,-292.815 859.714,-281.894 859.714,-281.894"/>
</g>
<!-- ndKeyGen -->
<g id="node13" class="node"><title>ndKeyGen</title>
<text text-anchor="middle" x="2496" y="-45.8" font-family="Times,serif" font-size="14.00">ndKeyGen</text>
</g>
<!-- ndEncryptor&#45;&gt;ndKeyGen -->
<g id="edge3" class="edge"><title>ndEncryptor&#45;&gt;ndKeyGen</title>
<path fill="none" stroke="black" d="M855.219,-245.364C858.251,-217.028 868.759,-160.964 905,-135 969.157,-89.0355 2183.8,-57.8588 2446.27,-51.6423"/>
<polygon fill="black" stroke="black" points="2446.39,-51.6395 2452.3,-47.4993 2458.39,-51.357 2452.49,-55.4971 2446.39,-51.6395"/>
</g>
<!-- ndOutcome -->
<g id="node4" class="node"><title>ndOutcome</title>
<g id="a_node4_2"><a xlink:href="https://github.com/maidsafe/bls_dkg/blob/master/src/key_gen/outcome.rs#:~:text=struct%20Outcome" xlink:title="&lt;TABLE&gt;">
<polygon fill="lightblue" stroke="none" points="924,-304.5 924,-341.5 2459,-341.5 2459,-304.5 924,-304.5"/>
<polygon fill="none" stroke="black" points="924,-304.5 924,-341.5 2459,-341.5 2459,-304.5 924,-304.5"/>
<text text-anchor="start" x="935" y="-320.3" font-family="Arial" font-weight="bold" font-size="14.00">pub struct Outcome { &#160;&#160;&#160;/// Public key set to verify threshold signatures &#160;&#160;&#160;pub public_key_set: PublicKeySet, &#160;&#160;&#160;/// Secret Key share. &#160;&#160;&#160;pub secret_key_share: SecretKeyShare, &#160;&#160;&#160;/// Our index in the group &#160;&#160;&#160;pub index: usize,}</text>
<polygon fill="white" stroke="none" points="924,-237.5 924,-304.5 2459,-304.5 2459,-237.5 924,-237.5"/>
<polygon fill="none" stroke="black" points="924,-237.5 924,-304.5 2459,-304.5 2459,-237.5 924,-237.5"/>
<text text-anchor="start" x="935" y="-282.3" font-family="Arial" font-size="14.00">+ public_key_set: PublicKeySet</text>
<text text-anchor="start" x="935" y="-267.3" font-family="Arial" font-size="14.00">+ secret_key_share: SecretKeyShare</text>
<text text-anchor="start" x="935" y="-252.3" font-family="Arial" font-size="14.00">+ index: usize</text>
<polygon fill="white" stroke="none" points="924,-185.5 924,-237.5 2459,-237.5 2459,-185.5 924,-185.5"/>
<polygon fill="none" stroke="black" points="924,-185.5 924,-237.5 2459,-237.5 2459,-185.5 924,-185.5"/>
<text text-anchor="start" x="935" y="-215.3" font-family="Arial" font-size="14.00">&#45; new(public_key_set: PublicKeySet, secret_key_share: SecretKeyShare, index: usize) &#45;&gt; Self</text>
<text text-anchor="start" x="935" y="-200.3" font-family="Arial" font-size="14.00">&#45; fmt(&amp;self, formatter: &amp;mut Formatter) &#45;&gt; fmt::Result</text>
<polygon fill="none" stroke="black" points="922.5,-184.5 922.5,-342.5 2459.5,-342.5 2459.5,-184.5 922.5,-184.5"/>
</a>
</g>
</g>
<!-- ndOutcome&#45;&gt;ndKeyGen -->
<g id="edge4" class="edge"><title>ndOutcome&#45;&gt;ndKeyGen</title>
<path fill="none" stroke="black" d="M2002.52,-180.459C2171.01,-136.088 2361.94,-85.8061 2448.66,-62.9681"/>
<polygon fill="black" stroke="black" points="2458.46,-60.3866 2449.93,-67.285 2453.62,-61.6599 2448.79,-62.9333 2448.79,-62.9333 2448.79,-62.9333 2453.62,-61.6599 2447.64,-58.5817 2458.46,-60.3866 2458.46,-60.3866"/>
</g>
<!-- ndError -->
<g id="node5" class="node"><title>ndError</title>
<g id="a_node5_3"><a xlink:href="https://github.com/maidsafe/bls_dkg/blob/master/src/key_gen/mod.rs#:~:text=enum%20Error" xlink:title="&lt;TABLE&gt;">
<polygon fill="yellow" stroke="none" points="1330,-612 1330,-649 1635,-649 1635,-612 1330,-612"/>
<polygon fill="none" stroke="black" points="1330,-612 1330,-649 1635,-649 1635,-612 1330,-612"/>
<text text-anchor="start" x="1464" y="-627.8" font-family="Arial" font-weight="bold" font-size="14.00">Error</text>
<polygon fill="white" stroke="none" points="1330,-470 1330,-612 1635,-612 1635,-470 1330,-470"/>
<polygon fill="none" stroke="black" points="1330,-470 1330,-612 1635,-612 1635,-470 1330,-470"/>
<text text-anchor="start" x="1341" y="-589.8" font-family="Arial" font-size="14.00">Unknown</text>
<text text-anchor="start" x="1341" y="-574.8" font-family="Arial" font-size="14.00">UnknownSender</text>
<text text-anchor="start" x="1341" y="-559.8" font-family="Arial" font-size="14.00">Serialization(String)</text>
<text text-anchor="start" x="1341" y="-544.8" font-family="Arial" font-size="14.00">QuicP2P(String)</text>
<text text-anchor="start" x="1341" y="-529.8" font-family="Arial" font-size="14.00">Encryption</text>
<text text-anchor="start" x="1341" y="-514.8" font-family="Arial" font-size="14.00">TooManyNonVoters(BTreeSet&lt;u64&gt;)</text>
<text text-anchor="start" x="1341" y="-499.8" font-family="Arial" font-size="14.00">UnexpectedPhase</text>
<text text-anchor="start" x="1341" y="-484.8" font-family="Arial" font-size="14.00">MissingPart</text>
<polygon fill="white" stroke="none" points="1330,-433 1330,-470 1635,-470 1635,-433 1330,-433"/>
<polygon fill="none" stroke="black" points="1330,-433 1330,-470 1635,-470 1635,-433 1330,-433"/>
<text text-anchor="start" x="1341" y="-447.8" font-family="Arial" font-size="14.00">&#45; from(err: Box&lt;bincode::ErrorKind&gt;) &#45;&gt; Error</text>
<polygon fill="none" stroke="black" points="1328.5,-432 1328.5,-650 1635.5,-650 1635.5,-432 1328.5,-432"/>
</a>
</g>
</g>
<!-- ndError&#45;&gt;ndEncryptor -->
<g id="edge5" class="edge"><title>ndError&#45;&gt;ndEncryptor</title>
<path fill="none" stroke="black" d="M1320.1,-480.733C1263.96,-461.817 1200.25,-442.145 1141,-428 1037.8,-403.361 988.11,-457.957 905,-392 874.065,-367.449 861.81,-321.284 857.014,-291.757"/>
<polygon fill="black" stroke="black" points="855.563,-281.702 861.445,-290.957 856.277,-286.651 856.991,-291.6 856.991,-291.6 856.991,-291.6 856.277,-286.651 852.537,-292.242 855.563,-281.702 855.563,-281.702"/>
</g>
<!-- ndError&#45;&gt;ndKeyGen -->
<g id="edge6" class="edge"><title>ndError&#45;&gt;ndKeyGen</title>
<path fill="none" stroke="black" d="M1643.74,-498.409C1743.72,-474.236 1875.05,-445.234 1993,-428 2046.25,-420.22 2438.25,-430.355 2476,-392 2519.19,-348.116 2505.54,-151.274 2498.79,-78.0518"/>
<polygon fill="black" stroke="black" points="2497.81,-67.79 2503.24,-77.3188 2498.28,-72.7675 2498.76,-77.745 2498.76,-77.745 2498.76,-77.745 2498.28,-72.7675 2494.28,-78.1712 2497.81,-67.79 2497.81,-67.79"/>
</g>
<!-- ndPart -->
<g id="node6" class="node"><title>ndPart</title>
<text text-anchor="middle" x="2551" y="-259.8" font-family="Times,serif" font-size="14.00">ndPart</text>
</g>
<!-- ndPart&#45;&gt;ndKeyGen -->
<g id="edge7" class="edge"><title>ndPart&#45;&gt;ndKeyGen</title>
<path fill="none" stroke="black" stroke-dasharray="5,2" d="M2546.5,-245.151C2536.93,-208.256 2514.49,-121.773 2503.02,-77.562"/>
<polygon fill="black" stroke="black" points="2500.49,-67.7912 2507.35,-76.3407 2501.74,-72.631 2503,-77.4708 2503,-77.4708 2503,-77.4708 2501.74,-72.631 2498.64,-78.6009 2500.49,-67.7912 2500.49,-67.7912"/>
</g>
<!-- ndAcknowledgment -->
<g id="node7" class="node"><title>ndAcknowledgment</title>
<text text-anchor="middle" x="3184" y="-259.8" font-family="Times,serif" font-size="14.00">ndAcknowledgment</text>
</g>
<!-- ndPartOutcome -->
<g id="node9" class="node"><title>ndPartOutcome</title>
<g id="a_node9_4"><a xlink:href="https://github.com/maidsafe/bls_dkg/blob/master/src/key_gen/mod.rs#:~:text=enum%20PartOutcome" xlink:title="&lt;TABLE&gt;">
<polygon fill="yellow" stroke="none" points="2983,-56.5 2983,-93.5 3213,-93.5 3213,-56.5 2983,-56.5"/>
<polygon fill="none" stroke="black" points="2983,-56.5 2983,-93.5 3213,-93.5 3213,-56.5 2983,-56.5"/>
<text text-anchor="start" x="3052" y="-72.3" font-family="Arial" font-weight="bold" font-size="14.00">PartOutcome</text>
<polygon fill="white" stroke="none" points="2983,-4.5 2983,-56.5 3213,-56.5 3213,-4.5 2983,-4.5"/>
<polygon fill="none" stroke="black" points="2983,-4.5 2983,-56.5 3213,-56.5 3213,-4.5 2983,-4.5"/>
<text text-anchor="start" x="2994" y="-34.3" font-family="Arial" font-size="14.00">Valid(Option&lt;Acknowledgment&gt;)</text>
<text text-anchor="start" x="2994" y="-19.3" font-family="Arial" font-size="14.00">Invalid(PartFault)</text>
<polygon fill="none" stroke="black" points="2982,-4 2982,-95 3214,-95 3214,-4 2982,-4"/>
</a>
</g>
</g>
<!-- ndAcknowledgment&#45;&gt;ndPartOutcome -->
<g id="edge8" class="edge"><title>ndAcknowledgment&#45;&gt;ndPartOutcome</title>
<path fill="none" stroke="black" d="M3176.96,-245.151C3165.17,-216.07 3140.87,-156.179 3122.33,-110.466"/>
<polygon fill="black" stroke="black" points="3122.26,-110.296 3116.3,-106.24 3117.75,-99.1766 3123.71,-103.233 3122.26,-110.296"/>
</g>
<!-- ndAcknowledgment&#45;&gt;ndKeyGen -->
<g id="edge9" class="edge"><title>ndAcknowledgment&#45;&gt;ndKeyGen</title>
<path fill="none" stroke="black" stroke-dasharray="5,2" d="M3179.43,-245.068C3171.04,-216.82 3150.32,-161.54 3111,-135 3064.09,-103.344 2680.2,-66.754 2543.84,-54.6336"/>
<polygon fill="black" stroke="black" points="2533.69,-53.7367 2544.05,-50.1351 2538.67,-54.1771 2543.65,-54.6176 2543.65,-54.6176 2543.65,-54.6176 2538.67,-54.1771 2543.26,-59.1001 2533.69,-53.7367 2533.69,-53.7367"/>
</g>
<!-- ndProposalState -->
<g id="node8" class="node"><title>ndProposalState</title>
<text text-anchor="middle" x="2054" y="-537.3" font-family="Times,serif" font-size="14.00">ndProposalState</text>
</g>
<!-- ndPhase -->
<g id="node10" class="node"><title>ndPhase</title>
<g id="a_node10_5"><a xlink:href="https://github.com/maidsafe/bls_dkg/blob/master/src/key_gen/mod.rs#:~:text=enum%20Phase" xlink:title="&lt;TABLE&gt;">
<polygon fill="yellow" stroke="none" points="2605,-300.5 2605,-337.5 2709,-337.5 2709,-300.5 2605,-300.5"/>
<polygon fill="none" stroke="black" points="2605,-300.5 2605,-337.5 2709,-337.5 2709,-300.5 2605,-300.5"/>
<text text-anchor="start" x="2635" y="-316.3" font-family="Arial" font-weight="bold" font-size="14.00">Phase</text>
<polygon fill="white" stroke="none" points="2605,-188.5 2605,-300.5 2709,-300.5 2709,-188.5 2605,-188.5"/>
<polygon fill="none" stroke="black" points="2605,-188.5 2605,-300.5 2709,-300.5 2709,-188.5 2605,-188.5"/>
<text text-anchor="start" x="2616" y="-278.3" font-family="Arial" font-size="14.00">Initialization</text>
<text text-anchor="start" x="2616" y="-263.3" font-family="Arial" font-size="14.00">Contribution</text>
<text text-anchor="start" x="2616" y="-248.3" font-family="Arial" font-size="14.00">Complaining</text>
<text text-anchor="start" x="2616" y="-233.3" font-family="Arial" font-size="14.00">Justification</text>
<text text-anchor="start" x="2616" y="-218.3" font-family="Arial" font-size="14.00">Commitment</text>
<text text-anchor="start" x="2616" y="-203.3" font-family="Arial" font-size="14.00">Finalization</text>
<polygon fill="none" stroke="black" points="2604,-188 2604,-339 2710,-339 2710,-188 2604,-188"/>
</a>
</g>
</g>
<!-- ndPhase&#45;&gt;ndKeyGen -->
<g id="edge10" class="edge"><title>ndPhase&#45;&gt;ndKeyGen</title>
<path fill="none" stroke="black" stroke-dasharray="5,2" d="M2618.97,-183.817C2609.48,-167.063 2598.65,-149.935 2587,-135 2569.61,-112.704 2546.16,-91.0762 2527.42,-75.2835"/>
<polygon fill="black" stroke="black" points="2527.35,-75.2296 2520.18,-74.4899 2518.1,-67.5842 2525.28,-68.3238 2527.35,-75.2296"/>
</g>
<!-- ndInitializationAccumulator -->
<g id="node11" class="node"><title>ndInitializationAccumulator</title>
<text text-anchor="middle" x="2821" y="-259.8" font-family="Times,serif" font-size="14.00">ndInitializationAccumulator</text>
</g>
<!-- ndInitializationAccumulator&#45;&gt;ndKeyGen -->
<g id="edge11" class="edge"><title>ndInitializationAccumulator&#45;&gt;ndKeyGen</title>
<path fill="none" stroke="black" d="M2812.49,-245.118C2798.34,-217.935 2767.49,-165.344 2727,-135 2672.18,-93.9233 2595.37,-71.1472 2545.64,-59.8651"/>
<polygon fill="black" stroke="black" points="2545.34,-59.7988 2538.63,-62.4275 2533.62,-57.2402 2540.33,-54.6115 2545.34,-59.7988"/>
</g>
<!-- ndComplaintsAccumulator -->
<g id="node12" class="node"><title>ndComplaintsAccumulator</title>
<text text-anchor="middle" x="82" y="-259.8" font-family="Times,serif" font-size="14.00">ndComplaintsAccumulator</text>
</g>
<!-- ndComplaintsAccumulator&#45;&gt;ndKeyGen -->
<g id="edge12" class="edge"><title>ndComplaintsAccumulator&#45;&gt;ndKeyGen</title>
<path fill="none" stroke="black" d="M88.321,-245.419C100.005,-216.631 127.977,-159.226 173,-135 276.511,-79.3035 2116.13,-54.9916 2445.67,-51.0744"/>
<polygon fill="black" stroke="black" points="2446.07,-51.0699 2452.02,-46.9994 2458.07,-50.9283 2452.11,-54.9988 2446.07,-51.0699"/>
</g>
<!-- ndAcknowledgmentFault -->
<g id="node14" class="node"><title>ndAcknowledgmentFault</title>
<g id="a_node14_6"><a xlink:href="https://github.com/maidsafe/bls_dkg/blob/master/src/key_gen/mod.rs#:~:text=enum%20AcknowledgmentFault" xlink:title="&lt;TABLE&gt;">
<polygon fill="yellow" stroke="none" points="192,-293.5 192,-330.5 369,-330.5 369,-293.5 192,-293.5"/>
<polygon fill="none" stroke="black" points="192,-293.5 192,-330.5 369,-330.5 369,-293.5 192,-293.5"/>
<text text-anchor="start" x="203" y="-309.3" font-family="Arial" font-weight="bold" font-size="14.00">AcknowledgmentFault</text>
<polygon fill="white" stroke="none" points="192,-196.5 192,-293.5 369,-293.5 369,-196.5 192,-196.5"/>
<polygon fill="none" stroke="black" points="192,-196.5 192,-293.5 369,-293.5 369,-196.5 192,-196.5"/>
<text text-anchor="start" x="203" y="-271.3" font-family="Arial" font-size="14.00">ValueCount</text>
<text text-anchor="start" x="203" y="-256.3" font-family="Arial" font-size="14.00">MissingPart</text>
<text text-anchor="start" x="203" y="-241.3" font-family="Arial" font-size="14.00">DecryptValue</text>
<text text-anchor="start" x="203" y="-226.3" font-family="Arial" font-size="14.00">DeserializeValue</text>
<text text-anchor="start" x="203" y="-211.3" font-family="Arial" font-size="14.00">ValueAcknowledgment</text>
<polygon fill="none" stroke="black" points="190.5,-195.5 190.5,-331.5 369.5,-331.5 369.5,-195.5 190.5,-195.5"/>
</a>
</g>
</g>
<!-- ndAcknowledgmentFault&#45;&gt;ndKeyGen -->
<g id="edge13" class="edge"><title>ndAcknowledgmentFault&#45;&gt;ndKeyGen</title>
<path fill="none" stroke="black" d="M322.653,-191.344C339.719,-169.309 361.449,-147.543 387,-135 482.546,-88.0988 2142.26,-56.7212 2447.85,-51.3282"/>
<polygon fill="black" stroke="black" points="2458.15,-51.1473 2448.23,-55.8224 2453.15,-51.2352 2448.15,-51.323 2448.15,-51.323 2448.15,-51.323 2453.15,-51.2352 2448.07,-46.8237 2458.15,-51.1473 2458.15,-51.1473"/>
</g>
<!-- ndPartFault -->
<g id="node15" class="node"><title>ndPartFault</title>
<g id="a_node15_7"><a xlink:href="https://github.com/maidsafe/bls_dkg/blob/master/src/key_gen/mod.rs#:~:text=enum%20PartFault" xlink:title="&lt;TABLE&gt;">
<polygon fill="yellow" stroke="none" points="2933,-293.5 2933,-330.5 3093,-330.5 3093,-293.5 2933,-293.5"/>
<polygon fill="none" stroke="black" points="2933,-293.5 2933,-330.5 3093,-330.5 3093,-293.5 2933,-293.5"/>
<text text-anchor="start" x="2981" y="-309.3" font-family="Arial" font-weight="bold" font-size="14.00">PartFault</text>
<polygon fill="white" stroke="none" points="2933,-196.5 2933,-293.5 3093,-293.5 3093,-196.5 2933,-196.5"/>
<polygon fill="none" stroke="black" points="2933,-196.5 2933,-293.5 3093,-293.5 3093,-196.5 2933,-196.5"/>
<text text-anchor="start" x="2944" y="-271.3" font-family="Arial" font-size="14.00">RowCount</text>
<text text-anchor="start" x="2944" y="-256.3" font-family="Arial" font-size="14.00">MultipleParts</text>
<text text-anchor="start" x="2944" y="-241.3" font-family="Arial" font-size="14.00">DecryptRow</text>
<text text-anchor="start" x="2944" y="-226.3" font-family="Arial" font-size="14.00">DeserializeRow</text>
<text text-anchor="start" x="2944" y="-211.3" font-family="Arial" font-size="14.00">RowAcknowledgment</text>
<polygon fill="none" stroke="black" points="2932,-195.5 2932,-331.5 3094,-331.5 3094,-195.5 2932,-195.5"/>
</a>
</g>
</g>
<!-- ndPartFault&#45;&gt;ndPartOutcome -->
<g id="edge14" class="edge"><title>ndPartFault&#45;&gt;ndPartOutcome</title>
<path fill="none" stroke="black" d="M3041.54,-191.317C3052.08,-165.03 3063.91,-135.53 3074,-110.347"/>
<polygon fill="black" stroke="black" points="3074.05,-110.246 3072.57,-103.188 3078.51,-99.108 3079.99,-106.166 3074.05,-110.246"/>
</g>
<!-- ndPartFault&#45;&gt;ndKeyGen -->
<g id="edge15" class="edge"><title>ndPartFault&#45;&gt;ndKeyGen</title>
<path fill="none" stroke="black" d="M2972.18,-191.286C2956.81,-170.201 2937.51,-149.026 2915,-135 2796.47,-61.1418 2625.76,-50.2099 2543.66,-49.5999"/>
<polygon fill="black" stroke="black" points="2533.62,-49.5742 2543.63,-45.0999 2538.62,-49.587 2543.62,-49.5999 2543.62,-49.5999 2543.62,-49.5999 2538.62,-49.587 2543.61,-54.0999 2533.62,-49.5742 2533.62,-49.5742"/>
</g>
<!-- ndRngAdapter -->
<g id="node16" class="node"><title>ndRngAdapter</title>
<text text-anchor="middle" x="2853" y="-537.3" font-family="Times,serif" font-size="14.00">ndRngAdapter</text>
</g>
<!-- ndMessage -->
<g id="node17" class="node"><title>ndMessage</title>
<g id="a_node17_8"><a xlink:href="https://github.com/maidsafe/bls_dkg/blob/master/src/key_gen/message.rs#:~:text=enum%20Message" xlink:title="&lt;TABLE&gt;">
<polygon fill="yellow" stroke="none" points="405,-326.5 405,-363.5 785,-363.5 785,-326.5 405,-326.5"/>
<polygon fill="none" stroke="black" points="405,-326.5 405,-363.5 785,-363.5 785,-326.5 405,-326.5"/>
<text text-anchor="start" x="563" y="-342.3" font-family="Arial" font-weight="bold" font-size="14.00">Message</text>
<polygon fill="white" stroke="none" points="405,-229.5 405,-326.5 785,-326.5 785,-229.5 405,-229.5"/>
<polygon fill="none" stroke="black" points="405,-229.5 405,-326.5 785,-326.5 785,-229.5 405,-229.5"/>
<text text-anchor="start" x="416" y="-304.3" font-family="Arial" font-size="14.00">Initialization</text>
<text text-anchor="start" x="416" y="-289.3" font-family="Arial" font-size="14.00">Proposal</text>
<text text-anchor="start" x="416" y="-274.3" font-family="Arial" font-size="14.00">Complaint</text>
<text text-anchor="start" x="416" y="-259.3" font-family="Arial" font-size="14.00">Justification</text>
<text text-anchor="start" x="416" y="-244.3" font-family="Arial" font-size="14.00">Acknowledgment</text>
<polygon fill="white" stroke="none" points="405,-162.5 405,-229.5 785,-229.5 785,-162.5 405,-162.5"/>
<polygon fill="none" stroke="black" points="405,-162.5 405,-229.5 785,-229.5 785,-162.5 405,-162.5"/>
<text text-anchor="start" x="416" y="-207.3" font-family="Arial" font-size="14.00">&#45; creator(&amp;self) &#45;&gt; u64</text>
<text text-anchor="start" x="416" y="-192.3" font-family="Arial" font-size="14.00">&#45; id(&amp;self) &#45;&gt; XorName</text>
<text text-anchor="start" x="416" y="-177.3" font-family="Arial" font-size="14.00">&#45; fmt(&amp;self, formatter: &amp;mut fmt::Formatter) &#45;&gt; fmt::Result</text>
<polygon fill="none" stroke="black" points="404,-162 404,-365 786,-365 786,-162 404,-162"/>
</a>
</g>
</g>
<!-- ndMessage&#45;&gt;ndKeyGen -->
<g id="edge16" class="edge"><title>ndMessage&#45;&gt;ndKeyGen</title>
<path fill="none" stroke="black" stroke-dasharray="5,2" d="M746.807,-157.928C765.138,-148.815 784.083,-140.85 803,-135 963.442,-85.3887 2183.76,-57.0685 2446.33,-51.5138"/>
<polygon fill="black" stroke="black" points="2446.45,-51.5113 2452.37,-47.3862 2458.45,-51.2592 2452.54,-55.3844 2446.45,-51.5113"/>
</g>
<!-- ndPeerId -->
<g id="node18" class="node"><title>ndPeerId</title>
<g id="a_node18_9"><a xlink:href="https://github.com/maidsafe/bls_dkg/blob/master/src/dev_utils/peer.rs#:~:text=struct%20PeerId" xlink:title="&lt;TABLE&gt;">
<polygon fill="lightblue" stroke="none" points="3275,-349.5 3275,-386.5 3885,-386.5 3885,-349.5 3275,-349.5"/>
<polygon fill="none" stroke="black" points="3275,-349.5 3275,-386.5 3885,-386.5 3885,-349.5 3275,-349.5"/>
<text text-anchor="start" x="3286" y="-365.3" font-family="Arial" font-weight="bold" font-size="14.00">pub struct PeerId { &#160;&#160;&#160;id: XorName, &#160;&#160;&#160;public_key: PublicKey, &#160;&#160;&#160;secret_key: SecretKey,}</text>
<polygon fill="white" stroke="none" points="3275,-282.5 3275,-349.5 3885,-349.5 3885,-282.5 3275,-282.5"/>
<polygon fill="none" stroke="black" points="3275,-282.5 3275,-349.5 3885,-349.5 3885,-282.5 3275,-282.5"/>
<text text-anchor="start" x="3286" y="-327.3" font-family="Arial" font-size="14.00">&#45; id: XorName</text>
<text text-anchor="start" x="3286" y="-312.3" font-family="Arial" font-size="14.00">&#45; public_key: PublicKey</text>
<text text-anchor="start" x="3286" y="-297.3" font-family="Arial" font-size="14.00">&#45; secret_key: SecretKey</text>
<polygon fill="white" stroke="none" points="3275,-139.5 3275,-282.5 3885,-282.5 3885,-139.5 3275,-139.5"/>
<polygon fill="none" stroke="black" points="3275,-139.5 3275,-282.5 3885,-282.5 3885,-139.5 3275,-139.5"/>
<text text-anchor="start" x="3286" y="-260.3" font-family="Arial" font-size="14.00">&#45; new() &#45;&gt; Self</text>
<text text-anchor="start" x="3286" y="-245.3" font-family="Arial" font-size="14.00">&#45; name(&amp;self) &#45;&gt; XorName</text>
<text text-anchor="start" x="3286" y="-230.3" font-family="Arial" font-size="14.00">&#45; fmt(&amp;self, formatter: &amp;mut Formatter) &#45;&gt; fmt::Result</text>
<text text-anchor="start" x="3286" y="-215.3" font-family="Arial" font-size="14.00">&#45; hash(&amp;self, state: &amp;mut H)</text>
<text text-anchor="start" x="3286" y="-200.3" font-family="Arial" font-size="14.00">&#45; eq(&amp;self, other: &amp;PeerId) &#45;&gt; bool</text>
<text text-anchor="start" x="3286" y="-168.5" font-family="Arial" font-size="14.00">&#45; partial_cmp(&amp;self, other: &amp;PeerId) &#45;&gt; Option&lt;Ordering&gt;</text>
<text text-anchor="start" x="3286" y="-153.5" font-family="Arial" font-size="14.00">&#45; cmp(&amp;self, other: &amp;PeerId) &#45;&gt; Ordering</text>
<polygon fill="none" stroke="black" points="3274,-139 3274,-388 3886,-388 3886,-139 3274,-139"/>
</a>
</g>
</g>
<!-- ndPublicKey -->
<g id="node19" class="node"><title>ndPublicKey</title>
<g id="a_node19_10"><a xlink:href="https://github.com/maidsafe/bls_dkg/blob/master/src/dev_utils/peer.rs#:~:text=struct%20PublicKey" xlink:title="&lt;TABLE&gt;">
<polygon fill="lightblue" stroke="none" points="3247,-541 3247,-578 3562,-578 3562,-541 3247,-541"/>
<polygon fill="none" stroke="black" points="3247,-541 3247,-578 3562,-578 3562,-541 3247,-541"/>
<text text-anchor="start" x="3258" y="-556.8" font-family="Arial" font-weight="bold" font-size="14.00">pub struct PublicKey([u8; KEY_LENGTH]);</text>
<polygon fill="white" stroke="none" points="3247,-504 3247,-541 3562,-541 3562,-504 3247,-504"/>
<polygon fill="none" stroke="black" points="3247,-504 3247,-541 3562,-541 3562,-504 3247,-504"/>
<text text-anchor="start" x="3258" y="-518.8" font-family="Arial" font-size="14.00">&#45; [u8; KEY_LENGTH]</text>
<polygon fill="none" stroke="black" points="3245.5,-503 3245.5,-579 3562.5,-579 3562.5,-503 3245.5,-503"/>
</a>
</g>
</g>
<!-- ndPublicKey&#45;&gt;ndPeerId -->
<g id="edge17" class="edge"><title>ndPublicKey&#45;&gt;ndPeerId</title>
<path fill="none" stroke="black" d="M3430.35,-498.755C3446.93,-472.797 3469.38,-437.65 3491.85,-402.484"/>
<polygon fill="black" stroke="black" points="3492.04,-402.19 3491.9,-394.981 3498.5,-392.078 3498.64,-399.287 3492.04,-402.19"/>
</g>
<!-- ndSecretKey -->
<g id="node20" class="node"><title>ndSecretKey</title>
<g id="a_node20_11"><a xlink:href="https://github.com/maidsafe/bls_dkg/blob/master/src/dev_utils/peer.rs#:~:text=struct%20SecretKey" xlink:title="&lt;TABLE&gt;">
<polygon fill="lightblue" stroke="none" points="3598,-541 3598,-578 3915,-578 3915,-541 3598,-541"/>
<polygon fill="none" stroke="black" points="3598,-541 3598,-578 3915,-578 3915,-541 3598,-541"/>
<text text-anchor="start" x="3609" y="-556.8" font-family="Arial" font-weight="bold" font-size="14.00">pub struct SecretKey([u8; KEY_LENGTH]);</text>
<polygon fill="white" stroke="none" points="3598,-504 3598,-541 3915,-541 3915,-504 3598,-504"/>
<polygon fill="none" stroke="black" points="3598,-504 3598,-541 3915,-541 3915,-504 3598,-504"/>
<text text-anchor="start" x="3609" y="-518.8" font-family="Arial" font-size="14.00">&#45; [u8; KEY_LENGTH]</text>
<polygon fill="none" stroke="black" points="3596.5,-503 3596.5,-579 3915.5,-579 3915.5,-503 3596.5,-503"/>
</a>
</g>
</g>
<!-- ndSecretKey&#45;&gt;ndPeerId -->
<g id="edge18" class="edge"><title>ndSecretKey&#45;&gt;ndPeerId</title>
<path fill="none" stroke="black" d="M3729.65,-498.755C3713.07,-472.797 3690.62,-437.65 3668.15,-402.484"/>
<polygon fill="black" stroke="black" points="3667.96,-402.19 3661.36,-399.287 3661.5,-392.078 3668.1,-394.981 3667.96,-402.19"/>
</g>
<!-- ndSignature -->
<g id="node21" class="node"><title>ndSignature</title>
<g id="a_node21_12"><a xlink:href="https://github.com/maidsafe/bls_dkg/blob/master/src/dev_utils/peer.rs#:~:text=struct%20Signature" xlink:title="&lt;TABLE&gt;">
<polygon fill="lightblue" stroke="none" points="3951,-559 3951,-596 4316,-596 4316,-559 3951,-559"/>
<polygon fill="none" stroke="black" points="3951,-559 3951,-596 4316,-596 4316,-559 3951,-559"/>
<text text-anchor="start" x="3962" y="-574.8" font-family="Arial" font-weight="bold" font-size="14.00">pub struct Signature([u8; SIGNATURE_LENGTH]);</text>
<polygon fill="white" stroke="none" points="3951,-522 3951,-559 4316,-559 4316,-522 3951,-522"/>
<polygon fill="none" stroke="black" points="3951,-522 3951,-559 4316,-559 4316,-522 3951,-522"/>
<text text-anchor="start" x="3962" y="-536.8" font-family="Arial" font-size="14.00">&#45; [u8; SIGNATURE_LENGTH]</text>
<polygon fill="white" stroke="none" points="3951,-485 3951,-522 4316,-522 4316,-485 3951,-485"/>
<polygon fill="none" stroke="black" points="3951,-485 3951,-522 4316,-522 4316,-485 3951,-485"/>
<text text-anchor="start" x="3962" y="-499.8" font-family="Arial" font-size="14.00">&#45; fmt(&amp;self, formatter: &amp;mut Formatter) &#45;&gt; fmt::Result</text>
<polygon fill="none" stroke="black" points="3949.5,-484.5 3949.5,-597.5 4316.5,-597.5 4316.5,-484.5 3949.5,-484.5"/>
</a>
</g>
</g>
</g>
</svg>
