<?xml version="1.0" encoding="UTF-8" standalone="no"?>
<!DOCTYPE svg PUBLIC "-//W3C//DTD SVG 1.1//EN"
 "http://www.w3.org/Graphics/SVG/1.1/DTD/svg11.dtd">
<!-- Generated by graphviz version 2.38.0 (20140413.2041)
 -->
<!-- Title: ml Pages: 1 -->
<svg width="320pt" height="138pt"
 viewBox="0.00 0.00 320.00 138.00" xmlns="http://www.w3.org/2000/svg" xmlns:xlink="http://www.w3.org/1999/xlink">
<g id="graph0" class="graph" transform="scale(1 1) rotate(0) translate(4 134)">
<title>ml</title>
<polygon fill="white" stroke="none" points="-4,4 -4,-134 316,-134 316,4 -4,4"/>
<!-- ndSignatureAggregator -->
<g id="node1" class="node"><title>ndSignatureAggregator</title>
<polygon fill="lightblue" stroke="none" points="39.5,-4.5 39.5,-41.5 208.5,-41.5 208.5,-4.5 39.5,-4.5"/>
<polygon fill="none" stroke="black" points="39.5,-4.5 39.5,-41.5 208.5,-41.5 208.5,-4.5 39.5,-4.5"/>
<text text-anchor="start" x="50.5" y="-20.3" font-family="Arial" font-weight="bold" font-size="14.00">SignatureAggregator</text>
<polygon fill="none" stroke="black" points="38,-4 38,-43 209,-43 209,-4 38,-4"/>
</g>
<!-- ndError -->
<g id="node2" class="node"><title>ndError</title>
<polygon fill="yellow" stroke="none" points="244.5,-87.5 244.5,-124.5 303.5,-124.5 303.5,-87.5 244.5,-87.5"/>
<polygon fill="none" stroke="black" points="244.5,-87.5 244.5,-124.5 303.5,-124.5 303.5,-87.5 244.5,-87.5"/>
<text text-anchor="start" x="255.5" y="-103.3" font-family="Arial" font-weight="bold" font-size="14.00">Error</text>
<polygon fill="none" stroke="black" points="243,-87 243,-126 304,-126 304,-87 243,-87"/>
</g>
<!-- ndError&#45;&gt;ndSignatureAggregator -->
<g id="edge1" class="edge"><title>ndError&#45;&gt;ndSignatureAggregator</title>
<path fill="none" stroke="black" d="M234.871,-84.6405C216.429,-74.6815 194.115,-62.6319 174.318,-51.9416"/>
<polygon fill="black" stroke="black" points="165.422,-47.1379 176.359,-47.9299 169.822,-49.5137 174.221,-51.8894 174.221,-51.8894 174.221,-51.8894 169.822,-49.5137 172.083,-55.849 165.422,-47.1379 165.422,-47.1379"/>
</g>
<!-- ndState -->
<g id="node3" class="node"><title>ndState</title>
<polygon fill="lightblue" stroke="none" points="244.5,-4.5 244.5,-41.5 302.5,-41.5 302.5,-4.5 244.5,-4.5"/>
<polygon fill="none" stroke="black" points="244.5,-4.5 244.5,-41.5 302.5,-41.5 302.5,-4.5 244.5,-4.5"/>
<text text-anchor="start" x="255.5" y="-20.3" font-family="Arial" font-weight="bold" font-size="14.00">State</text>
<polygon fill="none" stroke="black" points="243.5,-4 243.5,-43 303.5,-43 303.5,-4 243.5,-4"/>
</g>
<!-- ndError&#45;&gt;ndState -->
<g id="edge2" class="edge"><title>ndError&#45;&gt;ndState</title>
<path fill="none" stroke="black" d="M273.5,-82.937C273.5,-75.0164 273.5,-65.9488 273.5,-57.3574"/>
<polygon fill="black" stroke="black" points="273.5,-47.2229 278,-57.2229 273.5,-52.2229 273.5,-57.2229 273.5,-57.2229 273.5,-57.2229 273.5,-52.2229 269,-57.223 273.5,-47.2229 273.5,-47.2229"/>
</g>
<!-- ndProof -->
<g id="node4" class="node"><title>ndProof</title>
<polygon fill="lightblue" stroke="none" points="9.5,-87.5 9.5,-124.5 70.5,-124.5 70.5,-87.5 9.5,-87.5"/>
<polygon fill="none" stroke="black" points="9.5,-87.5 9.5,-124.5 70.5,-124.5 70.5,-87.5 9.5,-87.5"/>
<text text-anchor="start" x="20.5" y="-103.3" font-family="Arial" font-weight="bold" font-size="14.00">Proof</text>
<polygon fill="none" stroke="black" points="8,-87 8,-126 71,-126 71,-87 8,-87"/>
</g>
<!-- ndProof&#45;&gt;ndSignatureAggregator -->
<g id="edge3" class="edge"><title>ndProof&#45;&gt;ndSignatureAggregator</title>
<path fill="none" stroke="black" d="M62.8987,-82.937C72.1055,-74.059 82.8068,-63.7399 92.632,-54.2655"/>
<polygon fill="black" stroke="black" points="99.9355,-47.2229 95.8606,-57.4036 96.3362,-50.6936 92.737,-54.1643 92.737,-54.1643 92.737,-54.1643 96.3362,-50.6936 89.6134,-50.925 99.9355,-47.2229 99.9355,-47.2229"/>
</g>
<!-- ndProofShare -->
<g id="node5" class="node"><title>ndProofShare</title>
<polygon fill="lightblue" stroke="none" points="105.5,-87.5 105.5,-124.5 207.5,-124.5 207.5,-87.5 105.5,-87.5"/>
<polygon fill="none" stroke="black" points="105.5,-87.5 105.5,-124.5 207.5,-124.5 207.5,-87.5 105.5,-87.5"/>
<text text-anchor="start" x="116.5" y="-103.3" font-family="Arial" font-weight="bold" font-size="14.00">ProofShare</text>
<polygon fill="none" stroke="black" points="104.5,-87 104.5,-126 208.5,-126 208.5,-87 104.5,-87"/>
</g>
<!-- ndProofShare&#45;&gt;ndSignatureAggregator -->
<g id="edge4" class="edge"><title>ndProofShare&#45;&gt;ndSignatureAggregator</title>
<path fill="none" stroke="black" stroke-dasharray="5,2" d="M147.308,-82.937C143.974,-74.7553 140.142,-65.3497 136.541,-56.5093"/>
<polygon fill="black" stroke="black" points="132.757,-47.2229 140.698,-54.786 134.644,-51.8534 136.531,-56.4839 136.531,-56.4839 136.531,-56.4839 134.644,-51.8534 132.363,-58.1817 132.757,-47.2229 132.757,-47.2229"/>
</g>
<!-- ndProofShare&#45;&gt;ndState -->
<g id="edge5" class="edge"><title>ndProofShare&#45;&gt;ndState</title>
<path fill="none" stroke="black" stroke-dasharray="5,2" d="M189.091,-82.937C202.418,-73.7108 217.992,-62.9283 232.11,-53.1549"/>
<polygon fill="black" stroke="black" points="240.678,-47.2229 235.017,-56.615 236.567,-50.069 232.456,-52.9151 232.456,-52.9151 232.456,-52.9151 236.567,-50.069 229.895,-49.2152 240.678,-47.2229 240.678,-47.2229"/>
</g>
</g>
</svg>
