<?xml version="1.0" encoding="UTF-8" standalone="no"?>
<!DOCTYPE svg PUBLIC "-//W3C//DTD SVG 1.1//EN"
 "http://www.w3.org/Graphics/SVG/1.1/DTD/svg11.dtd">
<!-- Generated by graphviz version 2.38.0 (20140413.2041)
 -->
<!-- Title: ml Pages: 1 -->
<svg width="1396pt" height="221pt"
 viewBox="0.00 0.00 1396.00 221.00" xmlns="http://www.w3.org/2000/svg" xmlns:xlink="http://www.w3.org/1999/xlink">
<g id="graph0" class="graph" transform="scale(1 1) rotate(0) translate(4 217)">
<title>ml</title>
<polygon fill="white" stroke="none" points="-4,4 -4,-217 1392,-217 1392,4 -4,4"/>
<!-- ndEncryptor -->
<g id="node1" class="node"><title>ndEncryptor</title>
<polygon fill="lightblue" stroke="none" points="131,-87.5 131,-124.5 223,-124.5 223,-87.5 131,-87.5"/>
<polygon fill="none" stroke="black" points="131,-87.5 131,-124.5 223,-124.5 223,-87.5 131,-87.5"/>
<text text-anchor="start" x="142" y="-103.3" font-family="Arial" font-weight="bold" font-size="14.00">Encryptor</text>
<polygon fill="none" stroke="black" points="130,-87 130,-126 224,-126 224,-87 130,-87"/>
</g>
<!-- ndKeyGen -->
<g id="node10" class="node"><title>ndKeyGen</title>
<polygon fill="lightblue" stroke="none" points="462,-4.5 462,-41.5 540,-41.5 540,-4.5 462,-4.5"/>
<polygon fill="none" stroke="black" points="462,-4.5 462,-41.5 540,-41.5 540,-4.5 462,-4.5"/>
<text text-anchor="start" x="473" y="-20.3" font-family="Arial" font-weight="bold" font-size="14.00">KeyGen</text>
<polygon fill="none" stroke="black" points="461,-4 461,-43 541,-43 541,-4 461,-4"/>
</g>
<!-- ndEncryptor&#45;&gt;ndKeyGen -->
<g id="edge1" class="edge"><title>ndEncryptor&#45;&gt;ndKeyGen</title>
<path fill="none" stroke="black" d="M232.229,-87.0078C236.872,-85.6003 241.507,-84.2451 246,-83 312.051,-64.694 388.837,-47.6426 440.751,-36.7275"/>
<polygon fill="black" stroke="black" points="440.993,-36.6772 446.048,-31.5347 452.739,-34.2232 447.684,-39.3656 440.993,-36.6772"/>
</g>
<!-- ndOutcome -->
<g id="node2" class="node"><title>ndOutcome</title>
<polygon fill="lightblue" stroke="none" points="9,-87.5 9,-124.5 95,-124.5 95,-87.5 9,-87.5"/>
<polygon fill="none" stroke="black" points="9,-87.5 9,-124.5 95,-124.5 95,-87.5 9,-87.5"/>
<text text-anchor="start" x="20" y="-103.3" font-family="Arial" font-weight="bold" font-size="14.00">Outcome</text>
<polygon fill="none" stroke="black" points="8,-87 8,-126 96,-126 96,-87 8,-87"/>
</g>
<!-- ndOutcome&#45;&gt;ndKeyGen -->
<g id="edge2" class="edge"><title>ndOutcome&#45;&gt;ndKeyGen</title>
<path fill="none" stroke="black" d="M104.022,-85.5188C107.041,-84.6072 110.048,-83.7585 113,-83 227.845,-53.4906 365.892,-37.0649 442.496,-29.5734"/>
<polygon fill="black" stroke="black" points="452.888,-28.5751 443.364,-34.0107 447.911,-29.0532 442.934,-29.5314 442.934,-29.5314 442.934,-29.5314 447.911,-29.0532 442.504,-25.052 452.888,-28.5751 452.888,-28.5751"/>
</g>
<!-- ndError -->
<g id="node3" class="node"><title>ndError</title>
<polygon fill="yellow" stroke="none" points="189,-170.5 189,-207.5 248,-207.5 248,-170.5 189,-170.5"/>
<polygon fill="none" stroke="black" points="189,-170.5 189,-207.5 248,-207.5 248,-170.5 189,-170.5"/>
<text text-anchor="start" x="200" y="-186.3" font-family="Arial" font-weight="bold" font-size="14.00">Error</text>
<polygon fill="none" stroke="black" points="187.5,-170 187.5,-209 248.5,-209 248.5,-170 187.5,-170"/>
</g>
<!-- ndError&#45;&gt;ndEncryptor -->
<g id="edge3" class="edge"><title>ndError&#45;&gt;ndEncryptor</title>
<path fill="none" stroke="black" d="M206.579,-165.937C202.394,-157.668 197.576,-148.149 193.06,-139.227"/>
<polygon fill="black" stroke="black" points="188.502,-130.223 197.033,-137.113 190.76,-134.684 193.018,-139.145 193.018,-139.145 193.018,-139.145 190.76,-134.684 189.003,-141.177 188.502,-130.223 188.502,-130.223"/>
</g>
<!-- ndError&#45;&gt;ndKeyGen -->
<g id="edge4" class="edge"><title>ndError&#45;&gt;ndKeyGen</title>
<path fill="none" stroke="black" d="M225.287,-165.576C234.144,-141.432 251.422,-104.057 279,-83 326.468,-46.7563 394.425,-32.8988 442.624,-27.6385"/>
<polygon fill="black" stroke="black" points="452.594,-26.6415 443.092,-32.1142 447.619,-27.139 442.644,-27.6365 442.644,-27.6365 442.644,-27.6365 447.619,-27.139 442.196,-23.1589 452.594,-26.6415 452.594,-26.6415"/>
</g>
<!-- ndPart -->
<g id="node4" class="node"><title>ndPart</title>
<polygon fill="lightblue" stroke="none" points="298,-87.5 298,-124.5 349,-124.5 349,-87.5 298,-87.5"/>
<polygon fill="none" stroke="black" points="298,-87.5 298,-124.5 349,-124.5 349,-87.5 298,-87.5"/>
<text text-anchor="start" x="309" y="-103.3" font-family="Arial" font-weight="bold" font-size="14.00">Part</text>
<polygon fill="none" stroke="black" points="296.5,-87 296.5,-126 349.5,-126 349.5,-87 296.5,-87"/>
</g>
<!-- ndPart&#45;&gt;ndKeyGen -->
<g id="edge5" class="edge"><title>ndPart&#45;&gt;ndKeyGen</title>
<path fill="none" stroke="black" stroke-dasharray="5,2" d="M357.969,-87.375C361.012,-85.8717 364.053,-84.3951 367,-83 391.913,-71.2056 419.8,-58.8917 443.656,-48.621"/>
<polygon fill="black" stroke="black" points="452.927,-44.6449 445.51,-52.7223 448.332,-46.6158 443.737,-48.5866 443.737,-48.5866 443.737,-48.5866 448.332,-46.6158 441.963,-44.4509 452.927,-44.6449 452.927,-44.6449"/>
</g>
<!-- ndProposalState -->
<g id="node5" class="node"><title>ndProposalState</title>
<polygon fill="lightblue" stroke="none" points="284,-170.5 284,-207.5 405,-207.5 405,-170.5 284,-170.5"/>
<polygon fill="none" stroke="black" points="284,-170.5 284,-207.5 405,-207.5 405,-170.5 284,-170.5"/>
<text text-anchor="start" x="295" y="-186.3" font-family="Arial" font-weight="bold" font-size="14.00">ProposalState</text>
<polygon fill="none" stroke="black" points="282.5,-170 282.5,-209 405.5,-209 405.5,-170 282.5,-170"/>
</g>
<!-- ndPartOutcome -->
<g id="node6" class="node"><title>ndPartOutcome</title>
<polygon fill="yellow" stroke="none" points="1265,-4.5 1265,-41.5 1379,-41.5 1379,-4.5 1265,-4.5"/>
<polygon fill="none" stroke="black" points="1265,-4.5 1265,-41.5 1379,-41.5 1379,-4.5 1265,-4.5"/>
<text text-anchor="start" x="1276" y="-20.3" font-family="Arial" font-weight="bold" font-size="14.00">PartOutcome</text>
<polygon fill="none" stroke="black" points="1264,-4 1264,-43 1380,-43 1380,-4 1264,-4"/>
</g>
<!-- ndPhase -->
<g id="node7" class="node"><title>ndPhase</title>
<polygon fill="yellow" stroke="none" points="385,-87.5 385,-124.5 451,-124.5 451,-87.5 385,-87.5"/>
<polygon fill="none" stroke="black" points="385,-87.5 385,-124.5 451,-124.5 451,-87.5 385,-87.5"/>
<text text-anchor="start" x="396" y="-103.3" font-family="Arial" font-weight="bold" font-size="14.00">Phase</text>
<polygon fill="none" stroke="black" points="384,-87 384,-126 452,-126 452,-87 384,-87"/>
</g>
<!-- ndPhase&#45;&gt;ndKeyGen -->
<g id="edge6" class="edge"><title>ndPhase&#45;&gt;ndKeyGen</title>
<path fill="none" stroke="black" stroke-dasharray="5,2" d="M441.12,-82.937C449.771,-74.4942 459.758,-64.7481 469.066,-55.6646"/>
<polygon fill="black" stroke="black" points="469.128,-55.6042 470.628,-48.5508 477.716,-47.2229 476.216,-54.2763 469.128,-55.6042"/>
</g>
<!-- ndInitializationAccumulator -->
<g id="node8" class="node"><title>ndInitializationAccumulator</title>
<polygon fill="lightblue" stroke="none" points="487,-87.5 487,-124.5 681,-124.5 681,-87.5 487,-87.5"/>
<polygon fill="none" stroke="black" points="487,-87.5 487,-124.5 681,-124.5 681,-87.5 487,-87.5"/>
<text text-anchor="start" x="498" y="-103.3" font-family="Arial" font-weight="bold" font-size="14.00">InitializationAccumulator</text>
<polygon fill="none" stroke="black" points="486,-87 486,-126 682,-126 682,-87 486,-87"/>
</g>
<!-- ndInitializationAccumulator&#45;&gt;ndKeyGen -->
<g id="edge7" class="edge"><title>ndInitializationAccumulator&#45;&gt;ndKeyGen</title>
<path fill="none" stroke="black" d="M560.88,-82.937C552.229,-74.4942 542.242,-64.7481 532.934,-55.6646"/>
<polygon fill="black" stroke="black" points="532.872,-55.6042 525.784,-54.2763 524.284,-47.2229 531.372,-48.5508 532.872,-55.6042"/>
</g>
<!-- ndComplaintsAccumulator -->
<g id="node9" class="node"><title>ndComplaintsAccumulator</title>
<polygon fill="lightblue" stroke="none" points="717,-87.5 717,-124.5 907,-124.5 907,-87.5 717,-87.5"/>
<polygon fill="none" stroke="black" points="717,-87.5 717,-124.5 907,-124.5 907,-87.5 717,-87.5"/>
<text text-anchor="start" x="728" y="-103.3" font-family="Arial" font-weight="bold" font-size="14.00">ComplaintsAccumulator</text>
<polygon fill="none" stroke="black" points="716,-87 716,-126 908,-126 908,-87 716,-87"/>
</g>
<!-- ndComplaintsAccumulator&#45;&gt;ndKeyGen -->
<g id="edge8" class="edge"><title>ndComplaintsAccumulator&#45;&gt;ndKeyGen</title>
<path fill="none" stroke="black" d="M725.369,-82.937C672.957,-69.2862 607.463,-52.2284 560.792,-40.0729"/>
<polygon fill="black" stroke="black" points="560.666,-40.04 553.851,-42.3986 549.053,-37.0154 555.867,-34.6568 560.666,-40.04"/>
</g>
<!-- ndAcknowledgmentFault -->
<g id="node11" class="node"><title>ndAcknowledgmentFault</title>
<polygon fill="yellow" stroke="none" points="944,-87.5 944,-124.5 1121,-124.5 1121,-87.5 944,-87.5"/>
<polygon fill="none" stroke="black" points="944,-87.5 944,-124.5 1121,-124.5 1121,-87.5 944,-87.5"/>
<text text-anchor="start" x="955" y="-103.3" font-family="Arial" font-weight="bold" font-size="14.00">AcknowledgmentFault</text>
<polygon fill="none" stroke="black" points="942.5,-87 942.5,-126 1121.5,-126 1121.5,-87 942.5,-87"/>
</g>
<!-- ndAcknowledgmentFault&#45;&gt;ndKeyGen -->
<g id="edge9" class="edge"><title>ndAcknowledgmentFault&#45;&gt;ndKeyGen</title>
<path fill="none" stroke="black" d="M934.379,-84.6774C931.218,-84.0976 928.086,-83.5366 925,-83 794.942,-60.3822 641.206,-40.9839 559.287,-31.2288"/>
<polygon fill="black" stroke="black" points="549.178,-30.0305 559.638,-26.739 554.143,-30.6191 559.109,-31.2077 559.109,-31.2077 559.109,-31.2077 554.143,-30.6191 558.579,-35.6764 549.178,-30.0305 549.178,-30.0305"/>
</g>
<!-- ndPartFault -->
<g id="node12" class="node"><title>ndPartFault</title>
<polygon fill="yellow" stroke="none" points="1279,-87.5 1279,-124.5 1365,-124.5 1365,-87.5 1279,-87.5"/>
<polygon fill="none" stroke="black" points="1279,-87.5 1279,-124.5 1365,-124.5 1365,-87.5 1279,-87.5"/>
<text text-anchor="start" x="1290" y="-103.3" font-family="Arial" font-weight="bold" font-size="14.00">PartFault</text>
<polygon fill="none" stroke="black" points="1278,-87 1278,-126 1366,-126 1366,-87 1278,-87"/>
</g>
<!-- ndPartFault&#45;&gt;ndPartOutcome -->
<g id="edge10" class="edge"><title>ndPartFault&#45;&gt;ndPartOutcome</title>
<path fill="none" stroke="black" d="M1322,-82.937C1322,-75.6257 1322,-67.3371 1322,-59.3477"/>
<polygon fill="black" stroke="black" points="1322,-59.2229 1318,-53.223 1322,-47.2229 1326,-53.2229 1322,-59.2229"/>
</g>
<!-- ndPartFault&#45;&gt;ndKeyGen -->
<g id="edge11" class="edge"><title>ndPartFault&#45;&gt;ndKeyGen</title>
<path fill="none" stroke="black" d="M1269.7,-85.166C1266.78,-84.3577 1263.87,-83.6264 1261,-83 1127.19,-53.7665 712.894,-33.5612 559.179,-26.8967"/>
<polygon fill="black" stroke="black" points="549.002,-26.4588 559.186,-22.393 553.998,-26.6738 558.993,-26.8888 558.993,-26.8888 558.993,-26.8888 553.998,-26.6738 558.799,-31.3846 549.002,-26.4588 549.002,-26.4588"/>
</g>
<!-- ndMessage -->
<g id="node13" class="node"><title>ndMessage</title>
<polygon fill="yellow" stroke="none" points="1157,-87.5 1157,-124.5 1243,-124.5 1243,-87.5 1157,-87.5"/>
<polygon fill="none" stroke="black" points="1157,-87.5 1157,-124.5 1243,-124.5 1243,-87.5 1157,-87.5"/>
<text text-anchor="start" x="1168" y="-103.3" font-family="Arial" font-weight="bold" font-size="14.00">Message</text>
<polygon fill="none" stroke="black" points="1156,-87 1156,-126 1244,-126 1244,-87 1156,-87"/>
</g>
<!-- ndMessage&#45;&gt;ndKeyGen -->
<g id="edge12" class="edge"><title>ndMessage&#45;&gt;ndKeyGen</title>
<path fill="none" stroke="black" stroke-dasharray="5,2" d="M1147.69,-85.2167C1144.77,-84.3953 1141.86,-83.6473 1139,-83 930.646,-35.8819 675.841,-26.536 561.541,-24.8069"/>
<polygon fill="black" stroke="black" points="561.288,-24.8037 555.235,-28.723 549.289,-24.643 555.342,-20.7237 561.288,-24.8037"/>
</g>
<!-- ndPeerId -->
<g id="node14" class="node"><title>ndPeerId</title>
<polygon fill="lightblue" stroke="none" points="441,-170.5 441,-207.5 509,-207.5 509,-170.5 441,-170.5"/>
<polygon fill="none" stroke="black" points="441,-170.5 441,-207.5 509,-207.5 509,-170.5 441,-170.5"/>
<text text-anchor="start" x="452" y="-186.3" font-family="Arial" font-weight="bold" font-size="14.00">PeerId</text>
<polygon fill="none" stroke="black" points="440,-170 440,-209 510,-209 510,-170 440,-170"/>
</g>
</g>
</svg>
