<?xml version="1.0" encoding="UTF-8" standalone="no"?>
<!DOCTYPE svg PUBLIC "-//W3C//DTD SVG 1.1//EN"
 "http://www.w3.org/Graphics/SVG/1.1/DTD/svg11.dtd">
<!-- Generated by graphviz version 2.38.0 (20140413.2041)
 -->
<!-- Title: ml Pages: 1 -->
<svg width="3927pt" height="221pt"
 viewBox="0.00 0.00 3926.50 221.00" xmlns="http://www.w3.org/2000/svg" xmlns:xlink="http://www.w3.org/1999/xlink">
<g id="graph0" class="graph" transform="scale(1 1) rotate(0) translate(4 217)">
<title>ml</title>
<polygon fill="white" stroke="none" points="-4,4 -4,-217 3922.5,-217 3922.5,4 -4,4"/>
<!-- ndKey -->
<g id="node1" class="node"><title>ndKey</title>
<g id="a_node1_0"><a xlink:href="https://github.com/maidsafe/bls_dkg/blob/master/src/key_gen/encryptor.rs#:~:text=struct%20Key" xlink:title="&lt;TABLE&gt;">
<polygon fill="lightblue" stroke="none" points="276,-170.5 276,-207.5 551,-207.5 551,-170.5 276,-170.5"/>
<polygon fill="none" stroke="black" points="276,-170.5 276,-207.5 551,-207.5 551,-170.5 276,-170.5"/>
<text text-anchor="start" x="287" y="-186.3" font-family="Arial" font-weight="bold" font-size="14.00">pub struct Key(pub [u8; KEY_SIZE]);</text>
<polygon fill="none" stroke="black" points="274.5,-170 274.5,-209 551.5,-209 551.5,-170 274.5,-170"/>
</a>
</g>
</g>
<!-- ndEncryptor -->
<g id="node3" class="node"><title>ndEncryptor</title>
<text text-anchor="middle" x="560" y="-102.8" font-family="Times,serif" font-size="14.00">ndEncryptor</text>
</g>
<!-- ndKey&#45;&gt;ndEncryptor -->
<g id="edge1" class="edge"><title>ndKey&#45;&gt;ndEncryptor</title>
<path fill="none" stroke="black" d="M453.948,-165.937C474.018,-154.878 498.146,-141.583 518.315,-130.47"/>
<polygon fill="black" stroke="black" points="518.551,-130.339 521.875,-123.94 529.061,-124.548 525.736,-130.947 518.551,-130.339"/>
</g>
<!-- ndIv -->
<g id="node2" class="node"><title>ndIv</title>
<g id="a_node2_1"><a xlink:href="https://github.com/maidsafe/bls_dkg/blob/master/src/key_gen/encryptor.rs#:~:text=struct%20Iv" xlink:title="&lt;TABLE&gt;">
<polygon fill="lightblue" stroke="none" points="587,-170.5 587,-207.5 830,-207.5 830,-170.5 587,-170.5"/>
<polygon fill="none" stroke="black" points="587,-170.5 587,-207.5 830,-207.5 830,-170.5 587,-170.5"/>
<text text-anchor="start" x="598" y="-186.3" font-family="Arial" font-weight="bold" font-size="14.00">pub struct Iv(pub [u8; IV_SIZE]);</text>
<polygon fill="none" stroke="black" points="585.5,-170 585.5,-209 830.5,-209 830.5,-170 585.5,-170"/>
</a>
</g>
</g>
<!-- ndIv&#45;&gt;ndEncryptor -->
<g id="edge2" class="edge"><title>ndIv&#45;&gt;ndEncryptor</title>
<path fill="none" stroke="black" d="M666.774,-165.937C645.912,-154.519 620.696,-140.719 600.008,-129.396"/>
<polygon fill="black" stroke="black" points="591.15,-124.548 602.082,-125.402 595.536,-126.949 599.922,-129.349 599.922,-129.349 599.922,-129.349 595.536,-126.949 597.761,-133.297 591.15,-124.548 591.15,-124.548"/>
</g>
<!-- ndKeyGen -->
<g id="node13" class="node"><title>ndKeyGen</title>
<text text-anchor="middle" x="2202" y="-19.8" font-family="Times,serif" font-size="14.00">ndKeyGen</text>
</g>
<!-- ndEncryptor&#45;&gt;ndKeyGen -->
<g id="edge3" class="edge"><title>ndEncryptor&#45;&gt;ndKeyGen</title>
<path fill="none" stroke="black" d="M593.958,-88.4178C599.534,-86.2294 605.341,-84.3018 611,-83 764.059,-47.7877 1899.46,-28.9879 2152.23,-25.2137"/>
<polygon fill="black" stroke="black" points="2152.26,-25.2133 2158.2,-21.1248 2164.26,-25.0354 2158.32,-29.1239 2152.26,-25.2133"/>
</g>
<!-- ndOutcome -->
<g id="node4" class="node"><title>ndOutcome</title>
<g id="a_node4_2"><a xlink:href="https://github.com/maidsafe/bls_dkg/blob/master/src/key_gen/outcome.rs#:~:text=struct%20Outcome" xlink:title="&lt;TABLE&gt;">
<polygon fill="lightblue" stroke="none" points="630,-87.5 630,-124.5 2165,-124.5 2165,-87.5 630,-87.5"/>
<polygon fill="none" stroke="black" points="630,-87.5 630,-124.5 2165,-124.5 2165,-87.5 630,-87.5"/>
<text text-anchor="start" x="641" y="-103.3" font-family="Arial" font-weight="bold" font-size="14.00">pub struct Outcome { &#160;&#160;&#160;/// Public key set to verify threshold signatures &#160;&#160;&#160;pub public_key_set: PublicKeySet, &#160;&#160;&#160;/// Secret Key share. &#160;&#160;&#160;pub secret_key_share: SecretKeyShare, &#160;&#160;&#160;/// Our index in the group &#160;&#160;&#160;pub index: usize,}</text>
<polygon fill="none" stroke="black" points="628.5,-87 628.5,-126 2165.5,-126 2165.5,-87 628.5,-87"/>
</a>
</g>
</g>
<!-- ndOutcome&#45;&gt;ndKeyGen -->
<g id="edge4" class="edge"><title>ndOutcome&#45;&gt;ndKeyGen</title>
<path fill="none" stroke="black" d="M1620.7,-82.9908C1804.9,-64.4565 2051.8,-39.613 2154.3,-29.2994"/>
<polygon fill="black" stroke="black" points="2164.34,-28.289 2154.84,-33.7677 2159.37,-28.7896 2154.39,-29.2903 2154.39,-29.2903 2154.39,-29.2903 2159.37,-28.7896 2153.94,-24.8129 2164.34,-28.289 2164.34,-28.289"/>
</g>
<!-- ndError -->
<g id="node5" class="node"><title>ndError</title>
<g id="a_node5_3"><a xlink:href="https://github.com/maidsafe/bls_dkg/blob/master/src/key_gen/mod.rs#:~:text=enum%20Error" xlink:title="&lt;TABLE&gt;">
<polygon fill="yellow" stroke="none" points="1053,-170.5 1053,-207.5 1112,-207.5 1112,-170.5 1053,-170.5"/>
<polygon fill="none" stroke="black" points="1053,-170.5 1053,-207.5 1112,-207.5 1112,-170.5 1053,-170.5"/>
<text text-anchor="start" x="1064" y="-186.3" font-family="Arial" font-weight="bold" font-size="14.00">Error</text>
<polygon fill="none" stroke="black" points="1051.5,-170 1051.5,-209 1112.5,-209 1112.5,-170 1051.5,-170"/>
</a>
</g>
</g>
<!-- ndError&#45;&gt;ndEncryptor -->
<g id="edge5" class="edge"><title>ndError&#45;&gt;ndEncryptor</title>
<path fill="none" stroke="black" d="M1043.42,-185.169C946.083,-176.532 692.509,-152.517 611,-130 608.878,-129.414 606.73,-128.754 604.578,-128.038"/>
<polygon fill="black" stroke="black" points="595.181,-124.599 606.119,-123.811 599.877,-126.317 604.572,-128.036 604.572,-128.036 604.572,-128.036 599.877,-126.317 603.025,-132.262 595.181,-124.599 595.181,-124.599"/>
</g>
<!-- ndError&#45;&gt;ndKeyGen -->
<g id="edge6" class="edge"><title>ndError&#45;&gt;ndKeyGen</title>
<path fill="none" stroke="black" d="M1120.69,-186.434C1194.99,-182.468 1362.78,-173.514 1504,-166 1579.33,-161.992 2125.2,-179.644 2182,-130 2203.76,-110.978 2206.5,-76.296 2205.28,-51.9019"/>
<polygon fill="black" stroke="black" points="2204.52,-41.8323 2209.76,-51.4674 2204.89,-46.8183 2205.27,-51.8042 2205.27,-51.8042 2205.27,-51.8042 2204.89,-46.8183 2200.78,-52.1411 2204.52,-41.8323 2204.52,-41.8323"/>
</g>
<!-- ndPart -->
<g id="node6" class="node"><title>ndPart</title>
<text text-anchor="middle" x="2257" y="-102.8" font-family="Times,serif" font-size="14.00">ndPart</text>
</g>
<!-- ndPart&#45;&gt;ndKeyGen -->
<g id="edge7" class="edge"><title>ndPart&#45;&gt;ndKeyGen</title>
<path fill="none" stroke="black" stroke-dasharray="5,2" d="M2245.34,-88.322C2237.83,-77.2608 2227.92,-62.6788 2219.48,-50.2456"/>
<polygon fill="black" stroke="black" points="2213.65,-41.6533 2222.99,-47.3984 2216.46,-45.7898 2219.26,-49.9263 2219.26,-49.9263 2219.26,-49.9263 2216.46,-45.7898 2215.54,-52.4542 2213.65,-41.6533 2213.65,-41.6533"/>
</g>
<!-- ndAcknowledgment -->
<g id="node7" class="node"><title>ndAcknowledgment</title>
<text text-anchor="middle" x="2778" y="-102.8" font-family="Times,serif" font-size="14.00">ndAcknowledgment</text>
</g>
<!-- ndPartOutcome -->
<g id="node9" class="node"><title>ndPartOutcome</title>
<g id="a_node9_4"><a xlink:href="https://github.com/maidsafe/bls_dkg/blob/master/src/key_gen/mod.rs#:~:text=enum%20PartOutcome" xlink:title="&lt;TABLE&gt;">
<polygon fill="yellow" stroke="none" points="2654,-4.5 2654,-41.5 2768,-41.5 2768,-4.5 2654,-4.5"/>
<polygon fill="none" stroke="black" points="2654,-4.5 2654,-41.5 2768,-41.5 2768,-4.5 2654,-4.5"/>
<text text-anchor="start" x="2665" y="-20.3" font-family="Arial" font-weight="bold" font-size="14.00">PartOutcome</text>
<polygon fill="none" stroke="black" points="2653,-4 2653,-43 2769,-43 2769,-4 2653,-4"/>
</a>
</g>
</g>
<!-- ndAcknowledgment&#45;&gt;ndPartOutcome -->
<g id="edge8" class="edge"><title>ndAcknowledgment&#45;&gt;ndPartOutcome</title>
<path fill="none" stroke="black" d="M2763.79,-88.322C2756.13,-79.0552 2746.42,-67.3173 2737.42,-56.4421"/>
<polygon fill="black" stroke="black" points="2737.42,-56.4376 2730.51,-54.3638 2729.77,-47.1909 2736.68,-49.2648 2737.42,-56.4376"/>
</g>
<!-- ndAcknowledgment&#45;&gt;ndKeyGen -->
<g id="edge9" class="edge"><title>ndAcknowledgment&#45;&gt;ndKeyGen</title>
<path fill="none" stroke="black" stroke-dasharray="5,2" d="M2726.86,-88.4469C2719.58,-86.3969 2712.14,-84.5018 2705,-83 2539.9,-48.2629 2339.68,-32.7322 2249.76,-27.1327"/>
<polygon fill="black" stroke="black" points="2239.61,-26.5137 2249.86,-22.6307 2244.6,-26.818 2249.59,-27.1223 2249.59,-27.1223 2249.59,-27.1223 2244.6,-26.818 2249.32,-31.614 2239.61,-26.5137 2239.61,-26.5137"/>
</g>
<!-- ndProposalState -->
<g id="node8" class="node"><title>ndProposalState</title>
<text text-anchor="middle" x="1565" y="-185.8" font-family="Times,serif" font-size="14.00">ndProposalState</text>
</g>
<!-- ndPhase -->
<g id="node10" class="node"><title>ndPhase</title>
<g id="a_node10_5"><a xlink:href="https://github.com/maidsafe/bls_dkg/blob/master/src/key_gen/mod.rs#:~:text=enum%20Phase" xlink:title="&lt;TABLE&gt;">
<polygon fill="yellow" stroke="none" points="2311,-87.5 2311,-124.5 2377,-124.5 2377,-87.5 2311,-87.5"/>
<polygon fill="none" stroke="black" points="2311,-87.5 2311,-124.5 2377,-124.5 2377,-87.5 2311,-87.5"/>
<text text-anchor="start" x="2322" y="-103.3" font-family="Arial" font-weight="bold" font-size="14.00">Phase</text>
<polygon fill="none" stroke="black" points="2310,-87 2310,-126 2378,-126 2378,-87 2310,-87"/>
</a>
</g>
</g>
<!-- ndPhase&#45;&gt;ndKeyGen -->
<g id="edge10" class="edge"><title>ndPhase&#45;&gt;ndKeyGen</title>
<path fill="none" stroke="black" stroke-dasharray="5,2" d="M2304.45,-82.937C2285.15,-71.9291 2261.97,-58.7057 2242.54,-47.624"/>
<polygon fill="black" stroke="black" points="2242.31,-47.494 2235.12,-47.9955 2231.89,-41.5481 2239.08,-41.0466 2242.31,-47.494"/>
</g>
<!-- ndInitializationAccumulator -->
<g id="node11" class="node"><title>ndInitializationAccumulator</title>
<text text-anchor="middle" x="2489" y="-102.8" font-family="Times,serif" font-size="14.00">ndInitializationAccumulator</text>
</g>
<!-- ndInitializationAccumulator&#45;&gt;ndKeyGen -->
<g id="edge11" class="edge"><title>ndInitializationAccumulator&#45;&gt;ndKeyGen</title>
<path fill="none" stroke="black" d="M2428.49,-88.421C2375.77,-73.5418 2300.28,-52.2367 2251.2,-38.3852"/>
<polygon fill="black" stroke="black" points="2251.17,-38.3783 2244.31,-40.5981 2239.62,-35.1188 2246.49,-32.8989 2251.17,-38.3783"/>
</g>
<!-- ndComplaintsAccumulator -->
<g id="node12" class="node"><title>ndComplaintsAccumulator</title>
<text text-anchor="middle" x="82" y="-102.8" font-family="Times,serif" font-size="14.00">ndComplaintsAccumulator</text>
</g>
<!-- ndComplaintsAccumulator&#45;&gt;ndKeyGen -->
<g id="edge12" class="edge"><title>ndComplaintsAccumulator&#45;&gt;ndKeyGen</title>
<path fill="none" stroke="black" d="M143.333,-88.45C153.186,-86.2574 163.325,-84.3201 173,-83 572.78,-28.4519 1880.8,-24.6827 2152.36,-24.4946"/>
<polygon fill="black" stroke="black" points="2152.5,-24.4946 2158.5,-20.4914 2164.5,-24.4881 2158.5,-28.4914 2152.5,-24.4946"/>
</g>
<!-- ndAcknowledgmentFault -->
<g id="node14" class="node"><title>ndAcknowledgmentFault</title>
<g id="a_node14_6"><a xlink:href="https://github.com/maidsafe/bls_dkg/blob/master/src/key_gen/mod.rs#:~:text=enum%20AcknowledgmentFault" xlink:title="&lt;TABLE&gt;">
<polygon fill="yellow" stroke="none" points="192,-87.5 192,-124.5 369,-124.5 369,-87.5 192,-87.5"/>
<polygon fill="none" stroke="black" points="192,-87.5 192,-124.5 369,-124.5 369,-87.5 192,-87.5"/>
<text text-anchor="start" x="203" y="-103.3" font-family="Arial" font-weight="bold" font-size="14.00">AcknowledgmentFault</text>
<polygon fill="none" stroke="black" points="190.5,-87 190.5,-126 369.5,-126 369.5,-87 190.5,-87"/>
</a>
</g>
</g>
<!-- ndAcknowledgmentFault&#45;&gt;ndKeyGen -->
<g id="edge13" class="edge"><title>ndAcknowledgmentFault&#45;&gt;ndKeyGen</title>
<path fill="none" stroke="black" d="M377.558,-84.2508C380.737,-83.7935 383.89,-83.3741 387,-83 743.601,-40.0952 1903.23,-27.2222 2153.93,-24.9101"/>
<polygon fill="black" stroke="black" points="2164.17,-24.8169 2154.21,-29.4079 2159.17,-24.8625 2154.17,-24.908 2154.17,-24.908 2154.17,-24.908 2159.17,-24.8625 2154.13,-20.4082 2164.17,-24.8169 2164.17,-24.8169"/>
</g>
<!-- ndPartFault -->
<g id="node15" class="node"><title>ndPartFault</title>
<g id="a_node15_7"><a xlink:href="https://github.com/maidsafe/bls_dkg/blob/master/src/key_gen/mod.rs#:~:text=enum%20PartFault" xlink:title="&lt;TABLE&gt;">
<polygon fill="yellow" stroke="none" points="2601,-87.5 2601,-124.5 2687,-124.5 2687,-87.5 2601,-87.5"/>
<polygon fill="none" stroke="black" points="2601,-87.5 2601,-124.5 2687,-124.5 2687,-87.5 2601,-87.5"/>
<text text-anchor="start" x="2612" y="-103.3" font-family="Arial" font-weight="bold" font-size="14.00">PartFault</text>
<polygon fill="none" stroke="black" points="2600,-87 2600,-126 2688,-126 2688,-87 2600,-87"/>
</a>
</g>
</g>
<!-- ndPartFault&#45;&gt;ndPartOutcome -->
<g id="edge14" class="edge"><title>ndPartFault&#45;&gt;ndPartOutcome</title>
<path fill="none" stroke="black" d="M2662.66,-82.937C2669.43,-74.7553 2677.21,-65.3497 2684.52,-56.5093"/>
<polygon fill="black" stroke="black" points="2684.56,-56.4696 2685.3,-49.2968 2692.2,-47.2229 2691.46,-54.3958 2684.56,-56.4696"/>
</g>
<!-- ndPartFault&#45;&gt;ndKeyGen -->
<g id="edge15" class="edge"><title>ndPartFault&#45;&gt;ndKeyGen</title>
<path fill="none" stroke="black" d="M2591.98,-85.5284C2588.96,-84.6144 2585.95,-83.7625 2583,-83 2465.2,-52.5616 2322.56,-35.8516 2249.77,-28.7228"/>
<polygon fill="black" stroke="black" points="2239.55,-27.74 2249.93,-24.2179 2244.53,-28.2186 2249.5,-28.6972 2249.5,-28.6972 2249.5,-28.6972 2244.53,-28.2186 2249.07,-33.1765 2239.55,-27.74 2239.55,-27.74"/>
</g>
<!-- ndRngAdapter -->
<g id="node16" class="node"><title>ndRngAdapter</title>
<text text-anchor="middle" x="2431" y="-185.8" font-family="Times,serif" font-size="14.00">ndRngAdapter</text>
</g>
<!-- ndMessage -->
<g id="node17" class="node"><title>ndMessage</title>
<g id="a_node17_8"><a xlink:href="https://github.com/maidsafe/bls_dkg/blob/master/src/key_gen/message.rs#:~:text=enum%20Message" xlink:title="&lt;TABLE&gt;">
<polygon fill="yellow" stroke="none" points="405,-87.5 405,-124.5 491,-124.5 491,-87.5 405,-87.5"/>
<polygon fill="none" stroke="black" points="405,-87.5 405,-124.5 491,-124.5 491,-87.5 405,-87.5"/>
<text text-anchor="start" x="416" y="-103.3" font-family="Arial" font-weight="bold" font-size="14.00">Message</text>
<polygon fill="none" stroke="black" points="404,-87 404,-126 492,-126 492,-87 404,-87"/>
</a>
</g>
</g>
<!-- ndMessage&#45;&gt;ndKeyGen -->
<g id="edge16" class="edge"><title>ndMessage&#45;&gt;ndKeyGen</title>
<path fill="none" stroke="black" stroke-dasharray="5,2" d="M500.267,-85.0189C503.196,-84.2485 506.12,-83.5657 509,-83 673.593,-50.6698 1889.37,-29.5034 2152.05,-25.2791"/>
<polygon fill="black" stroke="black" points="2152.19,-25.2771 2158.12,-21.1817 2164.18,-25.0852 2158.25,-29.1806 2152.19,-25.2771"/>
</g>
<!-- ndPeerId -->
<g id="node18" class="node"><title>ndPeerId</title>
<g id="a_node18_9"><a xlink:href="https://github.com/maidsafe/bls_dkg/blob/master/src/dev_utils/peer.rs#:~:text=struct%20PeerId" xlink:title="&lt;TABLE&gt;">
<polygon fill="lightblue" stroke="none" points="2869,-87.5 2869,-124.5 3479,-124.5 3479,-87.5 2869,-87.5"/>
<polygon fill="none" stroke="black" points="2869,-87.5 2869,-124.5 3479,-124.5 3479,-87.5 2869,-87.5"/>
<text text-anchor="start" x="2880" y="-103.3" font-family="Arial" font-weight="bold" font-size="14.00">pub struct PeerId { &#160;&#160;&#160;id: XorName, &#160;&#160;&#160;public_key: PublicKey, &#160;&#160;&#160;secret_key: SecretKey,}</text>
<polygon fill="none" stroke="black" points="2868,-87 2868,-126 3480,-126 3480,-87 2868,-87"/>
</a>
</g>
</g>
<!-- ndPublicKey -->
<g id="node19" class="node"><title>ndPublicKey</title>
<g id="a_node19_10"><a xlink:href="https://github.com/maidsafe/bls_dkg/blob/master/src/dev_utils/peer.rs#:~:text=struct%20PublicKey" xlink:title="&lt;TABLE&gt;">
<polygon fill="lightblue" stroke="none" points="2841,-170.5 2841,-207.5 3156,-207.5 3156,-170.5 2841,-170.5"/>
<polygon fill="none" stroke="black" points="2841,-170.5 2841,-207.5 3156,-207.5 3156,-170.5 2841,-170.5"/>
<text text-anchor="start" x="2852" y="-186.3" font-family="Arial" font-weight="bold" font-size="14.00">pub struct PublicKey([u8; KEY_LENGTH]);</text>
<polygon fill="none" stroke="black" points="2839.5,-170 2839.5,-209 3156.5,-209 3156.5,-170 2839.5,-170"/>
</a>
</g>
</g>
<!-- ndPublicKey&#45;&gt;ndPeerId -->
<g id="edge17" class="edge"><title>ndPublicKey&#45;&gt;ndPeerId</title>
<path fill="none" stroke="black" d="M3047.03,-165.937C3067.73,-156.41 3092.03,-145.223 3113.81,-135.202"/>
<polygon fill="black" stroke="black" points="3114.03,-135.099 3117.81,-128.957 3124.93,-130.082 3121.15,-136.224 3114.03,-135.099"/>
</g>
<!-- ndSecretKey -->
<g id="node20" class="node"><title>ndSecretKey</title>
<g id="a_node20_11"><a xlink:href="https://github.com/maidsafe/bls_dkg/blob/master/src/dev_utils/peer.rs#:~:text=struct%20SecretKey" xlink:title="&lt;TABLE&gt;">
<polygon fill="lightblue" stroke="none" points="3192,-170.5 3192,-207.5 3509,-207.5 3509,-170.5 3192,-170.5"/>
<polygon fill="none" stroke="black" points="3192,-170.5 3192,-207.5 3509,-207.5 3509,-170.5 3192,-170.5"/>
<text text-anchor="start" x="3203" y="-186.3" font-family="Arial" font-weight="bold" font-size="14.00">pub struct SecretKey([u8; KEY_LENGTH]);</text>
<polygon fill="none" stroke="black" points="3190.5,-170 3190.5,-209 3509.5,-209 3509.5,-170 3190.5,-170"/>
</a>
</g>
</g>
<!-- ndSecretKey&#45;&gt;ndPeerId -->
<g id="edge18" class="edge"><title>ndSecretKey&#45;&gt;ndPeerId</title>
<path fill="none" stroke="black" d="M3300.97,-165.937C3280.27,-156.41 3255.97,-145.223 3234.19,-135.202"/>
<polygon fill="black" stroke="black" points="3233.97,-135.099 3226.85,-136.224 3223.07,-130.082 3230.19,-128.957 3233.97,-135.099"/>
</g>
<!-- ndSignature -->
<g id="node21" class="node"><title>ndSignature</title>
<g id="a_node21_12"><a xlink:href="https://github.com/maidsafe/bls_dkg/blob/master/src/dev_utils/peer.rs#:~:text=struct%20Signature" xlink:title="&lt;TABLE&gt;">
<polygon fill="lightblue" stroke="none" points="3545,-170.5 3545,-207.5 3910,-207.5 3910,-170.5 3545,-170.5"/>
<polygon fill="none" stroke="black" points="3545,-170.5 3545,-207.5 3910,-207.5 3910,-170.5 3545,-170.5"/>
<text text-anchor="start" x="3556" y="-186.3" font-family="Arial" font-weight="bold" font-size="14.00">pub struct Signature([u8; SIGNATURE_LENGTH]);</text>
<polygon fill="none" stroke="black" points="3543.5,-170 3543.5,-209 3910.5,-209 3910.5,-170 3543.5,-170"/>
</a>
</g>
</g>
</g>
</svg>
