<?xml version="1.0" encoding="UTF-8" standalone="no"?>
<!DOCTYPE svg PUBLIC "-//W3C//DTD SVG 1.1//EN"
 "http://www.w3.org/Graphics/SVG/1.1/DTD/svg11.dtd">
<!-- Generated by graphviz version 2.38.0 (20140413.2041)
 -->
<!-- Title: ml Pages: 1 -->
<svg width="3547pt" height="194pt"
 viewBox="0.00 0.00 3547.00 194.00" xmlns="http://www.w3.org/2000/svg" xmlns:xlink="http://www.w3.org/1999/xlink">
<g id="graph0" class="graph" transform="scale(1 1) rotate(0) translate(4 190)">
<title>ml</title>
<polygon fill="white" stroke="none" points="-4,4 -4,-190 3543,-190 3543,4 -4,4"/>
<!-- ndSignatureAggregator -->
<g id="node1" class="node"><title>ndSignatureAggregator</title>
<text text-anchor="middle" x="2259.5" y="-14.3" font-family="Times,serif" font-size="14.00">ndSignatureAggregator</text>
</g>
<!-- ndError -->
<g id="node2" class="node"><title>ndError</title>
<g id="a_node2_0"><a xlink:href="https://github.com/maidsafe/bls_signature_aggregator/blob/master/src/signature_aggregator.rs#:~:text=enum%20Error" xlink:title="&lt;TABLE&gt;">
<polygon fill="yellow" stroke="none" points="3345.5,-144 3345.5,-181 3530.5,-181 3530.5,-144 3345.5,-144"/>
<polygon fill="none" stroke="black" points="3345.5,-144 3345.5,-181 3530.5,-181 3530.5,-144 3345.5,-144"/>
<text text-anchor="start" x="3419.5" y="-159.8" font-family="Arial" font-weight="bold" font-size="14.00">Error</text>
<polygon fill="white" stroke="none" points="3345.5,-77 3345.5,-144 3530.5,-144 3530.5,-77 3345.5,-77"/>
<polygon fill="none" stroke="black" points="3345.5,-77 3345.5,-144 3530.5,-144 3530.5,-77 3345.5,-77"/>
<text text-anchor="start" x="3356.5" y="-121.8" font-family="Arial" font-size="14.00">NotEnoughShares</text>
<text text-anchor="start" x="3356.5" y="-106.8" font-family="Arial" font-size="14.00">InvalidShare</text>
<text text-anchor="start" x="3356.5" y="-91.8" font-family="Arial" font-size="14.00">Combine(bls::error::Error)</text>
<polygon fill="none" stroke="black" points="3344,-76 3344,-182 3531,-182 3531,-76 3344,-76"/>
</a>
</g>
</g>
<!-- ndError&#45;&gt;ndSignatureAggregator -->
<g id="edge1" class="edge"><title>ndError&#45;&gt;ndSignatureAggregator</title>
<path fill="none" stroke="black" d="M3335.91,-74.4546C3333.1,-73.566 3330.3,-72.7444 3327.5,-72 3233.32,-46.9211 2574.96,-27.3225 2341.42,-21.0893"/>
<polygon fill="black" stroke="black" points="2331.29,-20.8202 2341.41,-16.5874 2336.29,-20.953 2341.29,-21.0858 2341.29,-21.0858 2341.29,-21.0858 2336.29,-20.953 2341.17,-25.5842 2331.29,-20.8202 2331.29,-20.8202"/>
</g>
<!-- ndState -->
<g id="node3" class="node"><title>ndState</title>
<text text-anchor="middle" x="2907.5" y="-14.3" font-family="Times,serif" font-size="14.00">ndState</text>
</g>
<!-- ndError&#45;&gt;ndState -->
<g id="edge2" class="edge"><title>ndError&#45;&gt;ndState</title>
<path fill="none" stroke="black" d="M3335.83,-74.7389C3333.04,-73.7661 3330.27,-72.85 3327.5,-72 3191.91,-30.3228 3022.04,-21.3632 2946.65,-19.4774"/>
<polygon fill="black" stroke="black" points="2936.22,-19.2475 2946.32,-14.9693 2941.22,-19.3578 2946.22,-19.4682 2946.22,-19.4682 2946.22,-19.4682 2941.22,-19.3578 2946.12,-23.9671 2936.22,-19.2475 2936.22,-19.2475"/>
</g>
<!-- ndProof -->
<g id="node4" class="node"><title>ndProof</title>
<g id="a_node4_1"><a xlink:href="https://github.com/maidsafe/bls_signature_aggregator/blob/master/src/proof.rs#:~:text=struct%20Proof" xlink:title="&lt;TABLE&gt;">
<polygon fill="lightblue" stroke="none" points="9.5,-136 9.5,-173 1174.5,-173 1174.5,-136 9.5,-136"/>
<polygon fill="none" stroke="black" points="9.5,-136 9.5,-173 1174.5,-173 1174.5,-136 9.5,-136"/>
<text text-anchor="start" x="20.5" y="-151.8" font-family="Arial" font-weight="bold" font-size="14.00">pub struct Proof { &#160;&#160;&#160;/// The BLS public key. &#160;&#160;&#160;pub public_key: bls::PublicKey, &#160;&#160;&#160;/// The BLS signature corresponding to the public key. &#160;&#160;&#160;pub signature: bls::Signature,}</text>
<polygon fill="white" stroke="none" points="9.5,-84 9.5,-136 1174.5,-136 1174.5,-84 9.5,-84"/>
<polygon fill="none" stroke="black" points="9.5,-84 9.5,-136 1174.5,-136 1174.5,-84 9.5,-84"/>
<text text-anchor="start" x="20.5" y="-113.8" font-family="Arial" font-size="14.00">+ public_key: bls::PublicKey</text>
<text text-anchor="start" x="20.5" y="-98.8" font-family="Arial" font-size="14.00">+ signature: bls::Signature</text>
<polygon fill="none" stroke="black" points="8,-83.5 8,-174.5 1175,-174.5 1175,-83.5 8,-83.5"/>
</a>
</g>
</g>
<!-- ndProof&#45;&gt;ndSignatureAggregator -->
<g id="edge3" class="edge"><title>ndProof&#45;&gt;ndSignatureAggregator</title>
<path fill="none" stroke="black" d="M1094.73,-79.4932C1127.8,-76.8046 1160.62,-74.276 1192.5,-72 1559.77,-45.7804 1999.07,-28.354 2177.83,-21.8504"/>
<polygon fill="black" stroke="black" points="2187.94,-21.484 2178.11,-26.3432 2182.95,-21.6651 2177.95,-21.8461 2177.95,-21.8461 2177.95,-21.8461 2182.95,-21.6651 2177.79,-17.3491 2187.94,-21.484 2187.94,-21.484"/>
</g>
<!-- ndProofShare -->
<g id="node5" class="node"><title>ndProofShare</title>
<g id="a_node5_2"><a xlink:href="https://github.com/maidsafe/bls_signature_aggregator/blob/master/src/proof.rs#:~:text=struct%20ProofShare" xlink:title="&lt;TABLE&gt;">
<polygon fill="lightblue" stroke="none" points="1210.5,-144 1210.5,-181 3309.5,-181 3309.5,-144 1210.5,-144"/>
<polygon fill="none" stroke="black" points="1210.5,-144 1210.5,-181 3309.5,-181 3309.5,-144 1210.5,-144"/>
<text text-anchor="start" x="1221.5" y="-159.8" font-family="Arial" font-weight="bold" font-size="14.00">pub struct ProofShare { &#160;&#160;&#160;/// BLS public key set. &#160;&#160;&#160;pub public_key_set: bls::PublicKeySet, &#160;&#160;&#160;/// Index of the node that created this proof share. &#160;&#160;&#160;pub index: usize, &#160;&#160;&#160;/// BLS signature share corresponding to the `index`&#45;th public key share of the public key set. &#160;&#160;&#160;pub signature_share: bls::SignatureShare,}</text>
<polygon fill="white" stroke="none" points="1210.5,-77 1210.5,-144 3309.5,-144 3309.5,-77 1210.5,-77"/>
<polygon fill="none" stroke="black" points="1210.5,-77 1210.5,-144 3309.5,-144 3309.5,-77 1210.5,-77"/>
<text text-anchor="start" x="1221.5" y="-121.8" font-family="Arial" font-size="14.00">+ public_key_set: bls::PublicKeySet</text>
<text text-anchor="start" x="1221.5" y="-106.8" font-family="Arial" font-size="14.00">+ index: usize</text>
<text text-anchor="start" x="1221.5" y="-91.8" font-family="Arial" font-size="14.00">+ signature_share: bls::SignatureShare</text>
<polygon fill="none" stroke="black" points="1209,-76 1209,-182 3310,-182 3310,-76 1209,-76"/>
</a>
</g>
</g>
<!-- ndProofShare&#45;&gt;ndSignatureAggregator -->
<g id="edge4" class="edge"><title>ndProofShare&#45;&gt;ndSignatureAggregator</title>
<path fill="none" stroke="black" stroke-dasharray="5,2" d="M2259.5,-71.9035C2259.5,-63.1108 2259.5,-54.3734 2259.5,-46.6081"/>
<polygon fill="black" stroke="black" points="2259.5,-36.373 2264,-46.373 2259.5,-41.373 2259.5,-46.373 2259.5,-46.373 2259.5,-46.373 2259.5,-41.373 2255,-46.3731 2259.5,-36.373 2259.5,-36.373"/>
</g>
<!-- ndProofShare&#45;&gt;ndState -->
<g id="edge5" class="edge"><title>ndProofShare&#45;&gt;ndState</title>
<path fill="none" stroke="black" stroke-dasharray="5,2" d="M2592.52,-71.9833C2703.05,-53.3913 2812.17,-35.0347 2868.4,-25.5773"/>
<polygon fill="black" stroke="black" points="2878.6,-23.862 2869.48,-29.9585 2873.67,-24.6914 2868.73,-25.5209 2868.73,-25.5209 2868.73,-25.5209 2873.67,-24.6914 2867.99,-21.0832 2878.6,-23.862 2878.6,-23.862"/>
</g>
</g>
</svg>
