<?xml version="1.0" encoding="UTF-8" standalone="no"?>
<!DOCTYPE svg PUBLIC "-//W3C//DTD SVG 1.1//EN"
 "http://www.w3.org/Graphics/SVG/1.1/DTD/svg11.dtd">
<!-- Generated by graphviz version 2.38.0 (20140413.2041)
 -->
<!-- Title: ml Pages: 1 -->
<svg width="2617pt" height="662pt"
 viewBox="0.00 0.00 2617.00 662.00" xmlns="http://www.w3.org/2000/svg" xmlns:xlink="http://www.w3.org/1999/xlink">
<g id="graph0" class="graph" transform="scale(1 1) rotate(0) translate(4 658)">
<title>ml</title>
<polygon fill="white" stroke="none" points="-4,4 -4,-658 2613,-658 2613,4 -4,4"/>
<!-- ndEncryptor -->
<g id="node1" class="node"><title>ndEncryptor</title>
<g id="a_node1_0"><a xlink:href="https://github.com/maidsafe/bls_dkg/blob/master/src/key_gen/encryptor.rs#:~:text=struct%20Encryptor" xlink:title="&lt;TABLE&gt;">
<polygon fill="lightblue" stroke="none" points="306,-349.5 306,-386.5 611,-386.5 611,-349.5 306,-349.5"/>
<polygon fill="none" stroke="black" points="306,-349.5 306,-386.5 611,-386.5 611,-349.5 306,-349.5"/>
<text text-anchor="start" x="423.5" y="-365.3" font-family="Arial" font-weight="bold" font-size="14.00">Encryptor</text>
<polygon fill="white" stroke="none" points="306,-312.5 306,-349.5 611,-349.5 611,-312.5 306,-312.5"/>
<polygon fill="none" stroke="black" points="306,-312.5 306,-349.5 611,-349.5 611,-312.5 306,-312.5"/>
<text text-anchor="start" x="317" y="-327.3" font-family="Arial" font-size="14.00">&#45; keys_map: BTreeMap&lt;XorName, (Key, Iv)&gt;</text>
<polygon fill="none" stroke="black" points="304.5,-311.5 304.5,-387.5 611.5,-387.5 611.5,-311.5 304.5,-311.5"/>
</a>
</g>
</g>
<!-- ndKeyGen -->
<g id="node10" class="node"><title>ndKeyGen</title>
<g id="a_node10_1"><a xlink:href="https://github.com/maidsafe/bls_dkg/blob/master/src/key_gen/mod.rs#:~:text=struct%20KeyGen" xlink:title="&lt;TABLE&gt;">
<polygon fill="lightblue" stroke="none" points="988,-192 988,-229 1341,-229 1341,-192 988,-192"/>
<polygon fill="none" stroke="black" points="988,-192 988,-229 1341,-229 1341,-192 988,-192"/>
<text text-anchor="start" x="1136.5" y="-207.8" font-family="Arial" font-weight="bold" font-size="14.00">KeyGen</text>
<polygon fill="white" stroke="none" points="988,-5 988,-192 1341,-192 1341,-5 988,-5"/>
<polygon fill="none" stroke="black" points="988,-5 988,-192 1341,-192 1341,-5 988,-5"/>
<text text-anchor="start" x="999" y="-169.8" font-family="Arial" font-size="14.00">&#45; our_id: XorName</text>
<text text-anchor="start" x="999" y="-154.8" font-family="Arial" font-size="14.00">&#45; our_index: u64</text>
<text text-anchor="start" x="999" y="-139.8" font-family="Arial" font-size="14.00">&#45; names: BTreeSet&lt;XorName&gt;</text>
<text text-anchor="start" x="999" y="-124.8" font-family="Arial" font-size="14.00">&#45; encryptor: Encryptor</text>
<text text-anchor="start" x="999" y="-109.8" font-family="Arial" font-size="14.00">&#45; parts: BTreeMap&lt;u64, ProposalState&gt;</text>
<text text-anchor="start" x="999" y="-94.8" font-family="Arial" font-size="14.00">&#45; threshold: usize</text>
<text text-anchor="start" x="999" y="-79.8" font-family="Arial" font-size="14.00">&#45; phase: Phase</text>
<text text-anchor="start" x="999" y="-64.8" font-family="Arial" font-size="14.00">&#45; initalization_accumulator: InitializationAccumulator</text>
<text text-anchor="start" x="999" y="-49.8" font-family="Arial" font-size="14.00">&#45; complaints_accumulator: ComplaintsAccumulator</text>
<text text-anchor="start" x="999" y="-34.8" font-family="Arial" font-size="14.00">&#45; pending_complain_messages: Vec&lt;Message&gt;</text>
<text text-anchor="start" x="999" y="-19.8" font-family="Arial" font-size="14.00">&#45; message_cache: BTreeMap&lt;XorName, Message&gt;</text>
<polygon fill="none" stroke="black" points="986.5,-4 986.5,-230 1341.5,-230 1341.5,-4 986.5,-4"/>
</a>
</g>
</g>
<!-- ndEncryptor&#45;&gt;ndKeyGen -->
<g id="edge1" class="edge"><title>ndEncryptor&#45;&gt;ndKeyGen</title>
<path fill="none" stroke="black" d="M543.842,-307.319C572.2,-294.497 604.136,-280.881 634,-270 742.25,-230.557 865.865,-194.604 966.47,-167.577"/>
<polygon fill="black" stroke="black" points="966.717,-167.511 971.479,-162.096 978.309,-164.41 973.547,-169.825 966.717,-167.511"/>
</g>
<!-- ndOutcome -->
<g id="node2" class="node"><title>ndOutcome</title>
<g id="a_node2_2"><a xlink:href="https://github.com/maidsafe/bls_dkg/blob/master/src/key_gen/outcome.rs#:~:text=struct%20Outcome" xlink:title="&lt;TABLE&gt;">
<polygon fill="lightblue" stroke="none" points="9,-364.5 9,-401.5 269,-401.5 269,-364.5 9,-364.5"/>
<polygon fill="none" stroke="black" points="9,-364.5 9,-401.5 269,-401.5 269,-364.5 9,-364.5"/>
<text text-anchor="start" x="107" y="-380.3" font-family="Arial" font-weight="bold" font-size="14.00">Outcome</text>
<polygon fill="white" stroke="none" points="9,-297.5 9,-364.5 269,-364.5 269,-297.5 9,-297.5"/>
<polygon fill="none" stroke="black" points="9,-297.5 9,-364.5 269,-364.5 269,-297.5 9,-297.5"/>
<text text-anchor="start" x="20" y="-342.3" font-family="Arial" font-size="14.00">+ public_key_set: PublicKeySet</text>
<text text-anchor="start" x="20" y="-327.3" font-family="Arial" font-size="14.00">+ secret_key_share: SecretKeyShare</text>
<text text-anchor="start" x="20" y="-312.3" font-family="Arial" font-size="14.00">+ index: usize</text>
<polygon fill="none" stroke="black" points="8,-296.5 8,-402.5 270,-402.5 270,-296.5 8,-296.5"/>
</a>
</g>
</g>
<!-- ndOutcome&#45;&gt;ndKeyGen -->
<g id="edge2" class="edge"><title>ndOutcome&#45;&gt;ndKeyGen</title>
<path fill="none" stroke="black" d="M234.154,-292.434C251.332,-283.945 269.388,-276.026 287,-270 513.72,-192.433 787.561,-153.065 968.249,-134.079"/>
<polygon fill="black" stroke="black" points="978.396,-133.024 968.915,-138.535 973.423,-133.542 968.45,-134.059 968.45,-134.059 968.45,-134.059 973.423,-133.542 967.985,-129.583 978.396,-133.024 978.396,-133.024"/>
</g>
<!-- ndError -->
<g id="node3" class="node"><title>ndError</title>
<g id="a_node3_3"><a xlink:href="https://github.com/maidsafe/bls_dkg/blob/master/src/key_gen/mod.rs#:~:text=enum%20Error" xlink:title="&lt;TABLE&gt;">
<polygon fill="yellow" stroke="none" points="425,-611.5 425,-648.5 682,-648.5 682,-611.5 425,-611.5"/>
<polygon fill="none" stroke="black" points="425,-611.5 425,-648.5 682,-648.5 682,-611.5 425,-611.5"/>
<text text-anchor="start" x="535" y="-627.3" font-family="Arial" font-weight="bold" font-size="14.00">Error</text>
<polygon fill="white" stroke="none" points="425,-469.5 425,-611.5 682,-611.5 682,-469.5 425,-469.5"/>
<polygon fill="none" stroke="black" points="425,-469.5 425,-611.5 682,-611.5 682,-469.5 425,-469.5"/>
<text text-anchor="start" x="436" y="-589.3" font-family="Arial" font-size="14.00">Unknown</text>
<text text-anchor="start" x="436" y="-574.3" font-family="Arial" font-size="14.00">UnknownSender</text>
<text text-anchor="start" x="436" y="-559.3" font-family="Arial" font-size="14.00">Serialization(String)</text>
<text text-anchor="start" x="436" y="-544.3" font-family="Arial" font-size="14.00">QuicP2P(String)</text>
<text text-anchor="start" x="436" y="-529.3" font-family="Arial" font-size="14.00">Encryption</text>
<text text-anchor="start" x="436" y="-514.3" font-family="Arial" font-size="14.00">TooManyNonVoters(BTreeSet&lt;u64&gt;)</text>
<text text-anchor="start" x="436" y="-499.3" font-family="Arial" font-size="14.00">UnexpectedPhase</text>
<text text-anchor="start" x="436" y="-484.3" font-family="Arial" font-size="14.00">MissingPart</text>
<polygon fill="none" stroke="black" points="423.5,-469 423.5,-650 682.5,-650 682.5,-469 423.5,-469"/>
</a>
</g>
</g>
<!-- ndError&#45;&gt;ndEncryptor -->
<g id="edge3" class="edge"><title>ndError&#45;&gt;ndEncryptor</title>
<path fill="none" stroke="black" d="M510.224,-464.844C500.152,-442.79 489.792,-420.109 480.983,-400.821"/>
<polygon fill="black" stroke="black" points="476.791,-391.643 485.039,-398.869 478.868,-396.191 480.946,-400.739 480.946,-400.739 480.946,-400.739 478.868,-396.191 476.852,-402.608 476.791,-391.643 476.791,-391.643"/>
</g>
<!-- ndError&#45;&gt;ndKeyGen -->
<g id="edge4" class="edge"><title>ndError&#45;&gt;ndKeyGen</title>
<path fill="none" stroke="black" d="M611.297,-464.94C617.447,-453.088 623.197,-440.93 628,-429 655.174,-361.503 617.018,-322.877 667,-270 744.683,-187.818 865.427,-149.672 968.448,-132.143"/>
<polygon fill="black" stroke="black" points="978.361,-130.51 969.225,-136.576 973.427,-131.323 968.494,-132.135 968.494,-132.135 968.494,-132.135 973.427,-131.323 967.762,-127.695 978.361,-130.51 978.361,-130.51"/>
</g>
<!-- ndPart -->
<g id="node4" class="node"><title>ndPart</title>
<g id="a_node4_4"><a xlink:href="https://github.com/maidsafe/bls_dkg/blob/master/src/key_gen/mod.rs#:~:text=struct%20Part" xlink:title="&lt;TABLE&gt;">
<polygon fill="lightblue" stroke="none" points="686,-371.5 686,-408.5 915,-408.5 915,-371.5 686,-371.5"/>
<polygon fill="none" stroke="black" points="686,-371.5 686,-408.5 915,-408.5 915,-371.5 686,-371.5"/>
<text text-anchor="start" x="786" y="-387.3" font-family="Arial" font-weight="bold" font-size="14.00">Part</text>
<polygon fill="white" stroke="none" points="686,-289.5 686,-371.5 915,-371.5 915,-289.5 686,-289.5"/>
<polygon fill="none" stroke="black" points="686,-289.5 686,-371.5 915,-371.5 915,-289.5 686,-289.5"/>
<text text-anchor="start" x="697" y="-349.3" font-family="Arial" font-size="14.00">&#45; receiver: u64</text>
<text text-anchor="start" x="697" y="-334.3" font-family="Arial" font-size="14.00">&#45; commitment: BivarCommitment</text>
<text text-anchor="start" x="697" y="-319.3" font-family="Arial" font-size="14.00">&#45; ser_row: Vec&lt;u8&gt;</text>
<text text-anchor="start" x="697" y="-304.3" font-family="Arial" font-size="14.00">&#45; enc_rows: Vec&lt;Vec&lt;u8&gt;&gt;</text>
<polygon fill="none" stroke="black" points="684.5,-289 684.5,-410 915.5,-410 915.5,-289 684.5,-289"/>
</a>
</g>
</g>
<!-- ndPart&#45;&gt;ndKeyGen -->
<g id="edge5" class="edge"><title>ndPart&#45;&gt;ndKeyGen</title>
<path fill="none" stroke="black" stroke-dasharray="5,2" d="M900.428,-284.905C922.829,-270.72 947.308,-255.219 972.033,-239.562"/>
<polygon fill="black" stroke="black" points="980.786,-234.019 974.745,-243.171 976.561,-236.694 972.337,-239.369 972.337,-239.369 972.337,-239.369 976.561,-236.694 969.93,-235.567 980.786,-234.019 980.786,-234.019"/>
</g>
<!-- ndProposalState -->
<g id="node5" class="node"><title>ndProposalState</title>
<g id="a_node5_5"><a xlink:href="https://github.com/maidsafe/bls_dkg/blob/master/src/key_gen/mod.rs#:~:text=struct%20ProposalState" xlink:title="&lt;TABLE&gt;">
<polygon fill="lightblue" stroke="none" points="718,-581.5 718,-618.5 947,-618.5 947,-581.5 718,-581.5"/>
<polygon fill="none" stroke="black" points="718,-581.5 718,-618.5 947,-618.5 947,-581.5 718,-581.5"/>
<text text-anchor="start" x="783" y="-597.3" font-family="Arial" font-weight="bold" font-size="14.00">ProposalState</text>
<polygon fill="white" stroke="none" points="718,-499.5 718,-581.5 947,-581.5 947,-499.5 718,-499.5"/>
<polygon fill="none" stroke="black" points="718,-499.5 718,-581.5 947,-581.5 947,-499.5 718,-499.5"/>
<text text-anchor="start" x="729" y="-559.3" font-family="Arial" font-size="14.00">&#45; commitment: BivarCommitment</text>
<text text-anchor="start" x="729" y="-544.3" font-family="Arial" font-size="14.00">&#45; values: BTreeMap&lt;u64, Fr&gt;</text>
<text text-anchor="start" x="729" y="-529.3" font-family="Arial" font-size="14.00">&#45; enc_values: Vec&lt;Vec&lt;u8&gt;&gt;</text>
<text text-anchor="start" x="729" y="-514.3" font-family="Arial" font-size="14.00">&#45; acks: BTreeSet&lt;u64&gt;</text>
<polygon fill="none" stroke="black" points="716.5,-499 716.5,-620 947.5,-620 947.5,-499 716.5,-499"/>
</a>
</g>
</g>
<!-- ndPartOutcome -->
<g id="node6" class="node"><title>ndPartOutcome</title>
<g id="a_node6_6"><a xlink:href="https://github.com/maidsafe/bls_dkg/blob/master/src/key_gen/mod.rs#:~:text=enum%20PartOutcome" xlink:title="&lt;TABLE&gt;">
<polygon fill="yellow" stroke="none" points="2370,-124 2370,-161 2600,-161 2600,-124 2370,-124"/>
<polygon fill="none" stroke="black" points="2370,-124 2370,-161 2600,-161 2600,-124 2370,-124"/>
<text text-anchor="start" x="2439" y="-139.8" font-family="Arial" font-weight="bold" font-size="14.00">PartOutcome</text>
<polygon fill="white" stroke="none" points="2370,-72 2370,-124 2600,-124 2600,-72 2370,-72"/>
<polygon fill="none" stroke="black" points="2370,-72 2370,-124 2600,-124 2600,-72 2370,-72"/>
<text text-anchor="start" x="2381" y="-101.8" font-family="Arial" font-size="14.00">Valid(Option&lt;Acknowledgment&gt;)</text>
<text text-anchor="start" x="2381" y="-86.8" font-family="Arial" font-size="14.00">Invalid(PartFault)</text>
<polygon fill="none" stroke="black" points="2369,-71.5 2369,-162.5 2601,-162.5 2601,-71.5 2369,-71.5"/>
</a>
</g>
</g>
<!-- ndPhase -->
<g id="node7" class="node"><title>ndPhase</title>
<g id="a_node7_7"><a xlink:href="https://github.com/maidsafe/bls_dkg/blob/master/src/key_gen/mod.rs#:~:text=enum%20Phase" xlink:title="&lt;TABLE&gt;">
<polygon fill="yellow" stroke="none" points="951,-386.5 951,-423.5 1055,-423.5 1055,-386.5 951,-386.5"/>
<polygon fill="none" stroke="black" points="951,-386.5 951,-423.5 1055,-423.5 1055,-386.5 951,-386.5"/>
<text text-anchor="start" x="981" y="-402.3" font-family="Arial" font-weight="bold" font-size="14.00">Phase</text>
<polygon fill="white" stroke="none" points="951,-274.5 951,-386.5 1055,-386.5 1055,-274.5 951,-274.5"/>
<polygon fill="none" stroke="black" points="951,-274.5 951,-386.5 1055,-386.5 1055,-274.5 951,-274.5"/>
<text text-anchor="start" x="962" y="-364.3" font-family="Arial" font-size="14.00">Initialization</text>
<text text-anchor="start" x="962" y="-349.3" font-family="Arial" font-size="14.00">Contribution</text>
<text text-anchor="start" x="962" y="-334.3" font-family="Arial" font-size="14.00">Complaining</text>
<text text-anchor="start" x="962" y="-319.3" font-family="Arial" font-size="14.00">Justification</text>
<text text-anchor="start" x="962" y="-304.3" font-family="Arial" font-size="14.00">Commitment</text>
<text text-anchor="start" x="962" y="-289.3" font-family="Arial" font-size="14.00">Finalization</text>
<polygon fill="none" stroke="black" points="950,-274 950,-425 1056,-425 1056,-274 950,-274"/>
</a>
</g>
</g>
<!-- ndPhase&#45;&gt;ndKeyGen -->
<g id="edge6" class="edge"><title>ndPhase&#45;&gt;ndKeyGen</title>
<path fill="none" stroke="black" stroke-dasharray="5,2" d="M1057.96,-269.82C1063.78,-261.481 1069.8,-252.858 1075.89,-244.15"/>
<polygon fill="black" stroke="black" points="1075.9,-244.132 1076.06,-236.923 1082.77,-234.295 1082.61,-241.504 1075.9,-244.132"/>
</g>
<!-- ndInitializationAccumulator -->
<g id="node8" class="node"><title>ndInitializationAccumulator</title>
<g id="a_node8_8"><a xlink:href="https://github.com/maidsafe/bls_dkg/blob/master/src/key_gen/mod.rs#:~:text=struct%20InitializationAccumulator" xlink:title="&lt;TABLE&gt;">
<polygon fill="lightblue" stroke="none" points="1092,-356.5 1092,-393.5 1559,-393.5 1559,-356.5 1092,-356.5"/>
<polygon fill="none" stroke="black" points="1092,-356.5 1092,-393.5 1559,-393.5 1559,-356.5 1092,-356.5"/>
<text text-anchor="start" x="1239.5" y="-372.3" font-family="Arial" font-weight="bold" font-size="14.00">InitializationAccumulator</text>
<polygon fill="white" stroke="none" points="1092,-304.5 1092,-356.5 1559,-356.5 1559,-304.5 1092,-304.5"/>
<polygon fill="none" stroke="black" points="1092,-304.5 1092,-356.5 1559,-356.5 1559,-304.5 1092,-304.5"/>
<text text-anchor="start" x="1103" y="-334.3" font-family="Arial" font-size="14.00">&#45; senders: BTreeSet&lt;u64&gt;</text>
<text text-anchor="start" x="1103" y="-319.3" font-family="Arial" font-size="14.00">&#45; initializations: BTreeMap&lt;(usize, usize, BTreeSet&lt;XorName&gt;), usize&gt;</text>
<polygon fill="none" stroke="black" points="1090.5,-304 1090.5,-395 1559.5,-395 1559.5,-304 1090.5,-304"/>
</a>
</g>
</g>
<!-- ndInitializationAccumulator&#45;&gt;ndKeyGen -->
<g id="edge7" class="edge"><title>ndInitializationAccumulator&#45;&gt;ndKeyGen</title>
<path fill="none" stroke="black" d="M1291.05,-299.899C1279.53,-283.402 1266.07,-264.129 1252.3,-244.416"/>
<polygon fill="black" stroke="black" points="1252.17,-244.237 1245.46,-241.608 1245.3,-234.399 1252.02,-237.027 1252.17,-244.237"/>
</g>
<!-- ndComplaintsAccumulator -->
<g id="node9" class="node"><title>ndComplaintsAccumulator</title>
<g id="a_node9_9"><a xlink:href="https://github.com/maidsafe/bls_dkg/blob/master/src/key_gen/mod.rs#:~:text=struct%20ComplaintsAccumulator" xlink:title="&lt;TABLE&gt;">
<polygon fill="lightblue" stroke="none" points="1595,-364.5 1595,-401.5 1989,-401.5 1989,-364.5 1595,-364.5"/>
<polygon fill="none" stroke="black" points="1595,-364.5 1595,-401.5 1989,-401.5 1989,-364.5 1595,-364.5"/>
<text text-anchor="start" x="1708" y="-380.3" font-family="Arial" font-weight="bold" font-size="14.00">ComplaintsAccumulator</text>
<polygon fill="white" stroke="none" points="1595,-297.5 1595,-364.5 1989,-364.5 1989,-297.5 1595,-297.5"/>
<polygon fill="none" stroke="black" points="1595,-297.5 1595,-364.5 1989,-364.5 1989,-297.5 1595,-297.5"/>
<text text-anchor="start" x="1606" y="-342.3" font-family="Arial" font-size="14.00">&#45; names: BTreeSet&lt;XorName&gt;</text>
<text text-anchor="start" x="1606" y="-327.3" font-family="Arial" font-size="14.00">&#45; threshold: usize</text>
<text text-anchor="start" x="1606" y="-312.3" font-family="Arial" font-size="14.00">&#45; complaints: BTreeMap&lt;XorName, BTreeSet&lt;XorName&gt;&gt;</text>
<polygon fill="none" stroke="black" points="1594,-296.5 1594,-402.5 1990,-402.5 1990,-296.5 1594,-296.5"/>
</a>
</g>
</g>
<!-- ndComplaintsAccumulator&#45;&gt;ndKeyGen -->
<g id="edge8" class="edge"><title>ndComplaintsAccumulator&#45;&gt;ndKeyGen</title>
<path fill="none" stroke="black" d="M1639.18,-292.408C1555.53,-261.706 1450.94,-223.319 1361.2,-190.38"/>
<polygon fill="black" stroke="black" points="1361.03,-190.319 1354.02,-192.007 1349.77,-186.184 1356.78,-184.497 1361.03,-190.319"/>
</g>
<!-- ndAcknowledgmentFault -->
<g id="node11" class="node"><title>ndAcknowledgmentFault</title>
<g id="a_node11_10"><a xlink:href="https://github.com/maidsafe/bls_dkg/blob/master/src/key_gen/mod.rs#:~:text=enum%20AcknowledgmentFault" xlink:title="&lt;TABLE&gt;">
<polygon fill="yellow" stroke="none" points="2026,-379.5 2026,-416.5 2203,-416.5 2203,-379.5 2026,-379.5"/>
<polygon fill="none" stroke="black" points="2026,-379.5 2026,-416.5 2203,-416.5 2203,-379.5 2026,-379.5"/>
<text text-anchor="start" x="2037" y="-395.3" font-family="Arial" font-weight="bold" font-size="14.00">AcknowledgmentFault</text>
<polygon fill="white" stroke="none" points="2026,-282.5 2026,-379.5 2203,-379.5 2203,-282.5 2026,-282.5"/>
<polygon fill="none" stroke="black" points="2026,-282.5 2026,-379.5 2203,-379.5 2203,-282.5 2026,-282.5"/>
<text text-anchor="start" x="2037" y="-357.3" font-family="Arial" font-size="14.00">ValueCount</text>
<text text-anchor="start" x="2037" y="-342.3" font-family="Arial" font-size="14.00">MissingPart</text>
<text text-anchor="start" x="2037" y="-327.3" font-family="Arial" font-size="14.00">DecryptValue</text>
<text text-anchor="start" x="2037" y="-312.3" font-family="Arial" font-size="14.00">DeserializeValue</text>
<text text-anchor="start" x="2037" y="-297.3" font-family="Arial" font-size="14.00">ValueAcknowledgment</text>
<polygon fill="none" stroke="black" points="2024.5,-281.5 2024.5,-417.5 2203.5,-417.5 2203.5,-281.5 2024.5,-281.5"/>
</a>
</g>
</g>
<!-- ndAcknowledgmentFault&#45;&gt;ndKeyGen -->
<g id="edge9" class="edge"><title>ndAcknowledgmentFault&#45;&gt;ndKeyGen</title>
<path fill="none" stroke="black" d="M2022.48,-277.484C2017.36,-274.748 2012.19,-272.228 2007,-270 1797.06,-179.83 1535.47,-143.144 1359.85,-128.222"/>
<polygon fill="black" stroke="black" points="1349.72,-127.378 1360.06,-123.724 1354.7,-127.793 1359.68,-128.209 1359.68,-128.209 1359.68,-128.209 1354.7,-127.793 1359.31,-132.693 1349.72,-127.378 1349.72,-127.378"/>
</g>
<!-- ndPartFault -->
<g id="node12" class="node"><title>ndPartFault</title>
<g id="a_node12_11"><a xlink:href="https://github.com/maidsafe/bls_dkg/blob/master/src/key_gen/mod.rs#:~:text=enum%20PartFault" xlink:title="&lt;TABLE&gt;">
<polygon fill="yellow" stroke="none" points="2405,-379.5 2405,-416.5 2565,-416.5 2565,-379.5 2405,-379.5"/>
<polygon fill="none" stroke="black" points="2405,-379.5 2405,-416.5 2565,-416.5 2565,-379.5 2405,-379.5"/>
<text text-anchor="start" x="2453" y="-395.3" font-family="Arial" font-weight="bold" font-size="14.00">PartFault</text>
<polygon fill="white" stroke="none" points="2405,-282.5 2405,-379.5 2565,-379.5 2565,-282.5 2405,-282.5"/>
<polygon fill="none" stroke="black" points="2405,-282.5 2405,-379.5 2565,-379.5 2565,-282.5 2405,-282.5"/>
<text text-anchor="start" x="2416" y="-357.3" font-family="Arial" font-size="14.00">RowCount</text>
<text text-anchor="start" x="2416" y="-342.3" font-family="Arial" font-size="14.00">MultipleParts</text>
<text text-anchor="start" x="2416" y="-327.3" font-family="Arial" font-size="14.00">DecryptRow</text>
<text text-anchor="start" x="2416" y="-312.3" font-family="Arial" font-size="14.00">DeserializeRow</text>
<text text-anchor="start" x="2416" y="-297.3" font-family="Arial" font-size="14.00">RowAcknowledgment</text>
<polygon fill="none" stroke="black" points="2404,-281.5 2404,-417.5 2566,-417.5 2566,-281.5 2404,-281.5"/>
</a>
</g>
</g>
<!-- ndPartFault&#45;&gt;ndPartOutcome -->
<g id="edge10" class="edge"><title>ndPartFault&#45;&gt;ndPartOutcome</title>
<path fill="none" stroke="black" d="M2485,-277.462C2485,-245.839 2485,-208.982 2485,-178.673"/>
<polygon fill="black" stroke="black" points="2485,-178.549 2481,-172.549 2485,-166.549 2489,-172.549 2485,-178.549"/>
</g>
<!-- ndPartFault&#45;&gt;ndKeyGen -->
<g id="edge11" class="edge"><title>ndPartFault&#45;&gt;ndKeyGen</title>
<path fill="none" stroke="black" d="M2403.06,-277.438C2398.12,-274.671 2393.08,-272.161 2388,-270 2207.27,-193.172 1657.2,-148.408 1359.81,-129.2"/>
<polygon fill="black" stroke="black" points="1349.77,-128.555 1360.04,-124.706 1354.76,-128.876 1359.75,-129.197 1359.75,-129.197 1359.75,-129.197 1354.76,-128.876 1359.46,-133.687 1349.77,-128.555 1349.77,-128.555"/>
</g>
<!-- ndMessage -->
<g id="node13" class="node"><title>ndMessage</title>
<g id="a_node13_12"><a xlink:href="https://github.com/maidsafe/bls_dkg/blob/master/src/key_gen/message.rs#:~:text=enum%20Message" xlink:title="&lt;TABLE&gt;">
<polygon fill="yellow" stroke="none" points="2239,-379.5 2239,-416.5 2370,-416.5 2370,-379.5 2239,-379.5"/>
<polygon fill="none" stroke="black" points="2239,-379.5 2239,-416.5 2370,-416.5 2370,-379.5 2239,-379.5"/>
<text text-anchor="start" x="2272.5" y="-395.3" font-family="Arial" font-weight="bold" font-size="14.00">Message</text>
<polygon fill="white" stroke="none" points="2239,-282.5 2239,-379.5 2370,-379.5 2370,-282.5 2239,-282.5"/>
<polygon fill="none" stroke="black" points="2239,-282.5 2239,-379.5 2370,-379.5 2370,-282.5 2239,-282.5"/>
<text text-anchor="start" x="2250" y="-357.3" font-family="Arial" font-size="14.00">Initialization</text>
<text text-anchor="start" x="2250" y="-342.3" font-family="Arial" font-size="14.00">Proposal</text>
<text text-anchor="start" x="2250" y="-327.3" font-family="Arial" font-size="14.00">Complaint</text>
<text text-anchor="start" x="2250" y="-312.3" font-family="Arial" font-size="14.00">Justification</text>
<text text-anchor="start" x="2250" y="-297.3" font-family="Arial" font-size="14.00">Acknowledgment</text>
<polygon fill="none" stroke="black" points="2237.5,-281.5 2237.5,-417.5 2370.5,-417.5 2370.5,-281.5 2237.5,-281.5"/>
</a>
</g>
</g>
<!-- ndMessage&#45;&gt;ndKeyGen -->
<g id="edge12" class="edge"><title>ndMessage&#45;&gt;ndKeyGen</title>
<path fill="none" stroke="black" stroke-dasharray="5,2" d="M2234.13,-277.37C2229.85,-274.642 2225.46,-272.158 2221,-270 2073.25,-198.595 1624.39,-153.259 1361.52,-132.084"/>
<polygon fill="black" stroke="black" points="1361.49,-132.082 1355.19,-135.591 1349.53,-131.125 1355.83,-127.616 1361.49,-132.082"/>
</g>
<!-- ndPeerId -->
<g id="node14" class="node"><title>ndPeerId</title>
<g id="a_node14_13"><a xlink:href="https://github.com/maidsafe/bls_dkg/blob/master/src/dev_utils/peer.rs#:~:text=struct%20PeerId" xlink:title="&lt;TABLE&gt;">
<polygon fill="lightblue" stroke="none" points="983,-574.5 983,-611.5 1158,-611.5 1158,-574.5 983,-574.5"/>
<polygon fill="none" stroke="black" points="983,-574.5 983,-611.5 1158,-611.5 1158,-574.5 983,-574.5"/>
<text text-anchor="start" x="1047.5" y="-590.3" font-family="Arial" font-weight="bold" font-size="14.00">PeerId</text>
<polygon fill="white" stroke="none" points="983,-507.5 983,-574.5 1158,-574.5 1158,-507.5 983,-507.5"/>
<polygon fill="none" stroke="black" points="983,-507.5 983,-574.5 1158,-574.5 1158,-507.5 983,-507.5"/>
<text text-anchor="start" x="994" y="-552.3" font-family="Arial" font-size="14.00">&#45; id: XorName</text>
<text text-anchor="start" x="994" y="-537.3" font-family="Arial" font-size="14.00">&#45; public_key: PublicKey</text>
<text text-anchor="start" x="994" y="-522.3" font-family="Arial" font-size="14.00">&#45; secret_key: SecretKey</text>
<polygon fill="none" stroke="black" points="981.5,-506.5 981.5,-612.5 1158.5,-612.5 1158.5,-506.5 981.5,-506.5"/>
</a>
</g>
</g>
</g>
</svg>
