<?xml version="1.0" encoding="UTF-8" standalone="no"?>
<!DOCTYPE svg PUBLIC "-//W3C//DTD SVG 1.1//EN"
 "http://www.w3.org/Graphics/SVG/1.1/DTD/svg11.dtd">
<!-- Generated by graphviz version 2.38.0 (20140413.2041)
 -->
<!-- Title: ml Pages: 1 -->
<svg width="1706pt" height="819pt"
 viewBox="0.00 0.00 1706.00 819.00" xmlns="http://www.w3.org/2000/svg" xmlns:xlink="http://www.w3.org/1999/xlink">
<g id="graph0" class="graph" transform="scale(1 1) rotate(0) translate(4 815)">
<title>ml</title>
<polygon fill="white" stroke="none" points="-4,4 -4,-815 1702,-815 1702,4 -4,4"/>
<!-- ndBlindSignatureError -->
<g id="node1" class="node"><title>ndBlindSignatureError</title>
<polygon fill="yellow" stroke="none" points="503.5,-715.5 503.5,-752.5 741.5,-752.5 741.5,-715.5 503.5,-715.5"/>
<polygon fill="none" stroke="black" points="503.5,-715.5 503.5,-752.5 741.5,-752.5 741.5,-715.5 503.5,-715.5"/>
<text text-anchor="start" x="552" y="-731.3" font-family="Arial" font-weight="bold" font-size="14.00">BlindSignatureError</text>
<polygon fill="white" stroke="none" points="503.5,-648.5 503.5,-715.5 741.5,-715.5 741.5,-648.5 503.5,-648.5"/>
<polygon fill="none" stroke="black" points="503.5,-648.5 503.5,-715.5 741.5,-715.5 741.5,-648.5 503.5,-648.5"/>
<text text-anchor="start" x="514.5" y="-693.3" font-family="Arial" font-size="14.00">Blst(BLST_ERROR)</text>
<text text-anchor="start" x="514.5" y="-678.3" font-family="Arial" font-size="14.00">BlsttcFromBytes(FromBytesError)</text>
<text text-anchor="start" x="514.5" y="-663.3" font-family="Arial" font-size="14.00">InvalidBytes(TryFromSliceError)</text>
<polygon fill="white" stroke="none" points="503.5,-611.5 503.5,-648.5 741.5,-648.5 741.5,-611.5 503.5,-611.5"/>
<polygon fill="none" stroke="black" points="503.5,-611.5 503.5,-648.5 741.5,-648.5 741.5,-611.5 503.5,-611.5"/>
<text text-anchor="start" x="514.5" y="-626.3" font-family="Arial" font-size="14.00">&#45; from(e: BLST_ERROR) &#45;&gt; Self</text>
<polygon fill="none" stroke="black" points="502.5,-611 502.5,-754 742.5,-754 742.5,-611 502.5,-611"/>
</g>
<!-- ndSignedEnvelopeShare -->
<g id="node2" class="node"><title>ndSignedEnvelopeShare</title>
<polygon fill="lightblue" stroke="none" points="9.5,-476 9.5,-513 638.5,-513 638.5,-476 9.5,-476"/>
<polygon fill="none" stroke="black" points="9.5,-476 9.5,-513 638.5,-513 638.5,-476 9.5,-476"/>
<text text-anchor="start" x="246" y="-491.8" font-family="Arial" font-weight="bold" font-size="14.00">SignedEnvelopeShare</text>
<polygon fill="white" stroke="none" points="9.5,-409 9.5,-476 638.5,-476 638.5,-409 9.5,-409"/>
<polygon fill="none" stroke="black" points="9.5,-409 9.5,-476 638.5,-476 638.5,-409 9.5,-409"/>
<text text-anchor="start" x="20.5" y="-453.8" font-family="Arial" font-size="14.00">+ envelope: Envelope</text>
<text text-anchor="start" x="20.5" y="-438.8" font-family="Arial" font-size="14.00">&#45; sig_share: SignatureShare</text>
<text text-anchor="start" x="20.5" y="-423.8" font-family="Arial" font-size="14.00">&#45; sig_share_index: Fr</text>
<polygon fill="white" stroke="none" points="9.5,-297 9.5,-409 638.5,-409 638.5,-297 9.5,-297"/>
<polygon fill="none" stroke="black" points="9.5,-297 9.5,-409 638.5,-409 638.5,-297 9.5,-297"/>
<text text-anchor="start" x="20.5" y="-386.8" font-family="Arial" font-size="14.00">&#45; new(envelope: Envelope, sig_share: SignatureShare, sig_share_index: T) &#45;&gt; Self</text>
<text text-anchor="start" x="20.5" y="-371.8" font-family="Arial" font-size="14.00">&#45; signature_share_for_envelope(&amp;self) &#45;&gt; &amp;SignatureShare</text>
<text text-anchor="start" x="20.5" y="-356.8" font-family="Arial" font-size="14.00">&#45; signature_share_for_envelope_with_index(&amp;self) &#45;&gt; (Fr, &amp;SignatureShare)</text>
<text text-anchor="start" x="20.5" y="-341.8" font-family="Arial" font-size="14.00">&#45; signature_share_index(&amp;self) &#45;&gt; Fr</text>
<text text-anchor="start" x="20.5" y="-326.8" font-family="Arial" font-size="14.00">&#45; signature_share_for_slip(&amp;self, blinding_factor: Fr) &#45;&gt; Result&lt;SignatureShare&gt;</text>
<text text-anchor="start" x="20.5" y="-311.8" font-family="Arial" font-size="14.00">&#45; signature_share_for_slip_with_index(&amp;self, blinding_factor: Fr) &#45;&gt; Result&lt;(Fr, SignatureShare)&gt;</text>
<polygon fill="none" stroke="black" points="8,-296 8,-514 639,-514 639,-296 8,-296"/>
</g>
<!-- ndBlindSignerShare -->
<g id="node3" class="node"><title>ndBlindSignerShare</title>
<polygon fill="lightblue" stroke="none" points="265.5,-214 265.5,-251 734.5,-251 734.5,-214 265.5,-214"/>
<polygon fill="none" stroke="black" points="265.5,-214 265.5,-251 734.5,-251 734.5,-214 265.5,-214"/>
<text text-anchor="start" x="438" y="-229.8" font-family="Arial" font-weight="bold" font-size="14.00">BlindSignerShare</text>
<polygon fill="white" stroke="none" points="265.5,-147 265.5,-214 734.5,-214 734.5,-147 265.5,-147"/>
<polygon fill="none" stroke="black" points="265.5,-147 265.5,-214 734.5,-214 734.5,-147 265.5,-147"/>
<text text-anchor="start" x="276.5" y="-191.8" font-family="Arial" font-size="14.00">&#45; sks: SecretKeyShare</text>
<text text-anchor="start" x="276.5" y="-176.8" font-family="Arial" font-size="14.00">&#45; sks_index: Fr</text>
<text text-anchor="start" x="276.5" y="-161.8" font-family="Arial" font-size="14.00">&#45; pks: PublicKeySet</text>
<polygon fill="white" stroke="none" points="265.5,-5 265.5,-147 734.5,-147 734.5,-5 265.5,-5"/>
<polygon fill="none" stroke="black" points="265.5,-5 265.5,-147 734.5,-147 734.5,-5 265.5,-5"/>
<text text-anchor="start" x="276.5" y="-124.8" font-family="Arial" font-size="14.00">&#45; new(sks: SecretKeyShare, sks_index: T, pks: PublicKeySet) &#45;&gt; Self</text>
<text text-anchor="start" x="276.5" y="-109.8" font-family="Arial" font-size="14.00">&#45; derive_child(&amp;self, index: &amp;[u8]) &#45;&gt; Self</text>
<text text-anchor="start" x="276.5" y="-94.8" font-family="Arial" font-size="14.00">&#45; secret_key_share(&amp;self) &#45;&gt; &amp;SecretKeyShare</text>
<text text-anchor="start" x="276.5" y="-79.8" font-family="Arial" font-size="14.00">&#45; secret_key_share_index(&amp;self) &#45;&gt; Fr</text>
<text text-anchor="start" x="276.5" y="-64.8" font-family="Arial" font-size="14.00">&#45; secret_key_share_with_index(&amp;self) &#45;&gt; (Fr, &amp;SecretKeyShare)</text>
<text text-anchor="start" x="276.5" y="-49.8" font-family="Arial" font-size="14.00">&#45; public_key_set(&amp;self) &#45;&gt; &amp;PublicKeySet</text>
<text text-anchor="start" x="276.5" y="-34.8" font-family="Arial" font-size="14.00">&#45; public_key(&amp;self) &#45;&gt; PublicKey</text>
<text text-anchor="start" x="276.5" y="-19.8" font-family="Arial" font-size="14.00">&#45; sign_envelope(&amp;self, e: Envelope) &#45;&gt; Result&lt;SignedEnvelopeShare&gt;</text>
<polygon fill="none" stroke="black" points="264,-4 264,-252 735,-252 735,-4 264,-4"/>
</g>
<!-- ndSignedEnvelopeShare&#45;&gt;ndBlindSignerShare -->
<g id="edge1" class="edge"><title>ndSignedEnvelopeShare&#45;&gt;ndBlindSignerShare</title>
<path fill="none" stroke="black" d="M395.34,-291.75C401.03,-282.859 406.814,-273.822 412.591,-264.795"/>
<polygon fill="black" stroke="black" points="418.126,-256.148 416.525,-266.996 415.43,-260.359 412.735,-264.57 412.735,-264.57 412.735,-264.57 415.43,-260.359 408.945,-262.145 418.126,-256.148 418.126,-256.148"/>
</g>
<!-- ndSlipPreparer -->
<g id="node4" class="node"><title>ndSlipPreparer</title>
<polygon fill="lightblue" stroke="none" points="712.5,-461 712.5,-498 1086.5,-498 1086.5,-461 712.5,-461"/>
<polygon fill="none" stroke="black" points="712.5,-461 712.5,-498 1086.5,-498 1086.5,-461 712.5,-461"/>
<text text-anchor="start" x="855.5" y="-476.8" font-family="Arial" font-weight="bold" font-size="14.00">SlipPreparer</text>
<polygon fill="white" stroke="none" points="712.5,-424 712.5,-461 1086.5,-461 1086.5,-424 712.5,-424"/>
<polygon fill="none" stroke="black" points="712.5,-424 712.5,-461 1086.5,-461 1086.5,-424 712.5,-424"/>
<text text-anchor="start" x="723.5" y="-438.8" font-family="Arial" font-size="14.00">&#45; blinding_factor: Fr</text>
<polygon fill="white" stroke="none" points="712.5,-312 712.5,-424 1086.5,-424 1086.5,-312 712.5,-312"/>
<polygon fill="none" stroke="black" points="712.5,-312 712.5,-424 1086.5,-424 1086.5,-312 712.5,-312"/>
<text text-anchor="start" x="723.5" y="-401.8" font-family="Arial" font-size="14.00">&#45; new() &#45;&gt; Result&lt;Self&gt;</text>
<text text-anchor="start" x="723.5" y="-386.8" font-family="Arial" font-size="14.00">&#45; from_fr(v: V) &#45;&gt; Self</text>
<text text-anchor="start" x="723.5" y="-371.8" font-family="Arial" font-size="14.00">&#45; blinding_factor(&amp;self) &#45;&gt; Fr</text>
<text text-anchor="start" x="723.5" y="-356.8" font-family="Arial" font-size="14.00">&#45; place_slip_in_envelope(&amp;self, slip: &amp;Slip) &#45;&gt; Envelope</text>
<text text-anchor="start" x="723.5" y="-341.8" font-family="Arial" font-size="14.00">&#45; default() &#45;&gt; Self</text>
<text text-anchor="start" x="723.5" y="-326.8" font-family="Arial" font-size="14.00">&#45; try_from(b: [u8; 32]) &#45;&gt; Result&lt;Self&gt;</text>
<polygon fill="none" stroke="black" points="711.5,-311 711.5,-499 1087.5,-499 1087.5,-311 711.5,-311"/>
</g>
<!-- ndEnvelope -->
<g id="node5" class="node"><title>ndEnvelope</title>
<polygon fill="lightblue" stroke="none" points="777.5,-768.5 777.5,-805.5 1021.5,-805.5 1021.5,-768.5 777.5,-768.5"/>
<polygon fill="none" stroke="black" points="777.5,-768.5 777.5,-805.5 1021.5,-805.5 1021.5,-768.5 777.5,-768.5"/>
<text text-anchor="start" x="866.5" y="-784.3" font-family="Arial" font-weight="bold" font-size="14.00">Envelope</text>
<polygon fill="white" stroke="none" points="777.5,-731.5 777.5,-768.5 1021.5,-768.5 1021.5,-731.5 777.5,-731.5"/>
<polygon fill="none" stroke="black" points="777.5,-731.5 777.5,-768.5 1021.5,-768.5 1021.5,-731.5 777.5,-731.5"/>
<text text-anchor="start" x="788.5" y="-746.3" font-family="Arial" font-size="14.00">&#45; blinded_msg: G2</text>
<polygon fill="white" stroke="none" points="777.5,-558.5 777.5,-731.5 1021.5,-731.5 1021.5,-558.5 777.5,-558.5"/>
<polygon fill="none" stroke="black" points="777.5,-558.5 777.5,-731.5 1021.5,-731.5 1021.5,-558.5 777.5,-558.5"/>
<text text-anchor="start" x="788.5" y="-709.3" font-family="Arial" font-size="14.00">&#45; blinded_msg(&amp;self) &#45;&gt; G2</text>
<text text-anchor="start" x="788.5" y="-694.3" font-family="Arial" font-size="14.00">&#45; to_bytes(&amp;self) &#45;&gt; [u8; 96]</text>
<text text-anchor="start" x="788.5" y="-679.3" font-family="Arial" font-size="14.00">&#45; eq(&amp;self, other: &amp;Self) &#45;&gt; bool</text>
<text text-anchor="start" x="788.5" y="-647.5" font-family="Arial" font-size="14.00">&#45; hash(&amp;self, state: &amp;mut H)</text>
<text text-anchor="start" x="788.5" y="-632.5" font-family="Arial" font-size="14.00">&#45; from(blinded_msg: G2) &#45;&gt; Self</text>
<text text-anchor="start" x="788.5" y="-617.5" font-family="Arial" font-size="14.00">&#45; from(b: [u8; 96]) &#45;&gt; Self</text>
<text text-anchor="start" x="788.5" y="-602.5" font-family="Arial" font-size="14.00">&#45; try_from(b: &amp;[u8]) &#45;&gt; Result&lt;Self&gt;</text>
<text text-anchor="start" x="788.5" y="-587.5" font-family="Arial" font-size="14.00">&#45; into(self) &#45;&gt; [u8; 96]</text>
<text text-anchor="start" x="788.5" y="-572.5" font-family="Arial" font-size="14.00">&#45; into(self) &#45;&gt; Vec&lt;u8&gt;</text>
<polygon fill="none" stroke="black" points="776.5,-558 776.5,-807 1022.5,-807 1022.5,-558 776.5,-558"/>
</g>
<!-- ndEnvelope&#45;&gt;ndSignedEnvelopeShare -->
<g id="edge2" class="edge"><title>ndEnvelope&#45;&gt;ndSignedEnvelopeShare</title>
<path fill="none" stroke="black" stroke-dasharray="5,2" d="M768.39,-559.465C765.438,-557.578 762.473,-555.754 759.5,-554 753.022,-550.179 712.66,-535.809 658.901,-517.426"/>
<polygon fill="black" stroke="black" points="658.59,-517.32 651.619,-519.167 647.233,-513.444 654.203,-511.596 658.59,-517.32"/>
</g>
<!-- ndEnvelope&#45;&gt;ndBlindSignerShare -->
<g id="edge3" class="edge"><title>ndEnvelope&#45;&gt;ndBlindSignerShare</title>
<path fill="none" stroke="black" stroke-dasharray="5,2" d="M768.327,-560.478C765.383,-558.27 762.438,-556.108 759.5,-554 732.666,-534.752 713.633,-544.917 694.5,-518 635.446,-434.921 701.405,-383.007 655.5,-292 650.821,-282.724 645.437,-273.62 639.544,-264.753"/>
<polygon fill="black" stroke="black" points="633.745,-256.326 643.121,-262.013 636.58,-260.445 639.414,-264.564 639.414,-264.564 639.414,-264.564 636.58,-260.445 635.707,-267.115 633.745,-256.326 633.745,-256.326"/>
</g>
<!-- ndEnvelope&#45;&gt;ndSlipPreparer -->
<g id="edge4" class="edge"><title>ndEnvelope&#45;&gt;ndSlipPreparer</title>
<path fill="none" stroke="black" d="M899.5,-553.831C899.5,-540.259 899.5,-526.556 899.5,-513.253"/>
<polygon fill="black" stroke="black" points="899.5,-503.167 904,-513.167 899.5,-508.167 899.5,-513.167 899.5,-513.167 899.5,-513.167 899.5,-508.167 895,-513.167 899.5,-503.167 899.5,-503.167"/>
</g>
<!-- ndSignedEnvelope -->
<g id="node6" class="node"><title>ndSignedEnvelope</title>
<polygon fill="lightblue" stroke="none" points="1123.5,-438 1123.5,-475 1566.5,-475 1566.5,-438 1123.5,-438"/>
<polygon fill="none" stroke="black" points="1123.5,-438 1123.5,-475 1566.5,-475 1566.5,-438 1123.5,-438"/>
<text text-anchor="start" x="1287.5" y="-453.8" font-family="Arial" font-weight="bold" font-size="14.00">SignedEnvelope</text>
<polygon fill="white" stroke="none" points="1123.5,-386 1123.5,-438 1566.5,-438 1566.5,-386 1123.5,-386"/>
<polygon fill="none" stroke="black" points="1123.5,-386 1123.5,-438 1566.5,-438 1566.5,-386 1123.5,-386"/>
<text text-anchor="start" x="1134.5" y="-415.8" font-family="Arial" font-size="14.00">+ envelope: Envelope</text>
<text text-anchor="start" x="1134.5" y="-400.8" font-family="Arial" font-size="14.00">&#45; signature: Signature</text>
<polygon fill="white" stroke="none" points="1123.5,-334 1123.5,-386 1566.5,-386 1566.5,-334 1123.5,-334"/>
<polygon fill="none" stroke="black" points="1123.5,-334 1123.5,-386 1566.5,-386 1566.5,-334 1123.5,-334"/>
<text text-anchor="start" x="1134.5" y="-363.8" font-family="Arial" font-size="14.00">&#45; signature_on_envelope(&amp;self) &#45;&gt; &amp;Signature</text>
<text text-anchor="start" x="1134.5" y="-348.8" font-family="Arial" font-size="14.00">&#45; signature_on_slip(&amp;self, blinding_factor: Fr) &#45;&gt; Result&lt;Signature&gt;</text>
<polygon fill="none" stroke="black" points="1122,-333.5 1122,-476.5 1567,-476.5 1567,-333.5 1122,-333.5"/>
</g>
<!-- ndEnvelope&#45;&gt;ndSignedEnvelope -->
<g id="edge5" class="edge"><title>ndEnvelope&#45;&gt;ndSignedEnvelope</title>
<path fill="none" stroke="black" d="M1030.61,-600.331C1088.29,-564.62 1155.89,-522.768 1213.55,-487.069"/>
<polygon fill="black" stroke="black" points="1213.63,-487.024 1216.62,-480.465 1223.83,-480.708 1220.83,-487.267 1213.63,-487.024"/>
</g>
<!-- ndBlindSigner -->
<g id="node7" class="node"><title>ndBlindSigner</title>
<polygon fill="lightblue" stroke="none" points="1258.5,-176 1258.5,-213 1689.5,-213 1689.5,-176 1258.5,-176"/>
<polygon fill="none" stroke="black" points="1258.5,-176 1258.5,-213 1689.5,-213 1689.5,-176 1258.5,-176"/>
<text text-anchor="start" x="1433" y="-191.8" font-family="Arial" font-weight="bold" font-size="14.00">BlindSigner</text>
<polygon fill="white" stroke="none" points="1258.5,-139 1258.5,-176 1689.5,-176 1689.5,-139 1258.5,-139"/>
<polygon fill="none" stroke="black" points="1258.5,-139 1258.5,-176 1689.5,-176 1689.5,-139 1258.5,-139"/>
<text text-anchor="start" x="1269.5" y="-153.8" font-family="Arial" font-size="14.00">&#45; sk: SecretKey</text>
<polygon fill="white" stroke="none" points="1258.5,-42 1258.5,-139 1689.5,-139 1689.5,-42 1258.5,-42"/>
<polygon fill="none" stroke="black" points="1258.5,-42 1258.5,-139 1689.5,-139 1689.5,-42 1258.5,-42"/>
<text text-anchor="start" x="1269.5" y="-116.8" font-family="Arial" font-size="14.00">&#45; new() &#45;&gt; Self</text>
<text text-anchor="start" x="1269.5" y="-101.8" font-family="Arial" font-size="14.00">&#45; public_key(&amp;self) &#45;&gt; PublicKey</text>
<text text-anchor="start" x="1269.5" y="-86.8" font-family="Arial" font-size="14.00">&#45; sign_envelope(&amp;self, e: Envelope) &#45;&gt; Result&lt;SignedEnvelope&gt;</text>
<text text-anchor="start" x="1269.5" y="-71.8" font-family="Arial" font-size="14.00">&#45; from(b: [u8; 32]) &#45;&gt; Self</text>
<text text-anchor="start" x="1269.5" y="-56.8" font-family="Arial" font-size="14.00">&#45; from(sk: SecretKey) &#45;&gt; Self</text>
<polygon fill="none" stroke="black" points="1257,-41.5 1257,-214.5 1690,-214.5 1690,-41.5 1257,-41.5"/>
</g>
<!-- ndEnvelope&#45;&gt;ndBlindSigner -->
<g id="edge6" class="edge"><title>ndEnvelope&#45;&gt;ndBlindSigner</title>
<path fill="none" stroke="black" stroke-dasharray="5,2" d="M1030.86,-669.21C1210.1,-649.413 1516.84,-603.71 1584.5,-518 1646.74,-439.16 1614.08,-387.99 1584.5,-292 1577.62,-269.669 1566.52,-247.66 1553.93,-227.388"/>
<polygon fill="black" stroke="black" points="1548.46,-218.81 1557.63,-224.818 1551.15,-223.025 1553.84,-227.24 1553.84,-227.24 1553.84,-227.24 1551.15,-223.025 1550.05,-229.661 1548.46,-218.81 1548.46,-218.81"/>
</g>
<!-- ndSignedEnvelope&#45;&gt;ndBlindSigner -->
<g id="edge7" class="edge"><title>ndSignedEnvelope&#45;&gt;ndBlindSigner</title>
<path fill="none" stroke="black" d="M1379.58,-329.218C1394.17,-298.107 1411.33,-261.543 1426.95,-228.235"/>
<polygon fill="black" stroke="black" points="1431.31,-218.934 1431.14,-229.898 1429.19,-223.46 1427.07,-227.987 1427.07,-227.987 1427.07,-227.987 1429.19,-223.46 1422.99,-226.076 1431.31,-218.934 1431.31,-218.934"/>
</g>
</g>
</svg>
