<?xml version="1.0" encoding="UTF-8" standalone="no"?>
<!DOCTYPE svg PUBLIC "-//W3C//DTD SVG 1.1//EN"
 "http://www.w3.org/Graphics/SVG/1.1/DTD/svg11.dtd">
<!-- Generated by graphviz version 2.38.0 (20140413.2041)
 -->
<!-- Title: ml Pages: 1 -->
<svg width="2954pt" height="422pt"
 viewBox="0.00 0.00 2953.76 422.00" xmlns="http://www.w3.org/2000/svg" xmlns:xlink="http://www.w3.org/1999/xlink">
<g id="graph0" class="graph" transform="scale(1 1) rotate(0) translate(4 418)">
<title>ml</title>
<polygon fill="white" stroke="none" points="-4,4 -4,-418 2949.76,-418 2949.76,4 -4,4"/>
<!-- ndBlindSignatureError -->
<g id="node1" class="node"><title>ndBlindSignatureError</title>
<g id="a_node1_0"><a xlink:href="https://github.com/dan-da/blsbs/blob/master/src/error.rs#:~:text=enum%20BlindSignatureError" xlink:title="&lt;TABLE&gt;">
<polygon fill="yellow" stroke="none" points="1159.5,-372 1159.5,-409 1397.5,-409 1397.5,-372 1159.5,-372"/>
<polygon fill="none" stroke="black" points="1159.5,-372 1159.5,-409 1397.5,-409 1397.5,-372 1159.5,-372"/>
<text text-anchor="start" x="1208" y="-387.8" font-family="Arial" font-weight="bold" font-size="14.00">BlindSignatureError</text>
<polygon fill="white" stroke="none" points="1159.5,-305 1159.5,-372 1397.5,-372 1397.5,-305 1159.5,-305"/>
<polygon fill="none" stroke="black" points="1159.5,-305 1159.5,-372 1397.5,-372 1397.5,-305 1159.5,-305"/>
<text text-anchor="start" x="1170.5" y="-349.8" font-family="Arial" font-size="14.00">Blst(BLST_ERROR)</text>
<text text-anchor="start" x="1170.5" y="-334.8" font-family="Arial" font-size="14.00">BlsttcFromBytes(FromBytesError)</text>
<text text-anchor="start" x="1170.5" y="-319.8" font-family="Arial" font-size="14.00">InvalidBytes(TryFromSliceError)</text>
<polygon fill="none" stroke="black" points="1158.5,-304 1158.5,-410 1398.5,-410 1398.5,-304 1158.5,-304"/>
</a>
</g>
</g>
<!-- ndSignedEnvelopeShare -->
<g id="node2" class="node"><title>ndSignedEnvelopeShare</title>
<g id="a_node2_1"><a xlink:href="https://github.com/dan-da/blsbs/blob/master/src/shares.rs#:~:text=struct%20SignedEnvelopeShare" xlink:title="&lt;TABLE&gt;">
<polygon fill="lightblue" stroke="none" points="9.5,-222 9.5,-259 1350.5,-259 1350.5,-222 9.5,-222"/>
<polygon fill="none" stroke="black" points="9.5,-222 9.5,-259 1350.5,-259 1350.5,-222 9.5,-222"/>
<text text-anchor="start" x="20.5" y="-237.8" font-family="Arial" font-weight="bold" font-size="14.00">pub struct SignedEnvelopeShare { &#160;&#160;&#160;pub envelope: Envelope, &#160;&#160;&#160;sig_share: SignatureShare, &#160;&#160;&#160;#[serde(serialize_with = &quot;fr_serialize&quot;, deserialize_with = &quot;fr_deserialize&quot;)] &#160;&#160;&#160;sig_share_index: Fr,}</text>
<polygon fill="white" stroke="none" points="9.5,-155 9.5,-222 1350.5,-222 1350.5,-155 9.5,-155"/>
<polygon fill="none" stroke="black" points="9.5,-155 9.5,-222 1350.5,-222 1350.5,-155 9.5,-155"/>
<text text-anchor="start" x="20.5" y="-199.8" font-family="Arial" font-size="14.00">+ envelope: Envelope</text>
<text text-anchor="start" x="20.5" y="-184.8" font-family="Arial" font-size="14.00">&#45; sig_share: SignatureShare</text>
<text text-anchor="start" x="20.5" y="-169.8" font-family="Arial" font-size="14.00">&#45; sig_share_index: Fr</text>
<polygon fill="none" stroke="black" points="8,-154 8,-260 1351,-260 1351,-154 8,-154"/>
</a>
</g>
</g>
<!-- ndBlindSignerShare -->
<g id="node3" class="node"><title>ndBlindSignerShare</title>
<g id="a_node3_2"><a xlink:href="https://github.com/dan-da/blsbs/blob/master/src/shares.rs#:~:text=struct%20BlindSignerShare" xlink:title="&lt;TABLE&gt;">
<polygon fill="lightblue" stroke="none" points="703.5,-72 703.5,-109 1363.5,-109 1363.5,-72 703.5,-72"/>
<polygon fill="none" stroke="black" points="703.5,-72 703.5,-109 1363.5,-109 1363.5,-72 703.5,-72"/>
<text text-anchor="start" x="714.5" y="-87.8" font-family="Arial" font-weight="bold" font-size="14.00">pub struct BlindSignerShare { &#160;&#160;&#160;sks: SecretKeyShare, &#160;&#160;&#160;sks_index: Fr, &#160;&#160;&#160;pks: PublicKeySet,}</text>
<polygon fill="white" stroke="none" points="703.5,-5 703.5,-72 1363.5,-72 1363.5,-5 703.5,-5"/>
<polygon fill="none" stroke="black" points="703.5,-5 703.5,-72 1363.5,-72 1363.5,-5 703.5,-5"/>
<text text-anchor="start" x="714.5" y="-49.8" font-family="Arial" font-size="14.00">&#45; sks: SecretKeyShare</text>
<text text-anchor="start" x="714.5" y="-34.8" font-family="Arial" font-size="14.00">&#45; sks_index: Fr</text>
<text text-anchor="start" x="714.5" y="-19.8" font-family="Arial" font-size="14.00">&#45; pks: PublicKeySet</text>
<polygon fill="none" stroke="black" points="702.5,-4 702.5,-110 1364.5,-110 1364.5,-4 702.5,-4"/>
</a>
</g>
</g>
<!-- ndSignedEnvelopeShare&#45;&gt;ndBlindSignerShare -->
<g id="edge1" class="edge"><title>ndSignedEnvelopeShare&#45;&gt;ndBlindSignerShare</title>
<path fill="none" stroke="black" d="M813.585,-149.942C838.595,-139.486 864.822,-128.521 890.1,-117.952"/>
<polygon fill="black" stroke="black" points="899.366,-114.078 891.876,-122.088 894.753,-116.007 890.14,-117.936 890.14,-117.936 890.14,-117.936 894.753,-116.007 888.404,-113.784 899.366,-114.078 899.366,-114.078"/>
</g>
<!-- ndSlipPreparer -->
<g id="node4" class="node"><title>ndSlipPreparer</title>
<g id="a_node4_3"><a xlink:href="https://github.com/dan-da/blsbs/blob/master/src/blind_sigs.rs#:~:text=struct%20SlipPreparer" xlink:title="&lt;TABLE&gt;">
<polygon fill="lightblue" stroke="none" points="1424.5,-207 1424.5,-244 2294.5,-244 2294.5,-207 1424.5,-207"/>
<polygon fill="none" stroke="black" points="1424.5,-207 1424.5,-244 2294.5,-244 2294.5,-207 1424.5,-207"/>
<text text-anchor="start" x="1435.5" y="-222.8" font-family="Arial" font-weight="bold" font-size="14.00">pub struct SlipPreparer { &#160;&#160;&#160;#[serde(serialize_with = &quot;fr_serialize&quot;, deserialize_with = &quot;fr_deserialize&quot;)] &#160;&#160;&#160;blinding_factor: Fr,}</text>
<polygon fill="white" stroke="none" points="1424.5,-170 1424.5,-207 2294.5,-207 2294.5,-170 1424.5,-170"/>
<polygon fill="none" stroke="black" points="1424.5,-170 1424.5,-207 2294.5,-207 2294.5,-170 1424.5,-170"/>
<text text-anchor="start" x="1435.5" y="-184.8" font-family="Arial" font-size="14.00">&#45; blinding_factor: Fr</text>
<polygon fill="none" stroke="black" points="1423.5,-169 1423.5,-245 2295.5,-245 2295.5,-169 1423.5,-169"/>
</a>
</g>
</g>
<!-- ndEnvelope -->
<g id="node5" class="node"><title>ndEnvelope</title>
<g id="a_node5_4"><a xlink:href="https://github.com/dan-da/blsbs/blob/master/src/blind_sigs.rs#:~:text=struct%20Envelope" xlink:title="&lt;TABLE&gt;">
<polygon fill="lightblue" stroke="none" points="1434.5,-357 1434.5,-394 2285.5,-394 2285.5,-357 1434.5,-357"/>
<polygon fill="none" stroke="black" points="1434.5,-357 1434.5,-394 2285.5,-394 2285.5,-357 1434.5,-357"/>
<text text-anchor="start" x="1445.5" y="-372.8" font-family="Arial" font-weight="bold" font-size="14.00">pub struct Envelope { &#160;&#160;&#160;#[serde(serialize_with = &quot;g2_serialize&quot;, deserialize_with = &quot;g2_deserialize&quot;)] &#160;&#160;&#160;blinded_msg: G2,}</text>
<polygon fill="white" stroke="none" points="1434.5,-320 1434.5,-357 2285.5,-357 2285.5,-320 1434.5,-320"/>
<polygon fill="none" stroke="black" points="1434.5,-320 1434.5,-357 2285.5,-357 2285.5,-320 1434.5,-320"/>
<text text-anchor="start" x="1445.5" y="-334.8" font-family="Arial" font-size="14.00">&#45; blinded_msg: G2</text>
<polygon fill="none" stroke="black" points="1433,-319 1433,-395 2286,-395 2286,-319 1433,-319"/>
</a>
</g>
</g>
<!-- ndEnvelope&#45;&gt;ndSignedEnvelopeShare -->
<g id="edge2" class="edge"><title>ndEnvelope&#45;&gt;ndSignedEnvelopeShare</title>
<path fill="none" stroke="black" stroke-dasharray="5,2" d="M1534.57,-314.976C1494.47,-309.925 1454.04,-304.84 1415.5,-300 1326.6,-288.838 1231.67,-276.948 1140.53,-265.55"/>
<polygon fill="black" stroke="black" points="1140.48,-265.543 1134.03,-268.767 1128.57,-264.054 1135.02,-260.829 1140.48,-265.543"/>
</g>
<!-- ndEnvelope&#45;&gt;ndBlindSignerShare -->
<g id="edge3" class="edge"><title>ndEnvelope&#45;&gt;ndBlindSignerShare</title>
<path fill="none" stroke="black" stroke-dasharray="5,2" d="M1543.74,-314.941C1482.74,-301.743 1430.35,-284.953 1406.5,-264 1366.27,-228.659 1406.5,-186.696 1367.5,-150 1355.14,-138.372 1341.45,-128.189 1326.87,-119.275"/>
<polygon fill="black" stroke="black" points="1318.19,-114.171 1329.09,-115.358 1322.5,-116.705 1326.81,-119.238 1326.81,-119.238 1326.81,-119.238 1322.5,-116.705 1324.53,-123.118 1318.19,-114.171 1318.19,-114.171"/>
</g>
<!-- ndEnvelope&#45;&gt;ndSlipPreparer -->
<g id="edge4" class="edge"><title>ndEnvelope&#45;&gt;ndSlipPreparer</title>
<path fill="none" stroke="black" d="M1859.5,-314.774C1859.5,-297.534 1859.5,-277.32 1859.5,-259.145"/>
<polygon fill="black" stroke="black" points="1859.5,-249.005 1864,-259.005 1859.5,-254.005 1859.5,-259.005 1859.5,-259.005 1859.5,-259.005 1859.5,-254.005 1855,-259.005 1859.5,-249.005 1859.5,-249.005"/>
</g>
<!-- ndSignedEnvelope -->
<g id="node6" class="node"><title>ndSignedEnvelope</title>
<g id="a_node6_5"><a xlink:href="https://github.com/dan-da/blsbs/blob/master/src/blind_sigs.rs#:~:text=struct%20SignedEnvelope" xlink:title="&lt;TABLE&gt;">
<polygon fill="lightblue" stroke="none" points="2331.5,-214 2331.5,-251 2906.5,-251 2906.5,-214 2331.5,-214"/>
<polygon fill="none" stroke="black" points="2331.5,-214 2331.5,-251 2906.5,-251 2906.5,-214 2331.5,-214"/>
<text text-anchor="start" x="2342.5" y="-229.8" font-family="Arial" font-weight="bold" font-size="14.00">pub struct SignedEnvelope { &#160;&#160;&#160;pub envelope: Envelope, &#160;&#160;&#160;signature: Signature,}</text>
<polygon fill="white" stroke="none" points="2331.5,-162 2331.5,-214 2906.5,-214 2906.5,-162 2331.5,-162"/>
<polygon fill="none" stroke="black" points="2331.5,-162 2331.5,-214 2906.5,-214 2906.5,-162 2331.5,-162"/>
<text text-anchor="start" x="2342.5" y="-191.8" font-family="Arial" font-size="14.00">+ envelope: Envelope</text>
<text text-anchor="start" x="2342.5" y="-176.8" font-family="Arial" font-size="14.00">&#45; signature: Signature</text>
<polygon fill="none" stroke="black" points="2330,-161.5 2330,-252.5 2907,-252.5 2907,-161.5 2330,-161.5"/>
</a>
</g>
</g>
<!-- ndEnvelope&#45;&gt;ndSignedEnvelope -->
<g id="edge5" class="edge"><title>ndEnvelope&#45;&gt;ndSignedEnvelope</title>
<path fill="none" stroke="black" d="M2069.92,-314.97C2159,-297.599 2263.72,-277.18 2357.65,-258.864"/>
<polygon fill="black" stroke="black" points="2357.86,-258.823 2362.99,-253.748 2369.64,-256.526 2364.52,-261.601 2357.86,-258.823"/>
</g>
<!-- ndBlindSigner -->
<g id="node7" class="node"><title>ndBlindSigner</title>
<g id="a_node7_6"><a xlink:href="https://github.com/dan-da/blsbs/blob/master/src/blind_sigs.rs#:~:text=struct%20BlindSigner" xlink:title="&lt;TABLE&gt;">
<polygon fill="lightblue" stroke="none" points="2626.5,-57 2626.5,-94 2935.5,-94 2935.5,-57 2626.5,-57"/>
<polygon fill="none" stroke="black" points="2626.5,-57 2626.5,-94 2935.5,-94 2935.5,-57 2626.5,-57"/>
<text text-anchor="start" x="2637.5" y="-72.8" font-family="Arial" font-weight="bold" font-size="14.00">pub struct BlindSigner { &#160;&#160;&#160;sk: SecretKey,}</text>
<polygon fill="white" stroke="none" points="2626.5,-20 2626.5,-57 2935.5,-57 2935.5,-20 2626.5,-20"/>
<polygon fill="none" stroke="black" points="2626.5,-20 2626.5,-57 2935.5,-57 2935.5,-20 2626.5,-20"/>
<text text-anchor="start" x="2637.5" y="-34.8" font-family="Arial" font-size="14.00">&#45; sk: SecretKey</text>
<polygon fill="none" stroke="black" points="2625,-19 2625,-95 2936,-95 2936,-19 2625,-19"/>
</a>
</g>
</g>
<!-- ndEnvelope&#45;&gt;ndBlindSigner -->
<g id="edge6" class="edge"><title>ndEnvelope&#45;&gt;ndBlindSigner</title>
<path fill="none" stroke="black" stroke-dasharray="5,2" d="M2294.32,-345.728C2568.89,-334.606 2879.87,-311.566 2923.5,-264 2957.75,-226.662 2947.77,-194.475 2923.5,-150 2913.72,-132.073 2898.78,-117.117 2882.19,-104.835"/>
<polygon fill="black" stroke="black" points="2873.92,-99.0191 2884.69,-101.095 2878.01,-101.897 2882.1,-104.775 2882.1,-104.775 2882.1,-104.775 2878.01,-101.897 2879.51,-108.455 2873.92,-99.0191 2873.92,-99.0191"/>
</g>
<!-- ndSignedEnvelope&#45;&gt;ndBlindSigner -->
<g id="edge7" class="edge"><title>ndSignedEnvelope&#45;&gt;ndBlindSigner</title>
<path fill="none" stroke="black" d="M2671.99,-157.129C2689.98,-140.7 2710.01,-122.396 2727.92,-106.032"/>
<polygon fill="black" stroke="black" points="2735.46,-99.1487 2731.11,-109.216 2731.77,-102.521 2728.08,-105.894 2728.08,-105.894 2728.08,-105.894 2731.77,-102.521 2725.04,-102.571 2735.46,-99.1487 2735.46,-99.1487"/>
</g>
</g>
</svg>
