<?xml version="1.0" encoding="UTF-8" standalone="no"?>
<!DOCTYPE svg PUBLIC "-//W3C//DTD SVG 1.1//EN"
 "http://www.w3.org/Graphics/SVG/1.1/DTD/svg11.dtd">
<!-- Generated by graphviz version 2.38.0 (20140413.2041)
 -->
<!-- Title: ml Pages: 1 -->
<svg width="679pt" height="422pt"
 viewBox="0.00 0.00 678.50 422.00" xmlns="http://www.w3.org/2000/svg" xmlns:xlink="http://www.w3.org/1999/xlink">
<g id="graph0" class="graph" transform="scale(1 1) rotate(0) translate(4 418)">
<title>ml</title>
<polygon fill="white" stroke="none" points="-4,4 -4,-418 674.5,-418 674.5,4 -4,4"/>
<!-- ndBlindSignatureError -->
<g id="node1" class="node"><title>ndBlindSignatureError</title>
<polygon fill="yellow" stroke="none" points="10,-372 10,-409 248,-409 248,-372 10,-372"/>
<polygon fill="none" stroke="black" points="10,-372 10,-409 248,-409 248,-372 10,-372"/>
<text text-anchor="start" x="58.5" y="-387.8" font-family="Arial" font-weight="bold" font-size="14.00">BlindSignatureError</text>
<polygon fill="white" stroke="none" points="10,-305 10,-372 248,-372 248,-305 10,-305"/>
<polygon fill="none" stroke="black" points="10,-305 10,-372 248,-372 248,-305 10,-305"/>
<text text-anchor="start" x="21" y="-349.8" font-family="Arial" font-size="14.00">Blst(BLST_ERROR)</text>
<text text-anchor="start" x="21" y="-334.8" font-family="Arial" font-size="14.00">BlsttcFromBytes(FromBytesError)</text>
<text text-anchor="start" x="21" y="-319.8" font-family="Arial" font-size="14.00">InvalidBytes(TryFromSliceError)</text>
<polygon fill="none" stroke="black" points="9,-304 9,-410 249,-410 249,-304 9,-304"/>
</g>
<!-- ndSignedEnvelopeShare -->
<g id="node2" class="node"><title>ndSignedEnvelopeShare</title>
<polygon fill="lightblue" stroke="none" points="9,-222 9,-259 207,-259 207,-222 9,-222"/>
<polygon fill="none" stroke="black" points="9,-222 9,-259 207,-259 207,-222 9,-222"/>
<text text-anchor="start" x="30" y="-237.8" font-family="Arial" font-weight="bold" font-size="14.00">SignedEnvelopeShare</text>
<polygon fill="white" stroke="none" points="9,-155 9,-222 207,-222 207,-155 9,-155"/>
<polygon fill="none" stroke="black" points="9,-155 9,-222 207,-222 207,-155 9,-155"/>
<text text-anchor="start" x="20" y="-199.8" font-family="Arial" font-size="14.00">+ envelope: Envelope</text>
<text text-anchor="start" x="20" y="-184.8" font-family="Arial" font-size="14.00">&#45; sig_share: SignatureShare</text>
<text text-anchor="start" x="20" y="-169.8" font-family="Arial" font-size="14.00">&#45; sig_share_index: Fr</text>
<polygon fill="none" stroke="black" points="8,-154 8,-260 208,-260 208,-154 8,-154"/>
</g>
<!-- ndBlindSignerShare -->
<g id="node3" class="node"><title>ndBlindSignerShare</title>
<polygon fill="lightblue" stroke="none" points="94,-72 94,-109 258,-109 258,-72 94,-72"/>
<polygon fill="none" stroke="black" points="94,-72 94,-109 258,-109 258,-72 94,-72"/>
<text text-anchor="start" x="114" y="-87.8" font-family="Arial" font-weight="bold" font-size="14.00">BlindSignerShare</text>
<polygon fill="white" stroke="none" points="94,-5 94,-72 258,-72 258,-5 94,-5"/>
<polygon fill="none" stroke="black" points="94,-5 94,-72 258,-72 258,-5 94,-5"/>
<text text-anchor="start" x="105" y="-49.8" font-family="Arial" font-size="14.00">&#45; sks: SecretKeyShare</text>
<text text-anchor="start" x="105" y="-34.8" font-family="Arial" font-size="14.00">&#45; sks_index: Fr</text>
<text text-anchor="start" x="105" y="-19.8" font-family="Arial" font-size="14.00">&#45; pks: PublicKeySet</text>
<polygon fill="none" stroke="black" points="93,-4 93,-110 259,-110 259,-4 93,-4"/>
</g>
<!-- ndSignedEnvelopeShare&#45;&gt;ndBlindSignerShare -->
<g id="edge1" class="edge"><title>ndSignedEnvelopeShare&#45;&gt;ndBlindSignerShare</title>
<path fill="none" stroke="black" d="M133.902,-149.625C137.816,-141.107 141.882,-132.257 145.876,-123.565"/>
<polygon fill="black" stroke="black" points="150.17,-114.218 150.084,-125.183 148.083,-118.761 145.995,-123.305 145.995,-123.305 145.995,-123.305 148.083,-118.761 141.906,-121.426 150.17,-114.218 150.17,-114.218"/>
</g>
<!-- ndSlipPreparer -->
<g id="node4" class="node"><title>ndSlipPreparer</title>
<polygon fill="lightblue" stroke="none" points="282,-207 282,-244 427,-244 427,-207 282,-207"/>
<polygon fill="none" stroke="black" points="282,-207 282,-244 427,-244 427,-207 282,-207"/>
<text text-anchor="start" x="310.5" y="-222.8" font-family="Arial" font-weight="bold" font-size="14.00">SlipPreparer</text>
<polygon fill="white" stroke="none" points="282,-170 282,-207 427,-207 427,-170 282,-170"/>
<polygon fill="none" stroke="black" points="282,-170 282,-207 427,-207 427,-170 282,-170"/>
<text text-anchor="start" x="293" y="-184.8" font-family="Arial" font-size="14.00">&#45; blinding_factor: Fr</text>
<polygon fill="none" stroke="black" points="280.5,-169 280.5,-245 427.5,-245 427.5,-169 280.5,-169"/>
</g>
<!-- ndEnvelope -->
<g id="node5" class="node"><title>ndEnvelope</title>
<polygon fill="lightblue" stroke="none" points="284,-357 284,-394 424,-394 424,-357 284,-357"/>
<polygon fill="none" stroke="black" points="284,-357 284,-394 424,-394 424,-357 284,-357"/>
<text text-anchor="start" x="321" y="-372.8" font-family="Arial" font-weight="bold" font-size="14.00">Envelope</text>
<polygon fill="white" stroke="none" points="284,-320 284,-357 424,-357 424,-320 284,-320"/>
<polygon fill="none" stroke="black" points="284,-320 284,-357 424,-357 424,-320 284,-320"/>
<text text-anchor="start" x="295" y="-334.8" font-family="Arial" font-size="14.00">&#45; blinded_msg: G2</text>
<polygon fill="none" stroke="black" points="283,-319 283,-395 425,-395 425,-319 283,-319"/>
</g>
<!-- ndEnvelope&#45;&gt;ndSignedEnvelopeShare -->
<g id="edge2" class="edge"><title>ndEnvelope&#45;&gt;ndSignedEnvelopeShare</title>
<path fill="none" stroke="black" stroke-dasharray="5,2" d="M289.782,-314.723C281.803,-309.716 273.733,-304.71 266,-300 249.948,-290.224 232.869,-280.049 216.096,-270.182"/>
<polygon fill="black" stroke="black" points="216.055,-270.157 208.855,-270.571 205.705,-264.084 212.904,-263.671 216.055,-270.157"/>
</g>
<!-- ndEnvelope&#45;&gt;ndBlindSignerShare -->
<g id="edge3" class="edge"><title>ndEnvelope&#45;&gt;ndBlindSignerShare</title>
<path fill="none" stroke="black" stroke-dasharray="5,2" d="M305.021,-314.645C289.907,-299.909 274.288,-282.377 263,-264 235.046,-218.492 246.072,-199.075 225,-150 221.238,-141.238 216.948,-132.184 212.508,-123.332"/>
<polygon fill="black" stroke="black" points="207.841,-114.199 216.399,-121.056 210.116,-118.651 212.391,-123.104 212.391,-123.104 212.391,-123.104 210.116,-118.651 208.384,-125.151 207.841,-114.199 207.841,-114.199"/>
</g>
<!-- ndEnvelope&#45;&gt;ndSlipPreparer -->
<g id="edge4" class="edge"><title>ndEnvelope&#45;&gt;ndSlipPreparer</title>
<path fill="none" stroke="black" d="M354,-314.774C354,-297.534 354,-277.32 354,-259.145"/>
<polygon fill="black" stroke="black" points="354,-249.005 358.5,-259.005 354,-254.005 354,-259.005 354,-259.005 354,-259.005 354,-254.005 349.5,-259.005 354,-249.005 354,-249.005"/>
</g>
<!-- ndSignedEnvelope -->
<g id="node6" class="node"><title>ndSignedEnvelope</title>
<polygon fill="lightblue" stroke="none" points="463,-214 463,-251 624,-251 624,-214 463,-214"/>
<polygon fill="none" stroke="black" points="463,-214 463,-251 624,-251 624,-214 463,-214"/>
<text text-anchor="start" x="486" y="-229.8" font-family="Arial" font-weight="bold" font-size="14.00">SignedEnvelope</text>
<polygon fill="white" stroke="none" points="463,-162 463,-214 624,-214 624,-162 463,-162"/>
<polygon fill="none" stroke="black" points="463,-162 463,-214 624,-214 624,-162 463,-162"/>
<text text-anchor="start" x="474" y="-191.8" font-family="Arial" font-size="14.00">+ envelope: Envelope</text>
<text text-anchor="start" x="474" y="-176.8" font-family="Arial" font-size="14.00">&#45; signature: Signature</text>
<polygon fill="none" stroke="black" points="461.5,-161.5 461.5,-252.5 624.5,-252.5 624.5,-161.5 461.5,-161.5"/>
</g>
<!-- ndEnvelope&#45;&gt;ndSignedEnvelope -->
<g id="edge5" class="edge"><title>ndEnvelope&#45;&gt;ndSignedEnvelope</title>
<path fill="none" stroke="black" d="M406.396,-314.97C426.475,-299.247 449.743,-281.027 471.321,-264.129"/>
<polygon fill="black" stroke="black" points="471.326,-264.125 473.584,-257.277 480.774,-256.727 478.516,-263.576 471.326,-264.125"/>
</g>
<!-- ndBlindSigner -->
<g id="node7" class="node"><title>ndBlindSigner</title>
<polygon fill="lightblue" stroke="none" points="543,-57 543,-94 662,-94 662,-57 543,-57"/>
<polygon fill="none" stroke="black" points="543,-57 543,-94 662,-94 662,-57 543,-57"/>
<text text-anchor="start" x="561.5" y="-72.8" font-family="Arial" font-weight="bold" font-size="14.00">BlindSigner</text>
<polygon fill="white" stroke="none" points="543,-20 543,-57 662,-57 662,-20 543,-20"/>
<polygon fill="none" stroke="black" points="543,-20 543,-57 662,-57 662,-20 543,-20"/>
<text text-anchor="start" x="554" y="-34.8" font-family="Arial" font-size="14.00">&#45; sk: SecretKey</text>
<polygon fill="none" stroke="black" points="541.5,-19 541.5,-95 662.5,-95 662.5,-19 541.5,-19"/>
</g>
<!-- ndEnvelope&#45;&gt;ndBlindSigner -->
<g id="edge6" class="edge"><title>ndEnvelope&#45;&gt;ndBlindSigner</title>
<path fill="none" stroke="black" stroke-dasharray="5,2" d="M433.079,-354.713C500.518,-348.903 593.817,-328.673 641,-264 674.116,-218.609 653.115,-153.057 631.219,-108.163"/>
<polygon fill="black" stroke="black" points="626.699,-99.1916 635.217,-106.097 628.949,-103.657 631.199,-108.122 631.199,-108.122 631.199,-108.122 628.949,-103.657 627.18,-110.147 626.699,-99.1916 626.699,-99.1916"/>
</g>
<!-- ndSignedEnvelope&#45;&gt;ndBlindSigner -->
<g id="edge7" class="edge"><title>ndSignedEnvelope&#45;&gt;ndBlindSigner</title>
<path fill="none" stroke="black" d="M562.482,-157.129C568.653,-141.65 575.487,-124.506 581.713,-108.889"/>
<polygon fill="black" stroke="black" points="585.5,-99.3907 585.977,-110.346 583.648,-104.035 581.796,-108.68 581.796,-108.68 581.796,-108.68 583.648,-104.035 577.616,-107.013 585.5,-99.3907 585.5,-99.3907"/>
</g>
</g>
</svg>
