<?xml version="1.0" encoding="UTF-8" standalone="no"?>
<!DOCTYPE svg PUBLIC "-//W3C//DTD SVG 1.1//EN"
 "http://www.w3.org/Graphics/SVG/1.1/DTD/svg11.dtd">
<!-- Generated by graphviz version 2.38.0 (20140413.2041)
 -->
<!-- Title: ml Pages: 1 -->
<svg width="2952pt" height="221pt"
 viewBox="0.00 0.00 2952.00 221.00" xmlns="http://www.w3.org/2000/svg" xmlns:xlink="http://www.w3.org/1999/xlink">
<g id="graph0" class="graph" transform="scale(1 1) rotate(0) translate(4 217)">
<title>ml</title>
<polygon fill="white" stroke="none" points="-4,4 -4,-217 2948,-217 2948,4 -4,4"/>
<!-- ndBlindSignatureError -->
<g id="node1" class="node"><title>ndBlindSignatureError</title>
<g id="a_node1_0"><a xlink:href="https://github.com/dan-da/blsbs/blob/master/src/error.rs#:~:text=enum%20BlindSignatureError" xlink:title="&lt;TABLE&gt;">
<polygon fill="yellow" stroke="none" points="1235.5,-170.5 1235.5,-207.5 1398.5,-207.5 1398.5,-170.5 1235.5,-170.5"/>
<polygon fill="none" stroke="black" points="1235.5,-170.5 1235.5,-207.5 1398.5,-207.5 1398.5,-170.5 1235.5,-170.5"/>
<text text-anchor="start" x="1246.5" y="-186.3" font-family="Arial" font-weight="bold" font-size="14.00">BlindSignatureError</text>
<polygon fill="none" stroke="black" points="1234,-170 1234,-209 1399,-209 1399,-170 1234,-170"/>
</a>
</g>
</g>
<!-- ndSignedEnvelopeShare -->
<g id="node2" class="node"><title>ndSignedEnvelopeShare</title>
<g id="a_node2_1"><a xlink:href="https://github.com/dan-da/blsbs/blob/master/src/shares.rs#:~:text=struct%20SignedEnvelopeShare" xlink:title="&lt;TABLE&gt;">
<polygon fill="lightblue" stroke="none" points="9.5,-87.5 9.5,-124.5 1350.5,-124.5 1350.5,-87.5 9.5,-87.5"/>
<polygon fill="none" stroke="black" points="9.5,-87.5 9.5,-124.5 1350.5,-124.5 1350.5,-87.5 9.5,-87.5"/>
<text text-anchor="start" x="20.5" y="-103.3" font-family="Arial" font-weight="bold" font-size="14.00">pub struct SignedEnvelopeShare { &#160;&#160;&#160;pub envelope: Envelope, &#160;&#160;&#160;sig_share: SignatureShare, &#160;&#160;&#160;#[serde(serialize_with = &quot;fr_serialize&quot;, deserialize_with = &quot;fr_deserialize&quot;)] &#160;&#160;&#160;sig_share_index: Fr,}</text>
<polygon fill="none" stroke="black" points="8,-87 8,-126 1351,-126 1351,-87 8,-87"/>
</a>
</g>
</g>
<!-- ndBlindSignerShare -->
<g id="node3" class="node"><title>ndBlindSignerShare</title>
<g id="a_node3_2"><a xlink:href="https://github.com/dan-da/blsbs/blob/master/src/shares.rs#:~:text=struct%20BlindSignerShare" xlink:title="&lt;TABLE&gt;">
<polygon fill="lightblue" stroke="none" points="703.5,-4.5 703.5,-41.5 1363.5,-41.5 1363.5,-4.5 703.5,-4.5"/>
<polygon fill="none" stroke="black" points="703.5,-4.5 703.5,-41.5 1363.5,-41.5 1363.5,-4.5 703.5,-4.5"/>
<text text-anchor="start" x="714.5" y="-20.3" font-family="Arial" font-weight="bold" font-size="14.00">pub struct BlindSignerShare { &#160;&#160;&#160;sks: SecretKeyShare, &#160;&#160;&#160;sks_index: Fr, &#160;&#160;&#160;pks: PublicKeySet,}</text>
<polygon fill="none" stroke="black" points="702.5,-4 702.5,-43 1364.5,-43 1364.5,-4 702.5,-4"/>
</a>
</g>
</g>
<!-- ndSignedEnvelopeShare&#45;&gt;ndBlindSignerShare -->
<g id="edge1" class="edge"><title>ndSignedEnvelopeShare&#45;&gt;ndBlindSignerShare</title>
<path fill="none" stroke="black" d="M778.109,-82.937C823.852,-72.4702 878.35,-60.0005 925.231,-49.2734"/>
<polygon fill="black" stroke="black" points="935.114,-47.0122 926.369,-53.6294 930.24,-48.1274 925.365,-49.2427 925.365,-49.2427 925.365,-49.2427 930.24,-48.1274 924.362,-44.8561 935.114,-47.0122 935.114,-47.0122"/>
</g>
<!-- ndSlipPreparer -->
<g id="node4" class="node"><title>ndSlipPreparer</title>
<g id="a_node4_3"><a xlink:href="https://github.com/dan-da/blsbs/blob/master/src/blind_sigs.rs#:~:text=struct%20SlipPreparer" xlink:title="&lt;TABLE&gt;">
<polygon fill="lightblue" stroke="none" points="1424.5,-87.5 1424.5,-124.5 2294.5,-124.5 2294.5,-87.5 1424.5,-87.5"/>
<polygon fill="none" stroke="black" points="1424.5,-87.5 1424.5,-124.5 2294.5,-124.5 2294.5,-87.5 1424.5,-87.5"/>
<text text-anchor="start" x="1435.5" y="-103.3" font-family="Arial" font-weight="bold" font-size="14.00">pub struct SlipPreparer { &#160;&#160;&#160;#[serde(serialize_with = &quot;fr_serialize&quot;, deserialize_with = &quot;fr_deserialize&quot;)] &#160;&#160;&#160;blinding_factor: Fr,}</text>
<polygon fill="none" stroke="black" points="1423.5,-87 1423.5,-126 2295.5,-126 2295.5,-87 1423.5,-87"/>
</a>
</g>
</g>
<!-- ndEnvelope -->
<g id="node5" class="node"><title>ndEnvelope</title>
<g id="a_node5_4"><a xlink:href="https://github.com/dan-da/blsbs/blob/master/src/blind_sigs.rs#:~:text=struct%20Envelope" xlink:title="&lt;TABLE&gt;">
<polygon fill="lightblue" stroke="none" points="1434.5,-170.5 1434.5,-207.5 2285.5,-207.5 2285.5,-170.5 1434.5,-170.5"/>
<polygon fill="none" stroke="black" points="1434.5,-170.5 1434.5,-207.5 2285.5,-207.5 2285.5,-170.5 1434.5,-170.5"/>
<text text-anchor="start" x="1445.5" y="-186.3" font-family="Arial" font-weight="bold" font-size="14.00">pub struct Envelope { &#160;&#160;&#160;#[serde(serialize_with = &quot;g2_serialize&quot;, deserialize_with = &quot;g2_deserialize&quot;)] &#160;&#160;&#160;blinded_msg: G2,}</text>
<polygon fill="none" stroke="black" points="1433,-170 1433,-209 2286,-209 2286,-170 1433,-170"/>
</a>
</g>
</g>
<!-- ndEnvelope&#45;&gt;ndSignedEnvelopeShare -->
<g id="edge2" class="edge"><title>ndEnvelope&#45;&gt;ndSignedEnvelopeShare</title>
<path fill="none" stroke="black" stroke-dasharray="5,2" d="M1531.59,-165.991C1372.07,-155.041 1180.47,-141.889 1019.39,-130.832"/>
<polygon fill="black" stroke="black" points="1019.33,-130.828 1013.07,-134.407 1007.36,-130.006 1013.62,-126.426 1019.33,-130.828"/>
</g>
<!-- ndEnvelope&#45;&gt;ndBlindSignerShare -->
<g id="edge3" class="edge"><title>ndEnvelope&#45;&gt;ndBlindSignerShare</title>
<path fill="none" stroke="black" stroke-dasharray="5,2" d="M1556.22,-165.973C1492.04,-157.39 1435.07,-145.729 1406.5,-130 1382.72,-116.908 1390.98,-96.623 1367.5,-83 1343.72,-69.2035 1292.84,-57.6876 1237.8,-48.6244"/>
<polygon fill="black" stroke="black" points="1227.84,-47.0185 1238.43,-44.1686 1232.78,-47.8149 1237.72,-48.6112 1237.72,-48.6112 1237.72,-48.6112 1232.78,-47.8149 1237,-53.0538 1227.84,-47.0185 1227.84,-47.0185"/>
</g>
<!-- ndEnvelope&#45;&gt;ndSlipPreparer -->
<g id="edge4" class="edge"><title>ndEnvelope&#45;&gt;ndSlipPreparer</title>
<path fill="none" stroke="black" d="M1859.5,-165.937C1859.5,-158.016 1859.5,-148.949 1859.5,-140.357"/>
<polygon fill="black" stroke="black" points="1859.5,-130.223 1864,-140.223 1859.5,-135.223 1859.5,-140.223 1859.5,-140.223 1859.5,-140.223 1859.5,-135.223 1855,-140.223 1859.5,-130.223 1859.5,-130.223"/>
</g>
<!-- ndSignedEnvelope -->
<g id="node6" class="node"><title>ndSignedEnvelope</title>
<g id="a_node6_5"><a xlink:href="https://github.com/dan-da/blsbs/blob/master/src/blind_sigs.rs#:~:text=struct%20SignedEnvelope" xlink:title="&lt;TABLE&gt;">
<polygon fill="lightblue" stroke="none" points="2331.5,-87.5 2331.5,-124.5 2906.5,-124.5 2906.5,-87.5 2331.5,-87.5"/>
<polygon fill="none" stroke="black" points="2331.5,-87.5 2331.5,-124.5 2906.5,-124.5 2906.5,-87.5 2331.5,-87.5"/>
<text text-anchor="start" x="2342.5" y="-103.3" font-family="Arial" font-weight="bold" font-size="14.00">pub struct SignedEnvelope { &#160;&#160;&#160;pub envelope: Envelope, &#160;&#160;&#160;signature: Signature,}</text>
<polygon fill="none" stroke="black" points="2330,-87 2330,-126 2907,-126 2907,-87 2330,-87"/>
</a>
</g>
</g>
<!-- ndEnvelope&#45;&gt;ndSignedEnvelope -->
<g id="edge5" class="edge"><title>ndEnvelope&#45;&gt;ndSignedEnvelope</title>
<path fill="none" stroke="black" d="M2070.42,-165.991C2171.59,-155.194 2292.81,-142.257 2395.51,-131.298"/>
<polygon fill="black" stroke="black" points="2395.68,-131.279 2401.22,-126.665 2407.61,-130.006 2402.07,-134.62 2395.68,-131.279"/>
</g>
<!-- ndBlindSigner -->
<g id="node7" class="node"><title>ndBlindSigner</title>
<g id="a_node7_6"><a xlink:href="https://github.com/dan-da/blsbs/blob/master/src/blind_sigs.rs#:~:text=struct%20BlindSigner" xlink:title="&lt;TABLE&gt;">
<polygon fill="lightblue" stroke="none" points="2626.5,-4.5 2626.5,-41.5 2935.5,-41.5 2935.5,-4.5 2626.5,-4.5"/>
<polygon fill="none" stroke="black" points="2626.5,-4.5 2626.5,-41.5 2935.5,-41.5 2935.5,-4.5 2626.5,-4.5"/>
<text text-anchor="start" x="2637.5" y="-20.3" font-family="Arial" font-weight="bold" font-size="14.00">pub struct BlindSigner { &#160;&#160;&#160;sk: SecretKey,}</text>
<polygon fill="none" stroke="black" points="2625,-4 2625,-43 2936,-43 2936,-4 2625,-4"/>
</a>
</g>
</g>
<!-- ndEnvelope&#45;&gt;ndBlindSigner -->
<g id="edge6" class="edge"><title>ndEnvelope&#45;&gt;ndBlindSigner</title>
<path fill="none" stroke="black" stroke-dasharray="5,2" d="M2294.15,-178.122C2578.31,-169.131 2901.01,-153.765 2923.5,-130 2937.86,-114.829 2935.14,-100.343 2923.5,-83 2914.73,-69.938 2902.47,-59.7905 2888.79,-51.9077"/>
<polygon fill="black" stroke="black" points="2879.61,-47.0467 2890.55,-47.7504 2884.03,-49.3869 2888.45,-51.7271 2888.45,-51.7271 2888.45,-51.7271 2884.03,-49.3869 2886.34,-55.7038 2879.61,-47.0467 2879.61,-47.0467"/>
</g>
<!-- ndSignedEnvelope&#45;&gt;ndBlindSigner -->
<g id="edge7" class="edge"><title>ndSignedEnvelope&#45;&gt;ndBlindSigner</title>
<path fill="none" stroke="black" d="M2663.63,-82.937C2683.03,-73.235 2705.88,-61.8121 2726.2,-51.6513"/>
<polygon fill="black" stroke="black" points="2735.34,-47.0824 2728.4,-55.5795 2730.86,-49.3185 2726.39,-51.5545 2726.39,-51.5545 2726.39,-51.5545 2730.86,-49.3185 2724.38,-47.5296 2735.34,-47.0824 2735.34,-47.0824"/>
</g>
</g>
</svg>
