<?xml version="1.0" encoding="UTF-8" standalone="no"?>
<!DOCTYPE svg PUBLIC "-//W3C//DTD SVG 1.1//EN"
 "http://www.w3.org/Graphics/SVG/1.1/DTD/svg11.dtd">
<!-- Generated by graphviz version 2.38.0 (20140413.2041)
 -->
<!-- Title: ml Pages: 1 -->
<svg width="2710pt" height="509pt"
 viewBox="0.00 0.00 2709.50 509.00" xmlns="http://www.w3.org/2000/svg" xmlns:xlink="http://www.w3.org/1999/xlink">
<g id="graph0" class="graph" transform="scale(1 1) rotate(0) translate(4 505)">
<title>ml</title>
<polygon fill="white" stroke="none" points="-4,4 -4,-505 2705.5,-505 2705.5,4 -4,4"/>
<!-- ndRevealedCommitment -->
<g id="node1" class="node"><title>ndRevealedCommitment</title>
<g id="a_node1_0"><a xlink:href="https://github.com/maidsafe/blst-ringct/blob/master/src/lib.rs#:~:text=struct%20RevealedCommitment" xlink:title="&lt;TABLE&gt;">
<polygon fill="lightblue" stroke="none" points="463.5,-428.5 463.5,-465.5 1006.5,-465.5 1006.5,-428.5 463.5,-428.5"/>
<polygon fill="none" stroke="black" points="463.5,-428.5 463.5,-465.5 1006.5,-465.5 1006.5,-428.5 463.5,-428.5"/>
<text text-anchor="start" x="474.5" y="-444.3" font-family="Arial" font-weight="bold" font-size="14.00">pub struct RevealedCommitment { &#160;&#160;&#160;pub value: u64, &#160;&#160;&#160;pub blinding: Scalar,}</text>
<polygon fill="white" stroke="none" points="463.5,-376.5 463.5,-428.5 1006.5,-428.5 1006.5,-376.5 463.5,-376.5"/>
<polygon fill="none" stroke="black" points="463.5,-376.5 463.5,-428.5 1006.5,-428.5 1006.5,-376.5 463.5,-376.5"/>
<text text-anchor="start" x="474.5" y="-406.3" font-family="Arial" font-size="14.00">+ value: u64</text>
<text text-anchor="start" x="474.5" y="-391.3" font-family="Arial" font-size="14.00">+ blinding: Scalar</text>
<polygon fill="none" stroke="black" points="462,-376 462,-467 1007,-467 1007,-376 462,-376"/>
</a>
</g>
</g>
<!-- ndOutput -->
<g id="node3" class="node"><title>ndOutput</title>
<g id="a_node3_1"><a xlink:href="https://github.com/maidsafe/blst-ringct/blob/master/src/ringct.rs#:~:text=struct%20Output" xlink:title="&lt;TABLE&gt;">
<polygon fill="lightblue" stroke="none" points="9.5,-128.5 9.5,-165.5 498.5,-165.5 498.5,-128.5 9.5,-128.5"/>
<polygon fill="none" stroke="black" points="9.5,-128.5 9.5,-165.5 498.5,-165.5 498.5,-128.5 9.5,-128.5"/>
<text text-anchor="start" x="20.5" y="-144.3" font-family="Arial" font-weight="bold" font-size="14.00">pub struct Output { &#160;&#160;&#160;pub public_key: G1Affine, &#160;&#160;&#160;pub amount: u64,}</text>
<polygon fill="white" stroke="none" points="9.5,-76.5 9.5,-128.5 498.5,-128.5 498.5,-76.5 9.5,-76.5"/>
<polygon fill="none" stroke="black" points="9.5,-76.5 9.5,-128.5 498.5,-128.5 498.5,-76.5 9.5,-76.5"/>
<text text-anchor="start" x="20.5" y="-106.3" font-family="Arial" font-size="14.00">+ public_key: G1Affine</text>
<text text-anchor="start" x="20.5" y="-91.3" font-family="Arial" font-size="14.00">+ amount: u64</text>
<polygon fill="none" stroke="black" points="8,-76 8,-167 499,-167 499,-76 8,-76"/>
</a>
</g>
</g>
<!-- ndRevealedCommitment&#45;&gt;ndOutput -->
<g id="edge1" class="edge"><title>ndRevealedCommitment&#45;&gt;ndOutput</title>
<path fill="none" stroke="black" d="M638.906,-371.91C601.753,-352.302 559.155,-328.922 521.5,-306 454.633,-265.296 381.478,-214.777 328.517,-177.057"/>
<polygon fill="black" stroke="black" points="320.195,-171.117 330.948,-173.264 324.264,-174.022 328.334,-176.927 328.334,-176.927 328.334,-176.927 324.264,-174.022 325.719,-180.589 320.195,-171.117 320.195,-171.117"/>
</g>
<!-- ndRingCtMaterial -->
<g id="node4" class="node"><title>ndRingCtMaterial</title>
<text text-anchor="middle" x="933.5" y="-14.3" font-family="Times,serif" font-size="14.00">ndRingCtMaterial</text>
</g>
<!-- ndRevealedCommitment&#45;&gt;ndRingCtMaterial -->
<g id="edge2" class="edge"><title>ndRevealedCommitment&#45;&gt;ndRingCtMaterial</title>
<path fill="none" stroke="black" d="M620.199,-371.824C594,-354.973 569.473,-333.271 554.5,-306 533.323,-267.431 531.309,-244.392 554.5,-207 622.53,-97.3141 775.746,-49.6284 865.143,-30.5079"/>
<polygon fill="black" stroke="black" points="875.187,-28.4226 866.31,-34.8617 870.291,-29.4391 865.395,-30.4557 865.395,-30.4557 865.395,-30.4557 870.291,-29.4391 864.48,-26.0496 875.187,-28.4226 875.187,-28.4226"/>
</g>
<!-- ndTrueInput -->
<g id="node7" class="node"><title>ndTrueInput</title>
<g id="a_node7_2"><a xlink:href="https://github.com/maidsafe/blst-ringct/blob/master/src/mlsag.rs#:~:text=struct%20TrueInput" xlink:title="&lt;TABLE&gt;">
<polygon fill="lightblue" stroke="none" points="572.5,-263.5 572.5,-300.5 1294.5,-300.5 1294.5,-263.5 572.5,-263.5"/>
<polygon fill="none" stroke="black" points="572.5,-263.5 572.5,-300.5 1294.5,-300.5 1294.5,-263.5 572.5,-263.5"/>
<text text-anchor="start" x="583.5" y="-279.3" font-family="Arial" font-weight="bold" font-size="14.00">pub struct TrueInput { &#160;&#160;&#160;pub secret_key: Scalar, &#160;&#160;&#160;pub revealed_commitment: RevealedCommitment,}</text>
<polygon fill="white" stroke="none" points="572.5,-211.5 572.5,-263.5 1294.5,-263.5 1294.5,-211.5 572.5,-211.5"/>
<polygon fill="none" stroke="black" points="572.5,-211.5 572.5,-263.5 1294.5,-263.5 1294.5,-211.5 572.5,-211.5"/>
<text text-anchor="start" x="583.5" y="-241.3" font-family="Arial" font-size="14.00">+ secret_key: Scalar</text>
<text text-anchor="start" x="583.5" y="-226.3" font-family="Arial" font-size="14.00">+ revealed_commitment: RevealedCommitment</text>
<polygon fill="none" stroke="black" points="571.5,-211 571.5,-302 1295.5,-302 1295.5,-211 571.5,-211"/>
</a>
</g>
</g>
<!-- ndRevealedCommitment&#45;&gt;ndTrueInput -->
<g id="edge3" class="edge"><title>ndRevealedCommitment&#45;&gt;ndTrueInput</title>
<path fill="none" stroke="black" d="M793.937,-371.815C816.183,-353.594 841.636,-332.745 864.661,-313.885"/>
<polygon fill="black" stroke="black" points="864.742,-313.819 866.849,-306.923 874.026,-306.215 871.919,-313.112 864.742,-313.819"/>
</g>
<!-- ndMlsagMaterial -->
<g id="node9" class="node"><title>ndMlsagMaterial</title>
<text text-anchor="middle" x="1331.5" y="-117.8" font-family="Times,serif" font-size="14.00">ndMlsagMaterial</text>
</g>
<!-- ndRevealedCommitment&#45;&gt;ndMlsagMaterial -->
<g id="edge4" class="edge"><title>ndRevealedCommitment&#45;&gt;ndMlsagMaterial</title>
<path fill="none" stroke="black" d="M898.041,-371.94C939.066,-360.948 983.174,-350.134 1024.5,-342 1087.78,-329.543 1267.38,-352.087 1312.5,-306 1353.22,-264.403 1345.7,-189.373 1337.91,-149.353"/>
<polygon fill="black" stroke="black" points="1335.85,-139.511 1342.3,-148.377 1336.87,-144.405 1337.9,-149.299 1337.9,-149.299 1337.9,-149.299 1336.87,-144.405 1333.49,-150.221 1335.85,-139.511 1335.85,-139.511"/>
</g>
<!-- ndError -->
<g id="node2" class="node"><title>ndError</title>
<g id="a_node2_3"><a xlink:href="https://github.com/maidsafe/blst-ringct/blob/master/src/error.rs#:~:text=enum%20Error" xlink:title="&lt;TABLE&gt;">
<polygon fill="yellow" stroke="none" points="1042.5,-458.5 1042.5,-495.5 1450.5,-495.5 1450.5,-458.5 1042.5,-458.5"/>
<polygon fill="none" stroke="black" points="1042.5,-458.5 1042.5,-495.5 1450.5,-495.5 1450.5,-458.5 1042.5,-458.5"/>
<text text-anchor="start" x="1228" y="-474.3" font-family="Arial" font-weight="bold" font-size="14.00">Error</text>
<polygon fill="white" stroke="none" points="1042.5,-346.5 1042.5,-458.5 1450.5,-458.5 1450.5,-346.5 1042.5,-346.5"/>
<polygon fill="none" stroke="black" points="1042.5,-346.5 1042.5,-458.5 1450.5,-458.5 1450.5,-346.5 1042.5,-346.5"/>
<text text-anchor="start" x="1053.5" y="-436.3" font-family="Arial" font-size="14.00">ExpectedAPublicCommitmentsForEachRingEntry</text>
<text text-anchor="start" x="1053.5" y="-421.3" font-family="Arial" font-size="14.00">InvalidHiddenCommitmentInRing</text>
<text text-anchor="start" x="1053.5" y="-406.3" font-family="Arial" font-size="14.00">InputPseudoCommitmentsDoNotSumToOutputCommitments</text>
<text text-anchor="start" x="1053.5" y="-391.3" font-family="Arial" font-size="14.00">InvalidRingSignature</text>
<text text-anchor="start" x="1053.5" y="-376.3" font-family="Arial" font-size="14.00">KeyImageNotOnCurve</text>
<text text-anchor="start" x="1053.5" y="-361.3" font-family="Arial" font-size="14.00">BulletProofs(bulletproofs::ProofError)</text>
<polygon fill="none" stroke="black" points="1041.5,-346 1041.5,-497 1451.5,-497 1451.5,-346 1041.5,-346"/>
</a>
</g>
</g>
<!-- ndOutput&#45;&gt;ndRingCtMaterial -->
<g id="edge5" class="edge"><title>ndOutput&#45;&gt;ndRingCtMaterial</title>
<path fill="none" stroke="black" d="M507.004,-74.2755C511.875,-73.5003 516.71,-72.741 521.5,-72 641.271,-53.4712 781.34,-36.4293 863.443,-26.9071"/>
<polygon fill="black" stroke="black" points="863.452,-26.9061 868.953,-22.2441 875.372,-25.5291 869.871,-30.1912 863.452,-26.9061"/>
</g>
<!-- ndOutputProof -->
<g id="node5" class="node"><title>ndOutputProof</title>
<g id="a_node5_4"><a xlink:href="https://github.com/maidsafe/blst-ringct/blob/master/src/ringct.rs#:~:text=struct%20OutputProof" xlink:title="&lt;TABLE&gt;">
<polygon fill="lightblue" stroke="none" points="2126.5,-263.5 2126.5,-300.5 2692.5,-300.5 2692.5,-263.5 2126.5,-263.5"/>
<polygon fill="none" stroke="black" points="2126.5,-263.5 2126.5,-300.5 2692.5,-300.5 2692.5,-263.5 2126.5,-263.5"/>
<text text-anchor="start" x="2137.5" y="-279.3" font-family="Arial" font-weight="bold" font-size="14.00">pub struct OutputProof { &#160;&#160;&#160;range_proof: RangeProof, &#160;&#160;&#160;commitment: G1Affine,}</text>
<polygon fill="white" stroke="none" points="2126.5,-211.5 2126.5,-263.5 2692.5,-263.5 2692.5,-211.5 2126.5,-211.5"/>
<polygon fill="none" stroke="black" points="2126.5,-211.5 2126.5,-263.5 2692.5,-263.5 2692.5,-211.5 2126.5,-211.5"/>
<text text-anchor="start" x="2137.5" y="-241.3" font-family="Arial" font-size="14.00">&#45; range_proof: RangeProof</text>
<text text-anchor="start" x="2137.5" y="-226.3" font-family="Arial" font-size="14.00">&#45; commitment: G1Affine</text>
<polygon fill="none" stroke="black" points="2125.5,-211 2125.5,-302 2693.5,-302 2693.5,-211 2125.5,-211"/>
</a>
</g>
</g>
<!-- ndRingCtTransaction -->
<g id="node6" class="node"><title>ndRingCtTransaction</title>
<text text-anchor="middle" x="2041.5" y="-117.8" font-family="Times,serif" font-size="14.00">ndRingCtTransaction</text>
</g>
<!-- ndOutputProof&#45;&gt;ndRingCtTransaction -->
<g id="edge6" class="edge"><title>ndOutputProof&#45;&gt;ndRingCtTransaction</title>
<path fill="none" stroke="black" d="M2275.08,-206.919C2214.89,-185.166 2147.05,-160.647 2100.05,-143.662"/>
<polygon fill="black" stroke="black" points="2099.86,-143.591 2092.85,-145.313 2088.57,-139.512 2095.57,-137.789 2099.86,-143.591"/>
</g>
<!-- ndRingCtTransaction&#45;&gt;ndRingCtMaterial -->
<g id="edge7" class="edge"><title>ndRingCtTransaction&#45;&gt;ndRingCtMaterial</title>
<path fill="none" stroke="black" d="M1974.68,-114.379C1777.63,-96.3276 1200.21,-43.4328 1001.56,-25.235"/>
<polygon fill="black" stroke="black" points="991.548,-24.3176 1001.92,-20.7487 996.527,-24.7737 1001.51,-25.2299 1001.51,-25.2299 1001.51,-25.2299 996.527,-24.7737 1001.1,-29.7111 991.548,-24.3176 991.548,-24.3176"/>
</g>
<!-- ndTrueInput&#45;&gt;ndMlsagMaterial -->
<g id="edge8" class="edge"><title>ndTrueInput&#45;&gt;ndMlsagMaterial</title>
<path fill="none" stroke="black" d="M1078.88,-206.919C1144.39,-185.027 1218.28,-160.335 1269.14,-143.339"/>
<polygon fill="black" stroke="black" points="1269.21,-143.315 1273.63,-137.62 1280.59,-139.512 1276.17,-145.207 1269.21,-143.315"/>
</g>
<!-- ndDecoyInput -->
<g id="node8" class="node"><title>ndDecoyInput</title>
<g id="a_node8_5"><a xlink:href="https://github.com/maidsafe/blst-ringct/blob/master/src/mlsag.rs#:~:text=struct%20DecoyInput" xlink:title="&lt;TABLE&gt;">
<polygon fill="lightblue" stroke="none" points="1368.5,-263.5 1368.5,-300.5 1956.5,-300.5 1956.5,-263.5 1368.5,-263.5"/>
<polygon fill="none" stroke="black" points="1368.5,-263.5 1368.5,-300.5 1956.5,-300.5 1956.5,-263.5 1368.5,-263.5"/>
<text text-anchor="start" x="1379.5" y="-279.3" font-family="Arial" font-weight="bold" font-size="14.00">pub struct DecoyInput { &#160;&#160;&#160;pub public_key: G1Affine, &#160;&#160;&#160;pub commitment: G1Affine,}</text>
<polygon fill="white" stroke="none" points="1368.5,-211.5 1368.5,-263.5 1956.5,-263.5 1956.5,-211.5 1368.5,-211.5"/>
<polygon fill="none" stroke="black" points="1368.5,-211.5 1368.5,-263.5 1956.5,-263.5 1956.5,-211.5 1368.5,-211.5"/>
<text text-anchor="start" x="1379.5" y="-241.3" font-family="Arial" font-size="14.00">+ public_key: G1Affine</text>
<text text-anchor="start" x="1379.5" y="-226.3" font-family="Arial" font-size="14.00">+ commitment: G1Affine</text>
<polygon fill="none" stroke="black" points="1367.5,-211 1367.5,-302 1957.5,-302 1957.5,-211 1367.5,-211"/>
</a>
</g>
</g>
<!-- ndDecoyInput&#45;&gt;ndMlsagMaterial -->
<g id="edge9" class="edge"><title>ndDecoyInput&#45;&gt;ndMlsagMaterial</title>
<path fill="none" stroke="black" d="M1541.6,-206.919C1487.8,-185.304 1427.21,-160.959 1384.97,-143.986"/>
<polygon fill="black" stroke="black" points="1384.97,-143.986 1377.91,-145.461 1373.84,-139.512 1380.9,-138.037 1384.97,-143.986"/>
</g>
<!-- ndMlsagMaterial&#45;&gt;ndRingCtMaterial -->
<g id="edge10" class="edge"><title>ndMlsagMaterial&#45;&gt;ndRingCtMaterial</title>
<path fill="none" stroke="black" d="M1275.74,-106.28C1204.56,-88.1281 1081.38,-56.7128 1003.83,-36.936"/>
<polygon fill="black" stroke="black" points="1003.42,-36.8311 996.616,-39.2243 991.791,-33.8657 998.593,-31.4724 1003.42,-36.8311"/>
</g>
<!-- ndMlsagSignature -->
<g id="node10" class="node"><title>ndMlsagSignature</title>
<text text-anchor="middle" x="2041.5" y="-252.8" font-family="Times,serif" font-size="14.00">ndMlsagSignature</text>
</g>
<!-- ndMlsagSignature&#45;&gt;ndRingCtTransaction -->
<g id="edge11" class="edge"><title>ndMlsagSignature&#45;&gt;ndRingCtTransaction</title>
<path fill="none" stroke="black" d="M2041.5,-238.385C2041.5,-216.538 2041.5,-178.401 2041.5,-151.869"/>
<polygon fill="black" stroke="black" points="2041.5,-151.549 2037.5,-145.549 2041.5,-139.549 2045.5,-145.549 2041.5,-151.549"/>
</g>
<!-- ndMlsagSignature&#45;&gt;ndMlsagMaterial -->
<g id="edge12" class="edge"><title>ndMlsagSignature&#45;&gt;ndMlsagMaterial</title>
<path fill="none" stroke="black" d="M2023.1,-238.279C2010.42,-227.456 1992.65,-214.219 1974.5,-207 1870.4,-165.586 1539.54,-137.494 1397.41,-127.04"/>
<polygon fill="black" stroke="black" points="1387.1,-126.288 1397.4,-122.528 1392.09,-126.652 1397.08,-127.016 1397.08,-127.016 1397.08,-127.016 1392.09,-126.652 1396.75,-131.504 1387.1,-126.288 1387.1,-126.288"/>
</g>
</g>
</svg>
