<?xml version="1.0" encoding="UTF-8" standalone="no"?>
<!DOCTYPE svg PUBLIC "-//W3C//DTD SVG 1.1//EN"
 "http://www.w3.org/Graphics/SVG/1.1/DTD/svg11.dtd">
<!-- Generated by graphviz version 2.38.0 (20140413.2041)
 -->
<!-- Title: ml Pages: 1 -->
<svg width="748pt" height="304pt"
 viewBox="0.00 0.00 748.00 304.00" xmlns="http://www.w3.org/2000/svg" xmlns:xlink="http://www.w3.org/1999/xlink">
<g id="graph0" class="graph" transform="scale(1 1) rotate(0) translate(4 300)">
<title>ml</title>
<polygon fill="white" stroke="none" points="-4,4 -4,-300 744,-300 744,4 -4,4"/>
<!-- ndRevealedCommitment -->
<g id="node1" class="node"><title>ndRevealedCommitment</title>
<g id="a_node1_0"><a xlink:href="https://github.com/maidsafe/blst-ringct/blob/master/src/lib.rs#:~:text=struct%20RevealedCommitment" xlink:title="&lt;TABLE&gt;">
<polygon fill="lightblue" stroke="none" points="70,-253.5 70,-290.5 244,-290.5 244,-253.5 70,-253.5"/>
<polygon fill="none" stroke="black" points="70,-253.5 70,-290.5 244,-290.5 244,-253.5 70,-253.5"/>
<text text-anchor="start" x="81" y="-269.3" font-family="Arial" font-weight="bold" font-size="14.00">RevealedCommitment</text>
<polygon fill="none" stroke="black" points="69,-253 69,-292 245,-292 245,-253 69,-253"/>
</a>
</g>
</g>
<!-- ndOutput -->
<g id="node3" class="node"><title>ndOutput</title>
<g id="a_node3_1"><a xlink:href="https://github.com/maidsafe/blst-ringct/blob/master/src/ringct.rs#:~:text=struct%20Output" xlink:title="&lt;TABLE&gt;">
<polygon fill="lightblue" stroke="none" points="9,-87.5 9,-124.5 79,-124.5 79,-87.5 9,-87.5"/>
<polygon fill="none" stroke="black" points="9,-87.5 9,-124.5 79,-124.5 79,-87.5 9,-87.5"/>
<text text-anchor="start" x="20" y="-103.3" font-family="Arial" font-weight="bold" font-size="14.00">Output</text>
<polygon fill="none" stroke="black" points="8,-87 8,-126 80,-126 80,-87 8,-87"/>
</a>
</g>
</g>
<!-- ndRevealedCommitment&#45;&gt;ndOutput -->
<g id="edge1" class="edge"><title>ndRevealedCommitment&#45;&gt;ndOutput</title>
<path fill="none" stroke="black" d="M133.085,-248.781C122.856,-238.404 111.181,-225.628 102,-213 85.0841,-189.732 69.5926,-160.989 58.8833,-139.383"/>
<polygon fill="black" stroke="black" points="54.454,-130.301 62.8822,-137.317 56.6458,-134.795 58.8376,-139.289 58.8376,-139.289 58.8376,-139.289 56.6458,-134.795 54.793,-141.262 54.454,-130.301 54.454,-130.301"/>
</g>
<!-- ndRingCtMaterial -->
<g id="node4" class="node"><title>ndRingCtMaterial</title>
<g id="a_node4_2"><a xlink:href="https://github.com/maidsafe/blst-ringct/blob/master/src/ringct.rs#:~:text=struct%20RingCtMaterial" xlink:title="&lt;TABLE&gt;">
<polygon fill="lightblue" stroke="none" points="136,-4.5 136,-41.5 261,-41.5 261,-4.5 136,-4.5"/>
<polygon fill="none" stroke="black" points="136,-4.5 136,-41.5 261,-41.5 261,-4.5 136,-4.5"/>
<text text-anchor="start" x="147" y="-20.3" font-family="Arial" font-weight="bold" font-size="14.00">RingCtMaterial</text>
<polygon fill="none" stroke="black" points="134.5,-4 134.5,-43 261.5,-43 261.5,-4 134.5,-4"/>
</a>
</g>
</g>
<!-- ndRevealedCommitment&#45;&gt;ndRingCtMaterial -->
<g id="edge2" class="edge"><title>ndRevealedCommitment&#45;&gt;ndRingCtMaterial</title>
<path fill="none" stroke="black" d="M146.361,-248.982C141.898,-238.329 137.232,-225.277 135,-213 131.263,-192.448 130.657,-186.432 135,-166 143.489,-126.062 164.07,-83.7228 179.413,-55.8798"/>
<polygon fill="black" stroke="black" points="184.391,-47.0175 183.417,-57.9401 181.942,-51.3769 179.494,-55.7364 179.494,-55.7364 179.494,-55.7364 181.942,-51.3769 175.57,-53.5327 184.391,-47.0175 184.391,-47.0175"/>
</g>
<!-- ndTrueInput -->
<g id="node7" class="node"><title>ndTrueInput</title>
<g id="a_node7_3"><a xlink:href="https://github.com/maidsafe/blst-ringct/blob/master/src/mlsag.rs#:~:text=struct%20TrueInput" xlink:title="&lt;TABLE&gt;">
<polygon fill="lightblue" stroke="none" points="153,-170.5 153,-207.5 243,-207.5 243,-170.5 153,-170.5"/>
<polygon fill="none" stroke="black" points="153,-170.5 153,-207.5 243,-207.5 243,-170.5 153,-170.5"/>
<text text-anchor="start" x="164" y="-186.3" font-family="Arial" font-weight="bold" font-size="14.00">TrueInput</text>
<polygon fill="none" stroke="black" points="152,-170 152,-209 244,-209 244,-170 152,-170"/>
</a>
</g>
</g>
<!-- ndRevealedCommitment&#45;&gt;ndTrueInput -->
<g id="edge3" class="edge"><title>ndRevealedCommitment&#45;&gt;ndTrueInput</title>
<path fill="none" stroke="black" d="M168.421,-248.937C172.298,-241.278 176.718,-232.545 180.938,-224.209"/>
<polygon fill="black" stroke="black" points="181.079,-223.93 180.22,-216.77 186.498,-213.223 187.357,-220.383 181.079,-223.93"/>
</g>
<!-- ndMlsagMaterial -->
<g id="node9" class="node"><title>ndMlsagMaterial</title>
<g id="a_node9_4"><a xlink:href="https://github.com/maidsafe/blst-ringct/blob/master/src/mlsag.rs#:~:text=struct%20MlsagMaterial" xlink:title="&lt;TABLE&gt;">
<polygon fill="lightblue" stroke="none" points="220,-87.5 220,-124.5 340,-124.5 340,-87.5 220,-87.5"/>
<polygon fill="none" stroke="black" points="220,-87.5 220,-124.5 340,-124.5 340,-87.5 220,-87.5"/>
<text text-anchor="start" x="231" y="-103.3" font-family="Arial" font-weight="bold" font-size="14.00">MlsagMaterial</text>
<polygon fill="none" stroke="black" points="219,-87 219,-126 341,-126 341,-87 219,-87"/>
</a>
</g>
</g>
<!-- ndRevealedCommitment&#45;&gt;ndMlsagMaterial -->
<g id="edge4" class="edge"><title>ndRevealedCommitment&#45;&gt;ndMlsagMaterial</title>
<path fill="none" stroke="black" d="M217.572,-248.919C233.952,-240.064 250.133,-228.277 261,-213 275.994,-191.922 280.307,-162.634 281.118,-140.263"/>
<polygon fill="black" stroke="black" points="281.268,-130.216 285.618,-140.282 281.193,-135.215 281.118,-140.214 281.118,-140.214 281.118,-140.214 281.193,-135.215 276.619,-140.147 281.268,-130.216 281.268,-130.216"/>
</g>
<!-- ndError -->
<g id="node2" class="node"><title>ndError</title>
<g id="a_node2_5"><a xlink:href="https://github.com/maidsafe/blst-ringct/blob/master/src/error.rs#:~:text=enum%20Error" xlink:title="&lt;TABLE&gt;">
<polygon fill="yellow" stroke="none" points="281,-253.5 281,-290.5 340,-290.5 340,-253.5 281,-253.5"/>
<polygon fill="none" stroke="black" points="281,-253.5 281,-290.5 340,-290.5 340,-253.5 281,-253.5"/>
<text text-anchor="start" x="292" y="-269.3" font-family="Arial" font-weight="bold" font-size="14.00">Error</text>
<polygon fill="none" stroke="black" points="279.5,-253 279.5,-292 340.5,-292 340.5,-253 279.5,-253"/>
</a>
</g>
</g>
<!-- ndOutput&#45;&gt;ndRingCtMaterial -->
<g id="edge5" class="edge"><title>ndOutput&#45;&gt;ndRingCtMaterial</title>
<path fill="none" stroke="black" d="M86.8976,-82.937C104.679,-73.5847 125.5,-62.6331 144.281,-52.7545"/>
<polygon fill="black" stroke="black" points="144.445,-52.6685 147.893,-46.3353 155.066,-47.0824 151.617,-53.4156 144.445,-52.6685"/>
</g>
<!-- ndOutputProof -->
<g id="node5" class="node"><title>ndOutputProof</title>
<g id="a_node5_6"><a xlink:href="https://github.com/maidsafe/blst-ringct/blob/master/src/ringct.rs#:~:text=struct%20OutputProof" xlink:title="&lt;TABLE&gt;">
<polygon fill="lightblue" stroke="none" points="623,-170.5 623,-207.5 731,-207.5 731,-170.5 623,-170.5"/>
<polygon fill="none" stroke="black" points="623,-170.5 623,-207.5 731,-207.5 731,-170.5 623,-170.5"/>
<text text-anchor="start" x="634" y="-186.3" font-family="Arial" font-weight="bold" font-size="14.00">OutputProof</text>
<polygon fill="none" stroke="black" points="622,-170 622,-209 732,-209 732,-170 622,-170"/>
</a>
</g>
</g>
<!-- ndRingCtTransaction -->
<g id="node6" class="node"><title>ndRingCtTransaction</title>
<g id="a_node6_7"><a xlink:href="https://github.com/maidsafe/blst-ringct/blob/master/src/ringct.rs#:~:text=struct%20RingCtTransaction" xlink:title="&lt;TABLE&gt;">
<polygon fill="lightblue" stroke="none" points="445,-87.5 445,-124.5 597,-124.5 597,-87.5 445,-87.5"/>
<polygon fill="none" stroke="black" points="445,-87.5 445,-124.5 597,-124.5 597,-87.5 445,-87.5"/>
<text text-anchor="start" x="456" y="-103.3" font-family="Arial" font-weight="bold" font-size="14.00">RingCtTransaction</text>
<polygon fill="none" stroke="black" points="444,-87 444,-126 598,-126 598,-87 444,-87"/>
</a>
</g>
</g>
<!-- ndOutputProof&#45;&gt;ndRingCtTransaction -->
<g id="edge6" class="edge"><title>ndOutputProof&#45;&gt;ndRingCtTransaction</title>
<path fill="none" stroke="black" d="M633.545,-165.937C615.449,-156.541 594.244,-145.531 575.15,-135.616"/>
<polygon fill="black" stroke="black" points="575.142,-135.612 567.974,-136.397 564.492,-130.082 571.66,-129.297 575.142,-135.612"/>
</g>
<!-- ndRingCtTransaction&#45;&gt;ndRingCtMaterial -->
<g id="edge7" class="edge"><title>ndRingCtTransaction&#45;&gt;ndRingCtMaterial</title>
<path fill="none" stroke="black" d="M435.713,-84.1123C387.378,-71.9912 327.226,-56.9066 279.525,-44.9444"/>
<polygon fill="black" stroke="black" points="269.544,-42.4414 280.338,-40.509 274.394,-43.6576 279.244,-44.8739 279.244,-44.8739 279.244,-44.8739 274.394,-43.6576 278.149,-49.2387 269.544,-42.4414 269.544,-42.4414"/>
</g>
<!-- ndTrueInput&#45;&gt;ndMlsagMaterial -->
<g id="edge8" class="edge"><title>ndTrueInput&#45;&gt;ndMlsagMaterial</title>
<path fill="none" stroke="black" d="M220.842,-165.937C229.389,-157.494 239.255,-147.748 248.451,-138.665"/>
<polygon fill="black" stroke="black" points="248.459,-138.656 249.917,-131.594 256.997,-130.223 255.539,-137.285 248.459,-138.656"/>
</g>
<!-- ndDecoyInput -->
<g id="node8" class="node"><title>ndDecoyInput</title>
<g id="a_node8_8"><a xlink:href="https://github.com/maidsafe/blst-ringct/blob/master/src/mlsag.rs#:~:text=struct%20DecoyInput" xlink:title="&lt;TABLE&gt;">
<polygon fill="lightblue" stroke="none" points="317,-170.5 317,-207.5 419,-207.5 419,-170.5 317,-170.5"/>
<polygon fill="none" stroke="black" points="317,-170.5 317,-207.5 419,-207.5 419,-170.5 317,-170.5"/>
<text text-anchor="start" x="328" y="-186.3" font-family="Arial" font-weight="bold" font-size="14.00">DecoyInput</text>
<polygon fill="none" stroke="black" points="316,-170 316,-209 420,-209 420,-170 316,-170"/>
</a>
</g>
</g>
<!-- ndDecoyInput&#45;&gt;ndMlsagMaterial -->
<g id="edge9" class="edge"><title>ndDecoyInput&#45;&gt;ndMlsagMaterial</title>
<path fill="none" stroke="black" d="M343.487,-165.937C334.22,-157.407 323.508,-147.547 313.553,-138.384"/>
<polygon fill="black" stroke="black" points="313.516,-138.35 306.392,-137.229 304.687,-130.223 311.81,-131.343 313.516,-138.35"/>
</g>
<!-- ndMlsagMaterial&#45;&gt;ndRingCtMaterial -->
<g id="edge10" class="edge"><title>ndMlsagMaterial&#45;&gt;ndRingCtMaterial</title>
<path fill="none" stroke="black" d="M257.158,-82.937C248.611,-74.4942 238.745,-64.7481 229.549,-55.6646"/>
<polygon fill="black" stroke="black" points="229.541,-55.656 222.461,-54.2852 221.003,-47.2229 228.083,-48.5938 229.541,-55.656"/>
</g>
<!-- ndMlsagSignature -->
<g id="node10" class="node"><title>ndMlsagSignature</title>
<g id="a_node10_9"><a xlink:href="https://github.com/maidsafe/blst-ringct/blob/master/src/mlsag.rs#:~:text=struct%20MlsagSignature" xlink:title="&lt;TABLE&gt;">
<polygon fill="lightblue" stroke="none" points="455,-170.5 455,-207.5 587,-207.5 587,-170.5 455,-170.5"/>
<polygon fill="none" stroke="black" points="455,-170.5 455,-207.5 587,-207.5 587,-170.5 455,-170.5"/>
<text text-anchor="start" x="466" y="-186.3" font-family="Arial" font-weight="bold" font-size="14.00">MlsagSignature</text>
<polygon fill="none" stroke="black" points="454,-170 454,-209 588,-209 588,-170 454,-170"/>
</a>
</g>
</g>
<!-- ndMlsagSignature&#45;&gt;ndRingCtTransaction -->
<g id="edge11" class="edge"><title>ndMlsagSignature&#45;&gt;ndRingCtTransaction</title>
<path fill="none" stroke="black" d="M521,-165.937C521,-158.626 521,-150.337 521,-142.348"/>
<polygon fill="black" stroke="black" points="521,-142.223 517,-136.223 521,-130.223 525,-136.223 521,-142.223"/>
</g>
<!-- ndMlsagSignature&#45;&gt;ndMlsagMaterial -->
<g id="edge12" class="edge"><title>ndMlsagSignature&#45;&gt;ndMlsagMaterial</title>
<path fill="none" stroke="black" d="M453.868,-165.937C423.701,-155.798 387.943,-143.78 356.722,-133.286"/>
<polygon fill="black" stroke="black" points="347.189,-130.082 358.102,-129.003 351.929,-131.675 356.668,-133.268 356.668,-133.268 356.668,-133.268 351.929,-131.675 355.235,-137.534 347.189,-130.082 347.189,-130.082"/>
</g>
</g>
</svg>
