<?xml version="1.0" encoding="UTF-8" standalone="no"?>
<!DOCTYPE svg PUBLIC "-//W3C//DTD SVG 1.1//EN"
 "http://www.w3.org/Graphics/SVG/1.1/DTD/svg11.dtd">
<!-- Generated by graphviz version 2.38.0 (20140413.2041)
 -->
<!-- Title: ml Pages: 1 -->
<svg width="1017pt" height="392pt"
 viewBox="0.00 0.00 1017.00 392.00" xmlns="http://www.w3.org/2000/svg" xmlns:xlink="http://www.w3.org/1999/xlink">
<g id="graph0" class="graph" transform="scale(1 1) rotate(0) translate(4 388)">
<title>ml</title>
<polygon fill="white" stroke="none" points="-4,4 -4,-388 1013,-388 1013,4 -4,4"/>
<!-- ndPublicKeySet -->
<g id="node1" class="node"><title>ndPublicKeySet</title>
<polygon fill="lightblue" stroke="none" points="9,-184.5 9,-221.5 175,-221.5 175,-184.5 9,-184.5"/>
<polygon fill="none" stroke="black" points="9,-184.5 9,-221.5 175,-221.5 175,-184.5 9,-184.5"/>
<text text-anchor="start" x="45" y="-200.3" font-family="Arial" font-weight="bold" font-size="14.00">PublicKeySet</text>
<polygon fill="white" stroke="none" points="9,-147.5 9,-184.5 175,-184.5 175,-147.5 9,-147.5"/>
<polygon fill="none" stroke="black" points="9,-147.5 9,-184.5 175,-184.5 175,-147.5 9,-147.5"/>
<text text-anchor="start" x="20" y="-162.3" font-family="Arial" font-size="14.00">&#45; commit: Commitment</text>
<polygon fill="none" stroke="black" points="8,-146.5 8,-222.5 176,-222.5 176,-146.5 8,-146.5"/>
</g>
<!-- ndSecretKeySet -->
<g id="node2" class="node"><title>ndSecretKeySet</title>
<polygon fill="lightblue" stroke="none" points="131,-49.5 131,-86.5 248,-86.5 248,-49.5 131,-49.5"/>
<polygon fill="none" stroke="black" points="131,-49.5 131,-86.5 248,-86.5 248,-49.5 131,-49.5"/>
<text text-anchor="start" x="142" y="-65.3" font-family="Arial" font-weight="bold" font-size="14.00">SecretKeySet</text>
<polygon fill="white" stroke="none" points="131,-12.5 131,-49.5 248,-49.5 248,-12.5 131,-12.5"/>
<polygon fill="none" stroke="black" points="131,-12.5 131,-49.5 248,-49.5 248,-12.5 131,-12.5"/>
<text text-anchor="start" x="142" y="-27.3" font-family="Arial" font-size="14.00">&#45; poly: Poly</text>
<polygon fill="none" stroke="black" points="129.5,-11.5 129.5,-87.5 248.5,-87.5 248.5,-11.5 129.5,-11.5"/>
</g>
<!-- ndPublicKeySet&#45;&gt;ndSecretKeySet -->
<g id="edge1" class="edge"><title>ndPublicKeySet&#45;&gt;ndSecretKeySet</title>
<path fill="none" stroke="black" d="M122.16,-142.147C131.831,-128.886 142.644,-114.06 152.707,-100.262"/>
<polygon fill="black" stroke="black" points="158.859,-91.8274 156.602,-102.559 155.913,-95.8671 152.966,-99.9069 152.966,-99.9069 152.966,-99.9069 155.913,-95.8671 149.331,-97.2552 158.859,-91.8274 158.859,-91.8274"/>
</g>
<!-- ndError -->
<g id="node3" class="node"><title>ndError</title>
<polygon fill="yellow" stroke="none" points="376,-342 376,-379 514,-379 514,-342 376,-342"/>
<polygon fill="none" stroke="black" points="376,-342 376,-379 514,-379 514,-342 376,-342"/>
<text text-anchor="start" x="426.5" y="-357.8" font-family="Arial" font-weight="bold" font-size="14.00">Error</text>
<polygon fill="white" stroke="none" points="376,-275 376,-342 514,-342 514,-275 376,-275"/>
<polygon fill="none" stroke="black" points="376,-275 376,-342 514,-342 514,-275 376,-275"/>
<text text-anchor="start" x="387" y="-319.8" font-family="Arial" font-size="14.00">NotEnoughShares</text>
<text text-anchor="start" x="387" y="-304.8" font-family="Arial" font-size="14.00">DuplicateEntry</text>
<text text-anchor="start" x="387" y="-289.8" font-family="Arial" font-size="14.00">DegreeTooHigh</text>
<polygon fill="none" stroke="black" points="375,-274 375,-380 515,-380 515,-274 375,-274"/>
</g>
<!-- ndFromBytesError -->
<g id="node4" class="node"><title>ndFromBytesError</title>
<polygon fill="yellow" stroke="none" points="550,-327 550,-364 686,-364 686,-327 550,-327"/>
<polygon fill="none" stroke="black" points="550,-327 550,-364 686,-364 686,-327 550,-327"/>
<text text-anchor="start" x="561" y="-342.8" font-family="Arial" font-weight="bold" font-size="14.00">FromBytesError</text>
<polygon fill="white" stroke="none" points="550,-290 550,-327 686,-327 686,-290 550,-290"/>
<polygon fill="none" stroke="black" points="550,-290 550,-327 686,-327 686,-290 550,-290"/>
<text text-anchor="start" x="561" y="-304.8" font-family="Arial" font-size="14.00">Invalid</text>
<polygon fill="none" stroke="black" points="549,-289 549,-365 687,-365 687,-289 549,-289"/>
</g>
<!-- ndIntoFr -->
<g id="node5" class="node"><title>ndIntoFr</title>
<polygon fill="lightgreen" stroke="none" points="722,-308 722,-345 786,-345 786,-308 722,-308"/>
<polygon fill="none" stroke="black" points="722,-308 722,-345 786,-345 786,-308 722,-308"/>
<text text-anchor="start" x="733" y="-323.8" font-family="Arial" font-weight="bold" font-size="14.00">IntoFr</text>
<polygon fill="none" stroke="black" points="721,-307.5 721,-346.5 787,-346.5 787,-307.5 721,-307.5"/>
</g>
<!-- ndPoly -->
<g id="node6" class="node"><title>ndPoly</title>
<polygon fill="lightblue" stroke="none" points="211,-184.5 211,-221.5 337,-221.5 337,-184.5 211,-184.5"/>
<polygon fill="none" stroke="black" points="211,-184.5 211,-221.5 337,-221.5 337,-184.5 211,-184.5"/>
<text text-anchor="start" x="258.5" y="-200.3" font-family="Arial" font-weight="bold" font-size="14.00">Poly</text>
<polygon fill="white" stroke="none" points="211,-147.5 211,-184.5 337,-184.5 337,-147.5 211,-147.5"/>
<polygon fill="none" stroke="black" points="211,-147.5 211,-184.5 337,-184.5 337,-147.5 211,-147.5"/>
<text text-anchor="start" x="222" y="-162.3" font-family="Arial" font-size="14.00">&#45; coeff: Vec&lt;Fr&gt;</text>
<polygon fill="none" stroke="black" points="210,-146.5 210,-222.5 338,-222.5 338,-146.5 210,-146.5"/>
</g>
<!-- ndPoly&#45;&gt;ndSecretKeySet -->
<g id="edge2" class="edge"><title>ndPoly&#45;&gt;ndSecretKeySet</title>
<path fill="none" stroke="black" stroke-dasharray="5,2" d="M247.571,-142.147C239.496,-129.511 230.513,-115.455 222.055,-102.221"/>
<polygon fill="black" stroke="black" points="221.874,-101.939 215.273,-99.0372 215.412,-91.8274 222.014,-94.729 221.874,-101.939"/>
</g>
<!-- ndBivarPoly -->
<g id="node8" class="node"><title>ndBivarPoly</title>
<polygon fill="lightblue" stroke="none" points="296,-56.5 296,-93.5 422,-93.5 422,-56.5 296,-56.5"/>
<polygon fill="none" stroke="black" points="296,-56.5 296,-93.5 422,-93.5 422,-56.5 296,-56.5"/>
<text text-anchor="start" x="325" y="-72.3" font-family="Arial" font-weight="bold" font-size="14.00">BivarPoly</text>
<polygon fill="white" stroke="none" points="296,-4.5 296,-56.5 422,-56.5 422,-4.5 296,-4.5"/>
<polygon fill="none" stroke="black" points="296,-4.5 296,-56.5 422,-56.5 422,-4.5 296,-4.5"/>
<text text-anchor="start" x="307" y="-34.3" font-family="Arial" font-size="14.00">&#45; degree: usize</text>
<text text-anchor="start" x="307" y="-19.3" font-family="Arial" font-size="14.00">&#45; coeff: Vec&lt;Fr&gt;</text>
<polygon fill="none" stroke="black" points="295,-4 295,-95 423,-95 423,-4 295,-4"/>
</g>
<!-- ndPoly&#45;&gt;ndBivarPoly -->
<g id="edge3" class="edge"><title>ndPoly&#45;&gt;ndBivarPoly</title>
<path fill="none" stroke="black" d="M300.429,-142.147C307.341,-131.331 314.919,-119.474 322.263,-107.982"/>
<polygon fill="black" stroke="black" points="327.819,-99.2897 326.225,-110.139 325.126,-103.503 322.433,-107.716 322.433,-107.716 322.433,-107.716 325.126,-103.503 318.642,-105.293 327.819,-99.2897 327.819,-99.2897"/>
</g>
<!-- ndCommitment -->
<g id="node7" class="node"><title>ndCommitment</title>
<polygon fill="lightblue" stroke="none" points="208,-327 208,-364 340,-364 340,-327 208,-327"/>
<polygon fill="none" stroke="black" points="208,-327 208,-364 340,-364 340,-327 208,-327"/>
<text text-anchor="start" x="230" y="-342.8" font-family="Arial" font-weight="bold" font-size="14.00">Commitment</text>
<polygon fill="white" stroke="none" points="208,-290 208,-327 340,-327 340,-290 208,-290"/>
<polygon fill="none" stroke="black" points="208,-290 208,-327 340,-327 340,-290 208,-290"/>
<text text-anchor="start" x="219" y="-304.8" font-family="Arial" font-size="14.00">&#45; coeff: Vec&lt;G1&gt;</text>
<polygon fill="none" stroke="black" points="207,-289 207,-365 341,-365 341,-289 207,-289"/>
</g>
<!-- ndCommitment&#45;&gt;ndPublicKeySet -->
<g id="edge4" class="edge"><title>ndCommitment&#45;&gt;ndPublicKeySet</title>
<path fill="none" stroke="black" stroke-dasharray="5,2" d="M220.869,-284.984C200.215,-269.039 176.393,-250.65 154.893,-234.052"/>
<polygon fill="black" stroke="black" points="154.696,-233.9 147.502,-233.4 145.197,-226.567 152.391,-227.067 154.696,-233.9"/>
</g>
<!-- ndCommitment&#45;&gt;ndPoly -->
<g id="edge5" class="edge"><title>ndCommitment&#45;&gt;ndPoly</title>
<path fill="none" stroke="black" d="M274,-284.984C274,-269.968 274,-252.783 274,-236.968"/>
<polygon fill="black" stroke="black" points="274,-226.81 278.5,-236.81 274,-231.81 274,-236.81 274,-236.81 274,-236.81 274,-231.81 269.5,-236.81 274,-226.81 274,-226.81"/>
</g>
<!-- ndBivarCommitment -->
<g id="node9" class="node"><title>ndBivarCommitment</title>
<polygon fill="lightblue" stroke="none" points="374,-191.5 374,-228.5 521,-228.5 521,-191.5 374,-191.5"/>
<polygon fill="none" stroke="black" points="374,-191.5 374,-228.5 521,-228.5 521,-191.5 374,-191.5"/>
<text text-anchor="start" x="385" y="-207.3" font-family="Arial" font-weight="bold" font-size="14.00">BivarCommitment</text>
<polygon fill="white" stroke="none" points="374,-139.5 374,-191.5 521,-191.5 521,-139.5 374,-139.5"/>
<polygon fill="none" stroke="black" points="374,-139.5 374,-191.5 521,-191.5 521,-139.5 374,-139.5"/>
<text text-anchor="start" x="385" y="-169.3" font-family="Arial" font-size="14.00">&#45; degree: usize</text>
<text text-anchor="start" x="385" y="-154.3" font-family="Arial" font-size="14.00">&#45; coeff: Vec&lt;G1&gt;</text>
<polygon fill="none" stroke="black" points="372.5,-139 372.5,-230 521.5,-230 521.5,-139 372.5,-139"/>
</g>
<!-- ndCommitment&#45;&gt;ndBivarCommitment -->
<g id="edge6" class="edge"><title>ndCommitment&#45;&gt;ndBivarCommitment</title>
<path fill="none" stroke="black" d="M324.504,-284.984C341.542,-271.147 360.848,-255.468 379.011,-240.717"/>
<polygon fill="black" stroke="black" points="387.264,-234.014 382.338,-243.812 383.382,-237.166 379.501,-240.319 379.501,-240.319 379.501,-240.319 383.382,-237.166 376.664,-236.825 387.264,-234.014 387.264,-234.014"/>
</g>
<!-- ndBivarCommitment&#45;&gt;ndBivarPoly -->
<g id="edge7" class="edge"><title>ndBivarCommitment&#45;&gt;ndBivarPoly</title>
<path fill="none" stroke="black" d="M414.732,-134.731C408.933,-125.967 402.84,-116.759 396.899,-107.78"/>
<polygon fill="black" stroke="black" points="391.264,-99.2632 400.535,-105.12 394.023,-103.433 396.782,-107.603 396.782,-107.603 396.782,-107.603 394.023,-103.433 393.03,-110.086 391.264,-99.2632 391.264,-99.2632"/>
</g>
<!-- ndWireBivarCommitment -->
<g id="node10" class="node"><title>ndWireBivarCommitment</title>
<polygon fill="lightblue" stroke="none" points="822,-334 822,-371 1000,-371 1000,-334 822,-334"/>
<polygon fill="none" stroke="black" points="822,-334 822,-371 1000,-371 1000,-334 822,-334"/>
<text text-anchor="start" x="833" y="-349.8" font-family="Arial" font-weight="bold" font-size="14.00">WireBivarCommitment</text>
<polygon fill="white" stroke="none" points="822,-282 822,-334 1000,-334 1000,-282 822,-282"/>
<polygon fill="none" stroke="black" points="822,-282 822,-334 1000,-334 1000,-282 822,-282"/>
<text text-anchor="start" x="833" y="-311.8" font-family="Arial" font-size="14.00">&#45; degree: usize</text>
<text text-anchor="start" x="833" y="-296.8" font-family="Arial" font-size="14.00">&#45; coeff: Cow&lt;&#39;a, [G1]&gt;</text>
<polygon fill="none" stroke="black" points="821,-281.5 821,-372.5 1001,-372.5 1001,-281.5 821,-281.5"/>
</g>
</g>
</svg>
