<?xml version="1.0" encoding="UTF-8" standalone="no"?>
<!DOCTYPE svg PUBLIC "-//W3C//DTD SVG 1.1//EN"
 "http://www.w3.org/Graphics/SVG/1.1/DTD/svg11.dtd">
<!-- Generated by graphviz version 2.38.0 (20140413.2041)
 -->
<!-- Title: ml Pages: 1 -->
<svg width="730pt" height="304pt"
 viewBox="0.00 0.00 730.00 304.00" xmlns="http://www.w3.org/2000/svg" xmlns:xlink="http://www.w3.org/1999/xlink">
<g id="graph0" class="graph" transform="scale(1 1) rotate(0) translate(4 300)">
<title>ml</title>
<polygon fill="white" stroke="none" points="-4,4 -4,-300 726,-300 726,4 -4,4"/>
<!-- ndOutput -->
<g id="node1" class="node"><title>ndOutput</title>
<g id="a_node1_0"><a xlink:href="https://github.com/maidsafe/blst-ringct/blob/master/src/ringct.rs#:~:text=struct%20Output" xlink:title="&lt;TABLE&gt;">
<polygon fill="lightblue" stroke="none" points="9,-87.5 9,-124.5 79,-124.5 79,-87.5 9,-87.5"/>
<polygon fill="none" stroke="black" points="9,-87.5 9,-124.5 79,-124.5 79,-87.5 9,-87.5"/>
<text text-anchor="start" x="20" y="-103.3" font-family="Arial" font-weight="bold" font-size="14.00">Output</text>
<polygon fill="none" stroke="black" points="8,-87 8,-126 80,-126 80,-87 8,-87"/>
</a>
</g>
</g>
<!-- ndRingCtMaterial -->
<g id="node2" class="node"><title>ndRingCtMaterial</title>
<g id="a_node2_1"><a xlink:href="https://github.com/maidsafe/blst-ringct/blob/master/src/ringct.rs#:~:text=struct%20RingCtMaterial" xlink:title="&lt;TABLE&gt;">
<polygon fill="lightblue" stroke="none" points="122,-4.5 122,-41.5 247,-41.5 247,-4.5 122,-4.5"/>
<polygon fill="none" stroke="black" points="122,-4.5 122,-41.5 247,-41.5 247,-4.5 122,-4.5"/>
<text text-anchor="start" x="133" y="-20.3" font-family="Arial" font-weight="bold" font-size="14.00">RingCtMaterial</text>
<polygon fill="none" stroke="black" points="120.5,-4 120.5,-43 247.5,-43 247.5,-4 120.5,-4"/>
</a>
</g>
</g>
<!-- ndOutput&#45;&gt;ndRingCtMaterial -->
<g id="edge1" class="edge"><title>ndOutput&#45;&gt;ndRingCtMaterial</title>
<path fill="none" stroke="black" d="M82.9978,-82.937C98.7938,-73.7979 117.229,-63.1317 133.994,-53.4318"/>
<polygon fill="black" stroke="black" points="134.339,-53.2325 137.529,-46.7655 144.726,-47.2229 141.536,-53.69 134.339,-53.2325"/>
</g>
<!-- ndRingCtSignature -->
<g id="node3" class="node"><title>ndRingCtSignature</title>
<g id="a_node3_2"><a xlink:href="https://github.com/maidsafe/blst-ringct/blob/master/src/ringct.rs#:~:text=struct%20RingCtSignature" xlink:title="&lt;TABLE&gt;">
<polygon fill="lightblue" stroke="none" points="116,-87.5 116,-124.5 253,-124.5 253,-87.5 116,-87.5"/>
<polygon fill="none" stroke="black" points="116,-87.5 116,-124.5 253,-124.5 253,-87.5 116,-87.5"/>
<text text-anchor="start" x="127" y="-103.3" font-family="Arial" font-weight="bold" font-size="14.00">RingCtSignature</text>
<polygon fill="none" stroke="black" points="114.5,-87 114.5,-126 253.5,-126 253.5,-87 114.5,-87"/>
</a>
</g>
</g>
<!-- ndRingCtSignature&#45;&gt;ndRingCtMaterial -->
<g id="edge2" class="edge"><title>ndRingCtSignature&#45;&gt;ndRingCtMaterial</title>
<path fill="none" stroke="black" d="M184,-82.937C184,-75.0164 184,-65.9488 184,-57.3574"/>
<polygon fill="black" stroke="black" points="184,-47.2229 188.5,-57.2229 184,-52.2229 184,-57.2229 184,-57.2229 184,-57.2229 184,-52.2229 179.5,-57.223 184,-47.2229 184,-47.2229"/>
</g>
<!-- ndTrueInput -->
<g id="node4" class="node"><title>ndTrueInput</title>
<g id="a_node4_3"><a xlink:href="https://github.com/maidsafe/blst-ringct/blob/master/src/mlsag.rs#:~:text=struct%20TrueInput" xlink:title="&lt;TABLE&gt;">
<polygon fill="lightblue" stroke="none" points="447,-170.5 447,-207.5 537,-207.5 537,-170.5 447,-170.5"/>
<polygon fill="none" stroke="black" points="447,-170.5 447,-207.5 537,-207.5 537,-170.5 447,-170.5"/>
<text text-anchor="start" x="458" y="-186.3" font-family="Arial" font-weight="bold" font-size="14.00">TrueInput</text>
<polygon fill="none" stroke="black" points="446,-170 446,-209 538,-209 538,-170 446,-170"/>
</a>
</g>
</g>
<!-- ndMlsagMaterial -->
<g id="node6" class="node"><title>ndMlsagMaterial</title>
<g id="a_node6_4"><a xlink:href="https://github.com/maidsafe/blst-ringct/blob/master/src/mlsag.rs#:~:text=struct%20MlsagMaterial" xlink:title="&lt;TABLE&gt;">
<polygon fill="lightblue" stroke="none" points="432,-87.5 432,-124.5 552,-124.5 552,-87.5 432,-87.5"/>
<polygon fill="none" stroke="black" points="432,-87.5 432,-124.5 552,-124.5 552,-87.5 432,-87.5"/>
<text text-anchor="start" x="443" y="-103.3" font-family="Arial" font-weight="bold" font-size="14.00">MlsagMaterial</text>
<polygon fill="none" stroke="black" points="431,-87 431,-126 553,-126 553,-87 431,-87"/>
</a>
</g>
</g>
<!-- ndTrueInput&#45;&gt;ndMlsagMaterial -->
<g id="edge3" class="edge"><title>ndTrueInput&#45;&gt;ndMlsagMaterial</title>
<path fill="none" stroke="black" d="M492,-165.937C492,-158.626 492,-150.337 492,-142.348"/>
<polygon fill="black" stroke="black" points="492,-142.223 488,-136.223 492,-130.223 496,-136.223 492,-142.223"/>
</g>
<!-- ndDecoyInput -->
<g id="node5" class="node"><title>ndDecoyInput</title>
<g id="a_node5_5"><a xlink:href="https://github.com/maidsafe/blst-ringct/blob/master/src/mlsag.rs#:~:text=struct%20DecoyInput" xlink:title="&lt;TABLE&gt;">
<polygon fill="lightblue" stroke="none" points="611,-170.5 611,-207.5 713,-207.5 713,-170.5 611,-170.5"/>
<polygon fill="none" stroke="black" points="611,-170.5 611,-207.5 713,-207.5 713,-170.5 611,-170.5"/>
<text text-anchor="start" x="622" y="-186.3" font-family="Arial" font-weight="bold" font-size="14.00">DecoyInput</text>
<polygon fill="none" stroke="black" points="610,-170 610,-209 714,-209 714,-170 610,-170"/>
</a>
</g>
</g>
<!-- ndDecoyInput&#45;&gt;ndMlsagMaterial -->
<g id="edge4" class="edge"><title>ndDecoyInput&#45;&gt;ndMlsagMaterial</title>
<path fill="none" stroke="black" d="M614.646,-165.937C594.742,-156.454 571.387,-145.326 550.429,-135.34"/>
<polygon fill="black" stroke="black" points="550.228,-135.244 543.091,-136.274 539.395,-130.082 546.532,-129.052 550.228,-135.244"/>
</g>
<!-- ndMlsagMaterial&#45;&gt;ndRingCtMaterial -->
<g id="edge5" class="edge"><title>ndMlsagMaterial&#45;&gt;ndRingCtMaterial</title>
<path fill="none" stroke="black" d="M422.879,-87.322C376.837,-75.2136 316.074,-59.2338 267.355,-46.4212"/>
<polygon fill="black" stroke="black" points="267.17,-46.3726 260.35,-48.715 255.564,-43.3205 262.384,-40.9781 267.17,-46.3726"/>
</g>
<!-- ndMlsagSignature -->
<g id="node7" class="node"><title>ndMlsagSignature</title>
<g id="a_node7_6"><a xlink:href="https://github.com/maidsafe/blst-ringct/blob/master/src/mlsag.rs#:~:text=struct%20MlsagSignature" xlink:title="&lt;TABLE&gt;">
<polygon fill="lightblue" stroke="none" points="81,-170.5 81,-207.5 213,-207.5 213,-170.5 81,-170.5"/>
<polygon fill="none" stroke="black" points="81,-170.5 81,-207.5 213,-207.5 213,-170.5 81,-170.5"/>
<text text-anchor="start" x="92" y="-186.3" font-family="Arial" font-weight="bold" font-size="14.00">MlsagSignature</text>
<polygon fill="none" stroke="black" points="80,-170 80,-209 214,-209 214,-170 80,-170"/>
</a>
</g>
</g>
<!-- ndMlsagSignature&#45;&gt;ndRingCtSignature -->
<g id="edge6" class="edge"><title>ndMlsagSignature&#45;&gt;ndRingCtSignature</title>
<path fill="none" stroke="black" d="M157.307,-165.937C160.805,-158.278 164.794,-149.545 168.602,-141.209"/>
<polygon fill="black" stroke="black" points="168.634,-141.138 167.489,-134.019 173.62,-130.223 174.766,-137.343 168.634,-141.138"/>
</g>
<!-- ndMlsagSignature&#45;&gt;ndMlsagMaterial -->
<g id="edge7" class="edge"><title>ndMlsagSignature&#45;&gt;ndMlsagMaterial</title>
<path fill="none" stroke="black" d="M222.066,-168.229C225.081,-167.467 228.068,-166.721 231,-166 291.897,-151.026 361.177,-135.571 413.048,-124.309"/>
<polygon fill="black" stroke="black" points="422.853,-122.185 414.033,-128.7 417.967,-123.244 413.08,-124.302 413.08,-124.302 413.08,-124.302 417.967,-123.244 412.127,-119.904 422.853,-122.185 422.853,-122.185"/>
</g>
<!-- ndPedersenCommitter -->
<g id="node8" class="node"><title>ndPedersenCommitter</title>
<g id="a_node8_7"><a xlink:href="https://github.com/maidsafe/blst-ringct/blob/master/src/pedersen_commitment.rs#:~:text=struct%20PedersenCommitter" xlink:title="&lt;TABLE&gt;">
<polygon fill="lightblue" stroke="none" points="250,-170.5 250,-207.5 411,-207.5 411,-170.5 250,-170.5"/>
<polygon fill="none" stroke="black" points="250,-170.5 250,-207.5 411,-207.5 411,-170.5 250,-170.5"/>
<text text-anchor="start" x="261" y="-186.3" font-family="Arial" font-weight="bold" font-size="14.00">PedersenCommitter</text>
<polygon fill="none" stroke="black" points="248.5,-170 248.5,-209 411.5,-209 411.5,-170 248.5,-170"/>
</a>
</g>
</g>
<!-- ndRevealedCommitment -->
<g id="node9" class="node"><title>ndRevealedCommitment</title>
<g id="a_node9_8"><a xlink:href="https://github.com/maidsafe/blst-ringct/blob/master/src/pedersen_commitment.rs#:~:text=struct%20RevealedCommitment" xlink:title="&lt;TABLE&gt;">
<polygon fill="lightblue" stroke="none" points="324,-253.5 324,-290.5 498,-290.5 498,-253.5 324,-253.5"/>
<polygon fill="none" stroke="black" points="324,-253.5 324,-290.5 498,-290.5 498,-253.5 324,-253.5"/>
<text text-anchor="start" x="335" y="-269.3" font-family="Arial" font-weight="bold" font-size="14.00">RevealedCommitment</text>
<polygon fill="none" stroke="black" points="323,-253 323,-292 499,-292 499,-253 323,-253"/>
</a>
</g>
</g>
<!-- ndRevealedCommitment&#45;&gt;ndOutput -->
<g id="edge8" class="edge"><title>ndRevealedCommitment&#45;&gt;ndOutput</title>
<path fill="none" stroke="black" d="M314.746,-267.471C224.286,-261.603 97.7485,-247.346 63,-213 44.1758,-194.394 40.403,-163.9 40.7678,-140.47"/>
<polygon fill="black" stroke="black" points="41.1874,-130.27 45.2725,-140.446 40.9819,-135.266 40.7763,-140.261 40.7763,-140.261 40.7763,-140.261 40.9819,-135.266 36.2801,-140.076 41.1874,-130.27 41.1874,-130.27"/>
</g>
<!-- ndRevealedCommitment&#45;&gt;ndTrueInput -->
<g id="edge9" class="edge"><title>ndRevealedCommitment&#45;&gt;ndTrueInput</title>
<path fill="none" stroke="black" d="M433.563,-248.937C441.919,-240.581 451.551,-230.949 460.554,-221.946"/>
<polygon fill="black" stroke="black" points="460.792,-221.708 462.206,-214.637 469.277,-213.223 467.863,-220.294 460.792,-221.708"/>
</g>
<!-- ndRevealedCommitment&#45;&gt;ndMlsagMaterial -->
<g id="edge10" class="edge"><title>ndRevealedCommitment&#45;&gt;ndMlsagMaterial</title>
<path fill="none" stroke="black" d="M507.107,-250.808C525.976,-242.239 543.473,-230.125 555,-213 566.664,-195.671 563.35,-185.148 555,-166 550.247,-155.101 542.352,-145.32 533.73,-137.017"/>
<polygon fill="black" stroke="black" points="526.026,-130.11 536.476,-133.435 529.749,-133.448 533.472,-136.786 533.472,-136.786 533.472,-136.786 529.749,-133.448 530.467,-140.136 526.026,-130.11 526.026,-130.11"/>
</g>
<!-- ndRevealedCommitment&#45;&gt;ndPedersenCommitter -->
<g id="edge11" class="edge"><title>ndRevealedCommitment&#45;&gt;ndPedersenCommitter</title>
<path fill="none" stroke="black" stroke-dasharray="5,2" d="M388.437,-248.937C379.646,-240.146 369.442,-229.942 360.044,-220.544"/>
<polygon fill="black" stroke="black" points="352.723,-213.223 362.976,-217.112 356.258,-216.758 359.794,-220.294 359.794,-220.294 359.794,-220.294 356.258,-216.758 356.612,-223.476 352.723,-213.223 352.723,-213.223"/>
</g>
</g>
</svg>
