<?xml version="1.0" encoding="UTF-8" standalone="no"?>
<!DOCTYPE svg PUBLIC "-//W3C//DTD SVG 1.1//EN"
 "http://www.w3.org/Graphics/SVG/1.1/DTD/svg11.dtd">
<!-- Generated by graphviz version 2.38.0 (20140413.2041)
 -->
<!-- Title: ml Pages: 1 -->
<svg width="1192pt" height="542pt"
 viewBox="0.00 0.00 1192.00 542.00" xmlns="http://www.w3.org/2000/svg" xmlns:xlink="http://www.w3.org/1999/xlink">
<g id="graph0" class="graph" transform="scale(1 1) rotate(0) translate(4 538)">
<title>ml</title>
<polygon fill="white" stroke="none" points="-4,4 -4,-538 1188,-538 1188,4 -4,4"/>
<!-- ndOutput -->
<g id="node1" class="node"><title>ndOutput</title>
<g id="a_node1_0"><a xlink:href="https://github.com/maidsafe/blst-ringct/blob/master/src/ringct.rs#:~:text=struct%20Output" xlink:title="&lt;TABLE&gt;">
<polygon fill="lightblue" stroke="none" points="9.5,-191.5 9.5,-228.5 176.5,-228.5 176.5,-191.5 9.5,-191.5"/>
<polygon fill="none" stroke="black" points="9.5,-191.5 9.5,-228.5 176.5,-228.5 176.5,-191.5 9.5,-191.5"/>
<text text-anchor="start" x="69" y="-207.3" font-family="Arial" font-weight="bold" font-size="14.00">Output</text>
<polygon fill="white" stroke="none" points="9.5,-139.5 9.5,-191.5 176.5,-191.5 176.5,-139.5 9.5,-139.5"/>
<polygon fill="none" stroke="black" points="9.5,-139.5 9.5,-191.5 176.5,-191.5 176.5,-139.5 9.5,-139.5"/>
<text text-anchor="start" x="20.5" y="-169.3" font-family="Arial" font-size="14.00">+ public_key: G1Affine</text>
<text text-anchor="start" x="20.5" y="-154.3" font-family="Arial" font-size="14.00">+ amount: Scalar</text>
<polygon fill="none" stroke="black" points="8,-139 8,-230 177,-230 177,-139 8,-139"/>
</a>
</g>
</g>
<!-- ndRingCtMaterial -->
<g id="node2" class="node"><title>ndRingCtMaterial</title>
<g id="a_node2_1"><a xlink:href="https://github.com/maidsafe/blst-ringct/blob/master/src/ringct.rs#:~:text=struct%20RingCtMaterial" xlink:title="&lt;TABLE&gt;">
<polygon fill="lightblue" stroke="none" points="222.5,-56.5 222.5,-93.5 425.5,-93.5 425.5,-56.5 222.5,-56.5"/>
<polygon fill="none" stroke="black" points="222.5,-56.5 222.5,-93.5 425.5,-93.5 425.5,-56.5 222.5,-56.5"/>
<text text-anchor="start" x="272.5" y="-72.3" font-family="Arial" font-weight="bold" font-size="14.00">RingCtMaterial</text>
<polygon fill="white" stroke="none" points="222.5,-4.5 222.5,-56.5 425.5,-56.5 425.5,-4.5 222.5,-4.5"/>
<polygon fill="none" stroke="black" points="222.5,-4.5 222.5,-56.5 425.5,-56.5 425.5,-4.5 222.5,-4.5"/>
<text text-anchor="start" x="233.5" y="-34.3" font-family="Arial" font-size="14.00">&#45; inputs: Vec&lt;MlsagMaterial&gt;</text>
<text text-anchor="start" x="233.5" y="-19.3" font-family="Arial" font-size="14.00">&#45; outputs: Vec&lt;Output&gt;</text>
<polygon fill="none" stroke="black" points="221,-4 221,-95 426,-95 426,-4 221,-4"/>
</a>
</g>
</g>
<!-- ndOutput&#45;&gt;ndRingCtMaterial -->
<g id="edge1" class="edge"><title>ndOutput&#45;&gt;ndRingCtMaterial</title>
<path fill="none" stroke="black" d="M176.877,-134.919C193.634,-125.272 211.335,-115.08 228.421,-105.243"/>
<polygon fill="black" stroke="black" points="228.566,-105.159 231.77,-98.6988 238.965,-99.1715 235.761,-105.632 228.566,-105.159"/>
</g>
<!-- ndRingCtSignature -->
<g id="node3" class="node"><title>ndRingCtSignature</title>
<g id="a_node3_2"><a xlink:href="https://github.com/maidsafe/blst-ringct/blob/master/src/ringct.rs#:~:text=struct%20RingCtSignature" xlink:title="&lt;TABLE&gt;">
<polygon fill="lightblue" stroke="none" points="212.5,-184.5 212.5,-221.5 435.5,-221.5 435.5,-184.5 212.5,-184.5"/>
<polygon fill="none" stroke="black" points="212.5,-184.5 212.5,-221.5 435.5,-221.5 435.5,-184.5 212.5,-184.5"/>
<text text-anchor="start" x="266.5" y="-200.3" font-family="Arial" font-weight="bold" font-size="14.00">RingCtSignature</text>
<polygon fill="white" stroke="none" points="212.5,-147.5 212.5,-184.5 435.5,-184.5 435.5,-147.5 212.5,-147.5"/>
<polygon fill="none" stroke="black" points="212.5,-147.5 212.5,-184.5 435.5,-184.5 435.5,-147.5 212.5,-147.5"/>
<text text-anchor="start" x="223.5" y="-162.3" font-family="Arial" font-size="14.00">&#45; mlsags: Vec&lt;MlsagSignature&gt;</text>
<polygon fill="none" stroke="black" points="211,-146.5 211,-222.5 436,-222.5 436,-146.5 211,-146.5"/>
</a>
</g>
</g>
<!-- ndRingCtSignature&#45;&gt;ndRingCtMaterial -->
<g id="edge2" class="edge"><title>ndRingCtSignature&#45;&gt;ndRingCtMaterial</title>
<path fill="none" stroke="black" d="M323.5,-142.147C323.5,-131.755 323.5,-120.402 323.5,-109.336"/>
<polygon fill="black" stroke="black" points="323.5,-99.2897 328,-109.29 323.5,-104.29 323.5,-109.29 323.5,-109.29 323.5,-109.29 323.5,-104.29 319,-109.29 323.5,-99.2897 323.5,-99.2897"/>
</g>
<!-- ndTrueInput -->
<g id="node4" class="node"><title>ndTrueInput</title>
<g id="a_node4_3"><a xlink:href="https://github.com/maidsafe/blst-ringct/blob/master/src/mlsag.rs#:~:text=struct%20TrueInput" xlink:title="&lt;TABLE&gt;">
<polygon fill="lightblue" stroke="none" points="600.5,-341.5 600.5,-378.5 925.5,-378.5 925.5,-341.5 600.5,-341.5"/>
<polygon fill="none" stroke="black" points="600.5,-341.5 600.5,-378.5 925.5,-378.5 925.5,-341.5 600.5,-341.5"/>
<text text-anchor="start" x="729" y="-357.3" font-family="Arial" font-weight="bold" font-size="14.00">TrueInput</text>
<polygon fill="white" stroke="none" points="600.5,-289.5 600.5,-341.5 925.5,-341.5 925.5,-289.5 600.5,-289.5"/>
<polygon fill="none" stroke="black" points="600.5,-289.5 600.5,-341.5 925.5,-341.5 925.5,-289.5 600.5,-289.5"/>
<text text-anchor="start" x="611.5" y="-319.3" font-family="Arial" font-size="14.00">+ secret_key: Scalar</text>
<text text-anchor="start" x="611.5" y="-304.3" font-family="Arial" font-size="14.00">+ revealed_commitment: RevealedCommitment</text>
<polygon fill="none" stroke="black" points="599,-289 599,-380 926,-380 926,-289 599,-289"/>
</a>
</g>
</g>
<!-- ndMlsagMaterial -->
<g id="node6" class="node"><title>ndMlsagMaterial</title>
<g id="a_node6_4"><a xlink:href="https://github.com/maidsafe/blst-ringct/blob/master/src/mlsag.rs#:~:text=struct%20MlsagMaterial" xlink:title="&lt;TABLE&gt;">
<polygon fill="lightblue" stroke="none" points="642.5,-191.5 642.5,-228.5 883.5,-228.5 883.5,-191.5 642.5,-191.5"/>
<polygon fill="none" stroke="black" points="642.5,-191.5 642.5,-228.5 883.5,-228.5 883.5,-191.5 642.5,-191.5"/>
<text text-anchor="start" x="714" y="-207.3" font-family="Arial" font-weight="bold" font-size="14.00">MlsagMaterial</text>
<polygon fill="white" stroke="none" points="642.5,-139.5 642.5,-191.5 883.5,-191.5 883.5,-139.5 642.5,-139.5"/>
<polygon fill="none" stroke="black" points="642.5,-139.5 642.5,-191.5 883.5,-191.5 883.5,-139.5 642.5,-139.5"/>
<text text-anchor="start" x="653.5" y="-169.3" font-family="Arial" font-size="14.00">+ true_input: TrueInput</text>
<text text-anchor="start" x="653.5" y="-154.3" font-family="Arial" font-size="14.00">+ decoy_inputs: Vec&lt;DecoyInput&gt;</text>
<polygon fill="none" stroke="black" points="641,-139 641,-230 884,-230 884,-139 641,-139"/>
</a>
</g>
</g>
<!-- ndTrueInput&#45;&gt;ndMlsagMaterial -->
<g id="edge3" class="edge"><title>ndTrueInput&#45;&gt;ndMlsagMaterial</title>
<path fill="none" stroke="black" d="M762.5,-284.629C762.5,-272.315 762.5,-258.946 762.5,-246.132"/>
<polygon fill="black" stroke="black" points="762.5,-246.067 758.5,-240.067 762.5,-234.067 766.5,-240.067 762.5,-246.067"/>
</g>
<!-- ndDecoyInput -->
<g id="node5" class="node"><title>ndDecoyInput</title>
<g id="a_node5_5"><a xlink:href="https://github.com/maidsafe/blst-ringct/blob/master/src/mlsag.rs#:~:text=struct%20DecoyInput" xlink:title="&lt;TABLE&gt;">
<polygon fill="lightblue" stroke="none" points="998.5,-341.5 998.5,-378.5 1175.5,-378.5 1175.5,-341.5 998.5,-341.5"/>
<polygon fill="none" stroke="black" points="998.5,-341.5 998.5,-378.5 1175.5,-378.5 1175.5,-341.5 998.5,-341.5"/>
<text text-anchor="start" x="1047" y="-357.3" font-family="Arial" font-weight="bold" font-size="14.00">DecoyInput</text>
<polygon fill="white" stroke="none" points="998.5,-289.5 998.5,-341.5 1175.5,-341.5 1175.5,-289.5 998.5,-289.5"/>
<polygon fill="none" stroke="black" points="998.5,-289.5 998.5,-341.5 1175.5,-341.5 1175.5,-289.5 998.5,-289.5"/>
<text text-anchor="start" x="1009.5" y="-319.3" font-family="Arial" font-size="14.00">+ public_key: G1Affine</text>
<text text-anchor="start" x="1009.5" y="-304.3" font-family="Arial" font-size="14.00">+ commitment: G1Affine</text>
<polygon fill="none" stroke="black" points="997,-289 997,-380 1176,-380 1176,-289 997,-289"/>
</a>
</g>
</g>
<!-- ndDecoyInput&#45;&gt;ndMlsagMaterial -->
<g id="edge4" class="edge"><title>ndDecoyInput&#45;&gt;ndMlsagMaterial</title>
<path fill="none" stroke="black" d="M1004.46,-284.85C994.799,-279.637 985.002,-274.574 975.5,-270 952.497,-258.927 927.643,-248.095 903.31,-238.08"/>
<polygon fill="black" stroke="black" points="903.286,-238.071 896.22,-239.508 892.175,-233.538 899.242,-232.101 903.286,-238.071"/>
</g>
<!-- ndMlsagMaterial&#45;&gt;ndRingCtMaterial -->
<g id="edge5" class="edge"><title>ndMlsagMaterial&#45;&gt;ndRingCtMaterial</title>
<path fill="none" stroke="black" d="M632.864,-144.225C573.714,-126.305 504.042,-105.197 445.807,-87.5543"/>
<polygon fill="black" stroke="black" points="445.803,-87.5533 438.901,-89.6417 434.319,-84.0738 441.221,-81.9854 445.803,-87.5533"/>
</g>
<!-- ndMlsagSignature -->
<g id="node7" class="node"><title>ndMlsagSignature</title>
<g id="a_node7_6"><a xlink:href="https://github.com/maidsafe/blst-ringct/blob/master/src/mlsag.rs#:~:text=struct%20MlsagSignature" xlink:title="&lt;TABLE&gt;">
<polygon fill="lightblue" stroke="none" points="130.5,-356.5 130.5,-393.5 367.5,-393.5 367.5,-356.5 130.5,-356.5"/>
<polygon fill="none" stroke="black" points="130.5,-356.5 130.5,-393.5 367.5,-393.5 367.5,-356.5 130.5,-356.5"/>
<text text-anchor="start" x="194" y="-372.3" font-family="Arial" font-weight="bold" font-size="14.00">MlsagSignature</text>
<polygon fill="white" stroke="none" points="130.5,-274.5 130.5,-356.5 367.5,-356.5 367.5,-274.5 130.5,-274.5"/>
<polygon fill="none" stroke="black" points="130.5,-274.5 130.5,-356.5 367.5,-356.5 367.5,-274.5 130.5,-274.5"/>
<text text-anchor="start" x="141.5" y="-334.3" font-family="Arial" font-size="14.00">+ c0: Scalar</text>
<text text-anchor="start" x="141.5" y="-319.3" font-family="Arial" font-size="14.00">+ r: Vec&lt;(Scalar, Scalar)&gt;</text>
<text text-anchor="start" x="141.5" y="-304.3" font-family="Arial" font-size="14.00">+ key_image: G1Affine</text>
<text text-anchor="start" x="141.5" y="-289.3" font-family="Arial" font-size="14.00">+ ring: Vec&lt;(G1Affine, G1Affine)&gt;</text>
<polygon fill="none" stroke="black" points="129,-274 129,-395 368,-395 368,-274 129,-274"/>
</a>
</g>
</g>
<!-- ndMlsagSignature&#45;&gt;ndRingCtSignature -->
<g id="edge6" class="edge"><title>ndMlsagSignature&#45;&gt;ndRingCtSignature</title>
<path fill="none" stroke="black" d="M280.742,-269.876C286.165,-259.174 291.738,-248.177 296.994,-237.804"/>
<polygon fill="black" stroke="black" points="297.128,-237.541 296.272,-230.381 302.552,-226.837 303.408,-233.997 297.128,-237.541"/>
</g>
<!-- ndMlsagSignature&#45;&gt;ndMlsagMaterial -->
<g id="edge7" class="edge"><title>ndMlsagSignature&#45;&gt;ndMlsagMaterial</title>
<path fill="none" stroke="black" d="M376.313,-272.882C379.056,-271.887 381.787,-270.924 384.5,-270 461.706,-243.695 550.609,-223.347 622.793,-209.217"/>
<polygon fill="black" stroke="black" points="632.864,-207.264 623.904,-213.585 627.956,-208.216 623.047,-209.168 623.047,-209.168 623.047,-209.168 627.956,-208.216 622.191,-204.75 632.864,-207.264 632.864,-207.264"/>
</g>
<!-- ndPedersenCommitter -->
<g id="node8" class="node"><title>ndPedersenCommitter</title>
<g id="a_node8_7"><a xlink:href="https://github.com/maidsafe/blst-ringct/blob/master/src/pedersen_commitment.rs#:~:text=struct%20PedersenCommitter" xlink:title="&lt;TABLE&gt;">
<polygon fill="lightblue" stroke="none" points="403.5,-341.5 403.5,-378.5 564.5,-378.5 564.5,-341.5 403.5,-341.5"/>
<polygon fill="none" stroke="black" points="403.5,-341.5 403.5,-378.5 564.5,-378.5 564.5,-341.5 403.5,-341.5"/>
<text text-anchor="start" x="414.5" y="-357.3" font-family="Arial" font-weight="bold" font-size="14.00">PedersenCommitter</text>
<polygon fill="white" stroke="none" points="403.5,-289.5 403.5,-341.5 564.5,-341.5 564.5,-289.5 403.5,-289.5"/>
<polygon fill="none" stroke="black" points="403.5,-289.5 403.5,-341.5 564.5,-341.5 564.5,-289.5 403.5,-289.5"/>
<text text-anchor="start" x="414.5" y="-319.3" font-family="Arial" font-size="14.00">&#45; G: G1Projective</text>
<text text-anchor="start" x="414.5" y="-304.3" font-family="Arial" font-size="14.00">&#45; H: G1Projective</text>
<polygon fill="none" stroke="black" points="402,-289 402,-380 565,-380 565,-289 402,-289"/>
</a>
</g>
</g>
<!-- ndRevealedCommitment -->
<g id="node9" class="node"><title>ndRevealedCommitment</title>
<g id="a_node9_8"><a xlink:href="https://github.com/maidsafe/blst-ringct/blob/master/src/pedersen_commitment.rs#:~:text=struct%20RevealedCommitment" xlink:title="&lt;TABLE&gt;">
<polygon fill="lightblue" stroke="none" points="535.5,-491.5 535.5,-528.5 709.5,-528.5 709.5,-491.5 535.5,-491.5"/>
<polygon fill="none" stroke="black" points="535.5,-491.5 535.5,-528.5 709.5,-528.5 709.5,-491.5 535.5,-491.5"/>
<text text-anchor="start" x="546.5" y="-507.3" font-family="Arial" font-weight="bold" font-size="14.00">RevealedCommitment</text>
<polygon fill="white" stroke="none" points="535.5,-439.5 535.5,-491.5 709.5,-491.5 709.5,-439.5 535.5,-439.5"/>
<polygon fill="none" stroke="black" points="535.5,-439.5 535.5,-491.5 709.5,-491.5 709.5,-439.5 535.5,-439.5"/>
<text text-anchor="start" x="546.5" y="-469.3" font-family="Arial" font-size="14.00">+ value: Scalar</text>
<text text-anchor="start" x="546.5" y="-454.3" font-family="Arial" font-size="14.00">+ blinding: Scalar</text>
<polygon fill="none" stroke="black" points="534.5,-439 534.5,-530 710.5,-530 710.5,-439 534.5,-439"/>
</a>
</g>
</g>
<!-- ndRevealedCommitment&#45;&gt;ndOutput -->
<g id="edge8" class="edge"><title>ndRevealedCommitment&#45;&gt;ndOutput</title>
<path fill="none" stroke="black" d="M526.475,-481.179C394.255,-475.807 166.23,-458.004 111.5,-399 73.5802,-358.119 73.5414,-291.95 80.03,-244.102"/>
<polygon fill="black" stroke="black" points="81.5023,-234.186 84.4848,-244.738 80.7679,-239.131 80.0336,-244.077 80.0336,-244.077 80.0336,-244.077 80.7679,-239.131 75.5824,-243.416 81.5023,-234.186 81.5023,-234.186"/>
</g>
<!-- ndRevealedCommitment&#45;&gt;ndTrueInput -->
<g id="edge9" class="edge"><title>ndRevealedCommitment&#45;&gt;ndTrueInput</title>
<path fill="none" stroke="black" d="M668.729,-434.629C681.339,-421.299 695.116,-406.734 708.134,-392.973"/>
<polygon fill="black" stroke="black" points="708.312,-392.785 709.529,-385.677 716.558,-384.067 715.341,-391.175 708.312,-392.785"/>
</g>
<!-- ndRevealedCommitment&#45;&gt;ndMlsagMaterial -->
<g id="edge10" class="edge"><title>ndRevealedCommitment&#45;&gt;ndMlsagMaterial</title>
<path fill="none" stroke="black" d="M718.722,-471.083C802.667,-458.043 915.195,-434.451 942.5,-399 977.485,-353.578 973.243,-318.394 942.5,-270 932.017,-253.499 917.364,-240.163 900.899,-229.4"/>
<polygon fill="black" stroke="black" points="892.136,-224.003 903.011,-225.415 896.394,-226.625 900.651,-229.247 900.651,-229.247 900.651,-229.247 896.394,-226.625 898.291,-233.078 892.136,-224.003 892.136,-224.003"/>
</g>
<!-- ndRevealedCommitment&#45;&gt;ndPedersenCommitter -->
<g id="edge11" class="edge"><title>ndRevealedCommitment&#45;&gt;ndPedersenCommitter</title>
<path fill="none" stroke="black" stroke-dasharray="5,2" d="M576.601,-434.629C563.604,-420.791 549.359,-405.623 536.004,-391.404"/>
<polygon fill="black" stroke="black" points="529.114,-384.067 539.24,-388.276 532.537,-387.712 535.96,-391.356 535.96,-391.356 535.96,-391.356 532.537,-387.712 532.68,-394.437 529.114,-384.067 529.114,-384.067"/>
</g>
</g>
</svg>
