<?xml version="1.0" encoding="UTF-8" standalone="no"?>
<!DOCTYPE svg PUBLIC "-//W3C//DTD SVG 1.1//EN"
 "http://www.w3.org/Graphics/SVG/1.1/DTD/svg11.dtd">
<!-- Generated by graphviz version 2.38.0 (20140413.2041)
 -->
<!-- Title: ml Pages: 1 -->
<svg width="661pt" height="122pt"
 viewBox="0.00 0.00 661.00 122.00" xmlns="http://www.w3.org/2000/svg" xmlns:xlink="http://www.w3.org/1999/xlink">
<g id="graph0" class="graph" transform="scale(1 1) rotate(0) translate(4 118)">
<title>ml</title>
<polygon fill="white" stroke="none" points="-4,4 -4,-118 657,-118 657,4 -4,4"/>
<!-- ndCompress -->
<g id="node1" class="node"><title>ndCompress</title>
<g id="a_node1_0"><a xlink:href="https://github.com/filecoin-project/blstrs/blob/master/src/traits.rs#:~:text=trait%20Compress" xlink:title="&lt;TABLE&gt;">
<polygon fill="lightgreen" stroke="none" points="9.5,-38 9.5,-75 104.5,-75 104.5,-38 9.5,-38"/>
<polygon fill="none" stroke="black" points="9.5,-38 9.5,-75 104.5,-75 104.5,-38 9.5,-38"/>
<text text-anchor="start" x="20.5" y="-53.8" font-family="Arial" font-weight="bold" font-size="14.00">Compress</text>
<polygon fill="none" stroke="black" points="8,-37.5 8,-76.5 105,-76.5 105,-37.5 8,-37.5"/>
</a>
</g>
</g>
<!-- ndG2Prepared -->
<g id="node2" class="node"><title>ndG2Prepared</title>
<g id="a_node2_1"><a xlink:href="https://github.com/filecoin-project/blstrs/blob/master/src/g2.rs#:~:text=struct%20G2Prepared" xlink:title="&lt;TABLE&gt;">
<polygon fill="lightblue" stroke="none" points="140.5,-64 140.5,-101 301.5,-101 301.5,-64 140.5,-64"/>
<polygon fill="none" stroke="black" points="140.5,-64 140.5,-101 301.5,-101 301.5,-64 140.5,-64"/>
<text text-anchor="start" x="178.5" y="-79.8" font-family="Arial" font-weight="bold" font-size="14.00">G2Prepared</text>
<polygon fill="white" stroke="none" points="140.5,-12 140.5,-64 301.5,-64 301.5,-12 140.5,-12"/>
<polygon fill="none" stroke="black" points="140.5,-12 140.5,-64 301.5,-64 301.5,-12 140.5,-12"/>
<text text-anchor="start" x="151.5" y="-41.8" font-family="Arial" font-size="14.00">&#45; lines: Vec&lt;blst_fp6&gt;</text>
<text text-anchor="start" x="151.5" y="-26.8" font-family="Arial" font-size="14.00">&#45; infinity: bool</text>
<polygon fill="none" stroke="black" points="139,-11.5 139,-102.5 302,-102.5 302,-11.5 139,-11.5"/>
</a>
</g>
</g>
<!-- ndFp2Ser -->
<g id="node3" class="node"><title>ndFp2Ser</title>
<g id="a_node3_2"><a xlink:href="https://github.com/filecoin-project/blstrs/blob/master/src/serde_impl.rs#:~:text=struct%20Fp2Ser" xlink:title="&lt;TABLE&gt;">
<polygon fill="lightblue" stroke="none" points="337.5,-64 337.5,-101 410.5,-101 410.5,-64 337.5,-64"/>
<polygon fill="none" stroke="black" points="337.5,-64 337.5,-101 410.5,-101 410.5,-64 337.5,-64"/>
<text text-anchor="start" x="348.5" y="-79.8" font-family="Arial" font-weight="bold" font-size="14.00">Fp2Ser</text>
<polygon fill="white" stroke="none" points="337.5,-12 337.5,-64 410.5,-64 410.5,-12 337.5,-12"/>
<polygon fill="none" stroke="black" points="337.5,-12 337.5,-64 410.5,-64 410.5,-12 337.5,-12"/>
<text text-anchor="start" x="348.5" y="-41.8" font-family="Arial" font-size="14.00">&#45; c0: Fp</text>
<text text-anchor="start" x="348.5" y="-26.8" font-family="Arial" font-size="14.00">&#45; c1: Fp</text>
<polygon fill="none" stroke="black" points="336,-11.5 336,-102.5 411,-102.5 411,-11.5 336,-11.5"/>
</a>
</g>
</g>
<!-- ndFp6Ser -->
<g id="node4" class="node"><title>ndFp6Ser</title>
<g id="a_node4_3"><a xlink:href="https://github.com/filecoin-project/blstrs/blob/master/src/serde_impl.rs#:~:text=struct%20Fp6Ser" xlink:title="&lt;TABLE&gt;">
<polygon fill="lightblue" stroke="none" points="446.5,-72 446.5,-109 526.5,-109 526.5,-72 446.5,-72"/>
<polygon fill="none" stroke="black" points="446.5,-72 446.5,-109 526.5,-109 526.5,-72 446.5,-72"/>
<text text-anchor="start" x="461" y="-87.8" font-family="Arial" font-weight="bold" font-size="14.00">Fp6Ser</text>
<polygon fill="white" stroke="none" points="446.5,-5 446.5,-72 526.5,-72 526.5,-5 446.5,-5"/>
<polygon fill="none" stroke="black" points="446.5,-5 446.5,-72 526.5,-72 526.5,-5 446.5,-5"/>
<text text-anchor="start" x="457.5" y="-49.8" font-family="Arial" font-size="14.00">&#45; c0: Fp2</text>
<text text-anchor="start" x="457.5" y="-34.8" font-family="Arial" font-size="14.00">&#45; c1: Fp2</text>
<text text-anchor="start" x="457.5" y="-19.8" font-family="Arial" font-size="14.00">&#45; c2: Fp2</text>
<polygon fill="none" stroke="black" points="445.5,-4 445.5,-110 527.5,-110 527.5,-4 445.5,-4"/>
</a>
</g>
</g>
<!-- ndFp12Ser -->
<g id="node5" class="node"><title>ndFp12Ser</title>
<g id="a_node5_4"><a xlink:href="https://github.com/filecoin-project/blstrs/blob/master/src/serde_impl.rs#:~:text=struct%20Fp12Ser" xlink:title="&lt;TABLE&gt;">
<polygon fill="lightblue" stroke="none" points="563.5,-64 563.5,-101 644.5,-101 644.5,-64 563.5,-64"/>
<polygon fill="none" stroke="black" points="563.5,-64 563.5,-101 644.5,-101 644.5,-64 563.5,-64"/>
<text text-anchor="start" x="574.5" y="-79.8" font-family="Arial" font-weight="bold" font-size="14.00">Fp12Ser</text>
<polygon fill="white" stroke="none" points="563.5,-12 563.5,-64 644.5,-64 644.5,-12 563.5,-12"/>
<polygon fill="none" stroke="black" points="563.5,-12 563.5,-64 644.5,-64 644.5,-12 563.5,-12"/>
<text text-anchor="start" x="574.5" y="-41.8" font-family="Arial" font-size="14.00">&#45; c0: Fp6</text>
<text text-anchor="start" x="574.5" y="-26.8" font-family="Arial" font-size="14.00">&#45; c1: Fp6</text>
<polygon fill="none" stroke="black" points="562,-11.5 562,-102.5 645,-102.5 645,-11.5 562,-11.5"/>
</a>
</g>
</g>
</g>
</svg>
