<?xml version="1.0" encoding="UTF-8" standalone="no"?>
<!DOCTYPE svg PUBLIC "-//W3C//DTD SVG 1.1//EN"
 "http://www.w3.org/Graphics/SVG/1.1/DTD/svg11.dtd">
<!-- Generated by graphviz version 2.38.0 (20140413.2041)
 -->
<!-- Title: ml Pages: 1 -->
<svg width="748pt" height="304pt"
 viewBox="0.00 0.00 748.00 304.00" xmlns="http://www.w3.org/2000/svg" xmlns:xlink="http://www.w3.org/1999/xlink">
<g id="graph0" class="graph" transform="scale(1 1) rotate(0) translate(4 300)">
<title>ml</title>
<polygon fill="white" stroke="none" points="-4,4 -4,-300 744,-300 744,4 -4,4"/>
<!-- ndRevealedCommitment -->
<g id="node1" class="node"><title>ndRevealedCommitment</title>
<g id="a_node1_0"><a xlink:href="https://github.com/maidsafe/blst-ringct/blob/master/src/lib.rs#:~:text=struct%20RevealedCommitment" xlink:title="&lt;TABLE&gt;">
<polygon fill="lightblue" stroke="none" points="70,-253.5 70,-290.5 244,-290.5 244,-253.5 70,-253.5"/>
<polygon fill="none" stroke="black" points="70,-253.5 70,-290.5 244,-290.5 244,-253.5 70,-253.5"/>
<text text-anchor="start" x="81" y="-269.3" font-family="Arial" font-weight="bold" font-size="14.00">RevealedCommitment</text>
<polygon fill="none" stroke="black" points="69,-253 69,-292 245,-292 245,-253 69,-253"/>
</a>
</g>
</g>
<!-- ndOutput -->
<g id="node3" class="node"><title>ndOutput</title>
<g id="a_node3_1"><a xlink:href="https://github.com/maidsafe/blst-ringct/blob/master/src/ringct.rs#:~:text=struct%20Output" xlink:title="&lt;TABLE&gt;">
<polygon fill="lightblue" stroke="none" points="9,-87.5 9,-124.5 79,-124.5 79,-87.5 9,-87.5"/>
<polygon fill="none" stroke="black" points="9,-87.5 9,-124.5 79,-124.5 79,-87.5 9,-87.5"/>
<text text-anchor="start" x="20" y="-103.3" font-family="Arial" font-weight="bold" font-size="14.00">Output</text>
<polygon fill="none" stroke="black" points="8,-87 8,-126 80,-126 80,-87 8,-87"/>
</a>
</g>
</g>
<!-- ndRevealedCommitment&#45;&gt;ndOutput -->
<g id="edge1" class="edge"><title>ndRevealedCommitment&#45;&gt;ndOutput</title>
<path fill="none" stroke="black" d="M133.085,-248.781C122.856,-238.404 111.181,-225.628 102,-213 85.0841,-189.732 69.5926,-160.989 58.8833,-139.383"/>
<polygon fill="black" stroke="black" points="54.454,-130.301 62.8822,-137.317 56.6458,-134.795 58.8376,-139.289 58.8376,-139.289 58.8376,-139.289 56.6458,-134.795 54.793,-141.262 54.454,-130.301 54.454,-130.301"/>
</g>
<!-- ndRingCtMaterial -->
<g id="node4" class="node"><title>ndRingCtMaterial</title>
<g id="a_node4_2"><a xlink:href="https://github.com/maidsafe/blst-ringct/blob/master/src/ringct.rs#:~:text=struct%20RingCtMaterial" xlink:title="&lt;TABLE&gt;">
<polygon fill="lightblue" stroke="none" points="252,-4.5 252,-41.5 377,-41.5 377,-4.5 252,-4.5"/>
<polygon fill="none" stroke="black" points="252,-4.5 252,-41.5 377,-41.5 377,-4.5 252,-4.5"/>
<text text-anchor="start" x="263" y="-20.3" font-family="Arial" font-weight="bold" font-size="14.00">RingCtMaterial</text>
<polygon fill="none" stroke="black" points="250.5,-4 250.5,-43 377.5,-43 377.5,-4 250.5,-4"/>
</a>
</g>
</g>
<!-- ndRevealedCommitment&#45;&gt;ndRingCtMaterial -->
<g id="edge2" class="edge"><title>ndRevealedCommitment&#45;&gt;ndRingCtMaterial</title>
<path fill="none" stroke="black" d="M144.244,-248.706C133.71,-226.65 122.37,-192.728 135,-166 159.571,-114.005 213.838,-75.4767 256.219,-51.8626"/>
<polygon fill="black" stroke="black" points="265.067,-47.0505 258.433,-55.7814 260.675,-49.4393 256.283,-51.8281 256.283,-51.8281 256.283,-51.8281 260.675,-49.4393 254.133,-47.8749 265.067,-47.0505 265.067,-47.0505"/>
</g>
<!-- ndTrueInput -->
<g id="node7" class="node"><title>ndTrueInput</title>
<g id="a_node7_3"><a xlink:href="https://github.com/maidsafe/blst-ringct/blob/master/src/mlsag.rs#:~:text=struct%20TrueInput" xlink:title="&lt;TABLE&gt;">
<polygon fill="lightblue" stroke="none" points="153,-170.5 153,-207.5 243,-207.5 243,-170.5 153,-170.5"/>
<polygon fill="none" stroke="black" points="153,-170.5 153,-207.5 243,-207.5 243,-170.5 153,-170.5"/>
<text text-anchor="start" x="164" y="-186.3" font-family="Arial" font-weight="bold" font-size="14.00">TrueInput</text>
<polygon fill="none" stroke="black" points="152,-170 152,-209 244,-209 244,-170 152,-170"/>
</a>
</g>
</g>
<!-- ndRevealedCommitment&#45;&gt;ndTrueInput -->
<g id="edge3" class="edge"><title>ndRevealedCommitment&#45;&gt;ndTrueInput</title>
<path fill="none" stroke="black" d="M168.421,-248.937C172.298,-241.278 176.718,-232.545 180.938,-224.209"/>
<polygon fill="black" stroke="black" points="181.079,-223.93 180.22,-216.77 186.498,-213.223 187.357,-220.383 181.079,-223.93"/>
</g>
<!-- ndMlsagMaterial -->
<g id="node9" class="node"><title>ndMlsagMaterial</title>
<g id="a_node9_4"><a xlink:href="https://github.com/maidsafe/blst-ringct/blob/master/src/mlsag.rs#:~:text=struct%20MlsagMaterial" xlink:title="&lt;TABLE&gt;">
<polygon fill="lightblue" stroke="none" points="254,-87.5 254,-124.5 374,-124.5 374,-87.5 254,-87.5"/>
<polygon fill="none" stroke="black" points="254,-87.5 254,-124.5 374,-124.5 374,-87.5 254,-87.5"/>
<text text-anchor="start" x="265" y="-103.3" font-family="Arial" font-weight="bold" font-size="14.00">MlsagMaterial</text>
<polygon fill="none" stroke="black" points="253,-87 253,-126 375,-126 375,-87 253,-87"/>
</a>
</g>
</g>
<!-- ndRevealedCommitment&#45;&gt;ndMlsagMaterial -->
<g id="edge4" class="edge"><title>ndRevealedCommitment&#45;&gt;ndMlsagMaterial</title>
<path fill="none" stroke="black" stroke-dasharray="5,2" d="M210.93,-248.94C228.459,-239.703 246.985,-227.688 261,-213 280.969,-192.073 295.027,-162.16 303.623,-139.527"/>
<polygon fill="black" stroke="black" points="307.082,-130.01 307.896,-140.945 305.374,-134.709 303.666,-139.408 303.666,-139.408 303.666,-139.408 305.374,-134.709 299.437,-137.871 307.082,-130.01 307.082,-130.01"/>
</g>
<!-- ndError -->
<g id="node2" class="node"><title>ndError</title>
<g id="a_node2_5"><a xlink:href="https://github.com/maidsafe/blst-ringct/blob/master/src/error.rs#:~:text=enum%20Error" xlink:title="&lt;TABLE&gt;">
<polygon fill="yellow" stroke="none" points="281,-253.5 281,-290.5 340,-290.5 340,-253.5 281,-253.5"/>
<polygon fill="none" stroke="black" points="281,-253.5 281,-290.5 340,-290.5 340,-253.5 281,-253.5"/>
<text text-anchor="start" x="292" y="-269.3" font-family="Arial" font-weight="bold" font-size="14.00">Error</text>
<polygon fill="none" stroke="black" points="279.5,-253 279.5,-292 340.5,-292 340.5,-253 279.5,-253"/>
</a>
</g>
</g>
<!-- ndOutput&#45;&gt;ndRingCtMaterial -->
<g id="edge5" class="edge"><title>ndOutput&#45;&gt;ndRingCtMaterial</title>
<path fill="none" stroke="black" d="M88.1669,-87.8379C92.8144,-86.138 97.4885,-84.4933 102,-83 143.973,-69.107 191.35,-55.8132 230.655,-45.4191"/>
<polygon fill="black" stroke="black" points="230.705,-45.406 235.492,-40.0134 242.311,-42.3586 237.524,-47.7512 230.705,-45.406"/>
</g>
<!-- ndOutputProof -->
<g id="node5" class="node"><title>ndOutputProof</title>
<g id="a_node5_6"><a xlink:href="https://github.com/maidsafe/blst-ringct/blob/master/src/ringct.rs#:~:text=struct%20OutputProof" xlink:title="&lt;TABLE&gt;">
<polygon fill="lightblue" stroke="none" points="623,-170.5 623,-207.5 731,-207.5 731,-170.5 623,-170.5"/>
<polygon fill="none" stroke="black" points="623,-170.5 623,-207.5 731,-207.5 731,-170.5 623,-170.5"/>
<text text-anchor="start" x="634" y="-186.3" font-family="Arial" font-weight="bold" font-size="14.00">OutputProof</text>
<polygon fill="none" stroke="black" points="622,-170 622,-209 732,-209 732,-170 622,-170"/>
</a>
</g>
</g>
<!-- ndOutputProof&#45;&gt;ndRingCtMaterial -->
<g id="edge6" class="edge"><title>ndOutputProof&#45;&gt;ndRingCtMaterial</title>
<path fill="none" stroke="black" d="M669.915,-165.659C661.1,-141.22 643.616,-103.245 615,-83 580.427,-58.5408 472.561,-41.8878 395.86,-32.7857"/>
<polygon fill="black" stroke="black" points="385.727,-31.6054 396.181,-28.2927 390.694,-32.1839 395.66,-32.7625 395.66,-32.7625 395.66,-32.7625 390.694,-32.1839 395.139,-37.2323 385.727,-31.6054 385.727,-31.6054"/>
</g>
<!-- ndRingCtTransaction -->
<g id="node6" class="node"><title>ndRingCtTransaction</title>
<g id="a_node6_7"><a xlink:href="https://github.com/maidsafe/blst-ringct/blob/master/src/ringct.rs#:~:text=struct%20RingCtTransaction" xlink:title="&lt;TABLE&gt;">
<polygon fill="lightblue" stroke="none" points="445,-87.5 445,-124.5 597,-124.5 597,-87.5 445,-87.5"/>
<polygon fill="none" stroke="black" points="445,-87.5 445,-124.5 597,-124.5 597,-87.5 445,-87.5"/>
<text text-anchor="start" x="456" y="-103.3" font-family="Arial" font-weight="bold" font-size="14.00">RingCtTransaction</text>
<polygon fill="none" stroke="black" points="444,-87 444,-126 598,-126 598,-87 444,-87"/>
</a>
</g>
</g>
<!-- ndOutputProof&#45;&gt;ndRingCtTransaction -->
<g id="edge7" class="edge"><title>ndOutputProof&#45;&gt;ndRingCtTransaction</title>
<path fill="none" stroke="black" d="M633.545,-165.937C615.449,-156.541 594.244,-145.531 575.15,-135.616"/>
<polygon fill="black" stroke="black" points="575.142,-135.612 567.974,-136.397 564.492,-130.082 571.66,-129.297 575.142,-135.612"/>
</g>
<!-- ndRingCtTransaction&#45;&gt;ndRingCtMaterial -->
<g id="edge8" class="edge"><title>ndRingCtTransaction&#45;&gt;ndRingCtMaterial</title>
<path fill="none" stroke="black" d="M463.339,-82.937C437.875,-72.9728 407.772,-61.1934 381.289,-50.8303"/>
<polygon fill="black" stroke="black" points="371.71,-47.0824 382.663,-46.5358 376.367,-48.9044 381.023,-50.7264 381.023,-50.7264 381.023,-50.7264 376.367,-48.9044 379.383,-54.917 371.71,-47.0824 371.71,-47.0824"/>
</g>
<!-- ndTrueInput&#45;&gt;ndMlsagMaterial -->
<g id="edge9" class="edge"><title>ndTrueInput&#45;&gt;ndMlsagMaterial</title>
<path fill="none" stroke="black" stroke-dasharray="5,2" d="M230.312,-165.937C243.027,-157.059 257.805,-146.74 271.373,-137.266"/>
<polygon fill="black" stroke="black" points="271.62,-137.093 274.249,-130.378 281.458,-130.223 278.829,-136.938 271.62,-137.093"/>
</g>
<!-- ndDecoyInput -->
<g id="node8" class="node"><title>ndDecoyInput</title>
<g id="a_node8_8"><a xlink:href="https://github.com/maidsafe/blst-ringct/blob/master/src/mlsag.rs#:~:text=struct%20DecoyInput" xlink:title="&lt;TABLE&gt;">
<polygon fill="lightblue" stroke="none" points="317,-170.5 317,-207.5 419,-207.5 419,-170.5 317,-170.5"/>
<polygon fill="none" stroke="black" points="317,-170.5 317,-207.5 419,-207.5 419,-170.5 317,-170.5"/>
<text text-anchor="start" x="328" y="-186.3" font-family="Arial" font-weight="bold" font-size="14.00">DecoyInput</text>
<polygon fill="none" stroke="black" points="316,-170 316,-209 420,-209 420,-170 316,-170"/>
</a>
</g>
</g>
<!-- ndDecoyInput&#45;&gt;ndMlsagMaterial -->
<g id="edge10" class="edge"><title>ndDecoyInput&#45;&gt;ndMlsagMaterial</title>
<path fill="none" stroke="black" d="M352.958,-165.937C347.678,-158.016 341.633,-148.949 335.905,-140.357"/>
<polygon fill="black" stroke="black" points="335.805,-140.208 329.149,-137.434 329.149,-130.223 335.805,-132.996 335.805,-140.208"/>
</g>
<!-- ndMlsagMaterial&#45;&gt;ndRingCtMaterial -->
<g id="edge11" class="edge"><title>ndMlsagMaterial&#45;&gt;ndRingCtMaterial</title>
<path fill="none" stroke="black" d="M314,-82.937C314,-75.6257 314,-67.3371 314,-59.3477"/>
<polygon fill="black" stroke="black" points="314,-59.2229 310,-53.223 314,-47.2229 318,-53.2229 314,-59.2229"/>
</g>
<!-- ndMlsagSignature -->
<g id="node10" class="node"><title>ndMlsagSignature</title>
<g id="a_node10_9"><a xlink:href="https://github.com/maidsafe/blst-ringct/blob/master/src/mlsag.rs#:~:text=struct%20MlsagSignature" xlink:title="&lt;TABLE&gt;">
<polygon fill="lightblue" stroke="none" points="455,-170.5 455,-207.5 587,-207.5 587,-170.5 455,-170.5"/>
<polygon fill="none" stroke="black" points="455,-170.5 455,-207.5 587,-207.5 587,-170.5 455,-170.5"/>
<text text-anchor="start" x="466" y="-186.3" font-family="Arial" font-weight="bold" font-size="14.00">MlsagSignature</text>
<polygon fill="none" stroke="black" points="454,-170 454,-209 588,-209 588,-170 454,-170"/>
</a>
</g>
</g>
<!-- ndMlsagSignature&#45;&gt;ndRingCtTransaction -->
<g id="edge12" class="edge"><title>ndMlsagSignature&#45;&gt;ndRingCtTransaction</title>
<path fill="none" stroke="black" d="M521,-165.937C521,-158.626 521,-150.337 521,-142.348"/>
<polygon fill="black" stroke="black" points="521,-142.223 517,-136.223 521,-130.223 525,-136.223 521,-142.223"/>
</g>
<!-- ndMlsagSignature&#45;&gt;ndMlsagMaterial -->
<g id="edge13" class="edge"><title>ndMlsagSignature&#45;&gt;ndMlsagMaterial</title>
<path fill="none" stroke="black" d="M463.339,-165.937C437.875,-155.973 407.772,-144.193 381.289,-133.83"/>
<polygon fill="black" stroke="black" points="371.71,-130.082 382.663,-129.536 376.367,-131.904 381.023,-133.726 381.023,-133.726 381.023,-133.726 376.367,-131.904 379.383,-137.917 371.71,-130.082 371.71,-130.082"/>
</g>
</g>
</svg>
