<?xml version="1.0" encoding="UTF-8" standalone="no"?>
<!DOCTYPE svg PUBLIC "-//W3C//DTD SVG 1.1//EN"
 "http://www.w3.org/Graphics/SVG/1.1/DTD/svg11.dtd">
<!-- Generated by graphviz version 2.38.0 (20140413.2041)
 -->
<!-- Title: ml Pages: 1 -->
<svg width="2262pt" height="1050pt"
 viewBox="0.00 0.00 2262.00 1050.00" xmlns="http://www.w3.org/2000/svg" xmlns:xlink="http://www.w3.org/1999/xlink">
<g id="graph0" class="graph" transform="scale(1 1) rotate(0) translate(4 1046)">
<title>ml</title>
<polygon fill="white" stroke="none" points="-4,4 -4,-1046 2258,-1046 2258,4 -4,4"/>
<!-- ndRevealedCommitment -->
<g id="node1" class="node"><title>ndRevealedCommitment</title>
<g id="a_node1_0"><a xlink:href="https://github.com/maidsafe/blst-ringct/blob/master/src/lib.rs#:~:text=struct%20RevealedCommitment" xlink:title="&lt;TABLE&gt;">
<polygon fill="lightblue" stroke="none" points="452,-1000 452,-1037 934,-1037 934,-1000 452,-1000"/>
<polygon fill="none" stroke="black" points="452,-1000 452,-1037 934,-1037 934,-1000 452,-1000"/>
<text text-anchor="start" x="617" y="-1015.8" font-family="Arial" font-weight="bold" font-size="14.00">RevealedCommitment</text>
<polygon fill="white" stroke="none" points="452,-948 452,-1000 934,-1000 934,-948 452,-948"/>
<polygon fill="none" stroke="black" points="452,-948 452,-1000 934,-1000 934,-948 452,-948"/>
<text text-anchor="start" x="463" y="-977.8" font-family="Arial" font-size="14.00">+ value: u64</text>
<text text-anchor="start" x="463" y="-962.8" font-family="Arial" font-size="14.00">+ blinding: Scalar</text>
<polygon fill="white" stroke="none" points="452,-851 452,-948 934,-948 934,-851 452,-851"/>
<polygon fill="none" stroke="black" points="452,-851 452,-948 934,-948 934,-851 452,-851"/>
<text text-anchor="start" x="463" y="-925.8" font-family="Arial" font-size="14.00">&#45; to_bytes(&amp;self) &#45;&gt; Vec&lt;u8&gt;</text>
<text text-anchor="start" x="463" y="-910.8" font-family="Arial" font-size="14.00">&#45; from_value(value: u64, mut rng: impl rand_core::RngCore) &#45;&gt; Self</text>
<text text-anchor="start" x="463" y="-895.8" font-family="Arial" font-size="14.00">&#45; commit(&amp;self, pc_gens: &amp;bulletproofs::PedersenGens) &#45;&gt; G1Projective</text>
<text text-anchor="start" x="463" y="-880.8" font-family="Arial" font-size="14.00">&#45; value(&amp;self) &#45;&gt; u64</text>
<text text-anchor="start" x="463" y="-865.8" font-family="Arial" font-size="14.00">&#45; blinding(&amp;self) &#45;&gt; Scalar</text>
<polygon fill="none" stroke="black" points="451,-850 451,-1038 935,-1038 935,-850 451,-850"/>
</a>
</g>
</g>
<!-- ndOutput -->
<g id="node3" class="node"><title>ndOutput</title>
<g id="a_node3_1"><a xlink:href="https://github.com/maidsafe/blst-ringct/blob/master/src/ringct.rs#:~:text=struct%20Output" xlink:title="&lt;TABLE&gt;">
<polygon fill="lightblue" stroke="none" points="9,-461 9,-498 501,-498 501,-461 9,-461"/>
<polygon fill="none" stroke="black" points="9,-461 9,-498 501,-498 501,-461 9,-461"/>
<text text-anchor="start" x="231" y="-476.8" font-family="Arial" font-weight="bold" font-size="14.00">Output</text>
<polygon fill="white" stroke="none" points="9,-409 9,-461 501,-461 501,-409 9,-409"/>
<polygon fill="none" stroke="black" points="9,-409 9,-461 501,-461 501,-409 9,-409"/>
<text text-anchor="start" x="20" y="-438.8" font-family="Arial" font-size="14.00">+ public_key: G1Affine</text>
<text text-anchor="start" x="20" y="-423.8" font-family="Arial" font-size="14.00">+ amount: u64</text>
<polygon fill="white" stroke="none" points="9,-342 9,-409 501,-409 501,-342 9,-342"/>
<polygon fill="none" stroke="black" points="9,-342 9,-409 501,-409 501,-342 9,-342"/>
<text text-anchor="start" x="20" y="-386.8" font-family="Arial" font-size="14.00">&#45; public_key(&amp;self) &#45;&gt; G1Affine</text>
<text text-anchor="start" x="20" y="-371.8" font-family="Arial" font-size="14.00">&#45; amount(&amp;self) &#45;&gt; u64</text>
<text text-anchor="start" x="20" y="-356.8" font-family="Arial" font-size="14.00">&#45; random_commitment(&amp;self, rng: impl RngCore) &#45;&gt; RevealedCommitment</text>
<polygon fill="none" stroke="black" points="8,-341 8,-499 502,-499 502,-341 8,-341"/>
</a>
</g>
</g>
<!-- ndRevealedCommitment&#45;&gt;ndOutput -->
<g id="edge1" class="edge"><title>ndRevealedCommitment&#45;&gt;ndOutput</title>
<path fill="none" stroke="black" d="M561.283,-845.832C548.192,-834.289 535.508,-822.241 524,-810 436.955,-717.408 356.837,-594.588 307.087,-511.935"/>
<polygon fill="black" stroke="black" points="301.92,-503.314 310.921,-509.578 304.491,-507.603 307.061,-511.891 307.061,-511.891 307.061,-511.891 304.491,-507.603 303.201,-514.205 301.92,-503.314 301.92,-503.314"/>
</g>
<!-- ndRingCtMaterial -->
<g id="node4" class="node"><title>ndRingCtMaterial</title>
<g id="a_node4_2"><a xlink:href="https://github.com/maidsafe/blst-ringct/blob/master/src/ringct.rs#:~:text=struct%20RingCtMaterial" xlink:title="&lt;TABLE&gt;">
<polygon fill="lightblue" stroke="none" points="611,-214 611,-251 1612,-251 1612,-214 611,-214"/>
<polygon fill="none" stroke="black" points="611,-214 611,-251 1612,-251 1612,-214 611,-214"/>
<text text-anchor="start" x="1060" y="-229.8" font-family="Arial" font-weight="bold" font-size="14.00">RingCtMaterial</text>
<polygon fill="white" stroke="none" points="611,-162 611,-214 1612,-214 1612,-162 611,-162"/>
<polygon fill="none" stroke="black" points="611,-162 611,-214 1612,-214 1612,-162 611,-162"/>
<text text-anchor="start" x="622" y="-191.8" font-family="Arial" font-size="14.00">+ inputs: Vec&lt;MlsagMaterial&gt;</text>
<text text-anchor="start" x="622" y="-176.8" font-family="Arial" font-size="14.00">+ outputs: Vec&lt;Output&gt;</text>
<polygon fill="white" stroke="none" points="611,-5 611,-162 1612,-162 1612,-5 611,-5"/>
<polygon fill="none" stroke="black" points="611,-5 611,-162 1612,-162 1612,-5 611,-5"/>
<text text-anchor="start" x="622" y="-139.8" font-family="Arial" font-size="14.00">&#45; sign(&amp;self, rng: impl RngCore + Copy) &#45;&gt; Result&lt;(RingCtTransaction, Vec&lt;RevealedCommitment&gt;)&gt;</text>
<text text-anchor="start" x="622" y="-124.8" font-family="Arial" font-size="14.00">&#45; bp_gens() &#45;&gt; BulletproofGens</text>
<text text-anchor="start" x="622" y="-109.8" font-family="Arial" font-size="14.00">&#45; pc_gens() &#45;&gt; PedersenGens</text>
<text text-anchor="start" x="622" y="-94.8" font-family="Arial" font-size="14.00">&#45; public_keys(&amp;self) &#45;&gt; Vec&lt;G1Affine&gt;</text>
<text text-anchor="start" x="622" y="-79.8" font-family="Arial" font-size="14.00">&#45; key_images(&amp;self) &#45;&gt; Vec&lt;G1Affine&gt;</text>
<text text-anchor="start" x="622" y="-64.8" font-family="Arial" font-size="14.00">&#45; revealed_pseudo_commitments(&amp;self, mut rng: impl RngCore) &#45;&gt; Vec&lt;RevealedCommitment&gt;</text>
<text text-anchor="start" x="622" y="-49.8" font-family="Arial" font-size="14.00">&#45; pseudo_commitments(&amp;self, revealed_pseudo_commitments: &amp;[RevealedCommitment]) &#45;&gt; Vec&lt;G1Affine&gt;</text>
<text text-anchor="start" x="622" y="-34.8" font-family="Arial" font-size="14.00">&#45; revealed_output_commitments(&amp;self, revealed_pseudo_commitments: &amp;[RevealedCommitment], mut rng: impl RngCore) &#45;&gt; Vec&lt;RevealedCommitment&gt;</text>
<text text-anchor="start" x="622" y="-19.8" font-family="Arial" font-size="14.00">&#45; output_range_proofs(&amp;self, revealed_output_commitments: &amp;[RevealedCommitment]) &#45;&gt; Result&lt;Vec&lt;OutputProof&gt;&gt;</text>
<polygon fill="none" stroke="black" points="609.5,-4 609.5,-252 1612.5,-252 1612.5,-4 609.5,-4"/>
</a>
</g>
</g>
<!-- ndRevealedCommitment&#45;&gt;ndRingCtMaterial -->
<g id="edge2" class="edge"><title>ndRevealedCommitment&#45;&gt;ndRingCtMaterial</title>
<path fill="none" stroke="black" d="M577.758,-845.959C569.481,-834.665 562.315,-822.633 557,-810 518.045,-717.417 537.686,-682.57 557,-584 583.947,-446.474 575.505,-389.674 676,-292 686.911,-281.395 698.577,-271.467 710.827,-262.176"/>
<polygon fill="black" stroke="black" points="718.959,-256.161 713.596,-265.725 714.94,-259.134 710.92,-262.107 710.92,-262.107 710.92,-262.107 714.94,-259.134 708.244,-258.489 718.959,-256.161 718.959,-256.161"/>
</g>
<!-- ndTrueInput -->
<g id="node7" class="node"><title>ndTrueInput</title>
<g id="a_node7_3"><a xlink:href="https://github.com/maidsafe/blst-ringct/blob/master/src/mlsag.rs#:~:text=struct%20TrueInput" xlink:title="&lt;TABLE&gt;">
<polygon fill="lightblue" stroke="none" points="575,-745 575,-782 1123,-782 1123,-745 575,-745"/>
<polygon fill="none" stroke="black" points="575,-745 575,-782 1123,-782 1123,-745 575,-745"/>
<text text-anchor="start" x="815" y="-760.8" font-family="Arial" font-weight="bold" font-size="14.00">TrueInput</text>
<polygon fill="white" stroke="none" points="575,-693 575,-745 1123,-745 1123,-693 575,-693"/>
<polygon fill="none" stroke="black" points="575,-693 575,-745 1123,-745 1123,-693 575,-693"/>
<text text-anchor="start" x="586" y="-722.8" font-family="Arial" font-size="14.00">+ secret_key: Scalar</text>
<text text-anchor="start" x="586" y="-707.8" font-family="Arial" font-size="14.00">+ revealed_commitment: RevealedCommitment</text>
<polygon fill="white" stroke="none" points="575,-611 575,-693 1123,-693 1123,-611 575,-611"/>
<polygon fill="none" stroke="black" points="575,-611 575,-693 1123,-693 1123,-611 575,-611"/>
<text text-anchor="start" x="586" y="-670.8" font-family="Arial" font-size="14.00">&#45; public_key(&amp;self) &#45;&gt; G1Projective</text>
<text text-anchor="start" x="586" y="-655.8" font-family="Arial" font-size="14.00">&#45; revealed_commitment(&amp;self) &#45;&gt; &amp;RevealedCommitment</text>
<text text-anchor="start" x="586" y="-640.8" font-family="Arial" font-size="14.00">&#45; key_image(&amp;self) &#45;&gt; G1Projective</text>
<text text-anchor="start" x="586" y="-625.8" font-family="Arial" font-size="14.00">&#45; random_pseudo_commitment(&amp;self, rng: impl RngCore) &#45;&gt; RevealedCommitment</text>
<polygon fill="none" stroke="black" points="574,-610.5 574,-783.5 1124,-783.5 1124,-610.5 574,-610.5"/>
</a>
</g>
</g>
<!-- ndRevealedCommitment&#45;&gt;ndTrueInput -->
<g id="edge3" class="edge"><title>ndRevealedCommitment&#45;&gt;ndTrueInput</title>
<path fill="none" stroke="black" d="M754.879,-845.818C764.928,-830.036 775.35,-813.669 785.438,-797.826"/>
<polygon fill="black" stroke="black" points="785.566,-797.624 785.415,-790.414 792.011,-787.501 792.163,-794.711 785.566,-797.624"/>
</g>
<!-- ndMlsagMaterial -->
<g id="node9" class="node"><title>ndMlsagMaterial</title>
<g id="a_node9_4"><a xlink:href="https://github.com/maidsafe/blst-ringct/blob/master/src/mlsag.rs#:~:text=struct%20MlsagMaterial" xlink:title="&lt;TABLE&gt;">
<polygon fill="lightblue" stroke="none" points="695,-506 695,-543 1528,-543 1528,-506 695,-506"/>
<polygon fill="none" stroke="black" points="695,-506 695,-543 1528,-543 1528,-506 695,-506"/>
<text text-anchor="start" x="1062.5" y="-521.8" font-family="Arial" font-weight="bold" font-size="14.00">MlsagMaterial</text>
<polygon fill="white" stroke="none" points="695,-409 695,-506 1528,-506 1528,-409 695,-409"/>
<polygon fill="none" stroke="black" points="695,-409 695,-506 1528,-506 1528,-409 695,-409"/>
<text text-anchor="start" x="706" y="-483.8" font-family="Arial" font-size="14.00">+ true_input: TrueInput</text>
<text text-anchor="start" x="706" y="-468.8" font-family="Arial" font-size="14.00">+ decoy_inputs: Vec&lt;DecoyInput&gt;</text>
<text text-anchor="start" x="706" y="-453.8" font-family="Arial" font-size="14.00">+ pi_base: u32</text>
<text text-anchor="start" x="706" y="-438.8" font-family="Arial" font-size="14.00">+ alpha: (Scalar, Scalar)</text>
<text text-anchor="start" x="706" y="-423.8" font-family="Arial" font-size="14.00">+ r: Vec&lt;(Scalar, Scalar)&gt;</text>
<polygon fill="white" stroke="none" points="695,-297 695,-409 1528,-409 1528,-297 695,-297"/>
<polygon fill="none" stroke="black" points="695,-297 695,-409 1528,-409 1528,-297 695,-297"/>
<text text-anchor="start" x="706" y="-386.8" font-family="Arial" font-size="14.00">&#45; new(true_input: TrueInput, decoy_inputs: Vec&lt;DecoyInput&gt;, mut rng: impl RngCore) &#45;&gt; Self</text>
<text text-anchor="start" x="706" y="-371.8" font-family="Arial" font-size="14.00">&#45; count_inputs(&amp;self) &#45;&gt; usize</text>
<text text-anchor="start" x="706" y="-356.8" font-family="Arial" font-size="14.00">&#45; pi(&amp;self) &#45;&gt; usize</text>
<text text-anchor="start" x="706" y="-341.8" font-family="Arial" font-size="14.00">&#45; public_keys(&amp;self) &#45;&gt; Vec&lt;G1Affine&gt;</text>
<text text-anchor="start" x="706" y="-326.8" font-family="Arial" font-size="14.00">&#45; commitments(&amp;self, pc_gens: &amp;PedersenGens) &#45;&gt; Vec&lt;G1Affine&gt;</text>
<text text-anchor="start" x="706" y="-311.8" font-family="Arial" font-size="14.00">&#45; sign(&amp;self, msg: &amp;[u8], revealed_pseudo_commitment: &amp;RevealedCommitment, pc_gens: &amp;PedersenGens) &#45;&gt; MlsagSignature</text>
<polygon fill="none" stroke="black" points="693.5,-296 693.5,-544 1528.5,-544 1528.5,-296 693.5,-296"/>
</a>
</g>
</g>
<!-- ndRevealedCommitment&#45;&gt;ndMlsagMaterial -->
<g id="edge4" class="edge"><title>ndRevealedCommitment&#45;&gt;ndMlsagMaterial</title>
<path fill="none" stroke="black" stroke-dasharray="5,2" d="M943.294,-848.483C946.208,-847.638 949.11,-846.81 952,-846 1034.34,-822.921 1086.48,-875.879 1141,-810 1172.05,-772.476 1158.75,-654.352 1141.13,-558.026"/>
<polygon fill="black" stroke="black" points="1139.3,-548.182 1145.55,-557.192 1140.21,-553.098 1141.12,-558.014 1141.12,-558.014 1141.12,-558.014 1140.21,-553.098 1136.7,-558.836 1139.3,-548.182 1139.3,-548.182"/>
</g>
<!-- ndError -->
<g id="node2" class="node"><title>ndError</title>
<g id="a_node2_5"><a xlink:href="https://github.com/maidsafe/blst-ringct/blob/master/src/error.rs#:~:text=enum%20Error" xlink:title="&lt;TABLE&gt;">
<polygon fill="yellow" stroke="none" points="970,-981 970,-1018 1378,-1018 1378,-981 970,-981"/>
<polygon fill="none" stroke="black" points="970,-981 970,-1018 1378,-1018 1378,-981 970,-981"/>
<text text-anchor="start" x="1155.5" y="-996.8" font-family="Arial" font-weight="bold" font-size="14.00">Error</text>
<polygon fill="white" stroke="none" points="970,-869 970,-981 1378,-981 1378,-869 970,-869"/>
<polygon fill="none" stroke="black" points="970,-869 970,-981 1378,-981 1378,-869 970,-869"/>
<text text-anchor="start" x="981" y="-958.8" font-family="Arial" font-size="14.00">ExpectedAPublicCommitmentsForEachRingEntry</text>
<text text-anchor="start" x="981" y="-943.8" font-family="Arial" font-size="14.00">InvalidHiddenCommitmentInRing</text>
<text text-anchor="start" x="981" y="-928.8" font-family="Arial" font-size="14.00">InputPseudoCommitmentsDoNotSumToOutputCommitments</text>
<text text-anchor="start" x="981" y="-913.8" font-family="Arial" font-size="14.00">InvalidRingSignature</text>
<text text-anchor="start" x="981" y="-898.8" font-family="Arial" font-size="14.00">KeyImageNotOnCurve</text>
<text text-anchor="start" x="981" y="-883.8" font-family="Arial" font-size="14.00">BulletProofs(bulletproofs::ProofError)</text>
<polygon fill="none" stroke="black" points="969,-868.5 969,-1019.5 1379,-1019.5 1379,-868.5 969,-868.5"/>
</a>
</g>
</g>
<!-- ndOutput&#45;&gt;ndRingCtMaterial -->
<g id="edge5" class="edge"><title>ndOutput&#45;&gt;ndRingCtMaterial</title>
<path fill="none" stroke="black" d="M417.4,-336.902C452.113,-320.893 488.905,-305.049 524,-292 553.799,-280.92 584.692,-270.195 616.013,-259.895"/>
<polygon fill="black" stroke="black" points="616.164,-259.845 620.625,-254.18 627.57,-256.119 623.109,-261.784 616.164,-259.845"/>
</g>
<!-- ndOutputProof -->
<g id="node5" class="node"><title>ndOutputProof</title>
<g id="a_node5_6"><a xlink:href="https://github.com/maidsafe/blst-ringct/blob/master/src/ringct.rs#:~:text=struct%20OutputProof" xlink:title="&lt;TABLE&gt;">
<polygon fill="lightblue" stroke="none" points="1987,-738 1987,-775 2245,-775 2245,-738 1987,-738"/>
<polygon fill="none" stroke="black" points="1987,-738 1987,-775 2245,-775 2245,-738 1987,-738"/>
<text text-anchor="start" x="2073" y="-753.8" font-family="Arial" font-weight="bold" font-size="14.00">OutputProof</text>
<polygon fill="white" stroke="none" points="1987,-686 1987,-738 2245,-738 2245,-686 1987,-686"/>
<polygon fill="none" stroke="black" points="1987,-686 1987,-738 2245,-738 2245,-686 1987,-686"/>
<text text-anchor="start" x="1998" y="-715.8" font-family="Arial" font-size="14.00">&#45; range_proof: RangeProof</text>
<text text-anchor="start" x="1998" y="-700.8" font-family="Arial" font-size="14.00">&#45; commitment: G1Affine</text>
<polygon fill="white" stroke="none" points="1987,-619 1987,-686 2245,-686 2245,-619 1987,-619"/>
<polygon fill="none" stroke="black" points="1987,-619 1987,-686 2245,-686 2245,-619 1987,-619"/>
<text text-anchor="start" x="1998" y="-663.8" font-family="Arial" font-size="14.00">&#45; to_bytes(&amp;self) &#45;&gt; Vec&lt;u8&gt;</text>
<text text-anchor="start" x="1998" y="-648.8" font-family="Arial" font-size="14.00">&#45; range_proof(&amp;self) &#45;&gt; &amp;RangeProof</text>
<text text-anchor="start" x="1998" y="-633.8" font-family="Arial" font-size="14.00">&#45; commitment(&amp;self) &#45;&gt; G1Affine</text>
<polygon fill="none" stroke="black" points="1986,-618 1986,-776 2246,-776 2246,-618 1986,-618"/>
</a>
</g>
</g>
<!-- ndOutputProof&#45;&gt;ndRingCtMaterial -->
<g id="edge6" class="edge"><title>ndOutputProof&#45;&gt;ndRingCtMaterial</title>
<path fill="none" stroke="black" d="M2139.33,-613.603C2159.46,-523.106 2174.47,-379.091 2097,-292 2031.98,-218.898 1832.89,-178.57 1630.47,-156.327"/>
<polygon fill="black" stroke="black" points="1620.52,-155.249 1630.95,-151.853 1625.49,-155.788 1630.47,-156.327 1630.47,-156.327 1630.47,-156.327 1625.49,-155.788 1629.98,-160.801 1620.52,-155.249 1620.52,-155.249"/>
</g>
<!-- ndRingCtTransaction -->
<g id="node6" class="node"><title>ndRingCtTransaction</title>
<g id="a_node6_7"><a xlink:href="https://github.com/maidsafe/blst-ringct/blob/master/src/ringct.rs#:~:text=struct%20RingCtTransaction" xlink:title="&lt;TABLE&gt;">
<polygon fill="lightblue" stroke="none" points="1564,-468 1564,-505 2079,-505 2079,-468 1564,-468"/>
<polygon fill="none" stroke="black" points="1564,-468 1564,-505 2079,-505 2079,-468 1564,-468"/>
<text text-anchor="start" x="1756.5" y="-483.8" font-family="Arial" font-weight="bold" font-size="14.00">RingCtTransaction</text>
<polygon fill="white" stroke="none" points="1564,-416 1564,-468 2079,-468 2079,-416 1564,-416"/>
<polygon fill="none" stroke="black" points="1564,-416 1564,-468 2079,-468 2079,-416 1564,-416"/>
<text text-anchor="start" x="1575" y="-445.8" font-family="Arial" font-size="14.00">+ mlsags: Vec&lt;MlsagSignature&gt;</text>
<text text-anchor="start" x="1575" y="-430.8" font-family="Arial" font-size="14.00">+ outputs: Vec&lt;OutputProof&gt;</text>
<polygon fill="white" stroke="none" points="1564,-334 1564,-416 2079,-416 2079,-334 1564,-334"/>
<polygon fill="none" stroke="black" points="1564,-334 1564,-416 2079,-416 2079,-334 1564,-334"/>
<text text-anchor="start" x="1575" y="-393.8" font-family="Arial" font-size="14.00">&#45; to_bytes(&amp;self) &#45;&gt; Vec&lt;u8&gt;</text>
<text text-anchor="start" x="1575" y="-378.8" font-family="Arial" font-size="14.00">&#45; hash(&amp;self) &#45;&gt; [u8; 32]</text>
<text text-anchor="start" x="1575" y="-363.8" font-family="Arial" font-size="14.00">&#45; gen_message(&amp;self) &#45;&gt; Vec&lt;u8&gt;</text>
<text text-anchor="start" x="1575" y="-348.8" font-family="Arial" font-size="14.00">&#45; verify(&amp;self, public_commitments_per_ring: &amp;[Vec&lt;G1Affine&gt;]) &#45;&gt; Result&lt;()&gt;</text>
<polygon fill="none" stroke="black" points="1562.5,-333.5 1562.5,-506.5 2079.5,-506.5 2079.5,-333.5 1562.5,-333.5"/>
</a>
</g>
</g>
<!-- ndOutputProof&#45;&gt;ndRingCtTransaction -->
<g id="edge7" class="edge"><title>ndOutputProof&#45;&gt;ndRingCtTransaction</title>
<path fill="none" stroke="black" d="M2027.89,-613.863C1995.86,-584.007 1959.35,-549.971 1926.01,-518.887"/>
<polygon fill="black" stroke="black" points="1925.93,-518.812 1918.81,-517.647 1917.15,-510.629 1924.26,-511.795 1925.93,-518.812"/>
</g>
<!-- ndRingCtTransaction&#45;&gt;ndRingCtMaterial -->
<g id="edge8" class="edge"><title>ndRingCtTransaction&#45;&gt;ndRingCtMaterial</title>
<path fill="none" stroke="black" d="M1631,-329.407C1602.33,-316.518 1572.99,-303.678 1545,-292 1519.34,-281.292 1492.69,-270.505 1465.8,-259.856"/>
<polygon fill="black" stroke="black" points="1456.28,-256.095 1467.24,-255.584 1460.93,-257.933 1465.58,-259.77 1465.58,-259.77 1465.58,-259.77 1460.93,-257.933 1463.93,-263.955 1456.28,-256.095 1456.28,-256.095"/>
</g>
<!-- ndTrueInput&#45;&gt;ndMlsagMaterial -->
<g id="edge9" class="edge"><title>ndTrueInput&#45;&gt;ndMlsagMaterial</title>
<path fill="none" stroke="black" stroke-dasharray="5,2" d="M934.426,-606.335C949.431,-590.585 965.348,-573.879 981.24,-557.198"/>
<polygon fill="black" stroke="black" points="981.266,-557.171 982.509,-550.068 989.544,-548.483 988.301,-555.586 981.266,-557.171"/>
</g>
<!-- ndDecoyInput -->
<g id="node8" class="node"><title>ndDecoyInput</title>
<g id="a_node8_8"><a xlink:href="https://github.com/maidsafe/blst-ringct/blob/master/src/mlsag.rs#:~:text=struct%20DecoyInput" xlink:title="&lt;TABLE&gt;">
<polygon fill="lightblue" stroke="none" points="1197,-730 1197,-767 1425,-767 1425,-730 1197,-730"/>
<polygon fill="none" stroke="black" points="1197,-730 1197,-767 1425,-767 1425,-730 1197,-730"/>
<text text-anchor="start" x="1271" y="-745.8" font-family="Arial" font-weight="bold" font-size="14.00">DecoyInput</text>
<polygon fill="white" stroke="none" points="1197,-678 1197,-730 1425,-730 1425,-678 1197,-678"/>
<polygon fill="none" stroke="black" points="1197,-678 1197,-730 1425,-730 1425,-678 1197,-678"/>
<text text-anchor="start" x="1208" y="-707.8" font-family="Arial" font-size="14.00">+ public_key: G1Affine</text>
<text text-anchor="start" x="1208" y="-692.8" font-family="Arial" font-size="14.00">+ commitment: G1Affine</text>
<polygon fill="white" stroke="none" points="1197,-626 1197,-678 1425,-678 1425,-626 1197,-626"/>
<polygon fill="none" stroke="black" points="1197,-626 1197,-678 1425,-678 1425,-626 1197,-626"/>
<text text-anchor="start" x="1208" y="-655.8" font-family="Arial" font-size="14.00">&#45; public_key(&amp;self) &#45;&gt; G1Affine</text>
<text text-anchor="start" x="1208" y="-640.8" font-family="Arial" font-size="14.00">&#45; commitment(&amp;self) &#45;&gt; G1Affine</text>
<polygon fill="none" stroke="black" points="1196,-625.5 1196,-768.5 1426,-768.5 1426,-625.5 1196,-625.5"/>
</a>
</g>
</g>
<!-- ndDecoyInput&#45;&gt;ndMlsagMaterial -->
<g id="edge10" class="edge"><title>ndDecoyInput&#45;&gt;ndMlsagMaterial</title>
<path fill="none" stroke="black" d="M1256.61,-621.218C1242.37,-601.633 1226.55,-579.887 1210.75,-558.153"/>
<polygon fill="black" stroke="black" points="1210.55,-557.88 1203.79,-555.38 1203.49,-548.175 1210.25,-550.675 1210.55,-557.88"/>
</g>
<!-- ndMlsagMaterial&#45;&gt;ndRingCtMaterial -->
<g id="edge11" class="edge"><title>ndMlsagMaterial&#45;&gt;ndRingCtMaterial</title>
<path fill="none" stroke="black" d="M1111,-291.802C1111,-283.919 1111,-275.965 1111,-268.035"/>
<polygon fill="black" stroke="black" points="1111,-268.03 1107,-262.03 1111,-256.03 1115,-262.03 1111,-268.03"/>
</g>
<!-- ndMlsagSignature -->
<g id="node10" class="node"><title>ndMlsagSignature</title>
<g id="a_node10_9"><a xlink:href="https://github.com/maidsafe/blst-ringct/blob/master/src/mlsag.rs#:~:text=struct%20MlsagSignature" xlink:title="&lt;TABLE&gt;">
<polygon fill="lightblue" stroke="none" points="1462,-768 1462,-805 1951,-805 1951,-768 1462,-768"/>
<polygon fill="none" stroke="black" points="1462,-768 1462,-805 1951,-805 1951,-768 1462,-768"/>
<text text-anchor="start" x="1651.5" y="-783.8" font-family="Arial" font-weight="bold" font-size="14.00">MlsagSignature</text>
<polygon fill="white" stroke="none" points="1462,-671 1462,-768 1951,-768 1951,-671 1462,-671"/>
<polygon fill="none" stroke="black" points="1462,-671 1462,-768 1951,-768 1951,-671 1462,-671"/>
<text text-anchor="start" x="1473" y="-745.8" font-family="Arial" font-size="14.00">+ c0: Scalar</text>
<text text-anchor="start" x="1473" y="-730.8" font-family="Arial" font-size="14.00">+ r: Vec&lt;(Scalar, Scalar)&gt;</text>
<text text-anchor="start" x="1473" y="-715.8" font-family="Arial" font-size="14.00">+ key_image: G1Affine</text>
<text text-anchor="start" x="1473" y="-700.8" font-family="Arial" font-size="14.00">+ ring: Vec&lt;(G1Affine, G1Affine)&gt;</text>
<text text-anchor="start" x="1473" y="-685.8" font-family="Arial" font-size="14.00">+ pseudo_commitment: G1Affine</text>
<polygon fill="white" stroke="none" points="1462,-589 1462,-671 1951,-671 1951,-589 1462,-589"/>
<polygon fill="none" stroke="black" points="1462,-589 1462,-671 1951,-671 1951,-589 1462,-589"/>
<text text-anchor="start" x="1473" y="-648.8" font-family="Arial" font-size="14.00">&#45; to_bytes(&amp;self) &#45;&gt; Vec&lt;u8&gt;</text>
<text text-anchor="start" x="1473" y="-633.8" font-family="Arial" font-size="14.00">&#45; pseudo_commitment(&amp;self) &#45;&gt; G1Affine</text>
<text text-anchor="start" x="1473" y="-618.8" font-family="Arial" font-size="14.00">&#45; public_keys(&amp;self) &#45;&gt; Vec&lt;G1Affine&gt;</text>
<text text-anchor="start" x="1473" y="-603.8" font-family="Arial" font-size="14.00">&#45; verify(&amp;self, msg: &amp;[u8], public_commitments: &amp;[G1Affine]) &#45;&gt; Result&lt;()&gt;</text>
<polygon fill="none" stroke="black" points="1460.5,-588 1460.5,-806 1951.5,-806 1951.5,-588 1460.5,-588"/>
</a>
</g>
</g>
<!-- ndMlsagSignature&#45;&gt;ndRingCtTransaction -->
<g id="edge12" class="edge"><title>ndMlsagSignature&#45;&gt;ndRingCtTransaction</title>
<path fill="none" stroke="black" d="M1752.94,-583.75C1761.53,-563.199 1770.45,-541.869 1778.9,-521.682"/>
<polygon fill="black" stroke="black" points="1778.9,-521.667 1777.53,-514.589 1783.53,-510.596 1784.91,-517.675 1778.9,-521.667"/>
</g>
<!-- ndMlsagSignature&#45;&gt;ndMlsagMaterial -->
<g id="edge13" class="edge"><title>ndMlsagSignature&#45;&gt;ndMlsagMaterial</title>
<path fill="none" stroke="black" d="M1463.56,-583.949C1441,-573.519 1417.99,-562.886 1395.09,-552.303"/>
<polygon fill="black" stroke="black" points="1385.98,-548.092 1396.95,-548.202 1390.52,-550.189 1395.06,-552.287 1395.06,-552.287 1395.06,-552.287 1390.52,-550.189 1393.17,-556.372 1385.98,-548.092 1385.98,-548.092"/>
</g>
</g>
</svg>
