<?xml version="1.0" encoding="UTF-8" standalone="no"?>
<!DOCTYPE svg PUBLIC "-//W3C//DTD SVG 1.1//EN"
 "http://www.w3.org/Graphics/SVG/1.1/DTD/svg11.dtd">
<!-- Generated by graphviz version 2.38.0 (20140413.2041)
 -->
<!-- Title: ml Pages: 1 -->
<svg width="842pt" height="221pt"
 viewBox="0.00 0.00 842.00 221.00" xmlns="http://www.w3.org/2000/svg" xmlns:xlink="http://www.w3.org/1999/xlink">
<g id="graph0" class="graph" transform="scale(1 1) rotate(0) translate(4 217)">
<title>ml</title>
<polygon fill="white" stroke="none" points="-4,4 -4,-217 838,-217 838,4 -4,4"/>
<!-- ndPublicKeySet -->
<g id="node1" class="node"><title>ndPublicKeySet</title>
<polygon fill="lightblue" stroke="none" points="9,-87.5 9,-124.5 125,-124.5 125,-87.5 9,-87.5"/>
<polygon fill="none" stroke="black" points="9,-87.5 9,-124.5 125,-124.5 125,-87.5 9,-87.5"/>
<text text-anchor="start" x="20" y="-103.3" font-family="Arial" font-weight="bold" font-size="14.00">PublicKeySet</text>
<polygon fill="none" stroke="black" points="8,-87 8,-126 126,-126 126,-87 8,-87"/>
</g>
<!-- ndSecretKeySet -->
<g id="node2" class="node"><title>ndSecretKeySet</title>
<polygon fill="lightblue" stroke="none" points="67,-4.5 67,-41.5 184,-41.5 184,-4.5 67,-4.5"/>
<polygon fill="none" stroke="black" points="67,-4.5 67,-41.5 184,-41.5 184,-4.5 67,-4.5"/>
<text text-anchor="start" x="78" y="-20.3" font-family="Arial" font-weight="bold" font-size="14.00">SecretKeySet</text>
<polygon fill="none" stroke="black" points="65.5,-4 65.5,-43 184.5,-43 184.5,-4 65.5,-4"/>
</g>
<!-- ndPublicKeySet&#45;&gt;ndSecretKeySet -->
<g id="edge1" class="edge"><title>ndPublicKeySet&#45;&gt;ndSecretKeySet</title>
<path fill="none" stroke="black" d="M83.1562,-82.937C89.264,-74.4071 96.3244,-64.547 102.886,-55.3839"/>
<polygon fill="black" stroke="black" points="108.729,-47.2229 106.566,-57.9734 105.818,-51.2882 102.907,-55.3535 102.907,-55.3535 102.907,-55.3535 105.818,-51.2882 99.2486,-52.7336 108.729,-47.2229 108.729,-47.2229"/>
</g>
<!-- ndError -->
<g id="node3" class="node"><title>ndError</title>
<polygon fill="yellow" stroke="none" points="280,-170.5 280,-207.5 339,-207.5 339,-170.5 280,-170.5"/>
<polygon fill="none" stroke="black" points="280,-170.5 280,-207.5 339,-207.5 339,-170.5 280,-170.5"/>
<text text-anchor="start" x="291" y="-186.3" font-family="Arial" font-weight="bold" font-size="14.00">Error</text>
<polygon fill="none" stroke="black" points="278.5,-170 278.5,-209 339.5,-209 339.5,-170 278.5,-170"/>
</g>
<!-- ndFromBytesError -->
<g id="node4" class="node"><title>ndFromBytesError</title>
<polygon fill="yellow" stroke="none" points="375,-170.5 375,-207.5 511,-207.5 511,-170.5 375,-170.5"/>
<polygon fill="none" stroke="black" points="375,-170.5 375,-207.5 511,-207.5 511,-170.5 375,-170.5"/>
<text text-anchor="start" x="386" y="-186.3" font-family="Arial" font-weight="bold" font-size="14.00">FromBytesError</text>
<polygon fill="none" stroke="black" points="374,-170 374,-209 512,-209 512,-170 374,-170"/>
</g>
<!-- ndIntoFr -->
<g id="node5" class="node"><title>ndIntoFr</title>
<polygon fill="lightgreen" stroke="none" points="547,-170.5 547,-207.5 611,-207.5 611,-170.5 547,-170.5"/>
<polygon fill="none" stroke="black" points="547,-170.5 547,-207.5 611,-207.5 611,-170.5 547,-170.5"/>
<text text-anchor="start" x="558" y="-186.3" font-family="Arial" font-weight="bold" font-size="14.00">IntoFr</text>
<polygon fill="none" stroke="black" points="546,-170 546,-209 612,-209 612,-170 546,-170"/>
</g>
<!-- ndPoly -->
<g id="node6" class="node"><title>ndPoly</title>
<polygon fill="lightblue" stroke="none" points="162,-87.5 162,-124.5 215,-124.5 215,-87.5 162,-87.5"/>
<polygon fill="none" stroke="black" points="162,-87.5 162,-124.5 215,-124.5 215,-87.5 162,-87.5"/>
<text text-anchor="start" x="173" y="-103.3" font-family="Arial" font-weight="bold" font-size="14.00">Poly</text>
<polygon fill="none" stroke="black" points="160.5,-87 160.5,-126 215.5,-126 215.5,-87 160.5,-87"/>
</g>
<!-- ndPoly&#45;&gt;ndSecretKeySet -->
<g id="edge2" class="edge"><title>ndPoly&#45;&gt;ndSecretKeySet</title>
<path fill="none" stroke="black" stroke-dasharray="5,2" d="M170.451,-82.937C164.155,-74.8423 156.928,-65.5497 150.116,-56.7916"/>
<polygon fill="black" stroke="black" points="150.041,-56.6952 143.2,-54.4148 142.673,-47.2229 149.514,-49.5033 150.041,-56.6952"/>
</g>
<!-- ndBivarPoly -->
<g id="node8" class="node"><title>ndBivarPoly</title>
<polygon fill="lightblue" stroke="none" points="249,-4.5 249,-41.5 339,-41.5 339,-4.5 249,-4.5"/>
<polygon fill="none" stroke="black" points="249,-4.5 249,-41.5 339,-41.5 339,-4.5 249,-4.5"/>
<text text-anchor="start" x="260" y="-20.3" font-family="Arial" font-weight="bold" font-size="14.00">BivarPoly</text>
<polygon fill="none" stroke="black" points="248,-4 248,-43 340,-43 340,-4 248,-4"/>
</g>
<!-- ndPoly&#45;&gt;ndBivarPoly -->
<g id="edge3" class="edge"><title>ndPoly&#45;&gt;ndBivarPoly</title>
<path fill="none" stroke="black" d="M217.527,-82.937C229.487,-73.7979 243.445,-63.1317 256.139,-53.4318"/>
<polygon fill="black" stroke="black" points="264.264,-47.2229 259.05,-56.8703 260.291,-50.2588 256.318,-53.2947 256.318,-53.2947 256.318,-53.2947 260.291,-50.2588 253.586,-49.7191 264.264,-47.2229 264.264,-47.2229"/>
</g>
<!-- ndCommitment -->
<g id="node7" class="node"><title>ndCommitment</title>
<polygon fill="lightblue" stroke="none" points="133,-170.5 133,-207.5 243,-207.5 243,-170.5 133,-170.5"/>
<polygon fill="none" stroke="black" points="133,-170.5 133,-207.5 243,-207.5 243,-170.5 133,-170.5"/>
<text text-anchor="start" x="144" y="-186.3" font-family="Arial" font-weight="bold" font-size="14.00">Commitment</text>
<polygon fill="none" stroke="black" points="132,-170 132,-209 244,-209 244,-170 132,-170"/>
</g>
<!-- ndCommitment&#45;&gt;ndPublicKeySet -->
<g id="edge4" class="edge"><title>ndCommitment&#45;&gt;ndPublicKeySet</title>
<path fill="none" stroke="black" stroke-dasharray="5,2" d="M154.295,-165.937C140.903,-156.972 125.315,-146.537 111.049,-136.987"/>
<polygon fill="black" stroke="black" points="110.916,-136.898 103.705,-136.885 100.944,-130.223 108.155,-130.237 110.916,-136.898"/>
</g>
<!-- ndCommitment&#45;&gt;ndPoly -->
<g id="edge5" class="edge"><title>ndCommitment&#45;&gt;ndPoly</title>
<path fill="none" stroke="black" d="M188,-165.937C188,-158.016 188,-148.949 188,-140.357"/>
<polygon fill="black" stroke="black" points="188,-130.223 192.5,-140.223 188,-135.223 188,-140.223 188,-140.223 188,-140.223 188,-135.223 183.5,-140.223 188,-130.223 188,-130.223"/>
</g>
<!-- ndBivarCommitment -->
<g id="node9" class="node"><title>ndBivarCommitment</title>
<polygon fill="lightblue" stroke="none" points="251,-87.5 251,-124.5 398,-124.5 398,-87.5 251,-87.5"/>
<polygon fill="none" stroke="black" points="251,-87.5 251,-124.5 398,-124.5 398,-87.5 251,-87.5"/>
<text text-anchor="start" x="262" y="-103.3" font-family="Arial" font-weight="bold" font-size="14.00">BivarCommitment</text>
<polygon fill="none" stroke="black" points="249.5,-87 249.5,-126 398.5,-126 398.5,-87 249.5,-87"/>
</g>
<!-- ndCommitment&#45;&gt;ndBivarCommitment -->
<g id="edge6" class="edge"><title>ndCommitment&#45;&gt;ndBivarCommitment</title>
<path fill="none" stroke="black" d="M225.884,-165.937C241.667,-156.537 260.162,-145.521 276.815,-135.603"/>
<polygon fill="black" stroke="black" points="285.848,-130.223 279.559,-139.206 281.552,-132.781 277.256,-135.34 277.256,-135.34 277.256,-135.34 281.552,-132.781 274.954,-131.474 285.848,-130.223 285.848,-130.223"/>
</g>
<!-- ndBivarCommitment&#45;&gt;ndBivarPoly -->
<g id="edge7" class="edge"><title>ndBivarCommitment&#45;&gt;ndBivarPoly</title>
<path fill="none" stroke="black" d="M315.643,-82.937C312.645,-74.8423 309.204,-65.5497 305.96,-56.7916"/>
<polygon fill="black" stroke="black" points="302.416,-47.2229 310.109,-55.0375 304.153,-51.9117 305.889,-56.6004 305.889,-56.6004 305.889,-56.6004 304.153,-51.9117 301.669,-58.1634 302.416,-47.2229 302.416,-47.2229"/>
</g>
<!-- ndWireBivarCommitment -->
<g id="node10" class="node"><title>ndWireBivarCommitment</title>
<polygon fill="lightblue" stroke="none" points="647,-170.5 647,-207.5 825,-207.5 825,-170.5 647,-170.5"/>
<polygon fill="none" stroke="black" points="647,-170.5 647,-207.5 825,-207.5 825,-170.5 647,-170.5"/>
<text text-anchor="start" x="658" y="-186.3" font-family="Arial" font-weight="bold" font-size="14.00">WireBivarCommitment</text>
<polygon fill="none" stroke="black" points="646,-170 646,-209 826,-209 826,-170 646,-170"/>
</g>
</g>
</svg>
