<?xml version="1.0" encoding="UTF-8" standalone="no"?>
<!DOCTYPE svg PUBLIC "-//W3C//DTD SVG 1.1//EN"
 "http://www.w3.org/Graphics/SVG/1.1/DTD/svg11.dtd">
<!-- Generated by graphviz version 2.38.0 (20140413.2041)
 -->
<!-- Title: ml Pages: 1 -->
<svg width="1914pt" height="1298pt"
 viewBox="0.00 0.00 1913.50 1298.00" xmlns="http://www.w3.org/2000/svg" xmlns:xlink="http://www.w3.org/1999/xlink">
<g id="graph0" class="graph" transform="scale(1 1) rotate(0) translate(4 1294)">
<title>ml</title>
<polygon fill="white" stroke="none" points="-4,4 -4,-1294 1909.5,-1294 1909.5,4 -4,4"/>
<!-- ndPublicKeySet -->
<g id="node1" class="node"><title>ndPublicKeySet</title>
<g id="a_node1_0"><a xlink:href="https://github.com/maidsafe/blsttc/blob/master/src/lib.rs#:~:text=struct%20PublicKeySet" xlink:title="&lt;TABLE&gt;">
<polygon fill="lightblue" stroke="none" points="9.5,-760.5 9.5,-797.5 426.5,-797.5 426.5,-760.5 9.5,-760.5"/>
<polygon fill="none" stroke="black" points="9.5,-760.5 9.5,-797.5 426.5,-797.5 426.5,-760.5 9.5,-760.5"/>
<text text-anchor="start" x="171" y="-776.3" font-family="Arial" font-weight="bold" font-size="14.00">PublicKeySet</text>
<polygon fill="white" stroke="none" points="9.5,-723.5 9.5,-760.5 426.5,-760.5 426.5,-723.5 9.5,-723.5"/>
<polygon fill="none" stroke="black" points="9.5,-723.5 9.5,-760.5 426.5,-760.5 426.5,-723.5 9.5,-723.5"/>
<text text-anchor="start" x="20.5" y="-738.3" font-family="Arial" font-size="14.00">&#45; commit: Commitment</text>
<polygon fill="white" stroke="none" points="9.5,-536.5 9.5,-723.5 426.5,-723.5 426.5,-536.5 9.5,-536.5"/>
<polygon fill="none" stroke="black" points="9.5,-536.5 9.5,-723.5 426.5,-723.5 426.5,-536.5 9.5,-536.5"/>
<text text-anchor="start" x="20.5" y="-701.3" font-family="Arial" font-size="14.00">&#45; hash(&amp;self, state: &amp;mut H)</text>
<text text-anchor="start" x="20.5" y="-686.3" font-family="Arial" font-size="14.00">&#45; fmt(&amp;self, f: &amp;mut fmt::Formatter) &#45;&gt; fmt::Result</text>
<text text-anchor="start" x="20.5" y="-671.3" font-family="Arial" font-size="14.00">&#45; from(commit: Commitment) &#45;&gt; PublicKeySet</text>
<text text-anchor="start" x="20.5" y="-656.3" font-family="Arial" font-size="14.00">&#45; threshold(&amp;self) &#45;&gt; usize</text>
<text text-anchor="start" x="20.5" y="-641.3" font-family="Arial" font-size="14.00">&#45; public_key(&amp;self) &#45;&gt; PublicKey</text>
<text text-anchor="start" x="20.5" y="-626.3" font-family="Arial" font-size="14.00">&#45; public_key_share(&amp;self, i: T) &#45;&gt; PublicKeyShare</text>
<text text-anchor="start" x="20.5" y="-611.3" font-family="Arial" font-size="14.00">&#45; combine_signatures(&amp;self, shares: I) &#45;&gt; Result&lt;Signature&gt;</text>
<text text-anchor="start" x="20.5" y="-596.3" font-family="Arial" font-size="14.00">&#45; decrypt(&amp;self, shares: I, ct: &amp;Ciphertext) &#45;&gt; Result&lt;Vec&lt;u8&gt;&gt;</text>
<text text-anchor="start" x="20.5" y="-581.3" font-family="Arial" font-size="14.00">&#45; derive_child(&amp;self, index: &amp;[u8]) &#45;&gt; Self</text>
<text text-anchor="start" x="20.5" y="-566.3" font-family="Arial" font-size="14.00">&#45; to_bytes(&amp;self) &#45;&gt; Vec&lt;u8&gt;</text>
<text text-anchor="start" x="20.5" y="-551.3" font-family="Arial" font-size="14.00">&#45; from_bytes(bytes: Vec&lt;u8&gt;) &#45;&gt; FromBytesResult&lt;Self&gt;</text>
<polygon fill="none" stroke="black" points="8,-536 8,-799 427,-799 427,-536 8,-536"/>
</a>
</g>
</g>
<!-- ndSecretKeySet -->
<g id="node2" class="node"><title>ndSecretKeySet</title>
<g id="a_node2_1"><a xlink:href="https://github.com/maidsafe/blsttc/blob/master/src/lib.rs#:~:text=struct%20SecretKeySet" xlink:title="&lt;TABLE&gt;">
<polygon fill="lightblue" stroke="none" points="235.5,-251 235.5,-288 630.5,-288 630.5,-251 235.5,-251"/>
<polygon fill="none" stroke="black" points="235.5,-251 235.5,-288 630.5,-288 630.5,-251 235.5,-251"/>
<text text-anchor="start" x="385.5" y="-266.8" font-family="Arial" font-weight="bold" font-size="14.00">SecretKeySet</text>
<polygon fill="white" stroke="none" points="235.5,-214 235.5,-251 630.5,-251 630.5,-214 235.5,-214"/>
<polygon fill="none" stroke="black" points="235.5,-214 235.5,-251 630.5,-251 630.5,-214 235.5,-214"/>
<text text-anchor="start" x="246.5" y="-228.8" font-family="Arial" font-size="14.00">&#45; poly: Poly</text>
<polygon fill="white" stroke="none" points="235.5,-27 235.5,-214 630.5,-214 630.5,-27 235.5,-27"/>
<polygon fill="none" stroke="black" points="235.5,-27 235.5,-214 630.5,-214 630.5,-27 235.5,-27"/>
<text text-anchor="start" x="246.5" y="-191.8" font-family="Arial" font-size="14.00">&#45; from(poly: Poly) &#45;&gt; SecretKeySet</text>
<text text-anchor="start" x="246.5" y="-176.8" font-family="Arial" font-size="14.00">&#45; random(threshold: usize, rng: &amp;mut R) &#45;&gt; Self</text>
<text text-anchor="start" x="246.5" y="-161.8" font-family="Arial" font-size="14.00">&#45; try_random(threshold: usize, rng: &amp;mut R) &#45;&gt; Result&lt;Self&gt;</text>
<text text-anchor="start" x="246.5" y="-146.8" font-family="Arial" font-size="14.00">&#45; threshold(&amp;self) &#45;&gt; usize</text>
<text text-anchor="start" x="246.5" y="-131.8" font-family="Arial" font-size="14.00">&#45; secret_key_share(&amp;self, i: T) &#45;&gt; SecretKeyShare</text>
<text text-anchor="start" x="246.5" y="-116.8" font-family="Arial" font-size="14.00">&#45; public_keys(&amp;self) &#45;&gt; PublicKeySet</text>
<text text-anchor="start" x="246.5" y="-101.8" font-family="Arial" font-size="14.00">&#45; poly(&amp;self) &#45;&gt; &amp;Poly</text>
<text text-anchor="start" x="246.5" y="-86.8" font-family="Arial" font-size="14.00">&#45; secret_key(&amp;self) &#45;&gt; SecretKey</text>
<text text-anchor="start" x="246.5" y="-71.8" font-family="Arial" font-size="14.00">&#45; derive_child(&amp;self, index: &amp;[u8]) &#45;&gt; Self</text>
<text text-anchor="start" x="246.5" y="-56.8" font-family="Arial" font-size="14.00">&#45; to_bytes(&amp;self) &#45;&gt; Vec&lt;u8&gt;</text>
<text text-anchor="start" x="246.5" y="-41.8" font-family="Arial" font-size="14.00">&#45; from_bytes(bytes: Vec&lt;u8&gt;) &#45;&gt; FromBytesResult&lt;Self&gt;</text>
<polygon fill="none" stroke="black" points="234,-26.5 234,-289.5 631,-289.5 631,-26.5 234,-26.5"/>
</a>
</g>
</g>
<!-- ndPublicKeySet&#45;&gt;ndSecretKeySet -->
<g id="edge1" class="edge"><title>ndPublicKeySet&#45;&gt;ndSecretKeySet</title>
<path fill="none" stroke="black" d="M274.552,-531.832C304.376,-461.433 340.9,-375.219 371.311,-303.436"/>
<polygon fill="black" stroke="black" points="375.369,-293.857 375.611,-304.82 373.418,-298.461 371.468,-303.065 371.468,-303.065 371.468,-303.065 373.418,-298.461 367.324,-301.309 375.369,-293.857 375.369,-293.857"/>
</g>
<!-- ndError -->
<g id="node3" class="node"><title>ndError</title>
<g id="a_node3_2"><a xlink:href="https://github.com/maidsafe/blsttc/blob/master/src/error.rs#:~:text=enum%20Error" xlink:title="&lt;TABLE&gt;">
<polygon fill="yellow" stroke="none" points="1377.5,-1169.5 1377.5,-1206.5 1515.5,-1206.5 1515.5,-1169.5 1377.5,-1169.5"/>
<polygon fill="none" stroke="black" points="1377.5,-1169.5 1377.5,-1206.5 1515.5,-1206.5 1515.5,-1169.5 1377.5,-1169.5"/>
<text text-anchor="start" x="1428" y="-1185.3" font-family="Arial" font-weight="bold" font-size="14.00">Error</text>
<polygon fill="white" stroke="none" points="1377.5,-1102.5 1377.5,-1169.5 1515.5,-1169.5 1515.5,-1102.5 1377.5,-1102.5"/>
<polygon fill="none" stroke="black" points="1377.5,-1102.5 1377.5,-1169.5 1515.5,-1169.5 1515.5,-1102.5 1377.5,-1102.5"/>
<text text-anchor="start" x="1388.5" y="-1147.3" font-family="Arial" font-size="14.00">NotEnoughShares</text>
<text text-anchor="start" x="1388.5" y="-1132.3" font-family="Arial" font-size="14.00">DuplicateEntry</text>
<text text-anchor="start" x="1388.5" y="-1117.3" font-family="Arial" font-size="14.00">DegreeTooHigh</text>
<polygon fill="none" stroke="black" points="1376.5,-1101.5 1376.5,-1207.5 1516.5,-1207.5 1516.5,-1101.5 1376.5,-1101.5"/>
</a>
</g>
</g>
<!-- ndFromBytesError -->
<g id="node4" class="node"><title>ndFromBytesError</title>
<g id="a_node4_3"><a xlink:href="https://github.com/maidsafe/blsttc/blob/master/src/error.rs#:~:text=enum%20FromBytesError" xlink:title="&lt;TABLE&gt;">
<polygon fill="yellow" stroke="none" points="1300.5,-685.5 1300.5,-722.5 1593.5,-722.5 1593.5,-685.5 1300.5,-685.5"/>
<polygon fill="none" stroke="black" points="1300.5,-685.5 1300.5,-722.5 1593.5,-722.5 1593.5,-685.5 1300.5,-685.5"/>
<text text-anchor="start" x="1390" y="-701.3" font-family="Arial" font-weight="bold" font-size="14.00">FromBytesError</text>
<polygon fill="white" stroke="none" points="1300.5,-648.5 1300.5,-685.5 1593.5,-685.5 1593.5,-648.5 1300.5,-648.5"/>
<polygon fill="none" stroke="black" points="1300.5,-648.5 1300.5,-685.5 1593.5,-685.5 1593.5,-648.5 1300.5,-648.5"/>
<text text-anchor="start" x="1311.5" y="-663.3" font-family="Arial" font-size="14.00">Invalid</text>
<polygon fill="white" stroke="none" points="1300.5,-611.5 1300.5,-648.5 1593.5,-648.5 1593.5,-611.5 1300.5,-611.5"/>
<polygon fill="none" stroke="black" points="1300.5,-611.5 1300.5,-648.5 1593.5,-648.5 1593.5,-611.5 1300.5,-611.5"/>
<text text-anchor="start" x="1311.5" y="-626.3" font-family="Arial" font-size="14.00">&#45; from(_: PrimeFieldDecodingError) &#45;&gt; Self</text>
<polygon fill="none" stroke="black" points="1299,-611 1299,-724 1594,-724 1594,-611 1299,-611"/>
</a>
</g>
</g>
<!-- ndError&#45;&gt;ndFromBytesError -->
<g id="edge2" class="edge"><title>ndError&#45;&gt;ndFromBytesError</title>
<path fill="none" stroke="black" stroke-dasharray="5,2" d="M1446.5,-1097.39C1446.5,-1008.49 1446.5,-835.451 1446.5,-738.546"/>
<polygon fill="black" stroke="black" points="1446.5,-728.264 1451,-738.264 1446.5,-733.264 1446.5,-738.264 1446.5,-738.264 1446.5,-738.264 1446.5,-733.264 1442,-738.264 1446.5,-728.264 1446.5,-728.264"/>
</g>
<!-- ndIntoFr -->
<g id="node5" class="node"><title>ndIntoFr</title>
<g id="a_node5_4"><a xlink:href="https://github.com/maidsafe/blsttc/blob/master/src/into_fr.rs#:~:text=trait%20IntoFr" xlink:title="&lt;TABLE&gt;">
<polygon fill="lightgreen" stroke="none" points="1552.5,-1154.5 1552.5,-1191.5 1683.5,-1191.5 1683.5,-1154.5 1552.5,-1154.5"/>
<polygon fill="none" stroke="black" points="1552.5,-1154.5 1552.5,-1191.5 1683.5,-1191.5 1683.5,-1154.5 1552.5,-1154.5"/>
<text text-anchor="start" x="1597" y="-1170.3" font-family="Arial" font-weight="bold" font-size="14.00">IntoFr</text>
<polygon fill="white" stroke="none" points="1552.5,-1117.5 1552.5,-1154.5 1683.5,-1154.5 1683.5,-1117.5 1552.5,-1117.5"/>
<polygon fill="none" stroke="black" points="1552.5,-1117.5 1552.5,-1154.5 1683.5,-1154.5 1683.5,-1117.5 1552.5,-1117.5"/>
<text text-anchor="start" x="1563.5" y="-1132.3" font-family="Arial" font-size="14.00">into_fr(Self) &#45;&gt; Fr</text>
<polygon fill="none" stroke="black" points="1551,-1116.5 1551,-1192.5 1684,-1192.5 1684,-1116.5 1551,-1116.5"/>
</a>
</g>
</g>
<!-- ndPoly -->
<g id="node6" class="node"><title>ndPoly</title>
<g id="a_node6_5"><a xlink:href="https://github.com/maidsafe/blsttc/blob/master/src/poly.rs#:~:text=struct%20Poly" xlink:title="&lt;TABLE&gt;">
<polygon fill="lightblue" stroke="none" points="462.5,-940.5 462.5,-977.5 845.5,-977.5 845.5,-940.5 462.5,-940.5"/>
<polygon fill="none" stroke="black" points="462.5,-940.5 462.5,-977.5 845.5,-977.5 845.5,-940.5 462.5,-940.5"/>
<text text-anchor="start" x="638.5" y="-956.3" font-family="Arial" font-weight="bold" font-size="14.00">Poly</text>
<polygon fill="white" stroke="none" points="462.5,-903.5 462.5,-940.5 845.5,-940.5 845.5,-903.5 462.5,-903.5"/>
<polygon fill="none" stroke="black" points="462.5,-903.5 462.5,-940.5 845.5,-940.5 845.5,-903.5 462.5,-903.5"/>
<text text-anchor="start" x="473.5" y="-918.3" font-family="Arial" font-size="14.00">&#45; coeff: Vec&lt;Fr&gt;</text>
<polygon fill="white" stroke="none" points="462.5,-356.5 462.5,-903.5 845.5,-903.5 845.5,-356.5 462.5,-356.5"/>
<polygon fill="none" stroke="black" points="462.5,-356.5 462.5,-903.5 845.5,-903.5 845.5,-356.5 462.5,-356.5"/>
<text text-anchor="start" x="473.5" y="-881.3" font-family="Arial" font-size="14.00">&#45; zeroize(&amp;mut self)</text>
<text text-anchor="start" x="473.5" y="-866.3" font-family="Arial" font-size="14.00">&#45; drop(&amp;mut self)</text>
<text text-anchor="start" x="473.5" y="-851.3" font-family="Arial" font-size="14.00">&#45; fmt(&amp;self, f: &amp;mut Formatter&lt;&#39;_&gt;) &#45;&gt; fmt::Result</text>
<text text-anchor="start" x="473.5" y="-836.3" font-family="Arial" font-size="14.00">&#45; add_assign(&amp;mut self, rhs: B)</text>
<text text-anchor="start" x="473.5" y="-821.3" font-family="Arial" font-size="14.00">&#45; add(mut self, rhs: B) &#45;&gt; Poly</text>
<text text-anchor="start" x="473.5" y="-806.3" font-family="Arial" font-size="14.00">&#45; add(mut self, rhs: Fr) &#45;&gt; Self::Output</text>
<text text-anchor="start" x="473.5" y="-791.3" font-family="Arial" font-size="14.00">&#45; add(self, rhs: u64) &#45;&gt; Self::Output</text>
<text text-anchor="start" x="473.5" y="-776.3" font-family="Arial" font-size="14.00">&#45; sub_assign(&amp;mut self, rhs: B)</text>
<text text-anchor="start" x="473.5" y="-761.3" font-family="Arial" font-size="14.00">&#45; sub(mut self, rhs: B) &#45;&gt; Poly</text>
<text text-anchor="start" x="473.5" y="-746.3" font-family="Arial" font-size="14.00">&#45; sub(self, mut rhs: Fr) &#45;&gt; Self::Output</text>
<text text-anchor="start" x="473.5" y="-731.3" font-family="Arial" font-size="14.00">&#45; sub(self, rhs: u64) &#45;&gt; Self::Output</text>
<text text-anchor="start" x="473.5" y="-716.3" font-family="Arial" font-size="14.00">&#45; mul(self, rhs: B) &#45;&gt; Self::Output</text>
<text text-anchor="start" x="473.5" y="-701.3" font-family="Arial" font-size="14.00">&#45; mul_assign(&amp;mut self, rhs: B)</text>
<text text-anchor="start" x="473.5" y="-686.3" font-family="Arial" font-size="14.00">&#45; mul_assign(&amp;mut self, rhs: Fr)</text>
<text text-anchor="start" x="473.5" y="-671.3" font-family="Arial" font-size="14.00">&#45; mul(mut self, rhs: &amp;Fr) &#45;&gt; Self::Output</text>
<text text-anchor="start" x="473.5" y="-656.3" font-family="Arial" font-size="14.00">&#45; mul(self, rhs: Fr) &#45;&gt; Self::Output</text>
<text text-anchor="start" x="473.5" y="-641.3" font-family="Arial" font-size="14.00">&#45; mul(self, rhs: u64) &#45;&gt; Self::Output</text>
<text text-anchor="start" x="473.5" y="-626.3" font-family="Arial" font-size="14.00">&#45; from(coeff: Vec&lt;Fr&gt;) &#45;&gt; Self</text>
<text text-anchor="start" x="473.5" y="-611.3" font-family="Arial" font-size="14.00">&#45; random(degree: usize, rng: &amp;mut R) &#45;&gt; Self</text>
<text text-anchor="start" x="473.5" y="-596.3" font-family="Arial" font-size="14.00">&#45; try_random(degree: usize, rng: &amp;mut R) &#45;&gt; Result&lt;Self&gt;</text>
<text text-anchor="start" x="473.5" y="-581.3" font-family="Arial" font-size="14.00">&#45; zero() &#45;&gt; Self</text>
<text text-anchor="start" x="473.5" y="-566.3" font-family="Arial" font-size="14.00">&#45; is_zero(&amp;self) &#45;&gt; bool</text>
<text text-anchor="start" x="473.5" y="-551.3" font-family="Arial" font-size="14.00">&#45; one() &#45;&gt; Self</text>
<text text-anchor="start" x="473.5" y="-536.3" font-family="Arial" font-size="14.00">&#45; constant(mut c: Fr) &#45;&gt; Self</text>
<text text-anchor="start" x="473.5" y="-521.3" font-family="Arial" font-size="14.00">&#45; identity() &#45;&gt; Self</text>
<text text-anchor="start" x="473.5" y="-506.3" font-family="Arial" font-size="14.00">&#45; monomial(degree: usize) &#45;&gt; Self</text>
<text text-anchor="start" x="473.5" y="-491.3" font-family="Arial" font-size="14.00">&#45; interpolate(samples_repr: I) &#45;&gt; Self</text>
<text text-anchor="start" x="473.5" y="-476.3" font-family="Arial" font-size="14.00">&#45; degree(&amp;self) &#45;&gt; usize</text>
<text text-anchor="start" x="473.5" y="-461.3" font-family="Arial" font-size="14.00">&#45; evaluate(&amp;self, i: T) &#45;&gt; Fr</text>
<text text-anchor="start" x="473.5" y="-446.3" font-family="Arial" font-size="14.00">&#45; commitment(&amp;self) &#45;&gt; Commitment</text>
<text text-anchor="start" x="473.5" y="-431.3" font-family="Arial" font-size="14.00">&#45; to_bytes(&amp;self) &#45;&gt; Vec&lt;u8&gt;</text>
<text text-anchor="start" x="473.5" y="-416.3" font-family="Arial" font-size="14.00">&#45; from_bytes(bytes: Vec&lt;u8&gt;) &#45;&gt; FromBytesResult&lt;Self&gt;</text>
<text text-anchor="start" x="473.5" y="-401.3" font-family="Arial" font-size="14.00">&#45; remove_zeros(&amp;mut self)</text>
<text text-anchor="start" x="473.5" y="-386.3" font-family="Arial" font-size="14.00">&#45; compute_interpolation(samples: &amp;[(Fr, Fr)]) &#45;&gt; Self</text>
<text text-anchor="start" x="473.5" y="-371.3" font-family="Arial" font-size="14.00">&#45; reveal(&amp;self) &#45;&gt; String</text>
<polygon fill="none" stroke="black" points="461,-356 461,-979 846,-979 846,-356 461,-356"/>
</a>
</g>
</g>
<!-- ndPoly&#45;&gt;ndSecretKeySet -->
<g id="edge3" class="edge"><title>ndPoly&#45;&gt;ndSecretKeySet</title>
<path fill="none" stroke="black" stroke-dasharray="5,2" d="M516.523,-351.95C509.532,-335.895 502.691,-320.186 496.122,-305.1"/>
<polygon fill="black" stroke="black" points="495.944,-304.692 489.881,-300.788 491.153,-293.69 497.216,-297.594 495.944,-304.692"/>
</g>
<!-- ndBivarPoly -->
<g id="node8" class="node"><title>ndBivarPoly</title>
<g id="a_node8_6"><a xlink:href="https://github.com/maidsafe/blsttc/blob/master/src/poly.rs#:~:text=struct%20BivarPoly" xlink:title="&lt;TABLE&gt;">
<polygon fill="lightblue" stroke="none" points="671.5,-274 671.5,-311 1054.5,-311 1054.5,-274 671.5,-274"/>
<polygon fill="none" stroke="black" points="671.5,-274 671.5,-311 1054.5,-311 1054.5,-274 671.5,-274"/>
<text text-anchor="start" x="829" y="-289.8" font-family="Arial" font-weight="bold" font-size="14.00">BivarPoly</text>
<polygon fill="white" stroke="none" points="671.5,-222 671.5,-274 1054.5,-274 1054.5,-222 671.5,-222"/>
<polygon fill="none" stroke="black" points="671.5,-222 671.5,-274 1054.5,-274 1054.5,-222 671.5,-222"/>
<text text-anchor="start" x="682.5" y="-251.8" font-family="Arial" font-size="14.00">&#45; degree: usize</text>
<text text-anchor="start" x="682.5" y="-236.8" font-family="Arial" font-size="14.00">&#45; coeff: Vec&lt;Fr&gt;</text>
<polygon fill="white" stroke="none" points="671.5,-5 671.5,-222 1054.5,-222 1054.5,-5 671.5,-5"/>
<polygon fill="none" stroke="black" points="671.5,-5 671.5,-222 1054.5,-222 1054.5,-5 671.5,-5"/>
<text text-anchor="start" x="682.5" y="-199.8" font-family="Arial" font-size="14.00">&#45; zeroize(&amp;mut self)</text>
<text text-anchor="start" x="682.5" y="-184.8" font-family="Arial" font-size="14.00">&#45; drop(&amp;mut self)</text>
<text text-anchor="start" x="682.5" y="-169.8" font-family="Arial" font-size="14.00">&#45; fmt(&amp;self, f: &amp;mut Formatter&lt;&#39;_&gt;) &#45;&gt; fmt::Result</text>
<text text-anchor="start" x="682.5" y="-154.8" font-family="Arial" font-size="14.00">&#45; random(degree: usize, rng: &amp;mut R) &#45;&gt; Self</text>
<text text-anchor="start" x="682.5" y="-139.8" font-family="Arial" font-size="14.00">&#45; try_random(degree: usize, rng: &amp;mut R) &#45;&gt; Result&lt;Self&gt;</text>
<text text-anchor="start" x="682.5" y="-124.8" font-family="Arial" font-size="14.00">&#45; degree(&amp;self) &#45;&gt; usize</text>
<text text-anchor="start" x="682.5" y="-109.8" font-family="Arial" font-size="14.00">&#45; evaluate(&amp;self, x: T, y: T) &#45;&gt; Fr</text>
<text text-anchor="start" x="682.5" y="-94.8" font-family="Arial" font-size="14.00">&#45; row(&amp;self, x: T) &#45;&gt; Poly</text>
<text text-anchor="start" x="682.5" y="-79.8" font-family="Arial" font-size="14.00">&#45; commitment(&amp;self) &#45;&gt; BivarCommitment</text>
<text text-anchor="start" x="682.5" y="-64.8" font-family="Arial" font-size="14.00">&#45; powers(&amp;self, x: T) &#45;&gt; Vec&lt;Fr&gt;</text>
<text text-anchor="start" x="682.5" y="-49.8" font-family="Arial" font-size="14.00">&#45; reveal(&amp;self) &#45;&gt; String</text>
<text text-anchor="start" x="682.5" y="-34.8" font-family="Arial" font-size="14.00">&#45; to_bytes(&amp;self) &#45;&gt; Vec&lt;u8&gt;</text>
<text text-anchor="start" x="682.5" y="-19.8" font-family="Arial" font-size="14.00">&#45; from_bytes(bytes: Vec&lt;u8&gt;) &#45;&gt; FromBytesResult&lt;Self&gt;</text>
<polygon fill="none" stroke="black" points="670,-4 670,-312 1055,-312 1055,-4 670,-4"/>
</a>
</g>
</g>
<!-- ndPoly&#45;&gt;ndBivarPoly -->
<g id="edge4" class="edge"><title>ndPoly&#45;&gt;ndBivarPoly</title>
<path fill="none" stroke="black" d="M783.039,-351.95C786.713,-343.028 790.343,-334.213 793.91,-325.552"/>
<polygon fill="black" stroke="black" points="797.754,-316.217 798.107,-327.177 795.85,-320.84 793.946,-325.464 793.946,-325.464 793.946,-325.464 795.85,-320.84 789.785,-323.75 797.754,-316.217 797.754,-316.217"/>
</g>
<!-- ndCommitment -->
<g id="node7" class="node"><title>ndCommitment</title>
<g id="a_node7_7"><a xlink:href="https://github.com/maidsafe/blsttc/blob/master/src/poly.rs#:~:text=struct%20Commitment" xlink:title="&lt;TABLE&gt;">
<polygon fill="lightblue" stroke="none" points="462.5,-1247.5 462.5,-1284.5 845.5,-1284.5 845.5,-1247.5 462.5,-1247.5"/>
<polygon fill="none" stroke="black" points="462.5,-1247.5 462.5,-1284.5 845.5,-1284.5 845.5,-1247.5 462.5,-1247.5"/>
<text text-anchor="start" x="610" y="-1263.3" font-family="Arial" font-weight="bold" font-size="14.00">Commitment</text>
<polygon fill="white" stroke="none" points="462.5,-1210.5 462.5,-1247.5 845.5,-1247.5 845.5,-1210.5 462.5,-1210.5"/>
<polygon fill="none" stroke="black" points="462.5,-1210.5 462.5,-1247.5 845.5,-1247.5 845.5,-1210.5 462.5,-1210.5"/>
<text text-anchor="start" x="473.5" y="-1225.3" font-family="Arial" font-size="14.00">&#45; coeff: Vec&lt;G1&gt;</text>
<polygon fill="white" stroke="none" points="462.5,-1023.5 462.5,-1210.5 845.5,-1210.5 845.5,-1023.5 462.5,-1023.5"/>
<polygon fill="none" stroke="black" points="462.5,-1023.5 462.5,-1210.5 845.5,-1210.5 845.5,-1023.5 462.5,-1023.5"/>
<text text-anchor="start" x="473.5" y="-1188.3" font-family="Arial" font-size="14.00">&#45; from(coeff: Vec&lt;G1&gt;) &#45;&gt; Self</text>
<text text-anchor="start" x="473.5" y="-1173.3" font-family="Arial" font-size="14.00">&#45; partial_cmp(&amp;self, other: &amp;Self) &#45;&gt; Option&lt;Ordering&gt;</text>
<text text-anchor="start" x="473.5" y="-1158.3" font-family="Arial" font-size="14.00">&#45; cmp(&amp;self, other: &amp;Self) &#45;&gt; Ordering</text>
<text text-anchor="start" x="473.5" y="-1143.3" font-family="Arial" font-size="14.00">&#45; hash(&amp;self, state: &amp;mut H)</text>
<text text-anchor="start" x="473.5" y="-1128.3" font-family="Arial" font-size="14.00">&#45; add_assign(&amp;mut self, rhs: B)</text>
<text text-anchor="start" x="473.5" y="-1113.3" font-family="Arial" font-size="14.00">&#45; add(mut self, rhs: B) &#45;&gt; Commitment</text>
<text text-anchor="start" x="473.5" y="-1098.3" font-family="Arial" font-size="14.00">&#45; degree(&amp;self) &#45;&gt; usize</text>
<text text-anchor="start" x="473.5" y="-1083.3" font-family="Arial" font-size="14.00">&#45; evaluate(&amp;self, i: T) &#45;&gt; G1</text>
<text text-anchor="start" x="473.5" y="-1068.3" font-family="Arial" font-size="14.00">&#45; to_bytes(&amp;self) &#45;&gt; Vec&lt;u8&gt;</text>
<text text-anchor="start" x="473.5" y="-1053.3" font-family="Arial" font-size="14.00">&#45; from_bytes(bytes: Vec&lt;u8&gt;) &#45;&gt; FromBytesResult&lt;Self&gt;</text>
<text text-anchor="start" x="473.5" y="-1038.3" font-family="Arial" font-size="14.00">&#45; remove_zeros(&amp;mut self)</text>
<polygon fill="none" stroke="black" points="461,-1023 461,-1286 846,-1286 846,-1023 461,-1023"/>
</a>
</g>
</g>
<!-- ndCommitment&#45;&gt;ndPublicKeySet -->
<g id="edge5" class="edge"><title>ndCommitment&#45;&gt;ndPublicKeySet</title>
<path fill="none" stroke="black" stroke-dasharray="5,2" d="M479.949,-1018.92C467.239,-1007.17 454.937,-995.13 443.5,-983 394.767,-931.311 347.764,-868.717 309.364,-813.024"/>
<polygon fill="black" stroke="black" points="309.326,-812.969 302.635,-810.282 302.542,-803.071 309.234,-805.759 309.326,-812.969"/>
</g>
<!-- ndCommitment&#45;&gt;ndPoly -->
<g id="edge6" class="edge"><title>ndCommitment&#45;&gt;ndPoly</title>
<path fill="none" stroke="black" d="M653.5,-1018.72C653.5,-1010.46 653.5,-1001.99 653.5,-993.365"/>
<polygon fill="black" stroke="black" points="653.5,-983.167 658,-993.167 653.5,-988.167 653.5,-993.167 653.5,-993.167 653.5,-993.167 653.5,-988.167 649,-993.167 653.5,-983.167 653.5,-983.167"/>
</g>
<!-- ndBivarCommitment -->
<g id="node9" class="node"><title>ndBivarCommitment</title>
<g id="a_node9_8"><a xlink:href="https://github.com/maidsafe/blsttc/blob/master/src/poly.rs#:~:text=struct%20BivarCommitment" xlink:title="&lt;TABLE&gt;">
<polygon fill="lightblue" stroke="none" points="881.5,-768.5 881.5,-805.5 1264.5,-805.5 1264.5,-768.5 881.5,-768.5"/>
<polygon fill="none" stroke="black" points="881.5,-768.5 881.5,-805.5 1264.5,-805.5 1264.5,-768.5 881.5,-768.5"/>
<text text-anchor="start" x="1010.5" y="-784.3" font-family="Arial" font-weight="bold" font-size="14.00">BivarCommitment</text>
<polygon fill="white" stroke="none" points="881.5,-716.5 881.5,-768.5 1264.5,-768.5 1264.5,-716.5 881.5,-716.5"/>
<polygon fill="none" stroke="black" points="881.5,-716.5 881.5,-768.5 1264.5,-768.5 1264.5,-716.5 881.5,-716.5"/>
<text text-anchor="start" x="892.5" y="-746.3" font-family="Arial" font-size="14.00">&#45; degree: usize</text>
<text text-anchor="start" x="892.5" y="-731.3" font-family="Arial" font-size="14.00">&#45; coeff: Vec&lt;G1&gt;</text>
<polygon fill="white" stroke="none" points="881.5,-529.5 881.5,-716.5 1264.5,-716.5 1264.5,-529.5 881.5,-529.5"/>
<polygon fill="none" stroke="black" points="881.5,-529.5 881.5,-716.5 1264.5,-716.5 1264.5,-529.5 881.5,-529.5"/>
<text text-anchor="start" x="892.5" y="-694.3" font-family="Arial" font-size="14.00">&#45; hash(&amp;self, state: &amp;mut H)</text>
<text text-anchor="start" x="892.5" y="-679.3" font-family="Arial" font-size="14.00">&#45; partial_cmp(&amp;self, other: &amp;Self) &#45;&gt; Option&lt;Ordering&gt;</text>
<text text-anchor="start" x="892.5" y="-664.3" font-family="Arial" font-size="14.00">&#45; cmp(&amp;self, other: &amp;Self) &#45;&gt; Ordering</text>
<text text-anchor="start" x="892.5" y="-649.3" font-family="Arial" font-size="14.00">&#45; degree(&amp;self) &#45;&gt; usize</text>
<text text-anchor="start" x="892.5" y="-634.3" font-family="Arial" font-size="14.00">&#45; evaluate(&amp;self, x: T, y: T) &#45;&gt; G1</text>
<text text-anchor="start" x="892.5" y="-619.3" font-family="Arial" font-size="14.00">&#45; row(&amp;self, x: T) &#45;&gt; Commitment</text>
<text text-anchor="start" x="892.5" y="-604.3" font-family="Arial" font-size="14.00">&#45; powers(&amp;self, x: T) &#45;&gt; Vec&lt;Fr&gt;</text>
<text text-anchor="start" x="892.5" y="-589.3" font-family="Arial" font-size="14.00">&#45; to_bytes(&amp;self) &#45;&gt; Vec&lt;u8&gt;</text>
<text text-anchor="start" x="892.5" y="-574.3" font-family="Arial" font-size="14.00">&#45; from_bytes(bytes: Vec&lt;u8&gt;) &#45;&gt; FromBytesResult&lt;Self&gt;</text>
<text text-anchor="start" x="892.5" y="-559.3" font-family="Arial" font-size="14.00">&#45; serialize(&amp;self, s: S) &#45;&gt; Result&lt;S::Ok, S::Error&gt;</text>
<text text-anchor="start" x="892.5" y="-544.3" font-family="Arial" font-size="14.00">&#45; deserialize(d: D) &#45;&gt; Result&lt;Self, D::Error&gt;</text>
<polygon fill="none" stroke="black" points="880,-528.5 880,-806.5 1265,-806.5 1265,-528.5 880,-528.5"/>
</a>
</g>
</g>
<!-- ndCommitment&#45;&gt;ndBivarCommitment -->
<g id="edge7" class="edge"><title>ndCommitment&#45;&gt;ndBivarCommitment</title>
<path fill="none" stroke="black" d="M827.205,-1018.81C839.563,-1007.13 851.478,-995.129 862.5,-983 907.451,-933.535 949.86,-873.676 984.641,-819.512"/>
<polygon fill="black" stroke="black" points="990.156,-810.87 988.569,-821.721 987.466,-815.085 984.776,-819.3 984.776,-819.3 984.776,-819.3 987.466,-815.085 980.983,-816.879 990.156,-810.87 990.156,-810.87"/>
</g>
<!-- ndBivarCommitment&#45;&gt;ndBivarPoly -->
<g id="edge8" class="edge"><title>ndBivarCommitment&#45;&gt;ndBivarPoly</title>
<path fill="none" stroke="black" d="M1013.72,-524.458C988.165,-462.691 958.041,-389.891 931.434,-325.59"/>
<polygon fill="black" stroke="black" points="927.535,-316.167 935.516,-323.687 929.446,-320.787 931.358,-325.407 931.358,-325.407 931.358,-325.407 929.446,-320.787 927.2,-327.128 927.535,-316.167 927.535,-316.167"/>
</g>
<!-- ndWireBivarCommitment -->
<g id="node10" class="node"><title>ndWireBivarCommitment</title>
<g id="a_node10_9"><a xlink:href="https://github.com/maidsafe/blsttc/blob/master/src/serde_impl.rs#:~:text=struct%20WireBivarCommitment" xlink:title="&lt;TABLE&gt;">
<polygon fill="lightblue" stroke="none" points="1718.5,-1161.5 1718.5,-1198.5 1896.5,-1198.5 1896.5,-1161.5 1718.5,-1161.5"/>
<polygon fill="none" stroke="black" points="1718.5,-1161.5 1718.5,-1198.5 1896.5,-1198.5 1896.5,-1161.5 1718.5,-1161.5"/>
<text text-anchor="start" x="1729.5" y="-1177.3" font-family="Arial" font-weight="bold" font-size="14.00">WireBivarCommitment</text>
<polygon fill="white" stroke="none" points="1718.5,-1109.5 1718.5,-1161.5 1896.5,-1161.5 1896.5,-1109.5 1718.5,-1109.5"/>
<polygon fill="none" stroke="black" points="1718.5,-1109.5 1718.5,-1161.5 1896.5,-1161.5 1896.5,-1109.5 1718.5,-1109.5"/>
<text text-anchor="start" x="1729.5" y="-1139.3" font-family="Arial" font-size="14.00">&#45; degree: usize</text>
<text text-anchor="start" x="1729.5" y="-1124.3" font-family="Arial" font-size="14.00">&#45; coeff: Cow&lt;&#39;a, [G1]&gt;</text>
<polygon fill="none" stroke="black" points="1717.5,-1109 1717.5,-1200 1897.5,-1200 1897.5,-1109 1717.5,-1109"/>
</a>
</g>
</g>
</g>
</svg>
