<?xml version="1.0" encoding="UTF-8" standalone="no"?>
<!DOCTYPE svg PUBLIC "-//W3C//DTD SVG 1.1//EN"
 "http://www.w3.org/Graphics/SVG/1.1/DTD/svg11.dtd">
<!-- Generated by graphviz version 2.38.0 (20140413.2041)
 -->
<!-- Title: ml Pages: 1 -->
<svg width="3552pt" height="719pt"
 viewBox="0.00 0.00 3552.23 719.00" xmlns="http://www.w3.org/2000/svg" xmlns:xlink="http://www.w3.org/1999/xlink">
<g id="graph0" class="graph" transform="scale(1 1) rotate(0) translate(4 715)">
<title>ml</title>
<polygon fill="white" stroke="none" points="-4,4 -4,-715 3548.23,-715 3548.23,4 -4,4"/>
<!-- ndProofError -->
<g id="node1" class="node"><title>ndProofError</title>
<g id="a_node1_0"><a xlink:href="https://github.com/maidsafe/blst-bulletproofs/blob/master/src/errors.rs#:~:text=enum%20ProofError" xlink:title="&lt;TABLE&gt;">
<polygon fill="yellow" stroke="none" points="2253.73,-585.5 2253.73,-622.5 2351.73,-622.5 2351.73,-585.5 2253.73,-585.5"/>
<polygon fill="none" stroke="black" points="2253.73,-585.5 2253.73,-622.5 2351.73,-622.5 2351.73,-585.5 2253.73,-585.5"/>
<text text-anchor="start" x="2264.73" y="-601.3" font-family="Arial" font-weight="bold" font-size="14.00">ProofError</text>
<polygon fill="none" stroke="black" points="2252.73,-585 2252.73,-624 2352.73,-624 2352.73,-585 2252.73,-585"/>
</a>
</g>
</g>
<!-- ndR1CSError -->
<g id="node3" class="node"><title>ndR1CSError</title>
<g id="a_node3_1"><a xlink:href="https://github.com/maidsafe/blst-bulletproofs/blob/master/src/errors.rs#:~:text=enum%20R1CSError" xlink:title="&lt;TABLE&gt;">
<polygon fill="yellow" stroke="none" points="1397.73,-502.5 1397.73,-539.5 1495.73,-539.5 1495.73,-502.5 1397.73,-502.5"/>
<polygon fill="none" stroke="black" points="1397.73,-502.5 1397.73,-539.5 1495.73,-539.5 1495.73,-502.5 1397.73,-502.5"/>
<text text-anchor="start" x="1408.73" y="-518.3" font-family="Arial" font-weight="bold" font-size="14.00">R1CSError</text>
<polygon fill="none" stroke="black" points="1396.73,-502 1396.73,-541 1496.73,-541 1496.73,-502 1396.73,-502"/>
</a>
</g>
</g>
<!-- ndProofError&#45;&gt;ndR1CSError -->
<g id="edge1" class="edge"><title>ndProofError&#45;&gt;ndR1CSError</title>
<path fill="none" stroke="black" stroke-dasharray="5,2" d="M2244.26,-602.705C2114.92,-600.153 1795.14,-589.471 1531.73,-545 1526.28,-544.079 1520.66,-542.967 1515.04,-541.738"/>
<polygon fill="black" stroke="black" points="1504.95,-539.413 1515.71,-537.274 1509.83,-540.536 1514.7,-541.659 1514.7,-541.659 1514.7,-541.659 1509.83,-540.536 1513.69,-546.044 1504.95,-539.413 1504.95,-539.413"/>
</g>
<!-- ndInnerProductProof -->
<g id="node4" class="node"><title>ndInnerProductProof</title>
<g id="a_node4_2"><a xlink:href="https://github.com/maidsafe/blst-bulletproofs/blob/master/src/inner_product_proof.rs#:~:text=struct%20InnerProductProof" xlink:title="&lt;TABLE&gt;">
<polygon fill="lightblue" stroke="none" points="1951.73,-502.5 1951.73,-539.5 2103.73,-539.5 2103.73,-502.5 1951.73,-502.5"/>
<polygon fill="none" stroke="black" points="1951.73,-502.5 1951.73,-539.5 2103.73,-539.5 2103.73,-502.5 1951.73,-502.5"/>
<text text-anchor="start" x="1962.73" y="-518.3" font-family="Arial" font-weight="bold" font-size="14.00">InnerProductProof</text>
<polygon fill="none" stroke="black" points="1950.73,-502 1950.73,-541 2104.73,-541 2104.73,-502 1950.73,-502"/>
</a>
</g>
</g>
<!-- ndProofError&#45;&gt;ndInnerProductProof -->
<g id="edge2" class="edge"><title>ndProofError&#45;&gt;ndInnerProductProof</title>
<path fill="none" stroke="black" d="M2244.41,-586.322C2206.53,-575.163 2156.48,-560.422 2114.03,-547.918"/>
<polygon fill="black" stroke="black" points="2104.26,-545.039 2115.12,-543.548 2109.05,-546.452 2113.85,-547.865 2113.85,-547.865 2113.85,-547.865 2109.05,-546.452 2112.58,-552.182 2104.26,-545.039 2104.26,-545.039"/>
</g>
<!-- ndDealerAwaitingProofShares -->
<g id="node20" class="node"><title>ndDealerAwaitingProofShares</title>
<g id="a_node20_3"><a xlink:href="https://github.com/maidsafe/blst-bulletproofs/blob/master/src/range_proof/dealer.rs#:~:text=struct%20DealerAwaitingProofShares" xlink:title="&lt;TABLE&gt;">
<polygon fill="lightblue" stroke="none" points="2204.73,-336.5 2204.73,-373.5 2419.73,-373.5 2419.73,-336.5 2204.73,-336.5"/>
<polygon fill="none" stroke="black" points="2204.73,-336.5 2204.73,-373.5 2419.73,-373.5 2419.73,-336.5 2204.73,-336.5"/>
<text text-anchor="start" x="2215.73" y="-352.3" font-family="Arial" font-weight="bold" font-size="14.00">DealerAwaitingProofShares</text>
<polygon fill="none" stroke="black" points="2203.23,-336 2203.23,-375 2420.23,-375 2420.23,-336 2203.23,-336"/>
</a>
</g>
</g>
<!-- ndProofError&#45;&gt;ndDealerAwaitingProofShares -->
<g id="edge3" class="edge"><title>ndProofError&#45;&gt;ndDealerAwaitingProofShares</title>
<path fill="none" stroke="black" d="M2315.42,-580.719C2333.59,-545.13 2363.11,-474.277 2346.73,-415 2344.14,-405.617 2339.6,-396.225 2334.63,-387.797"/>
<polygon fill="black" stroke="black" points="2329.15,-379.078 2338.28,-385.145 2331.81,-383.31 2334.47,-387.542 2334.47,-387.542 2334.47,-387.542 2331.81,-383.31 2330.66,-389.938 2329.15,-379.078 2329.15,-379.078"/>
</g>
<!-- ndRangeProof -->
<g id="node21" class="node"><title>ndRangeProof</title>
<g id="a_node21_4"><a xlink:href="https://github.com/maidsafe/blst-bulletproofs/blob/master/src/range_proof/mod.rs#:~:text=struct%20RangeProof" xlink:title="&lt;TABLE&gt;">
<polygon fill="lightblue" stroke="none" points="2224.73,-419.5 2224.73,-456.5 2329.73,-456.5 2329.73,-419.5 2224.73,-419.5"/>
<polygon fill="none" stroke="black" points="2224.73,-419.5 2224.73,-456.5 2329.73,-456.5 2329.73,-419.5 2224.73,-419.5"/>
<text text-anchor="start" x="2235.73" y="-435.3" font-family="Arial" font-weight="bold" font-size="14.00">RangeProof</text>
<polygon fill="none" stroke="black" points="2223.23,-419 2223.23,-458 2330.23,-458 2330.23,-419 2223.23,-419"/>
</a>
</g>
</g>
<!-- ndProofError&#45;&gt;ndRangeProof -->
<g id="edge4" class="edge"><title>ndProofError&#45;&gt;ndRangeProof</title>
<path fill="none" stroke="black" d="M2299.12,-580.697C2294.66,-552.546 2287.03,-504.465 2281.94,-472.341"/>
<polygon fill="black" stroke="black" points="2280.32,-462.11 2286.33,-471.282 2281.1,-467.048 2281.88,-471.986 2281.88,-471.986 2281.88,-471.986 2281.1,-467.048 2277.44,-472.691 2280.32,-462.11 2280.32,-462.11"/>
</g>
<!-- ndMPCError -->
<g id="node2" class="node"><title>ndMPCError</title>
<g id="a_node2_5"><a xlink:href="https://github.com/maidsafe/blst-bulletproofs/blob/master/src/errors.rs#:~:text=enum%20MPCError" xlink:title="&lt;TABLE&gt;">
<polygon fill="yellow" stroke="none" points="2524.73,-668.5 2524.73,-705.5 2616.73,-705.5 2616.73,-668.5 2524.73,-668.5"/>
<polygon fill="none" stroke="black" points="2524.73,-668.5 2524.73,-705.5 2616.73,-705.5 2616.73,-668.5 2524.73,-668.5"/>
<text text-anchor="start" x="2535.73" y="-684.3" font-family="Arial" font-weight="bold" font-size="14.00">MPCError</text>
<polygon fill="none" stroke="black" points="2523.73,-668 2523.73,-707 2617.73,-707 2617.73,-668 2523.73,-668"/>
</a>
</g>
</g>
<!-- ndMPCError&#45;&gt;ndProofError -->
<g id="edge5" class="edge"><title>ndMPCError&#45;&gt;ndProofError</title>
<path fill="none" stroke="black" stroke-dasharray="5,2" d="M2515.53,-669.815C2474.18,-657.316 2417.29,-640.124 2372.74,-626.659"/>
<polygon fill="black" stroke="black" points="2372.6,-626.617 2365.7,-628.71 2361.11,-623.145 2368.02,-621.052 2372.6,-626.617"/>
</g>
<!-- ndDealer -->
<g id="node17" class="node"><title>ndDealer</title>
<g id="a_node17_6"><a xlink:href="https://github.com/maidsafe/blst-bulletproofs/blob/master/src/range_proof/dealer.rs#:~:text=struct%20Dealer" xlink:title="&lt;TABLE&gt;">
<polygon fill="lightblue" stroke="none" points="2458.73,-87.5 2458.73,-124.5 2526.73,-124.5 2526.73,-87.5 2458.73,-87.5"/>
<polygon fill="none" stroke="black" points="2458.73,-87.5 2458.73,-124.5 2526.73,-124.5 2526.73,-87.5 2458.73,-87.5"/>
<text text-anchor="start" x="2469.73" y="-103.3" font-family="Arial" font-weight="bold" font-size="14.00">Dealer</text>
<polygon fill="none" stroke="black" points="2457.73,-87 2457.73,-126 2527.73,-126 2527.73,-87 2457.73,-87"/>
</a>
</g>
</g>
<!-- ndMPCError&#45;&gt;ndDealer -->
<g id="edge6" class="edge"><title>ndMPCError&#45;&gt;ndDealer</title>
<path fill="none" stroke="black" d="M2613.88,-663.837C2658.82,-636.768 2722.73,-586.942 2722.73,-522.5 2722.73,-522.5 2722.73,-522.5 2722.73,-437.5 2722.73,-303.328 2681.46,-264.848 2590.73,-166 2577.96,-152.082 2561.11,-140.416 2544.99,-131.256"/>
<polygon fill="black" stroke="black" points="2536.14,-126.427 2547.07,-127.267 2540.52,-128.822 2544.91,-131.217 2544.91,-131.217 2544.91,-131.217 2540.52,-128.822 2542.76,-135.167 2536.14,-126.427 2536.14,-126.427"/>
</g>
<!-- ndDealerAwaitingBitCommitments -->
<g id="node18" class="node"><title>ndDealerAwaitingBitCommitments</title>
<g id="a_node18_7"><a xlink:href="https://github.com/maidsafe/blst-bulletproofs/blob/master/src/range_proof/dealer.rs#:~:text=struct%20DealerAwaitingBitCommitments" xlink:title="&lt;TABLE&gt;">
<polygon fill="lightblue" stroke="none" points="2255.73,-170.5 2255.73,-207.5 2497.73,-207.5 2497.73,-170.5 2255.73,-170.5"/>
<polygon fill="none" stroke="black" points="2255.73,-170.5 2255.73,-207.5 2497.73,-207.5 2497.73,-170.5 2255.73,-170.5"/>
<text text-anchor="start" x="2266.73" y="-186.3" font-family="Arial" font-weight="bold" font-size="14.00">DealerAwaitingBitCommitments</text>
<polygon fill="none" stroke="black" points="2254.73,-170 2254.73,-209 2498.73,-209 2498.73,-170 2254.73,-170"/>
</a>
</g>
</g>
<!-- ndMPCError&#45;&gt;ndDealerAwaitingBitCommitments -->
<g id="edge7" class="edge"><title>ndMPCError&#45;&gt;ndDealerAwaitingBitCommitments</title>
<path fill="none" stroke="black" d="M2581.98,-663.753C2586.6,-653.161 2591.42,-640.223 2593.73,-628 2611.44,-534.58 2606.59,-504.225 2573.73,-415 2544.81,-336.445 2543.8,-308.32 2484.73,-249 2472.47,-236.684 2457.07,-226.281 2441.77,-217.821"/>
<polygon fill="black" stroke="black" points="2432.8,-213.064 2443.74,-213.773 2437.22,-215.406 2441.63,-217.748 2441.63,-217.748 2441.63,-217.748 2437.22,-215.406 2439.53,-221.724 2432.8,-213.064 2432.8,-213.064"/>
</g>
<!-- ndDealerAwaitingPolyCommitments -->
<g id="node19" class="node"><title>ndDealerAwaitingPolyCommitments</title>
<g id="a_node19_8"><a xlink:href="https://github.com/maidsafe/blst-bulletproofs/blob/master/src/range_proof/dealer.rs#:~:text=struct%20DealerAwaitingPolyCommitments" xlink:title="&lt;TABLE&gt;">
<polygon fill="lightblue" stroke="none" points="2212.73,-253.5 2212.73,-290.5 2466.73,-290.5 2466.73,-253.5 2212.73,-253.5"/>
<polygon fill="none" stroke="black" points="2212.73,-253.5 2212.73,-290.5 2466.73,-290.5 2466.73,-253.5 2212.73,-253.5"/>
<text text-anchor="start" x="2223.73" y="-269.3" font-family="Arial" font-weight="bold" font-size="14.00">DealerAwaitingPolyCommitments</text>
<polygon fill="none" stroke="black" points="2211.73,-253 2211.73,-292 2467.73,-292 2467.73,-253 2211.73,-253"/>
</a>
</g>
</g>
<!-- ndMPCError&#45;&gt;ndDealerAwaitingPolyCommitments -->
<g id="edge8" class="edge"><title>ndMPCError&#45;&gt;ndDealerAwaitingPolyCommitments</title>
<path fill="none" stroke="black" d="M2574.4,-663.634C2581.08,-615.065 2591.08,-499.177 2550.73,-415 2544.89,-402.806 2472.9,-339.622 2461.73,-332 2444.23,-320.053 2423.9,-309.259 2404.93,-300.291"/>
<polygon fill="black" stroke="black" points="2395.73,-296.038 2406.7,-296.154 2400.27,-298.138 2404.81,-300.238 2404.81,-300.238 2404.81,-300.238 2400.27,-298.138 2402.92,-304.322 2395.73,-296.038 2395.73,-296.038"/>
</g>
<!-- ndParty -->
<g id="node27" class="node"><title>ndParty</title>
<g id="a_node27_9"><a xlink:href="https://github.com/maidsafe/blst-bulletproofs/blob/master/src/range_proof/party.rs#:~:text=struct%20Party" xlink:title="&lt;TABLE&gt;">
<polygon fill="lightblue" stroke="none" points="2403.73,-4.5 2403.73,-41.5 2462.73,-41.5 2462.73,-4.5 2403.73,-4.5"/>
<polygon fill="none" stroke="black" points="2403.73,-4.5 2403.73,-41.5 2462.73,-41.5 2462.73,-4.5 2403.73,-4.5"/>
<text text-anchor="start" x="2414.73" y="-20.3" font-family="Arial" font-weight="bold" font-size="14.00">Party</text>
<polygon fill="none" stroke="black" points="2402.23,-4 2402.23,-43 2463.23,-43 2463.23,-4 2402.23,-4"/>
</a>
</g>
</g>
<!-- ndMPCError&#45;&gt;ndParty -->
<g id="edge9" class="edge"><title>ndMPCError&#45;&gt;ndParty</title>
<path fill="none" stroke="black" d="M2626.03,-665.107C2655.12,-653.1 2687.12,-638.475 2698.73,-628 2739.11,-591.566 2760.73,-576.886 2760.73,-522.5 2760.73,-522.5 2760.73,-522.5 2760.73,-188.5 2760.73,-65.1273 2572.79,-34.5609 2481.44,-26.9906"/>
<polygon fill="black" stroke="black" points="2471.32,-26.2138 2481.64,-22.4928 2476.31,-26.5967 2481.3,-26.9796 2481.3,-26.9796 2481.3,-26.9796 2476.31,-26.5967 2480.95,-31.4664 2471.32,-26.2138 2471.32,-26.2138"/>
</g>
<!-- ndPartyAwaitingPosition -->
<g id="node28" class="node"><title>ndPartyAwaitingPosition</title>
<g id="a_node28_10"><a xlink:href="https://github.com/maidsafe/blst-bulletproofs/blob/master/src/range_proof/party.rs#:~:text=struct%20PartyAwaitingPosition" xlink:title="&lt;TABLE&gt;">
<polygon fill="lightblue" stroke="none" points="2093.73,-87.5 2093.73,-124.5 2269.73,-124.5 2269.73,-87.5 2093.73,-87.5"/>
<polygon fill="none" stroke="black" points="2093.73,-87.5 2093.73,-124.5 2269.73,-124.5 2269.73,-87.5 2093.73,-87.5"/>
<text text-anchor="start" x="2104.73" y="-103.3" font-family="Arial" font-weight="bold" font-size="14.00">PartyAwaitingPosition</text>
<polygon fill="none" stroke="black" points="2092.73,-87 2092.73,-126 2270.73,-126 2270.73,-87 2092.73,-87"/>
</a>
</g>
</g>
<!-- ndMPCError&#45;&gt;ndPartyAwaitingPosition -->
<g id="edge10" class="edge"><title>ndMPCError&#45;&gt;ndPartyAwaitingPosition</title>
<path fill="none" stroke="black" d="M2515.59,-685.955C2142.43,-681.915 1.73429,-653.048 1.73429,-522.5 1.73429,-522.5 1.73429,-522.5 1.73429,-437.5 1.73429,-350.593 -13.6225,-303.917 53.7343,-249 211.279,-120.551 1664.4,-108.35 2074.45,-107.478"/>
<polygon fill="black" stroke="black" points="2084.53,-107.458 2074.54,-111.978 2079.53,-107.468 2074.53,-107.478 2074.53,-107.478 2074.53,-107.478 2079.53,-107.468 2074.52,-102.978 2084.53,-107.458 2084.53,-107.458"/>
</g>
<!-- ndPartyAwaitingPolyChallenge -->
<g id="node30" class="node"><title>ndPartyAwaitingPolyChallenge</title>
<g id="a_node30_11"><a xlink:href="https://github.com/maidsafe/blst-bulletproofs/blob/master/src/range_proof/party.rs#:~:text=struct%20PartyAwaitingPolyChallenge" xlink:title="&lt;TABLE&gt;">
<polygon fill="lightblue" stroke="none" points="1710.73,-253.5 1710.73,-290.5 1929.73,-290.5 1929.73,-253.5 1710.73,-253.5"/>
<polygon fill="none" stroke="black" points="1710.73,-253.5 1710.73,-290.5 1929.73,-290.5 1929.73,-253.5 1710.73,-253.5"/>
<text text-anchor="start" x="1721.73" y="-269.3" font-family="Arial" font-weight="bold" font-size="14.00">PartyAwaitingPolyChallenge</text>
<polygon fill="none" stroke="black" points="1709.23,-253 1709.23,-292 1930.23,-292 1930.23,-253 1709.23,-253"/>
</a>
</g>
</g>
<!-- ndMPCError&#45;&gt;ndPartyAwaitingPolyChallenge -->
<g id="edge11" class="edge"><title>ndMPCError&#45;&gt;ndPartyAwaitingPolyChallenge</title>
<path fill="none" stroke="black" d="M2515.7,-685.292C2188.94,-677.557 512.977,-629.839 367.734,-462 354.065,-446.204 354.963,-431.53 367.734,-415 406.487,-364.84 446.65,-401.952 505.734,-379 547.431,-362.802 551.584,-343.793 594.734,-332 798.017,-276.441 1419.38,-271.826 1690.71,-272.59"/>
<polygon fill="black" stroke="black" points="1701,-272.622 1690.99,-277.091 1696,-272.606 1691,-272.591 1691,-272.591 1691,-272.591 1696,-272.606 1691.02,-268.091 1701,-272.622 1701,-272.622"/>
</g>
<!-- ndProver -->
<g id="node5" class="node"><title>ndProver</title>
<g id="a_node5_12"><a xlink:href="https://github.com/maidsafe/blst-bulletproofs/blob/master/src/r1cs/prover.rs#:~:text=struct%20Prover" xlink:title="&lt;TABLE&gt;">
<polygon fill="lightblue" stroke="none" points="1078.73,-336.5 1078.73,-373.5 1148.73,-373.5 1148.73,-336.5 1078.73,-336.5"/>
<polygon fill="none" stroke="black" points="1078.73,-336.5 1078.73,-373.5 1148.73,-373.5 1148.73,-336.5 1078.73,-336.5"/>
<text text-anchor="start" x="1089.73" y="-352.3" font-family="Arial" font-weight="bold" font-size="14.00">Prover</text>
<polygon fill="none" stroke="black" points="1077.73,-336 1077.73,-375 1149.73,-375 1149.73,-336 1077.73,-336"/>
</a>
</g>
</g>
<!-- ndR1CSError&#45;&gt;ndProver -->
<g id="edge12" class="edge"><title>ndR1CSError&#45;&gt;ndProver</title>
<path fill="none" stroke="black" d="M1447.29,-497.629C1446.56,-473.53 1441.46,-436.194 1418.73,-415 1383.07,-381.746 1245.54,-366.279 1167.9,-360.065"/>
<polygon fill="black" stroke="black" points="1157.82,-359.284 1168.13,-355.57 1162.8,-359.67 1167.79,-360.057 1167.79,-360.057 1167.79,-360.057 1162.8,-359.67 1167.44,-364.543 1157.82,-359.284 1157.82,-359.284"/>
</g>
<!-- ndRandomizingProver -->
<g id="node7" class="node"><title>ndRandomizingProver</title>
<g id="a_node7_13"><a xlink:href="https://github.com/maidsafe/blst-bulletproofs/blob/master/src/r1cs/prover.rs#:~:text=struct%20RandomizingProver" xlink:title="&lt;TABLE&gt;">
<polygon fill="lightblue" stroke="none" points="457.734,-253.5 457.734,-290.5 618.734,-290.5 618.734,-253.5 457.734,-253.5"/>
<polygon fill="none" stroke="black" points="457.734,-253.5 457.734,-290.5 618.734,-290.5 618.734,-253.5 457.734,-253.5"/>
<text text-anchor="start" x="468.734" y="-269.3" font-family="Arial" font-weight="bold" font-size="14.00">RandomizingProver</text>
<polygon fill="none" stroke="black" points="456.234,-253 456.234,-292 619.234,-292 619.234,-253 456.234,-253"/>
</a>
</g>
</g>
<!-- ndR1CSError&#45;&gt;ndRandomizingProver -->
<g id="edge13" class="edge"><title>ndR1CSError&#45;&gt;ndRandomizingProver</title>
<path fill="none" stroke="black" d="M1493.22,-497.885C1506.87,-488.76 1520.15,-476.827 1527.73,-462 1554.04,-410.557 1567.37,-374.043 1527.73,-332 1497.54,-299.964 883.472,-281.773 637.923,-275.756"/>
<polygon fill="black" stroke="black" points="627.573,-275.504 637.679,-271.249 632.571,-275.626 637.57,-275.748 637.57,-275.748 637.57,-275.748 632.571,-275.626 637.46,-280.246 627.573,-275.504 627.573,-275.504"/>
</g>
<!-- ndVerifier -->
<g id="node8" class="node"><title>ndVerifier</title>
<g id="a_node8_14"><a xlink:href="https://github.com/maidsafe/blst-bulletproofs/blob/master/src/r1cs/verifier.rs#:~:text=struct%20Verifier" xlink:title="&lt;TABLE&gt;">
<polygon fill="lightblue" stroke="none" points="612.734,-336.5 612.734,-373.5 684.734,-373.5 684.734,-336.5 612.734,-336.5"/>
<polygon fill="none" stroke="black" points="612.734,-336.5 612.734,-373.5 684.734,-373.5 684.734,-336.5 612.734,-336.5"/>
<text text-anchor="start" x="623.734" y="-352.3" font-family="Arial" font-weight="bold" font-size="14.00">Verifier</text>
<polygon fill="none" stroke="black" points="611.734,-336 611.734,-375 685.734,-375 685.734,-336 611.734,-336"/>
</a>
</g>
</g>
<!-- ndR1CSError&#45;&gt;ndVerifier -->
<g id="edge14" class="edge"><title>ndR1CSError&#45;&gt;ndVerifier</title>
<path fill="none" stroke="black" d="M1388.56,-518.832C1195.58,-513.019 587.146,-492.345 558.734,-462 544.457,-446.752 548.771,-433.36 558.734,-415 566.758,-400.215 580.313,-388.583 594.5,-379.72"/>
<polygon fill="black" stroke="black" points="603.372,-374.555 596.994,-383.475 599.051,-377.07 594.73,-379.586 594.73,-379.586 594.73,-379.586 599.051,-377.07 592.466,-375.697 603.372,-374.555 603.372,-374.555"/>
</g>
<!-- ndRandomizingVerifier -->
<g id="node9" class="node"><title>ndRandomizingVerifier</title>
<g id="a_node9_15"><a xlink:href="https://github.com/maidsafe/blst-bulletproofs/blob/master/src/r1cs/verifier.rs#:~:text=struct%20RandomizingVerifier" xlink:title="&lt;TABLE&gt;">
<polygon fill="lightblue" stroke="none" points="72.7343,-253.5 72.7343,-290.5 235.734,-290.5 235.734,-253.5 72.7343,-253.5"/>
<polygon fill="none" stroke="black" points="72.7343,-253.5 72.7343,-290.5 235.734,-290.5 235.734,-253.5 72.7343,-253.5"/>
<text text-anchor="start" x="83.7343" y="-269.3" font-family="Arial" font-weight="bold" font-size="14.00">RandomizingVerifier</text>
<polygon fill="none" stroke="black" points="71.2343,-253 71.2343,-292 236.234,-292 236.234,-253 71.2343,-253"/>
</a>
</g>
</g>
<!-- ndR1CSError&#45;&gt;ndRandomizingVerifier -->
<g id="edge15" class="edge"><title>ndR1CSError&#45;&gt;ndRandomizingVerifier</title>
<path fill="none" stroke="black" d="M1453.39,-497.831C1458.72,-474.6 1462.69,-438.629 1444.73,-415 1366.72,-312.334 1293.83,-353.786 1166.73,-332 847.441,-277.266 762.02,-316.75 438.734,-296 377.534,-292.072 309.018,-286.694 254.506,-282.181"/>
<polygon fill="black" stroke="black" points="244.495,-281.349 254.834,-277.693 249.478,-281.763 254.461,-282.177 254.461,-282.177 254.461,-282.177 249.478,-281.763 254.088,-286.662 244.495,-281.349 244.495,-281.349"/>
</g>
<!-- ndR1CSProof -->
<g id="node13" class="node"><title>ndR1CSProof</title>
<g id="a_node13_16"><a xlink:href="https://github.com/maidsafe/blst-bulletproofs/blob/master/src/r1cs/proof.rs#:~:text=struct%20R1CSProof" xlink:title="&lt;TABLE&gt;">
<polygon fill="lightblue" stroke="none" points="1151.73,-419.5 1151.73,-456.5 1250.73,-456.5 1250.73,-419.5 1151.73,-419.5"/>
<polygon fill="none" stroke="black" points="1151.73,-419.5 1151.73,-456.5 1250.73,-456.5 1250.73,-419.5 1151.73,-419.5"/>
<text text-anchor="start" x="1162.73" y="-435.3" font-family="Arial" font-weight="bold" font-size="14.00">R1CSProof</text>
<polygon fill="none" stroke="black" points="1150.23,-419 1150.23,-458 1251.23,-458 1251.23,-419 1150.23,-419"/>
</a>
</g>
</g>
<!-- ndR1CSError&#45;&gt;ndR1CSProof -->
<g id="edge16" class="edge"><title>ndR1CSError&#45;&gt;ndR1CSProof</title>
<path fill="none" stroke="black" d="M1388.44,-501.304C1352.7,-489.537 1306.78,-474.416 1269.3,-462.076"/>
<polygon fill="black" stroke="black" points="1259.47,-458.839 1270.37,-457.692 1264.22,-460.403 1268.97,-461.966 1268.97,-461.966 1268.97,-461.966 1264.22,-460.403 1267.56,-466.241 1259.47,-458.839 1259.47,-458.839"/>
</g>
<!-- ndInnerProductProof&#45;&gt;ndR1CSProof -->
<g id="edge17" class="edge"><title>ndInnerProductProof&#45;&gt;ndR1CSProof</title>
<path fill="none" stroke="black" d="M1942.61,-514.211C1765.41,-501.029 1368.21,-470.98 1306.73,-462 1295.27,-460.325 1283.18,-458.153 1271.44,-455.821"/>
<polygon fill="black" stroke="black" points="1271.12,-455.755 1264.44,-458.469 1259.36,-453.346 1266.05,-450.632 1271.12,-455.755"/>
</g>
<!-- ndInnerProductProof&#45;&gt;ndRangeProof -->
<g id="edge18" class="edge"><title>ndInnerProductProof&#45;&gt;ndRangeProof</title>
<path fill="none" stroke="black" d="M2097.09,-497.937C2130.18,-487.175 2169.77,-474.296 2203.35,-463.371"/>
<polygon fill="black" stroke="black" points="2203.55,-463.307 2208.02,-457.647 2214.96,-459.595 2210.49,-465.255 2203.55,-463.307"/>
</g>
<!-- ndProver&#45;&gt;ndRandomizingProver -->
<g id="edge19" class="edge"><title>ndProver&#45;&gt;ndRandomizingProver</title>
<path fill="none" stroke="black" d="M1069.49,-348.279C978.067,-335.422 766.259,-305.636 639.277,-287.779"/>
<polygon fill="black" stroke="black" points="639.143,-287.761 632.644,-290.886 627.26,-286.089 633.758,-282.964 639.143,-287.761"/>
</g>
<!-- ndSecrets -->
<g id="node6" class="node"><title>ndSecrets</title>
<g id="a_node6_17"><a xlink:href="https://github.com/maidsafe/blst-bulletproofs/blob/master/src/r1cs/prover.rs#:~:text=struct%20Secrets" xlink:title="&lt;TABLE&gt;">
<polygon fill="lightblue" stroke="none" points="1324.73,-419.5 1324.73,-456.5 1400.73,-456.5 1400.73,-419.5 1324.73,-419.5"/>
<polygon fill="none" stroke="black" points="1324.73,-419.5 1324.73,-456.5 1400.73,-456.5 1400.73,-419.5 1324.73,-419.5"/>
<text text-anchor="start" x="1335.73" y="-435.3" font-family="Arial" font-weight="bold" font-size="14.00">Secrets</text>
<polygon fill="none" stroke="black" points="1323.73,-419 1323.73,-458 1401.73,-458 1401.73,-419 1323.73,-419"/>
</a>
</g>
</g>
<!-- ndSecrets&#45;&gt;ndProver -->
<g id="edge20" class="edge"><title>ndSecrets&#45;&gt;ndProver</title>
<path fill="none" stroke="black" d="M1315.53,-419.815C1310.88,-418.155 1306.22,-416.525 1301.73,-415 1257.64,-400.017 1207.22,-384.411 1169.71,-373.09"/>
<polygon fill="black" stroke="black" points="1169.5,-373.027 1162.6,-375.129 1158.01,-369.571 1164.9,-367.468 1169.5,-373.027"/>
</g>
<!-- ndVerifier&#45;&gt;ndRandomizingVerifier -->
<g id="edge21" class="edge"><title>ndVerifier&#45;&gt;ndRandomizingVerifier</title>
<path fill="none" stroke="black" d="M603.494,-347.097C525.359,-334.311 363.259,-307.786 256.517,-290.319"/>
<polygon fill="black" stroke="black" points="256.273,-290.279 249.706,-293.258 244.43,-288.341 250.998,-285.363 256.273,-290.279"/>
</g>
<!-- ndConstraintSystem -->
<g id="node10" class="node"><title>ndConstraintSystem</title>
<g id="a_node10_18"><a xlink:href="https://github.com/maidsafe/blst-bulletproofs/blob/master/src/r1cs/constraint_system.rs#:~:text=trait%20ConstraintSystem" xlink:title="&lt;TABLE&gt;">
<polygon fill="lightgreen" stroke="none" points="648.734,-419.5 648.734,-456.5 795.734,-456.5 795.734,-419.5 648.734,-419.5"/>
<polygon fill="none" stroke="black" points="648.734,-419.5 648.734,-456.5 795.734,-456.5 795.734,-419.5 648.734,-419.5"/>
<text text-anchor="start" x="659.734" y="-435.3" font-family="Arial" font-weight="bold" font-size="14.00">ConstraintSystem</text>
<polygon fill="none" stroke="black" points="647.234,-419 647.234,-458 796.234,-458 796.234,-419 647.234,-419"/>
</a>
</g>
</g>
<!-- ndConstraintSystem&#45;&gt;ndProver -->
<g id="edge22" class="edge"><title>ndConstraintSystem&#45;&gt;ndProver</title>
<path fill="none" stroke="black" stroke-dasharray="5,2" d="M804.519,-416.843C807.289,-416.212 810.033,-415.596 812.734,-415 898.732,-396.024 999.278,-377.144 1059.66,-366.16"/>
<polygon fill="none" stroke="black" points="1060.51,-369.563 1069.72,-364.335 1059.26,-362.676 1060.51,-369.563"/>
</g>
<!-- ndConstraintSystem&#45;&gt;ndRandomizingProver -->
<g id="edge23" class="edge"><title>ndConstraintSystem&#45;&gt;ndRandomizingProver</title>
<path fill="none" stroke="black" stroke-dasharray="5,2" d="M723.825,-414.568C724.676,-391.123 722.252,-354.979 702.734,-332 685.886,-312.163 661.846,-299.052 637.313,-290.386"/>
<polygon fill="none" stroke="black" points="638.125,-286.969 627.532,-287.165 635.935,-293.617 638.125,-286.969"/>
</g>
<!-- ndConstraintSystem&#45;&gt;ndVerifier -->
<g id="edge24" class="edge"><title>ndConstraintSystem&#45;&gt;ndVerifier</title>
<path fill="none" stroke="black" stroke-dasharray="5,2" d="M701.4,-414.937C693.555,-406.233 684.463,-396.144 676.063,-386.824"/>
<polygon fill="none" stroke="black" points="678.508,-384.308 669.213,-379.223 673.308,-388.995 678.508,-384.308"/>
</g>
<!-- ndConstraintSystem&#45;&gt;ndRandomizingVerifier -->
<g id="edge25" class="edge"><title>ndConstraintSystem&#45;&gt;ndRandomizingVerifier</title>
<path fill="none" stroke="black" stroke-dasharray="5,2" d="M639.009,-429.965C487.743,-416.013 181.183,-386.861 172.734,-379 153.239,-360.861 149.601,-330.04 150.184,-306.381"/>
<polygon fill="none" stroke="black" points="153.696,-306.25 150.708,-296.086 146.705,-305.895 153.696,-306.25"/>
</g>
<!-- ndRandomizableConstraintSystem -->
<g id="node11" class="node"><title>ndRandomizableConstraintSystem</title>
<g id="a_node11_19"><a xlink:href="https://github.com/maidsafe/blst-bulletproofs/blob/master/src/r1cs/constraint_system.rs#:~:text=trait%20RandomizableConstraintSystem" xlink:title="&lt;TABLE&gt;">
<polygon fill="lightgreen" stroke="none" points="831.734,-419.5 831.734,-456.5 1076.73,-456.5 1076.73,-419.5 831.734,-419.5"/>
<polygon fill="none" stroke="black" points="831.734,-419.5 831.734,-456.5 1076.73,-456.5 1076.73,-419.5 831.734,-419.5"/>
<text text-anchor="start" x="842.734" y="-435.3" font-family="Arial" font-weight="bold" font-size="14.00">RandomizableConstraintSystem</text>
<polygon fill="none" stroke="black" points="830.234,-419 830.234,-458 1077.23,-458 1077.23,-419 830.234,-419"/>
</a>
</g>
</g>
<!-- ndRandomizableConstraintSystem&#45;&gt;ndProver -->
<g id="edge26" class="edge"><title>ndRandomizableConstraintSystem&#45;&gt;ndProver</title>
<path fill="none" stroke="black" stroke-dasharray="5,2" d="M998.303,-414.937C1017.63,-405.154 1040.41,-393.621 1060.61,-383.396"/>
<polygon fill="none" stroke="black" points="1062.34,-386.441 1069.68,-378.802 1059.18,-380.196 1062.34,-386.441"/>
</g>
<!-- ndRandomizableConstraintSystem&#45;&gt;ndVerifier -->
<g id="edge27" class="edge"><title>ndRandomizableConstraintSystem&#45;&gt;ndVerifier</title>
<path fill="none" stroke="black" stroke-dasharray="5,2" d="M868.775,-414.937C816.062,-400.938 749.857,-383.356 703.905,-371.152"/>
<polygon fill="none" stroke="black" points="704.694,-367.74 694.131,-368.556 702.897,-374.506 704.694,-367.74"/>
</g>
<!-- ndRandomizedConstraintSystem -->
<g id="node12" class="node"><title>ndRandomizedConstraintSystem</title>
<g id="a_node12_20"><a xlink:href="https://github.com/maidsafe/blst-bulletproofs/blob/master/src/r1cs/constraint_system.rs#:~:text=trait%20RandomizedConstraintSystem" xlink:title="&lt;TABLE&gt;">
<polygon fill="lightgreen" stroke="none" points="191.734,-336.5 191.734,-373.5 424.734,-373.5 424.734,-336.5 191.734,-336.5"/>
<polygon fill="none" stroke="black" points="191.734,-336.5 191.734,-373.5 424.734,-373.5 424.734,-336.5 191.734,-336.5"/>
<text text-anchor="start" x="202.734" y="-352.3" font-family="Arial" font-weight="bold" font-size="14.00">RandomizedConstraintSystem</text>
<polygon fill="none" stroke="black" points="190.234,-336 190.234,-375 425.234,-375 425.234,-336 190.234,-336"/>
</a>
</g>
</g>
<!-- ndRandomizedConstraintSystem&#45;&gt;ndRandomizingProver -->
<g id="edge28" class="edge"><title>ndRandomizedConstraintSystem&#45;&gt;ndRandomizingProver</title>
<path fill="none" stroke="black" stroke-dasharray="5,2" d="M371.802,-331.937C400.468,-321.842 434.424,-309.883 464.129,-299.422"/>
<polygon fill="none" stroke="black" points="465.342,-302.705 473.612,-296.082 463.017,-296.103 465.342,-302.705"/>
</g>
<!-- ndRandomizedConstraintSystem&#45;&gt;ndRandomizingVerifier -->
<g id="edge29" class="edge"><title>ndRandomizedConstraintSystem&#45;&gt;ndRandomizingVerifier</title>
<path fill="none" stroke="black" stroke-dasharray="5,2" d="M264.837,-331.937C246.474,-322.279 224.869,-310.915 205.616,-300.789"/>
<polygon fill="none" stroke="black" points="207.148,-297.64 196.669,-296.082 203.89,-303.835 207.148,-297.64"/>
</g>
<!-- ndR1CSProof&#45;&gt;ndProver -->
<g id="edge30" class="edge"><title>ndR1CSProof&#45;&gt;ndProver</title>
<path fill="none" stroke="black" d="M1176.5,-414.937C1166.96,-406.059 1155.88,-395.74 1145.7,-386.266"/>
<polygon fill="black" stroke="black" points="1138.14,-379.223 1148.53,-382.744 1141.8,-382.63 1145.46,-386.037 1145.46,-386.037 1145.46,-386.037 1141.8,-382.63 1142.39,-389.331 1138.14,-379.223 1138.14,-379.223"/>
</g>
<!-- ndR1CSProof&#45;&gt;ndVerifier -->
<g id="edge31" class="edge"><title>ndR1CSProof&#45;&gt;ndVerifier</title>
<path fill="none" stroke="black" stroke-dasharray="5,2" d="M1142.02,-424.309C1126.38,-421.026 1109.45,-417.682 1093.73,-415 954.004,-391.16 788.156,-371.662 703.865,-362.373"/>
<polygon fill="black" stroke="black" points="693.751,-361.264 704.182,-357.881 698.722,-361.809 703.692,-362.354 703.692,-362.354 703.692,-362.354 698.722,-361.809 703.201,-366.827 693.751,-361.264 693.751,-361.264"/>
</g>
<!-- ndVariable -->
<g id="node14" class="node"><title>ndVariable</title>
<g id="a_node14_21"><a xlink:href="https://github.com/maidsafe/blst-bulletproofs/blob/master/src/r1cs/linear_combination.rs#:~:text=enum%20Variable" xlink:title="&lt;TABLE&gt;">
<polygon fill="yellow" stroke="none" points="194.734,-502.5 194.734,-539.5 273.734,-539.5 273.734,-502.5 194.734,-502.5"/>
<polygon fill="none" stroke="black" points="194.734,-502.5 194.734,-539.5 273.734,-539.5 273.734,-502.5 194.734,-502.5"/>
<text text-anchor="start" x="205.734" y="-518.3" font-family="Arial" font-weight="bold" font-size="14.00">Variable</text>
<polygon fill="none" stroke="black" points="193.234,-502 193.234,-541 274.234,-541 274.234,-502 193.234,-502"/>
</a>
</g>
</g>
<!-- ndVariable&#45;&gt;ndProver -->
<g id="edge32" class="edge"><title>ndVariable&#45;&gt;ndProver</title>
<path fill="none" stroke="black" d="M282.404,-520.593C455.311,-520.465 1032.9,-515.972 1093.73,-462 1113.78,-444.218 1117.62,-413.147 1117.13,-389.315"/>
<polygon fill="black" stroke="black" points="1116.67,-379.277 1121.63,-389.06 1116.9,-384.271 1117.13,-389.266 1117.13,-389.266 1117.13,-389.266 1116.9,-384.271 1112.64,-389.473 1116.67,-379.277 1116.67,-379.277"/>
</g>
<!-- ndVariable&#45;&gt;ndRandomizingProver -->
<g id="edge33" class="edge"><title>ndVariable&#45;&gt;ndRandomizingProver</title>
<path fill="none" stroke="black" d="M185.178,-503.006C166.929,-493.784 148.105,-480.463 137.734,-462 127.505,-443.787 123.859,-430.615 137.734,-415 182.92,-364.147 383.081,-413.461 441.734,-379 463.963,-365.94 458.728,-351.377 475.734,-332 484.439,-322.083 494.601,-311.977 504.149,-303.017"/>
<polygon fill="black" stroke="black" points="511.636,-296.103 507.343,-306.193 507.963,-299.495 504.29,-302.888 504.29,-302.888 504.29,-302.888 507.963,-299.495 501.237,-299.582 511.636,-296.103 511.636,-296.103"/>
</g>
<!-- ndVariable&#45;&gt;ndVerifier -->
<g id="edge34" class="edge"><title>ndVariable&#45;&gt;ndVerifier</title>
<path fill="none" stroke="black" d="M282.249,-517.271C333.864,-511.996 416.375,-498.163 477.734,-462 502.125,-447.625 497.845,-431.663 520.734,-415 542.957,-398.823 570.367,-385.566 594.114,-375.788"/>
<polygon fill="black" stroke="black" points="603.698,-371.945 596.09,-379.844 599.057,-373.806 594.416,-375.667 594.416,-375.667 594.416,-375.667 599.057,-373.806 592.741,-371.49 603.698,-371.945 603.698,-371.945"/>
</g>
<!-- ndVariable&#45;&gt;ndRandomizingVerifier -->
<g id="edge35" class="edge"><title>ndVariable&#45;&gt;ndRandomizingVerifier</title>
<path fill="none" stroke="black" d="M184.918,-510.345C157.196,-502.021 124.235,-487.332 104.734,-462 69.2855,-415.953 67.5059,-385.268 90.7343,-332 95.4871,-321.101 103.383,-311.32 112.005,-303.017"/>
<polygon fill="black" stroke="black" points="119.708,-296.11 115.267,-306.136 115.985,-299.448 112.263,-302.786 112.263,-302.786 112.263,-302.786 115.985,-299.448 109.259,-299.435 119.708,-296.11 119.708,-296.11"/>
</g>
<!-- ndLinearCombination -->
<g id="node15" class="node"><title>ndLinearCombination</title>
<g id="a_node15_22"><a xlink:href="https://github.com/maidsafe/blst-bulletproofs/blob/master/src/r1cs/linear_combination.rs#:~:text=struct%20LinearCombination" xlink:title="&lt;TABLE&gt;">
<polygon fill="lightblue" stroke="none" points="156.734,-419.5 156.734,-456.5 311.734,-456.5 311.734,-419.5 156.734,-419.5"/>
<polygon fill="none" stroke="black" points="156.734,-419.5 156.734,-456.5 311.734,-456.5 311.734,-419.5 156.734,-419.5"/>
<text text-anchor="start" x="167.734" y="-435.3" font-family="Arial" font-weight="bold" font-size="14.00">LinearCombination</text>
<polygon fill="none" stroke="black" points="155.234,-419 155.234,-458 312.234,-458 312.234,-419 155.234,-419"/>
</a>
</g>
</g>
<!-- ndVariable&#45;&gt;ndLinearCombination -->
<g id="edge36" class="edge"><title>ndVariable&#45;&gt;ndLinearCombination</title>
<path fill="none" stroke="black" d="M233.734,-497.937C233.734,-490.626 233.734,-482.337 233.734,-474.348"/>
<polygon fill="black" stroke="black" points="233.734,-474.223 229.734,-468.223 233.734,-462.223 237.734,-468.223 233.734,-474.223"/>
</g>
<!-- ndLinearCombination&#45;&gt;ndProver -->
<g id="edge37" class="edge"><title>ndLinearCombination&#45;&gt;ndProver</title>
<path fill="none" stroke="black" stroke-dasharray="5,2" d="M320.43,-421.797C336.138,-419.278 352.399,-416.885 367.734,-415 624.222,-383.472 932.526,-365.62 1057.26,-359.226"/>
<polygon fill="black" stroke="black" points="1057.47,-359.215 1063.26,-354.917 1069.45,-358.608 1063.66,-362.906 1057.47,-359.215"/>
</g>
<!-- ndLinearCombination&#45;&gt;ndRandomizingProver -->
<g id="edge38" class="edge"><title>ndLinearCombination&#45;&gt;ndRandomizingProver</title>
<path fill="none" stroke="black" stroke-dasharray="5,2" d="M320.498,-418.201C387.26,-403.084 469.226,-383.829 475.734,-379 488.936,-369.205 508.833,-332.699 522.507,-305.356"/>
<polygon fill="black" stroke="black" points="527.062,-296.126 526.672,-307.085 524.85,-300.609 522.637,-305.093 522.637,-305.093 522.637,-305.093 524.85,-300.609 518.601,-303.101 527.062,-296.126 527.062,-296.126"/>
</g>
<!-- ndLinearCombination&#45;&gt;ndVerifier -->
<g id="edge39" class="edge"><title>ndLinearCombination&#45;&gt;ndVerifier</title>
<path fill="none" stroke="black" stroke-dasharray="5,2" d="M320.479,-420.569C401.96,-404.666 521.54,-381.326 591.637,-367.644"/>
<polygon fill="black" stroke="black" points="591.931,-367.587 597.054,-362.512 603.709,-365.288 598.586,-370.363 591.931,-367.587"/>
</g>
<!-- ndLinearCombination&#45;&gt;ndRandomizingVerifier -->
<g id="edge40" class="edge"><title>ndLinearCombination&#45;&gt;ndRandomizingVerifier</title>
<path fill="none" stroke="black" stroke-dasharray="5,2" d="M147.175,-416.079C129.238,-407.524 112.534,-395.598 101.734,-379 90.3424,-361.491 94.3108,-351.525 101.734,-332 105.69,-321.595 112.44,-311.858 119.789,-303.428"/>
<polygon fill="black" stroke="black" points="126.645,-296.072 123.119,-306.455 123.236,-299.73 119.827,-303.388 119.827,-303.388 119.827,-303.388 123.236,-299.73 116.535,-300.32 126.645,-296.072 126.645,-296.072"/>
</g>
<!-- ndMetrics -->
<g id="node16" class="node"><title>ndMetrics</title>
<g id="a_node16_23"><a xlink:href="https://github.com/maidsafe/blst-bulletproofs/blob/master/src/r1cs/metrics.rs#:~:text=struct%20Metrics" xlink:title="&lt;TABLE&gt;">
<polygon fill="lightblue" stroke="none" points="385.734,-419.5 385.734,-456.5 459.734,-456.5 459.734,-419.5 385.734,-419.5"/>
<polygon fill="none" stroke="black" points="385.734,-419.5 385.734,-456.5 459.734,-456.5 459.734,-419.5 385.734,-419.5"/>
<text text-anchor="start" x="396.734" y="-435.3" font-family="Arial" font-weight="bold" font-size="14.00">Metrics</text>
<polygon fill="none" stroke="black" points="384.734,-419 384.734,-458 460.734,-458 460.734,-419 384.734,-419"/>
</a>
</g>
</g>
<!-- ndMetrics&#45;&gt;ndProver -->
<g id="edge41" class="edge"><title>ndMetrics&#45;&gt;ndProver</title>
<path fill="none" stroke="black" d="M468.876,-432.091C591.937,-417.666 927.545,-378.325 1059.46,-362.862"/>
<polygon fill="black" stroke="black" points="1069.72,-361.66 1060.31,-367.293 1064.75,-362.242 1059.79,-362.824 1059.79,-362.824 1059.79,-362.824 1064.75,-362.242 1059.26,-358.355 1069.72,-361.66 1069.72,-361.66"/>
</g>
<!-- ndMetrics&#45;&gt;ndRandomizingProver -->
<g id="edge42" class="edge"><title>ndMetrics&#45;&gt;ndRandomizingProver</title>
<path fill="none" stroke="black" d="M469.02,-417.034C485.398,-407.646 502.519,-394.992 513.734,-379 528.724,-357.625 534.512,-328.362 536.671,-306.077"/>
<polygon fill="black" stroke="black" points="537.446,-296.073 541.16,-306.391 537.059,-301.058 536.673,-306.043 536.673,-306.043 536.673,-306.043 537.059,-301.058 532.187,-305.696 537.446,-296.073 537.446,-296.073"/>
</g>
<!-- ndMetrics&#45;&gt;ndVerifier -->
<g id="edge43" class="edge"><title>ndMetrics&#45;&gt;ndVerifier</title>
<path fill="none" stroke="black" d="M468.864,-420.02C473.541,-418.302 478.227,-416.603 482.734,-415 530.009,-398.189 542.506,-395.943 589.734,-379 591.153,-378.491 592.59,-377.972 594.038,-377.445"/>
<polygon fill="black" stroke="black" points="603.705,-373.883 595.877,-381.563 599.013,-375.612 594.321,-377.341 594.321,-377.341 594.321,-377.341 599.013,-375.612 592.766,-373.118 603.705,-373.883 603.705,-373.883"/>
</g>
<!-- ndMetrics&#45;&gt;ndRandomizingVerifier -->
<g id="edge44" class="edge"><title>ndMetrics&#45;&gt;ndRandomizingVerifier</title>
<path fill="none" stroke="black" d="M376.455,-425.968C361.283,-422.309 344.32,-418.348 328.734,-415 286.933,-406.021 166.992,-411.94 139.734,-379 123.037,-358.822 129.123,-328.644 137.881,-305.726"/>
<polygon fill="black" stroke="black" points="141.739,-296.399 142.075,-307.36 139.828,-301.02 137.917,-305.64 137.917,-305.64 137.917,-305.64 139.828,-301.02 133.758,-303.92 141.739,-296.399 141.739,-296.399"/>
</g>
<!-- ndDealerAwaitingBitCommitments&#45;&gt;ndDealer -->
<g id="edge45" class="edge"><title>ndDealerAwaitingBitCommitments&#45;&gt;ndDealer</title>
<path fill="none" stroke="black" d="M2409.05,-165.937C2422.26,-156.711 2437.7,-145.928 2451.7,-136.155"/>
<polygon fill="black" stroke="black" points="2460.19,-130.223 2454.57,-139.638 2456.09,-133.086 2451.99,-135.948 2451.99,-135.948 2451.99,-135.948 2456.09,-133.086 2449.42,-132.259 2460.19,-130.223 2460.19,-130.223"/>
</g>
<!-- ndDealerAwaitingPolyCommitments&#45;&gt;ndDealerAwaitingBitCommitments -->
<g id="edge46" class="edge"><title>ndDealerAwaitingPolyCommitments&#45;&gt;ndDealerAwaitingBitCommitments</title>
<path fill="none" stroke="black" d="M2350.04,-248.937C2353.78,-240.755 2358.07,-231.35 2362.11,-222.509"/>
<polygon fill="black" stroke="black" points="2366.35,-213.223 2366.29,-224.189 2364.28,-217.771 2362.2,-222.319 2362.2,-222.319 2362.2,-222.319 2364.28,-217.771 2358.11,-220.449 2366.35,-213.223 2366.35,-213.223"/>
</g>
<!-- ndDealerAwaitingProofShares&#45;&gt;ndDealerAwaitingPolyCommitments -->
<g id="edge47" class="edge"><title>ndDealerAwaitingProofShares&#45;&gt;ndDealerAwaitingPolyCommitments</title>
<path fill="none" stroke="black" d="M2319.53,-331.937C2322.33,-323.842 2325.54,-314.55 2328.57,-305.792"/>
<polygon fill="black" stroke="black" points="2331.88,-296.223 2332.87,-307.144 2330.25,-300.949 2328.61,-305.674 2328.61,-305.674 2328.61,-305.674 2330.25,-300.949 2324.36,-304.204 2331.88,-296.223 2331.88,-296.223"/>
</g>
<!-- ndRangeProof&#45;&gt;ndDealerAwaitingProofShares -->
<g id="edge48" class="edge"><title>ndRangeProof&#45;&gt;ndDealerAwaitingProofShares</title>
<path fill="none" stroke="black" d="M2286.48,-414.937C2290.02,-406.755 2294.08,-397.35 2297.9,-388.509"/>
<polygon fill="black" stroke="black" points="2301.92,-379.223 2302.08,-390.188 2299.93,-383.813 2297.95,-388.403 2297.95,-388.403 2297.95,-388.403 2299.93,-383.813 2293.82,-386.618 2301.92,-379.223 2301.92,-379.223"/>
</g>
<!-- ndBitCommitment -->
<g id="node22" class="node"><title>ndBitCommitment</title>
<g id="a_node22_24"><a xlink:href="https://github.com/maidsafe/blst-bulletproofs/blob/master/src/range_proof/messages.rs#:~:text=struct%20BitCommitment" xlink:title="&lt;TABLE&gt;">
<polygon fill="lightblue" stroke="none" points="2404.73,-419.5 2404.73,-456.5 2533.73,-456.5 2533.73,-419.5 2404.73,-419.5"/>
<polygon fill="none" stroke="black" points="2404.73,-419.5 2404.73,-456.5 2533.73,-456.5 2533.73,-419.5 2404.73,-419.5"/>
<text text-anchor="start" x="2415.73" y="-435.3" font-family="Arial" font-weight="bold" font-size="14.00">BitCommitment</text>
<polygon fill="none" stroke="black" points="2403.23,-419 2403.23,-458 2534.23,-458 2534.23,-419 2403.23,-419"/>
</a>
</g>
</g>
<!-- ndBitCommitment&#45;&gt;ndDealerAwaitingPolyCommitments -->
<g id="edge49" class="edge"><title>ndBitCommitment&#45;&gt;ndDealerAwaitingPolyCommitments</title>
<path fill="none" stroke="black" d="M2466.6,-414.745C2463.44,-391.777 2455.66,-356.319 2436.73,-332 2427.68,-320.36 2415.6,-310.519 2403.05,-302.422"/>
<polygon fill="black" stroke="black" points="2402.73,-302.229 2395.53,-302.554 2392.46,-296.03 2399.66,-295.704 2402.73,-302.229"/>
</g>
<!-- ndBitCommitment&#45;&gt;ndDealerAwaitingProofShares -->
<g id="edge50" class="edge"><title>ndBitCommitment&#45;&gt;ndDealerAwaitingProofShares</title>
<path fill="none" stroke="black" d="M2425,-414.937C2406.79,-405.541 2385.45,-394.531 2366.23,-384.616"/>
<polygon fill="black" stroke="black" points="2366.17,-384.584 2359,-385.388 2355.51,-379.082 2362.67,-378.279 2366.17,-384.584"/>
</g>
<!-- ndProofShare -->
<g id="node26" class="node"><title>ndProofShare</title>
<g id="a_node26_25"><a xlink:href="https://github.com/maidsafe/blst-bulletproofs/blob/master/src/range_proof/messages.rs#:~:text=struct%20ProofShare" xlink:title="&lt;TABLE&gt;">
<polygon fill="lightblue" stroke="none" points="1812.73,-336.5 1812.73,-373.5 1914.73,-373.5 1914.73,-336.5 1812.73,-336.5"/>
<polygon fill="none" stroke="black" points="1812.73,-336.5 1812.73,-373.5 1914.73,-373.5 1914.73,-336.5 1812.73,-336.5"/>
<text text-anchor="start" x="1823.73" y="-352.3" font-family="Arial" font-weight="bold" font-size="14.00">ProofShare</text>
<polygon fill="none" stroke="black" points="1811.73,-336 1811.73,-375 1915.73,-375 1915.73,-336 1811.73,-336"/>
</a>
</g>
</g>
<!-- ndBitCommitment&#45;&gt;ndProofShare -->
<g id="edge51" class="edge"><title>ndBitCommitment&#45;&gt;ndProofShare</title>
<path fill="none" stroke="black" stroke-dasharray="5,2" d="M2394.99,-423.141C2379.1,-420.26 2362.38,-417.388 2346.73,-415 2200.31,-392.652 2027.85,-373.471 1933.73,-363.605"/>
<polygon fill="black" stroke="black" points="1923.76,-362.563 1934.17,-359.126 1928.73,-363.083 1933.7,-363.602 1933.7,-363.602 1933.7,-363.602 1928.73,-363.083 1933.24,-368.078 1923.76,-362.563 1923.76,-362.563"/>
</g>
<!-- ndBitCommitment&#45;&gt;ndPartyAwaitingPosition -->
<g id="edge52" class="edge"><title>ndBitCommitment&#45;&gt;ndPartyAwaitingPosition</title>
<path fill="none" stroke="black" d="M2483.33,-414.725C2513.97,-363.759 2577.27,-239.255 2515.73,-166 2487.05,-131.856 2375.34,-117.636 2288.92,-111.717"/>
<polygon fill="black" stroke="black" points="2278.78,-111.052 2289.05,-107.216 2283.77,-111.379 2288.76,-111.706 2288.76,-111.706 2288.76,-111.706 2283.77,-111.379 2288.46,-116.197 2278.78,-111.052 2278.78,-111.052"/>
</g>
<!-- ndBitChallenge -->
<g id="node23" class="node"><title>ndBitChallenge</title>
<g id="a_node23_26"><a xlink:href="https://github.com/maidsafe/blst-bulletproofs/blob/master/src/range_proof/messages.rs#:~:text=struct%20BitChallenge" xlink:title="&lt;TABLE&gt;">
<polygon fill="lightblue" stroke="none" points="2077.73,-419.5 2077.73,-456.5 2188.73,-456.5 2188.73,-419.5 2077.73,-419.5"/>
<polygon fill="none" stroke="black" points="2077.73,-419.5 2077.73,-456.5 2188.73,-456.5 2188.73,-419.5 2077.73,-419.5"/>
<text text-anchor="start" x="2088.73" y="-435.3" font-family="Arial" font-weight="bold" font-size="14.00">BitChallenge</text>
<polygon fill="none" stroke="black" points="2076.23,-419 2076.23,-458 2189.23,-458 2189.23,-419 2076.23,-419"/>
</a>
</g>
</g>
<!-- ndBitChallenge&#45;&gt;ndDealerAwaitingBitCommitments -->
<g id="edge53" class="edge"><title>ndBitChallenge&#45;&gt;ndDealerAwaitingBitCommitments</title>
<path fill="none" stroke="black" d="M2132.93,-414.706C2134.61,-374.382 2144.36,-290.791 2194.73,-249 2211.35,-235.218 2231.27,-224.663 2251.74,-216.585"/>
<polygon fill="black" stroke="black" points="2261.18,-213.045 2253.39,-220.771 2256.49,-214.801 2251.81,-216.558 2251.81,-216.558 2251.81,-216.558 2256.49,-214.801 2250.23,-212.345 2261.18,-213.045 2261.18,-213.045"/>
</g>
<!-- ndBitChallenge&#45;&gt;ndDealerAwaitingPolyCommitments -->
<g id="edge54" class="edge"><title>ndBitChallenge&#45;&gt;ndDealerAwaitingPolyCommitments</title>
<path fill="none" stroke="black" d="M2138.82,-414.709C2146.23,-391.034 2160.93,-354.384 2185.73,-332 2200.15,-318.989 2217.76,-308.764 2235.84,-300.763"/>
<polygon fill="black" stroke="black" points="2236.06,-300.672 2240.07,-294.674 2247.14,-296.063 2243.14,-302.061 2236.06,-300.672"/>
</g>
<!-- ndBitChallenge&#45;&gt;ndDealerAwaitingProofShares -->
<g id="edge55" class="edge"><title>ndBitChallenge&#45;&gt;ndDealerAwaitingProofShares</title>
<path fill="none" stroke="black" d="M2182.6,-414.937C2203.75,-405.366 2228.6,-394.121 2250.82,-384.064"/>
<polygon fill="black" stroke="black" points="2250.9,-384.03 2254.71,-377.912 2261.83,-379.082 2258.01,-385.2 2250.9,-384.03"/>
</g>
<!-- ndBitChallenge&#45;&gt;ndProofShare -->
<g id="edge56" class="edge"><title>ndBitChallenge&#45;&gt;ndProofShare</title>
<path fill="none" stroke="black" stroke-dasharray="5,2" d="M2068.16,-417.852C2064.98,-416.887 2061.82,-415.932 2058.73,-415 2017.27,-402.477 1970.82,-388.537 1933.66,-377.408"/>
<polygon fill="black" stroke="black" points="1923.93,-374.494 1934.8,-373.052 1928.72,-375.929 1933.51,-377.363 1933.51,-377.363 1933.51,-377.363 1928.72,-375.929 1932.21,-381.674 1923.93,-374.494 1923.93,-374.494"/>
</g>
<!-- ndPartyAwaitingBitChallenge -->
<g id="node29" class="node"><title>ndPartyAwaitingBitChallenge</title>
<g id="a_node29_27"><a xlink:href="https://github.com/maidsafe/blst-bulletproofs/blob/master/src/range_proof/party.rs#:~:text=struct%20PartyAwaitingBitChallenge" xlink:title="&lt;TABLE&gt;">
<polygon fill="lightblue" stroke="none" points="1926.73,-170.5 1926.73,-207.5 2133.73,-207.5 2133.73,-170.5 1926.73,-170.5"/>
<polygon fill="none" stroke="black" points="1926.73,-170.5 1926.73,-207.5 2133.73,-207.5 2133.73,-170.5 1926.73,-170.5"/>
<text text-anchor="start" x="1937.73" y="-186.3" font-family="Arial" font-weight="bold" font-size="14.00">PartyAwaitingBitChallenge</text>
<polygon fill="none" stroke="black" points="1925.23,-170 1925.23,-209 2134.23,-209 2134.23,-170 1925.23,-170"/>
</a>
</g>
</g>
<!-- ndBitChallenge&#45;&gt;ndPartyAwaitingBitChallenge -->
<g id="edge57" class="edge"><title>ndBitChallenge&#45;&gt;ndPartyAwaitingBitChallenge</title>
<path fill="none" stroke="black" stroke-dasharray="5,2" d="M2123.23,-414.706C2104.83,-370.592 2064.32,-273.437 2043.17,-222.732"/>
<polygon fill="black" stroke="black" points="2039.22,-213.239 2047.22,-220.737 2041.14,-217.854 2043.07,-222.469 2043.07,-222.469 2043.07,-222.469 2041.14,-217.854 2038.91,-224.201 2039.22,-213.239 2039.22,-213.239"/>
</g>
<!-- ndPolyCommitment -->
<g id="node24" class="node"><title>ndPolyCommitment</title>
<g id="a_node24_28"><a xlink:href="https://github.com/maidsafe/blst-bulletproofs/blob/master/src/range_proof/messages.rs#:~:text=struct%20PolyCommitment" xlink:title="&lt;TABLE&gt;">
<polygon fill="lightblue" stroke="none" points="1900.73,-419.5 1900.73,-456.5 2041.73,-456.5 2041.73,-419.5 1900.73,-419.5"/>
<polygon fill="none" stroke="black" points="1900.73,-419.5 1900.73,-456.5 2041.73,-456.5 2041.73,-419.5 1900.73,-419.5"/>
<text text-anchor="start" x="1911.73" y="-435.3" font-family="Arial" font-weight="bold" font-size="14.00">PolyCommitment</text>
<polygon fill="none" stroke="black" points="1899.23,-419 1899.23,-458 2042.23,-458 2042.23,-419 1899.23,-419"/>
</a>
</g>
</g>
<!-- ndPolyCommitment&#45;&gt;ndDealerAwaitingProofShares -->
<g id="edge58" class="edge"><title>ndPolyCommitment&#45;&gt;ndDealerAwaitingProofShares</title>
<path fill="none" stroke="black" d="M2050.34,-417.059C2053.17,-416.359 2055.98,-415.671 2058.73,-415 2104.88,-403.768 2155.89,-391.874 2199.94,-381.765"/>
<polygon fill="black" stroke="black" points="2200.18,-381.711 2205.13,-376.472 2211.87,-379.031 2206.92,-384.27 2200.18,-381.711"/>
</g>
<!-- ndPolyCommitment&#45;&gt;ndProofShare -->
<g id="edge59" class="edge"><title>ndPolyCommitment&#45;&gt;ndProofShare</title>
<path fill="none" stroke="black" stroke-dasharray="5,2" d="M1940.93,-414.937C1928.86,-405.798 1914.77,-395.132 1901.95,-385.432"/>
<polygon fill="black" stroke="black" points="1893.75,-379.223 1904.44,-381.671 1897.74,-382.241 1901.72,-385.259 1901.72,-385.259 1901.72,-385.259 1897.74,-382.241 1899.01,-388.847 1893.75,-379.223 1893.75,-379.223"/>
</g>
<!-- ndPolyCommitment&#45;&gt;ndPartyAwaitingBitChallenge -->
<g id="edge60" class="edge"><title>ndPolyCommitment&#45;&gt;ndPartyAwaitingBitChallenge</title>
<path fill="none" stroke="black" d="M1976.18,-414.706C1986.69,-370.684 2009.83,-273.841 2021.96,-223.049"/>
<polygon fill="black" stroke="black" points="2024.3,-213.239 2026.36,-224.011 2023.14,-218.103 2021.98,-222.966 2021.98,-222.966 2021.98,-222.966 2023.14,-218.103 2017.6,-221.92 2024.3,-213.239 2024.3,-213.239"/>
</g>
<!-- ndPolyChallenge -->
<g id="node25" class="node"><title>ndPolyChallenge</title>
<g id="a_node25_29"><a xlink:href="https://github.com/maidsafe/blst-bulletproofs/blob/master/src/range_proof/messages.rs#:~:text=struct%20PolyChallenge" xlink:title="&lt;TABLE&gt;">
<polygon fill="lightblue" stroke="none" points="1665.73,-419.5 1665.73,-456.5 1788.73,-456.5 1788.73,-419.5 1665.73,-419.5"/>
<polygon fill="none" stroke="black" points="1665.73,-419.5 1665.73,-456.5 1788.73,-456.5 1788.73,-419.5 1665.73,-419.5"/>
<text text-anchor="start" x="1676.73" y="-435.3" font-family="Arial" font-weight="bold" font-size="14.00">PolyChallenge</text>
<polygon fill="none" stroke="black" points="1664.23,-419 1664.23,-458 1789.23,-458 1789.23,-419 1664.23,-419"/>
</a>
</g>
</g>
<!-- ndPolyChallenge&#45;&gt;ndDealerAwaitingPolyCommitments -->
<g id="edge61" class="edge"><title>ndPolyChallenge&#45;&gt;ndDealerAwaitingPolyCommitments</title>
<path fill="none" stroke="black" d="M1738.48,-414.541C1753.28,-386.595 1778.69,-341.894 1794.73,-332 1828.04,-311.462 2043.5,-293.167 2193.32,-282.711"/>
<polygon fill="black" stroke="black" points="2203.54,-282.002 2193.87,-287.183 2198.55,-282.348 2193.56,-282.694 2193.56,-282.694 2193.56,-282.694 2198.55,-282.348 2193.25,-278.205 2203.54,-282.002 2203.54,-282.002"/>
</g>
<!-- ndPolyChallenge&#45;&gt;ndDealerAwaitingProofShares -->
<g id="edge62" class="edge"><title>ndPolyChallenge&#45;&gt;ndDealerAwaitingProofShares</title>
<path fill="none" stroke="black" d="M1797.32,-427.118C1823.79,-423.261 1854.13,-418.881 1881.73,-415 1982.81,-400.788 2097.34,-385.234 2182.77,-373.739"/>
<polygon fill="black" stroke="black" points="2183,-373.708 2188.41,-368.944 2194.89,-372.109 2189.48,-376.873 2183,-373.708"/>
</g>
<!-- ndPolyChallenge&#45;&gt;ndProofShare -->
<g id="edge63" class="edge"><title>ndPolyChallenge&#45;&gt;ndProofShare</title>
<path fill="none" stroke="black" stroke-dasharray="5,2" d="M1764.9,-414.937C1780.94,-405.45 1799.77,-394.317 1816.67,-384.328"/>
<polygon fill="black" stroke="black" points="1825.3,-379.223 1818.98,-388.186 1821,-381.768 1816.69,-384.312 1816.69,-384.312 1816.69,-384.312 1821,-381.768 1814.4,-380.439 1825.3,-379.223 1825.3,-379.223"/>
</g>
<!-- ndPolyChallenge&#45;&gt;ndPartyAwaitingPolyChallenge -->
<g id="edge64" class="edge"><title>ndPolyChallenge&#45;&gt;ndPartyAwaitingPolyChallenge</title>
<path fill="none" stroke="black" stroke-dasharray="5,2" d="M1729.58,-414.658C1733.17,-392.261 1740.92,-357.816 1756.73,-332 1763.25,-321.361 1772.23,-311.433 1781.37,-302.885"/>
<polygon fill="black" stroke="black" points="1789.03,-296.044 1784.57,-306.061 1785.3,-299.374 1781.57,-302.704 1781.57,-302.704 1781.57,-302.704 1785.3,-299.374 1778.58,-299.347 1789.03,-296.044 1789.03,-296.044"/>
</g>
<!-- ndProofShare&#45;&gt;ndPartyAwaitingPolyChallenge -->
<g id="edge65" class="edge"><title>ndProofShare&#45;&gt;ndPartyAwaitingPolyChallenge</title>
<path fill="none" stroke="black" d="M1851.48,-331.937C1846.99,-323.668 1841.82,-314.149 1836.97,-305.227"/>
<polygon fill="black" stroke="black" points="1832.08,-296.223 1840.81,-302.862 1834.46,-300.617 1836.85,-305.01 1836.85,-305.01 1836.85,-305.01 1834.46,-300.617 1832.9,-307.158 1832.08,-296.223 1832.08,-296.223"/>
</g>
<!-- ndPartyAwaitingPosition&#45;&gt;ndParty -->
<g id="edge66" class="edge"><title>ndPartyAwaitingPosition&#45;&gt;ndParty</title>
<path fill="none" stroke="black" d="M2251.65,-82.937C2293.86,-69.3152 2346.59,-52.3008 2384.24,-40.1503"/>
<polygon fill="black" stroke="black" points="2393.95,-37.0154 2385.82,-44.3691 2389.19,-38.551 2384.44,-40.0866 2384.44,-40.0866 2384.44,-40.0866 2389.19,-38.551 2383.05,-35.8041 2393.95,-37.0154 2393.95,-37.0154"/>
</g>
<!-- ndPartyAwaitingBitChallenge&#45;&gt;ndPartyAwaitingPosition -->
<g id="edge67" class="edge"><title>ndPartyAwaitingBitChallenge&#45;&gt;ndPartyAwaitingPosition</title>
<path fill="none" stroke="black" d="M2072.07,-165.937C2090.2,-156.279 2111.52,-144.915 2130.53,-134.789"/>
<polygon fill="black" stroke="black" points="2139.36,-130.082 2132.65,-138.757 2134.94,-132.434 2130.53,-134.785 2130.53,-134.785 2130.53,-134.785 2134.94,-132.434 2128.42,-130.814 2139.36,-130.082 2139.36,-130.082"/>
</g>
<!-- ndPartyAwaitingPolyChallenge&#45;&gt;ndPartyAwaitingBitChallenge -->
<g id="edge68" class="edge"><title>ndPartyAwaitingPolyChallenge&#45;&gt;ndPartyAwaitingBitChallenge</title>
<path fill="none" stroke="black" d="M1878.23,-248.937C1904.18,-238.929 1934.87,-227.09 1961.82,-216.694"/>
<polygon fill="black" stroke="black" points="1971.19,-213.082 1963.48,-220.88 1966.52,-214.882 1961.86,-216.681 1961.86,-216.681 1961.86,-216.681 1966.52,-214.882 1960.24,-212.483 1971.19,-213.082 1971.19,-213.082"/>
</g>
<!-- ndTranscriptProtocol -->
<g id="node31" class="node"><title>ndTranscriptProtocol</title>
<g id="a_node31_30"><a xlink:href="https://github.com/maidsafe/blst-bulletproofs/blob/master/src/transcript.rs#:~:text=trait%20TranscriptProtocol" xlink:title="&lt;TABLE&gt;">
<polygon fill="lightgreen" stroke="none" points="2652.73,-668.5 2652.73,-705.5 2806.73,-705.5 2806.73,-668.5 2652.73,-668.5"/>
<polygon fill="none" stroke="black" points="2652.73,-668.5 2652.73,-705.5 2806.73,-705.5 2806.73,-668.5 2652.73,-668.5"/>
<text text-anchor="start" x="2663.73" y="-684.3" font-family="Arial" font-weight="bold" font-size="14.00">TranscriptProtocol</text>
<polygon fill="none" stroke="black" points="2651.73,-668 2651.73,-707 2807.73,-707 2807.73,-668 2651.73,-668"/>
</a>
</g>
</g>
<!-- ndVecPoly1 -->
<g id="node32" class="node"><title>ndVecPoly1</title>
<g id="a_node32_31"><a xlink:href="https://github.com/maidsafe/blst-bulletproofs/blob/master/src/util.rs#:~:text=struct%20VecPoly1" xlink:title="&lt;TABLE&gt;">
<polygon fill="lightblue" stroke="none" points="2830.73,-585.5 2830.73,-622.5 2917.73,-622.5 2917.73,-585.5 2830.73,-585.5"/>
<polygon fill="none" stroke="black" points="2830.73,-585.5 2830.73,-622.5 2917.73,-622.5 2917.73,-585.5 2830.73,-585.5"/>
<text text-anchor="start" x="2841.73" y="-601.3" font-family="Arial" font-weight="bold" font-size="14.00">VecPoly1</text>
<polygon fill="none" stroke="black" points="2829.23,-585 2829.23,-624 2918.23,-624 2918.23,-585 2829.23,-585"/>
</a>
</g>
</g>
<!-- ndVecPoly3 -->
<g id="node33" class="node"><title>ndVecPoly3</title>
<g id="a_node33_32"><a xlink:href="https://github.com/maidsafe/blst-bulletproofs/blob/master/src/util.rs#:~:text=struct%20VecPoly3" xlink:title="&lt;TABLE&gt;">
<polygon fill="lightblue" stroke="none" points="2953.73,-585.5 2953.73,-622.5 3040.73,-622.5 3040.73,-585.5 2953.73,-585.5"/>
<polygon fill="none" stroke="black" points="2953.73,-585.5 2953.73,-622.5 3040.73,-622.5 3040.73,-585.5 2953.73,-585.5"/>
<text text-anchor="start" x="2964.73" y="-601.3" font-family="Arial" font-weight="bold" font-size="14.00">VecPoly3</text>
<polygon fill="none" stroke="black" points="2952.23,-585 2952.23,-624 3041.23,-624 3041.23,-585 2952.23,-585"/>
</a>
</g>
</g>
<!-- ndPoly2 -->
<g id="node34" class="node"><title>ndPoly2</title>
<g id="a_node34_33"><a xlink:href="https://github.com/maidsafe/blst-bulletproofs/blob/master/src/util.rs#:~:text=struct%20Poly2" xlink:title="&lt;TABLE&gt;">
<polygon fill="lightblue" stroke="none" points="2842.73,-668.5 2842.73,-705.5 2904.73,-705.5 2904.73,-668.5 2842.73,-668.5"/>
<polygon fill="none" stroke="black" points="2842.73,-668.5 2842.73,-705.5 2904.73,-705.5 2904.73,-668.5 2842.73,-668.5"/>
<text text-anchor="start" x="2853.73" y="-684.3" font-family="Arial" font-weight="bold" font-size="14.00">Poly2</text>
<polygon fill="none" stroke="black" points="2841.73,-668 2841.73,-707 2905.73,-707 2905.73,-668 2841.73,-668"/>
</a>
</g>
</g>
<!-- ndPoly2&#45;&gt;ndVecPoly1 -->
<g id="edge69" class="edge"><title>ndPoly2&#45;&gt;ndVecPoly1</title>
<path fill="none" stroke="black" d="M2873.73,-663.937C2873.73,-656.016 2873.73,-646.949 2873.73,-638.357"/>
<polygon fill="black" stroke="black" points="2873.73,-628.223 2878.23,-638.223 2873.73,-633.223 2873.73,-638.223 2873.73,-638.223 2873.73,-638.223 2873.73,-633.223 2869.23,-638.223 2873.73,-628.223 2873.73,-628.223"/>
</g>
<!-- ndPoly6 -->
<g id="node35" class="node"><title>ndPoly6</title>
<g id="a_node35_34"><a xlink:href="https://github.com/maidsafe/blst-bulletproofs/blob/master/src/util.rs#:~:text=struct%20Poly6" xlink:title="&lt;TABLE&gt;">
<polygon fill="lightblue" stroke="none" points="2965.73,-668.5 2965.73,-705.5 3027.73,-705.5 3027.73,-668.5 2965.73,-668.5"/>
<polygon fill="none" stroke="black" points="2965.73,-668.5 2965.73,-705.5 3027.73,-705.5 3027.73,-668.5 2965.73,-668.5"/>
<text text-anchor="start" x="2976.73" y="-684.3" font-family="Arial" font-weight="bold" font-size="14.00">Poly6</text>
<polygon fill="none" stroke="black" points="2964.73,-668 2964.73,-707 3028.73,-707 3028.73,-668 2964.73,-668"/>
</a>
</g>
</g>
<!-- ndPoly6&#45;&gt;ndVecPoly3 -->
<g id="edge70" class="edge"><title>ndPoly6&#45;&gt;ndVecPoly3</title>
<path fill="none" stroke="black" d="M2996.73,-663.937C2996.73,-656.016 2996.73,-646.949 2996.73,-638.357"/>
<polygon fill="black" stroke="black" points="2996.73,-628.223 3001.23,-638.223 2996.73,-633.223 2996.73,-638.223 2996.73,-638.223 2996.73,-638.223 2996.73,-633.223 2992.23,-638.223 2996.73,-628.223 2996.73,-628.223"/>
</g>
<!-- ndScalarExp -->
<g id="node36" class="node"><title>ndScalarExp</title>
<g id="a_node36_35"><a xlink:href="https://github.com/maidsafe/blst-bulletproofs/blob/master/src/util.rs#:~:text=struct%20ScalarExp" xlink:title="&lt;TABLE&gt;">
<polygon fill="lightblue" stroke="none" points="3063.73,-668.5 3063.73,-705.5 3157.73,-705.5 3157.73,-668.5 3063.73,-668.5"/>
<polygon fill="none" stroke="black" points="3063.73,-668.5 3063.73,-705.5 3157.73,-705.5 3157.73,-668.5 3063.73,-668.5"/>
<text text-anchor="start" x="3074.73" y="-684.3" font-family="Arial" font-weight="bold" font-size="14.00">ScalarExp</text>
<polygon fill="none" stroke="black" points="3062.73,-668 3062.73,-707 3158.73,-707 3158.73,-668 3062.73,-668"/>
</a>
</g>
</g>
<!-- ndPedersenGens -->
<g id="node37" class="node"><title>ndPedersenGens</title>
<g id="a_node37_36"><a xlink:href="https://github.com/maidsafe/blst-bulletproofs/blob/master/src/generators.rs#:~:text=struct%20PedersenGens" xlink:title="&lt;TABLE&gt;">
<polygon fill="lightblue" stroke="none" points="2139.73,-502.5 2139.73,-539.5 2265.73,-539.5 2265.73,-502.5 2139.73,-502.5"/>
<polygon fill="none" stroke="black" points="2139.73,-502.5 2139.73,-539.5 2265.73,-539.5 2265.73,-502.5 2139.73,-502.5"/>
<text text-anchor="start" x="2150.73" y="-518.3" font-family="Arial" font-weight="bold" font-size="14.00">PedersenGens</text>
<polygon fill="none" stroke="black" points="2138.73,-502 2138.73,-541 2266.73,-541 2266.73,-502 2138.73,-502"/>
</a>
</g>
</g>
<!-- ndPedersenGens&#45;&gt;ndProver -->
<g id="edge71" class="edge"><title>ndPedersenGens&#45;&gt;ndProver</title>
<path fill="none" stroke="black" stroke-dasharray="5,2" d="M2130.47,-499.674C2127.53,-499.065 2124.61,-498.503 2121.73,-498 1913.19,-461.494 1856.01,-494.083 1646.73,-462 1555.62,-448.032 1535.04,-433.472 1444.73,-415 1347.59,-395.13 1233.59,-375.866 1167.9,-365.156"/>
<polygon fill="black" stroke="black" points="1157.78,-363.512 1168.37,-360.674 1162.72,-364.314 1167.65,-365.116 1167.65,-365.116 1167.65,-365.116 1162.72,-364.314 1166.93,-369.558 1157.78,-363.512 1157.78,-363.512"/>
</g>
<!-- ndPedersenGens&#45;&gt;ndVerifier -->
<g id="edge72" class="edge"><title>ndPedersenGens&#45;&gt;ndVerifier</title>
<path fill="none" stroke="black" stroke-dasharray="5,2" d="M2130.5,-499.485C2127.55,-498.928 2124.62,-498.429 2121.73,-498 2039.72,-485.812 687.651,-521.331 629.734,-462 610.996,-442.804 619.382,-411.779 630.289,-388.33"/>
<polygon fill="black" stroke="black" points="634.876,-379.121 634.446,-390.078 632.647,-383.596 630.418,-388.072 630.418,-388.072 630.418,-388.072 632.647,-383.596 626.389,-386.066 634.876,-379.121 634.876,-379.121"/>
</g>
<!-- ndPedersenGens&#45;&gt;ndDealer -->
<g id="edge73" class="edge"><title>ndPedersenGens&#45;&gt;ndDealer</title>
<path fill="none" stroke="black" stroke-dasharray="5,2" d="M2274.75,-515.744C2363.37,-508.654 2507.46,-492.721 2550.73,-462 2594.37,-431.026 2608.73,-410.008 2608.73,-356.5 2608.73,-356.5 2608.73,-356.5 2608.73,-271.5 2608.73,-216.29 2564.37,-166.648 2530.52,-136.8"/>
<polygon fill="black" stroke="black" points="2522.61,-130.011 2533.13,-133.108 2526.4,-133.267 2530.2,-136.523 2530.2,-136.523 2530.2,-136.523 2526.4,-133.267 2527.27,-139.938 2522.61,-130.011 2522.61,-130.011"/>
</g>
<!-- ndPedersenGens&#45;&gt;ndRangeProof -->
<g id="edge74" class="edge"><title>ndPedersenGens&#45;&gt;ndRangeProof</title>
<path fill="none" stroke="black" stroke-dasharray="5,2" d="M2223.35,-497.937C2231.3,-489.233 2240.52,-479.144 2249.03,-469.824"/>
<polygon fill="black" stroke="black" points="2255.98,-462.223 2252.55,-472.641 2252.6,-465.914 2249.23,-469.606 2249.23,-469.606 2249.23,-469.606 2252.6,-465.914 2245.91,-466.571 2255.98,-462.223 2255.98,-462.223"/>
</g>
<!-- ndPedersenGens&#45;&gt;ndProofShare -->
<g id="edge75" class="edge"><title>ndPedersenGens&#45;&gt;ndProofShare</title>
<path fill="none" stroke="black" stroke-dasharray="5,2" d="M2130.42,-499.941C2127.49,-499.259 2124.59,-498.608 2121.73,-498 2068.99,-486.762 1920.25,-499.749 1881.73,-462 1862.86,-443.503 1859.4,-412.998 1860.06,-389.535"/>
<polygon fill="black" stroke="black" points="1860.61,-379.319 1864.56,-389.546 1860.34,-384.312 1860.07,-389.304 1860.07,-389.304 1860.07,-389.304 1860.34,-384.312 1855.58,-389.063 1860.61,-379.319 1860.61,-379.319"/>
</g>
<!-- ndPedersenGens&#45;&gt;ndParty -->
<g id="edge76" class="edge"><title>ndPedersenGens&#45;&gt;ndParty</title>
<path fill="none" stroke="black" stroke-dasharray="5,2" d="M2274.81,-515.346C2371.11,-507.485 2535.77,-490.347 2588.73,-462 2644.63,-432.083 2684.73,-419.896 2684.73,-356.5 2684.73,-356.5 2684.73,-356.5 2684.73,-188.5 2684.73,-92.4063 2554.42,-49.7091 2481.21,-33.3042"/>
<polygon fill="black" stroke="black" points="2471.28,-31.1611 2482.01,-28.8718 2476.17,-32.2158 2481.06,-33.2706 2481.06,-33.2706 2481.06,-33.2706 2476.17,-32.2158 2480.11,-37.6693 2471.28,-31.1611 2471.28,-31.1611"/>
</g>
<!-- ndGeneratorsChain -->
<g id="node38" class="node"><title>ndGeneratorsChain</title>
<g id="a_node38_37"><a xlink:href="https://github.com/maidsafe/blst-bulletproofs/blob/master/src/generators.rs#:~:text=struct%20GeneratorsChain" xlink:title="&lt;TABLE&gt;">
<polygon fill="lightblue" stroke="none" points="3193.73,-668.5 3193.73,-705.5 3335.73,-705.5 3335.73,-668.5 3193.73,-668.5"/>
<polygon fill="none" stroke="black" points="3193.73,-668.5 3193.73,-705.5 3335.73,-705.5 3335.73,-668.5 3193.73,-668.5"/>
<text text-anchor="start" x="3204.73" y="-684.3" font-family="Arial" font-weight="bold" font-size="14.00">GeneratorsChain</text>
<polygon fill="none" stroke="black" points="3192.73,-668 3192.73,-707 3336.73,-707 3336.73,-668 3192.73,-668"/>
</a>
</g>
</g>
<!-- ndBulletproofGens -->
<g id="node39" class="node"><title>ndBulletproofGens</title>
<g id="a_node39_38"><a xlink:href="https://github.com/maidsafe/blst-bulletproofs/blob/master/src/generators.rs#:~:text=struct%20BulletproofGens" xlink:title="&lt;TABLE&gt;">
<polygon fill="lightblue" stroke="none" points="1550.73,-502.5 1550.73,-539.5 1687.73,-539.5 1687.73,-502.5 1550.73,-502.5"/>
<polygon fill="none" stroke="black" points="1550.73,-502.5 1550.73,-539.5 1687.73,-539.5 1687.73,-502.5 1550.73,-502.5"/>
<text text-anchor="start" x="1561.73" y="-518.3" font-family="Arial" font-weight="bold" font-size="14.00">BulletproofGens</text>
<polygon fill="none" stroke="black" points="1549.23,-502 1549.23,-541 1688.23,-541 1688.23,-502 1549.23,-502"/>
</a>
</g>
</g>
<!-- ndBulletproofGens&#45;&gt;ndProver -->
<g id="edge77" class="edge"><title>ndBulletproofGens&#45;&gt;ndProver</title>
<path fill="none" stroke="black" stroke-dasharray="5,2" d="M1541.11,-503.511C1531.89,-501.599 1522.61,-499.722 1513.73,-498 1422.06,-480.214 1387.53,-508.818 1306.73,-462 1283.25,-448.391 1289.82,-430.785 1267.73,-415 1237.71,-393.539 1198.83,-378.851 1167.65,-369.559"/>
<polygon fill="black" stroke="black" points="1157.81,-366.73 1168.67,-365.17 1162.62,-368.113 1167.42,-369.495 1167.42,-369.495 1167.42,-369.495 1162.62,-368.113 1166.18,-373.82 1157.81,-366.73 1157.81,-366.73"/>
</g>
<!-- ndBulletproofGens&#45;&gt;ndVerifier -->
<g id="edge78" class="edge"><title>ndBulletproofGens&#45;&gt;ndVerifier</title>
<path fill="none" stroke="black" stroke-dasharray="5,2" d="M1541.01,-502.289C1531.85,-500.606 1522.61,-499.117 1513.73,-498 1463.15,-491.635 632.071,-498.751 596.734,-462 576.135,-440.576 595.767,-409.411 616.543,-386.507"/>
<polygon fill="black" stroke="black" points="623.576,-379.082 619.966,-389.436 620.138,-382.712 616.699,-386.342 616.699,-386.342 616.699,-386.342 620.138,-382.712 613.432,-383.247 623.576,-379.082 623.576,-379.082"/>
</g>
<!-- ndBulletproofGens&#45;&gt;ndDealer -->
<g id="edge79" class="edge"><title>ndBulletproofGens&#45;&gt;ndDealer</title>
<path fill="none" stroke="black" stroke-dasharray="5,2" d="M1620.75,-497.973C1623.41,-466.383 1627.73,-407.114 1627.73,-356.5 1627.73,-356.5 1627.73,-356.5 1627.73,-271.5 1627.73,-121.66 2248.03,-134.059 2287.73,-130 2339.29,-124.729 2398.07,-118.226 2439.44,-113.569"/>
<polygon fill="black" stroke="black" points="2449.56,-112.427 2440.13,-118.02 2444.59,-112.988 2439.62,-113.548 2439.62,-113.548 2439.62,-113.548 2444.59,-112.988 2439.12,-109.077 2449.56,-112.427 2449.56,-112.427"/>
</g>
<!-- ndBulletproofGens&#45;&gt;ndRangeProof -->
<g id="edge80" class="edge"><title>ndBulletproofGens&#45;&gt;ndRangeProof</title>
<path fill="none" stroke="black" stroke-dasharray="5,2" d="M1696.39,-514.774C1828.76,-504.689 2093.71,-483.004 2205.01,-461.878"/>
<polygon fill="black" stroke="black" points="2214.98,-459.901 2206.04,-466.261 2210.07,-460.874 2205.17,-461.847 2205.17,-461.847 2205.17,-461.847 2210.07,-460.874 2204.29,-457.433 2214.98,-459.901 2214.98,-459.901"/>
</g>
<!-- ndBulletproofGens&#45;&gt;ndProofShare -->
<g id="edge81" class="edge"><title>ndBulletproofGens&#45;&gt;ndProofShare</title>
<path fill="none" stroke="black" stroke-dasharray="5,2" d="M1696.55,-509.882C1732.87,-501.708 1774.8,-487.308 1805.73,-462 1828.95,-443.009 1844.36,-412.159 1853.43,-388.712"/>
<polygon fill="black" stroke="black" points="1856.93,-379.173 1857.71,-390.112 1855.2,-383.867 1853.48,-388.561 1853.48,-388.561 1853.48,-388.561 1855.2,-383.867 1849.26,-387.011 1856.93,-379.173 1856.93,-379.173"/>
</g>
<!-- ndBulletproofGens&#45;&gt;ndParty -->
<g id="edge82" class="edge"><title>ndBulletproofGens&#45;&gt;ndParty</title>
<path fill="none" stroke="black" stroke-dasharray="5,2" d="M1612.53,-497.895C1595.96,-431.977 1558.93,-239.965 1666.73,-166 1785.16,-84.7434 2234.38,-40.9153 2383.96,-28.3439"/>
<polygon fill="black" stroke="black" points="2394.2,-27.4927 2384.61,-32.8055 2389.22,-27.9068 2384.23,-28.321 2384.23,-28.321 2384.23,-28.321 2389.22,-27.9068 2383.86,-23.8364 2394.2,-27.4927 2394.2,-27.4927"/>
</g>
<!-- ndAggregatedGensIter -->
<g id="node40" class="node"><title>ndAggregatedGensIter</title>
<g id="a_node40_39"><a xlink:href="https://github.com/maidsafe/blst-bulletproofs/blob/master/src/generators.rs#:~:text=struct%20AggregatedGensIter" xlink:title="&lt;TABLE&gt;">
<polygon fill="lightblue" stroke="none" points="3372.73,-668.5 3372.73,-705.5 3535.73,-705.5 3535.73,-668.5 3372.73,-668.5"/>
<polygon fill="none" stroke="black" points="3372.73,-668.5 3372.73,-705.5 3535.73,-705.5 3535.73,-668.5 3372.73,-668.5"/>
<text text-anchor="start" x="3383.73" y="-684.3" font-family="Arial" font-weight="bold" font-size="14.00">AggregatedGensIter</text>
<polygon fill="none" stroke="black" points="3371.23,-668 3371.23,-707 3536.23,-707 3536.23,-668 3371.23,-668"/>
</a>
</g>
</g>
<!-- ndBulletproofGensShare -->
<g id="node41" class="node"><title>ndBulletproofGensShare</title>
<g id="a_node41_40"><a xlink:href="https://github.com/maidsafe/blst-bulletproofs/blob/master/src/generators.rs#:~:text=struct%20BulletproofGensShare" xlink:title="&lt;TABLE&gt;">
<polygon fill="lightblue" stroke="none" points="1529.73,-585.5 1529.73,-622.5 1707.73,-622.5 1707.73,-585.5 1529.73,-585.5"/>
<polygon fill="none" stroke="black" points="1529.73,-585.5 1529.73,-622.5 1707.73,-622.5 1707.73,-585.5 1529.73,-585.5"/>
<text text-anchor="start" x="1540.73" y="-601.3" font-family="Arial" font-weight="bold" font-size="14.00">BulletproofGensShare</text>
<polygon fill="none" stroke="black" points="1528.73,-585 1528.73,-624 1708.73,-624 1708.73,-585 1528.73,-585"/>
</a>
</g>
</g>
<!-- ndBulletproofGensShare&#45;&gt;ndBulletproofGens -->
<g id="edge83" class="edge"><title>ndBulletproofGensShare&#45;&gt;ndBulletproofGens</title>
<path fill="none" stroke="black" d="M1618.73,-580.937C1618.73,-573.016 1618.73,-563.949 1618.73,-555.357"/>
<polygon fill="black" stroke="black" points="1618.73,-545.223 1623.23,-555.223 1618.73,-550.223 1618.73,-555.223 1618.73,-555.223 1618.73,-555.223 1618.73,-550.223 1614.23,-555.223 1618.73,-545.223 1618.73,-545.223"/>
</g>
</g>
</svg>
