<?xml version="1.0" encoding="UTF-8" standalone="no"?>
<!DOCTYPE svg PUBLIC "-//W3C//DTD SVG 1.1//EN"
 "http://www.w3.org/Graphics/SVG/1.1/DTD/svg11.dtd">
<!-- Generated by graphviz version 2.38.0 (20140413.2041)
 -->
<!-- Title: ml Pages: 1 -->
<svg width="1267pt" height="470pt"
 viewBox="0.00 0.00 1267.00 470.00" xmlns="http://www.w3.org/2000/svg" xmlns:xlink="http://www.w3.org/1999/xlink">
<g id="graph0" class="graph" transform="scale(1 1) rotate(0) translate(4 466)">
<title>ml</title>
<polygon fill="white" stroke="none" points="-4,4 -4,-466 1263,-466 1263,4 -4,4"/>
<!-- ndCompress -->
<g id="node1" class="node"><title>ndCompress</title>
<g id="a_node1_0"><a xlink:href="https://github.com/filecoin-project/blstrs/blob/master/src/traits.rs#:~:text=trait%20Compress" xlink:title="&lt;TABLE&gt;">
<polygon fill="lightgreen" stroke="none" points="9.5,-170.5 9.5,-207.5 104.5,-207.5 104.5,-170.5 9.5,-170.5"/>
<polygon fill="none" stroke="black" points="9.5,-170.5 9.5,-207.5 104.5,-207.5 104.5,-170.5 9.5,-170.5"/>
<text text-anchor="start" x="20.5" y="-186.3" font-family="Arial" font-weight="bold" font-size="14.00">Compress</text>
<polygon fill="none" stroke="black" points="8,-170 8,-209 105,-209 105,-170 8,-170"/>
</a>
</g>
</g>
<!-- ndGt -->
<g id="node3" class="node"><title>ndGt</title>
<g id="a_node3_1"><a xlink:href="https://github.com/filecoin-project/blstrs/blob/master/src/gt.rs#:~:text=struct%20Gt" xlink:title="&lt;TABLE&gt;">
<polygon fill="lightblue" stroke="none" points="149.5,-87.5 149.5,-124.5 187.5,-124.5 187.5,-87.5 149.5,-87.5"/>
<polygon fill="none" stroke="black" points="149.5,-87.5 149.5,-124.5 187.5,-124.5 187.5,-87.5 149.5,-87.5"/>
<text text-anchor="start" x="160.5" y="-103.3" font-family="Arial" font-weight="bold" font-size="14.00">Gt</text>
<polygon fill="none" stroke="black" points="148.5,-87 148.5,-126 188.5,-126 188.5,-87 148.5,-87"/>
</a>
</g>
</g>
<!-- ndCompress&#45;&gt;ndGt -->
<g id="edge1" class="edge"><title>ndCompress&#45;&gt;ndGt</title>
<path fill="none" stroke="black" stroke-dasharray="5,2" d="M87.6982,-165.937C101.441,-155.998 117.682,-144.252 131.985,-133.908"/>
<polygon fill="none" stroke="black" points="134.098,-136.7 140.149,-128.004 129.995,-131.028 134.098,-136.7"/>
</g>
<!-- ndFp2 -->
<g id="node2" class="node"><title>ndFp2</title>
<g id="a_node2_2"><a xlink:href="https://github.com/filecoin-project/blstrs/blob/master/src/fp2.rs#:~:text=struct%20Fp2" xlink:title="&lt;TABLE&gt;">
<polygon fill="lightblue" stroke="none" points="349.5,-336.5 349.5,-373.5 398.5,-373.5 398.5,-336.5 349.5,-336.5"/>
<polygon fill="none" stroke="black" points="349.5,-336.5 349.5,-373.5 398.5,-373.5 398.5,-336.5 349.5,-336.5"/>
<text text-anchor="start" x="360.5" y="-352.3" font-family="Arial" font-weight="bold" font-size="14.00">Fp2</text>
<polygon fill="none" stroke="black" points="348,-336 348,-375 399,-375 399,-336 348,-336"/>
</a>
</g>
</g>
<!-- ndG2Affine -->
<g id="node6" class="node"><title>ndG2Affine</title>
<g id="a_node6_3"><a xlink:href="https://github.com/filecoin-project/blstrs/blob/master/src/g2.rs#:~:text=struct%20G2Affine" xlink:title="&lt;TABLE&gt;">
<polygon fill="lightblue" stroke="none" points="483.5,-253.5 483.5,-290.5 565.5,-290.5 565.5,-253.5 483.5,-253.5"/>
<polygon fill="none" stroke="black" points="483.5,-253.5 483.5,-290.5 565.5,-290.5 565.5,-253.5 483.5,-253.5"/>
<text text-anchor="start" x="494.5" y="-269.3" font-family="Arial" font-weight="bold" font-size="14.00">G2Affine</text>
<polygon fill="none" stroke="black" points="482.5,-253 482.5,-292 566.5,-292 566.5,-253 482.5,-253"/>
</a>
</g>
</g>
<!-- ndFp2&#45;&gt;ndG2Affine -->
<g id="edge2" class="edge"><title>ndFp2&#45;&gt;ndG2Affine</title>
<path fill="none" stroke="black" stroke-dasharray="5,2" d="M407.012,-336.523C426.561,-326.037 451.618,-312.596 473.566,-300.822"/>
<polygon fill="black" stroke="black" points="482.438,-296.063 475.753,-304.756 478.032,-298.427 473.626,-300.79 473.626,-300.79 473.626,-300.79 478.032,-298.427 471.499,-296.825 482.438,-296.063 482.438,-296.063"/>
</g>
<!-- ndG2Projective -->
<g id="node7" class="node"><title>ndG2Projective</title>
<g id="a_node7_4"><a xlink:href="https://github.com/filecoin-project/blstrs/blob/master/src/g2.rs#:~:text=struct%20G2Projective" xlink:title="&lt;TABLE&gt;">
<polygon fill="lightblue" stroke="none" points="427.5,-170.5 427.5,-207.5 539.5,-207.5 539.5,-170.5 427.5,-170.5"/>
<polygon fill="none" stroke="black" points="427.5,-170.5 427.5,-207.5 539.5,-207.5 539.5,-170.5 427.5,-170.5"/>
<text text-anchor="start" x="438.5" y="-186.3" font-family="Arial" font-weight="bold" font-size="14.00">G2Projective</text>
<polygon fill="none" stroke="black" points="426.5,-170 426.5,-209 540.5,-209 540.5,-170 426.5,-170"/>
</a>
</g>
</g>
<!-- ndFp2&#45;&gt;ndG2Projective -->
<g id="edge3" class="edge"><title>ndFp2&#45;&gt;ndG2Projective</title>
<path fill="none" stroke="black" stroke-dasharray="5,2" d="M361.368,-331.665C351.135,-308.959 340.493,-273.998 356.5,-249 363.232,-238.487 385.053,-226.98 408.752,-216.973"/>
<polygon fill="black" stroke="black" points="418.258,-213.073 410.714,-221.032 413.632,-214.971 409.007,-216.869 409.007,-216.869 409.007,-216.869 413.632,-214.971 407.299,-212.705 418.258,-213.073 418.258,-213.073"/>
</g>
<!-- ndFp6 -->
<g id="node11" class="node"><title>ndFp6</title>
<g id="a_node11_5"><a xlink:href="https://github.com/filecoin-project/blstrs/blob/master/src/fp6.rs#:~:text=struct%20Fp6" xlink:title="&lt;TABLE&gt;">
<polygon fill="lightblue" stroke="none" points="212.5,-253.5 212.5,-290.5 261.5,-290.5 261.5,-253.5 212.5,-253.5"/>
<polygon fill="none" stroke="black" points="212.5,-253.5 212.5,-290.5 261.5,-290.5 261.5,-253.5 212.5,-253.5"/>
<text text-anchor="start" x="223.5" y="-269.3" font-family="Arial" font-weight="bold" font-size="14.00">Fp6</text>
<polygon fill="none" stroke="black" points="211,-253 211,-292 262,-292 262,-253 211,-253"/>
</a>
</g>
</g>
<!-- ndFp2&#45;&gt;ndFp6 -->
<g id="edge4" class="edge"><title>ndFp2&#45;&gt;ndFp6</title>
<path fill="none" stroke="black" stroke-dasharray="5,2" d="M339.986,-334.685C321.576,-323.8 298.556,-310.19 278.906,-298.572"/>
<polygon fill="black" stroke="black" points="270.143,-293.391 281.041,-294.607 274.447,-295.936 278.751,-298.48 278.751,-298.48 278.751,-298.48 274.447,-295.936 276.461,-302.354 270.143,-293.391 270.143,-293.391"/>
</g>
<!-- ndFp12 -->
<g id="node13" class="node"><title>ndFp12</title>
<g id="a_node13_6"><a xlink:href="https://github.com/filecoin-project/blstrs/blob/master/src/fp12.rs#:~:text=struct%20Fp12" xlink:title="&lt;TABLE&gt;">
<polygon fill="lightblue" stroke="none" points="140.5,-170.5 140.5,-207.5 197.5,-207.5 197.5,-170.5 140.5,-170.5"/>
<polygon fill="none" stroke="black" points="140.5,-170.5 140.5,-207.5 197.5,-207.5 197.5,-170.5 140.5,-170.5"/>
<text text-anchor="start" x="151.5" y="-186.3" font-family="Arial" font-weight="bold" font-size="14.00">Fp12</text>
<polygon fill="none" stroke="black" points="139,-170 139,-209 198,-209 198,-170 139,-170"/>
</a>
</g>
</g>
<!-- ndFp2&#45;&gt;ndFp12 -->
<g id="edge5" class="edge"><title>ndFp2&#45;&gt;ndFp12</title>
<path fill="none" stroke="black" stroke-dasharray="5,2" d="M339.739,-353.1C299.099,-349.54 231.579,-337.318 193.5,-296 175.469,-276.435 169.728,-246.311 168.202,-223.254"/>
<polygon fill="black" stroke="black" points="167.769,-213.221 172.696,-223.017 167.984,-218.216 168.2,-223.212 168.2,-223.212 168.2,-223.212 167.984,-218.216 163.704,-223.406 167.769,-213.221 167.769,-213.221"/>
</g>
<!-- ndFp6Ser -->
<g id="node19" class="node"><title>ndFp6Ser</title>
<g id="a_node19_7"><a xlink:href="https://github.com/filecoin-project/blstrs/blob/master/src/serde_impl.rs#:~:text=struct%20Fp6Ser" xlink:title="&lt;TABLE&gt;">
<polygon fill="lightblue" stroke="none" points="374.5,-253.5 374.5,-290.5 447.5,-290.5 447.5,-253.5 374.5,-253.5"/>
<polygon fill="none" stroke="black" points="374.5,-253.5 374.5,-290.5 447.5,-290.5 447.5,-253.5 374.5,-253.5"/>
<text text-anchor="start" x="385.5" y="-269.3" font-family="Arial" font-weight="bold" font-size="14.00">Fp6Ser</text>
<polygon fill="none" stroke="black" points="373,-253 373,-292 448,-292 448,-253 373,-253"/>
</a>
</g>
</g>
<!-- ndFp2&#45;&gt;ndFp6Ser -->
<g id="edge6" class="edge"><title>ndFp2&#45;&gt;ndFp6Ser</title>
<path fill="none" stroke="black" d="M383.807,-331.937C387.305,-324.278 391.294,-315.545 395.102,-307.209"/>
<polygon fill="black" stroke="black" points="395.134,-307.138 393.989,-300.019 400.12,-296.223 401.266,-303.343 395.134,-307.138"/>
</g>
<!-- ndGtCompressed -->
<g id="node4" class="node"><title>ndGtCompressed</title>
<g id="a_node4_8"><a xlink:href="https://github.com/filecoin-project/blstrs/blob/master/src/gt.rs#:~:text=struct%20GtCompressed" xlink:title="&lt;TABLE&gt;">
<polygon fill="lightblue" stroke="none" points="104.5,-4.5 104.5,-41.5 232.5,-41.5 232.5,-4.5 104.5,-4.5"/>
<polygon fill="none" stroke="black" points="104.5,-4.5 104.5,-41.5 232.5,-41.5 232.5,-4.5 104.5,-4.5"/>
<text text-anchor="start" x="115.5" y="-20.3" font-family="Arial" font-weight="bold" font-size="14.00">GtCompressed</text>
<polygon fill="none" stroke="black" points="103.5,-4 103.5,-43 233.5,-43 233.5,-4 103.5,-4"/>
</a>
</g>
</g>
<!-- ndGt&#45;&gt;ndGtCompressed -->
<g id="edge7" class="edge"><title>ndGt&#45;&gt;ndGtCompressed</title>
<path fill="none" stroke="black" d="M162.377,-82.937C161.545,-71.796 161.541,-58.3856 162.365,-47.2229"/>
</g>
<!-- ndMillerLoopResult -->
<g id="node12" class="node"><title>ndMillerLoopResult</title>
<g id="a_node12_9"><a xlink:href="https://github.com/filecoin-project/blstrs/blob/master/src/pairing.rs#:~:text=struct%20MillerLoopResult" xlink:title="&lt;TABLE&gt;">
<polygon fill="lightblue" stroke="none" points="268.5,-4.5 268.5,-41.5 408.5,-41.5 408.5,-4.5 268.5,-4.5"/>
<polygon fill="none" stroke="black" points="268.5,-4.5 268.5,-41.5 408.5,-41.5 408.5,-4.5 268.5,-4.5"/>
<text text-anchor="start" x="279.5" y="-20.3" font-family="Arial" font-weight="bold" font-size="14.00">MillerLoopResult</text>
<polygon fill="none" stroke="black" points="267.5,-4 267.5,-43 409.5,-43 409.5,-4 267.5,-4"/>
</a>
</g>
</g>
<!-- ndGt&#45;&gt;ndMillerLoopResult -->
<g id="edge8" class="edge"><title>ndGt&#45;&gt;ndMillerLoopResult</title>
<path fill="none" stroke="black" d="M196.572,-92.1245C219.718,-81.096 253.288,-65.1011 281.968,-51.4357"/>
<polygon fill="black" stroke="black" points="291.089,-47.0899 283.997,-55.4538 286.575,-49.2407 282.061,-51.3914 282.061,-51.3914 282.061,-51.3914 286.575,-49.2407 280.126,-47.3289 291.089,-47.0899 291.089,-47.0899"/>
</g>
<!-- ndGtCompressed&#45;&gt;ndGt -->
<g id="edge9" class="edge"><title>ndGtCompressed&#45;&gt;ndGt</title>
<path fill="none" stroke="black" d="M174.635,-47.2229C175.459,-58.3856 175.455,-71.796 174.623,-82.937"/>
</g>
<!-- ndFp -->
<g id="node5" class="node"><title>ndFp</title>
<g id="a_node5_10"><a xlink:href="https://github.com/filecoin-project/blstrs/blob/master/src/fp.rs#:~:text=struct%20Fp" xlink:title="&lt;TABLE&gt;">
<polygon fill="lightblue" stroke="none" points="505.5,-419.5 505.5,-456.5 546.5,-456.5 546.5,-419.5 505.5,-419.5"/>
<polygon fill="none" stroke="black" points="505.5,-419.5 505.5,-456.5 546.5,-456.5 546.5,-419.5 505.5,-419.5"/>
<text text-anchor="start" x="516.5" y="-435.3" font-family="Arial" font-weight="bold" font-size="14.00">Fp</text>
<polygon fill="none" stroke="black" points="504,-419 504,-458 547,-458 547,-419 504,-419"/>
</a>
</g>
</g>
<!-- ndFp&#45;&gt;ndFp2 -->
<g id="edge10" class="edge"><title>ndFp&#45;&gt;ndFp2</title>
<path fill="none" stroke="black" stroke-dasharray="5,2" d="M495.832,-421.69C473.133,-409.594 441.517,-392.746 416.113,-379.208"/>
<polygon fill="black" stroke="black" points="407.062,-374.385 418.004,-375.117 411.475,-376.737 415.887,-379.088 415.887,-379.088 415.887,-379.088 411.475,-376.737 413.771,-383.059 407.062,-374.385 407.062,-374.385"/>
</g>
<!-- ndFp&#45;&gt;ndFp6 -->
<g id="edge11" class="edge"><title>ndFp&#45;&gt;ndFp6</title>
<path fill="none" stroke="black" stroke-dasharray="5,2" d="M495.822,-433.648C455.872,-427.379 383.782,-412.165 331.5,-379 301.1,-359.716 274.464,-328.093 257.193,-304.489"/>
<polygon fill="black" stroke="black" points="251.264,-296.194 260.74,-301.713 254.172,-300.261 257.079,-304.329 257.079,-304.329 257.079,-304.329 254.172,-300.261 253.418,-306.946 251.264,-296.194 251.264,-296.194"/>
</g>
<!-- ndFp&#45;&gt;ndFp12 -->
<g id="edge12" class="edge"><title>ndFp&#45;&gt;ndFp12</title>
<path fill="none" stroke="black" stroke-dasharray="5,2" d="M495.655,-434.685C447.349,-429.232 349.94,-414.483 275.5,-379 221.171,-353.103 194.978,-350.049 168.5,-296 157.49,-273.525 158.233,-244.986 161.32,-223.259"/>
<polygon fill="black" stroke="black" points="162.982,-213.197 165.792,-223.797 162.167,-218.13 161.352,-223.064 161.352,-223.064 161.352,-223.064 162.167,-218.13 156.912,-222.33 162.982,-213.197 162.982,-213.197"/>
</g>
<!-- ndG1Affine -->
<g id="node14" class="node"><title>ndG1Affine</title>
<g id="a_node14_11"><a xlink:href="https://github.com/filecoin-project/blstrs/blob/master/src/g1.rs#:~:text=struct%20G1Affine" xlink:title="&lt;TABLE&gt;">
<polygon fill="lightblue" stroke="none" points="727.5,-253.5 727.5,-290.5 809.5,-290.5 809.5,-253.5 727.5,-253.5"/>
<polygon fill="none" stroke="black" points="727.5,-253.5 727.5,-290.5 809.5,-290.5 809.5,-253.5 727.5,-253.5"/>
<text text-anchor="start" x="738.5" y="-269.3" font-family="Arial" font-weight="bold" font-size="14.00">G1Affine</text>
<polygon fill="none" stroke="black" points="726.5,-253 726.5,-292 810.5,-292 810.5,-253 726.5,-253"/>
</a>
</g>
</g>
<!-- ndFp&#45;&gt;ndG1Affine -->
<g id="edge13" class="edge"><title>ndFp&#45;&gt;ndG1Affine</title>
<path fill="none" stroke="black" stroke-dasharray="5,2" d="M555.353,-419.29C558.392,-417.737 561.474,-416.275 564.5,-415 618.96,-392.056 644.074,-412.871 692.5,-379 706.938,-368.901 732.028,-331.89 749.41,-304.542"/>
<polygon fill="black" stroke="black" points="754.759,-296.049 753.237,-306.909 752.095,-300.28 749.43,-304.511 749.43,-304.511 749.43,-304.511 752.095,-300.28 745.622,-302.113 754.759,-296.049 754.759,-296.049"/>
</g>
<!-- ndG1Projective -->
<g id="node15" class="node"><title>ndG1Projective</title>
<g id="a_node15_12"><a xlink:href="https://github.com/filecoin-project/blstrs/blob/master/src/g1.rs#:~:text=struct%20G1Projective" xlink:title="&lt;TABLE&gt;">
<polygon fill="lightblue" stroke="none" points="719.5,-170.5 719.5,-207.5 831.5,-207.5 831.5,-170.5 719.5,-170.5"/>
<polygon fill="none" stroke="black" points="719.5,-170.5 719.5,-207.5 831.5,-207.5 831.5,-170.5 719.5,-170.5"/>
<text text-anchor="start" x="730.5" y="-186.3" font-family="Arial" font-weight="bold" font-size="14.00">G1Projective</text>
<polygon fill="none" stroke="black" points="718.5,-170 718.5,-209 832.5,-209 832.5,-170 718.5,-170"/>
</a>
</g>
</g>
<!-- ndFp&#45;&gt;ndG1Projective -->
<g id="edge14" class="edge"><title>ndFp&#45;&gt;ndG1Projective</title>
<path fill="none" stroke="black" stroke-dasharray="5,2" d="M555.074,-419.855C558.223,-418.152 561.406,-416.502 564.5,-415 603.257,-396.188 623.738,-409.161 654.5,-379 699.297,-335.079 672.9,-299.953 709.5,-249 717.112,-238.402 726.97,-228.378 736.735,-219.719"/>
<polygon fill="black" stroke="black" points="744.502,-213.083 739.822,-223 740.7,-216.331 736.899,-219.579 736.899,-219.579 736.899,-219.579 740.7,-216.331 733.976,-216.158 744.502,-213.083 744.502,-213.083"/>
</g>
<!-- ndFp2Ser -->
<g id="node18" class="node"><title>ndFp2Ser</title>
<g id="a_node18_13"><a xlink:href="https://github.com/filecoin-project/blstrs/blob/master/src/serde_impl.rs#:~:text=struct%20Fp2Ser" xlink:title="&lt;TABLE&gt;">
<polygon fill="lightblue" stroke="none" points="754.5,-336.5 754.5,-373.5 827.5,-373.5 827.5,-336.5 754.5,-336.5"/>
<polygon fill="none" stroke="black" points="754.5,-336.5 754.5,-373.5 827.5,-373.5 827.5,-336.5 754.5,-336.5"/>
<text text-anchor="start" x="765.5" y="-352.3" font-family="Arial" font-weight="bold" font-size="14.00">Fp2Ser</text>
<polygon fill="none" stroke="black" points="753,-336 753,-375 828,-375 828,-336 753,-336"/>
</a>
</g>
</g>
<!-- ndFp&#45;&gt;ndFp2Ser -->
<g id="edge15" class="edge"><title>ndFp&#45;&gt;ndFp2Ser</title>
<path fill="none" stroke="black" d="M555.275,-419.097C558.33,-417.582 561.437,-416.182 564.5,-415 634.927,-387.812 658.077,-400.31 730.5,-379 731.38,-378.741 732.267,-378.475 733.157,-378.203"/>
<polygon fill="black" stroke="black" points="733.458,-378.105 737.926,-372.445 744.869,-374.392 740.402,-380.052 733.458,-378.105"/>
</g>
<!-- ndG2Affine&#45;&gt;ndG2Projective -->
<g id="edge16" class="edge"><title>ndG2Affine&#45;&gt;ndG2Projective</title>
<path fill="none" stroke="black" stroke-dasharray="5,2" d="M506.956,-248.937C502.204,-240.755 497.279,-231.35 493.086,-222.509"/>
<polygon fill="black" stroke="black" points="488.867,-213.223 497.1,-220.466 490.935,-217.775 493.003,-222.327 493.003,-222.327 493.003,-222.327 490.935,-217.775 488.906,-224.189 488.867,-213.223 488.867,-213.223"/>
</g>
<!-- ndG2Prepared -->
<g id="node8" class="node"><title>ndG2Prepared</title>
<g id="a_node8_14"><a xlink:href="https://github.com/filecoin-project/blstrs/blob/master/src/g2.rs#:~:text=struct%20G2Prepared" xlink:title="&lt;TABLE&gt;">
<polygon fill="lightblue" stroke="none" points="576.5,-170.5 576.5,-207.5 683.5,-207.5 683.5,-170.5 576.5,-170.5"/>
<polygon fill="none" stroke="black" points="576.5,-170.5 576.5,-207.5 683.5,-207.5 683.5,-170.5 576.5,-170.5"/>
<text text-anchor="start" x="587.5" y="-186.3" font-family="Arial" font-weight="bold" font-size="14.00">G2Prepared</text>
<polygon fill="none" stroke="black" points="575,-170 575,-209 684,-209 684,-170 575,-170"/>
</a>
</g>
</g>
<!-- ndG2Affine&#45;&gt;ndG2Prepared -->
<g id="edge17" class="edge"><title>ndG2Affine&#45;&gt;ndG2Prepared</title>
<path fill="none" stroke="black" stroke-dasharray="5,2" d="M553.748,-248.937C565.595,-239.798 579.422,-229.132 591.996,-219.432"/>
<polygon fill="black" stroke="black" points="600.044,-213.223 594.875,-222.894 596.085,-216.277 592.126,-219.331 592.126,-219.331 592.126,-219.331 596.085,-216.277 589.378,-215.768 600.044,-213.223 600.044,-213.223"/>
</g>
<!-- ndG2Projective&#45;&gt;ndG2Affine -->
<g id="edge18" class="edge"><title>ndG2Projective&#45;&gt;ndG2Affine</title>
<path fill="none" stroke="black" stroke-dasharray="5,2" d="M501.137,-213.223C505.891,-221.42 510.813,-230.83 514.996,-239.663"/>
<polygon fill="black" stroke="black" points="519.203,-248.937 510.973,-241.689 517.137,-244.384 515.072,-239.83 515.072,-239.83 515.072,-239.83 517.137,-244.384 519.17,-237.971 519.203,-248.937 519.203,-248.937"/>
</g>
<!-- ndG2Uncompressed -->
<g id="node9" class="node"><title>ndG2Uncompressed</title>
<g id="a_node9_15"><a xlink:href="https://github.com/filecoin-project/blstrs/blob/master/src/g2.rs#:~:text=struct%20G2Uncompressed" xlink:title="&lt;TABLE&gt;">
<polygon fill="lightblue" stroke="none" points="582.5,-419.5 582.5,-456.5 730.5,-456.5 730.5,-419.5 582.5,-419.5"/>
<polygon fill="none" stroke="black" points="582.5,-419.5 582.5,-456.5 730.5,-456.5 730.5,-419.5 582.5,-419.5"/>
<text text-anchor="start" x="593.5" y="-435.3" font-family="Arial" font-weight="bold" font-size="14.00">G2Uncompressed</text>
<polygon fill="none" stroke="black" points="581.5,-419 581.5,-458 731.5,-458 731.5,-419 581.5,-419"/>
</a>
</g>
</g>
<!-- ndG2Compressed -->
<g id="node10" class="node"><title>ndG2Compressed</title>
<g id="a_node10_16"><a xlink:href="https://github.com/filecoin-project/blstrs/blob/master/src/g2.rs#:~:text=struct%20G2Compressed" xlink:title="&lt;TABLE&gt;">
<polygon fill="lightblue" stroke="none" points="767.5,-419.5 767.5,-456.5 898.5,-456.5 898.5,-419.5 767.5,-419.5"/>
<polygon fill="none" stroke="black" points="767.5,-419.5 767.5,-456.5 898.5,-456.5 898.5,-419.5 767.5,-419.5"/>
<text text-anchor="start" x="778.5" y="-435.3" font-family="Arial" font-weight="bold" font-size="14.00">G2Compressed</text>
<polygon fill="none" stroke="black" points="766,-419 766,-458 899,-458 899,-419 766,-419"/>
</a>
</g>
</g>
<!-- ndFp6&#45;&gt;ndGtCompressed -->
<g id="edge19" class="edge"><title>ndFp6&#45;&gt;ndGtCompressed</title>
<path fill="none" stroke="black" d="M235.687,-248.985C233.754,-212.857 227.255,-140.192 205.5,-83 202.173,-74.2531 197.446,-65.4143 192.479,-57.349"/>
<polygon fill="black" stroke="black" points="192.459,-57.3189 185.833,-54.4755 185.909,-47.2648 192.535,-50.1082 192.459,-57.3189"/>
</g>
<!-- ndFp6&#45;&gt;ndFp12 -->
<g id="edge20" class="edge"><title>ndFp6&#45;&gt;ndFp12</title>
<path fill="none" stroke="black" stroke-dasharray="5,2" d="M217.558,-248.937C210.324,-240.32 201.951,-230.346 194.192,-221.104"/>
<polygon fill="black" stroke="black" points="187.576,-213.223 197.452,-217.988 190.791,-217.052 194.006,-220.882 194.006,-220.882 194.006,-220.882 190.791,-217.052 190.559,-223.775 187.576,-213.223 187.576,-213.223"/>
</g>
<!-- ndFp12Ser -->
<g id="node20" class="node"><title>ndFp12Ser</title>
<g id="a_node20_17"><a xlink:href="https://github.com/filecoin-project/blstrs/blob/master/src/serde_impl.rs#:~:text=struct%20Fp12Ser" xlink:title="&lt;TABLE&gt;">
<polygon fill="lightblue" stroke="none" points="310.5,-170.5 310.5,-207.5 391.5,-207.5 391.5,-170.5 310.5,-170.5"/>
<polygon fill="none" stroke="black" points="310.5,-170.5 310.5,-207.5 391.5,-207.5 391.5,-170.5 310.5,-170.5"/>
<text text-anchor="start" x="321.5" y="-186.3" font-family="Arial" font-weight="bold" font-size="14.00">Fp12Ser</text>
<polygon fill="none" stroke="black" points="309,-170 309,-209 392,-209 392,-170 309,-170"/>
</a>
</g>
</g>
<!-- ndFp6&#45;&gt;ndFp12Ser -->
<g id="edge21" class="edge"><title>ndFp6&#45;&gt;ndFp12Ser</title>
<path fill="none" stroke="black" d="M268.255,-248.937C280.75,-240.059 295.273,-229.74 308.608,-220.266"/>
<polygon fill="black" stroke="black" points="308.737,-220.173 311.312,-213.437 318.52,-213.223 315.945,-219.959 308.737,-220.173"/>
</g>
<!-- ndFp12&#45;&gt;ndGt -->
<g id="edge22" class="edge"><title>ndFp12&#45;&gt;ndGt</title>
<path fill="none" stroke="black" stroke-dasharray="5,2" d="M168.5,-165.937C168.5,-158.626 168.5,-150.337 168.5,-142.348"/>
<polygon fill="black" stroke="black" points="168.5,-142.223 164.5,-136.223 168.5,-130.223 172.5,-136.223 168.5,-142.223"/>
</g>
<!-- ndFp12&#45;&gt;ndMillerLoopResult -->
<g id="edge23" class="edge"><title>ndFp12&#45;&gt;ndMillerLoopResult</title>
<path fill="none" stroke="black" d="M192.138,-165.697C221.826,-137.056 272.898,-87.7871 306.18,-55.6794"/>
<polygon fill="black" stroke="black" points="306.427,-55.4414 307.968,-48.3968 315.063,-47.1098 313.522,-54.1544 306.427,-55.4414"/>
</g>
<!-- ndG1Affine&#45;&gt;ndG1Projective -->
<g id="edge24" class="edge"><title>ndG1Affine&#45;&gt;ndG1Projective</title>
<path fill="none" stroke="black" stroke-dasharray="5,2" d="M764.327,-248.937C764.42,-241.016 765.031,-231.949 766.018,-223.357"/>
<polygon fill="black" stroke="black" points="767.401,-213.223 770.508,-223.739 766.725,-218.177 766.049,-223.131 766.049,-223.131 766.049,-223.131 766.725,-218.177 761.591,-222.523 767.401,-213.223 767.401,-213.223"/>
</g>
<!-- ndG1Projective&#45;&gt;ndG1Affine -->
<g id="edge25" class="edge"><title>ndG1Projective&#45;&gt;ndG1Affine</title>
<path fill="none" stroke="black" stroke-dasharray="5,2" d="M779.672,-213.223C779.571,-221.159 778.955,-230.231 777.962,-238.816"/>
<polygon fill="black" stroke="black" points="776.573,-248.937 773.474,-238.418 777.253,-243.983 777.932,-239.03 777.932,-239.03 777.932,-239.03 777.253,-243.983 782.391,-239.641 776.573,-248.937 776.573,-248.937"/>
</g>
<!-- ndG1Uncompressed -->
<g id="node16" class="node"><title>ndG1Uncompressed</title>
<g id="a_node16_18"><a xlink:href="https://github.com/filecoin-project/blstrs/blob/master/src/g1.rs#:~:text=struct%20G1Uncompressed" xlink:title="&lt;TABLE&gt;">
<polygon fill="lightblue" stroke="none" points="934.5,-419.5 934.5,-456.5 1082.5,-456.5 1082.5,-419.5 934.5,-419.5"/>
<polygon fill="none" stroke="black" points="934.5,-419.5 934.5,-456.5 1082.5,-456.5 1082.5,-419.5 934.5,-419.5"/>
<text text-anchor="start" x="945.5" y="-435.3" font-family="Arial" font-weight="bold" font-size="14.00">G1Uncompressed</text>
<polygon fill="none" stroke="black" points="933.5,-419 933.5,-458 1083.5,-458 1083.5,-419 933.5,-419"/>
</a>
</g>
</g>
<!-- ndG1Compressed -->
<g id="node17" class="node"><title>ndG1Compressed</title>
<g id="a_node17_19"><a xlink:href="https://github.com/filecoin-project/blstrs/blob/master/src/g1.rs#:~:text=struct%20G1Compressed" xlink:title="&lt;TABLE&gt;">
<polygon fill="lightblue" stroke="none" points="1119.5,-419.5 1119.5,-456.5 1250.5,-456.5 1250.5,-419.5 1119.5,-419.5"/>
<polygon fill="none" stroke="black" points="1119.5,-419.5 1119.5,-456.5 1250.5,-456.5 1250.5,-419.5 1119.5,-419.5"/>
<text text-anchor="start" x="1130.5" y="-435.3" font-family="Arial" font-weight="bold" font-size="14.00">G1Compressed</text>
<polygon fill="none" stroke="black" points="1118,-419 1118,-458 1251,-458 1251,-419 1118,-419"/>
</a>
</g>
</g>
<!-- ndScalar -->
<g id="node21" class="node"><title>ndScalar</title>
<g id="a_node21_20"><a xlink:href="https://github.com/filecoin-project/blstrs/blob/master/src/scalar.rs#:~:text=struct%20Scalar" xlink:title="&lt;TABLE&gt;">
<polygon fill="lightblue" stroke="none" points="569.5,-336.5 569.5,-373.5 636.5,-373.5 636.5,-336.5 569.5,-336.5"/>
<polygon fill="none" stroke="black" points="569.5,-336.5 569.5,-373.5 636.5,-373.5 636.5,-336.5 569.5,-336.5"/>
<text text-anchor="start" x="580.5" y="-352.3" font-family="Arial" font-weight="bold" font-size="14.00">Scalar</text>
<polygon fill="none" stroke="black" points="568,-336 568,-375 637,-375 637,-336 568,-336"/>
</a>
</g>
</g>
<!-- ndScalar&#45;&gt;ndGt -->
<g id="edge26" class="edge"><title>ndScalar&#45;&gt;ndGt</title>
<path fill="none" stroke="black" stroke-dasharray="5,2" d="M559.916,-351.466C508.739,-346.279 421.628,-332.438 356.5,-296 319.055,-275.05 237.038,-185.339 194.797,-137.625"/>
<polygon fill="black" stroke="black" points="188.126,-130.066 198.117,-134.586 191.435,-133.815 194.743,-137.564 194.743,-137.564 194.743,-137.564 191.435,-133.815 191.369,-140.541 188.126,-130.066 188.126,-130.066"/>
</g>
<!-- ndScalar&#45;&gt;ndG2Affine -->
<g id="edge27" class="edge"><title>ndScalar&#45;&gt;ndG2Affine</title>
<path fill="none" stroke="black" stroke-dasharray="5,2" d="M580.773,-331.937C572.307,-323.146 562.481,-312.942 553.432,-303.544"/>
<polygon fill="black" stroke="black" points="546.381,-296.223 556.559,-300.305 549.85,-299.825 553.318,-303.426 553.318,-303.426 553.318,-303.426 549.85,-299.825 550.076,-306.548 546.381,-296.223 546.381,-296.223"/>
</g>
<!-- ndScalar&#45;&gt;ndG2Projective -->
<g id="edge28" class="edge"><title>ndScalar&#45;&gt;ndG2Projective</title>
<path fill="none" stroke="black" stroke-dasharray="5,2" d="M603.682,-331.845C603.751,-308.957 600.661,-273.562 583.5,-249 574.889,-236.675 562.781,-226.56 549.952,-218.415"/>
<polygon fill="black" stroke="black" points="540.989,-213.088 551.885,-214.329 545.287,-215.643 549.585,-218.198 549.585,-218.198 549.585,-218.198 545.287,-215.643 547.286,-222.066 540.989,-213.088 540.989,-213.088"/>
</g>
<!-- ndScalar&#45;&gt;ndG1Affine -->
<g id="edge29" class="edge"><title>ndScalar&#45;&gt;ndG1Affine</title>
<path fill="none" stroke="black" stroke-dasharray="5,2" d="M645.249,-333.64C665.843,-323.592 690.798,-311.415 712.853,-300.653"/>
<polygon fill="black" stroke="black" points="722.106,-296.138 715.093,-304.567 717.613,-298.331 713.119,-300.523 713.119,-300.523 713.119,-300.523 717.613,-298.331 711.146,-296.479 722.106,-296.138 722.106,-296.138"/>
</g>
<!-- ndScalar&#45;&gt;ndG1Projective -->
<g id="edge30" class="edge"><title>ndScalar&#45;&gt;ndG1Projective</title>
<path fill="none" stroke="black" stroke-dasharray="5,2" d="M611.37,-331.886C621.392,-308.701 639.607,-272.767 664.5,-249 677.341,-236.74 693.257,-226.356 708.988,-217.898"/>
<polygon fill="black" stroke="black" points="718.204,-213.14 711.383,-221.726 713.761,-215.434 709.318,-217.727 709.318,-217.727 709.318,-217.727 713.761,-215.434 707.254,-213.729 718.204,-213.14 718.204,-213.14"/>
</g>
</g>
</svg>
