<?xml version="1.0" encoding="UTF-8" standalone="no"?>
<!DOCTYPE svg PUBLIC "-//W3C//DTD SVG 1.1//EN"
 "http://www.w3.org/Graphics/SVG/1.1/DTD/svg11.dtd">
<!-- Generated by graphviz version 2.38.0 (20140413.2041)
 -->
<!-- Title: ml Pages: 1 -->
<svg width="1545pt" height="692pt"
 viewBox="0.00 0.00 1544.50 692.00" xmlns="http://www.w3.org/2000/svg" xmlns:xlink="http://www.w3.org/1999/xlink">
<g id="graph0" class="graph" transform="scale(1 1) rotate(0) translate(4 688)">
<title>ml</title>
<polygon fill="white" stroke="none" points="-4,4 -4,-688 1540.5,-688 1540.5,4 -4,4"/>
<!-- ndRevealedCommitment -->
<g id="node1" class="node"><title>ndRevealedCommitment</title>
<g id="a_node1_0"><a xlink:href="https://github.com/maidsafe/blst-ringct/blob/master/src/lib.rs#:~:text=struct%20RevealedCommitment" xlink:title="&lt;TABLE&gt;">
<polygon fill="lightblue" stroke="none" points="325.5,-596.5 325.5,-633.5 499.5,-633.5 499.5,-596.5 325.5,-596.5"/>
<polygon fill="none" stroke="black" points="325.5,-596.5 325.5,-633.5 499.5,-633.5 499.5,-596.5 325.5,-596.5"/>
<text text-anchor="start" x="336.5" y="-612.3" font-family="Arial" font-weight="bold" font-size="14.00">RevealedCommitment</text>
<polygon fill="white" stroke="none" points="325.5,-544.5 325.5,-596.5 499.5,-596.5 499.5,-544.5 325.5,-544.5"/>
<polygon fill="none" stroke="black" points="325.5,-544.5 325.5,-596.5 499.5,-596.5 499.5,-544.5 325.5,-544.5"/>
<text text-anchor="start" x="336.5" y="-574.3" font-family="Arial" font-size="14.00">+ value: u64</text>
<text text-anchor="start" x="336.5" y="-559.3" font-family="Arial" font-size="14.00">+ blinding: Scalar</text>
<polygon fill="none" stroke="black" points="324.5,-544 324.5,-635 500.5,-635 500.5,-544 324.5,-544"/>
</a>
</g>
</g>
<!-- ndOutput -->
<g id="node3" class="node"><title>ndOutput</title>
<g id="a_node3_1"><a xlink:href="https://github.com/maidsafe/blst-ringct/blob/master/src/ringct.rs#:~:text=struct%20Output" xlink:title="&lt;TABLE&gt;">
<polygon fill="lightblue" stroke="none" points="9.5,-214 9.5,-251 176.5,-251 176.5,-214 9.5,-214"/>
<polygon fill="none" stroke="black" points="9.5,-214 9.5,-251 176.5,-251 176.5,-214 9.5,-214"/>
<text text-anchor="start" x="69" y="-229.8" font-family="Arial" font-weight="bold" font-size="14.00">Output</text>
<polygon fill="white" stroke="none" points="9.5,-162 9.5,-214 176.5,-214 176.5,-162 9.5,-162"/>
<polygon fill="none" stroke="black" points="9.5,-162 9.5,-214 176.5,-214 176.5,-162 9.5,-162"/>
<text text-anchor="start" x="20.5" y="-191.8" font-family="Arial" font-size="14.00">+ public_key: G1Affine</text>
<text text-anchor="start" x="20.5" y="-176.8" font-family="Arial" font-size="14.00">+ amount: u64</text>
<polygon fill="none" stroke="black" points="8,-161.5 8,-252.5 177,-252.5 177,-161.5 8,-161.5"/>
</a>
</g>
</g>
<!-- ndRevealedCommitment&#45;&gt;ndOutput -->
<g id="edge1" class="edge"><title>ndRevealedCommitment&#45;&gt;ndOutput</title>
<path fill="none" stroke="black" d="M371.647,-539.923C312.39,-469.464 202.834,-339.194 140.036,-264.523"/>
<polygon fill="black" stroke="black" points="133.362,-256.588 143.243,-261.345 136.581,-260.415 139.799,-264.241 139.799,-264.241 139.799,-264.241 136.581,-260.415 136.355,-267.138 133.362,-256.588 133.362,-256.588"/>
</g>
<!-- ndRevealedOutputCommitment -->
<g id="node4" class="node"><title>ndRevealedOutputCommitment</title>
<g id="a_node4_2"><a xlink:href="https://github.com/maidsafe/blst-ringct/blob/master/src/ringct.rs#:~:text=struct%20RevealedOutputCommitment" xlink:title="&lt;TABLE&gt;">
<polygon fill="lightblue" stroke="none" points="212.5,-214 212.5,-251 537.5,-251 537.5,-214 212.5,-214"/>
<polygon fill="none" stroke="black" points="212.5,-214 212.5,-251 537.5,-251 537.5,-214 212.5,-214"/>
<text text-anchor="start" x="275.5" y="-229.8" font-family="Arial" font-weight="bold" font-size="14.00">RevealedOutputCommitment</text>
<polygon fill="white" stroke="none" points="212.5,-162 212.5,-214 537.5,-214 537.5,-162 212.5,-162"/>
<polygon fill="none" stroke="black" points="212.5,-162 212.5,-214 537.5,-214 537.5,-162 212.5,-162"/>
<text text-anchor="start" x="223.5" y="-191.8" font-family="Arial" font-size="14.00">+ public_key: G1Affine</text>
<text text-anchor="start" x="223.5" y="-176.8" font-family="Arial" font-size="14.00">+ revealed_commitment: RevealedCommitment</text>
<polygon fill="none" stroke="black" points="211,-161.5 211,-252.5 538,-252.5 538,-161.5 211,-161.5"/>
</a>
</g>
</g>
<!-- ndRevealedCommitment&#45;&gt;ndRevealedOutputCommitment -->
<g id="edge2" class="edge"><title>ndRevealedCommitment&#45;&gt;ndRevealedOutputCommitment</title>
<path fill="none" stroke="black" d="M407.106,-539.934C404.444,-515.636 401.227,-485.772 398.5,-459 391.882,-394.024 384.826,-319.53 380.09,-268.682"/>
<polygon fill="black" stroke="black" points="380.079,-268.553 375.54,-262.949 378.968,-256.605 383.506,-262.209 380.079,-268.553"/>
</g>
<!-- ndRingCtMaterial -->
<g id="node5" class="node"><title>ndRingCtMaterial</title>
<g id="a_node5_3"><a xlink:href="https://github.com/maidsafe/blst-ringct/blob/master/src/ringct.rs#:~:text=struct%20RingCtMaterial" xlink:title="&lt;TABLE&gt;">
<polygon fill="lightblue" stroke="none" points="588.5,-56.5 588.5,-93.5 795.5,-93.5 795.5,-56.5 588.5,-56.5"/>
<polygon fill="none" stroke="black" points="588.5,-56.5 588.5,-93.5 795.5,-93.5 795.5,-56.5 588.5,-56.5"/>
<text text-anchor="start" x="640.5" y="-72.3" font-family="Arial" font-weight="bold" font-size="14.00">RingCtMaterial</text>
<polygon fill="white" stroke="none" points="588.5,-4.5 588.5,-56.5 795.5,-56.5 795.5,-4.5 588.5,-4.5"/>
<polygon fill="none" stroke="black" points="588.5,-4.5 588.5,-56.5 795.5,-56.5 795.5,-4.5 588.5,-4.5"/>
<text text-anchor="start" x="599.5" y="-34.3" font-family="Arial" font-size="14.00">+ inputs: Vec&lt;MlsagMaterial&gt;</text>
<text text-anchor="start" x="599.5" y="-19.3" font-family="Arial" font-size="14.00">+ outputs: Vec&lt;Output&gt;</text>
<polygon fill="none" stroke="black" points="587,-4 587,-95 796,-95 796,-4 587,-4"/>
</a>
</g>
</g>
<!-- ndRevealedCommitment&#45;&gt;ndRingCtMaterial -->
<g id="edge3" class="edge"><title>ndRevealedCommitment&#45;&gt;ndRingCtMaterial</title>
<path fill="none" stroke="black" d="M409.253,-539.9C405.683,-470.711 403.597,-348.475 430.5,-315 466.449,-270.269 509.047,-314.032 554.5,-279 611.235,-235.274 649.462,-160.833 670.812,-108.839"/>
<polygon fill="black" stroke="black" points="674.603,-99.4048 675.05,-110.362 672.738,-104.044 670.874,-108.684 670.874,-108.684 670.874,-108.684 672.738,-104.044 666.699,-107.006 674.603,-99.4048 674.603,-99.4048"/>
</g>
<!-- ndTrueInput -->
<g id="node8" class="node"><title>ndTrueInput</title>
<g id="a_node8_4"><a xlink:href="https://github.com/maidsafe/blst-ringct/blob/master/src/mlsag.rs#:~:text=struct%20TrueInput" xlink:title="&lt;TABLE&gt;">
<polygon fill="lightblue" stroke="none" points="449.5,-394 449.5,-431 774.5,-431 774.5,-394 449.5,-394"/>
<polygon fill="none" stroke="black" points="449.5,-394 449.5,-431 774.5,-431 774.5,-394 449.5,-394"/>
<text text-anchor="start" x="578" y="-409.8" font-family="Arial" font-weight="bold" font-size="14.00">TrueInput</text>
<polygon fill="white" stroke="none" points="449.5,-342 449.5,-394 774.5,-394 774.5,-342 449.5,-342"/>
<polygon fill="none" stroke="black" points="449.5,-342 449.5,-394 774.5,-394 774.5,-342 449.5,-342"/>
<text text-anchor="start" x="460.5" y="-371.8" font-family="Arial" font-size="14.00">+ secret_key: Scalar</text>
<text text-anchor="start" x="460.5" y="-356.8" font-family="Arial" font-size="14.00">+ revealed_commitment: RevealedCommitment</text>
<polygon fill="none" stroke="black" points="448,-341.5 448,-432.5 775,-432.5 775,-341.5 448,-341.5"/>
</a>
</g>
</g>
<!-- ndRevealedCommitment&#45;&gt;ndTrueInput -->
<g id="edge4" class="edge"><title>ndRevealedCommitment&#45;&gt;ndTrueInput</title>
<path fill="none" stroke="black" d="M460.672,-539.965C488.94,-511.484 524.818,-475.335 554.489,-445.44"/>
<polygon fill="black" stroke="black" points="554.628,-445.301 556.016,-438.224 563.082,-436.783 561.694,-443.86 554.628,-445.301"/>
</g>
<!-- ndMlsagMaterial -->
<g id="node10" class="node"><title>ndMlsagMaterial</title>
<g id="a_node10_5"><a xlink:href="https://github.com/maidsafe/blst-ringct/blob/master/src/mlsag.rs#:~:text=struct%20MlsagMaterial" xlink:title="&lt;TABLE&gt;">
<polygon fill="lightblue" stroke="none" points="690.5,-237 690.5,-274 931.5,-274 931.5,-237 690.5,-237"/>
<polygon fill="none" stroke="black" points="690.5,-237 690.5,-274 931.5,-274 931.5,-237 690.5,-237"/>
<text text-anchor="start" x="762" y="-252.8" font-family="Arial" font-weight="bold" font-size="14.00">MlsagMaterial</text>
<polygon fill="white" stroke="none" points="690.5,-140 690.5,-237 931.5,-237 931.5,-140 690.5,-140"/>
<polygon fill="none" stroke="black" points="690.5,-140 690.5,-237 931.5,-237 931.5,-140 690.5,-140"/>
<text text-anchor="start" x="701.5" y="-214.8" font-family="Arial" font-size="14.00">+ true_input: TrueInput</text>
<text text-anchor="start" x="701.5" y="-199.8" font-family="Arial" font-size="14.00">+ decoy_inputs: Vec&lt;DecoyInput&gt;</text>
<text text-anchor="start" x="701.5" y="-184.8" font-family="Arial" font-size="14.00">+ pi_base: u32</text>
<text text-anchor="start" x="701.5" y="-169.8" font-family="Arial" font-size="14.00">+ alpha: (Scalar, Scalar)</text>
<text text-anchor="start" x="701.5" y="-154.8" font-family="Arial" font-size="14.00">+ r: Vec&lt;(Scalar, Scalar)&gt;</text>
<polygon fill="none" stroke="black" points="689,-139 689,-275 932,-275 932,-139 689,-139"/>
</a>
</g>
</g>
<!-- ndRevealedCommitment&#45;&gt;ndMlsagMaterial -->
<g id="edge5" class="edge"><title>ndRevealedCommitment&#45;&gt;ndMlsagMaterial</title>
<path fill="none" stroke="black" stroke-dasharray="5,2" d="M455.178,-539.925C472.758,-522.973 494.416,-505.561 517.5,-495 573.345,-469.45 749.287,-503.604 791.5,-459 814.025,-435.198 816.679,-353.138 815.013,-289.249"/>
<polygon fill="black" stroke="black" points="814.711,-279.163 819.509,-289.024 814.861,-284.161 815.011,-289.158 815.011,-289.158 815.011,-289.158 814.861,-284.161 810.513,-289.293 814.711,-279.163 814.711,-279.163"/>
</g>
<!-- ndError -->
<g id="node2" class="node"><title>ndError</title>
<g id="a_node2_6"><a xlink:href="https://github.com/maidsafe/blst-ringct/blob/master/src/error.rs#:~:text=enum%20Error" xlink:title="&lt;TABLE&gt;">
<polygon fill="yellow" stroke="none" points="535.5,-641.5 535.5,-678.5 943.5,-678.5 943.5,-641.5 535.5,-641.5"/>
<polygon fill="none" stroke="black" points="535.5,-641.5 535.5,-678.5 943.5,-678.5 943.5,-641.5 535.5,-641.5"/>
<text text-anchor="start" x="721" y="-657.3" font-family="Arial" font-weight="bold" font-size="14.00">Error</text>
<polygon fill="white" stroke="none" points="535.5,-499.5 535.5,-641.5 943.5,-641.5 943.5,-499.5 535.5,-499.5"/>
<polygon fill="none" stroke="black" points="535.5,-499.5 535.5,-641.5 943.5,-641.5 943.5,-499.5 535.5,-499.5"/>
<text text-anchor="start" x="546.5" y="-619.3" font-family="Arial" font-size="14.00">ExpectedAPublicCommitmentsForEachRingEntry</text>
<text text-anchor="start" x="546.5" y="-604.3" font-family="Arial" font-size="14.00">InvalidHiddenCommitmentInRing</text>
<text text-anchor="start" x="546.5" y="-589.3" font-family="Arial" font-size="14.00">InputPseudoCommitmentsDoNotSumToOutputCommitments</text>
<text text-anchor="start" x="546.5" y="-574.3" font-family="Arial" font-size="14.00">InvalidRingSignature</text>
<text text-anchor="start" x="546.5" y="-559.3" font-family="Arial" font-size="14.00">KeyImageNotOnCurve</text>
<text text-anchor="start" x="546.5" y="-544.3" font-family="Arial" font-size="14.00">BulletProofs(bulletproofs::ProofError)</text>
<text text-anchor="start" x="546.5" y="-529.3" font-family="Arial" font-size="14.00">TransactionMustHaveAnInput</text>
<text text-anchor="start" x="546.5" y="-514.3" font-family="Arial" font-size="14.00">KeyImageNotUniqueAcrossInputs</text>
<polygon fill="none" stroke="black" points="534.5,-499 534.5,-680 944.5,-680 944.5,-499 534.5,-499"/>
</a>
</g>
</g>
<!-- ndOutput&#45;&gt;ndRingCtMaterial -->
<g id="edge6" class="edge"><title>ndOutput&#45;&gt;ndRingCtMaterial</title>
<path fill="none" stroke="black" d="M152.455,-157.428C165.391,-148.832 179.427,-140.791 193.5,-135 314.411,-85.2427 463.405,-64.7812 566.756,-56.3689"/>
<polygon fill="black" stroke="black" points="566.85,-56.3616 572.52,-51.9056 578.813,-55.4252 573.144,-59.8812 566.85,-56.3616"/>
</g>
<!-- ndRevealedOutputCommitment&#45;&gt;ndRingCtMaterial -->
<g id="edge7" class="edge"><title>ndRevealedOutputCommitment&#45;&gt;ndRingCtMaterial</title>
<path fill="none" stroke="black" d="M473.497,-157.438C508.266,-140.383 547.505,-121.135 583.013,-103.717"/>
<polygon fill="black" stroke="black" points="592.437,-99.0942 585.44,-107.538 587.948,-101.296 583.459,-103.498 583.459,-103.498 583.459,-103.498 587.948,-101.296 581.477,-99.4582 592.437,-99.0942 592.437,-99.0942"/>
</g>
<!-- ndOutputProof -->
<g id="node6" class="node"><title>ndOutputProof</title>
<g id="a_node6_7"><a xlink:href="https://github.com/maidsafe/blst-ringct/blob/master/src/ringct.rs#:~:text=struct%20OutputProof" xlink:title="&lt;TABLE&gt;">
<polygon fill="lightblue" stroke="none" points="1333.5,-402 1333.5,-439 1527.5,-439 1527.5,-402 1333.5,-402"/>
<polygon fill="none" stroke="black" points="1333.5,-402 1333.5,-439 1527.5,-439 1527.5,-402 1333.5,-402"/>
<text text-anchor="start" x="1387.5" y="-417.8" font-family="Arial" font-weight="bold" font-size="14.00">OutputProof</text>
<polygon fill="white" stroke="none" points="1333.5,-335 1333.5,-402 1527.5,-402 1527.5,-335 1333.5,-335"/>
<polygon fill="none" stroke="black" points="1333.5,-335 1333.5,-402 1527.5,-402 1527.5,-335 1333.5,-335"/>
<text text-anchor="start" x="1344.5" y="-379.8" font-family="Arial" font-size="14.00">&#45; public_key: G1Affine</text>
<text text-anchor="start" x="1344.5" y="-364.8" font-family="Arial" font-size="14.00">&#45; range_proof: RangeProof</text>
<text text-anchor="start" x="1344.5" y="-349.8" font-family="Arial" font-size="14.00">&#45; commitment: G1Affine</text>
<polygon fill="none" stroke="black" points="1332.5,-334 1332.5,-440 1528.5,-440 1528.5,-334 1332.5,-334"/>
</a>
</g>
</g>
<!-- ndOutputProof&#45;&gt;ndRingCtMaterial -->
<g id="edge8" class="edge"><title>ndOutputProof&#45;&gt;ndRingCtMaterial</title>
<path fill="none" stroke="black" d="M1419.87,-329.869C1405.65,-271.291 1374.4,-181.613 1310.5,-135 1233.71,-78.98 971.897,-60.0591 814.421,-53.6967"/>
<polygon fill="black" stroke="black" points="804.202,-53.2955 814.371,-49.1913 809.198,-53.4917 814.194,-53.6879 814.194,-53.6879 814.194,-53.6879 809.198,-53.4917 814.018,-58.1844 804.202,-53.2955 804.202,-53.2955"/>
</g>
<!-- ndRingCtTransaction -->
<g id="node7" class="node"><title>ndRingCtTransaction</title>
<g id="a_node7_8"><a xlink:href="https://github.com/maidsafe/blst-ringct/blob/master/src/ringct.rs#:~:text=struct%20RingCtTransaction" xlink:title="&lt;TABLE&gt;">
<polygon fill="lightblue" stroke="none" points="1065.5,-214 1065.5,-251 1292.5,-251 1292.5,-214 1065.5,-214"/>
<polygon fill="none" stroke="black" points="1065.5,-214 1065.5,-251 1292.5,-251 1292.5,-214 1065.5,-214"/>
<text text-anchor="start" x="1114" y="-229.8" font-family="Arial" font-weight="bold" font-size="14.00">RingCtTransaction</text>
<polygon fill="white" stroke="none" points="1065.5,-162 1065.5,-214 1292.5,-214 1292.5,-162 1065.5,-162"/>
<polygon fill="none" stroke="black" points="1065.5,-162 1065.5,-214 1292.5,-214 1292.5,-162 1065.5,-162"/>
<text text-anchor="start" x="1076.5" y="-191.8" font-family="Arial" font-size="14.00">+ mlsags: Vec&lt;MlsagSignature&gt;</text>
<text text-anchor="start" x="1076.5" y="-176.8" font-family="Arial" font-size="14.00">+ outputs: Vec&lt;OutputProof&gt;</text>
<polygon fill="none" stroke="black" points="1064,-161.5 1064,-252.5 1293,-252.5 1293,-161.5 1064,-161.5"/>
</a>
</g>
</g>
<!-- ndOutputProof&#45;&gt;ndRingCtTransaction -->
<g id="edge9" class="edge"><title>ndOutputProof&#45;&gt;ndRingCtTransaction</title>
<path fill="none" stroke="black" d="M1351.11,-329.924C1321.17,-308.775 1287.14,-284.738 1257.26,-263.63"/>
<polygon fill="black" stroke="black" points="1257.09,-263.515 1249.89,-263.321 1247.29,-256.592 1254.5,-256.786 1257.09,-263.515"/>
</g>
<!-- ndRingCtTransaction&#45;&gt;ndRingCtMaterial -->
<g id="edge10" class="edge"><title>ndRingCtTransaction&#45;&gt;ndRingCtMaterial</title>
<path fill="none" stroke="black" d="M1055.92,-166.861C981.902,-143.226 887.9,-113.211 813.909,-89.5853"/>
<polygon fill="black" stroke="black" points="804.067,-86.4429 814.962,-85.1979 808.83,-87.9638 813.593,-89.4847 813.593,-89.4847 813.593,-89.4847 808.83,-87.9638 812.225,-93.7715 804.067,-86.4429 804.067,-86.4429"/>
</g>
<!-- ndTrueInput&#45;&gt;ndMlsagMaterial -->
<g id="edge11" class="edge"><title>ndTrueInput&#45;&gt;ndMlsagMaterial</title>
<path fill="none" stroke="black" stroke-dasharray="5,2" d="M665.878,-337.361C683.164,-321.899 702.755,-304.375 721.811,-287.33"/>
<polygon fill="black" stroke="black" points="721.869,-287.278 723.674,-280.297 730.813,-279.278 729.008,-286.259 721.869,-287.278"/>
</g>
<!-- ndDecoyInput -->
<g id="node9" class="node"><title>ndDecoyInput</title>
<g id="a_node9_9"><a xlink:href="https://github.com/maidsafe/blst-ringct/blob/master/src/mlsag.rs#:~:text=struct%20DecoyInput" xlink:title="&lt;TABLE&gt;">
<polygon fill="lightblue" stroke="none" points="847.5,-394 847.5,-431 1024.5,-431 1024.5,-394 847.5,-394"/>
<polygon fill="none" stroke="black" points="847.5,-394 847.5,-431 1024.5,-431 1024.5,-394 847.5,-394"/>
<text text-anchor="start" x="896" y="-409.8" font-family="Arial" font-weight="bold" font-size="14.00">DecoyInput</text>
<polygon fill="white" stroke="none" points="847.5,-342 847.5,-394 1024.5,-394 1024.5,-342 847.5,-342"/>
<polygon fill="none" stroke="black" points="847.5,-342 847.5,-394 1024.5,-394 1024.5,-342 847.5,-342"/>
<text text-anchor="start" x="858.5" y="-371.8" font-family="Arial" font-size="14.00">+ public_key: G1Affine</text>
<text text-anchor="start" x="858.5" y="-356.8" font-family="Arial" font-size="14.00">+ commitment: G1Affine</text>
<polygon fill="none" stroke="black" points="846,-341.5 846,-432.5 1025,-432.5 1025,-341.5 846,-341.5"/>
</a>
</g>
</g>
<!-- ndDecoyInput&#45;&gt;ndMlsagMaterial -->
<g id="edge12" class="edge"><title>ndDecoyInput&#45;&gt;ndMlsagMaterial</title>
<path fill="none" stroke="black" d="M901.343,-337.361C890.927,-322.528 879.179,-305.799 867.673,-289.415"/>
<polygon fill="black" stroke="black" points="867.451,-289.098 860.729,-286.487 860.555,-279.278 867.276,-281.889 867.451,-289.098"/>
</g>
<!-- ndMlsagMaterial&#45;&gt;ndRingCtMaterial -->
<g id="edge13" class="edge"><title>ndMlsagMaterial&#45;&gt;ndRingCtMaterial</title>
<path fill="none" stroke="black" d="M755.876,-134.622C749.289,-126.014 742.621,-117.301 736.199,-108.909"/>
<polygon fill="black" stroke="black" points="736.086,-108.761 729.263,-106.427 728.793,-99.2312 735.616,-101.565 736.086,-108.761"/>
</g>
<!-- ndMlsagSignature -->
<g id="node11" class="node"><title>ndMlsagSignature</title>
<g id="a_node11_10"><a xlink:href="https://github.com/maidsafe/blst-ringct/blob/master/src/mlsag.rs#:~:text=struct%20MlsagSignature" xlink:title="&lt;TABLE&gt;">
<polygon fill="lightblue" stroke="none" points="1060.5,-417 1060.5,-454 1297.5,-454 1297.5,-417 1060.5,-417"/>
<polygon fill="none" stroke="black" points="1060.5,-417 1060.5,-454 1297.5,-454 1297.5,-417 1060.5,-417"/>
<text text-anchor="start" x="1124" y="-432.8" font-family="Arial" font-weight="bold" font-size="14.00">MlsagSignature</text>
<polygon fill="white" stroke="none" points="1060.5,-320 1060.5,-417 1297.5,-417 1297.5,-320 1060.5,-320"/>
<polygon fill="none" stroke="black" points="1060.5,-320 1060.5,-417 1297.5,-417 1297.5,-320 1060.5,-320"/>
<text text-anchor="start" x="1071.5" y="-394.8" font-family="Arial" font-size="14.00">+ c0: Scalar</text>
<text text-anchor="start" x="1071.5" y="-379.8" font-family="Arial" font-size="14.00">+ r: Vec&lt;(Scalar, Scalar)&gt;</text>
<text text-anchor="start" x="1071.5" y="-364.8" font-family="Arial" font-size="14.00">+ key_image: G1Affine</text>
<text text-anchor="start" x="1071.5" y="-349.8" font-family="Arial" font-size="14.00">+ ring: Vec&lt;(G1Affine, G1Affine)&gt;</text>
<text text-anchor="start" x="1071.5" y="-334.8" font-family="Arial" font-size="14.00">+ pseudo_commitment: G1Affine</text>
<polygon fill="none" stroke="black" points="1059,-319 1059,-455 1298,-455 1298,-319 1059,-319"/>
</a>
</g>
</g>
<!-- ndMlsagSignature&#45;&gt;ndRingCtTransaction -->
<g id="edge14" class="edge"><title>ndMlsagSignature&#45;&gt;ndRingCtTransaction</title>
<path fill="none" stroke="black" d="M1178.5,-314.882C1178.5,-299.6 1178.5,-283.585 1178.5,-268.74"/>
<polygon fill="black" stroke="black" points="1178.5,-268.587 1174.5,-262.587 1178.5,-256.587 1182.5,-262.587 1178.5,-268.587"/>
</g>
<!-- ndMlsagSignature&#45;&gt;ndMlsagMaterial -->
<g id="edge15" class="edge"><title>ndMlsagSignature&#45;&gt;ndMlsagMaterial</title>
<path fill="none" stroke="black" d="M1050.98,-319.676C1047.79,-318.094 1044.63,-316.533 1041.5,-315 1011.92,-300.494 979.983,-285.364 949.568,-271.203"/>
<polygon fill="black" stroke="black" points="940.182,-266.841 951.147,-266.975 944.716,-268.948 949.25,-271.055 949.25,-271.055 949.25,-271.055 944.716,-268.948 947.354,-275.136 940.182,-266.841 940.182,-266.841"/>
</g>
</g>
</svg>
