<?xml version="1.0" encoding="UTF-8" standalone="no"?>
<!DOCTYPE svg PUBLIC "-//W3C//DTD SVG 1.1//EN"
 "http://www.w3.org/Graphics/SVG/1.1/DTD/svg11.dtd">
<!-- Generated by graphviz version 2.38.0 (20140413.2041)
 -->
<!-- Title: ml Pages: 1 -->
<svg width="599pt" height="55pt"
 viewBox="0.00 0.00 599.00 55.00" xmlns="http://www.w3.org/2000/svg" xmlns:xlink="http://www.w3.org/1999/xlink">
<g id="graph0" class="graph" transform="scale(1 1) rotate(0) translate(4 51)">
<title>ml</title>
<polygon fill="white" stroke="none" points="-4,4 -4,-51 595,-51 595,4 -4,4"/>
<!-- ndCompress -->
<g id="node1" class="node"><title>ndCompress</title>
<g id="a_node1_0"><a xlink:href="https://github.com/filecoin-project/blstrs/blob/master/src/traits.rs#:~:text=trait%20Compress" xlink:title="&lt;TABLE&gt;">
<polygon fill="lightgreen" stroke="none" points="9.5,-4.5 9.5,-41.5 104.5,-41.5 104.5,-4.5 9.5,-4.5"/>
<polygon fill="none" stroke="black" points="9.5,-4.5 9.5,-41.5 104.5,-41.5 104.5,-4.5 9.5,-4.5"/>
<text text-anchor="start" x="20.5" y="-20.3" font-family="Arial" font-weight="bold" font-size="14.00">Compress</text>
<polygon fill="none" stroke="black" points="8,-4 8,-43 105,-43 105,-4 8,-4"/>
</a>
</g>
</g>
<!-- ndG2Prepared -->
<g id="node2" class="node"><title>ndG2Prepared</title>
<g id="a_node2_1"><a xlink:href="https://github.com/filecoin-project/blstrs/blob/master/src/g2.rs#:~:text=struct%20G2Prepared" xlink:title="&lt;TABLE&gt;">
<polygon fill="lightblue" stroke="none" points="140.5,-4.5 140.5,-41.5 247.5,-41.5 247.5,-4.5 140.5,-4.5"/>
<polygon fill="none" stroke="black" points="140.5,-4.5 140.5,-41.5 247.5,-41.5 247.5,-4.5 140.5,-4.5"/>
<text text-anchor="start" x="151.5" y="-20.3" font-family="Arial" font-weight="bold" font-size="14.00">G2Prepared</text>
<polygon fill="none" stroke="black" points="139,-4 139,-43 248,-43 248,-4 139,-4"/>
</a>
</g>
</g>
<!-- ndFp2Ser -->
<g id="node3" class="node"><title>ndFp2Ser</title>
<g id="a_node3_2"><a xlink:href="https://github.com/filecoin-project/blstrs/blob/master/src/serde_impl.rs#:~:text=struct%20Fp2Ser" xlink:title="&lt;TABLE&gt;">
<polygon fill="lightblue" stroke="none" points="283.5,-4.5 283.5,-41.5 356.5,-41.5 356.5,-4.5 283.5,-4.5"/>
<polygon fill="none" stroke="black" points="283.5,-4.5 283.5,-41.5 356.5,-41.5 356.5,-4.5 283.5,-4.5"/>
<text text-anchor="start" x="294.5" y="-20.3" font-family="Arial" font-weight="bold" font-size="14.00">Fp2Ser</text>
<polygon fill="none" stroke="black" points="282,-4 282,-43 357,-43 357,-4 282,-4"/>
</a>
</g>
</g>
<!-- ndFp6Ser -->
<g id="node4" class="node"><title>ndFp6Ser</title>
<g id="a_node4_3"><a xlink:href="https://github.com/filecoin-project/blstrs/blob/master/src/serde_impl.rs#:~:text=struct%20Fp6Ser" xlink:title="&lt;TABLE&gt;">
<polygon fill="lightblue" stroke="none" points="392.5,-4.5 392.5,-41.5 465.5,-41.5 465.5,-4.5 392.5,-4.5"/>
<polygon fill="none" stroke="black" points="392.5,-4.5 392.5,-41.5 465.5,-41.5 465.5,-4.5 392.5,-4.5"/>
<text text-anchor="start" x="403.5" y="-20.3" font-family="Arial" font-weight="bold" font-size="14.00">Fp6Ser</text>
<polygon fill="none" stroke="black" points="391,-4 391,-43 466,-43 466,-4 391,-4"/>
</a>
</g>
</g>
<!-- ndFp12Ser -->
<g id="node5" class="node"><title>ndFp12Ser</title>
<g id="a_node5_4"><a xlink:href="https://github.com/filecoin-project/blstrs/blob/master/src/serde_impl.rs#:~:text=struct%20Fp12Ser" xlink:title="&lt;TABLE&gt;">
<polygon fill="lightblue" stroke="none" points="501.5,-4.5 501.5,-41.5 582.5,-41.5 582.5,-4.5 501.5,-4.5"/>
<polygon fill="none" stroke="black" points="501.5,-4.5 501.5,-41.5 582.5,-41.5 582.5,-4.5 501.5,-4.5"/>
<text text-anchor="start" x="512.5" y="-20.3" font-family="Arial" font-weight="bold" font-size="14.00">Fp12Ser</text>
<polygon fill="none" stroke="black" points="500,-4 500,-43 583,-43 583,-4 500,-4"/>
</a>
</g>
</g>
</g>
</svg>
