<?xml version="1.0" encoding="UTF-8" standalone="no"?>
<!DOCTYPE svg PUBLIC "-//W3C//DTD SVG 1.1//EN"
 "http://www.w3.org/Graphics/SVG/1.1/DTD/svg11.dtd">
<!-- Generated by graphviz version 2.38.0 (20140413.2041)
 -->
<!-- Title: ml Pages: 1 -->
<svg width="2262pt" height="825pt"
 viewBox="0.00 0.00 2262.00 825.00" xmlns="http://www.w3.org/2000/svg" xmlns:xlink="http://www.w3.org/1999/xlink">
<g id="graph0" class="graph" transform="scale(1 1) rotate(0) translate(4 821)">
<title>ml</title>
<polygon fill="white" stroke="none" points="-4,4 -4,-821 2258,-821 2258,4 -4,4"/>
<!-- ndRevealedCommitment -->
<g id="node1" class="node"><title>ndRevealedCommitment</title>
<g id="a_node1_0"><a xlink:href="https://github.com/maidsafe/blst-ringct/blob/master/src/lib.rs#:~:text=struct%20RevealedCommitment" xlink:title="&lt;TABLE&gt;">
<polygon fill="lightblue" stroke="none" points="452,-774.5 452,-811.5 934,-811.5 934,-774.5 452,-774.5"/>
<polygon fill="none" stroke="black" points="452,-774.5 452,-811.5 934,-811.5 934,-774.5 452,-774.5"/>
<text text-anchor="start" x="617" y="-790.3" font-family="Arial" font-weight="bold" font-size="14.00">RevealedCommitment</text>
<polygon fill="white" stroke="none" points="452,-722.5 452,-774.5 934,-774.5 934,-722.5 452,-722.5"/>
<polygon fill="none" stroke="black" points="452,-722.5 452,-774.5 934,-774.5 934,-722.5 452,-722.5"/>
<text text-anchor="start" x="463" y="-752.3" font-family="Arial" font-size="14.00">+ value: u64</text>
<text text-anchor="start" x="463" y="-737.3" font-family="Arial" font-size="14.00">+ blinding: Scalar</text>
<polygon fill="white" stroke="none" points="452,-640.5 452,-722.5 934,-722.5 934,-640.5 452,-640.5"/>
<polygon fill="none" stroke="black" points="452,-640.5 452,-722.5 934,-722.5 934,-640.5 452,-640.5"/>
<text text-anchor="start" x="463" y="-700.3" font-family="Arial" font-size="14.00">&#45; from_value(value: u64, mut rng: impl rand_core::RngCore) &#45;&gt; Self</text>
<text text-anchor="start" x="463" y="-685.3" font-family="Arial" font-size="14.00">&#45; commit(&amp;self, pc_gens: &amp;bulletproofs::PedersenGens) &#45;&gt; G1Projective</text>
<text text-anchor="start" x="463" y="-670.3" font-family="Arial" font-size="14.00">&#45; value(&amp;self) &#45;&gt; u64</text>
<text text-anchor="start" x="463" y="-655.3" font-family="Arial" font-size="14.00">&#45; blinding(&amp;self) &#45;&gt; Scalar</text>
<polygon fill="none" stroke="black" points="451,-640 451,-813 935,-813 935,-640 451,-640"/>
</a>
</g>
</g>
<!-- ndOutput -->
<g id="node3" class="node"><title>ndOutput</title>
<g id="a_node3_1"><a xlink:href="https://github.com/maidsafe/blst-ringct/blob/master/src/ringct.rs#:~:text=struct%20Output" xlink:title="&lt;TABLE&gt;">
<polygon fill="lightblue" stroke="none" points="9,-303.5 9,-340.5 501,-340.5 501,-303.5 9,-303.5"/>
<polygon fill="none" stroke="black" points="9,-303.5 9,-340.5 501,-340.5 501,-303.5 9,-303.5"/>
<text text-anchor="start" x="231" y="-319.3" font-family="Arial" font-weight="bold" font-size="14.00">Output</text>
<polygon fill="white" stroke="none" points="9,-251.5 9,-303.5 501,-303.5 501,-251.5 9,-251.5"/>
<polygon fill="none" stroke="black" points="9,-251.5 9,-303.5 501,-303.5 501,-251.5 9,-251.5"/>
<text text-anchor="start" x="20" y="-281.3" font-family="Arial" font-size="14.00">+ public_key: G1Affine</text>
<text text-anchor="start" x="20" y="-266.3" font-family="Arial" font-size="14.00">+ amount: u64</text>
<polygon fill="white" stroke="none" points="9,-184.5 9,-251.5 501,-251.5 501,-184.5 9,-184.5"/>
<polygon fill="none" stroke="black" points="9,-184.5 9,-251.5 501,-251.5 501,-184.5 9,-184.5"/>
<text text-anchor="start" x="20" y="-229.3" font-family="Arial" font-size="14.00">&#45; public_key(&amp;self) &#45;&gt; G1Affine</text>
<text text-anchor="start" x="20" y="-214.3" font-family="Arial" font-size="14.00">&#45; amount(&amp;self) &#45;&gt; u64</text>
<text text-anchor="start" x="20" y="-199.3" font-family="Arial" font-size="14.00">&#45; random_commitment(&amp;self, rng: impl RngCore) &#45;&gt; RevealedCommitment</text>
<polygon fill="none" stroke="black" points="8,-183.5 8,-341.5 502,-341.5 502,-183.5 8,-183.5"/>
</a>
</g>
</g>
<!-- ndRevealedCommitment&#45;&gt;ndOutput -->
<g id="edge1" class="edge"><title>ndRevealedCommitment&#45;&gt;ndOutput</title>
<path fill="none" stroke="black" d="M564.596,-635.706C550.454,-624.206 536.623,-612.181 524,-600 445.26,-524.016 368.662,-424.978 317.474,-354.053"/>
<polygon fill="black" stroke="black" points="311.36,-345.547 320.85,-351.04 314.278,-349.607 317.196,-353.667 317.196,-353.667 317.196,-353.667 314.278,-349.607 313.542,-356.293 311.36,-345.547 311.36,-345.547"/>
</g>
<!-- ndRingCtMaterial -->
<g id="node4" class="node"><title>ndRingCtMaterial</title>
<g id="a_node4_2"><a xlink:href="https://github.com/maidsafe/blst-ringct/blob/master/src/ringct.rs#:~:text=struct%20RingCtMaterial" xlink:title="&lt;TABLE&gt;">
<polygon fill="lightblue" stroke="none" points="358,-94 358,-131 1253,-131 1253,-94 358,-94"/>
<polygon fill="none" stroke="black" points="358,-94 358,-131 1253,-131 1253,-94 358,-94"/>
<text text-anchor="start" x="754" y="-109.8" font-family="Arial" font-weight="bold" font-size="14.00">RingCtMaterial</text>
<polygon fill="white" stroke="none" points="358,-42 358,-94 1253,-94 1253,-42 358,-42"/>
<polygon fill="none" stroke="black" points="358,-42 358,-94 1253,-94 1253,-42 358,-42"/>
<text text-anchor="start" x="369" y="-71.8" font-family="Arial" font-size="14.00">&#45; inputs: Vec&lt;MlsagMaterial&gt;</text>
<text text-anchor="start" x="369" y="-56.8" font-family="Arial" font-size="14.00">&#45; outputs: Vec&lt;Output&gt;</text>
<polygon fill="white" stroke="none" points="358,-5 358,-42 1253,-42 1253,-5 358,-5"/>
<polygon fill="none" stroke="black" points="358,-5 358,-42 1253,-42 1253,-5 358,-5"/>
<text text-anchor="start" x="369" y="-19.8" font-family="Arial" font-size="14.00">&#45; sign(&amp;self, msg: &amp;[u8], pc_gens: &amp;PedersenGens, mut rng: impl RngCore) &#45;&gt; Result&lt;(RingCtTransaction, Vec&lt;RevealedCommitment&gt;)&gt;</text>
<polygon fill="none" stroke="black" points="356.5,-4 356.5,-132 1253.5,-132 1253.5,-4 356.5,-4"/>
</a>
</g>
</g>
<!-- ndRevealedCommitment&#45;&gt;ndRingCtMaterial -->
<g id="edge2" class="edge"><title>ndRevealedCommitment&#45;&gt;ndRingCtMaterial</title>
<path fill="none" stroke="black" d="M578.732,-635.715C570.059,-624.599 562.542,-612.655 557,-600 519.382,-514.098 535.37,-480.249 557,-389 581.893,-283.982 596.53,-254.598 666,-172 674.634,-161.734 684.486,-151.916 694.868,-142.701"/>
<polygon fill="black" stroke="black" points="702.512,-136.1 697.885,-146.041 698.727,-139.368 694.943,-142.636 694.943,-142.636 694.943,-142.636 698.727,-139.368 692.002,-139.23 702.512,-136.1 702.512,-136.1"/>
</g>
<!-- ndTrueInput -->
<g id="node7" class="node"><title>ndTrueInput</title>
<g id="a_node7_3"><a xlink:href="https://github.com/maidsafe/blst-ringct/blob/master/src/mlsag.rs#:~:text=struct%20TrueInput" xlink:title="&lt;TABLE&gt;">
<polygon fill="lightblue" stroke="none" points="575,-542.5 575,-579.5 1123,-579.5 1123,-542.5 575,-542.5"/>
<polygon fill="none" stroke="black" points="575,-542.5 575,-579.5 1123,-579.5 1123,-542.5 575,-542.5"/>
<text text-anchor="start" x="815" y="-558.3" font-family="Arial" font-weight="bold" font-size="14.00">TrueInput</text>
<polygon fill="white" stroke="none" points="575,-490.5 575,-542.5 1123,-542.5 1123,-490.5 575,-490.5"/>
<polygon fill="none" stroke="black" points="575,-490.5 575,-542.5 1123,-542.5 1123,-490.5 575,-490.5"/>
<text text-anchor="start" x="586" y="-520.3" font-family="Arial" font-size="14.00">+ secret_key: Scalar</text>
<text text-anchor="start" x="586" y="-505.3" font-family="Arial" font-size="14.00">+ revealed_commitment: RevealedCommitment</text>
<polygon fill="white" stroke="none" points="575,-408.5 575,-490.5 1123,-490.5 1123,-408.5 575,-408.5"/>
<polygon fill="none" stroke="black" points="575,-408.5 575,-490.5 1123,-490.5 1123,-408.5 575,-408.5"/>
<text text-anchor="start" x="586" y="-468.3" font-family="Arial" font-size="14.00">&#45; public_key(&amp;self) &#45;&gt; G1Projective</text>
<text text-anchor="start" x="586" y="-453.3" font-family="Arial" font-size="14.00">&#45; revealed_commitment(&amp;self) &#45;&gt; &amp;RevealedCommitment</text>
<text text-anchor="start" x="586" y="-438.3" font-family="Arial" font-size="14.00">&#45; key_image(&amp;self) &#45;&gt; G1Projective</text>
<text text-anchor="start" x="586" y="-423.3" font-family="Arial" font-size="14.00">&#45; random_pseudo_commitment(&amp;self, rng: impl RngCore) &#45;&gt; RevealedCommitment</text>
<polygon fill="none" stroke="black" points="574,-408 574,-581 1124,-581 1124,-408 574,-408"/>
</a>
</g>
</g>
<!-- ndRevealedCommitment&#45;&gt;ndTrueInput -->
<g id="edge3" class="edge"><title>ndRevealedCommitment&#45;&gt;ndTrueInput</title>
<path fill="none" stroke="black" d="M753.76,-635.917C762.759,-622.65 772.08,-608.907 781.212,-595.444"/>
<polygon fill="black" stroke="black" points="781.413,-595.148 781.47,-587.937 788.149,-585.216 788.091,-592.427 781.413,-595.148"/>
</g>
<!-- ndMlsagMaterial -->
<g id="node9" class="node"><title>ndMlsagMaterial</title>
<g id="a_node9_4"><a xlink:href="https://github.com/maidsafe/blst-ringct/blob/master/src/mlsag.rs#:~:text=struct%20MlsagMaterial" xlink:title="&lt;TABLE&gt;">
<polygon fill="lightblue" stroke="none" points="684,-310.5 684,-347.5 1462,-347.5 1462,-310.5 684,-310.5"/>
<polygon fill="none" stroke="black" points="684,-310.5 684,-347.5 1462,-347.5 1462,-310.5 684,-310.5"/>
<text text-anchor="start" x="1024" y="-326.3" font-family="Arial" font-weight="bold" font-size="14.00">MlsagMaterial</text>
<polygon fill="white" stroke="none" points="684,-258.5 684,-310.5 1462,-310.5 1462,-258.5 684,-258.5"/>
<polygon fill="none" stroke="black" points="684,-258.5 684,-310.5 1462,-310.5 1462,-258.5 684,-258.5"/>
<text text-anchor="start" x="695" y="-288.3" font-family="Arial" font-size="14.00">+ true_input: TrueInput</text>
<text text-anchor="start" x="695" y="-273.3" font-family="Arial" font-size="14.00">+ decoy_inputs: Vec&lt;DecoyInput&gt;</text>
<polygon fill="white" stroke="none" points="684,-176.5 684,-258.5 1462,-258.5 1462,-176.5 684,-176.5"/>
<polygon fill="none" stroke="black" points="684,-176.5 684,-258.5 1462,-258.5 1462,-176.5 684,-176.5"/>
<text text-anchor="start" x="695" y="-236.3" font-family="Arial" font-size="14.00">&#45; count_inputs(&amp;self) &#45;&gt; usize</text>
<text text-anchor="start" x="695" y="-221.3" font-family="Arial" font-size="14.00">&#45; public_keys(&amp;self, pi: usize) &#45;&gt; Vec&lt;G1Affine&gt;</text>
<text text-anchor="start" x="695" y="-206.3" font-family="Arial" font-size="14.00">&#45; commitments(&amp;self, pi: usize, pc_gens: &amp;PedersenGens) &#45;&gt; Vec&lt;G1Affine&gt;</text>
<text text-anchor="start" x="695" y="-191.3" font-family="Arial" font-size="14.00">&#45; sign(&amp;self, msg: &amp;[u8], pc_gens: &amp;PedersenGens, mut rng: impl RngCore) &#45;&gt; (MlsagSignature, RevealedCommitment)</text>
<polygon fill="none" stroke="black" points="683,-176 683,-349 1463,-349 1463,-176 683,-176"/>
</a>
</g>
</g>
<!-- ndRevealedCommitment&#45;&gt;ndMlsagMaterial -->
<g id="edge4" class="edge"><title>ndRevealedCommitment&#45;&gt;ndMlsagMaterial</title>
<path fill="none" stroke="black" d="M943.341,-638.344C946.24,-637.547 949.127,-636.766 952,-636 1034.63,-613.978 1086.48,-665.879 1141,-600 1195.75,-533.838 1167.33,-435.553 1132.01,-362.265"/>
<polygon fill="black" stroke="black" points="1127.45,-353.004 1135.91,-359.985 1129.66,-357.489 1131.87,-361.974 1131.87,-361.974 1131.87,-361.974 1129.66,-357.489 1127.83,-363.963 1127.45,-353.004 1127.45,-353.004"/>
</g>
<!-- ndError -->
<g id="node2" class="node"><title>ndError</title>
<g id="a_node2_5"><a xlink:href="https://github.com/maidsafe/blst-ringct/blob/master/src/error.rs#:~:text=enum%20Error" xlink:title="&lt;TABLE&gt;">
<polygon fill="yellow" stroke="none" points="970,-763.5 970,-800.5 1378,-800.5 1378,-763.5 970,-763.5"/>
<polygon fill="none" stroke="black" points="970,-763.5 970,-800.5 1378,-800.5 1378,-763.5 970,-763.5"/>
<text text-anchor="start" x="1155.5" y="-779.3" font-family="Arial" font-weight="bold" font-size="14.00">Error</text>
<polygon fill="white" stroke="none" points="970,-651.5 970,-763.5 1378,-763.5 1378,-651.5 970,-651.5"/>
<polygon fill="none" stroke="black" points="970,-651.5 970,-763.5 1378,-763.5 1378,-651.5 970,-651.5"/>
<text text-anchor="start" x="981" y="-741.3" font-family="Arial" font-size="14.00">ExpectedAPublicCommitmentsForEachRingEntry</text>
<text text-anchor="start" x="981" y="-726.3" font-family="Arial" font-size="14.00">InvalidHiddenCommitmentInRing</text>
<text text-anchor="start" x="981" y="-711.3" font-family="Arial" font-size="14.00">InputPseudoCommitmentsDoNotSumToOutputCommitments</text>
<text text-anchor="start" x="981" y="-696.3" font-family="Arial" font-size="14.00">InvalidRingSignature</text>
<text text-anchor="start" x="981" y="-681.3" font-family="Arial" font-size="14.00">KeyImageNotOnCurve</text>
<text text-anchor="start" x="981" y="-666.3" font-family="Arial" font-size="14.00">BulletProofs(bulletproofs::ProofError)</text>
<polygon fill="none" stroke="black" points="969,-651 969,-802 1379,-802 1379,-651 969,-651"/>
</a>
</g>
</g>
<!-- ndOutput&#45;&gt;ndRingCtMaterial -->
<g id="edge5" class="edge"><title>ndOutput&#45;&gt;ndRingCtMaterial</title>
<path fill="none" stroke="black" d="M489.446,-179.444C526.751,-166.387 565.074,-152.974 601.587,-140.194"/>
<polygon fill="black" stroke="black" points="602.049,-140.033 606.391,-134.275 613.375,-136.069 609.034,-141.826 602.049,-140.033"/>
</g>
<!-- ndOutputProof -->
<g id="node5" class="node"><title>ndOutputProof</title>
<g id="a_node5_6"><a xlink:href="https://github.com/maidsafe/blst-ringct/blob/master/src/ringct.rs#:~:text=struct%20OutputProof" xlink:title="&lt;TABLE&gt;">
<polygon fill="lightblue" stroke="none" points="1987,-527.5 1987,-564.5 2245,-564.5 2245,-527.5 1987,-527.5"/>
<polygon fill="none" stroke="black" points="1987,-527.5 1987,-564.5 2245,-564.5 2245,-527.5 1987,-527.5"/>
<text text-anchor="start" x="2073" y="-543.3" font-family="Arial" font-weight="bold" font-size="14.00">OutputProof</text>
<polygon fill="white" stroke="none" points="1987,-475.5 1987,-527.5 2245,-527.5 2245,-475.5 1987,-475.5"/>
<polygon fill="none" stroke="black" points="1987,-475.5 1987,-527.5 2245,-527.5 2245,-475.5 1987,-475.5"/>
<text text-anchor="start" x="1998" y="-505.3" font-family="Arial" font-size="14.00">&#45; range_proof: RangeProof</text>
<text text-anchor="start" x="1998" y="-490.3" font-family="Arial" font-size="14.00">&#45; commitment: G1Affine</text>
<polygon fill="white" stroke="none" points="1987,-423.5 1987,-475.5 2245,-475.5 2245,-423.5 1987,-423.5"/>
<polygon fill="none" stroke="black" points="1987,-423.5 1987,-475.5 2245,-475.5 2245,-423.5 1987,-423.5"/>
<text text-anchor="start" x="1998" y="-453.3" font-family="Arial" font-size="14.00">&#45; range_proof(&amp;self) &#45;&gt; &amp;RangeProof</text>
<text text-anchor="start" x="1998" y="-438.3" font-family="Arial" font-size="14.00">&#45; commitment(&amp;self) &#45;&gt; G1Affine</text>
<polygon fill="none" stroke="black" points="1986,-423 1986,-566 2246,-566 2246,-423 1986,-423"/>
</a>
</g>
</g>
<!-- ndRingCtTransaction -->
<g id="node6" class="node"><title>ndRingCtTransaction</title>
<g id="a_node6_7"><a xlink:href="https://github.com/maidsafe/blst-ringct/blob/master/src/ringct.rs#:~:text=struct%20RingCtTransaction" xlink:title="&lt;TABLE&gt;">
<polygon fill="lightblue" stroke="none" points="1499,-288.5 1499,-325.5 2090,-325.5 2090,-288.5 1499,-288.5"/>
<polygon fill="none" stroke="black" points="1499,-288.5 1499,-325.5 2090,-325.5 2090,-288.5 1499,-288.5"/>
<text text-anchor="start" x="1729.5" y="-304.3" font-family="Arial" font-weight="bold" font-size="14.00">RingCtTransaction</text>
<polygon fill="white" stroke="none" points="1499,-236.5 1499,-288.5 2090,-288.5 2090,-236.5 1499,-236.5"/>
<polygon fill="none" stroke="black" points="1499,-236.5 1499,-288.5 2090,-288.5 2090,-236.5 1499,-236.5"/>
<text text-anchor="start" x="1510" y="-266.3" font-family="Arial" font-size="14.00">+ mlsags: Vec&lt;MlsagSignature&gt;</text>
<text text-anchor="start" x="1510" y="-251.3" font-family="Arial" font-size="14.00">+ outputs: Vec&lt;OutputProof&gt;</text>
<polygon fill="white" stroke="none" points="1499,-199.5 1499,-236.5 2090,-236.5 2090,-199.5 1499,-199.5"/>
<polygon fill="none" stroke="black" points="1499,-199.5 1499,-236.5 2090,-236.5 2090,-199.5 1499,-199.5"/>
<text text-anchor="start" x="1510" y="-214.3" font-family="Arial" font-size="14.00">&#45; verify(&amp;self, msg: &amp;[u8], public_commitments_per_ring: &amp;[Vec&lt;G1Affine&gt;]) &#45;&gt; Result&lt;()&gt;</text>
<polygon fill="none" stroke="black" points="1497.5,-198.5 1497.5,-326.5 2090.5,-326.5 2090.5,-198.5 1497.5,-198.5"/>
</a>
</g>
</g>
<!-- ndOutputProof&#45;&gt;ndRingCtTransaction -->
<g id="edge6" class="edge"><title>ndOutputProof&#45;&gt;ndRingCtTransaction</title>
<path fill="none" stroke="black" d="M2011.46,-418.826C1975.12,-392.868 1934.38,-363.772 1898.08,-337.841"/>
<polygon fill="black" stroke="black" points="1897.73,-337.592 1890.52,-337.359 1887.96,-330.617 1895.17,-330.849 1897.73,-337.592"/>
</g>
<!-- ndRingCtTransaction&#45;&gt;ndRingCtMaterial -->
<g id="edge7" class="edge"><title>ndRingCtTransaction&#45;&gt;ndRingCtMaterial</title>
<path fill="none" stroke="black" d="M1571.88,-194.44C1541.17,-186.267 1509.91,-178.517 1480,-172 1412.93,-157.386 1341.68,-144.114 1271.55,-132.324"/>
<polygon fill="black" stroke="black" points="1261.67,-130.671 1272.27,-127.882 1266.6,-131.496 1271.53,-132.321 1271.53,-132.321 1271.53,-132.321 1266.6,-131.496 1270.79,-136.759 1261.67,-130.671 1261.67,-130.671"/>
</g>
<!-- ndTrueInput&#45;&gt;ndMlsagMaterial -->
<g id="edge8" class="edge"><title>ndTrueInput&#45;&gt;ndMlsagMaterial</title>
<path fill="none" stroke="black" d="M936.246,-403.917C949.674,-390.129 963.602,-375.828 977.204,-361.862"/>
<polygon fill="black" stroke="black" points="977.252,-361.813 978.572,-354.724 985.624,-353.216 984.303,-360.306 977.252,-361.813"/>
</g>
<!-- ndDecoyInput -->
<g id="node8" class="node"><title>ndDecoyInput</title>
<g id="a_node8_8"><a xlink:href="https://github.com/maidsafe/blst-ringct/blob/master/src/mlsag.rs#:~:text=struct%20DecoyInput" xlink:title="&lt;TABLE&gt;">
<polygon fill="lightblue" stroke="none" points="1197,-527.5 1197,-564.5 1425,-564.5 1425,-527.5 1197,-527.5"/>
<polygon fill="none" stroke="black" points="1197,-527.5 1197,-564.5 1425,-564.5 1425,-527.5 1197,-527.5"/>
<text text-anchor="start" x="1271" y="-543.3" font-family="Arial" font-weight="bold" font-size="14.00">DecoyInput</text>
<polygon fill="white" stroke="none" points="1197,-475.5 1197,-527.5 1425,-527.5 1425,-475.5 1197,-475.5"/>
<polygon fill="none" stroke="black" points="1197,-475.5 1197,-527.5 1425,-527.5 1425,-475.5 1197,-475.5"/>
<text text-anchor="start" x="1208" y="-505.3" font-family="Arial" font-size="14.00">+ public_key: G1Affine</text>
<text text-anchor="start" x="1208" y="-490.3" font-family="Arial" font-size="14.00">+ commitment: G1Affine</text>
<polygon fill="white" stroke="none" points="1197,-423.5 1197,-475.5 1425,-475.5 1425,-423.5 1197,-423.5"/>
<polygon fill="none" stroke="black" points="1197,-423.5 1197,-475.5 1425,-475.5 1425,-423.5 1197,-423.5"/>
<text text-anchor="start" x="1208" y="-453.3" font-family="Arial" font-size="14.00">&#45; public_key(&amp;self) &#45;&gt; G1Affine</text>
<text text-anchor="start" x="1208" y="-438.3" font-family="Arial" font-size="14.00">&#45; commitment(&amp;self) &#45;&gt; G1Affine</text>
<polygon fill="none" stroke="black" points="1196,-423 1196,-566 1426,-566 1426,-423 1196,-423"/>
</a>
</g>
</g>
<!-- ndDecoyInput&#45;&gt;ndMlsagMaterial -->
<g id="edge9" class="edge"><title>ndDecoyInput&#45;&gt;ndMlsagMaterial</title>
<path fill="none" stroke="black" d="M1233.73,-418.826C1214.81,-400.544 1194.28,-380.705 1174.42,-361.513"/>
<polygon fill="black" stroke="black" points="1174.28,-361.38 1167.19,-360.087 1165.66,-353.041 1172.75,-354.335 1174.28,-361.38"/>
</g>
<!-- ndMlsagMaterial&#45;&gt;ndRingCtMaterial -->
<g id="edge10" class="edge"><title>ndMlsagMaterial&#45;&gt;ndRingCtMaterial</title>
<path fill="none" stroke="black" d="M948.023,-171.731C934.757,-162.202 921.371,-152.588 908.391,-143.264"/>
<polygon fill="black" stroke="black" points="908.299,-143.198 901.092,-142.946 898.553,-136.197 905.759,-136.449 908.299,-143.198"/>
</g>
<!-- ndMlsagSignature -->
<g id="node10" class="node"><title>ndMlsagSignature</title>
<g id="a_node10_9"><a xlink:href="https://github.com/maidsafe/blst-ringct/blob/master/src/mlsag.rs#:~:text=struct%20MlsagSignature" xlink:title="&lt;TABLE&gt;">
<polygon fill="lightblue" stroke="none" points="1462,-557.5 1462,-594.5 1951,-594.5 1951,-557.5 1462,-557.5"/>
<polygon fill="none" stroke="black" points="1462,-557.5 1462,-594.5 1951,-594.5 1951,-557.5 1462,-557.5"/>
<text text-anchor="start" x="1651.5" y="-573.3" font-family="Arial" font-weight="bold" font-size="14.00">MlsagSignature</text>
<polygon fill="white" stroke="none" points="1462,-460.5 1462,-557.5 1951,-557.5 1951,-460.5 1462,-460.5"/>
<polygon fill="none" stroke="black" points="1462,-460.5 1462,-557.5 1951,-557.5 1951,-460.5 1462,-460.5"/>
<text text-anchor="start" x="1473" y="-535.3" font-family="Arial" font-size="14.00">+ c0: Scalar</text>
<text text-anchor="start" x="1473" y="-520.3" font-family="Arial" font-size="14.00">+ r: Vec&lt;(Scalar, Scalar)&gt;</text>
<text text-anchor="start" x="1473" y="-505.3" font-family="Arial" font-size="14.00">+ key_image: G1Affine</text>
<text text-anchor="start" x="1473" y="-490.3" font-family="Arial" font-size="14.00">+ ring: Vec&lt;(G1Affine, G1Affine)&gt;</text>
<text text-anchor="start" x="1473" y="-475.3" font-family="Arial" font-size="14.00">+ pseudo_commitment: G1Affine</text>
<polygon fill="white" stroke="none" points="1462,-393.5 1462,-460.5 1951,-460.5 1951,-393.5 1462,-393.5"/>
<polygon fill="none" stroke="black" points="1462,-393.5 1462,-460.5 1951,-460.5 1951,-393.5 1462,-393.5"/>
<text text-anchor="start" x="1473" y="-438.3" font-family="Arial" font-size="14.00">&#45; pseudo_commitment(&amp;self) &#45;&gt; G1Affine</text>
<text text-anchor="start" x="1473" y="-423.3" font-family="Arial" font-size="14.00">&#45; public_keys(&amp;self) &#45;&gt; Vec&lt;G1Affine&gt;</text>
<text text-anchor="start" x="1473" y="-408.3" font-family="Arial" font-size="14.00">&#45; verify(&amp;self, msg: &amp;[u8], public_commitments: &amp;[G1Affine]) &#45;&gt; Result&lt;()&gt;</text>
<polygon fill="none" stroke="black" points="1460.5,-393 1460.5,-596 1951.5,-596 1951.5,-393 1460.5,-393"/>
</a>
</g>
</g>
<!-- ndMlsagSignature&#45;&gt;ndRingCtTransaction -->
<g id="edge11" class="edge"><title>ndMlsagSignature&#45;&gt;ndRingCtTransaction</title>
<path fill="none" stroke="black" d="M1746.01,-388.932C1752.05,-373.139 1758.19,-357.083 1763.98,-341.966"/>
<polygon fill="black" stroke="black" points="1764.04,-341.817 1762.44,-334.784 1768.32,-330.609 1769.92,-337.643 1764.04,-341.817"/>
</g>
<!-- ndMlsagSignature&#45;&gt;ndMlsagMaterial -->
<g id="edge12" class="edge"><title>ndMlsagSignature&#45;&gt;ndMlsagMaterial</title>
<path fill="none" stroke="black" d="M1452.39,-392.471C1449.24,-391.303 1446.11,-390.145 1443,-389 1413.58,-378.173 1382.72,-367.165 1351.9,-356.394"/>
<polygon fill="black" stroke="black" points="1342.34,-353.059 1353.27,-352.103 1347.06,-354.706 1351.78,-356.352 1351.78,-356.352 1351.78,-356.352 1347.06,-354.706 1350.3,-360.601 1342.34,-353.059 1342.34,-353.059"/>
</g>
</g>
</svg>
