<?xml version="1.0" encoding="UTF-8" standalone="no"?>
<!DOCTYPE svg PUBLIC "-//W3C//DTD SVG 1.1//EN"
 "http://www.w3.org/Graphics/SVG/1.1/DTD/svg11.dtd">
<!-- Generated by graphviz version 2.38.0 (20140413.2041)
 -->
<!-- Title: ml Pages: 1 -->
<svg width="2712pt" height="680pt"
 viewBox="0.00 0.00 2712.00 680.00" xmlns="http://www.w3.org/2000/svg" xmlns:xlink="http://www.w3.org/1999/xlink">
<g id="graph0" class="graph" transform="scale(1 1) rotate(0) translate(4 676)">
<title>ml</title>
<polygon fill="white" stroke="none" points="-4,4 -4,-676 2708,-676 2708,4 -4,4"/>
<!-- ndRevealedCommitment -->
<g id="node1" class="node"><title>ndRevealedCommitment</title>
<g id="a_node1_0"><a xlink:href="https://github.com/maidsafe/blst-ringct/blob/master/src/lib.rs#:~:text=struct%20RevealedCommitment" xlink:title="&lt;TABLE&gt;">
<polygon fill="lightblue" stroke="none" points="466,-629.5 466,-666.5 1009,-666.5 1009,-629.5 466,-629.5"/>
<polygon fill="none" stroke="black" points="466,-629.5 466,-666.5 1009,-666.5 1009,-629.5 466,-629.5"/>
<text text-anchor="start" x="477" y="-645.3" font-family="Arial" font-weight="bold" font-size="14.00">pub struct RevealedCommitment { &#160;&#160;&#160;pub value: u64, &#160;&#160;&#160;pub blinding: Scalar,}</text>
<polygon fill="white" stroke="none" points="466,-577.5 466,-629.5 1009,-629.5 1009,-577.5 466,-577.5"/>
<polygon fill="none" stroke="black" points="466,-577.5 466,-629.5 1009,-629.5 1009,-577.5 466,-577.5"/>
<text text-anchor="start" x="477" y="-607.3" font-family="Arial" font-size="14.00">+ value: u64</text>
<text text-anchor="start" x="477" y="-592.3" font-family="Arial" font-size="14.00">+ blinding: Scalar</text>
<polygon fill="white" stroke="none" points="466,-495.5 466,-577.5 1009,-577.5 1009,-495.5 466,-495.5"/>
<polygon fill="none" stroke="black" points="466,-495.5 466,-577.5 1009,-577.5 1009,-495.5 466,-495.5"/>
<text text-anchor="start" x="477" y="-555.3" font-family="Arial" font-size="14.00">&#45; from_value(value: u64, mut rng: impl rand_core::RngCore) &#45;&gt; Self</text>
<text text-anchor="start" x="477" y="-540.3" font-family="Arial" font-size="14.00">&#45; commit(&amp;self, pc_gens: &amp;bulletproofs::PedersenGens) &#45;&gt; G1Projective</text>
<text text-anchor="start" x="477" y="-525.3" font-family="Arial" font-size="14.00">&#45; value(&amp;self) &#45;&gt; u64</text>
<text text-anchor="start" x="477" y="-510.3" font-family="Arial" font-size="14.00">&#45; blinding(&amp;self) &#45;&gt; Scalar</text>
<polygon fill="none" stroke="black" points="464.5,-495 464.5,-668 1009.5,-668 1009.5,-495 464.5,-495"/>
</a>
</g>
</g>
<!-- ndOutput -->
<g id="node3" class="node"><title>ndOutput</title>
<g id="a_node3_1"><a xlink:href="https://github.com/maidsafe/blst-ringct/blob/master/src/ringct.rs#:~:text=struct%20Output" xlink:title="&lt;TABLE&gt;">
<polygon fill="lightblue" stroke="none" points="9,-196 9,-233 501,-233 501,-196 9,-196"/>
<polygon fill="none" stroke="black" points="9,-196 9,-233 501,-233 501,-196 9,-196"/>
<text text-anchor="start" x="21.5" y="-211.8" font-family="Arial" font-weight="bold" font-size="14.00">pub struct Output { &#160;&#160;&#160;pub public_key: G1Affine, &#160;&#160;&#160;pub amount: u64,}</text>
<polygon fill="white" stroke="none" points="9,-144 9,-196 501,-196 501,-144 9,-144"/>
<polygon fill="none" stroke="black" points="9,-144 9,-196 501,-196 501,-144 9,-144"/>
<text text-anchor="start" x="20" y="-173.8" font-family="Arial" font-size="14.00">+ public_key: G1Affine</text>
<text text-anchor="start" x="20" y="-158.8" font-family="Arial" font-size="14.00">+ amount: u64</text>
<polygon fill="white" stroke="none" points="9,-77 9,-144 501,-144 501,-77 9,-77"/>
<polygon fill="none" stroke="black" points="9,-77 9,-144 501,-144 501,-77 9,-77"/>
<text text-anchor="start" x="20" y="-121.8" font-family="Arial" font-size="14.00">&#45; public_key(&amp;self) &#45;&gt; G1Affine</text>
<text text-anchor="start" x="20" y="-106.8" font-family="Arial" font-size="14.00">&#45; amount(&amp;self) &#45;&gt; u64</text>
<text text-anchor="start" x="20" y="-91.8" font-family="Arial" font-size="14.00">&#45; random_commitment(&amp;self, rng: impl RngCore) &#45;&gt; RevealedCommitment</text>
<polygon fill="none" stroke="black" points="8,-76 8,-234 502,-234 502,-76 8,-76"/>
</a>
</g>
</g>
<!-- ndRevealedCommitment&#45;&gt;ndOutput -->
<g id="edge1" class="edge"><title>ndRevealedCommitment&#45;&gt;ndOutput</title>
<path fill="none" stroke="black" d="M573.019,-490.926C555.956,-479.553 539.286,-467.496 524,-455 448.179,-393.018 374.696,-309.207 323.747,-246.088"/>
<polygon fill="black" stroke="black" points="317.335,-238.106 327.106,-243.084 320.467,-242.004 323.598,-245.902 323.598,-245.902 323.598,-245.902 320.467,-242.004 320.09,-248.721 317.335,-238.106 317.335,-238.106"/>
</g>
<!-- ndRingCtMaterial -->
<g id="node4" class="node"><title>ndRingCtMaterial</title>
<text text-anchor="middle" x="936" y="-14.3" font-family="Times,serif" font-size="14.00">ndRingCtMaterial</text>
</g>
<!-- ndRevealedCommitment&#45;&gt;ndRingCtMaterial -->
<g id="edge2" class="edge"><title>ndRevealedCommitment&#45;&gt;ndRingCtMaterial</title>
<path fill="none" stroke="black" d="M582.683,-490.82C572.601,-479.933 563.785,-468.003 557,-455 519.783,-383.682 519.192,-345.006 557,-274 624.249,-147.7 784.965,-72.7643 873.994,-39.5275"/>
<polygon fill="black" stroke="black" points="883.433,-36.06 875.598,-43.7325 878.739,-37.7842 874.046,-39.5085 874.046,-39.5085 874.046,-39.5085 878.739,-37.7842 872.494,-35.2846 883.433,-36.06 883.433,-36.06"/>
</g>
<!-- ndTrueInput -->
<g id="node7" class="node"><title>ndTrueInput</title>
<g id="a_node7_2"><a xlink:href="https://github.com/maidsafe/blst-ringct/blob/master/src/mlsag.rs#:~:text=struct%20TrueInput" xlink:title="&lt;TABLE&gt;">
<polygon fill="lightblue" stroke="none" points="575,-412.5 575,-449.5 1297,-449.5 1297,-412.5 575,-412.5"/>
<polygon fill="none" stroke="black" points="575,-412.5 575,-449.5 1297,-449.5 1297,-412.5 575,-412.5"/>
<text text-anchor="start" x="586" y="-428.3" font-family="Arial" font-weight="bold" font-size="14.00">pub struct TrueInput { &#160;&#160;&#160;pub secret_key: Scalar, &#160;&#160;&#160;pub revealed_commitment: RevealedCommitment,}</text>
<polygon fill="white" stroke="none" points="575,-360.5 575,-412.5 1297,-412.5 1297,-360.5 575,-360.5"/>
<polygon fill="none" stroke="black" points="575,-360.5 575,-412.5 1297,-412.5 1297,-360.5 575,-360.5"/>
<text text-anchor="start" x="586" y="-390.3" font-family="Arial" font-size="14.00">+ secret_key: Scalar</text>
<text text-anchor="start" x="586" y="-375.3" font-family="Arial" font-size="14.00">+ revealed_commitment: RevealedCommitment</text>
<polygon fill="white" stroke="none" points="575,-278.5 575,-360.5 1297,-360.5 1297,-278.5 575,-278.5"/>
<polygon fill="none" stroke="black" points="575,-278.5 575,-360.5 1297,-360.5 1297,-278.5 575,-278.5"/>
<text text-anchor="start" x="586" y="-338.3" font-family="Arial" font-size="14.00">&#45; public_key(&amp;self) &#45;&gt; G1Projective</text>
<text text-anchor="start" x="586" y="-323.3" font-family="Arial" font-size="14.00">&#45; revealed_commitment(&amp;self) &#45;&gt; &amp;RevealedCommitment</text>
<text text-anchor="start" x="586" y="-308.3" font-family="Arial" font-size="14.00">&#45; key_image(&amp;self) &#45;&gt; G1Projective</text>
<text text-anchor="start" x="586" y="-293.3" font-family="Arial" font-size="14.00">&#45; random_pseudo_commitment(&amp;self, rng: impl RngCore) &#45;&gt; RevealedCommitment</text>
<polygon fill="none" stroke="black" points="574,-278 574,-451 1298,-451 1298,-278 574,-278"/>
</a>
</g>
</g>
<!-- ndRevealedCommitment&#45;&gt;ndTrueInput -->
<g id="edge3" class="edge"><title>ndRevealedCommitment&#45;&gt;ndTrueInput</title>
<path fill="none" stroke="black" d="M819.953,-490.877C828.111,-482.063 836.423,-473.084 844.659,-464.185"/>
<polygon fill="black" stroke="black" points="844.71,-464.13 845.85,-457.009 852.861,-455.323 851.721,-462.443 844.71,-464.13"/>
</g>
<!-- ndMlsagMaterial -->
<g id="node9" class="node"><title>ndMlsagMaterial</title>
<text text-anchor="middle" x="1334" y="-151.3" font-family="Times,serif" font-size="14.00">ndMlsagMaterial</text>
</g>
<!-- ndRevealedCommitment&#45;&gt;ndMlsagMaterial -->
<g id="edge4" class="edge"><title>ndRevealedCommitment&#45;&gt;ndMlsagMaterial</title>
<path fill="none" stroke="black" d="M1017.69,-493.047C1020.8,-492.348 1023.91,-491.665 1027,-491 1090.06,-477.438 1270.8,-501.974 1315,-455 1351.38,-416.334 1341.82,-249.212 1336.46,-183.083"/>
<polygon fill="black" stroke="black" points="1335.61,-173.018 1340.93,-182.604 1336.03,-178 1336.45,-182.982 1336.45,-182.982 1336.45,-182.982 1336.03,-178 1331.96,-183.36 1335.61,-173.018 1335.61,-173.018"/>
</g>
<!-- ndError -->
<g id="node2" class="node"><title>ndError</title>
<g id="a_node2_3"><a xlink:href="https://github.com/maidsafe/blst-ringct/blob/master/src/error.rs#:~:text=enum%20Error" xlink:title="&lt;TABLE&gt;">
<polygon fill="yellow" stroke="none" points="1045,-618.5 1045,-655.5 1453,-655.5 1453,-618.5 1045,-618.5"/>
<polygon fill="none" stroke="black" points="1045,-618.5 1045,-655.5 1453,-655.5 1453,-618.5 1045,-618.5"/>
<text text-anchor="start" x="1230.5" y="-634.3" font-family="Arial" font-weight="bold" font-size="14.00">Error</text>
<polygon fill="white" stroke="none" points="1045,-506.5 1045,-618.5 1453,-618.5 1453,-506.5 1045,-506.5"/>
<polygon fill="none" stroke="black" points="1045,-506.5 1045,-618.5 1453,-618.5 1453,-506.5 1045,-506.5"/>
<text text-anchor="start" x="1056" y="-596.3" font-family="Arial" font-size="14.00">ExpectedAPublicCommitmentsForEachRingEntry</text>
<text text-anchor="start" x="1056" y="-581.3" font-family="Arial" font-size="14.00">InvalidHiddenCommitmentInRing</text>
<text text-anchor="start" x="1056" y="-566.3" font-family="Arial" font-size="14.00">InputPseudoCommitmentsDoNotSumToOutputCommitments</text>
<text text-anchor="start" x="1056" y="-551.3" font-family="Arial" font-size="14.00">InvalidRingSignature</text>
<text text-anchor="start" x="1056" y="-536.3" font-family="Arial" font-size="14.00">KeyImageNotOnCurve</text>
<text text-anchor="start" x="1056" y="-521.3" font-family="Arial" font-size="14.00">BulletProofs(bulletproofs::ProofError)</text>
<polygon fill="none" stroke="black" points="1044,-506 1044,-657 1454,-657 1454,-506 1044,-506"/>
</a>
</g>
</g>
<!-- ndOutput&#45;&gt;ndRingCtMaterial -->
<g id="edge5" class="edge"><title>ndOutput&#45;&gt;ndRingCtMaterial</title>
<path fill="none" stroke="black" d="M510.304,-75.0438C514.897,-73.9916 519.466,-72.9755 524,-72 642.653,-46.4729 783.354,-31.6037 865.838,-24.4115"/>
<polygon fill="black" stroke="black" points="865.866,-24.4092 871.503,-19.9116 877.823,-23.3849 872.186,-27.8824 865.866,-24.4092"/>
</g>
<!-- ndOutputProof -->
<g id="node5" class="node"><title>ndOutputProof</title>
<g id="a_node5_4"><a xlink:href="https://github.com/maidsafe/blst-ringct/blob/master/src/ringct.rs#:~:text=struct%20OutputProof" xlink:title="&lt;TABLE&gt;">
<polygon fill="lightblue" stroke="none" points="2129,-397.5 2129,-434.5 2695,-434.5 2695,-397.5 2129,-397.5"/>
<polygon fill="none" stroke="black" points="2129,-397.5 2129,-434.5 2695,-434.5 2695,-397.5 2129,-397.5"/>
<text text-anchor="start" x="2140" y="-413.3" font-family="Arial" font-weight="bold" font-size="14.00">pub struct OutputProof { &#160;&#160;&#160;range_proof: RangeProof, &#160;&#160;&#160;commitment: G1Affine,}</text>
<polygon fill="white" stroke="none" points="2129,-345.5 2129,-397.5 2695,-397.5 2695,-345.5 2129,-345.5"/>
<polygon fill="none" stroke="black" points="2129,-345.5 2129,-397.5 2695,-397.5 2695,-345.5 2129,-345.5"/>
<text text-anchor="start" x="2140" y="-375.3" font-family="Arial" font-size="14.00">&#45; range_proof: RangeProof</text>
<text text-anchor="start" x="2140" y="-360.3" font-family="Arial" font-size="14.00">&#45; commitment: G1Affine</text>
<polygon fill="white" stroke="none" points="2129,-293.5 2129,-345.5 2695,-345.5 2695,-293.5 2129,-293.5"/>
<polygon fill="none" stroke="black" points="2129,-293.5 2129,-345.5 2695,-345.5 2695,-293.5 2129,-293.5"/>
<text text-anchor="start" x="2140" y="-323.3" font-family="Arial" font-size="14.00">&#45; range_proof(&amp;self) &#45;&gt; &amp;RangeProof</text>
<text text-anchor="start" x="2140" y="-308.3" font-family="Arial" font-size="14.00">&#45; commitment(&amp;self) &#45;&gt; G1Affine</text>
<polygon fill="none" stroke="black" points="2128,-293 2128,-436 2696,-436 2696,-293 2128,-293"/>
</a>
</g>
</g>
<!-- ndRingCtTransaction -->
<g id="node6" class="node"><title>ndRingCtTransaction</title>
<text text-anchor="middle" x="2044" y="-151.3" font-family="Times,serif" font-size="14.00">ndRingCtTransaction</text>
</g>
<!-- ndOutputProof&#45;&gt;ndRingCtTransaction -->
<g id="edge6" class="edge"><title>ndOutputProof&#45;&gt;ndRingCtTransaction</title>
<path fill="none" stroke="black" d="M2279.66,-288.881C2210.99,-250.158 2131.86,-205.543 2084.99,-179.114"/>
<polygon fill="black" stroke="black" points="2084.82,-179.015 2077.63,-179.552 2074.36,-173.121 2081.56,-172.584 2084.82,-179.015"/>
</g>
<!-- ndRingCtTransaction&#45;&gt;ndRingCtMaterial -->
<g id="edge7" class="edge"><title>ndRingCtTransaction&#45;&gt;ndRingCtMaterial</title>
<path fill="none" stroke="black" d="M1977.07,-145.235C1859.82,-129.939 1609.57,-97.5619 1398,-72 1258.12,-55.0989 1094.24,-36.6096 1004.1,-26.5525"/>
<polygon fill="black" stroke="black" points="994.008,-25.4278 1004.45,-22.0636 998.978,-25.9819 1003.95,-26.5359 1003.95,-26.5359 1003.95,-26.5359 998.978,-25.9819 1003.45,-31.0082 994.008,-25.4278 994.008,-25.4278"/>
</g>
<!-- ndTrueInput&#45;&gt;ndMlsagMaterial -->
<g id="edge8" class="edge"><title>ndTrueInput&#45;&gt;ndMlsagMaterial</title>
<path fill="none" stroke="black" d="M1107.68,-273.996C1174.83,-238.982 1246.22,-201.762 1290.47,-178.697"/>
<polygon fill="black" stroke="black" points="1290.74,-178.554 1294.21,-172.233 1301.38,-173.006 1297.91,-179.327 1290.74,-178.554"/>
</g>
<!-- ndDecoyInput -->
<g id="node8" class="node"><title>ndDecoyInput</title>
<g id="a_node8_5"><a xlink:href="https://github.com/maidsafe/blst-ringct/blob/master/src/mlsag.rs#:~:text=struct%20DecoyInput" xlink:title="&lt;TABLE&gt;">
<polygon fill="lightblue" stroke="none" points="1371,-397.5 1371,-434.5 1959,-434.5 1959,-397.5 1371,-397.5"/>
<polygon fill="none" stroke="black" points="1371,-397.5 1371,-434.5 1959,-434.5 1959,-397.5 1371,-397.5"/>
<text text-anchor="start" x="1382" y="-413.3" font-family="Arial" font-weight="bold" font-size="14.00">pub struct DecoyInput { &#160;&#160;&#160;pub public_key: G1Affine, &#160;&#160;&#160;pub commitment: G1Affine,}</text>
<polygon fill="white" stroke="none" points="1371,-345.5 1371,-397.5 1959,-397.5 1959,-345.5 1371,-345.5"/>
<polygon fill="none" stroke="black" points="1371,-345.5 1371,-397.5 1959,-397.5 1959,-345.5 1371,-345.5"/>
<text text-anchor="start" x="1382" y="-375.3" font-family="Arial" font-size="14.00">+ public_key: G1Affine</text>
<text text-anchor="start" x="1382" y="-360.3" font-family="Arial" font-size="14.00">+ commitment: G1Affine</text>
<polygon fill="white" stroke="none" points="1371,-293.5 1371,-345.5 1959,-345.5 1959,-293.5 1371,-293.5"/>
<polygon fill="none" stroke="black" points="1371,-293.5 1371,-345.5 1959,-345.5 1959,-293.5 1371,-293.5"/>
<text text-anchor="start" x="1382" y="-323.3" font-family="Arial" font-size="14.00">&#45; public_key(&amp;self) &#45;&gt; G1Affine</text>
<text text-anchor="start" x="1382" y="-308.3" font-family="Arial" font-size="14.00">&#45; commitment(&amp;self) &#45;&gt; G1Affine</text>
<polygon fill="none" stroke="black" points="1370,-293 1370,-436 1960,-436 1960,-293 1370,-293"/>
</a>
</g>
</g>
<!-- ndDecoyInput&#45;&gt;ndMlsagMaterial -->
<g id="edge9" class="edge"><title>ndDecoyInput&#45;&gt;ndMlsagMaterial</title>
<path fill="none" stroke="black" d="M1545.97,-288.881C1484.59,-250.403 1413.93,-206.107 1371.68,-179.618"/>
<polygon fill="black" stroke="black" points="1371.48,-179.495 1364.27,-179.697 1361.31,-173.121 1368.52,-172.919 1371.48,-179.495"/>
</g>
<!-- ndMlsagMaterial&#45;&gt;ndRingCtMaterial -->
<g id="edge10" class="edge"><title>ndMlsagMaterial&#45;&gt;ndRingCtMaterial</title>
<path fill="none" stroke="black" d="M1283.59,-136.902C1210.87,-112.236 1076.65,-66.7076 997.972,-40.0208"/>
<polygon fill="black" stroke="black" points="997.675,-39.9199 990.708,-41.7806 986.311,-36.0652 993.278,-34.2046 997.675,-39.9199"/>
</g>
<!-- ndMlsagSignature -->
<g id="node10" class="node"><title>ndMlsagSignature</title>
<text text-anchor="middle" x="2044" y="-360.8" font-family="Times,serif" font-size="14.00">ndMlsagSignature</text>
</g>
<!-- ndMlsagSignature&#45;&gt;ndRingCtTransaction -->
<g id="edge11" class="edge"><title>ndMlsagSignature&#45;&gt;ndRingCtTransaction</title>
<path fill="none" stroke="black" d="M2044,-346.166C2044,-310.604 2044,-229.063 2044,-185.199"/>
<polygon fill="black" stroke="black" points="2044,-185.139 2040,-179.139 2044,-173.139 2048,-179.139 2044,-185.139"/>
</g>
<!-- ndMlsagSignature&#45;&gt;ndMlsagMaterial -->
<g id="edge12" class="edge"><title>ndMlsagSignature&#45;&gt;ndMlsagMaterial</title>
<path fill="none" stroke="black" d="M2036.08,-346.234C2025.63,-325.545 2005.21,-291.485 1977,-274 1880.67,-214.297 1543.33,-175.933 1399.63,-161.947"/>
<polygon fill="black" stroke="black" points="1389.62,-160.982 1400.01,-157.463 1394.6,-161.462 1399.57,-161.942 1399.57,-161.942 1399.57,-161.942 1394.6,-161.462 1399.14,-166.422 1389.62,-160.982 1389.62,-160.982"/>
</g>
</g>
</svg>
