<?xml version="1.0" encoding="UTF-8" standalone="no"?>
<!DOCTYPE svg PUBLIC "-//W3C//DTD SVG 1.1//EN"
 "http://www.w3.org/Graphics/SVG/1.1/DTD/svg11.dtd">
<!-- Generated by graphviz version 2.38.0 (20140413.2041)
 -->
<!-- Title: ml Pages: 1 -->
<svg width="2944pt" height="752pt"
 viewBox="0.00 0.00 2944.00 752.00" xmlns="http://www.w3.org/2000/svg" xmlns:xlink="http://www.w3.org/1999/xlink">
<g id="graph0" class="graph" transform="scale(1 1) rotate(0) translate(4 748)">
<title>ml</title>
<polygon fill="white" stroke="none" points="-4,4 -4,-748 2940,-748 2940,4 -4,4"/>
<!-- ndCompress -->
<g id="node1" class="node"><title>ndCompress</title>
<g id="a_node1_0"><a xlink:href="https://github.com/filecoin-project/blstrs/blob/master/src/traits.rs#:~:text=trait%20Compress" xlink:title="&lt;TABLE&gt;">
<polygon fill="lightgreen" stroke="none" points="9.5,-270.5 9.5,-307.5 104.5,-307.5 104.5,-270.5 9.5,-270.5"/>
<polygon fill="none" stroke="black" points="9.5,-270.5 9.5,-307.5 104.5,-307.5 104.5,-270.5 9.5,-270.5"/>
<text text-anchor="start" x="20.5" y="-286.3" font-family="Arial" font-weight="bold" font-size="14.00">Compress</text>
<polygon fill="none" stroke="black" points="8,-270 8,-309 105,-309 105,-270 8,-270"/>
</a>
</g>
</g>
<!-- ndGt -->
<g id="node3" class="node"><title>ndGt</title>
<g id="a_node3_1"><a xlink:href="https://github.com/filecoin-project/blstrs/blob/master/src/gt.rs#:~:text=struct%20Gt" xlink:title="&lt;TABLE&gt;">
<polygon fill="lightblue" stroke="none" points="164.5,-162 164.5,-199 401.5,-199 401.5,-162 164.5,-162"/>
<polygon fill="none" stroke="black" points="164.5,-162 164.5,-199 401.5,-199 401.5,-162 164.5,-162"/>
<text text-anchor="start" x="175.5" y="-177.8" font-family="Arial" font-weight="bold" font-size="14.00">pub struct Gt(pub(crate) Fp12);</text>
<polygon fill="white" stroke="none" points="164.5,-125 164.5,-162 401.5,-162 401.5,-125 164.5,-125"/>
<polygon fill="none" stroke="black" points="164.5,-125 164.5,-162 401.5,-162 401.5,-125 164.5,-125"/>
<text text-anchor="start" x="175.5" y="-139.8" font-family="Arial" font-size="14.00">&#45; Fp12</text>
<polygon fill="none" stroke="black" points="163,-124 163,-200 402,-200 402,-124 163,-124"/>
</a>
</g>
</g>
<!-- ndCompress&#45;&gt;ndGt -->
<g id="edge1" class="edge"><title>ndCompress&#45;&gt;ndGt</title>
<path fill="none" stroke="black" stroke-dasharray="5,2" d="M84.4589,-265.765C95.6385,-257.179 108.847,-247.646 121.5,-240 139.699,-229.002 159.712,-218.367 179.258,-208.691"/>
<polygon fill="none" stroke="black" points="181.056,-211.707 188.5,-204.168 177.979,-205.42 181.056,-211.707"/>
</g>
<!-- ndFp2 -->
<g id="node2" class="node"><title>ndFp2</title>
<g id="a_node2_2"><a xlink:href="https://github.com/filecoin-project/blstrs/blob/master/src/fp2.rs#:~:text=struct%20Fp2" xlink:title="&lt;TABLE&gt;">
<polygon fill="lightblue" stroke="none" points="470.5,-574.5 470.5,-611.5 739.5,-611.5 739.5,-574.5 470.5,-574.5"/>
<polygon fill="none" stroke="black" points="470.5,-574.5 470.5,-611.5 739.5,-611.5 739.5,-574.5 470.5,-574.5"/>
<text text-anchor="start" x="481.5" y="-590.3" font-family="Arial" font-weight="bold" font-size="14.00">pub struct Fp2(pub(crate) blst_fp2);</text>
<polygon fill="white" stroke="none" points="470.5,-537.5 470.5,-574.5 739.5,-574.5 739.5,-537.5 470.5,-537.5"/>
<polygon fill="none" stroke="black" points="470.5,-537.5 470.5,-574.5 739.5,-574.5 739.5,-537.5 470.5,-537.5"/>
<text text-anchor="start" x="481.5" y="-552.3" font-family="Arial" font-size="14.00">&#45; blst_fp2</text>
<polygon fill="none" stroke="black" points="469,-536.5 469,-612.5 740,-612.5 740,-536.5 469,-536.5"/>
</a>
</g>
</g>
<!-- ndG2Affine -->
<g id="node6" class="node"><title>ndG2Affine</title>
<g id="a_node6_3"><a xlink:href="https://github.com/filecoin-project/blstrs/blob/master/src/g2.rs#:~:text=struct%20G2Affine" xlink:title="&lt;TABLE&gt;">
<polygon fill="lightblue" stroke="none" points="916.5,-432 916.5,-469 1260.5,-469 1260.5,-432 916.5,-432"/>
<polygon fill="none" stroke="black" points="916.5,-432 916.5,-469 1260.5,-469 1260.5,-432 916.5,-432"/>
<text text-anchor="start" x="927.5" y="-447.8" font-family="Arial" font-weight="bold" font-size="14.00">pub struct G2Affine(pub(crate) blst_p2_affine);</text>
<polygon fill="white" stroke="none" points="916.5,-395 916.5,-432 1260.5,-432 1260.5,-395 916.5,-395"/>
<polygon fill="none" stroke="black" points="916.5,-395 916.5,-432 1260.5,-432 1260.5,-395 916.5,-395"/>
<text text-anchor="start" x="927.5" y="-409.8" font-family="Arial" font-size="14.00">&#45; blst_p2_affine</text>
<polygon fill="none" stroke="black" points="915.5,-394 915.5,-470 1261.5,-470 1261.5,-394 915.5,-394"/>
</a>
</g>
</g>
<!-- ndFp2&#45;&gt;ndG2Affine -->
<g id="edge2" class="edge"><title>ndFp2&#45;&gt;ndG2Affine</title>
<path fill="none" stroke="black" stroke-dasharray="5,2" d="M748.111,-532.434C795.966,-518.694 849.548,-503.249 898.5,-489 911.981,-485.076 925.995,-480.979 940.028,-476.865"/>
<polygon fill="black" stroke="black" points="949.741,-474.015 941.412,-481.149 944.943,-475.423 940.145,-476.831 940.145,-476.831 940.145,-476.831 944.943,-475.423 938.878,-472.513 949.741,-474.015 949.741,-474.015"/>
</g>
<!-- ndG2Projective -->
<g id="node7" class="node"><title>ndG2Projective</title>
<g id="a_node7_4"><a xlink:href="https://github.com/filecoin-project/blstrs/blob/master/src/g2.rs#:~:text=struct%20G2Projective" xlink:title="&lt;TABLE&gt;">
<polygon fill="lightblue" stroke="none" points="925.5,-289.5 925.5,-326.5 1252.5,-326.5 1252.5,-289.5 925.5,-289.5"/>
<polygon fill="none" stroke="black" points="925.5,-289.5 925.5,-326.5 1252.5,-326.5 1252.5,-289.5 925.5,-289.5"/>
<text text-anchor="start" x="936.5" y="-305.3" font-family="Arial" font-weight="bold" font-size="14.00">pub struct G2Projective(pub(crate) blst_p2);</text>
<polygon fill="white" stroke="none" points="925.5,-252.5 925.5,-289.5 1252.5,-289.5 1252.5,-252.5 925.5,-252.5"/>
<polygon fill="none" stroke="black" points="925.5,-252.5 925.5,-289.5 1252.5,-289.5 1252.5,-252.5 925.5,-252.5"/>
<text text-anchor="start" x="936.5" y="-267.3" font-family="Arial" font-size="14.00">&#45; blst_p2</text>
<polygon fill="none" stroke="black" points="924,-251.5 924,-327.5 1253,-327.5 1253,-251.5 924,-251.5"/>
</a>
</g>
</g>
<!-- ndFp2&#45;&gt;ndG2Projective -->
<g id="edge3" class="edge"><title>ndFp2&#45;&gt;ndG2Projective</title>
<path fill="none" stroke="black" stroke-dasharray="5,2" d="M550.04,-532.178C537.672,-519.784 526.213,-505.138 519.5,-489 500.042,-442.219 485.748,-412.788 519.5,-375 566.875,-321.959 767.2,-349.754 837.5,-339 859.765,-335.594 883.067,-331.632 906.119,-327.469"/>
<polygon fill="black" stroke="black" points="915.979,-325.674 906.947,-331.892 911.06,-326.569 906.141,-327.465 906.141,-327.465 906.141,-327.465 911.06,-326.569 905.335,-323.038 915.979,-325.674 915.979,-325.674"/>
</g>
<!-- ndFp6 -->
<g id="node11" class="node"><title>ndFp6</title>
<g id="a_node11_5"><a xlink:href="https://github.com/filecoin-project/blstrs/blob/master/src/fp6.rs#:~:text=struct%20Fp6" xlink:title="&lt;TABLE&gt;">
<polygon fill="lightblue" stroke="none" points="156.5,-432 156.5,-469 425.5,-469 425.5,-432 156.5,-432"/>
<polygon fill="none" stroke="black" points="156.5,-432 156.5,-469 425.5,-469 425.5,-432 156.5,-432"/>
<text text-anchor="start" x="167.5" y="-447.8" font-family="Arial" font-weight="bold" font-size="14.00">pub struct Fp6(pub(crate) blst_fp6);</text>
<polygon fill="white" stroke="none" points="156.5,-395 156.5,-432 425.5,-432 425.5,-395 156.5,-395"/>
<polygon fill="none" stroke="black" points="156.5,-395 156.5,-432 425.5,-432 425.5,-395 156.5,-395"/>
<text text-anchor="start" x="167.5" y="-409.8" font-family="Arial" font-size="14.00">&#45; blst_fp6</text>
<polygon fill="none" stroke="black" points="155,-394 155,-470 426,-470 426,-394 155,-394"/>
</a>
</g>
</g>
<!-- ndFp2&#45;&gt;ndFp6 -->
<g id="edge4" class="edge"><title>ndFp2&#45;&gt;ndFp6</title>
<path fill="none" stroke="black" stroke-dasharray="5,2" d="M512.834,-532.484C474.793,-515.462 430.523,-495.653 391.546,-478.213"/>
<polygon fill="black" stroke="black" points="382.28,-474.067 393.246,-474.044 386.844,-476.109 391.408,-478.151 391.408,-478.151 391.408,-478.151 386.844,-476.109 389.57,-482.259 382.28,-474.067 382.28,-474.067"/>
</g>
<!-- ndFp12 -->
<g id="node13" class="node"><title>ndFp12</title>
<g id="a_node13_6"><a xlink:href="https://github.com/filecoin-project/blstrs/blob/master/src/fp12.rs#:~:text=struct%20Fp12" xlink:title="&lt;TABLE&gt;">
<polygon fill="lightblue" stroke="none" points="140.5,-289.5 140.5,-326.5 425.5,-326.5 425.5,-289.5 140.5,-289.5"/>
<polygon fill="none" stroke="black" points="140.5,-289.5 140.5,-326.5 425.5,-326.5 425.5,-289.5 140.5,-289.5"/>
<text text-anchor="start" x="151.5" y="-305.3" font-family="Arial" font-weight="bold" font-size="14.00">pub struct Fp12(pub(crate) blst_fp12);</text>
<polygon fill="white" stroke="none" points="140.5,-252.5 140.5,-289.5 425.5,-289.5 425.5,-252.5 140.5,-252.5"/>
<polygon fill="none" stroke="black" points="140.5,-252.5 140.5,-289.5 425.5,-289.5 425.5,-252.5 140.5,-252.5"/>
<text text-anchor="start" x="151.5" y="-267.3" font-family="Arial" font-size="14.00">&#45; blst_fp12</text>
<polygon fill="none" stroke="black" points="139,-251.5 139,-327.5 426,-327.5 426,-251.5 139,-251.5"/>
</a>
</g>
</g>
<!-- ndFp2&#45;&gt;ndFp12 -->
<g id="edge5" class="edge"><title>ndFp2&#45;&gt;ndFp12</title>
<path fill="none" stroke="black" stroke-dasharray="5,2" d="M460.832,-567.157C339.168,-558.413 178.204,-537.73 137.5,-489 105.019,-450.114 112.256,-418.93 137.5,-375 145.934,-360.323 158.008,-347.956 171.635,-337.606"/>
<polygon fill="black" stroke="black" points="179.823,-331.743 174.312,-341.224 175.758,-334.654 171.692,-337.565 171.692,-337.565 171.692,-337.565 175.758,-334.654 169.072,-333.907 179.823,-331.743 179.823,-331.743"/>
</g>
<!-- ndFp6Ser -->
<g id="node19" class="node"><title>ndFp6Ser</title>
<g id="a_node19_7"><a xlink:href="https://github.com/filecoin-project/blstrs/blob/master/src/serde_impl.rs#:~:text=struct%20Fp6Ser" xlink:title="&lt;TABLE&gt;">
<polygon fill="lightblue" stroke="none" points="537.5,-447 537.5,-484 880.5,-484 880.5,-447 537.5,-447"/>
<polygon fill="none" stroke="black" points="537.5,-447 537.5,-484 880.5,-484 880.5,-447 537.5,-447"/>
<text text-anchor="start" x="548.5" y="-462.8" font-family="Arial" font-weight="bold" font-size="14.00">struct Fp6Ser { &#160;&#160;&#160;c0: Fp2, &#160;&#160;&#160;c1: Fp2, &#160;&#160;&#160;c2: Fp2,}</text>
<polygon fill="white" stroke="none" points="537.5,-380 537.5,-447 880.5,-447 880.5,-380 537.5,-380"/>
<polygon fill="none" stroke="black" points="537.5,-380 537.5,-447 880.5,-447 880.5,-380 537.5,-380"/>
<text text-anchor="start" x="548.5" y="-424.8" font-family="Arial" font-size="14.00">&#45; c0: Fp2</text>
<text text-anchor="start" x="548.5" y="-409.8" font-family="Arial" font-size="14.00">&#45; c1: Fp2</text>
<text text-anchor="start" x="548.5" y="-394.8" font-family="Arial" font-size="14.00">&#45; c2: Fp2</text>
<polygon fill="none" stroke="black" points="536,-379 536,-485 881,-485 881,-379 536,-379"/>
</a>
</g>
</g>
<!-- ndFp2&#45;&gt;ndFp6Ser -->
<g id="edge6" class="edge"><title>ndFp2&#45;&gt;ndFp6Ser</title>
<path fill="none" stroke="black" d="M634.861,-532.484C642.605,-522.022 651.128,-510.507 659.545,-499.137"/>
<polygon fill="black" stroke="black" points="659.752,-498.857 660.107,-491.654 666.891,-489.212 666.537,-496.414 659.752,-498.857"/>
</g>
<!-- ndGtCompressed -->
<g id="node4" class="node"><title>ndGtCompressed</title>
<g id="a_node4_8"><a xlink:href="https://github.com/filecoin-project/blstrs/blob/master/src/gt.rs#:~:text=struct%20GtCompressed" xlink:title="&lt;TABLE&gt;">
<polygon fill="lightblue" stroke="none" points="123.5,-42 123.5,-79 441.5,-79 441.5,-42 123.5,-42"/>
<polygon fill="none" stroke="black" points="123.5,-42 123.5,-79 441.5,-79 441.5,-42 123.5,-42"/>
<text text-anchor="start" x="134.5" y="-57.8" font-family="Arial" font-weight="bold" font-size="14.00">pub struct GtCompressed(pub(crate) Fp6);</text>
<polygon fill="white" stroke="none" points="123.5,-5 123.5,-42 441.5,-42 441.5,-5 123.5,-5"/>
<polygon fill="none" stroke="black" points="123.5,-5 123.5,-42 441.5,-42 441.5,-5 123.5,-5"/>
<text text-anchor="start" x="134.5" y="-19.8" font-family="Arial" font-size="14.00">&#45; Fp6</text>
<polygon fill="none" stroke="black" points="122.5,-4 122.5,-80 442.5,-80 442.5,-4 122.5,-4"/>
</a>
</g>
</g>
<!-- ndGt&#45;&gt;ndGtCompressed -->
<g id="edge7" class="edge"><title>ndGt&#45;&gt;ndGtCompressed</title>
<path fill="none" stroke="black" d="M276.029,-119.729C275.655,-108.165 275.657,-95.5993 276.036,-84.0481"/>
</g>
<!-- ndMillerLoopResult -->
<g id="node12" class="node"><title>ndMillerLoopResult</title>
<g id="a_node12_9"><a xlink:href="https://github.com/filecoin-project/blstrs/blob/master/src/pairing.rs#:~:text=struct%20MillerLoopResult" xlink:title="&lt;TABLE&gt;">
<polygon fill="lightblue" stroke="none" points="478.5,-42 478.5,-79 817.5,-79 817.5,-42 478.5,-42"/>
<polygon fill="none" stroke="black" points="478.5,-42 478.5,-79 817.5,-79 817.5,-42 478.5,-42"/>
<text text-anchor="start" x="489.5" y="-57.8" font-family="Arial" font-weight="bold" font-size="14.00">pub struct MillerLoopResult(pub(crate) Fp12);</text>
<polygon fill="white" stroke="none" points="478.5,-5 478.5,-42 817.5,-42 817.5,-5 478.5,-5"/>
<polygon fill="none" stroke="black" points="478.5,-5 478.5,-42 817.5,-42 817.5,-5 478.5,-5"/>
<text text-anchor="start" x="489.5" y="-19.8" font-family="Arial" font-size="14.00">&#45; Fp12</text>
<polygon fill="none" stroke="black" points="477,-4 477,-80 818,-80 818,-4 477,-4"/>
</a>
</g>
</g>
<!-- ndGt&#45;&gt;ndMillerLoopResult -->
<g id="edge8" class="edge"><title>ndGt&#45;&gt;ndMillerLoopResult</title>
<path fill="none" stroke="black" d="M409.391,-119.978C442.173,-109.38 477.603,-97.9258 510.859,-87.1743"/>
<polygon fill="black" stroke="black" points="520.64,-84.0124 512.509,-91.3704 515.882,-85.5505 511.125,-87.0886 511.125,-87.0886 511.125,-87.0886 515.882,-85.5505 509.74,-82.8068 520.64,-84.0124 520.64,-84.0124"/>
</g>
<!-- ndGtCompressed&#45;&gt;ndGt -->
<g id="edge9" class="edge"><title>ndGtCompressed&#45;&gt;ndGt</title>
<path fill="none" stroke="black" d="M288.964,-84.0481C289.343,-95.5993 289.345,-108.165 288.971,-119.729"/>
</g>
<!-- ndFp -->
<g id="node5" class="node"><title>ndFp</title>
<g id="a_node5_10"><a xlink:href="https://github.com/filecoin-project/blstrs/blob/master/src/fp.rs#:~:text=struct%20Fp" xlink:title="&lt;TABLE&gt;">
<polygon fill="lightblue" stroke="none" points="862.5,-702 862.5,-739 1114.5,-739 1114.5,-702 862.5,-702"/>
<polygon fill="none" stroke="black" points="862.5,-702 862.5,-739 1114.5,-739 1114.5,-702 862.5,-702"/>
<text text-anchor="start" x="873.5" y="-717.8" font-family="Arial" font-weight="bold" font-size="14.00">pub struct Fp(pub(crate) blst_fp);</text>
<polygon fill="white" stroke="none" points="862.5,-665 862.5,-702 1114.5,-702 1114.5,-665 862.5,-665"/>
<polygon fill="none" stroke="black" points="862.5,-665 862.5,-702 1114.5,-702 1114.5,-665 862.5,-665"/>
<text text-anchor="start" x="873.5" y="-679.8" font-family="Arial" font-size="14.00">&#45; blst_fp</text>
<polygon fill="none" stroke="black" points="861.5,-664 861.5,-740 1115.5,-740 1115.5,-664 861.5,-664"/>
</a>
</g>
</g>
<!-- ndFp&#45;&gt;ndFp2 -->
<g id="edge10" class="edge"><title>ndFp&#45;&gt;ndFp2</title>
<path fill="none" stroke="black" stroke-dasharray="5,2" d="M863.03,-659.993C823.531,-647.084 779.745,-632.774 739.606,-619.656"/>
<polygon fill="black" stroke="black" points="730.027,-616.525 740.93,-615.354 734.779,-618.078 739.532,-619.632 739.532,-619.632 739.532,-619.632 734.779,-618.078 738.134,-623.909 730.027,-616.525 730.027,-616.525"/>
</g>
<!-- ndFp&#45;&gt;ndFp6 -->
<g id="edge11" class="edge"><title>ndFp&#45;&gt;ndFp6</title>
<path fill="none" stroke="black" stroke-dasharray="5,2" d="M853.332,-692.59C717.365,-682.203 518.522,-661.175 451.5,-624 392.479,-591.263 345.718,-527.743 318.123,-482.965"/>
<polygon fill="black" stroke="black" points="312.862,-474.274 321.89,-480.498 315.451,-478.551 318.041,-482.829 318.041,-482.829 318.041,-482.829 315.451,-478.551 314.191,-485.159 312.862,-474.274 312.862,-474.274"/>
</g>
<!-- ndFp&#45;&gt;ndFp12 -->
<g id="edge12" class="edge"><title>ndFp&#45;&gt;ndFp12</title>
<path fill="none" stroke="black" stroke-dasharray="5,2" d="M853.293,-700.553C720.74,-696.494 514.533,-680.421 345.5,-624 231.975,-586.107 172.261,-592.693 112.5,-489 87.2004,-445.102 85.8122,-418.068 112.5,-375 121.788,-360.011 134.618,-347.597 149.105,-337.336"/>
<polygon fill="black" stroke="black" points="157.812,-331.54 151.981,-340.827 153.65,-334.31 149.488,-337.081 149.488,-337.081 149.488,-337.081 153.65,-334.31 146.994,-333.335 157.812,-331.54 157.812,-331.54"/>
</g>
<!-- ndG1Affine -->
<g id="node14" class="node"><title>ndG1Affine</title>
<g id="a_node14_11"><a xlink:href="https://github.com/filecoin-project/blstrs/blob/master/src/g1.rs#:~:text=struct%20G1Affine" xlink:title="&lt;TABLE&gt;">
<polygon fill="lightblue" stroke="none" points="1410.5,-432 1410.5,-469 1754.5,-469 1754.5,-432 1410.5,-432"/>
<polygon fill="none" stroke="black" points="1410.5,-432 1410.5,-469 1754.5,-469 1754.5,-432 1410.5,-432"/>
<text text-anchor="start" x="1421.5" y="-447.8" font-family="Arial" font-weight="bold" font-size="14.00">pub struct G1Affine(pub(crate) blst_p1_affine);</text>
<polygon fill="white" stroke="none" points="1410.5,-395 1410.5,-432 1754.5,-432 1754.5,-395 1410.5,-395"/>
<polygon fill="none" stroke="black" points="1410.5,-395 1410.5,-432 1754.5,-432 1754.5,-395 1410.5,-395"/>
<text text-anchor="start" x="1421.5" y="-409.8" font-family="Arial" font-size="14.00">&#45; blst_p1_affine</text>
<polygon fill="none" stroke="black" points="1409.5,-394 1409.5,-470 1755.5,-470 1755.5,-394 1409.5,-394"/>
</a>
</g>
</g>
<!-- ndFp&#45;&gt;ndG1Affine -->
<g id="edge13" class="edge"><title>ndFp&#45;&gt;ndG1Affine</title>
<path fill="none" stroke="black" stroke-dasharray="5,2" d="M1123.81,-662.118C1127.07,-661.383 1130.3,-660.676 1133.5,-660 1245.06,-636.435 1296.8,-693.085 1387.5,-624 1425.66,-594.934 1398.94,-561.124 1430.5,-525 1445.86,-507.419 1465.43,-492.192 1485.37,-479.464"/>
<polygon fill="black" stroke="black" points="1493.92,-474.162 1487.79,-483.254 1489.67,-476.796 1485.42,-479.429 1485.42,-479.429 1485.42,-479.429 1489.67,-476.796 1483.05,-475.604 1493.92,-474.162 1493.92,-474.162"/>
</g>
<!-- ndG1Projective -->
<g id="node15" class="node"><title>ndG1Projective</title>
<g id="a_node15_12"><a xlink:href="https://github.com/filecoin-project/blstrs/blob/master/src/g1.rs#:~:text=struct%20G1Projective" xlink:title="&lt;TABLE&gt;">
<polygon fill="lightblue" stroke="none" points="1410.5,-289.5 1410.5,-326.5 1737.5,-326.5 1737.5,-289.5 1410.5,-289.5"/>
<polygon fill="none" stroke="black" points="1410.5,-289.5 1410.5,-326.5 1737.5,-326.5 1737.5,-289.5 1410.5,-289.5"/>
<text text-anchor="start" x="1421.5" y="-305.3" font-family="Arial" font-weight="bold" font-size="14.00">pub struct G1Projective(pub(crate) blst_p1);</text>
<polygon fill="white" stroke="none" points="1410.5,-252.5 1410.5,-289.5 1737.5,-289.5 1737.5,-252.5 1410.5,-252.5"/>
<polygon fill="none" stroke="black" points="1410.5,-252.5 1410.5,-289.5 1737.5,-289.5 1737.5,-252.5 1410.5,-252.5"/>
<text text-anchor="start" x="1421.5" y="-267.3" font-family="Arial" font-size="14.00">&#45; blst_p1</text>
<polygon fill="none" stroke="black" points="1409,-251.5 1409,-327.5 1738,-327.5 1738,-251.5 1409,-251.5"/>
</a>
</g>
</g>
<!-- ndFp&#45;&gt;ndG1Projective -->
<g id="edge14" class="edge"><title>ndFp&#45;&gt;ndG1Projective</title>
<path fill="none" stroke="black" stroke-dasharray="5,2" d="M1123.83,-662.208C1127.08,-661.446 1130.31,-660.709 1133.5,-660 1182.08,-649.213 1319.49,-659.361 1354.5,-624 1433.26,-544.445 1325.4,-464.61 1392.5,-375 1403.92,-359.753 1418.77,-347.159 1435.05,-336.781"/>
<polygon fill="black" stroke="black" points="1443.69,-331.553 1437.46,-340.581 1439.41,-334.143 1435.13,-336.732 1435.13,-336.732 1435.13,-336.732 1439.41,-334.143 1432.8,-332.882 1443.69,-331.553 1443.69,-331.553"/>
</g>
<!-- ndFp2Ser -->
<g id="node18" class="node"><title>ndFp2Ser</title>
<g id="a_node18_13"><a xlink:href="https://github.com/filecoin-project/blstrs/blob/master/src/serde_impl.rs#:~:text=struct%20Fp2Ser" xlink:title="&lt;TABLE&gt;">
<polygon fill="lightblue" stroke="none" points="1448.5,-581.5 1448.5,-618.5 1704.5,-618.5 1704.5,-581.5 1448.5,-581.5"/>
<polygon fill="none" stroke="black" points="1448.5,-581.5 1448.5,-618.5 1704.5,-618.5 1704.5,-581.5 1448.5,-581.5"/>
<text text-anchor="start" x="1459.5" y="-597.3" font-family="Arial" font-weight="bold" font-size="14.00">struct Fp2Ser { &#160;&#160;&#160;c0: Fp, &#160;&#160;&#160;c1: Fp,}</text>
<polygon fill="white" stroke="none" points="1448.5,-529.5 1448.5,-581.5 1704.5,-581.5 1704.5,-529.5 1448.5,-529.5"/>
<polygon fill="none" stroke="black" points="1448.5,-529.5 1448.5,-581.5 1704.5,-581.5 1704.5,-529.5 1448.5,-529.5"/>
<text text-anchor="start" x="1459.5" y="-559.3" font-family="Arial" font-size="14.00">&#45; c0: Fp</text>
<text text-anchor="start" x="1459.5" y="-544.3" font-family="Arial" font-size="14.00">&#45; c1: Fp</text>
<polygon fill="none" stroke="black" points="1447.5,-529 1447.5,-620 1705.5,-620 1705.5,-529 1447.5,-529"/>
</a>
</g>
</g>
<!-- ndFp&#45;&gt;ndFp2Ser -->
<g id="edge15" class="edge"><title>ndFp&#45;&gt;ndFp2Ser</title>
<path fill="none" stroke="black" d="M1123.8,-662.039C1127.06,-661.328 1130.29,-660.647 1133.5,-660 1261.68,-634.135 1297.8,-652.118 1425.5,-624 1426.21,-623.843 1426.93,-623.683 1427.65,-623.522"/>
<polygon fill="black" stroke="black" points="1427.68,-623.514 1432.6,-618.241 1439.36,-620.755 1434.44,-626.027 1427.68,-623.514"/>
</g>
<!-- ndG2Affine&#45;&gt;ndG2Projective -->
<g id="edge16" class="edge"><title>ndG2Affine&#45;&gt;ndG2Projective</title>
<path fill="none" stroke="black" stroke-dasharray="5,2" d="M1082.3,-389.984C1081.7,-374.968 1081.59,-357.783 1081.97,-341.968"/>
<polygon fill="black" stroke="black" points="1082.29,-331.81 1086.47,-341.946 1082.13,-336.808 1081.97,-341.805 1081.97,-341.805 1081.97,-341.805 1082.13,-336.808 1077.48,-341.665 1082.29,-331.81 1082.29,-331.81"/>
</g>
<!-- ndG2Prepared -->
<g id="node8" class="node"><title>ndG2Prepared</title>
<text text-anchor="middle" x="1326.5" y="-285.8" font-family="Times,serif" font-size="14.00">ndG2Prepared</text>
</g>
<!-- ndG2Affine&#45;&gt;ndG2Prepared -->
<g id="edge17" class="edge"><title>ndG2Affine&#45;&gt;ndG2Prepared</title>
<path fill="none" stroke="black" stroke-dasharray="5,2" d="M1180.77,-389.839C1210.3,-375.238 1242.57,-357.738 1270.5,-339 1281.07,-331.906 1291.84,-323.046 1301.08,-314.846"/>
<polygon fill="black" stroke="black" points="1308.75,-307.871 1304.38,-317.927 1305.05,-311.234 1301.35,-314.597 1301.35,-314.597 1301.35,-314.597 1305.05,-311.234 1298.33,-311.266 1308.75,-307.871 1308.75,-307.871"/>
</g>
<!-- ndG2Projective&#45;&gt;ndG2Affine -->
<g id="edge18" class="edge"><title>ndG2Projective&#45;&gt;ndG2Affine</title>
<path fill="none" stroke="black" stroke-dasharray="5,2" d="M1094.71,-331.81C1095.3,-346.855 1095.41,-364.045 1095.02,-379.841"/>
<polygon fill="black" stroke="black" points="1094.7,-389.984 1090.52,-379.846 1094.86,-384.986 1095.02,-379.989 1095.02,-379.989 1095.02,-379.989 1094.86,-384.986 1099.52,-380.132 1094.7,-389.984 1094.7,-389.984"/>
</g>
<!-- ndG2Uncompressed -->
<g id="node9" class="node"><title>ndG2Uncompressed</title>
<g id="a_node9_14"><a xlink:href="https://github.com/filecoin-project/blstrs/blob/master/src/g2.rs#:~:text=struct%20G2Uncompressed" xlink:title="&lt;TABLE&gt;">
<polygon fill="lightblue" stroke="none" points="1151.5,-702 1151.5,-739 1586.5,-739 1586.5,-702 1151.5,-702"/>
<polygon fill="none" stroke="black" points="1151.5,-702 1151.5,-739 1586.5,-739 1586.5,-702 1151.5,-702"/>
<text text-anchor="start" x="1162.5" y="-717.8" font-family="Arial" font-weight="bold" font-size="14.00">pub struct G2Uncompressed([u8; UNCOMPRESSED_SIZE]);</text>
<polygon fill="white" stroke="none" points="1151.5,-665 1151.5,-702 1586.5,-702 1586.5,-665 1151.5,-665"/>
<polygon fill="none" stroke="black" points="1151.5,-665 1151.5,-702 1586.5,-702 1586.5,-665 1151.5,-665"/>
<text text-anchor="start" x="1162.5" y="-679.8" font-family="Arial" font-size="14.00">&#45; [u8; UNCOMPRESSED_SIZE]</text>
<polygon fill="none" stroke="black" points="1150,-664 1150,-740 1587,-740 1587,-664 1150,-664"/>
</a>
</g>
</g>
<!-- ndG2Compressed -->
<g id="node10" class="node"><title>ndG2Compressed</title>
<g id="a_node10_15"><a xlink:href="https://github.com/filecoin-project/blstrs/blob/master/src/g2.rs#:~:text=struct%20G2Compressed" xlink:title="&lt;TABLE&gt;">
<polygon fill="lightblue" stroke="none" points="1622.5,-702 1622.5,-739 2021.5,-739 2021.5,-702 1622.5,-702"/>
<polygon fill="none" stroke="black" points="1622.5,-702 1622.5,-739 2021.5,-739 2021.5,-702 1622.5,-702"/>
<text text-anchor="start" x="1633.5" y="-717.8" font-family="Arial" font-weight="bold" font-size="14.00">pub struct G2Compressed([u8; COMPRESSED_SIZE]);</text>
<polygon fill="white" stroke="none" points="1622.5,-665 1622.5,-702 2021.5,-702 2021.5,-665 1622.5,-665"/>
<polygon fill="none" stroke="black" points="1622.5,-665 1622.5,-702 2021.5,-702 2021.5,-665 1622.5,-665"/>
<text text-anchor="start" x="1633.5" y="-679.8" font-family="Arial" font-size="14.00">&#45; [u8; COMPRESSED_SIZE]</text>
<polygon fill="none" stroke="black" points="1621,-664 1621,-740 2022,-740 2022,-664 1621,-664"/>
</a>
</g>
</g>
<!-- ndFp6&#45;&gt;ndGtCompressed -->
<g id="edge19" class="edge"><title>ndFp6&#45;&gt;ndGtCompressed</title>
<path fill="none" stroke="black" d="M391.632,-389.818C411.96,-376.688 430.686,-359.96 442.5,-339 464.105,-300.669 446.836,-283.786 442.5,-240 437.141,-185.875 450.39,-164.06 418.5,-120 410.625,-109.12 400.711,-99.5687 389.841,-91.2389"/>
<polygon fill="black" stroke="black" points="389.82,-91.2243 382.613,-90.9779 380.069,-84.2306 387.276,-84.477 389.82,-91.2243"/>
</g>
<!-- ndFp6&#45;&gt;ndFp12 -->
<g id="edge20" class="edge"><title>ndFp6&#45;&gt;ndFp12</title>
<path fill="none" stroke="black" stroke-dasharray="5,2" d="M288.165,-389.984C287.31,-374.968 286.331,-357.783 285.431,-341.968"/>
<polygon fill="black" stroke="black" points="284.852,-331.81 289.913,-341.538 285.136,-336.802 285.421,-341.794 285.421,-341.794 285.421,-341.794 285.136,-336.802 280.928,-342.05 284.852,-331.81 284.852,-331.81"/>
</g>
<!-- ndFp12Ser -->
<g id="node20" class="node"><title>ndFp12Ser</title>
<g id="a_node20_16"><a xlink:href="https://github.com/filecoin-project/blstrs/blob/master/src/serde_impl.rs#:~:text=struct%20Fp12Ser" xlink:title="&lt;TABLE&gt;">
<polygon fill="lightblue" stroke="none" points="538.5,-296.5 538.5,-333.5 819.5,-333.5 819.5,-296.5 538.5,-296.5"/>
<polygon fill="none" stroke="black" points="538.5,-296.5 538.5,-333.5 819.5,-333.5 819.5,-296.5 538.5,-296.5"/>
<text text-anchor="start" x="549.5" y="-312.3" font-family="Arial" font-weight="bold" font-size="14.00">struct Fp12Ser { &#160;&#160;&#160;c0: Fp6, &#160;&#160;&#160;c1: Fp6,}</text>
<polygon fill="white" stroke="none" points="538.5,-244.5 538.5,-296.5 819.5,-296.5 819.5,-244.5 538.5,-244.5"/>
<polygon fill="none" stroke="black" points="538.5,-244.5 538.5,-296.5 819.5,-296.5 819.5,-244.5 538.5,-244.5"/>
<text text-anchor="start" x="549.5" y="-274.3" font-family="Arial" font-size="14.00">&#45; c0: Fp6</text>
<text text-anchor="start" x="549.5" y="-259.3" font-family="Arial" font-size="14.00">&#45; c1: Fp6</text>
<polygon fill="none" stroke="black" points="537,-244 537,-335 820,-335 820,-244 537,-244"/>
</a>
</g>
</g>
<!-- ndFp6&#45;&gt;ndFp12Ser -->
<g id="edge21" class="edge"><title>ndFp6&#45;&gt;ndFp12Ser</title>
<path fill="none" stroke="black" d="M403.769,-389.984C444.219,-375.336 490.368,-358.625 533.144,-343.135"/>
<polygon fill="black" stroke="black" points="533.242,-343.1 537.521,-337.296 544.525,-339.014 540.245,-344.818 533.242,-343.1"/>
</g>
<!-- ndFp12&#45;&gt;ndGt -->
<g id="edge22" class="edge"><title>ndFp12&#45;&gt;ndGt</title>
<path fill="none" stroke="black" stroke-dasharray="5,2" d="M282.5,-247.407C282.5,-237.439 282.5,-226.64 282.5,-216.202"/>
<polygon fill="black" stroke="black" points="282.5,-216.186 278.5,-210.186 282.5,-204.186 286.5,-210.186 282.5,-216.186"/>
</g>
<!-- ndFp12&#45;&gt;ndMillerLoopResult -->
<g id="edge23" class="edge"><title>ndFp12&#45;&gt;ndMillerLoopResult</title>
<path fill="none" stroke="black" d="M350.427,-247.344C372.324,-233.799 396.59,-218.492 418.5,-204 473.897,-167.359 535.41,-123.956 580.721,-91.453"/>
<polygon fill="black" stroke="black" points="580.969,-91.2751 583.507,-84.5256 590.714,-84.273 588.175,-91.0225 580.969,-91.2751"/>
</g>
<!-- ndG1Affine&#45;&gt;ndG1Projective -->
<g id="edge24" class="edge"><title>ndG1Affine&#45;&gt;ndG1Projective</title>
<path fill="none" stroke="black" stroke-dasharray="5,2" d="M1573.67,-389.984C1572.11,-374.968 1570.9,-357.783 1570.27,-341.968"/>
<polygon fill="black" stroke="black" points="1569.93,-331.81 1574.76,-341.658 1570.1,-336.808 1570.26,-341.805 1570.26,-341.805 1570.26,-341.805 1570.1,-336.808 1565.76,-341.952 1569.93,-331.81 1569.93,-331.81"/>
</g>
<!-- ndG1Projective&#45;&gt;ndG1Affine -->
<g id="edge25" class="edge"><title>ndG1Projective&#45;&gt;ndG1Affine</title>
<path fill="none" stroke="black" stroke-dasharray="5,2" d="M1582.36,-331.81C1583.91,-346.855 1585.12,-364.045 1585.75,-379.841"/>
<polygon fill="black" stroke="black" points="1586.07,-389.984 1581.25,-380.134 1585.91,-384.986 1585.75,-379.989 1585.75,-379.989 1585.75,-379.989 1585.91,-384.986 1590.25,-379.844 1586.07,-389.984 1586.07,-389.984"/>
</g>
<!-- ndG1Uncompressed -->
<g id="node16" class="node"><title>ndG1Uncompressed</title>
<g id="a_node16_17"><a xlink:href="https://github.com/filecoin-project/blstrs/blob/master/src/g1.rs#:~:text=struct%20G1Uncompressed" xlink:title="&lt;TABLE&gt;">
<polygon fill="lightblue" stroke="none" points="2057.5,-702 2057.5,-739 2492.5,-739 2492.5,-702 2057.5,-702"/>
<polygon fill="none" stroke="black" points="2057.5,-702 2057.5,-739 2492.5,-739 2492.5,-702 2057.5,-702"/>
<text text-anchor="start" x="2068.5" y="-717.8" font-family="Arial" font-weight="bold" font-size="14.00">pub struct G1Uncompressed([u8; UNCOMPRESSED_SIZE]);</text>
<polygon fill="white" stroke="none" points="2057.5,-665 2057.5,-702 2492.5,-702 2492.5,-665 2057.5,-665"/>
<polygon fill="none" stroke="black" points="2057.5,-665 2057.5,-702 2492.5,-702 2492.5,-665 2057.5,-665"/>
<text text-anchor="start" x="2068.5" y="-679.8" font-family="Arial" font-size="14.00">&#45; [u8; UNCOMPRESSED_SIZE]</text>
<polygon fill="none" stroke="black" points="2056,-664 2056,-740 2493,-740 2493,-664 2056,-664"/>
</a>
</g>
</g>
<!-- ndG1Compressed -->
<g id="node17" class="node"><title>ndG1Compressed</title>
<g id="a_node17_18"><a xlink:href="https://github.com/filecoin-project/blstrs/blob/master/src/g1.rs#:~:text=struct%20G1Compressed" xlink:title="&lt;TABLE&gt;">
<polygon fill="lightblue" stroke="none" points="2528.5,-702 2528.5,-739 2927.5,-739 2927.5,-702 2528.5,-702"/>
<polygon fill="none" stroke="black" points="2528.5,-702 2528.5,-739 2927.5,-739 2927.5,-702 2528.5,-702"/>
<text text-anchor="start" x="2539.5" y="-717.8" font-family="Arial" font-weight="bold" font-size="14.00">pub struct G1Compressed([u8; COMPRESSED_SIZE]);</text>
<polygon fill="white" stroke="none" points="2528.5,-665 2528.5,-702 2927.5,-702 2927.5,-665 2528.5,-665"/>
<polygon fill="none" stroke="black" points="2528.5,-665 2528.5,-702 2927.5,-702 2927.5,-665 2528.5,-665"/>
<text text-anchor="start" x="2539.5" y="-679.8" font-family="Arial" font-size="14.00">&#45; [u8; COMPRESSED_SIZE]</text>
<polygon fill="none" stroke="black" points="2527,-664 2527,-740 2928,-740 2928,-664 2527,-664"/>
</a>
</g>
</g>
<!-- ndScalar -->
<g id="node21" class="node"><title>ndScalar</title>
<g id="a_node21_19"><a xlink:href="https://github.com/filecoin-project/blstrs/blob/master/src/scalar.rs#:~:text=struct%20Scalar" xlink:title="&lt;TABLE&gt;">
<polygon fill="lightblue" stroke="none" points="1061.5,-574.5 1061.5,-611.5 1336.5,-611.5 1336.5,-574.5 1061.5,-574.5"/>
<polygon fill="none" stroke="black" points="1061.5,-574.5 1061.5,-611.5 1336.5,-611.5 1336.5,-574.5 1061.5,-574.5"/>
<text text-anchor="start" x="1072.5" y="-590.3" font-family="Arial" font-weight="bold" font-size="14.00">pub struct Scalar(pub(crate) blst_fr);</text>
<polygon fill="white" stroke="none" points="1061.5,-537.5 1061.5,-574.5 1336.5,-574.5 1336.5,-537.5 1061.5,-537.5"/>
<polygon fill="none" stroke="black" points="1061.5,-537.5 1061.5,-574.5 1336.5,-574.5 1336.5,-537.5 1061.5,-537.5"/>
<text text-anchor="start" x="1072.5" y="-552.3" font-family="Arial" font-size="14.00">&#45; blst_fr</text>
<polygon fill="none" stroke="black" points="1060,-536.5 1060,-612.5 1337,-612.5 1337,-536.5 1060,-536.5"/>
</a>
</g>
</g>
<!-- ndScalar&#45;&gt;ndGt -->
<g id="edge26" class="edge"><title>ndScalar&#45;&gt;ndGt</title>
<path fill="none" stroke="black" stroke-dasharray="5,2" d="M1051.87,-557.25C855.31,-535.182 529.652,-497.505 519.5,-489 430.705,-414.611 518.102,-327.765 442.5,-240 432.432,-228.313 420.187,-218.252 407.001,-209.63"/>
<polygon fill="black" stroke="black" points="398.213,-204.168 409.082,-205.625 402.46,-206.807 406.707,-209.447 406.707,-209.447 406.707,-209.447 402.46,-206.807 404.331,-213.269 398.213,-204.168 398.213,-204.168"/>
</g>
<!-- ndScalar&#45;&gt;ndG2Affine -->
<g id="edge27" class="edge"><title>ndScalar&#45;&gt;ndG2Affine</title>
<path fill="none" stroke="black" stroke-dasharray="5,2" d="M1166.39,-532.484C1154.07,-516.753 1139.89,-498.641 1127.03,-482.219"/>
<polygon fill="black" stroke="black" points="1120.84,-474.31 1130.55,-479.41 1123.92,-478.247 1127.01,-482.184 1127.01,-482.184 1127.01,-482.184 1123.92,-478.247 1123.46,-484.958 1120.84,-474.31 1120.84,-474.31"/>
</g>
<!-- ndScalar&#45;&gt;ndG2Projective -->
<g id="edge28" class="edge"><title>ndScalar&#45;&gt;ndG2Projective</title>
<path fill="none" stroke="black" stroke-dasharray="5,2" d="M1249.39,-532.114C1261.19,-519.628 1272.15,-504.953 1278.5,-489 1297.25,-441.929 1306.1,-417.487 1278.5,-375 1268.63,-359.802 1255.32,-347.315 1240.3,-337.061"/>
<polygon fill="black" stroke="black" points="1231.79,-331.59 1242.64,-333.214 1236,-334.295 1240.21,-336.999 1240.21,-336.999 1240.21,-336.999 1236,-334.295 1237.77,-340.784 1231.79,-331.59 1231.79,-331.59"/>
</g>
<!-- ndScalar&#45;&gt;ndG1Affine -->
<g id="edge29" class="edge"><title>ndScalar&#45;&gt;ndG1Affine</title>
<path fill="none" stroke="black" stroke-dasharray="5,2" d="M1310.6,-532.484C1357.71,-515.247 1412.63,-495.151 1460.73,-477.552"/>
<polygon fill="black" stroke="black" points="1470.26,-474.067 1462.41,-481.729 1465.56,-475.785 1460.87,-477.503 1460.87,-477.503 1460.87,-477.503 1465.56,-475.785 1459.32,-473.277 1470.26,-474.067 1470.26,-474.067"/>
</g>
<!-- ndScalar&#45;&gt;ndG1Projective -->
<g id="edge30" class="edge"><title>ndScalar&#45;&gt;ndG1Projective</title>
<path fill="none" stroke="black" stroke-dasharray="5,2" d="M1256.22,-532.448C1271.78,-519.666 1287.8,-504.757 1300.5,-489 1336.3,-444.577 1317.16,-413.242 1359.5,-375 1376.75,-359.42 1397.21,-346.557 1418.54,-335.981"/>
<polygon fill="black" stroke="black" points="1427.72,-331.587 1420.64,-339.962 1423.21,-333.745 1418.7,-335.902 1418.7,-335.902 1418.7,-335.902 1423.21,-333.745 1416.76,-331.843 1427.72,-331.587 1427.72,-331.587"/>
</g>
</g>
</svg>
