<?xml version="1.0" encoding="UTF-8" standalone="no"?>
<!DOCTYPE svg PUBLIC "-//W3C//DTD SVG 1.1//EN"
 "http://www.w3.org/Graphics/SVG/1.1/DTD/svg11.dtd">
<!-- Generated by graphviz version 2.38.0 (20140413.2041)
 -->
<!-- Title: ml Pages: 1 -->
<svg width="1653pt" height="752pt"
 viewBox="0.00 0.00 1652.50 752.00" xmlns="http://www.w3.org/2000/svg" xmlns:xlink="http://www.w3.org/1999/xlink">
<g id="graph0" class="graph" transform="scale(1 1) rotate(0) translate(4 748)">
<title>ml</title>
<polygon fill="white" stroke="none" points="-4,4 -4,-748 1648.5,-748 1648.5,4 -4,4"/>
<!-- ndCompress -->
<g id="node1" class="node"><title>ndCompress</title>
<g id="a_node1_0"><a xlink:href="https://github.com/filecoin-project/blstrs/blob/master/src/traits.rs#:~:text=trait%20Compress" xlink:title="&lt;TABLE&gt;">
<polygon fill="lightgreen" stroke="none" points="9.5,-270.5 9.5,-307.5 104.5,-307.5 104.5,-270.5 9.5,-270.5"/>
<polygon fill="none" stroke="black" points="9.5,-270.5 9.5,-307.5 104.5,-307.5 104.5,-270.5 9.5,-270.5"/>
<text text-anchor="start" x="20.5" y="-286.3" font-family="Arial" font-weight="bold" font-size="14.00">Compress</text>
<polygon fill="none" stroke="black" points="8,-270 8,-309 105,-309 105,-270 8,-270"/>
</a>
</g>
</g>
<!-- ndGt -->
<g id="node3" class="node"><title>ndGt</title>
<g id="a_node3_1"><a xlink:href="https://github.com/filecoin-project/blstrs/blob/master/src/gt.rs#:~:text=struct%20Gt" xlink:title="&lt;TABLE&gt;">
<polygon fill="lightblue" stroke="none" points="153.5,-162 153.5,-199 218.5,-199 218.5,-162 153.5,-162"/>
<polygon fill="none" stroke="black" points="153.5,-162 153.5,-199 218.5,-199 218.5,-162 153.5,-162"/>
<text text-anchor="start" x="178" y="-177.8" font-family="Arial" font-weight="bold" font-size="14.00">Gt</text>
<polygon fill="white" stroke="none" points="153.5,-125 153.5,-162 218.5,-162 218.5,-125 153.5,-125"/>
<polygon fill="none" stroke="black" points="153.5,-125 153.5,-162 218.5,-162 218.5,-125 153.5,-125"/>
<text text-anchor="start" x="164.5" y="-139.8" font-family="Arial" font-size="14.00">&#45; Fp12</text>
<polygon fill="none" stroke="black" points="152,-124 152,-200 219,-200 219,-124 152,-124"/>
</a>
</g>
</g>
<!-- ndCompress&#45;&gt;ndGt -->
<g id="edge1" class="edge"><title>ndCompress&#45;&gt;ndGt</title>
<path fill="none" stroke="black" stroke-dasharray="5,2" d="M79.8609,-265.773C95.6343,-250.427 117.041,-229.601 136.461,-210.708"/>
<polygon fill="none" stroke="black" points="139.064,-213.06 143.791,-203.578 134.182,-208.042 139.064,-213.06"/>
</g>
<!-- ndFp2 -->
<g id="node2" class="node"><title>ndFp2</title>
<g id="a_node2_2"><a xlink:href="https://github.com/filecoin-project/blstrs/blob/master/src/fp2.rs#:~:text=struct%20Fp2" xlink:title="&lt;TABLE&gt;">
<polygon fill="lightblue" stroke="none" points="374.5,-574.5 374.5,-611.5 457.5,-611.5 457.5,-574.5 374.5,-574.5"/>
<polygon fill="none" stroke="black" points="374.5,-574.5 374.5,-611.5 457.5,-611.5 457.5,-574.5 374.5,-574.5"/>
<text text-anchor="start" x="402.5" y="-590.3" font-family="Arial" font-weight="bold" font-size="14.00">Fp2</text>
<polygon fill="white" stroke="none" points="374.5,-537.5 374.5,-574.5 457.5,-574.5 457.5,-537.5 374.5,-537.5"/>
<polygon fill="none" stroke="black" points="374.5,-537.5 374.5,-574.5 457.5,-574.5 457.5,-537.5 374.5,-537.5"/>
<text text-anchor="start" x="385.5" y="-552.3" font-family="Arial" font-size="14.00">&#45; blst_fp2</text>
<polygon fill="none" stroke="black" points="373,-536.5 373,-612.5 458,-612.5 458,-536.5 373,-536.5"/>
</a>
</g>
</g>
<!-- ndG2Affine -->
<g id="node6" class="node"><title>ndG2Affine</title>
<g id="a_node6_3"><a xlink:href="https://github.com/filecoin-project/blstrs/blob/master/src/g2.rs#:~:text=struct%20G2Affine" xlink:title="&lt;TABLE&gt;">
<polygon fill="lightblue" stroke="none" points="530.5,-432 530.5,-469 652.5,-469 652.5,-432 530.5,-432"/>
<polygon fill="none" stroke="black" points="530.5,-432 530.5,-469 652.5,-469 652.5,-432 530.5,-432"/>
<text text-anchor="start" x="561.5" y="-447.8" font-family="Arial" font-weight="bold" font-size="14.00">G2Affine</text>
<polygon fill="white" stroke="none" points="530.5,-395 530.5,-432 652.5,-432 652.5,-395 530.5,-395"/>
<polygon fill="none" stroke="black" points="530.5,-395 530.5,-432 652.5,-432 652.5,-395 530.5,-395"/>
<text text-anchor="start" x="541.5" y="-409.8" font-family="Arial" font-size="14.00">&#45; blst_p2_affine</text>
<polygon fill="none" stroke="black" points="529.5,-394 529.5,-470 653.5,-470 653.5,-394 529.5,-394"/>
</a>
</g>
</g>
<!-- ndFp2&#45;&gt;ndG2Affine -->
<g id="edge2" class="edge"><title>ndFp2&#45;&gt;ndG2Affine</title>
<path fill="none" stroke="black" stroke-dasharray="5,2" d="M466.406,-532.862C486.931,-516.477 510.752,-497.461 532.065,-480.447"/>
<polygon fill="black" stroke="black" points="540.098,-474.034 535.09,-483.79 536.191,-477.153 532.283,-480.273 532.283,-480.273 532.283,-480.273 536.191,-477.153 529.475,-476.756 540.098,-474.034 540.098,-474.034"/>
</g>
<!-- ndG2Projective -->
<g id="node7" class="node"><title>ndG2Projective</title>
<g id="a_node7_4"><a xlink:href="https://github.com/filecoin-project/blstrs/blob/master/src/g2.rs#:~:text=struct%20G2Projective" xlink:title="&lt;TABLE&gt;">
<polygon fill="lightblue" stroke="none" points="461.5,-289.5 461.5,-326.5 573.5,-326.5 573.5,-289.5 461.5,-289.5"/>
<polygon fill="none" stroke="black" points="461.5,-289.5 461.5,-326.5 573.5,-326.5 573.5,-289.5 461.5,-289.5"/>
<text text-anchor="start" x="472.5" y="-305.3" font-family="Arial" font-weight="bold" font-size="14.00">G2Projective</text>
<polygon fill="white" stroke="none" points="461.5,-252.5 461.5,-289.5 573.5,-289.5 573.5,-252.5 461.5,-252.5"/>
<polygon fill="none" stroke="black" points="461.5,-252.5 461.5,-289.5 573.5,-289.5 573.5,-252.5 461.5,-252.5"/>
<text text-anchor="start" x="472.5" y="-267.3" font-family="Arial" font-size="14.00">&#45; blst_p2</text>
<polygon fill="none" stroke="black" points="460.5,-251.5 460.5,-327.5 574.5,-327.5 574.5,-251.5 460.5,-251.5"/>
</a>
</g>
</g>
<!-- ndFp2&#45;&gt;ndG2Projective -->
<g id="edge3" class="edge"><title>ndFp2&#45;&gt;ndG2Projective</title>
<path fill="none" stroke="black" stroke-dasharray="5,2" d="M398.947,-532.2C384.891,-490.193 370.733,-424.423 396.5,-375 398.163,-371.81 421.669,-355.147 447.525,-337.45"/>
<polygon fill="black" stroke="black" points="455.978,-331.684 450.253,-341.036 451.848,-334.501 447.717,-337.319 447.717,-337.319 447.717,-337.319 451.848,-334.501 445.181,-333.601 455.978,-331.684 455.978,-331.684"/>
</g>
<!-- ndFp6 -->
<g id="node11" class="node"><title>ndFp6</title>
<g id="a_node11_5"><a xlink:href="https://github.com/filecoin-project/blstrs/blob/master/src/fp6.rs#:~:text=struct%20Fp6" xlink:title="&lt;TABLE&gt;">
<polygon fill="lightblue" stroke="none" points="219.5,-432 219.5,-469 302.5,-469 302.5,-432 219.5,-432"/>
<polygon fill="none" stroke="black" points="219.5,-432 219.5,-469 302.5,-469 302.5,-432 219.5,-432"/>
<text text-anchor="start" x="247.5" y="-447.8" font-family="Arial" font-weight="bold" font-size="14.00">Fp6</text>
<polygon fill="white" stroke="none" points="219.5,-395 219.5,-432 302.5,-432 302.5,-395 219.5,-395"/>
<polygon fill="none" stroke="black" points="219.5,-395 219.5,-432 302.5,-432 302.5,-395 219.5,-395"/>
<text text-anchor="start" x="230.5" y="-409.8" font-family="Arial" font-size="14.00">&#45; blst_fp6</text>
<polygon fill="none" stroke="black" points="218,-394 218,-470 303,-470 303,-394 218,-394"/>
</a>
</g>
</g>
<!-- ndFp2&#45;&gt;ndFp6 -->
<g id="edge4" class="edge"><title>ndFp2&#45;&gt;ndFp6</title>
<path fill="none" stroke="black" stroke-dasharray="5,2" d="M370.251,-532.484C352.503,-516.396 332.008,-497.818 313.568,-481.104"/>
<polygon fill="black" stroke="black" points="305.805,-474.067 316.237,-477.449 309.51,-477.425 313.214,-480.783 313.214,-480.783 313.214,-480.783 309.51,-477.425 310.192,-484.117 305.805,-474.067 305.805,-474.067"/>
</g>
<!-- ndFp12 -->
<g id="node13" class="node"><title>ndFp12</title>
<g id="a_node13_6"><a xlink:href="https://github.com/filecoin-project/blstrs/blob/master/src/fp12.rs#:~:text=struct%20Fp12" xlink:title="&lt;TABLE&gt;">
<polygon fill="lightblue" stroke="none" points="140.5,-289.5 140.5,-326.5 231.5,-326.5 231.5,-289.5 140.5,-289.5"/>
<polygon fill="none" stroke="black" points="140.5,-289.5 140.5,-326.5 231.5,-326.5 231.5,-289.5 140.5,-289.5"/>
<text text-anchor="start" x="168.5" y="-305.3" font-family="Arial" font-weight="bold" font-size="14.00">Fp12</text>
<polygon fill="white" stroke="none" points="140.5,-252.5 140.5,-289.5 231.5,-289.5 231.5,-252.5 140.5,-252.5"/>
<polygon fill="none" stroke="black" points="140.5,-252.5 140.5,-289.5 231.5,-289.5 231.5,-252.5 140.5,-252.5"/>
<text text-anchor="start" x="151.5" y="-267.3" font-family="Arial" font-size="14.00">&#45; blst_fp12</text>
<polygon fill="none" stroke="black" points="139,-251.5 139,-327.5 232,-327.5 232,-251.5 139,-251.5"/>
</a>
</g>
</g>
<!-- ndFp2&#45;&gt;ndFp12 -->
<g id="edge5" class="edge"><title>ndFp2&#45;&gt;ndFp12</title>
<path fill="none" stroke="black" stroke-dasharray="5,2" d="M364.963,-568.761C314.465,-561.103 238.966,-541.112 200.5,-489 169.433,-446.912 169.86,-385.199 175.399,-341.783"/>
<polygon fill="black" stroke="black" points="176.816,-331.713 179.879,-342.242 176.119,-336.664 175.423,-341.615 175.423,-341.615 175.423,-341.615 176.119,-336.664 170.966,-340.988 176.816,-331.713 176.816,-331.713"/>
</g>
<!-- ndFp6Ser -->
<g id="node19" class="node"><title>ndFp6Ser</title>
<g id="a_node19_7"><a xlink:href="https://github.com/filecoin-project/blstrs/blob/master/src/serde_impl.rs#:~:text=struct%20Fp6Ser" xlink:title="&lt;TABLE&gt;">
<polygon fill="lightblue" stroke="none" points="414.5,-447 414.5,-484 494.5,-484 494.5,-447 414.5,-447"/>
<polygon fill="none" stroke="black" points="414.5,-447 414.5,-484 494.5,-484 494.5,-447 414.5,-447"/>
<text text-anchor="start" x="429" y="-462.8" font-family="Arial" font-weight="bold" font-size="14.00">Fp6Ser</text>
<polygon fill="white" stroke="none" points="414.5,-380 414.5,-447 494.5,-447 494.5,-380 414.5,-380"/>
<polygon fill="none" stroke="black" points="414.5,-380 414.5,-447 494.5,-447 494.5,-380 414.5,-380"/>
<text text-anchor="start" x="425.5" y="-424.8" font-family="Arial" font-size="14.00">&#45; c0: Fp2</text>
<text text-anchor="start" x="425.5" y="-409.8" font-family="Arial" font-size="14.00">&#45; c1: Fp2</text>
<text text-anchor="start" x="425.5" y="-394.8" font-family="Arial" font-size="14.00">&#45; c2: Fp2</text>
<polygon fill="none" stroke="black" points="413.5,-379 413.5,-485 495.5,-485 495.5,-379 413.5,-379"/>
</a>
</g>
</g>
<!-- ndFp2&#45;&gt;ndFp6Ser -->
<g id="edge6" class="edge"><title>ndFp2&#45;&gt;ndFp6Ser</title>
<path fill="none" stroke="black" d="M426.885,-532.484C429.643,-522.55 432.663,-511.668 435.663,-500.86"/>
<polygon fill="black" stroke="black" points="435.687,-500.774 433.438,-493.923 438.897,-489.212 441.146,-496.063 435.687,-500.774"/>
</g>
<!-- ndGtCompressed -->
<g id="node4" class="node"><title>ndGtCompressed</title>
<g id="a_node4_8"><a xlink:href="https://github.com/filecoin-project/blstrs/blob/master/src/gt.rs#:~:text=struct%20GtCompressed" xlink:title="&lt;TABLE&gt;">
<polygon fill="lightblue" stroke="none" points="121.5,-42 121.5,-79 249.5,-79 249.5,-42 121.5,-42"/>
<polygon fill="none" stroke="black" points="121.5,-42 121.5,-79 249.5,-79 249.5,-42 121.5,-42"/>
<text text-anchor="start" x="132.5" y="-57.8" font-family="Arial" font-weight="bold" font-size="14.00">GtCompressed</text>
<polygon fill="white" stroke="none" points="121.5,-5 121.5,-42 249.5,-42 249.5,-5 121.5,-5"/>
<polygon fill="none" stroke="black" points="121.5,-5 121.5,-42 249.5,-42 249.5,-5 121.5,-5"/>
<text text-anchor="start" x="132.5" y="-19.8" font-family="Arial" font-size="14.00">&#45; Fp6</text>
<polygon fill="none" stroke="black" points="120.5,-4 120.5,-80 250.5,-80 250.5,-4 120.5,-4"/>
</a>
</g>
</g>
<!-- ndGt&#45;&gt;ndGtCompressed -->
<g id="edge7" class="edge"><title>ndGt&#45;&gt;ndGtCompressed</title>
<path fill="none" stroke="black" d="M179.029,-119.729C178.655,-108.165 178.657,-95.5993 179.036,-84.0481"/>
</g>
<!-- ndMillerLoopResult -->
<g id="node12" class="node"><title>ndMillerLoopResult</title>
<g id="a_node12_9"><a xlink:href="https://github.com/filecoin-project/blstrs/blob/master/src/pairing.rs#:~:text=struct%20MillerLoopResult" xlink:title="&lt;TABLE&gt;">
<polygon fill="lightblue" stroke="none" points="285.5,-42 285.5,-79 425.5,-79 425.5,-42 285.5,-42"/>
<polygon fill="none" stroke="black" points="285.5,-42 285.5,-79 425.5,-79 425.5,-42 285.5,-42"/>
<text text-anchor="start" x="296.5" y="-57.8" font-family="Arial" font-weight="bold" font-size="14.00">MillerLoopResult</text>
<polygon fill="white" stroke="none" points="285.5,-5 285.5,-42 425.5,-42 425.5,-5 285.5,-5"/>
<polygon fill="none" stroke="black" points="285.5,-5 285.5,-42 425.5,-42 425.5,-5 285.5,-5"/>
<text text-anchor="start" x="296.5" y="-19.8" font-family="Arial" font-size="14.00">&#45; Fp12</text>
<polygon fill="none" stroke="black" points="284.5,-4 284.5,-80 426.5,-80 426.5,-4 284.5,-4"/>
</a>
</g>
</g>
<!-- ndGt&#45;&gt;ndMillerLoopResult -->
<g id="edge8" class="edge"><title>ndGt&#45;&gt;ndMillerLoopResult</title>
<path fill="none" stroke="black" d="M227.087,-132.134C245.402,-119.421 267.394,-104.156 287.96,-89.8805"/>
<polygon fill="black" stroke="black" points="296.367,-84.0455 290.718,-93.4445 292.259,-86.8966 288.152,-89.7477 288.152,-89.7477 288.152,-89.7477 292.259,-86.8966 285.586,-86.051 296.367,-84.0455 296.367,-84.0455"/>
</g>
<!-- ndGtCompressed&#45;&gt;ndGt -->
<g id="edge9" class="edge"><title>ndGtCompressed&#45;&gt;ndGt</title>
<path fill="none" stroke="black" d="M191.964,-84.0481C192.343,-95.5993 192.345,-108.165 191.971,-119.729"/>
</g>
<!-- ndFp -->
<g id="node5" class="node"><title>ndFp</title>
<g id="a_node5_10"><a xlink:href="https://github.com/filecoin-project/blstrs/blob/master/src/fp.rs#:~:text=struct%20Fp" xlink:title="&lt;TABLE&gt;">
<polygon fill="lightblue" stroke="none" points="553.5,-702 553.5,-739 627.5,-739 627.5,-702 553.5,-702"/>
<polygon fill="none" stroke="black" points="553.5,-702 553.5,-739 627.5,-739 627.5,-702 553.5,-702"/>
<text text-anchor="start" x="581" y="-717.8" font-family="Arial" font-weight="bold" font-size="14.00">Fp</text>
<polygon fill="white" stroke="none" points="553.5,-665 553.5,-702 627.5,-702 627.5,-665 553.5,-665"/>
<polygon fill="none" stroke="black" points="553.5,-665 553.5,-702 627.5,-702 627.5,-665 553.5,-665"/>
<text text-anchor="start" x="564.5" y="-679.8" font-family="Arial" font-size="14.00">&#45; blst_fp</text>
<polygon fill="none" stroke="black" points="552.5,-664 552.5,-740 628.5,-740 628.5,-664 552.5,-664"/>
</a>
</g>
</g>
<!-- ndFp&#45;&gt;ndFp2 -->
<g id="edge10" class="edge"><title>ndFp&#45;&gt;ndFp2</title>
<path fill="none" stroke="black" stroke-dasharray="5,2" d="M544.063,-667.698C522.689,-652.37 497.088,-634.01 474.378,-617.724"/>
<polygon fill="black" stroke="black" points="466.155,-611.827 476.904,-613.998 470.218,-614.741 474.281,-617.655 474.281,-617.655 474.281,-617.655 470.218,-614.741 471.659,-621.311 466.155,-611.827 466.155,-611.827"/>
</g>
<!-- ndFp&#45;&gt;ndFp6 -->
<g id="edge11" class="edge"><title>ndFp&#45;&gt;ndFp6</title>
<path fill="none" stroke="black" stroke-dasharray="5,2" d="M544.471,-696.395C493.195,-689.082 410.433,-670.496 356.5,-624 313.863,-587.243 288.049,-526.988 274.091,-483.986"/>
<polygon fill="black" stroke="black" points="271.043,-474.271 278.33,-482.465 272.539,-479.041 274.036,-483.812 274.036,-483.812 274.036,-483.812 272.539,-479.041 269.743,-485.159 271.043,-474.271 271.043,-474.271"/>
</g>
<!-- ndFp&#45;&gt;ndFp12 -->
<g id="edge12" class="edge"><title>ndFp&#45;&gt;ndFp12</title>
<path fill="none" stroke="black" stroke-dasharray="5,2" d="M544.256,-697.699C482.015,-691.452 369.737,-673.692 288.5,-624 220.27,-582.264 197.769,-563.82 169.5,-489 151.494,-441.344 159.517,-382.785 169.57,-341.663"/>
<polygon fill="black" stroke="black" points="172.085,-331.862 173.958,-342.667 170.842,-336.706 169.6,-341.549 169.6,-341.549 169.6,-341.549 170.842,-336.706 165.241,-340.43 172.085,-331.862 172.085,-331.862"/>
</g>
<!-- ndG1Affine -->
<g id="node14" class="node"><title>ndG1Affine</title>
<g id="a_node14_11"><a xlink:href="https://github.com/filecoin-project/blstrs/blob/master/src/g1.rs#:~:text=struct%20G1Affine" xlink:title="&lt;TABLE&gt;">
<polygon fill="lightblue" stroke="none" points="802.5,-432 802.5,-469 924.5,-469 924.5,-432 802.5,-432"/>
<polygon fill="none" stroke="black" points="802.5,-432 802.5,-469 924.5,-469 924.5,-432 802.5,-432"/>
<text text-anchor="start" x="833.5" y="-447.8" font-family="Arial" font-weight="bold" font-size="14.00">G1Affine</text>
<polygon fill="white" stroke="none" points="802.5,-395 802.5,-432 924.5,-432 924.5,-395 802.5,-395"/>
<polygon fill="none" stroke="black" points="802.5,-395 802.5,-432 924.5,-432 924.5,-395 802.5,-395"/>
<text text-anchor="start" x="813.5" y="-409.8" font-family="Arial" font-size="14.00">&#45; blst_p1_affine</text>
<polygon fill="none" stroke="black" points="801.5,-394 801.5,-470 925.5,-470 925.5,-394 801.5,-394"/>
</a>
</g>
</g>
<!-- ndFp&#45;&gt;ndG1Affine -->
<g id="edge13" class="edge"><title>ndFp&#45;&gt;ndG1Affine</title>
<path fill="none" stroke="black" stroke-dasharray="5,2" d="M636.756,-665.219C639.979,-663.329 643.242,-661.566 646.5,-660 701.691,-633.465 733.075,-663.936 779.5,-624 780.226,-623.375 816.691,-540.13 841.333,-483.757"/>
<polygon fill="black" stroke="black" points="845.482,-474.265 845.6,-485.23 843.479,-478.846 841.477,-483.428 841.477,-483.428 841.477,-483.428 843.479,-478.846 837.354,-481.626 845.482,-474.265 845.482,-474.265"/>
</g>
<!-- ndG1Projective -->
<g id="node15" class="node"><title>ndG1Projective</title>
<g id="a_node15_12"><a xlink:href="https://github.com/filecoin-project/blstrs/blob/master/src/g1.rs#:~:text=struct%20G1Projective" xlink:title="&lt;TABLE&gt;">
<polygon fill="lightblue" stroke="none" points="807.5,-289.5 807.5,-326.5 919.5,-326.5 919.5,-289.5 807.5,-289.5"/>
<polygon fill="none" stroke="black" points="807.5,-289.5 807.5,-326.5 919.5,-326.5 919.5,-289.5 807.5,-289.5"/>
<text text-anchor="start" x="818.5" y="-305.3" font-family="Arial" font-weight="bold" font-size="14.00">G1Projective</text>
<polygon fill="white" stroke="none" points="807.5,-252.5 807.5,-289.5 919.5,-289.5 919.5,-252.5 807.5,-252.5"/>
<polygon fill="none" stroke="black" points="807.5,-252.5 807.5,-289.5 919.5,-289.5 919.5,-252.5 807.5,-252.5"/>
<text text-anchor="start" x="818.5" y="-267.3" font-family="Arial" font-size="14.00">&#45; blst_p1</text>
<polygon fill="none" stroke="black" points="806.5,-251.5 806.5,-327.5 920.5,-327.5 920.5,-251.5 806.5,-251.5"/>
</a>
</g>
</g>
<!-- ndFp&#45;&gt;ndG1Projective -->
<g id="edge14" class="edge"><title>ndFp&#45;&gt;ndG1Projective</title>
<path fill="none" stroke="black" stroke-dasharray="5,2" d="M636.613,-665.76C639.897,-663.713 643.211,-661.77 646.5,-660 686.994,-638.21 714.254,-659.486 743.5,-624 814.832,-537.45 734.961,-475.623 784.5,-375 790.71,-362.386 799.432,-350.352 808.827,-339.524"/>
<polygon fill="black" stroke="black" points="815.76,-331.861 812.387,-342.296 812.405,-335.569 809.051,-339.276 809.051,-339.276 809.051,-339.276 812.405,-335.569 805.714,-336.257 815.76,-331.861 815.76,-331.861"/>
</g>
<!-- ndFp2Ser -->
<g id="node18" class="node"><title>ndFp2Ser</title>
<g id="a_node18_13"><a xlink:href="https://github.com/filecoin-project/blstrs/blob/master/src/serde_impl.rs#:~:text=struct%20Fp2Ser" xlink:title="&lt;TABLE&gt;">
<polygon fill="lightblue" stroke="none" points="841.5,-581.5 841.5,-618.5 914.5,-618.5 914.5,-581.5 841.5,-581.5"/>
<polygon fill="none" stroke="black" points="841.5,-581.5 841.5,-618.5 914.5,-618.5 914.5,-581.5 841.5,-581.5"/>
<text text-anchor="start" x="852.5" y="-597.3" font-family="Arial" font-weight="bold" font-size="14.00">Fp2Ser</text>
<polygon fill="white" stroke="none" points="841.5,-529.5 841.5,-581.5 914.5,-581.5 914.5,-529.5 841.5,-529.5"/>
<polygon fill="none" stroke="black" points="841.5,-529.5 841.5,-581.5 914.5,-581.5 914.5,-529.5 841.5,-529.5"/>
<text text-anchor="start" x="852.5" y="-559.3" font-family="Arial" font-size="14.00">&#45; c0: Fp</text>
<text text-anchor="start" x="852.5" y="-544.3" font-family="Arial" font-size="14.00">&#45; c1: Fp</text>
<polygon fill="none" stroke="black" points="840,-529 840,-620 915,-620 915,-529 840,-529"/>
</a>
</g>
</g>
<!-- ndFp&#45;&gt;ndFp2Ser -->
<g id="edge15" class="edge"><title>ndFp&#45;&gt;ndFp2Ser</title>
<path fill="none" stroke="black" d="M636.655,-665.001C639.903,-663.164 643.199,-661.473 646.5,-660 717.424,-628.35 747.353,-657.337 817.5,-624 818.71,-623.425 819.917,-622.821 821.119,-622.191"/>
<polygon fill="black" stroke="black" points="821.436,-622.004 824.571,-615.51 831.772,-615.906 828.637,-622.4 821.436,-622.004"/>
</g>
<!-- ndG2Affine&#45;&gt;ndG2Projective -->
<g id="edge16" class="edge"><title>ndG2Affine&#45;&gt;ndG2Projective</title>
<path fill="none" stroke="black" stroke-dasharray="5,2" d="M563.696,-389.984C555.028,-374.682 545.68,-357.127 537.624,-341.066"/>
<polygon fill="black" stroke="black" points="533.045,-331.81 541.513,-338.778 535.262,-336.292 537.479,-340.774 537.479,-340.774 537.479,-340.774 535.262,-336.292 533.446,-342.769 533.045,-331.81 533.045,-331.81"/>
</g>
<!-- ndG2Prepared -->
<g id="node8" class="node"><title>ndG2Prepared</title>
<g id="a_node8_14"><a xlink:href="https://github.com/filecoin-project/blstrs/blob/master/src/g2.rs#:~:text=struct%20G2Prepared" xlink:title="&lt;TABLE&gt;">
<polygon fill="lightblue" stroke="none" points="610.5,-296.5 610.5,-333.5 771.5,-333.5 771.5,-296.5 610.5,-296.5"/>
<polygon fill="none" stroke="black" points="610.5,-296.5 610.5,-333.5 771.5,-333.5 771.5,-296.5 610.5,-296.5"/>
<text text-anchor="start" x="648.5" y="-312.3" font-family="Arial" font-weight="bold" font-size="14.00">G2Prepared</text>
<polygon fill="white" stroke="none" points="610.5,-244.5 610.5,-296.5 771.5,-296.5 771.5,-244.5 610.5,-244.5"/>
<polygon fill="none" stroke="black" points="610.5,-244.5 610.5,-296.5 771.5,-296.5 771.5,-244.5 610.5,-244.5"/>
<text text-anchor="start" x="621.5" y="-274.3" font-family="Arial" font-size="14.00">&#45; lines: Vec&lt;blst_fp6&gt;</text>
<text text-anchor="start" x="621.5" y="-259.3" font-family="Arial" font-size="14.00">&#45; infinity: bool</text>
<polygon fill="none" stroke="black" points="609,-244 609,-335 772,-335 772,-244 609,-244"/>
</a>
</g>
</g>
<!-- ndG2Affine&#45;&gt;ndG2Prepared -->
<g id="edge17" class="edge"><title>ndG2Affine&#45;&gt;ndG2Prepared</title>
<path fill="none" stroke="black" stroke-dasharray="5,2" d="M620.401,-389.984C629.8,-376.645 640.404,-361.595 650.467,-347.315"/>
<polygon fill="black" stroke="black" points="656.316,-339.014 654.234,-349.781 653.436,-343.102 650.556,-347.189 650.556,-347.189 650.556,-347.189 653.436,-343.102 646.877,-344.597 656.316,-339.014 656.316,-339.014"/>
</g>
<!-- ndG2Projective&#45;&gt;ndG2Affine -->
<g id="edge18" class="edge"><title>ndG2Projective&#45;&gt;ndG2Affine</title>
<path fill="none" stroke="black" stroke-dasharray="5,2" d="M545.471,-331.81C554.147,-347.141 563.491,-364.7 571.531,-380.742"/>
<polygon fill="black" stroke="black" points="576.098,-389.984 567.633,-383.013 573.883,-385.501 571.667,-381.019 571.667,-381.019 571.667,-381.019 573.883,-385.501 575.702,-379.025 576.098,-389.984 576.098,-389.984"/>
</g>
<!-- ndG2Uncompressed -->
<g id="node9" class="node"><title>ndG2Uncompressed</title>
<g id="a_node9_15"><a xlink:href="https://github.com/filecoin-project/blstrs/blob/master/src/g2.rs#:~:text=struct%20G2Uncompressed" xlink:title="&lt;TABLE&gt;">
<polygon fill="lightblue" stroke="none" points="664.5,-702 664.5,-739 889.5,-739 889.5,-702 664.5,-702"/>
<polygon fill="none" stroke="black" points="664.5,-702 664.5,-739 889.5,-739 889.5,-702 664.5,-702"/>
<text text-anchor="start" x="714" y="-717.8" font-family="Arial" font-weight="bold" font-size="14.00">G2Uncompressed</text>
<polygon fill="white" stroke="none" points="664.5,-665 664.5,-702 889.5,-702 889.5,-665 664.5,-665"/>
<polygon fill="none" stroke="black" points="664.5,-665 664.5,-702 889.5,-702 889.5,-665 664.5,-665"/>
<text text-anchor="start" x="675.5" y="-679.8" font-family="Arial" font-size="14.00">&#45; [u8; UNCOMPRESSED_SIZE]</text>
<polygon fill="none" stroke="black" points="663,-664 663,-740 890,-740 890,-664 663,-664"/>
</a>
</g>
</g>
<!-- ndG2Compressed -->
<g id="node10" class="node"><title>ndG2Compressed</title>
<g id="a_node10_16"><a xlink:href="https://github.com/filecoin-project/blstrs/blob/master/src/g2.rs#:~:text=struct%20G2Compressed" xlink:title="&lt;TABLE&gt;">
<polygon fill="lightblue" stroke="none" points="925.5,-702 925.5,-739 1131.5,-739 1131.5,-702 925.5,-702"/>
<polygon fill="none" stroke="black" points="925.5,-702 925.5,-739 1131.5,-739 1131.5,-702 925.5,-702"/>
<text text-anchor="start" x="974" y="-717.8" font-family="Arial" font-weight="bold" font-size="14.00">G2Compressed</text>
<polygon fill="white" stroke="none" points="925.5,-665 925.5,-702 1131.5,-702 1131.5,-665 925.5,-665"/>
<polygon fill="none" stroke="black" points="925.5,-665 925.5,-702 1131.5,-702 1131.5,-665 925.5,-665"/>
<text text-anchor="start" x="936.5" y="-679.8" font-family="Arial" font-size="14.00">&#45; [u8; COMPRESSED_SIZE]</text>
<polygon fill="none" stroke="black" points="924.5,-664 924.5,-740 1132.5,-740 1132.5,-664 924.5,-664"/>
</a>
</g>
</g>
<!-- ndFp6&#45;&gt;ndGtCompressed -->
<g id="edge19" class="edge"><title>ndFp6&#45;&gt;ndGtCompressed</title>
<path fill="none" stroke="black" d="M263.813,-389.84C267.265,-328.941 268.282,-212.112 235.5,-120 232.453,-111.438 228.283,-102.871 223.641,-94.7248"/>
<polygon fill="black" stroke="black" points="223.541,-94.5583 217.011,-91.4992 217.323,-84.2948 223.853,-87.354 223.541,-94.5583"/>
</g>
<!-- ndFp6&#45;&gt;ndFp12 -->
<g id="edge20" class="edge"><title>ndFp6&#45;&gt;ndFp12</title>
<path fill="none" stroke="black" stroke-dasharray="5,2" d="M238.605,-389.984C230.437,-374.682 221.066,-357.127 212.493,-341.066"/>
<polygon fill="black" stroke="black" points="207.552,-331.81 216.231,-338.513 209.906,-336.221 212.261,-340.632 212.261,-340.632 212.261,-340.632 209.906,-336.221 208.291,-342.751 207.552,-331.81 207.552,-331.81"/>
</g>
<!-- ndFp12Ser -->
<g id="node20" class="node"><title>ndFp12Ser</title>
<g id="a_node20_17"><a xlink:href="https://github.com/filecoin-project/blstrs/blob/master/src/serde_impl.rs#:~:text=struct%20Fp12Ser" xlink:title="&lt;TABLE&gt;">
<polygon fill="lightblue" stroke="none" points="344.5,-296.5 344.5,-333.5 425.5,-333.5 425.5,-296.5 344.5,-296.5"/>
<polygon fill="none" stroke="black" points="344.5,-296.5 344.5,-333.5 425.5,-333.5 425.5,-296.5 344.5,-296.5"/>
<text text-anchor="start" x="355.5" y="-312.3" font-family="Arial" font-weight="bold" font-size="14.00">Fp12Ser</text>
<polygon fill="white" stroke="none" points="344.5,-244.5 344.5,-296.5 425.5,-296.5 425.5,-244.5 344.5,-244.5"/>
<polygon fill="none" stroke="black" points="344.5,-244.5 344.5,-296.5 425.5,-296.5 425.5,-244.5 344.5,-244.5"/>
<text text-anchor="start" x="355.5" y="-274.3" font-family="Arial" font-size="14.00">&#45; c0: Fp6</text>
<text text-anchor="start" x="355.5" y="-259.3" font-family="Arial" font-size="14.00">&#45; c1: Fp6</text>
<polygon fill="none" stroke="black" points="343,-244 343,-335 426,-335 426,-244 343,-244"/>
</a>
</g>
</g>
<!-- ndFp6&#45;&gt;ndFp12Ser -->
<g id="edge21" class="edge"><title>ndFp6&#45;&gt;ndFp12Ser</title>
<path fill="none" stroke="black" d="M296.699,-389.984C308.251,-376.895 321.258,-362.157 333.65,-348.116"/>
<polygon fill="black" stroke="black" points="333.743,-348.011 334.714,-340.866 341.683,-339.014 340.712,-346.16 333.743,-348.011"/>
</g>
<!-- ndFp12&#45;&gt;ndGt -->
<g id="edge22" class="edge"><title>ndFp12&#45;&gt;ndGt</title>
<path fill="none" stroke="black" stroke-dasharray="5,2" d="M185.5,-247.407C185.5,-237.439 185.5,-226.64 185.5,-216.202"/>
<polygon fill="black" stroke="black" points="185.5,-216.186 181.5,-210.186 185.5,-204.186 189.5,-210.186 185.5,-216.186"/>
</g>
<!-- ndFp12&#45;&gt;ndMillerLoopResult -->
<g id="edge23" class="edge"><title>ndFp12&#45;&gt;ndMillerLoopResult</title>
<path fill="none" stroke="black" d="M213.954,-247.409C243.129,-205.277 288.569,-139.657 320.06,-94.1792"/>
<polygon fill="black" stroke="black" points="320.121,-94.0908 320.249,-86.8808 326.953,-84.2252 326.826,-91.4352 320.121,-94.0908"/>
</g>
<!-- ndG1Affine&#45;&gt;ndG1Projective -->
<g id="edge24" class="edge"><title>ndG1Affine&#45;&gt;ndG1Projective</title>
<path fill="none" stroke="black" stroke-dasharray="5,2" d="M857.299,-389.984C856.702,-374.968 856.592,-357.783 856.969,-341.968"/>
<polygon fill="black" stroke="black" points="857.287,-331.81 861.472,-341.946 857.131,-336.808 856.974,-341.805 856.974,-341.805 856.974,-341.805 857.131,-336.808 852.476,-341.665 857.287,-331.81 857.287,-331.81"/>
</g>
<!-- ndG1Projective&#45;&gt;ndG1Affine -->
<g id="edge25" class="edge"><title>ndG1Projective&#45;&gt;ndG1Affine</title>
<path fill="none" stroke="black" stroke-dasharray="5,2" d="M869.713,-331.81C870.304,-346.855 870.407,-364.045 870.023,-379.841"/>
<polygon fill="black" stroke="black" points="869.701,-389.984 865.521,-379.846 869.86,-384.986 870.019,-379.989 870.019,-379.989 870.019,-379.989 869.86,-384.986 874.517,-380.132 869.701,-389.984 869.701,-389.984"/>
</g>
<!-- ndG1Uncompressed -->
<g id="node16" class="node"><title>ndG1Uncompressed</title>
<g id="a_node16_18"><a xlink:href="https://github.com/filecoin-project/blstrs/blob/master/src/g1.rs#:~:text=struct%20G1Uncompressed" xlink:title="&lt;TABLE&gt;">
<polygon fill="lightblue" stroke="none" points="1168.5,-702 1168.5,-739 1393.5,-739 1393.5,-702 1168.5,-702"/>
<polygon fill="none" stroke="black" points="1168.5,-702 1168.5,-739 1393.5,-739 1393.5,-702 1168.5,-702"/>
<text text-anchor="start" x="1218" y="-717.8" font-family="Arial" font-weight="bold" font-size="14.00">G1Uncompressed</text>
<polygon fill="white" stroke="none" points="1168.5,-665 1168.5,-702 1393.5,-702 1393.5,-665 1168.5,-665"/>
<polygon fill="none" stroke="black" points="1168.5,-665 1168.5,-702 1393.5,-702 1393.5,-665 1168.5,-665"/>
<text text-anchor="start" x="1179.5" y="-679.8" font-family="Arial" font-size="14.00">&#45; [u8; UNCOMPRESSED_SIZE]</text>
<polygon fill="none" stroke="black" points="1167,-664 1167,-740 1394,-740 1394,-664 1167,-664"/>
</a>
</g>
</g>
<!-- ndG1Compressed -->
<g id="node17" class="node"><title>ndG1Compressed</title>
<g id="a_node17_19"><a xlink:href="https://github.com/filecoin-project/blstrs/blob/master/src/g1.rs#:~:text=struct%20G1Compressed" xlink:title="&lt;TABLE&gt;">
<polygon fill="lightblue" stroke="none" points="1429.5,-702 1429.5,-739 1635.5,-739 1635.5,-702 1429.5,-702"/>
<polygon fill="none" stroke="black" points="1429.5,-702 1429.5,-739 1635.5,-739 1635.5,-702 1429.5,-702"/>
<text text-anchor="start" x="1478" y="-717.8" font-family="Arial" font-weight="bold" font-size="14.00">G1Compressed</text>
<polygon fill="white" stroke="none" points="1429.5,-665 1429.5,-702 1635.5,-702 1635.5,-665 1429.5,-665"/>
<polygon fill="none" stroke="black" points="1429.5,-665 1429.5,-702 1635.5,-702 1635.5,-665 1429.5,-665"/>
<text text-anchor="start" x="1440.5" y="-679.8" font-family="Arial" font-size="14.00">&#45; [u8; COMPRESSED_SIZE]</text>
<polygon fill="none" stroke="black" points="1428.5,-664 1428.5,-740 1636.5,-740 1636.5,-664 1428.5,-664"/>
</a>
</g>
</g>
<!-- ndScalar -->
<g id="node21" class="node"><title>ndScalar</title>
<g id="a_node21_20"><a xlink:href="https://github.com/filecoin-project/blstrs/blob/master/src/scalar.rs#:~:text=struct%20Scalar" xlink:title="&lt;TABLE&gt;">
<polygon fill="lightblue" stroke="none" points="654.5,-574.5 654.5,-611.5 725.5,-611.5 725.5,-574.5 654.5,-574.5"/>
<polygon fill="none" stroke="black" points="654.5,-574.5 654.5,-611.5 725.5,-611.5 725.5,-574.5 654.5,-574.5"/>
<text text-anchor="start" x="667.5" y="-590.3" font-family="Arial" font-weight="bold" font-size="14.00">Scalar</text>
<polygon fill="white" stroke="none" points="654.5,-537.5 654.5,-574.5 725.5,-574.5 725.5,-537.5 654.5,-537.5"/>
<polygon fill="none" stroke="black" points="654.5,-537.5 654.5,-574.5 725.5,-574.5 725.5,-537.5 654.5,-537.5"/>
<text text-anchor="start" x="665.5" y="-552.3" font-family="Arial" font-size="14.00">&#45; blst_fr</text>
<polygon fill="none" stroke="black" points="653,-536.5 653,-612.5 726,-612.5 726,-536.5 653,-536.5"/>
</a>
</g>
</g>
<!-- ndScalar&#45;&gt;ndGt -->
<g id="edge26" class="edge"><title>ndScalar&#45;&gt;ndGt</title>
<path fill="none" stroke="black" stroke-dasharray="5,2" d="M644.79,-564.811C572.851,-550.149 435.519,-519.136 396.5,-489 345.556,-449.654 285.428,-292.724 248.5,-240 241.986,-230.699 234.662,-221.097 227.375,-211.962"/>
<polygon fill="black" stroke="black" points="221.002,-204.074 230.787,-209.025 224.144,-207.963 227.287,-211.853 227.287,-211.853 227.287,-211.853 224.144,-207.963 223.786,-214.681 221.002,-204.074 221.002,-204.074"/>
</g>
<!-- ndScalar&#45;&gt;ndG2Affine -->
<g id="edge27" class="edge"><title>ndScalar&#45;&gt;ndG2Affine</title>
<path fill="none" stroke="black" stroke-dasharray="5,2" d="M660.891,-532.484C650.018,-516.896 637.515,-498.97 626.143,-482.667"/>
<polygon fill="black" stroke="black" points="620.314,-474.31 629.726,-479.938 623.175,-478.411 626.035,-482.512 626.035,-482.512 626.035,-482.512 623.175,-478.411 622.344,-485.087 620.314,-474.31 620.314,-474.31"/>
</g>
<!-- ndScalar&#45;&gt;ndG2Projective -->
<g id="edge28" class="edge"><title>ndScalar&#45;&gt;ndG2Projective</title>
<path fill="none" stroke="black" stroke-dasharray="5,2" d="M696.724,-532.167C701.922,-488.916 703.145,-421.028 670.5,-375 648.412,-343.857 625.948,-357.413 592.5,-339 591.184,-338.276 589.86,-337.537 588.531,-336.785"/>
<polygon fill="black" stroke="black" points="579.708,-331.667 590.616,-332.792 584.033,-334.176 588.358,-336.685 588.358,-336.685 588.358,-336.685 584.033,-334.176 586.1,-340.577 579.708,-331.667 579.708,-331.667"/>
</g>
<!-- ndScalar&#45;&gt;ndG1Affine -->
<g id="edge29" class="edge"><title>ndScalar&#45;&gt;ndG1Affine</title>
<path fill="none" stroke="black" stroke-dasharray="5,2" d="M734.309,-537.318C755.747,-520.008 781.694,-499.056 804.693,-480.485"/>
<polygon fill="black" stroke="black" points="812.693,-474.025 807.74,-483.808 808.803,-477.166 804.913,-480.307 804.913,-480.307 804.913,-480.307 808.803,-477.166 802.086,-476.806 812.693,-474.025 812.693,-474.025"/>
</g>
<!-- ndScalar&#45;&gt;ndG1Projective -->
<g id="edge30" class="edge"><title>ndScalar&#45;&gt;ndG1Projective</title>
<path fill="none" stroke="black" stroke-dasharray="5,2" d="M694.817,-532.207C701.94,-489.607 717.822,-422.819 751.5,-375 758.158,-365.547 775.281,-351.484 794.191,-337.53"/>
<polygon fill="black" stroke="black" points="802.38,-331.571 796.943,-341.093 798.337,-334.513 794.295,-337.455 794.295,-337.455 794.295,-337.455 798.337,-334.513 791.646,-333.817 802.38,-331.571 802.38,-331.571"/>
</g>
</g>
</svg>
