<?xml version="1.0" encoding="UTF-8" standalone="no"?>
<!DOCTYPE svg PUBLIC "-//W3C//DTD SVG 1.1//EN"
 "http://www.w3.org/Graphics/SVG/1.1/DTD/svg11.dtd">
<!-- Generated by graphviz version 2.38.0 (20140413.2041)
 -->
<!-- Title: ml Pages: 1 -->
<svg width="1345pt" height="662pt"
 viewBox="0.00 0.00 1344.50 662.00" xmlns="http://www.w3.org/2000/svg" xmlns:xlink="http://www.w3.org/1999/xlink">
<g id="graph0" class="graph" transform="scale(1 1) rotate(0) translate(4 658)">
<title>ml</title>
<polygon fill="white" stroke="none" points="-4,4 -4,-658 1340.5,-658 1340.5,4 -4,4"/>
<!-- ndRevealedCommitment -->
<g id="node1" class="node"><title>ndRevealedCommitment</title>
<g id="a_node1_0"><a xlink:href="https://github.com/maidsafe/blst-ringct/blob/master/src/lib.rs#:~:text=struct%20RevealedCommitment" xlink:title="&lt;TABLE&gt;">
<polygon fill="lightblue" stroke="none" points="224.5,-581.5 224.5,-618.5 398.5,-618.5 398.5,-581.5 224.5,-581.5"/>
<polygon fill="none" stroke="black" points="224.5,-581.5 224.5,-618.5 398.5,-618.5 398.5,-581.5 224.5,-581.5"/>
<text text-anchor="start" x="235.5" y="-597.3" font-family="Arial" font-weight="bold" font-size="14.00">RevealedCommitment</text>
<polygon fill="white" stroke="none" points="224.5,-529.5 224.5,-581.5 398.5,-581.5 398.5,-529.5 224.5,-529.5"/>
<polygon fill="none" stroke="black" points="224.5,-529.5 224.5,-581.5 398.5,-581.5 398.5,-529.5 224.5,-529.5"/>
<text text-anchor="start" x="235.5" y="-559.3" font-family="Arial" font-size="14.00">+ value: u64</text>
<text text-anchor="start" x="235.5" y="-544.3" font-family="Arial" font-size="14.00">+ blinding: Scalar</text>
<polygon fill="none" stroke="black" points="223.5,-529 223.5,-620 399.5,-620 399.5,-529 223.5,-529"/>
</a>
</g>
</g>
<!-- ndOutput -->
<g id="node3" class="node"><title>ndOutput</title>
<g id="a_node3_1"><a xlink:href="https://github.com/maidsafe/blst-ringct/blob/master/src/ringct.rs#:~:text=struct%20Output" xlink:title="&lt;TABLE&gt;">
<polygon fill="lightblue" stroke="none" points="9.5,-214 9.5,-251 176.5,-251 176.5,-214 9.5,-214"/>
<polygon fill="none" stroke="black" points="9.5,-214 9.5,-251 176.5,-251 176.5,-214 9.5,-214"/>
<text text-anchor="start" x="69" y="-229.8" font-family="Arial" font-weight="bold" font-size="14.00">Output</text>
<polygon fill="white" stroke="none" points="9.5,-162 9.5,-214 176.5,-214 176.5,-162 9.5,-162"/>
<polygon fill="none" stroke="black" points="9.5,-162 9.5,-214 176.5,-214 176.5,-162 9.5,-162"/>
<text text-anchor="start" x="20.5" y="-191.8" font-family="Arial" font-size="14.00">+ public_key: G1Affine</text>
<text text-anchor="start" x="20.5" y="-176.8" font-family="Arial" font-size="14.00">+ amount: u64</text>
<polygon fill="none" stroke="black" points="8,-161.5 8,-252.5 177,-252.5 177,-161.5 8,-161.5"/>
</a>
</g>
</g>
<!-- ndRevealedCommitment&#45;&gt;ndOutput -->
<g id="edge1" class="edge"><title>ndRevealedCommitment&#45;&gt;ndOutput</title>
<path fill="none" stroke="black" d="M255.208,-524.759C235.485,-505.672 214.33,-482.684 198.5,-459 157.917,-398.283 127.73,-319.509 110.161,-266.541"/>
<polygon fill="black" stroke="black" points="107.028,-256.962 114.413,-265.067 108.582,-261.714 110.136,-266.466 110.136,-266.466 110.136,-266.466 108.582,-261.714 105.859,-267.865 107.028,-256.962 107.028,-256.962"/>
</g>
<!-- ndRingCtMaterial -->
<g id="node4" class="node"><title>ndRingCtMaterial</title>
<g id="a_node4_2"><a xlink:href="https://github.com/maidsafe/blst-ringct/blob/master/src/ringct.rs#:~:text=struct%20RingCtMaterial" xlink:title="&lt;TABLE&gt;">
<polygon fill="lightblue" stroke="none" points="556.5,-56.5 556.5,-93.5 763.5,-93.5 763.5,-56.5 556.5,-56.5"/>
<polygon fill="none" stroke="black" points="556.5,-56.5 556.5,-93.5 763.5,-93.5 763.5,-56.5 556.5,-56.5"/>
<text text-anchor="start" x="608.5" y="-72.3" font-family="Arial" font-weight="bold" font-size="14.00">RingCtMaterial</text>
<polygon fill="white" stroke="none" points="556.5,-4.5 556.5,-56.5 763.5,-56.5 763.5,-4.5 556.5,-4.5"/>
<polygon fill="none" stroke="black" points="556.5,-4.5 556.5,-56.5 763.5,-56.5 763.5,-4.5 556.5,-4.5"/>
<text text-anchor="start" x="567.5" y="-34.3" font-family="Arial" font-size="14.00">+ inputs: Vec&lt;MlsagMaterial&gt;</text>
<text text-anchor="start" x="567.5" y="-19.3" font-family="Arial" font-size="14.00">+ outputs: Vec&lt;Output&gt;</text>
<polygon fill="none" stroke="black" points="555,-4 555,-95 764,-95 764,-4 555,-4"/>
</a>
</g>
</g>
<!-- ndRevealedCommitment&#45;&gt;ndRingCtMaterial -->
<g id="edge2" class="edge"><title>ndRevealedCommitment&#45;&gt;ndRingCtMaterial</title>
<path fill="none" stroke="black" d="M267,-524.742C252.413,-505.654 238.026,-482.669 230.5,-459 211.108,-398.009 199.388,-370.929 230.5,-315 295.258,-198.587 434.722,-127.089 537.131,-88.2568"/>
<polygon fill="black" stroke="black" points="546.61,-84.7151 538.818,-92.4305 541.926,-86.4651 537.243,-88.2151 537.243,-88.2151 537.243,-88.2151 541.926,-86.4651 535.668,-83.9997 546.61,-84.7151 546.61,-84.7151"/>
</g>
<!-- ndTrueInput -->
<g id="node7" class="node"><title>ndTrueInput</title>
<g id="a_node7_3"><a xlink:href="https://github.com/maidsafe/blst-ringct/blob/master/src/mlsag.rs#:~:text=struct%20TrueInput" xlink:title="&lt;TABLE&gt;">
<polygon fill="lightblue" stroke="none" points="249.5,-394 249.5,-431 574.5,-431 574.5,-394 249.5,-394"/>
<polygon fill="none" stroke="black" points="249.5,-394 249.5,-431 574.5,-431 574.5,-394 249.5,-394"/>
<text text-anchor="start" x="378" y="-409.8" font-family="Arial" font-weight="bold" font-size="14.00">TrueInput</text>
<polygon fill="white" stroke="none" points="249.5,-342 249.5,-394 574.5,-394 574.5,-342 249.5,-342"/>
<polygon fill="none" stroke="black" points="249.5,-342 249.5,-394 574.5,-394 574.5,-342 249.5,-342"/>
<text text-anchor="start" x="260.5" y="-371.8" font-family="Arial" font-size="14.00">+ secret_key: Scalar</text>
<text text-anchor="start" x="260.5" y="-356.8" font-family="Arial" font-size="14.00">+ revealed_commitment: RevealedCommitment</text>
<polygon fill="none" stroke="black" points="248,-341.5 248,-432.5 575,-432.5 575,-341.5 248,-341.5"/>
</a>
</g>
</g>
<!-- ndRevealedCommitment&#45;&gt;ndTrueInput -->
<g id="edge3" class="edge"><title>ndRevealedCommitment&#45;&gt;ndTrueInput</title>
<path fill="none" stroke="black" d="M337.774,-524.762C350.527,-501.105 365.961,-472.474 379.406,-447.535"/>
<polygon fill="black" stroke="black" points="379.534,-447.297 378.86,-440.117 385.228,-436.734 385.902,-443.914 379.534,-447.297"/>
</g>
<!-- ndMlsagMaterial -->
<g id="node9" class="node"><title>ndMlsagMaterial</title>
<g id="a_node9_4"><a xlink:href="https://github.com/maidsafe/blst-ringct/blob/master/src/mlsag.rs#:~:text=struct%20MlsagMaterial" xlink:title="&lt;TABLE&gt;">
<polygon fill="lightblue" stroke="none" points="539.5,-237 539.5,-274 780.5,-274 780.5,-237 539.5,-237"/>
<polygon fill="none" stroke="black" points="539.5,-237 539.5,-274 780.5,-274 780.5,-237 539.5,-237"/>
<text text-anchor="start" x="611" y="-252.8" font-family="Arial" font-weight="bold" font-size="14.00">MlsagMaterial</text>
<polygon fill="white" stroke="none" points="539.5,-140 539.5,-237 780.5,-237 780.5,-140 539.5,-140"/>
<polygon fill="none" stroke="black" points="539.5,-140 539.5,-237 780.5,-237 780.5,-140 539.5,-140"/>
<text text-anchor="start" x="550.5" y="-214.8" font-family="Arial" font-size="14.00">+ true_input: TrueInput</text>
<text text-anchor="start" x="550.5" y="-199.8" font-family="Arial" font-size="14.00">+ decoy_inputs: Vec&lt;DecoyInput&gt;</text>
<text text-anchor="start" x="550.5" y="-184.8" font-family="Arial" font-size="14.00">+ pi_base: u32</text>
<text text-anchor="start" x="550.5" y="-169.8" font-family="Arial" font-size="14.00">+ alpha: (Scalar, Scalar)</text>
<text text-anchor="start" x="550.5" y="-154.8" font-family="Arial" font-size="14.00">+ r: Vec&lt;(Scalar, Scalar)&gt;</text>
<polygon fill="none" stroke="black" points="538,-139 538,-275 781,-275 781,-139 538,-139"/>
</a>
</g>
</g>
<!-- ndRevealedCommitment&#45;&gt;ndMlsagMaterial -->
<g id="edge4" class="edge"><title>ndRevealedCommitment&#45;&gt;ndMlsagMaterial</title>
<path fill="none" stroke="black" stroke-dasharray="5,2" d="M367.214,-524.811C382.38,-513.587 399.373,-502.698 416.5,-495 488.926,-462.445 534.003,-513.767 591.5,-459 639.347,-413.425 611.082,-378.742 628.5,-315 630.797,-306.596 633.245,-297.836 635.72,-289.107"/>
<polygon fill="black" stroke="black" points="638.52,-279.284 640.106,-290.134 637.149,-284.092 635.779,-288.901 635.779,-288.901 635.779,-288.901 637.149,-284.092 631.451,-287.667 638.52,-279.284 638.52,-279.284"/>
</g>
<!-- ndError -->
<g id="node2" class="node"><title>ndError</title>
<g id="a_node2_5"><a xlink:href="https://github.com/maidsafe/blst-ringct/blob/master/src/error.rs#:~:text=enum%20Error" xlink:title="&lt;TABLE&gt;">
<polygon fill="yellow" stroke="none" points="434.5,-611.5 434.5,-648.5 842.5,-648.5 842.5,-611.5 434.5,-611.5"/>
<polygon fill="none" stroke="black" points="434.5,-611.5 434.5,-648.5 842.5,-648.5 842.5,-611.5 434.5,-611.5"/>
<text text-anchor="start" x="620" y="-627.3" font-family="Arial" font-weight="bold" font-size="14.00">Error</text>
<polygon fill="white" stroke="none" points="434.5,-499.5 434.5,-611.5 842.5,-611.5 842.5,-499.5 434.5,-499.5"/>
<polygon fill="none" stroke="black" points="434.5,-499.5 434.5,-611.5 842.5,-611.5 842.5,-499.5 434.5,-499.5"/>
<text text-anchor="start" x="445.5" y="-589.3" font-family="Arial" font-size="14.00">ExpectedAPublicCommitmentsForEachRingEntry</text>
<text text-anchor="start" x="445.5" y="-574.3" font-family="Arial" font-size="14.00">InvalidHiddenCommitmentInRing</text>
<text text-anchor="start" x="445.5" y="-559.3" font-family="Arial" font-size="14.00">InputPseudoCommitmentsDoNotSumToOutputCommitments</text>
<text text-anchor="start" x="445.5" y="-544.3" font-family="Arial" font-size="14.00">InvalidRingSignature</text>
<text text-anchor="start" x="445.5" y="-529.3" font-family="Arial" font-size="14.00">KeyImageNotOnCurve</text>
<text text-anchor="start" x="445.5" y="-514.3" font-family="Arial" font-size="14.00">BulletProofs(bulletproofs::ProofError)</text>
<polygon fill="none" stroke="black" points="433.5,-499 433.5,-650 843.5,-650 843.5,-499 433.5,-499"/>
</a>
</g>
</g>
<!-- ndOutput&#45;&gt;ndRingCtMaterial -->
<g id="edge5" class="edge"><title>ndOutput&#45;&gt;ndRingCtMaterial</title>
<path fill="none" stroke="black" d="M156.021,-157.442C169.494,-148.899 184.032,-140.875 198.5,-135 307.308,-90.8162 439.955,-69.5942 534.978,-59.4868"/>
<polygon fill="black" stroke="black" points="535.023,-59.4823 540.58,-54.8873 546.959,-58.25 541.402,-62.845 535.023,-59.4823"/>
</g>
<!-- ndOutputProof -->
<g id="node5" class="node"><title>ndOutputProof</title>
<g id="a_node5_6"><a xlink:href="https://github.com/maidsafe/blst-ringct/blob/master/src/ringct.rs#:~:text=struct%20OutputProof" xlink:title="&lt;TABLE&gt;">
<polygon fill="lightblue" stroke="none" points="1133.5,-394 1133.5,-431 1327.5,-431 1327.5,-394 1133.5,-394"/>
<polygon fill="none" stroke="black" points="1133.5,-394 1133.5,-431 1327.5,-431 1327.5,-394 1133.5,-394"/>
<text text-anchor="start" x="1187.5" y="-409.8" font-family="Arial" font-weight="bold" font-size="14.00">OutputProof</text>
<polygon fill="white" stroke="none" points="1133.5,-342 1133.5,-394 1327.5,-394 1327.5,-342 1133.5,-342"/>
<polygon fill="none" stroke="black" points="1133.5,-342 1133.5,-394 1327.5,-394 1327.5,-342 1133.5,-342"/>
<text text-anchor="start" x="1144.5" y="-371.8" font-family="Arial" font-size="14.00">&#45; range_proof: RangeProof</text>
<text text-anchor="start" x="1144.5" y="-356.8" font-family="Arial" font-size="14.00">&#45; commitment: G1Affine</text>
<polygon fill="none" stroke="black" points="1132.5,-341.5 1132.5,-432.5 1328.5,-432.5 1328.5,-341.5 1132.5,-341.5"/>
</a>
</g>
</g>
<!-- ndOutputProof&#45;&gt;ndRingCtMaterial -->
<g id="edge6" class="edge"><title>ndOutputProof&#45;&gt;ndRingCtMaterial</title>
<path fill="none" stroke="black" d="M1221.14,-337.496C1207.35,-279.848 1175.81,-185.167 1110.5,-135 1060.13,-96.3047 897.492,-73.0281 782.013,-60.9764"/>
<polygon fill="black" stroke="black" points="772.04,-59.9512 782.448,-56.4975 777.014,-60.4626 781.987,-60.9739 781.987,-60.9739 781.987,-60.9739 777.014,-60.4626 781.527,-65.4503 772.04,-59.9512 772.04,-59.9512"/>
</g>
<!-- ndRingCtTransaction -->
<g id="node6" class="node"><title>ndRingCtTransaction</title>
<g id="a_node6_7"><a xlink:href="https://github.com/maidsafe/blst-ringct/blob/master/src/ringct.rs#:~:text=struct%20RingCtTransaction" xlink:title="&lt;TABLE&gt;">
<polygon fill="lightblue" stroke="none" points="865.5,-214 865.5,-251 1092.5,-251 1092.5,-214 865.5,-214"/>
<polygon fill="none" stroke="black" points="865.5,-214 865.5,-251 1092.5,-251 1092.5,-214 865.5,-214"/>
<text text-anchor="start" x="914" y="-229.8" font-family="Arial" font-weight="bold" font-size="14.00">RingCtTransaction</text>
<polygon fill="white" stroke="none" points="865.5,-162 865.5,-214 1092.5,-214 1092.5,-162 865.5,-162"/>
<polygon fill="none" stroke="black" points="865.5,-162 865.5,-214 1092.5,-214 1092.5,-162 865.5,-162"/>
<text text-anchor="start" x="876.5" y="-191.8" font-family="Arial" font-size="14.00">+ mlsags: Vec&lt;MlsagSignature&gt;</text>
<text text-anchor="start" x="876.5" y="-176.8" font-family="Arial" font-size="14.00">+ outputs: Vec&lt;OutputProof&gt;</text>
<polygon fill="none" stroke="black" points="864,-161.5 864,-252.5 1093,-252.5 1093,-161.5 864,-161.5"/>
</a>
</g>
</g>
<!-- ndOutputProof&#45;&gt;ndRingCtTransaction -->
<g id="edge7" class="edge"><title>ndOutputProof&#45;&gt;ndRingCtTransaction</title>
<path fill="none" stroke="black" d="M1161.64,-337.361C1129.42,-314.599 1090.87,-287.37 1057.46,-263.777"/>
<polygon fill="black" stroke="black" points="1057.08,-263.504 1049.87,-263.309 1047.28,-256.58 1054.49,-256.775 1057.08,-263.504"/>
</g>
<!-- ndRingCtTransaction&#45;&gt;ndRingCtMaterial -->
<g id="edge8" class="edge"><title>ndRingCtTransaction&#45;&gt;ndRingCtMaterial</title>
<path fill="none" stroke="black" d="M878.879,-157.438C843.741,-140.31 804.067,-120.971 768.216,-103.495"/>
<polygon fill="black" stroke="black" points="759.188,-99.0942 770.149,-99.431 763.683,-101.285 768.177,-103.476 768.177,-103.476 768.177,-103.476 763.683,-101.285 766.205,-107.521 759.188,-99.0942 759.188,-99.0942"/>
</g>
<!-- ndTrueInput&#45;&gt;ndMlsagMaterial -->
<g id="edge9" class="edge"><title>ndTrueInput&#45;&gt;ndMlsagMaterial</title>
<path fill="none" stroke="black" stroke-dasharray="5,2" d="M479.267,-337.361C501.199,-321.619 526.109,-303.74 550.262,-286.405"/>
<polygon fill="black" stroke="black" points="550.443,-286.275 552.985,-279.527 560.192,-279.278 557.65,-286.026 550.443,-286.275"/>
</g>
<!-- ndDecoyInput -->
<g id="node8" class="node"><title>ndDecoyInput</title>
<g id="a_node8_8"><a xlink:href="https://github.com/maidsafe/blst-ringct/blob/master/src/mlsag.rs#:~:text=struct%20DecoyInput" xlink:title="&lt;TABLE&gt;">
<polygon fill="lightblue" stroke="none" points="647.5,-394 647.5,-431 824.5,-431 824.5,-394 647.5,-394"/>
<polygon fill="none" stroke="black" points="647.5,-394 647.5,-431 824.5,-431 824.5,-394 647.5,-394"/>
<text text-anchor="start" x="696" y="-409.8" font-family="Arial" font-weight="bold" font-size="14.00">DecoyInput</text>
<polygon fill="white" stroke="none" points="647.5,-342 647.5,-394 824.5,-394 824.5,-342 647.5,-342"/>
<polygon fill="none" stroke="black" points="647.5,-342 647.5,-394 824.5,-394 824.5,-342 647.5,-342"/>
<text text-anchor="start" x="658.5" y="-371.8" font-family="Arial" font-size="14.00">+ public_key: G1Affine</text>
<text text-anchor="start" x="658.5" y="-356.8" font-family="Arial" font-size="14.00">+ commitment: G1Affine</text>
<polygon fill="none" stroke="black" points="646,-341.5 646,-432.5 825,-432.5 825,-341.5 646,-341.5"/>
</a>
</g>
</g>
<!-- ndDecoyInput&#45;&gt;ndMlsagMaterial -->
<g id="edge10" class="edge"><title>ndDecoyInput&#45;&gt;ndMlsagMaterial</title>
<path fill="none" stroke="black" d="M714.733,-337.361C708.519,-322.808 701.526,-306.429 694.657,-290.342"/>
<polygon fill="black" stroke="black" points="694.645,-290.314 688.611,-286.367 689.933,-279.278 695.968,-283.225 694.645,-290.314"/>
</g>
<!-- ndMlsagMaterial&#45;&gt;ndRingCtMaterial -->
<g id="edge11" class="edge"><title>ndMlsagMaterial&#45;&gt;ndRingCtMaterial</title>
<path fill="none" stroke="black" d="M659.5,-134.622C659.5,-126.856 659.5,-119.005 659.5,-111.381"/>
<polygon fill="black" stroke="black" points="659.5,-111.231 655.5,-105.231 659.5,-99.2312 663.5,-105.231 659.5,-111.231"/>
</g>
<!-- ndMlsagSignature -->
<g id="node10" class="node"><title>ndMlsagSignature</title>
<g id="a_node10_9"><a xlink:href="https://github.com/maidsafe/blst-ringct/blob/master/src/mlsag.rs#:~:text=struct%20MlsagSignature" xlink:title="&lt;TABLE&gt;">
<polygon fill="lightblue" stroke="none" points="860.5,-417 860.5,-454 1097.5,-454 1097.5,-417 860.5,-417"/>
<polygon fill="none" stroke="black" points="860.5,-417 860.5,-454 1097.5,-454 1097.5,-417 860.5,-417"/>
<text text-anchor="start" x="924" y="-432.8" font-family="Arial" font-weight="bold" font-size="14.00">MlsagSignature</text>
<polygon fill="white" stroke="none" points="860.5,-320 860.5,-417 1097.5,-417 1097.5,-320 860.5,-320"/>
<polygon fill="none" stroke="black" points="860.5,-320 860.5,-417 1097.5,-417 1097.5,-320 860.5,-320"/>
<text text-anchor="start" x="871.5" y="-394.8" font-family="Arial" font-size="14.00">+ c0: Scalar</text>
<text text-anchor="start" x="871.5" y="-379.8" font-family="Arial" font-size="14.00">+ r: Vec&lt;(Scalar, Scalar)&gt;</text>
<text text-anchor="start" x="871.5" y="-364.8" font-family="Arial" font-size="14.00">+ key_image: G1Affine</text>
<text text-anchor="start" x="871.5" y="-349.8" font-family="Arial" font-size="14.00">+ ring: Vec&lt;(G1Affine, G1Affine)&gt;</text>
<text text-anchor="start" x="871.5" y="-334.8" font-family="Arial" font-size="14.00">+ pseudo_commitment: G1Affine</text>
<polygon fill="none" stroke="black" points="859,-319 859,-455 1098,-455 1098,-319 859,-319"/>
</a>
</g>
</g>
<!-- ndMlsagSignature&#45;&gt;ndRingCtTransaction -->
<g id="edge12" class="edge"><title>ndMlsagSignature&#45;&gt;ndRingCtTransaction</title>
<path fill="none" stroke="black" d="M978.5,-314.882C978.5,-299.6 978.5,-283.585 978.5,-268.74"/>
<polygon fill="black" stroke="black" points="978.5,-268.587 974.5,-262.587 978.5,-256.587 982.5,-262.587 978.5,-268.587"/>
</g>
<!-- ndMlsagSignature&#45;&gt;ndMlsagMaterial -->
<g id="edge13" class="edge"><title>ndMlsagSignature&#45;&gt;ndMlsagMaterial</title>
<path fill="none" stroke="black" d="M851.047,-314.882C832.853,-304.73 814.077,-294.253 795.722,-284.011"/>
<polygon fill="black" stroke="black" points="786.75,-279.005 797.675,-279.948 791.116,-281.441 795.483,-283.877 795.483,-283.877 795.483,-283.877 791.116,-281.441 793.29,-287.807 786.75,-279.005 786.75,-279.005"/>
</g>
</g>
</svg>
