<?xml version="1.0" encoding="UTF-8" standalone="no"?>
<!DOCTYPE svg PUBLIC "-//W3C//DTD SVG 1.1//EN"
 "http://www.w3.org/Graphics/SVG/1.1/DTD/svg11.dtd">
<!-- Generated by graphviz version 2.38.0 (20140413.2041)
 -->
<!-- Title: ml Pages: 1 -->
<svg width="3478pt" height="719pt"
 viewBox="0.00 0.00 3477.55 719.00" xmlns="http://www.w3.org/2000/svg" xmlns:xlink="http://www.w3.org/1999/xlink">
<g id="graph0" class="graph" transform="scale(1 1) rotate(0) translate(4 715)">
<title>ml</title>
<polygon fill="white" stroke="none" points="-4,4 -4,-715 3473.55,-715 3473.55,4 -4,4"/>
<!-- ndProofError -->
<g id="node1" class="node"><title>ndProofError</title>
<g id="a_node1_0"><a xlink:href="https://github.com/davidrusu/blst-bulletproofs/blob/master/src/errors.rs#:~:text=enum%20ProofError" xlink:title="&lt;TABLE&gt;">
<polygon fill="yellow" stroke="none" points="1375.05,-585.5 1375.05,-622.5 1473.05,-622.5 1473.05,-585.5 1375.05,-585.5"/>
<polygon fill="none" stroke="black" points="1375.05,-585.5 1375.05,-622.5 1473.05,-622.5 1473.05,-585.5 1375.05,-585.5"/>
<text text-anchor="start" x="1386.05" y="-601.3" font-family="Arial" font-weight="bold" font-size="14.00">ProofError</text>
<polygon fill="none" stroke="black" points="1374.05,-585 1374.05,-624 1474.05,-624 1474.05,-585 1374.05,-585"/>
</a>
</g>
</g>
<!-- ndR1CSError -->
<g id="node3" class="node"><title>ndR1CSError</title>
<g id="a_node3_1"><a xlink:href="https://github.com/davidrusu/blst-bulletproofs/blob/master/src/errors.rs#:~:text=enum%20R1CSError" xlink:title="&lt;TABLE&gt;">
<polygon fill="yellow" stroke="none" points="1055.05,-502.5 1055.05,-539.5 1153.05,-539.5 1153.05,-502.5 1055.05,-502.5"/>
<polygon fill="none" stroke="black" points="1055.05,-502.5 1055.05,-539.5 1153.05,-539.5 1153.05,-502.5 1055.05,-502.5"/>
<text text-anchor="start" x="1066.05" y="-518.3" font-family="Arial" font-weight="bold" font-size="14.00">R1CSError</text>
<polygon fill="none" stroke="black" points="1054.05,-502 1054.05,-541 1154.05,-541 1154.05,-502 1054.05,-502"/>
</a>
</g>
</g>
<!-- ndProofError&#45;&gt;ndR1CSError -->
<g id="edge1" class="edge"><title>ndProofError&#45;&gt;ndR1CSError</title>
<path fill="none" stroke="black" stroke-dasharray="5,2" d="M1365.88,-588.888C1318.95,-577.086 1251.24,-560.028 1192.05,-545 1185.58,-543.357 1178.85,-541.643 1172.11,-539.925"/>
<polygon fill="black" stroke="black" points="1162.27,-537.414 1173.07,-535.526 1167.12,-538.65 1171.96,-539.886 1171.96,-539.886 1171.96,-539.886 1167.12,-538.65 1170.85,-544.246 1162.27,-537.414 1162.27,-537.414"/>
</g>
<!-- ndInnerProductProof -->
<g id="node4" class="node"><title>ndInnerProductProof</title>
<g id="a_node4_2"><a xlink:href="https://github.com/davidrusu/blst-bulletproofs/blob/master/src/inner_product_proof.rs#:~:text=struct%20InnerProductProof" xlink:title="&lt;TABLE&gt;">
<polygon fill="lightblue" stroke="none" points="1210.05,-502.5 1210.05,-539.5 1362.05,-539.5 1362.05,-502.5 1210.05,-502.5"/>
<polygon fill="none" stroke="black" points="1210.05,-502.5 1210.05,-539.5 1362.05,-539.5 1362.05,-502.5 1210.05,-502.5"/>
<text text-anchor="start" x="1221.05" y="-518.3" font-family="Arial" font-weight="bold" font-size="14.00">InnerProductProof</text>
<polygon fill="none" stroke="black" points="1209.05,-502 1209.05,-541 1363.05,-541 1363.05,-502 1209.05,-502"/>
</a>
</g>
</g>
<!-- ndProofError&#45;&gt;ndInnerProductProof -->
<g id="edge2" class="edge"><title>ndProofError&#45;&gt;ndInnerProductProof</title>
<path fill="none" stroke="black" d="M1385.61,-580.937C1369.45,-571.45 1350.48,-560.317 1333.46,-550.328"/>
<polygon fill="black" stroke="black" points="1324.77,-545.223 1335.67,-546.404 1329.08,-547.754 1333.39,-550.285 1333.39,-550.285 1333.39,-550.285 1329.08,-547.754 1331.11,-554.166 1324.77,-545.223 1324.77,-545.223"/>
</g>
<!-- ndRangeProof -->
<g id="node21" class="node"><title>ndRangeProof</title>
<g id="a_node21_3"><a xlink:href="https://github.com/davidrusu/blst-bulletproofs/blob/master/src/range_proof/mod.rs#:~:text=struct%20RangeProof" xlink:title="&lt;TABLE&gt;">
<polygon fill="lightblue" stroke="none" points="1509.05,-419.5 1509.05,-456.5 1614.05,-456.5 1614.05,-419.5 1509.05,-419.5"/>
<polygon fill="none" stroke="black" points="1509.05,-419.5 1509.05,-456.5 1614.05,-456.5 1614.05,-419.5 1509.05,-419.5"/>
<text text-anchor="start" x="1520.05" y="-435.3" font-family="Arial" font-weight="bold" font-size="14.00">RangeProof</text>
<polygon fill="none" stroke="black" points="1507.55,-419 1507.55,-458 1614.55,-458 1614.55,-419 1507.55,-419"/>
</a>
</g>
</g>
<!-- ndProofError&#45;&gt;ndRangeProof -->
<g id="edge3" class="edge"><title>ndProofError&#45;&gt;ndRangeProof</title>
<path fill="none" stroke="black" d="M1482.2,-587.121C1504.12,-578.114 1527.29,-564.652 1542.05,-545 1557.59,-524.32 1561.86,-494.998 1562.51,-472.513"/>
<polygon fill="black" stroke="black" points="1562.58,-462.406 1567.01,-472.437 1562.55,-467.406 1562.51,-472.406 1562.51,-472.406 1562.51,-472.406 1562.55,-467.406 1558.01,-472.375 1562.58,-462.406 1562.58,-462.406"/>
</g>
<!-- ndMPCError -->
<g id="node2" class="node"><title>ndMPCError</title>
<g id="a_node2_4"><a xlink:href="https://github.com/davidrusu/blst-bulletproofs/blob/master/src/errors.rs#:~:text=enum%20MPCError" xlink:title="&lt;TABLE&gt;">
<polygon fill="yellow" stroke="none" points="2211.05,-668.5 2211.05,-705.5 2303.05,-705.5 2303.05,-668.5 2211.05,-668.5"/>
<polygon fill="none" stroke="black" points="2211.05,-668.5 2211.05,-705.5 2303.05,-705.5 2303.05,-668.5 2211.05,-668.5"/>
<text text-anchor="start" x="2222.05" y="-684.3" font-family="Arial" font-weight="bold" font-size="14.00">MPCError</text>
<polygon fill="none" stroke="black" points="2210.05,-668 2210.05,-707 2304.05,-707 2304.05,-668 2210.05,-668"/>
</a>
</g>
</g>
<!-- ndMPCError&#45;&gt;ndProofError -->
<g id="edge4" class="edge"><title>ndMPCError&#45;&gt;ndProofError</title>
<path fill="none" stroke="black" stroke-dasharray="5,2" d="M2201.75,-681.123C2055.14,-666.866 1656.62,-628.115 1494.29,-612.329"/>
<polygon fill="black" stroke="black" points="1494.03,-612.305 1487.67,-615.705 1482.09,-611.143 1488.45,-607.743 1494.03,-612.305"/>
</g>
<!-- ndDealer -->
<g id="node17" class="node"><title>ndDealer</title>
<g id="a_node17_5"><a xlink:href="https://github.com/davidrusu/blst-bulletproofs/blob/master/src/range_proof/dealer.rs#:~:text=struct%20Dealer" xlink:title="&lt;TABLE&gt;">
<polygon fill="lightblue" stroke="none" points="2443.05,-87.5 2443.05,-124.5 2511.05,-124.5 2511.05,-87.5 2443.05,-87.5"/>
<polygon fill="none" stroke="black" points="2443.05,-87.5 2443.05,-124.5 2511.05,-124.5 2511.05,-87.5 2443.05,-87.5"/>
<text text-anchor="start" x="2454.05" y="-103.3" font-family="Arial" font-weight="bold" font-size="14.00">Dealer</text>
<polygon fill="none" stroke="black" points="2442.05,-87 2442.05,-126 2512.05,-126 2512.05,-87 2442.05,-87"/>
</a>
</g>
</g>
<!-- ndMPCError&#45;&gt;ndDealer -->
<g id="edge5" class="edge"><title>ndMPCError&#45;&gt;ndDealer</title>
<path fill="none" stroke="black" d="M2312.35,-677.068C2427.01,-655.939 2680.05,-600.476 2680.05,-522.5 2680.05,-522.5 2680.05,-522.5 2680.05,-437.5 2680.05,-304.844 2639.56,-269.074 2556.05,-166 2546.98,-154.796 2535.29,-144.615 2523.7,-136.003"/>
<polygon fill="black" stroke="black" points="2515.31,-130.016 2526.07,-132.165 2519.38,-132.922 2523.45,-135.828 2523.45,-135.828 2523.45,-135.828 2519.38,-132.922 2520.84,-139.49 2515.31,-130.016 2515.31,-130.016"/>
</g>
<!-- ndDealerAwaitingBitCommitments -->
<g id="node18" class="node"><title>ndDealerAwaitingBitCommitments</title>
<g id="a_node18_6"><a xlink:href="https://github.com/davidrusu/blst-bulletproofs/blob/master/src/range_proof/dealer.rs#:~:text=struct%20DealerAwaitingBitCommitments" xlink:title="&lt;TABLE&gt;">
<polygon fill="lightblue" stroke="none" points="2247.05,-170.5 2247.05,-207.5 2489.05,-207.5 2489.05,-170.5 2247.05,-170.5"/>
<polygon fill="none" stroke="black" points="2247.05,-170.5 2247.05,-207.5 2489.05,-207.5 2489.05,-170.5 2247.05,-170.5"/>
<text text-anchor="start" x="2258.05" y="-186.3" font-family="Arial" font-weight="bold" font-size="14.00">DealerAwaitingBitCommitments</text>
<polygon fill="none" stroke="black" points="2246.05,-170 2246.05,-209 2490.05,-209 2490.05,-170 2246.05,-170"/>
</a>
</g>
</g>
<!-- ndMPCError&#45;&gt;ndDealerAwaitingBitCommitments -->
<g id="edge6" class="edge"><title>ndMPCError&#45;&gt;ndDealerAwaitingBitCommitments</title>
<path fill="none" stroke="black" d="M2312.12,-669.59C2339.77,-659.739 2373.03,-645.738 2400.05,-628 2477.48,-577.17 2504.99,-552.197 2526.05,-462 2542.09,-393.34 2497.95,-257.754 2491.05,-249 2480.87,-236.08 2467.14,-225.862 2452.55,-217.831"/>
<polygon fill="black" stroke="black" points="2443.37,-213.109 2454.32,-213.683 2447.81,-215.397 2452.26,-217.684 2452.26,-217.684 2452.26,-217.684 2447.81,-215.397 2450.2,-221.686 2443.37,-213.109 2443.37,-213.109"/>
</g>
<!-- ndDealerAwaitingPolyCommitments -->
<g id="node19" class="node"><title>ndDealerAwaitingPolyCommitments</title>
<g id="a_node19_7"><a xlink:href="https://github.com/davidrusu/blst-bulletproofs/blob/master/src/range_proof/dealer.rs#:~:text=struct%20DealerAwaitingPolyCommitments" xlink:title="&lt;TABLE&gt;">
<polygon fill="lightblue" stroke="none" points="2219.05,-253.5 2219.05,-290.5 2473.05,-290.5 2473.05,-253.5 2219.05,-253.5"/>
<polygon fill="none" stroke="black" points="2219.05,-253.5 2219.05,-290.5 2473.05,-290.5 2473.05,-253.5 2219.05,-253.5"/>
<text text-anchor="start" x="2230.05" y="-269.3" font-family="Arial" font-weight="bold" font-size="14.00">DealerAwaitingPolyCommitments</text>
<polygon fill="none" stroke="black" points="2218.05,-253 2218.05,-292 2474.05,-292 2474.05,-253 2218.05,-253"/>
</a>
</g>
</g>
<!-- ndMPCError&#45;&gt;ndDealerAwaitingPolyCommitments -->
<g id="edge7" class="edge"><title>ndMPCError&#45;&gt;ndDealerAwaitingPolyCommitments</title>
<path fill="none" stroke="black" d="M2299.92,-663.715C2359.64,-629.228 2465.33,-557.532 2508.05,-462 2537.8,-395.495 2457.85,-334.723 2399.95,-301.049"/>
<polygon fill="black" stroke="black" points="2391.23,-296.08 2402.15,-297.119 2395.58,-298.555 2399.92,-301.029 2399.92,-301.029 2399.92,-301.029 2395.58,-298.555 2397.69,-304.94 2391.23,-296.08 2391.23,-296.08"/>
</g>
<!-- ndDealerAwaitingProofShares -->
<g id="node20" class="node"><title>ndDealerAwaitingProofShares</title>
<g id="a_node20_8"><a xlink:href="https://github.com/davidrusu/blst-bulletproofs/blob/master/src/range_proof/dealer.rs#:~:text=struct%20DealerAwaitingProofShares" xlink:title="&lt;TABLE&gt;">
<polygon fill="lightblue" stroke="none" points="2018.05,-336.5 2018.05,-373.5 2233.05,-373.5 2233.05,-336.5 2018.05,-336.5"/>
<polygon fill="none" stroke="black" points="2018.05,-336.5 2018.05,-373.5 2233.05,-373.5 2233.05,-336.5 2018.05,-336.5"/>
<text text-anchor="start" x="2029.05" y="-352.3" font-family="Arial" font-weight="bold" font-size="14.00">DealerAwaitingProofShares</text>
<polygon fill="none" stroke="black" points="2016.55,-336 2016.55,-375 2233.55,-375 2233.55,-336 2016.55,-336"/>
</a>
</g>
</g>
<!-- ndMPCError&#45;&gt;ndDealerAwaitingProofShares -->
<g id="edge8" class="edge"><title>ndMPCError&#45;&gt;ndDealerAwaitingProofShares</title>
<path fill="none" stroke="black" d="M2250.18,-663.83C2235.56,-616.586 2199.3,-504.545 2158.05,-415 2153.89,-405.96 2148.84,-396.445 2143.95,-387.777"/>
<polygon fill="black" stroke="black" points="2138.95,-379.106 2147.84,-385.528 2141.45,-383.439 2143.94,-387.773 2143.94,-387.773 2143.94,-387.773 2141.45,-383.439 2140.04,-390.018 2138.95,-379.106 2138.95,-379.106"/>
</g>
<!-- ndParty -->
<g id="node27" class="node"><title>ndParty</title>
<g id="a_node27_9"><a xlink:href="https://github.com/davidrusu/blst-bulletproofs/blob/master/src/range_proof/party.rs#:~:text=struct%20Party" xlink:title="&lt;TABLE&gt;">
<polygon fill="lightblue" stroke="none" points="2392.05,-4.5 2392.05,-41.5 2451.05,-41.5 2451.05,-4.5 2392.05,-4.5"/>
<polygon fill="none" stroke="black" points="2392.05,-4.5 2392.05,-41.5 2451.05,-41.5 2451.05,-4.5 2392.05,-4.5"/>
<text text-anchor="start" x="2403.05" y="-20.3" font-family="Arial" font-weight="bold" font-size="14.00">Party</text>
<polygon fill="none" stroke="black" points="2390.55,-4 2390.55,-43 2451.55,-43 2451.55,-4 2390.55,-4"/>
</a>
</g>
</g>
<!-- ndMPCError&#45;&gt;ndParty -->
<g id="edge9" class="edge"><title>ndMPCError&#45;&gt;ndParty</title>
<path fill="none" stroke="black" d="M2312.22,-685.02C2379.98,-681.379 2497.11,-669.077 2588.05,-628 2655.87,-597.37 2718.05,-596.91 2718.05,-522.5 2718.05,-522.5 2718.05,-522.5 2718.05,-188.5 2718.05,-76.4037 2553.92,-40.3385 2469.68,-29.2107"/>
<polygon fill="black" stroke="black" points="2459.58,-27.9448 2470.06,-24.7228 2464.54,-28.5664 2469.5,-29.1879 2469.5,-29.1879 2469.5,-29.1879 2464.54,-28.5664 2468.94,-33.653 2459.58,-27.9448 2459.58,-27.9448"/>
</g>
<!-- ndPartyAwaitingPosition -->
<g id="node28" class="node"><title>ndPartyAwaitingPosition</title>
<g id="a_node28_10"><a xlink:href="https://github.com/davidrusu/blst-bulletproofs/blob/master/src/range_proof/party.rs#:~:text=struct%20PartyAwaitingPosition" xlink:title="&lt;TABLE&gt;">
<polygon fill="lightblue" stroke="none" points="2093.05,-87.5 2093.05,-124.5 2269.05,-124.5 2269.05,-87.5 2093.05,-87.5"/>
<polygon fill="none" stroke="black" points="2093.05,-87.5 2093.05,-124.5 2269.05,-124.5 2269.05,-87.5 2093.05,-87.5"/>
<text text-anchor="start" x="2104.05" y="-103.3" font-family="Arial" font-weight="bold" font-size="14.00">PartyAwaitingPosition</text>
<polygon fill="none" stroke="black" points="2092.05,-87 2092.05,-126 2270.05,-126 2270.05,-87 2092.05,-87"/>
</a>
</g>
</g>
<!-- ndMPCError&#45;&gt;ndPartyAwaitingPosition -->
<g id="edge10" class="edge"><title>ndMPCError&#45;&gt;ndPartyAwaitingPosition</title>
<path fill="none" stroke="black" d="M2201.82,-685.461C1855.7,-678.599 0.0545206,-636.495 0.0545206,-522.5 0.0545206,-522.5 0.0545206,-522.5 0.0545206,-437.5 0.0545206,-347.976 -0.817809,-302.375 71.0545,-249 232.697,-128.96 1666.55,-110.744 2073.69,-107.989"/>
<polygon fill="black" stroke="black" points="2083.99,-107.921 2074.02,-112.487 2078.99,-107.954 2073.99,-107.987 2073.99,-107.987 2073.99,-107.987 2078.99,-107.954 2073.96,-103.487 2083.99,-107.921 2083.99,-107.921"/>
</g>
<!-- ndPartyAwaitingPolyChallenge -->
<g id="node30" class="node"><title>ndPartyAwaitingPolyChallenge</title>
<g id="a_node30_11"><a xlink:href="https://github.com/davidrusu/blst-bulletproofs/blob/master/src/range_proof/party.rs#:~:text=struct%20PartyAwaitingPolyChallenge" xlink:title="&lt;TABLE&gt;">
<polygon fill="lightblue" stroke="none" points="1690.05,-253.5 1690.05,-290.5 1909.05,-290.5 1909.05,-253.5 1690.05,-253.5"/>
<polygon fill="none" stroke="black" points="1690.05,-253.5 1690.05,-290.5 1909.05,-290.5 1909.05,-253.5 1690.05,-253.5"/>
<text text-anchor="start" x="1701.05" y="-269.3" font-family="Arial" font-weight="bold" font-size="14.00">PartyAwaitingPolyChallenge</text>
<polygon fill="none" stroke="black" points="1688.55,-253 1688.55,-292 1909.55,-292 1909.55,-253 1688.55,-253"/>
</a>
</g>
</g>
<!-- ndMPCError&#45;&gt;ndPartyAwaitingPolyChallenge -->
<g id="edge11" class="edge"><title>ndMPCError&#45;&gt;ndPartyAwaitingPolyChallenge</title>
<path fill="none" stroke="black" d="M2202.04,-684.592C2093.03,-680.028 1853.89,-665.895 1782.05,-628 1726.77,-598.836 1689.05,-585.006 1689.05,-522.5 1689.05,-522.5 1689.05,-522.5 1689.05,-437.5 1689.05,-383.067 1731.37,-333.071 1763.51,-302.945"/>
<polygon fill="black" stroke="black" points="1771.01,-296.091 1766.66,-306.157 1767.32,-299.462 1763.63,-302.834 1763.63,-302.834 1763.63,-302.834 1767.32,-299.462 1760.59,-299.51 1771.01,-296.091 1771.01,-296.091"/>
</g>
<!-- ndProver -->
<g id="node5" class="node"><title>ndProver</title>
<g id="a_node5_12"><a xlink:href="https://github.com/davidrusu/blst-bulletproofs/blob/master/src/r1cs/prover.rs#:~:text=struct%20Prover" xlink:title="&lt;TABLE&gt;">
<polygon fill="lightblue" stroke="none" points="960.055,-336.5 960.055,-373.5 1030.05,-373.5 1030.05,-336.5 960.055,-336.5"/>
<polygon fill="none" stroke="black" points="960.055,-336.5 960.055,-373.5 1030.05,-373.5 1030.05,-336.5 960.055,-336.5"/>
<text text-anchor="start" x="971.055" y="-352.3" font-family="Arial" font-weight="bold" font-size="14.00">Prover</text>
<polygon fill="none" stroke="black" points="959.055,-336 959.055,-375 1031.05,-375 1031.05,-336 959.055,-336"/>
</a>
</g>
</g>
<!-- ndR1CSError&#45;&gt;ndProver -->
<g id="edge12" class="edge"><title>ndR1CSError&#45;&gt;ndProver</title>
<path fill="none" stroke="black" d="M1126.28,-497.763C1145.32,-475.447 1167.03,-441.061 1149.05,-415 1126.73,-382.646 1084,-368.17 1049.19,-361.701"/>
<polygon fill="black" stroke="black" points="1039.15,-360.01 1049.76,-357.233 1044.08,-360.84 1049.01,-361.67 1049.01,-361.67 1049.01,-361.67 1044.08,-360.84 1048.26,-366.108 1039.15,-360.01 1039.15,-360.01"/>
</g>
<!-- ndRandomizingProver -->
<g id="node7" class="node"><title>ndRandomizingProver</title>
<g id="a_node7_13"><a xlink:href="https://github.com/davidrusu/blst-bulletproofs/blob/master/src/r1cs/prover.rs#:~:text=struct%20RandomizingProver" xlink:title="&lt;TABLE&gt;">
<polygon fill="lightblue" stroke="none" points="513.055,-253.5 513.055,-290.5 674.055,-290.5 674.055,-253.5 513.055,-253.5"/>
<polygon fill="none" stroke="black" points="513.055,-253.5 513.055,-290.5 674.055,-290.5 674.055,-253.5 513.055,-253.5"/>
<text text-anchor="start" x="524.055" y="-269.3" font-family="Arial" font-weight="bold" font-size="14.00">RandomizingProver</text>
<polygon fill="none" stroke="black" points="511.555,-253 511.555,-292 674.555,-292 674.555,-253 511.555,-253"/>
</a>
</g>
</g>
<!-- ndR1CSError&#45;&gt;ndRandomizingProver -->
<g id="edge13" class="edge"><title>ndR1CSError&#45;&gt;ndRandomizingProver</title>
<path fill="none" stroke="black" d="M1162.26,-505.543C1172.2,-503.011 1182.42,-500.42 1192.05,-498 1256.87,-481.722 1296.84,-514.611 1338.05,-462 1350.94,-445.556 1350.63,-431.679 1338.05,-415 1261.64,-313.647 877.66,-284.698 692.805,-276.582"/>
<polygon fill="black" stroke="black" points="682.807,-276.155 692.99,-272.086 687.802,-276.368 692.797,-276.581 692.797,-276.581 692.797,-276.581 687.802,-276.368 692.605,-281.077 682.807,-276.155 682.807,-276.155"/>
</g>
<!-- ndVerifier -->
<g id="node8" class="node"><title>ndVerifier</title>
<g id="a_node8_14"><a xlink:href="https://github.com/davidrusu/blst-bulletproofs/blob/master/src/r1cs/verifier.rs#:~:text=struct%20Verifier" xlink:title="&lt;TABLE&gt;">
<polygon fill="lightblue" stroke="none" points="630.055,-336.5 630.055,-373.5 702.055,-373.5 702.055,-336.5 630.055,-336.5"/>
<polygon fill="none" stroke="black" points="630.055,-336.5 630.055,-373.5 702.055,-373.5 702.055,-336.5 630.055,-336.5"/>
<text text-anchor="start" x="641.055" y="-352.3" font-family="Arial" font-weight="bold" font-size="14.00">Verifier</text>
<polygon fill="none" stroke="black" points="629.055,-336 629.055,-375 703.055,-375 703.055,-336 629.055,-336"/>
</a>
</g>
</g>
<!-- ndR1CSError&#45;&gt;ndVerifier -->
<g id="edge14" class="edge"><title>ndR1CSError&#45;&gt;ndVerifier</title>
<path fill="none" stroke="black" d="M1046.03,-519.108C903.753,-515.099 546.57,-501.191 511.055,-462 497.028,-446.521 499.175,-432.182 511.055,-415 517.182,-406.138 569.231,-387.611 611.349,-373.767"/>
<polygon fill="black" stroke="black" points="620.985,-370.624 612.873,-378.004 616.231,-372.175 611.478,-373.726 611.478,-373.726 611.478,-373.726 616.231,-372.175 610.082,-369.448 620.985,-370.624 620.985,-370.624"/>
</g>
<!-- ndRandomizingVerifier -->
<g id="node9" class="node"><title>ndRandomizingVerifier</title>
<g id="a_node9_15"><a xlink:href="https://github.com/davidrusu/blst-bulletproofs/blob/master/src/r1cs/verifier.rs#:~:text=struct%20RandomizingVerifier" xlink:title="&lt;TABLE&gt;">
<polygon fill="lightblue" stroke="none" points="90.0545,-253.5 90.0545,-290.5 253.055,-290.5 253.055,-253.5 90.0545,-253.5"/>
<polygon fill="none" stroke="black" points="90.0545,-253.5 90.0545,-290.5 253.055,-290.5 253.055,-253.5 90.0545,-253.5"/>
<text text-anchor="start" x="101.055" y="-269.3" font-family="Arial" font-weight="bold" font-size="14.00">RandomizingVerifier</text>
<polygon fill="none" stroke="black" points="88.5545,-253 88.5545,-292 253.555,-292 253.555,-253 88.5545,-253"/>
</a>
</g>
</g>
<!-- ndR1CSError&#45;&gt;ndRandomizingVerifier -->
<g id="edge15" class="edge"><title>ndR1CSError&#45;&gt;ndRandomizingVerifier</title>
<path fill="none" stroke="black" d="M1045.85,-519.171C841.085,-514.217 164.476,-495.371 133.055,-462 92.7581,-419.203 125.872,-346.102 150.474,-304.63"/>
<polygon fill="black" stroke="black" points="155.72,-296.037 154.351,-306.917 153.115,-300.304 150.51,-304.572 150.51,-304.572 150.51,-304.572 153.115,-300.304 146.669,-302.227 155.72,-296.037 155.72,-296.037"/>
</g>
<!-- ndR1CSProof -->
<g id="node13" class="node"><title>ndR1CSProof</title>
<g id="a_node13_16"><a xlink:href="https://github.com/davidrusu/blst-bulletproofs/blob/master/src/r1cs/proof.rs#:~:text=struct%20R1CSProof" xlink:title="&lt;TABLE&gt;">
<polygon fill="lightblue" stroke="none" points="1033.05,-419.5 1033.05,-456.5 1132.05,-456.5 1132.05,-419.5 1033.05,-419.5"/>
<polygon fill="none" stroke="black" points="1033.05,-419.5 1033.05,-456.5 1132.05,-456.5 1132.05,-419.5 1033.05,-419.5"/>
<text text-anchor="start" x="1044.05" y="-435.3" font-family="Arial" font-weight="bold" font-size="14.00">R1CSProof</text>
<polygon fill="none" stroke="black" points="1031.55,-419 1031.55,-458 1132.55,-458 1132.55,-419 1031.55,-419"/>
</a>
</g>
</g>
<!-- ndR1CSError&#45;&gt;ndR1CSProof -->
<g id="edge16" class="edge"><title>ndR1CSError&#45;&gt;ndR1CSProof</title>
<path fill="none" stroke="black" d="M1097.93,-497.937C1095.75,-489.929 1093.26,-480.749 1090.9,-472.074"/>
<polygon fill="black" stroke="black" points="1088.23,-462.223 1095.19,-470.694 1089.54,-467.048 1090.85,-471.873 1090.85,-471.873 1090.85,-471.873 1089.54,-467.048 1086.5,-473.053 1088.23,-462.223 1088.23,-462.223"/>
</g>
<!-- ndInnerProductProof&#45;&gt;ndR1CSProof -->
<g id="edge17" class="edge"><title>ndInnerProductProof&#45;&gt;ndR1CSProof</title>
<path fill="none" stroke="black" d="M1229.23,-497.937C1204.68,-488.191 1175.77,-476.709 1150.09,-466.514"/>
<polygon fill="black" stroke="black" points="1150.08,-466.511 1143.03,-468.014 1138.93,-462.082 1145.98,-460.579 1150.08,-466.511"/>
</g>
<!-- ndInnerProductProof&#45;&gt;ndRangeProof -->
<g id="edge18" class="edge"><title>ndInnerProductProof&#45;&gt;ndRangeProof</title>
<path fill="none" stroke="black" d="M1362.66,-497.937C1401.69,-486.44 1448.92,-472.527 1487.51,-461.161"/>
<polygon fill="black" stroke="black" points="1487.68,-461.112 1492.31,-455.58 1499.19,-457.721 1494.57,-463.254 1487.68,-461.112"/>
</g>
<!-- ndProver&#45;&gt;ndRandomizingProver -->
<g id="edge19" class="edge"><title>ndProver&#45;&gt;ndRandomizingProver</title>
<path fill="none" stroke="black" d="M950.884,-345.6C889.647,-333.261 777.185,-310.601 694.631,-293.967"/>
<polygon fill="black" stroke="black" points="694.442,-293.929 687.77,-296.665 682.678,-291.558 689.35,-288.822 694.442,-293.929"/>
</g>
<!-- ndSecrets -->
<g id="node6" class="node"><title>ndSecrets</title>
<g id="a_node6_17"><a xlink:href="https://github.com/davidrusu/blst-bulletproofs/blob/master/src/r1cs/prover.rs#:~:text=struct%20Secrets" xlink:title="&lt;TABLE&gt;">
<polygon fill="lightblue" stroke="none" points="1244.05,-419.5 1244.05,-456.5 1320.05,-456.5 1320.05,-419.5 1244.05,-419.5"/>
<polygon fill="none" stroke="black" points="1244.05,-419.5 1244.05,-456.5 1320.05,-456.5 1320.05,-419.5 1244.05,-419.5"/>
<text text-anchor="start" x="1255.05" y="-435.3" font-family="Arial" font-weight="bold" font-size="14.00">Secrets</text>
<polygon fill="none" stroke="black" points="1243.05,-419 1243.05,-458 1321.05,-458 1321.05,-419 1243.05,-419"/>
</a>
</g>
</g>
<!-- ndSecrets&#45;&gt;ndProver -->
<g id="edge20" class="edge"><title>ndSecrets&#45;&gt;ndProver</title>
<path fill="none" stroke="black" d="M1234.93,-419.587C1230.26,-417.973 1225.58,-416.416 1221.05,-415 1163.71,-397.052 1096.99,-380.273 1050.99,-369.328"/>
<polygon fill="black" stroke="black" points="1050.85,-369.296 1044.09,-371.809 1039.17,-366.537 1045.93,-364.023 1050.85,-369.296"/>
</g>
<!-- ndVerifier&#45;&gt;ndRandomizingVerifier -->
<g id="edge21" class="edge"><title>ndVerifier&#45;&gt;ndRandomizingVerifier</title>
<path fill="none" stroke="black" d="M620.814,-347.097C542.68,-334.311 380.579,-307.786 273.837,-290.319"/>
<polygon fill="black" stroke="black" points="273.593,-290.279 267.026,-293.258 261.751,-288.341 268.318,-285.363 273.593,-290.279"/>
</g>
<!-- ndConstraintSystem -->
<g id="node10" class="node"><title>ndConstraintSystem</title>
<g id="a_node10_18"><a xlink:href="https://github.com/davidrusu/blst-bulletproofs/blob/master/src/r1cs/constraint_system.rs#:~:text=trait%20ConstraintSystem" xlink:title="&lt;TABLE&gt;">
<polygon fill="lightgreen" stroke="none" points="530.055,-419.5 530.055,-456.5 677.055,-456.5 677.055,-419.5 530.055,-419.5"/>
<polygon fill="none" stroke="black" points="530.055,-419.5 530.055,-456.5 677.055,-456.5 677.055,-419.5 530.055,-419.5"/>
<text text-anchor="start" x="541.055" y="-435.3" font-family="Arial" font-weight="bold" font-size="14.00">ConstraintSystem</text>
<polygon fill="none" stroke="black" points="528.555,-419 528.555,-458 677.555,-458 677.555,-419 528.555,-419"/>
</a>
</g>
</g>
<!-- ndConstraintSystem&#45;&gt;ndProver -->
<g id="edge22" class="edge"><title>ndConstraintSystem&#45;&gt;ndProver</title>
<path fill="none" stroke="black" stroke-dasharray="5,2" d="M685.84,-416.843C688.609,-416.212 691.353,-415.596 694.055,-415 780.052,-396.024 880.598,-377.144 940.979,-366.16"/>
<polygon fill="none" stroke="black" points="941.829,-369.563 951.044,-364.335 940.58,-362.676 941.829,-369.563"/>
</g>
<!-- ndConstraintSystem&#45;&gt;ndRandomizingProver -->
<g id="edge23" class="edge"><title>ndConstraintSystem&#45;&gt;ndRandomizingProver</title>
<path fill="none" stroke="black" stroke-dasharray="5,2" d="M678.467,-414.958C694.931,-406.393 710.324,-394.744 720.055,-379 731.036,-361.231 731.319,-349.591 720.055,-332 711.732,-319.003 699.711,-308.854 686.341,-300.94"/>
<polygon fill="none" stroke="black" points="687.841,-297.771 677.386,-296.054 684.488,-303.916 687.841,-297.771"/>
</g>
<!-- ndConstraintSystem&#45;&gt;ndVerifier -->
<g id="edge24" class="edge"><title>ndConstraintSystem&#45;&gt;ndVerifier</title>
<path fill="none" stroke="black" stroke-dasharray="5,2" d="M620.604,-414.937C627.238,-406.407 634.907,-396.547 642.034,-387.384"/>
<polygon fill="none" stroke="black" points="645.004,-389.265 648.381,-379.223 639.479,-384.968 645.004,-389.265"/>
</g>
<!-- ndConstraintSystem&#45;&gt;ndRandomizingVerifier -->
<g id="edge25" class="edge"><title>ndConstraintSystem&#45;&gt;ndRandomizingVerifier</title>
<path fill="none" stroke="black" stroke-dasharray="5,2" d="M520.457,-426.506C413.683,-412.018 239.927,-387.389 228.055,-379 214.898,-369.705 196.819,-333.095 184.576,-305.591"/>
<polygon fill="none" stroke="black" points="187.725,-304.057 180.506,-296.302 181.313,-306.866 187.725,-304.057"/>
</g>
<!-- ndRandomizableConstraintSystem -->
<g id="node11" class="node"><title>ndRandomizableConstraintSystem</title>
<g id="a_node11_19"><a xlink:href="https://github.com/davidrusu/blst-bulletproofs/blob/master/src/r1cs/constraint_system.rs#:~:text=trait%20RandomizableConstraintSystem" xlink:title="&lt;TABLE&gt;">
<polygon fill="lightgreen" stroke="none" points="713.055,-419.5 713.055,-456.5 958.055,-456.5 958.055,-419.5 713.055,-419.5"/>
<polygon fill="none" stroke="black" points="713.055,-419.5 713.055,-456.5 958.055,-456.5 958.055,-419.5 713.055,-419.5"/>
<text text-anchor="start" x="724.055" y="-435.3" font-family="Arial" font-weight="bold" font-size="14.00">RandomizableConstraintSystem</text>
<polygon fill="none" stroke="black" points="711.555,-419 711.555,-458 958.555,-458 958.555,-419 711.555,-419"/>
</a>
</g>
</g>
<!-- ndRandomizableConstraintSystem&#45;&gt;ndProver -->
<g id="edge26" class="edge"><title>ndRandomizableConstraintSystem&#45;&gt;ndProver</title>
<path fill="none" stroke="black" stroke-dasharray="5,2" d="M879.623,-414.937C898.948,-405.154 921.729,-393.621 941.926,-383.396"/>
<polygon fill="none" stroke="black" points="943.66,-386.441 951.001,-378.802 940.499,-380.196 943.66,-386.441"/>
</g>
<!-- ndRandomizableConstraintSystem&#45;&gt;ndVerifier -->
<g id="edge27" class="edge"><title>ndRandomizableConstraintSystem&#45;&gt;ndVerifier</title>
<path fill="none" stroke="black" stroke-dasharray="5,2" d="M787.979,-414.937C766.956,-404.861 742.06,-392.929 720.263,-382.482"/>
<polygon fill="none" stroke="black" points="721.662,-379.271 711.132,-378.105 718.637,-385.583 721.662,-379.271"/>
</g>
<!-- ndRandomizedConstraintSystem -->
<g id="node12" class="node"><title>ndRandomizedConstraintSystem</title>
<g id="a_node12_20"><a xlink:href="https://github.com/davidrusu/blst-bulletproofs/blob/master/src/r1cs/constraint_system.rs#:~:text=trait%20RandomizedConstraintSystem" xlink:title="&lt;TABLE&gt;">
<polygon fill="lightgreen" stroke="none" points="247.055,-336.5 247.055,-373.5 480.055,-373.5 480.055,-336.5 247.055,-336.5"/>
<polygon fill="none" stroke="black" points="247.055,-336.5 247.055,-373.5 480.055,-373.5 480.055,-336.5 247.055,-336.5"/>
<text text-anchor="start" x="258.055" y="-352.3" font-family="Arial" font-weight="bold" font-size="14.00">RandomizedConstraintSystem</text>
<polygon fill="none" stroke="black" points="245.555,-336 245.555,-375 480.555,-375 480.555,-336 245.555,-336"/>
</a>
</g>
</g>
<!-- ndRandomizedConstraintSystem&#45;&gt;ndRandomizingProver -->
<g id="edge28" class="edge"><title>ndRandomizedConstraintSystem&#45;&gt;ndRandomizingProver</title>
<path fill="none" stroke="black" stroke-dasharray="5,2" d="M427.122,-331.937C455.788,-321.842 489.744,-309.883 519.449,-299.422"/>
<polygon fill="none" stroke="black" points="520.662,-302.705 528.932,-296.082 518.337,-296.103 520.662,-302.705"/>
</g>
<!-- ndRandomizedConstraintSystem&#45;&gt;ndRandomizingVerifier -->
<g id="edge29" class="edge"><title>ndRandomizedConstraintSystem&#45;&gt;ndRandomizingVerifier</title>
<path fill="none" stroke="black" stroke-dasharray="5,2" d="M309.572,-331.937C286.16,-322.06 258.521,-310.4 234.114,-300.103"/>
<polygon fill="none" stroke="black" points="235.157,-296.745 224.583,-296.082 232.436,-303.194 235.157,-296.745"/>
</g>
<!-- ndR1CSProof&#45;&gt;ndProver -->
<g id="edge30" class="edge"><title>ndR1CSProof&#45;&gt;ndProver</title>
<path fill="none" stroke="black" d="M1057.82,-414.937C1048.28,-406.059 1037.2,-395.74 1027.02,-386.266"/>
<polygon fill="black" stroke="black" points="1019.46,-379.223 1029.85,-382.744 1023.12,-382.63 1026.78,-386.037 1026.78,-386.037 1026.78,-386.037 1023.12,-382.63 1023.71,-389.331 1019.46,-379.223 1019.46,-379.223"/>
</g>
<!-- ndR1CSProof&#45;&gt;ndVerifier -->
<g id="edge31" class="edge"><title>ndR1CSProof&#45;&gt;ndVerifier</title>
<path fill="none" stroke="black" stroke-dasharray="5,2" d="M1023.51,-424.967C1007.79,-421.662 990.784,-418.142 975.055,-415 886.299,-397.269 782.922,-377.971 721.076,-366.571"/>
<polygon fill="black" stroke="black" points="711.143,-364.742 721.792,-362.127 716.06,-365.647 720.977,-366.553 720.977,-366.553 720.977,-366.553 716.06,-365.647 720.162,-370.978 711.143,-364.742 711.143,-364.742"/>
</g>
<!-- ndVariable -->
<g id="node14" class="node"><title>ndVariable</title>
<g id="a_node14_21"><a xlink:href="https://github.com/davidrusu/blst-bulletproofs/blob/master/src/r1cs/linear_combination.rs#:~:text=enum%20Variable" xlink:title="&lt;TABLE&gt;">
<polygon fill="yellow" stroke="none" points="190.055,-502.5 190.055,-539.5 269.055,-539.5 269.055,-502.5 190.055,-502.5"/>
<polygon fill="none" stroke="black" points="190.055,-502.5 190.055,-539.5 269.055,-539.5 269.055,-502.5 190.055,-502.5"/>
<text text-anchor="start" x="201.055" y="-518.3" font-family="Arial" font-weight="bold" font-size="14.00">Variable</text>
<polygon fill="none" stroke="black" points="188.555,-502 188.555,-541 269.555,-541 269.555,-502 188.555,-502"/>
</a>
</g>
</g>
<!-- ndVariable&#45;&gt;ndProver -->
<g id="edge32" class="edge"><title>ndVariable&#45;&gt;ndProver</title>
<path fill="none" stroke="black" d="M277.697,-520.049C435.068,-518.136 923.212,-508.475 975.055,-462 995.006,-444.115 998.858,-413.057 998.4,-389.255"/>
<polygon fill="black" stroke="black" points="997.952,-379.232 1002.89,-389.021 998.175,-384.227 998.399,-389.222 998.399,-389.222 998.399,-389.222 998.175,-384.227 993.903,-389.423 997.952,-379.232 997.952,-379.232"/>
</g>
<!-- ndVariable&#45;&gt;ndRandomizingProver -->
<g id="edge33" class="edge"><title>ndVariable&#45;&gt;ndRandomizingProver</title>
<path fill="none" stroke="black" d="M180.499,-503.006C162.249,-493.784 143.425,-480.463 133.055,-462 122.825,-443.787 119.03,-430.48 133.055,-415 187.629,-354.762 426.578,-419.498 497.055,-379 519.408,-366.155 514.048,-351.377 531.055,-332 539.759,-322.083 549.921,-311.977 559.47,-303.017"/>
<polygon fill="black" stroke="black" points="566.956,-296.103 562.663,-306.193 563.283,-299.495 559.61,-302.888 559.61,-302.888 559.61,-302.888 563.283,-299.495 556.557,-299.582 566.956,-296.103 566.956,-296.103"/>
</g>
<!-- ndVariable&#45;&gt;ndVerifier -->
<g id="edge34" class="edge"><title>ndVariable&#45;&gt;ndVerifier</title>
<path fill="none" stroke="black" d="M277.903,-514.368C321.69,-507.144 386.342,-492.085 435.055,-462 459.143,-447.123 454.148,-430.168 478.055,-415 523.636,-386.081 542.515,-395.051 594.055,-379 599.582,-377.279 605.347,-375.481 611.103,-373.685"/>
<polygon fill="black" stroke="black" points="620.737,-370.676 612.533,-377.952 615.965,-372.167 611.192,-373.657 611.192,-373.657 611.192,-373.657 615.965,-372.167 609.851,-369.361 620.737,-370.676 620.737,-370.676"/>
</g>
<!-- ndVariable&#45;&gt;ndRandomizingVerifier -->
<g id="edge35" class="edge"><title>ndVariable&#45;&gt;ndRandomizingVerifier</title>
<path fill="none" stroke="black" d="M180.19,-518C141.115,-513.119 88.6248,-499.461 62.0545,-462 43.7943,-436.255 77.9682,-336.418 81.0545,-332 89.4651,-319.959 101.227,-309.788 113.48,-301.476"/>
<polygon fill="black" stroke="black" points="122.006,-296.018 116.01,-305.2 117.795,-298.714 113.584,-301.409 113.584,-301.409 113.584,-301.409 117.795,-298.714 111.158,-297.619 122.006,-296.018 122.006,-296.018"/>
</g>
<!-- ndLinearCombination -->
<g id="node15" class="node"><title>ndLinearCombination</title>
<g id="a_node15_22"><a xlink:href="https://github.com/davidrusu/blst-bulletproofs/blob/master/src/r1cs/linear_combination.rs#:~:text=struct%20LinearCombination" xlink:title="&lt;TABLE&gt;">
<polygon fill="lightblue" stroke="none" points="152.055,-419.5 152.055,-456.5 307.055,-456.5 307.055,-419.5 152.055,-419.5"/>
<polygon fill="none" stroke="black" points="152.055,-419.5 152.055,-456.5 307.055,-456.5 307.055,-419.5 152.055,-419.5"/>
<text text-anchor="start" x="163.055" y="-435.3" font-family="Arial" font-weight="bold" font-size="14.00">LinearCombination</text>
<polygon fill="none" stroke="black" points="150.555,-419 150.555,-458 307.555,-458 307.555,-419 150.555,-419"/>
</a>
</g>
</g>
<!-- ndVariable&#45;&gt;ndLinearCombination -->
<g id="edge36" class="edge"><title>ndVariable&#45;&gt;ndLinearCombination</title>
<path fill="none" stroke="black" d="M229.055,-497.937C229.055,-490.626 229.055,-482.337 229.055,-474.348"/>
<polygon fill="black" stroke="black" points="229.055,-474.223 225.055,-468.223 229.055,-462.223 233.055,-468.223 229.055,-474.223"/>
</g>
<!-- ndLinearCombination&#45;&gt;ndProver -->
<g id="edge37" class="edge"><title>ndLinearCombination&#45;&gt;ndProver</title>
<path fill="none" stroke="black" stroke-dasharray="5,2" d="M315.808,-416.58C318.923,-416.016 322.012,-415.487 325.055,-415 355.188,-410.179 783.041,-374.209 938.838,-361.188"/>
<polygon fill="black" stroke="black" points="938.926,-361.181 944.572,-356.695 950.884,-360.181 945.238,-364.667 938.926,-361.181"/>
</g>
<!-- ndLinearCombination&#45;&gt;ndRandomizingProver -->
<g id="edge38" class="edge"><title>ndLinearCombination&#45;&gt;ndRandomizingProver</title>
<path fill="none" stroke="black" stroke-dasharray="5,2" d="M315.611,-416.973C318.796,-416.294 321.952,-415.634 325.055,-415 416.115,-396.388 454.675,-431.958 531.055,-379 544.564,-369.634 564.397,-333.038 577.971,-305.557"/>
<polygon fill="black" stroke="black" points="582.491,-296.277 582.158,-307.237 580.302,-300.772 578.112,-305.267 578.112,-305.267 578.112,-305.267 580.302,-300.772 574.067,-303.297 582.491,-296.277 582.491,-296.277"/>
</g>
<!-- ndLinearCombination&#45;&gt;ndVerifier -->
<g id="edge39" class="edge"><title>ndLinearCombination&#45;&gt;ndVerifier</title>
<path fill="none" stroke="black" stroke-dasharray="5,2" d="M315.59,-416.867C318.781,-416.218 321.944,-415.593 325.055,-415 432.734,-394.475 461.351,-399.402 569.055,-379 582.059,-376.537 595.961,-373.534 609.06,-370.536"/>
<polygon fill="black" stroke="black" points="609.129,-370.52 614.065,-365.263 620.816,-367.798 615.88,-373.055 609.129,-370.52"/>
</g>
<!-- ndLinearCombination&#45;&gt;ndRandomizingVerifier -->
<g id="edge40" class="edge"><title>ndLinearCombination&#45;&gt;ndRandomizingVerifier</title>
<path fill="none" stroke="black" stroke-dasharray="5,2" d="M188.762,-414.725C176.227,-405.408 163.907,-393.397 157.055,-379 146.155,-356.1 150.968,-327.427 157.778,-305.756"/>
<polygon fill="black" stroke="black" points="161.11,-296.036 162.124,-306.955 159.489,-300.766 157.867,-305.496 157.867,-305.496 157.867,-305.496 159.489,-300.766 153.61,-304.037 161.11,-296.036 161.11,-296.036"/>
</g>
<!-- ndMetrics -->
<g id="node16" class="node"><title>ndMetrics</title>
<g id="a_node16_23"><a xlink:href="https://github.com/davidrusu/blst-bulletproofs/blob/master/src/r1cs/metrics.rs#:~:text=struct%20Metrics" xlink:title="&lt;TABLE&gt;">
<polygon fill="lightblue" stroke="none" points="343.055,-419.5 343.055,-456.5 417.055,-456.5 417.055,-419.5 343.055,-419.5"/>
<polygon fill="none" stroke="black" points="343.055,-419.5 343.055,-456.5 417.055,-456.5 417.055,-419.5 343.055,-419.5"/>
<text text-anchor="start" x="354.055" y="-435.3" font-family="Arial" font-weight="bold" font-size="14.00">Metrics</text>
<polygon fill="none" stroke="black" points="342.055,-419 342.055,-458 418.055,-458 418.055,-419 342.055,-419"/>
</a>
</g>
</g>
<!-- ndMetrics&#45;&gt;ndProver -->
<g id="edge41" class="edge"><title>ndMetrics&#45;&gt;ndProver</title>
<path fill="none" stroke="black" d="M426.345,-428.971C451.376,-424.505 482.855,-419.123 511.055,-415 666.534,-392.266 851.046,-371.74 940.715,-362.175"/>
<polygon fill="black" stroke="black" points="950.912,-361.091 941.444,-366.623 945.94,-361.619 940.968,-362.148 940.968,-362.148 940.968,-362.148 945.94,-361.619 940.493,-357.673 950.912,-361.091 950.912,-361.091"/>
</g>
<!-- ndMetrics&#45;&gt;ndRandomizingProver -->
<g id="edge42" class="edge"><title>ndMetrics&#45;&gt;ndRandomizingProver</title>
<path fill="none" stroke="black" d="M426.1,-419.774C430.794,-418.105 435.507,-416.484 440.055,-415 496.641,-396.533 527.997,-422.097 569.055,-379 587.369,-359.776 592.775,-329.617 593.945,-306.459"/>
<polygon fill="black" stroke="black" points="594.215,-296.377 598.445,-306.494 594.081,-301.375 593.947,-306.373 593.947,-306.373 593.947,-306.373 594.081,-301.375 589.449,-306.252 594.215,-296.377 594.215,-296.377"/>
</g>
<!-- ndMetrics&#45;&gt;ndVerifier -->
<g id="edge43" class="edge"><title>ndMetrics&#45;&gt;ndVerifier</title>
<path fill="none" stroke="black" d="M426.341,-419.377C430.944,-417.806 435.571,-416.316 440.055,-415 512.907,-393.613 534.262,-400.59 607.055,-379 608.467,-378.581 609.893,-378.144 611.329,-377.692"/>
<polygon fill="black" stroke="black" points="620.875,-374.525 612.801,-381.945 616.129,-376.1 611.384,-377.674 611.384,-377.674 611.384,-377.674 616.129,-376.1 609.967,-373.403 620.875,-374.525 620.875,-374.525"/>
</g>
<!-- ndMetrics&#45;&gt;ndRandomizingVerifier -->
<g id="edge44" class="edge"><title>ndMetrics&#45;&gt;ndRandomizingVerifier</title>
<path fill="none" stroke="black" d="M333.754,-418.441C330.486,-417.237 327.23,-416.077 324.055,-415 267.686,-395.875 236.112,-422.097 195.055,-379 176.74,-359.776 171.334,-329.617 170.164,-306.459"/>
<polygon fill="black" stroke="black" points="169.894,-296.377 174.66,-306.252 170.028,-301.375 170.162,-306.373 170.162,-306.373 170.162,-306.373 170.028,-301.375 165.664,-306.494 169.894,-296.377 169.894,-296.377"/>
</g>
<!-- ndDealerAwaitingBitCommitments&#45;&gt;ndDealer -->
<g id="edge45" class="edge"><title>ndDealerAwaitingBitCommitments&#45;&gt;ndDealer</title>
<path fill="none" stroke="black" d="M2398.42,-165.937C2410.72,-156.798 2425.07,-146.132 2438.12,-136.432"/>
<polygon fill="black" stroke="black" points="2446.48,-130.223 2441.13,-139.799 2442.46,-133.205 2438.45,-136.188 2438.45,-136.188 2438.45,-136.188 2442.46,-133.205 2435.77,-132.576 2446.48,-130.223 2446.48,-130.223"/>
</g>
<!-- ndDealerAwaitingPolyCommitments&#45;&gt;ndDealerAwaitingBitCommitments -->
<g id="edge46" class="edge"><title>ndDealerAwaitingPolyCommitments&#45;&gt;ndDealerAwaitingBitCommitments</title>
<path fill="none" stroke="black" d="M2352.18,-248.937C2354.36,-240.929 2356.85,-231.749 2359.21,-223.074"/>
<polygon fill="black" stroke="black" points="2361.88,-213.223 2363.6,-224.053 2360.57,-218.048 2359.26,-222.873 2359.26,-222.873 2359.26,-222.873 2360.57,-218.048 2354.92,-221.694 2361.88,-213.223 2361.88,-213.223"/>
</g>
<!-- ndDealerAwaitingProofShares&#45;&gt;ndDealerAwaitingPolyCommitments -->
<g id="edge47" class="edge"><title>ndDealerAwaitingProofShares&#45;&gt;ndDealerAwaitingPolyCommitments</title>
<path fill="none" stroke="black" d="M2186.62,-331.937C2214.04,-321.885 2246.5,-309.987 2274.96,-299.558"/>
<polygon fill="black" stroke="black" points="2284.44,-296.082 2276.6,-303.749 2279.75,-297.803 2275.05,-299.524 2275.05,-299.524 2275.05,-299.524 2279.75,-297.803 2273.5,-295.299 2284.44,-296.082 2284.44,-296.082"/>
</g>
<!-- ndRangeProof&#45;&gt;ndDealerAwaitingProofShares -->
<g id="edge48" class="edge"><title>ndRangeProof&#45;&gt;ndDealerAwaitingProofShares</title>
<path fill="none" stroke="black" d="M1622.76,-428.639C1712.6,-415.735 1881.46,-391.485 1998.44,-374.684"/>
<polygon fill="black" stroke="black" points="2008.53,-373.234 1999.28,-379.11 2003.59,-373.945 1998.64,-374.656 1998.64,-374.656 1998.64,-374.656 2003.59,-373.945 1998,-370.202 2008.53,-373.234 2008.53,-373.234"/>
</g>
<!-- ndBitCommitment -->
<g id="node22" class="node"><title>ndBitCommitment</title>
<g id="a_node22_24"><a xlink:href="https://github.com/davidrusu/blst-bulletproofs/blob/master/src/range_proof/messages.rs#:~:text=struct%20BitCommitment" xlink:title="&lt;TABLE&gt;">
<polygon fill="lightblue" stroke="none" points="2362.05,-419.5 2362.05,-456.5 2491.05,-456.5 2491.05,-419.5 2362.05,-419.5"/>
<polygon fill="none" stroke="black" points="2362.05,-419.5 2362.05,-456.5 2491.05,-456.5 2491.05,-419.5 2362.05,-419.5"/>
<text text-anchor="start" x="2373.05" y="-435.3" font-family="Arial" font-weight="bold" font-size="14.00">BitCommitment</text>
<polygon fill="none" stroke="black" points="2360.55,-419 2360.55,-458 2491.55,-458 2491.55,-419 2360.55,-419"/>
</a>
</g>
</g>
<!-- ndBitCommitment&#45;&gt;ndDealerAwaitingPolyCommitments -->
<g id="edge49" class="edge"><title>ndBitCommitment&#45;&gt;ndDealerAwaitingPolyCommitments</title>
<path fill="none" stroke="black" d="M2414.93,-414.697C2401.32,-386.791 2378.15,-339.3 2362.48,-307.182"/>
<polygon fill="black" stroke="black" points="2362.34,-306.895 2356.12,-303.256 2357.08,-296.11 2363.31,-299.749 2362.34,-306.895"/>
</g>
<!-- ndBitCommitment&#45;&gt;ndDealerAwaitingProofShares -->
<g id="edge50" class="edge"><title>ndBitCommitment&#45;&gt;ndDealerAwaitingProofShares</title>
<path fill="none" stroke="black" d="M2352.29,-417.493C2349.17,-416.65 2346.08,-415.816 2343.05,-415 2303.02,-404.203 2258.84,-392.338 2220.78,-382.132"/>
<polygon fill="black" stroke="black" points="2220.77,-382.129 2213.94,-384.439 2209.18,-379.021 2216.01,-376.711 2220.77,-382.129"/>
</g>
<!-- ndProofShare -->
<g id="node26" class="node"><title>ndProofShare</title>
<g id="a_node26_25"><a xlink:href="https://github.com/davidrusu/blst-bulletproofs/blob/master/src/range_proof/messages.rs#:~:text=struct%20ProofShare" xlink:title="&lt;TABLE&gt;">
<polygon fill="lightblue" stroke="none" points="1841.05,-336.5 1841.05,-373.5 1943.05,-373.5 1943.05,-336.5 1841.05,-336.5"/>
<polygon fill="none" stroke="black" points="1841.05,-336.5 1841.05,-373.5 1943.05,-373.5 1943.05,-336.5 1841.05,-336.5"/>
<text text-anchor="start" x="1852.05" y="-352.3" font-family="Arial" font-weight="bold" font-size="14.00">ProofShare</text>
<polygon fill="none" stroke="black" points="1840.05,-336 1840.05,-375 1944.05,-375 1944.05,-336 1840.05,-336"/>
</a>
</g>
</g>
<!-- ndBitCommitment&#45;&gt;ndProofShare -->
<g id="edge51" class="edge"><title>ndBitCommitment&#45;&gt;ndProofShare</title>
<path fill="none" stroke="black" stroke-dasharray="5,2" d="M2352.43,-416.883C2349.27,-416.207 2346.14,-415.575 2343.05,-415 2191.94,-386.799 2150.92,-402.848 1999.05,-379 1987.11,-377.125 1974.49,-374.791 1962.27,-372.342"/>
<polygon fill="black" stroke="black" points="1952.12,-370.265 1962.82,-367.861 1957.02,-371.267 1961.92,-372.27 1961.92,-372.27 1961.92,-372.27 1957.02,-371.267 1961.02,-376.678 1952.12,-370.265 1952.12,-370.265"/>
</g>
<!-- ndBitCommitment&#45;&gt;ndPartyAwaitingPosition -->
<g id="edge52" class="edge"><title>ndBitCommitment&#45;&gt;ndPartyAwaitingPosition</title>
<path fill="none" stroke="black" d="M2445.35,-414.662C2485.66,-364.107 2570.02,-241.268 2507.05,-166 2479.4,-132.942 2372.35,-118.541 2288.37,-112.281"/>
<polygon fill="black" stroke="black" points="2278.25,-111.558 2288.55,-107.783 2283.24,-111.914 2288.22,-112.271 2288.22,-112.271 2288.22,-112.271 2283.24,-111.914 2287.9,-116.76 2278.25,-111.558 2278.25,-111.558"/>
</g>
<!-- ndBitChallenge -->
<g id="node23" class="node"><title>ndBitChallenge</title>
<g id="a_node23_26"><a xlink:href="https://github.com/davidrusu/blst-bulletproofs/blob/master/src/range_proof/messages.rs#:~:text=struct%20BitChallenge" xlink:title="&lt;TABLE&gt;">
<polygon fill="lightblue" stroke="none" points="2215.05,-419.5 2215.05,-456.5 2326.05,-456.5 2326.05,-419.5 2215.05,-419.5"/>
<polygon fill="none" stroke="black" points="2215.05,-419.5 2215.05,-456.5 2326.05,-456.5 2326.05,-419.5 2215.05,-419.5"/>
<text text-anchor="start" x="2226.05" y="-435.3" font-family="Arial" font-weight="bold" font-size="14.00">BitChallenge</text>
<polygon fill="none" stroke="black" points="2213.55,-419 2213.55,-458 2326.55,-458 2326.55,-419 2213.55,-419"/>
</a>
</g>
</g>
<!-- ndBitChallenge&#45;&gt;ndDealerAwaitingBitCommitments -->
<g id="edge53" class="edge"><title>ndBitChallenge&#45;&gt;ndDealerAwaitingBitCommitments</title>
<path fill="none" stroke="black" d="M2281.15,-414.972C2290.63,-392.186 2300.38,-356.87 2284.05,-332 2261.99,-298.383 2223.12,-329.617 2201.05,-296 2189.59,-278.536 2188.97,-266.038 2201.05,-249 2210.24,-236.05 2222.52,-225.945 2236.28,-218.063"/>
<polygon fill="black" stroke="black" points="2245.51,-213.198 2238.76,-221.841 2241.09,-215.529 2236.66,-217.86 2236.66,-217.86 2236.66,-217.86 2241.09,-215.529 2234.57,-213.879 2245.51,-213.198 2245.51,-213.198"/>
</g>
<!-- ndBitChallenge&#45;&gt;ndDealerAwaitingPolyCommitments -->
<g id="edge54" class="edge"><title>ndBitChallenge&#45;&gt;ndDealerAwaitingPolyCommitments</title>
<path fill="none" stroke="black" d="M2295.1,-414.813C2304.85,-404.731 2315.28,-392.171 2322.05,-379 2333.42,-356.903 2339.45,-329.47 2342.62,-308.118"/>
<polygon fill="black" stroke="black" points="2342.65,-307.92 2339.46,-301.45 2344.21,-296.023 2347.4,-302.494 2342.65,-307.92"/>
</g>
<!-- ndBitChallenge&#45;&gt;ndDealerAwaitingProofShares -->
<g id="edge55" class="edge"><title>ndBitChallenge&#45;&gt;ndDealerAwaitingProofShares</title>
<path fill="none" stroke="black" d="M2229.66,-414.937C2213.08,-405.672 2193.68,-394.838 2176.13,-385.032"/>
<polygon fill="black" stroke="black" points="2175.96,-384.935 2168.77,-385.501 2165.48,-379.082 2172.67,-378.516 2175.96,-384.935"/>
</g>
<!-- ndBitChallenge&#45;&gt;ndProofShare -->
<g id="edge56" class="edge"><title>ndBitChallenge&#45;&gt;ndProofShare</title>
<path fill="none" stroke="black" stroke-dasharray="5,2" d="M2205.5,-423.668C2137.87,-409.176 2031.98,-386.483 1962.29,-371.551"/>
<polygon fill="black" stroke="black" points="1952.28,-369.406 1963,-367.101 1957.17,-370.453 1962.06,-371.501 1962.06,-371.501 1962.06,-371.501 1957.17,-370.453 1961.12,-375.901 1952.28,-369.406 1952.28,-369.406"/>
</g>
<!-- ndPartyAwaitingBitChallenge -->
<g id="node29" class="node"><title>ndPartyAwaitingBitChallenge</title>
<g id="a_node29_27"><a xlink:href="https://github.com/davidrusu/blst-bulletproofs/blob/master/src/range_proof/party.rs#:~:text=struct%20PartyAwaitingBitChallenge" xlink:title="&lt;TABLE&gt;">
<polygon fill="lightblue" stroke="none" points="1940.05,-170.5 1940.05,-207.5 2147.05,-207.5 2147.05,-170.5 1940.05,-170.5"/>
<polygon fill="none" stroke="black" points="1940.05,-170.5 1940.05,-207.5 2147.05,-207.5 2147.05,-170.5 1940.05,-170.5"/>
<text text-anchor="start" x="1951.05" y="-186.3" font-family="Arial" font-weight="bold" font-size="14.00">PartyAwaitingBitChallenge</text>
<polygon fill="none" stroke="black" points="1938.55,-170 1938.55,-209 2147.55,-209 2147.55,-170 1938.55,-170"/>
</a>
</g>
</g>
<!-- ndBitChallenge&#45;&gt;ndPartyAwaitingBitChallenge -->
<g id="edge57" class="edge"><title>ndBitChallenge&#45;&gt;ndPartyAwaitingBitChallenge</title>
<path fill="none" stroke="black" stroke-dasharray="5,2" d="M2270.96,-414.843C2270.77,-391.954 2267.31,-356.558 2250.05,-332 2231.96,-306.242 2215.4,-313.237 2189.05,-296 2151.42,-271.376 2110,-241.126 2080.92,-219.341"/>
<polygon fill="black" stroke="black" points="2072.68,-213.15 2083.38,-215.562 2076.68,-216.155 2080.68,-219.159 2080.68,-219.159 2080.68,-219.159 2076.68,-216.155 2077.97,-222.756 2072.68,-213.15 2072.68,-213.15"/>
</g>
<!-- ndPolyCommitment -->
<g id="node24" class="node"><title>ndPolyCommitment</title>
<g id="a_node24_28"><a xlink:href="https://github.com/davidrusu/blst-bulletproofs/blob/master/src/range_proof/messages.rs#:~:text=struct%20PolyCommitment" xlink:title="&lt;TABLE&gt;">
<polygon fill="lightblue" stroke="none" points="2000.05,-419.5 2000.05,-456.5 2141.05,-456.5 2141.05,-419.5 2000.05,-419.5"/>
<polygon fill="none" stroke="black" points="2000.05,-419.5 2000.05,-456.5 2141.05,-456.5 2141.05,-419.5 2000.05,-419.5"/>
<text text-anchor="start" x="2011.05" y="-435.3" font-family="Arial" font-weight="bold" font-size="14.00">PolyCommitment</text>
<polygon fill="none" stroke="black" points="1998.55,-419 1998.55,-458 2141.55,-458 2141.55,-419 1998.55,-419"/>
</a>
</g>
</g>
<!-- ndPolyCommitment&#45;&gt;ndDealerAwaitingProofShares -->
<g id="edge58" class="edge"><title>ndPolyCommitment&#45;&gt;ndDealerAwaitingProofShares</title>
<path fill="none" stroke="black" d="M2085.38,-414.937C2090.75,-407.016 2096.91,-397.949 2102.74,-389.357"/>
<polygon fill="black" stroke="black" points="2102.88,-389.151 2102.95,-381.94 2109.63,-379.223 2109.56,-386.434 2102.88,-389.151"/>
</g>
<!-- ndPolyCommitment&#45;&gt;ndProofShare -->
<g id="edge59" class="edge"><title>ndPolyCommitment&#45;&gt;ndProofShare</title>
<path fill="none" stroke="black" stroke-dasharray="5,2" d="M2020.47,-414.937C1998.86,-405.104 1973.37,-393.503 1950.82,-383.24"/>
<polygon fill="black" stroke="black" points="1941.68,-379.082 1952.65,-379.128 1946.23,-381.153 1950.78,-383.224 1950.78,-383.224 1950.78,-383.224 1946.23,-381.153 1948.92,-387.32 1941.68,-379.082 1941.68,-379.082"/>
</g>
<!-- ndPolyCommitment&#45;&gt;ndPartyAwaitingBitChallenge -->
<g id="edge60" class="edge"><title>ndPolyCommitment&#45;&gt;ndPartyAwaitingBitChallenge</title>
<path fill="none" stroke="black" d="M2030.68,-414.897C2018.19,-405.531 2005.87,-393.445 1999.05,-379 1974.56,-327.087 2002.34,-260.533 2023.54,-221.985"/>
<polygon fill="black" stroke="black" points="2028.48,-213.276 2027.46,-224.195 2026.02,-217.625 2023.55,-221.974 2023.55,-221.974 2023.55,-221.974 2026.02,-217.625 2019.63,-219.753 2028.48,-213.276 2028.48,-213.276"/>
</g>
<!-- ndPolyChallenge -->
<g id="node25" class="node"><title>ndPolyChallenge</title>
<g id="a_node25_29"><a xlink:href="https://github.com/davidrusu/blst-bulletproofs/blob/master/src/range_proof/messages.rs#:~:text=struct%20PolyChallenge" xlink:title="&lt;TABLE&gt;">
<polygon fill="lightblue" stroke="none" points="1765.05,-419.5 1765.05,-456.5 1888.05,-456.5 1888.05,-419.5 1765.05,-419.5"/>
<polygon fill="none" stroke="black" points="1765.05,-419.5 1765.05,-456.5 1888.05,-456.5 1888.05,-419.5 1765.05,-419.5"/>
<text text-anchor="start" x="1776.05" y="-435.3" font-family="Arial" font-weight="bold" font-size="14.00">PolyChallenge</text>
<polygon fill="none" stroke="black" points="1763.55,-419 1763.55,-458 1888.55,-458 1888.55,-419 1763.55,-419"/>
</a>
</g>
</g>
<!-- ndPolyChallenge&#45;&gt;ndDealerAwaitingPolyCommitments -->
<g id="edge61" class="edge"><title>ndPolyChallenge&#45;&gt;ndDealerAwaitingPolyCommitments</title>
<path fill="none" stroke="black" d="M1817.27,-414.661C1809.8,-390.946 1803.14,-354.262 1823.05,-332 1847.91,-304.213 2053.64,-288.079 2199.52,-280.034"/>
<polygon fill="black" stroke="black" points="2209.92,-279.469 2200.18,-284.505 2204.93,-279.74 2199.93,-280.012 2199.93,-280.012 2199.93,-280.012 2204.93,-279.74 2199.69,-275.518 2209.92,-279.469 2209.92,-279.469"/>
</g>
<!-- ndPolyChallenge&#45;&gt;ndDealerAwaitingProofShares -->
<g id="edge62" class="edge"><title>ndPolyChallenge&#45;&gt;ndDealerAwaitingProofShares</title>
<path fill="none" stroke="black" d="M1896.91,-418.304C1936.78,-407.505 1987.07,-393.881 2030.28,-382.174"/>
<polygon fill="black" stroke="black" points="2030.39,-382.144 2035.14,-376.714 2041.98,-379.006 2037.23,-384.436 2030.39,-382.144"/>
</g>
<!-- ndPolyChallenge&#45;&gt;ndProofShare -->
<g id="edge63" class="edge"><title>ndPolyChallenge&#45;&gt;ndProofShare</title>
<path fill="none" stroke="black" stroke-dasharray="5,2" d="M1844.44,-414.937C1851.46,-406.32 1859.59,-396.346 1867.12,-387.104"/>
<polygon fill="black" stroke="black" points="1873.54,-379.223 1870.71,-389.818 1870.38,-383.099 1867.22,-386.975 1867.22,-386.975 1867.22,-386.975 1870.38,-383.099 1863.73,-384.133 1873.54,-379.223 1873.54,-379.223"/>
</g>
<!-- ndPolyChallenge&#45;&gt;ndPartyAwaitingPolyChallenge -->
<g id="edge64" class="edge"><title>ndPolyChallenge&#45;&gt;ndPartyAwaitingPolyChallenge</title>
<path fill="none" stroke="black" stroke-dasharray="5,2" d="M1808.15,-414.993C1801.04,-404.655 1793.69,-391.851 1790.05,-379 1783.3,-355.136 1786.17,-327.121 1790.39,-305.96"/>
<polygon fill="black" stroke="black" points="1792.53,-296.171 1794.79,-306.902 1791.46,-301.055 1790.39,-305.939 1790.39,-305.939 1790.39,-305.939 1791.46,-301.055 1786,-304.976 1792.53,-296.171 1792.53,-296.171"/>
</g>
<!-- ndProofShare&#45;&gt;ndPartyAwaitingPolyChallenge -->
<g id="edge65" class="edge"><title>ndProofShare&#45;&gt;ndPartyAwaitingPolyChallenge</title>
<path fill="none" stroke="black" d="M1866.15,-331.937C1855.86,-322.972 1843.88,-312.537 1832.91,-302.987"/>
<polygon fill="black" stroke="black" points="1825.14,-296.223 1835.64,-299.397 1828.91,-299.507 1832.68,-302.791 1832.68,-302.791 1832.68,-302.791 1828.91,-299.507 1829.73,-306.184 1825.14,-296.223 1825.14,-296.223"/>
</g>
<!-- ndPartyAwaitingPosition&#45;&gt;ndParty -->
<g id="edge66" class="edge"><title>ndPartyAwaitingPosition&#45;&gt;ndParty</title>
<path fill="none" stroke="black" d="M2247.91,-82.937C2287.46,-69.5871 2336.67,-52.9787 2372.51,-40.8837"/>
<polygon fill="black" stroke="black" points="2382.24,-37.5984 2374.21,-45.06 2377.51,-39.1974 2372.77,-40.7963 2372.77,-40.7963 2372.77,-40.7963 2377.51,-39.1974 2371.33,-36.5326 2382.24,-37.5984 2382.24,-37.5984"/>
</g>
<!-- ndPartyAwaitingBitChallenge&#45;&gt;ndPartyAwaitingPosition -->
<g id="edge67" class="edge"><title>ndPartyAwaitingBitChallenge&#45;&gt;ndPartyAwaitingPosition</title>
<path fill="none" stroke="black" d="M2081.5,-165.937C2097.66,-156.45 2116.63,-145.317 2133.64,-135.328"/>
<polygon fill="black" stroke="black" points="2142.34,-130.223 2136,-139.166 2138.03,-132.754 2133.72,-135.285 2133.72,-135.285 2133.72,-135.285 2138.03,-132.754 2131.44,-131.404 2142.34,-130.223 2142.34,-130.223"/>
</g>
<!-- ndPartyAwaitingPolyChallenge&#45;&gt;ndPartyAwaitingBitChallenge -->
<g id="edge68" class="edge"><title>ndPartyAwaitingPolyChallenge&#45;&gt;ndPartyAwaitingBitChallenge</title>
<path fill="none" stroke="black" d="M1867.02,-248.937C1897.56,-238.798 1933.77,-226.78 1965.38,-216.286"/>
<polygon fill="black" stroke="black" points="1975.03,-213.082 1966.96,-220.504 1970.28,-214.658 1965.54,-216.233 1965.54,-216.233 1965.54,-216.233 1970.28,-214.658 1964.12,-211.962 1975.03,-213.082 1975.03,-213.082"/>
</g>
<!-- ndTranscriptProtocol -->
<g id="node31" class="node"><title>ndTranscriptProtocol</title>
<g id="a_node31_30"><a xlink:href="https://github.com/davidrusu/blst-bulletproofs/blob/master/src/transcript.rs#:~:text=trait%20TranscriptProtocol" xlink:title="&lt;TABLE&gt;">
<polygon fill="lightgreen" stroke="none" points="2498.05,-668.5 2498.05,-705.5 2652.05,-705.5 2652.05,-668.5 2498.05,-668.5"/>
<polygon fill="none" stroke="black" points="2498.05,-668.5 2498.05,-705.5 2652.05,-705.5 2652.05,-668.5 2498.05,-668.5"/>
<text text-anchor="start" x="2509.05" y="-684.3" font-family="Arial" font-weight="bold" font-size="14.00">TranscriptProtocol</text>
<polygon fill="none" stroke="black" points="2497.05,-668 2497.05,-707 2653.05,-707 2653.05,-668 2497.05,-668"/>
</a>
</g>
</g>
<!-- ndVecPoly1 -->
<g id="node32" class="node"><title>ndVecPoly1</title>
<g id="a_node32_31"><a xlink:href="https://github.com/davidrusu/blst-bulletproofs/blob/master/src/util.rs#:~:text=struct%20VecPoly1" xlink:title="&lt;TABLE&gt;">
<polygon fill="lightblue" stroke="none" points="2756.05,-585.5 2756.05,-622.5 2843.05,-622.5 2843.05,-585.5 2756.05,-585.5"/>
<polygon fill="none" stroke="black" points="2756.05,-585.5 2756.05,-622.5 2843.05,-622.5 2843.05,-585.5 2756.05,-585.5"/>
<text text-anchor="start" x="2767.05" y="-601.3" font-family="Arial" font-weight="bold" font-size="14.00">VecPoly1</text>
<polygon fill="none" stroke="black" points="2754.55,-585 2754.55,-624 2843.55,-624 2843.55,-585 2754.55,-585"/>
</a>
</g>
</g>
<!-- ndVecPoly3 -->
<g id="node33" class="node"><title>ndVecPoly3</title>
<g id="a_node33_32"><a xlink:href="https://github.com/davidrusu/blst-bulletproofs/blob/master/src/util.rs#:~:text=struct%20VecPoly3" xlink:title="&lt;TABLE&gt;">
<polygon fill="lightblue" stroke="none" points="2879.05,-585.5 2879.05,-622.5 2966.05,-622.5 2966.05,-585.5 2879.05,-585.5"/>
<polygon fill="none" stroke="black" points="2879.05,-585.5 2879.05,-622.5 2966.05,-622.5 2966.05,-585.5 2879.05,-585.5"/>
<text text-anchor="start" x="2890.05" y="-601.3" font-family="Arial" font-weight="bold" font-size="14.00">VecPoly3</text>
<polygon fill="none" stroke="black" points="2877.55,-585 2877.55,-624 2966.55,-624 2966.55,-585 2877.55,-585"/>
</a>
</g>
</g>
<!-- ndPoly2 -->
<g id="node34" class="node"><title>ndPoly2</title>
<g id="a_node34_33"><a xlink:href="https://github.com/davidrusu/blst-bulletproofs/blob/master/src/util.rs#:~:text=struct%20Poly2" xlink:title="&lt;TABLE&gt;">
<polygon fill="lightblue" stroke="none" points="2768.05,-668.5 2768.05,-705.5 2830.05,-705.5 2830.05,-668.5 2768.05,-668.5"/>
<polygon fill="none" stroke="black" points="2768.05,-668.5 2768.05,-705.5 2830.05,-705.5 2830.05,-668.5 2768.05,-668.5"/>
<text text-anchor="start" x="2779.05" y="-684.3" font-family="Arial" font-weight="bold" font-size="14.00">Poly2</text>
<polygon fill="none" stroke="black" points="2767.05,-668 2767.05,-707 2831.05,-707 2831.05,-668 2767.05,-668"/>
</a>
</g>
</g>
<!-- ndPoly2&#45;&gt;ndVecPoly1 -->
<g id="edge69" class="edge"><title>ndPoly2&#45;&gt;ndVecPoly1</title>
<path fill="none" stroke="black" d="M2799.05,-663.937C2799.05,-656.016 2799.05,-646.949 2799.05,-638.357"/>
<polygon fill="black" stroke="black" points="2799.05,-628.223 2803.55,-638.223 2799.05,-633.223 2799.05,-638.223 2799.05,-638.223 2799.05,-638.223 2799.05,-633.223 2794.55,-638.223 2799.05,-628.223 2799.05,-628.223"/>
</g>
<!-- ndPoly6 -->
<g id="node35" class="node"><title>ndPoly6</title>
<g id="a_node35_34"><a xlink:href="https://github.com/davidrusu/blst-bulletproofs/blob/master/src/util.rs#:~:text=struct%20Poly6" xlink:title="&lt;TABLE&gt;">
<polygon fill="lightblue" stroke="none" points="2891.05,-668.5 2891.05,-705.5 2953.05,-705.5 2953.05,-668.5 2891.05,-668.5"/>
<polygon fill="none" stroke="black" points="2891.05,-668.5 2891.05,-705.5 2953.05,-705.5 2953.05,-668.5 2891.05,-668.5"/>
<text text-anchor="start" x="2902.05" y="-684.3" font-family="Arial" font-weight="bold" font-size="14.00">Poly6</text>
<polygon fill="none" stroke="black" points="2890.05,-668 2890.05,-707 2954.05,-707 2954.05,-668 2890.05,-668"/>
</a>
</g>
</g>
<!-- ndPoly6&#45;&gt;ndVecPoly3 -->
<g id="edge70" class="edge"><title>ndPoly6&#45;&gt;ndVecPoly3</title>
<path fill="none" stroke="black" d="M2922.05,-663.937C2922.05,-656.016 2922.05,-646.949 2922.05,-638.357"/>
<polygon fill="black" stroke="black" points="2922.05,-628.223 2926.55,-638.223 2922.05,-633.223 2922.05,-638.223 2922.05,-638.223 2922.05,-638.223 2922.05,-633.223 2917.55,-638.223 2922.05,-628.223 2922.05,-628.223"/>
</g>
<!-- ndScalarExp -->
<g id="node36" class="node"><title>ndScalarExp</title>
<g id="a_node36_35"><a xlink:href="https://github.com/davidrusu/blst-bulletproofs/blob/master/src/util.rs#:~:text=struct%20ScalarExp" xlink:title="&lt;TABLE&gt;">
<polygon fill="lightblue" stroke="none" points="2989.05,-668.5 2989.05,-705.5 3083.05,-705.5 3083.05,-668.5 2989.05,-668.5"/>
<polygon fill="none" stroke="black" points="2989.05,-668.5 2989.05,-705.5 3083.05,-705.5 3083.05,-668.5 2989.05,-668.5"/>
<text text-anchor="start" x="3000.05" y="-684.3" font-family="Arial" font-weight="bold" font-size="14.00">ScalarExp</text>
<polygon fill="none" stroke="black" points="2988.05,-668 2988.05,-707 3084.05,-707 3084.05,-668 2988.05,-668"/>
</a>
</g>
</g>
<!-- ndPedersenGens -->
<g id="node37" class="node"><title>ndPedersenGens</title>
<g id="a_node37_36"><a xlink:href="https://github.com/davidrusu/blst-bulletproofs/blob/master/src/generators.rs#:~:text=struct%20PedersenGens" xlink:title="&lt;TABLE&gt;">
<polygon fill="lightblue" stroke="none" points="1398.05,-502.5 1398.05,-539.5 1524.05,-539.5 1524.05,-502.5 1398.05,-502.5"/>
<polygon fill="none" stroke="black" points="1398.05,-502.5 1398.05,-539.5 1524.05,-539.5 1524.05,-502.5 1398.05,-502.5"/>
<text text-anchor="start" x="1409.05" y="-518.3" font-family="Arial" font-weight="bold" font-size="14.00">PedersenGens</text>
<polygon fill="none" stroke="black" points="1397.05,-502 1397.05,-541 1525.05,-541 1525.05,-502 1397.05,-502"/>
</a>
</g>
</g>
<!-- ndPedersenGens&#45;&gt;ndProver -->
<g id="edge71" class="edge"><title>ndPedersenGens&#45;&gt;ndProver</title>
<path fill="none" stroke="black" stroke-dasharray="5,2" d="M1441.81,-497.909C1419.5,-473.315 1380.33,-434.847 1338.05,-415 1243.26,-370.496 1119.57,-359.44 1049.58,-356.939"/>
<polygon fill="black" stroke="black" points="1039.24,-356.619 1049.38,-352.431 1044.24,-356.774 1049.24,-356.929 1049.24,-356.929 1049.24,-356.929 1044.24,-356.774 1049.1,-361.427 1039.24,-356.619 1039.24,-356.619"/>
</g>
<!-- ndPedersenGens&#45;&gt;ndVerifier -->
<g id="edge72" class="edge"><title>ndPedersenGens&#45;&gt;ndVerifier</title>
<path fill="none" stroke="black" stroke-dasharray="5,2" d="M1388.67,-500.234C1385.76,-499.47 1382.88,-498.723 1380.05,-498 1311.96,-480.59 1291.1,-488.647 1226.05,-462 1188.95,-446.8 1186.93,-428.154 1149.05,-415 1071.08,-387.919 830.641,-368.09 721.256,-360.225"/>
<polygon fill="black" stroke="black" points="711.089,-359.502 721.383,-355.723 716.076,-359.857 721.064,-360.212 721.064,-360.212 721.064,-360.212 716.076,-359.857 720.744,-364.7 711.089,-359.502 711.089,-359.502"/>
</g>
<!-- ndPedersenGens&#45;&gt;ndDealer -->
<g id="edge73" class="edge"><title>ndPedersenGens&#45;&gt;ndDealer</title>
<path fill="none" stroke="black" stroke-dasharray="5,2" d="M1463.3,-497.978C1466.25,-466.394 1471.05,-407.132 1471.05,-356.5 1471.05,-356.5 1471.05,-356.5 1471.05,-271.5 1471.05,-87.4605 2104.09,-149.83 2287.05,-130 2333.09,-125.011 2385.32,-118.784 2423.36,-114.147"/>
<polygon fill="black" stroke="black" points="2433.69,-112.883 2424.31,-118.563 2428.73,-113.49 2423.77,-114.097 2423.77,-114.097 2423.77,-114.097 2428.73,-113.49 2423.22,-109.63 2433.69,-112.883 2433.69,-112.883"/>
</g>
<!-- ndPedersenGens&#45;&gt;ndRangeProof -->
<g id="edge74" class="edge"><title>ndPedersenGens&#45;&gt;ndRangeProof</title>
<path fill="none" stroke="black" stroke-dasharray="5,2" d="M1488.91,-497.937C1500.09,-488.885 1513.11,-478.335 1524.99,-468.709"/>
<polygon fill="black" stroke="black" points="1533,-462.223 1528.06,-472.014 1529.12,-465.37 1525.23,-468.517 1525.23,-468.517 1525.23,-468.517 1529.12,-465.37 1522.4,-465.02 1533,-462.223 1533,-462.223"/>
</g>
<!-- ndPedersenGens&#45;&gt;ndProofShare -->
<g id="edge75" class="edge"><title>ndPedersenGens&#45;&gt;ndProofShare</title>
<path fill="none" stroke="black" stroke-dasharray="5,2" d="M1533.29,-516.126C1652.8,-508.146 1880.96,-489.475 1905.05,-462 1922.41,-442.21 1916.39,-411.725 1907.66,-388.604"/>
<polygon fill="black" stroke="black" points="1903.81,-379.199 1911.76,-386.749 1905.7,-383.826 1907.59,-388.454 1907.59,-388.454 1907.59,-388.454 1905.7,-383.826 1903.43,-390.158 1903.81,-379.199 1903.81,-379.199"/>
</g>
<!-- ndPedersenGens&#45;&gt;ndParty -->
<g id="edge76" class="edge"><title>ndPedersenGens&#45;&gt;ndParty</title>
<path fill="none" stroke="black" stroke-dasharray="5,2" d="M1454.37,-498C1436.43,-432.371 1395.41,-241.072 1502.05,-166 1644.92,-65.4249 2203.27,-33.7652 2372.3,-26.3856"/>
<polygon fill="black" stroke="black" points="2382.4,-25.9536 2372.6,-30.877 2377.4,-26.1674 2372.41,-26.3811 2372.41,-26.3811 2372.41,-26.3811 2377.4,-26.1674 2372.21,-21.8852 2382.4,-25.9536 2382.4,-25.9536"/>
</g>
<!-- ndGeneratorsChain -->
<g id="node38" class="node"><title>ndGeneratorsChain</title>
<g id="a_node38_37"><a xlink:href="https://github.com/davidrusu/blst-bulletproofs/blob/master/src/generators.rs#:~:text=struct%20GeneratorsChain" xlink:title="&lt;TABLE&gt;">
<polygon fill="lightblue" stroke="none" points="3119.05,-668.5 3119.05,-705.5 3261.05,-705.5 3261.05,-668.5 3119.05,-668.5"/>
<polygon fill="none" stroke="black" points="3119.05,-668.5 3119.05,-705.5 3261.05,-705.5 3261.05,-668.5 3119.05,-668.5"/>
<text text-anchor="start" x="3130.05" y="-684.3" font-family="Arial" font-weight="bold" font-size="14.00">GeneratorsChain</text>
<polygon fill="none" stroke="black" points="3118.05,-668 3118.05,-707 3262.05,-707 3262.05,-668 3118.05,-668"/>
</a>
</g>
</g>
<!-- ndBulletproofGens -->
<g id="node39" class="node"><title>ndBulletproofGens</title>
<g id="a_node39_38"><a xlink:href="https://github.com/davidrusu/blst-bulletproofs/blob/master/src/generators.rs#:~:text=struct%20BulletproofGens" xlink:title="&lt;TABLE&gt;">
<polygon fill="lightblue" stroke="none" points="1821.05,-502.5 1821.05,-539.5 1958.05,-539.5 1958.05,-502.5 1821.05,-502.5"/>
<polygon fill="none" stroke="black" points="1821.05,-502.5 1821.05,-539.5 1958.05,-539.5 1958.05,-502.5 1821.05,-502.5"/>
<text text-anchor="start" x="1832.05" y="-518.3" font-family="Arial" font-weight="bold" font-size="14.00">BulletproofGens</text>
<polygon fill="none" stroke="black" points="1819.55,-502 1819.55,-541 1958.55,-541 1958.55,-502 1819.55,-502"/>
</a>
</g>
</g>
<!-- ndBulletproofGens&#45;&gt;ndProver -->
<g id="edge77" class="edge"><title>ndBulletproofGens&#45;&gt;ndProver</title>
<path fill="none" stroke="black" stroke-dasharray="5,2" d="M1828.76,-497.965C1802.93,-487.768 1772.65,-475.08 1746.05,-462 1708.71,-443.633 1704.74,-427.555 1665.05,-415 1550.73,-378.827 1188.55,-363.041 1049.84,-358.213"/>
<polygon fill="black" stroke="black" points="1039.46,-357.858 1049.61,-353.703 1044.46,-358.029 1049.45,-358.2 1049.45,-358.2 1049.45,-358.2 1044.46,-358.029 1049.3,-362.698 1039.46,-357.858 1039.46,-357.858"/>
</g>
<!-- ndBulletproofGens&#45;&gt;ndVerifier -->
<g id="edge78" class="edge"><title>ndBulletproofGens&#45;&gt;ndVerifier</title>
<path fill="none" stroke="black" stroke-dasharray="5,2" d="M1811.55,-513.46C1765.71,-506.24 1708.35,-491.616 1665.05,-462 1643.78,-447.443 1653.7,-427.323 1631.05,-415 1563.72,-378.357 1018.54,-384.115 942.055,-379 865.512,-373.881 777.158,-366.402 721.455,-361.494"/>
<polygon fill="black" stroke="black" points="711.444,-360.608 721.802,-357.007 716.425,-361.049 721.406,-361.489 721.406,-361.489 721.406,-361.489 716.425,-361.049 721.009,-365.972 711.444,-360.608 711.444,-360.608"/>
</g>
<!-- ndBulletproofGens&#45;&gt;ndDealer -->
<g id="edge79" class="edge"><title>ndBulletproofGens&#45;&gt;ndDealer</title>
<path fill="none" stroke="black" stroke-dasharray="5,2" d="M1966.61,-518.35C2123.94,-513.255 2469.04,-498.06 2508.05,-462 2604.98,-372.416 2584.35,-287.186 2532.05,-166 2527.57,-155.613 2520.4,-145.932 2512.7,-137.554"/>
<polygon fill="black" stroke="black" points="2505.54,-130.243 2515.76,-134.239 2509.04,-133.815 2512.54,-137.388 2512.54,-137.388 2512.54,-137.388 2509.04,-133.815 2509.33,-140.536 2505.54,-130.243 2505.54,-130.243"/>
</g>
<!-- ndBulletproofGens&#45;&gt;ndRangeProof -->
<g id="edge80" class="edge"><title>ndBulletproofGens&#45;&gt;ndRangeProof</title>
<path fill="none" stroke="black" stroke-dasharray="5,2" d="M1811.28,-503.704C1761.32,-492.605 1695.14,-477.325 1637.05,-462 1635.6,-461.616 1634.13,-461.224 1632.65,-460.825"/>
<polygon fill="black" stroke="black" points="1622.77,-458.106 1633.61,-456.421 1627.59,-459.433 1632.41,-460.759 1632.41,-460.759 1632.41,-460.759 1627.59,-459.433 1631.22,-465.098 1622.77,-458.106 1622.77,-458.106"/>
</g>
<!-- ndBulletproofGens&#45;&gt;ndProofShare -->
<g id="edge81" class="edge"><title>ndBulletproofGens&#45;&gt;ndProofShare</title>
<path fill="none" stroke="black" stroke-dasharray="5,2" d="M1915.12,-497.746C1924.56,-487.831 1934.1,-475.411 1939.05,-462 1946.29,-442.404 1945.99,-434.704 1939.05,-415 1935.51,-404.942 1929.43,-395.336 1922.8,-386.921"/>
<polygon fill="black" stroke="black" points="1916.33,-379.242 1926.22,-383.993 1919.55,-383.066 1922.77,-386.891 1922.77,-386.891 1922.77,-386.891 1919.55,-383.066 1919.33,-389.79 1916.33,-379.242 1916.33,-379.242"/>
</g>
<!-- ndBulletproofGens&#45;&gt;ndParty -->
<g id="edge82" class="edge"><title>ndBulletproofGens&#45;&gt;ndParty</title>
<path fill="none" stroke="black" stroke-dasharray="5,2" d="M1966.72,-517.718C2129.67,-511.287 2496.14,-493.481 2543.05,-462 2683.02,-368.08 2636.92,-212.523 2529.05,-83 2513.37,-64.1725 2490.01,-50.4609 2469.02,-41.0656"/>
<polygon fill="black" stroke="black" points="2459.58,-37.0497 2470.55,-36.8234 2464.18,-39.007 2468.79,-40.9643 2468.79,-40.9643 2468.79,-40.9643 2464.18,-39.007 2467.02,-45.1052 2459.58,-37.0497 2459.58,-37.0497"/>
</g>
<!-- ndAggregatedGensIter -->
<g id="node40" class="node"><title>ndAggregatedGensIter</title>
<g id="a_node40_39"><a xlink:href="https://github.com/davidrusu/blst-bulletproofs/blob/master/src/generators.rs#:~:text=struct%20AggregatedGensIter" xlink:title="&lt;TABLE&gt;">
<polygon fill="lightblue" stroke="none" points="3298.05,-668.5 3298.05,-705.5 3461.05,-705.5 3461.05,-668.5 3298.05,-668.5"/>
<polygon fill="none" stroke="black" points="3298.05,-668.5 3298.05,-705.5 3461.05,-705.5 3461.05,-668.5 3298.05,-668.5"/>
<text text-anchor="start" x="3309.05" y="-684.3" font-family="Arial" font-weight="bold" font-size="14.00">AggregatedGensIter</text>
<polygon fill="none" stroke="black" points="3296.55,-668 3296.55,-707 3461.55,-707 3461.55,-668 3296.55,-668"/>
</a>
</g>
</g>
<!-- ndBulletproofGensShare -->
<g id="node41" class="node"><title>ndBulletproofGensShare</title>
<g id="a_node41_40"><a xlink:href="https://github.com/davidrusu/blst-bulletproofs/blob/master/src/generators.rs#:~:text=struct%20BulletproofGensShare" xlink:title="&lt;TABLE&gt;">
<polygon fill="lightblue" stroke="none" points="1800.05,-585.5 1800.05,-622.5 1978.05,-622.5 1978.05,-585.5 1800.05,-585.5"/>
<polygon fill="none" stroke="black" points="1800.05,-585.5 1800.05,-622.5 1978.05,-622.5 1978.05,-585.5 1800.05,-585.5"/>
<text text-anchor="start" x="1811.05" y="-601.3" font-family="Arial" font-weight="bold" font-size="14.00">BulletproofGensShare</text>
<polygon fill="none" stroke="black" points="1799.05,-585 1799.05,-624 1979.05,-624 1979.05,-585 1799.05,-585"/>
</a>
</g>
</g>
<!-- ndBulletproofGensShare&#45;&gt;ndBulletproofGens -->
<g id="edge83" class="edge"><title>ndBulletproofGensShare&#45;&gt;ndBulletproofGens</title>
<path fill="none" stroke="black" d="M1889.05,-580.937C1889.05,-573.016 1889.05,-563.949 1889.05,-555.357"/>
<polygon fill="black" stroke="black" points="1889.05,-545.223 1893.55,-555.223 1889.05,-550.223 1889.05,-555.223 1889.05,-555.223 1889.05,-555.223 1889.05,-550.223 1884.55,-555.223 1889.05,-545.223 1889.05,-545.223"/>
</g>
</g>
</svg>
