<?xml version="1.0" encoding="UTF-8" standalone="no"?>
<!DOCTYPE svg PUBLIC "-//W3C//DTD SVG 1.1//EN"
 "http://www.w3.org/Graphics/SVG/1.1/DTD/svg11.dtd">
<!-- Generated by graphviz version 2.38.0 (20140413.2041)
 -->
<!-- Title: ml Pages: 1 -->
<svg width="927pt" height="304pt"
 viewBox="0.00 0.00 927.00 304.00" xmlns="http://www.w3.org/2000/svg" xmlns:xlink="http://www.w3.org/1999/xlink">
<g id="graph0" class="graph" transform="scale(1 1) rotate(0) translate(4 300)">
<title>ml</title>
<polygon fill="white" stroke="none" points="-4,4 -4,-300 923,-300 923,4 -4,4"/>
<!-- ndRevealedCommitment -->
<g id="node1" class="node"><title>ndRevealedCommitment</title>
<g id="a_node1_0"><a xlink:href="https://github.com/maidsafe/blst-ringct/blob/master/src/lib.rs#:~:text=struct%20RevealedCommitment" xlink:title="&lt;TABLE&gt;">
<polygon fill="lightblue" stroke="none" points="208,-253.5 208,-290.5 382,-290.5 382,-253.5 208,-253.5"/>
<polygon fill="none" stroke="black" points="208,-253.5 208,-290.5 382,-290.5 382,-253.5 208,-253.5"/>
<text text-anchor="start" x="219" y="-269.3" font-family="Arial" font-weight="bold" font-size="14.00">RevealedCommitment</text>
<polygon fill="none" stroke="black" points="207,-253 207,-292 383,-292 383,-253 207,-253"/>
</a>
</g>
</g>
<!-- ndOutput -->
<g id="node3" class="node"><title>ndOutput</title>
<g id="a_node3_1"><a xlink:href="https://github.com/maidsafe/blst-ringct/blob/master/src/ringct.rs#:~:text=struct%20Output" xlink:title="&lt;TABLE&gt;">
<polygon fill="lightblue" stroke="none" points="9,-87.5 9,-124.5 79,-124.5 79,-87.5 9,-87.5"/>
<polygon fill="none" stroke="black" points="9,-87.5 9,-124.5 79,-124.5 79,-87.5 9,-87.5"/>
<text text-anchor="start" x="20" y="-103.3" font-family="Arial" font-weight="bold" font-size="14.00">Output</text>
<polygon fill="none" stroke="black" points="8,-87 8,-126 80,-126 80,-87 8,-87"/>
</a>
</g>
</g>
<!-- ndRevealedCommitment&#45;&gt;ndOutput -->
<g id="edge1" class="edge"><title>ndRevealedCommitment&#45;&gt;ndOutput</title>
<path fill="none" stroke="black" d="M260.363,-248.869C215.198,-219.359 136.195,-167.739 87.1757,-135.71"/>
<polygon fill="black" stroke="black" points="78.6842,-130.162 89.5171,-131.865 82.87,-132.897 87.0557,-135.632 87.0557,-135.632 87.0557,-135.632 82.87,-132.897 84.5943,-139.399 78.6842,-130.162 78.6842,-130.162"/>
</g>
<!-- ndRevealedOutputCommitment -->
<g id="node4" class="node"><title>ndRevealedOutputCommitment</title>
<g id="a_node4_2"><a xlink:href="https://github.com/maidsafe/blst-ringct/blob/master/src/ringct.rs#:~:text=struct%20RevealedOutputCommitment" xlink:title="&lt;TABLE&gt;">
<polygon fill="lightblue" stroke="none" points="115,-87.5 115,-124.5 336,-124.5 336,-87.5 115,-87.5"/>
<polygon fill="none" stroke="black" points="115,-87.5 115,-124.5 336,-124.5 336,-87.5 115,-87.5"/>
<text text-anchor="start" x="126" y="-103.3" font-family="Arial" font-weight="bold" font-size="14.00">RevealedOutputCommitment</text>
<polygon fill="none" stroke="black" points="113.5,-87 113.5,-126 336.5,-126 336.5,-87 113.5,-87"/>
</a>
</g>
</g>
<!-- ndRevealedCommitment&#45;&gt;ndRevealedOutputCommitment -->
<g id="edge2" class="edge"><title>ndRevealedCommitment&#45;&gt;ndRevealedOutputCommitment</title>
<path fill="none" stroke="black" d="M285.267,-248.697C273.356,-220.791 253.085,-173.3 239.377,-141.182"/>
<polygon fill="black" stroke="black" points="239.361,-141.147 233.327,-137.198 234.651,-130.11 240.685,-134.058 239.361,-141.147"/>
</g>
<!-- ndRingCtMaterial -->
<g id="node5" class="node"><title>ndRingCtMaterial</title>
<g id="a_node5_3"><a xlink:href="https://github.com/maidsafe/blst-ringct/blob/master/src/ringct.rs#:~:text=struct%20RingCtMaterial" xlink:title="&lt;TABLE&gt;">
<polygon fill="lightblue" stroke="none" points="359,-4.5 359,-41.5 484,-41.5 484,-4.5 359,-4.5"/>
<polygon fill="none" stroke="black" points="359,-4.5 359,-41.5 484,-41.5 484,-4.5 359,-4.5"/>
<text text-anchor="start" x="370" y="-20.3" font-family="Arial" font-weight="bold" font-size="14.00">RingCtMaterial</text>
<polygon fill="none" stroke="black" points="357.5,-4 357.5,-43 484.5,-43 484.5,-4 357.5,-4"/>
</a>
</g>
</g>
<!-- ndRevealedCommitment&#45;&gt;ndRingCtMaterial -->
<g id="edge3" class="edge"><title>ndRevealedCommitment&#45;&gt;ndRingCtMaterial</title>
<path fill="none" stroke="black" d="M294.986,-248.712C295.885,-226.357 299.767,-191.943 314,-166 325.346,-145.319 337.822,-148.058 353,-130 372.506,-106.792 390.894,-77.6503 403.619,-55.8785"/>
<polygon fill="black" stroke="black" points="408.712,-47.0378 407.619,-57.9491 406.216,-51.3702 403.72,-55.7027 403.72,-55.7027 403.72,-55.7027 406.216,-51.3702 399.821,-53.4563 408.712,-47.0378 408.712,-47.0378"/>
</g>
<!-- ndTrueInput -->
<g id="node8" class="node"><title>ndTrueInput</title>
<g id="a_node8_4"><a xlink:href="https://github.com/maidsafe/blst-ringct/blob/master/src/mlsag.rs#:~:text=struct%20TrueInput" xlink:title="&lt;TABLE&gt;">
<polygon fill="lightblue" stroke="none" points="332,-170.5 332,-207.5 422,-207.5 422,-170.5 332,-170.5"/>
<polygon fill="none" stroke="black" points="332,-170.5 332,-207.5 422,-207.5 422,-170.5 332,-170.5"/>
<text text-anchor="start" x="343" y="-186.3" font-family="Arial" font-weight="bold" font-size="14.00">TrueInput</text>
<polygon fill="none" stroke="black" points="331,-170 331,-209 423,-209 423,-170 331,-170"/>
</a>
</g>
</g>
<!-- ndRevealedCommitment&#45;&gt;ndTrueInput -->
<g id="edge4" class="edge"><title>ndRevealedCommitment&#45;&gt;ndTrueInput</title>
<path fill="none" stroke="black" d="M317.842,-248.937C326.389,-240.494 336.255,-230.748 345.451,-221.665"/>
<polygon fill="black" stroke="black" points="345.459,-221.656 346.917,-214.594 353.997,-213.223 352.539,-220.285 345.459,-221.656"/>
</g>
<!-- ndMlsagMaterial -->
<g id="node10" class="node"><title>ndMlsagMaterial</title>
<g id="a_node10_5"><a xlink:href="https://github.com/maidsafe/blst-ringct/blob/master/src/mlsag.rs#:~:text=struct%20MlsagMaterial" xlink:title="&lt;TABLE&gt;">
<polygon fill="lightblue" stroke="none" points="410,-87.5 410,-124.5 530,-124.5 530,-87.5 410,-87.5"/>
<polygon fill="none" stroke="black" points="410,-87.5 410,-124.5 530,-124.5 530,-87.5 410,-87.5"/>
<text text-anchor="start" x="421" y="-103.3" font-family="Arial" font-weight="bold" font-size="14.00">MlsagMaterial</text>
<polygon fill="none" stroke="black" points="409,-87 409,-126 531,-126 531,-87 409,-87"/>
</a>
</g>
</g>
<!-- ndRevealedCommitment&#45;&gt;ndMlsagMaterial -->
<g id="edge5" class="edge"><title>ndRevealedCommitment&#45;&gt;ndMlsagMaterial</title>
<path fill="none" stroke="black" stroke-dasharray="5,2" d="M386.915,-248.985C406.612,-240.477 425.755,-228.848 440,-213 457.993,-192.982 465.263,-162.906 468.165,-139.982"/>
<polygon fill="black" stroke="black" points="469.214,-130.014 472.643,-140.43 468.691,-134.987 468.167,-139.959 468.167,-139.959 468.167,-139.959 468.691,-134.987 463.692,-139.488 469.214,-130.014 469.214,-130.014"/>
</g>
<!-- ndError -->
<g id="node2" class="node"><title>ndError</title>
<g id="a_node2_6"><a xlink:href="https://github.com/maidsafe/blst-ringct/blob/master/src/error.rs#:~:text=enum%20Error" xlink:title="&lt;TABLE&gt;">
<polygon fill="yellow" stroke="none" points="419,-253.5 419,-290.5 478,-290.5 478,-253.5 419,-253.5"/>
<polygon fill="none" stroke="black" points="419,-253.5 419,-290.5 478,-290.5 478,-253.5 419,-253.5"/>
<text text-anchor="start" x="430" y="-269.3" font-family="Arial" font-weight="bold" font-size="14.00">Error</text>
<polygon fill="none" stroke="black" points="417.5,-253 417.5,-292 478.5,-292 478.5,-253 417.5,-253"/>
</a>
</g>
</g>
<!-- ndOutput&#45;&gt;ndRingCtMaterial -->
<g id="edge6" class="edge"><title>ndOutput&#45;&gt;ndRingCtMaterial</title>
<path fill="none" stroke="black" d="M88.2832,-85.5409C90.8728,-84.6237 93.4575,-83.7677 96,-83 176.214,-58.7807 270.768,-43.1481 337.144,-34.1917"/>
<polygon fill="black" stroke="black" points="337.303,-34.1707 342.727,-29.4181 349.2,-32.5965 343.776,-37.349 337.303,-34.1707"/>
</g>
<!-- ndRevealedOutputCommitment&#45;&gt;ndRingCtMaterial -->
<g id="edge7" class="edge"><title>ndRevealedOutputCommitment&#45;&gt;ndRingCtMaterial</title>
<path fill="none" stroke="black" d="M279.597,-82.937C303.602,-73.0165 331.961,-61.2967 356.957,-50.9667"/>
<polygon fill="black" stroke="black" points="366.356,-47.0824 358.833,-55.0606 361.735,-48.9921 357.114,-50.9018 357.114,-50.9018 357.114,-50.9018 361.735,-48.9921 355.396,-46.7429 366.356,-47.0824 366.356,-47.0824"/>
</g>
<!-- ndOutputProof -->
<g id="node6" class="node"><title>ndOutputProof</title>
<g id="a_node6_7"><a xlink:href="https://github.com/maidsafe/blst-ringct/blob/master/src/ringct.rs#:~:text=struct%20OutputProof" xlink:title="&lt;TABLE&gt;">
<polygon fill="lightblue" stroke="none" points="802,-170.5 802,-207.5 910,-207.5 910,-170.5 802,-170.5"/>
<polygon fill="none" stroke="black" points="802,-170.5 802,-207.5 910,-207.5 910,-170.5 802,-170.5"/>
<text text-anchor="start" x="813" y="-186.3" font-family="Arial" font-weight="bold" font-size="14.00">OutputProof</text>
<polygon fill="none" stroke="black" points="801,-170 801,-209 911,-209 911,-170 801,-170"/>
</a>
</g>
</g>
<!-- ndOutputProof&#45;&gt;ndRingCtMaterial -->
<g id="edge8" class="edge"><title>ndOutputProof&#45;&gt;ndRingCtMaterial</title>
<path fill="none" stroke="black" d="M849.21,-165.907C840.569,-141.31 823.156,-102.841 794,-83 747.858,-51.5996 598.048,-36.0884 502.912,-29.2219"/>
<polygon fill="black" stroke="black" points="492.738,-28.5054 503.029,-24.7191 497.725,-28.8567 502.713,-29.208 502.713,-29.208 502.713,-29.208 497.725,-28.8567 502.397,-33.6968 492.738,-28.5054 492.738,-28.5054"/>
</g>
<!-- ndRingCtTransaction -->
<g id="node7" class="node"><title>ndRingCtTransaction</title>
<g id="a_node7_8"><a xlink:href="https://github.com/maidsafe/blst-ringct/blob/master/src/ringct.rs#:~:text=struct%20RingCtTransaction" xlink:title="&lt;TABLE&gt;">
<polygon fill="lightblue" stroke="none" points="624,-87.5 624,-124.5 776,-124.5 776,-87.5 624,-87.5"/>
<polygon fill="none" stroke="black" points="624,-87.5 624,-124.5 776,-124.5 776,-87.5 624,-87.5"/>
<text text-anchor="start" x="635" y="-103.3" font-family="Arial" font-weight="bold" font-size="14.00">RingCtTransaction</text>
<polygon fill="none" stroke="black" points="623,-87 623,-126 777,-126 777,-87 623,-87"/>
</a>
</g>
</g>
<!-- ndOutputProof&#45;&gt;ndRingCtTransaction -->
<g id="edge9" class="edge"><title>ndOutputProof&#45;&gt;ndRingCtTransaction</title>
<path fill="none" stroke="black" d="M812.545,-165.937C794.449,-156.541 773.244,-145.531 754.15,-135.616"/>
<polygon fill="black" stroke="black" points="754.142,-135.612 746.974,-136.397 743.492,-130.082 750.66,-129.297 754.142,-135.612"/>
</g>
<!-- ndRingCtTransaction&#45;&gt;ndRingCtMaterial -->
<g id="edge10" class="edge"><title>ndRingCtTransaction&#45;&gt;ndRingCtMaterial</title>
<path fill="none" stroke="black" d="M622.283,-82.937C584.984,-72.1083 540.301,-59.1356 502.519,-48.1669"/>
<polygon fill="black" stroke="black" points="492.566,-45.2773 503.424,-43.7439 497.368,-46.6714 502.17,-48.0655 502.17,-48.0655 502.17,-48.0655 497.368,-46.6714 500.915,-52.3871 492.566,-45.2773 492.566,-45.2773"/>
</g>
<!-- ndTrueInput&#45;&gt;ndMlsagMaterial -->
<g id="edge11" class="edge"><title>ndTrueInput&#45;&gt;ndMlsagMaterial</title>
<path fill="none" stroke="black" stroke-dasharray="5,2" d="M402.906,-165.937C412.699,-157.407 424.02,-147.547 434.541,-138.384"/>
<polygon fill="black" stroke="black" points="434.862,-138.104 436.759,-131.147 443.911,-130.223 442.013,-137.18 434.862,-138.104"/>
</g>
<!-- ndDecoyInput -->
<g id="node9" class="node"><title>ndDecoyInput</title>
<g id="a_node9_9"><a xlink:href="https://github.com/maidsafe/blst-ringct/blob/master/src/mlsag.rs#:~:text=struct%20DecoyInput" xlink:title="&lt;TABLE&gt;">
<polygon fill="lightblue" stroke="none" points="496,-170.5 496,-207.5 598,-207.5 598,-170.5 496,-170.5"/>
<polygon fill="none" stroke="black" points="496,-170.5 496,-207.5 598,-207.5 598,-170.5 496,-170.5"/>
<text text-anchor="start" x="507" y="-186.3" font-family="Arial" font-weight="bold" font-size="14.00">DecoyInput</text>
<polygon fill="none" stroke="black" points="495,-170 495,-209 599,-209 599,-170 495,-170"/>
</a>
</g>
</g>
<!-- ndDecoyInput&#45;&gt;ndMlsagMaterial -->
<g id="edge12" class="edge"><title>ndDecoyInput&#45;&gt;ndMlsagMaterial</title>
<path fill="none" stroke="black" d="M525.551,-165.937C517.608,-157.581 508.451,-147.949 499.893,-138.946"/>
<polygon fill="black" stroke="black" points="499.869,-138.92 492.836,-137.328 491.601,-130.223 498.634,-131.816 499.869,-138.92"/>
</g>
<!-- ndMlsagMaterial&#45;&gt;ndRingCtMaterial -->
<g id="edge13" class="edge"><title>ndMlsagMaterial&#45;&gt;ndRingCtMaterial</title>
<path fill="none" stroke="black" d="M456.351,-82.937C451.612,-75.1035 446.194,-66.148 441.048,-57.6408"/>
<polygon fill="black" stroke="black" points="440.957,-57.4904 434.429,-54.4271 434.746,-47.2229 441.274,-50.2863 440.957,-57.4904"/>
</g>
<!-- ndMlsagSignature -->
<g id="node11" class="node"><title>ndMlsagSignature</title>
<g id="a_node11_10"><a xlink:href="https://github.com/maidsafe/blst-ringct/blob/master/src/mlsag.rs#:~:text=struct%20MlsagSignature" xlink:title="&lt;TABLE&gt;">
<polygon fill="lightblue" stroke="none" points="634,-170.5 634,-207.5 766,-207.5 766,-170.5 634,-170.5"/>
<polygon fill="none" stroke="black" points="634,-170.5 634,-207.5 766,-207.5 766,-170.5 634,-170.5"/>
<text text-anchor="start" x="645" y="-186.3" font-family="Arial" font-weight="bold" font-size="14.00">MlsagSignature</text>
<polygon fill="none" stroke="black" points="633,-170 633,-209 767,-209 767,-170 633,-170"/>
</a>
</g>
</g>
<!-- ndMlsagSignature&#45;&gt;ndRingCtTransaction -->
<g id="edge14" class="edge"><title>ndMlsagSignature&#45;&gt;ndRingCtTransaction</title>
<path fill="none" stroke="black" d="M700,-165.937C700,-158.626 700,-150.337 700,-142.348"/>
<polygon fill="black" stroke="black" points="700,-142.223 696,-136.223 700,-130.223 704,-136.223 700,-142.223"/>
</g>
<!-- ndMlsagSignature&#45;&gt;ndMlsagMaterial -->
<g id="edge15" class="edge"><title>ndMlsagSignature&#45;&gt;ndMlsagMaterial</title>
<path fill="none" stroke="black" d="M635.932,-165.937C607.267,-155.842 573.31,-143.883 543.606,-133.422"/>
<polygon fill="black" stroke="black" points="534.123,-130.082 545.05,-129.16 538.839,-131.743 543.555,-133.404 543.555,-133.404 543.555,-133.404 538.839,-131.743 542.06,-137.649 534.123,-130.082 534.123,-130.082"/>
</g>
</g>
</svg>
