<?xml version="1.0" encoding="UTF-8" standalone="no"?>
<!DOCTYPE svg PUBLIC "-//W3C//DTD SVG 1.1//EN"
 "http://www.w3.org/Graphics/SVG/1.1/DTD/svg11.dtd">
<!-- Generated by graphviz version 2.38.0 (20140413.2041)
 -->
<!-- Title: ml Pages: 1 -->
<svg width="1345pt" height="662pt"
 viewBox="0.00 0.00 1344.50 662.00" xmlns="http://www.w3.org/2000/svg" xmlns:xlink="http://www.w3.org/1999/xlink">
<g id="graph0" class="graph" transform="scale(1 1) rotate(0) translate(4 658)">
<title>ml</title>
<polygon fill="white" stroke="none" points="-4,4 -4,-658 1340.5,-658 1340.5,4 -4,4"/>
<!-- ndRevealedCommitment -->
<g id="node1" class="node"><title>ndRevealedCommitment</title>
<g id="a_node1_0"><a xlink:href="https://github.com/maidsafe/blst-ringct/blob/master/src/lib.rs#:~:text=struct%20RevealedCommitment" xlink:title="&lt;TABLE&gt;">
<polygon fill="lightblue" stroke="none" points="224.5,-581.5 224.5,-618.5 398.5,-618.5 398.5,-581.5 224.5,-581.5"/>
<polygon fill="none" stroke="black" points="224.5,-581.5 224.5,-618.5 398.5,-618.5 398.5,-581.5 224.5,-581.5"/>
<text text-anchor="start" x="235.5" y="-597.3" font-family="Arial" font-weight="bold" font-size="14.00">RevealedCommitment</text>
<polygon fill="white" stroke="none" points="224.5,-529.5 224.5,-581.5 398.5,-581.5 398.5,-529.5 224.5,-529.5"/>
<polygon fill="none" stroke="black" points="224.5,-529.5 224.5,-581.5 398.5,-581.5 398.5,-529.5 224.5,-529.5"/>
<text text-anchor="start" x="235.5" y="-559.3" font-family="Arial" font-size="14.00">+ value: u64</text>
<text text-anchor="start" x="235.5" y="-544.3" font-family="Arial" font-size="14.00">+ blinding: Scalar</text>
<polygon fill="none" stroke="black" points="223.5,-529 223.5,-620 399.5,-620 399.5,-529 223.5,-529"/>
</a>
</g>
</g>
<!-- ndOutput -->
<g id="node3" class="node"><title>ndOutput</title>
<g id="a_node3_1"><a xlink:href="https://github.com/maidsafe/blst-ringct/blob/master/src/ringct.rs#:~:text=struct%20Output" xlink:title="&lt;TABLE&gt;">
<polygon fill="lightblue" stroke="none" points="9.5,-214 9.5,-251 176.5,-251 176.5,-214 9.5,-214"/>
<polygon fill="none" stroke="black" points="9.5,-214 9.5,-251 176.5,-251 176.5,-214 9.5,-214"/>
<text text-anchor="start" x="69" y="-229.8" font-family="Arial" font-weight="bold" font-size="14.00">Output</text>
<polygon fill="white" stroke="none" points="9.5,-162 9.5,-214 176.5,-214 176.5,-162 9.5,-162"/>
<polygon fill="none" stroke="black" points="9.5,-162 9.5,-214 176.5,-214 176.5,-162 9.5,-162"/>
<text text-anchor="start" x="20.5" y="-191.8" font-family="Arial" font-size="14.00">+ public_key: G1Affine</text>
<text text-anchor="start" x="20.5" y="-176.8" font-family="Arial" font-size="14.00">+ amount: u64</text>
<polygon fill="none" stroke="black" points="8,-161.5 8,-252.5 177,-252.5 177,-161.5 8,-161.5"/>
</a>
</g>
</g>
<!-- ndRevealedCommitment&#45;&gt;ndOutput -->
<g id="edge1" class="edge"><title>ndRevealedCommitment&#45;&gt;ndOutput</title>
<path fill="none" stroke="black" d="M255.208,-524.759C235.485,-505.672 214.33,-482.684 198.5,-459 157.917,-398.283 127.73,-319.509 110.161,-266.541"/>
<polygon fill="black" stroke="black" points="107.028,-256.962 114.413,-265.067 108.582,-261.714 110.136,-266.466 110.136,-266.466 110.136,-266.466 108.582,-261.714 105.859,-267.865 107.028,-256.962 107.028,-256.962"/>
</g>
<!-- ndRingCtMaterial -->
<g id="node4" class="node"><title>ndRingCtMaterial</title>
<g id="a_node4_2"><a xlink:href="https://github.com/maidsafe/blst-ringct/blob/master/src/ringct.rs#:~:text=struct%20RingCtMaterial" xlink:title="&lt;TABLE&gt;">
<polygon fill="lightblue" stroke="none" points="310.5,-56.5 310.5,-93.5 513.5,-93.5 513.5,-56.5 310.5,-56.5"/>
<polygon fill="none" stroke="black" points="310.5,-56.5 310.5,-93.5 513.5,-93.5 513.5,-56.5 310.5,-56.5"/>
<text text-anchor="start" x="360.5" y="-72.3" font-family="Arial" font-weight="bold" font-size="14.00">RingCtMaterial</text>
<polygon fill="white" stroke="none" points="310.5,-4.5 310.5,-56.5 513.5,-56.5 513.5,-4.5 310.5,-4.5"/>
<polygon fill="none" stroke="black" points="310.5,-4.5 310.5,-56.5 513.5,-56.5 513.5,-4.5 310.5,-4.5"/>
<text text-anchor="start" x="321.5" y="-34.3" font-family="Arial" font-size="14.00">&#45; inputs: Vec&lt;MlsagMaterial&gt;</text>
<text text-anchor="start" x="321.5" y="-19.3" font-family="Arial" font-size="14.00">&#45; outputs: Vec&lt;Output&gt;</text>
<polygon fill="none" stroke="black" points="309,-4 309,-95 514,-95 514,-4 309,-4"/>
</a>
</g>
</g>
<!-- ndRevealedCommitment&#45;&gt;ndRingCtMaterial -->
<g id="edge2" class="edge"><title>ndRevealedCommitment&#45;&gt;ndRingCtMaterial</title>
<path fill="none" stroke="black" d="M267,-524.742C252.413,-505.654 238.026,-482.669 230.5,-459 211.108,-398.009 211.583,-376.14 230.5,-315 255.373,-234.608 314.028,-156.89 357.869,-106.744"/>
<polygon fill="black" stroke="black" points="364.497,-99.2423 361.248,-109.716 361.187,-102.989 357.876,-106.736 357.876,-106.736 357.876,-106.736 361.187,-102.989 354.504,-103.757 364.497,-99.2423 364.497,-99.2423"/>
</g>
<!-- ndTrueInput -->
<g id="node7" class="node"><title>ndTrueInput</title>
<g id="a_node7_3"><a xlink:href="https://github.com/maidsafe/blst-ringct/blob/master/src/mlsag.rs#:~:text=struct%20TrueInput" xlink:title="&lt;TABLE&gt;">
<polygon fill="lightblue" stroke="none" points="249.5,-394 249.5,-431 574.5,-431 574.5,-394 249.5,-394"/>
<polygon fill="none" stroke="black" points="249.5,-394 249.5,-431 574.5,-431 574.5,-394 249.5,-394"/>
<text text-anchor="start" x="378" y="-409.8" font-family="Arial" font-weight="bold" font-size="14.00">TrueInput</text>
<polygon fill="white" stroke="none" points="249.5,-342 249.5,-394 574.5,-394 574.5,-342 249.5,-342"/>
<polygon fill="none" stroke="black" points="249.5,-342 249.5,-394 574.5,-394 574.5,-342 249.5,-342"/>
<text text-anchor="start" x="260.5" y="-371.8" font-family="Arial" font-size="14.00">+ secret_key: Scalar</text>
<text text-anchor="start" x="260.5" y="-356.8" font-family="Arial" font-size="14.00">+ revealed_commitment: RevealedCommitment</text>
<polygon fill="none" stroke="black" points="248,-341.5 248,-432.5 575,-432.5 575,-341.5 248,-341.5"/>
</a>
</g>
</g>
<!-- ndRevealedCommitment&#45;&gt;ndTrueInput -->
<g id="edge3" class="edge"><title>ndRevealedCommitment&#45;&gt;ndTrueInput</title>
<path fill="none" stroke="black" d="M337.774,-524.762C350.527,-501.105 365.961,-472.474 379.406,-447.535"/>
<polygon fill="black" stroke="black" points="379.534,-447.297 378.86,-440.117 385.228,-436.734 385.902,-443.914 379.534,-447.297"/>
</g>
<!-- ndMlsagMaterial -->
<g id="node9" class="node"><title>ndMlsagMaterial</title>
<g id="a_node9_4"><a xlink:href="https://github.com/maidsafe/blst-ringct/blob/master/src/mlsag.rs#:~:text=struct%20MlsagMaterial" xlink:title="&lt;TABLE&gt;">
<polygon fill="lightblue" stroke="none" points="490.5,-237 490.5,-274 731.5,-274 731.5,-237 490.5,-237"/>
<polygon fill="none" stroke="black" points="490.5,-237 490.5,-274 731.5,-274 731.5,-237 490.5,-237"/>
<text text-anchor="start" x="562" y="-252.8" font-family="Arial" font-weight="bold" font-size="14.00">MlsagMaterial</text>
<polygon fill="white" stroke="none" points="490.5,-140 490.5,-237 731.5,-237 731.5,-140 490.5,-140"/>
<polygon fill="none" stroke="black" points="490.5,-140 490.5,-237 731.5,-237 731.5,-140 490.5,-140"/>
<text text-anchor="start" x="501.5" y="-214.8" font-family="Arial" font-size="14.00">+ true_input: TrueInput</text>
<text text-anchor="start" x="501.5" y="-199.8" font-family="Arial" font-size="14.00">+ decoy_inputs: Vec&lt;DecoyInput&gt;</text>
<text text-anchor="start" x="501.5" y="-184.8" font-family="Arial" font-size="14.00">+ pi_base: u32</text>
<text text-anchor="start" x="501.5" y="-169.8" font-family="Arial" font-size="14.00">+ alpha: (Scalar, Scalar)</text>
<text text-anchor="start" x="501.5" y="-154.8" font-family="Arial" font-size="14.00">+ r: Vec&lt;(Scalar, Scalar)&gt;</text>
<polygon fill="none" stroke="black" points="489,-139 489,-275 732,-275 732,-139 489,-139"/>
</a>
</g>
</g>
<!-- ndRevealedCommitment&#45;&gt;ndMlsagMaterial -->
<g id="edge4" class="edge"><title>ndRevealedCommitment&#45;&gt;ndMlsagMaterial</title>
<path fill="none" stroke="black" stroke-dasharray="5,2" d="M367.214,-524.811C382.38,-513.587 399.373,-502.698 416.5,-495 488.926,-462.445 539.037,-518.607 591.5,-459 613.117,-434.439 615.946,-352.736 614.57,-289.141"/>
<polygon fill="black" stroke="black" points="614.316,-279.101 619.068,-288.983 614.442,-284.099 614.569,-289.098 614.569,-289.098 614.569,-289.098 614.442,-284.099 610.071,-289.212 614.316,-279.101 614.316,-279.101"/>
</g>
<!-- ndError -->
<g id="node2" class="node"><title>ndError</title>
<g id="a_node2_5"><a xlink:href="https://github.com/maidsafe/blst-ringct/blob/master/src/error.rs#:~:text=enum%20Error" xlink:title="&lt;TABLE&gt;">
<polygon fill="yellow" stroke="none" points="434.5,-611.5 434.5,-648.5 842.5,-648.5 842.5,-611.5 434.5,-611.5"/>
<polygon fill="none" stroke="black" points="434.5,-611.5 434.5,-648.5 842.5,-648.5 842.5,-611.5 434.5,-611.5"/>
<text text-anchor="start" x="620" y="-627.3" font-family="Arial" font-weight="bold" font-size="14.00">Error</text>
<polygon fill="white" stroke="none" points="434.5,-499.5 434.5,-611.5 842.5,-611.5 842.5,-499.5 434.5,-499.5"/>
<polygon fill="none" stroke="black" points="434.5,-499.5 434.5,-611.5 842.5,-611.5 842.5,-499.5 434.5,-499.5"/>
<text text-anchor="start" x="445.5" y="-589.3" font-family="Arial" font-size="14.00">ExpectedAPublicCommitmentsForEachRingEntry</text>
<text text-anchor="start" x="445.5" y="-574.3" font-family="Arial" font-size="14.00">InvalidHiddenCommitmentInRing</text>
<text text-anchor="start" x="445.5" y="-559.3" font-family="Arial" font-size="14.00">InputPseudoCommitmentsDoNotSumToOutputCommitments</text>
<text text-anchor="start" x="445.5" y="-544.3" font-family="Arial" font-size="14.00">InvalidRingSignature</text>
<text text-anchor="start" x="445.5" y="-529.3" font-family="Arial" font-size="14.00">KeyImageNotOnCurve</text>
<text text-anchor="start" x="445.5" y="-514.3" font-family="Arial" font-size="14.00">BulletProofs(bulletproofs::ProofError)</text>
<polygon fill="none" stroke="black" points="433.5,-499 433.5,-650 843.5,-650 843.5,-499 433.5,-499"/>
</a>
</g>
</g>
<!-- ndOutput&#45;&gt;ndRingCtMaterial -->
<g id="edge5" class="edge"><title>ndOutput&#45;&gt;ndRingCtMaterial</title>
<path fill="none" stroke="black" d="M160.475,-157.408C172.851,-149.451 185.854,-141.647 198.5,-135 227.15,-119.942 259.102,-105.92 289.364,-93.7973"/>
<polygon fill="black" stroke="black" points="289.71,-93.6603 293.818,-87.7336 300.869,-89.2459 296.761,-95.1726 289.71,-93.6603"/>
</g>
<!-- ndOutputProof -->
<g id="node5" class="node"><title>ndOutputProof</title>
<g id="a_node5_6"><a xlink:href="https://github.com/maidsafe/blst-ringct/blob/master/src/ringct.rs#:~:text=struct%20OutputProof" xlink:title="&lt;TABLE&gt;">
<polygon fill="lightblue" stroke="none" points="1133.5,-394 1133.5,-431 1327.5,-431 1327.5,-394 1133.5,-394"/>
<polygon fill="none" stroke="black" points="1133.5,-394 1133.5,-431 1327.5,-431 1327.5,-394 1133.5,-394"/>
<text text-anchor="start" x="1187.5" y="-409.8" font-family="Arial" font-weight="bold" font-size="14.00">OutputProof</text>
<polygon fill="white" stroke="none" points="1133.5,-342 1133.5,-394 1327.5,-394 1327.5,-342 1133.5,-342"/>
<polygon fill="none" stroke="black" points="1133.5,-342 1133.5,-394 1327.5,-394 1327.5,-342 1133.5,-342"/>
<text text-anchor="start" x="1144.5" y="-371.8" font-family="Arial" font-size="14.00">&#45; range_proof: RangeProof</text>
<text text-anchor="start" x="1144.5" y="-356.8" font-family="Arial" font-size="14.00">&#45; commitment: G1Affine</text>
<polygon fill="none" stroke="black" points="1132.5,-341.5 1132.5,-432.5 1328.5,-432.5 1328.5,-341.5 1132.5,-341.5"/>
</a>
</g>
</g>
<!-- ndRingCtTransaction -->
<g id="node6" class="node"><title>ndRingCtTransaction</title>
<g id="a_node6_7"><a xlink:href="https://github.com/maidsafe/blst-ringct/blob/master/src/ringct.rs#:~:text=struct%20RingCtTransaction" xlink:title="&lt;TABLE&gt;">
<polygon fill="lightblue" stroke="none" points="865.5,-214 865.5,-251 1092.5,-251 1092.5,-214 865.5,-214"/>
<polygon fill="none" stroke="black" points="865.5,-214 865.5,-251 1092.5,-251 1092.5,-214 865.5,-214"/>
<text text-anchor="start" x="914" y="-229.8" font-family="Arial" font-weight="bold" font-size="14.00">RingCtTransaction</text>
<polygon fill="white" stroke="none" points="865.5,-162 865.5,-214 1092.5,-214 1092.5,-162 865.5,-162"/>
<polygon fill="none" stroke="black" points="865.5,-162 865.5,-214 1092.5,-214 1092.5,-162 865.5,-162"/>
<text text-anchor="start" x="876.5" y="-191.8" font-family="Arial" font-size="14.00">+ mlsags: Vec&lt;MlsagSignature&gt;</text>
<text text-anchor="start" x="876.5" y="-176.8" font-family="Arial" font-size="14.00">+ outputs: Vec&lt;OutputProof&gt;</text>
<polygon fill="none" stroke="black" points="864,-161.5 864,-252.5 1093,-252.5 1093,-161.5 864,-161.5"/>
</a>
</g>
</g>
<!-- ndOutputProof&#45;&gt;ndRingCtTransaction -->
<g id="edge6" class="edge"><title>ndOutputProof&#45;&gt;ndRingCtTransaction</title>
<path fill="none" stroke="black" d="M1161.64,-337.361C1129.42,-314.599 1090.87,-287.37 1057.46,-263.777"/>
<polygon fill="black" stroke="black" points="1057.08,-263.504 1049.87,-263.309 1047.28,-256.58 1054.49,-256.775 1057.08,-263.504"/>
</g>
<!-- ndRingCtTransaction&#45;&gt;ndRingCtMaterial -->
<g id="edge7" class="edge"><title>ndRingCtTransaction&#45;&gt;ndRingCtMaterial</title>
<path fill="none" stroke="black" d="M855.915,-166.822C821.295,-156.122 783.515,-144.787 748.5,-135 677.083,-115.039 596.54,-94.762 532.106,-79.0763"/>
<polygon fill="black" stroke="black" points="522.314,-76.6976 533.093,-74.6854 527.172,-77.8779 532.031,-79.0582 532.031,-79.0582 532.031,-79.0582 527.172,-77.8779 530.969,-83.431 522.314,-76.6976 522.314,-76.6976"/>
</g>
<!-- ndTrueInput&#45;&gt;ndMlsagMaterial -->
<g id="edge8" class="edge"><title>ndTrueInput&#45;&gt;ndMlsagMaterial</title>
<path fill="none" stroke="black" stroke-dasharray="5,2" d="M465.878,-337.361C483.164,-321.899 502.755,-304.375 521.811,-287.33"/>
<polygon fill="black" stroke="black" points="521.869,-287.278 523.674,-280.297 530.813,-279.278 529.008,-286.259 521.869,-287.278"/>
</g>
<!-- ndDecoyInput -->
<g id="node8" class="node"><title>ndDecoyInput</title>
<g id="a_node8_8"><a xlink:href="https://github.com/maidsafe/blst-ringct/blob/master/src/mlsag.rs#:~:text=struct%20DecoyInput" xlink:title="&lt;TABLE&gt;">
<polygon fill="lightblue" stroke="none" points="647.5,-394 647.5,-431 824.5,-431 824.5,-394 647.5,-394"/>
<polygon fill="none" stroke="black" points="647.5,-394 647.5,-431 824.5,-431 824.5,-394 647.5,-394"/>
<text text-anchor="start" x="696" y="-409.8" font-family="Arial" font-weight="bold" font-size="14.00">DecoyInput</text>
<polygon fill="white" stroke="none" points="647.5,-342 647.5,-394 824.5,-394 824.5,-342 647.5,-342"/>
<polygon fill="none" stroke="black" points="647.5,-342 647.5,-394 824.5,-394 824.5,-342 647.5,-342"/>
<text text-anchor="start" x="658.5" y="-371.8" font-family="Arial" font-size="14.00">+ public_key: G1Affine</text>
<text text-anchor="start" x="658.5" y="-356.8" font-family="Arial" font-size="14.00">+ commitment: G1Affine</text>
<polygon fill="none" stroke="black" points="646,-341.5 646,-432.5 825,-432.5 825,-341.5 646,-341.5"/>
</a>
</g>
</g>
<!-- ndDecoyInput&#45;&gt;ndMlsagMaterial -->
<g id="edge9" class="edge"><title>ndDecoyInput&#45;&gt;ndMlsagMaterial</title>
<path fill="none" stroke="black" d="M701.343,-337.361C690.927,-322.528 679.179,-305.799 667.673,-289.415"/>
<polygon fill="black" stroke="black" points="667.451,-289.098 660.729,-286.487 660.555,-279.278 667.276,-281.889 667.451,-289.098"/>
</g>
<!-- ndMlsagMaterial&#45;&gt;ndRingCtMaterial -->
<g id="edge10" class="edge"><title>ndMlsagMaterial&#45;&gt;ndRingCtMaterial</title>
<path fill="none" stroke="black" d="M519.445,-134.849C507.371,-125.415 495.131,-115.85 483.442,-106.716"/>
<polygon fill="black" stroke="black" points="483.224,-106.545 476.033,-106.003 473.768,-99.1568 480.959,-99.6993 483.224,-106.545"/>
</g>
<!-- ndMlsagSignature -->
<g id="node10" class="node"><title>ndMlsagSignature</title>
<g id="a_node10_9"><a xlink:href="https://github.com/maidsafe/blst-ringct/blob/master/src/mlsag.rs#:~:text=struct%20MlsagSignature" xlink:title="&lt;TABLE&gt;">
<polygon fill="lightblue" stroke="none" points="860.5,-417 860.5,-454 1097.5,-454 1097.5,-417 860.5,-417"/>
<polygon fill="none" stroke="black" points="860.5,-417 860.5,-454 1097.5,-454 1097.5,-417 860.5,-417"/>
<text text-anchor="start" x="924" y="-432.8" font-family="Arial" font-weight="bold" font-size="14.00">MlsagSignature</text>
<polygon fill="white" stroke="none" points="860.5,-320 860.5,-417 1097.5,-417 1097.5,-320 860.5,-320"/>
<polygon fill="none" stroke="black" points="860.5,-320 860.5,-417 1097.5,-417 1097.5,-320 860.5,-320"/>
<text text-anchor="start" x="871.5" y="-394.8" font-family="Arial" font-size="14.00">+ c0: Scalar</text>
<text text-anchor="start" x="871.5" y="-379.8" font-family="Arial" font-size="14.00">+ r: Vec&lt;(Scalar, Scalar)&gt;</text>
<text text-anchor="start" x="871.5" y="-364.8" font-family="Arial" font-size="14.00">+ key_image: G1Affine</text>
<text text-anchor="start" x="871.5" y="-349.8" font-family="Arial" font-size="14.00">+ ring: Vec&lt;(G1Affine, G1Affine)&gt;</text>
<text text-anchor="start" x="871.5" y="-334.8" font-family="Arial" font-size="14.00">+ pseudo_commitment: G1Affine</text>
<polygon fill="none" stroke="black" points="859,-319 859,-455 1098,-455 1098,-319 859,-319"/>
</a>
</g>
</g>
<!-- ndMlsagSignature&#45;&gt;ndRingCtTransaction -->
<g id="edge11" class="edge"><title>ndMlsagSignature&#45;&gt;ndRingCtTransaction</title>
<path fill="none" stroke="black" d="M978.5,-314.882C978.5,-299.6 978.5,-283.585 978.5,-268.74"/>
<polygon fill="black" stroke="black" points="978.5,-268.587 974.5,-262.587 978.5,-256.587 982.5,-262.587 978.5,-268.587"/>
</g>
<!-- ndMlsagSignature&#45;&gt;ndMlsagMaterial -->
<g id="edge12" class="edge"><title>ndMlsagSignature&#45;&gt;ndMlsagMaterial</title>
<path fill="none" stroke="black" d="M850.976,-319.676C847.789,-318.094 844.627,-316.533 841.5,-315 811.921,-300.494 779.983,-285.364 749.568,-271.203"/>
<polygon fill="black" stroke="black" points="740.182,-266.841 751.147,-266.975 744.716,-268.948 749.25,-271.055 749.25,-271.055 749.25,-271.055 744.716,-268.948 747.354,-275.136 740.182,-266.841 740.182,-266.841"/>
</g>
</g>
</svg>
