<?xml version="1.0" encoding="UTF-8" standalone="no"?>
<!DOCTYPE svg PUBLIC "-//W3C//DTD SVG 1.1//EN"
 "http://www.w3.org/Graphics/SVG/1.1/DTD/svg11.dtd">
<!-- Generated by graphviz version 2.38.0 (20140413.2041)
 -->
<!-- Title: ml Pages: 1 -->
<svg width="2262pt" height="930pt"
 viewBox="0.00 0.00 2262.00 930.00" xmlns="http://www.w3.org/2000/svg" xmlns:xlink="http://www.w3.org/1999/xlink">
<g id="graph0" class="graph" transform="scale(1 1) rotate(0) translate(4 926)">
<title>ml</title>
<polygon fill="white" stroke="none" points="-4,4 -4,-926 2258,-926 2258,4 -4,4"/>
<!-- ndRevealedCommitment -->
<g id="node1" class="node"><title>ndRevealedCommitment</title>
<g id="a_node1_0"><a xlink:href="https://github.com/maidsafe/blst-ringct/blob/master/src/lib.rs#:~:text=struct%20RevealedCommitment" xlink:title="&lt;TABLE&gt;">
<polygon fill="lightblue" stroke="none" points="452,-880 452,-917 934,-917 934,-880 452,-880"/>
<polygon fill="none" stroke="black" points="452,-880 452,-917 934,-917 934,-880 452,-880"/>
<text text-anchor="start" x="617" y="-895.8" font-family="Arial" font-weight="bold" font-size="14.00">RevealedCommitment</text>
<polygon fill="white" stroke="none" points="452,-828 452,-880 934,-880 934,-828 452,-828"/>
<polygon fill="none" stroke="black" points="452,-828 452,-880 934,-880 934,-828 452,-828"/>
<text text-anchor="start" x="463" y="-857.8" font-family="Arial" font-size="14.00">+ value: u64</text>
<text text-anchor="start" x="463" y="-842.8" font-family="Arial" font-size="14.00">+ blinding: Scalar</text>
<polygon fill="white" stroke="none" points="452,-731 452,-828 934,-828 934,-731 452,-731"/>
<polygon fill="none" stroke="black" points="452,-731 452,-828 934,-828 934,-731 452,-731"/>
<text text-anchor="start" x="463" y="-805.8" font-family="Arial" font-size="14.00">&#45; to_bytes(&amp;self) &#45;&gt; Vec&lt;u8&gt;</text>
<text text-anchor="start" x="463" y="-790.8" font-family="Arial" font-size="14.00">&#45; from_value(value: u64, mut rng: impl rand_core::RngCore) &#45;&gt; Self</text>
<text text-anchor="start" x="463" y="-775.8" font-family="Arial" font-size="14.00">&#45; commit(&amp;self, pc_gens: &amp;bulletproofs::PedersenGens) &#45;&gt; G1Projective</text>
<text text-anchor="start" x="463" y="-760.8" font-family="Arial" font-size="14.00">&#45; value(&amp;self) &#45;&gt; u64</text>
<text text-anchor="start" x="463" y="-745.8" font-family="Arial" font-size="14.00">&#45; blinding(&amp;self) &#45;&gt; Scalar</text>
<polygon fill="none" stroke="black" points="451,-730 451,-918 935,-918 935,-730 451,-730"/>
</a>
</g>
</g>
<!-- ndOutput -->
<g id="node3" class="node"><title>ndOutput</title>
<g id="a_node3_1"><a xlink:href="https://github.com/maidsafe/blst-ringct/blob/master/src/ringct.rs#:~:text=struct%20Output" xlink:title="&lt;TABLE&gt;">
<polygon fill="lightblue" stroke="none" points="9,-341 9,-378 501,-378 501,-341 9,-341"/>
<polygon fill="none" stroke="black" points="9,-341 9,-378 501,-378 501,-341 9,-341"/>
<text text-anchor="start" x="231" y="-356.8" font-family="Arial" font-weight="bold" font-size="14.00">Output</text>
<polygon fill="white" stroke="none" points="9,-289 9,-341 501,-341 501,-289 9,-289"/>
<polygon fill="none" stroke="black" points="9,-289 9,-341 501,-341 501,-289 9,-289"/>
<text text-anchor="start" x="20" y="-318.8" font-family="Arial" font-size="14.00">+ public_key: G1Affine</text>
<text text-anchor="start" x="20" y="-303.8" font-family="Arial" font-size="14.00">+ amount: u64</text>
<polygon fill="white" stroke="none" points="9,-222 9,-289 501,-289 501,-222 9,-222"/>
<polygon fill="none" stroke="black" points="9,-222 9,-289 501,-289 501,-222 9,-222"/>
<text text-anchor="start" x="20" y="-266.8" font-family="Arial" font-size="14.00">&#45; public_key(&amp;self) &#45;&gt; G1Affine</text>
<text text-anchor="start" x="20" y="-251.8" font-family="Arial" font-size="14.00">&#45; amount(&amp;self) &#45;&gt; u64</text>
<text text-anchor="start" x="20" y="-236.8" font-family="Arial" font-size="14.00">&#45; random_commitment(&amp;self, rng: impl RngCore) &#45;&gt; RevealedCommitment</text>
<polygon fill="none" stroke="black" points="8,-221 8,-379 502,-379 502,-221 8,-221"/>
</a>
</g>
</g>
<!-- ndRevealedCommitment&#45;&gt;ndOutput -->
<g id="edge1" class="edge"><title>ndRevealedCommitment&#45;&gt;ndOutput</title>
<path fill="none" stroke="black" d="M561.283,-725.832C548.192,-714.289 535.508,-702.241 524,-690 436.955,-597.408 356.837,-474.588 307.087,-391.935"/>
<polygon fill="black" stroke="black" points="301.92,-383.314 310.921,-389.578 304.491,-387.603 307.061,-391.891 307.061,-391.891 307.061,-391.891 304.491,-387.603 303.201,-394.205 301.92,-383.314 301.92,-383.314"/>
</g>
<!-- ndRingCtMaterial -->
<g id="node4" class="node"><title>ndRingCtMaterial</title>
<g id="a_node4_2"><a xlink:href="https://github.com/maidsafe/blst-ringct/blob/master/src/ringct.rs#:~:text=struct%20RingCtMaterial" xlink:title="&lt;TABLE&gt;">
<polygon fill="lightblue" stroke="none" points="399,-94 399,-131 1218,-131 1218,-94 399,-94"/>
<polygon fill="none" stroke="black" points="399,-94 399,-131 1218,-131 1218,-94 399,-94"/>
<text text-anchor="start" x="757" y="-109.8" font-family="Arial" font-weight="bold" font-size="14.00">RingCtMaterial</text>
<polygon fill="white" stroke="none" points="399,-42 399,-94 1218,-94 1218,-42 399,-42"/>
<polygon fill="none" stroke="black" points="399,-42 399,-94 1218,-94 1218,-42 399,-42"/>
<text text-anchor="start" x="410" y="-71.8" font-family="Arial" font-size="14.00">&#45; inputs: Vec&lt;MlsagMaterial&gt;</text>
<text text-anchor="start" x="410" y="-56.8" font-family="Arial" font-size="14.00">&#45; outputs: Vec&lt;Output&gt;</text>
<polygon fill="white" stroke="none" points="399,-5 399,-42 1218,-42 1218,-5 399,-5"/>
<polygon fill="none" stroke="black" points="399,-5 399,-42 1218,-42 1218,-5 399,-5"/>
<text text-anchor="start" x="410" y="-19.8" font-family="Arial" font-size="14.00">&#45; sign(&amp;self, pc_gens: &amp;PedersenGens, mut rng: impl RngCore) &#45;&gt; Result&lt;(RingCtTransaction, Vec&lt;RevealedCommitment&gt;)&gt;</text>
<polygon fill="none" stroke="black" points="397.5,-4 397.5,-132 1218.5,-132 1218.5,-4 397.5,-4"/>
</a>
</g>
</g>
<!-- ndRevealedCommitment&#45;&gt;ndRingCtMaterial -->
<g id="edge2" class="edge"><title>ndRevealedCommitment&#45;&gt;ndRingCtMaterial</title>
<path fill="none" stroke="black" d="M577.758,-725.959C569.481,-714.665 562.315,-702.633 557,-690 518.045,-597.417 542.664,-563.416 557,-464 576.309,-330.096 561.17,-279.736 643,-172 650.975,-161.5 660.357,-151.806 670.529,-142.918"/>
<polygon fill="black" stroke="black" points="678.452,-136.278 673.678,-146.15 674.62,-139.49 670.788,-142.701 670.788,-142.701 670.788,-142.701 674.62,-139.49 667.897,-139.252 678.452,-136.278 678.452,-136.278"/>
</g>
<!-- ndTrueInput -->
<g id="node7" class="node"><title>ndTrueInput</title>
<g id="a_node7_3"><a xlink:href="https://github.com/maidsafe/blst-ringct/blob/master/src/mlsag.rs#:~:text=struct%20TrueInput" xlink:title="&lt;TABLE&gt;">
<polygon fill="lightblue" stroke="none" points="575,-625 575,-662 1123,-662 1123,-625 575,-625"/>
<polygon fill="none" stroke="black" points="575,-625 575,-662 1123,-662 1123,-625 575,-625"/>
<text text-anchor="start" x="815" y="-640.8" font-family="Arial" font-weight="bold" font-size="14.00">TrueInput</text>
<polygon fill="white" stroke="none" points="575,-573 575,-625 1123,-625 1123,-573 575,-573"/>
<polygon fill="none" stroke="black" points="575,-573 575,-625 1123,-625 1123,-573 575,-573"/>
<text text-anchor="start" x="586" y="-602.8" font-family="Arial" font-size="14.00">+ secret_key: Scalar</text>
<text text-anchor="start" x="586" y="-587.8" font-family="Arial" font-size="14.00">+ revealed_commitment: RevealedCommitment</text>
<polygon fill="white" stroke="none" points="575,-491 575,-573 1123,-573 1123,-491 575,-491"/>
<polygon fill="none" stroke="black" points="575,-491 575,-573 1123,-573 1123,-491 575,-491"/>
<text text-anchor="start" x="586" y="-550.8" font-family="Arial" font-size="14.00">&#45; public_key(&amp;self) &#45;&gt; G1Projective</text>
<text text-anchor="start" x="586" y="-535.8" font-family="Arial" font-size="14.00">&#45; revealed_commitment(&amp;self) &#45;&gt; &amp;RevealedCommitment</text>
<text text-anchor="start" x="586" y="-520.8" font-family="Arial" font-size="14.00">&#45; key_image(&amp;self) &#45;&gt; G1Projective</text>
<text text-anchor="start" x="586" y="-505.8" font-family="Arial" font-size="14.00">&#45; random_pseudo_commitment(&amp;self, rng: impl RngCore) &#45;&gt; RevealedCommitment</text>
<polygon fill="none" stroke="black" points="574,-490.5 574,-663.5 1124,-663.5 1124,-490.5 574,-490.5"/>
</a>
</g>
</g>
<!-- ndRevealedCommitment&#45;&gt;ndTrueInput -->
<g id="edge3" class="edge"><title>ndRevealedCommitment&#45;&gt;ndTrueInput</title>
<path fill="none" stroke="black" d="M754.879,-725.818C764.928,-710.036 775.35,-693.669 785.438,-677.826"/>
<polygon fill="black" stroke="black" points="785.566,-677.624 785.415,-670.414 792.011,-667.501 792.163,-674.711 785.566,-677.624"/>
</g>
<!-- ndMlsagMaterial -->
<g id="node9" class="node"><title>ndMlsagMaterial</title>
<g id="a_node9_4"><a xlink:href="https://github.com/maidsafe/blst-ringct/blob/master/src/mlsag.rs#:~:text=struct%20MlsagMaterial" xlink:title="&lt;TABLE&gt;">
<polygon fill="lightblue" stroke="none" points="662,-386 662,-423 1495,-423 1495,-386 662,-386"/>
<polygon fill="none" stroke="black" points="662,-386 662,-423 1495,-423 1495,-386 662,-386"/>
<text text-anchor="start" x="1029.5" y="-401.8" font-family="Arial" font-weight="bold" font-size="14.00">MlsagMaterial</text>
<polygon fill="white" stroke="none" points="662,-289 662,-386 1495,-386 1495,-289 662,-289"/>
<polygon fill="none" stroke="black" points="662,-289 662,-386 1495,-386 1495,-289 662,-289"/>
<text text-anchor="start" x="673" y="-363.8" font-family="Arial" font-size="14.00">+ true_input: TrueInput</text>
<text text-anchor="start" x="673" y="-348.8" font-family="Arial" font-size="14.00">+ decoy_inputs: Vec&lt;DecoyInput&gt;</text>
<text text-anchor="start" x="673" y="-333.8" font-family="Arial" font-size="14.00">+ pi_base: u32</text>
<text text-anchor="start" x="673" y="-318.8" font-family="Arial" font-size="14.00">+ alpha: (Scalar, Scalar)</text>
<text text-anchor="start" x="673" y="-303.8" font-family="Arial" font-size="14.00">+ r: Vec&lt;(Scalar, Scalar)&gt;</text>
<polygon fill="white" stroke="none" points="662,-177 662,-289 1495,-289 1495,-177 662,-177"/>
<polygon fill="none" stroke="black" points="662,-177 662,-289 1495,-289 1495,-177 662,-177"/>
<text text-anchor="start" x="673" y="-266.8" font-family="Arial" font-size="14.00">&#45; new(true_input: TrueInput, decoy_inputs: Vec&lt;DecoyInput&gt;, mut rng: impl RngCore) &#45;&gt; Self</text>
<text text-anchor="start" x="673" y="-251.8" font-family="Arial" font-size="14.00">&#45; count_inputs(&amp;self) &#45;&gt; usize</text>
<text text-anchor="start" x="673" y="-236.8" font-family="Arial" font-size="14.00">&#45; pi(&amp;self) &#45;&gt; usize</text>
<text text-anchor="start" x="673" y="-221.8" font-family="Arial" font-size="14.00">&#45; public_keys(&amp;self) &#45;&gt; Vec&lt;G1Affine&gt;</text>
<text text-anchor="start" x="673" y="-206.8" font-family="Arial" font-size="14.00">&#45; commitments(&amp;self, pc_gens: &amp;PedersenGens) &#45;&gt; Vec&lt;G1Affine&gt;</text>
<text text-anchor="start" x="673" y="-191.8" font-family="Arial" font-size="14.00">&#45; sign(&amp;self, msg: &amp;[u8], revealed_pseudo_commitment: &amp;RevealedCommitment, pc_gens: &amp;PedersenGens) &#45;&gt; MlsagSignature</text>
<polygon fill="none" stroke="black" points="660.5,-176 660.5,-424 1495.5,-424 1495.5,-176 660.5,-176"/>
</a>
</g>
</g>
<!-- ndRevealedCommitment&#45;&gt;ndMlsagMaterial -->
<g id="edge4" class="edge"><title>ndRevealedCommitment&#45;&gt;ndMlsagMaterial</title>
<path fill="none" stroke="black" stroke-dasharray="5,2" d="M943.294,-728.483C946.208,-727.638 949.11,-726.81 952,-726 1034.34,-702.921 1086.48,-755.879 1141,-690 1198.54,-620.469 1180.05,-519.305 1148.61,-437.571"/>
<polygon fill="black" stroke="black" points="1144.92,-428.21 1152.77,-435.864 1146.75,-432.862 1148.59,-437.514 1148.59,-437.514 1148.59,-437.514 1146.75,-432.862 1144.4,-439.164 1144.92,-428.21 1144.92,-428.21"/>
</g>
<!-- ndError -->
<g id="node2" class="node"><title>ndError</title>
<g id="a_node2_5"><a xlink:href="https://github.com/maidsafe/blst-ringct/blob/master/src/error.rs#:~:text=enum%20Error" xlink:title="&lt;TABLE&gt;">
<polygon fill="yellow" stroke="none" points="970,-861 970,-898 1378,-898 1378,-861 970,-861"/>
<polygon fill="none" stroke="black" points="970,-861 970,-898 1378,-898 1378,-861 970,-861"/>
<text text-anchor="start" x="1155.5" y="-876.8" font-family="Arial" font-weight="bold" font-size="14.00">Error</text>
<polygon fill="white" stroke="none" points="970,-749 970,-861 1378,-861 1378,-749 970,-749"/>
<polygon fill="none" stroke="black" points="970,-749 970,-861 1378,-861 1378,-749 970,-749"/>
<text text-anchor="start" x="981" y="-838.8" font-family="Arial" font-size="14.00">ExpectedAPublicCommitmentsForEachRingEntry</text>
<text text-anchor="start" x="981" y="-823.8" font-family="Arial" font-size="14.00">InvalidHiddenCommitmentInRing</text>
<text text-anchor="start" x="981" y="-808.8" font-family="Arial" font-size="14.00">InputPseudoCommitmentsDoNotSumToOutputCommitments</text>
<text text-anchor="start" x="981" y="-793.8" font-family="Arial" font-size="14.00">InvalidRingSignature</text>
<text text-anchor="start" x="981" y="-778.8" font-family="Arial" font-size="14.00">KeyImageNotOnCurve</text>
<text text-anchor="start" x="981" y="-763.8" font-family="Arial" font-size="14.00">BulletProofs(bulletproofs::ProofError)</text>
<polygon fill="none" stroke="black" points="969,-748.5 969,-899.5 1379,-899.5 1379,-748.5 969,-748.5"/>
</a>
</g>
</g>
<!-- ndOutput&#45;&gt;ndRingCtMaterial -->
<g id="edge5" class="edge"><title>ndOutput&#45;&gt;ndRingCtMaterial</title>
<path fill="none" stroke="black" d="M422.527,-216.964C455.894,-201.461 490.864,-185.796 524,-172 549.632,-161.329 576.807,-150.666 603.792,-140.465"/>
<polygon fill="black" stroke="black" points="604.107,-140.347 608.316,-134.491 615.34,-136.123 611.131,-141.979 604.107,-140.347"/>
</g>
<!-- ndOutputProof -->
<g id="node5" class="node"><title>ndOutputProof</title>
<g id="a_node5_6"><a xlink:href="https://github.com/maidsafe/blst-ringct/blob/master/src/ringct.rs#:~:text=struct%20OutputProof" xlink:title="&lt;TABLE&gt;">
<polygon fill="lightblue" stroke="none" points="1987,-618 1987,-655 2245,-655 2245,-618 1987,-618"/>
<polygon fill="none" stroke="black" points="1987,-618 1987,-655 2245,-655 2245,-618 1987,-618"/>
<text text-anchor="start" x="2073" y="-633.8" font-family="Arial" font-weight="bold" font-size="14.00">OutputProof</text>
<polygon fill="white" stroke="none" points="1987,-566 1987,-618 2245,-618 2245,-566 1987,-566"/>
<polygon fill="none" stroke="black" points="1987,-566 1987,-618 2245,-618 2245,-566 1987,-566"/>
<text text-anchor="start" x="1998" y="-595.8" font-family="Arial" font-size="14.00">&#45; range_proof: RangeProof</text>
<text text-anchor="start" x="1998" y="-580.8" font-family="Arial" font-size="14.00">&#45; commitment: G1Affine</text>
<polygon fill="white" stroke="none" points="1987,-499 1987,-566 2245,-566 2245,-499 1987,-499"/>
<polygon fill="none" stroke="black" points="1987,-499 1987,-566 2245,-566 2245,-499 1987,-499"/>
<text text-anchor="start" x="1998" y="-543.8" font-family="Arial" font-size="14.00">&#45; to_bytes(&amp;self) &#45;&gt; Vec&lt;u8&gt;</text>
<text text-anchor="start" x="1998" y="-528.8" font-family="Arial" font-size="14.00">&#45; range_proof(&amp;self) &#45;&gt; &amp;RangeProof</text>
<text text-anchor="start" x="1998" y="-513.8" font-family="Arial" font-size="14.00">&#45; commitment(&amp;self) &#45;&gt; G1Affine</text>
<polygon fill="none" stroke="black" points="1986,-498 1986,-656 2246,-656 2246,-498 1986,-498"/>
</a>
</g>
</g>
<!-- ndRingCtTransaction -->
<g id="node6" class="node"><title>ndRingCtTransaction</title>
<g id="a_node6_7"><a xlink:href="https://github.com/maidsafe/blst-ringct/blob/master/src/ringct.rs#:~:text=struct%20RingCtTransaction" xlink:title="&lt;TABLE&gt;">
<polygon fill="lightblue" stroke="none" points="1531,-348 1531,-385 2046,-385 2046,-348 1531,-348"/>
<polygon fill="none" stroke="black" points="1531,-348 1531,-385 2046,-385 2046,-348 1531,-348"/>
<text text-anchor="start" x="1723.5" y="-363.8" font-family="Arial" font-weight="bold" font-size="14.00">RingCtTransaction</text>
<polygon fill="white" stroke="none" points="1531,-296 1531,-348 2046,-348 2046,-296 1531,-296"/>
<polygon fill="none" stroke="black" points="1531,-296 1531,-348 2046,-348 2046,-296 1531,-296"/>
<text text-anchor="start" x="1542" y="-325.8" font-family="Arial" font-size="14.00">+ mlsags: Vec&lt;MlsagSignature&gt;</text>
<text text-anchor="start" x="1542" y="-310.8" font-family="Arial" font-size="14.00">+ outputs: Vec&lt;OutputProof&gt;</text>
<polygon fill="white" stroke="none" points="1531,-214 1531,-296 2046,-296 2046,-214 1531,-214"/>
<polygon fill="none" stroke="black" points="1531,-214 1531,-296 2046,-296 2046,-214 1531,-214"/>
<text text-anchor="start" x="1542" y="-273.8" font-family="Arial" font-size="14.00">&#45; to_bytes(&amp;self) &#45;&gt; Vec&lt;u8&gt;</text>
<text text-anchor="start" x="1542" y="-258.8" font-family="Arial" font-size="14.00">&#45; hash(&amp;self) &#45;&gt; [u8; 32]</text>
<text text-anchor="start" x="1542" y="-243.8" font-family="Arial" font-size="14.00">&#45; gen_message(&amp;self) &#45;&gt; Vec&lt;u8&gt;</text>
<text text-anchor="start" x="1542" y="-228.8" font-family="Arial" font-size="14.00">&#45; verify(&amp;self, public_commitments_per_ring: &amp;[Vec&lt;G1Affine&gt;]) &#45;&gt; Result&lt;()&gt;</text>
<polygon fill="none" stroke="black" points="1529.5,-213.5 1529.5,-386.5 2046.5,-386.5 2046.5,-213.5 1529.5,-213.5"/>
</a>
</g>
</g>
<!-- ndOutputProof&#45;&gt;ndRingCtTransaction -->
<g id="edge6" class="edge"><title>ndOutputProof&#45;&gt;ndRingCtTransaction</title>
<path fill="none" stroke="black" d="M2018.03,-493.863C1982.27,-463.88 1941.48,-429.681 1904.28,-398.49"/>
<polygon fill="black" stroke="black" points="1904.1,-398.339 1896.93,-397.55 1894.9,-390.629 1902.07,-391.419 1904.1,-398.339"/>
</g>
<!-- ndRingCtTransaction&#45;&gt;ndRingCtMaterial -->
<g id="edge7" class="edge"><title>ndRingCtTransaction&#45;&gt;ndRingCtMaterial</title>
<path fill="none" stroke="black" d="M1613.1,-209.488C1580.15,-195.232 1545.5,-181.934 1512,-172 1424.45,-146.038 1328.75,-126.481 1236.91,-111.794"/>
<polygon fill="black" stroke="black" points="1226.89,-110.208 1237.47,-107.327 1231.83,-110.99 1236.76,-111.771 1236.76,-111.771 1236.76,-111.771 1231.83,-110.99 1236.06,-116.216 1226.89,-110.208 1226.89,-110.208"/>
</g>
<!-- ndTrueInput&#45;&gt;ndMlsagMaterial -->
<g id="edge8" class="edge"><title>ndTrueInput&#45;&gt;ndMlsagMaterial</title>
<path fill="none" stroke="black" stroke-dasharray="5,2" d="M923.666,-486.335C936.541,-470.874 950.183,-454.492 963.819,-438.116"/>
<polygon fill="black" stroke="black" points="964.163,-437.704 964.928,-430.534 971.842,-428.483 971.076,-435.653 964.163,-437.704"/>
</g>
<!-- ndDecoyInput -->
<g id="node8" class="node"><title>ndDecoyInput</title>
<g id="a_node8_8"><a xlink:href="https://github.com/maidsafe/blst-ringct/blob/master/src/mlsag.rs#:~:text=struct%20DecoyInput" xlink:title="&lt;TABLE&gt;">
<polygon fill="lightblue" stroke="none" points="1197,-610 1197,-647 1425,-647 1425,-610 1197,-610"/>
<polygon fill="none" stroke="black" points="1197,-610 1197,-647 1425,-647 1425,-610 1197,-610"/>
<text text-anchor="start" x="1271" y="-625.8" font-family="Arial" font-weight="bold" font-size="14.00">DecoyInput</text>
<polygon fill="white" stroke="none" points="1197,-558 1197,-610 1425,-610 1425,-558 1197,-558"/>
<polygon fill="none" stroke="black" points="1197,-558 1197,-610 1425,-610 1425,-558 1197,-558"/>
<text text-anchor="start" x="1208" y="-587.8" font-family="Arial" font-size="14.00">+ public_key: G1Affine</text>
<text text-anchor="start" x="1208" y="-572.8" font-family="Arial" font-size="14.00">+ commitment: G1Affine</text>
<polygon fill="white" stroke="none" points="1197,-506 1197,-558 1425,-558 1425,-506 1197,-506"/>
<polygon fill="none" stroke="black" points="1197,-506 1197,-558 1425,-558 1425,-506 1197,-506"/>
<text text-anchor="start" x="1208" y="-535.8" font-family="Arial" font-size="14.00">&#45; public_key(&amp;self) &#45;&gt; G1Affine</text>
<text text-anchor="start" x="1208" y="-520.8" font-family="Arial" font-size="14.00">&#45; commitment(&amp;self) &#45;&gt; G1Affine</text>
<polygon fill="none" stroke="black" points="1196,-505.5 1196,-648.5 1426,-648.5 1426,-505.5 1196,-505.5"/>
</a>
</g>
</g>
<!-- ndDecoyInput&#45;&gt;ndMlsagMaterial -->
<g id="edge9" class="edge"><title>ndDecoyInput&#45;&gt;ndMlsagMaterial</title>
<path fill="none" stroke="black" d="M1247.64,-501.218C1230.9,-481.456 1212.29,-459.495 1193.71,-437.565"/>
<polygon fill="black" stroke="black" points="1193.51,-437.331 1186.58,-435.339 1185.75,-428.175 1192.68,-430.167 1193.51,-437.331"/>
</g>
<!-- ndMlsagMaterial&#45;&gt;ndRingCtMaterial -->
<g id="edge10" class="edge"><title>ndMlsagMaterial&#45;&gt;ndRingCtMaterial</title>
<path fill="none" stroke="black" d="M928.785,-171.891C917.654,-162.409 906.654,-153.039 896.091,-144.041"/>
<polygon fill="black" stroke="black" points="896.064,-144.017 888.902,-143.172 886.929,-136.236 894.09,-137.082 896.064,-144.017"/>
</g>
<!-- ndMlsagSignature -->
<g id="node10" class="node"><title>ndMlsagSignature</title>
<g id="a_node10_9"><a xlink:href="https://github.com/maidsafe/blst-ringct/blob/master/src/mlsag.rs#:~:text=struct%20MlsagSignature" xlink:title="&lt;TABLE&gt;">
<polygon fill="lightblue" stroke="none" points="1462,-648 1462,-685 1951,-685 1951,-648 1462,-648"/>
<polygon fill="none" stroke="black" points="1462,-648 1462,-685 1951,-685 1951,-648 1462,-648"/>
<text text-anchor="start" x="1651.5" y="-663.8" font-family="Arial" font-weight="bold" font-size="14.00">MlsagSignature</text>
<polygon fill="white" stroke="none" points="1462,-551 1462,-648 1951,-648 1951,-551 1462,-551"/>
<polygon fill="none" stroke="black" points="1462,-551 1462,-648 1951,-648 1951,-551 1462,-551"/>
<text text-anchor="start" x="1473" y="-625.8" font-family="Arial" font-size="14.00">+ c0: Scalar</text>
<text text-anchor="start" x="1473" y="-610.8" font-family="Arial" font-size="14.00">+ r: Vec&lt;(Scalar, Scalar)&gt;</text>
<text text-anchor="start" x="1473" y="-595.8" font-family="Arial" font-size="14.00">+ key_image: G1Affine</text>
<text text-anchor="start" x="1473" y="-580.8" font-family="Arial" font-size="14.00">+ ring: Vec&lt;(G1Affine, G1Affine)&gt;</text>
<text text-anchor="start" x="1473" y="-565.8" font-family="Arial" font-size="14.00">+ pseudo_commitment: G1Affine</text>
<polygon fill="white" stroke="none" points="1462,-469 1462,-551 1951,-551 1951,-469 1462,-469"/>
<polygon fill="none" stroke="black" points="1462,-469 1462,-551 1951,-551 1951,-469 1462,-469"/>
<text text-anchor="start" x="1473" y="-528.8" font-family="Arial" font-size="14.00">&#45; to_bytes(&amp;self) &#45;&gt; Vec&lt;u8&gt;</text>
<text text-anchor="start" x="1473" y="-513.8" font-family="Arial" font-size="14.00">&#45; pseudo_commitment(&amp;self) &#45;&gt; G1Affine</text>
<text text-anchor="start" x="1473" y="-498.8" font-family="Arial" font-size="14.00">&#45; public_keys(&amp;self) &#45;&gt; Vec&lt;G1Affine&gt;</text>
<text text-anchor="start" x="1473" y="-483.8" font-family="Arial" font-size="14.00">&#45; verify(&amp;self, msg: &amp;[u8], public_commitments: &amp;[G1Affine]) &#45;&gt; Result&lt;()&gt;</text>
<polygon fill="none" stroke="black" points="1460.5,-468 1460.5,-686 1951.5,-686 1951.5,-468 1460.5,-468"/>
</a>
</g>
</g>
<!-- ndMlsagSignature&#45;&gt;ndRingCtTransaction -->
<g id="edge11" class="edge"><title>ndMlsagSignature&#45;&gt;ndRingCtTransaction</title>
<path fill="none" stroke="black" d="M1739.47,-463.75C1745.54,-443.39 1751.84,-422.264 1757.81,-402.243"/>
<polygon fill="black" stroke="black" points="1757.85,-402.096 1755.74,-395.203 1761.28,-390.596 1763.4,-397.489 1757.85,-402.096"/>
</g>
<!-- ndMlsagSignature&#45;&gt;ndMlsagMaterial -->
<g id="edge12" class="edge"><title>ndMlsagSignature&#45;&gt;ndMlsagMaterial</title>
<path fill="none" stroke="black" d="M1452.38,-464.94C1427.67,-454.119 1402.44,-443.072 1377.34,-432.08"/>
<polygon fill="black" stroke="black" points="1368.1,-428.033 1379.06,-427.922 1372.68,-430.039 1377.26,-432.044 1377.26,-432.044 1377.26,-432.044 1372.68,-430.039 1375.45,-436.166 1368.1,-428.033 1368.1,-428.033"/>
</g>
</g>
</svg>
