<?xml version="1.0" encoding="UTF-8" standalone="no"?>
<!DOCTYPE svg PUBLIC "-//W3C//DTD SVG 1.1//EN"
 "http://www.w3.org/Graphics/SVG/1.1/DTD/svg11.dtd">
<!-- Generated by graphviz version 2.38.0 (20140413.2041)
 -->
<!-- Title: ml Pages: 1 -->
<svg width="949pt" height="159pt"
 viewBox="0.00 0.00 949.00 159.00" xmlns="http://www.w3.org/2000/svg" xmlns:xlink="http://www.w3.org/1999/xlink">
<g id="graph0" class="graph" transform="scale(1 1) rotate(0) translate(4 155)">
<title>ml</title>
<polygon fill="white" stroke="none" points="-4,4 -4,-155 945,-155 945,4 -4,4"/>
<!-- ndCompress -->
<g id="node1" class="node"><title>ndCompress</title>
<g id="a_node1_0"><a xlink:href="https://github.com/filecoin-project/blstrs/blob/master/src/traits.rs#:~:text=trait%20Compress" xlink:title="&lt;TABLE&gt;">
<polygon fill="lightgreen" stroke="none" points="9.5,-82.5 9.5,-119.5 338.5,-119.5 338.5,-82.5 9.5,-82.5"/>
<polygon fill="none" stroke="black" points="9.5,-82.5 9.5,-119.5 338.5,-119.5 338.5,-82.5 9.5,-82.5"/>
<text text-anchor="start" x="137.5" y="-98.3" font-family="Arial" font-weight="bold" font-size="14.00">Compress</text>
<polygon fill="white" stroke="none" points="9.5,-30.5 9.5,-82.5 338.5,-82.5 338.5,-30.5 9.5,-30.5"/>
<polygon fill="none" stroke="black" points="9.5,-30.5 9.5,-82.5 338.5,-82.5 338.5,-30.5 9.5,-30.5"/>
<text text-anchor="start" x="20.5" y="-60.3" font-family="Arial" font-size="14.00">write_compressed(Self, W) &#45;&gt; std::io::Result&lt;()&gt;</text>
<text text-anchor="start" x="20.5" y="-45.3" font-family="Arial" font-size="14.00">read_compressed(R) &#45;&gt; std::io::Result&lt;Self&gt;</text>
<polygon fill="none" stroke="black" points="8,-30 8,-121 339,-121 339,-30 8,-30"/>
</a>
</g>
</g>
<!-- ndG2Prepared -->
<g id="node2" class="node"><title>ndG2Prepared</title>
<g id="a_node2_1"><a xlink:href="https://github.com/filecoin-project/blstrs/blob/master/src/g2.rs#:~:text=struct%20G2Prepared" xlink:title="&lt;TABLE&gt;">
<polygon fill="lightblue" stroke="none" points="374.5,-108.5 374.5,-145.5 589.5,-145.5 589.5,-108.5 374.5,-108.5"/>
<polygon fill="none" stroke="black" points="374.5,-108.5 374.5,-145.5 589.5,-145.5 589.5,-108.5 374.5,-108.5"/>
<text text-anchor="start" x="439.5" y="-124.3" font-family="Arial" font-weight="bold" font-size="14.00">G2Prepared</text>
<polygon fill="white" stroke="none" points="374.5,-56.5 374.5,-108.5 589.5,-108.5 589.5,-56.5 374.5,-56.5"/>
<polygon fill="none" stroke="black" points="374.5,-56.5 374.5,-108.5 589.5,-108.5 589.5,-56.5 374.5,-56.5"/>
<text text-anchor="start" x="385.5" y="-86.3" font-family="Arial" font-size="14.00">&#45; lines: Vec&lt;blst_fp6&gt;</text>
<text text-anchor="start" x="385.5" y="-71.3" font-family="Arial" font-size="14.00">&#45; infinity: bool</text>
<polygon fill="white" stroke="none" points="374.5,-4.5 374.5,-56.5 589.5,-56.5 589.5,-4.5 374.5,-4.5"/>
<polygon fill="none" stroke="black" points="374.5,-4.5 374.5,-56.5 589.5,-56.5 589.5,-4.5 374.5,-4.5"/>
<text text-anchor="start" x="385.5" y="-34.3" font-family="Arial" font-size="14.00">&#45; from(affine: G2Affine) &#45;&gt; Self</text>
<text text-anchor="start" x="385.5" y="-19.3" font-family="Arial" font-size="14.00">&#45; is_identity(&amp;self) &#45;&gt; Choice</text>
<polygon fill="none" stroke="black" points="373,-4 373,-147 590,-147 590,-4 373,-4"/>
</a>
</g>
</g>
<!-- ndFp2Ser -->
<g id="node3" class="node"><title>ndFp2Ser</title>
<g id="a_node3_2"><a xlink:href="https://github.com/filecoin-project/blstrs/blob/master/src/serde_impl.rs#:~:text=struct%20Fp2Ser" xlink:title="&lt;TABLE&gt;">
<polygon fill="lightblue" stroke="none" points="625.5,-82.5 625.5,-119.5 698.5,-119.5 698.5,-82.5 625.5,-82.5"/>
<polygon fill="none" stroke="black" points="625.5,-82.5 625.5,-119.5 698.5,-119.5 698.5,-82.5 625.5,-82.5"/>
<text text-anchor="start" x="636.5" y="-98.3" font-family="Arial" font-weight="bold" font-size="14.00">Fp2Ser</text>
<polygon fill="white" stroke="none" points="625.5,-30.5 625.5,-82.5 698.5,-82.5 698.5,-30.5 625.5,-30.5"/>
<polygon fill="none" stroke="black" points="625.5,-30.5 625.5,-82.5 698.5,-82.5 698.5,-30.5 625.5,-30.5"/>
<text text-anchor="start" x="636.5" y="-60.3" font-family="Arial" font-size="14.00">&#45; c0: Fp</text>
<text text-anchor="start" x="636.5" y="-45.3" font-family="Arial" font-size="14.00">&#45; c1: Fp</text>
<polygon fill="none" stroke="black" points="624,-30 624,-121 699,-121 699,-30 624,-30"/>
</a>
</g>
</g>
<!-- ndFp6Ser -->
<g id="node4" class="node"><title>ndFp6Ser</title>
<g id="a_node4_3"><a xlink:href="https://github.com/filecoin-project/blstrs/blob/master/src/serde_impl.rs#:~:text=struct%20Fp6Ser" xlink:title="&lt;TABLE&gt;">
<polygon fill="lightblue" stroke="none" points="734.5,-90.5 734.5,-127.5 814.5,-127.5 814.5,-90.5 734.5,-90.5"/>
<polygon fill="none" stroke="black" points="734.5,-90.5 734.5,-127.5 814.5,-127.5 814.5,-90.5 734.5,-90.5"/>
<text text-anchor="start" x="749" y="-106.3" font-family="Arial" font-weight="bold" font-size="14.00">Fp6Ser</text>
<polygon fill="white" stroke="none" points="734.5,-23.5 734.5,-90.5 814.5,-90.5 814.5,-23.5 734.5,-23.5"/>
<polygon fill="none" stroke="black" points="734.5,-23.5 734.5,-90.5 814.5,-90.5 814.5,-23.5 734.5,-23.5"/>
<text text-anchor="start" x="745.5" y="-68.3" font-family="Arial" font-size="14.00">&#45; c0: Fp2</text>
<text text-anchor="start" x="745.5" y="-53.3" font-family="Arial" font-size="14.00">&#45; c1: Fp2</text>
<text text-anchor="start" x="745.5" y="-38.3" font-family="Arial" font-size="14.00">&#45; c2: Fp2</text>
<polygon fill="none" stroke="black" points="733.5,-22.5 733.5,-128.5 815.5,-128.5 815.5,-22.5 733.5,-22.5"/>
</a>
</g>
</g>
<!-- ndFp12Ser -->
<g id="node5" class="node"><title>ndFp12Ser</title>
<g id="a_node5_4"><a xlink:href="https://github.com/filecoin-project/blstrs/blob/master/src/serde_impl.rs#:~:text=struct%20Fp12Ser" xlink:title="&lt;TABLE&gt;">
<polygon fill="lightblue" stroke="none" points="851.5,-82.5 851.5,-119.5 932.5,-119.5 932.5,-82.5 851.5,-82.5"/>
<polygon fill="none" stroke="black" points="851.5,-82.5 851.5,-119.5 932.5,-119.5 932.5,-82.5 851.5,-82.5"/>
<text text-anchor="start" x="862.5" y="-98.3" font-family="Arial" font-weight="bold" font-size="14.00">Fp12Ser</text>
<polygon fill="white" stroke="none" points="851.5,-30.5 851.5,-82.5 932.5,-82.5 932.5,-30.5 851.5,-30.5"/>
<polygon fill="none" stroke="black" points="851.5,-30.5 851.5,-82.5 932.5,-82.5 932.5,-30.5 851.5,-30.5"/>
<text text-anchor="start" x="862.5" y="-60.3" font-family="Arial" font-size="14.00">&#45; c0: Fp6</text>
<text text-anchor="start" x="862.5" y="-45.3" font-family="Arial" font-size="14.00">&#45; c1: Fp6</text>
<polygon fill="none" stroke="black" points="850,-30 850,-121 933,-121 933,-30 850,-30"/>
</a>
</g>
</g>
</g>
</svg>
