<?xml version="1.0" encoding="UTF-8" standalone="no"?>
<!DOCTYPE svg PUBLIC "-//W3C//DTD SVG 1.1//EN"
 "http://www.w3.org/Graphics/SVG/1.1/DTD/svg11.dtd">
<!-- Generated by graphviz version 2.38.0 (20140413.2041)
 -->
<!-- Title: ml Pages: 1 -->
<svg width="1061pt" height="662pt"
 viewBox="0.00 0.00 1061.32 662.00" xmlns="http://www.w3.org/2000/svg" xmlns:xlink="http://www.w3.org/1999/xlink">
<g id="graph0" class="graph" transform="scale(1 1) rotate(0) translate(4 658)">
<title>ml</title>
<polygon fill="white" stroke="none" points="-4,4 -4,-658 1057.32,-658 1057.32,4 -4,4"/>
<!-- ndPublicKey -->
<g id="node1" class="node"><title>ndPublicKey</title>
<g id="a_node1_0"><a xlink:href="https://github.com/maidsafe/blsttc/blob/master/src/lib.rs#:~:text=struct%20PublicKey" xlink:title="&lt;TABLE&gt;">
<polygon fill="lightblue" stroke="none" points="232.323,-432 232.323,-469 325.323,-469 325.323,-432 232.323,-432"/>
<polygon fill="none" stroke="black" points="232.323,-432 232.323,-469 325.323,-469 325.323,-432 232.323,-432"/>
<text text-anchor="start" x="243.323" y="-447.8" font-family="Arial" font-weight="bold" font-size="14.00">PublicKey</text>
<polygon fill="white" stroke="none" points="232.323,-395 232.323,-432 325.323,-432 325.323,-395 232.323,-395"/>
<polygon fill="none" stroke="black" points="232.323,-395 232.323,-432 325.323,-432 325.323,-395 232.323,-395"/>
<text text-anchor="start" x="243.323" y="-409.8" font-family="Arial" font-size="14.00">&#45; G1</text>
<polygon fill="none" stroke="black" points="230.823,-394 230.823,-470 325.823,-470 325.823,-394 230.823,-394"/>
</a>
</g>
</g>
<!-- ndPublicKeyShare -->
<g id="node2" class="node"><title>ndPublicKeyShare</title>
<g id="a_node2_1"><a xlink:href="https://github.com/maidsafe/blsttc/blob/master/src/lib.rs#:~:text=struct%20PublicKeyShare" xlink:title="&lt;TABLE&gt;">
<polygon fill="lightblue" stroke="none" points="298.323,-312 298.323,-349 432.323,-349 432.323,-312 298.323,-312"/>
<polygon fill="none" stroke="black" points="298.323,-312 298.323,-349 432.323,-349 432.323,-312 298.323,-312"/>
<text text-anchor="start" x="309.323" y="-327.8" font-family="Arial" font-weight="bold" font-size="14.00">PublicKeyShare</text>
<polygon fill="white" stroke="none" points="298.323,-275 298.323,-312 432.323,-312 432.323,-275 298.323,-275"/>
<polygon fill="none" stroke="black" points="298.323,-275 298.323,-312 432.323,-312 432.323,-275 298.323,-275"/>
<text text-anchor="start" x="309.323" y="-289.8" font-family="Arial" font-size="14.00">&#45; PublicKey</text>
<polygon fill="none" stroke="black" points="297.323,-274 297.323,-350 433.323,-350 433.323,-274 297.323,-274"/>
</a>
</g>
</g>
<!-- ndPublicKey&#45;&gt;ndPublicKeyShare -->
<g id="edge1" class="edge"><title>ndPublicKey&#45;&gt;ndPublicKeyShare</title>
<path fill="none" stroke="black" d="M308.752,-389.729C314.946,-381.327 321.531,-372.396 327.935,-363.71"/>
<polygon fill="black" stroke="black" points="327.938,-363.707 328.279,-356.504 335.059,-354.048 334.718,-361.251 327.938,-363.707"/>
</g>
<!-- ndSecretKey -->
<g id="node5" class="node"><title>ndSecretKey</title>
<g id="a_node5_2"><a xlink:href="https://github.com/maidsafe/blsttc/blob/master/src/lib.rs#:~:text=struct%20SecretKey" xlink:title="&lt;TABLE&gt;">
<polygon fill="lightblue" stroke="none" points="129.323,-312 129.323,-349 224.323,-349 224.323,-312 129.323,-312"/>
<polygon fill="none" stroke="black" points="129.323,-312 129.323,-349 224.323,-349 224.323,-312 129.323,-312"/>
<text text-anchor="start" x="140.323" y="-327.8" font-family="Arial" font-weight="bold" font-size="14.00">SecretKey</text>
<polygon fill="white" stroke="none" points="129.323,-275 129.323,-312 224.323,-312 224.323,-275 129.323,-275"/>
<polygon fill="none" stroke="black" points="129.323,-275 129.323,-312 224.323,-312 224.323,-275 129.323,-275"/>
<text text-anchor="start" x="140.323" y="-289.8" font-family="Arial" font-size="14.00">&#45; Fr</text>
<polygon fill="none" stroke="black" points="127.823,-274 127.823,-350 224.823,-350 224.823,-274 127.823,-274"/>
</a>
</g>
</g>
<!-- ndPublicKey&#45;&gt;ndSecretKey -->
<g id="edge2" class="edge"><title>ndPublicKey&#45;&gt;ndSecretKey</title>
<path fill="none" stroke="black" d="M242.649,-389.729C234.839,-380.695 226.501,-371.049 218.466,-361.753"/>
<polygon fill="black" stroke="black" points="211.806,-354.048 221.75,-358.671 215.075,-357.831 218.345,-361.613 218.345,-361.613 218.345,-361.613 215.075,-357.831 214.941,-364.556 211.806,-354.048 211.806,-354.048"/>
</g>
<!-- ndPublicKeySet -->
<g id="node9" class="node"><title>ndPublicKeySet</title>
<g id="a_node9_3"><a xlink:href="https://github.com/maidsafe/blsttc/blob/master/src/lib.rs#:~:text=struct%20PublicKeySet" xlink:title="&lt;TABLE&gt;">
<polygon fill="lightblue" stroke="none" points="491.323,-184.5 491.323,-221.5 657.323,-221.5 657.323,-184.5 491.323,-184.5"/>
<polygon fill="none" stroke="black" points="491.323,-184.5 491.323,-221.5 657.323,-221.5 657.323,-184.5 491.323,-184.5"/>
<text text-anchor="start" x="527.323" y="-200.3" font-family="Arial" font-weight="bold" font-size="14.00">PublicKeySet</text>
<polygon fill="white" stroke="none" points="491.323,-147.5 491.323,-184.5 657.323,-184.5 657.323,-147.5 491.323,-147.5"/>
<polygon fill="none" stroke="black" points="491.323,-147.5 491.323,-184.5 657.323,-184.5 657.323,-147.5 491.323,-147.5"/>
<text text-anchor="start" x="502.323" y="-162.3" font-family="Arial" font-size="14.00">&#45; commit: Commitment</text>
<polygon fill="none" stroke="black" points="490.323,-146.5 490.323,-222.5 658.323,-222.5 658.323,-146.5 490.323,-146.5"/>
</a>
</g>
</g>
<!-- ndPublicKey&#45;&gt;ndPublicKeySet -->
<g id="edge3" class="edge"><title>ndPublicKey&#45;&gt;ndPublicKeySet</title>
<path fill="none" stroke="black" d="M334.264,-407.643C380.658,-387.995 440.55,-361.881 450.323,-354 490.853,-321.316 524.874,-272.4 546.967,-235.68"/>
<polygon fill="black" stroke="black" points="552.324,-226.625 551.105,-237.523 549.778,-230.928 547.232,-235.231 547.232,-235.231 547.232,-235.231 549.778,-230.928 543.359,-232.94 552.324,-226.625 552.324,-226.625"/>
</g>
<!-- ndSecretKeyShare -->
<g id="node6" class="node"><title>ndSecretKeyShare</title>
<g id="a_node6_4"><a xlink:href="https://github.com/maidsafe/blsttc/blob/master/src/lib.rs#:~:text=struct%20SecretKeyShare" xlink:title="&lt;TABLE&gt;">
<polygon fill="lightblue" stroke="none" points="308.323,-184.5 308.323,-221.5 444.323,-221.5 444.323,-184.5 308.323,-184.5"/>
<polygon fill="none" stroke="black" points="308.323,-184.5 308.323,-221.5 444.323,-221.5 444.323,-184.5 308.323,-184.5"/>
<text text-anchor="start" x="319.323" y="-200.3" font-family="Arial" font-weight="bold" font-size="14.00">SecretKeyShare</text>
<polygon fill="white" stroke="none" points="308.323,-147.5 308.323,-184.5 444.323,-184.5 444.323,-147.5 308.323,-147.5"/>
<polygon fill="none" stroke="black" points="308.323,-147.5 308.323,-184.5 444.323,-184.5 444.323,-147.5 308.323,-147.5"/>
<text text-anchor="start" x="319.323" y="-162.3" font-family="Arial" font-size="14.00">&#45; SecretKey</text>
<polygon fill="none" stroke="black" points="307.323,-146.5 307.323,-222.5 445.323,-222.5 445.323,-146.5 307.323,-146.5"/>
</a>
</g>
</g>
<!-- ndPublicKeyShare&#45;&gt;ndSecretKeyShare -->
<g id="edge4" class="edge"><title>ndPublicKeyShare&#45;&gt;ndSecretKeyShare</title>
<path fill="none" stroke="black" d="M368.925,-269.907C369.856,-259.289 370.869,-247.728 371.839,-236.665"/>
<polygon fill="black" stroke="black" points="372.713,-226.686 376.323,-237.04 372.277,-231.667 371.84,-236.648 371.84,-236.648 371.84,-236.648 372.277,-231.667 367.357,-236.255 372.713,-226.686 372.713,-226.686"/>
</g>
<!-- ndPublicKeyShare&#45;&gt;ndPublicKeySet -->
<g id="edge5" class="edge"><title>ndPublicKeyShare&#45;&gt;ndPublicKeySet</title>
<path fill="none" stroke="black" d="M433.758,-269.907C453.966,-257.772 476.226,-244.405 496.955,-231.958"/>
<polygon fill="black" stroke="black" points="505.735,-226.686 499.479,-235.692 501.449,-229.26 497.162,-231.834 497.162,-231.834 497.162,-231.834 501.449,-229.26 494.845,-227.976 505.735,-226.686 505.735,-226.686"/>
</g>
<!-- ndSignature -->
<g id="node3" class="node"><title>ndSignature</title>
<g id="a_node3_5"><a xlink:href="https://github.com/maidsafe/blsttc/blob/master/src/lib.rs#:~:text=struct%20Signature" xlink:title="&lt;TABLE&gt;">
<polygon fill="lightblue" stroke="none" points="136.323,-582 136.323,-619 226.323,-619 226.323,-582 136.323,-582"/>
<polygon fill="none" stroke="black" points="136.323,-582 136.323,-619 226.323,-619 226.323,-582 136.323,-582"/>
<text text-anchor="start" x="147.323" y="-597.8" font-family="Arial" font-weight="bold" font-size="14.00">Signature</text>
<polygon fill="white" stroke="none" points="136.323,-545 136.323,-582 226.323,-582 226.323,-545 136.323,-545"/>
<polygon fill="none" stroke="black" points="136.323,-545 136.323,-582 226.323,-582 226.323,-545 136.323,-545"/>
<text text-anchor="start" x="147.323" y="-559.8" font-family="Arial" font-size="14.00">&#45; G2</text>
<polygon fill="none" stroke="black" points="135.323,-544 135.323,-620 227.323,-620 227.323,-544 135.323,-544"/>
</a>
</g>
</g>
<!-- ndSignature&#45;&gt;ndPublicKey -->
<g id="edge6" class="edge"><title>ndSignature&#45;&gt;ndPublicKey</title>
<path fill="none" stroke="black" stroke-dasharray="5,2" d="M208.343,-539.774C220.01,-521.973 233.755,-501.001 245.961,-482.377"/>
<polygon fill="black" stroke="black" points="251.448,-474.005 249.73,-484.836 248.708,-478.187 245.967,-482.369 245.967,-482.369 245.967,-482.369 248.708,-478.187 242.203,-479.902 251.448,-474.005 251.448,-474.005"/>
</g>
<!-- ndSignatureShare -->
<g id="node4" class="node"><title>ndSignatureShare</title>
<g id="a_node4_6"><a xlink:href="https://github.com/maidsafe/blsttc/blob/master/src/lib.rs#:~:text=struct%20SignatureShare" xlink:title="&lt;TABLE&gt;">
<polygon fill="lightblue" stroke="none" points="65.3234,-432 65.3234,-469 196.323,-469 196.323,-432 65.3234,-432"/>
<polygon fill="none" stroke="black" points="65.3234,-432 65.3234,-469 196.323,-469 196.323,-432 65.3234,-432"/>
<text text-anchor="start" x="76.3234" y="-447.8" font-family="Arial" font-weight="bold" font-size="14.00">SignatureShare</text>
<polygon fill="white" stroke="none" points="65.3234,-395 65.3234,-432 196.323,-432 196.323,-395 65.3234,-395"/>
<polygon fill="none" stroke="black" points="65.3234,-395 65.3234,-432 196.323,-432 196.323,-395 65.3234,-395"/>
<text text-anchor="start" x="76.3234" y="-409.8" font-family="Arial" font-size="14.00">+ Signature</text>
<polygon fill="none" stroke="black" points="63.8234,-394 63.8234,-470 196.823,-470 196.823,-394 63.8234,-394"/>
</a>
</g>
</g>
<!-- ndSignature&#45;&gt;ndSignatureShare -->
<g id="edge7" class="edge"><title>ndSignature&#45;&gt;ndSignatureShare</title>
<path fill="none" stroke="black" d="M167.117,-539.774C161.314,-522.935 154.534,-503.258 148.386,-485.417"/>
<polygon fill="black" stroke="black" points="148.363,-485.35 142.627,-480.981 144.454,-474.005 150.19,-478.375 148.363,-485.35"/>
</g>
<!-- ndSignature&#45;&gt;ndSecretKey -->
<g id="edge8" class="edge"><title>ndSignature&#45;&gt;ndSecretKey</title>
<path fill="none" stroke="black" d="M127.061,-562.459C87.9823,-545.921 38.1166,-517.503 14.3234,-474 -3.59113,-441.246 -5.61969,-421.56 14.3234,-390 35.3066,-356.794 74.9434,-337.616 109.757,-326.705"/>
<polygon fill="black" stroke="black" points="119.428,-323.842 111.117,-330.996 114.634,-325.261 109.84,-326.681 109.84,-326.681 109.84,-326.681 114.634,-325.261 108.562,-322.366 119.428,-323.842 119.428,-323.842"/>
</g>
<!-- ndSignature&#45;&gt;ndPublicKeySet -->
<g id="edge9" class="edge"><title>ndSignature&#45;&gt;ndPublicKeySet</title>
<path fill="none" stroke="black" d="M235.386,-541.209C253.878,-529.385 275.236,-517.58 296.323,-510 351.421,-490.194 517.573,-516.987 557.323,-474 616.333,-410.185 603.265,-300.629 588.646,-236.459"/>
<polygon fill="black" stroke="black" points="586.298,-226.563 592.985,-235.254 587.452,-231.428 588.607,-236.293 588.607,-236.293 588.607,-236.293 587.452,-231.428 584.229,-237.332 586.298,-226.563 586.298,-226.563"/>
</g>
<!-- ndSignatureShare&#45;&gt;ndPublicKeyShare -->
<g id="edge10" class="edge"><title>ndSignatureShare&#45;&gt;ndPublicKeyShare</title>
<path fill="none" stroke="black" stroke-dasharray="5,2" d="M205.002,-393.502C228.941,-381.481 255.628,-368.081 280.253,-355.716"/>
<polygon fill="black" stroke="black" points="289.223,-351.212 282.306,-359.721 284.755,-353.456 280.287,-355.699 280.287,-355.699 280.287,-355.699 284.755,-353.456 278.267,-351.678 289.223,-351.212 289.223,-351.212"/>
</g>
<!-- ndSignatureShare&#45;&gt;ndSecretKeyShare -->
<g id="edge11" class="edge"><title>ndSignatureShare&#45;&gt;ndSecretKeyShare</title>
<path fill="none" stroke="black" d="M201.629,-389.929C215.971,-379.479 230.074,-367.37 241.323,-354 267.824,-322.505 255.681,-302.97 280.323,-270 290.01,-257.039 301.962,-244.61 314.103,-233.46"/>
<polygon fill="black" stroke="black" points="321.669,-226.69 317.218,-236.712 317.943,-230.024 314.217,-233.358 314.217,-233.358 314.217,-233.358 317.943,-230.024 311.216,-230.005 321.669,-226.69 321.669,-226.69"/>
</g>
<!-- ndSecretKey&#45;&gt;ndSecretKeyShare -->
<g id="edge12" class="edge"><title>ndSecretKey&#45;&gt;ndSecretKeyShare</title>
<path fill="none" stroke="black" d="M232.833,-275.54C253.869,-262.34 278.094,-247.139 300.578,-233.03"/>
<polygon fill="black" stroke="black" points="300.603,-233.014 303.559,-226.437 310.768,-226.636 307.812,-233.213 300.603,-233.014"/>
</g>
<!-- ndSecretKeySet -->
<g id="node10" class="node"><title>ndSecretKeySet</title>
<g id="a_node10_7"><a xlink:href="https://github.com/maidsafe/blsttc/blob/master/src/lib.rs#:~:text=struct%20SecretKeySet" xlink:title="&lt;TABLE&gt;">
<polygon fill="lightblue" stroke="none" points="417.323,-49.5 417.323,-86.5 534.323,-86.5 534.323,-49.5 417.323,-49.5"/>
<polygon fill="none" stroke="black" points="417.323,-49.5 417.323,-86.5 534.323,-86.5 534.323,-49.5 417.323,-49.5"/>
<text text-anchor="start" x="428.323" y="-65.3" font-family="Arial" font-weight="bold" font-size="14.00">SecretKeySet</text>
<polygon fill="white" stroke="none" points="417.323,-12.5 417.323,-49.5 534.323,-49.5 534.323,-12.5 417.323,-12.5"/>
<polygon fill="none" stroke="black" points="417.323,-12.5 417.323,-49.5 534.323,-49.5 534.323,-12.5 417.323,-12.5"/>
<text text-anchor="start" x="428.323" y="-27.3" font-family="Arial" font-size="14.00">&#45; poly: Poly</text>
<polygon fill="none" stroke="black" points="415.823,-11.5 415.823,-87.5 534.823,-87.5 534.823,-11.5 415.823,-11.5"/>
</a>
</g>
</g>
<!-- ndSecretKey&#45;&gt;ndSecretKeySet -->
<g id="edge13" class="edge"><title>ndSecretKey&#45;&gt;ndSecretKeySet</title>
<path fill="none" stroke="black" d="M194.511,-269.898C213.565,-230.823 246.786,-172.591 290.323,-135 321.481,-108.097 362.627,-88.1734 398.203,-74.4511"/>
<polygon fill="black" stroke="black" points="407.595,-70.9204 399.818,-78.6513 402.915,-72.6798 398.235,-74.4391 398.235,-74.4391 398.235,-74.4391 402.915,-72.6798 396.651,-70.2269 407.595,-70.9204 407.595,-70.9204"/>
</g>
<!-- ndSecretKeyShare&#45;&gt;ndSecretKeySet -->
<g id="edge14" class="edge"><title>ndSecretKeyShare&#45;&gt;ndSecretKeySet</title>
<path fill="none" stroke="black" d="M407.105,-142.147C417.069,-128.761 428.22,-113.78 438.573,-99.8721"/>
<polygon fill="black" stroke="black" points="444.561,-91.8274 442.2,-102.536 441.575,-95.8382 438.59,-99.8491 438.59,-99.8491 438.59,-99.8491 441.575,-95.8382 434.98,-97.1621 444.561,-91.8274 444.561,-91.8274"/>
</g>
<!-- ndCiphertext -->
<g id="node7" class="node"><title>ndCiphertext</title>
<g id="a_node7_8"><a xlink:href="https://github.com/maidsafe/blsttc/blob/master/src/lib.rs#:~:text=struct%20Ciphertext" xlink:title="&lt;TABLE&gt;">
<polygon fill="lightblue" stroke="none" points="315.323,-597 315.323,-634 410.323,-634 410.323,-597 315.323,-597"/>
<polygon fill="none" stroke="black" points="315.323,-597 315.323,-634 410.323,-634 410.323,-597 315.323,-597"/>
<text text-anchor="start" x="326.323" y="-612.8" font-family="Arial" font-weight="bold" font-size="14.00">Ciphertext</text>
<polygon fill="white" stroke="none" points="315.323,-530 315.323,-597 410.323,-597 410.323,-530 315.323,-530"/>
<polygon fill="none" stroke="black" points="315.323,-530 315.323,-597 410.323,-597 410.323,-530 315.323,-530"/>
<text text-anchor="start" x="326.323" y="-574.8" font-family="Arial" font-size="14.00">&#45; G1</text>
<text text-anchor="start" x="326.323" y="-559.8" font-family="Arial" font-size="14.00">&#45; Vec&lt;u8&gt;</text>
<text text-anchor="start" x="326.323" y="-544.8" font-family="Arial" font-size="14.00">&#45; G2</text>
<polygon fill="none" stroke="black" points="313.823,-529 313.823,-635 410.823,-635 410.823,-529 313.823,-529"/>
</a>
</g>
</g>
<!-- ndCiphertext&#45;&gt;ndPublicKey -->
<g id="edge15" class="edge"><title>ndCiphertext&#45;&gt;ndPublicKey</title>
<path fill="none" stroke="black" d="M330.327,-524.625C322.567,-510.953 314.323,-496.428 306.741,-483.069"/>
<polygon fill="black" stroke="black" points="301.611,-474.031 310.461,-480.507 304.079,-478.38 306.547,-482.728 306.547,-482.728 306.547,-482.728 304.079,-478.38 302.634,-484.949 301.611,-474.031 301.611,-474.031"/>
</g>
<!-- ndCiphertext&#45;&gt;ndPublicKeyShare -->
<g id="edge16" class="edge"><title>ndCiphertext&#45;&gt;ndPublicKeyShare</title>
<path fill="none" stroke="black" stroke-dasharray="5,2" d="M362.952,-524.818C363.483,-477.443 364.235,-410.208 364.749,-364.276"/>
<polygon fill="black" stroke="black" points="364.862,-354.237 369.249,-364.287 364.806,-359.237 364.75,-364.237 364.75,-364.237 364.75,-364.237 364.806,-359.237 360.25,-364.186 364.862,-354.237 364.862,-354.237"/>
</g>
<!-- ndCiphertext&#45;&gt;ndSecretKey -->
<g id="edge17" class="edge"><title>ndCiphertext&#45;&gt;ndSecretKey</title>
<path fill="none" stroke="black" stroke-dasharray="5,2" d="M305.63,-541.218C286.846,-529.613 265.351,-517.933 244.323,-510 160.638,-478.428 103.634,-542.67 46.3234,-474 22.4021,-445.337 27.8372,-422.435 46.3234,-390 60.3747,-365.346 85.7648,-347.779 110.401,-335.711"/>
<polygon fill="black" stroke="black" points="119.782,-331.352 112.609,-339.647 115.247,-333.459 110.713,-335.566 110.713,-335.566 110.713,-335.566 115.247,-333.459 108.816,-331.485 119.782,-331.352 119.782,-331.352"/>
</g>
<!-- ndCiphertext&#45;&gt;ndSecretKeyShare -->
<g id="edge18" class="edge"><title>ndCiphertext&#45;&gt;ndSecretKeyShare</title>
<path fill="none" stroke="black" stroke-dasharray="5,2" d="M408.568,-524.874C414.791,-519.324 421.424,-514.202 428.323,-510 479.162,-479.039 521.332,-521.41 557.323,-474 618.552,-393.345 516.854,-291.489 442.818,-232.894"/>
<polygon fill="black" stroke="black" points="434.844,-226.664 445.495,-229.275 438.784,-229.743 442.724,-232.821 442.724,-232.821 442.724,-232.821 438.784,-229.743 439.954,-236.367 434.844,-226.664 434.844,-226.664"/>
</g>
<!-- ndCiphertext&#45;&gt;ndPublicKeySet -->
<g id="edge19" class="edge"><title>ndCiphertext&#45;&gt;ndPublicKeySet</title>
<path fill="none" stroke="black" stroke-dasharray="5,2" d="M407.408,-524.904C413.921,-519.201 420.939,-514.034 428.323,-510 507.585,-466.701 570.392,-543.29 628.323,-474 686.479,-404.442 653.756,-357.027 628.323,-270 624.817,-258.001 619.029,-246.085 612.515,-235.15"/>
<polygon fill="black" stroke="black" points="607.166,-226.607 616.287,-232.694 609.82,-230.845 612.473,-235.083 612.473,-235.083 612.473,-235.083 609.82,-230.845 608.66,-237.471 607.166,-226.607 607.166,-226.607"/>
</g>
<!-- ndDecryptionShare -->
<g id="node8" class="node"><title>ndDecryptionShare</title>
<g id="a_node8_9"><a xlink:href="https://github.com/maidsafe/blsttc/blob/master/src/lib.rs#:~:text=struct%20DecryptionShare" xlink:title="&lt;TABLE&gt;">
<polygon fill="lightblue" stroke="none" points="399.323,-432 399.323,-469 539.323,-469 539.323,-432 399.323,-432"/>
<polygon fill="none" stroke="black" points="399.323,-432 399.323,-469 539.323,-469 539.323,-432 399.323,-432"/>
<text text-anchor="start" x="410.323" y="-447.8" font-family="Arial" font-weight="bold" font-size="14.00">DecryptionShare</text>
<polygon fill="white" stroke="none" points="399.323,-395 399.323,-432 539.323,-432 539.323,-395 399.323,-395"/>
<polygon fill="none" stroke="black" points="399.323,-395 399.323,-432 539.323,-432 539.323,-395 399.323,-395"/>
<text text-anchor="start" x="410.323" y="-409.8" font-family="Arial" font-size="14.00">&#45; G1</text>
<polygon fill="none" stroke="black" points="398.323,-394 398.323,-470 540.323,-470 540.323,-394 398.323,-394"/>
</a>
</g>
</g>
<!-- ndDecryptionShare&#45;&gt;ndPublicKeyShare -->
<g id="edge20" class="edge"><title>ndDecryptionShare&#45;&gt;ndPublicKeyShare</title>
<path fill="none" stroke="black" stroke-dasharray="5,2" d="M432.949,-389.729C424.987,-380.695 416.485,-371.049 408.292,-361.753"/>
<polygon fill="black" stroke="black" points="401.501,-354.048 411.489,-358.575 404.807,-357.799 408.113,-361.55 408.113,-361.55 408.113,-361.55 404.807,-357.799 404.737,-364.526 401.501,-354.048 401.501,-354.048"/>
</g>
<!-- ndDecryptionShare&#45;&gt;ndSecretKeyShare -->
<g id="edge21" class="edge"><title>ndDecryptionShare&#45;&gt;ndSecretKeyShare</title>
<path fill="none" stroke="black" d="M471.069,-389.877C470.977,-356.25 467.303,-308.191 450.323,-270 444.713,-257.382 436.545,-245.279 427.663,-234.372"/>
<polygon fill="black" stroke="black" points="421.095,-226.651 431.002,-231.353 424.335,-230.46 427.574,-234.268 427.574,-234.268 427.574,-234.268 424.335,-230.46 424.147,-237.184 421.095,-226.651 421.095,-226.651"/>
</g>
<!-- ndPublicKeySet&#45;&gt;ndSecretKeySet -->
<g id="edge22" class="edge"><title>ndPublicKeySet&#45;&gt;ndSecretKeySet</title>
<path fill="none" stroke="black" d="M543.542,-142.147C533.578,-128.761 522.427,-113.78 512.074,-99.8721"/>
<polygon fill="black" stroke="black" points="506.086,-91.8274 515.667,-97.1621 509.071,-95.8382 512.057,-99.8491 512.057,-99.8491 512.057,-99.8491 509.071,-95.8382 508.447,-102.536 506.086,-91.8274 506.086,-91.8274"/>
</g>
<!-- ndError -->
<g id="node11" class="node"><title>ndError</title>
<g id="a_node11_10"><a xlink:href="https://github.com/maidsafe/blsttc/blob/master/src/error.rs#:~:text=enum%20Error" xlink:title="&lt;TABLE&gt;">
<polygon fill="yellow" stroke="none" points="446.323,-612 446.323,-649 584.323,-649 584.323,-612 446.323,-612"/>
<polygon fill="none" stroke="black" points="446.323,-612 446.323,-649 584.323,-649 584.323,-612 446.323,-612"/>
<text text-anchor="start" x="496.823" y="-627.8" font-family="Arial" font-weight="bold" font-size="14.00">Error</text>
<polygon fill="white" stroke="none" points="446.323,-515 446.323,-612 584.323,-612 584.323,-515 446.323,-515"/>
<polygon fill="none" stroke="black" points="446.323,-515 446.323,-612 584.323,-612 584.323,-515 446.323,-515"/>
<text text-anchor="start" x="457.323" y="-589.8" font-family="Arial" font-size="14.00">NotEnoughShares</text>
<text text-anchor="start" x="457.323" y="-574.8" font-family="Arial" font-size="14.00">DuplicateEntry</text>
<text text-anchor="start" x="457.323" y="-559.8" font-family="Arial" font-size="14.00">DegreeTooHigh</text>
<text text-anchor="start" x="457.323" y="-544.8" font-family="Arial" font-size="14.00">InvalidBytes</text>
<text text-anchor="start" x="457.323" y="-529.8" font-family="Arial" font-size="14.00">BlstError(String)</text>
<polygon fill="none" stroke="black" points="445.323,-514 445.323,-650 585.323,-650 585.323,-514 445.323,-514"/>
</a>
</g>
</g>
<!-- ndIntoFr -->
<g id="node12" class="node"><title>ndIntoFr</title>
<g id="a_node12_11"><a xlink:href="https://github.com/maidsafe/blsttc/blob/master/src/into_fr.rs#:~:text=trait%20IntoFr" xlink:title="&lt;TABLE&gt;">
<polygon fill="lightgreen" stroke="none" points="620.323,-563 620.323,-600 684.323,-600 684.323,-563 620.323,-563"/>
<polygon fill="none" stroke="black" points="620.323,-563 620.323,-600 684.323,-600 684.323,-563 620.323,-563"/>
<text text-anchor="start" x="631.323" y="-578.8" font-family="Arial" font-weight="bold" font-size="14.00">IntoFr</text>
<polygon fill="none" stroke="black" points="619.323,-562.5 619.323,-601.5 685.323,-601.5 685.323,-562.5 619.323,-562.5"/>
</a>
</g>
</g>
<!-- ndPoly -->
<g id="node13" class="node"><title>ndPoly</title>
<g id="a_node13_12"><a xlink:href="https://github.com/maidsafe/blsttc/blob/master/src/poly.rs#:~:text=struct%20Poly" xlink:title="&lt;TABLE&gt;">
<polygon fill="lightblue" stroke="none" points="693.323,-184.5 693.323,-221.5 819.323,-221.5 819.323,-184.5 693.323,-184.5"/>
<polygon fill="none" stroke="black" points="693.323,-184.5 693.323,-221.5 819.323,-221.5 819.323,-184.5 693.323,-184.5"/>
<text text-anchor="start" x="740.823" y="-200.3" font-family="Arial" font-weight="bold" font-size="14.00">Poly</text>
<polygon fill="white" stroke="none" points="693.323,-147.5 693.323,-184.5 819.323,-184.5 819.323,-147.5 693.323,-147.5"/>
<polygon fill="none" stroke="black" points="693.323,-147.5 693.323,-184.5 819.323,-184.5 819.323,-147.5 693.323,-147.5"/>
<text text-anchor="start" x="704.323" y="-162.3" font-family="Arial" font-size="14.00">&#45; coeff: Vec&lt;Fr&gt;</text>
<polygon fill="none" stroke="black" points="692.323,-146.5 692.323,-222.5 820.323,-222.5 820.323,-146.5 692.323,-146.5"/>
</a>
</g>
</g>
<!-- ndPoly&#45;&gt;ndSecretKeySet -->
<g id="edge23" class="edge"><title>ndPoly&#45;&gt;ndSecretKeySet</title>
<path fill="none" stroke="black" stroke-dasharray="5,2" d="M689.099,-142.29C684.476,-139.753 679.854,-137.299 675.323,-135 636.332,-115.212 591.612,-96.007 554.361,-80.9197"/>
<polygon fill="black" stroke="black" points="554.188,-80.8504 547.129,-82.3232 543.055,-76.3736 550.114,-74.9008 554.188,-80.8504"/>
</g>
<!-- ndBivarPoly -->
<g id="node15" class="node"><title>ndBivarPoly</title>
<g id="a_node15_13"><a xlink:href="https://github.com/maidsafe/blsttc/blob/master/src/poly.rs#:~:text=struct%20BivarPoly" xlink:title="&lt;TABLE&gt;">
<polygon fill="lightblue" stroke="none" points="779.323,-56.5 779.323,-93.5 905.323,-93.5 905.323,-56.5 779.323,-56.5"/>
<polygon fill="none" stroke="black" points="779.323,-56.5 779.323,-93.5 905.323,-93.5 905.323,-56.5 779.323,-56.5"/>
<text text-anchor="start" x="808.323" y="-72.3" font-family="Arial" font-weight="bold" font-size="14.00">BivarPoly</text>
<polygon fill="white" stroke="none" points="779.323,-4.5 779.323,-56.5 905.323,-56.5 905.323,-4.5 779.323,-4.5"/>
<polygon fill="none" stroke="black" points="779.323,-4.5 779.323,-56.5 905.323,-56.5 905.323,-4.5 779.323,-4.5"/>
<text text-anchor="start" x="790.323" y="-34.3" font-family="Arial" font-size="14.00">&#45; degree: usize</text>
<text text-anchor="start" x="790.323" y="-19.3" font-family="Arial" font-size="14.00">&#45; coeff: Vec&lt;Fr&gt;</text>
<polygon fill="none" stroke="black" points="778.323,-4 778.323,-95 906.323,-95 906.323,-4 778.323,-4"/>
</a>
</g>
</g>
<!-- ndPoly&#45;&gt;ndBivarPoly -->
<g id="edge24" class="edge"><title>ndPoly&#45;&gt;ndBivarPoly</title>
<path fill="none" stroke="black" d="M783.063,-142.147C790.057,-131.331 797.724,-119.474 805.154,-107.982"/>
<polygon fill="black" stroke="black" points="810.775,-99.2897 809.124,-110.131 808.06,-103.488 805.345,-107.687 805.345,-107.687 805.345,-107.687 808.06,-103.488 801.566,-105.244 810.775,-99.2897 810.775,-99.2897"/>
</g>
<!-- ndCommitment -->
<g id="node14" class="node"><title>ndCommitment</title>
<g id="a_node14_14"><a xlink:href="https://github.com/maidsafe/blsttc/blob/master/src/poly.rs#:~:text=struct%20Commitment" xlink:title="&lt;TABLE&gt;">
<polygon fill="lightblue" stroke="none" points="690.323,-312 690.323,-349 822.323,-349 822.323,-312 690.323,-312"/>
<polygon fill="none" stroke="black" points="690.323,-312 690.323,-349 822.323,-349 822.323,-312 690.323,-312"/>
<text text-anchor="start" x="712.323" y="-327.8" font-family="Arial" font-weight="bold" font-size="14.00">Commitment</text>
<polygon fill="white" stroke="none" points="690.323,-275 690.323,-312 822.323,-312 822.323,-275 690.323,-275"/>
<polygon fill="none" stroke="black" points="690.323,-275 690.323,-312 822.323,-312 822.323,-275 690.323,-275"/>
<text text-anchor="start" x="701.323" y="-289.8" font-family="Arial" font-size="14.00">&#45; coeff: Vec&lt;G1&gt;</text>
<polygon fill="none" stroke="black" points="689.323,-274 689.323,-350 823.323,-350 823.323,-274 689.323,-274"/>
</a>
</g>
</g>
<!-- ndCommitment&#45;&gt;ndPublicKeySet -->
<g id="edge25" class="edge"><title>ndCommitment&#45;&gt;ndPublicKeySet</title>
<path fill="none" stroke="black" stroke-dasharray="5,2" d="M696.73,-269.907C679.917,-258.314 661.475,-245.596 644.122,-233.63"/>
<polygon fill="black" stroke="black" points="643.93,-233.498 636.72,-233.385 634.051,-226.686 641.261,-226.799 643.93,-233.498"/>
</g>
<!-- ndCommitment&#45;&gt;ndPoly -->
<g id="edge26" class="edge"><title>ndCommitment&#45;&gt;ndPoly</title>
<path fill="none" stroke="black" d="M756.323,-269.907C756.323,-259.397 756.323,-247.964 756.323,-237.003"/>
<polygon fill="black" stroke="black" points="756.323,-226.686 760.823,-236.686 756.323,-231.686 756.323,-236.686 756.323,-236.686 756.323,-236.686 756.323,-231.686 751.823,-236.686 756.323,-226.686 756.323,-226.686"/>
</g>
<!-- ndBivarCommitment -->
<g id="node16" class="node"><title>ndBivarCommitment</title>
<g id="a_node16_15"><a xlink:href="https://github.com/maidsafe/blsttc/blob/master/src/poly.rs#:~:text=struct%20BivarCommitment" xlink:title="&lt;TABLE&gt;">
<polygon fill="lightblue" stroke="none" points="856.323,-191.5 856.323,-228.5 1003.32,-228.5 1003.32,-191.5 856.323,-191.5"/>
<polygon fill="none" stroke="black" points="856.323,-191.5 856.323,-228.5 1003.32,-228.5 1003.32,-191.5 856.323,-191.5"/>
<text text-anchor="start" x="867.323" y="-207.3" font-family="Arial" font-weight="bold" font-size="14.00">BivarCommitment</text>
<polygon fill="white" stroke="none" points="856.323,-139.5 856.323,-191.5 1003.32,-191.5 1003.32,-139.5 856.323,-139.5"/>
<polygon fill="none" stroke="black" points="856.323,-139.5 856.323,-191.5 1003.32,-191.5 1003.32,-139.5 856.323,-139.5"/>
<text text-anchor="start" x="867.323" y="-169.3" font-family="Arial" font-size="14.00">&#45; degree: usize</text>
<text text-anchor="start" x="867.323" y="-154.3" font-family="Arial" font-size="14.00">&#45; coeff: Vec&lt;G1&gt;</text>
<polygon fill="none" stroke="black" points="854.823,-139 854.823,-230 1003.82,-230 1003.82,-139 854.823,-139"/>
</a>
</g>
</g>
<!-- ndCommitment&#45;&gt;ndBivarCommitment -->
<g id="edge27" class="edge"><title>ndCommitment&#45;&gt;ndBivarCommitment</title>
<path fill="none" stroke="black" d="M812.97,-269.907C826.027,-260.435 840.118,-250.212 853.834,-240.262"/>
<polygon fill="black" stroke="black" points="862.313,-234.111 856.861,-243.626 858.266,-237.047 854.219,-239.983 854.219,-239.983 854.219,-239.983 858.266,-237.047 851.576,-236.341 862.313,-234.111 862.313,-234.111"/>
</g>
<!-- ndBivarCommitment&#45;&gt;ndBivarPoly -->
<g id="edge28" class="edge"><title>ndBivarCommitment&#45;&gt;ndBivarPoly</title>
<path fill="none" stroke="black" d="M897.422,-134.731C891.689,-125.967 885.666,-116.759 879.792,-107.78"/>
<polygon fill="black" stroke="black" points="874.221,-99.2632 883.461,-105.168 876.958,-103.447 879.695,-107.632 879.695,-107.632 879.695,-107.632 876.958,-103.447 875.929,-110.095 874.221,-99.2632 874.221,-99.2632"/>
</g>
<!-- ndSerdeSecret -->
<g id="node17" class="node"><title>ndSerdeSecret</title>
<g id="a_node17_16"><a xlink:href="https://github.com/maidsafe/blsttc/blob/master/src/serde_impl.rs#:~:text=struct%20SerdeSecret" xlink:title="&lt;TABLE&gt;">
<polygon fill="lightblue" stroke="none" points="721.323,-582 721.323,-619 830.323,-619 830.323,-582 721.323,-582"/>
<polygon fill="none" stroke="black" points="721.323,-582 721.323,-619 830.323,-619 830.323,-582 721.323,-582"/>
<text text-anchor="start" x="732.323" y="-597.8" font-family="Arial" font-weight="bold" font-size="14.00">SerdeSecret</text>
<polygon fill="white" stroke="none" points="721.323,-545 721.323,-582 830.323,-582 830.323,-545 721.323,-545"/>
<polygon fill="none" stroke="black" points="721.323,-545 721.323,-582 830.323,-582 830.323,-545 721.323,-545"/>
<text text-anchor="start" x="732.323" y="-559.8" font-family="Arial" font-size="14.00">+ T</text>
<polygon fill="none" stroke="black" points="719.823,-544 719.823,-620 830.823,-620 830.823,-544 719.823,-544"/>
</a>
</g>
</g>
<!-- ndWireBivarCommitment -->
<g id="node18" class="node"><title>ndWireBivarCommitment</title>
<g id="a_node18_17"><a xlink:href="https://github.com/maidsafe/blsttc/blob/master/src/serde_impl.rs#:~:text=struct%20WireBivarCommitment" xlink:title="&lt;TABLE&gt;">
<polygon fill="lightblue" stroke="none" points="866.323,-589 866.323,-626 1044.32,-626 1044.32,-589 866.323,-589"/>
<polygon fill="none" stroke="black" points="866.323,-589 866.323,-626 1044.32,-626 1044.32,-589 866.323,-589"/>
<text text-anchor="start" x="877.323" y="-604.8" font-family="Arial" font-weight="bold" font-size="14.00">WireBivarCommitment</text>
<polygon fill="white" stroke="none" points="866.323,-537 866.323,-589 1044.32,-589 1044.32,-537 866.323,-537"/>
<polygon fill="none" stroke="black" points="866.323,-537 866.323,-589 1044.32,-589 1044.32,-537 866.323,-537"/>
<text text-anchor="start" x="877.323" y="-566.8" font-family="Arial" font-size="14.00">&#45; degree: usize</text>
<text text-anchor="start" x="877.323" y="-551.8" font-family="Arial" font-size="14.00">&#45; coeff: Cow&lt;&#39;a, [G1]&gt;</text>
<polygon fill="none" stroke="black" points="865.323,-536.5 865.323,-627.5 1045.32,-627.5 1045.32,-536.5 865.323,-536.5"/>
</a>
</g>
</g>
</g>
</svg>
