<?xml version="1.0" encoding="UTF-8" standalone="no"?>
<!DOCTYPE svg PUBLIC "-//W3C//DTD SVG 1.1//EN"
 "http://www.w3.org/Graphics/SVG/1.1/DTD/svg11.dtd">
<!-- Generated by graphviz version 2.38.0 (20140413.2041)
 -->
<!-- Title: ml Pages: 1 -->
<svg width="1313pt" height="677pt"
 viewBox="0.00 0.00 1313.00 677.00" xmlns="http://www.w3.org/2000/svg" xmlns:xlink="http://www.w3.org/1999/xlink">
<g id="graph0" class="graph" transform="scale(1 1) rotate(0) translate(4 673)">
<title>ml</title>
<polygon fill="white" stroke="none" points="-4,4 -4,-673 1309,-673 1309,4 -4,4"/>
<!-- ndError -->
<g id="node1" class="node"><title>ndError</title>
<g id="a_node1_0"><a xlink:href="https://github.com/maidsafe/brb/blob/master/src/error.rs#:~:text=enum%20Error" xlink:title="&lt;TABLE&gt;">
<polygon fill="yellow" stroke="none" points="474.5,-296.5 474.5,-333.5 776.5,-333.5 776.5,-296.5 474.5,-296.5"/>
<polygon fill="none" stroke="black" points="474.5,-296.5 474.5,-333.5 776.5,-333.5 776.5,-296.5 474.5,-296.5"/>
<text text-anchor="start" x="607" y="-312.3" font-family="Arial" font-weight="bold" font-size="14.00">Error</text>
<polygon fill="white" stroke="none" points="474.5,-214.5 474.5,-296.5 776.5,-296.5 776.5,-214.5 474.5,-214.5"/>
<polygon fill="none" stroke="black" points="474.5,-214.5 474.5,-296.5 776.5,-296.5 776.5,-214.5 474.5,-214.5"/>
<text text-anchor="start" x="485.5" y="-274.3" font-family="Arial" font-size="14.00">Membership(brb_membership::Error&lt;A, S&gt;)</text>
<text text-anchor="start" x="485.5" y="-259.3" font-family="Arial" font-size="14.00">Encoding(bincode::Error)</text>
<text text-anchor="start" x="485.5" y="-244.3" font-family="Arial" font-size="14.00">Validation(ValidationError&lt;A, S, V&gt;)</text>
<text text-anchor="start" x="485.5" y="-229.3" font-family="Arial" font-size="14.00">Signature(signature::Error)</text>
<polygon fill="none" stroke="black" points="473.5,-214 473.5,-335 777.5,-335 777.5,-214 473.5,-214"/>
</a>
</g>
</g>
<!-- ndDeterministicBRB -->
<g id="node6" class="node"><title>ndDeterministicBRB</title>
<g id="a_node6_1"><a xlink:href="https://github.com/maidsafe/brb/blob/master/src/deterministic_brb.rs#:~:text=struct%20DeterministicBRB" xlink:title="&lt;TABLE&gt;">
<polygon fill="lightblue" stroke="none" points="110.5,-132 110.5,-169 692.5,-169 692.5,-132 110.5,-132"/>
<polygon fill="none" stroke="black" points="110.5,-132 110.5,-169 692.5,-169 692.5,-132 110.5,-132"/>
<text text-anchor="start" x="340" y="-147.8" font-family="Arial" font-weight="bold" font-size="14.00">DeterministicBRB</text>
<polygon fill="white" stroke="none" points="110.5,-5 110.5,-132 692.5,-132 692.5,-5 110.5,-5"/>
<polygon fill="none" stroke="black" points="110.5,-5 110.5,-132 692.5,-132 692.5,-5 110.5,-5"/>
<text text-anchor="start" x="121.5" y="-109.8" font-family="Arial" font-size="14.00">+ membership: brb_membership::State&lt;A, SA, S&gt;</text>
<text text-anchor="start" x="121.5" y="-94.8" font-family="Arial" font-size="14.00">+ pending_proof: HashMap&lt;Msg&lt;A, BRBDT::Op&gt;, BTreeMap&lt;A, S&gt;&gt;</text>
<text text-anchor="start" x="121.5" y="-79.8" font-family="Arial" font-size="14.00">+ pending_delivery: HashMap&lt;Msg&lt;A, BRBDT::Op&gt;, (BTreeMap&lt;A, S&gt;, BTreeSet&lt;A&gt;)&gt;</text>
<text text-anchor="start" x="121.5" y="-64.8" font-family="Arial" font-size="14.00">+ received: VClock&lt;A&gt;</text>
<text text-anchor="start" x="121.5" y="-49.8" font-family="Arial" font-size="14.00">+ delivered: VClock&lt;A&gt;</text>
<text text-anchor="start" x="121.5" y="-34.8" font-family="Arial" font-size="14.00">+ history_from_source: BTreeMap&lt;A, Vec&lt;(Msg&lt;A, BRBDT::Op&gt;, BTreeMap&lt;A, S&gt;)&gt;&gt;</text>
<text text-anchor="start" x="121.5" y="-19.8" font-family="Arial" font-size="14.00">+ dt: BRBDT</text>
<polygon fill="none" stroke="black" points="109.5,-4 109.5,-170 693.5,-170 693.5,-4 109.5,-4"/>
</a>
</g>
</g>
<!-- ndError&#45;&gt;ndDeterministicBRB -->
<g id="edge1" class="edge"><title>ndError&#45;&gt;ndDeterministicBRB</title>
<path fill="none" stroke="black" d="M548.725,-209.921C537.297,-200.457 525.325,-190.542 513.354,-180.629"/>
<polygon fill="black" stroke="black" points="505.494,-174.12 516.066,-177.032 509.345,-177.309 513.196,-180.498 513.196,-180.498 513.196,-180.498 509.345,-177.309 510.326,-183.964 505.494,-174.12 505.494,-174.12"/>
</g>
<!-- ndValidationError -->
<g id="node2" class="node"><title>ndValidationError</title>
<g id="a_node2_2"><a xlink:href="https://github.com/maidsafe/brb/blob/master/src/error.rs#:~:text=enum%20ValidationError" xlink:title="&lt;TABLE&gt;">
<polygon fill="yellow" stroke="none" points="453.5,-627 453.5,-664 764.5,-664 764.5,-627 453.5,-627"/>
<polygon fill="none" stroke="black" points="453.5,-627 453.5,-664 764.5,-664 764.5,-627 453.5,-627"/>
<text text-anchor="start" x="556" y="-642.8" font-family="Arial" font-weight="bold" font-size="14.00">ValidationError</text>
<polygon fill="white" stroke="none" points="453.5,-380 453.5,-627 764.5,-627 764.5,-380 453.5,-380"/>
<polygon fill="none" stroke="black" points="453.5,-380 453.5,-627 764.5,-627 764.5,-380 453.5,-380"/>
<text text-anchor="start" x="464.5" y="-604.8" font-family="Arial" font-size="14.00">PacketSourceIsNotDot</text>
<text text-anchor="start" x="464.5" y="-589.8" font-family="Arial" font-size="14.00">MsgDotNotTheNextDot</text>
<text text-anchor="start" x="464.5" y="-574.8" font-family="Arial" font-size="14.00">SourceAlreadyHasPendingMsg</text>
<text text-anchor="start" x="464.5" y="-559.8" font-family="Arial" font-size="14.00">MessageFromDifferentGeneration</text>
<text text-anchor="start" x="464.5" y="-544.8" font-family="Arial" font-size="14.00">SourceIsNotVotingMember</text>
<text text-anchor="start" x="464.5" y="-529.8" font-family="Arial" font-size="14.00">DataTypeFailedValidation(V)</text>
<text text-anchor="start" x="464.5" y="-514.8" font-family="Arial" font-size="14.00">InvalidSignature</text>
<text text-anchor="start" x="464.5" y="-499.8" font-family="Arial" font-size="14.00">SignedValidatedForPacketWeDidNotRequest</text>
<text text-anchor="start" x="464.5" y="-484.8" font-family="Arial" font-size="14.00">MsgDotNotNextDotToBeDelivered</text>
<text text-anchor="start" x="464.5" y="-469.8" font-family="Arial" font-size="14.00">NotEnoughSignaturesToFormQuorum</text>
<text text-anchor="start" x="464.5" y="-454.8" font-family="Arial" font-size="14.00">ProofContainsSignaturesFromNonMembers</text>
<text text-anchor="start" x="464.5" y="-439.8" font-family="Arial" font-size="14.00">ProofContainsInvalidSignatures</text>
<text text-anchor="start" x="464.5" y="-424.8" font-family="Arial" font-size="14.00">DeliveredForPacketWeDidNotInitiate</text>
<text text-anchor="start" x="464.5" y="-409.8" font-family="Arial" font-size="14.00">DeliveredForPacketWeAreNotWaitingOn</text>
<text text-anchor="start" x="464.5" y="-394.8" font-family="Arial" font-size="14.00">PhantomSig(core::marker::PhantomData&lt;S&gt;)</text>
<polygon fill="none" stroke="black" points="452,-379 452,-665 765,-665 765,-379 452,-379"/>
</a>
</g>
</g>
<!-- ndValidationError&#45;&gt;ndError -->
<g id="edge2" class="edge"><title>ndValidationError&#45;&gt;ndError</title>
<path fill="none" stroke="black" d="M618.634,-374.647C619.188,-366.656 619.731,-358.805 620.256,-351.234"/>
<polygon fill="black" stroke="black" points="620.261,-351.163 616.685,-344.901 621.09,-339.191 624.666,-345.453 620.261,-351.163"/>
</g>
<!-- ndBRBDataType -->
<g id="node3" class="node"><title>ndBRBDataType</title>
<g id="a_node3_3"><a xlink:href="https://github.com/maidsafe/brb/blob/master/src/brb_data_type.rs#:~:text=trait%20BRBDataType" xlink:title="&lt;TABLE&gt;">
<polygon fill="lightgreen" stroke="none" points="1177.5,-503 1177.5,-540 1296.5,-540 1296.5,-503 1177.5,-503"/>
<polygon fill="none" stroke="black" points="1177.5,-503 1177.5,-540 1296.5,-540 1296.5,-503 1177.5,-503"/>
<text text-anchor="start" x="1188.5" y="-518.8" font-family="Arial" font-weight="bold" font-size="14.00">BRBDataType</text>
<polygon fill="none" stroke="black" points="1176,-502.5 1176,-541.5 1297,-541.5 1297,-502.5 1176,-502.5"/>
</a>
</g>
</g>
<!-- ndBRBDT -->
<g id="node4" class="node"><title>ndBRBDT</title>
<g id="a_node4_4"><a xlink:href="https://github.com/maidsafe/brb/blob/master/src/net.rs#:~:text=trait%20BRBDT" xlink:title="&lt;TABLE&gt;">
<polygon fill="lightgreen" stroke="none" points="364.5,-255.5 364.5,-292.5 438.5,-292.5 438.5,-255.5 364.5,-255.5"/>
<polygon fill="none" stroke="black" points="364.5,-255.5 364.5,-292.5 438.5,-292.5 438.5,-255.5 364.5,-255.5"/>
<text text-anchor="start" x="375.5" y="-271.3" font-family="Arial" font-weight="bold" font-size="14.00">BRBDT</text>
<polygon fill="none" stroke="black" points="363.5,-255 363.5,-294 439.5,-294 439.5,-255 363.5,-255"/>
</a>
</g>
</g>
<!-- ndBRBDT&#45;&gt;ndDeterministicBRB -->
<g id="edge3" class="edge"><title>ndBRBDT&#45;&gt;ndDeterministicBRB</title>
<path fill="none" stroke="black" d="M401.5,-250.754C401.5,-234.201 401.5,-210.537 401.5,-186.362"/>
<polygon fill="black" stroke="black" points="401.5,-186.098 397.5,-180.098 401.5,-174.098 405.5,-180.098 401.5,-186.098"/>
</g>
<!-- ndNet -->
<g id="node5" class="node"><title>ndNet</title>
<g id="a_node5_5"><a xlink:href="https://github.com/maidsafe/brb/blob/master/src/net.rs#:~:text=struct%20Net" xlink:title="&lt;TABLE&gt;">
<polygon fill="lightblue" stroke="none" points="784.5,-109 784.5,-146 1089.5,-146 1089.5,-109 784.5,-109"/>
<polygon fill="none" stroke="black" points="784.5,-109 784.5,-146 1089.5,-146 1089.5,-109 784.5,-109"/>
<text text-anchor="start" x="925.5" y="-124.8" font-family="Arial" font-weight="bold" font-size="14.00">Net</text>
<polygon fill="white" stroke="none" points="784.5,-27 784.5,-109 1089.5,-109 1089.5,-27 784.5,-27"/>
<polygon fill="none" stroke="black" points="784.5,-27 784.5,-109 1089.5,-109 1089.5,-27 784.5,-27"/>
<text text-anchor="start" x="795.5" y="-86.8" font-family="Arial" font-size="14.00">+ procs: Vec&lt;State&lt;DT&gt;&gt;</text>
<text text-anchor="start" x="795.5" y="-71.8" font-family="Arial" font-size="14.00">+ delivered_packets: Vec&lt;Packet&lt;DT::Op&gt;&gt;</text>
<text text-anchor="start" x="795.5" y="-56.8" font-family="Arial" font-size="14.00">+ n_packets: u64</text>
<text text-anchor="start" x="795.5" y="-41.8" font-family="Arial" font-size="14.00">+ invalid_packets: HashMap&lt;Actor, u64&gt;</text>
<polygon fill="none" stroke="black" points="783,-26.5 783,-147.5 1090,-147.5 1090,-26.5 783,-26.5"/>
</a>
</g>
</g>
<!-- ndMsg -->
<g id="node7" class="node"><title>ndMsg</title>
<g id="a_node7_6"><a xlink:href="https://github.com/maidsafe/brb/blob/master/src/deterministic_brb.rs#:~:text=struct%20Msg" xlink:title="&lt;TABLE&gt;">
<polygon fill="lightblue" stroke="none" points="9.5,-289.5 9.5,-326.5 148.5,-326.5 148.5,-289.5 9.5,-289.5"/>
<polygon fill="none" stroke="black" points="9.5,-289.5 9.5,-326.5 148.5,-326.5 148.5,-289.5 9.5,-289.5"/>
<text text-anchor="start" x="63.5" y="-305.3" font-family="Arial" font-weight="bold" font-size="14.00">Msg</text>
<polygon fill="white" stroke="none" points="9.5,-222.5 9.5,-289.5 148.5,-289.5 148.5,-222.5 9.5,-222.5"/>
<polygon fill="none" stroke="black" points="9.5,-222.5 9.5,-289.5 148.5,-289.5 148.5,-222.5 9.5,-222.5"/>
<text text-anchor="start" x="20.5" y="-267.3" font-family="Arial" font-size="14.00">+ gen: Generation</text>
<text text-anchor="start" x="20.5" y="-252.3" font-family="Arial" font-size="14.00">+ op: DataTypeOp</text>
<text text-anchor="start" x="20.5" y="-237.3" font-family="Arial" font-size="14.00">+ dot: Dot&lt;A&gt;</text>
<polygon fill="none" stroke="black" points="8,-221.5 8,-327.5 149,-327.5 149,-221.5 8,-221.5"/>
</a>
</g>
</g>
<!-- ndMsg&#45;&gt;ndDeterministicBRB -->
<g id="edge4" class="edge"><title>ndMsg&#45;&gt;ndDeterministicBRB</title>
<path fill="none" stroke="black" d="M154.838,-217.411C158.748,-214.855 162.65,-212.371 166.5,-210 182.87,-199.92 200.162,-189.877 217.639,-180.129"/>
<polygon fill="black" stroke="black" points="218.038,-179.908 221.352,-173.503 228.539,-174.099 225.225,-180.504 218.038,-179.908"/>
</g>
<!-- ndOp -->
<g id="node8" class="node"><title>ndOp</title>
<g id="a_node8_7"><a xlink:href="https://github.com/maidsafe/brb/blob/master/src/deterministic_brb.rs#:~:text=enum%20Op" xlink:title="&lt;TABLE&gt;">
<polygon fill="yellow" stroke="none" points="184.5,-296.5 184.5,-333.5 328.5,-333.5 328.5,-296.5 184.5,-296.5"/>
<polygon fill="none" stroke="black" points="184.5,-296.5 184.5,-333.5 328.5,-333.5 328.5,-296.5 184.5,-296.5"/>
<text text-anchor="start" x="246" y="-312.3" font-family="Arial" font-weight="bold" font-size="14.00">Op</text>
<polygon fill="white" stroke="none" points="184.5,-214.5 184.5,-296.5 328.5,-296.5 328.5,-214.5 184.5,-214.5"/>
<polygon fill="none" stroke="black" points="184.5,-214.5 184.5,-296.5 328.5,-296.5 328.5,-214.5 184.5,-214.5"/>
<text text-anchor="start" x="195.5" y="-274.3" font-family="Arial" font-size="14.00">RequestValidation</text>
<text text-anchor="start" x="195.5" y="-259.3" font-family="Arial" font-size="14.00">SignedValidated</text>
<text text-anchor="start" x="195.5" y="-244.3" font-family="Arial" font-size="14.00">ProofOfAgreement</text>
<text text-anchor="start" x="195.5" y="-229.3" font-family="Arial" font-size="14.00">Delivered</text>
<polygon fill="none" stroke="black" points="183.5,-214 183.5,-335 329.5,-335 329.5,-214 183.5,-214"/>
</a>
</g>
</g>
<!-- ndOp&#45;&gt;ndDeterministicBRB -->
<g id="edge5" class="edge"><title>ndOp&#45;&gt;ndDeterministicBRB</title>
<path fill="none" stroke="black" stroke-dasharray="5,2" d="M306.198,-209.921C313.243,-200.908 320.608,-191.486 327.987,-182.045"/>
<polygon fill="black" stroke="black" points="334.183,-174.12 331.569,-184.77 331.103,-178.059 328.024,-181.999 328.024,-181.999 328.024,-181.999 331.103,-178.059 324.479,-179.227 334.183,-174.12 334.183,-174.12"/>
</g>
<!-- ndPacket -->
<g id="node9" class="node"><title>ndPacket</title>
<g id="a_node9_8"><a xlink:href="https://github.com/maidsafe/brb/blob/master/src/packet.rs#:~:text=struct%20Packet" xlink:title="&lt;TABLE&gt;">
<polygon fill="lightblue" stroke="none" points="830.5,-296.5 830.5,-333.5 1043.5,-333.5 1043.5,-296.5 830.5,-296.5"/>
<polygon fill="none" stroke="black" points="830.5,-296.5 830.5,-333.5 1043.5,-333.5 1043.5,-296.5 830.5,-296.5"/>
<text text-anchor="start" x="913" y="-312.3" font-family="Arial" font-weight="bold" font-size="14.00">Packet</text>
<polygon fill="white" stroke="none" points="830.5,-214.5 830.5,-296.5 1043.5,-296.5 1043.5,-214.5 830.5,-214.5"/>
<polygon fill="none" stroke="black" points="830.5,-214.5 830.5,-296.5 1043.5,-296.5 1043.5,-214.5 830.5,-214.5"/>
<text text-anchor="start" x="841.5" y="-274.3" font-family="Arial" font-size="14.00">+ source: A</text>
<text text-anchor="start" x="841.5" y="-259.3" font-family="Arial" font-size="14.00">+ dest: A</text>
<text text-anchor="start" x="841.5" y="-244.3" font-family="Arial" font-size="14.00">+ payload: Payload&lt;A, S, Op&gt;</text>
<text text-anchor="start" x="841.5" y="-229.3" font-family="Arial" font-size="14.00">+ sig: S</text>
<polygon fill="none" stroke="black" points="829,-214 829,-335 1044,-335 1044,-214 829,-214"/>
</a>
</g>
</g>
<!-- ndPacket&#45;&gt;ndNet -->
<g id="edge6" class="edge"><title>ndPacket&#45;&gt;ndNet</title>
<path fill="none" stroke="black" d="M936.5,-209.921C936.5,-195.107 936.5,-179.189 936.5,-163.902"/>
<polygon fill="black" stroke="black" points="936.5,-163.811 932.5,-157.811 936.5,-151.811 940.5,-157.811 936.5,-163.811"/>
</g>
<!-- ndPacket&#45;&gt;ndDeterministicBRB -->
<g id="edge7" class="edge"><title>ndPacket&#45;&gt;ndDeterministicBRB</title>
<path fill="none" stroke="black" d="M820.73,-220.375C811.904,-216.741 803.091,-213.241 794.5,-210 764.818,-198.802 733.608,-187.818 702.294,-177.311"/>
<polygon fill="black" stroke="black" points="692.574,-174.065 703.484,-172.964 697.316,-175.649 702.059,-177.232 702.059,-177.232 702.059,-177.232 697.316,-175.649 700.634,-181.501 692.574,-174.065 692.574,-174.065"/>
</g>
<!-- ndPayload -->
<g id="node10" class="node"><title>ndPayload</title>
<g id="a_node10_9"><a xlink:href="https://github.com/maidsafe/brb/blob/master/src/packet.rs#:~:text=enum%20Payload" xlink:title="&lt;TABLE&gt;">
<polygon fill="yellow" stroke="none" points="800.5,-537 800.5,-574 1141.5,-574 1141.5,-537 800.5,-537"/>
<polygon fill="none" stroke="black" points="800.5,-537 800.5,-574 1141.5,-574 1141.5,-537 800.5,-537"/>
<text text-anchor="start" x="942.5" y="-552.8" font-family="Arial" font-weight="bold" font-size="14.00">Payload</text>
<polygon fill="white" stroke="none" points="800.5,-470 800.5,-537 1141.5,-537 1141.5,-470 800.5,-470"/>
<polygon fill="none" stroke="black" points="800.5,-470 800.5,-537 1141.5,-537 1141.5,-470 800.5,-470"/>
<text text-anchor="start" x="811.5" y="-514.8" font-family="Arial" font-size="14.00">AntiEntropy</text>
<text text-anchor="start" x="811.5" y="-499.8" font-family="Arial" font-size="14.00">BRB(deterministic_brb::Op&lt;A, S, DataTypeOp&gt;)</text>
<text text-anchor="start" x="811.5" y="-484.8" font-family="Arial" font-size="14.00">Membership(Box&lt;brb_membership::Vote&lt;A, S&gt;&gt;)</text>
<polygon fill="none" stroke="black" points="799,-469 799,-575 1142,-575 1142,-469 799,-469"/>
</a>
</g>
</g>
<!-- ndPayload&#45;&gt;ndPacket -->
<g id="edge8" class="edge"><title>ndPayload&#45;&gt;ndPacket</title>
<path fill="none" stroke="black" d="M962.742,-464.985C958.076,-431.292 952.075,-387.961 946.99,-351.241"/>
<polygon fill="black" stroke="black" points="946.95,-350.951 942.164,-345.557 945.303,-339.065 950.089,-344.459 946.95,-350.951"/>
</g>
</g>
</svg>
