<?xml version="1.0" encoding="UTF-8" standalone="no"?>
<!DOCTYPE svg PUBLIC "-//W3C//DTD SVG 1.1//EN"
 "http://www.w3.org/Graphics/SVG/1.1/DTD/svg11.dtd">
<!-- Generated by graphviz version 2.38.0 (20140413.2041)
 -->
<!-- Title: ml Pages: 1 -->
<svg width="659pt" height="221pt"
 viewBox="0.00 0.00 659.00 221.00" xmlns="http://www.w3.org/2000/svg" xmlns:xlink="http://www.w3.org/1999/xlink">
<g id="graph0" class="graph" transform="scale(1 1) rotate(0) translate(4 217)">
<title>ml</title>
<polygon fill="white" stroke="none" points="-4,4 -4,-217 655,-217 655,4 -4,4"/>
<!-- ndError -->
<g id="node1" class="node"><title>ndError</title>
<g id="a_node1_0"><a xlink:href="https://github.com/maidsafe/brb/blob/master/src/error.rs#:~:text=enum%20Error" xlink:title="&lt;TABLE&gt;">
<polygon fill="yellow" stroke="none" points="288.5,-87.5 288.5,-124.5 347.5,-124.5 347.5,-87.5 288.5,-87.5"/>
<polygon fill="none" stroke="black" points="288.5,-87.5 288.5,-124.5 347.5,-124.5 347.5,-87.5 288.5,-87.5"/>
<text text-anchor="start" x="299.5" y="-103.3" font-family="Arial" font-weight="bold" font-size="14.00">Error</text>
<polygon fill="none" stroke="black" points="287,-87 287,-126 348,-126 348,-87 287,-87"/>
</a>
</g>
</g>
<!-- ndDeterministicBRB -->
<g id="node6" class="node"><title>ndDeterministicBRB</title>
<g id="a_node6_1"><a xlink:href="https://github.com/maidsafe/brb/blob/master/src/deterministic_brb.rs#:~:text=struct%20DeterministicBRB" xlink:title="&lt;TABLE&gt;">
<polygon fill="lightblue" stroke="none" points="142.5,-4.5 142.5,-41.5 287.5,-41.5 287.5,-4.5 142.5,-4.5"/>
<polygon fill="none" stroke="black" points="142.5,-4.5 142.5,-41.5 287.5,-41.5 287.5,-4.5 142.5,-4.5"/>
<text text-anchor="start" x="153.5" y="-20.3" font-family="Arial" font-weight="bold" font-size="14.00">DeterministicBRB</text>
<polygon fill="none" stroke="black" points="141,-4 141,-43 288,-43 288,-4 141,-4"/>
</a>
</g>
</g>
<!-- ndError&#45;&gt;ndDeterministicBRB -->
<g id="edge1" class="edge"><title>ndError&#45;&gt;ndDeterministicBRB</title>
<path fill="none" stroke="black" d="M288.809,-82.937C277.187,-73.7979 263.624,-63.1317 251.29,-53.4318"/>
<polygon fill="black" stroke="black" points="243.395,-47.2229 254.037,-49.8673 247.325,-50.3138 251.255,-53.4046 251.255,-53.4046 251.255,-53.4046 247.325,-50.3138 248.473,-56.9418 243.395,-47.2229 243.395,-47.2229"/>
</g>
<!-- ndValidationError -->
<g id="node2" class="node"><title>ndValidationError</title>
<g id="a_node2_2"><a xlink:href="https://github.com/maidsafe/brb/blob/master/src/error.rs#:~:text=enum%20ValidationError" xlink:title="&lt;TABLE&gt;">
<polygon fill="yellow" stroke="none" points="243.5,-170.5 243.5,-207.5 371.5,-207.5 371.5,-170.5 243.5,-170.5"/>
<polygon fill="none" stroke="black" points="243.5,-170.5 243.5,-207.5 371.5,-207.5 371.5,-170.5 243.5,-170.5"/>
<text text-anchor="start" x="254.5" y="-186.3" font-family="Arial" font-weight="bold" font-size="14.00">ValidationError</text>
<polygon fill="none" stroke="black" points="242.5,-170 242.5,-209 372.5,-209 372.5,-170 242.5,-170"/>
</a>
</g>
</g>
<!-- ndValidationError&#45;&gt;ndError -->
<g id="edge2" class="edge"><title>ndValidationError&#45;&gt;ndError</title>
<path fill="none" stroke="black" d="M310.286,-165.937C311.188,-158.626 312.211,-150.337 313.198,-142.348"/>
<polygon fill="black" stroke="black" points="313.224,-142.133 309.99,-135.688 314.695,-130.223 317.929,-136.668 313.224,-142.133"/>
</g>
<!-- ndBRBDataType -->
<g id="node3" class="node"><title>ndBRBDataType</title>
<g id="a_node3_3"><a xlink:href="https://github.com/maidsafe/brb/blob/master/src/brb_data_type.rs#:~:text=trait%20BRBDataType" xlink:title="&lt;TABLE&gt;">
<polygon fill="lightgreen" stroke="none" points="523.5,-170.5 523.5,-207.5 642.5,-207.5 642.5,-170.5 523.5,-170.5"/>
<polygon fill="none" stroke="black" points="523.5,-170.5 523.5,-207.5 642.5,-207.5 642.5,-170.5 523.5,-170.5"/>
<text text-anchor="start" x="534.5" y="-186.3" font-family="Arial" font-weight="bold" font-size="14.00">BRBDataType</text>
<polygon fill="none" stroke="black" points="522,-170 522,-209 643,-209 643,-170 522,-170"/>
</a>
</g>
</g>
<!-- ndBRBDT -->
<g id="node4" class="node"><title>ndBRBDT</title>
<g id="a_node4_4"><a xlink:href="https://github.com/maidsafe/brb/blob/master/src/net.rs#:~:text=trait%20BRBDT" xlink:title="&lt;TABLE&gt;">
<polygon fill="lightgreen" stroke="none" points="177.5,-87.5 177.5,-124.5 251.5,-124.5 251.5,-87.5 177.5,-87.5"/>
<polygon fill="none" stroke="black" points="177.5,-87.5 177.5,-124.5 251.5,-124.5 251.5,-87.5 177.5,-87.5"/>
<text text-anchor="start" x="188.5" y="-103.3" font-family="Arial" font-weight="bold" font-size="14.00">BRBDT</text>
<polygon fill="none" stroke="black" points="176.5,-87 176.5,-126 252.5,-126 252.5,-87 176.5,-87"/>
</a>
</g>
</g>
<!-- ndBRBDT&#45;&gt;ndDeterministicBRB -->
<g id="edge3" class="edge"><title>ndBRBDT&#45;&gt;ndDeterministicBRB</title>
<path fill="none" stroke="black" d="M214.5,-82.937C214.5,-75.6257 214.5,-67.3371 214.5,-59.3477"/>
<polygon fill="black" stroke="black" points="214.5,-59.2229 210.5,-53.223 214.5,-47.2229 218.5,-53.2229 214.5,-59.2229"/>
</g>
<!-- ndNet -->
<g id="node5" class="node"><title>ndNet</title>
<g id="a_node5_5"><a xlink:href="https://github.com/maidsafe/brb/blob/master/src/net.rs#:~:text=struct%20Net" xlink:title="&lt;TABLE&gt;">
<polygon fill="lightblue" stroke="none" points="406.5,-4.5 406.5,-41.5 451.5,-41.5 451.5,-4.5 406.5,-4.5"/>
<polygon fill="none" stroke="black" points="406.5,-4.5 406.5,-41.5 451.5,-41.5 451.5,-4.5 406.5,-4.5"/>
<text text-anchor="start" x="417.5" y="-20.3" font-family="Arial" font-weight="bold" font-size="14.00">Net</text>
<polygon fill="none" stroke="black" points="405,-4 405,-43 452,-43 452,-4 405,-4"/>
</a>
</g>
</g>
<!-- ndMsg -->
<g id="node7" class="node"><title>ndMsg</title>
<g id="a_node7_6"><a xlink:href="https://github.com/maidsafe/brb/blob/master/src/deterministic_brb.rs#:~:text=struct%20Msg" xlink:title="&lt;TABLE&gt;">
<polygon fill="lightblue" stroke="none" points="9.5,-87.5 9.5,-124.5 62.5,-124.5 62.5,-87.5 9.5,-87.5"/>
<polygon fill="none" stroke="black" points="9.5,-87.5 9.5,-124.5 62.5,-124.5 62.5,-87.5 9.5,-87.5"/>
<text text-anchor="start" x="20.5" y="-103.3" font-family="Arial" font-weight="bold" font-size="14.00">Msg</text>
<polygon fill="none" stroke="black" points="8,-87 8,-126 63,-126 63,-87 8,-87"/>
</a>
</g>
</g>
<!-- ndMsg&#45;&gt;ndDeterministicBRB -->
<g id="edge4" class="edge"><title>ndMsg&#45;&gt;ndDeterministicBRB</title>
<path fill="none" stroke="black" d="M71.4258,-86.8932C74.1482,-85.5555 76.8617,-84.2446 79.5,-83 101.927,-72.42 126.758,-61.4517 148.944,-51.911"/>
<polygon fill="black" stroke="black" points="149.246,-51.782 153.189,-45.7443 160.279,-47.0617 156.336,-53.0994 149.246,-51.782"/>
</g>
<!-- ndOp -->
<g id="node8" class="node"><title>ndOp</title>
<g id="a_node8_7"><a xlink:href="https://github.com/maidsafe/brb/blob/master/src/deterministic_brb.rs#:~:text=enum%20Op" xlink:title="&lt;TABLE&gt;">
<polygon fill="yellow" stroke="none" points="98.5,-87.5 98.5,-124.5 141.5,-124.5 141.5,-87.5 98.5,-87.5"/>
<polygon fill="none" stroke="black" points="98.5,-87.5 98.5,-124.5 141.5,-124.5 141.5,-87.5 98.5,-87.5"/>
<text text-anchor="start" x="109.5" y="-103.3" font-family="Arial" font-weight="bold" font-size="14.00">Op</text>
<polygon fill="none" stroke="black" points="97,-87 97,-126 142,-126 142,-87 97,-87"/>
</a>
</g>
</g>
<!-- ndOp&#45;&gt;ndDeterministicBRB -->
<g id="edge5" class="edge"><title>ndOp&#45;&gt;ndDeterministicBRB</title>
<path fill="none" stroke="black" stroke-dasharray="5,2" d="M145.963,-82.937C156.477,-73.9719 168.715,-63.5374 179.916,-53.9871"/>
<polygon fill="black" stroke="black" points="187.85,-47.2229 183.16,-57.1354 184.045,-50.467 180.24,-53.7111 180.24,-53.7111 180.24,-53.7111 184.045,-50.467 177.32,-50.2868 187.85,-47.2229 187.85,-47.2229"/>
</g>
<!-- ndPacket -->
<g id="node9" class="node"><title>ndPacket</title>
<g id="a_node9_8"><a xlink:href="https://github.com/maidsafe/brb/blob/master/src/packet.rs#:~:text=struct%20Packet" xlink:title="&lt;TABLE&gt;">
<polygon fill="lightblue" stroke="none" points="393.5,-87.5 393.5,-124.5 463.5,-124.5 463.5,-87.5 393.5,-87.5"/>
<polygon fill="none" stroke="black" points="393.5,-87.5 393.5,-124.5 463.5,-124.5 463.5,-87.5 393.5,-87.5"/>
<text text-anchor="start" x="404.5" y="-103.3" font-family="Arial" font-weight="bold" font-size="14.00">Packet</text>
<polygon fill="none" stroke="black" points="392.5,-87 392.5,-126 464.5,-126 464.5,-87 392.5,-87"/>
</a>
</g>
</g>
<!-- ndPacket&#45;&gt;ndNet -->
<g id="edge6" class="edge"><title>ndPacket&#45;&gt;ndNet</title>
<path fill="none" stroke="black" d="M428.5,-82.937C428.5,-75.6257 428.5,-67.3371 428.5,-59.3477"/>
<polygon fill="black" stroke="black" points="428.5,-59.2229 424.5,-53.223 428.5,-47.2229 432.5,-53.2229 428.5,-59.2229"/>
</g>
<!-- ndPacket&#45;&gt;ndDeterministicBRB -->
<g id="edge7" class="edge"><title>ndPacket&#45;&gt;ndDeterministicBRB</title>
<path fill="none" stroke="black" d="M384.419,-88.815C355.353,-77.8135 316.681,-63.1759 283.573,-50.6445"/>
<polygon fill="black" stroke="black" points="273.946,-47.0006 284.892,-46.332 278.622,-48.7706 283.299,-50.5406 283.299,-50.5406 283.299,-50.5406 278.622,-48.7706 281.706,-54.7492 273.946,-47.0006 273.946,-47.0006"/>
</g>
<!-- ndPayload -->
<g id="node10" class="node"><title>ndPayload</title>
<g id="a_node10_9"><a xlink:href="https://github.com/maidsafe/brb/blob/master/src/packet.rs#:~:text=enum%20Payload" xlink:title="&lt;TABLE&gt;">
<polygon fill="yellow" stroke="none" points="408.5,-170.5 408.5,-207.5 487.5,-207.5 487.5,-170.5 408.5,-170.5"/>
<polygon fill="none" stroke="black" points="408.5,-170.5 408.5,-207.5 487.5,-207.5 487.5,-170.5 408.5,-170.5"/>
<text text-anchor="start" x="419.5" y="-186.3" font-family="Arial" font-weight="bold" font-size="14.00">Payload</text>
<polygon fill="none" stroke="black" points="407,-170 407,-209 488,-209 488,-170 407,-170"/>
</a>
</g>
</g>
<!-- ndPayload&#45;&gt;ndPacket -->
<g id="edge8" class="edge"><title>ndPayload&#45;&gt;ndPacket</title>
<path fill="none" stroke="black" d="M442.207,-165.937C440.472,-158.539 438.502,-150.14 436.607,-142.063"/>
<polygon fill="black" stroke="black" points="436.571,-141.906 431.306,-136.978 433.83,-130.223 439.095,-135.151 436.571,-141.906"/>
</g>
</g>
</svg>
