<?xml version="1.0" encoding="UTF-8" standalone="no"?>
<!DOCTYPE svg PUBLIC "-//W3C//DTD SVG 1.1//EN"
 "http://www.w3.org/Graphics/SVG/1.1/DTD/svg11.dtd">
<!-- Generated by graphviz version 2.38.0 (20140413.2041)
 -->
<!-- Title: ml Pages: 1 -->
<svg width="640pt" height="210pt"
 viewBox="0.00 0.00 640.00 210.00" xmlns="http://www.w3.org/2000/svg" xmlns:xlink="http://www.w3.org/1999/xlink">
<g id="graph0" class="graph" transform="scale(1 1) rotate(0) translate(4 206)">
<title>ml</title>
<polygon fill="white" stroke="none" points="-4,4 -4,-206 636,-206 636,4 -4,4"/>
<!-- ndError -->
<g id="node1" class="node"><title>ndError</title>
<g id="a_node1_0"><a xlink:href="https://github.com/maidsafe/brb/blob/master/src/error.rs#:~:text=enum%20Error" xlink:title="&lt;TABLE&gt;">
<polygon fill="yellow" stroke="none" points="272.5,-76.5 272.5,-113.5 331.5,-113.5 331.5,-76.5 272.5,-76.5"/>
<polygon fill="none" stroke="black" points="272.5,-76.5 272.5,-113.5 331.5,-113.5 331.5,-76.5 272.5,-76.5"/>
<text text-anchor="start" x="283.5" y="-92.3" font-family="Arial" font-weight="bold" font-size="14.00">Error</text>
<polygon fill="none" stroke="black" points="271,-76 271,-115 332,-115 332,-76 271,-76"/>
</a>
</g>
</g>
<!-- ndDeterministicBRB -->
<g id="node6" class="node"><title>ndDeterministicBRB</title>
<text text-anchor="middle" x="198.5" y="-14.3" font-family="Times,serif" font-size="14.00">ndDeterministicBRB</text>
</g>
<!-- ndError&#45;&gt;ndDeterministicBRB -->
<g id="edge1" class="edge"><title>ndError&#45;&gt;ndDeterministicBRB</title>
<path fill="none" stroke="black" d="M270.597,-71.8475C257.764,-62.441 242.888,-51.5371 229.994,-42.0855"/>
<polygon fill="black" stroke="black" points="221.848,-36.1144 232.574,-38.397 225.881,-39.0704 229.913,-42.0264 229.913,-42.0264 229.913,-42.0264 225.881,-39.0704 227.253,-45.6558 221.848,-36.1144 221.848,-36.1144"/>
</g>
<!-- ndValidationError -->
<g id="node2" class="node"><title>ndValidationError</title>
<g id="a_node2_1"><a xlink:href="https://github.com/maidsafe/brb/blob/master/src/error.rs#:~:text=enum%20ValidationError" xlink:title="&lt;TABLE&gt;">
<polygon fill="yellow" stroke="none" points="224.5,-159.5 224.5,-196.5 352.5,-196.5 352.5,-159.5 224.5,-159.5"/>
<polygon fill="none" stroke="black" points="224.5,-159.5 224.5,-196.5 352.5,-196.5 352.5,-159.5 224.5,-159.5"/>
<text text-anchor="start" x="235.5" y="-175.3" font-family="Arial" font-weight="bold" font-size="14.00">ValidationError</text>
<polygon fill="none" stroke="black" points="223.5,-159 223.5,-198 353.5,-198 353.5,-159 223.5,-159"/>
</a>
</g>
</g>
<!-- ndValidationError&#45;&gt;ndError -->
<g id="edge2" class="edge"><title>ndValidationError&#45;&gt;ndError</title>
<path fill="none" stroke="black" d="M292.121,-154.937C293.295,-147.626 294.625,-139.337 295.907,-131.348"/>
<polygon fill="black" stroke="black" points="295.951,-131.071 292.953,-124.513 297.853,-119.223 300.852,-125.781 295.951,-131.071"/>
</g>
<!-- ndBRBDataType -->
<g id="node3" class="node"><title>ndBRBDataType</title>
<g id="a_node3_2"><a xlink:href="https://github.com/maidsafe/brb/blob/master/src/brb_data_type.rs#:~:text=trait%20BRBDataType" xlink:title="&lt;TABLE&gt;">
<polygon fill="lightgreen" stroke="none" points="504.5,-159.5 504.5,-196.5 623.5,-196.5 623.5,-159.5 504.5,-159.5"/>
<polygon fill="none" stroke="black" points="504.5,-159.5 504.5,-196.5 623.5,-196.5 623.5,-159.5 504.5,-159.5"/>
<text text-anchor="start" x="515.5" y="-175.3" font-family="Arial" font-weight="bold" font-size="14.00">BRBDataType</text>
<polygon fill="none" stroke="black" points="503,-159 503,-198 624,-198 624,-159 503,-159"/>
</a>
</g>
</g>
<!-- ndBRBDT -->
<g id="node4" class="node"><title>ndBRBDT</title>
<g id="a_node4_3"><a xlink:href="https://github.com/maidsafe/brb/blob/master/src/net.rs#:~:text=trait%20BRBDT" xlink:title="&lt;TABLE&gt;">
<polygon fill="lightgreen" stroke="none" points="161.5,-76.5 161.5,-113.5 235.5,-113.5 235.5,-76.5 161.5,-76.5"/>
<polygon fill="none" stroke="black" points="161.5,-76.5 161.5,-113.5 235.5,-113.5 235.5,-76.5 161.5,-76.5"/>
<text text-anchor="start" x="172.5" y="-92.3" font-family="Arial" font-weight="bold" font-size="14.00">BRBDT</text>
<polygon fill="none" stroke="black" points="160.5,-76 160.5,-115 236.5,-115 236.5,-76 160.5,-76"/>
</a>
</g>
</g>
<!-- ndBRBDT&#45;&gt;ndDeterministicBRB -->
<g id="edge3" class="edge"><title>ndBRBDT&#45;&gt;ndDeterministicBRB</title>
<path fill="none" stroke="black" d="M198.5,-71.8475C198.5,-64.4119 198.5,-56.0406 198.5,-48.1906"/>
<polygon fill="black" stroke="black" points="198.5,-48.1144 194.5,-42.1145 198.5,-36.1144 202.5,-42.1144 198.5,-48.1144"/>
</g>
<!-- ndNet -->
<g id="node5" class="node"><title>ndNet</title>
<text text-anchor="middle" x="403.5" y="-14.3" font-family="Times,serif" font-size="14.00">ndNet</text>
</g>
<!-- ndMsg -->
<g id="node7" class="node"><title>ndMsg</title>
<text text-anchor="middle" x="27.5" y="-91.8" font-family="Times,serif" font-size="14.00">ndMsg</text>
</g>
<!-- ndMsg&#45;&gt;ndDeterministicBRB -->
<g id="edge4" class="edge"><title>ndMsg&#45;&gt;ndDeterministicBRB</title>
<path fill="none" stroke="black" d="M53.5224,-77.4584C56.8292,-75.525 60.2084,-73.657 63.5,-72 87.0796,-60.1304 113.989,-49.0935 137.545,-40.1981"/>
<polygon fill="black" stroke="black" points="137.563,-40.1915 141.792,-34.3511 148.81,-36.0091 144.581,-41.8495 137.563,-40.1915"/>
</g>
<!-- ndOp -->
<g id="node8" class="node"><title>ndOp</title>
<g id="a_node8_4"><a xlink:href="https://github.com/maidsafe/brb/blob/master/src/deterministic_brb.rs#:~:text=enum%20Op" xlink:title="&lt;TABLE&gt;">
<polygon fill="yellow" stroke="none" points="82.5,-76.5 82.5,-113.5 125.5,-113.5 125.5,-76.5 82.5,-76.5"/>
<polygon fill="none" stroke="black" points="82.5,-76.5 82.5,-113.5 125.5,-113.5 125.5,-76.5 82.5,-76.5"/>
<text text-anchor="start" x="93.5" y="-92.3" font-family="Arial" font-weight="bold" font-size="14.00">Op</text>
<polygon fill="none" stroke="black" points="81,-76 81,-115 126,-115 126,-76 81,-76"/>
</a>
</g>
</g>
<!-- ndOp&#45;&gt;ndDeterministicBRB -->
<g id="edge5" class="edge"><title>ndOp&#45;&gt;ndDeterministicBRB</title>
<path fill="none" stroke="black" stroke-dasharray="5,2" d="M132.003,-71.8475C143.726,-62.5306 157.298,-51.7447 169.112,-42.3559"/>
<polygon fill="black" stroke="black" points="176.965,-36.1144 171.936,-45.8592 173.051,-39.2253 169.137,-42.3363 169.137,-42.3363 169.137,-42.3363 173.051,-39.2253 166.337,-38.8133 176.965,-36.1144 176.965,-36.1144"/>
</g>
<!-- ndPacket -->
<g id="node9" class="node"><title>ndPacket</title>
<text text-anchor="middle" x="403.5" y="-91.8" font-family="Times,serif" font-size="14.00">ndPacket</text>
</g>
<!-- ndPacket&#45;&gt;ndNet -->
<g id="edge6" class="edge"><title>ndPacket&#45;&gt;ndNet</title>
<path fill="none" stroke="black" d="M403.5,-77.3679C403.5,-68.7766 403.5,-58.1301 403.5,-48.2916"/>
<polygon fill="black" stroke="black" points="403.5,-48.0643 399.5,-42.0644 403.5,-36.0643 407.5,-42.0643 403.5,-48.0643"/>
</g>
<!-- ndPacket&#45;&gt;ndDeterministicBRB -->
<g id="edge7" class="edge"><title>ndPacket&#45;&gt;ndDeterministicBRB</title>
<path fill="none" stroke="black" d="M370.493,-80.396C363.586,-77.5435 356.328,-74.6182 349.5,-72 319.913,-60.6544 286.718,-48.8983 259.002,-39.3495"/>
<polygon fill="black" stroke="black" points="249.442,-36.0683 260.361,-35.0584 254.171,-37.6915 258.9,-39.3147 258.9,-39.3147 258.9,-39.3147 254.171,-37.6915 257.439,-43.571 249.442,-36.0683 249.442,-36.0683"/>
</g>
<!-- ndPayload -->
<g id="node10" class="node"><title>ndPayload</title>
<g id="a_node10_5"><a xlink:href="https://github.com/maidsafe/brb/blob/master/src/packet.rs#:~:text=enum%20Payload" xlink:title="&lt;TABLE&gt;">
<polygon fill="yellow" stroke="none" points="389.5,-159.5 389.5,-196.5 468.5,-196.5 468.5,-159.5 389.5,-159.5"/>
<polygon fill="none" stroke="black" points="389.5,-159.5 389.5,-196.5 468.5,-196.5 468.5,-159.5 389.5,-159.5"/>
<text text-anchor="start" x="400.5" y="-175.3" font-family="Arial" font-weight="bold" font-size="14.00">Payload</text>
<polygon fill="none" stroke="black" points="388,-159 388,-198 469,-198 469,-159 388,-159"/>
</a>
</g>
</g>
<!-- ndPayload&#45;&gt;ndPacket -->
<g id="edge8" class="edge"><title>ndPayload&#45;&gt;ndPacket</title>
<path fill="none" stroke="black" d="M421.536,-154.937C418.692,-145.721 415.368,-134.952 412.354,-125.187"/>
<polygon fill="black" stroke="black" points="412.301,-125.014 406.709,-120.461 408.762,-113.548 414.353,-118.102 412.301,-125.014"/>
</g>
</g>
</svg>
