<?xml version="1.0" encoding="UTF-8" standalone="no"?>
<!DOCTYPE svg PUBLIC "-//W3C//DTD SVG 1.1//EN"
 "http://www.w3.org/Graphics/SVG/1.1/DTD/svg11.dtd">
<!-- Generated by graphviz version 2.38.0 (20140413.2041)
 -->
<!-- Title: ml Pages: 1 -->
<svg width="625pt" height="221pt"
 viewBox="0.00 0.00 625.00 221.00" xmlns="http://www.w3.org/2000/svg" xmlns:xlink="http://www.w3.org/1999/xlink">
<g id="graph0" class="graph" transform="scale(1 1) rotate(0) translate(4 217)">
<title>ml</title>
<polygon fill="white" stroke="none" points="-4,4 -4,-217 621,-217 621,4 -4,4"/>
<!-- ndError -->
<g id="node1" class="node"><title>ndError</title>
<polygon fill="yellow" stroke="none" points="149.5,-87.5 149.5,-124.5 208.5,-124.5 208.5,-87.5 149.5,-87.5"/>
<polygon fill="none" stroke="black" points="149.5,-87.5 149.5,-124.5 208.5,-124.5 208.5,-87.5 149.5,-87.5"/>
<text text-anchor="start" x="160.5" y="-103.3" font-family="Arial" font-weight="bold" font-size="14.00">Error</text>
<polygon fill="none" stroke="black" points="148,-87 148,-126 209,-126 209,-87 148,-87"/>
</g>
<!-- ndOp -->
<g id="node8" class="node"><title>ndOp</title>
<polygon fill="yellow" stroke="none" points="137.5,-4.5 137.5,-41.5 180.5,-41.5 180.5,-4.5 137.5,-4.5"/>
<polygon fill="none" stroke="black" points="137.5,-4.5 137.5,-41.5 180.5,-41.5 180.5,-4.5 137.5,-4.5"/>
<text text-anchor="start" x="148.5" y="-20.3" font-family="Arial" font-weight="bold" font-size="14.00">Op</text>
<polygon fill="none" stroke="black" points="136,-4 136,-43 181,-43 181,-4 136,-4"/>
</g>
<!-- ndError&#45;&gt;ndOp -->
<g id="edge1" class="edge"><title>ndError&#45;&gt;ndOp</title>
<path fill="none" stroke="black" d="M172.929,-82.937C170.952,-74.9294 168.685,-65.7494 166.543,-57.0743"/>
<polygon fill="black" stroke="black" points="164.111,-47.2229 170.877,-55.8526 165.309,-52.0772 166.508,-56.9314 166.508,-56.9314 166.508,-56.9314 165.309,-52.0772 162.139,-58.0101 164.111,-47.2229 164.111,-47.2229"/>
</g>
<!-- ndValidationError -->
<g id="node2" class="node"><title>ndValidationError</title>
<polygon fill="yellow" stroke="none" points="124.5,-170.5 124.5,-207.5 252.5,-207.5 252.5,-170.5 124.5,-170.5"/>
<polygon fill="none" stroke="black" points="124.5,-170.5 124.5,-207.5 252.5,-207.5 252.5,-170.5 124.5,-170.5"/>
<text text-anchor="start" x="135.5" y="-186.3" font-family="Arial" font-weight="bold" font-size="14.00">ValidationError</text>
<polygon fill="none" stroke="black" points="123.5,-170 123.5,-209 253.5,-209 253.5,-170 123.5,-170"/>
</g>
<!-- ndValidationError&#45;&gt;ndError -->
<g id="edge2" class="edge"><title>ndValidationError&#45;&gt;ndError</title>
<path fill="none" stroke="black" d="M185.714,-165.937C184.812,-158.626 183.789,-150.337 182.802,-142.348"/>
<polygon fill="black" stroke="black" points="182.776,-142.133 178.071,-136.668 181.305,-130.223 186.01,-135.688 182.776,-142.133"/>
</g>
<!-- ndBRBDataType -->
<g id="node3" class="node"><title>ndBRBDataType</title>
<polygon fill="lightgreen" stroke="none" points="289.5,-170.5 289.5,-207.5 408.5,-207.5 408.5,-170.5 289.5,-170.5"/>
<polygon fill="none" stroke="black" points="289.5,-170.5 289.5,-207.5 408.5,-207.5 408.5,-170.5 289.5,-170.5"/>
<text text-anchor="start" x="300.5" y="-186.3" font-family="Arial" font-weight="bold" font-size="14.00">BRBDataType</text>
<polygon fill="none" stroke="black" points="288,-170 288,-209 409,-209 409,-170 288,-170"/>
</g>
<!-- ndBRBDT -->
<g id="node4" class="node"><title>ndBRBDT</title>
<polygon fill="lightgreen" stroke="none" points="444.5,-170.5 444.5,-207.5 518.5,-207.5 518.5,-170.5 444.5,-170.5"/>
<polygon fill="none" stroke="black" points="444.5,-170.5 444.5,-207.5 518.5,-207.5 518.5,-170.5 444.5,-170.5"/>
<text text-anchor="start" x="455.5" y="-186.3" font-family="Arial" font-weight="bold" font-size="14.00">BRBDT</text>
<polygon fill="none" stroke="black" points="443.5,-170 443.5,-209 519.5,-209 519.5,-170 443.5,-170"/>
</g>
<!-- ndDeterministicBRB -->
<g id="node6" class="node"><title>ndDeterministicBRB</title>
<polygon fill="lightblue" stroke="none" points="459.5,-87.5 459.5,-124.5 604.5,-124.5 604.5,-87.5 459.5,-87.5"/>
<polygon fill="none" stroke="black" points="459.5,-87.5 459.5,-124.5 604.5,-124.5 604.5,-87.5 459.5,-87.5"/>
<text text-anchor="start" x="470.5" y="-103.3" font-family="Arial" font-weight="bold" font-size="14.00">DeterministicBRB</text>
<polygon fill="none" stroke="black" points="458,-87 458,-126 605,-126 605,-87 458,-87"/>
</g>
<!-- ndBRBDT&#45;&gt;ndDeterministicBRB -->
<g id="edge3" class="edge"><title>ndBRBDT&#45;&gt;ndDeterministicBRB</title>
<path fill="none" stroke="black" d="M495.428,-165.937C500.263,-158.103 505.791,-149.148 511.043,-140.641"/>
<polygon fill="black" stroke="black" points="511.17,-140.434 510.918,-133.227 517.473,-130.223 517.726,-137.43 511.17,-140.434"/>
</g>
<!-- ndNet -->
<g id="node5" class="node"><title>ndNet</title>
<polygon fill="lightblue" stroke="none" points="36.5,-4.5 36.5,-41.5 81.5,-41.5 81.5,-4.5 36.5,-4.5"/>
<polygon fill="none" stroke="black" points="36.5,-4.5 36.5,-41.5 81.5,-41.5 81.5,-4.5 36.5,-4.5"/>
<text text-anchor="start" x="47.5" y="-20.3" font-family="Arial" font-weight="bold" font-size="14.00">Net</text>
<polygon fill="none" stroke="black" points="35,-4 35,-43 82,-43 82,-4 35,-4"/>
</g>
<!-- ndMsg -->
<g id="node7" class="node"><title>ndMsg</title>
<polygon fill="lightblue" stroke="none" points="555.5,-170.5 555.5,-207.5 608.5,-207.5 608.5,-170.5 555.5,-170.5"/>
<polygon fill="none" stroke="black" points="555.5,-170.5 555.5,-207.5 608.5,-207.5 608.5,-170.5 555.5,-170.5"/>
<text text-anchor="start" x="566.5" y="-186.3" font-family="Arial" font-weight="bold" font-size="14.00">Msg</text>
<polygon fill="none" stroke="black" points="554,-170 554,-209 609,-209 609,-170 554,-170"/>
</g>
<!-- ndMsg&#45;&gt;ndDeterministicBRB -->
<g id="edge4" class="edge"><title>ndMsg&#45;&gt;ndDeterministicBRB</title>
<path fill="none" stroke="black" d="M567.572,-165.937C562.737,-158.103 557.209,-149.148 551.957,-140.641"/>
<polygon fill="black" stroke="black" points="551.83,-140.434 545.274,-137.43 545.527,-130.223 552.082,-133.227 551.83,-140.434"/>
</g>
<!-- ndPacket -->
<g id="node9" class="node"><title>ndPacket</title>
<polygon fill="lightblue" stroke="none" points="23.5,-87.5 23.5,-124.5 93.5,-124.5 93.5,-87.5 23.5,-87.5"/>
<polygon fill="none" stroke="black" points="23.5,-87.5 23.5,-124.5 93.5,-124.5 93.5,-87.5 23.5,-87.5"/>
<text text-anchor="start" x="34.5" y="-103.3" font-family="Arial" font-weight="bold" font-size="14.00">Packet</text>
<polygon fill="none" stroke="black" points="22.5,-87 22.5,-126 94.5,-126 94.5,-87 22.5,-87"/>
</g>
<!-- ndPacket&#45;&gt;ndNet -->
<g id="edge5" class="edge"><title>ndPacket&#45;&gt;ndNet</title>
<path fill="none" stroke="black" d="M58.5,-82.937C58.5,-75.6257 58.5,-67.3371 58.5,-59.3477"/>
<polygon fill="black" stroke="black" points="58.5001,-59.2229 54.5,-53.223 58.5,-47.2229 62.5,-53.2229 58.5001,-59.2229"/>
</g>
<!-- ndPacket&#45;&gt;ndOp -->
<g id="edge6" class="edge"><title>ndPacket&#45;&gt;ndOp</title>
<path fill="none" stroke="black" d="M86.3556,-82.937C97.531,-73.8849 110.556,-63.3347 122.439,-53.7092"/>
<polygon fill="black" stroke="black" points="130.447,-47.2229 125.509,-57.014 126.562,-50.3701 122.676,-53.5172 122.676,-53.5172 122.676,-53.5172 126.562,-50.3701 119.844,-50.0204 130.447,-47.2229 130.447,-47.2229"/>
</g>
<!-- ndPayload -->
<g id="node10" class="node"><title>ndPayload</title>
<polygon fill="yellow" stroke="none" points="9.5,-170.5 9.5,-207.5 88.5,-207.5 88.5,-170.5 9.5,-170.5"/>
<polygon fill="none" stroke="black" points="9.5,-170.5 9.5,-207.5 88.5,-207.5 88.5,-170.5 9.5,-170.5"/>
<text text-anchor="start" x="20.5" y="-186.3" font-family="Arial" font-weight="bold" font-size="14.00">Payload</text>
<polygon fill="none" stroke="black" points="8,-170 8,-209 89,-209 89,-170 8,-170"/>
</g>
<!-- ndPayload&#45;&gt;ndPacket -->
<g id="edge7" class="edge"><title>ndPayload&#45;&gt;ndPacket</title>
<path fill="none" stroke="black" d="M51.2856,-165.937C52.1882,-158.626 53.2115,-150.337 54.1978,-142.348"/>
<polygon fill="black" stroke="black" points="54.2243,-142.133 50.9896,-135.688 55.6947,-130.223 58.9294,-136.668 54.2243,-142.133"/>
</g>
</g>
</svg>
