<?xml version="1.0" encoding="UTF-8" standalone="no"?>
<!DOCTYPE svg PUBLIC "-//W3C//DTD SVG 1.1//EN"
 "http://www.w3.org/Graphics/SVG/1.1/DTD/svg11.dtd">
<!-- Generated by graphviz version 2.38.0 (20140413.2041)
 -->
<!-- Title: ml Pages: 1 -->
<svg width="1972pt" height="1059pt"
 viewBox="0.00 0.00 1971.50 1059.00" xmlns="http://www.w3.org/2000/svg" xmlns:xlink="http://www.w3.org/1999/xlink">
<g id="graph0" class="graph" transform="scale(1 1) rotate(0) translate(4 1055)">
<title>ml</title>
<polygon fill="white" stroke="none" points="-4,4 -4,-1055 1967.5,-1055 1967.5,4 -4,4"/>
<!-- ndError -->
<g id="node1" class="node"><title>ndError</title>
<g id="a_node1_0"><a xlink:href="https://github.com/maidsafe/brb/blob/master/src/error.rs#:~:text=enum%20Error" xlink:title="&lt;TABLE&gt;">
<polygon fill="yellow" stroke="none" points="684,-678.5 684,-715.5 986,-715.5 986,-678.5 684,-678.5"/>
<polygon fill="none" stroke="black" points="684,-678.5 684,-715.5 986,-715.5 986,-678.5 684,-678.5"/>
<text text-anchor="start" x="816.5" y="-694.3" font-family="Arial" font-weight="bold" font-size="14.00">Error</text>
<polygon fill="white" stroke="none" points="684,-596.5 684,-678.5 986,-678.5 986,-596.5 684,-596.5"/>
<polygon fill="none" stroke="black" points="684,-596.5 684,-678.5 986,-678.5 986,-596.5 684,-596.5"/>
<text text-anchor="start" x="695" y="-656.3" font-family="Arial" font-size="14.00">Membership(brb_membership::Error&lt;A, S&gt;)</text>
<text text-anchor="start" x="695" y="-641.3" font-family="Arial" font-size="14.00">Encoding(bincode::Error)</text>
<text text-anchor="start" x="695" y="-626.3" font-family="Arial" font-size="14.00">Validation(ValidationError&lt;A, S, V&gt;)</text>
<text text-anchor="start" x="695" y="-611.3" font-family="Arial" font-size="14.00">Signature(signature::Error)</text>
<polygon fill="none" stroke="black" points="683,-596 683,-717 987,-717 987,-596 683,-596"/>
</a>
</g>
</g>
<!-- ndDeterministicBRB -->
<g id="node6" class="node"><title>ndDeterministicBRB</title>
<g id="a_node6_1"><a xlink:href="https://github.com/maidsafe/brb/blob/master/src/deterministic_brb.rs#:~:text=struct%20DeterministicBRB" xlink:title="&lt;TABLE&gt;">
<polygon fill="lightblue" stroke="none" points="9,-514 9,-551 1067,-551 1067,-514 9,-514"/>
<polygon fill="none" stroke="black" points="9,-514 9,-551 1067,-551 1067,-514 9,-514"/>
<text text-anchor="start" x="476.5" y="-529.8" font-family="Arial" font-weight="bold" font-size="14.00">DeterministicBRB</text>
<polygon fill="white" stroke="none" points="9,-387 9,-514 1067,-514 1067,-387 9,-387"/>
<polygon fill="none" stroke="black" points="9,-387 9,-514 1067,-514 1067,-387 9,-387"/>
<text text-anchor="start" x="20" y="-491.8" font-family="Arial" font-size="14.00">+ membership: brb_membership::State&lt;A, SA, S&gt;</text>
<text text-anchor="start" x="20" y="-476.8" font-family="Arial" font-size="14.00">+ pending_proof: HashMap&lt;Msg&lt;A, BRBDT::Op&gt;, BTreeMap&lt;A, S&gt;&gt;</text>
<text text-anchor="start" x="20" y="-461.8" font-family="Arial" font-size="14.00">+ pending_delivery: HashMap&lt;Msg&lt;A, BRBDT::Op&gt;, (BTreeMap&lt;A, S&gt;, BTreeSet&lt;A&gt;)&gt;</text>
<text text-anchor="start" x="20" y="-446.8" font-family="Arial" font-size="14.00">+ received: VClock&lt;A&gt;</text>
<text text-anchor="start" x="20" y="-431.8" font-family="Arial" font-size="14.00">+ delivered: VClock&lt;A&gt;</text>
<text text-anchor="start" x="20" y="-416.8" font-family="Arial" font-size="14.00">+ history_from_source: BTreeMap&lt;A, Vec&lt;(Msg&lt;A, BRBDT::Op&gt;, BTreeMap&lt;A, S&gt;)&gt;&gt;</text>
<text text-anchor="start" x="20" y="-401.8" font-family="Arial" font-size="14.00">+ dt: BRBDT</text>
<polygon fill="white" stroke="none" points="9,-5 9,-387 1067,-387 1067,-5 9,-5"/>
<polygon fill="none" stroke="black" points="9,-5 9,-387 1067,-387 1067,-5 9,-5"/>
<text text-anchor="start" x="20" y="-364.8" font-family="Arial" font-size="14.00">&#45; default() &#45;&gt; Self</text>
<text text-anchor="start" x="20" y="-349.8" font-family="Arial" font-size="14.00">&#45; new() &#45;&gt; Self</text>
<text text-anchor="start" x="20" y="-334.8" font-family="Arial" font-size="14.00">&#45; actor(&amp;self) &#45;&gt; A</text>
<text text-anchor="start" x="20" y="-319.8" font-family="Arial" font-size="14.00">&#45; peers(&amp;self) &#45;&gt; Result&lt;BTreeSet&lt;A&gt;, Error&lt;A, S, BRBDT::ValidationError&gt;&gt;</text>
<text text-anchor="start" x="20" y="-304.8" font-family="Arial" font-size="14.00">&#45; force_join(&amp;mut self, peer: A)</text>
<text text-anchor="start" x="20" y="-289.8" font-family="Arial" font-size="14.00">&#45; force_leave(&amp;mut self, peer: A)</text>
<text text-anchor="start" x="20" y="-274.8" font-family="Arial" font-size="14.00">&#45; request_membership(&amp;mut self, actor: A) &#45;&gt; Result&lt;Vec&lt;Packet&lt;A, S, BRBDT::Op&gt;&gt;, Error&lt;A, S, BRBDT::ValidationError&gt;&gt;</text>
<text text-anchor="start" x="20" y="-259.8" font-family="Arial" font-size="14.00">&#45; kill_peer(&amp;mut self, actor: A) &#45;&gt; Result&lt;Vec&lt;Packet&lt;A, S, BRBDT::Op&gt;&gt;, Error&lt;A, S, BRBDT::ValidationError&gt;&gt;</text>
<text text-anchor="start" x="20" y="-244.8" font-family="Arial" font-size="14.00">&#45; anti_entropy(&amp;self, peer: A) &#45;&gt; Result&lt;Packet&lt;A, S, BRBDT::Op&gt;, Error&lt;A, S, BRBDT::ValidationError&gt;&gt;</text>
<text text-anchor="start" x="20" y="-229.8" font-family="Arial" font-size="14.00">&#45; resend_pending_deliveries(&amp;self) &#45;&gt; Result&lt;Vec&lt;Packet&lt;A, S, BRBDT::Op&gt;&gt;, Error&lt;A, S, BRBDT::ValidationError&gt;&gt;</text>
<text text-anchor="start" x="20" y="-214.8" font-family="Arial" font-size="14.00">&#45; resend_pending_validation_requests(&amp;self) &#45;&gt; Result&lt;Vec&lt;Packet&lt;A, S, BRBDT::Op&gt;&gt;, Error&lt;A, S, BRBDT::ValidationError&gt;&gt;</text>
<text text-anchor="start" x="20" y="-199.8" font-family="Arial" font-size="14.00">&#45; resend_pending_msgs(&amp;self) &#45;&gt; Result&lt;Vec&lt;Packet&lt;A, S, BRBDT::Op&gt;&gt;, Error&lt;A, S, BRBDT::ValidationError&gt;&gt;</text>
<text text-anchor="start" x="20" y="-184.8" font-family="Arial" font-size="14.00">&#45; exec_op(&amp;mut self, op: BRBDT::Op) &#45;&gt; Result&lt;Vec&lt;Packet&lt;A, S, BRBDT::Op&gt;&gt;, Error&lt;A, S, BRBDT::ValidationError&gt;&gt;</text>
<text text-anchor="start" x="20" y="-169.8" font-family="Arial" font-size="14.00">&#45; handle_packet(&amp;mut self, packet: Packet&lt;A, S, BRBDT::Op&gt;) &#45;&gt; Result&lt;Vec&lt;Packet&lt;A, S, BRBDT::Op&gt;&gt;, Error&lt;A, S, BRBDT::ValidationError&gt;&gt;</text>
<text text-anchor="start" x="20" y="-154.8" font-family="Arial" font-size="14.00">&#45; process_packet(&amp;mut self, packet: Packet&lt;A, S, BRBDT::Op&gt;) &#45;&gt; Result&lt;Vec&lt;Packet&lt;A, S, BRBDT::Op&gt;&gt;, Error&lt;A, S, BRBDT::ValidationError&gt;&gt;</text>
<text text-anchor="start" x="20" y="-139.8" font-family="Arial" font-size="14.00">&#45; process_brb_op(&amp;mut self, source: A, op: Op&lt;A, S, BRBDT::Op&gt;) &#45;&gt; Result&lt;Vec&lt;Packet&lt;A, S, BRBDT::Op&gt;&gt;, Error&lt;A, S, BRBDT::ValidationError&gt;&gt;</text>
<text text-anchor="start" x="20" y="-124.8" font-family="Arial" font-size="14.00">&#45; validate_packet(&amp;self, packet: &amp;Packet&lt;A, S, BRBDT::Op&gt;) &#45;&gt; Result&lt;(), Error&lt;A, S, BRBDT::ValidationError&gt;&gt;</text>
<text text-anchor="start" x="20" y="-109.8" font-family="Arial" font-size="14.00">&#45; validate_payload(&amp;self, from: A, payload: &amp;Payload&lt;A, S, BRBDT::Op&gt;) &#45;&gt; Result&lt;(), Error&lt;A, S, BRBDT::ValidationError&gt;&gt;</text>
<text text-anchor="start" x="20" y="-94.8" font-family="Arial" font-size="14.00">&#45; validate_brb_op(&amp;self, from: A, op: &amp;Op&lt;A, S, BRBDT::Op&gt;) &#45;&gt; Result&lt;(), Error&lt;A, S, BRBDT::ValidationError&gt;&gt;</text>
<text text-anchor="start" x="20" y="-79.8" font-family="Arial" font-size="14.00">&#45; supermajority(&amp;self, n: usize, gen: Generation) &#45;&gt; Result&lt;bool, Error&lt;A, S, BRBDT::ValidationError&gt;&gt;</text>
<text text-anchor="start" x="20" y="-64.8" font-family="Arial" font-size="14.00">&#45; broadcast(&amp;self, payload: &amp;Payload&lt;A, S, BRBDT::Op&gt;, targets: BTreeSet&lt;A&gt;) &#45;&gt; Result&lt;Vec&lt;Packet&lt;A, S, BRBDT::Op&gt;&gt;, Error&lt;A, S, BRBDT::ValidationError&gt;&gt;</text>
<text text-anchor="start" x="20" y="-49.8" font-family="Arial" font-size="14.00">&#45; send(&amp;self, dest: A, payload: Payload&lt;A, S, BRBDT::Op&gt;) &#45;&gt; Result&lt;Packet&lt;A, S, BRBDT::Op&gt;, Error&lt;A, S, BRBDT::ValidationError&gt;&gt;</text>
<text text-anchor="start" x="20" y="-34.8" font-family="Arial" font-size="14.00">&#45; sign(&amp;self, data: impl Serialize) &#45;&gt; Result&lt;S, Error&lt;A, S, BRBDT::ValidationError&gt;&gt;</text>
<text text-anchor="start" x="20" y="-19.8" font-family="Arial" font-size="14.00">&#45; verify(&amp;self, data: impl Serialize, signer: &amp;A, sig: &amp;S) &#45;&gt; Result&lt;(), Error&lt;A, S, BRBDT::ValidationError&gt;&gt;</text>
<polygon fill="none" stroke="black" points="8,-4 8,-552 1068,-552 1068,-4 8,-4"/>
</a>
</g>
</g>
<!-- ndError&#45;&gt;ndDeterministicBRB -->
<g id="edge1" class="edge"><title>ndError&#45;&gt;ndDeterministicBRB</title>
<path fill="none" stroke="black" d="M784.618,-591.632C777.827,-583.024 770.541,-573.787 762.883,-564.079"/>
<polygon fill="black" stroke="black" points="756.663,-556.194 766.39,-561.259 759.76,-560.12 762.857,-564.046 762.857,-564.046 762.857,-564.046 759.76,-560.12 759.324,-566.833 756.663,-556.194 756.663,-556.194"/>
</g>
<!-- ndValidationError -->
<g id="node2" class="node"><title>ndValidationError</title>
<g id="a_node2_2"><a xlink:href="https://github.com/maidsafe/brb/blob/master/src/error.rs#:~:text=enum%20ValidationError" xlink:title="&lt;TABLE&gt;">
<polygon fill="yellow" stroke="none" points="680,-1009 680,-1046 991,-1046 991,-1009 680,-1009"/>
<polygon fill="none" stroke="black" points="680,-1009 680,-1046 991,-1046 991,-1009 680,-1009"/>
<text text-anchor="start" x="782.5" y="-1024.8" font-family="Arial" font-weight="bold" font-size="14.00">ValidationError</text>
<polygon fill="white" stroke="none" points="680,-762 680,-1009 991,-1009 991,-762 680,-762"/>
<polygon fill="none" stroke="black" points="680,-762 680,-1009 991,-1009 991,-762 680,-762"/>
<text text-anchor="start" x="691" y="-986.8" font-family="Arial" font-size="14.00">PacketSourceIsNotDot</text>
<text text-anchor="start" x="691" y="-971.8" font-family="Arial" font-size="14.00">MsgDotNotTheNextDot</text>
<text text-anchor="start" x="691" y="-956.8" font-family="Arial" font-size="14.00">SourceAlreadyHasPendingMsg</text>
<text text-anchor="start" x="691" y="-941.8" font-family="Arial" font-size="14.00">MessageFromDifferentGeneration</text>
<text text-anchor="start" x="691" y="-926.8" font-family="Arial" font-size="14.00">SourceIsNotVotingMember</text>
<text text-anchor="start" x="691" y="-911.8" font-family="Arial" font-size="14.00">DataTypeFailedValidation(V)</text>
<text text-anchor="start" x="691" y="-896.8" font-family="Arial" font-size="14.00">InvalidSignature</text>
<text text-anchor="start" x="691" y="-881.8" font-family="Arial" font-size="14.00">SignedValidatedForPacketWeDidNotRequest</text>
<text text-anchor="start" x="691" y="-866.8" font-family="Arial" font-size="14.00">MsgDotNotNextDotToBeDelivered</text>
<text text-anchor="start" x="691" y="-851.8" font-family="Arial" font-size="14.00">NotEnoughSignaturesToFormQuorum</text>
<text text-anchor="start" x="691" y="-836.8" font-family="Arial" font-size="14.00">ProofContainsSignaturesFromNonMembers</text>
<text text-anchor="start" x="691" y="-821.8" font-family="Arial" font-size="14.00">ProofContainsInvalidSignatures</text>
<text text-anchor="start" x="691" y="-806.8" font-family="Arial" font-size="14.00">DeliveredForPacketWeDidNotInitiate</text>
<text text-anchor="start" x="691" y="-791.8" font-family="Arial" font-size="14.00">DeliveredForPacketWeAreNotWaitingOn</text>
<text text-anchor="start" x="691" y="-776.8" font-family="Arial" font-size="14.00">PhantomSig(core::marker::PhantomData&lt;S&gt;)</text>
<polygon fill="none" stroke="black" points="678.5,-761 678.5,-1047 991.5,-1047 991.5,-761 678.5,-761"/>
</a>
</g>
</g>
<!-- ndValidationError&#45;&gt;ndError -->
<g id="edge2" class="edge"><title>ndValidationError&#45;&gt;ndError</title>
<path fill="none" stroke="black" d="M835,-756.647C835,-748.656 835,-740.805 835,-733.234"/>
<polygon fill="black" stroke="black" points="835,-733.191 831,-727.191 835,-721.191 839,-727.191 835,-733.191"/>
</g>
<!-- ndBRBDataType -->
<g id="node3" class="node"><title>ndBRBDataType</title>
<g id="a_node3_3"><a xlink:href="https://github.com/maidsafe/brb/blob/master/src/brb_data_type.rs#:~:text=trait%20BRBDataType" xlink:title="&lt;TABLE&gt;">
<polygon fill="lightgreen" stroke="none" points="1524,-911 1524,-948 1955,-948 1955,-911 1524,-911"/>
<polygon fill="none" stroke="black" points="1524,-911 1524,-948 1955,-948 1955,-911 1524,-911"/>
<text text-anchor="start" x="1691" y="-926.8" font-family="Arial" font-weight="bold" font-size="14.00">BRBDataType</text>
<polygon fill="white" stroke="none" points="1524,-859 1524,-911 1955,-911 1955,-859 1524,-859"/>
<polygon fill="none" stroke="black" points="1524,-859 1524,-911 1955,-911 1955,-859 1524,-859"/>
<text text-anchor="start" x="1535" y="-888.8" font-family="Arial" font-size="14.00">new(A) &#45;&gt; Self</text>
<text text-anchor="start" x="1535" y="-873.8" font-family="Arial" font-size="14.00">validate(&amp;Self, &amp;A, &amp;Self::Op) &#45;&gt; Result&lt;(), Self::ValidationError&gt;</text>
<polygon fill="none" stroke="black" points="1522.5,-858.5 1522.5,-949.5 1955.5,-949.5 1955.5,-858.5 1522.5,-858.5"/>
</a>
</g>
</g>
<!-- ndBRBDT -->
<g id="node4" class="node"><title>ndBRBDT</title>
<g id="a_node4_4"><a xlink:href="https://github.com/maidsafe/brb/blob/master/src/net.rs#:~:text=trait%20BRBDT" xlink:title="&lt;TABLE&gt;">
<polygon fill="lightgreen" stroke="none" points="574,-656.5 574,-693.5 648,-693.5 648,-656.5 574,-656.5"/>
<polygon fill="none" stroke="black" points="574,-656.5 574,-693.5 648,-693.5 648,-656.5 574,-656.5"/>
<text text-anchor="start" x="585" y="-672.3" font-family="Arial" font-weight="bold" font-size="14.00">BRBDT</text>
<polygon fill="white" stroke="none" points="574,-618.5 574,-656.5 648,-656.5 648,-618.5 574,-618.5"/>
<polygon fill="none" stroke="black" points="574,-618.5 574,-656.5 648,-656.5 648,-618.5 574,-618.5"/>
<polygon fill="none" stroke="black" points="573,-618 573,-695 649,-695 649,-618 573,-618"/>
</a>
</g>
</g>
<!-- ndBRBDT&#45;&gt;ndDeterministicBRB -->
<g id="edge3" class="edge"><title>ndBRBDT&#45;&gt;ndDeterministicBRB</title>
<path fill="none" stroke="black" d="M602.909,-613.769C600.39,-600.78 597.4,-585.355 594.106,-568.368"/>
<polygon fill="black" stroke="black" points="594.064,-568.15 588.995,-563.021 591.779,-556.369 596.848,-561.498 594.064,-568.15"/>
</g>
<!-- ndNet -->
<g id="node5" class="node"><title>ndNet</title>
<g id="a_node5_5"><a xlink:href="https://github.com/maidsafe/brb/blob/master/src/net.rs#:~:text=struct%20Net" xlink:title="&lt;TABLE&gt;">
<polygon fill="lightblue" stroke="none" points="1104,-409 1104,-446 1625,-446 1625,-409 1104,-409"/>
<polygon fill="none" stroke="black" points="1104,-409 1104,-446 1625,-446 1625,-409 1104,-409"/>
<text text-anchor="start" x="1353" y="-424.8" font-family="Arial" font-weight="bold" font-size="14.00">Net</text>
<polygon fill="white" stroke="none" points="1104,-327 1104,-409 1625,-409 1625,-327 1104,-327"/>
<polygon fill="none" stroke="black" points="1104,-327 1104,-409 1625,-409 1625,-327 1104,-327"/>
<text text-anchor="start" x="1115" y="-386.8" font-family="Arial" font-size="14.00">+ procs: Vec&lt;State&lt;DT&gt;&gt;</text>
<text text-anchor="start" x="1115" y="-371.8" font-family="Arial" font-size="14.00">+ delivered_packets: Vec&lt;Packet&lt;DT::Op&gt;&gt;</text>
<text text-anchor="start" x="1115" y="-356.8" font-family="Arial" font-size="14.00">+ n_packets: u64</text>
<text text-anchor="start" x="1115" y="-341.8" font-family="Arial" font-size="14.00">+ invalid_packets: HashMap&lt;Actor, u64&gt;</text>
<polygon fill="white" stroke="none" points="1104,-110 1104,-327 1625,-327 1625,-110 1104,-110"/>
<polygon fill="none" stroke="black" points="1104,-110 1104,-327 1625,-327 1625,-110 1104,-110"/>
<text text-anchor="start" x="1115" y="-304.8" font-family="Arial" font-size="14.00">&#45; default() &#45;&gt; Self</text>
<text text-anchor="start" x="1115" y="-289.8" font-family="Arial" font-size="14.00">&#45; new() &#45;&gt; Self</text>
<text text-anchor="start" x="1115" y="-274.8" font-family="Arial" font-size="14.00">&#45; members(&amp;self) &#45;&gt; BTreeSet&lt;Actor&gt;</text>
<text text-anchor="start" x="1115" y="-259.8" font-family="Arial" font-size="14.00">&#45; actors(&amp;self) &#45;&gt; BTreeSet&lt;Actor&gt;</text>
<text text-anchor="start" x="1115" y="-244.8" font-family="Arial" font-size="14.00">&#45; initialize_proc(&amp;mut self) &#45;&gt; Actor</text>
<text text-anchor="start" x="1115" y="-229.8" font-family="Arial" font-size="14.00">&#45; proc(&amp;self, actor: &amp;Actor) &#45;&gt; Option&lt;&amp;State&lt;DT&gt;&gt;</text>
<text text-anchor="start" x="1115" y="-214.8" font-family="Arial" font-size="14.00">&#45; proc_mut(&amp;mut self, actor: &amp;Actor) &#45;&gt; Option&lt;&amp;mut State&lt;DT&gt;&gt;</text>
<text text-anchor="start" x="1115" y="-199.8" font-family="Arial" font-size="14.00">&#45; anti_entropy(&amp;mut self)</text>
<text text-anchor="start" x="1115" y="-184.8" font-family="Arial" font-size="14.00">&#45; deliver_packet(&amp;mut self, packet: Packet&lt;DT::Op&gt;) &#45;&gt; Vec&lt;Packet&lt;DT::Op&gt;&gt;</text>
<text text-anchor="start" x="1115" y="-169.8" font-family="Arial" font-size="14.00">&#45; members_are_in_agreement(&amp;self) &#45;&gt; bool</text>
<text text-anchor="start" x="1115" y="-154.8" font-family="Arial" font-size="14.00">&#45; count_invalid_packets(&amp;self) &#45;&gt; u64</text>
<text text-anchor="start" x="1115" y="-139.8" font-family="Arial" font-size="14.00">&#45; run_packets_to_completion(&amp;mut self, mut packets: Vec&lt;Packet&lt;DT::Op&gt;&gt;)</text>
<text text-anchor="start" x="1115" y="-124.8" font-family="Arial" font-size="14.00">&#45; generate_msc(&amp;self, chart_name: &amp;str)</text>
<polygon fill="none" stroke="black" points="1102.5,-109 1102.5,-447 1625.5,-447 1625.5,-109 1102.5,-109"/>
</a>
</g>
</g>
<!-- ndMsg -->
<g id="node7" class="node"><title>ndMsg</title>
<g id="a_node7_6"><a xlink:href="https://github.com/maidsafe/brb/blob/master/src/deterministic_brb.rs#:~:text=struct%20Msg" xlink:title="&lt;TABLE&gt;">
<polygon fill="lightblue" stroke="none" points="219,-671.5 219,-708.5 358,-708.5 358,-671.5 219,-671.5"/>
<polygon fill="none" stroke="black" points="219,-671.5 219,-708.5 358,-708.5 358,-671.5 219,-671.5"/>
<text text-anchor="start" x="273" y="-687.3" font-family="Arial" font-weight="bold" font-size="14.00">Msg</text>
<polygon fill="white" stroke="none" points="219,-604.5 219,-671.5 358,-671.5 358,-604.5 219,-604.5"/>
<polygon fill="none" stroke="black" points="219,-604.5 219,-671.5 358,-671.5 358,-604.5 219,-604.5"/>
<text text-anchor="start" x="230" y="-649.3" font-family="Arial" font-size="14.00">+ gen: Generation</text>
<text text-anchor="start" x="230" y="-634.3" font-family="Arial" font-size="14.00">+ op: DataTypeOp</text>
<text text-anchor="start" x="230" y="-619.3" font-family="Arial" font-size="14.00">+ dot: Dot&lt;A&gt;</text>
<polygon fill="none" stroke="black" points="217.5,-603.5 217.5,-709.5 358.5,-709.5 358.5,-603.5 217.5,-603.5"/>
</a>
</g>
</g>
<!-- ndMsg&#45;&gt;ndDeterministicBRB -->
<g id="edge4" class="edge"><title>ndMsg&#45;&gt;ndDeterministicBRB</title>
<path fill="none" stroke="black" d="M325.428,-599.134C332.079,-589.118 339.394,-578.1 347.188,-566.363"/>
<polygon fill="black" stroke="black" points="347.204,-566.338 347.191,-559.127 353.842,-556.342 353.856,-563.553 347.204,-566.338"/>
</g>
<!-- ndOp -->
<g id="node8" class="node"><title>ndOp</title>
<g id="a_node8_7"><a xlink:href="https://github.com/maidsafe/brb/blob/master/src/deterministic_brb.rs#:~:text=enum%20Op" xlink:title="&lt;TABLE&gt;">
<polygon fill="yellow" stroke="none" points="394,-678.5 394,-715.5 538,-715.5 538,-678.5 394,-678.5"/>
<polygon fill="none" stroke="black" points="394,-678.5 394,-715.5 538,-715.5 538,-678.5 394,-678.5"/>
<text text-anchor="start" x="455.5" y="-694.3" font-family="Arial" font-weight="bold" font-size="14.00">Op</text>
<polygon fill="white" stroke="none" points="394,-596.5 394,-678.5 538,-678.5 538,-596.5 394,-596.5"/>
<polygon fill="none" stroke="black" points="394,-596.5 394,-678.5 538,-678.5 538,-596.5 394,-596.5"/>
<text text-anchor="start" x="405" y="-656.3" font-family="Arial" font-size="14.00">RequestValidation</text>
<text text-anchor="start" x="405" y="-641.3" font-family="Arial" font-size="14.00">SignedValidated</text>
<text text-anchor="start" x="405" y="-626.3" font-family="Arial" font-size="14.00">ProofOfAgreement</text>
<text text-anchor="start" x="405" y="-611.3" font-family="Arial" font-size="14.00">Delivered</text>
<polygon fill="none" stroke="black" points="393,-596 393,-717 539,-717 539,-596 393,-596"/>
</a>
</g>
</g>
<!-- ndOp&#45;&gt;ndDeterministicBRB -->
<g id="edge5" class="edge"><title>ndOp&#45;&gt;ndDeterministicBRB</title>
<path fill="none" stroke="black" stroke-dasharray="5,2" d="M478.214,-591.632C479.746,-583.62 481.382,-575.064 483.098,-566.09"/>
<polygon fill="black" stroke="black" points="484.991,-556.194 487.532,-566.862 484.052,-561.105 483.112,-566.016 483.112,-566.016 483.112,-566.016 484.052,-561.105 478.692,-565.171 484.991,-556.194 484.991,-556.194"/>
</g>
<!-- ndPacket -->
<g id="node9" class="node"><title>ndPacket</title>
<g id="a_node9_8"><a xlink:href="https://github.com/maidsafe/brb/blob/master/src/packet.rs#:~:text=struct%20Packet" xlink:title="&lt;TABLE&gt;">
<polygon fill="lightblue" stroke="none" points="1211,-678.5 1211,-715.5 1424,-715.5 1424,-678.5 1211,-678.5"/>
<polygon fill="none" stroke="black" points="1211,-678.5 1211,-715.5 1424,-715.5 1424,-678.5 1211,-678.5"/>
<text text-anchor="start" x="1293.5" y="-694.3" font-family="Arial" font-weight="bold" font-size="14.00">Packet</text>
<polygon fill="white" stroke="none" points="1211,-596.5 1211,-678.5 1424,-678.5 1424,-596.5 1211,-596.5"/>
<polygon fill="none" stroke="black" points="1211,-596.5 1211,-678.5 1424,-678.5 1424,-596.5 1211,-596.5"/>
<text text-anchor="start" x="1222" y="-656.3" font-family="Arial" font-size="14.00">+ source: A</text>
<text text-anchor="start" x="1222" y="-641.3" font-family="Arial" font-size="14.00">+ dest: A</text>
<text text-anchor="start" x="1222" y="-626.3" font-family="Arial" font-size="14.00">+ payload: Payload&lt;A, S, Op&gt;</text>
<text text-anchor="start" x="1222" y="-611.3" font-family="Arial" font-size="14.00">+ sig: S</text>
<polygon fill="none" stroke="black" points="1209.5,-596 1209.5,-717 1424.5,-717 1424.5,-596 1209.5,-596"/>
</a>
</g>
</g>
<!-- ndPacket&#45;&gt;ndNet -->
<g id="edge6" class="edge"><title>ndPacket&#45;&gt;ndNet</title>
<path fill="none" stroke="black" d="M1324.97,-591.632C1329.43,-555.927 1335.24,-509.417 1341,-463.23"/>
<polygon fill="black" stroke="black" points="1341.02,-463.091 1337.79,-456.641 1342.51,-451.183 1345.73,-457.632 1341.02,-463.091"/>
</g>
<!-- ndPacket&#45;&gt;ndDeterministicBRB -->
<g id="edge7" class="edge"><title>ndPacket&#45;&gt;ndDeterministicBRB</title>
<path fill="none" stroke="black" d="M1201.3,-607.591C1166.44,-592.729 1128.01,-575.926 1085.44,-556.185"/>
<polygon fill="black" stroke="black" points="1076.3,-551.927 1087.26,-552.068 1080.83,-554.037 1085.36,-556.147 1085.36,-556.147 1085.36,-556.147 1080.83,-554.037 1083.47,-560.227 1076.3,-551.927 1076.3,-551.927"/>
</g>
<!-- ndPayload -->
<g id="node10" class="node"><title>ndPayload</title>
<g id="a_node10_9"><a xlink:href="https://github.com/maidsafe/brb/blob/master/src/packet.rs#:~:text=enum%20Payload" xlink:title="&lt;TABLE&gt;">
<polygon fill="yellow" stroke="none" points="1147,-919 1147,-956 1488,-956 1488,-919 1147,-919"/>
<polygon fill="none" stroke="black" points="1147,-919 1147,-956 1488,-956 1488,-919 1147,-919"/>
<text text-anchor="start" x="1289" y="-934.8" font-family="Arial" font-weight="bold" font-size="14.00">Payload</text>
<polygon fill="white" stroke="none" points="1147,-852 1147,-919 1488,-919 1488,-852 1147,-852"/>
<polygon fill="none" stroke="black" points="1147,-852 1147,-919 1488,-919 1488,-852 1147,-852"/>
<text text-anchor="start" x="1158" y="-896.8" font-family="Arial" font-size="14.00">AntiEntropy</text>
<text text-anchor="start" x="1158" y="-881.8" font-family="Arial" font-size="14.00">BRB(deterministic_brb::Op&lt;A, S, DataTypeOp&gt;)</text>
<text text-anchor="start" x="1158" y="-866.8" font-family="Arial" font-size="14.00">Membership(Box&lt;brb_membership::Vote&lt;A, S&gt;&gt;)</text>
<polygon fill="none" stroke="black" points="1145.5,-851 1145.5,-957 1488.5,-957 1488.5,-851 1145.5,-851"/>
</a>
</g>
</g>
<!-- ndPayload&#45;&gt;ndPacket -->
<g id="edge8" class="edge"><title>ndPayload&#45;&gt;ndPacket</title>
<path fill="none" stroke="black" d="M1317,-846.985C1317,-813.292 1317,-769.961 1317,-733.241"/>
<polygon fill="black" stroke="black" points="1317,-733.065 1313,-727.065 1317,-721.065 1321,-727.065 1317,-733.065"/>
</g>
</g>
</svg>
