<?xml version="1.0" encoding="UTF-8" standalone="no"?>
<!DOCTYPE svg PUBLIC "-//W3C//DTD SVG 1.1//EN"
 "http://www.w3.org/Graphics/SVG/1.1/DTD/svg11.dtd">
<!-- Generated by graphviz version 2.38.0 (20140413.2041)
 -->
<!-- Title: ml Pages: 1 -->
<svg width="2171pt" height="1074pt"
 viewBox="0.00 0.00 2170.50 1074.00" xmlns="http://www.w3.org/2000/svg" xmlns:xlink="http://www.w3.org/1999/xlink">
<g id="graph0" class="graph" transform="scale(1 1) rotate(0) translate(4 1070)">
<title>ml</title>
<polygon fill="white" stroke="none" points="-4,4 -4,-1070 2166.5,-1070 2166.5,4 -4,4"/>
<!-- ndError -->
<g id="node1" class="node"><title>ndError</title>
<polygon fill="yellow" stroke="none" points="944.5,-671 944.5,-708 1246.5,-708 1246.5,-671 944.5,-671"/>
<polygon fill="none" stroke="black" points="944.5,-671 944.5,-708 1246.5,-708 1246.5,-671 944.5,-671"/>
<text text-anchor="start" x="1077" y="-686.8" font-family="Arial" font-weight="bold" font-size="14.00">Error</text>
<polygon fill="white" stroke="none" points="944.5,-589 944.5,-671 1246.5,-671 1246.5,-589 944.5,-589"/>
<polygon fill="none" stroke="black" points="944.5,-589 944.5,-671 1246.5,-671 1246.5,-589 944.5,-589"/>
<text text-anchor="start" x="955.5" y="-648.8" font-family="Arial" font-size="14.00">Membership(brb_membership::Error&lt;A, S&gt;)</text>
<text text-anchor="start" x="955.5" y="-633.8" font-family="Arial" font-size="14.00">Encoding(bincode::Error)</text>
<text text-anchor="start" x="955.5" y="-618.8" font-family="Arial" font-size="14.00">Validation(ValidationError&lt;A, S, V&gt;)</text>
<text text-anchor="start" x="955.5" y="-603.8" font-family="Arial" font-size="14.00">Signature(signature::Error)</text>
<polygon fill="none" stroke="black" points="943.5,-588.5 943.5,-709.5 1247.5,-709.5 1247.5,-588.5 943.5,-588.5"/>
</g>
<!-- ndOp -->
<g id="node8" class="node"><title>ndOp</title>
<polygon fill="yellow" stroke="none" points="566.5,-484 566.5,-521 1624.5,-521 1624.5,-484 566.5,-484"/>
<polygon fill="none" stroke="black" points="566.5,-484 566.5,-521 1624.5,-521 1624.5,-484 566.5,-484"/>
<text text-anchor="start" x="1085" y="-499.8" font-family="Arial" font-weight="bold" font-size="14.00">Op</text>
<polygon fill="white" stroke="none" points="566.5,-402 566.5,-484 1624.5,-484 1624.5,-402 566.5,-402"/>
<polygon fill="none" stroke="black" points="566.5,-402 566.5,-484 1624.5,-484 1624.5,-402 566.5,-402"/>
<text text-anchor="start" x="577.5" y="-461.8" font-family="Arial" font-size="14.00">RequestValidation</text>
<text text-anchor="start" x="577.5" y="-446.8" font-family="Arial" font-size="14.00">SignedValidated</text>
<text text-anchor="start" x="577.5" y="-431.8" font-family="Arial" font-size="14.00">ProofOfAgreement</text>
<text text-anchor="start" x="577.5" y="-416.8" font-family="Arial" font-size="14.00">Delivered</text>
<polygon fill="white" stroke="none" points="566.5,-5 566.5,-402 1624.5,-402 1624.5,-5 566.5,-5"/>
<polygon fill="none" stroke="black" points="566.5,-5 566.5,-402 1624.5,-402 1624.5,-5 566.5,-5"/>
<text text-anchor="start" x="577.5" y="-379.8" font-family="Arial" font-size="14.00">&#45; is_proof_of_agreement(&amp;self) &#45;&gt; bool</text>
<text text-anchor="start" x="577.5" y="-364.8" font-family="Arial" font-size="14.00">&#45; default() &#45;&gt; Self</text>
<text text-anchor="start" x="577.5" y="-349.8" font-family="Arial" font-size="14.00">&#45; new() &#45;&gt; Self</text>
<text text-anchor="start" x="577.5" y="-334.8" font-family="Arial" font-size="14.00">&#45; actor(&amp;self) &#45;&gt; A</text>
<text text-anchor="start" x="577.5" y="-319.8" font-family="Arial" font-size="14.00">&#45; peers(&amp;self) &#45;&gt; Result&lt;BTreeSet&lt;A&gt;, Error&lt;A, S, BRBDT::ValidationError&gt;&gt;</text>
<text text-anchor="start" x="577.5" y="-304.8" font-family="Arial" font-size="14.00">&#45; force_join(&amp;mut self, peer: A)</text>
<text text-anchor="start" x="577.5" y="-289.8" font-family="Arial" font-size="14.00">&#45; force_leave(&amp;mut self, peer: A)</text>
<text text-anchor="start" x="577.5" y="-274.8" font-family="Arial" font-size="14.00">&#45; request_membership(&amp;mut self, actor: A) &#45;&gt; Result&lt;Vec&lt;Packet&lt;A, S, BRBDT::Op&gt;&gt;, Error&lt;A, S, BRBDT::ValidationError&gt;&gt;</text>
<text text-anchor="start" x="577.5" y="-259.8" font-family="Arial" font-size="14.00">&#45; kill_peer(&amp;mut self, actor: A) &#45;&gt; Result&lt;Vec&lt;Packet&lt;A, S, BRBDT::Op&gt;&gt;, Error&lt;A, S, BRBDT::ValidationError&gt;&gt;</text>
<text text-anchor="start" x="577.5" y="-244.8" font-family="Arial" font-size="14.00">&#45; anti_entropy(&amp;self, peer: A) &#45;&gt; Result&lt;Packet&lt;A, S, BRBDT::Op&gt;, Error&lt;A, S, BRBDT::ValidationError&gt;&gt;</text>
<text text-anchor="start" x="577.5" y="-229.8" font-family="Arial" font-size="14.00">&#45; resend_pending_deliveries(&amp;self) &#45;&gt; Result&lt;Vec&lt;Packet&lt;A, S, BRBDT::Op&gt;&gt;, Error&lt;A, S, BRBDT::ValidationError&gt;&gt;</text>
<text text-anchor="start" x="577.5" y="-214.8" font-family="Arial" font-size="14.00">&#45; resend_pending_validation_requests(&amp;self) &#45;&gt; Result&lt;Vec&lt;Packet&lt;A, S, BRBDT::Op&gt;&gt;, Error&lt;A, S, BRBDT::ValidationError&gt;&gt;</text>
<text text-anchor="start" x="577.5" y="-199.8" font-family="Arial" font-size="14.00">&#45; resend_pending_msgs(&amp;self) &#45;&gt; Result&lt;Vec&lt;Packet&lt;A, S, BRBDT::Op&gt;&gt;, Error&lt;A, S, BRBDT::ValidationError&gt;&gt;</text>
<text text-anchor="start" x="577.5" y="-184.8" font-family="Arial" font-size="14.00">&#45; exec_op(&amp;mut self, op: BRBDT::Op) &#45;&gt; Result&lt;Vec&lt;Packet&lt;A, S, BRBDT::Op&gt;&gt;, Error&lt;A, S, BRBDT::ValidationError&gt;&gt;</text>
<text text-anchor="start" x="577.5" y="-169.8" font-family="Arial" font-size="14.00">&#45; handle_packet(&amp;mut self, packet: Packet&lt;A, S, BRBDT::Op&gt;) &#45;&gt; Result&lt;Vec&lt;Packet&lt;A, S, BRBDT::Op&gt;&gt;, Error&lt;A, S, BRBDT::ValidationError&gt;&gt;</text>
<text text-anchor="start" x="577.5" y="-154.8" font-family="Arial" font-size="14.00">&#45; process_packet(&amp;mut self, packet: Packet&lt;A, S, BRBDT::Op&gt;) &#45;&gt; Result&lt;Vec&lt;Packet&lt;A, S, BRBDT::Op&gt;&gt;, Error&lt;A, S, BRBDT::ValidationError&gt;&gt;</text>
<text text-anchor="start" x="577.5" y="-139.8" font-family="Arial" font-size="14.00">&#45; process_brb_op(&amp;mut self, source: A, op: Op&lt;A, S, BRBDT::Op&gt;) &#45;&gt; Result&lt;Vec&lt;Packet&lt;A, S, BRBDT::Op&gt;&gt;, Error&lt;A, S, BRBDT::ValidationError&gt;&gt;</text>
<text text-anchor="start" x="577.5" y="-124.8" font-family="Arial" font-size="14.00">&#45; validate_packet(&amp;self, packet: &amp;Packet&lt;A, S, BRBDT::Op&gt;) &#45;&gt; Result&lt;(), Error&lt;A, S, BRBDT::ValidationError&gt;&gt;</text>
<text text-anchor="start" x="577.5" y="-109.8" font-family="Arial" font-size="14.00">&#45; validate_payload(&amp;self, from: A, payload: &amp;Payload&lt;A, S, BRBDT::Op&gt;) &#45;&gt; Result&lt;(), Error&lt;A, S, BRBDT::ValidationError&gt;&gt;</text>
<text text-anchor="start" x="577.5" y="-94.8" font-family="Arial" font-size="14.00">&#45; validate_brb_op(&amp;self, from: A, op: &amp;Op&lt;A, S, BRBDT::Op&gt;) &#45;&gt; Result&lt;(), Error&lt;A, S, BRBDT::ValidationError&gt;&gt;</text>
<text text-anchor="start" x="577.5" y="-79.8" font-family="Arial" font-size="14.00">&#45; supermajority(&amp;self, n: usize, gen: Generation) &#45;&gt; Result&lt;bool, Error&lt;A, S, BRBDT::ValidationError&gt;&gt;</text>
<text text-anchor="start" x="577.5" y="-64.8" font-family="Arial" font-size="14.00">&#45; broadcast(&amp;self, payload: &amp;Payload&lt;A, S, BRBDT::Op&gt;, targets: BTreeSet&lt;A&gt;) &#45;&gt; Result&lt;Vec&lt;Packet&lt;A, S, BRBDT::Op&gt;&gt;, Error&lt;A, S, BRBDT::ValidationError&gt;&gt;</text>
<text text-anchor="start" x="577.5" y="-49.8" font-family="Arial" font-size="14.00">&#45; send(&amp;self, dest: A, payload: Payload&lt;A, S, BRBDT::Op&gt;) &#45;&gt; Result&lt;Packet&lt;A, S, BRBDT::Op&gt;, Error&lt;A, S, BRBDT::ValidationError&gt;&gt;</text>
<text text-anchor="start" x="577.5" y="-34.8" font-family="Arial" font-size="14.00">&#45; sign(&amp;self, data: impl Serialize) &#45;&gt; Result&lt;S, Error&lt;A, S, BRBDT::ValidationError&gt;&gt;</text>
<text text-anchor="start" x="577.5" y="-19.8" font-family="Arial" font-size="14.00">&#45; verify(&amp;self, data: impl Serialize, signer: &amp;A, sig: &amp;S) &#45;&gt; Result&lt;(), Error&lt;A, S, BRBDT::ValidationError&gt;&gt;</text>
<polygon fill="none" stroke="black" points="565.5,-4 565.5,-522 1625.5,-522 1625.5,-4 565.5,-4"/>
</g>
<!-- ndError&#45;&gt;ndOp -->
<g id="edge1" class="edge"><title>ndError&#45;&gt;ndOp</title>
<path fill="none" stroke="black" d="M1095.5,-584.159C1095.5,-569.808 1095.5,-553.699 1095.5,-536.541"/>
<polygon fill="black" stroke="black" points="1095.5,-526.323 1100,-536.323 1095.5,-531.323 1095.5,-536.323 1095.5,-536.323 1095.5,-536.323 1095.5,-531.323 1091,-536.323 1095.5,-526.323 1095.5,-526.323"/>
</g>
<!-- ndValidationError -->
<g id="node2" class="node"><title>ndValidationError</title>
<polygon fill="yellow" stroke="none" points="940.5,-1024 940.5,-1061 1251.5,-1061 1251.5,-1024 940.5,-1024"/>
<polygon fill="none" stroke="black" points="940.5,-1024 940.5,-1061 1251.5,-1061 1251.5,-1024 940.5,-1024"/>
<text text-anchor="start" x="1043" y="-1039.8" font-family="Arial" font-weight="bold" font-size="14.00">ValidationError</text>
<polygon fill="white" stroke="none" points="940.5,-777 940.5,-1024 1251.5,-1024 1251.5,-777 940.5,-777"/>
<polygon fill="none" stroke="black" points="940.5,-777 940.5,-1024 1251.5,-1024 1251.5,-777 940.5,-777"/>
<text text-anchor="start" x="951.5" y="-1001.8" font-family="Arial" font-size="14.00">PacketSourceIsNotDot</text>
<text text-anchor="start" x="951.5" y="-986.8" font-family="Arial" font-size="14.00">MsgDotNotTheNextDot</text>
<text text-anchor="start" x="951.5" y="-971.8" font-family="Arial" font-size="14.00">SourceAlreadyHasPendingMsg</text>
<text text-anchor="start" x="951.5" y="-956.8" font-family="Arial" font-size="14.00">MessageFromDifferentGeneration</text>
<text text-anchor="start" x="951.5" y="-941.8" font-family="Arial" font-size="14.00">SourceIsNotVotingMember</text>
<text text-anchor="start" x="951.5" y="-926.8" font-family="Arial" font-size="14.00">DataTypeFailedValidation(V)</text>
<text text-anchor="start" x="951.5" y="-911.8" font-family="Arial" font-size="14.00">InvalidSignature</text>
<text text-anchor="start" x="951.5" y="-896.8" font-family="Arial" font-size="14.00">SignedValidatedForPacketWeDidNotRequest</text>
<text text-anchor="start" x="951.5" y="-881.8" font-family="Arial" font-size="14.00">MsgDotNotNextDotToBeDelivered</text>
<text text-anchor="start" x="951.5" y="-866.8" font-family="Arial" font-size="14.00">NotEnoughSignaturesToFormQuorum</text>
<text text-anchor="start" x="951.5" y="-851.8" font-family="Arial" font-size="14.00">ProofContainsSignaturesFromNonMembers</text>
<text text-anchor="start" x="951.5" y="-836.8" font-family="Arial" font-size="14.00">ProofContainsInvalidSignatures</text>
<text text-anchor="start" x="951.5" y="-821.8" font-family="Arial" font-size="14.00">DeliveredForPacketWeDidNotInitiate</text>
<text text-anchor="start" x="951.5" y="-806.8" font-family="Arial" font-size="14.00">DeliveredForPacketWeAreNotWaitingOn</text>
<text text-anchor="start" x="951.5" y="-791.8" font-family="Arial" font-size="14.00">PhantomSig(core::marker::PhantomData&lt;S&gt;)</text>
<polygon fill="none" stroke="black" points="939,-776 939,-1062 1252,-1062 1252,-776 939,-776"/>
</g>
<!-- ndValidationError&#45;&gt;ndError -->
<g id="edge2" class="edge"><title>ndValidationError&#45;&gt;ndError</title>
<path fill="none" stroke="black" d="M1095.5,-771.845C1095.5,-756.024 1095.5,-740.431 1095.5,-725.958"/>
<polygon fill="black" stroke="black" points="1095.5,-725.55 1091.5,-719.55 1095.5,-713.55 1099.5,-719.55 1095.5,-725.55"/>
</g>
<!-- ndBRBDataType -->
<g id="node3" class="node"><title>ndBRBDataType</title>
<polygon fill="lightgreen" stroke="none" points="1287.5,-926 1287.5,-963 1718.5,-963 1718.5,-926 1287.5,-926"/>
<polygon fill="none" stroke="black" points="1287.5,-926 1287.5,-963 1718.5,-963 1718.5,-926 1287.5,-926"/>
<text text-anchor="start" x="1454.5" y="-941.8" font-family="Arial" font-weight="bold" font-size="14.00">BRBDataType</text>
<polygon fill="white" stroke="none" points="1287.5,-874 1287.5,-926 1718.5,-926 1718.5,-874 1287.5,-874"/>
<polygon fill="none" stroke="black" points="1287.5,-874 1287.5,-926 1718.5,-926 1718.5,-874 1287.5,-874"/>
<text text-anchor="start" x="1298.5" y="-903.8" font-family="Arial" font-size="14.00">new(A) &#45;&gt; Self</text>
<text text-anchor="start" x="1298.5" y="-888.8" font-family="Arial" font-size="14.00">validate(&amp;Self, &amp;A, &amp;Self::Op) &#45;&gt; Result&lt;(), Self::ValidationError&gt;</text>
<polygon fill="none" stroke="black" points="1286,-873.5 1286,-964.5 1719,-964.5 1719,-873.5 1286,-873.5"/>
</g>
<!-- ndBRBDT -->
<g id="node4" class="node"><title>ndBRBDT</title>
<polygon fill="lightgreen" stroke="none" points="1754.5,-938 1754.5,-975 1828.5,-975 1828.5,-938 1754.5,-938"/>
<polygon fill="none" stroke="black" points="1754.5,-938 1754.5,-975 1828.5,-975 1828.5,-938 1754.5,-938"/>
<text text-anchor="start" x="1765.5" y="-953.8" font-family="Arial" font-weight="bold" font-size="14.00">BRBDT</text>
<polygon fill="white" stroke="none" points="1754.5,-900 1754.5,-938 1828.5,-938 1828.5,-900 1754.5,-900"/>
<polygon fill="none" stroke="black" points="1754.5,-900 1754.5,-938 1828.5,-938 1828.5,-900 1754.5,-900"/>
<polygon fill="white" stroke="none" points="1754.5,-862 1754.5,-900 1828.5,-900 1828.5,-862 1754.5,-862"/>
<polygon fill="none" stroke="black" points="1754.5,-862 1754.5,-900 1828.5,-900 1828.5,-862 1754.5,-862"/>
<polygon fill="none" stroke="black" points="1753.5,-861.5 1753.5,-976.5 1829.5,-976.5 1829.5,-861.5 1753.5,-861.5"/>
</g>
<!-- ndDeterministicBRB -->
<g id="node6" class="node"><title>ndDeterministicBRB</title>
<polygon fill="lightblue" stroke="none" points="1571.5,-694 1571.5,-731 2153.5,-731 2153.5,-694 1571.5,-694"/>
<polygon fill="none" stroke="black" points="1571.5,-694 1571.5,-731 2153.5,-731 2153.5,-694 1571.5,-694"/>
<text text-anchor="start" x="1801" y="-709.8" font-family="Arial" font-weight="bold" font-size="14.00">DeterministicBRB</text>
<polygon fill="white" stroke="none" points="1571.5,-567 1571.5,-694 2153.5,-694 2153.5,-567 1571.5,-567"/>
<polygon fill="none" stroke="black" points="1571.5,-567 1571.5,-694 2153.5,-694 2153.5,-567 1571.5,-567"/>
<text text-anchor="start" x="1582.5" y="-671.8" font-family="Arial" font-size="14.00">+ membership: brb_membership::State&lt;A, SA, S&gt;</text>
<text text-anchor="start" x="1582.5" y="-656.8" font-family="Arial" font-size="14.00">+ pending_proof: HashMap&lt;Msg&lt;A, BRBDT::Op&gt;, BTreeMap&lt;A, S&gt;&gt;</text>
<text text-anchor="start" x="1582.5" y="-641.8" font-family="Arial" font-size="14.00">+ pending_delivery: HashMap&lt;Msg&lt;A, BRBDT::Op&gt;, (BTreeMap&lt;A, S&gt;, BTreeSet&lt;A&gt;)&gt;</text>
<text text-anchor="start" x="1582.5" y="-626.8" font-family="Arial" font-size="14.00">+ received: VClock&lt;A&gt;</text>
<text text-anchor="start" x="1582.5" y="-611.8" font-family="Arial" font-size="14.00">+ delivered: VClock&lt;A&gt;</text>
<text text-anchor="start" x="1582.5" y="-596.8" font-family="Arial" font-size="14.00">+ history_from_source: BTreeMap&lt;A, Vec&lt;(Msg&lt;A, BRBDT::Op&gt;, BTreeMap&lt;A, S&gt;)&gt;&gt;</text>
<text text-anchor="start" x="1582.5" y="-581.8" font-family="Arial" font-size="14.00">+ dt: BRBDT</text>
<polygon fill="none" stroke="black" points="1570.5,-566 1570.5,-732 2154.5,-732 2154.5,-566 1570.5,-566"/>
</g>
<!-- ndBRBDT&#45;&gt;ndDeterministicBRB -->
<g id="edge3" class="edge"><title>ndBRBDT&#45;&gt;ndDeterministicBRB</title>
<path fill="none" stroke="black" d="M1807.61,-857.187C1816.16,-824.926 1826.87,-784.502 1836.55,-747.945"/>
<polygon fill="black" stroke="black" points="1836.58,-747.827 1834.25,-741.003 1839.66,-736.227 1841.99,-743.052 1836.58,-747.827"/>
</g>
<!-- ndNet -->
<g id="node5" class="node"><title>ndNet</title>
<polygon fill="lightblue" stroke="none" points="9.5,-394 9.5,-431 530.5,-431 530.5,-394 9.5,-394"/>
<polygon fill="none" stroke="black" points="9.5,-394 9.5,-431 530.5,-431 530.5,-394 9.5,-394"/>
<text text-anchor="start" x="258.5" y="-409.8" font-family="Arial" font-weight="bold" font-size="14.00">Net</text>
<polygon fill="white" stroke="none" points="9.5,-312 9.5,-394 530.5,-394 530.5,-312 9.5,-312"/>
<polygon fill="none" stroke="black" points="9.5,-312 9.5,-394 530.5,-394 530.5,-312 9.5,-312"/>
<text text-anchor="start" x="20.5" y="-371.8" font-family="Arial" font-size="14.00">+ procs: Vec&lt;State&lt;DT&gt;&gt;</text>
<text text-anchor="start" x="20.5" y="-356.8" font-family="Arial" font-size="14.00">+ delivered_packets: Vec&lt;Packet&lt;DT::Op&gt;&gt;</text>
<text text-anchor="start" x="20.5" y="-341.8" font-family="Arial" font-size="14.00">+ n_packets: u64</text>
<text text-anchor="start" x="20.5" y="-326.8" font-family="Arial" font-size="14.00">+ invalid_packets: HashMap&lt;Actor, u64&gt;</text>
<polygon fill="white" stroke="none" points="9.5,-95 9.5,-312 530.5,-312 530.5,-95 9.5,-95"/>
<polygon fill="none" stroke="black" points="9.5,-95 9.5,-312 530.5,-312 530.5,-95 9.5,-95"/>
<text text-anchor="start" x="20.5" y="-289.8" font-family="Arial" font-size="14.00">&#45; default() &#45;&gt; Self</text>
<text text-anchor="start" x="20.5" y="-274.8" font-family="Arial" font-size="14.00">&#45; new() &#45;&gt; Self</text>
<text text-anchor="start" x="20.5" y="-259.8" font-family="Arial" font-size="14.00">&#45; members(&amp;self) &#45;&gt; BTreeSet&lt;Actor&gt;</text>
<text text-anchor="start" x="20.5" y="-244.8" font-family="Arial" font-size="14.00">&#45; actors(&amp;self) &#45;&gt; BTreeSet&lt;Actor&gt;</text>
<text text-anchor="start" x="20.5" y="-229.8" font-family="Arial" font-size="14.00">&#45; initialize_proc(&amp;mut self) &#45;&gt; Actor</text>
<text text-anchor="start" x="20.5" y="-214.8" font-family="Arial" font-size="14.00">&#45; proc(&amp;self, actor: &amp;Actor) &#45;&gt; Option&lt;&amp;State&lt;DT&gt;&gt;</text>
<text text-anchor="start" x="20.5" y="-199.8" font-family="Arial" font-size="14.00">&#45; proc_mut(&amp;mut self, actor: &amp;Actor) &#45;&gt; Option&lt;&amp;mut State&lt;DT&gt;&gt;</text>
<text text-anchor="start" x="20.5" y="-184.8" font-family="Arial" font-size="14.00">&#45; anti_entropy(&amp;mut self)</text>
<text text-anchor="start" x="20.5" y="-169.8" font-family="Arial" font-size="14.00">&#45; deliver_packet(&amp;mut self, packet: Packet&lt;DT::Op&gt;) &#45;&gt; Vec&lt;Packet&lt;DT::Op&gt;&gt;</text>
<text text-anchor="start" x="20.5" y="-154.8" font-family="Arial" font-size="14.00">&#45; members_are_in_agreement(&amp;self) &#45;&gt; bool</text>
<text text-anchor="start" x="20.5" y="-139.8" font-family="Arial" font-size="14.00">&#45; count_invalid_packets(&amp;self) &#45;&gt; u64</text>
<text text-anchor="start" x="20.5" y="-124.8" font-family="Arial" font-size="14.00">&#45; run_packets_to_completion(&amp;mut self, mut packets: Vec&lt;Packet&lt;DT::Op&gt;&gt;)</text>
<text text-anchor="start" x="20.5" y="-109.8" font-family="Arial" font-size="14.00">&#45; generate_msc(&amp;self, chart_name: &amp;str)</text>
<polygon fill="none" stroke="black" points="8,-94 8,-432 531,-432 531,-94 8,-94"/>
</g>
<!-- ndMsg -->
<g id="node7" class="node"><title>ndMsg</title>
<polygon fill="lightblue" stroke="none" points="1865.5,-934 1865.5,-971 2004.5,-971 2004.5,-934 1865.5,-934"/>
<polygon fill="none" stroke="black" points="1865.5,-934 1865.5,-971 2004.5,-971 2004.5,-934 1865.5,-934"/>
<text text-anchor="start" x="1919.5" y="-949.8" font-family="Arial" font-weight="bold" font-size="14.00">Msg</text>
<polygon fill="white" stroke="none" points="1865.5,-867 1865.5,-934 2004.5,-934 2004.5,-867 1865.5,-867"/>
<polygon fill="none" stroke="black" points="1865.5,-867 1865.5,-934 2004.5,-934 2004.5,-867 1865.5,-867"/>
<text text-anchor="start" x="1876.5" y="-911.8" font-family="Arial" font-size="14.00">+ gen: Generation</text>
<text text-anchor="start" x="1876.5" y="-896.8" font-family="Arial" font-size="14.00">+ op: DataTypeOp</text>
<text text-anchor="start" x="1876.5" y="-881.8" font-family="Arial" font-size="14.00">+ dot: Dot&lt;A&gt;</text>
<polygon fill="none" stroke="black" points="1864,-866 1864,-972 2005,-972 2005,-866 1864,-866"/>
</g>
<!-- ndMsg&#45;&gt;ndDeterministicBRB -->
<g id="edge4" class="edge"><title>ndMsg&#45;&gt;ndDeterministicBRB</title>
<path fill="none" stroke="black" d="M1919.41,-861.818C1910.55,-828.852 1899.11,-786.269 1888.81,-747.939"/>
<polygon fill="black" stroke="black" points="1888.77,-747.785 1883.35,-743.028 1885.66,-736.196 1891.08,-740.952 1888.77,-747.785"/>
</g>
<!-- ndPacket -->
<g id="node9" class="node"><title>ndPacket</title>
<polygon fill="lightblue" stroke="none" points="395.5,-671 395.5,-708 608.5,-708 608.5,-671 395.5,-671"/>
<polygon fill="none" stroke="black" points="395.5,-671 395.5,-708 608.5,-708 608.5,-671 395.5,-671"/>
<text text-anchor="start" x="478" y="-686.8" font-family="Arial" font-weight="bold" font-size="14.00">Packet</text>
<polygon fill="white" stroke="none" points="395.5,-589 395.5,-671 608.5,-671 608.5,-589 395.5,-589"/>
<polygon fill="none" stroke="black" points="395.5,-589 395.5,-671 608.5,-671 608.5,-589 395.5,-589"/>
<text text-anchor="start" x="406.5" y="-648.8" font-family="Arial" font-size="14.00">+ source: A</text>
<text text-anchor="start" x="406.5" y="-633.8" font-family="Arial" font-size="14.00">+ dest: A</text>
<text text-anchor="start" x="406.5" y="-618.8" font-family="Arial" font-size="14.00">+ payload: Payload&lt;A, S, Op&gt;</text>
<text text-anchor="start" x="406.5" y="-603.8" font-family="Arial" font-size="14.00">+ sig: S</text>
<polygon fill="none" stroke="black" points="394,-588.5 394,-709.5 609,-709.5 609,-588.5 394,-588.5"/>
</g>
<!-- ndPacket&#45;&gt;ndNet -->
<g id="edge5" class="edge"><title>ndPacket&#45;&gt;ndNet</title>
<path fill="none" stroke="black" d="M462.929,-584.159C440.014,-546.23 409.679,-496.02 379.844,-446.639"/>
<polygon fill="black" stroke="black" points="379.694,-446.389 373.167,-443.322 373.488,-436.118 380.015,-439.185 379.694,-446.389"/>
</g>
<!-- ndPacket&#45;&gt;ndOp -->
<g id="edge6" class="edge"><title>ndPacket&#45;&gt;ndOp</title>
<path fill="none" stroke="black" d="M599.92,-584.375C624.227,-568.661 651.809,-550.831 681.219,-531.818"/>
<polygon fill="black" stroke="black" points="689.98,-526.154 684.025,-535.362 685.781,-528.869 681.582,-531.583 681.582,-531.583 681.582,-531.583 685.781,-528.869 679.139,-527.804 689.98,-526.154 689.98,-526.154"/>
</g>
<!-- ndPayload -->
<g id="node10" class="node"><title>ndPayload</title>
<polygon fill="yellow" stroke="none" points="331.5,-934 331.5,-971 672.5,-971 672.5,-934 331.5,-934"/>
<polygon fill="none" stroke="black" points="331.5,-934 331.5,-971 672.5,-971 672.5,-934 331.5,-934"/>
<text text-anchor="start" x="473.5" y="-949.8" font-family="Arial" font-weight="bold" font-size="14.00">Payload</text>
<polygon fill="white" stroke="none" points="331.5,-867 331.5,-934 672.5,-934 672.5,-867 331.5,-867"/>
<polygon fill="none" stroke="black" points="331.5,-867 331.5,-934 672.5,-934 672.5,-867 331.5,-867"/>
<text text-anchor="start" x="342.5" y="-911.8" font-family="Arial" font-size="14.00">AntiEntropy</text>
<text text-anchor="start" x="342.5" y="-896.8" font-family="Arial" font-size="14.00">BRB(deterministic_brb::Op&lt;A, S, DataTypeOp&gt;)</text>
<text text-anchor="start" x="342.5" y="-881.8" font-family="Arial" font-size="14.00">Membership(Box&lt;brb_membership::Vote&lt;A, S&gt;&gt;)</text>
<polygon fill="none" stroke="black" points="330,-866 330,-972 673,-972 673,-866 330,-866"/>
</g>
<!-- ndPayload&#45;&gt;ndPacket -->
<g id="edge7" class="edge"><title>ndPayload&#45;&gt;ndPacket</title>
<path fill="none" stroke="black" d="M501.5,-861.818C501.5,-822.339 501.5,-769.068 501.5,-725.826"/>
<polygon fill="black" stroke="black" points="501.5,-725.626 497.5,-719.626 501.5,-713.626 505.5,-719.626 501.5,-725.626"/>
</g>
</g>
</svg>
