<?xml version="1.0" encoding="UTF-8" standalone="no"?>
<!DOCTYPE svg PUBLIC "-//W3C//DTD SVG 1.1//EN"
 "http://www.w3.org/Graphics/SVG/1.1/DTD/svg11.dtd">
<!-- Generated by graphviz version 2.38.0 (20140413.2041)
 -->
<!-- Title: ml Pages: 1 -->
<svg width="584pt" height="467pt"
 viewBox="0.00 0.00 584.00 467.00" xmlns="http://www.w3.org/2000/svg" xmlns:xlink="http://www.w3.org/1999/xlink">
<g id="graph0" class="graph" transform="scale(1 1) rotate(0) translate(4 463)">
<title>ml</title>
<polygon fill="white" stroke="none" points="-4,4 -4,-463 580,-463 580,4 -4,4"/>
<!-- ndBank -->
<g id="node1" class="node"><title>ndBank</title>
<polygon fill="lightblue" stroke="none" points="9,-101.5 9,-138.5 325,-138.5 325,-101.5 9,-101.5"/>
<polygon fill="none" stroke="black" points="9,-101.5 9,-138.5 325,-138.5 325,-101.5 9,-101.5"/>
<text text-anchor="start" x="148.5" y="-117.3" font-family="Arial" font-weight="bold" font-size="14.00">Bank</text>
<polygon fill="white" stroke="none" points="9,-19.5 9,-101.5 325,-101.5 325,-19.5 9,-19.5"/>
<polygon fill="none" stroke="black" points="9,-19.5 9,-101.5 325,-101.5 325,-19.5 9,-19.5"/>
<text text-anchor="start" x="20" y="-79.3" font-family="Arial" font-size="14.00">&#45; id: A</text>
<text text-anchor="start" x="20" y="-64.3" font-family="Arial" font-size="14.00">&#45; deps: BTreeSet&lt;Transfer&lt;A&gt;&gt;</text>
<text text-anchor="start" x="20" y="-49.3" font-family="Arial" font-size="14.00">&#45; initial_balances: BTreeMap&lt;A, Money&gt;</text>
<text text-anchor="start" x="20" y="-34.3" font-family="Arial" font-size="14.00">&#45; hist: BTreeMap&lt;A, BTreeSet&lt;Transfer&lt;A&gt;&gt;&gt;</text>
<polygon fill="none" stroke="black" points="8,-19 8,-140 326,-140 326,-19 8,-19"/>
</g>
<!-- ndValidationError -->
<g id="node2" class="node"><title>ndValidationError</title>
<polygon fill="yellow" stroke="none" points="361,-116.5 361,-153.5 567,-153.5 567,-116.5 361,-116.5"/>
<polygon fill="none" stroke="black" points="361,-116.5 361,-153.5 567,-153.5 567,-116.5 361,-116.5"/>
<text text-anchor="start" x="411" y="-132.3" font-family="Arial" font-weight="bold" font-size="14.00">ValidationError</text>
<polygon fill="white" stroke="none" points="361,-4.5 361,-116.5 567,-116.5 567,-4.5 361,-4.5"/>
<polygon fill="none" stroke="black" points="361,-4.5 361,-116.5 567,-116.5 567,-4.5 361,-4.5"/>
<text text-anchor="start" x="372" y="-94.3" font-family="Arial" font-size="14.00">NotInitiatedByAccountOwner</text>
<text text-anchor="start" x="372" y="-79.3" font-family="Arial" font-size="14.00">FromAccountDoesNotExist</text>
<text text-anchor="start" x="372" y="-64.3" font-family="Arial" font-size="14.00">ToAccountDoesNotExist</text>
<text text-anchor="start" x="372" y="-49.3" font-family="Arial" font-size="14.00">InsufficientFunds</text>
<text text-anchor="start" x="372" y="-34.3" font-family="Arial" font-size="14.00">MissingDependentOps</text>
<text text-anchor="start" x="372" y="-19.3" font-family="Arial" font-size="14.00">OwnerAlreadyHasAnAccount</text>
<polygon fill="none" stroke="black" points="360,-4 360,-155 568,-155 568,-4 360,-4"/>
</g>
<!-- ndOp -->
<g id="node3" class="node"><title>ndOp</title>
<polygon fill="yellow" stroke="none" points="205,-251.5 205,-288.5 368,-288.5 368,-251.5 205,-251.5"/>
<polygon fill="none" stroke="black" points="205,-251.5 205,-288.5 368,-288.5 368,-251.5 205,-251.5"/>
<text text-anchor="start" x="276" y="-267.3" font-family="Arial" font-weight="bold" font-size="14.00">Op</text>
<polygon fill="white" stroke="none" points="205,-199.5 205,-251.5 368,-251.5 368,-199.5 205,-199.5"/>
<polygon fill="none" stroke="black" points="205,-199.5 205,-251.5 368,-251.5 368,-199.5 205,-199.5"/>
<text text-anchor="start" x="216" y="-229.3" font-family="Arial" font-size="14.00">Transfer(Transfer&lt;A&gt;)</text>
<text text-anchor="start" x="216" y="-214.3" font-family="Arial" font-size="14.00">OpenAccount</text>
<polygon fill="none" stroke="black" points="203.5,-199 203.5,-290 368.5,-290 368.5,-199 203.5,-199"/>
</g>
<!-- ndOp&#45;&gt;ndBank -->
<g id="edge1" class="edge"><title>ndOp&#45;&gt;ndBank</title>
<path fill="none" stroke="black" d="M250.296,-194.595C240.624,-181.347 229.948,-166.723 219.558,-152.492"/>
<polygon fill="black" stroke="black" points="213.484,-144.171 223.015,-149.594 216.432,-148.209 219.38,-152.248 219.38,-152.248 219.38,-152.248 216.432,-148.209 215.746,-154.901 213.484,-144.171 213.484,-144.171"/>
</g>
<!-- ndOp&#45;&gt;ndValidationError -->
<g id="edge2" class="edge"><title>ndOp&#45;&gt;ndValidationError</title>
<path fill="none" stroke="black" stroke-dasharray="5,2" d="M339.406,-194.595C349.307,-185.528 359.912,-175.817 370.602,-166.028"/>
<polygon fill="black" stroke="black" points="378.008,-159.245 373.672,-169.318 374.321,-162.622 370.633,-165.999 370.633,-165.999 370.633,-165.999 374.321,-162.622 367.594,-162.68 378.008,-159.245 378.008,-159.245"/>
</g>
<!-- ndTransfer -->
<g id="node4" class="node"><title>ndTransfer</title>
<polygon fill="lightblue" stroke="none" points="113,-416.5 113,-453.5 340,-453.5 340,-416.5 113,-416.5"/>
<polygon fill="none" stroke="black" points="113,-416.5 113,-453.5 340,-453.5 340,-416.5 113,-416.5"/>
<text text-anchor="start" x="196.5" y="-432.3" font-family="Arial" font-weight="bold" font-size="14.00">Transfer</text>
<polygon fill="white" stroke="none" points="113,-334.5 113,-416.5 340,-416.5 340,-334.5 113,-334.5"/>
<polygon fill="none" stroke="black" points="113,-334.5 113,-416.5 340,-416.5 340,-334.5 113,-334.5"/>
<text text-anchor="start" x="124" y="-394.3" font-family="Arial" font-size="14.00">&#45; from: A</text>
<text text-anchor="start" x="124" y="-379.3" font-family="Arial" font-size="14.00">&#45; to: A</text>
<text text-anchor="start" x="124" y="-364.3" font-family="Arial" font-size="14.00">&#45; amount: Money</text>
<text text-anchor="start" x="124" y="-349.3" font-family="Arial" font-size="14.00">&#45; deps: BTreeSet&lt;Transfer&lt;A&gt;&gt;</text>
<polygon fill="none" stroke="black" points="111.5,-334 111.5,-455 340.5,-455 340.5,-334 111.5,-334"/>
</g>
<!-- ndTransfer&#45;&gt;ndBank -->
<g id="edge3" class="edge"><title>ndTransfer&#45;&gt;ndBank</title>
<path fill="none" stroke="black" d="M197.243,-329.907C192.853,-318.162 188.845,-305.858 186,-294 175.236,-249.141 170.442,-197.662 168.359,-156.494"/>
<polygon fill="black" stroke="black" points="168.352,-156.332 164.084,-150.52 167.808,-144.344 172.076,-150.157 168.352,-156.332"/>
</g>
<!-- ndTransfer&#45;&gt;ndOp -->
<g id="edge4" class="edge"><title>ndTransfer&#45;&gt;ndOp</title>
<path fill="none" stroke="black" d="M251.794,-329.876C255.075,-321.782 258.425,-313.519 261.682,-305.484"/>
<polygon fill="black" stroke="black" points="261.7,-305.44 260.247,-298.377 266.208,-294.32 267.661,-301.383 261.7,-305.44"/>
</g>
</g>
</svg>
