<?xml version="1.0" encoding="UTF-8" standalone="no"?>
<!DOCTYPE svg PUBLIC "-//W3C//DTD SVG 1.1//EN"
 "http://www.w3.org/Graphics/SVG/1.1/DTD/svg11.dtd">
<!-- Generated by graphviz version 2.38.0 (20140413.2041)
 -->
<!-- Title: ml Pages: 1 -->
<svg width="335pt" height="374pt"
 viewBox="0.00 0.00 334.73 374.00" xmlns="http://www.w3.org/2000/svg" xmlns:xlink="http://www.w3.org/1999/xlink">
<g id="graph0" class="graph" transform="scale(1 1) rotate(0) translate(4 370)">
<title>ml</title>
<polygon fill="white" stroke="none" points="-4,4 -4,-370 330.732,-370 330.732,4 -4,4"/>
<!-- ndBank -->
<g id="node1" class="node"><title>ndBank</title>
<text text-anchor="middle" x="46.732" y="-14.3" font-family="Times,serif" font-size="14.00">ndBank</text>
</g>
<!-- ndValidationError -->
<g id="node2" class="node"><title>ndValidationError</title>
<g id="a_node2_0"><a xlink:href="https://github.com/maidsafe/brb_dt_at2/blob/master/src/bank.rs#:~:text=enum%20ValidationError" xlink:title="&lt;TABLE&gt;">
<polygon fill="yellow" stroke="none" points="111.732,-323.5 111.732,-360.5 317.732,-360.5 317.732,-323.5 111.732,-323.5"/>
<polygon fill="none" stroke="black" points="111.732,-323.5 111.732,-360.5 317.732,-360.5 317.732,-323.5 111.732,-323.5"/>
<text text-anchor="start" x="161.732" y="-339.3" font-family="Arial" font-weight="bold" font-size="14.00">ValidationError</text>
<polygon fill="white" stroke="none" points="111.732,-211.5 111.732,-323.5 317.732,-323.5 317.732,-211.5 111.732,-211.5"/>
<polygon fill="none" stroke="black" points="111.732,-211.5 111.732,-323.5 317.732,-323.5 317.732,-211.5 111.732,-211.5"/>
<text text-anchor="start" x="122.732" y="-301.3" font-family="Arial" font-size="14.00">NotInitiatedByAccountOwner</text>
<text text-anchor="start" x="122.732" y="-286.3" font-family="Arial" font-size="14.00">FromAccountDoesNotExist</text>
<text text-anchor="start" x="122.732" y="-271.3" font-family="Arial" font-size="14.00">ToAccountDoesNotExist</text>
<text text-anchor="start" x="122.732" y="-256.3" font-family="Arial" font-size="14.00">InsufficientFunds</text>
<text text-anchor="start" x="122.732" y="-241.3" font-family="Arial" font-size="14.00">MissingDependentOps</text>
<text text-anchor="start" x="122.732" y="-226.3" font-family="Arial" font-size="14.00">OwnerAlreadyHasAnAccount</text>
<polygon fill="none" stroke="black" points="110.732,-211 110.732,-362 318.732,-362 318.732,-211 110.732,-211"/>
</a>
</g>
</g>
<!-- ndOp -->
<g id="node3" class="node"><title>ndOp</title>
<g id="a_node3_1"><a xlink:href="https://github.com/maidsafe/brb_dt_at2/blob/master/src/op.rs#:~:text=enum%20Op" xlink:title="&lt;TABLE&gt;">
<polygon fill="yellow" stroke="none" points="25.732,-128.5 25.732,-165.5 188.732,-165.5 188.732,-128.5 25.732,-128.5"/>
<polygon fill="none" stroke="black" points="25.732,-128.5 25.732,-165.5 188.732,-165.5 188.732,-128.5 25.732,-128.5"/>
<text text-anchor="start" x="96.732" y="-144.3" font-family="Arial" font-weight="bold" font-size="14.00">Op</text>
<polygon fill="white" stroke="none" points="25.732,-76.5 25.732,-128.5 188.732,-128.5 188.732,-76.5 25.732,-76.5"/>
<polygon fill="none" stroke="black" points="25.732,-76.5 25.732,-128.5 188.732,-128.5 188.732,-76.5 25.732,-76.5"/>
<text text-anchor="start" x="36.732" y="-106.3" font-family="Arial" font-size="14.00">Transfer(Transfer&lt;A&gt;)</text>
<text text-anchor="start" x="36.732" y="-91.3" font-family="Arial" font-size="14.00">OpenAccount</text>
<polygon fill="none" stroke="black" points="24.232,-76 24.232,-167 189.232,-167 189.232,-76 24.232,-76"/>
</a>
</g>
</g>
<!-- ndOp&#45;&gt;ndBank -->
<g id="edge1" class="edge"><title>ndOp&#45;&gt;ndBank</title>
<path fill="none" stroke="black" stroke-dasharray="5,2" d="M77.9621,-71.831C72.4555,-62.5156 66.8935,-53.1066 62.02,-44.8622"/>
<polygon fill="black" stroke="black" points="56.8497,-36.1159 65.8123,-42.4343 59.3941,-40.4201 61.9385,-44.7243 61.9385,-44.7243 61.9385,-44.7243 59.3941,-40.4201 58.0647,-47.0142 56.8497,-36.1159 56.8497,-36.1159"/>
</g>
<!-- ndTransfer -->
<g id="node4" class="node"><title>ndTransfer</title>
<text text-anchor="middle" x="46.732" y="-282.8" font-family="Times,serif" font-size="14.00">ndTransfer</text>
</g>
<!-- ndTransfer&#45;&gt;ndBank -->
<g id="edge2" class="edge"><title>ndTransfer&#45;&gt;ndBank</title>
<path fill="none" stroke="black" d="M37.917,-268.225C20.3364,-231.387 -15.4785,-142.704 7.73198,-72 10.8386,-62.5365 16.3528,-53.3715 22.2744,-45.3994"/>
<polygon fill="black" stroke="black" points="22.3134,-45.3509 22.9631,-38.1691 29.8423,-36.0066 29.1926,-43.1884 22.3134,-45.3509"/>
</g>
<!-- ndTransfer&#45;&gt;ndOp -->
<g id="edge3" class="edge"><title>ndTransfer&#45;&gt;ndOp</title>
<path fill="none" stroke="black" d="M53.0396,-268.364C60.5098,-248.07 73.3608,-213.158 84.6176,-182.578"/>
<polygon fill="black" stroke="black" points="84.6939,-182.37 83.0128,-175.358 88.8392,-171.109 90.5203,-178.121 84.6939,-182.37"/>
</g>
</g>
</svg>
