<?xml version="1.0" encoding="UTF-8" standalone="no"?>
<!DOCTYPE svg PUBLIC "-//W3C//DTD SVG 1.1//EN"
 "http://www.w3.org/Graphics/SVG/1.1/DTD/svg11.dtd">
<!-- Generated by graphviz version 2.38.0 (20140413.2041)
 -->
<!-- Title: ml Pages: 1 -->
<svg width="984pt" height="1889pt"
 viewBox="0.00 0.00 983.54 1889.00" xmlns="http://www.w3.org/2000/svg" xmlns:xlink="http://www.w3.org/1999/xlink">
<g id="graph0" class="graph" transform="scale(1 1) rotate(0) translate(4 1885)">
<title>ml</title>
<polygon fill="white" stroke="none" points="-4,4 -4,-1885 979.544,-1885 979.544,4 -4,4"/>
<!-- ndError -->
<g id="node1" class="node"><title>ndError</title>
<g id="a_node1_0"><a xlink:href="https://github.com/maidsafe/brb_membership/blob/master/src/error.rs#:~:text=enum%20Error" xlink:title="&lt;TABLE&gt;">
<polygon fill="yellow" stroke="none" points="469.5,-799 469.5,-836 738.5,-836 738.5,-799 469.5,-799"/>
<polygon fill="none" stroke="black" points="469.5,-799 469.5,-836 738.5,-836 738.5,-799 469.5,-799"/>
<text text-anchor="start" x="585.5" y="-814.8" font-family="Arial" font-weight="bold" font-size="14.00">Error</text>
<polygon fill="white" stroke="none" points="469.5,-552 469.5,-799 738.5,-799 738.5,-552 469.5,-552"/>
<polygon fill="none" stroke="black" points="469.5,-552 469.5,-799 738.5,-799 738.5,-552 469.5,-552"/>
<text text-anchor="start" x="480.5" y="-776.8" font-family="Arial" font-size="14.00">IO(std::io::Error)</text>
<text text-anchor="start" x="480.5" y="-761.8" font-family="Arial" font-size="14.00">NoMembers</text>
<text text-anchor="start" x="480.5" y="-746.8" font-family="Arial" font-size="14.00">InvalidSignature(signature::Error)</text>
<text text-anchor="start" x="480.5" y="-731.8" font-family="Arial" font-size="14.00">WrongDestination</text>
<text text-anchor="start" x="480.5" y="-716.8" font-family="Arial" font-size="14.00">MembersAtCapacity</text>
<text text-anchor="start" x="480.5" y="-701.8" font-family="Arial" font-size="14.00">JoinRequestForExistingMember</text>
<text text-anchor="start" x="480.5" y="-686.8" font-family="Arial" font-size="14.00">LeaveRequestForNonMember</text>
<text text-anchor="start" x="480.5" y="-671.8" font-family="Arial" font-size="14.00">VoteNotForNextGeneration</text>
<text text-anchor="start" x="480.5" y="-656.8" font-family="Arial" font-size="14.00">VoteFromNonMember</text>
<text text-anchor="start" x="480.5" y="-641.8" font-family="Arial" font-size="14.00">VoterChangedMind</text>
<text text-anchor="start" x="480.5" y="-626.8" font-family="Arial" font-size="14.00">ExistingVoteIncompatibleWithNewVote</text>
<text text-anchor="start" x="480.5" y="-611.8" font-family="Arial" font-size="14.00">SuperMajorityBallotIsNotSuperMajority</text>
<text text-anchor="start" x="480.5" y="-596.8" font-family="Arial" font-size="14.00">InvalidGeneration(Generation)</text>
<text text-anchor="start" x="480.5" y="-581.8" font-family="Arial" font-size="14.00">InvalidVoteInHistory(Vote)</text>
<text text-anchor="start" x="480.5" y="-566.8" font-family="Arial" font-size="14.00">Encoding(bincode::Error)</text>
<polygon fill="none" stroke="black" points="468,-551 468,-837 739,-837 739,-551 468,-551"/>
</a>
</g>
</g>
<!-- ndState -->
<g id="node5" class="node"><title>ndState</title>
<g id="a_node5_1"><a xlink:href="https://github.com/maidsafe/brb_membership/blob/master/src/brb_membership.rs#:~:text=struct%20State" xlink:title="&lt;TABLE&gt;">
<polygon fill="lightblue" stroke="none" points="109.5,-468.5 109.5,-505.5 753.5,-505.5 753.5,-468.5 109.5,-468.5"/>
<polygon fill="none" stroke="black" points="109.5,-468.5 109.5,-505.5 753.5,-505.5 753.5,-468.5 109.5,-468.5"/>
<text text-anchor="start" x="413.5" y="-484.3" font-family="Arial" font-weight="bold" font-size="14.00">State</text>
<polygon fill="white" stroke="none" points="109.5,-341.5 109.5,-468.5 753.5,-468.5 753.5,-341.5 109.5,-341.5"/>
<polygon fill="none" stroke="black" points="109.5,-341.5 109.5,-468.5 753.5,-468.5 753.5,-341.5 109.5,-341.5"/>
<text text-anchor="start" x="120.5" y="-446.3" font-family="Arial" font-size="14.00">+ secret_key: SecretKey</text>
<text text-anchor="start" x="120.5" y="-431.3" font-family="Arial" font-size="14.00">+ gen: Generation</text>
<text text-anchor="start" x="120.5" y="-416.3" font-family="Arial" font-size="14.00">+ pending_gen: Generation</text>
<text text-anchor="start" x="120.5" y="-401.3" font-family="Arial" font-size="14.00">+ forced_reconfigs: BTreeMap&lt;Generation, BTreeSet&lt;Reconfig&gt;&gt;</text>
<text text-anchor="start" x="120.5" y="-386.3" font-family="Arial" font-size="14.00">+ history: BTreeMap&lt;Generation, Vote&gt;</text>
<text text-anchor="start" x="120.5" y="-371.3" font-family="Arial" font-size="14.00">+ votes: BTreeMap&lt;PublicKey, Vote&gt;</text>
<text text-anchor="start" x="120.5" y="-356.3" font-family="Arial" font-size="14.00">+ faulty: bool</text>
<polygon fill="white" stroke="none" points="109.5,-4.5 109.5,-341.5 753.5,-341.5 753.5,-4.5 109.5,-4.5"/>
<polygon fill="none" stroke="black" points="109.5,-4.5 109.5,-341.5 753.5,-341.5 753.5,-4.5 109.5,-4.5"/>
<text text-anchor="start" x="120.5" y="-319.3" font-family="Arial" font-size="14.00">&#45; random(mut rng: impl Rng + CryptoRng) &#45;&gt; State</text>
<text text-anchor="start" x="120.5" y="-304.3" font-family="Arial" font-size="14.00">&#45; public_key(&amp;self) &#45;&gt; PublicKey</text>
<text text-anchor="start" x="120.5" y="-289.3" font-family="Arial" font-size="14.00">&#45; force_join(&amp;mut self, actor: PublicKey)</text>
<text text-anchor="start" x="120.5" y="-274.3" font-family="Arial" font-size="14.00">&#45; force_leave(&amp;mut self, actor: PublicKey)</text>
<text text-anchor="start" x="120.5" y="-259.3" font-family="Arial" font-size="14.00">&#45; members(&amp;self, gen: Generation) &#45;&gt; Result&lt;BTreeSet&lt;PublicKey&gt;, Error&gt;</text>
<text text-anchor="start" x="120.5" y="-244.3" font-family="Arial" font-size="14.00">&#45; propose(&amp;mut self, reconfig: Reconfig) &#45;&gt; Result&lt;Vec&lt;VoteMsg&gt;, Error&gt;</text>
<text text-anchor="start" x="120.5" y="-229.3" font-family="Arial" font-size="14.00">&#45; anti_entropy(&amp;self, from_gen: Generation, actor: PublicKey) &#45;&gt; Vec&lt;VoteMsg&gt;</text>
<text text-anchor="start" x="120.5" y="-214.3" font-family="Arial" font-size="14.00">&#45; handle_vote(&amp;mut self, vote: Vote) &#45;&gt; Result&lt;Vec&lt;VoteMsg&gt;, Error&gt;</text>
<text text-anchor="start" x="120.5" y="-199.3" font-family="Arial" font-size="14.00">&#45; build_vote(&amp;self, gen: Generation, ballot: Ballot) &#45;&gt; Result&lt;Vote, Error&gt;</text>
<text text-anchor="start" x="120.5" y="-184.3" font-family="Arial" font-size="14.00">&#45; cast_vote(&amp;mut self, vote: Vote) &#45;&gt; Result&lt;Vec&lt;VoteMsg&gt;, Error&gt;</text>
<text text-anchor="start" x="120.5" y="-169.3" font-family="Arial" font-size="14.00">&#45; log_vote(&amp;mut self, vote: &amp;Vote)</text>
<text text-anchor="start" x="120.5" y="-154.3" font-family="Arial" font-size="14.00">&#45; count_votes(&amp;self, votes: &amp;BTreeSet&lt;Vote&gt;) &#45;&gt; BTreeMap&lt;BTreeSet&lt;Reconfig&gt;, usize&gt;</text>
<text text-anchor="start" x="120.5" y="-139.3" font-family="Arial" font-size="14.00">&#45; is_split_vote(&amp;self, votes: &amp;BTreeSet&lt;Vote&gt;) &#45;&gt; Result&lt;bool, Error&gt;</text>
<text text-anchor="start" x="120.5" y="-124.3" font-family="Arial" font-size="14.00">&#45; is_super_majority(&amp;self, votes: &amp;BTreeSet&lt;Vote&gt;) &#45;&gt; Result&lt;bool, Error&gt;</text>
<text text-anchor="start" x="120.5" y="-109.3" font-family="Arial" font-size="14.00">&#45; is_super_majority_over_super_majorities(&amp;self, votes: &amp;BTreeSet&lt;Vote&gt;) &#45;&gt; Result&lt;bool, Error&gt;</text>
<text text-anchor="start" x="120.5" y="-94.3" font-family="Arial" font-size="14.00">&#45; resolve_votes(&amp;self, votes: &amp;BTreeSet&lt;Vote&gt;) &#45;&gt; BTreeSet&lt;Reconfig&gt;</text>
<text text-anchor="start" x="120.5" y="-79.3" font-family="Arial" font-size="14.00">&#45; validate_vote(&amp;self, vote: &amp;Vote) &#45;&gt; Result&lt;(), Error&gt;</text>
<text text-anchor="start" x="120.5" y="-64.3" font-family="Arial" font-size="14.00">&#45; validate_ballot(&amp;self, gen: Generation, ballot: &amp;Ballot) &#45;&gt; Result&lt;(), Error&gt;</text>
<text text-anchor="start" x="120.5" y="-49.3" font-family="Arial" font-size="14.00">&#45; validate_reconfig(&amp;self, reconfig: &amp;Reconfig) &#45;&gt; Result&lt;(), Error&gt;</text>
<text text-anchor="start" x="120.5" y="-34.3" font-family="Arial" font-size="14.00">&#45; broadcast(&amp;self, vote: Vote) &#45;&gt; Result&lt;Vec&lt;VoteMsg&gt;, Error&gt;</text>
<text text-anchor="start" x="120.5" y="-19.3" font-family="Arial" font-size="14.00">&#45; send(&amp;self, vote: Vote, dest: PublicKey) &#45;&gt; VoteMsg</text>
<polygon fill="none" stroke="black" points="108.5,-4 108.5,-507 754.5,-507 754.5,-4 108.5,-4"/>
</a>
</g>
</g>
<!-- ndError&#45;&gt;ndState -->
<g id="edge1" class="edge"><title>ndError&#45;&gt;ndState</title>
<path fill="none" stroke="black" d="M545.868,-546.741C542.462,-538.099 538.99,-529.287 535.476,-520.368"/>
<polygon fill="black" stroke="black" points="531.799,-511.039 539.652,-518.693 533.632,-515.691 535.465,-520.342 535.465,-520.342 535.465,-520.342 533.632,-515.691 531.279,-521.992 531.799,-511.039 531.799,-511.039"/>
</g>
<!-- ndPublicKey -->
<g id="node2" class="node"><title>ndPublicKey</title>
<g id="a_node2_2"><a xlink:href="https://github.com/maidsafe/brb_membership/blob/master/src/ed25519.rs#:~:text=struct%20PublicKey" xlink:title="&lt;TABLE&gt;">
<polygon fill="lightblue" stroke="none" points="378.5,-1666.5 378.5,-1703.5 893.5,-1703.5 893.5,-1666.5 378.5,-1666.5"/>
<polygon fill="none" stroke="black" points="378.5,-1666.5 378.5,-1703.5 893.5,-1703.5 893.5,-1666.5 378.5,-1666.5"/>
<text text-anchor="start" x="600.5" y="-1682.3" font-family="Arial" font-weight="bold" font-size="14.00">PublicKey</text>
<polygon fill="white" stroke="none" points="378.5,-1629.5 378.5,-1666.5 893.5,-1666.5 893.5,-1629.5 378.5,-1629.5"/>
<polygon fill="none" stroke="black" points="378.5,-1629.5 378.5,-1666.5 893.5,-1666.5 893.5,-1629.5 378.5,-1629.5"/>
<text text-anchor="start" x="389.5" y="-1644.3" font-family="Arial" font-size="14.00">&#45; ed25519::PublicKey</text>
<polygon fill="white" stroke="none" points="378.5,-1532.5 378.5,-1629.5 893.5,-1629.5 893.5,-1532.5 378.5,-1532.5"/>
<polygon fill="none" stroke="black" points="378.5,-1532.5 378.5,-1629.5 893.5,-1629.5 893.5,-1532.5 378.5,-1532.5"/>
<text text-anchor="start" x="389.5" y="-1607.3" font-family="Arial" font-size="14.00">&#45; random(rng: impl Rng + CryptoRng) &#45;&gt; Self</text>
<text text-anchor="start" x="389.5" y="-1592.3" font-family="Arial" font-size="14.00">&#45; verify(&amp;self, msg: &amp;[u8], signature: &amp;Signature) &#45;&gt; Result&lt;(), signature::Error&gt;</text>
<text text-anchor="start" x="389.5" y="-1577.3" font-family="Arial" font-size="14.00">&#45; fmt(&amp;self, f: &amp;mut core::fmt::Formatter&lt;&#39;_&gt;) &#45;&gt; core::fmt::Result</text>
<text text-anchor="start" x="389.5" y="-1562.3" font-family="Arial" font-size="14.00">&#45; partial_cmp(&amp;self, other: &amp;Self) &#45;&gt; Option&lt;core::cmp::Ordering&gt;</text>
<text text-anchor="start" x="389.5" y="-1547.3" font-family="Arial" font-size="14.00">&#45; cmp(&amp;self, other: &amp;Self) &#45;&gt; std::cmp::Ordering</text>
<polygon fill="none" stroke="black" points="377,-1532 377,-1705 894,-1705 894,-1532 377,-1532"/>
</a>
</g>
</g>
<!-- ndSecretKey -->
<g id="node3" class="node"><title>ndSecretKey</title>
<g id="a_node3_3"><a xlink:href="https://github.com/maidsafe/brb_membership/blob/master/src/ed25519.rs#:~:text=struct%20SecretKey" xlink:title="&lt;TABLE&gt;">
<polygon fill="lightblue" stroke="none" points="9.5,-1449.5 9.5,-1486.5 338.5,-1486.5 338.5,-1449.5 9.5,-1449.5"/>
<polygon fill="none" stroke="black" points="9.5,-1449.5 9.5,-1486.5 338.5,-1486.5 338.5,-1449.5 9.5,-1449.5"/>
<text text-anchor="start" x="137.5" y="-1465.3" font-family="Arial" font-weight="bold" font-size="14.00">SecretKey</text>
<polygon fill="white" stroke="none" points="9.5,-1412.5 9.5,-1449.5 338.5,-1449.5 338.5,-1412.5 9.5,-1412.5"/>
<polygon fill="none" stroke="black" points="9.5,-1412.5 9.5,-1449.5 338.5,-1449.5 338.5,-1412.5 9.5,-1412.5"/>
<text text-anchor="start" x="20.5" y="-1427.3" font-family="Arial" font-size="14.00">&#45; ed25519::Keypair</text>
<polygon fill="white" stroke="none" points="9.5,-1345.5 9.5,-1412.5 338.5,-1412.5 338.5,-1345.5 9.5,-1345.5"/>
<polygon fill="none" stroke="black" points="9.5,-1345.5 9.5,-1412.5 338.5,-1412.5 338.5,-1345.5 9.5,-1345.5"/>
<text text-anchor="start" x="20.5" y="-1390.3" font-family="Arial" font-size="14.00">&#45; random(mut rng: impl Rng + CryptoRng) &#45;&gt; Self</text>
<text text-anchor="start" x="20.5" y="-1375.3" font-family="Arial" font-size="14.00">&#45; public_key(&amp;self) &#45;&gt; PublicKey</text>
<text text-anchor="start" x="20.5" y="-1360.3" font-family="Arial" font-size="14.00">&#45; sign(&amp;self, msg: &amp;[u8]) &#45;&gt; Signature</text>
<polygon fill="none" stroke="black" points="8,-1345 8,-1488 339,-1488 339,-1345 8,-1345"/>
</a>
</g>
</g>
<!-- ndPublicKey&#45;&gt;ndSecretKey -->
<g id="edge2" class="edge"><title>ndPublicKey&#45;&gt;ndSecretKey</title>
<path fill="none" stroke="black" d="M428.486,-1527.88C404.006,-1517.29 379.163,-1506.53 355.071,-1496.1"/>
<polygon fill="black" stroke="black" points="345.878,-1492.12 356.842,-1491.97 350.466,-1494.11 355.055,-1496.1 355.055,-1496.1 355.055,-1496.1 350.466,-1494.11 353.267,-1500.22 345.878,-1492.12 345.878,-1492.12"/>
</g>
<!-- ndPublicKey&#45;&gt;ndState -->
<g id="edge3" class="edge"><title>ndPublicKey&#45;&gt;ndState</title>
<path fill="none" stroke="black" stroke-dasharray="5,2" d="M444.192,-1527.8C432.238,-1517.03 421.444,-1505.12 412.5,-1492 309.07,-1340.22 352.507,-838.711 392.612,-523.239"/>
<polygon fill="black" stroke="black" points="392.634,-523.066 389.428,-516.607 394.157,-511.163 397.363,-517.622 392.634,-523.066"/>
</g>
<!-- ndReconfig -->
<g id="node6" class="node"><title>ndReconfig</title>
<g id="a_node6_4"><a xlink:href="https://github.com/maidsafe/brb_membership/blob/master/src/brb_membership.rs#:~:text=enum%20Reconfig" xlink:title="&lt;TABLE&gt;">
<polygon fill="yellow" stroke="none" points="431.5,-1449.5 431.5,-1486.5 840.5,-1486.5 840.5,-1449.5 431.5,-1449.5"/>
<polygon fill="none" stroke="black" points="431.5,-1449.5 431.5,-1486.5 840.5,-1486.5 840.5,-1449.5 431.5,-1449.5"/>
<text text-anchor="start" x="605" y="-1465.3" font-family="Arial" font-weight="bold" font-size="14.00">Reconfig</text>
<polygon fill="white" stroke="none" points="431.5,-1397.5 431.5,-1449.5 840.5,-1449.5 840.5,-1397.5 431.5,-1397.5"/>
<polygon fill="none" stroke="black" points="431.5,-1397.5 431.5,-1449.5 840.5,-1449.5 840.5,-1397.5 431.5,-1397.5"/>
<text text-anchor="start" x="442.5" y="-1427.3" font-family="Arial" font-size="14.00">Join(PublicKey)</text>
<text text-anchor="start" x="442.5" y="-1412.3" font-family="Arial" font-size="14.00">Leave(PublicKey)</text>
<polygon fill="white" stroke="none" points="431.5,-1345.5 431.5,-1397.5 840.5,-1397.5 840.5,-1345.5 431.5,-1345.5"/>
<polygon fill="none" stroke="black" points="431.5,-1345.5 431.5,-1397.5 840.5,-1397.5 840.5,-1345.5 431.5,-1345.5"/>
<text text-anchor="start" x="442.5" y="-1375.3" font-family="Arial" font-size="14.00">&#45; fmt(&amp;self, f: &amp;mut std::fmt::Formatter&lt;&#39;_&gt;) &#45;&gt; std::fmt::Result</text>
<text text-anchor="start" x="442.5" y="-1360.3" font-family="Arial" font-size="14.00">&#45; apply(self, members: &amp;mut BTreeSet&lt;PublicKey&gt;)</text>
<polygon fill="none" stroke="black" points="430,-1345 430,-1488 841,-1488 841,-1345 430,-1345"/>
</a>
</g>
</g>
<!-- ndPublicKey&#45;&gt;ndReconfig -->
<g id="edge4" class="edge"><title>ndPublicKey&#45;&gt;ndReconfig</title>
<path fill="none" stroke="black" d="M635.5,-1527.74C635.5,-1519.9 635.5,-1511.98 635.5,-1504.17"/>
<polygon fill="black" stroke="black" points="635.5,-1504.01 631.5,-1498.01 635.5,-1492.01 639.5,-1498.01 635.5,-1504.01"/>
</g>
<!-- ndVote -->
<g id="node8" class="node"><title>ndVote</title>
<g id="a_node8_5"><a xlink:href="https://github.com/maidsafe/brb_membership/blob/master/src/brb_membership.rs#:~:text=struct%20Vote" xlink:title="&lt;TABLE&gt;">
<polygon fill="lightblue" stroke="none" points="507.5,-1061 507.5,-1098 916.5,-1098 916.5,-1061 507.5,-1061"/>
<polygon fill="none" stroke="black" points="507.5,-1061 507.5,-1098 916.5,-1098 916.5,-1061 507.5,-1061"/>
<text text-anchor="start" x="696.5" y="-1076.8" font-family="Arial" font-weight="bold" font-size="14.00">Vote</text>
<polygon fill="white" stroke="none" points="507.5,-979 507.5,-1061 916.5,-1061 916.5,-979 507.5,-979"/>
<polygon fill="none" stroke="black" points="507.5,-979 507.5,-1061 916.5,-1061 916.5,-979 507.5,-979"/>
<text text-anchor="start" x="518.5" y="-1038.8" font-family="Arial" font-size="14.00">+ gen: Generation</text>
<text text-anchor="start" x="518.5" y="-1023.8" font-family="Arial" font-size="14.00">+ ballot: Ballot</text>
<text text-anchor="start" x="518.5" y="-1008.8" font-family="Arial" font-size="14.00">+ voter: PublicKey</text>
<text text-anchor="start" x="518.5" y="-993.8" font-family="Arial" font-size="14.00">+ sig: Signature</text>
<polygon fill="white" stroke="none" points="507.5,-882 507.5,-979 916.5,-979 916.5,-882 507.5,-882"/>
<polygon fill="none" stroke="black" points="507.5,-882 507.5,-979 916.5,-979 916.5,-882 507.5,-882"/>
<text text-anchor="start" x="518.5" y="-956.8" font-family="Arial" font-size="14.00">&#45; fmt(&amp;self, f: &amp;mut std::fmt::Formatter&lt;&#39;_&gt;) &#45;&gt; std::fmt::Result</text>
<text text-anchor="start" x="518.5" y="-941.8" font-family="Arial" font-size="14.00">&#45; is_super_majority_ballot(&amp;self) &#45;&gt; bool</text>
<text text-anchor="start" x="518.5" y="-926.8" font-family="Arial" font-size="14.00">&#45; unpack_votes(&amp;self) &#45;&gt; BTreeSet&lt;&amp;Vote&gt;</text>
<text text-anchor="start" x="518.5" y="-911.8" font-family="Arial" font-size="14.00">&#45; reconfigs(&amp;self) &#45;&gt; BTreeSet&lt;(PublicKey, Reconfig)&gt;</text>
<text text-anchor="start" x="518.5" y="-896.8" font-family="Arial" font-size="14.00">&#45; supersedes(&amp;self, vote: &amp;Vote) &#45;&gt; bool</text>
<polygon fill="none" stroke="black" points="506,-881 506,-1099 917,-1099 917,-881 506,-881"/>
</a>
</g>
</g>
<!-- ndPublicKey&#45;&gt;ndVote -->
<g id="edge5" class="edge"><title>ndPublicKey&#45;&gt;ndVote</title>
<path fill="none" stroke="black" d="M825.63,-1527.9C837.646,-1517.09 848.503,-1505.16 857.5,-1492 904.903,-1422.69 878.485,-1388.76 884.5,-1305 889.785,-1231.41 915.36,-1206.01 884.5,-1139 880.386,-1130.07 875.437,-1121.47 869.855,-1113.23"/>
<polygon fill="black" stroke="black" points="869.759,-1113.1 863.007,-1110.57 862.746,-1103.36 869.498,-1105.89 869.759,-1113.1"/>
</g>
<!-- ndVoteMsg -->
<g id="node9" class="node"><title>ndVoteMsg</title>
<g id="a_node9_6"><a xlink:href="https://github.com/maidsafe/brb_membership/blob/master/src/brb_membership.rs#:~:text=struct%20VoteMsg" xlink:title="&lt;TABLE&gt;">
<polygon fill="lightblue" stroke="none" points="812.5,-701 812.5,-738 946.5,-738 946.5,-701 812.5,-701"/>
<polygon fill="none" stroke="black" points="812.5,-701 812.5,-738 946.5,-738 946.5,-701 812.5,-701"/>
<text text-anchor="start" x="849" y="-716.8" font-family="Arial" font-weight="bold" font-size="14.00">VoteMsg</text>
<polygon fill="white" stroke="none" points="812.5,-649 812.5,-701 946.5,-701 946.5,-649 812.5,-649"/>
<polygon fill="none" stroke="black" points="812.5,-649 812.5,-701 946.5,-701 946.5,-649 812.5,-649"/>
<text text-anchor="start" x="823.5" y="-678.8" font-family="Arial" font-size="14.00">+ vote: Vote</text>
<text text-anchor="start" x="823.5" y="-663.8" font-family="Arial" font-size="14.00">+ dest: PublicKey</text>
<polygon fill="none" stroke="black" points="811.5,-648.5 811.5,-739.5 947.5,-739.5 947.5,-648.5 811.5,-648.5"/>
</a>
</g>
</g>
<!-- ndPublicKey&#45;&gt;ndVoteMsg -->
<g id="edge6" class="edge"><title>ndPublicKey&#45;&gt;ndVoteMsg</title>
<path fill="none" stroke="black" d="M853.708,-1527.88C866.031,-1517.16 877.171,-1505.24 886.5,-1492 1047.72,-1263.14 949.749,-898.242 901.566,-755.259"/>
<polygon fill="black" stroke="black" points="901.508,-755.09 895.783,-750.706 897.628,-743.735 903.353,-748.119 901.508,-755.09"/>
</g>
<!-- ndSecretKey&#45;&gt;ndState -->
<g id="edge7" class="edge"><title>ndSecretKey&#45;&gt;ndState</title>
<path fill="none" stroke="black" d="M185.114,-1340.83C209.226,-1189.8 268.595,-837.662 341.5,-547 343.508,-538.994 345.607,-530.883 347.777,-522.708"/>
<polygon fill="black" stroke="black" points="347.778,-522.704 345.472,-515.871 350.891,-511.114 353.198,-517.947 347.778,-522.704"/>
</g>
<!-- ndSignature -->
<g id="node4" class="node"><title>ndSignature</title>
<g id="a_node4_7"><a xlink:href="https://github.com/maidsafe/brb_membership/blob/master/src/ed25519.rs#:~:text=struct%20Signature" xlink:title="&lt;TABLE&gt;">
<polygon fill="lightblue" stroke="none" points="418.5,-1839 418.5,-1876 852.5,-1876 852.5,-1839 418.5,-1839"/>
<polygon fill="none" stroke="black" points="418.5,-1839 418.5,-1876 852.5,-1876 852.5,-1839 418.5,-1839"/>
<text text-anchor="start" x="601.5" y="-1854.8" font-family="Arial" font-weight="bold" font-size="14.00">Signature</text>
<polygon fill="white" stroke="none" points="418.5,-1802 418.5,-1839 852.5,-1839 852.5,-1802 418.5,-1802"/>
<polygon fill="none" stroke="black" points="418.5,-1802 418.5,-1839 852.5,-1839 852.5,-1802 418.5,-1802"/>
<text text-anchor="start" x="429.5" y="-1816.8" font-family="Arial" font-size="14.00">&#45; ed25519::Signature</text>
<polygon fill="white" stroke="none" points="418.5,-1750 418.5,-1802 852.5,-1802 852.5,-1750 418.5,-1750"/>
<polygon fill="none" stroke="black" points="418.5,-1750 418.5,-1802 852.5,-1802 852.5,-1750 418.5,-1750"/>
<text text-anchor="start" x="429.5" y="-1779.8" font-family="Arial" font-size="14.00">&#45; partial_cmp(&amp;self, other: &amp;Self) &#45;&gt; Option&lt;core::cmp::Ordering&gt;</text>
<text text-anchor="start" x="429.5" y="-1764.8" font-family="Arial" font-size="14.00">&#45; cmp(&amp;self, other: &amp;Self) &#45;&gt; std::cmp::Ordering</text>
<polygon fill="none" stroke="black" points="417.5,-1749 417.5,-1877 853.5,-1877 853.5,-1749 417.5,-1749"/>
</a>
</g>
</g>
<!-- ndSignature&#45;&gt;ndPublicKey -->
<g id="edge8" class="edge"><title>ndSignature&#45;&gt;ndPublicKey</title>
<path fill="none" stroke="black" stroke-dasharray="5,2" d="M635.5,-1744.94C635.5,-1736.6 635.5,-1727.93 635.5,-1719.22"/>
<polygon fill="black" stroke="black" points="635.5,-1709 640,-1719 635.5,-1714 635.5,-1719 635.5,-1719 635.5,-1719 635.5,-1714 631,-1719 635.5,-1709 635.5,-1709"/>
</g>
<!-- ndSignature&#45;&gt;ndSecretKey -->
<g id="edge9" class="edge"><title>ndSignature&#45;&gt;ndSecretKey</title>
<path fill="none" stroke="black" d="M414.713,-1744.91C395.076,-1734.5 376.302,-1722.59 359.5,-1709 291.095,-1653.68 240.056,-1566.18 208.917,-1501.46"/>
<polygon fill="black" stroke="black" points="204.467,-1492.09 212.82,-1499.19 206.611,-1496.6 208.754,-1501.12 208.754,-1501.12 208.754,-1501.12 206.611,-1496.6 204.689,-1503.05 204.467,-1492.09 204.467,-1492.09"/>
</g>
<!-- ndSignature&#45;&gt;ndVote -->
<g id="edge10" class="edge"><title>ndSignature&#45;&gt;ndVote</title>
<path fill="none" stroke="black" d="M861.674,-1755.64C880.644,-1743.09 897.501,-1727.75 910.5,-1709 951.649,-1649.65 988.781,-1302.63 906.5,-1139 901.903,-1129.86 896.445,-1121.13 890.33,-1112.81"/>
<polygon fill="black" stroke="black" points="890.242,-1112.7 883.398,-1110.42 882.861,-1103.23 889.705,-1105.5 890.242,-1112.7"/>
</g>
<!-- ndReconfig&#45;&gt;ndState -->
<g id="edge11" class="edge"><title>ndReconfig&#45;&gt;ndState</title>
<path fill="none" stroke="black" stroke-dasharray="5,2" d="M443.147,-1340.65C431.293,-1330.23 420.815,-1318.4 412.5,-1305 372.354,-1240.3 392.789,-812.445 411.773,-523.671"/>
<polygon fill="black" stroke="black" points="411.798,-523.289 408.202,-517.039 412.59,-511.316 416.185,-517.566 411.798,-523.289"/>
</g>
<!-- ndBallot -->
<g id="node7" class="node"><title>ndBallot</title>
<g id="a_node7_8"><a xlink:href="https://github.com/maidsafe/brb_membership/blob/master/src/brb_membership.rs#:~:text=enum%20Ballot" xlink:title="&lt;TABLE&gt;">
<polygon fill="yellow" stroke="none" points="431.5,-1263 431.5,-1300 840.5,-1300 840.5,-1263 431.5,-1263"/>
<polygon fill="none" stroke="black" points="431.5,-1263 431.5,-1300 840.5,-1300 840.5,-1263 431.5,-1263"/>
<text text-anchor="start" x="616" y="-1278.8" font-family="Arial" font-weight="bold" font-size="14.00">Ballot</text>
<polygon fill="white" stroke="none" points="431.5,-1196 431.5,-1263 840.5,-1263 840.5,-1196 431.5,-1196"/>
<polygon fill="none" stroke="black" points="431.5,-1196 431.5,-1263 840.5,-1263 840.5,-1196 431.5,-1196"/>
<text text-anchor="start" x="442.5" y="-1240.8" font-family="Arial" font-size="14.00">Propose(Reconfig)</text>
<text text-anchor="start" x="442.5" y="-1225.8" font-family="Arial" font-size="14.00">Merge(BTreeSet&lt;Vote&gt;)</text>
<text text-anchor="start" x="442.5" y="-1210.8" font-family="Arial" font-size="14.00">SuperMajority(BTreeSet&lt;Vote&gt;)</text>
<polygon fill="white" stroke="none" points="431.5,-1144 431.5,-1196 840.5,-1196 840.5,-1144 431.5,-1144"/>
<polygon fill="none" stroke="black" points="431.5,-1144 431.5,-1196 840.5,-1196 840.5,-1144 431.5,-1144"/>
<text text-anchor="start" x="442.5" y="-1173.8" font-family="Arial" font-size="14.00">&#45; fmt(&amp;self, f: &amp;mut std::fmt::Formatter&lt;&#39;_&gt;) &#45;&gt; std::fmt::Result</text>
<text text-anchor="start" x="442.5" y="-1158.8" font-family="Arial" font-size="14.00">&#45; simplify(&amp;self) &#45;&gt; Self</text>
<polygon fill="none" stroke="black" points="430,-1143 430,-1301 841,-1301 841,-1143 430,-1143"/>
</a>
</g>
</g>
<!-- ndReconfig&#45;&gt;ndBallot -->
<g id="edge12" class="edge"><title>ndReconfig&#45;&gt;ndBallot</title>
<path fill="none" stroke="black" d="M635.5,-1340.8C635.5,-1333.01 635.5,-1325.02 635.5,-1317.05"/>
<polygon fill="black" stroke="black" points="635.5,-1317 631.5,-1311 635.5,-1305 639.5,-1311 635.5,-1317"/>
</g>
<!-- ndReconfig&#45;&gt;ndVote -->
<g id="edge13" class="edge"><title>ndReconfig&#45;&gt;ndVote</title>
<path fill="none" stroke="black" d="M826.515,-1340.99C838.513,-1330.48 849.113,-1318.54 857.5,-1305 896.344,-1242.28 885.502,-1207.26 857.5,-1139 853.607,-1129.51 848.779,-1120.3 843.272,-1111.44"/>
<polygon fill="black" stroke="black" points="837.793,-1103.04 847.026,-1108.95 840.525,-1107.22 843.257,-1111.41 843.257,-1111.41 843.257,-1111.41 840.525,-1107.22 839.488,-1113.87 837.793,-1103.04 837.793,-1103.04"/>
</g>
<!-- ndBallot&#45;&gt;ndState -->
<g id="edge14" class="edge"><title>ndBallot&#45;&gt;ndState</title>
<path fill="none" stroke="black" stroke-dasharray="5,2" d="M515.422,-1138.71C505.088,-1127.72 495.807,-1115.79 488.5,-1103 433.601,-1006.94 423.506,-732.119 424.535,-521.417"/>
<polygon fill="black" stroke="black" points="424.595,-511.118 429.037,-521.144 424.566,-516.118 424.537,-521.118 424.537,-521.118 424.537,-521.118 424.566,-516.118 420.037,-521.092 424.595,-511.118 424.595,-511.118"/>
</g>
<!-- ndBallot&#45;&gt;ndVote -->
<g id="edge15" class="edge"><title>ndBallot&#45;&gt;ndVote</title>
<path fill="none" stroke="black" d="M656.118,-1138.94C658.602,-1131.05 661.206,-1122.93 663.875,-1114.75"/>
<polygon fill="black" stroke="black" points="663.936,-1114.57 662.012,-1107.62 667.687,-1103.17 669.611,-1110.12 663.936,-1114.57"/>
</g>
<!-- ndVote&#45;&gt;ndError -->
<g id="edge16" class="edge"><title>ndVote&#45;&gt;ndError</title>
<path fill="none" stroke="black" d="M670.208,-876.593C667.334,-868.77 664.409,-860.809 661.469,-852.804"/>
<polygon fill="black" stroke="black" points="661.443,-852.733 655.619,-848.481 657.305,-841.469 663.129,-845.722 661.443,-852.733"/>
</g>
<!-- ndVote&#45;&gt;ndState -->
<g id="edge17" class="edge"><title>ndVote&#45;&gt;ndState</title>
<path fill="none" stroke="black" stroke-dasharray="5,2" d="M752.686,-876.886C779.754,-784.438 802.345,-651.919 755.5,-547 751.4,-537.816 746.85,-528.802 741.908,-519.965"/>
<polygon fill="black" stroke="black" points="736.837,-511.187 745.736,-517.595 739.338,-515.516 741.839,-519.846 741.839,-519.846 741.839,-519.846 739.338,-515.516 737.942,-522.097 736.837,-511.187 736.837,-511.187"/>
</g>
<!-- ndVote&#45;&gt;ndBallot -->
<g id="edge18" class="edge"><title>ndVote&#45;&gt;ndBallot</title>
<path fill="none" stroke="black" d="M681.184,-1103.17C678.517,-1111.27 675.799,-1119.39 673.084,-1127.37"/>
<polygon fill="black" stroke="black" points="673.009,-1127.59 674.845,-1134.56 669.114,-1138.94 667.278,-1131.97 673.009,-1127.59"/>
</g>
<!-- ndVote&#45;&gt;ndVoteMsg -->
<g id="edge19" class="edge"><title>ndVote&#45;&gt;ndVoteMsg</title>
<path fill="none" stroke="black" d="M775.733,-876.593C799.574,-834.871 825.667,-789.208 845.723,-754.109"/>
<polygon fill="black" stroke="black" points="845.791,-753.99 845.295,-746.796 851.745,-743.571 852.241,-750.765 845.791,-753.99"/>
</g>
<!-- ndVoteMsg&#45;&gt;ndState -->
<g id="edge20" class="edge"><title>ndVoteMsg&#45;&gt;ndState</title>
<path fill="none" stroke="black" d="M854.866,-644.205C838.557,-614.424 815.439,-576.53 789.5,-547 781.164,-537.51 772.495,-528.086 763.566,-518.756"/>
<polygon fill="black" stroke="black" points="756.351,-511.294 766.537,-515.355 759.826,-514.889 763.302,-518.483 763.302,-518.483 763.302,-518.483 759.826,-514.889 760.067,-521.611 756.351,-511.294 756.351,-511.294"/>
</g>
</g>
</svg>
