<?xml version="1.0" encoding="UTF-8" standalone="no"?>
<!DOCTYPE svg PUBLIC "-//W3C//DTD SVG 1.1//EN"
 "http://www.w3.org/Graphics/SVG/1.1/DTD/svg11.dtd">
<!-- Generated by graphviz version 2.38.0 (20140413.2041)
 -->
<!-- Title: ml Pages: 1 -->
<svg width="684pt" height="1127pt"
 viewBox="0.00 0.00 684.27 1127.00" xmlns="http://www.w3.org/2000/svg" xmlns:xlink="http://www.w3.org/1999/xlink">
<g id="graph0" class="graph" transform="scale(1 1) rotate(0) translate(4 1123)">
<title>ml</title>
<polygon fill="white" stroke="none" points="-4,4 -4,-1123 680.271,-1123 680.271,4 -4,4"/>
<!-- ndError -->
<g id="node1" class="node"><title>ndError</title>
<g id="a_node1_0"><a xlink:href="https://github.com/maidsafe/brb_membership/blob/master/src/bad_crypto.rs#:~:text=enum%20Error" xlink:title="&lt;TABLE&gt;">
<polygon fill="yellow" stroke="none" points="190.5,-1077 190.5,-1114 321.5,-1114 321.5,-1077 190.5,-1077"/>
<polygon fill="none" stroke="black" points="190.5,-1077 190.5,-1114 321.5,-1114 321.5,-1077 190.5,-1077"/>
<text text-anchor="start" x="237.5" y="-1092.8" font-family="Arial" font-weight="bold" font-size="14.00">Error</text>
<polygon fill="white" stroke="none" points="190.5,-1040 190.5,-1077 321.5,-1077 321.5,-1040 190.5,-1040"/>
<polygon fill="none" stroke="black" points="190.5,-1040 190.5,-1077 321.5,-1077 321.5,-1040 190.5,-1040"/>
<text text-anchor="start" x="201.5" y="-1054.8" font-family="Arial" font-size="14.00">FailedVerification</text>
<polygon fill="none" stroke="black" points="189,-1039 189,-1115 322,-1115 322,-1039 189,-1039"/>
</a>
</g>
</g>
<!-- ndPublicKey -->
<g id="node2" class="node"><title>ndPublicKey</title>
<g id="a_node2_1"><a xlink:href="https://github.com/maidsafe/brb_membership/blob/master/src/bad_crypto.rs#:~:text=struct%20PublicKey" xlink:title="&lt;TABLE&gt;">
<polygon fill="lightblue" stroke="none" points="125.5,-957 125.5,-994 218.5,-994 218.5,-957 125.5,-957"/>
<polygon fill="none" stroke="black" points="125.5,-957 125.5,-994 218.5,-994 218.5,-957 125.5,-957"/>
<text text-anchor="start" x="136.5" y="-972.8" font-family="Arial" font-weight="bold" font-size="14.00">PublicKey</text>
<polygon fill="white" stroke="none" points="125.5,-920 125.5,-957 218.5,-957 218.5,-920 125.5,-920"/>
<polygon fill="none" stroke="black" points="125.5,-920 125.5,-957 218.5,-957 218.5,-920 125.5,-920"/>
<text text-anchor="start" x="136.5" y="-934.8" font-family="Arial" font-size="14.00">&#45; u64</text>
<polygon fill="none" stroke="black" points="124,-919 124,-995 219,-995 219,-919 124,-919"/>
</a>
</g>
</g>
<!-- ndError&#45;&gt;ndPublicKey -->
<g id="edge1" class="edge"><title>ndError&#45;&gt;ndPublicKey</title>
<path fill="none" stroke="black" d="M226.121,-1034.73C219.818,-1025.88 213.097,-1016.43 206.603,-1007.31"/>
<polygon fill="black" stroke="black" points="200.721,-999.048 210.186,-1004.59 203.62,-1003.12 206.52,-1007.19 206.52,-1007.19 206.52,-1007.19 203.62,-1003.12 202.854,-1009.8 200.721,-999.048 200.721,-999.048"/>
</g>
<!-- ndSecretKey -->
<g id="node3" class="node"><title>ndSecretKey</title>
<g id="a_node3_2"><a xlink:href="https://github.com/maidsafe/brb_membership/blob/master/src/bad_crypto.rs#:~:text=struct%20SecretKey" xlink:title="&lt;TABLE&gt;">
<polygon fill="lightblue" stroke="none" points="9.5,-829.5 9.5,-866.5 104.5,-866.5 104.5,-829.5 9.5,-829.5"/>
<polygon fill="none" stroke="black" points="9.5,-829.5 9.5,-866.5 104.5,-866.5 104.5,-829.5 9.5,-829.5"/>
<text text-anchor="start" x="20.5" y="-845.3" font-family="Arial" font-weight="bold" font-size="14.00">SecretKey</text>
<polygon fill="white" stroke="none" points="9.5,-792.5 9.5,-829.5 104.5,-829.5 104.5,-792.5 9.5,-792.5"/>
<polygon fill="none" stroke="black" points="9.5,-792.5 9.5,-829.5 104.5,-829.5 104.5,-792.5 9.5,-792.5"/>
<text text-anchor="start" x="20.5" y="-807.3" font-family="Arial" font-size="14.00">&#45; u64</text>
<polygon fill="none" stroke="black" points="8,-791.5 8,-867.5 105,-867.5 105,-791.5 8,-791.5"/>
</a>
</g>
</g>
<!-- ndPublicKey&#45;&gt;ndSecretKey -->
<g id="edge2" class="edge"><title>ndPublicKey&#45;&gt;ndSecretKey</title>
<path fill="none" stroke="black" d="M133.845,-914.907C123.42,-903.53 112.004,-891.071 101.219,-879.302"/>
<polygon fill="black" stroke="black" points="94.2399,-871.686 104.314,-876.018 97.6179,-875.372 100.996,-879.059 100.996,-879.059 100.996,-879.059 97.6179,-875.372 97.6781,-882.099 94.2399,-871.686 94.2399,-871.686"/>
</g>
<!-- ndState -->
<g id="node5" class="node"><title>ndState</title>
<g id="a_node5_3"><a xlink:href="https://github.com/maidsafe/brb_membership/blob/master/src/brb_membership.rs#:~:text=struct%20State" xlink:title="&lt;TABLE&gt;">
<polygon fill="lightblue" stroke="none" points="81.5,-132 81.5,-169 527.5,-169 527.5,-132 81.5,-132"/>
<polygon fill="none" stroke="black" points="81.5,-132 81.5,-169 527.5,-169 527.5,-132 81.5,-132"/>
<text text-anchor="start" x="286.5" y="-147.8" font-family="Arial" font-weight="bold" font-size="14.00">State</text>
<polygon fill="white" stroke="none" points="81.5,-5 81.5,-132 527.5,-132 527.5,-5 81.5,-5"/>
<polygon fill="none" stroke="black" points="81.5,-5 81.5,-132 527.5,-132 527.5,-5 81.5,-5"/>
<text text-anchor="start" x="92.5" y="-109.8" font-family="Arial" font-size="14.00">+ secret_key: SecretKey</text>
<text text-anchor="start" x="92.5" y="-94.8" font-family="Arial" font-size="14.00">+ gen: Generation</text>
<text text-anchor="start" x="92.5" y="-79.8" font-family="Arial" font-size="14.00">+ pending_gen: Generation</text>
<text text-anchor="start" x="92.5" y="-64.8" font-family="Arial" font-size="14.00">+ forced_reconfigs: BTreeMap&lt;Generation, BTreeSet&lt;Reconfig&gt;&gt;</text>
<text text-anchor="start" x="92.5" y="-49.8" font-family="Arial" font-size="14.00">+ history: BTreeMap&lt;Generation, SignedVote&gt;</text>
<text text-anchor="start" x="92.5" y="-34.8" font-family="Arial" font-size="14.00">+ votes: BTreeMap&lt;PublicKey, SignedVote&gt;</text>
<text text-anchor="start" x="92.5" y="-19.8" font-family="Arial" font-size="14.00">+ faulty: bool</text>
<polygon fill="none" stroke="black" points="80.5,-4 80.5,-170 528.5,-170 528.5,-4 80.5,-4"/>
</a>
</g>
</g>
<!-- ndPublicKey&#45;&gt;ndState -->
<g id="edge3" class="edge"><title>ndPublicKey&#45;&gt;ndState</title>
<path fill="none" stroke="black" stroke-dasharray="5,2" d="M164.007,-914.84C155.121,-862.368 141.5,-768.762 141.5,-688 141.5,-688 141.5,-688 141.5,-401 141.5,-315.692 120.839,-285.528 160.5,-210 165.37,-200.726 171.269,-191.866 177.865,-183.46"/>
<polygon fill="black" stroke="black" points="177.919,-183.395 178.678,-176.224 185.589,-174.166 184.83,-181.337 177.919,-183.395"/>
</g>
<!-- ndReconfig -->
<g id="node6" class="node"><title>ndReconfig</title>
<g id="a_node6_4"><a xlink:href="https://github.com/maidsafe/brb_membership/blob/master/src/brb_membership.rs#:~:text=enum%20Reconfig" xlink:title="&lt;TABLE&gt;">
<polygon fill="yellow" stroke="none" points="484.5,-836.5 484.5,-873.5 618.5,-873.5 618.5,-836.5 484.5,-836.5"/>
<polygon fill="none" stroke="black" points="484.5,-836.5 484.5,-873.5 618.5,-873.5 618.5,-836.5 484.5,-836.5"/>
<text text-anchor="start" x="520.5" y="-852.3" font-family="Arial" font-weight="bold" font-size="14.00">Reconfig</text>
<polygon fill="white" stroke="none" points="484.5,-784.5 484.5,-836.5 618.5,-836.5 618.5,-784.5 484.5,-784.5"/>
<polygon fill="none" stroke="black" points="484.5,-784.5 484.5,-836.5 618.5,-836.5 618.5,-784.5 484.5,-784.5"/>
<text text-anchor="start" x="495.5" y="-814.3" font-family="Arial" font-size="14.00">Join(PublicKey)</text>
<text text-anchor="start" x="495.5" y="-799.3" font-family="Arial" font-size="14.00">Leave(PublicKey)</text>
<polygon fill="none" stroke="black" points="483.5,-784 483.5,-875 619.5,-875 619.5,-784 483.5,-784"/>
</a>
</g>
</g>
<!-- ndPublicKey&#45;&gt;ndReconfig -->
<g id="edge4" class="edge"><title>ndPublicKey&#45;&gt;ndReconfig</title>
<path fill="none" stroke="black" d="M227.162,-937.617C289.389,-917.066 390.975,-883.516 463.883,-859.437"/>
<polygon fill="black" stroke="black" points="463.933,-859.42 468.376,-853.74 475.328,-855.657 470.885,-861.337 463.933,-859.42"/>
</g>
<!-- ndSignedVote -->
<g id="node9" class="node"><title>ndSignedVote</title>
<g id="a_node9_5"><a xlink:href="https://github.com/maidsafe/brb_membership/blob/master/src/brb_membership.rs#:~:text=struct%20SignedVote" xlink:title="&lt;TABLE&gt;">
<polygon fill="lightblue" stroke="none" points="256.5,-417 256.5,-454 393.5,-454 393.5,-417 256.5,-417"/>
<polygon fill="none" stroke="black" points="256.5,-417 256.5,-454 393.5,-454 393.5,-417 256.5,-417"/>
<text text-anchor="start" x="285" y="-432.8" font-family="Arial" font-weight="bold" font-size="14.00">SignedVote</text>
<polygon fill="white" stroke="none" points="256.5,-350 256.5,-417 393.5,-417 393.5,-350 256.5,-350"/>
<polygon fill="none" stroke="black" points="256.5,-350 256.5,-417 393.5,-417 393.5,-350 256.5,-350"/>
<text text-anchor="start" x="267.5" y="-394.8" font-family="Arial" font-size="14.00">+ vote: Vote</text>
<text text-anchor="start" x="267.5" y="-379.8" font-family="Arial" font-size="14.00">+ voter: PublicKey</text>
<text text-anchor="start" x="267.5" y="-364.8" font-family="Arial" font-size="14.00">+ sig: Signature</text>
<polygon fill="none" stroke="black" points="255,-349 255,-455 394,-455 394,-349 255,-349"/>
</a>
</g>
</g>
<!-- ndPublicKey&#45;&gt;ndSignedVote -->
<g id="edge5" class="edge"><title>ndPublicKey&#45;&gt;ndSignedVote</title>
<path fill="none" stroke="black" d="M184.557,-914.729C187.842,-903.249 191.109,-890.715 193.5,-879 227.894,-710.479 169.928,-651.396 241.5,-495 245.65,-485.932 251.019,-477.131 257.029,-468.798"/>
<polygon fill="black" stroke="black" points="257.05,-468.771 257.521,-461.575 264.344,-459.242 263.873,-466.438 257.05,-468.771"/>
</g>
<!-- ndVoteMsg -->
<g id="node10" class="node"><title>ndVoteMsg</title>
<g id="a_node10_6"><a xlink:href="https://github.com/maidsafe/brb_membership/blob/master/src/brb_membership.rs#:~:text=struct%20VoteMsg" xlink:title="&lt;TABLE&gt;">
<polygon fill="lightblue" stroke="none" points="179.5,-266.5 179.5,-303.5 322.5,-303.5 322.5,-266.5 179.5,-266.5"/>
<polygon fill="none" stroke="black" points="179.5,-266.5 179.5,-303.5 322.5,-303.5 322.5,-266.5 179.5,-266.5"/>
<text text-anchor="start" x="220.5" y="-282.3" font-family="Arial" font-weight="bold" font-size="14.00">VoteMsg</text>
<polygon fill="white" stroke="none" points="179.5,-214.5 179.5,-266.5 322.5,-266.5 322.5,-214.5 179.5,-214.5"/>
<polygon fill="none" stroke="black" points="179.5,-214.5 179.5,-266.5 322.5,-266.5 322.5,-214.5 179.5,-214.5"/>
<text text-anchor="start" x="190.5" y="-244.3" font-family="Arial" font-size="14.00">+ vote: SignedVote</text>
<text text-anchor="start" x="190.5" y="-229.3" font-family="Arial" font-size="14.00">+ dest: PublicKey</text>
<polygon fill="none" stroke="black" points="178,-214 178,-305 323,-305 323,-214 178,-214"/>
</a>
</g>
</g>
<!-- ndPublicKey&#45;&gt;ndVoteMsg -->
<g id="edge6" class="edge"><title>ndPublicKey&#45;&gt;ndVoteMsg</title>
<path fill="none" stroke="black" d="M173.498,-914.691C175.868,-862.065 179.5,-768.296 179.5,-688 179.5,-688 179.5,-688 179.5,-543.5 179.5,-464.761 205.677,-377.303 226.242,-320.744"/>
<polygon fill="black" stroke="black" points="226.365,-320.411 224.698,-313.396 230.534,-309.159 232.2,-316.174 226.365,-320.411"/>
</g>
<!-- ndSecretKey&#45;&gt;ndState -->
<g id="edge7" class="edge"><title>ndSecretKey&#45;&gt;ndState</title>
<path fill="none" stroke="black" stroke-dasharray="5,2" d="M62.1877,-787.349C69.2848,-732.351 80.5,-631.79 80.5,-545.5 80.5,-545.5 80.5,-545.5 80.5,-401 80.5,-313.579 77.8288,-281.939 127.5,-210 134.18,-200.326 141.895,-191.185 150.291,-182.593"/>
<polygon fill="black" stroke="black" points="150.315,-182.569 151.813,-175.516 158.9,-174.185 157.403,-181.239 150.315,-182.569"/>
</g>
<!-- ndSignature -->
<g id="node4" class="node"><title>ndSignature</title>
<g id="a_node4_7"><a xlink:href="https://github.com/maidsafe/brb_membership/blob/master/src/bad_crypto.rs#:~:text=struct%20Signature" xlink:title="&lt;TABLE&gt;">
<polygon fill="lightblue" stroke="none" points="63.5,-1077 63.5,-1114 153.5,-1114 153.5,-1077 63.5,-1077"/>
<polygon fill="none" stroke="black" points="63.5,-1077 63.5,-1114 153.5,-1114 153.5,-1077 63.5,-1077"/>
<text text-anchor="start" x="74.5" y="-1092.8" font-family="Arial" font-weight="bold" font-size="14.00">Signature</text>
<polygon fill="white" stroke="none" points="63.5,-1040 63.5,-1077 153.5,-1077 153.5,-1040 63.5,-1040"/>
<polygon fill="none" stroke="black" points="63.5,-1040 63.5,-1077 153.5,-1077 153.5,-1040 63.5,-1040"/>
<text text-anchor="start" x="74.5" y="-1054.8" font-family="Arial" font-size="14.00">&#45; u64</text>
<polygon fill="none" stroke="black" points="62.5,-1039 62.5,-1115 154.5,-1115 154.5,-1039 62.5,-1039"/>
</a>
</g>
</g>
<!-- ndSignature&#45;&gt;ndPublicKey -->
<g id="edge8" class="edge"><title>ndSignature&#45;&gt;ndPublicKey</title>
<path fill="none" stroke="black" stroke-dasharray="5,2" d="M130.534,-1034.73C135.165,-1026.06 140.096,-1016.82 144.874,-1007.87"/>
<polygon fill="black" stroke="black" points="149.584,-999.048 148.844,-1009.99 147.23,-1003.46 144.875,-1007.87 144.875,-1007.87 144.875,-1007.87 147.23,-1003.46 140.905,-1005.75 149.584,-999.048 149.584,-999.048"/>
</g>
<!-- ndSignature&#45;&gt;ndSecretKey -->
<g id="edge9" class="edge"><title>ndSignature&#45;&gt;ndSecretKey</title>
<path fill="none" stroke="black" d="M99.7964,-1034.91C90.8724,-992.777 76.9731,-927.157 67.3404,-881.679"/>
<polygon fill="black" stroke="black" points="65.232,-871.725 71.7066,-880.576 66.2681,-876.617 67.3043,-881.508 67.3043,-881.508 67.3043,-881.508 66.2681,-876.617 62.9019,-882.441 65.232,-871.725 65.232,-871.725"/>
</g>
<!-- ndSignature&#45;&gt;ndSignedVote -->
<g id="edge10" class="edge"><title>ndSignature&#45;&gt;ndSignedVote</title>
<path fill="none" stroke="black" d="M162.655,-1040.44C165.636,-1038.58 168.598,-1036.76 171.5,-1035 199.413,-1018.09 214.602,-1024.07 235.5,-999 286.217,-938.167 293.5,-909.701 293.5,-830.5 293.5,-830.5 293.5,-830.5 293.5,-686 293.5,-612.325 304.01,-528.498 312.791,-471.322"/>
<polygon fill="black" stroke="black" points="312.836,-471.036 309.812,-464.49 314.691,-459.181 317.716,-465.727 312.836,-471.036"/>
</g>
<!-- ndReconfig&#45;&gt;ndState -->
<g id="edge11" class="edge"><title>ndReconfig&#45;&gt;ndState</title>
<path fill="none" stroke="black" stroke-dasharray="5,2" d="M614.201,-779.958C624.732,-769.168 634.498,-757.025 641.5,-744 683.883,-665.163 675.5,-635.007 675.5,-545.5 675.5,-545.5 675.5,-545.5 675.5,-401 675.5,-304.228 600.847,-231.293 518.517,-180.283"/>
<polygon fill="black" stroke="black" points="518.441,-180.236 511.236,-180.545 508.18,-174.014 515.384,-173.705 518.441,-180.236"/>
</g>
<!-- ndBallot -->
<g id="node7" class="node"><title>ndBallot</title>
<g id="a_node7_8"><a xlink:href="https://github.com/maidsafe/brb_membership/blob/master/src/brb_membership.rs#:~:text=enum%20Ballot" xlink:title="&lt;TABLE&gt;">
<polygon fill="yellow" stroke="none" points="331.5,-702 331.5,-739 600.5,-739 600.5,-702 331.5,-702"/>
<polygon fill="none" stroke="black" points="331.5,-702 331.5,-739 600.5,-739 600.5,-702 331.5,-702"/>
<text text-anchor="start" x="446" y="-717.8" font-family="Arial" font-weight="bold" font-size="14.00">Ballot</text>
<polygon fill="white" stroke="none" points="331.5,-635 331.5,-702 600.5,-702 600.5,-635 331.5,-635"/>
<polygon fill="none" stroke="black" points="331.5,-635 331.5,-702 600.5,-702 600.5,-635 331.5,-635"/>
<text text-anchor="start" x="342.5" y="-679.8" font-family="Arial" font-size="14.00">Propose(Reconfig)</text>
<text text-anchor="start" x="342.5" y="-664.8" font-family="Arial" font-size="14.00">Merge(BTreeSet&lt;SignedVote&gt;)</text>
<text text-anchor="start" x="342.5" y="-649.8" font-family="Arial" font-size="14.00">SuperMajority(BTreeSet&lt;SignedVote&gt;)</text>
<polygon fill="none" stroke="black" points="330,-634 330,-740 601,-740 601,-634 330,-634"/>
</a>
</g>
</g>
<!-- ndReconfig&#45;&gt;ndBallot -->
<g id="edge12" class="edge"><title>ndReconfig&#45;&gt;ndBallot</title>
<path fill="none" stroke="black" d="M521.663,-779.754C516.696,-771.64 511.47,-763.103 506.287,-754.635"/>
<polygon fill="black" stroke="black" points="506.272,-754.61 499.728,-751.581 500.007,-744.375 506.551,-747.404 506.272,-754.61"/>
</g>
<!-- ndReconfig&#45;&gt;ndSignedVote -->
<g id="edge13" class="edge"><title>ndReconfig&#45;&gt;ndSignedVote</title>
<path fill="none" stroke="black" d="M599.047,-779.56C607.026,-768.642 614.127,-756.553 618.5,-744 635.167,-696.153 650.098,-669.607 618.5,-630 573.584,-573.699 517.416,-638.133 460.5,-594 421.386,-563.671 437.886,-535.546 409.5,-495 402.875,-485.536 395.338,-476.038 387.555,-466.928"/>
<polygon fill="black" stroke="black" points="380.973,-459.376 390.936,-463.958 384.258,-463.145 387.543,-466.915 387.543,-466.915 387.543,-466.915 384.258,-463.145 384.151,-469.871 380.973,-459.376 380.973,-459.376"/>
</g>
<!-- ndVote -->
<g id="node8" class="node"><title>ndVote</title>
<g id="a_node8_9"><a xlink:href="https://github.com/maidsafe/brb_membership/blob/master/src/brb_membership.rs#:~:text=struct%20Vote" xlink:title="&lt;TABLE&gt;">
<polygon fill="lightblue" stroke="none" points="478.5,-551.5 478.5,-588.5 614.5,-588.5 614.5,-551.5 478.5,-551.5"/>
<polygon fill="none" stroke="black" points="478.5,-551.5 478.5,-588.5 614.5,-588.5 614.5,-551.5 478.5,-551.5"/>
<text text-anchor="start" x="531" y="-567.3" font-family="Arial" font-weight="bold" font-size="14.00">Vote</text>
<polygon fill="white" stroke="none" points="478.5,-499.5 478.5,-551.5 614.5,-551.5 614.5,-499.5 478.5,-499.5"/>
<polygon fill="none" stroke="black" points="478.5,-499.5 478.5,-551.5 614.5,-551.5 614.5,-499.5 478.5,-499.5"/>
<text text-anchor="start" x="489.5" y="-529.3" font-family="Arial" font-size="14.00">+ gen: Generation</text>
<text text-anchor="start" x="489.5" y="-514.3" font-family="Arial" font-size="14.00">+ ballot: Ballot</text>
<polygon fill="none" stroke="black" points="477.5,-499 477.5,-590 615.5,-590 615.5,-499 477.5,-499"/>
</a>
</g>
</g>
<!-- ndBallot&#45;&gt;ndVote -->
<g id="edge14" class="edge"><title>ndBallot&#45;&gt;ndVote</title>
<path fill="none" stroke="black" d="M497.979,-629.663C502.692,-621.488 507.556,-613.051 512.301,-604.82"/>
<polygon fill="black" stroke="black" points="512.455,-604.553 511.987,-597.357 518.449,-594.157 518.918,-601.352 512.455,-604.553"/>
</g>
<!-- ndVote&#45;&gt;ndState -->
<g id="edge15" class="edge"><title>ndVote&#45;&gt;ndState</title>
<path fill="none" stroke="black" stroke-dasharray="5,2" d="M520.602,-494.754C481.267,-420.717 405.711,-278.502 355.192,-183.413"/>
<polygon fill="black" stroke="black" points="350.383,-174.362 359.049,-181.082 352.729,-178.778 355.075,-183.193 355.075,-183.193 355.075,-183.193 352.729,-178.778 351.101,-185.305 350.383,-174.362 350.383,-174.362"/>
</g>
<!-- ndVote&#45;&gt;ndSignedVote -->
<g id="edge16" class="edge"><title>ndVote&#45;&gt;ndSignedVote</title>
<path fill="none" stroke="black" stroke-dasharray="5,2" d="M469.789,-494.951C451.39,-483.306 431.596,-470.779 412.721,-458.833"/>
<polygon fill="black" stroke="black" points="412.483,-458.683 405.274,-458.854 402.343,-452.266 409.552,-452.094 412.483,-458.683"/>
</g>
<!-- ndSignedVote&#45;&gt;ndError -->
<g id="edge17" class="edge"><title>ndSignedVote&#45;&gt;ndError</title>
<path fill="none" stroke="black" d="M293.389,-459.238C288.036,-470.79 283.059,-483.073 279.5,-495 255.038,-576.985 255.5,-600.444 255.5,-686 255.5,-830.5 255.5,-830.5 255.5,-830.5 255.5,-896.707 255.5,-972.956 255.5,-1022.69"/>
<polygon fill="black" stroke="black" points="255.5,-1022.73 259.5,-1028.73 255.5,-1034.73 251.5,-1028.73 255.5,-1022.73"/>
</g>
<!-- ndSignedVote&#45;&gt;ndState -->
<g id="edge18" class="edge"><title>ndSignedVote&#45;&gt;ndState</title>
<path fill="none" stroke="black" stroke-dasharray="5,2" d="M335.15,-344.738C336.961,-332.972 338.559,-320.614 339.5,-309 343.052,-265.144 345.626,-253.571 339.5,-210 338.307,-201.518 336.67,-192.799 334.75,-184.111"/>
<polygon fill="black" stroke="black" points="332.472,-174.329 339.123,-183.047 333.606,-179.199 334.741,-184.068 334.741,-184.068 334.741,-184.068 333.606,-179.199 330.358,-185.089 332.472,-174.329 332.472,-174.329"/>
</g>
<!-- ndSignedVote&#45;&gt;ndBallot -->
<g id="edge19" class="edge"><title>ndSignedVote&#45;&gt;ndBallot</title>
<path fill="none" stroke="black" d="M352.473,-459.144C375.38,-505.121 407.852,-570.295 432.117,-618.998"/>
<polygon fill="black" stroke="black" points="432.123,-619.009 438.379,-622.596 437.474,-629.75 431.218,-626.163 432.123,-619.009"/>
</g>
<!-- ndSignedVote&#45;&gt;ndVoteMsg -->
<g id="edge20" class="edge"><title>ndSignedVote&#45;&gt;ndVoteMsg</title>
<path fill="none" stroke="black" d="M294.828,-344.663C290.522,-336.488 286.079,-328.051 281.743,-319.82"/>
<polygon fill="black" stroke="black" points="281.719,-319.774 275.384,-316.329 276.127,-309.157 282.462,-312.601 281.719,-319.774"/>
</g>
<!-- ndVoteMsg&#45;&gt;ndState -->
<g id="edge21" class="edge"><title>ndVoteMsg&#45;&gt;ndState</title>
<path fill="none" stroke="black" d="M265.974,-209.642C268.561,-201.476 271.32,-192.761 274.13,-183.891"/>
<polygon fill="black" stroke="black" points="277.192,-174.223 278.463,-185.115 275.682,-178.989 274.173,-183.756 274.173,-183.756 274.173,-183.756 275.682,-178.989 269.883,-182.397 277.192,-174.223 277.192,-174.223"/>
</g>
</g>
</svg>
