<?xml version="1.0" encoding="UTF-8" standalone="no"?>
<!DOCTYPE svg PUBLIC "-//W3C//DTD SVG 1.1//EN"
 "http://www.w3.org/Graphics/SVG/1.1/DTD/svg11.dtd">
<!-- Generated by graphviz version 2.38.0 (20140413.2041)
 -->
<!-- Title: ml Pages: 1 -->
<svg width="414pt" height="138pt"
 viewBox="0.00 0.00 413.50 138.00" xmlns="http://www.w3.org/2000/svg" xmlns:xlink="http://www.w3.org/1999/xlink">
<g id="graph0" class="graph" transform="scale(1 1) rotate(0) translate(4 134)">
<title>ml</title>
<polygon fill="white" stroke="none" points="-4,4 -4,-134 409.5,-134 409.5,4 -4,4"/>
<!-- ndSharedBRB -->
<g id="node1" class="node"><title>ndSharedBRB</title>
<polygon fill="lightblue" stroke="none" points="146.5,-87.5 146.5,-124.5 250.5,-124.5 250.5,-87.5 146.5,-87.5"/>
<polygon fill="none" stroke="black" points="146.5,-87.5 146.5,-124.5 250.5,-124.5 250.5,-87.5 146.5,-87.5"/>
<text text-anchor="start" x="157.5" y="-103.3" font-family="Arial" font-weight="bold" font-size="14.00">SharedBRB</text>
<polygon fill="none" stroke="black" points="145.5,-87 145.5,-126 251.5,-126 251.5,-87 145.5,-87"/>
</g>
<!-- ndRepl -->
<g id="node2" class="node"><title>ndRepl</title>
<polygon fill="lightblue" stroke="none" points="54.5,-4.5 54.5,-41.5 107.5,-41.5 107.5,-4.5 54.5,-4.5"/>
<polygon fill="none" stroke="black" points="54.5,-4.5 54.5,-41.5 107.5,-41.5 107.5,-4.5 54.5,-4.5"/>
<text text-anchor="start" x="65.5" y="-20.3" font-family="Arial" font-weight="bold" font-size="14.00">Repl</text>
<polygon fill="none" stroke="black" points="53,-4 53,-43 108,-43 108,-4 53,-4"/>
</g>
<!-- ndSharedBRB&#45;&gt;ndRepl -->
<g id="edge1" class="edge"><title>ndSharedBRB&#45;&gt;ndRepl</title>
<path fill="none" stroke="black" stroke-dasharray="5,2" d="M165.63,-82.937C152.697,-74.059 137.664,-63.7399 123.862,-54.2655"/>
<polygon fill="black" stroke="black" points="123.496,-54.0142 116.286,-53.9164 113.603,-47.2229 120.813,-47.3208 123.496,-54.0142"/>
</g>
<!-- ndRouter -->
<g id="node3" class="node"><title>ndRouter</title>
<polygon fill="lightblue" stroke="none" points="164.5,-4.5 164.5,-41.5 233.5,-41.5 233.5,-4.5 164.5,-4.5"/>
<polygon fill="none" stroke="black" points="164.5,-4.5 164.5,-41.5 233.5,-41.5 233.5,-4.5 164.5,-4.5"/>
<text text-anchor="start" x="175.5" y="-20.3" font-family="Arial" font-weight="bold" font-size="14.00">Router</text>
<polygon fill="none" stroke="black" points="163,-4 163,-43 234,-43 234,-4 163,-4"/>
</g>
<!-- ndSharedBRB&#45;&gt;ndRouter -->
<g id="edge2" class="edge"><title>ndSharedBRB&#45;&gt;ndRouter</title>
<path fill="none" stroke="black" d="M198.5,-82.937C198.5,-75.6257 198.5,-67.3371 198.5,-59.3477"/>
<polygon fill="black" stroke="black" points="198.5,-59.2229 194.5,-53.223 198.5,-47.2229 202.5,-53.2229 198.5,-59.2229"/>
</g>
<!-- ndRouterCmd -->
<g id="node4" class="node"><title>ndRouterCmd</title>
<polygon fill="yellow" stroke="none" points="9.5,-87.5 9.5,-124.5 110.5,-124.5 110.5,-87.5 9.5,-87.5"/>
<polygon fill="none" stroke="black" points="9.5,-87.5 9.5,-124.5 110.5,-124.5 110.5,-87.5 9.5,-87.5"/>
<text text-anchor="start" x="20.5" y="-103.3" font-family="Arial" font-weight="bold" font-size="14.00">RouterCmd</text>
<polygon fill="none" stroke="black" points="8,-87 8,-126 111,-126 111,-87 8,-87"/>
</g>
<!-- ndRouterCmd&#45;&gt;ndRepl -->
<g id="edge3" class="edge"><title>ndRouterCmd&#45;&gt;ndRepl</title>
<path fill="none" stroke="black" d="M65.3497,-82.937C67.2678,-75.5386 69.4453,-67.1396 71.5393,-59.0625"/>
<polygon fill="black" stroke="black" points="71.5972,-58.8389 69.2311,-52.0271 74.6089,-47.2229 76.975,-54.0348 71.5972,-58.8389"/>
</g>
<!-- ndNetworkMsg -->
<g id="node5" class="node"><title>ndNetworkMsg</title>
<polygon fill="yellow" stroke="none" points="286.5,-87.5 286.5,-124.5 396.5,-124.5 396.5,-87.5 286.5,-87.5"/>
<polygon fill="none" stroke="black" points="286.5,-87.5 286.5,-124.5 396.5,-124.5 396.5,-87.5 286.5,-87.5"/>
<text text-anchor="start" x="297.5" y="-103.3" font-family="Arial" font-weight="bold" font-size="14.00">NetworkMsg</text>
<polygon fill="none" stroke="black" points="285.5,-87 285.5,-126 397.5,-126 397.5,-87 285.5,-87"/>
</g>
</g>
</svg>
