<?xml version="1.0" encoding="UTF-8" standalone="no"?>
<!DOCTYPE svg PUBLIC "-//W3C//DTD SVG 1.1//EN"
 "http://www.w3.org/Graphics/SVG/1.1/DTD/svg11.dtd">
<!-- Generated by graphviz version 2.38.0 (20140413.2041)
 -->
<!-- Title: ml Pages: 1 -->
<svg width="780pt" height="1202pt"
 viewBox="0.00 0.00 780.00 1202.00" xmlns="http://www.w3.org/2000/svg" xmlns:xlink="http://www.w3.org/1999/xlink">
<g id="graph0" class="graph" transform="scale(1 1) rotate(0) translate(4 1198)">
<title>ml</title>
<polygon fill="white" stroke="none" points="-4,4 -4,-1198 776,-1198 776,4 -4,4"/>
<!-- ndError -->
<g id="node1" class="node"><title>ndError</title>
<g id="a_node1_0"><a xlink:href="https://github.com/maidsafe/brb_membership/blob/master/src/error.rs#:~:text=enum%20Error" xlink:title="&lt;TABLE&gt;">
<polygon fill="yellow" stroke="none" points="286,-462 286,-499 555,-499 555,-462 286,-462"/>
<polygon fill="none" stroke="black" points="286,-462 286,-499 555,-499 555,-462 286,-462"/>
<text text-anchor="start" x="402" y="-477.8" font-family="Arial" font-weight="bold" font-size="14.00">Error</text>
<polygon fill="white" stroke="none" points="286,-215 286,-462 555,-462 555,-215 286,-215"/>
<polygon fill="none" stroke="black" points="286,-215 286,-462 555,-462 555,-215 286,-215"/>
<text text-anchor="start" x="297" y="-439.8" font-family="Arial" font-size="14.00">IO(std::io::Error)</text>
<text text-anchor="start" x="297" y="-424.8" font-family="Arial" font-size="14.00">NoMembers</text>
<text text-anchor="start" x="297" y="-409.8" font-family="Arial" font-size="14.00">InvalidSignature(signature::Error)</text>
<text text-anchor="start" x="297" y="-394.8" font-family="Arial" font-size="14.00">WrongDestination</text>
<text text-anchor="start" x="297" y="-379.8" font-family="Arial" font-size="14.00">MembersAtCapacity</text>
<text text-anchor="start" x="297" y="-364.8" font-family="Arial" font-size="14.00">JoinRequestForExistingMember</text>
<text text-anchor="start" x="297" y="-349.8" font-family="Arial" font-size="14.00">LeaveRequestForNonMember</text>
<text text-anchor="start" x="297" y="-334.8" font-family="Arial" font-size="14.00">VoteNotForNextGeneration</text>
<text text-anchor="start" x="297" y="-319.8" font-family="Arial" font-size="14.00">VoteFromNonMember</text>
<text text-anchor="start" x="297" y="-304.8" font-family="Arial" font-size="14.00">VoterChangedMind</text>
<text text-anchor="start" x="297" y="-289.8" font-family="Arial" font-size="14.00">ExistingVoteIncompatibleWithNewVote</text>
<text text-anchor="start" x="297" y="-274.8" font-family="Arial" font-size="14.00">SuperMajorityBallotIsNotSuperMajority</text>
<text text-anchor="start" x="297" y="-259.8" font-family="Arial" font-size="14.00">InvalidGeneration(Generation)</text>
<text text-anchor="start" x="297" y="-244.8" font-family="Arial" font-size="14.00">InvalidVoteInHistory(Vote)</text>
<text text-anchor="start" x="297" y="-229.8" font-family="Arial" font-size="14.00">Encoding(bincode::Error)</text>
<polygon fill="none" stroke="black" points="284.5,-214 284.5,-500 555.5,-500 555.5,-214 284.5,-214"/>
</a>
</g>
</g>
<!-- ndState -->
<g id="node5" class="node"><title>ndState</title>
<g id="a_node5_1"><a xlink:href="https://github.com/maidsafe/brb_membership/blob/master/src/brb_membership.rs#:~:text=struct%20State" xlink:title="&lt;TABLE&gt;">
<polygon fill="lightblue" stroke="none" points="25,-132 25,-169 471,-169 471,-132 25,-132"/>
<polygon fill="none" stroke="black" points="25,-132 25,-169 471,-169 471,-132 25,-132"/>
<text text-anchor="start" x="230" y="-147.8" font-family="Arial" font-weight="bold" font-size="14.00">State</text>
<polygon fill="white" stroke="none" points="25,-5 25,-132 471,-132 471,-5 25,-5"/>
<polygon fill="none" stroke="black" points="25,-5 25,-132 471,-132 471,-5 25,-5"/>
<text text-anchor="start" x="36" y="-109.8" font-family="Arial" font-size="14.00">+ secret_key: SecretKey</text>
<text text-anchor="start" x="36" y="-94.8" font-family="Arial" font-size="14.00">+ gen: Generation</text>
<text text-anchor="start" x="36" y="-79.8" font-family="Arial" font-size="14.00">+ pending_gen: Generation</text>
<text text-anchor="start" x="36" y="-64.8" font-family="Arial" font-size="14.00">+ forced_reconfigs: BTreeMap&lt;Generation, BTreeSet&lt;Reconfig&gt;&gt;</text>
<text text-anchor="start" x="36" y="-49.8" font-family="Arial" font-size="14.00">+ history: BTreeMap&lt;Generation, Vote&gt;</text>
<text text-anchor="start" x="36" y="-34.8" font-family="Arial" font-size="14.00">+ votes: BTreeMap&lt;PublicKey, Vote&gt;</text>
<text text-anchor="start" x="36" y="-19.8" font-family="Arial" font-size="14.00">+ faulty: bool</text>
<polygon fill="none" stroke="black" points="24,-4 24,-170 472,-170 472,-4 24,-4"/>
</a>
</g>
</g>
<!-- ndError&#45;&gt;ndState -->
<g id="edge1" class="edge"><title>ndError&#45;&gt;ndState</title>
<path fill="none" stroke="black" d="M326.199,-209.845C320.362,-200.75 314.574,-191.731 308.942,-182.957"/>
<polygon fill="black" stroke="black" points="303.367,-174.27 312.556,-180.255 306.068,-178.478 308.769,-182.686 308.769,-182.686 308.769,-182.686 306.068,-178.478 304.981,-185.116 303.367,-174.27 303.367,-174.27"/>
</g>
<!-- ndPublicKey -->
<g id="node2" class="node"><title>ndPublicKey</title>
<g id="a_node2_2"><a xlink:href="https://github.com/maidsafe/brb_membership/blob/master/src/ed25519.rs#:~:text=struct%20PublicKey" xlink:title="&lt;TABLE&gt;">
<polygon fill="lightblue" stroke="none" points="279,-1032 279,-1069 439,-1069 439,-1032 279,-1032"/>
<polygon fill="none" stroke="black" points="279,-1032 279,-1069 439,-1069 439,-1032 279,-1032"/>
<text text-anchor="start" x="323.5" y="-1047.8" font-family="Arial" font-weight="bold" font-size="14.00">PublicKey</text>
<polygon fill="white" stroke="none" points="279,-995 279,-1032 439,-1032 439,-995 279,-995"/>
<polygon fill="none" stroke="black" points="279,-995 279,-1032 439,-1032 439,-995 279,-995"/>
<text text-anchor="start" x="290" y="-1009.8" font-family="Arial" font-size="14.00">&#45; ed25519::PublicKey</text>
<polygon fill="none" stroke="black" points="278,-994 278,-1070 440,-1070 440,-994 278,-994"/>
</a>
</g>
</g>
<!-- ndSecretKey -->
<g id="node3" class="node"><title>ndSecretKey</title>
<g id="a_node3_3"><a xlink:href="https://github.com/maidsafe/brb_membership/blob/master/src/ed25519.rs#:~:text=struct%20SecretKey" xlink:title="&lt;TABLE&gt;">
<polygon fill="lightblue" stroke="none" points="9,-904.5 9,-941.5 153,-941.5 153,-904.5 9,-904.5"/>
<polygon fill="none" stroke="black" points="9,-904.5 9,-941.5 153,-941.5 153,-904.5 9,-904.5"/>
<text text-anchor="start" x="44.5" y="-920.3" font-family="Arial" font-weight="bold" font-size="14.00">SecretKey</text>
<polygon fill="white" stroke="none" points="9,-867.5 9,-904.5 153,-904.5 153,-867.5 9,-867.5"/>
<polygon fill="none" stroke="black" points="9,-867.5 9,-904.5 153,-904.5 153,-867.5 9,-867.5"/>
<text text-anchor="start" x="20" y="-882.3" font-family="Arial" font-size="14.00">&#45; ed25519::Keypair</text>
<polygon fill="none" stroke="black" points="8,-866.5 8,-942.5 154,-942.5 154,-866.5 8,-866.5"/>
</a>
</g>
</g>
<!-- ndPublicKey&#45;&gt;ndSecretKey -->
<g id="edge2" class="edge"><title>ndPublicKey&#45;&gt;ndSecretKey</title>
<path fill="none" stroke="black" d="M269.997,-995.098C239.935,-982.563 206.319,-968.094 176,-954 173.919,-953.033 171.818,-952.046 169.701,-951.042"/>
<polygon fill="black" stroke="black" points="160.354,-946.557 171.317,-946.826 164.862,-948.72 169.37,-950.883 169.37,-950.883 169.37,-950.883 164.862,-948.72 167.423,-954.94 160.354,-946.557 160.354,-946.557"/>
</g>
<!-- ndPublicKey&#45;&gt;ndState -->
<g id="edge3" class="edge"><title>ndPublicKey&#45;&gt;ndState</title>
<path fill="none" stroke="black" stroke-dasharray="5,2" d="M308.201,-989.958C296.219,-978.98 284.027,-966.633 274,-954 231.328,-900.24 217.101,-885.208 199,-819 127.619,-557.915 146.018,-475.43 199,-210 200.61,-201.937 202.736,-193.727 205.203,-185.572"/>
<polygon fill="black" stroke="black" points="205.219,-185.521 203.251,-178.584 208.898,-174.099 210.866,-181.036 205.219,-185.521"/>
</g>
<!-- ndReconfig -->
<g id="node6" class="node"><title>ndReconfig</title>
<g id="a_node6_4"><a xlink:href="https://github.com/maidsafe/brb_membership/blob/master/src/brb_membership.rs#:~:text=enum%20Reconfig" xlink:title="&lt;TABLE&gt;">
<polygon fill="yellow" stroke="none" points="292,-911.5 292,-948.5 426,-948.5 426,-911.5 292,-911.5"/>
<polygon fill="none" stroke="black" points="292,-911.5 292,-948.5 426,-948.5 426,-911.5 292,-911.5"/>
<text text-anchor="start" x="328" y="-927.3" font-family="Arial" font-weight="bold" font-size="14.00">Reconfig</text>
<polygon fill="white" stroke="none" points="292,-859.5 292,-911.5 426,-911.5 426,-859.5 292,-859.5"/>
<polygon fill="none" stroke="black" points="292,-859.5 292,-911.5 426,-911.5 426,-859.5 292,-859.5"/>
<text text-anchor="start" x="303" y="-889.3" font-family="Arial" font-size="14.00">Join(PublicKey)</text>
<text text-anchor="start" x="303" y="-874.3" font-family="Arial" font-size="14.00">Leave(PublicKey)</text>
<polygon fill="none" stroke="black" points="291,-859 291,-950 427,-950 427,-859 291,-859"/>
</a>
</g>
</g>
<!-- ndPublicKey&#45;&gt;ndReconfig -->
<g id="edge4" class="edge"><title>ndPublicKey&#45;&gt;ndReconfig</title>
<path fill="none" stroke="black" d="M359,-989.907C359,-982.311 359,-974.233 359,-966.2"/>
<polygon fill="black" stroke="black" points="359,-966.111 355,-960.111 359,-954.111 363,-960.111 359,-966.111"/>
</g>
<!-- ndVote -->
<g id="node8" class="node"><title>ndVote</title>
<g id="a_node8_5"><a xlink:href="https://github.com/maidsafe/brb_membership/blob/master/src/brb_membership.rs#:~:text=struct%20Vote" xlink:title="&lt;TABLE&gt;">
<polygon fill="lightblue" stroke="none" points="425,-626.5 425,-663.5 562,-663.5 562,-626.5 425,-626.5"/>
<polygon fill="none" stroke="black" points="425,-626.5 425,-663.5 562,-663.5 562,-626.5 425,-626.5"/>
<text text-anchor="start" x="478" y="-642.3" font-family="Arial" font-weight="bold" font-size="14.00">Vote</text>
<polygon fill="white" stroke="none" points="425,-544.5 425,-626.5 562,-626.5 562,-544.5 425,-544.5"/>
<polygon fill="none" stroke="black" points="425,-544.5 425,-626.5 562,-626.5 562,-544.5 425,-544.5"/>
<text text-anchor="start" x="436" y="-604.3" font-family="Arial" font-size="14.00">+ gen: Generation</text>
<text text-anchor="start" x="436" y="-589.3" font-family="Arial" font-size="14.00">+ ballot: Ballot</text>
<text text-anchor="start" x="436" y="-574.3" font-family="Arial" font-size="14.00">+ voter: PublicKey</text>
<text text-anchor="start" x="436" y="-559.3" font-family="Arial" font-size="14.00">+ sig: Signature</text>
<polygon fill="none" stroke="black" points="423.5,-544 423.5,-665 562.5,-665 562.5,-544 423.5,-544"/>
</a>
</g>
</g>
<!-- ndPublicKey&#45;&gt;ndVote -->
<g id="edge5" class="edge"><title>ndPublicKey&#45;&gt;ndVote</title>
<path fill="none" stroke="black" d="M410.499,-989.75C422.33,-978.869 434.277,-966.618 444,-954 485.254,-900.465 497.989,-884.662 514,-819 524.962,-774.046 520.338,-722.441 512.675,-681.229"/>
<polygon fill="black" stroke="black" points="512.653,-681.118 507.567,-676.006 510.329,-669.345 515.415,-674.457 512.653,-681.118"/>
</g>
<!-- ndVoteMsg -->
<g id="node9" class="node"><title>ndVoteMsg</title>
<g id="a_node9_6"><a xlink:href="https://github.com/maidsafe/brb_membership/blob/master/src/brb_membership.rs#:~:text=struct%20VoteMsg" xlink:title="&lt;TABLE&gt;">
<polygon fill="lightblue" stroke="none" points="629,-364 629,-401 763,-401 763,-364 629,-364"/>
<polygon fill="none" stroke="black" points="629,-364 629,-401 763,-401 763,-364 629,-364"/>
<text text-anchor="start" x="665.5" y="-379.8" font-family="Arial" font-weight="bold" font-size="14.00">VoteMsg</text>
<polygon fill="white" stroke="none" points="629,-312 629,-364 763,-364 763,-312 629,-312"/>
<polygon fill="none" stroke="black" points="629,-312 629,-364 763,-364 763,-312 629,-312"/>
<text text-anchor="start" x="640" y="-341.8" font-family="Arial" font-size="14.00">+ vote: Vote</text>
<text text-anchor="start" x="640" y="-326.8" font-family="Arial" font-size="14.00">+ dest: PublicKey</text>
<polygon fill="none" stroke="black" points="628,-311.5 628,-402.5 764,-402.5 764,-311.5 628,-311.5"/>
</a>
</g>
</g>
<!-- ndPublicKey&#45;&gt;ndVoteMsg -->
<g id="edge6" class="edge"><title>ndPublicKey&#45;&gt;ndVoteMsg</title>
<path fill="none" stroke="black" d="M447.061,-989.87C462.222,-979.794 476.707,-967.845 488,-954 621.669,-790.122 672.007,-534.66 688.691,-418.797"/>
<polygon fill="black" stroke="black" points="688.721,-418.583 685.591,-412.087 690.383,-406.699 693.513,-413.195 688.721,-418.583"/>
</g>
<!-- ndSecretKey&#45;&gt;ndState -->
<g id="edge7" class="edge"><title>ndSecretKey&#45;&gt;ndState</title>
<path fill="none" stroke="black" d="M78.3171,-862.27C72.6527,-752.07 66.7123,-443.226 158,-210 161.373,-201.383 165.516,-192.832 170.156,-184.492"/>
<polygon fill="black" stroke="black" points="170.208,-184.403 169.791,-177.204 176.276,-174.05 176.693,-181.249 170.208,-184.403"/>
</g>
<!-- ndSignature -->
<g id="node4" class="node"><title>ndSignature</title>
<g id="a_node4_7"><a xlink:href="https://github.com/maidsafe/brb_membership/blob/master/src/ed25519.rs#:~:text=struct%20Signature" xlink:title="&lt;TABLE&gt;">
<polygon fill="lightblue" stroke="none" points="281,-1152 281,-1189 437,-1189 437,-1152 281,-1152"/>
<polygon fill="none" stroke="black" points="281,-1152 281,-1189 437,-1189 437,-1152 281,-1152"/>
<text text-anchor="start" x="325" y="-1167.8" font-family="Arial" font-weight="bold" font-size="14.00">Signature</text>
<polygon fill="white" stroke="none" points="281,-1115 281,-1152 437,-1152 437,-1115 281,-1115"/>
<polygon fill="none" stroke="black" points="281,-1115 281,-1152 437,-1152 437,-1115 281,-1115"/>
<text text-anchor="start" x="292" y="-1129.8" font-family="Arial" font-size="14.00">&#45; ed25519::Signature</text>
<polygon fill="none" stroke="black" points="280,-1114 280,-1190 438,-1190 438,-1114 280,-1114"/>
</a>
</g>
</g>
<!-- ndSignature&#45;&gt;ndPublicKey -->
<g id="edge8" class="edge"><title>ndSignature&#45;&gt;ndPublicKey</title>
<path fill="none" stroke="black" stroke-dasharray="5,2" d="M359,-1109.73C359,-1101.51 359,-1092.78 359,-1084.27"/>
<polygon fill="black" stroke="black" points="359,-1074.05 363.5,-1084.05 359,-1079.05 359,-1084.05 359,-1084.05 359,-1084.05 359,-1079.05 354.5,-1084.05 359,-1074.05 359,-1074.05"/>
</g>
<!-- ndSignature&#45;&gt;ndSecretKey -->
<g id="edge9" class="edge"><title>ndSignature&#45;&gt;ndSecretKey</title>
<path fill="none" stroke="black" d="M304.92,-1109.86C290.45,-1098.49 274.957,-1085.98 261,-1074 215.509,-1034.96 165.924,-988.213 130.338,-953.869"/>
<polygon fill="black" stroke="black" points="122.963,-946.736 133.279,-950.454 126.557,-950.213 130.151,-953.689 130.151,-953.689 130.151,-953.689 126.557,-950.213 127.022,-956.923 122.963,-946.736 122.963,-946.736"/>
</g>
<!-- ndSignature&#45;&gt;ndVote -->
<g id="edge10" class="edge"><title>ndSignature&#45;&gt;ndVote</title>
<path fill="none" stroke="black" d="M423.298,-1109.89C435.88,-1099.44 447.959,-1087.35 457,-1074 523.258,-976.197 515.161,-935.927 532,-819 539.222,-768.851 541.408,-754.785 532,-705 530.495,-697.038 528.369,-688.897 525.877,-680.87"/>
<polygon fill="black" stroke="black" points="525.79,-680.608 520.097,-676.181 521.994,-669.224 527.687,-673.651 525.79,-680.608"/>
</g>
<!-- ndReconfig&#45;&gt;ndState -->
<g id="edge11" class="edge"><title>ndReconfig&#45;&gt;ndState</title>
<path fill="none" stroke="black" stroke-dasharray="5,2" d="M282.868,-871.322C261.582,-858.355 241.005,-841.121 229,-819 171.315,-712.705 210.017,-359.734 233.587,-186.134"/>
<polygon fill="black" stroke="black" points="233.593,-186.093 230.444,-179.605 235.221,-174.204 238.37,-180.691 233.593,-186.093"/>
</g>
<!-- ndBallot -->
<g id="node7" class="node"><title>ndBallot</title>
<g id="a_node7_8"><a xlink:href="https://github.com/maidsafe/brb_membership/blob/master/src/brb_membership.rs#:~:text=enum%20Ballot" xlink:title="&lt;TABLE&gt;">
<polygon fill="yellow" stroke="none" points="247,-777 247,-814 471,-814 471,-777 247,-777"/>
<polygon fill="none" stroke="black" points="247,-777 247,-814 471,-814 471,-777 247,-777"/>
<text text-anchor="start" x="339" y="-792.8" font-family="Arial" font-weight="bold" font-size="14.00">Ballot</text>
<polygon fill="white" stroke="none" points="247,-710 247,-777 471,-777 471,-710 247,-710"/>
<polygon fill="none" stroke="black" points="247,-710 247,-777 471,-777 471,-710 247,-710"/>
<text text-anchor="start" x="258" y="-754.8" font-family="Arial" font-size="14.00">Propose(Reconfig)</text>
<text text-anchor="start" x="258" y="-739.8" font-family="Arial" font-size="14.00">Merge(BTreeSet&lt;Vote&gt;)</text>
<text text-anchor="start" x="258" y="-724.8" font-family="Arial" font-size="14.00">SuperMajority(BTreeSet&lt;Vote&gt;)</text>
<polygon fill="none" stroke="black" points="246,-709 246,-815 472,-815 472,-709 246,-709"/>
</a>
</g>
</g>
<!-- ndReconfig&#45;&gt;ndBallot -->
<g id="edge12" class="edge"><title>ndReconfig&#45;&gt;ndBallot</title>
<path fill="none" stroke="black" d="M359,-854.754C359,-847.264 359,-839.414 359,-831.59"/>
<polygon fill="black" stroke="black" points="359,-831.375 355,-825.375 359,-819.375 363,-825.375 359,-831.375"/>
</g>
<!-- ndReconfig&#45;&gt;ndVote -->
<g id="edge13" class="edge"><title>ndReconfig&#45;&gt;ndVote</title>
<path fill="none" stroke="black" d="M435.223,-870.976C456.376,-858.027 476.854,-840.89 489,-819 512.313,-776.985 513.045,-722.788 508.086,-679.513"/>
<polygon fill="black" stroke="black" points="506.792,-669.328 512.516,-678.681 507.422,-674.288 508.052,-679.248 508.052,-679.248 508.052,-679.248 507.422,-674.288 503.588,-679.815 506.792,-669.328 506.792,-669.328"/>
</g>
<!-- ndBallot&#45;&gt;ndState -->
<g id="edge14" class="edge"><title>ndBallot&#45;&gt;ndState</title>
<path fill="none" stroke="black" stroke-dasharray="5,2" d="M333.44,-704.966C311.446,-653.806 281.097,-575.487 267,-504 245.695,-395.965 243.016,-269.23 244.341,-184.287"/>
<polygon fill="black" stroke="black" points="244.521,-174.14 248.842,-184.218 244.432,-179.139 244.343,-184.138 244.343,-184.138 244.343,-184.138 244.432,-179.139 239.844,-184.058 244.521,-174.14 244.521,-174.14"/>
</g>
<!-- ndBallot&#45;&gt;ndVote -->
<g id="edge15" class="edge"><title>ndBallot&#45;&gt;ndVote</title>
<path fill="none" stroke="black" d="M400.864,-704.861C408.071,-696.274 415.725,-687.304 423.424,-678.419"/>
<polygon fill="black" stroke="black" points="423.565,-678.258 424.49,-671.107 431.447,-669.21 430.522,-676.362 423.565,-678.258"/>
</g>
<!-- ndVote&#45;&gt;ndError -->
<g id="edge16" class="edge"><title>ndVote&#45;&gt;ndError</title>
<path fill="none" stroke="black" d="M474.106,-539.958C471.811,-532.242 469.395,-524.115 466.908,-515.752"/>
<polygon fill="black" stroke="black" points="466.898,-515.72 461.354,-511.109 463.478,-504.217 469.022,-508.828 466.898,-515.72"/>
</g>
<!-- ndVote&#45;&gt;ndState -->
<g id="edge17" class="edge"><title>ndVote&#45;&gt;ndState</title>
<path fill="none" stroke="black" stroke-dasharray="5,2" d="M553.352,-539.81C560.988,-528.601 567.642,-516.496 572,-504 593.512,-442.31 609.177,-263.724 572,-210 551.21,-179.957 522.026,-157.302 489.607,-140.222"/>
<polygon fill="black" stroke="black" points="480.381,-135.55 491.336,-136.053 484.842,-137.809 489.303,-140.068 489.303,-140.068 489.303,-140.068 484.842,-137.809 487.27,-144.082 480.381,-135.55 480.381,-135.55"/>
</g>
<!-- ndVote&#45;&gt;ndBallot -->
<g id="edge18" class="edge"><title>ndVote&#45;&gt;ndBallot</title>
<path fill="none" stroke="black" d="M444.75,-669.21C437.317,-677.98 429.554,-686.997 421.862,-695.793"/>
<polygon fill="black" stroke="black" points="421.813,-695.849 420.856,-702.996 413.89,-704.861 414.848,-697.714 421.813,-695.849"/>
</g>
<!-- ndVote&#45;&gt;ndVoteMsg -->
<g id="edge19" class="edge"><title>ndVote&#45;&gt;ndVoteMsg</title>
<path fill="none" stroke="black" d="M570.735,-540.577C583.148,-529.007 595.383,-516.589 606,-504 628.285,-477.576 648.867,-445.093 664.707,-417.481"/>
<polygon fill="black" stroke="black" points="664.856,-417.217 664.323,-410.026 670.757,-406.768 671.289,-413.96 664.856,-417.217"/>
</g>
<!-- ndVoteMsg&#45;&gt;ndState -->
<g id="edge20" class="edge"><title>ndVoteMsg&#45;&gt;ndState</title>
<path fill="none" stroke="black" d="M676.409,-307.178C661.421,-275.465 637.888,-235.441 606,-210 571.761,-182.684 531.059,-161.32 489.586,-144.661"/>
<polygon fill="black" stroke="black" points="480.166,-140.961 491.119,-140.428 484.82,-142.789 489.474,-144.617 489.474,-144.617 489.474,-144.617 484.82,-142.789 487.829,-148.805 480.166,-140.961 480.166,-140.961"/>
</g>
</g>
</svg>
