<?xml version="1.0" encoding="UTF-8" standalone="no"?>
<!DOCTYPE svg PUBLIC "-//W3C//DTD SVG 1.1//EN"
 "http://www.w3.org/Graphics/SVG/1.1/DTD/svg11.dtd">
<!-- Generated by graphviz version 2.38.0 (20140413.2041)
 -->
<!-- Title: ml Pages: 1 -->
<svg width="1457pt" height="2069pt"
 viewBox="0.00 0.00 1456.50 2069.00" xmlns="http://www.w3.org/2000/svg" xmlns:xlink="http://www.w3.org/1999/xlink">
<g id="graph0" class="graph" transform="scale(1 1) rotate(0) translate(4 2065)">
<title>ml</title>
<polygon fill="white" stroke="none" points="-4,4 -4,-2065 1452.5,-2065 1452.5,4 -4,4"/>
<!-- ndError -->
<g id="node1" class="node"><title>ndError</title>
<g id="a_node1_0"><a xlink:href="https://github.com/maidsafe/brb_membership/blob/master/src/error.rs#:~:text=enum%20Error" xlink:title="&lt;TABLE&gt;">
<polygon fill="yellow" stroke="none" points="257,-2019 257,-2056 526,-2056 526,-2019 257,-2019"/>
<polygon fill="none" stroke="black" points="257,-2019 257,-2056 526,-2056 526,-2019 257,-2019"/>
<text text-anchor="start" x="373" y="-2034.8" font-family="Arial" font-weight="bold" font-size="14.00">Error</text>
<polygon fill="white" stroke="none" points="257,-1742 257,-2019 526,-2019 526,-1742 257,-1742"/>
<polygon fill="none" stroke="black" points="257,-1742 257,-2019 526,-2019 526,-1742 257,-1742"/>
<text text-anchor="start" x="268" y="-1996.8" font-family="Arial" font-size="14.00">IO(std::io::Error)</text>
<text text-anchor="start" x="268" y="-1981.8" font-family="Arial" font-size="14.00">NoMembers</text>
<text text-anchor="start" x="268" y="-1966.8" font-family="Arial" font-size="14.00">WrongDestination</text>
<text text-anchor="start" x="268" y="-1951.8" font-family="Arial" font-size="14.00">MembersAtCapacity</text>
<text text-anchor="start" x="268" y="-1936.8" font-family="Arial" font-size="14.00">JoinRequestForExistingMember</text>
<text text-anchor="start" x="268" y="-1921.8" font-family="Arial" font-size="14.00">LeaveRequestForNonMember</text>
<text text-anchor="start" x="268" y="-1906.8" font-family="Arial" font-size="14.00">MergedVotesMustBeFromSameGen</text>
<text text-anchor="start" x="268" y="-1891.8" font-family="Arial" font-size="14.00">VoteNotForNextGeneration</text>
<text text-anchor="start" x="268" y="-1876.8" font-family="Arial" font-size="14.00">VoteFromNonMember</text>
<text text-anchor="start" x="268" y="-1861.8" font-family="Arial" font-size="14.00">VoterChangedMind</text>
<text text-anchor="start" x="268" y="-1846.8" font-family="Arial" font-size="14.00">ExistingVoteIncompatibleWithNewVote</text>
<text text-anchor="start" x="268" y="-1831.8" font-family="Arial" font-size="14.00">SuperMajorityBallotIsNotSuperMajority</text>
<text text-anchor="start" x="268" y="-1816.8" font-family="Arial" font-size="14.00">InvalidGeneration(Generation)</text>
<text text-anchor="start" x="268" y="-1801.8" font-family="Arial" font-size="14.00">InvalidVoteInHistory(SignedVote)</text>
<text text-anchor="start" x="268" y="-1786.8" font-family="Arial" font-size="14.00">Encoding(bincode::Error)</text>
<text text-anchor="start" x="268" y="-1771.8" font-family="Arial" font-size="14.00">Ed25519(crate::ed25519::Error)</text>
<text text-anchor="start" x="268" y="-1756.8" font-family="Arial" font-size="14.00">Blsttc(crate::blsttc::Error)</text>
<polygon fill="none" stroke="black" points="255.5,-1741 255.5,-2057 526.5,-2057 526.5,-1741 255.5,-1741"/>
</a>
</g>
</g>
<!-- ndPublicKey -->
<g id="node2" class="node"><title>ndPublicKey</title>
<g id="a_node2_1"><a xlink:href="https://github.com/maidsafe/brb_membership/blob/master/src/ed25519.rs#:~:text=struct%20PublicKey" xlink:title="&lt;TABLE&gt;">
<polygon fill="lightblue" stroke="none" points="587,-1658.5 587,-1695.5 1037,-1695.5 1037,-1658.5 587,-1658.5"/>
<polygon fill="none" stroke="black" points="587,-1658.5 587,-1695.5 1037,-1695.5 1037,-1658.5 587,-1658.5"/>
<text text-anchor="start" x="776.5" y="-1674.3" font-family="Arial" font-weight="bold" font-size="14.00">PublicKey</text>
<polygon fill="white" stroke="none" points="587,-1621.5 587,-1658.5 1037,-1658.5 1037,-1621.5 587,-1621.5"/>
<polygon fill="none" stroke="black" points="587,-1621.5 587,-1658.5 1037,-1658.5 1037,-1621.5 587,-1621.5"/>
<text text-anchor="start" x="598" y="-1636.3" font-family="Arial" font-size="14.00">&#45; ed25519::PublicKey</text>
<polygon fill="white" stroke="none" points="587,-1524.5 587,-1621.5 1037,-1621.5 1037,-1524.5 587,-1524.5"/>
<polygon fill="none" stroke="black" points="587,-1524.5 587,-1621.5 1037,-1621.5 1037,-1524.5 587,-1524.5"/>
<text text-anchor="start" x="598" y="-1599.3" font-family="Arial" font-size="14.00">&#45; random(rng: impl Rng + CryptoRng) &#45;&gt; Self</text>
<text text-anchor="start" x="598" y="-1584.3" font-family="Arial" font-size="14.00">&#45; verify(&amp;self, msg: &amp;[u8], signature: &amp;Signature) &#45;&gt; Result&lt;(), Error&gt;</text>
<text text-anchor="start" x="598" y="-1569.3" font-family="Arial" font-size="14.00">&#45; fmt(&amp;self, f: &amp;mut core::fmt::Formatter&lt;&#39;_&gt;) &#45;&gt; core::fmt::Result</text>
<text text-anchor="start" x="598" y="-1554.3" font-family="Arial" font-size="14.00">&#45; partial_cmp(&amp;self, other: &amp;Self) &#45;&gt; Option&lt;core::cmp::Ordering&gt;</text>
<text text-anchor="start" x="598" y="-1539.3" font-family="Arial" font-size="14.00">&#45; cmp(&amp;self, other: &amp;Self) &#45;&gt; std::cmp::Ordering</text>
<polygon fill="none" stroke="black" points="586,-1524 586,-1697 1038,-1697 1038,-1524 586,-1524"/>
</a>
</g>
</g>
<!-- ndError&#45;&gt;ndPublicKey -->
<g id="edge1" class="edge"><title>ndError&#45;&gt;ndPublicKey</title>
<path fill="none" stroke="black" d="M534.707,-1800.2C579.016,-1770.05 627.729,-1736.9 671.799,-1706.91"/>
<polygon fill="black" stroke="black" points="680.259,-1701.15 674.523,-1710.5 676.125,-1703.97 671.992,-1706.78 671.992,-1706.78 671.992,-1706.78 676.125,-1703.97 669.46,-1703.06 680.259,-1701.15 680.259,-1701.15"/>
</g>
<!-- ndState -->
<g id="node5" class="node"><title>ndState</title>
<g id="a_node5_2"><a xlink:href="https://github.com/maidsafe/brb_membership/blob/master/src/brb_membership.rs#:~:text=struct%20State" xlink:title="&lt;TABLE&gt;">
<polygon fill="lightblue" stroke="none" points="545,-468.5 545,-505.5 1234,-505.5 1234,-468.5 545,-468.5"/>
<polygon fill="none" stroke="black" points="545,-468.5 545,-505.5 1234,-505.5 1234,-468.5 545,-468.5"/>
<text text-anchor="start" x="871.5" y="-484.3" font-family="Arial" font-weight="bold" font-size="14.00">State</text>
<polygon fill="white" stroke="none" points="545,-341.5 545,-468.5 1234,-468.5 1234,-341.5 545,-341.5"/>
<polygon fill="none" stroke="black" points="545,-341.5 545,-468.5 1234,-468.5 1234,-341.5 545,-341.5"/>
<text text-anchor="start" x="556" y="-446.3" font-family="Arial" font-size="14.00">+ secret_key: SecretKey</text>
<text text-anchor="start" x="556" y="-431.3" font-family="Arial" font-size="14.00">+ gen: Generation</text>
<text text-anchor="start" x="556" y="-416.3" font-family="Arial" font-size="14.00">+ pending_gen: Generation</text>
<text text-anchor="start" x="556" y="-401.3" font-family="Arial" font-size="14.00">+ forced_reconfigs: BTreeMap&lt;Generation, BTreeSet&lt;Reconfig&gt;&gt;</text>
<text text-anchor="start" x="556" y="-386.3" font-family="Arial" font-size="14.00">+ history: BTreeMap&lt;Generation, SignedVote&gt;</text>
<text text-anchor="start" x="556" y="-371.3" font-family="Arial" font-size="14.00">+ votes: BTreeMap&lt;PublicKey, SignedVote&gt;</text>
<text text-anchor="start" x="556" y="-356.3" font-family="Arial" font-size="14.00">+ faulty: bool</text>
<polygon fill="white" stroke="none" points="545,-4.5 545,-341.5 1234,-341.5 1234,-4.5 545,-4.5"/>
<polygon fill="none" stroke="black" points="545,-4.5 545,-341.5 1234,-341.5 1234,-4.5 545,-4.5"/>
<text text-anchor="start" x="556" y="-319.3" font-family="Arial" font-size="14.00">&#45; random(mut rng: impl Rng + CryptoRng) &#45;&gt; State</text>
<text text-anchor="start" x="556" y="-304.3" font-family="Arial" font-size="14.00">&#45; public_key(&amp;self) &#45;&gt; PublicKey</text>
<text text-anchor="start" x="556" y="-289.3" font-family="Arial" font-size="14.00">&#45; force_join(&amp;mut self, actor: PublicKey)</text>
<text text-anchor="start" x="556" y="-274.3" font-family="Arial" font-size="14.00">&#45; force_leave(&amp;mut self, actor: PublicKey)</text>
<text text-anchor="start" x="556" y="-259.3" font-family="Arial" font-size="14.00">&#45; members(&amp;self, gen: Generation) &#45;&gt; Result&lt;BTreeSet&lt;PublicKey&gt;, Error&gt;</text>
<text text-anchor="start" x="556" y="-244.3" font-family="Arial" font-size="14.00">&#45; propose(&amp;mut self, reconfig: Reconfig) &#45;&gt; Result&lt;Vec&lt;VoteMsg&gt;, Error&gt;</text>
<text text-anchor="start" x="556" y="-229.3" font-family="Arial" font-size="14.00">&#45; anti_entropy(&amp;self, from_gen: Generation, actor: PublicKey) &#45;&gt; Vec&lt;VoteMsg&gt;</text>
<text text-anchor="start" x="556" y="-214.3" font-family="Arial" font-size="14.00">&#45; handle_signed_vote(&amp;mut self, signed_vote: SignedVote) &#45;&gt; Result&lt;Vec&lt;VoteMsg&gt;, Error&gt;</text>
<text text-anchor="start" x="556" y="-199.3" font-family="Arial" font-size="14.00">&#45; sign_vote(&amp;self, vote: Vote) &#45;&gt; Result&lt;SignedVote, Error&gt;</text>
<text text-anchor="start" x="556" y="-184.3" font-family="Arial" font-size="14.00">&#45; cast_vote(&amp;mut self, signed_vote: SignedVote) &#45;&gt; Result&lt;Vec&lt;VoteMsg&gt;, Error&gt;</text>
<text text-anchor="start" x="556" y="-169.3" font-family="Arial" font-size="14.00">&#45; log_signed_vote(&amp;mut self, signed_vote: &amp;SignedVote)</text>
<text text-anchor="start" x="556" y="-154.3" font-family="Arial" font-size="14.00">&#45; count_votes(&amp;self, votes: &amp;BTreeSet&lt;SignedVote&gt;) &#45;&gt; BTreeMap&lt;BTreeSet&lt;Reconfig&gt;, usize&gt;</text>
<text text-anchor="start" x="556" y="-139.3" font-family="Arial" font-size="14.00">&#45; is_split_vote(&amp;self, votes: &amp;BTreeSet&lt;SignedVote&gt;) &#45;&gt; Result&lt;bool, Error&gt;</text>
<text text-anchor="start" x="556" y="-124.3" font-family="Arial" font-size="14.00">&#45; is_super_majority(&amp;self, votes: &amp;BTreeSet&lt;SignedVote&gt;) &#45;&gt; Result&lt;bool, Error&gt;</text>
<text text-anchor="start" x="556" y="-109.3" font-family="Arial" font-size="14.00">&#45; is_super_majority_over_super_majorities(&amp;self, votes: &amp;BTreeSet&lt;SignedVote&gt;) &#45;&gt; Result&lt;bool, Error&gt;</text>
<text text-anchor="start" x="556" y="-94.3" font-family="Arial" font-size="14.00">&#45; resolve_votes(&amp;self, votes: &amp;BTreeSet&lt;SignedVote&gt;) &#45;&gt; BTreeSet&lt;Reconfig&gt;</text>
<text text-anchor="start" x="556" y="-79.3" font-family="Arial" font-size="14.00">&#45; validate_signed_vote(&amp;self, signed_vote: &amp;SignedVote) &#45;&gt; Result&lt;(), Error&gt;</text>
<text text-anchor="start" x="556" y="-64.3" font-family="Arial" font-size="14.00">&#45; validate_vote(&amp;self, vote: &amp;Vote) &#45;&gt; Result&lt;(), Error&gt;</text>
<text text-anchor="start" x="556" y="-49.3" font-family="Arial" font-size="14.00">&#45; validate_reconfig(&amp;self, reconfig: Reconfig) &#45;&gt; Result&lt;(), Error&gt;</text>
<text text-anchor="start" x="556" y="-34.3" font-family="Arial" font-size="14.00">&#45; broadcast(&amp;self, signed_vote: SignedVote) &#45;&gt; Result&lt;Vec&lt;VoteMsg&gt;, Error&gt;</text>
<text text-anchor="start" x="556" y="-19.3" font-family="Arial" font-size="14.00">&#45; send(&amp;self, vote: SignedVote, dest: PublicKey) &#45;&gt; VoteMsg</text>
<polygon fill="none" stroke="black" points="543.5,-4 543.5,-507 1234.5,-507 1234.5,-4 543.5,-4"/>
</a>
</g>
</g>
<!-- ndError&#45;&gt;ndState -->
<g id="edge2" class="edge"><title>ndError&#45;&gt;ndState</title>
<path fill="none" stroke="black" d="M247.349,-1801.44C135.81,-1713.78 0,-1573.4 0,-1409.5 0,-1409.5 0,-1409.5 0,-786.5 0,-528.391 279.894,-393.07 525.581,-324.006"/>
<polygon fill="black" stroke="black" points="535.409,-321.273 526.98,-328.287 530.591,-322.612 525.774,-323.952 525.774,-323.952 525.774,-323.952 530.591,-322.612 524.569,-319.616 535.409,-321.273 535.409,-321.273"/>
</g>
<!-- ndVote -->
<g id="node8" class="node"><title>ndVote</title>
<g id="a_node8_3"><a xlink:href="https://github.com/maidsafe/brb_membership/blob/master/src/brb_membership.rs#:~:text=struct%20Vote" xlink:title="&lt;TABLE&gt;">
<polygon fill="lightblue" stroke="none" points="38,-1053 38,-1090 447,-1090 447,-1053 38,-1053"/>
<polygon fill="none" stroke="black" points="38,-1053 38,-1090 447,-1090 447,-1053 38,-1053"/>
<text text-anchor="start" x="227" y="-1068.8" font-family="Arial" font-weight="bold" font-size="14.00">Vote</text>
<polygon fill="white" stroke="none" points="38,-1001 38,-1053 447,-1053 447,-1001 38,-1001"/>
<polygon fill="none" stroke="black" points="38,-1001 38,-1053 447,-1053 447,-1001 38,-1001"/>
<text text-anchor="start" x="49" y="-1030.8" font-family="Arial" font-size="14.00">+ gen: Generation</text>
<text text-anchor="start" x="49" y="-1015.8" font-family="Arial" font-size="14.00">+ ballot: Ballot</text>
<polygon fill="white" stroke="none" points="38,-934 38,-1001 447,-1001 447,-934 38,-934"/>
<polygon fill="none" stroke="black" points="38,-934 38,-1001 447,-1001 447,-934 38,-934"/>
<text text-anchor="start" x="49" y="-978.8" font-family="Arial" font-size="14.00">&#45; fmt(&amp;self, f: &amp;mut std::fmt::Formatter&lt;&#39;_&gt;) &#45;&gt; std::fmt::Result</text>
<text text-anchor="start" x="49" y="-963.8" font-family="Arial" font-size="14.00">&#45; to_bytes(&amp;self) &#45;&gt; Result&lt;Vec&lt;u8&gt;, Error&gt;</text>
<text text-anchor="start" x="49" y="-948.8" font-family="Arial" font-size="14.00">&#45; is_super_majority_ballot(&amp;self) &#45;&gt; bool</text>
<polygon fill="none" stroke="black" points="36.5,-933 36.5,-1091 447.5,-1091 447.5,-933 36.5,-933"/>
</a>
</g>
</g>
<!-- ndError&#45;&gt;ndVote -->
<g id="edge3" class="edge"><title>ndError&#45;&gt;ndVote</title>
<path fill="none" stroke="black" d="M363.888,-1736.96C332.735,-1551.93 282.682,-1254.63 257.512,-1105.13"/>
<polygon fill="black" stroke="black" points="255.817,-1095.07 261.915,-1104.18 256.647,-1100 257.477,-1104.93 257.477,-1104.93 257.477,-1104.93 256.647,-1100 253.04,-1105.68 255.817,-1095.07 255.817,-1095.07"/>
</g>
<!-- ndSignedVote -->
<g id="node9" class="node"><title>ndSignedVote</title>
<g id="a_node9_4"><a xlink:href="https://github.com/maidsafe/brb_membership/blob/master/src/brb_membership.rs#:~:text=struct%20SignedVote" xlink:title="&lt;TABLE&gt;">
<polygon fill="lightblue" stroke="none" points="476,-850.5 476,-887.5 885,-887.5 885,-850.5 476,-850.5"/>
<polygon fill="none" stroke="black" points="476,-850.5 476,-887.5 885,-887.5 885,-850.5 476,-850.5"/>
<text text-anchor="start" x="640.5" y="-866.3" font-family="Arial" font-weight="bold" font-size="14.00">SignedVote</text>
<polygon fill="white" stroke="none" points="476,-783.5 476,-850.5 885,-850.5 885,-783.5 476,-783.5"/>
<polygon fill="none" stroke="black" points="476,-783.5 476,-850.5 885,-850.5 885,-783.5 476,-783.5"/>
<text text-anchor="start" x="487" y="-828.3" font-family="Arial" font-size="14.00">+ vote: Vote</text>
<text text-anchor="start" x="487" y="-813.3" font-family="Arial" font-size="14.00">+ voter: PublicKey</text>
<text text-anchor="start" x="487" y="-798.3" font-family="Arial" font-size="14.00">+ sig: Signature</text>
<polygon fill="white" stroke="none" points="476,-686.5 476,-783.5 885,-783.5 885,-686.5 476,-686.5"/>
<polygon fill="none" stroke="black" points="476,-686.5 476,-783.5 885,-783.5 885,-686.5 476,-686.5"/>
<text text-anchor="start" x="487" y="-761.3" font-family="Arial" font-size="14.00">&#45; fmt(&amp;self, f: &amp;mut std::fmt::Formatter&lt;&#39;_&gt;) &#45;&gt; std::fmt::Result</text>
<text text-anchor="start" x="487" y="-746.3" font-family="Arial" font-size="14.00">&#45; validate_signature(&amp;self) &#45;&gt; Result&lt;(), Error&gt;</text>
<text text-anchor="start" x="487" y="-731.3" font-family="Arial" font-size="14.00">&#45; unpack_votes(&amp;self) &#45;&gt; BTreeSet&lt;&amp;Self&gt;</text>
<text text-anchor="start" x="487" y="-716.3" font-family="Arial" font-size="14.00">&#45; reconfigs(&amp;self) &#45;&gt; BTreeSet&lt;(PublicKey, Reconfig)&gt;</text>
<text text-anchor="start" x="487" y="-701.3" font-family="Arial" font-size="14.00">&#45; supersedes(&amp;self, signed_vote: &amp;SignedVote) &#45;&gt; bool</text>
<polygon fill="none" stroke="black" points="474.5,-686 474.5,-889 885.5,-889 885.5,-686 474.5,-686"/>
</a>
</g>
</g>
<!-- ndError&#45;&gt;ndSignedVote -->
<g id="edge4" class="edge"><title>ndError&#45;&gt;ndSignedVote</title>
<path fill="none" stroke="black" d="M364.584,-1736.82C349.505,-1577.17 347.134,-1328.6 425,-1131 432.636,-1111.62 445.03,-1113.29 455,-1095 492.008,-1027.12 464.437,-993.542 507,-929 513.45,-919.219 520.769,-909.732 528.666,-900.614"/>
<polygon fill="black" stroke="black" points="535.428,-893.043 532.123,-903.499 532.097,-896.772 528.766,-900.501 528.766,-900.501 528.766,-900.501 532.097,-896.772 525.41,-897.503 535.428,-893.043 535.428,-893.043"/>
</g>
<!-- ndSecretKey -->
<g id="node3" class="node"><title>ndSecretKey</title>
<g id="a_node3_5"><a xlink:href="https://github.com/maidsafe/brb_membership/blob/master/src/ed25519.rs#:~:text=struct%20SecretKey" xlink:title="&lt;TABLE&gt;">
<polygon fill="lightblue" stroke="none" points="1111,-1441.5 1111,-1478.5 1440,-1478.5 1440,-1441.5 1111,-1441.5"/>
<polygon fill="none" stroke="black" points="1111,-1441.5 1111,-1478.5 1440,-1478.5 1440,-1441.5 1111,-1441.5"/>
<text text-anchor="start" x="1239" y="-1457.3" font-family="Arial" font-weight="bold" font-size="14.00">SecretKey</text>
<polygon fill="white" stroke="none" points="1111,-1404.5 1111,-1441.5 1440,-1441.5 1440,-1404.5 1111,-1404.5"/>
<polygon fill="none" stroke="black" points="1111,-1404.5 1111,-1441.5 1440,-1441.5 1440,-1404.5 1111,-1404.5"/>
<text text-anchor="start" x="1122" y="-1419.3" font-family="Arial" font-size="14.00">&#45; ed25519::Keypair</text>
<polygon fill="white" stroke="none" points="1111,-1337.5 1111,-1404.5 1440,-1404.5 1440,-1337.5 1111,-1337.5"/>
<polygon fill="none" stroke="black" points="1111,-1337.5 1111,-1404.5 1440,-1404.5 1440,-1337.5 1111,-1337.5"/>
<text text-anchor="start" x="1122" y="-1382.3" font-family="Arial" font-size="14.00">&#45; random(mut rng: impl Rng + CryptoRng) &#45;&gt; Self</text>
<text text-anchor="start" x="1122" y="-1367.3" font-family="Arial" font-size="14.00">&#45; public_key(&amp;self) &#45;&gt; PublicKey</text>
<text text-anchor="start" x="1122" y="-1352.3" font-family="Arial" font-size="14.00">&#45; sign(&amp;self, msg: &amp;[u8]) &#45;&gt; Signature</text>
<polygon fill="none" stroke="black" points="1109.5,-1337 1109.5,-1480 1440.5,-1480 1440.5,-1337 1109.5,-1337"/>
</a>
</g>
</g>
<!-- ndPublicKey&#45;&gt;ndSecretKey -->
<g id="edge5" class="edge"><title>ndPublicKey&#45;&gt;ndSecretKey</title>
<path fill="none" stroke="black" d="M1019.46,-1519.88C1043.99,-1509.29 1068.89,-1498.53 1093.04,-1488.1"/>
<polygon fill="black" stroke="black" points="1102.25,-1484.12 1094.85,-1492.22 1097.66,-1486.11 1093.07,-1488.09 1093.07,-1488.09 1093.07,-1488.09 1097.66,-1486.11 1091.28,-1483.96 1102.25,-1484.12 1102.25,-1484.12"/>
</g>
<!-- ndPublicKey&#45;&gt;ndState -->
<g id="edge6" class="edge"><title>ndPublicKey&#45;&gt;ndState</title>
<path fill="none" stroke="black" stroke-dasharray="5,2" d="M978.935,-1519.99C990.066,-1509.09 1000.01,-1497.11 1008,-1484 1202.78,-1164.61 1069.43,-1019.68 1087,-646 1089.07,-602.049 1099.97,-589.046 1087,-547 1084.49,-538.873 1081.67,-530.771 1078.58,-522.714"/>
<polygon fill="black" stroke="black" points="1078.49,-522.495 1072.55,-518.412 1074.03,-511.355 1079.98,-515.438 1078.49,-522.495"/>
</g>
<!-- ndReconfig -->
<g id="node6" class="node"><title>ndReconfig</title>
<g id="a_node6_6"><a xlink:href="https://github.com/maidsafe/brb_membership/blob/master/src/brb_membership.rs#:~:text=enum%20Reconfig" xlink:title="&lt;TABLE&gt;">
<polygon fill="yellow" stroke="none" points="552,-1441.5 552,-1478.5 961,-1478.5 961,-1441.5 552,-1441.5"/>
<polygon fill="none" stroke="black" points="552,-1441.5 552,-1478.5 961,-1478.5 961,-1441.5 552,-1441.5"/>
<text text-anchor="start" x="725.5" y="-1457.3" font-family="Arial" font-weight="bold" font-size="14.00">Reconfig</text>
<polygon fill="white" stroke="none" points="552,-1389.5 552,-1441.5 961,-1441.5 961,-1389.5 552,-1389.5"/>
<polygon fill="none" stroke="black" points="552,-1389.5 552,-1441.5 961,-1441.5 961,-1389.5 552,-1389.5"/>
<text text-anchor="start" x="563" y="-1419.3" font-family="Arial" font-size="14.00">Join(PublicKey)</text>
<text text-anchor="start" x="563" y="-1404.3" font-family="Arial" font-size="14.00">Leave(PublicKey)</text>
<polygon fill="white" stroke="none" points="552,-1337.5 552,-1389.5 961,-1389.5 961,-1337.5 552,-1337.5"/>
<polygon fill="none" stroke="black" points="552,-1337.5 552,-1389.5 961,-1389.5 961,-1337.5 552,-1337.5"/>
<text text-anchor="start" x="563" y="-1367.3" font-family="Arial" font-size="14.00">&#45; fmt(&amp;self, f: &amp;mut std::fmt::Formatter&lt;&#39;_&gt;) &#45;&gt; std::fmt::Result</text>
<text text-anchor="start" x="563" y="-1352.3" font-family="Arial" font-size="14.00">&#45; apply(self, members: &amp;mut BTreeSet&lt;PublicKey&gt;)</text>
<polygon fill="none" stroke="black" points="550.5,-1337 550.5,-1480 961.5,-1480 961.5,-1337 550.5,-1337"/>
</a>
</g>
</g>
<!-- ndPublicKey&#45;&gt;ndReconfig -->
<g id="edge7" class="edge"><title>ndPublicKey&#45;&gt;ndReconfig</title>
<path fill="none" stroke="black" d="M786.867,-1519.74C784.62,-1511.71 782.349,-1503.6 780.111,-1495.61"/>
<polygon fill="black" stroke="black" points="780.099,-1495.57 774.629,-1490.87 776.863,-1484.01 782.333,-1488.71 780.099,-1495.57"/>
</g>
<!-- ndPublicKey&#45;&gt;ndSignedVote -->
<g id="edge8" class="edge"><title>ndPublicKey&#45;&gt;ndSignedVote</title>
<path fill="none" stroke="black" d="M577.736,-1521.48C561.534,-1510.31 546.362,-1497.86 533,-1484 470.737,-1419.41 474.208,-1385.05 457,-1297 442.848,-1224.59 420.889,-1195.34 457,-1131 472.035,-1104.21 494.902,-1117.33 516,-1095 567.811,-1040.17 608.125,-965.816 635.817,-904.072"/>
<polygon fill="black" stroke="black" points="635.818,-904.069 634.585,-896.965 640.669,-893.093 641.902,-900.198 635.818,-904.069"/>
</g>
<!-- ndVoteMsg -->
<g id="node10" class="node"><title>ndVoteMsg</title>
<g id="a_node10_7"><a xlink:href="https://github.com/maidsafe/brb_membership/blob/master/src/brb_membership.rs#:~:text=struct%20VoteMsg" xlink:title="&lt;TABLE&gt;">
<polygon fill="lightblue" stroke="none" points="927,-603.5 927,-640.5 1070,-640.5 1070,-603.5 927,-603.5"/>
<polygon fill="none" stroke="black" points="927,-603.5 927,-640.5 1070,-640.5 1070,-603.5 927,-603.5"/>
<text text-anchor="start" x="968" y="-619.3" font-family="Arial" font-weight="bold" font-size="14.00">VoteMsg</text>
<polygon fill="white" stroke="none" points="927,-551.5 927,-603.5 1070,-603.5 1070,-551.5 927,-551.5"/>
<polygon fill="none" stroke="black" points="927,-551.5 927,-603.5 1070,-603.5 1070,-551.5 927,-551.5"/>
<text text-anchor="start" x="938" y="-581.3" font-family="Arial" font-size="14.00">+ vote: SignedVote</text>
<text text-anchor="start" x="938" y="-566.3" font-family="Arial" font-size="14.00">+ dest: PublicKey</text>
<polygon fill="none" stroke="black" points="925.5,-551 925.5,-642 1070.5,-642 1070.5,-551 925.5,-551"/>
</a>
</g>
</g>
<!-- ndPublicKey&#45;&gt;ndVoteMsg -->
<g id="edge9" class="edge"><title>ndPublicKey&#45;&gt;ndVoteMsg</title>
<path fill="none" stroke="black" d="M951.969,-1519.74C962.06,-1508.77 971,-1496.85 978,-1484 1035.35,-1378.72 998,-1334.89 998,-1215 998,-1215 998,-1215 998,-1011 998,-885.788 998,-739.248 998,-658.567"/>
<polygon fill="black" stroke="black" points="998,-658.196 994,-652.196 998,-646.196 1002,-652.196 998,-658.196"/>
</g>
<!-- ndSecretKey&#45;&gt;ndState -->
<g id="edge10" class="edge"><title>ndSecretKey&#45;&gt;ndState</title>
<path fill="none" stroke="black" d="M1255.23,-1332.84C1236.11,-1253.95 1210,-1125.62 1210,-1013 1210,-1013 1210,-1013 1210,-786.5 1210,-692.622 1172.7,-601.159 1123.53,-521.374"/>
<polygon fill="black" stroke="black" points="1123.52,-521.371 1116.95,-518.41 1117.15,-511.202 1123.73,-514.163 1123.52,-521.371"/>
</g>
<!-- ndSignature -->
<g id="node4" class="node"><title>ndSignature</title>
<g id="a_node4_8"><a xlink:href="https://github.com/maidsafe/brb_membership/blob/master/src/ed25519.rs#:~:text=struct%20Signature" xlink:title="&lt;TABLE&gt;">
<polygon fill="lightblue" stroke="none" points="857,-1925 857,-1962 1291,-1962 1291,-1925 857,-1925"/>
<polygon fill="none" stroke="black" points="857,-1925 857,-1962 1291,-1962 1291,-1925 857,-1925"/>
<text text-anchor="start" x="1040" y="-1940.8" font-family="Arial" font-weight="bold" font-size="14.00">Signature</text>
<polygon fill="white" stroke="none" points="857,-1888 857,-1925 1291,-1925 1291,-1888 857,-1888"/>
<polygon fill="none" stroke="black" points="857,-1888 857,-1925 1291,-1925 1291,-1888 857,-1888"/>
<text text-anchor="start" x="868" y="-1902.8" font-family="Arial" font-size="14.00">&#45; ed25519::Signature</text>
<polygon fill="white" stroke="none" points="857,-1836 857,-1888 1291,-1888 1291,-1836 857,-1836"/>
<polygon fill="none" stroke="black" points="857,-1836 857,-1888 1291,-1888 1291,-1836 857,-1836"/>
<text text-anchor="start" x="868" y="-1865.8" font-family="Arial" font-size="14.00">&#45; partial_cmp(&amp;self, other: &amp;Self) &#45;&gt; Option&lt;core::cmp::Ordering&gt;</text>
<text text-anchor="start" x="868" y="-1850.8" font-family="Arial" font-size="14.00">&#45; cmp(&amp;self, other: &amp;Self) &#45;&gt; std::cmp::Ordering</text>
<polygon fill="none" stroke="black" points="856,-1835 856,-1963 1292,-1963 1292,-1835 856,-1835"/>
</a>
</g>
</g>
<!-- ndSignature&#45;&gt;ndPublicKey -->
<g id="edge11" class="edge"><title>ndSignature&#45;&gt;ndPublicKey</title>
<path fill="none" stroke="black" stroke-dasharray="5,2" d="M1012.57,-1830.83C979.254,-1794.39 937.477,-1748.71 900.688,-1708.48"/>
<polygon fill="black" stroke="black" points="893.88,-1701.04 903.949,-1705.38 897.254,-1704.73 900.628,-1708.42 900.628,-1708.42 900.628,-1708.42 897.254,-1704.73 897.307,-1711.45 893.88,-1701.04 893.88,-1701.04"/>
</g>
<!-- ndSignature&#45;&gt;ndSecretKey -->
<g id="edge12" class="edge"><title>ndSignature&#45;&gt;ndSecretKey</title>
<path fill="none" stroke="black" d="M1101.63,-1830.84C1137.77,-1743.02 1201.08,-1589.14 1240.38,-1493.64"/>
<polygon fill="black" stroke="black" points="1244.22,-1484.3 1244.58,-1495.26 1242.32,-1488.92 1240.42,-1493.55 1240.42,-1493.55 1240.42,-1493.55 1242.32,-1488.92 1236.26,-1491.83 1244.22,-1484.3 1244.22,-1484.3"/>
</g>
<!-- ndSignature&#45;&gt;ndSignedVote -->
<g id="edge13" class="edge"><title>ndSignature&#45;&gt;ndSignedVote</title>
<path fill="none" stroke="black" d="M1076.47,-1830.73C1079.28,-1662.01 1065.39,-1214 858,-929 851.138,-919.569 843.48,-910.44 835.302,-901.668"/>
<polygon fill="black" stroke="black" points="835.291,-901.656 828.247,-900.113 826.962,-893.017 834.006,-894.56 835.291,-901.656"/>
</g>
<!-- ndReconfig&#45;&gt;ndState -->
<g id="edge14" class="edge"><title>ndReconfig&#45;&gt;ndState</title>
<path fill="none" stroke="black" stroke-dasharray="5,2" d="M899.438,-1332.66C910.306,-1322.05 919.817,-1310.19 927,-1297 936.192,-1280.12 916.375,-825.952 902.052,-523.292"/>
<polygon fill="black" stroke="black" points="902.049,-523.231 897.769,-517.427 901.481,-511.244 905.76,-517.048 902.049,-523.231"/>
</g>
<!-- ndBallot -->
<g id="node7" class="node"><title>ndBallot</title>
<g id="a_node7_9"><a xlink:href="https://github.com/maidsafe/brb_membership/blob/master/src/brb_membership.rs#:~:text=enum%20Ballot" xlink:title="&lt;TABLE&gt;">
<polygon fill="yellow" stroke="none" points="476,-1255 476,-1292 885,-1292 885,-1255 476,-1255"/>
<polygon fill="none" stroke="black" points="476,-1255 476,-1292 885,-1292 885,-1255 476,-1255"/>
<text text-anchor="start" x="660.5" y="-1270.8" font-family="Arial" font-weight="bold" font-size="14.00">Ballot</text>
<polygon fill="white" stroke="none" points="476,-1188 476,-1255 885,-1255 885,-1188 476,-1188"/>
<polygon fill="none" stroke="black" points="476,-1188 476,-1255 885,-1255 885,-1188 476,-1188"/>
<text text-anchor="start" x="487" y="-1232.8" font-family="Arial" font-size="14.00">Propose(Reconfig)</text>
<text text-anchor="start" x="487" y="-1217.8" font-family="Arial" font-size="14.00">Merge(BTreeSet&lt;SignedVote&gt;)</text>
<text text-anchor="start" x="487" y="-1202.8" font-family="Arial" font-size="14.00">SuperMajority(BTreeSet&lt;SignedVote&gt;)</text>
<polygon fill="white" stroke="none" points="476,-1136 476,-1188 885,-1188 885,-1136 476,-1136"/>
<polygon fill="none" stroke="black" points="476,-1136 476,-1188 885,-1188 885,-1136 476,-1136"/>
<text text-anchor="start" x="487" y="-1165.8" font-family="Arial" font-size="14.00">&#45; fmt(&amp;self, f: &amp;mut std::fmt::Formatter&lt;&#39;_&gt;) &#45;&gt; std::fmt::Result</text>
<text text-anchor="start" x="487" y="-1150.8" font-family="Arial" font-size="14.00">&#45; simplify(&amp;self) &#45;&gt; Self</text>
<polygon fill="none" stroke="black" points="474.5,-1135 474.5,-1293 885.5,-1293 885.5,-1135 474.5,-1135"/>
</a>
</g>
</g>
<!-- ndReconfig&#45;&gt;ndBallot -->
<g id="edge15" class="edge"><title>ndReconfig&#45;&gt;ndBallot</title>
<path fill="none" stroke="black" d="M726.508,-1332.8C723.324,-1324.73 720.055,-1316.46 716.799,-1308.21"/>
<polygon fill="black" stroke="black" points="716.782,-1308.16 710.858,-1304.05 712.375,-1297 718.299,-1301.11 716.782,-1308.16"/>
</g>
<!-- ndReconfig&#45;&gt;ndSignedVote -->
<g id="edge16" class="edge"><title>ndReconfig&#45;&gt;ndSignedVote</title>
<path fill="none" stroke="black" d="M876.408,-1332.85C886.604,-1322.05 895.489,-1310.09 902,-1297 934.85,-1230.94 922.923,-1201.75 902,-1131 877.14,-1046.94 824.465,-964.14 776.663,-901.014"/>
<polygon fill="black" stroke="black" points="770.559,-893.024 780.206,-898.239 773.594,-896.997 776.63,-900.97 776.63,-900.97 776.63,-900.97 773.594,-896.997 773.054,-903.702 770.559,-893.024 770.559,-893.024"/>
</g>
<!-- ndBallot&#45;&gt;ndVote -->
<g id="edge17" class="edge"><title>ndBallot&#45;&gt;ndVote</title>
<path fill="none" stroke="black" d="M500.269,-1130.93C477.95,-1120.74 455.069,-1110.29 432.593,-1100.03"/>
<polygon fill="black" stroke="black" points="432.513,-1099.99 425.393,-1101.14 421.597,-1095.01 428.716,-1093.86 432.513,-1099.99"/>
</g>
<!-- ndVote&#45;&gt;ndState -->
<g id="edge18" class="edge"><title>ndVote&#45;&gt;ndState</title>
<path fill="none" stroke="black" stroke-dasharray="5,2" d="M288.92,-928.886C329.711,-860.212 392.283,-761.071 457,-682 502.293,-626.662 553.966,-570.732 605.445,-518.42"/>
<polygon fill="black" stroke="black" points="612.707,-511.063 608.885,-521.341 609.195,-514.622 605.682,-518.18 605.682,-518.18 605.682,-518.18 609.195,-514.622 602.479,-515.019 612.707,-511.063 612.707,-511.063"/>
</g>
<!-- ndVote&#45;&gt;ndSignedVote -->
<g id="edge19" class="edge"><title>ndVote&#45;&gt;ndSignedVote</title>
<path fill="none" stroke="black" stroke-dasharray="5,2" d="M403.54,-928.939C423.07,-919.018 443.255,-908.764 463.414,-898.524"/>
<polygon fill="black" stroke="black" points="463.578,-898.441 467.115,-892.157 474.276,-893.006 470.739,-899.289 463.578,-898.441"/>
</g>
<!-- ndSignedVote&#45;&gt;ndError -->
<g id="edge20" class="edge"><title>ndSignedVote&#45;&gt;ndError</title>
<path fill="none" stroke="black" d="M553.359,-893.043C542.936,-904.443 533.256,-916.48 525,-929 482.437,-993.542 510.008,-1027.12 473,-1095 463.03,-1113.29 450.636,-1111.62 443,-1131 367.111,-1323.58 367.436,-1564.58 377.45,-1724.49"/>
<polygon fill="black" stroke="black" points="377.473,-1724.85 381.854,-1730.58 378.251,-1736.82 373.871,-1731.09 377.473,-1724.85"/>
</g>
<!-- ndSignedVote&#45;&gt;ndState -->
<g id="edge21" class="edge"><title>ndSignedVote&#45;&gt;ndState</title>
<path fill="none" stroke="black" stroke-dasharray="5,2" d="M721.292,-681.789C739.688,-635.138 762.271,-577.87 784.833,-520.655"/>
<polygon fill="black" stroke="black" points="788.6,-511.102 789.118,-522.055 786.766,-515.753 784.932,-520.405 784.932,-520.405 784.932,-520.405 786.766,-515.753 780.746,-518.754 788.6,-511.102 788.6,-511.102"/>
</g>
<!-- ndSignedVote&#45;&gt;ndBallot -->
<g id="edge22" class="edge"><title>ndSignedVote&#45;&gt;ndBallot</title>
<path fill="none" stroke="black" d="M680,-893.344C680,-962.358 680,-1051.94 680,-1118.71"/>
<polygon fill="black" stroke="black" points="680,-1118.9 684,-1124.9 680,-1130.9 676,-1124.9 680,-1118.9"/>
</g>
<!-- ndSignedVote&#45;&gt;ndVoteMsg -->
<g id="edge23" class="edge"><title>ndSignedVote&#45;&gt;ndVoteMsg</title>
<path fill="none" stroke="black" d="M856.205,-681.774C873.72,-671.364 890.954,-661.122 907.042,-651.56"/>
<polygon fill="black" stroke="black" points="907.124,-651.511 910.238,-645.007 917.44,-645.38 914.326,-651.884 907.124,-651.511"/>
</g>
<!-- ndVoteMsg&#45;&gt;ndState -->
<g id="edge24" class="edge"><title>ndVoteMsg&#45;&gt;ndState</title>
<path fill="none" stroke="black" d="M982.383,-546.93C979.8,-538.897 976.974,-530.108 973.966,-520.752"/>
<polygon fill="black" stroke="black" points="970.899,-511.214 978.244,-519.356 972.43,-515.974 973.96,-520.734 973.96,-520.734 973.96,-520.734 972.43,-515.974 969.676,-522.111 970.899,-511.214 970.899,-511.214"/>
</g>
</g>
</svg>
