<?xml version="1.0" encoding="UTF-8" standalone="no"?>
<!DOCTYPE svg PUBLIC "-//W3C//DTD SVG 1.1//EN"
 "http://www.w3.org/Graphics/SVG/1.1/DTD/svg11.dtd">
<!-- Generated by graphviz version 2.38.0 (20140413.2041)
 -->
<!-- Title: ml Pages: 1 -->
<svg width="554pt" height="387pt"
 viewBox="0.00 0.00 553.50 387.00" xmlns="http://www.w3.org/2000/svg" xmlns:xlink="http://www.w3.org/1999/xlink">
<g id="graph0" class="graph" transform="scale(1 1) rotate(0) translate(4 383)">
<title>ml</title>
<polygon fill="white" stroke="none" points="-4,4 -4,-383 549.5,-383 549.5,4 -4,4"/>
<!-- ndError -->
<g id="node1" class="node"><title>ndError</title>
<polygon fill="yellow" stroke="none" points="106,-87.5 106,-124.5 165,-124.5 165,-87.5 106,-87.5"/>
<polygon fill="none" stroke="black" points="106,-87.5 106,-124.5 165,-124.5 165,-87.5 106,-87.5"/>
<text text-anchor="start" x="117" y="-103.3" font-family="Arial" font-weight="bold" font-size="14.00">Error</text>
<polygon fill="none" stroke="black" points="104.5,-87 104.5,-126 165.5,-126 165.5,-87 104.5,-87"/>
</g>
<!-- ndVoteMsg -->
<g id="node6" class="node"><title>ndVoteMsg</title>
<polygon fill="lightblue" stroke="none" points="161,-4.5 161,-41.5 244,-41.5 244,-4.5 161,-4.5"/>
<polygon fill="none" stroke="black" points="161,-4.5 161,-41.5 244,-41.5 244,-4.5 161,-4.5"/>
<text text-anchor="start" x="172" y="-20.3" font-family="Arial" font-weight="bold" font-size="14.00">VoteMsg</text>
<polygon fill="none" stroke="black" points="159.5,-4 159.5,-43 244.5,-43 244.5,-4 159.5,-4"/>
</g>
<!-- ndError&#45;&gt;ndVoteMsg -->
<g id="edge1" class="edge"><title>ndError&#45;&gt;ndVoteMsg</title>
<path fill="none" stroke="black" d="M153.663,-82.937C160.791,-74.3201 169.041,-64.3457 176.686,-55.1036"/>
<polygon fill="black" stroke="black" points="183.204,-47.2229 180.298,-57.7967 180.018,-51.0757 176.831,-54.9285 176.831,-54.9285 176.831,-54.9285 180.018,-51.0757 173.363,-52.0603 183.204,-47.2229 183.204,-47.2229"/>
</g>
<!-- ndState -->
<g id="node2" class="node"><title>ndState</title>
<polygon fill="lightblue" stroke="none" points="9,-253.5 9,-290.5 67,-290.5 67,-253.5 9,-253.5"/>
<polygon fill="none" stroke="black" points="9,-253.5 9,-290.5 67,-290.5 67,-253.5 9,-253.5"/>
<text text-anchor="start" x="20" y="-269.3" font-family="Arial" font-weight="bold" font-size="14.00">State</text>
<polygon fill="none" stroke="black" points="8,-253 8,-292 68,-292 68,-253 8,-253"/>
</g>
<!-- ndReconfig -->
<g id="node3" class="node"><title>ndReconfig</title>
<polygon fill="yellow" stroke="none" points="126,-336.5 126,-373.5 210,-373.5 210,-336.5 126,-336.5"/>
<polygon fill="none" stroke="black" points="126,-336.5 126,-373.5 210,-373.5 210,-336.5 126,-336.5"/>
<text text-anchor="start" x="137" y="-352.3" font-family="Arial" font-weight="bold" font-size="14.00">Reconfig</text>
<polygon fill="none" stroke="black" points="125,-336 125,-375 211,-375 211,-336 125,-336"/>
</g>
<!-- ndReconfig&#45;&gt;ndState -->
<g id="edge2" class="edge"><title>ndReconfig&#45;&gt;ndState</title>
<path fill="none" stroke="black" d="M131.788,-331.937C117.26,-322.885 100.327,-312.335 84.879,-302.709"/>
<polygon fill="black" stroke="black" points="84.6537,-302.569 77.446,-302.791 74.4689,-296.223 81.6766,-296.001 84.6537,-302.569"/>
</g>
<!-- ndBallot -->
<g id="node4" class="node"><title>ndBallot</title>
<polygon fill="yellow" stroke="none" points="103,-253.5 103,-290.5 165,-290.5 165,-253.5 103,-253.5"/>
<polygon fill="none" stroke="black" points="103,-253.5 103,-290.5 165,-290.5 165,-253.5 103,-253.5"/>
<text text-anchor="start" x="114" y="-269.3" font-family="Arial" font-weight="bold" font-size="14.00">Ballot</text>
<polygon fill="none" stroke="black" points="102,-253 102,-292 166,-292 166,-253 102,-253"/>
</g>
<!-- ndReconfig&#45;&gt;ndBallot -->
<g id="edge3" class="edge"><title>ndReconfig&#45;&gt;ndBallot</title>
<path fill="none" stroke="black" d="M158.529,-331.937C155.351,-324.365 151.732,-315.744 148.269,-307.493"/>
<polygon fill="black" stroke="black" points="148.183,-307.288 142.172,-303.304 143.538,-296.223 149.549,-300.207 148.183,-307.288"/>
</g>
<!-- ndVote -->
<g id="node5" class="node"><title>ndVote</title>
<polygon fill="lightblue" stroke="none" points="129,-170.5 129,-207.5 182,-207.5 182,-170.5 129,-170.5"/>
<polygon fill="none" stroke="black" points="129,-170.5 129,-207.5 182,-207.5 182,-170.5 129,-170.5"/>
<text text-anchor="start" x="140" y="-186.3" font-family="Arial" font-weight="bold" font-size="14.00">Vote</text>
<polygon fill="none" stroke="black" points="127.5,-170 127.5,-209 182.5,-209 182.5,-170 127.5,-170"/>
</g>
<!-- ndReconfig&#45;&gt;ndVote -->
<g id="edge4" class="edge"><title>ndReconfig&#45;&gt;ndVote</title>
<path fill="none" stroke="black" d="M176.003,-331.666C182.421,-310.164 189.388,-277.144 183,-249 180.954,-239.985 177.34,-230.735 173.375,-222.329"/>
<polygon fill="black" stroke="black" points="168.813,-213.253 177.325,-220.167 171.059,-217.721 173.304,-222.188 173.304,-222.188 173.304,-222.188 171.059,-217.721 169.283,-224.209 168.813,-213.253 168.813,-213.253"/>
</g>
<!-- ndReconfig&#45;&gt;ndVoteMsg -->
<g id="edge5" class="edge"><title>ndReconfig&#45;&gt;ndVoteMsg</title>
<path fill="none" stroke="black" d="M182.65,-331.833C188.604,-321.363 194.822,-308.5 198,-296 219.309,-212.187 212.132,-109.074 206.353,-57.3619"/>
<polygon fill="black" stroke="black" points="205.151,-47.1327 210.787,-56.5396 205.734,-52.0986 206.318,-57.0645 206.318,-57.0645 206.318,-57.0645 205.734,-52.0986 201.848,-57.5894 205.151,-47.1327 205.151,-47.1327"/>
</g>
<!-- ndBallot&#45;&gt;ndVote -->
<g id="edge6" class="edge"><title>ndBallot&#45;&gt;ndVote</title>
<path fill="none" stroke="black" d="M139.85,-248.937C141.768,-241.539 143.945,-233.14 146.039,-225.063"/>
<polygon fill="black" stroke="black" points="146.097,-224.839 143.731,-218.027 149.109,-213.223 151.475,-220.035 146.097,-224.839"/>
</g>
<!-- ndVote&#45;&gt;ndError -->
<g id="edge7" class="edge"><title>ndVote&#45;&gt;ndError</title>
<path fill="none" stroke="black" d="M149.429,-165.937C147.602,-158.539 145.528,-150.14 143.534,-142.063"/>
<polygon fill="black" stroke="black" points="143.487,-141.873 138.166,-137.007 140.611,-130.223 145.932,-135.089 143.487,-141.873"/>
</g>
<!-- ndVote&#45;&gt;ndVoteMsg -->
<g id="edge8" class="edge"><title>ndVote&#45;&gt;ndVoteMsg</title>
<path fill="none" stroke="black" d="M167.647,-165.745C173.072,-155.152 179.056,-142.215 183,-130 190.434,-106.974 195.218,-80.1241 198.126,-59.274"/>
<polygon fill="black" stroke="black" points="198.154,-59.0549 194.961,-52.5894 199.701,-47.155 202.894,-53.6205 198.154,-59.0549"/>
</g>
<!-- ndActor -->
<g id="node7" class="node"><title>ndActor</title>
<polygon fill="lightgreen" stroke="none" points="246,-336.5 246,-373.5 306,-373.5 306,-336.5 246,-336.5"/>
<polygon fill="none" stroke="black" points="246,-336.5 246,-373.5 306,-373.5 306,-336.5 246,-336.5"/>
<text text-anchor="start" x="257" y="-352.3" font-family="Arial" font-weight="bold" font-size="14.00">Actor</text>
<polygon fill="none" stroke="black" points="245,-336 245,-375 307,-375 307,-336 245,-336"/>
</g>
<!-- ndSigningActor -->
<g id="node8" class="node"><title>ndSigningActor</title>
<polygon fill="lightgreen" stroke="none" points="343,-336.5 343,-373.5 456,-373.5 456,-336.5 343,-336.5"/>
<polygon fill="none" stroke="black" points="343,-336.5 343,-373.5 456,-373.5 456,-336.5 343,-336.5"/>
<text text-anchor="start" x="354" y="-352.3" font-family="Arial" font-weight="bold" font-size="14.00">SigningActor</text>
<polygon fill="none" stroke="black" points="341.5,-336 341.5,-375 456.5,-375 456.5,-336 341.5,-336"/>
</g>
<!-- ndSig -->
<g id="node9" class="node"><title>ndSig</title>
<polygon fill="lightgreen" stroke="none" points="492,-336.5 492,-373.5 537,-373.5 537,-336.5 492,-336.5"/>
<polygon fill="none" stroke="black" points="492,-336.5 492,-373.5 537,-373.5 537,-336.5 492,-336.5"/>
<text text-anchor="start" x="503" y="-352.3" font-family="Arial" font-weight="bold" font-size="14.00">Sig</text>
<polygon fill="none" stroke="black" points="490.5,-336 490.5,-375 537.5,-375 537.5,-336 490.5,-336"/>
</g>
</g>
</svg>
