<?xml version="1.0" encoding="UTF-8" standalone="no"?>
<!DOCTYPE svg PUBLIC "-//W3C//DTD SVG 1.1//EN"
 "http://www.w3.org/Graphics/SVG/1.1/DTD/svg11.dtd">
<!-- Generated by graphviz version 2.38.0 (20140413.2041)
 -->
<!-- Title: ml Pages: 1 -->
<svg width="548pt" height="757pt"
 viewBox="0.00 0.00 548.12 757.00" xmlns="http://www.w3.org/2000/svg" xmlns:xlink="http://www.w3.org/1999/xlink">
<g id="graph0" class="graph" transform="scale(1 1) rotate(0) translate(4 753)">
<title>ml</title>
<polygon fill="white" stroke="none" points="-4,4 -4,-753 544.117,-753 544.117,4 -4,4"/>
<!-- ndError -->
<g id="node1" class="node"><title>ndError</title>
<g id="a_node1_0"><a xlink:href="https://github.com/maidsafe/brb_membership/blob/master/src/error.rs#:~:text=enum%20Error" xlink:title="&lt;TABLE&gt;">
<polygon fill="yellow" stroke="none" points="70.6172,-338.5 70.6172,-375.5 339.617,-375.5 339.617,-338.5 70.6172,-338.5"/>
<polygon fill="none" stroke="black" points="70.6172,-338.5 70.6172,-375.5 339.617,-375.5 339.617,-338.5 70.6172,-338.5"/>
<text text-anchor="start" x="186.617" y="-354.3" font-family="Arial" font-weight="bold" font-size="14.00">Error</text>
<polygon fill="white" stroke="none" points="70.6172,-76.5 70.6172,-338.5 339.617,-338.5 339.617,-76.5 70.6172,-76.5"/>
<polygon fill="none" stroke="black" points="70.6172,-76.5 70.6172,-338.5 339.617,-338.5 339.617,-76.5 70.6172,-76.5"/>
<text text-anchor="start" x="81.6172" y="-316.3" font-family="Arial" font-size="14.00">IO(std::io::Error)</text>
<text text-anchor="start" x="81.6172" y="-301.3" font-family="Arial" font-size="14.00">NoMembers</text>
<text text-anchor="start" x="81.6172" y="-286.3" font-family="Arial" font-size="14.00">InvalidSignature(signature::Error)</text>
<text text-anchor="start" x="81.6172" y="-271.3" font-family="Arial" font-size="14.00">WrongDestination</text>
<text text-anchor="start" x="81.6172" y="-256.3" font-family="Arial" font-size="14.00">MembersAtCapacity</text>
<text text-anchor="start" x="81.6172" y="-241.3" font-family="Arial" font-size="14.00">JoinRequestForExistingMember</text>
<text text-anchor="start" x="81.6172" y="-226.3" font-family="Arial" font-size="14.00">LeaveRequestForNonMember</text>
<text text-anchor="start" x="81.6172" y="-211.3" font-family="Arial" font-size="14.00">VoteNotForNextGeneration</text>
<text text-anchor="start" x="81.6172" y="-196.3" font-family="Arial" font-size="14.00">VoteFromNonMember</text>
<text text-anchor="start" x="81.6172" y="-181.3" font-family="Arial" font-size="14.00">VoterChangedMind</text>
<text text-anchor="start" x="81.6172" y="-166.3" font-family="Arial" font-size="14.00">ExistingVoteIncompatibleWithNewVote</text>
<text text-anchor="start" x="81.6172" y="-151.3" font-family="Arial" font-size="14.00">SuperMajorityBallotIsNotSuperMajority</text>
<text text-anchor="start" x="81.6172" y="-136.3" font-family="Arial" font-size="14.00">InvalidGeneration(Generation)</text>
<text text-anchor="start" x="81.6172" y="-121.3" font-family="Arial" font-size="14.00">InvalidVoteInHistory(Vote&lt;A, S&gt;)</text>
<text text-anchor="start" x="81.6172" y="-106.3" font-family="Arial" font-size="14.00">Encoding(bincode::Error)</text>
<text text-anchor="start" x="81.6172" y="-91.3" font-family="Arial" font-size="14.00">Other(String)</text>
<polygon fill="none" stroke="black" points="69.1172,-76 69.1172,-377 340.117,-377 340.117,-76 69.1172,-76"/>
</a>
</g>
</g>
<!-- ndState -->
<g id="node5" class="node"><title>ndState</title>
<text text-anchor="middle" x="290.617" y="-14.3" font-family="Times,serif" font-size="14.00">ndState</text>
</g>
<!-- ndError&#45;&gt;ndState -->
<g id="edge1" class="edge"><title>ndError&#45;&gt;ndState</title>
<path fill="none" stroke="black" d="M268.582,-71.9107C272.623,-62.2065 276.338,-53.2877 279.519,-45.6477"/>
<polygon fill="black" stroke="black" points="283.378,-36.3823 283.688,-47.3439 281.456,-40.9981 279.533,-45.6138 279.533,-45.6138 279.533,-45.6138 281.456,-40.9981 275.379,-43.8837 283.378,-36.3823 283.378,-36.3823"/>
</g>
<!-- ndActor -->
<g id="node2" class="node"><title>ndActor</title>
<g id="a_node2_1"><a xlink:href="https://github.com/maidsafe/brb_membership/blob/master/src/actor.rs#:~:text=trait%20Actor" xlink:title="&lt;TABLE&gt;">
<polygon fill="lightgreen" stroke="none" points="411.617,-538 411.617,-575 471.617,-575 471.617,-538 411.617,-538"/>
<polygon fill="none" stroke="black" points="411.617,-538 411.617,-575 471.617,-575 471.617,-538 411.617,-538"/>
<text text-anchor="start" x="422.617" y="-553.8" font-family="Arial" font-weight="bold" font-size="14.00">Actor</text>
<polygon fill="none" stroke="black" points="410.617,-537.5 410.617,-576.5 472.617,-576.5 472.617,-537.5 410.617,-537.5"/>
</a>
</g>
</g>
<!-- ndSigningActor -->
<g id="node3" class="node"><title>ndSigningActor</title>
<g id="a_node3_2"><a xlink:href="https://github.com/maidsafe/brb_membership/blob/master/src/actor.rs#:~:text=trait%20SigningActor" xlink:title="&lt;TABLE&gt;">
<polygon fill="lightgreen" stroke="none" points="418.617,-421.5 418.617,-458.5 531.617,-458.5 531.617,-421.5 418.617,-421.5"/>
<polygon fill="none" stroke="black" points="418.617,-421.5 418.617,-458.5 531.617,-458.5 531.617,-421.5 418.617,-421.5"/>
<text text-anchor="start" x="429.617" y="-437.3" font-family="Arial" font-weight="bold" font-size="14.00">SigningActor</text>
<polygon fill="none" stroke="black" points="417.117,-421 417.117,-460 532.117,-460 532.117,-421 417.117,-421"/>
</a>
</g>
</g>
<!-- ndActor&#45;&gt;ndSigningActor -->
<g id="edge2" class="edge"><title>ndActor&#45;&gt;ndSigningActor</title>
<path fill="none" stroke="black" d="M448.137,-533.378C453.041,-516.363 459.829,-492.811 465.304,-473.812"/>
<polygon fill="black" stroke="black" points="468.111,-464.075 469.666,-474.93 466.726,-468.879 465.342,-473.683 465.342,-473.683 465.342,-473.683 466.726,-468.879 461.018,-472.437 468.111,-464.075 468.111,-464.075"/>
</g>
<!-- ndSig -->
<g id="node4" class="node"><title>ndSig</title>
<g id="a_node4_3"><a xlink:href="https://github.com/maidsafe/brb_membership/blob/master/src/actor.rs#:~:text=trait%20Sig" xlink:title="&lt;TABLE&gt;">
<polygon fill="lightgreen" stroke="none" points="452.617,-680.5 452.617,-717.5 497.617,-717.5 497.617,-680.5 452.617,-680.5"/>
<polygon fill="none" stroke="black" points="452.617,-680.5 452.617,-717.5 497.617,-717.5 497.617,-680.5 452.617,-680.5"/>
<text text-anchor="start" x="463.617" y="-696.3" font-family="Arial" font-weight="bold" font-size="14.00">Sig</text>
<polygon fill="none" stroke="black" points="451.117,-680 451.117,-719 498.117,-719 498.117,-680 451.117,-680"/>
</a>
</g>
</g>
<!-- ndSig&#45;&gt;ndActor -->
<g id="edge3" class="edge"><title>ndSig&#45;&gt;ndActor</title>
<path fill="none" stroke="black" stroke-dasharray="5,2" d="M469.315,-675.926C463.879,-652.78 455.371,-616.559 449.219,-590.365"/>
<polygon fill="black" stroke="black" points="446.906,-580.518 453.573,-589.224 448.049,-585.385 449.193,-590.253 449.193,-590.253 449.193,-590.253 448.049,-585.385 444.812,-591.282 446.906,-580.518 446.906,-580.518"/>
</g>
<!-- ndSig&#45;&gt;ndSigningActor -->
<g id="edge4" class="edge"><title>ndSig&#45;&gt;ndSigningActor</title>
<path fill="none" stroke="black" d="M479.787,-675.692C483.349,-658.769 487.761,-635.076 489.617,-614 494.062,-563.529 495.959,-550.268 489.617,-500 488.535,-491.421 486.593,-482.299 484.458,-473.873"/>
<polygon fill="black" stroke="black" points="481.803,-464.025 488.751,-472.508 483.105,-468.852 484.406,-473.68 484.406,-473.68 484.406,-473.68 483.105,-468.852 480.061,-474.851 481.803,-464.025 481.803,-464.025"/>
</g>
<!-- ndReconfig -->
<g id="node6" class="node"><title>ndReconfig</title>
<g id="a_node6_4"><a xlink:href="https://github.com/maidsafe/brb_membership/blob/master/src/brb_membership.rs#:~:text=enum%20Reconfig" xlink:title="&lt;TABLE&gt;">
<polygon fill="yellow" stroke="none" points="161.617,-706.5 161.617,-743.5 245.617,-743.5 245.617,-706.5 161.617,-706.5"/>
<polygon fill="none" stroke="black" points="161.617,-706.5 161.617,-743.5 245.617,-743.5 245.617,-706.5 161.617,-706.5"/>
<text text-anchor="start" x="172.617" y="-722.3" font-family="Arial" font-weight="bold" font-size="14.00">Reconfig</text>
<polygon fill="white" stroke="none" points="161.617,-654.5 161.617,-706.5 245.617,-706.5 245.617,-654.5 161.617,-654.5"/>
<polygon fill="none" stroke="black" points="161.617,-654.5 161.617,-706.5 245.617,-706.5 245.617,-654.5 161.617,-654.5"/>
<text text-anchor="start" x="172.617" y="-684.3" font-family="Arial" font-size="14.00">Join(A)</text>
<text text-anchor="start" x="172.617" y="-669.3" font-family="Arial" font-size="14.00">Leave(A)</text>
<polygon fill="none" stroke="black" points="160.617,-654 160.617,-745 246.617,-745 246.617,-654 160.617,-654"/>
</a>
</g>
</g>
<!-- ndReconfig&#45;&gt;ndState -->
<g id="edge5" class="edge"><title>ndReconfig&#45;&gt;ndState</title>
<path fill="none" stroke="black" d="M152.595,-685.009C117.432,-672.756 73.2777,-650.824 51.6172,-614 -9.44907,-510.184 -23.769,-165.935 51.6172,-72 76.0063,-41.6099 188.077,-27.5635 249.707,-22.0392"/>
<polygon fill="black" stroke="black" points="249.725,-22.0378 255.363,-17.5415 261.681,-21.0163 256.044,-25.5125 249.725,-22.0378"/>
</g>
<!-- ndBallot -->
<g id="node7" class="node"><title>ndBallot</title>
<g id="a_node7_5"><a xlink:href="https://github.com/maidsafe/brb_membership/blob/master/src/brb_membership.rs#:~:text=enum%20Ballot" xlink:title="&lt;TABLE&gt;">
<polygon fill="yellow" stroke="none" points="69.6172,-572 69.6172,-609 337.617,-609 337.617,-572 69.6172,-572"/>
<polygon fill="none" stroke="black" points="69.6172,-572 69.6172,-609 337.617,-609 337.617,-572 69.6172,-572"/>
<text text-anchor="start" x="183.617" y="-587.8" font-family="Arial" font-weight="bold" font-size="14.00">Ballot</text>
<polygon fill="white" stroke="none" points="69.6172,-505 69.6172,-572 337.617,-572 337.617,-505 69.6172,-505"/>
<polygon fill="none" stroke="black" points="69.6172,-505 69.6172,-572 337.617,-572 337.617,-505 69.6172,-505"/>
<text text-anchor="start" x="80.6172" y="-549.8" font-family="Arial" font-size="14.00">Propose(Reconfig&lt;A&gt;)</text>
<text text-anchor="start" x="80.6172" y="-534.8" font-family="Arial" font-size="14.00">Merge(BTreeSet&lt;Vote&lt;A, S&gt;&gt;)</text>
<text text-anchor="start" x="80.6172" y="-519.8" font-family="Arial" font-size="14.00">SuperMajority(BTreeSet&lt;Vote&lt;A, S&gt;&gt;)</text>
<polygon fill="none" stroke="black" points="68.6172,-504 68.6172,-610 338.617,-610 338.617,-504 68.6172,-504"/>
</a>
</g>
</g>
<!-- ndReconfig&#45;&gt;ndBallot -->
<g id="edge6" class="edge"><title>ndReconfig&#45;&gt;ndBallot</title>
<path fill="none" stroke="black" d="M203.617,-649.754C203.617,-642.264 203.617,-634.414 203.617,-626.59"/>
<polygon fill="black" stroke="black" points="203.617,-626.375 199.617,-620.375 203.617,-614.375 207.617,-620.375 203.617,-626.375"/>
</g>
<!-- ndVote -->
<g id="node8" class="node"><title>ndVote</title>
<text text-anchor="middle" x="283.617" y="-436.8" font-family="Times,serif" font-size="14.00">ndVote</text>
</g>
<!-- ndReconfig&#45;&gt;ndVote -->
<g id="edge7" class="edge"><title>ndReconfig&#45;&gt;ndVote</title>
<path fill="none" stroke="black" d="M254.639,-685.009C289.803,-672.756 333.957,-650.824 355.617,-614 381.306,-570.328 377.392,-545.749 355.617,-500 348.108,-484.224 334.033,-471.313 320.306,-461.672"/>
<polygon fill="black" stroke="black" points="311.866,-456.096 322.69,-457.854 316.038,-458.852 320.21,-461.608 320.21,-461.608 320.21,-461.608 316.038,-458.852 317.729,-465.363 311.866,-456.096 311.866,-456.096"/>
</g>
<!-- ndBallot&#45;&gt;ndVote -->
<g id="edge8" class="edge"><title>ndBallot&#45;&gt;ndVote</title>
<path fill="none" stroke="black" d="M236.165,-499.756C243.806,-488.792 251.811,-477.778 259.057,-468.324"/>
<polygon fill="black" stroke="black" points="259.158,-468.194 259.716,-461.005 266.567,-458.754 266.009,-465.944 259.158,-468.194"/>
</g>
<!-- ndVote&#45;&gt;ndError -->
<g id="edge9" class="edge"><title>ndVote&#45;&gt;ndError</title>
<path fill="none" stroke="black" d="M277.152,-422.151C274.22,-414.282 270.447,-404.158 266.166,-392.669"/>
<polygon fill="black" stroke="black" points="266.107,-392.51 260.264,-388.285 261.917,-381.266 267.76,-385.491 266.107,-392.51"/>
</g>
<!-- ndVote&#45;&gt;ndState -->
<g id="edge10" class="edge"><title>ndVote&#45;&gt;ndState</title>
<path fill="none" stroke="black" d="M311.876,-425.223C328.22,-415.276 347.338,-400.326 356.617,-381 386.337,-319.098 386.306,-133.917 356.617,-72 350.328,-58.8846 339.037,-47.9883 327.551,-39.5556"/>
<polygon fill="black" stroke="black" points="319.222,-33.8542 330.015,-35.7894 323.348,-36.6785 327.474,-39.5028 327.474,-39.5028 327.474,-39.5028 323.348,-36.6785 324.932,-43.2162 319.222,-33.8542 319.222,-33.8542"/>
</g>
<!-- ndVote&#45;&gt;ndBallot -->
<g id="edge11" class="edge"><title>ndVote&#45;&gt;ndBallot</title>
<path fill="none" stroke="black" d="M276.557,-458.754C271.511,-467.3 264.44,-478.223 256.655,-489.641"/>
<polygon fill="black" stroke="black" points="256.486,-489.885 256.365,-497.095 249.663,-499.756 249.784,-492.546 256.486,-489.885"/>
</g>
<!-- ndVoteMsg -->
<g id="node9" class="node"><title>ndVoteMsg</title>
<text text-anchor="middle" x="445.617" y="-222.8" font-family="Times,serif" font-size="14.00">ndVoteMsg</text>
</g>
<!-- ndVote&#45;&gt;ndVoteMsg -->
<g id="edge12" class="edge"><title>ndVote&#45;&gt;ndVoteMsg</title>
<path fill="none" stroke="black" d="M311.894,-430.492C335.906,-421.499 369.708,-405.462 390.617,-381 421.469,-344.906 435.504,-290.213 441.514,-256.788"/>
<polygon fill="black" stroke="black" points="441.555,-256.536 438.583,-249.966 443.504,-244.695 446.476,-251.265 441.555,-256.536"/>
</g>
<!-- ndVoteMsg&#45;&gt;ndState -->
<g id="edge13" class="edge"><title>ndVoteMsg&#45;&gt;ndState</title>
<path fill="none" stroke="black" d="M443.556,-208.26C439.07,-177.518 425.829,-112.657 390.617,-72 374.293,-53.1515 349.58,-39.9661 328.806,-31.461"/>
<polygon fill="black" stroke="black" points="319.282,-27.7683 330.232,-27.1875 323.944,-29.5758 328.606,-31.3832 328.606,-31.3832 328.606,-31.3832 323.944,-29.5758 326.979,-35.5789 319.282,-27.7683 319.282,-27.7683"/>
</g>
</g>
</svg>
