<?xml version="1.0" encoding="UTF-8" standalone="no"?>
<!DOCTYPE svg PUBLIC "-//W3C//DTD SVG 1.1//EN"
 "http://www.w3.org/Graphics/SVG/1.1/DTD/svg11.dtd">
<!-- Generated by graphviz version 2.38.0 (20140413.2041)
 -->
<!-- Title: ml Pages: 1 -->
<svg width="1220pt" height="1874pt"
 viewBox="0.00 0.00 1220.00 1874.00" xmlns="http://www.w3.org/2000/svg" xmlns:xlink="http://www.w3.org/1999/xlink">
<g id="graph0" class="graph" transform="scale(1 1) rotate(0) translate(4 1870)">
<title>ml</title>
<polygon fill="white" stroke="none" points="-4,4 -4,-1870 1216,-1870 1216,4 -4,4"/>
<!-- ndError -->
<g id="node1" class="node"><title>ndError</title>
<g id="a_node1_0"><a xlink:href="https://github.com/maidsafe/brb_membership/blob/master/src/bad_crypto.rs#:~:text=enum%20Error" xlink:title="&lt;TABLE&gt;">
<polygon fill="yellow" stroke="none" points="474.5,-1824 474.5,-1861 605.5,-1861 605.5,-1824 474.5,-1824"/>
<polygon fill="none" stroke="black" points="474.5,-1824 474.5,-1861 605.5,-1861 605.5,-1824 474.5,-1824"/>
<text text-anchor="start" x="521.5" y="-1839.8" font-family="Arial" font-weight="bold" font-size="14.00">Error</text>
<polygon fill="white" stroke="none" points="474.5,-1787 474.5,-1824 605.5,-1824 605.5,-1787 474.5,-1787"/>
<polygon fill="none" stroke="black" points="474.5,-1787 474.5,-1824 605.5,-1824 605.5,-1787 474.5,-1787"/>
<text text-anchor="start" x="485.5" y="-1801.8" font-family="Arial" font-size="14.00">FailedVerification</text>
<polygon fill="none" stroke="black" points="473,-1786 473,-1862 606,-1862 606,-1786 473,-1786"/>
</a>
</g>
</g>
<!-- ndPublicKey -->
<g id="node2" class="node"><title>ndPublicKey</title>
<g id="a_node2_1"><a xlink:href="https://github.com/maidsafe/brb_membership/blob/master/src/bad_crypto.rs#:~:text=struct%20PublicKey" xlink:title="&lt;TABLE&gt;">
<polygon fill="lightblue" stroke="none" points="110.5,-1704 110.5,-1741 560.5,-1741 560.5,-1704 110.5,-1704"/>
<polygon fill="none" stroke="black" points="110.5,-1704 110.5,-1741 560.5,-1741 560.5,-1704 110.5,-1704"/>
<text text-anchor="start" x="300" y="-1719.8" font-family="Arial" font-weight="bold" font-size="14.00">PublicKey</text>
<polygon fill="white" stroke="none" points="110.5,-1667 110.5,-1704 560.5,-1704 560.5,-1667 110.5,-1667"/>
<polygon fill="none" stroke="black" points="110.5,-1667 110.5,-1704 560.5,-1704 560.5,-1667 110.5,-1667"/>
<text text-anchor="start" x="121.5" y="-1681.8" font-family="Arial" font-size="14.00">&#45; u64</text>
<polygon fill="white" stroke="none" points="110.5,-1585 110.5,-1667 560.5,-1667 560.5,-1585 110.5,-1585"/>
<polygon fill="none" stroke="black" points="110.5,-1585 110.5,-1667 560.5,-1667 560.5,-1585 110.5,-1585"/>
<text text-anchor="start" x="121.5" y="-1644.8" font-family="Arial" font-size="14.00">&#45; random(rng: impl Rng + CryptoRng) &#45;&gt; Self</text>
<text text-anchor="start" x="121.5" y="-1629.8" font-family="Arial" font-size="14.00">&#45; verify(&amp;self, msg: &amp;[u8], signature: &amp;Signature) &#45;&gt; Result&lt;(), Error&gt;</text>
<text text-anchor="start" x="121.5" y="-1614.8" font-family="Arial" font-size="14.00">&#45; fmt(&amp;self, f: &amp;mut core::fmt::Formatter&lt;&#39;_&gt;) &#45;&gt; core::fmt::Result</text>
<text text-anchor="start" x="121.5" y="-1599.8" font-family="Arial" font-size="14.00">&#45; fmt(&amp;self, f: &amp;mut core::fmt::Formatter&lt;&#39;_&gt;) &#45;&gt; core::fmt::Result</text>
<polygon fill="none" stroke="black" points="109.5,-1584 109.5,-1742 561.5,-1742 561.5,-1584 109.5,-1584"/>
</a>
</g>
</g>
<!-- ndError&#45;&gt;ndPublicKey -->
<g id="edge1" class="edge"><title>ndError&#45;&gt;ndPublicKey</title>
<path fill="none" stroke="black" d="M486.7,-1781.85C474.968,-1772.7 462.094,-1762.67 448.964,-1752.44"/>
<polygon fill="black" stroke="black" points="440.763,-1746.04 451.417,-1748.64 444.707,-1749.12 448.651,-1752.19 448.651,-1752.19 448.651,-1752.19 444.707,-1749.12 445.884,-1755.74 440.763,-1746.04 440.763,-1746.04"/>
</g>
<!-- ndSecretKey -->
<g id="node3" class="node"><title>ndSecretKey</title>
<g id="a_node3_2"><a xlink:href="https://github.com/maidsafe/brb_membership/blob/master/src/bad_crypto.rs#:~:text=struct%20SecretKey" xlink:title="&lt;TABLE&gt;">
<polygon fill="lightblue" stroke="none" points="9.5,-1501.5 9.5,-1538.5 338.5,-1538.5 338.5,-1501.5 9.5,-1501.5"/>
<polygon fill="none" stroke="black" points="9.5,-1501.5 9.5,-1538.5 338.5,-1538.5 338.5,-1501.5 9.5,-1501.5"/>
<text text-anchor="start" x="137.5" y="-1517.3" font-family="Arial" font-weight="bold" font-size="14.00">SecretKey</text>
<polygon fill="white" stroke="none" points="9.5,-1464.5 9.5,-1501.5 338.5,-1501.5 338.5,-1464.5 9.5,-1464.5"/>
<polygon fill="none" stroke="black" points="9.5,-1464.5 9.5,-1501.5 338.5,-1501.5 338.5,-1464.5 9.5,-1464.5"/>
<text text-anchor="start" x="20.5" y="-1479.3" font-family="Arial" font-size="14.00">&#45; u64</text>
<polygon fill="white" stroke="none" points="9.5,-1397.5 9.5,-1464.5 338.5,-1464.5 338.5,-1397.5 9.5,-1397.5"/>
<polygon fill="none" stroke="black" points="9.5,-1397.5 9.5,-1464.5 338.5,-1464.5 338.5,-1397.5 9.5,-1397.5"/>
<text text-anchor="start" x="20.5" y="-1442.3" font-family="Arial" font-size="14.00">&#45; random(mut rng: impl Rng + CryptoRng) &#45;&gt; Self</text>
<text text-anchor="start" x="20.5" y="-1427.3" font-family="Arial" font-size="14.00">&#45; public_key(&amp;self) &#45;&gt; PublicKey</text>
<text text-anchor="start" x="20.5" y="-1412.3" font-family="Arial" font-size="14.00">&#45; sign(&amp;self, msg: &amp;[u8]) &#45;&gt; Signature</text>
<polygon fill="none" stroke="black" points="8,-1397 8,-1540 339,-1540 339,-1397 8,-1397"/>
</a>
</g>
</g>
<!-- ndPublicKey&#45;&gt;ndSecretKey -->
<g id="edge2" class="edge"><title>ndPublicKey&#45;&gt;ndSecretKey</title>
<path fill="none" stroke="black" d="M266.328,-1579.8C258.534,-1570.54 250.591,-1561.11 242.796,-1551.84"/>
<polygon fill="black" stroke="black" points="236.289,-1544.11 246.171,-1548.86 239.509,-1547.94 242.728,-1551.76 242.728,-1551.76 242.728,-1551.76 239.509,-1547.94 239.285,-1554.66 236.289,-1544.11 236.289,-1544.11"/>
</g>
<!-- ndState -->
<g id="node5" class="node"><title>ndState</title>
<g id="a_node5_3"><a xlink:href="https://github.com/maidsafe/brb_membership/blob/master/src/brb_membership.rs#:~:text=struct%20State" xlink:title="&lt;TABLE&gt;">
<polygon fill="lightblue" stroke="none" points="274.5,-528.5 274.5,-565.5 924.5,-565.5 924.5,-528.5 274.5,-528.5"/>
<polygon fill="none" stroke="black" points="274.5,-528.5 274.5,-565.5 924.5,-565.5 924.5,-528.5 274.5,-528.5"/>
<text text-anchor="start" x="581.5" y="-544.3" font-family="Arial" font-weight="bold" font-size="14.00">State</text>
<polygon fill="white" stroke="none" points="274.5,-401.5 274.5,-528.5 924.5,-528.5 924.5,-401.5 274.5,-401.5"/>
<polygon fill="none" stroke="black" points="274.5,-401.5 274.5,-528.5 924.5,-528.5 924.5,-401.5 274.5,-401.5"/>
<text text-anchor="start" x="285.5" y="-506.3" font-family="Arial" font-size="14.00">+ secret_key: SecretKey</text>
<text text-anchor="start" x="285.5" y="-491.3" font-family="Arial" font-size="14.00">+ gen: Generation</text>
<text text-anchor="start" x="285.5" y="-476.3" font-family="Arial" font-size="14.00">+ pending_gen: Generation</text>
<text text-anchor="start" x="285.5" y="-461.3" font-family="Arial" font-size="14.00">+ forced_reconfigs: BTreeMap&lt;Generation, BTreeSet&lt;Reconfig&gt;&gt;</text>
<text text-anchor="start" x="285.5" y="-446.3" font-family="Arial" font-size="14.00">+ history: BTreeMap&lt;Generation, SignedVote&gt;</text>
<text text-anchor="start" x="285.5" y="-431.3" font-family="Arial" font-size="14.00">+ votes: BTreeMap&lt;PublicKey, SignedVote&gt;</text>
<text text-anchor="start" x="285.5" y="-416.3" font-family="Arial" font-size="14.00">+ faulty: bool</text>
<polygon fill="white" stroke="none" points="274.5,-4.5 274.5,-401.5 924.5,-401.5 924.5,-4.5 274.5,-4.5"/>
<polygon fill="none" stroke="black" points="274.5,-4.5 274.5,-401.5 924.5,-401.5 924.5,-4.5 274.5,-4.5"/>
<text text-anchor="start" x="285.5" y="-379.3" font-family="Arial" font-size="14.00">&#45; from(secret_key: SecretKey) &#45;&gt; State</text>
<text text-anchor="start" x="285.5" y="-364.3" font-family="Arial" font-size="14.00">&#45; random(mut rng: impl Rng + CryptoRng) &#45;&gt; State</text>
<text text-anchor="start" x="285.5" y="-349.3" font-family="Arial" font-size="14.00">&#45; public_key(&amp;self) &#45;&gt; PublicKey</text>
<text text-anchor="start" x="285.5" y="-334.3" font-family="Arial" font-size="14.00">&#45; force_join(&amp;mut self, actor: PublicKey)</text>
<text text-anchor="start" x="285.5" y="-319.3" font-family="Arial" font-size="14.00">&#45; force_leave(&amp;mut self, actor: PublicKey)</text>
<text text-anchor="start" x="285.5" y="-304.3" font-family="Arial" font-size="14.00">&#45; members(&amp;self, gen: Generation) &#45;&gt; Result&lt;BTreeSet&lt;PublicKey&gt;&gt;</text>
<text text-anchor="start" x="285.5" y="-289.3" font-family="Arial" font-size="14.00">&#45; propose(&amp;mut self, reconfig: Reconfig) &#45;&gt; Result&lt;Vec&lt;VoteMsg&gt;&gt;</text>
<text text-anchor="start" x="285.5" y="-274.3" font-family="Arial" font-size="14.00">&#45; anti_entropy(&amp;self, from_gen: Generation, actor: PublicKey) &#45;&gt; Vec&lt;VoteMsg&gt;</text>
<text text-anchor="start" x="285.5" y="-259.3" font-family="Arial" font-size="14.00">&#45; handle_signed_vote(&amp;mut self, signed_vote: SignedVote) &#45;&gt; Result&lt;Vec&lt;VoteMsg&gt;&gt;</text>
<text text-anchor="start" x="285.5" y="-244.3" font-family="Arial" font-size="14.00">&#45; sign_vote(&amp;self, vote: Vote) &#45;&gt; Result&lt;SignedVote&gt;</text>
<text text-anchor="start" x="285.5" y="-229.3" font-family="Arial" font-size="14.00">&#45; cast_vote(&amp;mut self, signed_vote: SignedVote) &#45;&gt; Result&lt;Vec&lt;VoteMsg&gt;&gt;</text>
<text text-anchor="start" x="285.5" y="-214.3" font-family="Arial" font-size="14.00">&#45; log_signed_vote(&amp;mut self, signed_vote: &amp;SignedVote)</text>
<text text-anchor="start" x="285.5" y="-199.3" font-family="Arial" font-size="14.00">&#45; count_votes(&amp;self, votes: &amp;BTreeSet&lt;SignedVote&gt;) &#45;&gt; BTreeMap&lt;BTreeSet&lt;Reconfig&gt;, usize&gt;</text>
<text text-anchor="start" x="285.5" y="-184.3" font-family="Arial" font-size="14.00">&#45; is_split_vote(&amp;self, votes: &amp;BTreeSet&lt;SignedVote&gt;) &#45;&gt; Result&lt;bool&gt;</text>
<text text-anchor="start" x="285.5" y="-169.3" font-family="Arial" font-size="14.00">&#45; is_super_majority(&amp;self, votes: &amp;BTreeSet&lt;SignedVote&gt;) &#45;&gt; Result&lt;bool&gt;</text>
<text text-anchor="start" x="285.5" y="-154.3" font-family="Arial" font-size="14.00">&#45; is_super_majority_over_super_majorities(&amp;self, votes: &amp;BTreeSet&lt;SignedVote&gt;) &#45;&gt; Result&lt;bool&gt;</text>
<text text-anchor="start" x="285.5" y="-139.3" font-family="Arial" font-size="14.00">&#45; resolve_votes(&amp;self, votes: &amp;BTreeSet&lt;SignedVote&gt;) &#45;&gt; BTreeSet&lt;Reconfig&gt;</text>
<text text-anchor="start" x="285.5" y="-124.3" font-family="Arial" font-size="14.00">&#45; validate_is_member(&amp;self, public_key: PublicKey) &#45;&gt; Result&lt;()&gt;</text>
<text text-anchor="start" x="285.5" y="-109.3" font-family="Arial" font-size="14.00">&#45; validate_vote_supersedes_existing_vote(&amp;self, signed_vote: &amp;SignedVote) &#45;&gt; Result&lt;()&gt;</text>
<text text-anchor="start" x="285.5" y="-94.3" font-family="Arial" font-size="14.00">&#45; validate_voters_have_not_changed_proposals(&amp;self, signed_vote: &amp;SignedVote) &#45;&gt; Result&lt;()&gt;</text>
<text text-anchor="start" x="285.5" y="-79.3" font-family="Arial" font-size="14.00">&#45; validate_signed_vote(&amp;self, signed_vote: &amp;SignedVote) &#45;&gt; Result&lt;()&gt;</text>
<text text-anchor="start" x="285.5" y="-64.3" font-family="Arial" font-size="14.00">&#45; validate_vote(&amp;self, vote: &amp;Vote) &#45;&gt; Result&lt;()&gt;</text>
<text text-anchor="start" x="285.5" y="-49.3" font-family="Arial" font-size="14.00">&#45; validate_reconfig(&amp;self, reconfig: Reconfig) &#45;&gt; Result&lt;()&gt;</text>
<text text-anchor="start" x="285.5" y="-34.3" font-family="Arial" font-size="14.00">&#45; broadcast(&amp;self, signed_vote: SignedVote) &#45;&gt; Result&lt;Vec&lt;VoteMsg&gt;&gt;</text>
<text text-anchor="start" x="285.5" y="-19.3" font-family="Arial" font-size="14.00">&#45; send(&amp;self, vote: SignedVote, dest: PublicKey) &#45;&gt; VoteMsg</text>
<polygon fill="none" stroke="black" points="273.5,-4 273.5,-567 925.5,-567 925.5,-4 273.5,-4"/>
</a>
</g>
</g>
<!-- ndPublicKey&#45;&gt;ndState -->
<g id="edge3" class="edge"><title>ndPublicKey&#45;&gt;ndState</title>
<path fill="none" stroke="black" stroke-dasharray="5,2" d="M350.464,-1579.94C352.35,-1567.92 354.104,-1555.66 355.5,-1544 369.753,-1425 374.5,-1394.85 374.5,-1275 374.5,-1275 374.5,-1275 374.5,-846.5 374.5,-757.131 399.478,-665.148 432.789,-582.213"/>
<polygon fill="black" stroke="black" points="432.791,-582.209 431.354,-575.142 437.325,-571.099 438.761,-578.165 432.791,-582.209"/>
</g>
<!-- ndReconfig -->
<g id="node6" class="node"><title>ndReconfig</title>
<g id="a_node6_4"><a xlink:href="https://github.com/maidsafe/brb_membership/blob/master/src/brb_membership.rs#:~:text=enum%20Reconfig" xlink:title="&lt;TABLE&gt;">
<polygon fill="yellow" stroke="none" points="794.5,-1501.5 794.5,-1538.5 1203.5,-1538.5 1203.5,-1501.5 794.5,-1501.5"/>
<polygon fill="none" stroke="black" points="794.5,-1501.5 794.5,-1538.5 1203.5,-1538.5 1203.5,-1501.5 794.5,-1501.5"/>
<text text-anchor="start" x="968" y="-1517.3" font-family="Arial" font-weight="bold" font-size="14.00">Reconfig</text>
<polygon fill="white" stroke="none" points="794.5,-1449.5 794.5,-1501.5 1203.5,-1501.5 1203.5,-1449.5 794.5,-1449.5"/>
<polygon fill="none" stroke="black" points="794.5,-1449.5 794.5,-1501.5 1203.5,-1501.5 1203.5,-1449.5 794.5,-1449.5"/>
<text text-anchor="start" x="805.5" y="-1479.3" font-family="Arial" font-size="14.00">Join(PublicKey)</text>
<text text-anchor="start" x="805.5" y="-1464.3" font-family="Arial" font-size="14.00">Leave(PublicKey)</text>
<polygon fill="white" stroke="none" points="794.5,-1397.5 794.5,-1449.5 1203.5,-1449.5 1203.5,-1397.5 794.5,-1397.5"/>
<polygon fill="none" stroke="black" points="794.5,-1397.5 794.5,-1449.5 1203.5,-1449.5 1203.5,-1397.5 794.5,-1397.5"/>
<text text-anchor="start" x="805.5" y="-1427.3" font-family="Arial" font-size="14.00">&#45; fmt(&amp;self, f: &amp;mut std::fmt::Formatter&lt;&#39;_&gt;) &#45;&gt; std::fmt::Result</text>
<text text-anchor="start" x="805.5" y="-1412.3" font-family="Arial" font-size="14.00">&#45; apply(self, members: &amp;mut BTreeSet&lt;PublicKey&gt;)</text>
<polygon fill="none" stroke="black" points="793,-1397 793,-1540 1204,-1540 1204,-1397 793,-1397"/>
</a>
</g>
</g>
<!-- ndPublicKey&#45;&gt;ndReconfig -->
<g id="edge4" class="edge"><title>ndPublicKey&#45;&gt;ndReconfig</title>
<path fill="none" stroke="black" d="M569.715,-1594C635.808,-1574.81 707.561,-1553.97 773.123,-1534.94"/>
<polygon fill="black" stroke="black" points="773.338,-1534.88 777.985,-1529.36 784.862,-1531.53 780.216,-1537.04 773.338,-1534.88"/>
</g>
<!-- ndSignedVote -->
<g id="node9" class="node"><title>ndSignedVote</title>
<g id="a_node9_5"><a xlink:href="https://github.com/maidsafe/brb_membership/blob/master/src/brb_membership.rs#:~:text=struct%20SignedVote" xlink:title="&lt;TABLE&gt;">
<polygon fill="lightblue" stroke="none" points="450.5,-910.5 450.5,-947.5 859.5,-947.5 859.5,-910.5 450.5,-910.5"/>
<polygon fill="none" stroke="black" points="450.5,-910.5 450.5,-947.5 859.5,-947.5 859.5,-910.5 450.5,-910.5"/>
<text text-anchor="start" x="615" y="-926.3" font-family="Arial" font-weight="bold" font-size="14.00">SignedVote</text>
<polygon fill="white" stroke="none" points="450.5,-843.5 450.5,-910.5 859.5,-910.5 859.5,-843.5 450.5,-843.5"/>
<polygon fill="none" stroke="black" points="450.5,-843.5 450.5,-910.5 859.5,-910.5 859.5,-843.5 450.5,-843.5"/>
<text text-anchor="start" x="461.5" y="-888.3" font-family="Arial" font-size="14.00">+ vote: Vote</text>
<text text-anchor="start" x="461.5" y="-873.3" font-family="Arial" font-size="14.00">+ voter: PublicKey</text>
<text text-anchor="start" x="461.5" y="-858.3" font-family="Arial" font-size="14.00">+ sig: Signature</text>
<polygon fill="white" stroke="none" points="450.5,-746.5 450.5,-843.5 859.5,-843.5 859.5,-746.5 450.5,-746.5"/>
<polygon fill="none" stroke="black" points="450.5,-746.5 450.5,-843.5 859.5,-843.5 859.5,-746.5 450.5,-746.5"/>
<text text-anchor="start" x="461.5" y="-821.3" font-family="Arial" font-size="14.00">&#45; fmt(&amp;self, f: &amp;mut std::fmt::Formatter&lt;&#39;_&gt;) &#45;&gt; std::fmt::Result</text>
<text text-anchor="start" x="461.5" y="-806.3" font-family="Arial" font-size="14.00">&#45; validate_signature(&amp;self) &#45;&gt; Result&lt;()&gt;</text>
<text text-anchor="start" x="461.5" y="-791.3" font-family="Arial" font-size="14.00">&#45; unpack_votes(&amp;self) &#45;&gt; BTreeSet&lt;&amp;Self&gt;</text>
<text text-anchor="start" x="461.5" y="-776.3" font-family="Arial" font-size="14.00">&#45; reconfigs(&amp;self) &#45;&gt; BTreeSet&lt;(PublicKey, Reconfig)&gt;</text>
<text text-anchor="start" x="461.5" y="-761.3" font-family="Arial" font-size="14.00">&#45; supersedes(&amp;self, signed_vote: &amp;SignedVote) &#45;&gt; bool</text>
<polygon fill="none" stroke="black" points="449,-746 449,-949 860,-949 860,-746 449,-746"/>
</a>
</g>
</g>
<!-- ndPublicKey&#45;&gt;ndSignedVote -->
<g id="edge5" class="edge"><title>ndPublicKey&#45;&gt;ndSignedVote</title>
<path fill="none" stroke="black" d="M405.013,-1579.85C412.965,-1568.25 420.394,-1556.13 426.5,-1544 541.75,-1315.02 490.373,-1227.83 583.5,-989 586.64,-980.947 590.088,-972.74 593.719,-964.54"/>
<polygon fill="black" stroke="black" points="593.824,-964.308 592.655,-957.192 598.773,-953.376 599.943,-960.492 593.824,-964.308"/>
</g>
<!-- ndVoteMsg -->
<g id="node10" class="node"><title>ndVoteMsg</title>
<g id="a_node10_6"><a xlink:href="https://github.com/maidsafe/brb_membership/blob/master/src/brb_membership.rs#:~:text=struct%20VoteMsg" xlink:title="&lt;TABLE&gt;">
<polygon fill="lightblue" stroke="none" points="474.5,-663.5 474.5,-700.5 617.5,-700.5 617.5,-663.5 474.5,-663.5"/>
<polygon fill="none" stroke="black" points="474.5,-663.5 474.5,-700.5 617.5,-700.5 617.5,-663.5 474.5,-663.5"/>
<text text-anchor="start" x="515.5" y="-679.3" font-family="Arial" font-weight="bold" font-size="14.00">VoteMsg</text>
<polygon fill="white" stroke="none" points="474.5,-611.5 474.5,-663.5 617.5,-663.5 617.5,-611.5 474.5,-611.5"/>
<polygon fill="none" stroke="black" points="474.5,-611.5 474.5,-663.5 617.5,-663.5 617.5,-611.5 474.5,-611.5"/>
<text text-anchor="start" x="485.5" y="-641.3" font-family="Arial" font-size="14.00">+ vote: SignedVote</text>
<text text-anchor="start" x="485.5" y="-626.3" font-family="Arial" font-size="14.00">+ dest: PublicKey</text>
<polygon fill="none" stroke="black" points="473,-611 473,-702 618,-702 618,-611 473,-611"/>
</a>
</g>
</g>
<!-- ndPublicKey&#45;&gt;ndVoteMsg -->
<g id="edge6" class="edge"><title>ndPublicKey&#45;&gt;ndVoteMsg</title>
<path fill="none" stroke="black" d="M376.566,-1579.78C381.227,-1567.99 385.406,-1555.84 388.5,-1544 418.843,-1427.87 412.5,-1395.03 412.5,-1275 412.5,-1275 412.5,-1275 412.5,-1071 412.5,-924.534 361.884,-870.864 431.5,-742 437.686,-730.549 446.173,-720.226 455.749,-711.053"/>
<polygon fill="black" stroke="black" points="455.866,-710.948 457.675,-703.968 464.814,-702.952 463.006,-709.933 455.866,-710.948"/>
</g>
<!-- ndSecretKey&#45;&gt;ndState -->
<g id="edge7" class="edge"><title>ndSecretKey&#45;&gt;ndState</title>
<path fill="none" stroke="black" stroke-dasharray="5,2" d="M198.548,-1392.83C222.663,-1314.2 255.5,-1186.32 255.5,-1073 255.5,-1073 255.5,-1073 255.5,-846.5 255.5,-752.945 290.789,-661.873 338.761,-581.289"/>
<polygon fill="black" stroke="black" points="338.77,-581.274 338.455,-574.07 344.984,-571.008 345.299,-578.212 338.77,-581.274"/>
</g>
<!-- ndSignature -->
<g id="node4" class="node"><title>ndSignature</title>
<g id="a_node4_7"><a xlink:href="https://github.com/maidsafe/brb_membership/blob/master/src/bad_crypto.rs#:~:text=struct%20Signature" xlink:title="&lt;TABLE&gt;">
<polygon fill="lightblue" stroke="none" points="290.5,-1824 290.5,-1861 380.5,-1861 380.5,-1824 290.5,-1824"/>
<polygon fill="none" stroke="black" points="290.5,-1824 290.5,-1861 380.5,-1861 380.5,-1824 290.5,-1824"/>
<text text-anchor="start" x="301.5" y="-1839.8" font-family="Arial" font-weight="bold" font-size="14.00">Signature</text>
<polygon fill="white" stroke="none" points="290.5,-1787 290.5,-1824 380.5,-1824 380.5,-1787 290.5,-1787"/>
<polygon fill="none" stroke="black" points="290.5,-1787 290.5,-1824 380.5,-1824 380.5,-1787 290.5,-1787"/>
<text text-anchor="start" x="301.5" y="-1801.8" font-family="Arial" font-size="14.00">&#45; u64</text>
<polygon fill="none" stroke="black" points="289.5,-1786 289.5,-1862 381.5,-1862 381.5,-1786 289.5,-1786"/>
</a>
</g>
</g>
<!-- ndSignature&#45;&gt;ndPublicKey -->
<g id="edge8" class="edge"><title>ndSignature&#45;&gt;ndPublicKey</title>
<path fill="none" stroke="black" stroke-dasharray="5,2" d="M335.5,-1781.64C335.5,-1773.68 335.5,-1765.06 335.5,-1756.22"/>
<polygon fill="black" stroke="black" points="335.5,-1746.18 340,-1756.18 335.5,-1751.18 335.5,-1756.18 335.5,-1756.18 335.5,-1756.18 335.5,-1751.18 331,-1756.18 335.5,-1746.18 335.5,-1746.18"/>
</g>
<!-- ndSignature&#45;&gt;ndSecretKey -->
<g id="edge9" class="edge"><title>ndSignature&#45;&gt;ndSecretKey</title>
<path fill="none" stroke="black" d="M281.305,-1823.05C223.846,-1819.83 135.57,-1804.83 92.5,-1746 48.9171,-1686.47 69.5529,-1650.12 92.5,-1580 95.524,-1570.76 99.6474,-1561.65 104.442,-1552.87"/>
<polygon fill="black" stroke="black" points="109.444,-1544.21 108.341,-1555.12 106.944,-1548.54 104.444,-1552.87 104.444,-1552.87 104.444,-1552.87 106.944,-1548.54 100.547,-1550.62 109.444,-1544.21 109.444,-1544.21"/>
</g>
<!-- ndSignature&#45;&gt;ndSignedVote -->
<g id="edge10" class="edge"><title>ndSignature&#45;&gt;ndSignedVote</title>
<path fill="none" stroke="black" d="M389.691,-1803.91C410.236,-1796.83 433.884,-1788.85 455.5,-1782 509.797,-1764.79 539.896,-1787.88 578.5,-1746 663.538,-1653.74 635.5,-1594.97 635.5,-1469.5 635.5,-1469.5 635.5,-1469.5 635.5,-1273 635.5,-1168.83 641.281,-1050.42 646.465,-965.179"/>
<polygon fill="black" stroke="black" points="646.471,-965.09 642.847,-958.855 647.208,-953.113 650.832,-959.347 646.471,-965.09"/>
</g>
<!-- ndReconfig&#45;&gt;ndState -->
<g id="edge11" class="edge"><title>ndReconfig&#45;&gt;ndState</title>
<path fill="none" stroke="black" stroke-dasharray="5,2" d="M1100.21,-1392.86C1110.89,-1381.78 1120.68,-1369.75 1128.5,-1357 1196.26,-1246.42 1195.5,-1202.69 1195.5,-1073 1195.5,-1073 1195.5,-1073 1195.5,-846.5 1195.5,-683.572 1075.74,-554.188 943.595,-461.014"/>
<polygon fill="black" stroke="black" points="943.498,-460.946 936.289,-460.799 933.652,-454.087 940.862,-454.234 943.498,-460.946"/>
</g>
<!-- ndBallot -->
<g id="node7" class="node"><title>ndBallot</title>
<g id="a_node7_8"><a xlink:href="https://github.com/maidsafe/brb_membership/blob/master/src/brb_membership.rs#:~:text=enum%20Ballot" xlink:title="&lt;TABLE&gt;">
<polygon fill="yellow" stroke="none" points="673.5,-1315 673.5,-1352 1082.5,-1352 1082.5,-1315 673.5,-1315"/>
<polygon fill="none" stroke="black" points="673.5,-1315 673.5,-1352 1082.5,-1352 1082.5,-1315 673.5,-1315"/>
<text text-anchor="start" x="858" y="-1330.8" font-family="Arial" font-weight="bold" font-size="14.00">Ballot</text>
<polygon fill="white" stroke="none" points="673.5,-1248 673.5,-1315 1082.5,-1315 1082.5,-1248 673.5,-1248"/>
<polygon fill="none" stroke="black" points="673.5,-1248 673.5,-1315 1082.5,-1315 1082.5,-1248 673.5,-1248"/>
<text text-anchor="start" x="684.5" y="-1292.8" font-family="Arial" font-size="14.00">Propose(Reconfig)</text>
<text text-anchor="start" x="684.5" y="-1277.8" font-family="Arial" font-size="14.00">Merge(BTreeSet&lt;SignedVote&gt;)</text>
<text text-anchor="start" x="684.5" y="-1262.8" font-family="Arial" font-size="14.00">SuperMajority(BTreeSet&lt;SignedVote&gt;)</text>
<polygon fill="white" stroke="none" points="673.5,-1196 673.5,-1248 1082.5,-1248 1082.5,-1196 673.5,-1196"/>
<polygon fill="none" stroke="black" points="673.5,-1196 673.5,-1248 1082.5,-1248 1082.5,-1196 673.5,-1196"/>
<text text-anchor="start" x="684.5" y="-1225.8" font-family="Arial" font-size="14.00">&#45; fmt(&amp;self, f: &amp;mut std::fmt::Formatter&lt;&#39;_&gt;) &#45;&gt; std::fmt::Result</text>
<text text-anchor="start" x="684.5" y="-1210.8" font-family="Arial" font-size="14.00">&#45; simplify(&amp;self) &#45;&gt; Self</text>
<polygon fill="none" stroke="black" points="672,-1195 672,-1353 1083,-1353 1083,-1195 672,-1195"/>
</a>
</g>
</g>
<!-- ndReconfig&#45;&gt;ndBallot -->
<g id="edge12" class="edge"><title>ndReconfig&#45;&gt;ndBallot</title>
<path fill="none" stroke="black" d="M951.545,-1392.8C946.303,-1384.46 940.917,-1375.89 935.558,-1367.36"/>
<polygon fill="black" stroke="black" points="935.43,-1367.16 928.851,-1364.21 929.044,-1357 935.624,-1359.95 935.43,-1367.16"/>
</g>
<!-- ndReconfig&#45;&gt;ndSignedVote -->
<g id="edge13" class="edge"><title>ndReconfig&#45;&gt;ndSignedVote</title>
<path fill="none" stroke="black" d="M1079.37,-1392.83C1087.54,-1381.64 1094.61,-1369.6 1099.5,-1357 1126.2,-1288.22 1149.07,-1245.64 1099.5,-1191 1044.14,-1129.98 792.847,-1208.86 730.5,-1155 729.531,-1154.16 703.779,-1049.79 682.517,-963.086"/>
<polygon fill="black" stroke="black" points="680.081,-953.147 686.833,-961.788 681.271,-958.003 682.462,-962.86 682.462,-962.86 682.462,-962.86 681.271,-958.003 678.091,-963.931 680.081,-953.147 680.081,-953.147"/>
</g>
<!-- ndVote -->
<g id="node8" class="node"><title>ndVote</title>
<g id="a_node8_9"><a xlink:href="https://github.com/maidsafe/brb_membership/blob/master/src/brb_membership.rs#:~:text=struct%20Vote" xlink:title="&lt;TABLE&gt;">
<polygon fill="lightblue" stroke="none" points="749.5,-1113 749.5,-1150 1158.5,-1150 1158.5,-1113 749.5,-1113"/>
<polygon fill="none" stroke="black" points="749.5,-1113 749.5,-1150 1158.5,-1150 1158.5,-1113 749.5,-1113"/>
<text text-anchor="start" x="938.5" y="-1128.8" font-family="Arial" font-weight="bold" font-size="14.00">Vote</text>
<polygon fill="white" stroke="none" points="749.5,-1061 749.5,-1113 1158.5,-1113 1158.5,-1061 749.5,-1061"/>
<polygon fill="none" stroke="black" points="749.5,-1061 749.5,-1113 1158.5,-1113 1158.5,-1061 749.5,-1061"/>
<text text-anchor="start" x="760.5" y="-1090.8" font-family="Arial" font-size="14.00">+ gen: Generation</text>
<text text-anchor="start" x="760.5" y="-1075.8" font-family="Arial" font-size="14.00">+ ballot: Ballot</text>
<polygon fill="white" stroke="none" points="749.5,-994 749.5,-1061 1158.5,-1061 1158.5,-994 749.5,-994"/>
<polygon fill="none" stroke="black" points="749.5,-994 749.5,-1061 1158.5,-1061 1158.5,-994 749.5,-994"/>
<text text-anchor="start" x="760.5" y="-1038.8" font-family="Arial" font-size="14.00">&#45; fmt(&amp;self, f: &amp;mut std::fmt::Formatter&lt;&#39;_&gt;) &#45;&gt; std::fmt::Result</text>
<text text-anchor="start" x="760.5" y="-1023.8" font-family="Arial" font-size="14.00">&#45; to_bytes(&amp;self) &#45;&gt; Result&lt;Vec&lt;u8&gt;&gt;</text>
<text text-anchor="start" x="760.5" y="-1008.8" font-family="Arial" font-size="14.00">&#45; is_super_majority_ballot(&amp;self) &#45;&gt; bool</text>
<polygon fill="none" stroke="black" points="748,-993 748,-1151 1159,-1151 1159,-993 748,-993"/>
</a>
</g>
</g>
<!-- ndBallot&#45;&gt;ndVote -->
<g id="edge14" class="edge"><title>ndBallot&#45;&gt;ndVote</title>
<path fill="none" stroke="black" d="M908.741,-1190.79C911.774,-1182.8 914.867,-1174.67 917.938,-1166.58"/>
<polygon fill="black" stroke="black" points="917.995,-1166.43 916.387,-1159.41 922.257,-1155.22 923.865,-1162.25 917.995,-1166.43"/>
</g>
<!-- ndVote&#45;&gt;ndState -->
<g id="edge15" class="edge"><title>ndVote&#45;&gt;ndState</title>
<path fill="none" stroke="black" stroke-dasharray="5,2" d="M941.669,-988.678C930.168,-920.754 909.525,-822.768 876.5,-742 854.31,-687.73 826.14,-632.426 796.309,-579.924"/>
<polygon fill="black" stroke="black" points="791.312,-571.182 800.182,-577.631 793.793,-575.523 796.275,-579.864 796.275,-579.864 796.275,-579.864 793.793,-575.523 792.368,-582.097 791.312,-571.182 791.312,-571.182"/>
</g>
<!-- ndVote&#45;&gt;ndSignedVote -->
<g id="edge16" class="edge"><title>ndVote&#45;&gt;ndSignedVote</title>
<path fill="none" stroke="black" stroke-dasharray="5,2" d="M843.013,-988.781C830.552,-979.509 817.702,-969.946 804.844,-960.378"/>
<polygon fill="black" stroke="black" points="804.643,-960.228 797.441,-959.855 795.016,-953.064 802.217,-953.437 804.643,-960.228"/>
</g>
<!-- ndSignedVote&#45;&gt;ndError -->
<g id="edge17" class="edge"><title>ndSignedVote&#45;&gt;ndError</title>
<path fill="none" stroke="black" d="M628.122,-953.275C625.628,-965.274 623.347,-977.369 621.5,-989 601.631,-1114.1 597.5,-1146.33 597.5,-1273 597.5,-1469.5 597.5,-1469.5 597.5,-1469.5 597.5,-1592.68 611.203,-1627.24 578.5,-1746 576.202,-1754.34 572.957,-1762.84 569.308,-1771"/>
<polygon fill="black" stroke="black" points="569.292,-1771.03 570.324,-1778.17 564.133,-1781.87 563.101,-1774.73 569.292,-1771.03"/>
</g>
<!-- ndSignedVote&#45;&gt;ndState -->
<g id="edge18" class="edge"><title>ndSignedVote&#45;&gt;ndState</title>
<path fill="none" stroke="black" stroke-dasharray="5,2" d="M646.34,-741.821C642.919,-699.882 638.751,-651.128 634.5,-607 633.69,-598.59 632.854,-590.058 631.997,-581.448"/>
<polygon fill="black" stroke="black" points="630.983,-571.306 636.456,-580.808 631.48,-576.281 631.978,-581.256 631.978,-581.256 631.978,-581.256 631.48,-576.281 627.5,-581.704 630.983,-571.306 630.983,-571.306"/>
</g>
<!-- ndSignedVote&#45;&gt;ndBallot -->
<g id="edge19" class="edge"><title>ndSignedVote&#45;&gt;ndBallot</title>
<path fill="none" stroke="black" d="M648.277,-953.121C649.359,-1016.08 659.671,-1095.32 697.5,-1155 703.662,-1164.72 710.946,-1173.81 718.995,-1182.28"/>
<polygon fill="black" stroke="black" points="719.135,-1182.42 726.21,-1183.82 727.643,-1190.88 720.568,-1189.49 719.135,-1182.42"/>
</g>
<!-- ndSignedVote&#45;&gt;ndVoteMsg -->
<g id="edge20" class="edge"><title>ndSignedVote&#45;&gt;ndVoteMsg</title>
<path fill="none" stroke="black" d="M594.103,-741.774C589.116,-733.128 584.197,-724.598 579.513,-716.477"/>
<polygon fill="black" stroke="black" points="579.502,-716.457 573.039,-713.258 573.507,-706.062 579.969,-709.261 579.502,-716.457"/>
</g>
<!-- ndVoteMsg&#45;&gt;ndState -->
<g id="edge21" class="edge"><title>ndVoteMsg&#45;&gt;ndState</title>
<path fill="none" stroke="black" d="M552.615,-606.88C553.761,-599.048 555.015,-590.482 556.352,-581.345"/>
<polygon fill="black" stroke="black" points="557.834,-571.215 560.839,-581.761 557.11,-576.162 556.386,-581.109 556.386,-581.109 556.386,-581.109 557.11,-576.162 551.934,-580.458 557.834,-571.215 557.834,-571.215"/>
</g>
</g>
</svg>
