<?xml version="1.0" encoding="UTF-8" standalone="no"?>
<!DOCTYPE svg PUBLIC "-//W3C//DTD SVG 1.1//EN"
 "http://www.w3.org/Graphics/SVG/1.1/DTD/svg11.dtd">
<!-- Generated by graphviz version 2.38.0 (20140413.2041)
 -->
<!-- Title: ml Pages: 1 -->
<svg width="756pt" height="234pt"
 viewBox="0.00 0.00 756.00 234.00" xmlns="http://www.w3.org/2000/svg" xmlns:xlink="http://www.w3.org/1999/xlink">
<g id="graph0" class="graph" transform="scale(1 1) rotate(0) translate(4 230)">
<title>ml</title>
<polygon fill="white" stroke="none" points="-4,4 -4,-230 752,-230 752,4 -4,4"/>
<!-- ndBRBTree -->
<g id="node1" class="node"><title>ndBRBTree</title>
<g id="a_node1_0"><a xlink:href="https://github.com/maidsafe/brb_dt_tree/blob/master/src/brb_tree.rs#:~:text=struct%20BRBTree" xlink:title="&lt;TABLE&gt;">
<polygon fill="lightblue" stroke="none" points="9,-184 9,-221 521,-221 521,-184 9,-184"/>
<polygon fill="none" stroke="black" points="9,-184 9,-221 521,-221 521,-184 9,-184"/>
<text text-anchor="start" x="233.5" y="-199.8" font-family="Arial" font-weight="bold" font-size="14.00">BRBTree</text>
<polygon fill="white" stroke="none" points="9,-132 9,-184 521,-184 521,-132 9,-132"/>
<polygon fill="none" stroke="black" points="9,-132 9,-184 521,-184 521,-132 9,-132"/>
<text text-anchor="start" x="20" y="-161.8" font-family="Arial" font-size="14.00">&#45; actor: A</text>
<text text-anchor="start" x="20" y="-146.8" font-family="Arial" font-size="14.00">&#45; treereplica: TreeReplica&lt;ID, M, A&gt;</text>
<polygon fill="white" stroke="none" points="9,-5 9,-132 521,-132 521,-5 9,-5"/>
<polygon fill="none" stroke="black" points="9,-5 9,-132 521,-132 521,-5 9,-5"/>
<text text-anchor="start" x="20" y="-109.8" font-family="Arial" font-size="14.00">&#45; opmove(&amp;self, parent: ID, meta: M, child: ID) &#45;&gt; OpMove&lt;ID, M, A&gt;</text>
<text text-anchor="start" x="20" y="-94.8" font-family="Arial" font-size="14.00">&#45; actor(&amp;self) &#45;&gt; &amp;A</text>
<text text-anchor="start" x="20" y="-79.8" font-family="Arial" font-size="14.00">&#45; treestate(&amp;self) &#45;&gt; &amp;State&lt;ID, M, A&gt;</text>
<text text-anchor="start" x="20" y="-64.8" font-family="Arial" font-size="14.00">&#45; treereplica(&amp;self) &#45;&gt; &amp;TreeReplica&lt;ID, M, A&gt;</text>
<text text-anchor="start" x="20" y="-49.8" font-family="Arial" font-size="14.00">&#45; new(actor: A) &#45;&gt; Self</text>
<text text-anchor="start" x="20" y="-34.8" font-family="Arial" font-size="14.00">&#45; validate(&amp;self, source: &amp;A, op: &amp;Self::Op) &#45;&gt; Result&lt;(), Self::ValidationError&gt;</text>
<text text-anchor="start" x="20" y="-19.8" font-family="Arial" font-size="14.00">&#45; apply(&amp;mut self, op: Self::Op)</text>
<polygon fill="none" stroke="black" points="8,-4 8,-222 522,-222 522,-4 8,-4"/>
</a>
</g>
</g>
<!-- ndValidationError -->
<g id="node2" class="node"><title>ndValidationError</title>
<g id="a_node2_1"><a xlink:href="https://github.com/maidsafe/brb_dt_tree/blob/master/src/brb_tree.rs#:~:text=enum%20ValidationError" xlink:title="&lt;TABLE&gt;">
<polygon fill="yellow" stroke="none" points="557,-113 557,-150 739,-150 739,-113 557,-113"/>
<polygon fill="none" stroke="black" points="557,-113 557,-150 739,-150 739,-113 557,-113"/>
<text text-anchor="start" x="595" y="-128.8" font-family="Arial" font-weight="bold" font-size="14.00">ValidationError</text>
<polygon fill="white" stroke="none" points="557,-76 557,-113 739,-113 739,-76 557,-76"/>
<polygon fill="none" stroke="black" points="557,-76 557,-113 739,-113 739,-76 557,-76"/>
<text text-anchor="start" x="568" y="-90.8" font-family="Arial" font-size="14.00">SourceDoesNotMatchOp</text>
<polygon fill="none" stroke="black" points="556,-75 556,-151 740,-151 740,-75 556,-75"/>
</a>
</g>
</g>
</g>
</svg>
