<?xml version="1.0" encoding="UTF-8" standalone="no"?>
<!DOCTYPE svg PUBLIC "-//W3C//DTD SVG 1.1//EN"
 "http://www.w3.org/Graphics/SVG/1.1/DTD/svg11.dtd">
<!-- Generated by graphviz version 2.38.0 (20140413.2041)
 -->
<!-- Title: ml Pages: 1 -->
<svg width="1457pt" height="2084pt"
 viewBox="0.00 0.00 1456.50 2084.00" xmlns="http://www.w3.org/2000/svg" xmlns:xlink="http://www.w3.org/1999/xlink">
<g id="graph0" class="graph" transform="scale(1 1) rotate(0) translate(4 2080)">
<title>ml</title>
<polygon fill="white" stroke="none" points="-4,4 -4,-2080 1452.5,-2080 1452.5,4 -4,4"/>
<!-- ndError -->
<g id="node1" class="node"><title>ndError</title>
<g id="a_node1_0"><a xlink:href="https://github.com/maidsafe/brb_membership/blob/master/src/error.rs#:~:text=enum%20Error" xlink:title="&lt;TABLE&gt;">
<polygon fill="yellow" stroke="none" points="257,-2034 257,-2071 526,-2071 526,-2034 257,-2034"/>
<polygon fill="none" stroke="black" points="257,-2034 257,-2071 526,-2071 526,-2034 257,-2034"/>
<text text-anchor="start" x="373" y="-2049.8" font-family="Arial" font-weight="bold" font-size="14.00">Error</text>
<polygon fill="white" stroke="none" points="257,-1757 257,-2034 526,-2034 526,-1757 257,-1757"/>
<polygon fill="none" stroke="black" points="257,-1757 257,-2034 526,-2034 526,-1757 257,-1757"/>
<text text-anchor="start" x="268" y="-2011.8" font-family="Arial" font-size="14.00">IO(std::io::Error)</text>
<text text-anchor="start" x="268" y="-1996.8" font-family="Arial" font-size="14.00">NoMembers</text>
<text text-anchor="start" x="268" y="-1981.8" font-family="Arial" font-size="14.00">WrongDestination</text>
<text text-anchor="start" x="268" y="-1966.8" font-family="Arial" font-size="14.00">MembersAtCapacity</text>
<text text-anchor="start" x="268" y="-1951.8" font-family="Arial" font-size="14.00">JoinRequestForExistingMember</text>
<text text-anchor="start" x="268" y="-1936.8" font-family="Arial" font-size="14.00">LeaveRequestForNonMember</text>
<text text-anchor="start" x="268" y="-1921.8" font-family="Arial" font-size="14.00">MergedVotesMustBeFromSameGen</text>
<text text-anchor="start" x="268" y="-1906.8" font-family="Arial" font-size="14.00">VoteNotForNextGeneration</text>
<text text-anchor="start" x="268" y="-1891.8" font-family="Arial" font-size="14.00">VoteFromNonMember</text>
<text text-anchor="start" x="268" y="-1876.8" font-family="Arial" font-size="14.00">VoterChangedMind</text>
<text text-anchor="start" x="268" y="-1861.8" font-family="Arial" font-size="14.00">ExistingVoteIncompatibleWithNewVote</text>
<text text-anchor="start" x="268" y="-1846.8" font-family="Arial" font-size="14.00">SuperMajorityBallotIsNotSuperMajority</text>
<text text-anchor="start" x="268" y="-1831.8" font-family="Arial" font-size="14.00">InvalidGeneration(Generation)</text>
<text text-anchor="start" x="268" y="-1816.8" font-family="Arial" font-size="14.00">InvalidVoteInHistory(SignedVote)</text>
<text text-anchor="start" x="268" y="-1801.8" font-family="Arial" font-size="14.00">Encoding(bincode::Error)</text>
<text text-anchor="start" x="268" y="-1786.8" font-family="Arial" font-size="14.00">Ed25519(crate::ed25519::Error)</text>
<text text-anchor="start" x="268" y="-1771.8" font-family="Arial" font-size="14.00">Blsttc(crate::blsttc::Error)</text>
<polygon fill="none" stroke="black" points="255.5,-1756 255.5,-2072 526.5,-2072 526.5,-1756 255.5,-1756"/>
</a>
</g>
</g>
<!-- ndPublicKey -->
<g id="node2" class="node"><title>ndPublicKey</title>
<g id="a_node2_1"><a xlink:href="https://github.com/maidsafe/brb_membership/blob/master/src/ed25519.rs#:~:text=struct%20PublicKey" xlink:title="&lt;TABLE&gt;">
<polygon fill="lightblue" stroke="none" points="587,-1673.5 587,-1710.5 1037,-1710.5 1037,-1673.5 587,-1673.5"/>
<polygon fill="none" stroke="black" points="587,-1673.5 587,-1710.5 1037,-1710.5 1037,-1673.5 587,-1673.5"/>
<text text-anchor="start" x="776.5" y="-1689.3" font-family="Arial" font-weight="bold" font-size="14.00">PublicKey</text>
<polygon fill="white" stroke="none" points="587,-1636.5 587,-1673.5 1037,-1673.5 1037,-1636.5 587,-1636.5"/>
<polygon fill="none" stroke="black" points="587,-1636.5 587,-1673.5 1037,-1673.5 1037,-1636.5 587,-1636.5"/>
<text text-anchor="start" x="598" y="-1651.3" font-family="Arial" font-size="14.00">&#45; ed25519::PublicKey</text>
<polygon fill="white" stroke="none" points="587,-1539.5 587,-1636.5 1037,-1636.5 1037,-1539.5 587,-1539.5"/>
<polygon fill="none" stroke="black" points="587,-1539.5 587,-1636.5 1037,-1636.5 1037,-1539.5 587,-1539.5"/>
<text text-anchor="start" x="598" y="-1614.3" font-family="Arial" font-size="14.00">&#45; random(rng: impl Rng + CryptoRng) &#45;&gt; Self</text>
<text text-anchor="start" x="598" y="-1599.3" font-family="Arial" font-size="14.00">&#45; verify(&amp;self, msg: &amp;[u8], signature: &amp;Signature) &#45;&gt; Result&lt;(), Error&gt;</text>
<text text-anchor="start" x="598" y="-1584.3" font-family="Arial" font-size="14.00">&#45; fmt(&amp;self, f: &amp;mut core::fmt::Formatter&lt;&#39;_&gt;) &#45;&gt; core::fmt::Result</text>
<text text-anchor="start" x="598" y="-1569.3" font-family="Arial" font-size="14.00">&#45; partial_cmp(&amp;self, other: &amp;Self) &#45;&gt; Option&lt;core::cmp::Ordering&gt;</text>
<text text-anchor="start" x="598" y="-1554.3" font-family="Arial" font-size="14.00">&#45; cmp(&amp;self, other: &amp;Self) &#45;&gt; std::cmp::Ordering</text>
<polygon fill="none" stroke="black" points="586,-1539 586,-1712 1038,-1712 1038,-1539 586,-1539"/>
</a>
</g>
</g>
<!-- ndError&#45;&gt;ndPublicKey -->
<g id="edge1" class="edge"><title>ndError&#45;&gt;ndPublicKey</title>
<path fill="none" stroke="black" d="M534.707,-1815.2C579.016,-1785.05 627.729,-1751.9 671.799,-1721.91"/>
<polygon fill="black" stroke="black" points="680.259,-1716.15 674.523,-1725.5 676.125,-1718.97 671.992,-1721.78 671.992,-1721.78 671.992,-1721.78 676.125,-1718.97 669.46,-1718.06 680.259,-1716.15 680.259,-1716.15"/>
</g>
<!-- ndState -->
<g id="node5" class="node"><title>ndState</title>
<g id="a_node5_2"><a xlink:href="https://github.com/maidsafe/brb_membership/blob/master/src/brb_membership.rs#:~:text=struct%20State" xlink:title="&lt;TABLE&gt;">
<polygon fill="lightblue" stroke="none" points="545,-484 545,-521 1234,-521 1234,-484 545,-484"/>
<polygon fill="none" stroke="black" points="545,-484 545,-521 1234,-521 1234,-484 545,-484"/>
<text text-anchor="start" x="871.5" y="-499.8" font-family="Arial" font-weight="bold" font-size="14.00">State</text>
<polygon fill="white" stroke="none" points="545,-357 545,-484 1234,-484 1234,-357 545,-357"/>
<polygon fill="none" stroke="black" points="545,-357 545,-484 1234,-484 1234,-357 545,-357"/>
<text text-anchor="start" x="556" y="-461.8" font-family="Arial" font-size="14.00">+ secret_key: SecretKey</text>
<text text-anchor="start" x="556" y="-446.8" font-family="Arial" font-size="14.00">+ gen: Generation</text>
<text text-anchor="start" x="556" y="-431.8" font-family="Arial" font-size="14.00">+ pending_gen: Generation</text>
<text text-anchor="start" x="556" y="-416.8" font-family="Arial" font-size="14.00">+ forced_reconfigs: BTreeMap&lt;Generation, BTreeSet&lt;Reconfig&gt;&gt;</text>
<text text-anchor="start" x="556" y="-401.8" font-family="Arial" font-size="14.00">+ history: BTreeMap&lt;Generation, SignedVote&gt;</text>
<text text-anchor="start" x="556" y="-386.8" font-family="Arial" font-size="14.00">+ votes: BTreeMap&lt;PublicKey, SignedVote&gt;</text>
<text text-anchor="start" x="556" y="-371.8" font-family="Arial" font-size="14.00">+ faulty: bool</text>
<polygon fill="white" stroke="none" points="545,-5 545,-357 1234,-357 1234,-5 545,-5"/>
<polygon fill="none" stroke="black" points="545,-5 545,-357 1234,-357 1234,-5 545,-5"/>
<text text-anchor="start" x="556" y="-334.8" font-family="Arial" font-size="14.00">&#45; from(secret_key: SecretKey) &#45;&gt; State</text>
<text text-anchor="start" x="556" y="-319.8" font-family="Arial" font-size="14.00">&#45; random(mut rng: impl Rng + CryptoRng) &#45;&gt; State</text>
<text text-anchor="start" x="556" y="-304.8" font-family="Arial" font-size="14.00">&#45; public_key(&amp;self) &#45;&gt; PublicKey</text>
<text text-anchor="start" x="556" y="-289.8" font-family="Arial" font-size="14.00">&#45; force_join(&amp;mut self, actor: PublicKey)</text>
<text text-anchor="start" x="556" y="-274.8" font-family="Arial" font-size="14.00">&#45; force_leave(&amp;mut self, actor: PublicKey)</text>
<text text-anchor="start" x="556" y="-259.8" font-family="Arial" font-size="14.00">&#45; members(&amp;self, gen: Generation) &#45;&gt; Result&lt;BTreeSet&lt;PublicKey&gt;, Error&gt;</text>
<text text-anchor="start" x="556" y="-244.8" font-family="Arial" font-size="14.00">&#45; propose(&amp;mut self, reconfig: Reconfig) &#45;&gt; Result&lt;Vec&lt;VoteMsg&gt;, Error&gt;</text>
<text text-anchor="start" x="556" y="-229.8" font-family="Arial" font-size="14.00">&#45; anti_entropy(&amp;self, from_gen: Generation, actor: PublicKey) &#45;&gt; Vec&lt;VoteMsg&gt;</text>
<text text-anchor="start" x="556" y="-214.8" font-family="Arial" font-size="14.00">&#45; handle_signed_vote(&amp;mut self, signed_vote: SignedVote) &#45;&gt; Result&lt;Vec&lt;VoteMsg&gt;, Error&gt;</text>
<text text-anchor="start" x="556" y="-199.8" font-family="Arial" font-size="14.00">&#45; sign_vote(&amp;self, vote: Vote) &#45;&gt; Result&lt;SignedVote, Error&gt;</text>
<text text-anchor="start" x="556" y="-184.8" font-family="Arial" font-size="14.00">&#45; cast_vote(&amp;mut self, signed_vote: SignedVote) &#45;&gt; Result&lt;Vec&lt;VoteMsg&gt;, Error&gt;</text>
<text text-anchor="start" x="556" y="-169.8" font-family="Arial" font-size="14.00">&#45; log_signed_vote(&amp;mut self, signed_vote: &amp;SignedVote)</text>
<text text-anchor="start" x="556" y="-154.8" font-family="Arial" font-size="14.00">&#45; count_votes(&amp;self, votes: &amp;BTreeSet&lt;SignedVote&gt;) &#45;&gt; BTreeMap&lt;BTreeSet&lt;Reconfig&gt;, usize&gt;</text>
<text text-anchor="start" x="556" y="-139.8" font-family="Arial" font-size="14.00">&#45; is_split_vote(&amp;self, votes: &amp;BTreeSet&lt;SignedVote&gt;) &#45;&gt; Result&lt;bool, Error&gt;</text>
<text text-anchor="start" x="556" y="-124.8" font-family="Arial" font-size="14.00">&#45; is_super_majority(&amp;self, votes: &amp;BTreeSet&lt;SignedVote&gt;) &#45;&gt; Result&lt;bool, Error&gt;</text>
<text text-anchor="start" x="556" y="-109.8" font-family="Arial" font-size="14.00">&#45; is_super_majority_over_super_majorities(&amp;self, votes: &amp;BTreeSet&lt;SignedVote&gt;) &#45;&gt; Result&lt;bool, Error&gt;</text>
<text text-anchor="start" x="556" y="-94.8" font-family="Arial" font-size="14.00">&#45; resolve_votes(&amp;self, votes: &amp;BTreeSet&lt;SignedVote&gt;) &#45;&gt; BTreeSet&lt;Reconfig&gt;</text>
<text text-anchor="start" x="556" y="-79.8" font-family="Arial" font-size="14.00">&#45; validate_signed_vote(&amp;self, signed_vote: &amp;SignedVote) &#45;&gt; Result&lt;(), Error&gt;</text>
<text text-anchor="start" x="556" y="-64.8" font-family="Arial" font-size="14.00">&#45; validate_vote(&amp;self, vote: &amp;Vote) &#45;&gt; Result&lt;(), Error&gt;</text>
<text text-anchor="start" x="556" y="-49.8" font-family="Arial" font-size="14.00">&#45; validate_reconfig(&amp;self, reconfig: Reconfig) &#45;&gt; Result&lt;(), Error&gt;</text>
<text text-anchor="start" x="556" y="-34.8" font-family="Arial" font-size="14.00">&#45; broadcast(&amp;self, signed_vote: SignedVote) &#45;&gt; Result&lt;Vec&lt;VoteMsg&gt;, Error&gt;</text>
<text text-anchor="start" x="556" y="-19.8" font-family="Arial" font-size="14.00">&#45; send(&amp;self, vote: SignedVote, dest: PublicKey) &#45;&gt; VoteMsg</text>
<polygon fill="none" stroke="black" points="543.5,-4 543.5,-522 1234.5,-522 1234.5,-4 543.5,-4"/>
</a>
</g>
</g>
<!-- ndError&#45;&gt;ndState -->
<g id="edge2" class="edge"><title>ndError&#45;&gt;ndState</title>
<path fill="none" stroke="black" d="M247.349,-1816.44C135.81,-1728.78 0,-1588.4 0,-1424.5 0,-1424.5 0,-1424.5 0,-801.5 0,-542.428 279.894,-404.863 525.581,-334.015"/>
<polygon fill="black" stroke="black" points="535.409,-331.211 527.027,-338.282 530.601,-332.583 525.792,-333.955 525.792,-333.955 525.792,-333.955 530.601,-332.583 524.558,-329.628 535.409,-331.211 535.409,-331.211"/>
</g>
<!-- ndVote -->
<g id="node8" class="node"><title>ndVote</title>
<g id="a_node8_3"><a xlink:href="https://github.com/maidsafe/brb_membership/blob/master/src/brb_membership.rs#:~:text=struct%20Vote" xlink:title="&lt;TABLE&gt;">
<polygon fill="lightblue" stroke="none" points="38,-1068 38,-1105 447,-1105 447,-1068 38,-1068"/>
<polygon fill="none" stroke="black" points="38,-1068 38,-1105 447,-1105 447,-1068 38,-1068"/>
<text text-anchor="start" x="227" y="-1083.8" font-family="Arial" font-weight="bold" font-size="14.00">Vote</text>
<polygon fill="white" stroke="none" points="38,-1016 38,-1068 447,-1068 447,-1016 38,-1016"/>
<polygon fill="none" stroke="black" points="38,-1016 38,-1068 447,-1068 447,-1016 38,-1016"/>
<text text-anchor="start" x="49" y="-1045.8" font-family="Arial" font-size="14.00">+ gen: Generation</text>
<text text-anchor="start" x="49" y="-1030.8" font-family="Arial" font-size="14.00">+ ballot: Ballot</text>
<polygon fill="white" stroke="none" points="38,-949 38,-1016 447,-1016 447,-949 38,-949"/>
<polygon fill="none" stroke="black" points="38,-949 38,-1016 447,-1016 447,-949 38,-949"/>
<text text-anchor="start" x="49" y="-993.8" font-family="Arial" font-size="14.00">&#45; fmt(&amp;self, f: &amp;mut std::fmt::Formatter&lt;&#39;_&gt;) &#45;&gt; std::fmt::Result</text>
<text text-anchor="start" x="49" y="-978.8" font-family="Arial" font-size="14.00">&#45; to_bytes(&amp;self) &#45;&gt; Result&lt;Vec&lt;u8&gt;, Error&gt;</text>
<text text-anchor="start" x="49" y="-963.8" font-family="Arial" font-size="14.00">&#45; is_super_majority_ballot(&amp;self) &#45;&gt; bool</text>
<polygon fill="none" stroke="black" points="36.5,-948 36.5,-1106 447.5,-1106 447.5,-948 36.5,-948"/>
</a>
</g>
</g>
<!-- ndError&#45;&gt;ndVote -->
<g id="edge3" class="edge"><title>ndError&#45;&gt;ndVote</title>
<path fill="none" stroke="black" d="M363.888,-1751.96C332.735,-1566.93 282.682,-1269.63 257.512,-1120.13"/>
<polygon fill="black" stroke="black" points="255.817,-1110.07 261.915,-1119.18 256.647,-1115 257.477,-1119.93 257.477,-1119.93 257.477,-1119.93 256.647,-1115 253.04,-1120.68 255.817,-1110.07 255.817,-1110.07"/>
</g>
<!-- ndSignedVote -->
<g id="node9" class="node"><title>ndSignedVote</title>
<g id="a_node9_4"><a xlink:href="https://github.com/maidsafe/brb_membership/blob/master/src/brb_membership.rs#:~:text=struct%20SignedVote" xlink:title="&lt;TABLE&gt;">
<polygon fill="lightblue" stroke="none" points="476,-865.5 476,-902.5 885,-902.5 885,-865.5 476,-865.5"/>
<polygon fill="none" stroke="black" points="476,-865.5 476,-902.5 885,-902.5 885,-865.5 476,-865.5"/>
<text text-anchor="start" x="640.5" y="-881.3" font-family="Arial" font-weight="bold" font-size="14.00">SignedVote</text>
<polygon fill="white" stroke="none" points="476,-798.5 476,-865.5 885,-865.5 885,-798.5 476,-798.5"/>
<polygon fill="none" stroke="black" points="476,-798.5 476,-865.5 885,-865.5 885,-798.5 476,-798.5"/>
<text text-anchor="start" x="487" y="-843.3" font-family="Arial" font-size="14.00">+ vote: Vote</text>
<text text-anchor="start" x="487" y="-828.3" font-family="Arial" font-size="14.00">+ voter: PublicKey</text>
<text text-anchor="start" x="487" y="-813.3" font-family="Arial" font-size="14.00">+ sig: Signature</text>
<polygon fill="white" stroke="none" points="476,-701.5 476,-798.5 885,-798.5 885,-701.5 476,-701.5"/>
<polygon fill="none" stroke="black" points="476,-701.5 476,-798.5 885,-798.5 885,-701.5 476,-701.5"/>
<text text-anchor="start" x="487" y="-776.3" font-family="Arial" font-size="14.00">&#45; fmt(&amp;self, f: &amp;mut std::fmt::Formatter&lt;&#39;_&gt;) &#45;&gt; std::fmt::Result</text>
<text text-anchor="start" x="487" y="-761.3" font-family="Arial" font-size="14.00">&#45; validate_signature(&amp;self) &#45;&gt; Result&lt;(), Error&gt;</text>
<text text-anchor="start" x="487" y="-746.3" font-family="Arial" font-size="14.00">&#45; unpack_votes(&amp;self) &#45;&gt; BTreeSet&lt;&amp;Self&gt;</text>
<text text-anchor="start" x="487" y="-731.3" font-family="Arial" font-size="14.00">&#45; reconfigs(&amp;self) &#45;&gt; BTreeSet&lt;(PublicKey, Reconfig)&gt;</text>
<text text-anchor="start" x="487" y="-716.3" font-family="Arial" font-size="14.00">&#45; supersedes(&amp;self, signed_vote: &amp;SignedVote) &#45;&gt; bool</text>
<polygon fill="none" stroke="black" points="474.5,-701 474.5,-904 885.5,-904 885.5,-701 474.5,-701"/>
</a>
</g>
</g>
<!-- ndError&#45;&gt;ndSignedVote -->
<g id="edge4" class="edge"><title>ndError&#45;&gt;ndSignedVote</title>
<path fill="none" stroke="black" d="M364.584,-1751.82C349.505,-1592.17 347.134,-1343.6 425,-1146 432.636,-1126.62 445.03,-1128.29 455,-1110 492.008,-1042.12 464.437,-1008.54 507,-944 513.45,-934.219 520.769,-924.732 528.666,-915.614"/>
<polygon fill="black" stroke="black" points="535.428,-908.043 532.123,-918.499 532.097,-911.772 528.766,-915.501 528.766,-915.501 528.766,-915.501 532.097,-911.772 525.41,-912.503 535.428,-908.043 535.428,-908.043"/>
</g>
<!-- ndSecretKey -->
<g id="node3" class="node"><title>ndSecretKey</title>
<g id="a_node3_5"><a xlink:href="https://github.com/maidsafe/brb_membership/blob/master/src/ed25519.rs#:~:text=struct%20SecretKey" xlink:title="&lt;TABLE&gt;">
<polygon fill="lightblue" stroke="none" points="1111,-1456.5 1111,-1493.5 1440,-1493.5 1440,-1456.5 1111,-1456.5"/>
<polygon fill="none" stroke="black" points="1111,-1456.5 1111,-1493.5 1440,-1493.5 1440,-1456.5 1111,-1456.5"/>
<text text-anchor="start" x="1239" y="-1472.3" font-family="Arial" font-weight="bold" font-size="14.00">SecretKey</text>
<polygon fill="white" stroke="none" points="1111,-1419.5 1111,-1456.5 1440,-1456.5 1440,-1419.5 1111,-1419.5"/>
<polygon fill="none" stroke="black" points="1111,-1419.5 1111,-1456.5 1440,-1456.5 1440,-1419.5 1111,-1419.5"/>
<text text-anchor="start" x="1122" y="-1434.3" font-family="Arial" font-size="14.00">&#45; ed25519::Keypair</text>
<polygon fill="white" stroke="none" points="1111,-1352.5 1111,-1419.5 1440,-1419.5 1440,-1352.5 1111,-1352.5"/>
<polygon fill="none" stroke="black" points="1111,-1352.5 1111,-1419.5 1440,-1419.5 1440,-1352.5 1111,-1352.5"/>
<text text-anchor="start" x="1122" y="-1397.3" font-family="Arial" font-size="14.00">&#45; random(mut rng: impl Rng + CryptoRng) &#45;&gt; Self</text>
<text text-anchor="start" x="1122" y="-1382.3" font-family="Arial" font-size="14.00">&#45; public_key(&amp;self) &#45;&gt; PublicKey</text>
<text text-anchor="start" x="1122" y="-1367.3" font-family="Arial" font-size="14.00">&#45; sign(&amp;self, msg: &amp;[u8]) &#45;&gt; Signature</text>
<polygon fill="none" stroke="black" points="1109.5,-1352 1109.5,-1495 1440.5,-1495 1440.5,-1352 1109.5,-1352"/>
</a>
</g>
</g>
<!-- ndPublicKey&#45;&gt;ndSecretKey -->
<g id="edge5" class="edge"><title>ndPublicKey&#45;&gt;ndSecretKey</title>
<path fill="none" stroke="black" d="M1019.46,-1534.88C1043.99,-1524.29 1068.89,-1513.53 1093.04,-1503.1"/>
<polygon fill="black" stroke="black" points="1102.25,-1499.12 1094.85,-1507.22 1097.66,-1501.11 1093.07,-1503.09 1093.07,-1503.09 1093.07,-1503.09 1097.66,-1501.11 1091.28,-1498.96 1102.25,-1499.12 1102.25,-1499.12"/>
</g>
<!-- ndPublicKey&#45;&gt;ndState -->
<g id="edge6" class="edge"><title>ndPublicKey&#45;&gt;ndState</title>
<path fill="none" stroke="black" stroke-dasharray="5,2" d="M978.935,-1534.99C990.066,-1524.09 1000.01,-1512.11 1008,-1499 1202.78,-1179.61 1069.43,-1034.68 1087,-661 1089.07,-617.049 1099.72,-604.122 1087,-562 1084.5,-553.722 1081.69,-545.462 1078.6,-537.244"/>
<polygon fill="black" stroke="black" points="1078.6,-537.242 1072.69,-533.111 1074.23,-526.066 1080.14,-530.197 1078.6,-537.242"/>
</g>
<!-- ndReconfig -->
<g id="node6" class="node"><title>ndReconfig</title>
<g id="a_node6_6"><a xlink:href="https://github.com/maidsafe/brb_membership/blob/master/src/brb_membership.rs#:~:text=enum%20Reconfig" xlink:title="&lt;TABLE&gt;">
<polygon fill="yellow" stroke="none" points="552,-1456.5 552,-1493.5 961,-1493.5 961,-1456.5 552,-1456.5"/>
<polygon fill="none" stroke="black" points="552,-1456.5 552,-1493.5 961,-1493.5 961,-1456.5 552,-1456.5"/>
<text text-anchor="start" x="725.5" y="-1472.3" font-family="Arial" font-weight="bold" font-size="14.00">Reconfig</text>
<polygon fill="white" stroke="none" points="552,-1404.5 552,-1456.5 961,-1456.5 961,-1404.5 552,-1404.5"/>
<polygon fill="none" stroke="black" points="552,-1404.5 552,-1456.5 961,-1456.5 961,-1404.5 552,-1404.5"/>
<text text-anchor="start" x="563" y="-1434.3" font-family="Arial" font-size="14.00">Join(PublicKey)</text>
<text text-anchor="start" x="563" y="-1419.3" font-family="Arial" font-size="14.00">Leave(PublicKey)</text>
<polygon fill="white" stroke="none" points="552,-1352.5 552,-1404.5 961,-1404.5 961,-1352.5 552,-1352.5"/>
<polygon fill="none" stroke="black" points="552,-1352.5 552,-1404.5 961,-1404.5 961,-1352.5 552,-1352.5"/>
<text text-anchor="start" x="563" y="-1382.3" font-family="Arial" font-size="14.00">&#45; fmt(&amp;self, f: &amp;mut std::fmt::Formatter&lt;&#39;_&gt;) &#45;&gt; std::fmt::Result</text>
<text text-anchor="start" x="563" y="-1367.3" font-family="Arial" font-size="14.00">&#45; apply(self, members: &amp;mut BTreeSet&lt;PublicKey&gt;)</text>
<polygon fill="none" stroke="black" points="550.5,-1352 550.5,-1495 961.5,-1495 961.5,-1352 550.5,-1352"/>
</a>
</g>
</g>
<!-- ndPublicKey&#45;&gt;ndReconfig -->
<g id="edge7" class="edge"><title>ndPublicKey&#45;&gt;ndReconfig</title>
<path fill="none" stroke="black" d="M786.867,-1534.74C784.62,-1526.71 782.349,-1518.6 780.111,-1510.61"/>
<polygon fill="black" stroke="black" points="780.099,-1510.57 774.629,-1505.87 776.863,-1499.01 782.333,-1503.71 780.099,-1510.57"/>
</g>
<!-- ndPublicKey&#45;&gt;ndSignedVote -->
<g id="edge8" class="edge"><title>ndPublicKey&#45;&gt;ndSignedVote</title>
<path fill="none" stroke="black" d="M577.736,-1536.48C561.534,-1525.31 546.362,-1512.86 533,-1499 470.737,-1434.41 474.208,-1400.05 457,-1312 442.848,-1239.59 420.889,-1210.34 457,-1146 472.035,-1119.21 494.902,-1132.33 516,-1110 567.811,-1055.17 608.125,-980.816 635.817,-919.072"/>
<polygon fill="black" stroke="black" points="635.818,-919.069 634.585,-911.965 640.669,-908.093 641.902,-915.198 635.818,-919.069"/>
</g>
<!-- ndVoteMsg -->
<g id="node10" class="node"><title>ndVoteMsg</title>
<g id="a_node10_7"><a xlink:href="https://github.com/maidsafe/brb_membership/blob/master/src/brb_membership.rs#:~:text=struct%20VoteMsg" xlink:title="&lt;TABLE&gt;">
<polygon fill="lightblue" stroke="none" points="927,-618.5 927,-655.5 1070,-655.5 1070,-618.5 927,-618.5"/>
<polygon fill="none" stroke="black" points="927,-618.5 927,-655.5 1070,-655.5 1070,-618.5 927,-618.5"/>
<text text-anchor="start" x="968" y="-634.3" font-family="Arial" font-weight="bold" font-size="14.00">VoteMsg</text>
<polygon fill="white" stroke="none" points="927,-566.5 927,-618.5 1070,-618.5 1070,-566.5 927,-566.5"/>
<polygon fill="none" stroke="black" points="927,-566.5 927,-618.5 1070,-618.5 1070,-566.5 927,-566.5"/>
<text text-anchor="start" x="938" y="-596.3" font-family="Arial" font-size="14.00">+ vote: SignedVote</text>
<text text-anchor="start" x="938" y="-581.3" font-family="Arial" font-size="14.00">+ dest: PublicKey</text>
<polygon fill="none" stroke="black" points="925.5,-566 925.5,-657 1070.5,-657 1070.5,-566 925.5,-566"/>
</a>
</g>
</g>
<!-- ndPublicKey&#45;&gt;ndVoteMsg -->
<g id="edge9" class="edge"><title>ndPublicKey&#45;&gt;ndVoteMsg</title>
<path fill="none" stroke="black" d="M951.969,-1534.74C962.06,-1523.77 971,-1511.85 978,-1499 1035.35,-1393.72 998,-1349.89 998,-1230 998,-1230 998,-1230 998,-1026 998,-900.788 998,-754.248 998,-673.567"/>
<polygon fill="black" stroke="black" points="998,-673.196 994,-667.196 998,-661.196 1002,-667.196 998,-673.196"/>
</g>
<!-- ndSecretKey&#45;&gt;ndState -->
<g id="edge10" class="edge"><title>ndSecretKey&#45;&gt;ndState</title>
<path fill="none" stroke="black" stroke-dasharray="5,2" d="M1255.23,-1347.84C1236.11,-1268.95 1210,-1140.62 1210,-1028 1210,-1028 1210,-1028 1210,-801.5 1210,-708.142 1173.86,-616.922 1125.84,-536.916"/>
<polygon fill="black" stroke="black" points="1125.56,-536.45 1119.01,-533.413 1119.3,-526.208 1125.84,-529.244 1125.56,-536.45"/>
</g>
<!-- ndSignature -->
<g id="node4" class="node"><title>ndSignature</title>
<g id="a_node4_8"><a xlink:href="https://github.com/maidsafe/brb_membership/blob/master/src/ed25519.rs#:~:text=struct%20Signature" xlink:title="&lt;TABLE&gt;">
<polygon fill="lightblue" stroke="none" points="857,-1940 857,-1977 1291,-1977 1291,-1940 857,-1940"/>
<polygon fill="none" stroke="black" points="857,-1940 857,-1977 1291,-1977 1291,-1940 857,-1940"/>
<text text-anchor="start" x="1040" y="-1955.8" font-family="Arial" font-weight="bold" font-size="14.00">Signature</text>
<polygon fill="white" stroke="none" points="857,-1903 857,-1940 1291,-1940 1291,-1903 857,-1903"/>
<polygon fill="none" stroke="black" points="857,-1903 857,-1940 1291,-1940 1291,-1903 857,-1903"/>
<text text-anchor="start" x="868" y="-1917.8" font-family="Arial" font-size="14.00">&#45; ed25519::Signature</text>
<polygon fill="white" stroke="none" points="857,-1851 857,-1903 1291,-1903 1291,-1851 857,-1851"/>
<polygon fill="none" stroke="black" points="857,-1851 857,-1903 1291,-1903 1291,-1851 857,-1851"/>
<text text-anchor="start" x="868" y="-1880.8" font-family="Arial" font-size="14.00">&#45; partial_cmp(&amp;self, other: &amp;Self) &#45;&gt; Option&lt;core::cmp::Ordering&gt;</text>
<text text-anchor="start" x="868" y="-1865.8" font-family="Arial" font-size="14.00">&#45; cmp(&amp;self, other: &amp;Self) &#45;&gt; std::cmp::Ordering</text>
<polygon fill="none" stroke="black" points="856,-1850 856,-1978 1292,-1978 1292,-1850 856,-1850"/>
</a>
</g>
</g>
<!-- ndSignature&#45;&gt;ndPublicKey -->
<g id="edge11" class="edge"><title>ndSignature&#45;&gt;ndPublicKey</title>
<path fill="none" stroke="black" stroke-dasharray="5,2" d="M1012.57,-1845.83C979.254,-1809.39 937.477,-1763.71 900.688,-1723.48"/>
<polygon fill="black" stroke="black" points="893.88,-1716.04 903.949,-1720.38 897.254,-1719.73 900.628,-1723.42 900.628,-1723.42 900.628,-1723.42 897.254,-1719.73 897.307,-1726.45 893.88,-1716.04 893.88,-1716.04"/>
</g>
<!-- ndSignature&#45;&gt;ndSecretKey -->
<g id="edge12" class="edge"><title>ndSignature&#45;&gt;ndSecretKey</title>
<path fill="none" stroke="black" d="M1101.63,-1845.84C1137.77,-1758.02 1201.08,-1604.14 1240.38,-1508.64"/>
<polygon fill="black" stroke="black" points="1244.22,-1499.3 1244.58,-1510.26 1242.32,-1503.92 1240.42,-1508.55 1240.42,-1508.55 1240.42,-1508.55 1242.32,-1503.92 1236.26,-1506.83 1244.22,-1499.3 1244.22,-1499.3"/>
</g>
<!-- ndSignature&#45;&gt;ndSignedVote -->
<g id="edge13" class="edge"><title>ndSignature&#45;&gt;ndSignedVote</title>
<path fill="none" stroke="black" d="M1076.47,-1845.73C1079.28,-1677.01 1065.39,-1229 858,-944 851.138,-934.569 843.48,-925.44 835.302,-916.668"/>
<polygon fill="black" stroke="black" points="835.291,-916.656 828.247,-915.113 826.962,-908.017 834.006,-909.56 835.291,-916.656"/>
</g>
<!-- ndReconfig&#45;&gt;ndState -->
<g id="edge14" class="edge"><title>ndReconfig&#45;&gt;ndState</title>
<path fill="none" stroke="black" stroke-dasharray="5,2" d="M899.438,-1347.66C910.306,-1337.05 919.817,-1325.19 927,-1312 962.277,-1247.2 928.588,-1219.76 927,-1146 924.544,-1031.94 912.094,-752.262 902.103,-538.165"/>
<polygon fill="black" stroke="black" points="902.1,-538.081 897.824,-532.274 901.54,-526.094 905.815,-531.901 902.1,-538.081"/>
</g>
<!-- ndBallot -->
<g id="node7" class="node"><title>ndBallot</title>
<g id="a_node7_9"><a xlink:href="https://github.com/maidsafe/brb_membership/blob/master/src/brb_membership.rs#:~:text=enum%20Ballot" xlink:title="&lt;TABLE&gt;">
<polygon fill="yellow" stroke="none" points="476,-1270 476,-1307 885,-1307 885,-1270 476,-1270"/>
<polygon fill="none" stroke="black" points="476,-1270 476,-1307 885,-1307 885,-1270 476,-1270"/>
<text text-anchor="start" x="660.5" y="-1285.8" font-family="Arial" font-weight="bold" font-size="14.00">Ballot</text>
<polygon fill="white" stroke="none" points="476,-1203 476,-1270 885,-1270 885,-1203 476,-1203"/>
<polygon fill="none" stroke="black" points="476,-1203 476,-1270 885,-1270 885,-1203 476,-1203"/>
<text text-anchor="start" x="487" y="-1247.8" font-family="Arial" font-size="14.00">Propose(Reconfig)</text>
<text text-anchor="start" x="487" y="-1232.8" font-family="Arial" font-size="14.00">Merge(BTreeSet&lt;SignedVote&gt;)</text>
<text text-anchor="start" x="487" y="-1217.8" font-family="Arial" font-size="14.00">SuperMajority(BTreeSet&lt;SignedVote&gt;)</text>
<polygon fill="white" stroke="none" points="476,-1151 476,-1203 885,-1203 885,-1151 476,-1151"/>
<polygon fill="none" stroke="black" points="476,-1151 476,-1203 885,-1203 885,-1151 476,-1151"/>
<text text-anchor="start" x="487" y="-1180.8" font-family="Arial" font-size="14.00">&#45; fmt(&amp;self, f: &amp;mut std::fmt::Formatter&lt;&#39;_&gt;) &#45;&gt; std::fmt::Result</text>
<text text-anchor="start" x="487" y="-1165.8" font-family="Arial" font-size="14.00">&#45; simplify(&amp;self) &#45;&gt; Self</text>
<polygon fill="none" stroke="black" points="474.5,-1150 474.5,-1308 885.5,-1308 885.5,-1150 474.5,-1150"/>
</a>
</g>
</g>
<!-- ndReconfig&#45;&gt;ndBallot -->
<g id="edge15" class="edge"><title>ndReconfig&#45;&gt;ndBallot</title>
<path fill="none" stroke="black" d="M726.508,-1347.8C723.324,-1339.73 720.055,-1331.46 716.799,-1323.21"/>
<polygon fill="black" stroke="black" points="716.782,-1323.16 710.858,-1319.05 712.375,-1312 718.299,-1316.11 716.782,-1323.16"/>
</g>
<!-- ndReconfig&#45;&gt;ndSignedVote -->
<g id="edge16" class="edge"><title>ndReconfig&#45;&gt;ndSignedVote</title>
<path fill="none" stroke="black" d="M876.408,-1347.85C886.604,-1337.05 895.489,-1325.09 902,-1312 934.85,-1245.94 922.923,-1216.75 902,-1146 877.14,-1061.94 824.465,-979.14 776.663,-916.014"/>
<polygon fill="black" stroke="black" points="770.559,-908.024 780.206,-913.239 773.594,-911.997 776.63,-915.97 776.63,-915.97 776.63,-915.97 773.594,-911.997 773.054,-918.702 770.559,-908.024 770.559,-908.024"/>
</g>
<!-- ndBallot&#45;&gt;ndVote -->
<g id="edge17" class="edge"><title>ndBallot&#45;&gt;ndVote</title>
<path fill="none" stroke="black" d="M500.269,-1145.93C477.95,-1135.74 455.069,-1125.29 432.593,-1115.03"/>
<polygon fill="black" stroke="black" points="432.513,-1114.99 425.393,-1116.14 421.597,-1110.01 428.716,-1108.86 432.513,-1114.99"/>
</g>
<!-- ndVote&#45;&gt;ndState -->
<g id="edge18" class="edge"><title>ndVote&#45;&gt;ndState</title>
<path fill="none" stroke="black" stroke-dasharray="5,2" d="M289.304,-943.688C330.207,-875.115 392.736,-776.22 457,-697 501.725,-641.866 552.552,-585.998 603.245,-533.539"/>
<polygon fill="black" stroke="black" points="610.396,-526.16 606.668,-536.473 606.917,-529.751 603.437,-533.341 603.437,-533.341 603.437,-533.341 606.917,-529.751 600.205,-530.21 610.396,-526.16 610.396,-526.16"/>
</g>
<!-- ndVote&#45;&gt;ndSignedVote -->
<g id="edge19" class="edge"><title>ndVote&#45;&gt;ndSignedVote</title>
<path fill="none" stroke="black" stroke-dasharray="5,2" d="M403.54,-943.939C423.07,-934.018 443.255,-923.764 463.414,-913.524"/>
<polygon fill="black" stroke="black" points="463.578,-913.441 467.115,-907.157 474.276,-908.006 470.739,-914.289 463.578,-913.441"/>
</g>
<!-- ndSignedVote&#45;&gt;ndError -->
<g id="edge20" class="edge"><title>ndSignedVote&#45;&gt;ndError</title>
<path fill="none" stroke="black" d="M553.359,-908.043C542.936,-919.443 533.256,-931.48 525,-944 482.437,-1008.54 510.008,-1042.12 473,-1110 463.03,-1128.29 450.636,-1126.62 443,-1146 367.111,-1338.58 367.436,-1579.58 377.45,-1739.49"/>
<polygon fill="black" stroke="black" points="377.473,-1739.85 381.854,-1745.58 378.251,-1751.82 373.871,-1746.09 377.473,-1739.85"/>
</g>
<!-- ndSignedVote&#45;&gt;ndState -->
<g id="edge21" class="edge"><title>ndSignedVote&#45;&gt;ndState</title>
<path fill="none" stroke="black" stroke-dasharray="5,2" d="M720.669,-696.908C738.78,-650.331 761.037,-593.092 783.363,-535.674"/>
<polygon fill="black" stroke="black" points="787.092,-526.085 787.662,-537.036 785.28,-530.745 783.467,-535.405 783.467,-535.405 783.467,-535.405 785.28,-530.745 779.273,-533.774 787.092,-526.085 787.092,-526.085"/>
</g>
<!-- ndSignedVote&#45;&gt;ndBallot -->
<g id="edge22" class="edge"><title>ndSignedVote&#45;&gt;ndBallot</title>
<path fill="none" stroke="black" d="M680,-908.344C680,-977.358 680,-1066.94 680,-1133.71"/>
<polygon fill="black" stroke="black" points="680,-1133.9 684,-1139.9 680,-1145.9 676,-1139.9 680,-1133.9"/>
</g>
<!-- ndSignedVote&#45;&gt;ndVoteMsg -->
<g id="edge23" class="edge"><title>ndSignedVote&#45;&gt;ndVoteMsg</title>
<path fill="none" stroke="black" d="M856.205,-696.774C873.72,-686.364 890.954,-676.122 907.042,-666.56"/>
<polygon fill="black" stroke="black" points="907.124,-666.511 910.238,-660.007 917.44,-660.38 914.326,-666.884 907.124,-666.511"/>
</g>
<!-- ndVoteMsg&#45;&gt;ndState -->
<g id="edge24" class="edge"><title>ndVoteMsg&#45;&gt;ndState</title>
<path fill="none" stroke="black" d="M982.729,-561.956C980.203,-553.924 977.437,-545.131 974.489,-535.762"/>
<polygon fill="black" stroke="black" points="971.484,-526.209 978.778,-534.397 972.985,-530.978 974.485,-535.748 974.485,-535.748 974.485,-535.748 972.985,-530.978 970.192,-537.098 971.484,-526.209 971.484,-526.209"/>
</g>
</g>
</svg>
