<?xml version="1.0" encoding="UTF-8" standalone="no"?>
<!DOCTYPE svg PUBLIC "-//W3C//DTD SVG 1.1//EN"
 "http://www.w3.org/Graphics/SVG/1.1/DTD/svg11.dtd">
<!-- Generated by graphviz version 2.38.0 (20140413.2041)
 -->
<!-- Title: ml Pages: 1 -->
<svg width="329pt" height="376pt"
 viewBox="0.00 0.00 328.60 376.00" xmlns="http://www.w3.org/2000/svg" xmlns:xlink="http://www.w3.org/1999/xlink">
<g id="graph0" class="graph" transform="scale(1 1) rotate(0) translate(4 372)">
<title>ml</title>
<polygon fill="white" stroke="none" points="-4,4 -4,-372 324.605,-372 324.605,4 -4,4"/>
<!-- ndError -->
<g id="node1" class="node"><title>ndError</title>
<g id="a_node1_0"><a xlink:href="https://github.com/maidsafe/brb_membership/blob/master/src/error.rs#:~:text=enum%20Error" xlink:title="&lt;TABLE&gt;">
<polygon fill="yellow" stroke="none" points="24.105,-76.5 24.105,-113.5 83.105,-113.5 83.105,-76.5 24.105,-76.5"/>
<polygon fill="none" stroke="black" points="24.105,-76.5 24.105,-113.5 83.105,-113.5 83.105,-76.5 24.105,-76.5"/>
<text text-anchor="start" x="35.105" y="-92.3" font-family="Arial" font-weight="bold" font-size="14.00">Error</text>
<polygon fill="none" stroke="black" points="22.605,-76 22.605,-115 83.605,-115 83.605,-76 22.605,-76"/>
</a>
</g>
</g>
<!-- ndState -->
<g id="node5" class="node"><title>ndState</title>
<text text-anchor="middle" x="86.105" y="-14.3" font-family="Times,serif" font-size="14.00">ndState</text>
</g>
<!-- ndError&#45;&gt;ndState -->
<g id="edge1" class="edge"><title>ndError&#45;&gt;ndState</title>
<path fill="none" stroke="black" d="M63.0061,-71.8475C66.6476,-63.516 70.8026,-54.0099 74.5753,-45.3785"/>
<polygon fill="black" stroke="black" points="78.6245,-36.1144 78.7428,-47.0797 76.622,-40.6959 74.6194,-45.2774 74.6194,-45.2774 74.6194,-45.2774 76.622,-40.6959 70.4961,-43.4751 78.6245,-36.1144 78.6245,-36.1144"/>
</g>
<!-- ndActor -->
<g id="node2" class="node"><title>ndActor</title>
<g id="a_node2_1"><a xlink:href="https://github.com/maidsafe/brb_membership/blob/master/src/actor.rs#:~:text=trait%20Actor" xlink:title="&lt;TABLE&gt;">
<polygon fill="lightgreen" stroke="none" points="192.105,-242.5 192.105,-279.5 252.105,-279.5 252.105,-242.5 192.105,-242.5"/>
<polygon fill="none" stroke="black" points="192.105,-242.5 192.105,-279.5 252.105,-279.5 252.105,-242.5 192.105,-242.5"/>
<text text-anchor="start" x="203.105" y="-258.3" font-family="Arial" font-weight="bold" font-size="14.00">Actor</text>
<polygon fill="none" stroke="black" points="191.105,-242 191.105,-281 253.105,-281 253.105,-242 191.105,-242"/>
</a>
</g>
</g>
<!-- ndSigningActor -->
<g id="node3" class="node"><title>ndSigningActor</title>
<g id="a_node3_2"><a xlink:href="https://github.com/maidsafe/brb_membership/blob/master/src/actor.rs#:~:text=trait%20SigningActor" xlink:title="&lt;TABLE&gt;">
<polygon fill="lightgreen" stroke="none" points="199.105,-159.5 199.105,-196.5 312.105,-196.5 312.105,-159.5 199.105,-159.5"/>
<polygon fill="none" stroke="black" points="199.105,-159.5 199.105,-196.5 312.105,-196.5 312.105,-159.5 199.105,-159.5"/>
<text text-anchor="start" x="210.105" y="-175.3" font-family="Arial" font-weight="bold" font-size="14.00">SigningActor</text>
<polygon fill="none" stroke="black" points="197.605,-159 197.605,-198 312.605,-198 312.605,-159 197.605,-159"/>
</a>
</g>
</g>
<!-- ndActor&#45;&gt;ndSigningActor -->
<g id="edge2" class="edge"><title>ndActor&#45;&gt;ndSigningActor</title>
<path fill="none" stroke="black" d="M231.297,-237.937C234.631,-229.755 238.462,-220.35 242.064,-211.509"/>
<polygon fill="black" stroke="black" points="245.847,-202.223 246.242,-213.182 243.961,-206.853 242.074,-211.484 242.074,-211.484 242.074,-211.484 243.961,-206.853 237.907,-209.786 245.847,-202.223 245.847,-202.223"/>
</g>
<!-- ndSig -->
<g id="node4" class="node"><title>ndSig</title>
<g id="a_node4_3"><a xlink:href="https://github.com/maidsafe/brb_membership/blob/master/src/actor.rs#:~:text=trait%20Sig" xlink:title="&lt;TABLE&gt;">
<polygon fill="lightgreen" stroke="none" points="233.105,-325.5 233.105,-362.5 278.105,-362.5 278.105,-325.5 233.105,-325.5"/>
<polygon fill="none" stroke="black" points="233.105,-325.5 233.105,-362.5 278.105,-362.5 278.105,-325.5 233.105,-325.5"/>
<text text-anchor="start" x="244.105" y="-341.3" font-family="Arial" font-weight="bold" font-size="14.00">Sig</text>
<polygon fill="none" stroke="black" points="231.605,-325 231.605,-364 278.605,-364 278.605,-325 231.605,-325"/>
</a>
</g>
</g>
<!-- ndSig&#45;&gt;ndActor -->
<g id="edge3" class="edge"><title>ndSig&#45;&gt;ndActor</title>
<path fill="none" stroke="black" stroke-dasharray="5,2" d="M245.913,-320.937C242.579,-312.755 238.747,-303.35 235.146,-294.509"/>
<polygon fill="black" stroke="black" points="231.362,-285.223 239.303,-292.786 233.249,-289.853 235.135,-294.484 235.135,-294.484 235.135,-294.484 233.249,-289.853 230.968,-296.182 231.362,-285.223 231.362,-285.223"/>
</g>
<!-- ndSig&#45;&gt;ndSigningActor -->
<g id="edge4" class="edge"><title>ndSig&#45;&gt;ndSigningActor</title>
<path fill="none" stroke="black" d="M262.291,-320.975C265.36,-310.209 268.583,-297.067 270.105,-285 272.72,-264.275 272.72,-258.725 270.105,-238 269.023,-229.421 267.081,-220.299 264.946,-211.873"/>
<polygon fill="black" stroke="black" points="262.291,-202.025 269.239,-210.508 263.592,-206.852 264.894,-211.68 264.894,-211.68 264.894,-211.68 263.592,-206.852 260.549,-212.851 262.291,-202.025 262.291,-202.025"/>
</g>
<!-- ndReconfig -->
<g id="node6" class="node"><title>ndReconfig</title>
<g id="a_node6_4"><a xlink:href="https://github.com/maidsafe/brb_membership/blob/master/src/brb_membership.rs#:~:text=enum%20Reconfig" xlink:title="&lt;TABLE&gt;">
<polygon fill="yellow" stroke="none" points="45.105,-325.5 45.105,-362.5 129.105,-362.5 129.105,-325.5 45.105,-325.5"/>
<polygon fill="none" stroke="black" points="45.105,-325.5 45.105,-362.5 129.105,-362.5 129.105,-325.5 45.105,-325.5"/>
<text text-anchor="start" x="56.105" y="-341.3" font-family="Arial" font-weight="bold" font-size="14.00">Reconfig</text>
<polygon fill="none" stroke="black" points="44.105,-325 44.105,-364 130.105,-364 130.105,-325 44.105,-325"/>
</a>
</g>
</g>
<!-- ndReconfig&#45;&gt;ndState -->
<g id="edge5" class="edge"><title>ndReconfig&#45;&gt;ndState</title>
<path fill="none" stroke="black" d="M63.6146,-320.945C54.3334,-310.792 44.401,-298.143 38.105,-285 5.60679,-217.161 12.4737,-193.86 5.10496,-119 3.05867,-98.2116 -4.83069,-90.3747 5.10496,-72 14.0675,-55.425 30.7176,-43.2021 46.6018,-34.6986"/>
<polygon fill="black" stroke="black" points="46.6055,-34.6969 50.2227,-28.4585 57.3723,-29.3981 53.7552,-35.6364 46.6055,-34.6969"/>
</g>
<!-- ndBallot -->
<g id="node7" class="node"><title>ndBallot</title>
<g id="a_node7_5"><a xlink:href="https://github.com/maidsafe/brb_membership/blob/master/src/brb_membership.rs#:~:text=enum%20Ballot" xlink:title="&lt;TABLE&gt;">
<polygon fill="yellow" stroke="none" points="56.105,-242.5 56.105,-279.5 118.105,-279.5 118.105,-242.5 56.105,-242.5"/>
<polygon fill="none" stroke="black" points="56.105,-242.5 56.105,-279.5 118.105,-279.5 118.105,-242.5 56.105,-242.5"/>
<text text-anchor="start" x="67.105" y="-258.3" font-family="Arial" font-weight="bold" font-size="14.00">Ballot</text>
<polygon fill="none" stroke="black" points="55.105,-242 55.105,-281 119.105,-281 119.105,-242 55.105,-242"/>
</a>
</g>
</g>
<!-- ndReconfig&#45;&gt;ndBallot -->
<g id="edge6" class="edge"><title>ndReconfig&#45;&gt;ndBallot</title>
<path fill="none" stroke="black" d="M87.105,-320.937C87.105,-313.626 87.105,-305.337 87.105,-297.348"/>
<polygon fill="black" stroke="black" points="87.1051,-297.223 83.105,-291.223 87.105,-285.223 91.105,-291.223 87.1051,-297.223"/>
</g>
<!-- ndVote -->
<g id="node8" class="node"><title>ndVote</title>
<text text-anchor="middle" x="103.105" y="-174.8" font-family="Times,serif" font-size="14.00">ndVote</text>
</g>
<!-- ndReconfig&#45;&gt;ndVote -->
<g id="edge7" class="edge"><title>ndReconfig&#45;&gt;ndVote</title>
<path fill="none" stroke="black" d="M112.4,-320.934C121.733,-310.96 131.217,-298.447 136.105,-285 143.241,-265.368 141.411,-258.204 136.105,-238 133.089,-226.515 127.251,-214.912 121.314,-205.1"/>
<polygon fill="black" stroke="black" points="115.911,-196.649 125.088,-202.65 118.604,-200.861 121.297,-205.074 121.297,-205.074 121.297,-205.074 118.604,-200.861 117.505,-207.498 115.911,-196.649 115.911,-196.649"/>
</g>
<!-- ndBallot&#45;&gt;ndVote -->
<g id="edge8" class="edge"><title>ndBallot&#45;&gt;ndVote</title>
<path fill="none" stroke="black" d="M85.4385,-237.937C86.5711,-228.721 88.5767,-217.952 90.9502,-208.187"/>
<polygon fill="black" stroke="black" points="90.9665,-208.128 88.6812,-201.288 94.1155,-196.548 96.4008,-203.388 90.9665,-208.128"/>
</g>
<!-- ndVote&#45;&gt;ndError -->
<g id="edge9" class="edge"><title>ndVote&#45;&gt;ndError</title>
<path fill="none" stroke="black" d="M92.5013,-160.322C86.9544,-151.336 79.9731,-140.026 73.434,-129.433"/>
<polygon fill="black" stroke="black" points="73.415,-129.402 66.8596,-126.398 67.1117,-119.191 73.6671,-122.195 73.415,-129.402"/>
</g>
<!-- ndVote&#45;&gt;ndState -->
<g id="edge10" class="edge"><title>ndVote&#45;&gt;ndState</title>
<path fill="none" stroke="black" d="M103.823,-160.219C104.418,-139.237 104.555,-102.83 100.105,-72 98.8814,-63.5225 96.7878,-54.4552 94.5872,-46.2605"/>
<polygon fill="black" stroke="black" points="91.7998,-36.4574 98.8633,-44.8454 93.1673,-41.2668 94.5348,-46.0761 94.5348,-46.0761 94.5348,-46.0761 93.1673,-41.2668 90.2064,-47.3069 91.7998,-36.4574 91.7998,-36.4574"/>
</g>
<!-- ndVote&#45;&gt;ndBallot -->
<g id="edge11" class="edge"><title>ndVote&#45;&gt;ndBallot</title>
<path fill="none" stroke="black" d="M105.359,-196.548C104.603,-205.103 102.846,-215.789 100.612,-225.961"/>
<polygon fill="black" stroke="black" points="100.534,-226.28 102.995,-233.058 97.6852,-237.937 95.2241,-231.159 100.534,-226.28"/>
</g>
<!-- ndVoteMsg -->
<g id="node9" class="node"><title>ndVoteMsg</title>
<text text-anchor="middle" x="189.105" y="-91.8" font-family="Times,serif" font-size="14.00">ndVoteMsg</text>
</g>
<!-- ndVote&#45;&gt;ndVoteMsg -->
<g id="edge12" class="edge"><title>ndVote&#45;&gt;ndVoteMsg</title>
<path fill="none" stroke="black" d="M121.343,-160.322C133.201,-149.153 148.87,-134.395 162.154,-121.884"/>
<polygon fill="black" stroke="black" points="162.157,-121.881 163.783,-114.855 170.893,-113.653 169.268,-120.679 162.157,-121.881"/>
</g>
<!-- ndVoteMsg&#45;&gt;ndState -->
<g id="edge13" class="edge"><title>ndVoteMsg&#45;&gt;ndState</title>
<path fill="none" stroke="black" d="M165.733,-77.3679C151.51,-66.9425 133.158,-53.4907 117.658,-42.1289"/>
<polygon fill="black" stroke="black" points="109.385,-36.0643 120.11,-38.3469 113.417,-39.0203 117.45,-41.9763 117.45,-41.9763 117.45,-41.9763 113.417,-39.0203 114.79,-45.6057 109.385,-36.0643 109.385,-36.0643"/>
</g>
</g>
</svg>
