<?xml version="1.0" encoding="UTF-8" standalone="no"?>
<!DOCTYPE svg PUBLIC "-//W3C//DTD SVG 1.1//EN"
 "http://www.w3.org/Graphics/SVG/1.1/DTD/svg11.dtd">
<!-- Generated by graphviz version 2.38.0 (20140413.2041)
 -->
<!-- Title: ml Pages: 1 -->
<svg width="250pt" height="221pt"
 viewBox="0.00 0.00 249.50 221.00" xmlns="http://www.w3.org/2000/svg" xmlns:xlink="http://www.w3.org/1999/xlink">
<g id="graph0" class="graph" transform="scale(1 1) rotate(0) translate(4 217)">
<title>ml</title>
<polygon fill="white" stroke="none" points="-4,4 -4,-217 245.5,-217 245.5,4 -4,4"/>
<!-- ndBank -->
<g id="node1" class="node"><title>ndBank</title>
<polygon fill="lightblue" stroke="none" points="9.5,-4.5 9.5,-41.5 68.5,-41.5 68.5,-4.5 9.5,-4.5"/>
<polygon fill="none" stroke="black" points="9.5,-4.5 9.5,-41.5 68.5,-41.5 68.5,-4.5 9.5,-4.5"/>
<text text-anchor="start" x="20.5" y="-20.3" font-family="Arial" font-weight="bold" font-size="14.00">Bank</text>
<polygon fill="none" stroke="black" points="8,-4 8,-43 69,-43 69,-4 8,-4"/>
</g>
<!-- ndValidationError -->
<g id="node2" class="node"><title>ndValidationError</title>
<polygon fill="yellow" stroke="none" points="104.5,-4.5 104.5,-41.5 232.5,-41.5 232.5,-4.5 104.5,-4.5"/>
<polygon fill="none" stroke="black" points="104.5,-4.5 104.5,-41.5 232.5,-41.5 232.5,-4.5 104.5,-4.5"/>
<text text-anchor="start" x="115.5" y="-20.3" font-family="Arial" font-weight="bold" font-size="14.00">ValidationError</text>
<polygon fill="none" stroke="black" points="103.5,-4 103.5,-43 233.5,-43 233.5,-4 103.5,-4"/>
</g>
<!-- ndOp -->
<g id="node3" class="node"><title>ndOp</title>
<polygon fill="yellow" stroke="none" points="76.5,-87.5 76.5,-124.5 119.5,-124.5 119.5,-87.5 76.5,-87.5"/>
<polygon fill="none" stroke="black" points="76.5,-87.5 76.5,-124.5 119.5,-124.5 119.5,-87.5 76.5,-87.5"/>
<text text-anchor="start" x="87.5" y="-103.3" font-family="Arial" font-weight="bold" font-size="14.00">Op</text>
<polygon fill="none" stroke="black" points="75,-87 75,-126 120,-126 120,-87 75,-87"/>
</g>
<!-- ndOp&#45;&gt;ndBank -->
<g id="edge1" class="edge"><title>ndOp&#45;&gt;ndBank</title>
<path fill="none" stroke="black" d="M81.0652,-82.937C74.8521,-74.4071 67.6701,-64.547 60.9957,-55.3839"/>
<polygon fill="black" stroke="black" points="55.0513,-47.2229 64.5763,-52.6565 57.9951,-51.2645 60.939,-55.306 60.939,-55.306 60.939,-55.306 57.9951,-51.2645 57.3016,-57.9555 55.0513,-47.2229 55.0513,-47.2229"/>
</g>
<!-- ndOp&#45;&gt;ndValidationError -->
<g id="edge2" class="edge"><title>ndOp&#45;&gt;ndValidationError</title>
<path fill="none" stroke="black" stroke-dasharray="5,2" d="M117.277,-82.937C124.907,-74.2331 133.75,-64.144 141.92,-54.8238"/>
<polygon fill="black" stroke="black" points="148.582,-47.2229 145.375,-57.7092 145.287,-50.983 141.991,-54.743 141.991,-54.743 141.991,-54.743 145.287,-50.983 138.607,-51.7767 148.582,-47.2229 148.582,-47.2229"/>
</g>
<!-- ndTransfer -->
<g id="node4" class="node"><title>ndTransfer</title>
<polygon fill="lightblue" stroke="none" points="26.5,-170.5 26.5,-207.5 108.5,-207.5 108.5,-170.5 26.5,-170.5"/>
<polygon fill="none" stroke="black" points="26.5,-170.5 26.5,-207.5 108.5,-207.5 108.5,-170.5 26.5,-170.5"/>
<text text-anchor="start" x="37.5" y="-186.3" font-family="Arial" font-weight="bold" font-size="14.00">Transfer</text>
<polygon fill="none" stroke="black" points="25.5,-170 25.5,-209 109.5,-209 109.5,-170 25.5,-170"/>
</g>
<!-- ndTransfer&#45;&gt;ndBank -->
<g id="edge3" class="edge"><title>ndTransfer&#45;&gt;ndBank</title>
<path fill="none" stroke="black" d="M63.4677,-165.697C58.5764,-138.036 50.2825,-91.1318 44.6061,-59.0311"/>
<polygon fill="black" stroke="black" points="44.5877,-58.9265 39.604,-53.7147 42.4981,-47.1098 47.4818,-52.3216 44.5877,-58.9265"/>
</g>
<!-- ndTransfer&#45;&gt;ndOp -->
<g id="edge4" class="edge"><title>ndTransfer&#45;&gt;ndOp</title>
<path fill="none" stroke="black" d="M75.8567,-165.937C78.6613,-158.365 81.8542,-149.744 84.91,-141.493"/>
<polygon fill="black" stroke="black" points="84.9163,-141.476 83.2492,-134.46 89.0841,-130.223 90.7512,-137.239 84.9163,-141.476"/>
</g>
</g>
</svg>
