<?xml version="1.0" encoding="UTF-8" standalone="no"?>
<!DOCTYPE svg PUBLIC "-//W3C//DTD SVG 1.1//EN"
 "http://www.w3.org/Graphics/SVG/1.1/DTD/svg11.dtd">
<!-- Generated by graphviz version 2.38.0 (20140413.2041)
 -->
<!-- Title: ml Pages: 1 -->
<svg width="540pt" height="467pt"
 viewBox="0.00 0.00 540.00 467.00" xmlns="http://www.w3.org/2000/svg" xmlns:xlink="http://www.w3.org/1999/xlink">
<g id="graph0" class="graph" transform="scale(1 1) rotate(0) translate(4 463)">
<title>ml</title>
<polygon fill="white" stroke="none" points="-4,4 -4,-463 536,-463 536,4 -4,4"/>
<!-- ndBank -->
<g id="node1" class="node"><title>ndBank</title>
<g id="a_node1_0"><a xlink:href="https://github.com/maidsafe/brb_dt_at2/blob/master/src/bank.rs#:~:text=struct%20Bank" xlink:title="&lt;TABLE&gt;">
<polygon fill="lightblue" stroke="none" points="9,-86.5 9,-123.5 325,-123.5 325,-86.5 9,-86.5"/>
<polygon fill="none" stroke="black" points="9,-86.5 9,-123.5 325,-123.5 325,-86.5 9,-86.5"/>
<text text-anchor="start" x="148.5" y="-102.3" font-family="Arial" font-weight="bold" font-size="14.00">Bank</text>
<polygon fill="white" stroke="none" points="9,-4.5 9,-86.5 325,-86.5 325,-4.5 9,-4.5"/>
<polygon fill="none" stroke="black" points="9,-4.5 9,-86.5 325,-86.5 325,-4.5 9,-4.5"/>
<text text-anchor="start" x="20" y="-64.3" font-family="Arial" font-size="14.00">&#45; id: A</text>
<text text-anchor="start" x="20" y="-49.3" font-family="Arial" font-size="14.00">&#45; deps: BTreeSet&lt;Transfer&lt;A&gt;&gt;</text>
<text text-anchor="start" x="20" y="-34.3" font-family="Arial" font-size="14.00">&#45; initial_balances: BTreeMap&lt;A, Money&gt;</text>
<text text-anchor="start" x="20" y="-19.3" font-family="Arial" font-size="14.00">&#45; hist: BTreeMap&lt;A, BTreeSet&lt;Transfer&lt;A&gt;&gt;&gt;</text>
<polygon fill="none" stroke="black" points="8,-4 8,-125 326,-125 326,-4 8,-4"/>
</a>
</g>
</g>
<!-- ndValidationError -->
<g id="node2" class="node"><title>ndValidationError</title>
<g id="a_node2_1"><a xlink:href="https://github.com/maidsafe/brb_dt_at2/blob/master/src/bank.rs#:~:text=enum%20ValidationError" xlink:title="&lt;TABLE&gt;">
<polygon fill="yellow" stroke="none" points="317,-416.5 317,-453.5 523,-453.5 523,-416.5 317,-416.5"/>
<polygon fill="none" stroke="black" points="317,-416.5 317,-453.5 523,-453.5 523,-416.5 317,-416.5"/>
<text text-anchor="start" x="367" y="-432.3" font-family="Arial" font-weight="bold" font-size="14.00">ValidationError</text>
<polygon fill="white" stroke="none" points="317,-304.5 317,-416.5 523,-416.5 523,-304.5 317,-304.5"/>
<polygon fill="none" stroke="black" points="317,-304.5 317,-416.5 523,-416.5 523,-304.5 317,-304.5"/>
<text text-anchor="start" x="328" y="-394.3" font-family="Arial" font-size="14.00">NotInitiatedByAccountOwner</text>
<text text-anchor="start" x="328" y="-379.3" font-family="Arial" font-size="14.00">FromAccountDoesNotExist</text>
<text text-anchor="start" x="328" y="-364.3" font-family="Arial" font-size="14.00">ToAccountDoesNotExist</text>
<text text-anchor="start" x="328" y="-349.3" font-family="Arial" font-size="14.00">InsufficientFunds</text>
<text text-anchor="start" x="328" y="-334.3" font-family="Arial" font-size="14.00">MissingDependentOps</text>
<text text-anchor="start" x="328" y="-319.3" font-family="Arial" font-size="14.00">OwnerAlreadyHasAnAccount</text>
<polygon fill="none" stroke="black" points="316,-304 316,-455 524,-455 524,-304 316,-304"/>
</a>
</g>
</g>
<!-- ndOp -->
<g id="node3" class="node"><title>ndOp</title>
<g id="a_node3_2"><a xlink:href="https://github.com/maidsafe/brb_dt_at2/blob/master/src/op.rs#:~:text=enum%20Op" xlink:title="&lt;TABLE&gt;">
<polygon fill="yellow" stroke="none" points="146,-221.5 146,-258.5 309,-258.5 309,-221.5 146,-221.5"/>
<polygon fill="none" stroke="black" points="146,-221.5 146,-258.5 309,-258.5 309,-221.5 146,-221.5"/>
<text text-anchor="start" x="217" y="-237.3" font-family="Arial" font-weight="bold" font-size="14.00">Op</text>
<polygon fill="white" stroke="none" points="146,-169.5 146,-221.5 309,-221.5 309,-169.5 146,-169.5"/>
<polygon fill="none" stroke="black" points="146,-169.5 146,-221.5 309,-221.5 309,-169.5 146,-169.5"/>
<text text-anchor="start" x="157" y="-199.3" font-family="Arial" font-size="14.00">Transfer(Transfer&lt;A&gt;)</text>
<text text-anchor="start" x="157" y="-184.3" font-family="Arial" font-size="14.00">OpenAccount</text>
<polygon fill="none" stroke="black" points="144.5,-169 144.5,-260 309.5,-260 309.5,-169 144.5,-169"/>
</a>
</g>
</g>
<!-- ndOp&#45;&gt;ndBank -->
<g id="edge1" class="edge"><title>ndOp&#45;&gt;ndBank</title>
<path fill="none" stroke="black" stroke-dasharray="5,2" d="M207.187,-164.629C203.803,-156.282 200.223,-147.45 196.649,-138.635"/>
<polygon fill="black" stroke="black" points="192.784,-129.1 200.711,-136.677 194.662,-133.734 196.541,-138.367 196.541,-138.367 196.541,-138.367 194.662,-133.734 192.371,-140.058 192.784,-129.1 192.784,-129.1"/>
</g>
<!-- ndTransfer -->
<g id="node4" class="node"><title>ndTransfer</title>
<g id="a_node4_3"><a xlink:href="https://github.com/maidsafe/brb_dt_at2/blob/master/src/transfer.rs#:~:text=struct%20Transfer" xlink:title="&lt;TABLE&gt;">
<polygon fill="lightblue" stroke="none" points="54,-401.5 54,-438.5 281,-438.5 281,-401.5 54,-401.5"/>
<polygon fill="none" stroke="black" points="54,-401.5 54,-438.5 281,-438.5 281,-401.5 54,-401.5"/>
<text text-anchor="start" x="137.5" y="-417.3" font-family="Arial" font-weight="bold" font-size="14.00">Transfer</text>
<polygon fill="white" stroke="none" points="54,-319.5 54,-401.5 281,-401.5 281,-319.5 54,-319.5"/>
<polygon fill="none" stroke="black" points="54,-319.5 54,-401.5 281,-401.5 281,-319.5 54,-319.5"/>
<text text-anchor="start" x="65" y="-379.3" font-family="Arial" font-size="14.00">&#45; from: A</text>
<text text-anchor="start" x="65" y="-364.3" font-family="Arial" font-size="14.00">&#45; to: A</text>
<text text-anchor="start" x="65" y="-349.3" font-family="Arial" font-size="14.00">&#45; amount: Money</text>
<text text-anchor="start" x="65" y="-334.3" font-family="Arial" font-size="14.00">&#45; deps: BTreeSet&lt;Transfer&lt;A&gt;&gt;</text>
<polygon fill="none" stroke="black" points="52.5,-319 52.5,-440 281.5,-440 281.5,-319 52.5,-319"/>
</a>
</g>
</g>
<!-- ndTransfer&#45;&gt;ndBank -->
<g id="edge2" class="edge"><title>ndTransfer&#45;&gt;ndBank</title>
<path fill="none" stroke="black" d="M141.24,-314.962C135.765,-298.624 130.797,-280.885 128,-264 120.81,-220.591 119.829,-208.235 128,-165 129.505,-157.038 131.631,-148.897 134.123,-140.87"/>
<polygon fill="black" stroke="black" points="134.21,-140.608 132.313,-133.651 138.006,-129.224 139.903,-136.181 134.21,-140.608"/>
</g>
<!-- ndTransfer&#45;&gt;ndOp -->
<g id="edge3" class="edge"><title>ndTransfer&#45;&gt;ndOp</title>
<path fill="none" stroke="black" d="M190.541,-314.546C195.267,-301.708 200.217,-288.261 204.892,-275.561"/>
<polygon fill="black" stroke="black" points="204.948,-275.408 203.267,-268.396 209.093,-264.147 210.774,-271.159 204.948,-275.408"/>
</g>
</g>
</svg>
