<?xml version="1.0" encoding="UTF-8" standalone="no"?>
<!DOCTYPE svg PUBLIC "-//W3C//DTD SVG 1.1//EN"
 "http://www.w3.org/Graphics/SVG/1.1/DTD/svg11.dtd">
<!-- Generated by graphviz version 2.38.0 (20140413.2041)
 -->
<!-- Title: ml Pages: 1 -->
<svg width="922pt" height="1567pt"
 viewBox="0.00 0.00 922.00 1567.00" xmlns="http://www.w3.org/2000/svg" xmlns:xlink="http://www.w3.org/1999/xlink">
<g id="graph0" class="graph" transform="scale(1 1) rotate(0) translate(4 1563)">
<title>ml</title>
<polygon fill="white" stroke="none" points="-4,4 -4,-1563 918,-1563 918,4 -4,4"/>
<!-- ndError -->
<g id="node1" class="node"><title>ndError</title>
<g id="a_node1_0"><a xlink:href="https://github.com/maidsafe/brb_membership/blob/master/src/error.rs#:~:text=enum%20Error" xlink:title="&lt;TABLE&gt;">
<polygon fill="yellow" stroke="none" points="154.5,-865.5 154.5,-902.5 423.5,-902.5 423.5,-865.5 154.5,-865.5"/>
<polygon fill="none" stroke="black" points="154.5,-865.5 154.5,-902.5 423.5,-902.5 423.5,-865.5 154.5,-865.5"/>
<text text-anchor="start" x="270.5" y="-881.3" font-family="Arial" font-weight="bold" font-size="14.00">Error</text>
<polygon fill="white" stroke="none" points="154.5,-603.5 154.5,-865.5 423.5,-865.5 423.5,-603.5 154.5,-603.5"/>
<polygon fill="none" stroke="black" points="154.5,-603.5 154.5,-865.5 423.5,-865.5 423.5,-603.5 154.5,-603.5"/>
<text text-anchor="start" x="165.5" y="-843.3" font-family="Arial" font-size="14.00">IO(std::io::Error)</text>
<text text-anchor="start" x="165.5" y="-828.3" font-family="Arial" font-size="14.00">NoMembers</text>
<text text-anchor="start" x="165.5" y="-813.3" font-family="Arial" font-size="14.00">InvalidSignature(signature::Error)</text>
<text text-anchor="start" x="165.5" y="-798.3" font-family="Arial" font-size="14.00">WrongDestination</text>
<text text-anchor="start" x="165.5" y="-783.3" font-family="Arial" font-size="14.00">MembersAtCapacity</text>
<text text-anchor="start" x="165.5" y="-768.3" font-family="Arial" font-size="14.00">JoinRequestForExistingMember</text>
<text text-anchor="start" x="165.5" y="-753.3" font-family="Arial" font-size="14.00">LeaveRequestForNonMember</text>
<text text-anchor="start" x="165.5" y="-738.3" font-family="Arial" font-size="14.00">VoteNotForNextGeneration</text>
<text text-anchor="start" x="165.5" y="-723.3" font-family="Arial" font-size="14.00">VoteFromNonMember</text>
<text text-anchor="start" x="165.5" y="-708.3" font-family="Arial" font-size="14.00">VoterChangedMind</text>
<text text-anchor="start" x="165.5" y="-693.3" font-family="Arial" font-size="14.00">ExistingVoteIncompatibleWithNewVote</text>
<text text-anchor="start" x="165.5" y="-678.3" font-family="Arial" font-size="14.00">SuperMajorityBallotIsNotSuperMajority</text>
<text text-anchor="start" x="165.5" y="-663.3" font-family="Arial" font-size="14.00">InvalidGeneration(Generation)</text>
<text text-anchor="start" x="165.5" y="-648.3" font-family="Arial" font-size="14.00">InvalidVoteInHistory(Vote&lt;A, S&gt;)</text>
<text text-anchor="start" x="165.5" y="-633.3" font-family="Arial" font-size="14.00">Encoding(bincode::Error)</text>
<text text-anchor="start" x="165.5" y="-618.3" font-family="Arial" font-size="14.00">Other(String)</text>
<polygon fill="white" stroke="none" points="154.5,-551.5 154.5,-603.5 423.5,-603.5 423.5,-551.5 154.5,-551.5"/>
<polygon fill="none" stroke="black" points="154.5,-551.5 154.5,-603.5 423.5,-603.5 423.5,-551.5 154.5,-551.5"/>
<text text-anchor="start" x="165.5" y="-581.3" font-family="Arial" font-size="14.00">&#45; from(v: String) &#45;&gt; Self</text>
<text text-anchor="start" x="165.5" y="-566.3" font-family="Arial" font-size="14.00">&#45; from(v: &amp;&#39;static str) &#45;&gt; Self</text>
<polygon fill="none" stroke="black" points="153,-551 153,-904 424,-904 424,-551 153,-551"/>
</a>
</g>
</g>
<!-- ndState -->
<g id="node2" class="node"><title>ndState</title>
<g id="a_node2_1"><a xlink:href="https://github.com/maidsafe/brb_membership/blob/master/src/brb_membership.rs#:~:text=struct%20State" xlink:title="&lt;TABLE&gt;">
<polygon fill="lightblue" stroke="none" points="9.5,-468.5 9.5,-505.5 740.5,-505.5 740.5,-468.5 9.5,-468.5"/>
<polygon fill="none" stroke="black" points="9.5,-468.5 9.5,-505.5 740.5,-505.5 740.5,-468.5 9.5,-468.5"/>
<text text-anchor="start" x="357" y="-484.3" font-family="Arial" font-weight="bold" font-size="14.00">State</text>
<polygon fill="white" stroke="none" points="9.5,-341.5 9.5,-468.5 740.5,-468.5 740.5,-341.5 9.5,-341.5"/>
<polygon fill="none" stroke="black" points="9.5,-341.5 9.5,-468.5 740.5,-468.5 740.5,-341.5 9.5,-341.5"/>
<text text-anchor="start" x="20.5" y="-446.3" font-family="Arial" font-size="14.00">+ id: SA</text>
<text text-anchor="start" x="20.5" y="-431.3" font-family="Arial" font-size="14.00">+ gen: Generation</text>
<text text-anchor="start" x="20.5" y="-416.3" font-family="Arial" font-size="14.00">+ pending_gen: Generation</text>
<text text-anchor="start" x="20.5" y="-401.3" font-family="Arial" font-size="14.00">+ forced_reconfigs: BTreeMap&lt;Generation, BTreeSet&lt;Reconfig&lt;A&gt;&gt;&gt;</text>
<text text-anchor="start" x="20.5" y="-386.3" font-family="Arial" font-size="14.00">+ history: BTreeMap&lt;Generation, Vote&lt;A, S&gt;&gt;</text>
<text text-anchor="start" x="20.5" y="-371.3" font-family="Arial" font-size="14.00">+ votes: BTreeMap&lt;A, Vote&lt;A, S&gt;&gt;</text>
<text text-anchor="start" x="20.5" y="-356.3" font-family="Arial" font-size="14.00">+ faulty: bool</text>
<polygon fill="white" stroke="none" points="9.5,-4.5 9.5,-341.5 740.5,-341.5 740.5,-4.5 9.5,-4.5"/>
<polygon fill="none" stroke="black" points="9.5,-4.5 9.5,-341.5 740.5,-341.5 740.5,-4.5 9.5,-4.5"/>
<text text-anchor="start" x="20.5" y="-319.3" font-family="Arial" font-size="14.00">&#45; default() &#45;&gt; Self</text>
<text text-anchor="start" x="20.5" y="-304.3" font-family="Arial" font-size="14.00">&#45; new() &#45;&gt; Self</text>
<text text-anchor="start" x="20.5" y="-289.3" font-family="Arial" font-size="14.00">&#45; force_join(&amp;mut self, actor: A)</text>
<text text-anchor="start" x="20.5" y="-274.3" font-family="Arial" font-size="14.00">&#45; force_leave(&amp;mut self, actor: A)</text>
<text text-anchor="start" x="20.5" y="-259.3" font-family="Arial" font-size="14.00">&#45; members(&amp;self, gen: Generation) &#45;&gt; Result&lt;BTreeSet&lt;A&gt;, Error&lt;A, S&gt;&gt;</text>
<text text-anchor="start" x="20.5" y="-244.3" font-family="Arial" font-size="14.00">&#45; propose(&amp;mut self, reconfig: Reconfig&lt;A&gt;) &#45;&gt; Result&lt;Vec&lt;VoteMsg&lt;A, S&gt;&gt;, Error&lt;A, S&gt;&gt;</text>
<text text-anchor="start" x="20.5" y="-229.3" font-family="Arial" font-size="14.00">&#45; anti_entropy(&amp;self, from_gen: Generation, actor: A) &#45;&gt; Vec&lt;VoteMsg&lt;A, S&gt;&gt;</text>
<text text-anchor="start" x="20.5" y="-214.3" font-family="Arial" font-size="14.00">&#45; handle_vote(&amp;mut self, vote: Vote&lt;A, S&gt;) &#45;&gt; Result&lt;Vec&lt;VoteMsg&lt;A, S&gt;&gt;, Error&lt;A, S&gt;&gt;</text>
<text text-anchor="start" x="20.5" y="-199.3" font-family="Arial" font-size="14.00">&#45; build_vote(&amp;self, gen: Generation, ballot: Ballot&lt;A, S&gt;) &#45;&gt; Result&lt;Vote&lt;A, S&gt;, Error&lt;A, S&gt;&gt;</text>
<text text-anchor="start" x="20.5" y="-184.3" font-family="Arial" font-size="14.00">&#45; cast_vote(&amp;mut self, vote: Vote&lt;A, S&gt;) &#45;&gt; Result&lt;Vec&lt;VoteMsg&lt;A, S&gt;&gt;, Error&lt;A, S&gt;&gt;</text>
<text text-anchor="start" x="20.5" y="-169.3" font-family="Arial" font-size="14.00">&#45; log_vote(&amp;mut self, vote: &amp;Vote&lt;A, S&gt;)</text>
<text text-anchor="start" x="20.5" y="-154.3" font-family="Arial" font-size="14.00">&#45; count_votes(&amp;self, votes: &amp;BTreeSet&lt;Vote&lt;A, S&gt;&gt;) &#45;&gt; BTreeMap&lt;BTreeSet&lt;Reconfig&lt;A&gt;&gt;, usize&gt;</text>
<text text-anchor="start" x="20.5" y="-139.3" font-family="Arial" font-size="14.00">&#45; is_split_vote(&amp;self, votes: &amp;BTreeSet&lt;Vote&lt;A, S&gt;&gt;) &#45;&gt; Result&lt;bool, Error&lt;A, S&gt;&gt;</text>
<text text-anchor="start" x="20.5" y="-124.3" font-family="Arial" font-size="14.00">&#45; is_super_majority(&amp;self, votes: &amp;BTreeSet&lt;Vote&lt;A, S&gt;&gt;) &#45;&gt; Result&lt;bool, Error&lt;A, S&gt;&gt;</text>
<text text-anchor="start" x="20.5" y="-109.3" font-family="Arial" font-size="14.00">&#45; is_super_majority_over_super_majorities(&amp;self, votes: &amp;BTreeSet&lt;Vote&lt;A, S&gt;&gt;) &#45;&gt; Result&lt;bool, Error&lt;A, S&gt;&gt;</text>
<text text-anchor="start" x="20.5" y="-94.3" font-family="Arial" font-size="14.00">&#45; resolve_votes(&amp;self, votes: &amp;BTreeSet&lt;Vote&lt;A, S&gt;&gt;) &#45;&gt; BTreeSet&lt;Reconfig&lt;A&gt;&gt;</text>
<text text-anchor="start" x="20.5" y="-79.3" font-family="Arial" font-size="14.00">&#45; validate_vote(&amp;self, vote: &amp;Vote&lt;A, S&gt;) &#45;&gt; Result&lt;(), Error&lt;A, S&gt;&gt;</text>
<text text-anchor="start" x="20.5" y="-64.3" font-family="Arial" font-size="14.00">&#45; validate_ballot(&amp;self, gen: Generation, ballot: &amp;Ballot&lt;A, S&gt;) &#45;&gt; Result&lt;(), Error&lt;A, S&gt;&gt;</text>
<text text-anchor="start" x="20.5" y="-49.3" font-family="Arial" font-size="14.00">&#45; validate_reconfig(&amp;self, reconfig: &amp;Reconfig&lt;A&gt;) &#45;&gt; Result&lt;(), Error&lt;A, S&gt;&gt;</text>
<text text-anchor="start" x="20.5" y="-34.3" font-family="Arial" font-size="14.00">&#45; broadcast(&amp;self, vote: Vote&lt;A, S&gt;) &#45;&gt; Result&lt;Vec&lt;VoteMsg&lt;A, S&gt;&gt;, Error&lt;A, S&gt;&gt;</text>
<text text-anchor="start" x="20.5" y="-19.3" font-family="Arial" font-size="14.00">&#45; send(&amp;self, vote: Vote&lt;A, S&gt;, dest: A) &#45;&gt; VoteMsg&lt;A, S&gt;</text>
<polygon fill="none" stroke="black" points="8,-4 8,-507 741,-507 741,-4 8,-4"/>
</a>
</g>
</g>
<!-- ndError&#45;&gt;ndState -->
<g id="edge1" class="edge"><title>ndError&#45;&gt;ndState</title>
<path fill="none" stroke="black" d="M321.381,-546.801C322.915,-538.42 324.467,-529.938 326.028,-521.404"/>
<polygon fill="black" stroke="black" points="327.866,-511.363 330.492,-522.009 326.966,-516.281 326.066,-521.199 326.066,-521.199 326.066,-521.199 326.966,-516.281 321.639,-520.389 327.866,-511.363 327.866,-511.363"/>
</g>
<!-- ndReconfig -->
<g id="node3" class="node"><title>ndReconfig</title>
<g id="a_node3_2"><a xlink:href="https://github.com/maidsafe/brb_membership/blob/master/src/brb_membership.rs#:~:text=enum%20Reconfig" xlink:title="&lt;TABLE&gt;">
<polygon fill="yellow" stroke="none" points="154.5,-1516.5 154.5,-1553.5 563.5,-1553.5 563.5,-1516.5 154.5,-1516.5"/>
<polygon fill="none" stroke="black" points="154.5,-1516.5 154.5,-1553.5 563.5,-1553.5 563.5,-1516.5 154.5,-1516.5"/>
<text text-anchor="start" x="328" y="-1532.3" font-family="Arial" font-weight="bold" font-size="14.00">Reconfig</text>
<polygon fill="white" stroke="none" points="154.5,-1464.5 154.5,-1516.5 563.5,-1516.5 563.5,-1464.5 154.5,-1464.5"/>
<polygon fill="none" stroke="black" points="154.5,-1464.5 154.5,-1516.5 563.5,-1516.5 563.5,-1464.5 154.5,-1464.5"/>
<text text-anchor="start" x="165.5" y="-1494.3" font-family="Arial" font-size="14.00">Join(A)</text>
<text text-anchor="start" x="165.5" y="-1479.3" font-family="Arial" font-size="14.00">Leave(A)</text>
<polygon fill="white" stroke="none" points="154.5,-1412.5 154.5,-1464.5 563.5,-1464.5 563.5,-1412.5 154.5,-1412.5"/>
<polygon fill="none" stroke="black" points="154.5,-1412.5 154.5,-1464.5 563.5,-1464.5 563.5,-1412.5 154.5,-1412.5"/>
<text text-anchor="start" x="165.5" y="-1442.3" font-family="Arial" font-size="14.00">&#45; fmt(&amp;self, f: &amp;mut std::fmt::Formatter&lt;&#39;_&gt;) &#45;&gt; std::fmt::Result</text>
<text text-anchor="start" x="165.5" y="-1427.3" font-family="Arial" font-size="14.00">&#45; apply(self, members: &amp;mut BTreeSet&lt;A&gt;)</text>
<polygon fill="none" stroke="black" points="153,-1412 153,-1555 564,-1555 564,-1412 153,-1412"/>
</a>
</g>
</g>
<!-- ndReconfig&#45;&gt;ndState -->
<g id="edge2" class="edge"><title>ndReconfig&#45;&gt;ndState</title>
<path fill="none" stroke="black" d="M166.147,-1407.65C154.293,-1397.23 143.815,-1385.4 135.5,-1372 -57.8282,-1060.44 11.7635,-892.158 135.5,-547 138.493,-538.652 141.84,-530.373 145.496,-522.178"/>
<polygon fill="black" stroke="black" points="145.608,-521.938 144.512,-514.811 150.669,-511.058 151.765,-518.185 145.608,-521.938"/>
</g>
<!-- ndBallot -->
<g id="node4" class="node"><title>ndBallot</title>
<g id="a_node4_3"><a xlink:href="https://github.com/maidsafe/brb_membership/blob/master/src/brb_membership.rs#:~:text=enum%20Ballot" xlink:title="&lt;TABLE&gt;">
<polygon fill="yellow" stroke="none" points="154.5,-1330 154.5,-1367 563.5,-1367 563.5,-1330 154.5,-1330"/>
<polygon fill="none" stroke="black" points="154.5,-1330 154.5,-1367 563.5,-1367 563.5,-1330 154.5,-1330"/>
<text text-anchor="start" x="339" y="-1345.8" font-family="Arial" font-weight="bold" font-size="14.00">Ballot</text>
<polygon fill="white" stroke="none" points="154.5,-1263 154.5,-1330 563.5,-1330 563.5,-1263 154.5,-1263"/>
<polygon fill="none" stroke="black" points="154.5,-1263 154.5,-1330 563.5,-1330 563.5,-1263 154.5,-1263"/>
<text text-anchor="start" x="165.5" y="-1307.8" font-family="Arial" font-size="14.00">Propose(Reconfig&lt;A&gt;)</text>
<text text-anchor="start" x="165.5" y="-1292.8" font-family="Arial" font-size="14.00">Merge(BTreeSet&lt;Vote&lt;A, S&gt;&gt;)</text>
<text text-anchor="start" x="165.5" y="-1277.8" font-family="Arial" font-size="14.00">SuperMajority(BTreeSet&lt;Vote&lt;A, S&gt;&gt;)</text>
<polygon fill="white" stroke="none" points="154.5,-1211 154.5,-1263 563.5,-1263 563.5,-1211 154.5,-1211"/>
<polygon fill="none" stroke="black" points="154.5,-1211 154.5,-1263 563.5,-1263 563.5,-1211 154.5,-1211"/>
<text text-anchor="start" x="165.5" y="-1240.8" font-family="Arial" font-size="14.00">&#45; fmt(&amp;self, f: &amp;mut std::fmt::Formatter&lt;&#39;_&gt;) &#45;&gt; std::fmt::Result</text>
<text text-anchor="start" x="165.5" y="-1225.8" font-family="Arial" font-size="14.00">&#45; simplify(&amp;self) &#45;&gt; Self</text>
<polygon fill="none" stroke="black" points="153,-1210 153,-1368 564,-1368 564,-1210 153,-1210"/>
</a>
</g>
</g>
<!-- ndReconfig&#45;&gt;ndBallot -->
<g id="edge3" class="edge"><title>ndReconfig&#45;&gt;ndBallot</title>
<path fill="none" stroke="black" d="M358.5,-1407.8C358.5,-1400.01 358.5,-1392.02 358.5,-1384.05"/>
<polygon fill="black" stroke="black" points="358.5,-1384 354.5,-1378 358.5,-1372 362.5,-1378 358.5,-1384"/>
</g>
<!-- ndVote -->
<g id="node5" class="node"><title>ndVote</title>
<g id="a_node5_4"><a xlink:href="https://github.com/maidsafe/brb_membership/blob/master/src/brb_membership.rs#:~:text=struct%20Vote" xlink:title="&lt;TABLE&gt;">
<polygon fill="lightblue" stroke="none" points="256.5,-1128 256.5,-1165 665.5,-1165 665.5,-1128 256.5,-1128"/>
<polygon fill="none" stroke="black" points="256.5,-1128 256.5,-1165 665.5,-1165 665.5,-1128 256.5,-1128"/>
<text text-anchor="start" x="445.5" y="-1143.8" font-family="Arial" font-weight="bold" font-size="14.00">Vote</text>
<polygon fill="white" stroke="none" points="256.5,-1046 256.5,-1128 665.5,-1128 665.5,-1046 256.5,-1046"/>
<polygon fill="none" stroke="black" points="256.5,-1046 256.5,-1128 665.5,-1128 665.5,-1046 256.5,-1046"/>
<text text-anchor="start" x="267.5" y="-1105.8" font-family="Arial" font-size="14.00">+ gen: Generation</text>
<text text-anchor="start" x="267.5" y="-1090.8" font-family="Arial" font-size="14.00">+ ballot: Ballot&lt;A, S&gt;</text>
<text text-anchor="start" x="267.5" y="-1075.8" font-family="Arial" font-size="14.00">+ voter: A</text>
<text text-anchor="start" x="267.5" y="-1060.8" font-family="Arial" font-size="14.00">+ sig: S</text>
<polygon fill="white" stroke="none" points="256.5,-949 256.5,-1046 665.5,-1046 665.5,-949 256.5,-949"/>
<polygon fill="none" stroke="black" points="256.5,-949 256.5,-1046 665.5,-1046 665.5,-949 256.5,-949"/>
<text text-anchor="start" x="267.5" y="-1023.8" font-family="Arial" font-size="14.00">&#45; fmt(&amp;self, f: &amp;mut std::fmt::Formatter&lt;&#39;_&gt;) &#45;&gt; std::fmt::Result</text>
<text text-anchor="start" x="267.5" y="-1008.8" font-family="Arial" font-size="14.00">&#45; is_super_majority_ballot(&amp;self) &#45;&gt; bool</text>
<text text-anchor="start" x="267.5" y="-993.8" font-family="Arial" font-size="14.00">&#45; unpack_votes(&amp;self) &#45;&gt; BTreeSet&lt;&amp;Vote&lt;A, S&gt;&gt;</text>
<text text-anchor="start" x="267.5" y="-978.8" font-family="Arial" font-size="14.00">&#45; reconfigs(&amp;self) &#45;&gt; BTreeSet&lt;(A, Reconfig&lt;A&gt;)&gt;</text>
<text text-anchor="start" x="267.5" y="-963.8" font-family="Arial" font-size="14.00">&#45; supersedes(&amp;self, vote: &amp;Vote&lt;A, S&gt;) &#45;&gt; bool</text>
<polygon fill="none" stroke="black" points="255,-948 255,-1166 666,-1166 666,-948 255,-948"/>
</a>
</g>
</g>
<!-- ndReconfig&#45;&gt;ndVote -->
<g id="edge4" class="edge"><title>ndReconfig&#45;&gt;ndVote</title>
<path fill="none" stroke="black" d="M550.853,-1407.65C562.707,-1397.23 573.185,-1385.4 581.5,-1372 620.4,-1309.31 606.29,-1275.49 581.5,-1206 578.196,-1196.74 574.037,-1187.64 569.264,-1178.79"/>
<polygon fill="black" stroke="black" points="564.295,-1170.02 573.141,-1176.5 566.761,-1174.37 569.227,-1178.72 569.227,-1178.72 569.227,-1178.72 566.761,-1174.37 565.312,-1180.94 564.295,-1170.02 564.295,-1170.02"/>
</g>
<!-- ndBallot&#45;&gt;ndVote -->
<g id="edge5" class="edge"><title>ndBallot&#45;&gt;ndVote</title>
<path fill="none" stroke="black" d="M394.892,-1205.94C398.473,-1197.87 402.158,-1189.56 405.869,-1181.19"/>
<polygon fill="black" stroke="black" points="405.89,-1181.14 404.666,-1174.03 410.755,-1170.17 411.979,-1177.28 405.89,-1181.14"/>
</g>
<!-- ndVote&#45;&gt;ndError -->
<g id="edge6" class="edge"><title>ndVote&#45;&gt;ndError</title>
<path fill="none" stroke="black" d="M401.548,-943.751C397.274,-935.614 392.902,-927.288 388.478,-918.865"/>
<polygon fill="black" stroke="black" points="388.431,-918.776 382.1,-915.324 382.852,-908.152 389.183,-911.604 388.431,-918.776"/>
</g>
<!-- ndVote&#45;&gt;ndState -->
<g id="edge7" class="edge"><title>ndVote&#45;&gt;ndState</title>
<path fill="none" stroke="black" d="M462,-943.788C461.985,-840.316 458.423,-682.676 440.5,-547 439.368,-538.432 438.103,-529.744 436.726,-520.989"/>
<polygon fill="black" stroke="black" points="435.126,-511.079 441.163,-520.234 435.923,-516.015 436.72,-520.951 436.72,-520.951 436.72,-520.951 435.923,-516.015 432.278,-521.669 435.126,-511.079 435.126,-511.079"/>
</g>
<!-- ndVoteMsg -->
<g id="node6" class="node"><title>ndVoteMsg</title>
<g id="a_node6_5"><a xlink:href="https://github.com/maidsafe/brb_membership/blob/master/src/brb_membership.rs#:~:text=struct%20VoteMsg" xlink:title="&lt;TABLE&gt;">
<polygon fill="lightblue" stroke="none" points="497.5,-734.5 497.5,-771.5 639.5,-771.5 639.5,-734.5 497.5,-734.5"/>
<polygon fill="none" stroke="black" points="497.5,-734.5 497.5,-771.5 639.5,-771.5 639.5,-734.5 497.5,-734.5"/>
<text text-anchor="start" x="538" y="-750.3" font-family="Arial" font-weight="bold" font-size="14.00">VoteMsg</text>
<polygon fill="white" stroke="none" points="497.5,-682.5 497.5,-734.5 639.5,-734.5 639.5,-682.5 497.5,-682.5"/>
<polygon fill="none" stroke="black" points="497.5,-682.5 497.5,-734.5 639.5,-734.5 639.5,-682.5 497.5,-682.5"/>
<text text-anchor="start" x="508.5" y="-712.3" font-family="Arial" font-size="14.00">+ vote: Vote&lt;A, S&gt;</text>
<text text-anchor="start" x="508.5" y="-697.3" font-family="Arial" font-size="14.00">+ dest: A</text>
<polygon fill="none" stroke="black" points="496.5,-682 496.5,-773 640.5,-773 640.5,-682 496.5,-682"/>
</a>
</g>
</g>
<!-- ndVote&#45;&gt;ndVoteMsg -->
<g id="edge8" class="edge"><title>ndVote&#45;&gt;ndVoteMsg</title>
<path fill="none" stroke="black" d="M497.516,-943.751C514.688,-891.68 534.411,-831.872 548.702,-788.536"/>
<polygon fill="black" stroke="black" points="548.731,-788.447 546.812,-781.496 552.49,-777.05 554.409,-784.001 548.731,-788.447"/>
</g>
<!-- ndVoteMsg&#45;&gt;ndState -->
<g id="edge9" class="edge"><title>ndVoteMsg&#45;&gt;ndState</title>
<path fill="none" stroke="black" d="M548.469,-677.972C532.401,-639.043 508.468,-581.061 483.458,-520.47"/>
<polygon fill="black" stroke="black" points="479.599,-511.12 487.574,-518.647 481.506,-515.742 483.414,-520.364 483.414,-520.364 483.414,-520.364 481.506,-515.742 479.254,-522.081 479.599,-511.12 479.599,-511.12"/>
</g>
<!-- ndActor -->
<g id="node7" class="node"><title>ndActor</title>
<g id="a_node7_6"><a xlink:href="https://github.com/maidsafe/brb_membership/blob/master/src/actor.rs#:~:text=trait%20Actor" xlink:title="&lt;TABLE&gt;">
<polygon fill="lightgreen" stroke="none" points="599.5,-1483.5 599.5,-1520.5 659.5,-1520.5 659.5,-1483.5 599.5,-1483.5"/>
<polygon fill="none" stroke="black" points="599.5,-1483.5 599.5,-1520.5 659.5,-1520.5 659.5,-1483.5 599.5,-1483.5"/>
<text text-anchor="start" x="610.5" y="-1499.3" font-family="Arial" font-weight="bold" font-size="14.00">Actor</text>
<polygon fill="white" stroke="none" points="599.5,-1445.5 599.5,-1483.5 659.5,-1483.5 659.5,-1445.5 599.5,-1445.5"/>
<polygon fill="none" stroke="black" points="599.5,-1445.5 599.5,-1483.5 659.5,-1483.5 659.5,-1445.5 599.5,-1445.5"/>
<polygon fill="none" stroke="black" points="598.5,-1445 598.5,-1522 660.5,-1522 660.5,-1445 598.5,-1445"/>
</a>
</g>
</g>
<!-- ndSigningActor -->
<g id="node8" class="node"><title>ndSigningActor</title>
<g id="a_node8_7"><a xlink:href="https://github.com/maidsafe/brb_membership/blob/master/src/actor.rs#:~:text=trait%20SigningActor" xlink:title="&lt;TABLE&gt;">
<polygon fill="lightgreen" stroke="none" points="695.5,-1483.5 695.5,-1520.5 823.5,-1520.5 823.5,-1483.5 695.5,-1483.5"/>
<polygon fill="none" stroke="black" points="695.5,-1483.5 695.5,-1520.5 823.5,-1520.5 823.5,-1483.5 695.5,-1483.5"/>
<text text-anchor="start" x="714" y="-1499.3" font-family="Arial" font-weight="bold" font-size="14.00">SigningActor</text>
<polygon fill="white" stroke="none" points="695.5,-1446.5 695.5,-1483.5 823.5,-1483.5 823.5,-1446.5 695.5,-1446.5"/>
<polygon fill="none" stroke="black" points="695.5,-1446.5 695.5,-1483.5 823.5,-1483.5 823.5,-1446.5 695.5,-1446.5"/>
<text text-anchor="start" x="706.5" y="-1461.3" font-family="Arial" font-size="14.00">actor(&amp;Self) &#45;&gt; A</text>
<polygon fill="none" stroke="black" points="694.5,-1445.5 694.5,-1521.5 824.5,-1521.5 824.5,-1445.5 694.5,-1445.5"/>
</a>
</g>
</g>
<!-- ndSig -->
<g id="node9" class="node"><title>ndSig</title>
<g id="a_node9_8"><a xlink:href="https://github.com/maidsafe/brb_membership/blob/master/src/actor.rs#:~:text=trait%20Sig" xlink:title="&lt;TABLE&gt;">
<polygon fill="lightgreen" stroke="none" points="860.5,-1483.5 860.5,-1520.5 905.5,-1520.5 905.5,-1483.5 860.5,-1483.5"/>
<polygon fill="none" stroke="black" points="860.5,-1483.5 860.5,-1520.5 905.5,-1520.5 905.5,-1483.5 860.5,-1483.5"/>
<text text-anchor="start" x="871.5" y="-1499.3" font-family="Arial" font-weight="bold" font-size="14.00">Sig</text>
<polygon fill="white" stroke="none" points="860.5,-1445.5 860.5,-1483.5 905.5,-1483.5 905.5,-1445.5 860.5,-1445.5"/>
<polygon fill="none" stroke="black" points="860.5,-1445.5 860.5,-1483.5 905.5,-1483.5 905.5,-1445.5 860.5,-1445.5"/>
<polygon fill="none" stroke="black" points="859,-1445 859,-1522 906,-1522 906,-1445 859,-1445"/>
</a>
</g>
</g>
</g>
</svg>
