<?xml version="1.0" encoding="UTF-8" standalone="no"?>
<!DOCTYPE svg PUBLIC "-//W3C//DTD SVG 1.1//EN"
 "http://www.w3.org/Graphics/SVG/1.1/DTD/svg11.dtd">
<!-- Generated by graphviz version 2.38.0 (20140413.2041)
 -->
<!-- Title: ml Pages: 1 -->
<svg width="506pt" height="636pt"
 viewBox="0.00 0.00 505.50 636.00" xmlns="http://www.w3.org/2000/svg" xmlns:xlink="http://www.w3.org/1999/xlink">
<g id="graph0" class="graph" transform="scale(1 1) rotate(0) translate(4 632)">
<title>ml</title>
<polygon fill="white" stroke="none" points="-4,4 -4,-632 501.5,-632 501.5,4 -4,4"/>
<!-- ndError -->
<g id="node1" class="node"><title>ndError</title>
<g id="a_node1_0"><a xlink:href="https://github.com/maidsafe/brb_membership/blob/master/src/bad_crypto.rs#:~:text=enum%20Error" xlink:title="&lt;TABLE&gt;">
<polygon fill="yellow" stroke="none" points="226.5,-585.5 226.5,-622.5 285.5,-622.5 285.5,-585.5 226.5,-585.5"/>
<polygon fill="none" stroke="black" points="226.5,-585.5 226.5,-622.5 285.5,-622.5 285.5,-585.5 226.5,-585.5"/>
<text text-anchor="start" x="237.5" y="-601.3" font-family="Arial" font-weight="bold" font-size="14.00">Error</text>
<polygon fill="none" stroke="black" points="225,-585 225,-624 286,-624 286,-585 225,-585"/>
</a>
</g>
</g>
<!-- ndPublicKey -->
<g id="node2" class="node"><title>ndPublicKey</title>
<g id="a_node2_1"><a xlink:href="https://github.com/maidsafe/brb_membership/blob/master/src/bad_crypto.rs#:~:text=struct%20PublicKey" xlink:title="&lt;TABLE&gt;">
<polygon fill="lightblue" stroke="none" points="125.5,-502.5 125.5,-539.5 218.5,-539.5 218.5,-502.5 125.5,-502.5"/>
<polygon fill="none" stroke="black" points="125.5,-502.5 125.5,-539.5 218.5,-539.5 218.5,-502.5 125.5,-502.5"/>
<text text-anchor="start" x="136.5" y="-518.3" font-family="Arial" font-weight="bold" font-size="14.00">PublicKey</text>
<polygon fill="none" stroke="black" points="124,-502 124,-541 219,-541 219,-502 124,-502"/>
</a>
</g>
</g>
<!-- ndError&#45;&gt;ndPublicKey -->
<g id="edge1" class="edge"><title>ndError&#45;&gt;ndPublicKey</title>
<path fill="none" stroke="black" d="M232.101,-580.937C222.894,-572.059 212.193,-561.74 202.368,-552.266"/>
<polygon fill="black" stroke="black" points="195.065,-545.223 205.387,-548.925 198.664,-548.694 202.263,-552.164 202.263,-552.164 202.263,-552.164 198.664,-548.694 199.139,-555.404 195.065,-545.223 195.065,-545.223"/>
</g>
<!-- ndSecretKey -->
<g id="node3" class="node"><title>ndSecretKey</title>
<g id="a_node3_2"><a xlink:href="https://github.com/maidsafe/brb_membership/blob/master/src/bad_crypto.rs#:~:text=struct%20SecretKey" xlink:title="&lt;TABLE&gt;">
<polygon fill="lightblue" stroke="none" points="9.5,-419.5 9.5,-456.5 104.5,-456.5 104.5,-419.5 9.5,-419.5"/>
<polygon fill="none" stroke="black" points="9.5,-419.5 9.5,-456.5 104.5,-456.5 104.5,-419.5 9.5,-419.5"/>
<text text-anchor="start" x="20.5" y="-435.3" font-family="Arial" font-weight="bold" font-size="14.00">SecretKey</text>
<polygon fill="none" stroke="black" points="8,-419 8,-458 105,-458 105,-419 8,-419"/>
</a>
</g>
</g>
<!-- ndPublicKey&#45;&gt;ndSecretKey -->
<g id="edge2" class="edge"><title>ndPublicKey&#45;&gt;ndSecretKey</title>
<path fill="none" stroke="black" d="M139.466,-497.937C126.367,-488.711 111.059,-477.928 97.1829,-468.155"/>
<polygon fill="black" stroke="black" points="88.761,-462.223 99.5279,-464.302 92.8488,-465.102 96.9366,-467.981 96.9366,-467.981 96.9366,-467.981 92.8488,-465.102 94.3453,-471.66 88.761,-462.223 88.761,-462.223"/>
</g>
<!-- ndState -->
<g id="node5" class="node"><title>ndState</title>
<g id="a_node5_3"><a xlink:href="https://github.com/maidsafe/brb_membership/blob/master/src/brb_membership.rs#:~:text=struct%20State" xlink:title="&lt;TABLE&gt;">
<polygon fill="lightblue" stroke="none" points="230.5,-4.5 230.5,-41.5 288.5,-41.5 288.5,-4.5 230.5,-4.5"/>
<polygon fill="none" stroke="black" points="230.5,-4.5 230.5,-41.5 288.5,-41.5 288.5,-4.5 230.5,-4.5"/>
<text text-anchor="start" x="241.5" y="-20.3" font-family="Arial" font-weight="bold" font-size="14.00">State</text>
<polygon fill="none" stroke="black" points="229.5,-4 229.5,-43 289.5,-43 289.5,-4 229.5,-4"/>
</a>
</g>
</g>
<!-- ndPublicKey&#45;&gt;ndState -->
<g id="edge3" class="edge"><title>ndPublicKey&#45;&gt;ndState</title>
<path fill="none" stroke="black" stroke-dasharray="5,2" d="M164.693,-497.922C155.841,-466.519 141.5,-407.732 141.5,-356.5 141.5,-356.5 141.5,-356.5 141.5,-188.5 141.5,-140.857 133.299,-122.115 160.5,-83 172.734,-65.4078 192.112,-52.2839 210.493,-42.9739"/>
<polygon fill="black" stroke="black" points="210.589,-42.9285 214.302,-36.7467 221.436,-37.7963 217.723,-43.9781 210.589,-42.9285"/>
</g>
<!-- ndReconfig -->
<g id="node6" class="node"><title>ndReconfig</title>
<g id="a_node6_4"><a xlink:href="https://github.com/maidsafe/brb_membership/blob/master/src/brb_membership.rs#:~:text=enum%20Reconfig" xlink:title="&lt;TABLE&gt;">
<polygon fill="yellow" stroke="none" points="358.5,-419.5 358.5,-456.5 442.5,-456.5 442.5,-419.5 358.5,-419.5"/>
<polygon fill="none" stroke="black" points="358.5,-419.5 358.5,-456.5 442.5,-456.5 442.5,-419.5 358.5,-419.5"/>
<text text-anchor="start" x="369.5" y="-435.3" font-family="Arial" font-weight="bold" font-size="14.00">Reconfig</text>
<polygon fill="none" stroke="black" points="357.5,-419 357.5,-458 443.5,-458 443.5,-419 357.5,-419"/>
</a>
</g>
</g>
<!-- ndPublicKey&#45;&gt;ndReconfig -->
<g id="edge4" class="edge"><title>ndPublicKey&#45;&gt;ndReconfig</title>
<path fill="none" stroke="black" d="M227.227,-500.789C260.651,-488.966 303.242,-473.901 337.833,-461.666"/>
<polygon fill="black" stroke="black" points="337.919,-461.636 342.242,-455.864 349.232,-457.634 344.909,-463.406 337.919,-461.636"/>
</g>
<!-- ndSignedVote -->
<g id="node9" class="node"><title>ndSignedVote</title>
<g id="a_node9_5"><a xlink:href="https://github.com/maidsafe/brb_membership/blob/master/src/brb_membership.rs#:~:text=struct%20SignedVote" xlink:title="&lt;TABLE&gt;">
<polygon fill="lightblue" stroke="none" points="245.5,-170.5 245.5,-207.5 347.5,-207.5 347.5,-170.5 245.5,-170.5"/>
<polygon fill="none" stroke="black" points="245.5,-170.5 245.5,-207.5 347.5,-207.5 347.5,-170.5 245.5,-170.5"/>
<text text-anchor="start" x="256.5" y="-186.3" font-family="Arial" font-weight="bold" font-size="14.00">SignedVote</text>
<polygon fill="none" stroke="black" points="244.5,-170 244.5,-209 348.5,-209 348.5,-170 244.5,-170"/>
</a>
</g>
</g>
<!-- ndPublicKey&#45;&gt;ndSignedVote -->
<g id="edge5" class="edge"><title>ndPublicKey&#45;&gt;ndSignedVote</title>
<path fill="none" stroke="black" d="M180.806,-497.968C185.037,-487.201 189.893,-474.059 193.5,-462 221.312,-369.03 195.992,-334.708 241.5,-249 246.63,-239.339 253.782,-230.104 261.235,-221.942"/>
<polygon fill="black" stroke="black" points="261.338,-221.836 262.639,-214.744 269.686,-213.217 268.385,-220.31 261.338,-221.836"/>
</g>
<!-- ndVoteMsg -->
<g id="node10" class="node"><title>ndVoteMsg</title>
<g id="a_node10_6"><a xlink:href="https://github.com/maidsafe/brb_membership/blob/master/src/brb_membership.rs#:~:text=struct%20VoteMsg" xlink:title="&lt;TABLE&gt;">
<polygon fill="lightblue" stroke="none" points="179.5,-87.5 179.5,-124.5 262.5,-124.5 262.5,-87.5 179.5,-87.5"/>
<polygon fill="none" stroke="black" points="179.5,-87.5 179.5,-124.5 262.5,-124.5 262.5,-87.5 179.5,-87.5"/>
<text text-anchor="start" x="190.5" y="-103.3" font-family="Arial" font-weight="bold" font-size="14.00">VoteMsg</text>
<polygon fill="none" stroke="black" points="178,-87 178,-126 263,-126 263,-87 178,-87"/>
</a>
</g>
</g>
<!-- ndPublicKey&#45;&gt;ndVoteMsg -->
<g id="edge6" class="edge"><title>ndPublicKey&#45;&gt;ndVoteMsg</title>
<path fill="none" stroke="black" d="M173.295,-497.968C175.654,-466.374 179.5,-407.098 179.5,-356.5 179.5,-356.5 179.5,-356.5 179.5,-271.5 179.5,-225.568 194.824,-174.502 206.735,-141.747"/>
<polygon fill="black" stroke="black" points="206.875,-141.372 205.24,-134.349 211.094,-130.138 212.729,-137.161 206.875,-141.372"/>
</g>
<!-- ndSecretKey&#45;&gt;ndState -->
<g id="edge7" class="edge"><title>ndSecretKey&#45;&gt;ndState</title>
<path fill="none" stroke="black" stroke-dasharray="5,2" d="M61.946,-414.837C69.027,-383.334 80.5,-324.433 80.5,-273.5 80.5,-273.5 80.5,-273.5 80.5,-188.5 80.5,-137.169 91.1681,-119.262 127.5,-83 149.987,-60.5568 182.563,-45.9972 209.726,-37.0162"/>
<polygon fill="black" stroke="black" points="209.922,-36.9553 214.462,-31.3525 221.379,-33.3881 216.84,-38.9909 209.922,-36.9553"/>
</g>
<!-- ndSignature -->
<g id="node4" class="node"><title>ndSignature</title>
<g id="a_node4_7"><a xlink:href="https://github.com/maidsafe/brb_membership/blob/master/src/bad_crypto.rs#:~:text=struct%20Signature" xlink:title="&lt;TABLE&gt;">
<polygon fill="lightblue" stroke="none" points="99.5,-585.5 99.5,-622.5 189.5,-622.5 189.5,-585.5 99.5,-585.5"/>
<polygon fill="none" stroke="black" points="99.5,-585.5 99.5,-622.5 189.5,-622.5 189.5,-585.5 99.5,-585.5"/>
<text text-anchor="start" x="110.5" y="-601.3" font-family="Arial" font-weight="bold" font-size="14.00">Signature</text>
<polygon fill="none" stroke="black" points="98.5,-585 98.5,-624 190.5,-624 190.5,-585 98.5,-585"/>
</a>
</g>
</g>
<!-- ndSignature&#45;&gt;ndPublicKey -->
<g id="edge8" class="edge"><title>ndSignature&#45;&gt;ndPublicKey</title>
<path fill="none" stroke="black" stroke-dasharray="5,2" d="M152.021,-580.937C154.719,-572.842 157.817,-563.55 160.736,-554.792"/>
<polygon fill="black" stroke="black" points="163.926,-545.223 165.032,-556.133 162.345,-549.966 160.763,-554.71 160.763,-554.71 160.763,-554.71 162.345,-549.966 156.494,-553.287 163.926,-545.223 163.926,-545.223"/>
</g>
<!-- ndSignature&#45;&gt;ndSecretKey -->
<g id="edge9" class="edge"><title>ndSignature&#45;&gt;ndSecretKey</title>
<path fill="none" stroke="black" d="M128.796,-580.876C121.649,-570.2 113.291,-557.16 106.5,-545 93.0446,-520.907 79.759,-492.601 70.2684,-471.377"/>
<polygon fill="black" stroke="black" points="66.1879,-462.165 74.3523,-469.486 68.2129,-466.737 70.2379,-471.308 70.2379,-471.308 70.2379,-471.308 68.2129,-466.737 66.1234,-473.131 66.1879,-462.165 66.1879,-462.165"/>
</g>
<!-- ndSignature&#45;&gt;ndSignedVote -->
<g id="edge10" class="edge"><title>ndSignature&#45;&gt;ndSignedVote</title>
<path fill="none" stroke="black" d="M189.014,-580.942C204.989,-571.372 222.299,-559.141 235.5,-545 272.014,-505.888 293.5,-493.008 293.5,-439.5 293.5,-439.5 293.5,-439.5 293.5,-354.5 293.5,-309.877 294.624,-258.435 295.496,-225.242"/>
<polygon fill="black" stroke="black" points="295.501,-225.042 291.666,-218.936 295.827,-213.046 299.663,-219.153 295.501,-225.042"/>
</g>
<!-- ndReconfig&#45;&gt;ndState -->
<g id="edge11" class="edge"><title>ndReconfig&#45;&gt;ndState</title>
<path fill="none" stroke="black" stroke-dasharray="5,2" d="M424.727,-414.751C453.458,-385.188 497.5,-330.562 497.5,-273.5 497.5,-273.5 497.5,-273.5 497.5,-188.5 497.5,-98.0861 379.599,-53.7022 309.762,-35.3428"/>
<polygon fill="black" stroke="black" points="309.375,-35.2453 302.579,-37.6579 297.739,-32.313 304.534,-29.9004 309.375,-35.2453"/>
</g>
<!-- ndBallot -->
<g id="node7" class="node"><title>ndBallot</title>
<g id="a_node7_8"><a xlink:href="https://github.com/maidsafe/brb_membership/blob/master/src/brb_membership.rs#:~:text=enum%20Ballot" xlink:title="&lt;TABLE&gt;">
<polygon fill="yellow" stroke="none" points="330.5,-336.5 330.5,-373.5 392.5,-373.5 392.5,-336.5 330.5,-336.5"/>
<polygon fill="none" stroke="black" points="330.5,-336.5 330.5,-373.5 392.5,-373.5 392.5,-336.5 330.5,-336.5"/>
<text text-anchor="start" x="341.5" y="-352.3" font-family="Arial" font-weight="bold" font-size="14.00">Ballot</text>
<polygon fill="none" stroke="black" points="329.5,-336 329.5,-375 393.5,-375 393.5,-336 329.5,-336"/>
</a>
</g>
</g>
<!-- ndReconfig&#45;&gt;ndBallot -->
<g id="edge12" class="edge"><title>ndReconfig&#45;&gt;ndBallot</title>
<path fill="none" stroke="black" d="M389.636,-414.937C385.948,-407.278 381.744,-398.545 377.73,-390.209"/>
<polygon fill="black" stroke="black" points="377.647,-390.035 371.44,-386.364 372.441,-379.223 378.648,-382.894 377.647,-390.035"/>
</g>
<!-- ndReconfig&#45;&gt;ndSignedVote -->
<g id="edge13" class="edge"><title>ndReconfig&#45;&gt;ndSignedVote</title>
<path fill="none" stroke="black" d="M408.141,-414.591C414.17,-392.749 420.108,-359.24 410.5,-332 405.932,-319.05 354.843,-258.259 322.627,-220.695"/>
<polygon fill="black" stroke="black" points="316.063,-213.058 325.994,-217.708 319.322,-216.849 322.581,-220.641 322.581,-220.641 322.581,-220.641 319.322,-216.849 319.168,-223.575 316.063,-213.058 316.063,-213.058"/>
</g>
<!-- ndVote -->
<g id="node8" class="node"><title>ndVote</title>
<g id="a_node8_9"><a xlink:href="https://github.com/maidsafe/brb_membership/blob/master/src/brb_membership.rs#:~:text=struct%20Vote" xlink:title="&lt;TABLE&gt;">
<polygon fill="lightblue" stroke="none" points="407.5,-253.5 407.5,-290.5 460.5,-290.5 460.5,-253.5 407.5,-253.5"/>
<polygon fill="none" stroke="black" points="407.5,-253.5 407.5,-290.5 460.5,-290.5 460.5,-253.5 407.5,-253.5"/>
<text text-anchor="start" x="418.5" y="-269.3" font-family="Arial" font-weight="bold" font-size="14.00">Vote</text>
<polygon fill="none" stroke="black" points="406,-253 406,-292 461,-292 461,-253 406,-253"/>
</a>
</g>
</g>
<!-- ndBallot&#45;&gt;ndVote -->
<g id="edge14" class="edge"><title>ndBallot&#45;&gt;ndVote</title>
<path fill="none" stroke="black" d="M381.556,-331.937C388.906,-323.668 397.367,-314.149 405.298,-305.227"/>
<polygon fill="black" stroke="black" points="405.329,-305.192 406.326,-298.05 413.302,-296.223 412.305,-303.365 405.329,-305.192"/>
</g>
<!-- ndVote&#45;&gt;ndState -->
<g id="edge15" class="edge"><title>ndVote&#45;&gt;ndState</title>
<path fill="none" stroke="black" stroke-dasharray="5,2" d="M419.622,-248.971C406.185,-227.403 385.035,-194.086 365.5,-166 338.381,-127.011 305.322,-83.4623 283.409,-55.108"/>
<polygon fill="black" stroke="black" points="277.263,-47.1744 286.945,-52.3233 280.325,-51.1269 283.387,-55.0794 283.387,-55.0794 283.387,-55.0794 280.325,-51.1269 279.83,-57.8355 277.263,-47.1744 277.263,-47.1744"/>
</g>
<!-- ndVote&#45;&gt;ndSignedVote -->
<g id="edge16" class="edge"><title>ndVote&#45;&gt;ndSignedVote</title>
<path fill="none" stroke="black" stroke-dasharray="5,2" d="M397.862,-250.43C381.843,-240.958 362.68,-229.628 345.35,-219.382"/>
<polygon fill="black" stroke="black" points="345.171,-219.276 337.97,-219.666 334.841,-213.169 342.042,-212.779 345.171,-219.276"/>
</g>
<!-- ndSignedVote&#45;&gt;ndError -->
<g id="edge17" class="edge"><title>ndSignedVote&#45;&gt;ndError</title>
<path fill="none" stroke="black" d="M287.094,-213.138C274.989,-244.371 255.5,-302.7 255.5,-354.5 255.5,-439.5 255.5,-439.5 255.5,-439.5 255.5,-484.116 255.5,-535.559 255.5,-568.755"/>
<polygon fill="black" stroke="black" points="255.5,-568.951 259.5,-574.951 255.5,-580.951 251.5,-574.951 255.5,-568.951"/>
</g>
<!-- ndSignedVote&#45;&gt;ndState -->
<g id="edge18" class="edge"><title>ndSignedVote&#45;&gt;ndState</title>
<path fill="none" stroke="black" stroke-dasharray="5,2" d="M293.953,-165.637C291.288,-144.114 286.509,-111.08 279.5,-83 277.333,-74.3174 274.456,-65.0853 271.561,-56.5825"/>
<polygon fill="black" stroke="black" points="268.197,-47.0127 275.759,-54.9541 269.855,-51.7297 271.514,-56.4467 271.514,-56.4467 271.514,-56.4467 269.855,-51.7297 267.268,-57.9392 268.197,-47.0127 268.197,-47.0127"/>
</g>
<!-- ndSignedVote&#45;&gt;ndBallot -->
<g id="edge19" class="edge"><title>ndSignedVote&#45;&gt;ndBallot</title>
<path fill="none" stroke="black" d="M305.461,-213.11C316.437,-240.803 335.139,-287.989 347.893,-320.17"/>
<polygon fill="black" stroke="black" points="348.04,-320.541 353.97,-324.645 352.462,-331.697 346.533,-327.592 348.04,-320.541"/>
</g>
<!-- ndSignedVote&#45;&gt;ndVoteMsg -->
<g id="edge20" class="edge"><title>ndSignedVote&#45;&gt;ndVoteMsg</title>
<path fill="none" stroke="black" d="M275.33,-165.937C267.571,-157.668 258.64,-148.149 250.269,-139.227"/>
<polygon fill="black" stroke="black" points="250.031,-138.974 243.009,-137.335 241.82,-130.223 248.843,-131.862 250.031,-138.974"/>
</g>
<!-- ndVoteMsg&#45;&gt;ndState -->
<g id="edge21" class="edge"><title>ndVoteMsg&#45;&gt;ndState</title>
<path fill="none" stroke="black" d="M231.364,-82.937C235.303,-74.7553 239.832,-65.3497 244.088,-56.5093"/>
<polygon fill="black" stroke="black" points="248.559,-47.2229 248.276,-58.1852 246.39,-51.728 244.221,-56.233 244.221,-56.233 244.221,-56.233 246.39,-51.728 240.167,-54.2808 248.559,-47.2229 248.559,-47.2229"/>
</g>
</g>
</svg>
