<?xml version="1.0" encoding="UTF-8" standalone="no"?>
<!DOCTYPE svg PUBLIC "-//W3C//DTD SVG 1.1//EN"
 "http://www.w3.org/Graphics/SVG/1.1/DTD/svg11.dtd">
<!-- Generated by graphviz version 2.38.0 (20140413.2041)
 -->
<!-- Title: ml Pages: 1 -->
<svg width="592pt" height="977pt"
 viewBox="0.00 0.00 591.71 977.00" xmlns="http://www.w3.org/2000/svg" xmlns:xlink="http://www.w3.org/1999/xlink">
<g id="graph0" class="graph" transform="scale(1 1) rotate(0) translate(4 973)">
<title>ml</title>
<polygon fill="white" stroke="none" points="-4,4 -4,-973 587.711,-973 587.711,4 -4,4"/>
<!-- ndError -->
<g id="node1" class="node"><title>ndError</title>
<g id="a_node1_0"><a xlink:href="https://github.com/maidsafe/brb_membership/blob/master/src/error.rs#:~:text=enum%20Error" xlink:title="&lt;TABLE&gt;">
<polygon fill="yellow" stroke="none" points="72.2114,-476.5 72.2114,-513.5 341.211,-513.5 341.211,-476.5 72.2114,-476.5"/>
<polygon fill="none" stroke="black" points="72.2114,-476.5 72.2114,-513.5 341.211,-513.5 341.211,-476.5 72.2114,-476.5"/>
<text text-anchor="start" x="188.211" y="-492.3" font-family="Arial" font-weight="bold" font-size="14.00">Error</text>
<polygon fill="white" stroke="none" points="72.2114,-214.5 72.2114,-476.5 341.211,-476.5 341.211,-214.5 72.2114,-214.5"/>
<polygon fill="none" stroke="black" points="72.2114,-214.5 72.2114,-476.5 341.211,-476.5 341.211,-214.5 72.2114,-214.5"/>
<text text-anchor="start" x="83.2114" y="-454.3" font-family="Arial" font-size="14.00">IO(std::io::Error)</text>
<text text-anchor="start" x="83.2114" y="-439.3" font-family="Arial" font-size="14.00">NoMembers</text>
<text text-anchor="start" x="83.2114" y="-424.3" font-family="Arial" font-size="14.00">InvalidSignature(signature::Error)</text>
<text text-anchor="start" x="83.2114" y="-409.3" font-family="Arial" font-size="14.00">WrongDestination</text>
<text text-anchor="start" x="83.2114" y="-394.3" font-family="Arial" font-size="14.00">MembersAtCapacity</text>
<text text-anchor="start" x="83.2114" y="-379.3" font-family="Arial" font-size="14.00">JoinRequestForExistingMember</text>
<text text-anchor="start" x="83.2114" y="-364.3" font-family="Arial" font-size="14.00">LeaveRequestForNonMember</text>
<text text-anchor="start" x="83.2114" y="-349.3" font-family="Arial" font-size="14.00">VoteNotForNextGeneration</text>
<text text-anchor="start" x="83.2114" y="-334.3" font-family="Arial" font-size="14.00">VoteFromNonMember</text>
<text text-anchor="start" x="83.2114" y="-319.3" font-family="Arial" font-size="14.00">VoterChangedMind</text>
<text text-anchor="start" x="83.2114" y="-304.3" font-family="Arial" font-size="14.00">ExistingVoteIncompatibleWithNewVote</text>
<text text-anchor="start" x="83.2114" y="-289.3" font-family="Arial" font-size="14.00">SuperMajorityBallotIsNotSuperMajority</text>
<text text-anchor="start" x="83.2114" y="-274.3" font-family="Arial" font-size="14.00">InvalidGeneration(Generation)</text>
<text text-anchor="start" x="83.2114" y="-259.3" font-family="Arial" font-size="14.00">InvalidVoteInHistory(Vote&lt;A, S&gt;)</text>
<text text-anchor="start" x="83.2114" y="-244.3" font-family="Arial" font-size="14.00">Encoding(bincode::Error)</text>
<text text-anchor="start" x="83.2114" y="-229.3" font-family="Arial" font-size="14.00">Other(String)</text>
<polygon fill="none" stroke="black" points="70.7114,-214 70.7114,-515 341.711,-515 341.711,-214 70.7114,-214"/>
</a>
</g>
</g>
<!-- ndState -->
<g id="node2" class="node"><title>ndState</title>
<g id="a_node2_1"><a xlink:href="https://github.com/maidsafe/brb_membership/blob/master/src/brb_membership.rs#:~:text=struct%20State" xlink:title="&lt;TABLE&gt;">
<polygon fill="lightblue" stroke="none" points="56.2114,-132 56.2114,-169 528.211,-169 528.211,-132 56.2114,-132"/>
<polygon fill="none" stroke="black" points="56.2114,-132 56.2114,-169 528.211,-169 528.211,-132 56.2114,-132"/>
<text text-anchor="start" x="274.211" y="-147.8" font-family="Arial" font-weight="bold" font-size="14.00">State</text>
<polygon fill="white" stroke="none" points="56.2114,-5 56.2114,-132 528.211,-132 528.211,-5 56.2114,-5"/>
<polygon fill="none" stroke="black" points="56.2114,-5 56.2114,-132 528.211,-132 528.211,-5 56.2114,-5"/>
<text text-anchor="start" x="67.2114" y="-109.8" font-family="Arial" font-size="14.00">+ id: SA</text>
<text text-anchor="start" x="67.2114" y="-94.8" font-family="Arial" font-size="14.00">+ gen: Generation</text>
<text text-anchor="start" x="67.2114" y="-79.8" font-family="Arial" font-size="14.00">+ pending_gen: Generation</text>
<text text-anchor="start" x="67.2114" y="-64.8" font-family="Arial" font-size="14.00">+ forced_reconfigs: BTreeMap&lt;Generation, BTreeSet&lt;Reconfig&lt;A&gt;&gt;&gt;</text>
<text text-anchor="start" x="67.2114" y="-49.8" font-family="Arial" font-size="14.00">+ history: BTreeMap&lt;Generation, Vote&lt;A, S&gt;&gt;</text>
<text text-anchor="start" x="67.2114" y="-34.8" font-family="Arial" font-size="14.00">+ votes: BTreeMap&lt;A, Vote&lt;A, S&gt;&gt;</text>
<text text-anchor="start" x="67.2114" y="-19.8" font-family="Arial" font-size="14.00">+ faulty: bool</text>
<polygon fill="none" stroke="black" points="55.2114,-4 55.2114,-170 529.211,-170 529.211,-4 55.2114,-4"/>
</a>
</g>
</g>
<!-- ndError&#45;&gt;ndState -->
<g id="edge1" class="edge"><title>ndError&#45;&gt;ndState</title>
<path fill="none" stroke="black" d="M254.24,-209.64C256.95,-200.958 259.633,-192.363 262.246,-183.995"/>
<polygon fill="black" stroke="black" points="265.277,-174.284 266.593,-185.171 263.787,-179.057 262.297,-183.83 262.297,-183.83 262.297,-183.83 263.787,-179.057 258.001,-182.489 265.277,-174.284 265.277,-174.284"/>
</g>
<!-- ndReconfig -->
<g id="node3" class="node"><title>ndReconfig</title>
<g id="a_node3_2"><a xlink:href="https://github.com/maidsafe/brb_membership/blob/master/src/brb_membership.rs#:~:text=enum%20Reconfig" xlink:title="&lt;TABLE&gt;">
<polygon fill="yellow" stroke="none" points="164.211,-926.5 164.211,-963.5 248.211,-963.5 248.211,-926.5 164.211,-926.5"/>
<polygon fill="none" stroke="black" points="164.211,-926.5 164.211,-963.5 248.211,-963.5 248.211,-926.5 164.211,-926.5"/>
<text text-anchor="start" x="175.211" y="-942.3" font-family="Arial" font-weight="bold" font-size="14.00">Reconfig</text>
<polygon fill="white" stroke="none" points="164.211,-874.5 164.211,-926.5 248.211,-926.5 248.211,-874.5 164.211,-874.5"/>
<polygon fill="none" stroke="black" points="164.211,-874.5 164.211,-926.5 248.211,-926.5 248.211,-874.5 164.211,-874.5"/>
<text text-anchor="start" x="175.211" y="-904.3" font-family="Arial" font-size="14.00">Join(A)</text>
<text text-anchor="start" x="175.211" y="-889.3" font-family="Arial" font-size="14.00">Leave(A)</text>
<polygon fill="none" stroke="black" points="163.211,-874 163.211,-965 249.211,-965 249.211,-874 163.211,-874"/>
</a>
</g>
</g>
<!-- ndReconfig&#45;&gt;ndState -->
<g id="edge2" class="edge"><title>ndReconfig&#45;&gt;ndState</title>
<path fill="none" stroke="black" d="M154.852,-904.858C119.766,-892.57 75.8536,-870.66 54.2114,-834 -16.2834,-714.589 -19.198,-328.26 53.2114,-210 59.2598,-200.122 66.3877,-191.011 74.3284,-182.613"/>
<polygon fill="black" stroke="black" points="74.3707,-182.571 75.8104,-175.505 82.8866,-174.117 81.4468,-181.183 74.3707,-182.571"/>
</g>
<!-- ndBallot -->
<g id="node4" class="node"><title>ndBallot</title>
<g id="a_node4_3"><a xlink:href="https://github.com/maidsafe/brb_membership/blob/master/src/brb_membership.rs#:~:text=enum%20Ballot" xlink:title="&lt;TABLE&gt;">
<polygon fill="yellow" stroke="none" points="72.2114,-792 72.2114,-829 340.211,-829 340.211,-792 72.2114,-792"/>
<polygon fill="none" stroke="black" points="72.2114,-792 72.2114,-829 340.211,-829 340.211,-792 72.2114,-792"/>
<text text-anchor="start" x="186.211" y="-807.8" font-family="Arial" font-weight="bold" font-size="14.00">Ballot</text>
<polygon fill="white" stroke="none" points="72.2114,-725 72.2114,-792 340.211,-792 340.211,-725 72.2114,-725"/>
<polygon fill="none" stroke="black" points="72.2114,-725 72.2114,-792 340.211,-792 340.211,-725 72.2114,-725"/>
<text text-anchor="start" x="83.2114" y="-769.8" font-family="Arial" font-size="14.00">Propose(Reconfig&lt;A&gt;)</text>
<text text-anchor="start" x="83.2114" y="-754.8" font-family="Arial" font-size="14.00">Merge(BTreeSet&lt;Vote&lt;A, S&gt;&gt;)</text>
<text text-anchor="start" x="83.2114" y="-739.8" font-family="Arial" font-size="14.00">SuperMajority(BTreeSet&lt;Vote&lt;A, S&gt;&gt;)</text>
<polygon fill="none" stroke="black" points="71.2114,-724 71.2114,-830 341.211,-830 341.211,-724 71.2114,-724"/>
</a>
</g>
</g>
<!-- ndReconfig&#45;&gt;ndBallot -->
<g id="edge3" class="edge"><title>ndReconfig&#45;&gt;ndBallot</title>
<path fill="none" stroke="black" d="M206.211,-869.754C206.211,-862.264 206.211,-854.414 206.211,-846.59"/>
<polygon fill="black" stroke="black" points="206.211,-846.375 202.211,-840.375 206.211,-834.375 210.211,-840.375 206.211,-846.375"/>
</g>
<!-- ndVote -->
<g id="node5" class="node"><title>ndVote</title>
<g id="a_node5_4"><a xlink:href="https://github.com/maidsafe/brb_membership/blob/master/src/brb_membership.rs#:~:text=struct%20Vote" xlink:title="&lt;TABLE&gt;">
<polygon fill="lightblue" stroke="none" points="300.211,-641.5 300.211,-678.5 455.211,-678.5 455.211,-641.5 300.211,-641.5"/>
<polygon fill="none" stroke="black" points="300.211,-641.5 300.211,-678.5 455.211,-678.5 455.211,-641.5 300.211,-641.5"/>
<text text-anchor="start" x="362.211" y="-657.3" font-family="Arial" font-weight="bold" font-size="14.00">Vote</text>
<polygon fill="white" stroke="none" points="300.211,-559.5 300.211,-641.5 455.211,-641.5 455.211,-559.5 300.211,-559.5"/>
<polygon fill="none" stroke="black" points="300.211,-559.5 300.211,-641.5 455.211,-641.5 455.211,-559.5 300.211,-559.5"/>
<text text-anchor="start" x="311.211" y="-619.3" font-family="Arial" font-size="14.00">+ gen: Generation</text>
<text text-anchor="start" x="311.211" y="-604.3" font-family="Arial" font-size="14.00">+ ballot: Ballot&lt;A, S&gt;</text>
<text text-anchor="start" x="311.211" y="-589.3" font-family="Arial" font-size="14.00">+ voter: A</text>
<text text-anchor="start" x="311.211" y="-574.3" font-family="Arial" font-size="14.00">+ sig: S</text>
<polygon fill="none" stroke="black" points="298.711,-559 298.711,-680 455.711,-680 455.711,-559 298.711,-559"/>
</a>
</g>
</g>
<!-- ndReconfig&#45;&gt;ndVote -->
<g id="edge4" class="edge"><title>ndReconfig&#45;&gt;ndVote</title>
<path fill="none" stroke="black" d="M257.534,-875.407C260.414,-873.499 263.316,-871.682 266.211,-870 304.175,-847.94 331.874,-869.132 358.211,-834 387.72,-794.637 391.818,-738.992 388.881,-694.379"/>
<polygon fill="black" stroke="black" points="388.076,-684.168 393.348,-693.783 388.469,-689.152 388.862,-694.137 388.862,-694.137 388.862,-694.137 388.469,-689.152 384.376,-694.491 388.076,-684.168 388.076,-684.168"/>
</g>
<!-- ndBallot&#45;&gt;ndVote -->
<g id="edge5" class="edge"><title>ndBallot&#45;&gt;ndVote</title>
<path fill="none" stroke="black" d="M267.946,-719.861C277.787,-710.912 288.084,-701.548 298.257,-692.298"/>
<polygon fill="black" stroke="black" points="298.272,-692.284 300.02,-685.288 307.15,-684.21 305.402,-691.207 298.272,-692.284"/>
</g>
<!-- ndVote&#45;&gt;ndError -->
<g id="edge6" class="edge"><title>ndVote&#45;&gt;ndError</title>
<path fill="none" stroke="black" d="M334.282,-554.984C328.747,-546.795 322.892,-538.133 316.854,-529.2"/>
<polygon fill="black" stroke="black" points="316.686,-528.951 310.012,-526.22 309.967,-519.009 316.64,-521.74 316.686,-528.951"/>
</g>
<!-- ndVote&#45;&gt;ndState -->
<g id="edge7" class="edge"><title>ndVote&#45;&gt;ndState</title>
<path fill="none" stroke="black" d="M382.89,-554.84C388.223,-473.287 391.113,-328.336 358.211,-210 355.772,-201.225 352.612,-192.38 348.999,-183.678"/>
<polygon fill="black" stroke="black" points="344.913,-174.3 353.033,-181.67 346.91,-178.884 348.908,-183.468 348.908,-183.468 348.908,-183.468 346.91,-178.884 344.782,-185.265 344.913,-174.3 344.913,-174.3"/>
</g>
<!-- ndVoteMsg -->
<g id="node6" class="node"><title>ndVoteMsg</title>
<g id="a_node6_5"><a xlink:href="https://github.com/maidsafe/brb_membership/blob/master/src/brb_membership.rs#:~:text=struct%20VoteMsg" xlink:title="&lt;TABLE&gt;">
<polygon fill="lightblue" stroke="none" points="415.211,-371.5 415.211,-408.5 557.211,-408.5 557.211,-371.5 415.211,-371.5"/>
<polygon fill="none" stroke="black" points="415.211,-371.5 415.211,-408.5 557.211,-408.5 557.211,-371.5 415.211,-371.5"/>
<text text-anchor="start" x="455.711" y="-387.3" font-family="Arial" font-weight="bold" font-size="14.00">VoteMsg</text>
<polygon fill="white" stroke="none" points="415.211,-319.5 415.211,-371.5 557.211,-371.5 557.211,-319.5 415.211,-319.5"/>
<polygon fill="none" stroke="black" points="415.211,-319.5 415.211,-371.5 557.211,-371.5 557.211,-319.5 415.211,-319.5"/>
<text text-anchor="start" x="426.211" y="-349.3" font-family="Arial" font-size="14.00">+ vote: Vote&lt;A, S&gt;</text>
<text text-anchor="start" x="426.211" y="-334.3" font-family="Arial" font-size="14.00">+ dest: A</text>
<polygon fill="none" stroke="black" points="414.211,-319 414.211,-410 558.211,-410 558.211,-319 414.211,-319"/>
</a>
</g>
</g>
<!-- ndVote&#45;&gt;ndVoteMsg -->
<g id="edge8" class="edge"><title>ndVote&#45;&gt;ndVoteMsg</title>
<path fill="none" stroke="black" d="M404.576,-554.984C421.68,-515.283 443.572,-464.471 460.379,-425.461"/>
<polygon fill="black" stroke="black" points="460.449,-425.296 459.15,-418.203 465.198,-414.275 466.497,-421.368 460.449,-425.296"/>
</g>
<!-- ndVoteMsg&#45;&gt;ndState -->
<g id="edge9" class="edge"><title>ndVoteMsg&#45;&gt;ndState</title>
<path fill="none" stroke="black" d="M458.642,-314.704C440.725,-283.981 416.294,-243.873 392.211,-210 385.706,-200.85 378.721,-191.503 371.575,-182.255"/>
<polygon fill="black" stroke="black" points="365.262,-174.162 374.96,-179.279 368.337,-178.105 371.412,-182.047 371.412,-182.047 371.412,-182.047 368.337,-178.105 367.864,-184.815 365.262,-174.162 365.262,-174.162"/>
</g>
<!-- ndActor -->
<g id="node7" class="node"><title>ndActor</title>
<g id="a_node7_6"><a xlink:href="https://github.com/maidsafe/brb_membership/blob/master/src/actor.rs#:~:text=trait%20Actor" xlink:title="&lt;TABLE&gt;">
<polygon fill="lightgreen" stroke="none" points="284.211,-900.5 284.211,-937.5 344.211,-937.5 344.211,-900.5 284.211,-900.5"/>
<polygon fill="none" stroke="black" points="284.211,-900.5 284.211,-937.5 344.211,-937.5 344.211,-900.5 284.211,-900.5"/>
<text text-anchor="start" x="295.211" y="-916.3" font-family="Arial" font-weight="bold" font-size="14.00">Actor</text>
<polygon fill="none" stroke="black" points="283.211,-900 283.211,-939 345.211,-939 345.211,-900 283.211,-900"/>
</a>
</g>
</g>
<!-- ndSigningActor -->
<g id="node8" class="node"><title>ndSigningActor</title>
<g id="a_node8_7"><a xlink:href="https://github.com/maidsafe/brb_membership/blob/master/src/actor.rs#:~:text=trait%20SigningActor" xlink:title="&lt;TABLE&gt;">
<polygon fill="lightgreen" stroke="none" points="381.211,-900.5 381.211,-937.5 494.211,-937.5 494.211,-900.5 381.211,-900.5"/>
<polygon fill="none" stroke="black" points="381.211,-900.5 381.211,-937.5 494.211,-937.5 494.211,-900.5 381.211,-900.5"/>
<text text-anchor="start" x="392.211" y="-916.3" font-family="Arial" font-weight="bold" font-size="14.00">SigningActor</text>
<polygon fill="none" stroke="black" points="379.711,-900 379.711,-939 494.711,-939 494.711,-900 379.711,-900"/>
</a>
</g>
</g>
<!-- ndSig -->
<g id="node9" class="node"><title>ndSig</title>
<g id="a_node9_8"><a xlink:href="https://github.com/maidsafe/brb_membership/blob/master/src/actor.rs#:~:text=trait%20Sig" xlink:title="&lt;TABLE&gt;">
<polygon fill="lightgreen" stroke="none" points="530.211,-900.5 530.211,-937.5 575.211,-937.5 575.211,-900.5 530.211,-900.5"/>
<polygon fill="none" stroke="black" points="530.211,-900.5 530.211,-937.5 575.211,-937.5 575.211,-900.5 530.211,-900.5"/>
<text text-anchor="start" x="541.211" y="-916.3" font-family="Arial" font-weight="bold" font-size="14.00">Sig</text>
<polygon fill="none" stroke="black" points="528.711,-900 528.711,-939 575.711,-939 575.711,-900 528.711,-900"/>
</a>
</g>
</g>
</g>
</svg>
