<?xml version="1.0" encoding="UTF-8" standalone="no"?>
<!DOCTYPE svg PUBLIC "-//W3C//DTD SVG 1.1//EN"
 "http://www.w3.org/Graphics/SVG/1.1/DTD/svg11.dtd">
<!-- Generated by graphviz version 2.38.0 (20140413.2041)
 -->
<!-- Title: ml Pages: 1 -->
<svg width="863pt" height="467pt"
 viewBox="0.00 0.00 862.50 467.00" xmlns="http://www.w3.org/2000/svg" xmlns:xlink="http://www.w3.org/1999/xlink">
<g id="graph0" class="graph" transform="scale(1 1) rotate(0) translate(4 463)">
<title>ml</title>
<polygon fill="white" stroke="none" points="-4,4 -4,-463 858.5,-463 858.5,4 -4,4"/>
<!-- ndSharedBRB -->
<g id="node1" class="node"><title>ndSharedBRB</title>
<g id="a_node1_0"><a xlink:href="https://github.com/maidsafe/brb_node_qp2p/blob/master/src/brb_node.rs#:~:text=struct%20SharedBRB" xlink:title="&lt;TABLE&gt;">
<polygon fill="lightblue" stroke="none" points="290.5,-327 290.5,-364 471.5,-364 471.5,-327 290.5,-327"/>
<polygon fill="none" stroke="black" points="290.5,-327 290.5,-364 471.5,-364 471.5,-327 290.5,-327"/>
<text text-anchor="start" x="340" y="-342.8" font-family="Arial" font-weight="bold" font-size="14.00">SharedBRB</text>
<polygon fill="white" stroke="none" points="290.5,-290 290.5,-327 471.5,-327 471.5,-290 290.5,-290"/>
<polygon fill="none" stroke="black" points="290.5,-290 290.5,-327 471.5,-327 471.5,-290 290.5,-290"/>
<text text-anchor="start" x="301.5" y="-304.8" font-family="Arial" font-size="14.00">&#45; brb: Arc&lt;Mutex&lt;BRB&gt;&gt;</text>
<polygon fill="none" stroke="black" points="289,-289 289,-365 472,-365 472,-289 289,-289"/>
</a>
</g>
</g>
<!-- ndRepl -->
<g id="node2" class="node"><title>ndRepl</title>
<g id="a_node2_1"><a xlink:href="https://github.com/maidsafe/brb_node_qp2p/blob/master/src/brb_node.rs#:~:text=struct%20Repl" xlink:title="&lt;TABLE&gt;">
<polygon fill="lightblue" stroke="none" points="9.5,-86.5 9.5,-123.5 294.5,-123.5 294.5,-86.5 9.5,-86.5"/>
<polygon fill="none" stroke="black" points="9.5,-86.5 9.5,-123.5 294.5,-123.5 294.5,-86.5 9.5,-86.5"/>
<text text-anchor="start" x="136.5" y="-102.3" font-family="Arial" font-weight="bold" font-size="14.00">Repl</text>
<polygon fill="white" stroke="none" points="9.5,-34.5 9.5,-86.5 294.5,-86.5 294.5,-34.5 9.5,-34.5"/>
<polygon fill="none" stroke="black" points="9.5,-34.5 9.5,-86.5 294.5,-86.5 294.5,-34.5 9.5,-34.5"/>
<text text-anchor="start" x="20.5" y="-64.3" font-family="Arial" font-size="14.00">&#45; state: SharedBRB</text>
<text text-anchor="start" x="20.5" y="-49.3" font-family="Arial" font-size="14.00">&#45; network_tx: mpsc::Sender&lt;RouterCmd&gt;</text>
<polygon fill="none" stroke="black" points="8,-34 8,-125 295,-125 295,-34 8,-34"/>
</a>
</g>
</g>
<!-- ndSharedBRB&#45;&gt;ndRepl -->
<g id="edge1" class="edge"><title>ndSharedBRB&#45;&gt;ndRepl</title>
<path fill="none" stroke="black" stroke-dasharray="5,2" d="M348.27,-284.84C327.161,-258.504 298.565,-223.97 271.5,-195 253.427,-175.655 232.857,-155.436 213.916,-137.467"/>
<polygon fill="black" stroke="black" points="213.786,-137.345 206.676,-136.138 205.055,-129.112 212.165,-130.318 213.786,-137.345"/>
</g>
<!-- ndRouter -->
<g id="node3" class="node"><title>ndRouter</title>
<g id="a_node3_2"><a xlink:href="https://github.com/maidsafe/brb_node_qp2p/blob/master/src/brb_node.rs#:~:text=struct%20Router" xlink:title="&lt;TABLE&gt;">
<polygon fill="lightblue" stroke="none" points="330.5,-116.5 330.5,-153.5 668.5,-153.5 668.5,-116.5 330.5,-116.5"/>
<polygon fill="none" stroke="black" points="330.5,-116.5 330.5,-153.5 668.5,-153.5 668.5,-116.5 330.5,-116.5"/>
<text text-anchor="start" x="476" y="-132.3" font-family="Arial" font-weight="bold" font-size="14.00">Router</text>
<polygon fill="white" stroke="none" points="330.5,-4.5 330.5,-116.5 668.5,-116.5 668.5,-4.5 330.5,-4.5"/>
<polygon fill="none" stroke="black" points="330.5,-4.5 330.5,-116.5 668.5,-116.5 668.5,-4.5 330.5,-4.5"/>
<text text-anchor="start" x="341.5" y="-94.3" font-family="Arial" font-size="14.00">&#45; state: SharedBRB</text>
<text text-anchor="start" x="341.5" y="-79.3" font-family="Arial" font-size="14.00">&#45; qp2p: QuicP2p</text>
<text text-anchor="start" x="341.5" y="-64.3" font-family="Arial" font-size="14.00">&#45; addr: SocketAddr</text>
<text text-anchor="start" x="341.5" y="-49.3" font-family="Arial" font-size="14.00">&#45; peers: HashMap&lt;Actor, SocketAddr&gt;</text>
<text text-anchor="start" x="341.5" y="-34.3" font-family="Arial" font-size="14.00">&#45; lastconn: HashMap&lt;SocketAddr, MyConnection&gt;</text>
<text text-anchor="start" x="341.5" y="-19.3" font-family="Arial" font-size="14.00">&#45; unacked_packets: VecDeque&lt;Packet&gt;</text>
<polygon fill="none" stroke="black" points="329.5,-4 329.5,-155 669.5,-155 669.5,-4 329.5,-4"/>
</a>
</g>
</g>
<!-- ndSharedBRB&#45;&gt;ndRouter -->
<g id="edge2" class="edge"><title>ndSharedBRB&#45;&gt;ndRouter</title>
<path fill="none" stroke="black" stroke-dasharray="5,2" d="M400.418,-284.909C415.568,-253.654 436.984,-209.473 456.031,-170.178"/>
<polygon fill="black" stroke="black" points="456.099,-170.037 455.117,-162.893 461.333,-159.239 462.316,-166.383 456.099,-170.037"/>
</g>
<!-- ndRouterCmd -->
<g id="node4" class="node"><title>ndRouterCmd</title>
<g id="a_node4_3"><a xlink:href="https://github.com/maidsafe/brb_node_qp2p/blob/master/src/brb_node.rs#:~:text=enum%20RouterCmd" xlink:title="&lt;TABLE&gt;">
<polygon fill="yellow" stroke="none" points="49.5,-417 49.5,-454 253.5,-454 253.5,-417 49.5,-417"/>
<polygon fill="none" stroke="black" points="49.5,-417 49.5,-454 253.5,-454 253.5,-417 49.5,-417"/>
<text text-anchor="start" x="112" y="-432.8" font-family="Arial" font-weight="bold" font-size="14.00">RouterCmd</text>
<polygon fill="white" stroke="none" points="49.5,-200 49.5,-417 253.5,-417 253.5,-200 49.5,-200"/>
<polygon fill="none" stroke="black" points="49.5,-200 49.5,-417 253.5,-417 253.5,-200 49.5,-200"/>
<text text-anchor="start" x="60.5" y="-394.8" font-family="Arial" font-size="14.00">Retry</text>
<text text-anchor="start" x="60.5" y="-379.8" font-family="Arial" font-size="14.00">Debug</text>
<text text-anchor="start" x="60.5" y="-364.8" font-family="Arial" font-size="14.00">AntiEntropy(String)</text>
<text text-anchor="start" x="60.5" y="-349.8" font-family="Arial" font-size="14.00">ListPeers</text>
<text text-anchor="start" x="60.5" y="-334.8" font-family="Arial" font-size="14.00">RequestJoin(String)</text>
<text text-anchor="start" x="60.5" y="-319.8" font-family="Arial" font-size="14.00">RequestLeave(String)</text>
<text text-anchor="start" x="60.5" y="-304.8" font-family="Arial" font-size="14.00">Trust(String)</text>
<text text-anchor="start" x="60.5" y="-289.8" font-family="Arial" font-size="14.00">Untrust(String)</text>
<text text-anchor="start" x="60.5" y="-274.8" font-family="Arial" font-size="14.00">SayHello(SocketAddr)</text>
<text text-anchor="start" x="60.5" y="-259.8" font-family="Arial" font-size="14.00">AddPeer(Actor, SocketAddr)</text>
<text text-anchor="start" x="60.5" y="-244.8" font-family="Arial" font-size="14.00">Deliver(Packet)</text>
<text text-anchor="start" x="60.5" y="-229.8" font-family="Arial" font-size="14.00">Apply(Packet)</text>
<text text-anchor="start" x="60.5" y="-214.8" font-family="Arial" font-size="14.00">Acked(Packet)</text>
<polygon fill="none" stroke="black" points="48.5,-199 48.5,-455 254.5,-455 254.5,-199 48.5,-199"/>
</a>
</g>
</g>
<!-- ndRouterCmd&#45;&gt;ndRepl -->
<g id="edge3" class="edge"><title>ndRouterCmd&#45;&gt;ndRepl</title>
<path fill="none" stroke="black" d="M151.5,-194.984C151.5,-176.228 151.5,-157.731 151.5,-141.254"/>
<polygon fill="black" stroke="black" points="151.5,-141.077 147.5,-135.077 151.5,-129.077 155.5,-135.077 151.5,-141.077"/>
</g>
<!-- ndRouterCmd&#45;&gt;ndRouter -->
<g id="edge4" class="edge"><title>ndRouterCmd&#45;&gt;ndRouter</title>
<path fill="none" stroke="black" stroke-dasharray="5,2" d="M262.687,-201.919C265.608,-199.542 268.548,-197.232 271.5,-195 285.81,-184.182 301.299,-173.921 317.236,-164.312"/>
<polygon fill="black" stroke="black" points="326.131,-159.041 319.822,-168.01 321.829,-161.59 317.528,-164.139 317.528,-164.139 317.528,-164.139 321.829,-161.59 315.234,-160.268 326.131,-159.041 326.131,-159.041"/>
</g>
<!-- ndNetworkMsg -->
<g id="node5" class="node"><title>ndNetworkMsg</title>
<g id="a_node5_4"><a xlink:href="https://github.com/maidsafe/brb_node_qp2p/blob/master/src/brb_node.rs#:~:text=enum%20NetworkMsg" xlink:title="&lt;TABLE&gt;">
<polygon fill="yellow" stroke="none" points="507.5,-342 507.5,-379 685.5,-379 685.5,-342 507.5,-342"/>
<polygon fill="none" stroke="black" points="507.5,-342 507.5,-379 685.5,-379 685.5,-342 507.5,-342"/>
<text text-anchor="start" x="552.5" y="-357.8" font-family="Arial" font-weight="bold" font-size="14.00">NetworkMsg</text>
<polygon fill="white" stroke="none" points="507.5,-275 507.5,-342 685.5,-342 685.5,-275 507.5,-275"/>
<polygon fill="none" stroke="black" points="507.5,-275 507.5,-342 685.5,-342 685.5,-275 507.5,-275"/>
<text text-anchor="start" x="518.5" y="-319.8" font-family="Arial" font-size="14.00">Peer(Actor, SocketAddr)</text>
<text text-anchor="start" x="518.5" y="-304.8" font-family="Arial" font-size="14.00">Packet(Packet)</text>
<text text-anchor="start" x="518.5" y="-289.8" font-family="Arial" font-size="14.00">Ack(Packet)</text>
<polygon fill="none" stroke="black" points="506.5,-274 506.5,-380 686.5,-380 686.5,-274 506.5,-274"/>
</a>
</g>
</g>
<!-- ndNetworkMsg&#45;&gt;ndRouter -->
<g id="edge5" class="edge"><title>ndNetworkMsg&#45;&gt;ndRouter</title>
<path fill="none" stroke="black" stroke-dasharray="5,2" d="M574.368,-269.985C562.51,-239.975 547.632,-202.318 534.269,-168.497"/>
<polygon fill="black" stroke="black" points="530.544,-159.069 538.404,-166.716 532.381,-163.719 534.218,-168.37 534.218,-168.37 534.218,-168.37 532.381,-163.719 530.033,-170.023 530.544,-159.069 530.544,-159.069"/>
</g>
<!-- ndMyConnection -->
<g id="node6" class="node"><title>ndMyConnection</title>
<g id="a_node6_5"><a xlink:href="https://github.com/maidsafe/brb_node_qp2p/blob/master/src/brb_node.rs#:~:text=struct%20MyConnection" xlink:title="&lt;TABLE&gt;">
<polygon fill="lightblue" stroke="none" points="721.5,-327 721.5,-364 845.5,-364 845.5,-327 721.5,-327"/>
<polygon fill="none" stroke="black" points="721.5,-327 721.5,-364 845.5,-364 845.5,-327 721.5,-327"/>
<text text-anchor="start" x="732.5" y="-342.8" font-family="Arial" font-weight="bold" font-size="14.00">MyConnection</text>
<polygon fill="white" stroke="none" points="721.5,-290 721.5,-327 845.5,-327 845.5,-290 721.5,-290"/>
<polygon fill="none" stroke="black" points="721.5,-290 721.5,-327 845.5,-327 845.5,-290 721.5,-290"/>
<text text-anchor="start" x="732.5" y="-304.8" font-family="Arial" font-size="14.00">&#45; Connection</text>
<polygon fill="none" stroke="black" points="720.5,-289 720.5,-365 846.5,-365 846.5,-289 720.5,-289"/>
</a>
</g>
</g>
</g>
</svg>
