<?xml version="1.0" encoding="UTF-8" standalone="no"?>
<!DOCTYPE svg PUBLIC "-//W3C//DTD SVG 1.1//EN"
 "http://www.w3.org/Graphics/SVG/1.1/DTD/svg11.dtd">
<!-- Generated by graphviz version 2.38.0 (20140413.2041)
 -->
<!-- Title: ml Pages: 1 -->
<svg width="276pt" height="55pt"
 viewBox="0.00 0.00 275.50 55.00" xmlns="http://www.w3.org/2000/svg" xmlns:xlink="http://www.w3.org/1999/xlink">
<g id="graph0" class="graph" transform="scale(1 1) rotate(0) translate(4 51)">
<title>ml</title>
<polygon fill="white" stroke="none" points="-4,4 -4,-51 271.5,-51 271.5,4 -4,4"/>
<!-- ndBRBTree -->
<g id="node1" class="node"><title>ndBRBTree</title>
<polygon fill="lightblue" stroke="none" points="9.5,-4.5 9.5,-41.5 94.5,-41.5 94.5,-4.5 9.5,-4.5"/>
<polygon fill="none" stroke="black" points="9.5,-4.5 9.5,-41.5 94.5,-41.5 94.5,-4.5 9.5,-4.5"/>
<text text-anchor="start" x="20.5" y="-20.3" font-family="Arial" font-weight="bold" font-size="14.00">BRBTree</text>
<polygon fill="none" stroke="black" points="8,-4 8,-43 95,-43 95,-4 8,-4"/>
</g>
<!-- ndValidationError -->
<g id="node2" class="node"><title>ndValidationError</title>
<polygon fill="yellow" stroke="none" points="130.5,-4.5 130.5,-41.5 258.5,-41.5 258.5,-4.5 130.5,-4.5"/>
<polygon fill="none" stroke="black" points="130.5,-4.5 130.5,-41.5 258.5,-41.5 258.5,-4.5 130.5,-4.5"/>
<text text-anchor="start" x="141.5" y="-20.3" font-family="Arial" font-weight="bold" font-size="14.00">ValidationError</text>
<polygon fill="none" stroke="black" points="129.5,-4 129.5,-43 259.5,-43 259.5,-4 129.5,-4"/>
</g>
</g>
</svg>
