<?xml version="1.0" encoding="UTF-8" standalone="no"?>
<!DOCTYPE svg PUBLIC "-//W3C//DTD SVG 1.1//EN"
 "http://www.w3.org/Graphics/SVG/1.1/DTD/svg11.dtd">
<!-- Generated by graphviz version 2.38.0 (20140413.2041)
 -->
<!-- Title: ml Pages: 1 -->
<svg width="884pt" height="219pt"
 viewBox="0.00 0.00 884.00 219.00" xmlns="http://www.w3.org/2000/svg" xmlns:xlink="http://www.w3.org/1999/xlink">
<g id="graph0" class="graph" transform="scale(1 1) rotate(0) translate(4 215)">
<title>ml</title>
<polygon fill="white" stroke="none" points="-4,4 -4,-215 880,-215 880,4 -4,4"/>
<!-- ndBRBOrswot -->
<g id="node1" class="node"><title>ndBRBOrswot</title>
<polygon fill="lightblue" stroke="none" points="9,-168.5 9,-205.5 319,-205.5 319,-168.5 9,-168.5"/>
<polygon fill="none" stroke="black" points="9,-168.5 9,-205.5 319,-205.5 319,-168.5 9,-168.5"/>
<text text-anchor="start" x="123" y="-184.3" font-family="Arial" font-weight="bold" font-size="14.00">BRBOrswot</text>
<polygon fill="white" stroke="none" points="9,-116.5 9,-168.5 319,-168.5 319,-116.5 9,-116.5"/>
<polygon fill="none" stroke="black" points="9,-116.5 9,-168.5 319,-168.5 319,-116.5 9,-116.5"/>
<text text-anchor="start" x="20" y="-146.3" font-family="Arial" font-size="14.00">&#45; actor: A</text>
<text text-anchor="start" x="20" y="-131.3" font-family="Arial" font-size="14.00">&#45; orswot: orswot::Orswot&lt;M, A&gt;</text>
<polygon fill="white" stroke="none" points="9,-4.5 9,-116.5 319,-116.5 319,-4.5 9,-4.5"/>
<polygon fill="none" stroke="black" points="9,-4.5 9,-116.5 319,-116.5 319,-4.5 9,-4.5"/>
<text text-anchor="start" x="20" y="-94.3" font-family="Arial" font-size="14.00">&#45; add(&amp;self, member: M) &#45;&gt; orswot::Op&lt;M, A&gt;</text>
<text text-anchor="start" x="20" y="-79.3" font-family="Arial" font-size="14.00">&#45; rm(&amp;self, member: M) &#45;&gt; orswot::Op&lt;M, A&gt;</text>
<text text-anchor="start" x="20" y="-64.3" font-family="Arial" font-size="14.00">&#45; contains(&amp;self, member: &amp;M) &#45;&gt; bool</text>
<text text-anchor="start" x="20" y="-49.3" font-family="Arial" font-size="14.00">&#45; actor(&amp;self) &#45;&gt; &amp;A</text>
<text text-anchor="start" x="20" y="-34.3" font-family="Arial" font-size="14.00">&#45; orswot(&amp;self) &#45;&gt; &amp;orswot::Orswot&lt;M, A&gt;</text>
<text text-anchor="start" x="20" y="-19.3" font-family="Arial" font-size="14.00">&#45; read(&amp;self) &#45;&gt; HashSet&lt;M&gt;</text>
<polygon fill="none" stroke="black" points="8,-4 8,-207 320,-207 320,-4 8,-4"/>
</g>
<!-- ndValidationError -->
<g id="node2" class="node"><title>ndValidationError</title>
<polygon fill="yellow" stroke="none" points="355,-161.5 355,-198.5 867,-198.5 867,-161.5 355,-161.5"/>
<polygon fill="none" stroke="black" points="355,-161.5 355,-198.5 867,-198.5 867,-161.5 355,-161.5"/>
<text text-anchor="start" x="558" y="-177.3" font-family="Arial" font-weight="bold" font-size="14.00">ValidationError</text>
<polygon fill="white" stroke="none" points="355,-79.5 355,-161.5 867,-161.5 867,-79.5 355,-79.5"/>
<polygon fill="none" stroke="black" points="355,-79.5 355,-161.5 867,-161.5 867,-79.5 355,-79.5"/>
<text text-anchor="start" x="366" y="-139.3" font-family="Arial" font-size="14.00">SourceDoesNotMatchOp</text>
<text text-anchor="start" x="366" y="-124.3" font-family="Arial" font-size="14.00">RemoveOnlySupportedForOneMember</text>
<text text-anchor="start" x="366" y="-109.3" font-family="Arial" font-size="14.00">RemovingDataWeHaventSeenYet</text>
<text text-anchor="start" x="366" y="-94.3" font-family="Arial" font-size="14.00">Orswot(E)</text>
<polygon fill="white" stroke="none" points="355,-12.5 355,-79.5 867,-79.5 867,-12.5 355,-12.5"/>
<polygon fill="none" stroke="black" points="355,-12.5 355,-79.5 867,-79.5 867,-12.5 355,-12.5"/>
<text text-anchor="start" x="366" y="-57.3" font-family="Arial" font-size="14.00">&#45; new(actor: A) &#45;&gt; Self</text>
<text text-anchor="start" x="366" y="-42.3" font-family="Arial" font-size="14.00">&#45; validate(&amp;self, source: &amp;A, op: &amp;Self::Op) &#45;&gt; Result&lt;(), Self::ValidationError&gt;</text>
<text text-anchor="start" x="366" y="-27.3" font-family="Arial" font-size="14.00">&#45; apply(&amp;mut self, op: Self::Op)</text>
<polygon fill="none" stroke="black" points="354,-11.5 354,-199.5 868,-199.5 868,-11.5 354,-11.5"/>
</g>
</g>
</svg>
