<?xml version="1.0" encoding="UTF-8" standalone="no"?>
<!DOCTYPE svg PUBLIC "-//W3C//DTD SVG 1.1//EN"
 "http://www.w3.org/Graphics/SVG/1.1/DTD/svg11.dtd">
<!-- Generated by graphviz version 2.38.0 (20140413.2041)
 -->
<!-- Title: ml Pages: 1 -->
<svg width="575pt" height="977pt"
 viewBox="0.00 0.00 574.58 977.00" xmlns="http://www.w3.org/2000/svg" xmlns:xlink="http://www.w3.org/1999/xlink">
<g id="graph0" class="graph" transform="scale(1 1) rotate(0) translate(4 973)">
<title>ml</title>
<polygon fill="white" stroke="none" points="-4,4 -4,-973 570.584,-973 570.584,4 -4,4"/>
<!-- ndError -->
<g id="node1" class="node"><title>ndError</title>
<g id="a_node1_0"><a xlink:href="https://github.com/maidsafe/brb_membership/blob/master/src/error.rs#:~:text=enum%20Error" xlink:title="&lt;TABLE&gt;">
<polygon fill="yellow" stroke="none" points="72.5836,-476.5 72.5836,-513.5 341.584,-513.5 341.584,-476.5 72.5836,-476.5"/>
<polygon fill="none" stroke="black" points="72.5836,-476.5 72.5836,-513.5 341.584,-513.5 341.584,-476.5 72.5836,-476.5"/>
<text text-anchor="start" x="188.584" y="-492.3" font-family="Arial" font-weight="bold" font-size="14.00">Error</text>
<polygon fill="white" stroke="none" points="72.5836,-214.5 72.5836,-476.5 341.584,-476.5 341.584,-214.5 72.5836,-214.5"/>
<polygon fill="none" stroke="black" points="72.5836,-214.5 72.5836,-476.5 341.584,-476.5 341.584,-214.5 72.5836,-214.5"/>
<text text-anchor="start" x="83.5836" y="-454.3" font-family="Arial" font-size="14.00">IO(std::io::Error)</text>
<text text-anchor="start" x="83.5836" y="-439.3" font-family="Arial" font-size="14.00">NoMembers</text>
<text text-anchor="start" x="83.5836" y="-424.3" font-family="Arial" font-size="14.00">InvalidSignature(signature::Error)</text>
<text text-anchor="start" x="83.5836" y="-409.3" font-family="Arial" font-size="14.00">WrongDestination</text>
<text text-anchor="start" x="83.5836" y="-394.3" font-family="Arial" font-size="14.00">MembersAtCapacity</text>
<text text-anchor="start" x="83.5836" y="-379.3" font-family="Arial" font-size="14.00">JoinRequestForExistingMember</text>
<text text-anchor="start" x="83.5836" y="-364.3" font-family="Arial" font-size="14.00">LeaveRequestForNonMember</text>
<text text-anchor="start" x="83.5836" y="-349.3" font-family="Arial" font-size="14.00">VoteNotForNextGeneration</text>
<text text-anchor="start" x="83.5836" y="-334.3" font-family="Arial" font-size="14.00">VoteFromNonMember</text>
<text text-anchor="start" x="83.5836" y="-319.3" font-family="Arial" font-size="14.00">VoterChangedMind</text>
<text text-anchor="start" x="83.5836" y="-304.3" font-family="Arial" font-size="14.00">ExistingVoteIncompatibleWithNewVote</text>
<text text-anchor="start" x="83.5836" y="-289.3" font-family="Arial" font-size="14.00">SuperMajorityBallotIsNotSuperMajority</text>
<text text-anchor="start" x="83.5836" y="-274.3" font-family="Arial" font-size="14.00">InvalidGeneration(Generation)</text>
<text text-anchor="start" x="83.5836" y="-259.3" font-family="Arial" font-size="14.00">InvalidVoteInHistory(Vote&lt;A, S&gt;)</text>
<text text-anchor="start" x="83.5836" y="-244.3" font-family="Arial" font-size="14.00">Encoding(bincode::Error)</text>
<text text-anchor="start" x="83.5836" y="-229.3" font-family="Arial" font-size="14.00">Other(String)</text>
<polygon fill="none" stroke="black" points="71.0836,-214 71.0836,-515 342.084,-515 342.084,-214 71.0836,-214"/>
</a>
</g>
</g>
<!-- ndState -->
<g id="node5" class="node"><title>ndState</title>
<g id="a_node5_1"><a xlink:href="https://github.com/maidsafe/brb_membership/blob/master/src/brb_membership.rs#:~:text=struct%20State" xlink:title="&lt;TABLE&gt;">
<polygon fill="lightblue" stroke="none" points="56.5836,-132 56.5836,-169 528.584,-169 528.584,-132 56.5836,-132"/>
<polygon fill="none" stroke="black" points="56.5836,-132 56.5836,-169 528.584,-169 528.584,-132 56.5836,-132"/>
<text text-anchor="start" x="274.584" y="-147.8" font-family="Arial" font-weight="bold" font-size="14.00">State</text>
<polygon fill="white" stroke="none" points="56.5836,-5 56.5836,-132 528.584,-132 528.584,-5 56.5836,-5"/>
<polygon fill="none" stroke="black" points="56.5836,-5 56.5836,-132 528.584,-132 528.584,-5 56.5836,-5"/>
<text text-anchor="start" x="67.5836" y="-109.8" font-family="Arial" font-size="14.00">+ id: SA</text>
<text text-anchor="start" x="67.5836" y="-94.8" font-family="Arial" font-size="14.00">+ gen: Generation</text>
<text text-anchor="start" x="67.5836" y="-79.8" font-family="Arial" font-size="14.00">+ pending_gen: Generation</text>
<text text-anchor="start" x="67.5836" y="-64.8" font-family="Arial" font-size="14.00">+ forced_reconfigs: BTreeMap&lt;Generation, BTreeSet&lt;Reconfig&lt;A&gt;&gt;&gt;</text>
<text text-anchor="start" x="67.5836" y="-49.8" font-family="Arial" font-size="14.00">+ history: BTreeMap&lt;Generation, Vote&lt;A, S&gt;&gt;</text>
<text text-anchor="start" x="67.5836" y="-34.8" font-family="Arial" font-size="14.00">+ votes: BTreeMap&lt;A, Vote&lt;A, S&gt;&gt;</text>
<text text-anchor="start" x="67.5836" y="-19.8" font-family="Arial" font-size="14.00">+ faulty: bool</text>
<polygon fill="none" stroke="black" points="55.5836,-4 55.5836,-170 529.584,-170 529.584,-4 55.5836,-4"/>
</a>
</g>
</g>
<!-- ndError&#45;&gt;ndState -->
<g id="edge1" class="edge"><title>ndError&#45;&gt;ndState</title>
<path fill="none" stroke="black" d="M254.612,-209.64C257.323,-200.958 260.006,-192.363 262.618,-183.995"/>
<polygon fill="black" stroke="black" points="265.649,-174.284 266.965,-185.171 264.159,-179.057 262.669,-183.83 262.669,-183.83 262.669,-183.83 264.159,-179.057 258.374,-182.489 265.649,-174.284 265.649,-174.284"/>
</g>
<!-- ndActor -->
<g id="node2" class="node"><title>ndActor</title>
<g id="a_node2_2"><a xlink:href="https://github.com/maidsafe/brb_membership/blob/master/src/actor.rs#:~:text=trait%20Actor" xlink:title="&lt;TABLE&gt;">
<polygon fill="lightgreen" stroke="none" points="413.584,-758 413.584,-795 473.584,-795 473.584,-758 413.584,-758"/>
<polygon fill="none" stroke="black" points="413.584,-758 413.584,-795 473.584,-795 473.584,-758 413.584,-758"/>
<text text-anchor="start" x="424.584" y="-773.8" font-family="Arial" font-weight="bold" font-size="14.00">Actor</text>
<polygon fill="none" stroke="black" points="412.584,-757.5 412.584,-796.5 474.584,-796.5 474.584,-757.5 412.584,-757.5"/>
</a>
</g>
</g>
<!-- ndSigningActor -->
<g id="node3" class="node"><title>ndSigningActor</title>
<g id="a_node3_3"><a xlink:href="https://github.com/maidsafe/brb_membership/blob/master/src/actor.rs#:~:text=trait%20SigningActor" xlink:title="&lt;TABLE&gt;">
<polygon fill="lightgreen" stroke="none" points="420.584,-600.5 420.584,-637.5 533.584,-637.5 533.584,-600.5 420.584,-600.5"/>
<polygon fill="none" stroke="black" points="420.584,-600.5 420.584,-637.5 533.584,-637.5 533.584,-600.5 420.584,-600.5"/>
<text text-anchor="start" x="431.584" y="-616.3" font-family="Arial" font-weight="bold" font-size="14.00">SigningActor</text>
<polygon fill="none" stroke="black" points="419.084,-600 419.084,-639 534.084,-639 534.084,-600 419.084,-600"/>
</a>
</g>
</g>
<!-- ndActor&#45;&gt;ndSigningActor -->
<g id="edge2" class="edge"><title>ndActor&#45;&gt;ndSigningActor</title>
<path fill="none" stroke="black" d="M448.382,-753.389C453.979,-727.017 463.276,-683.207 469.655,-653.146"/>
<polygon fill="black" stroke="black" points="471.779,-643.138 474.105,-653.855 470.741,-648.029 469.703,-652.92 469.703,-652.92 469.703,-652.92 470.741,-648.029 465.301,-651.986 471.779,-643.138 471.779,-643.138"/>
</g>
<!-- ndSig -->
<g id="node4" class="node"><title>ndSig</title>
<g id="a_node4_4"><a xlink:href="https://github.com/maidsafe/brb_membership/blob/master/src/actor.rs#:~:text=trait%20Sig" xlink:title="&lt;TABLE&gt;">
<polygon fill="lightgreen" stroke="none" points="454.584,-900.5 454.584,-937.5 499.584,-937.5 499.584,-900.5 454.584,-900.5"/>
<polygon fill="none" stroke="black" points="454.584,-900.5 454.584,-937.5 499.584,-937.5 499.584,-900.5 454.584,-900.5"/>
<text text-anchor="start" x="465.584" y="-916.3" font-family="Arial" font-weight="bold" font-size="14.00">Sig</text>
<polygon fill="none" stroke="black" points="453.084,-900 453.084,-939 500.084,-939 500.084,-900 453.084,-900"/>
</a>
</g>
</g>
<!-- ndSig&#45;&gt;ndActor -->
<g id="edge3" class="edge"><title>ndSig&#45;&gt;ndActor</title>
<path fill="none" stroke="black" stroke-dasharray="5,2" d="M471.282,-895.926C465.845,-872.78 457.338,-836.559 451.185,-810.365"/>
<polygon fill="black" stroke="black" points="448.872,-800.518 455.54,-809.224 450.016,-805.385 451.159,-810.253 451.159,-810.253 451.159,-810.253 450.016,-805.385 446.778,-811.282 448.872,-800.518 448.872,-800.518"/>
</g>
<!-- ndSig&#45;&gt;ndSigningActor -->
<g id="edge4" class="edge"><title>ndSig&#45;&gt;ndSigningActor</title>
<path fill="none" stroke="black" d="M481.754,-895.692C485.315,-878.769 489.728,-855.076 491.584,-834 496.029,-783.529 495.371,-770.525 491.584,-720 489.909,-697.658 486.148,-672.729 482.811,-653.413"/>
<polygon fill="black" stroke="black" points="481.016,-643.311 487.196,-652.37 481.891,-648.234 482.765,-653.157 482.765,-653.157 482.765,-653.157 481.891,-648.234 478.335,-653.944 481.016,-643.311 481.016,-643.311"/>
</g>
<!-- ndReconfig -->
<g id="node6" class="node"><title>ndReconfig</title>
<g id="a_node6_5"><a xlink:href="https://github.com/maidsafe/brb_membership/blob/master/src/brb_membership.rs#:~:text=enum%20Reconfig" xlink:title="&lt;TABLE&gt;">
<polygon fill="yellow" stroke="none" points="163.584,-926.5 163.584,-963.5 247.584,-963.5 247.584,-926.5 163.584,-926.5"/>
<polygon fill="none" stroke="black" points="163.584,-926.5 163.584,-963.5 247.584,-963.5 247.584,-926.5 163.584,-926.5"/>
<text text-anchor="start" x="174.584" y="-942.3" font-family="Arial" font-weight="bold" font-size="14.00">Reconfig</text>
<polygon fill="white" stroke="none" points="163.584,-874.5 163.584,-926.5 247.584,-926.5 247.584,-874.5 163.584,-874.5"/>
<polygon fill="none" stroke="black" points="163.584,-874.5 163.584,-926.5 247.584,-926.5 247.584,-874.5 163.584,-874.5"/>
<text text-anchor="start" x="174.584" y="-904.3" font-family="Arial" font-size="14.00">Join(A)</text>
<text text-anchor="start" x="174.584" y="-889.3" font-family="Arial" font-size="14.00">Leave(A)</text>
<polygon fill="none" stroke="black" points="162.584,-874 162.584,-965 248.584,-965 248.584,-874 162.584,-874"/>
</a>
</g>
</g>
<!-- ndReconfig&#45;&gt;ndState -->
<g id="edge5" class="edge"><title>ndReconfig&#45;&gt;ndState</title>
<path fill="none" stroke="black" d="M154.562,-905.009C119.398,-892.756 75.2442,-870.824 53.5836,-834 -16.7214,-714.477 -18.8257,-328.26 53.5836,-210 59.632,-200.122 66.7599,-191.011 74.7007,-182.613"/>
<polygon fill="black" stroke="black" points="74.7429,-182.571 76.1827,-175.505 83.2588,-174.117 81.8191,-181.183 74.7429,-182.571"/>
</g>
<!-- ndBallot -->
<g id="node7" class="node"><title>ndBallot</title>
<g id="a_node7_6"><a xlink:href="https://github.com/maidsafe/brb_membership/blob/master/src/brb_membership.rs#:~:text=enum%20Ballot" xlink:title="&lt;TABLE&gt;">
<polygon fill="yellow" stroke="none" points="71.5836,-792 71.5836,-829 339.584,-829 339.584,-792 71.5836,-792"/>
<polygon fill="none" stroke="black" points="71.5836,-792 71.5836,-829 339.584,-829 339.584,-792 71.5836,-792"/>
<text text-anchor="start" x="185.584" y="-807.8" font-family="Arial" font-weight="bold" font-size="14.00">Ballot</text>
<polygon fill="white" stroke="none" points="71.5836,-725 71.5836,-792 339.584,-792 339.584,-725 71.5836,-725"/>
<polygon fill="none" stroke="black" points="71.5836,-725 71.5836,-792 339.584,-792 339.584,-725 71.5836,-725"/>
<text text-anchor="start" x="82.5836" y="-769.8" font-family="Arial" font-size="14.00">Propose(Reconfig&lt;A&gt;)</text>
<text text-anchor="start" x="82.5836" y="-754.8" font-family="Arial" font-size="14.00">Merge(BTreeSet&lt;Vote&lt;A, S&gt;&gt;)</text>
<text text-anchor="start" x="82.5836" y="-739.8" font-family="Arial" font-size="14.00">SuperMajority(BTreeSet&lt;Vote&lt;A, S&gt;&gt;)</text>
<polygon fill="none" stroke="black" points="70.5836,-724 70.5836,-830 340.584,-830 340.584,-724 70.5836,-724"/>
</a>
</g>
</g>
<!-- ndReconfig&#45;&gt;ndBallot -->
<g id="edge6" class="edge"><title>ndReconfig&#45;&gt;ndBallot</title>
<path fill="none" stroke="black" d="M205.584,-869.754C205.584,-862.264 205.584,-854.414 205.584,-846.59"/>
<polygon fill="black" stroke="black" points="205.584,-846.375 201.584,-840.375 205.584,-834.375 209.584,-840.375 205.584,-846.375"/>
</g>
<!-- ndVote -->
<g id="node8" class="node"><title>ndVote</title>
<g id="a_node8_7"><a xlink:href="https://github.com/maidsafe/brb_membership/blob/master/src/brb_membership.rs#:~:text=struct%20Vote" xlink:title="&lt;TABLE&gt;">
<polygon fill="lightblue" stroke="none" points="179.584,-641.5 179.584,-678.5 334.584,-678.5 334.584,-641.5 179.584,-641.5"/>
<polygon fill="none" stroke="black" points="179.584,-641.5 179.584,-678.5 334.584,-678.5 334.584,-641.5 179.584,-641.5"/>
<text text-anchor="start" x="241.584" y="-657.3" font-family="Arial" font-weight="bold" font-size="14.00">Vote</text>
<polygon fill="white" stroke="none" points="179.584,-559.5 179.584,-641.5 334.584,-641.5 334.584,-559.5 179.584,-559.5"/>
<polygon fill="none" stroke="black" points="179.584,-559.5 179.584,-641.5 334.584,-641.5 334.584,-559.5 179.584,-559.5"/>
<text text-anchor="start" x="190.584" y="-619.3" font-family="Arial" font-size="14.00">+ gen: Generation</text>
<text text-anchor="start" x="190.584" y="-604.3" font-family="Arial" font-size="14.00">+ ballot: Ballot&lt;A, S&gt;</text>
<text text-anchor="start" x="190.584" y="-589.3" font-family="Arial" font-size="14.00">+ voter: A</text>
<text text-anchor="start" x="190.584" y="-574.3" font-family="Arial" font-size="14.00">+ sig: S</text>
<polygon fill="none" stroke="black" points="178.084,-559 178.084,-680 335.084,-680 335.084,-559 178.084,-559"/>
</a>
</g>
</g>
<!-- ndReconfig&#45;&gt;ndVote -->
<g id="edge7" class="edge"><title>ndReconfig&#45;&gt;ndVote</title>
<path fill="none" stroke="black" d="M256.605,-905.009C291.769,-892.756 335.923,-870.824 357.584,-834 383.272,-790.328 377.148,-766.737 357.584,-720 353.514,-710.278 347.981,-701.025 341.587,-692.356"/>
<polygon fill="black" stroke="black" points="335.212,-684.227 344.924,-689.32 338.298,-688.162 341.383,-692.096 341.383,-692.096 341.383,-692.096 338.298,-688.162 337.842,-694.873 335.212,-684.227 335.212,-684.227"/>
</g>
<!-- ndBallot&#45;&gt;ndVote -->
<g id="edge8" class="edge"><title>ndBallot&#45;&gt;ndVote</title>
<path fill="none" stroke="black" d="M217.483,-719.861C219.885,-711.997 222.492,-703.812 225.185,-695.666"/>
<polygon fill="black" stroke="black" points="225.212,-695.585 223.333,-688.622 229.037,-684.21 230.916,-691.173 225.212,-695.585"/>
</g>
<!-- ndVote&#45;&gt;ndError -->
<g id="edge9" class="edge"><title>ndVote&#45;&gt;ndError</title>
<path fill="none" stroke="black" d="M244.031,-554.984C242.517,-547.323 240.921,-539.249 239.276,-530.926"/>
<polygon fill="black" stroke="black" points="239.248,-530.781 234.161,-525.671 236.921,-519.009 242.009,-524.12 239.248,-530.781"/>
</g>
<!-- ndVote&#45;&gt;ndState -->
<g id="edge10" class="edge"><title>ndVote&#45;&gt;ndState</title>
<path fill="none" stroke="black" d="M335.981,-554.866C345.154,-543.921 353.155,-531.88 358.584,-519 411.925,-392.449 392.287,-343.133 358.584,-210 356.348,-201.171 353.333,-192.288 349.817,-183.559"/>
<polygon fill="black" stroke="black" points="345.819,-174.159 353.874,-181.599 347.776,-178.76 349.733,-183.361 349.733,-183.361 349.733,-183.361 347.776,-178.76 345.592,-185.122 345.819,-174.159 345.819,-174.159"/>
</g>
<!-- ndVote&#45;&gt;ndBallot -->
<g id="edge11" class="edge"><title>ndVote&#45;&gt;ndBallot</title>
<path fill="none" stroke="black" d="M242.339,-684.21C239.848,-692.15 237.195,-700.291 234.491,-708.288"/>
<polygon fill="black" stroke="black" points="234.413,-708.514 236.243,-715.489 230.508,-719.861 228.679,-712.886 234.413,-708.514"/>
</g>
<!-- ndVoteMsg -->
<g id="node9" class="node"><title>ndVoteMsg</title>
<g id="a_node9_8"><a xlink:href="https://github.com/maidsafe/brb_membership/blob/master/src/brb_membership.rs#:~:text=struct%20VoteMsg" xlink:title="&lt;TABLE&gt;">
<polygon fill="lightblue" stroke="none" points="415.584,-371.5 415.584,-408.5 557.584,-408.5 557.584,-371.5 415.584,-371.5"/>
<polygon fill="none" stroke="black" points="415.584,-371.5 415.584,-408.5 557.584,-408.5 557.584,-371.5 415.584,-371.5"/>
<text text-anchor="start" x="456.084" y="-387.3" font-family="Arial" font-weight="bold" font-size="14.00">VoteMsg</text>
<polygon fill="white" stroke="none" points="415.584,-319.5 415.584,-371.5 557.584,-371.5 557.584,-319.5 415.584,-319.5"/>
<polygon fill="none" stroke="black" points="415.584,-319.5 415.584,-371.5 557.584,-371.5 557.584,-319.5 415.584,-319.5"/>
<text text-anchor="start" x="426.584" y="-349.3" font-family="Arial" font-size="14.00">+ vote: Vote&lt;A, S&gt;</text>
<text text-anchor="start" x="426.584" y="-334.3" font-family="Arial" font-size="14.00">+ dest: A</text>
<polygon fill="none" stroke="black" points="414.584,-319 414.584,-410 558.584,-410 558.584,-319 414.584,-319"/>
</a>
</g>
</g>
<!-- ndVote&#45;&gt;ndVoteMsg -->
<g id="edge12" class="edge"><title>ndVote&#45;&gt;ndVoteMsg</title>
<path fill="none" stroke="black" d="M343.179,-563.01C360.603,-549.753 378.016,-534.816 392.584,-519 418.321,-491.057 440.812,-455.036 457.336,-424.912"/>
<polygon fill="black" stroke="black" points="457.464,-424.674 456.784,-417.495 463.149,-414.106 463.829,-421.285 457.464,-424.674"/>
</g>
<!-- ndVoteMsg&#45;&gt;ndState -->
<g id="edge13" class="edge"><title>ndVoteMsg&#45;&gt;ndState</title>
<path fill="none" stroke="black" d="M459.014,-314.704C441.097,-283.981 416.666,-243.873 392.584,-210 386.079,-200.85 379.093,-191.503 371.947,-182.255"/>
<polygon fill="black" stroke="black" points="365.634,-174.162 375.333,-179.279 368.709,-178.105 371.784,-182.047 371.784,-182.047 371.784,-182.047 368.709,-178.105 368.236,-184.815 365.634,-174.162 365.634,-174.162"/>
</g>
</g>
</svg>
