<?xml version="1.0" encoding="UTF-8" standalone="no"?>
<!DOCTYPE svg PUBLIC "-//W3C//DTD SVG 1.1//EN"
 "http://www.w3.org/Graphics/SVG/1.1/DTD/svg11.dtd">
<!-- Generated by graphviz version 2.38.0 (20140413.2041)
 -->
<!-- Title: ml Pages: 1 -->
<svg width="294pt" height="55pt"
 viewBox="0.00 0.00 294.00 55.00" xmlns="http://www.w3.org/2000/svg" xmlns:xlink="http://www.w3.org/1999/xlink">
<g id="graph0" class="graph" transform="scale(1 1) rotate(0) translate(4 51)">
<title>ml</title>
<polygon fill="white" stroke="none" points="-4,4 -4,-51 290,-51 290,4 -4,4"/>
<!-- ndBRBOrswot -->
<g id="node1" class="node"><title>ndBRBOrswot</title>
<polygon fill="lightblue" stroke="none" points="9,-4.5 9,-41.5 113,-41.5 113,-4.5 9,-4.5"/>
<polygon fill="none" stroke="black" points="9,-4.5 9,-41.5 113,-41.5 113,-4.5 9,-4.5"/>
<text text-anchor="start" x="20" y="-20.3" font-family="Arial" font-weight="bold" font-size="14.00">BRBOrswot</text>
<polygon fill="none" stroke="black" points="8,-4 8,-43 114,-43 114,-4 8,-4"/>
</g>
<!-- ndValidationError -->
<g id="node2" class="node"><title>ndValidationError</title>
<polygon fill="yellow" stroke="none" points="149,-4.5 149,-41.5 277,-41.5 277,-4.5 149,-4.5"/>
<polygon fill="none" stroke="black" points="149,-4.5 149,-41.5 277,-41.5 277,-4.5 149,-4.5"/>
<text text-anchor="start" x="160" y="-20.3" font-family="Arial" font-weight="bold" font-size="14.00">ValidationError</text>
<polygon fill="none" stroke="black" points="148,-4 148,-43 278,-43 278,-4 148,-4"/>
</g>
</g>
</svg>
