<?xml version="1.0" encoding="UTF-8" standalone="no"?>
<!DOCTYPE svg PUBLIC "-//W3C//DTD SVG 1.1//EN"
 "http://www.w3.org/Graphics/SVG/1.1/DTD/svg11.dtd">
<!-- Generated by graphviz version 2.38.0 (20140413.2041)
 -->
<!-- Title: ml Pages: 1 -->
<svg width="463pt" height="387pt"
 viewBox="0.00 0.00 463.12 387.00" xmlns="http://www.w3.org/2000/svg" xmlns:xlink="http://www.w3.org/1999/xlink">
<g id="graph0" class="graph" transform="scale(1 1) rotate(0) translate(4 383)">
<title>ml</title>
<polygon fill="white" stroke="none" points="-4,4 -4,-383 459.125,-383 459.125,4 -4,4"/>
<!-- ndError -->
<g id="node1" class="node"><title>ndError</title>
<g id="a_node1_0"><a xlink:href="https://github.com/maidsafe/brb_membership/blob/master/src/error.rs#:~:text=enum%20Error" xlink:title="&lt;TABLE&gt;">
<polygon fill="yellow" stroke="none" points="47.6247,-87.5 47.6247,-124.5 106.625,-124.5 106.625,-87.5 47.6247,-87.5"/>
<polygon fill="none" stroke="black" points="47.6247,-87.5 47.6247,-124.5 106.625,-124.5 106.625,-87.5 47.6247,-87.5"/>
<text text-anchor="start" x="58.6247" y="-103.3" font-family="Arial" font-weight="bold" font-size="14.00">Error</text>
<polygon fill="none" stroke="black" points="46.1247,-87 46.1247,-126 107.125,-126 107.125,-87 46.1247,-87"/>
</a>
</g>
</g>
<!-- ndState -->
<g id="node2" class="node"><title>ndState</title>
<g id="a_node2_1"><a xlink:href="https://github.com/maidsafe/brb_membership/blob/master/src/brb_membership.rs#:~:text=struct%20State" xlink:title="&lt;TABLE&gt;">
<polygon fill="lightblue" stroke="none" points="80.6247,-4.5 80.6247,-41.5 138.625,-41.5 138.625,-4.5 80.6247,-4.5"/>
<polygon fill="none" stroke="black" points="80.6247,-4.5 80.6247,-41.5 138.625,-41.5 138.625,-4.5 80.6247,-4.5"/>
<text text-anchor="start" x="91.6247" y="-20.3" font-family="Arial" font-weight="bold" font-size="14.00">State</text>
<polygon fill="none" stroke="black" points="79.6247,-4 79.6247,-43 139.625,-43 139.625,-4 79.6247,-4"/>
</a>
</g>
</g>
<!-- ndError&#45;&gt;ndState -->
<g id="edge1" class="edge"><title>ndError&#45;&gt;ndState</title>
<path fill="none" stroke="black" d="M85.8171,-82.937C89.1504,-74.7553 92.9823,-65.3497 96.5839,-56.5093"/>
<polygon fill="black" stroke="black" points="100.367,-47.2229 100.762,-58.1817 98.4807,-51.8534 96.5942,-56.4839 96.5942,-56.4839 96.5942,-56.4839 98.4807,-51.8534 92.4268,-54.786 100.367,-47.2229 100.367,-47.2229"/>
</g>
<!-- ndReconfig -->
<g id="node3" class="node"><title>ndReconfig</title>
<g id="a_node3_2"><a xlink:href="https://github.com/maidsafe/brb_membership/blob/master/src/brb_membership.rs#:~:text=enum%20Reconfig" xlink:title="&lt;TABLE&gt;">
<polygon fill="yellow" stroke="none" points="35.6247,-336.5 35.6247,-373.5 119.625,-373.5 119.625,-336.5 35.6247,-336.5"/>
<polygon fill="none" stroke="black" points="35.6247,-336.5 35.6247,-373.5 119.625,-373.5 119.625,-336.5 35.6247,-336.5"/>
<text text-anchor="start" x="46.6247" y="-352.3" font-family="Arial" font-weight="bold" font-size="14.00">Reconfig</text>
<polygon fill="none" stroke="black" points="34.6247,-336 34.6247,-375 120.625,-375 120.625,-336 34.6247,-336"/>
</a>
</g>
</g>
<!-- ndReconfig&#45;&gt;ndState -->
<g id="edge2" class="edge"><title>ndReconfig&#45;&gt;ndState</title>
<path fill="none" stroke="black" d="M52.3302,-331.934C42.9972,-321.96 33.5125,-309.447 28.6247,-296 -3.71416,-207.028 -14.4725,-167.288 28.6247,-83 35.7907,-68.9851 48.0537,-57.5556 60.8998,-48.6395"/>
<polygon fill="black" stroke="black" points="61.1314,-48.4914 64.0312,-41.889 71.241,-42.0264 68.3412,-48.6288 61.1314,-48.4914"/>
</g>
<!-- ndBallot -->
<g id="node4" class="node"><title>ndBallot</title>
<g id="a_node4_3"><a xlink:href="https://github.com/maidsafe/brb_membership/blob/master/src/brb_membership.rs#:~:text=enum%20Ballot" xlink:title="&lt;TABLE&gt;">
<polygon fill="yellow" stroke="none" points="46.6247,-253.5 46.6247,-290.5 108.625,-290.5 108.625,-253.5 46.6247,-253.5"/>
<polygon fill="none" stroke="black" points="46.6247,-253.5 46.6247,-290.5 108.625,-290.5 108.625,-253.5 46.6247,-253.5"/>
<text text-anchor="start" x="57.6247" y="-269.3" font-family="Arial" font-weight="bold" font-size="14.00">Ballot</text>
<polygon fill="none" stroke="black" points="45.6247,-253 45.6247,-292 109.625,-292 109.625,-253 45.6247,-253"/>
</a>
</g>
</g>
<!-- ndReconfig&#45;&gt;ndBallot -->
<g id="edge3" class="edge"><title>ndReconfig&#45;&gt;ndBallot</title>
<path fill="none" stroke="black" d="M77.6247,-331.937C77.6247,-324.626 77.6247,-316.337 77.6247,-308.348"/>
<polygon fill="black" stroke="black" points="77.6248,-308.223 73.6248,-302.223 77.6247,-296.223 81.6248,-302.223 77.6248,-308.223"/>
</g>
<!-- ndVote -->
<g id="node5" class="node"><title>ndVote</title>
<g id="a_node5_4"><a xlink:href="https://github.com/maidsafe/brb_membership/blob/master/src/brb_membership.rs#:~:text=struct%20Vote" xlink:title="&lt;TABLE&gt;">
<polygon fill="lightblue" stroke="none" points="117.625,-170.5 117.625,-207.5 170.625,-207.5 170.625,-170.5 117.625,-170.5"/>
<polygon fill="none" stroke="black" points="117.625,-170.5 117.625,-207.5 170.625,-207.5 170.625,-170.5 117.625,-170.5"/>
<text text-anchor="start" x="128.625" y="-186.3" font-family="Arial" font-weight="bold" font-size="14.00">Vote</text>
<polygon fill="none" stroke="black" points="116.125,-170 116.125,-209 171.125,-209 171.125,-170 116.125,-170"/>
</a>
</g>
</g>
<!-- ndReconfig&#45;&gt;ndVote -->
<g id="edge4" class="edge"><title>ndReconfig&#45;&gt;ndVote</title>
<path fill="none" stroke="black" d="M101.604,-331.778C110.851,-321.69 120.624,-309.135 126.625,-296 137.044,-273.191 141.2,-245.058 142.802,-223.581"/>
<polygon fill="black" stroke="black" points="143.413,-213.323 147.31,-223.573 143.116,-218.314 142.818,-223.305 142.818,-223.305 142.818,-223.305 143.116,-218.314 138.326,-223.038 143.413,-213.323 143.413,-213.323"/>
</g>
<!-- ndBallot&#45;&gt;ndVote -->
<g id="edge5" class="edge"><title>ndBallot&#45;&gt;ndVote</title>
<path fill="none" stroke="black" d="M96.0094,-248.937C102.605,-240.842 110.177,-231.55 117.313,-222.792"/>
<polygon fill="black" stroke="black" points="117.53,-222.526 118.219,-215.348 125.11,-213.223 124.421,-220.401 117.53,-222.526"/>
</g>
<!-- ndVote&#45;&gt;ndError -->
<g id="edge6" class="edge"><title>ndVote&#45;&gt;ndError</title>
<path fill="none" stroke="black" d="M124.962,-165.937C118.194,-157.755 110.414,-148.35 103.102,-139.509"/>
<polygon fill="black" stroke="black" points="103.069,-139.47 96.1623,-137.396 95.4203,-130.223 102.327,-132.297 103.069,-139.47"/>
</g>
<!-- ndVote&#45;&gt;ndState -->
<g id="edge7" class="edge"><title>ndVote&#45;&gt;ndState</title>
<path fill="none" stroke="black" d="M139.643,-165.8C135.813,-144.392 129.719,-111.436 123.625,-83 121.82,-74.579 119.725,-65.5126 117.714,-57.0905"/>
<polygon fill="black" stroke="black" points="115.329,-47.2237 122.053,-55.886 116.504,-52.0837 117.679,-56.9436 117.679,-56.9436 117.679,-56.9436 116.504,-52.0837 113.305,-58.0013 115.329,-47.2237 115.329,-47.2237"/>
</g>
<!-- ndVoteMsg -->
<g id="node6" class="node"><title>ndVoteMsg</title>
<g id="a_node6_5"><a xlink:href="https://github.com/maidsafe/brb_membership/blob/master/src/brb_membership.rs#:~:text=struct%20VoteMsg" xlink:title="&lt;TABLE&gt;">
<polygon fill="lightblue" stroke="none" points="181.625,-87.5 181.625,-124.5 264.625,-124.5 264.625,-87.5 181.625,-87.5"/>
<polygon fill="none" stroke="black" points="181.625,-87.5 181.625,-124.5 264.625,-124.5 264.625,-87.5 181.625,-87.5"/>
<text text-anchor="start" x="192.625" y="-103.3" font-family="Arial" font-weight="bold" font-size="14.00">VoteMsg</text>
<polygon fill="none" stroke="black" points="180.125,-87 180.125,-126 265.125,-126 265.125,-87 180.125,-87"/>
</a>
</g>
</g>
<!-- ndVote&#45;&gt;ndVoteMsg -->
<g id="edge8" class="edge"><title>ndVote&#45;&gt;ndVoteMsg</title>
<path fill="none" stroke="black" d="M165.631,-165.937C173.78,-157.581 183.175,-147.949 191.955,-138.946"/>
<polygon fill="black" stroke="black" points="192.084,-138.814 193.41,-131.725 200.463,-130.223 199.137,-137.311 192.084,-138.814"/>
</g>
<!-- ndVoteMsg&#45;&gt;ndState -->
<g id="edge9" class="edge"><title>ndVoteMsg&#45;&gt;ndState</title>
<path fill="none" stroke="black" d="M191.148,-82.937C178.277,-73.7108 163.235,-62.9283 149.6,-53.1549"/>
<polygon fill="black" stroke="black" points="141.325,-47.2229 152.074,-49.3915 145.388,-50.136 149.452,-53.049 149.452,-53.049 149.452,-53.049 145.388,-50.136 146.831,-56.7064 141.325,-47.2229 141.325,-47.2229"/>
</g>
<!-- ndActor -->
<g id="node7" class="node"><title>ndActor</title>
<g id="a_node7_6"><a xlink:href="https://github.com/maidsafe/brb_membership/blob/master/src/actor.rs#:~:text=trait%20Actor" xlink:title="&lt;TABLE&gt;">
<polygon fill="lightgreen" stroke="none" points="155.625,-336.5 155.625,-373.5 215.625,-373.5 215.625,-336.5 155.625,-336.5"/>
<polygon fill="none" stroke="black" points="155.625,-336.5 155.625,-373.5 215.625,-373.5 215.625,-336.5 155.625,-336.5"/>
<text text-anchor="start" x="166.625" y="-352.3" font-family="Arial" font-weight="bold" font-size="14.00">Actor</text>
<polygon fill="none" stroke="black" points="154.625,-336 154.625,-375 216.625,-375 216.625,-336 154.625,-336"/>
</a>
</g>
</g>
<!-- ndSigningActor -->
<g id="node8" class="node"><title>ndSigningActor</title>
<g id="a_node8_7"><a xlink:href="https://github.com/maidsafe/brb_membership/blob/master/src/actor.rs#:~:text=trait%20SigningActor" xlink:title="&lt;TABLE&gt;">
<polygon fill="lightgreen" stroke="none" points="252.625,-336.5 252.625,-373.5 365.625,-373.5 365.625,-336.5 252.625,-336.5"/>
<polygon fill="none" stroke="black" points="252.625,-336.5 252.625,-373.5 365.625,-373.5 365.625,-336.5 252.625,-336.5"/>
<text text-anchor="start" x="263.625" y="-352.3" font-family="Arial" font-weight="bold" font-size="14.00">SigningActor</text>
<polygon fill="none" stroke="black" points="251.125,-336 251.125,-375 366.125,-375 366.125,-336 251.125,-336"/>
</a>
</g>
</g>
<!-- ndSig -->
<g id="node9" class="node"><title>ndSig</title>
<g id="a_node9_8"><a xlink:href="https://github.com/maidsafe/brb_membership/blob/master/src/actor.rs#:~:text=trait%20Sig" xlink:title="&lt;TABLE&gt;">
<polygon fill="lightgreen" stroke="none" points="401.625,-336.5 401.625,-373.5 446.625,-373.5 446.625,-336.5 401.625,-336.5"/>
<polygon fill="none" stroke="black" points="401.625,-336.5 401.625,-373.5 446.625,-373.5 446.625,-336.5 401.625,-336.5"/>
<text text-anchor="start" x="412.625" y="-352.3" font-family="Arial" font-weight="bold" font-size="14.00">Sig</text>
<polygon fill="none" stroke="black" points="400.125,-336 400.125,-375 447.125,-375 447.125,-336 400.125,-336"/>
</a>
</g>
</g>
</g>
</svg>
