<?xml version="1.0" encoding="UTF-8" standalone="no"?>
<!DOCTYPE svg PUBLIC "-//W3C//DTD SVG 1.1//EN"
 "http://www.w3.org/Graphics/SVG/1.1/DTD/svg11.dtd">
<!-- Generated by graphviz version 2.38.0 (20140413.2041)
 -->
<!-- Title: ml Pages: 1 -->
<svg width="308pt" height="92pt"
 viewBox="0.00 0.00 308.00 92.00" xmlns="http://www.w3.org/2000/svg" xmlns:xlink="http://www.w3.org/1999/xlink">
<g id="graph0" class="graph" transform="scale(1 1) rotate(0) translate(4 88)">
<title>ml</title>
<polygon fill="white" stroke="none" points="-4,4 -4,-88 304,-88 304,4 -4,4"/>
<!-- ndBRBTree -->
<g id="node1" class="node"><title>ndBRBTree</title>
<text text-anchor="middle" x="41" y="-38.3" font-family="Times,serif" font-size="14.00">ndBRBTree</text>
</g>
<!-- ndValidationError -->
<g id="node2" class="node"><title>ndValidationError</title>
<g id="a_node2_0"><a xlink:href="https://github.com/maidsafe/brb_dt_tree/blob/master/src/brb_tree.rs#:~:text=enum%20ValidationError" xlink:title="&lt;TABLE&gt;">
<polygon fill="yellow" stroke="none" points="109,-42 109,-79 291,-79 291,-42 109,-42"/>
<polygon fill="none" stroke="black" points="109,-42 109,-79 291,-79 291,-42 109,-42"/>
<text text-anchor="start" x="147" y="-57.8" font-family="Arial" font-weight="bold" font-size="14.00">ValidationError</text>
<polygon fill="white" stroke="none" points="109,-5 109,-42 291,-42 291,-5 109,-5"/>
<polygon fill="none" stroke="black" points="109,-5 109,-42 291,-42 291,-5 109,-5"/>
<text text-anchor="start" x="120" y="-19.8" font-family="Arial" font-size="14.00">SourceDoesNotMatchOp</text>
<polygon fill="none" stroke="black" points="108,-4 108,-80 292,-80 292,-4 108,-4"/>
</a>
</g>
</g>
</g>
</svg>
