<?xml version="1.0" encoding="UTF-8" standalone="no"?>
<!DOCTYPE svg PUBLIC "-//W3C//DTD SVG 1.1//EN"
 "http://www.w3.org/Graphics/SVG/1.1/DTD/svg11.dtd">
<!-- Generated by graphviz version 2.38.0 (20140413.2041)
 -->
<!-- Title: ml Pages: 1 -->
<svg width="686pt" height="127pt"
 viewBox="0.00 0.00 686.00 127.00" xmlns="http://www.w3.org/2000/svg" xmlns:xlink="http://www.w3.org/1999/xlink">
<g id="graph0" class="graph" transform="scale(1 1) rotate(0) translate(4 123)">
<title>ml</title>
<polygon fill="white" stroke="none" points="-4,4 -4,-123 682,-123 682,4 -4,4"/>
<!-- ndSharedBRB -->
<g id="node1" class="node"><title>ndSharedBRB</title>
<text text-anchor="middle" x="184.5" y="-91.8" font-family="Times,serif" font-size="14.00">ndSharedBRB</text>
</g>
<!-- ndRepl -->
<g id="node2" class="node"><title>ndRepl</title>
<text text-anchor="middle" x="81.5" y="-14.3" font-family="Times,serif" font-size="14.00">ndRepl</text>
</g>
<!-- ndSharedBRB&#45;&gt;ndRepl -->
<g id="edge1" class="edge"><title>ndSharedBRB&#45;&gt;ndRepl</title>
<path fill="none" stroke="black" stroke-dasharray="5,2" d="M161.128,-77.3679C147.432,-67.3286 129.907,-54.483 114.787,-43.3997"/>
<polygon fill="black" stroke="black" points="114.458,-43.1587 107.254,-42.8376 104.78,-36.0643 111.984,-36.3854 114.458,-43.1587"/>
</g>
<!-- ndRouter -->
<g id="node3" class="node"><title>ndRouter</title>
<text text-anchor="middle" x="184.5" y="-14.3" font-family="Times,serif" font-size="14.00">ndRouter</text>
</g>
<!-- ndSharedBRB&#45;&gt;ndRouter -->
<g id="edge2" class="edge"><title>ndSharedBRB&#45;&gt;ndRouter</title>
<path fill="none" stroke="black" stroke-dasharray="5,2" d="M184.5,-77.3679C184.5,-68.7766 184.5,-58.1301 184.5,-48.2916"/>
<polygon fill="black" stroke="black" points="184.5,-48.0643 180.5,-42.0644 184.5,-36.0643 188.5,-42.0643 184.5,-48.0643"/>
</g>
<!-- ndRouterCmd -->
<g id="node4" class="node"><title>ndRouterCmd</title>
<g id="a_node4_0"><a xlink:href="https://github.com/maidsafe/brb_node_qp2p/blob/master/src/brb_node.rs#:~:text=enum%20RouterCmd" xlink:title="&lt;TABLE&gt;">
<polygon fill="yellow" stroke="none" points="9.5,-76.5 9.5,-113.5 110.5,-113.5 110.5,-76.5 9.5,-76.5"/>
<polygon fill="none" stroke="black" points="9.5,-76.5 9.5,-113.5 110.5,-113.5 110.5,-76.5 9.5,-76.5"/>
<text text-anchor="start" x="20.5" y="-92.3" font-family="Arial" font-weight="bold" font-size="14.00">RouterCmd</text>
<polygon fill="none" stroke="black" points="8,-76 8,-115 111,-115 111,-76 8,-76"/>
</a>
</g>
</g>
<!-- ndRouterCmd&#45;&gt;ndRepl -->
<g id="edge3" class="edge"><title>ndRouterCmd&#45;&gt;ndRepl</title>
<path fill="none" stroke="black" d="M66.1007,-71.8475C68.2935,-64.3223 70.7655,-55.8388 73.0767,-47.9071"/>
<polygon fill="black" stroke="black" points="73.1559,-47.6353 70.9942,-40.7558 76.513,-36.1144 78.6747,-42.9939 73.1559,-47.6353"/>
</g>
<!-- ndRouterCmd&#45;&gt;ndRouter -->
<g id="edge4" class="edge"><title>ndRouterCmd&#45;&gt;ndRouter</title>
<path fill="none" stroke="black" stroke-dasharray="5,2" d="M97.0041,-71.8475C112.874,-62.2618 131.319,-51.1212 147.171,-41.547"/>
<polygon fill="black" stroke="black" points="156.165,-36.1144 149.932,-45.1365 151.885,-38.6995 147.605,-41.2846 147.605,-41.2846 147.605,-41.2846 151.885,-38.6995 145.278,-37.4327 156.165,-36.1144 156.165,-36.1144"/>
</g>
<!-- ndNetworkMsg -->
<g id="node5" class="node"><title>ndNetworkMsg</title>
<g id="a_node5_1"><a xlink:href="https://github.com/maidsafe/brb_node_qp2p/blob/master/src/brb_node.rs#:~:text=enum%20NetworkMsg" xlink:title="&lt;TABLE&gt;">
<polygon fill="yellow" stroke="none" points="259.5,-76.5 259.5,-113.5 369.5,-113.5 369.5,-76.5 259.5,-76.5"/>
<polygon fill="none" stroke="black" points="259.5,-76.5 259.5,-113.5 369.5,-113.5 369.5,-76.5 259.5,-76.5"/>
<text text-anchor="start" x="270.5" y="-92.3" font-family="Arial" font-weight="bold" font-size="14.00">NetworkMsg</text>
<polygon fill="none" stroke="black" points="258.5,-76 258.5,-115 370.5,-115 370.5,-76 258.5,-76"/>
</a>
</g>
</g>
<!-- ndNetworkMsg&#45;&gt;ndRouter -->
<g id="edge5" class="edge"><title>ndNetworkMsg&#45;&gt;ndRouter</title>
<path fill="none" stroke="black" stroke-dasharray="5,2" d="M275.496,-71.8475C258.836,-62.1722 239.449,-50.9128 222.861,-41.279"/>
<polygon fill="black" stroke="black" points="213.969,-36.1144 224.876,-37.2453 218.292,-38.6255 222.616,-41.1366 222.616,-41.1366 222.616,-41.1366 218.292,-38.6255 220.356,-45.028 213.969,-36.1144 213.969,-36.1144"/>
</g>
<!-- ndMyConnection -->
<g id="node6" class="node"><title>ndMyConnection</title>
<g id="a_node6_2"><a xlink:href="https://github.com/maidsafe/brb_node_qp2p/blob/master/src/brb_node.rs#:~:text=struct%20MyConnection" xlink:title="&lt;TABLE&gt;">
<polygon fill="lightblue" stroke="none" points="406.5,-76.5 406.5,-113.5 669.5,-113.5 669.5,-76.5 406.5,-76.5"/>
<polygon fill="none" stroke="black" points="406.5,-76.5 406.5,-113.5 669.5,-113.5 669.5,-76.5 406.5,-76.5"/>
<text text-anchor="start" x="417.5" y="-92.3" font-family="Arial" font-weight="bold" font-size="14.00">struct MyConnection(Connection);</text>
<polygon fill="none" stroke="black" points="405,-76 405,-115 670,-115 670,-76 405,-76"/>
</a>
</g>
</g>
</g>
</svg>
