<?xml version="1.0" encoding="UTF-8" standalone="no"?>
<!DOCTYPE svg PUBLIC "-//W3C//DTD SVG 1.1//EN"
 "http://www.w3.org/Graphics/SVG/1.1/DTD/svg11.dtd">
<!-- Generated by graphviz version 2.38.0 (20140413.2041)
 -->
<!-- Title: ml Pages: 1 -->
<svg width="638pt" height="609pt"
 viewBox="0.00 0.00 638.00 609.00" xmlns="http://www.w3.org/2000/svg" xmlns:xlink="http://www.w3.org/1999/xlink">
<g id="graph0" class="graph" transform="scale(1 1) rotate(0) translate(4 605)">
<title>ml</title>
<polygon fill="white" stroke="none" points="-4,4 -4,-605 634,-605 634,4 -4,4"/>
<!-- ndBank -->
<g id="node1" class="node"><title>ndBank</title>
<g id="a_node1_0"><a xlink:href="https://github.com/maidsafe/brb_dt_at2/blob/master/src/bank.rs#:~:text=struct%20Bank" xlink:title="&lt;TABLE&gt;">
<polygon fill="lightblue" stroke="none" points="9,-228.5 9,-265.5 521,-265.5 521,-228.5 9,-228.5"/>
<polygon fill="none" stroke="black" points="9,-228.5 9,-265.5 521,-265.5 521,-228.5 9,-228.5"/>
<text text-anchor="start" x="246.5" y="-244.3" font-family="Arial" font-weight="bold" font-size="14.00">Bank</text>
<polygon fill="white" stroke="none" points="9,-146.5 9,-228.5 521,-228.5 521,-146.5 9,-146.5"/>
<polygon fill="none" stroke="black" points="9,-146.5 9,-228.5 521,-228.5 521,-146.5 9,-146.5"/>
<text text-anchor="start" x="20" y="-206.3" font-family="Arial" font-size="14.00">&#45; id: A</text>
<text text-anchor="start" x="20" y="-191.3" font-family="Arial" font-size="14.00">&#45; deps: BTreeSet&lt;Transfer&lt;A&gt;&gt;</text>
<text text-anchor="start" x="20" y="-176.3" font-family="Arial" font-size="14.00">&#45; initial_balances: BTreeMap&lt;A, Money&gt;</text>
<text text-anchor="start" x="20" y="-161.3" font-family="Arial" font-size="14.00">&#45; hist: BTreeMap&lt;A, BTreeSet&lt;Transfer&lt;A&gt;&gt;&gt;</text>
<polygon fill="white" stroke="none" points="9,-4.5 9,-146.5 521,-146.5 521,-4.5 9,-4.5"/>
<polygon fill="none" stroke="black" points="9,-4.5 9,-146.5 521,-146.5 521,-4.5 9,-4.5"/>
<text text-anchor="start" x="20" y="-124.3" font-family="Arial" font-size="14.00">&#45; open_account(&amp;self, owner: A, balance: Money) &#45;&gt; Op&lt;A&gt;</text>
<text text-anchor="start" x="20" y="-109.3" font-family="Arial" font-size="14.00">&#45; initial_balance(&amp;self, actor: &amp;A) &#45;&gt; Money</text>
<text text-anchor="start" x="20" y="-94.3" font-family="Arial" font-size="14.00">&#45; balance(&amp;self, actor: &amp;A) &#45;&gt; Money</text>
<text text-anchor="start" x="20" y="-79.3" font-family="Arial" font-size="14.00">&#45; history(&amp;self, actor: &amp;A) &#45;&gt; BTreeSet&lt;Transfer&lt;A&gt;&gt;</text>
<text text-anchor="start" x="20" y="-64.3" font-family="Arial" font-size="14.00">&#45; transfer(&amp;self, from: A, to: A, amount: Money) &#45;&gt; Option&lt;Op&lt;A&gt;&gt;</text>
<text text-anchor="start" x="20" y="-49.3" font-family="Arial" font-size="14.00">&#45; new(id: A) &#45;&gt; Self</text>
<text text-anchor="start" x="20" y="-34.3" font-family="Arial" font-size="14.00">&#45; validate(&amp;self, source: &amp;A, op: &amp;Self::Op) &#45;&gt; Result&lt;(), Self::ValidationError&gt;</text>
<text text-anchor="start" x="20" y="-19.3" font-family="Arial" font-size="14.00">&#45; apply(&amp;mut self, op: Self::Op)</text>
<polygon fill="none" stroke="black" points="8,-4 8,-267 522,-267 522,-4 8,-4"/>
</a>
</g>
</g>
<!-- ndValidationError -->
<g id="node2" class="node"><title>ndValidationError</title>
<g id="a_node2_1"><a xlink:href="https://github.com/maidsafe/brb_dt_at2/blob/master/src/bank.rs#:~:text=enum%20ValidationError" xlink:title="&lt;TABLE&gt;">
<polygon fill="yellow" stroke="none" points="415,-558.5 415,-595.5 621,-595.5 621,-558.5 415,-558.5"/>
<polygon fill="none" stroke="black" points="415,-558.5 415,-595.5 621,-595.5 621,-558.5 415,-558.5"/>
<text text-anchor="start" x="465" y="-574.3" font-family="Arial" font-weight="bold" font-size="14.00">ValidationError</text>
<polygon fill="white" stroke="none" points="415,-446.5 415,-558.5 621,-558.5 621,-446.5 415,-446.5"/>
<polygon fill="none" stroke="black" points="415,-446.5 415,-558.5 621,-558.5 621,-446.5 415,-446.5"/>
<text text-anchor="start" x="426" y="-536.3" font-family="Arial" font-size="14.00">NotInitiatedByAccountOwner</text>
<text text-anchor="start" x="426" y="-521.3" font-family="Arial" font-size="14.00">FromAccountDoesNotExist</text>
<text text-anchor="start" x="426" y="-506.3" font-family="Arial" font-size="14.00">ToAccountDoesNotExist</text>
<text text-anchor="start" x="426" y="-491.3" font-family="Arial" font-size="14.00">InsufficientFunds</text>
<text text-anchor="start" x="426" y="-476.3" font-family="Arial" font-size="14.00">MissingDependentOps</text>
<text text-anchor="start" x="426" y="-461.3" font-family="Arial" font-size="14.00">OwnerAlreadyHasAnAccount</text>
<polygon fill="none" stroke="black" points="414,-446 414,-597 622,-597 622,-446 414,-446"/>
</a>
</g>
</g>
<!-- ndOp -->
<g id="node3" class="node"><title>ndOp</title>
<g id="a_node3_2"><a xlink:href="https://github.com/maidsafe/brb_dt_at2/blob/master/src/op.rs#:~:text=enum%20Op" xlink:title="&lt;TABLE&gt;">
<polygon fill="yellow" stroke="none" points="244,-363.5 244,-400.5 407,-400.5 407,-363.5 244,-363.5"/>
<polygon fill="none" stroke="black" points="244,-363.5 244,-400.5 407,-400.5 407,-363.5 244,-363.5"/>
<text text-anchor="start" x="315" y="-379.3" font-family="Arial" font-weight="bold" font-size="14.00">Op</text>
<polygon fill="white" stroke="none" points="244,-311.5 244,-363.5 407,-363.5 407,-311.5 244,-311.5"/>
<polygon fill="none" stroke="black" points="244,-311.5 244,-363.5 407,-363.5 407,-311.5 244,-311.5"/>
<text text-anchor="start" x="255" y="-341.3" font-family="Arial" font-size="14.00">Transfer(Transfer&lt;A&gt;)</text>
<text text-anchor="start" x="255" y="-326.3" font-family="Arial" font-size="14.00">OpenAccount</text>
<polygon fill="none" stroke="black" points="242.5,-311 242.5,-402 407.5,-402 407.5,-311 242.5,-311"/>
</a>
</g>
</g>
<!-- ndOp&#45;&gt;ndBank -->
<g id="edge1" class="edge"><title>ndOp&#45;&gt;ndBank</title>
<path fill="none" stroke="black" stroke-dasharray="5,2" d="M311.684,-306.897C309.455,-298.76 307.045,-289.965 304.537,-280.808"/>
<polygon fill="black" stroke="black" points="301.89,-271.147 308.872,-279.603 303.211,-275.969 304.532,-280.792 304.532,-280.792 304.532,-280.792 303.211,-275.969 300.192,-281.981 301.89,-271.147 301.89,-271.147"/>
</g>
<!-- ndTransfer -->
<g id="node4" class="node"><title>ndTransfer</title>
<g id="a_node4_3"><a xlink:href="https://github.com/maidsafe/brb_dt_at2/blob/master/src/transfer.rs#:~:text=struct%20Transfer" xlink:title="&lt;TABLE&gt;">
<polygon fill="lightblue" stroke="none" points="152,-543.5 152,-580.5 379,-580.5 379,-543.5 152,-543.5"/>
<polygon fill="none" stroke="black" points="152,-543.5 152,-580.5 379,-580.5 379,-543.5 152,-543.5"/>
<text text-anchor="start" x="235.5" y="-559.3" font-family="Arial" font-weight="bold" font-size="14.00">Transfer</text>
<polygon fill="white" stroke="none" points="152,-461.5 152,-543.5 379,-543.5 379,-461.5 152,-461.5"/>
<polygon fill="none" stroke="black" points="152,-461.5 152,-543.5 379,-543.5 379,-461.5 152,-461.5"/>
<text text-anchor="start" x="163" y="-521.3" font-family="Arial" font-size="14.00">&#45; from: A</text>
<text text-anchor="start" x="163" y="-506.3" font-family="Arial" font-size="14.00">&#45; to: A</text>
<text text-anchor="start" x="163" y="-491.3" font-family="Arial" font-size="14.00">&#45; amount: Money</text>
<text text-anchor="start" x="163" y="-476.3" font-family="Arial" font-size="14.00">&#45; deps: BTreeSet&lt;Transfer&lt;A&gt;&gt;</text>
<polygon fill="none" stroke="black" points="150.5,-461 150.5,-582 379.5,-582 379.5,-461 150.5,-461"/>
</a>
</g>
</g>
<!-- ndTransfer&#45;&gt;ndBank -->
<g id="edge2" class="edge"><title>ndTransfer&#45;&gt;ndBank</title>
<path fill="none" stroke="black" d="M239.24,-456.962C233.765,-440.624 228.797,-422.885 226,-406 219.405,-366.183 221.546,-322.951 227.329,-283.011"/>
<polygon fill="black" stroke="black" points="227.352,-282.866 224.318,-276.324 229.189,-271.007 232.223,-277.549 227.352,-282.866"/>
</g>
<!-- ndTransfer&#45;&gt;ndOp -->
<g id="edge3" class="edge"><title>ndTransfer&#45;&gt;ndOp</title>
<path fill="none" stroke="black" d="M288.541,-456.546C293.267,-443.708 298.217,-430.261 302.892,-417.561"/>
<polygon fill="black" stroke="black" points="302.948,-417.408 301.267,-410.396 307.093,-406.147 308.774,-413.159 302.948,-417.408"/>
</g>
</g>
</svg>
