<?xml version="1.0" encoding="UTF-8" standalone="no"?>
<!DOCTYPE svg PUBLIC "-//W3C//DTD SVG 1.1//EN"
 "http://www.w3.org/Graphics/SVG/1.1/DTD/svg11.dtd">
<!-- Generated by graphviz version 2.38.0 (20140413.2041)
 -->
<!-- Title: ml Pages: 1 -->
<svg width="554pt" height="137pt"
 viewBox="0.00 0.00 554.00 137.00" xmlns="http://www.w3.org/2000/svg" xmlns:xlink="http://www.w3.org/1999/xlink">
<g id="graph0" class="graph" transform="scale(1 1) rotate(0) translate(4 133)">
<title>ml</title>
<polygon fill="white" stroke="none" points="-4,4 -4,-133 550,-133 550,4 -4,4"/>
<!-- ndBRBOrswot -->
<g id="node1" class="node"><title>ndBRBOrswot</title>
<polygon fill="lightblue" stroke="none" points="9.5,-71.5 9.5,-108.5 228.5,-108.5 228.5,-71.5 9.5,-71.5"/>
<polygon fill="none" stroke="black" points="9.5,-71.5 9.5,-108.5 228.5,-108.5 228.5,-71.5 9.5,-71.5"/>
<text text-anchor="start" x="78" y="-87.3" font-family="Arial" font-weight="bold" font-size="14.00">BRBOrswot</text>
<polygon fill="white" stroke="none" points="9.5,-19.5 9.5,-71.5 228.5,-71.5 228.5,-19.5 9.5,-19.5"/>
<polygon fill="none" stroke="black" points="9.5,-19.5 9.5,-71.5 228.5,-71.5 228.5,-19.5 9.5,-19.5"/>
<text text-anchor="start" x="20.5" y="-49.3" font-family="Arial" font-size="14.00">&#45; actor: A</text>
<text text-anchor="start" x="20.5" y="-34.3" font-family="Arial" font-size="14.00">&#45; orswot: orswot::Orswot&lt;M, A&gt;</text>
<polygon fill="none" stroke="black" points="8,-19 8,-110 229,-110 229,-19 8,-19"/>
</g>
<!-- ndValidationError -->
<g id="node2" class="node"><title>ndValidationError</title>
<polygon fill="yellow" stroke="none" points="264.5,-86.5 264.5,-123.5 537.5,-123.5 537.5,-86.5 264.5,-86.5"/>
<polygon fill="none" stroke="black" points="264.5,-86.5 264.5,-123.5 537.5,-123.5 537.5,-86.5 264.5,-86.5"/>
<text text-anchor="start" x="348" y="-102.3" font-family="Arial" font-weight="bold" font-size="14.00">ValidationError</text>
<polygon fill="white" stroke="none" points="264.5,-4.5 264.5,-86.5 537.5,-86.5 537.5,-4.5 264.5,-4.5"/>
<polygon fill="none" stroke="black" points="264.5,-4.5 264.5,-86.5 537.5,-86.5 537.5,-4.5 264.5,-4.5"/>
<text text-anchor="start" x="275.5" y="-64.3" font-family="Arial" font-size="14.00">SourceDoesNotMatchOp</text>
<text text-anchor="start" x="275.5" y="-49.3" font-family="Arial" font-size="14.00">RemoveOnlySupportedForOneMember</text>
<text text-anchor="start" x="275.5" y="-34.3" font-family="Arial" font-size="14.00">RemovingDataWeHaventSeenYet</text>
<text text-anchor="start" x="275.5" y="-19.3" font-family="Arial" font-size="14.00">Orswot(E)</text>
<polygon fill="none" stroke="black" points="263,-4 263,-125 538,-125 538,-4 263,-4"/>
</g>
</g>
</svg>
