<?xml version="1.0" encoding="UTF-8" standalone="no"?>
<!DOCTYPE svg PUBLIC "-//W3C//DTD SVG 1.1//EN"
 "http://www.w3.org/Graphics/SVG/1.1/DTD/svg11.dtd">
<!-- Generated by graphviz version 2.38.0 (20140413.2041)
 -->
<!-- Title: ml Pages: 1 -->
<svg width="475pt" height="553pt"
 viewBox="0.00 0.00 475.00 553.00" xmlns="http://www.w3.org/2000/svg" xmlns:xlink="http://www.w3.org/1999/xlink">
<g id="graph0" class="graph" transform="scale(1 1) rotate(0) translate(4 549)">
<title>ml</title>
<polygon fill="white" stroke="none" points="-4,4 -4,-549 471,-549 471,4 -4,4"/>
<!-- ndError -->
<g id="node1" class="node"><title>ndError</title>
<g id="a_node1_0"><a xlink:href="https://github.com/maidsafe/brb_membership/blob/master/src/error.rs#:~:text=enum%20Error" xlink:title="&lt;TABLE&gt;">
<polygon fill="yellow" stroke="none" points="241.5,-87.5 241.5,-124.5 300.5,-124.5 300.5,-87.5 241.5,-87.5"/>
<polygon fill="none" stroke="black" points="241.5,-87.5 241.5,-124.5 300.5,-124.5 300.5,-87.5 241.5,-87.5"/>
<text text-anchor="start" x="252.5" y="-103.3" font-family="Arial" font-weight="bold" font-size="14.00">Error</text>
<polygon fill="none" stroke="black" points="240,-87 240,-126 301,-126 301,-87 240,-87"/>
</a>
</g>
</g>
<!-- ndState -->
<g id="node5" class="node"><title>ndState</title>
<g id="a_node5_1"><a xlink:href="https://github.com/maidsafe/brb_membership/blob/master/src/brb_membership.rs#:~:text=struct%20State" xlink:title="&lt;TABLE&gt;">
<polygon fill="lightblue" stroke="none" points="174.5,-4.5 174.5,-41.5 232.5,-41.5 232.5,-4.5 174.5,-4.5"/>
<polygon fill="none" stroke="black" points="174.5,-4.5 174.5,-41.5 232.5,-41.5 232.5,-4.5 174.5,-4.5"/>
<text text-anchor="start" x="185.5" y="-20.3" font-family="Arial" font-weight="bold" font-size="14.00">State</text>
<polygon fill="none" stroke="black" points="173.5,-4 173.5,-43 233.5,-43 233.5,-4 173.5,-4"/>
</a>
</g>
</g>
<!-- ndError&#45;&gt;ndState -->
<g id="edge1" class="edge"><title>ndError&#45;&gt;ndState</title>
<path fill="none" stroke="black" d="M251.837,-82.937C244.709,-74.3201 236.459,-64.3457 228.814,-55.1036"/>
<polygon fill="black" stroke="black" points="222.296,-47.2229 232.137,-52.0603 225.482,-51.0757 228.669,-54.9285 228.669,-54.9285 228.669,-54.9285 225.482,-51.0757 225.202,-57.7967 222.296,-47.2229 222.296,-47.2229"/>
</g>
<!-- ndPublicKey -->
<g id="node2" class="node"><title>ndPublicKey</title>
<g id="a_node2_2"><a xlink:href="https://github.com/maidsafe/brb_membership/blob/master/src/ed25519.rs#:~:text=struct%20PublicKey" xlink:title="&lt;TABLE&gt;">
<polygon fill="lightblue" stroke="none" points="187.5,-419.5 187.5,-456.5 280.5,-456.5 280.5,-419.5 187.5,-419.5"/>
<polygon fill="none" stroke="black" points="187.5,-419.5 187.5,-456.5 280.5,-456.5 280.5,-419.5 187.5,-419.5"/>
<text text-anchor="start" x="198.5" y="-435.3" font-family="Arial" font-weight="bold" font-size="14.00">PublicKey</text>
<polygon fill="none" stroke="black" points="186,-419 186,-458 281,-458 281,-419 186,-419"/>
</a>
</g>
</g>
<!-- ndSecretKey -->
<g id="node3" class="node"><title>ndSecretKey</title>
<g id="a_node3_3"><a xlink:href="https://github.com/maidsafe/brb_membership/blob/master/src/ed25519.rs#:~:text=struct%20SecretKey" xlink:title="&lt;TABLE&gt;">
<polygon fill="lightblue" stroke="none" points="9.5,-336.5 9.5,-373.5 104.5,-373.5 104.5,-336.5 9.5,-336.5"/>
<polygon fill="none" stroke="black" points="9.5,-336.5 9.5,-373.5 104.5,-373.5 104.5,-336.5 9.5,-336.5"/>
<text text-anchor="start" x="20.5" y="-352.3" font-family="Arial" font-weight="bold" font-size="14.00">SecretKey</text>
<polygon fill="none" stroke="black" points="8,-336 8,-375 105,-375 105,-336 8,-336"/>
</a>
</g>
</g>
<!-- ndPublicKey&#45;&gt;ndSecretKey -->
<g id="edge2" class="edge"><title>ndPublicKey&#45;&gt;ndSecretKey</title>
<path fill="none" stroke="black" d="M184.196,-414.937C162.804,-405.148 137.584,-393.606 115.231,-383.377"/>
<polygon fill="black" stroke="black" points="105.847,-379.082 116.812,-379.152 110.393,-381.163 114.94,-383.244 114.94,-383.244 114.94,-383.244 110.393,-381.163 113.067,-387.336 105.847,-379.082 105.847,-379.082"/>
</g>
<!-- ndPublicKey&#45;&gt;ndState -->
<g id="edge3" class="edge"><title>ndPublicKey&#45;&gt;ndState</title>
<path fill="none" stroke="black" stroke-dasharray="5,2" d="M201.688,-414.731C190.73,-405.06 179.671,-392.815 173.5,-379 119.845,-258.883 137.271,-209.469 173.5,-83 175.914,-74.5726 179.58,-65.9363 183.529,-57.975"/>
<polygon fill="black" stroke="black" points="183.586,-57.8675 182.858,-50.6932 189.2,-47.2617 189.928,-54.4359 183.586,-57.8675"/>
</g>
<!-- ndReconfig -->
<g id="node6" class="node"><title>ndReconfig</title>
<g id="a_node6_4"><a xlink:href="https://github.com/maidsafe/brb_membership/blob/master/src/brb_membership.rs#:~:text=enum%20Reconfig" xlink:title="&lt;TABLE&gt;">
<polygon fill="yellow" stroke="none" points="191.5,-336.5 191.5,-373.5 275.5,-373.5 275.5,-336.5 191.5,-336.5"/>
<polygon fill="none" stroke="black" points="191.5,-336.5 191.5,-373.5 275.5,-373.5 275.5,-336.5 191.5,-336.5"/>
<text text-anchor="start" x="202.5" y="-352.3" font-family="Arial" font-weight="bold" font-size="14.00">Reconfig</text>
<polygon fill="none" stroke="black" points="190.5,-336 190.5,-375 276.5,-375 276.5,-336 190.5,-336"/>
</a>
</g>
</g>
<!-- ndPublicKey&#45;&gt;ndReconfig -->
<g id="edge4" class="edge"><title>ndPublicKey&#45;&gt;ndReconfig</title>
<path fill="none" stroke="black" d="M233.5,-414.937C233.5,-407.626 233.5,-399.337 233.5,-391.348"/>
<polygon fill="black" stroke="black" points="233.5,-391.223 229.5,-385.223 233.5,-379.223 237.5,-385.223 233.5,-391.223"/>
</g>
<!-- ndVote -->
<g id="node8" class="node"><title>ndVote</title>
<g id="a_node8_5"><a xlink:href="https://github.com/maidsafe/brb_membership/blob/master/src/brb_membership.rs#:~:text=struct%20Vote" xlink:title="&lt;TABLE&gt;">
<polygon fill="lightblue" stroke="none" points="281.5,-170.5 281.5,-207.5 334.5,-207.5 334.5,-170.5 281.5,-170.5"/>
<polygon fill="none" stroke="black" points="281.5,-170.5 281.5,-207.5 334.5,-207.5 334.5,-170.5 281.5,-170.5"/>
<text text-anchor="start" x="292.5" y="-186.3" font-family="Arial" font-weight="bold" font-size="14.00">Vote</text>
<polygon fill="none" stroke="black" points="280,-170 280,-209 335,-209 335,-170 280,-170"/>
</a>
</g>
</g>
<!-- ndPublicKey&#45;&gt;ndVote -->
<g id="edge5" class="edge"><title>ndPublicKey&#45;&gt;ndVote</title>
<path fill="none" stroke="black" d="M264.037,-414.981C275.111,-405.183 286.586,-392.785 293.5,-379 318.074,-330.008 316.541,-264.705 312.508,-225.23"/>
<polygon fill="black" stroke="black" points="312.487,-225.054 307.825,-219.553 311.109,-213.134 315.772,-218.635 312.487,-225.054"/>
</g>
<!-- ndVoteMsg -->
<g id="node9" class="node"><title>ndVoteMsg</title>
<g id="a_node9_6"><a xlink:href="https://github.com/maidsafe/brb_membership/blob/master/src/brb_membership.rs#:~:text=struct%20VoteMsg" xlink:title="&lt;TABLE&gt;">
<polygon fill="lightblue" stroke="none" points="375.5,-87.5 375.5,-124.5 458.5,-124.5 458.5,-87.5 375.5,-87.5"/>
<polygon fill="none" stroke="black" points="375.5,-87.5 375.5,-124.5 458.5,-124.5 458.5,-87.5 375.5,-87.5"/>
<text text-anchor="start" x="386.5" y="-103.3" font-family="Arial" font-weight="bold" font-size="14.00">VoteMsg</text>
<polygon fill="none" stroke="black" points="374,-87 374,-126 459,-126 459,-87 374,-87"/>
</a>
</g>
</g>
<!-- ndPublicKey&#45;&gt;ndVoteMsg -->
<g id="edge6" class="edge"><title>ndPublicKey&#45;&gt;ndVoteMsg</title>
<path fill="none" stroke="black" d="M275.045,-414.834C289.433,-405.324 304.654,-393.161 315.5,-379 371.958,-305.29 399.513,-196.692 410.49,-141.862"/>
<polygon fill="black" stroke="black" points="410.492,-141.853 407.697,-135.205 412.759,-130.069 415.553,-136.717 410.492,-141.853"/>
</g>
<!-- ndSecretKey&#45;&gt;ndState -->
<g id="edge7" class="edge"><title>ndSecretKey&#45;&gt;ndState</title>
<path fill="none" stroke="black" d="M55.6623,-331.874C54.9337,-282.267 59.3284,-162.067 113.5,-83 123.855,-67.8859 139.53,-55.7527 154.912,-46.54"/>
<polygon fill="black" stroke="black" points="154.981,-46.5015 158.255,-40.0766 165.445,-40.6278 162.171,-47.0528 154.981,-46.5015"/>
</g>
<!-- ndSignature -->
<g id="node4" class="node"><title>ndSignature</title>
<g id="a_node4_7"><a xlink:href="https://github.com/maidsafe/brb_membership/blob/master/src/ed25519.rs#:~:text=struct%20Signature" xlink:title="&lt;TABLE&gt;">
<polygon fill="lightblue" stroke="none" points="188.5,-502.5 188.5,-539.5 278.5,-539.5 278.5,-502.5 188.5,-502.5"/>
<polygon fill="none" stroke="black" points="188.5,-502.5 188.5,-539.5 278.5,-539.5 278.5,-502.5 188.5,-502.5"/>
<text text-anchor="start" x="199.5" y="-518.3" font-family="Arial" font-weight="bold" font-size="14.00">Signature</text>
<polygon fill="none" stroke="black" points="187.5,-502 187.5,-541 279.5,-541 279.5,-502 187.5,-502"/>
</a>
</g>
</g>
<!-- ndSignature&#45;&gt;ndPublicKey -->
<g id="edge8" class="edge"><title>ndSignature&#45;&gt;ndPublicKey</title>
<path fill="none" stroke="black" stroke-dasharray="5,2" d="M233.5,-497.937C233.5,-490.016 233.5,-480.949 233.5,-472.357"/>
<polygon fill="black" stroke="black" points="233.5,-462.223 238,-472.223 233.5,-467.223 233.5,-472.223 233.5,-472.223 233.5,-472.223 233.5,-467.223 229,-472.223 233.5,-462.223 233.5,-462.223"/>
</g>
<!-- ndSignature&#45;&gt;ndSecretKey -->
<g id="edge9" class="edge"><title>ndSignature&#45;&gt;ndSecretKey</title>
<path fill="none" stroke="black" d="M208.067,-497.852C196.016,-487.059 181.456,-473.929 168.5,-462 141.077,-436.75 110.272,-407.68 87.9193,-386.457"/>
<polygon fill="black" stroke="black" points="80.385,-379.296 90.7337,-382.923 84.0093,-382.741 87.6336,-386.185 87.6336,-386.185 87.6336,-386.185 84.0093,-382.741 84.5336,-389.447 80.385,-379.296 80.385,-379.296"/>
</g>
<!-- ndSignature&#45;&gt;ndVote -->
<g id="edge10" class="edge"><title>ndSignature&#45;&gt;ndVote</title>
<path fill="none" stroke="black" d="M265.807,-497.752C277.437,-488.005 289.62,-475.702 297.5,-462 345.192,-379.072 344.904,-343.247 328.5,-249 327.087,-240.881 324.648,-232.401 321.921,-224.496"/>
<polygon fill="black" stroke="black" points="321.851,-224.308 316.007,-220.084 317.658,-213.064 323.502,-217.288 321.851,-224.308"/>
</g>
<!-- ndReconfig&#45;&gt;ndState -->
<g id="edge11" class="edge"><title>ndReconfig&#45;&gt;ndState</title>
<path fill="none" stroke="black" stroke-dasharray="5,2" d="M208.205,-331.934C198.872,-321.96 189.388,-309.447 184.5,-296 155.062,-215.009 177.211,-111.62 192.386,-58.8525"/>
<polygon fill="black" stroke="black" points="192.439,-58.6742 190.322,-51.7808 195.871,-47.1753 197.988,-54.0686 192.439,-58.6742"/>
</g>
<!-- ndBallot -->
<g id="node7" class="node"><title>ndBallot</title>
<g id="a_node7_8"><a xlink:href="https://github.com/maidsafe/brb_membership/blob/master/src/brb_membership.rs#:~:text=enum%20Ballot" xlink:title="&lt;TABLE&gt;">
<polygon fill="yellow" stroke="none" points="202.5,-253.5 202.5,-290.5 264.5,-290.5 264.5,-253.5 202.5,-253.5"/>
<polygon fill="none" stroke="black" points="202.5,-253.5 202.5,-290.5 264.5,-290.5 264.5,-253.5 202.5,-253.5"/>
<text text-anchor="start" x="213.5" y="-269.3" font-family="Arial" font-weight="bold" font-size="14.00">Ballot</text>
<polygon fill="none" stroke="black" points="201.5,-253 201.5,-292 265.5,-292 265.5,-253 201.5,-253"/>
</a>
</g>
</g>
<!-- ndReconfig&#45;&gt;ndBallot -->
<g id="edge12" class="edge"><title>ndReconfig&#45;&gt;ndBallot</title>
<path fill="none" stroke="black" d="M233.5,-331.937C233.5,-324.626 233.5,-316.337 233.5,-308.348"/>
<polygon fill="black" stroke="black" points="233.5,-308.223 229.5,-302.223 233.5,-296.223 237.5,-302.223 233.5,-308.223"/>
</g>
<!-- ndReconfig&#45;&gt;ndVote -->
<g id="edge13" class="edge"><title>ndReconfig&#45;&gt;ndVote</title>
<path fill="none" stroke="black" d="M256.758,-331.831C266,-321.659 275.966,-309.026 282.5,-296 293.96,-273.155 300.296,-244.865 303.72,-223.332"/>
<polygon fill="black" stroke="black" points="305.177,-213.358 308.185,-223.903 304.454,-218.305 303.732,-223.253 303.732,-223.253 303.732,-223.253 304.454,-218.305 299.279,-222.602 305.177,-213.358 305.177,-213.358"/>
</g>
<!-- ndBallot&#45;&gt;ndState -->
<g id="edge14" class="edge"><title>ndBallot&#45;&gt;ndState</title>
<path fill="none" stroke="black" stroke-dasharray="5,2" d="M230.731,-248.706C225.396,-204.776 213.671,-108.245 207.492,-57.3677"/>
<polygon fill="black" stroke="black" points="206.262,-47.2393 211.935,-56.6238 206.865,-52.2029 207.468,-57.1664 207.468,-57.1664 207.468,-57.1664 206.865,-52.2029 203,-57.709 206.262,-47.2393 206.262,-47.2393"/>
</g>
<!-- ndBallot&#45;&gt;ndVote -->
<g id="edge15" class="edge"><title>ndBallot&#45;&gt;ndVote</title>
<path fill="none" stroke="black" d="M247.99,-248.937C255,-240.581 263.642,-230.949 272.174,-221.946"/>
<polygon fill="black" stroke="black" points="272.266,-221.851 273.559,-214.757 280.606,-213.223 279.312,-220.317 272.266,-221.851"/>
</g>
<!-- ndVote&#45;&gt;ndError -->
<g id="edge16" class="edge"><title>ndVote&#45;&gt;ndError</title>
<path fill="none" stroke="black" d="M297.193,-165.937C293.695,-158.278 289.706,-149.545 285.898,-141.209"/>
<polygon fill="black" stroke="black" points="285.866,-141.138 279.734,-137.343 280.88,-130.223 287.011,-134.019 285.866,-141.138"/>
</g>
<!-- ndVote&#45;&gt;ndState -->
<g id="edge17" class="edge"><title>ndVote&#45;&gt;ndState</title>
<path fill="none" stroke="black" stroke-dasharray="5,2" d="M317.138,-165.717C325.102,-143.052 332.845,-108.121 317.5,-83 303.015,-59.2855 275.522,-44.7853 251.165,-36.1535"/>
<polygon fill="black" stroke="black" points="241.669,-33.0185 252.575,-31.8804 246.417,-34.586 251.165,-36.1535 251.165,-36.1535 251.165,-36.1535 246.417,-34.586 249.754,-40.4267 241.669,-33.0185 241.669,-33.0185"/>
</g>
<!-- ndVote&#45;&gt;ndBallot -->
<g id="edge18" class="edge"><title>ndVote&#45;&gt;ndBallot</title>
<path fill="none" stroke="black" d="M292.876,-213.223C285.845,-221.595 277.194,-231.231 268.663,-240.226"/>
<polygon fill="black" stroke="black" points="268.58,-240.312 267.283,-247.406 260.236,-248.937 261.533,-241.843 268.58,-240.312"/>
</g>
<!-- ndVote&#45;&gt;ndVoteMsg -->
<g id="edge19" class="edge"><title>ndVote&#45;&gt;ndVoteMsg</title>
<path fill="none" stroke="black" d="M337.863,-165.937C349.692,-157.146 363.424,-146.942 376.07,-137.544"/>
<polygon fill="black" stroke="black" points="376.29,-137.38 378.72,-130.591 385.922,-130.223 383.492,-137.012 376.29,-137.38"/>
</g>
<!-- ndVoteMsg&#45;&gt;ndState -->
<g id="edge20" class="edge"><title>ndVoteMsg&#45;&gt;ndState</title>
<path fill="none" stroke="black" d="M365.752,-86.2014C331.034,-72.9988 285.307,-55.6099 251.249,-42.6579"/>
<polygon fill="black" stroke="black" points="241.525,-38.9604 252.472,-38.3088 246.199,-40.7376 250.872,-42.5149 250.872,-42.5149 250.872,-42.5149 246.199,-40.7376 249.273,-46.7211 241.525,-38.9604 241.525,-38.9604"/>
</g>
</g>
</svg>
