<?xml version="1.0" encoding="UTF-8" standalone="no"?>
<!DOCTYPE svg PUBLIC "-//W3C//DTD SVG 1.1//EN"
 "http://www.w3.org/Graphics/SVG/1.1/DTD/svg11.dtd">
<!-- Generated by graphviz version 2.38.0 (20140413.2041)
 -->
<!-- Title: ml Pages: 1 -->
<svg width="494pt" height="107pt"
 viewBox="0.00 0.00 493.50 107.00" xmlns="http://www.w3.org/2000/svg" xmlns:xlink="http://www.w3.org/1999/xlink">
<g id="graph0" class="graph" transform="scale(1 1) rotate(0) translate(4 103)">
<title>ml</title>
<polygon fill="white" stroke="none" points="-4,4 -4,-103 489.5,-103 489.5,4 -4,4"/>
<!-- ndBRBTree -->
<g id="node1" class="node"><title>ndBRBTree</title>
<polygon fill="lightblue" stroke="none" points="9.5,-56.5 9.5,-93.5 258.5,-93.5 258.5,-56.5 9.5,-56.5"/>
<polygon fill="none" stroke="black" points="9.5,-56.5 9.5,-93.5 258.5,-93.5 258.5,-56.5 9.5,-56.5"/>
<text text-anchor="start" x="102.5" y="-72.3" font-family="Arial" font-weight="bold" font-size="14.00">BRBTree</text>
<polygon fill="white" stroke="none" points="9.5,-4.5 9.5,-56.5 258.5,-56.5 258.5,-4.5 9.5,-4.5"/>
<polygon fill="none" stroke="black" points="9.5,-4.5 9.5,-56.5 258.5,-56.5 258.5,-4.5 9.5,-4.5"/>
<text text-anchor="start" x="20.5" y="-34.3" font-family="Arial" font-size="14.00">&#45; actor: A</text>
<text text-anchor="start" x="20.5" y="-19.3" font-family="Arial" font-size="14.00">&#45; treereplica: TreeReplica&lt;ID, M, A&gt;</text>
<polygon fill="none" stroke="black" points="8,-4 8,-95 259,-95 259,-4 8,-4"/>
</g>
<!-- ndValidationError -->
<g id="node2" class="node"><title>ndValidationError</title>
<polygon fill="yellow" stroke="none" points="294.5,-49.5 294.5,-86.5 476.5,-86.5 476.5,-49.5 294.5,-49.5"/>
<polygon fill="none" stroke="black" points="294.5,-49.5 294.5,-86.5 476.5,-86.5 476.5,-49.5 294.5,-49.5"/>
<text text-anchor="start" x="332.5" y="-65.3" font-family="Arial" font-weight="bold" font-size="14.00">ValidationError</text>
<polygon fill="white" stroke="none" points="294.5,-12.5 294.5,-49.5 476.5,-49.5 476.5,-12.5 294.5,-12.5"/>
<polygon fill="none" stroke="black" points="294.5,-12.5 294.5,-49.5 476.5,-49.5 476.5,-12.5 294.5,-12.5"/>
<text text-anchor="start" x="305.5" y="-27.3" font-family="Arial" font-size="14.00">SourceDoesNotMatchOp</text>
<polygon fill="none" stroke="black" points="293.5,-11.5 293.5,-87.5 477.5,-87.5 477.5,-11.5 293.5,-11.5"/>
</g>
</g>
</svg>
