<?xml version="1.0" encoding="UTF-8" standalone="no"?>
<!DOCTYPE svg PUBLIC "-//W3C//DTD SVG 1.1//EN"
 "http://www.w3.org/Graphics/SVG/1.1/DTD/svg11.dtd">
<!-- Generated by graphviz version 2.38.0 (20140413.2041)
 -->
<!-- Title: ml Pages: 1 -->
<svg width="248pt" height="210pt"
 viewBox="0.00 0.00 248.00 210.00" xmlns="http://www.w3.org/2000/svg" xmlns:xlink="http://www.w3.org/1999/xlink">
<g id="graph0" class="graph" transform="scale(1 1) rotate(0) translate(4 206)">
<title>ml</title>
<polygon fill="white" stroke="none" points="-4,4 -4,-206 244,-206 244,4 -4,4"/>
<!-- ndBank -->
<g id="node1" class="node"><title>ndBank</title>
<text text-anchor="middle" x="38" y="-14.3" font-family="Times,serif" font-size="14.00">ndBank</text>
</g>
<!-- ndValidationError -->
<g id="node2" class="node"><title>ndValidationError</title>
<g id="a_node2_0"><a xlink:href="https://github.com/maidsafe/brb_dt_at2/blob/master/src/bank.rs#:~:text=enum%20ValidationError" xlink:title="&lt;TABLE&gt;">
<polygon fill="yellow" stroke="none" points="103,-159.5 103,-196.5 231,-196.5 231,-159.5 103,-159.5"/>
<polygon fill="none" stroke="black" points="103,-159.5 103,-196.5 231,-196.5 231,-159.5 103,-159.5"/>
<text text-anchor="start" x="114" y="-175.3" font-family="Arial" font-weight="bold" font-size="14.00">ValidationError</text>
<polygon fill="none" stroke="black" points="102,-159 102,-198 232,-198 232,-159 102,-159"/>
</a>
</g>
</g>
<!-- ndOp -->
<g id="node3" class="node"><title>ndOp</title>
<g id="a_node3_1"><a xlink:href="https://github.com/maidsafe/brb_dt_at2/blob/master/src/op.rs#:~:text=enum%20Op" xlink:title="&lt;TABLE&gt;">
<polygon fill="yellow" stroke="none" points="47,-76.5 47,-113.5 90,-113.5 90,-76.5 47,-76.5"/>
<polygon fill="none" stroke="black" points="47,-76.5 47,-113.5 90,-113.5 90,-76.5 47,-76.5"/>
<text text-anchor="start" x="58" y="-92.3" font-family="Arial" font-weight="bold" font-size="14.00">Op</text>
<polygon fill="none" stroke="black" points="45.5,-76 45.5,-115 90.5,-115 90.5,-76 45.5,-76"/>
</a>
</g>
</g>
<!-- ndOp&#45;&gt;ndBank -->
<g id="edge1" class="edge"><title>ndOp&#45;&gt;ndBank</title>
<path fill="none" stroke="black" stroke-dasharray="5,2" d="M58.999,-71.8475C55.7241,-63.6056 51.9924,-54.2142 48.5923,-45.6573"/>
<polygon fill="black" stroke="black" points="44.8004,-36.1144 52.6751,-43.7459 46.6468,-40.761 48.4932,-45.4077 48.4932,-45.4077 48.4932,-45.4077 46.6468,-40.761 44.3112,-47.0694 44.8004,-36.1144 44.8004,-36.1144"/>
</g>
<!-- ndTransfer -->
<g id="node4" class="node"><title>ndTransfer</title>
<text text-anchor="middle" x="38" y="-174.8" font-family="Times,serif" font-size="14.00">ndTransfer</text>
</g>
<!-- ndTransfer&#45;&gt;ndBank -->
<g id="edge2" class="edge"><title>ndTransfer&#45;&gt;ndBank</title>
<path fill="none" stroke="black" d="M34.6697,-160.429C32.5755,-148.804 30.0734,-133.037 29,-119 27.4072,-98.1719 27.2452,-92.8151 29,-72 29.6609,-64.1603 30.8624,-55.7369 32.1768,-47.9642"/>
<polygon fill="black" stroke="black" points="32.189,-47.897 29.3328,-41.2757 34.3462,-36.0925 37.2025,-42.7138 32.189,-47.897"/>
</g>
<!-- ndTransfer&#45;&gt;ndOp -->
<g id="edge3" class="edge"><title>ndTransfer&#45;&gt;ndOp</title>
<path fill="none" stroke="black" d="M44.3622,-160.322C47.5517,-151.71 51.5315,-140.965 55.3108,-130.761"/>
<polygon fill="black" stroke="black" points="55.4281,-130.444 53.761,-123.428 59.596,-119.191 61.263,-126.207 55.4281,-130.444"/>
</g>
</g>
</svg>
