<?xml version="1.0" encoding="UTF-8" standalone="no"?>
<!DOCTYPE svg PUBLIC "-//W3C//DTD SVG 1.1//EN"
 "http://www.w3.org/Graphics/SVG/1.1/DTD/svg11.dtd">
<!-- Generated by graphviz version 2.38.0 (20140413.2041)
 -->
<!-- Title: ml Pages: 1 -->
<svg width="591pt" height="977pt"
 viewBox="0.00 0.00 591.08 977.00" xmlns="http://www.w3.org/2000/svg" xmlns:xlink="http://www.w3.org/1999/xlink">
<g id="graph0" class="graph" transform="scale(1 1) rotate(0) translate(4 973)">
<title>ml</title>
<polygon fill="white" stroke="none" points="-4,4 -4,-973 587.084,-973 587.084,4 -4,4"/>
<!-- ndError -->
<g id="node1" class="node"><title>ndError</title>
<g id="a_node1_0"><a xlink:href="https://github.com/maidsafe/brb_membership/blob/master/src/error.rs#:~:text=enum%20Error" xlink:title="&lt;TABLE&gt;">
<polygon fill="yellow" stroke="none" points="72.5836,-476.5 72.5836,-513.5 341.584,-513.5 341.584,-476.5 72.5836,-476.5"/>
<polygon fill="none" stroke="black" points="72.5836,-476.5 72.5836,-513.5 341.584,-513.5 341.584,-476.5 72.5836,-476.5"/>
<text text-anchor="start" x="188.584" y="-492.3" font-family="Arial" font-weight="bold" font-size="14.00">Error</text>
<polygon fill="white" stroke="none" points="72.5836,-214.5 72.5836,-476.5 341.584,-476.5 341.584,-214.5 72.5836,-214.5"/>
<polygon fill="none" stroke="black" points="72.5836,-214.5 72.5836,-476.5 341.584,-476.5 341.584,-214.5 72.5836,-214.5"/>
<text text-anchor="start" x="83.5836" y="-454.3" font-family="Arial" font-size="14.00">IO(std::io::Error)</text>
<text text-anchor="start" x="83.5836" y="-439.3" font-family="Arial" font-size="14.00">NoMembers</text>
<text text-anchor="start" x="83.5836" y="-424.3" font-family="Arial" font-size="14.00">InvalidSignature(signature::Error)</text>
<text text-anchor="start" x="83.5836" y="-409.3" font-family="Arial" font-size="14.00">WrongDestination</text>
<text text-anchor="start" x="83.5836" y="-394.3" font-family="Arial" font-size="14.00">MembersAtCapacity</text>
<text text-anchor="start" x="83.5836" y="-379.3" font-family="Arial" font-size="14.00">JoinRequestForExistingMember</text>
<text text-anchor="start" x="83.5836" y="-364.3" font-family="Arial" font-size="14.00">LeaveRequestForNonMember</text>
<text text-anchor="start" x="83.5836" y="-349.3" font-family="Arial" font-size="14.00">VoteNotForNextGeneration</text>
<text text-anchor="start" x="83.5836" y="-334.3" font-family="Arial" font-size="14.00">VoteFromNonMember</text>
<text text-anchor="start" x="83.5836" y="-319.3" font-family="Arial" font-size="14.00">VoterChangedMind</text>
<text text-anchor="start" x="83.5836" y="-304.3" font-family="Arial" font-size="14.00">ExistingVoteIncompatibleWithNewVote</text>
<text text-anchor="start" x="83.5836" y="-289.3" font-family="Arial" font-size="14.00">SuperMajorityBallotIsNotSuperMajority</text>
<text text-anchor="start" x="83.5836" y="-274.3" font-family="Arial" font-size="14.00">InvalidGeneration(Generation)</text>
<text text-anchor="start" x="83.5836" y="-259.3" font-family="Arial" font-size="14.00">InvalidVoteInHistory(Vote&lt;A, S&gt;)</text>
<text text-anchor="start" x="83.5836" y="-244.3" font-family="Arial" font-size="14.00">Encoding(bincode::Error)</text>
<text text-anchor="start" x="83.5836" y="-229.3" font-family="Arial" font-size="14.00">Other(String)</text>
<polygon fill="none" stroke="black" points="71.0836,-214 71.0836,-515 342.084,-515 342.084,-214 71.0836,-214"/>
</a>
</g>
</g>
<!-- ndState -->
<g id="node2" class="node"><title>ndState</title>
<g id="a_node2_1"><a xlink:href="https://github.com/maidsafe/brb_membership/blob/master/src/brb_membership.rs#:~:text=struct%20State" xlink:title="&lt;TABLE&gt;">
<polygon fill="lightblue" stroke="none" points="56.5836,-132 56.5836,-169 528.584,-169 528.584,-132 56.5836,-132"/>
<polygon fill="none" stroke="black" points="56.5836,-132 56.5836,-169 528.584,-169 528.584,-132 56.5836,-132"/>
<text text-anchor="start" x="274.584" y="-147.8" font-family="Arial" font-weight="bold" font-size="14.00">State</text>
<polygon fill="white" stroke="none" points="56.5836,-5 56.5836,-132 528.584,-132 528.584,-5 56.5836,-5"/>
<polygon fill="none" stroke="black" points="56.5836,-5 56.5836,-132 528.584,-132 528.584,-5 56.5836,-5"/>
<text text-anchor="start" x="67.5836" y="-109.8" font-family="Arial" font-size="14.00">+ id: SA</text>
<text text-anchor="start" x="67.5836" y="-94.8" font-family="Arial" font-size="14.00">+ gen: Generation</text>
<text text-anchor="start" x="67.5836" y="-79.8" font-family="Arial" font-size="14.00">+ pending_gen: Generation</text>
<text text-anchor="start" x="67.5836" y="-64.8" font-family="Arial" font-size="14.00">+ forced_reconfigs: BTreeMap&lt;Generation, BTreeSet&lt;Reconfig&lt;A&gt;&gt;&gt;</text>
<text text-anchor="start" x="67.5836" y="-49.8" font-family="Arial" font-size="14.00">+ history: BTreeMap&lt;Generation, Vote&lt;A, S&gt;&gt;</text>
<text text-anchor="start" x="67.5836" y="-34.8" font-family="Arial" font-size="14.00">+ votes: BTreeMap&lt;A, Vote&lt;A, S&gt;&gt;</text>
<text text-anchor="start" x="67.5836" y="-19.8" font-family="Arial" font-size="14.00">+ faulty: bool</text>
<polygon fill="none" stroke="black" points="55.5836,-4 55.5836,-170 529.584,-170 529.584,-4 55.5836,-4"/>
</a>
</g>
</g>
<!-- ndError&#45;&gt;ndState -->
<g id="edge1" class="edge"><title>ndError&#45;&gt;ndState</title>
<path fill="none" stroke="black" d="M254.612,-209.64C257.323,-200.958 260.006,-192.363 262.618,-183.995"/>
<polygon fill="black" stroke="black" points="265.649,-174.284 266.965,-185.171 264.159,-179.057 262.669,-183.83 262.669,-183.83 262.669,-183.83 264.159,-179.057 258.374,-182.489 265.649,-174.284 265.649,-174.284"/>
</g>
<!-- ndReconfig -->
<g id="node3" class="node"><title>ndReconfig</title>
<g id="a_node3_2"><a xlink:href="https://github.com/maidsafe/brb_membership/blob/master/src/brb_membership.rs#:~:text=enum%20Reconfig" xlink:title="&lt;TABLE&gt;">
<polygon fill="yellow" stroke="none" points="163.584,-926.5 163.584,-963.5 247.584,-963.5 247.584,-926.5 163.584,-926.5"/>
<polygon fill="none" stroke="black" points="163.584,-926.5 163.584,-963.5 247.584,-963.5 247.584,-926.5 163.584,-926.5"/>
<text text-anchor="start" x="174.584" y="-942.3" font-family="Arial" font-weight="bold" font-size="14.00">Reconfig</text>
<polygon fill="white" stroke="none" points="163.584,-874.5 163.584,-926.5 247.584,-926.5 247.584,-874.5 163.584,-874.5"/>
<polygon fill="none" stroke="black" points="163.584,-874.5 163.584,-926.5 247.584,-926.5 247.584,-874.5 163.584,-874.5"/>
<text text-anchor="start" x="174.584" y="-904.3" font-family="Arial" font-size="14.00">Join(A)</text>
<text text-anchor="start" x="174.584" y="-889.3" font-family="Arial" font-size="14.00">Leave(A)</text>
<polygon fill="none" stroke="black" points="162.584,-874 162.584,-965 248.584,-965 248.584,-874 162.584,-874"/>
</a>
</g>
</g>
<!-- ndReconfig&#45;&gt;ndState -->
<g id="edge2" class="edge"><title>ndReconfig&#45;&gt;ndState</title>
<path fill="none" stroke="black" d="M154.562,-905.009C119.398,-892.756 75.2442,-870.824 53.5836,-834 -16.7214,-714.477 -18.8257,-328.26 53.5836,-210 59.632,-200.122 66.7599,-191.011 74.7007,-182.613"/>
<polygon fill="black" stroke="black" points="74.7429,-182.571 76.1827,-175.505 83.2588,-174.117 81.8191,-181.183 74.7429,-182.571"/>
</g>
<!-- ndBallot -->
<g id="node4" class="node"><title>ndBallot</title>
<g id="a_node4_3"><a xlink:href="https://github.com/maidsafe/brb_membership/blob/master/src/brb_membership.rs#:~:text=enum%20Ballot" xlink:title="&lt;TABLE&gt;">
<polygon fill="yellow" stroke="none" points="71.5836,-792 71.5836,-829 339.584,-829 339.584,-792 71.5836,-792"/>
<polygon fill="none" stroke="black" points="71.5836,-792 71.5836,-829 339.584,-829 339.584,-792 71.5836,-792"/>
<text text-anchor="start" x="185.584" y="-807.8" font-family="Arial" font-weight="bold" font-size="14.00">Ballot</text>
<polygon fill="white" stroke="none" points="71.5836,-725 71.5836,-792 339.584,-792 339.584,-725 71.5836,-725"/>
<polygon fill="none" stroke="black" points="71.5836,-725 71.5836,-792 339.584,-792 339.584,-725 71.5836,-725"/>
<text text-anchor="start" x="82.5836" y="-769.8" font-family="Arial" font-size="14.00">Propose(Reconfig&lt;A&gt;)</text>
<text text-anchor="start" x="82.5836" y="-754.8" font-family="Arial" font-size="14.00">Merge(BTreeSet&lt;Vote&lt;A, S&gt;&gt;)</text>
<text text-anchor="start" x="82.5836" y="-739.8" font-family="Arial" font-size="14.00">SuperMajority(BTreeSet&lt;Vote&lt;A, S&gt;&gt;)</text>
<polygon fill="none" stroke="black" points="70.5836,-724 70.5836,-830 340.584,-830 340.584,-724 70.5836,-724"/>
</a>
</g>
</g>
<!-- ndReconfig&#45;&gt;ndBallot -->
<g id="edge3" class="edge"><title>ndReconfig&#45;&gt;ndBallot</title>
<path fill="none" stroke="black" d="M205.584,-869.754C205.584,-862.264 205.584,-854.414 205.584,-846.59"/>
<polygon fill="black" stroke="black" points="205.584,-846.375 201.584,-840.375 205.584,-834.375 209.584,-840.375 205.584,-846.375"/>
</g>
<!-- ndVote -->
<g id="node5" class="node"><title>ndVote</title>
<g id="a_node5_4"><a xlink:href="https://github.com/maidsafe/brb_membership/blob/master/src/brb_membership.rs#:~:text=struct%20Vote" xlink:title="&lt;TABLE&gt;">
<polygon fill="lightblue" stroke="none" points="214.584,-641.5 214.584,-678.5 369.584,-678.5 369.584,-641.5 214.584,-641.5"/>
<polygon fill="none" stroke="black" points="214.584,-641.5 214.584,-678.5 369.584,-678.5 369.584,-641.5 214.584,-641.5"/>
<text text-anchor="start" x="276.584" y="-657.3" font-family="Arial" font-weight="bold" font-size="14.00">Vote</text>
<polygon fill="white" stroke="none" points="214.584,-559.5 214.584,-641.5 369.584,-641.5 369.584,-559.5 214.584,-559.5"/>
<polygon fill="none" stroke="black" points="214.584,-559.5 214.584,-641.5 369.584,-641.5 369.584,-559.5 214.584,-559.5"/>
<text text-anchor="start" x="225.584" y="-619.3" font-family="Arial" font-size="14.00">+ gen: Generation</text>
<text text-anchor="start" x="225.584" y="-604.3" font-family="Arial" font-size="14.00">+ ballot: Ballot&lt;A, S&gt;</text>
<text text-anchor="start" x="225.584" y="-589.3" font-family="Arial" font-size="14.00">+ voter: A</text>
<text text-anchor="start" x="225.584" y="-574.3" font-family="Arial" font-size="14.00">+ sig: S</text>
<polygon fill="none" stroke="black" points="213.084,-559 213.084,-680 370.084,-680 370.084,-559 213.084,-559"/>
</a>
</g>
</g>
<!-- ndReconfig&#45;&gt;ndVote -->
<g id="edge4" class="edge"><title>ndReconfig&#45;&gt;ndVote</title>
<path fill="none" stroke="black" d="M256.907,-875.407C259.786,-873.499 262.688,-871.682 265.584,-870 303.547,-847.94 332.831,-870.266 357.584,-834 386.146,-792.152 372.21,-768.51 357.584,-720 354.83,-710.867 350.934,-701.803 346.395,-693.078"/>
<polygon fill="black" stroke="black" points="341.453,-684.119 350.224,-690.702 343.868,-688.497 346.283,-692.875 346.283,-692.875 346.283,-692.875 343.868,-688.497 342.343,-695.049 341.453,-684.119 341.453,-684.119"/>
</g>
<!-- ndBallot&#45;&gt;ndVote -->
<g id="edge5" class="edge"><title>ndBallot&#45;&gt;ndVote</title>
<path fill="none" stroke="black" d="M230.119,-719.861C234.435,-711.726 239.047,-703.247 243.735,-694.823"/>
<polygon fill="black" stroke="black" points="243.819,-694.672 243.271,-687.482 249.697,-684.21 250.245,-691.401 243.819,-694.672"/>
</g>
<!-- ndVote&#45;&gt;ndError -->
<g id="edge6" class="edge"><title>ndVote&#45;&gt;ndError</title>
<path fill="none" stroke="black" d="M270.244,-554.984C267.641,-547.235 264.895,-539.063 262.065,-530.638"/>
<polygon fill="black" stroke="black" points="261.98,-530.384 256.277,-525.971 258.158,-519.009 263.86,-523.423 261.98,-530.384"/>
</g>
<!-- ndVote&#45;&gt;ndState -->
<g id="edge7" class="edge"><title>ndVote&#45;&gt;ndState</title>
<path fill="none" stroke="black" d="M343.116,-554.758C349.885,-543.423 355.784,-531.294 359.584,-519 400.136,-387.791 393.708,-343.026 359.584,-210 357.313,-201.148 354.251,-192.248 350.68,-183.509"/>
<polygon fill="black" stroke="black" points="346.62,-174.098 354.714,-181.497 348.601,-178.689 350.582,-183.28 350.582,-183.28 350.582,-183.28 348.601,-178.689 346.45,-185.062 346.62,-174.098 346.62,-174.098"/>
</g>
<!-- ndVote&#45;&gt;ndBallot -->
<g id="edge8" class="edge"><title>ndVote&#45;&gt;ndBallot</title>
<path fill="none" stroke="black" d="M262.999,-684.21C258.523,-692.519 253.817,-701.048 249.103,-709.403"/>
<polygon fill="black" stroke="black" points="249.085,-709.435 249.59,-716.628 243.144,-719.861 242.639,-712.668 249.085,-709.435"/>
</g>
<!-- ndVoteMsg -->
<g id="node6" class="node"><title>ndVoteMsg</title>
<g id="a_node6_5"><a xlink:href="https://github.com/maidsafe/brb_membership/blob/master/src/brb_membership.rs#:~:text=struct%20VoteMsg" xlink:title="&lt;TABLE&gt;">
<polygon fill="lightblue" stroke="none" points="415.584,-371.5 415.584,-408.5 557.584,-408.5 557.584,-371.5 415.584,-371.5"/>
<polygon fill="none" stroke="black" points="415.584,-371.5 415.584,-408.5 557.584,-408.5 557.584,-371.5 415.584,-371.5"/>
<text text-anchor="start" x="456.084" y="-387.3" font-family="Arial" font-weight="bold" font-size="14.00">VoteMsg</text>
<polygon fill="white" stroke="none" points="415.584,-319.5 415.584,-371.5 557.584,-371.5 557.584,-319.5 415.584,-319.5"/>
<polygon fill="none" stroke="black" points="415.584,-319.5 415.584,-371.5 557.584,-371.5 557.584,-319.5 415.584,-319.5"/>
<text text-anchor="start" x="426.584" y="-349.3" font-family="Arial" font-size="14.00">+ vote: Vote&lt;A, S&gt;</text>
<text text-anchor="start" x="426.584" y="-334.3" font-family="Arial" font-size="14.00">+ dest: A</text>
<polygon fill="none" stroke="black" points="414.584,-319 414.584,-410 558.584,-410 558.584,-319 414.584,-319"/>
</a>
</g>
</g>
<!-- ndVote&#45;&gt;ndVoteMsg -->
<g id="edge9" class="edge"><title>ndVote&#45;&gt;ndVoteMsg</title>
<path fill="none" stroke="black" d="M360.8,-554.818C371.926,-543.336 382.94,-531.143 392.584,-519 415.863,-489.686 437.939,-454.197 454.839,-424.729"/>
<polygon fill="black" stroke="black" points="454.908,-424.607 454.386,-417.415 460.824,-414.167 461.346,-421.359 454.908,-424.607"/>
</g>
<!-- ndVoteMsg&#45;&gt;ndState -->
<g id="edge10" class="edge"><title>ndVoteMsg&#45;&gt;ndState</title>
<path fill="none" stroke="black" d="M459.014,-314.704C441.097,-283.981 416.666,-243.873 392.584,-210 386.079,-200.85 379.093,-191.503 371.947,-182.255"/>
<polygon fill="black" stroke="black" points="365.634,-174.162 375.333,-179.279 368.709,-178.105 371.784,-182.047 371.784,-182.047 371.784,-182.047 368.709,-178.105 368.236,-184.815 365.634,-174.162 365.634,-174.162"/>
</g>
<!-- ndActor -->
<g id="node7" class="node"><title>ndActor</title>
<g id="a_node7_6"><a xlink:href="https://github.com/maidsafe/brb_membership/blob/master/src/actor.rs#:~:text=trait%20Actor" xlink:title="&lt;TABLE&gt;">
<polygon fill="lightgreen" stroke="none" points="283.584,-900.5 283.584,-937.5 343.584,-937.5 343.584,-900.5 283.584,-900.5"/>
<polygon fill="none" stroke="black" points="283.584,-900.5 283.584,-937.5 343.584,-937.5 343.584,-900.5 283.584,-900.5"/>
<text text-anchor="start" x="294.584" y="-916.3" font-family="Arial" font-weight="bold" font-size="14.00">Actor</text>
<polygon fill="none" stroke="black" points="282.584,-900 282.584,-939 344.584,-939 344.584,-900 282.584,-900"/>
</a>
</g>
</g>
<!-- ndSigningActor -->
<g id="node8" class="node"><title>ndSigningActor</title>
<g id="a_node8_7"><a xlink:href="https://github.com/maidsafe/brb_membership/blob/master/src/actor.rs#:~:text=trait%20SigningActor" xlink:title="&lt;TABLE&gt;">
<polygon fill="lightgreen" stroke="none" points="380.584,-900.5 380.584,-937.5 493.584,-937.5 493.584,-900.5 380.584,-900.5"/>
<polygon fill="none" stroke="black" points="380.584,-900.5 380.584,-937.5 493.584,-937.5 493.584,-900.5 380.584,-900.5"/>
<text text-anchor="start" x="391.584" y="-916.3" font-family="Arial" font-weight="bold" font-size="14.00">SigningActor</text>
<polygon fill="none" stroke="black" points="379.084,-900 379.084,-939 494.084,-939 494.084,-900 379.084,-900"/>
</a>
</g>
</g>
<!-- ndSig -->
<g id="node9" class="node"><title>ndSig</title>
<g id="a_node9_8"><a xlink:href="https://github.com/maidsafe/brb_membership/blob/master/src/actor.rs#:~:text=trait%20Sig" xlink:title="&lt;TABLE&gt;">
<polygon fill="lightgreen" stroke="none" points="529.584,-900.5 529.584,-937.5 574.584,-937.5 574.584,-900.5 529.584,-900.5"/>
<polygon fill="none" stroke="black" points="529.584,-900.5 529.584,-937.5 574.584,-937.5 574.584,-900.5 529.584,-900.5"/>
<text text-anchor="start" x="540.584" y="-916.3" font-family="Arial" font-weight="bold" font-size="14.00">Sig</text>
<polygon fill="none" stroke="black" points="528.084,-900 528.084,-939 575.084,-939 575.084,-900 528.084,-900"/>
</a>
</g>
</g>
</g>
</svg>
