<?xml version="1.0" encoding="UTF-8" standalone="no"?>
<!DOCTYPE svg PUBLIC "-//W3C//DTD SVG 1.1//EN"
 "http://www.w3.org/Graphics/SVG/1.1/DTD/svg11.dtd">
<!-- Generated by graphviz version 2.38.0 (20140413.2041)
 -->
<!-- Title: ml Pages: 1 -->
<svg width="848pt" height="264pt"
 viewBox="0.00 0.00 847.50 264.00" xmlns="http://www.w3.org/2000/svg" xmlns:xlink="http://www.w3.org/1999/xlink">
<g id="graph0" class="graph" transform="scale(1 1) rotate(0) translate(4 260)">
<title>ml</title>
<polygon fill="white" stroke="none" points="-4,4 -4,-260 843.5,-260 843.5,4 -4,4"/>
<!-- ndBRBOrswot -->
<g id="node1" class="node"><title>ndBRBOrswot</title>
<g id="a_node1_0"><a xlink:href="https://github.com/maidsafe/brb_dt_orswot/blob/master/src/brb_orswot.rs#:~:text=struct%20BRBOrswot" xlink:title="&lt;TABLE&gt;">
<polygon fill="lightblue" stroke="none" points="9,-214 9,-251 521,-251 521,-214 9,-214"/>
<polygon fill="none" stroke="black" points="9,-214 9,-251 521,-251 521,-214 9,-214"/>
<text text-anchor="start" x="224" y="-229.8" font-family="Arial" font-weight="bold" font-size="14.00">BRBOrswot</text>
<polygon fill="white" stroke="none" points="9,-162 9,-214 521,-214 521,-162 9,-162"/>
<polygon fill="none" stroke="black" points="9,-162 9,-214 521,-214 521,-162 9,-162"/>
<text text-anchor="start" x="20" y="-191.8" font-family="Arial" font-size="14.00">&#45; actor: A</text>
<text text-anchor="start" x="20" y="-176.8" font-family="Arial" font-size="14.00">&#45; orswot: orswot::Orswot&lt;M, A&gt;</text>
<polygon fill="white" stroke="none" points="9,-5 9,-162 521,-162 521,-5 9,-5"/>
<polygon fill="none" stroke="black" points="9,-5 9,-162 521,-162 521,-5 9,-5"/>
<text text-anchor="start" x="20" y="-139.8" font-family="Arial" font-size="14.00">&#45; add(&amp;self, member: M) &#45;&gt; orswot::Op&lt;M, A&gt;</text>
<text text-anchor="start" x="20" y="-124.8" font-family="Arial" font-size="14.00">&#45; rm(&amp;self, member: M) &#45;&gt; orswot::Op&lt;M, A&gt;</text>
<text text-anchor="start" x="20" y="-109.8" font-family="Arial" font-size="14.00">&#45; contains(&amp;self, member: &amp;M) &#45;&gt; bool</text>
<text text-anchor="start" x="20" y="-94.8" font-family="Arial" font-size="14.00">&#45; actor(&amp;self) &#45;&gt; &amp;A</text>
<text text-anchor="start" x="20" y="-79.8" font-family="Arial" font-size="14.00">&#45; orswot(&amp;self) &#45;&gt; &amp;orswot::Orswot&lt;M, A&gt;</text>
<text text-anchor="start" x="20" y="-64.8" font-family="Arial" font-size="14.00">&#45; read(&amp;self) &#45;&gt; HashSet&lt;M&gt;</text>
<text text-anchor="start" x="20" y="-49.8" font-family="Arial" font-size="14.00">&#45; new(actor: A) &#45;&gt; Self</text>
<text text-anchor="start" x="20" y="-34.8" font-family="Arial" font-size="14.00">&#45; validate(&amp;self, source: &amp;A, op: &amp;Self::Op) &#45;&gt; Result&lt;(), Self::ValidationError&gt;</text>
<text text-anchor="start" x="20" y="-19.8" font-family="Arial" font-size="14.00">&#45; apply(&amp;mut self, op: Self::Op)</text>
<polygon fill="none" stroke="black" points="8,-4 8,-252 522,-252 522,-4 8,-4"/>
</a>
</g>
</g>
<!-- ndValidationError -->
<g id="node2" class="node"><title>ndValidationError</title>
<g id="a_node2_1"><a xlink:href="https://github.com/maidsafe/brb_dt_orswot/blob/master/src/brb_orswot.rs#:~:text=enum%20ValidationError" xlink:title="&lt;TABLE&gt;">
<polygon fill="yellow" stroke="none" points="558,-150 558,-187 831,-187 831,-150 558,-150"/>
<polygon fill="none" stroke="black" points="558,-150 558,-187 831,-187 831,-150 558,-150"/>
<text text-anchor="start" x="641.5" y="-165.8" font-family="Arial" font-weight="bold" font-size="14.00">ValidationError</text>
<polygon fill="white" stroke="none" points="558,-68 558,-150 831,-150 831,-68 558,-68"/>
<polygon fill="none" stroke="black" points="558,-68 558,-150 831,-150 831,-68 558,-68"/>
<text text-anchor="start" x="569" y="-127.8" font-family="Arial" font-size="14.00">SourceDoesNotMatchOp</text>
<text text-anchor="start" x="569" y="-112.8" font-family="Arial" font-size="14.00">RemoveOnlySupportedForOneMember</text>
<text text-anchor="start" x="569" y="-97.8" font-family="Arial" font-size="14.00">RemovingDataWeHaventSeenYet</text>
<text text-anchor="start" x="569" y="-82.8" font-family="Arial" font-size="14.00">Orswot(E)</text>
<polygon fill="none" stroke="black" points="556.5,-67.5 556.5,-188.5 831.5,-188.5 831.5,-67.5 556.5,-67.5"/>
</a>
</g>
</g>
</g>
</svg>
