<?xml version="1.0" encoding="UTF-8" standalone="no"?>
<!DOCTYPE svg PUBLIC "-//W3C//DTD SVG 1.1//EN"
 "http://www.w3.org/Graphics/SVG/1.1/DTD/svg11.dtd">
<!-- Generated by graphviz version 2.38.0 (20140413.2041)
 -->
<!-- Title: ml Pages: 1 -->
<svg width="745pt" height="950pt"
 viewBox="0.00 0.00 744.91 950.00" xmlns="http://www.w3.org/2000/svg" xmlns:xlink="http://www.w3.org/1999/xlink">
<g id="graph0" class="graph" transform="scale(1 1) rotate(0) translate(4 946)">
<title>ml</title>
<polygon fill="white" stroke="none" points="-4,4 -4,-946 740.914,-946 740.914,4 -4,4"/>
<!-- ndError -->
<g id="node1" class="node"><title>ndError</title>
<g id="a_node1_0"><a xlink:href="https://github.com/maidsafe/brb_membership/blob/master/src/error.rs#:~:text=enum%20Error" xlink:title="&lt;TABLE&gt;">
<polygon fill="yellow" stroke="none" points="66.9144,-390.5 66.9144,-427.5 335.914,-427.5 335.914,-390.5 66.9144,-390.5"/>
<polygon fill="none" stroke="black" points="66.9144,-390.5 66.9144,-427.5 335.914,-427.5 335.914,-390.5 66.9144,-390.5"/>
<text text-anchor="start" x="182.914" y="-406.3" font-family="Arial" font-weight="bold" font-size="14.00">Error</text>
<polygon fill="white" stroke="none" points="66.9144,-128.5 66.9144,-390.5 335.914,-390.5 335.914,-128.5 66.9144,-128.5"/>
<polygon fill="none" stroke="black" points="66.9144,-128.5 66.9144,-390.5 335.914,-390.5 335.914,-128.5 66.9144,-128.5"/>
<text text-anchor="start" x="77.9144" y="-368.3" font-family="Arial" font-size="14.00">IO(std::io::Error)</text>
<text text-anchor="start" x="77.9144" y="-353.3" font-family="Arial" font-size="14.00">NoMembers</text>
<text text-anchor="start" x="77.9144" y="-338.3" font-family="Arial" font-size="14.00">InvalidSignature(signature::Error)</text>
<text text-anchor="start" x="77.9144" y="-323.3" font-family="Arial" font-size="14.00">WrongDestination</text>
<text text-anchor="start" x="77.9144" y="-308.3" font-family="Arial" font-size="14.00">MembersAtCapacity</text>
<text text-anchor="start" x="77.9144" y="-293.3" font-family="Arial" font-size="14.00">JoinRequestForExistingMember</text>
<text text-anchor="start" x="77.9144" y="-278.3" font-family="Arial" font-size="14.00">LeaveRequestForNonMember</text>
<text text-anchor="start" x="77.9144" y="-263.3" font-family="Arial" font-size="14.00">VoteNotForNextGeneration</text>
<text text-anchor="start" x="77.9144" y="-248.3" font-family="Arial" font-size="14.00">VoteFromNonMember</text>
<text text-anchor="start" x="77.9144" y="-233.3" font-family="Arial" font-size="14.00">VoterChangedMind</text>
<text text-anchor="start" x="77.9144" y="-218.3" font-family="Arial" font-size="14.00">ExistingVoteIncompatibleWithNewVote</text>
<text text-anchor="start" x="77.9144" y="-203.3" font-family="Arial" font-size="14.00">SuperMajorityBallotIsNotSuperMajority</text>
<text text-anchor="start" x="77.9144" y="-188.3" font-family="Arial" font-size="14.00">InvalidGeneration(Generation)</text>
<text text-anchor="start" x="77.9144" y="-173.3" font-family="Arial" font-size="14.00">InvalidVoteInHistory(Vote&lt;A, S&gt;)</text>
<text text-anchor="start" x="77.9144" y="-158.3" font-family="Arial" font-size="14.00">Encoding(bincode::Error)</text>
<text text-anchor="start" x="77.9144" y="-143.3" font-family="Arial" font-size="14.00">Other(String)</text>
<polygon fill="white" stroke="none" points="66.9144,-76.5 66.9144,-128.5 335.914,-128.5 335.914,-76.5 66.9144,-76.5"/>
<polygon fill="none" stroke="black" points="66.9144,-76.5 66.9144,-128.5 335.914,-128.5 335.914,-76.5 66.9144,-76.5"/>
<text text-anchor="start" x="77.9144" y="-106.3" font-family="Arial" font-size="14.00">&#45; from(v: String) &#45;&gt; Self</text>
<text text-anchor="start" x="77.9144" y="-91.3" font-family="Arial" font-size="14.00">&#45; from(v: &amp;&#39;static str) &#45;&gt; Self</text>
<polygon fill="none" stroke="black" points="65.4144,-76 65.4144,-429 336.414,-429 336.414,-76 65.4144,-76"/>
</a>
</g>
</g>
<!-- ndState -->
<g id="node5" class="node"><title>ndState</title>
<text text-anchor="middle" x="286.914" y="-14.3" font-family="Times,serif" font-size="14.00">ndState</text>
</g>
<!-- ndError&#45;&gt;ndState -->
<g id="edge1" class="edge"><title>ndError&#45;&gt;ndState</title>
<path fill="none" stroke="black" d="M267.4,-71.7578C270.989,-62.0555 274.262,-53.2044 277.061,-45.6393"/>
<polygon fill="black" stroke="black" points="280.567,-36.1612 281.318,-47.1013 278.832,-40.8506 277.097,-45.5401 277.097,-45.5401 277.097,-45.5401 278.832,-40.8506 272.877,-43.979 280.567,-36.1612 280.567,-36.1612"/>
</g>
<!-- ndActor -->
<g id="node2" class="node"><title>ndActor</title>
<g id="a_node2_1"><a xlink:href="https://github.com/maidsafe/brb_membership/blob/master/src/actor.rs#:~:text=trait%20Actor" xlink:title="&lt;TABLE&gt;">
<polygon fill="lightgreen" stroke="none" points="600.914,-672 600.914,-709 660.914,-709 660.914,-672 600.914,-672"/>
<polygon fill="none" stroke="black" points="600.914,-672 600.914,-709 660.914,-709 660.914,-672 600.914,-672"/>
<text text-anchor="start" x="611.914" y="-687.8" font-family="Arial" font-weight="bold" font-size="14.00">Actor</text>
<polygon fill="white" stroke="none" points="600.914,-634 600.914,-672 660.914,-672 660.914,-634 600.914,-634"/>
<polygon fill="none" stroke="black" points="600.914,-634 600.914,-672 660.914,-672 660.914,-634 600.914,-634"/>
<polygon fill="none" stroke="black" points="599.914,-633.5 599.914,-710.5 661.914,-710.5 661.914,-633.5 599.914,-633.5"/>
</a>
</g>
</g>
<!-- ndSigningActor -->
<g id="node3" class="node"><title>ndSigningActor</title>
<g id="a_node3_2"><a xlink:href="https://github.com/maidsafe/brb_membership/blob/master/src/actor.rs#:~:text=trait%20SigningActor" xlink:title="&lt;TABLE&gt;">
<polygon fill="lightgreen" stroke="none" points="599.914,-511 599.914,-548 727.914,-548 727.914,-511 599.914,-511"/>
<polygon fill="none" stroke="black" points="599.914,-511 599.914,-548 727.914,-548 727.914,-511 599.914,-511"/>
<text text-anchor="start" x="618.414" y="-526.8" font-family="Arial" font-weight="bold" font-size="14.00">SigningActor</text>
<polygon fill="white" stroke="none" points="599.914,-474 599.914,-511 727.914,-511 727.914,-474 599.914,-474"/>
<polygon fill="none" stroke="black" points="599.914,-474 599.914,-511 727.914,-511 727.914,-474 599.914,-474"/>
<text text-anchor="start" x="610.914" y="-488.8" font-family="Arial" font-size="14.00">actor(&amp;Self) &#45;&gt; A</text>
<polygon fill="none" stroke="black" points="598.914,-473 598.914,-549 728.914,-549 728.914,-473 598.914,-473"/>
</a>
</g>
</g>
<!-- ndActor&#45;&gt;ndSigningActor -->
<g id="edge2" class="edge"><title>ndActor&#45;&gt;ndSigningActor</title>
<path fill="none" stroke="black" d="M639.585,-629.225C643.789,-608.97 648.875,-584.462 653.308,-563.103"/>
<polygon fill="black" stroke="black" points="655.359,-553.221 657.733,-563.927 654.343,-558.117 653.327,-563.012 653.327,-563.012 653.327,-563.012 654.343,-558.117 648.921,-562.098 655.359,-553.221 655.359,-553.221"/>
</g>
<!-- ndSig -->
<g id="node4" class="node"><title>ndSig</title>
<g id="a_node4_3"><a xlink:href="https://github.com/maidsafe/brb_membership/blob/master/src/actor.rs#:~:text=trait%20Sig" xlink:title="&lt;TABLE&gt;">
<polygon fill="lightgreen" stroke="none" points="641.914,-866.5 641.914,-903.5 686.914,-903.5 686.914,-866.5 641.914,-866.5"/>
<polygon fill="none" stroke="black" points="641.914,-866.5 641.914,-903.5 686.914,-903.5 686.914,-866.5 641.914,-866.5"/>
<text text-anchor="start" x="652.914" y="-882.3" font-family="Arial" font-weight="bold" font-size="14.00">Sig</text>
<polygon fill="white" stroke="none" points="641.914,-828.5 641.914,-866.5 686.914,-866.5 686.914,-828.5 641.914,-828.5"/>
<polygon fill="none" stroke="black" points="641.914,-828.5 641.914,-866.5 686.914,-866.5 686.914,-828.5 641.914,-828.5"/>
<polygon fill="none" stroke="black" points="640.414,-828 640.414,-905 687.414,-905 687.414,-828 640.414,-828"/>
</a>
</g>
</g>
<!-- ndSig&#45;&gt;ndActor -->
<g id="edge3" class="edge"><title>ndSig&#45;&gt;ndActor</title>
<path fill="none" stroke="black" stroke-dasharray="5,2" d="M656.754,-823.73C651.781,-794.721 645.12,-755.867 639.807,-724.872"/>
<polygon fill="black" stroke="black" points="638.061,-714.688 644.186,-723.784 638.906,-719.616 639.751,-724.544 639.751,-724.544 639.751,-724.544 638.906,-719.616 635.315,-725.305 638.061,-714.688 638.061,-714.688"/>
</g>
<!-- ndSig&#45;&gt;ndSigningActor -->
<g id="edge4" class="edge"><title>ndSig&#45;&gt;ndSigningActor</title>
<path fill="none" stroke="black" d="M670.909,-823.92C674.039,-803.265 677.368,-777.889 678.914,-755 683.888,-681.39 686.001,-662.437 678.914,-589 678.106,-580.62 676.813,-571.798 675.317,-563.236"/>
<polygon fill="black" stroke="black" points="673.485,-553.346 679.732,-562.359 674.396,-558.262 675.307,-563.178 675.307,-563.178 675.307,-563.178 674.396,-558.262 670.882,-563.998 673.485,-553.346 673.485,-553.346"/>
</g>
<!-- ndReconfig -->
<g id="node6" class="node"><title>ndReconfig</title>
<g id="a_node6_4"><a xlink:href="https://github.com/maidsafe/brb_membership/blob/master/src/brb_membership.rs#:~:text=enum%20Reconfig" xlink:title="&lt;TABLE&gt;">
<polygon fill="yellow" stroke="none" points="117.914,-899.5 117.914,-936.5 526.914,-936.5 526.914,-899.5 117.914,-899.5"/>
<polygon fill="none" stroke="black" points="117.914,-899.5 117.914,-936.5 526.914,-936.5 526.914,-899.5 117.914,-899.5"/>
<text text-anchor="start" x="291.414" y="-915.3" font-family="Arial" font-weight="bold" font-size="14.00">Reconfig</text>
<polygon fill="white" stroke="none" points="117.914,-847.5 117.914,-899.5 526.914,-899.5 526.914,-847.5 117.914,-847.5"/>
<polygon fill="none" stroke="black" points="117.914,-847.5 117.914,-899.5 526.914,-899.5 526.914,-847.5 117.914,-847.5"/>
<text text-anchor="start" x="128.914" y="-877.3" font-family="Arial" font-size="14.00">Join(A)</text>
<text text-anchor="start" x="128.914" y="-862.3" font-family="Arial" font-size="14.00">Leave(A)</text>
<polygon fill="white" stroke="none" points="117.914,-795.5 117.914,-847.5 526.914,-847.5 526.914,-795.5 117.914,-795.5"/>
<polygon fill="none" stroke="black" points="117.914,-795.5 117.914,-847.5 526.914,-847.5 526.914,-795.5 117.914,-795.5"/>
<text text-anchor="start" x="128.914" y="-825.3" font-family="Arial" font-size="14.00">&#45; fmt(&amp;self, f: &amp;mut std::fmt::Formatter&lt;&#39;_&gt;) &#45;&gt; std::fmt::Result</text>
<text text-anchor="start" x="128.914" y="-810.3" font-family="Arial" font-size="14.00">&#45; apply(self, members: &amp;mut BTreeSet&lt;A&gt;)</text>
<polygon fill="none" stroke="black" points="116.414,-795 116.414,-938 527.414,-938 527.414,-795 116.414,-795"/>
</a>
</g>
</g>
<!-- ndReconfig&#45;&gt;ndState -->
<g id="edge5" class="edge"><title>ndReconfig&#45;&gt;ndState</title>
<path fill="none" stroke="black" d="M134.121,-790.975C120.855,-780.428 108.831,-768.49 98.9144,-755 13.093,-638.256 59.2828,-577.448 47.9144,-433 35.326,-273.05 -52.5078,-197.131 47.9144,-72 72.3036,-41.6099 184.374,-27.5635 246.004,-22.0392"/>
<polygon fill="black" stroke="black" points="246.022,-22.0378 251.66,-17.5415 257.979,-21.0163 252.341,-25.5125 246.022,-22.0378"/>
</g>
<!-- ndBallot -->
<g id="node7" class="node"><title>ndBallot</title>
<g id="a_node7_5"><a xlink:href="https://github.com/maidsafe/brb_membership/blob/master/src/brb_membership.rs#:~:text=enum%20Ballot" xlink:title="&lt;TABLE&gt;">
<polygon fill="yellow" stroke="none" points="117.914,-713 117.914,-750 526.914,-750 526.914,-713 117.914,-713"/>
<polygon fill="none" stroke="black" points="117.914,-713 117.914,-750 526.914,-750 526.914,-713 117.914,-713"/>
<text text-anchor="start" x="302.414" y="-728.8" font-family="Arial" font-weight="bold" font-size="14.00">Ballot</text>
<polygon fill="white" stroke="none" points="117.914,-646 117.914,-713 526.914,-713 526.914,-646 117.914,-646"/>
<polygon fill="none" stroke="black" points="117.914,-646 117.914,-713 526.914,-713 526.914,-646 117.914,-646"/>
<text text-anchor="start" x="128.914" y="-690.8" font-family="Arial" font-size="14.00">Propose(Reconfig&lt;A&gt;)</text>
<text text-anchor="start" x="128.914" y="-675.8" font-family="Arial" font-size="14.00">Merge(BTreeSet&lt;Vote&lt;A, S&gt;&gt;)</text>
<text text-anchor="start" x="128.914" y="-660.8" font-family="Arial" font-size="14.00">SuperMajority(BTreeSet&lt;Vote&lt;A, S&gt;&gt;)</text>
<polygon fill="white" stroke="none" points="117.914,-594 117.914,-646 526.914,-646 526.914,-594 117.914,-594"/>
<polygon fill="none" stroke="black" points="117.914,-594 117.914,-646 526.914,-646 526.914,-594 117.914,-594"/>
<text text-anchor="start" x="128.914" y="-623.8" font-family="Arial" font-size="14.00">&#45; fmt(&amp;self, f: &amp;mut std::fmt::Formatter&lt;&#39;_&gt;) &#45;&gt; std::fmt::Result</text>
<text text-anchor="start" x="128.914" y="-608.8" font-family="Arial" font-size="14.00">&#45; simplify(&amp;self) &#45;&gt; Self</text>
<polygon fill="none" stroke="black" points="116.414,-593 116.414,-751 527.414,-751 527.414,-593 116.414,-593"/>
</a>
</g>
</g>
<!-- ndReconfig&#45;&gt;ndBallot -->
<g id="edge6" class="edge"><title>ndReconfig&#45;&gt;ndBallot</title>
<path fill="none" stroke="black" d="M321.914,-790.799C321.914,-783.009 321.914,-775.02 321.914,-767.052"/>
<polygon fill="black" stroke="black" points="321.915,-767.002 317.914,-761.002 321.914,-755.002 325.914,-761.002 321.915,-767.002"/>
</g>
<!-- ndVote -->
<g id="node8" class="node"><title>ndVote</title>
<text text-anchor="middle" x="346.914" y="-507.3" font-family="Times,serif" font-size="14.00">ndVote</text>
</g>
<!-- ndReconfig&#45;&gt;ndVote -->
<g id="edge7" class="edge"><title>ndReconfig&#45;&gt;ndVote</title>
<path fill="none" stroke="black" d="M512.93,-790.99C524.928,-780.479 535.528,-768.543 543.914,-755 582.758,-692.276 585.517,-649.929 543.914,-589 508.3,-536.842 431.62,-520.012 385.128,-514.583"/>
<polygon fill="black" stroke="black" points="375.129,-513.537 385.543,-510.102 380.102,-514.057 385.074,-514.578 385.074,-514.578 385.074,-514.578 380.102,-514.057 384.606,-519.053 375.129,-513.537 375.129,-513.537"/>
</g>
<!-- ndBallot&#45;&gt;ndVote -->
<g id="edge8" class="edge"><title>ndBallot&#45;&gt;ndVote</title>
<path fill="none" stroke="black" d="M328.107,-588.706C330.844,-571.593 333.97,-554.654 336.987,-541.064"/>
<polygon fill="black" stroke="black" points="337.041,-540.836 334.545,-534.071 339.83,-529.164 342.326,-535.93 337.041,-540.836"/>
</g>
<!-- ndVote&#45;&gt;ndError -->
<g id="edge9" class="edge"><title>ndVote&#45;&gt;ndError</title>
<path fill="none" stroke="black" d="M337.108,-492.772C330.33,-480.863 320.519,-463.627 309.222,-443.78"/>
<polygon fill="black" stroke="black" points="309.123,-443.607 302.679,-440.371 303.187,-433.178 309.632,-436.414 309.123,-443.607"/>
</g>
<!-- ndVote&#45;&gt;ndState -->
<g id="edge10" class="edge"><title>ndVote&#45;&gt;ndState</title>
<path fill="none" stroke="black" d="M352.258,-492.962C370.343,-432.051 424.265,-220.804 352.914,-72 346.626,-58.8846 335.334,-47.9883 323.848,-39.5556"/>
<polygon fill="black" stroke="black" points="315.519,-33.8542 326.313,-35.7894 319.645,-36.6785 323.771,-39.5028 323.771,-39.5028 323.771,-39.5028 319.645,-36.6785 321.229,-43.2162 315.519,-33.8542 315.519,-33.8542"/>
</g>
<!-- ndVote&#45;&gt;ndBallot -->
<g id="edge11" class="edge"><title>ndVote&#45;&gt;ndBallot</title>
<path fill="none" stroke="black" d="M348.601,-529.164C347.95,-541.207 346.005,-558.363 343.4,-576.604"/>
<polygon fill="black" stroke="black" points="343.366,-576.836 346.439,-583.359 341.6,-588.706 338.526,-582.182 343.366,-576.836"/>
</g>
<!-- ndVoteMsg -->
<g id="node9" class="node"><title>ndVoteMsg</title>
<text text-anchor="middle" x="441.914" y="-248.8" font-family="Times,serif" font-size="14.00">ndVoteMsg</text>
</g>
<!-- ndVote&#45;&gt;ndVoteMsg -->
<g id="edge12" class="edge"><title>ndVote&#45;&gt;ndVoteMsg</title>
<path fill="none" stroke="black" d="M356.892,-492.996C365.606,-477.67 378.19,-454.333 386.914,-433 408.012,-381.413 425.465,-318.653 434.728,-282.664"/>
<polygon fill="black" stroke="black" points="434.816,-282.319 432.411,-275.521 437.762,-270.686 440.166,-277.485 434.816,-282.319"/>
</g>
<!-- ndVoteMsg&#45;&gt;ndState -->
<g id="edge13" class="edge"><title>ndVoteMsg&#45;&gt;ndState</title>
<path fill="none" stroke="black" d="M440.95,-234.394C438.17,-199.904 427.493,-121.128 386.914,-72 371.035,-52.7752 346.326,-39.5866 325.443,-31.1739"/>
<polygon fill="black" stroke="black" points="315.859,-27.5313 326.806,-26.8779 320.533,-29.3078 325.207,-31.0843 325.207,-31.0843 325.207,-31.0843 320.533,-29.3078 323.608,-35.2907 315.859,-27.5313 315.859,-27.5313"/>
</g>
</g>
</svg>
