<?xml version="1.0" encoding="UTF-8" standalone="no"?>
<!DOCTYPE svg PUBLIC "-//W3C//DTD SVG 1.1//EN"
 "http://www.w3.org/Graphics/SVG/1.1/DTD/svg11.dtd">
<!-- Generated by graphviz version 2.38.0 (20140413.2041)
 -->
<!-- Title: ml Pages: 1 -->
<svg width="272pt" height="221pt"
 viewBox="0.00 0.00 272.00 221.00" xmlns="http://www.w3.org/2000/svg" xmlns:xlink="http://www.w3.org/1999/xlink">
<g id="graph0" class="graph" transform="scale(1 1) rotate(0) translate(4 217)">
<title>ml</title>
<polygon fill="white" stroke="none" points="-4,4 -4,-217 268,-217 268,4 -4,4"/>
<!-- ndBank -->
<g id="node1" class="node"><title>ndBank</title>
<g id="a_node1_0"><a xlink:href="https://github.com/maidsafe/brb_dt_at2/blob/master/src/bank.rs#:~:text=struct%20Bank" xlink:title="&lt;TABLE&gt;">
<polygon fill="lightblue" stroke="none" points="21,-4.5 21,-41.5 80,-41.5 80,-4.5 21,-4.5"/>
<polygon fill="none" stroke="black" points="21,-4.5 21,-41.5 80,-41.5 80,-4.5 21,-4.5"/>
<text text-anchor="start" x="32" y="-20.3" font-family="Arial" font-weight="bold" font-size="14.00">Bank</text>
<polygon fill="none" stroke="black" points="19.5,-4 19.5,-43 80.5,-43 80.5,-4 19.5,-4"/>
</a>
</g>
</g>
<!-- ndValidationError -->
<g id="node2" class="node"><title>ndValidationError</title>
<g id="a_node2_1"><a xlink:href="https://github.com/maidsafe/brb_dt_at2/blob/master/src/bank.rs#:~:text=enum%20ValidationError" xlink:title="&lt;TABLE&gt;">
<polygon fill="yellow" stroke="none" points="127,-170.5 127,-207.5 255,-207.5 255,-170.5 127,-170.5"/>
<polygon fill="none" stroke="black" points="127,-170.5 127,-207.5 255,-207.5 255,-170.5 127,-170.5"/>
<text text-anchor="start" x="138" y="-186.3" font-family="Arial" font-weight="bold" font-size="14.00">ValidationError</text>
<polygon fill="none" stroke="black" points="126,-170 126,-209 256,-209 256,-170 126,-170"/>
</a>
</g>
</g>
<!-- ndOp -->
<g id="node3" class="node"><title>ndOp</title>
<g id="a_node3_2"><a xlink:href="https://github.com/maidsafe/brb_dt_at2/blob/master/src/op.rs#:~:text=enum%20Op" xlink:title="&lt;TABLE&gt;">
<polygon fill="yellow" stroke="none" points="59,-87.5 59,-124.5 102,-124.5 102,-87.5 59,-87.5"/>
<polygon fill="none" stroke="black" points="59,-87.5 59,-124.5 102,-124.5 102,-87.5 59,-87.5"/>
<text text-anchor="start" x="70" y="-103.3" font-family="Arial" font-weight="bold" font-size="14.00">Op</text>
<polygon fill="none" stroke="black" points="57.5,-87 57.5,-126 102.5,-126 102.5,-87 57.5,-87"/>
</a>
</g>
</g>
<!-- ndOp&#45;&gt;ndBank -->
<g id="edge1" class="edge"><title>ndOp&#45;&gt;ndBank</title>
<path fill="none" stroke="black" stroke-dasharray="5,2" d="M71.6433,-82.937C68.6453,-74.8423 65.2036,-65.5497 61.9599,-56.7916"/>
<polygon fill="black" stroke="black" points="58.4159,-47.2229 66.109,-55.0375 60.1525,-51.9117 61.8891,-56.6004 61.8891,-56.6004 61.8891,-56.6004 60.1525,-51.9117 57.6692,-58.1634 58.4159,-47.2229 58.4159,-47.2229"/>
</g>
<!-- ndTransfer -->
<g id="node4" class="node"><title>ndTransfer</title>
<g id="a_node4_3"><a xlink:href="https://github.com/maidsafe/brb_dt_at2/blob/master/src/transfer.rs#:~:text=struct%20Transfer" xlink:title="&lt;TABLE&gt;">
<polygon fill="lightblue" stroke="none" points="9,-170.5 9,-207.5 91,-207.5 91,-170.5 9,-170.5"/>
<polygon fill="none" stroke="black" points="9,-170.5 9,-207.5 91,-207.5 91,-170.5 9,-170.5"/>
<text text-anchor="start" x="20" y="-186.3" font-family="Arial" font-weight="bold" font-size="14.00">Transfer</text>
<polygon fill="none" stroke="black" points="8,-170 8,-209 92,-209 92,-170 8,-170"/>
</a>
</g>
</g>
<!-- ndTransfer&#45;&gt;ndBank -->
<g id="edge2" class="edge"><title>ndTransfer&#45;&gt;ndBank</title>
<path fill="none" stroke="black" d="M45.6845,-165.812C43.842,-155.011 41.9089,-141.885 41,-130 39.4072,-109.172 39.4072,-103.828 41,-83 41.5894,-75.2932 42.6094,-67.0649 43.7561,-59.2868"/>
<polygon fill="black" stroke="black" points="43.7956,-59.0381 40.7899,-52.4833 45.6845,-47.1877 48.6902,-53.7425 43.7956,-59.0381"/>
</g>
<!-- ndTransfer&#45;&gt;ndOp -->
<g id="edge3" class="edge"><title>ndTransfer&#45;&gt;ndOp</title>
<path fill="none" stroke="black" d="M58.3567,-165.937C61.1613,-158.365 64.3542,-149.744 67.41,-141.493"/>
<polygon fill="black" stroke="black" points="67.4163,-141.476 65.7492,-134.46 71.5841,-130.223 73.2512,-137.239 67.4163,-141.476"/>
</g>
</g>
</svg>
