<?xml version="1.0" encoding="UTF-8" standalone="no"?>
<!DOCTYPE svg PUBLIC "-//W3C//DTD SVG 1.1//EN"
 "http://www.w3.org/Graphics/SVG/1.1/DTD/svg11.dtd">
<!-- Generated by graphviz version 2.38.0 (20140413.2041)
 -->
<!-- Title: ml Pages: 1 -->
<svg width="1748pt" height="1718pt"
 viewBox="0.00 0.00 1747.50 1718.00" xmlns="http://www.w3.org/2000/svg" xmlns:xlink="http://www.w3.org/1999/xlink">
<g id="graph0" class="graph" transform="scale(1 1) rotate(0) translate(4 1714)">
<title>ml</title>
<polygon fill="white" stroke="none" points="-4,4 -4,-1714 1743.5,-1714 1743.5,4 -4,4"/>
<!-- ndTreeReplica -->
<g id="node1" class="node"><title>ndTreeReplica</title>
<polygon fill="lightblue" stroke="none" points="861,-318.5 861,-355.5 1397,-355.5 1397,-318.5 861,-318.5"/>
<polygon fill="none" stroke="black" points="861,-318.5 861,-355.5 1397,-355.5 1397,-318.5 861,-318.5"/>
<text text-anchor="start" x="1087.5" y="-334.3" font-family="Arial" font-weight="bold" font-size="14.00">TreeReplica</text>
<polygon fill="white" stroke="none" points="861,-251.5 861,-318.5 1397,-318.5 1397,-251.5 861,-251.5"/>
<polygon fill="none" stroke="black" points="861,-251.5 861,-318.5 1397,-318.5 1397,-251.5 861,-251.5"/>
<text text-anchor="start" x="872" y="-296.3" font-family="Arial" font-size="14.00">&#45; state: State&lt;ID, TM, A&gt;</text>
<text text-anchor="start" x="872" y="-281.3" font-family="Arial" font-size="14.00">&#45; time: Clock&lt;A&gt;</text>
<text text-anchor="start" x="872" y="-266.3" font-family="Arial" font-size="14.00">&#45; latest_time_by_replica: HashMap&lt;A, Clock&lt;A&gt;&gt;</text>
<polygon fill="white" stroke="none" points="861,-4.5 861,-251.5 1397,-251.5 1397,-4.5 861,-4.5"/>
<polygon fill="none" stroke="black" points="861,-4.5 861,-251.5 1397,-251.5 1397,-4.5 861,-4.5"/>
<text text-anchor="start" x="872" y="-229.3" font-family="Arial" font-size="14.00">&#45; new(id: A) &#45;&gt; Self</text>
<text text-anchor="start" x="872" y="-214.3" font-family="Arial" font-size="14.00">&#45; opmove(&amp;self, parent_id: ID, metadata: TM, child_id: ID) &#45;&gt; OpMove&lt;ID, TM, A&gt;</text>
<text text-anchor="start" x="872" y="-199.3" font-family="Arial" font-size="14.00">&#45; opmoves(&amp;self, ops: Vec&lt;(ID, TM, ID)&gt;) &#45;&gt; Vec&lt;OpMove&lt;ID, TM, A&gt;&gt;</text>
<text text-anchor="start" x="872" y="-184.3" font-family="Arial" font-size="14.00">&#45; id(&amp;self) &#45;&gt; &amp;A</text>
<text text-anchor="start" x="872" y="-169.3" font-family="Arial" font-size="14.00">&#45; time(&amp;self) &#45;&gt; &amp;Clock&lt;A&gt;</text>
<text text-anchor="start" x="872" y="-154.3" font-family="Arial" font-size="14.00">&#45; state(&amp;self) &#45;&gt; &amp;State&lt;ID, TM, A&gt;</text>
<text text-anchor="start" x="872" y="-139.3" font-family="Arial" font-size="14.00">&#45; tree(&amp;self) &#45;&gt; &amp;Tree&lt;ID, TM&gt;</text>
<text text-anchor="start" x="872" y="-124.3" font-family="Arial" font-size="14.00">&#45; tree_mut(&amp;mut self) &#45;&gt; &amp;mut Tree&lt;ID, TM&gt;</text>
<text text-anchor="start" x="872" y="-109.3" font-family="Arial" font-size="14.00">&#45; apply_op(&amp;mut self, op: OpMove&lt;ID, TM, A&gt;)</text>
<text text-anchor="start" x="872" y="-94.3" font-family="Arial" font-size="14.00">&#45; apply_ops(&amp;mut self, ops: Vec&lt;OpMove&lt;ID, TM, A&gt;&gt;)</text>
<text text-anchor="start" x="872" y="-79.3" font-family="Arial" font-size="14.00">&#45; apply_ops_byref(&amp;mut self, ops: &amp;[OpMove&lt;ID, TM, A&gt;])</text>
<text text-anchor="start" x="872" y="-64.3" font-family="Arial" font-size="14.00">&#45; apply_log_op(&amp;mut self, log_op: LogOpMove&lt;ID, TM, A&gt;)</text>
<text text-anchor="start" x="872" y="-49.3" font-family="Arial" font-size="14.00">&#45; apply_log_ops(&amp;mut self, log_ops: Vec&lt;LogOpMove&lt;ID, TM, A&gt;&gt;)</text>
<text text-anchor="start" x="872" y="-34.3" font-family="Arial" font-size="14.00">&#45; causally_stable_threshold(&amp;self) &#45;&gt; Option&lt;&amp;Clock&lt;A&gt;&gt;</text>
<text text-anchor="start" x="872" y="-19.3" font-family="Arial" font-size="14.00">&#45; truncate_log(&amp;mut self) &#45;&gt; bool</text>
<polygon fill="none" stroke="black" points="860,-4 860,-357 1398,-357 1398,-4 860,-4"/>
</g>
<!-- ndLogOpMove -->
<g id="node2" class="node"><title>ndLogOpMove</title>
<polygon fill="lightblue" stroke="none" points="647,-978 647,-1015 1265,-1015 1265,-978 647,-978"/>
<polygon fill="none" stroke="black" points="647,-978 647,-1015 1265,-1015 1265,-978 647,-978"/>
<text text-anchor="start" x="913" y="-993.8" font-family="Arial" font-weight="bold" font-size="14.00">LogOpMove</text>
<polygon fill="white" stroke="none" points="647,-926 647,-978 1265,-978 1265,-926 647,-926"/>
<polygon fill="none" stroke="black" points="647,-926 647,-978 1265,-978 1265,-926 647,-926"/>
<text text-anchor="start" x="658" y="-955.8" font-family="Arial" font-size="14.00">&#45; op: OpMove&lt;ID, TM, A&gt;</text>
<text text-anchor="start" x="658" y="-940.8" font-family="Arial" font-size="14.00">&#45; oldp: Option&lt;TreeNode&lt;ID, TM&gt;&gt;</text>
<polygon fill="white" stroke="none" points="647,-799 647,-926 1265,-926 1265,-799 647,-799"/>
<polygon fill="none" stroke="black" points="647,-799 647,-926 1265,-926 1265,-799 647,-799"/>
<text text-anchor="start" x="658" y="-903.8" font-family="Arial" font-size="14.00">&#45; new(op: OpMove&lt;ID, TM, A&gt;, oldp: Option&lt;TreeNode&lt;ID, TM&gt;&gt;) &#45;&gt; LogOpMove&lt;ID, TM, A&gt;</text>
<text text-anchor="start" x="658" y="-888.8" font-family="Arial" font-size="14.00">&#45; timestamp(&amp;self) &#45;&gt; &amp;Clock&lt;A&gt;</text>
<text text-anchor="start" x="658" y="-873.8" font-family="Arial" font-size="14.00">&#45; parent_id(&amp;self) &#45;&gt; &amp;ID</text>
<text text-anchor="start" x="658" y="-858.8" font-family="Arial" font-size="14.00">&#45; metadata(&amp;self) &#45;&gt; &amp;TM</text>
<text text-anchor="start" x="658" y="-843.8" font-family="Arial" font-size="14.00">&#45; child_id(&amp;self) &#45;&gt; &amp;ID</text>
<text text-anchor="start" x="658" y="-828.8" font-family="Arial" font-size="14.00">&#45; oldp(&amp;self) &#45;&gt; &amp;Option&lt;TreeNode&lt;ID, TM&gt;&gt;</text>
<text text-anchor="start" x="658" y="-813.8" font-family="Arial" font-size="14.00">&#45; op_into(self) &#45;&gt; OpMove&lt;ID, TM, A&gt;</text>
<polygon fill="none" stroke="black" points="646,-798 646,-1016 1266,-1016 1266,-798 646,-798"/>
</g>
<!-- ndState -->
<g id="node5" class="node"><title>ndState</title>
<polygon fill="lightblue" stroke="none" points="718,-671 718,-708 1195,-708 1195,-671 718,-671"/>
<polygon fill="none" stroke="black" points="718,-671 718,-708 1195,-708 1195,-671 718,-671"/>
<text text-anchor="start" x="938.5" y="-686.8" font-family="Arial" font-weight="bold" font-size="14.00">State</text>
<polygon fill="white" stroke="none" points="718,-619 718,-671 1195,-671 1195,-619 718,-619"/>
<polygon fill="none" stroke="black" points="718,-619 718,-671 1195,-671 1195,-619 718,-619"/>
<text text-anchor="start" x="729" y="-648.8" font-family="Arial" font-size="14.00">&#45; log_op_list: Vec&lt;LogOpMove&lt;ID, TM, A&gt;&gt;</text>
<text text-anchor="start" x="729" y="-633.8" font-family="Arial" font-size="14.00">&#45; tree: Tree&lt;ID, TM&gt;</text>
<polygon fill="white" stroke="none" points="718,-402 718,-619 1195,-619 1195,-402 718,-402"/>
<polygon fill="none" stroke="black" points="718,-402 718,-619 1195,-619 1195,-402 718,-402"/>
<text text-anchor="start" x="729" y="-596.8" font-family="Arial" font-size="14.00">&#45; new() &#45;&gt; Self</text>
<text text-anchor="start" x="729" y="-581.8" font-family="Arial" font-size="14.00">&#45; tree(&amp;self) &#45;&gt; &amp;Tree&lt;ID, TM&gt;</text>
<text text-anchor="start" x="729" y="-566.8" font-family="Arial" font-size="14.00">&#45; tree_mut(&amp;mut self) &#45;&gt; &amp;mut Tree&lt;ID, TM&gt;</text>
<text text-anchor="start" x="729" y="-551.8" font-family="Arial" font-size="14.00">&#45; log(&amp;self) &#45;&gt; &amp;Vec&lt;LogOpMove&lt;ID, TM, A&gt;&gt;</text>
<text text-anchor="start" x="729" y="-536.8" font-family="Arial" font-size="14.00">&#45; add_log_entry(&amp;mut self, entry: LogOpMove&lt;ID, TM, A&gt;)</text>
<text text-anchor="start" x="729" y="-521.8" font-family="Arial" font-size="14.00">&#45; truncate_log_before(&amp;mut self, timestamp: &amp;Clock&lt;A&gt;) &#45;&gt; bool</text>
<text text-anchor="start" x="729" y="-506.8" font-family="Arial" font-size="14.00">&#45; do_op(&amp;mut self, op: OpMove&lt;ID, TM, A&gt;) &#45;&gt; LogOpMove&lt;ID, TM, A&gt;</text>
<text text-anchor="start" x="729" y="-491.8" font-family="Arial" font-size="14.00">&#45; undo_op(&amp;mut self, log: &amp;LogOpMove&lt;ID, TM, A&gt;)</text>
<text text-anchor="start" x="729" y="-476.8" font-family="Arial" font-size="14.00">&#45; redo_op(&amp;mut self, log: LogOpMove&lt;ID, TM, A&gt;)</text>
<text text-anchor="start" x="729" y="-461.8" font-family="Arial" font-size="14.00">&#45; apply_op(&amp;mut self, op1: OpMove&lt;ID, TM, A&gt;)</text>
<text text-anchor="start" x="729" y="-446.8" font-family="Arial" font-size="14.00">&#45; apply_ops_into(&amp;mut self, ops: Vec&lt;OpMove&lt;ID, TM, A&gt;&gt;)</text>
<text text-anchor="start" x="729" y="-431.8" font-family="Arial" font-size="14.00">&#45; apply_ops(&amp;mut self, ops: &amp;[OpMove&lt;ID, TM, A&gt;])</text>
<text text-anchor="start" x="729" y="-416.8" font-family="Arial" font-size="14.00">&#45; default() &#45;&gt; Self</text>
<polygon fill="none" stroke="black" points="716.5,-401 716.5,-709 1195.5,-709 1195.5,-401 716.5,-401"/>
</g>
<!-- ndLogOpMove&#45;&gt;ndState -->
<g id="edge1" class="edge"><title>ndLogOpMove&#45;&gt;ndState</title>
<path fill="none" stroke="black" d="M956,-793.814C956,-771.934 956,-748.544 956,-725.289"/>
<polygon fill="black" stroke="black" points="956,-725.149 952,-719.149 956,-713.149 960,-719.149 956,-725.149"/>
</g>
<!-- ndOpMove -->
<g id="node3" class="node"><title>ndOpMove</title>
<polygon fill="lightblue" stroke="none" points="921,-1315 921,-1352 1430,-1352 1430,-1315 921,-1315"/>
<polygon fill="none" stroke="black" points="921,-1315 921,-1352 1430,-1352 1430,-1315 921,-1315"/>
<text text-anchor="start" x="1146" y="-1330.8" font-family="Arial" font-weight="bold" font-size="14.00">OpMove</text>
<polygon fill="white" stroke="none" points="921,-1233 921,-1315 1430,-1315 1430,-1233 921,-1233"/>
<polygon fill="none" stroke="black" points="921,-1233 921,-1315 1430,-1315 1430,-1233 921,-1233"/>
<text text-anchor="start" x="932" y="-1292.8" font-family="Arial" font-size="14.00">&#45; timestamp: Clock&lt;A&gt;</text>
<text text-anchor="start" x="932" y="-1277.8" font-family="Arial" font-size="14.00">&#45; parent_id: ID</text>
<text text-anchor="start" x="932" y="-1262.8" font-family="Arial" font-size="14.00">&#45; metadata: TM</text>
<text text-anchor="start" x="932" y="-1247.8" font-family="Arial" font-size="14.00">&#45; child_id: ID</text>
<polygon fill="white" stroke="none" points="921,-1106 921,-1233 1430,-1233 1430,-1106 921,-1106"/>
<polygon fill="none" stroke="black" points="921,-1106 921,-1233 1430,-1233 1430,-1106 921,-1106"/>
<text text-anchor="start" x="932" y="-1210.8" font-family="Arial" font-size="14.00">&#45; new(timestamp: Clock&lt;A&gt;, parent_id: ID, metadata: TM, child_id: ID) &#45;&gt; Self</text>
<text text-anchor="start" x="932" y="-1195.8" font-family="Arial" font-size="14.00">&#45; timestamp(&amp;self) &#45;&gt; &amp;Clock&lt;A&gt;</text>
<text text-anchor="start" x="932" y="-1180.8" font-family="Arial" font-size="14.00">&#45; parent_id(&amp;self) &#45;&gt; &amp;ID</text>
<text text-anchor="start" x="932" y="-1165.8" font-family="Arial" font-size="14.00">&#45; metadata(&amp;self) &#45;&gt; &amp;TM</text>
<text text-anchor="start" x="932" y="-1150.8" font-family="Arial" font-size="14.00">&#45; child_id(&amp;self) &#45;&gt; &amp;ID</text>
<text text-anchor="start" x="932" y="-1135.8" font-family="Arial" font-size="14.00">&#45; from(l: LogOpMove&lt;ID, TM, A&gt;) &#45;&gt; Self</text>
<text text-anchor="start" x="932" y="-1120.8" font-family="Arial" font-size="14.00">&#45; arbitrary(g: &amp;mut G) &#45;&gt; Self</text>
<polygon fill="none" stroke="black" points="919.5,-1105 919.5,-1353 1430.5,-1353 1430.5,-1105 919.5,-1105"/>
</g>
<!-- ndOpMove&#45;&gt;ndTreeReplica -->
<g id="edge2" class="edge"><title>ndOpMove&#45;&gt;ndTreeReplica</title>
<path fill="none" stroke="black" d="M1268.93,-1100.63C1274.55,-1088.98 1279.38,-1077.03 1283,-1065 1353.48,-831.029 1279.66,-551.881 1211.99,-370.883"/>
<polygon fill="black" stroke="black" points="1208.36,-361.262 1216.1,-369.033 1210.12,-365.941 1211.89,-370.62 1211.89,-370.62 1211.89,-370.62 1210.12,-365.941 1207.68,-372.207 1208.36,-361.262 1208.36,-361.262"/>
</g>
<!-- ndOpMove&#45;&gt;ndLogOpMove -->
<g id="edge3" class="edge"><title>ndOpMove&#45;&gt;ndLogOpMove</title>
<path fill="none" stroke="black" d="M1087.82,-1100.61C1071.97,-1077.45 1055.47,-1053.35 1039.73,-1030.35"/>
<polygon fill="black" stroke="black" points="1039.57,-1030.12 1032.88,-1027.42 1032.8,-1020.21 1039.49,-1022.91 1039.57,-1030.12"/>
</g>
<!-- ndTreeMeta -->
<g id="node4" class="node"><title>ndTreeMeta</title>
<polygon fill="lightgreen" stroke="none" points="1539,-1570.5 1539,-1607.5 1627,-1607.5 1627,-1570.5 1539,-1570.5"/>
<polygon fill="none" stroke="black" points="1539,-1570.5 1539,-1607.5 1627,-1607.5 1627,-1570.5 1539,-1570.5"/>
<text text-anchor="start" x="1550" y="-1586.3" font-family="Arial" font-weight="bold" font-size="14.00">TreeMeta</text>
<polygon fill="white" stroke="none" points="1539,-1532.5 1539,-1570.5 1627,-1570.5 1627,-1532.5 1539,-1532.5"/>
<polygon fill="none" stroke="black" points="1539,-1532.5 1539,-1570.5 1627,-1570.5 1627,-1532.5 1539,-1532.5"/>
<polygon fill="white" stroke="none" points="1539,-1494.5 1539,-1532.5 1627,-1532.5 1627,-1494.5 1539,-1494.5"/>
<polygon fill="none" stroke="black" points="1539,-1494.5 1539,-1532.5 1627,-1532.5 1627,-1494.5 1539,-1494.5"/>
<polygon fill="none" stroke="black" points="1538,-1494 1538,-1609 1628,-1609 1628,-1494 1538,-1494"/>
</g>
<!-- ndState&#45;&gt;ndTreeReplica -->
<g id="edge4" class="edge"><title>ndState&#45;&gt;ndTreeReplica</title>
<path fill="none" stroke="black" d="M1028.99,-396.836C1032.81,-388.616 1036.66,-380.318 1040.52,-372.009"/>
<polygon fill="black" stroke="black" points="1040.54,-371.968 1039.44,-364.842 1045.6,-361.085 1046.7,-368.212 1040.54,-371.968"/>
</g>
<!-- ndClock -->
<g id="node6" class="node"><title>ndClock</title>
<polygon fill="lightblue" stroke="none" points="1140,-1667.5 1140,-1704.5 1503,-1704.5 1503,-1667.5 1140,-1667.5"/>
<polygon fill="none" stroke="black" points="1140,-1667.5 1140,-1704.5 1503,-1704.5 1503,-1667.5 1140,-1667.5"/>
<text text-anchor="start" x="1301.5" y="-1683.3" font-family="Arial" font-weight="bold" font-size="14.00">Clock</text>
<polygon fill="white" stroke="none" points="1140,-1615.5 1140,-1667.5 1503,-1667.5 1503,-1615.5 1140,-1615.5"/>
<polygon fill="none" stroke="black" points="1140,-1615.5 1140,-1667.5 1503,-1667.5 1503,-1615.5 1140,-1615.5"/>
<text text-anchor="start" x="1151" y="-1645.3" font-family="Arial" font-size="14.00">&#45; actor_id: A</text>
<text text-anchor="start" x="1151" y="-1630.3" font-family="Arial" font-size="14.00">&#45; counter: u64</text>
<polygon fill="white" stroke="none" points="1140,-1397.5 1140,-1615.5 1503,-1615.5 1503,-1397.5 1140,-1397.5"/>
<polygon fill="none" stroke="black" points="1140,-1397.5 1140,-1615.5 1503,-1615.5 1503,-1397.5 1140,-1397.5"/>
<text text-anchor="start" x="1151" y="-1593.3" font-family="Arial" font-size="14.00">&#45; new(actor_id: A, counter: Option&lt;u64&gt;) &#45;&gt; Self</text>
<text text-anchor="start" x="1151" y="-1578.3" font-family="Arial" font-size="14.00">&#45; inc(&amp;self) &#45;&gt; Self</text>
<text text-anchor="start" x="1151" y="-1563.3" font-family="Arial" font-size="14.00">&#45; tick(&amp;mut self) &#45;&gt; Self</text>
<text text-anchor="start" x="1151" y="-1548.3" font-family="Arial" font-size="14.00">&#45; actor_id(&amp;self) &#45;&gt; &amp;A</text>
<text text-anchor="start" x="1151" y="-1533.3" font-family="Arial" font-size="14.00">&#45; counter(&amp;self) &#45;&gt; u64</text>
<text text-anchor="start" x="1151" y="-1518.3" font-family="Arial" font-size="14.00">&#45; merge(&amp;self, other: &amp;Self) &#45;&gt; Self</text>
<text text-anchor="start" x="1151" y="-1503.3" font-family="Arial" font-size="14.00">&#45; cmp(&amp;self, other: &amp;Self) &#45;&gt; Ordering</text>
<text text-anchor="start" x="1151" y="-1488.3" font-family="Arial" font-size="14.00">&#45; partial_cmp(&amp;self, other: &amp;Self) &#45;&gt; Option&lt;Ordering&gt;</text>
<text text-anchor="start" x="1151" y="-1473.3" font-family="Arial" font-size="14.00">&#45; eq(&amp;self, other: &amp;Self) &#45;&gt; bool</text>
<text text-anchor="start" x="1151" y="-1441.5" font-family="Arial" font-size="14.00">&#45; hash(&amp;self, state: &amp;mut H)</text>
<text text-anchor="start" x="1151" y="-1426.5" font-family="Arial" font-size="14.00">&#45; arbitrary(g: &amp;mut G) &#45;&gt; Self</text>
<text text-anchor="start" x="1151" y="-1411.5" font-family="Arial" font-size="14.00">&#45; shrink(&amp;self) &#45;&gt; Box&lt;dyn Iterator&lt;Item = Self&gt;&gt;</text>
<polygon fill="none" stroke="black" points="1138.5,-1397 1138.5,-1706 1503.5,-1706 1503.5,-1397 1138.5,-1397"/>
</g>
<!-- ndClock&#45;&gt;ndTreeReplica -->
<g id="edge5" class="edge"><title>ndClock&#45;&gt;ndTreeReplica</title>
<path fill="none" stroke="black" d="M1433.45,-1393C1438.79,-1381.16 1443.41,-1369.11 1447,-1357 1479.38,-1247.93 1460.37,-1213.99 1447,-1101 1409.18,-781.452 1409.29,-690.777 1278,-397 1274.29,-388.699 1270.25,-380.38 1265.96,-372.097"/>
<polygon fill="black" stroke="black" points="1265.81,-371.824 1259.46,-368.409 1260.17,-361.233 1266.52,-364.648 1265.81,-371.824"/>
</g>
<!-- ndClock&#45;&gt;ndOpMove -->
<g id="edge6" class="edge"><title>ndClock&#45;&gt;ndOpMove</title>
<path fill="none" stroke="black" d="M1249.07,-1392.6C1245.36,-1384.45 1241.64,-1376.29 1237.96,-1368.22"/>
<polygon fill="black" stroke="black" points="1237.94,-1368.17 1231.82,-1364.37 1232.97,-1357.25 1239.1,-1361.06 1237.94,-1368.17"/>
</g>
<!-- ndTree -->
<g id="node7" class="node"><title>ndTree</title>
<polygon fill="lightblue" stroke="none" points="9,-1023 9,-1060 611,-1060 611,-1023 9,-1023"/>
<polygon fill="none" stroke="black" points="9,-1023 9,-1060 611,-1060 611,-1023 9,-1023"/>
<text text-anchor="start" x="294" y="-1038.8" font-family="Arial" font-weight="bold" font-size="14.00">Tree</text>
<polygon fill="white" stroke="none" points="9,-971 9,-1023 611,-1023 611,-971 9,-971"/>
<polygon fill="none" stroke="black" points="9,-971 9,-1023 611,-1023 611,-971 9,-971"/>
<text text-anchor="start" x="20" y="-1000.8" font-family="Arial" font-size="14.00">&#45; triples: HashMap&lt;ID, TreeNode&lt;ID, TM&gt;&gt;</text>
<text text-anchor="start" x="20" y="-985.8" font-family="Arial" font-size="14.00">&#45; children: HashMap&lt;ID, HashSet&lt;ID&gt;&gt;</text>
<polygon fill="white" stroke="none" points="9,-754 9,-971 611,-971 611,-754 9,-754"/>
<polygon fill="none" stroke="black" points="9,-754 9,-971 611,-971 611,-754 9,-754"/>
<text text-anchor="start" x="20" y="-948.8" font-family="Arial" font-size="14.00">&#45; new() &#45;&gt; Self</text>
<text text-anchor="start" x="20" y="-933.8" font-family="Arial" font-size="14.00">&#45; rm_child(&amp;mut self, child_id: &amp;ID)</text>
<text text-anchor="start" x="20" y="-918.8" font-family="Arial" font-size="14.00">&#45; rm_subtree(&amp;mut self, parent_id: &amp;ID, include_parent: bool)</text>
<text text-anchor="start" x="20" y="-903.8" font-family="Arial" font-size="14.00">&#45; add_node(&amp;mut self, child_id: ID, tt: TreeNode&lt;ID, TM&gt;)</text>
<text text-anchor="start" x="20" y="-888.8" font-family="Arial" font-size="14.00">&#45; find(&amp;self, child_id: &amp;ID) &#45;&gt; Option&lt;&amp;TreeNode&lt;ID, TM&gt;&gt;</text>
<text text-anchor="start" x="20" y="-873.8" font-family="Arial" font-size="14.00">&#45; children(&amp;self, parent_id: &amp;ID) &#45;&gt; Vec&lt;ID&gt;</text>
<text text-anchor="start" x="20" y="-858.8" font-family="Arial" font-size="14.00">&#45; walk(&amp;self, parent_id: &amp;ID, mut f: F)</text>
<text text-anchor="start" x="20" y="-843.8" font-family="Arial" font-size="14.00">&#45; is_ancestor(&amp;self, child_id: &amp;ID, ancestor_id: &amp;ID) &#45;&gt; bool</text>
<text text-anchor="start" x="20" y="-828.8" font-family="Arial" font-size="14.00">&#45; num_nodes(&amp;self) &#45;&gt; usize</text>
<text text-anchor="start" x="20" y="-813.8" font-family="Arial" font-size="14.00">&#45; into_iter(self) &#45;&gt; Self::IntoIter</text>
<text text-anchor="start" x="20" y="-798.8" font-family="Arial" font-size="14.00">&#45; fmt(&amp;self, f: &amp;mut fmt::Formatter&lt;&#39;_&gt;) &#45;&gt; fmt::Result</text>
<text text-anchor="start" x="20" y="-783.8" font-family="Arial" font-size="14.00">&#45; print_treenode(&amp;self, f: &amp;mut fmt::Formatter&lt;&#39;_&gt;, node_id: &amp;ID, depth: usize) &#45;&gt; fmt::Result</text>
<text text-anchor="start" x="20" y="-768.8" font-family="Arial" font-size="14.00">&#45; print_tree(&amp;self, f: &amp;mut fmt::Formatter&lt;&#39;_&gt;) &#45;&gt; fmt::Result</text>
<polygon fill="none" stroke="black" points="8,-753 8,-1061 612,-1061 612,-753 8,-753"/>
</g>
<!-- ndTree&#45;&gt;ndTreeReplica -->
<g id="edge7" class="edge"><title>ndTree&#45;&gt;ndTreeReplica</title>
<path fill="none" stroke="black" d="M402.966,-748.924C473.582,-639.714 578.837,-496.46 699,-397 742.237,-361.213 792.412,-329.362 842.901,-301.848"/>
<polygon fill="black" stroke="black" points="851.997,-296.939 845.334,-305.648 847.597,-299.314 843.197,-301.688 843.197,-301.688 843.197,-301.688 847.597,-299.314 841.06,-297.728 851.997,-296.939 851.997,-296.939"/>
</g>
<!-- ndTree&#45;&gt;ndState -->
<g id="edge8" class="edge"><title>ndTree&#45;&gt;ndState</title>
<path fill="none" stroke="black" d="M599.931,-748.916C632.477,-731.283 665.476,-713.405 697.587,-696.007"/>
<polygon fill="black" stroke="black" points="697.889,-695.843 701.259,-689.468 708.44,-690.127 705.07,-696.502 697.889,-695.843"/>
</g>
<!-- ndTreeId -->
<g id="node8" class="node"><title>ndTreeId</title>
<polygon fill="lightgreen" stroke="none" points="1664,-1570.5 1664,-1607.5 1731,-1607.5 1731,-1570.5 1664,-1570.5"/>
<polygon fill="none" stroke="black" points="1664,-1570.5 1664,-1607.5 1731,-1607.5 1731,-1570.5 1664,-1570.5"/>
<text text-anchor="start" x="1675" y="-1586.3" font-family="Arial" font-weight="bold" font-size="14.00">TreeId</text>
<polygon fill="white" stroke="none" points="1664,-1532.5 1664,-1570.5 1731,-1570.5 1731,-1532.5 1664,-1532.5"/>
<polygon fill="none" stroke="black" points="1664,-1532.5 1664,-1570.5 1731,-1570.5 1731,-1532.5 1664,-1532.5"/>
<polygon fill="white" stroke="none" points="1664,-1494.5 1664,-1532.5 1731,-1532.5 1731,-1494.5 1664,-1494.5"/>
<polygon fill="none" stroke="black" points="1664,-1494.5 1664,-1532.5 1731,-1532.5 1731,-1494.5 1664,-1494.5"/>
<polygon fill="none" stroke="black" points="1662.5,-1494 1662.5,-1609 1731.5,-1609 1731.5,-1494 1662.5,-1494"/>
</g>
<!-- ndTreeNode -->
<g id="node9" class="node"><title>ndTreeNode</title>
<polygon fill="lightblue" stroke="none" points="598,-1270 598,-1307 885,-1307 885,-1270 598,-1270"/>
<polygon fill="none" stroke="black" points="598,-1270 598,-1307 885,-1307 885,-1270 598,-1270"/>
<text text-anchor="start" x="707.5" y="-1285.8" font-family="Arial" font-weight="bold" font-size="14.00">TreeNode</text>
<polygon fill="white" stroke="none" points="598,-1218 598,-1270 885,-1270 885,-1218 598,-1218"/>
<polygon fill="none" stroke="black" points="598,-1218 598,-1270 885,-1270 885,-1218 598,-1218"/>
<text text-anchor="start" x="609" y="-1247.8" font-family="Arial" font-size="14.00">&#45; parent_id: ID</text>
<text text-anchor="start" x="609" y="-1232.8" font-family="Arial" font-size="14.00">&#45; metadata: TM</text>
<polygon fill="white" stroke="none" points="598,-1151 598,-1218 885,-1218 885,-1151 598,-1151"/>
<polygon fill="none" stroke="black" points="598,-1151 598,-1218 885,-1218 885,-1151 598,-1151"/>
<text text-anchor="start" x="609" y="-1195.8" font-family="Arial" font-size="14.00">&#45; new(parent_id: ID, metadata: TM) &#45;&gt; Self</text>
<text text-anchor="start" x="609" y="-1180.8" font-family="Arial" font-size="14.00">&#45; parent_id(&amp;self) &#45;&gt; &amp;ID</text>
<text text-anchor="start" x="609" y="-1165.8" font-family="Arial" font-size="14.00">&#45; metadata(&amp;self) &#45;&gt; &amp;TM</text>
<polygon fill="none" stroke="black" points="596.5,-1150 596.5,-1308 885.5,-1308 885.5,-1150 596.5,-1150"/>
</g>
<!-- ndTreeNode&#45;&gt;ndLogOpMove -->
<g id="edge9" class="edge"><title>ndTreeNode&#45;&gt;ndLogOpMove</title>
<path fill="none" stroke="black" d="M796.368,-1145.59C819.896,-1110.57 847.82,-1069.01 873.683,-1030.52"/>
<polygon fill="black" stroke="black" points="873.87,-1030.24 873.896,-1023.03 880.563,-1020.28 880.537,-1027.49 873.87,-1030.24"/>
</g>
</g>
</svg>
