<?xml version="1.0" encoding="UTF-8" standalone="no"?>
<!DOCTYPE svg PUBLIC "-//W3C//DTD SVG 1.1//EN"
 "http://www.w3.org/Graphics/SVG/1.1/DTD/svg11.dtd">
<!-- Generated by graphviz version 2.38.0 (20140413.2041)
 -->
<!-- Title: ml Pages: 1 -->
<svg width="539pt" height="387pt"
 viewBox="0.00 0.00 538.50 387.00" xmlns="http://www.w3.org/2000/svg" xmlns:xlink="http://www.w3.org/1999/xlink">
<g id="graph0" class="graph" transform="scale(1 1) rotate(0) translate(4 383)">
<title>ml</title>
<polygon fill="white" stroke="none" points="-4,4 -4,-383 534.5,-383 534.5,4 -4,4"/>
<!-- ndTreeReplica -->
<g id="node1" class="node"><title>ndTreeReplica</title>
<polygon fill="lightblue" stroke="none" points="146,-4.5 146,-41.5 251,-41.5 251,-4.5 146,-4.5"/>
<polygon fill="none" stroke="black" points="146,-4.5 146,-41.5 251,-41.5 251,-4.5 146,-4.5"/>
<text text-anchor="start" x="157" y="-20.3" font-family="Arial" font-weight="bold" font-size="14.00">TreeReplica</text>
<polygon fill="none" stroke="black" points="144.5,-4 144.5,-43 251.5,-43 251.5,-4 144.5,-4"/>
</g>
<!-- ndLogOpMove -->
<g id="node2" class="node"><title>ndLogOpMove</title>
<polygon fill="lightblue" stroke="none" points="99,-170.5 99,-207.5 207,-207.5 207,-170.5 99,-170.5"/>
<polygon fill="none" stroke="black" points="99,-170.5 99,-207.5 207,-207.5 207,-170.5 99,-170.5"/>
<text text-anchor="start" x="110" y="-186.3" font-family="Arial" font-weight="bold" font-size="14.00">LogOpMove</text>
<polygon fill="none" stroke="black" points="98,-170 98,-209 208,-209 208,-170 98,-170"/>
</g>
<!-- ndState -->
<g id="node5" class="node"><title>ndState</title>
<polygon fill="lightblue" stroke="none" points="124,-87.5 124,-124.5 182,-124.5 182,-87.5 124,-87.5"/>
<polygon fill="none" stroke="black" points="124,-87.5 124,-124.5 182,-124.5 182,-87.5 124,-87.5"/>
<text text-anchor="start" x="135" y="-103.3" font-family="Arial" font-weight="bold" font-size="14.00">State</text>
<polygon fill="none" stroke="black" points="123,-87 123,-126 183,-126 183,-87 123,-87"/>
</g>
<!-- ndLogOpMove&#45;&gt;ndState -->
<g id="edge1" class="edge"><title>ndLogOpMove&#45;&gt;ndState</title>
<path fill="none" stroke="black" d="M153,-165.937C153,-158.626 153,-150.337 153,-142.348"/>
<polygon fill="black" stroke="black" points="153,-142.223 149,-136.223 153,-130.223 157,-136.223 153,-142.223"/>
</g>
<!-- ndOpMove -->
<g id="node3" class="node"><title>ndOpMove</title>
<polygon fill="lightblue" stroke="none" points="184,-253.5 184,-290.5 265,-290.5 265,-253.5 184,-253.5"/>
<polygon fill="none" stroke="black" points="184,-253.5 184,-290.5 265,-290.5 265,-253.5 184,-253.5"/>
<text text-anchor="start" x="195" y="-269.3" font-family="Arial" font-weight="bold" font-size="14.00">OpMove</text>
<polygon fill="none" stroke="black" points="182.5,-253 182.5,-292 265.5,-292 265.5,-253 182.5,-253"/>
</g>
<!-- ndOpMove&#45;&gt;ndTreeReplica -->
<g id="edge2" class="edge"><title>ndOpMove&#45;&gt;ndTreeReplica</title>
<path fill="none" stroke="black" d="M224.474,-249C224.681,-238.125 224.898,-224.884 225,-213 225.179,-192.112 226.966,-186.796 225,-166 221.436,-128.303 212.643,-85.7007 206.053,-57.1818"/>
<polygon fill="black" stroke="black" points="203.739,-47.3472 210.41,-56.0504 204.884,-52.2142 206.03,-57.0813 206.03,-57.0813 206.03,-57.0813 204.884,-52.2142 201.649,-58.1122 203.739,-47.3472 203.739,-47.3472"/>
</g>
<!-- ndOpMove&#45;&gt;ndLogOpMove -->
<g id="edge3" class="edge"><title>ndOpMove&#45;&gt;ndLogOpMove</title>
<path fill="none" stroke="black" d="M204.223,-248.937C197.051,-240.755 188.807,-231.35 181.058,-222.509"/>
<polygon fill="black" stroke="black" points="180.828,-222.247 173.865,-220.372 172.918,-213.223 179.881,-215.098 180.828,-222.247"/>
</g>
<!-- ndTreeMeta -->
<g id="node4" class="node"><title>ndTreeMeta</title>
<polygon fill="lightgreen" stroke="none" points="330,-336.5 330,-373.5 418,-373.5 418,-336.5 330,-336.5"/>
<polygon fill="none" stroke="black" points="330,-336.5 330,-373.5 418,-373.5 418,-336.5 330,-336.5"/>
<text text-anchor="start" x="341" y="-352.3" font-family="Arial" font-weight="bold" font-size="14.00">TreeMeta</text>
<polygon fill="none" stroke="black" points="329,-336 329,-375 419,-375 419,-336 329,-336"/>
</g>
<!-- ndState&#45;&gt;ndTreeReplica -->
<g id="edge4" class="edge"><title>ndState&#45;&gt;ndTreeReplica</title>
<path fill="none" stroke="black" d="M165.535,-82.937C169.839,-75.1905 174.752,-66.3468 179.431,-57.9245"/>
<polygon fill="black" stroke="black" points="179.548,-57.7128 178.966,-50.5253 185.376,-47.2229 185.959,-54.4105 179.548,-57.7128"/>
</g>
<!-- ndClock -->
<g id="node6" class="node"><title>ndClock</title>
<polygon fill="lightblue" stroke="none" points="232,-336.5 232,-373.5 294,-373.5 294,-336.5 232,-336.5"/>
<polygon fill="none" stroke="black" points="232,-336.5 232,-373.5 294,-373.5 294,-336.5 232,-336.5"/>
<text text-anchor="start" x="243" y="-352.3" font-family="Arial" font-weight="bold" font-size="14.00">Clock</text>
<polygon fill="none" stroke="black" points="231,-336 231,-375 295,-375 295,-336 231,-336"/>
</g>
<!-- ndClock&#45;&gt;ndTreeReplica -->
<g id="edge5" class="edge"><title>ndClock&#45;&gt;ndTreeReplica</title>
<path fill="none" stroke="black" d="M272.195,-331.848C276.05,-321.166 280.08,-308.129 282,-296 285.266,-275.368 285.102,-269.657 282,-249 270.54,-172.674 261.47,-153.912 231,-83 227.392,-74.6033 222.9,-65.8647 218.404,-57.7807"/>
<polygon fill="black" stroke="black" points="218.334,-57.6591 211.875,-54.4516 212.352,-47.2563 218.811,-50.4638 218.334,-57.6591"/>
</g>
<!-- ndClock&#45;&gt;ndOpMove -->
<g id="edge6" class="edge"><title>ndClock&#45;&gt;ndOpMove</title>
<path fill="none" stroke="black" d="M252.136,-331.937C248.448,-324.278 244.244,-315.545 240.23,-307.209"/>
<polygon fill="black" stroke="black" points="240.147,-307.035 233.94,-303.364 234.941,-296.223 241.148,-299.894 240.147,-307.035"/>
</g>
<!-- ndTree -->
<g id="node7" class="node"><title>ndTree</title>
<polygon fill="lightblue" stroke="none" points="9,-170.5 9,-207.5 63,-207.5 63,-170.5 9,-170.5"/>
<polygon fill="none" stroke="black" points="9,-170.5 9,-207.5 63,-207.5 63,-170.5 9,-170.5"/>
<text text-anchor="start" x="20" y="-186.3" font-family="Arial" font-weight="bold" font-size="14.00">Tree</text>
<polygon fill="none" stroke="black" points="8,-170 8,-209 64,-209 64,-170 8,-170"/>
</g>
<!-- ndTree&#45;&gt;ndTreeReplica -->
<g id="edge7" class="edge"><title>ndTree&#45;&gt;ndTreeReplica</title>
<path fill="none" stroke="black" d="M47.3265,-165.935C59.5612,-143.119 80.7339,-107.78 106,-83 117.75,-71.4759 132.132,-61.0312 146.003,-52.2622"/>
<polygon fill="black" stroke="black" points="154.545,-47.0242 148.372,-56.088 150.282,-49.638 146.02,-52.2518 146.02,-52.2518 146.02,-52.2518 150.282,-49.638 143.668,-48.4156 154.545,-47.0242 154.545,-47.0242"/>
</g>
<!-- ndTree&#45;&gt;ndState -->
<g id="edge8" class="edge"><title>ndTree&#45;&gt;ndState</title>
<path fill="none" stroke="black" d="M68.591,-165.937C81.4148,-157.059 96.3201,-146.74 110.005,-137.266"/>
<polygon fill="black" stroke="black" points="110.312,-137.054 112.968,-130.349 120.178,-130.223 117.522,-136.927 110.312,-137.054"/>
</g>
<!-- ndTreeId -->
<g id="node8" class="node"><title>ndTreeId</title>
<polygon fill="lightgreen" stroke="none" points="455,-336.5 455,-373.5 522,-373.5 522,-336.5 455,-336.5"/>
<polygon fill="none" stroke="black" points="455,-336.5 455,-373.5 522,-373.5 522,-336.5 455,-336.5"/>
<text text-anchor="start" x="466" y="-352.3" font-family="Arial" font-weight="bold" font-size="14.00">TreeId</text>
<polygon fill="none" stroke="black" points="453.5,-336 453.5,-375 522.5,-375 522.5,-336 453.5,-336"/>
</g>
<!-- ndTreeNode -->
<g id="node9" class="node"><title>ndTreeNode</title>
<polygon fill="lightblue" stroke="none" points="57,-253.5 57,-290.5 147,-290.5 147,-253.5 57,-253.5"/>
<polygon fill="none" stroke="black" points="57,-253.5 57,-290.5 147,-290.5 147,-253.5 57,-253.5"/>
<text text-anchor="start" x="68" y="-269.3" font-family="Arial" font-weight="bold" font-size="14.00">TreeNode</text>
<polygon fill="none" stroke="black" points="56,-253 56,-292 148,-292 148,-253 56,-253"/>
</g>
<!-- ndTreeNode&#45;&gt;ndLogOpMove -->
<g id="edge9" class="edge"><title>ndTreeNode&#45;&gt;ndLogOpMove</title>
<path fill="none" stroke="black" d="M116.206,-248.937C121.139,-241.103 126.777,-232.148 132.134,-223.641"/>
<polygon fill="black" stroke="black" points="132.299,-223.378 132.111,-216.169 138.693,-213.223 138.881,-220.432 132.299,-223.378"/>
</g>
</g>
</svg>
