<?xml version="1.0" encoding="UTF-8" standalone="no"?>
<!DOCTYPE svg PUBLIC "-//W3C//DTD SVG 1.1//EN"
 "http://www.w3.org/Graphics/SVG/1.1/DTD/svg11.dtd">
<!-- Generated by graphviz version 2.38.0 (20140413.2041)
 -->
<!-- Title: ml Pages: 1 -->
<svg width="947pt" height="692pt"
 viewBox="0.00 0.00 946.50 692.00" xmlns="http://www.w3.org/2000/svg" xmlns:xlink="http://www.w3.org/1999/xlink">
<g id="graph0" class="graph" transform="scale(1 1) rotate(0) translate(4 688)">
<title>ml</title>
<polygon fill="white" stroke="none" points="-4,4 -4,-688 942.5,-688 942.5,4 -4,4"/>
<!-- ndTreeReplica -->
<g id="node1" class="node"><title>ndTreeReplica</title>
<polygon fill="lightblue" stroke="none" points="365,-72 365,-109 701,-109 701,-72 365,-72"/>
<polygon fill="none" stroke="black" points="365,-72 365,-109 701,-109 701,-72 365,-72"/>
<text text-anchor="start" x="491.5" y="-87.8" font-family="Arial" font-weight="bold" font-size="14.00">TreeReplica</text>
<polygon fill="white" stroke="none" points="365,-5 365,-72 701,-72 701,-5 365,-5"/>
<polygon fill="none" stroke="black" points="365,-5 365,-72 701,-72 701,-5 365,-5"/>
<text text-anchor="start" x="376" y="-49.8" font-family="Arial" font-size="14.00">&#45; state: State&lt;ID, TM, A&gt;</text>
<text text-anchor="start" x="376" y="-34.8" font-family="Arial" font-size="14.00">&#45; time: Clock&lt;A&gt;</text>
<text text-anchor="start" x="376" y="-19.8" font-family="Arial" font-size="14.00">&#45; latest_time_by_replica: HashMap&lt;A, Clock&lt;A&gt;&gt;</text>
<polygon fill="none" stroke="black" points="364,-4 364,-110 702,-110 702,-4 364,-4"/>
</g>
<!-- ndLogOpMove -->
<g id="node2" class="node"><title>ndLogOpMove</title>
<polygon fill="lightblue" stroke="none" points="343,-341.5 343,-378.5 591,-378.5 591,-341.5 343,-341.5"/>
<polygon fill="none" stroke="black" points="343,-341.5 343,-378.5 591,-378.5 591,-341.5 343,-341.5"/>
<text text-anchor="start" x="424" y="-357.3" font-family="Arial" font-weight="bold" font-size="14.00">LogOpMove</text>
<polygon fill="white" stroke="none" points="343,-289.5 343,-341.5 591,-341.5 591,-289.5 343,-289.5"/>
<polygon fill="none" stroke="black" points="343,-289.5 343,-341.5 591,-341.5 591,-289.5 343,-289.5"/>
<text text-anchor="start" x="354" y="-319.3" font-family="Arial" font-size="14.00">&#45; op: OpMove&lt;ID, TM, A&gt;</text>
<text text-anchor="start" x="354" y="-304.3" font-family="Arial" font-size="14.00">&#45; oldp: Option&lt;TreeNode&lt;ID, TM&gt;&gt;</text>
<polygon fill="none" stroke="black" points="342,-289 342,-380 592,-380 592,-289 342,-289"/>
</g>
<!-- ndState -->
<g id="node5" class="node"><title>ndState</title>
<polygon fill="lightblue" stroke="none" points="287,-206.5 287,-243.5 591,-243.5 591,-206.5 287,-206.5"/>
<polygon fill="none" stroke="black" points="287,-206.5 287,-243.5 591,-243.5 591,-206.5 287,-206.5"/>
<text text-anchor="start" x="421" y="-222.3" font-family="Arial" font-weight="bold" font-size="14.00">State</text>
<polygon fill="white" stroke="none" points="287,-154.5 287,-206.5 591,-206.5 591,-154.5 287,-154.5"/>
<polygon fill="none" stroke="black" points="287,-154.5 287,-206.5 591,-206.5 591,-154.5 287,-154.5"/>
<text text-anchor="start" x="298" y="-184.3" font-family="Arial" font-size="14.00">&#45; log_op_list: Vec&lt;LogOpMove&lt;ID, TM, A&gt;&gt;</text>
<text text-anchor="start" x="298" y="-169.3" font-family="Arial" font-size="14.00">&#45; tree: Tree&lt;ID, TM&gt;</text>
<polygon fill="none" stroke="black" points="286,-154 286,-245 592,-245 592,-154 286,-154"/>
</g>
<!-- ndLogOpMove&#45;&gt;ndState -->
<g id="edge1" class="edge"><title>ndLogOpMove&#45;&gt;ndState</title>
<path fill="none" stroke="black" d="M456.733,-284.731C455.116,-277.051 453.427,-269.03 451.762,-261.122"/>
<polygon fill="black" stroke="black" points="451.738,-261.006 446.588,-255.959 449.266,-249.263 454.416,-254.31 451.738,-261.006"/>
</g>
<!-- ndOpMove -->
<g id="node3" class="node"><title>ndOpMove</title>
<polygon fill="lightblue" stroke="none" points="504,-506.5 504,-543.5 671,-543.5 671,-506.5 504,-506.5"/>
<polygon fill="none" stroke="black" points="504,-506.5 504,-543.5 671,-543.5 671,-506.5 504,-506.5"/>
<text text-anchor="start" x="558" y="-522.3" font-family="Arial" font-weight="bold" font-size="14.00">OpMove</text>
<polygon fill="white" stroke="none" points="504,-424.5 504,-506.5 671,-506.5 671,-424.5 504,-424.5"/>
<polygon fill="none" stroke="black" points="504,-424.5 504,-506.5 671,-506.5 671,-424.5 504,-424.5"/>
<text text-anchor="start" x="515" y="-484.3" font-family="Arial" font-size="14.00">&#45; timestamp: Clock&lt;A&gt;</text>
<text text-anchor="start" x="515" y="-469.3" font-family="Arial" font-size="14.00">&#45; parent_id: ID</text>
<text text-anchor="start" x="515" y="-454.3" font-family="Arial" font-size="14.00">&#45; metadata: TM</text>
<text text-anchor="start" x="515" y="-439.3" font-family="Arial" font-size="14.00">&#45; child_id: ID</text>
<polygon fill="none" stroke="black" points="502.5,-424 502.5,-545 671.5,-545 671.5,-424 502.5,-424"/>
</g>
<!-- ndOpMove&#45;&gt;ndTreeReplica -->
<g id="edge2" class="edge"><title>ndOpMove&#45;&gt;ndTreeReplica</title>
<path fill="none" stroke="black" d="M605.959,-419.938C623.117,-351.23 641.203,-239.547 609,-150 605.547,-140.397 600.608,-131.084 594.885,-122.304"/>
<polygon fill="black" stroke="black" points="589.179,-114.057 598.57,-119.72 592.024,-118.169 594.869,-122.281 594.869,-122.281 594.869,-122.281 592.024,-118.169 591.168,-124.841 589.179,-114.057 589.179,-114.057"/>
</g>
<!-- ndOpMove&#45;&gt;ndLogOpMove -->
<g id="edge3" class="edge"><title>ndOpMove&#45;&gt;ndLogOpMove</title>
<path fill="none" stroke="black" d="M535.413,-419.876C528.397,-411.223 521.225,-402.378 514.291,-393.825"/>
<polygon fill="black" stroke="black" points="514.141,-393.641 507.255,-391.499 506.583,-384.32 513.469,-386.461 514.141,-393.641"/>
</g>
<!-- ndTreeMeta -->
<g id="node4" class="node"><title>ndTreeMeta</title>
<polygon fill="lightgreen" stroke="none" points="738,-615.5 738,-652.5 826,-652.5 826,-615.5 738,-615.5"/>
<polygon fill="none" stroke="black" points="738,-615.5 738,-652.5 826,-652.5 826,-615.5 738,-615.5"/>
<text text-anchor="start" x="749" y="-631.3" font-family="Arial" font-weight="bold" font-size="14.00">TreeMeta</text>
<polygon fill="none" stroke="black" points="737,-615 737,-654 827,-654 827,-615 737,-615"/>
</g>
<!-- ndState&#45;&gt;ndTreeReplica -->
<g id="edge4" class="edge"><title>ndState&#45;&gt;ndTreeReplica</title>
<path fill="none" stroke="black" d="M471.613,-149.754C477.101,-141.551 482.879,-132.915 488.605,-124.356"/>
<polygon fill="black" stroke="black" points="488.61,-124.349 488.622,-117.138 495.283,-114.375 495.271,-121.586 488.61,-124.349"/>
</g>
<!-- ndClock -->
<g id="node6" class="node"><title>ndClock</title>
<polygon fill="lightblue" stroke="none" points="592,-641.5 592,-678.5 702,-678.5 702,-641.5 592,-641.5"/>
<polygon fill="none" stroke="black" points="592,-641.5 592,-678.5 702,-678.5 702,-641.5 592,-641.5"/>
<text text-anchor="start" x="627" y="-657.3" font-family="Arial" font-weight="bold" font-size="14.00">Clock</text>
<polygon fill="white" stroke="none" points="592,-589.5 592,-641.5 702,-641.5 702,-589.5 592,-589.5"/>
<polygon fill="none" stroke="black" points="592,-589.5 592,-641.5 702,-641.5 702,-589.5 592,-589.5"/>
<text text-anchor="start" x="603" y="-619.3" font-family="Arial" font-size="14.00">&#45; actor_id: A</text>
<text text-anchor="start" x="603" y="-604.3" font-family="Arial" font-size="14.00">&#45; counter: u64</text>
<polygon fill="none" stroke="black" points="591,-589 591,-680 703,-680 703,-589 591,-589"/>
</g>
<!-- ndClock&#45;&gt;ndTreeReplica -->
<g id="edge5" class="edge"><title>ndClock&#45;&gt;ndTreeReplica</title>
<path fill="none" stroke="black" d="M675.189,-584.833C680.484,-573.432 685.225,-561.078 688,-549 728.104,-374.477 719.929,-305.997 632,-150 626.67,-140.543 620.033,-131.5 612.735,-123.029"/>
<polygon fill="black" stroke="black" points="612.661,-122.948 605.665,-121.2 604.588,-114.07 611.584,-115.818 612.661,-122.948"/>
</g>
<!-- ndClock&#45;&gt;ndOpMove -->
<g id="edge6" class="edge"><title>ndClock&#45;&gt;ndOpMove</title>
<path fill="none" stroke="black" d="M627.187,-584.629C624.019,-576.815 620.679,-568.576 617.334,-560.323"/>
<polygon fill="black" stroke="black" points="617.292,-560.221 611.331,-556.163 612.784,-549.1 618.745,-553.157 617.292,-560.221"/>
</g>
<!-- ndTree -->
<g id="node7" class="node"><title>ndTree</title>
<polygon fill="lightblue" stroke="none" points="9,-341.5 9,-378.5 307,-378.5 307,-341.5 9,-341.5"/>
<polygon fill="none" stroke="black" points="9,-341.5 9,-378.5 307,-378.5 307,-341.5 9,-341.5"/>
<text text-anchor="start" x="142" y="-357.3" font-family="Arial" font-weight="bold" font-size="14.00">Tree</text>
<polygon fill="white" stroke="none" points="9,-289.5 9,-341.5 307,-341.5 307,-289.5 9,-289.5"/>
<polygon fill="none" stroke="black" points="9,-289.5 9,-341.5 307,-341.5 307,-289.5 9,-289.5"/>
<text text-anchor="start" x="20" y="-319.3" font-family="Arial" font-size="14.00">&#45; triples: HashMap&lt;ID, TreeNode&lt;ID, TM&gt;&gt;</text>
<text text-anchor="start" x="20" y="-304.3" font-family="Arial" font-size="14.00">&#45; children: HashMap&lt;ID, HashSet&lt;ID&gt;&gt;</text>
<polygon fill="none" stroke="black" points="8,-289 8,-380 308,-380 308,-289 8,-289"/>
</g>
<!-- ndTree&#45;&gt;ndTreeReplica -->
<g id="edge7" class="edge"><title>ndTree&#45;&gt;ndTreeReplica</title>
<path fill="none" stroke="black" d="M176.304,-284.894C194.144,-243.642 225.032,-185.632 269,-150 291.868,-131.468 318.717,-116.553 346.377,-104.581"/>
<polygon fill="black" stroke="black" points="355.784,-100.633 348.305,-108.653 351.174,-102.568 346.563,-104.503 346.563,-104.503 346.563,-104.503 351.174,-102.568 344.822,-100.354 355.784,-100.633 355.784,-100.633"/>
</g>
<!-- ndTree&#45;&gt;ndState -->
<g id="edge8" class="edge"><title>ndTree&#45;&gt;ndState</title>
<path fill="none" stroke="black" d="M260.64,-284.919C281.601,-274.998 303.777,-264.503 325.103,-254.408"/>
<polygon fill="black" stroke="black" points="325.321,-254.305 329.033,-248.123 336.168,-249.172 332.456,-255.354 325.321,-254.305"/>
</g>
<!-- ndTreeId -->
<g id="node8" class="node"><title>ndTreeId</title>
<polygon fill="lightgreen" stroke="none" points="863,-615.5 863,-652.5 930,-652.5 930,-615.5 863,-615.5"/>
<polygon fill="none" stroke="black" points="863,-615.5 863,-652.5 930,-652.5 930,-615.5 863,-615.5"/>
<text text-anchor="start" x="874" y="-631.3" font-family="Arial" font-weight="bold" font-size="14.00">TreeId</text>
<polygon fill="none" stroke="black" points="861.5,-615 861.5,-654 930.5,-654 930.5,-615 861.5,-615"/>
</g>
<!-- ndTreeNode -->
<g id="node9" class="node"><title>ndTreeNode</title>
<polygon fill="lightblue" stroke="none" points="351,-491.5 351,-528.5 468,-528.5 468,-491.5 351,-491.5"/>
<polygon fill="none" stroke="black" points="351,-491.5 351,-528.5 468,-528.5 468,-491.5 351,-491.5"/>
<text text-anchor="start" x="375.5" y="-507.3" font-family="Arial" font-weight="bold" font-size="14.00">TreeNode</text>
<polygon fill="white" stroke="none" points="351,-439.5 351,-491.5 468,-491.5 468,-439.5 351,-439.5"/>
<polygon fill="none" stroke="black" points="351,-439.5 351,-491.5 468,-491.5 468,-439.5 351,-439.5"/>
<text text-anchor="start" x="362" y="-469.3" font-family="Arial" font-size="14.00">&#45; parent_id: ID</text>
<text text-anchor="start" x="362" y="-454.3" font-family="Arial" font-size="14.00">&#45; metadata: TM</text>
<polygon fill="none" stroke="black" points="349.5,-439 349.5,-530 468.5,-530 468.5,-439 349.5,-439"/>
</g>
<!-- ndTreeNode&#45;&gt;ndLogOpMove -->
<g id="edge9" class="edge"><title>ndTreeNode&#45;&gt;ndLogOpMove</title>
<path fill="none" stroke="black" d="M428.152,-434.629C433.078,-422.061 438.433,-408.395 443.549,-395.34"/>
<polygon fill="black" stroke="black" points="443.588,-395.24 442.053,-388.194 447.967,-384.067 449.502,-391.113 443.588,-395.24"/>
</g>
</g>
</svg>
