<?xml version="1.0" encoding="UTF-8" standalone="no"?>
<!DOCTYPE svg PUBLIC "-//W3C//DTD SVG 1.1//EN"
 "http://www.w3.org/Graphics/SVG/1.1/DTD/svg11.dtd">
<!-- Generated by graphviz version 2.38.0 (20140413.2041)
 -->
<!-- Title: ml Pages: 1 -->
<svg width="1748pt" height="1763pt"
 viewBox="0.00 0.00 1747.50 1763.00" xmlns="http://www.w3.org/2000/svg" xmlns:xlink="http://www.w3.org/1999/xlink">
<g id="graph0" class="graph" transform="scale(1 1) rotate(0) translate(4 1759)">
<title>ml</title>
<polygon fill="white" stroke="none" points="-4,4 -4,-1759 1743.5,-1759 1743.5,4 -4,4"/>
<!-- ndTreeReplica -->
<g id="node1" class="node"><title>ndTreeReplica</title>
<g id="a_node1_0"><a xlink:href="https://github.com/maidsafe/crdt_tree/blob/master/src/treereplica.rs#:~:text=struct%20TreeReplica" xlink:title="&lt;TABLE&gt;">
<polygon fill="lightblue" stroke="none" points="861,-318.5 861,-355.5 1397,-355.5 1397,-318.5 861,-318.5"/>
<polygon fill="none" stroke="black" points="861,-318.5 861,-355.5 1397,-355.5 1397,-318.5 861,-318.5"/>
<text text-anchor="start" x="1087.5" y="-334.3" font-family="Arial" font-weight="bold" font-size="14.00">TreeReplica</text>
<polygon fill="white" stroke="none" points="861,-251.5 861,-318.5 1397,-318.5 1397,-251.5 861,-251.5"/>
<polygon fill="none" stroke="black" points="861,-251.5 861,-318.5 1397,-318.5 1397,-251.5 861,-251.5"/>
<text text-anchor="start" x="872" y="-296.3" font-family="Arial" font-size="14.00">&#45; state: State&lt;ID, TM, A&gt;</text>
<text text-anchor="start" x="872" y="-281.3" font-family="Arial" font-size="14.00">&#45; time: Clock&lt;A&gt;</text>
<text text-anchor="start" x="872" y="-266.3" font-family="Arial" font-size="14.00">&#45; latest_time_by_replica: HashMap&lt;A, Clock&lt;A&gt;&gt;</text>
<polygon fill="white" stroke="none" points="861,-4.5 861,-251.5 1397,-251.5 1397,-4.5 861,-4.5"/>
<polygon fill="none" stroke="black" points="861,-4.5 861,-251.5 1397,-251.5 1397,-4.5 861,-4.5"/>
<text text-anchor="start" x="872" y="-229.3" font-family="Arial" font-size="14.00">&#45; new(id: A) &#45;&gt; Self</text>
<text text-anchor="start" x="872" y="-214.3" font-family="Arial" font-size="14.00">&#45; opmove(&amp;self, parent_id: ID, metadata: TM, child_id: ID) &#45;&gt; OpMove&lt;ID, TM, A&gt;</text>
<text text-anchor="start" x="872" y="-199.3" font-family="Arial" font-size="14.00">&#45; opmoves(&amp;self, ops: Vec&lt;(ID, TM, ID)&gt;) &#45;&gt; Vec&lt;OpMove&lt;ID, TM, A&gt;&gt;</text>
<text text-anchor="start" x="872" y="-184.3" font-family="Arial" font-size="14.00">&#45; id(&amp;self) &#45;&gt; &amp;A</text>
<text text-anchor="start" x="872" y="-169.3" font-family="Arial" font-size="14.00">&#45; time(&amp;self) &#45;&gt; &amp;Clock&lt;A&gt;</text>
<text text-anchor="start" x="872" y="-154.3" font-family="Arial" font-size="14.00">&#45; state(&amp;self) &#45;&gt; &amp;State&lt;ID, TM, A&gt;</text>
<text text-anchor="start" x="872" y="-139.3" font-family="Arial" font-size="14.00">&#45; tree(&amp;self) &#45;&gt; &amp;Tree&lt;ID, TM&gt;</text>
<text text-anchor="start" x="872" y="-124.3" font-family="Arial" font-size="14.00">&#45; tree_mut(&amp;mut self) &#45;&gt; &amp;mut Tree&lt;ID, TM&gt;</text>
<text text-anchor="start" x="872" y="-109.3" font-family="Arial" font-size="14.00">&#45; apply_op(&amp;mut self, op: OpMove&lt;ID, TM, A&gt;)</text>
<text text-anchor="start" x="872" y="-94.3" font-family="Arial" font-size="14.00">&#45; apply_ops(&amp;mut self, ops: Vec&lt;OpMove&lt;ID, TM, A&gt;&gt;)</text>
<text text-anchor="start" x="872" y="-79.3" font-family="Arial" font-size="14.00">&#45; apply_ops_byref(&amp;mut self, ops: &amp;[OpMove&lt;ID, TM, A&gt;])</text>
<text text-anchor="start" x="872" y="-64.3" font-family="Arial" font-size="14.00">&#45; apply_log_op(&amp;mut self, log_op: LogOpMove&lt;ID, TM, A&gt;)</text>
<text text-anchor="start" x="872" y="-49.3" font-family="Arial" font-size="14.00">&#45; apply_log_ops(&amp;mut self, log_ops: Vec&lt;LogOpMove&lt;ID, TM, A&gt;&gt;)</text>
<text text-anchor="start" x="872" y="-34.3" font-family="Arial" font-size="14.00">&#45; causally_stable_threshold(&amp;self) &#45;&gt; Option&lt;&amp;Clock&lt;A&gt;&gt;</text>
<text text-anchor="start" x="872" y="-19.3" font-family="Arial" font-size="14.00">&#45; truncate_log(&amp;mut self) &#45;&gt; bool</text>
<polygon fill="none" stroke="black" points="860,-4 860,-357 1398,-357 1398,-4 860,-4"/>
</a>
</g>
</g>
<!-- ndLogOpMove -->
<g id="node2" class="node"><title>ndLogOpMove</title>
<g id="a_node2_1"><a xlink:href="https://github.com/maidsafe/crdt_tree/blob/master/src/logopmove.rs#:~:text=struct%20LogOpMove" xlink:title="&lt;TABLE&gt;">
<polygon fill="lightblue" stroke="none" points="647,-1023 647,-1060 1265,-1060 1265,-1023 647,-1023"/>
<polygon fill="none" stroke="black" points="647,-1023 647,-1060 1265,-1060 1265,-1023 647,-1023"/>
<text text-anchor="start" x="913" y="-1038.8" font-family="Arial" font-weight="bold" font-size="14.00">LogOpMove</text>
<polygon fill="white" stroke="none" points="647,-971 647,-1023 1265,-1023 1265,-971 647,-971"/>
<polygon fill="none" stroke="black" points="647,-971 647,-1023 1265,-1023 1265,-971 647,-971"/>
<text text-anchor="start" x="658" y="-1000.8" font-family="Arial" font-size="14.00">&#45; op: OpMove&lt;ID, TM, A&gt;</text>
<text text-anchor="start" x="658" y="-985.8" font-family="Arial" font-size="14.00">&#45; oldp: Option&lt;TreeNode&lt;ID, TM&gt;&gt;</text>
<polygon fill="white" stroke="none" points="647,-844 647,-971 1265,-971 1265,-844 647,-844"/>
<polygon fill="none" stroke="black" points="647,-844 647,-971 1265,-971 1265,-844 647,-844"/>
<text text-anchor="start" x="658" y="-948.8" font-family="Arial" font-size="14.00">&#45; new(op: OpMove&lt;ID, TM, A&gt;, oldp: Option&lt;TreeNode&lt;ID, TM&gt;&gt;) &#45;&gt; LogOpMove&lt;ID, TM, A&gt;</text>
<text text-anchor="start" x="658" y="-933.8" font-family="Arial" font-size="14.00">&#45; timestamp(&amp;self) &#45;&gt; &amp;Clock&lt;A&gt;</text>
<text text-anchor="start" x="658" y="-918.8" font-family="Arial" font-size="14.00">&#45; parent_id(&amp;self) &#45;&gt; &amp;ID</text>
<text text-anchor="start" x="658" y="-903.8" font-family="Arial" font-size="14.00">&#45; metadata(&amp;self) &#45;&gt; &amp;TM</text>
<text text-anchor="start" x="658" y="-888.8" font-family="Arial" font-size="14.00">&#45; child_id(&amp;self) &#45;&gt; &amp;ID</text>
<text text-anchor="start" x="658" y="-873.8" font-family="Arial" font-size="14.00">&#45; oldp(&amp;self) &#45;&gt; &amp;Option&lt;TreeNode&lt;ID, TM&gt;&gt;</text>
<text text-anchor="start" x="658" y="-858.8" font-family="Arial" font-size="14.00">&#45; op_into(self) &#45;&gt; OpMove&lt;ID, TM, A&gt;</text>
<polygon fill="none" stroke="black" points="646,-843 646,-1061 1266,-1061 1266,-843 646,-843"/>
</a>
</g>
</g>
<!-- ndState -->
<g id="node5" class="node"><title>ndState</title>
<g id="a_node5_2"><a xlink:href="https://github.com/maidsafe/crdt_tree/blob/master/src/state.rs#:~:text=struct%20State" xlink:title="&lt;TABLE&gt;">
<polygon fill="lightblue" stroke="none" points="718,-715.5 718,-752.5 1195,-752.5 1195,-715.5 718,-715.5"/>
<polygon fill="none" stroke="black" points="718,-715.5 718,-752.5 1195,-752.5 1195,-715.5 718,-715.5"/>
<text text-anchor="start" x="938.5" y="-731.3" font-family="Arial" font-weight="bold" font-size="14.00">State</text>
<polygon fill="white" stroke="none" points="718,-663.5 718,-715.5 1195,-715.5 1195,-663.5 718,-663.5"/>
<polygon fill="none" stroke="black" points="718,-663.5 718,-715.5 1195,-715.5 1195,-663.5 718,-663.5"/>
<text text-anchor="start" x="729" y="-693.3" font-family="Arial" font-size="14.00">&#45; log_op_list: Vec&lt;LogOpMove&lt;ID, TM, A&gt;&gt;</text>
<text text-anchor="start" x="729" y="-678.3" font-family="Arial" font-size="14.00">&#45; tree: Tree&lt;ID, TM&gt;</text>
<polygon fill="white" stroke="none" points="718,-401.5 718,-663.5 1195,-663.5 1195,-401.5 718,-401.5"/>
<polygon fill="none" stroke="black" points="718,-401.5 718,-663.5 1195,-663.5 1195,-401.5 718,-401.5"/>
<text text-anchor="start" x="729" y="-641.3" font-family="Arial" font-size="14.00">&#45; new() &#45;&gt; Self</text>
<text text-anchor="start" x="729" y="-626.3" font-family="Arial" font-size="14.00">&#45; tree(&amp;self) &#45;&gt; &amp;Tree&lt;ID, TM&gt;</text>
<text text-anchor="start" x="729" y="-611.3" font-family="Arial" font-size="14.00">&#45; tree_mut(&amp;mut self) &#45;&gt; &amp;mut Tree&lt;ID, TM&gt;</text>
<text text-anchor="start" x="729" y="-596.3" font-family="Arial" font-size="14.00">&#45; log(&amp;self) &#45;&gt; &amp;Vec&lt;LogOpMove&lt;ID, TM, A&gt;&gt;</text>
<text text-anchor="start" x="729" y="-581.3" font-family="Arial" font-size="14.00">&#45; add_log_entry(&amp;mut self, entry: LogOpMove&lt;ID, TM, A&gt;)</text>
<text text-anchor="start" x="729" y="-566.3" font-family="Arial" font-size="14.00">&#45; truncate_log_before(&amp;mut self, timestamp: &amp;Clock&lt;A&gt;) &#45;&gt; bool</text>
<text text-anchor="start" x="729" y="-551.3" font-family="Arial" font-size="14.00">&#45; do_op(&amp;mut self, op: OpMove&lt;ID, TM, A&gt;) &#45;&gt; LogOpMove&lt;ID, TM, A&gt;</text>
<text text-anchor="start" x="729" y="-536.3" font-family="Arial" font-size="14.00">&#45; undo_op(&amp;mut self, log: &amp;LogOpMove&lt;ID, TM, A&gt;)</text>
<text text-anchor="start" x="729" y="-521.3" font-family="Arial" font-size="14.00">&#45; redo_op(&amp;mut self, log: LogOpMove&lt;ID, TM, A&gt;)</text>
<text text-anchor="start" x="729" y="-506.3" font-family="Arial" font-size="14.00">&#45; apply_op(&amp;mut self, op1: OpMove&lt;ID, TM, A&gt;)</text>
<text text-anchor="start" x="729" y="-491.3" font-family="Arial" font-size="14.00">&#45; apply_ops_into(&amp;mut self, ops: Vec&lt;OpMove&lt;ID, TM, A&gt;&gt;)</text>
<text text-anchor="start" x="729" y="-476.3" font-family="Arial" font-size="14.00">&#45; apply_ops(&amp;mut self, ops: &amp;[OpMove&lt;ID, TM, A&gt;])</text>
<text text-anchor="start" x="729" y="-461.3" font-family="Arial" font-size="14.00">&#45; default() &#45;&gt; Self</text>
<text text-anchor="start" x="729" y="-446.3" font-family="Arial" font-size="14.00">&#45; from(e: (LogOpList&lt;ID, TM, A&gt;, Tree&lt;ID, TM&gt;)) &#45;&gt; Self</text>
<text text-anchor="start" x="729" y="-431.3" font-family="Arial" font-size="14.00">&#45; apply(&amp;mut self, op: Self::Op)</text>
<text text-anchor="start" x="729" y="-416.3" font-family="Arial" font-size="14.00">&#45; into_iter(self) &#45;&gt; Self::IntoIter</text>
<polygon fill="none" stroke="black" points="716.5,-401 716.5,-754 1195.5,-754 1195.5,-401 716.5,-401"/>
</a>
</g>
</g>
<!-- ndLogOpMove&#45;&gt;ndState -->
<g id="edge1" class="edge"><title>ndLogOpMove&#45;&gt;ndState</title>
<path fill="none" stroke="black" d="M956,-838.985C956,-817.273 956,-793.951 956,-770.508"/>
<polygon fill="black" stroke="black" points="956,-770.245 952,-764.245 956,-758.245 960,-764.245 956,-770.245"/>
</g>
<!-- ndOpMove -->
<g id="node3" class="node"><title>ndOpMove</title>
<g id="a_node3_3"><a xlink:href="https://github.com/maidsafe/crdt_tree/blob/master/src/opmove.rs#:~:text=struct%20OpMove" xlink:title="&lt;TABLE&gt;">
<polygon fill="lightblue" stroke="none" points="921,-1360 921,-1397 1430,-1397 1430,-1360 921,-1360"/>
<polygon fill="none" stroke="black" points="921,-1360 921,-1397 1430,-1397 1430,-1360 921,-1360"/>
<text text-anchor="start" x="1146" y="-1375.8" font-family="Arial" font-weight="bold" font-size="14.00">OpMove</text>
<polygon fill="white" stroke="none" points="921,-1278 921,-1360 1430,-1360 1430,-1278 921,-1278"/>
<polygon fill="none" stroke="black" points="921,-1278 921,-1360 1430,-1360 1430,-1278 921,-1278"/>
<text text-anchor="start" x="932" y="-1337.8" font-family="Arial" font-size="14.00">&#45; timestamp: Clock&lt;A&gt;</text>
<text text-anchor="start" x="932" y="-1322.8" font-family="Arial" font-size="14.00">&#45; parent_id: ID</text>
<text text-anchor="start" x="932" y="-1307.8" font-family="Arial" font-size="14.00">&#45; metadata: TM</text>
<text text-anchor="start" x="932" y="-1292.8" font-family="Arial" font-size="14.00">&#45; child_id: ID</text>
<polygon fill="white" stroke="none" points="921,-1151 921,-1278 1430,-1278 1430,-1151 921,-1151"/>
<polygon fill="none" stroke="black" points="921,-1151 921,-1278 1430,-1278 1430,-1151 921,-1151"/>
<text text-anchor="start" x="932" y="-1255.8" font-family="Arial" font-size="14.00">&#45; new(timestamp: Clock&lt;A&gt;, parent_id: ID, metadata: TM, child_id: ID) &#45;&gt; Self</text>
<text text-anchor="start" x="932" y="-1240.8" font-family="Arial" font-size="14.00">&#45; timestamp(&amp;self) &#45;&gt; &amp;Clock&lt;A&gt;</text>
<text text-anchor="start" x="932" y="-1225.8" font-family="Arial" font-size="14.00">&#45; parent_id(&amp;self) &#45;&gt; &amp;ID</text>
<text text-anchor="start" x="932" y="-1210.8" font-family="Arial" font-size="14.00">&#45; metadata(&amp;self) &#45;&gt; &amp;TM</text>
<text text-anchor="start" x="932" y="-1195.8" font-family="Arial" font-size="14.00">&#45; child_id(&amp;self) &#45;&gt; &amp;ID</text>
<text text-anchor="start" x="932" y="-1180.8" font-family="Arial" font-size="14.00">&#45; from(l: LogOpMove&lt;ID, TM, A&gt;) &#45;&gt; Self</text>
<text text-anchor="start" x="932" y="-1165.8" font-family="Arial" font-size="14.00">&#45; arbitrary(g: &amp;mut G) &#45;&gt; Self</text>
<polygon fill="none" stroke="black" points="919.5,-1150 919.5,-1398 1430.5,-1398 1430.5,-1150 919.5,-1150"/>
</a>
</g>
</g>
<!-- ndOpMove&#45;&gt;ndTreeReplica -->
<g id="edge2" class="edge"><title>ndOpMove&#45;&gt;ndTreeReplica</title>
<path fill="none" stroke="black" d="M1268.93,-1145.63C1274.55,-1133.98 1279.38,-1122.03 1283,-1110 1358.26,-860.172 1279.71,-560.76 1209.96,-370.818"/>
<polygon fill="black" stroke="black" points="1206.43,-361.293 1214.12,-369.11 1208.17,-365.982 1209.9,-370.672 1209.9,-370.672 1209.9,-370.672 1208.17,-365.982 1205.68,-372.233 1206.43,-361.293 1206.43,-361.293"/>
</g>
<!-- ndOpMove&#45;&gt;ndLogOpMove -->
<g id="edge3" class="edge"><title>ndOpMove&#45;&gt;ndLogOpMove</title>
<path fill="none" stroke="black" d="M1087.82,-1145.61C1071.97,-1122.45 1055.47,-1098.35 1039.73,-1075.35"/>
<polygon fill="black" stroke="black" points="1039.57,-1075.12 1032.88,-1072.42 1032.8,-1065.21 1039.49,-1067.91 1039.57,-1075.12"/>
</g>
<!-- ndTreeMeta -->
<g id="node4" class="node"><title>ndTreeMeta</title>
<g id="a_node4_4"><a xlink:href="https://github.com/maidsafe/crdt_tree/blob/master/src/treemeta.rs#:~:text=trait%20TreeMeta" xlink:title="&lt;TABLE&gt;">
<polygon fill="lightgreen" stroke="none" points="1539,-1596.5 1539,-1633.5 1627,-1633.5 1627,-1596.5 1539,-1596.5"/>
<polygon fill="none" stroke="black" points="1539,-1596.5 1539,-1633.5 1627,-1633.5 1627,-1596.5 1539,-1596.5"/>
<text text-anchor="start" x="1550" y="-1612.3" font-family="Arial" font-weight="bold" font-size="14.00">TreeMeta</text>
<polygon fill="white" stroke="none" points="1539,-1558.5 1539,-1596.5 1627,-1596.5 1627,-1558.5 1539,-1558.5"/>
<polygon fill="none" stroke="black" points="1539,-1558.5 1539,-1596.5 1627,-1596.5 1627,-1558.5 1539,-1558.5"/>
<polygon fill="none" stroke="black" points="1538,-1558 1538,-1635 1628,-1635 1628,-1558 1538,-1558"/>
</a>
</g>
</g>
<!-- ndState&#45;&gt;ndTreeReplica -->
<g id="edge4" class="edge"><title>ndState&#45;&gt;ndTreeReplica</title>
<path fill="none" stroke="black" d="M1034.65,-396.915C1038.24,-388.719 1041.85,-380.481 1045.45,-372.258"/>
<polygon fill="black" stroke="black" points="1045.54,-372.053 1044.29,-364.952 1050.36,-361.061 1051.61,-368.161 1045.54,-372.053"/>
</g>
<!-- ndClock -->
<g id="node6" class="node"><title>ndClock</title>
<g id="a_node6_5"><a xlink:href="https://github.com/maidsafe/crdt_tree/blob/master/src/clock.rs#:~:text=struct%20Clock" xlink:title="&lt;TABLE&gt;">
<polygon fill="lightblue" stroke="none" points="1140,-1712.5 1140,-1749.5 1503,-1749.5 1503,-1712.5 1140,-1712.5"/>
<polygon fill="none" stroke="black" points="1140,-1712.5 1140,-1749.5 1503,-1749.5 1503,-1712.5 1140,-1712.5"/>
<text text-anchor="start" x="1301.5" y="-1728.3" font-family="Arial" font-weight="bold" font-size="14.00">Clock</text>
<polygon fill="white" stroke="none" points="1140,-1660.5 1140,-1712.5 1503,-1712.5 1503,-1660.5 1140,-1660.5"/>
<polygon fill="none" stroke="black" points="1140,-1660.5 1140,-1712.5 1503,-1712.5 1503,-1660.5 1140,-1660.5"/>
<text text-anchor="start" x="1151" y="-1690.3" font-family="Arial" font-size="14.00">&#45; actor_id: A</text>
<text text-anchor="start" x="1151" y="-1675.3" font-family="Arial" font-size="14.00">&#45; counter: u64</text>
<polygon fill="white" stroke="none" points="1140,-1442.5 1140,-1660.5 1503,-1660.5 1503,-1442.5 1140,-1442.5"/>
<polygon fill="none" stroke="black" points="1140,-1442.5 1140,-1660.5 1503,-1660.5 1503,-1442.5 1140,-1442.5"/>
<text text-anchor="start" x="1151" y="-1638.3" font-family="Arial" font-size="14.00">&#45; new(actor_id: A, counter: Option&lt;u64&gt;) &#45;&gt; Self</text>
<text text-anchor="start" x="1151" y="-1623.3" font-family="Arial" font-size="14.00">&#45; inc(&amp;self) &#45;&gt; Self</text>
<text text-anchor="start" x="1151" y="-1608.3" font-family="Arial" font-size="14.00">&#45; tick(&amp;mut self) &#45;&gt; Self</text>
<text text-anchor="start" x="1151" y="-1593.3" font-family="Arial" font-size="14.00">&#45; actor_id(&amp;self) &#45;&gt; &amp;A</text>
<text text-anchor="start" x="1151" y="-1578.3" font-family="Arial" font-size="14.00">&#45; counter(&amp;self) &#45;&gt; u64</text>
<text text-anchor="start" x="1151" y="-1563.3" font-family="Arial" font-size="14.00">&#45; merge(&amp;self, other: &amp;Self) &#45;&gt; Self</text>
<text text-anchor="start" x="1151" y="-1548.3" font-family="Arial" font-size="14.00">&#45; cmp(&amp;self, other: &amp;Self) &#45;&gt; Ordering</text>
<text text-anchor="start" x="1151" y="-1533.3" font-family="Arial" font-size="14.00">&#45; partial_cmp(&amp;self, other: &amp;Self) &#45;&gt; Option&lt;Ordering&gt;</text>
<text text-anchor="start" x="1151" y="-1518.3" font-family="Arial" font-size="14.00">&#45; eq(&amp;self, other: &amp;Self) &#45;&gt; bool</text>
<text text-anchor="start" x="1151" y="-1486.5" font-family="Arial" font-size="14.00">&#45; hash(&amp;self, state: &amp;mut H)</text>
<text text-anchor="start" x="1151" y="-1471.5" font-family="Arial" font-size="14.00">&#45; arbitrary(g: &amp;mut G) &#45;&gt; Self</text>
<text text-anchor="start" x="1151" y="-1456.5" font-family="Arial" font-size="14.00">&#45; shrink(&amp;self) &#45;&gt; Box&lt;dyn Iterator&lt;Item = Self&gt;&gt;</text>
<polygon fill="none" stroke="black" points="1138.5,-1442 1138.5,-1751 1503.5,-1751 1503.5,-1442 1138.5,-1442"/>
</a>
</g>
</g>
<!-- ndClock&#45;&gt;ndTreeReplica -->
<g id="edge5" class="edge"><title>ndClock&#45;&gt;ndTreeReplica</title>
<path fill="none" stroke="black" d="M1433.45,-1438C1438.79,-1426.16 1443.41,-1414.11 1447,-1402 1479.38,-1292.93 1459.53,-1259.09 1447,-1146 1409.44,-806.914 1416.35,-709.289 1279,-397 1275.29,-388.565 1271.23,-380.118 1266.9,-371.715"/>
<polygon fill="black" stroke="black" points="1266.89,-371.701 1260.55,-368.272 1261.28,-361.097 1267.62,-364.527 1266.89,-371.701"/>
</g>
<!-- ndClock&#45;&gt;ndOpMove -->
<g id="edge6" class="edge"><title>ndClock&#45;&gt;ndOpMove</title>
<path fill="none" stroke="black" d="M1249.07,-1437.6C1245.36,-1429.45 1241.64,-1421.29 1237.96,-1413.22"/>
<polygon fill="black" stroke="black" points="1237.94,-1413.17 1231.82,-1409.37 1232.97,-1402.25 1239.1,-1406.06 1237.94,-1413.17"/>
</g>
<!-- ndTree -->
<g id="node7" class="node"><title>ndTree</title>
<g id="a_node7_6"><a xlink:href="https://github.com/maidsafe/crdt_tree/blob/master/src/tree.rs#:~:text=struct%20Tree" xlink:title="&lt;TABLE&gt;">
<polygon fill="lightblue" stroke="none" points="9,-1068 9,-1105 611,-1105 611,-1068 9,-1068"/>
<polygon fill="none" stroke="black" points="9,-1068 9,-1105 611,-1105 611,-1068 9,-1068"/>
<text text-anchor="start" x="294" y="-1083.8" font-family="Arial" font-weight="bold" font-size="14.00">Tree</text>
<polygon fill="white" stroke="none" points="9,-1016 9,-1068 611,-1068 611,-1016 9,-1016"/>
<polygon fill="none" stroke="black" points="9,-1016 9,-1068 611,-1068 611,-1016 9,-1016"/>
<text text-anchor="start" x="20" y="-1045.8" font-family="Arial" font-size="14.00">&#45; triples: HashMap&lt;ID, TreeNode&lt;ID, TM&gt;&gt;</text>
<text text-anchor="start" x="20" y="-1030.8" font-family="Arial" font-size="14.00">&#45; children: HashMap&lt;ID, HashSet&lt;ID&gt;&gt;</text>
<polygon fill="white" stroke="none" points="9,-799 9,-1016 611,-1016 611,-799 9,-799"/>
<polygon fill="none" stroke="black" points="9,-799 9,-1016 611,-1016 611,-799 9,-799"/>
<text text-anchor="start" x="20" y="-993.8" font-family="Arial" font-size="14.00">&#45; new() &#45;&gt; Self</text>
<text text-anchor="start" x="20" y="-978.8" font-family="Arial" font-size="14.00">&#45; rm_child(&amp;mut self, child_id: &amp;ID)</text>
<text text-anchor="start" x="20" y="-963.8" font-family="Arial" font-size="14.00">&#45; rm_subtree(&amp;mut self, parent_id: &amp;ID, include_parent: bool)</text>
<text text-anchor="start" x="20" y="-948.8" font-family="Arial" font-size="14.00">&#45; add_node(&amp;mut self, child_id: ID, tt: TreeNode&lt;ID, TM&gt;)</text>
<text text-anchor="start" x="20" y="-933.8" font-family="Arial" font-size="14.00">&#45; find(&amp;self, child_id: &amp;ID) &#45;&gt; Option&lt;&amp;TreeNode&lt;ID, TM&gt;&gt;</text>
<text text-anchor="start" x="20" y="-918.8" font-family="Arial" font-size="14.00">&#45; children(&amp;self, parent_id: &amp;ID) &#45;&gt; Vec&lt;ID&gt;</text>
<text text-anchor="start" x="20" y="-903.8" font-family="Arial" font-size="14.00">&#45; walk(&amp;self, parent_id: &amp;ID, mut f: F)</text>
<text text-anchor="start" x="20" y="-888.8" font-family="Arial" font-size="14.00">&#45; is_ancestor(&amp;self, child_id: &amp;ID, ancestor_id: &amp;ID) &#45;&gt; bool</text>
<text text-anchor="start" x="20" y="-873.8" font-family="Arial" font-size="14.00">&#45; num_nodes(&amp;self) &#45;&gt; usize</text>
<text text-anchor="start" x="20" y="-858.8" font-family="Arial" font-size="14.00">&#45; into_iter(self) &#45;&gt; Self::IntoIter</text>
<text text-anchor="start" x="20" y="-843.8" font-family="Arial" font-size="14.00">&#45; fmt(&amp;self, f: &amp;mut fmt::Formatter&lt;&#39;_&gt;) &#45;&gt; fmt::Result</text>
<text text-anchor="start" x="20" y="-828.8" font-family="Arial" font-size="14.00">&#45; print_treenode(&amp;self, f: &amp;mut fmt::Formatter&lt;&#39;_&gt;, node_id: &amp;ID, depth: usize) &#45;&gt; fmt::Result</text>
<text text-anchor="start" x="20" y="-813.8" font-family="Arial" font-size="14.00">&#45; print_tree(&amp;self, f: &amp;mut fmt::Formatter&lt;&#39;_&gt;) &#45;&gt; fmt::Result</text>
<polygon fill="none" stroke="black" points="8,-798 8,-1106 612,-1106 612,-798 8,-798"/>
</a>
</g>
</g>
<!-- ndTree&#45;&gt;ndTreeReplica -->
<g id="edge7" class="edge"><title>ndTree&#45;&gt;ndTreeReplica</title>
<path fill="none" stroke="black" d="M391.946,-793.799C460.99,-673.205 569.168,-508.956 699,-397 741.892,-360.013 792.241,-327.499 843.084,-299.682"/>
<polygon fill="black" stroke="black" points="851.911,-294.902 845.261,-303.621 847.514,-297.283 843.118,-299.664 843.118,-299.664 843.118,-299.664 847.514,-297.283 840.975,-295.706 851.911,-294.902 851.911,-294.902"/>
</g>
<!-- ndTree&#45;&gt;ndState -->
<g id="edge8" class="edge"><title>ndTree&#45;&gt;ndState</title>
<path fill="none" stroke="black" d="M582.558,-793.836C620.748,-771.815 659.903,-749.237 697.816,-727.375"/>
<polygon fill="black" stroke="black" points="698.079,-727.224 701.279,-720.762 708.474,-721.23 705.275,-727.692 698.079,-727.224"/>
</g>
<!-- ndTreeId -->
<g id="node8" class="node"><title>ndTreeId</title>
<g id="a_node8_7"><a xlink:href="https://github.com/maidsafe/crdt_tree/blob/master/src/treeid.rs#:~:text=trait%20TreeId" xlink:title="&lt;TABLE&gt;">
<polygon fill="lightgreen" stroke="none" points="1664,-1596.5 1664,-1633.5 1731,-1633.5 1731,-1596.5 1664,-1596.5"/>
<polygon fill="none" stroke="black" points="1664,-1596.5 1664,-1633.5 1731,-1633.5 1731,-1596.5 1664,-1596.5"/>
<text text-anchor="start" x="1675" y="-1612.3" font-family="Arial" font-weight="bold" font-size="14.00">TreeId</text>
<polygon fill="white" stroke="none" points="1664,-1558.5 1664,-1596.5 1731,-1596.5 1731,-1558.5 1664,-1558.5"/>
<polygon fill="none" stroke="black" points="1664,-1558.5 1664,-1596.5 1731,-1596.5 1731,-1558.5 1664,-1558.5"/>
<polygon fill="none" stroke="black" points="1662.5,-1558 1662.5,-1635 1731.5,-1635 1731.5,-1558 1662.5,-1558"/>
</a>
</g>
</g>
<!-- ndTreeNode -->
<g id="node9" class="node"><title>ndTreeNode</title>
<g id="a_node9_8"><a xlink:href="https://github.com/maidsafe/crdt_tree/blob/master/src/treenode.rs#:~:text=struct%20TreeNode" xlink:title="&lt;TABLE&gt;">
<polygon fill="lightblue" stroke="none" points="598,-1315 598,-1352 885,-1352 885,-1315 598,-1315"/>
<polygon fill="none" stroke="black" points="598,-1315 598,-1352 885,-1352 885,-1315 598,-1315"/>
<text text-anchor="start" x="707.5" y="-1330.8" font-family="Arial" font-weight="bold" font-size="14.00">TreeNode</text>
<polygon fill="white" stroke="none" points="598,-1263 598,-1315 885,-1315 885,-1263 598,-1263"/>
<polygon fill="none" stroke="black" points="598,-1263 598,-1315 885,-1315 885,-1263 598,-1263"/>
<text text-anchor="start" x="609" y="-1292.8" font-family="Arial" font-size="14.00">&#45; parent_id: ID</text>
<text text-anchor="start" x="609" y="-1277.8" font-family="Arial" font-size="14.00">&#45; metadata: TM</text>
<polygon fill="white" stroke="none" points="598,-1196 598,-1263 885,-1263 885,-1196 598,-1196"/>
<polygon fill="none" stroke="black" points="598,-1196 598,-1263 885,-1263 885,-1196 598,-1196"/>
<text text-anchor="start" x="609" y="-1240.8" font-family="Arial" font-size="14.00">&#45; new(parent_id: ID, metadata: TM) &#45;&gt; Self</text>
<text text-anchor="start" x="609" y="-1225.8" font-family="Arial" font-size="14.00">&#45; parent_id(&amp;self) &#45;&gt; &amp;ID</text>
<text text-anchor="start" x="609" y="-1210.8" font-family="Arial" font-size="14.00">&#45; metadata(&amp;self) &#45;&gt; &amp;TM</text>
<polygon fill="none" stroke="black" points="596.5,-1195 596.5,-1353 885.5,-1353 885.5,-1195 596.5,-1195"/>
</a>
</g>
</g>
<!-- ndTreeNode&#45;&gt;ndLogOpMove -->
<g id="edge9" class="edge"><title>ndTreeNode&#45;&gt;ndLogOpMove</title>
<path fill="none" stroke="black" d="M796.368,-1190.59C819.896,-1155.57 847.82,-1114.01 873.683,-1075.52"/>
<polygon fill="black" stroke="black" points="873.87,-1075.24 873.896,-1068.03 880.563,-1065.28 880.537,-1072.49 873.87,-1075.24"/>
</g>
</g>
</svg>
