<?xml version="1.0" encoding="UTF-8" standalone="no"?>
<!DOCTYPE svg PUBLIC "-//W3C//DTD SVG 1.1//EN"
 "http://www.w3.org/Graphics/SVG/1.1/DTD/svg11.dtd">
<!-- Generated by graphviz version 2.38.0 (20140413.2041)
 -->
<!-- Title: ml Pages: 1 -->
<svg width="3034pt" height="976pt"
 viewBox="0.00 0.00 3034.00 976.00" xmlns="http://www.w3.org/2000/svg" xmlns:xlink="http://www.w3.org/1999/xlink">
<g id="graph0" class="graph" transform="scale(1 1) rotate(0) translate(4 972)">
<title>ml</title>
<polygon fill="white" stroke="none" points="-4,4 -4,-972 3030,-972 3030,4 -4,4"/>
<!-- ndEntry -->
<g id="node1" class="node"><title>ndEntry</title>
<polygon fill="yellow" stroke="none" points="2472.5,-742 2472.5,-779 2729.5,-779 2729.5,-742 2472.5,-742"/>
<polygon fill="none" stroke="black" points="2472.5,-742 2472.5,-779 2729.5,-779 2729.5,-742 2472.5,-742"/>
<text text-anchor="start" x="2582" y="-757.8" font-family="Arial" font-weight="bold" font-size="14.00">Entry</text>
<polygon fill="white" stroke="none" points="2472.5,-690 2472.5,-742 2729.5,-742 2729.5,-690 2472.5,-690"/>
<polygon fill="none" stroke="black" points="2472.5,-690 2472.5,-742 2729.5,-742 2729.5,-690 2472.5,-690"/>
<text text-anchor="start" x="2483.5" y="-719.8" font-family="Arial" font-size="14.00">Vacant(VacantEntry&lt;&#39;a, Key, Value&gt;)</text>
<text text-anchor="start" x="2483.5" y="-704.8" font-family="Arial" font-size="14.00">Occupied(OccupiedEntry&lt;&#39;a, Value&gt;)</text>
<polygon fill="none" stroke="black" points="2471,-689.5 2471,-780.5 2730,-780.5 2730,-689.5 2471,-689.5"/>
</g>
<!-- ndLruCache -->
<g id="node4" class="node"><title>ndLruCache</title>
<polygon fill="lightblue" stroke="none" points="1318.5,-558.5 1318.5,-595.5 1993.5,-595.5 1993.5,-558.5 1318.5,-558.5"/>
<polygon fill="none" stroke="black" points="1318.5,-558.5 1318.5,-595.5 1993.5,-595.5 1993.5,-558.5 1318.5,-558.5"/>
<text text-anchor="start" x="1621.5" y="-574.3" font-family="Arial" font-weight="bold" font-size="14.00">LruCache</text>
<polygon fill="white" stroke="none" points="1318.5,-476.5 1318.5,-558.5 1993.5,-558.5 1993.5,-476.5 1318.5,-476.5"/>
<polygon fill="none" stroke="black" points="1318.5,-476.5 1318.5,-558.5 1993.5,-558.5 1993.5,-476.5 1318.5,-476.5"/>
<text text-anchor="start" x="1329.5" y="-536.3" font-family="Arial" font-size="14.00">&#45; map: BTreeMap&lt;Key, (Value, Instant)&gt;</text>
<text text-anchor="start" x="1329.5" y="-521.3" font-family="Arial" font-size="14.00">&#45; list: VecDeque&lt;Key&gt;</text>
<text text-anchor="start" x="1329.5" y="-506.3" font-family="Arial" font-size="14.00">&#45; capacity: usize</text>
<text text-anchor="start" x="1329.5" y="-491.3" font-family="Arial" font-size="14.00">&#45; time_to_live: Option&lt;Duration&gt;</text>
<polygon fill="white" stroke="none" points="1318.5,-4.5 1318.5,-476.5 1993.5,-476.5 1993.5,-4.5 1318.5,-4.5"/>
<polygon fill="none" stroke="black" points="1318.5,-4.5 1318.5,-476.5 1993.5,-476.5 1993.5,-4.5 1318.5,-4.5"/>
<text text-anchor="start" x="1329.5" y="-454.3" font-family="Arial" font-size="14.00">&#45; with_capacity(capacity: usize) &#45;&gt; LruCache&lt;Key, Value&gt;</text>
<text text-anchor="start" x="1329.5" y="-439.3" font-family="Arial" font-size="14.00">&#45; with_expiry_duration(time_to_live: Duration) &#45;&gt; LruCache&lt;Key, Value&gt;</text>
<text text-anchor="start" x="1329.5" y="-424.3" font-family="Arial" font-size="14.00">&#45; with_expiry_duration_and_capacity(time_to_live: Duration, capacity: usize) &#45;&gt; LruCache&lt;Key, Value&gt;</text>
<text text-anchor="start" x="1329.5" y="-409.3" font-family="Arial" font-size="14.00">&#45; notify_insert(&amp;mut self, key: Key, value: Value) &#45;&gt; (Option&lt;Value&gt;, Vec&lt;(Key, Value)&gt;)</text>
<text text-anchor="start" x="1329.5" y="-394.3" font-family="Arial" font-size="14.00">&#45; insert(&amp;mut self, key: Key, value: Value) &#45;&gt; Option&lt;Value&gt;</text>
<text text-anchor="start" x="1329.5" y="-379.3" font-family="Arial" font-size="14.00">&#45; remove(&amp;mut self, key: &amp;Q) &#45;&gt; Option&lt;Value&gt;</text>
<text text-anchor="start" x="1329.5" y="-364.3" font-family="Arial" font-size="14.00">&#45; clear(&amp;mut self)</text>
<text text-anchor="start" x="1329.5" y="-349.3" font-family="Arial" font-size="14.00">&#45; notify_get(&amp;mut self, key: &amp;Q) &#45;&gt; (Option&lt;&amp;Value&gt;, Vec&lt;(Key, Value)&gt;)</text>
<text text-anchor="start" x="1329.5" y="-334.3" font-family="Arial" font-size="14.00">&#45; get(&amp;mut self, key: &amp;Q) &#45;&gt; Option&lt;&amp;Value&gt;</text>
<text text-anchor="start" x="1329.5" y="-319.3" font-family="Arial" font-size="14.00">&#45; peek(&amp;self, key: &amp;Q) &#45;&gt; Option&lt;&amp;Value&gt;</text>
<text text-anchor="start" x="1329.5" y="-304.3" font-family="Arial" font-size="14.00">&#45; notify_get_mut(&amp;mut self, key: &amp;Q) &#45;&gt; (Option&lt;&amp;mut Value&gt;, Vec&lt;(Key, Value)&gt;)</text>
<text text-anchor="start" x="1329.5" y="-289.3" font-family="Arial" font-size="14.00">&#45; get_mut(&amp;mut self, key: &amp;Q) &#45;&gt; Option&lt;&amp;mut Value&gt;</text>
<text text-anchor="start" x="1329.5" y="-274.3" font-family="Arial" font-size="14.00">&#45; contains_key(&amp;self, key: &amp;Q) &#45;&gt; bool</text>
<text text-anchor="start" x="1329.5" y="-259.3" font-family="Arial" font-size="14.00">&#45; len(&amp;self) &#45;&gt; usize</text>
<text text-anchor="start" x="1329.5" y="-244.3" font-family="Arial" font-size="14.00">&#45; is_empty(&amp;self) &#45;&gt; bool</text>
<text text-anchor="start" x="1329.5" y="-229.3" font-family="Arial" font-size="14.00">&#45; entry(&amp;mut self, key: Key) &#45;&gt; Entry&lt;&#39;_, Key, Value&gt;</text>
<text text-anchor="start" x="1329.5" y="-214.3" font-family="Arial" font-size="14.00">&#45; notify_iter(&amp;mut self) &#45;&gt; NotifyIter&lt;&#39;_, Key, Value&gt;</text>
<text text-anchor="start" x="1329.5" y="-199.3" font-family="Arial" font-size="14.00">&#45; iter(&amp;mut self) &#45;&gt; Iter&lt;&#39;_, Key, Value&gt;</text>
<text text-anchor="start" x="1329.5" y="-184.3" font-family="Arial" font-size="14.00">&#45; peek_iter(&amp;self) &#45;&gt; PeekIter&lt;&#39;_, Key, Value&gt;</text>
<text text-anchor="start" x="1329.5" y="-169.3" font-family="Arial" font-size="14.00">&#45; update_key(list: &amp;mut VecDeque&lt;Key&gt;, key: &amp;Q)</text>
<text text-anchor="start" x="1329.5" y="-154.3" font-family="Arial" font-size="14.00">&#45; do_notify_get_mut(&amp;mut self, key: &amp;Q, now: Instant) &#45;&gt; (Option&lt;&amp;mut Value&gt;, Vec&lt;(Key, Value)&gt;)</text>
<text text-anchor="start" x="1329.5" y="-139.3" font-family="Arial" font-size="14.00">&#45; do_notify_insert(&amp;mut self, key: Key, value: Value, now: Instant) &#45;&gt; (Option&lt;Value&gt;, Vec&lt;(Key, Value)&gt;)</text>
<text text-anchor="start" x="1329.5" y="-124.3" font-family="Arial" font-size="14.00">&#45; do_peek(&amp;self, key: &amp;Q, now: Instant) &#45;&gt; Option&lt;&amp;Value&gt;</text>
<text text-anchor="start" x="1329.5" y="-109.3" font-family="Arial" font-size="14.00">&#45; remove_expired(&amp;mut self, now: Instant) &#45;&gt; Vec&lt;(Key, Value)&gt;</text>
<text text-anchor="start" x="1329.5" y="-94.3" font-family="Arial" font-size="14.00">&#45; remove_lru(&amp;mut self)</text>
<text text-anchor="start" x="1329.5" y="-79.3" font-family="Arial" font-size="14.00">&#45; clone(&amp;self) &#45;&gt; LruCache&lt;Key, Value&gt;</text>
<text text-anchor="start" x="1329.5" y="-64.3" font-family="Arial" font-size="14.00">&#45; insert(self, value: Value) &#45;&gt; &amp;&#39;a mut Value</text>
<text text-anchor="start" x="1329.5" y="-49.3" font-family="Arial" font-size="14.00">&#45; into_mut(self) &#45;&gt; &amp;&#39;a mut Value</text>
<text text-anchor="start" x="1329.5" y="-34.3" font-family="Arial" font-size="14.00">&#45; or_insert(self, default: Value) &#45;&gt; &amp;&#39;a mut Value</text>
<text text-anchor="start" x="1329.5" y="-19.3" font-family="Arial" font-size="14.00">&#45; or_insert_with(self, default: F) &#45;&gt; &amp;&#39;a mut Value</text>
<polygon fill="none" stroke="black" points="1317,-4 1317,-597 1994,-597 1994,-4 1317,-4"/>
</g>
<!-- ndEntry&#45;&gt;ndLruCache -->
<g id="edge1" class="edge"><title>ndEntry&#45;&gt;ndLruCache</title>
<path fill="none" stroke="black" d="M2533.08,-685.357C2508.9,-668.962 2481.05,-651.231 2454.5,-637 2313.86,-561.624 2152.6,-491.116 2011.96,-434.382"/>
<polygon fill="black" stroke="black" points="2002.3,-430.493 2013.25,-430.052 2006.93,-432.36 2011.57,-434.227 2011.57,-434.227 2011.57,-434.227 2006.93,-432.36 2009.89,-438.402 2002.3,-430.493 2002.3,-430.493"/>
</g>
<!-- ndVacantEntry -->
<g id="node2" class="node"><title>ndVacantEntry</title>
<polygon fill="lightblue" stroke="none" points="2338.5,-925.5 2338.5,-962.5 2610.5,-962.5 2610.5,-925.5 2338.5,-925.5"/>
<polygon fill="none" stroke="black" points="2338.5,-925.5 2338.5,-962.5 2610.5,-962.5 2610.5,-925.5 2338.5,-925.5"/>
<text text-anchor="start" x="2432" y="-941.3" font-family="Arial" font-weight="bold" font-size="14.00">VacantEntry</text>
<polygon fill="white" stroke="none" points="2338.5,-873.5 2338.5,-925.5 2610.5,-925.5 2610.5,-873.5 2338.5,-873.5"/>
<polygon fill="none" stroke="black" points="2338.5,-873.5 2338.5,-925.5 2610.5,-925.5 2610.5,-873.5 2338.5,-873.5"/>
<text text-anchor="start" x="2349.5" y="-903.3" font-family="Arial" font-size="14.00">&#45; key: Key</text>
<text text-anchor="start" x="2349.5" y="-888.3" font-family="Arial" font-size="14.00">&#45; cache: &amp;&#39;a mut LruCache&lt;Key, Value&gt;</text>
<polygon fill="none" stroke="black" points="2337.5,-873 2337.5,-964 2611.5,-964 2611.5,-873 2337.5,-873"/>
</g>
<!-- ndVacantEntry&#45;&gt;ndEntry -->
<g id="edge2" class="edge"><title>ndVacantEntry&#45;&gt;ndEntry</title>
<path fill="none" stroke="black" d="M2508.27,-868.861C2524.08,-846.075 2543.06,-818.738 2559.68,-794.801"/>
<polygon fill="black" stroke="black" points="2559.8,-794.63 2559.93,-787.421 2566.64,-784.773 2566.51,-791.983 2559.8,-794.63"/>
</g>
<!-- ndOccupiedEntry -->
<g id="node3" class="node"><title>ndOccupiedEntry</title>
<polygon fill="lightblue" stroke="none" points="2646.5,-918.5 2646.5,-955.5 2804.5,-955.5 2804.5,-918.5 2646.5,-918.5"/>
<polygon fill="none" stroke="black" points="2646.5,-918.5 2646.5,-955.5 2804.5,-955.5 2804.5,-918.5 2646.5,-918.5"/>
<text text-anchor="start" x="2673" y="-934.3" font-family="Arial" font-weight="bold" font-size="14.00">OccupiedEntry</text>
<polygon fill="white" stroke="none" points="2646.5,-881.5 2646.5,-918.5 2804.5,-918.5 2804.5,-881.5 2646.5,-881.5"/>
<polygon fill="none" stroke="black" points="2646.5,-881.5 2646.5,-918.5 2804.5,-918.5 2804.5,-881.5 2646.5,-881.5"/>
<text text-anchor="start" x="2657.5" y="-896.3" font-family="Arial" font-size="14.00">&#45; value: &amp;&#39;a mut Value</text>
<polygon fill="none" stroke="black" points="2645.5,-880.5 2645.5,-956.5 2805.5,-956.5 2805.5,-880.5 2645.5,-880.5"/>
</g>
<!-- ndOccupiedEntry&#45;&gt;ndEntry -->
<g id="edge3" class="edge"><title>ndOccupiedEntry&#45;&gt;ndEntry</title>
<path fill="none" stroke="black" d="M2697.14,-876.315C2680.53,-852.202 2659.28,-821.354 2640.95,-794.727"/>
<polygon fill="black" stroke="black" points="2640.88,-794.634 2634.18,-791.961 2634.07,-784.751 2640.77,-787.423 2640.88,-794.634"/>
</g>
<!-- ndIter -->
<g id="node5" class="node"><title>ndIter</title>
<polygon fill="lightblue" stroke="none" points="9.5,-791 9.5,-828 812.5,-828 812.5,-791 9.5,-791"/>
<polygon fill="none" stroke="black" points="9.5,-791 9.5,-828 812.5,-828 812.5,-791 9.5,-791"/>
<text text-anchor="start" x="399.5" y="-806.8" font-family="Arial" font-weight="bold" font-size="14.00">Iter</text>
<polygon fill="white" stroke="none" points="9.5,-709 9.5,-791 812.5,-791 812.5,-709 9.5,-709"/>
<polygon fill="none" stroke="black" points="9.5,-709 9.5,-791 812.5,-791 812.5,-709 9.5,-709"/>
<text text-anchor="start" x="20.5" y="-768.8" font-family="Arial" font-size="14.00">&#45; map: &amp;&#39;a mut BTreeMap&lt;Key, (Value, Instant)&gt;</text>
<text text-anchor="start" x="20.5" y="-753.8" font-family="Arial" font-size="14.00">&#45; list: &amp;&#39;a mut VecDeque&lt;Key&gt;</text>
<text text-anchor="start" x="20.5" y="-738.8" font-family="Arial" font-size="14.00">&#45; lru_cache_ttl: Option&lt;Duration&gt;</text>
<text text-anchor="start" x="20.5" y="-723.8" font-family="Arial" font-size="14.00">&#45; item_index: usize</text>
<polygon fill="white" stroke="none" points="9.5,-642 9.5,-709 812.5,-709 812.5,-642 9.5,-642"/>
<polygon fill="none" stroke="black" points="9.5,-642 9.5,-709 812.5,-709 812.5,-642 9.5,-642"/>
<text text-anchor="start" x="20.5" y="-686.8" font-family="Arial" font-size="14.00">&#45; new(map: &amp;&#39;a mut BTreeMap&lt;Key, (Value, Instant)&gt;, list: &amp;&#39;a mut VecDeque&lt;Key&gt;, lru_cache_ttl: Option&lt;Duration&gt;) &#45;&gt; Self</text>
<text text-anchor="start" x="20.5" y="-671.8" font-family="Arial" font-size="14.00">&#45; next_unexpired(&amp;mut self, now: Instant) &#45;&gt; Option&lt;Key&gt;</text>
<text text-anchor="start" x="20.5" y="-656.8" font-family="Arial" font-size="14.00">&#45; next(&amp;mut self) &#45;&gt; Option&lt;(&amp;&#39;a Key, &amp;&#39;a Value)&gt;</text>
<polygon fill="none" stroke="black" points="8,-641 8,-829 813,-829 813,-641 8,-641"/>
</g>
<!-- ndIter&#45;&gt;ndLruCache -->
<g id="edge4" class="edge"><title>ndIter&#45;&gt;ndLruCache</title>
<path fill="none" stroke="black" d="M689.902,-636.939C870.038,-574.361 1105.92,-492.42 1299.44,-425.19"/>
<polygon fill="black" stroke="black" points="1308.92,-421.899 1300.95,-429.431 1304.2,-423.54 1299.47,-425.18 1299.47,-425.18 1299.47,-425.18 1304.2,-423.54 1298,-420.93 1308.92,-421.899 1308.92,-421.899"/>
</g>
<!-- ndTimedEntry -->
<g id="node6" class="node"><title>ndTimedEntry</title>
<polygon fill="yellow" stroke="none" points="2840.5,-925.5 2840.5,-962.5 3017.5,-962.5 3017.5,-925.5 2840.5,-925.5"/>
<polygon fill="none" stroke="black" points="2840.5,-925.5 2840.5,-962.5 3017.5,-962.5 3017.5,-925.5 2840.5,-925.5"/>
<text text-anchor="start" x="2888" y="-941.3" font-family="Arial" font-weight="bold" font-size="14.00">TimedEntry</text>
<polygon fill="white" stroke="none" points="2840.5,-873.5 2840.5,-925.5 3017.5,-925.5 3017.5,-873.5 2840.5,-873.5"/>
<polygon fill="none" stroke="black" points="2840.5,-873.5 2840.5,-925.5 3017.5,-925.5 3017.5,-873.5 2840.5,-873.5"/>
<text text-anchor="start" x="2851.5" y="-903.3" font-family="Arial" font-size="14.00">Valid(&amp;&#39;a Key, &amp;&#39;a Value)</text>
<text text-anchor="start" x="2851.5" y="-888.3" font-family="Arial" font-size="14.00">Expired(Key, Value)</text>
<polygon fill="none" stroke="black" points="2839,-873 2839,-964 3018,-964 3018,-873 2839,-873"/>
</g>
<!-- ndNotifyIter -->
<g id="node7" class="node"><title>ndNotifyIter</title>
<polygon fill="lightblue" stroke="none" points="848.5,-783 848.5,-820 1651.5,-820 1651.5,-783 848.5,-783"/>
<polygon fill="none" stroke="black" points="848.5,-783 848.5,-820 1651.5,-820 1651.5,-783 848.5,-783"/>
<text text-anchor="start" x="1218.5" y="-798.8" font-family="Arial" font-weight="bold" font-size="14.00">NotifyIter</text>
<polygon fill="white" stroke="none" points="848.5,-701 848.5,-783 1651.5,-783 1651.5,-701 848.5,-701"/>
<polygon fill="none" stroke="black" points="848.5,-701 848.5,-783 1651.5,-783 1651.5,-701 848.5,-701"/>
<text text-anchor="start" x="859.5" y="-760.8" font-family="Arial" font-size="14.00">&#45; map: &amp;&#39;a mut BTreeMap&lt;Key, (Value, Instant)&gt;</text>
<text text-anchor="start" x="859.5" y="-745.8" font-family="Arial" font-size="14.00">&#45; list: &amp;&#39;a mut VecDeque&lt;Key&gt;</text>
<text text-anchor="start" x="859.5" y="-730.8" font-family="Arial" font-size="14.00">&#45; lru_cache_ttl: Option&lt;Duration&gt;</text>
<text text-anchor="start" x="859.5" y="-715.8" font-family="Arial" font-size="14.00">&#45; item_index: usize</text>
<polygon fill="white" stroke="none" points="848.5,-649 848.5,-701 1651.5,-701 1651.5,-649 848.5,-649"/>
<polygon fill="none" stroke="black" points="848.5,-649 848.5,-701 1651.5,-701 1651.5,-649 848.5,-649"/>
<text text-anchor="start" x="859.5" y="-678.8" font-family="Arial" font-size="14.00">&#45; new(map: &amp;&#39;a mut BTreeMap&lt;Key, (Value, Instant)&gt;, list: &amp;&#39;a mut VecDeque&lt;Key&gt;, lru_cache_ttl: Option&lt;Duration&gt;) &#45;&gt; Self</text>
<text text-anchor="start" x="859.5" y="-663.8" font-family="Arial" font-size="14.00">&#45; next(&amp;mut self) &#45;&gt; Option&lt;Self::Item&gt;</text>
<polygon fill="none" stroke="black" points="847,-648.5 847,-821.5 1652,-821.5 1652,-648.5 847,-648.5"/>
</g>
<!-- ndNotifyIter&#45;&gt;ndLruCache -->
<g id="edge5" class="edge"><title>ndNotifyIter&#45;&gt;ndLruCache</title>
<path fill="none" stroke="black" d="M1333.62,-644.386C1344.21,-633.113 1355.45,-621.132 1367.16,-608.658"/>
<polygon fill="black" stroke="black" points="1374.11,-601.257 1370.55,-611.628 1370.69,-604.903 1367.27,-608.548 1367.27,-608.548 1367.27,-608.548 1370.69,-604.903 1363.98,-605.468 1374.11,-601.257 1374.11,-601.257"/>
</g>
<!-- ndPeekIter -->
<g id="node8" class="node"><title>ndPeekIter</title>
<polygon fill="lightblue" stroke="none" points="1687.5,-791 1687.5,-828 2436.5,-828 2436.5,-791 1687.5,-791"/>
<polygon fill="none" stroke="black" points="1687.5,-791 1687.5,-828 2436.5,-828 2436.5,-791 1687.5,-791"/>
<text text-anchor="start" x="2033" y="-806.8" font-family="Arial" font-weight="bold" font-size="14.00">PeekIter</text>
<polygon fill="white" stroke="none" points="1687.5,-709 1687.5,-791 2436.5,-791 2436.5,-709 1687.5,-709"/>
<polygon fill="none" stroke="black" points="1687.5,-709 1687.5,-791 2436.5,-791 2436.5,-709 1687.5,-709"/>
<text text-anchor="start" x="1698.5" y="-768.8" font-family="Arial" font-size="14.00">&#45; map: &amp;&#39;a BTreeMap&lt;Key, (Value, Instant)&gt;</text>
<text text-anchor="start" x="1698.5" y="-753.8" font-family="Arial" font-size="14.00">&#45; list: &amp;&#39;a VecDeque&lt;Key&gt;</text>
<text text-anchor="start" x="1698.5" y="-738.8" font-family="Arial" font-size="14.00">&#45; lru_cache_ttl: Option&lt;Duration&gt;</text>
<text text-anchor="start" x="1698.5" y="-723.8" font-family="Arial" font-size="14.00">&#45; item_index: usize</text>
<polygon fill="white" stroke="none" points="1687.5,-642 1687.5,-709 2436.5,-709 2436.5,-642 1687.5,-642"/>
<polygon fill="none" stroke="black" points="1687.5,-642 1687.5,-709 2436.5,-709 2436.5,-642 1687.5,-642"/>
<text text-anchor="start" x="1698.5" y="-686.8" font-family="Arial" font-size="14.00">&#45; new(map: &amp;&#39;a BTreeMap&lt;Key, (Value, Instant)&gt;, list: &amp;&#39;a VecDeque&lt;Key&gt;, lru_cache_ttl: Option&lt;Duration&gt;) &#45;&gt; Self</text>
<text text-anchor="start" x="1698.5" y="-671.8" font-family="Arial" font-size="14.00">&#45; next_unexpired(&amp;mut self, now: Instant) &#45;&gt; Option&lt;()&gt;</text>
<text text-anchor="start" x="1698.5" y="-656.8" font-family="Arial" font-size="14.00">&#45; next(&amp;mut self) &#45;&gt; Option&lt;(&amp;&#39;a Key, &amp;&#39;a Value)&gt;</text>
<polygon fill="none" stroke="black" points="1686,-641 1686,-829 2437,-829 2437,-641 1686,-641"/>
</g>
<!-- ndPeekIter&#45;&gt;ndLruCache -->
<g id="edge6" class="edge"><title>ndPeekIter&#45;&gt;ndLruCache</title>
<path fill="none" stroke="black" d="M1970.39,-636.939C1961.91,-627.908 1953.05,-618.475 1943.92,-608.741"/>
<polygon fill="black" stroke="black" points="1936.87,-601.24 1947,-605.451 1940.3,-604.886 1943.72,-608.531 1943.72,-608.531 1943.72,-608.531 1940.3,-604.886 1940.44,-611.611 1936.87,-601.24 1936.87,-601.24"/>
</g>
</g>
</svg>
