<?xml version="1.0" encoding="UTF-8" standalone="no"?>
<!DOCTYPE svg PUBLIC "-//W3C//DTD SVG 1.1//EN"
 "http://www.w3.org/Graphics/SVG/1.1/DTD/svg11.dtd">
<!-- Generated by graphviz version 2.38.0 (20140413.2041)
 -->
<!-- Title: ml Pages: 1 -->
<svg width="742pt" height="314pt"
 viewBox="0.00 0.00 741.50 314.00" xmlns="http://www.w3.org/2000/svg" xmlns:xlink="http://www.w3.org/1999/xlink">
<g id="graph0" class="graph" transform="scale(1 1) rotate(0) translate(4 310)">
<title>ml</title>
<polygon fill="white" stroke="none" points="-4,4 -4,-310 737.5,-310 737.5,4 -4,4"/>
<!-- ndEntry -->
<g id="node1" class="node"><title>ndEntry</title>
<g id="a_node1_0"><a xlink:href="https://github.com/maidsafe/lru_time_cache/blob/master/src/lib.rs#:~:text=enum%20Entry" xlink:title="&lt;TABLE&gt;">
<polygon fill="yellow" stroke="none" points="276,-128.5 276,-165.5 533,-165.5 533,-128.5 276,-128.5"/>
<polygon fill="none" stroke="black" points="276,-128.5 276,-165.5 533,-165.5 533,-128.5 276,-128.5"/>
<text text-anchor="start" x="385.5" y="-144.3" font-family="Arial" font-weight="bold" font-size="14.00">Entry</text>
<polygon fill="white" stroke="none" points="276,-76.5 276,-128.5 533,-128.5 533,-76.5 276,-76.5"/>
<polygon fill="none" stroke="black" points="276,-76.5 276,-128.5 533,-128.5 533,-76.5 276,-76.5"/>
<text text-anchor="start" x="287" y="-106.3" font-family="Arial" font-size="14.00">Vacant(VacantEntry&lt;&#39;a, Key, Value&gt;)</text>
<text text-anchor="start" x="287" y="-91.3" font-family="Arial" font-size="14.00">Occupied(OccupiedEntry&lt;&#39;a, Value&gt;)</text>
<polygon fill="none" stroke="black" points="274.5,-76 274.5,-167 533.5,-167 533.5,-76 274.5,-76"/>
</a>
</g>
</g>
<!-- ndLruCache -->
<g id="node4" class="node"><title>ndLruCache</title>
<text text-anchor="middle" x="162" y="-14.3" font-family="Times,serif" font-size="14.00">ndLruCache</text>
</g>
<!-- ndEntry&#45;&gt;ndLruCache -->
<g id="edge1" class="edge"><title>ndEntry&#45;&gt;ndLruCache</title>
<path fill="none" stroke="black" d="M288.316,-71.9796C261.414,-60.6964 234.161,-49.2659 211.89,-39.9249"/>
<polygon fill="black" stroke="black" points="202.666,-36.0561 213.628,-35.7742 207.277,-37.99 211.887,-39.9239 211.887,-39.9239 211.887,-39.9239 207.277,-37.99 210.147,-44.0737 202.666,-36.0561 202.666,-36.0561"/>
</g>
<!-- ndVacantEntry -->
<g id="node2" class="node"><title>ndVacantEntry</title>
<text text-anchor="middle" x="342" y="-252.8" font-family="Times,serif" font-size="14.00">ndVacantEntry</text>
</g>
<!-- ndVacantEntry&#45;&gt;ndEntry -->
<g id="edge2" class="edge"><title>ndVacantEntry&#45;&gt;ndEntry</title>
<path fill="none" stroke="black" d="M349.978,-238.385C356.687,-223.993 366.692,-202.531 376.275,-181.975"/>
<polygon fill="black" stroke="black" points="376.309,-181.902 375.218,-174.774 381.379,-171.026 382.469,-178.154 376.309,-181.902"/>
</g>
<!-- ndOccupiedEntry -->
<g id="node3" class="node"><title>ndOccupiedEntry</title>
<text text-anchor="middle" x="465" y="-252.8" font-family="Times,serif" font-size="14.00">ndOccupiedEntry</text>
</g>
<!-- ndOccupiedEntry&#45;&gt;ndEntry -->
<g id="edge3" class="edge"><title>ndOccupiedEntry&#45;&gt;ndEntry</title>
<path fill="none" stroke="black" d="M457.15,-238.385C450.549,-223.993 440.706,-202.531 431.278,-181.975"/>
<polygon fill="black" stroke="black" points="431.259,-181.934 425.122,-178.147 426.256,-171.026 432.394,-174.812 431.259,-181.934"/>
</g>
<!-- ndIter -->
<g id="node5" class="node"><title>ndIter</title>
<text text-anchor="middle" x="27" y="-117.8" font-family="Times,serif" font-size="14.00">ndIter</text>
</g>
<!-- ndIter&#45;&gt;ndLruCache -->
<g id="edge4" class="edge"><title>ndIter&#45;&gt;ndLruCache</title>
<path fill="none" stroke="black" d="M37.0773,-103.29C43.5566,-93.2732 52.6788,-80.9055 63,-72 77.3223,-59.6422 95.0101,-49.0383 111.455,-40.6339"/>
<polygon fill="black" stroke="black" points="120.433,-36.194 113.464,-44.6605 115.951,-38.4104 111.469,-40.6267 111.469,-40.6267 111.469,-40.6267 115.951,-38.4104 109.475,-36.593 120.433,-36.194 120.433,-36.194"/>
</g>
<!-- ndTimedEntry -->
<g id="node6" class="node"><title>ndTimedEntry</title>
<g id="a_node6_1"><a xlink:href="https://github.com/maidsafe/lru_time_cache/blob/master/src/iter.rs#:~:text=enum%20TimedEntry" xlink:title="&lt;TABLE&gt;">
<polygon fill="yellow" stroke="none" points="548,-263.5 548,-300.5 725,-300.5 725,-263.5 548,-263.5"/>
<polygon fill="none" stroke="black" points="548,-263.5 548,-300.5 725,-300.5 725,-263.5 548,-263.5"/>
<text text-anchor="start" x="595.5" y="-279.3" font-family="Arial" font-weight="bold" font-size="14.00">TimedEntry</text>
<polygon fill="white" stroke="none" points="548,-211.5 548,-263.5 725,-263.5 725,-211.5 548,-211.5"/>
<polygon fill="none" stroke="black" points="548,-211.5 548,-263.5 725,-263.5 725,-211.5 548,-211.5"/>
<text text-anchor="start" x="559" y="-241.3" font-family="Arial" font-size="14.00">Valid(&amp;&#39;a Key, &amp;&#39;a Value)</text>
<text text-anchor="start" x="559" y="-226.3" font-family="Arial" font-size="14.00">Expired(Key, Value)</text>
<polygon fill="none" stroke="black" points="546.5,-211 546.5,-302 725.5,-302 725.5,-211 546.5,-211"/>
</a>
</g>
</g>
<!-- ndNotifyIter -->
<g id="node7" class="node"><title>ndNotifyIter</title>
<text text-anchor="middle" x="114" y="-117.8" font-family="Times,serif" font-size="14.00">ndNotifyIter</text>
</g>
<!-- ndNotifyIter&#45;&gt;ndLruCache -->
<g id="edge5" class="edge"><title>ndNotifyIter&#45;&gt;ndLruCache</title>
<path fill="none" stroke="black" d="M122.143,-103.282C129.624,-87.4607 140.828,-63.7699 149.453,-45.5309"/>
<polygon fill="black" stroke="black" points="153.818,-36.3026 153.61,-47.2665 151.68,-40.8226 149.542,-45.3427 149.542,-45.3427 149.542,-45.3427 151.68,-40.8226 145.474,-43.4188 153.818,-36.3026 153.818,-36.3026"/>
</g>
<!-- ndPeekIter -->
<g id="node8" class="node"><title>ndPeekIter</title>
<text text-anchor="middle" x="211" y="-117.8" font-family="Times,serif" font-size="14.00">ndPeekIter</text>
</g>
<!-- ndPeekIter&#45;&gt;ndLruCache -->
<g id="edge6" class="edge"><title>ndPeekIter&#45;&gt;ndLruCache</title>
<path fill="none" stroke="black" d="M202.688,-103.282C195.05,-87.4607 183.613,-63.7699 174.808,-45.5309"/>
<polygon fill="black" stroke="black" points="170.353,-36.3026 178.753,-43.3517 172.527,-40.8053 174.701,-45.3081 174.701,-45.3081 174.701,-45.3081 172.527,-40.8053 170.648,-47.2645 170.353,-36.3026 170.353,-36.3026"/>
</g>
</g>
</svg>
