<?xml version="1.0" encoding="UTF-8" standalone="no"?>
<!DOCTYPE svg PUBLIC "-//W3C//DTD SVG 1.1//EN"
 "http://www.w3.org/Graphics/SVG/1.1/DTD/svg11.dtd">
<!-- Generated by graphviz version 2.38.0 (20140413.2041)
 -->
<!-- Title: ml Pages: 1 -->
<svg width="655pt" height="221pt"
 viewBox="0.00 0.00 654.50 221.00" xmlns="http://www.w3.org/2000/svg" xmlns:xlink="http://www.w3.org/1999/xlink">
<g id="graph0" class="graph" transform="scale(1 1) rotate(0) translate(4 217)">
<title>ml</title>
<polygon fill="white" stroke="none" points="-4,4 -4,-217 650.5,-217 650.5,4 -4,4"/>
<!-- ndEntry -->
<g id="node1" class="node"><title>ndEntry</title>
<polygon fill="yellow" stroke="none" points="327.5,-87.5 327.5,-124.5 387.5,-124.5 387.5,-87.5 327.5,-87.5"/>
<polygon fill="none" stroke="black" points="327.5,-87.5 327.5,-124.5 387.5,-124.5 387.5,-87.5 327.5,-87.5"/>
<text text-anchor="start" x="338.5" y="-103.3" font-family="Arial" font-weight="bold" font-size="14.00">Entry</text>
<polygon fill="none" stroke="black" points="326.5,-87 326.5,-126 388.5,-126 388.5,-87 326.5,-87"/>
</g>
<!-- ndLruCache -->
<g id="node4" class="node"><title>ndLruCache</title>
<polygon fill="lightblue" stroke="none" points="146.5,-4.5 146.5,-41.5 237.5,-41.5 237.5,-4.5 146.5,-4.5"/>
<polygon fill="none" stroke="black" points="146.5,-4.5 146.5,-41.5 237.5,-41.5 237.5,-4.5 146.5,-4.5"/>
<text text-anchor="start" x="157.5" y="-20.3" font-family="Arial" font-weight="bold" font-size="14.00">LruCache</text>
<polygon fill="none" stroke="black" points="145,-4 145,-43 238,-43 238,-4 145,-4"/>
</g>
<!-- ndEntry&#45;&gt;ndLruCache -->
<g id="edge1" class="edge"><title>ndEntry&#45;&gt;ndLruCache</title>
<path fill="none" stroke="black" d="M318.16,-86.3041C296.831,-75.8964 270.124,-62.8647 246.739,-51.4542"/>
<polygon fill="black" stroke="black" points="237.623,-47.0059 248.584,-47.347 242.117,-49.1985 246.61,-51.3912 246.61,-51.3912 246.61,-51.3912 242.117,-49.1985 244.637,-55.4354 237.623,-47.0059 237.623,-47.0059"/>
</g>
<!-- ndVacantEntry -->
<g id="node2" class="node"><title>ndVacantEntry</title>
<polygon fill="lightblue" stroke="none" points="227.5,-170.5 227.5,-207.5 334.5,-207.5 334.5,-170.5 227.5,-170.5"/>
<polygon fill="none" stroke="black" points="227.5,-170.5 227.5,-207.5 334.5,-207.5 334.5,-170.5 227.5,-170.5"/>
<text text-anchor="start" x="238.5" y="-186.3" font-family="Arial" font-weight="bold" font-size="14.00">VacantEntry</text>
<polygon fill="none" stroke="black" points="226,-170 226,-209 335,-209 335,-170 226,-170"/>
</g>
<!-- ndVacantEntry&#45;&gt;ndEntry -->
<g id="edge2" class="edge"><title>ndVacantEntry&#45;&gt;ndEntry</title>
<path fill="none" stroke="black" d="M301.949,-165.937C309.892,-157.581 319.049,-147.949 327.607,-138.946"/>
<polygon fill="black" stroke="black" points="327.631,-138.92 328.866,-131.816 335.899,-130.223 334.664,-137.328 327.631,-138.92"/>
</g>
<!-- ndOccupiedEntry -->
<g id="node3" class="node"><title>ndOccupiedEntry</title>
<polygon fill="lightblue" stroke="none" points="370.5,-170.5 370.5,-207.5 497.5,-207.5 497.5,-170.5 370.5,-170.5"/>
<polygon fill="none" stroke="black" points="370.5,-170.5 370.5,-207.5 497.5,-207.5 497.5,-170.5 370.5,-170.5"/>
<text text-anchor="start" x="381.5" y="-186.3" font-family="Arial" font-weight="bold" font-size="14.00">OccupiedEntry</text>
<polygon fill="none" stroke="black" points="369,-170 369,-209 498,-209 498,-170 369,-170"/>
</g>
<!-- ndOccupiedEntry&#45;&gt;ndEntry -->
<g id="edge3" class="edge"><title>ndOccupiedEntry&#45;&gt;ndEntry</title>
<path fill="none" stroke="black" d="M412.33,-165.937C404.571,-157.668 395.64,-148.149 387.269,-139.227"/>
<polygon fill="black" stroke="black" points="387.031,-138.974 380.009,-137.335 378.82,-130.223 385.843,-131.862 387.031,-138.974"/>
</g>
<!-- ndIter -->
<g id="node5" class="node"><title>ndIter</title>
<polygon fill="lightblue" stroke="none" points="9.5,-87.5 9.5,-124.5 54.5,-124.5 54.5,-87.5 9.5,-87.5"/>
<polygon fill="none" stroke="black" points="9.5,-87.5 9.5,-124.5 54.5,-124.5 54.5,-87.5 9.5,-87.5"/>
<text text-anchor="start" x="20.5" y="-103.3" font-family="Arial" font-weight="bold" font-size="14.00">Iter</text>
<polygon fill="none" stroke="black" points="8,-87 8,-126 55,-126 55,-87 8,-87"/>
</g>
<!-- ndIter&#45;&gt;ndLruCache -->
<g id="edge4" class="edge"><title>ndIter&#45;&gt;ndLruCache</title>
<path fill="none" stroke="black" d="M63.2083,-87.9156C66.3378,-86.2354 69.4743,-84.5729 72.5,-83 92.7784,-72.4582 115.225,-61.2948 135.109,-51.5774"/>
<polygon fill="black" stroke="black" points="144.344,-47.0775 137.326,-55.503 139.85,-49.2676 135.355,-51.4577 135.355,-51.4577 135.355,-51.4577 139.85,-49.2676 133.384,-47.4123 144.344,-47.0775 144.344,-47.0775"/>
</g>
<!-- ndTimedEntry -->
<g id="node6" class="node"><title>ndTimedEntry</title>
<polygon fill="yellow" stroke="none" points="533.5,-170.5 533.5,-207.5 637.5,-207.5 637.5,-170.5 533.5,-170.5"/>
<polygon fill="none" stroke="black" points="533.5,-170.5 533.5,-207.5 637.5,-207.5 637.5,-170.5 533.5,-170.5"/>
<text text-anchor="start" x="544.5" y="-186.3" font-family="Arial" font-weight="bold" font-size="14.00">TimedEntry</text>
<polygon fill="none" stroke="black" points="532.5,-170 532.5,-209 638.5,-209 638.5,-170 532.5,-170"/>
</g>
<!-- ndNotifyIter -->
<g id="node7" class="node"><title>ndNotifyIter</title>
<polygon fill="lightblue" stroke="none" points="90.5,-87.5 90.5,-124.5 175.5,-124.5 175.5,-87.5 90.5,-87.5"/>
<polygon fill="none" stroke="black" points="90.5,-87.5 90.5,-124.5 175.5,-124.5 175.5,-87.5 90.5,-87.5"/>
<text text-anchor="start" x="101.5" y="-103.3" font-family="Arial" font-weight="bold" font-size="14.00">NotifyIter</text>
<polygon fill="none" stroke="black" points="89,-87 89,-126 176,-126 176,-87 89,-87"/>
</g>
<!-- ndNotifyIter&#45;&gt;ndLruCache -->
<g id="edge5" class="edge"><title>ndNotifyIter&#45;&gt;ndLruCache</title>
<path fill="none" stroke="black" d="M148.935,-82.937C155.148,-74.4071 162.33,-64.547 169.004,-55.3839"/>
<polygon fill="black" stroke="black" points="174.949,-47.2229 172.698,-57.9555 172.005,-51.2645 169.061,-55.306 169.061,-55.306 169.061,-55.306 172.005,-51.2645 165.424,-52.6565 174.949,-47.2229 174.949,-47.2229"/>
</g>
<!-- ndPeekIter -->
<g id="node8" class="node"><title>ndPeekIter</title>
<polygon fill="lightblue" stroke="none" points="211.5,-87.5 211.5,-124.5 291.5,-124.5 291.5,-87.5 211.5,-87.5"/>
<polygon fill="none" stroke="black" points="211.5,-87.5 211.5,-124.5 291.5,-124.5 291.5,-87.5 211.5,-87.5"/>
<text text-anchor="start" x="222.5" y="-103.3" font-family="Arial" font-weight="bold" font-size="14.00">PeekIter</text>
<polygon fill="none" stroke="black" points="210.5,-87 210.5,-126 292.5,-126 292.5,-87 210.5,-87"/>
</g>
<!-- ndPeekIter&#45;&gt;ndLruCache -->
<g id="edge6" class="edge"><title>ndPeekIter&#45;&gt;ndLruCache</title>
<path fill="none" stroke="black" d="M234.787,-82.937C228.468,-74.4071 221.164,-64.547 214.377,-55.3839"/>
<polygon fill="black" stroke="black" points="208.332,-47.2229 217.9,-52.58 211.308,-51.2407 214.284,-55.2585 214.284,-55.2585 214.284,-55.2585 211.308,-51.2407 210.668,-57.9371 208.332,-47.2229 208.332,-47.2229"/>
</g>
</g>
</svg>
