<?xml version="1.0" encoding="UTF-8" standalone="no"?>
<!DOCTYPE svg PUBLIC "-//W3C//DTD SVG 1.1//EN"
 "http://www.w3.org/Graphics/SVG/1.1/DTD/svg11.dtd">
<!-- Generated by graphviz version 2.38.0 (20140413.2041)
 -->
<!-- Title: ml Pages: 1 -->
<svg width="3122pt" height="953pt"
 viewBox="0.00 0.00 3122.00 953.00" xmlns="http://www.w3.org/2000/svg" xmlns:xlink="http://www.w3.org/1999/xlink">
<g id="graph0" class="graph" transform="scale(1 1) rotate(0) translate(4 949)">
<title>ml</title>
<polygon fill="white" stroke="none" points="-4,4 -4,-949 3118,-949 3118,4 -4,4"/>
<!-- ndEntry -->
<g id="node1" class="node"><title>ndEntry</title>
<g id="a_node1_0"><a xlink:href="https://github.com/maidsafe/lru_time_cache/blob/master/src/lib.rs#:~:text=enum%20Entry" xlink:title="&lt;TABLE&gt;">
<polygon fill="yellow" stroke="none" points="2472.5,-708 2472.5,-745 2796.5,-745 2796.5,-708 2472.5,-708"/>
<polygon fill="none" stroke="black" points="2472.5,-708 2472.5,-745 2796.5,-745 2796.5,-708 2472.5,-708"/>
<text text-anchor="start" x="2615.5" y="-723.8" font-family="Arial" font-weight="bold" font-size="14.00">Entry</text>
<polygon fill="white" stroke="none" points="2472.5,-656 2472.5,-708 2796.5,-708 2796.5,-656 2472.5,-656"/>
<polygon fill="none" stroke="black" points="2472.5,-656 2472.5,-708 2796.5,-708 2796.5,-656 2472.5,-656"/>
<text text-anchor="start" x="2483.5" y="-685.8" font-family="Arial" font-size="14.00">Vacant(VacantEntry&lt;&#39;a, Key, Value&gt;)</text>
<text text-anchor="start" x="2483.5" y="-670.8" font-family="Arial" font-size="14.00">Occupied(OccupiedEntry&lt;&#39;a, Value&gt;)</text>
<polygon fill="white" stroke="none" points="2472.5,-604 2472.5,-656 2796.5,-656 2796.5,-604 2472.5,-604"/>
<polygon fill="none" stroke="black" points="2472.5,-604 2472.5,-656 2796.5,-656 2796.5,-604 2472.5,-604"/>
<text text-anchor="start" x="2483.5" y="-633.8" font-family="Arial" font-size="14.00">&#45; or_insert(self, default: Value) &#45;&gt; &amp;&#39;a mut Value</text>
<text text-anchor="start" x="2483.5" y="-618.8" font-family="Arial" font-size="14.00">&#45; or_insert_with(self, default: F) &#45;&gt; &amp;&#39;a mut Value</text>
<polygon fill="none" stroke="black" points="2471.5,-603.5 2471.5,-746.5 2797.5,-746.5 2797.5,-603.5 2471.5,-603.5"/>
</a>
</g>
</g>
<!-- ndLruCache -->
<g id="node4" class="node"><title>ndLruCache</title>
<g id="a_node4_1"><a xlink:href="https://github.com/maidsafe/lru_time_cache/blob/master/src/lib.rs#:~:text=struct%20LruCache" xlink:title="&lt;TABLE&gt;">
<polygon fill="lightblue" stroke="none" points="1318.5,-498.5 1318.5,-535.5 1993.5,-535.5 1993.5,-498.5 1318.5,-498.5"/>
<polygon fill="none" stroke="black" points="1318.5,-498.5 1318.5,-535.5 1993.5,-535.5 1993.5,-498.5 1318.5,-498.5"/>
<text text-anchor="start" x="1621.5" y="-514.3" font-family="Arial" font-weight="bold" font-size="14.00">LruCache</text>
<polygon fill="white" stroke="none" points="1318.5,-416.5 1318.5,-498.5 1993.5,-498.5 1993.5,-416.5 1318.5,-416.5"/>
<polygon fill="none" stroke="black" points="1318.5,-416.5 1318.5,-498.5 1993.5,-498.5 1993.5,-416.5 1318.5,-416.5"/>
<text text-anchor="start" x="1329.5" y="-476.3" font-family="Arial" font-size="14.00">&#45; map: BTreeMap&lt;Key, (Value, Instant)&gt;</text>
<text text-anchor="start" x="1329.5" y="-461.3" font-family="Arial" font-size="14.00">&#45; list: VecDeque&lt;Key&gt;</text>
<text text-anchor="start" x="1329.5" y="-446.3" font-family="Arial" font-size="14.00">&#45; capacity: usize</text>
<text text-anchor="start" x="1329.5" y="-431.3" font-family="Arial" font-size="14.00">&#45; time_to_live: Option&lt;Duration&gt;</text>
<polygon fill="white" stroke="none" points="1318.5,-4.5 1318.5,-416.5 1993.5,-416.5 1993.5,-4.5 1318.5,-4.5"/>
<polygon fill="none" stroke="black" points="1318.5,-4.5 1318.5,-416.5 1993.5,-416.5 1993.5,-4.5 1318.5,-4.5"/>
<text text-anchor="start" x="1329.5" y="-394.3" font-family="Arial" font-size="14.00">&#45; with_capacity(capacity: usize) &#45;&gt; LruCache&lt;Key, Value&gt;</text>
<text text-anchor="start" x="1329.5" y="-379.3" font-family="Arial" font-size="14.00">&#45; with_expiry_duration(time_to_live: Duration) &#45;&gt; LruCache&lt;Key, Value&gt;</text>
<text text-anchor="start" x="1329.5" y="-364.3" font-family="Arial" font-size="14.00">&#45; with_expiry_duration_and_capacity(time_to_live: Duration, capacity: usize) &#45;&gt; LruCache&lt;Key, Value&gt;</text>
<text text-anchor="start" x="1329.5" y="-349.3" font-family="Arial" font-size="14.00">&#45; notify_insert(&amp;mut self, key: Key, value: Value) &#45;&gt; (Option&lt;Value&gt;, Vec&lt;(Key, Value)&gt;)</text>
<text text-anchor="start" x="1329.5" y="-334.3" font-family="Arial" font-size="14.00">&#45; insert(&amp;mut self, key: Key, value: Value) &#45;&gt; Option&lt;Value&gt;</text>
<text text-anchor="start" x="1329.5" y="-319.3" font-family="Arial" font-size="14.00">&#45; remove(&amp;mut self, key: &amp;Q) &#45;&gt; Option&lt;Value&gt;</text>
<text text-anchor="start" x="1329.5" y="-304.3" font-family="Arial" font-size="14.00">&#45; clear(&amp;mut self)</text>
<text text-anchor="start" x="1329.5" y="-289.3" font-family="Arial" font-size="14.00">&#45; notify_get(&amp;mut self, key: &amp;Q) &#45;&gt; (Option&lt;&amp;Value&gt;, Vec&lt;(Key, Value)&gt;)</text>
<text text-anchor="start" x="1329.5" y="-274.3" font-family="Arial" font-size="14.00">&#45; get(&amp;mut self, key: &amp;Q) &#45;&gt; Option&lt;&amp;Value&gt;</text>
<text text-anchor="start" x="1329.5" y="-259.3" font-family="Arial" font-size="14.00">&#45; peek(&amp;self, key: &amp;Q) &#45;&gt; Option&lt;&amp;Value&gt;</text>
<text text-anchor="start" x="1329.5" y="-244.3" font-family="Arial" font-size="14.00">&#45; notify_get_mut(&amp;mut self, key: &amp;Q) &#45;&gt; (Option&lt;&amp;mut Value&gt;, Vec&lt;(Key, Value)&gt;)</text>
<text text-anchor="start" x="1329.5" y="-229.3" font-family="Arial" font-size="14.00">&#45; get_mut(&amp;mut self, key: &amp;Q) &#45;&gt; Option&lt;&amp;mut Value&gt;</text>
<text text-anchor="start" x="1329.5" y="-214.3" font-family="Arial" font-size="14.00">&#45; contains_key(&amp;self, key: &amp;Q) &#45;&gt; bool</text>
<text text-anchor="start" x="1329.5" y="-199.3" font-family="Arial" font-size="14.00">&#45; len(&amp;self) &#45;&gt; usize</text>
<text text-anchor="start" x="1329.5" y="-184.3" font-family="Arial" font-size="14.00">&#45; is_empty(&amp;self) &#45;&gt; bool</text>
<text text-anchor="start" x="1329.5" y="-169.3" font-family="Arial" font-size="14.00">&#45; entry(&amp;mut self, key: Key) &#45;&gt; Entry&lt;&#39;_, Key, Value&gt;</text>
<text text-anchor="start" x="1329.5" y="-154.3" font-family="Arial" font-size="14.00">&#45; notify_iter(&amp;mut self) &#45;&gt; NotifyIter&lt;&#39;_, Key, Value&gt;</text>
<text text-anchor="start" x="1329.5" y="-139.3" font-family="Arial" font-size="14.00">&#45; iter(&amp;mut self) &#45;&gt; Iter&lt;&#39;_, Key, Value&gt;</text>
<text text-anchor="start" x="1329.5" y="-124.3" font-family="Arial" font-size="14.00">&#45; peek_iter(&amp;self) &#45;&gt; PeekIter&lt;&#39;_, Key, Value&gt;</text>
<text text-anchor="start" x="1329.5" y="-109.3" font-family="Arial" font-size="14.00">&#45; update_key(list: &amp;mut VecDeque&lt;Key&gt;, key: &amp;Q)</text>
<text text-anchor="start" x="1329.5" y="-94.3" font-family="Arial" font-size="14.00">&#45; do_notify_get_mut(&amp;mut self, key: &amp;Q, now: Instant) &#45;&gt; (Option&lt;&amp;mut Value&gt;, Vec&lt;(Key, Value)&gt;)</text>
<text text-anchor="start" x="1329.5" y="-79.3" font-family="Arial" font-size="14.00">&#45; do_notify_insert(&amp;mut self, key: Key, value: Value, now: Instant) &#45;&gt; (Option&lt;Value&gt;, Vec&lt;(Key, Value)&gt;)</text>
<text text-anchor="start" x="1329.5" y="-64.3" font-family="Arial" font-size="14.00">&#45; do_peek(&amp;self, key: &amp;Q, now: Instant) &#45;&gt; Option&lt;&amp;Value&gt;</text>
<text text-anchor="start" x="1329.5" y="-49.3" font-family="Arial" font-size="14.00">&#45; remove_expired(&amp;mut self, now: Instant) &#45;&gt; Vec&lt;(Key, Value)&gt;</text>
<text text-anchor="start" x="1329.5" y="-34.3" font-family="Arial" font-size="14.00">&#45; remove_lru(&amp;mut self)</text>
<text text-anchor="start" x="1329.5" y="-19.3" font-family="Arial" font-size="14.00">&#45; clone(&amp;self) &#45;&gt; LruCache&lt;Key, Value&gt;</text>
<polygon fill="none" stroke="black" points="1317,-4 1317,-537 1994,-537 1994,-4 1317,-4"/>
</a>
</g>
</g>
<!-- ndEntry&#45;&gt;ndLruCache -->
<g id="edge1" class="edge"><title>ndEntry&#45;&gt;ndLruCache</title>
<path fill="none" stroke="black" d="M2500.31,-599.256C2485,-591.457 2469.51,-583.877 2454.5,-577 2312.13,-511.753 2151.48,-448.422 2011.76,-396.5"/>
<polygon fill="black" stroke="black" points="2002.17,-392.939 2013.11,-392.199 2006.85,-394.678 2011.54,-396.418 2011.54,-396.418 2011.54,-396.418 2006.85,-394.678 2009.98,-400.637 2002.17,-392.939 2002.17,-392.939"/>
</g>
<!-- ndVacantEntry -->
<g id="node2" class="node"><title>ndVacantEntry</title>
<g id="a_node2_2"><a xlink:href="https://github.com/maidsafe/lru_time_cache/blob/master/src/lib.rs#:~:text=struct%20VacantEntry" xlink:title="&lt;TABLE&gt;">
<polygon fill="lightblue" stroke="none" points="2345.5,-903 2345.5,-940 2632.5,-940 2632.5,-903 2345.5,-903"/>
<polygon fill="none" stroke="black" points="2345.5,-903 2345.5,-940 2632.5,-940 2632.5,-903 2345.5,-903"/>
<text text-anchor="start" x="2446.5" y="-918.8" font-family="Arial" font-weight="bold" font-size="14.00">VacantEntry</text>
<polygon fill="white" stroke="none" points="2345.5,-851 2345.5,-903 2632.5,-903 2632.5,-851 2345.5,-851"/>
<polygon fill="none" stroke="black" points="2345.5,-851 2345.5,-903 2632.5,-903 2632.5,-851 2345.5,-851"/>
<text text-anchor="start" x="2356.5" y="-880.8" font-family="Arial" font-size="14.00">&#45; key: Key</text>
<text text-anchor="start" x="2356.5" y="-865.8" font-family="Arial" font-size="14.00">&#45; cache: &amp;&#39;a mut LruCache&lt;Key, Value&gt;</text>
<polygon fill="white" stroke="none" points="2345.5,-814 2345.5,-851 2632.5,-851 2632.5,-814 2345.5,-814"/>
<polygon fill="none" stroke="black" points="2345.5,-814 2345.5,-851 2632.5,-851 2632.5,-814 2345.5,-814"/>
<text text-anchor="start" x="2356.5" y="-828.8" font-family="Arial" font-size="14.00">&#45; insert(self, value: Value) &#45;&gt; &amp;&#39;a mut Value</text>
<polygon fill="none" stroke="black" points="2344,-813 2344,-941 2633,-941 2633,-813 2344,-813"/>
</a>
</g>
</g>
<!-- ndVacantEntry&#45;&gt;ndEntry -->
<g id="edge2" class="edge"><title>ndVacantEntry&#45;&gt;ndEntry</title>
<path fill="none" stroke="black" d="M2537.52,-808.847C2548.84,-793.34 2561.03,-776.649 2572.81,-760.509"/>
<polygon fill="black" stroke="black" points="2573.01,-760.239 2573.31,-753.035 2580.08,-750.547 2579.77,-757.752 2573.01,-760.239"/>
</g>
<!-- ndOccupiedEntry -->
<g id="node3" class="node"><title>ndOccupiedEntry</title>
<g id="a_node3_3"><a xlink:href="https://github.com/maidsafe/lru_time_cache/blob/master/src/lib.rs#:~:text=struct%20OccupiedEntry" xlink:title="&lt;TABLE&gt;">
<polygon fill="lightblue" stroke="none" points="2668.5,-895 2668.5,-932 2892.5,-932 2892.5,-895 2668.5,-895"/>
<polygon fill="none" stroke="black" points="2668.5,-895 2668.5,-932 2892.5,-932 2892.5,-895 2668.5,-895"/>
<text text-anchor="start" x="2728" y="-910.8" font-family="Arial" font-weight="bold" font-size="14.00">OccupiedEntry</text>
<polygon fill="white" stroke="none" points="2668.5,-858 2668.5,-895 2892.5,-895 2892.5,-858 2668.5,-858"/>
<polygon fill="none" stroke="black" points="2668.5,-858 2668.5,-895 2892.5,-895 2892.5,-858 2668.5,-858"/>
<text text-anchor="start" x="2679.5" y="-872.8" font-family="Arial" font-size="14.00">&#45; value: &amp;&#39;a mut Value</text>
<polygon fill="white" stroke="none" points="2668.5,-821 2668.5,-858 2892.5,-858 2892.5,-821 2668.5,-821"/>
<polygon fill="none" stroke="black" points="2668.5,-821 2668.5,-858 2892.5,-858 2892.5,-821 2668.5,-821"/>
<text text-anchor="start" x="2679.5" y="-835.8" font-family="Arial" font-size="14.00">&#45; into_mut(self) &#45;&gt; &amp;&#39;a mut Value</text>
<polygon fill="none" stroke="black" points="2667.5,-820.5 2667.5,-933.5 2893.5,-933.5 2893.5,-820.5 2667.5,-820.5"/>
</a>
</g>
</g>
<!-- ndOccupiedEntry&#45;&gt;ndEntry -->
<g id="edge3" class="edge"><title>ndOccupiedEntry&#45;&gt;ndEntry</title>
<path fill="none" stroke="black" d="M2736.89,-816.264C2724.08,-798.719 2709.83,-779.189 2696.12,-760.41"/>
<polygon fill="black" stroke="black" points="2696.09,-760.365 2689.32,-757.878 2689.01,-750.673 2695.78,-753.161 2696.09,-760.365"/>
</g>
<!-- ndIter -->
<g id="node5" class="node"><title>ndIter</title>
<g id="a_node5_4"><a xlink:href="https://github.com/maidsafe/lru_time_cache/blob/master/src/iter.rs#:~:text=struct%20Iter" xlink:title="&lt;TABLE&gt;">
<polygon fill="lightblue" stroke="none" points="9.5,-731 9.5,-768 812.5,-768 812.5,-731 9.5,-731"/>
<polygon fill="none" stroke="black" points="9.5,-731 9.5,-768 812.5,-768 812.5,-731 9.5,-731"/>
<text text-anchor="start" x="399.5" y="-746.8" font-family="Arial" font-weight="bold" font-size="14.00">Iter</text>
<polygon fill="white" stroke="none" points="9.5,-649 9.5,-731 812.5,-731 812.5,-649 9.5,-649"/>
<polygon fill="none" stroke="black" points="9.5,-649 9.5,-731 812.5,-731 812.5,-649 9.5,-649"/>
<text text-anchor="start" x="20.5" y="-708.8" font-family="Arial" font-size="14.00">&#45; map: &amp;&#39;a mut BTreeMap&lt;Key, (Value, Instant)&gt;</text>
<text text-anchor="start" x="20.5" y="-693.8" font-family="Arial" font-size="14.00">&#45; list: &amp;&#39;a mut VecDeque&lt;Key&gt;</text>
<text text-anchor="start" x="20.5" y="-678.8" font-family="Arial" font-size="14.00">&#45; lru_cache_ttl: Option&lt;Duration&gt;</text>
<text text-anchor="start" x="20.5" y="-663.8" font-family="Arial" font-size="14.00">&#45; item_index: usize</text>
<polygon fill="white" stroke="none" points="9.5,-582 9.5,-649 812.5,-649 812.5,-582 9.5,-582"/>
<polygon fill="none" stroke="black" points="9.5,-582 9.5,-649 812.5,-649 812.5,-582 9.5,-582"/>
<text text-anchor="start" x="20.5" y="-626.8" font-family="Arial" font-size="14.00">&#45; new(map: &amp;&#39;a mut BTreeMap&lt;Key, (Value, Instant)&gt;, list: &amp;&#39;a mut VecDeque&lt;Key&gt;, lru_cache_ttl: Option&lt;Duration&gt;) &#45;&gt; Self</text>
<text text-anchor="start" x="20.5" y="-611.8" font-family="Arial" font-size="14.00">&#45; next_unexpired(&amp;mut self, now: Instant) &#45;&gt; Option&lt;Key&gt;</text>
<text text-anchor="start" x="20.5" y="-596.8" font-family="Arial" font-size="14.00">&#45; next(&amp;mut self) &#45;&gt; Option&lt;(&amp;&#39;a Key, &amp;&#39;a Value)&gt;</text>
<polygon fill="none" stroke="black" points="8,-581 8,-769 813,-769 813,-581 8,-581"/>
</a>
</g>
</g>
<!-- ndIter&#45;&gt;ndLruCache -->
<g id="edge4" class="edge"><title>ndIter&#45;&gt;ndLruCache</title>
<path fill="none" stroke="black" d="M710.689,-576.951C887.857,-519.674 1113.12,-446.846 1299.26,-386.671"/>
<polygon fill="black" stroke="black" points="1308.93,-383.544 1300.8,-390.902 1304.17,-385.082 1299.42,-386.62 1299.42,-386.62 1299.42,-386.62 1304.17,-385.082 1298.03,-382.338 1308.93,-383.544 1308.93,-383.544"/>
</g>
<!-- ndTimedEntry -->
<g id="node6" class="node"><title>ndTimedEntry</title>
<g id="a_node6_5"><a xlink:href="https://github.com/maidsafe/lru_time_cache/blob/master/src/iter.rs#:~:text=enum%20TimedEntry" xlink:title="&lt;TABLE&gt;">
<polygon fill="yellow" stroke="none" points="2928.5,-884 2928.5,-921 3105.5,-921 3105.5,-884 2928.5,-884"/>
<polygon fill="none" stroke="black" points="2928.5,-884 2928.5,-921 3105.5,-921 3105.5,-884 2928.5,-884"/>
<text text-anchor="start" x="2976" y="-899.8" font-family="Arial" font-weight="bold" font-size="14.00">TimedEntry</text>
<polygon fill="white" stroke="none" points="2928.5,-832 2928.5,-884 3105.5,-884 3105.5,-832 2928.5,-832"/>
<polygon fill="none" stroke="black" points="2928.5,-832 2928.5,-884 3105.5,-884 3105.5,-832 2928.5,-832"/>
<text text-anchor="start" x="2939.5" y="-861.8" font-family="Arial" font-size="14.00">Valid(&amp;&#39;a Key, &amp;&#39;a Value)</text>
<text text-anchor="start" x="2939.5" y="-846.8" font-family="Arial" font-size="14.00">Expired(Key, Value)</text>
<polygon fill="none" stroke="black" points="2927,-831.5 2927,-922.5 3106,-922.5 3106,-831.5 2927,-831.5"/>
</a>
</g>
</g>
<!-- ndNotifyIter -->
<g id="node7" class="node"><title>ndNotifyIter</title>
<g id="a_node7_6"><a xlink:href="https://github.com/maidsafe/lru_time_cache/blob/master/src/iter.rs#:~:text=struct%20NotifyIter" xlink:title="&lt;TABLE&gt;">
<polygon fill="lightblue" stroke="none" points="848.5,-723 848.5,-760 1651.5,-760 1651.5,-723 848.5,-723"/>
<polygon fill="none" stroke="black" points="848.5,-723 848.5,-760 1651.5,-760 1651.5,-723 848.5,-723"/>
<text text-anchor="start" x="1218.5" y="-738.8" font-family="Arial" font-weight="bold" font-size="14.00">NotifyIter</text>
<polygon fill="white" stroke="none" points="848.5,-641 848.5,-723 1651.5,-723 1651.5,-641 848.5,-641"/>
<polygon fill="none" stroke="black" points="848.5,-641 848.5,-723 1651.5,-723 1651.5,-641 848.5,-641"/>
<text text-anchor="start" x="859.5" y="-700.8" font-family="Arial" font-size="14.00">&#45; map: &amp;&#39;a mut BTreeMap&lt;Key, (Value, Instant)&gt;</text>
<text text-anchor="start" x="859.5" y="-685.8" font-family="Arial" font-size="14.00">&#45; list: &amp;&#39;a mut VecDeque&lt;Key&gt;</text>
<text text-anchor="start" x="859.5" y="-670.8" font-family="Arial" font-size="14.00">&#45; lru_cache_ttl: Option&lt;Duration&gt;</text>
<text text-anchor="start" x="859.5" y="-655.8" font-family="Arial" font-size="14.00">&#45; item_index: usize</text>
<polygon fill="white" stroke="none" points="848.5,-589 848.5,-641 1651.5,-641 1651.5,-589 848.5,-589"/>
<polygon fill="none" stroke="black" points="848.5,-589 848.5,-641 1651.5,-641 1651.5,-589 848.5,-589"/>
<text text-anchor="start" x="859.5" y="-618.8" font-family="Arial" font-size="14.00">&#45; new(map: &amp;&#39;a mut BTreeMap&lt;Key, (Value, Instant)&gt;, list: &amp;&#39;a mut VecDeque&lt;Key&gt;, lru_cache_ttl: Option&lt;Duration&gt;) &#45;&gt; Self</text>
<text text-anchor="start" x="859.5" y="-603.8" font-family="Arial" font-size="14.00">&#45; next(&amp;mut self) &#45;&gt; Option&lt;Self::Item&gt;</text>
<polygon fill="none" stroke="black" points="847,-588.5 847,-761.5 1652,-761.5 1652,-588.5 847,-588.5"/>
</a>
</g>
</g>
<!-- ndNotifyIter&#45;&gt;ndLruCache -->
<g id="edge5" class="edge"><title>ndNotifyIter&#45;&gt;ndLruCache</title>
<path fill="none" stroke="black" d="M1339.86,-584.422C1351.39,-572.988 1363.63,-560.851 1376.34,-548.251"/>
<polygon fill="black" stroke="black" points="1383.45,-541.206 1379.52,-551.442 1379.9,-544.726 1376.35,-548.246 1376.35,-548.246 1376.35,-548.246 1379.9,-544.726 1373.18,-545.05 1383.45,-541.206 1383.45,-541.206"/>
</g>
<!-- ndPeekIter -->
<g id="node8" class="node"><title>ndPeekIter</title>
<g id="a_node8_7"><a xlink:href="https://github.com/maidsafe/lru_time_cache/blob/master/src/iter.rs#:~:text=struct%20PeekIter" xlink:title="&lt;TABLE&gt;">
<polygon fill="lightblue" stroke="none" points="1687.5,-731 1687.5,-768 2436.5,-768 2436.5,-731 1687.5,-731"/>
<polygon fill="none" stroke="black" points="1687.5,-731 1687.5,-768 2436.5,-768 2436.5,-731 1687.5,-731"/>
<text text-anchor="start" x="2033" y="-746.8" font-family="Arial" font-weight="bold" font-size="14.00">PeekIter</text>
<polygon fill="white" stroke="none" points="1687.5,-649 1687.5,-731 2436.5,-731 2436.5,-649 1687.5,-649"/>
<polygon fill="none" stroke="black" points="1687.5,-649 1687.5,-731 2436.5,-731 2436.5,-649 1687.5,-649"/>
<text text-anchor="start" x="1698.5" y="-708.8" font-family="Arial" font-size="14.00">&#45; map: &amp;&#39;a BTreeMap&lt;Key, (Value, Instant)&gt;</text>
<text text-anchor="start" x="1698.5" y="-693.8" font-family="Arial" font-size="14.00">&#45; list: &amp;&#39;a VecDeque&lt;Key&gt;</text>
<text text-anchor="start" x="1698.5" y="-678.8" font-family="Arial" font-size="14.00">&#45; lru_cache_ttl: Option&lt;Duration&gt;</text>
<text text-anchor="start" x="1698.5" y="-663.8" font-family="Arial" font-size="14.00">&#45; item_index: usize</text>
<polygon fill="white" stroke="none" points="1687.5,-582 1687.5,-649 2436.5,-649 2436.5,-582 1687.5,-582"/>
<polygon fill="none" stroke="black" points="1687.5,-582 1687.5,-649 2436.5,-649 2436.5,-582 1687.5,-582"/>
<text text-anchor="start" x="1698.5" y="-626.8" font-family="Arial" font-size="14.00">&#45; new(map: &amp;&#39;a BTreeMap&lt;Key, (Value, Instant)&gt;, list: &amp;&#39;a VecDeque&lt;Key&gt;, lru_cache_ttl: Option&lt;Duration&gt;) &#45;&gt; Self</text>
<text text-anchor="start" x="1698.5" y="-611.8" font-family="Arial" font-size="14.00">&#45; next_unexpired(&amp;mut self, now: Instant) &#45;&gt; Option&lt;()&gt;</text>
<text text-anchor="start" x="1698.5" y="-596.8" font-family="Arial" font-size="14.00">&#45; next(&amp;mut self) &#45;&gt; Option&lt;(&amp;&#39;a Key, &amp;&#39;a Value)&gt;</text>
<polygon fill="none" stroke="black" points="1686,-581 1686,-769 2437,-769 2437,-581 1686,-581"/>
</a>
</g>
</g>
<!-- ndPeekIter&#45;&gt;ndLruCache -->
<g id="edge6" class="edge"><title>ndPeekIter&#45;&gt;ndLruCache</title>
<path fill="none" stroke="black" d="M1963.48,-576.823C1954.22,-567.65 1944.57,-558.079 1934.63,-548.226"/>
<polygon fill="black" stroke="black" points="1927.35,-541.003 1937.62,-544.848 1930.9,-544.523 1934.45,-548.044 1934.45,-548.044 1934.45,-548.044 1930.9,-544.523 1931.28,-551.239 1927.35,-541.003 1927.35,-541.003"/>
</g>
</g>
</svg>
