<?xml version="1.0" encoding="UTF-8" standalone="no"?>
<!DOCTYPE svg PUBLIC "-//W3C//DTD SVG 1.1//EN"
 "http://www.w3.org/Graphics/SVG/1.1/DTD/svg11.dtd">
<!-- Generated by graphviz version 2.38.0 (20140413.2041)
 -->
<!-- Title: ml Pages: 1 -->
<svg width="486pt" height="636pt"
 viewBox="0.00 0.00 485.50 636.00" xmlns="http://www.w3.org/2000/svg" xmlns:xlink="http://www.w3.org/1999/xlink">
<g id="graph0" class="graph" transform="scale(1 1) rotate(0) translate(4 632)">
<title>ml</title>
<polygon fill="white" stroke="none" points="-4,4 -4,-632 481.5,-632 481.5,4 -4,4"/>
<!-- ndJsonRpcRequest -->
<g id="node1" class="node"><title>ndJsonRpcRequest</title>
<polygon fill="lightblue" stroke="none" points="9.5,-419.5 9.5,-456.5 150.5,-456.5 150.5,-419.5 9.5,-419.5"/>
<polygon fill="none" stroke="black" points="9.5,-419.5 9.5,-456.5 150.5,-456.5 150.5,-419.5 9.5,-419.5"/>
<text text-anchor="start" x="20.5" y="-435.3" font-family="Arial" font-weight="bold" font-size="14.00">JsonRpcRequest</text>
<polygon fill="none" stroke="black" points="8,-419 8,-458 151,-458 151,-419 8,-419"/>
</g>
<!-- ndIncomingJsonRpcRequest -->
<g id="node6" class="node"><title>ndIncomingJsonRpcRequest</title>
<polygon fill="lightblue" stroke="none" points="80.5,-336.5 80.5,-373.5 286.5,-373.5 286.5,-336.5 80.5,-336.5"/>
<polygon fill="none" stroke="black" points="80.5,-336.5 80.5,-373.5 286.5,-373.5 286.5,-336.5 80.5,-336.5"/>
<text text-anchor="start" x="91.5" y="-352.3" font-family="Arial" font-weight="bold" font-size="14.00">IncomingJsonRpcRequest</text>
<polygon fill="none" stroke="black" points="79.5,-336 79.5,-375 287.5,-375 287.5,-336 79.5,-336"/>
</g>
<!-- ndJsonRpcRequest&#45;&gt;ndIncomingJsonRpcRequest -->
<g id="edge1" class="edge"><title>ndJsonRpcRequest&#45;&gt;ndIncomingJsonRpcRequest</title>
<path fill="none" stroke="black" d="M108.47,-414.937C120.204,-405.798 133.899,-395.132 146.353,-385.432"/>
<polygon fill="black" stroke="black" points="154.325,-379.223 149.201,-388.918 150.38,-382.295 146.435,-385.368 146.435,-385.368 146.435,-385.368 150.38,-382.295 143.67,-381.817 154.325,-379.223 154.325,-379.223"/>
</g>
<!-- ndJsonRpcResponse -->
<g id="node2" class="node"><title>ndJsonRpcResponse</title>
<polygon fill="lightblue" stroke="none" points="210.5,-502.5 210.5,-539.5 364.5,-539.5 364.5,-502.5 210.5,-502.5"/>
<polygon fill="none" stroke="black" points="210.5,-502.5 210.5,-539.5 364.5,-539.5 364.5,-502.5 210.5,-502.5"/>
<text text-anchor="start" x="221.5" y="-518.3" font-family="Arial" font-weight="bold" font-size="14.00">JsonRpcResponse</text>
<polygon fill="none" stroke="black" points="209.5,-502 209.5,-541 365.5,-541 365.5,-502 209.5,-502"/>
</g>
<!-- ndJsonRpcResponseStream -->
<g id="node7" class="node"><title>ndJsonRpcResponseStream</title>
<polygon fill="lightblue" stroke="none" points="186.5,-419.5 186.5,-456.5 389.5,-456.5 389.5,-419.5 186.5,-419.5"/>
<polygon fill="none" stroke="black" points="186.5,-419.5 186.5,-456.5 389.5,-456.5 389.5,-419.5 186.5,-419.5"/>
<text text-anchor="start" x="197.5" y="-435.3" font-family="Arial" font-weight="bold" font-size="14.00">JsonRpcResponseStream</text>
<polygon fill="none" stroke="black" points="185,-419 185,-458 390,-458 390,-419 185,-419"/>
</g>
<!-- ndJsonRpcResponse&#45;&gt;ndJsonRpcResponseStream -->
<g id="edge2" class="edge"><title>ndJsonRpcResponse&#45;&gt;ndJsonRpcResponseStream</title>
<path fill="none" stroke="black" stroke-dasharray="5,2" d="M287.5,-497.937C287.5,-490.016 287.5,-480.949 287.5,-472.357"/>
<polygon fill="black" stroke="black" points="287.5,-462.223 292,-472.223 287.5,-467.223 287.5,-472.223 287.5,-472.223 287.5,-472.223 287.5,-467.223 283,-472.223 287.5,-462.223 287.5,-462.223"/>
</g>
<!-- ndJsonRpcError -->
<g id="node3" class="node"><title>ndJsonRpcError</title>
<polygon fill="lightblue" stroke="none" points="227.5,-585.5 227.5,-622.5 348.5,-622.5 348.5,-585.5 227.5,-585.5"/>
<polygon fill="none" stroke="black" points="227.5,-585.5 227.5,-622.5 348.5,-622.5 348.5,-585.5 227.5,-585.5"/>
<text text-anchor="start" x="238.5" y="-601.3" font-family="Arial" font-weight="bold" font-size="14.00">JsonRpcError</text>
<polygon fill="none" stroke="black" points="226,-585 226,-624 349,-624 349,-585 226,-585"/>
</g>
<!-- ndJsonRpcError&#45;&gt;ndJsonRpcResponse -->
<g id="edge3" class="edge"><title>ndJsonRpcError&#45;&gt;ndJsonRpcResponse</title>
<path fill="none" stroke="black" d="M287.5,-580.937C287.5,-573.626 287.5,-565.337 287.5,-557.348"/>
<polygon fill="black" stroke="black" points="287.5,-557.223 283.5,-551.223 287.5,-545.223 291.5,-551.223 287.5,-557.223"/>
</g>
<!-- ndEndpoint -->
<g id="node4" class="node"><title>ndEndpoint</title>
<polygon fill="lightblue" stroke="none" points="140.5,-170.5 140.5,-207.5 226.5,-207.5 226.5,-170.5 140.5,-170.5"/>
<polygon fill="none" stroke="black" points="140.5,-170.5 140.5,-207.5 226.5,-207.5 226.5,-170.5 140.5,-170.5"/>
<text text-anchor="start" x="151.5" y="-186.3" font-family="Arial" font-weight="bold" font-size="14.00">Endpoint</text>
<polygon fill="none" stroke="black" points="139.5,-170 139.5,-209 227.5,-209 227.5,-170 139.5,-170"/>
</g>
<!-- ndOutgoingConn -->
<g id="node10" class="node"><title>ndOutgoingConn</title>
<polygon fill="lightblue" stroke="none" points="212.5,-87.5 212.5,-124.5 337.5,-124.5 337.5,-87.5 212.5,-87.5"/>
<polygon fill="none" stroke="black" points="212.5,-87.5 212.5,-124.5 337.5,-124.5 337.5,-87.5 212.5,-87.5"/>
<text text-anchor="start" x="223.5" y="-103.3" font-family="Arial" font-weight="bold" font-size="14.00">OutgoingConn</text>
<polygon fill="none" stroke="black" points="211,-87 211,-126 338,-126 338,-87 211,-87"/>
</g>
<!-- ndEndpoint&#45;&gt;ndOutgoingConn -->
<g id="edge4" class="edge"><title>ndEndpoint&#45;&gt;ndOutgoingConn</title>
<path fill="none" stroke="black" stroke-dasharray="5,2" d="M208.849,-165.937C218.92,-156.972 230.643,-146.537 241.372,-136.987"/>
<polygon fill="black" stroke="black" points="248.972,-130.223 244.494,-140.233 245.237,-133.547 241.502,-136.872 241.502,-136.872 241.502,-136.872 245.237,-133.547 238.51,-133.51 248.972,-130.223 248.972,-130.223"/>
</g>
<!-- ndIncomingConn -->
<g id="node5" class="node"><title>ndIncomingConn</title>
<polygon fill="lightblue" stroke="none" points="121.5,-253.5 121.5,-290.5 246.5,-290.5 246.5,-253.5 121.5,-253.5"/>
<polygon fill="none" stroke="black" points="121.5,-253.5 121.5,-290.5 246.5,-290.5 246.5,-253.5 121.5,-253.5"/>
<text text-anchor="start" x="132.5" y="-269.3" font-family="Arial" font-weight="bold" font-size="14.00">IncomingConn</text>
<polygon fill="none" stroke="black" points="120,-253 120,-292 247,-292 247,-253 120,-253"/>
</g>
<!-- ndIncomingConn&#45;&gt;ndEndpoint -->
<g id="edge5" class="edge"><title>ndIncomingConn&#45;&gt;ndEndpoint</title>
<path fill="none" stroke="black" d="M183.5,-248.937C183.5,-241.016 183.5,-231.949 183.5,-223.357"/>
<polygon fill="black" stroke="black" points="183.5,-213.223 188,-223.223 183.5,-218.223 183.5,-223.223 183.5,-223.223 183.5,-223.223 183.5,-218.223 179,-223.223 183.5,-213.223 183.5,-213.223"/>
</g>
<!-- ndIncomingJsonRpcRequest&#45;&gt;ndIncomingConn -->
<g id="edge6" class="edge"><title>ndIncomingJsonRpcRequest&#45;&gt;ndIncomingConn</title>
<path fill="none" stroke="black" d="M183.5,-331.937C183.5,-324.016 183.5,-314.949 183.5,-306.357"/>
<polygon fill="black" stroke="black" points="183.5,-296.223 188,-306.223 183.5,-301.223 183.5,-306.223 183.5,-306.223 183.5,-306.223 183.5,-301.223 179,-306.223 183.5,-296.223 183.5,-296.223"/>
</g>
<!-- ndJsonRpcResponseStream&#45;&gt;ndIncomingJsonRpcRequest -->
<g id="edge7" class="edge"><title>ndJsonRpcResponseStream&#45;&gt;ndIncomingJsonRpcRequest</title>
<path fill="none" stroke="black" d="M258.53,-414.937C246.796,-405.798 233.101,-395.132 220.647,-385.432"/>
<polygon fill="black" stroke="black" points="212.675,-379.223 223.33,-381.817 216.62,-382.295 220.565,-385.368 220.565,-385.368 220.565,-385.368 216.62,-382.295 217.799,-388.918 212.675,-379.223 212.675,-379.223"/>
</g>
<!-- ndError -->
<g id="node8" class="node"><title>ndError</title>
<polygon fill="yellow" stroke="none" points="384.5,-585.5 384.5,-622.5 443.5,-622.5 443.5,-585.5 384.5,-585.5"/>
<polygon fill="none" stroke="black" points="384.5,-585.5 384.5,-622.5 443.5,-622.5 443.5,-585.5 384.5,-585.5"/>
<text text-anchor="start" x="395.5" y="-601.3" font-family="Arial" font-weight="bold" font-size="14.00">Error</text>
<polygon fill="none" stroke="black" points="383,-585 383,-624 444,-624 444,-585 383,-585"/>
</g>
<!-- ndClientEndpoint -->
<g id="node9" class="node"><title>ndClientEndpoint</title>
<polygon fill="lightblue" stroke="none" points="212.5,-4.5 212.5,-41.5 337.5,-41.5 337.5,-4.5 212.5,-4.5"/>
<polygon fill="none" stroke="black" points="212.5,-4.5 212.5,-41.5 337.5,-41.5 337.5,-4.5 212.5,-4.5"/>
<text text-anchor="start" x="223.5" y="-20.3" font-family="Arial" font-weight="bold" font-size="14.00">ClientEndpoint</text>
<polygon fill="none" stroke="black" points="211,-4 211,-43 338,-43 338,-4 211,-4"/>
</g>
<!-- ndOutgoingConn&#45;&gt;ndClientEndpoint -->
<g id="edge8" class="edge"><title>ndOutgoingConn&#45;&gt;ndClientEndpoint</title>
<path fill="none" stroke="black" d="M274.5,-82.937C274.5,-75.0164 274.5,-65.9488 274.5,-57.3574"/>
<polygon fill="black" stroke="black" points="274.5,-47.2229 279,-57.2229 274.5,-52.2229 274.5,-57.2229 274.5,-57.2229 274.5,-57.2229 274.5,-52.2229 270,-57.223 274.5,-47.2229 274.5,-47.2229"/>
</g>
<!-- ndOutgoingJsonRpcRequest -->
<g id="node11" class="node"><title>ndOutgoingJsonRpcRequest</title>
<polygon fill="lightblue" stroke="none" points="262.5,-170.5 262.5,-207.5 468.5,-207.5 468.5,-170.5 262.5,-170.5"/>
<polygon fill="none" stroke="black" points="262.5,-170.5 262.5,-207.5 468.5,-207.5 468.5,-170.5 262.5,-170.5"/>
<text text-anchor="start" x="273.5" y="-186.3" font-family="Arial" font-weight="bold" font-size="14.00">OutgoingJsonRpcRequest</text>
<polygon fill="none" stroke="black" points="261.5,-170 261.5,-209 469.5,-209 469.5,-170 261.5,-170"/>
</g>
<!-- ndOutgoingJsonRpcRequest&#45;&gt;ndOutgoingConn -->
<g id="edge9" class="edge"><title>ndOutgoingJsonRpcRequest&#45;&gt;ndOutgoingConn</title>
<path fill="none" stroke="black" d="M340.151,-165.937C330.08,-156.972 318.357,-146.537 307.628,-136.987"/>
<polygon fill="black" stroke="black" points="300.028,-130.223 310.49,-133.51 303.763,-133.547 307.498,-136.872 307.498,-136.872 307.498,-136.872 303.763,-133.547 304.506,-140.233 300.028,-130.223 300.028,-130.223"/>
</g>
</g>
</svg>
