<?xml version="1.0" encoding="UTF-8" standalone="no"?>
<!DOCTYPE svg PUBLIC "-//W3C//DTD SVG 1.1//EN"
 "http://www.w3.org/Graphics/SVG/1.1/DTD/svg11.dtd">
<!-- Generated by graphviz version 2.38.0 (20140413.2041)
 -->
<!-- Title: ml Pages: 1 -->
<svg width="697pt" height="470pt"
 viewBox="0.00 0.00 696.50 470.00" xmlns="http://www.w3.org/2000/svg" xmlns:xlink="http://www.w3.org/1999/xlink">
<g id="graph0" class="graph" transform="scale(1 1) rotate(0) translate(4 466)">
<title>ml</title>
<polygon fill="white" stroke="none" points="-4,4 -4,-466 692.5,-466 692.5,4 -4,4"/>
<!-- ndJsonRpcRequest -->
<g id="node1" class="node"><title>ndJsonRpcRequest</title>
<g id="a_node1_0"><a xlink:href="https://github.com/maidsafe/qjsonrpc/blob/master/src/jsonrpc.rs#:~:text=struct%20JsonRpcRequest" xlink:title="&lt;TABLE&gt;">
<polygon fill="lightblue" stroke="none" points="9.5,-253.5 9.5,-290.5 150.5,-290.5 150.5,-253.5 9.5,-253.5"/>
<polygon fill="none" stroke="black" points="9.5,-253.5 9.5,-290.5 150.5,-290.5 150.5,-253.5 9.5,-253.5"/>
<text text-anchor="start" x="20.5" y="-269.3" font-family="Arial" font-weight="bold" font-size="14.00">JsonRpcRequest</text>
<polygon fill="none" stroke="black" points="8,-253 8,-292 151,-292 151,-253 8,-253"/>
</a>
</g>
</g>
<!-- ndIncomingJsonRpcRequest -->
<g id="node6" class="node"><title>ndIncomingJsonRpcRequest</title>
<g id="a_node6_1"><a xlink:href="https://github.com/maidsafe/qjsonrpc/blob/master/src/server_endpoint.rs#:~:text=struct%20IncomingJsonRpcRequest" xlink:title="&lt;TABLE&gt;">
<polygon fill="lightblue" stroke="none" points="65.5,-170.5 65.5,-207.5 271.5,-207.5 271.5,-170.5 65.5,-170.5"/>
<polygon fill="none" stroke="black" points="65.5,-170.5 65.5,-207.5 271.5,-207.5 271.5,-170.5 65.5,-170.5"/>
<text text-anchor="start" x="76.5" y="-186.3" font-family="Arial" font-weight="bold" font-size="14.00">IncomingJsonRpcRequest</text>
<polygon fill="none" stroke="black" points="64.5,-170 64.5,-209 272.5,-209 272.5,-170 64.5,-170"/>
</a>
</g>
</g>
<!-- ndJsonRpcRequest&#45;&gt;ndIncomingJsonRpcRequest -->
<g id="edge1" class="edge"><title>ndJsonRpcRequest&#45;&gt;ndIncomingJsonRpcRequest</title>
<path fill="none" stroke="black" d="M104.291,-248.937C114.142,-239.972 125.607,-229.537 136.101,-219.987"/>
<polygon fill="black" stroke="black" points="143.533,-213.223 139.166,-223.282 139.835,-216.588 136.137,-219.954 136.137,-219.954 136.137,-219.954 139.835,-216.588 133.108,-216.626 143.533,-213.223 143.533,-213.223"/>
</g>
<!-- ndJsonRpcResponse -->
<g id="node2" class="node"><title>ndJsonRpcResponse</title>
<g id="a_node2_2"><a xlink:href="https://github.com/maidsafe/qjsonrpc/blob/master/src/jsonrpc.rs#:~:text=struct%20JsonRpcResponse" xlink:title="&lt;TABLE&gt;">
<polygon fill="lightblue" stroke="none" points="255.5,-336.5 255.5,-373.5 409.5,-373.5 409.5,-336.5 255.5,-336.5"/>
<polygon fill="none" stroke="black" points="255.5,-336.5 255.5,-373.5 409.5,-373.5 409.5,-336.5 255.5,-336.5"/>
<text text-anchor="start" x="266.5" y="-352.3" font-family="Arial" font-weight="bold" font-size="14.00">JsonRpcResponse</text>
<polygon fill="none" stroke="black" points="254.5,-336 254.5,-375 410.5,-375 410.5,-336 254.5,-336"/>
</a>
</g>
</g>
<!-- ndJsonRpcResponseStream -->
<g id="node7" class="node"><title>ndJsonRpcResponseStream</title>
<g id="a_node7_3"><a xlink:href="https://github.com/maidsafe/qjsonrpc/blob/master/src/server_endpoint.rs#:~:text=struct%20JsonRpcResponseStream" xlink:title="&lt;TABLE&gt;">
<polygon fill="lightblue" stroke="none" points="186.5,-253.5 186.5,-290.5 389.5,-290.5 389.5,-253.5 186.5,-253.5"/>
<polygon fill="none" stroke="black" points="186.5,-253.5 186.5,-290.5 389.5,-290.5 389.5,-253.5 186.5,-253.5"/>
<text text-anchor="start" x="197.5" y="-269.3" font-family="Arial" font-weight="bold" font-size="14.00">JsonRpcResponseStream</text>
<polygon fill="none" stroke="black" points="185,-253 185,-292 390,-292 390,-253 185,-253"/>
</a>
</g>
</g>
<!-- ndJsonRpcResponse&#45;&gt;ndJsonRpcResponseStream -->
<g id="edge2" class="edge"><title>ndJsonRpcResponse&#45;&gt;ndJsonRpcResponseStream</title>
<path fill="none" stroke="black" stroke-dasharray="5,2" d="M319.965,-331.937C315.371,-323.668 310.083,-314.149 305.126,-305.227"/>
<polygon fill="black" stroke="black" points="300.124,-296.223 308.914,-302.779 302.552,-300.594 304.98,-304.965 304.98,-304.965 304.98,-304.965 302.552,-300.594 301.047,-307.15 300.124,-296.223 300.124,-296.223"/>
</g>
<!-- ndError -->
<g id="node8" class="node"><title>ndError</title>
<g id="a_node8_4"><a xlink:href="https://github.com/maidsafe/qjsonrpc/blob/master/src/errors.rs#:~:text=enum%20Error" xlink:title="&lt;TABLE&gt;">
<polygon fill="yellow" stroke="none" points="327.5,-170.5 327.5,-207.5 386.5,-207.5 386.5,-170.5 327.5,-170.5"/>
<polygon fill="none" stroke="black" points="327.5,-170.5 327.5,-207.5 386.5,-207.5 386.5,-170.5 327.5,-170.5"/>
<text text-anchor="start" x="338.5" y="-186.3" font-family="Arial" font-weight="bold" font-size="14.00">Error</text>
<polygon fill="none" stroke="black" points="326,-170 326,-209 387,-209 387,-170 326,-170"/>
</a>
</g>
</g>
<!-- ndJsonRpcResponse&#45;&gt;ndError -->
<g id="edge3" class="edge"><title>ndJsonRpcResponse&#45;&gt;ndError</title>
<path fill="none" stroke="black" d="M373.887,-331.945C386.767,-322.647 399.434,-310.592 406.5,-296 415.603,-277.199 413.734,-268.596 406.5,-249 402.981,-239.465 397.138,-230.432 390.663,-222.443"/>
<polygon fill="black" stroke="black" points="390.5,-222.258 383.532,-220.4 382.566,-213.254 389.534,-215.111 390.5,-222.258"/>
</g>
<!-- ndJsonRpcError -->
<g id="node3" class="node"><title>ndJsonRpcError</title>
<g id="a_node3_5"><a xlink:href="https://github.com/maidsafe/qjsonrpc/blob/master/src/jsonrpc.rs#:~:text=struct%20JsonRpcError" xlink:title="&lt;TABLE&gt;">
<polygon fill="lightblue" stroke="none" points="272.5,-419.5 272.5,-456.5 393.5,-456.5 393.5,-419.5 272.5,-419.5"/>
<polygon fill="none" stroke="black" points="272.5,-419.5 272.5,-456.5 393.5,-456.5 393.5,-419.5 272.5,-419.5"/>
<text text-anchor="start" x="283.5" y="-435.3" font-family="Arial" font-weight="bold" font-size="14.00">JsonRpcError</text>
<polygon fill="none" stroke="black" points="271,-419 271,-458 394,-458 394,-419 271,-419"/>
</a>
</g>
</g>
<!-- ndJsonRpcError&#45;&gt;ndJsonRpcResponse -->
<g id="edge4" class="edge"><title>ndJsonRpcError&#45;&gt;ndJsonRpcResponse</title>
<path fill="none" stroke="black" d="M332.5,-414.937C332.5,-407.626 332.5,-399.337 332.5,-391.348"/>
<polygon fill="black" stroke="black" points="332.5,-391.223 328.5,-385.223 332.5,-379.223 336.5,-385.223 332.5,-391.223"/>
</g>
<!-- ndServerEndpoint -->
<g id="node4" class="node"><title>ndServerEndpoint</title>
<g id="a_node4_6"><a xlink:href="https://github.com/maidsafe/qjsonrpc/blob/master/src/server_endpoint.rs#:~:text=struct%20ServerEndpoint" xlink:title="&lt;TABLE&gt;">
<polygon fill="lightblue" stroke="none" points="102.5,-4.5 102.5,-41.5 234.5,-41.5 234.5,-4.5 102.5,-4.5"/>
<polygon fill="none" stroke="black" points="102.5,-4.5 102.5,-41.5 234.5,-41.5 234.5,-4.5 102.5,-4.5"/>
<text text-anchor="start" x="113.5" y="-20.3" font-family="Arial" font-weight="bold" font-size="14.00">ServerEndpoint</text>
<polygon fill="none" stroke="black" points="101.5,-4 101.5,-43 235.5,-43 235.5,-4 101.5,-4"/>
</a>
</g>
</g>
<!-- ndIncomingConn -->
<g id="node5" class="node"><title>ndIncomingConn</title>
<g id="a_node5_7"><a xlink:href="https://github.com/maidsafe/qjsonrpc/blob/master/src/server_endpoint.rs#:~:text=struct%20IncomingConn" xlink:title="&lt;TABLE&gt;">
<polygon fill="lightblue" stroke="none" points="106.5,-87.5 106.5,-124.5 231.5,-124.5 231.5,-87.5 106.5,-87.5"/>
<polygon fill="none" stroke="black" points="106.5,-87.5 106.5,-124.5 231.5,-124.5 231.5,-87.5 106.5,-87.5"/>
<text text-anchor="start" x="117.5" y="-103.3" font-family="Arial" font-weight="bold" font-size="14.00">IncomingConn</text>
<polygon fill="none" stroke="black" points="105,-87 105,-126 232,-126 232,-87 105,-87"/>
</a>
</g>
</g>
<!-- ndIncomingConn&#45;&gt;ndServerEndpoint -->
<g id="edge5" class="edge"><title>ndIncomingConn&#45;&gt;ndServerEndpoint</title>
<path fill="none" stroke="black" d="M168.5,-82.937C168.5,-75.0164 168.5,-65.9488 168.5,-57.3574"/>
<polygon fill="black" stroke="black" points="168.5,-47.2229 173,-57.2229 168.5,-52.2229 168.5,-57.2229 168.5,-57.2229 168.5,-57.2229 168.5,-52.2229 164,-57.223 168.5,-47.2229 168.5,-47.2229"/>
</g>
<!-- ndIncomingJsonRpcRequest&#45;&gt;ndIncomingConn -->
<g id="edge6" class="edge"><title>ndIncomingJsonRpcRequest&#45;&gt;ndIncomingConn</title>
<path fill="none" stroke="black" d="M168.5,-165.937C168.5,-158.016 168.5,-148.949 168.5,-140.357"/>
<polygon fill="black" stroke="black" points="168.5,-130.223 173,-140.223 168.5,-135.223 168.5,-140.223 168.5,-140.223 168.5,-140.223 168.5,-135.223 164,-140.223 168.5,-130.223 168.5,-130.223"/>
</g>
<!-- ndJsonRpcResponseStream&#45;&gt;ndIncomingJsonRpcRequest -->
<g id="edge7" class="edge"><title>ndJsonRpcResponseStream&#45;&gt;ndIncomingJsonRpcRequest</title>
<path fill="none" stroke="black" d="M254.352,-248.937C240.67,-239.624 224.657,-228.725 210.192,-218.879"/>
<polygon fill="black" stroke="black" points="201.883,-213.223 212.682,-215.13 206.016,-216.036 210.15,-218.85 210.15,-218.85 210.15,-218.85 206.016,-216.036 207.618,-222.57 201.883,-213.223 201.883,-213.223"/>
</g>
<!-- ndJsonRpcResponseStream&#45;&gt;ndError -->
<g id="edge8" class="edge"><title>ndJsonRpcResponseStream&#45;&gt;ndError</title>
<path fill="none" stroke="black" d="M306.72,-248.937C313.69,-240.755 321.702,-231.35 329.233,-222.509"/>
<polygon fill="black" stroke="black" points="329.362,-222.358 330.208,-215.197 337.143,-213.223 336.298,-220.384 329.362,-222.358"/>
</g>
<!-- ndClientEndpoint -->
<g id="node9" class="node"><title>ndClientEndpoint</title>
<g id="a_node9_8"><a xlink:href="https://github.com/maidsafe/qjsonrpc/blob/master/src/client_endpoint.rs#:~:text=struct%20ClientEndpoint" xlink:title="&lt;TABLE&gt;">
<polygon fill="lightblue" stroke="none" points="514.5,-253.5 514.5,-290.5 639.5,-290.5 639.5,-253.5 514.5,-253.5"/>
<polygon fill="none" stroke="black" points="514.5,-253.5 514.5,-290.5 639.5,-290.5 639.5,-253.5 514.5,-253.5"/>
<text text-anchor="start" x="525.5" y="-269.3" font-family="Arial" font-weight="bold" font-size="14.00">ClientEndpoint</text>
<polygon fill="none" stroke="black" points="513,-253 513,-292 640,-292 640,-253 513,-253"/>
</a>
</g>
</g>
<!-- ndOutgoingConn -->
<g id="node10" class="node"><title>ndOutgoingConn</title>
<g id="a_node10_9"><a xlink:href="https://github.com/maidsafe/qjsonrpc/blob/master/src/client_endpoint.rs#:~:text=struct%20OutgoingConn" xlink:title="&lt;TABLE&gt;">
<polygon fill="lightblue" stroke="none" points="514.5,-336.5 514.5,-373.5 639.5,-373.5 639.5,-336.5 514.5,-336.5"/>
<polygon fill="none" stroke="black" points="514.5,-336.5 514.5,-373.5 639.5,-373.5 639.5,-336.5 514.5,-336.5"/>
<text text-anchor="start" x="525.5" y="-352.3" font-family="Arial" font-weight="bold" font-size="14.00">OutgoingConn</text>
<polygon fill="none" stroke="black" points="513,-336 513,-375 640,-375 640,-336 513,-336"/>
</a>
</g>
</g>
<!-- ndOutgoingConn&#45;&gt;ndClientEndpoint -->
<g id="edge9" class="edge"><title>ndOutgoingConn&#45;&gt;ndClientEndpoint</title>
<path fill="none" stroke="black" d="M576.5,-331.937C576.5,-324.016 576.5,-314.949 576.5,-306.357"/>
<polygon fill="black" stroke="black" points="576.5,-296.223 581,-306.223 576.5,-301.223 576.5,-306.223 576.5,-306.223 576.5,-306.223 576.5,-301.223 572,-306.223 576.5,-296.223 576.5,-296.223"/>
</g>
<!-- ndOutgoingJsonRpcRequest -->
<g id="node11" class="node"><title>ndOutgoingJsonRpcRequest</title>
<g id="a_node11_10"><a xlink:href="https://github.com/maidsafe/qjsonrpc/blob/master/src/client_endpoint.rs#:~:text=struct%20OutgoingJsonRpcRequest" xlink:title="&lt;TABLE&gt;">
<polygon fill="lightblue" stroke="none" points="473.5,-419.5 473.5,-456.5 679.5,-456.5 679.5,-419.5 473.5,-419.5"/>
<polygon fill="none" stroke="black" points="473.5,-419.5 473.5,-456.5 679.5,-456.5 679.5,-419.5 473.5,-419.5"/>
<text text-anchor="start" x="484.5" y="-435.3" font-family="Arial" font-weight="bold" font-size="14.00">OutgoingJsonRpcRequest</text>
<polygon fill="none" stroke="black" points="472.5,-419 472.5,-458 680.5,-458 680.5,-419 472.5,-419"/>
</a>
</g>
</g>
<!-- ndOutgoingJsonRpcRequest&#45;&gt;ndOutgoingConn -->
<g id="edge10" class="edge"><title>ndOutgoingJsonRpcRequest&#45;&gt;ndOutgoingConn</title>
<path fill="none" stroke="black" d="M576.5,-414.937C576.5,-407.016 576.5,-397.949 576.5,-389.357"/>
<polygon fill="black" stroke="black" points="576.5,-379.223 581,-389.223 576.5,-384.223 576.5,-389.223 576.5,-389.223 576.5,-389.223 576.5,-384.223 572,-389.223 576.5,-379.223 576.5,-379.223"/>
</g>
</g>
</svg>
