<?xml version="1.0" encoding="UTF-8" standalone="no"?>
<!DOCTYPE svg PUBLIC "-//W3C//DTD SVG 1.1//EN"
 "http://www.w3.org/Graphics/SVG/1.1/DTD/svg11.dtd">
<!-- Generated by graphviz version 2.38.0 (20140413.2041)
 -->
<!-- Title: ml Pages: 1 -->
<svg width="1194pt" height="1401pt"
 viewBox="0.00 0.00 1194.00 1401.00" xmlns="http://www.w3.org/2000/svg" xmlns:xlink="http://www.w3.org/1999/xlink">
<g id="graph0" class="graph" transform="scale(1 1) rotate(0) translate(4 1397)">
<title>ml</title>
<polygon fill="white" stroke="none" points="-4,4 -4,-1397 1190,-1397 1190,4 -4,4"/>
<!-- ndJsonRpcRequest -->
<g id="node1" class="node"><title>ndJsonRpcRequest</title>
<polygon fill="lightblue" stroke="none" points="9,-984 9,-1021 377,-1021 377,-984 9,-984"/>
<polygon fill="none" stroke="black" points="9,-984 9,-1021 377,-1021 377,-984 9,-984"/>
<text text-anchor="start" x="133.5" y="-999.8" font-family="Arial" font-weight="bold" font-size="14.00">JsonRpcRequest</text>
<polygon fill="white" stroke="none" points="9,-902 9,-984 377,-984 377,-902 9,-902"/>
<polygon fill="none" stroke="black" points="9,-902 9,-984 377,-984 377,-902 9,-902"/>
<text text-anchor="start" x="20" y="-961.8" font-family="Arial" font-size="14.00">&#45; jsonrpc: String</text>
<text text-anchor="start" x="20" y="-946.8" font-family="Arial" font-size="14.00">+ method: String</text>
<text text-anchor="start" x="20" y="-931.8" font-family="Arial" font-size="14.00">+ params: serde_json::Value</text>
<text text-anchor="start" x="20" y="-916.8" font-family="Arial" font-size="14.00">+ id: u32</text>
<polygon fill="white" stroke="none" points="9,-865 9,-902 377,-902 377,-865 9,-865"/>
<polygon fill="none" stroke="black" points="9,-865 9,-902 377,-902 377,-865 9,-865"/>
<text text-anchor="start" x="20" y="-879.8" font-family="Arial" font-size="14.00">&#45; new(method: &amp;str, params: serde_json::Value) &#45;&gt; Self</text>
<polygon fill="none" stroke="black" points="8,-864 8,-1022 378,-1022 378,-864 8,-864"/>
</g>
<!-- ndIncomingJsonRpcRequest -->
<g id="node6" class="node"><title>ndIncomingJsonRpcRequest</title>
<polygon fill="lightblue" stroke="none" points="149,-782 149,-819 679,-819 679,-782 149,-782"/>
<polygon fill="none" stroke="black" points="149,-782 149,-819 679,-819 679,-782 149,-782"/>
<text text-anchor="start" x="322" y="-797.8" font-family="Arial" font-weight="bold" font-size="14.00">IncomingJsonRpcRequest</text>
<polygon fill="white" stroke="none" points="149,-745 149,-782 679,-782 679,-745 149,-745"/>
<polygon fill="none" stroke="black" points="149,-745 149,-782 679,-782 679,-745 149,-745"/>
<text text-anchor="start" x="160" y="-759.8" font-family="Arial" font-size="14.00">&#45; bi_streams: quinn::IncomingBiStreams</text>
<polygon fill="white" stroke="none" points="149,-693 149,-745 679,-745 679,-693 149,-693"/>
<polygon fill="none" stroke="black" points="149,-693 149,-745 679,-745 679,-693 149,-693"/>
<text text-anchor="start" x="160" y="-722.8" font-family="Arial" font-size="14.00">&#45; new(bi_streams: quinn::IncomingBiStreams) &#45;&gt; Self</text>
<text text-anchor="start" x="160" y="-707.8" font-family="Arial" font-size="14.00">&#45; get_next(&amp;mut self) &#45;&gt; Option&lt;(JsonRpcRequest, JsonRpcResponseStream)&gt;</text>
<polygon fill="none" stroke="black" points="148,-692 148,-820 680,-820 680,-692 148,-692"/>
</g>
<!-- ndJsonRpcRequest&#45;&gt;ndIncomingJsonRpcRequest -->
<g id="edge1" class="edge"><title>ndJsonRpcRequest&#45;&gt;ndIncomingJsonRpcRequest</title>
<path fill="none" stroke="black" d="M291.221,-859.779C302.742,-850.135 314.443,-840.34 325.815,-830.82"/>
<polygon fill="black" stroke="black" points="333.629,-824.279 328.85,-834.148 329.795,-827.488 325.961,-830.698 325.961,-830.698 325.961,-830.698 329.795,-827.488 323.073,-827.247 333.629,-824.279 333.629,-824.279"/>
</g>
<!-- ndJsonRpcResponse -->
<g id="node2" class="node"><title>ndJsonRpcResponse</title>
<polygon fill="lightblue" stroke="none" points="514,-1148.5 514,-1185.5 759,-1185.5 759,-1148.5 514,-1148.5"/>
<polygon fill="none" stroke="black" points="514,-1148.5 514,-1185.5 759,-1185.5 759,-1148.5 514,-1148.5"/>
<text text-anchor="start" x="570.5" y="-1164.3" font-family="Arial" font-weight="bold" font-size="14.00">JsonRpcResponse</text>
<polygon fill="white" stroke="none" points="514,-1066.5 514,-1148.5 759,-1148.5 759,-1066.5 514,-1066.5"/>
<polygon fill="none" stroke="black" points="514,-1066.5 514,-1148.5 759,-1148.5 759,-1066.5 514,-1066.5"/>
<text text-anchor="start" x="525" y="-1126.3" font-family="Arial" font-size="14.00">&#45; jsonrpc: String</text>
<text text-anchor="start" x="525" y="-1111.3" font-family="Arial" font-size="14.00">&#45; result: Option&lt;serde_json::Value&gt;</text>
<text text-anchor="start" x="525" y="-1096.3" font-family="Arial" font-size="14.00">&#45; error: Option&lt;JsonRpcError&gt;</text>
<text text-anchor="start" x="525" y="-1081.3" font-family="Arial" font-size="14.00">&#45; id: Option&lt;u32&gt;</text>
<polygon fill="none" stroke="black" points="512.5,-1066 512.5,-1187 759.5,-1187 759.5,-1066 512.5,-1066"/>
</g>
<!-- ndJsonRpcResponseStream -->
<g id="node7" class="node"><title>ndJsonRpcResponseStream</title>
<polygon fill="lightblue" stroke="none" points="413,-976 413,-1013 859,-1013 859,-976 413,-976"/>
<polygon fill="none" stroke="black" points="413,-976 413,-1013 859,-1013 859,-976 413,-976"/>
<text text-anchor="start" x="545.5" y="-991.8" font-family="Arial" font-weight="bold" font-size="14.00">JsonRpcResponseStream</text>
<polygon fill="white" stroke="none" points="413,-939 413,-976 859,-976 859,-939 413,-939"/>
<polygon fill="none" stroke="black" points="413,-939 413,-976 859,-976 859,-939 413,-939"/>
<text text-anchor="start" x="424" y="-953.8" font-family="Arial" font-size="14.00">&#45; quinn_send_stream: quinn::SendStream</text>
<polygon fill="white" stroke="none" points="413,-872 413,-939 859,-939 859,-872 413,-872"/>
<polygon fill="none" stroke="black" points="413,-872 413,-939 859,-939 859,-872 413,-872"/>
<text text-anchor="start" x="424" y="-916.8" font-family="Arial" font-size="14.00">&#45; new(quinn_send_stream: quinn::SendStream) &#45;&gt; Self</text>
<text text-anchor="start" x="424" y="-901.8" font-family="Arial" font-size="14.00">&#45; respond(&amp;mut self, response: &amp;JsonRpcResponse) &#45;&gt; Result&lt;()&gt;</text>
<text text-anchor="start" x="424" y="-886.8" font-family="Arial" font-size="14.00">&#45; finish(&amp;mut self) &#45;&gt; Result&lt;()&gt;</text>
<polygon fill="none" stroke="black" points="412,-871.5 412,-1014.5 860,-1014.5 860,-871.5 412,-871.5"/>
</g>
<!-- ndJsonRpcResponse&#45;&gt;ndJsonRpcResponseStream -->
<g id="edge2" class="edge"><title>ndJsonRpcResponse&#45;&gt;ndJsonRpcResponseStream</title>
<path fill="none" stroke="black" stroke-dasharray="5,2" d="M636,-1061.77C636,-1051.13 636,-1039.95 636,-1028.89"/>
<polygon fill="black" stroke="black" points="636,-1018.78 640.5,-1028.78 636,-1023.78 636,-1028.78 636,-1028.78 636,-1028.78 636,-1023.78 631.5,-1028.78 636,-1018.78 636,-1018.78"/>
</g>
<!-- ndJsonRpcError -->
<g id="node3" class="node"><title>ndJsonRpcError</title>
<polygon fill="lightblue" stroke="none" points="434,-1351 434,-1388 838,-1388 838,-1351 434,-1351"/>
<polygon fill="none" stroke="black" points="434,-1351 434,-1388 838,-1388 838,-1351 434,-1351"/>
<text text-anchor="start" x="586.5" y="-1366.8" font-family="Arial" font-weight="bold" font-size="14.00">JsonRpcError</text>
<polygon fill="white" stroke="none" points="434,-1284 434,-1351 838,-1351 838,-1284 434,-1284"/>
<polygon fill="none" stroke="black" points="434,-1284 434,-1351 838,-1351 838,-1284 434,-1284"/>
<text text-anchor="start" x="445" y="-1328.8" font-family="Arial" font-size="14.00">&#45; code: isize</text>
<text text-anchor="start" x="445" y="-1313.8" font-family="Arial" font-size="14.00">&#45; message: String</text>
<text text-anchor="start" x="445" y="-1298.8" font-family="Arial" font-size="14.00">&#45; data: String</text>
<polygon fill="white" stroke="none" points="434,-1232 434,-1284 838,-1284 838,-1232 434,-1232"/>
<polygon fill="none" stroke="black" points="434,-1232 434,-1284 838,-1284 838,-1232 434,-1232"/>
<text text-anchor="start" x="445" y="-1261.8" font-family="Arial" font-size="14.00">&#45; result(result: serde_json::Value, id: u32) &#45;&gt; Self</text>
<text text-anchor="start" x="445" y="-1246.8" font-family="Arial" font-size="14.00">&#45; error(message: String, code: isize, id: Option&lt;u32&gt;) &#45;&gt; Self</text>
<polygon fill="none" stroke="black" points="433,-1231 433,-1389 839,-1389 839,-1231 433,-1231"/>
</g>
<!-- ndJsonRpcError&#45;&gt;ndJsonRpcResponse -->
<g id="edge3" class="edge"><title>ndJsonRpcError&#45;&gt;ndJsonRpcResponse</title>
<path fill="none" stroke="black" d="M636,-1226.75C636,-1218.93 636,-1211.03 636,-1203.28"/>
<polygon fill="black" stroke="black" points="636,-1203.25 632,-1197.25 636,-1191.25 640,-1197.25 636,-1203.25"/>
</g>
<!-- ndEndpoint -->
<g id="node4" class="node"><title>ndEndpoint</title>
<polygon fill="lightblue" stroke="none" points="170,-438 170,-475 659,-475 659,-438 170,-438"/>
<polygon fill="none" stroke="black" points="170,-438 170,-475 659,-475 659,-438 170,-438"/>
<text text-anchor="start" x="382.5" y="-453.8" font-family="Arial" font-weight="bold" font-size="14.00">Endpoint</text>
<polygon fill="white" stroke="none" points="170,-401 170,-438 659,-438 659,-401 170,-401"/>
<polygon fill="none" stroke="black" points="170,-401 170,-438 659,-438 659,-401 170,-401"/>
<text text-anchor="start" x="181" y="-415.8" font-family="Arial" font-size="14.00">&#45; config: quinn::ServerConfig</text>
<polygon fill="white" stroke="none" points="170,-349 170,-401 659,-401 659,-349 170,-349"/>
<polygon fill="none" stroke="black" points="170,-349 170,-401 659,-401 659,-349 170,-349"/>
<text text-anchor="start" x="181" y="-378.8" font-family="Arial" font-size="14.00">&#45; new(cert_base_path: P, idle_timeout: Option&lt;u64&gt;) &#45;&gt; Result&lt;Self&gt;</text>
<text text-anchor="start" x="181" y="-363.8" font-family="Arial" font-size="14.00">&#45; bind(&amp;self, listen_socket_addr: &amp;SocketAddr) &#45;&gt; Result&lt;IncomingConn&gt;</text>
<polygon fill="none" stroke="black" points="168.5,-348 168.5,-476 659.5,-476 659.5,-348 168.5,-348"/>
</g>
<!-- ndOutgoingConn -->
<g id="node10" class="node"><title>ndOutgoingConn</title>
<polygon fill="lightblue" stroke="none" points="333,-266 333,-303 1018,-303 1018,-266 333,-266"/>
<polygon fill="none" stroke="black" points="333,-266 333,-303 1018,-303 1018,-266 333,-266"/>
<text text-anchor="start" x="624" y="-281.8" font-family="Arial" font-weight="bold" font-size="14.00">OutgoingConn</text>
<polygon fill="white" stroke="none" points="333,-229 333,-266 1018,-266 1018,-229 333,-229"/>
<polygon fill="none" stroke="black" points="333,-229 333,-266 1018,-266 1018,-229 333,-229"/>
<text text-anchor="start" x="344" y="-243.8" font-family="Arial" font-size="14.00">+ quinn_endpoint: quinn::Endpoint</text>
<polygon fill="white" stroke="none" points="333,-177 333,-229 1018,-229 1018,-177 333,-177"/>
<polygon fill="none" stroke="black" points="333,-177 333,-229 1018,-229 1018,-177 333,-177"/>
<text text-anchor="start" x="344" y="-206.8" font-family="Arial" font-size="14.00">&#45; new(quinn_endpoint: quinn::Endpoint) &#45;&gt; Self</text>
<text text-anchor="start" x="344" y="-191.8" font-family="Arial" font-size="14.00">&#45; connect(&amp;mut self, dest_endpoint: &amp;str, cert_host: Option&lt;&amp;str&gt;) &#45;&gt; Result&lt;OutgoingJsonRpcRequest&gt;</text>
<polygon fill="none" stroke="black" points="331.5,-176 331.5,-304 1018.5,-304 1018.5,-176 331.5,-176"/>
</g>
<!-- ndEndpoint&#45;&gt;ndOutgoingConn -->
<g id="edge4" class="edge"><title>ndEndpoint&#45;&gt;ndOutgoingConn</title>
<path fill="none" stroke="black" stroke-dasharray="5,2" d="M517.154,-343.811C532.302,-333.945 547.965,-323.743 563.276,-313.77"/>
<polygon fill="black" stroke="black" points="571.74,-308.257 565.817,-317.486 567.551,-310.986 563.361,-313.715 563.361,-313.715 563.361,-313.715 567.551,-310.986 560.905,-309.944 571.74,-308.257 571.74,-308.257"/>
</g>
<!-- ndIncomingConn -->
<g id="node5" class="node"><title>ndIncomingConn</title>
<polygon fill="lightblue" stroke="none" points="213,-610 213,-647 616,-647 616,-610 213,-610"/>
<polygon fill="none" stroke="black" points="213,-610 213,-647 616,-647 616,-610 213,-610"/>
<text text-anchor="start" x="363" y="-625.8" font-family="Arial" font-weight="bold" font-size="14.00">IncomingConn</text>
<polygon fill="white" stroke="none" points="213,-573 213,-610 616,-610 616,-573 213,-573"/>
<polygon fill="none" stroke="black" points="213,-573 213,-610 616,-610 616,-573 213,-573"/>
<text text-anchor="start" x="224" y="-587.8" font-family="Arial" font-size="14.00">&#45; quinn_incoming: quinn::Incoming</text>
<polygon fill="white" stroke="none" points="213,-521 213,-573 616,-573 616,-521 213,-521"/>
<polygon fill="none" stroke="black" points="213,-521 213,-573 616,-573 616,-521 213,-521"/>
<text text-anchor="start" x="224" y="-550.8" font-family="Arial" font-size="14.00">&#45; new(quinn_incoming: quinn::Incoming) &#45;&gt; Self</text>
<text text-anchor="start" x="224" y="-535.8" font-family="Arial" font-size="14.00">&#45; get_next(&amp;mut self) &#45;&gt; Option&lt;IncomingJsonRpcRequest&gt;</text>
<polygon fill="none" stroke="black" points="211.5,-520 211.5,-648 616.5,-648 616.5,-520 211.5,-520"/>
</g>
<!-- ndIncomingConn&#45;&gt;ndEndpoint -->
<g id="edge5" class="edge"><title>ndIncomingConn&#45;&gt;ndEndpoint</title>
<path fill="none" stroke="black" d="M414,-515.811C414,-507.498 414,-498.946 414,-490.494"/>
<polygon fill="black" stroke="black" points="414,-480.257 418.5,-490.257 414,-485.257 414,-490.257 414,-490.257 414,-490.257 414,-485.257 409.5,-490.257 414,-480.257 414,-480.257"/>
</g>
<!-- ndIncomingJsonRpcRequest&#45;&gt;ndIncomingConn -->
<g id="edge6" class="edge"><title>ndIncomingJsonRpcRequest&#45;&gt;ndIncomingConn</title>
<path fill="none" stroke="black" d="M414,-687.811C414,-679.498 414,-670.946 414,-662.494"/>
<polygon fill="black" stroke="black" points="414,-652.257 418.5,-662.257 414,-657.257 414,-662.257 414,-662.257 414,-662.257 414,-657.257 409.5,-662.257 414,-652.257 414,-652.257"/>
</g>
<!-- ndJsonRpcResponseStream&#45;&gt;ndIncomingJsonRpcRequest -->
<g id="edge7" class="edge"><title>ndJsonRpcResponseStream&#45;&gt;ndIncomingJsonRpcRequest</title>
<path fill="none" stroke="black" d="M546.344,-867.287C531.926,-855.272 517.009,-842.841 502.615,-830.846"/>
<polygon fill="black" stroke="black" points="494.679,-824.233 505.242,-827.178 498.52,-827.434 502.362,-830.635 502.362,-830.635 502.362,-830.635 498.52,-827.434 499.481,-834.092 494.679,-824.233 494.679,-824.233"/>
</g>
<!-- ndError -->
<g id="node8" class="node"><title>ndError</title>
<polygon fill="yellow" stroke="none" points="874,-1343 874,-1380 1104,-1380 1104,-1343 874,-1343"/>
<polygon fill="none" stroke="black" points="874,-1343 874,-1380 1104,-1380 1104,-1343 874,-1343"/>
<text text-anchor="start" x="970.5" y="-1358.8" font-family="Arial" font-weight="bold" font-size="14.00">Error</text>
<polygon fill="white" stroke="none" points="874,-1276 874,-1343 1104,-1343 1104,-1276 874,-1276"/>
<polygon fill="none" stroke="black" points="874,-1276 874,-1343 1104,-1343 1104,-1276 874,-1276"/>
<text text-anchor="start" x="885" y="-1320.8" font-family="Arial" font-size="14.00">ClientError(String)</text>
<text text-anchor="start" x="885" y="-1305.8" font-family="Arial" font-size="14.00">RemoteEndpointError(String)</text>
<text text-anchor="start" x="885" y="-1290.8" font-family="Arial" font-size="14.00">GeneralError(String)</text>
<polygon fill="white" stroke="none" points="874,-1239 874,-1276 1104,-1276 1104,-1239 874,-1239"/>
<polygon fill="none" stroke="black" points="874,-1239 874,-1276 1104,-1276 1104,-1239 874,-1239"/>
<text text-anchor="start" x="885" y="-1253.8" font-family="Arial" font-size="14.00">&#45; from(error: std::io::Error) &#45;&gt; Self</text>
<polygon fill="none" stroke="black" points="873,-1238.5 873,-1381.5 1105,-1381.5 1105,-1238.5 873,-1238.5"/>
</g>
<!-- ndClientEndpoint -->
<g id="node9" class="node"><title>ndClientEndpoint</title>
<polygon fill="lightblue" stroke="none" points="404,-94 404,-131 946,-131 946,-94 404,-94"/>
<polygon fill="none" stroke="black" points="404,-94 404,-131 946,-131 946,-94 404,-94"/>
<text text-anchor="start" x="623.5" y="-109.8" font-family="Arial" font-weight="bold" font-size="14.00">ClientEndpoint</text>
<polygon fill="white" stroke="none" points="404,-57 404,-94 946,-94 946,-57 404,-57"/>
<polygon fill="none" stroke="black" points="404,-57 404,-94 946,-94 946,-57 404,-57"/>
<text text-anchor="start" x="415" y="-71.8" font-family="Arial" font-size="14.00">&#45; config: quinn::ClientConfig</text>
<polygon fill="white" stroke="none" points="404,-5 404,-57 946,-57 946,-5 404,-5"/>
<polygon fill="none" stroke="black" points="404,-5 404,-57 946,-57 946,-5 404,-5"/>
<text text-anchor="start" x="415" y="-34.8" font-family="Arial" font-size="14.00">&#45; new(cert_base_path: P, idle_timeout: Option&lt;u64&gt;, keylog: bool) &#45;&gt; Result&lt;Self&gt;</text>
<text text-anchor="start" x="415" y="-19.8" font-family="Arial" font-size="14.00">&#45; bind(&amp;self) &#45;&gt; Result&lt;OutgoingConn&gt;</text>
<polygon fill="none" stroke="black" points="403,-4 403,-132 947,-132 947,-4 403,-4"/>
</g>
<!-- ndOutgoingConn&#45;&gt;ndClientEndpoint -->
<g id="edge8" class="edge"><title>ndOutgoingConn&#45;&gt;ndClientEndpoint</title>
<path fill="none" stroke="black" d="M675,-171.811C675,-163.498 675,-154.946 675,-146.494"/>
<polygon fill="black" stroke="black" points="675,-136.257 679.5,-146.257 675,-141.257 675,-146.257 675,-146.257 675,-146.257 675,-141.257 670.5,-146.257 675,-136.257 675,-136.257"/>
</g>
<!-- ndOutgoingJsonRpcRequest -->
<g id="node11" class="node"><title>ndOutgoingJsonRpcRequest</title>
<polygon fill="lightblue" stroke="none" points="695,-438 695,-475 1177,-475 1177,-438 695,-438"/>
<polygon fill="none" stroke="black" points="695,-438 695,-475 1177,-475 1177,-438 695,-438"/>
<text text-anchor="start" x="844" y="-453.8" font-family="Arial" font-weight="bold" font-size="14.00">OutgoingJsonRpcRequest</text>
<polygon fill="white" stroke="none" points="695,-401 695,-438 1177,-438 1177,-401 695,-401"/>
<polygon fill="none" stroke="black" points="695,-401 695,-438 1177,-438 1177,-401 695,-401"/>
<text text-anchor="start" x="706" y="-415.8" font-family="Arial" font-size="14.00">&#45; quinn_connection: quinn::Connection</text>
<polygon fill="white" stroke="none" points="695,-349 695,-401 1177,-401 1177,-349 695,-349"/>
<polygon fill="none" stroke="black" points="695,-349 695,-401 1177,-401 1177,-349 695,-349"/>
<text text-anchor="start" x="706" y="-378.8" font-family="Arial" font-size="14.00">&#45; new(quinn_connection: quinn::Connection) &#45;&gt; Self</text>
<text text-anchor="start" x="706" y="-363.8" font-family="Arial" font-size="14.00">&#45; send(&amp;mut self, method: &amp;str, params: serde_json::Value) &#45;&gt; Result&lt;T&gt;</text>
<polygon fill="none" stroke="black" points="694,-348 694,-476 1178,-476 1178,-348 694,-348"/>
</g>
<!-- ndOutgoingJsonRpcRequest&#45;&gt;ndOutgoingConn -->
<g id="edge9" class="edge"><title>ndOutgoingJsonRpcRequest&#45;&gt;ndOutgoingConn</title>
<path fill="none" stroke="black" d="M832.846,-343.811C817.698,-333.945 802.035,-323.743 786.724,-313.77"/>
<polygon fill="black" stroke="black" points="778.26,-308.257 789.095,-309.944 782.449,-310.986 786.639,-313.715 786.639,-313.715 786.639,-313.715 782.449,-310.986 784.183,-317.486 778.26,-308.257 778.26,-308.257"/>
</g>
</g>
</svg>
