<?xml version="1.0" encoding="UTF-8" standalone="no"?>
<!DOCTYPE svg PUBLIC "-//W3C//DTD SVG 1.1//EN"
 "http://www.w3.org/Graphics/SVG/1.1/DTD/svg11.dtd">
<!-- Generated by graphviz version 2.38.0 (20140413.2041)
 -->
<!-- Title: ml Pages: 1 -->
<svg width="1795pt" height="1184pt"
 viewBox="0.00 0.00 1794.50 1184.00" xmlns="http://www.w3.org/2000/svg" xmlns:xlink="http://www.w3.org/1999/xlink">
<g id="graph0" class="graph" transform="scale(1 1) rotate(0) translate(4 1180)">
<title>ml</title>
<polygon fill="white" stroke="none" points="-4,4 -4,-1180 1790.5,-1180 1790.5,4 -4,4"/>
<!-- ndJsonRpcRequest -->
<g id="node1" class="node"><title>ndJsonRpcRequest</title>
<g id="a_node1_0"><a xlink:href="https://github.com/maidsafe/qjsonrpc/blob/master/src/jsonrpc.rs#:~:text=struct%20JsonRpcRequest" xlink:title="&lt;TABLE&gt;">
<polygon fill="lightblue" stroke="none" points="9,-670 9,-707 377,-707 377,-670 9,-670"/>
<polygon fill="none" stroke="black" points="9,-670 9,-707 377,-707 377,-670 9,-670"/>
<text text-anchor="start" x="133.5" y="-685.8" font-family="Arial" font-weight="bold" font-size="14.00">JsonRpcRequest</text>
<polygon fill="white" stroke="none" points="9,-588 9,-670 377,-670 377,-588 9,-588"/>
<polygon fill="none" stroke="black" points="9,-588 9,-670 377,-670 377,-588 9,-588"/>
<text text-anchor="start" x="20" y="-647.8" font-family="Arial" font-size="14.00">&#45; jsonrpc: String</text>
<text text-anchor="start" x="20" y="-632.8" font-family="Arial" font-size="14.00">+ method: String</text>
<text text-anchor="start" x="20" y="-617.8" font-family="Arial" font-size="14.00">+ params: serde_json::Value</text>
<text text-anchor="start" x="20" y="-602.8" font-family="Arial" font-size="14.00">+ id: u32</text>
<polygon fill="white" stroke="none" points="9,-551 9,-588 377,-588 377,-551 9,-551"/>
<polygon fill="none" stroke="black" points="9,-551 9,-588 377,-588 377,-551 9,-551"/>
<text text-anchor="start" x="20" y="-565.8" font-family="Arial" font-size="14.00">&#45; new(method: &amp;str, params: serde_json::Value) &#45;&gt; Self</text>
<polygon fill="none" stroke="black" points="8,-550 8,-708 378,-708 378,-550 8,-550"/>
</a>
</g>
</g>
<!-- ndIncomingJsonRpcRequest -->
<g id="node6" class="node"><title>ndIncomingJsonRpcRequest</title>
<g id="a_node6_1"><a xlink:href="https://github.com/maidsafe/qjsonrpc/blob/master/src/server_endpoint.rs#:~:text=struct%20IncomingJsonRpcRequest" xlink:title="&lt;TABLE&gt;">
<polygon fill="lightblue" stroke="none" points="149,-468 149,-505 679,-505 679,-468 149,-468"/>
<polygon fill="none" stroke="black" points="149,-468 149,-505 679,-505 679,-468 149,-468"/>
<text text-anchor="start" x="322" y="-483.8" font-family="Arial" font-weight="bold" font-size="14.00">IncomingJsonRpcRequest</text>
<polygon fill="white" stroke="none" points="149,-431 149,-468 679,-468 679,-431 149,-431"/>
<polygon fill="none" stroke="black" points="149,-431 149,-468 679,-468 679,-431 149,-431"/>
<text text-anchor="start" x="160" y="-445.8" font-family="Arial" font-size="14.00">&#45; bi_streams: quinn::IncomingBiStreams</text>
<polygon fill="white" stroke="none" points="149,-379 149,-431 679,-431 679,-379 149,-379"/>
<polygon fill="none" stroke="black" points="149,-379 149,-431 679,-431 679,-379 149,-379"/>
<text text-anchor="start" x="160" y="-408.8" font-family="Arial" font-size="14.00">&#45; new(bi_streams: quinn::IncomingBiStreams) &#45;&gt; Self</text>
<text text-anchor="start" x="160" y="-393.8" font-family="Arial" font-size="14.00">&#45; get_next(&amp;mut self) &#45;&gt; Option&lt;(JsonRpcRequest, JsonRpcResponseStream)&gt;</text>
<polygon fill="none" stroke="black" points="148,-378 148,-506 680,-506 680,-378 148,-378"/>
</a>
</g>
</g>
<!-- ndJsonRpcRequest&#45;&gt;ndIncomingJsonRpcRequest -->
<g id="edge1" class="edge"><title>ndJsonRpcRequest&#45;&gt;ndIncomingJsonRpcRequest</title>
<path fill="none" stroke="black" d="M291.221,-545.779C302.742,-536.135 314.443,-526.34 325.815,-516.82"/>
<polygon fill="black" stroke="black" points="333.629,-510.279 328.85,-520.148 329.795,-513.488 325.961,-516.698 325.961,-516.698 325.961,-516.698 329.795,-513.488 323.073,-513.247 333.629,-510.279 333.629,-510.279"/>
</g>
<!-- ndJsonRpcResponse -->
<g id="node2" class="node"><title>ndJsonRpcResponse</title>
<g id="a_node2_2"><a xlink:href="https://github.com/maidsafe/qjsonrpc/blob/master/src/jsonrpc.rs#:~:text=struct%20JsonRpcResponse" xlink:title="&lt;TABLE&gt;">
<polygon fill="lightblue" stroke="none" points="434,-886.5 434,-923.5 838,-923.5 838,-886.5 434,-886.5"/>
<polygon fill="none" stroke="black" points="434,-886.5 434,-923.5 838,-923.5 838,-886.5 434,-886.5"/>
<text text-anchor="start" x="570" y="-902.3" font-family="Arial" font-weight="bold" font-size="14.00">JsonRpcResponse</text>
<polygon fill="white" stroke="none" points="434,-804.5 434,-886.5 838,-886.5 838,-804.5 434,-804.5"/>
<polygon fill="none" stroke="black" points="434,-804.5 434,-886.5 838,-886.5 838,-804.5 434,-804.5"/>
<text text-anchor="start" x="445" y="-864.3" font-family="Arial" font-size="14.00">&#45; jsonrpc: String</text>
<text text-anchor="start" x="445" y="-849.3" font-family="Arial" font-size="14.00">&#45; result: Option&lt;serde_json::Value&gt;</text>
<text text-anchor="start" x="445" y="-834.3" font-family="Arial" font-size="14.00">&#45; error: Option&lt;JsonRpcError&gt;</text>
<text text-anchor="start" x="445" y="-819.3" font-family="Arial" font-size="14.00">&#45; id: Option&lt;u32&gt;</text>
<polygon fill="white" stroke="none" points="434,-752.5 434,-804.5 838,-804.5 838,-752.5 434,-752.5"/>
<polygon fill="none" stroke="black" points="434,-752.5 434,-804.5 838,-804.5 838,-752.5 434,-752.5"/>
<text text-anchor="start" x="445" y="-782.3" font-family="Arial" font-size="14.00">&#45; result(result: serde_json::Value, id: u32) &#45;&gt; Self</text>
<text text-anchor="start" x="445" y="-767.3" font-family="Arial" font-size="14.00">&#45; error(message: String, code: isize, id: Option&lt;u32&gt;) &#45;&gt; Self</text>
<polygon fill="none" stroke="black" points="433,-752 433,-925 839,-925 839,-752 433,-752"/>
</a>
</g>
</g>
<!-- ndJsonRpcResponseStream -->
<g id="node7" class="node"><title>ndJsonRpcResponseStream</title>
<g id="a_node7_3"><a xlink:href="https://github.com/maidsafe/qjsonrpc/blob/master/src/server_endpoint.rs#:~:text=struct%20JsonRpcResponseStream" xlink:title="&lt;TABLE&gt;">
<polygon fill="lightblue" stroke="none" points="413,-662 413,-699 859,-699 859,-662 413,-662"/>
<polygon fill="none" stroke="black" points="413,-662 413,-699 859,-699 859,-662 413,-662"/>
<text text-anchor="start" x="545.5" y="-677.8" font-family="Arial" font-weight="bold" font-size="14.00">JsonRpcResponseStream</text>
<polygon fill="white" stroke="none" points="413,-625 413,-662 859,-662 859,-625 413,-625"/>
<polygon fill="none" stroke="black" points="413,-625 413,-662 859,-662 859,-625 413,-625"/>
<text text-anchor="start" x="424" y="-639.8" font-family="Arial" font-size="14.00">&#45; quinn_send_stream: quinn::SendStream</text>
<polygon fill="white" stroke="none" points="413,-558 413,-625 859,-625 859,-558 413,-558"/>
<polygon fill="none" stroke="black" points="413,-558 413,-625 859,-625 859,-558 413,-558"/>
<text text-anchor="start" x="424" y="-602.8" font-family="Arial" font-size="14.00">&#45; new(quinn_send_stream: quinn::SendStream) &#45;&gt; Self</text>
<text text-anchor="start" x="424" y="-587.8" font-family="Arial" font-size="14.00">&#45; respond(&amp;mut self, response: &amp;JsonRpcResponse) &#45;&gt; Result&lt;()&gt;</text>
<text text-anchor="start" x="424" y="-572.8" font-family="Arial" font-size="14.00">&#45; finish(&amp;mut self) &#45;&gt; Result&lt;()&gt;</text>
<polygon fill="none" stroke="black" points="412,-557.5 412,-700.5 860,-700.5 860,-557.5 412,-557.5"/>
</a>
</g>
</g>
<!-- ndJsonRpcResponse&#45;&gt;ndJsonRpcResponseStream -->
<g id="edge2" class="edge"><title>ndJsonRpcResponse&#45;&gt;ndJsonRpcResponseStream</title>
<path fill="none" stroke="black" stroke-dasharray="5,2" d="M636,-747.996C636,-736.911 636,-725.604 636,-714.596"/>
<polygon fill="black" stroke="black" points="636,-704.585 640.5,-714.585 636,-709.585 636,-714.585 636,-714.585 636,-714.585 636,-709.585 631.5,-714.585 636,-704.585 636,-704.585"/>
</g>
<!-- ndJsonRpcError -->
<g id="node3" class="node"><title>ndJsonRpcError</title>
<g id="a_node3_4"><a xlink:href="https://github.com/maidsafe/qjsonrpc/blob/master/src/jsonrpc.rs#:~:text=struct%20JsonRpcError" xlink:title="&lt;TABLE&gt;">
<polygon fill="lightblue" stroke="none" points="569,-1085.5 569,-1122.5 703,-1122.5 703,-1085.5 569,-1085.5"/>
<polygon fill="none" stroke="black" points="569,-1085.5 569,-1122.5 703,-1122.5 703,-1085.5 569,-1085.5"/>
<text text-anchor="start" x="586.5" y="-1101.3" font-family="Arial" font-weight="bold" font-size="14.00">JsonRpcError</text>
<polygon fill="white" stroke="none" points="569,-1018.5 569,-1085.5 703,-1085.5 703,-1018.5 569,-1018.5"/>
<polygon fill="none" stroke="black" points="569,-1018.5 569,-1085.5 703,-1085.5 703,-1018.5 569,-1018.5"/>
<text text-anchor="start" x="580" y="-1063.3" font-family="Arial" font-size="14.00">&#45; code: isize</text>
<text text-anchor="start" x="580" y="-1048.3" font-family="Arial" font-size="14.00">&#45; message: String</text>
<text text-anchor="start" x="580" y="-1033.3" font-family="Arial" font-size="14.00">&#45; data: String</text>
<polygon fill="none" stroke="black" points="568,-1017.5 568,-1123.5 704,-1123.5 704,-1017.5 568,-1017.5"/>
</a>
</g>
</g>
<!-- ndJsonRpcError&#45;&gt;ndJsonRpcResponse -->
<g id="edge3" class="edge"><title>ndJsonRpcError&#45;&gt;ndJsonRpcResponse</title>
<path fill="none" stroke="black" d="M636,-1013.24C636,-991.521 636,-965.987 636,-941.278"/>
<polygon fill="black" stroke="black" points="636,-941.234 632,-935.235 636,-929.234 640,-935.234 636,-941.234"/>
</g>
<!-- ndServerEndpoint -->
<g id="node4" class="node"><title>ndServerEndpoint</title>
<g id="a_node4_5"><a xlink:href="https://github.com/maidsafe/qjsonrpc/blob/master/src/server_endpoint.rs#:~:text=struct%20ServerEndpoint" xlink:title="&lt;TABLE&gt;">
<polygon fill="lightblue" stroke="none" points="165,-124 165,-161 663,-161 663,-124 165,-124"/>
<polygon fill="none" stroke="black" points="165,-124 165,-161 663,-161 663,-124 165,-124"/>
<text text-anchor="start" x="359" y="-139.8" font-family="Arial" font-weight="bold" font-size="14.00">ServerEndpoint</text>
<polygon fill="white" stroke="none" points="165,-57 165,-124 663,-124 663,-57 165,-57"/>
<polygon fill="none" stroke="black" points="165,-57 165,-124 663,-124 663,-57 165,-57"/>
<text text-anchor="start" x="176" y="-101.8" font-family="Arial" font-size="14.00">&#45; config: quinn::ServerConfig</text>
<text text-anchor="start" x="176" y="-86.8" font-family="Arial" font-size="14.00">&#45; crypto_config: rustls::ServerConfig</text>
<text text-anchor="start" x="176" y="-71.8" font-family="Arial" font-size="14.00">&#45; idle_timeout: u64</text>
<polygon fill="white" stroke="none" points="165,-5 165,-57 663,-57 663,-5 165,-5"/>
<polygon fill="none" stroke="black" points="165,-5 165,-57 663,-57 663,-5 165,-5"/>
<text text-anchor="start" x="176" y="-34.8" font-family="Arial" font-size="14.00">&#45; new(cert_path: P, key_path: P, idle_timeout: Option&lt;u64&gt;) &#45;&gt; Result&lt;Self&gt;</text>
<text text-anchor="start" x="176" y="-19.8" font-family="Arial" font-size="14.00">&#45; bind(&amp;self, listen_socket_addr: &amp;SocketAddr) &#45;&gt; Result&lt;IncomingConn&gt;</text>
<polygon fill="none" stroke="black" points="164,-4 164,-162 664,-162 664,-4 164,-4"/>
</a>
</g>
</g>
<!-- ndIncomingConn -->
<g id="node5" class="node"><title>ndIncomingConn</title>
<g id="a_node5_6"><a xlink:href="https://github.com/maidsafe/qjsonrpc/blob/master/src/server_endpoint.rs#:~:text=struct%20IncomingConn" xlink:title="&lt;TABLE&gt;">
<polygon fill="lightblue" stroke="none" points="213,-296 213,-333 616,-333 616,-296 213,-296"/>
<polygon fill="none" stroke="black" points="213,-296 213,-333 616,-333 616,-296 213,-296"/>
<text text-anchor="start" x="363" y="-311.8" font-family="Arial" font-weight="bold" font-size="14.00">IncomingConn</text>
<polygon fill="white" stroke="none" points="213,-259 213,-296 616,-296 616,-259 213,-259"/>
<polygon fill="none" stroke="black" points="213,-259 213,-296 616,-296 616,-259 213,-259"/>
<text text-anchor="start" x="224" y="-273.8" font-family="Arial" font-size="14.00">&#45; quinn_incoming: quinn::Incoming</text>
<polygon fill="white" stroke="none" points="213,-207 213,-259 616,-259 616,-207 213,-207"/>
<polygon fill="none" stroke="black" points="213,-207 213,-259 616,-259 616,-207 213,-207"/>
<text text-anchor="start" x="224" y="-236.8" font-family="Arial" font-size="14.00">&#45; new(quinn_incoming: quinn::Incoming) &#45;&gt; Self</text>
<text text-anchor="start" x="224" y="-221.8" font-family="Arial" font-size="14.00">&#45; get_next(&amp;mut self) &#45;&gt; Option&lt;IncomingJsonRpcRequest&gt;</text>
<polygon fill="none" stroke="black" points="211.5,-206 211.5,-334 616.5,-334 616.5,-206 211.5,-206"/>
</a>
</g>
</g>
<!-- ndIncomingConn&#45;&gt;ndServerEndpoint -->
<g id="edge4" class="edge"><title>ndIncomingConn&#45;&gt;ndServerEndpoint</title>
<path fill="none" stroke="black" d="M414,-201.949C414,-193.625 414,-185.003 414,-176.382"/>
<polygon fill="black" stroke="black" points="414,-166.28 418.5,-176.28 414,-171.28 414,-176.28 414,-176.28 414,-176.28 414,-171.28 409.5,-176.28 414,-166.28 414,-166.28"/>
</g>
<!-- ndIncomingJsonRpcRequest&#45;&gt;ndIncomingConn -->
<g id="edge5" class="edge"><title>ndIncomingJsonRpcRequest&#45;&gt;ndIncomingConn</title>
<path fill="none" stroke="black" d="M414,-373.811C414,-365.498 414,-356.946 414,-348.494"/>
<polygon fill="black" stroke="black" points="414,-338.257 418.5,-348.257 414,-343.257 414,-348.257 414,-348.257 414,-348.257 414,-343.257 409.5,-348.257 414,-338.257 414,-338.257"/>
</g>
<!-- ndJsonRpcResponseStream&#45;&gt;ndIncomingJsonRpcRequest -->
<g id="edge6" class="edge"><title>ndJsonRpcResponseStream&#45;&gt;ndIncomingJsonRpcRequest</title>
<path fill="none" stroke="black" d="M546.344,-553.287C531.926,-541.272 517.009,-528.841 502.615,-516.846"/>
<polygon fill="black" stroke="black" points="494.679,-510.233 505.242,-513.178 498.52,-513.434 502.362,-516.635 502.362,-516.635 502.362,-516.635 498.52,-513.434 499.481,-520.092 494.679,-510.233 494.679,-510.233"/>
</g>
<!-- ndError -->
<g id="node8" class="node"><title>ndError</title>
<g id="a_node8_7"><a xlink:href="https://github.com/maidsafe/qjsonrpc/blob/master/src/errors.rs#:~:text=enum%20Error" xlink:title="&lt;TABLE&gt;">
<polygon fill="yellow" stroke="none" points="740,-1133.5 740,-1170.5 1159,-1170.5 1159,-1133.5 740,-1133.5"/>
<polygon fill="none" stroke="black" points="740,-1133.5 740,-1170.5 1159,-1170.5 1159,-1133.5 740,-1133.5"/>
<text text-anchor="start" x="931" y="-1149.3" font-family="Arial" font-weight="bold" font-size="14.00">Error</text>
<polygon fill="white" stroke="none" points="740,-1006.5 740,-1133.5 1159,-1133.5 1159,-1006.5 740,-1006.5"/>
<polygon fill="none" stroke="black" points="740,-1006.5 740,-1133.5 1159,-1133.5 1159,-1006.5 740,-1006.5"/>
<text text-anchor="start" x="751" y="-1111.3" font-family="Arial" font-size="14.00">ClientError(String)</text>
<text text-anchor="start" x="751" y="-1096.3" font-family="Arial" font-size="14.00">ServerError(String)</text>
<text text-anchor="start" x="751" y="-1081.3" font-family="Arial" font-size="14.00">RemoteEndpointError(String)</text>
<text text-anchor="start" x="751" y="-1066.3" font-family="Arial" font-size="14.00">GeneralError(String)</text>
<text text-anchor="start" x="751" y="-1051.3" font-family="Arial" font-size="14.00">CryptoConfigError(rustls::Error)</text>
<text text-anchor="start" x="751" y="-1036.3" font-family="Arial" font-size="14.00">IdleTimeoutParsingError(quinn_proto::VarIntBoundsExceeded)</text>
<text text-anchor="start" x="751" y="-1021.3" font-family="Arial" font-size="14.00">Webpki(webpki::Error)</text>
<polygon fill="white" stroke="none" points="740,-969.5 740,-1006.5 1159,-1006.5 1159,-969.5 740,-969.5"/>
<polygon fill="none" stroke="black" points="740,-969.5 740,-1006.5 1159,-1006.5 1159,-969.5 740,-969.5"/>
<text text-anchor="start" x="751" y="-984.3" font-family="Arial" font-size="14.00">&#45; from(error: std::io::Error) &#45;&gt; Self</text>
<polygon fill="none" stroke="black" points="738.5,-969 738.5,-1172 1159.5,-1172 1159.5,-969 738.5,-969"/>
</a>
</g>
</g>
<!-- ndClientEndpoint -->
<g id="node9" class="node"><title>ndClientEndpoint</title>
<g id="a_node9_8"><a xlink:href="https://github.com/maidsafe/qjsonrpc/blob/master/src/client_endpoint.rs#:~:text=struct%20ClientEndpoint" xlink:title="&lt;TABLE&gt;">
<polygon fill="lightblue" stroke="none" points="1159,-670 1159,-707 1712,-707 1712,-670 1159,-670"/>
<polygon fill="none" stroke="black" points="1159,-670 1159,-707 1712,-707 1712,-670 1159,-670"/>
<text text-anchor="start" x="1384" y="-685.8" font-family="Arial" font-weight="bold" font-size="14.00">ClientEndpoint</text>
<polygon fill="white" stroke="none" points="1159,-603 1159,-670 1712,-670 1712,-603 1159,-603"/>
<polygon fill="none" stroke="black" points="1159,-603 1159,-670 1712,-670 1712,-603 1159,-603"/>
<text text-anchor="start" x="1170" y="-647.8" font-family="Arial" font-size="14.00">&#45; config: quinn::ClientConfig</text>
<text text-anchor="start" x="1170" y="-632.8" font-family="Arial" font-size="14.00">&#45; crypto_config: rustls::ClientConfig</text>
<text text-anchor="start" x="1170" y="-617.8" font-family="Arial" font-size="14.00">&#45; idle_timeout: u64</text>
<polygon fill="white" stroke="none" points="1159,-551 1159,-603 1712,-603 1712,-551 1159,-551"/>
<polygon fill="none" stroke="black" points="1159,-551 1159,-603 1712,-603 1712,-551 1159,-551"/>
<text text-anchor="start" x="1170" y="-580.8" font-family="Arial" font-size="14.00">&#45; new(cert_path: P, idle_timeout: Option&lt;u64&gt;, enable_keylog: bool) &#45;&gt; Result&lt;Self&gt;</text>
<text text-anchor="start" x="1170" y="-565.8" font-family="Arial" font-size="14.00">&#45; bind(&amp;self) &#45;&gt; Result&lt;OutgoingConn&gt;</text>
<polygon fill="none" stroke="black" points="1157.5,-550 1157.5,-708 1712.5,-708 1712.5,-550 1157.5,-550"/>
</a>
</g>
</g>
<!-- ndOutgoingConn -->
<g id="node10" class="node"><title>ndOutgoingConn</title>
<g id="a_node10_9"><a xlink:href="https://github.com/maidsafe/qjsonrpc/blob/master/src/client_endpoint.rs#:~:text=struct%20OutgoingConn" xlink:title="&lt;TABLE&gt;">
<polygon fill="lightblue" stroke="none" points="1093,-864.5 1093,-901.5 1778,-901.5 1778,-864.5 1093,-864.5"/>
<polygon fill="none" stroke="black" points="1093,-864.5 1093,-901.5 1778,-901.5 1778,-864.5 1093,-864.5"/>
<text text-anchor="start" x="1384" y="-880.3" font-family="Arial" font-weight="bold" font-size="14.00">OutgoingConn</text>
<polygon fill="white" stroke="none" points="1093,-827.5 1093,-864.5 1778,-864.5 1778,-827.5 1093,-827.5"/>
<polygon fill="none" stroke="black" points="1093,-827.5 1093,-864.5 1778,-864.5 1778,-827.5 1093,-827.5"/>
<text text-anchor="start" x="1104" y="-842.3" font-family="Arial" font-size="14.00">+ quinn_endpoint: quinn::Endpoint</text>
<polygon fill="white" stroke="none" points="1093,-775.5 1093,-827.5 1778,-827.5 1778,-775.5 1093,-775.5"/>
<polygon fill="none" stroke="black" points="1093,-775.5 1093,-827.5 1778,-827.5 1778,-775.5 1093,-775.5"/>
<text text-anchor="start" x="1104" y="-805.3" font-family="Arial" font-size="14.00">&#45; new(quinn_endpoint: quinn::Endpoint) &#45;&gt; Self</text>
<text text-anchor="start" x="1104" y="-790.3" font-family="Arial" font-size="14.00">&#45; connect(&amp;mut self, dest_endpoint: &amp;str, cert_host: Option&lt;&amp;str&gt;) &#45;&gt; Result&lt;OutgoingJsonRpcRequest&gt;</text>
<polygon fill="none" stroke="black" points="1091.5,-774.5 1091.5,-902.5 1778.5,-902.5 1778.5,-774.5 1091.5,-774.5"/>
</a>
</g>
</g>
<!-- ndOutgoingConn&#45;&gt;ndClientEndpoint -->
<g id="edge7" class="edge"><title>ndOutgoingConn&#45;&gt;ndClientEndpoint</title>
<path fill="none" stroke="black" d="M1435,-770.417C1435,-755.023 1435,-738.392 1435,-722.145"/>
<polygon fill="black" stroke="black" points="1435,-712.094 1439.5,-722.094 1435,-717.094 1435,-722.094 1435,-722.094 1435,-722.094 1435,-717.094 1430.5,-722.094 1435,-712.094 1435,-712.094"/>
</g>
<!-- ndOutgoingJsonRpcRequest -->
<g id="node11" class="node"><title>ndOutgoingJsonRpcRequest</title>
<g id="a_node11_10"><a xlink:href="https://github.com/maidsafe/qjsonrpc/blob/master/src/client_endpoint.rs#:~:text=struct%20OutgoingJsonRpcRequest" xlink:title="&lt;TABLE&gt;">
<polygon fill="lightblue" stroke="none" points="1194,-1096.5 1194,-1133.5 1676,-1133.5 1676,-1096.5 1194,-1096.5"/>
<polygon fill="none" stroke="black" points="1194,-1096.5 1194,-1133.5 1676,-1133.5 1676,-1096.5 1194,-1096.5"/>
<text text-anchor="start" x="1343" y="-1112.3" font-family="Arial" font-weight="bold" font-size="14.00">OutgoingJsonRpcRequest</text>
<polygon fill="white" stroke="none" points="1194,-1059.5 1194,-1096.5 1676,-1096.5 1676,-1059.5 1194,-1059.5"/>
<polygon fill="none" stroke="black" points="1194,-1059.5 1194,-1096.5 1676,-1096.5 1676,-1059.5 1194,-1059.5"/>
<text text-anchor="start" x="1205" y="-1074.3" font-family="Arial" font-size="14.00">&#45; quinn_connection: quinn::Connection</text>
<polygon fill="white" stroke="none" points="1194,-1007.5 1194,-1059.5 1676,-1059.5 1676,-1007.5 1194,-1007.5"/>
<polygon fill="none" stroke="black" points="1194,-1007.5 1194,-1059.5 1676,-1059.5 1676,-1007.5 1194,-1007.5"/>
<text text-anchor="start" x="1205" y="-1037.3" font-family="Arial" font-size="14.00">&#45; new(quinn_connection: quinn::Connection) &#45;&gt; Self</text>
<text text-anchor="start" x="1205" y="-1022.3" font-family="Arial" font-size="14.00">&#45; send(&amp;mut self, method: &amp;str, params: serde_json::Value) &#45;&gt; Result&lt;T&gt;</text>
<polygon fill="none" stroke="black" points="1193,-1006.5 1193,-1134.5 1677,-1134.5 1677,-1006.5 1193,-1006.5"/>
</a>
</g>
</g>
<!-- ndOutgoingJsonRpcRequest&#45;&gt;ndOutgoingConn -->
<g id="edge8" class="edge"><title>ndOutgoingJsonRpcRequest&#45;&gt;ndOutgoingConn</title>
<path fill="none" stroke="black" d="M1435,-1002.36C1435,-975.55 1435,-944.521 1435,-916.783"/>
<polygon fill="black" stroke="black" points="1435,-906.727 1439.5,-916.727 1435,-911.727 1435,-916.727 1435,-916.727 1435,-916.727 1435,-911.727 1430.5,-916.727 1435,-906.727 1435,-906.727"/>
</g>
</g>
</svg>
