<?xml version="1.0" encoding="UTF-8" standalone="no"?>
<!DOCTYPE svg PUBLIC "-//W3C//DTD SVG 1.1//EN"
 "http://www.w3.org/Graphics/SVG/1.1/DTD/svg11.dtd">
<!-- Generated by graphviz version 2.38.0 (20140413.2041)
 -->
<!-- Title: ml Pages: 1 -->
<svg width="1633pt" height="625pt"
 viewBox="0.00 0.00 1633.00 625.00" xmlns="http://www.w3.org/2000/svg" xmlns:xlink="http://www.w3.org/1999/xlink">
<g id="graph0" class="graph" transform="scale(1 1) rotate(0) translate(4 621)">
<title>ml</title>
<polygon fill="white" stroke="none" points="-4,4 -4,-621 1629,-621 1629,4 -4,4"/>
<!-- ndJsonRpcRequest -->
<g id="node1" class="node"><title>ndJsonRpcRequest</title>
<g id="a_node1_0"><a xlink:href="https://github.com/maidsafe/qjsonrpc/blob/master/src/jsonrpc.rs#:~:text=struct%20JsonRpcRequest" xlink:title="&lt;TABLE&gt;">
<polygon fill="lightblue" stroke="none" points="9.5,-419.5 9.5,-456.5 850.5,-456.5 850.5,-419.5 9.5,-419.5"/>
<polygon fill="none" stroke="black" points="9.5,-419.5 9.5,-456.5 850.5,-456.5 850.5,-419.5 9.5,-419.5"/>
<text text-anchor="start" x="20.5" y="-435.3" font-family="Arial" font-weight="bold" font-size="14.00">pub struct JsonRpcRequest { &#160;&#160;&#160;jsonrpc: String, &#160;&#160;&#160;pub method: String, &#160;&#160;&#160;pub params: serde_json::Value, &#160;&#160;&#160;pub id: u32,}</text>
<polygon fill="none" stroke="black" points="8,-419 8,-458 851,-458 851,-419 8,-419"/>
</a>
</g>
</g>
<!-- ndIncomingJsonRpcRequest -->
<g id="node6" class="node"><title>ndIncomingJsonRpcRequest</title>
<g id="a_node6_1"><a xlink:href="https://github.com/maidsafe/qjsonrpc/blob/master/src/server_endpoint.rs#:~:text=struct%20IncomingJsonRpcRequest" xlink:title="&lt;TABLE&gt;">
<polygon fill="lightblue" stroke="none" points="513.5,-336.5 513.5,-373.5 1100.5,-373.5 1100.5,-336.5 513.5,-336.5"/>
<polygon fill="none" stroke="black" points="513.5,-336.5 513.5,-373.5 1100.5,-373.5 1100.5,-336.5 513.5,-336.5"/>
<text text-anchor="start" x="524.5" y="-352.3" font-family="Arial" font-weight="bold" font-size="14.00">pub struct IncomingJsonRpcRequest { &#160;&#160;&#160;bi_streams: quinn::IncomingBiStreams,}</text>
<polygon fill="none" stroke="black" points="512,-336 512,-375 1101,-375 1101,-336 512,-336"/>
</a>
</g>
</g>
<!-- ndJsonRpcRequest&#45;&gt;ndIncomingJsonRpcRequest -->
<g id="edge1" class="edge"><title>ndJsonRpcRequest&#45;&gt;ndIncomingJsonRpcRequest</title>
<path fill="none" stroke="black" d="M534.516,-414.937C583.435,-404.426 641.755,-391.896 691.823,-381.139"/>
<polygon fill="black" stroke="black" points="701.721,-379.012 692.89,-385.512 696.833,-380.062 691.944,-381.113 691.944,-381.113 691.944,-381.113 696.833,-380.062 690.999,-376.713 701.721,-379.012 701.721,-379.012"/>
</g>
<!-- ndJsonRpcResponse -->
<g id="node2" class="node"><title>ndJsonRpcResponse</title>
<text text-anchor="middle" x="1183.5" y="-512.3" font-family="Times,serif" font-size="14.00">ndJsonRpcResponse</text>
</g>
<!-- ndJsonRpcResponseStream -->
<g id="node7" class="node"><title>ndJsonRpcResponseStream</title>
<g id="a_node7_2"><a xlink:href="https://github.com/maidsafe/qjsonrpc/blob/master/src/server_endpoint.rs#:~:text=struct%20JsonRpcResponseStream" xlink:title="&lt;TABLE&gt;">
<polygon fill="lightblue" stroke="none" points="886.5,-419.5 886.5,-456.5 1481.5,-456.5 1481.5,-419.5 886.5,-419.5"/>
<polygon fill="none" stroke="black" points="886.5,-419.5 886.5,-456.5 1481.5,-456.5 1481.5,-419.5 886.5,-419.5"/>
<text text-anchor="start" x="897.5" y="-435.3" font-family="Arial" font-weight="bold" font-size="14.00">pub struct JsonRpcResponseStream { &#160;&#160;&#160;quinn_send_stream: quinn::SendStream,}</text>
<polygon fill="none" stroke="black" points="885,-419 885,-458 1482,-458 1482,-419 885,-419"/>
</a>
</g>
</g>
<!-- ndJsonRpcResponse&#45;&gt;ndJsonRpcResponseStream -->
<g id="edge2" class="edge"><title>ndJsonRpcResponse&#45;&gt;ndJsonRpcResponseStream</title>
<path fill="none" stroke="black" stroke-dasharray="5,2" d="M1183.5,-497.868C1183.5,-490.238 1183.5,-480.987 1183.5,-472.12"/>
<polygon fill="black" stroke="black" points="1183.5,-462.009 1188,-472.009 1183.5,-467.009 1183.5,-472.009 1183.5,-472.009 1183.5,-472.009 1183.5,-467.009 1179,-472.009 1183.5,-462.009 1183.5,-462.009"/>
</g>
<!-- ndJsonRpcError -->
<g id="node3" class="node"><title>ndJsonRpcError</title>
<g id="a_node3_3"><a xlink:href="https://github.com/maidsafe/qjsonrpc/blob/master/src/jsonrpc.rs#:~:text=struct%20JsonRpcError" xlink:title="&lt;TABLE&gt;">
<polygon fill="lightblue" stroke="none" points="930.5,-574.5 930.5,-611.5 1436.5,-611.5 1436.5,-574.5 930.5,-574.5"/>
<polygon fill="none" stroke="black" points="930.5,-574.5 930.5,-611.5 1436.5,-611.5 1436.5,-574.5 930.5,-574.5"/>
<text text-anchor="start" x="941.5" y="-590.3" font-family="Arial" font-weight="bold" font-size="14.00">struct JsonRpcError { &#160;&#160;&#160;code: isize, &#160;&#160;&#160;message: String, &#160;&#160;&#160;data: String,}</text>
<polygon fill="none" stroke="black" points="929.5,-574 929.5,-613 1437.5,-613 1437.5,-574 929.5,-574"/>
</a>
</g>
</g>
<!-- ndJsonRpcError&#45;&gt;ndJsonRpcResponse -->
<g id="edge3" class="edge"><title>ndJsonRpcError&#45;&gt;ndJsonRpcResponse</title>
<path fill="none" stroke="black" d="M1183.5,-569.848C1183.5,-562.412 1183.5,-554.041 1183.5,-546.191"/>
<polygon fill="black" stroke="black" points="1183.5,-546.114 1179.5,-540.114 1183.5,-534.114 1187.5,-540.114 1183.5,-546.114"/>
</g>
<!-- ndEndpoint -->
<g id="node4" class="node"><title>ndEndpoint</title>
<g id="a_node4_4"><a xlink:href="https://github.com/maidsafe/qjsonrpc/blob/master/src/server_endpoint.rs#:~:text=struct%20Endpoint" xlink:title="&lt;TABLE&gt;">
<polygon fill="lightblue" stroke="none" points="612.5,-170.5 612.5,-207.5 1001.5,-207.5 1001.5,-170.5 612.5,-170.5"/>
<polygon fill="none" stroke="black" points="612.5,-170.5 612.5,-207.5 1001.5,-207.5 1001.5,-170.5 612.5,-170.5"/>
<text text-anchor="start" x="623.5" y="-186.3" font-family="Arial" font-weight="bold" font-size="14.00">pub struct Endpoint { &#160;&#160;&#160;config: quinn::ServerConfig,}</text>
<polygon fill="none" stroke="black" points="611,-170 611,-209 1002,-209 1002,-170 611,-170"/>
</a>
</g>
</g>
<!-- ndOutgoingConn -->
<g id="node10" class="node"><title>ndOutgoingConn</title>
<g id="a_node10_5"><a xlink:href="https://github.com/maidsafe/qjsonrpc/blob/master/src/client_endpoint.rs#:~:text=struct%20OutgoingConn" xlink:title="&lt;TABLE&gt;">
<polygon fill="lightblue" stroke="none" points="819.5,-87.5 819.5,-124.5 1314.5,-124.5 1314.5,-87.5 819.5,-87.5"/>
<polygon fill="none" stroke="black" points="819.5,-87.5 819.5,-124.5 1314.5,-124.5 1314.5,-87.5 819.5,-87.5"/>
<text text-anchor="start" x="830.5" y="-103.3" font-family="Arial" font-weight="bold" font-size="14.00">pub struct OutgoingConn { &#160;&#160;&#160;pub quinn_endpoint: quinn::Endpoint,}</text>
<polygon fill="none" stroke="black" points="818,-87 818,-126 1315,-126 1315,-87 818,-87"/>
</a>
</g>
</g>
<!-- ndEndpoint&#45;&gt;ndOutgoingConn -->
<g id="edge4" class="edge"><title>ndEndpoint&#45;&gt;ndOutgoingConn</title>
<path fill="none" stroke="black" stroke-dasharray="5,2" d="M878.924,-165.937C911.61,-155.754 950.38,-143.676 984.165,-133.151"/>
<polygon fill="black" stroke="black" points="994.013,-130.082 985.805,-137.353 989.24,-131.57 984.466,-133.057 984.466,-133.057 984.466,-133.057 989.24,-131.57 983.127,-128.76 994.013,-130.082 994.013,-130.082"/>
</g>
<!-- ndIncomingConn -->
<g id="node5" class="node"><title>ndIncomingConn</title>
<g id="a_node5_6"><a xlink:href="https://github.com/maidsafe/qjsonrpc/blob/master/src/server_endpoint.rs#:~:text=struct%20IncomingConn" xlink:title="&lt;TABLE&gt;">
<polygon fill="lightblue" stroke="none" points="572.5,-253.5 572.5,-290.5 1041.5,-290.5 1041.5,-253.5 572.5,-253.5"/>
<polygon fill="none" stroke="black" points="572.5,-253.5 572.5,-290.5 1041.5,-290.5 1041.5,-253.5 572.5,-253.5"/>
<text text-anchor="start" x="583.5" y="-269.3" font-family="Arial" font-weight="bold" font-size="14.00">pub struct IncomingConn { &#160;&#160;&#160;quinn_incoming: quinn::Incoming,}</text>
<polygon fill="none" stroke="black" points="571,-253 571,-292 1042,-292 1042,-253 571,-253"/>
</a>
</g>
</g>
<!-- ndIncomingConn&#45;&gt;ndEndpoint -->
<g id="edge5" class="edge"><title>ndIncomingConn&#45;&gt;ndEndpoint</title>
<path fill="none" stroke="black" d="M806.5,-248.937C806.5,-241.016 806.5,-231.949 806.5,-223.357"/>
<polygon fill="black" stroke="black" points="806.5,-213.223 811,-223.223 806.5,-218.223 806.5,-223.223 806.5,-223.223 806.5,-223.223 806.5,-218.223 802,-223.223 806.5,-213.223 806.5,-213.223"/>
</g>
<!-- ndIncomingJsonRpcRequest&#45;&gt;ndIncomingConn -->
<g id="edge6" class="edge"><title>ndIncomingJsonRpcRequest&#45;&gt;ndIncomingConn</title>
<path fill="none" stroke="black" d="M806.5,-331.937C806.5,-324.016 806.5,-314.949 806.5,-306.357"/>
<polygon fill="black" stroke="black" points="806.5,-296.223 811,-306.223 806.5,-301.223 806.5,-306.223 806.5,-306.223 806.5,-306.223 806.5,-301.223 802,-306.223 806.5,-296.223 806.5,-296.223"/>
</g>
<!-- ndJsonRpcResponseStream&#45;&gt;ndIncomingJsonRpcRequest -->
<g id="edge7" class="edge"><title>ndJsonRpcResponseStream&#45;&gt;ndIncomingJsonRpcRequest</title>
<path fill="none" stroke="black" d="M1078.48,-414.937C1029.57,-404.426 971.245,-391.896 921.177,-381.139"/>
<polygon fill="black" stroke="black" points="911.279,-379.012 922.001,-376.713 916.167,-380.062 921.056,-381.113 921.056,-381.113 921.056,-381.113 916.167,-380.062 920.11,-385.512 911.279,-379.012 911.279,-379.012"/>
</g>
<!-- ndError -->
<g id="node8" class="node"><title>ndError</title>
<g id="a_node8_7"><a xlink:href="https://github.com/maidsafe/qjsonrpc/blob/master/src/errors.rs#:~:text=enum%20Error" xlink:title="&lt;TABLE&gt;">
<polygon fill="yellow" stroke="none" points="1473.5,-574.5 1473.5,-611.5 1532.5,-611.5 1532.5,-574.5 1473.5,-574.5"/>
<polygon fill="none" stroke="black" points="1473.5,-574.5 1473.5,-611.5 1532.5,-611.5 1532.5,-574.5 1473.5,-574.5"/>
<text text-anchor="start" x="1484.5" y="-590.3" font-family="Arial" font-weight="bold" font-size="14.00">Error</text>
<polygon fill="none" stroke="black" points="1472,-574 1472,-613 1533,-613 1533,-574 1472,-574"/>
</a>
</g>
</g>
<!-- ndClientEndpoint -->
<g id="node9" class="node"><title>ndClientEndpoint</title>
<g id="a_node9_8"><a xlink:href="https://github.com/maidsafe/qjsonrpc/blob/master/src/client_endpoint.rs#:~:text=struct%20ClientEndpoint" xlink:title="&lt;TABLE&gt;">
<polygon fill="lightblue" stroke="none" points="855.5,-4.5 855.5,-41.5 1277.5,-41.5 1277.5,-4.5 855.5,-4.5"/>
<polygon fill="none" stroke="black" points="855.5,-4.5 855.5,-41.5 1277.5,-41.5 1277.5,-4.5 855.5,-4.5"/>
<text text-anchor="start" x="866.5" y="-20.3" font-family="Arial" font-weight="bold" font-size="14.00">pub struct ClientEndpoint { &#160;&#160;&#160;config: quinn::ClientConfig,}</text>
<polygon fill="none" stroke="black" points="854.5,-4 854.5,-43 1278.5,-43 1278.5,-4 854.5,-4"/>
</a>
</g>
</g>
<!-- ndOutgoingConn&#45;&gt;ndClientEndpoint -->
<g id="edge8" class="edge"><title>ndOutgoingConn&#45;&gt;ndClientEndpoint</title>
<path fill="none" stroke="black" d="M1066.5,-82.937C1066.5,-75.0164 1066.5,-65.9488 1066.5,-57.3574"/>
<polygon fill="black" stroke="black" points="1066.5,-47.2229 1071,-57.2229 1066.5,-52.2229 1066.5,-57.2229 1066.5,-57.2229 1066.5,-57.2229 1066.5,-52.2229 1062,-57.223 1066.5,-47.2229 1066.5,-47.2229"/>
</g>
<!-- ndOutgoingJsonRpcRequest -->
<g id="node11" class="node"><title>ndOutgoingJsonRpcRequest</title>
<g id="a_node11_9"><a xlink:href="https://github.com/maidsafe/qjsonrpc/blob/master/src/client_endpoint.rs#:~:text=struct%20OutgoingJsonRpcRequest" xlink:title="&lt;TABLE&gt;">
<polygon fill="lightblue" stroke="none" points="1037.5,-170.5 1037.5,-207.5 1616.5,-207.5 1616.5,-170.5 1037.5,-170.5"/>
<polygon fill="none" stroke="black" points="1037.5,-170.5 1037.5,-207.5 1616.5,-207.5 1616.5,-170.5 1037.5,-170.5"/>
<text text-anchor="start" x="1048.5" y="-186.3" font-family="Arial" font-weight="bold" font-size="14.00">pub struct OutgoingJsonRpcRequest { &#160;&#160;&#160;quinn_connection: quinn::Connection,}</text>
<polygon fill="none" stroke="black" points="1036,-170 1036,-209 1617,-209 1617,-170 1036,-170"/>
</a>
</g>
</g>
<!-- ndOutgoingJsonRpcRequest&#45;&gt;ndOutgoingConn -->
<g id="edge9" class="edge"><title>ndOutgoingJsonRpcRequest&#45;&gt;ndOutgoingConn</title>
<path fill="none" stroke="black" d="M1254.08,-165.937C1221.39,-155.754 1182.62,-143.676 1148.84,-133.151"/>
<polygon fill="black" stroke="black" points="1138.99,-130.082 1149.87,-128.76 1143.76,-131.57 1148.53,-133.057 1148.53,-133.057 1148.53,-133.057 1143.76,-131.57 1147.2,-137.353 1138.99,-130.082 1138.99,-130.082"/>
</g>
</g>
</svg>
