<?xml version="1.0" encoding="UTF-8" standalone="no"?>
<!DOCTYPE svg PUBLIC "-//W3C//DTD SVG 1.1//EN"
 "http://www.w3.org/Graphics/SVG/1.1/DTD/svg11.dtd">
<!-- Generated by graphviz version 2.38.0 (20140413.2041)
 -->
<!-- Title: ml Pages: 1 -->
<svg width="703pt" height="470pt"
 viewBox="0.00 0.00 702.50 470.00" xmlns="http://www.w3.org/2000/svg" xmlns:xlink="http://www.w3.org/1999/xlink">
<g id="graph0" class="graph" transform="scale(1 1) rotate(0) translate(4 466)">
<title>ml</title>
<polygon fill="white" stroke="none" points="-4,4 -4,-466 698.5,-466 698.5,4 -4,4"/>
<!-- ndJsonRpcRequest -->
<g id="node1" class="node"><title>ndJsonRpcRequest</title>
<g id="a_node1_0"><a xlink:href="https://github.com/maidsafe/qjsonrpc/blob/master/src/jsonrpc.rs#:~:text=struct%20JsonRpcRequest" xlink:title="&lt;TABLE&gt;">
<polygon fill="lightblue" stroke="none" points="9.5,-253.5 9.5,-290.5 150.5,-290.5 150.5,-253.5 9.5,-253.5"/>
<polygon fill="none" stroke="black" points="9.5,-253.5 9.5,-290.5 150.5,-290.5 150.5,-253.5 9.5,-253.5"/>
<text text-anchor="start" x="20.5" y="-269.3" font-family="Arial" font-weight="bold" font-size="14.00">JsonRpcRequest</text>
<polygon fill="none" stroke="black" points="8,-253 8,-292 151,-292 151,-253 8,-253"/>
</a>
</g>
</g>
<!-- ndIncomingJsonRpcRequest -->
<g id="node6" class="node"><title>ndIncomingJsonRpcRequest</title>
<g id="a_node6_1"><a xlink:href="https://github.com/maidsafe/qjsonrpc/blob/master/src/server_endpoint.rs#:~:text=struct%20IncomingJsonRpcRequest" xlink:title="&lt;TABLE&gt;">
<polygon fill="lightblue" stroke="none" points="80.5,-170.5 80.5,-207.5 286.5,-207.5 286.5,-170.5 80.5,-170.5"/>
<polygon fill="none" stroke="black" points="80.5,-170.5 80.5,-207.5 286.5,-207.5 286.5,-170.5 80.5,-170.5"/>
<text text-anchor="start" x="91.5" y="-186.3" font-family="Arial" font-weight="bold" font-size="14.00">IncomingJsonRpcRequest</text>
<polygon fill="none" stroke="black" points="79.5,-170 79.5,-209 287.5,-209 287.5,-170 79.5,-170"/>
</a>
</g>
</g>
<!-- ndJsonRpcRequest&#45;&gt;ndIncomingJsonRpcRequest -->
<g id="edge1" class="edge"><title>ndJsonRpcRequest&#45;&gt;ndIncomingJsonRpcRequest</title>
<path fill="none" stroke="black" d="M108.47,-248.937C120.204,-239.798 133.899,-229.132 146.353,-219.432"/>
<polygon fill="black" stroke="black" points="154.325,-213.223 149.201,-222.918 150.38,-216.295 146.435,-219.368 146.435,-219.368 146.435,-219.368 150.38,-216.295 143.67,-215.817 154.325,-213.223 154.325,-213.223"/>
</g>
<!-- ndJsonRpcResponse -->
<g id="node2" class="node"><title>ndJsonRpcResponse</title>
<g id="a_node2_2"><a xlink:href="https://github.com/maidsafe/qjsonrpc/blob/master/src/jsonrpc.rs#:~:text=struct%20JsonRpcResponse" xlink:title="&lt;TABLE&gt;">
<polygon fill="lightblue" stroke="none" points="210.5,-336.5 210.5,-373.5 364.5,-373.5 364.5,-336.5 210.5,-336.5"/>
<polygon fill="none" stroke="black" points="210.5,-336.5 210.5,-373.5 364.5,-373.5 364.5,-336.5 210.5,-336.5"/>
<text text-anchor="start" x="221.5" y="-352.3" font-family="Arial" font-weight="bold" font-size="14.00">JsonRpcResponse</text>
<polygon fill="none" stroke="black" points="209.5,-336 209.5,-375 365.5,-375 365.5,-336 209.5,-336"/>
</a>
</g>
</g>
<!-- ndJsonRpcResponseStream -->
<g id="node7" class="node"><title>ndJsonRpcResponseStream</title>
<g id="a_node7_3"><a xlink:href="https://github.com/maidsafe/qjsonrpc/blob/master/src/server_endpoint.rs#:~:text=struct%20JsonRpcResponseStream" xlink:title="&lt;TABLE&gt;">
<polygon fill="lightblue" stroke="none" points="186.5,-253.5 186.5,-290.5 389.5,-290.5 389.5,-253.5 186.5,-253.5"/>
<polygon fill="none" stroke="black" points="186.5,-253.5 186.5,-290.5 389.5,-290.5 389.5,-253.5 186.5,-253.5"/>
<text text-anchor="start" x="197.5" y="-269.3" font-family="Arial" font-weight="bold" font-size="14.00">JsonRpcResponseStream</text>
<polygon fill="none" stroke="black" points="185,-253 185,-292 390,-292 390,-253 185,-253"/>
</a>
</g>
</g>
<!-- ndJsonRpcResponse&#45;&gt;ndJsonRpcResponseStream -->
<g id="edge2" class="edge"><title>ndJsonRpcResponse&#45;&gt;ndJsonRpcResponseStream</title>
<path fill="none" stroke="black" stroke-dasharray="5,2" d="M287.5,-331.937C287.5,-324.016 287.5,-314.949 287.5,-306.357"/>
<polygon fill="black" stroke="black" points="287.5,-296.223 292,-306.223 287.5,-301.223 287.5,-306.223 287.5,-306.223 287.5,-306.223 287.5,-301.223 283,-306.223 287.5,-296.223 287.5,-296.223"/>
</g>
<!-- ndJsonRpcError -->
<g id="node3" class="node"><title>ndJsonRpcError</title>
<g id="a_node3_4"><a xlink:href="https://github.com/maidsafe/qjsonrpc/blob/master/src/jsonrpc.rs#:~:text=struct%20JsonRpcError" xlink:title="&lt;TABLE&gt;">
<polygon fill="lightblue" stroke="none" points="227.5,-419.5 227.5,-456.5 348.5,-456.5 348.5,-419.5 227.5,-419.5"/>
<polygon fill="none" stroke="black" points="227.5,-419.5 227.5,-456.5 348.5,-456.5 348.5,-419.5 227.5,-419.5"/>
<text text-anchor="start" x="238.5" y="-435.3" font-family="Arial" font-weight="bold" font-size="14.00">JsonRpcError</text>
<polygon fill="none" stroke="black" points="226,-419 226,-458 349,-458 349,-419 226,-419"/>
</a>
</g>
</g>
<!-- ndJsonRpcError&#45;&gt;ndJsonRpcResponse -->
<g id="edge3" class="edge"><title>ndJsonRpcError&#45;&gt;ndJsonRpcResponse</title>
<path fill="none" stroke="black" d="M287.5,-414.937C287.5,-407.626 287.5,-399.337 287.5,-391.348"/>
<polygon fill="black" stroke="black" points="287.5,-391.223 283.5,-385.223 287.5,-379.223 291.5,-385.223 287.5,-391.223"/>
</g>
<!-- ndServerEndpoint -->
<g id="node4" class="node"><title>ndServerEndpoint</title>
<g id="a_node4_5"><a xlink:href="https://github.com/maidsafe/qjsonrpc/blob/master/src/server_endpoint.rs#:~:text=struct%20ServerEndpoint" xlink:title="&lt;TABLE&gt;">
<polygon fill="lightblue" stroke="none" points="117.5,-4.5 117.5,-41.5 249.5,-41.5 249.5,-4.5 117.5,-4.5"/>
<polygon fill="none" stroke="black" points="117.5,-4.5 117.5,-41.5 249.5,-41.5 249.5,-4.5 117.5,-4.5"/>
<text text-anchor="start" x="128.5" y="-20.3" font-family="Arial" font-weight="bold" font-size="14.00">ServerEndpoint</text>
<polygon fill="none" stroke="black" points="116.5,-4 116.5,-43 250.5,-43 250.5,-4 116.5,-4"/>
</a>
</g>
</g>
<!-- ndIncomingConn -->
<g id="node5" class="node"><title>ndIncomingConn</title>
<g id="a_node5_6"><a xlink:href="https://github.com/maidsafe/qjsonrpc/blob/master/src/server_endpoint.rs#:~:text=struct%20IncomingConn" xlink:title="&lt;TABLE&gt;">
<polygon fill="lightblue" stroke="none" points="121.5,-87.5 121.5,-124.5 246.5,-124.5 246.5,-87.5 121.5,-87.5"/>
<polygon fill="none" stroke="black" points="121.5,-87.5 121.5,-124.5 246.5,-124.5 246.5,-87.5 121.5,-87.5"/>
<text text-anchor="start" x="132.5" y="-103.3" font-family="Arial" font-weight="bold" font-size="14.00">IncomingConn</text>
<polygon fill="none" stroke="black" points="120,-87 120,-126 247,-126 247,-87 120,-87"/>
</a>
</g>
</g>
<!-- ndIncomingConn&#45;&gt;ndServerEndpoint -->
<g id="edge4" class="edge"><title>ndIncomingConn&#45;&gt;ndServerEndpoint</title>
<path fill="none" stroke="black" d="M183.5,-82.937C183.5,-75.0164 183.5,-65.9488 183.5,-57.3574"/>
<polygon fill="black" stroke="black" points="183.5,-47.2229 188,-57.2229 183.5,-52.2229 183.5,-57.2229 183.5,-57.2229 183.5,-57.2229 183.5,-52.2229 179,-57.223 183.5,-47.2229 183.5,-47.2229"/>
</g>
<!-- ndIncomingJsonRpcRequest&#45;&gt;ndIncomingConn -->
<g id="edge5" class="edge"><title>ndIncomingJsonRpcRequest&#45;&gt;ndIncomingConn</title>
<path fill="none" stroke="black" d="M183.5,-165.937C183.5,-158.016 183.5,-148.949 183.5,-140.357"/>
<polygon fill="black" stroke="black" points="183.5,-130.223 188,-140.223 183.5,-135.223 183.5,-140.223 183.5,-140.223 183.5,-140.223 183.5,-135.223 179,-140.223 183.5,-130.223 183.5,-130.223"/>
</g>
<!-- ndJsonRpcResponseStream&#45;&gt;ndIncomingJsonRpcRequest -->
<g id="edge6" class="edge"><title>ndJsonRpcResponseStream&#45;&gt;ndIncomingJsonRpcRequest</title>
<path fill="none" stroke="black" d="M258.53,-248.937C246.796,-239.798 233.101,-229.132 220.647,-219.432"/>
<polygon fill="black" stroke="black" points="212.675,-213.223 223.33,-215.817 216.62,-216.295 220.565,-219.368 220.565,-219.368 220.565,-219.368 216.62,-216.295 217.799,-222.918 212.675,-213.223 212.675,-213.223"/>
</g>
<!-- ndError -->
<g id="node8" class="node"><title>ndError</title>
<g id="a_node8_7"><a xlink:href="https://github.com/maidsafe/qjsonrpc/blob/master/src/errors.rs#:~:text=enum%20Error" xlink:title="&lt;TABLE&gt;">
<polygon fill="yellow" stroke="none" points="384.5,-419.5 384.5,-456.5 443.5,-456.5 443.5,-419.5 384.5,-419.5"/>
<polygon fill="none" stroke="black" points="384.5,-419.5 384.5,-456.5 443.5,-456.5 443.5,-419.5 384.5,-419.5"/>
<text text-anchor="start" x="395.5" y="-435.3" font-family="Arial" font-weight="bold" font-size="14.00">Error</text>
<polygon fill="none" stroke="black" points="383,-419 383,-458 444,-458 444,-419 383,-419"/>
</a>
</g>
</g>
<!-- ndClientEndpoint -->
<g id="node9" class="node"><title>ndClientEndpoint</title>
<g id="a_node9_8"><a xlink:href="https://github.com/maidsafe/qjsonrpc/blob/master/src/client_endpoint.rs#:~:text=struct%20ClientEndpoint" xlink:title="&lt;TABLE&gt;">
<polygon fill="lightblue" stroke="none" points="520.5,-253.5 520.5,-290.5 645.5,-290.5 645.5,-253.5 520.5,-253.5"/>
<polygon fill="none" stroke="black" points="520.5,-253.5 520.5,-290.5 645.5,-290.5 645.5,-253.5 520.5,-253.5"/>
<text text-anchor="start" x="531.5" y="-269.3" font-family="Arial" font-weight="bold" font-size="14.00">ClientEndpoint</text>
<polygon fill="none" stroke="black" points="519,-253 519,-292 646,-292 646,-253 519,-253"/>
</a>
</g>
</g>
<!-- ndOutgoingConn -->
<g id="node10" class="node"><title>ndOutgoingConn</title>
<g id="a_node10_9"><a xlink:href="https://github.com/maidsafe/qjsonrpc/blob/master/src/client_endpoint.rs#:~:text=struct%20OutgoingConn" xlink:title="&lt;TABLE&gt;">
<polygon fill="lightblue" stroke="none" points="520.5,-336.5 520.5,-373.5 645.5,-373.5 645.5,-336.5 520.5,-336.5"/>
<polygon fill="none" stroke="black" points="520.5,-336.5 520.5,-373.5 645.5,-373.5 645.5,-336.5 520.5,-336.5"/>
<text text-anchor="start" x="531.5" y="-352.3" font-family="Arial" font-weight="bold" font-size="14.00">OutgoingConn</text>
<polygon fill="none" stroke="black" points="519,-336 519,-375 646,-375 646,-336 519,-336"/>
</a>
</g>
</g>
<!-- ndOutgoingConn&#45;&gt;ndClientEndpoint -->
<g id="edge7" class="edge"><title>ndOutgoingConn&#45;&gt;ndClientEndpoint</title>
<path fill="none" stroke="black" d="M582.5,-331.937C582.5,-324.016 582.5,-314.949 582.5,-306.357"/>
<polygon fill="black" stroke="black" points="582.5,-296.223 587,-306.223 582.5,-301.223 582.5,-306.223 582.5,-306.223 582.5,-306.223 582.5,-301.223 578,-306.223 582.5,-296.223 582.5,-296.223"/>
</g>
<!-- ndOutgoingJsonRpcRequest -->
<g id="node11" class="node"><title>ndOutgoingJsonRpcRequest</title>
<g id="a_node11_10"><a xlink:href="https://github.com/maidsafe/qjsonrpc/blob/master/src/client_endpoint.rs#:~:text=struct%20OutgoingJsonRpcRequest" xlink:title="&lt;TABLE&gt;">
<polygon fill="lightblue" stroke="none" points="479.5,-419.5 479.5,-456.5 685.5,-456.5 685.5,-419.5 479.5,-419.5"/>
<polygon fill="none" stroke="black" points="479.5,-419.5 479.5,-456.5 685.5,-456.5 685.5,-419.5 479.5,-419.5"/>
<text text-anchor="start" x="490.5" y="-435.3" font-family="Arial" font-weight="bold" font-size="14.00">OutgoingJsonRpcRequest</text>
<polygon fill="none" stroke="black" points="478.5,-419 478.5,-458 686.5,-458 686.5,-419 478.5,-419"/>
</a>
</g>
</g>
<!-- ndOutgoingJsonRpcRequest&#45;&gt;ndOutgoingConn -->
<g id="edge8" class="edge"><title>ndOutgoingJsonRpcRequest&#45;&gt;ndOutgoingConn</title>
<path fill="none" stroke="black" d="M582.5,-414.937C582.5,-407.016 582.5,-397.949 582.5,-389.357"/>
<polygon fill="black" stroke="black" points="582.5,-379.223 587,-389.223 582.5,-384.223 582.5,-389.223 582.5,-389.223 582.5,-389.223 582.5,-384.223 578,-389.223 582.5,-379.223 582.5,-379.223"/>
</g>
</g>
</svg>
