<?xml version="1.0" encoding="UTF-8" standalone="no"?>
<!DOCTYPE svg PUBLIC "-//W3C//DTD SVG 1.1//EN"
 "http://www.w3.org/Graphics/SVG/1.1/DTD/svg11.dtd">
<!-- Generated by graphviz version 2.38.0 (20140413.2041)
 -->
<!-- Title: ml Pages: 1 -->
<svg width="1817pt" height="1308pt"
 viewBox="0.00 0.00 1817.00 1308.00" xmlns="http://www.w3.org/2000/svg" xmlns:xlink="http://www.w3.org/1999/xlink">
<g id="graph0" class="graph" transform="scale(1 1) rotate(0) translate(4 1304)">
<title>ml</title>
<polygon fill="white" stroke="none" points="-4,4 -4,-1304 1813,-1304 1813,4 -4,4"/>
<!-- ndJsonRpcRequest -->
<g id="node1" class="node"><title>ndJsonRpcRequest</title>
<g id="a_node1_0"><a xlink:href="https://github.com/maidsafe/qjsonrpc/blob/master/src/jsonrpc.rs#:~:text=struct%20JsonRpcRequest" xlink:title="&lt;TABLE&gt;">
<polygon fill="lightblue" stroke="none" points="9.5,-984 9.5,-1021 850.5,-1021 850.5,-984 9.5,-984"/>
<polygon fill="none" stroke="black" points="9.5,-984 9.5,-1021 850.5,-1021 850.5,-984 9.5,-984"/>
<text text-anchor="start" x="20.5" y="-999.8" font-family="Arial" font-weight="bold" font-size="14.00">pub struct JsonRpcRequest { &#160;&#160;&#160;jsonrpc: String, &#160;&#160;&#160;pub method: String, &#160;&#160;&#160;pub params: serde_json::Value, &#160;&#160;&#160;pub id: u32,}</text>
<polygon fill="white" stroke="none" points="9.5,-902 9.5,-984 850.5,-984 850.5,-902 9.5,-902"/>
<polygon fill="none" stroke="black" points="9.5,-902 9.5,-984 850.5,-984 850.5,-902 9.5,-902"/>
<text text-anchor="start" x="20.5" y="-961.8" font-family="Arial" font-size="14.00">&#45; jsonrpc: String</text>
<text text-anchor="start" x="20.5" y="-946.8" font-family="Arial" font-size="14.00">+ method: String</text>
<text text-anchor="start" x="20.5" y="-931.8" font-family="Arial" font-size="14.00">+ params: serde_json::Value</text>
<text text-anchor="start" x="20.5" y="-916.8" font-family="Arial" font-size="14.00">+ id: u32</text>
<polygon fill="white" stroke="none" points="9.5,-865 9.5,-902 850.5,-902 850.5,-865 9.5,-865"/>
<polygon fill="none" stroke="black" points="9.5,-865 9.5,-902 850.5,-902 850.5,-865 9.5,-865"/>
<text text-anchor="start" x="20.5" y="-879.8" font-family="Arial" font-size="14.00">&#45; new(method: &amp;str, params: serde_json::Value) &#45;&gt; Self</text>
<polygon fill="none" stroke="black" points="8,-864 8,-1022 851,-1022 851,-864 8,-864"/>
</a>
</g>
</g>
<!-- ndIncomingJsonRpcRequest -->
<g id="node6" class="node"><title>ndIncomingJsonRpcRequest</title>
<g id="a_node6_1"><a xlink:href="https://github.com/maidsafe/qjsonrpc/blob/master/src/server_endpoint.rs#:~:text=struct%20IncomingJsonRpcRequest" xlink:title="&lt;TABLE&gt;">
<polygon fill="lightblue" stroke="none" points="513.5,-782 513.5,-819 1100.5,-819 1100.5,-782 513.5,-782"/>
<polygon fill="none" stroke="black" points="513.5,-782 513.5,-819 1100.5,-819 1100.5,-782 513.5,-782"/>
<text text-anchor="start" x="524.5" y="-797.8" font-family="Arial" font-weight="bold" font-size="14.00">pub struct IncomingJsonRpcRequest { &#160;&#160;&#160;bi_streams: quinn::IncomingBiStreams,}</text>
<polygon fill="white" stroke="none" points="513.5,-745 513.5,-782 1100.5,-782 1100.5,-745 513.5,-745"/>
<polygon fill="none" stroke="black" points="513.5,-745 513.5,-782 1100.5,-782 1100.5,-745 513.5,-745"/>
<text text-anchor="start" x="524.5" y="-759.8" font-family="Arial" font-size="14.00">&#45; bi_streams: quinn::IncomingBiStreams</text>
<polygon fill="white" stroke="none" points="513.5,-693 513.5,-745 1100.5,-745 1100.5,-693 513.5,-693"/>
<polygon fill="none" stroke="black" points="513.5,-693 513.5,-745 1100.5,-745 1100.5,-693 513.5,-693"/>
<text text-anchor="start" x="524.5" y="-722.8" font-family="Arial" font-size="14.00">&#45; new(bi_streams: quinn::IncomingBiStreams) &#45;&gt; Self</text>
<text text-anchor="start" x="524.5" y="-707.8" font-family="Arial" font-size="14.00">&#45; get_next(&amp;mut self) &#45;&gt; Option&lt;(JsonRpcRequest, JsonRpcResponseStream)&gt;</text>
<polygon fill="none" stroke="black" points="512,-692 512,-820 1101,-820 1101,-692 512,-692"/>
</a>
</g>
</g>
<!-- ndJsonRpcRequest&#45;&gt;ndIncomingJsonRpcRequest -->
<g id="edge1" class="edge"><title>ndJsonRpcRequest&#45;&gt;ndIncomingJsonRpcRequest</title>
<path fill="none" stroke="black" d="M596.779,-859.914C618.037,-849.482 639.659,-838.871 660.547,-828.622"/>
<polygon fill="black" stroke="black" points="669.768,-824.097 662.773,-832.542 665.279,-826.3 660.79,-828.502 660.79,-828.502 660.79,-828.502 665.279,-826.3 658.808,-824.462 669.768,-824.097 669.768,-824.097"/>
</g>
<!-- ndJsonRpcResponse -->
<g id="node2" class="node"><title>ndJsonRpcResponse</title>
<text text-anchor="middle" x="1183.5" y="-1076.3" font-family="Times,serif" font-size="14.00">ndJsonRpcResponse</text>
</g>
<!-- ndJsonRpcResponseStream -->
<g id="node7" class="node"><title>ndJsonRpcResponseStream</title>
<g id="a_node7_2"><a xlink:href="https://github.com/maidsafe/qjsonrpc/blob/master/src/server_endpoint.rs#:~:text=struct%20JsonRpcResponseStream" xlink:title="&lt;TABLE&gt;">
<polygon fill="lightblue" stroke="none" points="886.5,-976 886.5,-1013 1481.5,-1013 1481.5,-976 886.5,-976"/>
<polygon fill="none" stroke="black" points="886.5,-976 886.5,-1013 1481.5,-1013 1481.5,-976 886.5,-976"/>
<text text-anchor="start" x="897.5" y="-991.8" font-family="Arial" font-weight="bold" font-size="14.00">pub struct JsonRpcResponseStream { &#160;&#160;&#160;quinn_send_stream: quinn::SendStream,}</text>
<polygon fill="white" stroke="none" points="886.5,-939 886.5,-976 1481.5,-976 1481.5,-939 886.5,-939"/>
<polygon fill="none" stroke="black" points="886.5,-939 886.5,-976 1481.5,-976 1481.5,-939 886.5,-939"/>
<text text-anchor="start" x="897.5" y="-953.8" font-family="Arial" font-size="14.00">&#45; quinn_send_stream: quinn::SendStream</text>
<polygon fill="white" stroke="none" points="886.5,-872 886.5,-939 1481.5,-939 1481.5,-872 886.5,-872"/>
<polygon fill="none" stroke="black" points="886.5,-872 886.5,-939 1481.5,-939 1481.5,-872 886.5,-872"/>
<text text-anchor="start" x="897.5" y="-916.8" font-family="Arial" font-size="14.00">&#45; new(quinn_send_stream: quinn::SendStream) &#45;&gt; Self</text>
<text text-anchor="start" x="897.5" y="-901.8" font-family="Arial" font-size="14.00">&#45; respond(&amp;mut self, response: &amp;JsonRpcResponse) &#45;&gt; Result&lt;()&gt;</text>
<text text-anchor="start" x="897.5" y="-886.8" font-family="Arial" font-size="14.00">&#45; finish(&amp;mut self) &#45;&gt; Result&lt;()&gt;</text>
<polygon fill="none" stroke="black" points="885,-871.5 885,-1014.5 1482,-1014.5 1482,-871.5 885,-871.5"/>
</a>
</g>
</g>
<!-- ndJsonRpcResponse&#45;&gt;ndJsonRpcResponseStream -->
<g id="edge2" class="edge"><title>ndJsonRpcResponse&#45;&gt;ndJsonRpcResponseStream</title>
<path fill="none" stroke="black" stroke-dasharray="5,2" d="M1183.5,-1061.9C1183.5,-1053 1183.5,-1041.38 1183.5,-1028.91"/>
<polygon fill="black" stroke="black" points="1183.5,-1018.77 1188,-1028.77 1183.5,-1023.77 1183.5,-1028.77 1183.5,-1028.77 1183.5,-1028.77 1183.5,-1023.77 1179,-1028.77 1183.5,-1018.77 1183.5,-1018.77"/>
</g>
<!-- ndJsonRpcError -->
<g id="node3" class="node"><title>ndJsonRpcError</title>
<g id="a_node3_3"><a xlink:href="https://github.com/maidsafe/qjsonrpc/blob/master/src/jsonrpc.rs#:~:text=struct%20JsonRpcError" xlink:title="&lt;TABLE&gt;">
<polygon fill="lightblue" stroke="none" points="930.5,-1232 930.5,-1269 1436.5,-1269 1436.5,-1232 930.5,-1232"/>
<polygon fill="none" stroke="black" points="930.5,-1232 930.5,-1269 1436.5,-1269 1436.5,-1232 930.5,-1232"/>
<text text-anchor="start" x="941.5" y="-1247.8" font-family="Arial" font-weight="bold" font-size="14.00">struct JsonRpcError { &#160;&#160;&#160;code: isize, &#160;&#160;&#160;message: String, &#160;&#160;&#160;data: String,}</text>
<polygon fill="white" stroke="none" points="930.5,-1165 930.5,-1232 1436.5,-1232 1436.5,-1165 930.5,-1165"/>
<polygon fill="none" stroke="black" points="930.5,-1165 930.5,-1232 1436.5,-1232 1436.5,-1165 930.5,-1165"/>
<text text-anchor="start" x="941.5" y="-1209.8" font-family="Arial" font-size="14.00">&#45; code: isize</text>
<text text-anchor="start" x="941.5" y="-1194.8" font-family="Arial" font-size="14.00">&#45; message: String</text>
<text text-anchor="start" x="941.5" y="-1179.8" font-family="Arial" font-size="14.00">&#45; data: String</text>
<polygon fill="none" stroke="black" points="929.5,-1164 929.5,-1270 1437.5,-1270 1437.5,-1164 929.5,-1164"/>
</a>
</g>
</g>
<!-- ndJsonRpcError&#45;&gt;ndJsonRpcResponse -->
<g id="edge3" class="edge"><title>ndJsonRpcError&#45;&gt;ndJsonRpcResponse</title>
<path fill="none" stroke="black" d="M1183.5,-1159.92C1183.5,-1142.95 1183.5,-1124.98 1183.5,-1110.49"/>
<polygon fill="black" stroke="black" points="1183.5,-1110.28 1179.5,-1104.28 1183.5,-1098.28 1187.5,-1104.28 1183.5,-1110.28"/>
</g>
<!-- ndEndpoint -->
<g id="node4" class="node"><title>ndEndpoint</title>
<g id="a_node4_4"><a xlink:href="https://github.com/maidsafe/qjsonrpc/blob/master/src/server_endpoint.rs#:~:text=struct%20Endpoint" xlink:title="&lt;TABLE&gt;">
<polygon fill="lightblue" stroke="none" points="562.5,-438 562.5,-475 1051.5,-475 1051.5,-438 562.5,-438"/>
<polygon fill="none" stroke="black" points="562.5,-438 562.5,-475 1051.5,-475 1051.5,-438 562.5,-438"/>
<text text-anchor="start" x="623.5" y="-453.8" font-family="Arial" font-weight="bold" font-size="14.00">pub struct Endpoint { &#160;&#160;&#160;config: quinn::ServerConfig,}</text>
<polygon fill="white" stroke="none" points="562.5,-401 562.5,-438 1051.5,-438 1051.5,-401 562.5,-401"/>
<polygon fill="none" stroke="black" points="562.5,-401 562.5,-438 1051.5,-438 1051.5,-401 562.5,-401"/>
<text text-anchor="start" x="573.5" y="-415.8" font-family="Arial" font-size="14.00">&#45; config: quinn::ServerConfig</text>
<polygon fill="white" stroke="none" points="562.5,-349 562.5,-401 1051.5,-401 1051.5,-349 562.5,-349"/>
<polygon fill="none" stroke="black" points="562.5,-349 562.5,-401 1051.5,-401 1051.5,-349 562.5,-349"/>
<text text-anchor="start" x="573.5" y="-378.8" font-family="Arial" font-size="14.00">&#45; new(cert_base_path: P, idle_timeout: Option&lt;u64&gt;) &#45;&gt; Result&lt;Self&gt;</text>
<text text-anchor="start" x="573.5" y="-363.8" font-family="Arial" font-size="14.00">&#45; bind(&amp;self, listen_socket_addr: &amp;SocketAddr) &#45;&gt; Result&lt;IncomingConn&gt;</text>
<polygon fill="none" stroke="black" points="561,-348 561,-476 1052,-476 1052,-348 561,-348"/>
</a>
</g>
</g>
<!-- ndOutgoingConn -->
<g id="node10" class="node"><title>ndOutgoingConn</title>
<g id="a_node10_5"><a xlink:href="https://github.com/maidsafe/qjsonrpc/blob/master/src/client_endpoint.rs#:~:text=struct%20OutgoingConn" xlink:title="&lt;TABLE&gt;">
<polygon fill="lightblue" stroke="none" points="749.5,-266 749.5,-303 1434.5,-303 1434.5,-266 749.5,-266"/>
<polygon fill="none" stroke="black" points="749.5,-266 749.5,-303 1434.5,-303 1434.5,-266 749.5,-266"/>
<text text-anchor="start" x="855.5" y="-281.8" font-family="Arial" font-weight="bold" font-size="14.00">pub struct OutgoingConn { &#160;&#160;&#160;pub quinn_endpoint: quinn::Endpoint,}</text>
<polygon fill="white" stroke="none" points="749.5,-229 749.5,-266 1434.5,-266 1434.5,-229 749.5,-229"/>
<polygon fill="none" stroke="black" points="749.5,-229 749.5,-266 1434.5,-266 1434.5,-229 749.5,-229"/>
<text text-anchor="start" x="760.5" y="-243.8" font-family="Arial" font-size="14.00">+ quinn_endpoint: quinn::Endpoint</text>
<polygon fill="white" stroke="none" points="749.5,-177 749.5,-229 1434.5,-229 1434.5,-177 749.5,-177"/>
<polygon fill="none" stroke="black" points="749.5,-177 749.5,-229 1434.5,-229 1434.5,-177 749.5,-177"/>
<text text-anchor="start" x="760.5" y="-206.8" font-family="Arial" font-size="14.00">&#45; new(quinn_endpoint: quinn::Endpoint) &#45;&gt; Self</text>
<text text-anchor="start" x="760.5" y="-191.8" font-family="Arial" font-size="14.00">&#45; connect(&amp;mut self, dest_endpoint: &amp;str, cert_host: Option&lt;&amp;str&gt;) &#45;&gt; Result&lt;OutgoingJsonRpcRequest&gt;</text>
<polygon fill="none" stroke="black" points="748,-176 748,-304 1435,-304 1435,-176 748,-176"/>
</a>
</g>
</g>
<!-- ndEndpoint&#45;&gt;ndOutgoingConn -->
<g id="edge4" class="edge"><title>ndEndpoint&#45;&gt;ndOutgoingConn</title>
<path fill="none" stroke="black" stroke-dasharray="5,2" d="M919.14,-343.811C935.834,-333.853 953.101,-323.554 969.967,-313.493"/>
<polygon fill="black" stroke="black" points="978.745,-308.257 972.462,-317.245 974.451,-310.819 970.157,-313.38 970.157,-313.38 970.157,-313.38 974.451,-310.819 967.852,-309.515 978.745,-308.257 978.745,-308.257"/>
</g>
<!-- ndIncomingConn -->
<g id="node5" class="node"><title>ndIncomingConn</title>
<g id="a_node5_6"><a xlink:href="https://github.com/maidsafe/qjsonrpc/blob/master/src/server_endpoint.rs#:~:text=struct%20IncomingConn" xlink:title="&lt;TABLE&gt;">
<polygon fill="lightblue" stroke="none" points="572.5,-610 572.5,-647 1041.5,-647 1041.5,-610 572.5,-610"/>
<polygon fill="none" stroke="black" points="572.5,-610 572.5,-647 1041.5,-647 1041.5,-610 572.5,-610"/>
<text text-anchor="start" x="583.5" y="-625.8" font-family="Arial" font-weight="bold" font-size="14.00">pub struct IncomingConn { &#160;&#160;&#160;quinn_incoming: quinn::Incoming,}</text>
<polygon fill="white" stroke="none" points="572.5,-573 572.5,-610 1041.5,-610 1041.5,-573 572.5,-573"/>
<polygon fill="none" stroke="black" points="572.5,-573 572.5,-610 1041.5,-610 1041.5,-573 572.5,-573"/>
<text text-anchor="start" x="583.5" y="-587.8" font-family="Arial" font-size="14.00">&#45; quinn_incoming: quinn::Incoming</text>
<polygon fill="white" stroke="none" points="572.5,-521 572.5,-573 1041.5,-573 1041.5,-521 572.5,-521"/>
<polygon fill="none" stroke="black" points="572.5,-521 572.5,-573 1041.5,-573 1041.5,-521 572.5,-521"/>
<text text-anchor="start" x="583.5" y="-550.8" font-family="Arial" font-size="14.00">&#45; new(quinn_incoming: quinn::Incoming) &#45;&gt; Self</text>
<text text-anchor="start" x="583.5" y="-535.8" font-family="Arial" font-size="14.00">&#45; get_next(&amp;mut self) &#45;&gt; Option&lt;IncomingJsonRpcRequest&gt;</text>
<polygon fill="none" stroke="black" points="571,-520 571,-648 1042,-648 1042,-520 571,-520"/>
</a>
</g>
</g>
<!-- ndIncomingConn&#45;&gt;ndEndpoint -->
<g id="edge5" class="edge"><title>ndIncomingConn&#45;&gt;ndEndpoint</title>
<path fill="none" stroke="black" d="M806.5,-515.811C806.5,-507.498 806.5,-498.946 806.5,-490.494"/>
<polygon fill="black" stroke="black" points="806.5,-480.257 811,-490.257 806.5,-485.257 806.5,-490.257 806.5,-490.257 806.5,-490.257 806.5,-485.257 802,-490.257 806.5,-480.257 806.5,-480.257"/>
</g>
<!-- ndIncomingJsonRpcRequest&#45;&gt;ndIncomingConn -->
<g id="edge6" class="edge"><title>ndIncomingJsonRpcRequest&#45;&gt;ndIncomingConn</title>
<path fill="none" stroke="black" d="M806.5,-687.811C806.5,-679.498 806.5,-670.946 806.5,-662.494"/>
<polygon fill="black" stroke="black" points="806.5,-652.257 811,-662.257 806.5,-657.257 806.5,-662.257 806.5,-662.257 806.5,-662.257 806.5,-657.257 802,-662.257 806.5,-652.257 806.5,-652.257"/>
</g>
<!-- ndJsonRpcResponseStream&#45;&gt;ndIncomingJsonRpcRequest -->
<g id="edge7" class="edge"><title>ndJsonRpcResponseStream&#45;&gt;ndIncomingJsonRpcRequest</title>
<path fill="none" stroke="black" d="M1031.52,-867.42C1005.36,-854.584 978.228,-841.27 952.241,-828.517"/>
<polygon fill="black" stroke="black" points="943.1,-824.032 954.059,-824.397 947.588,-826.234 952.077,-828.437 952.077,-828.437 952.077,-828.437 947.588,-826.234 950.095,-832.477 943.1,-824.032 943.1,-824.032"/>
</g>
<!-- ndError -->
<g id="node8" class="node"><title>ndError</title>
<g id="a_node8_7"><a xlink:href="https://github.com/maidsafe/qjsonrpc/blob/master/src/errors.rs#:~:text=enum%20Error" xlink:title="&lt;TABLE&gt;">
<polygon fill="yellow" stroke="none" points="1473.5,-1258 1473.5,-1295 1800.5,-1295 1800.5,-1258 1473.5,-1258"/>
<polygon fill="none" stroke="black" points="1473.5,-1258 1473.5,-1295 1800.5,-1295 1800.5,-1258 1473.5,-1258"/>
<text text-anchor="start" x="1618.5" y="-1273.8" font-family="Arial" font-weight="bold" font-size="14.00">Error</text>
<polygon fill="white" stroke="none" points="1473.5,-1191 1473.5,-1258 1800.5,-1258 1800.5,-1191 1473.5,-1191"/>
<polygon fill="none" stroke="black" points="1473.5,-1191 1473.5,-1258 1800.5,-1258 1800.5,-1191 1473.5,-1191"/>
<text text-anchor="start" x="1484.5" y="-1235.8" font-family="Arial" font-size="14.00">ClientError(String)</text>
<text text-anchor="start" x="1484.5" y="-1220.8" font-family="Arial" font-size="14.00">RemoteEndpointError(String)</text>
<text text-anchor="start" x="1484.5" y="-1205.8" font-family="Arial" font-size="14.00">GeneralError(String)</text>
<polygon fill="white" stroke="none" points="1473.5,-1139 1473.5,-1191 1800.5,-1191 1800.5,-1139 1473.5,-1139"/>
<polygon fill="none" stroke="black" points="1473.5,-1139 1473.5,-1191 1800.5,-1191 1800.5,-1139 1473.5,-1139"/>
<text text-anchor="start" x="1484.5" y="-1168.8" font-family="Arial" font-size="14.00">&#45; from(error: std::io::Error) &#45;&gt; Self</text>
<text text-anchor="start" x="1484.5" y="-1153.8" font-family="Arial" font-size="14.00">&#45; fmt(&amp;self, f: &amp;mut fmt::Formatter) &#45;&gt; fmt::Result</text>
<polygon fill="none" stroke="black" points="1472,-1138 1472,-1296 1801,-1296 1801,-1138 1472,-1138"/>
</a>
</g>
</g>
<!-- ndClientEndpoint -->
<g id="node9" class="node"><title>ndClientEndpoint</title>
<g id="a_node9_8"><a xlink:href="https://github.com/maidsafe/qjsonrpc/blob/master/src/client_endpoint.rs#:~:text=struct%20ClientEndpoint" xlink:title="&lt;TABLE&gt;">
<polygon fill="lightblue" stroke="none" points="820.5,-94 820.5,-131 1362.5,-131 1362.5,-94 820.5,-94"/>
<polygon fill="none" stroke="black" points="820.5,-94 820.5,-131 1362.5,-131 1362.5,-94 820.5,-94"/>
<text text-anchor="start" x="891.5" y="-109.8" font-family="Arial" font-weight="bold" font-size="14.00">pub struct ClientEndpoint { &#160;&#160;&#160;config: quinn::ClientConfig,}</text>
<polygon fill="white" stroke="none" points="820.5,-57 820.5,-94 1362.5,-94 1362.5,-57 820.5,-57"/>
<polygon fill="none" stroke="black" points="820.5,-57 820.5,-94 1362.5,-94 1362.5,-57 820.5,-57"/>
<text text-anchor="start" x="831.5" y="-71.8" font-family="Arial" font-size="14.00">&#45; config: quinn::ClientConfig</text>
<polygon fill="white" stroke="none" points="820.5,-5 820.5,-57 1362.5,-57 1362.5,-5 820.5,-5"/>
<polygon fill="none" stroke="black" points="820.5,-5 820.5,-57 1362.5,-57 1362.5,-5 820.5,-5"/>
<text text-anchor="start" x="831.5" y="-34.8" font-family="Arial" font-size="14.00">&#45; new(cert_base_path: P, idle_timeout: Option&lt;u64&gt;, keylog: bool) &#45;&gt; Result&lt;Self&gt;</text>
<text text-anchor="start" x="831.5" y="-19.8" font-family="Arial" font-size="14.00">&#45; bind(&amp;self) &#45;&gt; Result&lt;OutgoingConn&gt;</text>
<polygon fill="none" stroke="black" points="819.5,-4 819.5,-132 1363.5,-132 1363.5,-4 819.5,-4"/>
</a>
</g>
</g>
<!-- ndOutgoingConn&#45;&gt;ndClientEndpoint -->
<g id="edge8" class="edge"><title>ndOutgoingConn&#45;&gt;ndClientEndpoint</title>
<path fill="none" stroke="black" d="M1091.5,-171.811C1091.5,-163.498 1091.5,-154.946 1091.5,-146.494"/>
<polygon fill="black" stroke="black" points="1091.5,-136.257 1096,-146.257 1091.5,-141.257 1091.5,-146.257 1091.5,-146.257 1091.5,-146.257 1091.5,-141.257 1087,-146.257 1091.5,-136.257 1091.5,-136.257"/>
</g>
<!-- ndOutgoingJsonRpcRequest -->
<g id="node11" class="node"><title>ndOutgoingJsonRpcRequest</title>
<g id="a_node11_9"><a xlink:href="https://github.com/maidsafe/qjsonrpc/blob/master/src/client_endpoint.rs#:~:text=struct%20OutgoingJsonRpcRequest" xlink:title="&lt;TABLE&gt;">
<polygon fill="lightblue" stroke="none" points="1087.5,-438 1087.5,-475 1666.5,-475 1666.5,-438 1087.5,-438"/>
<polygon fill="none" stroke="black" points="1087.5,-438 1087.5,-475 1666.5,-475 1666.5,-438 1087.5,-438"/>
<text text-anchor="start" x="1098.5" y="-453.8" font-family="Arial" font-weight="bold" font-size="14.00">pub struct OutgoingJsonRpcRequest { &#160;&#160;&#160;quinn_connection: quinn::Connection,}</text>
<polygon fill="white" stroke="none" points="1087.5,-401 1087.5,-438 1666.5,-438 1666.5,-401 1087.5,-401"/>
<polygon fill="none" stroke="black" points="1087.5,-401 1087.5,-438 1666.5,-438 1666.5,-401 1087.5,-401"/>
<text text-anchor="start" x="1098.5" y="-415.8" font-family="Arial" font-size="14.00">&#45; quinn_connection: quinn::Connection</text>
<polygon fill="white" stroke="none" points="1087.5,-349 1087.5,-401 1666.5,-401 1666.5,-349 1087.5,-349"/>
<polygon fill="none" stroke="black" points="1087.5,-349 1087.5,-401 1666.5,-401 1666.5,-349 1087.5,-349"/>
<text text-anchor="start" x="1098.5" y="-378.8" font-family="Arial" font-size="14.00">&#45; new(quinn_connection: quinn::Connection) &#45;&gt; Self</text>
<text text-anchor="start" x="1098.5" y="-363.8" font-family="Arial" font-size="14.00">&#45; send(&amp;mut self, method: &amp;str, params: serde_json::Value) &#45;&gt; Result&lt;T&gt;</text>
<polygon fill="none" stroke="black" points="1086,-348 1086,-476 1667,-476 1667,-348 1086,-348"/>
</a>
</g>
</g>
<!-- ndOutgoingJsonRpcRequest&#45;&gt;ndOutgoingConn -->
<g id="edge9" class="edge"><title>ndOutgoingJsonRpcRequest&#45;&gt;ndOutgoingConn</title>
<path fill="none" stroke="black" d="M1263.86,-343.811C1247.17,-333.853 1229.9,-323.554 1213.03,-313.493"/>
<polygon fill="black" stroke="black" points="1204.25,-308.257 1215.15,-309.515 1208.55,-310.819 1212.84,-313.38 1212.84,-313.38 1212.84,-313.38 1208.55,-310.819 1210.54,-317.245 1204.25,-308.257 1204.25,-308.257"/>
</g>
</g>
</svg>
