<?xml version="1.0" encoding="UTF-8" standalone="no"?>
<!DOCTYPE svg PUBLIC "-//W3C//DTD SVG 1.1//EN"
 "http://www.w3.org/Graphics/SVG/1.1/DTD/svg11.dtd">
<!-- Generated by graphviz version 2.38.0 (20140413.2041)
 -->
<!-- Title: ml Pages: 1 -->
<svg width="901pt" height="947pt"
 viewBox="0.00 0.00 901.00 947.00" xmlns="http://www.w3.org/2000/svg" xmlns:xlink="http://www.w3.org/1999/xlink">
<g id="graph0" class="graph" transform="scale(1 1) rotate(0) translate(4 943)">
<title>ml</title>
<polygon fill="white" stroke="none" points="-4,4 -4,-943 897,-943 897,4 -4,4"/>
<!-- ndJsonRpcRequest -->
<g id="node1" class="node"><title>ndJsonRpcRequest</title>
<g id="a_node1_0"><a xlink:href="https://github.com/maidsafe/qjsonrpc/blob/master/src/jsonrpc.rs#:~:text=struct%20JsonRpcRequest" xlink:title="&lt;TABLE&gt;">
<polygon fill="lightblue" stroke="none" points="33.5,-581.5 33.5,-618.5 236.5,-618.5 236.5,-581.5 33.5,-581.5"/>
<polygon fill="none" stroke="black" points="33.5,-581.5 33.5,-618.5 236.5,-618.5 236.5,-581.5 33.5,-581.5"/>
<text text-anchor="start" x="75.5" y="-597.3" font-family="Arial" font-weight="bold" font-size="14.00">JsonRpcRequest</text>
<polygon fill="white" stroke="none" points="33.5,-499.5 33.5,-581.5 236.5,-581.5 236.5,-499.5 33.5,-499.5"/>
<polygon fill="none" stroke="black" points="33.5,-499.5 33.5,-581.5 236.5,-581.5 236.5,-499.5 33.5,-499.5"/>
<text text-anchor="start" x="44.5" y="-559.3" font-family="Arial" font-size="14.00">&#45; jsonrpc: String</text>
<text text-anchor="start" x="44.5" y="-544.3" font-family="Arial" font-size="14.00">+ method: String</text>
<text text-anchor="start" x="44.5" y="-529.3" font-family="Arial" font-size="14.00">+ params: serde_json::Value</text>
<text text-anchor="start" x="44.5" y="-514.3" font-family="Arial" font-size="14.00">+ id: u32</text>
<polygon fill="none" stroke="black" points="32,-499 32,-620 237,-620 237,-499 32,-499"/>
</a>
</g>
</g>
<!-- ndIncomingJsonRpcRequest -->
<g id="node6" class="node"><title>ndIncomingJsonRpcRequest</title>
<g id="a_node6_1"><a xlink:href="https://github.com/maidsafe/qjsonrpc/blob/master/src/server_endpoint.rs#:~:text=struct%20IncomingJsonRpcRequest" xlink:title="&lt;TABLE&gt;">
<polygon fill="lightblue" stroke="none" points="9.5,-364.5 9.5,-401.5 284.5,-401.5 284.5,-364.5 9.5,-364.5"/>
<polygon fill="none" stroke="black" points="9.5,-364.5 9.5,-401.5 284.5,-401.5 284.5,-364.5 9.5,-364.5"/>
<text text-anchor="start" x="55" y="-380.3" font-family="Arial" font-weight="bold" font-size="14.00">IncomingJsonRpcRequest</text>
<polygon fill="white" stroke="none" points="9.5,-327.5 9.5,-364.5 284.5,-364.5 284.5,-327.5 9.5,-327.5"/>
<polygon fill="none" stroke="black" points="9.5,-327.5 9.5,-364.5 284.5,-364.5 284.5,-327.5 9.5,-327.5"/>
<text text-anchor="start" x="20.5" y="-342.3" font-family="Arial" font-size="14.00">&#45; bi_streams: quinn::IncomingBiStreams</text>
<polygon fill="none" stroke="black" points="8,-326.5 8,-402.5 285,-402.5 285,-326.5 8,-326.5"/>
</a>
</g>
</g>
<!-- ndJsonRpcRequest&#45;&gt;ndIncomingJsonRpcRequest -->
<g id="edge1" class="edge"><title>ndJsonRpcRequest&#45;&gt;ndIncomingJsonRpcRequest</title>
<path fill="none" stroke="black" d="M138.463,-494.77C140.032,-469.52 141.814,-440.873 143.3,-416.975"/>
<polygon fill="black" stroke="black" points="143.938,-406.704 147.809,-416.964 143.628,-411.694 143.317,-416.684 143.317,-416.684 143.317,-416.684 143.628,-411.694 138.826,-416.405 143.938,-406.704 143.938,-406.704"/>
</g>
<!-- ndJsonRpcResponse -->
<g id="node2" class="node"><title>ndJsonRpcResponse</title>
<g id="a_node2_2"><a xlink:href="https://github.com/maidsafe/qjsonrpc/blob/master/src/jsonrpc.rs#:~:text=struct%20JsonRpcResponse" xlink:title="&lt;TABLE&gt;">
<polygon fill="lightblue" stroke="none" points="319.5,-746.5 319.5,-783.5 568.5,-783.5 568.5,-746.5 319.5,-746.5"/>
<polygon fill="none" stroke="black" points="319.5,-746.5 319.5,-783.5 568.5,-783.5 568.5,-746.5 319.5,-746.5"/>
<text text-anchor="start" x="378" y="-762.3" font-family="Arial" font-weight="bold" font-size="14.00">JsonRpcResponse</text>
<polygon fill="white" stroke="none" points="319.5,-664.5 319.5,-746.5 568.5,-746.5 568.5,-664.5 319.5,-664.5"/>
<polygon fill="none" stroke="black" points="319.5,-664.5 319.5,-746.5 568.5,-746.5 568.5,-664.5 319.5,-664.5"/>
<text text-anchor="start" x="330.5" y="-724.3" font-family="Arial" font-size="14.00">+ jsonrpc: String</text>
<text text-anchor="start" x="330.5" y="-709.3" font-family="Arial" font-size="14.00">+ result: Option&lt;serde_json::Value&gt;</text>
<text text-anchor="start" x="330.5" y="-694.3" font-family="Arial" font-size="14.00">+ error: Option&lt;JsonRpcError&gt;</text>
<text text-anchor="start" x="330.5" y="-679.3" font-family="Arial" font-size="14.00">+ id: Option&lt;u32&gt;</text>
<polygon fill="none" stroke="black" points="318,-664 318,-785 569,-785 569,-664 318,-664"/>
</a>
</g>
</g>
<!-- ndJsonRpcResponseStream -->
<g id="node7" class="node"><title>ndJsonRpcResponseStream</title>
<g id="a_node7_3"><a xlink:href="https://github.com/maidsafe/qjsonrpc/blob/master/src/server_endpoint.rs#:~:text=struct%20JsonRpcResponseStream" xlink:title="&lt;TABLE&gt;">
<polygon fill="lightblue" stroke="none" points="272.5,-559.5 272.5,-596.5 556.5,-596.5 556.5,-559.5 272.5,-559.5"/>
<polygon fill="none" stroke="black" points="272.5,-559.5 272.5,-596.5 556.5,-596.5 556.5,-559.5 272.5,-559.5"/>
<text text-anchor="start" x="324" y="-575.3" font-family="Arial" font-weight="bold" font-size="14.00">JsonRpcResponseStream</text>
<polygon fill="white" stroke="none" points="272.5,-522.5 272.5,-559.5 556.5,-559.5 556.5,-522.5 272.5,-522.5"/>
<polygon fill="none" stroke="black" points="272.5,-522.5 272.5,-559.5 556.5,-559.5 556.5,-522.5 272.5,-522.5"/>
<text text-anchor="start" x="283.5" y="-537.3" font-family="Arial" font-size="14.00">&#45; quinn_send_stream: quinn::SendStream</text>
<polygon fill="none" stroke="black" points="271.5,-521.5 271.5,-597.5 557.5,-597.5 557.5,-521.5 271.5,-521.5"/>
</a>
</g>
</g>
<!-- ndJsonRpcResponse&#45;&gt;ndJsonRpcResponseStream -->
<g id="edge2" class="edge"><title>ndJsonRpcResponse&#45;&gt;ndJsonRpcResponseStream</title>
<path fill="none" stroke="black" stroke-dasharray="5,2" d="M432.122,-659.546C429.311,-643.748 426.336,-627.027 423.647,-611.912"/>
<polygon fill="black" stroke="black" points="421.836,-601.735 428.019,-610.793 422.712,-606.658 423.588,-611.581 423.588,-611.581 423.588,-611.581 422.712,-606.658 419.158,-612.369 421.836,-601.735 421.836,-601.735"/>
</g>
<!-- ndError -->
<g id="node8" class="node"><title>ndError</title>
<g id="a_node8_4"><a xlink:href="https://github.com/maidsafe/qjsonrpc/blob/master/src/errors.rs#:~:text=enum%20Error" xlink:title="&lt;TABLE&gt;">
<polygon fill="yellow" stroke="none" points="326.5,-416.5 326.5,-453.5 847.5,-453.5 847.5,-416.5 326.5,-416.5"/>
<polygon fill="none" stroke="black" points="326.5,-416.5 326.5,-453.5 847.5,-453.5 847.5,-416.5 326.5,-416.5"/>
<text text-anchor="start" x="568.5" y="-432.3" font-family="Arial" font-weight="bold" font-size="14.00">Error</text>
<polygon fill="white" stroke="none" points="326.5,-274.5 326.5,-416.5 847.5,-416.5 847.5,-274.5 326.5,-274.5"/>
<polygon fill="none" stroke="black" points="326.5,-274.5 326.5,-416.5 847.5,-416.5 847.5,-274.5 326.5,-274.5"/>
<text text-anchor="start" x="337.5" y="-394.3" font-family="Arial" font-size="14.00">ClientError(String)</text>
<text text-anchor="start" x="337.5" y="-379.3" font-family="Arial" font-size="14.00">CryptoConfigError(rustls::Error)</text>
<text text-anchor="start" x="337.5" y="-364.3" font-family="Arial" font-size="14.00">GeneralError(String)</text>
<text text-anchor="start" x="337.5" y="-349.3" font-family="Arial" font-size="14.00">IdleTimeoutParsingError(quinn_proto::VarIntBoundsExceeded)</text>
<text text-anchor="start" x="337.5" y="-334.3" font-family="Arial" font-size="14.00">JsonRpcRequestParsingError(JsonRpcResponse, JsonRpcResponseStream)</text>
<text text-anchor="start" x="337.5" y="-319.3" font-family="Arial" font-size="14.00">RemoteEndpointError(String)</text>
<text text-anchor="start" x="337.5" y="-304.3" font-family="Arial" font-size="14.00">ServerError(String)</text>
<text text-anchor="start" x="337.5" y="-289.3" font-family="Arial" font-size="14.00">Webpki(webpki::Error)</text>
<polygon fill="none" stroke="black" points="325,-274 325,-455 848,-455 848,-274 325,-274"/>
</a>
</g>
</g>
<!-- ndJsonRpcResponse&#45;&gt;ndError -->
<g id="edge3" class="edge"><title>ndJsonRpcResponse&#45;&gt;ndError</title>
<path fill="none" stroke="black" d="M547.01,-659.999C557.902,-649.287 567.526,-637.273 574.5,-624 598.774,-577.804 603.49,-520.31 601.4,-471.282"/>
<polygon fill="black" stroke="black" points="601.384,-470.994 597.063,-465.221 600.73,-459.012 605.051,-464.785 601.384,-470.994"/>
</g>
<!-- ndJsonRpcError -->
<g id="node3" class="node"><title>ndJsonRpcError</title>
<g id="a_node3_5"><a xlink:href="https://github.com/maidsafe/qjsonrpc/blob/master/src/jsonrpc.rs#:~:text=struct%20JsonRpcError" xlink:title="&lt;TABLE&gt;">
<polygon fill="lightblue" stroke="none" points="374.5,-897 374.5,-934 512.5,-934 512.5,-897 374.5,-897"/>
<polygon fill="none" stroke="black" points="374.5,-897 374.5,-934 512.5,-934 512.5,-897 374.5,-897"/>
<text text-anchor="start" x="394" y="-912.8" font-family="Arial" font-weight="bold" font-size="14.00">JsonRpcError</text>
<polygon fill="white" stroke="none" points="374.5,-830 374.5,-897 512.5,-897 512.5,-830 374.5,-830"/>
<polygon fill="none" stroke="black" points="374.5,-830 374.5,-897 512.5,-897 512.5,-830 374.5,-830"/>
<text text-anchor="start" x="385.5" y="-874.8" font-family="Arial" font-size="14.00">+ code: isize</text>
<text text-anchor="start" x="385.5" y="-859.8" font-family="Arial" font-size="14.00">+ message: String</text>
<text text-anchor="start" x="385.5" y="-844.8" font-family="Arial" font-size="14.00">+ data: String</text>
<polygon fill="none" stroke="black" points="373.5,-829 373.5,-935 513.5,-935 513.5,-829 373.5,-829"/>
</a>
</g>
</g>
<!-- ndJsonRpcError&#45;&gt;ndJsonRpcResponse -->
<g id="edge4" class="edge"><title>ndJsonRpcError&#45;&gt;ndJsonRpcResponse</title>
<path fill="none" stroke="black" d="M443.5,-824.861C443.5,-817.178 443.5,-809.188 443.5,-801.227"/>
<polygon fill="black" stroke="black" points="443.5,-801.21 439.5,-795.211 443.5,-789.21 447.5,-795.21 443.5,-801.21"/>
</g>
<!-- ndServerEndpoint -->
<g id="node4" class="node"><title>ndServerEndpoint</title>
<g id="a_node4_6"><a xlink:href="https://github.com/maidsafe/qjsonrpc/blob/master/src/server_endpoint.rs#:~:text=struct%20ServerEndpoint" xlink:title="&lt;TABLE&gt;">
<polygon fill="lightblue" stroke="none" points="21.5,-72 21.5,-109 271.5,-109 271.5,-72 21.5,-72"/>
<polygon fill="none" stroke="black" points="21.5,-72 21.5,-109 271.5,-109 271.5,-72 21.5,-72"/>
<text text-anchor="start" x="91.5" y="-87.8" font-family="Arial" font-weight="bold" font-size="14.00">ServerEndpoint</text>
<polygon fill="white" stroke="none" points="21.5,-5 21.5,-72 271.5,-72 271.5,-5 21.5,-5"/>
<polygon fill="none" stroke="black" points="21.5,-5 21.5,-72 271.5,-72 271.5,-5 21.5,-5"/>
<text text-anchor="start" x="32.5" y="-49.8" font-family="Arial" font-size="14.00">&#45; config: quinn::ServerConfig</text>
<text text-anchor="start" x="32.5" y="-34.8" font-family="Arial" font-size="14.00">&#45; crypto_config: rustls::ServerConfig</text>
<text text-anchor="start" x="32.5" y="-19.8" font-family="Arial" font-size="14.00">&#45; idle_timeout: u64</text>
<polygon fill="none" stroke="black" points="20.5,-4 20.5,-110 272.5,-110 272.5,-4 20.5,-4"/>
</a>
</g>
</g>
<!-- ndIncomingConn -->
<g id="node5" class="node"><title>ndIncomingConn</title>
<g id="a_node5_7"><a xlink:href="https://github.com/maidsafe/qjsonrpc/blob/master/src/server_endpoint.rs#:~:text=struct%20IncomingConn" xlink:title="&lt;TABLE&gt;">
<polygon fill="lightblue" stroke="none" points="28.5,-192 28.5,-229 265.5,-229 265.5,-192 28.5,-192"/>
<polygon fill="none" stroke="black" points="28.5,-192 28.5,-229 265.5,-229 265.5,-192 28.5,-192"/>
<text text-anchor="start" x="95.5" y="-207.8" font-family="Arial" font-weight="bold" font-size="14.00">IncomingConn</text>
<polygon fill="white" stroke="none" points="28.5,-155 28.5,-192 265.5,-192 265.5,-155 28.5,-155"/>
<polygon fill="none" stroke="black" points="28.5,-155 28.5,-192 265.5,-192 265.5,-155 28.5,-155"/>
<text text-anchor="start" x="39.5" y="-169.8" font-family="Arial" font-size="14.00">&#45; quinn_incoming: quinn::Incoming</text>
<polygon fill="none" stroke="black" points="27,-154 27,-230 266,-230 266,-154 27,-154"/>
</a>
</g>
</g>
<!-- ndIncomingConn&#45;&gt;ndServerEndpoint -->
<g id="edge5" class="edge"><title>ndIncomingConn&#45;&gt;ndServerEndpoint</title>
<path fill="none" stroke="black" d="M146.5,-149.647C146.5,-141.645 146.5,-133.073 146.5,-124.502"/>
<polygon fill="black" stroke="black" points="146.5,-114.473 151,-124.473 146.5,-119.473 146.5,-124.473 146.5,-124.473 146.5,-124.473 146.5,-119.473 142,-124.473 146.5,-114.473 146.5,-114.473"/>
</g>
<!-- ndIncomingJsonRpcRequest&#45;&gt;ndIncomingConn -->
<g id="edge6" class="edge"><title>ndIncomingJsonRpcRequest&#45;&gt;ndIncomingConn</title>
<path fill="none" stroke="black" d="M146.5,-322.227C146.5,-298.753 146.5,-269.153 146.5,-244.206"/>
<polygon fill="black" stroke="black" points="146.5,-234.188 151,-244.188 146.5,-239.188 146.5,-244.188 146.5,-244.188 146.5,-244.188 146.5,-239.188 142,-244.188 146.5,-234.188 146.5,-234.188"/>
</g>
<!-- ndJsonRpcResponseStream&#45;&gt;ndIncomingJsonRpcRequest -->
<g id="edge7" class="edge"><title>ndJsonRpcResponseStream&#45;&gt;ndIncomingJsonRpcRequest</title>
<path fill="none" stroke="black" d="M357.336,-517.333C314.643,-486.588 256.235,-444.525 211.72,-412.468"/>
<polygon fill="black" stroke="black" points="203.576,-406.603 214.321,-408.796 207.634,-409.525 211.691,-412.447 211.691,-412.447 211.691,-412.447 207.634,-409.525 209.061,-416.099 203.576,-406.603 203.576,-406.603"/>
</g>
<!-- ndJsonRpcResponseStream&#45;&gt;ndError -->
<g id="edge8" class="edge"><title>ndJsonRpcResponseStream&#45;&gt;ndError</title>
<path fill="none" stroke="black" d="M451.398,-517.097C464.343,-502.571 479.52,-485.541 494.936,-468.243"/>
<polygon fill="black" stroke="black" points="495.025,-468.143 496.031,-461.002 503.009,-459.184 502.004,-466.325 495.025,-468.143"/>
</g>
<!-- ndClientEndpoint -->
<g id="node9" class="node"><title>ndClientEndpoint</title>
<g id="a_node9_8"><a xlink:href="https://github.com/maidsafe/qjsonrpc/blob/master/src/client_endpoint.rs#:~:text=struct%20ClientEndpoint" xlink:title="&lt;TABLE&gt;">
<polygon fill="lightblue" stroke="none" points="630.5,-574.5 630.5,-611.5 874.5,-611.5 874.5,-574.5 630.5,-574.5"/>
<polygon fill="none" stroke="black" points="630.5,-574.5 630.5,-611.5 874.5,-611.5 874.5,-574.5 630.5,-574.5"/>
<text text-anchor="start" x="701" y="-590.3" font-family="Arial" font-weight="bold" font-size="14.00">ClientEndpoint</text>
<polygon fill="white" stroke="none" points="630.5,-507.5 630.5,-574.5 874.5,-574.5 874.5,-507.5 630.5,-507.5"/>
<polygon fill="none" stroke="black" points="630.5,-507.5 630.5,-574.5 874.5,-574.5 874.5,-507.5 630.5,-507.5"/>
<text text-anchor="start" x="641.5" y="-552.3" font-family="Arial" font-size="14.00">&#45; config: quinn::ClientConfig</text>
<text text-anchor="start" x="641.5" y="-537.3" font-family="Arial" font-size="14.00">&#45; crypto_config: rustls::ClientConfig</text>
<text text-anchor="start" x="641.5" y="-522.3" font-family="Arial" font-size="14.00">&#45; idle_timeout: u64</text>
<polygon fill="none" stroke="black" points="629.5,-506.5 629.5,-612.5 875.5,-612.5 875.5,-506.5 629.5,-506.5"/>
</a>
</g>
</g>
<!-- ndOutgoingConn -->
<g id="node10" class="node"><title>ndOutgoingConn</title>
<g id="a_node10_9"><a xlink:href="https://github.com/maidsafe/qjsonrpc/blob/master/src/client_endpoint.rs#:~:text=struct%20OutgoingConn" xlink:title="&lt;TABLE&gt;">
<polygon fill="lightblue" stroke="none" points="634.5,-724.5 634.5,-761.5 870.5,-761.5 870.5,-724.5 634.5,-724.5"/>
<polygon fill="none" stroke="black" points="634.5,-724.5 634.5,-761.5 870.5,-761.5 870.5,-724.5 634.5,-724.5"/>
<text text-anchor="start" x="701" y="-740.3" font-family="Arial" font-weight="bold" font-size="14.00">OutgoingConn</text>
<polygon fill="white" stroke="none" points="634.5,-687.5 634.5,-724.5 870.5,-724.5 870.5,-687.5 634.5,-687.5"/>
<polygon fill="none" stroke="black" points="634.5,-687.5 634.5,-724.5 870.5,-724.5 870.5,-687.5 634.5,-687.5"/>
<text text-anchor="start" x="645.5" y="-702.3" font-family="Arial" font-size="14.00">+ quinn_endpoint: quinn::Endpoint</text>
<polygon fill="none" stroke="black" points="633.5,-686.5 633.5,-762.5 871.5,-762.5 871.5,-686.5 633.5,-686.5"/>
</a>
</g>
</g>
<!-- ndOutgoingConn&#45;&gt;ndClientEndpoint -->
<g id="edge9" class="edge"><title>ndOutgoingConn&#45;&gt;ndClientEndpoint</title>
<path fill="none" stroke="black" d="M752.5,-682.368C752.5,-665.5 752.5,-645.545 752.5,-626.719"/>
<polygon fill="black" stroke="black" points="752.5,-616.702 757,-626.702 752.5,-621.702 752.5,-626.702 752.5,-626.702 752.5,-626.702 752.5,-621.702 748,-626.702 752.5,-616.702 752.5,-616.702"/>
</g>
<!-- ndOutgoingJsonRpcRequest -->
<g id="node11" class="node"><title>ndOutgoingJsonRpcRequest</title>
<g id="a_node11_10"><a xlink:href="https://github.com/maidsafe/qjsonrpc/blob/master/src/client_endpoint.rs#:~:text=struct%20OutgoingJsonRpcRequest" xlink:title="&lt;TABLE&gt;">
<polygon fill="lightblue" stroke="none" points="621.5,-882 621.5,-919 884.5,-919 884.5,-882 621.5,-882"/>
<polygon fill="none" stroke="black" points="621.5,-882 621.5,-919 884.5,-919 884.5,-882 621.5,-882"/>
<text text-anchor="start" x="661" y="-897.8" font-family="Arial" font-weight="bold" font-size="14.00">OutgoingJsonRpcRequest</text>
<polygon fill="white" stroke="none" points="621.5,-845 621.5,-882 884.5,-882 884.5,-845 621.5,-845"/>
<polygon fill="none" stroke="black" points="621.5,-845 621.5,-882 884.5,-882 884.5,-845 621.5,-845"/>
<text text-anchor="start" x="632.5" y="-859.8" font-family="Arial" font-size="14.00">&#45; quinn_connection: quinn::Connection</text>
<polygon fill="none" stroke="black" points="620,-844 620,-920 885,-920 885,-844 620,-844"/>
</a>
</g>
</g>
<!-- ndOutgoingJsonRpcRequest&#45;&gt;ndOutgoingConn -->
<g id="edge10" class="edge"><title>ndOutgoingJsonRpcRequest&#45;&gt;ndOutgoingConn</title>
<path fill="none" stroke="black" d="M752.5,-839.737C752.5,-820.417 752.5,-797.21 752.5,-776.774"/>
<polygon fill="black" stroke="black" points="752.5,-766.686 757,-776.686 752.5,-771.686 752.5,-776.686 752.5,-776.686 752.5,-776.686 752.5,-771.686 748,-776.686 752.5,-766.686 752.5,-766.686"/>
</g>
</g>
</svg>
