<?xml version="1.0" encoding="UTF-8" standalone="no"?>
<!DOCTYPE svg PUBLIC "-//W3C//DTD SVG 1.1//EN"
 "http://www.w3.org/Graphics/SVG/1.1/DTD/svg11.dtd">
<!-- Generated by graphviz version 2.38.0 (20140413.2041)
 -->
<!-- Title: ml Pages: 1 -->
<svg width="11375pt" height="697pt"
 viewBox="0.00 0.00 11375.00 697.00" xmlns="http://www.w3.org/2000/svg" xmlns:xlink="http://www.w3.org/1999/xlink">
<g id="graph0" class="graph" transform="scale(1 1) rotate(0) translate(4 693)">
<title>ml</title>
<polygon fill="white" stroke="none" points="-4,4 -4,-693 11371,-693 11371,4 -4,4"/>
<!-- ndWireMsg -->
<g id="node1" class="node"><title>ndWireMsg</title>
<g id="a_node1_0"><a xlink:href="https://github.com/maidsafe/qp2p/blob/master/src/wire_msg.rs#:~:text=enum%20WireMsg" xlink:title="&lt;TABLE&gt;">
<polygon fill="yellow" stroke="none" points="272,-397.5 272,-434.5 355,-434.5 355,-397.5 272,-397.5"/>
<polygon fill="none" stroke="black" points="272,-397.5 272,-434.5 355,-434.5 355,-397.5 272,-397.5"/>
<text text-anchor="start" x="283" y="-413.3" font-family="Arial" font-weight="bold" font-size="14.00">WireMsg</text>
<polygon fill="none" stroke="black" points="270.5,-397 270.5,-436 355.5,-436 355.5,-397 270.5,-397"/>
</a>
</g>
</g>
<!-- ndSendStream -->
<g id="node19" class="node"><title>ndSendStream</title>
<g id="a_node19_1"><a xlink:href="https://github.com/maidsafe/qp2p/blob/master/src/connection.rs#:~:text=struct%20SendStream" xlink:title="&lt;TABLE&gt;">
<polygon fill="lightblue" stroke="none" points="468,-314.5 468,-351.5 865,-351.5 865,-314.5 468,-314.5"/>
<polygon fill="none" stroke="black" points="468,-314.5 468,-351.5 865,-351.5 865,-314.5 468,-314.5"/>
<text text-anchor="start" x="479" y="-330.3" font-family="Arial" font-weight="bold" font-size="14.00">pub struct SendStream { &#160;&#160;&#160;inner: quinn::SendStream,}</text>
<polygon fill="none" stroke="black" points="466.5,-314 466.5,-353 865.5,-353 865.5,-314 466.5,-314"/>
</a>
</g>
</g>
<!-- ndWireMsg&#45;&gt;ndSendStream -->
<g id="edge1" class="edge"><title>ndWireMsg&#45;&gt;ndSendStream</title>
<path fill="none" stroke="black" stroke-dasharray="5,2" d="M363.765,-394.478C365.524,-393.966 367.272,-393.472 369,-393 417,-379.88 470.228,-368.265 518.231,-358.914"/>
<polygon fill="black" stroke="black" points="528.075,-357.014 519.109,-363.328 523.165,-357.962 518.256,-358.909 518.256,-358.909 518.256,-358.909 523.165,-357.962 517.403,-354.491 528.075,-357.014 528.075,-357.014"/>
</g>
<!-- ndRecvStream -->
<g id="node20" class="node"><title>ndRecvStream</title>
<g id="a_node20_2"><a xlink:href="https://github.com/maidsafe/qp2p/blob/master/src/connection.rs#:~:text=struct%20RecvStream" xlink:title="&lt;TABLE&gt;">
<polygon fill="lightblue" stroke="none" points="37,-314.5 37,-351.5 431,-351.5 431,-314.5 37,-314.5"/>
<polygon fill="none" stroke="black" points="37,-314.5 37,-351.5 431,-351.5 431,-314.5 37,-314.5"/>
<text text-anchor="start" x="48" y="-330.3" font-family="Arial" font-weight="bold" font-size="14.00">pub struct RecvStream { &#160;&#160;&#160;inner: quinn::RecvStream,}</text>
<polygon fill="none" stroke="black" points="36,-314 36,-353 432,-353 432,-314 36,-314"/>
</a>
</g>
</g>
<!-- ndWireMsg&#45;&gt;ndRecvStream -->
<g id="edge2" class="edge"><title>ndWireMsg&#45;&gt;ndRecvStream</title>
<path fill="none" stroke="black" d="M284.871,-392.937C275.732,-384.233 265.748,-374.144 257.018,-364.824"/>
<polygon fill="black" stroke="black" points="250.027,-357.223 260.109,-361.536 253.412,-360.903 256.797,-364.583 256.797,-364.583 256.797,-364.583 253.412,-360.903 253.485,-367.629 250.027,-357.223 250.027,-357.223"/>
</g>
<!-- ndMsgHeader -->
<g id="node2" class="node"><title>ndMsgHeader</title>
<g id="a_node2_3"><a xlink:href="https://github.com/maidsafe/qp2p/blob/master/src/wire_msg.rs#:~:text=struct%20MsgHeader" xlink:title="&lt;TABLE&gt;">
<polygon fill="lightblue" stroke="none" points="467,-397.5 467,-434.5 1249,-434.5 1249,-397.5 467,-397.5"/>
<polygon fill="none" stroke="black" points="467,-397.5 467,-434.5 1249,-434.5 1249,-397.5 467,-397.5"/>
<text text-anchor="start" x="478" y="-413.3" font-family="Arial" font-weight="bold" font-size="14.00">struct MsgHeader { &#160;&#160;&#160;version: u16, &#160;&#160;&#160;data_len: u32, &#160;&#160;&#160;usr_msg_flag: u8, &#160;&#160;&#160;#[allow(unused)] &#160;&#160;&#160;reserved: [u8; 2],}</text>
<polygon fill="none" stroke="black" points="466,-397 466,-436 1250,-436 1250,-397 466,-397"/>
</a>
</g>
</g>
<!-- ndIncomingConnections -->
<g id="node3" class="node"><title>ndIncomingConnections</title>
<text text-anchor="middle" x="1035" y="-163.8" font-family="Times,serif" font-size="14.00">ndIncomingConnections</text>
</g>
<!-- ndEndpoint -->
<g id="node4" class="node"><title>ndEndpoint</title>
<text text-anchor="middle" x="1194" y="-86.3" font-family="Times,serif" font-size="14.00">ndEndpoint</text>
</g>
<!-- ndIncomingConnections&#45;&gt;ndEndpoint -->
<g id="edge3" class="edge"><title>ndIncomingConnections&#45;&gt;ndEndpoint</title>
<path fill="none" stroke="black" d="M1071.08,-149.368C1094.15,-138.412 1124.27,-124.113 1148.91,-112.41"/>
<polygon fill="black" stroke="black" points="1158.06,-108.064 1150.96,-116.419 1153.55,-110.209 1149.03,-112.354 1149.03,-112.354 1149.03,-112.354 1153.55,-110.209 1147.1,-108.289 1158.06,-108.064 1158.06,-108.064"/>
</g>
<!-- ndConnection -->
<g id="node18" class="node"><title>ndConnection</title>
<text text-anchor="middle" x="1035" y="-246.8" font-family="Times,serif" font-size="14.00">ndConnection</text>
</g>
<!-- ndEndpoint&#45;&gt;ndConnection -->
<g id="edge4" class="edge"><title>ndEndpoint&#45;&gt;ndConnection</title>
<path fill="none" stroke="black" stroke-dasharray="5,2" d="M1189.83,-108.228C1179.19,-129.266 1154.7,-165.225 1128,-191 1114.08,-204.435 1096.82,-217.021 1080.87,-227.051"/>
<polygon fill="black" stroke="black" points="1072.18,-232.349 1078.38,-223.302 1076.45,-229.747 1080.72,-227.144 1080.72,-227.144 1080.72,-227.144 1076.45,-229.747 1083.06,-230.987 1072.18,-232.349 1072.18,-232.349"/>
</g>
<!-- ndConnectionIncoming -->
<g id="node21" class="node"><title>ndConnectionIncoming</title>
<text text-anchor="middle" x="1035" y="-14.3" font-family="Times,serif" font-size="14.00">ndConnectionIncoming</text>
</g>
<!-- ndEndpoint&#45;&gt;ndConnectionIncoming -->
<g id="edge5" class="edge"><title>ndEndpoint&#45;&gt;ndConnectionIncoming</title>
<path fill="none" stroke="black" stroke-dasharray="5,2" d="M1153.82,-73.811C1130.29,-63.9781 1100.69,-51.0346 1076.88,-40.1949"/>
<polygon fill="black" stroke="black" points="1067.73,-36.0016 1078.7,-36.0773 1072.28,-38.0849 1076.82,-40.1681 1076.82,-40.1681 1076.82,-40.1681 1072.28,-38.0849 1074.95,-44.2589 1067.73,-36.0016 1067.73,-36.0016"/>
</g>
<!-- ndEndpointError -->
<g id="node5" class="node"><title>ndEndpointError</title>
<g id="a_node5_4"><a xlink:href="https://github.com/maidsafe/qp2p/blob/master/src/error.rs#:~:text=enum%20EndpointError" xlink:title="&lt;TABLE&gt;">
<polygon fill="yellow" stroke="none" points="10887,-231.5 10887,-268.5 11009,-268.5 11009,-231.5 10887,-231.5"/>
<polygon fill="none" stroke="black" points="10887,-231.5 10887,-268.5 11009,-268.5 11009,-231.5 10887,-231.5"/>
<text text-anchor="start" x="10898" y="-247.3" font-family="Arial" font-weight="bold" font-size="14.00">EndpointError</text>
<polygon fill="none" stroke="black" points="10886,-231 10886,-270 11010,-270 11010,-231 10886,-231"/>
</a>
</g>
</g>
<!-- ndEndpointError&#45;&gt;ndEndpoint -->
<g id="edge6" class="edge"><title>ndEndpointError&#45;&gt;ndEndpoint</title>
<path fill="none" stroke="black" d="M10951.4,-226.921C10953.6,-202.337 10952.6,-163.879 10929,-144 10879.4,-102.333 1993.73,-91.8617 1244.23,-91.0525"/>
<polygon fill="black" stroke="black" points="1234.04,-91.0416 1244.04,-86.5524 1239.04,-91.047 1244.04,-91.0524 1244.04,-91.0524 1244.04,-91.0524 1239.04,-91.047 1244.03,-95.5524 1234.04,-91.0416 1234.04,-91.0416"/>
</g>
<!-- ndClientEndpointError -->
<g id="node6" class="node"><title>ndClientEndpointError</title>
<g id="a_node6_5"><a xlink:href="https://github.com/maidsafe/qp2p/blob/master/src/error.rs#:~:text=enum%20ClientEndpointError" xlink:title="&lt;TABLE&gt;">
<polygon fill="yellow" stroke="none" points="10749,-148.5 10749,-185.5 10911,-185.5 10911,-148.5 10749,-148.5"/>
<polygon fill="none" stroke="black" points="10749,-148.5 10749,-185.5 10911,-185.5 10911,-148.5 10749,-148.5"/>
<text text-anchor="start" x="10760" y="-164.3" font-family="Arial" font-weight="bold" font-size="14.00">ClientEndpointError</text>
<polygon fill="none" stroke="black" points="10748,-148 10748,-187 10912,-187 10912,-148 10748,-148"/>
</a>
</g>
</g>
<!-- ndEndpointError&#45;&gt;ndClientEndpointError -->
<g id="edge7" class="edge"><title>ndEndpointError&#45;&gt;ndClientEndpointError</title>
<path fill="none" stroke="black" stroke-dasharray="5,2" d="M10915.1,-226.937C10901.7,-217.711 10886,-206.928 10871.7,-197.155"/>
<polygon fill="black" stroke="black" points="10863.1,-191.223 10873.9,-193.172 10867.2,-194.053 10871.3,-196.882 10871.3,-196.882 10871.3,-196.882 10867.2,-194.053 10868.8,-200.592 10863.1,-191.223 10863.1,-191.223"/>
</g>
<!-- ndClientEndpointError&#45;&gt;ndEndpoint -->
<g id="edge8" class="edge"><title>ndClientEndpointError&#45;&gt;ndEndpoint</title>
<path fill="none" stroke="black" d="M10739.6,-165.792C9806.49,-158.481 1947.23,-96.9017 1244.24,-91.3936"/>
<polygon fill="black" stroke="black" points="1234.17,-91.3148 1244.21,-86.8933 1239.17,-91.354 1244.17,-91.3932 1244.17,-91.3932 1244.17,-91.3932 1239.17,-91.354 1244.14,-95.8931 1234.17,-91.3148 1234.17,-91.3148"/>
</g>
<!-- ndConnectionError -->
<g id="node7" class="node"><title>ndConnectionError</title>
<g id="a_node7_6"><a xlink:href="https://github.com/maidsafe/qp2p/blob/master/src/error.rs#:~:text=enum%20ConnectionError" xlink:title="&lt;TABLE&gt;">
<polygon fill="yellow" stroke="none" points="1258,-563.5 1258,-600.5 1398,-600.5 1398,-563.5 1258,-563.5"/>
<polygon fill="none" stroke="black" points="1258,-563.5 1258,-600.5 1398,-600.5 1398,-563.5 1258,-563.5"/>
<text text-anchor="start" x="1269" y="-579.3" font-family="Arial" font-weight="bold" font-size="14.00">ConnectionError</text>
<polygon fill="none" stroke="black" points="1257,-563 1257,-602 1399,-602 1399,-563 1257,-563"/>
</a>
</g>
</g>
<!-- ndConnectionError&#45;&gt;ndEndpoint -->
<g id="edge9" class="edge"><title>ndConnectionError&#45;&gt;ndEndpoint</title>
<path fill="none" stroke="black" d="M1407.06,-579.943C1603.46,-576.101 2129.35,-565.979 2568,-559 3534.97,-543.616 10311.1,-557.641 11271,-440 11314.5,-434.669 11367,-461.323 11367,-417.5 11367,-417.5 11367,-417.5 11367,-249.5 11367,-59.6196 11141.3,-168.14 10953,-144 10695.6,-111.003 1984.8,-92.6061 1244.09,-91.1005"/>
<polygon fill="black" stroke="black" points="1234.01,-91.08 1244.02,-86.6004 1239.01,-91.0902 1244.01,-91.1004 1244.01,-91.1004 1244.01,-91.1004 1239.01,-91.0902 1244,-95.6004 1234.01,-91.08 1234.01,-91.08"/>
</g>
<!-- ndRpcError -->
<g id="node11" class="node"><title>ndRpcError</title>
<g id="a_node11_7"><a xlink:href="https://github.com/maidsafe/qp2p/blob/master/src/error.rs#:~:text=enum%20RpcError" xlink:title="&lt;TABLE&gt;">
<polygon fill="yellow" stroke="none" points="1285,-397.5 1285,-434.5 1371,-434.5 1371,-397.5 1285,-397.5"/>
<polygon fill="none" stroke="black" points="1285,-397.5 1285,-434.5 1371,-434.5 1371,-397.5 1285,-397.5"/>
<text text-anchor="start" x="1296" y="-413.3" font-family="Arial" font-weight="bold" font-size="14.00">RpcError</text>
<polygon fill="none" stroke="black" points="1284,-397 1284,-436 1372,-436 1372,-397 1284,-397"/>
</a>
</g>
</g>
<!-- ndConnectionError&#45;&gt;ndRpcError -->
<g id="edge10" class="edge"><title>ndConnectionError&#45;&gt;ndRpcError</title>
<path fill="none" stroke="black" stroke-dasharray="5,2" d="M1328,-558.697C1328,-530.546 1328,-482.465 1328,-450.341"/>
<polygon fill="black" stroke="black" points="1328,-440.11 1332.5,-450.11 1328,-445.11 1328,-450.11 1328,-450.11 1328,-450.11 1328,-445.11 1323.5,-450.11 1328,-440.11 1328,-440.11"/>
</g>
<!-- ndSendError -->
<g id="node12" class="node"><title>ndSendError</title>
<g id="a_node12_8"><a xlink:href="https://github.com/maidsafe/qp2p/blob/master/src/error.rs#:~:text=enum%20SendError" xlink:title="&lt;TABLE&gt;">
<polygon fill="yellow" stroke="none" points="430,-480.5 430,-517.5 525,-517.5 525,-480.5 430,-480.5"/>
<polygon fill="none" stroke="black" points="430,-480.5 430,-517.5 525,-517.5 525,-480.5 430,-480.5"/>
<text text-anchor="start" x="441" y="-496.3" font-family="Arial" font-weight="bold" font-size="14.00">SendError</text>
<polygon fill="none" stroke="black" points="428.5,-480 428.5,-519 525.5,-519 525.5,-480 428.5,-480"/>
</a>
</g>
</g>
<!-- ndConnectionError&#45;&gt;ndSendError -->
<g id="edge11" class="edge"><title>ndConnectionError&#45;&gt;ndSendError</title>
<path fill="none" stroke="black" stroke-dasharray="5,2" d="M1248.7,-573.952C1082.89,-558.17 701.95,-521.911 545.741,-507.043"/>
<polygon fill="black" stroke="black" points="545.499,-507.02 539.147,-510.433 533.553,-505.883 539.905,-502.469 545.499,-507.02"/>
</g>
<!-- ndRecvError -->
<g id="node13" class="node"><title>ndRecvError</title>
<g id="a_node13_9"><a xlink:href="https://github.com/maidsafe/qp2p/blob/master/src/error.rs#:~:text=enum%20RecvError" xlink:title="&lt;TABLE&gt;">
<polygon fill="yellow" stroke="none" points="266,-480.5 266,-517.5 360,-517.5 360,-480.5 266,-480.5"/>
<polygon fill="none" stroke="black" points="266,-480.5 266,-517.5 360,-517.5 360,-480.5 266,-480.5"/>
<text text-anchor="start" x="277" y="-496.3" font-family="Arial" font-weight="bold" font-size="14.00">RecvError</text>
<polygon fill="none" stroke="black" points="265,-480 265,-519 361,-519 361,-480 265,-480"/>
</a>
</g>
</g>
<!-- ndConnectionError&#45;&gt;ndRecvError -->
<g id="edge12" class="edge"><title>ndConnectionError&#45;&gt;ndRecvError</title>
<path fill="none" stroke="black" stroke-dasharray="5,2" d="M1248.74,-580.754C1089.28,-578.305 718.626,-567.825 411,-523 401.298,-521.586 391.136,-519.71 381.183,-517.642"/>
<polygon fill="black" stroke="black" points="380.919,-517.585 374.208,-520.223 369.191,-515.043 375.903,-512.404 380.919,-517.585"/>
</g>
<!-- ndConnectionError&#45;&gt;ndConnection -->
<g id="edge13" class="edge"><title>ndConnectionError&#45;&gt;ndConnection</title>
<path fill="none" stroke="black" d="M1347.48,-558.893C1377.65,-521.019 1428.33,-443.9 1389,-393 1350.25,-342.84 1310.44,-379.018 1251,-357 1187.01,-333.297 1116.65,-296.836 1074.16,-273.583"/>
<polygon fill="black" stroke="black" points="1065.27,-268.688 1076.2,-269.569 1069.65,-271.099 1074.03,-273.511 1074.03,-273.511 1074.03,-273.511 1069.65,-271.099 1071.86,-277.453 1065.27,-268.688 1065.27,-268.688"/>
</g>
<!-- ndInternalConfigError -->
<g id="node8" class="node"><title>ndInternalConfigError</title>
<g id="a_node8_10"><a xlink:href="https://github.com/maidsafe/qp2p/blob/master/src/error.rs#:~:text=struct%20InternalConfigError" xlink:title="&lt;TABLE&gt;">
<polygon fill="lightblue" stroke="none" points="1263,-646.5 1263,-683.5 1655,-683.5 1655,-646.5 1263,-646.5"/>
<polygon fill="none" stroke="black" points="1263,-646.5 1263,-683.5 1655,-683.5 1655,-646.5 1263,-646.5"/>
<text text-anchor="start" x="1274" y="-662.3" font-family="Arial" font-weight="bold" font-size="14.00">pub struct InternalConfigError(quinn::ConnectError);</text>
<polygon fill="none" stroke="black" points="1262,-646 1262,-685 1656,-685 1656,-646 1262,-646"/>
</a>
</g>
</g>
<!-- ndInternalConfigError&#45;&gt;ndConnectionError -->
<g id="edge14" class="edge"><title>ndInternalConfigError&#45;&gt;ndConnectionError</title>
<path fill="none" stroke="black" d="M1422.51,-641.937C1407.87,-632.885 1390.81,-622.335 1375.24,-612.709"/>
<polygon fill="black" stroke="black" points="1374.96,-612.534 1367.75,-612.781 1364.75,-606.223 1371.96,-605.976 1374.96,-612.534"/>
</g>
<!-- ndClose -->
<g id="node9" class="node"><title>ndClose</title>
<g id="a_node9_11"><a xlink:href="https://github.com/maidsafe/qp2p/blob/master/src/error.rs#:~:text=enum%20Close" xlink:title="&lt;TABLE&gt;">
<polygon fill="yellow" stroke="none" points="1165,-646.5 1165,-683.5 1227,-683.5 1227,-646.5 1165,-646.5"/>
<polygon fill="none" stroke="black" points="1165,-646.5 1165,-683.5 1227,-683.5 1227,-646.5 1165,-646.5"/>
<text text-anchor="start" x="1176" y="-662.3" font-family="Arial" font-weight="bold" font-size="14.00">Close</text>
<polygon fill="none" stroke="black" points="1164,-646 1164,-685 1228,-685 1228,-646 1164,-646"/>
</a>
</g>
</g>
<!-- ndClose&#45;&gt;ndConnectionError -->
<g id="edge15" class="edge"><title>ndClose&#45;&gt;ndConnectionError</title>
<path fill="none" stroke="black" d="M1232.77,-641.937C1247.52,-632.885 1264.71,-622.335 1280.4,-612.709"/>
<polygon fill="black" stroke="black" points="1280.74,-612.499 1283.76,-605.952 1290.97,-606.223 1287.95,-612.77 1280.74,-612.499"/>
</g>
<!-- ndTransportErrorCode -->
<g id="node10" class="node"><title>ndTransportErrorCode</title>
<g id="a_node10_12"><a xlink:href="https://github.com/maidsafe/qp2p/blob/master/src/error.rs#:~:text=struct%20TransportErrorCode" xlink:title="&lt;TABLE&gt;">
<polygon fill="lightblue" stroke="none" points="1691,-646.5 1691,-683.5 2184,-683.5 2184,-646.5 1691,-646.5"/>
<polygon fill="none" stroke="black" points="1691,-646.5 1691,-683.5 2184,-683.5 2184,-646.5 1691,-646.5"/>
<text text-anchor="start" x="1702" y="-662.3" font-family="Arial" font-weight="bold" font-size="14.00">pub struct TransportErrorCode(quinn_proto::TransportErrorCode);</text>
<polygon fill="none" stroke="black" points="1689.5,-646 1689.5,-685 2184.5,-685 2184.5,-646 1689.5,-646"/>
</a>
</g>
</g>
<!-- ndRpcError&#45;&gt;ndEndpoint -->
<g id="edge16" class="edge"><title>ndRpcError&#45;&gt;ndEndpoint</title>
<path fill="none" stroke="black" d="M1287.5,-392.872C1274,-383.436 1260.09,-371.311 1251,-357 1202.39,-280.499 1194.63,-169.203 1193.79,-118.278"/>
<polygon fill="black" stroke="black" points="1193.7,-108.08 1198.29,-118.042 1193.74,-113.08 1193.79,-118.08 1193.79,-118.08 1193.79,-118.08 1193.74,-113.08 1189.29,-118.118 1193.7,-108.08 1193.7,-108.08"/>
</g>
<!-- ndSendError&#45;&gt;ndWireMsg -->
<g id="edge17" class="edge"><title>ndSendError&#45;&gt;ndWireMsg</title>
<path fill="none" stroke="black" d="M431.317,-475.937C411.585,-466.191 388.337,-454.709 367.695,-444.514"/>
<polygon fill="black" stroke="black" points="358.722,-440.082 369.681,-440.476 363.205,-442.297 367.688,-444.511 367.688,-444.511 367.688,-444.511 363.205,-442.297 365.696,-448.545 358.722,-440.082 358.722,-440.082"/>
</g>
<!-- ndSendError&#45;&gt;ndMsgHeader -->
<g id="edge18" class="edge"><title>ndSendError&#45;&gt;ndMsgHeader</title>
<path fill="none" stroke="black" d="M533.628,-486.461C588.357,-474.826 672.894,-456.853 741.945,-442.173"/>
<polygon fill="black" stroke="black" points="752.016,-440.032 743.17,-446.513 747.125,-441.072 742.234,-442.112 742.234,-442.112 742.234,-442.112 747.125,-441.072 741.298,-437.71 752.016,-440.032 752.016,-440.032"/>
</g>
<!-- ndSendError&#45;&gt;ndRpcError -->
<g id="edge19" class="edge"><title>ndSendError&#45;&gt;ndRpcError</title>
<path fill="none" stroke="black" d="M533.747,-496.356C686.469,-490.268 1104.82,-471.408 1263.82,-440.3"/>
<polygon fill="black" stroke="black" points="1263.95,-440.272 1269.02,-435.141 1275.71,-437.844 1270.64,-442.975 1263.95,-440.272"/>
</g>
<!-- ndSendError&#45;&gt;ndConnection -->
<g id="edge20" class="edge"><title>ndSendError&#45;&gt;ndConnection</title>
<path fill="none" stroke="black" d="M460.318,-475.845C445.154,-452.284 428.083,-415.728 449,-393 514.385,-321.954 791.08,-389.501 882,-357 931.988,-339.131 980.92,-300.652 1009.51,-275.437"/>
<polygon fill="black" stroke="black" points="1017.01,-268.705 1012.57,-278.732 1013.29,-272.043 1009.57,-275.381 1009.57,-275.381 1009.57,-275.381 1013.29,-272.043 1006.56,-272.031 1017.01,-268.705 1017.01,-268.705"/>
</g>
<!-- ndSendError&#45;&gt;ndSendStream -->
<g id="edge21" class="edge"><title>ndSendError&#45;&gt;ndSendStream</title>
<path fill="none" stroke="black" d="M444.354,-475.965C433.177,-466.323 421.987,-454.037 416,-440 407.805,-420.786 403.021,-409.367 416,-393 427.203,-378.873 456.288,-367.833 490.837,-359.34"/>
<polygon fill="black" stroke="black" points="500.716,-357.011 492.015,-363.685 495.849,-358.158 490.982,-359.305 490.982,-359.305 490.982,-359.305 495.849,-358.158 489.95,-354.925 500.716,-357.011 500.716,-357.011"/>
</g>
<!-- ndRecvError&#45;&gt;ndWireMsg -->
<g id="edge22" class="edge"><title>ndRecvError&#45;&gt;ndWireMsg</title>
<path fill="none" stroke="black" d="M313,-475.937C313,-468.016 313,-458.949 313,-450.357"/>
<polygon fill="black" stroke="black" points="313,-440.223 317.5,-450.223 313,-445.223 313,-450.223 313,-450.223 313,-450.223 313,-445.223 308.5,-450.223 313,-440.223 313,-440.223"/>
</g>
<!-- ndRecvError&#45;&gt;ndRpcError -->
<g id="edge23" class="edge"><title>ndRecvError&#45;&gt;ndRpcError</title>
<path fill="none" stroke="black" d="M369.162,-483.745C382.768,-480.688 397.333,-477.84 411,-476 784.413,-425.716 891.396,-512.925 1263.79,-440.32"/>
<polygon fill="black" stroke="black" points="1263.96,-440.286 1269.07,-435.197 1275.73,-437.955 1270.62,-443.044 1263.96,-440.286"/>
</g>
<!-- ndRecvError&#45;&gt;ndRecvStream -->
<g id="edge24" class="edge"><title>ndRecvError&#45;&gt;ndRecvStream</title>
<path fill="none" stroke="black" d="M282.791,-475.812C271.762,-465.991 260.232,-453.62 253,-440 241.074,-417.54 236.466,-389 234.762,-367.269"/>
<polygon fill="black" stroke="black" points="234.139,-357.205 239.248,-366.908 234.448,-362.195 234.757,-367.186 234.757,-367.186 234.757,-367.186 234.448,-362.195 230.266,-367.464 234.139,-357.205 234.139,-357.205"/>
</g>
<!-- ndRecvError&#45;&gt;ndConnectionIncoming -->
<g id="edge25" class="edge"><title>ndRecvError&#45;&gt;ndConnectionIncoming</title>
<path fill="none" stroke="black" d="M256.68,-494.141C166.566,-483.756 0,-449.067 0,-334.5 0,-334.5 0,-334.5 0,-166.5 0,-70.5472 706.2,-32.4714 951.921,-22.1272"/>
<polygon fill="black" stroke="black" points="962.221,-21.6985 952.417,-26.6105 957.225,-21.9065 952.229,-22.1144 952.229,-22.1144 952.229,-22.1144 957.225,-21.9065 952.042,-17.6183 962.221,-21.6985 962.221,-21.6985"/>
</g>
<!-- ndSerializationError -->
<g id="node14" class="node"><title>ndSerializationError</title>
<g id="a_node14_13"><a xlink:href="https://github.com/maidsafe/qp2p/blob/master/src/error.rs#:~:text=struct%20SerializationError" xlink:title="&lt;TABLE&gt;">
<polygon fill="lightblue" stroke="none" points="340,-563.5 340,-600.5 678,-600.5 678,-563.5 340,-563.5"/>
<polygon fill="none" stroke="black" points="340,-563.5 340,-600.5 678,-600.5 678,-563.5 340,-563.5"/>
<text text-anchor="start" x="351" y="-579.3" font-family="Arial" font-weight="bold" font-size="14.00">pub struct SerializationError(bincode::Error);</text>
<polygon fill="none" stroke="black" points="339,-563 339,-602 679,-602 679,-563 339,-563"/>
</a>
</g>
</g>
<!-- ndSerializationError&#45;&gt;ndSendError -->
<g id="edge26" class="edge"><title>ndSerializationError&#45;&gt;ndSendError</title>
<path fill="none" stroke="black" d="M500.086,-558.937C497.095,-551.365 493.689,-542.744 490.429,-534.493"/>
<polygon fill="black" stroke="black" points="490.386,-534.384 484.461,-530.273 485.977,-523.223 491.902,-527.334 490.386,-534.384"/>
</g>
<!-- ndSerializationError&#45;&gt;ndRecvError -->
<g id="edge27" class="edge"><title>ndSerializationError&#45;&gt;ndRecvError</title>
<path fill="none" stroke="black" d="M454.403,-558.937C431.032,-549.279 403.535,-537.915 379.032,-527.789"/>
<polygon fill="black" stroke="black" points="378.734,-527.666 371.661,-529.071 367.644,-523.082 374.717,-521.677 378.734,-527.666"/>
</g>
<!-- ndStreamError -->
<g id="node15" class="node"><title>ndStreamError</title>
<g id="a_node15_14"><a xlink:href="https://github.com/maidsafe/qp2p/blob/master/src/error.rs#:~:text=enum%20StreamError" xlink:title="&lt;TABLE&gt;">
<polygon fill="yellow" stroke="none" points="195,-563.5 195,-600.5 304,-600.5 304,-563.5 195,-563.5"/>
<polygon fill="none" stroke="black" points="195,-563.5 195,-600.5 304,-600.5 304,-563.5 195,-563.5"/>
<text text-anchor="start" x="206" y="-579.3" font-family="Arial" font-weight="bold" font-size="14.00">StreamError</text>
<polygon fill="none" stroke="black" points="193.5,-563 193.5,-602 304.5,-602 304.5,-563 193.5,-563"/>
</a>
</g>
</g>
<!-- ndStreamError&#45;&gt;ndSendError -->
<g id="edge28" class="edge"><title>ndStreamError&#45;&gt;ndSendError</title>
<path fill="none" stroke="black" d="M312.511,-558.937C342.538,-548.269 378.422,-535.521 409,-524.658"/>
<polygon fill="black" stroke="black" points="409.129,-524.612 413.444,-518.834 420.437,-520.595 416.122,-526.373 409.129,-524.612"/>
</g>
<!-- ndStreamError&#45;&gt;ndRecvError -->
<g id="edge29" class="edge"><title>ndStreamError&#45;&gt;ndRecvError</title>
<path fill="none" stroke="black" d="M266.828,-558.937C273.223,-550.842 280.566,-541.55 287.486,-532.792"/>
<polygon fill="black" stroke="black" points="287.607,-532.639 288.188,-525.451 295.046,-523.223 294.465,-530.411 287.607,-532.639"/>
</g>
<!-- ndUnsupportedStreamOperation -->
<g id="node16" class="node"><title>ndUnsupportedStreamOperation</title>
<text text-anchor="middle" x="249" y="-661.8" font-family="Times,serif" font-size="14.00">ndUnsupportedStreamOperation</text>
</g>
<!-- ndUnsupportedStreamOperation&#45;&gt;ndStreamError -->
<g id="edge30" class="edge"><title>ndUnsupportedStreamOperation&#45;&gt;ndStreamError</title>
<path fill="none" stroke="black" d="M249,-647.322C249,-638.898 249,-628.431 249,-618.427"/>
<polygon fill="black" stroke="black" points="249,-618.191 245,-612.191 249,-606.191 253,-612.191 249,-618.191"/>
</g>
<!-- ndUpnpError -->
<g id="node17" class="node"><title>ndUpnpError</title>
<g id="a_node17_15"><a xlink:href="https://github.com/maidsafe/qp2p/blob/master/src/error.rs#:~:text=struct%20UpnpError" xlink:title="&lt;TABLE&gt;">
<polygon fill="lightblue" stroke="none" points="10978,-314.5 10978,-351.5 11292,-351.5 11292,-314.5 10978,-314.5"/>
<polygon fill="none" stroke="black" points="10978,-314.5 10978,-351.5 11292,-351.5 11292,-314.5 10978,-314.5"/>
<text text-anchor="start" x="10989" y="-330.3" font-family="Arial" font-weight="bold" font-size="14.00">pub struct UpnpError(#[source] IgdError);</text>
<polygon fill="none" stroke="black" points="10977,-314 10977,-353 11293,-353 11293,-314 10977,-314"/>
</a>
</g>
</g>
<!-- ndUpnpError&#45;&gt;ndEndpointError -->
<g id="edge31" class="edge"><title>ndUpnpError&#45;&gt;ndEndpointError</title>
<path fill="none" stroke="black" d="M11082.9,-309.937C11060.7,-300.322 11034.6,-289.018 11011.3,-278.926"/>
<polygon fill="black" stroke="black" points="11011.1,-278.852 11004.1,-280.138 11000.1,-274.082 11007.2,-272.797 11011.1,-278.852"/>
</g>
<!-- ndConnection&#45;&gt;ndIncomingConnections -->
<g id="edge32" class="edge"><title>ndConnection&#45;&gt;ndIncomingConnections</title>
<path fill="none" stroke="black" d="M1035,-232.322C1035,-222.335 1035,-209.477 1035,-197.923"/>
<polygon fill="black" stroke="black" points="1035,-197.653 1031,-191.653 1035,-185.653 1039,-191.653 1035,-197.653"/>
</g>
<!-- ndConnection&#45;&gt;ndEndpoint -->
<g id="edge33" class="edge"><title>ndConnection&#45;&gt;ndEndpoint</title>
<path fill="none" stroke="black" stroke-dasharray="5,2" d="M1056.48,-232.349C1072.31,-221.653 1093.51,-206.923 1110,-191 1133.46,-168.346 1155.23,-137.825 1171.02,-116.482"/>
<polygon fill="black" stroke="black" points="1177.2,-108.228 1174.81,-118.931 1174.2,-112.231 1171.21,-116.235 1171.21,-116.235 1171.21,-116.235 1174.2,-112.231 1167.6,-113.538 1177.2,-108.228 1177.2,-108.228"/>
</g>
<!-- ndSendStream&#45;&gt;ndWireMsg -->
<g id="edge34" class="edge"><title>ndSendStream&#45;&gt;ndWireMsg</title>
<path fill="none" stroke="black" stroke-dasharray="5,2" d="M544.859,-357.014C495.587,-366.672 438.307,-378.976 387,-393 382.486,-394.234 377.831,-395.617 373.151,-397.075"/>
<polygon fill="black" stroke="black" points="363.549,-400.15 371.701,-392.815 368.311,-398.625 373.073,-397.1 373.073,-397.1 373.073,-397.1 368.311,-398.625 374.445,-401.386 363.549,-400.15 363.549,-400.15"/>
</g>
<!-- ndSendStream&#45;&gt;ndConnection -->
<g id="edge35" class="edge"><title>ndSendStream&#45;&gt;ndConnection</title>
<path fill="none" stroke="black" d="M768.787,-309.937C836.642,-295.042 922.977,-276.09 978.614,-263.877"/>
<polygon fill="black" stroke="black" points="988.634,-261.678 979.831,-268.217 983.75,-262.75 978.866,-263.822 978.866,-263.822 978.866,-263.822 983.75,-262.75 977.901,-259.427 988.634,-261.678 988.634,-261.678"/>
</g>
<!-- ndRecvStream&#45;&gt;ndWireMsg -->
<g id="edge36" class="edge"><title>ndRecvStream&#45;&gt;ndWireMsg</title>
<path fill="none" stroke="black" stroke-dasharray="5,2" d="M262.297,-357.223C271.446,-365.944 281.428,-376.036 290.142,-385.347"/>
<polygon fill="black" stroke="black" points="297.117,-392.937 287.037,-388.619 293.734,-389.256 290.351,-385.574 290.351,-385.574 290.351,-385.574 293.734,-389.256 293.664,-382.529 297.117,-392.937 297.117,-392.937"/>
</g>
<!-- ndRecvStream&#45;&gt;ndConnection -->
<g id="edge37" class="edge"><title>ndRecvStream&#45;&gt;ndConnection</title>
<path fill="none" stroke="black" d="M440.258,-310.895C443.191,-310.594 446.106,-310.296 449,-310 643.407,-290.124 874.179,-267.317 978.644,-257.036"/>
<polygon fill="black" stroke="black" points="988.653,-256.051 979.142,-261.509 983.677,-256.541 978.701,-257.03 978.701,-257.03 978.701,-257.03 983.677,-256.541 978.261,-252.552 988.653,-256.051 988.653,-256.051"/>
</g>
<!-- ndConnectionIncoming&#45;&gt;ndIncomingConnections -->
<g id="edge38" class="edge"><title>ndConnectionIncoming&#45;&gt;ndIncomingConnections</title>
<path fill="none" stroke="black" d="M1035,-36.0992C1035,-61.348 1035,-108.863 1035,-139.034"/>
<polygon fill="black" stroke="black" points="1035,-149.291 1030.5,-139.291 1035,-144.291 1035,-139.291 1035,-139.291 1035,-139.291 1035,-144.291 1039.5,-139.291 1035,-149.291 1035,-149.291"/>
</g>
<!-- ndConnectionIncoming&#45;&gt;ndEndpoint -->
<g id="edge39" class="edge"><title>ndConnectionIncoming&#45;&gt;ndEndpoint</title>
<path fill="none" stroke="black" d="M1079.66,-36.0683C1102.28,-45.5858 1129.53,-57.527 1151.79,-67.6576"/>
<polygon fill="black" stroke="black" points="1161,-71.8761 1150.04,-71.8022 1156.46,-69.7936 1151.91,-67.7111 1151.91,-67.7111 1151.91,-67.7111 1156.46,-69.7936 1153.78,-63.62 1161,-71.8761 1161,-71.8761"/>
</g>
<!-- ndConnectionIncoming&#45;&gt;ndConnection -->
<g id="edge40" class="edge"><title>ndConnectionIncoming&#45;&gt;ndConnection</title>
<path fill="none" stroke="black" d="M1018.39,-36.2542C997.912,-58.8585 964.187,-100.732 951,-144 944.91,-163.981 941.331,-172.484 951,-191 958.834,-206.002 972.464,-217.938 986.494,-227.014"/>
<polygon fill="black" stroke="black" points="995.233,-232.296 984.347,-230.974 990.954,-229.71 986.675,-227.123 986.675,-227.123 986.675,-227.123 990.954,-229.71 989.003,-223.272 995.233,-232.296 995.233,-232.296"/>
</g>
<!-- ndFilterBenignClose -->
<g id="node22" class="node"><title>ndFilterBenignClose</title>
<text text-anchor="middle" x="2275" y="-661.8" font-family="Times,serif" font-size="14.00">ndFilterBenignClose</text>
</g>
<!-- ndChannelSender -->
<g id="node23" class="node"><title>ndChannelSender</title>
<g id="a_node23_16"><a xlink:href="https://github.com/maidsafe/qp2p/blob/master/src/tests/quinn.rs#:~:text=enum%20ChannelSender" xlink:title="&lt;TABLE&gt;">
<polygon fill="yellow" stroke="none" points="2367,-646.5 2367,-683.5 2498,-683.5 2498,-646.5 2367,-646.5"/>
<polygon fill="none" stroke="black" points="2367,-646.5 2367,-683.5 2498,-683.5 2498,-646.5 2367,-646.5"/>
<text text-anchor="start" x="2378" y="-662.3" font-family="Arial" font-weight="bold" font-size="14.00">ChannelSender</text>
<polygon fill="none" stroke="black" points="2365.5,-646 2365.5,-685 2498.5,-685 2498.5,-646 2365.5,-646"/>
</a>
</g>
</g>
<!-- ndChannelReceiver -->
<g id="node24" class="node"><title>ndChannelReceiver</title>
<g id="a_node24_17"><a xlink:href="https://github.com/maidsafe/qp2p/blob/master/src/tests/quinn.rs#:~:text=enum%20ChannelReceiver" xlink:title="&lt;TABLE&gt;">
<polygon fill="yellow" stroke="none" points="2534,-646.5 2534,-683.5 2675,-683.5 2675,-646.5 2534,-646.5"/>
<polygon fill="none" stroke="black" points="2534,-646.5 2534,-683.5 2675,-683.5 2675,-646.5 2534,-646.5"/>
<text text-anchor="start" x="2545" y="-662.3" font-family="Arial" font-weight="bold" font-size="14.00">ChannelReceiver</text>
<polygon fill="none" stroke="black" points="2532.5,-646 2532.5,-685 2675.5,-685 2675.5,-646 2532.5,-646"/>
</a>
</g>
</g>
<!-- ndPeer -->
<g id="node25" class="node"><title>ndPeer</title>
<text text-anchor="middle" x="2604" y="-578.8" font-family="Times,serif" font-size="14.00">ndPeer</text>
</g>
<!-- ndChannelReceiver&#45;&gt;ndPeer -->
<g id="edge41" class="edge"><title>ndChannelReceiver&#45;&gt;ndPeer</title>
<path fill="none" stroke="black" d="M2604,-641.937C2604,-632.209 2604,-620.751 2604,-610.57"/>
<polygon fill="black" stroke="black" points="2604,-600.548 2608.5,-610.548 2604,-605.548 2604,-610.548 2604,-610.548 2604,-610.548 2604,-605.548 2599.5,-610.548 2604,-600.548 2604,-600.548"/>
</g>
<!-- ndTimeout -->
<g id="node26" class="node"><title>ndTimeout</title>
<g id="a_node26_18"><a xlink:href="https://github.com/maidsafe/qp2p/blob/master/src/tests/common.rs#:~:text=trait%20Timeout" xlink:title="&lt;TABLE&gt;">
<polygon fill="lightgreen" stroke="none" points="2710,-646.5 2710,-683.5 2790,-683.5 2790,-646.5 2710,-646.5"/>
<polygon fill="none" stroke="black" points="2710,-646.5 2710,-683.5 2790,-683.5 2790,-646.5 2710,-646.5"/>
<text text-anchor="start" x="2721" y="-662.3" font-family="Arial" font-weight="bold" font-size="14.00">Timeout</text>
<polygon fill="none" stroke="black" points="2709,-646 2709,-685 2791,-685 2791,-646 2709,-646"/>
</a>
</g>
</g>
<!-- ndConfigError -->
<g id="node27" class="node"><title>ndConfigError</title>
<g id="a_node27_19"><a xlink:href="https://github.com/maidsafe/qp2p/blob/master/src/config.rs#:~:text=enum%20ConfigError" xlink:title="&lt;TABLE&gt;">
<polygon fill="yellow" stroke="none" points="10837,-314.5 10837,-351.5 10942,-351.5 10942,-314.5 10837,-314.5"/>
<polygon fill="none" stroke="black" points="10837,-314.5 10837,-351.5 10942,-351.5 10942,-314.5 10837,-314.5"/>
<text text-anchor="start" x="10848" y="-330.3" font-family="Arial" font-weight="bold" font-size="14.00">ConfigError</text>
<polygon fill="none" stroke="black" points="10835.5,-314 10835.5,-353 10942.5,-353 10942.5,-314 10835.5,-314"/>
</a>
</g>
</g>
<!-- ndConfigError&#45;&gt;ndEndpointError -->
<g id="edge42" class="edge"><title>ndConfigError&#45;&gt;ndEndpointError</title>
<path fill="none" stroke="black" d="M10905.4,-309.937C10911.3,-301.929 10918,-292.749 10924.3,-284.074"/>
<polygon fill="black" stroke="black" points="10924.4,-283.923 10924.7,-276.718 10931.4,-274.223 10931.1,-281.428 10924.4,-283.923"/>
</g>
<!-- ndConfigError&#45;&gt;ndClientEndpointError -->
<g id="edge43" class="edge"><title>ndConfigError&#45;&gt;ndClientEndpointError</title>
<path fill="none" stroke="black" d="M10880.8,-309.697C10870.8,-281.913 10853.8,-234.716 10842.3,-202.606"/>
<polygon fill="black" stroke="black" points="10842.2,-202.401 10836.4,-198.11 10838.1,-191.11 10843.9,-195.402 10842.2,-202.401"/>
</g>
<!-- ndCertificateGenerationError -->
<g id="node28" class="node"><title>ndCertificateGenerationError</title>
<text text-anchor="middle" x="10889" y="-412.8" font-family="Times,serif" font-size="14.00">ndCertificateGenerationError</text>
</g>
<!-- ndCertificateGenerationError&#45;&gt;ndConfigError -->
<g id="edge44" class="edge"><title>ndCertificateGenerationError&#45;&gt;ndConfigError</title>
<path fill="none" stroke="black" d="M10889,-398.322C10889,-389.898 10889,-379.431 10889,-369.427"/>
<polygon fill="black" stroke="black" points="10889,-369.191 10885,-363.191 10889,-357.191 10893,-363.191 10889,-369.191"/>
</g>
<!-- ndConfig -->
<g id="node29" class="node"><title>ndConfig</title>
<text text-anchor="middle" x="5973" y="-246.8" font-family="Times,serif" font-size="14.00">ndConfig</text>
</g>
<!-- ndConfig&#45;&gt;ndEndpoint -->
<g id="edge45" class="edge"><title>ndConfig&#45;&gt;ndEndpoint</title>
<path fill="none" stroke="black" stroke-dasharray="5,2" d="M5938.67,-247.697C5724.22,-236.498 4546.8,-175.873 3586,-144 2645.7,-112.807 1496.84,-95.3224 1244.52,-91.7067"/>
<polygon fill="black" stroke="black" points="1234.21,-91.5594 1244.27,-87.2027 1239.21,-91.6308 1244.21,-91.7023 1244.21,-91.7023 1244.21,-91.7023 1239.21,-91.6308 1244.14,-96.2018 1234.21,-91.5594 1234.21,-91.5594"/>
</g>
<!-- ndInternalConfig -->
<g id="node31" class="node"><title>ndInternalConfig</title>
<text text-anchor="middle" x="6004" y="-163.8" font-family="Times,serif" font-size="14.00">ndInternalConfig</text>
</g>
<!-- ndConfig&#45;&gt;ndInternalConfig -->
<g id="edge46" class="edge"><title>ndConfig&#45;&gt;ndInternalConfig</title>
<path fill="none" stroke="black" stroke-dasharray="5,2" d="M5979.57,-232.322C5983.68,-221.583 5989.06,-207.525 5993.73,-195.337"/>
<polygon fill="black" stroke="black" points="5997.44,-185.653 5998.06,-196.601 5995.65,-190.323 5993.86,-194.993 5993.86,-194.993 5993.86,-194.993 5995.65,-190.323 5989.66,-193.384 5997.44,-185.653 5997.44,-185.653"/>
</g>
<!-- ndRetryConfig -->
<g id="node30" class="node"><title>ndRetryConfig</title>
<g id="a_node30_20"><a xlink:href="https://github.com/maidsafe/qp2p/blob/master/src/config.rs#:~:text=struct%20RetryConfig" xlink:title="&lt;TABLE&gt;">
<polygon fill="lightblue" stroke="none" points="1270,-314.5 1270,-351.5 10801,-351.5 10801,-314.5 1270,-314.5"/>
<polygon fill="none" stroke="black" points="1270,-314.5 1270,-351.5 10801,-351.5 10801,-314.5 1270,-314.5"/>
<text text-anchor="start" x="1281" y="-330.3" font-family="Arial" font-weight="bold" font-size="14.00">pub struct RetryConfig { &#160;&#160;&#160;/// The initial retry interval. &#160;&#160;&#160;/// &#160;&#160;&#160;/// This is the first delay before a retry, for establishing connections and sending messages. &#160;&#160;&#160;/// The subsequent delay will be decided by the `retry_delay_multiplier`. &#160;&#160;&#160;pub initial_retry_interval: Duration, &#160;&#160;&#160;/// The maximum value of the back off period. Once the retry interval reaches this &#160;&#160;&#160;/// value it stops increasing. &#160;&#160;&#160;/// &#160;&#160;&#160;/// This is the longest duration we will have, &#160;&#160;&#160;/// for establishing connections and sending messages. &#160;&#160;&#160;/// Retrying continues even after the duration times have reached this duration. &#160;&#160;&#160;/// The number of retries before that happens, will be decided by the `retry_delay_multiplier`. &#160;&#160;&#160;/// The number of retries after that, will be decided by the `retrying_max_elapsed_time`. &#160;&#160;&#160;pub max_retry_interval: Duration, &#160;&#160;&#160;/// The value to multiply the current interval with for each retry attempt. &#160;&#160;&#160;pub retry_delay_multiplier: f64, &#160;&#160;&#160;/// The randomization factor to use for creating a range around the retry interval. &#160;&#160;&#160;/// &#160;&#160;&#160;/// A randomization factor of 0.5 results in a random period ranging between 50% below and 50% &#160;&#160;&#160;/// above the retry interval. &#160;&#160;&#160;pub retry_delay_rand_factor: f64, &#160;&#160;&#160;/// The maximum elapsed time after instantiating &#160;&#160;&#160;/// &#160;&#160;&#160;/// Retrying continues until this time has elapsed. &#160;&#160;&#160;/// The number of retries before that happens, will be decided by the other retry config options. &#160;&#160;&#160;pub retrying_max_elapsed_time: Duration,}</text>
<polygon fill="none" stroke="black" points="1268.5,-314 1268.5,-353 10801.5,-353 10801.5,-314 1268.5,-314"/>
</a>
</g>
</g>
<!-- ndRetryConfig&#45;&gt;ndEndpoint -->
<g id="edge47" class="edge"><title>ndRetryConfig&#45;&gt;ndEndpoint</title>
<path fill="none" stroke="black" d="M5583.92,-309.997C4472.87,-254.571 1664.06,-114.45 1246.29,-93.6084"/>
<polygon fill="black" stroke="black" points="1246.06,-93.5973 1239.87,-97.2933 1234.08,-92.9993 1240.27,-89.3033 1246.06,-93.5973"/>
</g>
<!-- ndRetryConfig&#45;&gt;ndConnection -->
<g id="edge48" class="edge"><title>ndRetryConfig&#45;&gt;ndConnection</title>
<path fill="none" stroke="black" d="M4645.96,-309.998C3310.75,-288.367 1444.81,-258.139 1093.32,-252.445"/>
<polygon fill="black" stroke="black" points="1093.22,-252.443 1087.15,-256.345 1081.22,-252.249 1087.28,-248.346 1093.22,-252.443"/>
</g>
<!-- ndRetryConfig&#45;&gt;ndConfig -->
<g id="edge49" class="edge"><title>ndRetryConfig&#45;&gt;ndConfig</title>
<path fill="none" stroke="black" d="M6017.73,-309.937C6010.21,-300.107 6001.33,-288.51 5993.47,-278.249"/>
<polygon fill="black" stroke="black" points="5993.34,-278.077 5986.52,-275.744 5986.05,-268.548 5992.87,-270.881 5993.34,-278.077"/>
</g>
<!-- ndRetryConfig&#45;&gt;ndInternalConfig -->
<g id="edge50" class="edge"><title>ndRetryConfig&#45;&gt;ndInternalConfig</title>
<path fill="none" stroke="black" d="M6031.08,-309.833C6027.34,-288.449 6021.49,-255.509 6016,-227 6014.15,-217.411 6012.04,-206.959 6010.11,-197.577"/>
<polygon fill="black" stroke="black" points="6010.07,-197.378 6004.93,-192.317 6007.63,-185.629 6012.76,-190.69 6010.07,-197.378"/>
</g>
<!-- ndIgdError -->
<g id="node32" class="node"><title>ndIgdError</title>
<g id="a_node32_21"><a xlink:href="https://github.com/maidsafe/qp2p/blob/master/src/igd.rs#:~:text=enum%20IgdError" xlink:title="&lt;TABLE&gt;">
<polygon fill="yellow" stroke="none" points="11172,-397.5 11172,-434.5 11253,-434.5 11253,-397.5 11172,-397.5"/>
<polygon fill="none" stroke="black" points="11172,-397.5 11172,-434.5 11253,-434.5 11253,-397.5 11172,-397.5"/>
<text text-anchor="start" x="11183" y="-413.3" font-family="Arial" font-weight="bold" font-size="14.00">IgdError</text>
<polygon fill="none" stroke="black" points="11170.5,-397 11170.5,-436 11253.5,-436 11253.5,-397 11170.5,-397"/>
</a>
</g>
</g>
<!-- ndIgdError&#45;&gt;ndEndpointError -->
<g id="edge51" class="edge"><title>ndIgdError&#45;&gt;ndEndpointError</title>
<path fill="none" stroke="black" stroke-dasharray="5,2" d="M11261.5,-398.238C11280.2,-389.053 11299.4,-375.696 11310,-357 11320.3,-338.834 11323.5,-325.905 11310,-310 11274.6,-268.375 11123.7,-256.271 11028.3,-252.812"/>
<polygon fill="black" stroke="black" points="11018.1,-252.468 11028.3,-248.308 11023.1,-252.637 11028.1,-252.805 11028.1,-252.805 11028.1,-252.805 11023.1,-252.637 11028,-257.303 11018.1,-252.468 11018.1,-252.468"/>
</g>
<!-- ndIgdError&#45;&gt;ndUpnpError -->
<g id="edge52" class="edge"><title>ndIgdError&#45;&gt;ndUpnpError</title>
<path fill="none" stroke="black" d="M11190.6,-392.937C11182.6,-384.581 11173.5,-374.949 11164.9,-365.946"/>
<polygon fill="black" stroke="black" points="11164.9,-365.92 11157.8,-364.328 11156.6,-357.223 11163.6,-358.816 11164.9,-365.92"/>
</g>
</g>
</svg>
