<?xml version="1.0" encoding="UTF-8" standalone="no"?>
<!DOCTYPE svg PUBLIC "-//W3C//DTD SVG 1.1//EN"
 "http://www.w3.org/Graphics/SVG/1.1/DTD/svg11.dtd">
<!-- Generated by graphviz version 2.38.0 (20140413.2041)
 -->
<!-- Title: ml Pages: 1 -->
<svg width="1110pt" height="719pt"
 viewBox="0.00 0.00 1110.02 719.00" xmlns="http://www.w3.org/2000/svg" xmlns:xlink="http://www.w3.org/1999/xlink">
<g id="graph0" class="graph" transform="scale(1 1) rotate(0) translate(4 715)">
<title>ml</title>
<polygon fill="white" stroke="none" points="-4,4 -4,-715 1106.02,-715 1106.02,4 -4,4"/>
<!-- ndWireMsg -->
<g id="node1" class="node"><title>ndWireMsg</title>
<g id="a_node1_0"><a xlink:href="https://github.com/maidsafe/qp2p/blob/master/src/wire_msg.rs#:~:text=enum%20WireMsg" xlink:title="&lt;TABLE&gt;">
<polygon fill="yellow" stroke="none" points="76,-419.5 76,-456.5 159,-456.5 159,-419.5 76,-419.5"/>
<polygon fill="none" stroke="black" points="76,-419.5 76,-456.5 159,-456.5 159,-419.5 76,-419.5"/>
<text text-anchor="start" x="87" y="-435.3" font-family="Arial" font-weight="bold" font-size="14.00">WireMsg</text>
<polygon fill="none" stroke="black" points="74.5,-419 74.5,-458 159.5,-458 159.5,-419 74.5,-419"/>
</a>
</g>
</g>
<!-- ndSendStream -->
<g id="node19" class="node"><title>ndSendStream</title>
<g id="a_node19_1"><a xlink:href="https://github.com/maidsafe/qp2p/blob/master/src/connection.rs#:~:text=struct%20SendStream" xlink:title="&lt;TABLE&gt;">
<polygon fill="lightblue" stroke="none" points="217,-336.5 217,-373.5 325,-373.5 325,-336.5 217,-336.5"/>
<polygon fill="none" stroke="black" points="217,-336.5 217,-373.5 325,-373.5 325,-336.5 217,-336.5"/>
<text text-anchor="start" x="228" y="-352.3" font-family="Arial" font-weight="bold" font-size="14.00">SendStream</text>
<polygon fill="none" stroke="black" points="216,-336 216,-375 326,-375 326,-336 216,-336"/>
</a>
</g>
</g>
<!-- ndWireMsg&#45;&gt;ndSendStream -->
<g id="edge1" class="edge"><title>ndWireMsg&#45;&gt;ndSendStream</title>
<path fill="none" stroke="black" stroke-dasharray="5,2" d="M153.774,-414.937C171.496,-405.235 193.117,-393.812 212.966,-383.651"/>
<polygon fill="black" stroke="black" points="221.941,-379.082 215.071,-387.629 217.485,-381.351 213.029,-383.619 213.029,-383.619 213.029,-383.619 217.485,-381.351 210.988,-379.609 221.941,-379.082 221.941,-379.082"/>
</g>
<!-- ndRecvStream -->
<g id="node20" class="node"><title>ndRecvStream</title>
<g id="a_node20_2"><a xlink:href="https://github.com/maidsafe/qp2p/blob/master/src/connection.rs#:~:text=struct%20RecvStream" xlink:title="&lt;TABLE&gt;">
<polygon fill="lightblue" stroke="none" points="64,-336.5 64,-373.5 171,-373.5 171,-336.5 64,-336.5"/>
<polygon fill="none" stroke="black" points="64,-336.5 64,-373.5 171,-373.5 171,-336.5 64,-336.5"/>
<text text-anchor="start" x="75" y="-352.3" font-family="Arial" font-weight="bold" font-size="14.00">RecvStream</text>
<polygon fill="none" stroke="black" points="62.5,-336 62.5,-375 171.5,-375 171.5,-336 62.5,-336"/>
</a>
</g>
</g>
<!-- ndWireMsg&#45;&gt;ndRecvStream -->
<g id="edge2" class="edge"><title>ndWireMsg&#45;&gt;ndRecvStream</title>
<path fill="none" stroke="black" d="M110.877,-414.937C110.285,-407.016 110.113,-397.949 110.358,-389.357"/>
<polygon fill="black" stroke="black" points="110.865,-379.223 114.86,-389.435 110.615,-384.217 110.365,-389.21 110.365,-389.21 110.365,-389.21 110.615,-384.217 105.871,-388.986 110.865,-379.223 110.865,-379.223"/>
</g>
<!-- ndMsgHeader -->
<g id="node2" class="node"><title>ndMsgHeader</title>
<g id="a_node2_3"><a xlink:href="https://github.com/maidsafe/qp2p/blob/master/src/wire_msg.rs#:~:text=struct%20MsgHeader" xlink:title="&lt;TABLE&gt;">
<polygon fill="lightblue" stroke="none" points="195,-419.5 195,-456.5 297,-456.5 297,-419.5 195,-419.5"/>
<polygon fill="none" stroke="black" points="195,-419.5 195,-456.5 297,-456.5 297,-419.5 195,-419.5"/>
<text text-anchor="start" x="206" y="-435.3" font-family="Arial" font-weight="bold" font-size="14.00">MsgHeader</text>
<polygon fill="none" stroke="black" points="194,-419 194,-458 298,-458 298,-419 194,-419"/>
</a>
</g>
</g>
<!-- ndIncomingConnections -->
<g id="node3" class="node"><title>ndIncomingConnections</title>
<g id="a_node3_4"><a xlink:href="https://github.com/maidsafe/qp2p/blob/master/src/endpoint.rs#:~:text=struct%20IncomingConnections" xlink:title="&lt;TABLE&gt;">
<polygon fill="lightblue" stroke="none" points="184,-170.5 184,-207.5 360,-207.5 360,-170.5 184,-170.5"/>
<polygon fill="none" stroke="black" points="184,-170.5 184,-207.5 360,-207.5 360,-170.5 184,-170.5"/>
<text text-anchor="start" x="195" y="-186.3" font-family="Arial" font-weight="bold" font-size="14.00">IncomingConnections</text>
<polygon fill="none" stroke="black" points="183,-170 183,-209 361,-209 361,-170 183,-170"/>
</a>
</g>
</g>
<!-- ndEndpoint -->
<g id="node4" class="node"><title>ndEndpoint</title>
<g id="a_node4_5"><a xlink:href="https://github.com/maidsafe/qp2p/blob/master/src/endpoint.rs#:~:text=struct%20Endpoint" xlink:title="&lt;TABLE&gt;">
<polygon fill="lightblue" stroke="none" points="410,-87.5 410,-124.5 496,-124.5 496,-87.5 410,-87.5"/>
<polygon fill="none" stroke="black" points="410,-87.5 410,-124.5 496,-124.5 496,-87.5 410,-87.5"/>
<text text-anchor="start" x="421" y="-103.3" font-family="Arial" font-weight="bold" font-size="14.00">Endpoint</text>
<polygon fill="none" stroke="black" points="409,-87 409,-126 497,-126 497,-87 409,-87"/>
</a>
</g>
</g>
<!-- ndIncomingConnections&#45;&gt;ndEndpoint -->
<g id="edge3" class="edge"><title>ndIncomingConnections&#45;&gt;ndEndpoint</title>
<path fill="none" stroke="black" d="M322.419,-165.937C344.391,-156.104 370.314,-144.503 393.247,-134.24"/>
<polygon fill="black" stroke="black" points="402.538,-130.082 395.249,-138.275 397.974,-132.125 393.41,-134.167 393.41,-134.167 393.41,-134.167 397.974,-132.125 391.572,-130.06 402.538,-130.082 402.538,-130.082"/>
</g>
<!-- ndConnection -->
<g id="node18" class="node"><title>ndConnection</title>
<g id="a_node18_6"><a xlink:href="https://github.com/maidsafe/qp2p/blob/master/src/connection.rs#:~:text=struct%20Connection" xlink:title="&lt;TABLE&gt;">
<polygon fill="lightblue" stroke="none" points="312,-253.5 312,-290.5 415,-290.5 415,-253.5 312,-253.5"/>
<polygon fill="none" stroke="black" points="312,-253.5 312,-290.5 415,-290.5 415,-253.5 312,-253.5"/>
<text text-anchor="start" x="323" y="-269.3" font-family="Arial" font-weight="bold" font-size="14.00">Connection</text>
<polygon fill="none" stroke="black" points="310.5,-253 310.5,-292 415.5,-292 415.5,-253 310.5,-253"/>
</a>
</g>
</g>
<!-- ndEndpoint&#45;&gt;ndConnection -->
<g id="edge4" class="edge"><title>ndEndpoint&#45;&gt;ndConnection</title>
<path fill="none" stroke="black" stroke-dasharray="5,2" d="M445.421,-130.11C432.092,-158.656 405.263,-207.918 385.675,-240.103"/>
<polygon fill="black" stroke="black" points="380.359,-248.697 381.793,-237.825 382.989,-244.444 385.62,-240.192 385.62,-240.192 385.62,-240.192 382.989,-244.444 389.447,-242.559 380.359,-248.697 380.359,-248.697"/>
</g>
<!-- ndConnectionIncoming -->
<g id="node21" class="node"><title>ndConnectionIncoming</title>
<g id="a_node21_7"><a xlink:href="https://github.com/maidsafe/qp2p/blob/master/src/connection.rs#:~:text=struct%20ConnectionIncoming" xlink:title="&lt;TABLE&gt;">
<polygon fill="lightblue" stroke="none" points="189,-4.5 189,-41.5 356,-41.5 356,-4.5 189,-4.5"/>
<polygon fill="none" stroke="black" points="189,-4.5 189,-41.5 356,-41.5 356,-4.5 189,-4.5"/>
<text text-anchor="start" x="200" y="-20.3" font-family="Arial" font-weight="bold" font-size="14.00">ConnectionIncoming</text>
<polygon fill="none" stroke="black" points="187.5,-4 187.5,-43 356.5,-43 356.5,-4 187.5,-4"/>
</a>
</g>
</g>
<!-- ndEndpoint&#45;&gt;ndConnectionIncoming -->
<g id="edge5" class="edge"><title>ndEndpoint&#45;&gt;ndConnectionIncoming</title>
<path fill="none" stroke="black" stroke-dasharray="5,2" d="M400.887,-84.8507C377.272,-74.6715 349.417,-62.2696 325.627,-51.362"/>
<polygon fill="black" stroke="black" points="316.388,-47.1059 327.353,-47.2026 320.929,-49.1979 325.471,-51.2899 325.471,-51.2899 325.471,-51.2899 320.929,-49.1979 323.588,-55.3771 316.388,-47.1059 316.388,-47.1059"/>
</g>
<!-- ndEndpointError -->
<g id="node5" class="node"><title>ndEndpointError</title>
<g id="a_node5_8"><a xlink:href="https://github.com/maidsafe/qp2p/blob/master/src/error.rs#:~:text=enum%20EndpointError" xlink:title="&lt;TABLE&gt;">
<polygon fill="yellow" stroke="none" points="939,-170.5 939,-207.5 1061,-207.5 1061,-170.5 939,-170.5"/>
<polygon fill="none" stroke="black" points="939,-170.5 939,-207.5 1061,-207.5 1061,-170.5 939,-170.5"/>
<text text-anchor="start" x="950" y="-186.3" font-family="Arial" font-weight="bold" font-size="14.00">EndpointError</text>
<polygon fill="none" stroke="black" points="938,-170 938,-209 1062,-209 1062,-170 938,-170"/>
</a>
</g>
</g>
<!-- ndEndpointError&#45;&gt;ndEndpoint -->
<g id="edge6" class="edge"><title>ndEndpointError&#45;&gt;ndEndpoint</title>
<path fill="none" stroke="black" d="M929.926,-167.94C926.919,-167.249 923.935,-166.598 921,-166 777.107,-136.695 605.146,-119.74 515.058,-112.212"/>
<polygon fill="black" stroke="black" points="505.014,-111.384 515.35,-107.721 509.997,-111.795 514.98,-112.206 514.98,-112.206 514.98,-112.206 509.997,-111.795 514.61,-116.691 505.014,-111.384 505.014,-111.384"/>
</g>
<!-- ndClientEndpointError -->
<g id="node6" class="node"><title>ndClientEndpointError</title>
<g id="a_node6_9"><a xlink:href="https://github.com/maidsafe/qp2p/blob/master/src/error.rs#:~:text=enum%20ClientEndpointError" xlink:title="&lt;TABLE&gt;">
<polygon fill="yellow" stroke="none" points="741,-170.5 741,-207.5 903,-207.5 903,-170.5 741,-170.5"/>
<polygon fill="none" stroke="black" points="741,-170.5 741,-207.5 903,-207.5 903,-170.5 741,-170.5"/>
<text text-anchor="start" x="752" y="-186.3" font-family="Arial" font-weight="bold" font-size="14.00">ClientEndpointError</text>
<polygon fill="none" stroke="black" points="740,-170 740,-209 904,-209 904,-170 740,-170"/>
</a>
</g>
</g>
<!-- ndClientEndpointError&#45;&gt;ndEndpoint -->
<g id="edge7" class="edge"><title>ndClientEndpointError&#45;&gt;ndEndpoint</title>
<path fill="none" stroke="black" d="M731.732,-168.685C664.467,-153.92 574.359,-134.14 515.042,-121.119"/>
<polygon fill="black" stroke="black" points="505.067,-118.929 515.799,-116.678 509.951,-120.001 514.834,-121.073 514.834,-121.073 514.834,-121.073 509.951,-120.001 513.87,-125.469 505.067,-118.929 505.067,-118.929"/>
</g>
<!-- ndConnectionError -->
<g id="node7" class="node"><title>ndConnectionError</title>
<g id="a_node7_10"><a xlink:href="https://github.com/maidsafe/qp2p/blob/master/src/error.rs#:~:text=enum%20ConnectionError" xlink:title="&lt;TABLE&gt;">
<polygon fill="yellow" stroke="none" points="416,-585.5 416,-622.5 556,-622.5 556,-585.5 416,-585.5"/>
<polygon fill="none" stroke="black" points="416,-585.5 416,-622.5 556,-622.5 556,-585.5 416,-585.5"/>
<text text-anchor="start" x="427" y="-601.3" font-family="Arial" font-weight="bold" font-size="14.00">ConnectionError</text>
<polygon fill="none" stroke="black" points="415,-585 415,-624 557,-624 557,-585 415,-585"/>
</a>
</g>
</g>
<!-- ndConnectionError&#45;&gt;ndEndpoint -->
<g id="edge8" class="edge"><title>ndConnectionError&#45;&gt;ndEndpoint</title>
<path fill="none" stroke="black" d="M565.068,-598.897C730.51,-587.096 1098,-548.605 1098,-439.5 1098,-439.5 1098,-439.5 1098,-271.5 1098,-223.857 1114.09,-198.227 1079,-166 1038.05,-128.393 665.795,-113.593 515.502,-109.117"/>
<polygon fill="black" stroke="black" points="505.073,-108.812 515.2,-104.606 510.071,-108.958 515.068,-109.104 515.068,-109.104 515.068,-109.104 510.071,-108.958 514.937,-113.602 505.073,-108.812 505.073,-108.812"/>
</g>
<!-- ndRpcError -->
<g id="node11" class="node"><title>ndRpcError</title>
<g id="a_node11_11"><a xlink:href="https://github.com/maidsafe/qp2p/blob/master/src/error.rs#:~:text=enum%20RpcError" xlink:title="&lt;TABLE&gt;">
<polygon fill="yellow" stroke="none" points="409,-419.5 409,-456.5 495,-456.5 495,-419.5 409,-419.5"/>
<polygon fill="none" stroke="black" points="409,-419.5 409,-456.5 495,-456.5 495,-419.5 409,-419.5"/>
<text text-anchor="start" x="420" y="-435.3" font-family="Arial" font-weight="bold" font-size="14.00">RpcError</text>
<polygon fill="none" stroke="black" points="408,-419 408,-458 496,-458 496,-419 408,-419"/>
</a>
</g>
</g>
<!-- ndConnectionError&#45;&gt;ndRpcError -->
<g id="edge9" class="edge"><title>ndConnectionError&#45;&gt;ndRpcError</title>
<path fill="none" stroke="black" stroke-dasharray="5,2" d="M481.272,-580.697C475.411,-552.424 465.382,-504.047 458.722,-471.923"/>
<polygon fill="black" stroke="black" points="456.687,-462.11 463.124,-470.988 457.702,-467.006 458.717,-471.902 458.717,-471.902 458.717,-471.902 457.702,-467.006 454.311,-472.815 456.687,-462.11 456.687,-462.11"/>
</g>
<!-- ndSendError -->
<g id="node12" class="node"><title>ndSendError</title>
<g id="a_node12_12"><a xlink:href="https://github.com/maidsafe/qp2p/blob/master/src/error.rs#:~:text=enum%20SendError" xlink:title="&lt;TABLE&gt;">
<polygon fill="yellow" stroke="none" points="273,-502.5 273,-539.5 368,-539.5 368,-502.5 273,-502.5"/>
<polygon fill="none" stroke="black" points="273,-502.5 273,-539.5 368,-539.5 368,-502.5 273,-502.5"/>
<text text-anchor="start" x="284" y="-518.3" font-family="Arial" font-weight="bold" font-size="14.00">SendError</text>
<polygon fill="none" stroke="black" points="271.5,-502 271.5,-541 368.5,-541 368.5,-502 271.5,-502"/>
</a>
</g>
</g>
<!-- ndConnectionError&#45;&gt;ndSendError -->
<g id="edge10" class="edge"><title>ndConnectionError&#45;&gt;ndSendError</title>
<path fill="none" stroke="black" stroke-dasharray="5,2" d="M439.76,-580.937C420.414,-571.497 397.73,-560.428 377.337,-550.478"/>
<polygon fill="black" stroke="black" points="377.065,-550.345 369.918,-551.308 366.28,-545.082 373.426,-544.119 377.065,-550.345"/>
</g>
<!-- ndRecvError -->
<g id="node13" class="node"><title>ndRecvError</title>
<g id="a_node13_13"><a xlink:href="https://github.com/maidsafe/qp2p/blob/master/src/error.rs#:~:text=enum%20RecvError" xlink:title="&lt;TABLE&gt;">
<polygon fill="yellow" stroke="none" points="97,-502.5 97,-539.5 191,-539.5 191,-502.5 97,-502.5"/>
<polygon fill="none" stroke="black" points="97,-502.5 97,-539.5 191,-539.5 191,-502.5 97,-502.5"/>
<text text-anchor="start" x="108" y="-518.3" font-family="Arial" font-weight="bold" font-size="14.00">RecvError</text>
<polygon fill="none" stroke="black" points="96,-502 96,-541 192,-541 192,-502 96,-502"/>
</a>
</g>
</g>
<!-- ndConnectionError&#45;&gt;ndRecvError -->
<g id="edge11" class="edge"><title>ndConnectionError&#45;&gt;ndRecvError</title>
<path fill="none" stroke="black" stroke-dasharray="5,2" d="M406.922,-583.419C403.571,-582.597 400.253,-581.787 397,-581 334.529,-565.883 263.171,-549.459 212.2,-537.874"/>
<polygon fill="black" stroke="black" points="212.052,-537.84 205.315,-540.412 200.35,-535.183 207.086,-532.611 212.052,-537.84"/>
</g>
<!-- ndConnectionError&#45;&gt;ndConnection -->
<g id="edge12" class="edge"><title>ndConnectionError&#45;&gt;ndConnection</title>
<path fill="none" stroke="black" d="M496.796,-580.707C512.472,-544.194 537.161,-471.006 513,-415 491.995,-366.309 445.078,-326.591 409.268,-301.764"/>
<polygon fill="black" stroke="black" points="400.889,-296.083 411.691,-297.97 405.027,-298.889 409.166,-301.695 409.166,-301.695 409.166,-301.695 405.027,-298.889 406.641,-305.419 400.889,-296.083 400.889,-296.083"/>
</g>
<!-- ndInternalConfigError -->
<g id="node8" class="node"><title>ndInternalConfigError</title>
<g id="a_node8_14"><a xlink:href="https://github.com/maidsafe/qp2p/blob/master/src/error.rs#:~:text=struct%20InternalConfigError" xlink:title="&lt;TABLE&gt;">
<polygon fill="lightblue" stroke="none" points="351,-668.5 351,-705.5 509,-705.5 509,-668.5 351,-668.5"/>
<polygon fill="none" stroke="black" points="351,-668.5 351,-705.5 509,-705.5 509,-668.5 351,-668.5"/>
<text text-anchor="start" x="362" y="-684.3" font-family="Arial" font-weight="bold" font-size="14.00">InternalConfigError</text>
<polygon fill="none" stroke="black" points="350,-668 350,-707 510,-707 510,-668 350,-668"/>
</a>
</g>
</g>
<!-- ndInternalConfigError&#45;&gt;ndConnectionError -->
<g id="edge13" class="edge"><title>ndInternalConfigError&#45;&gt;ndConnectionError</title>
<path fill="none" stroke="black" d="M445.599,-663.937C451.075,-656.016 457.344,-646.949 463.284,-638.357"/>
<polygon fill="black" stroke="black" points="463.466,-638.094 463.588,-630.884 470.29,-628.223 470.168,-635.433 463.466,-638.094"/>
</g>
<!-- ndClose -->
<g id="node9" class="node"><title>ndClose</title>
<g id="a_node9_15"><a xlink:href="https://github.com/maidsafe/qp2p/blob/master/src/error.rs#:~:text=enum%20Close" xlink:title="&lt;TABLE&gt;">
<polygon fill="yellow" stroke="none" points="545,-668.5 545,-705.5 607,-705.5 607,-668.5 545,-668.5"/>
<polygon fill="none" stroke="black" points="545,-668.5 545,-705.5 607,-705.5 607,-668.5 545,-668.5"/>
<text text-anchor="start" x="556" y="-684.3" font-family="Arial" font-weight="bold" font-size="14.00">Close</text>
<polygon fill="none" stroke="black" points="544,-668 544,-707 608,-707 608,-668 544,-668"/>
</a>
</g>
</g>
<!-- ndClose&#45;&gt;ndConnectionError -->
<g id="edge14" class="edge"><title>ndClose&#45;&gt;ndConnectionError</title>
<path fill="none" stroke="black" d="M550.93,-663.937C541.452,-655.407 530.497,-645.547 520.315,-636.384"/>
<polygon fill="black" stroke="black" points="520.167,-636.251 513.032,-635.21 511.248,-628.223 518.383,-629.264 520.167,-636.251"/>
</g>
<!-- ndTransportErrorCode -->
<g id="node10" class="node"><title>ndTransportErrorCode</title>
<g id="a_node10_16"><a xlink:href="https://github.com/maidsafe/qp2p/blob/master/src/error.rs#:~:text=struct%20TransportErrorCode" xlink:title="&lt;TABLE&gt;">
<polygon fill="lightblue" stroke="none" points="644,-668.5 644,-705.5 809,-705.5 809,-668.5 644,-668.5"/>
<polygon fill="none" stroke="black" points="644,-668.5 644,-705.5 809,-705.5 809,-668.5 644,-668.5"/>
<text text-anchor="start" x="655" y="-684.3" font-family="Arial" font-weight="bold" font-size="14.00">TransportErrorCode</text>
<polygon fill="none" stroke="black" points="642.5,-668 642.5,-707 809.5,-707 809.5,-668 642.5,-668"/>
</a>
</g>
</g>
<!-- ndRpcError&#45;&gt;ndEndpoint -->
<g id="edge15" class="edge"><title>ndRpcError&#45;&gt;ndEndpoint</title>
<path fill="none" stroke="black" d="M452.069,-414.818C452.242,-357.711 452.696,-207.788 452.899,-140.738"/>
<polygon fill="black" stroke="black" points="452.931,-130.341 457.4,-140.355 452.916,-135.341 452.9,-140.341 452.9,-140.341 452.9,-140.341 452.916,-135.341 448.4,-140.327 452.931,-130.341 452.931,-130.341"/>
</g>
<!-- ndSendError&#45;&gt;ndWireMsg -->
<g id="edge16" class="edge"><title>ndSendError&#45;&gt;ndWireMsg</title>
<path fill="none" stroke="black" d="M263.453,-497.937C236.588,-487.217 204.457,-474.397 177.145,-463.499"/>
<polygon fill="black" stroke="black" points="167.702,-459.731 178.657,-459.257 172.346,-461.584 176.99,-463.437 176.99,-463.437 176.99,-463.437 172.346,-461.584 175.322,-467.616 167.702,-459.731 167.702,-459.731"/>
</g>
<!-- ndSendError&#45;&gt;ndMsgHeader -->
<g id="edge17" class="edge"><title>ndSendError&#45;&gt;ndMsgHeader</title>
<path fill="none" stroke="black" d="M299.387,-497.937C291.435,-489.233 282.218,-479.144 273.703,-469.824"/>
<polygon fill="black" stroke="black" points="266.759,-462.223 276.826,-466.571 270.132,-465.914 273.504,-469.606 273.504,-469.606 273.504,-469.606 270.132,-465.914 270.182,-472.641 266.759,-462.223 266.759,-462.223"/>
</g>
<!-- ndSendError&#45;&gt;ndRpcError -->
<g id="edge18" class="edge"><title>ndSendError&#45;&gt;ndRpcError</title>
<path fill="none" stroke="black" d="M356.769,-497.937C371.521,-488.885 388.714,-478.335 404.4,-468.709"/>
<polygon fill="black" stroke="black" points="404.742,-468.499 407.764,-461.952 414.97,-462.223 411.948,-468.77 404.742,-468.499"/>
</g>
<!-- ndSendError&#45;&gt;ndConnection -->
<g id="edge19" class="edge"><title>ndSendError&#45;&gt;ndConnection</title>
<path fill="none" stroke="black" d="M325.889,-497.814C328.574,-487.013 331.667,-473.887 334,-462 344.62,-407.883 353.696,-344.392 358.743,-306.633"/>
<polygon fill="black" stroke="black" points="360.117,-296.237 363.268,-306.741 359.462,-301.194 358.806,-306.151 358.806,-306.151 358.806,-306.151 359.462,-301.194 354.345,-305.561 360.117,-296.237 360.117,-296.237"/>
</g>
<!-- ndSendError&#45;&gt;ndSendStream -->
<g id="edge20" class="edge"><title>ndSendError&#45;&gt;ndSendStream</title>
<path fill="none" stroke="black" d="M322.684,-497.937C324.43,-476.053 324.828,-442.254 315,-415 311.443,-405.137 305.609,-395.556 299.335,-387.099"/>
<polygon fill="black" stroke="black" points="292.983,-379.048 302.71,-384.111 296.08,-382.973 299.177,-386.898 299.177,-386.898 299.177,-386.898 296.08,-382.973 295.644,-389.686 292.983,-379.048 292.983,-379.048"/>
</g>
<!-- ndRecvError&#45;&gt;ndWireMsg -->
<g id="edge21" class="edge"><title>ndRecvError&#45;&gt;ndWireMsg</title>
<path fill="none" stroke="black" d="M136.479,-497.937C133.781,-489.842 130.683,-480.55 127.764,-471.792"/>
<polygon fill="black" stroke="black" points="124.574,-462.223 132.006,-470.287 126.155,-466.966 127.737,-471.71 127.737,-471.71 127.737,-471.71 126.155,-466.966 123.468,-473.133 124.574,-462.223 124.574,-462.223"/>
</g>
<!-- ndRecvError&#45;&gt;ndRpcError -->
<g id="edge22" class="edge"><title>ndRecvError&#45;&gt;ndRpcError</title>
<path fill="none" stroke="black" d="M200.134,-505.738C253.155,-491.794 332.604,-470.9 388.048,-456.319"/>
<polygon fill="black" stroke="black" points="388.239,-456.268 393.025,-450.874 399.845,-453.216 395.059,-458.611 388.239,-456.268"/>
</g>
<!-- ndRecvError&#45;&gt;ndRecvStream -->
<g id="edge23" class="edge"><title>ndRecvError&#45;&gt;ndRecvStream</title>
<path fill="none" stroke="black" d="M92.7811,-497.723C78.6152,-488.746 64.9576,-476.94 57,-462 47.18,-443.563 48.8842,-434.248 57,-415 61.5466,-404.217 69.1597,-394.435 77.4634,-386.089"/>
<polygon fill="black" stroke="black" points="84.8786,-379.135 80.6622,-389.258 81.2313,-382.555 77.5841,-385.976 77.5841,-385.976 77.5841,-385.976 81.2313,-382.555 74.5059,-382.693 84.8786,-379.135 84.8786,-379.135"/>
</g>
<!-- ndRecvError&#45;&gt;ndConnectionIncoming -->
<g id="edge24" class="edge"><title>ndRecvError&#45;&gt;ndConnectionIncoming</title>
<path fill="none" stroke="black" d="M93.8443,-497.943C77.3173,-488.645 59.8903,-476.591 47,-462 13.014,-423.531 0,-407.831 0,-356.5 0,-356.5 0,-356.5 0,-188.5 0,-106.272 92.2939,-64.1928 169.358,-43.3901"/>
<polygon fill="black" stroke="black" points="179.154,-40.8362 170.613,-47.7135 174.316,-42.0976 169.477,-43.359 169.477,-43.359 169.477,-43.359 174.316,-42.0976 168.342,-39.0046 179.154,-40.8362 179.154,-40.8362"/>
</g>
<!-- ndSerializationError -->
<g id="node14" class="node"><title>ndSerializationError</title>
<g id="a_node14_17"><a xlink:href="https://github.com/maidsafe/qp2p/blob/master/src/error.rs#:~:text=struct%20SerializationError" xlink:title="&lt;TABLE&gt;">
<polygon fill="lightblue" stroke="none" points="235,-585.5 235,-622.5 380,-622.5 380,-585.5 235,-585.5"/>
<polygon fill="none" stroke="black" points="235,-585.5 235,-622.5 380,-622.5 380,-585.5 235,-585.5"/>
<text text-anchor="start" x="246" y="-601.3" font-family="Arial" font-weight="bold" font-size="14.00">SerializationError</text>
<polygon fill="none" stroke="black" points="233.5,-585 233.5,-624 380.5,-624 380.5,-585 233.5,-585"/>
</a>
</g>
</g>
<!-- ndSerializationError&#45;&gt;ndSendError -->
<g id="edge25" class="edge"><title>ndSerializationError&#45;&gt;ndSendError</title>
<path fill="none" stroke="black" d="M310.621,-580.937C311.795,-573.626 313.125,-565.337 314.407,-557.348"/>
<polygon fill="black" stroke="black" points="314.451,-557.071 311.453,-550.513 316.353,-545.223 319.352,-551.781 314.451,-557.071"/>
</g>
<!-- ndSerializationError&#45;&gt;ndRecvError -->
<g id="edge26" class="edge"><title>ndSerializationError&#45;&gt;ndRecvError</title>
<path fill="none" stroke="black" d="M261.595,-580.937C242.599,-571.497 220.325,-560.428 200.301,-550.478"/>
<polygon fill="black" stroke="black" points="200.19,-550.423 193.037,-551.335 189.444,-545.082 196.597,-544.17 200.19,-550.423"/>
</g>
<!-- ndStreamError -->
<g id="node15" class="node"><title>ndStreamError</title>
<g id="a_node15_18"><a xlink:href="https://github.com/maidsafe/qp2p/blob/master/src/error.rs#:~:text=enum%20StreamError" xlink:title="&lt;TABLE&gt;">
<polygon fill="yellow" stroke="none" points="90,-585.5 90,-622.5 199,-622.5 199,-585.5 90,-585.5"/>
<polygon fill="none" stroke="black" points="90,-585.5 90,-622.5 199,-622.5 199,-585.5 90,-585.5"/>
<text text-anchor="start" x="101" y="-601.3" font-family="Arial" font-weight="bold" font-size="14.00">StreamError</text>
<polygon fill="none" stroke="black" points="88.5,-585 88.5,-624 199.5,-624 199.5,-585 88.5,-585"/>
</a>
</g>
</g>
<!-- ndStreamError&#45;&gt;ndSendError -->
<g id="edge27" class="edge"><title>ndStreamError&#45;&gt;ndSendError</title>
<path fill="none" stroke="black" d="M193.026,-580.937C213.727,-571.41 238.034,-560.223 259.809,-550.202"/>
<polygon fill="black" stroke="black" points="260.031,-550.099 263.809,-543.957 270.932,-545.082 267.154,-551.224 260.031,-550.099"/>
</g>
<!-- ndStreamError&#45;&gt;ndRecvError -->
<g id="edge28" class="edge"><title>ndStreamError&#45;&gt;ndRecvError</title>
<path fill="none" stroke="black" d="M144,-580.937C144,-573.626 144,-565.337 144,-557.348"/>
<polygon fill="black" stroke="black" points="144,-557.223 140,-551.223 144,-545.223 148,-551.223 144,-557.223"/>
</g>
<!-- ndUnsupportedStreamOperation -->
<g id="node16" class="node"><title>ndUnsupportedStreamOperation</title>
<g id="a_node16_19"><a xlink:href="https://github.com/maidsafe/qp2p/blob/master/src/error.rs#:~:text=struct%20UnsupportedStreamOperation" xlink:title="&lt;TABLE&gt;">
<polygon fill="lightblue" stroke="none" points="28,-668.5 28,-705.5 260,-705.5 260,-668.5 28,-668.5"/>
<polygon fill="none" stroke="black" points="28,-668.5 28,-705.5 260,-705.5 260,-668.5 28,-668.5"/>
<text text-anchor="start" x="39" y="-684.3" font-family="Arial" font-weight="bold" font-size="14.00">UnsupportedStreamOperation</text>
<polygon fill="none" stroke="black" points="27,-668 27,-707 261,-707 261,-668 27,-668"/>
</a>
</g>
</g>
<!-- ndUnsupportedStreamOperation&#45;&gt;ndStreamError -->
<g id="edge29" class="edge"><title>ndUnsupportedStreamOperation&#45;&gt;ndStreamError</title>
<path fill="none" stroke="black" d="M144,-663.937C144,-656.626 144,-648.337 144,-640.348"/>
<polygon fill="black" stroke="black" points="144,-640.223 140,-634.223 144,-628.223 148,-634.223 144,-640.223"/>
</g>
<!-- ndUpnpError -->
<g id="node17" class="node"><title>ndUpnpError</title>
<g id="a_node17_20"><a xlink:href="https://github.com/maidsafe/qp2p/blob/master/src/error.rs#:~:text=struct%20UpnpError" xlink:title="&lt;TABLE&gt;">
<polygon fill="lightblue" stroke="none" points="927,-253.5 927,-290.5 1023,-290.5 1023,-253.5 927,-253.5"/>
<polygon fill="none" stroke="black" points="927,-253.5 927,-290.5 1023,-290.5 1023,-253.5 927,-253.5"/>
<text text-anchor="start" x="938" y="-269.3" font-family="Arial" font-weight="bold" font-size="14.00">UpnpError</text>
<polygon fill="none" stroke="black" points="926,-253 926,-292 1024,-292 1024,-253 926,-253"/>
</a>
</g>
</g>
<!-- ndUpnpError&#45;&gt;ndEndpointError -->
<g id="edge30" class="edge"><title>ndUpnpError&#45;&gt;ndEndpointError</title>
<path fill="none" stroke="black" d="M981.964,-248.937C984.274,-241.452 986.901,-232.942 989.42,-224.778"/>
<polygon fill="black" stroke="black" points="989.448,-224.689 987.395,-217.776 992.987,-213.223 995.039,-220.136 989.448,-224.689"/>
</g>
<!-- ndConnection&#45;&gt;ndIncomingConnections -->
<g id="edge31" class="edge"><title>ndConnection&#45;&gt;ndIncomingConnections</title>
<path fill="none" stroke="black" d="M337.651,-248.937C328.069,-240.407 316.991,-230.547 306.697,-221.384"/>
<polygon fill="black" stroke="black" points="306.492,-221.201 299.35,-220.2 297.528,-213.223 304.67,-214.224 306.492,-221.201"/>
</g>
<!-- ndConnection&#45;&gt;ndEndpoint -->
<g id="edge32" class="edge"><title>ndConnection&#45;&gt;ndEndpoint</title>
<path fill="none" stroke="black" stroke-dasharray="5,2" d="M370.669,-248.697C384.06,-220.056 410.902,-170.787 430.458,-138.679"/>
<polygon fill="black" stroke="black" points="435.763,-130.11 434.325,-140.981 433.131,-134.361 430.499,-138.612 430.499,-138.612 430.499,-138.612 433.131,-134.361 426.673,-136.244 435.763,-130.11 435.763,-130.11"/>
</g>
<!-- ndSendStream&#45;&gt;ndWireMsg -->
<g id="edge33" class="edge"><title>ndSendStream&#45;&gt;ndWireMsg</title>
<path fill="none" stroke="black" stroke-dasharray="5,2" d="M234.19,-379.082C216.464,-388.787 194.841,-400.21 174.994,-410.369"/>
<polygon fill="black" stroke="black" points="166.021,-414.937 172.891,-406.39 170.477,-412.669 174.933,-410.4 174.933,-410.4 174.933,-410.4 170.477,-412.669 176.974,-414.411 166.021,-414.937 166.021,-414.937"/>
</g>
<!-- ndSendStream&#45;&gt;ndConnection -->
<g id="edge34" class="edge"><title>ndSendStream&#45;&gt;ndConnection</title>
<path fill="none" stroke="black" d="M296.627,-331.937C306.81,-322.972 318.661,-312.537 329.508,-302.987"/>
<polygon fill="black" stroke="black" points="337.191,-296.223 332.659,-306.209 333.438,-299.527 329.686,-302.831 329.686,-302.831 329.686,-302.831 333.438,-299.527 326.712,-299.454 337.191,-296.223 337.191,-296.223"/>
</g>
<!-- ndRecvStream&#45;&gt;ndWireMsg -->
<g id="edge35" class="edge"><title>ndRecvStream&#45;&gt;ndWireMsg</title>
<path fill="none" stroke="black" stroke-dasharray="5,2" d="M123.135,-379.223C123.721,-387.159 123.888,-396.231 123.637,-404.816"/>
<polygon fill="black" stroke="black" points="123.123,-414.937 119.136,-404.722 123.377,-409.943 123.63,-404.95 123.63,-404.95 123.63,-404.95 123.377,-409.943 128.125,-405.178 123.123,-414.937 123.123,-414.937"/>
</g>
<!-- ndRecvStream&#45;&gt;ndConnection -->
<g id="edge36" class="edge"><title>ndRecvStream&#45;&gt;ndConnection</title>
<path fill="none" stroke="black" d="M179.713,-333.851C214.064,-322.54 256.749,-308.485 292.283,-296.785"/>
<polygon fill="black" stroke="black" points="302.102,-293.552 294.011,-300.954 297.353,-295.116 292.604,-296.679 292.604,-296.679 292.604,-296.679 297.353,-295.116 291.196,-292.405 302.102,-293.552 302.102,-293.552"/>
</g>
<!-- ndConnectionIncoming&#45;&gt;ndIncomingConnections -->
<g id="edge37" class="edge"><title>ndConnectionIncoming&#45;&gt;ndIncomingConnections</title>
<path fill="none" stroke="black" d="M272,-47.1098C272,-75.1685 272,-123.24 272,-155.438"/>
<polygon fill="black" stroke="black" points="272,-165.697 267.5,-155.696 272,-160.697 272,-155.697 272,-155.697 272,-155.697 272,-160.697 276.5,-155.697 272,-165.697 272,-165.697"/>
</g>
<!-- ndConnectionIncoming&#45;&gt;ndEndpoint -->
<g id="edge38" class="edge"><title>ndConnectionIncoming&#45;&gt;ndEndpoint</title>
<path fill="none" stroke="black" d="M328.587,-47.0824C351.197,-56.874 377.078,-68.4158 399.384,-78.6432"/>
<polygon fill="black" stroke="black" points="408.705,-82.937 397.739,-82.84 404.163,-80.8449 399.622,-78.7528 399.622,-78.7528 399.622,-78.7528 404.163,-80.8449 401.505,-74.6657 408.705,-82.937 408.705,-82.937"/>
</g>
<!-- ndConnectionIncoming&#45;&gt;ndConnection -->
<g id="edge39" class="edge"><title>ndConnectionIncoming&#45;&gt;ndConnection</title>
<path fill="none" stroke="black" d="M242.477,-47.1095C198.315,-83.6809 124.46,-157.332 166,-213 181.453,-233.708 242.484,-249.711 292.57,-259.703"/>
<polygon fill="black" stroke="black" points="302.425,-261.621 291.75,-264.127 297.517,-260.666 292.609,-259.71 292.609,-259.71 292.609,-259.71 297.517,-260.666 293.469,-255.293 302.425,-261.621 302.425,-261.621"/>
</g>
<!-- ndFilterBenignClose -->
<g id="node22" class="node"><title>ndFilterBenignClose</title>
<g id="a_node22_21"><a xlink:href="https://github.com/maidsafe/qp2p/blob/master/src/connection.rs#:~:text=struct%20FilterBenignClose" xlink:title="&lt;TABLE&gt;">
<polygon fill="lightblue" stroke="none" points="845,-668.5 845,-705.5 992,-705.5 992,-668.5 845,-668.5"/>
<polygon fill="none" stroke="black" points="845,-668.5 845,-705.5 992,-705.5 992,-668.5 845,-668.5"/>
<text text-anchor="start" x="856" y="-684.3" font-family="Arial" font-weight="bold" font-size="14.00">FilterBenignClose</text>
<polygon fill="none" stroke="black" points="843.5,-668 843.5,-707 992.5,-707 992.5,-668 843.5,-668"/>
</a>
</g>
</g>
<!-- ndTimeout -->
<g id="node23" class="node"><title>ndTimeout</title>
<g id="a_node23_22"><a xlink:href="https://github.com/maidsafe/qp2p/blob/master/src/tests/common.rs#:~:text=trait%20Timeout" xlink:title="&lt;TABLE&gt;">
<polygon fill="lightgreen" stroke="none" points="631,-253.5 631,-290.5 711,-290.5 711,-253.5 631,-253.5"/>
<polygon fill="none" stroke="black" points="631,-253.5 631,-290.5 711,-290.5 711,-253.5 631,-253.5"/>
<text text-anchor="start" x="642" y="-269.3" font-family="Arial" font-weight="bold" font-size="14.00">Timeout</text>
<polygon fill="none" stroke="black" points="630,-253 630,-292 712,-292 712,-253 630,-253"/>
</a>
</g>
</g>
<!-- ndInternalConfig -->
<g id="node28" class="node"><title>ndInternalConfig</title>
<g id="a_node28_23"><a xlink:href="https://github.com/maidsafe/qp2p/blob/master/src/config.rs#:~:text=struct%20InternalConfig" xlink:title="&lt;TABLE&gt;">
<polygon fill="lightblue" stroke="none" points="534,-170.5 534,-207.5 655,-207.5 655,-170.5 534,-170.5"/>
<polygon fill="none" stroke="black" points="534,-170.5 534,-207.5 655,-207.5 655,-170.5 534,-170.5"/>
<text text-anchor="start" x="545" y="-186.3" font-family="Arial" font-weight="bold" font-size="14.00">InternalConfig</text>
<polygon fill="none" stroke="black" points="532.5,-170 532.5,-209 655.5,-209 655.5,-170 532.5,-170"/>
</a>
</g>
</g>
<!-- ndTimeout&#45;&gt;ndInternalConfig -->
<g id="edge40" class="edge"><title>ndTimeout&#45;&gt;ndInternalConfig</title>
<path fill="none" stroke="black" stroke-dasharray="5,2" d="M649.551,-248.937C641.194,-240.146 631.494,-229.942 622.561,-220.544"/>
<polygon fill="black" stroke="black" points="615.601,-213.223 625.752,-217.37 619.046,-216.847 622.491,-220.471 622.491,-220.471 622.491,-220.471 619.046,-216.847 619.229,-223.571 615.601,-213.223 615.601,-213.223"/>
</g>
<!-- ndConfigError -->
<g id="node24" class="node"><title>ndConfigError</title>
<g id="a_node24_24"><a xlink:href="https://github.com/maidsafe/qp2p/blob/master/src/config.rs#:~:text=enum%20ConfigError" xlink:title="&lt;TABLE&gt;">
<polygon fill="yellow" stroke="none" points="786,-253.5 786,-290.5 891,-290.5 891,-253.5 786,-253.5"/>
<polygon fill="none" stroke="black" points="786,-253.5 786,-290.5 891,-290.5 891,-253.5 786,-253.5"/>
<text text-anchor="start" x="797" y="-269.3" font-family="Arial" font-weight="bold" font-size="14.00">ConfigError</text>
<polygon fill="none" stroke="black" points="784.5,-253 784.5,-292 891.5,-292 891.5,-253 784.5,-253"/>
</a>
</g>
</g>
<!-- ndConfigError&#45;&gt;ndEndpointError -->
<g id="edge41" class="edge"><title>ndConfigError&#45;&gt;ndEndpointError</title>
<path fill="none" stroke="black" d="M883.126,-248.937C902.006,-239.497 924.143,-228.428 944.044,-218.478"/>
<polygon fill="black" stroke="black" points="944.102,-218.449 947.68,-212.188 954.835,-213.082 951.258,-219.343 944.102,-218.449"/>
</g>
<!-- ndConfigError&#45;&gt;ndClientEndpointError -->
<g id="edge42" class="edge"><title>ndConfigError&#45;&gt;ndClientEndpointError</title>
<path fill="none" stroke="black" d="M833.543,-248.937C832.082,-241.539 830.423,-233.14 828.827,-225.063"/>
<polygon fill="black" stroke="black" points="828.814,-224.995 823.727,-219.884 826.488,-213.223 831.575,-218.334 828.814,-224.995"/>
</g>
<!-- ndCertificateGenerationError -->
<g id="node25" class="node"><title>ndCertificateGenerationError</title>
<g id="a_node25_25"><a xlink:href="https://github.com/maidsafe/qp2p/blob/master/src/config.rs#:~:text=struct%20CertificateGenerationError" xlink:title="&lt;TABLE&gt;">
<polygon fill="lightblue" stroke="none" points="735,-336.5 735,-373.5 942,-373.5 942,-336.5 735,-336.5"/>
<polygon fill="none" stroke="black" points="735,-336.5 735,-373.5 942,-373.5 942,-336.5 735,-336.5"/>
<text text-anchor="start" x="746" y="-352.3" font-family="Arial" font-weight="bold" font-size="14.00">CertificateGenerationError</text>
<polygon fill="none" stroke="black" points="733.5,-336 733.5,-375 942.5,-375 942.5,-336 733.5,-336"/>
</a>
</g>
</g>
<!-- ndCertificateGenerationError&#45;&gt;ndConfigError -->
<g id="edge43" class="edge"><title>ndCertificateGenerationError&#45;&gt;ndConfigError</title>
<path fill="none" stroke="black" d="M838,-331.937C838,-324.626 838,-316.337 838,-308.348"/>
<polygon fill="black" stroke="black" points="838,-308.223 834,-302.223 838,-296.223 842,-302.223 838,-308.223"/>
</g>
<!-- ndConfig -->
<g id="node26" class="node"><title>ndConfig</title>
<g id="a_node26_26"><a xlink:href="https://github.com/maidsafe/qp2p/blob/master/src/config.rs#:~:text=struct%20Config" xlink:title="&lt;TABLE&gt;">
<polygon fill="lightblue" stroke="none" points="489,-253.5 489,-290.5 557,-290.5 557,-253.5 489,-253.5"/>
<polygon fill="none" stroke="black" points="489,-253.5 489,-290.5 557,-290.5 557,-253.5 489,-253.5"/>
<text text-anchor="start" x="500" y="-269.3" font-family="Arial" font-weight="bold" font-size="14.00">Config</text>
<polygon fill="none" stroke="black" points="488,-253 488,-292 558,-292 558,-253 488,-253"/>
</a>
</g>
</g>
<!-- ndConfig&#45;&gt;ndEndpoint -->
<g id="edge44" class="edge"><title>ndConfig&#45;&gt;ndEndpoint</title>
<path fill="none" stroke="black" stroke-dasharray="5,2" d="M513.267,-248.697C501.147,-220.301 480.372,-171.628 466.661,-139.506"/>
<polygon fill="black" stroke="black" points="462.651,-130.11 470.715,-137.541 464.613,-134.708 466.576,-139.307 466.576,-139.307 466.576,-139.307 464.613,-134.708 462.437,-141.074 462.651,-130.11 462.651,-130.11"/>
</g>
<!-- ndConfig&#45;&gt;ndInternalConfig -->
<g id="edge45" class="edge"><title>ndConfig&#45;&gt;ndInternalConfig</title>
<path fill="none" stroke="black" stroke-dasharray="5,2" d="M542.777,-248.937C550.407,-240.233 559.25,-230.144 567.42,-220.824"/>
<polygon fill="black" stroke="black" points="574.082,-213.223 570.875,-223.709 570.787,-216.983 567.491,-220.743 567.491,-220.743 567.491,-220.743 570.787,-216.983 564.107,-217.777 574.082,-213.223 574.082,-213.223"/>
</g>
<!-- ndRetryConfig -->
<g id="node27" class="node"><title>ndRetryConfig</title>
<g id="a_node27_27"><a xlink:href="https://github.com/maidsafe/qp2p/blob/master/src/config.rs#:~:text=struct%20RetryConfig" xlink:title="&lt;TABLE&gt;">
<polygon fill="lightblue" stroke="none" points="570,-336.5 570,-373.5 675,-373.5 675,-336.5 570,-336.5"/>
<polygon fill="none" stroke="black" points="570,-336.5 570,-373.5 675,-373.5 675,-336.5 570,-336.5"/>
<text text-anchor="start" x="581" y="-352.3" font-family="Arial" font-weight="bold" font-size="14.00">RetryConfig</text>
<polygon fill="none" stroke="black" points="568.5,-336 568.5,-375 675.5,-375 675.5,-336 568.5,-336"/>
</a>
</g>
</g>
<!-- ndRetryConfig&#45;&gt;ndEndpoint -->
<g id="edge46" class="edge"><title>ndRetryConfig&#45;&gt;ndEndpoint</title>
<path fill="none" stroke="black" d="M683.559,-334.717C701.362,-325.816 718.742,-313.3 729,-296 739.654,-278.032 735.191,-268.95 729,-249 715.737,-206.26 708.55,-191.82 672,-166 626.266,-133.692 563.717,-119.226 517.174,-112.75"/>
<polygon fill="black" stroke="black" points="517.005,-112.728 510.544,-115.93 505.103,-111.198 511.564,-107.995 517.005,-112.728"/>
</g>
<!-- ndRetryConfig&#45;&gt;ndConnection -->
<g id="edge47" class="edge"><title>ndRetryConfig&#45;&gt;ndConnection</title>
<path fill="none" stroke="black" d="M560.292,-335.201C522.787,-323.472 474.717,-308.439 435.416,-296.148"/>
<polygon fill="black" stroke="black" points="435.241,-296.093 428.32,-298.119 423.788,-292.511 430.708,-290.484 435.241,-296.093"/>
</g>
<!-- ndRetryConfig&#45;&gt;ndConfig -->
<g id="edge48" class="edge"><title>ndRetryConfig&#45;&gt;ndConfig</title>
<path fill="none" stroke="black" d="M594.423,-331.937C583.785,-323.233 571.454,-313.144 560.062,-303.824"/>
<polygon fill="black" stroke="black" points="560.06,-303.822 552.883,-303.118 550.772,-296.223 557.949,-296.927 560.06,-303.822"/>
</g>
<!-- ndRetryConfig&#45;&gt;ndInternalConfig -->
<g id="edge49" class="edge"><title>ndRetryConfig&#45;&gt;ndInternalConfig</title>
<path fill="none" stroke="black" d="M618.107,-331.697C613.384,-304.036 605.376,-257.132 599.896,-225.031"/>
<polygon fill="black" stroke="black" points="599.88,-224.939 594.927,-219.697 597.86,-213.11 602.813,-218.351 599.88,-224.939"/>
</g>
<!-- ndIgdError -->
<g id="node29" class="node"><title>ndIgdError</title>
<g id="a_node29_28"><a xlink:href="https://github.com/maidsafe/qp2p/blob/master/src/igd.rs#:~:text=enum%20IgdError" xlink:title="&lt;TABLE&gt;">
<polygon fill="yellow" stroke="none" points="979,-336.5 979,-373.5 1060,-373.5 1060,-336.5 979,-336.5"/>
<polygon fill="none" stroke="black" points="979,-336.5 979,-373.5 1060,-373.5 1060,-336.5 979,-336.5"/>
<text text-anchor="start" x="990" y="-352.3" font-family="Arial" font-weight="bold" font-size="14.00">IgdError</text>
<polygon fill="none" stroke="black" points="977.5,-336 977.5,-375 1060.5,-375 1060.5,-336 977.5,-336"/>
</a>
</g>
</g>
<!-- ndIgdError&#45;&gt;ndEndpointError -->
<g id="edge50" class="edge"><title>ndIgdError&#45;&gt;ndEndpointError</title>
<path fill="none" stroke="black" stroke-dasharray="5,2" d="M1030.29,-331.938C1039.56,-310.346 1049.84,-277.013 1041,-249 1037.92,-239.242 1032.57,-229.698 1026.73,-221.244"/>
<polygon fill="black" stroke="black" points="1020.79,-213.184 1030.34,-218.566 1023.76,-217.21 1026.72,-221.235 1026.72,-221.235 1026.72,-221.235 1023.76,-217.21 1023.1,-223.904 1020.79,-213.184 1020.79,-213.184"/>
</g>
<!-- ndIgdError&#45;&gt;ndUpnpError -->
<g id="edge51" class="edge"><title>ndIgdError&#45;&gt;ndUpnpError</title>
<path fill="none" stroke="black" d="M1006.74,-331.937C1002.54,-324.19 997.732,-315.347 993.157,-306.925"/>
<polygon fill="black" stroke="black" points="993.071,-306.768 986.692,-303.405 987.343,-296.223 993.722,-299.586 993.071,-306.768"/>
</g>
</g>
</svg>
