<?xml version="1.0" encoding="UTF-8" standalone="no"?>
<!DOCTYPE svg PUBLIC "-//W3C//DTD SVG 1.1//EN"
 "http://www.w3.org/Graphics/SVG/1.1/DTD/svg11.dtd">
<!-- Generated by graphviz version 2.38.0 (20140413.2041)
 -->
<!-- Title: ml Pages: 1 -->
<svg width="2035pt" height="1262pt"
 viewBox="0.00 0.00 2035.00 1262.00" xmlns="http://www.w3.org/2000/svg" xmlns:xlink="http://www.w3.org/1999/xlink">
<g id="graph0" class="graph" transform="scale(1 1) rotate(0) translate(4 1258)">
<title>ml</title>
<polygon fill="white" stroke="none" points="-4,4 -4,-1258 2031,-1258 2031,4 -4,4"/>
<!-- ndWireMsg -->
<g id="node1" class="node"><title>ndWireMsg</title>
<g id="a_node1_0"><a xlink:href="https://github.com/maidsafe/qp2p/blob/master/src/wire_msg.rs#:~:text=enum%20WireMsg" xlink:title="&lt;TABLE&gt;">
<polygon fill="yellow" stroke="none" points="9,-814.5 9,-851.5 269,-851.5 269,-814.5 9,-814.5"/>
<polygon fill="none" stroke="black" points="9,-814.5 9,-851.5 269,-851.5 269,-814.5 9,-814.5"/>
<text text-anchor="start" x="108.5" y="-830.3" font-family="Arial" font-weight="bold" font-size="14.00">WireMsg</text>
<polygon fill="white" stroke="none" points="9,-717.5 9,-814.5 269,-814.5 269,-717.5 9,-717.5"/>
<polygon fill="none" stroke="black" points="9,-717.5 9,-814.5 269,-814.5 269,-717.5 9,-717.5"/>
<text text-anchor="start" x="20" y="-792.3" font-family="Arial" font-size="14.00">EndpointEchoReq</text>
<text text-anchor="start" x="20" y="-777.3" font-family="Arial" font-size="14.00">EndpointEchoResp(SocketAddr)</text>
<text text-anchor="start" x="20" y="-762.3" font-family="Arial" font-size="14.00">EndpointVerificationReq(SocketAddr)</text>
<text text-anchor="start" x="20" y="-747.3" font-family="Arial" font-size="14.00">EndpointVerificationResp(bool)</text>
<text text-anchor="start" x="20" y="-732.3" font-family="Arial" font-size="14.00">UserMsg(Bytes)</text>
<polygon fill="none" stroke="black" points="8,-716.5 8,-852.5 270,-852.5 270,-716.5 8,-716.5"/>
</a>
</g>
</g>
<!-- ndSendStream -->
<g id="node13" class="node"><title>ndSendStream</title>
<g id="a_node13_1"><a xlink:href="https://github.com/maidsafe/qp2p/blob/master/src/connection.rs#:~:text=struct%20SendStream" xlink:title="&lt;TABLE&gt;">
<polygon fill="lightblue" stroke="none" points="36,-582 36,-619 226,-619 226,-582 36,-582"/>
<polygon fill="none" stroke="black" points="36,-582 36,-619 226,-619 226,-582 36,-582"/>
<text text-anchor="start" x="88" y="-597.8" font-family="Arial" font-weight="bold" font-size="14.00">SendStream</text>
<polygon fill="white" stroke="none" points="36,-545 36,-582 226,-582 226,-545 36,-545"/>
<polygon fill="none" stroke="black" points="36,-545 36,-582 226,-582 226,-545 36,-545"/>
<text text-anchor="start" x="47" y="-559.8" font-family="Arial" font-size="14.00">&#45; inner: quinn::SendStream</text>
<polygon fill="none" stroke="black" points="35,-544 35,-620 227,-620 227,-544 35,-544"/>
</a>
</g>
</g>
<!-- ndWireMsg&#45;&gt;ndSendStream -->
<g id="edge1" class="edge"><title>ndWireMsg&#45;&gt;ndSendStream</title>
<path fill="none" stroke="black" stroke-dasharray="5,2" d="M136.157,-712.247C135.132,-686.558 133.996,-658.09 133.052,-634.425"/>
<polygon fill="black" stroke="black" points="132.646,-624.259 137.541,-634.071 132.846,-629.255 133.045,-634.251 133.045,-634.251 133.045,-634.251 132.846,-629.255 128.549,-634.43 132.646,-624.259 132.646,-624.259"/>
</g>
<!-- ndRecvStream -->
<g id="node14" class="node"><title>ndRecvStream</title>
<g id="a_node14_2"><a xlink:href="https://github.com/maidsafe/qp2p/blob/master/src/connection.rs#:~:text=struct%20RecvStream" xlink:title="&lt;TABLE&gt;">
<polygon fill="lightblue" stroke="none" points="301,-582 301,-619 490,-619 490,-582 301,-582"/>
<polygon fill="none" stroke="black" points="301,-582 301,-619 490,-619 490,-582 301,-582"/>
<text text-anchor="start" x="353" y="-597.8" font-family="Arial" font-weight="bold" font-size="14.00">RecvStream</text>
<polygon fill="white" stroke="none" points="301,-545 301,-582 490,-582 490,-545 301,-545"/>
<polygon fill="none" stroke="black" points="301,-545 301,-582 490,-582 490,-545 301,-545"/>
<text text-anchor="start" x="312" y="-559.8" font-family="Arial" font-size="14.00">&#45; inner: quinn::RecvStream</text>
<polygon fill="none" stroke="black" points="299.5,-544 299.5,-620 490.5,-620 490.5,-544 299.5,-544"/>
</a>
</g>
</g>
<!-- ndWireMsg&#45;&gt;ndRecvStream -->
<g id="edge2" class="edge"><title>ndWireMsg&#45;&gt;ndRecvStream</title>
<path fill="none" stroke="black" d="M229.977,-712.247C264.541,-685.176 303.047,-655.018 334.163,-630.647"/>
<polygon fill="black" stroke="black" points="342.32,-624.259 337.222,-633.968 338.384,-627.342 334.448,-630.425 334.448,-630.425 334.448,-630.425 338.384,-627.342 331.673,-626.882 342.32,-624.259 342.32,-624.259"/>
</g>
<!-- ndMsgHeader -->
<g id="node2" class="node"><title>ndMsgHeader</title>
<g id="a_node2_3"><a xlink:href="https://github.com/maidsafe/qp2p/blob/master/src/wire_msg.rs#:~:text=struct%20MsgHeader" xlink:title="&lt;TABLE&gt;">
<polygon fill="lightblue" stroke="none" points="526,-604 526,-641 667,-641 667,-604 526,-604"/>
<polygon fill="none" stroke="black" points="526,-604 526,-641 667,-641 667,-604 526,-604"/>
<text text-anchor="start" x="556.5" y="-619.8" font-family="Arial" font-weight="bold" font-size="14.00">MsgHeader</text>
<polygon fill="white" stroke="none" points="526,-522 526,-604 667,-604 667,-522 526,-522"/>
<polygon fill="none" stroke="black" points="526,-522 526,-604 667,-604 667,-522 526,-522"/>
<text text-anchor="start" x="537" y="-581.8" font-family="Arial" font-size="14.00">&#45; version: u16</text>
<text text-anchor="start" x="537" y="-566.8" font-family="Arial" font-size="14.00">&#45; data_len: u32</text>
<text text-anchor="start" x="537" y="-551.8" font-family="Arial" font-size="14.00">&#45; usr_msg_flag: u8</text>
<text text-anchor="start" x="537" y="-536.8" font-family="Arial" font-size="14.00">&#45; reserved: [u8; 2]</text>
<polygon fill="none" stroke="black" points="524.5,-521.5 524.5,-642.5 667.5,-642.5 667.5,-521.5 524.5,-521.5"/>
</a>
</g>
</g>
<!-- ndEndpoint -->
<g id="node3" class="node"><title>ndEndpoint</title>
<g id="a_node3_4"><a xlink:href="https://github.com/maidsafe/qp2p/blob/master/src/endpoint.rs#:~:text=struct%20Endpoint" xlink:title="&lt;TABLE&gt;">
<polygon fill="lightblue" stroke="none" points="944,-402 944,-439 1190,-439 1190,-402 944,-402"/>
<polygon fill="none" stroke="black" points="944,-402 944,-439 1190,-439 1190,-402 944,-402"/>
<text text-anchor="start" x="1035" y="-417.8" font-family="Arial" font-weight="bold" font-size="14.00">Endpoint</text>
<polygon fill="white" stroke="none" points="944,-305 944,-402 1190,-402 1190,-305 944,-305"/>
<polygon fill="none" stroke="black" points="944,-305 944,-402 1190,-402 1190,-305 944,-305"/>
<text text-anchor="start" x="955" y="-379.8" font-family="Arial" font-size="14.00">&#45; local_addr: SocketAddr</text>
<text text-anchor="start" x="955" y="-364.8" font-family="Arial" font-size="14.00">&#45; public_addr: Option&lt;SocketAddr&gt;</text>
<text text-anchor="start" x="955" y="-349.8" font-family="Arial" font-size="14.00">&#45; quic_endpoint: quinn::Endpoint</text>
<text text-anchor="start" x="955" y="-334.8" font-family="Arial" font-size="14.00">&#45; retry_config: Arc&lt;RetryConfig&gt;</text>
<text text-anchor="start" x="955" y="-319.8" font-family="Arial" font-size="14.00">&#45; termination_tx: Sender&lt;()&gt;</text>
<polygon fill="none" stroke="black" points="943,-304 943,-440 1191,-440 1191,-304 943,-304"/>
</a>
</g>
</g>
<!-- ndConnection -->
<g id="node12" class="node"><title>ndConnection</title>
<g id="a_node12_5"><a xlink:href="https://github.com/maidsafe/qp2p/blob/master/src/connection.rs#:~:text=struct%20Connection" xlink:title="&lt;TABLE&gt;">
<polygon fill="lightblue" stroke="none" points="503,-72 503,-109 840,-109 840,-72 503,-72"/>
<polygon fill="none" stroke="black" points="503,-72 503,-109 840,-109 840,-72 503,-72"/>
<text text-anchor="start" x="631" y="-87.8" font-family="Arial" font-weight="bold" font-size="14.00">Connection</text>
<polygon fill="white" stroke="none" points="503,-5 503,-72 840,-72 840,-5 503,-5"/>
<polygon fill="none" stroke="black" points="503,-5 503,-72 840,-72 840,-5 503,-5"/>
<text text-anchor="start" x="514" y="-49.8" font-family="Arial" font-size="14.00">&#45; inner: quinn::Connection</text>
<text text-anchor="start" x="514" y="-34.8" font-family="Arial" font-size="14.00">&#45; default_retry_config: Option&lt;Arc&lt;RetryConfig&gt;&gt;</text>
<text text-anchor="start" x="514" y="-19.8" font-family="Arial" font-size="14.00">&#45; _alive_tx: Arc&lt;watch::Sender&lt;()&gt;&gt;</text>
<polygon fill="none" stroke="black" points="501.5,-4 501.5,-110 840.5,-110 840.5,-4 501.5,-4"/>
</a>
</g>
</g>
<!-- ndEndpoint&#45;&gt;ndConnection -->
<g id="edge3" class="edge"><title>ndEndpoint&#45;&gt;ndConnection</title>
<path fill="none" stroke="black" stroke-dasharray="5,2" d="M1034.92,-299.835C1009.98,-251.649 971.199,-189.754 921,-150 902.04,-134.985 880.394,-122.265 857.95,-111.53"/>
<polygon fill="black" stroke="black" points="848.633,-107.204 859.598,-107.333 853.168,-109.31 857.703,-111.415 857.703,-111.415 857.703,-111.415 853.168,-109.31 855.808,-115.497 848.633,-107.204 848.633,-107.204"/>
</g>
<!-- ndConnectionIncoming -->
<g id="node15" class="node"><title>ndConnectionIncoming</title>
<g id="a_node15_6"><a xlink:href="https://github.com/maidsafe/qp2p/blob/master/src/connection.rs#:~:text=struct%20ConnectionIncoming" xlink:title="&lt;TABLE&gt;">
<polygon fill="lightblue" stroke="none" points="472,-206.5 472,-243.5 870,-243.5 870,-206.5 472,-206.5"/>
<polygon fill="none" stroke="black" points="472,-206.5 472,-243.5 870,-243.5 870,-206.5 472,-206.5"/>
<text text-anchor="start" x="598.5" y="-222.3" font-family="Arial" font-weight="bold" font-size="14.00">ConnectionIncoming</text>
<polygon fill="white" stroke="none" points="472,-154.5 472,-206.5 870,-206.5 870,-154.5 472,-154.5"/>
<polygon fill="none" stroke="black" points="472,-154.5 472,-206.5 870,-206.5 870,-154.5 472,-154.5"/>
<text text-anchor="start" x="483" y="-184.3" font-family="Arial" font-size="14.00">&#45; message_rx: mpsc::Receiver&lt;Result&lt;Bytes, RecvError&gt;&gt;</text>
<text text-anchor="start" x="483" y="-169.3" font-family="Arial" font-size="14.00">&#45; _alive_tx: Arc&lt;watch::Sender&lt;()&gt;&gt;</text>
<polygon fill="none" stroke="black" points="471,-154 471,-245 871,-245 871,-154 471,-154"/>
</a>
</g>
</g>
<!-- ndEndpoint&#45;&gt;ndConnectionIncoming -->
<g id="edge4" class="edge"><title>ndEndpoint&#45;&gt;ndConnectionIncoming</title>
<path fill="none" stroke="black" stroke-dasharray="5,2" d="M934.863,-314.107C889.096,-294.402 838.03,-272.416 793.107,-253.074"/>
<polygon fill="black" stroke="black" points="783.913,-249.115 794.878,-248.937 788.506,-251.093 793.098,-253.07 793.098,-253.07 793.098,-253.07 788.506,-251.093 791.319,-257.203 783.913,-249.115 783.913,-249.115"/>
</g>
<!-- ndEndpointError -->
<g id="node4" class="node"><title>ndEndpointError</title>
<g id="a_node4_7"><a xlink:href="https://github.com/maidsafe/qp2p/blob/master/src/error.rs#:~:text=enum%20EndpointError" xlink:title="&lt;TABLE&gt;">
<polygon fill="yellow" stroke="none" points="1014,-821.5 1014,-858.5 1163,-858.5 1163,-821.5 1014,-821.5"/>
<polygon fill="none" stroke="black" points="1014,-821.5 1014,-858.5 1163,-858.5 1163,-821.5 1014,-821.5"/>
<text text-anchor="start" x="1038.5" y="-837.3" font-family="Arial" font-weight="bold" font-size="14.00">EndpointError</text>
<polygon fill="white" stroke="none" points="1014,-709.5 1014,-821.5 1163,-821.5 1163,-709.5 1014,-709.5"/>
<polygon fill="none" stroke="black" points="1014,-709.5 1014,-821.5 1163,-821.5 1163,-709.5 1014,-709.5"/>
<text text-anchor="start" x="1025" y="-799.3" font-family="Arial" font-size="14.00">Config(ConfigError)</text>
<text text-anchor="start" x="1025" y="-784.3" font-family="Arial" font-size="14.00">Socket(io::Error)</text>
<text text-anchor="start" x="1025" y="-769.3" font-family="Arial" font-size="14.00">EndpointEcho</text>
<text text-anchor="start" x="1025" y="-754.3" font-family="Arial" font-size="14.00">Upnp(UpnpError)</text>
<text text-anchor="start" x="1025" y="-739.3" font-family="Arial" font-size="14.00">EndpointVerification</text>
<text text-anchor="start" x="1025" y="-724.3" font-family="Arial" font-size="14.00">Unreachable</text>
<polygon fill="none" stroke="black" points="1012.5,-709 1012.5,-860 1163.5,-860 1163.5,-709 1012.5,-709"/>
</a>
</g>
</g>
<!-- ndEndpointError&#45;&gt;ndEndpoint -->
<g id="edge5" class="edge"><title>ndEndpointError&#45;&gt;ndEndpoint</title>
<path fill="none" stroke="black" d="M1019.2,-704.942C1012.19,-693.499 1006.13,-681.381 1002,-669 977.519,-595.644 983.26,-570.028 1002,-495 1005.5,-481.001 1010.94,-466.847 1017.21,-453.385"/>
<polygon fill="black" stroke="black" points="1021.68,-444.186 1021.36,-455.147 1019.5,-448.684 1017.31,-453.182 1017.31,-453.182 1017.31,-453.182 1019.5,-448.684 1013.26,-451.216 1021.68,-444.186 1021.68,-444.186"/>
</g>
<!-- ndClientEndpointError -->
<g id="node5" class="node"><title>ndClientEndpointError</title>
<g id="a_node5_8"><a xlink:href="https://github.com/maidsafe/qp2p/blob/master/src/error.rs#:~:text=enum%20ClientEndpointError" xlink:title="&lt;TABLE&gt;">
<polygon fill="yellow" stroke="none" points="1020,-589 1020,-626 1182,-626 1182,-589 1020,-589"/>
<polygon fill="none" stroke="black" points="1020,-589 1020,-626 1182,-626 1182,-589 1020,-589"/>
<text text-anchor="start" x="1031" y="-604.8" font-family="Arial" font-weight="bold" font-size="14.00">ClientEndpointError</text>
<polygon fill="white" stroke="none" points="1020,-537 1020,-589 1182,-589 1182,-537 1020,-537"/>
<polygon fill="none" stroke="black" points="1020,-537 1020,-589 1182,-589 1182,-537 1020,-537"/>
<text text-anchor="start" x="1031" y="-566.8" font-family="Arial" font-size="14.00">Config(ConfigError)</text>
<text text-anchor="start" x="1031" y="-551.8" font-family="Arial" font-size="14.00">Socket(io::Error)</text>
<polygon fill="none" stroke="black" points="1019,-536.5 1019,-627.5 1183,-627.5 1183,-536.5 1019,-536.5"/>
</a>
</g>
</g>
<!-- ndEndpointError&#45;&gt;ndClientEndpointError -->
<g id="edge6" class="edge"><title>ndEndpointError&#45;&gt;ndClientEndpointError</title>
<path fill="none" stroke="black" stroke-dasharray="5,2" d="M1093.1,-704.833C1094.46,-683.812 1095.91,-661.463 1097.19,-641.722"/>
<polygon fill="black" stroke="black" points="1097.85,-631.658 1101.69,-641.929 1097.52,-636.648 1097.2,-641.637 1097.2,-641.637 1097.2,-641.637 1097.52,-636.648 1092.71,-641.346 1097.85,-631.658 1097.85,-631.658"/>
</g>
<!-- ndClientEndpointError&#45;&gt;ndEndpoint -->
<g id="edge7" class="edge"><title>ndClientEndpointError&#45;&gt;ndEndpoint</title>
<path fill="none" stroke="black" d="M1093.07,-532.496C1089.26,-509.184 1084.59,-480.612 1080.26,-454.123"/>
<polygon fill="black" stroke="black" points="1078.62,-444.088 1084.67,-453.231 1079.43,-449.023 1080.23,-453.957 1080.23,-453.957 1080.23,-453.957 1079.43,-449.023 1075.79,-454.683 1078.62,-444.088 1078.62,-444.088"/>
</g>
<!-- ndConnectionError -->
<g id="node6" class="node"><title>ndConnectionError</title>
<g id="a_node6_9"><a xlink:href="https://github.com/maidsafe/qp2p/blob/master/src/error.rs#:~:text=enum%20ConnectionError" xlink:title="&lt;TABLE&gt;">
<polygon fill="yellow" stroke="none" points="652,-1062 652,-1099 949,-1099 949,-1062 652,-1062"/>
<polygon fill="none" stroke="black" points="652,-1062 652,-1099 949,-1099 949,-1062 652,-1062"/>
<text text-anchor="start" x="741.5" y="-1077.8" font-family="Arial" font-weight="bold" font-size="14.00">ConnectionError</text>
<polygon fill="white" stroke="none" points="652,-905 652,-1062 949,-1062 949,-905 652,-905"/>
<polygon fill="none" stroke="black" points="652,-905 652,-1062 949,-1062 949,-905 652,-905"/>
<text text-anchor="start" x="663" y="-1039.8" font-family="Arial" font-size="14.00">Stopped</text>
<text text-anchor="start" x="663" y="-1024.8" font-family="Arial" font-size="14.00">TooManyConnections</text>
<text text-anchor="start" x="663" y="-1009.8" font-family="Arial" font-size="14.00">InvalidAddress(SocketAddr)</text>
<text text-anchor="start" x="663" y="-994.8" font-family="Arial" font-size="14.00">InternalConfigError(InternalConfigError)</text>
<text text-anchor="start" x="663" y="-979.8" font-family="Arial" font-size="14.00">VersionMismatch</text>
<text text-anchor="start" x="663" y="-964.8" font-family="Arial" font-size="14.00">TransportError(quinn_proto::TransportError)</text>
<text text-anchor="start" x="663" y="-949.8" font-family="Arial" font-size="14.00">Reset</text>
<text text-anchor="start" x="663" y="-934.8" font-family="Arial" font-size="14.00">TimedOut</text>
<text text-anchor="start" x="663" y="-919.8" font-family="Arial" font-size="14.00">Closed(Close)</text>
<polygon fill="none" stroke="black" points="650.5,-904 650.5,-1100 949.5,-1100 949.5,-904 650.5,-904"/>
</a>
</g>
</g>
<!-- ndConnectionError&#45;&gt;ndEndpoint -->
<g id="edge8" class="edge"><title>ndConnectionError&#45;&gt;ndEndpoint</title>
<path fill="none" stroke="black" d="M899.741,-899.893C907.84,-888.374 915.143,-876.324 921,-864 992.35,-713.866 919.391,-648.984 982,-495 987.822,-480.68 995.572,-466.384 1004.03,-452.884"/>
<polygon fill="black" stroke="black" points="1009.67,-444.135 1008.03,-454.978 1006.96,-448.337 1004.25,-452.538 1004.25,-452.538 1004.25,-452.538 1006.96,-448.337 1000.47,-450.098 1009.67,-444.135 1009.67,-444.135"/>
</g>
<!-- ndRpcError -->
<g id="node8" class="node"><title>ndRpcError</title>
<g id="a_node8_10"><a xlink:href="https://github.com/maidsafe/qp2p/blob/master/src/error.rs#:~:text=enum%20RpcError" xlink:title="&lt;TABLE&gt;">
<polygon fill="yellow" stroke="none" points="740,-597 740,-634 871,-634 871,-597 740,-597"/>
<polygon fill="none" stroke="black" points="740,-597 740,-634 871,-634 871,-597 740,-597"/>
<text text-anchor="start" x="773.5" y="-612.8" font-family="Arial" font-weight="bold" font-size="14.00">RpcError</text>
<polygon fill="white" stroke="none" points="740,-530 740,-597 871,-597 871,-530 740,-530"/>
<polygon fill="none" stroke="black" points="740,-530 740,-597 871,-597 871,-530 740,-530"/>
<text text-anchor="start" x="751" y="-574.8" font-family="Arial" font-size="14.00">TimedOut</text>
<text text-anchor="start" x="751" y="-559.8" font-family="Arial" font-size="14.00">Send(SendError)</text>
<text text-anchor="start" x="751" y="-544.8" font-family="Arial" font-size="14.00">Recv(RecvError)</text>
<polygon fill="none" stroke="black" points="738.5,-529 738.5,-635 871.5,-635 871.5,-529 738.5,-529"/>
</a>
</g>
</g>
<!-- ndConnectionError&#45;&gt;ndRpcError -->
<g id="edge9" class="edge"><title>ndConnectionError&#45;&gt;ndRpcError</title>
<path fill="none" stroke="black" stroke-dasharray="5,2" d="M831.329,-899.893C834.067,-887.893 836.402,-875.739 838,-864 847.531,-793.979 847.307,-775.051 838,-705 835.55,-686.556 831.102,-666.945 826.249,-648.964"/>
<polygon fill="black" stroke="black" points="823.521,-639.16 830.537,-647.588 824.861,-643.977 826.201,-648.794 826.201,-648.794 826.201,-648.794 824.861,-643.977 821.866,-650 823.521,-639.16 823.521,-639.16"/>
</g>
<!-- ndSendError -->
<g id="node9" class="node"><title>ndSendError</title>
<g id="a_node9_11"><a xlink:href="https://github.com/maidsafe/qp2p/blob/master/src/error.rs#:~:text=enum%20SendError" xlink:title="&lt;TABLE&gt;">
<polygon fill="yellow" stroke="none" points="315,-799.5 315,-836.5 550,-836.5 550,-799.5 315,-799.5"/>
<polygon fill="none" stroke="black" points="315,-799.5 315,-836.5 550,-836.5 550,-799.5 315,-799.5"/>
<text text-anchor="start" x="396" y="-815.3" font-family="Arial" font-weight="bold" font-size="14.00">SendError</text>
<polygon fill="white" stroke="none" points="315,-732.5 315,-799.5 550,-799.5 550,-732.5 315,-732.5"/>
<polygon fill="none" stroke="black" points="315,-732.5 315,-799.5 550,-799.5 550,-732.5 315,-732.5"/>
<text text-anchor="start" x="326" y="-777.3" font-family="Arial" font-size="14.00">Serialization(SerializationError)</text>
<text text-anchor="start" x="326" y="-762.3" font-family="Arial" font-size="14.00">ConnectionLost(ConnectionError)</text>
<text text-anchor="start" x="326" y="-747.3" font-family="Arial" font-size="14.00">StreamLost(StreamError)</text>
<polygon fill="none" stroke="black" points="313.5,-731.5 313.5,-837.5 550.5,-837.5 550.5,-731.5 313.5,-731.5"/>
</a>
</g>
</g>
<!-- ndConnectionError&#45;&gt;ndSendError -->
<g id="edge10" class="edge"><title>ndConnectionError&#45;&gt;ndSendError</title>
<path fill="none" stroke="black" stroke-dasharray="5,2" d="M642.333,-908.671C607.127,-888.054 570.608,-866.669 538.075,-847.617"/>
<polygon fill="black" stroke="black" points="538.015,-847.582 530.816,-848.002 527.66,-841.518 534.858,-841.098 538.015,-847.582"/>
</g>
<!-- ndRecvError -->
<g id="node10" class="node"><title>ndRecvError</title>
<g id="a_node10_12"><a xlink:href="https://github.com/maidsafe/qp2p/blob/master/src/error.rs#:~:text=enum%20RecvError" xlink:title="&lt;TABLE&gt;">
<polygon fill="yellow" stroke="none" points="586,-799.5 586,-836.5 821,-836.5 821,-799.5 586,-799.5"/>
<polygon fill="none" stroke="black" points="586,-799.5 586,-836.5 821,-836.5 821,-799.5 586,-799.5"/>
<text text-anchor="start" x="667.5" y="-815.3" font-family="Arial" font-weight="bold" font-size="14.00">RecvError</text>
<polygon fill="white" stroke="none" points="586,-732.5 586,-799.5 821,-799.5 821,-732.5 586,-732.5"/>
<polygon fill="none" stroke="black" points="586,-732.5 586,-799.5 821,-799.5 821,-732.5 586,-732.5"/>
<text text-anchor="start" x="597" y="-777.3" font-family="Arial" font-size="14.00">Serialization(SerializationError)</text>
<text text-anchor="start" x="597" y="-762.3" font-family="Arial" font-size="14.00">ConnectionLost(ConnectionError)</text>
<text text-anchor="start" x="597" y="-747.3" font-family="Arial" font-size="14.00">StreamLost(StreamError)</text>
<polygon fill="none" stroke="black" points="584.5,-731.5 584.5,-837.5 821.5,-837.5 821.5,-731.5 584.5,-731.5"/>
</a>
</g>
</g>
<!-- ndConnectionError&#45;&gt;ndRecvError -->
<g id="edge11" class="edge"><title>ndConnectionError&#45;&gt;ndRecvError</title>
<path fill="none" stroke="black" stroke-dasharray="5,2" d="M754.482,-899.875C747.304,-883.928 740.039,-867.787 733.318,-852.855"/>
<polygon fill="black" stroke="black" points="733.22,-852.639 727.11,-848.809 728.295,-841.696 734.405,-845.526 733.22,-852.639"/>
</g>
<!-- ndConnectionError&#45;&gt;ndConnection -->
<g id="edge12" class="edge"><title>ndConnectionError&#45;&gt;ndConnection</title>
<path fill="none" stroke="black" d="M844.131,-899.716C848.505,-887.802 852.583,-875.717 856,-864 891.539,-742.148 907,-709.929 907,-583 907,-583 907,-583 907,-371 907,-272.415 945.904,-229.788 888,-150 879.31,-138.026 868.746,-127.599 857.011,-118.521"/>
<polygon fill="black" stroke="black" points="848.708,-112.45 859.437,-114.72 852.744,-115.401 856.78,-118.352 856.78,-118.352 856.78,-118.352 852.744,-115.401 854.124,-121.985 848.708,-112.45 848.708,-112.45"/>
</g>
<!-- ndClose -->
<g id="node7" class="node"><title>ndClose</title>
<g id="a_node7_13"><a xlink:href="https://github.com/maidsafe/qp2p/blob/master/src/error.rs#:~:text=enum%20Close" xlink:title="&lt;TABLE&gt;">
<polygon fill="yellow" stroke="none" points="754,-1212 754,-1249 846,-1249 846,-1212 754,-1212"/>
<polygon fill="none" stroke="black" points="754,-1212 754,-1249 846,-1249 846,-1212 754,-1212"/>
<text text-anchor="start" x="780" y="-1227.8" font-family="Arial" font-weight="bold" font-size="14.00">Close</text>
<polygon fill="white" stroke="none" points="754,-1145 754,-1212 846,-1212 846,-1145 754,-1145"/>
<polygon fill="none" stroke="black" points="754,-1145 754,-1212 846,-1212 846,-1145 754,-1145"/>
<text text-anchor="start" x="765" y="-1189.8" font-family="Arial" font-size="14.00">Local</text>
<text text-anchor="start" x="765" y="-1174.8" font-family="Arial" font-size="14.00">Application</text>
<text text-anchor="start" x="765" y="-1159.8" font-family="Arial" font-size="14.00">Transport</text>
<polygon fill="none" stroke="black" points="753,-1144 753,-1250 847,-1250 847,-1144 753,-1144"/>
</a>
</g>
</g>
<!-- ndClose&#45;&gt;ndConnectionError -->
<g id="edge13" class="edge"><title>ndClose&#45;&gt;ndConnectionError</title>
<path fill="none" stroke="black" d="M800,-1139.92C800,-1132.45 800,-1124.59 800,-1116.57"/>
<polygon fill="black" stroke="black" points="800,-1116.3 796,-1110.3 800,-1104.3 804,-1110.3 800,-1116.3"/>
</g>
<!-- ndRpcError&#45;&gt;ndEndpoint -->
<g id="edge14" class="edge"><title>ndRpcError&#45;&gt;ndEndpoint</title>
<path fill="none" stroke="black" d="M875.556,-524.986C904.478,-502.025 938.436,-475.066 969.657,-450.28"/>
<polygon fill="black" stroke="black" points="977.531,-444.029 972.497,-453.771 973.615,-447.138 969.699,-450.247 969.699,-450.247 969.699,-450.247 973.615,-447.138 966.901,-446.722 977.531,-444.029 977.531,-444.029"/>
</g>
<!-- ndSendError&#45;&gt;ndMsgHeader -->
<g id="edge15" class="edge"><title>ndSendError&#45;&gt;ndMsgHeader</title>
<path fill="none" stroke="black" d="M477.901,-727.383C496.376,-704.797 517.904,-678.477 537.483,-654.541"/>
<polygon fill="black" stroke="black" points="544.04,-646.524 541.192,-657.113 540.875,-650.394 537.709,-654.264 537.709,-654.264 537.709,-654.264 540.875,-650.394 534.226,-651.415 544.04,-646.524 544.04,-646.524"/>
</g>
<!-- ndSendError&#45;&gt;ndRpcError -->
<g id="edge16" class="edge"><title>ndSendError&#45;&gt;ndRpcError</title>
<path fill="none" stroke="black" d="M522.023,-727.386C536.766,-719.3 552.098,-711.523 567,-705 616.84,-683.184 635.206,-693.066 684,-669 697.405,-662.388 710.947,-654.359 723.875,-645.893"/>
<polygon fill="black" stroke="black" points="724.135,-645.718 726.886,-639.053 734.097,-639.028 731.346,-645.694 724.135,-645.718"/>
</g>
<!-- ndSendError&#45;&gt;ndConnection -->
<g id="edge17" class="edge"><title>ndSendError&#45;&gt;ndConnection</title>
<path fill="none" stroke="black" d="M331.339,-727.32C311.448,-711.23 293.258,-691.758 282,-669 247.709,-599.685 269.117,-571.253 282,-495 309.045,-334.925 286.907,-264.496 402,-150 424.911,-127.208 453.7,-110.056 483.86,-97.1507"/>
<polygon fill="black" stroke="black" points="493.26,-93.2804 485.726,-101.249 488.636,-95.1842 484.013,-97.088 484.013,-97.088 484.013,-97.088 488.636,-95.1842 482.299,-92.9269 493.26,-93.2804 493.26,-93.2804"/>
</g>
<!-- ndSendError&#45;&gt;ndSendStream -->
<g id="edge18" class="edge"><title>ndSendError&#45;&gt;ndSendStream</title>
<path fill="none" stroke="black" d="M339.494,-727.387C310.266,-709.188 278.03,-688.625 249,-669 230.952,-656.799 211.724,-643.099 194.142,-630.28"/>
<polygon fill="black" stroke="black" points="185.655,-624.069 196.382,-626.344 189.69,-627.022 193.725,-629.975 193.725,-629.975 193.725,-629.975 189.69,-627.022 191.067,-633.606 185.655,-624.069 185.655,-624.069"/>
</g>
<!-- ndRecvError&#45;&gt;ndRpcError -->
<g id="edge19" class="edge"><title>ndRecvError&#45;&gt;ndRpcError</title>
<path fill="none" stroke="black" d="M731.548,-727.383C743.767,-703.365 758.134,-675.125 770.905,-650.019"/>
<polygon fill="black" stroke="black" points="771.017,-649.799 770.173,-642.638 776.459,-639.103 777.303,-646.265 771.017,-649.799"/>
</g>
<!-- ndRecvError&#45;&gt;ndRecvStream -->
<g id="edge20" class="edge"><title>ndRecvError&#45;&gt;ndRecvStream</title>
<path fill="none" stroke="black" d="M605.769,-727.423C561.589,-701.808 516.935,-675.677 507,-669 489.34,-657.13 470.78,-643.423 453.961,-630.489"/>
<polygon fill="black" stroke="black" points="445.855,-624.213 456.517,-626.777 449.809,-627.274 453.762,-630.336 453.762,-630.336 453.762,-630.336 449.809,-627.274 451.007,-633.894 445.855,-624.213 445.855,-624.213"/>
</g>
<!-- ndRecvError&#45;&gt;ndConnectionIncoming -->
<g id="edge21" class="edge"><title>ndRecvError&#45;&gt;ndConnectionIncoming</title>
<path fill="none" stroke="black" d="M699.917,-727.335C693.849,-616.776 680.408,-371.902 674.226,-259.269"/>
<polygon fill="black" stroke="black" points="673.668,-249.116 678.71,-258.854 673.943,-254.108 674.217,-259.1 674.217,-259.1 674.217,-259.1 673.943,-254.108 669.723,-259.347 673.668,-249.116 673.668,-249.116"/>
</g>
<!-- ndStreamError -->
<g id="node11" class="node"><title>ndStreamError</title>
<g id="a_node11_14"><a xlink:href="https://github.com/maidsafe/qp2p/blob/master/src/error.rs#:~:text=enum%20StreamError" xlink:title="&lt;TABLE&gt;">
<polygon fill="yellow" stroke="none" points="306,-1017 306,-1054 609,-1054 609,-1017 306,-1017"/>
<polygon fill="none" stroke="black" points="306,-1017 306,-1054 609,-1054 609,-1017 306,-1017"/>
<text text-anchor="start" x="414" y="-1032.8" font-family="Arial" font-weight="bold" font-size="14.00">StreamError</text>
<polygon fill="white" stroke="none" points="306,-950 306,-1017 609,-1017 609,-950 306,-950"/>
<polygon fill="none" stroke="black" points="306,-950 306,-1017 609,-1017 609,-950 306,-950"/>
<text text-anchor="start" x="317" y="-994.8" font-family="Arial" font-size="14.00">Stopped(u64)</text>
<text text-anchor="start" x="317" y="-979.8" font-family="Arial" font-size="14.00">Gone</text>
<text text-anchor="start" x="317" y="-964.8" font-family="Arial" font-size="14.00">Unsupported(UnsupportedStreamOperation)</text>
<polygon fill="none" stroke="black" points="304.5,-949 304.5,-1055 609.5,-1055 609.5,-949 304.5,-949"/>
</a>
</g>
</g>
<!-- ndStreamError&#45;&gt;ndSendError -->
<g id="edge22" class="edge"><title>ndStreamError&#45;&gt;ndSendError</title>
<path fill="none" stroke="black" d="M450.497,-944.942C447.269,-917.116 443.341,-883.263 439.937,-853.92"/>
<polygon fill="black" stroke="black" points="439.897,-853.571 435.232,-848.072 438.514,-841.651 443.179,-847.15 439.897,-853.571"/>
</g>
<!-- ndStreamError&#45;&gt;ndRecvError -->
<g id="edge23" class="edge"><title>ndStreamError&#45;&gt;ndRecvError</title>
<path fill="none" stroke="black" d="M520.991,-944.942C554.316,-915.75 595.213,-879.923 629.793,-849.631"/>
<polygon fill="black" stroke="black" points="629.876,-849.558 631.753,-842.596 638.902,-841.651 637.025,-848.613 629.876,-849.558"/>
</g>
<!-- ndSendStream&#45;&gt;ndConnection -->
<g id="edge24" class="edge"><title>ndSendStream&#45;&gt;ndConnection</title>
<path fill="none" stroke="black" d="M129.251,-539.962C127.992,-454.219 137.987,-255.324 249,-150 283.478,-117.289 387.284,-94.4147 483.304,-79.6566"/>
<polygon fill="black" stroke="black" points="493.466,-78.1202 484.251,-84.0647 488.522,-78.8677 483.578,-79.6152 483.578,-79.6152 483.578,-79.6152 488.522,-78.8677 482.906,-75.1658 493.466,-78.1202 493.466,-78.1202"/>
</g>
<!-- ndRecvStream&#45;&gt;ndConnection -->
<g id="edge25" class="edge"><title>ndRecvStream&#45;&gt;ndConnection</title>
<path fill="none" stroke="black" d="M388.299,-539.813C377.195,-456.79 364.301,-267.28 454,-150 462.837,-138.446 473.403,-128.327 485.049,-119.467"/>
<polygon fill="black" stroke="black" points="493.276,-113.533 487.798,-123.033 489.221,-116.458 485.166,-119.383 485.166,-119.383 485.166,-119.383 489.221,-116.458 482.533,-115.734 493.276,-113.533 493.276,-113.533"/>
</g>
<!-- ndConnectionIncoming&#45;&gt;ndConnection -->
<g id="edge26" class="edge"><title>ndConnectionIncoming&#45;&gt;ndConnection</title>
<path fill="none" stroke="black" d="M671,-149.754C671,-141.64 671,-133.103 671,-124.635"/>
<polygon fill="black" stroke="black" points="671,-114.375 675.5,-124.375 671,-119.375 671,-124.375 671,-124.375 671,-124.375 671,-119.375 666.5,-124.375 671,-114.375 671,-114.375"/>
</g>
<!-- ndChannelSender -->
<g id="node16" class="node"><title>ndChannelSender</title>
<g id="a_node16_15"><a xlink:href="https://github.com/maidsafe/qp2p/blob/master/src/tests/quinn.rs#:~:text=enum%20ChannelSender" xlink:title="&lt;TABLE&gt;">
<polygon fill="yellow" stroke="none" points="1118,-1204 1118,-1241 1369,-1241 1369,-1204 1118,-1204"/>
<polygon fill="none" stroke="black" points="1118,-1204 1118,-1241 1369,-1241 1369,-1204 1118,-1204"/>
<text text-anchor="start" x="1189" y="-1219.8" font-family="Arial" font-weight="bold" font-size="14.00">ChannelSender</text>
<polygon fill="white" stroke="none" points="1118,-1152 1118,-1204 1369,-1204 1369,-1152 1118,-1152"/>
<polygon fill="none" stroke="black" points="1118,-1152 1118,-1204 1369,-1204 1369,-1152 1118,-1152"/>
<text text-anchor="start" x="1129" y="-1181.8" font-family="Arial" font-size="14.00">Unbounded(UnboundedSender&lt;T&gt;)</text>
<text text-anchor="start" x="1129" y="-1166.8" font-family="Arial" font-size="14.00">Bounded(Sender&lt;T&gt;)</text>
<polygon fill="none" stroke="black" points="1116.5,-1151.5 1116.5,-1242.5 1369.5,-1242.5 1369.5,-1151.5 1116.5,-1151.5"/>
</a>
</g>
</g>
<!-- ndChannelReceiver -->
<g id="node17" class="node"><title>ndChannelReceiver</title>
<g id="a_node17_16"><a xlink:href="https://github.com/maidsafe/qp2p/blob/master/src/tests/quinn.rs#:~:text=enum%20ChannelReceiver" xlink:title="&lt;TABLE&gt;">
<polygon fill="yellow" stroke="none" points="1641,-1204 1641,-1241 1902,-1241 1902,-1204 1641,-1204"/>
<polygon fill="none" stroke="black" points="1641,-1204 1641,-1241 1902,-1241 1902,-1204 1641,-1204"/>
<text text-anchor="start" x="1712" y="-1219.8" font-family="Arial" font-weight="bold" font-size="14.00">ChannelReceiver</text>
<polygon fill="white" stroke="none" points="1641,-1152 1641,-1204 1902,-1204 1902,-1152 1641,-1152"/>
<polygon fill="none" stroke="black" points="1641,-1152 1641,-1204 1902,-1204 1902,-1152 1641,-1152"/>
<text text-anchor="start" x="1652" y="-1181.8" font-family="Arial" font-size="14.00">Unbounded(UnboundedReceiver&lt;T&gt;)</text>
<text text-anchor="start" x="1652" y="-1166.8" font-family="Arial" font-size="14.00">Bounded(Receiver&lt;T&gt;)</text>
<polygon fill="none" stroke="black" points="1639.5,-1151.5 1639.5,-1242.5 1902.5,-1242.5 1902.5,-1151.5 1639.5,-1151.5"/>
</a>
</g>
</g>
<!-- ndPeer -->
<g id="node18" class="node"><title>ndPeer</title>
<g id="a_node18_17"><a xlink:href="https://github.com/maidsafe/qp2p/blob/master/src/tests/quinn.rs#:~:text=struct%20Peer" xlink:title="&lt;TABLE&gt;">
<polygon fill="lightblue" stroke="none" points="1584,-1017 1584,-1054 1958,-1054 1958,-1017 1584,-1017"/>
<polygon fill="none" stroke="black" points="1584,-1017 1584,-1054 1958,-1054 1958,-1017 1584,-1017"/>
<text text-anchor="start" x="1754.5" y="-1032.8" font-family="Arial" font-weight="bold" font-size="14.00">Peer</text>
<polygon fill="white" stroke="none" points="1584,-950 1584,-1017 1958,-1017 1958,-950 1584,-950"/>
<polygon fill="none" stroke="black" points="1584,-950 1584,-1017 1958,-1017 1958,-950 1584,-950"/>
<text text-anchor="start" x="1595" y="-994.8" font-family="Arial" font-size="14.00">&#45; endpoint: quinn::Endpoint</text>
<text text-anchor="start" x="1595" y="-979.8" font-family="Arial" font-size="14.00">&#45; client_cfg: quinn::ClientConfig</text>
<text text-anchor="start" x="1595" y="-964.8" font-family="Arial" font-size="14.00">&#45; connections: Arc&lt;RwLock&lt;Vec&lt;quinn::Connection&gt;&gt;&gt;</text>
<polygon fill="none" stroke="black" points="1583,-949 1583,-1055 1959,-1055 1959,-949 1583,-949"/>
</a>
</g>
</g>
<!-- ndChannelReceiver&#45;&gt;ndPeer -->
<g id="edge27" class="edge"><title>ndChannelReceiver&#45;&gt;ndPeer</title>
<path fill="none" stroke="black" d="M1771,-1147.3C1771,-1123.64 1771,-1094.85 1771,-1069.23"/>
<polygon fill="black" stroke="black" points="1771,-1059.21 1775.5,-1069.21 1771,-1064.21 1771,-1069.21 1771,-1069.21 1771,-1069.21 1771,-1064.21 1766.5,-1069.21 1771,-1059.21 1771,-1059.21"/>
</g>
<!-- ndTimeout -->
<g id="node19" class="node"><title>ndTimeout</title>
<g id="a_node19_18"><a xlink:href="https://github.com/maidsafe/qp2p/blob/master/src/tests/common.rs#:~:text=trait%20Timeout" xlink:title="&lt;TABLE&gt;">
<polygon fill="lightgreen" stroke="none" points="1938,-1178 1938,-1215 2018,-1215 2018,-1178 1938,-1178"/>
<polygon fill="none" stroke="black" points="1938,-1178 1938,-1215 2018,-1215 2018,-1178 1938,-1178"/>
<text text-anchor="start" x="1949" y="-1193.8" font-family="Arial" font-weight="bold" font-size="14.00">Timeout</text>
<polygon fill="none" stroke="black" points="1937,-1177.5 1937,-1216.5 2019,-1216.5 2019,-1177.5 1937,-1177.5"/>
</a>
</g>
</g>
<!-- ndConfigError -->
<g id="node20" class="node"><title>ndConfigError</title>
<g id="a_node20_19"><a xlink:href="https://github.com/maidsafe/qp2p/blob/master/src/config.rs#:~:text=enum%20ConfigError" xlink:title="&lt;TABLE&gt;">
<polygon fill="yellow" stroke="none" points="1216,-1002 1216,-1039 1548,-1039 1548,-1002 1216,-1002"/>
<polygon fill="none" stroke="black" points="1216,-1002 1216,-1039 1548,-1039 1548,-1002 1216,-1002"/>
<text text-anchor="start" x="1340.5" y="-1017.8" font-family="Arial" font-weight="bold" font-size="14.00">ConfigError</text>
<polygon fill="white" stroke="none" points="1216,-965 1216,-1002 1548,-1002 1548,-965 1216,-965"/>
<polygon fill="none" stroke="black" points="1216,-965 1216,-1002 1548,-1002 1548,-965 1216,-965"/>
<text text-anchor="start" x="1227" y="-979.8" font-family="Arial" font-size="14.00">CertificateGeneration(CertificateGenerationError)</text>
<polygon fill="none" stroke="black" points="1215,-964 1215,-1040 1549,-1040 1549,-964 1215,-964"/>
</a>
</g>
</g>
<!-- ndConfigError&#45;&gt;ndEndpointError -->
<g id="edge28" class="edge"><title>ndConfigError&#45;&gt;ndEndpointError</title>
<path fill="none" stroke="black" d="M1326.01,-959.959C1285.17,-930.026 1228.89,-888.769 1181.3,-853.89"/>
<polygon fill="black" stroke="black" points="1181.28,-853.873 1174.07,-853.552 1171.6,-846.778 1178.8,-847.099 1181.28,-853.873"/>
</g>
<!-- ndConfigError&#45;&gt;ndClientEndpointError -->
<g id="edge29" class="edge"><title>ndConfigError&#45;&gt;ndClientEndpointError</title>
<path fill="none" stroke="black" d="M1354.29,-959.777C1304.13,-885.16 1198.14,-727.503 1140.44,-641.675"/>
<polygon fill="black" stroke="black" points="1140.35,-641.534 1133.68,-638.786 1133.65,-631.575 1140.32,-634.323 1140.35,-641.534"/>
</g>
<!-- ndConfig -->
<g id="node21" class="node"><title>ndConfig</title>
<g id="a_node21_20"><a xlink:href="https://github.com/maidsafe/qp2p/blob/master/src/config.rs#:~:text=struct%20Config" xlink:title="&lt;TABLE&gt;">
<polygon fill="lightblue" stroke="none" points="1256,-627 1256,-664 1542,-664 1542,-627 1256,-627"/>
<polygon fill="none" stroke="black" points="1256,-627 1256,-664 1542,-664 1542,-627 1256,-627"/>
<text text-anchor="start" x="1376" y="-642.8" font-family="Arial" font-weight="bold" font-size="14.00">Config</text>
<polygon fill="white" stroke="none" points="1256,-500 1256,-627 1542,-627 1542,-500 1256,-500"/>
<polygon fill="none" stroke="black" points="1256,-500 1256,-627 1542,-627 1542,-500 1256,-500"/>
<text text-anchor="start" x="1267" y="-604.8" font-family="Arial" font-size="14.00">+ forward_port: bool</text>
<text text-anchor="start" x="1267" y="-589.8" font-family="Arial" font-size="14.00">+ external_port: Option&lt;u16&gt;</text>
<text text-anchor="start" x="1267" y="-574.8" font-family="Arial" font-size="14.00">+ external_ip: Option&lt;IpAddr&gt;</text>
<text text-anchor="start" x="1267" y="-559.8" font-family="Arial" font-size="14.00">+ idle_timeout: Option&lt;Duration&gt;</text>
<text text-anchor="start" x="1267" y="-544.8" font-family="Arial" font-size="14.00">+ keep_alive_interval: Option&lt;Duration&gt;</text>
<text text-anchor="start" x="1267" y="-529.8" font-family="Arial" font-size="14.00">+ upnp_lease_duration: Option&lt;Duration&gt;</text>
<text text-anchor="start" x="1267" y="-514.8" font-family="Arial" font-size="14.00">+ retry_config: RetryConfig</text>
<polygon fill="none" stroke="black" points="1255,-499 1255,-665 1543,-665 1543,-499 1255,-499"/>
</a>
</g>
</g>
<!-- ndConfig&#45;&gt;ndEndpoint -->
<g id="edge30" class="edge"><title>ndConfig&#45;&gt;ndEndpoint</title>
<path fill="none" stroke="black" stroke-dasharray="5,2" d="M1261.57,-494.897C1237.5,-479.817 1212.6,-464.219 1188.98,-449.424"/>
<polygon fill="black" stroke="black" points="1180.35,-444.012 1191.21,-445.508 1184.58,-446.667 1188.82,-449.321 1188.82,-449.321 1188.82,-449.321 1184.58,-446.667 1186.43,-453.135 1180.35,-444.012 1180.35,-444.012"/>
</g>
<!-- ndInternalConfig -->
<g id="node23" class="node"><title>ndInternalConfig</title>
<g id="a_node23_21"><a xlink:href="https://github.com/maidsafe/qp2p/blob/master/src/config.rs#:~:text=struct%20InternalConfig" xlink:title="&lt;TABLE&gt;">
<polygon fill="lightblue" stroke="none" points="1319,-417 1319,-454 1546,-454 1546,-417 1319,-417"/>
<polygon fill="none" stroke="black" points="1319,-417 1319,-454 1546,-454 1546,-417 1319,-417"/>
<text text-anchor="start" x="1383" y="-432.8" font-family="Arial" font-weight="bold" font-size="14.00">InternalConfig</text>
<polygon fill="white" stroke="none" points="1319,-290 1319,-417 1546,-417 1546,-290 1319,-290"/>
<polygon fill="none" stroke="black" points="1319,-290 1319,-417 1546,-417 1546,-290 1319,-290"/>
<text text-anchor="start" x="1330" y="-394.8" font-family="Arial" font-size="14.00">&#45; client: quinn::ClientConfig</text>
<text text-anchor="start" x="1330" y="-379.8" font-family="Arial" font-size="14.00">&#45; server: quinn::ServerConfig</text>
<text text-anchor="start" x="1330" y="-364.8" font-family="Arial" font-size="14.00">&#45; forward_port: bool</text>
<text text-anchor="start" x="1330" y="-349.8" font-family="Arial" font-size="14.00">&#45; external_port: Option&lt;u16&gt;</text>
<text text-anchor="start" x="1330" y="-334.8" font-family="Arial" font-size="14.00">&#45; external_ip: Option&lt;IpAddr&gt;</text>
<text text-anchor="start" x="1330" y="-319.8" font-family="Arial" font-size="14.00">&#45; upnp_lease_duration: Duration</text>
<text text-anchor="start" x="1330" y="-304.8" font-family="Arial" font-size="14.00">&#45; retry_config: Arc&lt;RetryConfig&gt;</text>
<polygon fill="none" stroke="black" points="1317.5,-289 1317.5,-455 1546.5,-455 1546.5,-289 1317.5,-289"/>
</a>
</g>
</g>
<!-- ndConfig&#45;&gt;ndInternalConfig -->
<g id="edge31" class="edge"><title>ndConfig&#45;&gt;ndInternalConfig</title>
<path fill="none" stroke="black" stroke-dasharray="5,2" d="M1412.66,-494.897C1414.01,-486.382 1415.39,-477.702 1416.75,-469.095"/>
<polygon fill="black" stroke="black" points="1418.35,-459.038 1421.23,-469.62 1417.57,-463.977 1416.78,-468.915 1416.78,-468.915 1416.78,-468.915 1417.57,-463.977 1412.34,-468.21 1418.35,-459.038 1418.35,-459.038"/>
</g>
<!-- ndRetryConfig -->
<g id="node22" class="node"><title>ndRetryConfig</title>
<g id="a_node22_22"><a xlink:href="https://github.com/maidsafe/qp2p/blob/master/src/config.rs#:~:text=struct%20RetryConfig" xlink:title="&lt;TABLE&gt;">
<polygon fill="lightblue" stroke="none" points="1351,-814.5 1351,-851.5 1621,-851.5 1621,-814.5 1351,-814.5"/>
<polygon fill="none" stroke="black" points="1351,-814.5 1351,-851.5 1621,-851.5 1621,-814.5 1351,-814.5"/>
<text text-anchor="start" x="1444.5" y="-830.3" font-family="Arial" font-weight="bold" font-size="14.00">RetryConfig</text>
<polygon fill="white" stroke="none" points="1351,-717.5 1351,-814.5 1621,-814.5 1621,-717.5 1351,-717.5"/>
<polygon fill="none" stroke="black" points="1351,-717.5 1351,-814.5 1621,-814.5 1621,-717.5 1351,-717.5"/>
<text text-anchor="start" x="1362" y="-792.3" font-family="Arial" font-size="14.00">+ initial_retry_interval: Duration</text>
<text text-anchor="start" x="1362" y="-777.3" font-family="Arial" font-size="14.00">+ max_retry_interval: Duration</text>
<text text-anchor="start" x="1362" y="-762.3" font-family="Arial" font-size="14.00">+ retry_delay_multiplier: f64</text>
<text text-anchor="start" x="1362" y="-747.3" font-family="Arial" font-size="14.00">+ retry_delay_rand_factor: f64</text>
<text text-anchor="start" x="1362" y="-732.3" font-family="Arial" font-size="14.00">+ retrying_max_elapsed_time: Duration</text>
<polygon fill="none" stroke="black" points="1350,-716.5 1350,-852.5 1622,-852.5 1622,-716.5 1350,-716.5"/>
</a>
</g>
</g>
<!-- ndRetryConfig&#45;&gt;ndEndpoint -->
<g id="edge32" class="edge"><title>ndRetryConfig&#45;&gt;ndEndpoint</title>
<path fill="none" stroke="black" d="M1341.79,-743.338C1303.1,-726.175 1264.65,-702.185 1238,-669 1188.43,-607.283 1239.45,-563.624 1200,-495 1191.44,-480.102 1180.44,-465.988 1168.44,-453.006"/>
<polygon fill="black" stroke="black" points="1168.3,-452.862 1161.26,-451.302 1159.99,-444.204 1167.03,-445.763 1168.3,-452.862"/>
</g>
<!-- ndRetryConfig&#45;&gt;ndConnection -->
<g id="edge33" class="edge"><title>ndRetryConfig&#45;&gt;ndConnection</title>
<path fill="none" stroke="black" d="M1559.61,-712.433C1569.59,-699.014 1578.33,-684.34 1584,-669 1643.24,-508.674 1674.49,-414.55 1563,-285 1472.52,-179.866 1094.54,-112.931 860.603,-80.7351"/>
<polygon fill="black" stroke="black" points="860.424,-80.7106 853.938,-83.8622 848.534,-79.0872 855.02,-75.9357 860.424,-80.7106"/>
</g>
<!-- ndRetryConfig&#45;&gt;ndConfig -->
<g id="edge34" class="edge"><title>ndRetryConfig&#45;&gt;ndConfig</title>
<path fill="none" stroke="black" d="M1455.08,-712.247C1450.59,-701.888 1445.9,-691.077 1441.22,-680.312"/>
<polygon fill="black" stroke="black" points="1441.15,-680.138 1435.09,-676.226 1436.37,-669.13 1442.43,-673.042 1441.15,-680.138"/>
</g>
<!-- ndRetryConfig&#45;&gt;ndInternalConfig -->
<g id="edge35" class="edge"><title>ndRetryConfig&#45;&gt;ndInternalConfig</title>
<path fill="none" stroke="black" d="M1540.66,-712.353C1548.63,-698.625 1555.61,-683.869 1560,-669 1581.88,-594.827 1590.45,-566.086 1560,-495 1556.13,-485.972 1551.23,-477.295 1545.62,-469.023"/>
<polygon fill="black" stroke="black" points="1545.49,-468.846 1538.73,-466.341 1538.44,-459.136 1545.2,-461.64 1545.49,-468.846"/>
</g>
<!-- ndIgdError -->
<g id="node24" class="node"><title>ndIgdError</title>
<g id="a_node24_23"><a xlink:href="https://github.com/maidsafe/qp2p/blob/master/src/igd.rs#:~:text=enum%20IgdError" xlink:title="&lt;TABLE&gt;">
<polygon fill="yellow" stroke="none" points="985,-1024 985,-1061 1180,-1061 1180,-1024 985,-1024"/>
<polygon fill="none" stroke="black" points="985,-1024 985,-1061 1180,-1061 1180,-1024 985,-1024"/>
<text text-anchor="start" x="1053" y="-1039.8" font-family="Arial" font-weight="bold" font-size="14.00">IgdError</text>
<polygon fill="white" stroke="none" points="985,-942 985,-1024 1180,-1024 1180,-942 985,-942"/>
<polygon fill="none" stroke="black" points="985,-942 985,-1024 1180,-1024 1180,-942 985,-942"/>
<text text-anchor="start" x="996" y="-1001.8" font-family="Arial" font-size="14.00">TimedOut</text>
<text text-anchor="start" x="996" y="-986.8" font-family="Arial" font-size="14.00">NotSupported</text>
<text text-anchor="start" x="996" y="-971.8" font-family="Arial" font-size="14.00">AddPort(igd::AddPortError)</text>
<text text-anchor="start" x="996" y="-956.8" font-family="Arial" font-size="14.00">Search(igd::SearchError)</text>
<polygon fill="none" stroke="black" points="983.5,-941.5 983.5,-1062.5 1180.5,-1062.5 1180.5,-941.5 983.5,-941.5"/>
</a>
</g>
</g>
<!-- ndIgdError&#45;&gt;ndEndpointError -->
<g id="edge36" class="edge"><title>ndIgdError&#45;&gt;ndEndpointError</title>
<path fill="none" stroke="black" stroke-dasharray="5,2" d="M1083.78,-937.218C1084.33,-917.486 1084.94,-895.379 1085.53,-874.275"/>
<polygon fill="black" stroke="black" points="1085.81,-864.011 1090.03,-874.132 1085.67,-869.009 1085.54,-874.007 1085.54,-874.007 1085.54,-874.007 1085.67,-869.009 1081.04,-873.882 1085.81,-864.011 1085.81,-864.011"/>
</g>
</g>
</svg>
