<?xml version="1.0" encoding="UTF-8" standalone="no"?>
<!DOCTYPE svg PUBLIC "-//W3C//DTD SVG 1.1//EN"
 "http://www.w3.org/Graphics/SVG/1.1/DTD/svg11.dtd">
<!-- Generated by graphviz version 2.38.0 (20140413.2041)
 -->
<!-- Title: ml Pages: 1 -->
<svg width="909pt" height="636pt"
 viewBox="0.00 0.00 909.34 636.00" xmlns="http://www.w3.org/2000/svg" xmlns:xlink="http://www.w3.org/1999/xlink">
<g id="graph0" class="graph" transform="scale(1 1) rotate(0) translate(4 632)">
<title>ml</title>
<polygon fill="white" stroke="none" points="-4,4 -4,-632 905.337,-632 905.337,4 -4,4"/>
<!-- ndWireMsg -->
<g id="node1" class="node"><title>ndWireMsg</title>
<g id="a_node1_0"><a xlink:href="https://github.com/maidsafe/qp2p/blob/master/src/wire_msg.rs#:~:text=enum%20WireMsg" xlink:title="&lt;TABLE&gt;">
<polygon fill="yellow" stroke="none" points="498.837,-336.5 498.837,-373.5 581.837,-373.5 581.837,-336.5 498.837,-336.5"/>
<polygon fill="none" stroke="black" points="498.837,-336.5 498.837,-373.5 581.837,-373.5 581.837,-336.5 498.837,-336.5"/>
<text text-anchor="start" x="509.837" y="-352.3" font-family="Arial" font-weight="bold" font-size="14.00">WireMsg</text>
<polygon fill="none" stroke="black" points="497.337,-336 497.337,-375 582.337,-375 582.337,-336 497.337,-336"/>
</a>
</g>
</g>
<!-- ndSendStream -->
<g id="node13" class="node"><title>ndSendStream</title>
<g id="a_node13_1"><a xlink:href="https://github.com/maidsafe/qp2p/blob/master/src/connection.rs#:~:text=struct%20SendStream" xlink:title="&lt;TABLE&gt;">
<polygon fill="lightblue" stroke="none" points="555.837,-253.5 555.837,-290.5 663.837,-290.5 663.837,-253.5 555.837,-253.5"/>
<polygon fill="none" stroke="black" points="555.837,-253.5 555.837,-290.5 663.837,-290.5 663.837,-253.5 555.837,-253.5"/>
<text text-anchor="start" x="566.837" y="-269.3" font-family="Arial" font-weight="bold" font-size="14.00">SendStream</text>
<polygon fill="none" stroke="black" points="554.837,-253 554.837,-292 664.837,-292 664.837,-253 554.837,-253"/>
</a>
</g>
</g>
<!-- ndWireMsg&#45;&gt;ndSendStream -->
<g id="edge1" class="edge"><title>ndWireMsg&#45;&gt;ndSendStream</title>
<path fill="none" stroke="black" stroke-dasharray="5,2" d="M553.212,-331.937C560.085,-323.233 568.659,-313.144 577.074,-303.824"/>
<polygon fill="black" stroke="black" points="584.064,-296.223 580.607,-306.63 580.68,-299.903 577.295,-303.583 577.295,-303.583 577.295,-303.583 580.68,-299.903 573.983,-300.537 584.064,-296.223 584.064,-296.223"/>
</g>
<!-- ndRecvStream -->
<g id="node14" class="node"><title>ndRecvStream</title>
<g id="a_node14_2"><a xlink:href="https://github.com/maidsafe/qp2p/blob/master/src/connection.rs#:~:text=struct%20RecvStream" xlink:title="&lt;TABLE&gt;">
<polygon fill="lightblue" stroke="none" points="412.837,-253.5 412.837,-290.5 519.837,-290.5 519.837,-253.5 412.837,-253.5"/>
<polygon fill="none" stroke="black" points="412.837,-253.5 412.837,-290.5 519.837,-290.5 519.837,-253.5 412.837,-253.5"/>
<text text-anchor="start" x="423.837" y="-269.3" font-family="Arial" font-weight="bold" font-size="14.00">RecvStream</text>
<polygon fill="none" stroke="black" points="411.337,-253 411.337,-292 520.337,-292 520.337,-253 411.337,-253"/>
</a>
</g>
</g>
<!-- ndWireMsg&#45;&gt;ndRecvStream -->
<g id="edge2" class="edge"><title>ndWireMsg&#45;&gt;ndRecvStream</title>
<path fill="none" stroke="black" d="M513.1,-331.937C504.499,-323.233 495.137,-313.144 486.983,-303.824"/>
<polygon fill="black" stroke="black" points="480.461,-296.223 490.388,-300.881 483.717,-300.017 486.973,-303.812 486.973,-303.812 486.973,-303.812 483.717,-300.017 483.558,-306.742 480.461,-296.223 480.461,-296.223"/>
</g>
<!-- ndMsgHeader -->
<g id="node2" class="node"><title>ndMsgHeader</title>
<g id="a_node2_3"><a xlink:href="https://github.com/maidsafe/qp2p/blob/master/src/wire_msg.rs#:~:text=struct%20MsgHeader" xlink:title="&lt;TABLE&gt;">
<polygon fill="lightblue" stroke="none" points="617.837,-336.5 617.837,-373.5 719.837,-373.5 719.837,-336.5 617.837,-336.5"/>
<polygon fill="none" stroke="black" points="617.837,-336.5 617.837,-373.5 719.837,-373.5 719.837,-336.5 617.837,-336.5"/>
<text text-anchor="start" x="628.837" y="-352.3" font-family="Arial" font-weight="bold" font-size="14.00">MsgHeader</text>
<polygon fill="none" stroke="black" points="616.837,-336 616.837,-375 720.837,-375 720.837,-336 616.837,-336"/>
</a>
</g>
</g>
<!-- ndEndpoint -->
<g id="node3" class="node"><title>ndEndpoint</title>
<g id="a_node3_4"><a xlink:href="https://github.com/maidsafe/qp2p/blob/master/src/endpoint.rs#:~:text=struct%20Endpoint" xlink:title="&lt;TABLE&gt;">
<polygon fill="lightblue" stroke="none" points="333.837,-87.5 333.837,-124.5 419.837,-124.5 419.837,-87.5 333.837,-87.5"/>
<polygon fill="none" stroke="black" points="333.837,-87.5 333.837,-124.5 419.837,-124.5 419.837,-87.5 333.837,-87.5"/>
<text text-anchor="start" x="344.837" y="-103.3" font-family="Arial" font-weight="bold" font-size="14.00">Endpoint</text>
<polygon fill="none" stroke="black" points="332.837,-87 332.837,-126 420.837,-126 420.837,-87 332.837,-87"/>
</a>
</g>
</g>
<!-- ndConnection -->
<g id="node12" class="node"><title>ndConnection</title>
<g id="a_node12_5"><a xlink:href="https://github.com/maidsafe/qp2p/blob/master/src/connection.rs#:~:text=struct%20Connection" xlink:title="&lt;TABLE&gt;">
<polygon fill="lightblue" stroke="none" points="413.837,-170.5 413.837,-207.5 516.837,-207.5 516.837,-170.5 413.837,-170.5"/>
<polygon fill="none" stroke="black" points="413.837,-170.5 413.837,-207.5 516.837,-207.5 516.837,-170.5 413.837,-170.5"/>
<text text-anchor="start" x="424.837" y="-186.3" font-family="Arial" font-weight="bold" font-size="14.00">Connection</text>
<polygon fill="none" stroke="black" points="412.337,-170 412.337,-209 517.337,-209 517.337,-170 412.337,-170"/>
</a>
</g>
</g>
<!-- ndEndpoint&#45;&gt;ndConnection -->
<g id="edge3" class="edge"><title>ndEndpoint&#45;&gt;ndConnection</title>
<path fill="none" stroke="black" stroke-dasharray="5,2" d="M407.659,-130.223C417.979,-139.118 429.324,-149.441 439.212,-158.905"/>
<polygon fill="black" stroke="black" points="446.447,-165.937 436.14,-162.194 442.862,-162.452 439.276,-158.967 439.276,-158.967 439.276,-158.967 442.862,-162.452 442.412,-155.74 446.447,-165.937 446.447,-165.937"/>
</g>
<!-- ndConnectionIncoming -->
<g id="node15" class="node"><title>ndConnectionIncoming</title>
<g id="a_node15_6"><a xlink:href="https://github.com/maidsafe/qp2p/blob/master/src/connection.rs#:~:text=struct%20ConnectionIncoming" xlink:title="&lt;TABLE&gt;">
<polygon fill="lightblue" stroke="none" points="293.837,-4.5 293.837,-41.5 460.837,-41.5 460.837,-4.5 293.837,-4.5"/>
<polygon fill="none" stroke="black" points="293.837,-4.5 293.837,-41.5 460.837,-41.5 460.837,-4.5 293.837,-4.5"/>
<text text-anchor="start" x="304.837" y="-20.3" font-family="Arial" font-weight="bold" font-size="14.00">ConnectionIncoming</text>
<polygon fill="none" stroke="black" points="292.337,-4 292.337,-43 461.337,-43 461.337,-4 292.337,-4"/>
</a>
</g>
</g>
<!-- ndEndpoint&#45;&gt;ndConnectionIncoming -->
<g id="edge4" class="edge"><title>ndEndpoint&#45;&gt;ndConnectionIncoming</title>
<path fill="none" stroke="black" stroke-dasharray="5,2" d="M370.713,-82.937C370.122,-75.0164 369.949,-65.9488 370.195,-57.3574"/>
<polygon fill="black" stroke="black" points="370.702,-47.2229 374.696,-57.4353 370.452,-52.2167 370.202,-57.2105 370.202,-57.2105 370.202,-57.2105 370.452,-52.2167 365.708,-56.9857 370.702,-47.2229 370.702,-47.2229"/>
</g>
<!-- ndEndpointError -->
<g id="node4" class="node"><title>ndEndpointError</title>
<g id="a_node4_7"><a xlink:href="https://github.com/maidsafe/qp2p/blob/master/src/error.rs#:~:text=enum%20EndpointError" xlink:title="&lt;TABLE&gt;">
<polygon fill="yellow" stroke="none" points="141.837,-253.5 141.837,-290.5 263.837,-290.5 263.837,-253.5 141.837,-253.5"/>
<polygon fill="none" stroke="black" points="141.837,-253.5 141.837,-290.5 263.837,-290.5 263.837,-253.5 141.837,-253.5"/>
<text text-anchor="start" x="152.837" y="-269.3" font-family="Arial" font-weight="bold" font-size="14.00">EndpointError</text>
<polygon fill="none" stroke="black" points="140.837,-253 140.837,-292 264.837,-292 264.837,-253 140.837,-253"/>
</a>
</g>
</g>
<!-- ndEndpointError&#45;&gt;ndEndpoint -->
<g id="edge5" class="edge"><title>ndEndpointError&#45;&gt;ndEndpoint</title>
<path fill="none" stroke="black" d="M249.928,-248.979C267.345,-239.339 286.55,-227.05 301.837,-213 325.25,-191.482 345.695,-161.518 359.299,-139.02"/>
<polygon fill="black" stroke="black" points="364.523,-130.188 363.306,-141.086 361.978,-134.492 359.432,-138.795 359.432,-138.795 359.432,-138.795 361.978,-134.492 355.559,-136.505 364.523,-130.188 364.523,-130.188"/>
</g>
<!-- ndClientEndpointError -->
<g id="node5" class="node"><title>ndClientEndpointError</title>
<g id="a_node5_8"><a xlink:href="https://github.com/maidsafe/qp2p/blob/master/src/error.rs#:~:text=enum%20ClientEndpointError" xlink:title="&lt;TABLE&gt;">
<polygon fill="yellow" stroke="none" points="121.837,-170.5 121.837,-207.5 283.837,-207.5 283.837,-170.5 121.837,-170.5"/>
<polygon fill="none" stroke="black" points="121.837,-170.5 121.837,-207.5 283.837,-207.5 283.837,-170.5 121.837,-170.5"/>
<text text-anchor="start" x="132.837" y="-186.3" font-family="Arial" font-weight="bold" font-size="14.00">ClientEndpointError</text>
<polygon fill="none" stroke="black" points="120.837,-170 120.837,-209 284.837,-209 284.837,-170 120.837,-170"/>
</a>
</g>
</g>
<!-- ndEndpointError&#45;&gt;ndClientEndpointError -->
<g id="edge6" class="edge"><title>ndEndpointError&#45;&gt;ndClientEndpointError</title>
<path fill="none" stroke="black" stroke-dasharray="5,2" d="M202.837,-248.937C202.837,-241.016 202.837,-231.949 202.837,-223.357"/>
<polygon fill="black" stroke="black" points="202.837,-213.223 207.337,-223.223 202.837,-218.223 202.837,-223.223 202.837,-223.223 202.837,-223.223 202.837,-218.223 198.337,-223.223 202.837,-213.223 202.837,-213.223"/>
</g>
<!-- ndClientEndpointError&#45;&gt;ndEndpoint -->
<g id="edge7" class="edge"><title>ndClientEndpointError&#45;&gt;ndEndpoint</title>
<path fill="none" stroke="black" d="M251.305,-165.937C272.334,-156.148 297.127,-144.606 319.101,-134.377"/>
<polygon fill="black" stroke="black" points="328.326,-130.082 321.16,-138.382 323.794,-132.193 319.261,-134.303 319.261,-134.303 319.261,-134.303 323.794,-132.193 317.362,-130.223 328.326,-130.082 328.326,-130.082"/>
</g>
<!-- ndConnectionError -->
<g id="node6" class="node"><title>ndConnectionError</title>
<g id="a_node6_9"><a xlink:href="https://github.com/maidsafe/qp2p/blob/master/src/error.rs#:~:text=enum%20ConnectionError" xlink:title="&lt;TABLE&gt;">
<polygon fill="yellow" stroke="none" points="287.837,-502.5 287.837,-539.5 427.837,-539.5 427.837,-502.5 287.837,-502.5"/>
<polygon fill="none" stroke="black" points="287.837,-502.5 287.837,-539.5 427.837,-539.5 427.837,-502.5 287.837,-502.5"/>
<text text-anchor="start" x="298.837" y="-518.3" font-family="Arial" font-weight="bold" font-size="14.00">ConnectionError</text>
<polygon fill="none" stroke="black" points="286.837,-502 286.837,-541 428.837,-541 428.837,-502 286.837,-502"/>
</a>
</g>
</g>
<!-- ndConnectionError&#45;&gt;ndEndpoint -->
<g id="edge8" class="edge"><title>ndConnectionError&#45;&gt;ndEndpoint</title>
<path fill="none" stroke="black" d="M278.739,-511.816C198.868,-498.366 79.4509,-464.37 22.8367,-379 11.292,-361.591 18.136,-352.353 22.8367,-332 41.3106,-252.013 39.1844,-216.589 103.837,-166 136.083,-140.768 244.661,-123.362 314.781,-114.441"/>
<polygon fill="black" stroke="black" points="324.834,-113.186 315.468,-118.89 319.873,-113.806 314.911,-114.425 314.911,-114.425 314.911,-114.425 319.873,-113.806 314.354,-109.959 324.834,-113.186 324.834,-113.186"/>
</g>
<!-- ndRpcError -->
<g id="node8" class="node"><title>ndRpcError</title>
<g id="a_node8_10"><a xlink:href="https://github.com/maidsafe/qp2p/blob/master/src/error.rs#:~:text=enum%20RpcError" xlink:title="&lt;TABLE&gt;">
<polygon fill="yellow" stroke="none" points="337.837,-336.5 337.837,-373.5 423.837,-373.5 423.837,-336.5 337.837,-336.5"/>
<polygon fill="none" stroke="black" points="337.837,-336.5 337.837,-373.5 423.837,-373.5 423.837,-336.5 337.837,-336.5"/>
<text text-anchor="start" x="348.837" y="-352.3" font-family="Arial" font-weight="bold" font-size="14.00">RpcError</text>
<polygon fill="none" stroke="black" points="336.837,-336 336.837,-375 424.837,-375 424.837,-336 336.837,-336"/>
</a>
</g>
</g>
<!-- ndConnectionError&#45;&gt;ndRpcError -->
<g id="edge9" class="edge"><title>ndConnectionError&#45;&gt;ndRpcError</title>
<path fill="none" stroke="black" stroke-dasharray="5,2" d="M361.035,-497.697C364.983,-469.546 371.726,-421.465 376.231,-389.341"/>
<polygon fill="black" stroke="black" points="377.666,-379.11 380.733,-389.638 376.971,-384.061 376.277,-389.013 376.277,-389.013 376.277,-389.013 376.971,-384.061 371.821,-388.388 377.666,-379.11 377.666,-379.11"/>
</g>
<!-- ndSendError -->
<g id="node9" class="node"><title>ndSendError</title>
<g id="a_node9_11"><a xlink:href="https://github.com/maidsafe/qp2p/blob/master/src/error.rs#:~:text=enum%20SendError" xlink:title="&lt;TABLE&gt;">
<polygon fill="yellow" stroke="none" points="525.837,-419.5 525.837,-456.5 620.837,-456.5 620.837,-419.5 525.837,-419.5"/>
<polygon fill="none" stroke="black" points="525.837,-419.5 525.837,-456.5 620.837,-456.5 620.837,-419.5 525.837,-419.5"/>
<text text-anchor="start" x="536.837" y="-435.3" font-family="Arial" font-weight="bold" font-size="14.00">SendError</text>
<polygon fill="none" stroke="black" points="524.337,-419 524.337,-458 621.337,-458 621.337,-419 524.337,-419"/>
</a>
</g>
</g>
<!-- ndConnectionError&#45;&gt;ndSendError -->
<g id="edge10" class="edge"><title>ndConnectionError&#45;&gt;ndSendError</title>
<path fill="none" stroke="black" stroke-dasharray="5,2" d="M417.726,-497.937C444.809,-487.734 476.944,-475.627 504.922,-465.087"/>
<polygon fill="black" stroke="black" points="504.996,-465.059 509.2,-459.2 516.225,-460.828 512.021,-466.687 504.996,-465.059"/>
</g>
<!-- ndRecvError -->
<g id="node10" class="node"><title>ndRecvError</title>
<g id="a_node10_12"><a xlink:href="https://github.com/maidsafe/qp2p/blob/master/src/error.rs#:~:text=enum%20RecvError" xlink:title="&lt;TABLE&gt;">
<polygon fill="yellow" stroke="none" points="394.837,-419.5 394.837,-456.5 488.837,-456.5 488.837,-419.5 394.837,-419.5"/>
<polygon fill="none" stroke="black" points="394.837,-419.5 394.837,-456.5 488.837,-456.5 488.837,-419.5 394.837,-419.5"/>
<text text-anchor="start" x="405.837" y="-435.3" font-family="Arial" font-weight="bold" font-size="14.00">RecvError</text>
<polygon fill="none" stroke="black" points="393.837,-419 393.837,-458 489.837,-458 489.837,-419 393.837,-419"/>
</a>
</g>
</g>
<!-- ndConnectionError&#45;&gt;ndRecvError -->
<g id="edge11" class="edge"><title>ndConnectionError&#45;&gt;ndRecvError</title>
<path fill="none" stroke="black" stroke-dasharray="5,2" d="M381.235,-497.937C389.991,-489.494 400.098,-479.748 409.518,-470.665"/>
<polygon fill="black" stroke="black" points="409.634,-470.553 411.177,-463.508 418.272,-462.223 416.73,-469.267 409.634,-470.553"/>
</g>
<!-- ndConnectionError&#45;&gt;ndConnection -->
<g id="edge12" class="edge"><title>ndConnectionError&#45;&gt;ndConnection</title>
<path fill="none" stroke="black" d="M345.319,-497.777C327.164,-461.667 297.964,-389.4 319.837,-332 338.389,-283.314 384.017,-243.595 419.177,-218.767"/>
<polygon fill="black" stroke="black" points="427.412,-213.085 421.736,-222.468 423.296,-215.925 419.181,-218.764 419.181,-218.764 419.181,-218.764 423.296,-215.925 416.625,-215.06 427.412,-213.085 427.412,-213.085"/>
</g>
<!-- ndClose -->
<g id="node7" class="node"><title>ndClose</title>
<g id="a_node7_13"><a xlink:href="https://github.com/maidsafe/qp2p/blob/master/src/error.rs#:~:text=enum%20Close" xlink:title="&lt;TABLE&gt;">
<polygon fill="yellow" stroke="none" points="326.837,-585.5 326.837,-622.5 388.837,-622.5 388.837,-585.5 326.837,-585.5"/>
<polygon fill="none" stroke="black" points="326.837,-585.5 326.837,-622.5 388.837,-622.5 388.837,-585.5 326.837,-585.5"/>
<text text-anchor="start" x="337.837" y="-601.3" font-family="Arial" font-weight="bold" font-size="14.00">Close</text>
<polygon fill="none" stroke="black" points="325.837,-585 325.837,-624 389.837,-624 389.837,-585 325.837,-585"/>
</a>
</g>
</g>
<!-- ndClose&#45;&gt;ndConnectionError -->
<g id="edge13" class="edge"><title>ndClose&#45;&gt;ndConnectionError</title>
<path fill="none" stroke="black" d="M357.837,-580.937C357.837,-573.626 357.837,-565.337 357.837,-557.348"/>
<polygon fill="black" stroke="black" points="357.837,-557.223 353.837,-551.223 357.837,-545.223 361.837,-551.223 357.837,-557.223"/>
</g>
<!-- ndRpcError&#45;&gt;ndEndpoint -->
<g id="edge14" class="edge"><title>ndRpcError&#45;&gt;ndEndpoint</title>
<path fill="none" stroke="black" d="M380.468,-331.706C379.756,-287.776 378.193,-191.245 377.369,-140.368"/>
<polygon fill="black" stroke="black" points="377.205,-130.239 381.866,-140.165 377.286,-135.239 377.367,-140.238 377.367,-140.238 377.367,-140.238 377.286,-135.239 372.868,-140.311 377.205,-130.239 377.205,-130.239"/>
</g>
<!-- ndSendError&#45;&gt;ndWireMsg -->
<g id="edge15" class="edge"><title>ndSendError&#45;&gt;ndWireMsg</title>
<path fill="none" stroke="black" d="M563.644,-414.937C560.311,-406.755 556.479,-397.35 552.878,-388.509"/>
<polygon fill="black" stroke="black" points="549.094,-379.223 557.035,-386.786 550.981,-383.853 552.867,-388.484 552.867,-388.484 552.867,-388.484 550.981,-383.853 548.7,-390.182 549.094,-379.223 549.094,-379.223"/>
</g>
<!-- ndSendError&#45;&gt;ndMsgHeader -->
<g id="edge16" class="edge"><title>ndSendError&#45;&gt;ndMsgHeader</title>
<path fill="none" stroke="black" d="M599.578,-414.937C610.306,-405.885 622.81,-395.335 634.218,-385.709"/>
<polygon fill="black" stroke="black" points="641.906,-379.223 637.165,-389.111 638.084,-382.447 634.263,-385.672 634.263,-385.672 634.263,-385.672 638.084,-382.447 631.361,-382.232 641.906,-379.223 641.906,-379.223"/>
</g>
<!-- ndSendError&#45;&gt;ndRpcError -->
<g id="edge17" class="edge"><title>ndSendError&#45;&gt;ndRpcError</title>
<path fill="none" stroke="black" d="M519.354,-414.937C496.077,-405.117 468.621,-393.534 444.318,-383.281"/>
<polygon fill="black" stroke="black" points="444.094,-383.187 437.011,-384.54 433.038,-378.522 440.121,-377.169 444.094,-383.187"/>
</g>
<!-- ndSendError&#45;&gt;ndConnection -->
<g id="edge18" class="edge"><title>ndSendError&#45;&gt;ndConnection</title>
<path fill="none" stroke="black" d="M629.556,-436.259C672.161,-431.974 727.946,-418.502 756.837,-379 769.168,-362.139 764.34,-351.495 756.837,-332 738.978,-285.6 724.232,-274.973 681.837,-249 680.196,-247.995 598.12,-225.999 535.398,-209.274"/>
<polygon fill="black" stroke="black" points="525.513,-206.639 536.334,-204.866 530.344,-207.927 535.175,-209.215 535.175,-209.215 535.175,-209.215 530.344,-207.927 534.016,-213.563 525.513,-206.639 525.513,-206.639"/>
</g>
<!-- ndSendError&#45;&gt;ndSendStream -->
<g id="edge19" class="edge"><title>ndSendError&#45;&gt;ndSendStream</title>
<path fill="none" stroke="black" d="M629.454,-433.633C666.911,-427.786 713.461,-413.505 737.837,-379 749.889,-361.939 749.128,-349.574 737.837,-332 725.182,-312.303 704.068,-299.155 682.6,-290.413"/>
<polygon fill="black" stroke="black" points="673.073,-286.815 684.018,-286.139 677.75,-288.582 682.428,-290.348 682.428,-290.348 682.428,-290.348 677.75,-288.582 680.838,-294.558 673.073,-286.815 673.073,-286.815"/>
</g>
<!-- ndRecvError&#45;&gt;ndWireMsg -->
<g id="edge20" class="edge"><title>ndRecvError&#45;&gt;ndWireMsg</title>
<path fill="none" stroke="black" d="M469.135,-414.937C480.087,-405.885 492.852,-395.335 504.497,-385.709"/>
<polygon fill="black" stroke="black" points="512.345,-379.223 507.504,-389.062 508.491,-382.408 504.637,-385.594 504.637,-385.594 504.637,-385.594 508.491,-382.408 501.77,-382.125 512.345,-379.223 512.345,-379.223"/>
</g>
<!-- ndRecvError&#45;&gt;ndRpcError -->
<g id="edge21" class="edge"><title>ndRecvError&#45;&gt;ndRpcError</title>
<path fill="none" stroke="black" d="M424.845,-414.937C418.814,-406.929 411.901,-397.749 405.368,-389.074"/>
<polygon fill="black" stroke="black" points="405.168,-388.809 398.363,-386.422 397.949,-379.223 404.754,-381.61 405.168,-388.809"/>
</g>
<!-- ndRecvError&#45;&gt;ndRecvStream -->
<g id="edge22" class="edge"><title>ndRecvError&#45;&gt;ndRecvStream</title>
<path fill="none" stroke="black" d="M445.174,-414.697C449.293,-386.546 456.33,-338.465 461.031,-306.341"/>
<polygon fill="black" stroke="black" points="462.528,-296.11 465.532,-306.656 461.804,-301.057 461.08,-306.004 461.08,-306.004 461.08,-306.004 461.804,-301.057 456.627,-305.353 462.528,-296.11 462.528,-296.11"/>
</g>
<!-- ndRecvError&#45;&gt;ndConnectionIncoming -->
<g id="edge23" class="edge"><title>ndRecvError&#45;&gt;ndConnectionIncoming</title>
<path fill="none" stroke="black" d="M385.5,-437.517C283.393,-436.317 73.6032,-427.802 22.8367,-379 -11.5102,-345.982 3.83675,-321.143 3.83675,-273.5 3.83675,-273.5 3.83675,-273.5 3.83675,-188.5 3.83675,-69.9964 163.558,-36.3585 273.966,-27.2624"/>
<polygon fill="black" stroke="black" points="284.155,-26.4804 274.529,-31.7324 279.17,-26.863 274.185,-27.2456 274.185,-27.2456 274.185,-27.2456 279.17,-26.863 273.84,-22.7588 284.155,-26.4804 284.155,-26.4804"/>
</g>
<!-- ndStreamError -->
<g id="node11" class="node"><title>ndStreamError</title>
<g id="a_node11_14"><a xlink:href="https://github.com/maidsafe/qp2p/blob/master/src/error.rs#:~:text=enum%20StreamError" xlink:title="&lt;TABLE&gt;">
<polygon fill="yellow" stroke="none" points="477.837,-502.5 477.837,-539.5 586.837,-539.5 586.837,-502.5 477.837,-502.5"/>
<polygon fill="none" stroke="black" points="477.837,-502.5 477.837,-539.5 586.837,-539.5 586.837,-502.5 477.837,-502.5"/>
<text text-anchor="start" x="488.837" y="-518.3" font-family="Arial" font-weight="bold" font-size="14.00">StreamError</text>
<polygon fill="none" stroke="black" points="476.337,-502 476.337,-541 587.337,-541 587.337,-502 476.337,-502"/>
</a>
</g>
</g>
<!-- ndStreamError&#45;&gt;ndSendError -->
<g id="edge24" class="edge"><title>ndStreamError&#45;&gt;ndSendError</title>
<path fill="none" stroke="black" d="M543.258,-497.937C547.135,-490.278 551.554,-481.545 555.774,-473.209"/>
<polygon fill="black" stroke="black" points="555.916,-472.93 555.056,-465.77 561.335,-462.223 562.194,-469.383 555.916,-472.93"/>
</g>
<!-- ndStreamError&#45;&gt;ndRecvError -->
<g id="edge25" class="edge"><title>ndStreamError&#45;&gt;ndRecvError</title>
<path fill="none" stroke="black" d="M506.767,-497.937C497.289,-489.407 486.333,-479.547 476.152,-470.384"/>
<polygon fill="black" stroke="black" points="476.004,-470.251 468.868,-469.21 467.084,-462.223 474.22,-463.264 476.004,-470.251"/>
</g>
<!-- ndConnection&#45;&gt;ndEndpoint -->
<g id="edge26" class="edge"><title>ndConnection&#45;&gt;ndEndpoint</title>
<path fill="none" stroke="black" stroke-dasharray="5,2" d="M434.2,-165.937C423.893,-157.059 412.545,-146.74 402.64,-137.266"/>
<polygon fill="black" stroke="black" points="395.388,-130.223 405.697,-133.962 398.975,-133.706 402.562,-137.19 402.562,-137.19 402.562,-137.19 398.975,-133.706 399.427,-140.418 395.388,-130.223 395.388,-130.223"/>
</g>
<!-- ndSendStream&#45;&gt;ndWireMsg -->
<g id="edge27" class="edge"><title>ndSendStream&#45;&gt;ndWireMsg</title>
<path fill="none" stroke="black" stroke-dasharray="5,2" d="M596.335,-296.223C589.442,-304.944 580.858,-315.036 572.445,-324.347"/>
<polygon fill="black" stroke="black" points="565.459,-331.937 568.92,-321.532 568.845,-328.258 572.231,-324.579 572.231,-324.579 572.231,-324.579 568.845,-328.258 575.542,-327.627 565.459,-331.937 565.459,-331.937"/>
</g>
<!-- ndSendStream&#45;&gt;ndConnection -->
<g id="edge28" class="edge"><title>ndSendStream&#45;&gt;ndConnection</title>
<path fill="none" stroke="black" d="M569.446,-248.937C552.391,-239.41 532.366,-228.223 514.426,-218.202"/>
<polygon fill="black" stroke="black" points="505.262,-213.082 516.187,-214.031 509.627,-215.521 513.992,-217.959 513.992,-217.959 513.992,-217.959 509.627,-215.521 511.798,-221.888 505.262,-213.082 505.262,-213.082"/>
</g>
<!-- ndRecvStream&#45;&gt;ndWireMsg -->
<g id="edge29" class="edge"><title>ndRecvStream&#45;&gt;ndWireMsg</title>
<path fill="none" stroke="black" stroke-dasharray="5,2" d="M492.731,-296.223C501.256,-304.857 510.514,-314.835 518.595,-324.068"/>
<polygon fill="black" stroke="black" points="525.347,-331.937 515.42,-327.278 522.091,-328.142 518.835,-324.347 518.835,-324.347 518.835,-324.347 522.091,-328.142 522.251,-321.417 525.347,-331.937 525.347,-331.937"/>
</g>
<!-- ndRecvStream&#45;&gt;ndConnection -->
<g id="edge30" class="edge"><title>ndRecvStream&#45;&gt;ndConnection</title>
<path fill="none" stroke="black" d="M465.558,-248.937C465.46,-241.016 465.348,-231.949 465.242,-223.357"/>
<polygon fill="black" stroke="black" points="465.117,-213.223 469.74,-223.167 465.179,-218.223 465.241,-223.222 465.241,-223.222 465.241,-223.222 465.179,-218.223 460.741,-223.278 465.117,-213.223 465.117,-213.223"/>
</g>
<!-- ndConnectionIncoming&#45;&gt;ndEndpoint -->
<g id="edge31" class="edge"><title>ndConnectionIncoming&#45;&gt;ndEndpoint</title>
<path fill="none" stroke="black" d="M382.972,-47.2229C383.558,-55.1589 383.725,-64.2309 383.474,-72.8159"/>
<polygon fill="black" stroke="black" points="382.96,-82.937 378.973,-72.7217 383.214,-77.9434 383.467,-72.9498 383.467,-72.9498 383.467,-72.9498 383.214,-77.9434 387.961,-73.178 382.96,-82.937 382.96,-82.937"/>
</g>
<!-- ndConnectionIncoming&#45;&gt;ndConnection -->
<g id="edge32" class="edge"><title>ndConnectionIncoming&#45;&gt;ndConnection</title>
<path fill="none" stroke="black" d="M406.731,-47.1041C417.966,-56.9969 429.921,-69.4412 437.837,-83 450.862,-105.31 457.674,-133.86 461.196,-155.633"/>
<polygon fill="black" stroke="black" points="462.673,-165.72 456.772,-156.478 461.949,-160.773 461.224,-155.825 461.224,-155.825 461.224,-155.825 461.949,-160.773 465.677,-155.173 462.673,-165.72 462.673,-165.72"/>
</g>
<!-- ndChannelSender -->
<g id="node16" class="node"><title>ndChannelSender</title>
<g id="a_node16_15"><a xlink:href="https://github.com/maidsafe/qp2p/blob/master/src/tests/quinn.rs#:~:text=enum%20ChannelSender" xlink:title="&lt;TABLE&gt;">
<polygon fill="yellow" stroke="none" points="425.837,-585.5 425.837,-622.5 556.837,-622.5 556.837,-585.5 425.837,-585.5"/>
<polygon fill="none" stroke="black" points="425.837,-585.5 425.837,-622.5 556.837,-622.5 556.837,-585.5 425.837,-585.5"/>
<text text-anchor="start" x="436.837" y="-601.3" font-family="Arial" font-weight="bold" font-size="14.00">ChannelSender</text>
<polygon fill="none" stroke="black" points="424.337,-585 424.337,-624 557.337,-624 557.337,-585 424.337,-585"/>
</a>
</g>
</g>
<!-- ndChannelReceiver -->
<g id="node17" class="node"><title>ndChannelReceiver</title>
<g id="a_node17_16"><a xlink:href="https://github.com/maidsafe/qp2p/blob/master/src/tests/quinn.rs#:~:text=enum%20ChannelReceiver" xlink:title="&lt;TABLE&gt;">
<polygon fill="yellow" stroke="none" points="592.837,-585.5 592.837,-622.5 733.837,-622.5 733.837,-585.5 592.837,-585.5"/>
<polygon fill="none" stroke="black" points="592.837,-585.5 592.837,-622.5 733.837,-622.5 733.837,-585.5 592.837,-585.5"/>
<text text-anchor="start" x="603.837" y="-601.3" font-family="Arial" font-weight="bold" font-size="14.00">ChannelReceiver</text>
<polygon fill="none" stroke="black" points="591.337,-585 591.337,-624 734.337,-624 734.337,-585 591.337,-585"/>
</a>
</g>
</g>
<!-- ndPeer -->
<g id="node18" class="node"><title>ndPeer</title>
<g id="a_node18_17"><a xlink:href="https://github.com/maidsafe/qp2p/blob/master/src/tests/quinn.rs#:~:text=struct%20Peer" xlink:title="&lt;TABLE&gt;">
<polygon fill="lightblue" stroke="none" points="635.837,-502.5 635.837,-539.5 690.837,-539.5 690.837,-502.5 635.837,-502.5"/>
<polygon fill="none" stroke="black" points="635.837,-502.5 635.837,-539.5 690.837,-539.5 690.837,-502.5 635.837,-502.5"/>
<text text-anchor="start" x="646.837" y="-518.3" font-family="Arial" font-weight="bold" font-size="14.00">Peer</text>
<polygon fill="none" stroke="black" points="634.337,-502 634.337,-541 691.337,-541 691.337,-502 634.337,-502"/>
</a>
</g>
</g>
<!-- ndChannelReceiver&#45;&gt;ndPeer -->
<g id="edge33" class="edge"><title>ndChannelReceiver&#45;&gt;ndPeer</title>
<path fill="none" stroke="black" d="M662.837,-580.937C662.837,-573.016 662.837,-563.949 662.837,-555.357"/>
<polygon fill="black" stroke="black" points="662.837,-545.223 667.337,-555.223 662.837,-550.223 662.837,-555.223 662.837,-555.223 662.837,-555.223 662.837,-550.223 658.337,-555.223 662.837,-545.223 662.837,-545.223"/>
</g>
<!-- ndTimeout -->
<g id="node19" class="node"><title>ndTimeout</title>
<g id="a_node19_18"><a xlink:href="https://github.com/maidsafe/qp2p/blob/master/src/tests/common.rs#:~:text=trait%20Timeout" xlink:title="&lt;TABLE&gt;">
<polygon fill="lightgreen" stroke="none" points="768.837,-585.5 768.837,-622.5 848.837,-622.5 848.837,-585.5 768.837,-585.5"/>
<polygon fill="none" stroke="black" points="768.837,-585.5 768.837,-622.5 848.837,-622.5 848.837,-585.5 768.837,-585.5"/>
<text text-anchor="start" x="779.837" y="-601.3" font-family="Arial" font-weight="bold" font-size="14.00">Timeout</text>
<polygon fill="none" stroke="black" points="767.837,-585 767.837,-624 849.837,-624 849.837,-585 767.837,-585"/>
</a>
</g>
</g>
<!-- ndConfigError -->
<g id="node20" class="node"><title>ndConfigError</title>
<g id="a_node20_19"><a xlink:href="https://github.com/maidsafe/qp2p/blob/master/src/config.rs#:~:text=enum%20ConfigError" xlink:title="&lt;TABLE&gt;">
<polygon fill="yellow" stroke="none" points="41.8367,-336.5 41.8367,-373.5 146.837,-373.5 146.837,-336.5 41.8367,-336.5"/>
<polygon fill="none" stroke="black" points="41.8367,-336.5 41.8367,-373.5 146.837,-373.5 146.837,-336.5 41.8367,-336.5"/>
<text text-anchor="start" x="52.8367" y="-352.3" font-family="Arial" font-weight="bold" font-size="14.00">ConfigError</text>
<polygon fill="none" stroke="black" points="40.3367,-336 40.3367,-375 147.337,-375 147.337,-336 40.3367,-336"/>
</a>
</g>
</g>
<!-- ndConfigError&#45;&gt;ndEndpointError -->
<g id="edge34" class="edge"><title>ndConfigError&#45;&gt;ndEndpointError</title>
<path fill="none" stroke="black" d="M124.199,-331.937C136.029,-323.146 149.76,-312.942 162.407,-303.544"/>
<polygon fill="black" stroke="black" points="162.627,-303.38 165.057,-296.591 172.259,-296.223 169.829,-303.012 162.627,-303.38"/>
</g>
<!-- ndConfigError&#45;&gt;ndClientEndpointError -->
<g id="edge35" class="edge"><title>ndConfigError&#45;&gt;ndClientEndpointError</title>
<path fill="none" stroke="black" d="M96.016,-331.689C99.1173,-309.003 106.502,-274.056 123.837,-249 131.345,-238.147 141.526,-228.513 152.079,-220.352"/>
<polygon fill="black" stroke="black" points="152.103,-220.334 154.604,-213.571 161.809,-213.278 159.308,-220.041 152.103,-220.334"/>
</g>
<!-- ndConfig -->
<g id="node21" class="node"><title>ndConfig</title>
<g id="a_node21_20"><a xlink:href="https://github.com/maidsafe/qp2p/blob/master/src/config.rs#:~:text=struct%20Config" xlink:title="&lt;TABLE&gt;">
<polygon fill="lightblue" stroke="none" points="734.837,-170.5 734.837,-207.5 802.837,-207.5 802.837,-170.5 734.837,-170.5"/>
<polygon fill="none" stroke="black" points="734.837,-170.5 734.837,-207.5 802.837,-207.5 802.837,-170.5 734.837,-170.5"/>
<text text-anchor="start" x="745.837" y="-186.3" font-family="Arial" font-weight="bold" font-size="14.00">Config</text>
<polygon fill="none" stroke="black" points="733.837,-170 733.837,-209 803.837,-209 803.837,-170 733.837,-170"/>
</a>
</g>
</g>
<!-- ndConfig&#45;&gt;ndEndpoint -->
<g id="edge36" class="edge"><title>ndConfig&#45;&gt;ndEndpoint</title>
<path fill="none" stroke="black" stroke-dasharray="5,2" d="M725.765,-179.6C656.243,-165.234 519.013,-136.878 438.93,-120.33"/>
<polygon fill="black" stroke="black" points="428.978,-118.274 439.682,-115.891 433.875,-119.286 438.771,-120.298 438.771,-120.298 438.771,-120.298 433.875,-119.286 437.86,-124.705 428.978,-118.274 428.978,-118.274"/>
</g>
<!-- ndInternalConfig -->
<g id="node23" class="node"><title>ndInternalConfig</title>
<g id="a_node23_21"><a xlink:href="https://github.com/maidsafe/qp2p/blob/master/src/config.rs#:~:text=struct%20InternalConfig" xlink:title="&lt;TABLE&gt;">
<polygon fill="lightblue" stroke="none" points="743.837,-87.5 743.837,-124.5 864.837,-124.5 864.837,-87.5 743.837,-87.5"/>
<polygon fill="none" stroke="black" points="743.837,-87.5 743.837,-124.5 864.837,-124.5 864.837,-87.5 743.837,-87.5"/>
<text text-anchor="start" x="754.837" y="-103.3" font-family="Arial" font-weight="bold" font-size="14.00">InternalConfig</text>
<polygon fill="none" stroke="black" points="742.337,-87 742.337,-126 865.337,-126 865.337,-87 742.337,-87"/>
</a>
</g>
</g>
<!-- ndConfig&#45;&gt;ndInternalConfig -->
<g id="edge37" class="edge"><title>ndConfig&#45;&gt;ndInternalConfig</title>
<path fill="none" stroke="black" stroke-dasharray="5,2" d="M778.586,-165.937C782.121,-157.755 786.186,-148.35 790.006,-139.509"/>
<polygon fill="black" stroke="black" points="794.018,-130.223 794.182,-141.188 792.035,-134.813 790.052,-139.403 790.052,-139.403 790.052,-139.403 792.035,-134.813 785.921,-137.618 794.018,-130.223 794.018,-130.223"/>
</g>
<!-- ndRetryConfig -->
<g id="node22" class="node"><title>ndRetryConfig</title>
<g id="a_node22_22"><a xlink:href="https://github.com/maidsafe/qp2p/blob/master/src/config.rs#:~:text=struct%20RetryConfig" xlink:title="&lt;TABLE&gt;">
<polygon fill="lightblue" stroke="none" points="787.837,-253.5 787.837,-290.5 892.837,-290.5 892.837,-253.5 787.837,-253.5"/>
<polygon fill="none" stroke="black" points="787.837,-253.5 787.837,-290.5 892.837,-290.5 892.837,-253.5 787.837,-253.5"/>
<text text-anchor="start" x="798.837" y="-269.3" font-family="Arial" font-weight="bold" font-size="14.00">RetryConfig</text>
<polygon fill="none" stroke="black" points="786.337,-253 786.337,-292 893.337,-292 893.337,-253 786.337,-253"/>
</a>
</g>
</g>
<!-- ndRetryConfig&#45;&gt;ndEndpoint -->
<g id="edge38" class="edge"><title>ndRetryConfig&#45;&gt;ndEndpoint</title>
<path fill="none" stroke="black" d="M777.875,-249.552C689.912,-218.395 529.66,-161.632 440.68,-130.114"/>
<polygon fill="black" stroke="black" points="440.45,-130.033 433.459,-131.8 429.139,-126.026 436.13,-124.259 440.45,-130.033"/>
</g>
<!-- ndRetryConfig&#45;&gt;ndConnection -->
<g id="edge39" class="edge"><title>ndRetryConfig&#45;&gt;ndConnection</title>
<path fill="none" stroke="black" d="M778.168,-252.712C773.333,-251.401 768.514,-250.147 763.837,-249 687.301,-230.228 598.579,-213.492 537.777,-202.78"/>
<polygon fill="black" stroke="black" points="537.442,-202.722 530.842,-205.628 525.621,-200.653 532.221,-197.747 537.442,-202.722"/>
</g>
<!-- ndRetryConfig&#45;&gt;ndConfig -->
<g id="edge40" class="edge"><title>ndRetryConfig&#45;&gt;ndConfig</title>
<path fill="none" stroke="black" d="M820.059,-248.937C812.888,-240.755 804.643,-231.35 796.894,-222.509"/>
<polygon fill="black" stroke="black" points="796.664,-222.247 789.701,-220.372 788.754,-213.223 795.717,-215.098 796.664,-222.247"/>
</g>
<!-- ndRetryConfig&#45;&gt;ndInternalConfig -->
<g id="edge41" class="edge"><title>ndRetryConfig&#45;&gt;ndInternalConfig</title>
<path fill="none" stroke="black" d="M836.44,-248.721C833.074,-227.258 827.47,-194.265 820.837,-166 818.975,-158.068 816.695,-149.613 814.416,-141.668"/>
<polygon fill="black" stroke="black" points="814.409,-141.644 808.875,-137.021 811.014,-130.135 816.548,-134.758 814.409,-141.644"/>
</g>
<!-- ndIgdError -->
<g id="node24" class="node"><title>ndIgdError</title>
<g id="a_node24_23"><a xlink:href="https://github.com/maidsafe/qp2p/blob/master/src/igd.rs#:~:text=enum%20IgdError" xlink:title="&lt;TABLE&gt;">
<polygon fill="yellow" stroke="none" points="182.837,-336.5 182.837,-373.5 263.837,-373.5 263.837,-336.5 182.837,-336.5"/>
<polygon fill="none" stroke="black" points="182.837,-336.5 182.837,-373.5 263.837,-373.5 263.837,-336.5 182.837,-336.5"/>
<text text-anchor="start" x="193.837" y="-352.3" font-family="Arial" font-weight="bold" font-size="14.00">IgdError</text>
<polygon fill="none" stroke="black" points="181.337,-336 181.337,-375 264.337,-375 264.337,-336 181.337,-336"/>
</a>
</g>
</g>
<!-- ndIgdError&#45;&gt;ndEndpointError -->
<g id="edge42" class="edge"><title>ndIgdError&#45;&gt;ndEndpointError</title>
<path fill="none" stroke="black" stroke-dasharray="5,2" d="M217.266,-331.937C215.288,-323.929 213.022,-314.749 210.88,-306.074"/>
<polygon fill="black" stroke="black" points="208.447,-296.223 215.213,-304.853 209.646,-301.077 210.845,-305.931 210.845,-305.931 210.845,-305.931 209.646,-301.077 206.476,-307.01 208.447,-296.223 208.447,-296.223"/>
</g>
</g>
</svg>
