<?xml version="1.0" encoding="UTF-8" standalone="no"?>
<!DOCTYPE svg PUBLIC "-//W3C//DTD SVG 1.1//EN"
 "http://www.w3.org/Graphics/SVG/1.1/DTD/svg11.dtd">
<!-- Generated by graphviz version 2.38.0 (20140413.2041)
 -->
<!-- Title: ml Pages: 1 -->
<svg width="715pt" height="179pt"
 viewBox="0.00 0.00 715.00 179.00" xmlns="http://www.w3.org/2000/svg" xmlns:xlink="http://www.w3.org/1999/xlink">
<g id="graph0" class="graph" transform="scale(1 1) rotate(0) translate(4 175)">
<title>ml</title>
<polygon fill="white" stroke="none" points="-4,4 -4,-175 711,-175 711,4 -4,4"/>
<!-- ndResourceProof -->
<g id="node1" class="node"><title>ndResourceProof</title>
<g id="a_node1_0"><a xlink:href="https://github.com/maidsafe/resource_proof/blob/master/src/lib.rs#:~:text=struct%20ResourceProof" xlink:title="&lt;TABLE&gt;">
<polygon fill="lightblue" stroke="none" points="9.5,-56.5 9.5,-93.5 698.5,-93.5 698.5,-56.5 9.5,-56.5"/>
<polygon fill="none" stroke="black" points="9.5,-56.5 9.5,-93.5 698.5,-93.5 698.5,-56.5 9.5,-56.5"/>
<text text-anchor="start" x="20.5" y="-72.3" font-family="Arial" font-weight="bold" font-size="14.00">pub struct ResourceProof { &#160;&#160;&#160;min_size: usize, &#160;&#160;&#160;/// minimum size of proof in bytes &#160;&#160;&#160;difficulty: u8,}</text>
<polygon fill="white" stroke="none" points="9.5,-4.5 9.5,-56.5 698.5,-56.5 698.5,-4.5 9.5,-4.5"/>
<polygon fill="none" stroke="black" points="9.5,-4.5 9.5,-56.5 698.5,-56.5 698.5,-4.5 9.5,-4.5"/>
<text text-anchor="start" x="20.5" y="-34.3" font-family="Arial" font-size="14.00">&#45; min_size: usize</text>
<text text-anchor="start" x="20.5" y="-19.3" font-family="Arial" font-size="14.00">&#45; difficulty: u8</text>
<polygon fill="none" stroke="black" points="8,-4 8,-95 699,-95 699,-4 8,-4"/>
</a>
</g>
</g>
<!-- ndResourceProver -->
<g id="node2" class="node"><title>ndResourceProver</title>
<text text-anchor="middle" x="353.5" y="-149.3" font-family="Times,serif" font-size="14.00">ndResourceProver</text>
</g>
<!-- ndResourceProver&#45;&gt;ndResourceProof -->
<g id="edge1" class="edge"><title>ndResourceProver&#45;&gt;ndResourceProof</title>
<path fill="none" stroke="black" d="M353.5,-134.782C353.5,-127.555 353.5,-118.685 353.5,-109.444"/>
<polygon fill="black" stroke="black" points="353.5,-99.3292 358,-109.329 353.5,-104.329 353.5,-109.329 353.5,-109.329 353.5,-109.329 353.5,-104.329 349,-109.329 353.5,-99.3292 353.5,-99.3292"/>
</g>
</g>
</svg>
