<?xml version="1.0" encoding="UTF-8" standalone="no"?>
<!DOCTYPE svg PUBLIC "-//W3C//DTD SVG 1.1//EN"
 "http://www.w3.org/Graphics/SVG/1.1/DTD/svg11.dtd">
<!-- Generated by graphviz version 2.38.0 (20140413.2041)
 -->
<!-- Title: ml Pages: 1 -->
<svg width="191pt" height="257pt"
 viewBox="0.00 0.00 191.00 257.00" xmlns="http://www.w3.org/2000/svg" xmlns:xlink="http://www.w3.org/1999/xlink">
<g id="graph0" class="graph" transform="scale(1 1) rotate(0) translate(4 253)">
<title>ml</title>
<polygon fill="white" stroke="none" points="-4,4 -4,-253 187,-253 187,4 -4,4"/>
<!-- ndResourceProof -->
<g id="node1" class="node"><title>ndResourceProof</title>
<polygon fill="lightblue" stroke="none" points="27.5,-56.5 27.5,-93.5 155.5,-93.5 155.5,-56.5 27.5,-56.5"/>
<polygon fill="none" stroke="black" points="27.5,-56.5 27.5,-93.5 155.5,-93.5 155.5,-56.5 27.5,-56.5"/>
<text text-anchor="start" x="38.5" y="-72.3" font-family="Arial" font-weight="bold" font-size="14.00">ResourceProof</text>
<polygon fill="white" stroke="none" points="27.5,-4.5 27.5,-56.5 155.5,-56.5 155.5,-4.5 27.5,-4.5"/>
<polygon fill="none" stroke="black" points="27.5,-4.5 27.5,-56.5 155.5,-56.5 155.5,-4.5 27.5,-4.5"/>
<text text-anchor="start" x="38.5" y="-34.3" font-family="Arial" font-size="14.00">&#45; min_size: usize</text>
<text text-anchor="start" x="38.5" y="-19.3" font-family="Arial" font-size="14.00">&#45; difficulty: u8</text>
<polygon fill="none" stroke="black" points="26.5,-4 26.5,-95 156.5,-95 156.5,-4 26.5,-4"/>
</g>
<!-- ndResourceProver -->
<g id="node2" class="node"><title>ndResourceProver</title>
<polygon fill="lightblue" stroke="none" points="9.5,-207 9.5,-244 174.5,-244 174.5,-207 9.5,-207"/>
<polygon fill="none" stroke="black" points="9.5,-207 9.5,-244 174.5,-244 174.5,-207 9.5,-207"/>
<text text-anchor="start" x="34.5" y="-222.8" font-family="Arial" font-weight="bold" font-size="14.00">ResourceProver</text>
<polygon fill="white" stroke="none" points="9.5,-140 9.5,-207 174.5,-207 174.5,-140 9.5,-140"/>
<polygon fill="none" stroke="black" points="9.5,-140 9.5,-207 174.5,-207 174.5,-140 9.5,-140"/>
<text text-anchor="start" x="20.5" y="-184.8" font-family="Arial" font-size="14.00">&#45; difficulty: u8</text>
<text text-anchor="start" x="20.5" y="-169.8" font-family="Arial" font-size="14.00">&#45; count: u64</text>
<text text-anchor="start" x="20.5" y="-154.8" font-family="Arial" font-size="14.00">&#45; data: VecDeque&lt;u8&gt;</text>
<polygon fill="none" stroke="black" points="8,-139 8,-245 175,-245 175,-139 8,-139"/>
</g>
<!-- ndResourceProver&#45;&gt;ndResourceProof -->
<g id="edge1" class="edge"><title>ndResourceProver&#45;&gt;ndResourceProof</title>
<path fill="none" stroke="black" d="M91.5,-134.663C91.5,-126.304 91.5,-117.672 91.5,-109.265"/>
<polygon fill="black" stroke="black" points="91.5,-99.1565 96.0001,-109.156 91.5,-104.157 91.5001,-109.157 91.5001,-109.157 91.5001,-109.157 91.5,-104.157 87.0001,-109.157 91.5,-99.1565 91.5,-99.1565"/>
</g>
</g>
</svg>
