<?xml version="1.0" encoding="UTF-8" standalone="no"?>
<!DOCTYPE svg PUBLIC "-//W3C//DTD SVG 1.1//EN"
 "http://www.w3.org/Graphics/SVG/1.1/DTD/svg11.dtd">
<!-- Generated by graphviz version 2.38.0 (20140413.2041)
 -->
<!-- Title: ml Pages: 1 -->
<svg width="579pt" height="481pt"
 viewBox="0.00 0.00 579.00 481.00" xmlns="http://www.w3.org/2000/svg" xmlns:xlink="http://www.w3.org/1999/xlink">
<g id="graph0" class="graph" transform="scale(1 1) rotate(0) translate(4 477)">
<title>ml</title>
<polygon fill="white" stroke="none" points="-4,4 -4,-477 575,-477 575,4 -4,4"/>
<!-- ndResourceProof -->
<g id="node1" class="node"><title>ndResourceProof</title>
<polygon fill="lightblue" stroke="none" points="9.5,-198.5 9.5,-235.5 562.5,-235.5 562.5,-198.5 9.5,-198.5"/>
<polygon fill="none" stroke="black" points="9.5,-198.5 9.5,-235.5 562.5,-235.5 562.5,-198.5 9.5,-198.5"/>
<text text-anchor="start" x="233" y="-214.3" font-family="Arial" font-weight="bold" font-size="14.00">ResourceProof</text>
<polygon fill="white" stroke="none" points="9.5,-146.5 9.5,-198.5 562.5,-198.5 562.5,-146.5 9.5,-146.5"/>
<polygon fill="none" stroke="black" points="9.5,-146.5 9.5,-198.5 562.5,-198.5 562.5,-146.5 9.5,-146.5"/>
<text text-anchor="start" x="20.5" y="-176.3" font-family="Arial" font-size="14.00">&#45; min_size: usize</text>
<text text-anchor="start" x="20.5" y="-161.3" font-family="Arial" font-size="14.00">&#45; difficulty: u8</text>
<polygon fill="white" stroke="none" points="9.5,-4.5 9.5,-146.5 562.5,-146.5 562.5,-4.5 9.5,-4.5"/>
<polygon fill="none" stroke="black" points="9.5,-4.5 9.5,-146.5 562.5,-146.5 562.5,-4.5 9.5,-4.5"/>
<text text-anchor="start" x="20.5" y="-124.3" font-family="Arial" font-size="14.00">&#45; new(min_size: usize, difficulty: u8) &#45;&gt; ResourceProof</text>
<text text-anchor="start" x="20.5" y="-109.3" font-family="Arial" font-size="14.00">&#45; create_proof_data(&amp;self, nonce: &amp;[u8]) &#45;&gt; VecDeque&lt;u8&gt;</text>
<text text-anchor="start" x="20.5" y="-94.3" font-family="Arial" font-size="14.00">&#45; create_prover(&amp;self, data: VecDeque&lt;u8&gt;) &#45;&gt; ResourceProver</text>
<text text-anchor="start" x="20.5" y="-79.3" font-family="Arial" font-size="14.00">&#45; validate_all(&amp;self, nonce: &amp;[u8], received_data: &amp;VecDeque&lt;u8&gt;, key: u64) &#45;&gt; bool</text>
<text text-anchor="start" x="20.5" y="-64.3" font-family="Arial" font-size="14.00">&#45; validate_data(&amp;self, nonce: &amp;[u8], data: &amp;VecDeque&lt;u8&gt;) &#45;&gt; bool</text>
<text text-anchor="start" x="20.5" y="-49.3" font-family="Arial" font-size="14.00">&#45; validate_proof(&amp;self, nonce: &amp;[u8], key: u64) &#45;&gt; bool</text>
<text text-anchor="start" x="20.5" y="-34.3" font-family="Arial" font-size="14.00">&#45; check_hash(&amp;self, data: &amp;VecDeque&lt;u8&gt;) &#45;&gt; u8</text>
<text text-anchor="start" x="20.5" y="-19.3" font-family="Arial" font-size="14.00">&#45; leading_zeros(data: &amp;[u8]) &#45;&gt; u8</text>
<polygon fill="none" stroke="black" points="8,-4 8,-237 563,-237 563,-4 8,-4"/>
</g>
<!-- ndResourceProver -->
<g id="node2" class="node"><title>ndResourceProver</title>
<polygon fill="lightblue" stroke="none" points="158.5,-431 158.5,-468 412.5,-468 412.5,-431 158.5,-431"/>
<polygon fill="none" stroke="black" points="158.5,-431 158.5,-468 412.5,-468 412.5,-431 158.5,-431"/>
<text text-anchor="start" x="228" y="-446.8" font-family="Arial" font-weight="bold" font-size="14.00">ResourceProver</text>
<polygon fill="white" stroke="none" points="158.5,-364 158.5,-431 412.5,-431 412.5,-364 158.5,-364"/>
<polygon fill="none" stroke="black" points="158.5,-364 158.5,-431 412.5,-431 412.5,-364 158.5,-364"/>
<text text-anchor="start" x="169.5" y="-408.8" font-family="Arial" font-size="14.00">&#45; difficulty: u8</text>
<text text-anchor="start" x="169.5" y="-393.8" font-family="Arial" font-size="14.00">&#45; count: u64</text>
<text text-anchor="start" x="169.5" y="-378.8" font-family="Arial" font-size="14.00">&#45; data: VecDeque&lt;u8&gt;</text>
<polygon fill="white" stroke="none" points="158.5,-282 158.5,-364 412.5,-364 412.5,-282 158.5,-282"/>
<polygon fill="none" stroke="black" points="158.5,-282 158.5,-364 412.5,-364 412.5,-282 158.5,-282"/>
<text text-anchor="start" x="169.5" y="-341.8" font-family="Arial" font-size="14.00">&#45; expected_steps(&amp;self) &#45;&gt; u64</text>
<text text-anchor="start" x="169.5" y="-326.8" font-family="Arial" font-size="14.00">&#45; try_step(&amp;mut self) &#45;&gt; Option&lt;u64&gt;</text>
<text text-anchor="start" x="169.5" y="-311.8" font-family="Arial" font-size="14.00">&#45; solve(&amp;mut self) &#45;&gt; u64</text>
<text text-anchor="start" x="169.5" y="-296.8" font-family="Arial" font-size="14.00">&#45; check_hash(&amp;self) &#45;&gt; u8</text>
<polygon fill="none" stroke="black" points="157.5,-281 157.5,-469 413.5,-469 413.5,-281 157.5,-281"/>
</g>
<!-- ndResourceProver&#45;&gt;ndResourceProof -->
<g id="edge1" class="edge"><title>ndResourceProver&#45;&gt;ndResourceProof</title>
<path fill="none" stroke="black" d="M285.5,-276.738C285.5,-268.35 285.5,-259.782 285.5,-251.193"/>
<polygon fill="black" stroke="black" points="285.5,-241.109 290,-251.109 285.5,-246.109 285.5,-251.109 285.5,-251.109 285.5,-251.109 285.5,-246.109 281,-251.11 285.5,-241.109 285.5,-241.109"/>
</g>
</g>
</svg>
