<?xml version="1.0" encoding="UTF-8" standalone="no"?>
<!DOCTYPE svg PUBLIC "-//W3C//DTD SVG 1.1//EN"
 "http://www.w3.org/Graphics/SVG/1.1/DTD/svg11.dtd">
<!-- Generated by graphviz version 2.38.0 (20140413.2041)
 -->
<!-- Title: ml Pages: 1 -->
<svg width="163pt" height="138pt"
 viewBox="0.00 0.00 163.00 138.00" xmlns="http://www.w3.org/2000/svg" xmlns:xlink="http://www.w3.org/1999/xlink">
<g id="graph0" class="graph" transform="scale(1 1) rotate(0) translate(4 134)">
<title>ml</title>
<polygon fill="white" stroke="none" points="-4,4 -4,-134 159,-134 159,4 -4,4"/>
<!-- ndResourceProof -->
<g id="node1" class="node"><title>ndResourceProof</title>
<polygon fill="lightblue" stroke="none" points="13.5,-4.5 13.5,-41.5 141.5,-41.5 141.5,-4.5 13.5,-4.5"/>
<polygon fill="none" stroke="black" points="13.5,-4.5 13.5,-41.5 141.5,-41.5 141.5,-4.5 13.5,-4.5"/>
<text text-anchor="start" x="24.5" y="-20.3" font-family="Arial" font-weight="bold" font-size="14.00">ResourceProof</text>
<polygon fill="none" stroke="black" points="12.5,-4 12.5,-43 142.5,-43 142.5,-4 12.5,-4"/>
</g>
<!-- ndResourceProver -->
<g id="node2" class="node"><title>ndResourceProver</title>
<polygon fill="lightblue" stroke="none" points="9.5,-87.5 9.5,-124.5 146.5,-124.5 146.5,-87.5 9.5,-87.5"/>
<polygon fill="none" stroke="black" points="9.5,-87.5 9.5,-124.5 146.5,-124.5 146.5,-87.5 9.5,-87.5"/>
<text text-anchor="start" x="20.5" y="-103.3" font-family="Arial" font-weight="bold" font-size="14.00">ResourceProver</text>
<polygon fill="none" stroke="black" points="8,-87 8,-126 147,-126 147,-87 8,-87"/>
</g>
<!-- ndResourceProver&#45;&gt;ndResourceProof -->
<g id="edge1" class="edge"><title>ndResourceProver&#45;&gt;ndResourceProof</title>
<path fill="none" stroke="black" d="M77.5,-82.937C77.5,-75.0164 77.5,-65.9488 77.5,-57.3574"/>
<polygon fill="black" stroke="black" points="77.5,-47.2229 82.0001,-57.2229 77.5,-52.2229 77.5001,-57.2229 77.5001,-57.2229 77.5001,-57.2229 77.5,-52.2229 73.0001,-57.223 77.5,-47.2229 77.5,-47.2229"/>
</g>
</g>
</svg>
