<?xml version="1.0" encoding="UTF-8" standalone="no"?>
<!DOCTYPE svg PUBLIC "-//W3C//DTD SVG 1.1//EN"
 "http://www.w3.org/Graphics/SVG/1.1/DTD/svg11.dtd">
<!-- Generated by graphviz version 2.38.0 (20140413.2041)
 -->
<!-- Title: ml Pages: 1 -->
<svg width="715pt" height="321pt"
 viewBox="0.00 0.00 715.00 321.00" xmlns="http://www.w3.org/2000/svg" xmlns:xlink="http://www.w3.org/1999/xlink">
<g id="graph0" class="graph" transform="scale(1 1) rotate(0) translate(4 317)">
<title>ml</title>
<polygon fill="white" stroke="none" points="-4,4 -4,-317 711,-317 711,4 -4,4"/>
<!-- ndResourceProof -->
<g id="node1" class="node"><title>ndResourceProof</title>
<g id="a_node1_0"><a xlink:href="https://github.com/maidsafe/resource_proof/blob/master/src/lib.rs#:~:text=struct%20ResourceProof" xlink:title="&lt;TABLE&gt;">
<polygon fill="lightblue" stroke="none" points="9.5,-198.5 9.5,-235.5 698.5,-235.5 698.5,-198.5 9.5,-198.5"/>
<polygon fill="none" stroke="black" points="9.5,-198.5 9.5,-235.5 698.5,-235.5 698.5,-198.5 9.5,-198.5"/>
<text text-anchor="start" x="20.5" y="-214.3" font-family="Arial" font-weight="bold" font-size="14.00">pub struct ResourceProof { &#160;&#160;&#160;min_size: usize, &#160;&#160;&#160;/// minimum size of proof in bytes &#160;&#160;&#160;difficulty: u8,}</text>
<polygon fill="white" stroke="none" points="9.5,-146.5 9.5,-198.5 698.5,-198.5 698.5,-146.5 9.5,-146.5"/>
<polygon fill="none" stroke="black" points="9.5,-146.5 9.5,-198.5 698.5,-198.5 698.5,-146.5 9.5,-146.5"/>
<text text-anchor="start" x="20.5" y="-176.3" font-family="Arial" font-size="14.00">&#45; min_size: usize</text>
<text text-anchor="start" x="20.5" y="-161.3" font-family="Arial" font-size="14.00">&#45; difficulty: u8</text>
<polygon fill="white" stroke="none" points="9.5,-4.5 9.5,-146.5 698.5,-146.5 698.5,-4.5 9.5,-4.5"/>
<polygon fill="none" stroke="black" points="9.5,-4.5 9.5,-146.5 698.5,-146.5 698.5,-4.5 9.5,-4.5"/>
<text text-anchor="start" x="20.5" y="-124.3" font-family="Arial" font-size="14.00">&#45; new(min_size: usize, difficulty: u8) &#45;&gt; ResourceProof</text>
<text text-anchor="start" x="20.5" y="-109.3" font-family="Arial" font-size="14.00">&#45; create_proof_data(&amp;self, nonce: &amp;[u8]) &#45;&gt; VecDeque&lt;u8&gt;</text>
<text text-anchor="start" x="20.5" y="-94.3" font-family="Arial" font-size="14.00">&#45; create_prover(&amp;self, data: VecDeque&lt;u8&gt;) &#45;&gt; ResourceProver</text>
<text text-anchor="start" x="20.5" y="-79.3" font-family="Arial" font-size="14.00">&#45; validate_all(&amp;self, nonce: &amp;[u8], received_data: &amp;VecDeque&lt;u8&gt;, key: u64) &#45;&gt; bool</text>
<text text-anchor="start" x="20.5" y="-64.3" font-family="Arial" font-size="14.00">&#45; validate_data(&amp;self, nonce: &amp;[u8], data: &amp;VecDeque&lt;u8&gt;) &#45;&gt; bool</text>
<text text-anchor="start" x="20.5" y="-49.3" font-family="Arial" font-size="14.00">&#45; validate_proof(&amp;self, nonce: &amp;[u8], key: u64) &#45;&gt; bool</text>
<text text-anchor="start" x="20.5" y="-34.3" font-family="Arial" font-size="14.00">&#45; check_hash(&amp;self, data: &amp;VecDeque&lt;u8&gt;) &#45;&gt; u8</text>
<text text-anchor="start" x="20.5" y="-19.3" font-family="Arial" font-size="14.00">&#45; leading_zeros(data: &amp;[u8]) &#45;&gt; u8</text>
<polygon fill="none" stroke="black" points="8,-4 8,-237 699,-237 699,-4 8,-4"/>
</a>
</g>
</g>
<!-- ndResourceProver -->
<g id="node2" class="node"><title>ndResourceProver</title>
<text text-anchor="middle" x="353.5" y="-291.3" font-family="Times,serif" font-size="14.00">ndResourceProver</text>
</g>
<!-- ndResourceProver&#45;&gt;ndResourceProof -->
<g id="edge1" class="edge"><title>ndResourceProver&#45;&gt;ndResourceProof</title>
<path fill="none" stroke="black" d="M353.5,-276.829C353.5,-269.799 353.5,-261.001 353.5,-251.188"/>
<polygon fill="black" stroke="black" points="353.5,-241.065 358,-251.065 353.5,-246.065 353.5,-251.065 353.5,-251.065 353.5,-251.065 353.5,-246.065 349,-251.065 353.5,-241.065 353.5,-241.065"/>
</g>
</g>
</svg>
