<?xml version="1.0" encoding="UTF-8" standalone="no"?>
<!DOCTYPE svg PUBLIC "-//W3C//DTD SVG 1.1//EN"
 "http://www.w3.org/Graphics/SVG/1.1/DTD/svg11.dtd">
<!-- Generated by graphviz version 2.38.0 (20140413.2041)
 -->
<!-- Title: ml Pages: 1 -->
<svg width="5034pt" height="812pt"
 viewBox="0.00 0.00 5034.00 812.00" xmlns="http://www.w3.org/2000/svg" xmlns:xlink="http://www.w3.org/1999/xlink">
<g id="graph0" class="graph" transform="scale(1 1) rotate(0) translate(4 808)">
<title>ml</title>
<polygon fill="white" stroke="none" points="-4,4 -4,-808 5030,-808 5030,4 -4,4"/>
<!-- ndVal -->
<g id="node1" class="node"><title>ndVal</title>
<polygon fill="lightgreen" stroke="none" points="275,-735.5 275,-772.5 319,-772.5 319,-735.5 275,-735.5"/>
<polygon fill="none" stroke="black" points="275,-735.5 275,-772.5 319,-772.5 319,-735.5 275,-735.5"/>
<text text-anchor="start" x="286" y="-751.3" font-family="Arial" font-weight="bold" font-size="14.00">Val</text>
<polygon fill="none" stroke="black" points="274,-735 274,-774 320,-774 320,-735 274,-735"/>
</g>
<!-- ndMap -->
<g id="node2" class="node"><title>ndMap</title>
<polygon fill="lightblue" stroke="none" points="1914,-477 1914,-514 2249,-514 2249,-477 1914,-477"/>
<polygon fill="none" stroke="black" points="1914,-477 1914,-514 2249,-514 2249,-477 1914,-477"/>
<text text-anchor="start" x="2066" y="-492.8" font-family="Arial" font-weight="bold" font-size="14.00">Map</text>
<polygon fill="white" stroke="none" points="1914,-410 1914,-477 2249,-477 2249,-410 1914,-410"/>
<polygon fill="none" stroke="black" points="1914,-410 1914,-477 2249,-477 2249,-410 1914,-410"/>
<text text-anchor="start" x="1925" y="-454.8" font-family="Arial" font-size="14.00">&#45; clock: VClock&lt;A&gt;</text>
<text text-anchor="start" x="1925" y="-439.8" font-family="Arial" font-size="14.00">&#45; entries: BTreeMap&lt;K, Entry&lt;V, A&gt;&gt;</text>
<text text-anchor="start" x="1925" y="-424.8" font-family="Arial" font-size="14.00">&#45; deferred: HashMap&lt;VClock&lt;A&gt;, BTreeSet&lt;K&gt;&gt;</text>
<polygon fill="none" stroke="black" points="1912.5,-409 1912.5,-515 2249.5,-515 2249.5,-409 1912.5,-409"/>
</g>
<!-- ndEntry -->
<g id="node3" class="node"><title>ndEntry</title>
<polygon fill="lightblue" stroke="none" points="2285,-469 2285,-506 2428,-506 2428,-469 2285,-469"/>
<polygon fill="none" stroke="black" points="2285,-469 2285,-506 2428,-506 2428,-469 2285,-469"/>
<text text-anchor="start" x="2337.5" y="-484.8" font-family="Arial" font-weight="bold" font-size="14.00">Entry</text>
<polygon fill="white" stroke="none" points="2285,-417 2285,-469 2428,-469 2428,-417 2285,-417"/>
<polygon fill="none" stroke="black" points="2285,-417 2285,-469 2428,-469 2428,-417 2285,-417"/>
<text text-anchor="start" x="2296" y="-446.8" font-family="Arial" font-size="14.00">&#45; clock: VClock&lt;A&gt;</text>
<text text-anchor="start" x="2296" y="-431.8" font-family="Arial" font-size="14.00">&#45; val: V</text>
<polygon fill="none" stroke="black" points="2283.5,-416.5 2283.5,-507.5 2428.5,-507.5 2428.5,-416.5 2283.5,-416.5"/>
</g>
<!-- ndOp -->
<g id="node4" class="node"><title>ndOp</title>
<polygon fill="yellow" stroke="none" points="600,-326.5 600,-363.5 649,-363.5 649,-326.5 600,-326.5"/>
<polygon fill="none" stroke="black" points="600,-326.5 600,-363.5 649,-363.5 649,-326.5 600,-326.5"/>
<text text-anchor="start" x="614" y="-342.3" font-family="Arial" font-weight="bold" font-size="14.00">Op</text>
<polygon fill="white" stroke="none" points="600,-274.5 600,-326.5 649,-326.5 649,-274.5 600,-274.5"/>
<polygon fill="none" stroke="black" points="600,-274.5 600,-326.5 649,-326.5 649,-274.5 600,-274.5"/>
<text text-anchor="start" x="611" y="-304.3" font-family="Arial" font-size="14.00">Add</text>
<text text-anchor="start" x="611" y="-289.3" font-family="Arial" font-size="14.00">Rm</text>
<polygon fill="none" stroke="black" points="598.5,-274 598.5,-365 649.5,-365 649.5,-274 598.5,-274"/>
</g>
<!-- ndOp&#45;&gt;ndOp -->
<g id="edge6" class="edge"><title>ndOp&#45;&gt;ndOp</title>
<path fill="none" stroke="black" stroke-dasharray="5,2" d="M657.681,-321.291C667.702,-321.237 675.5,-320.64 675.5,-319.5 675.5,-318.787 672.454,-318.287 667.723,-317.999"/>
<polygon fill="black" stroke="black" points="657.681,-317.709 667.807,-313.499 662.679,-317.853 667.677,-317.997 667.677,-317.997 667.677,-317.997 662.679,-317.853 667.548,-322.496 657.681,-317.709 657.681,-317.709"/>
</g>
<!-- ndOp&#45;&gt;ndOp -->
<g id="edge8" class="edge"><title>ndOp&#45;&gt;ndOp</title>
<path fill="none" stroke="black" stroke-dasharray="5,2" d="M657.611,-322.918C676.295,-323.555 693.5,-322.416 693.5,-319.5 693.5,-317.131 682.142,-315.934 667.861,-315.911"/>
<polygon fill="black" stroke="black" points="657.611,-316.082 667.534,-311.416 662.61,-315.999 667.609,-315.915 667.609,-315.915 667.609,-315.915 662.61,-315.999 667.685,-320.415 657.611,-316.082 657.611,-316.082"/>
</g>
<!-- ndOp&#45;&gt;ndOp -->
<g id="edge10" class="edge"><title>ndOp&#45;&gt;ndOp</title>
<path fill="none" stroke="black" stroke-dasharray="5,2" d="M657.674,-324.158C684.241,-325.96 711.5,-324.407 711.5,-319.5 711.5,-315.225 690.816,-313.496 667.922,-314.312"/>
<polygon fill="black" stroke="black" points="657.674,-314.842 667.428,-309.832 662.667,-314.584 667.66,-314.326 667.66,-314.326 667.66,-314.326 662.667,-314.584 667.893,-318.82 657.674,-314.842 657.674,-314.842"/>
</g>
<!-- ndOp&#45;&gt;ndOp -->
<g id="edge11" class="edge"><title>ndOp&#45;&gt;ndOp</title>
<path fill="none" stroke="black" stroke-dasharray="5,2" d="M657.762,-325.127C691.77,-328.386 729.5,-326.51 729.5,-319.5 729.5,-313.174 698.78,-311.029 667.793,-313.065"/>
<polygon fill="black" stroke="black" points="657.762,-313.873 667.368,-308.584 662.746,-313.471 667.73,-313.07 667.73,-313.07 667.73,-313.07 662.746,-313.471 668.091,-317.555 657.762,-313.873 657.762,-313.873"/>
</g>
<!-- ndOp&#45;&gt;ndOp -->
<g id="edge64" class="edge"><title>ndOp&#45;&gt;ndOp</title>
<path fill="none" stroke="black" stroke-dasharray="5,2" d="M657.511,-325.866C698.744,-330.829 747.5,-328.707 747.5,-319.5 747.5,-311.048 706.415,-308.567 667.779,-312.056"/>
<polygon fill="black" stroke="black" points="657.511,-313.134 666.986,-307.614 662.484,-312.612 667.456,-312.09 667.456,-312.09 667.456,-312.09 662.484,-312.612 667.926,-316.565 657.511,-313.134 657.511,-313.134"/>
</g>
<!-- ndOp&#45;&gt;ndOp -->
<g id="edge66" class="edge"><title>ndOp&#45;&gt;ndOp</title>
<path fill="none" stroke="black" stroke-dasharray="5,2" d="M657.749,-326.522C705.891,-333.253 765.5,-330.913 765.5,-319.5 765.5,-308.867 713.762,-306.109 667.76,-311.225"/>
<polygon fill="black" stroke="black" points="657.749,-312.478 667.113,-306.771 662.71,-311.857 667.672,-311.236 667.672,-311.236 667.672,-311.236 662.71,-311.857 668.231,-315.701 657.749,-312.478 657.749,-312.478"/>
</g>
<!-- ndOp&#45;&gt;ndOp -->
<g id="edge67" class="edge"><title>ndOp&#45;&gt;ndOp</title>
<path fill="none" stroke="black" stroke-dasharray="5,2" d="M657.672,-327.032C712.627,-335.685 783.5,-333.175 783.5,-319.5 783.5,-306.653 720.949,-303.66 667.81,-310.519"/>
<polygon fill="black" stroke="black" points="657.672,-311.968 666.935,-306.098 662.622,-311.261 667.572,-310.553 667.572,-310.553 667.572,-310.553 662.622,-311.261 668.209,-315.008 657.672,-311.968 657.672,-311.968"/>
</g>
<!-- ndOp&#45;&gt;ndOp -->
<g id="edge74" class="edge"><title>ndOp&#45;&gt;ndOp</title>
<path fill="none" stroke="black" stroke-dasharray="5,2" d="M657.548,-327.451C719.196,-338.115 801.5,-335.465 801.5,-319.5 801.5,-304.377 727.647,-301.201 667.458,-309.973"/>
<polygon fill="black" stroke="black" points="657.548,-311.549 666.717,-305.534 662.486,-310.763 667.424,-309.978 667.424,-309.978 667.424,-309.978 662.486,-310.763 668.13,-314.422 657.548,-311.549 657.548,-311.549"/>
</g>
<!-- ndOp&#45;&gt;ndOp -->
<g id="edge76" class="edge"><title>ndOp&#45;&gt;ndOp</title>
<path fill="none" stroke="black" stroke-dasharray="5,2" d="M657.629,-327.843C725.853,-340.536 819.5,-337.755 819.5,-319.5 819.5,-302.136 734.775,-298.773 667.791,-309.408"/>
<polygon fill="black" stroke="black" points="657.629,-311.157 666.721,-305.026 662.557,-310.309 667.484,-309.461 667.484,-309.461 667.484,-309.461 662.557,-310.309 668.248,-313.896 657.629,-311.157 657.629,-311.157"/>
</g>
<!-- ndOp&#45;&gt;ndOp -->
<g id="edge78" class="edge"><title>ndOp&#45;&gt;ndOp</title>
<path fill="none" stroke="black" stroke-dasharray="5,2" d="M657.652,-328.175C732.383,-342.955 837.5,-340.064 837.5,-319.5 837.5,-299.86 741.615,-296.34 667.895,-308.94"/>
<polygon fill="black" stroke="black" points="657.652,-310.825 666.672,-304.589 662.569,-309.92 667.487,-309.015 667.487,-309.015 667.487,-309.015 662.569,-309.92 668.301,-313.441 657.652,-310.825 657.652,-310.825"/>
</g>
<!-- ndOp&#45;&gt;ndOp -->
<g id="edge79" class="edge"><title>ndOp&#45;&gt;ndOp</title>
<path fill="none" stroke="black" stroke-dasharray="5,2" d="M657.739,-328.481C738.916,-345.371 855.5,-342.377 855.5,-319.5 855.5,-297.561 748.283,-293.908 667.896,-308.541"/>
<polygon fill="black" stroke="black" points="657.739,-310.519 666.695,-304.19 662.647,-309.563 667.555,-308.607 667.555,-308.607 667.555,-308.607 662.647,-309.563 668.415,-313.024 657.739,-310.519 657.739,-310.519"/>
</g>
<!-- ndOp&#45;&gt;ndOp -->
<g id="edge88" class="edge"><title>ndOp&#45;&gt;ndOp</title>
<path fill="none" stroke="black" stroke-dasharray="5,2" d="M657.721,-328.732C745.297,-347.786 873.5,-344.709 873.5,-319.5 873.5,-295.226 754.635,-291.472 667.629,-308.238"/>
<polygon fill="black" stroke="black" points="657.721,-310.268 666.614,-303.853 662.619,-309.265 667.517,-308.261 667.517,-308.261 667.517,-308.261 662.619,-309.265 668.42,-312.67 657.721,-310.268 657.721,-310.268"/>
</g>
<!-- ndOp&#45;&gt;ndOp -->
<g id="edge89" class="edge"><title>ndOp&#45;&gt;ndOp</title>
<path fill="none" stroke="black" stroke-dasharray="5,2" d="M657.657,-328.944C751.591,-350.201 891.5,-347.053 891.5,-319.5 891.5,-292.889 760.991,-289.043 667.443,-307.961"/>
<polygon fill="black" stroke="black" points="657.657,-310.056 666.494,-303.563 662.546,-309.009 667.436,-307.963 667.436,-307.963 667.436,-307.963 662.546,-309.009 668.377,-312.363 657.657,-310.056 657.657,-310.056"/>
</g>
<!-- ndOp&#45;&gt;ndOp -->
<g id="edge109" class="edge"><title>ndOp&#45;&gt;ndOp</title>
<path fill="none" stroke="black" stroke-dasharray="5,2" d="M657.61,-329.136C757.862,-352.613 909.5,-349.401 909.5,-319.5 909.5,-290.562 767.478,-286.621 667.455,-307.677"/>
<polygon fill="black" stroke="black" points="657.61,-309.864 666.396,-303.303 662.491,-308.78 667.372,-307.696 667.372,-307.696 667.372,-307.696 662.491,-308.78 668.347,-312.089 657.61,-309.864 657.61,-309.864"/>
</g>
<!-- ndCvRDTValidation -->
<g id="node6" class="node"><title>ndCvRDTValidation</title>
<polygon fill="yellow" stroke="none" points="633,-191.5 633,-228.5 777,-228.5 777,-191.5 633,-191.5"/>
<polygon fill="none" stroke="black" points="633,-191.5 633,-228.5 777,-228.5 777,-191.5 633,-191.5"/>
<text text-anchor="start" x="646" y="-207.3" font-family="Arial" font-weight="bold" font-size="14.00">CvRDTValidation</text>
<polygon fill="white" stroke="none" points="633,-139.5 633,-191.5 777,-191.5 777,-139.5 633,-139.5"/>
<polygon fill="none" stroke="black" points="633,-139.5 633,-191.5 777,-191.5 777,-139.5 633,-139.5"/>
<text text-anchor="start" x="644" y="-169.3" font-family="Arial" font-size="14.00">DoubleSpentDot</text>
<text text-anchor="start" x="644" y="-154.3" font-family="Arial" font-size="14.00">Value(V::Validation)</text>
<polygon fill="none" stroke="black" points="632,-139 632,-230 778,-230 778,-139 632,-139"/>
</g>
<!-- ndOp&#45;&gt;ndCvRDTValidation -->
<g id="edge1" class="edge"><title>ndOp&#45;&gt;ndCvRDTValidation</title>
<path fill="none" stroke="black" stroke-dasharray="5,2" d="M621.041,-269.731C625.321,-260.876 630.729,-251.569 636.842,-242.502"/>
<polygon fill="black" stroke="black" points="642.643,-234.263 640.566,-245.031 639.764,-238.352 636.886,-242.44 636.886,-242.44 636.886,-242.44 639.764,-238.352 633.206,-239.85 642.643,-234.263 642.643,-234.263"/>
</g>
<!-- ndOp&#45;&gt;ndCvRDTValidation -->
<g id="edge58" class="edge"><title>ndOp&#45;&gt;ndCvRDTValidation</title>
<path fill="none" stroke="black" stroke-dasharray="5,2" d="M634.105,-269.731C638.782,-260.967 644.23,-251.759 650.039,-242.78"/>
<polygon fill="black" stroke="black" points="655.706,-234.263 653.913,-245.081 652.936,-238.426 650.167,-242.589 650.167,-242.589 650.167,-242.589 652.936,-238.426 646.42,-240.096 655.706,-234.263 655.706,-234.263"/>
</g>
<!-- ndOp&#45;&gt;ndCvRDTValidation -->
<g id="edge69" class="edge"><title>ndOp&#45;&gt;ndCvRDTValidation</title>
<path fill="none" stroke="black" stroke-dasharray="5,2" d="M647.169,-269.731C652.287,-260.967 657.841,-251.759 663.423,-242.78"/>
<polygon fill="black" stroke="black" points="668.77,-234.263 667.264,-245.125 666.112,-238.498 663.453,-242.732 663.453,-242.732 663.453,-242.732 666.112,-238.498 659.642,-240.34 668.77,-234.263 668.77,-234.263"/>
</g>
<!-- ndOp&#45;&gt;ndCvRDTValidation -->
<g id="edge81" class="edge"><title>ndOp&#45;&gt;ndCvRDTValidation</title>
<path fill="none" stroke="black" stroke-dasharray="5,2" d="M657.613,-273.843C663.895,-264.037 670.396,-253.519 676.508,-243.281"/>
<polygon fill="black" stroke="black" points="681.765,-234.381 680.554,-245.28 679.222,-238.686 676.679,-242.991 676.679,-242.991 676.679,-242.991 679.222,-238.686 672.805,-240.703 681.765,-234.381 681.765,-234.381"/>
</g>
<!-- ndOp&#45;&gt;ndCvRDTValidation -->
<g id="edge102" class="edge"><title>ndOp&#45;&gt;ndCvRDTValidation</title>
<path fill="none" stroke="black" stroke-dasharray="5,2" d="M657.561,-290.942C668.768,-277.14 680.385,-259.881 689.866,-243.348"/>
<polygon fill="black" stroke="black" points="694.897,-234.265 693.988,-245.193 692.474,-238.639 690.052,-243.013 690.052,-243.013 690.052,-243.013 692.474,-238.639 686.115,-240.832 694.897,-234.265 694.897,-234.265"/>
</g>
<!-- ndOp&#45;&gt;ndCvRDTValidation -->
<g id="edge111" class="edge"><title>ndOp&#45;&gt;ndCvRDTValidation</title>
<path fill="none" stroke="black" stroke-dasharray="5,2" d="M657.625,-301.655C674.663,-286.854 691.695,-264.428 703.337,-243.216"/>
<polygon fill="black" stroke="black" points="707.98,-234.225 707.39,-245.175 705.686,-238.667 703.391,-243.11 703.391,-243.11 703.391,-243.11 705.686,-238.667 699.393,-241.045 707.98,-234.225 707.98,-234.225"/>
</g>
<!-- ndValidationError -->
<g id="node17" class="node"><title>ndValidationError</title>
<polygon fill="yellow" stroke="none" points="9,-184.5 9,-221.5 153,-221.5 153,-184.5 9,-184.5"/>
<polygon fill="none" stroke="black" points="9,-184.5 9,-221.5 153,-221.5 153,-184.5 9,-184.5"/>
<text text-anchor="start" x="28" y="-200.3" font-family="Arial" font-weight="bold" font-size="14.00">ValidationError</text>
<polygon fill="white" stroke="none" points="9,-147.5 9,-184.5 153,-184.5 153,-147.5 9,-147.5"/>
<polygon fill="none" stroke="black" points="9,-147.5 9,-184.5 153,-184.5 153,-147.5 9,-147.5"/>
<text text-anchor="start" x="20" y="-162.3" font-family="Arial" font-size="14.00">MissingChild(Hash)</text>
<polygon fill="none" stroke="black" points="8,-146.5 8,-222.5 154,-222.5 154,-146.5 8,-146.5"/>
</g>
<!-- ndOp&#45;&gt;ndValidationError -->
<g id="edge2" class="edge"><title>ndOp&#45;&gt;ndValidationError</title>
<path fill="none" stroke="black" stroke-dasharray="5,2" d="M590.378,-317.288C502.833,-312.464 290.271,-291.987 126,-234 123.081,-232.97 120.143,-231.855 117.215,-230.672"/>
<polygon fill="black" stroke="black" points="107.937,-226.68 118.901,-226.498 112.53,-228.656 117.123,-230.632 117.123,-230.632 117.123,-230.632 112.53,-228.656 115.344,-234.766 107.937,-226.68 107.937,-226.68"/>
</g>
<!-- ndOp&#45;&gt;ndValidationError -->
<g id="edge59" class="edge"><title>ndOp&#45;&gt;ndValidationError</title>
<path fill="none" stroke="black" stroke-dasharray="5,2" d="M590.384,-316.833C508.67,-311.257 303.556,-290.323 144,-234 141.081,-232.97 138.143,-231.855 135.209,-230.672"/>
<polygon fill="black" stroke="black" points="125.887,-226.68 136.851,-226.479 130.483,-228.648 135.079,-230.616 135.079,-230.616 135.079,-230.616 130.483,-228.648 133.308,-234.753 125.887,-226.68 125.887,-226.68"/>
</g>
<!-- ndOp&#45;&gt;ndValidationError -->
<g id="edge70" class="edge"><title>ndOp&#45;&gt;ndValidationError</title>
<path fill="none" stroke="black" stroke-dasharray="5,2" d="M590.411,-316.205C512.662,-309.781 316.086,-288.392 162,-234 158.945,-232.922 155.869,-231.751 152.793,-230.506"/>
<polygon fill="black" stroke="black" points="143.585,-226.567 154.549,-226.363 148.183,-228.534 152.78,-230.5 152.78,-230.5 152.78,-230.5 148.183,-228.534 151.01,-234.638 143.585,-226.567 143.585,-226.567"/>
</g>
<!-- ndOp&#45;&gt;ndValidationError -->
<g id="edge82" class="edge"><title>ndOp&#45;&gt;ndValidationError</title>
<path fill="none" stroke="black" stroke-dasharray="5,2" d="M590.34,-315.352C514.851,-307.999 327.863,-286.195 180,-234 176.945,-232.922 173.869,-231.751 170.786,-230.506"/>
<polygon fill="black" stroke="black" points="161.533,-226.567 172.497,-226.343 166.134,-228.525 170.734,-230.484 170.734,-230.484 170.734,-230.484 166.134,-228.525 168.972,-234.624 161.533,-226.567 161.533,-226.567"/>
</g>
<!-- ndOp&#45;&gt;ndValidationError -->
<g id="edge103" class="edge"><title>ndOp&#45;&gt;ndValidationError</title>
<path fill="none" stroke="black" stroke-dasharray="5,2" d="M590.235,-314.246C515.761,-305.932 339.073,-283.799 198,-234 189.242,-230.909 180.305,-227.055 171.396,-222.879"/>
<polygon fill="black" stroke="black" points="162.132,-218.43 173.095,-218.703 166.639,-220.595 171.146,-222.759 171.146,-222.759 171.146,-222.759 166.639,-220.595 169.198,-226.816 162.132,-218.43 162.132,-218.43"/>
</g>
<!-- ndOp&#45;&gt;ndValidationError -->
<g id="edge112" class="edge"><title>ndOp&#45;&gt;ndValidationError</title>
<path fill="none" stroke="black" stroke-dasharray="5,2" d="M590.424,-312.909C516.368,-303.675 350.095,-281.335 216,-234 201.449,-228.864 186.402,-221.622 171.111,-214.298"/>
<polygon fill="black" stroke="black" points="162.081,-209.992 173.044,-210.235 166.594,-212.144 171.107,-214.297 171.107,-214.297 171.107,-214.297 166.594,-212.144 169.17,-218.358 162.081,-209.992 162.081,-209.992"/>
</g>
<!-- ndGSet -->
<g id="node19" class="node"><title>ndGSet</title>
<polygon fill="lightblue" stroke="none" points="189,-184.5 189,-221.5 347,-221.5 347,-184.5 189,-184.5"/>
<polygon fill="none" stroke="black" points="189,-184.5 189,-221.5 347,-221.5 347,-184.5 189,-184.5"/>
<text text-anchor="start" x="251" y="-200.3" font-family="Arial" font-weight="bold" font-size="14.00">GSet</text>
<polygon fill="white" stroke="none" points="189,-147.5 189,-184.5 347,-184.5 347,-147.5 189,-147.5"/>
<polygon fill="none" stroke="black" points="189,-147.5 189,-184.5 347,-184.5 347,-147.5 189,-147.5"/>
<text text-anchor="start" x="200" y="-162.3" font-family="Arial" font-size="14.00">&#45; value: BTreeSet&lt;T&gt;</text>
<polygon fill="none" stroke="black" points="188,-146.5 188,-222.5 348,-222.5 348,-146.5 188,-146.5"/>
</g>
<!-- ndOp&#45;&gt;ndGSet -->
<g id="edge3" class="edge"><title>ndOp&#45;&gt;ndGSet</title>
<path fill="none" stroke="black" stroke-dasharray="5,2" d="M590.205,-314.873C526.756,-304.26 411.667,-271.627 320,-234 317.435,-232.947 314.844,-231.855 312.247,-230.731"/>
<polygon fill="black" stroke="black" points="302.855,-226.54 313.821,-226.506 307.421,-228.578 311.987,-230.615 311.987,-230.615 311.987,-230.615 307.421,-228.578 310.153,-234.725 302.855,-226.54 302.855,-226.54"/>
</g>
<!-- ndOp&#45;&gt;ndGSet -->
<g id="edge60" class="edge"><title>ndOp&#45;&gt;ndGSet</title>
<path fill="none" stroke="black" stroke-dasharray="5,2" d="M590.255,-313.205C533.823,-301.133 425.291,-269.831 338,-234 335.347,-232.911 332.665,-231.779 329.975,-230.615"/>
<polygon fill="black" stroke="black" points="320.818,-226.54 331.784,-226.495 325.386,-228.573 329.954,-230.606 329.954,-230.606 329.954,-230.606 325.386,-228.573 328.125,-234.717 320.818,-226.54 320.818,-226.54"/>
</g>
<!-- ndOp&#45;&gt;ndGSet -->
<g id="edge71" class="edge"><title>ndOp&#45;&gt;ndGSet</title>
<path fill="none" stroke="black" stroke-dasharray="5,2" d="M590.45,-310.821C538.843,-297.351 438.041,-267.676 356,-234 353.347,-232.911 350.665,-231.779 347.971,-230.615"/>
<polygon fill="black" stroke="black" points="338.781,-226.54 349.747,-226.48 343.352,-228.567 347.923,-230.594 347.923,-230.594 347.923,-230.594 343.352,-228.567 346.099,-234.707 338.781,-226.54 338.781,-226.54"/>
</g>
<!-- ndOp&#45;&gt;ndGSet -->
<g id="edge83" class="edge"><title>ndOp&#45;&gt;ndGSet</title>
<path fill="none" stroke="black" stroke-dasharray="5,2" d="M590.492,-307.538C541.895,-292.897 449.915,-265.162 374,-234 371.174,-232.84 368.316,-231.632 365.44,-230.387"/>
<polygon fill="black" stroke="black" points="356.208,-226.298 367.174,-226.233 360.78,-228.323 365.351,-230.348 365.351,-230.348 365.351,-230.348 360.78,-228.323 363.529,-234.462 356.208,-226.298 356.208,-226.298"/>
</g>
<!-- ndOp&#45;&gt;ndGSet -->
<g id="edge104" class="edge"><title>ndOp&#45;&gt;ndGSet</title>
<path fill="none" stroke="black" stroke-dasharray="5,2" d="M590.239,-303.307C543.588,-287.914 461.133,-262.378 392,-234 383.403,-230.471 374.516,-226.5 365.576,-222.389"/>
<polygon fill="black" stroke="black" points="356.251,-218.067 367.216,-218.189 360.787,-220.169 365.324,-222.272 365.324,-222.272 365.324,-222.272 360.787,-220.169 363.431,-226.355 356.251,-218.067 356.251,-218.067"/>
</g>
<!-- ndOp&#45;&gt;ndGSet -->
<g id="edge113" class="edge"><title>ndOp&#45;&gt;ndGSet</title>
<path fill="none" stroke="black" stroke-dasharray="5,2" d="M590.418,-298.491C545.539,-282.877 472.351,-259.594 410,-234 395.864,-228.198 380.943,-221.2 365.72,-214.348"/>
<polygon fill="black" stroke="black" points="356.208,-210.112 367.174,-210.069 360.776,-212.146 365.343,-214.18 365.343,-214.18 365.343,-214.18 360.776,-212.146 363.513,-218.291 356.208,-210.112 356.208,-210.112"/>
</g>
<!-- ndGCounter -->
<g id="node20" class="node"><title>ndGCounter</title>
<polygon fill="lightblue" stroke="none" points="996,-184.5 996,-221.5 1137,-221.5 1137,-184.5 996,-184.5"/>
<polygon fill="none" stroke="black" points="996,-184.5 996,-221.5 1137,-221.5 1137,-184.5 996,-184.5"/>
<text text-anchor="start" x="1032.5" y="-200.3" font-family="Arial" font-weight="bold" font-size="14.00">GCounter</text>
<polygon fill="white" stroke="none" points="996,-147.5 996,-184.5 1137,-184.5 1137,-147.5 996,-147.5"/>
<polygon fill="none" stroke="black" points="996,-147.5 996,-184.5 1137,-184.5 1137,-147.5 996,-147.5"/>
<text text-anchor="start" x="1007" y="-162.3" font-family="Arial" font-size="14.00">&#45; inner: VClock&lt;A&gt;</text>
<polygon fill="none" stroke="black" points="994.5,-146.5 994.5,-222.5 1137.5,-222.5 1137.5,-146.5 994.5,-146.5"/>
</g>
<!-- ndOp&#45;&gt;ndGCounter -->
<g id="edge4" class="edge"><title>ndOp&#45;&gt;ndGCounter</title>
<path fill="none" stroke="black" stroke-dasharray="5,2" d="M657.734,-307.912C718.153,-295.255 835.681,-271.022 932,-234 946.554,-228.406 961.696,-220.874 977.141,-213.415"/>
<polygon fill="black" stroke="black" points="986.267,-209.048 979.19,-217.424 981.757,-211.206 977.247,-213.365 977.247,-213.365 977.247,-213.365 981.757,-211.206 975.304,-209.305 986.267,-209.048 986.267,-209.048"/>
</g>
<!-- ndOp&#45;&gt;ndGCounter -->
<g id="edge61" class="edge"><title>ndOp&#45;&gt;ndGCounter</title>
<path fill="none" stroke="black" stroke-dasharray="5,2" d="M657.578,-310.509C718.813,-298.738 846.622,-273.735 950,-234 958.931,-230.567 968.084,-226.405 977.219,-221.977"/>
<polygon fill="black" stroke="black" points="986.34,-217.478 979.362,-225.938 981.856,-219.69 977.371,-221.902 977.371,-221.902 977.371,-221.902 981.856,-219.69 975.381,-217.866 986.34,-217.478 986.34,-217.478"/>
</g>
<!-- ndOp&#45;&gt;ndGCounter -->
<g id="edge72" class="edge"><title>ndOp&#45;&gt;ndGCounter</title>
<path fill="none" stroke="black" stroke-dasharray="5,2" d="M657.645,-312.607C720.351,-301.878 858.005,-276.278 968,-234 971.039,-232.832 974.103,-231.58 977.177,-230.261"/>
<polygon fill="black" stroke="black" points="986.41,-226.125 979.123,-234.32 981.847,-228.169 977.284,-230.213 977.284,-230.213 977.284,-230.213 981.847,-228.169 975.444,-226.106 986.41,-226.125 986.41,-226.125"/>
</g>
<!-- ndOp&#45;&gt;ndGCounter -->
<g id="edge84" class="edge"><title>ndOp&#45;&gt;ndGCounter</title>
<path fill="none" stroke="black" stroke-dasharray="5,2" d="M657.544,-314.274C722.805,-304.701 869.829,-278.652 986,-234 988.695,-232.964 991.41,-231.862 994.129,-230.706"/>
<polygon fill="black" stroke="black" points="1003.37,-226.588 996.065,-234.77 998.799,-228.624 994.232,-230.66 994.232,-230.66 994.232,-230.66 998.799,-228.624 992.4,-226.55 1003.37,-226.588 1003.37,-226.588"/>
</g>
<!-- ndOp&#45;&gt;ndGCounter -->
<g id="edge105" class="edge"><title>ndOp&#45;&gt;ndGCounter</title>
<path fill="none" stroke="black" stroke-dasharray="5,2" d="M657.695,-315.48C727.341,-307.036 882.535,-280.687 1004,-234 1006.69,-232.964 1009.41,-231.862 1012.12,-230.706"/>
<polygon fill="black" stroke="black" points="1021.32,-226.588 1014.03,-234.782 1016.76,-228.632 1012.19,-230.675 1012.19,-230.675 1012.19,-230.675 1016.76,-228.632 1010.35,-226.568 1021.32,-226.588 1021.32,-226.588"/>
</g>
<!-- ndOp&#45;&gt;ndGCounter -->
<g id="edge114" class="edge"><title>ndOp&#45;&gt;ndGCounter</title>
<path fill="none" stroke="black" stroke-dasharray="5,2" d="M657.67,-316.356C733.645,-308.985 895.976,-282.439 1022,-234 1024.69,-232.964 1027.41,-231.862 1030.12,-230.706"/>
<polygon fill="black" stroke="black" points="1039.27,-226.588 1032,-234.794 1034.71,-228.639 1030.15,-230.69 1030.15,-230.69 1030.15,-230.69 1034.71,-228.639 1028.31,-226.587 1039.27,-226.588 1039.27,-226.588"/>
</g>
<!-- ndValidation -->
<g id="node25" class="node"><title>ndValidation</title>
<polygon fill="yellow" stroke="none" points="813,-184.5 813,-221.5 941,-221.5 941,-184.5 813,-184.5"/>
<polygon fill="none" stroke="black" points="813,-184.5 813,-221.5 941,-221.5 941,-184.5 813,-184.5"/>
<text text-anchor="start" x="842.5" y="-200.3" font-family="Arial" font-weight="bold" font-size="14.00">Validation</text>
<polygon fill="white" stroke="none" points="813,-147.5 813,-184.5 941,-184.5 941,-147.5 813,-147.5"/>
<polygon fill="none" stroke="black" points="813,-147.5 813,-184.5 941,-184.5 941,-147.5 813,-147.5"/>
<text text-anchor="start" x="824" y="-162.3" font-family="Arial" font-size="14.00">DoubleSpentDot</text>
<polygon fill="none" stroke="black" points="812,-146.5 812,-222.5 942,-222.5 942,-146.5 812,-146.5"/>
</g>
<!-- ndOp&#45;&gt;ndValidation -->
<g id="edge5" class="edge"><title>ndOp&#45;&gt;ndValidation</title>
<path fill="none" stroke="black" stroke-dasharray="5,2" d="M629.107,-269.927C649.495,-258.469 673.727,-246.068 696,-234 720.71,-220.612 748.742,-203.63 793.748,-193.723"/>
<polygon fill="black" stroke="black" points="803.614,-191.72 794.71,-198.12 798.714,-192.715 793.814,-193.709 793.814,-193.709 793.814,-193.709 798.714,-192.715 792.919,-189.299 803.614,-191.72 803.614,-191.72"/>
</g>
<!-- ndOp&#45;&gt;ndValidation -->
<g id="edge12" class="edge"><title>ndOp&#45;&gt;ndValidation</title>
<path fill="none" stroke="black" d="M646.626,-269.927C667.495,-258.469 691.727,-246.068 714,-234 736.066,-222.044 760.782,-207.223 794.12,-197.133"/>
<polygon fill="black" stroke="black" points="803.757,-194.419 795.351,-201.461 798.944,-195.774 794.131,-197.13 794.131,-197.13 794.131,-197.13 798.944,-195.774 792.912,-192.798 803.757,-194.419 803.757,-194.419"/>
</g>
<!-- ndOp&#45;&gt;ndValidation -->
<g id="edge62" class="edge"><title>ndOp&#45;&gt;ndValidation</title>
<path fill="none" stroke="black" stroke-dasharray="5,2" d="M657.548,-273.489C680.406,-261.067 707.398,-247.33 732,-234 750.487,-223.983 770.834,-211.955 794.35,-202.383"/>
<polygon fill="black" stroke="black" points="803.885,-198.712 796.17,-206.504 799.219,-200.508 794.553,-202.305 794.553,-202.305 794.553,-202.305 799.219,-200.508 792.936,-198.106 803.885,-198.712 803.885,-198.712"/>
</g>
<!-- ndOp&#45;&gt;ndValidation -->
<g id="edge68" class="edge"><title>ndOp&#45;&gt;ndValidation</title>
<path fill="none" stroke="black" d="M657.733,-282.687C684.516,-268.083 719.138,-250.722 750,-234 763.858,-226.491 778.762,-217.852 794.334,-209.965"/>
<polygon fill="black" stroke="black" points="803.576,-205.422 796.587,-213.871 799.089,-207.627 794.602,-209.833 794.602,-209.833 794.602,-209.833 799.089,-207.627 792.617,-205.794 803.576,-205.422 803.576,-205.422"/>
</g>
<!-- ndOp&#45;&gt;ndValidation -->
<g id="edge73" class="edge"><title>ndOp&#45;&gt;ndValidation</title>
<path fill="none" stroke="black" stroke-dasharray="5,2" d="M657.573,-291.582C687.648,-275.482 730.587,-254.271 768,-234 776.706,-229.283 785.825,-224.12 795.032,-218.977"/>
<polygon fill="black" stroke="black" points="803.877,-214.068 797.317,-222.855 799.505,-216.494 795.133,-218.921 795.133,-218.921 795.133,-218.921 799.505,-216.494 792.949,-214.986 803.877,-214.068 803.877,-214.068"/>
</g>
<!-- ndOp&#45;&gt;ndValidation -->
<g id="edge80" class="edge"><title>ndOp&#45;&gt;ndValidation</title>
<path fill="none" stroke="black" d="M657.691,-299.372C690.784,-282.773 742.181,-257.742 786,-234 788.908,-232.424 791.863,-230.798 794.843,-229.14"/>
<polygon fill="black" stroke="black" points="803.838,-224.086 797.324,-232.908 799.479,-226.536 795.12,-228.985 795.12,-228.985 795.12,-228.985 799.479,-226.536 792.916,-225.062 803.838,-224.086 803.838,-224.086"/>
</g>
<!-- ndOp&#45;&gt;ndValidation -->
<g id="edge85" class="edge"><title>ndOp&#45;&gt;ndValidation</title>
<path fill="none" stroke="black" stroke-dasharray="5,2" d="M657.566,-305.801C694.293,-289.783 754.067,-261.054 804,-234 805.5,-233.187 807.012,-232.362 808.532,-231.525"/>
<polygon fill="black" stroke="black" points="817.3,-226.631 810.761,-235.434 812.934,-229.068 808.568,-231.505 808.568,-231.505 808.568,-231.505 812.934,-229.068 806.375,-227.575 817.3,-226.631 817.3,-226.631"/>
</g>
<!-- ndOp&#45;&gt;ndValidation -->
<g id="edge90" class="edge"><title>ndOp&#45;&gt;ndValidation</title>
<path fill="none" stroke="black" d="M657.501,-310.408C699.637,-295.832 766.826,-263.894 822,-234 823.5,-233.187 825.012,-232.362 826.531,-231.525"/>
<polygon fill="black" stroke="black" points="835.271,-226.631 828.744,-235.443 830.909,-229.074 826.546,-231.517 826.546,-231.517 826.546,-231.517 830.909,-229.074 824.347,-227.59 835.271,-226.631 835.271,-226.631"/>
</g>
<!-- ndOp&#45;&gt;ndValidation -->
<g id="edge106" class="edge"><title>ndOp&#45;&gt;ndValidation</title>
<path fill="none" stroke="black" stroke-dasharray="5,2" d="M657.546,-313.347C707.643,-300.563 780.75,-266.102 840,-234 841.363,-233.261 842.737,-232.512 844.116,-231.753"/>
<polygon fill="black" stroke="black" points="853.242,-226.631 846.724,-235.449 848.882,-229.078 844.522,-231.525 844.522,-231.525 844.522,-231.525 848.882,-229.078 842.319,-227.601 853.242,-226.631 853.242,-226.631"/>
</g>
<!-- ndOp&#45;&gt;ndValidation -->
<g id="edge110" class="edge"><title>ndOp&#45;&gt;ndValidation</title>
<path fill="none" stroke="black" d="M657.89,-315.071C718.425,-303.955 795.839,-267.68 858,-234 859.363,-233.261 860.737,-232.512 862.115,-231.753"/>
<polygon fill="black" stroke="black" points="871.213,-226.631 864.707,-235.458 866.856,-229.084 862.499,-231.537 862.499,-231.537 862.499,-231.537 866.856,-229.084 860.292,-227.615 871.213,-226.631 871.213,-226.631"/>
</g>
<!-- ndOp&#45;&gt;ndValidation -->
<g id="edge115" class="edge"><title>ndOp&#45;&gt;ndValidation</title>
<path fill="none" stroke="black" stroke-dasharray="5,2" d="M657.994,-316.148C730.967,-306.507 811.655,-268.863 876,-234 877.363,-233.261 878.737,-232.512 880.114,-231.753"/>
<polygon fill="black" stroke="black" points="889.184,-226.631 882.689,-235.467 884.831,-229.09 880.477,-231.548 880.477,-231.548 880.477,-231.548 884.831,-229.09 878.264,-227.63 889.184,-226.631 889.184,-226.631"/>
</g>
<!-- ndOp&#45;&gt;ndValidation -->
<g id="edge118" class="edge"><title>ndOp&#45;&gt;ndValidation</title>
<path fill="none" stroke="black" d="M657.519,-316.871C744.574,-308.553 827.908,-269.81 894,-234 895.363,-233.261 896.737,-232.512 898.113,-231.753"/>
<polygon fill="black" stroke="black" points="907.155,-226.631 900.672,-235.475 902.805,-229.095 898.454,-231.56 898.454,-231.56 898.454,-231.56 902.805,-229.095 896.236,-227.644 907.155,-226.631 907.155,-226.631"/>
</g>
<!-- ndGList -->
<g id="node30" class="node"><title>ndGList</title>
<polygon fill="lightblue" stroke="none" points="383,-184.5 383,-221.5 597,-221.5 597,-184.5 383,-184.5"/>
<polygon fill="none" stroke="black" points="383,-184.5 383,-221.5 597,-221.5 597,-184.5 383,-184.5"/>
<text text-anchor="start" x="471.5" y="-200.3" font-family="Arial" font-weight="bold" font-size="14.00">GList</text>
<polygon fill="white" stroke="none" points="383,-147.5 383,-184.5 597,-184.5 597,-147.5 383,-147.5"/>
<polygon fill="none" stroke="black" points="383,-147.5 383,-184.5 597,-184.5 597,-147.5 383,-147.5"/>
<text text-anchor="start" x="394" y="-162.3" font-family="Arial" font-size="14.00">&#45; list: BTreeSet&lt;Identifier&lt;T&gt;&gt;</text>
<polygon fill="none" stroke="black" points="382,-146.5 382,-222.5 598,-222.5 598,-146.5 382,-146.5"/>
</g>
<!-- ndOp&#45;&gt;ndGList -->
<g id="edge7" class="edge"><title>ndOp&#45;&gt;ndGList</title>
<path fill="none" stroke="black" stroke-dasharray="5,2" d="M590.258,-305.747C562.704,-289.367 529.181,-259.992 506.57,-234.377"/>
<polygon fill="black" stroke="black" points="499.922,-226.566 509.831,-231.264 503.163,-230.374 506.404,-234.181 506.404,-234.181 506.404,-234.181 503.163,-230.374 502.977,-237.098 499.922,-226.566 499.922,-226.566"/>
</g>
<!-- ndOp&#45;&gt;ndGList -->
<g id="edge63" class="edge"><title>ndOp&#45;&gt;ndGList</title>
<path fill="none" stroke="black" stroke-dasharray="5,2" d="M590.467,-299.726C568.318,-282.743 540.705,-256.981 519.493,-234.219"/>
<polygon fill="black" stroke="black" points="512.562,-226.631 522.629,-230.98 515.934,-230.323 519.306,-234.015 519.306,-234.015 519.306,-234.015 515.934,-230.323 515.984,-237.05 512.562,-226.631 512.562,-226.631"/>
</g>
<!-- ndOp&#45;&gt;ndGList -->
<g id="edge75" class="edge"><title>ndOp&#45;&gt;ndGList</title>
<path fill="none" stroke="black" stroke-dasharray="5,2" d="M590.295,-290.619C572.663,-274.206 550.985,-252.99 532.261,-233.921"/>
<polygon fill="black" stroke="black" points="525.245,-226.732 535.45,-230.745 528.737,-230.31 532.23,-233.888 532.23,-233.888 532.23,-233.888 528.737,-230.31 529.009,-237.031 525.245,-226.732 525.245,-226.732"/>
</g>
<!-- ndOp&#45;&gt;ndGList -->
<g id="edge86" class="edge"><title>ndOp&#45;&gt;ndGList</title>
<path fill="none" stroke="black" stroke-dasharray="5,2" d="M590.389,-278.956C576.647,-264.742 560.429,-248.551 545.063,-233.684"/>
<polygon fill="black" stroke="black" points="537.603,-226.507 547.93,-230.197 541.206,-229.973 544.81,-233.44 544.81,-233.44 544.81,-233.44 541.206,-229.973 541.69,-236.683 537.603,-226.507 537.603,-226.507"/>
</g>
<!-- ndOp&#45;&gt;ndGList -->
<g id="edge107" class="edge"><title>ndOp&#45;&gt;ndGList</title>
<path fill="none" stroke="black" stroke-dasharray="5,2" d="M594.46,-269.731C583.485,-257.956 570.799,-245.381 558.044,-233.635"/>
<polygon fill="black" stroke="black" points="550.539,-226.827 560.97,-230.213 554.243,-230.187 557.946,-233.546 557.946,-233.546 557.946,-233.546 554.243,-230.187 554.923,-236.879 550.539,-226.827 550.539,-226.827"/>
</g>
<!-- ndOp&#45;&gt;ndGList -->
<g id="edge116" class="edge"><title>ndOp&#45;&gt;ndGList</title>
<path fill="none" stroke="black" stroke-dasharray="5,2" d="M607.525,-269.731C596.988,-257.783 584.071,-245.012 570.488,-233.119"/>
<polygon fill="black" stroke="black" points="562.884,-226.613 573.408,-229.695 566.683,-229.864 570.482,-233.114 570.482,-233.114 570.482,-233.114 566.683,-229.864 567.557,-236.534 562.884,-226.613 562.884,-226.613"/>
</g>
<!-- ndVClock -->
<g id="node32" class="node"><title>ndVClock</title>
<polygon fill="lightblue" stroke="none" points="1238,-612 1238,-649 1432,-649 1432,-612 1238,-612"/>
<polygon fill="none" stroke="black" points="1238,-612 1238,-649 1432,-649 1432,-612 1238,-612"/>
<text text-anchor="start" x="1310" y="-627.8" font-family="Arial" font-weight="bold" font-size="14.00">VClock</text>
<polygon fill="white" stroke="none" points="1238,-575 1238,-612 1432,-612 1432,-575 1238,-575"/>
<polygon fill="none" stroke="black" points="1238,-575 1238,-612 1432,-612 1432,-575 1238,-575"/>
<text text-anchor="start" x="1249" y="-589.8" font-family="Arial" font-size="14.00">+ dots: BTreeMap&lt;A, u64&gt;</text>
<polygon fill="none" stroke="black" points="1237,-574 1237,-650 1433,-650 1433,-574 1237,-574"/>
</g>
<!-- ndOp&#45;&gt;ndVClock -->
<g id="edge9" class="edge"><title>ndOp&#45;&gt;ndVClock</title>
<path fill="none" stroke="black" stroke-dasharray="5,2" d="M657.669,-328.535C774.623,-348.999 1134.58,-401.71 1140,-405 1200.6,-441.777 1244.1,-513.217 1279.21,-561.522"/>
<polygon fill="black" stroke="black" points="1285.22,-569.662 1275.66,-564.289 1282.25,-565.639 1279.28,-561.617 1279.28,-561.617 1279.28,-561.617 1282.25,-565.639 1282.9,-558.944 1285.22,-569.662 1285.22,-569.662"/>
</g>
<!-- ndOp&#45;&gt;ndVClock -->
<g id="edge65" class="edge"><title>ndOp&#45;&gt;ndVClock</title>
<path fill="none" stroke="black" stroke-dasharray="5,2" d="M657.512,-327.103C774.94,-346.412 1152.45,-401.631 1158,-405 1218.48,-441.701 1261.92,-512.922 1292.6,-561.222"/>
<polygon fill="black" stroke="black" points="1297.99,-569.662 1288.82,-563.655 1295.3,-565.448 1292.61,-561.233 1292.61,-561.233 1292.61,-561.233 1295.3,-565.448 1296.4,-558.812 1297.99,-569.662 1297.99,-569.662"/>
</g>
<!-- ndOp&#45;&gt;ndVClock -->
<g id="edge77" class="edge"><title>ndOp&#45;&gt;ndVClock</title>
<path fill="none" stroke="black" stroke-dasharray="5,2" d="M657.623,-325.917C776.669,-344.033 1170.33,-401.559 1176,-405 1236.22,-441.549 1279.56,-512.333 1305.89,-560.621"/>
<polygon fill="black" stroke="black" points="1310.77,-569.662 1302.06,-562.998 1308.39,-565.261 1306.02,-560.861 1306.02,-560.861 1306.02,-560.861 1308.39,-565.261 1309.98,-558.724 1310.77,-569.662 1310.77,-569.662"/>
</g>
<!-- ndOp&#45;&gt;ndVClock -->
<g id="edge87" class="edge"><title>ndOp&#45;&gt;ndVClock</title>
<path fill="none" stroke="black" stroke-dasharray="5,2" d="M657.52,-324.892C778.991,-341.743 1188.22,-401.491 1194,-405 1254.1,-441.473 1297.38,-512.039 1319.42,-560.32"/>
<polygon fill="black" stroke="black" points="1323.54,-569.662 1315.39,-562.33 1321.52,-565.087 1319.5,-560.513 1319.5,-560.513 1319.5,-560.513 1321.52,-565.087 1323.62,-558.696 1323.54,-569.662 1323.54,-569.662"/>
</g>
<!-- ndOp&#45;&gt;ndVClock -->
<g id="edge108" class="edge"><title>ndOp&#45;&gt;ndVClock</title>
<path fill="none" stroke="black" stroke-dasharray="5,2" d="M657.578,-324.067C782.907,-339.687 1206.12,-401.431 1212,-405 1271.97,-441.397 1315.2,-511.745 1333,-560.017"/>
<polygon fill="black" stroke="black" points="1336.32,-569.662 1328.81,-561.667 1334.69,-564.933 1333.07,-560.205 1333.07,-560.205 1333.07,-560.205 1334.69,-564.933 1337.32,-558.742 1336.32,-569.662 1336.32,-569.662"/>
</g>
<!-- ndOp&#45;&gt;ndVClock -->
<g id="edge117" class="edge"><title>ndOp&#45;&gt;ndVClock</title>
<path fill="none" stroke="black" stroke-dasharray="5,2" d="M657.794,-323.416C788.51,-337.879 1224.03,-401.379 1230,-405 1289.85,-441.321 1333.02,-511.451 1346.64,-559.715"/>
<polygon fill="black" stroke="black" points="1349.09,-569.662 1342.33,-561.03 1347.89,-564.807 1346.7,-559.953 1346.7,-559.953 1346.7,-559.953 1347.89,-564.807 1351.07,-558.875 1349.09,-569.662 1349.09,-569.662"/>
</g>
<!-- ndCmRDTValidation -->
<g id="node5" class="node"><title>ndCmRDTValidation</title>
<polygon fill="yellow" stroke="none" points="3139,-761.5 3139,-798.5 3383,-798.5 3383,-761.5 3139,-761.5"/>
<polygon fill="none" stroke="black" points="3139,-761.5 3139,-798.5 3383,-798.5 3383,-761.5 3139,-761.5"/>
<text text-anchor="start" x="3200" y="-777.3" font-family="Arial" font-weight="bold" font-size="14.00">CmRDTValidation</text>
<polygon fill="white" stroke="none" points="3139,-709.5 3139,-761.5 3383,-761.5 3383,-709.5 3139,-709.5"/>
<polygon fill="none" stroke="black" points="3139,-709.5 3139,-761.5 3383,-761.5 3383,-709.5 3139,-709.5"/>
<text text-anchor="start" x="3150" y="-739.3" font-family="Arial" font-size="14.00">SourceOrder(crate::DotRange&lt;A&gt;)</text>
<text text-anchor="start" x="3150" y="-724.3" font-family="Arial" font-size="14.00">Value(V::Validation)</text>
<polygon fill="none" stroke="black" points="3138,-709 3138,-800 3384,-800 3384,-709 3138,-709"/>
</g>
<!-- ndActor -->
<g id="node7" class="node"><title>ndActor</title>
<polygon fill="lightgreen" stroke="none" points="3503,-735.5 3503,-772.5 3563,-772.5 3563,-735.5 3503,-735.5"/>
<polygon fill="none" stroke="black" points="3503,-735.5 3503,-772.5 3563,-772.5 3563,-735.5 3503,-735.5"/>
<text text-anchor="start" x="3514" y="-751.3" font-family="Arial" font-weight="bold" font-size="14.00">Actor</text>
<polygon fill="none" stroke="black" points="3502,-735 3502,-774 3564,-774 3564,-735 3502,-735"/>
</g>
<!-- ndCvRDT -->
<g id="node8" class="node"><title>ndCvRDT</title>
<polygon fill="lightgreen" stroke="none" points="556,-735.5 556,-772.5 627,-772.5 627,-735.5 556,-735.5"/>
<polygon fill="none" stroke="black" points="556,-735.5 556,-772.5 627,-772.5 627,-735.5 556,-735.5"/>
<text text-anchor="start" x="567" y="-751.3" font-family="Arial" font-weight="bold" font-size="14.00">CvRDT</text>
<polygon fill="none" stroke="black" points="554.5,-735 554.5,-774 627.5,-774 627.5,-735 554.5,-735"/>
</g>
<!-- ndCvRDT&#45;&gt;ndOp -->
<g id="edge19" class="edge"><title>ndCvRDT&#45;&gt;ndOp</title>
<path fill="none" stroke="black" stroke-dasharray="5,2" d="M589.503,-730.83C590.371,-665.688 604.268,-476.439 614.707,-379.395"/>
<polygon fill="none" stroke="black" points="618.218,-379.488 615.834,-369.165 611.26,-378.722 618.218,-379.488"/>
</g>
<!-- ndCvRDT&#45;&gt;ndOp -->
<g id="edge21" class="edge"><title>ndCvRDT&#45;&gt;ndOp</title>
<path fill="none" stroke="black" stroke-dasharray="5,2" d="M595.953,-730.83C605.013,-665.688 619.963,-476.439 624.316,-379.395"/>
<polygon fill="none" stroke="black" points="627.823,-379.304 624.748,-369.165 620.829,-379.008 627.823,-379.304"/>
</g>
<!-- ndCvRDT&#45;&gt;ndCvRDTValidation -->
<g id="edge13" class="edge"><title>ndCvRDT&#45;&gt;ndCvRDTValidation</title>
<path fill="none" stroke="black" stroke-dasharray="5,2" d="M567.358,-730.707C512.699,-675.124 386.162,-528.139 439,-405 473.338,-324.975 513.242,-324.698 581,-270 593.59,-259.837 607.37,-249.631 621.021,-240.002"/>
<polygon fill="none" stroke="black" points="623.297,-242.681 629.492,-234.087 619.29,-236.942 623.297,-242.681"/>
</g>
<!-- ndCvRDT&#45;&gt;ndValidationError -->
<g id="edge14" class="edge"><title>ndCvRDT&#45;&gt;ndValidationError</title>
<path fill="none" stroke="black" stroke-dasharray="5,2" d="M546.4,-736.497C518.667,-726.368 482.104,-713.812 449,-705 367.633,-683.341 327.347,-723.307 263,-669 129.938,-556.7 94.0243,-336.682 84.437,-236.894"/>
<polygon fill="none" stroke="black" points="87.9069,-236.403 83.5149,-226.762 80.9357,-237.038 87.9069,-236.403"/>
</g>
<!-- ndCvRDT&#45;&gt;ndGSet -->
<g id="edge15" class="edge"><title>ndCvRDT&#45;&gt;ndGSet</title>
<path fill="none" stroke="black" stroke-dasharray="5,2" d="M546.349,-737.858C518.439,-728.178 481.708,-715.615 449,-705 397.251,-688.206 370.686,-707.255 332,-669 215.265,-553.565 238.643,-335.641 256.859,-236.689"/>
<polygon fill="none" stroke="black" points="260.34,-237.117 258.767,-226.64 253.463,-235.812 260.34,-237.117"/>
</g>
<!-- ndCvRDT&#45;&gt;ndGCounter -->
<g id="edge16" class="edge"><title>ndCvRDT&#45;&gt;ndGCounter</title>
<path fill="none" stroke="black" stroke-dasharray="5,2" d="M635.723,-745.776C703.614,-734.437 836.868,-713.691 951,-705 1006.13,-700.802 2894.16,-698.366 2941,-669 3004.32,-629.304 2999.64,-591.69 3017,-519 3042.71,-411.362 3093.54,-349.928 3017,-270 2951.88,-201.998 1530.37,-188.385 1155.8,-185.974"/>
<polygon fill="none" stroke="black" points="1155.57,-182.473 1145.55,-185.91 1155.53,-189.473 1155.57,-182.473"/>
</g>
<!-- ndCvRDT&#45;&gt;ndValidation -->
<g id="edge17" class="edge"><title>ndCvRDT&#45;&gt;ndValidation</title>
<path fill="none" stroke="black" stroke-dasharray="5,2" d="M597.039,-730.567C621.07,-668.633 708.984,-496.508 834,-405 875.168,-374.866 913.112,-410.347 943,-369 968.776,-333.341 958.622,-311.133 943,-270 938.227,-257.433 930.635,-245.539 922.248,-234.858"/>
<polygon fill="none" stroke="black" points="924.776,-232.423 915.713,-226.936 919.376,-236.877 924.776,-232.423"/>
</g>
<!-- ndCvRDT&#45;&gt;ndValidation -->
<g id="edge22" class="edge"><title>ndCvRDT&#45;&gt;ndValidation</title>
<path fill="none" stroke="black" stroke-dasharray="5,2" d="M605.454,-730.567C639.07,-668.633 726.984,-496.508 852,-405 893.168,-374.866 931.112,-410.347 961,-369 986.776,-333.341 976.622,-311.133 961,-270 956.181,-257.31 948.486,-245.306 939.645,-234.544"/>
<polygon fill="none" stroke="black" points="942.233,-232.186 933.03,-226.936 936.95,-236.779 942.233,-232.186"/>
</g>
<!-- ndCvRDT&#45;&gt;ndGList -->
<g id="edge18" class="edge"><title>ndCvRDT&#45;&gt;ndGList</title>
<path fill="none" stroke="black" stroke-dasharray="5,2" d="M546.498,-731.84C481.235,-697.26 362.105,-622.752 314,-519 266.91,-417.438 284.44,-359.264 352,-270 362.943,-255.541 377.141,-243.002 392.257,-232.333"/>
<polygon fill="none" stroke="black" points="394.412,-235.1 400.734,-226.598 390.49,-229.302 394.412,-235.1"/>
</g>
<!-- ndCvRDT&#45;&gt;ndVClock -->
<g id="edge20" class="edge"><title>ndCvRDT&#45;&gt;ndVClock</title>
<path fill="none" stroke="black" stroke-dasharray="5,2" d="M635.615,-745.128C716.315,-729.979 891.914,-696.99 1040,-669 1098.95,-657.858 1164.52,-645.416 1218.84,-635.095"/>
<polygon fill="none" stroke="black" points="1219.68,-638.498 1228.85,-633.193 1218.37,-631.621 1219.68,-638.498"/>
</g>
<!-- ndCmRDT -->
<g id="node9" class="node"><title>ndCmRDT</title>
<polygon fill="lightgreen" stroke="none" points="355,-735.5 355,-772.5 431,-772.5 431,-735.5 355,-735.5"/>
<polygon fill="none" stroke="black" points="355,-735.5 355,-772.5 431,-772.5 431,-735.5 355,-735.5"/>
<text text-anchor="start" x="366" y="-751.3" font-family="Arial" font-weight="bold" font-size="14.00">CmRDT</text>
<polygon fill="none" stroke="black" points="354,-735 354,-774 432,-774 432,-735 354,-735"/>
</g>
<!-- ndCmRDT&#45;&gt;ndOp -->
<g id="edge28" class="edge"><title>ndCmRDT&#45;&gt;ndOp</title>
<path fill="none" stroke="black" stroke-dasharray="5,2" d="M376.261,-730.815C353.09,-670.942 337.065,-506.324 412,-405 450.499,-352.943 528.761,-332.108 579.994,-324.475"/>
<polygon fill="none" stroke="black" points="580.743,-327.905 590.176,-323.08 579.793,-320.97 580.743,-327.905"/>
</g>
<!-- ndCmRDT&#45;&gt;ndOp -->
<g id="edge30" class="edge"><title>ndCmRDT&#45;&gt;ndOp</title>
<path fill="none" stroke="black" stroke-dasharray="5,2" d="M384.813,-730.815C371.09,-670.942 355.065,-506.324 430,-405 465.525,-356.964 534.908,-335.513 580.471,-326.488"/>
<polygon fill="none" stroke="black" points="581.183,-329.916 590.375,-324.648 579.904,-323.034 581.183,-329.916"/>
</g>
<!-- ndCmRDT&#45;&gt;ndOp -->
<g id="edge32" class="edge"><title>ndCmRDT&#45;&gt;ndOp</title>
<path fill="none" stroke="black" stroke-dasharray="5,2" d="M393.366,-730.815C389.09,-670.942 373.065,-506.324 448,-405 480.004,-361.725 539.486,-340.026 580.476,-329.552"/>
<polygon fill="none" stroke="black" points="581.323,-332.948 590.213,-327.184 579.669,-326.146 581.323,-332.948"/>
</g>
<!-- ndCmRDT&#45;&gt;ndOp -->
<g id="edge33" class="edge"><title>ndCmRDT&#45;&gt;ndOp</title>
<path fill="none" stroke="black" stroke-dasharray="5,2" d="M401.918,-730.815C407.09,-670.942 391.065,-506.324 466,-405 494.115,-366.984 543.437,-345.618 580.222,-333.886"/>
<polygon fill="none" stroke="black" points="581.696,-337.095 590.237,-330.826 579.65,-330.401 581.696,-337.095"/>
</g>
<!-- ndCmRDT&#45;&gt;ndCvRDTValidation -->
<g id="edge23" class="edge"><title>ndCmRDT&#45;&gt;ndCvRDTValidation</title>
<path fill="none" stroke="black" stroke-dasharray="5,2" d="M387.395,-730.764C369.751,-653.11 324.019,-396.238 456,-270 506.111,-222.07 543.792,-256.191 614.106,-233.873"/>
<polygon fill="none" stroke="black" points="615.48,-237.101 623.778,-230.513 613.183,-230.489 615.48,-237.101"/>
</g>
<!-- ndCmRDT&#45;&gt;ndValidationError -->
<g id="edge24" class="edge"><title>ndCmRDT&#45;&gt;ndValidationError</title>
<path fill="none" stroke="black" stroke-dasharray="5,2" d="M372.737,-730.906C362.903,-721.37 350.339,-711.087 337,-705 285.737,-681.607 123.127,-711.388 86,-669 -20.9485,-546.899 30.8091,-333.413 62.5415,-236.247"/>
<polygon fill="none" stroke="black" points="65.8966,-237.25 65.7329,-226.656 59.2546,-235.04 65.8966,-237.25"/>
</g>
<!-- ndCmRDT&#45;&gt;ndGSet -->
<g id="edge25" class="edge"><title>ndCmRDT&#45;&gt;ndGSet</title>
<path fill="none" stroke="black" stroke-dasharray="5,2" d="M371.602,-730.868C361.826,-721.676 349.622,-711.672 337,-705 281.721,-675.78 239.221,-718.484 201,-669 92.599,-528.656 141.06,-437.253 200,-270 204.389,-257.546 211.476,-245.574 219.453,-234.755"/>
<polygon fill="none" stroke="black" points="222.326,-236.762 225.697,-226.718 216.798,-232.468 222.326,-236.762"/>
</g>
<!-- ndCmRDT&#45;&gt;ndGCounter -->
<g id="edge26" class="edge"><title>ndCmRDT&#45;&gt;ndGCounter</title>
<path fill="none" stroke="black" stroke-dasharray="5,2" d="M440.094,-733.837C467.792,-723.241 503.792,-711.116 537,-705 736.688,-668.221 1247.44,-682.983 1450,-669 1788.39,-645.641 2741.24,-770.358 2969,-519 3046.35,-433.632 2994.39,-331.532 2897,-270 2822.72,-223.072 1513.58,-194.219 1155.75,-187.185"/>
<polygon fill="none" stroke="black" points="1155.76,-183.685 1145.69,-186.988 1155.62,-190.684 1155.76,-183.685"/>
</g>
<!-- ndCmRDT&#45;&gt;ndValidation -->
<g id="edge27" class="edge"><title>ndCmRDT&#45;&gt;ndValidation</title>
<path fill="none" stroke="black" stroke-dasharray="5,2" d="M407.492,-730.571C448.927,-667.116 574.879,-488.386 729,-405 804.208,-364.309 863.485,-434.879 918,-369 948.956,-331.591 930.095,-275.701 908.859,-235.437"/>
<polygon fill="none" stroke="black" points="911.887,-233.681 904.02,-226.585 905.745,-237.038 911.887,-233.681"/>
</g>
<!-- ndCmRDT&#45;&gt;ndGList -->
<g id="edge29" class="edge"><title>ndCmRDT&#45;&gt;ndGList</title>
<path fill="none" stroke="black" stroke-dasharray="5,2" d="M370.768,-730.916C361.033,-721.949 349.087,-712.102 337,-705 296.634,-681.281 264.86,-707.348 238,-669 170.686,-572.896 221.953,-521.231 238,-405 246.525,-343.254 234.222,-316.258 276,-270 277.012,-268.879 324.853,-249.949 375.04,-230.292"/>
<polygon fill="none" stroke="black" points="376.391,-233.521 384.427,-226.617 373.839,-227.003 376.391,-233.521"/>
</g>
<!-- ndCmRDT&#45;&gt;ndVClock -->
<g id="edge31" class="edge"><title>ndCmRDT&#45;&gt;ndVClock</title>
<path fill="none" stroke="black" stroke-dasharray="5,2" d="M440.171,-734.236C467.895,-723.772 503.895,-711.647 537,-705 756.741,-660.877 817.75,-697.949 1040,-669 1099.37,-661.267 1164.85,-649.201 1219,-638.247"/>
<polygon fill="none" stroke="black" points="1219.87,-641.64 1228.97,-636.215 1218.48,-634.781 1219.87,-641.64"/>
</g>
<!-- ndResetRemove -->
<g id="node10" class="node"><title>ndResetRemove</title>
<polygon fill="lightgreen" stroke="none" points="969,-735.5 969,-772.5 1087,-772.5 1087,-735.5 969,-735.5"/>
<polygon fill="none" stroke="black" points="969,-735.5 969,-772.5 1087,-772.5 1087,-735.5 969,-735.5"/>
<text text-anchor="start" x="980" y="-751.3" font-family="Arial" font-weight="bold" font-size="14.00">ResetRemove</text>
<polygon fill="none" stroke="black" points="968,-735 968,-774 1088,-774 1088,-735 968,-735"/>
</g>
<!-- ndResetRemove&#45;&gt;ndOp -->
<g id="edge34" class="edge"><title>ndResetRemove&#45;&gt;ndOp</title>
<path fill="none" stroke="black" stroke-dasharray="5,2" d="M959.773,-746.233C869.163,-734.305 717.36,-707.942 680,-669 640.818,-628.16 619.84,-467.618 617.637,-379.384"/>
<polygon fill="none" stroke="black" points="621.135,-379.194 617.464,-369.255 614.136,-379.314 621.135,-379.194"/>
</g>
<!-- ndResetRemove&#45;&gt;ndOp -->
<g id="edge36" class="edge"><title>ndResetRemove&#45;&gt;ndOp</title>
<path fill="none" stroke="black" stroke-dasharray="5,2" d="M959.819,-744.582C874.074,-731.97 733.723,-706.235 698,-669 658.818,-628.16 637.84,-467.618 629.062,-379.384"/>
<polygon fill="none" stroke="black" points="632.528,-378.869 628.076,-369.255 625.561,-379.547 632.528,-378.869"/>
</g>
<!-- ndResetRemove&#45;&gt;ndOp -->
<g id="edge38" class="edge"><title>ndResetRemove&#45;&gt;ndOp</title>
<path fill="none" stroke="black" stroke-dasharray="5,2" d="M959.643,-742.586C878.262,-729.36 749.931,-704.368 716,-669 676.778,-628.118 655.797,-467.291 640.439,-379.115"/>
<polygon fill="none" stroke="black" points="643.883,-378.489 638.688,-369.255 636.991,-379.713 643.883,-378.489"/>
</g>
<!-- ndResetRemove&#45;&gt;ndGCounter -->
<g id="edge35" class="edge"><title>ndResetRemove&#45;&gt;ndGCounter</title>
<path fill="none" stroke="black" stroke-dasharray="5,2" d="M1096.02,-752.929C1440.27,-749.755 2977.34,-732.08 3055,-669 3089.57,-640.922 3123.83,-302.139 3093,-270 3025.09,-199.195 1539.47,-187.63 1155.78,-185.822"/>
<polygon fill="none" stroke="black" points="1155.58,-182.321 1145.57,-185.775 1155.55,-189.321 1155.58,-182.321"/>
</g>
<!-- ndResetRemove&#45;&gt;ndValidation -->
<g id="edge39" class="edge"><title>ndResetRemove&#45;&gt;ndValidation</title>
<path fill="none" stroke="black" stroke-dasharray="5,2" d="M1096,-753.065C1429.08,-750.612 2875.05,-736.115 2941,-669 3023.25,-585.301 2984.58,-515.469 2945,-405 2918.8,-331.875 2903.91,-303.858 2834,-270 2741.13,-225.023 1077.34,-258.074 977,-234 971.291,-232.63 965.526,-230.901 959.799,-228.916"/>
<polygon fill="none" stroke="black" points="960.807,-225.557 950.214,-225.355 958.369,-232.119 960.807,-225.557"/>
</g>
<!-- ndResetRemove&#45;&gt;ndVClock -->
<g id="edge37" class="edge"><title>ndResetRemove&#45;&gt;ndVClock</title>
<path fill="none" stroke="black" stroke-dasharray="5,2" d="M1077.32,-730.926C1120.03,-711.384 1183.09,-682.523 1236.14,-658.244"/>
<polygon fill="none" stroke="black" points="1237.6,-661.423 1245.24,-654.079 1234.69,-655.058 1237.6,-661.423"/>
</g>
<!-- ndReadCtx -->
<g id="node11" class="node"><title>ndReadCtx</title>
<polygon fill="lightblue" stroke="none" points="1332,-477 1332,-514 1511,-514 1511,-477 1332,-477"/>
<polygon fill="none" stroke="black" points="1332,-477 1332,-514 1511,-514 1511,-477 1332,-477"/>
<text text-anchor="start" x="1392" y="-492.8" font-family="Arial" font-weight="bold" font-size="14.00">ReadCtx</text>
<polygon fill="white" stroke="none" points="1332,-410 1332,-477 1511,-477 1511,-410 1332,-410"/>
<polygon fill="none" stroke="black" points="1332,-410 1332,-477 1511,-477 1511,-410 1332,-410"/>
<text text-anchor="start" x="1343" y="-454.8" font-family="Arial" font-size="14.00">+ add_clock: VClock&lt;A&gt;</text>
<text text-anchor="start" x="1343" y="-439.8" font-family="Arial" font-size="14.00">+ rm_clock: VClock&lt;A&gt;</text>
<text text-anchor="start" x="1343" y="-424.8" font-family="Arial" font-size="14.00">+ val: V</text>
<polygon fill="none" stroke="black" points="1330.5,-409 1330.5,-515 1511.5,-515 1511.5,-409 1330.5,-409"/>
</g>
<!-- ndReadCtx&#45;&gt;ndOp -->
<g id="edge42" class="edge"><title>ndReadCtx&#45;&gt;ndOp</title>
<path fill="none" stroke="black" d="M1322.28,-409.642C1317.5,-407.932 1312.73,-406.37 1308,-405 1159.49,-361.993 1115.44,-387.984 962,-369 856.112,-355.899 732.047,-337.247 667.702,-327.325"/>
<polygon fill="black" stroke="black" points="657.524,-325.751 668.094,-322.832 662.465,-326.515 667.407,-327.279 667.407,-327.279 667.407,-327.279 662.465,-326.515 666.719,-331.726 657.524,-325.751 657.524,-325.751"/>
</g>
<!-- ndReadCtx&#45;&gt;ndCvRDTValidation -->
<g id="edge40" class="edge"><title>ndReadCtx&#45;&gt;ndCvRDTValidation</title>
<path fill="none" stroke="black" d="M1322.22,-414.06C1313.14,-410.67 1303.97,-407.578 1295,-405 1185.84,-373.636 1146.27,-414.018 1042,-369 977.255,-341.048 980.577,-302.518 918,-270 870.122,-245.12 849.864,-254.481 795.475,-233.896"/>
<polygon fill="black" stroke="black" points="786.064,-230.169 797.018,-229.667 790.713,-232.01 795.361,-233.851 795.361,-233.851 795.361,-233.851 790.713,-232.01 793.704,-238.035 786.064,-230.169 786.064,-230.169"/>
</g>
<!-- ndRmCtx -->
<g id="node13" class="node"><title>ndRmCtx</title>
<polygon fill="lightblue" stroke="none" points="2670,-319.5 2670,-356.5 2817,-356.5 2817,-319.5 2670,-319.5"/>
<polygon fill="none" stroke="black" points="2670,-319.5 2670,-356.5 2817,-356.5 2817,-319.5 2670,-319.5"/>
<text text-anchor="start" x="2720.5" y="-335.3" font-family="Arial" font-weight="bold" font-size="14.00">RmCtx</text>
<polygon fill="white" stroke="none" points="2670,-282.5 2670,-319.5 2817,-319.5 2817,-282.5 2670,-282.5"/>
<polygon fill="none" stroke="black" points="2670,-282.5 2670,-319.5 2817,-319.5 2817,-282.5 2670,-282.5"/>
<text text-anchor="start" x="2681" y="-297.3" font-family="Arial" font-size="14.00">+ clock: VClock&lt;A&gt;</text>
<polygon fill="none" stroke="black" points="2668.5,-281.5 2668.5,-357.5 2817.5,-357.5 2817.5,-281.5 2668.5,-281.5"/>
</g>
<!-- ndReadCtx&#45;&gt;ndRmCtx -->
<g id="edge41" class="edge"><title>ndReadCtx&#45;&gt;ndRmCtx</title>
<path fill="none" stroke="black" d="M1519.52,-407.936C1522.68,-406.869 1525.85,-405.886 1529,-405 1739.54,-345.841 2403.5,-327.103 2649.83,-322.099"/>
<polygon fill="black" stroke="black" points="2660.18,-321.892 2650.27,-326.591 2655.18,-321.992 2650.18,-322.092 2650.18,-322.092 2650.18,-322.092 2655.18,-321.992 2650.09,-317.593 2660.18,-321.892 2660.18,-321.892"/>
</g>
<!-- ndReadCtx&#45;&gt;ndValidation -->
<g id="edge43" class="edge"><title>ndReadCtx&#45;&gt;ndValidation</title>
<path fill="none" stroke="black" d="M1322.41,-410.532C1246.84,-371.909 1139.93,-317.401 1046,-270 1017.85,-255.792 987.007,-240.339 959.467,-226.58"/>
<polygon fill="black" stroke="black" points="950.263,-221.983 961.22,-222.425 954.736,-224.217 959.209,-226.451 959.209,-226.451 959.209,-226.451 954.736,-224.217 957.198,-230.477 950.263,-221.983 950.263,-221.983"/>
</g>
<!-- ndAddCtx -->
<g id="node12" class="node"><title>ndAddCtx</title>
<polygon fill="lightblue" stroke="none" points="2781,-469 2781,-506 2928,-506 2928,-469 2781,-469"/>
<polygon fill="none" stroke="black" points="2781,-469 2781,-506 2928,-506 2928,-469 2781,-469"/>
<text text-anchor="start" x="2828.5" y="-484.8" font-family="Arial" font-weight="bold" font-size="14.00">AddCtx</text>
<polygon fill="white" stroke="none" points="2781,-417 2781,-469 2928,-469 2928,-417 2781,-417"/>
<polygon fill="none" stroke="black" points="2781,-417 2781,-469 2928,-469 2928,-417 2781,-417"/>
<text text-anchor="start" x="2792" y="-446.8" font-family="Arial" font-size="14.00">+ clock: VClock&lt;A&gt;</text>
<text text-anchor="start" x="2792" y="-431.8" font-family="Arial" font-size="14.00">+ dot: Dot&lt;A&gt;</text>
<polygon fill="none" stroke="black" points="2779.5,-416.5 2779.5,-507.5 2928.5,-507.5 2928.5,-416.5 2779.5,-416.5"/>
</g>
<!-- ndAddCtx&#45;&gt;ndRmCtx -->
<g id="edge44" class="edge"><title>ndAddCtx&#45;&gt;ndRmCtx</title>
<path fill="none" stroke="black" d="M2815.49,-412.254C2804.6,-398.473 2792.75,-383.471 2781.84,-369.665"/>
<polygon fill="black" stroke="black" points="2775.54,-361.693 2785.27,-366.751 2778.64,-365.617 2781.74,-369.54 2781.74,-369.54 2781.74,-369.54 2778.64,-365.617 2778.21,-372.33 2775.54,-361.693 2775.54,-361.693"/>
</g>
<!-- ndNode -->
<g id="node14" class="node"><title>ndNode</title>
<polygon fill="lightblue" stroke="none" points="3642,-761.5 3642,-798.5 3843,-798.5 3843,-761.5 3642,-761.5"/>
<polygon fill="none" stroke="black" points="3642,-761.5 3642,-798.5 3843,-798.5 3843,-761.5 3642,-761.5"/>
<text text-anchor="start" x="3724" y="-777.3" font-family="Arial" font-weight="bold" font-size="14.00">Node</text>
<polygon fill="white" stroke="none" points="3642,-709.5 3642,-761.5 3843,-761.5 3843,-709.5 3642,-709.5"/>
<polygon fill="none" stroke="black" points="3642,-709.5 3642,-761.5 3843,-761.5 3843,-709.5 3642,-709.5"/>
<text text-anchor="start" x="3653" y="-739.3" font-family="Arial" font-size="14.00">+ children: BTreeSet&lt;Hash&gt;</text>
<text text-anchor="start" x="3653" y="-724.3" font-family="Arial" font-size="14.00">+ value: T</text>
<polygon fill="none" stroke="black" points="3640.5,-709 3640.5,-800 3843.5,-800 3843.5,-709 3640.5,-709"/>
</g>
<!-- ndMerkleReg -->
<g id="node16" class="node"><title>ndMerkleReg</title>
<polygon fill="lightblue" stroke="none" points="3746,-627 3746,-664 4018,-664 4018,-627 3746,-627"/>
<polygon fill="none" stroke="black" points="3746,-627 3746,-664 4018,-664 4018,-627 3746,-627"/>
<text text-anchor="start" x="3844.5" y="-642.8" font-family="Arial" font-weight="bold" font-size="14.00">MerkleReg</text>
<polygon fill="white" stroke="none" points="3746,-560 3746,-627 4018,-627 4018,-560 3746,-560"/>
<polygon fill="none" stroke="black" points="3746,-560 3746,-627 4018,-627 4018,-560 3746,-560"/>
<text text-anchor="start" x="3757" y="-604.8" font-family="Arial" font-size="14.00">&#45; roots: BTreeSet&lt;Hash&gt;</text>
<text text-anchor="start" x="3757" y="-589.8" font-family="Arial" font-size="14.00">&#45; dag: BTreeMap&lt;Hash, Node&lt;T&gt;&gt;</text>
<text text-anchor="start" x="3757" y="-574.8" font-family="Arial" font-size="14.00">&#45; orphans: BTreeMap&lt;Hash, Node&lt;T&gt;&gt;</text>
<polygon fill="none" stroke="black" points="3745,-559 3745,-665 4019,-665 4019,-559 3745,-559"/>
</g>
<!-- ndNode&#45;&gt;ndMerkleReg -->
<g id="edge45" class="edge"><title>ndNode&#45;&gt;ndMerkleReg</title>
<path fill="none" stroke="black" d="M3790.57,-704.754C3799.63,-695.659 3809.23,-686.032 3818.66,-676.569"/>
<polygon fill="black" stroke="black" points="3825.83,-669.375 3821.95,-679.635 3822.3,-672.917 3818.77,-676.459 3818.77,-676.459 3818.77,-676.459 3822.3,-672.917 3815.58,-673.282 3825.83,-669.375 3825.83,-669.375"/>
</g>
<!-- ndContent -->
<g id="node15" class="node"><title>ndContent</title>
<polygon fill="lightblue" stroke="none" points="3879,-754.5 3879,-791.5 4163,-791.5 4163,-754.5 3879,-754.5"/>
<polygon fill="none" stroke="black" points="3879,-754.5 3879,-791.5 4163,-791.5 4163,-754.5 3879,-754.5"/>
<text text-anchor="start" x="3993.5" y="-770.3" font-family="Arial" font-weight="bold" font-size="14.00">Content</text>
<polygon fill="white" stroke="none" points="3879,-717.5 3879,-754.5 4163,-754.5 4163,-717.5 3879,-717.5"/>
<polygon fill="none" stroke="black" points="3879,-717.5 3879,-754.5 4163,-754.5 4163,-717.5 3879,-717.5"/>
<text text-anchor="start" x="3890" y="-732.3" font-family="Arial" font-size="14.00">&#45; nodes: BTreeMap&lt;Hash, &amp;&#39;a Node&lt;T&gt;&gt;</text>
<polygon fill="none" stroke="black" points="3878,-716.5 3878,-792.5 4164,-792.5 4164,-716.5 3878,-716.5"/>
</g>
<!-- ndContent&#45;&gt;ndMerkleReg -->
<g id="edge46" class="edge"><title>ndContent&#45;&gt;ndMerkleReg</title>
<path fill="none" stroke="black" d="M3980.42,-712.484C3969.24,-701.177 3956.83,-688.639 3944.71,-676.384"/>
<polygon fill="black" stroke="black" points="3937.61,-669.212 3947.84,-673.156 3941.13,-672.766 3944.64,-676.321 3944.64,-676.321 3944.64,-676.321 3941.13,-672.766 3941.45,-679.485 3937.61,-669.212 3937.61,-669.212"/>
</g>
<!-- ndSha3Hash -->
<g id="node18" class="node"><title>ndSha3Hash</title>
<polygon fill="lightgreen" stroke="none" points="4200,-735.5 4200,-772.5 4293,-772.5 4293,-735.5 4200,-735.5"/>
<polygon fill="none" stroke="black" points="4200,-735.5 4200,-772.5 4293,-772.5 4293,-735.5 4200,-735.5"/>
<text text-anchor="start" x="4211" y="-751.3" font-family="Arial" font-weight="bold" font-size="14.00">Sha3Hash</text>
<polygon fill="none" stroke="black" points="4198.5,-735 4198.5,-774 4293.5,-774 4293.5,-735 4198.5,-735"/>
</g>
<!-- ndPNCounter -->
<g id="node34" class="node"><title>ndPNCounter</title>
<polygon fill="lightblue" stroke="none" points="999,-56.5 999,-93.5 1133,-93.5 1133,-56.5 999,-56.5"/>
<polygon fill="none" stroke="black" points="999,-56.5 999,-93.5 1133,-93.5 1133,-56.5 999,-56.5"/>
<text text-anchor="start" x="1028" y="-72.3" font-family="Arial" font-weight="bold" font-size="14.00">PNCounter</text>
<polygon fill="white" stroke="none" points="999,-4.5 999,-56.5 1133,-56.5 1133,-4.5 999,-4.5"/>
<polygon fill="none" stroke="black" points="999,-4.5 999,-56.5 1133,-56.5 1133,-4.5 999,-4.5"/>
<text text-anchor="start" x="1010" y="-34.3" font-family="Arial" font-size="14.00">&#45; p: GCounter&lt;A&gt;</text>
<text text-anchor="start" x="1010" y="-19.3" font-family="Arial" font-size="14.00">&#45; n: GCounter&lt;A&gt;</text>
<polygon fill="none" stroke="black" points="998,-4 998,-95 1134,-95 1134,-4 998,-4"/>
</g>
<!-- ndGCounter&#45;&gt;ndPNCounter -->
<g id="edge47" class="edge"><title>ndGCounter&#45;&gt;ndPNCounter</title>
<path fill="none" stroke="black" d="M1066,-142.147C1066,-132.391 1066,-121.789 1066,-111.371"/>
<polygon fill="black" stroke="black" points="1066,-111.29 1062,-105.29 1066,-99.2897 1070,-105.29 1066,-111.29"/>
</g>
<!-- ndDot -->
<g id="node21" class="node"><title>ndDot</title>
<polygon fill="lightblue" stroke="none" points="2947,-761.5 2947,-798.5 3060,-798.5 3060,-761.5 2947,-761.5"/>
<polygon fill="none" stroke="black" points="2947,-761.5 2947,-798.5 3060,-798.5 3060,-761.5 2947,-761.5"/>
<text text-anchor="start" x="2991" y="-777.3" font-family="Arial" font-weight="bold" font-size="14.00">Dot</text>
<polygon fill="white" stroke="none" points="2947,-709.5 2947,-761.5 3060,-761.5 3060,-709.5 2947,-709.5"/>
<polygon fill="none" stroke="black" points="2947,-709.5 2947,-761.5 3060,-761.5 3060,-709.5 2947,-709.5"/>
<text text-anchor="start" x="2958" y="-739.3" font-family="Arial" font-size="14.00">+ actor: A</text>
<text text-anchor="start" x="2958" y="-724.3" font-family="Arial" font-size="14.00">+ counter: u64</text>
<polygon fill="none" stroke="black" points="2945.5,-709 2945.5,-800 3060.5,-800 3060.5,-709 2945.5,-709"/>
</g>
<!-- ndDot&#45;&gt;ndOp -->
<g id="edge51" class="edge"><title>ndDot&#45;&gt;ndOp</title>
<path fill="none" stroke="black" d="M2937.27,-752.284C2589.6,-745.549 977.931,-711.581 882,-669 796.684,-631.131 792.195,-592.767 735,-519 716.01,-494.508 676.476,-427.71 649.922,-378.332"/>
<polygon fill="black" stroke="black" points="645.123,-369.329 653.798,-376.037 647.475,-373.741 649.827,-378.154 649.827,-378.154 649.827,-378.154 647.475,-373.741 645.856,-380.27 645.123,-369.329 645.123,-369.329"/>
</g>
<!-- ndDot&#45;&gt;ndOp -->
<g id="edge54" class="edge"><title>ndDot&#45;&gt;ndOp</title>
<path fill="none" stroke="black" d="M2937.39,-752.183C2591.79,-745.215 995.459,-711.371 900,-669 814.684,-631.131 810.195,-592.767 753,-519 733.995,-494.488 694.412,-427.603 663.937,-378.214"/>
<polygon fill="black" stroke="black" points="663.904,-378.161 657.344,-375.169 657.583,-367.962 664.143,-370.954 663.904,-378.161"/>
</g>
<!-- ndDot&#45;&gt;ndAddCtx -->
<g id="edge48" class="edge"><title>ndDot&#45;&gt;ndAddCtx</title>
<path fill="none" stroke="black" d="M2978.06,-704.877C2952.33,-654.708 2912.16,-576.394 2884.54,-522.546"/>
<polygon fill="black" stroke="black" points="2884.5,-522.459 2878.2,-518.946 2879.02,-511.782 2885.32,-515.295 2884.5,-522.459"/>
</g>
<!-- ndDot&#45;&gt;ndGCounter -->
<g id="edge49" class="edge"><title>ndDot&#45;&gt;ndGCounter</title>
<path fill="none" stroke="black" d="M3068.76,-723.084C3085.52,-716.282 3103.69,-709.701 3121,-705 3176.23,-690.005 3338.47,-712.203 3376,-669 3409.23,-630.751 3394.4,-602.207 3376,-555 3313.51,-394.691 3270.08,-342.402 3114,-270 2934.9,-186.92 1527.28,-184.381 1155.69,-185.177"/>
<polygon fill="black" stroke="black" points="1145.53,-185.2 1155.52,-180.677 1150.53,-185.189 1155.53,-185.177 1155.53,-185.177 1155.53,-185.177 1150.53,-185.189 1155.54,-189.677 1145.53,-185.2 1145.53,-185.2"/>
</g>
<!-- ndCausalityBarrier -->
<g id="node26" class="node"><title>ndCausalityBarrier</title>
<polygon fill="lightblue" stroke="none" points="3116,-619 3116,-656 3358,-656 3358,-619 3116,-619"/>
<polygon fill="none" stroke="black" points="3116,-619 3116,-656 3358,-656 3358,-619 3116,-619"/>
<text text-anchor="start" x="3180" y="-634.8" font-family="Arial" font-weight="bold" font-size="14.00">CausalityBarrier</text>
<polygon fill="white" stroke="none" points="3116,-567 3116,-619 3358,-619 3358,-567 3116,-567"/>
<polygon fill="none" stroke="black" points="3116,-567 3116,-619 3358,-619 3358,-567 3116,-567"/>
<text text-anchor="start" x="3127" y="-596.8" font-family="Arial" font-size="14.00">&#45; peers: HashMap&lt;A, VectorEntry&gt;</text>
<text text-anchor="start" x="3127" y="-581.8" font-family="Arial" font-size="14.00">&#45; buffer: HashMap&lt;Dot&lt;A&gt;, T&gt;</text>
<polygon fill="none" stroke="black" points="3115,-566.5 3115,-657.5 3359,-657.5 3359,-566.5 3115,-566.5"/>
</g>
<!-- ndDot&#45;&gt;ndCausalityBarrier -->
<g id="edge50" class="edge"><title>ndDot&#45;&gt;ndCausalityBarrier</title>
<path fill="none" stroke="black" d="M3068.8,-713.989C3092.57,-699.722 3119.84,-683.347 3145.41,-667.995"/>
<polygon fill="black" stroke="black" points="3145.58,-667.892 3148.66,-661.374 3155.87,-661.715 3152.78,-668.233 3145.58,-667.892"/>
</g>
<!-- ndDot&#45;&gt;ndVClock -->
<g id="edge52" class="edge"><title>ndDot&#45;&gt;ndVClock</title>
<path fill="none" stroke="black" d="M2937.36,-747.971C2685.16,-726.727 1776.4,-650.18 1451.5,-622.813"/>
<polygon fill="black" stroke="black" points="1441.13,-621.939 1451.47,-618.295 1446.11,-622.359 1451.09,-622.779 1451.09,-622.779 1451.09,-622.779 1446.11,-622.359 1450.71,-627.263 1441.13,-621.939 1441.13,-621.939"/>
</g>
<!-- ndIntoIter -->
<g id="node33" class="node"><title>ndIntoIter</title>
<polygon fill="lightblue" stroke="none" points="3432,-612 3432,-649 3710,-649 3710,-612 3432,-612"/>
<polygon fill="none" stroke="black" points="3432,-612 3432,-649 3710,-649 3710,-612 3432,-612"/>
<text text-anchor="start" x="3546.5" y="-627.8" font-family="Arial" font-weight="bold" font-size="14.00">IntoIter</text>
<polygon fill="white" stroke="none" points="3432,-575 3432,-612 3710,-612 3710,-575 3432,-575"/>
<polygon fill="none" stroke="black" points="3432,-575 3432,-612 3710,-612 3710,-575 3432,-575"/>
<text text-anchor="start" x="3443" y="-589.8" font-family="Arial" font-size="14.00">&#45; btree_iter: btree_map::IntoIter&lt;A, u64&gt;</text>
<polygon fill="none" stroke="black" points="3431,-574 3431,-650 3711,-650 3711,-574 3431,-574"/>
</g>
<!-- ndDot&#45;&gt;ndIntoIter -->
<g id="edge53" class="edge"><title>ndDot&#45;&gt;ndIntoIter</title>
<path fill="none" stroke="black" d="M3068.71,-722.891C3085.46,-716.094 3103.65,-709.563 3121,-705 3245.75,-672.192 3283.36,-698.231 3409,-669 3423.13,-665.713 3437.75,-661.647 3452.17,-657.218"/>
<polygon fill="black" stroke="black" points="3462.11,-654.098 3453.91,-661.386 3457.34,-655.596 3452.57,-657.093 3452.57,-657.093 3452.57,-657.093 3457.34,-655.596 3451.22,-652.799 3462.11,-654.098 3462.11,-654.098"/>
</g>
<!-- ndOrdDot -->
<g id="node22" class="node"><title>ndOrdDot</title>
<polygon fill="lightblue" stroke="none" points="910,-619 910,-656 1023,-656 1023,-619 910,-619"/>
<polygon fill="none" stroke="black" points="910,-619 910,-656 1023,-656 1023,-619 910,-619"/>
<text text-anchor="start" x="941" y="-634.8" font-family="Arial" font-weight="bold" font-size="14.00">OrdDot</text>
<polygon fill="white" stroke="none" points="910,-567 910,-619 1023,-619 1023,-567 910,-567"/>
<polygon fill="none" stroke="black" points="910,-567 910,-619 1023,-619 1023,-567 910,-567"/>
<text text-anchor="start" x="921" y="-596.8" font-family="Arial" font-size="14.00">+ actor: A</text>
<text text-anchor="start" x="921" y="-581.8" font-family="Arial" font-size="14.00">+ counter: u64</text>
<polygon fill="none" stroke="black" points="908.5,-566.5 908.5,-657.5 1023.5,-657.5 1023.5,-566.5 908.5,-566.5"/>
</g>
<!-- ndOrdDot&#45;&gt;ndOp -->
<g id="edge56" class="edge"><title>ndOrdDot&#45;&gt;ndOp</title>
<path fill="none" stroke="black" d="M900.409,-565.966C881.225,-551.743 860.675,-535.432 843,-519 793.852,-473.31 793.798,-449.981 744,-405 719.918,-383.248 690.097,-362.225 666.208,-346.589"/>
<polygon fill="black" stroke="black" points="657.696,-341.081 668.537,-342.736 661.894,-343.798 666.092,-346.514 666.092,-346.514 666.092,-346.514 661.894,-343.798 663.647,-350.292 657.696,-341.081 657.696,-341.081"/>
</g>
<!-- ndList -->
<g id="node29" class="node"><title>ndList</title>
<polygon fill="lightblue" stroke="none" points="861,-469 861,-506 1167,-506 1167,-469 861,-469"/>
<polygon fill="none" stroke="black" points="861,-469 861,-506 1167,-506 1167,-469 861,-469"/>
<text text-anchor="start" x="1001" y="-484.8" font-family="Arial" font-weight="bold" font-size="14.00">List</text>
<polygon fill="white" stroke="none" points="861,-417 861,-469 1167,-469 1167,-417 861,-417"/>
<polygon fill="none" stroke="black" points="861,-417 861,-469 1167,-469 1167,-417 861,-417"/>
<text text-anchor="start" x="872" y="-446.8" font-family="Arial" font-size="14.00">&#45; seq: BTreeMap&lt;Identifier&lt;OrdDot&lt;A&gt;&gt;, T&gt;</text>
<text text-anchor="start" x="872" y="-431.8" font-family="Arial" font-size="14.00">&#45; clock: VClock&lt;A&gt;</text>
<polygon fill="none" stroke="black" points="860,-416.5 860,-507.5 1168,-507.5 1168,-416.5 860,-416.5"/>
</g>
<!-- ndOrdDot&#45;&gt;ndList -->
<g id="edge55" class="edge"><title>ndOrdDot&#45;&gt;ndList</title>
<path fill="none" stroke="black" d="M981.85,-562.129C985.885,-549.688 990.269,-536.171 994.464,-523.235"/>
<polygon fill="black" stroke="black" points="994.546,-522.982 992.593,-516.041 998.248,-511.567 1000.2,-518.509 994.546,-522.982"/>
</g>
<!-- ndDotRange -->
<g id="node23" class="node"><title>ndDotRange</title>
<polygon fill="lightblue" stroke="none" points="4329,-761.5 4329,-798.5 4613,-798.5 4613,-761.5 4329,-761.5"/>
<polygon fill="none" stroke="black" points="4329,-761.5 4329,-798.5 4613,-798.5 4613,-761.5 4329,-761.5"/>
<text text-anchor="start" x="4436.5" y="-777.3" font-family="Arial" font-weight="bold" font-size="14.00">DotRange</text>
<polygon fill="white" stroke="none" points="4329,-709.5 4329,-761.5 4613,-761.5 4613,-709.5 4329,-709.5"/>
<polygon fill="none" stroke="black" points="4329,-709.5 4329,-761.5 4613,-761.5 4613,-709.5 4329,-709.5"/>
<text text-anchor="start" x="4340" y="-739.3" font-family="Arial" font-size="14.00">+ actor: A</text>
<text text-anchor="start" x="4340" y="-724.3" font-family="Arial" font-size="14.00">+ counter_range: core::ops::Range&lt;u64&gt;</text>
<polygon fill="none" stroke="black" points="4328,-709 4328,-800 4614,-800 4614,-709 4328,-709"/>
</g>
<!-- ndLWWReg -->
<g id="node24" class="node"><title>ndLWWReg</title>
<polygon fill="lightblue" stroke="none" points="4650,-761.5 4650,-798.5 4747,-798.5 4747,-761.5 4650,-761.5"/>
<polygon fill="none" stroke="black" points="4650,-761.5 4650,-798.5 4747,-798.5 4747,-761.5 4650,-761.5"/>
<text text-anchor="start" x="4668" y="-777.3" font-family="Arial" font-weight="bold" font-size="14.00">LWWReg</text>
<polygon fill="white" stroke="none" points="4650,-709.5 4650,-761.5 4747,-761.5 4747,-709.5 4650,-709.5"/>
<polygon fill="none" stroke="black" points="4650,-709.5 4650,-761.5 4747,-761.5 4747,-709.5 4650,-709.5"/>
<text text-anchor="start" x="4661" y="-739.3" font-family="Arial" font-size="14.00">+ val: V</text>
<text text-anchor="start" x="4661" y="-724.3" font-family="Arial" font-size="14.00">+ marker: M</text>
<polygon fill="none" stroke="black" points="4648.5,-709 4648.5,-800 4747.5,-800 4747.5,-709 4648.5,-709"/>
</g>
<!-- ndValidation&#45;&gt;ndValidation -->
<g id="edge119" class="edge"><title>ndValidation&#45;&gt;ndValidation</title>
<path fill="none" stroke="black" d="M950.19,-207.171C960.831,-203.573 968,-196.016 968,-184.5 968,-176.763 964.764,-170.813 959.413,-166.65"/>
<polygon fill="black" stroke="black" points="950.19,-161.829 961.137,-162.473 954.622,-164.145 959.053,-166.461 959.053,-166.461 959.053,-166.461 954.622,-164.145 956.968,-170.449 950.19,-161.829 950.19,-161.829"/>
</g>
<!-- ndVectorEntry -->
<g id="node27" class="node"><title>ndVectorEntry</title>
<polygon fill="lightblue" stroke="none" points="4783,-761.5 4783,-798.5 5017,-798.5 5017,-761.5 4783,-761.5"/>
<polygon fill="none" stroke="black" points="4783,-761.5 4783,-798.5 5017,-798.5 5017,-761.5 4783,-761.5"/>
<text text-anchor="start" x="4858.5" y="-777.3" font-family="Arial" font-weight="bold" font-size="14.00">VectorEntry</text>
<polygon fill="white" stroke="none" points="4783,-709.5 4783,-761.5 5017,-761.5 5017,-709.5 4783,-709.5"/>
<polygon fill="none" stroke="black" points="4783,-709.5 4783,-761.5 5017,-761.5 5017,-709.5 4783,-709.5"/>
<text text-anchor="start" x="4794" y="-739.3" font-family="Arial" font-size="14.00">&#45; next_version: LogTime</text>
<text text-anchor="start" x="4794" y="-724.3" font-family="Arial" font-size="14.00">&#45; exceptions: HashSet&lt;LogTime&gt;</text>
<polygon fill="none" stroke="black" points="4782,-709 4782,-800 5018,-800 5018,-709 4782,-709"/>
</g>
<!-- ndCausalOp -->
<g id="node28" class="node"><title>ndCausalOp</title>
<polygon fill="lightgreen" stroke="none" points="4855,-593 4855,-630 4946,-630 4946,-593 4855,-593"/>
<polygon fill="none" stroke="black" points="4855,-593 4855,-630 4946,-630 4946,-593 4855,-593"/>
<text text-anchor="start" x="4866" y="-608.8" font-family="Arial" font-weight="bold" font-size="14.00">CausalOp</text>
<polygon fill="none" stroke="black" points="4853.5,-592.5 4853.5,-631.5 4946.5,-631.5 4946.5,-592.5 4853.5,-592.5"/>
</g>
<!-- ndVectorEntry&#45;&gt;ndCausalOp -->
<g id="edge57" class="edge"><title>ndVectorEntry&#45;&gt;ndCausalOp</title>
<path fill="none" stroke="black" d="M4900,-704.754C4900,-685.326 4900,-663.47 4900,-645.963"/>
<polygon fill="black" stroke="black" points="4900,-635.686 4904.5,-645.686 4900,-640.686 4900,-645.686 4900,-645.686 4900,-645.686 4900,-640.686 4895.5,-645.686 4900,-635.686 4900,-635.686"/>
</g>
<!-- ndMVReg -->
<g id="node31" class="node"><title>ndMVReg</title>
<polygon fill="lightblue" stroke="none" points="2503,-462 2503,-499 2706,-499 2706,-462 2503,-462"/>
<polygon fill="none" stroke="black" points="2503,-462 2503,-499 2706,-499 2706,-462 2503,-462"/>
<text text-anchor="start" x="2579.5" y="-477.8" font-family="Arial" font-weight="bold" font-size="14.00">MVReg</text>
<polygon fill="white" stroke="none" points="2503,-425 2503,-462 2706,-462 2706,-425 2503,-425"/>
<polygon fill="none" stroke="black" points="2503,-425 2503,-462 2706,-462 2706,-425 2503,-425"/>
<text text-anchor="start" x="2514" y="-439.8" font-family="Arial" font-size="14.00">&#45; vals: Vec&lt;(VClock&lt;A&gt;, V)&gt;</text>
<polygon fill="none" stroke="black" points="2501.5,-424 2501.5,-500 2706.5,-500 2706.5,-424 2501.5,-424"/>
</g>
<!-- ndVClock&#45;&gt;ndMap -->
<g id="edge91" class="edge"><title>ndVClock&#45;&gt;ndMap</title>
<path fill="none" stroke="black" d="M1441.08,-597.746C1551.53,-583 1729.59,-556.573 1892.25,-519.562"/>
<polygon fill="black" stroke="black" points="1892.74,-519.45 1897.69,-514.208 1904.43,-516.763 1899.48,-522.005 1892.74,-519.45"/>
</g>
<!-- ndVClock&#45;&gt;ndEntry -->
<g id="edge92" class="edge"><title>ndVClock&#45;&gt;ndEntry</title>
<path fill="none" stroke="black" d="M1441.23,-606.572C1651.99,-596.796 2115.68,-570.078 2266,-519 2268.38,-518.191 2270.77,-517.308 2273.15,-516.362"/>
<polygon fill="black" stroke="black" points="2273.23,-516.326 2277.12,-510.255 2284.22,-511.513 2280.33,-517.584 2273.23,-516.326"/>
</g>
<!-- ndVClock&#45;&gt;ndReadCtx -->
<g id="edge93" class="edge"><title>ndVClock&#45;&gt;ndReadCtx</title>
<path fill="none" stroke="black" d="M1358.96,-569.774C1366.13,-557.423 1374.2,-543.546 1382.08,-529.986"/>
<polygon fill="black" stroke="black" points="1382.31,-529.59 1381.86,-522.393 1388.33,-519.215 1388.78,-526.412 1382.31,-529.59"/>
</g>
<!-- ndVClock&#45;&gt;ndAddCtx -->
<g id="edge94" class="edge"><title>ndVClock&#45;&gt;ndAddCtx</title>
<path fill="none" stroke="black" d="M1441.03,-610.368C1727.33,-607.676 2510.98,-593.513 2757,-519 2759.79,-518.156 2762.58,-517.219 2765.37,-516.203"/>
<polygon fill="black" stroke="black" points="2765.65,-516.09 2769.72,-510.141 2776.78,-511.615 2772.71,-517.564 2765.65,-516.09"/>
</g>
<!-- ndVClock&#45;&gt;ndRmCtx -->
<g id="edge95" class="edge"><title>ndVClock&#45;&gt;ndRmCtx</title>
<path fill="none" stroke="black" d="M1441.19,-611.681C1749.97,-612.609 2631.5,-607.42 2723,-519 2760.99,-482.291 2760.81,-418.867 2754.46,-373.589"/>
<polygon fill="black" stroke="black" points="2754.44,-373.482 2749.56,-368.175 2752.58,-361.627 2757.46,-366.934 2754.44,-373.482"/>
</g>
<!-- ndVClock&#45;&gt;ndGCounter -->
<g id="edge96" class="edge"><title>ndVClock&#45;&gt;ndGCounter</title>
<path fill="none" stroke="black" d="M1441.07,-608.899C1791.58,-601.445 2893.31,-573.732 2945,-519 2979.79,-482.165 2962.09,-452.697 2945,-405 2918.8,-331.875 2903.42,-304.847 2834,-270 2683.78,-194.598 1498.96,-186.359 1157.69,-185.558"/>
<polygon fill="black" stroke="black" points="1157.66,-185.558 1151.66,-189.545 1145.66,-185.532 1151.67,-181.545 1157.66,-185.558"/>
</g>
<!-- ndVClock&#45;&gt;ndValidation -->
<g id="edge100" class="edge"><title>ndVClock&#45;&gt;ndValidation</title>
<path fill="none" stroke="black" d="M1441.13,-610.188C1705.65,-607.064 2377.84,-591.957 2445,-519 2479.32,-481.723 2478.69,-442.843 2445,-405 2226.61,-159.699 1292.29,-325.952 977,-234 971.304,-232.339 965.534,-230.377 959.789,-228.211"/>
<polygon fill="black" stroke="black" points="950.163,-224.389 961.117,-223.896 954.81,-226.234 959.457,-228.079 959.457,-228.079 959.457,-228.079 954.81,-226.234 957.796,-232.261 950.163,-224.389 950.163,-224.389"/>
</g>
<!-- ndVClock&#45;&gt;ndList -->
<g id="edge97" class="edge"><title>ndVClock&#45;&gt;ndList</title>
<path fill="none" stroke="black" d="M1246.01,-569.97C1210.29,-553.503 1168.64,-534.297 1130.56,-516.74"/>
<polygon fill="black" stroke="black" points="1130.29,-516.617 1123.17,-517.738 1119.39,-511.593 1126.52,-510.473 1130.29,-516.617"/>
</g>
<!-- ndVClock&#45;&gt;ndMVReg -->
<g id="edge98" class="edge"><title>ndVClock&#45;&gt;ndMVReg</title>
<path fill="none" stroke="black" d="M1441.12,-607.075C1685.96,-597.274 2284.29,-568.867 2479,-519 2489.86,-516.22 2500.95,-512.565 2511.83,-508.452"/>
<polygon fill="black" stroke="black" points="2511.91,-508.422 2516.02,-502.499 2523.07,-504.018 2518.96,-509.941 2511.91,-508.422"/>
</g>
<!-- ndOrswot -->
<g id="node36" class="node"><title>ndOrswot</title>
<polygon fill="lightblue" stroke="none" points="1547,-477 1547,-514 1877,-514 1877,-477 1547,-477"/>
<polygon fill="none" stroke="black" points="1547,-477 1547,-514 1877,-514 1877,-477 1547,-477"/>
<text text-anchor="start" x="1686.5" y="-492.8" font-family="Arial" font-weight="bold" font-size="14.00">Orswot</text>
<polygon fill="white" stroke="none" points="1547,-410 1547,-477 1877,-477 1877,-410 1547,-410"/>
<polygon fill="none" stroke="black" points="1547,-410 1547,-477 1877,-477 1877,-410 1547,-410"/>
<text text-anchor="start" x="1558" y="-454.8" font-family="Arial" font-size="14.00">&#45; clock: VClock&lt;A&gt;</text>
<text text-anchor="start" x="1558" y="-439.8" font-family="Arial" font-size="14.00">&#45; entries: HashMap&lt;M, VClock&lt;A&gt;&gt;</text>
<text text-anchor="start" x="1558" y="-424.8" font-family="Arial" font-size="14.00">&#45; deferred: HashMap&lt;VClock&lt;A&gt;, HashSet&lt;M&gt;&gt;</text>
<polygon fill="none" stroke="black" points="1546,-409 1546,-515 1878,-515 1878,-409 1546,-409"/>
</g>
<!-- ndVClock&#45;&gt;ndOrswot -->
<g id="edge99" class="edge"><title>ndVClock&#45;&gt;ndOrswot</title>
<path fill="none" stroke="black" d="M1439.51,-569.97C1476.17,-555.582 1518.14,-539.104 1557.99,-523.462"/>
<polygon fill="black" stroke="black" points="1557.99,-523.46 1562.11,-517.544 1569.16,-519.074 1565.04,-524.99 1557.99,-523.46"/>
</g>
<!-- ndDir -->
<g id="node35" class="node"><title>ndDir</title>
<polygon fill="yellow" stroke="none" points="458,-469 458,-506 507,-506 507,-469 458,-469"/>
<polygon fill="none" stroke="black" points="458,-469 458,-506 507,-506 507,-469 458,-469"/>
<text text-anchor="start" x="472" y="-484.8" font-family="Arial" font-weight="bold" font-size="14.00">Dir</text>
<polygon fill="white" stroke="none" points="458,-417 458,-469 507,-469 507,-417 458,-417"/>
<polygon fill="none" stroke="black" points="458,-417 458,-469 507,-469 507,-417 458,-417"/>
<text text-anchor="start" x="469" y="-446.8" font-family="Arial" font-size="14.00">Pos</text>
<text text-anchor="start" x="469" y="-431.8" font-family="Arial" font-size="14.00">Neg</text>
<polygon fill="none" stroke="black" points="456.5,-416.5 456.5,-507.5 507.5,-507.5 507.5,-416.5 456.5,-416.5"/>
</g>
<!-- ndDir&#45;&gt;ndOp -->
<g id="edge101" class="edge"><title>ndDir&#45;&gt;ndOp</title>
<path fill="none" stroke="black" d="M515.735,-420.366C520.422,-415.1 525.258,-409.855 530,-405 546.021,-388.596 564.625,-371.505 581.033,-357.021"/>
<polygon fill="black" stroke="black" points="581.374,-356.723 583.255,-349.761 590.404,-348.82 588.523,-355.781 581.374,-356.723"/>
</g>
</g>
</svg>
