<?xml version="1.0" encoding="UTF-8" standalone="no"?>
<!DOCTYPE svg PUBLIC "-//W3C//DTD SVG 1.1//EN"
 "http://www.w3.org/Graphics/SVG/1.1/DTD/svg11.dtd">
<!-- Generated by graphviz version 2.38.0 (20140413.2041)
 -->
<!-- Title: ml Pages: 1 -->
<svg width="2882pt" height="470pt"
 viewBox="0.00 0.00 2882.43 470.00" xmlns="http://www.w3.org/2000/svg" xmlns:xlink="http://www.w3.org/1999/xlink">
<g id="graph0" class="graph" transform="scale(1 1) rotate(0) translate(4 466)">
<title>ml</title>
<polygon fill="white" stroke="none" points="-4,4 -4,-466 2878.43,-466 2878.43,4 -4,4"/>
<!-- ndVal -->
<g id="node1" class="node"><title>ndVal</title>
<g id="a_node1_0"><a xlink:href="https://github.com/rust-crdt/rust-crdt/blob/master/src/map.rs#:~:text=trait%20Val" xlink:title="&lt;TABLE&gt;">
<polygon fill="lightgreen" stroke="none" points="735.925,-419.5 735.925,-456.5 779.925,-456.5 779.925,-419.5 735.925,-419.5"/>
<polygon fill="none" stroke="black" points="735.925,-419.5 735.925,-456.5 779.925,-456.5 779.925,-419.5 735.925,-419.5"/>
<text text-anchor="start" x="746.925" y="-435.3" font-family="Arial" font-weight="bold" font-size="14.00">Val</text>
<polygon fill="none" stroke="black" points="734.925,-419 734.925,-458 780.925,-458 780.925,-419 734.925,-419"/>
</a>
</g>
</g>
<!-- ndMap -->
<g id="node2" class="node"><title>ndMap</title>
<g id="a_node2_1"><a xlink:href="https://github.com/rust-crdt/rust-crdt/blob/master/src/map.rs#:~:text=struct%20Map" xlink:title="&lt;TABLE&gt;">
<polygon fill="lightblue" stroke="none" points="38.9251,-4.5 38.9251,-41.5 91.9251,-41.5 91.9251,-4.5 38.9251,-4.5"/>
<polygon fill="none" stroke="black" points="38.9251,-4.5 38.9251,-41.5 91.9251,-41.5 91.9251,-4.5 38.9251,-4.5"/>
<text text-anchor="start" x="49.9251" y="-20.3" font-family="Arial" font-weight="bold" font-size="14.00">Map</text>
<polygon fill="none" stroke="black" points="37.4251,-4 37.4251,-43 92.4251,-43 92.4251,-4 37.4251,-4"/>
</a>
</g>
</g>
<!-- ndEntry -->
<g id="node3" class="node"><title>ndEntry</title>
<g id="a_node3_2"><a xlink:href="https://github.com/rust-crdt/rust-crdt/blob/master/src/map.rs#:~:text=struct%20Entry" xlink:title="&lt;TABLE&gt;">
<polygon fill="lightblue" stroke="none" points="716.925,-170.5 716.925,-207.5 776.925,-207.5 776.925,-170.5 716.925,-170.5"/>
<polygon fill="none" stroke="black" points="716.925,-170.5 716.925,-207.5 776.925,-207.5 776.925,-170.5 716.925,-170.5"/>
<text text-anchor="start" x="727.925" y="-186.3" font-family="Arial" font-weight="bold" font-size="14.00">Entry</text>
<polygon fill="none" stroke="black" points="715.925,-170 715.925,-209 777.925,-209 777.925,-170 715.925,-170"/>
</a>
</g>
</g>
<!-- ndOp -->
<g id="node4" class="node"><title>ndOp</title>
<g id="a_node4_3"><a xlink:href="https://github.com/rust-crdt/rust-crdt/blob/master/src/orswot.rs#:~:text=enum%20Op" xlink:title="&lt;TABLE&gt;">
<polygon fill="yellow" stroke="none" points="1069.93,-336.5 1069.93,-373.5 1112.93,-373.5 1112.93,-336.5 1069.93,-336.5"/>
<polygon fill="none" stroke="black" points="1069.93,-336.5 1069.93,-373.5 1112.93,-373.5 1112.93,-336.5 1069.93,-336.5"/>
<text text-anchor="start" x="1080.93" y="-352.3" font-family="Arial" font-weight="bold" font-size="14.00">Op</text>
<polygon fill="none" stroke="black" points="1068.43,-336 1068.43,-375 1113.43,-375 1113.43,-336 1068.43,-336"/>
</a>
</g>
</g>
<!-- ndOp&#45;&gt;ndMap -->
<g id="edge1" class="edge"><title>ndOp&#45;&gt;ndMap</title>
<path fill="none" stroke="black" stroke-dasharray="5,2" d="M1060.01,-353.937C913.906,-350.47 331.658,-331.01 260.925,-296 152.753,-242.459 71.5582,-117.093 56.3481,-57.3218"/>
<polygon fill="black" stroke="black" points="54.3305,-47.2946 60.7148,-56.2104 55.3168,-52.1963 56.3032,-57.0981 56.3032,-57.0981 56.3032,-57.0981 55.3168,-52.1963 51.8916,-57.9858 54.3305,-47.2946 54.3305,-47.2946"/>
</g>
<!-- ndOp&#45;&gt;ndMap -->
<g id="edge60" class="edge"><title>ndOp&#45;&gt;ndMap</title>
<path fill="none" stroke="black" stroke-dasharray="5,2" d="M1060.32,-353.819C919.363,-350.047 348.892,-330.631 278.925,-296 170.529,-242.348 89.2221,-116.574 66.6728,-56.9514"/>
<polygon fill="black" stroke="black" points="63.3554,-47.2946 70.8603,-55.29 64.9799,-52.0233 66.6044,-56.7521 66.6044,-56.7521 66.6044,-56.7521 64.9799,-52.0233 62.3485,-58.2141 63.3554,-47.2946 63.3554,-47.2946"/>
</g>
<!-- ndOp&#45;&gt;ndMap -->
<g id="edge71" class="edge"><title>ndOp&#45;&gt;ndMap</title>
<path fill="none" stroke="black" stroke-dasharray="5,2" d="M1060.24,-353.662C922.47,-349.535 365.973,-330.177 296.925,-296 188.305,-242.237 106.886,-116.054 76.905,-56.5827"/>
<polygon fill="black" stroke="black" points="72.3802,-47.2946 80.8053,-54.3137 74.57,-51.7896 76.7598,-56.2846 76.7598,-56.2846 76.7598,-56.2846 74.57,-51.7896 72.7143,-58.2554 72.3802,-47.2946 72.3802,-47.2946"/>
</g>
<!-- ndOp&#45;&gt;ndMap -->
<g id="edge82" class="edge"><title>ndOp&#45;&gt;ndMap</title>
<path fill="none" stroke="black" stroke-dasharray="5,2" d="M1060.25,-353.474C924.53,-348.973 382.978,-329.684 314.925,-296 205.857,-242.015 124.215,-115.012 86.8131,-55.8503"/>
<polygon fill="black" stroke="black" points="81.4051,-47.2946 90.552,-53.3431 84.0766,-51.521 86.7482,-55.7475 86.7482,-55.7475 86.7482,-55.7475 84.0766,-51.521 82.9444,-58.1519 81.4051,-47.2946 81.4051,-47.2946"/>
</g>
<!-- ndOp&#45;&gt;ndMap -->
<g id="edge103" class="edge"><title>ndOp&#45;&gt;ndMap</title>
<path fill="none" stroke="black" stroke-dasharray="5,2" d="M1060.31,-353.251C925.591,-348.362 399.907,-329.154 332.925,-296 223.634,-241.904 141.88,-114.49 96.8121,-55.4867"/>
<polygon fill="black" stroke="black" points="90.43,-47.2946 100.126,-52.4177 93.5028,-51.2389 96.5756,-55.1833 96.5756,-55.1833 96.5756,-55.1833 93.5028,-51.2389 93.0257,-57.9488 90.43,-47.2946 90.43,-47.2946"/>
</g>
<!-- ndOp&#45;&gt;ndMap -->
<g id="edge114" class="edge"><title>ndOp&#45;&gt;ndMap</title>
<path fill="none" stroke="black" stroke-dasharray="5,2" d="M1060.38,-352.986C925.702,-347.7 416.758,-328.585 350.925,-296 241.186,-241.683 159.21,-113.445 106.393,-54.7648"/>
<polygon fill="black" stroke="black" points="99.4548,-47.2946 109.557,-51.5596 102.857,-50.9583 106.26,-54.622 106.26,-54.622 106.26,-54.622 102.857,-50.9583 102.963,-57.6843 99.4548,-47.2946 99.4548,-47.2946"/>
</g>
<!-- ndMerkleReg -->
<g id="node16" class="node"><title>ndMerkleReg</title>
<g id="a_node16_4"><a xlink:href="https://github.com/rust-crdt/rust-crdt/blob/master/src/merkle_reg.rs#:~:text=struct%20MerkleReg" xlink:title="&lt;TABLE&gt;">
<polygon fill="lightblue" stroke="none" points="1488.93,-253.5 1488.93,-290.5 1585.93,-290.5 1585.93,-253.5 1488.93,-253.5"/>
<polygon fill="none" stroke="black" points="1488.93,-253.5 1488.93,-290.5 1585.93,-290.5 1585.93,-253.5 1488.93,-253.5"/>
<text text-anchor="start" x="1499.93" y="-269.3" font-family="Arial" font-weight="bold" font-size="14.00">MerkleReg</text>
<polygon fill="none" stroke="black" points="1487.43,-253 1487.43,-292 1586.43,-292 1586.43,-253 1487.43,-253"/>
</a>
</g>
</g>
<!-- ndOp&#45;&gt;ndMerkleReg -->
<g id="edge2" class="edge"><title>ndOp&#45;&gt;ndMerkleReg</title>
<path fill="none" stroke="black" stroke-dasharray="5,2" d="M1121.45,-348.185C1183.9,-339.767 1314.95,-322.746 1424.93,-296 1438.35,-292.734 1452.93,-287.987 1468.89,-283.694"/>
<polygon fill="black" stroke="black" points="1479,-281.097 1470.43,-287.943 1474.15,-282.341 1469.31,-283.585 1469.31,-283.585 1469.31,-283.585 1474.15,-282.341 1468.19,-279.226 1479,-281.097 1479,-281.097"/>
</g>
<!-- ndOp&#45;&gt;ndMerkleReg -->
<g id="edge61" class="edge"><title>ndOp&#45;&gt;ndMerkleReg</title>
<path fill="none" stroke="black" stroke-dasharray="5,2" d="M1121.59,-349.743C1184.47,-341.978 1325.67,-324.516 1442.93,-296 1451.51,-293.913 1460.56,-291.22 1469.75,-288.427"/>
<polygon fill="black" stroke="black" points="1479.35,-285.502 1471.09,-292.721 1474.56,-286.959 1469.78,-288.417 1469.78,-288.417 1469.78,-288.417 1474.56,-286.959 1468.47,-284.112 1479.35,-285.502 1479.35,-285.502"/>
</g>
<!-- ndOp&#45;&gt;ndMerkleReg -->
<g id="edge72" class="edge"><title>ndOp&#45;&gt;ndMerkleReg</title>
<path fill="none" stroke="black" stroke-dasharray="5,2" d="M1121.65,-351.023C1185.63,-344.01 1336.72,-326.207 1460.93,-296 1463.72,-295.32 1466.56,-294.577 1469.43,-293.786"/>
<polygon fill="black" stroke="black" points="1479.24,-290.944 1470.89,-298.049 1474.44,-292.336 1469.64,-293.727 1469.64,-293.727 1469.64,-293.727 1474.44,-292.336 1468.38,-289.405 1479.24,-290.944 1479.24,-290.944"/>
</g>
<!-- ndOp&#45;&gt;ndMerkleReg -->
<g id="edge83" class="edge"><title>ndOp&#45;&gt;ndMerkleReg</title>
<path fill="none" stroke="black" stroke-dasharray="5,2" d="M1121.54,-352.032C1186.14,-345.988 1340.16,-328.69 1469.25,-298.313"/>
<polygon fill="black" stroke="black" points="1479.28,-295.913 1470.6,-302.616 1474.42,-297.076 1469.56,-298.239 1469.56,-298.239 1469.56,-298.239 1474.42,-297.076 1468.51,-293.863 1479.28,-295.913 1479.28,-295.913"/>
</g>
<!-- ndOp&#45;&gt;ndMerkleReg -->
<g id="edge104" class="edge"><title>ndOp&#45;&gt;ndMerkleReg</title>
<path fill="none" stroke="black" stroke-dasharray="5,2" d="M1121.67,-352.751C1190.48,-347.463 1352.26,-330.033 1486.5,-298.492"/>
<polygon fill="black" stroke="black" points="1496.53,-296.097 1487.85,-302.797 1491.66,-297.259 1486.8,-298.42 1486.8,-298.42 1486.8,-298.42 1491.66,-297.259 1485.75,-294.044 1496.53,-296.097 1496.53,-296.097"/>
</g>
<!-- ndOp&#45;&gt;ndMerkleReg -->
<g id="edge115" class="edge"><title>ndOp&#45;&gt;ndMerkleReg</title>
<path fill="none" stroke="black" stroke-dasharray="5,2" d="M1121.65,-353.267C1196.75,-348.677 1365.56,-331.143 1504.56,-298.478"/>
<polygon fill="black" stroke="black" points="1514.51,-296.1 1505.83,-302.801 1509.65,-297.262 1504.79,-298.424 1504.79,-298.424 1504.79,-298.424 1509.65,-297.262 1503.74,-294.047 1514.51,-296.1 1514.51,-296.1"/>
</g>
<!-- ndGSet -->
<g id="node19" class="node"><title>ndGSet</title>
<g id="a_node19_5"><a xlink:href="https://github.com/rust-crdt/rust-crdt/blob/master/src/gset.rs#:~:text=struct%20GSet" xlink:title="&lt;TABLE&gt;">
<polygon fill="lightblue" stroke="none" points="1300.93,-253.5 1300.93,-290.5 1356.93,-290.5 1356.93,-253.5 1300.93,-253.5"/>
<polygon fill="none" stroke="black" points="1300.93,-253.5 1300.93,-290.5 1356.93,-290.5 1356.93,-253.5 1300.93,-253.5"/>
<text text-anchor="start" x="1311.93" y="-269.3" font-family="Arial" font-weight="bold" font-size="14.00">GSet</text>
<polygon fill="none" stroke="black" points="1299.93,-253 1299.93,-292 1357.93,-292 1357.93,-253 1299.93,-253"/>
</a>
</g>
</g>
<!-- ndOp&#45;&gt;ndGSet -->
<g id="edge3" class="edge"><title>ndOp&#45;&gt;ndGSet</title>
<path fill="none" stroke="black" stroke-dasharray="5,2" d="M1121.62,-334.268C1152.32,-323.762 1195.19,-310.175 1232.93,-296 1246.71,-290.823 1262.12,-283.855 1281.79,-279.051"/>
<polygon fill="black" stroke="black" points="1291.81,-276.885 1282.98,-283.398 1286.92,-277.942 1282.03,-279 1282.03,-279 1282.03,-279 1286.92,-277.942 1281.08,-274.601 1291.81,-276.885 1291.81,-276.885"/>
</g>
<!-- ndOp&#45;&gt;ndGSet -->
<g id="edge62" class="edge"><title>ndOp&#45;&gt;ndGSet</title>
<path fill="none" stroke="black" stroke-dasharray="5,2" d="M1121.63,-339.549C1154.97,-328.559 1206.5,-312.687 1250.93,-296 1260.66,-292.341 1271.22,-287.787 1282.18,-283.736"/>
<polygon fill="black" stroke="black" points="1291.92,-280.339 1283.96,-287.883 1287.2,-281.987 1282.48,-283.634 1282.48,-283.634 1282.48,-283.634 1287.2,-281.987 1280.99,-279.385 1291.92,-280.339 1291.92,-280.339"/>
</g>
<!-- ndOp&#45;&gt;ndGSet -->
<g id="edge73" class="edge"><title>ndOp&#45;&gt;ndGSet</title>
<path fill="none" stroke="black" stroke-dasharray="5,2" d="M1121.46,-344.166C1157.29,-333.319 1217.82,-315.199 1268.93,-296 1273.34,-294.343 1277.91,-292.503 1282.5,-290.608"/>
<polygon fill="black" stroke="black" points="1291.86,-286.686 1284.38,-294.7 1287.25,-288.617 1282.64,-290.549 1282.64,-290.549 1282.64,-290.549 1287.25,-288.617 1280.9,-286.398 1291.86,-286.686 1291.86,-286.686"/>
</g>
<!-- ndOp&#45;&gt;ndGSet -->
<g id="edge84" class="edge"><title>ndOp&#45;&gt;ndGSet</title>
<path fill="none" stroke="black" stroke-dasharray="5,2" d="M1121.63,-347.703C1158.84,-338.107 1222.84,-319.49 1282.36,-297.629"/>
<polygon fill="black" stroke="black" points="1291.87,-294.094 1284.07,-301.796 1287.18,-295.836 1282.5,-297.578 1282.5,-297.578 1282.5,-297.578 1287.18,-295.836 1280.93,-293.36 1291.87,-294.094 1291.87,-294.094"/>
</g>
<!-- ndOp&#45;&gt;ndGSet -->
<g id="edge105" class="edge"><title>ndOp&#45;&gt;ndGSet</title>
<path fill="none" stroke="black" stroke-dasharray="5,2" d="M1121.52,-350.23C1163.71,-341.753 1234.55,-321.709 1294.96,-299.687"/>
<polygon fill="black" stroke="black" points="1304.56,-296.137 1296.74,-303.826 1299.87,-297.872 1295.18,-299.606 1295.18,-299.606 1295.18,-299.606 1299.87,-297.872 1293.62,-295.385 1304.56,-296.137 1304.56,-296.137"/>
</g>
<!-- ndOp&#45;&gt;ndGSet -->
<g id="edge116" class="edge"><title>ndOp&#45;&gt;ndGSet</title>
<path fill="none" stroke="black" stroke-dasharray="5,2" d="M1121.68,-351.781C1171.68,-344.437 1248.58,-323.158 1313.11,-299.632"/>
<polygon fill="black" stroke="black" points="1322.54,-296.146 1314.72,-303.835 1317.85,-297.88 1313.16,-299.615 1313.16,-299.615 1313.16,-299.615 1317.85,-297.88 1311.6,-295.394 1322.54,-296.146 1322.54,-296.146"/>
</g>
<!-- ndGCounter -->
<g id="node20" class="node"><title>ndGCounter</title>
<g id="a_node20_6"><a xlink:href="https://github.com/rust-crdt/rust-crdt/blob/master/src/gcounter.rs#:~:text=struct%20GCounter" xlink:title="&lt;TABLE&gt;">
<polygon fill="lightblue" stroke="none" points="812.925,-170.5 812.925,-207.5 902.925,-207.5 902.925,-170.5 812.925,-170.5"/>
<polygon fill="none" stroke="black" points="812.925,-170.5 812.925,-207.5 902.925,-207.5 902.925,-170.5 812.925,-170.5"/>
<text text-anchor="start" x="823.925" y="-186.3" font-family="Arial" font-weight="bold" font-size="14.00">GCounter</text>
<polygon fill="none" stroke="black" points="811.925,-170 811.925,-209 903.925,-209 903.925,-170 811.925,-170"/>
</a>
</g>
</g>
<!-- ndOp&#45;&gt;ndGCounter -->
<g id="edge4" class="edge"><title>ndOp&#45;&gt;ndGCounter</title>
<path fill="none" stroke="black" stroke-dasharray="5,2" d="M1060.37,-354.145C1004.3,-352.554 912.216,-343.827 858.925,-296 837.776,-277.02 825.929,-246.568 827.29,-223.248"/>
<polygon fill="black" stroke="black" points="828.86,-213.103 831.778,-223.673 828.095,-218.044 827.331,-222.985 827.331,-222.985 827.331,-222.985 828.095,-218.044 822.884,-222.297 828.86,-213.103 828.86,-213.103"/>
</g>
<!-- ndOp&#45;&gt;ndGCounter -->
<g id="edge63" class="edge"><title>ndOp&#45;&gt;ndGCounter</title>
<path fill="none" stroke="black" stroke-dasharray="5,2" d="M1060.42,-353.815C1012.36,-351.484 927.305,-341.214 876.925,-296 855.776,-277.02 843.929,-246.568 842.204,-223.248"/>
<polygon fill="black" stroke="black" points="842.127,-213.103 846.703,-223.068 842.165,-218.102 842.203,-223.102 842.203,-223.102 842.203,-223.102 842.165,-218.102 837.703,-223.137 842.127,-213.103 842.127,-213.103"/>
</g>
<!-- ndOp&#45;&gt;ndGCounter -->
<g id="edge74" class="edge"><title>ndOp&#45;&gt;ndGCounter</title>
<path fill="none" stroke="black" stroke-dasharray="5,2" d="M1060.27,-353.141C1017.73,-349.737 941.507,-337.806 894.925,-296 873.776,-277.02 861.929,-246.568 857.118,-223.248"/>
<polygon fill="black" stroke="black" points="855.395,-213.103 861.506,-222.208 856.232,-218.032 857.069,-222.961 857.069,-222.961 857.069,-222.961 856.232,-218.032 852.633,-223.715 855.395,-213.103 855.395,-213.103"/>
</g>
<!-- ndOp&#45;&gt;ndGCounter -->
<g id="edge85" class="edge"><title>ndOp&#45;&gt;ndGCounter</title>
<path fill="none" stroke="black" stroke-dasharray="5,2" d="M1060.32,-351.92C1021.5,-347.197 955.077,-333.83 912.925,-296 891.586,-276.849 879.716,-246.018 871.819,-222.62"/>
<polygon fill="black" stroke="black" points="868.662,-213.103 876.082,-221.177 870.237,-217.848 871.811,-222.594 871.811,-222.594 871.811,-222.594 870.237,-217.848 867.54,-224.011 868.662,-213.103 868.662,-213.103"/>
</g>
<!-- ndOp&#45;&gt;ndGCounter -->
<g id="edge106" class="edge"><title>ndOp&#45;&gt;ndGCounter</title>
<path fill="none" stroke="black" stroke-dasharray="5,2" d="M1060.22,-349.88C1024.28,-343.73 968.14,-329.399 930.925,-296 909.49,-276.763 897.61,-245.743 886.501,-222.307"/>
<polygon fill="black" stroke="black" points="881.93,-213.103 890.408,-220.058 884.154,-217.581 886.378,-222.059 886.378,-222.059 886.378,-222.059 884.154,-217.581 882.347,-224.061 881.93,-213.103 881.93,-213.103"/>
</g>
<!-- ndOp&#45;&gt;ndGCounter -->
<g id="edge117" class="edge"><title>ndOp&#45;&gt;ndGCounter</title>
<path fill="none" stroke="black" stroke-dasharray="5,2" d="M1060.33,-346.888C1027.35,-339.478 981.077,-324.855 948.925,-296 927.3,-276.592 915.4,-245.19 900.905,-221.684"/>
<polygon fill="black" stroke="black" points="895.198,-213.103 904.483,-218.937 897.967,-217.266 900.736,-221.429 900.736,-221.429 900.736,-221.429 897.967,-217.266 896.989,-223.921 895.198,-213.103 895.198,-213.103"/>
</g>
<!-- ndLWWReg -->
<g id="node24" class="node"><title>ndLWWReg</title>
<g id="a_node24_7"><a xlink:href="https://github.com/rust-crdt/rust-crdt/blob/master/src/lwwreg.rs#:~:text=struct%20LWWReg" xlink:title="&lt;TABLE&gt;">
<polygon fill="lightblue" stroke="none" points="1621.93,-253.5 1621.93,-290.5 1704.93,-290.5 1704.93,-253.5 1621.93,-253.5"/>
<polygon fill="none" stroke="black" points="1621.93,-253.5 1621.93,-290.5 1704.93,-290.5 1704.93,-253.5 1621.93,-253.5"/>
<text text-anchor="start" x="1632.93" y="-269.3" font-family="Arial" font-weight="bold" font-size="14.00">LWWReg</text>
<polygon fill="none" stroke="black" points="1620.43,-253 1620.43,-292 1705.43,-292 1705.43,-253 1620.43,-253"/>
</a>
</g>
</g>
<!-- ndOp&#45;&gt;ndLWWReg -->
<g id="edge5" class="edge"><title>ndOp&#45;&gt;ndLWWReg</title>
<path fill="none" stroke="black" stroke-dasharray="5,2" d="M1121.73,-348.623C1227.51,-334.32 1546.82,-298.673 1557.93,-296 1571.31,-292.778 1585.77,-287.415 1602.22,-282.734"/>
<polygon fill="black" stroke="black" points="1612.14,-280.077 1603.65,-287.01 1607.31,-281.37 1602.48,-282.663 1602.48,-282.663 1602.48,-282.663 1607.31,-281.37 1601.32,-278.316 1612.14,-280.077 1612.14,-280.077"/>
</g>
<!-- ndOp&#45;&gt;ndLWWReg -->
<g id="edge64" class="edge"><title>ndOp&#45;&gt;ndLWWReg</title>
<path fill="none" stroke="black" stroke-dasharray="5,2" d="M1121.76,-349.731C1228.09,-336.264 1564.52,-298.745 1575.93,-296 1584.51,-293.932 1593.55,-290.982 1602.73,-287.896"/>
<polygon fill="black" stroke="black" points="1612.34,-284.662 1604.3,-292.116 1607.6,-286.257 1602.86,-287.851 1602.86,-287.851 1602.86,-287.851 1607.6,-286.257 1601.43,-283.586 1612.34,-284.662 1612.34,-284.662"/>
</g>
<!-- ndOp&#45;&gt;ndLWWReg -->
<g id="edge75" class="edge"><title>ndOp&#45;&gt;ndLWWReg</title>
<path fill="none" stroke="black" stroke-dasharray="5,2" d="M1121.55,-350.696C1229.05,-338.164 1582.24,-298.814 1593.93,-296 1596.71,-295.329 1599.55,-294.564 1602.4,-293.733"/>
<polygon fill="black" stroke="black" points="1612.13,-290.682 1603.94,-297.967 1607.36,-292.177 1602.59,-293.673 1602.59,-293.673 1602.59,-293.673 1607.36,-292.177 1601.25,-289.379 1612.13,-290.682 1612.13,-290.682"/>
</g>
<!-- ndOp&#45;&gt;ndLWWReg -->
<g id="edge86" class="edge"><title>ndOp&#45;&gt;ndLWWReg</title>
<path fill="none" stroke="black" stroke-dasharray="5,2" d="M1121.78,-351.447C1222.85,-340.803 1540.02,-305.545 1602,-297.429"/>
<polygon fill="black" stroke="black" points="1612.25,-295.921 1603.01,-301.829 1607.3,-296.649 1602.36,-297.377 1602.36,-297.377 1602.36,-297.377 1607.3,-296.649 1601.7,-292.925 1612.25,-295.921 1612.25,-295.921"/>
</g>
<!-- ndOp&#45;&gt;ndLWWReg -->
<g id="edge107" class="edge"><title>ndOp&#45;&gt;ndLWWReg</title>
<path fill="none" stroke="black" stroke-dasharray="5,2" d="M1121.65,-352.088C1226.22,-342.316 1555.91,-305.795 1619.54,-297.517"/>
<polygon fill="black" stroke="black" points="1629.57,-296.076 1620.31,-301.951 1624.62,-296.786 1619.67,-297.497 1619.67,-297.497 1619.67,-297.497 1624.62,-296.786 1619.03,-293.043 1629.57,-296.076 1629.57,-296.076"/>
</g>
<!-- ndOp&#45;&gt;ndLWWReg -->
<g id="edge118" class="edge"><title>ndOp&#45;&gt;ndLWWReg</title>
<path fill="none" stroke="black" stroke-dasharray="5,2" d="M1121.51,-352.597C1231.11,-343.656 1573.08,-305.9 1637.65,-297.501"/>
<polygon fill="black" stroke="black" points="1647.57,-296.077 1638.31,-301.953 1642.62,-296.788 1637.67,-297.499 1637.67,-297.499 1637.67,-297.499 1642.62,-296.788 1637.03,-293.044 1647.57,-296.077 1647.57,-296.077"/>
</g>
<!-- ndList -->
<g id="node29" class="node"><title>ndList</title>
<g id="a_node29_8"><a xlink:href="https://github.com/rust-crdt/rust-crdt/blob/master/src/list.rs#:~:text=struct%20List" xlink:title="&lt;TABLE&gt;">
<polygon fill="lightblue" stroke="none" points="1194.93,-170.5 1194.93,-207.5 1242.93,-207.5 1242.93,-170.5 1194.93,-170.5"/>
<polygon fill="none" stroke="black" points="1194.93,-170.5 1194.93,-207.5 1242.93,-207.5 1242.93,-170.5 1194.93,-170.5"/>
<text text-anchor="start" x="1205.93" y="-186.3" font-family="Arial" font-weight="bold" font-size="14.00">List</text>
<polygon fill="none" stroke="black" points="1193.93,-170 1193.93,-209 1243.93,-209 1243.93,-170 1193.93,-170"/>
</a>
</g>
</g>
<!-- ndOp&#45;&gt;ndList -->
<g id="edge6" class="edge"><title>ndOp&#45;&gt;ndList</title>
<path fill="none" stroke="black" stroke-dasharray="5,2" d="M1074.81,-331.954C1081.92,-321.507 1094.62,-308.629 1104.93,-296 1128.62,-266.957 1151.5,-229.55 1177.52,-207.973"/>
<polygon fill="black" stroke="black" points="1185.7,-201.811 1180.42,-211.422 1181.71,-204.819 1177.71,-207.827 1177.71,-207.827 1177.71,-207.827 1181.71,-204.819 1175.01,-204.233 1185.7,-201.811 1185.7,-201.811"/>
</g>
<!-- ndOp&#45;&gt;ndList -->
<g id="edge65" class="edge"><title>ndOp&#45;&gt;ndList</title>
<path fill="none" stroke="black" stroke-dasharray="5,2" d="M1091.26,-331.954C1099.92,-321.507 1112.62,-308.629 1122.93,-296 1142.43,-272.093 1161.38,-242.52 1178.98,-220.773"/>
<polygon fill="black" stroke="black" points="1185.66,-212.849 1182.66,-223.396 1182.44,-216.673 1179.21,-220.496 1179.21,-220.496 1179.21,-220.496 1182.44,-216.673 1175.77,-217.596 1185.66,-212.849 1185.66,-212.849"/>
</g>
<!-- ndOp&#45;&gt;ndList -->
<g id="edge76" class="edge"><title>ndOp&#45;&gt;ndList</title>
<path fill="none" stroke="black" stroke-dasharray="5,2" d="M1107.71,-331.954C1117.92,-321.507 1130.62,-308.629 1140.93,-296 1160.14,-272.453 1178.81,-243.409 1193.31,-221.76"/>
<polygon fill="black" stroke="black" points="1199.06,-213.266 1197.18,-224.07 1196.26,-217.407 1193.46,-221.549 1193.46,-221.549 1193.46,-221.549 1196.26,-217.407 1189.73,-219.027 1199.06,-213.266 1199.06,-213.266"/>
</g>
<!-- ndOp&#45;&gt;ndList -->
<g id="edge87" class="edge"><title>ndOp&#45;&gt;ndList</title>
<path fill="none" stroke="black" stroke-dasharray="5,2" d="M1121.69,-334.135C1134.11,-323.332 1147.89,-309.523 1158.93,-296 1177.97,-272.662 1196.48,-243.924 1208.13,-222.339"/>
<polygon fill="black" stroke="black" points="1212.83,-213.266 1212.22,-224.215 1210.53,-217.706 1208.23,-222.146 1208.23,-222.146 1208.23,-222.146 1210.53,-217.706 1204.23,-220.076 1212.83,-213.266 1212.83,-213.266"/>
</g>
<!-- ndOp&#45;&gt;ndList -->
<g id="edge108" class="edge"><title>ndOp&#45;&gt;ndList</title>
<path fill="none" stroke="black" stroke-dasharray="5,2" d="M1121.7,-344.772C1141.47,-333.642 1161.79,-314.552 1176.93,-296 1195.8,-272.872 1214.15,-244.44 1223.09,-222.921"/>
<polygon fill="black" stroke="black" points="1226.6,-213.266 1227.41,-224.202 1224.89,-217.966 1223.18,-222.666 1223.18,-222.666 1223.18,-222.666 1224.89,-217.966 1218.95,-221.13 1226.6,-213.266 1226.6,-213.266"/>
</g>
<!-- ndOp&#45;&gt;ndList -->
<g id="edge119" class="edge"><title>ndOp&#45;&gt;ndList</title>
<path fill="none" stroke="black" stroke-dasharray="5,2" d="M1121.46,-349.83C1152.22,-340.328 1177.14,-317.793 1194.93,-296 1213.71,-272.976 1231.98,-244.697 1238.28,-223.214"/>
<polygon fill="black" stroke="black" points="1240.36,-213.266 1242.72,-223.976 1239.34,-218.16 1238.32,-223.054 1238.32,-223.054 1238.32,-223.054 1239.34,-218.16 1233.91,-222.133 1240.36,-213.266 1240.36,-213.266"/>
</g>
<!-- ndGList -->
<g id="node30" class="node"><title>ndGList</title>
<g id="a_node30_9"><a xlink:href="https://github.com/rust-crdt/rust-crdt/blob/master/src/glist.rs#:~:text=struct%20GList" xlink:title="&lt;TABLE&gt;">
<polygon fill="lightblue" stroke="none" points="1393.93,-253.5 1393.93,-290.5 1452.93,-290.5 1452.93,-253.5 1393.93,-253.5"/>
<polygon fill="none" stroke="black" points="1393.93,-253.5 1393.93,-290.5 1452.93,-290.5 1452.93,-253.5 1393.93,-253.5"/>
<text text-anchor="start" x="1404.93" y="-269.3" font-family="Arial" font-weight="bold" font-size="14.00">GList</text>
<polygon fill="none" stroke="black" points="1392.43,-253 1392.43,-292 1453.43,-292 1453.43,-253 1392.43,-253"/>
</a>
</g>
</g>
<!-- ndOp&#45;&gt;ndGList -->
<g id="edge7" class="edge"><title>ndOp&#45;&gt;ndGList</title>
<path fill="none" stroke="black" stroke-dasharray="5,2" d="M1121.44,-345.414C1170.23,-336.33 1257.07,-320.203 1329.93,-296 1342.72,-291.75 1356.58,-284.998 1374.54,-279.998"/>
<polygon fill="black" stroke="black" points="1384.31,-277.566 1375.7,-284.347 1379.46,-278.773 1374.61,-279.98 1374.61,-279.98 1374.61,-279.98 1379.46,-278.773 1373.52,-275.613 1384.31,-277.566 1384.31,-277.566"/>
</g>
<!-- ndOp&#45;&gt;ndGList -->
<g id="edge66" class="edge"><title>ndOp&#45;&gt;ndGList</title>
<path fill="none" stroke="black" stroke-dasharray="5,2" d="M1121.6,-347.815C1171.6,-339.324 1268.14,-322.504 1347.93,-296 1356.44,-293.171 1365.43,-289.233 1374.79,-285.442"/>
<polygon fill="black" stroke="black" points="1384.27,-281.745 1376.59,-289.57 1379.62,-283.561 1374.96,-285.378 1374.96,-285.378 1374.96,-285.378 1379.62,-283.561 1373.32,-281.185 1384.27,-281.745 1384.27,-281.745"/>
</g>
<!-- ndOp&#45;&gt;ndGList -->
<g id="edge77" class="edge"><title>ndOp&#45;&gt;ndGList</title>
<path fill="none" stroke="black" stroke-dasharray="5,2" d="M1121.69,-349.776C1173.29,-342.076 1279.46,-324.726 1365.93,-296 1368.94,-294.999 1372.01,-293.859 1375.09,-292.636"/>
<polygon fill="black" stroke="black" points="1384.33,-288.773 1376.84,-296.783 1379.72,-290.702 1375.1,-292.632 1375.1,-292.632 1375.1,-292.632 1379.72,-290.702 1373.37,-288.481 1384.33,-288.773 1384.33,-288.773"/>
</g>
<!-- ndOp&#45;&gt;ndGList -->
<g id="edge88" class="edge"><title>ndOp&#45;&gt;ndGList</title>
<path fill="none" stroke="black" stroke-dasharray="5,2" d="M1121.61,-351.286C1174.08,-344.741 1283.43,-327.988 1374.58,-299.033"/>
<polygon fill="black" stroke="black" points="1384.19,-295.913 1376.07,-303.282 1379.43,-297.457 1374.68,-299.002 1374.68,-299.002 1374.68,-299.002 1379.43,-297.457 1373.29,-294.722 1384.19,-295.913 1384.19,-295.913"/>
</g>
<!-- ndOp&#45;&gt;ndGList -->
<g id="edge109" class="edge"><title>ndOp&#45;&gt;ndGList</title>
<path fill="none" stroke="black" stroke-dasharray="5,2" d="M1121.72,-352.334C1178.83,-346.671 1295.89,-329.712 1392.1,-299.19"/>
<polygon fill="black" stroke="black" points="1401.64,-296.095 1393.51,-303.461 1396.88,-297.638 1392.13,-299.181 1392.13,-299.181 1392.13,-299.181 1396.88,-297.638 1390.74,-294.901 1401.64,-296.095 1401.64,-296.095"/>
</g>
<!-- ndOp&#45;&gt;ndGList -->
<g id="edge120" class="edge"><title>ndOp&#45;&gt;ndGList</title>
<path fill="none" stroke="black" stroke-dasharray="5,2" d="M1121.81,-353.035C1185.79,-348.185 1309.4,-331.113 1409.97,-299.231"/>
<polygon fill="black" stroke="black" points="1419.63,-296.099 1411.5,-303.465 1414.87,-297.642 1410.11,-299.184 1410.11,-299.184 1410.11,-299.184 1414.87,-297.642 1408.73,-294.904 1419.63,-296.099 1419.63,-296.099"/>
</g>
<!-- ndMVReg -->
<g id="node31" class="node"><title>ndMVReg</title>
<g id="a_node31_10"><a xlink:href="https://github.com/rust-crdt/rust-crdt/blob/master/src/mvreg.rs#:~:text=struct%20MVReg" xlink:title="&lt;TABLE&gt;">
<polygon fill="lightblue" stroke="none" points="232.925,-4.5 232.925,-41.5 304.925,-41.5 304.925,-4.5 232.925,-4.5"/>
<polygon fill="none" stroke="black" points="232.925,-4.5 232.925,-41.5 304.925,-41.5 304.925,-4.5 232.925,-4.5"/>
<text text-anchor="start" x="243.925" y="-20.3" font-family="Arial" font-weight="bold" font-size="14.00">MVReg</text>
<polygon fill="none" stroke="black" points="231.925,-4 231.925,-43 305.925,-43 305.925,-4 231.925,-4"/>
</a>
</g>
</g>
<!-- ndOp&#45;&gt;ndMVReg -->
<g id="edge8" class="edge"><title>ndOp&#45;&gt;ndMVReg</title>
<path fill="none" stroke="black" stroke-dasharray="5,2" d="M1060.23,-354.477C913.221,-353.898 319.302,-344.549 211.925,-213 175.455,-168.319 194.762,-96.0566 225.012,-55.2024"/>
<polygon fill="black" stroke="black" points="231.406,-47.2251 228.663,-57.8425 228.279,-51.1267 225.152,-55.0283 225.152,-55.0283 225.152,-55.0283 228.279,-51.1267 221.64,-52.2141 231.406,-47.2251 231.406,-47.2251"/>
</g>
<!-- ndOp&#45;&gt;ndMVReg -->
<g id="edge67" class="edge"><title>ndOp&#45;&gt;ndMVReg</title>
<path fill="none" stroke="black" stroke-dasharray="5,2" d="M1059.99,-354.452C917.164,-353.659 336.025,-342.984 229.925,-213 193.607,-168.506 212.602,-96.6596 236.869,-55.7158"/>
<polygon fill="black" stroke="black" points="242.277,-47.2251 240.701,-58.0771 239.591,-51.4425 236.905,-55.6598 236.905,-55.6598 236.905,-55.6598 239.591,-51.4425 233.109,-53.2425 242.277,-47.2251 242.277,-47.2251"/>
</g>
<!-- ndOp&#45;&gt;ndMVReg -->
<g id="edge78" class="edge"><title>ndOp&#45;&gt;ndMVReg</title>
<path fill="none" stroke="black" stroke-dasharray="5,2" d="M1060.3,-354.419C921.245,-353.385 352.748,-341.42 247.925,-213 211.835,-168.786 230.365,-97.5622 248.756,-56.4919"/>
<polygon fill="black" stroke="black" points="253.148,-47.2251 252.931,-58.1888 251.006,-51.7433 248.865,-56.2615 248.865,-56.2615 248.865,-56.2615 251.006,-51.7433 244.798,-54.3341 253.148,-47.2251 253.148,-47.2251"/>
</g>
<!-- ndOp&#45;&gt;ndMVReg -->
<g id="edge89" class="edge"><title>ndOp&#45;&gt;ndMVReg</title>
<path fill="none" stroke="black" stroke-dasharray="5,2" d="M1060.22,-354.367C922.972,-353.016 369.239,-339.571 265.925,-213 229.988,-168.972 248.21,-98.1628 260.938,-57.0134"/>
<polygon fill="black" stroke="black" points="264.019,-47.2251 265.309,-58.1149 262.518,-51.9944 261.016,-56.7637 261.016,-56.7637 261.016,-56.7637 262.518,-51.9944 256.724,-55.4124 264.019,-47.2251 264.019,-47.2251"/>
</g>
<!-- ndOp&#45;&gt;ndMVReg -->
<g id="edge110" class="edge"><title>ndOp&#45;&gt;ndMVReg</title>
<path fill="none" stroke="black" stroke-dasharray="5,2" d="M1060.17,-354.294C923.663,-352.565 385.613,-337.58 283.925,-213 248.064,-169.066 266.133,-98.4627 273.307,-57.2754"/>
<polygon fill="black" stroke="black" points="274.89,-47.2251 277.779,-57.8035 274.112,-52.1642 273.334,-57.1033 273.334,-57.1033 273.334,-57.1033 274.112,-52.1642 268.889,-56.4031 274.89,-47.2251 274.89,-47.2251"/>
</g>
<!-- ndOp&#45;&gt;ndMVReg -->
<g id="edge121" class="edge"><title>ndOp&#45;&gt;ndMVReg</title>
<path fill="none" stroke="black" stroke-dasharray="5,2" d="M1060.1,-354.193C923.365,-352.02 401.872,-335.447 301.925,-213 266.064,-169.066 284.133,-98.4627 285.757,-57.2754"/>
<polygon fill="black" stroke="black" points="285.761,-47.2251 290.257,-57.2269 285.759,-52.2251 285.757,-57.2251 285.757,-57.2251 285.757,-57.2251 285.759,-52.2251 281.257,-57.2233 285.761,-47.2251 285.761,-47.2251"/>
</g>
<!-- ndVClock -->
<g id="node32" class="node"><title>ndVClock</title>
<g id="a_node32_11"><a xlink:href="https://github.com/rust-crdt/rust-crdt/blob/master/src/vclock.rs#:~:text=struct%20VClock" xlink:title="&lt;TABLE&gt;">
<polygon fill="lightblue" stroke="none" points="680.925,-253.5 680.925,-290.5 752.925,-290.5 752.925,-253.5 680.925,-253.5"/>
<polygon fill="none" stroke="black" points="680.925,-253.5 680.925,-290.5 752.925,-290.5 752.925,-253.5 680.925,-253.5"/>
<text text-anchor="start" x="691.925" y="-269.3" font-family="Arial" font-weight="bold" font-size="14.00">VClock</text>
<polygon fill="none" stroke="black" points="679.925,-253 679.925,-292 753.925,-292 753.925,-253 679.925,-253"/>
</a>
</g>
</g>
<!-- ndOp&#45;&gt;ndVClock -->
<g id="edge9" class="edge"><title>ndOp&#45;&gt;ndVClock</title>
<path fill="none" stroke="black" stroke-dasharray="5,2" d="M1060.28,-353.006C992.691,-347.871 854.706,-329.548 741.13,-298.814"/>
<polygon fill="black" stroke="black" points="731.263,-296.095 742.099,-294.414 736.084,-297.423 740.904,-298.752 740.904,-298.752 740.904,-298.752 736.084,-297.423 739.708,-303.09 731.263,-296.095 731.263,-296.095"/>
</g>
<!-- ndOp&#45;&gt;ndVClock -->
<g id="edge68" class="edge"><title>ndOp&#45;&gt;ndVClock</title>
<path fill="none" stroke="black" stroke-dasharray="5,2" d="M1060.18,-352.315C999.214,-346.36 868.021,-328.291 759.053,-298.793"/>
<polygon fill="black" stroke="black" points="749.25,-296.091 760.086,-294.41 754.07,-297.42 758.89,-298.749 758.89,-298.749 758.89,-298.749 754.07,-297.42 757.695,-303.087 749.25,-296.091 749.25,-296.091"/>
</g>
<!-- ndOp&#45;&gt;ndVClock -->
<g id="edge79" class="edge"><title>ndOp&#45;&gt;ndVClock</title>
<path fill="none" stroke="black" stroke-dasharray="5,2" d="M1060.35,-351.335C1003.79,-344.514 879.951,-326.731 771.874,-297.292"/>
<polygon fill="black" stroke="black" points="762.134,-294.594 772.972,-292.927 766.953,-295.929 771.771,-297.263 771.771,-297.263 771.771,-297.263 766.953,-295.929 770.57,-301.6 762.134,-294.594 762.134,-294.594"/>
</g>
<!-- ndOp&#45;&gt;ndVClock -->
<g id="edge90" class="edge"><title>ndOp&#45;&gt;ndVClock</title>
<path fill="none" stroke="black" stroke-dasharray="5,2" d="M1060.14,-349.921C1004.38,-341.994 883.989,-323.841 784.925,-296 780.654,-294.8 776.259,-293.417 771.85,-291.938"/>
<polygon fill="black" stroke="black" points="762.22,-288.585 773.144,-287.624 766.942,-290.229 771.664,-291.874 771.664,-291.874 771.664,-291.874 766.942,-290.229 770.184,-296.123 762.22,-288.585 762.22,-288.585"/>
</g>
<!-- ndOp&#45;&gt;ndVClock -->
<g id="edge111" class="edge"><title>ndOp&#45;&gt;ndVClock</title>
<path fill="none" stroke="black" stroke-dasharray="5,2" d="M1060,-348.099C1005.56,-339.395 895.028,-321.885 802.925,-296 792.967,-293.201 782.334,-289.409 771.524,-285.736"/>
<polygon fill="black" stroke="black" points="761.992,-282.566 772.901,-281.451 766.737,-284.144 771.482,-285.721 771.482,-285.721 771.482,-285.721 766.737,-284.144 770.062,-289.991 761.992,-282.566 761.992,-282.566"/>
</g>
<!-- ndOp&#45;&gt;ndVClock -->
<g id="edge122" class="edge"><title>ndOp&#45;&gt;ndVClock</title>
<path fill="none" stroke="black" stroke-dasharray="5,2" d="M1060.41,-345.974C1006.96,-336.7 906.066,-319.928 820.925,-296 806.456,-291.933 790.562,-285.769 772.008,-280.921"/>
<polygon fill="black" stroke="black" points="762.056,-278.523 772.832,-276.49 766.917,-279.694 771.778,-280.865 771.778,-280.865 771.778,-280.865 766.917,-279.694 770.724,-285.24 762.056,-278.523 762.056,-278.523"/>
</g>
<!-- ndPNCounter -->
<g id="node34" class="node"><title>ndPNCounter</title>
<g id="a_node34_12"><a xlink:href="https://github.com/rust-crdt/rust-crdt/blob/master/src/pncounter.rs#:~:text=struct%20PNCounter" xlink:title="&lt;TABLE&gt;">
<polygon fill="lightblue" stroke="none" points="1066.93,-87.5 1066.93,-124.5 1164.93,-124.5 1164.93,-87.5 1066.93,-87.5"/>
<polygon fill="none" stroke="black" points="1066.93,-87.5 1066.93,-124.5 1164.93,-124.5 1164.93,-87.5 1066.93,-87.5"/>
<text text-anchor="start" x="1077.93" y="-103.3" font-family="Arial" font-weight="bold" font-size="14.00">PNCounter</text>
<polygon fill="none" stroke="black" points="1065.93,-87 1065.93,-126 1165.93,-126 1165.93,-87 1065.93,-87"/>
</a>
</g>
</g>
<!-- ndOp&#45;&gt;ndPNCounter -->
<g id="edge10" class="edge"><title>ndOp&#45;&gt;ndPNCounter</title>
<path fill="none" stroke="black" stroke-dasharray="5,2" d="M1072.67,-331.706C1060.64,-287.592 1069.45,-190.437 1089.02,-139.732"/>
<polygon fill="black" stroke="black" points="1093.08,-130.239 1093.29,-141.203 1091.11,-134.837 1089.15,-139.436 1089.15,-139.436 1089.15,-139.436 1091.11,-134.837 1085.01,-137.668 1093.08,-130.239 1093.08,-130.239"/>
</g>
<!-- ndOp&#45;&gt;ndPNCounter -->
<g id="edge69" class="edge"><title>ndOp&#45;&gt;ndPNCounter</title>
<path fill="none" stroke="black" stroke-dasharray="5,2" d="M1080.89,-331.706C1075.48,-287.684 1084.65,-190.841 1098.39,-140.049"/>
<polygon fill="black" stroke="black" points="1101.3,-130.239 1102.77,-141.105 1099.88,-135.034 1098.46,-139.828 1098.46,-139.828 1098.46,-139.828 1099.88,-135.034 1094.14,-138.551 1101.3,-130.239 1101.3,-130.239"/>
</g>
<!-- ndOp&#45;&gt;ndPNCounter -->
<g id="edge80" class="edge"><title>ndOp&#45;&gt;ndPNCounter</title>
<path fill="none" stroke="black" stroke-dasharray="5,2" d="M1089.12,-331.706C1090.28,-287.776 1099.84,-191.245 1107.83,-140.368"/>
<polygon fill="black" stroke="black" points="1109.51,-130.239 1112.32,-140.841 1108.7,-135.172 1107.88,-140.105 1107.88,-140.105 1107.88,-140.105 1108.7,-135.172 1103.44,-139.368 1109.51,-130.239 1109.51,-130.239"/>
</g>
<!-- ndOp&#45;&gt;ndPNCounter -->
<g id="edge91" class="edge"><title>ndOp&#45;&gt;ndPNCounter</title>
<path fill="none" stroke="black" stroke-dasharray="5,2" d="M1097.35,-331.706C1105.08,-287.776 1115.06,-191.245 1117.36,-140.368"/>
<polygon fill="black" stroke="black" points="1117.73,-130.239 1121.86,-140.397 1117.55,-135.236 1117.37,-140.233 1117.37,-140.233 1117.37,-140.233 1117.55,-135.236 1112.87,-140.068 1117.73,-130.239 1117.73,-130.239"/>
</g>
<!-- ndOp&#45;&gt;ndPNCounter -->
<g id="edge112" class="edge"><title>ndOp&#45;&gt;ndPNCounter</title>
<path fill="none" stroke="black" stroke-dasharray="5,2" d="M1105.57,-331.706C1119.87,-287.776 1130.29,-191.245 1126.89,-140.368"/>
<polygon fill="black" stroke="black" points="1125.95,-130.239 1131.35,-139.781 1126.41,-135.218 1126.87,-140.197 1126.87,-140.197 1126.87,-140.197 1126.41,-135.218 1122.39,-140.612 1125.95,-130.239 1125.95,-130.239"/>
</g>
<!-- ndOp&#45;&gt;ndPNCounter -->
<g id="edge123" class="edge"><title>ndOp&#45;&gt;ndPNCounter</title>
<path fill="none" stroke="black" stroke-dasharray="5,2" d="M1113.8,-331.706C1134.71,-287.684 1145.56,-190.841 1136.36,-140.049"/>
<polygon fill="black" stroke="black" points="1134.17,-130.239 1140.74,-139.018 1135.26,-135.119 1136.35,-139.999 1136.35,-139.999 1136.35,-139.999 1135.26,-135.119 1131.96,-140.98 1134.17,-130.239 1134.17,-130.239"/>
</g>
<!-- ndOrswot -->
<g id="node36" class="node"><title>ndOrswot</title>
<g id="a_node36_13"><a xlink:href="https://github.com/rust-crdt/rust-crdt/blob/master/src/orswot.rs#:~:text=struct%20Orswot" xlink:title="&lt;TABLE&gt;">
<polygon fill="lightblue" stroke="none" points="948.925,-4.5 948.925,-41.5 1021.93,-41.5 1021.93,-4.5 948.925,-4.5"/>
<polygon fill="none" stroke="black" points="948.925,-4.5 948.925,-41.5 1021.93,-41.5 1021.93,-4.5 948.925,-4.5"/>
<text text-anchor="start" x="959.925" y="-20.3" font-family="Arial" font-weight="bold" font-size="14.00">Orswot</text>
<polygon fill="none" stroke="black" points="947.425,-4 947.425,-43 1022.43,-43 1022.43,-4 947.425,-4"/>
</a>
</g>
</g>
<!-- ndOp&#45;&gt;ndOrswot -->
<g id="edge11" class="edge"><title>ndOp&#45;&gt;ndOrswot</title>
<path fill="none" stroke="black" stroke-dasharray="5,2" d="M1065.48,-331.818C1027.46,-274.711 978.251,-124.788 974.282,-57.7382"/>
<polygon fill="black" stroke="black" points="974.049,-47.341 978.772,-57.2378 974.161,-52.3397 974.273,-57.3385 974.273,-57.3385 974.273,-57.3385 974.161,-52.3397 969.774,-57.4392 974.049,-47.341 974.049,-47.341"/>
</g>
<!-- ndOp&#45;&gt;ndOrswot -->
<g id="edge70" class="edge"><title>ndOp&#45;&gt;ndOrswot</title>
<path fill="none" stroke="black" stroke-dasharray="5,2" d="M1072.74,-331.818C1042.53,-274.593 993.605,-124.169 982.742,-57.3245"/>
<polygon fill="black" stroke="black" points="981.334,-47.341 987.187,-56.6146 982.032,-52.292 982.731,-57.243 982.731,-57.243 982.731,-57.243 982.032,-52.292 978.275,-57.8714 981.334,-47.341 981.334,-47.341"/>
</g>
<!-- ndOp&#45;&gt;ndOrswot -->
<g id="edge81" class="edge"><title>ndOp&#45;&gt;ndOrswot</title>
<path fill="none" stroke="black" stroke-dasharray="5,2" d="M1080.01,-331.818C1057.68,-274.593 1009.16,-124.169 991.227,-57.3245"/>
<polygon fill="black" stroke="black" points="988.619,-47.341 995.5,-55.8794 989.883,-52.1787 991.146,-57.0165 991.146,-57.0165 991.146,-57.0165 989.883,-52.1787 986.792,-58.1535 988.619,-47.341 988.619,-47.341"/>
</g>
<!-- ndOp&#45;&gt;ndOrswot -->
<g id="edge92" class="edge"><title>ndOp&#45;&gt;ndOrswot</title>
<path fill="none" stroke="black" stroke-dasharray="5,2" d="M1087.27,-331.818C1072.8,-274.476 1024.52,-123.55 999.557,-56.9129"/>
<polygon fill="black" stroke="black" points="995.905,-47.341 1003.67,-55.0796 997.687,-52.0124 999.47,-56.6839 999.47,-56.6839 999.47,-56.6839 997.687,-52.0124 995.265,-58.2882 995.905,-47.341 995.905,-47.341"/>
</g>
<!-- ndOp&#45;&gt;ndOrswot -->
<g id="edge113" class="edge"><title>ndOp&#45;&gt;ndOrswot</title>
<path fill="none" stroke="black" stroke-dasharray="5,2" d="M1094.53,-331.818C1087.96,-274.358 1039.88,-122.93 1007.8,-56.5035"/>
<polygon fill="black" stroke="black" points="1003.19,-47.341 1011.7,-54.2511 1005.44,-51.8074 1007.68,-56.2738 1007.68,-56.2738 1007.68,-56.2738 1005.44,-51.8074 1003.66,-58.2966 1003.19,-47.341 1003.19,-47.341"/>
</g>
<!-- ndOp&#45;&gt;ndOrswot -->
<g id="edge124" class="edge"><title>ndOp&#45;&gt;ndOrswot</title>
<path fill="none" stroke="black" stroke-dasharray="5,2" d="M1101.8,-331.818C1103.14,-274.24 1055.25,-122.309 1015.96,-56.0962"/>
<polygon fill="black" stroke="black" points="1010.47,-47.341 1019.6,-53.4293 1013.13,-51.579 1015.78,-55.8171 1015.78,-55.8171 1015.78,-55.8171 1013.13,-51.579 1011.97,-58.2049 1010.47,-47.341 1010.47,-47.341"/>
</g>
<!-- ndCmRDTValidation -->
<g id="node5" class="node"><title>ndCmRDTValidation</title>
<g id="a_node5_14"><a xlink:href="https://github.com/rust-crdt/rust-crdt/blob/master/src/map.rs#:~:text=enum%20CmRDTValidation" xlink:title="&lt;TABLE&gt;">
<polygon fill="yellow" stroke="none" points="1901.93,-419.5 1901.93,-456.5 2045.93,-456.5 2045.93,-419.5 1901.93,-419.5"/>
<polygon fill="none" stroke="black" points="1901.93,-419.5 1901.93,-456.5 2045.93,-456.5 2045.93,-419.5 1901.93,-419.5"/>
<text text-anchor="start" x="1912.93" y="-435.3" font-family="Arial" font-weight="bold" font-size="14.00">CmRDTValidation</text>
<polygon fill="none" stroke="black" points="1900.93,-419 1900.93,-458 2046.93,-458 2046.93,-419 1900.93,-419"/>
</a>
</g>
</g>
<!-- ndCvRDTValidation -->
<g id="node6" class="node"><title>ndCvRDTValidation</title>
<g id="a_node6_15"><a xlink:href="https://github.com/rust-crdt/rust-crdt/blob/master/src/map.rs#:~:text=enum%20CvRDTValidation" xlink:title="&lt;TABLE&gt;">
<polygon fill="yellow" stroke="none" points="2081.93,-419.5 2081.93,-456.5 2221.93,-456.5 2221.93,-419.5 2081.93,-419.5"/>
<polygon fill="none" stroke="black" points="2081.93,-419.5 2081.93,-456.5 2221.93,-456.5 2221.93,-419.5 2081.93,-419.5"/>
<text text-anchor="start" x="2092.93" y="-435.3" font-family="Arial" font-weight="bold" font-size="14.00">CvRDTValidation</text>
<polygon fill="none" stroke="black" points="2080.93,-419 2080.93,-458 2222.93,-458 2222.93,-419 2080.93,-419"/>
</a>
</g>
</g>
<!-- ndActor -->
<g id="node7" class="node"><title>ndActor</title>
<g id="a_node7_16"><a xlink:href="https://github.com/rust-crdt/rust-crdt/blob/master/src/traits.rs#:~:text=trait%20Actor" xlink:title="&lt;TABLE&gt;">
<polygon fill="lightgreen" stroke="none" points="2257.93,-419.5 2257.93,-456.5 2317.93,-456.5 2317.93,-419.5 2257.93,-419.5"/>
<polygon fill="none" stroke="black" points="2257.93,-419.5 2257.93,-456.5 2317.93,-456.5 2317.93,-419.5 2257.93,-419.5"/>
<text text-anchor="start" x="2268.93" y="-435.3" font-family="Arial" font-weight="bold" font-size="14.00">Actor</text>
<polygon fill="none" stroke="black" points="2256.93,-419 2256.93,-458 2318.93,-458 2318.93,-419 2256.93,-419"/>
</a>
</g>
</g>
<!-- ndCvRDT -->
<g id="node8" class="node"><title>ndCvRDT</title>
<g id="a_node8_17"><a xlink:href="https://github.com/rust-crdt/rust-crdt/blob/master/src/traits.rs#:~:text=trait%20CvRDT" xlink:title="&lt;TABLE&gt;">
<polygon fill="lightgreen" stroke="none" points="1637.93,-336.5 1637.93,-373.5 1708.93,-373.5 1708.93,-336.5 1637.93,-336.5"/>
<polygon fill="none" stroke="black" points="1637.93,-336.5 1637.93,-373.5 1708.93,-373.5 1708.93,-336.5 1637.93,-336.5"/>
<text text-anchor="start" x="1648.93" y="-352.3" font-family="Arial" font-weight="bold" font-size="14.00">CvRDT</text>
<polygon fill="none" stroke="black" points="1636.43,-336 1636.43,-375 1709.43,-375 1709.43,-336 1636.43,-336"/>
</a>
</g>
</g>
<!-- ndCvRDT&#45;&gt;ndMap -->
<g id="edge12" class="edge"><title>ndCvRDT&#45;&gt;ndMap</title>
<path fill="none" stroke="black" stroke-dasharray="5,2" d="M1717.61,-335.434C1743.27,-323.472 1771.79,-308.082 1778.93,-296 1810.73,-242.122 1775.89,-202.29 1724.93,-166 1600.33,-77.2768 1542.45,-103.903 1390.93,-83 872.919,-11.5405 735.732,-93.8664 214.925,-47 179.734,-43.8332 140.224,-37.8048 110.591,-32.7846"/>
<polygon fill="none" stroke="black" points="110.994,-29.3025 100.545,-31.0573 109.807,-36.2013 110.994,-29.3025"/>
</g>
<!-- ndCvRDT&#45;&gt;ndMerkleReg -->
<g id="edge13" class="edge"><title>ndCvRDT&#45;&gt;ndMerkleReg</title>
<path fill="none" stroke="black" stroke-dasharray="5,2" d="M1635.04,-331.937C1619.26,-322.537 1600.76,-311.521 1584.11,-301.603"/>
<polygon fill="none" stroke="black" points="1585.46,-298.333 1575.08,-296.223 1581.88,-304.347 1585.46,-298.333"/>
</g>
<!-- ndCvRDT&#45;&gt;ndGSet -->
<g id="edge14" class="edge"><title>ndCvRDT&#45;&gt;ndGSet</title>
<path fill="none" stroke="black" stroke-dasharray="5,2" d="M1628.14,-334.861C1625.05,-333.81 1621.96,-332.842 1618.93,-332 1516.39,-303.553 1481.66,-327.005 1375.73,-295.773"/>
<polygon fill="none" stroke="black" points="1376.52,-292.357 1365.94,-292.793 1374.48,-299.053 1376.52,-292.357"/>
</g>
<!-- ndCvRDT&#45;&gt;ndGCounter -->
<g id="edge15" class="edge"><title>ndCvRDT&#45;&gt;ndGCounter</title>
<path fill="none" stroke="black" stroke-dasharray="5,2" d="M1710.31,-331.855C1722.4,-322.417 1734.37,-310.296 1740.93,-296 1749.64,-277.014 1755.22,-264.234 1740.93,-249 1697.96,-203.205 1239.58,-217.209 1176.93,-213 1088.59,-207.065 986.522,-199.794 922.11,-195.153"/>
<polygon fill="none" stroke="black" points="922.329,-191.66 912.103,-194.432 921.826,-198.642 922.329,-191.66"/>
</g>
<!-- ndCvRDT&#45;&gt;ndLWWReg -->
<g id="edge16" class="edge"><title>ndCvRDT&#45;&gt;ndLWWReg</title>
<path fill="none" stroke="black" stroke-dasharray="5,2" d="M1670.14,-331.937C1669.16,-324.016 1668.04,-314.949 1666.98,-306.357"/>
<polygon fill="none" stroke="black" points="1670.43,-305.719 1665.73,-296.223 1663.48,-306.576 1670.43,-305.719"/>
</g>
<!-- ndCvRDT&#45;&gt;ndGList -->
<g id="edge17" class="edge"><title>ndCvRDT&#45;&gt;ndGList</title>
<path fill="none" stroke="black" stroke-dasharray="5,2" d="M1628.34,-335.286C1625.17,-334.119 1622.01,-333.01 1618.93,-332 1557.08,-311.784 1536,-318.174 1471.1,-296.112"/>
<polygon fill="none" stroke="black" points="1472.24,-292.802 1461.64,-292.805 1469.93,-299.41 1472.24,-292.802"/>
</g>
<!-- ndCvRDT&#45;&gt;ndMVReg -->
<g id="edge18" class="edge"><title>ndCvRDT&#45;&gt;ndMVReg</title>
<path fill="none" stroke="black" stroke-dasharray="5,2" d="M1717.66,-334.685C1720.77,-333.676 1723.87,-332.766 1726.93,-332 1807.27,-311.847 2042.25,-357.334 2097.93,-296 2161.55,-225.903 2163.83,-150.963 2097.93,-83 2075.33,-59.6965 962.368,-48.0521 929.925,-47 705.4,-39.7185 437.998,-30.4255 324.388,-26.4481"/>
<polygon fill="none" stroke="black" points="324.319,-22.9437 314.203,-26.0914 324.074,-29.9394 324.319,-22.9437"/>
</g>
<!-- ndCvRDT&#45;&gt;ndVClock -->
<g id="edge19" class="edge"><title>ndCvRDT&#45;&gt;ndVClock</title>
<path fill="none" stroke="black" stroke-dasharray="5,2" d="M1628.21,-334.572C1625.11,-333.59 1621.99,-332.717 1618.93,-332 1536.77,-312.782 955.999,-284.565 772.411,-276.034"/>
<polygon fill="none" stroke="black" points="772.327,-272.526 762.175,-275.559 772.003,-279.519 772.327,-272.526"/>
</g>
<!-- ndCvRDT&#45;&gt;ndPNCounter -->
<g id="edge20" class="edge"><title>ndCvRDT&#45;&gt;ndPNCounter</title>
<path fill="none" stroke="black" stroke-dasharray="5,2" d="M1717.73,-335.585C1734.07,-326.229 1750.77,-313.189 1759.93,-296 1792.49,-234.856 1736.72,-195.26 1673.93,-166 1588.5,-126.194 1313.39,-113.141 1184.17,-109.14"/>
<polygon fill="none" stroke="black" points="1184.1,-105.636 1174,-108.835 1183.89,-112.633 1184.1,-105.636"/>
</g>
<!-- ndCvRDT&#45;&gt;ndOrswot -->
<g id="edge21" class="edge"><title>ndCvRDT&#45;&gt;ndOrswot</title>
<path fill="none" stroke="black" stroke-dasharray="5,2" d="M1717.66,-334.653C1720.76,-333.652 1723.87,-332.752 1726.93,-332 1815.52,-310.197 2074.3,-363.286 2135.93,-296 2199.86,-226.188 2201.14,-151.617 2135.93,-83 2097.8,-42.893 1265.93,-28.4165 1040.72,-25.2245"/>
<polygon fill="none" stroke="black" points="1040.51,-21.7213 1030.46,-25.081 1040.41,-28.7206 1040.51,-21.7213"/>
</g>
<!-- ndCmRDT -->
<g id="node9" class="node"><title>ndCmRDT</title>
<g id="a_node9_18"><a xlink:href="https://github.com/rust-crdt/rust-crdt/blob/master/src/traits.rs#:~:text=trait%20CmRDT" xlink:title="&lt;TABLE&gt;">
<polygon fill="lightgreen" stroke="none" points="1524.93,-336.5 1524.93,-373.5 1600.93,-373.5 1600.93,-336.5 1524.93,-336.5"/>
<polygon fill="none" stroke="black" points="1524.93,-336.5 1524.93,-373.5 1600.93,-373.5 1600.93,-336.5 1524.93,-336.5"/>
<text text-anchor="start" x="1535.93" y="-352.3" font-family="Arial" font-weight="bold" font-size="14.00">CmRDT</text>
<polygon fill="none" stroke="black" points="1523.93,-336 1523.93,-375 1601.93,-375 1601.93,-336 1523.93,-336"/>
</a>
</g>
</g>
<!-- ndCmRDT&#45;&gt;ndMap -->
<g id="edge22" class="edge"><title>ndCmRDT&#45;&gt;ndMap</title>
<path fill="none" stroke="black" stroke-dasharray="5,2" d="M1610.07,-334.863C1613.05,-333.839 1616.02,-332.874 1618.93,-332 1695.39,-309.023 1744.44,-357.855 1794.93,-296 1808.13,-279.817 1804.66,-267.482 1794.93,-249 1764.53,-191.3 1734.38,-190.452 1673.93,-166 1468.75,-83.0159 1403.09,-105.605 1182.93,-83 754.657,-39.0276 643.583,-86.9941 214.925,-47 179.744,-43.7176 140.235,-37.6948 110.599,-32.7061"/>
<polygon fill="none" stroke="black" points="110.998,-29.2236 100.551,-30.9908 109.82,-36.1238 110.998,-29.2236"/>
</g>
<!-- ndCmRDT&#45;&gt;ndMerkleReg -->
<g id="edge23" class="edge"><title>ndCmRDT&#45;&gt;ndMerkleReg</title>
<path fill="none" stroke="black" stroke-dasharray="5,2" d="M1555.68,-331.937C1553.08,-323.842 1550.1,-314.55 1547.29,-305.792"/>
<polygon fill="none" stroke="black" points="1550.61,-304.675 1544.22,-296.223 1543.94,-306.814 1550.61,-304.675"/>
</g>
<!-- ndCmRDT&#45;&gt;ndGSet -->
<g id="edge24" class="edge"><title>ndCmRDT&#45;&gt;ndGSet</title>
<path fill="none" stroke="black" stroke-dasharray="5,2" d="M1515.79,-335.442C1512.47,-334.237 1509.15,-333.078 1505.93,-332 1451.56,-313.858 1433.26,-316.965 1375.67,-295.975"/>
<polygon fill="none" stroke="black" points="1376.67,-292.613 1366.07,-292.392 1374.22,-299.17 1376.67,-292.613"/>
</g>
<!-- ndCmRDT&#45;&gt;ndGCounter -->
<g id="edge25" class="edge"><title>ndCmRDT&#45;&gt;ndGCounter</title>
<path fill="none" stroke="black" stroke-dasharray="5,2" d="M1610.22,-335.32C1613.16,-334.183 1616.08,-333.068 1618.93,-332 1664.32,-314.956 1693.86,-335.544 1721.93,-296 1734.02,-278.966 1736.2,-264.25 1721.93,-249 1680.45,-204.696 1237.47,-217.135 1176.93,-213 1088.59,-206.968 986.527,-199.72 922.113,-195.112"/>
<polygon fill="none" stroke="black" points="922.33,-191.618 912.106,-194.395 921.83,-198.601 922.33,-191.618"/>
</g>
<!-- ndCmRDT&#45;&gt;ndLWWReg -->
<g id="edge26" class="edge"><title>ndCmRDT&#45;&gt;ndLWWReg</title>
<path fill="none" stroke="black" stroke-dasharray="5,2" d="M1590.78,-331.937C1601.96,-322.885 1614.98,-312.335 1626.86,-302.709"/>
<polygon fill="none" stroke="black" points="1629.3,-305.237 1634.87,-296.223 1624.9,-299.797 1629.3,-305.237"/>
</g>
<!-- ndCmRDT&#45;&gt;ndList -->
<g id="edge27" class="edge"><title>ndCmRDT&#45;&gt;ndList</title>
<path fill="none" stroke="black" stroke-dasharray="5,2" d="M1610.13,-335.052C1613.09,-333.981 1616.04,-332.954 1618.93,-332 1678.69,-312.226 1717.48,-345.854 1755.93,-296 1768.68,-279.459 1769.87,-264.55 1755.93,-249 1723.11,-212.412 1383.92,-196.518 1262.15,-191.961"/>
<polygon fill="none" stroke="black" points="1262.19,-188.46 1252.07,-191.591 1261.94,-195.455 1262.19,-188.46"/>
</g>
<!-- ndCmRDT&#45;&gt;ndGList -->
<g id="edge28" class="edge"><title>ndCmRDT&#45;&gt;ndGList</title>
<path fill="none" stroke="black" stroke-dasharray="5,2" d="M1523.93,-331.937C1507.39,-322.37 1487.96,-311.13 1470.59,-301.076"/>
<polygon fill="none" stroke="black" points="1472.12,-297.92 1461.71,-295.942 1468.62,-303.979 1472.12,-297.92"/>
</g>
<!-- ndCmRDT&#45;&gt;ndMVReg -->
<g id="edge29" class="edge"><title>ndCmRDT&#45;&gt;ndMVReg</title>
<path fill="none" stroke="black" stroke-dasharray="5,2" d="M1610.01,-334.659C1613,-333.686 1615.99,-332.788 1618.93,-332 1673.35,-317.391 1833.02,-338.579 1869.93,-296 1931.93,-224.466 1935.63,-151.151 1869.93,-83 1866.5,-79.4439 606.71,-36.074 324.55,-26.4034"/>
<polygon fill="none" stroke="black" points="324.27,-22.8918 314.156,-26.0472 324.03,-29.8877 324.27,-22.8918"/>
</g>
<!-- ndCmRDT&#45;&gt;ndVClock -->
<g id="edge30" class="edge"><title>ndCmRDT&#45;&gt;ndVClock</title>
<path fill="none" stroke="black" stroke-dasharray="5,2" d="M1515.68,-334.615C1512.41,-333.623 1509.14,-332.736 1505.93,-332 1365.88,-299.949 927.856,-281.216 772.363,-275.437"/>
<polygon fill="none" stroke="black" points="772.221,-271.93 762.099,-275.06 771.964,-278.925 772.221,-271.93"/>
</g>
<!-- ndCmRDT&#45;&gt;ndPNCounter -->
<g id="edge31" class="edge"><title>ndCmRDT&#45;&gt;ndPNCounter</title>
<path fill="none" stroke="black" stroke-dasharray="5,2" d="M1610.09,-334.944C1613.06,-333.9 1616.03,-332.909 1618.93,-332 1687.24,-310.59 1731.32,-351.993 1775.93,-296 1788.94,-279.662 1789.06,-265.245 1775.93,-249 1701.93,-157.461 1337.66,-122.454 1184.24,-111.623"/>
<polygon fill="none" stroke="black" points="1184.22,-108.114 1174,-110.915 1183.74,-115.097 1184.22,-108.114"/>
</g>
<!-- ndCmRDT&#45;&gt;ndOrswot -->
<g id="edge32" class="edge"><title>ndCmRDT&#45;&gt;ndOrswot</title>
<path fill="none" stroke="black" stroke-dasharray="5,2" d="M1609.98,-334.545C1612.98,-333.6 1615.98,-332.74 1618.93,-332 1689.83,-314.208 1897.14,-350.449 1945.93,-296 2009.1,-225.493 2010.8,-151.943 1945.93,-83 1914.73,-49.8533 1240.79,-30.7589 1040.55,-25.8027"/>
<polygon fill="none" stroke="black" points="1040.62,-22.3035 1030.54,-25.5569 1040.45,-29.3014 1040.62,-22.3035"/>
</g>
<!-- ndResetRemove -->
<g id="node10" class="node"><title>ndResetRemove</title>
<g id="a_node10_19"><a xlink:href="https://github.com/rust-crdt/rust-crdt/blob/master/src/traits.rs#:~:text=trait%20ResetRemove" xlink:title="&lt;TABLE&gt;">
<polygon fill="lightgreen" stroke="none" points="400.925,-336.5 400.925,-373.5 518.925,-373.5 518.925,-336.5 400.925,-336.5"/>
<polygon fill="none" stroke="black" points="400.925,-336.5 400.925,-373.5 518.925,-373.5 518.925,-336.5 400.925,-336.5"/>
<text text-anchor="start" x="411.925" y="-352.3" font-family="Arial" font-weight="bold" font-size="14.00">ResetRemove</text>
<polygon fill="none" stroke="black" points="399.925,-336 399.925,-375 519.925,-375 519.925,-336 399.925,-336"/>
</a>
</g>
</g>
<!-- ndResetRemove&#45;&gt;ndMap -->
<g id="edge33" class="edge"><title>ndResetRemove&#45;&gt;ndMap</title>
<path fill="none" stroke="black" stroke-dasharray="5,2" d="M391.561,-334.277C388.312,-333.474 385.088,-332.71 381.925,-332 284.396,-310.109 248.033,-343.202 159.925,-296 71.2162,-248.476 42.6881,-223.682 5.92513,-130 -1.70564,-110.555 -2.10975,-102.282 5.92513,-83 10.3881,-72.2899 17.8714,-62.5346 26.0363,-54.1916"/>
<polygon fill="none" stroke="black" points="28.5088,-56.6701 33.3283,-47.2349 23.6769,-51.6053 28.5088,-56.6701"/>
</g>
<!-- ndResetRemove&#45;&gt;ndGCounter -->
<g id="edge34" class="edge"><title>ndResetRemove&#45;&gt;ndGCounter</title>
<path fill="none" stroke="black" stroke-dasharray="5,2" d="M489.258,-331.928C521.877,-307.906 576.971,-270.466 629.925,-249 696.633,-221.959 720.78,-232.679 794.089,-213.031"/>
<polygon fill="none" stroke="black" points="795.076,-216.389 803.772,-210.338 793.2,-209.645 795.076,-216.389"/>
</g>
<!-- ndResetRemove&#45;&gt;ndMVReg -->
<g id="edge35" class="edge"><title>ndResetRemove&#45;&gt;ndMVReg</title>
<path fill="none" stroke="black" stroke-dasharray="5,2" d="M391.827,-333.935C349.89,-320.967 300.367,-305.021 279.925,-296 211.637,-265.866 171.461,-277.517 133.925,-213 99.1224,-153.181 171.957,-88.6894 223.549,-52.7819"/>
<polygon fill="none" stroke="black" points="225.655,-55.5819 231.946,-47.0565 221.712,-49.7984 225.655,-55.5819"/>
</g>
<!-- ndResetRemove&#45;&gt;ndVClock -->
<g id="edge36" class="edge"><title>ndResetRemove&#45;&gt;ndVClock</title>
<path fill="none" stroke="black" stroke-dasharray="5,2" d="M528.122,-333.006C569.934,-319.828 622.762,-303.178 661.897,-290.843"/>
<polygon fill="none" stroke="black" points="663.051,-294.149 671.537,-287.805 660.947,-287.473 663.051,-294.149"/>
</g>
<!-- ndResetRemove&#45;&gt;ndPNCounter -->
<g id="edge37" class="edge"><title>ndResetRemove&#45;&gt;ndPNCounter</title>
<path fill="none" stroke="black" stroke-dasharray="5,2" d="M459.581,-331.887C460.316,-291.467 468.236,-207.206 518.925,-166 559.246,-133.222 899.565,-115.996 1047.6,-109.995"/>
<polygon fill="none" stroke="black" points="1048.07,-113.48 1057.92,-109.583 1047.79,-106.485 1048.07,-113.48"/>
</g>
<!-- ndResetRemove&#45;&gt;ndOrswot -->
<g id="edge38" class="edge"><title>ndResetRemove&#45;&gt;ndOrswot</title>
<path fill="none" stroke="black" stroke-dasharray="5,2" d="M454.755,-331.867C447.235,-292.543 438.43,-211.467 480.925,-166 542.507,-100.112 811.52,-51.3396 929.328,-32.7449"/>
<polygon fill="none" stroke="black" points="929.895,-36.1989 939.235,-31.1963 928.814,-29.2829 929.895,-36.1989"/>
</g>
<!-- ndReadCtx -->
<g id="node11" class="node"><title>ndReadCtx</title>
<g id="a_node11_20"><a xlink:href="https://github.com/rust-crdt/rust-crdt/blob/master/src/ctx.rs#:~:text=struct%20ReadCtx" xlink:title="&lt;TABLE&gt;">
<polygon fill="lightblue" stroke="none" points="351.925,-87.5 351.925,-124.5 432.925,-124.5 432.925,-87.5 351.925,-87.5"/>
<polygon fill="none" stroke="black" points="351.925,-87.5 351.925,-124.5 432.925,-124.5 432.925,-87.5 351.925,-87.5"/>
<text text-anchor="start" x="362.925" y="-103.3" font-family="Arial" font-weight="bold" font-size="14.00">ReadCtx</text>
<polygon fill="none" stroke="black" points="350.425,-87 350.425,-126 433.425,-126 433.425,-87 350.425,-87"/>
</a>
</g>
</g>
<!-- ndReadCtx&#45;&gt;ndMap -->
<g id="edge39" class="edge"><title>ndReadCtx&#45;&gt;ndMap</title>
<path fill="none" stroke="black" d="M342.261,-93.1978C279.302,-77.6025 171.636,-50.9329 110.625,-35.8201"/>
<polygon fill="black" stroke="black" points="100.885,-33.4074 111.673,-31.4439 105.738,-34.6096 110.591,-35.8119 110.591,-35.8119 110.591,-35.8119 105.738,-34.6096 109.509,-40.1799 100.885,-33.4074 100.885,-33.4074"/>
</g>
<!-- ndReadCtx&#45;&gt;ndMVReg -->
<g id="edge40" class="edge"><title>ndReadCtx&#45;&gt;ndMVReg</title>
<path fill="none" stroke="black" d="M357.663,-82.937C343.521,-73.6238 326.97,-62.7248 312.019,-52.8786"/>
<polygon fill="black" stroke="black" points="303.43,-47.2229 314.257,-48.9646 307.606,-49.9729 311.782,-52.7229 311.782,-52.7229 311.782,-52.7229 307.606,-49.9729 309.307,-56.4812 303.43,-47.2229 303.43,-47.2229"/>
</g>
<!-- ndReadCtx&#45;&gt;ndOrswot -->
<g id="edge41" class="edge"><title>ndReadCtx&#45;&gt;ndOrswot</title>
<path fill="none" stroke="black" d="M441.564,-86.8173C446.375,-85.3796 451.217,-84.0731 455.925,-83 625.641,-44.3165 832.04,-30.8869 929.229,-26.4914"/>
<polygon fill="black" stroke="black" points="939.411,-26.0462 929.617,-30.9789 934.416,-26.2647 929.42,-26.4832 929.42,-26.4832 929.42,-26.4832 934.416,-26.2647 929.224,-21.9875 939.411,-26.0462 939.411,-26.0462"/>
</g>
<!-- ndAddCtx -->
<g id="node12" class="node"><title>ndAddCtx</title>
<g id="a_node12_21"><a xlink:href="https://github.com/rust-crdt/rust-crdt/blob/master/src/ctx.rs#:~:text=struct%20AddCtx" xlink:title="&lt;TABLE&gt;">
<polygon fill="lightblue" stroke="none" points="274.925,-170.5 274.925,-207.5 348.925,-207.5 348.925,-170.5 274.925,-170.5"/>
<polygon fill="none" stroke="black" points="274.925,-170.5 274.925,-207.5 348.925,-207.5 348.925,-170.5 274.925,-170.5"/>
<text text-anchor="start" x="285.925" y="-186.3" font-family="Arial" font-weight="bold" font-size="14.00">AddCtx</text>
<polygon fill="none" stroke="black" points="273.925,-170 273.925,-209 349.925,-209 349.925,-170 273.925,-170"/>
</a>
</g>
</g>
<!-- ndAddCtx&#45;&gt;ndReadCtx -->
<g id="edge42" class="edge"><title>ndAddCtx&#45;&gt;ndReadCtx</title>
<path fill="none" stroke="black" d="M334.21,-165.937C342.892,-157.146 352.97,-146.942 362.252,-137.544"/>
<polygon fill="black" stroke="black" points="369.483,-130.223 365.657,-140.5 365.969,-133.78 362.456,-137.338 362.456,-137.338 362.456,-137.338 365.969,-133.78 359.254,-134.176 369.483,-130.223 369.483,-130.223"/>
</g>
<!-- ndRmCtx -->
<g id="node13" class="node"><title>ndRmCtx</title>
<g id="a_node13_22"><a xlink:href="https://github.com/rust-crdt/rust-crdt/blob/master/src/ctx.rs#:~:text=struct%20RmCtx" xlink:title="&lt;TABLE&gt;">
<polygon fill="lightblue" stroke="none" points="536.925,-170.5 536.925,-207.5 604.925,-207.5 604.925,-170.5 536.925,-170.5"/>
<polygon fill="none" stroke="black" points="536.925,-170.5 536.925,-207.5 604.925,-207.5 604.925,-170.5 536.925,-170.5"/>
<text text-anchor="start" x="547.925" y="-186.3" font-family="Arial" font-weight="bold" font-size="14.00">RmCtx</text>
<polygon fill="none" stroke="black" points="535.925,-170 535.925,-209 605.925,-209 605.925,-170 535.925,-170"/>
</a>
</g>
</g>
<!-- ndRmCtx&#45;&gt;ndReadCtx -->
<g id="edge43" class="edge"><title>ndRmCtx&#45;&gt;ndReadCtx</title>
<path fill="none" stroke="black" d="M527.594,-168.892C504.566,-158.471 475.922,-145.51 450.896,-134.185"/>
<polygon fill="black" stroke="black" points="441.501,-129.934 452.467,-129.957 446.056,-131.995 450.611,-134.056 450.611,-134.056 450.611,-134.056 446.056,-131.995 448.756,-138.156 441.501,-129.934 441.501,-129.934"/>
</g>
<!-- ndNode -->
<g id="node14" class="node"><title>ndNode</title>
<g id="a_node14_23"><a xlink:href="https://github.com/rust-crdt/rust-crdt/blob/master/src/merkle_reg.rs#:~:text=struct%20Node" xlink:title="&lt;TABLE&gt;">
<polygon fill="lightblue" stroke="none" points="1316.93,-336.5 1316.93,-373.5 1375.93,-373.5 1375.93,-336.5 1316.93,-336.5"/>
<polygon fill="none" stroke="black" points="1316.93,-336.5 1316.93,-373.5 1375.93,-373.5 1375.93,-336.5 1316.93,-336.5"/>
<text text-anchor="start" x="1327.93" y="-352.3" font-family="Arial" font-weight="bold" font-size="14.00">Node</text>
<polygon fill="none" stroke="black" points="1315.43,-336 1315.43,-375 1376.43,-375 1376.43,-336 1315.43,-336"/>
</a>
</g>
</g>
<!-- ndNode&#45;&gt;ndMerkleReg -->
<g id="edge44" class="edge"><title>ndNode&#45;&gt;ndMerkleReg</title>
<path fill="none" stroke="black" d="M1384.57,-335.773C1387.39,-334.477 1390.19,-333.207 1392.93,-332 1417.76,-321.021 1445.33,-309.633 1469.64,-299.855"/>
<polygon fill="black" stroke="black" points="1479.13,-296.051 1471.52,-303.947 1474.49,-297.91 1469.85,-299.77 1469.85,-299.77 1469.85,-299.77 1474.49,-297.91 1468.17,-295.593 1479.13,-296.051 1479.13,-296.051"/>
</g>
<!-- ndContent -->
<g id="node15" class="node"><title>ndContent</title>
<g id="a_node15_24"><a xlink:href="https://github.com/rust-crdt/rust-crdt/blob/master/src/merkle_reg.rs#:~:text=struct%20Content" xlink:title="&lt;TABLE&gt;">
<polygon fill="lightblue" stroke="none" points="1411.93,-336.5 1411.93,-373.5 1488.93,-373.5 1488.93,-336.5 1411.93,-336.5"/>
<polygon fill="none" stroke="black" points="1411.93,-336.5 1411.93,-373.5 1488.93,-373.5 1488.93,-336.5 1411.93,-336.5"/>
<text text-anchor="start" x="1422.93" y="-352.3" font-family="Arial" font-weight="bold" font-size="14.00">Content</text>
<polygon fill="none" stroke="black" points="1410.43,-336 1410.43,-375 1489.43,-375 1489.43,-336 1410.43,-336"/>
</a>
</g>
</g>
<!-- ndContent&#45;&gt;ndMerkleReg -->
<g id="edge45" class="edge"><title>ndContent&#45;&gt;ndMerkleReg</title>
<path fill="none" stroke="black" d="M1474.16,-331.937C1483.7,-323.059 1494.78,-312.74 1504.95,-303.266"/>
<polygon fill="black" stroke="black" points="1512.52,-296.223 1508.27,-306.331 1508.86,-299.63 1505.2,-303.037 1505.2,-303.037 1505.2,-303.037 1508.86,-299.63 1502.13,-299.744 1512.52,-296.223 1512.52,-296.223"/>
</g>
<!-- ndValidationError -->
<g id="node17" class="node"><title>ndValidationError</title>
<g id="a_node17_25"><a xlink:href="https://github.com/rust-crdt/rust-crdt/blob/master/src/merkle_reg.rs#:~:text=enum%20ValidationError" xlink:title="&lt;TABLE&gt;">
<polygon fill="yellow" stroke="none" points="2353.93,-419.5 2353.93,-456.5 2481.93,-456.5 2481.93,-419.5 2353.93,-419.5"/>
<polygon fill="none" stroke="black" points="2353.93,-419.5 2353.93,-456.5 2481.93,-456.5 2481.93,-419.5 2353.93,-419.5"/>
<text text-anchor="start" x="2364.93" y="-435.3" font-family="Arial" font-weight="bold" font-size="14.00">ValidationError</text>
<polygon fill="none" stroke="black" points="2352.93,-419 2352.93,-458 2482.93,-458 2482.93,-419 2352.93,-419"/>
</a>
</g>
</g>
<!-- ndSha3Hash -->
<g id="node18" class="node"><title>ndSha3Hash</title>
<g id="a_node18_26"><a xlink:href="https://github.com/rust-crdt/rust-crdt/blob/master/src/merkle_reg.rs#:~:text=trait%20Sha3Hash" xlink:title="&lt;TABLE&gt;">
<polygon fill="lightgreen" stroke="none" points="2518.93,-419.5 2518.93,-456.5 2611.93,-456.5 2611.93,-419.5 2518.93,-419.5"/>
<polygon fill="none" stroke="black" points="2518.93,-419.5 2518.93,-456.5 2611.93,-456.5 2611.93,-419.5 2518.93,-419.5"/>
<text text-anchor="start" x="2529.93" y="-435.3" font-family="Arial" font-weight="bold" font-size="14.00">Sha3Hash</text>
<polygon fill="none" stroke="black" points="2517.43,-419 2517.43,-458 2612.43,-458 2612.43,-419 2517.43,-419"/>
</a>
</g>
</g>
<!-- ndGCounter&#45;&gt;ndPNCounter -->
<g id="edge46" class="edge"><title>ndGCounter&#45;&gt;ndPNCounter</title>
<path fill="none" stroke="black" d="M912.01,-171.52C951.044,-159.265 1004.08,-142.614 1046.28,-129.365"/>
<polygon fill="black" stroke="black" points="1046.43,-129.319 1050.95,-123.706 1057.88,-125.725 1053.35,-131.339 1046.43,-129.319"/>
</g>
<!-- ndDot -->
<g id="node21" class="node"><title>ndDot</title>
<g id="a_node21_27"><a xlink:href="https://github.com/rust-crdt/rust-crdt/blob/master/src/dot.rs#:~:text=struct%20Dot" xlink:title="&lt;TABLE&gt;">
<polygon fill="lightblue" stroke="none" points="816.925,-419.5 816.925,-456.5 863.925,-456.5 863.925,-419.5 816.925,-419.5"/>
<polygon fill="none" stroke="black" points="816.925,-419.5 816.925,-456.5 863.925,-456.5 863.925,-419.5 816.925,-419.5"/>
<text text-anchor="start" x="827.925" y="-435.3" font-family="Arial" font-weight="bold" font-size="14.00">Dot</text>
<polygon fill="none" stroke="black" points="815.425,-419 815.425,-458 864.425,-458 864.425,-419 815.425,-419"/>
</a>
</g>
</g>
<!-- ndDot&#45;&gt;ndOp -->
<g id="edge47" class="edge"><title>ndDot&#45;&gt;ndOp</title>
<path fill="none" stroke="black" d="M872.59,-423.576C918.429,-407.368 1000.55,-380.994 1050.26,-366.622"/>
<polygon fill="black" stroke="black" points="1060.05,-363.829 1051.67,-370.899 1055.25,-365.201 1050.44,-366.572 1050.44,-366.572 1050.44,-366.572 1055.25,-365.201 1049.2,-362.244 1060.05,-363.829 1060.05,-363.829"/>
</g>
<!-- ndDot&#45;&gt;ndOp -->
<g id="edge51" class="edge"><title>ndDot&#45;&gt;ndOp</title>
<path fill="none" stroke="black" d="M872.482,-426.994C918.149,-412.256 1001.17,-385.465 1050.66,-369.493"/>
<polygon fill="black" stroke="black" points="1060.39,-366.354 1052.26,-373.707 1055.63,-367.889 1050.87,-369.425 1050.87,-369.425 1050.87,-369.425 1055.63,-367.889 1049.49,-365.142 1060.39,-366.354 1060.39,-366.354"/>
</g>
<!-- ndDot&#45;&gt;ndOp -->
<g id="edge54" class="edge"><title>ndDot&#45;&gt;ndOp</title>
<path fill="none" stroke="black" d="M872.61,-429.66C918.135,-416.795 999.298,-390.912 1049.07,-373.641"/>
<polygon fill="black" stroke="black" points="1049.08,-373.638 1053.42,-367.877 1060.4,-369.664 1056.07,-375.426 1049.08,-373.638"/>
</g>
<!-- ndDot&#45;&gt;ndAddCtx -->
<g id="edge48" class="edge"><title>ndDot&#45;&gt;ndAddCtx</title>
<path fill="none" stroke="black" d="M806.998,-418.232C803.995,-416.977 800.946,-415.87 797.925,-415 741.949,-398.888 314.674,-421.579 274.925,-379 235.441,-336.704 266.469,-265.159 290.57,-223.437"/>
<polygon fill="black" stroke="black" points="290.648,-223.306 290.297,-216.103 296.81,-213.008 297.162,-220.211 290.648,-223.306"/>
</g>
<!-- ndDot&#45;&gt;ndGCounter -->
<g id="edge49" class="edge"><title>ndDot&#45;&gt;ndGCounter</title>
<path fill="none" stroke="black" d="M807.085,-416.509C760.132,-385.684 677.816,-328.341 662.925,-296 654.189,-277.026 650.246,-265.601 662.925,-249 697.962,-203.128 733.15,-228.339 793.767,-212.987"/>
<polygon fill="black" stroke="black" points="803.718,-210.158 795.33,-217.221 798.909,-211.525 794.1,-212.892 794.1,-212.892 794.1,-212.892 798.909,-211.525 792.869,-208.564 803.718,-210.158 803.718,-210.158"/>
</g>
<!-- ndCausalityBarrier -->
<g id="node26" class="node"><title>ndCausalityBarrier</title>
<g id="a_node26_28"><a xlink:href="https://github.com/rust-crdt/rust-crdt/blob/master/src/vvwe.rs#:~:text=struct%20CausalityBarrier" xlink:title="&lt;TABLE&gt;">
<polygon fill="lightblue" stroke="none" points="1744.93,-336.5 1744.93,-373.5 1880.93,-373.5 1880.93,-336.5 1744.93,-336.5"/>
<polygon fill="none" stroke="black" points="1744.93,-336.5 1744.93,-373.5 1880.93,-373.5 1880.93,-336.5 1744.93,-336.5"/>
<text text-anchor="start" x="1755.93" y="-352.3" font-family="Arial" font-weight="bold" font-size="14.00">CausalityBarrier</text>
<polygon fill="none" stroke="black" points="1743.93,-336 1743.93,-375 1881.93,-375 1881.93,-336 1743.93,-336"/>
</a>
</g>
</g>
<!-- ndDot&#45;&gt;ndCausalityBarrier -->
<g id="edge50" class="edge"><title>ndDot&#45;&gt;ndCausalityBarrier</title>
<path fill="none" stroke="black" d="M872.501,-432.184C905.525,-426.995 958.142,-419.274 1003.93,-415 1319.92,-385.502 1406.22,-426.45 1723.89,-379.117"/>
<polygon fill="black" stroke="black" points="1723.91,-379.114 1729.24,-374.262 1735.77,-377.321 1730.44,-382.173 1723.91,-379.114"/>
</g>
<!-- ndDot&#45;&gt;ndVClock -->
<g id="edge52" class="edge"><title>ndDot&#45;&gt;ndVClock</title>
<path fill="none" stroke="black" d="M822.823,-414.697C801.251,-385.934 764.074,-336.366 740.002,-304.269"/>
<polygon fill="black" stroke="black" points="733.882,-296.11 743.483,-301.41 736.883,-300.11 739.883,-304.11 739.883,-304.11 739.883,-304.11 736.883,-300.11 736.283,-306.81 733.882,-296.11 733.882,-296.11"/>
</g>
<!-- ndIntoIter -->
<g id="node33" class="node"><title>ndIntoIter</title>
<g id="a_node33_29"><a xlink:href="https://github.com/rust-crdt/rust-crdt/blob/master/src/vclock.rs#:~:text=struct%20IntoIter" xlink:title="&lt;TABLE&gt;">
<polygon fill="lightblue" stroke="none" points="293.925,-336.5 293.925,-373.5 364.925,-373.5 364.925,-336.5 293.925,-336.5"/>
<polygon fill="none" stroke="black" points="293.925,-336.5 293.925,-373.5 364.925,-373.5 364.925,-336.5 293.925,-336.5"/>
<text text-anchor="start" x="304.925" y="-352.3" font-family="Arial" font-weight="bold" font-size="14.00">IntoIter</text>
<polygon fill="none" stroke="black" points="292.425,-336 292.425,-375 365.425,-375 365.425,-336 292.425,-336"/>
</a>
</g>
</g>
<!-- ndDot&#45;&gt;ndIntoIter -->
<g id="edge53" class="edge"><title>ndDot&#45;&gt;ndIntoIter</title>
<path fill="none" stroke="black" d="M806.981,-418.29C803.982,-417.022 800.938,-415.896 797.925,-415 623.594,-363.135 564.794,-421.02 383.506,-378.719"/>
<polygon fill="black" stroke="black" points="373.655,-376.351 384.43,-374.313 378.517,-377.52 383.378,-378.689 383.378,-378.689 383.378,-378.689 378.517,-377.52 382.326,-383.064 373.655,-376.351 373.655,-376.351"/>
</g>
<!-- ndOrdDot -->
<g id="node22" class="node"><title>ndOrdDot</title>
<g id="a_node22_30"><a xlink:href="https://github.com/rust-crdt/rust-crdt/blob/master/src/dot.rs#:~:text=struct%20OrdDot" xlink:title="&lt;TABLE&gt;">
<polygon fill="lightblue" stroke="none" points="1101.93,-419.5 1101.93,-456.5 1174.93,-456.5 1174.93,-419.5 1101.93,-419.5"/>
<polygon fill="none" stroke="black" points="1101.93,-419.5 1101.93,-456.5 1174.93,-456.5 1174.93,-419.5 1101.93,-419.5"/>
<text text-anchor="start" x="1112.93" y="-435.3" font-family="Arial" font-weight="bold" font-size="14.00">OrdDot</text>
<polygon fill="none" stroke="black" points="1100.43,-419 1100.43,-458 1175.43,-458 1175.43,-419 1100.43,-419"/>
</a>
</g>
</g>
<!-- ndOrdDot&#45;&gt;ndOp -->
<g id="edge55" class="edge"><title>ndOrdDot&#45;&gt;ndOp</title>
<path fill="none" stroke="black" d="M1118.71,-414.937C1113.29,-406.668 1107.61,-397.149 1102.73,-388.227"/>
<polygon fill="black" stroke="black" points="1097.97,-379.223 1106.62,-385.966 1100.31,-383.645 1102.64,-388.067 1102.64,-388.067 1102.64,-388.067 1100.31,-383.645 1098.66,-390.167 1097.97,-379.223 1097.97,-379.223"/>
</g>
<!-- ndOrdDot&#45;&gt;ndOp -->
<g id="edge57" class="edge"><title>ndOrdDot&#45;&gt;ndOp</title>
<path fill="none" stroke="black" d="M1130.96,-414.937C1126.73,-406.581 1121.3,-396.949 1115.77,-387.946"/>
<polygon fill="black" stroke="black" points="1110.25,-379.223 1119.4,-385.264 1112.92,-383.447 1115.6,-387.671 1115.6,-387.671 1115.6,-387.671 1112.92,-383.447 1111.79,-390.079 1110.25,-379.223 1110.25,-379.223"/>
</g>
<!-- ndOrdDot&#45;&gt;ndList -->
<g id="edge56" class="edge"><title>ndOrdDot&#45;&gt;ndList</title>
<path fill="none" stroke="black" d="M1183.64,-436.204C1361.23,-430.95 1996.87,-410.033 2025.93,-379 2134.97,-262.531 1449.34,-206.385 1264.15,-193.459"/>
<polygon fill="black" stroke="black" points="1263.92,-193.443 1257.65,-197.022 1251.94,-192.62 1258.2,-189.041 1263.92,-193.443"/>
</g>
<!-- ndDotRange -->
<g id="node23" class="node"><title>ndDotRange</title>
<g id="a_node23_31"><a xlink:href="https://github.com/rust-crdt/rust-crdt/blob/master/src/dot.rs#:~:text=struct%20DotRange" xlink:title="&lt;TABLE&gt;">
<polygon fill="lightblue" stroke="none" points="2647.93,-419.5 2647.93,-456.5 2738.93,-456.5 2738.93,-419.5 2647.93,-419.5"/>
<polygon fill="none" stroke="black" points="2647.93,-419.5 2647.93,-456.5 2738.93,-456.5 2738.93,-419.5 2647.93,-419.5"/>
<text text-anchor="start" x="2658.93" y="-435.3" font-family="Arial" font-weight="bold" font-size="14.00">DotRange</text>
<polygon fill="none" stroke="black" points="2646.43,-419 2646.43,-458 2739.43,-458 2739.43,-419 2646.43,-419"/>
</a>
</g>
</g>
<!-- ndValidation -->
<g id="node25" class="node"><title>ndValidation</title>
<g id="a_node25_32"><a xlink:href="https://github.com/rust-crdt/rust-crdt/blob/master/src/orswot.rs#:~:text=enum%20Validation" xlink:title="&lt;TABLE&gt;">
<polygon fill="yellow" stroke="none" points="1917.93,-336.5 1917.93,-373.5 2008.93,-373.5 2008.93,-336.5 1917.93,-336.5"/>
<polygon fill="none" stroke="black" points="1917.93,-336.5 1917.93,-373.5 2008.93,-373.5 2008.93,-336.5 1917.93,-336.5"/>
<text text-anchor="start" x="1928.93" y="-352.3" font-family="Arial" font-weight="bold" font-size="14.00">Validation</text>
<polygon fill="none" stroke="black" points="1916.43,-336 1916.43,-375 2009.43,-375 2009.43,-336 1916.43,-336"/>
</a>
</g>
</g>
<!-- ndValidation&#45;&gt;ndLWWReg -->
<g id="edge58" class="edge"><title>ndValidation&#45;&gt;ndLWWReg</title>
<path fill="none" stroke="black" d="M1908.38,-337.867C1902.15,-335.8 1895.91,-333.788 1889.93,-332 1833.97,-315.271 1769.57,-299.538 1723.61,-288.611"/>
<polygon fill="black" stroke="black" points="1713.81,-286.284 1724.57,-284.214 1718.67,-287.438 1723.54,-288.592 1723.54,-288.592 1723.54,-288.592 1718.67,-287.438 1722.5,-292.971 1713.81,-286.284 1713.81,-286.284"/>
</g>
<!-- ndValidation&#45;&gt;ndLWWReg -->
<g id="edge125" class="edge"><title>ndValidation&#45;&gt;ndLWWReg</title>
<path fill="none" stroke="black" d="M1908.26,-332.101C1908.15,-332.068 1908.04,-332.034 1907.93,-332 1846.06,-313.504 1773.87,-296.226 1723.86,-285.313"/>
<polygon fill="black" stroke="black" points="1713.85,-283.15 1724.57,-280.864 1718.74,-284.206 1723.62,-285.262 1723.62,-285.262 1723.62,-285.262 1718.74,-284.206 1722.67,-289.661 1713.85,-283.15 1713.85,-283.15"/>
</g>
<!-- ndVectorEntry -->
<g id="node27" class="node"><title>ndVectorEntry</title>
<g id="a_node27_33"><a xlink:href="https://github.com/rust-crdt/rust-crdt/blob/master/src/vvwe.rs#:~:text=struct%20VectorEntry" xlink:title="&lt;TABLE&gt;">
<polygon fill="lightblue" stroke="none" points="1760.93,-419.5 1760.93,-456.5 1865.93,-456.5 1865.93,-419.5 1760.93,-419.5"/>
<polygon fill="none" stroke="black" points="1760.93,-419.5 1760.93,-456.5 1865.93,-456.5 1865.93,-419.5 1760.93,-419.5"/>
<text text-anchor="start" x="1771.93" y="-435.3" font-family="Arial" font-weight="bold" font-size="14.00">VectorEntry</text>
<polygon fill="none" stroke="black" points="1759.43,-419 1759.43,-458 1866.43,-458 1866.43,-419 1759.43,-419"/>
</a>
</g>
</g>
<!-- ndVectorEntry&#45;&gt;ndCausalityBarrier -->
<g id="edge59" class="edge"><title>ndVectorEntry&#45;&gt;ndCausalityBarrier</title>
<path fill="none" stroke="black" d="M1812.93,-414.937C1812.93,-407.016 1812.93,-397.949 1812.93,-389.357"/>
<polygon fill="black" stroke="black" points="1812.93,-379.223 1817.43,-389.223 1812.93,-384.223 1812.93,-389.223 1812.93,-389.223 1812.93,-389.223 1812.93,-384.223 1808.43,-389.223 1812.93,-379.223 1812.93,-379.223"/>
</g>
<!-- ndCausalOp -->
<g id="node28" class="node"><title>ndCausalOp</title>
<g id="a_node28_34"><a xlink:href="https://github.com/rust-crdt/rust-crdt/blob/master/src/vvwe.rs#:~:text=trait%20CausalOp" xlink:title="&lt;TABLE&gt;">
<polygon fill="lightgreen" stroke="none" points="2774.93,-419.5 2774.93,-456.5 2865.93,-456.5 2865.93,-419.5 2774.93,-419.5"/>
<polygon fill="none" stroke="black" points="2774.93,-419.5 2774.93,-456.5 2865.93,-456.5 2865.93,-419.5 2774.93,-419.5"/>
<text text-anchor="start" x="2785.93" y="-435.3" font-family="Arial" font-weight="bold" font-size="14.00">CausalOp</text>
<polygon fill="none" stroke="black" points="2773.43,-419 2773.43,-458 2866.43,-458 2866.43,-419 2773.43,-419"/>
</a>
</g>
</g>
<!-- ndVClock&#45;&gt;ndMap -->
<g id="edge93" class="edge"><title>ndVClock&#45;&gt;ndMap</title>
<path fill="none" stroke="black" d="M671.766,-263.235C622.777,-253.649 542.632,-236.153 475.925,-213 439.016,-200.189 210.965,-93.3105 111.375,-46.4142"/>
<polygon fill="black" stroke="black" points="111.307,-46.3822 104.174,-47.4438 100.451,-41.2682 107.583,-40.2066 111.307,-46.3822"/>
</g>
<!-- ndVClock&#45;&gt;ndEntry -->
<g id="edge94" class="edge"><title>ndVClock&#45;&gt;ndEntry</title>
<path fill="none" stroke="black" d="M725.282,-248.937C728.086,-241.365 731.279,-232.744 734.335,-224.493"/>
<polygon fill="black" stroke="black" points="734.341,-224.476 732.674,-217.46 738.509,-213.223 740.176,-220.239 734.341,-224.476"/>
</g>
<!-- ndVClock&#45;&gt;ndReadCtx -->
<g id="edge95" class="edge"><title>ndVClock&#45;&gt;ndReadCtx</title>
<path fill="none" stroke="black" d="M671.598,-265.26C629.496,-257.874 566.344,-242.633 518.925,-213 494.916,-197.996 497.228,-184.649 475.925,-166 464.214,-155.747 450.683,-145.663 437.949,-136.831"/>
<polygon fill="black" stroke="black" points="437.882,-136.785 430.671,-136.719 427.958,-130.037 435.169,-130.103 437.882,-136.785"/>
</g>
<!-- ndVClock&#45;&gt;ndAddCtx -->
<g id="edge96" class="edge"><title>ndVClock&#45;&gt;ndAddCtx</title>
<path fill="none" stroke="black" d="M671.645,-262.444C597.824,-247.68 451.617,-218.438 370.168,-202.149"/>
<polygon fill="black" stroke="black" points="369.923,-202.1 363.255,-204.845 358.156,-199.746 364.824,-197.001 369.923,-202.1"/>
</g>
<!-- ndVClock&#45;&gt;ndRmCtx -->
<g id="edge97" class="edge"><title>ndVClock&#45;&gt;ndRmCtx</title>
<path fill="none" stroke="black" d="M676.256,-248.937C659.556,-239.672 640.028,-228.838 622.353,-219.032"/>
<polygon fill="black" stroke="black" points="622.122,-218.904 614.935,-219.491 611.629,-213.082 618.816,-212.495 622.122,-218.904"/>
</g>
<!-- ndVClock&#45;&gt;ndGCounter -->
<g id="edge98" class="edge"><title>ndVClock&#45;&gt;ndGCounter</title>
<path fill="none" stroke="black" d="M756.201,-248.937C772.11,-239.798 790.677,-229.132 807.562,-219.432"/>
<polygon fill="black" stroke="black" points="807.965,-219.2 811.175,-212.743 818.37,-213.223 815.16,-219.68 807.965,-219.2"/>
</g>
<!-- ndVClock&#45;&gt;ndList -->
<g id="edge99" class="edge"><title>ndVClock&#45;&gt;ndList</title>
<path fill="none" stroke="black" d="M762.36,-264.169C857.87,-248.758 1078.49,-213.16 1173.76,-197.787"/>
<polygon fill="black" stroke="black" points="1173.97,-197.754 1179.25,-192.85 1185.81,-195.843 1180.53,-200.747 1173.97,-197.754"/>
</g>
<!-- ndVClock&#45;&gt;ndMVReg -->
<g id="edge100" class="edge"><title>ndVClock&#45;&gt;ndMVReg</title>
<path fill="none" stroke="black" d="M701.055,-248.939C683.887,-225.797 654.679,-189.897 622.925,-166 530.751,-96.6311 399.992,-56.1287 325.917,-37.3416"/>
<polygon fill="black" stroke="black" points="325.735,-37.2966 318.948,-39.7327 314.089,-34.4047 320.876,-31.9685 325.735,-37.2966"/>
</g>
<!-- ndVClock&#45;&gt;ndOrswot -->
<g id="edge101" class="edge"><title>ndVClock&#45;&gt;ndOrswot</title>
<path fill="none" stroke="black" d="M704.614,-248.774C694.194,-226.153 683.243,-191.256 698.925,-166 748.823,-85.6415 859.391,-49.5299 927.499,-34.3901"/>
<polygon fill="black" stroke="black" points="927.548,-34.3799 932.585,-29.2198 939.286,-31.8849 934.248,-37.045 927.548,-34.3799"/>
</g>
<!-- ndDir -->
<g id="node35" class="node"><title>ndDir</title>
<g id="a_node35_35"><a xlink:href="https://github.com/rust-crdt/rust-crdt/blob/master/src/pncounter.rs#:~:text=enum%20Dir" xlink:title="&lt;TABLE&gt;">
<polygon fill="yellow" stroke="none" points="1022.93,-419.5 1022.93,-456.5 1065.93,-456.5 1065.93,-419.5 1022.93,-419.5"/>
<polygon fill="none" stroke="black" points="1022.93,-419.5 1022.93,-456.5 1065.93,-456.5 1065.93,-419.5 1022.93,-419.5"/>
<text text-anchor="start" x="1033.93" y="-435.3" font-family="Arial" font-weight="bold" font-size="14.00">Dir</text>
<polygon fill="none" stroke="black" points="1021.43,-419 1021.43,-458 1066.43,-458 1066.43,-419 1021.43,-419"/>
</a>
</g>
</g>
<!-- ndDir&#45;&gt;ndOp -->
<g id="edge102" class="edge"><title>ndDir&#45;&gt;ndOp</title>
<path fill="none" stroke="black" d="M1057.02,-414.937C1061.56,-407.103 1066.76,-398.148 1071.7,-389.641"/>
<polygon fill="black" stroke="black" points="1071.72,-389.602 1071.27,-382.405 1077.74,-379.223 1078.19,-386.42 1071.72,-389.602"/>
</g>
</g>
</svg>
