<?xml version="1.0" encoding="UTF-8" standalone="no"?>
<!DOCTYPE svg PUBLIC "-//W3C//DTD SVG 1.1//EN"
 "http://www.w3.org/Graphics/SVG/1.1/DTD/svg11.dtd">
<!-- Generated by graphviz version 2.38.0 (20140413.2041)
 -->
<!-- Title: ml Pages: 1 -->
<svg width="4029pt" height="827pt"
 viewBox="0.00 0.00 4029.00 827.00" xmlns="http://www.w3.org/2000/svg" xmlns:xlink="http://www.w3.org/1999/xlink">
<g id="graph0" class="graph" transform="scale(1 1) rotate(0) translate(4 823)">
<title>ml</title>
<polygon fill="white" stroke="none" points="-4,4 -4,-823 4025,-823 4025,4 -4,4"/>
<!-- ndVal -->
<g id="node1" class="node"><title>ndVal</title>
<g id="a_node1_0"><a xlink:href="https://github.com/rust-crdt/rust-crdt/blob/master/src/map.rs#:~:text=trait%20Val" xlink:title="&lt;TABLE&gt;">
<polygon fill="lightgreen" stroke="none" points="1046.5,-750.5 1046.5,-787.5 1090.5,-787.5 1090.5,-750.5 1046.5,-750.5"/>
<polygon fill="none" stroke="black" points="1046.5,-750.5 1046.5,-787.5 1090.5,-787.5 1090.5,-750.5 1046.5,-750.5"/>
<text text-anchor="start" x="1057.5" y="-766.3" font-family="Arial" font-weight="bold" font-size="14.00">Val</text>
<polygon fill="none" stroke="black" points="1045.5,-750 1045.5,-789 1091.5,-789 1091.5,-750 1045.5,-750"/>
</a>
</g>
</g>
<!-- ndMap -->
<g id="node2" class="node"><title>ndMap</title>
<g id="a_node2_1"><a xlink:href="https://github.com/rust-crdt/rust-crdt/blob/master/src/map.rs#:~:text=struct%20Map" xlink:title="&lt;TABLE&gt;">
<polygon fill="lightblue" stroke="none" points="9.5,-72 9.5,-109 344.5,-109 344.5,-72 9.5,-72"/>
<polygon fill="none" stroke="black" points="9.5,-72 9.5,-109 344.5,-109 344.5,-72 9.5,-72"/>
<text text-anchor="start" x="161.5" y="-87.8" font-family="Arial" font-weight="bold" font-size="14.00">Map</text>
<polygon fill="white" stroke="none" points="9.5,-5 9.5,-72 344.5,-72 344.5,-5 9.5,-5"/>
<polygon fill="none" stroke="black" points="9.5,-5 9.5,-72 344.5,-72 344.5,-5 9.5,-5"/>
<text text-anchor="start" x="20.5" y="-49.8" font-family="Arial" font-size="14.00">&#45; clock: VClock&lt;A&gt;</text>
<text text-anchor="start" x="20.5" y="-34.8" font-family="Arial" font-size="14.00">&#45; entries: BTreeMap&lt;K, Entry&lt;V, A&gt;&gt;</text>
<text text-anchor="start" x="20.5" y="-19.8" font-family="Arial" font-size="14.00">&#45; deferred: HashMap&lt;VClock&lt;A&gt;, BTreeSet&lt;K&gt;&gt;</text>
<polygon fill="none" stroke="black" points="8,-4 8,-110 345,-110 345,-4 8,-4"/>
</a>
</g>
</g>
<!-- ndEntry -->
<g id="node3" class="node"><title>ndEntry</title>
<g id="a_node3_2"><a xlink:href="https://github.com/rust-crdt/rust-crdt/blob/master/src/map.rs#:~:text=struct%20Entry" xlink:title="&lt;TABLE&gt;">
<polygon fill="lightblue" stroke="none" points="983.5,-356.5 983.5,-393.5 1126.5,-393.5 1126.5,-356.5 983.5,-356.5"/>
<polygon fill="none" stroke="black" points="983.5,-356.5 983.5,-393.5 1126.5,-393.5 1126.5,-356.5 983.5,-356.5"/>
<text text-anchor="start" x="1036" y="-372.3" font-family="Arial" font-weight="bold" font-size="14.00">Entry</text>
<polygon fill="white" stroke="none" points="983.5,-304.5 983.5,-356.5 1126.5,-356.5 1126.5,-304.5 983.5,-304.5"/>
<polygon fill="none" stroke="black" points="983.5,-304.5 983.5,-356.5 1126.5,-356.5 1126.5,-304.5 983.5,-304.5"/>
<text text-anchor="start" x="994.5" y="-334.3" font-family="Arial" font-size="14.00">&#45; clock: VClock&lt;A&gt;</text>
<text text-anchor="start" x="994.5" y="-319.3" font-family="Arial" font-size="14.00">&#45; val: V</text>
<polygon fill="none" stroke="black" points="982,-304 982,-395 1127,-395 1127,-304 982,-304"/>
</a>
</g>
</g>
<!-- ndOp -->
<g id="node4" class="node"><title>ndOp</title>
<g id="a_node4_3"><a xlink:href="https://github.com/rust-crdt/rust-crdt/blob/master/src/orswot.rs#:~:text=enum%20Op" xlink:title="&lt;TABLE&gt;">
<polygon fill="yellow" stroke="none" points="1464.5,-641.5 1464.5,-678.5 1513.5,-678.5 1513.5,-641.5 1464.5,-641.5"/>
<polygon fill="none" stroke="black" points="1464.5,-641.5 1464.5,-678.5 1513.5,-678.5 1513.5,-641.5 1464.5,-641.5"/>
<text text-anchor="start" x="1478.5" y="-657.3" font-family="Arial" font-weight="bold" font-size="14.00">Op</text>
<polygon fill="white" stroke="none" points="1464.5,-589.5 1464.5,-641.5 1513.5,-641.5 1513.5,-589.5 1464.5,-589.5"/>
<polygon fill="none" stroke="black" points="1464.5,-589.5 1464.5,-641.5 1513.5,-641.5 1513.5,-589.5 1464.5,-589.5"/>
<text text-anchor="start" x="1475.5" y="-619.3" font-family="Arial" font-size="14.00">Add</text>
<text text-anchor="start" x="1475.5" y="-604.3" font-family="Arial" font-size="14.00">Rm</text>
<polygon fill="none" stroke="black" points="1463,-589 1463,-680 1514,-680 1514,-589 1463,-589"/>
</a>
</g>
</g>
<!-- ndOp&#45;&gt;ndMap -->
<g id="edge1" class="edge"><title>ndOp&#45;&gt;ndMap</title>
<path fill="none" stroke="black" stroke-dasharray="5,2" d="M1454.68,-631.998C1354.2,-625.919 1078.46,-602.634 851.5,-585 797.073,-580.771 406.462,-579.961 361.5,-549 216.733,-449.314 160.786,-233.826 158.571,-124.503"/>
<polygon fill="black" stroke="black" points="158.523,-114.262 163.07,-124.241 158.547,-119.262 158.57,-124.262 158.57,-124.262 158.57,-124.262 158.547,-119.262 154.07,-124.283 158.523,-114.262 158.523,-114.262"/>
</g>
<!-- ndOp&#45;&gt;ndMap -->
<g id="edge60" class="edge"><title>ndOp&#45;&gt;ndMap</title>
<path fill="none" stroke="black" stroke-dasharray="5,2" d="M1454.81,-631.558C1359.73,-624.867 1091.32,-602.234 869.5,-585 815.073,-580.771 424.462,-579.961 379.5,-549 234.733,-449.314 178.786,-233.826 169.586,-124.503"/>
<polygon fill="black" stroke="black" points="168.84,-114.262 174.055,-123.909 169.204,-119.249 169.567,-124.236 169.567,-124.236 169.567,-124.236 169.204,-119.249 165.079,-124.563 168.84,-114.262 168.84,-114.262"/>
</g>
<!-- ndOp&#45;&gt;ndMap -->
<g id="edge71" class="edge"><title>ndOp&#45;&gt;ndMap</title>
<path fill="none" stroke="black" stroke-dasharray="5,2" d="M1454.91,-630.99C1363.46,-623.665 1103.41,-601.775 887.5,-585 833.073,-580.771 442.462,-579.961 397.5,-549 252.587,-449.214 196.674,-233.391 180.552,-124.173"/>
<polygon fill="black" stroke="black" points="179.157,-114.262 185.007,-123.537 179.854,-119.214 180.551,-124.165 180.551,-124.165 180.551,-124.165 179.854,-119.214 176.095,-124.792 179.157,-114.262 179.157,-114.262"/>
</g>
<!-- ndOp&#45;&gt;ndMap -->
<g id="edge82" class="edge"><title>ndOp&#45;&gt;ndMap</title>
<path fill="none" stroke="black" stroke-dasharray="5,2" d="M1454.9,-630.268C1365.4,-622.315 1114.72,-601.256 905.5,-585 851.073,-580.771 460.462,-579.961 415.5,-549 270.587,-449.214 214.674,-233.391 191.546,-124.173"/>
<polygon fill="black" stroke="black" points="189.474,-114.262 195.925,-123.13 190.497,-119.157 191.521,-124.051 191.521,-124.051 191.521,-124.051 190.497,-119.157 187.116,-124.972 189.474,-114.262 189.474,-114.262"/>
</g>
<!-- ndOp&#45;&gt;ndMap -->
<g id="edge103" class="edge"><title>ndOp&#45;&gt;ndMap</title>
<path fill="none" stroke="black" stroke-dasharray="5,2" d="M1454.96,-629.402C1366.2,-620.872 1125.53,-600.697 923.5,-585 869.073,-580.771 478.462,-579.961 433.5,-549 288.587,-449.214 232.674,-233.391 202.54,-124.173"/>
<polygon fill="black" stroke="black" points="199.791,-114.262 206.8,-122.696 201.128,-119.08 202.464,-123.899 202.464,-123.899 202.464,-123.899 201.128,-119.08 198.128,-125.101 199.791,-114.262 199.791,-114.262"/>
</g>
<!-- ndOp&#45;&gt;ndMap -->
<g id="edge114" class="edge"><title>ndOp&#45;&gt;ndMap</title>
<path fill="none" stroke="black" stroke-dasharray="5,2" d="M1454.9,-628.375C1365.89,-619.338 1135.82,-600.098 941.5,-585 887.073,-580.771 496.462,-579.961 451.5,-549 306.441,-449.113 250.561,-232.956 213.422,-123.843"/>
<polygon fill="black" stroke="black" points="210.108,-114.262 217.629,-122.242 211.742,-118.988 213.377,-123.713 213.377,-123.713 213.377,-123.713 211.742,-118.988 209.124,-125.184 210.108,-114.262 210.108,-114.262"/>
</g>
<!-- ndMerkleReg -->
<g id="node16" class="node"><title>ndMerkleReg</title>
<g id="a_node16_4"><a xlink:href="https://github.com/rust-crdt/rust-crdt/blob/master/src/merkle_reg.rs#:~:text=struct%20MerkleReg" xlink:title="&lt;TABLE&gt;">
<polygon fill="lightblue" stroke="none" points="2142.5,-507 2142.5,-544 2414.5,-544 2414.5,-507 2142.5,-507"/>
<polygon fill="none" stroke="black" points="2142.5,-507 2142.5,-544 2414.5,-544 2414.5,-507 2142.5,-507"/>
<text text-anchor="start" x="2241" y="-522.8" font-family="Arial" font-weight="bold" font-size="14.00">MerkleReg</text>
<polygon fill="white" stroke="none" points="2142.5,-440 2142.5,-507 2414.5,-507 2414.5,-440 2142.5,-440"/>
<polygon fill="none" stroke="black" points="2142.5,-440 2142.5,-507 2414.5,-507 2414.5,-440 2142.5,-440"/>
<text text-anchor="start" x="2153.5" y="-484.8" font-family="Arial" font-size="14.00">&#45; roots: BTreeSet&lt;Hash&gt;</text>
<text text-anchor="start" x="2153.5" y="-469.8" font-family="Arial" font-size="14.00">&#45; dag: BTreeMap&lt;Hash, Node&lt;T&gt;&gt;</text>
<text text-anchor="start" x="2153.5" y="-454.8" font-family="Arial" font-size="14.00">&#45; orphans: BTreeMap&lt;Hash, Node&lt;T&gt;&gt;</text>
<polygon fill="none" stroke="black" points="2141.5,-439 2141.5,-545 2415.5,-545 2415.5,-439 2141.5,-439"/>
</a>
</g>
</g>
<!-- ndOp&#45;&gt;ndMerkleReg -->
<g id="edge2" class="edge"><title>ndOp&#45;&gt;ndMerkleReg</title>
<path fill="none" stroke="black" stroke-dasharray="5,2" d="M1522.3,-609.285C1549.87,-600.288 1586.1,-590.854 1619.5,-585 1821.49,-549.599 1879.08,-592.438 2079.5,-549 2093.87,-545.886 2108.71,-541.747 2123.62,-537.124"/>
<polygon fill="black" stroke="black" points="2133.43,-534.021 2125.25,-541.329 2128.66,-535.53 2123.89,-537.038 2123.89,-537.038 2123.89,-537.038 2128.66,-535.53 2122.54,-532.748 2133.43,-534.021 2133.43,-534.021"/>
</g>
<!-- ndOp&#45;&gt;ndMerkleReg -->
<g id="edge61" class="edge"><title>ndOp&#45;&gt;ndMerkleReg</title>
<path fill="none" stroke="black" stroke-dasharray="5,2" d="M1522.19,-614.745C1552.85,-604.318 1597.23,-592.058 1637.5,-585 1839.49,-549.599 1897.08,-592.438 2097.5,-549 2105.98,-547.161 2114.63,-544.965 2123.34,-542.523"/>
<polygon fill="black" stroke="black" points="2133.17,-539.667 2124.83,-546.776 2128.37,-541.061 2123.57,-542.454 2123.57,-542.454 2123.57,-542.454 2128.37,-541.061 2122.32,-538.133 2133.17,-539.667 2133.17,-539.667"/>
</g>
<!-- ndOp&#45;&gt;ndMerkleReg -->
<g id="edge72" class="edge"><title>ndOp&#45;&gt;ndMerkleReg</title>
<path fill="none" stroke="black" stroke-dasharray="5,2" d="M1522.09,-619.885C1555.6,-608.651 1608.36,-593.262 1655.5,-585 1857.49,-549.599 1915.08,-592.438 2115.5,-549 2118.15,-548.427 2120.81,-547.818 2123.48,-547.179"/>
<polygon fill="black" stroke="black" points="2133.2,-544.732 2124.6,-551.537 2128.36,-545.952 2123.51,-547.173 2123.51,-547.173 2123.51,-547.173 2128.36,-545.952 2122.41,-542.809 2133.2,-544.732 2133.2,-544.732"/>
</g>
<!-- ndOp&#45;&gt;ndMerkleReg -->
<g id="edge83" class="edge"><title>ndOp&#45;&gt;ndMerkleReg</title>
<path fill="none" stroke="black" stroke-dasharray="5,2" d="M1522.16,-624.203C1559.17,-612.961 1619.96,-594.383 1673.5,-585 1872.04,-550.204 1931.07,-590.997 2123.35,-551.151"/>
<polygon fill="black" stroke="black" points="2133.21,-549.064 2124.36,-555.539 2128.32,-550.1 2123.42,-551.136 2123.42,-551.136 2123.42,-551.136 2128.32,-550.1 2122.49,-546.734 2133.21,-549.064 2133.21,-549.064"/>
</g>
<!-- ndOp&#45;&gt;ndMerkleReg -->
<g id="edge104" class="edge"><title>ndOp&#45;&gt;ndMerkleReg</title>
<path fill="none" stroke="black" stroke-dasharray="5,2" d="M1522.03,-627.481C1564.33,-616.962 1632.34,-595.368 1691.5,-585 1890.04,-550.204 1949.07,-590.997 2141.35,-551.151"/>
<polygon fill="black" stroke="black" points="2151.21,-549.064 2142.36,-555.539 2146.32,-550.1 2141.42,-551.136 2141.42,-551.136 2141.42,-551.136 2146.32,-550.1 2140.49,-546.734 2151.21,-549.064 2151.21,-549.064"/>
</g>
<!-- ndOp&#45;&gt;ndMerkleReg -->
<g id="edge115" class="edge"><title>ndOp&#45;&gt;ndMerkleReg</title>
<path fill="none" stroke="black" stroke-dasharray="5,2" d="M1522.05,-629.622C1572.23,-620.214 1645.97,-596.134 1709.5,-585 1908.04,-550.204 1967.07,-590.997 2159.35,-551.151"/>
<polygon fill="black" stroke="black" points="2169.21,-549.064 2160.36,-555.539 2164.32,-550.1 2159.42,-551.136 2159.42,-551.136 2159.42,-551.136 2164.32,-550.1 2158.49,-546.734 2169.21,-549.064 2169.21,-549.064"/>
</g>
<!-- ndGSet -->
<g id="node19" class="node"><title>ndGSet</title>
<g id="a_node19_5"><a xlink:href="https://github.com/rust-crdt/rust-crdt/blob/master/src/gset.rs#:~:text=struct%20GSet" xlink:title="&lt;TABLE&gt;">
<polygon fill="lightblue" stroke="none" points="1698.5,-492 1698.5,-529 1856.5,-529 1856.5,-492 1698.5,-492"/>
<polygon fill="none" stroke="black" points="1698.5,-492 1698.5,-529 1856.5,-529 1856.5,-492 1698.5,-492"/>
<text text-anchor="start" x="1760.5" y="-507.8" font-family="Arial" font-weight="bold" font-size="14.00">GSet</text>
<polygon fill="white" stroke="none" points="1698.5,-455 1698.5,-492 1856.5,-492 1856.5,-455 1698.5,-455"/>
<polygon fill="none" stroke="black" points="1698.5,-455 1698.5,-492 1856.5,-492 1856.5,-455 1698.5,-455"/>
<text text-anchor="start" x="1709.5" y="-469.8" font-family="Arial" font-size="14.00">&#45; value: BTreeSet&lt;T&gt;</text>
<polygon fill="none" stroke="black" points="1697.5,-454 1697.5,-530 1857.5,-530 1857.5,-454 1697.5,-454"/>
</a>
</g>
</g>
<!-- ndOp&#45;&gt;ndGSet -->
<g id="edge3" class="edge"><title>ndOp&#45;&gt;ndGSet</title>
<path fill="none" stroke="black" stroke-dasharray="5,2" d="M1522.32,-601.298C1552.75,-586.055 1594.01,-567.228 1630.5,-549 1646.27,-541.121 1663.15,-532.104 1680.33,-523.642"/>
<polygon fill="black" stroke="black" points="1689.33,-519.276 1682.29,-527.688 1684.83,-521.458 1680.33,-523.639 1680.33,-523.639 1680.33,-523.639 1684.83,-521.458 1678.37,-519.59 1689.33,-519.276 1689.33,-519.276"/>
</g>
<!-- ndOp&#45;&gt;ndGSet -->
<g id="edge62" class="edge"><title>ndOp&#45;&gt;ndGSet</title>
<path fill="none" stroke="black" stroke-dasharray="5,2" d="M1522.09,-609.297C1555.46,-592.98 1605.31,-570.571 1648.5,-549 1658.74,-543.887 1669.44,-538.295 1680.19,-532.687"/>
<polygon fill="black" stroke="black" points="1689.22,-527.982 1682.43,-536.592 1684.78,-530.292 1680.35,-532.601 1680.35,-532.601 1680.35,-532.601 1684.78,-530.292 1678.27,-528.61 1689.22,-527.982 1689.22,-527.982"/>
</g>
<!-- ndOp&#45;&gt;ndGSet -->
<g id="edge73" class="edge"><title>ndOp&#45;&gt;ndGSet</title>
<path fill="none" stroke="black" stroke-dasharray="5,2" d="M1522.09,-616.261C1558.22,-599.78 1616.78,-573.835 1666.5,-549 1672.96,-545.773 1679.61,-542.355 1686.28,-538.862"/>
<polygon fill="black" stroke="black" points="1695.39,-534.064 1688.64,-542.706 1690.97,-536.394 1686.55,-538.724 1686.55,-538.724 1686.55,-538.724 1690.97,-536.394 1684.45,-534.743 1695.39,-534.064 1695.39,-534.064"/>
</g>
<!-- ndOp&#45;&gt;ndGSet -->
<g id="edge84" class="edge"><title>ndOp&#45;&gt;ndGSet</title>
<path fill="none" stroke="black" stroke-dasharray="5,2" d="M1522.19,-621.842C1561.82,-606.117 1628.73,-576.86 1684.5,-549 1690.96,-545.773 1697.61,-542.355 1704.23,-538.862"/>
<polygon fill="black" stroke="black" points="1713.24,-534.064 1706.53,-542.737 1708.83,-536.415 1704.42,-538.765 1704.42,-538.765 1704.42,-538.765 1708.83,-536.415 1702.3,-534.793 1713.24,-534.064 1713.24,-534.064"/>
</g>
<!-- ndOp&#45;&gt;ndGSet -->
<g id="edge105" class="edge"><title>ndOp&#45;&gt;ndGSet</title>
<path fill="none" stroke="black" stroke-dasharray="5,2" d="M1522.21,-625.917C1567.1,-611.646 1641.47,-579.486 1702.5,-549 1708.96,-545.773 1715.61,-542.355 1722.19,-538.862"/>
<polygon fill="black" stroke="black" points="1731.09,-534.064 1724.42,-542.769 1726.69,-536.436 1722.29,-538.807 1722.29,-538.807 1722.29,-538.807 1726.69,-536.436 1720.15,-534.845 1731.09,-534.064 1731.09,-534.064"/>
</g>
<!-- ndOp&#45;&gt;ndGSet -->
<g id="edge116" class="edge"><title>ndOp&#45;&gt;ndGSet</title>
<path fill="none" stroke="black" stroke-dasharray="5,2" d="M1522.31,-628.569C1574.95,-616.02 1655.32,-581.556 1720.5,-549 1726.96,-545.773 1733.61,-542.355 1740.14,-538.862"/>
<polygon fill="black" stroke="black" points="1748.94,-534.064 1742.31,-542.801 1744.55,-536.457 1740.16,-538.849 1740.16,-538.849 1740.16,-538.849 1744.55,-536.457 1738.01,-534.898 1748.94,-534.064 1748.94,-534.064"/>
</g>
<!-- ndGCounter -->
<g id="node20" class="node"><title>ndGCounter</title>
<g id="a_node20_6"><a xlink:href="https://github.com/rust-crdt/rust-crdt/blob/master/src/gcounter.rs#:~:text=struct%20GCounter" xlink:title="&lt;TABLE&gt;">
<polygon fill="lightblue" stroke="none" points="1162.5,-349.5 1162.5,-386.5 1303.5,-386.5 1303.5,-349.5 1162.5,-349.5"/>
<polygon fill="none" stroke="black" points="1162.5,-349.5 1162.5,-386.5 1303.5,-386.5 1303.5,-349.5 1162.5,-349.5"/>
<text text-anchor="start" x="1199" y="-365.3" font-family="Arial" font-weight="bold" font-size="14.00">GCounter</text>
<polygon fill="white" stroke="none" points="1162.5,-312.5 1162.5,-349.5 1303.5,-349.5 1303.5,-312.5 1162.5,-312.5"/>
<polygon fill="none" stroke="black" points="1162.5,-312.5 1162.5,-349.5 1303.5,-349.5 1303.5,-312.5 1162.5,-312.5"/>
<text text-anchor="start" x="1173.5" y="-327.3" font-family="Arial" font-size="14.00">&#45; inner: VClock&lt;A&gt;</text>
<polygon fill="none" stroke="black" points="1161,-311.5 1161,-387.5 1304,-387.5 1304,-311.5 1161,-311.5"/>
</a>
</g>
</g>
<!-- ndOp&#45;&gt;ndGCounter -->
<g id="edge4" class="edge"><title>ndOp&#45;&gt;ndGCounter</title>
<path fill="none" stroke="black" stroke-dasharray="5,2" d="M1454.83,-631.381C1397.81,-625.087 1306.25,-603.436 1256.5,-549 1219.13,-508.111 1201.82,-445.902 1203.3,-402.044"/>
<polygon fill="black" stroke="black" points="1204.02,-391.87 1207.8,-402.163 1203.67,-396.858 1203.32,-401.845 1203.32,-401.845 1203.32,-401.845 1203.67,-396.858 1198.83,-401.528 1204.02,-391.87 1204.02,-391.87"/>
</g>
<!-- ndOp&#45;&gt;ndGCounter -->
<g id="edge63" class="edge"><title>ndOp&#45;&gt;ndGCounter</title>
<path fill="none" stroke="black" stroke-dasharray="5,2" d="M1454.62,-630.128C1405.34,-622.466 1321.37,-600.28 1274.5,-549 1237.13,-508.111 1219.82,-445.902 1217.55,-402.044"/>
<polygon fill="black" stroke="black" points="1217.29,-391.87 1222.04,-401.753 1217.41,-396.869 1217.54,-401.867 1217.54,-401.867 1217.54,-401.867 1217.41,-396.869 1213.04,-401.981 1217.29,-391.87 1217.29,-391.87"/>
</g>
<!-- ndOp&#45;&gt;ndGCounter -->
<g id="edge74" class="edge"><title>ndOp&#45;&gt;ndGCounter</title>
<path fill="none" stroke="black" stroke-dasharray="5,2" d="M1454.77,-628.172C1411.05,-619.006 1335.88,-596.467 1292.5,-549 1255.13,-508.111 1237.82,-445.902 1231.79,-402.044"/>
<polygon fill="black" stroke="black" points="1230.56,-391.87 1236.23,-401.255 1231.16,-396.834 1231.76,-401.797 1231.76,-401.797 1231.76,-401.797 1231.16,-396.834 1227.29,-402.34 1230.56,-391.87 1230.56,-391.87"/>
</g>
<!-- ndOp&#45;&gt;ndGCounter -->
<g id="edge85" class="edge"><title>ndOp&#45;&gt;ndGCounter</title>
<path fill="none" stroke="black" stroke-dasharray="5,2" d="M1454.95,-625.217C1415.18,-614.539 1349.8,-591.996 1310.5,-549 1273.05,-508.025 1255.74,-445.639 1245.97,-401.767"/>
<polygon fill="black" stroke="black" points="1243.82,-391.87 1250.34,-400.686 1244.89,-396.756 1245.95,-401.642 1245.95,-401.642 1245.95,-401.642 1244.89,-396.756 1241.55,-402.598 1243.82,-391.87 1243.82,-391.87"/>
</g>
<!-- ndOp&#45;&gt;ndGCounter -->
<g id="edge106" class="edge"><title>ndOp&#45;&gt;ndGCounter</title>
<path fill="none" stroke="black" stroke-dasharray="5,2" d="M1454.89,-621C1418.33,-609.024 1363.23,-587 1328.5,-549 1290.97,-507.938 1273.67,-445.376 1260.11,-401.49"/>
<polygon fill="black" stroke="black" points="1257.09,-391.87 1264.38,-400.064 1258.59,-396.641 1260.09,-401.411 1260.09,-401.411 1260.09,-401.411 1258.59,-396.641 1255.79,-402.759 1257.09,-391.87 1257.09,-391.87"/>
</g>
<!-- ndOp&#45;&gt;ndGCounter -->
<g id="edge117" class="edge"><title>ndOp&#45;&gt;ndGCounter</title>
<path fill="none" stroke="black" stroke-dasharray="5,2" d="M1454.68,-615.434C1421.47,-602.621 1376.42,-581.74 1346.5,-549 1308.89,-507.852 1291.6,-445.114 1274.2,-401.214"/>
<polygon fill="black" stroke="black" points="1270.36,-391.87 1278.32,-399.409 1272.26,-396.495 1274.16,-401.12 1274.16,-401.12 1274.16,-401.12 1272.26,-396.495 1270,-402.83 1270.36,-391.87 1270.36,-391.87"/>
</g>
<!-- ndLWWReg -->
<g id="node24" class="node"><title>ndLWWReg</title>
<g id="a_node24_7"><a xlink:href="https://github.com/rust-crdt/rust-crdt/blob/master/src/lwwreg.rs#:~:text=struct%20LWWReg" xlink:title="&lt;TABLE&gt;">
<polygon fill="lightblue" stroke="none" points="2451.5,-499 2451.5,-536 2548.5,-536 2548.5,-499 2451.5,-499"/>
<polygon fill="none" stroke="black" points="2451.5,-499 2451.5,-536 2548.5,-536 2548.5,-499 2451.5,-499"/>
<text text-anchor="start" x="2469.5" y="-514.8" font-family="Arial" font-weight="bold" font-size="14.00">LWWReg</text>
<polygon fill="white" stroke="none" points="2451.5,-447 2451.5,-499 2548.5,-499 2548.5,-447 2451.5,-447"/>
<polygon fill="none" stroke="black" points="2451.5,-447 2451.5,-499 2548.5,-499 2548.5,-447 2451.5,-447"/>
<text text-anchor="start" x="2462.5" y="-476.8" font-family="Arial" font-size="14.00">+ val: V</text>
<text text-anchor="start" x="2462.5" y="-461.8" font-family="Arial" font-size="14.00">+ marker: M</text>
<polygon fill="none" stroke="black" points="2450,-446.5 2450,-537.5 2549,-537.5 2549,-446.5 2450,-446.5"/>
</a>
</g>
</g>
<!-- ndOp&#45;&gt;ndLWWReg -->
<g id="edge5" class="edge"><title>ndOp&#45;&gt;ndLWWReg</title>
<path fill="none" stroke="black" stroke-dasharray="5,2" d="M1522.21,-608.754C1549.77,-599.679 1586.01,-590.332 1619.5,-585 1788.23,-558.14 2228.3,-611.026 2387.5,-549 2403.23,-542.87 2417.96,-531.475 2433.28,-520.555"/>
<polygon fill="black" stroke="black" points="2441.86,-514.575 2436.23,-523.984 2437.76,-517.433 2433.66,-520.291 2433.66,-520.291 2433.66,-520.291 2437.76,-517.433 2431.09,-516.599 2441.86,-514.575 2441.86,-514.575"/>
</g>
<!-- ndOp&#45;&gt;ndLWWReg -->
<g id="edge64" class="edge"><title>ndOp&#45;&gt;ndLWWReg</title>
<path fill="none" stroke="black" stroke-dasharray="5,2" d="M1522.11,-614.28C1552.75,-603.693 1597.12,-591.428 1637.5,-585 1806.23,-558.14 2246.3,-611.026 2405.5,-549 2415.23,-545.208 2424.58,-539.4 2433.57,-532.936"/>
<polygon fill="black" stroke="black" points="2441.73,-526.854 2436.4,-536.439 2437.72,-529.843 2433.71,-532.831 2433.71,-532.831 2433.71,-532.831 2437.72,-529.843 2431.02,-529.224 2441.73,-526.854 2441.73,-526.854"/>
</g>
<!-- ndOp&#45;&gt;ndLWWReg -->
<g id="edge75" class="edge"><title>ndOp&#45;&gt;ndLWWReg</title>
<path fill="none" stroke="black" stroke-dasharray="5,2" d="M1522.03,-619.513C1555.5,-608.046 1608.24,-592.524 1655.5,-585 1824.23,-558.14 2264.3,-611.026 2423.5,-549 2426.78,-547.723 2430.01,-546.217 2433.19,-544.535"/>
<polygon fill="black" stroke="black" points="2441.99,-539.37 2435.64,-548.314 2437.67,-541.902 2433.36,-544.433 2433.36,-544.433 2433.36,-544.433 2437.67,-541.902 2431.08,-540.553 2441.99,-539.37 2441.99,-539.37"/>
</g>
<!-- ndOp&#45;&gt;ndLWWReg -->
<g id="edge86" class="edge"><title>ndOp&#45;&gt;ndLWWReg</title>
<path fill="none" stroke="black" stroke-dasharray="5,2" d="M1522.12,-623.929C1559.07,-612.408 1619.82,-593.545 1673.5,-585 1842.23,-558.14 2282.3,-611.026 2441.5,-549 2443.41,-548.257 2445.3,-547.437 2447.17,-546.549"/>
<polygon fill="black" stroke="black" points="2456.34,-541.599 2449.68,-550.309 2451.94,-543.974 2447.54,-546.348 2447.54,-546.348 2447.54,-546.348 2451.94,-543.974 2445.41,-542.388 2456.34,-541.599 2456.34,-541.599"/>
</g>
<!-- ndOp&#45;&gt;ndLWWReg -->
<g id="edge107" class="edge"><title>ndOp&#45;&gt;ndLWWReg</title>
<path fill="none" stroke="black" stroke-dasharray="5,2" d="M1522.33,-627.208C1564.6,-616.365 1632.34,-594.417 1691.5,-585 1860.23,-558.14 2300.3,-611.026 2459.5,-549 2461.41,-548.257 2463.3,-547.437 2465.17,-546.549"/>
<polygon fill="black" stroke="black" points="2474.29,-541.599 2467.65,-550.323 2469.9,-543.984 2465.5,-546.368 2465.5,-546.368 2465.5,-546.368 2469.9,-543.984 2463.36,-542.412 2474.29,-541.599 2474.29,-541.599"/>
</g>
<!-- ndOp&#45;&gt;ndLWWReg -->
<g id="edge118" class="edge"><title>ndOp&#45;&gt;ndLWWReg</title>
<path fill="none" stroke="black" stroke-dasharray="5,2" d="M1522.03,-629.497C1572.16,-619.806 1645.8,-595.14 1709.5,-585 1878.23,-558.14 2318.3,-611.026 2477.5,-549 2479.41,-548.257 2481.3,-547.437 2483.17,-546.549"/>
<polygon fill="black" stroke="black" points="2492.24,-541.599 2485.62,-550.338 2487.85,-543.993 2483.46,-546.387 2483.46,-546.387 2483.46,-546.387 2487.85,-543.993 2481.31,-542.436 2492.24,-541.599 2492.24,-541.599"/>
</g>
<!-- ndList -->
<g id="node29" class="node"><title>ndList</title>
<g id="a_node29_8"><a xlink:href="https://github.com/rust-crdt/rust-crdt/blob/master/src/list.rs#:~:text=struct%20List" xlink:title="&lt;TABLE&gt;">
<polygon fill="lightblue" stroke="none" points="1595.5,-356.5 1595.5,-393.5 1901.5,-393.5 1901.5,-356.5 1595.5,-356.5"/>
<polygon fill="none" stroke="black" points="1595.5,-356.5 1595.5,-393.5 1901.5,-393.5 1901.5,-356.5 1595.5,-356.5"/>
<text text-anchor="start" x="1735.5" y="-372.3" font-family="Arial" font-weight="bold" font-size="14.00">List</text>
<polygon fill="white" stroke="none" points="1595.5,-304.5 1595.5,-356.5 1901.5,-356.5 1901.5,-304.5 1595.5,-304.5"/>
<polygon fill="none" stroke="black" points="1595.5,-304.5 1595.5,-356.5 1901.5,-356.5 1901.5,-304.5 1595.5,-304.5"/>
<text text-anchor="start" x="1606.5" y="-334.3" font-family="Arial" font-size="14.00">&#45; seq: BTreeMap&lt;Identifier&lt;OrdDot&lt;A&gt;&gt;, T&gt;</text>
<text text-anchor="start" x="1606.5" y="-319.3" font-family="Arial" font-size="14.00">&#45; clock: VClock&lt;A&gt;</text>
<polygon fill="none" stroke="black" points="1594.5,-304 1594.5,-395 1902.5,-395 1902.5,-304 1594.5,-304"/>
</a>
</g>
</g>
<!-- ndOp&#45;&gt;ndList -->
<g id="edge6" class="edge"><title>ndOp&#45;&gt;ndList</title>
<path fill="none" stroke="black" stroke-dasharray="5,2" d="M1506.99,-584.851C1543.01,-535.167 1613.36,-458.139 1669.97,-406.081"/>
<polygon fill="black" stroke="black" points="1677.51,-399.224 1673.14,-409.282 1673.81,-402.589 1670.11,-405.953 1670.11,-405.953 1670.11,-405.953 1673.81,-402.589 1667.09,-402.624 1677.51,-399.224 1677.51,-399.224"/>
</g>
<!-- ndOp&#45;&gt;ndList -->
<g id="edge65" class="edge"><title>ndOp&#45;&gt;ndList</title>
<path fill="none" stroke="black" stroke-dasharray="5,2" d="M1517.47,-584.851C1557.2,-535.344 1627.36,-458.687 1680.39,-406.637"/>
<polygon fill="black" stroke="black" points="1687.76,-399.462 1683.73,-409.663 1684.17,-402.951 1680.59,-406.441 1680.59,-406.441 1680.59,-406.441 1684.17,-402.951 1677.45,-403.218 1687.76,-399.462 1687.76,-399.462"/>
</g>
<!-- ndOp&#45;&gt;ndList -->
<g id="edge76" class="edge"><title>ndOp&#45;&gt;ndList</title>
<path fill="none" stroke="black" stroke-dasharray="5,2" d="M1522.17,-591.438C1564.99,-542.467 1639.32,-461.368 1691.12,-406.95"/>
<polygon fill="black" stroke="black" points="1698.27,-399.455 1694.62,-409.796 1694.82,-403.072 1691.37,-406.689 1691.37,-406.689 1691.37,-406.689 1694.82,-403.072 1688.11,-403.582 1698.27,-399.455 1698.27,-399.455"/>
</g>
<!-- ndOp&#45;&gt;ndList -->
<g id="edge87" class="edge"><title>ndOp&#45;&gt;ndList</title>
<path fill="none" stroke="black" stroke-dasharray="5,2" d="M1522.02,-601.86C1567.98,-554.721 1650.45,-465.341 1702.24,-406.856"/>
<polygon fill="black" stroke="black" points="1709.03,-399.172 1705.78,-409.647 1705.72,-402.92 1702.41,-406.668 1702.41,-406.668 1702.41,-406.668 1705.72,-402.92 1699.03,-403.69 1709.03,-399.172 1709.03,-399.172"/>
</g>
<!-- ndOp&#45;&gt;ndList -->
<g id="edge108" class="edge"><title>ndOp&#45;&gt;ndList</title>
<path fill="none" stroke="black" stroke-dasharray="5,2" d="M1522.06,-609.858C1572.01,-565.615 1662.19,-469.189 1713.01,-407.189"/>
<polygon fill="black" stroke="black" points="1719.61,-399.054 1716.8,-409.655 1716.46,-402.937 1713.31,-406.82 1713.31,-406.82 1713.31,-406.82 1716.46,-402.937 1709.81,-403.984 1719.61,-399.054 1719.61,-399.054"/>
</g>
<!-- ndOp&#45;&gt;ndList -->
<g id="edge119" class="edge"><title>ndOp&#45;&gt;ndList</title>
<path fill="none" stroke="black" stroke-dasharray="5,2" d="M1522.2,-615.797C1577.37,-574.834 1675.19,-472.063 1724.12,-407.123"/>
<polygon fill="black" stroke="black" points="1730.12,-399.006 1727.79,-409.722 1727.15,-403.026 1724.17,-407.046 1724.17,-407.046 1724.17,-407.046 1727.15,-403.026 1720.55,-404.371 1730.12,-399.006 1730.12,-399.006"/>
</g>
<!-- ndGList -->
<g id="node30" class="node"><title>ndGList</title>
<g id="a_node30_9"><a xlink:href="https://github.com/rust-crdt/rust-crdt/blob/master/src/glist.rs#:~:text=struct%20GList" xlink:title="&lt;TABLE&gt;">
<polygon fill="lightblue" stroke="none" points="1892.5,-492 1892.5,-529 2106.5,-529 2106.5,-492 1892.5,-492"/>
<polygon fill="none" stroke="black" points="1892.5,-492 1892.5,-529 2106.5,-529 2106.5,-492 1892.5,-492"/>
<text text-anchor="start" x="1981" y="-507.8" font-family="Arial" font-weight="bold" font-size="14.00">GList</text>
<polygon fill="white" stroke="none" points="1892.5,-455 1892.5,-492 2106.5,-492 2106.5,-455 1892.5,-455"/>
<polygon fill="none" stroke="black" points="1892.5,-455 1892.5,-492 2106.5,-492 2106.5,-455 1892.5,-455"/>
<text text-anchor="start" x="1903.5" y="-469.8" font-family="Arial" font-size="14.00">&#45; list: BTreeSet&lt;Identifier&lt;T&gt;&gt;</text>
<polygon fill="none" stroke="black" points="1891.5,-454 1891.5,-530 2107.5,-530 2107.5,-454 1891.5,-454"/>
</a>
</g>
</g>
<!-- ndOp&#45;&gt;ndGList -->
<g id="edge7" class="edge"><title>ndOp&#45;&gt;ndGList</title>
<path fill="none" stroke="black" stroke-dasharray="5,2" d="M1522.22,-610.958C1549.88,-602.153 1586.24,-592.413 1619.5,-585 1711.93,-564.396 1738.91,-576.575 1829.5,-549 1843.91,-544.613 1858.85,-538.968 1873.84,-532.956"/>
<polygon fill="black" stroke="black" points="1883.18,-529.173 1875.6,-537.098 1878.55,-531.05 1873.92,-532.927 1873.92,-532.927 1873.92,-532.927 1878.55,-531.05 1872.23,-528.756 1883.18,-529.173 1883.18,-529.173"/>
</g>
<!-- ndOp&#45;&gt;ndGList -->
<g id="edge66" class="edge"><title>ndOp&#45;&gt;ndGList</title>
<path fill="none" stroke="black" stroke-dasharray="5,2" d="M1522.1,-616.218C1552.87,-606.237 1597.44,-593.931 1637.5,-585 1729.93,-564.396 1756.91,-576.575 1847.5,-549 1857.97,-545.813 1868.71,-541.963 1879.45,-537.79"/>
<polygon fill="black" stroke="black" points="1888.88,-534.048 1881.25,-541.919 1884.23,-535.892 1879.59,-537.737 1879.59,-537.737 1879.59,-537.737 1884.23,-535.892 1877.93,-533.554 1888.88,-534.048 1888.88,-534.048"/>
</g>
<!-- ndOp&#45;&gt;ndGList -->
<g id="edge77" class="edge"><title>ndOp&#45;&gt;ndGList</title>
<path fill="none" stroke="black" stroke-dasharray="5,2" d="M1522.31,-620.971C1555.95,-610.416 1608.79,-595.413 1655.5,-585 1747.93,-564.396 1774.91,-576.575 1865.5,-549 1875.97,-545.813 1886.71,-541.963 1897.35,-537.79"/>
<polygon fill="black" stroke="black" points="1906.66,-534.048 1899.06,-541.953 1902.02,-535.913 1897.38,-537.778 1897.38,-537.778 1897.38,-537.778 1902.02,-535.913 1895.7,-533.603 1906.66,-534.048 1906.66,-534.048"/>
</g>
<!-- ndOp&#45;&gt;ndGList -->
<g id="edge88" class="edge"><title>ndOp&#45;&gt;ndGList</title>
<path fill="none" stroke="black" stroke-dasharray="5,2" d="M1522.32,-625.002C1559.49,-614.574 1620.45,-596.827 1673.5,-585 1765.93,-564.396 1792.91,-576.575 1883.5,-549 1893.86,-545.845 1904.5,-542.04 1914.92,-537.916"/>
<polygon fill="black" stroke="black" points="1924.43,-534.048 1916.86,-541.985 1919.8,-535.933 1915.17,-537.817 1915.17,-537.817 1915.17,-537.817 1919.8,-535.933 1913.47,-533.649 1924.43,-534.048 1924.43,-534.048"/>
</g>
<!-- ndOp&#45;&gt;ndGList -->
<g id="edge109" class="edge"><title>ndOp&#45;&gt;ndGList</title>
<path fill="none" stroke="black" stroke-dasharray="5,2" d="M1522.14,-628.028C1564.61,-618.365 1632.88,-598.068 1691.5,-585 1783.93,-564.396 1810.91,-576.575 1901.5,-549 1911.86,-545.845 1922.5,-542.04 1932.82,-537.916"/>
<polygon fill="black" stroke="black" points="1942.2,-534.048 1934.67,-542.02 1937.58,-535.954 1932.96,-537.86 1932.96,-537.86 1932.96,-537.86 1937.58,-535.954 1931.24,-533.7 1942.2,-534.048 1942.2,-534.048"/>
</g>
<!-- ndOp&#45;&gt;ndGList -->
<g id="edge120" class="edge"><title>ndOp&#45;&gt;ndGList</title>
<path fill="none" stroke="black" stroke-dasharray="5,2" d="M1522.12,-629.988C1572.46,-621.403 1646.55,-599.034 1709.5,-585 1801.93,-564.396 1828.91,-576.575 1919.5,-549 1929.86,-545.845 1940.5,-542.04 1950.72,-537.916"/>
<polygon fill="black" stroke="black" points="1959.98,-534.048 1952.49,-542.056 1955.36,-535.976 1950.75,-537.904 1950.75,-537.904 1950.75,-537.904 1955.36,-535.976 1949.02,-533.752 1959.98,-534.048 1959.98,-534.048"/>
</g>
<!-- ndMVReg -->
<g id="node31" class="node"><title>ndMVReg</title>
<g id="a_node31_10"><a xlink:href="https://github.com/rust-crdt/rust-crdt/blob/master/src/mvreg.rs#:~:text=struct%20MVReg" xlink:title="&lt;TABLE&gt;">
<polygon fill="lightblue" stroke="none" points="380.5,-57 380.5,-94 583.5,-94 583.5,-57 380.5,-57"/>
<polygon fill="none" stroke="black" points="380.5,-57 380.5,-94 583.5,-94 583.5,-57 380.5,-57"/>
<text text-anchor="start" x="457" y="-72.8" font-family="Arial" font-weight="bold" font-size="14.00">MVReg</text>
<polygon fill="white" stroke="none" points="380.5,-20 380.5,-57 583.5,-57 583.5,-20 380.5,-20"/>
<polygon fill="none" stroke="black" points="380.5,-20 380.5,-57 583.5,-57 583.5,-20 380.5,-20"/>
<text text-anchor="start" x="391.5" y="-34.8" font-family="Arial" font-size="14.00">&#45; vals: Vec&lt;(VClock&lt;A&gt;, V)&gt;</text>
<polygon fill="none" stroke="black" points="379,-19 379,-95 584,-95 584,-19 379,-19"/>
</a>
</g>
</g>
<!-- ndOp&#45;&gt;ndMVReg -->
<g id="edge8" class="edge"><title>ndOp&#45;&gt;ndMVReg</title>
<path fill="none" stroke="black" stroke-dasharray="5,2" d="M1454.78,-632.579C1274.94,-626.098 464.651,-582.101 323.5,-399 254.752,-309.819 339.183,-176.816 410.709,-106.163"/>
<polygon fill="black" stroke="black" points="418.026,-99.1082 413.951,-109.289 414.427,-102.579 410.827,-106.049 410.827,-106.049 410.827,-106.049 414.427,-102.579 407.704,-102.809 418.026,-99.1082 418.026,-99.1082"/>
</g>
<!-- ndOp&#45;&gt;ndMVReg -->
<g id="edge67" class="edge"><title>ndOp&#45;&gt;ndMVReg</title>
<path fill="none" stroke="black" stroke-dasharray="5,2" d="M1454.82,-632.404C1279.06,-625.332 481.438,-580.528 341.5,-399 272.89,-309.999 356.842,-177.353 421.999,-106.592"/>
<polygon fill="black" stroke="black" points="429.039,-99.1082 425.465,-109.475 425.613,-102.75 422.187,-106.392 422.187,-106.392 422.187,-106.392 425.613,-102.75 418.909,-103.309 429.039,-99.1082 429.039,-99.1082"/>
</g>
<!-- ndOp&#45;&gt;ndMVReg -->
<g id="edge78" class="edge"><title>ndOp&#45;&gt;ndMVReg</title>
<path fill="none" stroke="black" stroke-dasharray="5,2" d="M1454.98,-632.199C1282.43,-624.495 498.149,-578.856 359.5,-399 291.029,-310.179 374.503,-177.89 433.365,-107.022"/>
<polygon fill="black" stroke="black" points="440.051,-99.1082 437.035,-109.651 436.824,-102.928 433.598,-106.747 433.598,-106.747 433.598,-106.747 436.824,-102.928 430.16,-103.843 440.051,-99.1082 440.051,-99.1082"/>
</g>
<!-- ndOp&#45;&gt;ndMVReg -->
<g id="edge89" class="edge"><title>ndOp&#45;&gt;ndMVReg</title>
<path fill="none" stroke="black" stroke-dasharray="5,2" d="M1454.98,-631.946C1284.2,-623.532 514.709,-576.988 377.5,-399 309.168,-310.36 392.165,-178.426 444.806,-107.454"/>
<polygon fill="black" stroke="black" points="451.063,-99.1082 448.665,-109.809 448.064,-103.109 445.065,-107.109 445.065,-107.109 445.065,-107.109 448.064,-103.109 441.464,-104.41 451.063,-99.1082 451.063,-99.1082"/>
</g>
<!-- ndOp&#45;&gt;ndMVReg -->
<g id="edge110" class="edge"><title>ndOp&#45;&gt;ndMVReg</title>
<path fill="none" stroke="black" stroke-dasharray="5,2" d="M1454.8,-631.638C1284.43,-622.434 531.117,-574.923 395.5,-399 327.307,-310.54 409.828,-178.963 456.322,-107.888"/>
<polygon fill="black" stroke="black" points="462.076,-99.1082 460.358,-109.939 459.335,-103.29 456.594,-107.472 456.594,-107.472 456.594,-107.472 459.335,-103.29 452.831,-105.006 462.076,-99.1082 462.076,-99.1082"/>
</g>
<!-- ndOp&#45;&gt;ndMVReg -->
<g id="edge121" class="edge"><title>ndOp&#45;&gt;ndMVReg</title>
<path fill="none" stroke="black" stroke-dasharray="5,2" d="M1454.98,-631.298C1284.83,-621.301 547.525,-572.858 413.5,-399 345.307,-310.54 427.828,-178.963 468.16,-107.888"/>
<polygon fill="black" stroke="black" points="473.088,-99.1082 472.117,-110.031 470.64,-103.468 468.193,-107.828 468.193,-107.828 468.193,-107.828 470.64,-103.468 464.269,-105.625 473.088,-99.1082 473.088,-99.1082"/>
</g>
<!-- ndVClock -->
<g id="node32" class="node"><title>ndVClock</title>
<g id="a_node32_11"><a xlink:href="https://github.com/rust-crdt/rust-crdt/blob/master/src/vclock.rs#:~:text=struct%20VClock" xlink:title="&lt;TABLE&gt;">
<polygon fill="lightblue" stroke="none" points="956.5,-492 956.5,-529 1150.5,-529 1150.5,-492 956.5,-492"/>
<polygon fill="none" stroke="black" points="956.5,-492 956.5,-529 1150.5,-529 1150.5,-492 956.5,-492"/>
<text text-anchor="start" x="1028.5" y="-507.8" font-family="Arial" font-weight="bold" font-size="14.00">VClock</text>
<polygon fill="white" stroke="none" points="956.5,-455 956.5,-492 1150.5,-492 1150.5,-455 956.5,-455"/>
<polygon fill="none" stroke="black" points="956.5,-455 956.5,-492 1150.5,-492 1150.5,-455 956.5,-455"/>
<text text-anchor="start" x="967.5" y="-469.8" font-family="Arial" font-size="14.00">+ dots: BTreeMap&lt;A, u64&gt;</text>
<polygon fill="none" stroke="black" points="955.5,-454 955.5,-530 1151.5,-530 1151.5,-454 955.5,-454"/>
</a>
</g>
</g>
<!-- ndOp&#45;&gt;ndVClock -->
<g id="edge9" class="edge"><title>ndOp&#45;&gt;ndVClock</title>
<path fill="none" stroke="black" stroke-dasharray="5,2" d="M1454.84,-630.577C1383.96,-621.219 1241.55,-590.184 1128.5,-549 1119.52,-545.729 1110.3,-542.045 1101.33,-538.166"/>
<polygon fill="black" stroke="black" points="1092.11,-534.064 1103.07,-534.016 1096.68,-536.096 1101.24,-538.127 1101.24,-538.127 1101.24,-538.127 1096.68,-536.096 1099.42,-542.239 1092.11,-534.064 1092.11,-534.064"/>
</g>
<!-- ndOp&#45;&gt;ndVClock -->
<g id="edge68" class="edge"><title>ndOp&#45;&gt;ndVClock</title>
<path fill="none" stroke="black" stroke-dasharray="5,2" d="M1454.89,-629.351C1390.62,-618.72 1255.03,-588.537 1146.5,-549 1137.52,-545.729 1128.3,-542.045 1119.25,-538.166"/>
<polygon fill="black" stroke="black" points="1109.92,-534.064 1120.88,-533.967 1114.5,-536.075 1119.07,-538.087 1119.07,-538.087 1119.07,-538.087 1114.5,-536.075 1117.26,-542.207 1109.92,-534.064 1109.92,-534.064"/>
</g>
<!-- ndOp&#45;&gt;ndVClock -->
<g id="edge79" class="edge"><title>ndOp&#45;&gt;ndVClock</title>
<path fill="none" stroke="black" stroke-dasharray="5,2" d="M1454.64,-627.555C1394.73,-615.588 1267.44,-586.502 1164.5,-549 1155.52,-545.729 1146.3,-542.045 1137.18,-538.166"/>
<polygon fill="black" stroke="black" points="1127.73,-534.064 1138.69,-533.919 1132.32,-536.055 1136.9,-538.047 1136.9,-538.047 1136.9,-538.047 1132.32,-536.055 1135.11,-542.175 1127.73,-534.064 1127.73,-534.064"/>
</g>
<!-- ndOp&#45;&gt;ndVClock -->
<g id="edge90" class="edge"><title>ndOp&#45;&gt;ndVClock</title>
<path fill="none" stroke="black" stroke-dasharray="5,2" d="M1454.79,-625.242C1397.69,-612.101 1279.33,-584.273 1182.5,-549 1173.43,-545.695 1164.1,-541.967 1154.81,-538.044"/>
<polygon fill="black" stroke="black" points="1145.54,-534.064 1156.51,-533.874 1150.14,-536.037 1154.73,-538.009 1154.73,-538.009 1154.73,-538.009 1150.14,-536.037 1152.95,-542.144 1145.54,-534.064 1145.54,-534.064"/>
</g>
<!-- ndOp&#45;&gt;ndVClock -->
<g id="edge111" class="edge"><title>ndOp&#45;&gt;ndVClock</title>
<path fill="none" stroke="black" stroke-dasharray="5,2" d="M1454.96,-622.329C1399.53,-608.244 1290.68,-581.851 1200.5,-549 1190.22,-545.257 1179.63,-540.971 1169,-536.474"/>
<polygon fill="black" stroke="black" points="1159.67,-532.476 1170.63,-532.278 1164.27,-534.445 1168.86,-536.414 1168.86,-536.414 1168.86,-536.414 1164.27,-534.445 1167.09,-540.55 1159.67,-532.476 1159.67,-532.476"/>
</g>
<!-- ndOp&#45;&gt;ndVClock -->
<g id="edge122" class="edge"><title>ndOp&#45;&gt;ndVClock</title>
<path fill="none" stroke="black" stroke-dasharray="5,2" d="M1454.92,-618.803C1400.63,-604.078 1301.63,-579.283 1218.5,-549 1202.55,-543.19 1185.82,-536.074 1169.01,-528.888"/>
<polygon fill="black" stroke="black" points="1159.66,-524.896 1170.63,-524.686 1164.26,-526.86 1168.86,-528.824 1168.86,-528.824 1168.86,-528.824 1164.26,-526.86 1167.09,-532.963 1159.66,-524.896 1159.66,-524.896"/>
</g>
<!-- ndPNCounter -->
<g id="node34" class="node"><title>ndPNCounter</title>
<g id="a_node34_12"><a xlink:href="https://github.com/rust-crdt/rust-crdt/blob/master/src/pncounter.rs#:~:text=struct%20PNCounter" xlink:title="&lt;TABLE&gt;">
<polygon fill="lightblue" stroke="none" points="1467.5,-214 1467.5,-251 1601.5,-251 1601.5,-214 1467.5,-214"/>
<polygon fill="none" stroke="black" points="1467.5,-214 1467.5,-251 1601.5,-251 1601.5,-214 1467.5,-214"/>
<text text-anchor="start" x="1496.5" y="-229.8" font-family="Arial" font-weight="bold" font-size="14.00">PNCounter</text>
<polygon fill="white" stroke="none" points="1467.5,-162 1467.5,-214 1601.5,-214 1601.5,-162 1467.5,-162"/>
<polygon fill="none" stroke="black" points="1467.5,-162 1467.5,-214 1601.5,-214 1601.5,-162 1467.5,-162"/>
<text text-anchor="start" x="1478.5" y="-191.8" font-family="Arial" font-size="14.00">&#45; p: GCounter&lt;A&gt;</text>
<text text-anchor="start" x="1478.5" y="-176.8" font-family="Arial" font-size="14.00">&#45; n: GCounter&lt;A&gt;</text>
<polygon fill="none" stroke="black" points="1466.5,-161.5 1466.5,-252.5 1602.5,-252.5 1602.5,-161.5 1466.5,-161.5"/>
</a>
</g>
</g>
<!-- ndOp&#45;&gt;ndPNCounter -->
<g id="edge10" class="edge"><title>ndOp&#45;&gt;ndPNCounter</title>
<path fill="none" stroke="black" stroke-dasharray="5,2" d="M1471.31,-584.69C1465.35,-505.843 1481.58,-350.772 1504.12,-266.264"/>
<polygon fill="black" stroke="black" points="1506.82,-256.567 1508.47,-267.409 1505.48,-261.383 1504.14,-266.199 1504.14,-266.199 1504.14,-266.199 1505.48,-261.383 1499.8,-264.99 1506.82,-256.567 1506.82,-256.567"/>
</g>
<!-- ndOp&#45;&gt;ndPNCounter -->
<g id="edge69" class="edge"><title>ndOp&#45;&gt;ndPNCounter</title>
<path fill="none" stroke="black" stroke-dasharray="5,2" d="M1480.29,-584.69C1480.13,-505.923 1496.54,-351.087 1513.7,-266.522"/>
<polygon fill="black" stroke="black" points="1515.79,-256.567 1518.14,-267.28 1514.76,-261.46 1513.73,-266.353 1513.73,-266.353 1513.73,-266.353 1514.76,-261.46 1509.33,-265.426 1515.79,-256.567 1515.79,-256.567"/>
</g>
<!-- ndOp&#45;&gt;ndPNCounter -->
<g id="edge80" class="edge"><title>ndOp&#45;&gt;ndPNCounter</title>
<path fill="none" stroke="black" stroke-dasharray="5,2" d="M1489.28,-584.69C1494.9,-505.923 1511.53,-351.087 1523.35,-266.522"/>
<polygon fill="black" stroke="black" points="1524.76,-256.567 1527.81,-267.101 1524.06,-261.518 1523.36,-266.468 1523.36,-266.468 1523.36,-266.468 1524.06,-261.518 1518.9,-265.834 1524.76,-256.567 1524.76,-256.567"/>
</g>
<!-- ndOp&#45;&gt;ndPNCounter -->
<g id="edge91" class="edge"><title>ndOp&#45;&gt;ndPNCounter</title>
<path fill="none" stroke="black" stroke-dasharray="5,2" d="M1498.27,-584.69C1509.67,-506.003 1526.49,-351.401 1532.98,-266.78"/>
<polygon fill="black" stroke="black" points="1533.73,-256.567 1537.48,-266.872 1533.37,-261.554 1533,-266.54 1533,-266.54 1533,-266.54 1533.37,-261.554 1528.51,-266.208 1533.73,-256.567 1533.73,-256.567"/>
</g>
<!-- ndOp&#45;&gt;ndPNCounter -->
<g id="edge112" class="edge"><title>ndOp&#45;&gt;ndPNCounter</title>
<path fill="none" stroke="black" stroke-dasharray="5,2" d="M1507.26,-584.69C1524.44,-506.003 1541.49,-351.401 1542.64,-266.78"/>
<polygon fill="black" stroke="black" points="1542.7,-256.567 1547.15,-266.594 1542.67,-261.567 1542.65,-266.567 1542.65,-266.567 1542.65,-266.567 1542.67,-261.567 1538.15,-266.541 1542.7,-256.567 1542.7,-256.567"/>
</g>
<!-- ndOp&#45;&gt;ndPNCounter -->
<g id="edge123" class="edge"><title>ndOp&#45;&gt;ndPNCounter</title>
<path fill="none" stroke="black" stroke-dasharray="5,2" d="M1516.25,-584.69C1539.21,-506.003 1556.48,-351.401 1552.31,-266.78"/>
<polygon fill="black" stroke="black" points="1551.67,-256.567 1556.79,-266.269 1551.99,-261.558 1552.3,-266.548 1552.3,-266.548 1552.3,-266.548 1551.99,-261.558 1547.8,-266.828 1551.67,-256.567 1551.67,-256.567"/>
</g>
<!-- ndOrswot -->
<g id="node36" class="node"><title>ndOrswot</title>
<g id="a_node36_13"><a xlink:href="https://github.com/rust-crdt/rust-crdt/blob/master/src/orswot.rs#:~:text=struct%20Orswot" xlink:title="&lt;TABLE&gt;">
<polygon fill="lightblue" stroke="none" points="1220.5,-72 1220.5,-109 1550.5,-109 1550.5,-72 1220.5,-72"/>
<polygon fill="none" stroke="black" points="1220.5,-72 1220.5,-109 1550.5,-109 1550.5,-72 1220.5,-72"/>
<text text-anchor="start" x="1360" y="-87.8" font-family="Arial" font-weight="bold" font-size="14.00">Orswot</text>
<polygon fill="white" stroke="none" points="1220.5,-5 1220.5,-72 1550.5,-72 1550.5,-5 1220.5,-5"/>
<polygon fill="none" stroke="black" points="1220.5,-5 1220.5,-72 1550.5,-72 1550.5,-5 1220.5,-5"/>
<text text-anchor="start" x="1231.5" y="-49.8" font-family="Arial" font-size="14.00">&#45; clock: VClock&lt;A&gt;</text>
<text text-anchor="start" x="1231.5" y="-34.8" font-family="Arial" font-size="14.00">&#45; entries: HashMap&lt;M, VClock&lt;A&gt;&gt;</text>
<text text-anchor="start" x="1231.5" y="-19.8" font-family="Arial" font-size="14.00">&#45; deferred: HashMap&lt;VClock&lt;A&gt;, HashSet&lt;M&gt;&gt;</text>
<polygon fill="none" stroke="black" points="1219.5,-4 1219.5,-110 1551.5,-110 1551.5,-4 1219.5,-4"/>
</a>
</g>
</g>
<!-- ndOp&#45;&gt;ndOrswot -->
<g id="edge11" class="edge"><title>ndOp&#45;&gt;ndOrswot</title>
<path fill="none" stroke="black" stroke-dasharray="5,2" d="M1459.99,-584.929C1423.93,-481.946 1380,-241.539 1374.86,-124.45"/>
<polygon fill="black" stroke="black" points="1374.51,-114.193 1379.35,-124.03 1374.68,-119.19 1374.86,-124.187 1374.86,-124.187 1374.86,-124.187 1374.68,-119.19 1370.36,-124.344 1374.51,-114.193 1374.51,-114.193"/>
</g>
<!-- ndOp&#45;&gt;ndOrswot -->
<g id="edge70" class="edge"><title>ndOp&#45;&gt;ndOrswot</title>
<path fill="none" stroke="black" stroke-dasharray="5,2" d="M1467.92,-584.929C1438.91,-481.946 1395.34,-241.539 1383.88,-124.45"/>
<polygon fill="black" stroke="black" points="1382.93,-114.193 1388.33,-123.736 1383.39,-119.171 1383.85,-124.15 1383.85,-124.15 1383.85,-124.15 1383.39,-119.171 1379.37,-124.565 1382.93,-114.193 1382.93,-114.193"/>
</g>
<!-- ndOp&#45;&gt;ndOrswot -->
<g id="edge81" class="edge"><title>ndOp&#45;&gt;ndOrswot</title>
<path fill="none" stroke="black" stroke-dasharray="5,2" d="M1475.84,-584.929C1453.87,-481.842 1410.59,-241.056 1392.83,-124.097"/>
<polygon fill="black" stroke="black" points="1391.35,-114.193 1397.28,-123.414 1392.09,-119.137 1392.83,-124.082 1392.83,-124.082 1392.83,-124.082 1392.09,-119.137 1388.38,-124.75 1391.35,-114.193 1391.35,-114.193"/>
</g>
<!-- ndOp&#45;&gt;ndOrswot -->
<g id="edge92" class="edge"><title>ndOp&#45;&gt;ndOrswot</title>
<path fill="none" stroke="black" stroke-dasharray="5,2" d="M1483.77,-584.929C1468.85,-481.842 1425.93,-241.056 1401.83,-124.097"/>
<polygon fill="black" stroke="black" points="1399.77,-114.193 1406.21,-123.068 1400.78,-119.088 1401.8,-123.983 1401.8,-123.983 1401.8,-123.983 1400.78,-119.088 1397.4,-124.899 1399.77,-114.193 1399.77,-114.193"/>
</g>
<!-- ndOp&#45;&gt;ndOrswot -->
<g id="edge113" class="edge"><title>ndOp&#45;&gt;ndOrswot</title>
<path fill="none" stroke="black" stroke-dasharray="5,2" d="M1491.7,-584.929C1483.83,-481.842 1441.27,-241.056 1410.82,-124.097"/>
<polygon fill="black" stroke="black" points="1408.19,-114.193 1415.1,-122.702 1409.47,-119.025 1410.75,-123.858 1410.75,-123.858 1410.75,-123.858 1409.47,-119.025 1406.41,-125.013 1408.19,-114.193 1408.19,-114.193"/>
</g>
<!-- ndOp&#45;&gt;ndOrswot -->
<g id="edge124" class="edge"><title>ndOp&#45;&gt;ndOrswot</title>
<path fill="none" stroke="black" stroke-dasharray="5,2" d="M1499.62,-584.929C1498.82,-481.739 1456.53,-240.571 1419.7,-123.745"/>
<polygon fill="black" stroke="black" points="1416.61,-114.193 1423.97,-122.321 1418.15,-118.95 1419.69,-123.707 1419.69,-123.707 1419.69,-123.707 1418.15,-118.95 1415.41,-125.093 1416.61,-114.193 1416.61,-114.193"/>
</g>
<!-- ndCmRDTValidation -->
<g id="node5" class="node"><title>ndCmRDTValidation</title>
<g id="a_node5_14"><a xlink:href="https://github.com/rust-crdt/rust-crdt/blob/master/src/map.rs#:~:text=enum%20CmRDTValidation" xlink:title="&lt;TABLE&gt;">
<polygon fill="yellow" stroke="none" points="2734.5,-776.5 2734.5,-813.5 2978.5,-813.5 2978.5,-776.5 2734.5,-776.5"/>
<polygon fill="none" stroke="black" points="2734.5,-776.5 2734.5,-813.5 2978.5,-813.5 2978.5,-776.5 2734.5,-776.5"/>
<text text-anchor="start" x="2795.5" y="-792.3" font-family="Arial" font-weight="bold" font-size="14.00">CmRDTValidation</text>
<polygon fill="white" stroke="none" points="2734.5,-724.5 2734.5,-776.5 2978.5,-776.5 2978.5,-724.5 2734.5,-724.5"/>
<polygon fill="none" stroke="black" points="2734.5,-724.5 2734.5,-776.5 2978.5,-776.5 2978.5,-724.5 2734.5,-724.5"/>
<text text-anchor="start" x="2745.5" y="-754.3" font-family="Arial" font-size="14.00">SourceOrder(crate::DotRange&lt;A&gt;)</text>
<text text-anchor="start" x="2745.5" y="-739.3" font-family="Arial" font-size="14.00">Value(V::Validation)</text>
<polygon fill="none" stroke="black" points="2733.5,-724 2733.5,-815 2979.5,-815 2979.5,-724 2733.5,-724"/>
</a>
</g>
</g>
<!-- ndCvRDTValidation -->
<g id="node6" class="node"><title>ndCvRDTValidation</title>
<g id="a_node6_15"><a xlink:href="https://github.com/rust-crdt/rust-crdt/blob/master/src/map.rs#:~:text=enum%20CvRDTValidation" xlink:title="&lt;TABLE&gt;">
<polygon fill="yellow" stroke="none" points="3014.5,-776.5 3014.5,-813.5 3158.5,-813.5 3158.5,-776.5 3014.5,-776.5"/>
<polygon fill="none" stroke="black" points="3014.5,-776.5 3014.5,-813.5 3158.5,-813.5 3158.5,-776.5 3014.5,-776.5"/>
<text text-anchor="start" x="3027.5" y="-792.3" font-family="Arial" font-weight="bold" font-size="14.00">CvRDTValidation</text>
<polygon fill="white" stroke="none" points="3014.5,-724.5 3014.5,-776.5 3158.5,-776.5 3158.5,-724.5 3014.5,-724.5"/>
<polygon fill="none" stroke="black" points="3014.5,-724.5 3014.5,-776.5 3158.5,-776.5 3158.5,-724.5 3014.5,-724.5"/>
<text text-anchor="start" x="3025.5" y="-754.3" font-family="Arial" font-size="14.00">DoubleSpentDot</text>
<text text-anchor="start" x="3025.5" y="-739.3" font-family="Arial" font-size="14.00">Value(V::Validation)</text>
<polygon fill="none" stroke="black" points="3013.5,-724 3013.5,-815 3159.5,-815 3159.5,-724 3013.5,-724"/>
</a>
</g>
</g>
<!-- ndActor -->
<g id="node7" class="node"><title>ndActor</title>
<g id="a_node7_16"><a xlink:href="https://github.com/rust-crdt/rust-crdt/blob/master/src/traits.rs#:~:text=trait%20Actor" xlink:title="&lt;TABLE&gt;">
<polygon fill="lightgreen" stroke="none" points="3194.5,-750.5 3194.5,-787.5 3254.5,-787.5 3254.5,-750.5 3194.5,-750.5"/>
<polygon fill="none" stroke="black" points="3194.5,-750.5 3194.5,-787.5 3254.5,-787.5 3254.5,-750.5 3194.5,-750.5"/>
<text text-anchor="start" x="3205.5" y="-766.3" font-family="Arial" font-weight="bold" font-size="14.00">Actor</text>
<polygon fill="none" stroke="black" points="3193.5,-750 3193.5,-789 3255.5,-789 3255.5,-750 3193.5,-750"/>
</a>
</g>
</g>
<!-- ndCvRDT -->
<g id="node8" class="node"><title>ndCvRDT</title>
<g id="a_node8_17"><a xlink:href="https://github.com/rust-crdt/rust-crdt/blob/master/src/traits.rs#:~:text=trait%20CvRDT" xlink:title="&lt;TABLE&gt;">
<polygon fill="lightgreen" stroke="none" points="2353.5,-615.5 2353.5,-652.5 2424.5,-652.5 2424.5,-615.5 2353.5,-615.5"/>
<polygon fill="none" stroke="black" points="2353.5,-615.5 2353.5,-652.5 2424.5,-652.5 2424.5,-615.5 2353.5,-615.5"/>
<text text-anchor="start" x="2364.5" y="-631.3" font-family="Arial" font-weight="bold" font-size="14.00">CvRDT</text>
<polygon fill="none" stroke="black" points="2352,-615 2352,-654 2425,-654 2425,-615 2352,-615"/>
</a>
</g>
</g>
<!-- ndCvRDT&#45;&gt;ndMap -->
<g id="edge12" class="edge"><title>ndCvRDT&#45;&gt;ndMap</title>
<path fill="none" stroke="black" stroke-dasharray="5,2" d="M2408.49,-610.588C2417.89,-601.23 2429.81,-591.175 2442.5,-585 2525.68,-544.529 2588.01,-619.843 2647.5,-549 2723.57,-458.411 2650.09,-368.281 2553.5,-300 2348,-154.735 2256.52,-186.36 2007.5,-150 1648.74,-97.6166 739.437,-170.197 363.159,-114.127"/>
<polygon fill="none" stroke="black" points="363.419,-110.626 353.003,-112.561 362.353,-117.544 363.419,-110.626"/>
</g>
<!-- ndCvRDT&#45;&gt;ndMerkleReg -->
<g id="edge13" class="edge"><title>ndCvRDT&#45;&gt;ndMerkleReg</title>
<path fill="none" stroke="black" stroke-dasharray="5,2" d="M2370.83,-610.926C2359.35,-596.268 2343.77,-576.367 2328.68,-557.089"/>
<polygon fill="none" stroke="black" points="2331.4,-554.888 2322.48,-549.171 2325.89,-559.203 2331.4,-554.888"/>
</g>
<!-- ndCvRDT&#45;&gt;ndGSet -->
<g id="edge14" class="edge"><title>ndCvRDT&#45;&gt;ndGSet</title>
<path fill="none" stroke="black" stroke-dasharray="5,2" d="M2369.52,-610.764C2360.07,-601.076 2347.82,-590.709 2334.5,-585 2146.02,-504.209 2070.36,-609.766 1874.5,-549 1865.77,-546.292 1856.98,-542.691 1848.44,-538.615"/>
<polygon fill="none" stroke="black" points="1849.79,-535.38 1839.29,-534.027 1846.66,-541.638 1849.79,-535.38"/>
</g>
<!-- ndCvRDT&#45;&gt;ndGCounter -->
<g id="edge15" class="edge"><title>ndCvRDT&#45;&gt;ndGCounter</title>
<path fill="none" stroke="black" stroke-dasharray="5,2" d="M2408.68,-610.957C2418.11,-601.667 2430.01,-591.563 2442.5,-585 2503.2,-553.118 2550.05,-602.84 2592.5,-549 2623.87,-509.212 2627.69,-471.456 2592.5,-435 2553.32,-394.401 1633.71,-403.934 1577.5,-399 1490.35,-391.35 1391.55,-376.862 1322.08,-365.706"/>
<polygon fill="none" stroke="black" points="1322.48,-362.225 1312.05,-364.085 1321.37,-369.135 1322.48,-362.225"/>
</g>
<!-- ndCvRDT&#45;&gt;ndLWWReg -->
<g id="edge16" class="edge"><title>ndCvRDT&#45;&gt;ndLWWReg</title>
<path fill="none" stroke="black" stroke-dasharray="5,2" d="M2406.33,-610.926C2419.38,-594.418 2437.67,-571.26 2454.6,-549.832"/>
<polygon fill="none" stroke="black" points="2457.56,-551.738 2461.01,-541.721 2452.06,-547.398 2457.56,-551.738"/>
</g>
<!-- ndCvRDT&#45;&gt;ndGList -->
<g id="edge17" class="edge"><title>ndCvRDT&#45;&gt;ndGList</title>
<path fill="none" stroke="black" stroke-dasharray="5,2" d="M2368.52,-610.563C2359.13,-601.201 2347.2,-591.149 2334.5,-585 2249.26,-543.744 2215.09,-576.575 2124.5,-549 2114.14,-545.845 2103.5,-542.04 2093.02,-537.916"/>
<polygon fill="none" stroke="black" points="2094.04,-534.551 2083.46,-534.048 2091.42,-541.041 2094.04,-534.551"/>
</g>
<!-- ndCvRDT&#45;&gt;ndMVReg -->
<g id="edge18" class="edge"><title>ndCvRDT&#45;&gt;ndMVReg</title>
<path fill="none" stroke="black" stroke-dasharray="5,2" d="M2407.22,-610.98C2416.7,-601.212 2429.05,-590.718 2442.5,-585 2544.82,-541.511 2865.77,-630.393 2941.5,-549 2971.7,-516.543 2972.52,-181.671 2941.5,-150 2907.69,-115.484 1250.76,-116.372 1202.5,-114 991.103,-103.611 745.468,-82.6206 602.357,-69.4964"/>
<polygon fill="none" stroke="black" points="602.51,-65.9959 592.232,-68.5653 601.869,-72.9665 602.51,-65.9959"/>
</g>
<!-- ndCvRDT&#45;&gt;ndVClock -->
<g id="edge19" class="edge"><title>ndCvRDT&#45;&gt;ndVClock</title>
<path fill="none" stroke="black" stroke-dasharray="5,2" d="M2369.83,-610.877C2360.35,-601.087 2348,-590.603 2334.5,-585 2200.06,-529.206 1825.68,-559.476 1680.5,-549 1502.07,-536.125 1295.47,-516.819 1169.68,-504.57"/>
<polygon fill="none" stroke="black" points="1169.93,-501.078 1159.64,-503.591 1169.25,-508.045 1169.93,-501.078"/>
</g>
<!-- ndCvRDT&#45;&gt;ndPNCounter -->
<g id="edge20" class="edge"><title>ndCvRDT&#45;&gt;ndPNCounter</title>
<path fill="none" stroke="black" stroke-dasharray="5,2" d="M2408.57,-610.749C2417.98,-601.42 2429.89,-591.344 2442.5,-585 2514.21,-548.914 2568.71,-611.165 2619.5,-549 2701.68,-448.418 2585.59,-351.857 2466.5,-300 2315.85,-234.402 1822.16,-215.039 1620.98,-209.793"/>
<polygon fill="none" stroke="black" points="1620.84,-206.289 1610.76,-209.532 1620.67,-213.287 1620.84,-206.289"/>
</g>
<!-- ndCvRDT&#45;&gt;ndOrswot -->
<g id="edge21" class="edge"><title>ndCvRDT&#45;&gt;ndOrswot</title>
<path fill="none" stroke="black" stroke-dasharray="5,2" d="M2407.2,-610.949C2416.68,-601.175 2429.03,-590.684 2442.5,-585 2497.59,-561.748 2938.65,-592.677 2979.5,-549 3100.63,-419.481 3101.23,-278.956 2979.5,-150 2931.77,-99.431 1979.2,-71.6073 1569.85,-61.9457"/>
<polygon fill="none" stroke="black" points="1569.77,-58.4428 1559.69,-61.7069 1569.6,-65.4409 1569.77,-58.4428"/>
</g>
<!-- ndCmRDT -->
<g id="node9" class="node"><title>ndCmRDT</title>
<g id="a_node9_18"><a xlink:href="https://github.com/rust-crdt/rust-crdt/blob/master/src/traits.rs#:~:text=trait%20CmRDT" xlink:title="&lt;TABLE&gt;">
<polygon fill="lightgreen" stroke="none" points="2240.5,-615.5 2240.5,-652.5 2316.5,-652.5 2316.5,-615.5 2240.5,-615.5"/>
<polygon fill="none" stroke="black" points="2240.5,-615.5 2240.5,-652.5 2316.5,-652.5 2316.5,-615.5 2240.5,-615.5"/>
<text text-anchor="start" x="2251.5" y="-631.3" font-family="Arial" font-weight="bold" font-size="14.00">CmRDT</text>
<polygon fill="none" stroke="black" points="2239.5,-615 2239.5,-654 2317.5,-654 2317.5,-615 2239.5,-615"/>
</a>
</g>
</g>
<!-- ndCmRDT&#45;&gt;ndMap -->
<g id="edge22" class="edge"><title>ndCmRDT&#45;&gt;ndMap</title>
<path fill="none" stroke="black" stroke-dasharray="5,2" d="M2298.42,-610.972C2308.28,-601.327 2320.95,-590.937 2334.5,-585 2399.84,-556.363 2605.97,-602.197 2653.5,-549 2745.71,-445.795 2593.96,-353.932 2466.5,-300 2114.42,-151.025 1999.82,-188.906 1619.5,-150 1344.54,-121.872 653.976,-158.041 363.182,-114.131"/>
<polygon fill="none" stroke="black" points="363.429,-110.627 353.007,-112.535 362.344,-117.542 363.429,-110.627"/>
</g>
<!-- ndCmRDT&#45;&gt;ndMerkleReg -->
<g id="edge23" class="edge"><title>ndCmRDT&#45;&gt;ndMerkleReg</title>
<path fill="none" stroke="black" stroke-dasharray="5,2" d="M2278.5,-610.926C2278.5,-596.854 2278.5,-577.95 2278.5,-559.405"/>
<polygon fill="none" stroke="black" points="2282,-559.171 2278.5,-549.171 2275,-559.171 2282,-559.171"/>
</g>
<!-- ndCmRDT&#45;&gt;ndGSet -->
<g id="edge24" class="edge"><title>ndCmRDT&#45;&gt;ndGSet</title>
<path fill="none" stroke="black" stroke-dasharray="5,2" d="M2258.6,-610.914C2248.75,-601.258 2236.07,-590.874 2222.5,-585 2079.8,-523.245 2022.42,-596.927 1874.5,-549 1865.94,-546.227 1857.31,-542.627 1848.91,-538.59"/>
<polygon fill="none" stroke="black" points="1850.4,-535.425 1839.9,-534.056 1847.26,-541.678 1850.4,-535.425"/>
</g>
<!-- ndCmRDT&#45;&gt;ndGCounter -->
<g id="edge25" class="edge"><title>ndCmRDT&#45;&gt;ndGCounter</title>
<path fill="none" stroke="black" stroke-dasharray="5,2" d="M2298.8,-610.98C2308.64,-601.46 2321.2,-591.168 2334.5,-585 2428.77,-541.291 2497.92,-627.927 2565.5,-549 2598.45,-510.514 2600.67,-471.473 2565.5,-435 2527.38,-395.461 1632.21,-403.83 1577.5,-399 1490.36,-391.308 1391.55,-376.826 1322.09,-365.682"/>
<polygon fill="none" stroke="black" points="1322.48,-362.201 1312.05,-364.063 1321.37,-369.111 1322.48,-362.201"/>
</g>
<!-- ndCmRDT&#45;&gt;ndLWWReg -->
<g id="edge26" class="edge"><title>ndCmRDT&#45;&gt;ndLWWReg</title>
<path fill="none" stroke="black" stroke-dasharray="5,2" d="M2300.74,-610.935C2310.48,-601.972 2322.42,-592.122 2334.5,-585 2374.47,-561.427 2392.33,-572.222 2432.5,-549 2433.61,-548.36 2434.71,-547.701 2435.82,-547.026"/>
<polygon fill="none" stroke="black" points="2437.77,-549.933 2444.25,-541.552 2433.96,-544.062 2437.77,-549.933"/>
</g>
<!-- ndCmRDT&#45;&gt;ndList -->
<g id="edge27" class="edge"><title>ndCmRDT&#45;&gt;ndList</title>
<path fill="none" stroke="black" stroke-dasharray="5,2" d="M2298.74,-610.86C2308.57,-601.315 2321.14,-591.037 2334.5,-585 2388.66,-560.529 2560.41,-593.762 2599.5,-549 2632.83,-510.838 2633.51,-472.555 2599.5,-435 2554.89,-385.739 2156.37,-364.05 1920.84,-355.462"/>
<polygon fill="none" stroke="black" points="1920.91,-351.962 1910.79,-355.1 1920.66,-358.958 1920.91,-351.962"/>
</g>
<!-- ndCmRDT&#45;&gt;ndGList -->
<g id="edge28" class="edge"><title>ndCmRDT&#45;&gt;ndGList</title>
<path fill="none" stroke="black" stroke-dasharray="5,2" d="M2256.26,-610.935C2246.52,-601.972 2234.58,-592.122 2222.5,-585 2182.53,-561.427 2167.48,-566.496 2124.5,-549 2116.09,-545.576 2107.41,-541.927 2098.72,-538.197"/>
<polygon fill="none" stroke="black" points="2099.87,-534.883 2089.31,-534.125 2097.09,-541.307 2099.87,-534.883"/>
</g>
<!-- ndCmRDT&#45;&gt;ndMVReg -->
<g id="edge29" class="edge"><title>ndCmRDT&#45;&gt;ndMVReg</title>
<path fill="none" stroke="black" stroke-dasharray="5,2" d="M2298.37,-610.863C2308.22,-601.195 2320.9,-590.817 2334.5,-585 2412.28,-551.726 2656.58,-611.587 2713.5,-549 2832.82,-417.812 2837.39,-276.878 2713.5,-150 2684.17,-119.961 1244.43,-116.126 1202.5,-114 991.12,-103.281 745.479,-82.3952 602.363,-69.381"/>
<polygon fill="none" stroke="black" points="602.514,-65.8803 592.237,-68.4578 601.878,-72.8514 602.514,-65.8803"/>
</g>
<!-- ndCmRDT&#45;&gt;ndVClock -->
<g id="edge30" class="edge"><title>ndCmRDT&#45;&gt;ndVClock</title>
<path fill="none" stroke="black" stroke-dasharray="5,2" d="M2258.95,-610.939C2249.09,-601.163 2236.3,-590.673 2222.5,-585 2110.86,-539.103 1800.85,-558.37 1680.5,-549 1502.14,-535.114 1295.52,-516.09 1169.7,-504.176"/>
<polygon fill="none" stroke="black" points="1169.95,-500.683 1159.66,-503.224 1169.29,-507.652 1169.95,-500.683"/>
</g>
<!-- ndCmRDT&#45;&gt;ndPNCounter -->
<g id="edge31" class="edge"><title>ndCmRDT&#45;&gt;ndPNCounter</title>
<path fill="none" stroke="black" stroke-dasharray="5,2" d="M2298.71,-610.784C2308.53,-601.224 2321.1,-590.955 2334.5,-585 2394.25,-558.447 2583.19,-597.978 2626.5,-549 2660.06,-511.045 2658.47,-474.304 2626.5,-435 2499.25,-278.572 1856.23,-226.423 1620.93,-212.416"/>
<polygon fill="none" stroke="black" points="1620.89,-208.908 1610.7,-211.817 1620.48,-215.896 1620.89,-208.908"/>
</g>
<!-- ndCmRDT&#45;&gt;ndOrswot -->
<g id="edge32" class="edge"><title>ndCmRDT&#45;&gt;ndOrswot</title>
<path fill="none" stroke="black" stroke-dasharray="5,2" d="M2298.33,-610.765C2308.17,-601.077 2320.86,-590.71 2334.5,-585 2428.06,-545.843 2720.67,-623.495 2789.5,-549 2909.85,-418.755 2910.72,-279.428 2789.5,-150 2748.43,-106.149 1941.03,-75.3556 1569.6,-63.4536"/>
<polygon fill="none" stroke="black" points="1569.66,-59.9538 1559.56,-63.1329 1569.44,-66.9503 1569.66,-59.9538"/>
</g>
<!-- ndResetRemove -->
<g id="node10" class="node"><title>ndResetRemove</title>
<g id="a_node10_19"><a xlink:href="https://github.com/rust-crdt/rust-crdt/blob/master/src/traits.rs#:~:text=trait%20ResetRemove" xlink:title="&lt;TABLE&gt;">
<polygon fill="lightgreen" stroke="none" points="760.5,-615.5 760.5,-652.5 878.5,-652.5 878.5,-615.5 760.5,-615.5"/>
<polygon fill="none" stroke="black" points="760.5,-615.5 760.5,-652.5 878.5,-652.5 878.5,-615.5 760.5,-615.5"/>
<text text-anchor="start" x="771.5" y="-631.3" font-family="Arial" font-weight="bold" font-size="14.00">ResetRemove</text>
<polygon fill="none" stroke="black" points="759.5,-615 759.5,-654 879.5,-654 879.5,-615 759.5,-615"/>
</a>
</g>
</g>
<!-- ndResetRemove&#45;&gt;ndMap -->
<g id="edge33" class="edge"><title>ndResetRemove&#45;&gt;ndMap</title>
<path fill="none" stroke="black" stroke-dasharray="5,2" d="M791.218,-610.998C777.347,-601.235 759.905,-590.738 742.5,-585 640.913,-551.507 351.531,-608.29 262.5,-549 144.212,-470.226 150.635,-402.201 117.5,-264 105.687,-214.73 103.249,-198.621 117.5,-150 120.174,-140.878 124.06,-131.803 128.583,-123.106"/>
<polygon fill="none" stroke="black" points="131.734,-124.64 133.502,-114.193 125.606,-121.257 131.734,-124.64"/>
</g>
<!-- ndResetRemove&#45;&gt;ndGCounter -->
<g id="edge34" class="edge"><title>ndResetRemove&#45;&gt;ndGCounter</title>
<path fill="none" stroke="black" stroke-dasharray="5,2" d="M822.224,-610.732C828.555,-568.649 848.359,-478.986 905.5,-435 990.273,-369.743 1042.1,-433.113 1143.5,-399 1146.63,-397.948 1149.77,-396.79 1152.92,-395.547"/>
<polygon fill="none" stroke="black" points="1154.48,-398.688 1162.34,-391.584 1151.76,-392.236 1154.48,-398.688"/>
</g>
<!-- ndResetRemove&#45;&gt;ndMVReg -->
<g id="edge35" class="edge"><title>ndResetRemove&#45;&gt;ndMVReg</title>
<path fill="none" stroke="black" stroke-dasharray="5,2" d="M790.387,-610.816C776.613,-601.263 759.485,-590.99 742.5,-585 612.108,-539.017 561.131,-602.168 433.5,-549 334.827,-507.895 291.867,-495.312 245.5,-399 195.309,-294.746 241.874,-233.951 321.5,-150 338.264,-132.325 359.182,-117.035 380.308,-104.271"/>
<polygon fill="none" stroke="black" points="382.193,-107.223 389.042,-99.1395 378.647,-101.188 382.193,-107.223"/>
</g>
<!-- ndResetRemove&#45;&gt;ndVClock -->
<g id="edge36" class="edge"><title>ndResetRemove&#45;&gt;ndVClock</title>
<path fill="none" stroke="black" stroke-dasharray="5,2" d="M857.096,-610.926C889.112,-591.703 936.147,-563.462 976.162,-539.436"/>
<polygon fill="none" stroke="black" points="978.077,-542.368 984.849,-534.22 974.474,-536.367 978.077,-542.368"/>
</g>
<!-- ndResetRemove&#45;&gt;ndPNCounter -->
<g id="edge37" class="edge"><title>ndResetRemove&#45;&gt;ndPNCounter</title>
<path fill="none" stroke="black" stroke-dasharray="5,2" d="M798.04,-610.634C745.483,-551.897 620.55,-393.769 704.5,-300 753.535,-245.229 1245.88,-219.497 1448.29,-211.17"/>
<polygon fill="none" stroke="black" points="1448.44,-214.667 1458.29,-210.763 1448.16,-207.672 1448.44,-214.667"/>
</g>
<!-- ndResetRemove&#45;&gt;ndOrswot -->
<g id="edge38" class="edge"><title>ndResetRemove&#45;&gt;ndOrswot</title>
<path fill="none" stroke="black" stroke-dasharray="5,2" d="M783.914,-610.938C770.908,-602.731 756.062,-593.408 742.5,-585 716.392,-568.814 699.505,-575.219 683.5,-549 625.782,-454.45 613.359,-393.666 672.5,-300 730.121,-208.74 1010.07,-134.523 1201.55,-93.3327"/>
<polygon fill="none" stroke="black" points="1202.4,-96.7282 1211.45,-91.2142 1200.94,-89.883 1202.4,-96.7282"/>
</g>
<!-- ndReadCtx -->
<g id="node11" class="node"><title>ndReadCtx</title>
<g id="a_node11_20"><a xlink:href="https://github.com/rust-crdt/rust-crdt/blob/master/src/ctx.rs#:~:text=struct%20ReadCtx" xlink:title="&lt;TABLE&gt;">
<polygon fill="lightblue" stroke="none" points="463.5,-222 463.5,-259 642.5,-259 642.5,-222 463.5,-222"/>
<polygon fill="none" stroke="black" points="463.5,-222 463.5,-259 642.5,-259 642.5,-222 463.5,-222"/>
<text text-anchor="start" x="523.5" y="-237.8" font-family="Arial" font-weight="bold" font-size="14.00">ReadCtx</text>
<polygon fill="white" stroke="none" points="463.5,-155 463.5,-222 642.5,-222 642.5,-155 463.5,-155"/>
<polygon fill="none" stroke="black" points="463.5,-155 463.5,-222 642.5,-222 642.5,-155 463.5,-155"/>
<text text-anchor="start" x="474.5" y="-199.8" font-family="Arial" font-size="14.00">+ add_clock: VClock&lt;A&gt;</text>
<text text-anchor="start" x="474.5" y="-184.8" font-family="Arial" font-size="14.00">+ rm_clock: VClock&lt;A&gt;</text>
<text text-anchor="start" x="474.5" y="-169.8" font-family="Arial" font-size="14.00">+ val: V</text>
<polygon fill="none" stroke="black" points="462,-154 462,-260 643,-260 643,-154 462,-154"/>
</a>
</g>
</g>
<!-- ndReadCtx&#45;&gt;ndMap -->
<g id="edge39" class="edge"><title>ndReadCtx&#45;&gt;ndMap</title>
<path fill="none" stroke="black" d="M453.71,-167.115C415.378,-152.026 370.603,-134.402 328.359,-117.774"/>
<polygon fill="black" stroke="black" points="318.821,-114.02 329.775,-113.495 323.474,-115.851 328.126,-117.683 328.126,-117.683 328.126,-117.683 323.474,-115.851 326.478,-121.87 318.821,-114.02 318.821,-114.02"/>
</g>
<!-- ndReadCtx&#45;&gt;ndMVReg -->
<g id="edge40" class="edge"><title>ndReadCtx&#45;&gt;ndMVReg</title>
<path fill="none" stroke="black" d="M525.455,-149.625C518.896,-135.953 511.928,-121.428 505.519,-108.069"/>
<polygon fill="black" stroke="black" points="501.184,-99.0312 509.567,-106.101 503.347,-103.539 505.509,-108.047 505.509,-108.047 505.509,-108.047 503.347,-103.539 501.452,-109.994 501.184,-99.0312 501.184,-99.0312"/>
</g>
<!-- ndReadCtx&#45;&gt;ndOrswot -->
<g id="edge41" class="edge"><title>ndReadCtx&#45;&gt;ndOrswot</title>
<path fill="none" stroke="black" d="M651.265,-154.78C656.025,-153.033 660.784,-151.426 665.5,-150 842.667,-96.4367 1053.54,-74.0519 1201.13,-64.7007"/>
<polygon fill="black" stroke="black" points="1211.2,-64.0765 1201.5,-69.1865 1206.21,-64.3858 1201.22,-64.6951 1201.22,-64.6951 1201.22,-64.6951 1206.21,-64.3858 1200.94,-60.2037 1211.2,-64.0765 1211.2,-64.0765"/>
</g>
<!-- ndAddCtx -->
<g id="node12" class="node"><title>ndAddCtx</title>
<g id="a_node12_21"><a xlink:href="https://github.com/rust-crdt/rust-crdt/blob/master/src/ctx.rs#:~:text=struct%20AddCtx" xlink:title="&lt;TABLE&gt;">
<polygon fill="lightblue" stroke="none" points="387.5,-356.5 387.5,-393.5 534.5,-393.5 534.5,-356.5 387.5,-356.5"/>
<polygon fill="none" stroke="black" points="387.5,-356.5 387.5,-393.5 534.5,-393.5 534.5,-356.5 387.5,-356.5"/>
<text text-anchor="start" x="435" y="-372.3" font-family="Arial" font-weight="bold" font-size="14.00">AddCtx</text>
<polygon fill="white" stroke="none" points="387.5,-304.5 387.5,-356.5 534.5,-356.5 534.5,-304.5 387.5,-304.5"/>
<polygon fill="none" stroke="black" points="387.5,-304.5 387.5,-356.5 534.5,-356.5 534.5,-304.5 387.5,-304.5"/>
<text text-anchor="start" x="398.5" y="-334.3" font-family="Arial" font-size="14.00">+ clock: VClock&lt;A&gt;</text>
<text text-anchor="start" x="398.5" y="-319.3" font-family="Arial" font-size="14.00">+ dot: Dot&lt;A&gt;</text>
<polygon fill="none" stroke="black" points="386,-304 386,-395 535,-395 535,-304 386,-304"/>
</a>
</g>
</g>
<!-- ndAddCtx&#45;&gt;ndReadCtx -->
<g id="edge42" class="edge"><title>ndAddCtx&#45;&gt;ndReadCtx</title>
<path fill="none" stroke="black" d="M492.419,-299.754C498.082,-291.105 504.061,-281.975 509.963,-272.962"/>
<polygon fill="black" stroke="black" points="515.585,-264.375 513.872,-275.206 512.846,-268.558 510.107,-272.741 510.107,-272.741 510.107,-272.741 512.846,-268.558 506.342,-270.276 515.585,-264.375 515.585,-264.375"/>
</g>
<!-- ndRmCtx -->
<g id="node13" class="node"><title>ndRmCtx</title>
<g id="a_node13_22"><a xlink:href="https://github.com/rust-crdt/rust-crdt/blob/master/src/ctx.rs#:~:text=struct%20RmCtx" xlink:title="&lt;TABLE&gt;">
<polygon fill="lightblue" stroke="none" points="723.5,-349.5 723.5,-386.5 870.5,-386.5 870.5,-349.5 723.5,-349.5"/>
<polygon fill="none" stroke="black" points="723.5,-349.5 723.5,-386.5 870.5,-386.5 870.5,-349.5 723.5,-349.5"/>
<text text-anchor="start" x="774" y="-365.3" font-family="Arial" font-weight="bold" font-size="14.00">RmCtx</text>
<polygon fill="white" stroke="none" points="723.5,-312.5 723.5,-349.5 870.5,-349.5 870.5,-312.5 723.5,-312.5"/>
<polygon fill="none" stroke="black" points="723.5,-312.5 723.5,-349.5 870.5,-349.5 870.5,-312.5 723.5,-312.5"/>
<text text-anchor="start" x="734.5" y="-327.3" font-family="Arial" font-size="14.00">+ clock: VClock&lt;A&gt;</text>
<polygon fill="none" stroke="black" points="722,-311.5 722,-387.5 871,-387.5 871,-311.5 722,-311.5"/>
</a>
</g>
</g>
<!-- ndRmCtx&#45;&gt;ndReadCtx -->
<g id="edge43" class="edge"><title>ndRmCtx&#45;&gt;ndReadCtx</title>
<path fill="none" stroke="black" d="M725.269,-307.484C704.531,-295.543 681.411,-282.229 659,-269.325"/>
<polygon fill="black" stroke="black" points="650.12,-264.212 661.032,-265.302 654.453,-266.707 658.786,-269.202 658.786,-269.202 658.786,-269.202 654.453,-266.707 656.541,-273.101 650.12,-264.212 650.12,-264.212"/>
</g>
<!-- ndNode -->
<g id="node14" class="node"><title>ndNode</title>
<g id="a_node14_23"><a xlink:href="https://github.com/rust-crdt/rust-crdt/blob/master/src/merkle_reg.rs#:~:text=struct%20Node" xlink:title="&lt;TABLE&gt;">
<polygon fill="lightblue" stroke="none" points="1683.5,-641.5 1683.5,-678.5 1884.5,-678.5 1884.5,-641.5 1683.5,-641.5"/>
<polygon fill="none" stroke="black" points="1683.5,-641.5 1683.5,-678.5 1884.5,-678.5 1884.5,-641.5 1683.5,-641.5"/>
<text text-anchor="start" x="1765.5" y="-657.3" font-family="Arial" font-weight="bold" font-size="14.00">Node</text>
<polygon fill="white" stroke="none" points="1683.5,-589.5 1683.5,-641.5 1884.5,-641.5 1884.5,-589.5 1683.5,-589.5"/>
<polygon fill="none" stroke="black" points="1683.5,-589.5 1683.5,-641.5 1884.5,-641.5 1884.5,-589.5 1683.5,-589.5"/>
<text text-anchor="start" x="1694.5" y="-619.3" font-family="Arial" font-size="14.00">+ children: BTreeSet&lt;Hash&gt;</text>
<text text-anchor="start" x="1694.5" y="-604.3" font-family="Arial" font-size="14.00">+ value: T</text>
<polygon fill="none" stroke="black" points="1682,-589 1682,-680 1885,-680 1885,-589 1682,-589"/>
</a>
</g>
</g>
<!-- ndNode&#45;&gt;ndMerkleReg -->
<g id="edge44" class="edge"><title>ndNode&#45;&gt;ndMerkleReg</title>
<path fill="none" stroke="black" d="M1893.08,-587.785C1896.24,-586.806 1899.39,-585.875 1902.5,-585 1995.63,-558.836 2025.83,-573.19 2123.27,-549.177"/>
<polygon fill="black" stroke="black" points="2133.23,-546.648 2124.65,-553.471 2128.39,-547.879 2123.54,-549.109 2123.54,-549.109 2123.54,-549.109 2128.39,-547.879 2122.43,-544.747 2133.23,-546.648 2133.23,-546.648"/>
</g>
<!-- ndContent -->
<g id="node15" class="node"><title>ndContent</title>
<g id="a_node15_24"><a xlink:href="https://github.com/rust-crdt/rust-crdt/blob/master/src/merkle_reg.rs#:~:text=struct%20Content" xlink:title="&lt;TABLE&gt;">
<polygon fill="lightblue" stroke="none" points="1920.5,-634.5 1920.5,-671.5 2204.5,-671.5 2204.5,-634.5 1920.5,-634.5"/>
<polygon fill="none" stroke="black" points="1920.5,-634.5 1920.5,-671.5 2204.5,-671.5 2204.5,-634.5 1920.5,-634.5"/>
<text text-anchor="start" x="2035" y="-650.3" font-family="Arial" font-weight="bold" font-size="14.00">Content</text>
<polygon fill="white" stroke="none" points="1920.5,-597.5 1920.5,-634.5 2204.5,-634.5 2204.5,-597.5 1920.5,-597.5"/>
<polygon fill="none" stroke="black" points="1920.5,-597.5 1920.5,-634.5 2204.5,-634.5 2204.5,-597.5 1920.5,-597.5"/>
<text text-anchor="start" x="1931.5" y="-612.3" font-family="Arial" font-size="14.00">&#45; nodes: BTreeMap&lt;Hash, &amp;&#39;a Node&lt;T&gt;&gt;</text>
<polygon fill="none" stroke="black" points="1919.5,-596.5 1919.5,-672.5 2205.5,-672.5 2205.5,-596.5 1919.5,-596.5"/>
</a>
</g>
</g>
<!-- ndContent&#45;&gt;ndMerkleReg -->
<g id="edge45" class="edge"><title>ndContent&#45;&gt;ndMerkleReg</title>
<path fill="none" stroke="black" d="M2125.56,-592.484C2143.75,-580.648 2164.02,-567.465 2183.69,-554.668"/>
<polygon fill="black" stroke="black" points="2192.08,-549.212 2186.15,-558.436 2187.89,-551.938 2183.7,-554.664 2183.7,-554.664 2183.7,-554.664 2187.89,-551.938 2181.25,-550.892 2192.08,-549.212 2192.08,-549.212"/>
</g>
<!-- ndValidationError -->
<g id="node17" class="node"><title>ndValidationError</title>
<g id="a_node17_25"><a xlink:href="https://github.com/rust-crdt/rust-crdt/blob/master/src/merkle_reg.rs#:~:text=enum%20ValidationError" xlink:title="&lt;TABLE&gt;">
<polygon fill="yellow" stroke="none" points="3290.5,-769.5 3290.5,-806.5 3434.5,-806.5 3434.5,-769.5 3290.5,-769.5"/>
<polygon fill="none" stroke="black" points="3290.5,-769.5 3290.5,-806.5 3434.5,-806.5 3434.5,-769.5 3290.5,-769.5"/>
<text text-anchor="start" x="3309.5" y="-785.3" font-family="Arial" font-weight="bold" font-size="14.00">ValidationError</text>
<polygon fill="white" stroke="none" points="3290.5,-732.5 3290.5,-769.5 3434.5,-769.5 3434.5,-732.5 3290.5,-732.5"/>
<polygon fill="none" stroke="black" points="3290.5,-732.5 3290.5,-769.5 3434.5,-769.5 3434.5,-732.5 3290.5,-732.5"/>
<text text-anchor="start" x="3301.5" y="-747.3" font-family="Arial" font-size="14.00">MissingChild(Hash)</text>
<polygon fill="none" stroke="black" points="3289.5,-731.5 3289.5,-807.5 3435.5,-807.5 3435.5,-731.5 3289.5,-731.5"/>
</a>
</g>
</g>
<!-- ndSha3Hash -->
<g id="node18" class="node"><title>ndSha3Hash</title>
<g id="a_node18_26"><a xlink:href="https://github.com/rust-crdt/rust-crdt/blob/master/src/merkle_reg.rs#:~:text=trait%20Sha3Hash" xlink:title="&lt;TABLE&gt;">
<polygon fill="lightgreen" stroke="none" points="3471.5,-750.5 3471.5,-787.5 3564.5,-787.5 3564.5,-750.5 3471.5,-750.5"/>
<polygon fill="none" stroke="black" points="3471.5,-750.5 3471.5,-787.5 3564.5,-787.5 3564.5,-750.5 3471.5,-750.5"/>
<text text-anchor="start" x="3482.5" y="-766.3" font-family="Arial" font-weight="bold" font-size="14.00">Sha3Hash</text>
<polygon fill="none" stroke="black" points="3470,-750 3470,-789 3565,-789 3565,-750 3470,-750"/>
</a>
</g>
</g>
<!-- ndGCounter&#45;&gt;ndPNCounter -->
<g id="edge46" class="edge"><title>ndGCounter&#45;&gt;ndPNCounter</title>
<path fill="none" stroke="black" d="M1312.24,-311.401C1353.88,-292.031 1404.89,-268.297 1447.54,-248.455"/>
<polygon fill="black" stroke="black" points="1447.6,-248.429 1451.35,-242.271 1458.48,-243.367 1454.73,-249.525 1447.6,-248.429"/>
</g>
<!-- ndDot -->
<g id="node21" class="node"><title>ndDot</title>
<g id="a_node21_27"><a xlink:href="https://github.com/rust-crdt/rust-crdt/blob/master/src/dot.rs#:~:text=struct%20Dot" xlink:title="&lt;TABLE&gt;">
<polygon fill="lightblue" stroke="none" points="1127.5,-776.5 1127.5,-813.5 1240.5,-813.5 1240.5,-776.5 1127.5,-776.5"/>
<polygon fill="none" stroke="black" points="1127.5,-776.5 1127.5,-813.5 1240.5,-813.5 1240.5,-776.5 1127.5,-776.5"/>
<text text-anchor="start" x="1171.5" y="-792.3" font-family="Arial" font-weight="bold" font-size="14.00">Dot</text>
<polygon fill="white" stroke="none" points="1127.5,-724.5 1127.5,-776.5 1240.5,-776.5 1240.5,-724.5 1127.5,-724.5"/>
<polygon fill="none" stroke="black" points="1127.5,-724.5 1127.5,-776.5 1240.5,-776.5 1240.5,-724.5 1127.5,-724.5"/>
<text text-anchor="start" x="1138.5" y="-754.3" font-family="Arial" font-size="14.00">+ actor: A</text>
<text text-anchor="start" x="1138.5" y="-739.3" font-family="Arial" font-size="14.00">+ counter: u64</text>
<polygon fill="none" stroke="black" points="1126,-724 1126,-815 1241,-815 1241,-724 1126,-724"/>
</a>
</g>
</g>
<!-- ndDot&#45;&gt;ndOp -->
<g id="edge47" class="edge"><title>ndDot&#45;&gt;ndOp</title>
<path fill="none" stroke="black" d="M1249.31,-734.594C1308.67,-707.481 1393.88,-670.764 1445.19,-650.496"/>
<polygon fill="black" stroke="black" points="1454.67,-646.789 1446.99,-654.621 1450.01,-648.609 1445.35,-650.43 1445.35,-650.43 1445.35,-650.43 1450.01,-648.609 1443.72,-646.239 1454.67,-646.789 1454.67,-646.789"/>
</g>
<!-- ndDot&#45;&gt;ndOp -->
<g id="edge51" class="edge"><title>ndDot&#45;&gt;ndOp</title>
<path fill="none" stroke="black" d="M1249.3,-739.805C1308.7,-713.906 1394.36,-676.553 1445.43,-654.283"/>
<polygon fill="black" stroke="black" points="1454.85,-650.172 1447.49,-658.294 1450.27,-652.171 1445.69,-654.17 1445.69,-654.17 1445.69,-654.17 1450.27,-652.171 1443.89,-650.045 1454.85,-650.172 1454.85,-650.172"/>
</g>
<!-- ndDot&#45;&gt;ndOp -->
<g id="edge54" class="edge"><title>ndDot&#45;&gt;ndOp</title>
<path fill="none" stroke="black" d="M1249.04,-744.569C1307.82,-720.581 1392.08,-683.845 1443.6,-659.746"/>
<polygon fill="black" stroke="black" points="1443.85,-659.628 1447.57,-653.45 1454.71,-654.506 1450.99,-660.684 1443.85,-659.628"/>
</g>
<!-- ndDot&#45;&gt;ndAddCtx -->
<g id="edge48" class="edge"><title>ndDot&#45;&gt;ndAddCtx</title>
<path fill="none" stroke="black" d="M1117.76,-723.464C1114.69,-722.17 1111.6,-721.004 1108.5,-720 1036.53,-696.67 480.567,-738.897 428.5,-684 359.303,-611.043 398.155,-484.537 430.682,-410.075"/>
<polygon fill="black" stroke="black" points="430.722,-409.986 429.523,-402.875 435.626,-399.033 436.825,-406.144 430.722,-409.986"/>
</g>
<!-- ndDot&#45;&gt;ndGCounter -->
<g id="edge49" class="edge"><title>ndDot&#45;&gt;ndGCounter</title>
<path fill="none" stroke="black" d="M1118.11,-719.933C1052.2,-669.339 957.542,-591.626 938.5,-549 917.835,-502.739 905.919,-473.802 938.5,-435 997.986,-364.157 1056.18,-429.535 1143.5,-399 1146.57,-397.925 1149.67,-396.753 1152.76,-395.502"/>
<polygon fill="black" stroke="black" points="1162.03,-391.535 1154.61,-399.606 1157.44,-393.502 1152.84,-395.469 1152.84,-395.469 1152.84,-395.469 1157.44,-393.502 1151.07,-391.332 1162.03,-391.535 1162.03,-391.535"/>
</g>
<!-- ndCausalityBarrier -->
<g id="node26" class="node"><title>ndCausalityBarrier</title>
<g id="a_node26_28"><a xlink:href="https://github.com/rust-crdt/rust-crdt/blob/master/src/vvwe.rs#:~:text=struct%20CausalityBarrier" xlink:title="&lt;TABLE&gt;">
<polygon fill="lightblue" stroke="none" points="2460.5,-641.5 2460.5,-678.5 2702.5,-678.5 2702.5,-641.5 2460.5,-641.5"/>
<polygon fill="none" stroke="black" points="2460.5,-641.5 2460.5,-678.5 2702.5,-678.5 2702.5,-641.5 2460.5,-641.5"/>
<text text-anchor="start" x="2524.5" y="-657.3" font-family="Arial" font-weight="bold" font-size="14.00">CausalityBarrier</text>
<polygon fill="white" stroke="none" points="2460.5,-589.5 2460.5,-641.5 2702.5,-641.5 2702.5,-589.5 2460.5,-589.5"/>
<polygon fill="none" stroke="black" points="2460.5,-589.5 2460.5,-641.5 2702.5,-641.5 2702.5,-589.5 2460.5,-589.5"/>
<text text-anchor="start" x="2471.5" y="-619.3" font-family="Arial" font-size="14.00">&#45; peers: HashMap&lt;A, VectorEntry&gt;</text>
<text text-anchor="start" x="2471.5" y="-604.3" font-family="Arial" font-size="14.00">&#45; buffer: HashMap&lt;Dot&lt;A&gt;, T&gt;</text>
<polygon fill="none" stroke="black" points="2459.5,-589 2459.5,-680 2703.5,-680 2703.5,-589 2459.5,-589"/>
</a>
</g>
</g>
<!-- ndDot&#45;&gt;ndCausalityBarrier -->
<g id="edge50" class="edge"><title>ndDot&#45;&gt;ndCausalityBarrier</title>
<path fill="none" stroke="black" d="M1249.15,-749.279C1288.6,-738.621 1340,-726.284 1386.5,-720 1847.46,-657.711 1978.01,-767.836 2439.43,-684.192"/>
<polygon fill="black" stroke="black" points="2439.63,-684.155 2444.81,-679.136 2451.43,-681.985 2446.25,-687.004 2439.63,-684.155"/>
</g>
<!-- ndDot&#45;&gt;ndVClock -->
<g id="edge52" class="edge"><title>ndDot&#45;&gt;ndVClock</title>
<path fill="none" stroke="black" d="M1160.56,-719.88C1137.16,-670.291 1101.01,-593.695 1077.31,-543.453"/>
<polygon fill="black" stroke="black" points="1073.03,-534.391 1081.37,-541.514 1075.16,-538.913 1077.3,-543.434 1077.3,-543.434 1077.3,-543.434 1075.16,-538.913 1073.23,-545.355 1073.03,-534.391 1073.03,-534.391"/>
</g>
<!-- ndIntoIter -->
<g id="node33" class="node"><title>ndIntoIter</title>
<g id="a_node33_29"><a xlink:href="https://github.com/rust-crdt/rust-crdt/blob/master/src/vclock.rs#:~:text=struct%20IntoIter" xlink:title="&lt;TABLE&gt;">
<polygon fill="lightblue" stroke="none" points="446.5,-634.5 446.5,-671.5 724.5,-671.5 724.5,-634.5 446.5,-634.5"/>
<polygon fill="none" stroke="black" points="446.5,-634.5 446.5,-671.5 724.5,-671.5 724.5,-634.5 446.5,-634.5"/>
<text text-anchor="start" x="561" y="-650.3" font-family="Arial" font-weight="bold" font-size="14.00">IntoIter</text>
<polygon fill="white" stroke="none" points="446.5,-597.5 446.5,-634.5 724.5,-634.5 724.5,-597.5 446.5,-597.5"/>
<polygon fill="none" stroke="black" points="446.5,-597.5 446.5,-634.5 724.5,-634.5 724.5,-597.5 446.5,-597.5"/>
<text text-anchor="start" x="457.5" y="-612.3" font-family="Arial" font-size="14.00">&#45; btree_iter: btree_map::IntoIter&lt;A, u64&gt;</text>
<polygon fill="none" stroke="black" points="445.5,-596.5 445.5,-672.5 725.5,-672.5 725.5,-596.5 445.5,-596.5"/>
</a>
</g>
</g>
<!-- ndDot&#45;&gt;ndIntoIter -->
<g id="edge53" class="edge"><title>ndDot&#45;&gt;ndIntoIter</title>
<path fill="none" stroke="black" d="M1117.7,-723.64C1114.65,-722.298 1111.57,-721.074 1108.5,-720 954.19,-666.102 902.731,-716.286 742.5,-684 735.208,-682.531 727.773,-680.858 720.299,-679.037"/>
<polygon fill="black" stroke="black" points="710.461,-676.565 721.256,-674.638 715.31,-677.784 720.159,-679.002 720.159,-679.002 720.159,-679.002 715.31,-677.784 719.062,-683.367 710.461,-676.565 710.461,-676.565"/>
</g>
<!-- ndOrdDot -->
<g id="node22" class="node"><title>ndOrdDot</title>
<g id="a_node22_30"><a xlink:href="https://github.com/rust-crdt/rust-crdt/blob/master/src/dot.rs#:~:text=struct%20OrdDot" xlink:title="&lt;TABLE&gt;">
<polygon fill="lightblue" stroke="none" points="1490.5,-776.5 1490.5,-813.5 1603.5,-813.5 1603.5,-776.5 1490.5,-776.5"/>
<polygon fill="none" stroke="black" points="1490.5,-776.5 1490.5,-813.5 1603.5,-813.5 1603.5,-776.5 1490.5,-776.5"/>
<text text-anchor="start" x="1521.5" y="-792.3" font-family="Arial" font-weight="bold" font-size="14.00">OrdDot</text>
<polygon fill="white" stroke="none" points="1490.5,-724.5 1490.5,-776.5 1603.5,-776.5 1603.5,-724.5 1490.5,-724.5"/>
<polygon fill="none" stroke="black" points="1490.5,-724.5 1490.5,-776.5 1603.5,-776.5 1603.5,-724.5 1490.5,-724.5"/>
<text text-anchor="start" x="1501.5" y="-754.3" font-family="Arial" font-size="14.00">+ actor: A</text>
<text text-anchor="start" x="1501.5" y="-739.3" font-family="Arial" font-size="14.00">+ counter: u64</text>
<polygon fill="none" stroke="black" points="1489,-724 1489,-815 1604,-815 1604,-724 1489,-724"/>
</a>
</g>
</g>
<!-- ndOrdDot&#45;&gt;ndOp -->
<g id="edge55" class="edge"><title>ndOrdDot&#45;&gt;ndOp</title>
<path fill="none" stroke="black" d="M1518.7,-719.731C1514.78,-711.238 1510.84,-702.328 1507.14,-693.614"/>
<polygon fill="black" stroke="black" points="1503.23,-684.263 1511.24,-691.755 1505.16,-688.877 1507.09,-693.49 1507.09,-693.49 1507.09,-693.49 1505.16,-688.877 1502.94,-695.225 1503.23,-684.263 1503.23,-684.263"/>
</g>
<!-- ndOrdDot&#45;&gt;ndOp -->
<g id="edge57" class="edge"><title>ndOrdDot&#45;&gt;ndOp</title>
<path fill="none" stroke="black" d="M1531.76,-719.731C1528.27,-711.238 1524.45,-702.328 1520.54,-693.614"/>
<polygon fill="black" stroke="black" points="1516.3,-684.263 1524.53,-691.506 1518.37,-688.815 1520.43,-693.368 1520.43,-693.368 1520.43,-693.368 1518.37,-688.815 1516.34,-695.229 1516.3,-684.263 1516.3,-684.263"/>
</g>
<!-- ndOrdDot&#45;&gt;ndList -->
<g id="edge56" class="edge"><title>ndOrdDot&#45;&gt;ndList</title>
<path fill="none" stroke="black" d="M1612.25,-764.95C1879.86,-750.425 2873.47,-695.746 2884.5,-684 3055.02,-502.374 2752.36,-476.958 2619.5,-435 2493.93,-395.345 2139.05,-370.649 1922.98,-358.836"/>
<polygon fill="black" stroke="black" points="1922.86,-358.83 1916.65,-362.499 1910.88,-358.18 1917.09,-354.511 1922.86,-358.83"/>
</g>
<!-- ndDotRange -->
<g id="node23" class="node"><title>ndDotRange</title>
<g id="a_node23_31"><a xlink:href="https://github.com/rust-crdt/rust-crdt/blob/master/src/dot.rs#:~:text=struct%20DotRange" xlink:title="&lt;TABLE&gt;">
<polygon fill="lightblue" stroke="none" points="3600.5,-776.5 3600.5,-813.5 3884.5,-813.5 3884.5,-776.5 3600.5,-776.5"/>
<polygon fill="none" stroke="black" points="3600.5,-776.5 3600.5,-813.5 3884.5,-813.5 3884.5,-776.5 3600.5,-776.5"/>
<text text-anchor="start" x="3708" y="-792.3" font-family="Arial" font-weight="bold" font-size="14.00">DotRange</text>
<polygon fill="white" stroke="none" points="3600.5,-724.5 3600.5,-776.5 3884.5,-776.5 3884.5,-724.5 3600.5,-724.5"/>
<polygon fill="none" stroke="black" points="3600.5,-724.5 3600.5,-776.5 3884.5,-776.5 3884.5,-724.5 3600.5,-724.5"/>
<text text-anchor="start" x="3611.5" y="-754.3" font-family="Arial" font-size="14.00">+ actor: A</text>
<text text-anchor="start" x="3611.5" y="-739.3" font-family="Arial" font-size="14.00">+ counter_range: core::ops::Range&lt;u64&gt;</text>
<polygon fill="none" stroke="black" points="3599.5,-724 3599.5,-815 3885.5,-815 3885.5,-724 3599.5,-724"/>
</a>
</g>
</g>
<!-- ndValidation -->
<g id="node25" class="node"><title>ndValidation</title>
<g id="a_node25_32"><a xlink:href="https://github.com/rust-crdt/rust-crdt/blob/master/src/orswot.rs#:~:text=enum%20Validation" xlink:title="&lt;TABLE&gt;">
<polygon fill="yellow" stroke="none" points="2738.5,-634.5 2738.5,-671.5 2866.5,-671.5 2866.5,-634.5 2738.5,-634.5"/>
<polygon fill="none" stroke="black" points="2738.5,-634.5 2738.5,-671.5 2866.5,-671.5 2866.5,-634.5 2738.5,-634.5"/>
<text text-anchor="start" x="2768" y="-650.3" font-family="Arial" font-weight="bold" font-size="14.00">Validation</text>
<polygon fill="white" stroke="none" points="2738.5,-597.5 2738.5,-634.5 2866.5,-634.5 2866.5,-597.5 2738.5,-597.5"/>
<polygon fill="none" stroke="black" points="2738.5,-597.5 2738.5,-634.5 2866.5,-634.5 2866.5,-597.5 2738.5,-597.5"/>
<text text-anchor="start" x="2749.5" y="-612.3" font-family="Arial" font-size="14.00">DoubleSpentDot</text>
<polygon fill="none" stroke="black" points="2737.5,-596.5 2737.5,-672.5 2867.5,-672.5 2867.5,-596.5 2737.5,-596.5"/>
</a>
</g>
</g>
<!-- ndValidation&#45;&gt;ndLWWReg -->
<g id="edge58" class="edge"><title>ndValidation&#45;&gt;ndLWWReg</title>
<path fill="none" stroke="black" d="M2729.09,-594.26C2723.18,-591.023 2717.27,-587.888 2711.5,-585 2664,-561.21 2608.83,-538.239 2566.62,-521.201"/>
<polygon fill="black" stroke="black" points="2557.27,-517.44 2568.23,-516.999 2561.91,-519.307 2566.55,-521.173 2566.55,-521.173 2566.55,-521.173 2561.91,-519.307 2564.87,-525.348 2557.27,-517.44 2557.27,-517.44"/>
</g>
<!-- ndValidation&#45;&gt;ndLWWReg -->
<g id="edge125" class="edge"><title>ndValidation&#45;&gt;ndLWWReg</title>
<path fill="none" stroke="black" d="M2743.42,-592.282C2738.76,-589.747 2734.08,-587.296 2729.5,-585 2676.14,-558.275 2613.1,-532.583 2566.44,-515.175"/>
<polygon fill="black" stroke="black" points="2557.04,-511.697 2567.98,-510.946 2561.73,-513.432 2566.42,-515.167 2566.42,-515.167 2566.42,-515.167 2561.73,-513.432 2564.86,-519.387 2557.04,-511.697 2557.04,-511.697"/>
</g>
<!-- ndVectorEntry -->
<g id="node27" class="node"><title>ndVectorEntry</title>
<g id="a_node27_33"><a xlink:href="https://github.com/rust-crdt/rust-crdt/blob/master/src/vvwe.rs#:~:text=struct%20VectorEntry" xlink:title="&lt;TABLE&gt;">
<polygon fill="lightblue" stroke="none" points="2464.5,-776.5 2464.5,-813.5 2698.5,-813.5 2698.5,-776.5 2464.5,-776.5"/>
<polygon fill="none" stroke="black" points="2464.5,-776.5 2464.5,-813.5 2698.5,-813.5 2698.5,-776.5 2464.5,-776.5"/>
<text text-anchor="start" x="2540" y="-792.3" font-family="Arial" font-weight="bold" font-size="14.00">VectorEntry</text>
<polygon fill="white" stroke="none" points="2464.5,-724.5 2464.5,-776.5 2698.5,-776.5 2698.5,-724.5 2464.5,-724.5"/>
<polygon fill="none" stroke="black" points="2464.5,-724.5 2464.5,-776.5 2698.5,-776.5 2698.5,-724.5 2464.5,-724.5"/>
<text text-anchor="start" x="2475.5" y="-754.3" font-family="Arial" font-size="14.00">&#45; next_version: LogTime</text>
<text text-anchor="start" x="2475.5" y="-739.3" font-family="Arial" font-size="14.00">&#45; exceptions: HashSet&lt;LogTime&gt;</text>
<polygon fill="none" stroke="black" points="2463.5,-724 2463.5,-815 2699.5,-815 2699.5,-724 2463.5,-724"/>
</a>
</g>
</g>
<!-- ndVectorEntry&#45;&gt;ndCausalityBarrier -->
<g id="edge59" class="edge"><title>ndVectorEntry&#45;&gt;ndCausalityBarrier</title>
<path fill="none" stroke="black" d="M2581.5,-719.731C2581.5,-711.509 2581.5,-702.896 2581.5,-694.449"/>
<polygon fill="black" stroke="black" points="2581.5,-684.263 2586,-694.263 2581.5,-689.263 2581.5,-694.263 2581.5,-694.263 2581.5,-694.263 2581.5,-689.263 2577,-694.263 2581.5,-684.263 2581.5,-684.263"/>
</g>
<!-- ndCausalOp -->
<g id="node28" class="node"><title>ndCausalOp</title>
<g id="a_node28_34"><a xlink:href="https://github.com/rust-crdt/rust-crdt/blob/master/src/vvwe.rs#:~:text=trait%20CausalOp" xlink:title="&lt;TABLE&gt;">
<polygon fill="lightgreen" stroke="none" points="3921.5,-750.5 3921.5,-787.5 4012.5,-787.5 4012.5,-750.5 3921.5,-750.5"/>
<polygon fill="none" stroke="black" points="3921.5,-750.5 3921.5,-787.5 4012.5,-787.5 4012.5,-750.5 3921.5,-750.5"/>
<text text-anchor="start" x="3932.5" y="-766.3" font-family="Arial" font-weight="bold" font-size="14.00">CausalOp</text>
<polygon fill="none" stroke="black" points="3920,-750 3920,-789 4013,-789 4013,-750 3920,-750"/>
</a>
</g>
</g>
<!-- ndVClock&#45;&gt;ndMap -->
<g id="edge93" class="edge"><title>ndVClock&#45;&gt;ndMap</title>
<path fill="none" stroke="black" d="M947.405,-480.653C865.551,-469.316 751.484,-446.038 661.5,-399 603.21,-368.53 608.293,-333.176 551.5,-300 508.175,-274.692 488.772,-287.611 444.5,-264 371.594,-225.118 297.817,-166.694 246.18,-121.984"/>
<polygon fill="black" stroke="black" points="246.167,-121.973 239.016,-121.044 237.123,-114.086 244.274,-115.015 246.167,-121.973"/>
</g>
<!-- ndVClock&#45;&gt;ndEntry -->
<g id="edge94" class="edge"><title>ndVClock&#45;&gt;ndEntry</title>
<path fill="none" stroke="black" d="M1053.79,-449.984C1053.88,-437.892 1053.97,-424.393 1054.07,-411.337"/>
<polygon fill="black" stroke="black" points="1054.07,-411.014 1050.11,-404.986 1054.15,-399.014 1058.11,-405.043 1054.07,-411.014"/>
</g>
<!-- ndVClock&#45;&gt;ndReadCtx -->
<g id="edge95" class="edge"><title>ndVClock&#45;&gt;ndReadCtx</title>
<path fill="none" stroke="black" d="M947.279,-486.953C871.656,-478.847 771.893,-456.855 704.5,-399 668.101,-367.753 690.139,-338.484 661.5,-300 654.404,-290.464 646.137,-281.27 637.387,-272.625"/>
<polygon fill="black" stroke="black" points="637.195,-272.442 630.091,-271.204 628.502,-264.17 635.606,-265.408 637.195,-272.442"/>
</g>
<!-- ndVClock&#45;&gt;ndAddCtx -->
<g id="edge96" class="edge"><title>ndVClock&#45;&gt;ndAddCtx</title>
<path fill="none" stroke="black" d="M947.383,-469.522C862.23,-451.863 739.785,-425.516 633.5,-399 608.026,-392.645 580.601,-385.226 555.263,-378.129"/>
<polygon fill="black" stroke="black" points="554.948,-378.041 548.088,-380.264 543.397,-374.787 550.257,-372.564 554.948,-378.041"/>
</g>
<!-- ndVClock&#45;&gt;ndRmCtx -->
<g id="edge97" class="edge"><title>ndVClock&#45;&gt;ndRmCtx</title>
<path fill="none" stroke="black" d="M978.474,-449.984C948.389,-433.537 913.545,-414.488 882.448,-397.487"/>
<polygon fill="black" stroke="black" points="882.148,-397.323 874.965,-397.955 871.619,-391.567 878.803,-390.935 882.148,-397.323"/>
</g>
<!-- ndVClock&#45;&gt;ndGCounter -->
<g id="edge98" class="edge"><title>ndVClock&#45;&gt;ndGCounter</title>
<path fill="none" stroke="black" d="M1105.76,-449.984C1126.07,-434.039 1149.5,-415.65 1170.64,-399.052"/>
<polygon fill="black" stroke="black" points="1170.74,-398.976 1172.99,-392.125 1180.18,-391.567 1177.93,-398.418 1170.74,-398.976"/>
</g>
<!-- ndVClock&#45;&gt;ndList -->
<g id="edge99" class="edge"><title>ndVClock&#45;&gt;ndList</title>
<path fill="none" stroke="black" d="M1159.81,-469.508C1269.97,-447.238 1443.95,-412.068 1574.25,-385.726"/>
<polygon fill="black" stroke="black" points="1574.56,-385.664 1579.65,-380.554 1586.32,-383.286 1581.23,-388.395 1574.56,-385.664"/>
</g>
<!-- ndVClock&#45;&gt;ndMVReg -->
<g id="edge100" class="edge"><title>ndVClock&#45;&gt;ndMVReg</title>
<path fill="none" stroke="black" d="M998.916,-449.897C981.054,-434.986 961.87,-417.284 946.5,-399 913.54,-359.792 922.905,-337.015 887.5,-300 803.658,-212.345 764.188,-211.264 659.5,-150 632.863,-134.412 603.309,-118.578 576.059,-104.541"/>
<polygon fill="black" stroke="black" points="576.022,-104.522 568.858,-105.347 565.342,-99.0511 572.506,-98.2265 576.022,-104.522"/>
</g>
<!-- ndVClock&#45;&gt;ndOrswot -->
<g id="edge101" class="edge"><title>ndVClock&#45;&gt;ndOrswot</title>
<path fill="none" stroke="black" d="M1000.63,-449.905C986.115,-435.539 972.251,-418.159 964.5,-399 947.999,-358.211 942.464,-338.084 964.5,-300 1015.57,-211.741 1112.36,-152.86 1200.27,-115.299"/>
<polygon fill="black" stroke="black" points="1200.42,-115.233 1204.41,-109.225 1211.49,-110.596 1207.5,-116.604 1200.42,-115.233"/>
</g>
<!-- ndDir -->
<g id="node35" class="node"><title>ndDir</title>
<g id="a_node35_35"><a xlink:href="https://github.com/rust-crdt/rust-crdt/blob/master/src/pncounter.rs#:~:text=enum%20Dir" xlink:title="&lt;TABLE&gt;">
<polygon fill="yellow" stroke="none" points="1405.5,-776.5 1405.5,-813.5 1454.5,-813.5 1454.5,-776.5 1405.5,-776.5"/>
<polygon fill="none" stroke="black" points="1405.5,-776.5 1405.5,-813.5 1454.5,-813.5 1454.5,-776.5 1405.5,-776.5"/>
<text text-anchor="start" x="1419.5" y="-792.3" font-family="Arial" font-weight="bold" font-size="14.00">Dir</text>
<polygon fill="white" stroke="none" points="1405.5,-724.5 1405.5,-776.5 1454.5,-776.5 1454.5,-724.5 1405.5,-724.5"/>
<polygon fill="none" stroke="black" points="1405.5,-724.5 1405.5,-776.5 1454.5,-776.5 1454.5,-724.5 1405.5,-724.5"/>
<text text-anchor="start" x="1416.5" y="-754.3" font-family="Arial" font-size="14.00">Pos</text>
<text text-anchor="start" x="1416.5" y="-739.3" font-family="Arial" font-size="14.00">Neg</text>
<polygon fill="none" stroke="black" points="1404,-724 1404,-815 1455,-815 1455,-724 1404,-724"/>
</a>
</g>
</g>
<!-- ndDir&#45;&gt;ndOp -->
<g id="edge102" class="edge"><title>ndDir&#45;&gt;ndOp</title>
<path fill="none" stroke="black" d="M1451.13,-719.731C1454.66,-711.78 1458.35,-703.464 1461.98,-695.285"/>
<polygon fill="black" stroke="black" points="1462,-695.232 1460.78,-688.126 1466.87,-684.263 1468.09,-691.37 1462,-695.232"/>
</g>
</g>
</svg>
