<?xml version="1.0" encoding="UTF-8" standalone="no"?>
<!DOCTYPE svg PUBLIC "-//W3C//DTD SVG 1.1//EN"
 "http://www.w3.org/Graphics/SVG/1.1/DTD/svg11.dtd">
<!-- Generated by graphviz version 2.38.0 (20140413.2041)
 -->
<!-- Title: ml Pages: 1 -->
<svg width="2436pt" height="426pt"
 viewBox="0.00 0.00 2436.00 426.00" xmlns="http://www.w3.org/2000/svg" xmlns:xlink="http://www.w3.org/1999/xlink">
<g id="graph0" class="graph" transform="scale(1 1) rotate(0) translate(4 422)">
<title>ml</title>
<polygon fill="white" stroke="none" points="-4,4 -4,-422 2432,-422 2432,4 -4,4"/>
<!-- ndVal -->
<g id="node1" class="node"><title>ndVal</title>
<g id="a_node1_0"><a xlink:href="https://github.com/rust-crdt/rust-crdt/blob/master/src/map.rs#:~:text=trait%20Val" xlink:title="&lt;TABLE&gt;">
<polygon fill="lightgreen" stroke="none" points="419.5,-375.5 419.5,-412.5 463.5,-412.5 463.5,-375.5 419.5,-375.5"/>
<polygon fill="none" stroke="black" points="419.5,-375.5 419.5,-412.5 463.5,-412.5 463.5,-375.5 419.5,-375.5"/>
<text text-anchor="start" x="430.5" y="-391.3" font-family="Arial" font-weight="bold" font-size="14.00">Val</text>
<polygon fill="none" stroke="black" points="418.5,-375 418.5,-414 464.5,-414 464.5,-375 418.5,-375"/>
</a>
</g>
</g>
<!-- ndMap -->
<g id="node2" class="node"><title>ndMap</title>
<text text-anchor="middle" x="307.5" y="-14.3" font-family="Times,serif" font-size="14.00">ndMap</text>
</g>
<!-- ndEntry -->
<g id="node3" class="node"><title>ndEntry</title>
<text text-anchor="middle" x="565.5" y="-158.3" font-family="Times,serif" font-size="14.00">ndEntry</text>
</g>
<!-- ndOp -->
<g id="node4" class="node"><title>ndOp</title>
<g id="a_node4_1"><a xlink:href="https://github.com/rust-crdt/rust-crdt/blob/master/src/orswot.rs#:~:text=enum%20Op" xlink:title="&lt;TABLE&gt;">
<polygon fill="yellow" stroke="none" points="1165.5,-292.5 1165.5,-329.5 1208.5,-329.5 1208.5,-292.5 1165.5,-292.5"/>
<polygon fill="none" stroke="black" points="1165.5,-292.5 1165.5,-329.5 1208.5,-329.5 1208.5,-292.5 1165.5,-292.5"/>
<text text-anchor="start" x="1176.5" y="-308.3" font-family="Arial" font-weight="bold" font-size="14.00">Op</text>
<polygon fill="none" stroke="black" points="1164,-292 1164,-331 1209,-331 1209,-292 1164,-292"/>
</a>
</g>
</g>
<!-- ndOp&#45;&gt;ndMap -->
<g id="edge1" class="edge"><title>ndOp&#45;&gt;ndMap</title>
<path fill="none" stroke="black" stroke-dasharray="5,2" d="M1217.28,-291.99C1220.03,-290.57 1222.79,-289.218 1225.5,-288 1271.65,-267.253 1303.92,-293.046 1333.5,-252 1342.86,-239.02 1343.27,-228.67 1333.5,-216 1295.05,-166.146 1257.02,-197.359 1196.5,-180 1177.09,-174.433 869.328,-75.8048 849.5,-72 646.364,-33.0207 590.141,-66.0942 385.5,-36 372.408,-34.0747 358.232,-31.2209 345.602,-28.399"/>
<polygon fill="black" stroke="black" points="335.854,-26.161 346.607,-24.0128 340.727,-27.2799 345.6,-28.3987 345.6,-28.3987 345.6,-28.3987 340.727,-27.2799 344.594,-32.7846 335.854,-26.161 335.854,-26.161"/>
</g>
<!-- ndMerkleReg -->
<g id="node16" class="node"><title>ndMerkleReg</title>
<text text-anchor="middle" x="1260.5" y="-230.3" font-family="Times,serif" font-size="14.00">ndMerkleReg</text>
</g>
<!-- ndOp&#45;&gt;ndMerkleReg -->
<g id="edge2" class="edge"><title>ndOp&#45;&gt;ndMerkleReg</title>
<path fill="none" stroke="black" stroke-dasharray="5,2" d="M1208.7,-287.848C1217.48,-278.889 1227.59,-268.572 1236.54,-259.445"/>
<polygon fill="black" stroke="black" points="1243.73,-252.114 1239.94,-262.406 1240.23,-255.685 1236.73,-259.256 1236.73,-259.256 1236.73,-259.256 1240.23,-255.685 1233.51,-256.106 1243.73,-252.114 1243.73,-252.114"/>
</g>
<!-- ndGSet -->
<g id="node19" class="node"><title>ndGSet</title>
<text text-anchor="middle" x="973.5" y="-230.3" font-family="Times,serif" font-size="14.00">ndGSet</text>
</g>
<!-- ndOp&#45;&gt;ndGSet -->
<g id="edge3" class="edge"><title>ndOp&#45;&gt;ndGSet</title>
<path fill="none" stroke="black" stroke-dasharray="5,2" d="M1155.98,-299.683C1117.96,-286.207 1052.99,-263.176 1011.7,-248.541"/>
<polygon fill="black" stroke="black" points="1002.26,-245.193 1013.18,-244.292 1006.97,-246.863 1011.68,-248.534 1011.68,-248.534 1011.68,-248.534 1006.97,-246.863 1010.18,-252.775 1002.26,-245.193 1002.26,-245.193"/>
</g>
<!-- ndGCounter -->
<g id="node20" class="node"><title>ndGCounter</title>
<text text-anchor="middle" x="693.5" y="-158.3" font-family="Times,serif" font-size="14.00">ndGCounter</text>
</g>
<!-- ndOp&#45;&gt;ndGCounter -->
<g id="edge4" class="edge"><title>ndOp&#45;&gt;ndGCounter</title>
<path fill="none" stroke="black" stroke-dasharray="5,2" d="M1188.57,-287.797C1189.18,-266.033 1186.25,-233.918 1166.5,-216 1162.62,-212.476 867.235,-181.19 745.281,-168.406"/>
<polygon fill="black" stroke="black" points="735.071,-167.337 745.486,-163.903 740.044,-167.858 745.017,-168.379 745.017,-168.379 745.017,-168.379 740.044,-167.858 744.548,-172.854 735.071,-167.337 735.071,-167.337"/>
</g>
<!-- ndLWWReg -->
<g id="node24" class="node"><title>ndLWWReg</title>
<text text-anchor="middle" x="768.5" y="-230.3" font-family="Times,serif" font-size="14.00">ndLWWReg</text>
</g>
<!-- ndOp&#45;&gt;ndLWWReg -->
<g id="edge5" class="edge"><title>ndOp&#45;&gt;ndLWWReg</title>
<path fill="none" stroke="black" stroke-dasharray="5,2" d="M1155.94,-300.986C1141.12,-296.608 1122.99,-291.599 1106.5,-288 1007.07,-266.303 889.334,-249.908 822.331,-241.437"/>
<polygon fill="black" stroke="black" points="812.023,-240.146 822.505,-236.924 816.985,-240.768 821.946,-241.389 821.946,-241.389 821.946,-241.389 816.985,-240.768 821.387,-245.854 812.023,-240.146 812.023,-240.146"/>
</g>
<!-- ndList -->
<g id="node29" class="node"><title>ndList</title>
<text text-anchor="middle" x="1503.5" y="-158.3" font-family="Times,serif" font-size="14.00">ndList</text>
</g>
<!-- ndOp&#45;&gt;ndList -->
<g id="edge6" class="edge"><title>ndOp&#45;&gt;ndList</title>
<path fill="none" stroke="black" stroke-dasharray="5,2" d="M1217.08,-291.477C1219.87,-290.169 1222.7,-288.982 1225.5,-288 1326.05,-252.77 1377.36,-316.046 1462.5,-252 1482.3,-237.108 1492.84,-210.362 1498.25,-190.065"/>
<polygon fill="black" stroke="black" points="1500.63,-180.136 1502.67,-190.91 1499.46,-184.998 1498.3,-189.86 1498.3,-189.86 1498.3,-189.86 1499.46,-184.998 1493.92,-188.81 1500.63,-180.136 1500.63,-180.136"/>
</g>
<!-- ndGList -->
<g id="node30" class="node"><title>ndGList</title>
<text text-anchor="middle" x="1127.5" y="-230.3" font-family="Times,serif" font-size="14.00">ndGList</text>
</g>
<!-- ndOp&#45;&gt;ndGList -->
<g id="edge7" class="edge"><title>ndOp&#45;&gt;ndGList</title>
<path fill="none" stroke="black" stroke-dasharray="5,2" d="M1168.8,-287.848C1161.94,-279.068 1154.06,-268.984 1147.03,-259.994"/>
<polygon fill="black" stroke="black" points="1140.87,-252.114 1150.58,-257.223 1143.95,-256.054 1147.03,-259.994 1147.03,-259.994 1147.03,-259.994 1143.95,-256.054 1143.49,-262.765 1140.87,-252.114 1140.87,-252.114"/>
</g>
<!-- ndMVReg -->
<g id="node32" class="node"><title>ndMVReg</title>
<text text-anchor="middle" x="431.5" y="-14.3" font-family="Times,serif" font-size="14.00">ndMVReg</text>
</g>
<!-- ndOp&#45;&gt;ndMVReg -->
<g id="edge8" class="edge"><title>ndOp&#45;&gt;ndMVReg</title>
<path fill="none" stroke="black" stroke-dasharray="5,2" d="M1217.16,-291.687C1219.93,-290.333 1222.73,-289.079 1225.5,-288 1298.53,-259.536 1432.06,-279.784 1386.5,-216 1372.16,-195.928 990.601,-77.251 966.5,-72 789.158,-33.362 572.538,-22.8422 478.64,-20.0173"/>
<polygon fill="black" stroke="black" points="468.606,-19.731 478.731,-15.5182 473.604,-19.8737 478.602,-20.0163 478.602,-20.0163 478.602,-20.0163 473.604,-19.8737 478.474,-24.5145 468.606,-19.731 468.606,-19.731"/>
</g>
<!-- ndVClock -->
<g id="node33" class="node"><title>ndVClock</title>
<text text-anchor="middle" x="442.5" y="-230.3" font-family="Times,serif" font-size="14.00">ndVClock</text>
</g>
<!-- ndOp&#45;&gt;ndVClock -->
<g id="edge9" class="edge"><title>ndOp&#45;&gt;ndVClock</title>
<path fill="none" stroke="black" stroke-dasharray="5,2" d="M1155.67,-300.315C1140.95,-295.841 1122.97,-290.945 1106.5,-288 1046.11,-277.204 629.649,-247.893 488.877,-238.177"/>
<polygon fill="black" stroke="black" points="478.837,-237.485 489.122,-233.683 483.825,-237.829 488.813,-238.172 488.813,-238.172 488.813,-238.172 483.825,-237.829 488.503,-242.662 478.837,-237.485 478.837,-237.485"/>
</g>
<!-- ndPNCounter -->
<g id="node35" class="node"><title>ndPNCounter</title>
<text text-anchor="middle" x="763.5" y="-86.3" font-family="Times,serif" font-size="14.00">ndPNCounter</text>
</g>
<!-- ndOp&#45;&gt;ndPNCounter -->
<g id="edge10" class="edge"><title>ndOp&#45;&gt;ndPNCounter</title>
<path fill="none" stroke="black" stroke-dasharray="5,2" d="M1217.36,-292.162C1220.09,-290.705 1222.83,-289.297 1225.5,-288 1264.26,-269.188 1291.35,-287.674 1315.5,-252 1324.47,-238.751 1326.23,-227.869 1315.5,-216 1262.18,-157.014 1036.27,-200.711 959.5,-180 902.046,-164.5 840.234,-133.848 801.715,-112.891"/>
<polygon fill="black" stroke="black" points="792.914,-108.051 803.845,-108.927 797.295,-110.46 801.676,-112.87 801.676,-112.87 801.676,-112.87 797.295,-110.46 799.507,-116.813 792.914,-108.051 792.914,-108.051"/>
</g>
<!-- ndOrswot -->
<g id="node37" class="node"><title>ndOrswot</title>
<text text-anchor="middle" x="807.5" y="-14.3" font-family="Times,serif" font-size="14.00">ndOrswot</text>
</g>
<!-- ndOp&#45;&gt;ndOrswot -->
<g id="edge11" class="edge"><title>ndOp&#45;&gt;ndOrswot</title>
<path fill="none" stroke="black" stroke-dasharray="5,2" d="M1217.11,-291.563C1219.89,-290.236 1222.71,-289.022 1225.5,-288 1313.82,-255.649 1472.64,-296.802 1424.5,-216 1363.84,-114.187 984.753,-46.4755 852.754,-25.7356"/>
<polygon fill="black" stroke="black" points="842.585,-24.1542 853.158,-21.2444 847.526,-24.9226 852.466,-25.6909 852.466,-25.6909 852.466,-25.6909 847.526,-24.9226 851.775,-30.1375 842.585,-24.1542 842.585,-24.1542"/>
</g>
<!-- ndCmRDTValidation -->
<g id="node5" class="node"><title>ndCmRDTValidation</title>
<g id="a_node5_2"><a xlink:href="https://github.com/rust-crdt/rust-crdt/blob/master/src/map.rs#:~:text=enum%20CmRDTValidation" xlink:title="&lt;TABLE&gt;">
<polygon fill="yellow" stroke="none" points="1479.5,-375.5 1479.5,-412.5 1623.5,-412.5 1623.5,-375.5 1479.5,-375.5"/>
<polygon fill="none" stroke="black" points="1479.5,-375.5 1479.5,-412.5 1623.5,-412.5 1623.5,-375.5 1479.5,-375.5"/>
<text text-anchor="start" x="1490.5" y="-391.3" font-family="Arial" font-weight="bold" font-size="14.00">CmRDTValidation</text>
<polygon fill="none" stroke="black" points="1478.5,-375 1478.5,-414 1624.5,-414 1624.5,-375 1478.5,-375"/>
</a>
</g>
</g>
<!-- ndCvRDTValidation -->
<g id="node6" class="node"><title>ndCvRDTValidation</title>
<g id="a_node6_3"><a xlink:href="https://github.com/rust-crdt/rust-crdt/blob/master/src/map.rs#:~:text=enum%20CvRDTValidation" xlink:title="&lt;TABLE&gt;">
<polygon fill="yellow" stroke="none" points="1659.5,-375.5 1659.5,-412.5 1799.5,-412.5 1799.5,-375.5 1659.5,-375.5"/>
<polygon fill="none" stroke="black" points="1659.5,-375.5 1659.5,-412.5 1799.5,-412.5 1799.5,-375.5 1659.5,-375.5"/>
<text text-anchor="start" x="1670.5" y="-391.3" font-family="Arial" font-weight="bold" font-size="14.00">CvRDTValidation</text>
<polygon fill="none" stroke="black" points="1658.5,-375 1658.5,-414 1800.5,-414 1800.5,-375 1658.5,-375"/>
</a>
</g>
</g>
<!-- ndActor -->
<g id="node7" class="node"><title>ndActor</title>
<g id="a_node7_4"><a xlink:href="https://github.com/rust-crdt/rust-crdt/blob/master/src/traits.rs#:~:text=trait%20Actor" xlink:title="&lt;TABLE&gt;">
<polygon fill="lightgreen" stroke="none" points="1835.5,-375.5 1835.5,-412.5 1895.5,-412.5 1895.5,-375.5 1835.5,-375.5"/>
<polygon fill="none" stroke="black" points="1835.5,-375.5 1835.5,-412.5 1895.5,-412.5 1895.5,-375.5 1835.5,-375.5"/>
<text text-anchor="start" x="1846.5" y="-391.3" font-family="Arial" font-weight="bold" font-size="14.00">Actor</text>
<polygon fill="none" stroke="black" points="1834.5,-375 1834.5,-414 1896.5,-414 1896.5,-375 1834.5,-375"/>
</a>
</g>
</g>
<!-- ndCvRDT -->
<g id="node8" class="node"><title>ndCvRDT</title>
<g id="a_node8_5"><a xlink:href="https://github.com/rust-crdt/rust-crdt/blob/master/src/traits.rs#:~:text=trait%20CvRDT" xlink:title="&lt;TABLE&gt;">
<polygon fill="lightgreen" stroke="none" points="881.5,-292.5 881.5,-329.5 952.5,-329.5 952.5,-292.5 881.5,-292.5"/>
<polygon fill="none" stroke="black" points="881.5,-292.5 881.5,-329.5 952.5,-329.5 952.5,-292.5 881.5,-292.5"/>
<text text-anchor="start" x="892.5" y="-308.3" font-family="Arial" font-weight="bold" font-size="14.00">CvRDT</text>
<polygon fill="none" stroke="black" points="880,-292 880,-331 953,-331 953,-292 880,-292"/>
</a>
</g>
</g>
<!-- ndCvRDT&#45;&gt;ndMap -->
<g id="edge12" class="edge"><title>ndCvRDT&#45;&gt;ndMap</title>
<path fill="none" stroke="black" stroke-dasharray="5,2" d="M914.799,-287.949C909.772,-239.037 890.37,-123.471 817.5,-72 738.816,-16.4228 480.767,-50.2879 385.5,-36 372.414,-34.0374 358.239,-31.1741 345.608,-28.3549"/>
<polygon fill="none" stroke="black" points="346.389,-24.9431 335.86,-26.1215 344.826,-31.7664 346.389,-24.9431"/>
</g>
<!-- ndCvRDT&#45;&gt;ndMerkleReg -->
<g id="edge13" class="edge"><title>ndCvRDT&#45;&gt;ndMerkleReg</title>
<path fill="none" stroke="black" stroke-dasharray="5,2" d="M961.063,-290.761C963.895,-289.763 966.723,-288.831 969.5,-288 972.322,-287.155 1120.68,-260.279 1204.43,-245.132"/>
<polygon fill="none" stroke="black" points="1205.1,-248.569 1214.31,-243.345 1203.85,-241.681 1205.1,-248.569"/>
</g>
<!-- ndCvRDT&#45;&gt;ndGSet -->
<g id="edge14" class="edge"><title>ndCvRDT&#45;&gt;ndGSet</title>
<path fill="none" stroke="black" stroke-dasharray="5,2" d="M933.602,-287.848C940.162,-279.158 947.688,-269.19 954.422,-260.27"/>
<polygon fill="none" stroke="black" points="957.347,-262.204 960.579,-252.114 951.76,-257.986 957.347,-262.204"/>
</g>
<!-- ndCvRDT&#45;&gt;ndGCounter -->
<g id="edge15" class="edge"><title>ndCvRDT&#45;&gt;ndGCounter</title>
<path fill="none" stroke="black" stroke-dasharray="5,2" d="M897.909,-287.749C879.889,-266.865 850.888,-236.19 820.5,-216 797.326,-200.603 768.955,-188.246 744.91,-179.351"/>
<polygon fill="none" stroke="black" points="745.838,-175.965 735.243,-175.872 743.468,-182.551 745.838,-175.965"/>
</g>
<!-- ndCvRDT&#45;&gt;ndLWWReg -->
<g id="edge16" class="edge"><title>ndCvRDT&#45;&gt;ndLWWReg</title>
<path fill="none" stroke="black" stroke-dasharray="5,2" d="M872.095,-287.848C852.778,-277.993 830.239,-266.495 811.127,-256.745"/>
<polygon fill="none" stroke="black" points="812.547,-253.541 802.049,-252.114 809.366,-259.776 812.547,-253.541"/>
</g>
<!-- ndCvRDT&#45;&gt;ndGList -->
<g id="edge17" class="edge"><title>ndCvRDT&#45;&gt;ndGList</title>
<path fill="none" stroke="black" stroke-dasharray="5,2" d="M961.202,-291.177C963.999,-290.075 966.782,-289.007 969.5,-288 1018.92,-269.681 1032.72,-269.32 1082.5,-252 1083.93,-251.503 1085.38,-250.99 1086.85,-250.468"/>
<polygon fill="none" stroke="black" points="1088.39,-253.63 1096.59,-246.921 1086,-247.052 1088.39,-253.63"/>
</g>
<!-- ndCvRDT&#45;&gt;ndMVReg -->
<g id="edge18" class="edge"><title>ndCvRDT&#45;&gt;ndMVReg</title>
<path fill="none" stroke="black" stroke-dasharray="5,2" d="M961.087,-288.189C982.478,-276.469 1004.71,-262.418 1010.5,-252 1048.17,-184.185 988.44,-110.356 930.5,-72 893.303,-47.376 596.209,-28.2278 478.901,-21.5556"/>
<polygon fill="none" stroke="black" points="478.964,-18.0537 468.783,-20.9857 478.57,-25.0426 478.964,-18.0537"/>
</g>
<!-- ndCvRDT&#45;&gt;ndVClock -->
<g id="edge19" class="edge"><title>ndCvRDT&#45;&gt;ndVClock</title>
<path fill="none" stroke="black" stroke-dasharray="5,2" d="M871.923,-296.767C860.457,-293.566 848.086,-290.396 836.5,-288 712.169,-262.286 563.081,-246.161 489.012,-239.121"/>
<polygon fill="none" stroke="black" points="488.923,-235.597 478.64,-238.148 488.269,-242.567 488.923,-235.597"/>
</g>
<!-- ndCvRDT&#45;&gt;ndPNCounter -->
<g id="edge20" class="edge"><title>ndCvRDT&#45;&gt;ndPNCounter</title>
<path fill="none" stroke="black" stroke-dasharray="5,2" d="M902.657,-287.664C890.783,-268.331 873.024,-240.015 856.5,-216 832.224,-180.718 802.402,-141.264 783.18,-116.294"/>
<polygon fill="none" stroke="black" points="785.732,-113.872 776.85,-108.096 780.192,-118.15 785.732,-113.872"/>
</g>
<!-- ndCvRDT&#45;&gt;ndOrswot -->
<g id="edge21" class="edge"><title>ndCvRDT&#45;&gt;ndOrswot</title>
<path fill="none" stroke="black" stroke-dasharray="5,2" d="M961.115,-291.467C997.042,-275.928 1041.98,-255.919 1044.5,-252 1087.74,-184.694 1094.52,-134.437 1044.5,-72 1020.95,-42.6045 914.836,-28.4247 852.871,-22.5401"/>
<polygon fill="none" stroke="black" points="852.862,-19.0248 842.585,-21.6008 852.225,-25.9958 852.862,-19.0248"/>
</g>
<!-- ndCmRDT -->
<g id="node9" class="node"><title>ndCmRDT</title>
<g id="a_node9_6"><a xlink:href="https://github.com/rust-crdt/rust-crdt/blob/master/src/traits.rs#:~:text=trait%20CmRDT" xlink:title="&lt;TABLE&gt;">
<polygon fill="lightgreen" stroke="none" points="615.5,-292.5 615.5,-329.5 691.5,-329.5 691.5,-292.5 615.5,-292.5"/>
<polygon fill="none" stroke="black" points="615.5,-292.5 615.5,-329.5 691.5,-329.5 691.5,-292.5 615.5,-292.5"/>
<text text-anchor="start" x="626.5" y="-308.3" font-family="Arial" font-weight="bold" font-size="14.00">CmRDT</text>
<polygon fill="none" stroke="black" points="614.5,-292 614.5,-331 692.5,-331 692.5,-292 614.5,-292"/>
</a>
</g>
</g>
<!-- ndCmRDT&#45;&gt;ndMap -->
<g id="edge22" class="edge"><title>ndCmRDT&#45;&gt;ndMap</title>
<path fill="none" stroke="black" stroke-dasharray="5,2" d="M606.163,-305.34C493.964,-292.978 219.914,-261.956 202.5,-252 155.561,-225.164 122.724,-192.561 146.5,-144 172.035,-91.8479 230.984,-55.1952 270.02,-35.5996"/>
<polygon fill="none" stroke="black" points="272.028,-38.5145 279.483,-30.9861 268.961,-32.2224 272.028,-38.5145"/>
</g>
<!-- ndCmRDT&#45;&gt;ndMerkleReg -->
<g id="edge23" class="edge"><title>ndCmRDT&#45;&gt;ndMerkleReg</title>
<path fill="none" stroke="black" stroke-dasharray="5,2" d="M700.529,-290.437C703.535,-289.519 706.542,-288.694 709.5,-288 907.86,-241.487 964.446,-278.162 1166.5,-252 1178.71,-250.419 1191.74,-248.326 1204.09,-246.151"/>
<polygon fill="none" stroke="black" points="1205.05,-249.534 1214.27,-244.314 1203.8,-242.646 1205.05,-249.534"/>
</g>
<!-- ndCmRDT&#45;&gt;ndGSet -->
<g id="edge24" class="edge"><title>ndCmRDT&#45;&gt;ndGSet</title>
<path fill="none" stroke="black" stroke-dasharray="5,2" d="M700.639,-290.851C703.618,-289.83 706.588,-288.869 709.5,-288 788.077,-264.545 882.923,-248.349 934.849,-240.476"/>
<polygon fill="none" stroke="black" points="935.577,-243.906 944.95,-238.968 934.543,-236.983 935.577,-243.906"/>
</g>
<!-- ndCmRDT&#45;&gt;ndGCounter -->
<g id="edge25" class="edge"><title>ndCmRDT&#45;&gt;ndGCounter</title>
<path fill="none" stroke="black" stroke-dasharray="5,2" d="M629.075,-287.637C611.489,-268.288 593.039,-239.963 606.5,-216 614.606,-201.57 628.411,-190.608 642.665,-182.507"/>
<polygon fill="none" stroke="black" points="644.334,-185.583 651.551,-177.826 641.072,-179.39 644.334,-185.583"/>
</g>
<!-- ndCmRDT&#45;&gt;ndLWWReg -->
<g id="edge26" class="edge"><title>ndCmRDT&#45;&gt;ndLWWReg</title>
<path fill="none" stroke="black" stroke-dasharray="5,2" d="M688.004,-287.848C702.468,-278.351 719.257,-267.329 733.747,-257.816"/>
<polygon fill="none" stroke="black" points="735.993,-260.528 742.432,-252.114 732.151,-254.677 735.993,-260.528"/>
</g>
<!-- ndCmRDT&#45;&gt;ndList -->
<g id="edge27" class="edge"><title>ndCmRDT&#45;&gt;ndList</title>
<path fill="none" stroke="black" stroke-dasharray="5,2" d="M661.508,-287.7C670.732,-265.203 688.221,-231.934 715.5,-216 780.761,-177.88 1318.12,-166.109 1465.97,-163.576"/>
<polygon fill="none" stroke="black" points="1466.39,-167.07 1476.33,-163.403 1466.27,-160.071 1466.39,-167.07"/>
</g>
<!-- ndCmRDT&#45;&gt;ndGList -->
<g id="edge28" class="edge"><title>ndCmRDT&#45;&gt;ndGList</title>
<path fill="none" stroke="black" stroke-dasharray="5,2" d="M700.563,-290.578C703.561,-289.625 706.556,-288.753 709.5,-288 840.025,-254.596 876.935,-269.688 1010.5,-252 1035.8,-248.65 1064.11,-244.545 1086.55,-241.208"/>
<polygon fill="none" stroke="black" points="1087.36,-244.626 1096.74,-239.686 1086.33,-237.703 1087.36,-244.626"/>
</g>
<!-- ndCmRDT&#45;&gt;ndMVReg -->
<g id="edge29" class="edge"><title>ndCmRDT&#45;&gt;ndMVReg</title>
<path fill="none" stroke="black" stroke-dasharray="5,2" d="M606.208,-305.47C492.796,-292.32 210.725,-252.794 156.5,-180 146.942,-167.169 147.838,-157.452 156.5,-144 163.171,-133.64 308.294,-71.1079 384.963,-38.6003"/>
<polygon fill="none" stroke="black" points="386.565,-41.7229 394.409,-34.6005 383.836,-35.277 386.565,-41.7229"/>
</g>
<!-- ndCmRDT&#45;&gt;ndVClock -->
<g id="edge30" class="edge"><title>ndCmRDT&#45;&gt;ndVClock</title>
<path fill="none" stroke="black" stroke-dasharray="5,2" d="M606.41,-293.65C571.106,-281.018 523.058,-263.825 488.116,-251.322"/>
<polygon fill="none" stroke="black" points="489.223,-248.001 478.629,-247.928 486.865,-254.592 489.223,-248.001"/>
</g>
<!-- ndCmRDT&#45;&gt;ndPNCounter -->
<g id="edge31" class="edge"><title>ndCmRDT&#45;&gt;ndPNCounter</title>
<path fill="none" stroke="black" stroke-dasharray="5,2" d="M643.559,-287.749C636.236,-267.152 629.845,-236.923 644.5,-216 671.36,-177.652 712.574,-215.151 743.5,-180 758.328,-163.146 762.867,-137.669 763.965,-118.286"/>
<polygon fill="none" stroke="black" points="767.465,-118.338 764.265,-108.239 760.468,-118.13 767.465,-118.338"/>
</g>
<!-- ndCmRDT&#45;&gt;ndOrswot -->
<g id="edge32" class="edge"><title>ndCmRDT&#45;&gt;ndOrswot</title>
<path fill="none" stroke="black" stroke-dasharray="5,2" d="M653.677,-287.614C655.023,-266.634 660.137,-235.895 677.5,-216 705.557,-183.853 733.04,-206.478 766.5,-180 797.251,-155.666 805.606,-145.367 817.5,-108 823.926,-87.8117 820.678,-63.9007 816.234,-45.9491"/>
<polygon fill="none" stroke="black" points="819.565,-44.859 813.544,-36.1413 812.814,-46.711 819.565,-44.859"/>
</g>
<!-- ndResetRemove -->
<g id="node10" class="node"><title>ndResetRemove</title>
<g id="a_node10_7"><a xlink:href="https://github.com/rust-crdt/rust-crdt/blob/master/src/traits.rs#:~:text=trait%20ResetRemove" xlink:title="&lt;TABLE&gt;">
<polygon fill="lightgreen" stroke="none" points="300.5,-292.5 300.5,-329.5 418.5,-329.5 418.5,-292.5 300.5,-292.5"/>
<polygon fill="none" stroke="black" points="300.5,-292.5 300.5,-329.5 418.5,-329.5 418.5,-292.5 300.5,-292.5"/>
<text text-anchor="start" x="311.5" y="-308.3" font-family="Arial" font-weight="bold" font-size="14.00">ResetRemove</text>
<polygon fill="none" stroke="black" points="299.5,-292 299.5,-331 419.5,-331 419.5,-292 299.5,-292"/>
</a>
</g>
</g>
<!-- ndResetRemove&#45;&gt;ndMap -->
<g id="edge33" class="edge"><title>ndResetRemove&#45;&gt;ndMap</title>
<path fill="none" stroke="black" stroke-dasharray="5,2" d="M291.263,-307.563C208.965,-302.422 77.8562,-288.577 47.5,-252 -4.71696,-189.082 20.8958,-122.115 85.5,-72 139.495,-30.115 221.489,-20.6101 269.254,-18.8672"/>
<polygon fill="none" stroke="black" points="269.575,-22.36 279.478,-18.5943 269.388,-15.3625 269.575,-22.36"/>
</g>
<!-- ndResetRemove&#45;&gt;ndGCounter -->
<g id="edge34" class="edge"><title>ndResetRemove&#45;&gt;ndGCounter</title>
<path fill="none" stroke="black" stroke-dasharray="5,2" d="M417.597,-287.878C440.129,-278.108 465.7,-265.755 487.5,-252 508.58,-238.7 508.695,-228.074 530.5,-216 540.574,-210.422 598.06,-192.212 641.939,-178.686"/>
<polygon fill="none" stroke="black" points="643.105,-181.989 651.635,-175.704 641.048,-175.298 643.105,-181.989"/>
</g>
<!-- ndResetRemove&#45;&gt;ndMVReg -->
<g id="edge35" class="edge"><title>ndResetRemove&#45;&gt;ndMVReg</title>
<path fill="none" stroke="black" stroke-dasharray="5,2" d="M291.372,-303.802C249.993,-296.706 198.243,-282.093 161.5,-252 122.134,-219.758 95.4885,-186.48 123.5,-144 153.371,-98.6999 305.562,-52.5004 384.242,-31.1683"/>
<polygon fill="none" stroke="black" points="385.627,-34.4205 394.378,-28.4477 383.812,-27.6599 385.627,-34.4205"/>
</g>
<!-- ndResetRemove&#45;&gt;ndVClock -->
<g id="edge36" class="edge"><title>ndResetRemove&#45;&gt;ndVClock</title>
<path fill="none" stroke="black" stroke-dasharray="5,2" d="M384.403,-287.848C394.448,-278.71 406.047,-268.159 416.227,-258.899"/>
<polygon fill="none" stroke="black" points="418.643,-261.432 423.685,-252.114 413.933,-256.254 418.643,-261.432"/>
</g>
<!-- ndResetRemove&#45;&gt;ndPNCounter -->
<g id="edge37" class="edge"><title>ndResetRemove&#45;&gt;ndPNCounter</title>
<path fill="none" stroke="black" stroke-dasharray="5,2" d="M357.802,-287.725C356.471,-251.486 359.725,-181.02 400.5,-144 444.542,-104.014 617.589,-94.1631 707.923,-91.7591"/>
<polygon fill="none" stroke="black" points="708.075,-95.2565 717.987,-91.5131 707.904,-88.2586 708.075,-95.2565"/>
</g>
<!-- ndResetRemove&#45;&gt;ndOrswot -->
<g id="edge38" class="edge"><title>ndResetRemove&#45;&gt;ndOrswot</title>
<path fill="none" stroke="black" stroke-dasharray="5,2" d="M358.477,-287.845C358.157,-252.408 362.878,-183.812 400.5,-144 497.995,-40.8306 678.245,-22.1055 762.231,-19.189"/>
<polygon fill="none" stroke="black" points="762.569,-22.6809 772.465,-18.8962 762.369,-15.6837 762.569,-22.6809"/>
</g>
<!-- ndReadCtx -->
<g id="node11" class="node"><title>ndReadCtx</title>
<text text-anchor="middle" x="389.5" y="-86.3" font-family="Times,serif" font-size="14.00">ndReadCtx</text>
</g>
<!-- ndReadCtx&#45;&gt;ndMap -->
<g id="edge39" class="edge"><title>ndReadCtx&#45;&gt;ndMap</title>
<path fill="none" stroke="black" d="M369.23,-71.6966C359.002,-62.9655 346.439,-52.2405 335.322,-42.7503"/>
<polygon fill="black" stroke="black" points="327.537,-36.1043 338.064,-39.1744 331.339,-39.3507 335.142,-42.597 335.142,-42.597 335.142,-42.597 331.339,-39.3507 332.22,-46.0195 327.537,-36.1043 327.537,-36.1043"/>
</g>
<!-- ndReadCtx&#45;&gt;ndMVReg -->
<g id="edge40" class="edge"><title>ndReadCtx&#45;&gt;ndMVReg</title>
<path fill="none" stroke="black" d="M399.882,-71.6966C404.765,-63.5589 410.687,-53.689 416.079,-44.7013"/>
<polygon fill="black" stroke="black" points="421.237,-36.1043 419.951,-46.9945 418.665,-40.3918 416.092,-44.6793 416.092,-44.6793 416.092,-44.6793 418.665,-40.3918 412.234,-42.364 421.237,-36.1043 421.237,-36.1043"/>
</g>
<!-- ndReadCtx&#45;&gt;ndOrswot -->
<g id="edge41" class="edge"><title>ndReadCtx&#45;&gt;ndOrswot</title>
<path fill="none" stroke="black" d="M428.075,-82.54C505.506,-69.5732 679.501,-40.4352 762.195,-26.587"/>
<polygon fill="black" stroke="black" points="772.289,-24.8965 763.17,-30.9865 767.358,-25.7224 762.427,-26.5483 762.427,-26.5483 762.427,-26.5483 767.358,-25.7224 761.683,-22.1101 772.289,-24.8965 772.289,-24.8965"/>
</g>
<!-- ndAddCtx -->
<g id="node12" class="node"><title>ndAddCtx</title>
<text text-anchor="middle" x="202.5" y="-158.3" font-family="Times,serif" font-size="14.00">ndAddCtx</text>
</g>
<!-- ndAddCtx&#45;&gt;ndReadCtx -->
<g id="edge42" class="edge"><title>ndAddCtx&#45;&gt;ndReadCtx</title>
<path fill="none" stroke="black" d="M239.445,-147.17C268.577,-136.265 309.44,-120.969 341.17,-109.092"/>
<polygon fill="black" stroke="black" points="350.7,-105.524 342.913,-113.244 346.018,-107.277 341.335,-109.03 341.335,-109.03 341.335,-109.03 346.018,-107.277 339.757,-104.815 350.7,-105.524 350.7,-105.524"/>
</g>
<!-- ndRmCtx -->
<g id="node13" class="node"><title>ndRmCtx</title>
<text text-anchor="middle" x="444.5" y="-158.3" font-family="Times,serif" font-size="14.00">ndRmCtx</text>
</g>
<!-- ndRmCtx&#45;&gt;ndReadCtx -->
<g id="edge43" class="edge"><title>ndRmCtx&#45;&gt;ndReadCtx</title>
<path fill="none" stroke="black" d="M430.904,-143.697C424.377,-135.389 416.432,-125.277 409.253,-116.141"/>
<polygon fill="black" stroke="black" points="402.939,-108.104 412.656,-113.187 406.028,-112.036 409.117,-115.968 409.117,-115.968 409.117,-115.968 406.028,-112.036 405.579,-118.748 402.939,-108.104 402.939,-108.104"/>
</g>
<!-- ndNode -->
<g id="node14" class="node"><title>ndNode</title>
<text text-anchor="middle" x="1264.5" y="-307.8" font-family="Times,serif" font-size="14.00">ndNode</text>
</g>
<!-- ndNode&#45;&gt;ndMerkleReg -->
<g id="edge44" class="edge"><title>ndNode&#45;&gt;ndMerkleReg</title>
<path fill="none" stroke="black" d="M1263.59,-293.368C1263.11,-284.197 1262.5,-272.685 1261.95,-262.314"/>
<polygon fill="black" stroke="black" points="1261.4,-252.064 1266.43,-261.812 1261.67,-257.057 1261.93,-262.05 1261.93,-262.05 1261.93,-262.05 1261.67,-257.057 1257.44,-262.288 1261.4,-252.064 1261.4,-252.064"/>
</g>
<!-- ndContent -->
<g id="node15" class="node"><title>ndContent</title>
<text text-anchor="middle" x="1348.5" y="-307.8" font-family="Times,serif" font-size="14.00">ndContent</text>
</g>
<!-- ndContent&#45;&gt;ndMerkleReg -->
<g id="edge45" class="edge"><title>ndContent&#45;&gt;ndMerkleReg</title>
<path fill="none" stroke="black" d="M1328.53,-293.368C1316.61,-283.136 1301.28,-269.988 1288.2,-258.762"/>
<polygon fill="black" stroke="black" points="1280.39,-252.064 1290.91,-255.161 1284.18,-255.32 1287.98,-258.576 1287.98,-258.576 1287.98,-258.576 1284.18,-255.32 1285.05,-261.991 1280.39,-252.064 1280.39,-252.064"/>
</g>
<!-- ndValidationError -->
<g id="node17" class="node"><title>ndValidationError</title>
<g id="a_node17_8"><a xlink:href="https://github.com/rust-crdt/rust-crdt/blob/master/src/merkle_reg.rs#:~:text=enum%20ValidationError" xlink:title="&lt;TABLE&gt;">
<polygon fill="yellow" stroke="none" points="1931.5,-375.5 1931.5,-412.5 2059.5,-412.5 2059.5,-375.5 1931.5,-375.5"/>
<polygon fill="none" stroke="black" points="1931.5,-375.5 1931.5,-412.5 2059.5,-412.5 2059.5,-375.5 1931.5,-375.5"/>
<text text-anchor="start" x="1942.5" y="-391.3" font-family="Arial" font-weight="bold" font-size="14.00">ValidationError</text>
<polygon fill="none" stroke="black" points="1930.5,-375 1930.5,-414 2060.5,-414 2060.5,-375 1930.5,-375"/>
</a>
</g>
</g>
<!-- ndSha3Hash -->
<g id="node18" class="node"><title>ndSha3Hash</title>
<g id="a_node18_9"><a xlink:href="https://github.com/rust-crdt/rust-crdt/blob/master/src/merkle_reg.rs#:~:text=trait%20Sha3Hash" xlink:title="&lt;TABLE&gt;">
<polygon fill="lightgreen" stroke="none" points="2096.5,-375.5 2096.5,-412.5 2189.5,-412.5 2189.5,-375.5 2096.5,-375.5"/>
<polygon fill="none" stroke="black" points="2096.5,-375.5 2096.5,-412.5 2189.5,-412.5 2189.5,-375.5 2096.5,-375.5"/>
<text text-anchor="start" x="2107.5" y="-391.3" font-family="Arial" font-weight="bold" font-size="14.00">Sha3Hash</text>
<polygon fill="none" stroke="black" points="2095,-375 2095,-414 2190,-414 2190,-375 2095,-375"/>
</a>
</g>
</g>
<!-- ndGCounter&#45;&gt;ndPNCounter -->
<g id="edge46" class="edge"><title>ndGCounter&#45;&gt;ndPNCounter</title>
<path fill="none" stroke="black" d="M710.803,-143.697C718.941,-135.559 728.811,-125.689 737.799,-116.701"/>
<polygon fill="black" stroke="black" points="737.91,-116.59 739.325,-109.519 746.396,-108.104 744.981,-115.175 737.91,-116.59"/>
</g>
<!-- ndDot -->
<g id="node21" class="node"><title>ndDot</title>
<text text-anchor="middle" x="517.5" y="-390.8" font-family="Times,serif" font-size="14.00">ndDot</text>
</g>
<!-- ndDot&#45;&gt;ndOp -->
<g id="edge47" class="edge"><title>ndDot&#45;&gt;ndOp</title>
<path fill="none" stroke="black" d="M544.746,-392.491C628.982,-389.01 892.43,-375.412 1106.5,-335 1119.48,-332.55 1133.4,-328.976 1145.94,-325.394"/>
<polygon fill="black" stroke="black" points="1155.65,-322.542 1147.32,-329.678 1150.85,-323.951 1146.05,-325.36 1146.05,-325.36 1146.05,-325.36 1150.85,-323.951 1144.78,-321.043 1155.65,-322.542 1155.65,-322.542"/>
</g>
<!-- ndDot&#45;&gt;ndAddCtx -->
<g id="edge48" class="edge"><title>ndDot&#45;&gt;ndAddCtx</title>
<path fill="none" stroke="black" d="M492.964,-376.483C489.238,-374.401 485.35,-372.488 481.5,-371 397.663,-338.6 353.658,-389.908 282.5,-335 236.47,-299.481 215.88,-231.152 207.533,-192.158"/>
<polygon fill="black" stroke="black" points="207.486,-191.919 202.396,-186.812 205.153,-180.148 210.243,-185.256 207.486,-191.919"/>
</g>
<!-- ndDot&#45;&gt;ndGCounter -->
<g id="edge49" class="edge"><title>ndDot&#45;&gt;ndGCounter</title>
<path fill="none" stroke="black" d="M521.477,-376.339C530.161,-342.127 553.718,-264.554 598.5,-216 610.702,-202.77 626.984,-192.046 642.618,-183.795"/>
<polygon fill="black" stroke="black" points="651.712,-179.222 644.799,-187.735 647.245,-181.468 642.777,-183.714 642.777,-183.714 642.777,-183.714 647.245,-181.468 640.756,-179.694 651.712,-179.222 651.712,-179.222"/>
</g>
<!-- ndCausalityBarrier -->
<g id="node26" class="node"><title>ndCausalityBarrier</title>
<text text-anchor="middle" x="1038.5" y="-307.8" font-family="Times,serif" font-size="14.00">ndCausalityBarrier</text>
</g>
<!-- ndDot&#45;&gt;ndCausalityBarrier -->
<g id="edge50" class="edge"><title>ndDot&#45;&gt;ndCausalityBarrier</title>
<path fill="none" stroke="black" d="M544.553,-391.766C615.185,-386.858 810.691,-370.84 969.5,-335 972.457,-334.333 975.469,-333.592 978.497,-332.797"/>
<polygon fill="black" stroke="black" points="978.636,-332.758 983.329,-327.283 990.188,-329.509 985.495,-334.984 978.636,-332.758"/>
</g>
<!-- ndDot&#45;&gt;ndVClock -->
<g id="edge51" class="edge"><title>ndDot&#45;&gt;ndVClock</title>
<path fill="none" stroke="black" d="M509.331,-376.236C496.257,-348.605 470.536,-294.249 455.095,-261.618"/>
<polygon fill="black" stroke="black" points="450.659,-252.243 459.004,-259.357 452.798,-256.762 454.936,-261.282 454.936,-261.282 454.936,-261.282 452.798,-256.762 450.869,-263.207 450.659,-252.243 450.659,-252.243"/>
</g>
<!-- ndIntoIter -->
<g id="node34" class="node"><title>ndIntoIter</title>
<text text-anchor="middle" x="35.5" y="-307.8" font-family="Times,serif" font-size="14.00">ndIntoIter</text>
</g>
<!-- ndDot&#45;&gt;ndIntoIter -->
<g id="edge52" class="edge"><title>ndDot&#45;&gt;ndIntoIter</title>
<path fill="none" stroke="black" d="M493.477,-376.388C489.615,-374.264 485.551,-372.363 481.5,-371 314.005,-314.632 256.432,-379.879 85.5,-335 83.3306,-334.43 81.137,-333.775 78.942,-333.055"/>
<polygon fill="black" stroke="black" points="69.3801,-329.542 80.3185,-328.766 74.0735,-331.266 78.7669,-332.99 78.7669,-332.99 78.7669,-332.99 74.0735,-331.266 77.2153,-337.214 69.3801,-329.542 69.3801,-329.542"/>
</g>
<!-- ndOrdDot -->
<g id="node22" class="node"><title>ndOrdDot</title>
<text text-anchor="middle" x="1416.5" y="-390.8" font-family="Times,serif" font-size="14.00">ndOrdDot</text>
</g>
<!-- ndOrdDot&#45;&gt;ndOp -->
<g id="edge53" class="edge"><title>ndOrdDot&#45;&gt;ndOp</title>
<path fill="none" stroke="black" d="M1380.79,-385.142C1343.74,-375.914 1284.25,-359.527 1226.5,-335.076"/>
<polygon fill="black" stroke="black" points="1217.25,-331.083 1228.22,-330.915 1221.84,-333.065 1226.43,-335.047 1226.43,-335.047 1226.43,-335.047 1221.84,-333.065 1224.65,-339.178 1217.25,-331.083 1217.25,-331.083"/>
</g>
<!-- ndOrdDot&#45;&gt;ndList -->
<g id="edge54" class="edge"><title>ndOrdDot&#45;&gt;ndList</title>
<path fill="none" stroke="black" d="M1450.02,-376.421C1478.21,-361.718 1514.55,-341.823 1518.5,-335 1544.44,-290.221 1528.57,-227.613 1515.49,-191.589"/>
<polygon fill="black" stroke="black" points="1515.35,-191.231 1509.46,-187.063 1511.05,-180.028 1516.93,-184.196 1515.35,-191.231"/>
</g>
<!-- ndDotRange -->
<g id="node23" class="node"><title>ndDotRange</title>
<text text-anchor="middle" x="2258.5" y="-390.8" font-family="Times,serif" font-size="14.00">ndDotRange</text>
</g>
<!-- ndValidation -->
<g id="node25" class="node"><title>ndValidation</title>
<g id="a_node25_10"><a xlink:href="https://github.com/rust-crdt/rust-crdt/blob/master/src/orswot.rs#:~:text=enum%20Validation" xlink:title="&lt;TABLE&gt;">
<polygon fill="yellow" stroke="none" points="728.5,-292.5 728.5,-329.5 819.5,-329.5 819.5,-292.5 728.5,-292.5"/>
<polygon fill="none" stroke="black" points="728.5,-292.5 728.5,-329.5 819.5,-329.5 819.5,-292.5 728.5,-292.5"/>
<text text-anchor="start" x="739.5" y="-308.3" font-family="Arial" font-weight="bold" font-size="14.00">Validation</text>
<polygon fill="none" stroke="black" points="727,-292 727,-331 820,-331 820,-292 727,-292"/>
</a>
</g>
</g>
<!-- ndValidation&#45;&gt;ndLWWReg -->
<g id="edge55" class="edge"><title>ndValidation&#45;&gt;ndLWWReg</title>
<path fill="none" stroke="black" d="M772,-287.848C771.466,-279.785 770.859,-270.622 770.302,-262.216"/>
<polygon fill="black" stroke="black" points="769.633,-252.114 774.784,-261.795 769.964,-257.103 770.294,-262.093 770.294,-262.093 770.294,-262.093 769.964,-257.103 765.804,-262.39 769.633,-252.114 769.633,-252.114"/>
</g>
<!-- ndVectorEntry -->
<g id="node27" class="node"><title>ndVectorEntry</title>
<text text-anchor="middle" x="1038.5" y="-390.8" font-family="Times,serif" font-size="14.00">ndVectorEntry</text>
</g>
<!-- ndVectorEntry&#45;&gt;ndCausalityBarrier -->
<g id="edge56" class="edge"><title>ndVectorEntry&#45;&gt;ndCausalityBarrier</title>
<path fill="none" stroke="black" d="M1038.5,-376.322C1038.5,-365.69 1038.5,-351.806 1038.5,-339.704"/>
<polygon fill="black" stroke="black" points="1038.5,-329.653 1043,-339.653 1038.5,-334.653 1038.5,-339.653 1038.5,-339.653 1038.5,-339.653 1038.5,-334.653 1034,-339.653 1038.5,-329.653 1038.5,-329.653"/>
</g>
<!-- ndCausalOp -->
<g id="node28" class="node"><title>ndCausalOp</title>
<g id="a_node28_11"><a xlink:href="https://github.com/rust-crdt/rust-crdt/blob/master/src/vvwe.rs#:~:text=trait%20CausalOp" xlink:title="&lt;TABLE&gt;">
<polygon fill="lightgreen" stroke="none" points="2328.5,-375.5 2328.5,-412.5 2419.5,-412.5 2419.5,-375.5 2328.5,-375.5"/>
<polygon fill="none" stroke="black" points="2328.5,-375.5 2328.5,-412.5 2419.5,-412.5 2419.5,-375.5 2328.5,-375.5"/>
<text text-anchor="start" x="2339.5" y="-391.3" font-family="Arial" font-weight="bold" font-size="14.00">CausalOp</text>
<polygon fill="none" stroke="black" points="2327,-375 2327,-414 2420,-414 2420,-375 2327,-375"/>
</a>
</g>
</g>
<!-- ndIdentifier -->
<g id="node31" class="node"><title>ndIdentifier</title>
<text text-anchor="middle" x="1469.5" y="-307.8" font-family="Times,serif" font-size="14.00">ndIdentifier</text>
</g>
<!-- ndIdentifier&#45;&gt;ndList -->
<g id="edge57" class="edge"><title>ndIdentifier&#45;&gt;ndList</title>
<path fill="none" stroke="black" d="M1481.21,-293.445C1488.23,-282.213 1496.53,-266.882 1500.5,-252 1505.7,-232.501 1506.37,-209.749 1505.79,-192.13"/>
<polygon fill="black" stroke="black" points="1505.79,-192.046 1501.48,-186.26 1505.17,-180.062 1509.47,-185.849 1505.79,-192.046"/>
</g>
<!-- ndIdentifier&#45;&gt;ndGList -->
<g id="edge58" class="edge"><title>ndIdentifier&#45;&gt;ndGList</title>
<path fill="none" stroke="black" d="M1429.47,-297.845C1417.92,-294.414 1405.27,-290.861 1393.5,-288 1310.83,-267.9 1288.85,-269.06 1205.5,-252 1194.03,-249.653 1181.64,-247.004 1170.19,-244.508"/>
<polygon fill="black" stroke="black" points="1169.93,-244.453 1163.21,-247.074 1158.21,-241.882 1164.93,-239.26 1169.93,-244.453"/>
</g>
<!-- ndVClock&#45;&gt;ndMap -->
<g id="edge59" class="edge"><title>ndVClock&#45;&gt;ndMap</title>
<path fill="none" stroke="black" d="M422.546,-215.879C411.576,-205.967 398.087,-192.926 387.5,-180 363.439,-150.622 358.586,-141.912 341.5,-108 331.691,-88.5311 322.97,-65.5182 316.816,-47.7711"/>
<polygon fill="black" stroke="black" points="316.738,-47.5392 311.028,-43.1347 312.898,-36.1702 318.608,-40.5746 316.738,-47.5392"/>
</g>
<!-- ndVClock&#45;&gt;ndEntry -->
<g id="edge60" class="edge"><title>ndVClock&#45;&gt;ndEntry</title>
<path fill="none" stroke="black" d="M472.589,-215.876C488.225,-206.978 507.563,-195.972 524.541,-186.31"/>
<polygon fill="black" stroke="black" points="524.866,-186.125 528.102,-179.681 535.295,-180.19 532.059,-186.634 524.866,-186.125"/>
</g>
<!-- ndVClock&#45;&gt;ndReadCtx -->
<g id="edge61" class="edge"><title>ndVClock&#45;&gt;ndReadCtx</title>
<path fill="none" stroke="black" d="M425.001,-215.969C416.153,-206.283 406.123,-193.428 400.5,-180 392.603,-161.14 389.913,-138.209 389.167,-120.346"/>
<polygon fill="black" stroke="black" points="389.162,-120.094 385.042,-114.176 388.92,-108.096 393.04,-114.015 389.162,-120.094"/>
</g>
<!-- ndVClock&#45;&gt;ndAddCtx -->
<g id="edge62" class="edge"><title>ndVClock&#45;&gt;ndAddCtx</title>
<path fill="none" stroke="black" d="M406.468,-223.452C368.327,-213.216 306.443,-196.237 253.5,-180 252.63,-179.733 251.752,-179.462 250.869,-179.187"/>
<polygon fill="black" stroke="black" points="250.636,-179.113 243.705,-181.103 239.203,-175.47 246.134,-173.48 250.636,-179.113"/>
</g>
<!-- ndVClock&#45;&gt;ndRmCtx -->
<g id="edge63" class="edge"><title>ndVClock&#45;&gt;ndRmCtx</title>
<path fill="none" stroke="black" d="M442.994,-215.697C443.198,-208.576 443.439,-200.129 443.668,-192.108"/>
<polygon fill="black" stroke="black" points="443.668,-192.099 439.842,-185.988 444.011,-180.104 447.838,-186.216 443.668,-192.099"/>
</g>
<!-- ndVClock&#45;&gt;ndGCounter -->
<g id="edge64" class="edge"><title>ndVClock&#45;&gt;ndGCounter</title>
<path fill="none" stroke="black" d="M478.706,-220.289C483.33,-218.784 488.013,-217.317 492.5,-216 556.212,-197.296 573.488,-197.65 637.5,-180 638.382,-179.757 639.27,-179.51 640.165,-179.26"/>
<polygon fill="black" stroke="black" points="640.446,-179.179 645.108,-173.677 651.979,-175.864 647.318,-181.366 640.446,-179.179"/>
</g>
<!-- ndVClock&#45;&gt;ndList -->
<g id="edge65" class="edge"><title>ndVClock&#45;&gt;ndList</title>
<path fill="none" stroke="black" d="M478.682,-230.366C525.658,-226.963 610.193,-220.895 682.5,-216 982.967,-195.66 1345.42,-172.873 1463.93,-165.467"/>
<polygon fill="black" stroke="black" points="1464.23,-165.448 1469.97,-161.081 1476.21,-164.7 1470.47,-169.066 1464.23,-165.448"/>
</g>
<!-- ndVClock&#45;&gt;ndMVReg -->
<g id="edge66" class="edge"><title>ndVClock&#45;&gt;ndMVReg</title>
<path fill="none" stroke="black" d="M463.323,-215.615C472.958,-206.198 483.385,-193.697 488.5,-180 494.097,-165.011 491.897,-159.635 488.5,-144 480.851,-108.788 462.379,-71.6036 448.522,-47.0373"/>
<polygon fill="black" stroke="black" points="448.36,-46.7577 441.892,-43.5697 442.347,-36.373 448.815,-39.561 448.36,-46.7577"/>
</g>
<!-- ndVClock&#45;&gt;ndOrswot -->
<g id="edge67" class="edge"><title>ndVClock&#45;&gt;ndOrswot</title>
<path fill="none" stroke="black" d="M478.639,-217.777C480.277,-217.162 481.902,-216.567 483.5,-216 536.375,-197.23 556.571,-209.17 604.5,-180 632.962,-162.678 681.933,-92.1081 708.5,-72 724.695,-59.7425 744.104,-48.6841 761.429,-39.8788"/>
<polygon fill="black" stroke="black" points="761.701,-39.7446 765.307,-33.5002 772.459,-34.4279 768.852,-40.6722 761.701,-39.7446"/>
</g>
<!-- ndDir -->
<g id="node36" class="node"><title>ndDir</title>
<g id="a_node36_12"><a xlink:href="https://github.com/rust-crdt/rust-crdt/blob/master/src/pncounter.rs#:~:text=enum%20Dir" xlink:title="&lt;TABLE&gt;">
<polygon fill="yellow" stroke="none" points="1165.5,-375.5 1165.5,-412.5 1208.5,-412.5 1208.5,-375.5 1165.5,-375.5"/>
<polygon fill="none" stroke="black" points="1165.5,-375.5 1165.5,-412.5 1208.5,-412.5 1208.5,-375.5 1165.5,-375.5"/>
<text text-anchor="start" x="1176.5" y="-391.3" font-family="Arial" font-weight="bold" font-size="14.00">Dir</text>
<polygon fill="none" stroke="black" points="1164,-375 1164,-414 1209,-414 1209,-375 1164,-375"/>
</a>
</g>
</g>
<!-- ndDir&#45;&gt;ndOp -->
<g id="edge68" class="edge"><title>ndDir&#45;&gt;ndOp</title>
<path fill="none" stroke="black" d="M1186.5,-370.937C1186.5,-363.626 1186.5,-355.337 1186.5,-347.348"/>
<polygon fill="black" stroke="black" points="1186.5,-347.223 1182.5,-341.223 1186.5,-335.223 1190.5,-341.223 1186.5,-347.223"/>
</g>
</g>
</svg>
