<?xml version="1.0" encoding="UTF-8" standalone="no"?>
<!DOCTYPE svg PUBLIC "-//W3C//DTD SVG 1.1//EN"
 "http://www.w3.org/Graphics/SVG/1.1/DTD/svg11.dtd">
<!-- Generated by graphviz version 2.38.0 (20140413.2041)
 -->
<!-- Title: ml Pages: 1 -->
<svg width="3461pt" height="827pt"
 viewBox="0.00 0.00 3461.00 827.00" xmlns="http://www.w3.org/2000/svg" xmlns:xlink="http://www.w3.org/1999/xlink">
<g id="graph0" class="graph" transform="scale(1 1) rotate(0) translate(4 823)">
<title>ml</title>
<polygon fill="white" stroke="none" points="-4,4 -4,-823 3457,-823 3457,4 -4,4"/>
<!-- ndVal -->
<g id="node1" class="node"><title>ndVal</title>
<g id="a_node1_0"><a xlink:href="https://github.com/rust-crdt/rust-crdt/blob/master/src/map.rs#:~:text=trait%20Val" xlink:title="&lt;TABLE&gt;">
<polygon fill="lightgreen" stroke="none" points="423.5,-750.5 423.5,-787.5 467.5,-787.5 467.5,-750.5 423.5,-750.5"/>
<polygon fill="none" stroke="black" points="423.5,-750.5 423.5,-787.5 467.5,-787.5 467.5,-750.5 423.5,-750.5"/>
<text text-anchor="start" x="434.5" y="-766.3" font-family="Arial" font-weight="bold" font-size="14.00">Val</text>
<polygon fill="none" stroke="black" points="422.5,-750 422.5,-789 468.5,-789 468.5,-750 422.5,-750"/>
</a>
</g>
</g>
<!-- ndMap -->
<g id="node2" class="node"><title>ndMap</title>
<g id="a_node2_1"><a xlink:href="https://github.com/rust-crdt/rust-crdt/blob/master/src/map.rs#:~:text=struct%20Map" xlink:title="&lt;TABLE&gt;">
<polygon fill="lightblue" stroke="none" points="9.5,-72 9.5,-109 344.5,-109 344.5,-72 9.5,-72"/>
<polygon fill="none" stroke="black" points="9.5,-72 9.5,-109 344.5,-109 344.5,-72 9.5,-72"/>
<text text-anchor="start" x="161.5" y="-87.8" font-family="Arial" font-weight="bold" font-size="14.00">Map</text>
<polygon fill="white" stroke="none" points="9.5,-5 9.5,-72 344.5,-72 344.5,-5 9.5,-5"/>
<polygon fill="none" stroke="black" points="9.5,-5 9.5,-72 344.5,-72 344.5,-5 9.5,-5"/>
<text text-anchor="start" x="20.5" y="-49.8" font-family="Arial" font-size="14.00">&#45; clock: VClock&lt;A&gt;</text>
<text text-anchor="start" x="20.5" y="-34.8" font-family="Arial" font-size="14.00">&#45; entries: BTreeMap&lt;K, Entry&lt;V, A&gt;&gt;</text>
<text text-anchor="start" x="20.5" y="-19.8" font-family="Arial" font-size="14.00">&#45; deferred: HashMap&lt;VClock&lt;A&gt;, BTreeSet&lt;K&gt;&gt;</text>
<polygon fill="none" stroke="black" points="8,-4 8,-110 345,-110 345,-4 8,-4"/>
</a>
</g>
</g>
<!-- ndEntry -->
<g id="node3" class="node"><title>ndEntry</title>
<g id="a_node3_2"><a xlink:href="https://github.com/rust-crdt/rust-crdt/blob/master/src/map.rs#:~:text=struct%20Entry" xlink:title="&lt;TABLE&gt;">
<polygon fill="lightblue" stroke="none" points="764.5,-356.5 764.5,-393.5 907.5,-393.5 907.5,-356.5 764.5,-356.5"/>
<polygon fill="none" stroke="black" points="764.5,-356.5 764.5,-393.5 907.5,-393.5 907.5,-356.5 764.5,-356.5"/>
<text text-anchor="start" x="817" y="-372.3" font-family="Arial" font-weight="bold" font-size="14.00">Entry</text>
<polygon fill="white" stroke="none" points="764.5,-304.5 764.5,-356.5 907.5,-356.5 907.5,-304.5 764.5,-304.5"/>
<polygon fill="none" stroke="black" points="764.5,-304.5 764.5,-356.5 907.5,-356.5 907.5,-304.5 764.5,-304.5"/>
<text text-anchor="start" x="775.5" y="-334.3" font-family="Arial" font-size="14.00">&#45; clock: VClock&lt;A&gt;</text>
<text text-anchor="start" x="775.5" y="-319.3" font-family="Arial" font-size="14.00">&#45; val: V</text>
<polygon fill="none" stroke="black" points="763,-304 763,-395 908,-395 908,-304 763,-304"/>
</a>
</g>
</g>
<!-- ndOp -->
<g id="node4" class="node"><title>ndOp</title>
<g id="a_node4_3"><a xlink:href="https://github.com/rust-crdt/rust-crdt/blob/master/src/orswot.rs#:~:text=enum%20Op" xlink:title="&lt;TABLE&gt;">
<polygon fill="yellow" stroke="none" points="1767.5,-641.5 1767.5,-678.5 1816.5,-678.5 1816.5,-641.5 1767.5,-641.5"/>
<polygon fill="none" stroke="black" points="1767.5,-641.5 1767.5,-678.5 1816.5,-678.5 1816.5,-641.5 1767.5,-641.5"/>
<text text-anchor="start" x="1781.5" y="-657.3" font-family="Arial" font-weight="bold" font-size="14.00">Op</text>
<polygon fill="white" stroke="none" points="1767.5,-589.5 1767.5,-641.5 1816.5,-641.5 1816.5,-589.5 1767.5,-589.5"/>
<polygon fill="none" stroke="black" points="1767.5,-589.5 1767.5,-641.5 1816.5,-641.5 1816.5,-589.5 1767.5,-589.5"/>
<text text-anchor="start" x="1778.5" y="-619.3" font-family="Arial" font-size="14.00">Add</text>
<text text-anchor="start" x="1778.5" y="-604.3" font-family="Arial" font-size="14.00">Rm</text>
<polygon fill="none" stroke="black" points="1766,-589 1766,-680 1817,-680 1817,-589 1766,-589"/>
</a>
</g>
</g>
<!-- ndOp&#45;&gt;ndMap -->
<g id="edge1" class="edge"><title>ndOp&#45;&gt;ndMap</title>
<path fill="none" stroke="black" stroke-dasharray="5,2" d="M1757.97,-591.792C1754.94,-589.279 1751.78,-586.974 1748.5,-585 1690.51,-550.078 1653.44,-591.191 1600.5,-549 1556.2,-513.695 1580.02,-478.299 1543.5,-435 1472.66,-351.019 1243.66,-184.959 1139.5,-150 985.311,-98.2501 569.481,-137.183 408.5,-114 393.697,-111.868 378.457,-109.224 363.197,-106.255"/>
<polygon fill="black" stroke="black" points="353.17,-104.259 363.856,-101.798 358.074,-105.236 362.978,-106.212 362.978,-106.212 362.978,-106.212 358.074,-105.236 362.099,-110.625 353.17,-104.259 353.17,-104.259"/>
</g>
<!-- ndMerkleReg -->
<g id="node16" class="node"><title>ndMerkleReg</title>
<g id="a_node16_4"><a xlink:href="https://github.com/rust-crdt/rust-crdt/blob/master/src/merkle_reg.rs#:~:text=struct%20MerkleReg" xlink:title="&lt;TABLE&gt;">
<polygon fill="lightblue" stroke="none" points="930.5,-507 930.5,-544 1202.5,-544 1202.5,-507 930.5,-507"/>
<polygon fill="none" stroke="black" points="930.5,-507 930.5,-544 1202.5,-544 1202.5,-507 930.5,-507"/>
<text text-anchor="start" x="1029" y="-522.8" font-family="Arial" font-weight="bold" font-size="14.00">MerkleReg</text>
<polygon fill="white" stroke="none" points="930.5,-440 930.5,-507 1202.5,-507 1202.5,-440 930.5,-440"/>
<polygon fill="none" stroke="black" points="930.5,-440 930.5,-507 1202.5,-507 1202.5,-440 930.5,-440"/>
<text text-anchor="start" x="941.5" y="-484.8" font-family="Arial" font-size="14.00">&#45; roots: BTreeSet&lt;Hash&gt;</text>
<text text-anchor="start" x="941.5" y="-469.8" font-family="Arial" font-size="14.00">&#45; dag: BTreeMap&lt;Hash, Node&lt;T&gt;&gt;</text>
<text text-anchor="start" x="941.5" y="-454.8" font-family="Arial" font-size="14.00">&#45; orphans: BTreeMap&lt;Hash, Node&lt;T&gt;&gt;</text>
<polygon fill="none" stroke="black" points="929.5,-439 929.5,-545 1203.5,-545 1203.5,-439 929.5,-439"/>
</a>
</g>
</g>
<!-- ndOp&#45;&gt;ndMerkleReg -->
<g id="edge2" class="edge"><title>ndOp&#45;&gt;ndMerkleReg</title>
<path fill="none" stroke="black" stroke-dasharray="5,2" d="M1757.77,-590.732C1754.83,-588.537 1751.73,-586.588 1748.5,-585 1645.73,-534.499 1351.63,-571.279 1221.86,-548.966"/>
<polygon fill="black" stroke="black" points="1211.68,-547.02 1222.35,-544.478 1216.59,-547.959 1221.5,-548.898 1221.5,-548.898 1221.5,-548.898 1216.59,-547.959 1220.66,-553.318 1211.68,-547.02 1211.68,-547.02"/>
</g>
<!-- ndGSet -->
<g id="node19" class="node"><title>ndGSet</title>
<g id="a_node19_5"><a xlink:href="https://github.com/rust-crdt/rust-crdt/blob/master/src/gset.rs#:~:text=struct%20GSet" xlink:title="&lt;TABLE&gt;">
<polygon fill="lightblue" stroke="none" points="1716.5,-492 1716.5,-529 1874.5,-529 1874.5,-492 1716.5,-492"/>
<polygon fill="none" stroke="black" points="1716.5,-492 1716.5,-529 1874.5,-529 1874.5,-492 1716.5,-492"/>
<text text-anchor="start" x="1778.5" y="-507.8" font-family="Arial" font-weight="bold" font-size="14.00">GSet</text>
<polygon fill="white" stroke="none" points="1716.5,-455 1716.5,-492 1874.5,-492 1874.5,-455 1716.5,-455"/>
<polygon fill="none" stroke="black" points="1716.5,-455 1716.5,-492 1874.5,-492 1874.5,-455 1716.5,-455"/>
<text text-anchor="start" x="1727.5" y="-469.8" font-family="Arial" font-size="14.00">&#45; value: BTreeSet&lt;T&gt;</text>
<polygon fill="none" stroke="black" points="1715.5,-454 1715.5,-530 1875.5,-530 1875.5,-454 1715.5,-454"/>
</a>
</g>
</g>
<!-- ndOp&#45;&gt;ndGSet -->
<g id="edge3" class="edge"><title>ndOp&#45;&gt;ndGSet</title>
<path fill="none" stroke="black" stroke-dasharray="5,2" d="M1792.89,-584.754C1793.26,-571.746 1793.66,-557.649 1794.03,-544.499"/>
<polygon fill="black" stroke="black" points="1794.33,-534.193 1798.54,-544.318 1794.18,-539.191 1794.04,-544.189 1794.04,-544.189 1794.04,-544.189 1794.18,-539.191 1789.54,-544.061 1794.33,-534.193 1794.33,-534.193"/>
</g>
<!-- ndGCounter -->
<g id="node20" class="node"><title>ndGCounter</title>
<g id="a_node20_6"><a xlink:href="https://github.com/rust-crdt/rust-crdt/blob/master/src/gcounter.rs#:~:text=struct%20GCounter" xlink:title="&lt;TABLE&gt;">
<polygon fill="lightblue" stroke="none" points="981.5,-349.5 981.5,-386.5 1122.5,-386.5 1122.5,-349.5 981.5,-349.5"/>
<polygon fill="none" stroke="black" points="981.5,-349.5 981.5,-386.5 1122.5,-386.5 1122.5,-349.5 981.5,-349.5"/>
<text text-anchor="start" x="1018" y="-365.3" font-family="Arial" font-weight="bold" font-size="14.00">GCounter</text>
<polygon fill="white" stroke="none" points="981.5,-312.5 981.5,-349.5 1122.5,-349.5 1122.5,-312.5 981.5,-312.5"/>
<polygon fill="none" stroke="black" points="981.5,-312.5 981.5,-349.5 1122.5,-349.5 1122.5,-312.5 981.5,-312.5"/>
<text text-anchor="start" x="992.5" y="-327.3" font-family="Arial" font-size="14.00">&#45; inner: VClock&lt;A&gt;</text>
<polygon fill="none" stroke="black" points="980,-311.5 980,-387.5 1123,-387.5 1123,-311.5 980,-311.5"/>
</a>
</g>
</g>
<!-- ndOp&#45;&gt;ndGCounter -->
<g id="edge4" class="edge"><title>ndOp&#45;&gt;ndGCounter</title>
<path fill="none" stroke="black" stroke-dasharray="5,2" d="M1757.88,-591.253C1754.9,-588.9 1751.76,-586.776 1748.5,-585 1655.71,-534.461 1595.59,-615.527 1513.5,-549 1471.43,-514.906 1511.76,-470.073 1470.5,-435 1421.89,-393.676 1249.54,-369.742 1141.61,-358.481"/>
<polygon fill="black" stroke="black" points="1131.38,-357.431 1141.78,-353.975 1136.35,-357.941 1141.33,-358.451 1141.33,-358.451 1141.33,-358.451 1136.35,-357.941 1140.87,-362.928 1131.38,-357.431 1131.38,-357.431"/>
</g>
<!-- ndLWWReg -->
<g id="node24" class="node"><title>ndLWWReg</title>
<g id="a_node24_7"><a xlink:href="https://github.com/rust-crdt/rust-crdt/blob/master/src/lwwreg.rs#:~:text=struct%20LWWReg" xlink:title="&lt;TABLE&gt;">
<polygon fill="lightblue" stroke="none" points="1910.5,-499 1910.5,-536 2007.5,-536 2007.5,-499 1910.5,-499"/>
<polygon fill="none" stroke="black" points="1910.5,-499 1910.5,-536 2007.5,-536 2007.5,-499 1910.5,-499"/>
<text text-anchor="start" x="1928.5" y="-514.8" font-family="Arial" font-weight="bold" font-size="14.00">LWWReg</text>
<polygon fill="white" stroke="none" points="1910.5,-447 1910.5,-499 2007.5,-499 2007.5,-447 1910.5,-447"/>
<polygon fill="none" stroke="black" points="1910.5,-447 1910.5,-499 2007.5,-499 2007.5,-447 1910.5,-447"/>
<text text-anchor="start" x="1921.5" y="-476.8" font-family="Arial" font-size="14.00">+ val: V</text>
<text text-anchor="start" x="1921.5" y="-461.8" font-family="Arial" font-size="14.00">+ marker: M</text>
<polygon fill="none" stroke="black" points="1909,-446.5 1909,-537.5 2008,-537.5 2008,-446.5 1909,-446.5"/>
</a>
</g>
</g>
<!-- ndOp&#45;&gt;ndLWWReg -->
<g id="edge5" class="edge"><title>ndOp&#45;&gt;ndLWWReg</title>
<path fill="none" stroke="black" stroke-dasharray="5,2" d="M1825.22,-605.392C1844.87,-588.98 1870.12,-567.855 1892.5,-549 1892.86,-548.697 1893.22,-548.394 1893.58,-548.089"/>
<polygon fill="black" stroke="black" points="1901.28,-541.589 1896.54,-551.478 1897.46,-544.814 1893.64,-548.039 1893.64,-548.039 1893.64,-548.039 1897.46,-544.814 1890.74,-544.6 1901.28,-541.589 1901.28,-541.589"/>
</g>
<!-- ndList -->
<g id="node29" class="node"><title>ndList</title>
<g id="a_node29_8"><a xlink:href="https://github.com/rust-crdt/rust-crdt/blob/master/src/list.rs#:~:text=struct%20List" xlink:title="&lt;TABLE&gt;">
<polygon fill="lightblue" stroke="none" points="1752.5,-356.5 1752.5,-393.5 2058.5,-393.5 2058.5,-356.5 1752.5,-356.5"/>
<polygon fill="none" stroke="black" points="1752.5,-356.5 1752.5,-393.5 2058.5,-393.5 2058.5,-356.5 1752.5,-356.5"/>
<text text-anchor="start" x="1892.5" y="-372.3" font-family="Arial" font-weight="bold" font-size="14.00">List</text>
<polygon fill="white" stroke="none" points="1752.5,-304.5 1752.5,-356.5 2058.5,-356.5 2058.5,-304.5 1752.5,-304.5"/>
<polygon fill="none" stroke="black" points="1752.5,-304.5 1752.5,-356.5 2058.5,-356.5 2058.5,-304.5 1752.5,-304.5"/>
<text text-anchor="start" x="1763.5" y="-334.3" font-family="Arial" font-size="14.00">&#45; seq: BTreeMap&lt;Identifier&lt;OrdDot&lt;A&gt;&gt;, T&gt;</text>
<text text-anchor="start" x="1763.5" y="-319.3" font-family="Arial" font-size="14.00">&#45; clock: VClock&lt;A&gt;</text>
<polygon fill="none" stroke="black" points="1751.5,-304 1751.5,-395 2059.5,-395 2059.5,-304 1751.5,-304"/>
</a>
</g>
</g>
<!-- ndOp&#45;&gt;ndList -->
<g id="edge6" class="edge"><title>ndOp&#45;&gt;ndList</title>
<path fill="none" stroke="black" stroke-dasharray="5,2" d="M1757.96,-594.125C1754.85,-590.951 1751.67,-587.867 1748.5,-585 1728.18,-566.643 1710.98,-573.372 1698.5,-549 1675.4,-503.905 1670.24,-477.055 1698.5,-435 1708.09,-420.725 1720.56,-408.861 1734.63,-398.999"/>
<polygon fill="black" stroke="black" points="1743.09,-393.422 1737.22,-402.684 1738.91,-396.174 1734.74,-398.927 1734.74,-398.927 1734.74,-398.927 1738.91,-396.174 1732.26,-395.171 1743.09,-393.422 1743.09,-393.422"/>
</g>
<!-- ndGList -->
<g id="node30" class="node"><title>ndGList</title>
<g id="a_node30_9"><a xlink:href="https://github.com/rust-crdt/rust-crdt/blob/master/src/glist.rs#:~:text=struct%20GList" xlink:title="&lt;TABLE&gt;">
<polygon fill="lightblue" stroke="none" points="1238.5,-492 1238.5,-529 1452.5,-529 1452.5,-492 1238.5,-492"/>
<polygon fill="none" stroke="black" points="1238.5,-492 1238.5,-529 1452.5,-529 1452.5,-492 1238.5,-492"/>
<text text-anchor="start" x="1327" y="-507.8" font-family="Arial" font-weight="bold" font-size="14.00">GList</text>
<polygon fill="white" stroke="none" points="1238.5,-455 1238.5,-492 1452.5,-492 1452.5,-455 1238.5,-455"/>
<polygon fill="none" stroke="black" points="1238.5,-455 1238.5,-492 1452.5,-492 1452.5,-455 1238.5,-455"/>
<text text-anchor="start" x="1249.5" y="-469.8" font-family="Arial" font-size="14.00">&#45; list: BTreeSet&lt;Identifier&lt;T&gt;&gt;</text>
<polygon fill="none" stroke="black" points="1237.5,-454 1237.5,-530 1453.5,-530 1453.5,-454 1237.5,-454"/>
</a>
</g>
</g>
<!-- ndOp&#45;&gt;ndGList -->
<g id="edge7" class="edge"><title>ndOp&#45;&gt;ndGList</title>
<path fill="none" stroke="black" stroke-dasharray="5,2" d="M1757.92,-591.175C1754.93,-588.841 1751.78,-586.742 1748.5,-585 1640.42,-527.59 1593.48,-581.517 1475.5,-549 1464.21,-545.888 1452.62,-541.995 1441.23,-537.718"/>
<polygon fill="black" stroke="black" points="1431.72,-534.044 1442.67,-533.45 1436.38,-535.846 1441.05,-537.648 1441.05,-537.648 1441.05,-537.648 1436.38,-535.846 1439.43,-541.845 1431.72,-534.044 1431.72,-534.044"/>
</g>
<!-- ndMVReg -->
<g id="node31" class="node"><title>ndMVReg</title>
<g id="a_node31_10"><a xlink:href="https://github.com/rust-crdt/rust-crdt/blob/master/src/mvreg.rs#:~:text=struct%20MVReg" xlink:title="&lt;TABLE&gt;">
<polygon fill="lightblue" stroke="none" points="885.5,-57 885.5,-94 1088.5,-94 1088.5,-57 885.5,-57"/>
<polygon fill="none" stroke="black" points="885.5,-57 885.5,-94 1088.5,-94 1088.5,-57 885.5,-57"/>
<text text-anchor="start" x="962" y="-72.8" font-family="Arial" font-weight="bold" font-size="14.00">MVReg</text>
<polygon fill="white" stroke="none" points="885.5,-20 885.5,-57 1088.5,-57 1088.5,-20 885.5,-20"/>
<polygon fill="none" stroke="black" points="885.5,-20 885.5,-57 1088.5,-57 1088.5,-20 885.5,-20"/>
<text text-anchor="start" x="896.5" y="-34.8" font-family="Arial" font-size="14.00">&#45; vals: Vec&lt;(VClock&lt;A&gt;, V)&gt;</text>
<polygon fill="none" stroke="black" points="884,-19 884,-95 1089,-95 1089,-19 884,-19"/>
</a>
</g>
</g>
<!-- ndOp&#45;&gt;ndMVReg -->
<g id="edge8" class="edge"><title>ndOp&#45;&gt;ndMVReg</title>
<path fill="none" stroke="black" stroke-dasharray="5,2" d="M1757.96,-593.033C1754.9,-590.168 1751.73,-587.449 1748.5,-585 1719.36,-562.892 1696.05,-578.554 1674.5,-549 1568.97,-404.251 1743.98,-276.849 1617.5,-150 1547.92,-80.2201 1269.97,-63.0007 1107.1,-58.9848"/>
<polygon fill="black" stroke="black" points="1097.03,-58.7496 1107.13,-54.4843 1102.02,-58.8663 1107.02,-58.9831 1107.02,-58.9831 1107.02,-58.9831 1102.02,-58.8663 1106.92,-63.4818 1097.03,-58.7496 1097.03,-58.7496"/>
</g>
<!-- ndVClock -->
<g id="node32" class="node"><title>ndVClock</title>
<g id="a_node32_11"><a xlink:href="https://github.com/rust-crdt/rust-crdt/blob/master/src/vclock.rs#:~:text=struct%20VClock" xlink:title="&lt;TABLE&gt;">
<polygon fill="lightblue" stroke="none" points="510.5,-492 510.5,-529 704.5,-529 704.5,-492 510.5,-492"/>
<polygon fill="none" stroke="black" points="510.5,-492 510.5,-529 704.5,-529 704.5,-492 510.5,-492"/>
<text text-anchor="start" x="582.5" y="-507.8" font-family="Arial" font-weight="bold" font-size="14.00">VClock</text>
<polygon fill="white" stroke="none" points="510.5,-455 510.5,-492 704.5,-492 704.5,-455 510.5,-455"/>
<polygon fill="none" stroke="black" points="510.5,-455 510.5,-492 704.5,-492 704.5,-455 510.5,-455"/>
<text text-anchor="start" x="521.5" y="-469.8" font-family="Arial" font-size="14.00">+ dots: BTreeMap&lt;A, u64&gt;</text>
<polygon fill="none" stroke="black" points="509.5,-454 509.5,-530 705.5,-530 705.5,-454 509.5,-454"/>
</a>
</g>
</g>
<!-- ndOp&#45;&gt;ndVClock -->
<g id="edge9" class="edge"><title>ndOp&#45;&gt;ndVClock</title>
<path fill="none" stroke="black" stroke-dasharray="5,2" d="M1757.82,-590.639C1754.86,-588.466 1751.75,-586.548 1748.5,-585 1664.55,-545.042 1004.89,-559.42 912.5,-549 849.668,-541.914 780.292,-529.542 723.601,-518.227"/>
<polygon fill="black" stroke="black" points="713.531,-516.202 724.222,-513.762 718.433,-517.188 723.335,-518.174 723.335,-518.174 723.335,-518.174 718.433,-517.188 722.447,-522.585 713.531,-516.202 713.531,-516.202"/>
</g>
<!-- ndPNCounter -->
<g id="node34" class="node"><title>ndPNCounter</title>
<g id="a_node34_12"><a xlink:href="https://github.com/rust-crdt/rust-crdt/blob/master/src/pncounter.rs#:~:text=struct%20PNCounter" xlink:title="&lt;TABLE&gt;">
<polygon fill="lightblue" stroke="none" points="987.5,-214 987.5,-251 1121.5,-251 1121.5,-214 987.5,-214"/>
<polygon fill="none" stroke="black" points="987.5,-214 987.5,-251 1121.5,-251 1121.5,-214 987.5,-214"/>
<text text-anchor="start" x="1016.5" y="-229.8" font-family="Arial" font-weight="bold" font-size="14.00">PNCounter</text>
<polygon fill="white" stroke="none" points="987.5,-162 987.5,-214 1121.5,-214 1121.5,-162 987.5,-162"/>
<polygon fill="none" stroke="black" points="987.5,-162 987.5,-214 1121.5,-214 1121.5,-162 987.5,-162"/>
<text text-anchor="start" x="998.5" y="-191.8" font-family="Arial" font-size="14.00">&#45; p: GCounter&lt;A&gt;</text>
<text text-anchor="start" x="998.5" y="-176.8" font-family="Arial" font-size="14.00">&#45; n: GCounter&lt;A&gt;</text>
<polygon fill="none" stroke="black" points="986.5,-161.5 986.5,-252.5 1122.5,-252.5 1122.5,-161.5 986.5,-161.5"/>
</a>
</g>
</g>
<!-- ndOp&#45;&gt;ndPNCounter -->
<g id="edge10" class="edge"><title>ndOp&#45;&gt;ndPNCounter</title>
<path fill="none" stroke="black" stroke-dasharray="5,2" d="M1757.82,-591.36C1754.85,-588.982 1751.74,-586.823 1748.5,-585 1670.96,-541.31 1620.27,-605.504 1551.5,-549 1509.41,-514.42 1543.74,-474.755 1506.5,-435 1384.86,-305.137 1300.74,-349.143 1144.5,-264 1142.94,-263.152 1141.38,-262.289 1139.81,-261.413"/>
<polygon fill="black" stroke="black" points="1130.74,-256.269 1141.66,-257.29 1135.09,-258.737 1139.44,-261.204 1139.44,-261.204 1139.44,-261.204 1135.09,-258.737 1137.22,-265.118 1130.74,-256.269 1130.74,-256.269"/>
</g>
<!-- ndOrswot -->
<g id="node36" class="node"><title>ndOrswot</title>
<g id="a_node36_13"><a xlink:href="https://github.com/rust-crdt/rust-crdt/blob/master/src/orswot.rs#:~:text=struct%20Orswot" xlink:title="&lt;TABLE&gt;">
<polygon fill="lightblue" stroke="none" points="426.5,-72 426.5,-109 756.5,-109 756.5,-72 426.5,-72"/>
<polygon fill="none" stroke="black" points="426.5,-72 426.5,-109 756.5,-109 756.5,-72 426.5,-72"/>
<text text-anchor="start" x="566" y="-87.8" font-family="Arial" font-weight="bold" font-size="14.00">Orswot</text>
<polygon fill="white" stroke="none" points="426.5,-5 426.5,-72 756.5,-72 756.5,-5 426.5,-5"/>
<polygon fill="none" stroke="black" points="426.5,-5 426.5,-72 756.5,-72 756.5,-5 426.5,-5"/>
<text text-anchor="start" x="437.5" y="-49.8" font-family="Arial" font-size="14.00">&#45; clock: VClock&lt;A&gt;</text>
<text text-anchor="start" x="437.5" y="-34.8" font-family="Arial" font-size="14.00">&#45; entries: HashMap&lt;M, VClock&lt;A&gt;&gt;</text>
<text text-anchor="start" x="437.5" y="-19.8" font-family="Arial" font-size="14.00">&#45; deferred: HashMap&lt;VClock&lt;A&gt;, HashSet&lt;M&gt;&gt;</text>
<polygon fill="none" stroke="black" points="425.5,-4 425.5,-110 757.5,-110 757.5,-4 425.5,-4"/>
</a>
</g>
</g>
<!-- ndOp&#45;&gt;ndOrswot -->
<g id="edge11" class="edge"><title>ndOp&#45;&gt;ndOrswot</title>
<path fill="none" stroke="black" stroke-dasharray="5,2" d="M1757.81,-592.047C1754.82,-589.475 1751.71,-587.087 1748.5,-585 1704.32,-556.25 1671.11,-587.86 1635.5,-549 1558.86,-465.373 1654.25,-385.319 1579.5,-300 1363.69,-53.6706 1189.86,-165.852 866.5,-114 836.981,-109.267 805.814,-103.585 775.485,-97.6819"/>
<polygon fill="black" stroke="black" points="765.671,-95.7584 776.349,-93.2657 770.577,-96.72 775.484,-97.6817 775.484,-97.6817 775.484,-97.6817 770.577,-96.72 774.618,-102.098 765.671,-95.7584 765.671,-95.7584"/>
</g>
<!-- ndCmRDTValidation -->
<g id="node5" class="node"><title>ndCmRDTValidation</title>
<g id="a_node5_14"><a xlink:href="https://github.com/rust-crdt/rust-crdt/blob/master/src/map.rs#:~:text=enum%20CmRDTValidation" xlink:title="&lt;TABLE&gt;">
<polygon fill="yellow" stroke="none" points="2166.5,-776.5 2166.5,-813.5 2410.5,-813.5 2410.5,-776.5 2166.5,-776.5"/>
<polygon fill="none" stroke="black" points="2166.5,-776.5 2166.5,-813.5 2410.5,-813.5 2410.5,-776.5 2166.5,-776.5"/>
<text text-anchor="start" x="2227.5" y="-792.3" font-family="Arial" font-weight="bold" font-size="14.00">CmRDTValidation</text>
<polygon fill="white" stroke="none" points="2166.5,-724.5 2166.5,-776.5 2410.5,-776.5 2410.5,-724.5 2166.5,-724.5"/>
<polygon fill="none" stroke="black" points="2166.5,-724.5 2166.5,-776.5 2410.5,-776.5 2410.5,-724.5 2166.5,-724.5"/>
<text text-anchor="start" x="2177.5" y="-754.3" font-family="Arial" font-size="14.00">SourceOrder(crate::DotRange&lt;A&gt;)</text>
<text text-anchor="start" x="2177.5" y="-739.3" font-family="Arial" font-size="14.00">Value(V::Validation)</text>
<polygon fill="none" stroke="black" points="2165.5,-724 2165.5,-815 2411.5,-815 2411.5,-724 2165.5,-724"/>
</a>
</g>
</g>
<!-- ndCvRDTValidation -->
<g id="node6" class="node"><title>ndCvRDTValidation</title>
<g id="a_node6_15"><a xlink:href="https://github.com/rust-crdt/rust-crdt/blob/master/src/map.rs#:~:text=enum%20CvRDTValidation" xlink:title="&lt;TABLE&gt;">
<polygon fill="yellow" stroke="none" points="2446.5,-776.5 2446.5,-813.5 2590.5,-813.5 2590.5,-776.5 2446.5,-776.5"/>
<polygon fill="none" stroke="black" points="2446.5,-776.5 2446.5,-813.5 2590.5,-813.5 2590.5,-776.5 2446.5,-776.5"/>
<text text-anchor="start" x="2459.5" y="-792.3" font-family="Arial" font-weight="bold" font-size="14.00">CvRDTValidation</text>
<polygon fill="white" stroke="none" points="2446.5,-724.5 2446.5,-776.5 2590.5,-776.5 2590.5,-724.5 2446.5,-724.5"/>
<polygon fill="none" stroke="black" points="2446.5,-724.5 2446.5,-776.5 2590.5,-776.5 2590.5,-724.5 2446.5,-724.5"/>
<text text-anchor="start" x="2457.5" y="-754.3" font-family="Arial" font-size="14.00">DoubleSpentDot</text>
<text text-anchor="start" x="2457.5" y="-739.3" font-family="Arial" font-size="14.00">Value(V::Validation)</text>
<polygon fill="none" stroke="black" points="2445.5,-724 2445.5,-815 2591.5,-815 2591.5,-724 2445.5,-724"/>
</a>
</g>
</g>
<!-- ndActor -->
<g id="node7" class="node"><title>ndActor</title>
<g id="a_node7_16"><a xlink:href="https://github.com/rust-crdt/rust-crdt/blob/master/src/traits.rs#:~:text=trait%20Actor" xlink:title="&lt;TABLE&gt;">
<polygon fill="lightgreen" stroke="none" points="2626.5,-750.5 2626.5,-787.5 2686.5,-787.5 2686.5,-750.5 2626.5,-750.5"/>
<polygon fill="none" stroke="black" points="2626.5,-750.5 2626.5,-787.5 2686.5,-787.5 2686.5,-750.5 2626.5,-750.5"/>
<text text-anchor="start" x="2637.5" y="-766.3" font-family="Arial" font-weight="bold" font-size="14.00">Actor</text>
<polygon fill="none" stroke="black" points="2625.5,-750 2625.5,-789 2687.5,-789 2687.5,-750 2625.5,-750"/>
</a>
</g>
</g>
<!-- ndCvRDT -->
<g id="node8" class="node"><title>ndCvRDT</title>
<g id="a_node8_17"><a xlink:href="https://github.com/rust-crdt/rust-crdt/blob/master/src/traits.rs#:~:text=trait%20CvRDT" xlink:title="&lt;TABLE&gt;">
<polygon fill="lightgreen" stroke="none" points="824.5,-615.5 824.5,-652.5 895.5,-652.5 895.5,-615.5 824.5,-615.5"/>
<polygon fill="none" stroke="black" points="824.5,-615.5 824.5,-652.5 895.5,-652.5 895.5,-615.5 824.5,-615.5"/>
<text text-anchor="start" x="835.5" y="-631.3" font-family="Arial" font-weight="bold" font-size="14.00">CvRDT</text>
<polygon fill="none" stroke="black" points="823,-615 823,-654 896,-654 896,-615 823,-615"/>
</a>
</g>
</g>
<!-- ndCvRDT&#45;&gt;ndMap -->
<g id="edge12" class="edge"><title>ndCvRDT&#45;&gt;ndMap</title>
<path fill="none" stroke="black" stroke-dasharray="5,2" d="M840.804,-610.934C831.325,-601.156 818.974,-590.667 805.5,-585 690.96,-536.828 349.716,-619.653 247.5,-549 114.381,-456.987 138.417,-235.561 160.632,-124.242"/>
<polygon fill="none" stroke="black" points="164.122,-124.645 162.702,-114.146 157.264,-123.239 164.122,-124.645"/>
</g>
<!-- ndCvRDT&#45;&gt;ndMerkleReg -->
<g id="edge13" class="edge"><title>ndCvRDT&#45;&gt;ndMerkleReg</title>
<path fill="none" stroke="black" stroke-dasharray="5,2" d="M882.1,-610.945C891.19,-602.383 901.994,-592.819 912.5,-585 926.624,-574.489 942.019,-564.133 957.436,-554.378"/>
<polygon fill="none" stroke="black" points="959.375,-557.294 965.996,-549.023 955.662,-551.36 959.375,-557.294"/>
</g>
<!-- ndCvRDT&#45;&gt;ndGSet -->
<g id="edge14" class="edge"><title>ndCvRDT&#45;&gt;ndGSet</title>
<path fill="none" stroke="black" stroke-dasharray="5,2" d="M877.773,-610.938C887.06,-601.161 899.19,-590.671 912.5,-585 1026.82,-536.296 1347.1,-563.57 1470.5,-549 1547.01,-539.967 1632.87,-524.959 1697.12,-512.753"/>
<polygon fill="none" stroke="black" points="1698.08,-516.134 1707.24,-510.819 1696.76,-509.258 1698.08,-516.134"/>
</g>
<!-- ndCvRDT&#45;&gt;ndGCounter -->
<g id="edge15" class="edge"><title>ndCvRDT&#45;&gt;ndGCounter</title>
<path fill="none" stroke="black" stroke-dasharray="5,2" d="M848.601,-610.953C831.124,-571.171 802.543,-487.746 841.5,-435 873.823,-391.236 908.171,-419.664 958.5,-399 961.019,-397.966 963.561,-396.887 966.114,-395.772"/>
<polygon fill="none" stroke="black" points="967.711,-398.892 975.392,-391.594 964.837,-392.509 967.711,-398.892"/>
</g>
<!-- ndCvRDT&#45;&gt;ndLWWReg -->
<g id="edge16" class="edge"><title>ndCvRDT&#45;&gt;ndLWWReg</title>
<path fill="none" stroke="black" stroke-dasharray="5,2" d="M877.704,-610.772C886.975,-600.958 899.112,-590.486 912.5,-585 1114.15,-502.368 1689.34,-627.839 1892.5,-549 1894.39,-548.266 1896.27,-547.454 1898.12,-546.574"/>
<polygon fill="none" stroke="black" points="1900.09,-549.488 1907.22,-541.653 1896.76,-543.331 1900.09,-549.488"/>
</g>
<!-- ndCvRDT&#45;&gt;ndGList -->
<g id="edge17" class="edge"><title>ndCvRDT&#45;&gt;ndGList</title>
<path fill="none" stroke="black" stroke-dasharray="5,2" d="M878.151,-610.995C887.435,-601.355 899.455,-590.963 912.5,-585 1037.85,-527.706 1087.63,-585.598 1220.5,-549 1231.41,-545.996 1242.57,-542.176 1253.53,-537.945"/>
<polygon fill="none" stroke="black" points="1255.1,-541.087 1263.09,-534.132 1252.51,-534.585 1255.1,-541.087"/>
</g>
<!-- ndCvRDT&#45;&gt;ndMVReg -->
<g id="edge18" class="edge"><title>ndCvRDT&#45;&gt;ndMVReg</title>
<path fill="none" stroke="black" stroke-dasharray="5,2" d="M864.085,-610.861C874.319,-561.337 899.168,-446.846 912.5,-435 996.417,-360.437 1089,-483.846 1162.5,-399 1191.58,-365.438 1146.73,-160.785 1139.5,-150 1127.45,-132.03 1110.59,-117.02 1092.45,-104.691"/>
<polygon fill="none" stroke="black" points="1094.32,-101.736 1084.03,-99.214 1090.51,-107.603 1094.32,-101.736"/>
</g>
<!-- ndCvRDT&#45;&gt;ndVClock -->
<g id="edge19" class="edge"><title>ndCvRDT&#45;&gt;ndVClock</title>
<path fill="none" stroke="black" stroke-dasharray="5,2" d="M837.351,-610.884C828.033,-602.119 816.753,-592.427 805.5,-585 779.095,-567.572 748.86,-551.729 720.1,-538.29"/>
<polygon fill="none" stroke="black" points="721.367,-535.02 710.821,-534.012 718.437,-541.377 721.367,-535.02"/>
</g>
<!-- ndCvRDT&#45;&gt;ndPNCounter -->
<g id="edge20" class="edge"><title>ndCvRDT&#45;&gt;ndPNCounter</title>
<path fill="none" stroke="black" stroke-dasharray="5,2" d="M853.836,-610.821C845.058,-569.688 833.599,-482.64 879.5,-435 960.442,-350.992 1062.88,-486.965 1139.5,-399 1168.4,-365.822 1155.53,-340.976 1139.5,-300 1134.53,-287.289 1126.88,-275.281 1118.18,-264.395"/>
<polygon fill="none" stroke="black" points="1120.79,-262.066 1111.67,-256.672 1115.44,-266.576 1120.79,-262.066"/>
</g>
<!-- ndCvRDT&#45;&gt;ndOrswot -->
<g id="edge21" class="edge"><title>ndCvRDT&#45;&gt;ndOrswot</title>
<path fill="none" stroke="black" stroke-dasharray="5,2" d="M840.426,-610.984C830.952,-601.342 818.713,-590.951 805.5,-585 677.822,-527.499 625.717,-592.141 492.5,-549 363.01,-507.066 294.246,-516.474 225.5,-399 169.605,-303.486 157.45,-237.272 225.5,-150 227.099,-147.949 317.184,-125.292 407.568,-102.978"/>
<polygon fill="none" stroke="black" points="408.575,-106.335 417.445,-100.541 406.898,-99.5388 408.575,-106.335"/>
</g>
<!-- ndCmRDT -->
<g id="node9" class="node"><title>ndCmRDT</title>
<g id="a_node9_18"><a xlink:href="https://github.com/rust-crdt/rust-crdt/blob/master/src/traits.rs#:~:text=trait%20CmRDT" xlink:title="&lt;TABLE&gt;">
<polygon fill="lightgreen" stroke="none" points="2032.5,-615.5 2032.5,-652.5 2108.5,-652.5 2108.5,-615.5 2032.5,-615.5"/>
<polygon fill="none" stroke="black" points="2032.5,-615.5 2032.5,-652.5 2108.5,-652.5 2108.5,-615.5 2032.5,-615.5"/>
<text text-anchor="start" x="2043.5" y="-631.3" font-family="Arial" font-weight="bold" font-size="14.00">CmRDT</text>
<polygon fill="none" stroke="black" points="2031.5,-615 2031.5,-654 2109.5,-654 2109.5,-615 2031.5,-615"/>
</a>
</g>
</g>
<!-- ndCmRDT&#45;&gt;ndMap -->
<g id="edge22" class="edge"><title>ndCmRDT&#45;&gt;ndMap</title>
<path fill="none" stroke="black" stroke-dasharray="5,2" d="M2090.4,-610.951C2103.18,-594.903 2118.63,-572.157 2125.5,-549 2157.04,-442.739 2187.1,-381.062 2111.5,-300 1851.86,-21.5866 785.485,-167.015 408.5,-114 393.69,-111.917 378.445,-109.309 363.181,-106.364"/>
<polygon fill="none" stroke="black" points="363.641,-102.887 353.152,-104.382 362.284,-109.754 363.641,-102.887"/>
</g>
<!-- ndCmRDT&#45;&gt;ndMerkleReg -->
<g id="edge23" class="edge"><title>ndCmRDT&#45;&gt;ndMerkleReg</title>
<path fill="none" stroke="black" stroke-dasharray="5,2" d="M2051.01,-610.809C2041.15,-601.004 2028.36,-590.527 2014.5,-585 1853.33,-520.713 1409.67,-581.367 1221.51,-548.943"/>
<polygon fill="none" stroke="black" points="1222.13,-545.498 1211.66,-547.112 1220.85,-552.38 1222.13,-545.498"/>
</g>
<!-- ndCmRDT&#45;&gt;ndGSet -->
<g id="edge24" class="edge"><title>ndCmRDT&#45;&gt;ndGSet</title>
<path fill="none" stroke="black" stroke-dasharray="5,2" d="M2048.75,-610.791C2039,-601.696 2026.91,-591.787 2014.5,-585 1964.9,-557.879 1944.45,-571.289 1892.5,-549 1885.4,-545.954 1878.17,-542.506 1871.02,-538.852"/>
<polygon fill="none" stroke="black" points="1872.5,-535.676 1862.02,-534.129 1869.24,-541.875 1872.5,-535.676"/>
</g>
<!-- ndCmRDT&#45;&gt;ndGCounter -->
<g id="edge25" class="edge"><title>ndCmRDT&#45;&gt;ndGCounter</title>
<path fill="none" stroke="black" stroke-dasharray="5,2" d="M2066.89,-610.827C2058.79,-561.235 2038.82,-446.613 2025.5,-435 2008.91,-420.531 1379.19,-373.994 1141.28,-356.887"/>
<polygon fill="none" stroke="black" points="1141.5,-353.394 1131.27,-356.168 1141,-360.376 1141.5,-353.394"/>
</g>
<!-- ndCmRDT&#45;&gt;ndLWWReg -->
<g id="edge26" class="edge"><title>ndCmRDT&#45;&gt;ndLWWReg</title>
<path fill="none" stroke="black" stroke-dasharray="5,2" d="M2052.51,-610.926C2039.29,-594.346 2020.72,-571.056 2003.58,-549.548"/>
<polygon fill="none" stroke="black" points="2006.31,-547.359 1997.34,-541.721 2000.83,-551.722 2006.31,-547.359"/>
</g>
<!-- ndCmRDT&#45;&gt;ndList -->
<g id="edge27" class="edge"><title>ndCmRDT&#45;&gt;ndList</title>
<path fill="none" stroke="black" stroke-dasharray="5,2" d="M2075.68,-610.853C2083.33,-571.639 2093.25,-490.025 2058.5,-435 2051.46,-423.858 2042.41,-414.064 2032.23,-405.482"/>
<polygon fill="none" stroke="black" points="2034.25,-402.617 2024.24,-399.153 2029.9,-408.105 2034.25,-402.617"/>
</g>
<!-- ndCmRDT&#45;&gt;ndGList -->
<g id="edge28" class="edge"><title>ndCmRDT&#45;&gt;ndGList</title>
<path fill="none" stroke="black" stroke-dasharray="5,2" d="M2050.57,-610.978C2040.72,-601.335 2028.04,-590.944 2014.5,-585 1885.07,-528.19 1838.56,-568.078 1698.5,-549 1623.21,-538.744 1539.17,-525.485 1471.98,-514.444"/>
<polygon fill="none" stroke="black" points="1472.21,-510.934 1461.77,-512.761 1471.07,-517.841 1472.21,-510.934"/>
</g>
<!-- ndCmRDT&#45;&gt;ndMVReg -->
<g id="edge29" class="edge"><title>ndCmRDT&#45;&gt;ndMVReg</title>
<path fill="none" stroke="black" stroke-dasharray="5,2" d="M2117.62,-618.904C2150.06,-606.109 2190.75,-583.983 2210.5,-549 2264.9,-452.626 2277.75,-387.886 2210.5,-300 2077.26,-125.881 1389.36,-75.8117 1107.33,-62.4819"/>
<polygon fill="none" stroke="black" points="1107.22,-58.9728 1097.07,-62.0044 1106.89,-65.9652 1107.22,-58.9728"/>
</g>
<!-- ndCmRDT&#45;&gt;ndVClock -->
<g id="edge30" class="edge"><title>ndCmRDT&#45;&gt;ndVClock</title>
<path fill="none" stroke="black" stroke-dasharray="5,2" d="M2051.29,-610.984C2041.41,-601.089 2028.51,-590.487 2014.5,-585 1900.42,-540.333 1034.31,-562.098 912.5,-549 849.632,-542.24 780.253,-529.896 723.569,-518.514"/>
<polygon fill="none" stroke="black" points="723.997,-515.029 713.501,-516.476 722.608,-521.89 723.997,-515.029"/>
</g>
<!-- ndCmRDT&#45;&gt;ndPNCounter -->
<g id="edge31" class="edge"><title>ndCmRDT&#45;&gt;ndPNCounter</title>
<path fill="none" stroke="black" stroke-dasharray="5,2" d="M2080.25,-610.98C2104.52,-550.99 2159.96,-386.048 2076.5,-300 2011.92,-233.413 1375.93,-214.277 1141.07,-209.457"/>
<polygon fill="none" stroke="black" points="1140.93,-205.954 1130.86,-209.252 1140.79,-212.953 1140.93,-205.954"/>
</g>
<!-- ndCmRDT&#45;&gt;ndOrswot -->
<g id="edge32" class="edge"><title>ndCmRDT&#45;&gt;ndOrswot</title>
<path fill="none" stroke="black" stroke-dasharray="5,2" d="M2112.63,-610.888C2134.87,-596.432 2160.07,-575.429 2172.5,-549 2210.22,-468.759 2234.33,-213.555 2172.5,-150 2121.89,-97.9737 938.61,-122.273 866.5,-114 837.036,-110.62 806.036,-105.681 775.897,-100.116"/>
<polygon fill="none" stroke="black" points="776.186,-96.6094 765.712,-98.2062 774.896,-103.489 776.186,-96.6094"/>
</g>
<!-- ndResetRemove -->
<g id="node10" class="node"><title>ndResetRemove</title>
<g id="a_node10_19"><a xlink:href="https://github.com/rust-crdt/rust-crdt/blob/master/src/traits.rs#:~:text=trait%20ResetRemove" xlink:title="&lt;TABLE&gt;">
<polygon fill="lightgreen" stroke="none" points="279.5,-615.5 279.5,-652.5 397.5,-652.5 397.5,-615.5 279.5,-615.5"/>
<polygon fill="none" stroke="black" points="279.5,-615.5 279.5,-652.5 397.5,-652.5 397.5,-615.5 279.5,-615.5"/>
<text text-anchor="start" x="290.5" y="-631.3" font-family="Arial" font-weight="bold" font-size="14.00">ResetRemove</text>
<polygon fill="none" stroke="black" points="278.5,-615 278.5,-654 398.5,-654 398.5,-615 278.5,-615"/>
</a>
</g>
</g>
<!-- ndResetRemove&#45;&gt;ndMap -->
<g id="edge33" class="edge"><title>ndResetRemove&#45;&gt;ndMap</title>
<path fill="none" stroke="black" stroke-dasharray="5,2" d="M270.366,-624.49C220.848,-614.392 155.859,-593.192 116.5,-549 -1.97519,-415.974 7.74129,-313.48 78.5,-150 82.8292,-139.998 88.8405,-130.583 95.776,-121.875"/>
<polygon fill="none" stroke="black" points="98.5877,-123.97 102.383,-114.079 93.2477,-119.444 98.5877,-123.97"/>
</g>
<!-- ndResetRemove&#45;&gt;ndGCounter -->
<g id="edge34" class="edge"><title>ndResetRemove&#45;&gt;ndGCounter</title>
<path fill="none" stroke="black" stroke-dasharray="5,2" d="M386.316,-610.988C407.936,-601.647 434.069,-591.494 458.5,-585 572.945,-554.578 629.888,-622.798 722.5,-549 764.85,-515.254 723.987,-469.771 765.5,-435 832.392,-378.971 876.024,-427.486 958.5,-399 961.641,-397.915 964.807,-396.738 967.978,-395.488"/>
<polygon fill="none" stroke="black" points="969.596,-398.606 977.488,-391.538 966.911,-392.142 969.596,-398.606"/>
</g>
<!-- ndResetRemove&#45;&gt;ndMVReg -->
<g id="edge35" class="edge"><title>ndResetRemove&#45;&gt;ndMVReg</title>
<path fill="none" stroke="black" stroke-dasharray="5,2" d="M345.104,-610.751C366.426,-537.549 432.68,-312.133 443.5,-300 502.258,-234.115 724.961,-148.22 866.261,-98.479"/>
<polygon fill="none" stroke="black" points="867.592,-101.721 875.869,-95.1082 865.275,-95.1161 867.592,-101.721"/>
</g>
<!-- ndResetRemove&#45;&gt;ndVClock -->
<g id="edge36" class="edge"><title>ndResetRemove&#45;&gt;ndVClock</title>
<path fill="none" stroke="black" stroke-dasharray="5,2" d="M375.301,-610.918C389.313,-602.536 405.514,-593.103 420.5,-585 449.632,-569.249 481.838,-553 511.195,-538.623"/>
<polygon fill="none" stroke="black" points="512.756,-541.756 520.208,-534.224 509.686,-535.465 512.756,-541.756"/>
</g>
<!-- ndResetRemove&#45;&gt;ndPNCounter -->
<g id="edge37" class="edge"><title>ndResetRemove&#45;&gt;ndPNCounter</title>
<path fill="none" stroke="black" stroke-dasharray="5,2" d="M362.892,-610.802C378.74,-594.861 398.751,-572.299 411.5,-549 439.21,-498.361 442.144,-338.111 485.5,-300 555.753,-238.245 826.836,-217.623 967.969,-210.991"/>
<polygon fill="none" stroke="black" points="968.485,-214.471 978.315,-210.519 968.166,-207.478 968.485,-214.471"/>
</g>
<!-- ndResetRemove&#45;&gt;ndOrswot -->
<g id="edge38" class="edge"><title>ndResetRemove&#45;&gt;ndOrswot</title>
<path fill="none" stroke="black" stroke-dasharray="5,2" d="M311.802,-610.895C268.821,-572.543 185.931,-489.975 154.5,-399 117.943,-293.189 111.842,-227.632 192.5,-150 247.831,-96.7447 286.628,-131.086 361.5,-114 376.373,-110.606 391.768,-107.019 407.221,-103.366"/>
<polygon fill="none" stroke="black" points="408.457,-106.67 417.38,-100.958 406.842,-99.8592 408.457,-106.67"/>
</g>
<!-- ndReadCtx -->
<g id="node11" class="node"><title>ndReadCtx</title>
<g id="a_node11_20"><a xlink:href="https://github.com/rust-crdt/rust-crdt/blob/master/src/ctx.rs#:~:text=struct%20ReadCtx" xlink:title="&lt;TABLE&gt;">
<polygon fill="lightblue" stroke="none" points="244.5,-222 244.5,-259 423.5,-259 423.5,-222 244.5,-222"/>
<polygon fill="none" stroke="black" points="244.5,-222 244.5,-259 423.5,-259 423.5,-222 244.5,-222"/>
<text text-anchor="start" x="304.5" y="-237.8" font-family="Arial" font-weight="bold" font-size="14.00">ReadCtx</text>
<polygon fill="white" stroke="none" points="244.5,-155 244.5,-222 423.5,-222 423.5,-155 244.5,-155"/>
<polygon fill="none" stroke="black" points="244.5,-155 244.5,-222 423.5,-222 423.5,-155 244.5,-155"/>
<text text-anchor="start" x="255.5" y="-199.8" font-family="Arial" font-size="14.00">+ add_clock: VClock&lt;A&gt;</text>
<text text-anchor="start" x="255.5" y="-184.8" font-family="Arial" font-size="14.00">+ rm_clock: VClock&lt;A&gt;</text>
<text text-anchor="start" x="255.5" y="-169.8" font-family="Arial" font-size="14.00">+ val: V</text>
<polygon fill="none" stroke="black" points="243,-154 243,-260 424,-260 424,-154 243,-154"/>
</a>
</g>
</g>
<!-- ndReadCtx&#45;&gt;ndMap -->
<g id="edge39" class="edge"><title>ndReadCtx&#45;&gt;ndMap</title>
<path fill="none" stroke="black" d="M273.697,-149.625C263.891,-140.382 253.672,-130.749 243.702,-121.349"/>
<polygon fill="black" stroke="black" points="236.137,-114.218 246.5,-117.803 239.775,-117.648 243.413,-121.077 243.413,-121.077 243.413,-121.077 239.775,-117.648 240.326,-124.352 236.137,-114.218 236.137,-114.218"/>
</g>
<!-- ndReadCtx&#45;&gt;ndMVReg -->
<g id="edge40" class="edge"><title>ndReadCtx&#45;&gt;ndMVReg</title>
<path fill="none" stroke="black" d="M432.234,-154.675C437.002,-152.957 441.772,-151.384 446.5,-150 587.249,-108.808 630.317,-140.801 774.5,-114 804.343,-108.453 836.162,-100.928 865.832,-93.1966"/>
<polygon fill="black" stroke="black" points="875.805,-90.5691 867.282,-97.4682 870.97,-91.8429 866.135,-93.1167 866.135,-93.1167 866.135,-93.1167 870.97,-91.8429 864.989,-88.7652 875.805,-90.5691 875.805,-90.5691"/>
</g>
<!-- ndReadCtx&#45;&gt;ndOrswot -->
<g id="edge41" class="edge"><title>ndReadCtx&#45;&gt;ndOrswot</title>
<path fill="none" stroke="black" d="M431.407,-149.837C448.766,-139.879 466.923,-129.463 484.518,-119.37"/>
<polygon fill="black" stroke="black" points="493.66,-114.125 487.225,-123.004 489.323,-116.613 484.986,-119.101 484.986,-119.101 484.986,-119.101 489.323,-116.613 482.747,-115.198 493.66,-114.125 493.66,-114.125"/>
</g>
<!-- ndAddCtx -->
<g id="node12" class="node"><title>ndAddCtx</title>
<g id="a_node12_21"><a xlink:href="https://github.com/rust-crdt/rust-crdt/blob/master/src/ctx.rs#:~:text=struct%20AddCtx" xlink:title="&lt;TABLE&gt;">
<polygon fill="lightblue" stroke="none" points="244.5,-356.5 244.5,-393.5 391.5,-393.5 391.5,-356.5 244.5,-356.5"/>
<polygon fill="none" stroke="black" points="244.5,-356.5 244.5,-393.5 391.5,-393.5 391.5,-356.5 244.5,-356.5"/>
<text text-anchor="start" x="292" y="-372.3" font-family="Arial" font-weight="bold" font-size="14.00">AddCtx</text>
<polygon fill="white" stroke="none" points="244.5,-304.5 244.5,-356.5 391.5,-356.5 391.5,-304.5 244.5,-304.5"/>
<polygon fill="none" stroke="black" points="244.5,-304.5 244.5,-356.5 391.5,-356.5 391.5,-304.5 244.5,-304.5"/>
<text text-anchor="start" x="255.5" y="-334.3" font-family="Arial" font-size="14.00">+ clock: VClock&lt;A&gt;</text>
<text text-anchor="start" x="255.5" y="-319.3" font-family="Arial" font-size="14.00">+ dot: Dot&lt;A&gt;</text>
<polygon fill="none" stroke="black" points="243,-304 243,-395 392,-395 392,-304 243,-304"/>
</a>
</g>
</g>
<!-- ndAddCtx&#45;&gt;ndReadCtx -->
<g id="edge42" class="edge"><title>ndAddCtx&#45;&gt;ndReadCtx</title>
<path fill="none" stroke="black" d="M323.051,-299.754C323.985,-291.551 324.969,-282.915 325.943,-274.356"/>
<polygon fill="black" stroke="black" points="327.08,-264.375 330.42,-274.82 326.514,-269.343 325.948,-274.311 325.948,-274.311 325.948,-274.311 326.514,-269.343 321.477,-273.802 327.08,-264.375 327.08,-264.375"/>
</g>
<!-- ndRmCtx -->
<g id="node13" class="node"><title>ndRmCtx</title>
<g id="a_node13_22"><a xlink:href="https://github.com/rust-crdt/rust-crdt/blob/master/src/ctx.rs#:~:text=struct%20RmCtx" xlink:title="&lt;TABLE&gt;">
<polygon fill="lightblue" stroke="none" points="504.5,-349.5 504.5,-386.5 651.5,-386.5 651.5,-349.5 504.5,-349.5"/>
<polygon fill="none" stroke="black" points="504.5,-349.5 504.5,-386.5 651.5,-386.5 651.5,-349.5 504.5,-349.5"/>
<text text-anchor="start" x="555" y="-365.3" font-family="Arial" font-weight="bold" font-size="14.00">RmCtx</text>
<polygon fill="white" stroke="none" points="504.5,-312.5 504.5,-349.5 651.5,-349.5 651.5,-312.5 504.5,-312.5"/>
<polygon fill="none" stroke="black" points="504.5,-312.5 504.5,-349.5 651.5,-349.5 651.5,-312.5 504.5,-312.5"/>
<text text-anchor="start" x="515.5" y="-327.3" font-family="Arial" font-size="14.00">+ clock: VClock&lt;A&gt;</text>
<polygon fill="none" stroke="black" points="503,-311.5 503,-387.5 652,-387.5 652,-311.5 503,-311.5"/>
</a>
</g>
</g>
<!-- ndRmCtx&#45;&gt;ndReadCtx -->
<g id="edge43" class="edge"><title>ndRmCtx&#45;&gt;ndReadCtx</title>
<path fill="none" stroke="black" d="M506.269,-307.484C485.531,-295.543 462.411,-282.229 440,-269.325"/>
<polygon fill="black" stroke="black" points="431.12,-264.212 442.032,-265.302 435.453,-266.707 439.786,-269.202 439.786,-269.202 439.786,-269.202 435.453,-266.707 437.541,-273.101 431.12,-264.212 431.12,-264.212"/>
</g>
<!-- ndNode -->
<g id="node14" class="node"><title>ndNode</title>
<g id="a_node14_23"><a xlink:href="https://github.com/rust-crdt/rust-crdt/blob/master/src/merkle_reg.rs#:~:text=struct%20Node" xlink:title="&lt;TABLE&gt;">
<polygon fill="lightblue" stroke="none" points="931.5,-641.5 931.5,-678.5 1132.5,-678.5 1132.5,-641.5 931.5,-641.5"/>
<polygon fill="none" stroke="black" points="931.5,-641.5 931.5,-678.5 1132.5,-678.5 1132.5,-641.5 931.5,-641.5"/>
<text text-anchor="start" x="1013.5" y="-657.3" font-family="Arial" font-weight="bold" font-size="14.00">Node</text>
<polygon fill="white" stroke="none" points="931.5,-589.5 931.5,-641.5 1132.5,-641.5 1132.5,-589.5 931.5,-589.5"/>
<polygon fill="none" stroke="black" points="931.5,-589.5 931.5,-641.5 1132.5,-641.5 1132.5,-589.5 931.5,-589.5"/>
<text text-anchor="start" x="942.5" y="-619.3" font-family="Arial" font-size="14.00">+ children: BTreeSet&lt;Hash&gt;</text>
<text text-anchor="start" x="942.5" y="-604.3" font-family="Arial" font-size="14.00">+ value: T</text>
<polygon fill="none" stroke="black" points="930,-589 930,-680 1133,-680 1133,-589 930,-589"/>
</a>
</g>
</g>
<!-- ndNode&#45;&gt;ndMerkleReg -->
<g id="edge44" class="edge"><title>ndNode&#45;&gt;ndMerkleReg</title>
<path fill="none" stroke="black" d="M1043.64,-584.754C1045.69,-576.551 1047.84,-567.915 1049.97,-559.356"/>
<polygon fill="black" stroke="black" points="1052.46,-549.375 1054.41,-560.166 1051.25,-554.227 1050.04,-559.079 1050.04,-559.079 1050.04,-559.079 1051.25,-554.227 1045.67,-557.991 1052.46,-549.375 1052.46,-549.375"/>
</g>
<!-- ndContent -->
<g id="node15" class="node"><title>ndContent</title>
<g id="a_node15_24"><a xlink:href="https://github.com/rust-crdt/rust-crdt/blob/master/src/merkle_reg.rs#:~:text=struct%20Content" xlink:title="&lt;TABLE&gt;">
<polygon fill="lightblue" stroke="none" points="1168.5,-634.5 1168.5,-671.5 1452.5,-671.5 1452.5,-634.5 1168.5,-634.5"/>
<polygon fill="none" stroke="black" points="1168.5,-634.5 1168.5,-671.5 1452.5,-671.5 1452.5,-634.5 1168.5,-634.5"/>
<text text-anchor="start" x="1283" y="-650.3" font-family="Arial" font-weight="bold" font-size="14.00">Content</text>
<polygon fill="white" stroke="none" points="1168.5,-597.5 1168.5,-634.5 1452.5,-634.5 1452.5,-597.5 1168.5,-597.5"/>
<polygon fill="none" stroke="black" points="1168.5,-597.5 1168.5,-634.5 1452.5,-634.5 1452.5,-597.5 1168.5,-597.5"/>
<text text-anchor="start" x="1179.5" y="-612.3" font-family="Arial" font-size="14.00">&#45; nodes: BTreeMap&lt;Hash, &amp;&#39;a Node&lt;T&gt;&gt;</text>
<polygon fill="none" stroke="black" points="1167.5,-596.5 1167.5,-672.5 1453.5,-672.5 1453.5,-596.5 1167.5,-596.5"/>
</a>
</g>
</g>
<!-- ndContent&#45;&gt;ndMerkleReg -->
<g id="edge45" class="edge"><title>ndContent&#45;&gt;ndMerkleReg</title>
<path fill="none" stroke="black" d="M1239.27,-592.484C1218.53,-580.543 1195.41,-567.229 1173,-554.325"/>
<polygon fill="black" stroke="black" points="1164.12,-549.212 1175.03,-550.302 1168.45,-551.707 1172.79,-554.202 1172.79,-554.202 1172.79,-554.202 1168.45,-551.707 1170.54,-558.101 1164.12,-549.212 1164.12,-549.212"/>
</g>
<!-- ndValidationError -->
<g id="node17" class="node"><title>ndValidationError</title>
<g id="a_node17_25"><a xlink:href="https://github.com/rust-crdt/rust-crdt/blob/master/src/merkle_reg.rs#:~:text=enum%20ValidationError" xlink:title="&lt;TABLE&gt;">
<polygon fill="yellow" stroke="none" points="2722.5,-769.5 2722.5,-806.5 2866.5,-806.5 2866.5,-769.5 2722.5,-769.5"/>
<polygon fill="none" stroke="black" points="2722.5,-769.5 2722.5,-806.5 2866.5,-806.5 2866.5,-769.5 2722.5,-769.5"/>
<text text-anchor="start" x="2741.5" y="-785.3" font-family="Arial" font-weight="bold" font-size="14.00">ValidationError</text>
<polygon fill="white" stroke="none" points="2722.5,-732.5 2722.5,-769.5 2866.5,-769.5 2866.5,-732.5 2722.5,-732.5"/>
<polygon fill="none" stroke="black" points="2722.5,-732.5 2722.5,-769.5 2866.5,-769.5 2866.5,-732.5 2722.5,-732.5"/>
<text text-anchor="start" x="2733.5" y="-747.3" font-family="Arial" font-size="14.00">MissingChild(Hash)</text>
<polygon fill="none" stroke="black" points="2721.5,-731.5 2721.5,-807.5 2867.5,-807.5 2867.5,-731.5 2721.5,-731.5"/>
</a>
</g>
</g>
<!-- ndSha3Hash -->
<g id="node18" class="node"><title>ndSha3Hash</title>
<g id="a_node18_26"><a xlink:href="https://github.com/rust-crdt/rust-crdt/blob/master/src/merkle_reg.rs#:~:text=trait%20Sha3Hash" xlink:title="&lt;TABLE&gt;">
<polygon fill="lightgreen" stroke="none" points="2903.5,-750.5 2903.5,-787.5 2996.5,-787.5 2996.5,-750.5 2903.5,-750.5"/>
<polygon fill="none" stroke="black" points="2903.5,-750.5 2903.5,-787.5 2996.5,-787.5 2996.5,-750.5 2903.5,-750.5"/>
<text text-anchor="start" x="2914.5" y="-766.3" font-family="Arial" font-weight="bold" font-size="14.00">Sha3Hash</text>
<polygon fill="none" stroke="black" points="2902,-750 2902,-789 2997,-789 2997,-750 2902,-750"/>
</a>
</g>
</g>
<!-- ndGCounter&#45;&gt;ndPNCounter -->
<g id="edge46" class="edge"><title>ndGCounter&#45;&gt;ndPNCounter</title>
<path fill="none" stroke="black" d="M1052.38,-307.484C1052.63,-295.392 1052.92,-281.893 1053.2,-268.837"/>
<polygon fill="black" stroke="black" points="1053.21,-268.512 1049.34,-262.427 1053.46,-256.514 1057.34,-262.598 1053.21,-268.512"/>
</g>
<!-- ndDot -->
<g id="node21" class="node"><title>ndDot</title>
<g id="a_node21_27"><a xlink:href="https://github.com/rust-crdt/rust-crdt/blob/master/src/dot.rs#:~:text=struct%20Dot" xlink:title="&lt;TABLE&gt;">
<polygon fill="lightblue" stroke="none" points="504.5,-776.5 504.5,-813.5 617.5,-813.5 617.5,-776.5 504.5,-776.5"/>
<polygon fill="none" stroke="black" points="504.5,-776.5 504.5,-813.5 617.5,-813.5 617.5,-776.5 504.5,-776.5"/>
<text text-anchor="start" x="548.5" y="-792.3" font-family="Arial" font-weight="bold" font-size="14.00">Dot</text>
<polygon fill="white" stroke="none" points="504.5,-724.5 504.5,-776.5 617.5,-776.5 617.5,-724.5 504.5,-724.5"/>
<polygon fill="none" stroke="black" points="504.5,-724.5 504.5,-776.5 617.5,-776.5 617.5,-724.5 504.5,-724.5"/>
<text text-anchor="start" x="515.5" y="-754.3" font-family="Arial" font-size="14.00">+ actor: A</text>
<text text-anchor="start" x="515.5" y="-739.3" font-family="Arial" font-size="14.00">+ counter: u64</text>
<polygon fill="none" stroke="black" points="503,-724 503,-815 618,-815 618,-724 503,-724"/>
</a>
</g>
</g>
<!-- ndDot&#45;&gt;ndOp -->
<g id="edge47" class="edge"><title>ndDot&#45;&gt;ndOp</title>
<path fill="none" stroke="black" d="M626.246,-765.2C868.217,-752.876 1697.85,-708.982 1748.5,-684 1748.7,-683.9 1748.9,-683.799 1749.1,-683.697"/>
<polygon fill="black" stroke="black" points="1757.77,-678.257 1751.69,-687.387 1753.53,-680.917 1749.3,-683.576 1749.3,-683.576 1749.3,-683.576 1753.53,-680.917 1746.9,-679.765 1757.77,-678.257 1757.77,-678.257"/>
</g>
<!-- ndDot&#45;&gt;ndAddCtx -->
<g id="edge48" class="edge"><title>ndDot&#45;&gt;ndAddCtx</title>
<path fill="none" stroke="black" d="M494.616,-723.877C491.586,-722.47 488.54,-721.167 485.5,-720 391.37,-683.849 326.899,-760.748 261.5,-684 196.034,-607.173 243.756,-483.122 282.163,-409.927"/>
<polygon fill="black" stroke="black" points="282.315,-409.644 281.627,-402.466 287.988,-399.07 288.676,-406.248 282.315,-409.644"/>
</g>
<!-- ndDot&#45;&gt;ndGCounter -->
<g id="edge49" class="edge"><title>ndDot&#45;&gt;ndGCounter</title>
<path fill="none" stroke="black" d="M511.551,-719.739C503.333,-708.807 496.015,-696.667 491.5,-684 476.728,-642.554 462.54,-618.126 491.5,-585 570.31,-494.851 660.367,-617.612 758.5,-549 805.424,-516.192 773.712,-470.669 818.5,-435 867.41,-396.047 896.009,-421.097 954.5,-399 957.401,-397.904 960.33,-396.749 963.271,-395.546"/>
<polygon fill="black" stroke="black" points="972.689,-391.557 965.236,-399.601 968.085,-393.507 963.481,-395.457 963.481,-395.457 963.481,-395.457 968.085,-393.507 961.725,-391.313 972.689,-391.557 972.689,-391.557"/>
</g>
<!-- ndCausalityBarrier -->
<g id="node26" class="node"><title>ndCausalityBarrier</title>
<g id="a_node26_28"><a xlink:href="https://github.com/rust-crdt/rust-crdt/blob/master/src/vvwe.rs#:~:text=struct%20CausalityBarrier" xlink:title="&lt;TABLE&gt;">
<polygon fill="lightblue" stroke="none" points="1488.5,-641.5 1488.5,-678.5 1730.5,-678.5 1730.5,-641.5 1488.5,-641.5"/>
<polygon fill="none" stroke="black" points="1488.5,-641.5 1488.5,-678.5 1730.5,-678.5 1730.5,-641.5 1488.5,-641.5"/>
<text text-anchor="start" x="1552.5" y="-657.3" font-family="Arial" font-weight="bold" font-size="14.00">CausalityBarrier</text>
<polygon fill="white" stroke="none" points="1488.5,-589.5 1488.5,-641.5 1730.5,-641.5 1730.5,-589.5 1488.5,-589.5"/>
<polygon fill="none" stroke="black" points="1488.5,-589.5 1488.5,-641.5 1730.5,-641.5 1730.5,-589.5 1488.5,-589.5"/>
<text text-anchor="start" x="1499.5" y="-619.3" font-family="Arial" font-size="14.00">&#45; peers: HashMap&lt;A, VectorEntry&gt;</text>
<text text-anchor="start" x="1499.5" y="-604.3" font-family="Arial" font-size="14.00">&#45; buffer: HashMap&lt;Dot&lt;A&gt;, T&gt;</text>
<polygon fill="none" stroke="black" points="1487.5,-589 1487.5,-680 1731.5,-680 1731.5,-589 1487.5,-589"/>
</a>
</g>
</g>
<!-- ndDot&#45;&gt;ndCausalityBarrier -->
<g id="edge50" class="edge"><title>ndDot&#45;&gt;ndCausalityBarrier</title>
<path fill="none" stroke="black" d="M626.153,-767.845C775.195,-765.197 1150.15,-751.978 1467.44,-684.531"/>
<polygon fill="black" stroke="black" points="1467.44,-684.53 1472.47,-679.358 1479.18,-682.006 1474.15,-687.179 1467.44,-684.53"/>
</g>
<!-- ndDot&#45;&gt;ndVClock -->
<g id="edge51" class="edge"><title>ndDot&#45;&gt;ndVClock</title>
<path fill="none" stroke="black" d="M494.909,-721.342C477.913,-707.623 463.074,-693.729 458.5,-684 439.779,-644.181 437.065,-623.426 458.5,-585 468.555,-566.975 483.756,-552.04 500.666,-539.823"/>
<polygon fill="black" stroke="black" points="509.09,-534.043 503.39,-543.412 504.967,-536.872 500.844,-539.701 500.844,-539.701 500.844,-539.701 504.967,-536.872 498.298,-535.991 509.09,-534.043 509.09,-534.043"/>
</g>
<!-- ndIntoIter -->
<g id="node33" class="node"><title>ndIntoIter</title>
<g id="a_node33_29"><a xlink:href="https://github.com/rust-crdt/rust-crdt/blob/master/src/vclock.rs#:~:text=struct%20IntoIter" xlink:title="&lt;TABLE&gt;">
<polygon fill="lightblue" stroke="none" points="509.5,-634.5 509.5,-671.5 787.5,-671.5 787.5,-634.5 509.5,-634.5"/>
<polygon fill="none" stroke="black" points="509.5,-634.5 509.5,-671.5 787.5,-671.5 787.5,-634.5 509.5,-634.5"/>
<text text-anchor="start" x="624" y="-650.3" font-family="Arial" font-weight="bold" font-size="14.00">IntoIter</text>
<polygon fill="white" stroke="none" points="509.5,-597.5 509.5,-634.5 787.5,-634.5 787.5,-597.5 509.5,-597.5"/>
<polygon fill="none" stroke="black" points="509.5,-597.5 509.5,-634.5 787.5,-634.5 787.5,-597.5 509.5,-597.5"/>
<text text-anchor="start" x="520.5" y="-612.3" font-family="Arial" font-size="14.00">&#45; btree_iter: btree_map::IntoIter&lt;A, u64&gt;</text>
<polygon fill="none" stroke="black" points="508.5,-596.5 508.5,-672.5 788.5,-672.5 788.5,-596.5 508.5,-596.5"/>
</a>
</g>
</g>
<!-- ndDot&#45;&gt;ndIntoIter -->
<g id="edge52" class="edge"><title>ndDot&#45;&gt;ndIntoIter</title>
<path fill="none" stroke="black" d="M592.768,-719.731C600.195,-708.506 608.103,-696.554 615.558,-685.287"/>
<polygon fill="black" stroke="black" points="621.156,-676.827 619.39,-687.65 618.397,-680.997 615.637,-685.167 615.637,-685.167 615.637,-685.167 618.397,-680.997 611.885,-682.684 621.156,-676.827 621.156,-676.827"/>
</g>
<!-- ndOrdDot -->
<g id="node22" class="node"><title>ndOrdDot</title>
<g id="a_node22_30"><a xlink:href="https://github.com/rust-crdt/rust-crdt/blob/master/src/dot.rs#:~:text=struct%20OrdDot" xlink:title="&lt;TABLE&gt;">
<polygon fill="lightblue" stroke="none" points="2017.5,-776.5 2017.5,-813.5 2130.5,-813.5 2130.5,-776.5 2017.5,-776.5"/>
<polygon fill="none" stroke="black" points="2017.5,-776.5 2017.5,-813.5 2130.5,-813.5 2130.5,-776.5 2017.5,-776.5"/>
<text text-anchor="start" x="2048.5" y="-792.3" font-family="Arial" font-weight="bold" font-size="14.00">OrdDot</text>
<polygon fill="white" stroke="none" points="2017.5,-724.5 2017.5,-776.5 2130.5,-776.5 2130.5,-724.5 2017.5,-724.5"/>
<polygon fill="none" stroke="black" points="2017.5,-724.5 2017.5,-776.5 2130.5,-776.5 2130.5,-724.5 2017.5,-724.5"/>
<text text-anchor="start" x="2028.5" y="-754.3" font-family="Arial" font-size="14.00">+ actor: A</text>
<text text-anchor="start" x="2028.5" y="-739.3" font-family="Arial" font-size="14.00">+ counter: u64</text>
<polygon fill="none" stroke="black" points="2016,-724 2016,-815 2131,-815 2131,-724 2016,-724"/>
</a>
</g>
</g>
<!-- ndOrdDot&#45;&gt;ndOp -->
<g id="edge53" class="edge"><title>ndOrdDot&#45;&gt;ndOp</title>
<path fill="none" stroke="black" d="M2007.54,-749.761C1961.76,-735.282 1900.29,-712.85 1850.5,-684 1844.64,-680.606 1838.77,-676.636 1833.13,-672.455"/>
<polygon fill="black" stroke="black" points="1825.06,-666.222 1835.72,-668.77 1829.01,-669.277 1832.97,-672.332 1832.97,-672.332 1832.97,-672.332 1829.01,-669.277 1830.22,-675.894 1825.06,-666.222 1825.06,-666.222"/>
</g>
<!-- ndOrdDot&#45;&gt;ndList -->
<g id="edge54" class="edge"><title>ndOrdDot&#45;&gt;ndList</title>
<path fill="none" stroke="black" d="M2110.4,-719.773C2117.03,-708.571 2122.96,-696.315 2126.5,-684 2157.53,-576.144 2156.92,-520.739 2084.5,-435 2075.23,-424.027 2064.22,-414.384 2052.28,-405.931"/>
<polygon fill="black" stroke="black" points="2052.03,-405.765 2044.82,-405.763 2042.05,-399.106 2049.26,-399.108 2052.03,-405.765"/>
</g>
<!-- ndDotRange -->
<g id="node23" class="node"><title>ndDotRange</title>
<g id="a_node23_31"><a xlink:href="https://github.com/rust-crdt/rust-crdt/blob/master/src/dot.rs#:~:text=struct%20DotRange" xlink:title="&lt;TABLE&gt;">
<polygon fill="lightblue" stroke="none" points="3032.5,-776.5 3032.5,-813.5 3316.5,-813.5 3316.5,-776.5 3032.5,-776.5"/>
<polygon fill="none" stroke="black" points="3032.5,-776.5 3032.5,-813.5 3316.5,-813.5 3316.5,-776.5 3032.5,-776.5"/>
<text text-anchor="start" x="3140" y="-792.3" font-family="Arial" font-weight="bold" font-size="14.00">DotRange</text>
<polygon fill="white" stroke="none" points="3032.5,-724.5 3032.5,-776.5 3316.5,-776.5 3316.5,-724.5 3032.5,-724.5"/>
<polygon fill="none" stroke="black" points="3032.5,-724.5 3032.5,-776.5 3316.5,-776.5 3316.5,-724.5 3032.5,-724.5"/>
<text text-anchor="start" x="3043.5" y="-754.3" font-family="Arial" font-size="14.00">+ actor: A</text>
<text text-anchor="start" x="3043.5" y="-739.3" font-family="Arial" font-size="14.00">+ counter_range: core::ops::Range&lt;u64&gt;</text>
<polygon fill="none" stroke="black" points="3031.5,-724 3031.5,-815 3317.5,-815 3317.5,-724 3031.5,-724"/>
</a>
</g>
</g>
<!-- ndValidation -->
<g id="node25" class="node"><title>ndValidation</title>
<g id="a_node25_32"><a xlink:href="https://github.com/rust-crdt/rust-crdt/blob/master/src/orswot.rs#:~:text=enum%20Validation" xlink:title="&lt;TABLE&gt;">
<polygon fill="yellow" stroke="none" points="1868.5,-634.5 1868.5,-671.5 1996.5,-671.5 1996.5,-634.5 1868.5,-634.5"/>
<polygon fill="none" stroke="black" points="1868.5,-634.5 1868.5,-671.5 1996.5,-671.5 1996.5,-634.5 1868.5,-634.5"/>
<text text-anchor="start" x="1898" y="-650.3" font-family="Arial" font-weight="bold" font-size="14.00">Validation</text>
<polygon fill="white" stroke="none" points="1868.5,-597.5 1868.5,-634.5 1996.5,-634.5 1996.5,-597.5 1868.5,-597.5"/>
<polygon fill="none" stroke="black" points="1868.5,-597.5 1868.5,-634.5 1996.5,-634.5 1996.5,-597.5 1868.5,-597.5"/>
<text text-anchor="start" x="1879.5" y="-612.3" font-family="Arial" font-size="14.00">DoubleSpentDot</text>
<polygon fill="none" stroke="black" points="1867.5,-596.5 1867.5,-672.5 1997.5,-672.5 1997.5,-596.5 1867.5,-596.5"/>
</a>
</g>
</g>
<!-- ndValidation&#45;&gt;ndLWWReg -->
<g id="edge55" class="edge"><title>ndValidation&#45;&gt;ndLWWReg</title>
<path fill="none" stroke="black" d="M1940.09,-592.484C1942.47,-579.644 1945.14,-565.218 1947.69,-551.419"/>
<polygon fill="black" stroke="black" points="1949.52,-541.514 1952.13,-552.166 1948.61,-546.431 1947.7,-551.347 1947.7,-551.347 1947.7,-551.347 1948.61,-546.431 1943.28,-550.528 1949.52,-541.514 1949.52,-541.514"/>
</g>
<!-- ndVectorEntry -->
<g id="node27" class="node"><title>ndVectorEntry</title>
<g id="a_node27_33"><a xlink:href="https://github.com/rust-crdt/rust-crdt/blob/master/src/vvwe.rs#:~:text=struct%20VectorEntry" xlink:title="&lt;TABLE&gt;">
<polygon fill="lightblue" stroke="none" points="1492.5,-776.5 1492.5,-813.5 1726.5,-813.5 1726.5,-776.5 1492.5,-776.5"/>
<polygon fill="none" stroke="black" points="1492.5,-776.5 1492.5,-813.5 1726.5,-813.5 1726.5,-776.5 1492.5,-776.5"/>
<text text-anchor="start" x="1568" y="-792.3" font-family="Arial" font-weight="bold" font-size="14.00">VectorEntry</text>
<polygon fill="white" stroke="none" points="1492.5,-724.5 1492.5,-776.5 1726.5,-776.5 1726.5,-724.5 1492.5,-724.5"/>
<polygon fill="none" stroke="black" points="1492.5,-724.5 1492.5,-776.5 1726.5,-776.5 1726.5,-724.5 1492.5,-724.5"/>
<text text-anchor="start" x="1503.5" y="-754.3" font-family="Arial" font-size="14.00">&#45; next_version: LogTime</text>
<text text-anchor="start" x="1503.5" y="-739.3" font-family="Arial" font-size="14.00">&#45; exceptions: HashSet&lt;LogTime&gt;</text>
<polygon fill="none" stroke="black" points="1491.5,-724 1491.5,-815 1727.5,-815 1727.5,-724 1491.5,-724"/>
</a>
</g>
</g>
<!-- ndVectorEntry&#45;&gt;ndCausalityBarrier -->
<g id="edge56" class="edge"><title>ndVectorEntry&#45;&gt;ndCausalityBarrier</title>
<path fill="none" stroke="black" d="M1609.5,-719.731C1609.5,-711.509 1609.5,-702.896 1609.5,-694.449"/>
<polygon fill="black" stroke="black" points="1609.5,-684.263 1614,-694.263 1609.5,-689.263 1609.5,-694.263 1609.5,-694.263 1609.5,-694.263 1609.5,-689.263 1605,-694.263 1609.5,-684.263 1609.5,-684.263"/>
</g>
<!-- ndCausalOp -->
<g id="node28" class="node"><title>ndCausalOp</title>
<g id="a_node28_34"><a xlink:href="https://github.com/rust-crdt/rust-crdt/blob/master/src/vvwe.rs#:~:text=trait%20CausalOp" xlink:title="&lt;TABLE&gt;">
<polygon fill="lightgreen" stroke="none" points="3353.5,-750.5 3353.5,-787.5 3444.5,-787.5 3444.5,-750.5 3353.5,-750.5"/>
<polygon fill="none" stroke="black" points="3353.5,-750.5 3353.5,-787.5 3444.5,-787.5 3444.5,-750.5 3353.5,-750.5"/>
<text text-anchor="start" x="3364.5" y="-766.3" font-family="Arial" font-weight="bold" font-size="14.00">CausalOp</text>
<polygon fill="none" stroke="black" points="3352,-750 3352,-789 3445,-789 3445,-750 3352,-750"/>
</a>
</g>
</g>
<!-- ndVClock&#45;&gt;ndMap -->
<g id="edge57" class="edge"><title>ndVClock&#45;&gt;ndMap</title>
<path fill="none" stroke="black" d="M501.195,-478.785C401.4,-465.04 262.126,-439.226 225.5,-399 158.368,-325.27 157.893,-202.947 165.727,-126.594"/>
<polygon fill="black" stroke="black" points="165.77,-126.212 162.461,-119.805 167.102,-114.286 170.411,-120.693 165.77,-126.212"/>
</g>
<!-- ndVClock&#45;&gt;ndEntry -->
<g id="edge58" class="edge"><title>ndVClock&#45;&gt;ndEntry</title>
<path fill="none" stroke="black" d="M674.06,-449.984C696.717,-436.022 722.417,-420.185 746.542,-405.318"/>
<polygon fill="black" stroke="black" points="746.556,-405.31 749.566,-398.757 756.772,-399.014 753.763,-405.567 746.556,-405.31"/>
</g>
<!-- ndVClock&#45;&gt;ndReadCtx -->
<g id="edge59" class="edge"><title>ndVClock&#45;&gt;ndReadCtx</title>
<path fill="none" stroke="black" d="M640.775,-449.64C669.795,-408.225 702.373,-344.43 668.5,-300 641.084,-264.04 530.853,-238.642 444.227,-223.771"/>
<polygon fill="black" stroke="black" points="444.005,-223.734 437.424,-226.682 432.171,-221.742 438.752,-218.793 444.005,-223.734"/>
</g>
<!-- ndVClock&#45;&gt;ndAddCtx -->
<g id="edge60" class="edge"><title>ndVClock&#45;&gt;ndAddCtx</title>
<path fill="none" stroke="black" d="M522.84,-449.984C487.842,-433.028 447.135,-413.306 411.238,-395.915"/>
<polygon fill="black" stroke="black" points="411.064,-395.83 403.92,-396.814 400.264,-390.598 407.408,-389.614 411.064,-395.83"/>
</g>
<!-- ndVClock&#45;&gt;ndRmCtx -->
<g id="edge61" class="edge"><title>ndVClock&#45;&gt;ndRmCtx</title>
<path fill="none" stroke="black" d="M598.742,-449.984C595.658,-435.54 592.145,-419.089 588.877,-403.781"/>
<polygon fill="black" stroke="black" points="588.827,-403.546 583.662,-398.513 586.321,-391.81 591.485,-396.843 588.827,-403.546"/>
</g>
<!-- ndVClock&#45;&gt;ndGCounter -->
<g id="edge62" class="edge"><title>ndVClock&#45;&gt;ndGCounter</title>
<path fill="none" stroke="black" d="M687.282,-449.994C700.475,-444.317 714.194,-439.052 727.5,-435 826.899,-404.729 859.792,-431.454 958.5,-399 961.237,-398.1 963.99,-397.126 966.748,-396.091"/>
<polygon fill="black" stroke="black" points="966.95,-396.01 971.018,-390.056 978.079,-391.522 974.011,-397.475 966.95,-396.01"/>
</g>
<!-- ndVClock&#45;&gt;ndList -->
<g id="edge63" class="edge"><title>ndVClock&#45;&gt;ndList</title>
<path fill="none" stroke="black" d="M713.667,-468.9C772.114,-457.392 846.068,-443.904 912.5,-435 1198.19,-396.709 1532.58,-372.469 1731.29,-360.209"/>
<polygon fill="black" stroke="black" points="1731.32,-360.207 1737.07,-355.847 1743.3,-359.473 1737.56,-363.832 1731.32,-360.207"/>
</g>
<!-- ndVClock&#45;&gt;ndMVReg -->
<g id="edge64" class="edge"><title>ndVClock&#45;&gt;ndMVReg</title>
<path fill="none" stroke="black" d="M681.449,-449.953C693.579,-444.317 706.207,-439.075 718.5,-435 806.721,-405.752 858.59,-464.53 924.5,-399 964.375,-359.355 959.391,-205.314 969.5,-150 971.801,-137.407 974.297,-123.849 976.649,-111.112"/>
<polygon fill="black" stroke="black" points="976.668,-111.011 973.825,-104.384 978.849,-99.2113 981.692,-105.839 976.668,-111.011"/>
</g>
<!-- ndVClock&#45;&gt;ndOrswot -->
<g id="edge65" class="edge"><title>ndVClock&#45;&gt;ndOrswot</title>
<path fill="none" stroke="black" d="M656.43,-449.778C670.126,-435.292 683.244,-417.874 690.5,-399 706.288,-357.93 698.989,-343.173 690.5,-300 678.378,-238.354 650.426,-172.63 627.304,-125.256"/>
<polygon fill="black" stroke="black" points="627.169,-124.983 620.923,-121.379 621.847,-114.227 628.093,-117.831 627.169,-124.983"/>
</g>
<!-- ndDir -->
<g id="node35" class="node"><title>ndDir</title>
<g id="a_node35_35"><a xlink:href="https://github.com/rust-crdt/rust-crdt/blob/master/src/pncounter.rs#:~:text=enum%20Dir" xlink:title="&lt;TABLE&gt;">
<polygon fill="yellow" stroke="none" points="1767.5,-776.5 1767.5,-813.5 1816.5,-813.5 1816.5,-776.5 1767.5,-776.5"/>
<polygon fill="none" stroke="black" points="1767.5,-776.5 1767.5,-813.5 1816.5,-813.5 1816.5,-776.5 1767.5,-776.5"/>
<text text-anchor="start" x="1781.5" y="-792.3" font-family="Arial" font-weight="bold" font-size="14.00">Dir</text>
<polygon fill="white" stroke="none" points="1767.5,-724.5 1767.5,-776.5 1816.5,-776.5 1816.5,-724.5 1767.5,-724.5"/>
<polygon fill="none" stroke="black" points="1767.5,-724.5 1767.5,-776.5 1816.5,-776.5 1816.5,-724.5 1767.5,-724.5"/>
<text text-anchor="start" x="1778.5" y="-754.3" font-family="Arial" font-size="14.00">Pos</text>
<text text-anchor="start" x="1778.5" y="-739.3" font-family="Arial" font-size="14.00">Neg</text>
<polygon fill="none" stroke="black" points="1766,-724 1766,-815 1817,-815 1817,-724 1766,-724"/>
</a>
</g>
</g>
<!-- ndDir&#45;&gt;ndOp -->
<g id="edge66" class="edge"><title>ndDir&#45;&gt;ndOp</title>
<path fill="none" stroke="black" d="M1791.5,-719.731C1791.5,-712.141 1791.5,-704.219 1791.5,-696.401"/>
<polygon fill="black" stroke="black" points="1791.5,-696.263 1787.5,-690.263 1791.5,-684.263 1795.5,-690.263 1791.5,-696.263"/>
</g>
</g>
</svg>
