<?xml version="1.0" encoding="UTF-8" standalone="no"?>
<!DOCTYPE svg PUBLIC "-//W3C//DTD SVG 1.1//EN"
 "http://www.w3.org/Graphics/SVG/1.1/DTD/svg11.dtd">
<!-- Generated by graphviz version 2.38.0 (20140413.2041)
 -->
<!-- Title: ml Pages: 1 -->
<svg width="4182pt" height="650pt"
 viewBox="0.00 0.00 4181.50 650.00" xmlns="http://www.w3.org/2000/svg" xmlns:xlink="http://www.w3.org/1999/xlink">
<g id="graph0" class="graph" transform="scale(1 1) rotate(0) translate(4 646)">
<title>ml</title>
<polygon fill="white" stroke="none" points="-4,4 -4,-646 4177.5,-646 4177.5,4 -4,4"/>
<!-- ndVal -->
<g id="node1" class="node"><title>ndVal</title>
<g id="a_node1_0"><a xlink:href="https://github.com/rust-crdt/rust-crdt/blob/master/src/map.rs#:~:text=trait%20Val" xlink:title="&lt;TABLE&gt;">
<polygon fill="lightgreen" stroke="none" points="212.5,-566 212.5,-603 256.5,-603 256.5,-566 212.5,-566"/>
<polygon fill="none" stroke="black" points="212.5,-566 212.5,-603 256.5,-603 256.5,-566 212.5,-566"/>
<text text-anchor="start" x="223.5" y="-581.8" font-family="Arial" font-weight="bold" font-size="14.00">Val</text>
<polygon fill="white" stroke="none" points="212.5,-528 212.5,-566 256.5,-566 256.5,-528 212.5,-528"/>
<polygon fill="none" stroke="black" points="212.5,-528 212.5,-566 256.5,-566 256.5,-528 212.5,-528"/>
<polygon fill="none" stroke="black" points="211.5,-527.5 211.5,-604.5 257.5,-604.5 257.5,-527.5 211.5,-527.5"/>
</a>
</g>
</g>
<!-- ndMap -->
<g id="node2" class="node"><title>ndMap</title>
<text text-anchor="middle" x="498.5" y="-14.3" font-family="Times,serif" font-size="14.00">ndMap</text>
</g>
<!-- ndEntry -->
<g id="node3" class="node"><title>ndEntry</title>
<text text-anchor="middle" x="756.5" y="-158.3" font-family="Times,serif" font-size="14.00">ndEntry</text>
</g>
<!-- ndOp -->
<g id="node4" class="node"><title>ndOp</title>
<g id="a_node4_1"><a xlink:href="https://github.com/rust-crdt/rust-crdt/blob/master/src/orswot.rs#:~:text=enum%20Op" xlink:title="&lt;TABLE&gt;">
<polygon fill="yellow" stroke="none" points="1812.5,-412 1812.5,-449 2221.5,-449 2221.5,-412 1812.5,-412"/>
<polygon fill="none" stroke="black" points="1812.5,-412 1812.5,-449 2221.5,-449 2221.5,-412 1812.5,-412"/>
<text text-anchor="start" x="2006.5" y="-427.8" font-family="Arial" font-weight="bold" font-size="14.00">Op</text>
<polygon fill="white" stroke="none" points="1812.5,-360 1812.5,-412 2221.5,-412 2221.5,-360 1812.5,-360"/>
<polygon fill="none" stroke="black" points="1812.5,-360 1812.5,-412 2221.5,-412 2221.5,-360 1812.5,-360"/>
<text text-anchor="start" x="1823.5" y="-389.8" font-family="Arial" font-size="14.00">Add</text>
<text text-anchor="start" x="1823.5" y="-374.8" font-family="Arial" font-size="14.00">Rm</text>
<polygon fill="white" stroke="none" points="1812.5,-293 1812.5,-360 2221.5,-360 2221.5,-293 1812.5,-293"/>
<polygon fill="none" stroke="black" points="1812.5,-293 1812.5,-360 2221.5,-360 2221.5,-293 1812.5,-293"/>
<text text-anchor="start" x="1823.5" y="-337.8" font-family="Arial" font-size="14.00">&#45; arbitrary(g: &amp;mut G) &#45;&gt; Self</text>
<text text-anchor="start" x="1823.5" y="-322.8" font-family="Arial" font-size="14.00">&#45; shrink(&amp;self) &#45;&gt; Box&lt;dyn Iterator&lt;Item = Self&gt;&gt;</text>
<text text-anchor="start" x="1823.5" y="-307.8" font-family="Arial" font-size="14.00">&#45; fmt(&amp;self, f: &amp;mut std::fmt::Formatter&lt;&#39;_&gt;) &#45;&gt; std::fmt::Result</text>
<polygon fill="none" stroke="black" points="1811,-292 1811,-450 2222,-450 2222,-292 1811,-292"/>
</a>
</g>
</g>
<!-- ndOp&#45;&gt;ndMap -->
<g id="edge1" class="edge"><title>ndOp&#45;&gt;ndMap</title>
<path fill="none" stroke="black" stroke-dasharray="5,2" d="M1813.41,-287.916C1792.9,-276.886 1772.88,-264.885 1754.5,-252 1736.23,-239.192 1739.01,-226.838 1719.5,-216 1653.89,-179.545 1627.82,-196.078 1554.5,-180 1336.67,-132.231 1285.16,-104.286 1064.5,-72 849.313,-40.514 791.724,-67.2335 576.5,-36 563.405,-34.0996 549.228,-31.2521 536.598,-28.4283"/>
<polygon fill="black" stroke="black" points="526.85,-26.1873 537.604,-24.0424 531.723,-27.3076 536.596,-28.428 536.596,-28.428 536.596,-28.428 531.723,-27.3076 535.588,-32.8136 526.85,-26.1873 526.85,-26.1873"/>
</g>
<!-- ndMerkleReg -->
<g id="node16" class="node"><title>ndMerkleReg</title>
<text text-anchor="middle" x="1628.5" y="-230.3" font-family="Times,serif" font-size="14.00">ndMerkleReg</text>
</g>
<!-- ndOp&#45;&gt;ndMerkleReg -->
<g id="edge2" class="edge"><title>ndOp&#45;&gt;ndMerkleReg</title>
<path fill="none" stroke="black" stroke-dasharray="5,2" d="M1802.92,-291.26C1799.76,-290.161 1796.62,-289.074 1793.5,-288 1757.28,-275.529 1716.27,-262.352 1684.2,-252.257"/>
<polygon fill="black" stroke="black" points="1674.55,-249.227 1685.43,-247.929 1679.32,-250.724 1684.09,-252.222 1684.09,-252.222 1684.09,-252.222 1679.32,-250.724 1682.74,-256.515 1674.55,-249.227 1674.55,-249.227"/>
</g>
<!-- ndGSet -->
<g id="node19" class="node"><title>ndGSet</title>
<text text-anchor="middle" x="1341.5" y="-230.3" font-family="Times,serif" font-size="14.00">ndGSet</text>
</g>
<!-- ndOp&#45;&gt;ndGSet -->
<g id="edge3" class="edge"><title>ndOp&#45;&gt;ndGSet</title>
<path fill="none" stroke="black" stroke-dasharray="5,2" d="M1802.88,-290.27C1799.74,-289.484 1796.61,-288.726 1793.5,-288 1646.38,-253.671 1605.35,-271.145 1455.5,-252 1430.31,-248.782 1402.08,-244.577 1380.02,-241.154"/>
<polygon fill="black" stroke="black" points="1370.03,-239.594 1380.61,-236.692 1374.97,-240.366 1379.91,-241.138 1379.91,-241.138 1379.91,-241.138 1374.97,-240.366 1379.22,-245.584 1370.03,-239.594 1370.03,-239.594"/>
</g>
<!-- ndGCounter -->
<g id="node20" class="node"><title>ndGCounter</title>
<text text-anchor="middle" x="884.5" y="-158.3" font-family="Times,serif" font-size="14.00">ndGCounter</text>
</g>
<!-- ndOp&#45;&gt;ndGCounter -->
<g id="edge4" class="edge"><title>ndOp&#45;&gt;ndGCounter</title>
<path fill="none" stroke="black" stroke-dasharray="5,2" d="M1802.82,-290.516C1799.7,-289.653 1796.59,-288.813 1793.5,-288 1697.68,-262.789 1662.55,-295.435 1573.5,-252 1552.3,-241.659 1556.1,-225.476 1534.5,-216 1480.32,-192.233 1081.3,-171.945 936.665,-165.298"/>
<polygon fill="black" stroke="black" points="926.294,-164.825 936.489,-160.786 931.289,-165.053 936.284,-165.281 936.284,-165.281 936.284,-165.281 931.289,-165.053 936.079,-169.776 926.294,-164.825 926.294,-164.825"/>
</g>
<!-- ndLWWReg -->
<g id="node24" class="node"><title>ndLWWReg</title>
<text text-anchor="middle" x="1112.5" y="-230.3" font-family="Times,serif" font-size="14.00">ndLWWReg</text>
</g>
<!-- ndOp&#45;&gt;ndLWWReg -->
<g id="edge5" class="edge"><title>ndOp&#45;&gt;ndLWWReg</title>
<path fill="none" stroke="black" stroke-dasharray="5,2" d="M1802.92,-290.126C1799.76,-289.385 1796.62,-288.675 1793.5,-288 1580.06,-241.871 1521.15,-269.68 1303.5,-252 1257.25,-248.243 1204.73,-243.537 1166.49,-240.029"/>
<polygon fill="black" stroke="black" points="1156.1,-239.074 1166.47,-235.509 1161.08,-239.532 1166.06,-239.99 1166.06,-239.99 1166.06,-239.99 1161.08,-239.532 1165.65,-244.471 1156.1,-239.074 1156.1,-239.074"/>
</g>
<!-- ndList -->
<g id="node29" class="node"><title>ndList</title>
<text text-anchor="middle" x="2016.5" y="-158.3" font-family="Times,serif" font-size="14.00">ndList</text>
</g>
<!-- ndOp&#45;&gt;ndList -->
<g id="edge6" class="edge"><title>ndOp&#45;&gt;ndList</title>
<path fill="none" stroke="black" stroke-dasharray="5,2" d="M2016.5,-287.891C2016.5,-253.28 2016.5,-215.332 2016.5,-190.457"/>
<polygon fill="black" stroke="black" points="2016.5,-180.326 2021,-190.326 2016.5,-185.326 2016.5,-190.326 2016.5,-190.326 2016.5,-190.326 2016.5,-185.326 2012,-190.326 2016.5,-180.326 2016.5,-180.326"/>
</g>
<!-- ndGList -->
<g id="node30" class="node"><title>ndGList</title>
<text text-anchor="middle" x="1495.5" y="-230.3" font-family="Times,serif" font-size="14.00">ndGList</text>
</g>
<!-- ndOp&#45;&gt;ndGList -->
<g id="edge7" class="edge"><title>ndOp&#45;&gt;ndGList</title>
<path fill="none" stroke="black" stroke-dasharray="5,2" d="M1802.85,-290.425C1799.72,-289.59 1796.6,-288.781 1793.5,-288 1683.37,-260.247 1650.51,-280.24 1540.5,-252 1539.03,-251.624 1537.55,-251.215 1536.06,-250.782"/>
<polygon fill="black" stroke="black" points="1526.2,-247.616 1537.09,-246.388 1530.96,-249.145 1535.72,-250.673 1535.72,-250.673 1535.72,-250.673 1530.96,-249.145 1534.34,-254.957 1526.2,-247.616 1526.2,-247.616"/>
</g>
<!-- ndMVReg -->
<g id="node32" class="node"><title>ndMVReg</title>
<text text-anchor="middle" x="622.5" y="-14.3" font-family="Times,serif" font-size="14.00">ndMVReg</text>
</g>
<!-- ndOp&#45;&gt;ndMVReg -->
<g id="edge8" class="edge"><title>ndOp&#45;&gt;ndMVReg</title>
<path fill="none" stroke="black" stroke-dasharray="5,2" d="M1848.32,-287.916C1829.02,-276.607 1810.01,-264.542 1792.5,-252 1773.59,-238.452 1774.41,-228.04 1754.5,-216 1733.35,-203.207 1357.72,-76.9591 1333.5,-72 1205.86,-45.8621 807.351,-26.8723 669.771,-20.9494"/>
<polygon fill="black" stroke="black" points="659.559,-20.5132 669.742,-16.4442 664.554,-20.7266 669.549,-20.9401 669.549,-20.9401 669.549,-20.9401 664.554,-20.7266 669.357,-25.436 659.559,-20.5132 659.559,-20.5132"/>
</g>
<!-- ndVClock -->
<g id="node33" class="node"><title>ndVClock</title>
<text text-anchor="middle" x="636.5" y="-230.3" font-family="Times,serif" font-size="14.00">ndVClock</text>
</g>
<!-- ndOp&#45;&gt;ndVClock -->
<g id="edge9" class="edge"><title>ndOp&#45;&gt;ndVClock</title>
<path fill="none" stroke="black" stroke-dasharray="5,2" d="M1802.94,-290.004C1799.78,-289.301 1796.63,-288.632 1793.5,-288 1765.82,-282.415 895.307,-245.8 682.898,-236.932"/>
<polygon fill="black" stroke="black" points="672.711,-236.507 682.89,-232.428 677.706,-236.715 682.702,-236.924 682.702,-236.924 682.702,-236.924 677.706,-236.715 682.514,-241.42 672.711,-236.507 672.711,-236.507"/>
</g>
<!-- ndPNCounter -->
<g id="node35" class="node"><title>ndPNCounter</title>
<text text-anchor="middle" x="954.5" y="-86.3" font-family="Times,serif" font-size="14.00">ndPNCounter</text>
</g>
<!-- ndOp&#45;&gt;ndPNCounter -->
<g id="edge10" class="edge"><title>ndOp&#45;&gt;ndPNCounter</title>
<path fill="none" stroke="black" stroke-dasharray="5,2" d="M1802.9,-292.037C1776.56,-279.836 1750.48,-266.434 1726.5,-252 1705.14,-239.148 1706.47,-225.681 1683.5,-216 1536.96,-154.232 1484.3,-206.514 1327.5,-180 1213.4,-160.706 1082.28,-126.581 1009.86,-106.66"/>
<polygon fill="black" stroke="black" points="1000.03,-103.947 1010.87,-102.272 1004.85,-105.278 1009.67,-106.61 1009.67,-106.61 1009.67,-106.61 1004.85,-105.278 1008.47,-110.947 1000.03,-103.947 1000.03,-103.947"/>
</g>
<!-- ndOrswot -->
<g id="node37" class="node"><title>ndOrswot</title>
<text text-anchor="middle" x="1077.5" y="-14.3" font-family="Times,serif" font-size="14.00">ndOrswot</text>
</g>
<!-- ndOp&#45;&gt;ndOrswot -->
<g id="edge11" class="edge"><title>ndOp&#45;&gt;ndOrswot</title>
<path fill="none" stroke="black" stroke-dasharray="5,2" d="M1902.08,-287.886C1867.38,-263.931 1828.83,-238.234 1792.5,-216 1646.57,-126.686 1602.12,-110.836 1435.5,-72 1324.48,-46.1237 1191,-30.3041 1122.67,-23.2839"/>
<polygon fill="black" stroke="black" points="1112.67,-22.2722 1123.07,-18.802 1117.64,-22.7757 1122.62,-23.2792 1122.62,-23.2792 1122.62,-23.2792 1117.64,-22.7757 1122.16,-27.7563 1112.67,-22.2722 1112.67,-22.2722"/>
</g>
<!-- ndCmRDTValidation -->
<g id="node5" class="node"><title>ndCmRDTValidation</title>
<g id="a_node5_2"><a xlink:href="https://github.com/rust-crdt/rust-crdt/blob/master/src/map.rs#:~:text=enum%20CmRDTValidation" xlink:title="&lt;TABLE&gt;">
<polygon fill="yellow" stroke="none" points="2376.5,-600 2376.5,-637 2731.5,-637 2731.5,-600 2376.5,-600"/>
<polygon fill="none" stroke="black" points="2376.5,-600 2376.5,-637 2731.5,-637 2731.5,-600 2376.5,-600"/>
<text text-anchor="start" x="2493" y="-615.8" font-family="Arial" font-weight="bold" font-size="14.00">CmRDTValidation</text>
<polygon fill="white" stroke="none" points="2376.5,-548 2376.5,-600 2731.5,-600 2731.5,-548 2376.5,-548"/>
<polygon fill="none" stroke="black" points="2376.5,-548 2376.5,-600 2731.5,-600 2731.5,-548 2376.5,-548"/>
<text text-anchor="start" x="2387.5" y="-577.8" font-family="Arial" font-size="14.00">SourceOrder(crate::DotRange&lt;A&gt;)</text>
<text text-anchor="start" x="2387.5" y="-562.8" font-family="Arial" font-size="14.00">Value(V::Validation)</text>
<polygon fill="white" stroke="none" points="2376.5,-495 2376.5,-548 2731.5,-548 2731.5,-495 2376.5,-495"/>
<polygon fill="none" stroke="black" points="2376.5,-495 2376.5,-548 2731.5,-548 2731.5,-495 2376.5,-495"/>
<text text-anchor="start" x="2387.5" y="-525.8" font-family="Arial" font-size="14.00">&#45; fmt(&amp;self, f: &amp;mut fmt::Formatter&lt;&#39;_&gt;) &#45;&gt; fmt::Result</text>
<polygon fill="none" stroke="black" points="2375,-494 2375,-638 2732,-638 2732,-494 2375,-494"/>
</a>
</g>
</g>
<!-- ndCvRDTValidation -->
<g id="node6" class="node"><title>ndCvRDTValidation</title>
<g id="a_node6_3"><a xlink:href="https://github.com/rust-crdt/rust-crdt/blob/master/src/map.rs#:~:text=enum%20CvRDTValidation" xlink:title="&lt;TABLE&gt;">
<polygon fill="yellow" stroke="none" points="2767.5,-600 2767.5,-637 3122.5,-637 3122.5,-600 2767.5,-600"/>
<polygon fill="none" stroke="black" points="2767.5,-600 2767.5,-637 3122.5,-637 3122.5,-600 2767.5,-600"/>
<text text-anchor="start" x="2886" y="-615.8" font-family="Arial" font-weight="bold" font-size="14.00">CvRDTValidation</text>
<polygon fill="white" stroke="none" points="2767.5,-548 2767.5,-600 3122.5,-600 3122.5,-548 2767.5,-548"/>
<polygon fill="none" stroke="black" points="2767.5,-548 2767.5,-600 3122.5,-600 3122.5,-548 2767.5,-548"/>
<text text-anchor="start" x="2778.5" y="-577.8" font-family="Arial" font-size="14.00">DoubleSpentDot</text>
<text text-anchor="start" x="2778.5" y="-562.8" font-family="Arial" font-size="14.00">Value(V::Validation)</text>
<polygon fill="white" stroke="none" points="2767.5,-495 2767.5,-548 3122.5,-548 3122.5,-495 2767.5,-495"/>
<polygon fill="none" stroke="black" points="2767.5,-495 2767.5,-548 3122.5,-548 3122.5,-495 2767.5,-495"/>
<text text-anchor="start" x="2778.5" y="-525.8" font-family="Arial" font-size="14.00">&#45; fmt(&amp;self, f: &amp;mut fmt::Formatter&lt;&#39;_&gt;) &#45;&gt; fmt::Result</text>
<polygon fill="none" stroke="black" points="2766,-494 2766,-638 3123,-638 3123,-494 2766,-494"/>
</a>
</g>
</g>
<!-- ndActor -->
<g id="node7" class="node"><title>ndActor</title>
<g id="a_node7_4"><a xlink:href="https://github.com/rust-crdt/rust-crdt/blob/master/src/traits.rs#:~:text=trait%20Actor" xlink:title="&lt;TABLE&gt;">
<polygon fill="lightgreen" stroke="none" points="3158.5,-566 3158.5,-603 3218.5,-603 3218.5,-566 3158.5,-566"/>
<polygon fill="none" stroke="black" points="3158.5,-566 3158.5,-603 3218.5,-603 3218.5,-566 3158.5,-566"/>
<text text-anchor="start" x="3169.5" y="-581.8" font-family="Arial" font-weight="bold" font-size="14.00">Actor</text>
<polygon fill="white" stroke="none" points="3158.5,-528 3158.5,-566 3218.5,-566 3218.5,-528 3158.5,-528"/>
<polygon fill="none" stroke="black" points="3158.5,-528 3158.5,-566 3218.5,-566 3218.5,-528 3158.5,-528"/>
<polygon fill="none" stroke="black" points="3157.5,-527.5 3157.5,-604.5 3219.5,-604.5 3219.5,-527.5 3157.5,-527.5"/>
</a>
</g>
</g>
<!-- ndCvRDT -->
<g id="node8" class="node"><title>ndCvRDT</title>
<g id="a_node8_5"><a xlink:href="https://github.com/rust-crdt/rust-crdt/blob/master/src/traits.rs#:~:text=trait%20CvRDT" xlink:title="&lt;TABLE&gt;">
<polygon fill="lightgreen" stroke="none" points="1244.5,-371 1244.5,-408 1639.5,-408 1639.5,-371 1244.5,-371"/>
<polygon fill="none" stroke="black" points="1244.5,-371 1244.5,-408 1639.5,-408 1639.5,-371 1244.5,-371"/>
<text text-anchor="start" x="1417.5" y="-386.8" font-family="Arial" font-weight="bold" font-size="14.00">CvRDT</text>
<polygon fill="white" stroke="none" points="1244.5,-334 1244.5,-371 1639.5,-371 1639.5,-334 1244.5,-334"/>
<polygon fill="none" stroke="black" points="1244.5,-334 1244.5,-371 1639.5,-371 1639.5,-334 1244.5,-334"/>
<text text-anchor="start" x="1255.5" y="-348.8" font-family="Arial" font-size="14.00">validate_merge(&amp;Self, &amp;Self) &#45;&gt; Result&lt;(), Self::Validation&gt;</text>
<polygon fill="none" stroke="black" points="1243,-333 1243,-409 1640,-409 1640,-333 1243,-333"/>
</a>
</g>
</g>
<!-- ndCvRDT&#45;&gt;ndMap -->
<g id="edge12" class="edge"><title>ndCvRDT&#45;&gt;ndMap</title>
<path fill="none" stroke="black" stroke-dasharray="5,2" d="M1391.8,-328.848C1352.44,-296.876 1295.6,-252.059 1243.5,-216 1142.78,-146.29 1124.91,-110.119 1008.5,-72 825.401,-12.044 767.035,-64.5757 576.5,-36 563.414,-34.0374 549.239,-31.1741 536.608,-28.3549"/>
<polygon fill="none" stroke="black" points="537.389,-24.9431 526.86,-26.1215 535.826,-31.7664 537.389,-24.9431"/>
</g>
<!-- ndCvRDT&#45;&gt;ndMerkleReg -->
<g id="edge13" class="edge"><title>ndCvRDT&#45;&gt;ndMerkleReg</title>
<path fill="none" stroke="black" stroke-dasharray="5,2" d="M1498.37,-328.946C1530.56,-305.706 1569.63,-277.499 1596.51,-258.094"/>
<polygon fill="none" stroke="black" points="1598.73,-260.811 1604.79,-252.12 1594.63,-255.136 1598.73,-260.811"/>
</g>
<!-- ndCvRDT&#45;&gt;ndGSet -->
<g id="edge14" class="edge"><title>ndCvRDT&#45;&gt;ndGSet</title>
<path fill="none" stroke="black" stroke-dasharray="5,2" d="M1410.95,-328.762C1394.42,-306.437 1374.52,-279.572 1360.26,-260.332"/>
<polygon fill="none" stroke="black" points="1362.91,-258.024 1354.15,-252.072 1357.29,-262.191 1362.91,-258.024"/>
</g>
<!-- ndCvRDT&#45;&gt;ndGCounter -->
<g id="edge15" class="edge"><title>ndCvRDT&#45;&gt;ndGCounter</title>
<path fill="none" stroke="black" stroke-dasharray="5,2" d="M1349.06,-328.885C1305.22,-307.971 1252.86,-280.89 1208.5,-252 1187.33,-238.211 1187.4,-226.68 1164.5,-216 1090.06,-181.28 994.398,-169.303 936.357,-165.172"/>
<polygon fill="none" stroke="black" points="936.531,-161.676 926.322,-164.51 936.07,-168.661 936.531,-161.676"/>
</g>
<!-- ndCvRDT&#45;&gt;ndLWWReg -->
<g id="edge16" class="edge"><title>ndCvRDT&#45;&gt;ndLWWReg</title>
<path fill="none" stroke="black" stroke-dasharray="5,2" d="M1341.45,-328.946C1282.73,-304.851 1211,-275.417 1163.65,-255.988"/>
<polygon fill="none" stroke="black" points="1164.8,-252.679 1154.22,-252.12 1162.15,-259.155 1164.8,-252.679"/>
</g>
<!-- ndCvRDT&#45;&gt;ndGList -->
<g id="edge17" class="edge"><title>ndCvRDT&#45;&gt;ndGList</title>
<path fill="none" stroke="black" stroke-dasharray="5,2" d="M1458,-328.762C1466.76,-306.84 1477.28,-280.539 1484.95,-261.379"/>
<polygon fill="none" stroke="black" points="1488.21,-262.657 1488.67,-252.072 1481.71,-260.057 1488.21,-262.657"/>
</g>
<!-- ndCvRDT&#45;&gt;ndMVReg -->
<g id="edge18" class="edge"><title>ndCvRDT&#45;&gt;ndMVReg</title>
<path fill="none" stroke="black" stroke-dasharray="5,2" d="M1435.51,-328.823C1423.29,-261.564 1388.55,-129.84 1298.5,-72 1272.05,-55.011 819.023,-29.4699 669.764,-21.4795"/>
<polygon fill="none" stroke="black" points="669.725,-17.9725 659.552,-20.9349 669.352,-24.9626 669.725,-17.9725"/>
</g>
<!-- ndCvRDT&#45;&gt;ndVClock -->
<g id="edge19" class="edge"><title>ndCvRDT&#45;&gt;ndVClock</title>
<path fill="none" stroke="black" stroke-dasharray="5,2" d="M1349.93,-328.894C1312.13,-313.609 1267.42,-297.652 1225.5,-288 1027.16,-242.337 782.813,-235.613 682.639,-234.903"/>
<polygon fill="none" stroke="black" points="682.572,-231.403 672.554,-234.849 682.535,-238.403 682.572,-231.403"/>
</g>
<!-- ndCvRDT&#45;&gt;ndPNCounter -->
<g id="edge20" class="edge"><title>ndCvRDT&#45;&gt;ndPNCounter</title>
<path fill="none" stroke="black" stroke-dasharray="5,2" d="M1380.61,-328.735C1332.49,-296.702 1263.22,-251.858 1200.5,-216 1132.13,-176.909 1050.12,-136.474 1000.18,-112.543"/>
<polygon fill="none" stroke="black" points="1001.47,-109.28 990.94,-108.126 998.454,-115.596 1001.47,-109.28"/>
</g>
<!-- ndCvRDT&#45;&gt;ndOrswot -->
<g id="edge21" class="edge"><title>ndCvRDT&#45;&gt;ndOrswot</title>
<path fill="none" stroke="black" stroke-dasharray="5,2" d="M1443.43,-328.824C1445.93,-255.847 1446.49,-108.09 1412.5,-72 1373.78,-30.8934 1205.04,-21.632 1122.84,-19.5721"/>
<polygon fill="none" stroke="black" points="1122.86,-16.0718 1112.78,-19.3454 1122.7,-23.07 1122.86,-16.0718"/>
</g>
<!-- ndCmRDT -->
<g id="node9" class="node"><title>ndCmRDT</title>
<g id="a_node9_6"><a xlink:href="https://github.com/rust-crdt/rust-crdt/blob/master/src/traits.rs#:~:text=trait%20CmRDT" xlink:title="&lt;TABLE&gt;">
<polygon fill="lightgreen" stroke="none" points="366.5,-371 366.5,-408 763.5,-408 763.5,-371 366.5,-371"/>
<polygon fill="none" stroke="black" points="366.5,-371 366.5,-408 763.5,-408 763.5,-371 366.5,-371"/>
<text text-anchor="start" x="538" y="-386.8" font-family="Arial" font-weight="bold" font-size="14.00">CmRDT</text>
<polygon fill="white" stroke="none" points="366.5,-334 366.5,-371 763.5,-371 763.5,-334 366.5,-334"/>
<polygon fill="none" stroke="black" points="366.5,-334 366.5,-371 763.5,-371 763.5,-334 366.5,-334"/>
<text text-anchor="start" x="377.5" y="-348.8" font-family="Arial" font-size="14.00">validate_op(&amp;Self, &amp;Self::Op) &#45;&gt; Result&lt;(), Self::Validation&gt;</text>
<polygon fill="none" stroke="black" points="365,-333 365,-409 764,-409 764,-333 365,-333"/>
</a>
</g>
</g>
<!-- ndCmRDT&#45;&gt;ndMap -->
<g id="edge22" class="edge"><title>ndCmRDT&#45;&gt;ndMap</title>
<path fill="none" stroke="black" stroke-dasharray="5,2" d="M435.734,-328.891C399.044,-310.976 362.76,-286.056 339.5,-252 312.354,-212.254 309.954,-187.04 331.5,-144 358.44,-90.1847 420.774,-53.5643 461.199,-34.4916"/>
<polygon fill="none" stroke="black" points="462.837,-37.5911 470.47,-30.243 459.921,-31.2275 462.837,-37.5911"/>
</g>
<!-- ndCmRDT&#45;&gt;ndMerkleReg -->
<g id="edge23" class="edge"><title>ndCmRDT&#45;&gt;ndMerkleReg</title>
<path fill="none" stroke="black" stroke-dasharray="5,2" d="M653.505,-328.969C691.767,-313.249 737.5,-296.953 780.5,-288 1108.95,-219.617 1201.16,-289.934 1534.5,-252 1546.73,-250.608 1559.77,-248.595 1572.12,-246.437"/>
<polygon fill="none" stroke="black" points="1573.08,-249.82 1582.3,-244.6 1571.84,-242.931 1573.08,-249.82"/>
</g>
<!-- ndCmRDT&#45;&gt;ndGSet -->
<g id="edge24" class="edge"><title>ndCmRDT&#45;&gt;ndGSet</title>
<path fill="none" stroke="black" stroke-dasharray="5,2" d="M656.088,-328.973C693.891,-313.7 738.595,-297.73 780.5,-288 947.473,-249.23 993.852,-268.194 1164.5,-252 1212.19,-247.474 1267.1,-242.189 1302.96,-238.727"/>
<polygon fill="none" stroke="black" points="1303.37,-242.203 1312.99,-237.758 1302.7,-235.236 1303.37,-242.203"/>
</g>
<!-- ndCmRDT&#45;&gt;ndGCounter -->
<g id="edge25" class="edge"><title>ndCmRDT&#45;&gt;ndGCounter</title>
<path fill="none" stroke="black" stroke-dasharray="5,2" d="M631.397,-328.75C667.454,-306.331 712.61,-277.956 752.5,-252 786.218,-230.06 824.263,-204.299 850.817,-186.154"/>
<polygon fill="none" stroke="black" points="853.082,-188.845 859.358,-180.309 849.129,-183.068 853.082,-188.845"/>
</g>
<!-- ndCmRDT&#45;&gt;ndLWWReg -->
<g id="edge26" class="edge"><title>ndCmRDT&#45;&gt;ndLWWReg</title>
<path fill="none" stroke="black" stroke-dasharray="5,2" d="M658.402,-328.911C695.775,-314.004 739.561,-298.311 780.5,-288 899.605,-258.002 934.32,-277.349 1054.5,-252 1055.98,-251.689 1057.47,-251.359 1058.97,-251.013"/>
<polygon fill="none" stroke="black" points="1060.11,-254.337 1068.98,-248.54 1058.43,-247.542 1060.11,-254.337"/>
</g>
<!-- ndCmRDT&#45;&gt;ndList -->
<g id="edge27" class="edge"><title>ndCmRDT&#45;&gt;ndList</title>
<path fill="none" stroke="black" stroke-dasharray="5,2" d="M659.582,-328.928C696.735,-314.204 740.058,-298.633 780.5,-288 883.115,-261.021 919.802,-295.671 1016.5,-252 1039.22,-241.741 1036.32,-225.156 1059.5,-216 1146.1,-181.793 1812.89,-166.886 1979.08,-163.68"/>
<polygon fill="none" stroke="black" points="1979.36,-167.175 1989.29,-163.485 1979.22,-160.176 1979.36,-167.175"/>
</g>
<!-- ndCmRDT&#45;&gt;ndGList -->
<g id="edge28" class="edge"><title>ndCmRDT&#45;&gt;ndGList</title>
<path fill="none" stroke="black" stroke-dasharray="5,2" d="M654.348,-328.909C692.458,-313.331 737.851,-297.156 780.5,-288 1040.83,-232.111 1113.63,-279.167 1378.5,-252 1403.88,-249.397 1432.2,-245.313 1454.62,-241.801"/>
<polygon fill="none" stroke="black" points="1455.47,-245.21 1464.8,-240.183 1454.37,-238.297 1455.47,-245.21"/>
</g>
<!-- ndCmRDT&#45;&gt;ndMVReg -->
<g id="edge29" class="edge"><title>ndCmRDT&#45;&gt;ndMVReg</title>
<path fill="none" stroke="black" stroke-dasharray="5,2" d="M475.221,-328.966C396.325,-286.724 300.53,-216.945 347.5,-144 373.634,-103.414 504.388,-56.56 575.782,-33.4404"/>
<polygon fill="none" stroke="black" points="576.993,-36.7276 585.445,-30.3387 574.854,-30.0625 576.993,-36.7276"/>
</g>
<!-- ndCmRDT&#45;&gt;ndVClock -->
<g id="edge30" class="edge"><title>ndCmRDT&#45;&gt;ndVClock</title>
<path fill="none" stroke="black" stroke-dasharray="5,2" d="M586.494,-328.762C598.239,-306.739 612.341,-280.298 622.571,-261.116"/>
<polygon fill="none" stroke="black" points="625.777,-262.543 627.395,-252.072 619.601,-259.249 625.777,-262.543"/>
</g>
<!-- ndCmRDT&#45;&gt;ndPNCounter -->
<g id="edge31" class="edge"><title>ndCmRDT&#45;&gt;ndPNCounter</title>
<path fill="none" stroke="black" stroke-dasharray="5,2" d="M667.107,-328.964C763.872,-288.284 899.195,-225.61 934.5,-180 948.096,-162.436 952.797,-137.403 954.27,-118.358"/>
<polygon fill="none" stroke="black" points="957.773,-118.377 954.799,-108.208 950.783,-118.012 957.773,-118.377"/>
</g>
<!-- ndCmRDT&#45;&gt;ndOrswot -->
<g id="edge32" class="edge"><title>ndCmRDT&#45;&gt;ndOrswot</title>
<path fill="none" stroke="black" stroke-dasharray="5,2" d="M672.085,-328.896C706.674,-315.752 745.178,-301.192 780.5,-288 823.969,-271.765 838.911,-276.203 878.5,-252 965.91,-198.561 1034.43,-93.6596 1063.01,-44.9696"/>
<polygon fill="none" stroke="black" points="1066.05,-46.6936 1068.03,-36.2848 1059.99,-43.1891 1066.05,-46.6936"/>
</g>
<!-- ndResetRemove -->
<g id="node10" class="node"><title>ndResetRemove</title>
<g id="a_node10_7"><a xlink:href="https://github.com/rust-crdt/rust-crdt/blob/master/src/traits.rs#:~:text=trait%20ResetRemove" xlink:title="&lt;TABLE&gt;">
<polygon fill="lightgreen" stroke="none" points="136.5,-371 136.5,-408 254.5,-408 254.5,-371 136.5,-371"/>
<polygon fill="none" stroke="black" points="136.5,-371 136.5,-408 254.5,-408 254.5,-371 136.5,-371"/>
<text text-anchor="start" x="147.5" y="-386.8" font-family="Arial" font-weight="bold" font-size="14.00">ResetRemove</text>
<polygon fill="white" stroke="none" points="136.5,-333 136.5,-371 254.5,-371 254.5,-333 136.5,-333"/>
<polygon fill="none" stroke="black" points="136.5,-333 136.5,-371 254.5,-371 254.5,-333 136.5,-333"/>
<polygon fill="none" stroke="black" points="135.5,-332.5 135.5,-409.5 255.5,-409.5 255.5,-332.5 135.5,-332.5"/>
</a>
</g>
</g>
<!-- ndResetRemove&#45;&gt;ndMap -->
<g id="edge33" class="edge"><title>ndResetRemove&#45;&gt;ndMap</title>
<path fill="none" stroke="black" stroke-dasharray="5,2" d="M187.714,-328.43C180.951,-279.002 177.877,-196.6 219.5,-144 280.524,-66.8828 399.361,-35.9158 460.361,-24.6918"/>
<polygon fill="none" stroke="black" points="461.101,-28.1154 470.344,-22.937 459.89,-21.2211 461.101,-28.1154"/>
</g>
<!-- ndResetRemove&#45;&gt;ndGCounter -->
<g id="edge34" class="edge"><title>ndResetRemove&#45;&gt;ndGCounter</title>
<path fill="none" stroke="black" stroke-dasharray="5,2" d="M244.346,-328.377C265,-313.065 290.126,-297.226 315.5,-288 469.112,-232.145 530.795,-315.28 681.5,-252 704.481,-242.351 702.728,-228.134 724.5,-216 734.311,-210.532 789.909,-192.558 832.841,-179.046"/>
<polygon fill="none" stroke="black" points="834.123,-182.312 842.615,-175.978 832.026,-175.634 834.123,-182.312"/>
</g>
<!-- ndResetRemove&#45;&gt;ndMVReg -->
<g id="edge35" class="edge"><title>ndResetRemove&#45;&gt;ndMVReg</title>
<path fill="none" stroke="black" stroke-dasharray="5,2" d="M209.435,-328.446C234.139,-261.873 292.365,-132.651 389.5,-72 397.422,-67.0532 509.535,-42.8316 575.305,-28.9063"/>
<polygon fill="none" stroke="black" points="576.38,-32.2566 585.44,-26.7643 574.932,-25.4079 576.38,-32.2566"/>
</g>
<!-- ndResetRemove&#45;&gt;ndVClock -->
<g id="edge36" class="edge"><title>ndResetRemove&#45;&gt;ndVClock</title>
<path fill="none" stroke="black" stroke-dasharray="5,2" d="M227.181,-328.108C240.93,-312.952 258.29,-297.296 277.5,-288 401.956,-227.775 451.627,-282.424 586.5,-252 587.783,-251.711 589.079,-251.4 590.383,-251.072"/>
<polygon fill="none" stroke="black" points="591.747,-254.325 600.437,-248.265 589.865,-247.583 591.747,-254.325"/>
</g>
<!-- ndResetRemove&#45;&gt;ndPNCounter -->
<g id="edge37" class="edge"><title>ndResetRemove&#45;&gt;ndPNCounter</title>
<path fill="none" stroke="black" stroke-dasharray="5,2" d="M229.77,-328.471C242.771,-314.417 258.356,-299.409 274.5,-288 400.872,-198.693 443.028,-187.609 591.5,-144 697.503,-112.865 826.522,-99.5895 898.694,-94.2658"/>
<polygon fill="none" stroke="black" points="899.194,-97.7391 908.92,-93.5368 898.697,-90.7568 899.194,-97.7391"/>
</g>
<!-- ndResetRemove&#45;&gt;ndOrswot -->
<g id="edge38" class="edge"><title>ndResetRemove&#45;&gt;ndOrswot</title>
<path fill="none" stroke="black" stroke-dasharray="5,2" d="M229.77,-328.471C242.771,-314.417 258.356,-299.409 274.5,-288 501.181,-127.804 591.592,-140.818 860.5,-72 919.928,-56.7914 988.763,-40.1427 1032.69,-29.6399"/>
<polygon fill="none" stroke="black" points="1033.57,-33.0277 1042.49,-27.301 1031.95,-26.2191 1033.57,-33.0277"/>
</g>
<!-- ndReadCtx -->
<g id="node11" class="node"><title>ndReadCtx</title>
<text text-anchor="middle" x="580.5" y="-86.3" font-family="Times,serif" font-size="14.00">ndReadCtx</text>
</g>
<!-- ndReadCtx&#45;&gt;ndMap -->
<g id="edge39" class="edge"><title>ndReadCtx&#45;&gt;ndMap</title>
<path fill="none" stroke="black" d="M560.23,-71.6966C550.002,-62.9655 537.439,-52.2405 526.322,-42.7503"/>
<polygon fill="black" stroke="black" points="518.537,-36.1043 529.064,-39.1744 522.339,-39.3507 526.142,-42.597 526.142,-42.597 526.142,-42.597 522.339,-39.3507 523.22,-46.0195 518.537,-36.1043 518.537,-36.1043"/>
</g>
<!-- ndReadCtx&#45;&gt;ndMVReg -->
<g id="edge40" class="edge"><title>ndReadCtx&#45;&gt;ndMVReg</title>
<path fill="none" stroke="black" d="M590.882,-71.6966C595.765,-63.5589 601.687,-53.689 607.079,-44.7013"/>
<polygon fill="black" stroke="black" points="612.237,-36.1043 610.951,-46.9945 609.665,-40.3918 607.092,-44.6793 607.092,-44.6793 607.092,-44.6793 609.665,-40.3918 603.234,-42.364 612.237,-36.1043 612.237,-36.1043"/>
</g>
<!-- ndReadCtx&#45;&gt;ndOrswot -->
<g id="edge41" class="edge"><title>ndReadCtx&#45;&gt;ndOrswot</title>
<path fill="none" stroke="black" d="M619.21,-82.7079C639.777,-79.4151 665.495,-75.3774 688.5,-72 812.711,-53.7645 959.559,-34.3329 1032.17,-24.8665"/>
<polygon fill="black" stroke="black" points="1042.33,-23.5435 1033,-29.2969 1037.37,-24.189 1032.42,-24.8345 1032.42,-24.8345 1032.42,-24.8345 1037.37,-24.189 1031.83,-20.3722 1042.33,-23.5435 1042.33,-23.5435"/>
</g>
<!-- ndAddCtx -->
<g id="node12" class="node"><title>ndAddCtx</title>
<text text-anchor="middle" x="393.5" y="-158.3" font-family="Times,serif" font-size="14.00">ndAddCtx</text>
</g>
<!-- ndAddCtx&#45;&gt;ndReadCtx -->
<g id="edge42" class="edge"><title>ndAddCtx&#45;&gt;ndReadCtx</title>
<path fill="none" stroke="black" d="M430.445,-147.17C459.577,-136.265 500.44,-120.969 532.17,-109.092"/>
<polygon fill="black" stroke="black" points="541.7,-105.524 533.913,-113.244 537.018,-107.277 532.335,-109.03 532.335,-109.03 532.335,-109.03 537.018,-107.277 530.757,-104.815 541.7,-105.524 541.7,-105.524"/>
</g>
<!-- ndRmCtx -->
<g id="node13" class="node"><title>ndRmCtx</title>
<text text-anchor="middle" x="635.5" y="-158.3" font-family="Times,serif" font-size="14.00">ndRmCtx</text>
</g>
<!-- ndRmCtx&#45;&gt;ndReadCtx -->
<g id="edge43" class="edge"><title>ndRmCtx&#45;&gt;ndReadCtx</title>
<path fill="none" stroke="black" d="M621.904,-143.697C615.377,-135.389 607.432,-125.277 600.253,-116.141"/>
<polygon fill="black" stroke="black" points="593.939,-108.104 603.656,-113.187 597.028,-112.036 600.117,-115.968 600.117,-115.968 600.117,-115.968 597.028,-112.036 596.579,-118.748 593.939,-108.104 593.939,-108.104"/>
</g>
<!-- ndNode -->
<g id="node14" class="node"><title>ndNode</title>
<text text-anchor="middle" x="2277.5" y="-367.3" font-family="Times,serif" font-size="14.00">ndNode</text>
</g>
<!-- ndNode&#45;&gt;ndMerkleReg -->
<g id="edge44" class="edge"><title>ndNode&#45;&gt;ndMerkleReg</title>
<path fill="none" stroke="black" d="M2274.56,-352.946C2270.25,-333.697 2260.26,-303.101 2238.5,-288 2193.61,-256.844 1827.35,-241.546 1684.89,-236.731"/>
<polygon fill="black" stroke="black" points="1674.63,-236.389 1684.77,-232.224 1679.62,-236.555 1684.62,-236.722 1684.62,-236.722 1684.62,-236.722 1679.62,-236.555 1684.47,-241.219 1674.63,-236.389 1674.63,-236.389"/>
</g>
<!-- ndContent -->
<g id="node15" class="node"><title>ndContent</title>
<text text-anchor="middle" x="2361.5" y="-367.3" font-family="Times,serif" font-size="14.00">ndContent</text>
</g>
<!-- ndContent&#45;&gt;ndMerkleReg -->
<g id="edge45" class="edge"><title>ndContent&#45;&gt;ndMerkleReg</title>
<path fill="none" stroke="black" d="M2357.12,-352.825C2351.2,-333.461 2338.61,-302.759 2315.5,-288 2262.89,-254.409 1839.46,-240.362 1684.79,-236.319"/>
<polygon fill="black" stroke="black" points="1674.57,-236.056 1684.68,-231.815 1679.57,-236.185 1684.56,-236.313 1684.56,-236.313 1684.56,-236.313 1679.57,-236.185 1684.45,-240.812 1674.57,-236.056 1674.57,-236.056"/>
</g>
<!-- ndValidationError -->
<g id="node17" class="node"><title>ndValidationError</title>
<g id="a_node17_8"><a xlink:href="https://github.com/rust-crdt/rust-crdt/blob/master/src/merkle_reg.rs#:~:text=enum%20ValidationError" xlink:title="&lt;TABLE&gt;">
<polygon fill="yellow" stroke="none" points="3255.5,-592 3255.5,-629 3610.5,-629 3610.5,-592 3255.5,-592"/>
<polygon fill="none" stroke="black" points="3255.5,-592 3255.5,-629 3610.5,-629 3610.5,-592 3255.5,-592"/>
<text text-anchor="start" x="3380" y="-607.8" font-family="Arial" font-weight="bold" font-size="14.00">ValidationError</text>
<polygon fill="white" stroke="none" points="3255.5,-555 3255.5,-592 3610.5,-592 3610.5,-555 3255.5,-555"/>
<polygon fill="none" stroke="black" points="3255.5,-555 3255.5,-592 3610.5,-592 3610.5,-555 3255.5,-555"/>
<text text-anchor="start" x="3266.5" y="-569.8" font-family="Arial" font-size="14.00">MissingChild(Hash)</text>
<polygon fill="white" stroke="none" points="3255.5,-502 3255.5,-555 3610.5,-555 3610.5,-502 3255.5,-502"/>
<polygon fill="none" stroke="black" points="3255.5,-502 3255.5,-555 3610.5,-555 3610.5,-502 3255.5,-502"/>
<text text-anchor="start" x="3266.5" y="-532.8" font-family="Arial" font-size="14.00">&#45; fmt(&amp;self, f: &amp;mut fmt::Formatter&lt;&#39;_&gt;) &#45;&gt; fmt::Result</text>
<polygon fill="none" stroke="black" points="3254,-501.5 3254,-630.5 3611,-630.5 3611,-501.5 3254,-501.5"/>
</a>
</g>
</g>
<!-- ndSha3Hash -->
<g id="node18" class="node"><title>ndSha3Hash</title>
<g id="a_node18_9"><a xlink:href="https://github.com/rust-crdt/rust-crdt/blob/master/src/merkle_reg.rs#:~:text=trait%20Sha3Hash" xlink:title="&lt;TABLE&gt;">
<polygon fill="lightgreen" stroke="none" points="3646.5,-566 3646.5,-603 3739.5,-603 3739.5,-566 3646.5,-566"/>
<polygon fill="none" stroke="black" points="3646.5,-566 3646.5,-603 3739.5,-603 3739.5,-566 3646.5,-566"/>
<text text-anchor="start" x="3657.5" y="-581.8" font-family="Arial" font-weight="bold" font-size="14.00">Sha3Hash</text>
<polygon fill="white" stroke="none" points="3646.5,-528 3646.5,-566 3739.5,-566 3739.5,-528 3646.5,-528"/>
<polygon fill="none" stroke="black" points="3646.5,-528 3646.5,-566 3739.5,-566 3739.5,-528 3646.5,-528"/>
<polygon fill="none" stroke="black" points="3645,-527.5 3645,-604.5 3740,-604.5 3740,-527.5 3645,-527.5"/>
</a>
</g>
</g>
<!-- ndGCounter&#45;&gt;ndPNCounter -->
<g id="edge46" class="edge"><title>ndGCounter&#45;&gt;ndPNCounter</title>
<path fill="none" stroke="black" d="M901.803,-143.697C909.941,-135.559 919.811,-125.689 928.799,-116.701"/>
<polygon fill="black" stroke="black" points="928.91,-116.59 930.325,-109.519 937.396,-108.104 935.981,-115.175 928.91,-116.59"/>
</g>
<!-- ndDot -->
<g id="node21" class="node"><title>ndDot</title>
<text text-anchor="middle" x="310.5" y="-562.3" font-family="Times,serif" font-size="14.00">ndDot</text>
</g>
<!-- ndDot&#45;&gt;ndOp -->
<g id="edge47" class="edge"><title>ndDot&#45;&gt;ndOp</title>
<path fill="none" stroke="black" d="M337.709,-563.995C512.407,-557.391 1478.78,-518.522 1792.91,-453.98"/>
<polygon fill="black" stroke="black" points="1802.91,-451.868 1794.06,-458.337 1798.02,-452.901 1793.13,-453.934 1793.13,-453.934 1793.13,-453.934 1798.02,-452.901 1792.2,-449.531 1802.91,-451.868 1802.91,-451.868"/>
</g>
<!-- ndDot&#45;&gt;ndAddCtx -->
<g id="edge48" class="edge"><title>ndDot&#45;&gt;ndAddCtx</title>
<path fill="none" stroke="black" d="M306.807,-547.684C302.212,-530.449 292.654,-504.532 274.5,-490 218.95,-445.533 162.798,-509.685 118.5,-454 72.5695,-396.263 78.5578,-350.03 118.5,-288 168.646,-210.124 280.493,-180.206 345.036,-169.139"/>
<polygon fill="black" stroke="black" points="345.05,-169.137 350.337,-164.233 356.897,-167.227 351.61,-172.131 345.05,-169.137"/>
</g>
<!-- ndDot&#45;&gt;ndGCounter -->
<g id="edge49" class="edge"><title>ndDot&#45;&gt;ndGCounter</title>
<path fill="none" stroke="black" d="M310.144,-547.99C309.386,-493.393 310.14,-324.046 347.5,-288 406.951,-230.64 643.05,-287.802 717.5,-252 737.611,-242.329 733.965,-228.427 752.5,-216 777.144,-199.476 807.732,-186.788 833.256,-177.975"/>
<polygon fill="black" stroke="black" points="842.767,-174.787 834.716,-182.232 838.027,-176.376 833.286,-177.965 833.286,-177.965 833.286,-177.965 838.027,-176.376 831.856,-173.699 842.767,-174.787 842.767,-174.787"/>
</g>
<!-- ndCausalityBarrier -->
<g id="node26" class="node"><title>ndCausalityBarrier</title>
<text text-anchor="middle" x="1725.5" y="-367.3" font-family="Times,serif" font-size="14.00">ndCausalityBarrier</text>
</g>
<!-- ndDot&#45;&gt;ndCausalityBarrier -->
<g id="edge50" class="edge"><title>ndDot&#45;&gt;ndCausalityBarrier</title>
<path fill="none" stroke="black" d="M337.622,-564.013C517.51,-557.3 1535.02,-516.747 1656.5,-454 1679.72,-442.009 1698.22,-418.496 1710.2,-399.712"/>
<polygon fill="black" stroke="black" points="1710.28,-399.589 1709.96,-392.385 1716.49,-389.322 1716.81,-396.526 1710.28,-399.589"/>
</g>
<!-- ndDot&#45;&gt;ndVClock -->
<g id="edge51" class="edge"><title>ndDot&#45;&gt;ndVClock</title>
<path fill="none" stroke="black" d="M304.058,-547.659C287.411,-499.515 248.744,-362.837 315.5,-288 355.94,-242.664 527.347,-265.844 586.5,-252 587.781,-251.7 589.075,-251.381 590.376,-251.045"/>
<polygon fill="black" stroke="black" points="600.421,-248.195 592.029,-255.253 595.611,-249.56 590.801,-250.924 590.801,-250.924 590.801,-250.924 595.611,-249.56 589.573,-246.595 600.421,-248.195 600.421,-248.195"/>
</g>
<!-- ndIntoIter -->
<g id="node34" class="node"><title>ndIntoIter</title>
<text text-anchor="middle" x="35.5" y="-367.3" font-family="Times,serif" font-size="14.00">ndIntoIter</text>
</g>
<!-- ndDot&#45;&gt;ndIntoIter -->
<g id="edge52" class="edge"><title>ndDot&#45;&gt;ndIntoIter</title>
<path fill="none" stroke="black" d="M307.004,-547.861C302.535,-530.511 293.045,-504.267 274.5,-490 206.725,-437.86 155.797,-502.686 85.5,-454 66.096,-440.561 52.863,-416.912 44.9094,-398.453"/>
<polygon fill="black" stroke="black" points="41.1275,-389.093 49.0461,-396.679 43.0007,-393.729 44.8738,-398.365 44.8738,-398.365 44.8738,-398.365 43.0007,-393.729 40.7015,-400.051 41.1275,-389.093 41.1275,-389.093"/>
</g>
<!-- ndOrdDot -->
<g id="node22" class="node"><title>ndOrdDot</title>
<text text-anchor="middle" x="2313.5" y="-562.3" font-family="Times,serif" font-size="14.00">ndOrdDot</text>
</g>
<!-- ndOrdDot&#45;&gt;ndOp -->
<g id="edge53" class="edge"><title>ndOrdDot&#45;&gt;ndOp</title>
<path fill="none" stroke="black" d="M2287.14,-547.873C2256.28,-527.817 2202.83,-493.085 2151.54,-459.755"/>
<polygon fill="black" stroke="black" points="2143,-454.205 2153.84,-455.88 2147.19,-456.929 2151.39,-459.654 2151.39,-459.654 2151.39,-459.654 2147.19,-456.929 2148.93,-463.427 2143,-454.205 2143,-454.205"/>
</g>
<!-- ndOrdDot&#45;&gt;ndList -->
<g id="edge54" class="edge"><title>ndOrdDot&#45;&gt;ndList</title>
<path fill="none" stroke="black" d="M2319,-547.993C2325.47,-530.751 2337.88,-504.594 2357.5,-490 2411.82,-449.604 2463.67,-507.225 2505.5,-454 2551.09,-395.993 2546.56,-349.295 2505.5,-288 2454.71,-212.185 2162.87,-176.993 2055.84,-166.507"/>
<polygon fill="black" stroke="black" points="2055.68,-166.492 2049.32,-169.903 2043.73,-165.35 2050.09,-161.939 2055.68,-166.492"/>
</g>
<!-- ndDotRange -->
<g id="node23" class="node"><title>ndDotRange</title>
<text text-anchor="middle" x="3808.5" y="-562.3" font-family="Times,serif" font-size="14.00">ndDotRange</text>
</g>
<!-- ndValidation -->
<g id="node25" class="node"><title>ndValidation</title>
<g id="a_node25_10"><a xlink:href="https://github.com/rust-crdt/rust-crdt/blob/master/src/orswot.rs#:~:text=enum%20Validation" xlink:title="&lt;TABLE&gt;">
<polygon fill="yellow" stroke="none" points="799.5,-397 799.5,-434 1208.5,-434 1208.5,-397 799.5,-397"/>
<polygon fill="none" stroke="black" points="799.5,-397 799.5,-434 1208.5,-434 1208.5,-397 799.5,-397"/>
<text text-anchor="start" x="969.5" y="-412.8" font-family="Arial" font-weight="bold" font-size="14.00">Validation</text>
<polygon fill="white" stroke="none" points="799.5,-360 799.5,-397 1208.5,-397 1208.5,-360 799.5,-360"/>
<polygon fill="none" stroke="black" points="799.5,-360 799.5,-397 1208.5,-397 1208.5,-360 799.5,-360"/>
<text text-anchor="start" x="810.5" y="-374.8" font-family="Arial" font-size="14.00">DoubleSpentDot</text>
<polygon fill="white" stroke="none" points="799.5,-307 799.5,-360 1208.5,-360 1208.5,-307 799.5,-307"/>
<polygon fill="none" stroke="black" points="799.5,-307 799.5,-360 1208.5,-360 1208.5,-307 799.5,-307"/>
<text text-anchor="start" x="810.5" y="-337.8" font-family="Arial" font-size="14.00">&#45; fmt(&amp;self, f: &amp;mut std::fmt::Formatter&lt;&#39;_&gt;) &#45;&gt; std::fmt::Result</text>
<polygon fill="none" stroke="black" points="798,-306.5 798,-435.5 1209,-435.5 1209,-306.5 798,-306.5"/>
</a>
</g>
</g>
<!-- ndValidation&#45;&gt;ndLWWReg -->
<g id="edge55" class="edge"><title>ndValidation&#45;&gt;ndLWWReg</title>
<path fill="none" stroke="black" d="M1058.32,-302.104C1070.47,-287.06 1082.59,-272.042 1092.28,-260.04"/>
<polygon fill="black" stroke="black" points="1098.57,-252.249 1095.79,-262.856 1095.43,-256.139 1092.29,-260.029 1092.29,-260.029 1092.29,-260.029 1095.43,-256.139 1088.79,-257.203 1098.57,-252.249 1098.57,-252.249"/>
</g>
<!-- ndVectorEntry -->
<g id="node27" class="node"><title>ndVectorEntry</title>
<text text-anchor="middle" x="1725.5" y="-562.3" font-family="Times,serif" font-size="14.00">ndVectorEntry</text>
</g>
<!-- ndVectorEntry&#45;&gt;ndCausalityBarrier -->
<g id="edge56" class="edge"><title>ndVectorEntry&#45;&gt;ndCausalityBarrier</title>
<path fill="none" stroke="black" d="M1725.5,-547.873C1725.5,-514.323 1725.5,-439.707 1725.5,-399.287"/>
<polygon fill="black" stroke="black" points="1725.5,-389.089 1730,-399.089 1725.5,-394.089 1725.5,-399.089 1725.5,-399.089 1725.5,-399.089 1725.5,-394.089 1721,-399.089 1725.5,-389.089 1725.5,-389.089"/>
</g>
<!-- ndCausalOp -->
<g id="node28" class="node"><title>ndCausalOp</title>
<g id="a_node28_11"><a xlink:href="https://github.com/rust-crdt/rust-crdt/blob/master/src/vvwe.rs#:~:text=trait%20CausalOp" xlink:title="&lt;TABLE&gt;">
<polygon fill="lightgreen" stroke="none" points="3878.5,-573 3878.5,-610 4164.5,-610 4164.5,-573 3878.5,-573"/>
<polygon fill="none" stroke="black" points="3878.5,-573 3878.5,-610 4164.5,-610 4164.5,-573 3878.5,-573"/>
<text text-anchor="start" x="3987" y="-588.8" font-family="Arial" font-weight="bold" font-size="14.00">CausalOp</text>
<polygon fill="white" stroke="none" points="3878.5,-521 3878.5,-573 4164.5,-573 4164.5,-521 3878.5,-521"/>
<polygon fill="none" stroke="black" points="3878.5,-521 3878.5,-573 4164.5,-573 4164.5,-521 3878.5,-521"/>
<text text-anchor="start" x="3889.5" y="-550.8" font-family="Arial" font-size="14.00">happens_after(&amp;Self) &#45;&gt; Option&lt;Dot&lt;A&gt;&gt;</text>
<text text-anchor="start" x="3889.5" y="-535.8" font-family="Arial" font-size="14.00">dot(&amp;Self) &#45;&gt; Dot&lt;A&gt;</text>
<polygon fill="none" stroke="black" points="3877.5,-520.5 3877.5,-611.5 4165.5,-611.5 4165.5,-520.5 3877.5,-520.5"/>
</a>
</g>
</g>
<!-- ndIdentifier -->
<g id="node31" class="node"><title>ndIdentifier</title>
<text text-anchor="middle" x="2456.5" y="-367.3" font-family="Times,serif" font-size="14.00">ndIdentifier</text>
</g>
<!-- ndIdentifier&#45;&gt;ndList -->
<g id="edge57" class="edge"><title>ndIdentifier&#45;&gt;ndList</title>
<path fill="none" stroke="black" d="M2450.23,-352.732C2442.64,-334.16 2428.12,-305.013 2406.5,-288 2298.48,-203.001 2131.21,-175.095 2055.77,-166.525"/>
<polygon fill="black" stroke="black" points="2055.56,-166.502 2049.17,-169.841 2043.63,-165.224 2050.02,-161.886 2055.56,-166.502"/>
</g>
<!-- ndIdentifier&#45;&gt;ndGList -->
<g id="edge58" class="edge"><title>ndIdentifier&#45;&gt;ndGList</title>
<path fill="none" stroke="black" d="M2451.51,-352.988C2444.78,-333.472 2430.77,-302.323 2406.5,-288 2326.72,-240.91 1665.37,-263.908 1573.5,-252 1561.89,-250.496 1549.45,-248.134 1538,-245.644"/>
<polygon fill="black" stroke="black" points="1537.74,-245.585 1531,-248.156 1526.04,-242.926 1532.77,-240.355 1537.74,-245.585"/>
</g>
<!-- ndVClock&#45;&gt;ndMap -->
<g id="edge59" class="edge"><title>ndVClock&#45;&gt;ndMap</title>
<path fill="none" stroke="black" d="M615.104,-215.818C603.563,-205.989 589.477,-193.047 578.5,-180 554.052,-150.943 549.586,-141.912 532.5,-108 522.691,-88.5311 513.97,-65.5182 507.816,-47.7711"/>
<polygon fill="black" stroke="black" points="507.738,-47.5392 502.028,-43.1347 503.898,-36.1702 509.608,-40.5746 507.738,-47.5392"/>
</g>
<!-- ndVClock&#45;&gt;ndEntry -->
<g id="edge60" class="edge"><title>ndVClock&#45;&gt;ndEntry</title>
<path fill="none" stroke="black" d="M665.855,-215.876C681.109,-206.978 699.976,-195.972 716.54,-186.31"/>
<polygon fill="black" stroke="black" points="716.666,-186.236 719.834,-179.758 727.032,-180.19 723.865,-186.668 716.666,-186.236"/>
</g>
<!-- ndVClock&#45;&gt;ndReadCtx -->
<g id="edge61" class="edge"><title>ndVClock&#45;&gt;ndReadCtx</title>
<path fill="none" stroke="black" d="M617.282,-215.722C607.914,-206.154 597.417,-193.485 591.5,-180 583.245,-161.185 580.578,-138.117 579.931,-120.181"/>
<polygon fill="black" stroke="black" points="579.931,-120.161 575.849,-114.217 579.766,-108.162 583.848,-114.107 579.931,-120.161"/>
</g>
<!-- ndVClock&#45;&gt;ndAddCtx -->
<g id="edge62" class="edge"><title>ndVClock&#45;&gt;ndAddCtx</title>
<path fill="none" stroke="black" d="M600.242,-223.598C561.516,-213.415 498.422,-196.417 444.5,-180 443.629,-179.735 442.751,-179.465 441.867,-179.192"/>
<polygon fill="black" stroke="black" points="441.635,-179.119 434.706,-181.116 430.197,-175.488 437.126,-173.491 441.635,-179.119"/>
</g>
<!-- ndVClock&#45;&gt;ndRmCtx -->
<g id="edge63" class="edge"><title>ndVClock&#45;&gt;ndRmCtx</title>
<path fill="none" stroke="black" d="M636.253,-215.697C636.151,-208.576 636.03,-200.129 635.916,-192.108"/>
<polygon fill="black" stroke="black" points="635.916,-192.103 631.831,-186.161 635.744,-180.104 639.83,-186.047 635.916,-192.103"/>
</g>
<!-- ndVClock&#45;&gt;ndGCounter -->
<g id="edge64" class="edge"><title>ndVClock&#45;&gt;ndGCounter</title>
<path fill="none" stroke="black" d="M672.713,-220.31C677.335,-218.802 682.017,-217.328 686.5,-216 748.926,-197.506 765.777,-197.461 828.5,-180 829.381,-179.755 830.269,-179.506 831.163,-179.254"/>
<polygon fill="black" stroke="black" points="831.444,-179.172 836.098,-173.664 842.973,-175.841 838.319,-181.349 831.444,-179.172"/>
</g>
<!-- ndVClock&#45;&gt;ndList -->
<g id="edge65" class="edge"><title>ndVClock&#45;&gt;ndList</title>
<path fill="none" stroke="black" d="M672.702,-231.164C866.097,-221.354 1776.09,-175.195 1977.13,-164.997"/>
<polygon fill="black" stroke="black" points="1977.34,-164.986 1983.13,-160.687 1989.33,-164.378 1983.54,-168.677 1977.34,-164.986"/>
</g>
<!-- ndVClock&#45;&gt;ndMVReg -->
<g id="edge66" class="edge"><title>ndVClock&#45;&gt;ndMVReg</title>
<path fill="none" stroke="black" d="M655.539,-215.837C664.676,-206.3 674.668,-193.624 679.5,-180 684.848,-164.92 682.897,-159.635 679.5,-144 671.851,-108.788 653.379,-71.6036 639.522,-47.0373"/>
<polygon fill="black" stroke="black" points="639.36,-46.7577 632.892,-43.5697 633.347,-36.373 639.815,-39.561 639.36,-46.7577"/>
</g>
<!-- ndVClock&#45;&gt;ndOrswot -->
<g id="edge67" class="edge"><title>ndVClock&#45;&gt;ndOrswot</title>
<path fill="none" stroke="black" d="M672.644,-217.79C674.28,-217.172 675.904,-216.573 677.5,-216 729.108,-197.478 748.761,-208.668 795.5,-180 823.902,-162.579 871.04,-89.325 899.5,-72 939.957,-47.3716 992.593,-33.5566 1030.11,-26.2544"/>
<polygon fill="black" stroke="black" points="1030.41,-26.1986 1035.59,-21.1764 1042.21,-24.0215 1037.04,-29.0437 1030.41,-26.1986"/>
</g>
<!-- ndDir -->
<g id="node36" class="node"><title>ndDir</title>
<g id="a_node36_12"><a xlink:href="https://github.com/rust-crdt/rust-crdt/blob/master/src/pncounter.rs#:~:text=enum%20Dir" xlink:title="&lt;TABLE&gt;">
<polygon fill="yellow" stroke="none" points="1992.5,-573 1992.5,-610 2041.5,-610 2041.5,-573 1992.5,-573"/>
<polygon fill="none" stroke="black" points="1992.5,-573 1992.5,-610 2041.5,-610 2041.5,-573 1992.5,-573"/>
<text text-anchor="start" x="2006.5" y="-588.8" font-family="Arial" font-weight="bold" font-size="14.00">Dir</text>
<polygon fill="white" stroke="none" points="1992.5,-521 1992.5,-573 2041.5,-573 2041.5,-521 1992.5,-521"/>
<polygon fill="none" stroke="black" points="1992.5,-521 1992.5,-573 2041.5,-573 2041.5,-521 1992.5,-521"/>
<text text-anchor="start" x="2003.5" y="-550.8" font-family="Arial" font-size="14.00">Pos</text>
<text text-anchor="start" x="2003.5" y="-535.8" font-family="Arial" font-size="14.00">Neg</text>
<polygon fill="none" stroke="black" points="1991,-520.5 1991,-611.5 2042,-611.5 2042,-520.5 1991,-520.5"/>
</a>
</g>
</g>
<!-- ndDir&#45;&gt;ndOp -->
<g id="edge68" class="edge"><title>ndDir&#45;&gt;ndOp</title>
<path fill="none" stroke="black" d="M2016.5,-516.298C2016.5,-501.038 2016.5,-483.645 2016.5,-466.344"/>
<polygon fill="black" stroke="black" points="2016.5,-466.103 2012.5,-460.103 2016.5,-454.103 2020.5,-460.103 2016.5,-466.103"/>
</g>
</g>
</svg>
