<?xml version="1.0" encoding="UTF-8" standalone="no"?>
<!DOCTYPE svg PUBLIC "-//W3C//DTD SVG 1.1//EN"
 "http://www.w3.org/Graphics/SVG/1.1/DTD/svg11.dtd">
<!-- Generated by graphviz version 2.38.0 (20140413.2041)
 -->
<!-- Title: ml Pages: 1 -->
<svg width="2872pt" height="470pt"
 viewBox="0.00 0.00 2871.76 470.00" xmlns="http://www.w3.org/2000/svg" xmlns:xlink="http://www.w3.org/1999/xlink">
<g id="graph0" class="graph" transform="scale(1 1) rotate(0) translate(4 466)">
<title>ml</title>
<polygon fill="white" stroke="none" points="-4,4 -4,-466 2867.76,-466 2867.76,4 -4,4"/>
<!-- ndVal -->
<g id="node1" class="node"><title>ndVal</title>
<polygon fill="lightgreen" stroke="none" points="232.261,-419.5 232.261,-456.5 276.261,-456.5 276.261,-419.5 232.261,-419.5"/>
<polygon fill="none" stroke="black" points="232.261,-419.5 232.261,-456.5 276.261,-456.5 276.261,-419.5 232.261,-419.5"/>
<text text-anchor="start" x="243.261" y="-435.3" font-family="Arial" font-weight="bold" font-size="14.00">Val</text>
<polygon fill="none" stroke="black" points="231.261,-419 231.261,-458 277.261,-458 277.261,-419 231.261,-419"/>
</g>
<!-- ndMap -->
<g id="node2" class="node"><title>ndMap</title>
<polygon fill="lightblue" stroke="none" points="1251.26,-253.5 1251.26,-290.5 1304.26,-290.5 1304.26,-253.5 1251.26,-253.5"/>
<polygon fill="none" stroke="black" points="1251.26,-253.5 1251.26,-290.5 1304.26,-290.5 1304.26,-253.5 1251.26,-253.5"/>
<text text-anchor="start" x="1262.26" y="-269.3" font-family="Arial" font-weight="bold" font-size="14.00">Map</text>
<polygon fill="none" stroke="black" points="1249.76,-253 1249.76,-292 1304.76,-292 1304.76,-253 1249.76,-253"/>
</g>
<!-- ndEntry -->
<g id="node3" class="node"><title>ndEntry</title>
<polygon fill="lightblue" stroke="none" points="1340.26,-253.5 1340.26,-290.5 1400.26,-290.5 1400.26,-253.5 1340.26,-253.5"/>
<polygon fill="none" stroke="black" points="1340.26,-253.5 1340.26,-290.5 1400.26,-290.5 1400.26,-253.5 1340.26,-253.5"/>
<text text-anchor="start" x="1351.26" y="-269.3" font-family="Arial" font-weight="bold" font-size="14.00">Entry</text>
<polygon fill="none" stroke="black" points="1339.26,-253 1339.26,-292 1401.26,-292 1401.26,-253 1339.26,-253"/>
</g>
<!-- ndOp -->
<g id="node4" class="node"><title>ndOp</title>
<polygon fill="yellow" stroke="none" points="521.261,-170.5 521.261,-207.5 564.261,-207.5 564.261,-170.5 521.261,-170.5"/>
<polygon fill="none" stroke="black" points="521.261,-170.5 521.261,-207.5 564.261,-207.5 564.261,-170.5 521.261,-170.5"/>
<text text-anchor="start" x="532.261" y="-186.3" font-family="Arial" font-weight="bold" font-size="14.00">Op</text>
<polygon fill="none" stroke="black" points="519.761,-170 519.761,-209 564.761,-209 564.761,-170 519.761,-170"/>
</g>
<!-- ndOp&#45;&gt;ndOp -->
<g id="edge6" class="edge"><title>ndOp&#45;&gt;ndOp</title>
<path fill="none" stroke="black" stroke-dasharray="5,2" d="M573.046,-191C582.928,-190.984 590.761,-190.484 590.761,-189.5 590.761,-188.9 587.853,-188.48 583.344,-188.24"/>
<polygon fill="black" stroke="black" points="573.046,-188 583.148,-183.734 578.044,-188.117 583.043,-188.233 583.043,-188.233 583.043,-188.233 578.044,-188.117 582.938,-192.732 573.046,-188 573.046,-188"/>
</g>
<!-- ndOp&#45;&gt;ndOp -->
<g id="edge8" class="edge"><title>ndOp&#45;&gt;ndOp</title>
<path fill="none" stroke="black" stroke-dasharray="5,2" d="M573.043,-192.312C591.443,-192.938 608.761,-192 608.761,-189.5 608.761,-187.469 597.329,-186.469 583.172,-186.501"/>
<polygon fill="black" stroke="black" points="573.043,-186.688 582.959,-182.004 578.043,-186.595 583.042,-186.503 583.042,-186.503 583.042,-186.503 578.043,-186.595 583.125,-191.002 573.043,-186.688 573.043,-186.688"/>
</g>
<!-- ndOp&#45;&gt;ndOp -->
<g id="edge10" class="edge"><title>ndOp&#45;&gt;ndOp</title>
<path fill="none" stroke="black" stroke-dasharray="5,2" d="M573.022,-193.286C599.219,-194.957 626.761,-193.695 626.761,-189.5 626.761,-185.845 605.862,-184.417 583.159,-185.214"/>
<polygon fill="black" stroke="black" points="573.022,-185.714 582.789,-180.727 578.016,-185.468 583.01,-185.221 583.01,-185.221 583.01,-185.221 578.016,-185.468 583.232,-189.716 573.022,-185.714 573.022,-185.714"/>
</g>
<!-- ndOp&#45;&gt;ndOp -->
<g id="edge11" class="edge"><title>ndOp&#45;&gt;ndOp</title>
<path fill="none" stroke="black" stroke-dasharray="5,2" d="M572.954,-194.023C606.524,-196.992 644.761,-195.484 644.761,-189.5 644.761,-184.123 613.896,-182.36 583.282,-184.211"/>
<polygon fill="black" stroke="black" points="572.954,-184.977 582.593,-179.749 577.94,-184.607 582.926,-184.237 582.926,-184.237 582.926,-184.237 577.94,-184.607 583.259,-188.725 572.954,-184.977 572.954,-184.977"/>
</g>
<!-- ndOp&#45;&gt;ndOp -->
<g id="edge64" class="edge"><title>ndOp&#45;&gt;ndOp</title>
<path fill="none" stroke="black" stroke-dasharray="5,2" d="M572.821,-194.594C613.484,-199.03 662.761,-197.332 662.761,-189.5 662.761,-182.31 621.237,-180.29 582.97,-183.438"/>
<polygon fill="black" stroke="black" points="572.821,-184.406 582.349,-178.977 577.798,-183.931 582.776,-183.457 582.776,-183.457 582.776,-183.457 577.798,-183.931 583.203,-187.936 572.821,-184.406 572.821,-184.406"/>
</g>
<!-- ndOp&#45;&gt;ndOp -->
<g id="edge66" class="edge"><title>ndOp&#45;&gt;ndOp</title>
<path fill="none" stroke="black" stroke-dasharray="5,2" d="M572.874,-195.072C620.391,-201.06 680.761,-199.203 680.761,-189.5 680.761,-180.479 628.582,-178.24 583.062,-182.781"/>
<polygon fill="black" stroke="black" points="572.874,-183.928 582.308,-178.338 577.842,-183.369 582.811,-182.81 582.811,-182.81 582.811,-182.81 577.842,-183.369 583.315,-187.281 572.874,-183.928 572.874,-183.928"/>
</g>
<!-- ndOp&#45;&gt;ndOp -->
<g id="edge67" class="edge"><title>ndOp&#45;&gt;ndOp</title>
<path fill="none" stroke="black" stroke-dasharray="5,2" d="M572.988,-195.478C627.21,-203.086 698.761,-201.094 698.761,-189.5 698.761,-178.608 635.612,-176.19 583.008,-182.246"/>
<polygon fill="black" stroke="black" points="572.988,-183.522 582.339,-177.794 577.948,-182.89 582.908,-182.258 582.908,-182.258 582.908,-182.258 577.948,-182.89 583.477,-186.722 572.988,-183.522 572.988,-183.522"/>
</g>
<!-- ndOp&#45;&gt;ndOp -->
<g id="edge74" class="edge"><title>ndOp&#45;&gt;ndOp</title>
<path fill="none" stroke="black" stroke-dasharray="5,2" d="M573.121,-195.828C633.942,-205.109 716.761,-203 716.761,-189.5 716.761,-176.738 642.753,-174.155 583.28,-181.751"/>
<polygon fill="black" stroke="black" points="573.121,-183.172 582.402,-177.33 578.073,-182.479 583.025,-181.787 583.025,-181.787 583.025,-181.787 578.073,-182.479 583.648,-186.244 573.121,-183.172 573.121,-183.172"/>
</g>
<!-- ndOp&#45;&gt;ndOp -->
<g id="edge76" class="edge"><title>ndOp&#45;&gt;ndOp</title>
<path fill="none" stroke="black" stroke-dasharray="5,2" d="M573.063,-196.101C640.414,-207.134 734.761,-204.934 734.761,-189.5 734.761,-174.82 649.403,-172.112 583.108,-181.377"/>
<polygon fill="black" stroke="black" points="573.063,-182.899 582.276,-176.952 578.006,-182.15 582.95,-181.401 582.95,-181.401 582.95,-181.401 578.006,-182.15 583.624,-185.85 573.063,-182.899 573.063,-182.899"/>
</g>
<!-- ndOp&#45;&gt;ndOp -->
<g id="edge78" class="edge"><title>ndOp&#45;&gt;ndOp</title>
<path fill="none" stroke="black" stroke-dasharray="5,2" d="M572.94,-196.324C646.753,-209.158 752.761,-206.883 752.761,-189.5 752.761,-172.898 656.063,-170.077 583.07,-181.038"/>
<polygon fill="black" stroke="black" points="572.94,-182.676 582.093,-176.637 577.876,-181.878 582.812,-181.079 582.812,-181.079 582.812,-181.079 577.876,-181.878 583.53,-185.522 572.94,-182.676 572.94,-182.676"/>
</g>
<!-- ndOp&#45;&gt;ndOp -->
<g id="edge79" class="edge"><title>ndOp&#45;&gt;ndOp</title>
<path fill="none" stroke="black" stroke-dasharray="5,2" d="M572.876,-196.524C653.087,-211.177 770.761,-208.836 770.761,-189.5 770.761,-170.957 662.542,-168.043 582.924,-180.758"/>
<polygon fill="black" stroke="black" points="572.876,-182.476 581.975,-176.355 577.805,-181.633 582.733,-180.791 582.733,-180.791 582.733,-180.791 577.805,-181.633 583.491,-185.227 572.876,-182.476 572.876,-182.476"/>
</g>
<!-- ndOp&#45;&gt;ndOp -->
<g id="edge88" class="edge"><title>ndOp&#45;&gt;ndOp</title>
<path fill="none" stroke="black" stroke-dasharray="5,2" d="M572.99,-196.732C659.551,-213.192 788.761,-210.781 788.761,-189.5 788.761,-169.029 669.206,-166.019 583.056,-180.469"/>
<polygon fill="black" stroke="black" points="572.99,-182.268 582.043,-176.079 577.912,-181.388 582.834,-180.509 582.834,-180.509 582.834,-180.509 577.912,-181.388 583.626,-184.939 572.99,-182.268 572.99,-182.268"/>
</g>
<!-- ndOp&#45;&gt;ndOp -->
<g id="edge89" class="edge"><title>ndOp&#45;&gt;ndOp</title>
<path fill="none" stroke="black" stroke-dasharray="5,2" d="M572.79,-196.859C665.662,-215.211 806.761,-212.758 806.761,-189.5 806.761,-167.06 675.408,-163.987 582.755,-180.283"/>
<polygon fill="black" stroke="black" points="572.79,-182.141 581.795,-175.884 577.705,-181.224 582.62,-180.308 582.62,-180.308 582.62,-180.308 577.705,-181.224 583.445,-184.732 572.79,-182.141 572.79,-182.141"/>
</g>
<!-- ndOp&#45;&gt;ndOp -->
<g id="edge109" class="edge"><title>ndOp&#45;&gt;ndOp</title>
<path fill="none" stroke="black" stroke-dasharray="5,2" d="M572.925,-197.034C672.079,-217.222 824.761,-214.711 824.761,-189.5 824.761,-165.126 682.049,-161.97 582.971,-180.03"/>
<polygon fill="black" stroke="black" points="572.925,-181.966 581.892,-175.655 577.834,-181.02 582.744,-180.074 582.744,-180.074 582.744,-180.074 577.834,-181.02 583.595,-184.493 572.925,-181.966 572.925,-181.966"/>
</g>
<!-- ndCvRDTValidation -->
<g id="node6" class="node"><title>ndCvRDTValidation</title>
<polygon fill="yellow" stroke="none" points="472.261,-87.5 472.261,-124.5 612.261,-124.5 612.261,-87.5 472.261,-87.5"/>
<polygon fill="none" stroke="black" points="472.261,-87.5 472.261,-124.5 612.261,-124.5 612.261,-87.5 472.261,-87.5"/>
<text text-anchor="start" x="483.261" y="-103.3" font-family="Arial" font-weight="bold" font-size="14.00">CvRDTValidation</text>
<polygon fill="none" stroke="black" points="471.261,-87 471.261,-126 613.261,-126 613.261,-87 471.261,-87"/>
</g>
<!-- ndOp&#45;&gt;ndCvRDTValidation -->
<g id="edge1" class="edge"><title>ndOp&#45;&gt;ndCvRDTValidation</title>
<path fill="none" stroke="black" stroke-dasharray="5,2" d="M511.644,-165.937C508.656,-157.929 507.805,-148.749 509.092,-140.074"/>
<polygon fill="black" stroke="black" points="511.585,-130.223 513.494,-141.021 510.358,-135.07 509.132,-139.917 509.132,-139.917 509.132,-139.917 510.358,-135.07 504.769,-138.814 511.585,-130.223 511.585,-130.223"/>
</g>
<!-- ndOp&#45;&gt;ndCvRDTValidation -->
<g id="edge58" class="edge"><title>ndOp&#45;&gt;ndCvRDTValidation</title>
<path fill="none" stroke="black" stroke-dasharray="5,2" d="M523.891,-165.937C522.118,-158.016 521.599,-148.949 522.335,-140.357"/>
<polygon fill="black" stroke="black" points="523.855,-130.223 526.822,-140.78 523.114,-135.168 522.372,-140.112 522.372,-140.112 522.372,-140.112 523.114,-135.168 517.922,-139.445 523.855,-130.223 523.855,-130.223"/>
</g>
<!-- ndOp&#45;&gt;ndCvRDTValidation -->
<g id="edge69" class="edge"><title>ndOp&#45;&gt;ndCvRDTValidation</title>
<path fill="none" stroke="black" stroke-dasharray="5,2" d="M536.138,-165.937C535.547,-158.016 535.374,-148.949 535.619,-140.357"/>
<polygon fill="black" stroke="black" points="536.126,-130.223 540.121,-140.435 535.876,-135.217 535.626,-140.21 535.626,-140.21 535.626,-140.21 535.876,-135.217 531.132,-139.986 536.126,-130.223 536.126,-130.223"/>
</g>
<!-- ndOp&#45;&gt;ndCvRDTValidation -->
<g id="edge81" class="edge"><title>ndOp&#45;&gt;ndCvRDTValidation</title>
<path fill="none" stroke="black" stroke-dasharray="5,2" d="M548.385,-165.937C548.976,-158.016 549.149,-148.949 548.903,-140.357"/>
<polygon fill="black" stroke="black" points="548.396,-130.223 553.39,-139.986 548.646,-135.217 548.896,-140.21 548.896,-140.21 548.896,-140.21 548.646,-135.217 544.402,-140.435 548.396,-130.223 548.396,-130.223"/>
</g>
<!-- ndOp&#45;&gt;ndCvRDTValidation -->
<g id="edge102" class="edge"><title>ndOp&#45;&gt;ndCvRDTValidation</title>
<path fill="none" stroke="black" stroke-dasharray="5,2" d="M560.631,-165.937C562.405,-158.016 562.923,-148.949 562.187,-140.357"/>
<polygon fill="black" stroke="black" points="560.667,-130.223 566.601,-139.445 561.409,-135.168 562.151,-140.112 562.151,-140.112 562.151,-140.112 561.409,-135.168 557.7,-140.78 560.667,-130.223 560.667,-130.223"/>
</g>
<!-- ndOp&#45;&gt;ndCvRDTValidation -->
<g id="edge111" class="edge"><title>ndOp&#45;&gt;ndCvRDTValidation</title>
<path fill="none" stroke="black" stroke-dasharray="5,2" d="M572.878,-165.937C575.866,-157.929 576.717,-148.749 575.43,-140.074"/>
<polygon fill="black" stroke="black" points="572.937,-130.223 579.753,-138.814 574.164,-135.07 575.39,-139.917 575.39,-139.917 575.39,-139.917 574.164,-135.07 571.028,-141.021 572.937,-130.223 572.937,-130.223"/>
</g>
<!-- ndValidationError -->
<g id="node17" class="node"><title>ndValidationError</title>
<polygon fill="yellow" stroke="none" points="120.261,-87.5 120.261,-124.5 248.261,-124.5 248.261,-87.5 120.261,-87.5"/>
<polygon fill="none" stroke="black" points="120.261,-87.5 120.261,-124.5 248.261,-124.5 248.261,-87.5 120.261,-87.5"/>
<text text-anchor="start" x="131.261" y="-103.3" font-family="Arial" font-weight="bold" font-size="14.00">ValidationError</text>
<polygon fill="none" stroke="black" points="119.261,-87 119.261,-126 249.261,-126 249.261,-87 119.261,-87"/>
</g>
<!-- ndOp&#45;&gt;ndValidationError -->
<g id="edge2" class="edge"><title>ndOp&#45;&gt;ndValidationError</title>
<path fill="none" stroke="black" stroke-dasharray="5,2" d="M511.471,-186.24C449.108,-179.13 331.047,-156.275 231.445,-132.455"/>
<polygon fill="black" stroke="black" points="221.559,-130.072 232.335,-128.04 226.42,-131.244 231.281,-132.415 231.281,-132.415 231.281,-132.415 226.42,-131.244 230.226,-136.79 221.559,-130.072 221.559,-130.072"/>
</g>
<!-- ndOp&#45;&gt;ndValidationError -->
<g id="edge59" class="edge"><title>ndOp&#45;&gt;ndValidationError</title>
<path fill="none" stroke="black" stroke-dasharray="5,2" d="M511.406,-185.159C455.931,-177.019 344.32,-155.153 249.277,-132.414"/>
<polygon fill="black" stroke="black" points="239.546,-130.069 250.322,-128.038 244.407,-131.241 249.267,-132.412 249.267,-132.412 249.267,-132.412 244.407,-131.241 248.213,-136.787 239.546,-130.069 239.546,-130.069"/>
</g>
<!-- ndOp&#45;&gt;ndValidationError -->
<g id="edge70" class="edge"><title>ndOp&#45;&gt;ndValidationError</title>
<path fill="none" stroke="black" stroke-dasharray="5,2" d="M511.48,-183.596C460.677,-174.463 356.744,-153.822 267.251,-132.409"/>
<polygon fill="black" stroke="black" points="257.53,-130.065 268.306,-128.034 262.39,-131.237 267.251,-132.409 267.251,-132.409 267.251,-132.409 262.39,-131.237 266.197,-136.783 257.53,-130.065 257.53,-130.065"/>
</g>
<!-- ndOp&#45;&gt;ndValidationError -->
<g id="edge82" class="edge"><title>ndOp&#45;&gt;ndValidationError</title>
<path fill="none" stroke="black" stroke-dasharray="5,2" d="M511.42,-181.424C461.451,-171.053 360.459,-150.699 275.261,-130 272.661,-129.368 270.018,-128.713 267.348,-128.041"/>
<polygon fill="black" stroke="black" points="257.592,-125.546 268.395,-123.664 262.436,-126.785 267.28,-128.024 267.28,-128.024 267.28,-128.024 262.436,-126.785 266.165,-132.384 257.592,-125.546 257.592,-125.546"/>
</g>
<!-- ndOp&#45;&gt;ndValidationError -->
<g id="edge103" class="edge"><title>ndOp&#45;&gt;ndValidationError</title>
<path fill="none" stroke="black" stroke-dasharray="5,2" d="M511.532,-178.712C463.193,-167.753 371.558,-149.022 293.261,-130 285.027,-128 276.364,-125.765 267.572,-123.502"/>
<polygon fill="black" stroke="black" points="257.608,-120.946 268.413,-119.072 262.451,-122.188 267.295,-123.431 267.295,-123.431 267.295,-123.431 262.451,-122.188 266.176,-127.79 257.608,-120.946 257.608,-120.946"/>
</g>
<!-- ndOp&#45;&gt;ndValidationError -->
<g id="edge112" class="edge"><title>ndOp&#45;&gt;ndValidationError</title>
<path fill="none" stroke="black" stroke-dasharray="5,2" d="M511.687,-175.526C464.592,-164.335 382.418,-147.288 311.261,-130 297.6,-126.681 282.755,-122.718 267.18,-119.049"/>
<polygon fill="black" stroke="black" points="257.393,-116.81 268.145,-114.653 262.267,-117.925 267.142,-119.04 267.142,-119.04 267.142,-119.04 262.267,-117.925 266.138,-123.426 257.393,-116.81 257.393,-116.81"/>
</g>
<!-- ndGSet -->
<g id="node19" class="node"><title>ndGSet</title>
<polygon fill="lightblue" stroke="none" points="284.261,-87.5 284.261,-124.5 340.261,-124.5 340.261,-87.5 284.261,-87.5"/>
<polygon fill="none" stroke="black" points="284.261,-87.5 284.261,-124.5 340.261,-124.5 340.261,-87.5 284.261,-87.5"/>
<text text-anchor="start" x="295.261" y="-103.3" font-family="Arial" font-weight="bold" font-size="14.00">GSet</text>
<polygon fill="none" stroke="black" points="283.261,-87 283.261,-126 341.261,-126 341.261,-87 283.261,-87"/>
</g>
<!-- ndOp&#45;&gt;ndGSet -->
<g id="edge3" class="edge"><title>ndOp&#45;&gt;ndGSet</title>
<path fill="none" stroke="black" stroke-dasharray="5,2" d="M511.619,-185.892C462.034,-178.835 386.292,-158.249 323.245,-133.926"/>
<polygon fill="black" stroke="black" points="313.641,-130.152 324.595,-129.622 318.295,-131.981 322.949,-133.81 322.949,-133.81 322.949,-133.81 318.295,-131.981 321.303,-137.998 313.641,-130.152 313.641,-130.152"/>
</g>
<!-- ndOp&#45;&gt;ndGSet -->
<g id="edge60" class="edge"><title>ndOp&#45;&gt;ndGSet</title>
<path fill="none" stroke="black" stroke-dasharray="5,2" d="M511.505,-184.329C469.644,-176.102 399.919,-156.593 340.979,-133.824"/>
<polygon fill="black" stroke="black" points="331.618,-130.143 342.571,-129.615 336.271,-131.973 340.924,-133.803 340.924,-133.803 340.924,-133.803 336.271,-131.973 339.277,-137.99 331.618,-130.143 331.618,-130.143"/>
</g>
<!-- ndOp&#45;&gt;ndGSet -->
<g id="edge71" class="edge"><title>ndOp&#45;&gt;ndGSet</title>
<path fill="none" stroke="black" stroke-dasharray="5,2" d="M511.527,-181.867C474.991,-172.61 412.779,-154.603 359.148,-133.89"/>
<polygon fill="black" stroke="black" points="349.588,-130.131 360.541,-129.602 354.241,-131.96 358.894,-133.79 358.894,-133.79 358.894,-133.79 354.241,-131.96 357.247,-137.978 349.588,-130.131 349.588,-130.131"/>
</g>
<!-- ndOp&#45;&gt;ndGSet -->
<g id="edge83" class="edge"><title>ndOp&#45;&gt;ndGSet</title>
<path fill="none" stroke="black" stroke-dasharray="5,2" d="M511.513,-178.312C476.099,-167.711 416.885,-149.899 367.261,-130 364.463,-128.878 361.6,-127.659 358.716,-126.387"/>
<polygon fill="black" stroke="black" points="349.493,-122.205 360.458,-122.236 354.046,-124.27 358.6,-126.335 358.6,-126.335 358.6,-126.335 354.046,-124.27 356.742,-130.433 349.493,-122.205 349.493,-122.205"/>
</g>
<!-- ndOp&#45;&gt;ndGSet -->
<g id="edge104" class="edge"><title>ndOp&#45;&gt;ndGSet</title>
<path fill="none" stroke="black" stroke-dasharray="5,2" d="M511.513,-173.762C478.673,-162.985 428.351,-147.279 385.261,-130 377.03,-126.699 368.23,-122.555 358.956,-118.725"/>
<polygon fill="black" stroke="black" points="349.528,-115.043 360.48,-114.489 354.185,-116.862 358.843,-118.681 358.843,-118.681 358.843,-118.681 354.185,-116.862 357.206,-122.873 349.528,-115.043 349.528,-115.043"/>
</g>
<!-- ndOp&#45;&gt;ndGSet -->
<g id="edge113" class="edge"><title>ndOp&#45;&gt;ndGSet</title>
<path fill="none" stroke="black" stroke-dasharray="5,2" d="M511.715,-168.531C481.579,-158.186 439.818,-144.659 403.261,-130 390.964,-125.069 377.396,-118.254 359.327,-113.42"/>
<polygon fill="black" stroke="black" points="349.451,-111.093 360.216,-109.006 354.317,-112.24 359.184,-113.386 359.184,-113.386 359.184,-113.386 354.317,-112.24 358.152,-117.767 349.451,-111.093 349.451,-111.093"/>
</g>
<!-- ndGCounter -->
<g id="node20" class="node"><title>ndGCounter</title>
<polygon fill="lightblue" stroke="none" points="794.261,-87.5 794.261,-124.5 884.261,-124.5 884.261,-87.5 794.261,-87.5"/>
<polygon fill="none" stroke="black" points="794.261,-87.5 794.261,-124.5 884.261,-124.5 884.261,-87.5 794.261,-87.5"/>
<text text-anchor="start" x="805.261" y="-103.3" font-family="Arial" font-weight="bold" font-size="14.00">GCounter</text>
<polygon fill="none" stroke="black" points="793.261,-87 793.261,-126 885.261,-126 885.261,-87 793.261,-87"/>
</g>
<!-- ndOp&#45;&gt;ndGCounter -->
<g id="edge4" class="edge"><title>ndOp&#45;&gt;ndGCounter</title>
<path fill="none" stroke="black" stroke-dasharray="5,2" d="M572.92,-172.993C612.66,-162.047 675.542,-146.45 730.261,-130 743.744,-125.947 758.59,-120.773 775.168,-116.409"/>
<polygon fill="black" stroke="black" points="785.132,-113.947 776.503,-120.714 780.277,-115.146 775.423,-116.346 775.423,-116.346 775.423,-116.346 780.277,-115.146 774.344,-111.977 785.132,-113.947 785.132,-113.947"/>
</g>
<!-- ndOp&#45;&gt;ndGCounter -->
<g id="edge61" class="edge"><title>ndOp&#45;&gt;ndGCounter</title>
<path fill="none" stroke="black" stroke-dasharray="5,2" d="M572.933,-176.952C614.462,-166.018 686.552,-148.551 748.261,-130 756.884,-127.408 766.063,-124.358 775.418,-121.354"/>
<polygon fill="black" stroke="black" points="785.213,-118.262 777.032,-125.563 780.445,-119.767 775.677,-121.272 775.677,-121.272 775.677,-121.272 780.445,-119.767 774.322,-116.981 785.213,-118.262 785.213,-118.262"/>
</g>
<!-- ndOp&#45;&gt;ndGCounter -->
<g id="edge72" class="edge"><title>ndOp&#45;&gt;ndGCounter</title>
<path fill="none" stroke="black" stroke-dasharray="5,2" d="M572.977,-180.317C616.472,-169.849 697.762,-150.592 766.261,-130 769.211,-129.113 772.227,-128.173 775.273,-127.199"/>
<polygon fill="black" stroke="black" points="785.064,-123.999 776.956,-131.383 780.311,-125.552 775.559,-127.105 775.559,-127.105 775.559,-127.105 780.311,-125.552 774.161,-122.828 785.064,-123.999 785.064,-123.999"/>
</g>
<!-- ndOp&#45;&gt;ndGCounter -->
<g id="edge84" class="edge"><title>ndOp&#45;&gt;ndGCounter</title>
<path fill="none" stroke="black" stroke-dasharray="5,2" d="M573.131,-182.935C617.674,-173.732 701.926,-154.226 775.148,-132.706"/>
<polygon fill="black" stroke="black" points="784.939,-129.796 776.636,-136.958 780.146,-131.22 775.353,-132.645 775.353,-132.645 775.353,-132.645 780.146,-131.22 774.071,-128.331 784.939,-129.796 784.939,-129.796"/>
</g>
<!-- ndOp&#45;&gt;ndGCounter -->
<g id="edge105" class="edge"><title>ndOp&#45;&gt;ndGCounter</title>
<path fill="none" stroke="black" stroke-dasharray="5,2" d="M573.103,-184.838C622.405,-176.688 713.895,-155.958 791.866,-133.087"/>
<polygon fill="black" stroke="black" points="801.792,-130.141 793.485,-137.3 796.998,-131.564 792.205,-132.986 792.205,-132.986 792.205,-132.986 796.998,-131.564 790.925,-128.672 801.792,-130.141 801.792,-130.141"/>
</g>
<!-- ndOp&#45;&gt;ndGCounter -->
<g id="edge114" class="edge"><title>ndOp&#45;&gt;ndGCounter</title>
<path fill="none" stroke="black" stroke-dasharray="5,2" d="M572.901,-186.114C629.5,-179.052 727.551,-157.237 810.044,-133.034"/>
<polygon fill="black" stroke="black" points="819.766,-130.149 811.46,-137.308 814.973,-131.571 810.179,-132.994 810.179,-132.994 810.179,-132.994 814.973,-131.571 808.899,-128.68 819.766,-130.149 819.766,-130.149"/>
</g>
<!-- ndValidation -->
<g id="node25" class="node"><title>ndValidation</title>
<polygon fill="yellow" stroke="none" points="649.261,-87.5 649.261,-124.5 740.261,-124.5 740.261,-87.5 649.261,-87.5"/>
<polygon fill="none" stroke="black" points="649.261,-87.5 649.261,-124.5 740.261,-124.5 740.261,-87.5 649.261,-87.5"/>
<text text-anchor="start" x="660.261" y="-103.3" font-family="Arial" font-weight="bold" font-size="14.00">Validation</text>
<polygon fill="none" stroke="black" points="647.761,-87 647.761,-126 740.761,-126 740.761,-87 647.761,-87"/>
</g>
<!-- ndOp&#45;&gt;ndValidation -->
<g id="edge5" class="edge"><title>ndOp&#45;&gt;ndValidation</title>
<path fill="none" stroke="black" stroke-dasharray="5,2" d="M511.67,-181.871C499.163,-167.304 562.757,-132.506 629.774,-116.204"/>
<polygon fill="black" stroke="black" points="639.678,-113.938 630.934,-120.555 634.804,-115.053 629.93,-116.168 629.93,-116.168 629.93,-116.168 634.804,-115.053 628.926,-111.782 639.678,-113.938 639.678,-113.938"/>
</g>
<!-- ndOp&#45;&gt;ndValidation -->
<g id="edge12" class="edge"><title>ndOp&#45;&gt;ndValidation</title>
<path fill="none" stroke="black" d="M529.491,-165.937C548.027,-150.552 588.885,-130.84 629.747,-118.696"/>
<polygon fill="black" stroke="black" points="639.563,-115.927 631.16,-122.973 634.751,-117.284 629.939,-118.642 629.939,-118.642 629.939,-118.642 634.751,-117.284 628.717,-114.311 639.563,-115.927 639.563,-115.927"/>
</g>
<!-- ndOp&#45;&gt;ndValidation -->
<g id="edge62" class="edge"><title>ndOp&#45;&gt;ndValidation</title>
<path fill="none" stroke="black" stroke-dasharray="5,2" d="M541.738,-165.937C560.8,-151.86 595.91,-134.159 629.968,-121.948"/>
<polygon fill="black" stroke="black" points="639.532,-118.657 631.54,-126.166 634.804,-120.284 630.076,-121.911 630.076,-121.911 630.076,-121.911 634.804,-120.284 628.612,-117.656 639.532,-118.657 639.532,-118.657"/>
</g>
<!-- ndOp&#45;&gt;ndValidation -->
<g id="edge68" class="edge"><title>ndOp&#45;&gt;ndValidation</title>
<path fill="none" stroke="black" d="M553.985,-165.937C572.826,-153.404 602.293,-137.999 630.319,-126.153"/>
<polygon fill="black" stroke="black" points="639.75,-122.282 632.208,-130.242 635.125,-124.18 630.499,-126.079 630.499,-126.079 630.499,-126.079 635.125,-124.18 628.79,-121.916 639.75,-122.282 639.75,-122.282"/>
</g>
<!-- ndOp&#45;&gt;ndValidation -->
<g id="edge73" class="edge"><title>ndOp&#45;&gt;ndValidation</title>
<path fill="none" stroke="black" stroke-dasharray="5,2" d="M566.232,-165.937C583.91,-155.24 607.803,-142.451 630.408,-131.568"/>
<polygon fill="black" stroke="black" points="639.658,-127.189 632.545,-135.535 635.139,-129.328 630.619,-131.468 630.619,-131.468 630.619,-131.468 635.139,-129.328 628.694,-127.4 639.658,-127.189 639.658,-127.189"/>
</g>
<!-- ndOp&#45;&gt;ndValidation -->
<g id="edge80" class="edge"><title>ndOp&#45;&gt;ndValidation</title>
<path fill="none" stroke="black" d="M572.81,-169.098C591.143,-158.819 614.967,-146.025 636.681,-134.764"/>
<polygon fill="black" stroke="black" points="645.836,-130.043 639.01,-138.626 641.392,-132.335 636.948,-134.626 636.948,-134.626 636.948,-134.626 641.392,-132.335 634.886,-130.626 645.836,-130.043 645.836,-130.043"/>
</g>
<!-- ndOp&#45;&gt;ndValidation -->
<g id="edge85" class="edge"><title>ndOp&#45;&gt;ndValidation</title>
<path fill="none" stroke="black" stroke-dasharray="5,2" d="M572.894,-174.942C594.801,-164.072 624.505,-148.464 649.089,-134.999"/>
<polygon fill="black" stroke="black" points="657.89,-130.148 651.304,-138.916 653.511,-132.562 649.132,-134.975 649.132,-134.975 649.132,-134.975 653.511,-132.562 646.96,-131.034 657.89,-130.148 657.89,-130.148"/>
</g>
<!-- ndOp&#45;&gt;ndValidation -->
<g id="edge90" class="edge"><title>ndOp&#45;&gt;ndValidation</title>
<path fill="none" stroke="black" d="M572.792,-179.366C599.072,-168.697 635.107,-150.547 661.678,-135.157"/>
<polygon fill="black" stroke="black" points="670.298,-130.058 663.982,-139.023 665.995,-132.604 661.691,-135.149 661.691,-135.149 661.691,-135.149 665.995,-132.604 659.4,-131.276 670.298,-130.058 670.298,-130.058"/>
</g>
<!-- ndOp&#45;&gt;ndValidation -->
<g id="edge106" class="edge"><title>ndOp&#45;&gt;ndValidation</title>
<path fill="none" stroke="black" stroke-dasharray="5,2" d="M572.978,-182.279C604.379,-172.394 646.137,-152.501 673.641,-135.717"/>
<polygon fill="black" stroke="black" points="682.386,-130.164 676.357,-139.323 678.165,-132.844 673.945,-135.525 673.945,-135.525 673.945,-135.525 678.165,-132.844 671.532,-131.726 682.386,-130.164 682.386,-130.164"/>
</g>
<!-- ndOp&#45;&gt;ndValidation -->
<g id="edge110" class="edge"><title>ndOp&#45;&gt;ndValidation</title>
<path fill="none" stroke="black" d="M572.794,-184.259C610.56,-175.33 658.301,-153.935 686.143,-135.995"/>
<polygon fill="black" stroke="black" points="694.446,-130.312 688.735,-139.674 690.32,-133.137 686.194,-135.961 686.194,-135.961 686.194,-135.961 690.32,-133.137 683.652,-132.247 694.446,-130.312 694.446,-130.312"/>
</g>
<!-- ndOp&#45;&gt;ndValidation -->
<g id="edge115" class="edge"><title>ndOp&#45;&gt;ndValidation</title>
<path fill="none" stroke="black" stroke-dasharray="5,2" d="M572.9,-185.473C617.801,-177.473 670.947,-155.104 698.558,-136.366"/>
<polygon fill="black" stroke="black" points="706.894,-130.176 701.548,-139.751 702.88,-133.157 698.866,-136.138 698.866,-136.138 698.866,-136.138 702.88,-133.157 696.183,-132.525 706.894,-130.176 706.894,-130.176"/>
</g>
<!-- ndOp&#45;&gt;ndValidation -->
<g id="edge118" class="edge"><title>ndOp&#45;&gt;ndValidation</title>
<path fill="none" stroke="black" d="M572.81,-186.291C625.702,-179.138 684.271,-155.947 711.276,-136.563"/>
<polygon fill="black" stroke="black" points="719.17,-130.164 714.236,-139.957 715.286,-133.313 711.402,-136.461 711.402,-136.461 711.402,-136.461 715.286,-133.313 708.568,-132.966 719.17,-130.164 719.17,-130.164"/>
</g>
<!-- ndGList -->
<g id="node30" class="node"><title>ndGList</title>
<polygon fill="lightblue" stroke="none" points="377.261,-87.5 377.261,-124.5 436.261,-124.5 436.261,-87.5 377.261,-87.5"/>
<polygon fill="none" stroke="black" points="377.261,-87.5 377.261,-124.5 436.261,-124.5 436.261,-87.5 377.261,-87.5"/>
<text text-anchor="start" x="388.261" y="-103.3" font-family="Arial" font-weight="bold" font-size="14.00">GList</text>
<polygon fill="none" stroke="black" points="375.761,-87 375.761,-126 436.761,-126 436.761,-87 375.761,-87"/>
</g>
<!-- ndOp&#45;&gt;ndGList -->
<g id="edge7" class="edge"><title>ndOp&#45;&gt;ndGList</title>
<path fill="none" stroke="black" stroke-dasharray="5,2" d="M511.573,-181.871C482.465,-171.911 445.579,-152.49 421.705,-135.993"/>
<polygon fill="black" stroke="black" points="413.537,-130.07 424.274,-132.297 417.585,-133.005 421.632,-135.94 421.632,-135.94 421.632,-135.94 417.585,-133.005 418.991,-139.583 413.537,-130.07 413.537,-130.07"/>
</g>
<!-- ndOp&#45;&gt;ndGList -->
<g id="edge63" class="edge"><title>ndOp&#45;&gt;ndGList</title>
<path fill="none" stroke="black" stroke-dasharray="5,2" d="M511.742,-178.568C488.044,-167.929 457.037,-150.563 434.154,-135.661"/>
<polygon fill="black" stroke="black" points="425.814,-130.09 436.629,-131.903 429.971,-132.867 434.129,-135.645 434.129,-135.645 434.129,-135.645 429.971,-132.867 431.629,-139.387 425.814,-130.09 425.814,-130.09"/>
</g>
<!-- ndOp&#45;&gt;ndGList -->
<g id="edge75" class="edge"><title>ndOp&#45;&gt;ndGList</title>
<path fill="none" stroke="black" stroke-dasharray="5,2" d="M511.611,-173.454C492.401,-162.806 467.537,-148.209 446.743,-135.454"/>
<polygon fill="black" stroke="black" points="438.109,-130.118 448.981,-131.547 442.362,-132.747 446.615,-135.375 446.615,-135.375 446.615,-135.375 442.362,-132.747 444.25,-139.203 438.109,-130.118 438.109,-130.118"/>
</g>
<!-- ndOp&#45;&gt;ndGList -->
<g id="edge86" class="edge"><title>ndOp&#45;&gt;ndGList</title>
<path fill="none" stroke="black" stroke-dasharray="5,2" d="M511.532,-166.58C494.438,-155.902 472.877,-143.024 453.691,-132.021"/>
<polygon fill="black" stroke="black" points="444.781,-126.95 455.698,-127.985 449.127,-129.423 453.472,-131.896 453.472,-131.896 453.472,-131.896 449.127,-129.423 451.247,-135.807 444.781,-126.95 444.781,-126.95"/>
</g>
<!-- ndOp&#45;&gt;ndGList -->
<g id="edge107" class="edge"><title>ndOp&#45;&gt;ndGList</title>
<path fill="none" stroke="black" stroke-dasharray="5,2" d="M522.748,-165.937C504.347,-153.291 477.839,-137.722 454.314,-125.835"/>
<polygon fill="black" stroke="black" points="445.13,-121.311 456.089,-121.693 449.615,-123.52 454.1,-125.729 454.1,-125.729 454.1,-125.729 449.615,-123.52 452.112,-129.766 445.13,-121.311 445.13,-121.311"/>
</g>
<!-- ndOp&#45;&gt;ndGList -->
<g id="edge116" class="edge"><title>ndOp&#45;&gt;ndGList</title>
<path fill="none" stroke="black" stroke-dasharray="5,2" d="M534.994,-165.937C516.02,-151.407 483.526,-133.016 454.338,-120.786"/>
<polygon fill="black" stroke="black" points="444.999,-117.045 455.955,-116.587 449.64,-118.904 454.281,-120.764 454.281,-120.764 454.281,-120.764 449.64,-118.904 452.608,-124.941 444.999,-117.045 444.999,-117.045"/>
</g>
<!-- ndVClock -->
<g id="node32" class="node"><title>ndVClock</title>
<polygon fill="lightblue" stroke="none" points="975.261,-336.5 975.261,-373.5 1047.26,-373.5 1047.26,-336.5 975.261,-336.5"/>
<polygon fill="none" stroke="black" points="975.261,-336.5 975.261,-373.5 1047.26,-373.5 1047.26,-336.5 975.261,-336.5"/>
<text text-anchor="start" x="986.261" y="-352.3" font-family="Arial" font-weight="bold" font-size="14.00">VClock</text>
<polygon fill="none" stroke="black" points="974.261,-336 974.261,-375 1048.26,-375 1048.26,-336 974.261,-336"/>
</g>
<!-- ndOp&#45;&gt;ndVClock -->
<g id="edge9" class="edge"><title>ndOp&#45;&gt;ndVClock</title>
<path fill="none" stroke="black" stroke-dasharray="5,2" d="M572.964,-192.287C630.646,-196.32 744.249,-209.09 833.261,-249 877.952,-269.037 920.665,-307.516 957.445,-332.051"/>
<polygon fill="black" stroke="black" points="966.174,-337.666 955.329,-336.041 961.969,-334.961 957.764,-332.256 957.764,-332.256 957.764,-332.256 961.969,-334.961 960.198,-328.471 966.174,-337.666 966.174,-337.666"/>
</g>
<!-- ndOp&#45;&gt;ndVClock -->
<g id="edge65" class="edge"><title>ndOp&#45;&gt;ndVClock</title>
<path fill="none" stroke="black" stroke-dasharray="5,2" d="M573.108,-191.525C631.617,-194.571 755.63,-206.123 851.261,-249 892.242,-267.374 931.56,-301.254 962.368,-325.671"/>
<polygon fill="black" stroke="black" points="970.419,-331.972 959.771,-329.352 966.482,-328.89 962.544,-325.808 962.544,-325.808 962.544,-325.808 966.482,-328.89 965.318,-322.265 970.419,-331.972 970.419,-331.972"/>
</g>
<!-- ndOp&#45;&gt;ndVClock -->
<g id="edge77" class="edge"><title>ndOp&#45;&gt;ndVClock</title>
<path fill="none" stroke="black" stroke-dasharray="5,2" d="M572.897,-191.016C632.671,-193.149 767.147,-203.216 869.261,-249 909.893,-267.218 948.89,-300.679 975.88,-325.045"/>
<polygon fill="black" stroke="black" points="983.511,-331.972 973.082,-328.583 979.809,-328.611 976.106,-325.251 976.106,-325.251 976.106,-325.251 979.809,-328.611 979.131,-321.919 983.511,-331.972 983.511,-331.972"/>
</g>
<!-- ndOp&#45;&gt;ndVClock -->
<g id="edge87" class="edge"><title>ndOp&#45;&gt;ndVClock</title>
<path fill="none" stroke="black" stroke-dasharray="5,2" d="M573.126,-190.729C635.629,-192.141 779.474,-200.672 887.261,-249 927.544,-267.061 966.221,-300.106 989.576,-324.416"/>
<polygon fill="black" stroke="black" points="996.604,-331.972 986.498,-327.714 993.199,-328.311 989.793,-324.649 989.793,-324.649 989.793,-324.649 993.199,-328.311 993.089,-321.585 996.604,-331.972 996.604,-331.972"/>
</g>
<!-- ndOp&#45;&gt;ndVClock -->
<g id="edge108" class="edge"><title>ndOp&#45;&gt;ndVClock</title>
<path fill="none" stroke="black" stroke-dasharray="5,2" d="M572.968,-190.572C639.848,-191.418 792.341,-198.371 905.261,-249 945.195,-266.905 983.551,-299.535 1003.45,-323.782"/>
<polygon fill="black" stroke="black" points="1009.7,-331.972 1000.05,-326.747 1006.66,-327.995 1003.63,-324.019 1003.63,-324.019 1003.63,-324.019 1006.66,-327.995 1007.21,-321.291 1009.7,-331.972 1009.7,-331.972"/>
</g>
<!-- ndOp&#45;&gt;ndVClock -->
<g id="edge117" class="edge"><title>ndOp&#45;&gt;ndVClock</title>
<path fill="none" stroke="black" stroke-dasharray="5,2" d="M572.963,-190.501C646.484,-190.963 806.154,-196.494 923.261,-249 962.847,-266.749 1000.88,-298.966 1017.51,-323.145"/>
<polygon fill="black" stroke="black" points="1022.79,-331.972 1013.79,-325.702 1020.22,-327.681 1017.65,-323.391 1017.65,-323.391 1017.65,-323.391 1020.22,-327.681 1021.51,-321.08 1022.79,-331.972 1022.79,-331.972"/>
</g>
<!-- ndCmRDTValidation -->
<g id="node5" class="node"><title>ndCmRDTValidation</title>
<polygon fill="yellow" stroke="none" points="1845.26,-419.5 1845.26,-456.5 1989.26,-456.5 1989.26,-419.5 1845.26,-419.5"/>
<polygon fill="none" stroke="black" points="1845.26,-419.5 1845.26,-456.5 1989.26,-456.5 1989.26,-419.5 1845.26,-419.5"/>
<text text-anchor="start" x="1856.26" y="-435.3" font-family="Arial" font-weight="bold" font-size="14.00">CmRDTValidation</text>
<polygon fill="none" stroke="black" points="1844.26,-419 1844.26,-458 1990.26,-458 1990.26,-419 1844.26,-419"/>
</g>
<!-- ndActor -->
<g id="node7" class="node"><title>ndActor</title>
<polygon fill="lightgreen" stroke="none" points="2055.26,-419.5 2055.26,-456.5 2115.26,-456.5 2115.26,-419.5 2055.26,-419.5"/>
<polygon fill="none" stroke="black" points="2055.26,-419.5 2055.26,-456.5 2115.26,-456.5 2115.26,-419.5 2055.26,-419.5"/>
<text text-anchor="start" x="2066.26" y="-435.3" font-family="Arial" font-weight="bold" font-size="14.00">Actor</text>
<polygon fill="none" stroke="black" points="2054.26,-419 2054.26,-458 2116.26,-458 2116.26,-419 2054.26,-419"/>
</g>
<!-- ndCvRDT -->
<g id="node8" class="node"><title>ndCvRDT</title>
<polygon fill="lightgreen" stroke="none" points="507.261,-419.5 507.261,-456.5 578.261,-456.5 578.261,-419.5 507.261,-419.5"/>
<polygon fill="none" stroke="black" points="507.261,-419.5 507.261,-456.5 578.261,-456.5 578.261,-419.5 507.261,-419.5"/>
<text text-anchor="start" x="518.261" y="-435.3" font-family="Arial" font-weight="bold" font-size="14.00">CvRDT</text>
<polygon fill="none" stroke="black" points="505.761,-419 505.761,-458 578.761,-458 578.761,-419 505.761,-419"/>
</g>
<!-- ndCvRDT&#45;&gt;ndOp -->
<g id="edge19" class="edge"><title>ndCvRDT&#45;&gt;ndOp</title>
<path fill="none" stroke="black" stroke-dasharray="5,2" d="M538.148,-414.706C534.864,-370.776 534.648,-274.245 537.497,-223.368"/>
<polygon fill="none" stroke="black" points="541,-223.444 538.152,-213.239 534.014,-222.993 541,-223.444"/>
</g>
<!-- ndCvRDT&#45;&gt;ndOp -->
<g id="edge21" class="edge"><title>ndCvRDT&#45;&gt;ndOp</title>
<path fill="none" stroke="black" stroke-dasharray="5,2" d="M546.374,-414.706C549.658,-370.776 549.875,-274.245 547.025,-223.368"/>
<polygon fill="none" stroke="black" points="550.508,-222.993 546.37,-213.239 543.523,-223.444 550.508,-222.993"/>
</g>
<!-- ndCvRDT&#45;&gt;ndCvRDTValidation -->
<g id="edge13" class="edge"><title>ndCvRDT&#45;&gt;ndCvRDTValidation</title>
<path fill="none" stroke="black" stroke-dasharray="5,2" d="M530.508,-414.883C517.552,-391.696 494.845,-355.759 467.261,-332 440.454,-308.91 414.777,-326.148 396.261,-296 385.329,-278.2 388.117,-268.236 396.261,-249 416.625,-200.906 462.221,-161.137 497.079,-136.137"/>
<polygon fill="none" stroke="black" points="499.509,-138.708 505.689,-130.103 495.491,-132.976 499.509,-138.708"/>
</g>
<!-- ndCvRDT&#45;&gt;ndValidationError -->
<g id="edge14" class="edge"><title>ndCvRDT&#45;&gt;ndValidationError</title>
<path fill="none" stroke="black" stroke-dasharray="5,2" d="M497.491,-430.624C404.148,-413.533 190.819,-359.409 111.261,-213 101.288,-194.646 102.22,-184.831 111.261,-166 116.752,-154.563 125.69,-144.659 135.458,-136.417"/>
<polygon fill="none" stroke="black" points="137.717,-139.093 143.421,-130.166 133.394,-133.587 137.717,-139.093"/>
</g>
<!-- ndCvRDT&#45;&gt;ndGSet -->
<g id="edge15" class="edge"><title>ndCvRDT&#45;&gt;ndGSet</title>
<path fill="none" stroke="black" stroke-dasharray="5,2" d="M497.571,-428.211C467.659,-419.899 429.322,-404.901 404.261,-379 339.076,-311.63 320.009,-196.416 314.483,-140.236"/>
<polygon fill="none" stroke="black" points="317.957,-139.784 313.575,-130.138 310.985,-140.411 317.957,-139.784"/>
</g>
<!-- ndCvRDT&#45;&gt;ndGCounter -->
<g id="edge16" class="edge"><title>ndCvRDT&#45;&gt;ndGCounter</title>
<path fill="none" stroke="black" stroke-dasharray="5,2" d="M587.04,-432.153C632.017,-426.978 703.346,-419.302 765.261,-415 869.752,-407.739 1612.22,-423.025 1707.26,-379 1752.65,-357.977 1765.14,-342.62 1783.26,-296 1804.19,-242.147 1822.83,-208.1 1783.26,-166 1753.12,-133.938 1111.45,-114.55 903.61,-109.094"/>
<polygon fill="none" stroke="black" points="903.548,-105.591 893.46,-108.829 903.365,-112.588 903.548,-105.591"/>
</g>
<!-- ndCvRDT&#45;&gt;ndValidation -->
<g id="edge17" class="edge"><title>ndCvRDT&#45;&gt;ndValidation</title>
<path fill="none" stroke="black" stroke-dasharray="5,2" d="M563.503,-414.844C604.859,-377.565 698.636,-302.133 785.261,-249 816.098,-230.086 839.158,-243.72 858.261,-213 869.292,-195.261 870.438,-182.972 858.261,-166 851.86,-157.079 801.733,-140.684 758.5,-127.515"/>
<polygon fill="none" stroke="black" points="759.417,-124.136 748.831,-124.587 757.388,-130.835 759.417,-124.136"/>
</g>
<!-- ndCvRDT&#45;&gt;ndValidation -->
<g id="edge22" class="edge"><title>ndCvRDT&#45;&gt;ndValidation</title>
<path fill="none" stroke="black" stroke-dasharray="5,2" d="M574.6,-414.844C622.859,-377.565 716.636,-302.133 803.261,-249 834.098,-230.086 857.158,-243.72 876.261,-213 887.292,-195.261 888.438,-182.972 876.261,-166 869.157,-156.098 808.184,-136.989 758.661,-123.304"/>
<polygon fill="none" stroke="black" points="759.498,-119.904 748.929,-120.643 757.652,-126.656 759.498,-119.904"/>
</g>
<!-- ndCvRDT&#45;&gt;ndGList -->
<g id="edge18" class="edge"><title>ndCvRDT&#45;&gt;ndGList</title>
<path fill="none" stroke="black" stroke-dasharray="5,2" d="M500.902,-414.971C462.274,-391.222 407.355,-349.8 385.261,-296 364.076,-244.412 380.114,-178.578 393.395,-139.928"/>
<polygon fill="none" stroke="black" points="396.785,-140.842 396.861,-130.248 390.195,-138.483 396.785,-140.842"/>
</g>
<!-- ndCvRDT&#45;&gt;ndVClock -->
<g id="edge20" class="edge"><title>ndCvRDT&#45;&gt;ndVClock</title>
<path fill="none" stroke="black" stroke-dasharray="5,2" d="M586.833,-430.934C655.111,-420.727 789.637,-400.031 903.261,-379 920.417,-375.825 939.038,-372.06 955.909,-368.528"/>
<polygon fill="none" stroke="black" points="957.097,-371.854 966.16,-366.366 955.653,-365.005 957.097,-371.854"/>
</g>
<!-- ndCmRDT -->
<g id="node9" class="node"><title>ndCmRDT</title>
<polygon fill="lightgreen" stroke="none" points="312.261,-419.5 312.261,-456.5 388.261,-456.5 388.261,-419.5 312.261,-419.5"/>
<polygon fill="none" stroke="black" points="312.261,-419.5 312.261,-456.5 388.261,-456.5 388.261,-419.5 312.261,-419.5"/>
<text text-anchor="start" x="323.261" y="-435.3" font-family="Arial" font-weight="bold" font-size="14.00">CmRDT</text>
<polygon fill="none" stroke="black" points="311.261,-419 311.261,-458 389.261,-458 389.261,-419 311.261,-419"/>
</g>
<!-- ndCmRDT&#45;&gt;ndOp -->
<g id="edge28" class="edge"><title>ndCmRDT&#45;&gt;ndOp</title>
<path fill="none" stroke="black" stroke-dasharray="5,2" d="M333.183,-414.792C322.408,-376.074 327.764,-296.84 369.261,-249 401.261,-212.109 459.806,-198.212 501.395,-193.186"/>
<polygon fill="none" stroke="black" points="502.008,-196.64 511.577,-192.09 501.26,-189.68 502.008,-196.64"/>
</g>
<!-- ndCmRDT&#45;&gt;ndOp -->
<g id="edge30" class="edge"><title>ndCmRDT&#45;&gt;ndOp</title>
<path fill="none" stroke="black" stroke-dasharray="5,2" d="M344.055,-414.792C340.408,-376.074 345.764,-296.84 387.261,-249 415.923,-215.958 465.881,-201.362 501.466,-195.064"/>
<polygon fill="none" stroke="black" points="502.237,-198.485 511.549,-193.432 501.119,-191.575 502.237,-198.485"/>
</g>
<!-- ndCmRDT&#45;&gt;ndOp -->
<g id="edge32" class="edge"><title>ndCmRDT&#45;&gt;ndOp</title>
<path fill="none" stroke="black" stroke-dasharray="5,2" d="M354.926,-414.792C358.408,-376.074 363.764,-296.84 405.261,-249 430.098,-220.368 470.925,-205.586 501.665,-198.053"/>
<polygon fill="none" stroke="black" points="502.697,-201.408 511.666,-195.767 501.137,-194.584 502.697,-201.408"/>
</g>
<!-- ndCmRDT&#45;&gt;ndOp -->
<g id="edge33" class="edge"><title>ndCmRDT&#45;&gt;ndOp</title>
<path fill="none" stroke="black" stroke-dasharray="5,2" d="M365.797,-414.792C376.408,-376.074 381.764,-296.84 423.261,-249 443.966,-225.131 475.784,-210.888 501.944,-202.445"/>
<polygon fill="none" stroke="black" points="503.112,-205.748 511.658,-199.485 501.072,-199.052 503.112,-205.748"/>
</g>
<!-- ndCmRDT&#45;&gt;ndCvRDTValidation -->
<g id="edge23" class="edge"><title>ndCmRDT&#45;&gt;ndCvRDTValidation</title>
<path fill="none" stroke="black" stroke-dasharray="5,2" d="M346.751,-414.627C344.118,-393.098 341.812,-360.06 347.261,-332 362.428,-253.899 359.285,-223.511 414.261,-166 426.726,-152.961 442.647,-142.577 458.994,-134.401"/>
<polygon fill="none" stroke="black" points="460.564,-137.53 468.1,-130.084 457.565,-131.205 460.564,-137.53"/>
</g>
<!-- ndCmRDT&#45;&gt;ndValidationError -->
<g id="edge24" class="edge"><title>ndCmRDT&#45;&gt;ndValidationError</title>
<path fill="none" stroke="black" stroke-dasharray="5,2" d="M303.176,-417.659C300.184,-416.686 297.196,-415.788 294.261,-415 239.839,-400.391 80.169,-421.579 43.2612,-379 -18.7446,-307.466 -9.30995,-244.728 43.2612,-166 56.783,-145.751 78.7599,-132.501 101.382,-123.835"/>
<polygon fill="none" stroke="black" points="102.836,-127.033 111.093,-120.394 100.498,-120.434 102.836,-127.033"/>
</g>
<!-- ndCmRDT&#45;&gt;ndGSet -->
<g id="edge25" class="edge"><title>ndCmRDT&#45;&gt;ndGSet</title>
<path fill="none" stroke="black" stroke-dasharray="5,2" d="M303.117,-417.867C300.14,-416.842 297.171,-415.876 294.261,-415 218.227,-392.106 169.435,-440.546 119.261,-379 58.5002,-304.467 85.6185,-230.143 157.261,-166 193.044,-133.963 216.184,-147.404 265.522,-129.879"/>
<polygon fill="none" stroke="black" points="266.963,-133.075 275.048,-126.228 264.458,-126.538 266.963,-133.075"/>
</g>
<!-- ndCmRDT&#45;&gt;ndGCounter -->
<g id="edge26" class="edge"><title>ndCmRDT&#45;&gt;ndGCounter</title>
<path fill="none" stroke="black" stroke-dasharray="5,2" d="M397.364,-428.63C423.961,-423.921 457.867,-418.417 488.261,-415 626.135,-399.498 1639.42,-399.995 1731.26,-296 1770.37,-251.713 1680.34,-166.647 1679.26,-166 1613.32,-126.445 1088.38,-112.393 903.453,-108.642"/>
<polygon fill="none" stroke="black" points="903.402,-105.141 893.334,-108.44 903.262,-112.139 903.402,-105.141"/>
</g>
<!-- ndCmRDT&#45;&gt;ndValidation -->
<g id="edge27" class="edge"><title>ndCmRDT&#45;&gt;ndValidation</title>
<path fill="none" stroke="black" stroke-dasharray="5,2" d="M389.759,-414.903C456.677,-377.212 597.272,-300.57 722.261,-249 770.204,-229.219 802.766,-254.95 833.261,-213 845.544,-196.104 844.817,-183.401 833.261,-166 824.171,-152.312 790.581,-137.984 758.7,-126.933"/>
<polygon fill="none" stroke="black" points="759.484,-123.504 748.889,-123.613 757.24,-130.134 759.484,-123.504"/>
</g>
<!-- ndCmRDT&#45;&gt;ndGList -->
<g id="edge29" class="edge"><title>ndCmRDT&#45;&gt;ndGList</title>
<path fill="none" stroke="black" stroke-dasharray="5,2" d="M303.252,-418.481C300.214,-417.292 297.197,-416.123 294.261,-415 250.533,-398.27 222.121,-417.348 195.261,-379 162.114,-331.676 182.953,-305.452 195.261,-249 203.904,-209.36 202.518,-192.474 233.261,-166 277.07,-128.274 304.141,-150.332 358.261,-130 358.358,-129.964 358.455,-129.927 358.552,-129.89"/>
<polygon fill="none" stroke="black" points="359.74,-133.185 367.714,-126.209 357.13,-126.69 359.74,-133.185"/>
</g>
<!-- ndCmRDT&#45;&gt;ndVClock -->
<g id="edge31" class="edge"><title>ndCmRDT&#45;&gt;ndVClock</title>
<path fill="none" stroke="black" stroke-dasharray="5,2" d="M397.398,-428.915C424.006,-424.295 457.91,-418.785 488.261,-415 671.975,-392.088 720.093,-405.927 903.261,-379 920.444,-376.474 939.005,-372.914 955.811,-369.37"/>
<polygon fill="none" stroke="black" points="956.98,-372.699 966.021,-367.175 955.509,-365.856 956.98,-372.699"/>
</g>
<!-- ndResetRemove -->
<g id="node10" class="node"><title>ndResetRemove</title>
<polygon fill="lightgreen" stroke="none" points="783.261,-419.5 783.261,-456.5 901.261,-456.5 901.261,-419.5 783.261,-419.5"/>
<polygon fill="none" stroke="black" points="783.261,-419.5 783.261,-456.5 901.261,-456.5 901.261,-419.5 783.261,-419.5"/>
<text text-anchor="start" x="794.261" y="-435.3" font-family="Arial" font-weight="bold" font-size="14.00">ResetRemove</text>
<polygon fill="none" stroke="black" points="782.261,-419 782.261,-458 902.261,-458 902.261,-419 782.261,-419"/>
</g>
<!-- ndResetRemove&#45;&gt;ndOp -->
<g id="edge34" class="edge"><title>ndResetRemove&#45;&gt;ndOp</title>
<path fill="none" stroke="black" stroke-dasharray="5,2" d="M773.9,-432.127C728.74,-425.558 671.325,-411.029 631.261,-379 604.438,-357.556 561.473,-270.873 545.541,-222.876"/>
<polygon fill="none" stroke="black" points="548.865,-221.779 542.567,-213.259 542.178,-223.847 548.865,-221.779"/>
</g>
<!-- ndResetRemove&#45;&gt;ndOp -->
<g id="edge36" class="edge"><title>ndResetRemove&#45;&gt;ndOp</title>
<path fill="none" stroke="black" stroke-dasharray="5,2" d="M773.86,-429.591C734.027,-422.063 684.813,-407.422 649.261,-379 622.382,-357.511 579.293,-270.51 556.877,-222.576"/>
<polygon fill="none" stroke="black" points="559.937,-220.855 552.551,-213.259 553.588,-223.803 559.937,-220.855"/>
</g>
<!-- ndResetRemove&#45;&gt;ndOp -->
<g id="edge38" class="edge"><title>ndResetRemove&#45;&gt;ndOp</title>
<path fill="none" stroke="black" stroke-dasharray="5,2" d="M774.255,-426.258C739.389,-417.998 698.164,-403.705 667.261,-379 640.27,-357.422 596.933,-269.782 567.951,-221.977"/>
<polygon fill="none" stroke="black" points="570.784,-219.906 562.534,-213.259 564.839,-223.6 570.784,-219.906"/>
</g>
<!-- ndResetRemove&#45;&gt;ndGCounter -->
<g id="edge35" class="edge"><title>ndResetRemove&#45;&gt;ndGCounter</title>
<path fill="none" stroke="black" stroke-dasharray="5,2" d="M910.621,-437.436C1120.6,-436.688 1746.59,-430.147 1821.26,-379 1860.93,-351.829 1892.27,-200.958 1859.26,-166 1826.37,-131.169 1122.38,-113.46 903.564,-108.783"/>
<polygon fill="none" stroke="black" points="903.588,-105.283 893.516,-108.571 903.44,-112.282 903.588,-105.283"/>
</g>
<!-- ndResetRemove&#45;&gt;ndValidation -->
<g id="edge39" class="edge"><title>ndResetRemove&#45;&gt;ndValidation</title>
<path fill="none" stroke="black" stroke-dasharray="5,2" d="M910.271,-437.944C1104.53,-438.524 1651.56,-435.115 1707.26,-379 1748,-337.965 1733.38,-302.824 1712.26,-249 1693.88,-202.159 1680.95,-187.085 1635.26,-166 1548.52,-125.97 870.647,-144.733 776.261,-130 770.561,-129.11 764.691,-127.968 758.835,-126.671"/>
<polygon fill="none" stroke="black" points="759.562,-123.246 749.026,-124.359 757.956,-130.06 759.562,-123.246"/>
</g>
<!-- ndResetRemove&#45;&gt;ndVClock -->
<g id="edge37" class="edge"><title>ndResetRemove&#45;&gt;ndVClock</title>
<path fill="none" stroke="black" stroke-dasharray="5,2" d="M889.337,-414.937C910.36,-404.861 935.256,-392.929 957.053,-382.482"/>
<polygon fill="none" stroke="black" points="958.679,-385.583 966.184,-378.105 955.653,-379.271 958.679,-385.583"/>
</g>
<!-- ndReadCtx -->
<g id="node11" class="node"><title>ndReadCtx</title>
<polygon fill="lightblue" stroke="none" points="1025.26,-253.5 1025.26,-290.5 1106.26,-290.5 1106.26,-253.5 1025.26,-253.5"/>
<polygon fill="none" stroke="black" points="1025.26,-253.5 1025.26,-290.5 1106.26,-290.5 1106.26,-253.5 1025.26,-253.5"/>
<text text-anchor="start" x="1036.26" y="-269.3" font-family="Arial" font-weight="bold" font-size="14.00">ReadCtx</text>
<polygon fill="none" stroke="black" points="1023.76,-253 1023.76,-292 1106.76,-292 1106.76,-253 1023.76,-253"/>
</g>
<!-- ndReadCtx&#45;&gt;ndOp -->
<g id="edge42" class="edge"><title>ndReadCtx&#45;&gt;ndOp</title>
<path fill="none" stroke="black" d="M1015.6,-252.9C1010.8,-251.445 1005.96,-250.112 1001.26,-249 849.577,-213.097 664.137,-198.012 583.255,-192.812"/>
<polygon fill="black" stroke="black" points="573.005,-192.171 583.267,-188.305 577.996,-192.483 582.986,-192.796 582.986,-192.796 582.986,-192.796 577.996,-192.483 582.705,-197.287 573.005,-192.171 573.005,-192.171"/>
</g>
<!-- ndReadCtx&#45;&gt;ndCvRDTValidation -->
<g id="edge40" class="edge"><title>ndReadCtx&#45;&gt;ndCvRDTValidation</title>
<path fill="none" stroke="black" d="M1024.17,-248.976C978.744,-224.995 902.771,-187.59 833.261,-166 748.746,-139.75 721.667,-148.686 631.198,-130.098"/>
<polygon fill="black" stroke="black" points="621.349,-128.019 632.063,-125.682 626.241,-129.052 631.133,-130.085 631.133,-130.085 631.133,-130.085 626.241,-129.052 630.204,-134.488 621.349,-128.019 621.349,-128.019"/>
</g>
<!-- ndRmCtx -->
<g id="node13" class="node"><title>ndRmCtx</title>
<polygon fill="lightblue" stroke="none" points="1549.26,-170.5 1549.26,-207.5 1617.26,-207.5 1617.26,-170.5 1549.26,-170.5"/>
<polygon fill="none" stroke="black" points="1549.26,-170.5 1549.26,-207.5 1617.26,-207.5 1617.26,-170.5 1549.26,-170.5"/>
<text text-anchor="start" x="1560.26" y="-186.3" font-family="Arial" font-weight="bold" font-size="14.00">RmCtx</text>
<polygon fill="none" stroke="black" points="1548.26,-170 1548.26,-209 1618.26,-209 1618.26,-170 1548.26,-170"/>
</g>
<!-- ndReadCtx&#45;&gt;ndRmCtx -->
<g id="edge41" class="edge"><title>ndReadCtx&#45;&gt;ndRmCtx</title>
<path fill="none" stroke="black" d="M1115,-251.32C1117.77,-250.472 1120.54,-249.69 1123.26,-249 1267.61,-212.406 1443.53,-198.152 1530.03,-193.06"/>
<polygon fill="black" stroke="black" points="1540.12,-192.483 1530.39,-197.546 1535.13,-192.768 1530.14,-193.053 1530.14,-193.053 1530.14,-193.053 1535.13,-192.768 1529.88,-188.561 1540.12,-192.483 1540.12,-192.483"/>
</g>
<!-- ndReadCtx&#45;&gt;ndValidation -->
<g id="edge43" class="edge"><title>ndReadCtx&#45;&gt;ndValidation</title>
<path fill="none" stroke="black" d="M1049.36,-248.59C1031.05,-224.089 998.657,-186.061 961.261,-166 887.447,-126.403 857.82,-149.096 776.261,-130 770.552,-128.663 764.641,-127.2 758.727,-125.681"/>
<polygon fill="black" stroke="black" points="748.809,-123.085 759.622,-121.264 753.646,-124.351 758.483,-125.617 758.483,-125.617 758.483,-125.617 753.646,-124.351 757.343,-129.97 748.809,-123.085 748.809,-123.085"/>
</g>
<!-- ndAddCtx -->
<g id="node12" class="node"><title>ndAddCtx</title>
<polygon fill="lightblue" stroke="none" points="1620.26,-253.5 1620.26,-290.5 1694.26,-290.5 1694.26,-253.5 1620.26,-253.5"/>
<polygon fill="none" stroke="black" points="1620.26,-253.5 1620.26,-290.5 1694.26,-290.5 1694.26,-253.5 1620.26,-253.5"/>
<text text-anchor="start" x="1631.26" y="-269.3" font-family="Arial" font-weight="bold" font-size="14.00">AddCtx</text>
<polygon fill="none" stroke="black" points="1619.26,-253 1619.26,-292 1695.26,-292 1695.26,-253 1619.26,-253"/>
</g>
<!-- ndAddCtx&#45;&gt;ndRmCtx -->
<g id="edge44" class="edge"><title>ndAddCtx&#45;&gt;ndRmCtx</title>
<path fill="none" stroke="black" d="M1636.65,-248.937C1628.7,-240.233 1619.48,-230.144 1610.96,-220.824"/>
<polygon fill="black" stroke="black" points="1604.02,-213.223 1614.09,-217.571 1607.39,-216.914 1610.77,-220.606 1610.77,-220.606 1610.77,-220.606 1607.39,-216.914 1607.44,-223.641 1604.02,-213.223 1604.02,-213.223"/>
</g>
<!-- ndNode -->
<g id="node14" class="node"><title>ndNode</title>
<polygon fill="lightblue" stroke="none" points="2167.26,-419.5 2167.26,-456.5 2226.26,-456.5 2226.26,-419.5 2167.26,-419.5"/>
<polygon fill="none" stroke="black" points="2167.26,-419.5 2167.26,-456.5 2226.26,-456.5 2226.26,-419.5 2167.26,-419.5"/>
<text text-anchor="start" x="2178.26" y="-435.3" font-family="Arial" font-weight="bold" font-size="14.00">Node</text>
<polygon fill="none" stroke="black" points="2165.76,-419 2165.76,-458 2226.76,-458 2226.76,-419 2165.76,-419"/>
</g>
<!-- ndMerkleReg -->
<g id="node16" class="node"><title>ndMerkleReg</title>
<polygon fill="lightblue" stroke="none" points="2200.26,-336.5 2200.26,-373.5 2297.26,-373.5 2297.26,-336.5 2200.26,-336.5"/>
<polygon fill="none" stroke="black" points="2200.26,-336.5 2200.26,-373.5 2297.26,-373.5 2297.26,-336.5 2200.26,-336.5"/>
<text text-anchor="start" x="2211.26" y="-352.3" font-family="Arial" font-weight="bold" font-size="14.00">MerkleReg</text>
<polygon fill="none" stroke="black" points="2198.76,-336 2198.76,-375 2297.76,-375 2297.76,-336 2198.76,-336"/>
</g>
<!-- ndNode&#45;&gt;ndMerkleReg -->
<g id="edge45" class="edge"><title>ndNode&#45;&gt;ndMerkleReg</title>
<path fill="none" stroke="black" d="M2210.75,-414.937C2216.17,-406.494 2222.42,-396.748 2228.25,-387.665"/>
<polygon fill="black" stroke="black" points="2233.67,-379.223 2232.06,-390.069 2230.97,-383.431 2228.27,-387.638 2228.27,-387.638 2228.27,-387.638 2230.97,-383.431 2224.48,-385.207 2233.67,-379.223 2233.67,-379.223"/>
</g>
<!-- ndContent -->
<g id="node15" class="node"><title>ndContent</title>
<polygon fill="lightblue" stroke="none" points="2262.26,-419.5 2262.26,-456.5 2339.26,-456.5 2339.26,-419.5 2262.26,-419.5"/>
<polygon fill="none" stroke="black" points="2262.26,-419.5 2262.26,-456.5 2339.26,-456.5 2339.26,-419.5 2262.26,-419.5"/>
<text text-anchor="start" x="2273.26" y="-435.3" font-family="Arial" font-weight="bold" font-size="14.00">Content</text>
<polygon fill="none" stroke="black" points="2260.76,-419 2260.76,-458 2339.76,-458 2339.76,-419 2260.76,-419"/>
</g>
<!-- ndContent&#45;&gt;ndMerkleReg -->
<g id="edge46" class="edge"><title>ndContent&#45;&gt;ndMerkleReg</title>
<path fill="none" stroke="black" d="M2285.78,-414.937C2280.36,-406.494 2274.1,-396.748 2268.27,-387.665"/>
<polygon fill="black" stroke="black" points="2262.85,-379.223 2272.04,-385.207 2265.55,-383.431 2268.25,-387.638 2268.25,-387.638 2268.25,-387.638 2265.55,-383.431 2264.46,-390.069 2262.85,-379.223 2262.85,-379.223"/>
</g>
<!-- ndSha3Hash -->
<g id="node18" class="node"><title>ndSha3Hash</title>
<polygon fill="lightgreen" stroke="none" points="2375.26,-419.5 2375.26,-456.5 2468.26,-456.5 2468.26,-419.5 2375.26,-419.5"/>
<polygon fill="none" stroke="black" points="2375.26,-419.5 2375.26,-456.5 2468.26,-456.5 2468.26,-419.5 2375.26,-419.5"/>
<text text-anchor="start" x="2386.26" y="-435.3" font-family="Arial" font-weight="bold" font-size="14.00">Sha3Hash</text>
<polygon fill="none" stroke="black" points="2373.76,-419 2373.76,-458 2468.76,-458 2468.76,-419 2373.76,-419"/>
</g>
<!-- ndPNCounter -->
<g id="node34" class="node"><title>ndPNCounter</title>
<polygon fill="lightblue" stroke="none" points="790.261,-4.5 790.261,-41.5 888.261,-41.5 888.261,-4.5 790.261,-4.5"/>
<polygon fill="none" stroke="black" points="790.261,-4.5 790.261,-41.5 888.261,-41.5 888.261,-4.5 790.261,-4.5"/>
<text text-anchor="start" x="801.261" y="-20.3" font-family="Arial" font-weight="bold" font-size="14.00">PNCounter</text>
<polygon fill="none" stroke="black" points="789.261,-4 789.261,-43 889.261,-43 889.261,-4 789.261,-4"/>
</g>
<!-- ndGCounter&#45;&gt;ndPNCounter -->
<g id="edge47" class="edge"><title>ndGCounter&#45;&gt;ndPNCounter</title>
<path fill="none" stroke="black" d="M839.261,-82.937C839.261,-75.6257 839.261,-67.3371 839.261,-59.3477"/>
<polygon fill="black" stroke="black" points="839.261,-59.2229 835.261,-53.223 839.261,-47.2229 843.261,-53.2229 839.261,-59.2229"/>
</g>
<!-- ndDot -->
<g id="node21" class="node"><title>ndDot</title>
<polygon fill="lightblue" stroke="none" points="1746.26,-419.5 1746.26,-456.5 1793.26,-456.5 1793.26,-419.5 1746.26,-419.5"/>
<polygon fill="none" stroke="black" points="1746.26,-419.5 1746.26,-456.5 1793.26,-456.5 1793.26,-419.5 1746.26,-419.5"/>
<text text-anchor="start" x="1757.26" y="-435.3" font-family="Arial" font-weight="bold" font-size="14.00">Dot</text>
<polygon fill="none" stroke="black" points="1744.76,-419 1744.76,-458 1793.76,-458 1793.76,-419 1744.76,-419"/>
</g>
<!-- ndDot&#45;&gt;ndOp -->
<g id="edge51" class="edge"><title>ndDot&#45;&gt;ndOp</title>
<path fill="none" stroke="black" d="M1736.65,-436.726C1576.19,-432.607 875.874,-412.187 785.261,-379 760.896,-370.076 633.923,-270.595 573.722,-219.871"/>
<polygon fill="black" stroke="black" points="566.032,-213.346 576.569,-216.385 569.845,-216.581 573.657,-219.816 573.657,-219.816 573.657,-219.816 569.845,-216.581 570.746,-223.247 566.032,-213.346 566.032,-213.346"/>
</g>
<!-- ndDot&#45;&gt;ndOp -->
<g id="edge54" class="edge"><title>ndDot&#45;&gt;ndOp</title>
<path fill="none" stroke="black" d="M1736.66,-436.577C1578.12,-432.135 892.829,-411.804 803.261,-379 778.74,-370.019 650.295,-269.319 583.078,-218.904"/>
<polygon fill="black" stroke="black" points="582.85,-218.733 575.649,-218.35 573.232,-211.556 580.433,-211.939 582.85,-218.733"/>
</g>
<!-- ndDot&#45;&gt;ndAddCtx -->
<g id="edge48" class="edge"><title>ndDot&#45;&gt;ndAddCtx</title>
<path fill="none" stroke="black" d="M1753.69,-414.697C1734.46,-386.546 1701.63,-338.465 1679.69,-306.341"/>
<polygon fill="black" stroke="black" points="1679.47,-306.019 1672.78,-303.321 1672.7,-296.11 1679.39,-298.809 1679.47,-306.019"/>
</g>
<!-- ndDot&#45;&gt;ndGCounter -->
<g id="edge49" class="edge"><title>ndDot&#45;&gt;ndGCounter</title>
<path fill="none" stroke="black" d="M1802,-423.49C1810.15,-420.37 1818.93,-417.307 1827.26,-415 1872.68,-402.415 2005.9,-415.042 2036.26,-379 2118.82,-281.005 2058.1,-248.919 1880.26,-166 1791.99,-124.842 1116.35,-111.54 903.358,-108.347"/>
<polygon fill="black" stroke="black" points="893.27,-108.198 903.335,-103.846 898.27,-108.272 903.269,-108.346 903.269,-108.346 903.269,-108.346 898.27,-108.272 903.203,-112.845 893.27,-108.198 893.27,-108.198"/>
</g>
<!-- ndCausalityBarrier -->
<g id="node26" class="node"><title>ndCausalityBarrier</title>
<polygon fill="lightblue" stroke="none" points="1882.26,-336.5 1882.26,-373.5 2018.26,-373.5 2018.26,-336.5 1882.26,-336.5"/>
<polygon fill="none" stroke="black" points="1882.26,-336.5 1882.26,-373.5 2018.26,-373.5 2018.26,-336.5 1882.26,-336.5"/>
<text text-anchor="start" x="1893.26" y="-352.3" font-family="Arial" font-weight="bold" font-size="14.00">CausalityBarrier</text>
<polygon fill="none" stroke="black" points="1881.26,-336 1881.26,-375 2019.26,-375 2019.26,-336 1881.26,-336"/>
</g>
<!-- ndDot&#45;&gt;ndCausalityBarrier -->
<g id="edge50" class="edge"><title>ndDot&#45;&gt;ndCausalityBarrier</title>
<path fill="none" stroke="black" d="M1802.04,-422.832C1826.14,-412.045 1859.62,-397.064 1888.66,-384.067"/>
<polygon fill="black" stroke="black" points="1889.01,-383.913 1892.85,-377.811 1899.96,-379.011 1896.12,-385.113 1889.01,-383.913"/>
</g>
<!-- ndDot&#45;&gt;ndVClock -->
<g id="edge52" class="edge"><title>ndDot&#45;&gt;ndVClock</title>
<path fill="none" stroke="black" d="M1736.69,-434.02C1619.08,-421.452 1215.46,-378.321 1066.8,-362.435"/>
<polygon fill="black" stroke="black" points="1056.55,-361.339 1066.97,-357.927 1061.52,-361.871 1066.49,-362.402 1066.49,-362.402 1066.49,-362.402 1061.52,-361.871 1066.01,-366.877 1056.55,-361.339 1056.55,-361.339"/>
</g>
<!-- ndIntoIter -->
<g id="node33" class="node"><title>ndIntoIter</title>
<polygon fill="lightblue" stroke="none" points="2093.26,-336.5 2093.26,-373.5 2164.26,-373.5 2164.26,-336.5 2093.26,-336.5"/>
<polygon fill="none" stroke="black" points="2093.26,-336.5 2093.26,-373.5 2164.26,-373.5 2164.26,-336.5 2093.26,-336.5"/>
<text text-anchor="start" x="2104.26" y="-352.3" font-family="Arial" font-weight="bold" font-size="14.00">IntoIter</text>
<polygon fill="none" stroke="black" points="2091.76,-336 2091.76,-375 2164.76,-375 2164.76,-336 2091.76,-336"/>
</g>
<!-- ndDot&#45;&gt;ndIntoIter -->
<g id="edge53" class="edge"><title>ndDot&#45;&gt;ndIntoIter</title>
<path fill="none" stroke="black" d="M1801.97,-423.355C1810.11,-420.239 1818.91,-417.212 1827.26,-415 1932.38,-387.164 1964.07,-406.535 2069.26,-379 2070.72,-378.618 2072.19,-378.213 2073.67,-377.787"/>
<polygon fill="black" stroke="black" points="2083.49,-374.722 2075.29,-381.997 2078.72,-376.211 2073.95,-377.701 2073.95,-377.701 2073.95,-377.701 2078.72,-376.211 2072.6,-373.406 2083.49,-374.722 2083.49,-374.722"/>
</g>
<!-- ndOrdDot -->
<g id="node22" class="node"><title>ndOrdDot</title>
<polygon fill="lightblue" stroke="none" points="813.261,-336.5 813.261,-373.5 886.261,-373.5 886.261,-336.5 813.261,-336.5"/>
<polygon fill="none" stroke="black" points="813.261,-336.5 813.261,-373.5 886.261,-373.5 886.261,-336.5 813.261,-336.5"/>
<text text-anchor="start" x="824.261" y="-352.3" font-family="Arial" font-weight="bold" font-size="14.00">OrdDot</text>
<polygon fill="none" stroke="black" points="811.761,-336 811.761,-375 886.761,-375 886.761,-336 811.761,-336"/>
</g>
<!-- ndOrdDot&#45;&gt;ndOp -->
<g id="edge56" class="edge"><title>ndOrdDot&#45;&gt;ndOp</title>
<path fill="none" stroke="black" d="M820.749,-331.921C790.773,-308.931 741.615,-273.305 695.261,-249 658.558,-229.756 614.062,-213.464 582.539,-203"/>
<polygon fill="black" stroke="black" points="572.787,-199.811 583.69,-198.642 577.539,-201.365 582.292,-202.919 582.292,-202.919 582.292,-202.919 577.539,-201.365 580.893,-207.196 572.787,-199.811 572.787,-199.811"/>
</g>
<!-- ndList -->
<g id="node29" class="node"><title>ndList</title>
<polygon fill="lightblue" stroke="none" points="812.261,-253.5 812.261,-290.5 860.261,-290.5 860.261,-253.5 812.261,-253.5"/>
<polygon fill="none" stroke="black" points="812.261,-253.5 812.261,-290.5 860.261,-290.5 860.261,-253.5 812.261,-253.5"/>
<text text-anchor="start" x="823.261" y="-269.3" font-family="Arial" font-weight="bold" font-size="14.00">List</text>
<polygon fill="none" stroke="black" points="811.261,-253 811.261,-292 861.261,-292 861.261,-253 811.261,-253"/>
</g>
<!-- ndOrdDot&#45;&gt;ndList -->
<g id="edge55" class="edge"><title>ndOrdDot&#45;&gt;ndList</title>
<path fill="none" stroke="black" d="M845.64,-331.937C844.467,-324.626 843.136,-316.337 841.854,-308.348"/>
<polygon fill="black" stroke="black" points="841.81,-308.071 836.909,-302.781 839.908,-296.223 844.808,-301.513 841.81,-308.071"/>
</g>
<!-- ndDotRange -->
<g id="node23" class="node"><title>ndDotRange</title>
<polygon fill="lightblue" stroke="none" points="2504.26,-419.5 2504.26,-456.5 2595.26,-456.5 2595.26,-419.5 2504.26,-419.5"/>
<polygon fill="none" stroke="black" points="2504.26,-419.5 2504.26,-456.5 2595.26,-456.5 2595.26,-419.5 2504.26,-419.5"/>
<text text-anchor="start" x="2515.26" y="-435.3" font-family="Arial" font-weight="bold" font-size="14.00">DotRange</text>
<polygon fill="none" stroke="black" points="2502.76,-419 2502.76,-458 2595.76,-458 2595.76,-419 2502.76,-419"/>
</g>
<!-- ndLWWReg -->
<g id="node24" class="node"><title>ndLWWReg</title>
<polygon fill="lightblue" stroke="none" points="2631.26,-419.5 2631.26,-456.5 2714.26,-456.5 2714.26,-419.5 2631.26,-419.5"/>
<polygon fill="none" stroke="black" points="2631.26,-419.5 2631.26,-456.5 2714.26,-456.5 2714.26,-419.5 2631.26,-419.5"/>
<text text-anchor="start" x="2642.26" y="-435.3" font-family="Arial" font-weight="bold" font-size="14.00">LWWReg</text>
<polygon fill="none" stroke="black" points="2629.76,-419 2629.76,-458 2714.76,-458 2714.76,-419 2629.76,-419"/>
</g>
<!-- ndValidation&#45;&gt;ndValidation -->
<g id="edge119" class="edge"><title>ndValidation&#45;&gt;ndValidation</title>
<path fill="none" stroke="black" d="M748.957,-121.139C759.386,-119.388 766.761,-114.508 766.761,-106.5 766.761,-101.37 763.734,-97.5237 758.817,-94.9612"/>
<polygon fill="black" stroke="black" points="748.957,-91.8607 759.847,-90.5678 753.727,-93.3606 758.497,-94.8606 758.497,-94.8606 758.497,-94.8606 753.727,-93.3606 757.147,-99.1533 748.957,-91.8607 748.957,-91.8607"/>
</g>
<!-- ndVectorEntry -->
<g id="node27" class="node"><title>ndVectorEntry</title>
<polygon fill="lightblue" stroke="none" points="2750.26,-419.5 2750.26,-456.5 2855.26,-456.5 2855.26,-419.5 2750.26,-419.5"/>
<polygon fill="none" stroke="black" points="2750.26,-419.5 2750.26,-456.5 2855.26,-456.5 2855.26,-419.5 2750.26,-419.5"/>
<text text-anchor="start" x="2761.26" y="-435.3" font-family="Arial" font-weight="bold" font-size="14.00">VectorEntry</text>
<polygon fill="none" stroke="black" points="2748.76,-419 2748.76,-458 2855.76,-458 2855.76,-419 2748.76,-419"/>
</g>
<!-- ndCausalOp -->
<g id="node28" class="node"><title>ndCausalOp</title>
<polygon fill="lightgreen" stroke="none" points="2757.26,-336.5 2757.26,-373.5 2848.26,-373.5 2848.26,-336.5 2757.26,-336.5"/>
<polygon fill="none" stroke="black" points="2757.26,-336.5 2757.26,-373.5 2848.26,-373.5 2848.26,-336.5 2757.26,-336.5"/>
<text text-anchor="start" x="2768.26" y="-352.3" font-family="Arial" font-weight="bold" font-size="14.00">CausalOp</text>
<polygon fill="none" stroke="black" points="2755.76,-336 2755.76,-375 2848.76,-375 2848.76,-336 2755.76,-336"/>
</g>
<!-- ndVectorEntry&#45;&gt;ndCausalOp -->
<g id="edge57" class="edge"><title>ndVectorEntry&#45;&gt;ndCausalOp</title>
<path fill="none" stroke="black" d="M2802.26,-414.937C2802.26,-407.016 2802.26,-397.949 2802.26,-389.357"/>
<polygon fill="black" stroke="black" points="2802.26,-379.223 2806.76,-389.223 2802.26,-384.223 2802.26,-389.223 2802.26,-389.223 2802.26,-389.223 2802.26,-384.223 2797.76,-389.223 2802.26,-379.223 2802.26,-379.223"/>
</g>
<!-- ndMVReg -->
<g id="node31" class="node"><title>ndMVReg</title>
<polygon fill="lightblue" stroke="none" points="1474.26,-253.5 1474.26,-290.5 1546.26,-290.5 1546.26,-253.5 1474.26,-253.5"/>
<polygon fill="none" stroke="black" points="1474.26,-253.5 1474.26,-290.5 1546.26,-290.5 1546.26,-253.5 1474.26,-253.5"/>
<text text-anchor="start" x="1485.26" y="-269.3" font-family="Arial" font-weight="bold" font-size="14.00">MVReg</text>
<polygon fill="none" stroke="black" points="1473.26,-253 1473.26,-292 1547.26,-292 1547.26,-253 1473.26,-253"/>
</g>
<!-- ndVClock&#45;&gt;ndMap -->
<g id="edge91" class="edge"><title>ndVClock&#45;&gt;ndMap</title>
<path fill="none" stroke="black" d="M1056.55,-345.366C1099.35,-336.111 1165.33,-320.232 1230.41,-296.336"/>
<polygon fill="black" stroke="black" points="1230.46,-296.319 1234.67,-290.468 1241.7,-292.108 1237.48,-297.959 1230.46,-296.319"/>
</g>
<!-- ndVClock&#45;&gt;ndEntry -->
<g id="edge92" class="edge"><title>ndVClock&#45;&gt;ndEntry</title>
<path fill="none" stroke="black" d="M1056.51,-349.474C1115.33,-342.184 1221.1,-326.482 1319.37,-296.19"/>
<polygon fill="black" stroke="black" points="1319.56,-296.131 1324.08,-290.512 1331.01,-292.523 1326.49,-298.142 1319.56,-296.131"/>
</g>
<!-- ndVClock&#45;&gt;ndReadCtx -->
<g id="edge93" class="edge"><title>ndVClock&#45;&gt;ndReadCtx</title>
<path fill="none" stroke="black" d="M1026.3,-331.937C1031.58,-324.016 1037.63,-314.949 1043.36,-306.357"/>
<polygon fill="black" stroke="black" points="1043.46,-306.208 1043.46,-298.996 1050.11,-296.223 1050.11,-303.434 1043.46,-306.208"/>
</g>
<!-- ndVClock&#45;&gt;ndAddCtx -->
<g id="edge94" class="edge"><title>ndVClock&#45;&gt;ndAddCtx</title>
<path fill="none" stroke="black" d="M1056.38,-353.956C1155.54,-351.904 1399.37,-342.155 1597.26,-296 1597.97,-295.834 1598.69,-295.662 1599.4,-295.484"/>
<polygon fill="black" stroke="black" points="1599.57,-295.436 1604.25,-289.949 1611.12,-292.157 1606.44,-297.644 1599.57,-295.436"/>
</g>
<!-- ndVClock&#45;&gt;ndRmCtx -->
<g id="edge95" class="edge"><title>ndVClock&#45;&gt;ndRmCtx</title>
<path fill="none" stroke="black" d="M1056.6,-352.782C1182.11,-347.603 1527.32,-330.347 1564.26,-296 1583.24,-278.358 1587.19,-248.703 1586.85,-225.319"/>
<polygon fill="black" stroke="black" points="1586.84,-225.076 1582.57,-219.266 1586.29,-213.089 1590.56,-218.899 1586.84,-225.076"/>
</g>
<!-- ndVClock&#45;&gt;ndGCounter -->
<g id="edge96" class="edge"><title>ndVClock&#45;&gt;ndGCounter</title>
<path fill="none" stroke="black" d="M1056.28,-354.194C1204.12,-352.726 1667.84,-344.279 1712.26,-296 1726.4,-280.627 1719.89,-268.445 1712.26,-249 1693.88,-202.159 1680.61,-187.802 1635.26,-166 1570.29,-134.764 1084.9,-115.653 905.582,-109.596"/>
<polygon fill="black" stroke="black" points="905.455,-109.592 899.325,-113.389 893.462,-109.191 899.592,-105.394 905.455,-109.592"/>
</g>
<!-- ndVClock&#45;&gt;ndValidation -->
<g id="edge100" class="edge"><title>ndVClock&#45;&gt;ndValidation</title>
<path fill="none" stroke="black" d="M1056.61,-355.076C1152.72,-355.225 1371.86,-349.544 1418.26,-296 1431.94,-280.214 1431.5,-265.157 1418.26,-249 1326.3,-136.769 918.103,-160.559 776.261,-130 770.622,-128.785 764.793,-127.417 758.965,-125.97"/>
<polygon fill="black" stroke="black" points="749.19,-123.475 759.992,-121.588 754.034,-124.712 758.879,-125.948 758.879,-125.948 758.879,-125.948 754.034,-124.712 757.766,-130.308 749.19,-123.475 749.19,-123.475"/>
</g>
<!-- ndVClock&#45;&gt;ndList -->
<g id="edge97" class="edge"><title>ndVClock&#45;&gt;ndList</title>
<path fill="none" stroke="black" d="M966.15,-334.119C941.592,-322.965 910.704,-308.838 883.261,-296 882.275,-295.539 881.278,-295.071 880.273,-294.599"/>
<polygon fill="black" stroke="black" points="880.198,-294.563 873.063,-295.613 869.35,-289.431 876.484,-288.381 880.198,-294.563"/>
</g>
<!-- ndVClock&#45;&gt;ndMVReg -->
<g id="edge98" class="edge"><title>ndVClock&#45;&gt;ndMVReg</title>
<path fill="none" stroke="black" d="M1056.57,-351.951C1137.08,-346.657 1309.89,-331.834 1451.26,-296 1451.98,-295.819 1452.69,-295.632 1453.41,-295.44"/>
<polygon fill="black" stroke="black" points="1453.69,-295.355 1458.29,-289.798 1465.19,-291.903 1460.59,-297.46 1453.69,-295.355"/>
</g>
<!-- ndOrswot -->
<g id="node36" class="node"><title>ndOrswot</title>
<polygon fill="lightblue" stroke="none" points="1142.26,-253.5 1142.26,-290.5 1215.26,-290.5 1215.26,-253.5 1142.26,-253.5"/>
<polygon fill="none" stroke="black" points="1142.26,-253.5 1142.26,-290.5 1215.26,-290.5 1215.26,-253.5 1142.26,-253.5"/>
<text text-anchor="start" x="1153.26" y="-269.3" font-family="Arial" font-weight="bold" font-size="14.00">Orswot</text>
<polygon fill="none" stroke="black" points="1140.76,-253 1140.76,-292 1215.76,-292 1215.76,-253 1140.76,-253"/>
</g>
<!-- ndVClock&#45;&gt;ndOrswot -->
<g id="edge99" class="edge"><title>ndVClock&#45;&gt;ndOrswot</title>
<path fill="none" stroke="black" d="M1056.45,-332.58C1076.61,-322.805 1100.56,-311.187 1121.87,-300.85"/>
<polygon fill="black" stroke="black" points="1121.95,-300.815 1125.6,-294.597 1132.74,-295.578 1129.09,-301.795 1121.95,-300.815"/>
</g>
<!-- ndDir -->
<g id="node35" class="node"><title>ndDir</title>
<polygon fill="yellow" stroke="none" points="415.261,-253.5 415.261,-290.5 458.261,-290.5 458.261,-253.5 415.261,-253.5"/>
<polygon fill="none" stroke="black" points="415.261,-253.5 415.261,-290.5 458.261,-290.5 458.261,-253.5 415.261,-253.5"/>
<text text-anchor="start" x="426.261" y="-269.3" font-family="Arial" font-weight="bold" font-size="14.00">Dir</text>
<polygon fill="none" stroke="black" points="413.761,-253 413.761,-292 458.761,-292 458.761,-253 413.761,-253"/>
</g>
<!-- ndDir&#45;&gt;ndOp -->
<g id="edge101" class="edge"><title>ndDir&#45;&gt;ndOp</title>
<path fill="none" stroke="black" d="M465.788,-248.937C477.292,-240.146 490.646,-229.942 502.944,-220.544"/>
<polygon fill="black" stroke="black" points="502.99,-220.509 505.329,-213.688 512.525,-213.223 510.186,-220.044 502.99,-220.509"/>
</g>
</g>
</svg>
