<?xml version="1.0" encoding="UTF-8" standalone="no"?>
<!DOCTYPE svg PUBLIC "-//W3C//DTD SVG 1.1//EN"
 "http://www.w3.org/Graphics/SVG/1.1/DTD/svg11.dtd">
<!-- Generated by graphviz version 2.38.0 (20140413.2041)
 -->
<!-- Title: ml Pages: 1 -->
<svg width="2557pt" height="530pt"
 viewBox="0.00 0.00 2557.00 530.00" xmlns="http://www.w3.org/2000/svg" xmlns:xlink="http://www.w3.org/1999/xlink">
<g id="graph0" class="graph" transform="scale(1 1) rotate(0) translate(4 526)">
<title>ml</title>
<polygon fill="white" stroke="none" points="-4,4 -4,-526 2553,-526 2553,4 -4,4"/>
<!-- ndVal -->
<g id="node1" class="node"><title>ndVal</title>
<g id="a_node1_0"><a xlink:href="https://github.com/rust-crdt/rust-crdt/blob/master/src/map.rs#:~:text=trait%20Val" xlink:title="&lt;TABLE&gt;">
<polygon fill="lightgreen" stroke="none" points="419.5,-453.5 419.5,-490.5 463.5,-490.5 463.5,-453.5 419.5,-453.5"/>
<polygon fill="none" stroke="black" points="419.5,-453.5 419.5,-490.5 463.5,-490.5 463.5,-453.5 419.5,-453.5"/>
<text text-anchor="start" x="430.5" y="-469.3" font-family="Arial" font-weight="bold" font-size="14.00">Val</text>
<polygon fill="none" stroke="black" points="418.5,-453 418.5,-492 464.5,-492 464.5,-453 418.5,-453"/>
</a>
</g>
</g>
<!-- ndMap -->
<g id="node2" class="node"><title>ndMap</title>
<text text-anchor="middle" x="307.5" y="-14.3" font-family="Times,serif" font-size="14.00">ndMap</text>
</g>
<!-- ndEntry -->
<g id="node3" class="node"><title>ndEntry</title>
<text text-anchor="middle" x="565.5" y="-158.3" font-family="Times,serif" font-size="14.00">ndEntry</text>
</g>
<!-- ndOp -->
<g id="node4" class="node"><title>ndOp</title>
<g id="a_node4_1"><a xlink:href="https://github.com/rust-crdt/rust-crdt/blob/master/src/orswot.rs#:~:text=enum%20Op" xlink:title="&lt;TABLE&gt;">
<polygon fill="yellow" stroke="none" points="1162.5,-344.5 1162.5,-381.5 1211.5,-381.5 1211.5,-344.5 1162.5,-344.5"/>
<polygon fill="none" stroke="black" points="1162.5,-344.5 1162.5,-381.5 1211.5,-381.5 1211.5,-344.5 1162.5,-344.5"/>
<text text-anchor="start" x="1176.5" y="-360.3" font-family="Arial" font-weight="bold" font-size="14.00">Op</text>
<polygon fill="white" stroke="none" points="1162.5,-292.5 1162.5,-344.5 1211.5,-344.5 1211.5,-292.5 1162.5,-292.5"/>
<polygon fill="none" stroke="black" points="1162.5,-292.5 1162.5,-344.5 1211.5,-344.5 1211.5,-292.5 1162.5,-292.5"/>
<text text-anchor="start" x="1173.5" y="-322.3" font-family="Arial" font-size="14.00">Add</text>
<text text-anchor="start" x="1173.5" y="-307.3" font-family="Arial" font-size="14.00">Rm</text>
<polygon fill="none" stroke="black" points="1161,-292 1161,-383 1212,-383 1212,-292 1161,-292"/>
</a>
</g>
</g>
<!-- ndOp&#45;&gt;ndMap -->
<g id="edge1" class="edge"><title>ndOp&#45;&gt;ndMap</title>
<path fill="none" stroke="black" stroke-dasharray="5,2" d="M1220.17,-294.438C1222.85,-292.107 1225.64,-289.932 1228.5,-288 1269.39,-260.401 1304.83,-292.144 1333.5,-252 1342.8,-238.98 1343.28,-228.661 1333.5,-216 1294.75,-165.84 1256.44,-197.448 1195.5,-180 1176.14,-174.457 869.275,-75.8029 849.5,-72 646.38,-32.9374 590.141,-66.0942 385.5,-36 372.408,-34.0747 358.232,-31.2209 345.602,-28.399"/>
<polygon fill="black" stroke="black" points="335.854,-26.161 346.607,-24.0128 340.727,-27.2799 345.6,-28.3987 345.6,-28.3987 345.6,-28.3987 340.727,-27.2799 344.594,-32.7846 335.854,-26.161 335.854,-26.161"/>
</g>
<!-- ndMerkleReg -->
<g id="node16" class="node"><title>ndMerkleReg</title>
<text text-anchor="middle" x="1260.5" y="-230.3" font-family="Times,serif" font-size="14.00">ndMerkleReg</text>
</g>
<!-- ndOp&#45;&gt;ndMerkleReg -->
<g id="edge2" class="edge"><title>ndOp&#45;&gt;ndMerkleReg</title>
<path fill="none" stroke="black" stroke-dasharray="5,2" d="M1220.04,-290.502C1227.57,-280.167 1235.3,-269.567 1241.96,-260.436"/>
<polygon fill="black" stroke="black" points="1247.97,-252.189 1245.71,-262.921 1245.02,-256.23 1242.08,-260.27 1242.08,-260.27 1242.08,-260.27 1245.02,-256.23 1238.44,-257.619 1247.97,-252.189 1247.97,-252.189"/>
</g>
<!-- ndGSet -->
<g id="node19" class="node"><title>ndGSet</title>
<text text-anchor="middle" x="973.5" y="-230.3" font-family="Times,serif" font-size="14.00">ndGSet</text>
</g>
<!-- ndOp&#45;&gt;ndGSet -->
<g id="edge3" class="edge"><title>ndOp&#45;&gt;ndGSet</title>
<path fill="none" stroke="black" stroke-dasharray="5,2" d="M1152.94,-314.454C1138.89,-305.674 1122.2,-295.82 1106.5,-288 1075.39,-272.505 1038.59,-258.125 1011.59,-248.264"/>
<polygon fill="black" stroke="black" points="1002.12,-244.842 1013.05,-244.007 1006.82,-246.541 1011.52,-248.24 1011.52,-248.24 1011.52,-248.24 1006.82,-246.541 1009.99,-252.472 1002.12,-244.842 1002.12,-244.842"/>
</g>
<!-- ndGCounter -->
<g id="node20" class="node"><title>ndGCounter</title>
<text text-anchor="middle" x="693.5" y="-158.3" font-family="Times,serif" font-size="14.00">ndGCounter</text>
</g>
<!-- ndOp&#45;&gt;ndGCounter -->
<g id="edge4" class="edge"><title>ndOp&#45;&gt;ndGCounter</title>
<path fill="none" stroke="black" stroke-dasharray="5,2" d="M1191.25,-287.86C1190.87,-262.933 1185.58,-234.096 1166.5,-216 1162.7,-212.391 867.267,-181.155 745.291,-168.395"/>
<polygon fill="black" stroke="black" points="735.08,-167.328 745.493,-163.892 740.053,-167.848 745.025,-168.368 745.025,-168.368 745.025,-168.368 740.053,-167.848 744.558,-172.843 735.08,-167.328 735.08,-167.328"/>
</g>
<!-- ndLWWReg -->
<g id="node24" class="node"><title>ndLWWReg</title>
<text text-anchor="middle" x="768.5" y="-230.3" font-family="Times,serif" font-size="14.00">ndLWWReg</text>
</g>
<!-- ndOp&#45;&gt;ndLWWReg -->
<g id="edge5" class="edge"><title>ndOp&#45;&gt;ndLWWReg</title>
<path fill="none" stroke="black" stroke-dasharray="5,2" d="M1152.94,-312.145C1139.17,-303.238 1122.67,-293.908 1106.5,-288 1055.34,-269.309 903.999,-250.196 822.282,-240.859"/>
<polygon fill="black" stroke="black" points="812.192,-239.716 822.635,-236.371 817.16,-240.279 822.128,-240.842 822.128,-240.842 822.128,-240.842 817.16,-240.279 821.621,-245.314 812.192,-239.716 812.192,-239.716"/>
</g>
<!-- ndList -->
<g id="node29" class="node"><title>ndList</title>
<text text-anchor="middle" x="1503.5" y="-158.3" font-family="Times,serif" font-size="14.00">ndList</text>
</g>
<!-- ndOp&#45;&gt;ndList -->
<g id="edge6" class="edge"><title>ndOp&#45;&gt;ndList</title>
<path fill="none" stroke="black" stroke-dasharray="5,2" d="M1220.07,-293.621C1222.76,-291.52 1225.58,-289.616 1228.5,-288 1320.6,-237.104 1378.47,-315.334 1462.5,-252 1482.28,-237.089 1492.83,-210.345 1498.24,-190.054"/>
<polygon fill="black" stroke="black" points="1500.62,-180.129 1502.66,-190.903 1499.46,-184.99 1498.29,-189.852 1498.29,-189.852 1498.29,-189.852 1499.46,-184.99 1493.91,-188.8 1500.62,-180.129 1500.62,-180.129"/>
</g>
<!-- ndGList -->
<g id="node30" class="node"><title>ndGList</title>
<text text-anchor="middle" x="1127.5" y="-230.3" font-family="Times,serif" font-size="14.00">ndGList</text>
</g>
<!-- ndOp&#45;&gt;ndGList -->
<g id="edge7" class="edge"><title>ndOp&#45;&gt;ndGList</title>
<path fill="none" stroke="black" stroke-dasharray="5,2" d="M1158.21,-287.831C1152.79,-278.516 1147.33,-269.107 1142.53,-260.862"/>
<polygon fill="black" stroke="black" points="1137.45,-252.116 1146.37,-258.5 1139.96,-256.439 1142.47,-260.761 1142.47,-260.761 1142.47,-260.761 1139.96,-256.439 1138.58,-263.023 1137.45,-252.116 1137.45,-252.116"/>
</g>
<!-- ndMVReg -->
<g id="node32" class="node"><title>ndMVReg</title>
<text text-anchor="middle" x="431.5" y="-14.3" font-family="Times,serif" font-size="14.00">ndMVReg</text>
</g>
<!-- ndOp&#45;&gt;ndMVReg -->
<g id="edge8" class="edge"><title>ndOp&#45;&gt;ndMVReg</title>
<path fill="none" stroke="black" stroke-dasharray="5,2" d="M1220.21,-293.863C1222.86,-291.702 1225.63,-289.72 1228.5,-288 1290.25,-250.936 1341.58,-308.301 1386.5,-252 1396.48,-239.493 1395.81,-229.013 1386.5,-216 1372.09,-195.853 988.707,-77.2602 964.5,-72 788.012,-33.6486 572.533,-22.9836 478.808,-20.0696"/>
<polygon fill="black" stroke="black" points="468.789,-19.7735 478.918,-15.5709 473.787,-19.9212 478.785,-20.069 478.785,-20.069 478.785,-20.069 473.787,-19.9212 478.652,-24.567 468.789,-19.7735 468.789,-19.7735"/>
</g>
<!-- ndVClock -->
<g id="node33" class="node"><title>ndVClock</title>
<text text-anchor="middle" x="442.5" y="-230.3" font-family="Times,serif" font-size="14.00">ndVClock</text>
</g>
<!-- ndOp&#45;&gt;ndVClock -->
<g id="edge9" class="edge"><title>ndOp&#45;&gt;ndVClock</title>
<path fill="none" stroke="black" stroke-dasharray="5,2" d="M1152.77,-311.254C1139.1,-302.341 1122.73,-293.24 1106.5,-288 1077.14,-278.521 635.292,-248.014 489.083,-238.126"/>
<polygon fill="black" stroke="black" points="478.673,-237.423 488.954,-233.607 483.662,-237.76 488.65,-238.097 488.65,-238.097 488.65,-238.097 483.662,-237.76 488.347,-242.586 478.673,-237.423 478.673,-237.423"/>
</g>
<!-- ndPNCounter -->
<g id="node35" class="node"><title>ndPNCounter</title>
<text text-anchor="middle" x="763.5" y="-86.3" font-family="Times,serif" font-size="14.00">ndPNCounter</text>
</g>
<!-- ndOp&#45;&gt;ndPNCounter -->
<g id="edge10" class="edge"><title>ndOp&#45;&gt;ndPNCounter</title>
<path fill="none" stroke="black" stroke-dasharray="5,2" d="M1220.05,-294.872C1222.78,-292.406 1225.61,-290.085 1228.5,-288 1262.44,-263.525 1292.25,-286.79 1315.5,-252 1324.39,-238.698 1326.23,-227.869 1315.5,-216 1262.18,-157.014 1036.27,-200.711 959.5,-180 902.046,-164.5 840.234,-133.848 801.715,-112.891"/>
<polygon fill="black" stroke="black" points="792.914,-108.051 803.845,-108.927 797.295,-110.46 801.676,-112.87 801.676,-112.87 801.676,-112.87 797.295,-110.46 799.507,-116.813 792.914,-108.051 792.914,-108.051"/>
</g>
<!-- ndOrswot -->
<g id="node37" class="node"><title>ndOrswot</title>
<text text-anchor="middle" x="807.5" y="-14.3" font-family="Times,serif" font-size="14.00">ndOrswot</text>
</g>
<!-- ndOp&#45;&gt;ndOrswot -->
<g id="edge11" class="edge"><title>ndOp&#45;&gt;ndOrswot</title>
<path fill="none" stroke="black" stroke-dasharray="5,2" d="M1220.12,-293.72C1222.8,-291.594 1225.6,-289.659 1228.5,-288 1309.06,-241.939 1472,-295.726 1424.5,-216 1363.84,-114.187 984.753,-46.4755 852.754,-25.7356"/>
<polygon fill="black" stroke="black" points="842.585,-24.1542 853.158,-21.2444 847.526,-24.9226 852.466,-25.6909 852.466,-25.6909 852.466,-25.6909 847.526,-24.9226 851.775,-30.1375 842.585,-24.1542 842.585,-24.1542"/>
</g>
<!-- ndCmRDTValidation -->
<g id="node5" class="node"><title>ndCmRDTValidation</title>
<g id="a_node5_2"><a xlink:href="https://github.com/rust-crdt/rust-crdt/blob/master/src/map.rs#:~:text=enum%20CmRDTValidation" xlink:title="&lt;TABLE&gt;">
<polygon fill="yellow" stroke="none" points="1480.5,-479.5 1480.5,-516.5 1724.5,-516.5 1724.5,-479.5 1480.5,-479.5"/>
<polygon fill="none" stroke="black" points="1480.5,-479.5 1480.5,-516.5 1724.5,-516.5 1724.5,-479.5 1480.5,-479.5"/>
<text text-anchor="start" x="1541.5" y="-495.3" font-family="Arial" font-weight="bold" font-size="14.00">CmRDTValidation</text>
<polygon fill="white" stroke="none" points="1480.5,-427.5 1480.5,-479.5 1724.5,-479.5 1724.5,-427.5 1480.5,-427.5"/>
<polygon fill="none" stroke="black" points="1480.5,-427.5 1480.5,-479.5 1724.5,-479.5 1724.5,-427.5 1480.5,-427.5"/>
<text text-anchor="start" x="1491.5" y="-457.3" font-family="Arial" font-size="14.00">SourceOrder(crate::DotRange&lt;A&gt;)</text>
<text text-anchor="start" x="1491.5" y="-442.3" font-family="Arial" font-size="14.00">Value(V::Validation)</text>
<polygon fill="none" stroke="black" points="1479.5,-427 1479.5,-518 1725.5,-518 1725.5,-427 1479.5,-427"/>
</a>
</g>
</g>
<!-- ndCvRDTValidation -->
<g id="node6" class="node"><title>ndCvRDTValidation</title>
<g id="a_node6_3"><a xlink:href="https://github.com/rust-crdt/rust-crdt/blob/master/src/map.rs#:~:text=enum%20CvRDTValidation" xlink:title="&lt;TABLE&gt;">
<polygon fill="yellow" stroke="none" points="1760.5,-479.5 1760.5,-516.5 1904.5,-516.5 1904.5,-479.5 1760.5,-479.5"/>
<polygon fill="none" stroke="black" points="1760.5,-479.5 1760.5,-516.5 1904.5,-516.5 1904.5,-479.5 1760.5,-479.5"/>
<text text-anchor="start" x="1773.5" y="-495.3" font-family="Arial" font-weight="bold" font-size="14.00">CvRDTValidation</text>
<polygon fill="white" stroke="none" points="1760.5,-427.5 1760.5,-479.5 1904.5,-479.5 1904.5,-427.5 1760.5,-427.5"/>
<polygon fill="none" stroke="black" points="1760.5,-427.5 1760.5,-479.5 1904.5,-479.5 1904.5,-427.5 1760.5,-427.5"/>
<text text-anchor="start" x="1771.5" y="-457.3" font-family="Arial" font-size="14.00">DoubleSpentDot</text>
<text text-anchor="start" x="1771.5" y="-442.3" font-family="Arial" font-size="14.00">Value(V::Validation)</text>
<polygon fill="none" stroke="black" points="1759.5,-427 1759.5,-518 1905.5,-518 1905.5,-427 1759.5,-427"/>
</a>
</g>
</g>
<!-- ndActor -->
<g id="node7" class="node"><title>ndActor</title>
<g id="a_node7_4"><a xlink:href="https://github.com/rust-crdt/rust-crdt/blob/master/src/traits.rs#:~:text=trait%20Actor" xlink:title="&lt;TABLE&gt;">
<polygon fill="lightgreen" stroke="none" points="1940.5,-453.5 1940.5,-490.5 2000.5,-490.5 2000.5,-453.5 1940.5,-453.5"/>
<polygon fill="none" stroke="black" points="1940.5,-453.5 1940.5,-490.5 2000.5,-490.5 2000.5,-453.5 1940.5,-453.5"/>
<text text-anchor="start" x="1951.5" y="-469.3" font-family="Arial" font-weight="bold" font-size="14.00">Actor</text>
<polygon fill="none" stroke="black" points="1939.5,-453 1939.5,-492 2001.5,-492 2001.5,-453 1939.5,-453"/>
</a>
</g>
</g>
<!-- ndCvRDT -->
<g id="node8" class="node"><title>ndCvRDT</title>
<g id="a_node8_5"><a xlink:href="https://github.com/rust-crdt/rust-crdt/blob/master/src/traits.rs#:~:text=trait%20CvRDT" xlink:title="&lt;TABLE&gt;">
<polygon fill="lightgreen" stroke="none" points="881.5,-318.5 881.5,-355.5 952.5,-355.5 952.5,-318.5 881.5,-318.5"/>
<polygon fill="none" stroke="black" points="881.5,-318.5 881.5,-355.5 952.5,-355.5 952.5,-318.5 881.5,-318.5"/>
<text text-anchor="start" x="892.5" y="-334.3" font-family="Arial" font-weight="bold" font-size="14.00">CvRDT</text>
<polygon fill="none" stroke="black" points="880,-318 880,-357 953,-357 953,-318 880,-318"/>
</a>
</g>
</g>
<!-- ndCvRDT&#45;&gt;ndMap -->
<g id="edge12" class="edge"><title>ndCvRDT&#45;&gt;ndMap</title>
<path fill="none" stroke="black" stroke-dasharray="5,2" d="M915.852,-313.911C912.985,-261.185 897.726,-130.08 817.5,-72 739.469,-15.5093 480.767,-50.2879 385.5,-36 372.414,-34.0374 358.239,-31.1741 345.608,-28.3549"/>
<polygon fill="none" stroke="black" points="346.389,-24.9431 335.86,-26.1215 344.826,-31.7664 346.389,-24.9431"/>
</g>
<!-- ndCvRDT&#45;&gt;ndMerkleReg -->
<g id="edge13" class="edge"><title>ndCvRDT&#45;&gt;ndMerkleReg</title>
<path fill="none" stroke="black" stroke-dasharray="5,2" d="M936.065,-313.621C945.278,-304.269 956.987,-294.209 969.5,-288 970.16,-287.672 1119.84,-260.501 1204.25,-245.196"/>
<polygon fill="none" stroke="black" points="1204.99,-248.619 1214.2,-243.391 1203.74,-241.731 1204.99,-248.619"/>
</g>
<!-- ndCvRDT&#45;&gt;ndGSet -->
<g id="edge14" class="edge"><title>ndCvRDT&#45;&gt;ndGSet</title>
<path fill="none" stroke="black" stroke-dasharray="5,2" d="M929.15,-313.974C937.924,-298.351 949.636,-277.496 958.821,-261.14"/>
<polygon fill="none" stroke="black" points="962.05,-262.536 963.895,-252.103 955.947,-259.109 962.05,-262.536"/>
</g>
<!-- ndCvRDT&#45;&gt;ndGCounter -->
<g id="edge15" class="edge"><title>ndCvRDT&#45;&gt;ndGCounter</title>
<path fill="none" stroke="black" stroke-dasharray="5,2" d="M903.273,-313.646C886.857,-287.028 856.575,-243.238 820.5,-216 797.944,-198.97 769.116,-186.361 744.628,-177.725"/>
<polygon fill="none" stroke="black" points="745.725,-174.401 735.13,-174.494 743.471,-181.028 745.725,-174.401"/>
</g>
<!-- ndCvRDT&#45;&gt;ndLWWReg -->
<g id="edge16" class="edge"><title>ndCvRDT&#45;&gt;ndLWWReg</title>
<path fill="none" stroke="black" stroke-dasharray="5,2" d="M890.229,-313.961C879.952,-305.494 867.91,-295.991 856.5,-288 841.113,-277.224 823.491,-266.344 808.078,-257.269"/>
<polygon fill="none" stroke="black" points="809.694,-254.159 799.291,-252.149 806.169,-260.207 809.694,-254.159"/>
</g>
<!-- ndCvRDT&#45;&gt;ndGList -->
<g id="edge17" class="edge"><title>ndCvRDT&#45;&gt;ndGList</title>
<path fill="none" stroke="black" stroke-dasharray="5,2" d="M936.967,-313.876C946.171,-304.795 957.626,-294.874 969.5,-288 1015.12,-261.593 1032.72,-269.32 1082.5,-252 1083.93,-251.503 1085.38,-250.99 1086.85,-250.468"/>
<polygon fill="none" stroke="black" points="1088.39,-253.63 1096.59,-246.921 1086,-247.052 1088.39,-253.63"/>
</g>
<!-- ndCvRDT&#45;&gt;ndMVReg -->
<g id="edge18" class="edge"><title>ndCvRDT&#45;&gt;ndMVReg</title>
<path fill="none" stroke="black" stroke-dasharray="5,2" d="M940.944,-313.938C949.891,-305.731 960.12,-296.408 969.5,-288 987.557,-271.814 1000.5,-274.091 1010.5,-252 1042.81,-180.635 963.903,-94.1126 930.5,-72 893.303,-47.376 596.209,-28.2278 478.901,-21.5556"/>
<polygon fill="none" stroke="black" points="478.964,-18.0537 468.783,-20.9857 478.57,-25.0426 478.964,-18.0537"/>
</g>
<!-- ndCvRDT&#45;&gt;ndVClock -->
<g id="edge19" class="edge"><title>ndCvRDT&#45;&gt;ndVClock</title>
<path fill="none" stroke="black" stroke-dasharray="5,2" d="M894.56,-313.822C883.977,-304.27 870.543,-293.996 856.5,-288 791.063,-260.058 582.384,-243.796 488.746,-237.738"/>
<polygon fill="none" stroke="black" points="488.916,-234.242 478.714,-237.099 488.472,-241.228 488.916,-234.242"/>
</g>
<!-- ndCvRDT&#45;&gt;ndPNCounter -->
<g id="edge20" class="edge"><title>ndCvRDT&#45;&gt;ndPNCounter</title>
<path fill="none" stroke="black" stroke-dasharray="5,2" d="M905.816,-313.763C893.968,-289.134 873.831,-248.947 853.5,-216 831.391,-180.172 802.437,-141.135 783.418,-116.387"/>
<polygon fill="none" stroke="black" points="786.019,-114.028 777.133,-108.258 780.481,-118.31 786.019,-114.028"/>
</g>
<!-- ndCvRDT&#45;&gt;ndOrswot -->
<g id="edge21" class="edge"><title>ndCvRDT&#45;&gt;ndOrswot</title>
<path fill="none" stroke="black" stroke-dasharray="5,2" d="M938.226,-313.93C947.37,-305.171 958.443,-295.473 969.5,-288 1000.13,-267.297 1024.81,-283.295 1044.5,-252 1087.11,-184.289 1094.52,-134.437 1044.5,-72 1020.95,-42.6045 914.836,-28.4247 852.871,-22.5401"/>
<polygon fill="none" stroke="black" points="852.862,-19.0248 842.585,-21.6008 852.225,-25.9958 852.862,-19.0248"/>
</g>
<!-- ndCmRDT -->
<g id="node9" class="node"><title>ndCmRDT</title>
<g id="a_node9_6"><a xlink:href="https://github.com/rust-crdt/rust-crdt/blob/master/src/traits.rs#:~:text=trait%20CmRDT" xlink:title="&lt;TABLE&gt;">
<polygon fill="lightgreen" stroke="none" points="598.5,-318.5 598.5,-355.5 674.5,-355.5 674.5,-318.5 598.5,-318.5"/>
<polygon fill="none" stroke="black" points="598.5,-318.5 598.5,-355.5 674.5,-355.5 674.5,-318.5 598.5,-318.5"/>
<text text-anchor="start" x="609.5" y="-334.3" font-family="Arial" font-weight="bold" font-size="14.00">CmRDT</text>
<polygon fill="none" stroke="black" points="597.5,-318 597.5,-357 675.5,-357 675.5,-318 597.5,-318"/>
</a>
</g>
</g>
<!-- ndCmRDT&#45;&gt;ndMap -->
<g id="edge22" class="edge"><title>ndCmRDT&#45;&gt;ndMap</title>
<path fill="none" stroke="black" stroke-dasharray="5,2" d="M589.425,-324.124C549.025,-313.734 489.158,-298.885 436.5,-288 301.811,-260.158 202.455,-305.64 146.5,-180 116.855,-113.436 213.379,-59.2558 269.744,-34.1377"/>
<polygon fill="none" stroke="black" points="271.316,-37.2708 279.091,-30.0734 268.525,-30.8514 271.316,-37.2708"/>
</g>
<!-- ndCmRDT&#45;&gt;ndMerkleReg -->
<g id="edge23" class="edge"><title>ndCmRDT&#45;&gt;ndMerkleReg</title>
<path fill="none" stroke="black" stroke-dasharray="5,2" d="M656.07,-313.998C665.939,-304.234 678.728,-293.738 692.5,-288 790.011,-247.372 1061.72,-265.418 1166.5,-252 1178.71,-250.437 1191.74,-248.351 1204.09,-246.177"/>
<polygon fill="none" stroke="black" points="1205.05,-249.56 1214.27,-244.34 1203.81,-242.671 1205.05,-249.56"/>
</g>
<!-- ndCmRDT&#45;&gt;ndGSet -->
<g id="edge24" class="edge"><title>ndCmRDT&#45;&gt;ndGSet</title>
<path fill="none" stroke="black" stroke-dasharray="5,2" d="M657.15,-313.925C666.969,-304.513 679.414,-294.323 692.5,-288 734.825,-267.55 868.293,-248.354 934.903,-239.746"/>
<polygon fill="none" stroke="black" points="935.519,-243.196 944.995,-238.457 934.632,-236.252 935.519,-243.196"/>
</g>
<!-- ndCmRDT&#45;&gt;ndGCounter -->
<g id="edge25" class="edge"><title>ndCmRDT&#45;&gt;ndGCounter</title>
<path fill="none" stroke="black" stroke-dasharray="5,2" d="M621.484,-313.861C606.79,-288.605 588.972,-247.201 606.5,-216 614.606,-201.57 628.411,-190.608 642.665,-182.507"/>
<polygon fill="none" stroke="black" points="644.334,-185.583 651.551,-177.826 641.072,-179.39 644.334,-185.583"/>
</g>
<!-- ndCmRDT&#45;&gt;ndLWWReg -->
<g id="edge26" class="edge"><title>ndCmRDT&#45;&gt;ndLWWReg</title>
<path fill="none" stroke="black" stroke-dasharray="5,2" d="M661.396,-313.955C670.938,-305.577 682.046,-296.136 692.5,-288 705.829,-277.626 721.01,-266.846 734.28,-257.738"/>
<polygon fill="none" stroke="black" points="736.39,-260.536 742.687,-252.015 732.451,-254.75 736.39,-260.536"/>
</g>
<!-- ndCmRDT&#45;&gt;ndList -->
<g id="edge27" class="edge"><title>ndCmRDT&#45;&gt;ndList</title>
<path fill="none" stroke="black" stroke-dasharray="5,2" d="M644.245,-313.599C655.194,-285.188 678.135,-237.834 715.5,-216 780.754,-177.869 1318.12,-166.106 1465.97,-163.576"/>
<polygon fill="none" stroke="black" points="1466.39,-167.069 1476.33,-163.403 1466.27,-160.07 1466.39,-167.069"/>
</g>
<!-- ndCmRDT&#45;&gt;ndGList -->
<g id="edge28" class="edge"><title>ndCmRDT&#45;&gt;ndGList</title>
<path fill="none" stroke="black" stroke-dasharray="5,2" d="M656.423,-313.974C666.278,-304.33 678.954,-293.94 692.5,-288 822.763,-230.881 869.437,-270.228 1010.5,-252 1035.81,-248.73 1064.12,-244.627 1086.56,-241.271"/>
<polygon fill="none" stroke="black" points="1087.38,-244.688 1096.74,-239.739 1086.33,-237.766 1087.38,-244.688"/>
</g>
<!-- ndCmRDT&#45;&gt;ndMVReg -->
<g id="edge29" class="edge"><title>ndCmRDT&#45;&gt;ndMVReg</title>
<path fill="none" stroke="black" stroke-dasharray="5,2" d="M589.234,-324.451C473.391,-294.458 182.821,-216.267 156.5,-180 147.102,-167.051 147.838,-157.452 156.5,-144 163.171,-133.64 308.294,-71.1079 384.963,-38.6003"/>
<polygon fill="none" stroke="black" points="386.565,-41.7229 394.409,-34.6005 383.836,-35.277 386.565,-41.7229"/>
</g>
<!-- ndCmRDT&#45;&gt;ndVClock -->
<g id="edge30" class="edge"><title>ndCmRDT&#45;&gt;ndVClock</title>
<path fill="none" stroke="black" stroke-dasharray="5,2" d="M593.445,-313.974C560.933,-296.964 516.566,-273.751 484.352,-256.897"/>
<polygon fill="none" stroke="black" points="485.673,-253.638 475.19,-252.103 482.428,-259.84 485.673,-253.638"/>
</g>
<!-- ndCmRDT&#45;&gt;ndPNCounter -->
<g id="edge31" class="edge"><title>ndCmRDT&#45;&gt;ndPNCounter</title>
<path fill="none" stroke="black" stroke-dasharray="5,2" d="M631.188,-313.557C626.512,-287.258 623.348,-244.165 644.5,-216 672.616,-178.563 712.574,-215.151 743.5,-180 758.328,-163.146 762.867,-137.669 763.965,-118.286"/>
<polygon fill="none" stroke="black" points="767.465,-118.338 764.265,-108.239 760.468,-118.13 767.465,-118.338"/>
</g>
<!-- ndCmRDT&#45;&gt;ndOrswot -->
<g id="edge32" class="edge"><title>ndCmRDT&#45;&gt;ndOrswot</title>
<path fill="none" stroke="black" stroke-dasharray="5,2" d="M638.141,-313.598C641.222,-286.934 650.074,-243.1 675.5,-216 705.26,-184.281 732.29,-206.859 766.5,-180 797.344,-155.784 805.606,-145.367 817.5,-108 823.926,-87.8117 820.678,-63.9007 816.234,-45.9491"/>
<polygon fill="none" stroke="black" points="819.565,-44.859 813.544,-36.1413 812.814,-46.711 819.565,-44.859"/>
</g>
<!-- ndResetRemove -->
<g id="node10" class="node"><title>ndResetRemove</title>
<g id="a_node10_7"><a xlink:href="https://github.com/rust-crdt/rust-crdt/blob/master/src/traits.rs#:~:text=trait%20ResetRemove" xlink:title="&lt;TABLE&gt;">
<polygon fill="lightgreen" stroke="none" points="300.5,-318.5 300.5,-355.5 418.5,-355.5 418.5,-318.5 300.5,-318.5"/>
<polygon fill="none" stroke="black" points="300.5,-318.5 300.5,-355.5 418.5,-355.5 418.5,-318.5 300.5,-318.5"/>
<text text-anchor="start" x="311.5" y="-334.3" font-family="Arial" font-weight="bold" font-size="14.00">ResetRemove</text>
<polygon fill="none" stroke="black" points="299.5,-318 299.5,-357 419.5,-357 419.5,-318 299.5,-318"/>
</a>
</g>
</g>
<!-- ndResetRemove&#45;&gt;ndMap -->
<g id="edge33" class="edge"><title>ndResetRemove&#45;&gt;ndMap</title>
<path fill="none" stroke="black" stroke-dasharray="5,2" d="M291.321,-327.717C208.731,-315.515 76.9562,-290.495 47.5,-252 -2.18707,-187.066 20.8958,-122.115 85.5,-72 139.495,-30.115 221.489,-20.6101 269.254,-18.8672"/>
<polygon fill="none" stroke="black" points="269.575,-22.36 279.478,-18.5943 269.388,-15.3625 269.575,-22.36"/>
</g>
<!-- ndResetRemove&#45;&gt;ndGCounter -->
<g id="edge34" class="edge"><title>ndResetRemove&#45;&gt;ndGCounter</title>
<path fill="none" stroke="black" stroke-dasharray="5,2" d="M396.112,-313.892C422.126,-297.454 457.604,-274.27 487.5,-252 507.488,-237.11 508.695,-228.074 530.5,-216 540.574,-210.422 598.06,-192.212 641.939,-178.686"/>
<polygon fill="none" stroke="black" points="643.105,-181.989 651.635,-175.704 641.048,-175.298 643.105,-181.989"/>
</g>
<!-- ndResetRemove&#45;&gt;ndMVReg -->
<g id="edge35" class="edge"><title>ndResetRemove&#45;&gt;ndMVReg</title>
<path fill="none" stroke="black" stroke-dasharray="5,2" d="M291.152,-319.9C249.688,-307.004 197.927,-285.547 161.5,-252 124.07,-217.529 95.4885,-186.48 123.5,-144 153.371,-98.6999 305.562,-52.5004 384.242,-31.1683"/>
<polygon fill="none" stroke="black" points="385.627,-34.4205 394.378,-28.4477 383.812,-27.6599 385.627,-34.4205"/>
</g>
<!-- ndResetRemove&#45;&gt;ndVClock -->
<g id="edge36" class="edge"><title>ndResetRemove&#45;&gt;ndVClock</title>
<path fill="none" stroke="black" stroke-dasharray="5,2" d="M377.92,-313.974C390.935,-298.059 408.389,-276.714 421.871,-260.227"/>
<polygon fill="none" stroke="black" points="424.893,-262.06 428.514,-252.103 419.474,-257.629 424.893,-262.06"/>
</g>
<!-- ndResetRemove&#45;&gt;ndPNCounter -->
<g id="edge37" class="edge"><title>ndResetRemove&#45;&gt;ndPNCounter</title>
<path fill="none" stroke="black" stroke-dasharray="5,2" d="M356.851,-313.885C353.492,-273.373 353.004,-188.511 400.5,-144 443.905,-103.323 617.244,-93.7897 707.783,-91.6077"/>
<polygon fill="none" stroke="black" points="707.949,-95.105 717.87,-91.3868 707.796,-88.1067 707.949,-95.105"/>
</g>
<!-- ndResetRemove&#45;&gt;ndOrswot -->
<g id="edge38" class="edge"><title>ndResetRemove&#45;&gt;ndOrswot</title>
<path fill="none" stroke="black" stroke-dasharray="5,2" d="M357.511,-313.948C355.318,-274.292 356.775,-191.759 400.5,-144 496.451,-39.197 677.793,-21.3059 762.182,-18.8956"/>
<polygon fill="none" stroke="black" points="762.303,-22.3939 772.222,-18.6696 762.145,-15.3956 762.303,-22.3939"/>
</g>
<!-- ndReadCtx -->
<g id="node11" class="node"><title>ndReadCtx</title>
<text text-anchor="middle" x="389.5" y="-86.3" font-family="Times,serif" font-size="14.00">ndReadCtx</text>
</g>
<!-- ndReadCtx&#45;&gt;ndMap -->
<g id="edge39" class="edge"><title>ndReadCtx&#45;&gt;ndMap</title>
<path fill="none" stroke="black" d="M369.23,-71.6966C359.002,-62.9655 346.439,-52.2405 335.322,-42.7503"/>
<polygon fill="black" stroke="black" points="327.537,-36.1043 338.064,-39.1744 331.339,-39.3507 335.142,-42.597 335.142,-42.597 335.142,-42.597 331.339,-39.3507 332.22,-46.0195 327.537,-36.1043 327.537,-36.1043"/>
</g>
<!-- ndReadCtx&#45;&gt;ndMVReg -->
<g id="edge40" class="edge"><title>ndReadCtx&#45;&gt;ndMVReg</title>
<path fill="none" stroke="black" d="M399.882,-71.6966C404.765,-63.5589 410.687,-53.689 416.079,-44.7013"/>
<polygon fill="black" stroke="black" points="421.237,-36.1043 419.951,-46.9945 418.665,-40.3918 416.092,-44.6793 416.092,-44.6793 416.092,-44.6793 418.665,-40.3918 412.234,-42.364 421.237,-36.1043 421.237,-36.1043"/>
</g>
<!-- ndReadCtx&#45;&gt;ndOrswot -->
<g id="edge41" class="edge"><title>ndReadCtx&#45;&gt;ndOrswot</title>
<path fill="none" stroke="black" d="M428.075,-82.54C505.506,-69.5732 679.501,-40.4352 762.195,-26.587"/>
<polygon fill="black" stroke="black" points="772.289,-24.8965 763.17,-30.9865 767.358,-25.7224 762.427,-26.5483 762.427,-26.5483 762.427,-26.5483 767.358,-25.7224 761.683,-22.1101 772.289,-24.8965 772.289,-24.8965"/>
</g>
<!-- ndAddCtx -->
<g id="node12" class="node"><title>ndAddCtx</title>
<text text-anchor="middle" x="202.5" y="-158.3" font-family="Times,serif" font-size="14.00">ndAddCtx</text>
</g>
<!-- ndAddCtx&#45;&gt;ndReadCtx -->
<g id="edge42" class="edge"><title>ndAddCtx&#45;&gt;ndReadCtx</title>
<path fill="none" stroke="black" d="M239.445,-147.17C268.577,-136.265 309.44,-120.969 341.17,-109.092"/>
<polygon fill="black" stroke="black" points="350.7,-105.524 342.913,-113.244 346.018,-107.277 341.335,-109.03 341.335,-109.03 341.335,-109.03 346.018,-107.277 339.757,-104.815 350.7,-105.524 350.7,-105.524"/>
</g>
<!-- ndRmCtx -->
<g id="node13" class="node"><title>ndRmCtx</title>
<text text-anchor="middle" x="444.5" y="-158.3" font-family="Times,serif" font-size="14.00">ndRmCtx</text>
</g>
<!-- ndRmCtx&#45;&gt;ndReadCtx -->
<g id="edge43" class="edge"><title>ndRmCtx&#45;&gt;ndReadCtx</title>
<path fill="none" stroke="black" d="M430.904,-143.697C424.377,-135.389 416.432,-125.277 409.253,-116.141"/>
<polygon fill="black" stroke="black" points="402.939,-108.104 412.656,-113.187 406.028,-112.036 409.117,-115.968 409.117,-115.968 409.117,-115.968 406.028,-112.036 405.579,-118.748 402.939,-108.104 402.939,-108.104"/>
</g>
<!-- ndNode -->
<g id="node14" class="node"><title>ndNode</title>
<text text-anchor="middle" x="1267.5" y="-333.8" font-family="Times,serif" font-size="14.00">ndNode</text>
</g>
<!-- ndNode&#45;&gt;ndMerkleReg -->
<g id="edge44" class="edge"><title>ndNode&#45;&gt;ndMerkleReg</title>
<path fill="none" stroke="black" d="M1266.31,-319.282C1265.24,-303.679 1263.63,-280.423 1262.38,-262.29"/>
<polygon fill="black" stroke="black" points="1261.69,-252.303 1266.87,-261.969 1262.04,-257.291 1262.38,-262.279 1262.38,-262.279 1262.38,-262.279 1262.04,-257.291 1257.89,-262.589 1261.69,-252.303 1261.69,-252.303"/>
</g>
<!-- ndContent -->
<g id="node15" class="node"><title>ndContent</title>
<text text-anchor="middle" x="1351.5" y="-333.8" font-family="Times,serif" font-size="14.00">ndContent</text>
</g>
<!-- ndContent&#45;&gt;ndMerkleReg -->
<g id="edge45" class="edge"><title>ndContent&#45;&gt;ndMerkleReg</title>
<path fill="none" stroke="black" d="M1336.06,-319.282C1321.42,-302.95 1299.26,-278.233 1282.72,-259.783"/>
<polygon fill="black" stroke="black" points="1276.01,-252.303 1286.04,-256.744 1279.35,-256.025 1282.69,-259.748 1282.69,-259.748 1282.69,-259.748 1279.35,-256.025 1279.34,-262.752 1276.01,-252.303 1276.01,-252.303"/>
</g>
<!-- ndValidationError -->
<g id="node17" class="node"><title>ndValidationError</title>
<g id="a_node17_8"><a xlink:href="https://github.com/rust-crdt/rust-crdt/blob/master/src/merkle_reg.rs#:~:text=enum%20ValidationError" xlink:title="&lt;TABLE&gt;">
<polygon fill="yellow" stroke="none" points="2036.5,-472.5 2036.5,-509.5 2180.5,-509.5 2180.5,-472.5 2036.5,-472.5"/>
<polygon fill="none" stroke="black" points="2036.5,-472.5 2036.5,-509.5 2180.5,-509.5 2180.5,-472.5 2036.5,-472.5"/>
<text text-anchor="start" x="2055.5" y="-488.3" font-family="Arial" font-weight="bold" font-size="14.00">ValidationError</text>
<polygon fill="white" stroke="none" points="2036.5,-435.5 2036.5,-472.5 2180.5,-472.5 2180.5,-435.5 2036.5,-435.5"/>
<polygon fill="none" stroke="black" points="2036.5,-435.5 2036.5,-472.5 2180.5,-472.5 2180.5,-435.5 2036.5,-435.5"/>
<text text-anchor="start" x="2047.5" y="-450.3" font-family="Arial" font-size="14.00">MissingChild(Hash)</text>
<polygon fill="none" stroke="black" points="2035.5,-434.5 2035.5,-510.5 2181.5,-510.5 2181.5,-434.5 2035.5,-434.5"/>
</a>
</g>
</g>
<!-- ndSha3Hash -->
<g id="node18" class="node"><title>ndSha3Hash</title>
<g id="a_node18_9"><a xlink:href="https://github.com/rust-crdt/rust-crdt/blob/master/src/merkle_reg.rs#:~:text=trait%20Sha3Hash" xlink:title="&lt;TABLE&gt;">
<polygon fill="lightgreen" stroke="none" points="2217.5,-453.5 2217.5,-490.5 2310.5,-490.5 2310.5,-453.5 2217.5,-453.5"/>
<polygon fill="none" stroke="black" points="2217.5,-453.5 2217.5,-490.5 2310.5,-490.5 2310.5,-453.5 2217.5,-453.5"/>
<text text-anchor="start" x="2228.5" y="-469.3" font-family="Arial" font-weight="bold" font-size="14.00">Sha3Hash</text>
<polygon fill="none" stroke="black" points="2216,-453 2216,-492 2311,-492 2311,-453 2216,-453"/>
</a>
</g>
</g>
<!-- ndGCounter&#45;&gt;ndPNCounter -->
<g id="edge46" class="edge"><title>ndGCounter&#45;&gt;ndPNCounter</title>
<path fill="none" stroke="black" d="M710.803,-143.697C718.941,-135.559 728.811,-125.689 737.799,-116.701"/>
<polygon fill="black" stroke="black" points="737.91,-116.59 739.325,-109.519 746.396,-108.104 744.981,-115.175 737.91,-116.59"/>
</g>
<!-- ndDot -->
<g id="node21" class="node"><title>ndDot</title>
<text text-anchor="middle" x="517.5" y="-468.8" font-family="Times,serif" font-size="14.00">ndDot</text>
</g>
<!-- ndDot&#45;&gt;ndOp -->
<g id="edge47" class="edge"><title>ndDot&#45;&gt;ndOp</title>
<path fill="none" stroke="black" d="M544.526,-469.072C645.48,-459.78 1000.12,-425.079 1106.5,-387 1119.42,-382.376 1132.52,-375.524 1144.28,-368.416"/>
<polygon fill="black" stroke="black" points="1152.98,-362.964 1146.9,-372.086 1148.75,-365.618 1144.51,-368.272 1144.51,-368.272 1144.51,-368.272 1148.75,-365.618 1142.12,-364.458 1152.98,-362.964 1152.98,-362.964"/>
</g>
<!-- ndDot&#45;&gt;ndAddCtx -->
<g id="edge48" class="edge"><title>ndDot&#45;&gt;ndAddCtx</title>
<path fill="none" stroke="black" d="M509.172,-454.479C503.019,-443.74 493.616,-430.522 481.5,-423 405.14,-375.591 351.048,-445.134 282.5,-387 223.648,-337.09 208.088,-240.69 203.976,-192.265"/>
<polygon fill="black" stroke="black" points="203.971,-192.197 199.55,-186.499 203.109,-180.228 207.53,-185.925 203.971,-192.197"/>
</g>
<!-- ndDot&#45;&gt;ndGCounter -->
<g id="edge49" class="edge"><title>ndDot&#45;&gt;ndGCounter</title>
<path fill="none" stroke="black" d="M518.363,-454.207C521.429,-409.744 535.152,-289.768 595.5,-216 607.797,-200.968 625.524,-189.574 642.529,-181.278"/>
<polygon fill="black" stroke="black" points="651.863,-176.983 644.659,-185.251 647.32,-179.073 642.778,-181.163 642.778,-181.163 642.778,-181.163 647.32,-179.073 640.897,-177.075 651.863,-176.983 651.863,-176.983"/>
</g>
<!-- ndCausalityBarrier -->
<g id="node26" class="node"><title>ndCausalityBarrier</title>
<text text-anchor="middle" x="1038.5" y="-333.8" font-family="Times,serif" font-size="14.00">ndCausalityBarrier</text>
</g>
<!-- ndDot&#45;&gt;ndCausalityBarrier -->
<g id="edge50" class="edge"><title>ndDot&#45;&gt;ndCausalityBarrier</title>
<path fill="none" stroke="black" d="M544.623,-470.423C616.647,-466.734 817.58,-451.005 969.5,-387 983.589,-381.064 997.664,-371.902 1009.39,-363.133"/>
<polygon fill="black" stroke="black" points="1009.57,-362.994 1011.84,-356.151 1019.04,-355.619 1016.76,-362.462 1009.57,-362.994"/>
</g>
<!-- ndDot&#45;&gt;ndVClock -->
<g id="edge51" class="edge"><title>ndDot&#45;&gt;ndVClock</title>
<path fill="none" stroke="black" d="M512.106,-454.492C499.218,-413.852 466.554,-310.85 450.993,-261.782"/>
<polygon fill="black" stroke="black" points="447.946,-252.172 455.258,-260.344 449.457,-256.938 450.969,-261.704 450.969,-261.704 450.969,-261.704 449.457,-256.938 446.679,-263.065 447.946,-252.172 447.946,-252.172"/>
</g>
<!-- ndIntoIter -->
<g id="node34" class="node"><title>ndIntoIter</title>
<text text-anchor="middle" x="35.5" y="-333.8" font-family="Times,serif" font-size="14.00">ndIntoIter</text>
</g>
<!-- ndDot&#45;&gt;ndIntoIter -->
<g id="edge52" class="edge"><title>ndDot&#45;&gt;ndIntoIter</title>
<path fill="none" stroke="black" d="M509.383,-454.122C503.319,-443.232 493.936,-429.98 481.5,-423 327.39,-336.501 246.107,-460.739 85.5,-387 73.9395,-381.692 63.4376,-372.558 55.0763,-363.638"/>
<polygon fill="black" stroke="black" points="48.3066,-355.956 58.2942,-360.483 51.6123,-359.707 54.9181,-363.459 54.9181,-363.459 54.9181,-363.459 51.6123,-359.707 51.5419,-366.434 48.3066,-355.956 48.3066,-355.956"/>
</g>
<!-- ndOrdDot -->
<g id="node22" class="node"><title>ndOrdDot</title>
<text text-anchor="middle" x="1417.5" y="-468.8" font-family="Times,serif" font-size="14.00">ndOrdDot</text>
</g>
<!-- ndOrdDot&#45;&gt;ndOp -->
<g id="edge53" class="edge"><title>ndOrdDot&#45;&gt;ndOp</title>
<path fill="none" stroke="black" d="M1381.97,-460.82C1342.04,-447.692 1276.55,-422.68 1228.5,-387 1228.32,-386.867 1228.14,-386.733 1227.96,-386.599"/>
<polygon fill="black" stroke="black" points="1220.12,-380.035 1230.68,-383.003 1223.96,-383.244 1227.79,-386.454 1227.79,-386.454 1227.79,-386.454 1223.96,-383.244 1224.9,-389.904 1220.12,-380.035 1220.12,-380.035"/>
</g>
<!-- ndOrdDot&#45;&gt;ndList -->
<g id="edge54" class="edge"><title>ndOrdDot&#45;&gt;ndList</title>
<path fill="none" stroke="black" d="M1431.52,-454.295C1439.94,-444.518 1451.19,-432.393 1462.5,-423 1485.55,-403.857 1505.04,-413.241 1519.5,-387 1554.08,-324.267 1530.78,-236.203 1514.87,-191.48"/>
<polygon fill="black" stroke="black" points="1514.81,-191.321 1508.98,-187.089 1510.64,-180.072 1516.48,-184.304 1514.81,-191.321"/>
</g>
<!-- ndDotRange -->
<g id="node23" class="node"><title>ndDotRange</title>
<text text-anchor="middle" x="2379.5" y="-468.8" font-family="Times,serif" font-size="14.00">ndDotRange</text>
</g>
<!-- ndValidation -->
<g id="node25" class="node"><title>ndValidation</title>
<g id="a_node25_10"><a xlink:href="https://github.com/rust-crdt/rust-crdt/blob/master/src/orswot.rs#:~:text=enum%20Validation" xlink:title="&lt;TABLE&gt;">
<polygon fill="yellow" stroke="none" points="710.5,-337.5 710.5,-374.5 838.5,-374.5 838.5,-337.5 710.5,-337.5"/>
<polygon fill="none" stroke="black" points="710.5,-337.5 710.5,-374.5 838.5,-374.5 838.5,-337.5 710.5,-337.5"/>
<text text-anchor="start" x="740" y="-353.3" font-family="Arial" font-weight="bold" font-size="14.00">Validation</text>
<polygon fill="white" stroke="none" points="710.5,-300.5 710.5,-337.5 838.5,-337.5 838.5,-300.5 710.5,-300.5"/>
<polygon fill="none" stroke="black" points="710.5,-300.5 710.5,-337.5 838.5,-337.5 838.5,-300.5 710.5,-300.5"/>
<text text-anchor="start" x="721.5" y="-315.3" font-family="Arial" font-size="14.00">DoubleSpentDot</text>
<polygon fill="none" stroke="black" points="709.5,-299.5 709.5,-375.5 839.5,-375.5 839.5,-299.5 709.5,-299.5"/>
</a>
</g>
</g>
<!-- ndValidation&#45;&gt;ndLWWReg -->
<g id="edge55" class="edge"><title>ndValidation&#45;&gt;ndLWWReg</title>
<path fill="none" stroke="black" d="M772.06,-295.216C771.407,-284.172 770.717,-272.508 770.121,-262.418"/>
<polygon fill="black" stroke="black" points="769.516,-252.189 774.598,-261.906 769.811,-257.181 770.106,-262.172 770.106,-262.172 770.106,-262.172 769.811,-257.181 765.614,-262.438 769.516,-252.189 769.516,-252.189"/>
</g>
<!-- ndVectorEntry -->
<g id="node27" class="node"><title>ndVectorEntry</title>
<text text-anchor="middle" x="1038.5" y="-468.8" font-family="Times,serif" font-size="14.00">ndVectorEntry</text>
</g>
<!-- ndVectorEntry&#45;&gt;ndCausalityBarrier -->
<g id="edge56" class="edge"><title>ndVectorEntry&#45;&gt;ndCausalityBarrier</title>
<path fill="none" stroke="black" d="M1038.5,-454.385C1038.5,-431.94 1038.5,-392.299 1038.5,-365.715"/>
<polygon fill="black" stroke="black" points="1038.5,-355.549 1043,-365.549 1038.5,-360.549 1038.5,-365.549 1038.5,-365.549 1038.5,-365.549 1038.5,-360.549 1034,-365.549 1038.5,-355.549 1038.5,-355.549"/>
</g>
<!-- ndCausalOp -->
<g id="node28" class="node"><title>ndCausalOp</title>
<g id="a_node28_11"><a xlink:href="https://github.com/rust-crdt/rust-crdt/blob/master/src/vvwe.rs#:~:text=trait%20CausalOp" xlink:title="&lt;TABLE&gt;">
<polygon fill="lightgreen" stroke="none" points="2449.5,-453.5 2449.5,-490.5 2540.5,-490.5 2540.5,-453.5 2449.5,-453.5"/>
<polygon fill="none" stroke="black" points="2449.5,-453.5 2449.5,-490.5 2540.5,-490.5 2540.5,-453.5 2449.5,-453.5"/>
<text text-anchor="start" x="2460.5" y="-469.3" font-family="Arial" font-weight="bold" font-size="14.00">CausalOp</text>
<polygon fill="none" stroke="black" points="2448,-453 2448,-492 2541,-492 2541,-453 2448,-453"/>
</a>
</g>
</g>
<!-- ndIdentifier -->
<g id="node31" class="node"><title>ndIdentifier</title>
<text text-anchor="middle" x="1470.5" y="-333.8" font-family="Times,serif" font-size="14.00">ndIdentifier</text>
</g>
<!-- ndIdentifier&#45;&gt;ndList -->
<g id="edge57" class="edge"><title>ndIdentifier&#45;&gt;ndList</title>
<path fill="none" stroke="black" d="M1478.31,-319.456C1485.56,-302.69 1495.92,-276.166 1500.5,-252 1504.22,-232.391 1504.95,-209.927 1504.76,-192.473"/>
<polygon fill="black" stroke="black" points="1504.76,-192.23 1500.61,-186.327 1504.47,-180.234 1508.61,-186.137 1504.76,-192.23"/>
</g>
<!-- ndIdentifier&#45;&gt;ndGList -->
<g id="edge58" class="edge"><title>ndIdentifier&#45;&gt;ndGList</title>
<path fill="none" stroke="black" d="M1449.42,-319.434C1435.26,-308.817 1415.73,-295.754 1396.5,-288 1316.38,-255.7 1290.15,-269.199 1205.5,-252 1194.03,-249.67 1181.64,-247.027 1170.18,-244.531"/>
<polygon fill="black" stroke="black" points="1169.93,-244.475 1163.21,-247.096 1158.21,-241.902 1164.92,-239.282 1169.93,-244.475"/>
</g>
<!-- ndVClock&#45;&gt;ndMap -->
<g id="edge59" class="edge"><title>ndVClock&#45;&gt;ndMap</title>
<path fill="none" stroke="black" d="M422.546,-215.879C411.576,-205.967 398.087,-192.926 387.5,-180 363.439,-150.622 358.586,-141.912 341.5,-108 331.691,-88.5311 322.97,-65.5182 316.816,-47.7711"/>
<polygon fill="black" stroke="black" points="316.738,-47.5392 311.028,-43.1347 312.898,-36.1702 318.608,-40.5746 316.738,-47.5392"/>
</g>
<!-- ndVClock&#45;&gt;ndEntry -->
<g id="edge60" class="edge"><title>ndVClock&#45;&gt;ndEntry</title>
<path fill="none" stroke="black" d="M472.589,-215.876C488.225,-206.978 507.563,-195.972 524.541,-186.31"/>
<polygon fill="black" stroke="black" points="524.866,-186.125 528.102,-179.681 535.295,-180.19 532.059,-186.634 524.866,-186.125"/>
</g>
<!-- ndVClock&#45;&gt;ndReadCtx -->
<g id="edge61" class="edge"><title>ndVClock&#45;&gt;ndReadCtx</title>
<path fill="none" stroke="black" d="M425.001,-215.969C416.153,-206.283 406.123,-193.428 400.5,-180 392.603,-161.14 389.913,-138.209 389.167,-120.346"/>
<polygon fill="black" stroke="black" points="389.162,-120.094 385.042,-114.176 388.92,-108.096 393.04,-114.015 389.162,-120.094"/>
</g>
<!-- ndVClock&#45;&gt;ndAddCtx -->
<g id="edge62" class="edge"><title>ndVClock&#45;&gt;ndAddCtx</title>
<path fill="none" stroke="black" d="M406.468,-223.452C368.327,-213.216 306.443,-196.237 253.5,-180 252.63,-179.733 251.752,-179.462 250.869,-179.187"/>
<polygon fill="black" stroke="black" points="250.636,-179.113 243.705,-181.103 239.203,-175.47 246.134,-173.48 250.636,-179.113"/>
</g>
<!-- ndVClock&#45;&gt;ndRmCtx -->
<g id="edge63" class="edge"><title>ndVClock&#45;&gt;ndRmCtx</title>
<path fill="none" stroke="black" d="M442.994,-215.697C443.198,-208.576 443.439,-200.129 443.668,-192.108"/>
<polygon fill="black" stroke="black" points="443.668,-192.099 439.842,-185.988 444.011,-180.104 447.838,-186.216 443.668,-192.099"/>
</g>
<!-- ndVClock&#45;&gt;ndGCounter -->
<g id="edge64" class="edge"><title>ndVClock&#45;&gt;ndGCounter</title>
<path fill="none" stroke="black" d="M478.706,-220.289C483.33,-218.784 488.013,-217.317 492.5,-216 556.212,-197.296 573.488,-197.65 637.5,-180 638.382,-179.757 639.27,-179.51 640.165,-179.26"/>
<polygon fill="black" stroke="black" points="640.446,-179.179 645.108,-173.677 651.979,-175.864 647.318,-181.366 640.446,-179.179"/>
</g>
<!-- ndVClock&#45;&gt;ndList -->
<g id="edge65" class="edge"><title>ndVClock&#45;&gt;ndList</title>
<path fill="none" stroke="black" d="M478.682,-230.366C525.658,-226.963 610.193,-220.895 682.5,-216 982.967,-195.66 1345.42,-172.873 1463.93,-165.467"/>
<polygon fill="black" stroke="black" points="1464.23,-165.448 1469.97,-161.081 1476.21,-164.7 1470.47,-169.066 1464.23,-165.448"/>
</g>
<!-- ndVClock&#45;&gt;ndMVReg -->
<g id="edge66" class="edge"><title>ndVClock&#45;&gt;ndMVReg</title>
<path fill="none" stroke="black" d="M463.323,-215.615C472.958,-206.198 483.385,-193.697 488.5,-180 494.097,-165.011 491.897,-159.635 488.5,-144 480.851,-108.788 462.379,-71.6036 448.522,-47.0373"/>
<polygon fill="black" stroke="black" points="448.36,-46.7577 441.892,-43.5697 442.347,-36.373 448.815,-39.561 448.36,-46.7577"/>
</g>
<!-- ndVClock&#45;&gt;ndOrswot -->
<g id="edge67" class="edge"><title>ndVClock&#45;&gt;ndOrswot</title>
<path fill="none" stroke="black" d="M478.639,-217.777C480.277,-217.162 481.902,-216.567 483.5,-216 536.375,-197.23 556.571,-209.17 604.5,-180 632.962,-162.678 681.933,-92.1081 708.5,-72 724.695,-59.7425 744.104,-48.6841 761.429,-39.8788"/>
<polygon fill="black" stroke="black" points="761.701,-39.7446 765.307,-33.5002 772.459,-34.4279 768.852,-40.6722 761.701,-39.7446"/>
</g>
<!-- ndDir -->
<g id="node36" class="node"><title>ndDir</title>
<g id="a_node36_12"><a xlink:href="https://github.com/rust-crdt/rust-crdt/blob/master/src/pncounter.rs#:~:text=enum%20Dir" xlink:title="&lt;TABLE&gt;">
<polygon fill="yellow" stroke="none" points="1162.5,-479.5 1162.5,-516.5 1211.5,-516.5 1211.5,-479.5 1162.5,-479.5"/>
<polygon fill="none" stroke="black" points="1162.5,-479.5 1162.5,-516.5 1211.5,-516.5 1211.5,-479.5 1162.5,-479.5"/>
<text text-anchor="start" x="1176.5" y="-495.3" font-family="Arial" font-weight="bold" font-size="14.00">Dir</text>
<polygon fill="white" stroke="none" points="1162.5,-427.5 1162.5,-479.5 1211.5,-479.5 1211.5,-427.5 1162.5,-427.5"/>
<polygon fill="none" stroke="black" points="1162.5,-427.5 1162.5,-479.5 1211.5,-479.5 1211.5,-427.5 1162.5,-427.5"/>
<text text-anchor="start" x="1173.5" y="-457.3" font-family="Arial" font-size="14.00">Pos</text>
<text text-anchor="start" x="1173.5" y="-442.3" font-family="Arial" font-size="14.00">Neg</text>
<polygon fill="none" stroke="black" points="1161,-427 1161,-518 1212,-518 1212,-427 1161,-427"/>
</a>
</g>
</g>
<!-- ndDir&#45;&gt;ndOp -->
<g id="edge68" class="edge"><title>ndDir&#45;&gt;ndOp</title>
<path fill="none" stroke="black" d="M1186.5,-422.731C1186.5,-415.141 1186.5,-407.219 1186.5,-399.401"/>
<polygon fill="black" stroke="black" points="1186.5,-399.263 1182.5,-393.263 1186.5,-387.263 1190.5,-393.263 1186.5,-399.263"/>
</g>
</g>
</svg>
