<?xml version="1.0" encoding="UTF-8" standalone="no"?>
<!DOCTYPE svg PUBLIC "-//W3C//DTD SVG 1.1//EN"
 "http://www.w3.org/Graphics/SVG/1.1/DTD/svg11.dtd">
<!-- Generated by graphviz version 2.38.0 (20140413.2041)
 -->
<!-- Title: ml Pages: 1 -->
<svg width="1122pt" height="441pt"
 viewBox="0.00 0.00 1122.00 441.00" xmlns="http://www.w3.org/2000/svg" xmlns:xlink="http://www.w3.org/1999/xlink">
<g id="graph0" class="graph" transform="scale(1 1) rotate(0) translate(4 437)">
<title>ml</title>
<polygon fill="white" stroke="none" points="-4,4 -4,-437 1118,-437 1118,4 -4,4"/>
<!-- ndSecuredLinkedList -->
<g id="node1" class="node"><title>ndSecuredLinkedList</title>
<text text-anchor="middle" x="583.5" y="-14.3" font-family="Times,serif" font-size="14.00">ndSecuredLinkedList</text>
</g>
<!-- ndDeserialized -->
<g id="node2" class="node"><title>ndDeserialized</title>
<text text-anchor="middle" x="509.5" y="-140.3" font-family="Times,serif" font-size="14.00">ndDeserialized</text>
</g>
<!-- ndDeserialized&#45;&gt;ndSecuredLinkedList -->
<g id="edge1" class="edge"><title>ndDeserialized&#45;&gt;ndSecuredLinkedList</title>
<path fill="none" stroke="black" stroke-dasharray="5,2" d="M519.789,-125.758C532.326,-104.751 553.622,-69.066 568.111,-44.7874"/>
<polygon fill="black" stroke="black" points="573.298,-36.0952 572.038,-46.9885 570.736,-40.3888 568.173,-44.6824 568.173,-44.6824 568.173,-44.6824 570.736,-40.3888 564.309,-42.3763 573.298,-36.0952 573.298,-36.0952"/>
</g>
<!-- ndError -->
<g id="node3" class="node"><title>ndError</title>
<g id="a_node3_0"><a xlink:href="https://github.com/maidsafe/secured_linked_list/blob/master/src/error.rs#:~:text=enum%20Error" xlink:title="&lt;TABLE&gt;">
<polygon fill="yellow" stroke="none" points="585.5,-174 585.5,-211 731.5,-211 731.5,-174 585.5,-174"/>
<polygon fill="none" stroke="black" points="585.5,-174 585.5,-211 731.5,-211 731.5,-174 585.5,-174"/>
<text text-anchor="start" x="640" y="-189.8" font-family="Arial" font-weight="bold" font-size="14.00">Error</text>
<polygon fill="white" stroke="none" points="585.5,-77 585.5,-174 731.5,-174 731.5,-77 585.5,-77"/>
<polygon fill="none" stroke="black" points="585.5,-77 585.5,-174 731.5,-174 731.5,-77 585.5,-77"/>
<text text-anchor="start" x="596.5" y="-151.8" font-family="Arial" font-size="14.00">FailedSignature</text>
<text text-anchor="start" x="596.5" y="-136.8" font-family="Arial" font-size="14.00">KeyNotFound</text>
<text text-anchor="start" x="596.5" y="-121.8" font-family="Arial" font-size="14.00">SubChainNotFound</text>
<text text-anchor="start" x="596.5" y="-106.8" font-family="Arial" font-size="14.00">Untrusted</text>
<text text-anchor="start" x="596.5" y="-91.8" font-family="Arial" font-size="14.00">InvalidOperation</text>
<polygon fill="none" stroke="black" points="584.5,-76 584.5,-212 732.5,-212 732.5,-76 584.5,-76"/>
</a>
</g>
</g>
<!-- ndError&#45;&gt;ndSecuredLinkedList -->
<g id="edge2" class="edge"><title>ndError&#45;&gt;ndSecuredLinkedList</title>
<path fill="none" stroke="black" d="M615.524,-71.9468C609.627,-62.1963 603.914,-52.7511 598.986,-44.604"/>
<polygon fill="black" stroke="black" points="593.788,-36.01 602.814,-42.2377 596.376,-40.2883 598.964,-44.5667 598.964,-44.5667 598.964,-44.5667 596.376,-40.2883 595.113,-46.8956 593.788,-36.01 593.788,-36.01"/>
</g>
<!-- ndIntegrityError -->
<g id="node4" class="node"><title>ndIntegrityError</title>
<g id="a_node4_1"><a xlink:href="https://github.com/maidsafe/secured_linked_list/blob/master/src/error.rs#:~:text=enum%20IntegrityError" xlink:title="&lt;TABLE&gt;">
<polygon fill="yellow" stroke="none" points="968.5,-357.5 968.5,-394.5 1105.5,-394.5 1105.5,-357.5 968.5,-357.5"/>
<polygon fill="none" stroke="black" points="968.5,-357.5 968.5,-394.5 1105.5,-394.5 1105.5,-357.5 968.5,-357.5"/>
<text text-anchor="start" x="990" y="-373.3" font-family="Arial" font-weight="bold" font-size="14.00">IntegrityError</text>
<polygon fill="white" stroke="none" points="968.5,-290.5 968.5,-357.5 1105.5,-357.5 1105.5,-290.5 968.5,-290.5"/>
<polygon fill="none" stroke="black" points="968.5,-290.5 968.5,-357.5 1105.5,-357.5 1105.5,-290.5 968.5,-290.5"/>
<text text-anchor="start" x="979.5" y="-335.3" font-family="Arial" font-size="14.00">FailedSignature</text>
<text text-anchor="start" x="979.5" y="-320.3" font-family="Arial" font-size="14.00">ParentNotFound</text>
<text text-anchor="start" x="979.5" y="-305.3" font-family="Arial" font-size="14.00">WrongBlockOrder</text>
<polygon fill="none" stroke="black" points="967,-289.5 967,-395.5 1106,-395.5 1106,-289.5 967,-289.5"/>
</a>
</g>
</g>
<!-- ndBranch -->
<g id="node5" class="node"><title>ndBranch</title>
<text text-anchor="middle" x="793.5" y="-140.3" font-family="Times,serif" font-size="14.00">ndBranch</text>
</g>
<!-- ndBranch&#45;&gt;ndSecuredLinkedList -->
<g id="edge3" class="edge"><title>ndBranch&#45;&gt;ndSecuredLinkedList</title>
<path fill="none" stroke="black" d="M787.035,-125.948C780.092,-109.836 767.565,-86.0936 749.5,-72 723.784,-51.9375 690.286,-39.3732 660.122,-31.5498"/>
<polygon fill="black" stroke="black" points="650.037,-29.0744 660.821,-27.0878 654.893,-30.2662 659.748,-31.4581 659.748,-31.4581 659.748,-31.4581 654.893,-30.2662 658.676,-35.8284 650.037,-29.0744 650.037,-29.0744"/>
</g>
<!-- ndBlock -->
<g id="node6" class="node"><title>ndBlock</title>
<g id="a_node6_2"><a xlink:href="https://github.com/maidsafe/secured_linked_list/blob/master/src/block.rs#:~:text=struct%20Block" xlink:title="&lt;TABLE&gt;">
<polygon fill="lightblue" stroke="none" points="9.5,-390.5 9.5,-427.5 932.5,-427.5 932.5,-390.5 9.5,-390.5"/>
<polygon fill="none" stroke="black" points="9.5,-390.5 9.5,-427.5 932.5,-427.5 932.5,-390.5 9.5,-390.5"/>
<text text-anchor="start" x="20.5" y="-406.3" font-family="Arial" font-weight="bold" font-size="14.00">pub(crate) struct Block { &#160;&#160;&#160;pub(crate) key: bls::PublicKey, &#160;&#160;&#160;pub(crate) signature: bls::Signature, &#160;&#160;&#160;pub(crate) parent_index: usize,}</text>
<polygon fill="white" stroke="none" points="9.5,-323.5 9.5,-390.5 932.5,-390.5 932.5,-323.5 9.5,-323.5"/>
<polygon fill="none" stroke="black" points="9.5,-323.5 9.5,-390.5 932.5,-390.5 932.5,-323.5 9.5,-323.5"/>
<text text-anchor="start" x="20.5" y="-368.3" font-family="Arial" font-size="14.00">&#45; key: bls::PublicKey</text>
<text text-anchor="start" x="20.5" y="-353.3" font-family="Arial" font-size="14.00">&#45; signature: bls::Signature</text>
<text text-anchor="start" x="20.5" y="-338.3" font-family="Arial" font-size="14.00">&#45; parent_index: usize</text>
<polygon fill="white" stroke="none" points="9.5,-256.5 9.5,-323.5 932.5,-323.5 932.5,-256.5 9.5,-256.5"/>
<polygon fill="none" stroke="black" points="9.5,-256.5 9.5,-323.5 932.5,-323.5 932.5,-256.5 9.5,-256.5"/>
<text text-anchor="start" x="20.5" y="-301.3" font-family="Arial" font-size="14.00">&#45; verify(&amp;self, parent_key: &amp;bls::PublicKey) &#45;&gt; bool</text>
<text text-anchor="start" x="20.5" y="-286.3" font-family="Arial" font-size="14.00">&#45; cmp(&amp;self, other: &amp;Self) &#45;&gt; Ordering</text>
<text text-anchor="start" x="20.5" y="-271.3" font-family="Arial" font-size="14.00">&#45; partial_cmp(&amp;self, other: &amp;Self) &#45;&gt; Option&lt;Ordering&gt;</text>
<polygon fill="none" stroke="black" points="8,-256 8,-429 933,-429 933,-256 8,-256"/>
</a>
</g>
</g>
<!-- ndBlock&#45;&gt;ndSecuredLinkedList -->
<g id="edge4" class="edge"><title>ndBlock&#45;&gt;ndSecuredLinkedList</title>
<path fill="none" stroke="black" stroke-dasharray="5,2" d="M437.683,-251.694C423.153,-195.467 416.297,-124.069 451.5,-72 464.045,-53.4439 484.272,-41.3836 505.161,-33.5456"/>
<polygon fill="black" stroke="black" points="505.423,-33.457 509.824,-27.745 516.79,-29.611 512.388,-35.323 505.423,-33.457"/>
</g>
<!-- ndBlock&#45;&gt;ndDeserialized -->
<g id="edge5" class="edge"><title>ndBlock&#45;&gt;ndDeserialized</title>
<path fill="none" stroke="black" d="M488.288,-251.875C493.852,-223.844 499.602,-194.868 503.71,-174.171"/>
<polygon fill="black" stroke="black" points="503.76,-173.918 501.005,-167.254 506.097,-162.148 508.852,-168.812 503.76,-173.918"/>
</g>
</g>
</svg>
