<?xml version="1.0" encoding="UTF-8" standalone="no"?>
<!DOCTYPE svg PUBLIC "-//W3C//DTD SVG 1.1//EN"
 "http://www.w3.org/Graphics/SVG/1.1/DTD/svg11.dtd">
<!-- Generated by graphviz version 2.38.0 (20140413.2041)
 -->
<!-- Title: ml Pages: 1 -->
<svg width="1214pt" height="706pt"
 viewBox="0.00 0.00 1213.50 706.00" xmlns="http://www.w3.org/2000/svg" xmlns:xlink="http://www.w3.org/1999/xlink">
<g id="graph0" class="graph" transform="scale(1 1) rotate(0) translate(4 702)">
<title>ml</title>
<polygon fill="white" stroke="none" points="-4,4 -4,-702 1209.5,-702 1209.5,4 -4,4"/>
<!-- ndSecuredLinkedList -->
<g id="node1" class="node"><title>ndSecuredLinkedList</title>
<g id="a_node1_0"><a xlink:href="https://github.com/maidsafe/secured_linked_list/blob/master/src/lib.rs#:~:text=struct%20SecuredLinkedList" xlink:title="&lt;TABLE&gt;">
<polygon fill="lightblue" stroke="none" points="9,-438.5 9,-475.5 737,-475.5 737,-438.5 9,-438.5"/>
<polygon fill="none" stroke="black" points="9,-438.5 9,-475.5 737,-475.5 737,-438.5 9,-438.5"/>
<text text-anchor="start" x="307" y="-454.3" font-family="Arial" font-weight="bold" font-size="14.00">SecuredLinkedList</text>
<polygon fill="white" stroke="none" points="9,-386.5 9,-438.5 737,-438.5 737,-386.5 9,-386.5"/>
<polygon fill="none" stroke="black" points="9,-386.5 9,-438.5 737,-438.5 737,-386.5 9,-386.5"/>
<text text-anchor="start" x="20" y="-416.3" font-family="Arial" font-size="14.00">&#45; root: bls::PublicKey</text>
<text text-anchor="start" x="20" y="-401.3" font-family="Arial" font-size="14.00">&#45; tree: Vec&lt;Block&gt;</text>
<polygon fill="white" stroke="none" points="9,-4.5 9,-386.5 737,-386.5 737,-4.5 9,-4.5"/>
<polygon fill="none" stroke="black" points="9,-4.5 9,-386.5 737,-386.5 737,-4.5 9,-4.5"/>
<text text-anchor="start" x="20" y="-364.3" font-family="Arial" font-size="14.00">&#45; new(root: bls::PublicKey) &#45;&gt; Self</text>
<text text-anchor="start" x="20" y="-349.3" font-family="Arial" font-size="14.00">&#45; insert(&amp;mut self, parent_key: &amp;bls::PublicKey, key: bls::PublicKey, signature: bls::Signature) &#45;&gt; Result&lt;(), Error&gt;</text>
<text text-anchor="start" x="20" y="-334.3" font-family="Arial" font-size="14.00">&#45; join(&amp;mut self, mut other: Self) &#45;&gt; Result&lt;(), Error&gt;</text>
<text text-anchor="start" x="20" y="-319.3" font-family="Arial" font-size="14.00">&#45; get_proof_chain(&amp;self, from_key: &amp;bls::PublicKey, to_key: &amp;bls::PublicKey) &#45;&gt; Result&lt;Self, Error&gt;</text>
<text text-anchor="start" x="20" y="-304.3" font-family="Arial" font-size="14.00">&#45; minimize(&amp;self, required_keys: I) &#45;&gt; Result&lt;Self, Error&gt;</text>
<text text-anchor="start" x="20" y="-289.3" font-family="Arial" font-size="14.00">&#45; truncate(&amp;self, count: usize) &#45;&gt; Self</text>
<text text-anchor="start" x="20" y="-274.3" font-family="Arial" font-size="14.00">&#45; extend(&amp;self, trusted_key: &amp;bls::PublicKey, super_chain: &amp;Self) &#45;&gt; Result&lt;Self, Error&gt;</text>
<text text-anchor="start" x="20" y="-259.3" font-family="Arial" font-size="14.00">&#45; keys(&amp;self) &#45;&gt; impl DoubleEndedIterator&lt;Item = &amp;bls::PublicKey&gt;</text>
<text text-anchor="start" x="20" y="-244.3" font-family="Arial" font-size="14.00">&#45; root_key(&amp;self) &#45;&gt; &amp;bls::PublicKey</text>
<text text-anchor="start" x="20" y="-229.3" font-family="Arial" font-size="14.00">&#45; last_key(&amp;self) &#45;&gt; &amp;bls::PublicKey</text>
<text text-anchor="start" x="20" y="-214.3" font-family="Arial" font-size="14.00">&#45; prev_key(&amp;self) &#45;&gt; &amp;bls::PublicKey</text>
<text text-anchor="start" x="20" y="-199.3" font-family="Arial" font-size="14.00">&#45; has_key(&amp;self, key: &amp;bls::PublicKey) &#45;&gt; bool</text>
<text text-anchor="start" x="20" y="-184.3" font-family="Arial" font-size="14.00">&#45; self_verify(&amp;self) &#45;&gt; bool</text>
<text text-anchor="start" x="20" y="-169.3" font-family="Arial" font-size="14.00">&#45; check_trust(&amp;self, trusted_keys: I) &#45;&gt; bool</text>
<text text-anchor="start" x="20" y="-154.3" font-family="Arial" font-size="14.00">&#45; cmp_by_position(&amp;self, lhs: &amp;bls::PublicKey, rhs: &amp;bls::PublicKey) &#45;&gt; Ordering</text>
<text text-anchor="start" x="20" y="-139.3" font-family="Arial" font-size="14.00">&#45; len(&amp;self) &#45;&gt; usize</text>
<text text-anchor="start" x="20" y="-124.3" font-family="Arial" font-size="14.00">&#45; main_branch_len(&amp;self) &#45;&gt; usize</text>
<text text-anchor="start" x="20" y="-109.3" font-family="Arial" font-size="14.00">&#45; insert_block(&amp;mut self, new_block: Block) &#45;&gt; usize</text>
<text text-anchor="start" x="20" y="-94.3" font-family="Arial" font-size="14.00">&#45; index_of(&amp;self, key: &amp;bls::PublicKey) &#45;&gt; Option&lt;usize&gt;</text>
<text text-anchor="start" x="20" y="-79.3" font-family="Arial" font-size="14.00">&#45; parent_index_at(&amp;self, index: usize) &#45;&gt; Option&lt;usize&gt;</text>
<text text-anchor="start" x="20" y="-64.3" font-family="Arial" font-size="14.00">&#45; is_ancestor(&amp;self, lhs: usize, rhs: usize) &#45;&gt; bool</text>
<text text-anchor="start" x="20" y="-49.3" font-family="Arial" font-size="14.00">&#45; closest_common_ancestor(&amp;self, mut min_index: usize, mut max_index: usize) &#45;&gt; usize</text>
<text text-anchor="start" x="20" y="-34.3" font-family="Arial" font-size="14.00">&#45; branch(&amp;self, index: usize) &#45;&gt; Branch</text>
<text text-anchor="start" x="20" y="-19.3" font-family="Arial" font-size="14.00">&#45; fmt(&amp;self, f: &amp;mut Formatter) &#45;&gt; fmt::Result</text>
<polygon fill="none" stroke="black" points="8,-4 8,-477 738,-477 738,-4 8,-4"/>
</a>
</g>
</g>
<!-- ndDeserialized -->
<g id="node2" class="node"><title>ndDeserialized</title>
<g id="a_node2_1"><a xlink:href="https://github.com/maidsafe/secured_linked_list/blob/master/src/deserialized.rs#:~:text=struct%20Deserialized" xlink:title="&lt;TABLE&gt;">
<polygon fill="lightblue" stroke="none" points="774,-266.5 774,-303.5 1147,-303.5 1147,-266.5 774,-266.5"/>
<polygon fill="none" stroke="black" points="774,-266.5 774,-303.5 1147,-303.5 1147,-266.5 774,-266.5"/>
<text text-anchor="start" x="917.5" y="-282.3" font-family="Arial" font-weight="bold" font-size="14.00">Deserialized</text>
<polygon fill="white" stroke="none" points="774,-214.5 774,-266.5 1147,-266.5 1147,-214.5 774,-214.5"/>
<polygon fill="none" stroke="black" points="774,-214.5 774,-266.5 1147,-266.5 1147,-214.5 774,-214.5"/>
<text text-anchor="start" x="785" y="-244.3" font-family="Arial" font-size="14.00">&#45; root: bls::PublicKey</text>
<text text-anchor="start" x="785" y="-229.3" font-family="Arial" font-size="14.00">&#45; tree: Vec&lt;Block&gt;</text>
<polygon fill="white" stroke="none" points="774,-177.5 774,-214.5 1147,-214.5 1147,-177.5 774,-177.5"/>
<polygon fill="none" stroke="black" points="774,-177.5 774,-214.5 1147,-214.5 1147,-177.5 774,-177.5"/>
<text text-anchor="start" x="785" y="-192.3" font-family="Arial" font-size="14.00">&#45; try_from(src: Deserialized) &#45;&gt; Result&lt;Self, Self::Error&gt;</text>
<polygon fill="none" stroke="black" points="772.5,-176.5 772.5,-304.5 1147.5,-304.5 1147.5,-176.5 772.5,-176.5"/>
</a>
</g>
</g>
<!-- ndError -->
<g id="node3" class="node"><title>ndError</title>
<g id="a_node3_2"><a xlink:href="https://github.com/maidsafe/secured_linked_list/blob/master/src/error.rs#:~:text=enum%20Error" xlink:title="&lt;TABLE&gt;">
<polygon fill="yellow" stroke="none" points="117,-637.5 117,-674.5 263,-674.5 263,-637.5 117,-637.5"/>
<polygon fill="none" stroke="black" points="117,-637.5 117,-674.5 263,-674.5 263,-637.5 117,-637.5"/>
<text text-anchor="start" x="171.5" y="-653.3" font-family="Arial" font-weight="bold" font-size="14.00">Error</text>
<polygon fill="white" stroke="none" points="117,-540.5 117,-637.5 263,-637.5 263,-540.5 117,-540.5"/>
<polygon fill="none" stroke="black" points="117,-540.5 117,-637.5 263,-637.5 263,-540.5 117,-540.5"/>
<text text-anchor="start" x="128" y="-615.3" font-family="Arial" font-size="14.00">FailedSignature</text>
<text text-anchor="start" x="128" y="-600.3" font-family="Arial" font-size="14.00">KeyNotFound</text>
<text text-anchor="start" x="128" y="-585.3" font-family="Arial" font-size="14.00">SubChainNotFound</text>
<text text-anchor="start" x="128" y="-570.3" font-family="Arial" font-size="14.00">Untrusted</text>
<text text-anchor="start" x="128" y="-555.3" font-family="Arial" font-size="14.00">InvalidOperation</text>
<polygon fill="none" stroke="black" points="116,-539.5 116,-675.5 264,-675.5 264,-539.5 116,-539.5"/>
</a>
</g>
</g>
<!-- ndError&#45;&gt;ndSecuredLinkedList -->
<g id="edge1" class="edge"><title>ndError&#45;&gt;ndSecuredLinkedList</title>
<path fill="none" stroke="black" d="M225.719,-535.258C232.652,-521.429 240.276,-506.222 248.294,-490.23"/>
<polygon fill="black" stroke="black" points="252.787,-481.269 252.328,-492.225 250.546,-485.738 248.305,-490.208 248.305,-490.208 248.305,-490.208 250.546,-485.738 244.282,-488.191 252.787,-481.269 252.787,-481.269"/>
</g>
<!-- ndIntegrityError -->
<g id="node4" class="node"><title>ndIntegrityError</title>
<g id="a_node4_3"><a xlink:href="https://github.com/maidsafe/secured_linked_list/blob/master/src/error.rs#:~:text=enum%20IntegrityError" xlink:title="&lt;TABLE&gt;">
<polygon fill="yellow" stroke="none" points="1060,-622.5 1060,-659.5 1197,-659.5 1197,-622.5 1060,-622.5"/>
<polygon fill="none" stroke="black" points="1060,-622.5 1060,-659.5 1197,-659.5 1197,-622.5 1060,-622.5"/>
<text text-anchor="start" x="1081.5" y="-638.3" font-family="Arial" font-weight="bold" font-size="14.00">IntegrityError</text>
<polygon fill="white" stroke="none" points="1060,-555.5 1060,-622.5 1197,-622.5 1197,-555.5 1060,-555.5"/>
<polygon fill="none" stroke="black" points="1060,-555.5 1060,-622.5 1197,-622.5 1197,-555.5 1060,-555.5"/>
<text text-anchor="start" x="1071" y="-600.3" font-family="Arial" font-size="14.00">FailedSignature</text>
<text text-anchor="start" x="1071" y="-585.3" font-family="Arial" font-size="14.00">ParentNotFound</text>
<text text-anchor="start" x="1071" y="-570.3" font-family="Arial" font-size="14.00">WrongBlockOrder</text>
<polygon fill="none" stroke="black" points="1058.5,-554.5 1058.5,-660.5 1197.5,-660.5 1197.5,-554.5 1058.5,-554.5"/>
</a>
</g>
</g>
<!-- ndBranch -->
<g id="node5" class="node"><title>ndBranch</title>
<g id="a_node5_4"><a xlink:href="https://github.com/maidsafe/secured_linked_list/blob/master/src/branch.rs#:~:text=struct%20Branch" xlink:title="&lt;TABLE&gt;">
<polygon fill="lightblue" stroke="none" points="299,-633.5 299,-670.5 565,-670.5 565,-633.5 299,-633.5"/>
<polygon fill="none" stroke="black" points="299,-633.5 299,-670.5 565,-670.5 565,-633.5 299,-633.5"/>
<text text-anchor="start" x="406" y="-649.3" font-family="Arial" font-weight="bold" font-size="14.00">Branch</text>
<polygon fill="white" stroke="none" points="299,-581.5 299,-633.5 565,-633.5 565,-581.5 299,-581.5"/>
<polygon fill="none" stroke="black" points="299,-581.5 299,-633.5 565,-633.5 565,-581.5 299,-581.5"/>
<text text-anchor="start" x="310" y="-611.3" font-family="Arial" font-size="14.00">&#45; chain: &amp;&#39;a SecuredLinkedList</text>
<text text-anchor="start" x="310" y="-596.3" font-family="Arial" font-size="14.00">&#45; index: usize</text>
<polygon fill="white" stroke="none" points="299,-544.5 299,-581.5 565,-581.5 565,-544.5 299,-544.5"/>
<polygon fill="none" stroke="black" points="299,-544.5 299,-581.5 565,-581.5 565,-544.5 299,-544.5"/>
<text text-anchor="start" x="310" y="-559.3" font-family="Arial" font-size="14.00">&#45; next(&amp;mut self) &#45;&gt; Option&lt;Self::Item&gt;</text>
<polygon fill="none" stroke="black" points="298,-543.5 298,-671.5 566,-671.5 566,-543.5 298,-543.5"/>
</a>
</g>
</g>
<!-- ndBranch&#45;&gt;ndSecuredLinkedList -->
<g id="edge2" class="edge"><title>ndBranch&#45;&gt;ndSecuredLinkedList</title>
<path fill="none" stroke="black" d="M421.11,-539.128C418.758,-524.578 416.139,-508.378 413.372,-491.259"/>
<polygon fill="black" stroke="black" points="411.727,-481.08 417.765,-490.234 412.524,-486.016 413.322,-490.952 413.322,-490.952 413.322,-490.952 412.524,-486.016 408.88,-491.67 411.727,-481.08 411.727,-481.08"/>
</g>
<!-- ndBlock -->
<g id="node6" class="node"><title>ndBlock</title>
<g id="a_node6_5"><a xlink:href="https://github.com/maidsafe/secured_linked_list/blob/master/src/block.rs#:~:text=struct%20Block" xlink:title="&lt;TABLE&gt;">
<polygon fill="lightblue" stroke="none" points="661,-655.5 661,-692.5 1024,-692.5 1024,-655.5 661,-655.5"/>
<polygon fill="none" stroke="black" points="661,-655.5 661,-692.5 1024,-692.5 1024,-655.5 661,-655.5"/>
<text text-anchor="start" x="822.5" y="-671.3" font-family="Arial" font-weight="bold" font-size="14.00">Block</text>
<polygon fill="white" stroke="none" points="661,-588.5 661,-655.5 1024,-655.5 1024,-588.5 661,-588.5"/>
<polygon fill="none" stroke="black" points="661,-588.5 661,-655.5 1024,-655.5 1024,-588.5 661,-588.5"/>
<text text-anchor="start" x="672" y="-633.3" font-family="Arial" font-size="14.00">&#45; key: bls::PublicKey</text>
<text text-anchor="start" x="672" y="-618.3" font-family="Arial" font-size="14.00">&#45; signature: bls::Signature</text>
<text text-anchor="start" x="672" y="-603.3" font-family="Arial" font-size="14.00">&#45; parent_index: usize</text>
<polygon fill="white" stroke="none" points="661,-521.5 661,-588.5 1024,-588.5 1024,-521.5 661,-521.5"/>
<polygon fill="none" stroke="black" points="661,-521.5 661,-588.5 1024,-588.5 1024,-521.5 661,-521.5"/>
<text text-anchor="start" x="672" y="-566.3" font-family="Arial" font-size="14.00">&#45; verify(&amp;self, parent_key: &amp;bls::PublicKey) &#45;&gt; bool</text>
<text text-anchor="start" x="672" y="-551.3" font-family="Arial" font-size="14.00">&#45; cmp(&amp;self, other: &amp;Self) &#45;&gt; Ordering</text>
<text text-anchor="start" x="672" y="-536.3" font-family="Arial" font-size="14.00">&#45; partial_cmp(&amp;self, other: &amp;Self) &#45;&gt; Option&lt;Ordering&gt;</text>
<polygon fill="none" stroke="black" points="659.5,-521 659.5,-694 1024.5,-694 1024.5,-521 659.5,-521"/>
</a>
</g>
</g>
<!-- ndBlock&#45;&gt;ndSecuredLinkedList -->
<g id="edge3" class="edge"><title>ndBlock&#45;&gt;ndSecuredLinkedList</title>
<path fill="none" stroke="black" stroke-dasharray="5,2" d="M726.969,-516.977C715.299,-507.895 703.09,-498.393 690.516,-488.607"/>
<polygon fill="black" stroke="black" points="690.301,-488.44 683.11,-487.912 680.831,-481.07 688.023,-481.599 690.301,-488.44"/>
</g>
<!-- ndBlock&#45;&gt;ndDeserialized -->
<g id="edge4" class="edge"><title>ndBlock&#45;&gt;ndDeserialized</title>
<path fill="none" stroke="black" d="M871.017,-516.743C890.489,-456.513 915.894,-377.928 934.572,-320.154"/>
<polygon fill="black" stroke="black" points="934.641,-319.94 932.681,-313.001 938.333,-308.522 940.293,-315.462 934.641,-319.94"/>
</g>
</g>
</svg>
