<?xml version="1.0" encoding="UTF-8" standalone="no"?>
<!DOCTYPE svg PUBLIC "-//W3C//DTD SVG 1.1//EN"
 "http://www.w3.org/Graphics/SVG/1.1/DTD/svg11.dtd">
<!-- Generated by graphviz version 2.38.0 (20140413.2041)
 -->
<!-- Title: ml Pages: 1 -->
<svg width="814pt" height="287pt"
 viewBox="0.00 0.00 813.50 287.00" xmlns="http://www.w3.org/2000/svg" xmlns:xlink="http://www.w3.org/1999/xlink">
<g id="graph0" class="graph" transform="scale(1 1) rotate(0) translate(4 283)">
<title>ml</title>
<polygon fill="white" stroke="none" points="-4,4 -4,-283 809.5,-283 809.5,4 -4,4"/>
<!-- ndSecuredLinkedList -->
<g id="node1" class="node"><title>ndSecuredLinkedList</title>
<polygon fill="lightblue" stroke="none" points="221,-56.5 221,-93.5 375,-93.5 375,-56.5 221,-56.5"/>
<polygon fill="none" stroke="black" points="221,-56.5 221,-93.5 375,-93.5 375,-56.5 221,-56.5"/>
<text text-anchor="start" x="232" y="-72.3" font-family="Arial" font-weight="bold" font-size="14.00">SecuredLinkedList</text>
<polygon fill="white" stroke="none" points="221,-4.5 221,-56.5 375,-56.5 375,-4.5 221,-4.5"/>
<polygon fill="none" stroke="black" points="221,-4.5 221,-56.5 375,-56.5 375,-4.5 221,-4.5"/>
<text text-anchor="start" x="232" y="-34.3" font-family="Arial" font-size="14.00">&#45; root: bls::PublicKey</text>
<text text-anchor="start" x="232" y="-19.3" font-family="Arial" font-size="14.00">&#45; tree: Vec&lt;Block&gt;</text>
<polygon fill="none" stroke="black" points="220,-4 220,-95 376,-95 376,-4 220,-4"/>
</g>
<!-- ndDeserialized -->
<g id="node2" class="node"><title>ndDeserialized</title>
<polygon fill="lightblue" stroke="none" points="456,-56.5 456,-93.5 609,-93.5 609,-56.5 456,-56.5"/>
<polygon fill="none" stroke="black" points="456,-56.5 456,-93.5 609,-93.5 609,-56.5 456,-56.5"/>
<text text-anchor="start" x="489.5" y="-72.3" font-family="Arial" font-weight="bold" font-size="14.00">Deserialized</text>
<polygon fill="white" stroke="none" points="456,-4.5 456,-56.5 609,-56.5 609,-4.5 456,-4.5"/>
<polygon fill="none" stroke="black" points="456,-4.5 456,-56.5 609,-56.5 609,-4.5 456,-4.5"/>
<text text-anchor="start" x="467" y="-34.3" font-family="Arial" font-size="14.00">&#45; root: bls::PublicKey</text>
<text text-anchor="start" x="467" y="-19.3" font-family="Arial" font-size="14.00">&#45; tree: Vec&lt;Block&gt;</text>
<polygon fill="none" stroke="black" points="454.5,-4 454.5,-95 609.5,-95 609.5,-4 454.5,-4"/>
</g>
<!-- ndError -->
<g id="node3" class="node"><title>ndError</title>
<polygon fill="yellow" stroke="none" points="9,-237 9,-274 155,-274 155,-237 9,-237"/>
<polygon fill="none" stroke="black" points="9,-237 9,-274 155,-274 155,-237 9,-237"/>
<text text-anchor="start" x="63.5" y="-252.8" font-family="Arial" font-weight="bold" font-size="14.00">Error</text>
<polygon fill="white" stroke="none" points="9,-140 9,-237 155,-237 155,-140 9,-140"/>
<polygon fill="none" stroke="black" points="9,-140 9,-237 155,-237 155,-140 9,-140"/>
<text text-anchor="start" x="20" y="-214.8" font-family="Arial" font-size="14.00">FailedSignature</text>
<text text-anchor="start" x="20" y="-199.8" font-family="Arial" font-size="14.00">KeyNotFound</text>
<text text-anchor="start" x="20" y="-184.8" font-family="Arial" font-size="14.00">SubChainNotFound</text>
<text text-anchor="start" x="20" y="-169.8" font-family="Arial" font-size="14.00">Untrusted</text>
<text text-anchor="start" x="20" y="-154.8" font-family="Arial" font-size="14.00">InvalidOperation</text>
<polygon fill="none" stroke="black" points="8,-139 8,-275 156,-275 156,-139 8,-139"/>
</g>
<!-- ndError&#45;&gt;ndSecuredLinkedList -->
<g id="edge1" class="edge"><title>ndError&#45;&gt;ndSecuredLinkedList</title>
<path fill="none" stroke="black" d="M164.148,-141.502C167.125,-139.294 170.082,-137.121 173,-135 186.727,-125.023 201.512,-114.684 215.94,-104.805"/>
<polygon fill="black" stroke="black" points="224.383,-99.0477 218.656,-108.399 220.252,-101.865 216.121,-104.681 216.121,-104.681 216.121,-104.681 220.252,-101.865 213.586,-100.963 224.383,-99.0477 224.383,-99.0477"/>
</g>
<!-- ndIntegrityError -->
<g id="node4" class="node"><title>ndIntegrityError</title>
<polygon fill="yellow" stroke="none" points="660,-222 660,-259 797,-259 797,-222 660,-222"/>
<polygon fill="none" stroke="black" points="660,-222 660,-259 797,-259 797,-222 660,-222"/>
<text text-anchor="start" x="681.5" y="-237.8" font-family="Arial" font-weight="bold" font-size="14.00">IntegrityError</text>
<polygon fill="white" stroke="none" points="660,-155 660,-222 797,-222 797,-155 660,-155"/>
<polygon fill="none" stroke="black" points="660,-155 660,-222 797,-222 797,-155 660,-155"/>
<text text-anchor="start" x="671" y="-199.8" font-family="Arial" font-size="14.00">FailedSignature</text>
<text text-anchor="start" x="671" y="-184.8" font-family="Arial" font-size="14.00">ParentNotFound</text>
<text text-anchor="start" x="671" y="-169.8" font-family="Arial" font-size="14.00">WrongBlockOrder</text>
<polygon fill="none" stroke="black" points="658.5,-154 658.5,-260 797.5,-260 797.5,-154 658.5,-154"/>
</g>
<!-- ndBranch -->
<g id="node5" class="node"><title>ndBranch</title>
<polygon fill="lightblue" stroke="none" points="191,-214 191,-251 405,-251 405,-214 191,-214"/>
<polygon fill="none" stroke="black" points="191,-214 191,-251 405,-251 405,-214 191,-214"/>
<text text-anchor="start" x="272" y="-229.8" font-family="Arial" font-weight="bold" font-size="14.00">Branch</text>
<polygon fill="white" stroke="none" points="191,-162 191,-214 405,-214 405,-162 191,-162"/>
<polygon fill="none" stroke="black" points="191,-162 191,-214 405,-214 405,-162 191,-162"/>
<text text-anchor="start" x="202" y="-191.8" font-family="Arial" font-size="14.00">&#45; chain: &amp;&#39;a SecuredLinkedList</text>
<text text-anchor="start" x="202" y="-176.8" font-family="Arial" font-size="14.00">&#45; index: usize</text>
<polygon fill="none" stroke="black" points="190,-161.5 190,-252.5 406,-252.5 406,-161.5 190,-161.5"/>
</g>
<!-- ndBranch&#45;&gt;ndSecuredLinkedList -->
<g id="edge2" class="edge"><title>ndBranch&#45;&gt;ndSecuredLinkedList</title>
<path fill="none" stroke="black" d="M298,-157.225C298,-142.028 298,-125.107 298,-109.299"/>
<polygon fill="black" stroke="black" points="298,-99.1015 302.5,-109.101 298,-104.101 298,-109.101 298,-109.101 298,-109.101 298,-104.101 293.5,-109.102 298,-99.1015 298,-99.1015"/>
</g>
<!-- ndBlock -->
<g id="node6" class="node"><title>ndBlock</title>
<polygon fill="lightblue" stroke="none" points="441,-222 441,-259 623,-259 623,-222 441,-222"/>
<polygon fill="none" stroke="black" points="441,-222 441,-259 623,-259 623,-222 441,-222"/>
<text text-anchor="start" x="512" y="-237.8" font-family="Arial" font-weight="bold" font-size="14.00">Block</text>
<polygon fill="white" stroke="none" points="441,-155 441,-222 623,-222 623,-155 441,-155"/>
<polygon fill="none" stroke="black" points="441,-155 441,-222 623,-222 623,-155 441,-155"/>
<text text-anchor="start" x="452" y="-199.8" font-family="Arial" font-size="14.00">&#45; key: bls::PublicKey</text>
<text text-anchor="start" x="452" y="-184.8" font-family="Arial" font-size="14.00">&#45; signature: bls::Signature</text>
<text text-anchor="start" x="452" y="-169.8" font-family="Arial" font-size="14.00">&#45; parent_index: usize</text>
<polygon fill="none" stroke="black" points="440,-154 440,-260 624,-260 624,-154 440,-154"/>
</g>
<!-- ndBlock&#45;&gt;ndSecuredLinkedList -->
<g id="edge3" class="edge"><title>ndBlock&#45;&gt;ndSecuredLinkedList</title>
<path fill="none" stroke="black" stroke-dasharray="5,2" d="M447.521,-149.861C425.935,-135.517 402.745,-120.106 381.223,-105.804"/>
<polygon fill="black" stroke="black" points="381.131,-105.743 373.92,-105.754 371.137,-99.1015 378.348,-99.0908 381.131,-105.743"/>
</g>
<!-- ndBlock&#45;&gt;ndDeserialized -->
<g id="edge4" class="edge"><title>ndBlock&#45;&gt;ndDeserialized</title>
<path fill="none" stroke="black" d="M532,-149.861C532,-137.399 532,-124.132 532,-111.487"/>
<polygon fill="black" stroke="black" points="532,-111.101 528,-105.101 532,-99.1015 536,-105.101 532,-111.101"/>
</g>
</g>
</svg>
