<?xml version="1.0" encoding="UTF-8" standalone="no"?>
<!DOCTYPE svg PUBLIC "-//W3C//DTD SVG 1.1//EN"
 "http://www.w3.org/Graphics/SVG/1.1/DTD/svg11.dtd">
<!-- Generated by graphviz version 2.38.0 (20140413.2041)
 -->
<!-- Title: ml Pages: 1 -->
<svg width="793pt" height="272pt"
 viewBox="0.00 0.00 793.00 272.00" xmlns="http://www.w3.org/2000/svg" xmlns:xlink="http://www.w3.org/1999/xlink">
<g id="graph0" class="graph" transform="scale(1 1) rotate(0) translate(4 268)">
<title>ml</title>
<polygon fill="white" stroke="none" points="-4,4 -4,-268 789,-268 789,4 -4,4"/>
<!-- ndSecuredLinkedList -->
<g id="node1" class="node"><title>ndSecuredLinkedList</title>
<polygon fill="lightblue" stroke="none" points="200.5,-56.5 200.5,-93.5 354.5,-93.5 354.5,-56.5 200.5,-56.5"/>
<polygon fill="none" stroke="black" points="200.5,-56.5 200.5,-93.5 354.5,-93.5 354.5,-56.5 200.5,-56.5"/>
<text text-anchor="start" x="211.5" y="-72.3" font-family="Arial" font-weight="bold" font-size="14.00">SecuredLinkedList</text>
<polygon fill="white" stroke="none" points="200.5,-4.5 200.5,-56.5 354.5,-56.5 354.5,-4.5 200.5,-4.5"/>
<polygon fill="none" stroke="black" points="200.5,-4.5 200.5,-56.5 354.5,-56.5 354.5,-4.5 200.5,-4.5"/>
<text text-anchor="start" x="211.5" y="-34.3" font-family="Arial" font-size="14.00">&#45; root: bls::PublicKey</text>
<text text-anchor="start" x="211.5" y="-19.3" font-family="Arial" font-size="14.00">&#45; tree: Vec&lt;Block&gt;</text>
<polygon fill="none" stroke="black" points="199.5,-4 199.5,-95 355.5,-95 355.5,-4 199.5,-4"/>
</g>
<!-- ndDeserialized -->
<g id="node2" class="node"><title>ndDeserialized</title>
<polygon fill="lightblue" stroke="none" points="435.5,-56.5 435.5,-93.5 588.5,-93.5 588.5,-56.5 435.5,-56.5"/>
<polygon fill="none" stroke="black" points="435.5,-56.5 435.5,-93.5 588.5,-93.5 588.5,-56.5 435.5,-56.5"/>
<text text-anchor="start" x="469" y="-72.3" font-family="Arial" font-weight="bold" font-size="14.00">Deserialized</text>
<polygon fill="white" stroke="none" points="435.5,-4.5 435.5,-56.5 588.5,-56.5 588.5,-4.5 435.5,-4.5"/>
<polygon fill="none" stroke="black" points="435.5,-4.5 435.5,-56.5 588.5,-56.5 588.5,-4.5 435.5,-4.5"/>
<text text-anchor="start" x="446.5" y="-34.3" font-family="Arial" font-size="14.00">&#45; root: bls::PublicKey</text>
<text text-anchor="start" x="446.5" y="-19.3" font-family="Arial" font-size="14.00">&#45; tree: Vec&lt;Block&gt;</text>
<polygon fill="none" stroke="black" points="434,-4 434,-95 589,-95 589,-4 434,-4"/>
</g>
<!-- ndError -->
<g id="node3" class="node"><title>ndError</title>
<polygon fill="yellow" stroke="none" points="9.5,-221.5 9.5,-258.5 134.5,-258.5 134.5,-221.5 9.5,-221.5"/>
<polygon fill="none" stroke="black" points="9.5,-221.5 9.5,-258.5 134.5,-258.5 134.5,-221.5 9.5,-221.5"/>
<text text-anchor="start" x="53.5" y="-237.3" font-family="Arial" font-weight="bold" font-size="14.00">Error</text>
<polygon fill="white" stroke="none" points="9.5,-139.5 9.5,-221.5 134.5,-221.5 134.5,-139.5 9.5,-139.5"/>
<polygon fill="none" stroke="black" points="9.5,-139.5 9.5,-221.5 134.5,-221.5 134.5,-139.5 9.5,-139.5"/>
<text text-anchor="start" x="20.5" y="-199.3" font-family="Arial" font-size="14.00">FailedSignature</text>
<text text-anchor="start" x="20.5" y="-184.3" font-family="Arial" font-size="14.00">KeyNotFound</text>
<text text-anchor="start" x="20.5" y="-169.3" font-family="Arial" font-size="14.00">Untrusted</text>
<text text-anchor="start" x="20.5" y="-154.3" font-family="Arial" font-size="14.00">InvalidOperation</text>
<polygon fill="none" stroke="black" points="8,-139 8,-260 135,-260 135,-139 8,-139"/>
</g>
<!-- ndError&#45;&gt;ndSecuredLinkedList -->
<g id="edge1" class="edge"><title>ndError&#45;&gt;ndSecuredLinkedList</title>
<path fill="none" stroke="black" d="M143.287,-141.798C146.387,-139.484 149.467,-137.21 152.5,-135 166.216,-125.007 180.995,-114.66 195.421,-104.778"/>
<polygon fill="black" stroke="black" points="203.863,-99.02 198.138,-108.372 199.733,-101.837 195.602,-104.655 195.602,-104.655 195.602,-104.655 199.733,-101.837 193.066,-100.937 203.863,-99.02 203.863,-99.02"/>
</g>
<!-- ndIntegrityError -->
<g id="node4" class="node"><title>ndIntegrityError</title>
<polygon fill="yellow" stroke="none" points="639.5,-214.5 639.5,-251.5 776.5,-251.5 776.5,-214.5 639.5,-214.5"/>
<polygon fill="none" stroke="black" points="639.5,-214.5 639.5,-251.5 776.5,-251.5 776.5,-214.5 639.5,-214.5"/>
<text text-anchor="start" x="661" y="-230.3" font-family="Arial" font-weight="bold" font-size="14.00">IntegrityError</text>
<polygon fill="white" stroke="none" points="639.5,-147.5 639.5,-214.5 776.5,-214.5 776.5,-147.5 639.5,-147.5"/>
<polygon fill="none" stroke="black" points="639.5,-147.5 639.5,-214.5 776.5,-214.5 776.5,-147.5 639.5,-147.5"/>
<text text-anchor="start" x="650.5" y="-192.3" font-family="Arial" font-size="14.00">FailedSignature</text>
<text text-anchor="start" x="650.5" y="-177.3" font-family="Arial" font-size="14.00">ParentNotFound</text>
<text text-anchor="start" x="650.5" y="-162.3" font-family="Arial" font-size="14.00">WrongBlockOrder</text>
<polygon fill="none" stroke="black" points="638,-146.5 638,-252.5 777,-252.5 777,-146.5 638,-146.5"/>
</g>
<!-- ndBranch -->
<g id="node5" class="node"><title>ndBranch</title>
<polygon fill="lightblue" stroke="none" points="170.5,-206.5 170.5,-243.5 384.5,-243.5 384.5,-206.5 170.5,-206.5"/>
<polygon fill="none" stroke="black" points="170.5,-206.5 170.5,-243.5 384.5,-243.5 384.5,-206.5 170.5,-206.5"/>
<text text-anchor="start" x="251.5" y="-222.3" font-family="Arial" font-weight="bold" font-size="14.00">Branch</text>
<polygon fill="white" stroke="none" points="170.5,-154.5 170.5,-206.5 384.5,-206.5 384.5,-154.5 170.5,-154.5"/>
<polygon fill="none" stroke="black" points="170.5,-154.5 170.5,-206.5 384.5,-206.5 384.5,-154.5 170.5,-154.5"/>
<text text-anchor="start" x="181.5" y="-184.3" font-family="Arial" font-size="14.00">&#45; chain: &amp;&#39;a SecuredLinkedList</text>
<text text-anchor="start" x="181.5" y="-169.3" font-family="Arial" font-size="14.00">&#45; index: usize</text>
<polygon fill="none" stroke="black" points="169.5,-154 169.5,-245 385.5,-245 385.5,-154 169.5,-154"/>
</g>
<!-- ndBranch&#45;&gt;ndSecuredLinkedList -->
<g id="edge2" class="edge"><title>ndBranch&#45;&gt;ndSecuredLinkedList</title>
<path fill="none" stroke="black" d="M277.5,-149.629C277.5,-136.68 277.5,-122.566 277.5,-109.155"/>
<polygon fill="black" stroke="black" points="277.5,-99.0672 282,-109.067 277.5,-104.067 277.5,-109.067 277.5,-109.067 277.5,-109.067 277.5,-104.067 273,-109.067 277.5,-99.0672 277.5,-99.0672"/>
</g>
<!-- ndBlock -->
<g id="node6" class="node"><title>ndBlock</title>
<polygon fill="lightblue" stroke="none" points="420.5,-214.5 420.5,-251.5 602.5,-251.5 602.5,-214.5 420.5,-214.5"/>
<polygon fill="none" stroke="black" points="420.5,-214.5 420.5,-251.5 602.5,-251.5 602.5,-214.5 420.5,-214.5"/>
<text text-anchor="start" x="491.5" y="-230.3" font-family="Arial" font-weight="bold" font-size="14.00">Block</text>
<polygon fill="white" stroke="none" points="420.5,-147.5 420.5,-214.5 602.5,-214.5 602.5,-147.5 420.5,-147.5"/>
<polygon fill="none" stroke="black" points="420.5,-147.5 420.5,-214.5 602.5,-214.5 602.5,-147.5 420.5,-147.5"/>
<text text-anchor="start" x="431.5" y="-192.3" font-family="Arial" font-size="14.00">&#45; key: bls::PublicKey</text>
<text text-anchor="start" x="431.5" y="-177.3" font-family="Arial" font-size="14.00">&#45; signature: bls::Signature</text>
<text text-anchor="start" x="431.5" y="-162.3" font-family="Arial" font-size="14.00">&#45; parent_index: usize</text>
<polygon fill="none" stroke="black" points="419.5,-146.5 419.5,-252.5 603.5,-252.5 603.5,-146.5 419.5,-146.5"/>
</g>
<!-- ndBlock&#45;&gt;ndSecuredLinkedList -->
<g id="edge3" class="edge"><title>ndBlock&#45;&gt;ndSecuredLinkedList</title>
<path fill="none" stroke="black" stroke-dasharray="5,2" d="M422.701,-142.337C403.719,-130.331 383.685,-117.66 364.762,-105.691"/>
<polygon fill="black" stroke="black" points="364.519,-105.538 357.31,-105.711 354.377,-99.1233 361.586,-98.9499 364.519,-105.538"/>
</g>
<!-- ndBlock&#45;&gt;ndDeserialized -->
<g id="edge4" class="edge"><title>ndBlock&#45;&gt;ndDeserialized</title>
<path fill="none" stroke="black" d="M511.5,-142.125C511.5,-132.136 511.5,-121.692 511.5,-111.581"/>
<polygon fill="black" stroke="black" points="511.5,-111.464 507.5,-105.464 511.5,-99.4639 515.5,-105.464 511.5,-111.464"/>
</g>
</g>
</svg>
