<?xml version="1.0" encoding="UTF-8" standalone="no"?>
<!DOCTYPE svg PUBLIC "-//W3C//DTD SVG 1.1//EN"
 "http://www.w3.org/Graphics/SVG/1.1/DTD/svg11.dtd">
<!-- Generated by graphviz version 2.38.0 (20140413.2041)
 -->
<!-- Title: ml Pages: 1 -->
<svg width="1102pt" height="210pt"
 viewBox="0.00 0.00 1101.50 210.00" xmlns="http://www.w3.org/2000/svg" xmlns:xlink="http://www.w3.org/1999/xlink">
<g id="graph0" class="graph" transform="scale(1 1) rotate(0) translate(4 206)">
<title>ml</title>
<polygon fill="white" stroke="none" points="-4,4 -4,-206 1097.5,-206 1097.5,4 -4,4"/>
<!-- ndSecuredLinkedList -->
<g id="node1" class="node"><title>ndSecuredLinkedList</title>
<text text-anchor="middle" x="562.5" y="-14.3" font-family="Times,serif" font-size="14.00">ndSecuredLinkedList</text>
</g>
<!-- ndDeserialized -->
<g id="node2" class="node"><title>ndDeserialized</title>
<text text-anchor="middle" x="509.5" y="-91.8" font-family="Times,serif" font-size="14.00">ndDeserialized</text>
</g>
<!-- ndDeserialized&#45;&gt;ndSecuredLinkedList -->
<g id="edge1" class="edge"><title>ndDeserialized&#45;&gt;ndSecuredLinkedList</title>
<path fill="none" stroke="black" stroke-dasharray="5,2" d="M521.527,-77.3679C528.371,-67.6182 537.073,-55.2217 544.695,-44.3631"/>
<polygon fill="black" stroke="black" points="550.521,-36.0643 548.459,-46.8345 547.648,-40.1567 544.775,-44.249 544.775,-44.249 544.775,-44.249 547.648,-40.1567 541.092,-41.6635 550.521,-36.0643 550.521,-36.0643"/>
</g>
<!-- ndError -->
<g id="node3" class="node"><title>ndError</title>
<g id="a_node3_0"><a xlink:href="https://github.com/maidsafe/secured_linked_list/blob/master/src/error.rs#:~:text=enum%20Error" xlink:title="&lt;TABLE&gt;">
<polygon fill="yellow" stroke="none" points="586.5,-76.5 586.5,-113.5 645.5,-113.5 645.5,-76.5 586.5,-76.5"/>
<polygon fill="none" stroke="black" points="586.5,-76.5 586.5,-113.5 645.5,-113.5 645.5,-76.5 586.5,-76.5"/>
<text text-anchor="start" x="597.5" y="-92.3" font-family="Arial" font-weight="bold" font-size="14.00">Error</text>
<polygon fill="none" stroke="black" points="585,-76 585,-115 646,-115 646,-76 585,-76"/>
</a>
</g>
</g>
<!-- ndError&#45;&gt;ndSecuredLinkedList -->
<g id="edge2" class="edge"><title>ndError&#45;&gt;ndSecuredLinkedList</title>
<path fill="none" stroke="black" d="M599.598,-71.8475C593.561,-63.2473 586.645,-53.3954 580.433,-44.546"/>
<polygon fill="black" stroke="black" points="574.514,-36.1144 583.943,-41.7136 577.387,-40.2068 580.26,-44.2991 580.26,-44.2991 580.26,-44.2991 577.387,-40.2068 576.577,-46.8846 574.514,-36.1144 574.514,-36.1144"/>
</g>
<!-- ndIntegrityError -->
<g id="node4" class="node"><title>ndIntegrityError</title>
<g id="a_node4_1"><a xlink:href="https://github.com/maidsafe/secured_linked_list/blob/master/src/error.rs#:~:text=enum%20IntegrityError" xlink:title="&lt;TABLE&gt;">
<polygon fill="yellow" stroke="none" points="968.5,-159.5 968.5,-196.5 1084.5,-196.5 1084.5,-159.5 968.5,-159.5"/>
<polygon fill="none" stroke="black" points="968.5,-159.5 968.5,-196.5 1084.5,-196.5 1084.5,-159.5 968.5,-159.5"/>
<text text-anchor="start" x="979.5" y="-175.3" font-family="Arial" font-weight="bold" font-size="14.00">IntegrityError</text>
<polygon fill="none" stroke="black" points="967.5,-159 967.5,-198 1085.5,-198 1085.5,-159 967.5,-159"/>
</a>
</g>
</g>
<!-- ndBranch -->
<g id="node5" class="node"><title>ndBranch</title>
<text text-anchor="middle" x="706.5" y="-91.8" font-family="Times,serif" font-size="14.00">ndBranch</text>
</g>
<!-- ndBranch&#45;&gt;ndSecuredLinkedList -->
<g id="edge3" class="edge"><title>ndBranch&#45;&gt;ndSecuredLinkedList</title>
<path fill="none" stroke="black" d="M673.824,-77.3679C653.111,-66.5081 626.136,-52.3645 603.926,-40.7199"/>
<polygon fill="black" stroke="black" points="595.047,-36.0643 605.993,-36.7225 599.475,-38.3861 603.903,-40.7079 603.903,-40.7079 603.903,-40.7079 599.475,-38.3861 601.813,-44.6933 595.047,-36.0643 595.047,-36.0643"/>
</g>
<!-- ndBlock -->
<g id="node6" class="node"><title>ndBlock</title>
<g id="a_node6_2"><a xlink:href="https://github.com/maidsafe/secured_linked_list/blob/master/src/block.rs#:~:text=struct%20Block" xlink:title="&lt;TABLE&gt;">
<polygon fill="lightblue" stroke="none" points="9.5,-159.5 9.5,-196.5 932.5,-196.5 932.5,-159.5 9.5,-159.5"/>
<polygon fill="none" stroke="black" points="9.5,-159.5 9.5,-196.5 932.5,-196.5 932.5,-159.5 9.5,-159.5"/>
<text text-anchor="start" x="20.5" y="-175.3" font-family="Arial" font-weight="bold" font-size="14.00">pub(crate) struct Block { &#160;&#160;&#160;pub(crate) key: bls::PublicKey, &#160;&#160;&#160;pub(crate) signature: bls::Signature, &#160;&#160;&#160;pub(crate) parent_index: usize,}</text>
<polygon fill="none" stroke="black" points="8,-159 8,-198 933,-198 933,-159 8,-159"/>
</a>
</g>
</g>
<!-- ndBlock&#45;&gt;ndSecuredLinkedList -->
<g id="edge4" class="edge"><title>ndBlock&#45;&gt;ndSecuredLinkedList</title>
<path fill="none" stroke="black" stroke-dasharray="5,2" d="M457.787,-154.745C447.009,-132.101 435.616,-97.1865 451.5,-72 459.725,-58.9588 472.139,-49.058 485.726,-41.5635"/>
<polygon fill="black" stroke="black" points="486.069,-41.3933 489.663,-35.1417 496.816,-36.0549 493.222,-42.3065 486.069,-41.3933"/>
</g>
<!-- ndBlock&#45;&gt;ndDeserialized -->
<g id="edge5" class="edge"><title>ndBlock&#45;&gt;ndDeserialized</title>
<path fill="none" stroke="black" d="M481.364,-154.937C485.9,-145.516 491.217,-134.473 496,-124.538"/>
<polygon fill="black" stroke="black" points="496.086,-124.36 495.085,-117.219 501.292,-113.548 502.293,-120.689 496.086,-124.36"/>
</g>
</g>
</svg>
