<?xml version="1.0" encoding="UTF-8" standalone="no"?>
<!DOCTYPE svg PUBLIC "-//W3C//DTD SVG 1.1//EN"
 "http://www.w3.org/Graphics/SVG/1.1/DTD/svg11.dtd">
<!-- Generated by graphviz version 2.38.0 (20140413.2041)
 -->
<!-- Title: ml Pages: 1 -->
<svg width="462pt" height="138pt"
 viewBox="0.00 0.00 461.50 138.00" xmlns="http://www.w3.org/2000/svg" xmlns:xlink="http://www.w3.org/1999/xlink">
<g id="graph0" class="graph" transform="scale(1 1) rotate(0) translate(4 134)">
<title>ml</title>
<polygon fill="white" stroke="none" points="-4,4 -4,-134 457.5,-134 457.5,4 -4,4"/>
<!-- ndSecuredLinkedList -->
<g id="node1" class="node"><title>ndSecuredLinkedList</title>
<polygon fill="lightblue" stroke="none" points="48.5,-4.5 48.5,-41.5 202.5,-41.5 202.5,-4.5 48.5,-4.5"/>
<polygon fill="none" stroke="black" points="48.5,-4.5 48.5,-41.5 202.5,-41.5 202.5,-4.5 48.5,-4.5"/>
<text text-anchor="start" x="59.5" y="-20.3" font-family="Arial" font-weight="bold" font-size="14.00">SecuredLinkedList</text>
<polygon fill="none" stroke="black" points="47.5,-4 47.5,-43 203.5,-43 203.5,-4 47.5,-4"/>
</g>
<!-- ndDeserialized -->
<g id="node2" class="node"><title>ndDeserialized</title>
<polygon fill="lightblue" stroke="none" points="238.5,-4.5 238.5,-41.5 346.5,-41.5 346.5,-4.5 238.5,-4.5"/>
<polygon fill="none" stroke="black" points="238.5,-4.5 238.5,-41.5 346.5,-41.5 346.5,-4.5 238.5,-4.5"/>
<text text-anchor="start" x="249.5" y="-20.3" font-family="Arial" font-weight="bold" font-size="14.00">Deserialized</text>
<polygon fill="none" stroke="black" points="237.5,-4 237.5,-43 347.5,-43 347.5,-4 237.5,-4"/>
</g>
<!-- ndError -->
<g id="node3" class="node"><title>ndError</title>
<polygon fill="yellow" stroke="none" points="9.5,-87.5 9.5,-124.5 68.5,-124.5 68.5,-87.5 9.5,-87.5"/>
<polygon fill="none" stroke="black" points="9.5,-87.5 9.5,-124.5 68.5,-124.5 68.5,-87.5 9.5,-87.5"/>
<text text-anchor="start" x="20.5" y="-103.3" font-family="Arial" font-weight="bold" font-size="14.00">Error</text>
<polygon fill="none" stroke="black" points="8,-87 8,-126 69,-126 69,-87 8,-87"/>
</g>
<!-- ndError&#45;&gt;ndSecuredLinkedList -->
<g id="edge1" class="edge"><title>ndError&#45;&gt;ndSecuredLinkedList</title>
<path fill="none" stroke="black" d="M62.7344,-82.937C72.27,-74.059 83.3534,-63.7399 93.5296,-54.2655"/>
<polygon fill="black" stroke="black" points="101.094,-47.2229 96.8413,-57.3307 97.4344,-50.6301 93.7749,-54.0372 93.7749,-54.0372 93.7749,-54.0372 97.4344,-50.6301 90.7085,-50.7436 101.094,-47.2229 101.094,-47.2229"/>
</g>
<!-- ndIntegrityError -->
<g id="node4" class="node"><title>ndIntegrityError</title>
<polygon fill="yellow" stroke="none" points="328.5,-87.5 328.5,-124.5 444.5,-124.5 444.5,-87.5 328.5,-87.5"/>
<polygon fill="none" stroke="black" points="328.5,-87.5 328.5,-124.5 444.5,-124.5 444.5,-87.5 328.5,-87.5"/>
<text text-anchor="start" x="339.5" y="-103.3" font-family="Arial" font-weight="bold" font-size="14.00">IntegrityError</text>
<polygon fill="none" stroke="black" points="327.5,-87 327.5,-126 445.5,-126 445.5,-87 327.5,-87"/>
</g>
<!-- ndBranch -->
<g id="node5" class="node"><title>ndBranch</title>
<polygon fill="lightblue" stroke="none" points="104.5,-87.5 104.5,-124.5 178.5,-124.5 178.5,-87.5 104.5,-87.5"/>
<polygon fill="none" stroke="black" points="104.5,-87.5 104.5,-124.5 178.5,-124.5 178.5,-87.5 104.5,-87.5"/>
<text text-anchor="start" x="115.5" y="-103.3" font-family="Arial" font-weight="bold" font-size="14.00">Branch</text>
<polygon fill="none" stroke="black" points="103.5,-87 103.5,-126 179.5,-126 179.5,-87 103.5,-87"/>
</g>
<!-- ndBranch&#45;&gt;ndSecuredLinkedList -->
<g id="edge2" class="edge"><title>ndBranch&#45;&gt;ndSecuredLinkedList</title>
<path fill="none" stroke="black" d="M137.043,-82.937C135.461,-74.9294 133.648,-65.7494 131.934,-57.0743"/>
<polygon fill="black" stroke="black" points="129.988,-47.2229 136.341,-56.1613 130.957,-52.1282 131.926,-57.0334 131.926,-57.0334 131.926,-57.0334 130.957,-52.1282 127.512,-57.9055 129.988,-47.2229 129.988,-47.2229"/>
</g>
<!-- ndBlock -->
<g id="node6" class="node"><title>ndBlock</title>
<polygon fill="lightblue" stroke="none" points="230.5,-87.5 230.5,-124.5 292.5,-124.5 292.5,-87.5 230.5,-87.5"/>
<polygon fill="none" stroke="black" points="230.5,-87.5 230.5,-124.5 292.5,-124.5 292.5,-87.5 230.5,-87.5"/>
<text text-anchor="start" x="241.5" y="-103.3" font-family="Arial" font-weight="bold" font-size="14.00">Block</text>
<polygon fill="none" stroke="black" points="229.5,-87 229.5,-126 293.5,-126 293.5,-87 229.5,-87"/>
</g>
<!-- ndBlock&#45;&gt;ndSecuredLinkedList -->
<g id="edge3" class="edge"><title>ndBlock&#45;&gt;ndSecuredLinkedList</title>
<path fill="none" stroke="black" stroke-dasharray="5,2" d="M223.616,-82.937C208.272,-73.7979 190.363,-63.1317 174.077,-53.4318"/>
<polygon fill="black" stroke="black" points="173.962,-53.3635 166.76,-53.7299 163.652,-47.2229 170.854,-46.8566 173.962,-53.3635"/>
</g>
<!-- ndBlock&#45;&gt;ndDeserialized -->
<g id="edge4" class="edge"><title>ndBlock&#45;&gt;ndDeserialized</title>
<path fill="none" stroke="black" d="M270.135,-82.937C273.033,-75.3646 276.333,-66.7438 279.49,-58.4929"/>
<polygon fill="black" stroke="black" points="279.514,-58.4302 277.923,-51.3968 283.804,-47.2229 285.395,-54.2563 279.514,-58.4302"/>
</g>
</g>
</svg>
