<?xml version="1.0" encoding="UTF-8" standalone="no"?>
<!DOCTYPE svg PUBLIC "-//W3C//DTD SVG 1.1//EN"
 "http://www.w3.org/Graphics/SVG/1.1/DTD/svg11.dtd">
<!-- Generated by graphviz version 2.38.0 (20140413.2041)
 -->
<!-- Title: ml Pages: 1 -->
<svg width="363pt" height="221pt"
 viewBox="0.00 0.00 363.00 221.00" xmlns="http://www.w3.org/2000/svg" xmlns:xlink="http://www.w3.org/1999/xlink">
<g id="graph0" class="graph" transform="scale(1 1) rotate(0) translate(4 217)">
<title>ml</title>
<polygon fill="white" stroke="none" points="-4,4 -4,-217 359,-217 359,4 -4,4"/>
<!-- ndSecuredLinkedList -->
<g id="node1" class="node"><title>ndSecuredLinkedList</title>
<g id="a_node1_0"><a xlink:href="https://github.com/maidsafe/secured_linked_list/blob/master/src/lib.rs#:~:text=struct%20SecuredLinkedList" xlink:title="&lt;TABLE&gt;">
<polygon fill="lightblue" stroke="none" points="69,-4.5 69,-41.5 223,-41.5 223,-4.5 69,-4.5"/>
<polygon fill="none" stroke="black" points="69,-4.5 69,-41.5 223,-41.5 223,-4.5 69,-4.5"/>
<text text-anchor="start" x="80" y="-20.3" font-family="Arial" font-weight="bold" font-size="14.00">SecuredLinkedList</text>
<polygon fill="none" stroke="black" points="68,-4 68,-43 224,-43 224,-4 68,-4"/>
</a>
</g>
</g>
<!-- ndDeserialized -->
<g id="node2" class="node"><title>ndDeserialized</title>
<g id="a_node2_1"><a xlink:href="https://github.com/maidsafe/secured_linked_list/blob/master/src/deserialized.rs#:~:text=struct%20Deserialized" xlink:title="&lt;TABLE&gt;">
<polygon fill="lightblue" stroke="none" points="32,-87.5 32,-124.5 140,-124.5 140,-87.5 32,-87.5"/>
<polygon fill="none" stroke="black" points="32,-87.5 32,-124.5 140,-124.5 140,-87.5 32,-87.5"/>
<text text-anchor="start" x="43" y="-103.3" font-family="Arial" font-weight="bold" font-size="14.00">Deserialized</text>
<polygon fill="none" stroke="black" points="31,-87 31,-126 141,-126 141,-87 31,-87"/>
</a>
</g>
</g>
<!-- ndDeserialized&#45;&gt;ndSecuredLinkedList -->
<g id="edge1" class="edge"><title>ndDeserialized&#45;&gt;ndSecuredLinkedList</title>
<path fill="none" stroke="black" stroke-dasharray="5,2" d="M102.713,-82.937C109.032,-74.4071 116.336,-64.547 123.123,-55.3839"/>
<polygon fill="black" stroke="black" points="129.168,-47.2229 126.832,-57.9371 126.192,-51.2407 123.216,-55.2585 123.216,-55.2585 123.216,-55.2585 126.192,-51.2407 119.6,-52.58 129.168,-47.2229 129.168,-47.2229"/>
</g>
<!-- ndError -->
<g id="node3" class="node"><title>ndError</title>
<g id="a_node3_2"><a xlink:href="https://github.com/maidsafe/secured_linked_list/blob/master/src/error.rs#:~:text=enum%20Error" xlink:title="&lt;TABLE&gt;">
<polygon fill="yellow" stroke="none" points="177,-87.5 177,-124.5 236,-124.5 236,-87.5 177,-87.5"/>
<polygon fill="none" stroke="black" points="177,-87.5 177,-124.5 236,-124.5 236,-87.5 177,-87.5"/>
<text text-anchor="start" x="188" y="-103.3" font-family="Arial" font-weight="bold" font-size="14.00">Error</text>
<polygon fill="none" stroke="black" points="175.5,-87 175.5,-126 236.5,-126 236.5,-87 175.5,-87"/>
</a>
</g>
</g>
<!-- ndError&#45;&gt;ndSecuredLinkedList -->
<g id="edge2" class="edge"><title>ndError&#45;&gt;ndSecuredLinkedList</title>
<path fill="none" stroke="black" d="M189.287,-82.937C182.968,-74.4071 175.664,-64.547 168.877,-55.3839"/>
<polygon fill="black" stroke="black" points="162.832,-47.2229 172.4,-52.58 165.808,-51.2407 168.784,-55.2585 168.784,-55.2585 168.784,-55.2585 165.808,-51.2407 165.168,-57.9371 162.832,-47.2229 162.832,-47.2229"/>
</g>
<!-- ndIntegrityError -->
<g id="node4" class="node"><title>ndIntegrityError</title>
<g id="a_node4_3"><a xlink:href="https://github.com/maidsafe/secured_linked_list/blob/master/src/error.rs#:~:text=enum%20IntegrityError" xlink:title="&lt;TABLE&gt;">
<polygon fill="yellow" stroke="none" points="107,-170.5 107,-207.5 223,-207.5 223,-170.5 107,-170.5"/>
<polygon fill="none" stroke="black" points="107,-170.5 107,-207.5 223,-207.5 223,-170.5 107,-170.5"/>
<text text-anchor="start" x="118" y="-186.3" font-family="Arial" font-weight="bold" font-size="14.00">IntegrityError</text>
<polygon fill="none" stroke="black" points="106,-170 106,-209 224,-209 224,-170 106,-170"/>
</a>
</g>
</g>
<!-- ndBranch -->
<g id="node5" class="node"><title>ndBranch</title>
<g id="a_node5_4"><a xlink:href="https://github.com/maidsafe/secured_linked_list/blob/master/src/branch.rs#:~:text=struct%20Branch" xlink:title="&lt;TABLE&gt;">
<polygon fill="lightblue" stroke="none" points="272,-87.5 272,-124.5 346,-124.5 346,-87.5 272,-87.5"/>
<polygon fill="none" stroke="black" points="272,-87.5 272,-124.5 346,-124.5 346,-87.5 272,-87.5"/>
<text text-anchor="start" x="283" y="-103.3" font-family="Arial" font-weight="bold" font-size="14.00">Branch</text>
<polygon fill="none" stroke="black" points="271,-87 271,-126 347,-126 347,-87 271,-87"/>
</a>
</g>
</g>
<!-- ndBranch&#45;&gt;ndSecuredLinkedList -->
<g id="edge3" class="edge"><title>ndBranch&#45;&gt;ndSecuredLinkedList</title>
<path fill="none" stroke="black" d="M263.595,-82.937C244.072,-73.235 221.085,-61.8121 200.638,-51.6513"/>
<polygon fill="black" stroke="black" points="191.444,-47.0824 202.401,-47.5027 195.921,-49.3075 200.399,-51.5326 200.399,-51.5326 200.399,-51.5326 195.921,-49.3075 198.396,-55.5624 191.444,-47.0824 191.444,-47.0824"/>
</g>
<!-- ndBlock -->
<g id="node6" class="node"><title>ndBlock</title>
<g id="a_node6_5"><a xlink:href="https://github.com/maidsafe/secured_linked_list/blob/master/src/block.rs#:~:text=struct%20Block" xlink:title="&lt;TABLE&gt;">
<polygon fill="lightblue" stroke="none" points="9,-170.5 9,-207.5 71,-207.5 71,-170.5 9,-170.5"/>
<polygon fill="none" stroke="black" points="9,-170.5 9,-207.5 71,-207.5 71,-170.5 9,-170.5"/>
<text text-anchor="start" x="20" y="-186.3" font-family="Arial" font-weight="bold" font-size="14.00">Block</text>
<polygon fill="none" stroke="black" points="8,-170 8,-209 72,-209 72,-170 8,-170"/>
</a>
</g>
</g>
<!-- ndBlock&#45;&gt;ndSecuredLinkedList -->
<g id="edge4" class="edge"><title>ndBlock&#45;&gt;ndSecuredLinkedList</title>
<path fill="none" stroke="black" stroke-dasharray="5,2" d="M24.8293,-165.792C11.8111,-143.185 -2.46013,-108.299 14,-83 22.6602,-69.6894 35.1179,-59.3841 48.9631,-51.4118"/>
<polygon fill="black" stroke="black" points="49.1457,-51.3165 52.611,-44.9926 59.7812,-45.759 56.3159,-52.083 49.1457,-51.3165"/>
</g>
<!-- ndBlock&#45;&gt;ndDeserialized -->
<g id="edge5" class="edge"><title>ndBlock&#45;&gt;ndDeserialized</title>
<path fill="none" stroke="black" d="M52.8136,-165.937C57.2128,-158.19 62.2351,-149.347 67.0182,-140.925"/>
<polygon fill="black" stroke="black" points="67.1697,-140.658 66.6544,-133.465 73.0956,-130.223 73.6109,-137.416 67.1697,-140.658"/>
</g>
</g>
</svg>
