<?xml version="1.0" encoding="UTF-8" standalone="no"?>
<!DOCTYPE svg PUBLIC "-//W3C//DTD SVG 1.1//EN"
 "http://www.w3.org/Graphics/SVG/1.1/DTD/svg11.dtd">
<!-- Generated by graphviz version 2.38.0 (20140413.2041)
 -->
<!-- Title: ml Pages: 1 -->
<svg width="4182pt" height="1501pt"
 viewBox="0.00 0.00 4181.50 1501.00" xmlns="http://www.w3.org/2000/svg" xmlns:xlink="http://www.w3.org/1999/xlink">
<g id="graph0" class="graph" transform="scale(1 1) rotate(0) translate(4 1497)">
<title>ml</title>
<polygon fill="white" stroke="none" points="-4,4 -4,-1497 4177.5,-1497 4177.5,4 -4,4"/>
<!-- ndIpcResp -->
<g id="node1" class="node"><title>ndIpcResp</title>
<g id="a_node1_0"><a xlink:href="https://github.com/maidsafe/safe_network/blob/master/src/ipc/resp.rs#:~:text=enum%20IpcResp" xlink:title="&lt;TABLE&gt;">
<polygon fill="yellow" stroke="none" points="923,-817.5 923,-854.5 1229,-854.5 1229,-817.5 923,-817.5"/>
<polygon fill="none" stroke="black" points="923,-817.5 923,-854.5 1229,-854.5 1229,-817.5 923,-817.5"/>
<text text-anchor="start" x="1047.5" y="-833.3" font-family="Arial" font-weight="bold" font-size="14.00">IpcResp</text>
<polygon fill="white" stroke="none" points="923,-765.5 923,-817.5 1229,-817.5 1229,-765.5 923,-765.5"/>
<polygon fill="none" stroke="black" points="923,-765.5 923,-817.5 1229,-817.5 1229,-765.5 923,-765.5"/>
<text text-anchor="start" x="934" y="-795.3" font-family="Arial" font-size="14.00">Auth(Result&lt;AuthGranted, IpcError&gt;)</text>
<text text-anchor="start" x="934" y="-780.3" font-family="Arial" font-size="14.00">Unregistered(Result&lt;NodeConfig, IpcError&gt;)</text>
<polygon fill="none" stroke="black" points="922,-765 922,-856 1230,-856 1230,-765 922,-765"/>
</a>
</g>
</g>
<!-- ndIpcMsg -->
<g id="node6" class="node"><title>ndIpcMsg</title>
<g id="a_node6_1"><a xlink:href="https://github.com/maidsafe/safe_network/blob/master/src/ipc/mod.rs#:~:text=enum%20IpcMsg" xlink:title="&lt;TABLE&gt;">
<polygon fill="yellow" stroke="none" points="801,-308 801,-345 1275,-345 1275,-308 801,-308"/>
<polygon fill="none" stroke="black" points="801,-308 801,-345 1275,-345 1275,-308 801,-308"/>
<text text-anchor="start" x="1012" y="-323.8" font-family="Arial" font-weight="bold" font-size="14.00">IpcMsg</text>
<polygon fill="white" stroke="none" points="801,-241 801,-308 1275,-308 1275,-241 801,-241"/>
<polygon fill="none" stroke="black" points="801,-241 801,-308 1275,-308 1275,-241 801,-241"/>
<text text-anchor="start" x="812" y="-285.8" font-family="Arial" font-size="14.00">Req(IpcReq)</text>
<text text-anchor="start" x="812" y="-270.8" font-family="Arial" font-size="14.00">Resp(IpcResp)</text>
<text text-anchor="start" x="812" y="-255.8" font-family="Arial" font-size="14.00">Err(IpcError)</text>
<polygon fill="white" stroke="none" points="801,-159 801,-241 1275,-241 1275,-159 801,-159"/>
<polygon fill="none" stroke="black" points="801,-159 801,-241 1275,-241 1275,-159 801,-159"/>
<text text-anchor="start" x="812" y="-218.8" font-family="Arial" font-size="14.00">&#45; new_auth_req(app_id: &amp;str, app_name: &amp;str, app_vendor: &amp;str) &#45;&gt; Self</text>
<text text-anchor="start" x="812" y="-203.8" font-family="Arial" font-size="14.00">&#45; new_unreg_req(user_data: &amp;[u8]) &#45;&gt; Self</text>
<text text-anchor="start" x="812" y="-188.8" font-family="Arial" font-size="14.00">&#45; to_string(&amp;self) &#45;&gt; Result&lt;String, IpcError&gt;</text>
<text text-anchor="start" x="812" y="-173.8" font-family="Arial" font-size="14.00">&#45; from_string(msg_str: &amp;str) &#45;&gt; Result&lt;IpcMsg, IpcError&gt;</text>
<polygon fill="none" stroke="black" points="800,-158 800,-346 1276,-346 1276,-158 800,-158"/>
</a>
</g>
</g>
<!-- ndIpcResp&#45;&gt;ndIpcMsg -->
<g id="edge1" class="edge"><title>ndIpcResp&#45;&gt;ndIpcMsg</title>
<path fill="none" stroke="black" d="M1072.66,-760.602C1066.61,-672.009 1053.7,-482.964 1045.46,-362.244"/>
<polygon fill="black" stroke="black" points="1045.44,-362.027 1041.05,-356.313 1044.63,-350.055 1049.03,-355.768 1045.44,-362.027"/>
</g>
<!-- ndAuthGranted -->
<g id="node2" class="node"><title>ndAuthGranted</title>
<g id="a_node2_2"><a xlink:href="https://github.com/maidsafe/safe_network/blob/master/src/ipc/resp.rs#:~:text=struct%20AuthGranted" xlink:title="&lt;TABLE&gt;">
<polygon fill="lightblue" stroke="none" points="564,-1312 564,-1349 848,-1349 848,-1312 564,-1312"/>
<polygon fill="none" stroke="black" points="564,-1312 564,-1349 848,-1349 848,-1312 564,-1312"/>
<text text-anchor="start" x="661.5" y="-1327.8" font-family="Arial" font-weight="bold" font-size="14.00">AuthGranted</text>
<polygon fill="white" stroke="none" points="564,-1260 564,-1312 848,-1312 848,-1260 564,-1260"/>
<polygon fill="none" stroke="black" points="564,-1260 564,-1312 848,-1312 848,-1260 564,-1260"/>
<text text-anchor="start" x="575" y="-1289.8" font-family="Arial" font-size="14.00">+ app_keypair: Keypair</text>
<text text-anchor="start" x="575" y="-1274.8" font-family="Arial" font-size="14.00">+ bootstrap_config: Option&lt;NodeConfig&gt;</text>
<polygon fill="none" stroke="black" points="563,-1259.5 563,-1350.5 849,-1350.5 849,-1259.5 563,-1259.5"/>
</a>
</g>
</g>
<!-- ndAuthGranted&#45;&gt;ndIpcResp -->
<g id="edge2" class="edge"><title>ndAuthGranted&#45;&gt;ndIpcResp</title>
<path fill="none" stroke="black" d="M753.174,-1255.44C794.849,-1211.51 856.246,-1144.2 904,-1081 956.34,-1011.73 1008.93,-926.496 1041.93,-870.667"/>
<polygon fill="black" stroke="black" points="1041.97,-870.593 1041.57,-863.393 1048.06,-860.251 1048.46,-867.451 1041.97,-870.593"/>
</g>
<!-- ndSafeAuthenticator -->
<g id="node8" class="node"><title>ndSafeAuthenticator</title>
<g id="a_node8_3"><a xlink:href="https://github.com/maidsafe/safe_network/blob/master/src/authenticator/mod.rs#:~:text=struct%20SafeAuthenticator" xlink:title="&lt;TABLE&gt;">
<polygon fill="lightblue" stroke="none" points="216,-903.5 216,-940.5 887,-940.5 887,-903.5 216,-903.5"/>
<polygon fill="none" stroke="black" points="216,-903.5 216,-940.5 887,-940.5 887,-903.5 216,-903.5"/>
<text text-anchor="start" x="489" y="-919.3" font-family="Arial" font-weight="bold" font-size="14.00">SafeAuthenticator</text>
<polygon fill="white" stroke="none" points="216,-836.5 216,-903.5 887,-903.5 887,-836.5 216,-836.5"/>
<polygon fill="none" stroke="black" points="216,-836.5 216,-903.5 887,-903.5 887,-836.5 216,-836.5"/>
<text text-anchor="start" x="227" y="-881.3" font-family="Arial" font-size="14.00">&#45; safe: Option&lt;(Client, RegisterAddress)&gt;</text>
<text text-anchor="start" x="227" y="-866.3" font-family="Arial" font-size="14.00">&#45; config_path: Option&lt;PathBuf&gt;</text>
<text text-anchor="start" x="227" y="-851.3" font-family="Arial" font-size="14.00">&#45; bootstrap_contacts: Option&lt;HashSet&lt;SocketAddr&gt;&gt;</text>
<polygon fill="white" stroke="none" points="216,-679.5 216,-836.5 887,-836.5 887,-679.5 216,-679.5"/>
<polygon fill="none" stroke="black" points="216,-679.5 216,-836.5 887,-836.5 887,-679.5 216,-679.5"/>
<text text-anchor="start" x="227" y="-814.3" font-family="Arial" font-size="14.00">&#45; new(_config_dir_path: Option&lt;&amp;Path&gt;, _bootstrap_contacts: Option&lt;HashSet&lt;SocketAddr&gt;&gt;) &#45;&gt; Self</text>
<text text-anchor="start" x="227" y="-799.3" font-family="Arial" font-size="14.00">&#45; create(&amp;mut self, _passphrase: &amp;str, _password: &amp;str) &#45;&gt; Result&lt;()&gt;</text>
<text text-anchor="start" x="227" y="-784.3" font-family="Arial" font-size="14.00">&#45; unlock(&amp;mut self, _passphrase: &amp;str, _password: &amp;str) &#45;&gt; Result&lt;()&gt;</text>
<text text-anchor="start" x="227" y="-769.3" font-family="Arial" font-size="14.00">&#45; lock(&amp;mut self) &#45;&gt; Result&lt;()&gt;</text>
<text text-anchor="start" x="227" y="-754.3" font-family="Arial" font-size="14.00">&#45; is_a_safe_unlocked(&amp;self) &#45;&gt; bool</text>
<text text-anchor="start" x="227" y="-739.3" font-family="Arial" font-size="14.00">&#45; decode_req(&amp;self, _req: &amp;str) &#45;&gt; Result&lt;SafeAuthReq&gt;</text>
<text text-anchor="start" x="227" y="-724.3" font-family="Arial" font-size="14.00">&#45; revoke_app(&amp;self, _y: &amp;str) &#45;&gt; Result&lt;()&gt;</text>
<text text-anchor="start" x="227" y="-709.3" font-family="Arial" font-size="14.00">&#45; authorise_app(&amp;self, _req: &amp;str) &#45;&gt; Result&lt;String&gt;</text>
<text text-anchor="start" x="227" y="-694.3" font-family="Arial" font-size="14.00">&#45; authenticate(&amp;self, _auth_req: AuthReq) &#45;&gt; Result&lt;AuthGranted&gt;</text>
<polygon fill="none" stroke="black" points="214.5,-679 214.5,-942 887.5,-942 887.5,-679 214.5,-679"/>
</a>
</g>
</g>
<!-- ndAuthGranted&#45;&gt;ndSafeAuthenticator -->
<g id="edge3" class="edge"><title>ndAuthGranted&#45;&gt;ndSafeAuthenticator</title>
<path fill="none" stroke="black" d="M690.714,-1255.43C668.998,-1186.43 628.315,-1057.16 596.427,-955.842"/>
<polygon fill="black" stroke="black" points="593.37,-946.127 600.664,-954.315 594.871,-950.896 596.372,-955.665 596.372,-955.665 596.372,-955.665 594.871,-950.896 592.08,-957.016 593.37,-946.127 593.37,-946.127"/>
</g>
<!-- ndIpcReq -->
<g id="node3" class="node"><title>ndIpcReq</title>
<g id="a_node3_4"><a xlink:href="https://github.com/maidsafe/safe_network/blob/master/src/ipc/req.rs#:~:text=enum%20IpcReq" xlink:title="&lt;TABLE&gt;">
<polygon fill="yellow" stroke="none" points="9,-817.5 9,-854.5 179,-854.5 179,-817.5 9,-817.5"/>
<polygon fill="none" stroke="black" points="9,-817.5 9,-854.5 179,-854.5 179,-817.5 9,-817.5"/>
<text text-anchor="start" x="69.5" y="-833.3" font-family="Arial" font-weight="bold" font-size="14.00">IpcReq</text>
<polygon fill="white" stroke="none" points="9,-765.5 9,-817.5 179,-817.5 179,-765.5 9,-765.5"/>
<polygon fill="none" stroke="black" points="9,-765.5 9,-817.5 179,-817.5 179,-765.5 9,-765.5"/>
<text text-anchor="start" x="20" y="-795.3" font-family="Arial" font-size="14.00">Auth(AuthReq)</text>
<text text-anchor="start" x="20" y="-780.3" font-family="Arial" font-size="14.00">Unregistered(Vec&lt;u8&gt;)</text>
<polygon fill="none" stroke="black" points="8,-765 8,-856 180,-856 180,-765 8,-765"/>
</a>
</g>
</g>
<!-- ndIpcReq&#45;&gt;ndIpcMsg -->
<g id="edge4" class="edge"><title>ndIpcReq&#45;&gt;ndIpcMsg</title>
<path fill="none" stroke="black" d="M99.9616,-760.811C109.809,-700.905 134.988,-599.807 197,-540 354.556,-388.046 595.802,-316.369 779.573,-282.66"/>
<polygon fill="black" stroke="black" points="779.783,-282.623 784.979,-277.622 791.593,-280.495 786.397,-285.495 779.783,-282.623"/>
</g>
<!-- ndAuthReq -->
<g id="node4" class="node"><title>ndAuthReq</title>
<g id="a_node4_5"><a xlink:href="https://github.com/maidsafe/safe_network/blob/master/src/ipc/req.rs#:~:text=struct%20AuthReq" xlink:title="&lt;TABLE&gt;">
<polygon fill="lightblue" stroke="none" points="253,-1327 253,-1364 434,-1364 434,-1327 253,-1327"/>
<polygon fill="none" stroke="black" points="253,-1327 253,-1364 434,-1364 434,-1327 253,-1327"/>
<text text-anchor="start" x="313.5" y="-1342.8" font-family="Arial" font-weight="bold" font-size="14.00">AuthReq</text>
<polygon fill="white" stroke="none" points="253,-1245 253,-1327 434,-1327 434,-1245 253,-1245"/>
<polygon fill="none" stroke="black" points="253,-1245 253,-1327 434,-1327 434,-1245 253,-1245"/>
<text text-anchor="start" x="264" y="-1304.8" font-family="Arial" font-size="14.00">+ req_id: SafeAuthReqId</text>
<text text-anchor="start" x="264" y="-1289.8" font-family="Arial" font-size="14.00">+ app_id: String</text>
<text text-anchor="start" x="264" y="-1274.8" font-family="Arial" font-size="14.00">+ app_name: String</text>
<text text-anchor="start" x="264" y="-1259.8" font-family="Arial" font-size="14.00">+ app_vendor: String</text>
<polygon fill="none" stroke="black" points="251.5,-1244.5 251.5,-1365.5 434.5,-1365.5 434.5,-1244.5 251.5,-1244.5"/>
</a>
</g>
</g>
<!-- ndAuthReq&#45;&gt;ndIpcReq -->
<g id="edge5" class="edge"><title>ndAuthReq&#45;&gt;ndIpcReq</title>
<path fill="none" stroke="black" d="M296.048,-1240.36C265.34,-1196.91 225.74,-1137.25 197,-1081 161.574,-1011.67 131.194,-927.169 112.794,-871.485"/>
<polygon fill="black" stroke="black" points="112.785,-871.461 107.117,-867.003 109.051,-860.056 114.72,-864.514 112.785,-871.461"/>
</g>
<!-- ndAuthReq&#45;&gt;ndSafeAuthenticator -->
<g id="edge6" class="edge"><title>ndAuthReq&#45;&gt;ndSafeAuthenticator</title>
<path fill="none" stroke="black" stroke-dasharray="5,2" d="M369.873,-1240.37C400.137,-1168.71 450.294,-1049.95 490.162,-955.55"/>
<polygon fill="black" stroke="black" points="494.11,-946.204 494.365,-957.166 492.165,-950.81 490.219,-955.416 490.219,-955.416 490.219,-955.416 492.165,-950.81 486.074,-953.665 494.11,-946.204 494.11,-946.204"/>
</g>
<!-- ndIpcError -->
<g id="node5" class="node"><title>ndIpcError</title>
<g id="a_node5_6"><a xlink:href="https://github.com/maidsafe/safe_network/blob/master/src/ipc/errors.rs#:~:text=enum%20IpcError" xlink:title="&lt;TABLE&gt;">
<polygon fill="yellow" stroke="none" points="1340,-840.5 1340,-877.5 1495,-877.5 1495,-840.5 1340,-840.5"/>
<polygon fill="none" stroke="black" points="1340,-840.5 1340,-877.5 1495,-877.5 1495,-840.5 1340,-840.5"/>
<text text-anchor="start" x="1388.5" y="-856.3" font-family="Arial" font-weight="bold" font-size="14.00">IpcError</text>
<polygon fill="white" stroke="none" points="1340,-743.5 1340,-840.5 1495,-840.5 1495,-743.5 1340,-743.5"/>
<polygon fill="none" stroke="black" points="1340,-743.5 1340,-840.5 1495,-840.5 1495,-743.5 1340,-743.5"/>
<text text-anchor="start" x="1351" y="-818.3" font-family="Arial" font-size="14.00">AuthDenied</text>
<text text-anchor="start" x="1351" y="-803.3" font-family="Arial" font-size="14.00">InvalidMsg</text>
<text text-anchor="start" x="1351" y="-788.3" font-family="Arial" font-size="14.00">EncodeDecodeError</text>
<text text-anchor="start" x="1351" y="-773.3" font-family="Arial" font-size="14.00">AlreadyAuthorised</text>
<text text-anchor="start" x="1351" y="-758.3" font-family="Arial" font-size="14.00">UnknownApp</text>
<polygon fill="none" stroke="black" points="1338.5,-742.5 1338.5,-878.5 1495.5,-878.5 1495.5,-742.5 1338.5,-742.5"/>
</a>
</g>
</g>
<!-- ndIpcError&#45;&gt;ndIpcMsg -->
<g id="edge7" class="edge"><title>ndIpcError&#45;&gt;ndIpcMsg</title>
<path fill="none" stroke="black" d="M1373.88,-738.307C1340.26,-683.488 1291.88,-606.15 1247,-540 1205.95,-479.496 1158.07,-413.444 1118.51,-359.976"/>
<polygon fill="black" stroke="black" points="1118.36,-359.783 1111.58,-357.345 1111.22,-350.142 1118,-352.581 1118.36,-359.783"/>
</g>
<!-- ndError -->
<g id="node7" class="node"><title>ndError</title>
<g id="a_node7_7"><a xlink:href="https://github.com/maidsafe/safe_network/blob/master/src/errors.rs#:~:text=enum%20Error" xlink:title="&lt;TABLE&gt;">
<polygon fill="yellow" stroke="none" points="1312,-462 1312,-499 1597,-499 1597,-462 1312,-462"/>
<polygon fill="none" stroke="black" points="1312,-462 1312,-499 1597,-499 1597,-462 1312,-462"/>
<text text-anchor="start" x="1436" y="-477.8" font-family="Arial" font-weight="bold" font-size="14.00">Error</text>
<polygon fill="white" stroke="none" points="1312,-5 1312,-462 1597,-462 1597,-5 1312,-5"/>
<polygon fill="none" stroke="black" points="1312,-5 1312,-462 1597,-462 1597,-5 1312,-5"/>
<text text-anchor="start" x="1323" y="-439.8" font-family="Arial" font-size="14.00">AuthError(String)</text>
<text text-anchor="start" x="1323" y="-424.8" font-family="Arial" font-size="14.00">AuthIpcError(IpcError)</text>
<text text-anchor="start" x="1323" y="-409.8" font-family="Arial" font-size="14.00">AuthdClientError(String)</text>
<text text-anchor="start" x="1323" y="-394.8" font-family="Arial" font-size="14.00">AuthdError(String)</text>
<text text-anchor="start" x="1323" y="-379.8" font-family="Arial" font-size="14.00">AuthdAlreadyStarted(String)</text>
<text text-anchor="start" x="1323" y="-364.8" font-family="Arial" font-size="14.00">AuthenticatorError(String)</text>
<text text-anchor="start" x="1323" y="-349.8" font-family="Arial" font-size="14.00">ConnectionError(String)</text>
<text text-anchor="start" x="1323" y="-334.8" font-family="Arial" font-size="14.00">NetDataError(String)</text>
<text text-anchor="start" x="1323" y="-319.8" font-family="Arial" font-size="14.00">ContentNotFound(String)</text>
<text text-anchor="start" x="1323" y="-304.8" font-family="Arial" font-size="14.00">ContentError(String)</text>
<text text-anchor="start" x="1323" y="-289.8" font-family="Arial" font-size="14.00">ClientError(ClientError)</text>
<text text-anchor="start" x="1323" y="-274.8" font-family="Arial" font-size="14.00">EmptyContent(String)</text>
<text text-anchor="start" x="1323" y="-259.8" font-family="Arial" font-size="14.00">AccessDenied(String)</text>
<text text-anchor="start" x="1323" y="-244.8" font-family="Arial" font-size="14.00">VersionNotFound(String)</text>
<text text-anchor="start" x="1323" y="-229.8" font-family="Arial" font-size="14.00">HashNotFound(crate::register::EntryHash)</text>
<text text-anchor="start" x="1323" y="-214.8" font-family="Arial" font-size="14.00">EntryNotFound(String)</text>
<text text-anchor="start" x="1323" y="-199.8" font-family="Arial" font-size="14.00">EntryExists(String)</text>
<text text-anchor="start" x="1323" y="-184.8" font-family="Arial" font-size="14.00">InvalidAmount(String)</text>
<text text-anchor="start" x="1323" y="-169.8" font-family="Arial" font-size="14.00">InvalidXorUrl(String)</text>
<text text-anchor="start" x="1323" y="-154.8" font-family="Arial" font-size="14.00">InvalidInput(String)</text>
<text text-anchor="start" x="1323" y="-139.8" font-family="Arial" font-size="14.00">InvalidMediaType(String)</text>
<text text-anchor="start" x="1323" y="-124.8" font-family="Arial" font-size="14.00">NotEnoughBalance(String)</text>
<text text-anchor="start" x="1323" y="-109.8" font-family="Arial" font-size="14.00">NrsNameAlreadyExists(String)</text>
<text text-anchor="start" x="1323" y="-94.8" font-family="Arial" font-size="14.00">Serialisation(String)</text>
<text text-anchor="start" x="1323" y="-79.8" font-family="Arial" font-size="14.00">FileSystemError(String)</text>
<text text-anchor="start" x="1323" y="-64.8" font-family="Arial" font-size="14.00">UrlError(UrlError)</text>
<text text-anchor="start" x="1323" y="-49.8" font-family="Arial" font-size="14.00">UnversionedContentError(String)</text>
<text text-anchor="start" x="1323" y="-34.8" font-family="Arial" font-size="14.00">NotImplementedError(String)</text>
<text text-anchor="start" x="1323" y="-19.8" font-family="Arial" font-size="14.00">RegisterFork(String)</text>
<polygon fill="none" stroke="black" points="1310.5,-4 1310.5,-500 1597.5,-500 1597.5,-4 1310.5,-4"/>
</a>
</g>
</g>
<!-- ndIpcError&#45;&gt;ndError -->
<g id="edge8" class="edge"><title>ndIpcError&#45;&gt;ndError</title>
<path fill="none" stroke="black" d="M1421.72,-738.454C1425.51,-681.55 1431.06,-597.973 1436.5,-516.143"/>
<polygon fill="black" stroke="black" points="1436.51,-516.06 1432.92,-509.807 1437.31,-504.086 1440.9,-510.338 1436.51,-516.06"/>
</g>
<!-- ndSafeAppClient -->
<g id="node9" class="node"><title>ndSafeAppClient</title>
<g id="a_node9_8"><a xlink:href="https://github.com/maidsafe/safe_network/blob/master/src/app/safe_client.rs#:~:text=struct%20SafeAppClient" xlink:title="&lt;TABLE&gt;">
<polygon fill="lightblue" stroke="none" points="1040,-1406 1040,-1443 1846,-1443 1846,-1406 1040,-1406"/>
<polygon fill="none" stroke="black" points="1040,-1406 1040,-1443 1846,-1443 1846,-1406 1040,-1406"/>
<text text-anchor="start" x="1393.5" y="-1421.8" font-family="Arial" font-weight="bold" font-size="14.00">SafeAppClient</text>
<polygon fill="white" stroke="none" points="1040,-1339 1040,-1406 1846,-1406 1846,-1339 1040,-1339"/>
<polygon fill="none" stroke="black" points="1040,-1339 1040,-1406 1846,-1406 1846,-1339 1040,-1339"/>
<text text-anchor="start" x="1051" y="-1383.8" font-family="Arial" font-size="14.00">&#45; safe_client: Option&lt;Client&gt;</text>
<text text-anchor="start" x="1051" y="-1368.8" font-family="Arial" font-size="14.00">&#45; config_path: Option&lt;PathBuf&gt;</text>
<text text-anchor="start" x="1051" y="-1353.8" font-family="Arial" font-size="14.00">&#45; timeout: Duration</text>
<polygon fill="white" stroke="none" points="1040,-1167 1040,-1339 1846,-1339 1846,-1167 1040,-1167"/>
<polygon fill="none" stroke="black" points="1040,-1167 1040,-1339 1846,-1339 1846,-1167 1040,-1167"/>
<text text-anchor="start" x="1051" y="-1316.8" font-family="Arial" font-size="14.00">&#45; get_safe_client(&amp;self) &#45;&gt; Result&lt;Client&gt;</text>
<text text-anchor="start" x="1051" y="-1301.8" font-family="Arial" font-size="14.00">&#45; new(timeout: Duration) &#45;&gt; Self</text>
<text text-anchor="start" x="1051" y="-1286.8" font-family="Arial" font-size="14.00">&#45; connect(&amp;mut self, app_keypair: Option&lt;Keypair&gt;, config_path: Option&lt;&amp;Path&gt;, node_config: NodeConfig) &#45;&gt; Result&lt;()&gt;</text>
<text text-anchor="start" x="1051" y="-1271.8" font-family="Arial" font-size="14.00">&#45; keypair(&amp;self) &#45;&gt; Result&lt;Keypair&gt;</text>
<text text-anchor="start" x="1051" y="-1256.8" font-family="Arial" font-size="14.00">&#45; store_bytes(&amp;self, bytes: Bytes, dry_run: bool) &#45;&gt; Result&lt;XorName&gt;</text>
<text text-anchor="start" x="1051" y="-1241.8" font-family="Arial" font-size="14.00">&#45; get_bytes(&amp;self, address: BytesAddress, range: Range) &#45;&gt; Result&lt;Bytes&gt;</text>
<text text-anchor="start" x="1051" y="-1226.8" font-family="Arial" font-size="14.00">&#45; store_register(&amp;self, name: Option&lt;XorName&gt;, tag: u64, _permissions: Option&lt;String&gt;, private: bool) &#45;&gt; Result&lt;XorName&gt;</text>
<text text-anchor="start" x="1051" y="-1211.8" font-family="Arial" font-size="14.00">&#45; read_register(&amp;self, address: RegisterAddress) &#45;&gt; Result&lt;BTreeSet&lt;(EntryHash, Entry)&gt;&gt;</text>
<text text-anchor="start" x="1051" y="-1196.8" font-family="Arial" font-size="14.00">&#45; get_register_entry(&amp;self, address: RegisterAddress, hash: EntryHash) &#45;&gt; Result&lt;Entry&gt;</text>
<text text-anchor="start" x="1051" y="-1181.8" font-family="Arial" font-size="14.00">&#45; write_to_register(&amp;self, address: RegisterAddress, entry: Entry, parents: BTreeSet&lt;EntryHash&gt;) &#45;&gt; Result&lt;EntryHash&gt;</text>
<polygon fill="none" stroke="black" points="1039,-1166 1039,-1444 1847,-1444 1847,-1166 1039,-1166"/>
</a>
</g>
</g>
<!-- ndSafe -->
<g id="node13" class="node"><title>ndSafe</title>
<g id="a_node13_9"><a xlink:href="https://github.com/maidsafe/safe_network/blob/master/src/app/mod.rs#:~:text=struct%20Safe" xlink:title="&lt;TABLE&gt;">
<polygon fill="lightblue" stroke="none" points="1530,-1038.5 1530,-1075.5 2740,-1075.5 2740,-1038.5 1530,-1038.5"/>
<polygon fill="none" stroke="black" points="1530,-1038.5 1530,-1075.5 2740,-1075.5 2740,-1038.5 1530,-1038.5"/>
<text text-anchor="start" x="2119.5" y="-1054.3" font-family="Arial" font-weight="bold" font-size="14.00">Safe</text>
<polygon fill="white" stroke="none" points="1530,-986.5 1530,-1038.5 2740,-1038.5 2740,-986.5 1530,-986.5"/>
<polygon fill="none" stroke="black" points="1530,-986.5 1530,-1038.5 2740,-1038.5 2740,-986.5 1530,-986.5"/>
<text text-anchor="start" x="1541" y="-1016.3" font-family="Arial" font-size="14.00">&#45; safe_client: SafeAppClient</text>
<text text-anchor="start" x="1541" y="-1001.3" font-family="Arial" font-size="14.00">+ xorurl_base: XorUrlBase</text>
<polygon fill="white" stroke="none" points="1530,-544.5 1530,-986.5 2740,-986.5 2740,-544.5 1530,-544.5"/>
<polygon fill="none" stroke="black" points="1530,-544.5 1530,-986.5 2740,-986.5 2740,-544.5 1530,-544.5"/>
<text text-anchor="start" x="1541" y="-964.3" font-family="Arial" font-size="14.00">&#45; default() &#45;&gt; Self</text>
<text text-anchor="start" x="1541" y="-949.3" font-family="Arial" font-size="14.00">&#45; new(xorurl_base: Option&lt;XorUrlBase&gt;, timeout: Duration) &#45;&gt; Self</text>
<text text-anchor="start" x="1541" y="-934.3" font-family="Arial" font-size="14.00">&#45; keypair(&amp;self) &#45;&gt; Keypair</text>
<text text-anchor="start" x="1541" y="-919.3" font-family="Arial" font-size="14.00">&#45; get_my_keypair(&amp;self) &#45;&gt; Result&lt;Keypair&gt;</text>
<text text-anchor="start" x="1541" y="-904.3" font-family="Arial" font-size="14.00">&#45; parse_url(url: &amp;str) &#45;&gt; Result&lt;Url&gt;</text>
<text text-anchor="start" x="1541" y="-889.3" font-family="Arial" font-size="14.00">&#45; nrs_create(&amp;self, top_name: &amp;str, dry_run: bool) &#45;&gt; Result&lt;Url&gt;</text>
<text text-anchor="start" x="1541" y="-874.3" font-family="Arial" font-size="14.00">&#45; nrs_associate(&amp;self, public_name: &amp;str, link: &amp;Url, dry_run: bool) &#45;&gt; Result&lt;Url&gt;</text>
<text text-anchor="start" x="1541" y="-859.3" font-family="Arial" font-size="14.00">&#45; nrs_add(&amp;self, public_name: &amp;str, link: &amp;Url, dry_run: bool) &#45;&gt; Result&lt;(Url, bool)&gt;</text>
<text text-anchor="start" x="1541" y="-844.3" font-family="Arial" font-size="14.00">&#45; nrs_remove(&amp;self, public_name: &amp;str, dry_run: bool) &#45;&gt; Result&lt;Url&gt;</text>
<text text-anchor="start" x="1541" y="-829.3" font-family="Arial" font-size="14.00">&#45; nrs_get(&amp;self, public_name: &amp;str, version: Option&lt;VersionHash&gt;) &#45;&gt; Result&lt;(Url, NrsMap)&gt;</text>
<text text-anchor="start" x="1541" y="-814.3" font-family="Arial" font-size="14.00">&#45; nrs_get_subnames_map(&amp;self, public_name: &amp;str, version: Option&lt;VersionHash&gt;) &#45;&gt; Result&lt;NrsMap&gt;</text>
<text text-anchor="start" x="1541" y="-799.3" font-family="Arial" font-size="14.00">&#45; fetch_nrs_map(&amp;self, public_name: &amp;str, version: Option&lt;VersionHash&gt;) &#45;&gt; Result&lt;(NrsMap, VersionHash)&gt;</text>
<text text-anchor="start" x="1541" y="-784.3" font-family="Arial" font-size="14.00">&#45; store_nrs_map(&amp;self, nrs_map: &amp;NrsMap) &#45;&gt; Result&lt;String&gt;</text>
<text text-anchor="start" x="1541" y="-769.3" font-family="Arial" font-size="14.00">&#45; generate_random_ed_keypair(&amp;self) &#45;&gt; Keypair</text>
<text text-anchor="start" x="1541" y="-754.3" font-family="Arial" font-size="14.00">&#45; validate_sk_for_url(&amp;self, secret_key: &amp;SecretKey, url: &amp;str) &#45;&gt; Result&lt;String&gt;</text>
<text text-anchor="start" x="1541" y="-739.3" font-family="Arial" font-size="14.00">&#45; parse_and_resolve_url(&amp;self, url: &amp;str) &#45;&gt; Result&lt;Url&gt;</text>
<text text-anchor="start" x="1541" y="-724.3" font-family="Arial" font-size="14.00">&#45; fetch(&amp;self, url: &amp;str, range: Range) &#45;&gt; Result&lt;SafeData&gt;</text>
<text text-anchor="start" x="1541" y="-709.3" font-family="Arial" font-size="14.00">&#45; inspect(&amp;mut self, url: &amp;str) &#45;&gt; Result&lt;Vec&lt;SafeData&gt;&gt;</text>
<text text-anchor="start" x="1541" y="-694.3" font-family="Arial" font-size="14.00">&#45; recursive_resolve_url(&amp;self, input_url: Url, attached_metadata: Option&lt;FileInfo&gt;, retrieve_data: bool, range: Range, resolve_path: bool, indirections_limit: usize) &#45;&gt; Result&lt;Vec&lt;SafeData&gt;&gt;</text>
<text text-anchor="start" x="1541" y="-679.3" font-family="Arial" font-size="14.00">&#45; resolve_url(&amp;self, input_url: Url, attached_metadata: Option&lt;FileInfo&gt;, fetch_mode: bool, range: Range, resolve_path: bool) &#45;&gt; Result&lt;SafeData&gt;</text>
<text text-anchor="start" x="1541" y="-664.3" font-family="Arial" font-size="14.00">&#45; resolve_nrs_map_container(&amp;self, input_url: Url) &#45;&gt; Result&lt;SafeData&gt;</text>
<text text-anchor="start" x="1541" y="-649.3" font-family="Arial" font-size="14.00">&#45; resolve_multimap(&amp;self, input_url: Url, retrieve_data: bool) &#45;&gt; Result&lt;SafeData&gt;</text>
<text text-anchor="start" x="1541" y="-634.3" font-family="Arial" font-size="14.00">&#45; resolve_raw(&amp;self, input_url: Url, metadata: Option&lt;FileInfo&gt;, retrieve_data: bool, range: Range) &#45;&gt; Result&lt;SafeData&gt;</text>
<text text-anchor="start" x="1541" y="-619.3" font-family="Arial" font-size="14.00">&#45; resolve_mediatype(&amp;self, input_url: Url, metadata: Option&lt;FileInfo&gt;, retrieve_data: bool, range: Range, media_type_str: String) &#45;&gt; Result&lt;SafeData&gt;</text>
<text text-anchor="start" x="1541" y="-604.3" font-family="Arial" font-size="14.00">&#45; resolve_file_container(&amp;self, input_url: Url, resolve_path: bool) &#45;&gt; Result&lt;SafeData&gt;</text>
<text text-anchor="start" x="1541" y="-589.3" font-family="Arial" font-size="14.00">&#45; retrieve_data(&amp;self, input_url: &amp;Url, retrieve_data: bool, media_type: Option&lt;String&gt;, metadata: &amp;Option&lt;FileInfo&gt;, range: Range) &#45;&gt; Result&lt;SafeData&gt;</text>
<text text-anchor="start" x="1541" y="-574.3" font-family="Arial" font-size="14.00">&#45; auth_app(app_id: &amp;str, app_name: &amp;str, app_vendor: &amp;str, endpoint: Option&lt;&amp;str&gt;) &#45;&gt; Result&lt;Keypair&gt;</text>
<text text-anchor="start" x="1541" y="-559.3" font-family="Arial" font-size="14.00">&#45; connect(&amp;mut self, app_keypair: Option&lt;Keypair&gt;, config_path: Option&lt;&amp;Path&gt;, bootstrap_config: NodeConfig) &#45;&gt; Result&lt;()&gt;</text>
<polygon fill="none" stroke="black" points="1529,-544 1529,-1077 2741,-1077 2741,-544 1529,-544"/>
</a>
</g>
</g>
<!-- ndSafeAppClient&#45;&gt;ndSafe -->
<g id="edge9" class="edge"><title>ndSafeAppClient&#45;&gt;ndSafe</title>
<path fill="none" stroke="black" d="M1642.69,-1161.88C1675.53,-1138.5 1710.53,-1113.6 1746.14,-1088.25"/>
<polygon fill="black" stroke="black" points="1746.43,-1088.05 1749,-1081.31 1756.2,-1081.09 1753.64,-1087.83 1746.43,-1088.05"/>
</g>
<!-- ndGetAttr -->
<g id="node10" class="node"><title>ndGetAttr</title>
<g id="a_node10_10"><a xlink:href="https://github.com/maidsafe/safe_network/blob/master/src/app/files/files_map.rs#:~:text=trait%20GetAttr" xlink:title="&lt;TABLE&gt;">
<polygon fill="lightgreen" stroke="none" points="2718,-1305 2718,-1342 2960,-1342 2960,-1305 2718,-1305"/>
<polygon fill="none" stroke="black" points="2718,-1305 2718,-1342 2960,-1342 2960,-1305 2718,-1305"/>
<text text-anchor="start" x="2814.5" y="-1320.8" font-family="Arial" font-weight="bold" font-size="14.00">GetAttr</text>
<polygon fill="white" stroke="none" points="2718,-1268 2718,-1305 2960,-1305 2960,-1268 2718,-1268"/>
<polygon fill="none" stroke="black" points="2718,-1268 2718,-1305 2960,-1305 2960,-1268 2718,-1268"/>
<text text-anchor="start" x="2729" y="-1282.8" font-family="Arial" font-size="14.00">getattr(&amp;Self, &amp;str) &#45;&gt; Result&lt;&amp;str&gt;</text>
<polygon fill="none" stroke="black" points="2717,-1267 2717,-1343 2961,-1343 2961,-1267 2717,-1267"/>
</a>
</g>
</g>
<!-- ndFileMeta -->
<g id="node11" class="node"><title>ndFileMeta</title>
<g id="a_node11_11"><a xlink:href="https://github.com/maidsafe/safe_network/blob/master/src/app/files/metadata.rs#:~:text=struct%20FileMeta" xlink:title="&lt;TABLE&gt;">
<polygon fill="lightblue" stroke="none" points="2997,-1451 2997,-1488 3470,-1488 3470,-1451 2997,-1451"/>
<polygon fill="none" stroke="black" points="2997,-1451 2997,-1488 3470,-1488 3470,-1451 2997,-1451"/>
<text text-anchor="start" x="3204" y="-1466.8" font-family="Arial" font-weight="bold" font-size="14.00">FileMeta</text>
<polygon fill="white" stroke="none" points="2997,-1309 2997,-1451 3470,-1451 3470,-1309 2997,-1309"/>
<polygon fill="none" stroke="black" points="2997,-1309 2997,-1451 3470,-1451 3470,-1309 2997,-1309"/>
<text text-anchor="start" x="3008" y="-1428.8" font-family="Arial" font-size="14.00">&#45; created: String</text>
<text text-anchor="start" x="3008" y="-1413.8" font-family="Arial" font-size="14.00">&#45; modified: String</text>
<text text-anchor="start" x="3008" y="-1398.8" font-family="Arial" font-size="14.00">&#45; file_size: String</text>
<text text-anchor="start" x="3008" y="-1383.8" font-family="Arial" font-size="14.00">&#45; file_type: String</text>
<text text-anchor="start" x="3008" y="-1368.8" font-family="Arial" font-size="14.00">&#45; readonly: Option&lt;String&gt;</text>
<text text-anchor="start" x="3008" y="-1353.8" font-family="Arial" font-size="14.00">&#45; mode_bits: Option&lt;String&gt;</text>
<text text-anchor="start" x="3008" y="-1338.8" font-family="Arial" font-size="14.00">&#45; original_created: Option&lt;String&gt;</text>
<text text-anchor="start" x="3008" y="-1323.8" font-family="Arial" font-size="14.00">&#45; original_modified: Option&lt;String&gt;</text>
<polygon fill="white" stroke="none" points="2997,-1122 2997,-1309 3470,-1309 3470,-1122 2997,-1122"/>
<polygon fill="none" stroke="black" points="2997,-1122 2997,-1309 3470,-1309 3470,-1122 2997,-1122"/>
<text text-anchor="start" x="3008" y="-1286.8" font-family="Arial" font-size="14.00">&#45; from_path(path: &amp;str, follow_links: bool) &#45;&gt; Result&lt;Self&gt;</text>
<text text-anchor="start" x="3008" y="-1271.8" font-family="Arial" font-size="14.00">&#45; from_file_item(file_item: &amp;FileInfo) &#45;&gt; Self</text>
<text text-anchor="start" x="3008" y="-1256.8" font-family="Arial" font-size="14.00">&#45; from_type_and_size(file_type: &amp;str, file_size: &amp;str) &#45;&gt; Self</text>
<text text-anchor="start" x="3008" y="-1241.8" font-family="Arial" font-size="14.00">&#45; to_file_item(&amp;self) &#45;&gt; FileInfo</text>
<text text-anchor="start" x="3008" y="-1226.8" font-family="Arial" font-size="14.00">&#45; filetype_is_file(file_type: &amp;str) &#45;&gt; bool</text>
<text text-anchor="start" x="3008" y="-1211.8" font-family="Arial" font-size="14.00">&#45; filetype_is_symlink(file_type: &amp;str) &#45;&gt; bool</text>
<text text-anchor="start" x="3008" y="-1196.8" font-family="Arial" font-size="14.00">&#45; filetype_is_dir(file_type: &amp;str) &#45;&gt; bool</text>
<text text-anchor="start" x="3008" y="-1181.8" font-family="Arial" font-size="14.00">&#45; is_file(&amp;self) &#45;&gt; bool</text>
<text text-anchor="start" x="3008" y="-1166.8" font-family="Arial" font-size="14.00">&#45; is_symlink(&amp;self) &#45;&gt; bool</text>
<text text-anchor="start" x="3008" y="-1151.8" font-family="Arial" font-size="14.00">&#45; is_dir(&amp;self) &#45;&gt; bool</text>
<text text-anchor="start" x="3008" y="-1136.8" font-family="Arial" font-size="14.00">&#45; add_to_fileitem(file_item: &amp;mut FileInfo, key: &amp;str, val: Option&lt;String&gt;)</text>
<polygon fill="none" stroke="black" points="2995.5,-1121 2995.5,-1489 3470.5,-1489 3470.5,-1121 2995.5,-1121"/>
</a>
</g>
</g>
<!-- ndRealPath -->
<g id="node12" class="node"><title>ndRealPath</title>
<g id="a_node12_12"><a xlink:href="https://github.com/maidsafe/safe_network/blob/master/src/app/files/realpath.rs#:~:text=trait%20RealPath" xlink:title="&lt;TABLE&gt;">
<polygon fill="lightgreen" stroke="none" points="3506,-1305 3506,-1342 3770,-1342 3770,-1305 3506,-1305"/>
<polygon fill="none" stroke="black" points="3506,-1305 3506,-1342 3770,-1342 3770,-1305 3506,-1305"/>
<text text-anchor="start" x="3607" y="-1320.8" font-family="Arial" font-weight="bold" font-size="14.00">RealPath</text>
<polygon fill="white" stroke="none" points="3506,-1268 3506,-1305 3770,-1305 3770,-1268 3506,-1268"/>
<polygon fill="none" stroke="black" points="3506,-1268 3506,-1305 3770,-1305 3770,-1268 3506,-1268"/>
<text text-anchor="start" x="3517" y="-1282.8" font-family="Arial" font-size="14.00">realpath(&amp;Self, &amp;str) &#45;&gt; Result&lt;String&gt;</text>
<polygon fill="none" stroke="black" points="3505,-1267 3505,-1343 3771,-1343 3771,-1267 3505,-1267"/>
</a>
</g>
</g>
<!-- ndNrsMap -->
<g id="node14" class="node"><title>ndNrsMap</title>
<g id="a_node14_13"><a xlink:href="https://github.com/maidsafe/safe_network/blob/master/src/app/nrs/nrs_map.rs#:~:text=struct%20NrsMap" xlink:title="&lt;TABLE&gt;">
<polygon fill="lightblue" stroke="none" points="1882,-1353 1882,-1390 2388,-1390 2388,-1353 1882,-1353"/>
<polygon fill="none" stroke="black" points="1882,-1353 1882,-1390 2388,-1390 2388,-1353 1882,-1353"/>
<text text-anchor="start" x="2107.5" y="-1368.8" font-family="Arial" font-weight="bold" font-size="14.00">NrsMap</text>
<polygon fill="white" stroke="none" points="1882,-1316 1882,-1353 2388,-1353 2388,-1316 1882,-1316"/>
<polygon fill="none" stroke="black" points="1882,-1316 1882,-1353 2388,-1353 2388,-1316 1882,-1316"/>
<text text-anchor="start" x="1893" y="-1330.8" font-family="Arial" font-size="14.00">+ map: BTreeMap&lt;SubName, Url&gt;</text>
<polygon fill="white" stroke="none" points="1882,-1219 1882,-1316 2388,-1316 2388,-1219 1882,-1219"/>
<polygon fill="none" stroke="black" points="1882,-1219 1882,-1316 2388,-1316 2388,-1219 1882,-1219"/>
<text text-anchor="start" x="1893" y="-1293.8" font-family="Arial" font-size="14.00">&#45; associate(&amp;mut self, public_name: &amp;str, link: &amp;Url) &#45;&gt; Result&lt;String&gt;</text>
<text text-anchor="start" x="1893" y="-1278.8" font-family="Arial" font-size="14.00">&#45; get(&amp;self, public_name: &amp;str) &#45;&gt; Result&lt;Url&gt;</text>
<text text-anchor="start" x="1893" y="-1263.8" font-family="Arial" font-size="14.00">&#45; get_for_subname(&amp;self, sub_name: &amp;str) &#45;&gt; Result&lt;Url&gt;</text>
<text text-anchor="start" x="1893" y="-1248.8" font-family="Arial" font-size="14.00">&#45; remove(&amp;mut self, public_name: &amp;str) &#45;&gt; Result&lt;()&gt;</text>
<text text-anchor="start" x="1893" y="-1233.8" font-family="Arial" font-size="14.00">&#45; get_map_summary(&amp;self) &#45;&gt; BTreeMap&lt;String, BTreeMap&lt;String, String&gt;&gt;</text>
<polygon fill="none" stroke="black" points="1881,-1218.5 1881,-1391.5 2389,-1391.5 2389,-1218.5 1881,-1218.5"/>
</a>
</g>
</g>
<!-- ndNrsMap&#45;&gt;ndSafe -->
<g id="edge10" class="edge"><title>ndNrsMap&#45;&gt;ndSafe</title>
<path fill="none" stroke="black" stroke-dasharray="5,2" d="M2135,-1214.24C2135,-1178.71 2135,-1135.76 2135,-1091.32"/>
<polygon fill="black" stroke="black" points="2135,-1081.21 2139.5,-1091.21 2135,-1086.21 2135,-1091.21 2135,-1091.21 2135,-1091.21 2135,-1086.21 2130.5,-1091.21 2135,-1081.21 2135,-1081.21"/>
</g>
<!-- ndSafeData -->
<g id="node15" class="node"><title>ndSafeData</title>
<g id="a_node15_14"><a xlink:href="https://github.com/maidsafe/safe_network/blob/master/src/app/resolver/mod.rs#:~:text=enum%20SafeData" xlink:title="&lt;TABLE&gt;">
<polygon fill="yellow" stroke="none" points="2424,-1391 2424,-1428 2682,-1428 2682,-1391 2424,-1391"/>
<polygon fill="none" stroke="black" points="2424,-1391 2424,-1428 2682,-1428 2682,-1391 2424,-1391"/>
<text text-anchor="start" x="2521.5" y="-1406.8" font-family="Arial" font-weight="bold" font-size="14.00">SafeData</text>
<polygon fill="white" stroke="none" points="2424,-1264 2424,-1391 2682,-1391 2682,-1264 2424,-1264"/>
<polygon fill="none" stroke="black" points="2424,-1264 2424,-1391 2682,-1391 2682,-1264 2424,-1264"/>
<text text-anchor="start" x="2435" y="-1368.8" font-family="Arial" font-size="14.00">SafeKey</text>
<text text-anchor="start" x="2435" y="-1353.8" font-family="Arial" font-size="14.00">FilesContainer</text>
<text text-anchor="start" x="2435" y="-1338.8" font-family="Arial" font-size="14.00">PublicBlob</text>
<text text-anchor="start" x="2435" y="-1323.8" font-family="Arial" font-size="14.00">NrsMapContainer</text>
<text text-anchor="start" x="2435" y="-1308.8" font-family="Arial" font-size="14.00">Multimap</text>
<text text-anchor="start" x="2435" y="-1293.8" font-family="Arial" font-size="14.00">PublicRegister</text>
<text text-anchor="start" x="2435" y="-1278.8" font-family="Arial" font-size="14.00">PrivateRegister</text>
<polygon fill="white" stroke="none" points="2424,-1182 2424,-1264 2682,-1264 2682,-1182 2424,-1182"/>
<polygon fill="none" stroke="black" points="2424,-1182 2424,-1264 2682,-1264 2682,-1182 2424,-1182"/>
<text text-anchor="start" x="2435" y="-1241.8" font-family="Arial" font-size="14.00">&#45; xorurl(&amp;self) &#45;&gt; String</text>
<text text-anchor="start" x="2435" y="-1226.8" font-family="Arial" font-size="14.00">&#45; resolved_from(&amp;self) &#45;&gt; String</text>
<text text-anchor="start" x="2435" y="-1211.8" font-family="Arial" font-size="14.00">&#45; resolves_into(&amp;self) &#45;&gt; Option&lt;Url&gt;</text>
<text text-anchor="start" x="2435" y="-1196.8" font-family="Arial" font-size="14.00">&#45; metadata(&amp;self) &#45;&gt; Option&lt;FileInfo&gt;</text>
<polygon fill="none" stroke="black" points="2423,-1181 2423,-1429 2683,-1429 2683,-1181 2423,-1181"/>
</a>
</g>
</g>
<!-- ndSafeData&#45;&gt;ndSafe -->
<g id="edge11" class="edge"><title>ndSafeData&#45;&gt;ndSafe</title>
<path fill="none" stroke="black" d="M2454.77,-1176.94C2438.67,-1156.73 2422.02,-1136.17 2406,-1117 2398.2,-1107.66 2390.23,-1098.2 2382.14,-1088.68"/>
<polygon fill="black" stroke="black" points="2375.63,-1081.03 2385.54,-1085.73 2378.87,-1084.84 2382.11,-1088.65 2382.11,-1088.65 2382.11,-1088.65 2378.87,-1084.84 2378.69,-1091.56 2375.63,-1081.03 2375.63,-1081.03"/>
</g>
<!-- ndAuthdStatus -->
<g id="node16" class="node"><title>ndAuthdStatus</title>
<g id="a_node16_15"><a xlink:href="https://github.com/maidsafe/safe_network/blob/master/src/authd_client/authd_client_api.rs#:~:text=struct%20AuthdStatus" xlink:title="&lt;TABLE&gt;">
<polygon fill="lightblue" stroke="none" points="3807,-1327 3807,-1364 3974,-1364 3974,-1327 3807,-1327"/>
<polygon fill="none" stroke="black" points="3807,-1327 3807,-1364 3974,-1364 3974,-1327 3807,-1327"/>
<text text-anchor="start" x="3847.5" y="-1342.8" font-family="Arial" font-weight="bold" font-size="14.00">AuthdStatus</text>
<polygon fill="white" stroke="none" points="3807,-1245 3807,-1327 3974,-1327 3974,-1245 3807,-1245"/>
<polygon fill="none" stroke="black" points="3807,-1245 3807,-1327 3974,-1327 3974,-1245 3807,-1245"/>
<text text-anchor="start" x="3818" y="-1304.8" font-family="Arial" font-size="14.00">+ safe_unlocked: bool</text>
<text text-anchor="start" x="3818" y="-1289.8" font-family="Arial" font-size="14.00">+ num_auth_reqs: u32</text>
<text text-anchor="start" x="3818" y="-1274.8" font-family="Arial" font-size="14.00">+ num_notif_subs: u32</text>
<text text-anchor="start" x="3818" y="-1259.8" font-family="Arial" font-size="14.00">+ authd_version: String</text>
<polygon fill="none" stroke="black" points="3805.5,-1244.5 3805.5,-1365.5 3974.5,-1365.5 3974.5,-1244.5 3805.5,-1244.5"/>
</a>
</g>
</g>
<!-- ndSafeAuthdClient -->
<g id="node17" class="node"><title>ndSafeAuthdClient</title>
<g id="a_node17_16"><a xlink:href="https://github.com/maidsafe/safe_network/blob/master/src/authd_client/authd_client_api.rs#:~:text=struct%20SafeAuthdClient" xlink:title="&lt;TABLE&gt;">
<polygon fill="lightblue" stroke="none" points="3616,-971.5 3616,-1008.5 4165,-1008.5 4165,-971.5 3616,-971.5"/>
<polygon fill="none" stroke="black" points="3616,-971.5 3616,-1008.5 4165,-1008.5 4165,-971.5 3616,-971.5"/>
<text text-anchor="start" x="3834.5" y="-987.3" font-family="Arial" font-weight="bold" font-size="14.00">SafeAuthdClient</text>
<polygon fill="white" stroke="none" points="3616,-919.5 3616,-971.5 4165,-971.5 4165,-919.5 3616,-919.5"/>
<polygon fill="none" stroke="black" points="3616,-919.5 3616,-971.5 4165,-971.5 4165,-919.5 3616,-919.5"/>
<text text-anchor="start" x="3627" y="-949.3" font-family="Arial" font-size="14.00">+ authd_endpoint: String</text>
<text text-anchor="start" x="3627" y="-934.3" font-family="Arial" font-size="14.00">&#45; subscribed_endpoint: Option&lt;(String, task::JoinHandle&lt;()&gt;, task::JoinHandle&lt;()&gt;)&gt;</text>
<polygon fill="white" stroke="none" points="3616,-612.5 3616,-919.5 4165,-919.5 4165,-612.5 3616,-612.5"/>
<polygon fill="none" stroke="black" points="3616,-612.5 3616,-919.5 4165,-919.5 4165,-612.5 3616,-612.5"/>
<text text-anchor="start" x="3627" y="-897.3" font-family="Arial" font-size="14.00">&#45; drop(&amp;mut self)</text>
<text text-anchor="start" x="3627" y="-882.3" font-family="Arial" font-size="14.00">&#45; new(endpoint: Option&lt;String&gt;) &#45;&gt; Self</text>
<text text-anchor="start" x="3627" y="-867.3" font-family="Arial" font-size="14.00">&#45; version(&amp;self, authd_path: Option&lt;&amp;str&gt;) &#45;&gt; Result&lt;()&gt;</text>
<text text-anchor="start" x="3627" y="-852.3" font-family="Arial" font-size="14.00">&#45; update(&amp;self, authd_path: Option&lt;&amp;str&gt;) &#45;&gt; Result&lt;()&gt;</text>
<text text-anchor="start" x="3627" y="-837.3" font-family="Arial" font-size="14.00">&#45; start(&amp;self, authd_path: Option&lt;&amp;str&gt;) &#45;&gt; Result&lt;()&gt;</text>
<text text-anchor="start" x="3627" y="-822.3" font-family="Arial" font-size="14.00">&#45; stop(&amp;self, authd_path: Option&lt;&amp;str&gt;) &#45;&gt; Result&lt;()&gt;</text>
<text text-anchor="start" x="3627" y="-807.3" font-family="Arial" font-size="14.00">&#45; restart(&amp;self, authd_path: Option&lt;&amp;str&gt;) &#45;&gt; Result&lt;()&gt;</text>
<text text-anchor="start" x="3627" y="-792.3" font-family="Arial" font-size="14.00">&#45; status(&amp;mut self) &#45;&gt; Result&lt;AuthdStatus&gt;</text>
<text text-anchor="start" x="3627" y="-777.3" font-family="Arial" font-size="14.00">&#45; unlock(&amp;mut self, passphrase: &amp;str, password: &amp;str) &#45;&gt; Result&lt;()&gt;</text>
<text text-anchor="start" x="3627" y="-762.3" font-family="Arial" font-size="14.00">&#45; lock(&amp;mut self) &#45;&gt; Result&lt;()&gt;</text>
<text text-anchor="start" x="3627" y="-747.3" font-family="Arial" font-size="14.00">&#45; create(&amp;self, passphrase: &amp;str, password: &amp;str) &#45;&gt; Result&lt;()&gt;</text>
<text text-anchor="start" x="3627" y="-732.3" font-family="Arial" font-size="14.00">&#45; authed_apps(&amp;self) &#45;&gt; Result&lt;AuthedAppsList&gt;</text>
<text text-anchor="start" x="3627" y="-717.3" font-family="Arial" font-size="14.00">&#45; revoke_app(&amp;self, app_id: &amp;str) &#45;&gt; Result&lt;()&gt;</text>
<text text-anchor="start" x="3627" y="-702.3" font-family="Arial" font-size="14.00">&#45; auth_reqs(&amp;self) &#45;&gt; Result&lt;PendingAuthReqs&gt;</text>
<text text-anchor="start" x="3627" y="-687.3" font-family="Arial" font-size="14.00">&#45; allow(&amp;self, req_id: SafeAuthReqId) &#45;&gt; Result&lt;()&gt;</text>
<text text-anchor="start" x="3627" y="-672.3" font-family="Arial" font-size="14.00">&#45; deny(&amp;self, req_id: SafeAuthReqId) &#45;&gt; Result&lt;()&gt;</text>
<text text-anchor="start" x="3627" y="-657.3" font-family="Arial" font-size="14.00">&#45; subscribe(&amp;mut self, endpoint_url: &amp;str, _app_id: &amp;str, allow_cb: CB) &#45;&gt; Result&lt;()&gt;</text>
<text text-anchor="start" x="3627" y="-642.3" font-family="Arial" font-size="14.00">&#45; subscribe_url(&amp;self, endpoint_url: &amp;str) &#45;&gt; Result&lt;()&gt;</text>
<text text-anchor="start" x="3627" y="-627.3" font-family="Arial" font-size="14.00">&#45; unsubscribe(&amp;mut self, endpoint_url: &amp;str) &#45;&gt; Result&lt;()&gt;</text>
<polygon fill="none" stroke="black" points="3614.5,-611.5 3614.5,-1009.5 4165.5,-1009.5 4165.5,-611.5 3614.5,-611.5"/>
</a>
</g>
</g>
<!-- ndAuthdStatus&#45;&gt;ndSafeAuthdClient -->
<g id="edge12" class="edge"><title>ndAuthdStatus&#45;&gt;ndSafeAuthdClient</title>
<path fill="none" stroke="black" d="M3890,-1240.37C3890,-1185.2 3890,-1102.1 3890,-1023.7"/>
<polygon fill="black" stroke="black" points="3890,-1013.67 3894.5,-1023.67 3890,-1018.67 3890,-1023.67 3890,-1023.67 3890,-1023.67 3890,-1018.67 3885.5,-1023.67 3890,-1013.67 3890,-1013.67"/>
</g>
</g>
</svg>
