<?xml version="1.0" encoding="UTF-8" standalone="no"?>
<!DOCTYPE svg PUBLIC "-//W3C//DTD SVG 1.1//EN"
 "http://www.w3.org/Graphics/SVG/1.1/DTD/svg11.dtd">
<!-- Generated by graphviz version 2.38.0 (20140413.2041)
 -->
<!-- Title: ml Pages: 1 -->
<svg width="3198pt" height="872pt"
 viewBox="0.00 0.00 3197.50 872.00" xmlns="http://www.w3.org/2000/svg" xmlns:xlink="http://www.w3.org/1999/xlink">
<g id="graph0" class="graph" transform="scale(1 1) rotate(0) translate(4 868)">
<title>ml</title>
<polygon fill="white" stroke="none" points="-4,4 -4,-868 3193.5,-868 3193.5,4 -4,4"/>
<!-- ndIpcResp -->
<g id="node1" class="node"><title>ndIpcResp</title>
<g id="a_node1_0"><a xlink:href="https://github.com/maidsafe/safe_network/blob/master/src/ipc/resp.rs#:~:text=enum%20IpcResp" xlink:title="&lt;TABLE&gt;">
<polygon fill="yellow" stroke="none" points="615,-244 615,-281 921,-281 921,-244 615,-244"/>
<polygon fill="none" stroke="black" points="615,-244 615,-281 921,-281 921,-244 615,-244"/>
<text text-anchor="start" x="739.5" y="-259.8" font-family="Arial" font-weight="bold" font-size="14.00">IpcResp</text>
<polygon fill="white" stroke="none" points="615,-192 615,-244 921,-244 921,-192 615,-192"/>
<polygon fill="none" stroke="black" points="615,-192 615,-244 921,-244 921,-192 615,-192"/>
<text text-anchor="start" x="626" y="-221.8" font-family="Arial" font-size="14.00">Auth(Result&lt;AuthGranted, IpcError&gt;)</text>
<text text-anchor="start" x="626" y="-206.8" font-family="Arial" font-size="14.00">Unregistered(Result&lt;NodeConfig, IpcError&gt;)</text>
<polygon fill="none" stroke="black" points="614,-191.5 614,-282.5 922,-282.5 922,-191.5 614,-191.5"/>
</a>
</g>
</g>
<!-- ndIpcMsg -->
<g id="node6" class="node"><title>ndIpcMsg</title>
<g id="a_node6_1"><a xlink:href="https://github.com/maidsafe/safe_network/blob/master/src/ipc/mod.rs#:~:text=enum%20IpcMsg" xlink:title="&lt;TABLE&gt;">
<polygon fill="yellow" stroke="none" points="708,-72 708,-109 829,-109 829,-72 708,-72"/>
<polygon fill="none" stroke="black" points="708,-72 708,-109 829,-109 829,-72 708,-72"/>
<text text-anchor="start" x="742.5" y="-87.8" font-family="Arial" font-weight="bold" font-size="14.00">IpcMsg</text>
<polygon fill="white" stroke="none" points="708,-5 708,-72 829,-72 829,-5 708,-5"/>
<polygon fill="none" stroke="black" points="708,-5 708,-72 829,-72 829,-5 708,-5"/>
<text text-anchor="start" x="719" y="-49.8" font-family="Arial" font-size="14.00">Req(IpcReq)</text>
<text text-anchor="start" x="719" y="-34.8" font-family="Arial" font-size="14.00">Resp(IpcResp)</text>
<text text-anchor="start" x="719" y="-19.8" font-family="Arial" font-size="14.00">Err(IpcError)</text>
<polygon fill="none" stroke="black" points="706.5,-4 706.5,-110 829.5,-110 829.5,-4 706.5,-4"/>
</a>
</g>
</g>
<!-- ndIpcResp&#45;&gt;ndIpcMsg -->
<g id="edge1" class="edge"><title>ndIpcResp&#45;&gt;ndIpcMsg</title>
<path fill="none" stroke="black" d="M768,-187.361C768,-168.519 768,-146.615 768,-126.247"/>
<polygon fill="black" stroke="black" points="768,-126.137 764,-120.137 768,-114.137 772,-120.137 768,-126.137"/>
</g>
<!-- ndAuthGranted -->
<g id="node2" class="node"><title>ndAuthGranted</title>
<g id="a_node2_2"><a xlink:href="https://github.com/maidsafe/safe_network/blob/master/src/ipc/resp.rs#:~:text=struct%20AuthGranted" xlink:title="&lt;TABLE&gt;">
<polygon fill="lightblue" stroke="none" points="440,-506.5 440,-543.5 724,-543.5 724,-506.5 440,-506.5"/>
<polygon fill="none" stroke="black" points="440,-506.5 440,-543.5 724,-543.5 724,-506.5 440,-506.5"/>
<text text-anchor="start" x="537.5" y="-522.3" font-family="Arial" font-weight="bold" font-size="14.00">AuthGranted</text>
<polygon fill="white" stroke="none" points="440,-454.5 440,-506.5 724,-506.5 724,-454.5 440,-454.5"/>
<polygon fill="none" stroke="black" points="440,-454.5 440,-506.5 724,-506.5 724,-454.5 440,-454.5"/>
<text text-anchor="start" x="451" y="-484.3" font-family="Arial" font-size="14.00">+ app_keypair: Keypair</text>
<text text-anchor="start" x="451" y="-469.3" font-family="Arial" font-size="14.00">+ bootstrap_config: Option&lt;NodeConfig&gt;</text>
<polygon fill="none" stroke="black" points="439,-454 439,-545 725,-545 725,-454 439,-454"/>
</a>
</g>
</g>
<!-- ndAuthGranted&#45;&gt;ndIpcResp -->
<g id="edge2" class="edge"><title>ndAuthGranted&#45;&gt;ndIpcResp</title>
<path fill="none" stroke="black" d="M616.767,-449.808C647.722,-406.454 693.08,-342.928 726.043,-296.762"/>
<polygon fill="black" stroke="black" points="726.115,-296.661 726.346,-289.454 733.088,-286.895 732.857,-294.103 726.115,-296.661"/>
</g>
<!-- ndSafeAuthenticator -->
<g id="node8" class="node"><title>ndSafeAuthenticator</title>
<g id="a_node8_3"><a xlink:href="https://github.com/maidsafe/safe_network/blob/master/src/authenticator/mod.rs#:~:text=struct%20SafeAuthenticator" xlink:title="&lt;TABLE&gt;">
<polygon fill="lightblue" stroke="none" points="215,-252 215,-289 579,-289 579,-252 215,-252"/>
<polygon fill="none" stroke="black" points="215,-252 215,-289 579,-289 579,-252 215,-252"/>
<text text-anchor="start" x="334.5" y="-267.8" font-family="Arial" font-weight="bold" font-size="14.00">SafeAuthenticator</text>
<polygon fill="white" stroke="none" points="215,-185 215,-252 579,-252 579,-185 215,-185"/>
<polygon fill="none" stroke="black" points="215,-185 215,-252 579,-252 579,-185 215,-185"/>
<text text-anchor="start" x="226" y="-229.8" font-family="Arial" font-size="14.00">&#45; safe: Option&lt;(Client, RegisterAddress)&gt;</text>
<text text-anchor="start" x="226" y="-214.8" font-family="Arial" font-size="14.00">&#45; config_path: Option&lt;PathBuf&gt;</text>
<text text-anchor="start" x="226" y="-199.8" font-family="Arial" font-size="14.00">&#45; bootstrap_contacts: Option&lt;HashSet&lt;SocketAddr&gt;&gt;</text>
<polygon fill="none" stroke="black" points="214,-184 214,-290 580,-290 580,-184 214,-184"/>
</a>
</g>
</g>
<!-- ndAuthGranted&#45;&gt;ndSafeAuthenticator -->
<g id="edge3" class="edge"><title>ndAuthGranted&#45;&gt;ndSafeAuthenticator</title>
<path fill="none" stroke="black" d="M547.42,-449.808C517.884,-408.218 475.164,-348.064 442.792,-302.48"/>
<polygon fill="black" stroke="black" points="436.874,-294.146 446.333,-299.694 439.769,-298.223 442.664,-302.3 442.664,-302.3 442.664,-302.3 439.769,-298.223 438.995,-304.905 436.874,-294.146 436.874,-294.146"/>
</g>
<!-- ndIpcReq -->
<g id="node3" class="node"><title>ndIpcReq</title>
<g id="a_node3_4"><a xlink:href="https://github.com/maidsafe/safe_network/blob/master/src/ipc/req.rs#:~:text=enum%20IpcReq" xlink:title="&lt;TABLE&gt;">
<polygon fill="yellow" stroke="none" points="9,-244 9,-281 179,-281 179,-244 9,-244"/>
<polygon fill="none" stroke="black" points="9,-244 9,-281 179,-281 179,-244 9,-244"/>
<text text-anchor="start" x="69.5" y="-259.8" font-family="Arial" font-weight="bold" font-size="14.00">IpcReq</text>
<polygon fill="white" stroke="none" points="9,-192 9,-244 179,-244 179,-192 9,-192"/>
<polygon fill="none" stroke="black" points="9,-192 9,-244 179,-244 179,-192 9,-192"/>
<text text-anchor="start" x="20" y="-221.8" font-family="Arial" font-size="14.00">Auth(AuthReq)</text>
<text text-anchor="start" x="20" y="-206.8" font-family="Arial" font-size="14.00">Unregistered(Vec&lt;u8&gt;)</text>
<polygon fill="none" stroke="black" points="8,-191.5 8,-282.5 180,-282.5 180,-191.5 8,-191.5"/>
</a>
</g>
</g>
<!-- ndIpcReq&#45;&gt;ndIpcMsg -->
<g id="edge4" class="edge"><title>ndIpcReq&#45;&gt;ndIpcMsg</title>
<path fill="none" stroke="black" d="M141.34,-187.407C157.691,-173.24 176.969,-159.131 197,-150 359.422,-75.9578 571.614,-60.3843 686.13,-57.7803"/>
<polygon fill="black" stroke="black" points="686.254,-57.778 692.175,-53.6623 698.252,-57.5451 692.331,-61.6608 686.254,-57.778"/>
</g>
<!-- ndAuthReq -->
<g id="node4" class="node"><title>ndAuthReq</title>
<g id="a_node4_5"><a xlink:href="https://github.com/maidsafe/safe_network/blob/master/src/ipc/req.rs#:~:text=struct%20AuthReq" xlink:title="&lt;TABLE&gt;">
<polygon fill="lightblue" stroke="none" points="21,-521.5 21,-558.5 202,-558.5 202,-521.5 21,-521.5"/>
<polygon fill="none" stroke="black" points="21,-521.5 21,-558.5 202,-558.5 202,-521.5 21,-521.5"/>
<text text-anchor="start" x="81.5" y="-537.3" font-family="Arial" font-weight="bold" font-size="14.00">AuthReq</text>
<polygon fill="white" stroke="none" points="21,-439.5 21,-521.5 202,-521.5 202,-439.5 21,-439.5"/>
<polygon fill="none" stroke="black" points="21,-439.5 21,-521.5 202,-521.5 202,-439.5 21,-439.5"/>
<text text-anchor="start" x="32" y="-499.3" font-family="Arial" font-size="14.00">+ req_id: SafeAuthReqId</text>
<text text-anchor="start" x="32" y="-484.3" font-family="Arial" font-size="14.00">+ app_id: String</text>
<text text-anchor="start" x="32" y="-469.3" font-family="Arial" font-size="14.00">+ app_name: String</text>
<text text-anchor="start" x="32" y="-454.3" font-family="Arial" font-size="14.00">+ app_vendor: String</text>
<polygon fill="none" stroke="black" points="19.5,-439 19.5,-560 202.5,-560 202.5,-439 19.5,-439"/>
</a>
</g>
</g>
<!-- ndAuthReq&#45;&gt;ndIpcReq -->
<g id="edge5" class="edge"><title>ndAuthReq&#45;&gt;ndIpcReq</title>
<path fill="none" stroke="black" d="M106.841,-434.775C104.142,-393.413 100.645,-339.818 97.9814,-299.009"/>
<polygon fill="black" stroke="black" points="97.965,-298.756 93.5827,-293.03 97.1835,-286.782 101.566,-292.509 97.965,-298.756"/>
</g>
<!-- ndAuthReq&#45;&gt;ndSafeAuthenticator -->
<g id="edge6" class="edge"><title>ndAuthReq&#45;&gt;ndSafeAuthenticator</title>
<path fill="none" stroke="black" stroke-dasharray="5,2" d="M180.963,-434.775C225.517,-394.194 283,-341.836 327.469,-301.332"/>
<polygon fill="black" stroke="black" points="335.051,-294.426 330.688,-304.486 331.354,-297.793 327.658,-301.159 327.658,-301.159 327.658,-301.159 331.354,-297.793 324.628,-297.833 335.051,-294.426 335.051,-294.426"/>
</g>
<!-- ndIpcError -->
<g id="node5" class="node"><title>ndIpcError</title>
<g id="a_node5_6"><a xlink:href="https://github.com/maidsafe/safe_network/blob/master/src/ipc/errors.rs#:~:text=enum%20IpcError" xlink:title="&lt;TABLE&gt;">
<polygon fill="yellow" stroke="none" points="958,-267 958,-304 1113,-304 1113,-267 958,-267"/>
<polygon fill="none" stroke="black" points="958,-267 958,-304 1113,-304 1113,-267 958,-267"/>
<text text-anchor="start" x="1006.5" y="-282.8" font-family="Arial" font-weight="bold" font-size="14.00">IpcError</text>
<polygon fill="white" stroke="none" points="958,-170 958,-267 1113,-267 1113,-170 958,-170"/>
<polygon fill="none" stroke="black" points="958,-170 958,-267 1113,-267 1113,-170 958,-170"/>
<text text-anchor="start" x="969" y="-244.8" font-family="Arial" font-size="14.00">AuthDenied</text>
<text text-anchor="start" x="969" y="-229.8" font-family="Arial" font-size="14.00">InvalidMsg</text>
<text text-anchor="start" x="969" y="-214.8" font-family="Arial" font-size="14.00">EncodeDecodeError</text>
<text text-anchor="start" x="969" y="-199.8" font-family="Arial" font-size="14.00">AlreadyAuthorised</text>
<text text-anchor="start" x="969" y="-184.8" font-family="Arial" font-size="14.00">UnknownApp</text>
<polygon fill="none" stroke="black" points="956.5,-169 956.5,-305 1113.5,-305 1113.5,-169 956.5,-169"/>
</a>
</g>
</g>
<!-- ndIpcError&#45;&gt;ndIpcMsg -->
<g id="edge7" class="edge"><title>ndIpcError&#45;&gt;ndIpcMsg</title>
<path fill="none" stroke="black" d="M958.769,-164.878C952.23,-159.655 945.593,-154.628 939,-150 910.864,-130.249 878.011,-111.636 848.662,-96.3872"/>
<polygon fill="black" stroke="black" points="848.28,-96.1909 841.115,-97.0105 837.603,-90.7125 844.768,-89.8928 848.28,-96.1909"/>
</g>
<!-- ndError -->
<g id="node7" class="node"><title>ndError</title>
<g id="a_node7_7"><a xlink:href="https://github.com/maidsafe/safe_network/blob/master/src/url/errors.rs#:~:text=enum%20Error" xlink:title="&lt;TABLE&gt;">
<polygon fill="yellow" stroke="none" points="1042,-72 1042,-109 1262,-109 1262,-72 1042,-72"/>
<polygon fill="none" stroke="black" points="1042,-72 1042,-109 1262,-109 1262,-72 1042,-72"/>
<text text-anchor="start" x="1133.5" y="-87.8" font-family="Arial" font-weight="bold" font-size="14.00">Error</text>
<polygon fill="white" stroke="none" points="1042,-5 1042,-72 1262,-72 1262,-5 1042,-5"/>
<polygon fill="none" stroke="black" points="1042,-5 1042,-72 1262,-72 1262,-5 1042,-5"/>
<text text-anchor="start" x="1053" y="-49.8" font-family="Arial" font-size="14.00">InvalidXorUrl(String)</text>
<text text-anchor="start" x="1053" y="-34.8" font-family="Arial" font-size="14.00">InvalidInput(String)</text>
<text text-anchor="start" x="1053" y="-19.8" font-family="Arial" font-size="14.00">UnsupportedMediaType(String)</text>
<polygon fill="none" stroke="black" points="1041,-4 1041,-110 1263,-110 1263,-4 1041,-4"/>
</a>
</g>
</g>
<!-- ndIpcError&#45;&gt;ndError -->
<g id="edge8" class="edge"><title>ndIpcError&#45;&gt;ndError</title>
<path fill="none" stroke="black" d="M1081.75,-164.882C1090.48,-151.587 1099.59,-137.736 1108.23,-124.584"/>
<polygon fill="black" stroke="black" points="1108.46,-124.238 1108.41,-117.027 1115.05,-114.211 1115.1,-121.422 1108.46,-124.238"/>
</g>
<!-- ndSafeAppClient -->
<g id="node9" class="node"><title>ndSafeAppClient</title>
<g id="a_node9_8"><a xlink:href="https://github.com/maidsafe/safe_network/blob/master/src/app/safe_client.rs#:~:text=struct%20SafeAppClient" xlink:title="&lt;TABLE&gt;">
<polygon fill="lightblue" stroke="none" points="1426,-252 1426,-289 1647,-289 1647,-252 1426,-252"/>
<polygon fill="none" stroke="black" points="1426,-252 1426,-289 1647,-289 1647,-252 1426,-252"/>
<text text-anchor="start" x="1487" y="-267.8" font-family="Arial" font-weight="bold" font-size="14.00">SafeAppClient</text>
<polygon fill="white" stroke="none" points="1426,-185 1426,-252 1647,-252 1647,-185 1426,-185"/>
<polygon fill="none" stroke="black" points="1426,-185 1426,-252 1647,-252 1647,-185 1426,-185"/>
<text text-anchor="start" x="1437" y="-229.8" font-family="Arial" font-size="14.00">&#45; safe_client: Option&lt;Client&gt;</text>
<text text-anchor="start" x="1437" y="-214.8" font-family="Arial" font-size="14.00">&#45; config_path: Option&lt;PathBuf&gt;</text>
<text text-anchor="start" x="1437" y="-199.8" font-family="Arial" font-size="14.00">&#45; timeout: Duration</text>
<polygon fill="none" stroke="black" points="1424.5,-184 1424.5,-290 1647.5,-290 1647.5,-184 1424.5,-184"/>
</a>
</g>
</g>
<!-- ndSafe -->
<g id="node13" class="node"><title>ndSafe</title>
<g id="a_node13_9"><a xlink:href="https://github.com/maidsafe/safe_network/blob/master/src/app/mod.rs#:~:text=struct%20Safe" xlink:title="&lt;TABLE&gt;">
<polygon fill="lightblue" stroke="none" points="1584,-64 1584,-101 1784,-101 1784,-64 1584,-64"/>
<polygon fill="none" stroke="black" points="1584,-64 1584,-101 1784,-101 1784,-64 1584,-64"/>
<text text-anchor="start" x="1668.5" y="-79.8" font-family="Arial" font-weight="bold" font-size="14.00">Safe</text>
<polygon fill="white" stroke="none" points="1584,-12 1584,-64 1784,-64 1784,-12 1584,-12"/>
<polygon fill="none" stroke="black" points="1584,-12 1584,-64 1784,-64 1784,-12 1584,-12"/>
<text text-anchor="start" x="1595" y="-41.8" font-family="Arial" font-size="14.00">&#45; safe_client: SafeAppClient</text>
<text text-anchor="start" x="1595" y="-26.8" font-family="Arial" font-size="14.00">+ xorurl_base: XorUrlBase</text>
<polygon fill="none" stroke="black" points="1583,-11.5 1583,-102.5 1785,-102.5 1785,-11.5 1583,-11.5"/>
</a>
</g>
</g>
<!-- ndSafeAppClient&#45;&gt;ndSafe -->
<g id="edge9" class="edge"><title>ndSafeAppClient&#45;&gt;ndSafe</title>
<path fill="none" stroke="black" d="M1582.83,-179.68C1599.64,-159.456 1618.63,-136.619 1635.58,-116.236"/>
<polygon fill="black" stroke="black" points="1635.79,-115.984 1636.55,-108.813 1643.46,-106.757 1642.7,-113.928 1635.79,-115.984"/>
</g>
<!-- ndGetAttr -->
<g id="node10" class="node"><title>ndGetAttr</title>
<g id="a_node10_10"><a xlink:href="https://github.com/maidsafe/safe_network/blob/master/src/app/files/files_map.rs#:~:text=trait%20GetAttr" xlink:title="&lt;TABLE&gt;">
<polygon fill="lightgreen" stroke="none" points="1992,-750.5 1992,-787.5 2063,-787.5 2063,-750.5 1992,-750.5"/>
<polygon fill="none" stroke="black" points="1992,-750.5 1992,-787.5 2063,-787.5 2063,-750.5 1992,-750.5"/>
<text text-anchor="start" x="2003" y="-766.3" font-family="Arial" font-weight="bold" font-size="14.00">GetAttr</text>
<polygon fill="none" stroke="black" points="1990.5,-750 1990.5,-789 2063.5,-789 2063.5,-750 1990.5,-750"/>
</a>
</g>
</g>
<!-- ndFileMeta -->
<g id="node11" class="node"><title>ndFileMeta</title>
<g id="a_node11_11"><a xlink:href="https://github.com/maidsafe/safe_network/blob/master/src/app/files/metadata.rs#:~:text=struct%20FileMeta" xlink:title="&lt;TABLE&gt;">
<polygon fill="lightblue" stroke="none" points="2099,-821.5 2099,-858.5 2341,-858.5 2341,-821.5 2099,-821.5"/>
<polygon fill="none" stroke="black" points="2099,-821.5 2099,-858.5 2341,-858.5 2341,-821.5 2099,-821.5"/>
<text text-anchor="start" x="2190.5" y="-837.3" font-family="Arial" font-weight="bold" font-size="14.00">FileMeta</text>
<polygon fill="white" stroke="none" points="2099,-679.5 2099,-821.5 2341,-821.5 2341,-679.5 2099,-679.5"/>
<polygon fill="none" stroke="black" points="2099,-679.5 2099,-821.5 2341,-821.5 2341,-679.5 2099,-679.5"/>
<text text-anchor="start" x="2110" y="-799.3" font-family="Arial" font-size="14.00">&#45; created: String</text>
<text text-anchor="start" x="2110" y="-784.3" font-family="Arial" font-size="14.00">&#45; modified: String</text>
<text text-anchor="start" x="2110" y="-769.3" font-family="Arial" font-size="14.00">&#45; file_size: String</text>
<text text-anchor="start" x="2110" y="-754.3" font-family="Arial" font-size="14.00">&#45; file_type: String</text>
<text text-anchor="start" x="2110" y="-739.3" font-family="Arial" font-size="14.00">&#45; readonly: Option&lt;String&gt;</text>
<text text-anchor="start" x="2110" y="-724.3" font-family="Arial" font-size="14.00">&#45; mode_bits: Option&lt;String&gt;</text>
<text text-anchor="start" x="2110" y="-709.3" font-family="Arial" font-size="14.00">&#45; original_created: Option&lt;String&gt;</text>
<text text-anchor="start" x="2110" y="-694.3" font-family="Arial" font-size="14.00">&#45; original_modified: Option&lt;String&gt;</text>
<polygon fill="none" stroke="black" points="2098,-679 2098,-860 2342,-860 2342,-679 2098,-679"/>
</a>
</g>
</g>
<!-- ndRealPath -->
<g id="node12" class="node"><title>ndRealPath</title>
<g id="a_node12_12"><a xlink:href="https://github.com/maidsafe/safe_network/blob/master/src/app/files/realpath.rs#:~:text=trait%20RealPath" xlink:title="&lt;TABLE&gt;">
<polygon fill="lightgreen" stroke="none" points="2377,-750.5 2377,-787.5 2461,-787.5 2461,-750.5 2377,-750.5"/>
<polygon fill="none" stroke="black" points="2377,-750.5 2377,-787.5 2461,-787.5 2461,-750.5 2377,-750.5"/>
<text text-anchor="start" x="2388" y="-766.3" font-family="Arial" font-weight="bold" font-size="14.00">RealPath</text>
<polygon fill="none" stroke="black" points="2376,-750 2376,-789 2462,-789 2462,-750 2376,-750"/>
</a>
</g>
</g>
<!-- ndNrsMap -->
<g id="node14" class="node"><title>ndNrsMap</title>
<g id="a_node14_13"><a xlink:href="https://github.com/maidsafe/safe_network/blob/master/src/app/nrs/nrs_map.rs#:~:text=struct%20NrsMap" xlink:title="&lt;TABLE&gt;">
<polygon fill="lightblue" stroke="none" points="1149,-237 1149,-274 1389,-274 1389,-237 1149,-237"/>
<polygon fill="none" stroke="black" points="1149,-237 1149,-274 1389,-274 1389,-237 1149,-237"/>
<text text-anchor="start" x="1241.5" y="-252.8" font-family="Arial" font-weight="bold" font-size="14.00">NrsMap</text>
<polygon fill="white" stroke="none" points="1149,-200 1149,-237 1389,-237 1389,-200 1149,-200"/>
<polygon fill="none" stroke="black" points="1149,-200 1149,-237 1389,-237 1389,-200 1149,-200"/>
<text text-anchor="start" x="1160" y="-214.8" font-family="Arial" font-size="14.00">+ map: BTreeMap&lt;SubName, Url&gt;</text>
<polygon fill="none" stroke="black" points="1148,-199 1148,-275 1390,-275 1390,-199 1148,-199"/>
</a>
</g>
</g>
<!-- ndNrsMap&#45;&gt;ndError -->
<g id="edge10" class="edge"><title>ndNrsMap&#45;&gt;ndError</title>
<path fill="none" stroke="black" d="M1241.86,-194.716C1228.16,-173.871 1211.2,-148.068 1195.72,-124.514"/>
<polygon fill="black" stroke="black" points="1195.55,-124.256 1188.91,-121.44 1188.96,-114.229 1195.6,-117.045 1195.55,-124.256"/>
</g>
<!-- ndNrsMap&#45;&gt;ndSafe -->
<g id="edge11" class="edge"><title>ndNrsMap&#45;&gt;ndSafe</title>
<path fill="none" stroke="black" d="M1328.05,-194.903C1351.87,-179.489 1380.04,-162.658 1407,-150 1457.2,-126.427 1515.11,-106.194 1564.96,-90.7535"/>
<polygon fill="black" stroke="black" points="1574.82,-87.7298 1566.58,-94.9646 1570.04,-89.1961 1565.26,-90.6624 1565.26,-90.6624 1565.26,-90.6624 1570.04,-89.1961 1563.94,-86.3602 1574.82,-87.7298 1574.82,-87.7298"/>
</g>
<!-- ndSafeData -->
<g id="node15" class="node"><title>ndSafeData</title>
<g id="a_node15_14"><a xlink:href="https://github.com/maidsafe/safe_network/blob/master/src/app/resolver/mod.rs#:~:text=enum%20SafeData" xlink:title="&lt;TABLE&gt;">
<polygon fill="yellow" stroke="none" points="1721,-282 1721,-319 1853,-319 1853,-282 1721,-282"/>
<polygon fill="none" stroke="black" points="1721,-282 1721,-319 1853,-319 1853,-282 1721,-282"/>
<text text-anchor="start" x="1755.5" y="-297.8" font-family="Arial" font-weight="bold" font-size="14.00">SafeData</text>
<polygon fill="white" stroke="none" points="1721,-155 1721,-282 1853,-282 1853,-155 1721,-155"/>
<polygon fill="none" stroke="black" points="1721,-155 1721,-282 1853,-282 1853,-155 1721,-155"/>
<text text-anchor="start" x="1732" y="-259.8" font-family="Arial" font-size="14.00">SafeKey</text>
<text text-anchor="start" x="1732" y="-244.8" font-family="Arial" font-size="14.00">FilesContainer</text>
<text text-anchor="start" x="1732" y="-229.8" font-family="Arial" font-size="14.00">PublicBlob</text>
<text text-anchor="start" x="1732" y="-214.8" font-family="Arial" font-size="14.00">NrsMapContainer</text>
<text text-anchor="start" x="1732" y="-199.8" font-family="Arial" font-size="14.00">Multimap</text>
<text text-anchor="start" x="1732" y="-184.8" font-family="Arial" font-size="14.00">PublicRegister</text>
<text text-anchor="start" x="1732" y="-169.8" font-family="Arial" font-size="14.00">PrivateRegister</text>
<polygon fill="none" stroke="black" points="1720,-154 1720,-320 1854,-320 1854,-154 1720,-154"/>
</a>
</g>
</g>
<!-- ndSafeData&#45;&gt;ndSafe -->
<g id="edge12" class="edge"><title>ndSafeData&#45;&gt;ndSafe</title>
<path fill="none" stroke="black" d="M1737.16,-149.868C1730.5,-138.359 1723.8,-126.787 1717.52,-115.921"/>
<polygon fill="black" stroke="black" points="1712.34,-106.977 1721.24,-113.378 1714.84,-111.305 1717.35,-115.632 1717.35,-115.632 1717.35,-115.632 1714.84,-111.305 1713.45,-117.886 1712.34,-106.977 1712.34,-106.977"/>
</g>
<!-- ndAuthdStatus -->
<g id="node16" class="node"><title>ndAuthdStatus</title>
<g id="a_node16_15"><a xlink:href="https://github.com/maidsafe/safe_network/blob/master/src/authd_client/authd_client_api.rs#:~:text=struct%20AuthdStatus" xlink:title="&lt;TABLE&gt;">
<polygon fill="lightblue" stroke="none" points="2497,-791.5 2497,-828.5 2664,-828.5 2664,-791.5 2497,-791.5"/>
<polygon fill="none" stroke="black" points="2497,-791.5 2497,-828.5 2664,-828.5 2664,-791.5 2497,-791.5"/>
<text text-anchor="start" x="2537.5" y="-807.3" font-family="Arial" font-weight="bold" font-size="14.00">AuthdStatus</text>
<polygon fill="white" stroke="none" points="2497,-709.5 2497,-791.5 2664,-791.5 2664,-709.5 2497,-709.5"/>
<polygon fill="none" stroke="black" points="2497,-709.5 2497,-791.5 2664,-791.5 2664,-709.5 2497,-709.5"/>
<text text-anchor="start" x="2508" y="-769.3" font-family="Arial" font-size="14.00">+ safe_unlocked: bool</text>
<text text-anchor="start" x="2508" y="-754.3" font-family="Arial" font-size="14.00">+ num_auth_reqs: u32</text>
<text text-anchor="start" x="2508" y="-739.3" font-family="Arial" font-size="14.00">+ num_notif_subs: u32</text>
<text text-anchor="start" x="2508" y="-724.3" font-family="Arial" font-size="14.00">+ authd_version: String</text>
<polygon fill="none" stroke="black" points="2495.5,-709 2495.5,-830 2664.5,-830 2664.5,-709 2495.5,-709"/>
</a>
</g>
</g>
<!-- ndSafeAuthdClient -->
<g id="node17" class="node"><title>ndSafeAuthdClient</title>
<g id="a_node17_16"><a xlink:href="https://github.com/maidsafe/safe_network/blob/master/src/authd_client/authd_client_api.rs#:~:text=struct%20SafeAuthdClient" xlink:title="&lt;TABLE&gt;">
<polygon fill="lightblue" stroke="none" points="2306,-506.5 2306,-543.5 2855,-543.5 2855,-506.5 2306,-506.5"/>
<polygon fill="none" stroke="black" points="2306,-506.5 2306,-543.5 2855,-543.5 2855,-506.5 2306,-506.5"/>
<text text-anchor="start" x="2524.5" y="-522.3" font-family="Arial" font-weight="bold" font-size="14.00">SafeAuthdClient</text>
<polygon fill="white" stroke="none" points="2306,-454.5 2306,-506.5 2855,-506.5 2855,-454.5 2306,-454.5"/>
<polygon fill="none" stroke="black" points="2306,-454.5 2306,-506.5 2855,-506.5 2855,-454.5 2306,-454.5"/>
<text text-anchor="start" x="2317" y="-484.3" font-family="Arial" font-size="14.00">+ authd_endpoint: String</text>
<text text-anchor="start" x="2317" y="-469.3" font-family="Arial" font-size="14.00">&#45; subscribed_endpoint: Option&lt;(String, task::JoinHandle&lt;()&gt;, task::JoinHandle&lt;()&gt;)&gt;</text>
<polygon fill="none" stroke="black" points="2304.5,-454 2304.5,-545 2855.5,-545 2855.5,-454 2304.5,-454"/>
</a>
</g>
</g>
<!-- ndAuthdStatus&#45;&gt;ndSafeAuthdClient -->
<g id="edge13" class="edge"><title>ndAuthdStatus&#45;&gt;ndSafeAuthdClient</title>
<path fill="none" stroke="black" d="M2580,-704.988C2580,-660.852 2580,-602.453 2580,-559.367"/>
<polygon fill="black" stroke="black" points="2580,-549.315 2584.5,-559.314 2580,-554.315 2580,-559.315 2580,-559.315 2580,-559.315 2580,-554.315 2575.5,-559.315 2580,-549.315 2580,-549.315"/>
</g>
<!-- ndVersionHashError -->
<g id="node18" class="node"><title>ndVersionHashError</title>
<g id="a_node18_17"><a xlink:href="https://github.com/maidsafe/safe_network/blob/master/src/url/version_hash.rs#:~:text=enum%20VersionHashError" xlink:title="&lt;TABLE&gt;">
<polygon fill="yellow" stroke="none" points="2699,-784.5 2699,-821.5 2923,-821.5 2923,-784.5 2699,-784.5"/>
<polygon fill="none" stroke="black" points="2699,-784.5 2699,-821.5 2923,-821.5 2923,-784.5 2699,-784.5"/>
<text text-anchor="start" x="2748" y="-800.3" font-family="Arial" font-weight="bold" font-size="14.00">VersionHashError</text>
<polygon fill="white" stroke="none" points="2699,-717.5 2699,-784.5 2923,-784.5 2923,-717.5 2699,-717.5"/>
<polygon fill="none" stroke="black" points="2699,-717.5 2699,-784.5 2923,-784.5 2923,-717.5 2699,-717.5"/>
<text text-anchor="start" x="2710" y="-762.3" font-family="Arial" font-size="14.00">DecodingError(multibase::Error)</text>
<text text-anchor="start" x="2710" y="-747.3" font-family="Arial" font-size="14.00">InvalidHashLength</text>
<text text-anchor="start" x="2710" y="-732.3" font-family="Arial" font-size="14.00">InvalidEncoding</text>
<polygon fill="none" stroke="black" points="2698,-716.5 2698,-822.5 2924,-822.5 2924,-716.5 2698,-716.5"/>
</a>
</g>
</g>
<!-- ndVersionHash -->
<g id="node19" class="node"><title>ndVersionHash</title>
<g id="a_node19_18"><a xlink:href="https://github.com/maidsafe/safe_network/blob/master/src/url/version_hash.rs#:~:text=struct%20VersionHash" xlink:title="&lt;TABLE&gt;">
<polygon fill="lightblue" stroke="none" points="1233,-769.5 1233,-806.5 1405,-806.5 1405,-769.5 1233,-769.5"/>
<polygon fill="none" stroke="black" points="1233,-769.5 1233,-806.5 1405,-806.5 1405,-769.5 1233,-769.5"/>
<text text-anchor="start" x="1274.5" y="-785.3" font-family="Arial" font-weight="bold" font-size="14.00">VersionHash</text>
<polygon fill="white" stroke="none" points="1233,-732.5 1233,-769.5 1405,-769.5 1405,-732.5 1233,-732.5"/>
<polygon fill="none" stroke="black" points="1233,-732.5 1233,-769.5 1405,-769.5 1405,-732.5 1233,-732.5"/>
<text text-anchor="start" x="1244" y="-747.3" font-family="Arial" font-size="14.00">&#45; entry_hash: EntryHash</text>
<polygon fill="none" stroke="black" points="1232,-731.5 1232,-807.5 1406,-807.5 1406,-731.5 1232,-731.5"/>
</a>
</g>
</g>
<!-- ndUrl -->
<g id="node24" class="node"><title>ndUrl</title>
<g id="a_node24_19"><a xlink:href="https://github.com/maidsafe/safe_network/blob/master/src/url/mod.rs#:~:text=struct%20Url" xlink:title="&lt;TABLE&gt;">
<polygon fill="lightblue" stroke="none" points="1526,-596.5 1526,-633.5 1804,-633.5 1804,-596.5 1526,-596.5"/>
<polygon fill="none" stroke="black" points="1526,-596.5 1526,-633.5 1804,-633.5 1804,-596.5 1526,-596.5"/>
<text text-anchor="start" x="1655" y="-612.3" font-family="Arial" font-weight="bold" font-size="14.00">Url</text>
<polygon fill="white" stroke="none" points="1526,-364.5 1526,-596.5 1804,-596.5 1804,-364.5 1526,-364.5"/>
<polygon fill="none" stroke="black" points="1526,-364.5 1526,-596.5 1804,-596.5 1804,-364.5 1526,-364.5"/>
<text text-anchor="start" x="1537" y="-574.3" font-family="Arial" font-size="14.00">&#45; encoding_version: u64</text>
<text text-anchor="start" x="1537" y="-559.3" font-family="Arial" font-size="14.00">&#45; public_name: String</text>
<text text-anchor="start" x="1537" y="-544.3" font-family="Arial" font-size="14.00">&#45; top_name: String</text>
<text text-anchor="start" x="1537" y="-529.3" font-family="Arial" font-size="14.00">&#45; sub_names: String</text>
<text text-anchor="start" x="1537" y="-514.3" font-family="Arial" font-size="14.00">&#45; sub_names_vec: Vec&lt;String&gt;</text>
<text text-anchor="start" x="1537" y="-499.3" font-family="Arial" font-size="14.00">&#45; type_tag: u64</text>
<text text-anchor="start" x="1537" y="-484.3" font-family="Arial" font-size="14.00">&#45; address: DataAddress</text>
<text text-anchor="start" x="1537" y="-469.3" font-family="Arial" font-size="14.00">&#45; content_type: ContentType</text>
<text text-anchor="start" x="1537" y="-454.3" font-family="Arial" font-size="14.00">&#45; content_type_u16: u16</text>
<text text-anchor="start" x="1537" y="-439.3" font-family="Arial" font-size="14.00">&#45; path: String</text>
<text text-anchor="start" x="1537" y="-424.3" font-family="Arial" font-size="14.00">&#45; query_string: String</text>
<text text-anchor="start" x="1537" y="-409.3" font-family="Arial" font-size="14.00">&#45; fragment: String</text>
<text text-anchor="start" x="1537" y="-394.3" font-family="Arial" font-size="14.00">&#45; content_version: Option&lt;VersionHash&gt;</text>
<text text-anchor="start" x="1537" y="-379.3" font-family="Arial" font-size="14.00">&#45; url_type: UrlType</text>
<polygon fill="none" stroke="black" points="1525,-364 1525,-635 1805,-635 1805,-364 1525,-364"/>
</a>
</g>
</g>
<!-- ndVersionHash&#45;&gt;ndUrl -->
<g id="edge14" class="edge"><title>ndVersionHash&#45;&gt;ndUrl</title>
<path fill="none" stroke="black" d="M1362.62,-727.384C1380.89,-710.67 1402.59,-691.458 1423,-675 1449.6,-653.553 1478.57,-631.571 1506.91,-610.754"/>
<polygon fill="black" stroke="black" points="1507.21,-610.529 1509.69,-603.758 1516.9,-603.443 1514.42,-610.214 1507.21,-610.529"/>
</g>
<!-- ndXorUrlBase -->
<g id="node20" class="node"><title>ndXorUrlBase</title>
<g id="a_node20_20"><a xlink:href="https://github.com/maidsafe/safe_network/blob/master/src/url/mod.rs#:~:text=enum%20XorUrlBase" xlink:title="&lt;TABLE&gt;">
<polygon fill="yellow" stroke="none" points="1854,-784.5 1854,-821.5 1956,-821.5 1956,-784.5 1854,-784.5"/>
<polygon fill="none" stroke="black" points="1854,-784.5 1854,-821.5 1956,-821.5 1956,-784.5 1854,-784.5"/>
<text text-anchor="start" x="1865" y="-800.3" font-family="Arial" font-weight="bold" font-size="14.00">XorUrlBase</text>
<polygon fill="white" stroke="none" points="1854,-717.5 1854,-784.5 1956,-784.5 1956,-717.5 1854,-717.5"/>
<polygon fill="none" stroke="black" points="1854,-717.5 1854,-784.5 1956,-784.5 1956,-717.5 1854,-717.5"/>
<text text-anchor="start" x="1865" y="-762.3" font-family="Arial" font-size="14.00">Base32z</text>
<text text-anchor="start" x="1865" y="-747.3" font-family="Arial" font-size="14.00">Base32</text>
<text text-anchor="start" x="1865" y="-732.3" font-family="Arial" font-size="14.00">Base64</text>
<polygon fill="none" stroke="black" points="1853,-716.5 1853,-822.5 1957,-822.5 1957,-716.5 1853,-716.5"/>
</a>
</g>
</g>
<!-- ndXorUrlBase&#45;&gt;ndSafe -->
<g id="edge15" class="edge"><title>ndXorUrlBase&#45;&gt;ndSafe</title>
<path fill="none" stroke="black" d="M1919.23,-712.363C1945.21,-596.341 1987.56,-326.265 1871,-150 1854.86,-125.597 1830.26,-107.431 1804.16,-93.9968"/>
<polygon fill="black" stroke="black" points="1804.09,-93.9632 1796.94,-94.9327 1793.3,-88.7096 1800.45,-87.7401 1804.09,-93.9632"/>
</g>
<!-- ndXorUrlBase&#45;&gt;ndUrl -->
<g id="edge16" class="edge"><title>ndXorUrlBase&#45;&gt;ndUrl</title>
<path fill="none" stroke="black" stroke-dasharray="5,2" d="M1864.7,-712.2C1855.25,-699.711 1845.02,-686.712 1835,-675 1826.97,-665.615 1818.57,-656.102 1809.97,-646.611"/>
<polygon fill="black" stroke="black" points="1803.04,-639.007 1813.11,-643.366 1806.41,-642.702 1809.78,-646.398 1809.78,-646.398 1809.78,-646.398 1806.41,-642.702 1806.45,-649.429 1803.04,-639.007 1803.04,-639.007"/>
</g>
<!-- ndContentType -->
<g id="node21" class="node"><title>ndContentType</title>
<g id="a_node21_21"><a xlink:href="https://github.com/maidsafe/safe_network/blob/master/src/url/mod.rs#:~:text=enum%20ContentType" xlink:title="&lt;TABLE&gt;">
<polygon fill="yellow" stroke="none" points="1441,-806.5 1441,-843.5 1579,-843.5 1579,-806.5 1441,-806.5"/>
<polygon fill="none" stroke="black" points="1441,-806.5 1441,-843.5 1579,-843.5 1579,-806.5 1441,-806.5"/>
<text text-anchor="start" x="1465" y="-822.3" font-family="Arial" font-weight="bold" font-size="14.00">ContentType</text>
<polygon fill="white" stroke="none" points="1441,-694.5 1441,-806.5 1579,-806.5 1579,-694.5 1441,-694.5"/>
<polygon fill="none" stroke="black" points="1441,-694.5 1441,-806.5 1579,-806.5 1579,-694.5 1441,-694.5"/>
<text text-anchor="start" x="1452" y="-784.3" font-family="Arial" font-size="14.00">Raw</text>
<text text-anchor="start" x="1452" y="-769.3" font-family="Arial" font-size="14.00">Wallet</text>
<text text-anchor="start" x="1452" y="-754.3" font-family="Arial" font-size="14.00">FilesContainer</text>
<text text-anchor="start" x="1452" y="-739.3" font-family="Arial" font-size="14.00">NrsMapContainer</text>
<text text-anchor="start" x="1452" y="-724.3" font-family="Arial" font-size="14.00">Multimap</text>
<text text-anchor="start" x="1452" y="-709.3" font-family="Arial" font-size="14.00">MediaType(String)</text>
<polygon fill="none" stroke="black" points="1440,-694 1440,-845 1580,-845 1580,-694 1440,-694"/>
</a>
</g>
</g>
<!-- ndContentType&#45;&gt;ndUrl -->
<g id="edge17" class="edge"><title>ndContentType&#45;&gt;ndUrl</title>
<path fill="none" stroke="black" stroke-dasharray="5,2" d="M1555.46,-689.902C1562.86,-677.102 1570.74,-663.483 1578.74,-649.646"/>
<polygon fill="black" stroke="black" points="1578.87,-649.42 1578.41,-642.224 1584.88,-639.032 1585.34,-646.229 1578.87,-649.42"/>
</g>
<!-- ndDataType -->
<g id="node22" class="node"><title>ndDataType</title>
<g id="a_node22_22"><a xlink:href="https://github.com/maidsafe/safe_network/blob/master/src/url/mod.rs#:~:text=enum%20DataType" xlink:title="&lt;TABLE&gt;">
<polygon fill="yellow" stroke="none" points="1616,-784.5 1616,-821.5 1705,-821.5 1705,-784.5 1616,-784.5"/>
<polygon fill="none" stroke="black" points="1616,-784.5 1616,-821.5 1705,-821.5 1705,-784.5 1616,-784.5"/>
<text text-anchor="start" x="1627" y="-800.3" font-family="Arial" font-weight="bold" font-size="14.00">DataType</text>
<polygon fill="white" stroke="none" points="1616,-717.5 1616,-784.5 1705,-784.5 1705,-717.5 1616,-717.5"/>
<polygon fill="none" stroke="black" points="1616,-717.5 1616,-784.5 1705,-784.5 1705,-717.5 1616,-717.5"/>
<text text-anchor="start" x="1627" y="-762.3" font-family="Arial" font-size="14.00">SafeKey</text>
<text text-anchor="start" x="1627" y="-747.3" font-family="Arial" font-size="14.00">Bytes</text>
<text text-anchor="start" x="1627" y="-732.3" font-family="Arial" font-size="14.00">Register</text>
<polygon fill="none" stroke="black" points="1614.5,-716.5 1614.5,-822.5 1705.5,-822.5 1705.5,-716.5 1614.5,-716.5"/>
</a>
</g>
</g>
<!-- ndDataType&#45;&gt;ndUrl -->
<g id="edge18" class="edge"><title>ndDataType&#45;&gt;ndUrl</title>
<path fill="none" stroke="black" d="M1661.05,-712.318C1661.4,-693.533 1661.81,-671.625 1662.23,-649.161"/>
<polygon fill="black" stroke="black" points="1662.41,-639.16 1666.73,-649.243 1662.32,-644.159 1662.23,-649.159 1662.23,-649.159 1662.23,-649.159 1662.32,-644.159 1657.73,-649.075 1662.41,-639.16 1662.41,-639.16"/>
</g>
<!-- ndUrlType -->
<g id="node23" class="node"><title>ndUrlType</title>
<g id="a_node23_23"><a xlink:href="https://github.com/maidsafe/safe_network/blob/master/src/url/mod.rs#:~:text=enum%20UrlType" xlink:title="&lt;TABLE&gt;">
<polygon fill="yellow" stroke="none" points="1741,-776.5 1741,-813.5 1818,-813.5 1818,-776.5 1741,-776.5"/>
<polygon fill="none" stroke="black" points="1741,-776.5 1741,-813.5 1818,-813.5 1818,-776.5 1741,-776.5"/>
<text text-anchor="start" x="1752" y="-792.3" font-family="Arial" font-weight="bold" font-size="14.00">UrlType</text>
<polygon fill="white" stroke="none" points="1741,-724.5 1741,-776.5 1818,-776.5 1818,-724.5 1741,-724.5"/>
<polygon fill="none" stroke="black" points="1741,-724.5 1741,-776.5 1818,-776.5 1818,-724.5 1741,-724.5"/>
<text text-anchor="start" x="1752" y="-754.3" font-family="Arial" font-size="14.00">XorUrl</text>
<text text-anchor="start" x="1752" y="-739.3" font-family="Arial" font-size="14.00">NrsUrl</text>
<polygon fill="none" stroke="black" points="1739.5,-724 1739.5,-815 1818.5,-815 1818.5,-724 1739.5,-724"/>
</a>
</g>
</g>
<!-- ndUrlType&#45;&gt;ndUrl -->
<g id="edge19" class="edge"><title>ndUrlType&#45;&gt;ndUrl</title>
<path fill="none" stroke="black" d="M1758.36,-719.967C1749.83,-699.929 1739.45,-675.515 1728.74,-650.345"/>
<polygon fill="black" stroke="black" points="1728.67,-650.175 1722.64,-646.22 1723.97,-639.133 1730,-643.088 1728.67,-650.175"/>
</g>
<!-- ndUrl&#45;&gt;ndSafe -->
<g id="edge20" class="edge"><title>ndUrl&#45;&gt;ndSafe</title>
<path fill="none" stroke="black" stroke-dasharray="5,2" d="M1670.99,-359.728C1674.51,-277.958 1678.79,-178.748 1681.46,-116.98"/>
<polygon fill="black" stroke="black" points="1681.9,-106.646 1685.97,-116.831 1681.69,-111.642 1681.47,-116.637 1681.47,-116.637 1681.47,-116.637 1681.69,-111.642 1676.97,-116.443 1681.9,-106.646 1681.9,-106.646"/>
</g>
<!-- ndUrl&#45;&gt;ndNrsMap -->
<g id="edge21" class="edge"><title>ndUrl&#45;&gt;ndNrsMap</title>
<path fill="none" stroke="black" d="M1516.98,-401.129C1456.47,-361.321 1389.29,-317.129 1340.13,-284.792"/>
<polygon fill="black" stroke="black" points="1331.48,-279.1 1342.31,-280.836 1335.65,-281.847 1339.83,-284.595 1339.83,-284.595 1339.83,-284.595 1335.65,-281.847 1337.36,-288.355 1331.48,-279.1 1331.48,-279.1"/>
</g>
<!-- ndUrl&#45;&gt;ndSafeData -->
<g id="edge22" class="edge"><title>ndUrl&#45;&gt;ndSafeData</title>
<path fill="none" stroke="black" d="M1729.93,-359.86C1734.11,-350.937 1738.26,-342.067 1742.31,-333.417"/>
<polygon fill="black" stroke="black" points="1746.66,-324.127 1746.5,-335.091 1744.54,-328.655 1742.42,-333.183 1742.42,-333.183 1742.42,-333.183 1744.54,-328.655 1738.35,-331.274 1746.66,-324.127 1746.66,-324.127"/>
</g>
<!-- ndUrlParts -->
<g id="node25" class="node"><title>ndUrlParts</title>
<g id="a_node25_24"><a xlink:href="https://github.com/maidsafe/safe_network/blob/master/src/url/url_parts.rs#:~:text=struct%20UrlParts" xlink:title="&lt;TABLE&gt;">
<polygon fill="lightblue" stroke="none" points="2960,-821.5 2960,-858.5 3181,-858.5 3181,-821.5 2960,-821.5"/>
<polygon fill="none" stroke="black" points="2960,-821.5 2960,-858.5 3181,-858.5 3181,-821.5 2960,-821.5"/>
<text text-anchor="start" x="3042" y="-837.3" font-family="Arial" font-weight="bold" font-size="14.00">UrlParts</text>
<polygon fill="white" stroke="none" points="2960,-679.5 2960,-821.5 3181,-821.5 3181,-679.5 2960,-679.5"/>
<polygon fill="none" stroke="black" points="2960,-679.5 2960,-821.5 3181,-821.5 3181,-679.5 2960,-679.5"/>
<text text-anchor="start" x="2971" y="-799.3" font-family="Arial" font-size="14.00">&#45; scheme: String</text>
<text text-anchor="start" x="2971" y="-784.3" font-family="Arial" font-size="14.00">&#45; public_name: String</text>
<text text-anchor="start" x="2971" y="-769.3" font-family="Arial" font-size="14.00">&#45; top_name: String</text>
<text text-anchor="start" x="2971" y="-754.3" font-family="Arial" font-size="14.00">&#45; sub_names: String</text>
<text text-anchor="start" x="2971" y="-739.3" font-family="Arial" font-size="14.00">&#45; sub_names_vec: Vec&lt;String&gt;</text>
<text text-anchor="start" x="2971" y="-724.3" font-family="Arial" font-size="14.00">&#45; path: String</text>
<text text-anchor="start" x="2971" y="-709.3" font-family="Arial" font-size="14.00">&#45; query_string: String</text>
<text text-anchor="start" x="2971" y="-694.3" font-family="Arial" font-size="14.00">&#45; fragment: String</text>
<polygon fill="none" stroke="black" points="2958.5,-679 2958.5,-860 3181.5,-860 3181.5,-679 2958.5,-679"/>
</a>
</g>
</g>
</g>
</svg>
