<?xml version="1.0" encoding="UTF-8" standalone="no"?>
<!DOCTYPE svg PUBLIC "-//W3C//DTD SVG 1.1//EN"
 "http://www.w3.org/Graphics/SVG/1.1/DTD/svg11.dtd">
<!-- Generated by graphviz version 2.38.0 (20140413.2041)
 -->
<!-- Title: ml Pages: 1 -->
<svg width="1870pt" height="304pt"
 viewBox="0.00 0.00 1870.00 304.00" xmlns="http://www.w3.org/2000/svg" xmlns:xlink="http://www.w3.org/1999/xlink">
<g id="graph0" class="graph" transform="scale(1 1) rotate(0) translate(4 300)">
<title>ml</title>
<polygon fill="white" stroke="none" points="-4,4 -4,-300 1866,-300 1866,4 -4,4"/>
<!-- ndIpcResp -->
<g id="node1" class="node"><title>ndIpcResp</title>
<g id="a_node1_0"><a xlink:href="https://github.com/maidsafe/safe_network/blob/master/src/ipc/resp.rs#:~:text=enum%20IpcResp" xlink:title="&lt;TABLE&gt;">
<polygon fill="yellow" stroke="none" points="299.5,-87.5 299.5,-124.5 378.5,-124.5 378.5,-87.5 299.5,-87.5"/>
<polygon fill="none" stroke="black" points="299.5,-87.5 299.5,-124.5 378.5,-124.5 378.5,-87.5 299.5,-87.5"/>
<text text-anchor="start" x="310.5" y="-103.3" font-family="Arial" font-weight="bold" font-size="14.00">IpcResp</text>
<polygon fill="none" stroke="black" points="298,-87 298,-126 379,-126 379,-87 298,-87"/>
</a>
</g>
</g>
<!-- ndIpcMsg -->
<g id="node6" class="node"><title>ndIpcMsg</title>
<g id="a_node6_1"><a xlink:href="https://github.com/maidsafe/safe_network/blob/master/src/ipc/mod.rs#:~:text=enum%20IpcMsg" xlink:title="&lt;TABLE&gt;">
<polygon fill="yellow" stroke="none" points="301.5,-4.5 301.5,-41.5 375.5,-41.5 375.5,-4.5 301.5,-4.5"/>
<polygon fill="none" stroke="black" points="301.5,-4.5 301.5,-41.5 375.5,-41.5 375.5,-4.5 301.5,-4.5"/>
<text text-anchor="start" x="312.5" y="-20.3" font-family="Arial" font-weight="bold" font-size="14.00">IpcMsg</text>
<polygon fill="none" stroke="black" points="300.5,-4 300.5,-43 376.5,-43 376.5,-4 300.5,-4"/>
</a>
</g>
</g>
<!-- ndIpcResp&#45;&gt;ndIpcMsg -->
<g id="edge1" class="edge"><title>ndIpcResp&#45;&gt;ndIpcMsg</title>
<path fill="none" stroke="black" d="M338.5,-82.937C338.5,-75.6257 338.5,-67.3371 338.5,-59.3477"/>
<polygon fill="black" stroke="black" points="338.5,-59.2229 334.5,-53.223 338.5,-47.2229 342.5,-53.2229 338.5,-59.2229"/>
</g>
<!-- ndAuthGranted -->
<g id="node2" class="node"><title>ndAuthGranted</title>
<g id="a_node2_2"><a xlink:href="https://github.com/maidsafe/safe_network/blob/master/src/ipc/resp.rs#:~:text=struct%20AuthGranted" xlink:title="&lt;TABLE&gt;">
<polygon fill="lightblue" stroke="none" points="208.5,-170.5 208.5,-207.5 319.5,-207.5 319.5,-170.5 208.5,-170.5"/>
<polygon fill="none" stroke="black" points="208.5,-170.5 208.5,-207.5 319.5,-207.5 319.5,-170.5 208.5,-170.5"/>
<text text-anchor="start" x="219.5" y="-186.3" font-family="Arial" font-weight="bold" font-size="14.00">AuthGranted</text>
<polygon fill="none" stroke="black" points="207,-170 207,-209 320,-209 320,-170 207,-170"/>
</a>
</g>
</g>
<!-- ndAuthGranted&#45;&gt;ndIpcResp -->
<g id="edge2" class="edge"><title>ndAuthGranted&#45;&gt;ndIpcResp</title>
<path fill="none" stroke="black" d="M284.392,-165.937C292.048,-157.668 300.862,-148.149 309.123,-139.227"/>
<polygon fill="black" stroke="black" points="309.307,-139.028 310.449,-131.908 317.46,-130.223 316.319,-137.343 309.307,-139.028"/>
</g>
<!-- ndSafeAuthenticator -->
<g id="node8" class="node"><title>ndSafeAuthenticator</title>
<g id="a_node8_3"><a xlink:href="https://github.com/maidsafe/safe_network/blob/master/src/authenticator/mod.rs#:~:text=struct%20SafeAuthenticator" xlink:title="&lt;TABLE&gt;">
<polygon fill="lightblue" stroke="none" points="116.5,-87.5 116.5,-124.5 263.5,-124.5 263.5,-87.5 116.5,-87.5"/>
<polygon fill="none" stroke="black" points="116.5,-87.5 116.5,-124.5 263.5,-124.5 263.5,-87.5 116.5,-87.5"/>
<text text-anchor="start" x="127.5" y="-103.3" font-family="Arial" font-weight="bold" font-size="14.00">SafeAuthenticator</text>
<polygon fill="none" stroke="black" points="115,-87 115,-126 264,-126 264,-87 115,-87"/>
</a>
</g>
</g>
<!-- ndAuthGranted&#45;&gt;ndSafeAuthenticator -->
<g id="edge3" class="edge"><title>ndAuthGranted&#45;&gt;ndSafeAuthenticator</title>
<path fill="none" stroke="black" d="M242.887,-165.937C234.935,-157.233 225.718,-147.144 217.203,-137.824"/>
<polygon fill="black" stroke="black" points="210.259,-130.223 220.326,-134.571 213.632,-133.914 217.004,-137.606 217.004,-137.606 217.004,-137.606 213.632,-133.914 213.682,-140.641 210.259,-130.223 210.259,-130.223"/>
</g>
<!-- ndIpcReq -->
<g id="node3" class="node"><title>ndIpcReq</title>
<g id="a_node3_4"><a xlink:href="https://github.com/maidsafe/safe_network/blob/master/src/ipc/req.rs#:~:text=enum%20IpcReq" xlink:title="&lt;TABLE&gt;">
<polygon fill="yellow" stroke="none" points="9.5,-87.5 9.5,-124.5 80.5,-124.5 80.5,-87.5 9.5,-87.5"/>
<polygon fill="none" stroke="black" points="9.5,-87.5 9.5,-124.5 80.5,-124.5 80.5,-87.5 9.5,-87.5"/>
<text text-anchor="start" x="20.5" y="-103.3" font-family="Arial" font-weight="bold" font-size="14.00">IpcReq</text>
<polygon fill="none" stroke="black" points="8,-87 8,-126 81,-126 81,-87 8,-87"/>
</a>
</g>
</g>
<!-- ndIpcReq&#45;&gt;ndIpcMsg -->
<g id="edge4" class="edge"><title>ndIpcReq&#45;&gt;ndIpcMsg</title>
<path fill="none" stroke="black" d="M89.1224,-85.9505C91.9395,-84.905 94.7481,-83.9114 97.5,-83 158.729,-62.7229 230.824,-46.145 280.101,-35.8804"/>
<polygon fill="black" stroke="black" points="280.364,-35.8265 285.435,-30.6995 292.118,-33.4084 287.047,-38.5354 280.364,-35.8265"/>
</g>
<!-- ndAuthReq -->
<g id="node4" class="node"><title>ndAuthReq</title>
<g id="a_node4_5"><a xlink:href="https://github.com/maidsafe/safe_network/blob/master/src/ipc/req.rs#:~:text=struct%20AuthReq" xlink:title="&lt;TABLE&gt;">
<polygon fill="lightblue" stroke="none" points="9.5,-170.5 9.5,-207.5 91.5,-207.5 91.5,-170.5 9.5,-170.5"/>
<polygon fill="none" stroke="black" points="9.5,-170.5 9.5,-207.5 91.5,-207.5 91.5,-170.5 9.5,-170.5"/>
<text text-anchor="start" x="20.5" y="-186.3" font-family="Arial" font-weight="bold" font-size="14.00">AuthReq</text>
<polygon fill="none" stroke="black" points="8.5,-170 8.5,-209 92.5,-209 92.5,-170 8.5,-170"/>
</a>
</g>
</g>
<!-- ndAuthReq&#45;&gt;ndIpcReq -->
<g id="edge5" class="edge"><title>ndAuthReq&#45;&gt;ndIpcReq</title>
<path fill="none" stroke="black" d="M48.8287,-165.937C48.2871,-158.626 47.6731,-150.337 47.0813,-142.348"/>
<polygon fill="black" stroke="black" points="47.0697,-142.19 42.6374,-136.502 46.1832,-130.223 50.6155,-135.911 47.0697,-142.19"/>
</g>
<!-- ndAuthReq&#45;&gt;ndSafeAuthenticator -->
<g id="edge6" class="edge"><title>ndAuthReq&#45;&gt;ndSafeAuthenticator</title>
<path fill="none" stroke="black" stroke-dasharray="5,2" d="M89.2192,-165.937C105.5,-156.45 124.605,-145.317 141.746,-135.328"/>
<polygon fill="black" stroke="black" points="150.506,-130.223 144.132,-139.146 146.186,-132.74 141.866,-135.258 141.866,-135.258 141.866,-135.258 146.186,-132.74 139.601,-131.37 150.506,-130.223 150.506,-130.223"/>
</g>
<!-- ndIpcError -->
<g id="node5" class="node"><title>ndIpcError</title>
<g id="a_node5_6"><a xlink:href="https://github.com/maidsafe/safe_network/blob/master/src/ipc/errors.rs#:~:text=enum%20IpcError" xlink:title="&lt;TABLE&gt;">
<polygon fill="yellow" stroke="none" points="413.5,-87.5 413.5,-124.5 493.5,-124.5 493.5,-87.5 413.5,-87.5"/>
<polygon fill="none" stroke="black" points="413.5,-87.5 413.5,-124.5 493.5,-124.5 493.5,-87.5 413.5,-87.5"/>
<text text-anchor="start" x="424.5" y="-103.3" font-family="Arial" font-weight="bold" font-size="14.00">IpcError</text>
<polygon fill="none" stroke="black" points="412.5,-87 412.5,-126 494.5,-126 494.5,-87 412.5,-87"/>
</a>
</g>
</g>
<!-- ndIpcError&#45;&gt;ndIpcMsg -->
<g id="edge7" class="edge"><title>ndIpcError&#45;&gt;ndIpcMsg</title>
<path fill="none" stroke="black" d="M421.466,-82.937C408.862,-74.059 394.211,-63.7399 380.76,-54.2655"/>
<polygon fill="black" stroke="black" points="380.572,-54.1331 373.363,-53.9483 370.761,-47.2229 377.97,-47.4078 380.572,-54.1331"/>
</g>
<!-- ndError -->
<g id="node7" class="node"><title>ndError</title>
<g id="a_node7_7"><a xlink:href="https://github.com/maidsafe/safe_network/blob/master/src/url/errors.rs#:~:text=enum%20Error" xlink:title="&lt;TABLE&gt;">
<polygon fill="yellow" stroke="none" points="481.5,-4.5 481.5,-41.5 540.5,-41.5 540.5,-4.5 481.5,-4.5"/>
<polygon fill="none" stroke="black" points="481.5,-4.5 481.5,-41.5 540.5,-41.5 540.5,-4.5 481.5,-4.5"/>
<text text-anchor="start" x="492.5" y="-20.3" font-family="Arial" font-weight="bold" font-size="14.00">Error</text>
<polygon fill="none" stroke="black" points="480,-4 480,-43 541,-43 541,-4 480,-4"/>
</a>
</g>
</g>
<!-- ndIpcError&#45;&gt;ndError -->
<g id="edge8" class="edge"><title>ndIpcError&#45;&gt;ndError</title>
<path fill="none" stroke="black" d="M469.378,-82.937C475.013,-74.9294 481.473,-65.7494 487.577,-57.0743"/>
<polygon fill="black" stroke="black" points="487.604,-57.0366 487.786,-49.8278 494.51,-47.2229 494.328,-54.4318 487.604,-57.0366"/>
</g>
<!-- ndSafeAppClient -->
<g id="node9" class="node"><title>ndSafeAppClient</title>
<g id="a_node9_8"><a xlink:href="https://github.com/maidsafe/safe_network/blob/master/src/app/safe_client.rs#:~:text=struct%20SafeAppClient" xlink:title="&lt;TABLE&gt;">
<polygon fill="lightblue" stroke="none" points="643.5,-87.5 643.5,-124.5 764.5,-124.5 764.5,-87.5 643.5,-87.5"/>
<polygon fill="none" stroke="black" points="643.5,-87.5 643.5,-124.5 764.5,-124.5 764.5,-87.5 643.5,-87.5"/>
<text text-anchor="start" x="654.5" y="-103.3" font-family="Arial" font-weight="bold" font-size="14.00">SafeAppClient</text>
<polygon fill="none" stroke="black" points="642,-87 642,-126 765,-126 765,-87 642,-87"/>
</a>
</g>
</g>
<!-- ndSafe -->
<g id="node13" class="node"><title>ndSafe</title>
<g id="a_node13_9"><a xlink:href="https://github.com/maidsafe/safe_network/blob/master/src/app/mod.rs#:~:text=struct%20Safe" xlink:title="&lt;TABLE&gt;">
<polygon fill="lightblue" stroke="none" points="775.5,-4.5 775.5,-41.5 828.5,-41.5 828.5,-4.5 775.5,-4.5"/>
<polygon fill="none" stroke="black" points="775.5,-4.5 775.5,-41.5 828.5,-41.5 828.5,-4.5 775.5,-4.5"/>
<text text-anchor="start" x="786.5" y="-20.3" font-family="Arial" font-weight="bold" font-size="14.00">Safe</text>
<polygon fill="none" stroke="black" points="774,-4 774,-43 829,-43 829,-4 774,-4"/>
</a>
</g>
</g>
<!-- ndSafeAppClient&#45;&gt;ndSafe -->
<g id="edge9" class="edge"><title>ndSafeAppClient&#45;&gt;ndSafe</title>
<path fill="none" stroke="black" d="M730.798,-82.937C741.224,-74.3201 753.292,-64.3457 764.473,-55.1036"/>
<polygon fill="black" stroke="black" points="764.758,-54.868 766.835,-47.9623 774.008,-47.2229 771.932,-54.1287 764.758,-54.868"/>
</g>
<!-- ndGetAttr -->
<g id="node10" class="node"><title>ndGetAttr</title>
<g id="a_node10_10"><a xlink:href="https://github.com/maidsafe/safe_network/blob/master/src/app/files/files_map.rs#:~:text=trait%20GetAttr" xlink:title="&lt;TABLE&gt;">
<polygon fill="lightgreen" stroke="none" points="1101.5,-253.5 1101.5,-290.5 1172.5,-290.5 1172.5,-253.5 1101.5,-253.5"/>
<polygon fill="none" stroke="black" points="1101.5,-253.5 1101.5,-290.5 1172.5,-290.5 1172.5,-253.5 1101.5,-253.5"/>
<text text-anchor="start" x="1112.5" y="-269.3" font-family="Arial" font-weight="bold" font-size="14.00">GetAttr</text>
<polygon fill="none" stroke="black" points="1100,-253 1100,-292 1173,-292 1173,-253 1100,-253"/>
</a>
</g>
</g>
<!-- ndFileMeta -->
<g id="node11" class="node"><title>ndFileMeta</title>
<g id="a_node11_11"><a xlink:href="https://github.com/maidsafe/safe_network/blob/master/src/app/files/metadata.rs#:~:text=struct%20FileMeta" xlink:title="&lt;TABLE&gt;">
<polygon fill="lightblue" stroke="none" points="1208.5,-253.5 1208.5,-290.5 1289.5,-290.5 1289.5,-253.5 1208.5,-253.5"/>
<polygon fill="none" stroke="black" points="1208.5,-253.5 1208.5,-290.5 1289.5,-290.5 1289.5,-253.5 1208.5,-253.5"/>
<text text-anchor="start" x="1219.5" y="-269.3" font-family="Arial" font-weight="bold" font-size="14.00">FileMeta</text>
<polygon fill="none" stroke="black" points="1207,-253 1207,-292 1290,-292 1290,-253 1207,-253"/>
</a>
</g>
</g>
<!-- ndRealPath -->
<g id="node12" class="node"><title>ndRealPath</title>
<g id="a_node12_12"><a xlink:href="https://github.com/maidsafe/safe_network/blob/master/src/app/files/realpath.rs#:~:text=trait%20RealPath" xlink:title="&lt;TABLE&gt;">
<polygon fill="lightgreen" stroke="none" points="1325.5,-253.5 1325.5,-290.5 1409.5,-290.5 1409.5,-253.5 1325.5,-253.5"/>
<polygon fill="none" stroke="black" points="1325.5,-253.5 1325.5,-290.5 1409.5,-290.5 1409.5,-253.5 1325.5,-253.5"/>
<text text-anchor="start" x="1336.5" y="-269.3" font-family="Arial" font-weight="bold" font-size="14.00">RealPath</text>
<polygon fill="none" stroke="black" points="1324.5,-253 1324.5,-292 1410.5,-292 1410.5,-253 1324.5,-253"/>
</a>
</g>
</g>
<!-- ndNrsMap -->
<g id="node14" class="node"><title>ndNrsMap</title>
<g id="a_node14_13"><a xlink:href="https://github.com/maidsafe/safe_network/blob/master/src/app/nrs/nrs_map.rs#:~:text=struct%20NrsMap" xlink:title="&lt;TABLE&gt;">
<polygon fill="lightblue" stroke="none" points="530.5,-87.5 530.5,-124.5 607.5,-124.5 607.5,-87.5 530.5,-87.5"/>
<polygon fill="none" stroke="black" points="530.5,-87.5 530.5,-124.5 607.5,-124.5 607.5,-87.5 530.5,-87.5"/>
<text text-anchor="start" x="541.5" y="-103.3" font-family="Arial" font-weight="bold" font-size="14.00">NrsMap</text>
<polygon fill="none" stroke="black" points="529,-87 529,-126 608,-126 608,-87 529,-87"/>
</a>
</g>
</g>
<!-- ndNrsMap&#45;&gt;ndError -->
<g id="edge10" class="edge"><title>ndNrsMap&#45;&gt;ndError</title>
<path fill="none" stroke="black" d="M552.344,-82.937C546.61,-74.9294 540.037,-65.7494 533.825,-57.0743"/>
<polygon fill="black" stroke="black" points="533.757,-56.9796 527.012,-54.43 526.771,-47.2229 533.516,-49.7725 533.757,-56.9796"/>
</g>
<!-- ndNrsMap&#45;&gt;ndSafe -->
<g id="edge11" class="edge"><title>ndNrsMap&#45;&gt;ndSafe</title>
<path fill="none" stroke="black" d="M616.08,-86.1466C618.922,-85.0641 621.745,-84.0077 624.5,-83 668.814,-66.7928 720.061,-50.0722 755.972,-38.6794"/>
<polygon fill="black" stroke="black" points="765.676,-35.6122 757.497,-42.917 760.908,-37.1192 756.141,-38.6262 756.141,-38.6262 756.141,-38.6262 760.908,-37.1192 754.784,-34.3355 765.676,-35.6122 765.676,-35.6122"/>
</g>
<!-- ndSafeData -->
<g id="node15" class="node"><title>ndSafeData</title>
<g id="a_node15_14"><a xlink:href="https://github.com/maidsafe/safe_network/blob/master/src/app/resolver/mod.rs#:~:text=enum%20SafeData" xlink:title="&lt;TABLE&gt;">
<polygon fill="yellow" stroke="none" points="839.5,-87.5 839.5,-124.5 924.5,-124.5 924.5,-87.5 839.5,-87.5"/>
<polygon fill="none" stroke="black" points="839.5,-87.5 839.5,-124.5 924.5,-124.5 924.5,-87.5 839.5,-87.5"/>
<text text-anchor="start" x="850.5" y="-103.3" font-family="Arial" font-weight="bold" font-size="14.00">SafeData</text>
<polygon fill="none" stroke="black" points="838,-87 838,-126 925,-126 925,-87 838,-87"/>
</a>
</g>
</g>
<!-- ndSafeData&#45;&gt;ndSafe -->
<g id="edge12" class="edge"><title>ndSafeData&#45;&gt;ndSafe</title>
<path fill="none" stroke="black" d="M859.216,-82.937C850.533,-74.146 840.455,-63.9421 831.174,-54.5444"/>
<polygon fill="black" stroke="black" points="823.942,-47.2229 834.171,-51.1757 827.456,-50.7804 830.969,-54.3378 830.969,-54.3378 830.969,-54.3378 827.456,-50.7804 827.768,-57.5 823.942,-47.2229 823.942,-47.2229"/>
</g>
<!-- ndAuthdStatus -->
<g id="node16" class="node"><title>ndAuthdStatus</title>
<g id="a_node16_15"><a xlink:href="https://github.com/maidsafe/safe_network/blob/master/src/authd_client/authd_client_api.rs#:~:text=struct%20AuthdStatus" xlink:title="&lt;TABLE&gt;">
<polygon fill="lightblue" stroke="none" points="1445.5,-253.5 1445.5,-290.5 1553.5,-290.5 1553.5,-253.5 1445.5,-253.5"/>
<polygon fill="none" stroke="black" points="1445.5,-253.5 1445.5,-290.5 1553.5,-290.5 1553.5,-253.5 1445.5,-253.5"/>
<text text-anchor="start" x="1456.5" y="-269.3" font-family="Arial" font-weight="bold" font-size="14.00">AuthdStatus</text>
<polygon fill="none" stroke="black" points="1444.5,-253 1444.5,-292 1554.5,-292 1554.5,-253 1444.5,-253"/>
</a>
</g>
</g>
<!-- ndSafeAuthdClient -->
<g id="node17" class="node"><title>ndSafeAuthdClient</title>
<g id="a_node17_16"><a xlink:href="https://github.com/maidsafe/safe_network/blob/master/src/authd_client/authd_client_api.rs#:~:text=struct%20SafeAuthdClient" xlink:title="&lt;TABLE&gt;">
<polygon fill="lightblue" stroke="none" points="1432.5,-170.5 1432.5,-207.5 1566.5,-207.5 1566.5,-170.5 1432.5,-170.5"/>
<polygon fill="none" stroke="black" points="1432.5,-170.5 1432.5,-207.5 1566.5,-207.5 1566.5,-170.5 1432.5,-170.5"/>
<text text-anchor="start" x="1443.5" y="-186.3" font-family="Arial" font-weight="bold" font-size="14.00">SafeAuthdClient</text>
<polygon fill="none" stroke="black" points="1431.5,-170 1431.5,-209 1567.5,-209 1567.5,-170 1431.5,-170"/>
</a>
</g>
</g>
<!-- ndAuthdStatus&#45;&gt;ndSafeAuthdClient -->
<g id="edge13" class="edge"><title>ndAuthdStatus&#45;&gt;ndSafeAuthdClient</title>
<path fill="none" stroke="black" d="M1499.5,-248.937C1499.5,-241.016 1499.5,-231.949 1499.5,-223.357"/>
<polygon fill="black" stroke="black" points="1499.5,-213.223 1504,-223.223 1499.5,-218.223 1499.5,-223.223 1499.5,-223.223 1499.5,-223.223 1499.5,-218.223 1495,-223.223 1499.5,-213.223 1499.5,-213.223"/>
</g>
<!-- ndVersionHashError -->
<g id="node18" class="node"><title>ndVersionHashError</title>
<g id="a_node18_17"><a xlink:href="https://github.com/maidsafe/safe_network/blob/master/src/url/version_hash.rs#:~:text=enum%20VersionHashError" xlink:title="&lt;TABLE&gt;">
<polygon fill="yellow" stroke="none" points="1589.5,-253.5 1589.5,-290.5 1737.5,-290.5 1737.5,-253.5 1589.5,-253.5"/>
<polygon fill="none" stroke="black" points="1589.5,-253.5 1589.5,-290.5 1737.5,-290.5 1737.5,-253.5 1589.5,-253.5"/>
<text text-anchor="start" x="1600.5" y="-269.3" font-family="Arial" font-weight="bold" font-size="14.00">VersionHashError</text>
<polygon fill="none" stroke="black" points="1588.5,-253 1588.5,-292 1738.5,-292 1738.5,-253 1588.5,-253"/>
</a>
</g>
</g>
<!-- ndVersionHash -->
<g id="node19" class="node"><title>ndVersionHash</title>
<g id="a_node19_18"><a xlink:href="https://github.com/maidsafe/safe_network/blob/master/src/url/version_hash.rs#:~:text=struct%20VersionHash" xlink:title="&lt;TABLE&gt;">
<polygon fill="lightblue" stroke="none" points="429.5,-253.5 429.5,-290.5 540.5,-290.5 540.5,-253.5 429.5,-253.5"/>
<polygon fill="none" stroke="black" points="429.5,-253.5 429.5,-290.5 540.5,-290.5 540.5,-253.5 429.5,-253.5"/>
<text text-anchor="start" x="440.5" y="-269.3" font-family="Arial" font-weight="bold" font-size="14.00">VersionHash</text>
<polygon fill="none" stroke="black" points="428,-253 428,-292 541,-292 541,-253 428,-253"/>
</a>
</g>
</g>
<!-- ndUrl -->
<g id="node24" class="node"><title>ndUrl</title>
<g id="a_node24_19"><a xlink:href="https://github.com/maidsafe/safe_network/blob/master/src/url/mod.rs#:~:text=struct%20Url" xlink:title="&lt;TABLE&gt;">
<polygon fill="lightblue" stroke="none" points="759.5,-170.5 759.5,-207.5 801.5,-207.5 801.5,-170.5 759.5,-170.5"/>
<polygon fill="none" stroke="black" points="759.5,-170.5 759.5,-207.5 801.5,-207.5 801.5,-170.5 759.5,-170.5"/>
<text text-anchor="start" x="770.5" y="-186.3" font-family="Arial" font-weight="bold" font-size="14.00">Url</text>
<polygon fill="none" stroke="black" points="758.5,-170 758.5,-209 802.5,-209 802.5,-170 758.5,-170"/>
</a>
</g>
</g>
<!-- ndVersionHash&#45;&gt;ndUrl -->
<g id="edge14" class="edge"><title>ndVersionHash&#45;&gt;ndUrl</title>
<path fill="none" stroke="black" d="M549.032,-251.723C552.23,-250.792 555.4,-249.88 558.5,-249 620.888,-231.302 693.647,-212.47 738.394,-201.094"/>
<polygon fill="black" stroke="black" points="738.608,-201.04 743.441,-195.688 750.24,-198.091 745.407,-203.443 738.608,-201.04"/>
</g>
<!-- ndXorUrlBase -->
<g id="node20" class="node"><title>ndXorUrlBase</title>
<g id="a_node20_20"><a xlink:href="https://github.com/maidsafe/safe_network/blob/master/src/url/mod.rs#:~:text=enum%20XorUrlBase" xlink:title="&lt;TABLE&gt;">
<polygon fill="yellow" stroke="none" points="963.5,-253.5 963.5,-290.5 1065.5,-290.5 1065.5,-253.5 963.5,-253.5"/>
<polygon fill="none" stroke="black" points="963.5,-253.5 963.5,-290.5 1065.5,-290.5 1065.5,-253.5 963.5,-253.5"/>
<text text-anchor="start" x="974.5" y="-269.3" font-family="Arial" font-weight="bold" font-size="14.00">XorUrlBase</text>
<polygon fill="none" stroke="black" points="962.5,-253 962.5,-292 1066.5,-292 1066.5,-253 962.5,-253"/>
</a>
</g>
</g>
<!-- ndXorUrlBase&#45;&gt;ndSafe -->
<g id="edge15" class="edge"><title>ndXorUrlBase&#45;&gt;ndSafe</title>
<path fill="none" stroke="black" d="M1011.58,-248.979C1005.42,-210.191 987.657,-130.388 941.5,-83 916.703,-57.5417 879.16,-42.6693 849.192,-34.2958"/>
<polygon fill="black" stroke="black" points="848.902,-34.2203 842.087,-36.5779 837.29,-31.1941 844.105,-28.8365 848.902,-34.2203"/>
</g>
<!-- ndXorUrlBase&#45;&gt;ndUrl -->
<g id="edge16" class="edge"><title>ndXorUrlBase&#45;&gt;ndUrl</title>
<path fill="none" stroke="black" stroke-dasharray="5,2" d="M954.239,-250.64C912.155,-236.073 857.147,-217.032 820.411,-204.315"/>
<polygon fill="black" stroke="black" points="810.56,-200.905 821.482,-199.924 815.285,-202.541 820.01,-204.177 820.01,-204.177 820.01,-204.177 815.285,-202.541 818.538,-208.429 810.56,-200.905 810.56,-200.905"/>
</g>
<!-- ndContentType -->
<g id="node21" class="node"><title>ndContentType</title>
<g id="a_node21_21"><a xlink:href="https://github.com/maidsafe/safe_network/blob/master/src/url/mod.rs#:~:text=enum%20ContentType" xlink:title="&lt;TABLE&gt;">
<polygon fill="yellow" stroke="none" points="576.5,-253.5 576.5,-290.5 688.5,-290.5 688.5,-253.5 576.5,-253.5"/>
<polygon fill="none" stroke="black" points="576.5,-253.5 576.5,-290.5 688.5,-290.5 688.5,-253.5 576.5,-253.5"/>
<text text-anchor="start" x="587.5" y="-269.3" font-family="Arial" font-weight="bold" font-size="14.00">ContentType</text>
<polygon fill="none" stroke="black" points="575.5,-253 575.5,-292 689.5,-292 689.5,-253 575.5,-253"/>
</a>
</g>
</g>
<!-- ndContentType&#45;&gt;ndUrl -->
<g id="edge17" class="edge"><title>ndContentType&#45;&gt;ndUrl</title>
<path fill="none" stroke="black" stroke-dasharray="5,2" d="M673.726,-248.937C694.317,-237.668 719.149,-224.077 739.683,-212.839"/>
<polygon fill="black" stroke="black" points="739.761,-212.796 743.104,-206.407 750.288,-207.035 746.945,-213.424 739.761,-212.796"/>
</g>
<!-- ndDataType -->
<g id="node22" class="node"><title>ndDataType</title>
<g id="a_node22_22"><a xlink:href="https://github.com/maidsafe/safe_network/blob/master/src/url/mod.rs#:~:text=enum%20DataType" xlink:title="&lt;TABLE&gt;">
<polygon fill="yellow" stroke="none" points="725.5,-253.5 725.5,-290.5 814.5,-290.5 814.5,-253.5 725.5,-253.5"/>
<polygon fill="none" stroke="black" points="725.5,-253.5 725.5,-290.5 814.5,-290.5 814.5,-253.5 725.5,-253.5"/>
<text text-anchor="start" x="736.5" y="-269.3" font-family="Arial" font-weight="bold" font-size="14.00">DataType</text>
<polygon fill="none" stroke="black" points="724,-253 724,-292 815,-292 815,-253 724,-253"/>
</a>
</g>
</g>
<!-- ndDataType&#45;&gt;ndUrl -->
<g id="edge18" class="edge"><title>ndDataType&#45;&gt;ndUrl</title>
<path fill="none" stroke="black" d="M772.564,-248.937C773.64,-241.016 774.871,-231.949 776.038,-223.357"/>
<polygon fill="black" stroke="black" points="777.414,-213.223 780.527,-223.738 776.741,-218.177 776.068,-223.132 776.068,-223.132 776.068,-223.132 776.741,-218.177 771.609,-222.526 777.414,-213.223 777.414,-213.223"/>
</g>
<!-- ndUrlType -->
<g id="node23" class="node"><title>ndUrlType</title>
<g id="a_node23_23"><a xlink:href="https://github.com/maidsafe/safe_network/blob/master/src/url/mod.rs#:~:text=enum%20UrlType" xlink:title="&lt;TABLE&gt;">
<polygon fill="yellow" stroke="none" points="850.5,-253.5 850.5,-290.5 927.5,-290.5 927.5,-253.5 850.5,-253.5"/>
<polygon fill="none" stroke="black" points="850.5,-253.5 850.5,-290.5 927.5,-290.5 927.5,-253.5 850.5,-253.5"/>
<text text-anchor="start" x="861.5" y="-269.3" font-family="Arial" font-weight="bold" font-size="14.00">UrlType</text>
<polygon fill="none" stroke="black" points="849,-253 849,-292 928,-292 928,-253 849,-253"/>
</a>
</g>
</g>
<!-- ndUrlType&#45;&gt;ndUrl -->
<g id="edge19" class="edge"><title>ndUrlType&#45;&gt;ndUrl</title>
<path fill="none" stroke="black" d="M858.416,-248.937C846.695,-240.146 833.089,-229.942 820.559,-220.544"/>
<polygon fill="black" stroke="black" points="820.397,-220.423 813.197,-220.023 810.797,-213.223 817.997,-213.623 820.397,-220.423"/>
</g>
<!-- ndUrl&#45;&gt;ndSafe -->
<g id="edge20" class="edge"><title>ndUrl&#45;&gt;ndSafe</title>
<path fill="none" stroke="black" stroke-dasharray="5,2" d="M783.42,-165.697C787.025,-137.546 793.181,-89.4655 797.295,-57.3408"/>
<polygon fill="black" stroke="black" points="798.605,-47.1098 801.798,-57.6004 797.97,-52.0693 797.335,-57.0288 797.335,-57.0288 797.335,-57.0288 797.97,-52.0693 792.871,-56.4572 798.605,-47.1098 798.605,-47.1098"/>
</g>
<!-- ndUrl&#45;&gt;ndNrsMap -->
<g id="edge21" class="edge"><title>ndUrl&#45;&gt;ndNrsMap</title>
<path fill="none" stroke="black" d="M750.223,-177.384C720.641,-166.47 674.113,-149.167 625.542,-130.375"/>
<polygon fill="black" stroke="black" points="616.129,-126.724 627.08,-126.145 620.791,-128.532 625.452,-130.34 625.452,-130.34 625.452,-130.34 620.791,-128.532 623.825,-134.536 616.129,-126.724 616.129,-126.724"/>
</g>
<!-- ndUrl&#45;&gt;ndSafeData -->
<g id="edge22" class="edge"><title>ndUrl&#45;&gt;ndSafeData</title>
<path fill="none" stroke="black" d="M808.634,-165.937C819.921,-156.885 833.077,-146.335 845.079,-136.709"/>
<polygon fill="black" stroke="black" points="853.166,-130.223 848.181,-139.99 849.266,-133.351 845.365,-136.479 845.365,-136.479 845.365,-136.479 849.266,-133.351 842.55,-132.969 853.166,-130.223 853.166,-130.223"/>
</g>
<!-- ndUrlParts -->
<g id="node25" class="node"><title>ndUrlParts</title>
<g id="a_node25_24"><a xlink:href="https://github.com/maidsafe/safe_network/blob/master/src/url/url_parts.rs#:~:text=struct%20UrlParts" xlink:title="&lt;TABLE&gt;">
<polygon fill="lightblue" stroke="none" points="1774.5,-253.5 1774.5,-290.5 1853.5,-290.5 1853.5,-253.5 1774.5,-253.5"/>
<polygon fill="none" stroke="black" points="1774.5,-253.5 1774.5,-290.5 1853.5,-290.5 1853.5,-253.5 1774.5,-253.5"/>
<text text-anchor="start" x="1785.5" y="-269.3" font-family="Arial" font-weight="bold" font-size="14.00">UrlParts</text>
<polygon fill="none" stroke="black" points="1773,-253 1773,-292 1854,-292 1854,-253 1773,-253"/>
</a>
</g>
</g>
</g>
</svg>
