<?xml version="1.0" encoding="UTF-8" standalone="no"?>
<!DOCTYPE svg PUBLIC "-//W3C//DTD SVG 1.1//EN"
 "http://www.w3.org/Graphics/SVG/1.1/DTD/svg11.dtd">
<!-- Generated by graphviz version 2.38.0 (20140413.2041)
 -->
<!-- Title: ml Pages: 1 -->
<svg width="2720pt" height="917pt"
 viewBox="0.00 0.00 2719.50 917.00" xmlns="http://www.w3.org/2000/svg" xmlns:xlink="http://www.w3.org/1999/xlink">
<g id="graph0" class="graph" transform="scale(1 1) rotate(0) translate(4 913)">
<title>ml</title>
<polygon fill="white" stroke="none" points="-4,4 -4,-913 2715.5,-913 2715.5,4 -4,4"/>
<!-- ndIpcResp -->
<g id="node1" class="node"><title>ndIpcResp</title>
<polygon fill="yellow" stroke="none" points="615,-619 615,-656 921,-656 921,-619 615,-619"/>
<polygon fill="none" stroke="black" points="615,-619 615,-656 921,-656 921,-619 615,-619"/>
<text text-anchor="start" x="739.5" y="-634.8" font-family="Arial" font-weight="bold" font-size="14.00">IpcResp</text>
<polygon fill="white" stroke="none" points="615,-567 615,-619 921,-619 921,-567 615,-567"/>
<polygon fill="none" stroke="black" points="615,-567 615,-619 921,-619 921,-567 615,-567"/>
<text text-anchor="start" x="626" y="-596.8" font-family="Arial" font-size="14.00">Auth(Result&lt;AuthGranted, IpcError&gt;)</text>
<text text-anchor="start" x="626" y="-581.8" font-family="Arial" font-size="14.00">Unregistered(Result&lt;NodeConfig, IpcError&gt;)</text>
<polygon fill="none" stroke="black" points="614,-566.5 614,-657.5 922,-657.5 922,-566.5 614,-566.5"/>
</g>
<!-- ndIpcMsg -->
<g id="node6" class="node"><title>ndIpcMsg</title>
<polygon fill="yellow" stroke="none" points="708,-267 708,-304 829,-304 829,-267 708,-267"/>
<polygon fill="none" stroke="black" points="708,-267 708,-304 829,-304 829,-267 708,-267"/>
<text text-anchor="start" x="742.5" y="-282.8" font-family="Arial" font-weight="bold" font-size="14.00">IpcMsg</text>
<polygon fill="white" stroke="none" points="708,-200 708,-267 829,-267 829,-200 708,-200"/>
<polygon fill="none" stroke="black" points="708,-200 708,-267 829,-267 829,-200 708,-200"/>
<text text-anchor="start" x="719" y="-244.8" font-family="Arial" font-size="14.00">Req(IpcReq)</text>
<text text-anchor="start" x="719" y="-229.8" font-family="Arial" font-size="14.00">Resp(IpcResp)</text>
<text text-anchor="start" x="719" y="-214.8" font-family="Arial" font-size="14.00">Err(IpcError)</text>
<polygon fill="none" stroke="black" points="706.5,-199 706.5,-305 829.5,-305 829.5,-199 706.5,-199"/>
</g>
<!-- ndIpcResp&#45;&gt;ndIpcMsg -->
<g id="edge1" class="edge"><title>ndIpcResp&#45;&gt;ndIpcMsg</title>
<path fill="none" stroke="black" d="M768,-562.346C768,-500.125 768,-392.011 768,-321.49"/>
<polygon fill="black" stroke="black" points="768,-321.212 764,-315.212 768,-309.212 772,-315.212 768,-321.212"/>
</g>
<!-- ndAuthGranted -->
<g id="node2" class="node"><title>ndAuthGranted</title>
<polygon fill="lightblue" stroke="none" points="398,-821.5 398,-858.5 682,-858.5 682,-821.5 398,-821.5"/>
<polygon fill="none" stroke="black" points="398,-821.5 398,-858.5 682,-858.5 682,-821.5 398,-821.5"/>
<text text-anchor="start" x="495.5" y="-837.3" font-family="Arial" font-weight="bold" font-size="14.00">AuthGranted</text>
<polygon fill="white" stroke="none" points="398,-769.5 398,-821.5 682,-821.5 682,-769.5 398,-769.5"/>
<polygon fill="none" stroke="black" points="398,-769.5 398,-821.5 682,-821.5 682,-769.5 398,-769.5"/>
<text text-anchor="start" x="409" y="-799.3" font-family="Arial" font-size="14.00">+ app_keypair: Keypair</text>
<text text-anchor="start" x="409" y="-784.3" font-family="Arial" font-size="14.00">+ bootstrap_config: Option&lt;NodeConfig&gt;</text>
<polygon fill="none" stroke="black" points="397,-769 397,-860 683,-860 683,-769 397,-769"/>
</g>
<!-- ndAuthGranted&#45;&gt;ndIpcResp -->
<g id="edge2" class="edge"><title>ndAuthGranted&#45;&gt;ndIpcResp</title>
<path fill="none" stroke="black" d="M595.192,-764.965C627.718,-736.362 669.039,-700.025 703.119,-670.056"/>
<polygon fill="black" stroke="black" points="703.514,-669.708 705.378,-662.742 712.526,-661.783 710.661,-668.749 703.514,-669.708"/>
</g>
<!-- ndSafeAuthenticator -->
<g id="node8" class="node"><title>ndSafeAuthenticator</title>
<polygon fill="lightblue" stroke="none" points="215,-627 215,-664 579,-664 579,-627 215,-627"/>
<polygon fill="none" stroke="black" points="215,-627 215,-664 579,-664 579,-627 215,-627"/>
<text text-anchor="start" x="334.5" y="-642.8" font-family="Arial" font-weight="bold" font-size="14.00">SafeAuthenticator</text>
<polygon fill="white" stroke="none" points="215,-560 215,-627 579,-627 579,-560 215,-560"/>
<polygon fill="none" stroke="black" points="215,-560 215,-627 579,-627 579,-560 215,-560"/>
<text text-anchor="start" x="226" y="-604.8" font-family="Arial" font-size="14.00">&#45; safe: Option&lt;(Client, RegisterAddress)&gt;</text>
<text text-anchor="start" x="226" y="-589.8" font-family="Arial" font-size="14.00">&#45; config_path: Option&lt;PathBuf&gt;</text>
<text text-anchor="start" x="226" y="-574.8" font-family="Arial" font-size="14.00">&#45; bootstrap_contacts: Option&lt;HashSet&lt;SocketAddr&gt;&gt;</text>
<polygon fill="none" stroke="black" points="214,-559 214,-665 580,-665 580,-559 214,-559"/>
</g>
<!-- ndAuthGranted&#45;&gt;ndSafeAuthenticator -->
<g id="edge3" class="edge"><title>ndAuthGranted&#45;&gt;ndSafeAuthenticator</title>
<path fill="none" stroke="black" d="M505.384,-764.965C486.651,-738.699 463.266,-705.912 443.019,-677.523"/>
<polygon fill="black" stroke="black" points="437.122,-669.255 446.592,-674.783 440.025,-673.325 442.928,-677.396 442.928,-677.396 442.928,-677.396 440.025,-673.325 439.265,-680.009 437.122,-669.255 437.122,-669.255"/>
</g>
<!-- ndIpcReq -->
<g id="node3" class="node"><title>ndIpcReq</title>
<polygon fill="yellow" stroke="none" points="9,-619 9,-656 179,-656 179,-619 9,-619"/>
<polygon fill="none" stroke="black" points="9,-619 9,-656 179,-656 179,-619 9,-619"/>
<text text-anchor="start" x="69.5" y="-634.8" font-family="Arial" font-weight="bold" font-size="14.00">IpcReq</text>
<polygon fill="white" stroke="none" points="9,-567 9,-619 179,-619 179,-567 9,-567"/>
<polygon fill="none" stroke="black" points="9,-567 9,-619 179,-619 179,-567 9,-567"/>
<text text-anchor="start" x="20" y="-596.8" font-family="Arial" font-size="14.00">Auth(AuthReq)</text>
<text text-anchor="start" x="20" y="-581.8" font-family="Arial" font-size="14.00">Unregistered(Vec&lt;u8&gt;)</text>
<polygon fill="none" stroke="black" points="8,-566.5 8,-657.5 180,-657.5 180,-566.5 8,-566.5"/>
</g>
<!-- ndIpcReq&#45;&gt;ndIpcMsg -->
<g id="edge4" class="edge"><title>ndIpcReq&#45;&gt;ndIpcMsg</title>
<path fill="none" stroke="black" d="M161.561,-562.484C173.204,-554.688 185.32,-546.916 197,-540 366.135,-439.845 574.642,-340.86 687.022,-289.394"/>
<polygon fill="black" stroke="black" points="687.34,-289.248 691.135,-283.117 698.254,-284.261 694.459,-290.393 687.34,-289.248"/>
</g>
<!-- ndAuthReq -->
<g id="node4" class="node"><title>ndAuthReq</title>
<polygon fill="lightblue" stroke="none" points="164,-836.5 164,-873.5 345,-873.5 345,-836.5 164,-836.5"/>
<polygon fill="none" stroke="black" points="164,-836.5 164,-873.5 345,-873.5 345,-836.5 164,-836.5"/>
<text text-anchor="start" x="224.5" y="-852.3" font-family="Arial" font-weight="bold" font-size="14.00">AuthReq</text>
<polygon fill="white" stroke="none" points="164,-754.5 164,-836.5 345,-836.5 345,-754.5 164,-754.5"/>
<polygon fill="none" stroke="black" points="164,-754.5 164,-836.5 345,-836.5 345,-754.5 164,-754.5"/>
<text text-anchor="start" x="175" y="-814.3" font-family="Arial" font-size="14.00">+ req_id: SafeAuthReqId</text>
<text text-anchor="start" x="175" y="-799.3" font-family="Arial" font-size="14.00">+ app_id: String</text>
<text text-anchor="start" x="175" y="-784.3" font-family="Arial" font-size="14.00">+ app_name: String</text>
<text text-anchor="start" x="175" y="-769.3" font-family="Arial" font-size="14.00">+ app_vendor: String</text>
<polygon fill="none" stroke="black" points="162.5,-754 162.5,-875 345.5,-875 345.5,-754 162.5,-754"/>
</g>
<!-- ndAuthReq&#45;&gt;ndIpcReq -->
<g id="edge5" class="edge"><title>ndAuthReq&#45;&gt;ndIpcReq</title>
<path fill="none" stroke="black" d="M203.155,-749.785C183.041,-724.579 160.077,-695.803 140.419,-671.169"/>
<polygon fill="black" stroke="black" points="140.265,-670.975 133.396,-668.781 132.78,-661.596 139.649,-663.791 140.265,-670.975"/>
</g>
<!-- ndAuthReq&#45;&gt;ndSafeAuthenticator -->
<g id="edge6" class="edge"><title>ndAuthReq&#45;&gt;ndSafeAuthenticator</title>
<path fill="none" stroke="black" stroke-dasharray="5,2" d="M299.443,-749.785C315.904,-726.705 334.5,-700.632 351.008,-677.485"/>
<polygon fill="black" stroke="black" points="356.988,-669.101 354.845,-679.856 354.084,-673.172 351.181,-677.243 351.181,-677.243 351.181,-677.243 354.084,-673.172 347.517,-674.63 356.988,-669.101 356.988,-669.101"/>
</g>
<!-- ndIpcError -->
<g id="node5" class="node"><title>ndIpcError</title>
<polygon fill="yellow" stroke="none" points="958,-642 958,-679 1113,-679 1113,-642 958,-642"/>
<polygon fill="none" stroke="black" points="958,-642 958,-679 1113,-679 1113,-642 958,-642"/>
<text text-anchor="start" x="1006.5" y="-657.8" font-family="Arial" font-weight="bold" font-size="14.00">IpcError</text>
<polygon fill="white" stroke="none" points="958,-545 958,-642 1113,-642 1113,-545 958,-545"/>
<polygon fill="none" stroke="black" points="958,-545 958,-642 1113,-642 1113,-545 958,-545"/>
<text text-anchor="start" x="969" y="-619.8" font-family="Arial" font-size="14.00">AuthDenied</text>
<text text-anchor="start" x="969" y="-604.8" font-family="Arial" font-size="14.00">InvalidMsg</text>
<text text-anchor="start" x="969" y="-589.8" font-family="Arial" font-size="14.00">EncodeDecodeError</text>
<text text-anchor="start" x="969" y="-574.8" font-family="Arial" font-size="14.00">AlreadyAuthorised</text>
<text text-anchor="start" x="969" y="-559.8" font-family="Arial" font-size="14.00">UnknownApp</text>
<polygon fill="none" stroke="black" points="956.5,-544 956.5,-680 1113.5,-680 1113.5,-544 956.5,-544"/>
</g>
<!-- ndIpcError&#45;&gt;ndIpcMsg -->
<g id="edge7" class="edge"><title>ndIpcError&#45;&gt;ndIpcMsg</title>
<path fill="none" stroke="black" d="M948.496,-546.235C945.311,-544.103 942.139,-542.018 939,-540 911.22,-522.143 896.079,-528.558 874,-504 827.005,-451.729 798.853,-375.571 783.502,-320.868"/>
<polygon fill="black" stroke="black" points="783.476,-320.771 778.042,-316.03 780.328,-309.191 785.762,-313.931 783.476,-320.771"/>
</g>
<!-- ndError -->
<g id="node7" class="node"><title>ndError</title>
<polygon fill="yellow" stroke="none" points="893,-462 893,-499 1178,-499 1178,-462 893,-462"/>
<polygon fill="none" stroke="black" points="893,-462 893,-499 1178,-499 1178,-462 893,-462"/>
<text text-anchor="start" x="1017" y="-477.8" font-family="Arial" font-weight="bold" font-size="14.00">Error</text>
<polygon fill="white" stroke="none" points="893,-5 893,-462 1178,-462 1178,-5 893,-5"/>
<polygon fill="none" stroke="black" points="893,-5 893,-462 1178,-462 1178,-5 893,-5"/>
<text text-anchor="start" x="904" y="-439.8" font-family="Arial" font-size="14.00">AuthError(String)</text>
<text text-anchor="start" x="904" y="-424.8" font-family="Arial" font-size="14.00">AuthIpcError(IpcError)</text>
<text text-anchor="start" x="904" y="-409.8" font-family="Arial" font-size="14.00">AuthdClientError(String)</text>
<text text-anchor="start" x="904" y="-394.8" font-family="Arial" font-size="14.00">AuthdError(String)</text>
<text text-anchor="start" x="904" y="-379.8" font-family="Arial" font-size="14.00">AuthdAlreadyStarted(String)</text>
<text text-anchor="start" x="904" y="-364.8" font-family="Arial" font-size="14.00">AuthenticatorError(String)</text>
<text text-anchor="start" x="904" y="-349.8" font-family="Arial" font-size="14.00">ConnectionError(String)</text>
<text text-anchor="start" x="904" y="-334.8" font-family="Arial" font-size="14.00">NetDataError(String)</text>
<text text-anchor="start" x="904" y="-319.8" font-family="Arial" font-size="14.00">ContentNotFound(String)</text>
<text text-anchor="start" x="904" y="-304.8" font-family="Arial" font-size="14.00">ContentError(String)</text>
<text text-anchor="start" x="904" y="-289.8" font-family="Arial" font-size="14.00">ClientError(ClientError)</text>
<text text-anchor="start" x="904" y="-274.8" font-family="Arial" font-size="14.00">EmptyContent(String)</text>
<text text-anchor="start" x="904" y="-259.8" font-family="Arial" font-size="14.00">AccessDenied(String)</text>
<text text-anchor="start" x="904" y="-244.8" font-family="Arial" font-size="14.00">VersionNotFound(String)</text>
<text text-anchor="start" x="904" y="-229.8" font-family="Arial" font-size="14.00">HashNotFound(crate::register::EntryHash)</text>
<text text-anchor="start" x="904" y="-214.8" font-family="Arial" font-size="14.00">EntryNotFound(String)</text>
<text text-anchor="start" x="904" y="-199.8" font-family="Arial" font-size="14.00">EntryExists(String)</text>
<text text-anchor="start" x="904" y="-184.8" font-family="Arial" font-size="14.00">InvalidAmount(String)</text>
<text text-anchor="start" x="904" y="-169.8" font-family="Arial" font-size="14.00">InvalidXorUrl(String)</text>
<text text-anchor="start" x="904" y="-154.8" font-family="Arial" font-size="14.00">InvalidInput(String)</text>
<text text-anchor="start" x="904" y="-139.8" font-family="Arial" font-size="14.00">InvalidMediaType(String)</text>
<text text-anchor="start" x="904" y="-124.8" font-family="Arial" font-size="14.00">NotEnoughBalance(String)</text>
<text text-anchor="start" x="904" y="-109.8" font-family="Arial" font-size="14.00">NrsNameAlreadyExists(String)</text>
<text text-anchor="start" x="904" y="-94.8" font-family="Arial" font-size="14.00">Serialisation(String)</text>
<text text-anchor="start" x="904" y="-79.8" font-family="Arial" font-size="14.00">FileSystemError(String)</text>
<text text-anchor="start" x="904" y="-64.8" font-family="Arial" font-size="14.00">UrlError(UrlError)</text>
<text text-anchor="start" x="904" y="-49.8" font-family="Arial" font-size="14.00">UnversionedContentError(String)</text>
<text text-anchor="start" x="904" y="-34.8" font-family="Arial" font-size="14.00">NotImplementedError(String)</text>
<text text-anchor="start" x="904" y="-19.8" font-family="Arial" font-size="14.00">RegisterFork(String)</text>
<polygon fill="none" stroke="black" points="891.5,-4 891.5,-500 1178.5,-500 1178.5,-4 891.5,-4"/>
</g>
<!-- ndIpcError&#45;&gt;ndError -->
<g id="edge8" class="edge"><title>ndIpcError&#45;&gt;ndError</title>
<path fill="none" stroke="black" d="M1035,-539.843C1035,-532.376 1035,-524.51 1035,-516.34"/>
<polygon fill="black" stroke="black" points="1035,-516.164 1031,-510.164 1035,-504.164 1039,-510.164 1035,-516.164"/>
</g>
<!-- ndSafeAppClient -->
<g id="node9" class="node"><title>ndSafeAppClient</title>
<polygon fill="lightblue" stroke="none" points="1139,-829.5 1139,-866.5 1360,-866.5 1360,-829.5 1139,-829.5"/>
<polygon fill="none" stroke="black" points="1139,-829.5 1139,-866.5 1360,-866.5 1360,-829.5 1139,-829.5"/>
<text text-anchor="start" x="1200" y="-845.3" font-family="Arial" font-weight="bold" font-size="14.00">SafeAppClient</text>
<polygon fill="white" stroke="none" points="1139,-762.5 1139,-829.5 1360,-829.5 1360,-762.5 1139,-762.5"/>
<polygon fill="none" stroke="black" points="1139,-762.5 1139,-829.5 1360,-829.5 1360,-762.5 1139,-762.5"/>
<text text-anchor="start" x="1150" y="-807.3" font-family="Arial" font-size="14.00">&#45; safe_client: Option&lt;Client&gt;</text>
<text text-anchor="start" x="1150" y="-792.3" font-family="Arial" font-size="14.00">&#45; config_path: Option&lt;PathBuf&gt;</text>
<text text-anchor="start" x="1150" y="-777.3" font-family="Arial" font-size="14.00">&#45; timeout: Duration</text>
<polygon fill="none" stroke="black" points="1137.5,-761.5 1137.5,-867.5 1360.5,-867.5 1360.5,-761.5 1137.5,-761.5"/>
</g>
<!-- ndSafe -->
<g id="node13" class="node"><title>ndSafe</title>
<polygon fill="lightblue" stroke="none" points="1149,-619 1149,-656 1349,-656 1349,-619 1149,-619"/>
<polygon fill="none" stroke="black" points="1149,-619 1149,-656 1349,-656 1349,-619 1149,-619"/>
<text text-anchor="start" x="1233.5" y="-634.8" font-family="Arial" font-weight="bold" font-size="14.00">Safe</text>
<polygon fill="white" stroke="none" points="1149,-567 1149,-619 1349,-619 1349,-567 1149,-567"/>
<polygon fill="none" stroke="black" points="1149,-567 1149,-619 1349,-619 1349,-567 1149,-567"/>
<text text-anchor="start" x="1160" y="-596.8" font-family="Arial" font-size="14.00">&#45; safe_client: SafeAppClient</text>
<text text-anchor="start" x="1160" y="-581.8" font-family="Arial" font-size="14.00">+ xorurl_base: XorUrlBase</text>
<polygon fill="none" stroke="black" points="1148,-566.5 1148,-657.5 1350,-657.5 1350,-566.5 1148,-566.5"/>
</g>
<!-- ndSafeAppClient&#45;&gt;ndSafe -->
<g id="edge9" class="edge"><title>ndSafeAppClient&#45;&gt;ndSafe</title>
<path fill="none" stroke="black" d="M1249,-757.383C1249,-731.38 1249,-700.428 1249,-673.863"/>
<polygon fill="black" stroke="black" points="1249,-673.609 1245,-667.609 1249,-661.609 1253,-667.609 1249,-673.609"/>
</g>
<!-- ndGetAttr -->
<g id="node10" class="node"><title>ndGetAttr</title>
<polygon fill="lightgreen" stroke="none" points="1396,-795.5 1396,-832.5 1467,-832.5 1467,-795.5 1396,-795.5"/>
<polygon fill="none" stroke="black" points="1396,-795.5 1396,-832.5 1467,-832.5 1467,-795.5 1396,-795.5"/>
<text text-anchor="start" x="1407" y="-811.3" font-family="Arial" font-weight="bold" font-size="14.00">GetAttr</text>
<polygon fill="none" stroke="black" points="1394.5,-795 1394.5,-834 1467.5,-834 1467.5,-795 1394.5,-795"/>
</g>
<!-- ndFileMeta -->
<g id="node11" class="node"><title>ndFileMeta</title>
<polygon fill="lightblue" stroke="none" points="1503,-866.5 1503,-903.5 1745,-903.5 1745,-866.5 1503,-866.5"/>
<polygon fill="none" stroke="black" points="1503,-866.5 1503,-903.5 1745,-903.5 1745,-866.5 1503,-866.5"/>
<text text-anchor="start" x="1594.5" y="-882.3" font-family="Arial" font-weight="bold" font-size="14.00">FileMeta</text>
<polygon fill="white" stroke="none" points="1503,-724.5 1503,-866.5 1745,-866.5 1745,-724.5 1503,-724.5"/>
<polygon fill="none" stroke="black" points="1503,-724.5 1503,-866.5 1745,-866.5 1745,-724.5 1503,-724.5"/>
<text text-anchor="start" x="1514" y="-844.3" font-family="Arial" font-size="14.00">&#45; created: String</text>
<text text-anchor="start" x="1514" y="-829.3" font-family="Arial" font-size="14.00">&#45; modified: String</text>
<text text-anchor="start" x="1514" y="-814.3" font-family="Arial" font-size="14.00">&#45; file_size: String</text>
<text text-anchor="start" x="1514" y="-799.3" font-family="Arial" font-size="14.00">&#45; file_type: String</text>
<text text-anchor="start" x="1514" y="-784.3" font-family="Arial" font-size="14.00">&#45; readonly: Option&lt;String&gt;</text>
<text text-anchor="start" x="1514" y="-769.3" font-family="Arial" font-size="14.00">&#45; mode_bits: Option&lt;String&gt;</text>
<text text-anchor="start" x="1514" y="-754.3" font-family="Arial" font-size="14.00">&#45; original_created: Option&lt;String&gt;</text>
<text text-anchor="start" x="1514" y="-739.3" font-family="Arial" font-size="14.00">&#45; original_modified: Option&lt;String&gt;</text>
<polygon fill="none" stroke="black" points="1502,-724 1502,-905 1746,-905 1746,-724 1502,-724"/>
</g>
<!-- ndRealPath -->
<g id="node12" class="node"><title>ndRealPath</title>
<polygon fill="lightgreen" stroke="none" points="1781,-795.5 1781,-832.5 1865,-832.5 1865,-795.5 1781,-795.5"/>
<polygon fill="none" stroke="black" points="1781,-795.5 1781,-832.5 1865,-832.5 1865,-795.5 1781,-795.5"/>
<text text-anchor="start" x="1792" y="-811.3" font-family="Arial" font-weight="bold" font-size="14.00">RealPath</text>
<polygon fill="none" stroke="black" points="1780,-795 1780,-834 1866,-834 1866,-795 1780,-795"/>
</g>
<!-- ndNrsMap -->
<g id="node14" class="node"><title>ndNrsMap</title>
<polygon fill="lightblue" stroke="none" points="1901,-814.5 1901,-851.5 2141,-851.5 2141,-814.5 1901,-814.5"/>
<polygon fill="none" stroke="black" points="1901,-814.5 1901,-851.5 2141,-851.5 2141,-814.5 1901,-814.5"/>
<text text-anchor="start" x="1993.5" y="-830.3" font-family="Arial" font-weight="bold" font-size="14.00">NrsMap</text>
<polygon fill="white" stroke="none" points="1901,-777.5 1901,-814.5 2141,-814.5 2141,-777.5 1901,-777.5"/>
<polygon fill="none" stroke="black" points="1901,-777.5 1901,-814.5 2141,-814.5 2141,-777.5 1901,-777.5"/>
<text text-anchor="start" x="1912" y="-792.3" font-family="Arial" font-size="14.00">+ map: BTreeMap&lt;SubName, Url&gt;</text>
<polygon fill="none" stroke="black" points="1900,-776.5 1900,-852.5 2142,-852.5 2142,-776.5 1900,-776.5"/>
</g>
<!-- ndSafeData -->
<g id="node15" class="node"><title>ndSafeData</title>
<polygon fill="yellow" stroke="none" points="2177,-859.5 2177,-896.5 2309,-896.5 2309,-859.5 2177,-859.5"/>
<polygon fill="none" stroke="black" points="2177,-859.5 2177,-896.5 2309,-896.5 2309,-859.5 2177,-859.5"/>
<text text-anchor="start" x="2211.5" y="-875.3" font-family="Arial" font-weight="bold" font-size="14.00">SafeData</text>
<polygon fill="white" stroke="none" points="2177,-732.5 2177,-859.5 2309,-859.5 2309,-732.5 2177,-732.5"/>
<polygon fill="none" stroke="black" points="2177,-732.5 2177,-859.5 2309,-859.5 2309,-732.5 2177,-732.5"/>
<text text-anchor="start" x="2188" y="-837.3" font-family="Arial" font-size="14.00">SafeKey</text>
<text text-anchor="start" x="2188" y="-822.3" font-family="Arial" font-size="14.00">FilesContainer</text>
<text text-anchor="start" x="2188" y="-807.3" font-family="Arial" font-size="14.00">PublicBlob</text>
<text text-anchor="start" x="2188" y="-792.3" font-family="Arial" font-size="14.00">NrsMapContainer</text>
<text text-anchor="start" x="2188" y="-777.3" font-family="Arial" font-size="14.00">Multimap</text>
<text text-anchor="start" x="2188" y="-762.3" font-family="Arial" font-size="14.00">PublicRegister</text>
<text text-anchor="start" x="2188" y="-747.3" font-family="Arial" font-size="14.00">PrivateRegister</text>
<polygon fill="none" stroke="black" points="2176,-731.5 2176,-897.5 2310,-897.5 2310,-731.5 2176,-731.5"/>
</g>
<!-- ndAuthdStatus -->
<g id="node16" class="node"><title>ndAuthdStatus</title>
<polygon fill="lightblue" stroke="none" points="2345,-836.5 2345,-873.5 2512,-873.5 2512,-836.5 2345,-836.5"/>
<polygon fill="none" stroke="black" points="2345,-836.5 2345,-873.5 2512,-873.5 2512,-836.5 2345,-836.5"/>
<text text-anchor="start" x="2385.5" y="-852.3" font-family="Arial" font-weight="bold" font-size="14.00">AuthdStatus</text>
<polygon fill="white" stroke="none" points="2345,-754.5 2345,-836.5 2512,-836.5 2512,-754.5 2345,-754.5"/>
<polygon fill="none" stroke="black" points="2345,-754.5 2345,-836.5 2512,-836.5 2512,-754.5 2345,-754.5"/>
<text text-anchor="start" x="2356" y="-814.3" font-family="Arial" font-size="14.00">+ safe_unlocked: bool</text>
<text text-anchor="start" x="2356" y="-799.3" font-family="Arial" font-size="14.00">+ num_auth_reqs: u32</text>
<text text-anchor="start" x="2356" y="-784.3" font-family="Arial" font-size="14.00">+ num_notif_subs: u32</text>
<text text-anchor="start" x="2356" y="-769.3" font-family="Arial" font-size="14.00">+ authd_version: String</text>
<polygon fill="none" stroke="black" points="2343.5,-754 2343.5,-875 2512.5,-875 2512.5,-754 2343.5,-754"/>
</g>
<!-- ndSafeAuthdClient -->
<g id="node17" class="node"><title>ndSafeAuthdClient</title>
<polygon fill="lightblue" stroke="none" points="2154,-619 2154,-656 2703,-656 2703,-619 2154,-619"/>
<polygon fill="none" stroke="black" points="2154,-619 2154,-656 2703,-656 2703,-619 2154,-619"/>
<text text-anchor="start" x="2372.5" y="-634.8" font-family="Arial" font-weight="bold" font-size="14.00">SafeAuthdClient</text>
<polygon fill="white" stroke="none" points="2154,-567 2154,-619 2703,-619 2703,-567 2154,-567"/>
<polygon fill="none" stroke="black" points="2154,-567 2154,-619 2703,-619 2703,-567 2154,-567"/>
<text text-anchor="start" x="2165" y="-596.8" font-family="Arial" font-size="14.00">+ authd_endpoint: String</text>
<text text-anchor="start" x="2165" y="-581.8" font-family="Arial" font-size="14.00">&#45; subscribed_endpoint: Option&lt;(String, task::JoinHandle&lt;()&gt;, task::JoinHandle&lt;()&gt;)&gt;</text>
<polygon fill="none" stroke="black" points="2152.5,-566.5 2152.5,-657.5 2703.5,-657.5 2703.5,-566.5 2152.5,-566.5"/>
</g>
<!-- ndAuthdStatus&#45;&gt;ndSafeAuthdClient -->
<g id="edge10" class="edge"><title>ndAuthdStatus&#45;&gt;ndSafeAuthdClient</title>
<path fill="none" stroke="black" d="M2428,-749.785C2428,-724.802 2428,-696.312 2428,-671.824"/>
<polygon fill="black" stroke="black" points="2428,-661.596 2432.5,-671.596 2428,-666.596 2428,-671.596 2428,-671.596 2428,-671.596 2428,-666.596 2423.5,-671.596 2428,-661.596 2428,-661.596"/>
</g>
</g>
</svg>
