<?xml version="1.0" encoding="UTF-8" standalone="no"?>
<!DOCTYPE svg PUBLIC "-//W3C//DTD SVG 1.1//EN"
 "http://www.w3.org/Graphics/SVG/1.1/DTD/svg11.dtd">
<!-- Generated by graphviz version 2.38.0 (20140413.2041)
 -->
<!-- Title: ml Pages: 1 -->
<svg width="3253pt" height="857pt"
 viewBox="0.00 0.00 3252.50 857.00" xmlns="http://www.w3.org/2000/svg" xmlns:xlink="http://www.w3.org/1999/xlink">
<g id="graph0" class="graph" transform="scale(1 1) rotate(0) translate(4 853)">
<title>ml</title>
<polygon fill="white" stroke="none" points="-4,4 -4,-853 3248.5,-853 3248.5,4 -4,4"/>
<!-- ndIpcResp -->
<g id="node1" class="node"><title>ndIpcResp</title>
<g id="a_node1_0"><a xlink:href="https://github.com/maidsafe/safe_network/blob/master/src/ipc/resp.rs#:~:text=enum%20IpcResp" xlink:title="&lt;TABLE&gt;">
<polygon fill="yellow" stroke="none" points="615,-491.5 615,-528.5 921,-528.5 921,-491.5 615,-491.5"/>
<polygon fill="none" stroke="black" points="615,-491.5 615,-528.5 921,-528.5 921,-491.5 615,-491.5"/>
<text text-anchor="start" x="739.5" y="-507.3" font-family="Arial" font-weight="bold" font-size="14.00">IpcResp</text>
<polygon fill="white" stroke="none" points="615,-439.5 615,-491.5 921,-491.5 921,-439.5 615,-439.5"/>
<polygon fill="none" stroke="black" points="615,-439.5 615,-491.5 921,-491.5 921,-439.5 615,-439.5"/>
<text text-anchor="start" x="626" y="-469.3" font-family="Arial" font-size="14.00">Auth(Result&lt;AuthGranted, IpcError&gt;)</text>
<text text-anchor="start" x="626" y="-454.3" font-family="Arial" font-size="14.00">Unregistered(Result&lt;NodeConfig, IpcError&gt;)</text>
<polygon fill="none" stroke="black" points="614,-439 614,-530 922,-530 922,-439 614,-439"/>
</a>
</g>
</g>
<!-- ndIpcMsg -->
<g id="node6" class="node"><title>ndIpcMsg</title>
<g id="a_node6_1"><a xlink:href="https://github.com/maidsafe/safe_network/blob/master/src/ipc/mod.rs#:~:text=enum%20IpcMsg" xlink:title="&lt;TABLE&gt;">
<polygon fill="yellow" stroke="none" points="708,-237 708,-274 829,-274 829,-237 708,-237"/>
<polygon fill="none" stroke="black" points="708,-237 708,-274 829,-274 829,-237 708,-237"/>
<text text-anchor="start" x="742.5" y="-252.8" font-family="Arial" font-weight="bold" font-size="14.00">IpcMsg</text>
<polygon fill="white" stroke="none" points="708,-170 708,-237 829,-237 829,-170 708,-170"/>
<polygon fill="none" stroke="black" points="708,-170 708,-237 829,-237 829,-170 708,-170"/>
<text text-anchor="start" x="719" y="-214.8" font-family="Arial" font-size="14.00">Req(IpcReq)</text>
<text text-anchor="start" x="719" y="-199.8" font-family="Arial" font-size="14.00">Resp(IpcResp)</text>
<text text-anchor="start" x="719" y="-184.8" font-family="Arial" font-size="14.00">Err(IpcError)</text>
<polygon fill="none" stroke="black" points="706.5,-169 706.5,-275 829.5,-275 829.5,-169 706.5,-169"/>
</a>
</g>
</g>
<!-- ndIpcResp&#45;&gt;ndIpcMsg -->
<g id="edge1" class="edge"><title>ndIpcResp&#45;&gt;ndIpcMsg</title>
<path fill="none" stroke="black" d="M768,-434.808C768,-394.339 768,-336.295 768,-291.2"/>
<polygon fill="black" stroke="black" points="768,-291.146 764,-285.146 768,-279.146 772,-285.146 768,-291.146"/>
</g>
<!-- ndAuthGranted -->
<g id="node2" class="node"><title>ndAuthGranted</title>
<g id="a_node2_2"><a xlink:href="https://github.com/maidsafe/safe_network/blob/master/src/ipc/resp.rs#:~:text=struct%20AuthGranted" xlink:title="&lt;TABLE&gt;">
<polygon fill="lightblue" stroke="none" points="398,-761.5 398,-798.5 682,-798.5 682,-761.5 398,-761.5"/>
<polygon fill="none" stroke="black" points="398,-761.5 398,-798.5 682,-798.5 682,-761.5 398,-761.5"/>
<text text-anchor="start" x="495.5" y="-777.3" font-family="Arial" font-weight="bold" font-size="14.00">AuthGranted</text>
<polygon fill="white" stroke="none" points="398,-709.5 398,-761.5 682,-761.5 682,-709.5 398,-709.5"/>
<polygon fill="none" stroke="black" points="398,-709.5 398,-761.5 682,-761.5 682,-709.5 398,-709.5"/>
<text text-anchor="start" x="409" y="-739.3" font-family="Arial" font-size="14.00">+ app_keypair: Keypair</text>
<text text-anchor="start" x="409" y="-724.3" font-family="Arial" font-size="14.00">+ bootstrap_config: Option&lt;NodeConfig&gt;</text>
<polygon fill="none" stroke="black" points="397,-709 397,-800 683,-800 683,-709 397,-709"/>
</a>
</g>
</g>
<!-- ndAuthGranted&#45;&gt;ndIpcResp -->
<g id="edge2" class="edge"><title>ndAuthGranted&#45;&gt;ndIpcResp</title>
<path fill="none" stroke="black" d="M581.289,-704.967C619.907,-659.574 677.632,-591.722 718.661,-543.495"/>
<polygon fill="black" stroke="black" points="718.858,-543.264 719.699,-536.102 726.633,-534.124 725.792,-541.286 718.858,-543.264"/>
</g>
<!-- ndSafeAuthenticator -->
<g id="node8" class="node"><title>ndSafeAuthenticator</title>
<g id="a_node8_3"><a xlink:href="https://github.com/maidsafe/safe_network/blob/master/src/authenticator/mod.rs#:~:text=struct%20SafeAuthenticator" xlink:title="&lt;TABLE&gt;">
<polygon fill="lightblue" stroke="none" points="215,-499.5 215,-536.5 579,-536.5 579,-499.5 215,-499.5"/>
<polygon fill="none" stroke="black" points="215,-499.5 215,-536.5 579,-536.5 579,-499.5 215,-499.5"/>
<text text-anchor="start" x="334.5" y="-515.3" font-family="Arial" font-weight="bold" font-size="14.00">SafeAuthenticator</text>
<polygon fill="white" stroke="none" points="215,-432.5 215,-499.5 579,-499.5 579,-432.5 215,-432.5"/>
<polygon fill="none" stroke="black" points="215,-432.5 215,-499.5 579,-499.5 579,-432.5 215,-432.5"/>
<text text-anchor="start" x="226" y="-477.3" font-family="Arial" font-size="14.00">&#45; safe: Option&lt;(Client, RegisterAddress)&gt;</text>
<text text-anchor="start" x="226" y="-462.3" font-family="Arial" font-size="14.00">&#45; config_path: Option&lt;PathBuf&gt;</text>
<text text-anchor="start" x="226" y="-447.3" font-family="Arial" font-size="14.00">&#45; bootstrap_contacts: Option&lt;HashSet&lt;SocketAddr&gt;&gt;</text>
<polygon fill="none" stroke="black" points="214,-431.5 214,-537.5 580,-537.5 580,-431.5 214,-431.5"/>
</a>
</g>
</g>
<!-- ndAuthGranted&#45;&gt;ndSafeAuthenticator -->
<g id="edge3" class="edge"><title>ndAuthGranted&#45;&gt;ndSafeAuthenticator</title>
<path fill="none" stroke="black" d="M514.104,-704.967C491.042,-661.746 457.117,-598.166 431.71,-550.55"/>
<polygon fill="black" stroke="black" points="426.909,-541.553 435.587,-548.257 429.263,-545.964 431.616,-550.375 431.616,-550.375 431.616,-550.375 429.263,-545.964 427.646,-552.494 426.909,-541.553 426.909,-541.553"/>
</g>
<!-- ndIpcReq -->
<g id="node3" class="node"><title>ndIpcReq</title>
<g id="a_node3_4"><a xlink:href="https://github.com/maidsafe/safe_network/blob/master/src/ipc/req.rs#:~:text=enum%20IpcReq" xlink:title="&lt;TABLE&gt;">
<polygon fill="yellow" stroke="none" points="9,-491.5 9,-528.5 179,-528.5 179,-491.5 9,-491.5"/>
<polygon fill="none" stroke="black" points="9,-491.5 9,-528.5 179,-528.5 179,-491.5 9,-491.5"/>
<text text-anchor="start" x="69.5" y="-507.3" font-family="Arial" font-weight="bold" font-size="14.00">IpcReq</text>
<polygon fill="white" stroke="none" points="9,-439.5 9,-491.5 179,-491.5 179,-439.5 9,-439.5"/>
<polygon fill="none" stroke="black" points="9,-439.5 9,-491.5 179,-491.5 179,-439.5 9,-439.5"/>
<text text-anchor="start" x="20" y="-469.3" font-family="Arial" font-size="14.00">Auth(AuthReq)</text>
<text text-anchor="start" x="20" y="-454.3" font-family="Arial" font-size="14.00">Unregistered(Vec&lt;u8&gt;)</text>
<polygon fill="none" stroke="black" points="8,-439 8,-530 180,-530 180,-439 8,-439"/>
</a>
</g>
</g>
<!-- ndIpcReq&#45;&gt;ndIpcMsg -->
<g id="edge4" class="edge"><title>ndIpcReq&#45;&gt;ndIpcMsg</title>
<path fill="none" stroke="black" d="M118.271,-434.914C135.982,-404.458 162.836,-366.942 197,-345 350.016,-246.722 568.987,-226.274 686.327,-222.835"/>
<polygon fill="black" stroke="black" points="686.399,-222.833 692.297,-218.684 698.395,-222.531 692.498,-226.681 686.399,-222.833"/>
</g>
<!-- ndAuthReq -->
<g id="node4" class="node"><title>ndAuthReq</title>
<g id="a_node4_5"><a xlink:href="https://github.com/maidsafe/safe_network/blob/master/src/ipc/req.rs#:~:text=struct%20AuthReq" xlink:title="&lt;TABLE&gt;">
<polygon fill="lightblue" stroke="none" points="164,-776.5 164,-813.5 345,-813.5 345,-776.5 164,-776.5"/>
<polygon fill="none" stroke="black" points="164,-776.5 164,-813.5 345,-813.5 345,-776.5 164,-776.5"/>
<text text-anchor="start" x="224.5" y="-792.3" font-family="Arial" font-weight="bold" font-size="14.00">AuthReq</text>
<polygon fill="white" stroke="none" points="164,-694.5 164,-776.5 345,-776.5 345,-694.5 164,-694.5"/>
<polygon fill="none" stroke="black" points="164,-694.5 164,-776.5 345,-776.5 345,-694.5 164,-694.5"/>
<text text-anchor="start" x="175" y="-754.3" font-family="Arial" font-size="14.00">+ req_id: SafeAuthReqId</text>
<text text-anchor="start" x="175" y="-739.3" font-family="Arial" font-size="14.00">+ app_id: String</text>
<text text-anchor="start" x="175" y="-724.3" font-family="Arial" font-size="14.00">+ app_name: String</text>
<text text-anchor="start" x="175" y="-709.3" font-family="Arial" font-size="14.00">+ app_vendor: String</text>
<polygon fill="none" stroke="black" points="162.5,-694 162.5,-815 345.5,-815 345.5,-694 162.5,-694"/>
</a>
</g>
</g>
<!-- ndAuthReq&#45;&gt;ndIpcReq -->
<g id="edge5" class="edge"><title>ndAuthReq&#45;&gt;ndIpcReq</title>
<path fill="none" stroke="black" d="M216.082,-689.988C189.788,-645.945 155.014,-587.699 129.307,-544.639"/>
<polygon fill="black" stroke="black" points="129.294,-544.618 122.784,-541.517 123.143,-534.315 129.653,-537.416 129.294,-544.618"/>
</g>
<!-- ndAuthReq&#45;&gt;ndSafeAuthenticator -->
<g id="edge6" class="edge"><title>ndAuthReq&#45;&gt;ndSafeAuthenticator</title>
<path fill="none" stroke="black" stroke-dasharray="5,2" d="M287.889,-689.988C310.327,-647.936 339.674,-592.936 362.28,-550.57"/>
<polygon fill="black" stroke="black" points="366.997,-541.73 366.259,-552.671 364.643,-546.141 362.289,-550.553 362.289,-550.553 362.289,-550.553 364.643,-546.141 358.319,-548.434 366.997,-541.73 366.997,-541.73"/>
</g>
<!-- ndIpcError -->
<g id="node5" class="node"><title>ndIpcError</title>
<g id="a_node5_6"><a xlink:href="https://github.com/maidsafe/safe_network/blob/master/src/ipc/errors.rs#:~:text=enum%20IpcError" xlink:title="&lt;TABLE&gt;">
<polygon fill="yellow" stroke="none" points="958,-514.5 958,-551.5 1113,-551.5 1113,-514.5 958,-514.5"/>
<polygon fill="none" stroke="black" points="958,-514.5 958,-551.5 1113,-551.5 1113,-514.5 958,-514.5"/>
<text text-anchor="start" x="1006.5" y="-530.3" font-family="Arial" font-weight="bold" font-size="14.00">IpcError</text>
<polygon fill="white" stroke="none" points="958,-417.5 958,-514.5 1113,-514.5 1113,-417.5 958,-417.5"/>
<polygon fill="none" stroke="black" points="958,-417.5 958,-514.5 1113,-514.5 1113,-417.5 958,-417.5"/>
<text text-anchor="start" x="969" y="-492.3" font-family="Arial" font-size="14.00">AuthDenied</text>
<text text-anchor="start" x="969" y="-477.3" font-family="Arial" font-size="14.00">InvalidMsg</text>
<text text-anchor="start" x="969" y="-462.3" font-family="Arial" font-size="14.00">EncodeDecodeError</text>
<text text-anchor="start" x="969" y="-447.3" font-family="Arial" font-size="14.00">AlreadyAuthorised</text>
<text text-anchor="start" x="969" y="-432.3" font-family="Arial" font-size="14.00">UnknownApp</text>
<polygon fill="none" stroke="black" points="956.5,-416.5 956.5,-552.5 1113.5,-552.5 1113.5,-416.5 956.5,-416.5"/>
</a>
</g>
</g>
<!-- ndIpcError&#45;&gt;ndIpcMsg -->
<g id="edge7" class="edge"><title>ndIpcError&#45;&gt;ndIpcMsg</title>
<path fill="none" stroke="black" d="M992.49,-412.253C977.156,-389.47 958.725,-364.994 939,-345 911.963,-317.593 878.146,-292.044 847.739,-271.481"/>
<polygon fill="black" stroke="black" points="847.557,-271.359 840.345,-271.359 837.572,-264.703 844.783,-264.703 847.557,-271.359"/>
</g>
<!-- ndError -->
<g id="node7" class="node"><title>ndError</title>
<g id="a_node7_7"><a xlink:href="https://github.com/maidsafe/safe_network/blob/master/src/url/errors.rs#:~:text=enum%20Error" xlink:title="&lt;TABLE&gt;">
<polygon fill="yellow" stroke="none" points="925,-237 925,-274 1145,-274 1145,-237 925,-237"/>
<polygon fill="none" stroke="black" points="925,-237 925,-274 1145,-274 1145,-237 925,-237"/>
<text text-anchor="start" x="1016.5" y="-252.8" font-family="Arial" font-weight="bold" font-size="14.00">Error</text>
<polygon fill="white" stroke="none" points="925,-170 925,-237 1145,-237 1145,-170 925,-170"/>
<polygon fill="none" stroke="black" points="925,-170 925,-237 1145,-237 1145,-170 925,-170"/>
<text text-anchor="start" x="936" y="-214.8" font-family="Arial" font-size="14.00">InvalidXorUrl(String)</text>
<text text-anchor="start" x="936" y="-199.8" font-family="Arial" font-size="14.00">InvalidInput(String)</text>
<text text-anchor="start" x="936" y="-184.8" font-family="Arial" font-size="14.00">UnsupportedMediaType(String)</text>
<polygon fill="none" stroke="black" points="924,-169 924,-275 1146,-275 1146,-169 924,-169"/>
</a>
</g>
</g>
<!-- ndIpcError&#45;&gt;ndError -->
<g id="edge8" class="edge"><title>ndIpcError&#45;&gt;ndError</title>
<path fill="none" stroke="black" d="M1035,-412.317C1035,-374.692 1035,-328.723 1035,-291.505"/>
<polygon fill="black" stroke="black" points="1035,-291.244 1031,-285.244 1035,-279.244 1039,-285.244 1035,-291.244"/>
</g>
<!-- ndSafeAppClient -->
<g id="node9" class="node"><title>ndSafeAppClient</title>
<g id="a_node9_8"><a xlink:href="https://github.com/maidsafe/safe_network/blob/master/src/app/safe_client.rs#:~:text=struct%20SafeAppClient" xlink:title="&lt;TABLE&gt;">
<polygon fill="lightblue" stroke="none" points="1182,-237 1182,-274 1403,-274 1403,-237 1182,-237"/>
<polygon fill="none" stroke="black" points="1182,-237 1182,-274 1403,-274 1403,-237 1182,-237"/>
<text text-anchor="start" x="1243" y="-252.8" font-family="Arial" font-weight="bold" font-size="14.00">SafeAppClient</text>
<polygon fill="white" stroke="none" points="1182,-170 1182,-237 1403,-237 1403,-170 1182,-170"/>
<polygon fill="none" stroke="black" points="1182,-170 1182,-237 1403,-237 1403,-170 1182,-170"/>
<text text-anchor="start" x="1193" y="-214.8" font-family="Arial" font-size="14.00">&#45; safe_client: Option&lt;Client&gt;</text>
<text text-anchor="start" x="1193" y="-199.8" font-family="Arial" font-size="14.00">&#45; config_path: Option&lt;PathBuf&gt;</text>
<text text-anchor="start" x="1193" y="-184.8" font-family="Arial" font-size="14.00">&#45; timeout: Duration</text>
<polygon fill="none" stroke="black" points="1180.5,-169 1180.5,-275 1403.5,-275 1403.5,-169 1180.5,-169"/>
</a>
</g>
</g>
<!-- ndSafe -->
<g id="node13" class="node"><title>ndSafe</title>
<g id="a_node13_9"><a xlink:href="https://github.com/maidsafe/safe_network/blob/master/src/app/mod.rs#:~:text=struct%20Safe" xlink:title="&lt;TABLE&gt;">
<polygon fill="lightblue" stroke="none" points="1456,-56.5 1456,-93.5 1656,-93.5 1656,-56.5 1456,-56.5"/>
<polygon fill="none" stroke="black" points="1456,-56.5 1456,-93.5 1656,-93.5 1656,-56.5 1456,-56.5"/>
<text text-anchor="start" x="1540.5" y="-72.3" font-family="Arial" font-weight="bold" font-size="14.00">Safe</text>
<polygon fill="white" stroke="none" points="1456,-4.5 1456,-56.5 1656,-56.5 1656,-4.5 1456,-4.5"/>
<polygon fill="none" stroke="black" points="1456,-4.5 1456,-56.5 1656,-56.5 1656,-4.5 1456,-4.5"/>
<text text-anchor="start" x="1467" y="-34.3" font-family="Arial" font-size="14.00">&#45; safe_client: SafeAppClient</text>
<text text-anchor="start" x="1467" y="-19.3" font-family="Arial" font-size="14.00">+ xorurl_base: XorUrlBase</text>
<polygon fill="none" stroke="black" points="1455,-4 1455,-95 1657,-95 1657,-4 1455,-4"/>
</a>
</g>
</g>
<!-- ndSafeAppClient&#45;&gt;ndSafe -->
<g id="edge9" class="edge"><title>ndSafeAppClient&#45;&gt;ndSafe</title>
<path fill="none" stroke="black" d="M1378.81,-164.936C1408.25,-145.922 1441.1,-124.705 1470.45,-105.754"/>
<polygon fill="black" stroke="black" points="1470.59,-105.663 1473.46,-99.048 1480.67,-99.153 1477.8,-105.768 1470.59,-105.663"/>
</g>
<!-- ndGetAttr -->
<g id="node10" class="node"><title>ndGetAttr</title>
<g id="a_node10_10"><a xlink:href="https://github.com/maidsafe/safe_network/blob/master/src/app/files/files_map.rs#:~:text=trait%20GetAttr" xlink:title="&lt;TABLE&gt;">
<polygon fill="lightgreen" stroke="none" points="2047,-735.5 2047,-772.5 2118,-772.5 2118,-735.5 2047,-735.5"/>
<polygon fill="none" stroke="black" points="2047,-735.5 2047,-772.5 2118,-772.5 2118,-735.5 2047,-735.5"/>
<text text-anchor="start" x="2058" y="-751.3" font-family="Arial" font-weight="bold" font-size="14.00">GetAttr</text>
<polygon fill="none" stroke="black" points="2045.5,-735 2045.5,-774 2118.5,-774 2118.5,-735 2045.5,-735"/>
</a>
</g>
</g>
<!-- ndFileMeta -->
<g id="node11" class="node"><title>ndFileMeta</title>
<g id="a_node11_11"><a xlink:href="https://github.com/maidsafe/safe_network/blob/master/src/app/files/metadata.rs#:~:text=struct%20FileMeta" xlink:title="&lt;TABLE&gt;">
<polygon fill="lightblue" stroke="none" points="2154,-806.5 2154,-843.5 2396,-843.5 2396,-806.5 2154,-806.5"/>
<polygon fill="none" stroke="black" points="2154,-806.5 2154,-843.5 2396,-843.5 2396,-806.5 2154,-806.5"/>
<text text-anchor="start" x="2245.5" y="-822.3" font-family="Arial" font-weight="bold" font-size="14.00">FileMeta</text>
<polygon fill="white" stroke="none" points="2154,-664.5 2154,-806.5 2396,-806.5 2396,-664.5 2154,-664.5"/>
<polygon fill="none" stroke="black" points="2154,-664.5 2154,-806.5 2396,-806.5 2396,-664.5 2154,-664.5"/>
<text text-anchor="start" x="2165" y="-784.3" font-family="Arial" font-size="14.00">&#45; created: String</text>
<text text-anchor="start" x="2165" y="-769.3" font-family="Arial" font-size="14.00">&#45; modified: String</text>
<text text-anchor="start" x="2165" y="-754.3" font-family="Arial" font-size="14.00">&#45; file_size: String</text>
<text text-anchor="start" x="2165" y="-739.3" font-family="Arial" font-size="14.00">&#45; file_type: String</text>
<text text-anchor="start" x="2165" y="-724.3" font-family="Arial" font-size="14.00">&#45; readonly: Option&lt;String&gt;</text>
<text text-anchor="start" x="2165" y="-709.3" font-family="Arial" font-size="14.00">&#45; mode_bits: Option&lt;String&gt;</text>
<text text-anchor="start" x="2165" y="-694.3" font-family="Arial" font-size="14.00">&#45; original_created: Option&lt;String&gt;</text>
<text text-anchor="start" x="2165" y="-679.3" font-family="Arial" font-size="14.00">&#45; original_modified: Option&lt;String&gt;</text>
<polygon fill="none" stroke="black" points="2153,-664 2153,-845 2397,-845 2397,-664 2153,-664"/>
</a>
</g>
</g>
<!-- ndRealPath -->
<g id="node12" class="node"><title>ndRealPath</title>
<g id="a_node12_12"><a xlink:href="https://github.com/maidsafe/safe_network/blob/master/src/app/files/realpath.rs#:~:text=trait%20RealPath" xlink:title="&lt;TABLE&gt;">
<polygon fill="lightgreen" stroke="none" points="2432,-735.5 2432,-772.5 2516,-772.5 2516,-735.5 2432,-735.5"/>
<polygon fill="none" stroke="black" points="2432,-735.5 2432,-772.5 2516,-772.5 2516,-735.5 2432,-735.5"/>
<text text-anchor="start" x="2443" y="-751.3" font-family="Arial" font-weight="bold" font-size="14.00">RealPath</text>
<polygon fill="none" stroke="black" points="2431,-735 2431,-774 2517,-774 2517,-735 2431,-735"/>
</a>
</g>
</g>
<!-- ndNrsMap -->
<g id="node14" class="node"><title>ndNrsMap</title>
<g id="a_node14_13"><a xlink:href="https://github.com/maidsafe/safe_network/blob/master/src/app/nrs/nrs_map.rs#:~:text=struct%20NrsMap" xlink:title="&lt;TABLE&gt;">
<polygon fill="lightblue" stroke="none" points="1515,-222 1515,-259 1755,-259 1755,-222 1515,-222"/>
<polygon fill="none" stroke="black" points="1515,-222 1515,-259 1755,-259 1755,-222 1515,-222"/>
<text text-anchor="start" x="1607.5" y="-237.8" font-family="Arial" font-weight="bold" font-size="14.00">NrsMap</text>
<polygon fill="white" stroke="none" points="1515,-185 1515,-222 1755,-222 1755,-185 1515,-185"/>
<polygon fill="none" stroke="black" points="1515,-185 1515,-222 1755,-222 1755,-185 1515,-185"/>
<text text-anchor="start" x="1526" y="-199.8" font-family="Arial" font-size="14.00">+ map: BTreeMap&lt;SubName, Url&gt;</text>
<polygon fill="none" stroke="black" points="1514,-184 1514,-260 1756,-260 1756,-184 1514,-184"/>
</a>
</g>
</g>
<!-- ndNrsMap&#45;&gt;ndSafe -->
<g id="edge10" class="edge"><title>ndNrsMap&#45;&gt;ndSafe</title>
<path fill="none" stroke="black" stroke-dasharray="5,2" d="M1615.88,-179.727C1605.96,-158.323 1593.68,-131.827 1582.83,-108.41"/>
<polygon fill="black" stroke="black" points="1578.6,-99.2657 1586.88,-106.447 1580.7,-103.802 1582.8,-108.339 1582.8,-108.339 1582.8,-108.339 1580.7,-103.802 1578.72,-110.231 1578.6,-99.2657 1578.6,-99.2657"/>
</g>
<!-- ndSafeData -->
<g id="node15" class="node"><title>ndSafeData</title>
<g id="a_node15_14"><a xlink:href="https://github.com/maidsafe/safe_network/blob/master/src/app/resolver/mod.rs#:~:text=enum%20SafeData" xlink:title="&lt;TABLE&gt;">
<polygon fill="yellow" stroke="none" points="1791,-267 1791,-304 1923,-304 1923,-267 1791,-267"/>
<polygon fill="none" stroke="black" points="1791,-267 1791,-304 1923,-304 1923,-267 1791,-267"/>
<text text-anchor="start" x="1825.5" y="-282.8" font-family="Arial" font-weight="bold" font-size="14.00">SafeData</text>
<polygon fill="white" stroke="none" points="1791,-140 1791,-267 1923,-267 1923,-140 1791,-140"/>
<polygon fill="none" stroke="black" points="1791,-140 1791,-267 1923,-267 1923,-140 1791,-140"/>
<text text-anchor="start" x="1802" y="-244.8" font-family="Arial" font-size="14.00">SafeKey</text>
<text text-anchor="start" x="1802" y="-229.8" font-family="Arial" font-size="14.00">FilesContainer</text>
<text text-anchor="start" x="1802" y="-214.8" font-family="Arial" font-size="14.00">PublicBlob</text>
<text text-anchor="start" x="1802" y="-199.8" font-family="Arial" font-size="14.00">NrsMapContainer</text>
<text text-anchor="start" x="1802" y="-184.8" font-family="Arial" font-size="14.00">Multimap</text>
<text text-anchor="start" x="1802" y="-169.8" font-family="Arial" font-size="14.00">PublicRegister</text>
<text text-anchor="start" x="1802" y="-154.8" font-family="Arial" font-size="14.00">PrivateRegister</text>
<polygon fill="none" stroke="black" points="1790,-139 1790,-305 1924,-305 1924,-139 1790,-139"/>
</a>
</g>
</g>
<!-- ndSafeData&#45;&gt;ndSafe -->
<g id="edge11" class="edge"><title>ndSafeData&#45;&gt;ndSafe</title>
<path fill="none" stroke="black" d="M1781.8,-141.205C1778.9,-139.033 1775.96,-136.957 1773,-135 1743.15,-115.262 1708,-99.0714 1674.78,-86.3347"/>
<polygon fill="black" stroke="black" points="1665.01,-82.6638 1675.96,-81.9675 1669.69,-84.4219 1674.37,-86.1801 1674.37,-86.1801 1674.37,-86.1801 1669.69,-84.4219 1672.79,-90.3927 1665.01,-82.6638 1665.01,-82.6638"/>
</g>
<!-- ndAuthdStatus -->
<g id="node16" class="node"><title>ndAuthdStatus</title>
<g id="a_node16_15"><a xlink:href="https://github.com/maidsafe/safe_network/blob/master/src/authd_client/authd_client_api.rs#:~:text=struct%20AuthdStatus" xlink:title="&lt;TABLE&gt;">
<polygon fill="lightblue" stroke="none" points="2552,-776.5 2552,-813.5 2719,-813.5 2719,-776.5 2552,-776.5"/>
<polygon fill="none" stroke="black" points="2552,-776.5 2552,-813.5 2719,-813.5 2719,-776.5 2552,-776.5"/>
<text text-anchor="start" x="2592.5" y="-792.3" font-family="Arial" font-weight="bold" font-size="14.00">AuthdStatus</text>
<polygon fill="white" stroke="none" points="2552,-694.5 2552,-776.5 2719,-776.5 2719,-694.5 2552,-694.5"/>
<polygon fill="none" stroke="black" points="2552,-694.5 2552,-776.5 2719,-776.5 2719,-694.5 2552,-694.5"/>
<text text-anchor="start" x="2563" y="-754.3" font-family="Arial" font-size="14.00">+ safe_unlocked: bool</text>
<text text-anchor="start" x="2563" y="-739.3" font-family="Arial" font-size="14.00">+ num_auth_reqs: u32</text>
<text text-anchor="start" x="2563" y="-724.3" font-family="Arial" font-size="14.00">+ num_notif_subs: u32</text>
<text text-anchor="start" x="2563" y="-709.3" font-family="Arial" font-size="14.00">+ authd_version: String</text>
<polygon fill="none" stroke="black" points="2550.5,-694 2550.5,-815 2719.5,-815 2719.5,-694 2550.5,-694"/>
</a>
</g>
</g>
<!-- ndSafeAuthdClient -->
<g id="node17" class="node"><title>ndSafeAuthdClient</title>
<g id="a_node17_16"><a xlink:href="https://github.com/maidsafe/safe_network/blob/master/src/authd_client/authd_client_api.rs#:~:text=struct%20SafeAuthdClient" xlink:title="&lt;TABLE&gt;">
<polygon fill="lightblue" stroke="none" points="2361,-491.5 2361,-528.5 2910,-528.5 2910,-491.5 2361,-491.5"/>
<polygon fill="none" stroke="black" points="2361,-491.5 2361,-528.5 2910,-528.5 2910,-491.5 2361,-491.5"/>
<text text-anchor="start" x="2579.5" y="-507.3" font-family="Arial" font-weight="bold" font-size="14.00">SafeAuthdClient</text>
<polygon fill="white" stroke="none" points="2361,-439.5 2361,-491.5 2910,-491.5 2910,-439.5 2361,-439.5"/>
<polygon fill="none" stroke="black" points="2361,-439.5 2361,-491.5 2910,-491.5 2910,-439.5 2361,-439.5"/>
<text text-anchor="start" x="2372" y="-469.3" font-family="Arial" font-size="14.00">+ authd_endpoint: String</text>
<text text-anchor="start" x="2372" y="-454.3" font-family="Arial" font-size="14.00">&#45; subscribed_endpoint: Option&lt;(String, task::JoinHandle&lt;()&gt;, task::JoinHandle&lt;()&gt;)&gt;</text>
<polygon fill="none" stroke="black" points="2359.5,-439 2359.5,-530 2910.5,-530 2910.5,-439 2359.5,-439"/>
</a>
</g>
</g>
<!-- ndAuthdStatus&#45;&gt;ndSafeAuthdClient -->
<g id="edge12" class="edge"><title>ndAuthdStatus&#45;&gt;ndSafeAuthdClient</title>
<path fill="none" stroke="black" d="M2635,-689.988C2635,-645.852 2635,-587.453 2635,-544.367"/>
<polygon fill="black" stroke="black" points="2635,-534.315 2639.5,-544.314 2635,-539.315 2635,-544.315 2635,-544.315 2635,-544.315 2635,-539.315 2630.5,-544.315 2635,-534.315 2635,-534.315"/>
</g>
<!-- ndVersionHashError -->
<g id="node18" class="node"><title>ndVersionHashError</title>
<g id="a_node18_17"><a xlink:href="https://github.com/maidsafe/safe_network/blob/master/src/url/version_hash.rs#:~:text=enum%20VersionHashError" xlink:title="&lt;TABLE&gt;">
<polygon fill="yellow" stroke="none" points="2754,-769.5 2754,-806.5 2978,-806.5 2978,-769.5 2754,-769.5"/>
<polygon fill="none" stroke="black" points="2754,-769.5 2754,-806.5 2978,-806.5 2978,-769.5 2754,-769.5"/>
<text text-anchor="start" x="2803" y="-785.3" font-family="Arial" font-weight="bold" font-size="14.00">VersionHashError</text>
<polygon fill="white" stroke="none" points="2754,-702.5 2754,-769.5 2978,-769.5 2978,-702.5 2754,-702.5"/>
<polygon fill="none" stroke="black" points="2754,-702.5 2754,-769.5 2978,-769.5 2978,-702.5 2754,-702.5"/>
<text text-anchor="start" x="2765" y="-747.3" font-family="Arial" font-size="14.00">DecodingError(multibase::Error)</text>
<text text-anchor="start" x="2765" y="-732.3" font-family="Arial" font-size="14.00">InvalidHashLength</text>
<text text-anchor="start" x="2765" y="-717.3" font-family="Arial" font-size="14.00">InvalidEncoding</text>
<polygon fill="none" stroke="black" points="2753,-701.5 2753,-807.5 2979,-807.5 2979,-701.5 2753,-701.5"/>
</a>
</g>
</g>
<!-- ndVersionHash -->
<g id="node19" class="node"><title>ndVersionHash</title>
<g id="a_node19_18"><a xlink:href="https://github.com/maidsafe/safe_network/blob/master/src/url/version_hash.rs#:~:text=struct%20VersionHash" xlink:title="&lt;TABLE&gt;">
<polygon fill="lightblue" stroke="none" points="1288,-754.5 1288,-791.5 1460,-791.5 1460,-754.5 1288,-754.5"/>
<polygon fill="none" stroke="black" points="1288,-754.5 1288,-791.5 1460,-791.5 1460,-754.5 1288,-754.5"/>
<text text-anchor="start" x="1329.5" y="-770.3" font-family="Arial" font-weight="bold" font-size="14.00">VersionHash</text>
<polygon fill="white" stroke="none" points="1288,-717.5 1288,-754.5 1460,-754.5 1460,-717.5 1288,-717.5"/>
<polygon fill="none" stroke="black" points="1288,-717.5 1288,-754.5 1460,-754.5 1460,-717.5 1288,-717.5"/>
<text text-anchor="start" x="1299" y="-732.3" font-family="Arial" font-size="14.00">&#45; entry_hash: EntryHash</text>
<polygon fill="none" stroke="black" points="1287,-716.5 1287,-792.5 1461,-792.5 1461,-716.5 1287,-716.5"/>
</a>
</g>
</g>
<!-- ndVersionHash&#45;&gt;ndSafe -->
<g id="edge13" class="edge"><title>ndVersionHash&#45;&gt;ndSafe</title>
<path fill="none" stroke="black" d="M1377.31,-712.379C1387.57,-591.174 1421.29,-237.412 1473,-135 1478.02,-125.062 1484.63,-115.548 1491.93,-106.723"/>
<polygon fill="black" stroke="black" points="1498.5,-99.1522 1495.34,-109.654 1495.22,-102.928 1491.94,-106.704 1491.94,-106.704 1491.94,-106.704 1495.22,-102.928 1488.54,-103.754 1498.5,-99.1522 1498.5,-99.1522"/>
</g>
<!-- ndUrl -->
<g id="node24" class="node"><title>ndUrl</title>
<g id="a_node24_19"><a xlink:href="https://github.com/maidsafe/safe_network/blob/master/src/url/mod.rs#:~:text=struct%20Url" xlink:title="&lt;TABLE&gt;">
<polygon fill="lightblue" stroke="none" points="1536,-581.5 1536,-618.5 1814,-618.5 1814,-581.5 1536,-581.5"/>
<polygon fill="none" stroke="black" points="1536,-581.5 1536,-618.5 1814,-618.5 1814,-581.5 1536,-581.5"/>
<text text-anchor="start" x="1665" y="-597.3" font-family="Arial" font-weight="bold" font-size="14.00">Url</text>
<polygon fill="white" stroke="none" points="1536,-349.5 1536,-581.5 1814,-581.5 1814,-349.5 1536,-349.5"/>
<polygon fill="none" stroke="black" points="1536,-349.5 1536,-581.5 1814,-581.5 1814,-349.5 1536,-349.5"/>
<text text-anchor="start" x="1547" y="-559.3" font-family="Arial" font-size="14.00">&#45; encoding_version: u64</text>
<text text-anchor="start" x="1547" y="-544.3" font-family="Arial" font-size="14.00">&#45; public_name: String</text>
<text text-anchor="start" x="1547" y="-529.3" font-family="Arial" font-size="14.00">&#45; top_name: String</text>
<text text-anchor="start" x="1547" y="-514.3" font-family="Arial" font-size="14.00">&#45; sub_names: String</text>
<text text-anchor="start" x="1547" y="-499.3" font-family="Arial" font-size="14.00">&#45; sub_names_vec: Vec&lt;String&gt;</text>
<text text-anchor="start" x="1547" y="-484.3" font-family="Arial" font-size="14.00">&#45; type_tag: u64</text>
<text text-anchor="start" x="1547" y="-469.3" font-family="Arial" font-size="14.00">&#45; address: DataAddress</text>
<text text-anchor="start" x="1547" y="-454.3" font-family="Arial" font-size="14.00">&#45; content_type: ContentType</text>
<text text-anchor="start" x="1547" y="-439.3" font-family="Arial" font-size="14.00">&#45; content_type_u16: u16</text>
<text text-anchor="start" x="1547" y="-424.3" font-family="Arial" font-size="14.00">&#45; path: String</text>
<text text-anchor="start" x="1547" y="-409.3" font-family="Arial" font-size="14.00">&#45; query_string: String</text>
<text text-anchor="start" x="1547" y="-394.3" font-family="Arial" font-size="14.00">&#45; fragment: String</text>
<text text-anchor="start" x="1547" y="-379.3" font-family="Arial" font-size="14.00">&#45; content_version: Option&lt;VersionHash&gt;</text>
<text text-anchor="start" x="1547" y="-364.3" font-family="Arial" font-size="14.00">&#45; url_type: UrlType</text>
<polygon fill="none" stroke="black" points="1535,-349 1535,-620 1815,-620 1815,-349 1535,-349"/>
</a>
</g>
</g>
<!-- ndVersionHash&#45;&gt;ndUrl -->
<g id="edge14" class="edge"><title>ndVersionHash&#45;&gt;ndUrl</title>
<path fill="none" stroke="black" d="M1419.5,-712.465C1437.67,-696.111 1458.8,-677.136 1478,-660 1490.88,-648.507 1504.25,-636.605 1517.68,-624.666"/>
<polygon fill="black" stroke="black" points="1518.01,-624.369 1519.84,-617.394 1526.99,-616.399 1525.16,-623.374 1518.01,-624.369"/>
</g>
<!-- ndXorUrlBase -->
<g id="node20" class="node"><title>ndXorUrlBase</title>
<g id="a_node20_20"><a xlink:href="https://github.com/maidsafe/safe_network/blob/master/src/url/mod.rs#:~:text=enum%20XorUrlBase" xlink:title="&lt;TABLE&gt;">
<polygon fill="yellow" stroke="none" points="1909,-769.5 1909,-806.5 2011,-806.5 2011,-769.5 1909,-769.5"/>
<polygon fill="none" stroke="black" points="1909,-769.5 1909,-806.5 2011,-806.5 2011,-769.5 1909,-769.5"/>
<text text-anchor="start" x="1920" y="-785.3" font-family="Arial" font-weight="bold" font-size="14.00">XorUrlBase</text>
<polygon fill="white" stroke="none" points="1909,-702.5 1909,-769.5 2011,-769.5 2011,-702.5 1909,-702.5"/>
<polygon fill="none" stroke="black" points="1909,-702.5 1909,-769.5 2011,-769.5 2011,-702.5 1909,-702.5"/>
<text text-anchor="start" x="1920" y="-747.3" font-family="Arial" font-size="14.00">Base32z</text>
<text text-anchor="start" x="1920" y="-732.3" font-family="Arial" font-size="14.00">Base32</text>
<text text-anchor="start" x="1920" y="-717.3" font-family="Arial" font-size="14.00">Base64</text>
<polygon fill="none" stroke="black" points="1908,-701.5 1908,-807.5 2012,-807.5 2012,-701.5 1908,-701.5"/>
</a>
</g>
</g>
<!-- ndXorUrlBase&#45;&gt;ndSafe -->
<g id="edge15" class="edge"><title>ndXorUrlBase&#45;&gt;ndSafe</title>
<path fill="none" stroke="black" d="M1978.57,-697.397C2014.08,-578.45 2076.67,-298.475 1941,-135 1907.67,-94.8351 1777.35,-72.5332 1677.47,-61.0675"/>
<polygon fill="black" stroke="black" points="1677.37,-61.0569 1670.97,-64.3649 1665.45,-59.7225 1671.86,-56.4145 1677.37,-61.0569"/>
</g>
<!-- ndXorUrlBase&#45;&gt;ndUrl -->
<g id="edge16" class="edge"><title>ndXorUrlBase&#45;&gt;ndUrl</title>
<path fill="none" stroke="black" stroke-dasharray="5,2" d="M1921.44,-697.286C1911.74,-684.534 1900.96,-671.401 1890,-660 1871.75,-641.02 1851.47,-622.174 1830.85,-604.272"/>
<polygon fill="black" stroke="black" points="1823.25,-597.721 1833.76,-600.838 1827.04,-600.985 1830.83,-604.248 1830.83,-604.248 1830.83,-604.248 1827.04,-600.985 1827.89,-607.657 1823.25,-597.721 1823.25,-597.721"/>
</g>
<!-- ndContentType -->
<g id="node21" class="node"><title>ndContentType</title>
<g id="a_node21_21"><a xlink:href="https://github.com/maidsafe/safe_network/blob/master/src/url/mod.rs#:~:text=enum%20ContentType" xlink:title="&lt;TABLE&gt;">
<polygon fill="yellow" stroke="none" points="1496,-791.5 1496,-828.5 1634,-828.5 1634,-791.5 1496,-791.5"/>
<polygon fill="none" stroke="black" points="1496,-791.5 1496,-828.5 1634,-828.5 1634,-791.5 1496,-791.5"/>
<text text-anchor="start" x="1520" y="-807.3" font-family="Arial" font-weight="bold" font-size="14.00">ContentType</text>
<polygon fill="white" stroke="none" points="1496,-679.5 1496,-791.5 1634,-791.5 1634,-679.5 1496,-679.5"/>
<polygon fill="none" stroke="black" points="1496,-679.5 1496,-791.5 1634,-791.5 1634,-679.5 1496,-679.5"/>
<text text-anchor="start" x="1507" y="-769.3" font-family="Arial" font-size="14.00">Raw</text>
<text text-anchor="start" x="1507" y="-754.3" font-family="Arial" font-size="14.00">Wallet</text>
<text text-anchor="start" x="1507" y="-739.3" font-family="Arial" font-size="14.00">FilesContainer</text>
<text text-anchor="start" x="1507" y="-724.3" font-family="Arial" font-size="14.00">NrsMapContainer</text>
<text text-anchor="start" x="1507" y="-709.3" font-family="Arial" font-size="14.00">Multimap</text>
<text text-anchor="start" x="1507" y="-694.3" font-family="Arial" font-size="14.00">MediaType(String)</text>
<polygon fill="none" stroke="black" points="1495,-679 1495,-830 1635,-830 1635,-679 1495,-679"/>
</a>
</g>
</g>
<!-- ndContentType&#45;&gt;ndUrl -->
<g id="edge17" class="edge"><title>ndContentType&#45;&gt;ndUrl</title>
<path fill="none" stroke="black" stroke-dasharray="5,2" d="M1597.26,-674.902C1602.41,-662.353 1607.88,-649.017 1613.45,-635.46"/>
<polygon fill="black" stroke="black" points="1613.58,-635.134 1612.16,-628.064 1618.14,-624.032 1619.56,-631.102 1613.58,-635.134"/>
</g>
<!-- ndDataType -->
<g id="node22" class="node"><title>ndDataType</title>
<g id="a_node22_22"><a xlink:href="https://github.com/maidsafe/safe_network/blob/master/src/url/mod.rs#:~:text=enum%20DataType" xlink:title="&lt;TABLE&gt;">
<polygon fill="yellow" stroke="none" points="1671,-769.5 1671,-806.5 1760,-806.5 1760,-769.5 1671,-769.5"/>
<polygon fill="none" stroke="black" points="1671,-769.5 1671,-806.5 1760,-806.5 1760,-769.5 1671,-769.5"/>
<text text-anchor="start" x="1682" y="-785.3" font-family="Arial" font-weight="bold" font-size="14.00">DataType</text>
<polygon fill="white" stroke="none" points="1671,-702.5 1671,-769.5 1760,-769.5 1760,-702.5 1671,-702.5"/>
<polygon fill="none" stroke="black" points="1671,-702.5 1671,-769.5 1760,-769.5 1760,-702.5 1671,-702.5"/>
<text text-anchor="start" x="1682" y="-747.3" font-family="Arial" font-size="14.00">SafeKey</text>
<text text-anchor="start" x="1682" y="-732.3" font-family="Arial" font-size="14.00">Bytes</text>
<text text-anchor="start" x="1682" y="-717.3" font-family="Arial" font-size="14.00">Register</text>
<polygon fill="none" stroke="black" points="1669.5,-701.5 1669.5,-807.5 1760.5,-807.5 1760.5,-701.5 1669.5,-701.5"/>
</a>
</g>
</g>
<!-- ndDataType&#45;&gt;ndUrl -->
<g id="edge18" class="edge"><title>ndDataType&#45;&gt;ndUrl</title>
<path fill="none" stroke="black" d="M1706.61,-697.318C1703.81,-678.533 1700.54,-656.625 1697.19,-634.161"/>
<polygon fill="black" stroke="black" points="1695.7,-624.16 1701.62,-633.386 1696.43,-629.105 1697.17,-634.051 1697.17,-634.051 1697.17,-634.051 1696.43,-629.105 1692.72,-634.715 1695.7,-624.16 1695.7,-624.16"/>
</g>
<!-- ndUrlType -->
<g id="node23" class="node"><title>ndUrlType</title>
<g id="a_node23_23"><a xlink:href="https://github.com/maidsafe/safe_network/blob/master/src/url/mod.rs#:~:text=enum%20UrlType" xlink:title="&lt;TABLE&gt;">
<polygon fill="yellow" stroke="none" points="1796,-761.5 1796,-798.5 1873,-798.5 1873,-761.5 1796,-761.5"/>
<polygon fill="none" stroke="black" points="1796,-761.5 1796,-798.5 1873,-798.5 1873,-761.5 1796,-761.5"/>
<text text-anchor="start" x="1807" y="-777.3" font-family="Arial" font-weight="bold" font-size="14.00">UrlType</text>
<polygon fill="white" stroke="none" points="1796,-709.5 1796,-761.5 1873,-761.5 1873,-709.5 1796,-709.5"/>
<polygon fill="none" stroke="black" points="1796,-709.5 1796,-761.5 1873,-761.5 1873,-709.5 1796,-709.5"/>
<text text-anchor="start" x="1807" y="-739.3" font-family="Arial" font-size="14.00">XorUrl</text>
<text text-anchor="start" x="1807" y="-724.3" font-family="Arial" font-size="14.00">NrsUrl</text>
<polygon fill="none" stroke="black" points="1794.5,-709 1794.5,-800 1873.5,-800 1873.5,-709 1794.5,-709"/>
</a>
</g>
</g>
<!-- ndUrlType&#45;&gt;ndUrl -->
<g id="edge19" class="edge"><title>ndUrlType&#45;&gt;ndUrl</title>
<path fill="none" stroke="black" d="M1805.21,-704.967C1793.21,-684.75 1778.57,-660.077 1763.5,-634.668"/>
<polygon fill="black" stroke="black" points="1763.37,-634.453 1756.87,-631.334 1757.25,-624.133 1763.75,-627.252 1763.37,-634.453"/>
</g>
<!-- ndUrl&#45;&gt;ndSafe -->
<g id="edge20" class="edge"><title>ndUrl&#45;&gt;ndSafe</title>
<path fill="none" stroke="black" stroke-dasharray="5,2" d="M1526.94,-359.871C1514.93,-343.989 1504.54,-326.954 1497,-309 1467.05,-237.701 1473.79,-208.77 1497,-135 1499.94,-125.655 1504.32,-116.443 1509.39,-107.733"/>
<polygon fill="black" stroke="black" points="1514.66,-99.2051 1513.23,-110.077 1512.04,-103.458 1509.41,-107.71 1509.41,-107.71 1509.41,-107.71 1512.04,-103.458 1505.58,-105.344 1514.66,-99.2051 1514.66,-99.2051"/>
</g>
<!-- ndUrl&#45;&gt;ndNrsMap -->
<g id="edge21" class="edge"><title>ndUrl&#45;&gt;ndNrsMap</title>
<path fill="none" stroke="black" stroke-dasharray="5,2" d="M1653.71,-344.86C1649.83,-319.601 1646.02,-294.765 1642.86,-274.172"/>
<polygon fill="black" stroke="black" points="1641.31,-264.116 1647.28,-273.318 1642.07,-269.058 1642.83,-274.001 1642.83,-274.001 1642.83,-274.001 1642.07,-269.058 1638.38,-274.684 1641.31,-264.116 1641.31,-264.116"/>
</g>
<!-- ndUrl&#45;&gt;ndSafeData -->
<g id="edge22" class="edge"><title>ndUrl&#45;&gt;ndSafeData</title>
<path fill="none" stroke="black" d="M1771.86,-344.86C1778.29,-335.652 1784.69,-326.5 1790.91,-317.59"/>
<polygon fill="black" stroke="black" points="1796.83,-309.127 1794.79,-319.901 1793.96,-313.225 1791.1,-317.324 1791.1,-317.324 1791.1,-317.324 1793.96,-313.225 1787.41,-314.747 1796.83,-309.127 1796.83,-309.127"/>
</g>
<!-- ndUrlParts -->
<g id="node25" class="node"><title>ndUrlParts</title>
<g id="a_node25_24"><a xlink:href="https://github.com/maidsafe/safe_network/blob/master/src/url/url_parts.rs#:~:text=struct%20UrlParts" xlink:title="&lt;TABLE&gt;">
<polygon fill="lightblue" stroke="none" points="3015,-806.5 3015,-843.5 3236,-843.5 3236,-806.5 3015,-806.5"/>
<polygon fill="none" stroke="black" points="3015,-806.5 3015,-843.5 3236,-843.5 3236,-806.5 3015,-806.5"/>
<text text-anchor="start" x="3097" y="-822.3" font-family="Arial" font-weight="bold" font-size="14.00">UrlParts</text>
<polygon fill="white" stroke="none" points="3015,-664.5 3015,-806.5 3236,-806.5 3236,-664.5 3015,-664.5"/>
<polygon fill="none" stroke="black" points="3015,-664.5 3015,-806.5 3236,-806.5 3236,-664.5 3015,-664.5"/>
<text text-anchor="start" x="3026" y="-784.3" font-family="Arial" font-size="14.00">&#45; scheme: String</text>
<text text-anchor="start" x="3026" y="-769.3" font-family="Arial" font-size="14.00">&#45; public_name: String</text>
<text text-anchor="start" x="3026" y="-754.3" font-family="Arial" font-size="14.00">&#45; top_name: String</text>
<text text-anchor="start" x="3026" y="-739.3" font-family="Arial" font-size="14.00">&#45; sub_names: String</text>
<text text-anchor="start" x="3026" y="-724.3" font-family="Arial" font-size="14.00">&#45; sub_names_vec: Vec&lt;String&gt;</text>
<text text-anchor="start" x="3026" y="-709.3" font-family="Arial" font-size="14.00">&#45; path: String</text>
<text text-anchor="start" x="3026" y="-694.3" font-family="Arial" font-size="14.00">&#45; query_string: String</text>
<text text-anchor="start" x="3026" y="-679.3" font-family="Arial" font-size="14.00">&#45; fragment: String</text>
<polygon fill="none" stroke="black" points="3013.5,-664 3013.5,-845 3236.5,-845 3236.5,-664 3013.5,-664"/>
</a>
</g>
</g>
</g>
</svg>
