<?xml version="1.0" encoding="UTF-8" standalone="no"?>
<!DOCTYPE svg PUBLIC "-//W3C//DTD SVG 1.1//EN"
 "http://www.w3.org/Graphics/SVG/1.1/DTD/svg11.dtd">
<!-- Generated by graphviz version 2.38.0 (20140413.2041)
 -->
<!-- Title: ml Pages: 1 -->
<svg width="1235pt" height="221pt"
 viewBox="0.00 0.00 1234.50 221.00" xmlns="http://www.w3.org/2000/svg" xmlns:xlink="http://www.w3.org/1999/xlink">
<g id="graph0" class="graph" transform="scale(1 1) rotate(0) translate(4 217)">
<title>ml</title>
<polygon fill="white" stroke="none" points="-4,4 -4,-217 1230.5,-217 1230.5,4 -4,4"/>
<!-- ndIpcResp -->
<g id="node1" class="node"><title>ndIpcResp</title>
<g id="a_node1_0"><a xlink:href="https://github.com/maidsafe/safe_network/blob/master/src/ipc/resp.rs#:~:text=enum%20IpcResp" xlink:title="&lt;TABLE&gt;">
<polygon fill="yellow" stroke="none" points="299.5,-87.5 299.5,-124.5 378.5,-124.5 378.5,-87.5 299.5,-87.5"/>
<polygon fill="none" stroke="black" points="299.5,-87.5 299.5,-124.5 378.5,-124.5 378.5,-87.5 299.5,-87.5"/>
<text text-anchor="start" x="310.5" y="-103.3" font-family="Arial" font-weight="bold" font-size="14.00">IpcResp</text>
<polygon fill="none" stroke="black" points="298,-87 298,-126 379,-126 379,-87 298,-87"/>
</a>
</g>
</g>
<!-- ndIpcMsg -->
<g id="node6" class="node"><title>ndIpcMsg</title>
<g id="a_node6_1"><a xlink:href="https://github.com/maidsafe/safe_network/blob/master/src/ipc/mod.rs#:~:text=enum%20IpcMsg" xlink:title="&lt;TABLE&gt;">
<polygon fill="yellow" stroke="none" points="301.5,-4.5 301.5,-41.5 375.5,-41.5 375.5,-4.5 301.5,-4.5"/>
<polygon fill="none" stroke="black" points="301.5,-4.5 301.5,-41.5 375.5,-41.5 375.5,-4.5 301.5,-4.5"/>
<text text-anchor="start" x="312.5" y="-20.3" font-family="Arial" font-weight="bold" font-size="14.00">IpcMsg</text>
<polygon fill="none" stroke="black" points="300.5,-4 300.5,-43 376.5,-43 376.5,-4 300.5,-4"/>
</a>
</g>
</g>
<!-- ndIpcResp&#45;&gt;ndIpcMsg -->
<g id="edge1" class="edge"><title>ndIpcResp&#45;&gt;ndIpcMsg</title>
<path fill="none" stroke="black" d="M338.5,-82.937C338.5,-75.6257 338.5,-67.3371 338.5,-59.3477"/>
<polygon fill="black" stroke="black" points="338.5,-59.2229 334.5,-53.223 338.5,-47.2229 342.5,-53.2229 338.5,-59.2229"/>
</g>
<!-- ndAuthGranted -->
<g id="node2" class="node"><title>ndAuthGranted</title>
<g id="a_node2_2"><a xlink:href="https://github.com/maidsafe/safe_network/blob/master/src/ipc/resp.rs#:~:text=struct%20AuthGranted" xlink:title="&lt;TABLE&gt;">
<polygon fill="lightblue" stroke="none" points="174.5,-170.5 174.5,-207.5 285.5,-207.5 285.5,-170.5 174.5,-170.5"/>
<polygon fill="none" stroke="black" points="174.5,-170.5 174.5,-207.5 285.5,-207.5 285.5,-170.5 174.5,-170.5"/>
<text text-anchor="start" x="185.5" y="-186.3" font-family="Arial" font-weight="bold" font-size="14.00">AuthGranted</text>
<polygon fill="none" stroke="black" points="173,-170 173,-209 286,-209 286,-170 173,-170"/>
</a>
</g>
</g>
<!-- ndAuthGranted&#45;&gt;ndIpcResp -->
<g id="edge2" class="edge"><title>ndAuthGranted&#45;&gt;ndIpcResp</title>
<path fill="none" stroke="black" d="M259.863,-165.937C271.692,-157.146 285.424,-146.942 298.07,-137.544"/>
<polygon fill="black" stroke="black" points="298.29,-137.38 300.72,-130.591 307.922,-130.223 305.492,-137.012 298.29,-137.38"/>
</g>
<!-- ndSafeAuthenticator -->
<g id="node8" class="node"><title>ndSafeAuthenticator</title>
<g id="a_node8_3"><a xlink:href="https://github.com/maidsafe/safe_network/blob/master/src/authenticator/mod.rs#:~:text=struct%20SafeAuthenticator" xlink:title="&lt;TABLE&gt;">
<polygon fill="lightblue" stroke="none" points="116.5,-87.5 116.5,-124.5 263.5,-124.5 263.5,-87.5 116.5,-87.5"/>
<polygon fill="none" stroke="black" points="116.5,-87.5 116.5,-124.5 263.5,-124.5 263.5,-87.5 116.5,-87.5"/>
<text text-anchor="start" x="127.5" y="-103.3" font-family="Arial" font-weight="bold" font-size="14.00">SafeAuthenticator</text>
<polygon fill="none" stroke="black" points="115,-87 115,-126 264,-126 264,-87 115,-87"/>
</a>
</g>
</g>
<!-- ndAuthGranted&#45;&gt;ndSafeAuthenticator -->
<g id="edge3" class="edge"><title>ndAuthGranted&#45;&gt;ndSafeAuthenticator</title>
<path fill="none" stroke="black" d="M218.358,-165.937C214.274,-157.668 209.574,-148.149 205.168,-139.227"/>
<polygon fill="black" stroke="black" points="200.721,-130.223 209.184,-137.197 202.935,-134.706 205.149,-139.189 205.149,-139.189 205.149,-139.189 202.935,-134.706 201.114,-141.182 200.721,-130.223 200.721,-130.223"/>
</g>
<!-- ndIpcReq -->
<g id="node3" class="node"><title>ndIpcReq</title>
<g id="a_node3_4"><a xlink:href="https://github.com/maidsafe/safe_network/blob/master/src/ipc/req.rs#:~:text=enum%20IpcReq" xlink:title="&lt;TABLE&gt;">
<polygon fill="yellow" stroke="none" points="9.5,-87.5 9.5,-124.5 80.5,-124.5 80.5,-87.5 9.5,-87.5"/>
<polygon fill="none" stroke="black" points="9.5,-87.5 9.5,-124.5 80.5,-124.5 80.5,-87.5 9.5,-87.5"/>
<text text-anchor="start" x="20.5" y="-103.3" font-family="Arial" font-weight="bold" font-size="14.00">IpcReq</text>
<polygon fill="none" stroke="black" points="8,-87 8,-126 81,-126 81,-87 8,-87"/>
</a>
</g>
</g>
<!-- ndIpcReq&#45;&gt;ndIpcMsg -->
<g id="edge4" class="edge"><title>ndIpcReq&#45;&gt;ndIpcMsg</title>
<path fill="none" stroke="black" d="M89.1224,-85.9505C91.9395,-84.905 94.7481,-83.9114 97.5,-83 158.729,-62.7229 230.824,-46.145 280.101,-35.8804"/>
<polygon fill="black" stroke="black" points="280.364,-35.8265 285.435,-30.6995 292.118,-33.4084 287.047,-38.5354 280.364,-35.8265"/>
</g>
<!-- ndAuthReq -->
<g id="node4" class="node"><title>ndAuthReq</title>
<g id="a_node4_5"><a xlink:href="https://github.com/maidsafe/safe_network/blob/master/src/ipc/req.rs#:~:text=struct%20AuthReq" xlink:title="&lt;TABLE&gt;">
<polygon fill="lightblue" stroke="none" points="49.5,-170.5 49.5,-207.5 131.5,-207.5 131.5,-170.5 49.5,-170.5"/>
<polygon fill="none" stroke="black" points="49.5,-170.5 49.5,-207.5 131.5,-207.5 131.5,-170.5 49.5,-170.5"/>
<text text-anchor="start" x="60.5" y="-186.3" font-family="Arial" font-weight="bold" font-size="14.00">AuthReq</text>
<polygon fill="none" stroke="black" points="48.5,-170 48.5,-209 132.5,-209 132.5,-170 48.5,-170"/>
</a>
</g>
</g>
<!-- ndAuthReq&#45;&gt;ndIpcReq -->
<g id="edge5" class="edge"><title>ndAuthReq&#45;&gt;ndIpcReq</title>
<path fill="none" stroke="black" d="M77.6864,-165.937C73.2872,-158.19 68.2649,-149.347 63.4818,-140.925"/>
<polygon fill="black" stroke="black" points="63.3303,-140.658 56.8891,-137.416 57.4044,-130.223 63.8456,-133.465 63.3303,-140.658"/>
</g>
<!-- ndAuthReq&#45;&gt;ndSafeAuthenticator -->
<g id="edge6" class="edge"><title>ndAuthReq&#45;&gt;ndSafeAuthenticator</title>
<path fill="none" stroke="black" stroke-dasharray="5,2" d="M118.077,-165.937C129.141,-156.885 142.035,-146.335 153.8,-136.709"/>
<polygon fill="black" stroke="black" points="161.728,-130.223 156.838,-140.038 157.858,-133.389 153.988,-136.555 153.988,-136.555 153.988,-136.555 157.858,-133.389 151.138,-133.073 161.728,-130.223 161.728,-130.223"/>
</g>
<!-- ndIpcError -->
<g id="node5" class="node"><title>ndIpcError</title>
<g id="a_node5_6"><a xlink:href="https://github.com/maidsafe/safe_network/blob/master/src/ipc/errors.rs#:~:text=enum%20IpcError" xlink:title="&lt;TABLE&gt;">
<polygon fill="yellow" stroke="none" points="413.5,-87.5 413.5,-124.5 493.5,-124.5 493.5,-87.5 413.5,-87.5"/>
<polygon fill="none" stroke="black" points="413.5,-87.5 413.5,-124.5 493.5,-124.5 493.5,-87.5 413.5,-87.5"/>
<text text-anchor="start" x="424.5" y="-103.3" font-family="Arial" font-weight="bold" font-size="14.00">IpcError</text>
<polygon fill="none" stroke="black" points="412.5,-87 412.5,-126 494.5,-126 494.5,-87 412.5,-87"/>
</a>
</g>
</g>
<!-- ndIpcError&#45;&gt;ndIpcMsg -->
<g id="edge7" class="edge"><title>ndIpcError&#45;&gt;ndIpcMsg</title>
<path fill="none" stroke="black" d="M421.466,-82.937C408.862,-74.059 394.211,-63.7399 380.76,-54.2655"/>
<polygon fill="black" stroke="black" points="380.572,-54.1331 373.363,-53.9483 370.761,-47.2229 377.97,-47.4078 380.572,-54.1331"/>
</g>
<!-- ndError -->
<g id="node7" class="node"><title>ndError</title>
<g id="a_node7_7"><a xlink:href="https://github.com/maidsafe/safe_network/blob/master/src/errors.rs#:~:text=enum%20Error" xlink:title="&lt;TABLE&gt;">
<polygon fill="yellow" stroke="none" points="424.5,-4.5 424.5,-41.5 483.5,-41.5 483.5,-4.5 424.5,-4.5"/>
<polygon fill="none" stroke="black" points="424.5,-4.5 424.5,-41.5 483.5,-41.5 483.5,-4.5 424.5,-4.5"/>
<text text-anchor="start" x="435.5" y="-20.3" font-family="Arial" font-weight="bold" font-size="14.00">Error</text>
<polygon fill="none" stroke="black" points="423,-4 423,-43 484,-43 484,-4 423,-4"/>
</a>
</g>
</g>
<!-- ndIpcError&#45;&gt;ndError -->
<g id="edge8" class="edge"><title>ndIpcError&#45;&gt;ndError</title>
<path fill="none" stroke="black" d="M453.5,-82.937C453.5,-75.6257 453.5,-67.3371 453.5,-59.3477"/>
<polygon fill="black" stroke="black" points="453.5,-59.2229 449.5,-53.223 453.5,-47.2229 457.5,-53.2229 453.5,-59.2229"/>
</g>
<!-- ndSafeAppClient -->
<g id="node9" class="node"><title>ndSafeAppClient</title>
<g id="a_node9_8"><a xlink:href="https://github.com/maidsafe/safe_network/blob/master/src/app/safe_client.rs#:~:text=struct%20SafeAppClient" xlink:title="&lt;TABLE&gt;">
<polygon fill="lightblue" stroke="none" points="361.5,-170.5 361.5,-207.5 482.5,-207.5 482.5,-170.5 361.5,-170.5"/>
<polygon fill="none" stroke="black" points="361.5,-170.5 361.5,-207.5 482.5,-207.5 482.5,-170.5 361.5,-170.5"/>
<text text-anchor="start" x="372.5" y="-186.3" font-family="Arial" font-weight="bold" font-size="14.00">SafeAppClient</text>
<polygon fill="none" stroke="black" points="360,-170 360,-209 483,-209 483,-170 360,-170"/>
</a>
</g>
</g>
<!-- ndSafe -->
<g id="node13" class="node"><title>ndSafe</title>
<g id="a_node13_9"><a xlink:href="https://github.com/maidsafe/safe_network/blob/master/src/app/mod.rs#:~:text=struct%20Safe" xlink:title="&lt;TABLE&gt;">
<polygon fill="lightblue" stroke="none" points="530.5,-87.5 530.5,-124.5 583.5,-124.5 583.5,-87.5 530.5,-87.5"/>
<polygon fill="none" stroke="black" points="530.5,-87.5 530.5,-124.5 583.5,-124.5 583.5,-87.5 530.5,-87.5"/>
<text text-anchor="start" x="541.5" y="-103.3" font-family="Arial" font-weight="bold" font-size="14.00">Safe</text>
<polygon fill="none" stroke="black" points="529,-87 529,-126 584,-126 584,-87 529,-87"/>
</a>
</g>
</g>
<!-- ndSafeAppClient&#45;&gt;ndSafe -->
<g id="edge9" class="edge"><title>ndSafeAppClient&#45;&gt;ndSafe</title>
<path fill="none" stroke="black" d="M459.105,-165.937C474.977,-156.414 493.612,-145.233 510.309,-135.214"/>
<polygon fill="black" stroke="black" points="510.663,-135.002 513.75,-128.485 520.953,-128.828 517.866,-135.345 510.663,-135.002"/>
</g>
<!-- ndGetAttr -->
<g id="node10" class="node"><title>ndGetAttr</title>
<g id="a_node10_10"><a xlink:href="https://github.com/maidsafe/safe_network/blob/master/src/app/files/files_map.rs#:~:text=trait%20GetAttr" xlink:title="&lt;TABLE&gt;">
<polygon fill="lightgreen" stroke="none" points="752.5,-170.5 752.5,-207.5 823.5,-207.5 823.5,-170.5 752.5,-170.5"/>
<polygon fill="none" stroke="black" points="752.5,-170.5 752.5,-207.5 823.5,-207.5 823.5,-170.5 752.5,-170.5"/>
<text text-anchor="start" x="763.5" y="-186.3" font-family="Arial" font-weight="bold" font-size="14.00">GetAttr</text>
<polygon fill="none" stroke="black" points="751,-170 751,-209 824,-209 824,-170 751,-170"/>
</a>
</g>
</g>
<!-- ndFileMeta -->
<g id="node11" class="node"><title>ndFileMeta</title>
<g id="a_node11_11"><a xlink:href="https://github.com/maidsafe/safe_network/blob/master/src/app/files/metadata.rs#:~:text=struct%20FileMeta" xlink:title="&lt;TABLE&gt;">
<polygon fill="lightblue" stroke="none" points="859.5,-170.5 859.5,-207.5 940.5,-207.5 940.5,-170.5 859.5,-170.5"/>
<polygon fill="none" stroke="black" points="859.5,-170.5 859.5,-207.5 940.5,-207.5 940.5,-170.5 859.5,-170.5"/>
<text text-anchor="start" x="870.5" y="-186.3" font-family="Arial" font-weight="bold" font-size="14.00">FileMeta</text>
<polygon fill="none" stroke="black" points="858,-170 858,-209 941,-209 941,-170 858,-170"/>
</a>
</g>
</g>
<!-- ndRealPath -->
<g id="node12" class="node"><title>ndRealPath</title>
<g id="a_node12_12"><a xlink:href="https://github.com/maidsafe/safe_network/blob/master/src/app/files/realpath.rs#:~:text=trait%20RealPath" xlink:title="&lt;TABLE&gt;">
<polygon fill="lightgreen" stroke="none" points="976.5,-170.5 976.5,-207.5 1060.5,-207.5 1060.5,-170.5 976.5,-170.5"/>
<polygon fill="none" stroke="black" points="976.5,-170.5 976.5,-207.5 1060.5,-207.5 1060.5,-170.5 976.5,-170.5"/>
<text text-anchor="start" x="987.5" y="-186.3" font-family="Arial" font-weight="bold" font-size="14.00">RealPath</text>
<polygon fill="none" stroke="black" points="975.5,-170 975.5,-209 1061.5,-209 1061.5,-170 975.5,-170"/>
</a>
</g>
</g>
<!-- ndNrsMap -->
<g id="node14" class="node"><title>ndNrsMap</title>
<g id="a_node14_13"><a xlink:href="https://github.com/maidsafe/safe_network/blob/master/src/app/nrs/nrs_map.rs#:~:text=struct%20NrsMap" xlink:title="&lt;TABLE&gt;">
<polygon fill="lightblue" stroke="none" points="518.5,-170.5 518.5,-207.5 595.5,-207.5 595.5,-170.5 518.5,-170.5"/>
<polygon fill="none" stroke="black" points="518.5,-170.5 518.5,-207.5 595.5,-207.5 595.5,-170.5 518.5,-170.5"/>
<text text-anchor="start" x="529.5" y="-186.3" font-family="Arial" font-weight="bold" font-size="14.00">NrsMap</text>
<polygon fill="none" stroke="black" points="517,-170 517,-209 596,-209 596,-170 517,-170"/>
</a>
</g>
</g>
<!-- ndNrsMap&#45;&gt;ndSafe -->
<g id="edge10" class="edge"><title>ndNrsMap&#45;&gt;ndSafe</title>
<path fill="none" stroke="black" stroke-dasharray="5,2" d="M556.5,-165.937C556.5,-158.016 556.5,-148.949 556.5,-140.357"/>
<polygon fill="black" stroke="black" points="556.5,-130.223 561,-140.223 556.5,-135.223 556.5,-140.223 556.5,-140.223 556.5,-140.223 556.5,-135.223 552,-140.223 556.5,-130.223 556.5,-130.223"/>
</g>
<!-- ndSafeData -->
<g id="node15" class="node"><title>ndSafeData</title>
<g id="a_node15_14"><a xlink:href="https://github.com/maidsafe/safe_network/blob/master/src/app/resolver/mod.rs#:~:text=enum%20SafeData" xlink:title="&lt;TABLE&gt;">
<polygon fill="yellow" stroke="none" points="631.5,-170.5 631.5,-207.5 716.5,-207.5 716.5,-170.5 631.5,-170.5"/>
<polygon fill="none" stroke="black" points="631.5,-170.5 631.5,-207.5 716.5,-207.5 716.5,-170.5 631.5,-170.5"/>
<text text-anchor="start" x="642.5" y="-186.3" font-family="Arial" font-weight="bold" font-size="14.00">SafeData</text>
<polygon fill="none" stroke="black" points="630,-170 630,-209 717,-209 717,-170 630,-170"/>
</a>
</g>
</g>
<!-- ndSafeData&#45;&gt;ndSafe -->
<g id="edge11" class="edge"><title>ndSafeData&#45;&gt;ndSafe</title>
<path fill="none" stroke="black" d="M640.909,-165.937C627.582,-156.711 612.008,-145.928 597.89,-136.155"/>
<polygon fill="black" stroke="black" points="589.322,-130.223 600.105,-132.215 593.433,-133.069 597.544,-135.915 597.544,-135.915 597.544,-135.915 593.433,-133.069 594.983,-139.615 589.322,-130.223 589.322,-130.223"/>
</g>
<!-- ndAuthdStatus -->
<g id="node16" class="node"><title>ndAuthdStatus</title>
<g id="a_node16_15"><a xlink:href="https://github.com/maidsafe/safe_network/blob/master/src/authd_client/authd_client_api.rs#:~:text=struct%20AuthdStatus" xlink:title="&lt;TABLE&gt;">
<polygon fill="lightblue" stroke="none" points="1096.5,-170.5 1096.5,-207.5 1204.5,-207.5 1204.5,-170.5 1096.5,-170.5"/>
<polygon fill="none" stroke="black" points="1096.5,-170.5 1096.5,-207.5 1204.5,-207.5 1204.5,-170.5 1096.5,-170.5"/>
<text text-anchor="start" x="1107.5" y="-186.3" font-family="Arial" font-weight="bold" font-size="14.00">AuthdStatus</text>
<polygon fill="none" stroke="black" points="1095.5,-170 1095.5,-209 1205.5,-209 1205.5,-170 1095.5,-170"/>
</a>
</g>
</g>
<!-- ndSafeAuthdClient -->
<g id="node17" class="node"><title>ndSafeAuthdClient</title>
<g id="a_node17_16"><a xlink:href="https://github.com/maidsafe/safe_network/blob/master/src/authd_client/authd_client_api.rs#:~:text=struct%20SafeAuthdClient" xlink:title="&lt;TABLE&gt;">
<polygon fill="lightblue" stroke="none" points="1083.5,-87.5 1083.5,-124.5 1217.5,-124.5 1217.5,-87.5 1083.5,-87.5"/>
<polygon fill="none" stroke="black" points="1083.5,-87.5 1083.5,-124.5 1217.5,-124.5 1217.5,-87.5 1083.5,-87.5"/>
<text text-anchor="start" x="1094.5" y="-103.3" font-family="Arial" font-weight="bold" font-size="14.00">SafeAuthdClient</text>
<polygon fill="none" stroke="black" points="1082.5,-87 1082.5,-126 1218.5,-126 1218.5,-87 1082.5,-87"/>
</a>
</g>
</g>
<!-- ndAuthdStatus&#45;&gt;ndSafeAuthdClient -->
<g id="edge12" class="edge"><title>ndAuthdStatus&#45;&gt;ndSafeAuthdClient</title>
<path fill="none" stroke="black" d="M1150.5,-165.937C1150.5,-158.016 1150.5,-148.949 1150.5,-140.357"/>
<polygon fill="black" stroke="black" points="1150.5,-130.223 1155,-140.223 1150.5,-135.223 1150.5,-140.223 1150.5,-140.223 1150.5,-140.223 1150.5,-135.223 1146,-140.223 1150.5,-130.223 1150.5,-130.223"/>
</g>
</g>
</svg>
