<?xml version="1.0" encoding="UTF-8" standalone="no"?>
<!DOCTYPE svg PUBLIC "-//W3C//DTD SVG 1.1//EN"
 "http://www.w3.org/Graphics/SVG/1.1/DTD/svg11.dtd">
<!-- Generated by graphviz version 2.38.0 (20140413.2041)
 -->
<!-- Title: ml Pages: 1 -->
<svg width="2453pt" height="917pt"
 viewBox="0.00 0.00 2452.50 917.00" xmlns="http://www.w3.org/2000/svg" xmlns:xlink="http://www.w3.org/1999/xlink">
<g id="graph0" class="graph" transform="scale(1 1) rotate(0) translate(4 913)">
<title>ml</title>
<polygon fill="white" stroke="none" points="-4,4 -4,-913 2448.5,-913 2448.5,4 -4,4"/>
<!-- ndIpcResp -->
<g id="node1" class="node"><title>ndIpcResp</title>
<g id="a_node1_0"><a xlink:href="https://github.com/maidsafe/safe_network/blob/master/src/ipc/resp.rs#:~:text=enum%20IpcResp" xlink:title="&lt;TABLE&gt;">
<polygon fill="yellow" stroke="none" points="615,-619 615,-656 921,-656 921,-619 615,-619"/>
<polygon fill="none" stroke="black" points="615,-619 615,-656 921,-656 921,-619 615,-619"/>
<text text-anchor="start" x="739.5" y="-634.8" font-family="Arial" font-weight="bold" font-size="14.00">IpcResp</text>
<polygon fill="white" stroke="none" points="615,-567 615,-619 921,-619 921,-567 615,-567"/>
<polygon fill="none" stroke="black" points="615,-567 615,-619 921,-619 921,-567 615,-567"/>
<text text-anchor="start" x="626" y="-596.8" font-family="Arial" font-size="14.00">Auth(Result&lt;AuthGranted, IpcError&gt;)</text>
<text text-anchor="start" x="626" y="-581.8" font-family="Arial" font-size="14.00">Unregistered(Result&lt;NodeConfig, IpcError&gt;)</text>
<polygon fill="none" stroke="black" points="614,-566.5 614,-657.5 922,-657.5 922,-566.5 614,-566.5"/>
</a>
</g>
</g>
<!-- ndIpcMsg -->
<g id="node6" class="node"><title>ndIpcMsg</title>
<g id="a_node6_1"><a xlink:href="https://github.com/maidsafe/safe_network/blob/master/src/ipc/mod.rs#:~:text=enum%20IpcMsg" xlink:title="&lt;TABLE&gt;">
<polygon fill="yellow" stroke="none" points="708,-267 708,-304 829,-304 829,-267 708,-267"/>
<polygon fill="none" stroke="black" points="708,-267 708,-304 829,-304 829,-267 708,-267"/>
<text text-anchor="start" x="742.5" y="-282.8" font-family="Arial" font-weight="bold" font-size="14.00">IpcMsg</text>
<polygon fill="white" stroke="none" points="708,-200 708,-267 829,-267 829,-200 708,-200"/>
<polygon fill="none" stroke="black" points="708,-200 708,-267 829,-267 829,-200 708,-200"/>
<text text-anchor="start" x="719" y="-244.8" font-family="Arial" font-size="14.00">Req(IpcReq)</text>
<text text-anchor="start" x="719" y="-229.8" font-family="Arial" font-size="14.00">Resp(IpcResp)</text>
<text text-anchor="start" x="719" y="-214.8" font-family="Arial" font-size="14.00">Err(IpcError)</text>
<polygon fill="none" stroke="black" points="706.5,-199 706.5,-305 829.5,-305 829.5,-199 706.5,-199"/>
</a>
</g>
</g>
<!-- ndIpcResp&#45;&gt;ndIpcMsg -->
<g id="edge1" class="edge"><title>ndIpcResp&#45;&gt;ndIpcMsg</title>
<path fill="none" stroke="black" d="M768,-562.346C768,-500.125 768,-392.011 768,-321.49"/>
<polygon fill="black" stroke="black" points="768,-321.212 764,-315.212 768,-309.212 772,-315.212 768,-321.212"/>
</g>
<!-- ndAuthGranted -->
<g id="node2" class="node"><title>ndAuthGranted</title>
<g id="a_node2_2"><a xlink:href="https://github.com/maidsafe/safe_network/blob/master/src/ipc/resp.rs#:~:text=struct%20AuthGranted" xlink:title="&lt;TABLE&gt;">
<polygon fill="lightblue" stroke="none" points="398,-821.5 398,-858.5 682,-858.5 682,-821.5 398,-821.5"/>
<polygon fill="none" stroke="black" points="398,-821.5 398,-858.5 682,-858.5 682,-821.5 398,-821.5"/>
<text text-anchor="start" x="495.5" y="-837.3" font-family="Arial" font-weight="bold" font-size="14.00">AuthGranted</text>
<polygon fill="white" stroke="none" points="398,-769.5 398,-821.5 682,-821.5 682,-769.5 398,-769.5"/>
<polygon fill="none" stroke="black" points="398,-769.5 398,-821.5 682,-821.5 682,-769.5 398,-769.5"/>
<text text-anchor="start" x="409" y="-799.3" font-family="Arial" font-size="14.00">+ app_keypair: Keypair</text>
<text text-anchor="start" x="409" y="-784.3" font-family="Arial" font-size="14.00">+ bootstrap_config: Option&lt;NodeConfig&gt;</text>
<polygon fill="none" stroke="black" points="397,-769 397,-860 683,-860 683,-769 397,-769"/>
</a>
</g>
</g>
<!-- ndAuthGranted&#45;&gt;ndIpcResp -->
<g id="edge2" class="edge"><title>ndAuthGranted&#45;&gt;ndIpcResp</title>
<path fill="none" stroke="black" d="M595.192,-764.965C627.718,-736.362 669.039,-700.025 703.119,-670.056"/>
<polygon fill="black" stroke="black" points="703.514,-669.708 705.378,-662.742 712.526,-661.783 710.661,-668.749 703.514,-669.708"/>
</g>
<!-- ndSafeAuthenticator -->
<g id="node8" class="node"><title>ndSafeAuthenticator</title>
<g id="a_node8_3"><a xlink:href="https://github.com/maidsafe/safe_network/blob/master/src/authenticator/mod.rs#:~:text=struct%20SafeAuthenticator" xlink:title="&lt;TABLE&gt;">
<polygon fill="lightblue" stroke="none" points="215,-627 215,-664 579,-664 579,-627 215,-627"/>
<polygon fill="none" stroke="black" points="215,-627 215,-664 579,-664 579,-627 215,-627"/>
<text text-anchor="start" x="334.5" y="-642.8" font-family="Arial" font-weight="bold" font-size="14.00">SafeAuthenticator</text>
<polygon fill="white" stroke="none" points="215,-560 215,-627 579,-627 579,-560 215,-560"/>
<polygon fill="none" stroke="black" points="215,-560 215,-627 579,-627 579,-560 215,-560"/>
<text text-anchor="start" x="226" y="-604.8" font-family="Arial" font-size="14.00">&#45; safe: Option&lt;(Client, RegisterAddress)&gt;</text>
<text text-anchor="start" x="226" y="-589.8" font-family="Arial" font-size="14.00">&#45; config_path: Option&lt;PathBuf&gt;</text>
<text text-anchor="start" x="226" y="-574.8" font-family="Arial" font-size="14.00">&#45; bootstrap_contacts: Option&lt;HashSet&lt;SocketAddr&gt;&gt;</text>
<polygon fill="none" stroke="black" points="214,-559 214,-665 580,-665 580,-559 214,-559"/>
</a>
</g>
</g>
<!-- ndAuthGranted&#45;&gt;ndSafeAuthenticator -->
<g id="edge3" class="edge"><title>ndAuthGranted&#45;&gt;ndSafeAuthenticator</title>
<path fill="none" stroke="black" d="M505.384,-764.965C486.651,-738.699 463.266,-705.912 443.019,-677.523"/>
<polygon fill="black" stroke="black" points="437.122,-669.255 446.592,-674.783 440.025,-673.325 442.928,-677.396 442.928,-677.396 442.928,-677.396 440.025,-673.325 439.265,-680.009 437.122,-669.255 437.122,-669.255"/>
</g>
<!-- ndIpcReq -->
<g id="node3" class="node"><title>ndIpcReq</title>
<g id="a_node3_4"><a xlink:href="https://github.com/maidsafe/safe_network/blob/master/src/ipc/req.rs#:~:text=enum%20IpcReq" xlink:title="&lt;TABLE&gt;">
<polygon fill="yellow" stroke="none" points="9,-619 9,-656 179,-656 179,-619 9,-619"/>
<polygon fill="none" stroke="black" points="9,-619 9,-656 179,-656 179,-619 9,-619"/>
<text text-anchor="start" x="69.5" y="-634.8" font-family="Arial" font-weight="bold" font-size="14.00">IpcReq</text>
<polygon fill="white" stroke="none" points="9,-567 9,-619 179,-619 179,-567 9,-567"/>
<polygon fill="none" stroke="black" points="9,-567 9,-619 179,-619 179,-567 9,-567"/>
<text text-anchor="start" x="20" y="-596.8" font-family="Arial" font-size="14.00">Auth(AuthReq)</text>
<text text-anchor="start" x="20" y="-581.8" font-family="Arial" font-size="14.00">Unregistered(Vec&lt;u8&gt;)</text>
<polygon fill="none" stroke="black" points="8,-566.5 8,-657.5 180,-657.5 180,-566.5 8,-566.5"/>
</a>
</g>
</g>
<!-- ndIpcReq&#45;&gt;ndIpcMsg -->
<g id="edge4" class="edge"><title>ndIpcReq&#45;&gt;ndIpcMsg</title>
<path fill="none" stroke="black" d="M161.561,-562.484C173.204,-554.688 185.32,-546.916 197,-540 366.135,-439.845 574.642,-340.86 687.022,-289.394"/>
<polygon fill="black" stroke="black" points="687.34,-289.248 691.135,-283.117 698.254,-284.261 694.459,-290.393 687.34,-289.248"/>
</g>
<!-- ndAuthReq -->
<g id="node4" class="node"><title>ndAuthReq</title>
<g id="a_node4_5"><a xlink:href="https://github.com/maidsafe/safe_network/blob/master/src/ipc/req.rs#:~:text=struct%20AuthReq" xlink:title="&lt;TABLE&gt;">
<polygon fill="lightblue" stroke="none" points="164,-836.5 164,-873.5 345,-873.5 345,-836.5 164,-836.5"/>
<polygon fill="none" stroke="black" points="164,-836.5 164,-873.5 345,-873.5 345,-836.5 164,-836.5"/>
<text text-anchor="start" x="224.5" y="-852.3" font-family="Arial" font-weight="bold" font-size="14.00">AuthReq</text>
<polygon fill="white" stroke="none" points="164,-754.5 164,-836.5 345,-836.5 345,-754.5 164,-754.5"/>
<polygon fill="none" stroke="black" points="164,-754.5 164,-836.5 345,-836.5 345,-754.5 164,-754.5"/>
<text text-anchor="start" x="175" y="-814.3" font-family="Arial" font-size="14.00">+ req_id: SafeAuthReqId</text>
<text text-anchor="start" x="175" y="-799.3" font-family="Arial" font-size="14.00">+ app_id: String</text>
<text text-anchor="start" x="175" y="-784.3" font-family="Arial" font-size="14.00">+ app_name: String</text>
<text text-anchor="start" x="175" y="-769.3" font-family="Arial" font-size="14.00">+ app_vendor: String</text>
<polygon fill="none" stroke="black" points="162.5,-754 162.5,-875 345.5,-875 345.5,-754 162.5,-754"/>
</a>
</g>
</g>
<!-- ndAuthReq&#45;&gt;ndIpcReq -->
<g id="edge5" class="edge"><title>ndAuthReq&#45;&gt;ndIpcReq</title>
<path fill="none" stroke="black" d="M203.155,-749.785C183.041,-724.579 160.077,-695.803 140.419,-671.169"/>
<polygon fill="black" stroke="black" points="140.265,-670.975 133.396,-668.781 132.78,-661.596 139.649,-663.791 140.265,-670.975"/>
</g>
<!-- ndAuthReq&#45;&gt;ndSafeAuthenticator -->
<g id="edge6" class="edge"><title>ndAuthReq&#45;&gt;ndSafeAuthenticator</title>
<path fill="none" stroke="black" stroke-dasharray="5,2" d="M299.443,-749.785C315.904,-726.705 334.5,-700.632 351.008,-677.485"/>
<polygon fill="black" stroke="black" points="356.988,-669.101 354.845,-679.856 354.084,-673.172 351.181,-677.243 351.181,-677.243 351.181,-677.243 354.084,-673.172 347.517,-674.63 356.988,-669.101 356.988,-669.101"/>
</g>
<!-- ndIpcError -->
<g id="node5" class="node"><title>ndIpcError</title>
<g id="a_node5_6"><a xlink:href="https://github.com/maidsafe/safe_network/blob/master/src/ipc/errors.rs#:~:text=enum%20IpcError" xlink:title="&lt;TABLE&gt;">
<polygon fill="yellow" stroke="none" points="958,-642 958,-679 1113,-679 1113,-642 958,-642"/>
<polygon fill="none" stroke="black" points="958,-642 958,-679 1113,-679 1113,-642 958,-642"/>
<text text-anchor="start" x="1006.5" y="-657.8" font-family="Arial" font-weight="bold" font-size="14.00">IpcError</text>
<polygon fill="white" stroke="none" points="958,-545 958,-642 1113,-642 1113,-545 958,-545"/>
<polygon fill="none" stroke="black" points="958,-545 958,-642 1113,-642 1113,-545 958,-545"/>
<text text-anchor="start" x="969" y="-619.8" font-family="Arial" font-size="14.00">AuthDenied</text>
<text text-anchor="start" x="969" y="-604.8" font-family="Arial" font-size="14.00">InvalidMsg</text>
<text text-anchor="start" x="969" y="-589.8" font-family="Arial" font-size="14.00">EncodeDecodeError</text>
<text text-anchor="start" x="969" y="-574.8" font-family="Arial" font-size="14.00">AlreadyAuthorised</text>
<text text-anchor="start" x="969" y="-559.8" font-family="Arial" font-size="14.00">UnknownApp</text>
<polygon fill="none" stroke="black" points="956.5,-544 956.5,-680 1113.5,-680 1113.5,-544 956.5,-544"/>
</a>
</g>
</g>
<!-- ndIpcError&#45;&gt;ndIpcMsg -->
<g id="edge7" class="edge"><title>ndIpcError&#45;&gt;ndIpcMsg</title>
<path fill="none" stroke="black" d="M948.496,-546.235C945.311,-544.103 942.139,-542.018 939,-540 911.22,-522.143 896.079,-528.558 874,-504 827.005,-451.729 798.853,-375.571 783.502,-320.868"/>
<polygon fill="black" stroke="black" points="783.476,-320.771 778.042,-316.03 780.328,-309.191 785.762,-313.931 783.476,-320.771"/>
</g>
<!-- ndError -->
<g id="node7" class="node"><title>ndError</title>
<g id="a_node7_7"><a xlink:href="https://github.com/maidsafe/safe_network/blob/master/src/errors.rs#:~:text=enum%20Error" xlink:title="&lt;TABLE&gt;">
<polygon fill="yellow" stroke="none" points="893,-462 893,-499 1178,-499 1178,-462 893,-462"/>
<polygon fill="none" stroke="black" points="893,-462 893,-499 1178,-499 1178,-462 893,-462"/>
<text text-anchor="start" x="1017" y="-477.8" font-family="Arial" font-weight="bold" font-size="14.00">Error</text>
<polygon fill="white" stroke="none" points="893,-5 893,-462 1178,-462 1178,-5 893,-5"/>
<polygon fill="none" stroke="black" points="893,-5 893,-462 1178,-462 1178,-5 893,-5"/>
<text text-anchor="start" x="904" y="-439.8" font-family="Arial" font-size="14.00">AuthError(String)</text>
<text text-anchor="start" x="904" y="-424.8" font-family="Arial" font-size="14.00">AuthIpcError(IpcError)</text>
<text text-anchor="start" x="904" y="-409.8" font-family="Arial" font-size="14.00">AuthdClientError(String)</text>
<text text-anchor="start" x="904" y="-394.8" font-family="Arial" font-size="14.00">AuthdError(String)</text>
<text text-anchor="start" x="904" y="-379.8" font-family="Arial" font-size="14.00">AuthdAlreadyStarted(String)</text>
<text text-anchor="start" x="904" y="-364.8" font-family="Arial" font-size="14.00">AuthenticatorError(String)</text>
<text text-anchor="start" x="904" y="-349.8" font-family="Arial" font-size="14.00">ConnectionError(String)</text>
<text text-anchor="start" x="904" y="-334.8" font-family="Arial" font-size="14.00">NetDataError(String)</text>
<text text-anchor="start" x="904" y="-319.8" font-family="Arial" font-size="14.00">ContentNotFound(String)</text>
<text text-anchor="start" x="904" y="-304.8" font-family="Arial" font-size="14.00">ContentError(String)</text>
<text text-anchor="start" x="904" y="-289.8" font-family="Arial" font-size="14.00">ClientError(ClientError)</text>
<text text-anchor="start" x="904" y="-274.8" font-family="Arial" font-size="14.00">EmptyContent(String)</text>
<text text-anchor="start" x="904" y="-259.8" font-family="Arial" font-size="14.00">AccessDenied(String)</text>
<text text-anchor="start" x="904" y="-244.8" font-family="Arial" font-size="14.00">VersionNotFound(String)</text>
<text text-anchor="start" x="904" y="-229.8" font-family="Arial" font-size="14.00">HashNotFound(crate::register::EntryHash)</text>
<text text-anchor="start" x="904" y="-214.8" font-family="Arial" font-size="14.00">EntryNotFound(String)</text>
<text text-anchor="start" x="904" y="-199.8" font-family="Arial" font-size="14.00">EntryExists(String)</text>
<text text-anchor="start" x="904" y="-184.8" font-family="Arial" font-size="14.00">InvalidAmount(String)</text>
<text text-anchor="start" x="904" y="-169.8" font-family="Arial" font-size="14.00">InvalidXorUrl(String)</text>
<text text-anchor="start" x="904" y="-154.8" font-family="Arial" font-size="14.00">InvalidInput(String)</text>
<text text-anchor="start" x="904" y="-139.8" font-family="Arial" font-size="14.00">InvalidMediaType(String)</text>
<text text-anchor="start" x="904" y="-124.8" font-family="Arial" font-size="14.00">NotEnoughBalance(String)</text>
<text text-anchor="start" x="904" y="-109.8" font-family="Arial" font-size="14.00">NrsNameAlreadyExists(String)</text>
<text text-anchor="start" x="904" y="-94.8" font-family="Arial" font-size="14.00">Serialisation(String)</text>
<text text-anchor="start" x="904" y="-79.8" font-family="Arial" font-size="14.00">FileSystemError(String)</text>
<text text-anchor="start" x="904" y="-64.8" font-family="Arial" font-size="14.00">UrlError(UrlError)</text>
<text text-anchor="start" x="904" y="-49.8" font-family="Arial" font-size="14.00">UnversionedContentError(String)</text>
<text text-anchor="start" x="904" y="-34.8" font-family="Arial" font-size="14.00">NotImplementedError(String)</text>
<text text-anchor="start" x="904" y="-19.8" font-family="Arial" font-size="14.00">RegisterFork(String)</text>
<polygon fill="none" stroke="black" points="891.5,-4 891.5,-500 1178.5,-500 1178.5,-4 891.5,-4"/>
</a>
</g>
</g>
<!-- ndIpcError&#45;&gt;ndError -->
<g id="edge8" class="edge"><title>ndIpcError&#45;&gt;ndError</title>
<path fill="none" stroke="black" d="M1035,-539.843C1035,-532.376 1035,-524.51 1035,-516.34"/>
<polygon fill="black" stroke="black" points="1035,-516.164 1031,-510.164 1035,-504.164 1039,-510.164 1035,-516.164"/>
</g>
<!-- ndSafeAppClient -->
<g id="node9" class="node"><title>ndSafeAppClient</title>
<g id="a_node9_8"><a xlink:href="https://github.com/maidsafe/safe_network/blob/master/src/app/safe_client.rs#:~:text=struct%20SafeAppClient" xlink:title="&lt;TABLE&gt;">
<polygon fill="lightblue" stroke="none" points="872,-829.5 872,-866.5 1093,-866.5 1093,-829.5 872,-829.5"/>
<polygon fill="none" stroke="black" points="872,-829.5 872,-866.5 1093,-866.5 1093,-829.5 872,-829.5"/>
<text text-anchor="start" x="933" y="-845.3" font-family="Arial" font-weight="bold" font-size="14.00">SafeAppClient</text>
<polygon fill="white" stroke="none" points="872,-762.5 872,-829.5 1093,-829.5 1093,-762.5 872,-762.5"/>
<polygon fill="none" stroke="black" points="872,-762.5 872,-829.5 1093,-829.5 1093,-762.5 872,-762.5"/>
<text text-anchor="start" x="883" y="-807.3" font-family="Arial" font-size="14.00">&#45; safe_client: Option&lt;Client&gt;</text>
<text text-anchor="start" x="883" y="-792.3" font-family="Arial" font-size="14.00">&#45; config_path: Option&lt;PathBuf&gt;</text>
<text text-anchor="start" x="883" y="-777.3" font-family="Arial" font-size="14.00">&#45; timeout: Duration</text>
<polygon fill="none" stroke="black" points="870.5,-761.5 870.5,-867.5 1093.5,-867.5 1093.5,-761.5 870.5,-761.5"/>
</a>
</g>
</g>
<!-- ndSafe -->
<g id="node13" class="node"><title>ndSafe</title>
<g id="a_node13_9"><a xlink:href="https://github.com/maidsafe/safe_network/blob/master/src/app/mod.rs#:~:text=struct%20Safe" xlink:title="&lt;TABLE&gt;">
<polygon fill="lightblue" stroke="none" points="1149,-619 1149,-656 1349,-656 1349,-619 1149,-619"/>
<polygon fill="none" stroke="black" points="1149,-619 1149,-656 1349,-656 1349,-619 1149,-619"/>
<text text-anchor="start" x="1233.5" y="-634.8" font-family="Arial" font-weight="bold" font-size="14.00">Safe</text>
<polygon fill="white" stroke="none" points="1149,-567 1149,-619 1349,-619 1349,-567 1149,-567"/>
<polygon fill="none" stroke="black" points="1149,-567 1149,-619 1349,-619 1349,-567 1149,-567"/>
<text text-anchor="start" x="1160" y="-596.8" font-family="Arial" font-size="14.00">&#45; safe_client: SafeAppClient</text>
<text text-anchor="start" x="1160" y="-581.8" font-family="Arial" font-size="14.00">+ xorurl_base: XorUrlBase</text>
<polygon fill="none" stroke="black" points="1148,-566.5 1148,-657.5 1350,-657.5 1350,-566.5 1148,-566.5"/>
</a>
</g>
</g>
<!-- ndSafeAppClient&#45;&gt;ndSafe -->
<g id="edge9" class="edge"><title>ndSafeAppClient&#45;&gt;ndSafe</title>
<path fill="none" stroke="black" d="M1056.73,-757.383C1093.55,-729.733 1137.82,-696.487 1174.6,-668.87"/>
<polygon fill="black" stroke="black" points="1174.67,-668.815 1177.07,-662.014 1184.27,-661.609 1181.87,-668.411 1174.67,-668.815"/>
</g>
<!-- ndGetAttr -->
<g id="node10" class="node"><title>ndGetAttr</title>
<g id="a_node10_10"><a xlink:href="https://github.com/maidsafe/safe_network/blob/master/src/app/files/files_map.rs#:~:text=trait%20GetAttr" xlink:title="&lt;TABLE&gt;">
<polygon fill="lightgreen" stroke="none" points="1573,-795.5 1573,-832.5 1644,-832.5 1644,-795.5 1573,-795.5"/>
<polygon fill="none" stroke="black" points="1573,-795.5 1573,-832.5 1644,-832.5 1644,-795.5 1573,-795.5"/>
<text text-anchor="start" x="1584" y="-811.3" font-family="Arial" font-weight="bold" font-size="14.00">GetAttr</text>
<polygon fill="none" stroke="black" points="1571.5,-795 1571.5,-834 1644.5,-834 1644.5,-795 1571.5,-795"/>
</a>
</g>
</g>
<!-- ndFileMeta -->
<g id="node11" class="node"><title>ndFileMeta</title>
<g id="a_node11_11"><a xlink:href="https://github.com/maidsafe/safe_network/blob/master/src/app/files/metadata.rs#:~:text=struct%20FileMeta" xlink:title="&lt;TABLE&gt;">
<polygon fill="lightblue" stroke="none" points="1680,-866.5 1680,-903.5 1922,-903.5 1922,-866.5 1680,-866.5"/>
<polygon fill="none" stroke="black" points="1680,-866.5 1680,-903.5 1922,-903.5 1922,-866.5 1680,-866.5"/>
<text text-anchor="start" x="1771.5" y="-882.3" font-family="Arial" font-weight="bold" font-size="14.00">FileMeta</text>
<polygon fill="white" stroke="none" points="1680,-724.5 1680,-866.5 1922,-866.5 1922,-724.5 1680,-724.5"/>
<polygon fill="none" stroke="black" points="1680,-724.5 1680,-866.5 1922,-866.5 1922,-724.5 1680,-724.5"/>
<text text-anchor="start" x="1691" y="-844.3" font-family="Arial" font-size="14.00">&#45; created: String</text>
<text text-anchor="start" x="1691" y="-829.3" font-family="Arial" font-size="14.00">&#45; modified: String</text>
<text text-anchor="start" x="1691" y="-814.3" font-family="Arial" font-size="14.00">&#45; file_size: String</text>
<text text-anchor="start" x="1691" y="-799.3" font-family="Arial" font-size="14.00">&#45; file_type: String</text>
<text text-anchor="start" x="1691" y="-784.3" font-family="Arial" font-size="14.00">&#45; readonly: Option&lt;String&gt;</text>
<text text-anchor="start" x="1691" y="-769.3" font-family="Arial" font-size="14.00">&#45; mode_bits: Option&lt;String&gt;</text>
<text text-anchor="start" x="1691" y="-754.3" font-family="Arial" font-size="14.00">&#45; original_created: Option&lt;String&gt;</text>
<text text-anchor="start" x="1691" y="-739.3" font-family="Arial" font-size="14.00">&#45; original_modified: Option&lt;String&gt;</text>
<polygon fill="none" stroke="black" points="1679,-724 1679,-905 1923,-905 1923,-724 1679,-724"/>
</a>
</g>
</g>
<!-- ndRealPath -->
<g id="node12" class="node"><title>ndRealPath</title>
<g id="a_node12_12"><a xlink:href="https://github.com/maidsafe/safe_network/blob/master/src/app/files/realpath.rs#:~:text=trait%20RealPath" xlink:title="&lt;TABLE&gt;">
<polygon fill="lightgreen" stroke="none" points="1958,-795.5 1958,-832.5 2042,-832.5 2042,-795.5 1958,-795.5"/>
<polygon fill="none" stroke="black" points="1958,-795.5 1958,-832.5 2042,-832.5 2042,-795.5 1958,-795.5"/>
<text text-anchor="start" x="1969" y="-811.3" font-family="Arial" font-weight="bold" font-size="14.00">RealPath</text>
<polygon fill="none" stroke="black" points="1957,-795 1957,-834 2043,-834 2043,-795 1957,-795"/>
</a>
</g>
</g>
<!-- ndNrsMap -->
<g id="node14" class="node"><title>ndNrsMap</title>
<g id="a_node14_13"><a xlink:href="https://github.com/maidsafe/safe_network/blob/master/src/app/nrs/nrs_map.rs#:~:text=struct%20NrsMap" xlink:title="&lt;TABLE&gt;">
<polygon fill="lightblue" stroke="none" points="1129,-814.5 1129,-851.5 1369,-851.5 1369,-814.5 1129,-814.5"/>
<polygon fill="none" stroke="black" points="1129,-814.5 1129,-851.5 1369,-851.5 1369,-814.5 1129,-814.5"/>
<text text-anchor="start" x="1221.5" y="-830.3" font-family="Arial" font-weight="bold" font-size="14.00">NrsMap</text>
<polygon fill="white" stroke="none" points="1129,-777.5 1129,-814.5 1369,-814.5 1369,-777.5 1129,-777.5"/>
<polygon fill="none" stroke="black" points="1129,-777.5 1129,-814.5 1369,-814.5 1369,-777.5 1129,-777.5"/>
<text text-anchor="start" x="1140" y="-792.3" font-family="Arial" font-size="14.00">+ map: BTreeMap&lt;SubName, Url&gt;</text>
<polygon fill="none" stroke="black" points="1128,-776.5 1128,-852.5 1370,-852.5 1370,-776.5 1128,-776.5"/>
</a>
</g>
</g>
<!-- ndNrsMap&#45;&gt;ndSafe -->
<g id="edge10" class="edge"><title>ndNrsMap&#45;&gt;ndSafe</title>
<path fill="none" stroke="black" stroke-dasharray="5,2" d="M1249,-772.442C1249,-743.496 1249,-704.292 1249,-672.002"/>
<polygon fill="black" stroke="black" points="1249,-661.783 1253.5,-671.783 1249,-666.783 1249,-671.783 1249,-671.783 1249,-671.783 1249,-666.783 1244.5,-671.783 1249,-661.783 1249,-661.783"/>
</g>
<!-- ndSafeData -->
<g id="node15" class="node"><title>ndSafeData</title>
<g id="a_node15_14"><a xlink:href="https://github.com/maidsafe/safe_network/blob/master/src/app/resolver/mod.rs#:~:text=enum%20SafeData" xlink:title="&lt;TABLE&gt;">
<polygon fill="yellow" stroke="none" points="1405,-859.5 1405,-896.5 1537,-896.5 1537,-859.5 1405,-859.5"/>
<polygon fill="none" stroke="black" points="1405,-859.5 1405,-896.5 1537,-896.5 1537,-859.5 1405,-859.5"/>
<text text-anchor="start" x="1439.5" y="-875.3" font-family="Arial" font-weight="bold" font-size="14.00">SafeData</text>
<polygon fill="white" stroke="none" points="1405,-732.5 1405,-859.5 1537,-859.5 1537,-732.5 1405,-732.5"/>
<polygon fill="none" stroke="black" points="1405,-732.5 1405,-859.5 1537,-859.5 1537,-732.5 1405,-732.5"/>
<text text-anchor="start" x="1416" y="-837.3" font-family="Arial" font-size="14.00">SafeKey</text>
<text text-anchor="start" x="1416" y="-822.3" font-family="Arial" font-size="14.00">FilesContainer</text>
<text text-anchor="start" x="1416" y="-807.3" font-family="Arial" font-size="14.00">PublicBlob</text>
<text text-anchor="start" x="1416" y="-792.3" font-family="Arial" font-size="14.00">NrsMapContainer</text>
<text text-anchor="start" x="1416" y="-777.3" font-family="Arial" font-size="14.00">Multimap</text>
<text text-anchor="start" x="1416" y="-762.3" font-family="Arial" font-size="14.00">PublicRegister</text>
<text text-anchor="start" x="1416" y="-747.3" font-family="Arial" font-size="14.00">PrivateRegister</text>
<polygon fill="none" stroke="black" points="1404,-731.5 1404,-897.5 1538,-897.5 1538,-731.5 1404,-731.5"/>
</a>
</g>
</g>
<!-- ndSafeData&#45;&gt;ndSafe -->
<g id="edge11" class="edge"><title>ndSafeData&#45;&gt;ndSafe</title>
<path fill="none" stroke="black" d="M1395.65,-728.258C1392.76,-725.436 1389.88,-722.675 1387,-720 1367.7,-702.046 1345.58,-683.943 1324.8,-667.865"/>
<polygon fill="black" stroke="black" points="1316.6,-661.574 1327.27,-664.092 1320.57,-664.618 1324.54,-667.662 1324.54,-667.662 1324.54,-667.662 1320.57,-664.618 1321.8,-671.232 1316.6,-661.574 1316.6,-661.574"/>
</g>
<!-- ndAuthdStatus -->
<g id="node16" class="node"><title>ndAuthdStatus</title>
<g id="a_node16_15"><a xlink:href="https://github.com/maidsafe/safe_network/blob/master/src/authd_client/authd_client_api.rs#:~:text=struct%20AuthdStatus" xlink:title="&lt;TABLE&gt;">
<polygon fill="lightblue" stroke="none" points="2078,-836.5 2078,-873.5 2245,-873.5 2245,-836.5 2078,-836.5"/>
<polygon fill="none" stroke="black" points="2078,-836.5 2078,-873.5 2245,-873.5 2245,-836.5 2078,-836.5"/>
<text text-anchor="start" x="2118.5" y="-852.3" font-family="Arial" font-weight="bold" font-size="14.00">AuthdStatus</text>
<polygon fill="white" stroke="none" points="2078,-754.5 2078,-836.5 2245,-836.5 2245,-754.5 2078,-754.5"/>
<polygon fill="none" stroke="black" points="2078,-754.5 2078,-836.5 2245,-836.5 2245,-754.5 2078,-754.5"/>
<text text-anchor="start" x="2089" y="-814.3" font-family="Arial" font-size="14.00">+ safe_unlocked: bool</text>
<text text-anchor="start" x="2089" y="-799.3" font-family="Arial" font-size="14.00">+ num_auth_reqs: u32</text>
<text text-anchor="start" x="2089" y="-784.3" font-family="Arial" font-size="14.00">+ num_notif_subs: u32</text>
<text text-anchor="start" x="2089" y="-769.3" font-family="Arial" font-size="14.00">+ authd_version: String</text>
<polygon fill="none" stroke="black" points="2076.5,-754 2076.5,-875 2245.5,-875 2245.5,-754 2076.5,-754"/>
</a>
</g>
</g>
<!-- ndSafeAuthdClient -->
<g id="node17" class="node"><title>ndSafeAuthdClient</title>
<g id="a_node17_16"><a xlink:href="https://github.com/maidsafe/safe_network/blob/master/src/authd_client/authd_client_api.rs#:~:text=struct%20SafeAuthdClient" xlink:title="&lt;TABLE&gt;">
<polygon fill="lightblue" stroke="none" points="1887,-619 1887,-656 2436,-656 2436,-619 1887,-619"/>
<polygon fill="none" stroke="black" points="1887,-619 1887,-656 2436,-656 2436,-619 1887,-619"/>
<text text-anchor="start" x="2105.5" y="-634.8" font-family="Arial" font-weight="bold" font-size="14.00">SafeAuthdClient</text>
<polygon fill="white" stroke="none" points="1887,-567 1887,-619 2436,-619 2436,-567 1887,-567"/>
<polygon fill="none" stroke="black" points="1887,-567 1887,-619 2436,-619 2436,-567 1887,-567"/>
<text text-anchor="start" x="1898" y="-596.8" font-family="Arial" font-size="14.00">+ authd_endpoint: String</text>
<text text-anchor="start" x="1898" y="-581.8" font-family="Arial" font-size="14.00">&#45; subscribed_endpoint: Option&lt;(String, task::JoinHandle&lt;()&gt;, task::JoinHandle&lt;()&gt;)&gt;</text>
<polygon fill="none" stroke="black" points="1885.5,-566.5 1885.5,-657.5 2436.5,-657.5 2436.5,-566.5 1885.5,-566.5"/>
</a>
</g>
</g>
<!-- ndAuthdStatus&#45;&gt;ndSafeAuthdClient -->
<g id="edge12" class="edge"><title>ndAuthdStatus&#45;&gt;ndSafeAuthdClient</title>
<path fill="none" stroke="black" d="M2161,-749.785C2161,-724.802 2161,-696.312 2161,-671.824"/>
<polygon fill="black" stroke="black" points="2161,-661.596 2165.5,-671.596 2161,-666.596 2161,-671.596 2161,-671.596 2161,-671.596 2161,-666.596 2156.5,-671.596 2161,-661.596 2161,-661.596"/>
</g>
</g>
</svg>
