<?xml version="1.0" encoding="UTF-8" standalone="no"?>
<!DOCTYPE svg PUBLIC "-//W3C//DTD SVG 1.1//EN"
 "http://www.w3.org/Graphics/SVG/1.1/DTD/svg11.dtd">
<!-- Generated by graphviz version 2.38.0 (20140413.2041)
 -->
<!-- Title: ml Pages: 1 -->
<svg width="3193pt" height="872pt"
 viewBox="0.00 0.00 3192.50 872.00" xmlns="http://www.w3.org/2000/svg" xmlns:xlink="http://www.w3.org/1999/xlink">
<g id="graph0" class="graph" transform="scale(1 1) rotate(0) translate(4 868)">
<title>ml</title>
<polygon fill="white" stroke="none" points="-4,4 -4,-868 3188.5,-868 3188.5,4 -4,4"/>
<!-- ndIpcResp -->
<g id="node1" class="node"><title>ndIpcResp</title>
<g id="a_node1_0"><a xlink:href="https://github.com/maidsafe/safe_network/blob/master/src/ipc/resp.rs#:~:text=enum%20IpcResp" xlink:title="&lt;TABLE&gt;">
<polygon fill="yellow" stroke="none" points="615,-244 615,-281 921,-281 921,-244 615,-244"/>
<polygon fill="none" stroke="black" points="615,-244 615,-281 921,-281 921,-244 615,-244"/>
<text text-anchor="start" x="739.5" y="-259.8" font-family="Arial" font-weight="bold" font-size="14.00">IpcResp</text>
<polygon fill="white" stroke="none" points="615,-192 615,-244 921,-244 921,-192 615,-192"/>
<polygon fill="none" stroke="black" points="615,-192 615,-244 921,-244 921,-192 615,-192"/>
<text text-anchor="start" x="626" y="-221.8" font-family="Arial" font-size="14.00">Auth(Result&lt;AuthGranted, IpcError&gt;)</text>
<text text-anchor="start" x="626" y="-206.8" font-family="Arial" font-size="14.00">Unregistered(Result&lt;NodeConfig, IpcError&gt;)</text>
<polygon fill="none" stroke="black" points="614,-191.5 614,-282.5 922,-282.5 922,-191.5 614,-191.5"/>
</a>
</g>
</g>
<!-- ndIpcMsg -->
<g id="node6" class="node"><title>ndIpcMsg</title>
<g id="a_node6_1"><a xlink:href="https://github.com/maidsafe/safe_network/blob/master/src/ipc/mod.rs#:~:text=enum%20IpcMsg" xlink:title="&lt;TABLE&gt;">
<polygon fill="yellow" stroke="none" points="708,-72 708,-109 829,-109 829,-72 708,-72"/>
<polygon fill="none" stroke="black" points="708,-72 708,-109 829,-109 829,-72 708,-72"/>
<text text-anchor="start" x="742.5" y="-87.8" font-family="Arial" font-weight="bold" font-size="14.00">IpcMsg</text>
<polygon fill="white" stroke="none" points="708,-5 708,-72 829,-72 829,-5 708,-5"/>
<polygon fill="none" stroke="black" points="708,-5 708,-72 829,-72 829,-5 708,-5"/>
<text text-anchor="start" x="719" y="-49.8" font-family="Arial" font-size="14.00">Req(IpcReq)</text>
<text text-anchor="start" x="719" y="-34.8" font-family="Arial" font-size="14.00">Resp(IpcResp)</text>
<text text-anchor="start" x="719" y="-19.8" font-family="Arial" font-size="14.00">Err(IpcError)</text>
<polygon fill="none" stroke="black" points="706.5,-4 706.5,-110 829.5,-110 829.5,-4 706.5,-4"/>
</a>
</g>
</g>
<!-- ndIpcResp&#45;&gt;ndIpcMsg -->
<g id="edge1" class="edge"><title>ndIpcResp&#45;&gt;ndIpcMsg</title>
<path fill="none" stroke="black" d="M768,-187.361C768,-168.519 768,-146.615 768,-126.247"/>
<polygon fill="black" stroke="black" points="768,-126.137 764,-120.137 768,-114.137 772,-120.137 768,-126.137"/>
</g>
<!-- ndAuthGranted -->
<g id="node2" class="node"><title>ndAuthGranted</title>
<g id="a_node2_2"><a xlink:href="https://github.com/maidsafe/safe_network/blob/master/src/ipc/resp.rs#:~:text=struct%20AuthGranted" xlink:title="&lt;TABLE&gt;">
<polygon fill="lightblue" stroke="none" points="440,-506.5 440,-543.5 724,-543.5 724,-506.5 440,-506.5"/>
<polygon fill="none" stroke="black" points="440,-506.5 440,-543.5 724,-543.5 724,-506.5 440,-506.5"/>
<text text-anchor="start" x="537.5" y="-522.3" font-family="Arial" font-weight="bold" font-size="14.00">AuthGranted</text>
<polygon fill="white" stroke="none" points="440,-454.5 440,-506.5 724,-506.5 724,-454.5 440,-454.5"/>
<polygon fill="none" stroke="black" points="440,-454.5 440,-506.5 724,-506.5 724,-454.5 440,-454.5"/>
<text text-anchor="start" x="451" y="-484.3" font-family="Arial" font-size="14.00">+ app_keypair: Keypair</text>
<text text-anchor="start" x="451" y="-469.3" font-family="Arial" font-size="14.00">+ bootstrap_config: Option&lt;NodeConfig&gt;</text>
<polygon fill="none" stroke="black" points="439,-454 439,-545 725,-545 725,-454 439,-454"/>
</a>
</g>
</g>
<!-- ndAuthGranted&#45;&gt;ndIpcResp -->
<g id="edge2" class="edge"><title>ndAuthGranted&#45;&gt;ndIpcResp</title>
<path fill="none" stroke="black" d="M616.767,-449.808C647.722,-406.454 693.08,-342.928 726.043,-296.762"/>
<polygon fill="black" stroke="black" points="726.115,-296.661 726.346,-289.454 733.088,-286.895 732.857,-294.103 726.115,-296.661"/>
</g>
<!-- ndSafeAuthenticator -->
<g id="node8" class="node"><title>ndSafeAuthenticator</title>
<g id="a_node8_3"><a xlink:href="https://github.com/maidsafe/safe_network/blob/master/src/authenticator/mod.rs#:~:text=struct%20SafeAuthenticator" xlink:title="&lt;TABLE&gt;">
<polygon fill="lightblue" stroke="none" points="215,-252 215,-289 579,-289 579,-252 215,-252"/>
<polygon fill="none" stroke="black" points="215,-252 215,-289 579,-289 579,-252 215,-252"/>
<text text-anchor="start" x="334.5" y="-267.8" font-family="Arial" font-weight="bold" font-size="14.00">SafeAuthenticator</text>
<polygon fill="white" stroke="none" points="215,-185 215,-252 579,-252 579,-185 215,-185"/>
<polygon fill="none" stroke="black" points="215,-185 215,-252 579,-252 579,-185 215,-185"/>
<text text-anchor="start" x="226" y="-229.8" font-family="Arial" font-size="14.00">&#45; safe: Option&lt;(Client, RegisterAddress)&gt;</text>
<text text-anchor="start" x="226" y="-214.8" font-family="Arial" font-size="14.00">&#45; config_path: Option&lt;PathBuf&gt;</text>
<text text-anchor="start" x="226" y="-199.8" font-family="Arial" font-size="14.00">&#45; bootstrap_contacts: Option&lt;HashSet&lt;SocketAddr&gt;&gt;</text>
<polygon fill="none" stroke="black" points="214,-184 214,-290 580,-290 580,-184 214,-184"/>
</a>
</g>
</g>
<!-- ndAuthGranted&#45;&gt;ndSafeAuthenticator -->
<g id="edge3" class="edge"><title>ndAuthGranted&#45;&gt;ndSafeAuthenticator</title>
<path fill="none" stroke="black" d="M547.42,-449.808C517.884,-408.218 475.164,-348.064 442.792,-302.48"/>
<polygon fill="black" stroke="black" points="436.874,-294.146 446.333,-299.694 439.769,-298.223 442.664,-302.3 442.664,-302.3 442.664,-302.3 439.769,-298.223 438.995,-304.905 436.874,-294.146 436.874,-294.146"/>
</g>
<!-- ndIpcReq -->
<g id="node3" class="node"><title>ndIpcReq</title>
<g id="a_node3_4"><a xlink:href="https://github.com/maidsafe/safe_network/blob/master/src/ipc/req.rs#:~:text=enum%20IpcReq" xlink:title="&lt;TABLE&gt;">
<polygon fill="yellow" stroke="none" points="9,-244 9,-281 179,-281 179,-244 9,-244"/>
<polygon fill="none" stroke="black" points="9,-244 9,-281 179,-281 179,-244 9,-244"/>
<text text-anchor="start" x="69.5" y="-259.8" font-family="Arial" font-weight="bold" font-size="14.00">IpcReq</text>
<polygon fill="white" stroke="none" points="9,-192 9,-244 179,-244 179,-192 9,-192"/>
<polygon fill="none" stroke="black" points="9,-192 9,-244 179,-244 179,-192 9,-192"/>
<text text-anchor="start" x="20" y="-221.8" font-family="Arial" font-size="14.00">Auth(AuthReq)</text>
<text text-anchor="start" x="20" y="-206.8" font-family="Arial" font-size="14.00">Unregistered(Vec&lt;u8&gt;)</text>
<polygon fill="none" stroke="black" points="8,-191.5 8,-282.5 180,-282.5 180,-191.5 8,-191.5"/>
</a>
</g>
</g>
<!-- ndIpcReq&#45;&gt;ndIpcMsg -->
<g id="edge4" class="edge"><title>ndIpcReq&#45;&gt;ndIpcMsg</title>
<path fill="none" stroke="black" d="M141.34,-187.407C157.691,-173.24 176.969,-159.131 197,-150 359.422,-75.9578 571.614,-60.3843 686.13,-57.7803"/>
<polygon fill="black" stroke="black" points="686.254,-57.778 692.175,-53.6623 698.252,-57.5451 692.331,-61.6608 686.254,-57.778"/>
</g>
<!-- ndAuthReq -->
<g id="node4" class="node"><title>ndAuthReq</title>
<g id="a_node4_5"><a xlink:href="https://github.com/maidsafe/safe_network/blob/master/src/ipc/req.rs#:~:text=struct%20AuthReq" xlink:title="&lt;TABLE&gt;">
<polygon fill="lightblue" stroke="none" points="21,-521.5 21,-558.5 202,-558.5 202,-521.5 21,-521.5"/>
<polygon fill="none" stroke="black" points="21,-521.5 21,-558.5 202,-558.5 202,-521.5 21,-521.5"/>
<text text-anchor="start" x="81.5" y="-537.3" font-family="Arial" font-weight="bold" font-size="14.00">AuthReq</text>
<polygon fill="white" stroke="none" points="21,-439.5 21,-521.5 202,-521.5 202,-439.5 21,-439.5"/>
<polygon fill="none" stroke="black" points="21,-439.5 21,-521.5 202,-521.5 202,-439.5 21,-439.5"/>
<text text-anchor="start" x="32" y="-499.3" font-family="Arial" font-size="14.00">+ req_id: SafeAuthReqId</text>
<text text-anchor="start" x="32" y="-484.3" font-family="Arial" font-size="14.00">+ app_id: String</text>
<text text-anchor="start" x="32" y="-469.3" font-family="Arial" font-size="14.00">+ app_name: String</text>
<text text-anchor="start" x="32" y="-454.3" font-family="Arial" font-size="14.00">+ app_vendor: String</text>
<polygon fill="none" stroke="black" points="19.5,-439 19.5,-560 202.5,-560 202.5,-439 19.5,-439"/>
</a>
</g>
</g>
<!-- ndAuthReq&#45;&gt;ndIpcReq -->
<g id="edge5" class="edge"><title>ndAuthReq&#45;&gt;ndIpcReq</title>
<path fill="none" stroke="black" d="M106.841,-434.775C104.142,-393.413 100.645,-339.818 97.9814,-299.009"/>
<polygon fill="black" stroke="black" points="97.965,-298.756 93.5827,-293.03 97.1835,-286.782 101.566,-292.509 97.965,-298.756"/>
</g>
<!-- ndAuthReq&#45;&gt;ndSafeAuthenticator -->
<g id="edge6" class="edge"><title>ndAuthReq&#45;&gt;ndSafeAuthenticator</title>
<path fill="none" stroke="black" stroke-dasharray="5,2" d="M180.963,-434.775C225.517,-394.194 283,-341.836 327.469,-301.332"/>
<polygon fill="black" stroke="black" points="335.051,-294.426 330.688,-304.486 331.354,-297.793 327.658,-301.159 327.658,-301.159 327.658,-301.159 331.354,-297.793 324.628,-297.833 335.051,-294.426 335.051,-294.426"/>
</g>
<!-- ndIpcError -->
<g id="node5" class="node"><title>ndIpcError</title>
<g id="a_node5_6"><a xlink:href="https://github.com/maidsafe/safe_network/blob/master/src/ipc/errors.rs#:~:text=enum%20IpcError" xlink:title="&lt;TABLE&gt;">
<polygon fill="yellow" stroke="none" points="958,-267 958,-304 1113,-304 1113,-267 958,-267"/>
<polygon fill="none" stroke="black" points="958,-267 958,-304 1113,-304 1113,-267 958,-267"/>
<text text-anchor="start" x="1006.5" y="-282.8" font-family="Arial" font-weight="bold" font-size="14.00">IpcError</text>
<polygon fill="white" stroke="none" points="958,-170 958,-267 1113,-267 1113,-170 958,-170"/>
<polygon fill="none" stroke="black" points="958,-170 958,-267 1113,-267 1113,-170 958,-170"/>
<text text-anchor="start" x="969" y="-244.8" font-family="Arial" font-size="14.00">AuthDenied</text>
<text text-anchor="start" x="969" y="-229.8" font-family="Arial" font-size="14.00">InvalidMsg</text>
<text text-anchor="start" x="969" y="-214.8" font-family="Arial" font-size="14.00">EncodeDecodeError</text>
<text text-anchor="start" x="969" y="-199.8" font-family="Arial" font-size="14.00">AlreadyAuthorised</text>
<text text-anchor="start" x="969" y="-184.8" font-family="Arial" font-size="14.00">UnknownApp</text>
<polygon fill="none" stroke="black" points="956.5,-169 956.5,-305 1113.5,-305 1113.5,-169 956.5,-169"/>
</a>
</g>
</g>
<!-- ndIpcError&#45;&gt;ndIpcMsg -->
<g id="edge7" class="edge"><title>ndIpcError&#45;&gt;ndIpcMsg</title>
<path fill="none" stroke="black" d="M958.769,-164.878C952.23,-159.655 945.593,-154.628 939,-150 910.864,-130.249 878.011,-111.636 848.662,-96.3872"/>
<polygon fill="black" stroke="black" points="848.28,-96.1909 841.115,-97.0105 837.603,-90.7125 844.768,-89.8928 848.28,-96.1909"/>
</g>
<!-- ndError -->
<g id="node7" class="node"><title>ndError</title>
<g id="a_node7_7"><a xlink:href="https://github.com/maidsafe/safe_network/blob/master/src/safeurl/errors.rs#:~:text=enum%20Error" xlink:title="&lt;TABLE&gt;">
<polygon fill="yellow" stroke="none" points="1052,-72 1052,-109 1272,-109 1272,-72 1052,-72"/>
<polygon fill="none" stroke="black" points="1052,-72 1052,-109 1272,-109 1272,-72 1052,-72"/>
<text text-anchor="start" x="1143.5" y="-87.8" font-family="Arial" font-weight="bold" font-size="14.00">Error</text>
<polygon fill="white" stroke="none" points="1052,-5 1052,-72 1272,-72 1272,-5 1052,-5"/>
<polygon fill="none" stroke="black" points="1052,-5 1052,-72 1272,-72 1272,-5 1052,-5"/>
<text text-anchor="start" x="1063" y="-49.8" font-family="Arial" font-size="14.00">InvalidXorUrl(String)</text>
<text text-anchor="start" x="1063" y="-34.8" font-family="Arial" font-size="14.00">InvalidInput(String)</text>
<text text-anchor="start" x="1063" y="-19.8" font-family="Arial" font-size="14.00">UnsupportedMediaType(String)</text>
<polygon fill="none" stroke="black" points="1051,-4 1051,-110 1273,-110 1273,-4 1051,-4"/>
</a>
</g>
</g>
<!-- ndIpcError&#45;&gt;ndError -->
<g id="edge8" class="edge"><title>ndIpcError&#45;&gt;ndError</title>
<path fill="none" stroke="black" d="M1085.74,-164.882C1095.32,-151.455 1105.31,-137.462 1114.77,-124.194"/>
<polygon fill="black" stroke="black" points="1114.93,-123.979 1115.15,-116.772 1121.89,-114.211 1121.67,-121.418 1114.93,-123.979"/>
</g>
<!-- ndFilesMapChange -->
<g id="node9" class="node"><title>ndFilesMapChange</title>
<g id="a_node9_8"><a xlink:href="https://github.com/maidsafe/safe_network/blob/master/src/app/files/files_map.rs#:~:text=enum%20FilesMapChange" xlink:title="&lt;TABLE&gt;">
<polygon fill="yellow" stroke="none" points="1811,-791.5 1811,-828.5 1951,-828.5 1951,-791.5 1811,-791.5"/>
<polygon fill="none" stroke="black" points="1811,-791.5 1811,-828.5 1951,-828.5 1951,-791.5 1811,-791.5"/>
<text text-anchor="start" x="1822" y="-807.3" font-family="Arial" font-weight="bold" font-size="14.00">FilesMapChange</text>
<polygon fill="white" stroke="none" points="1811,-709.5 1811,-791.5 1951,-791.5 1951,-709.5 1811,-709.5"/>
<polygon fill="none" stroke="black" points="1811,-709.5 1811,-791.5 1951,-791.5 1951,-709.5 1811,-709.5"/>
<text text-anchor="start" x="1822" y="-769.3" font-family="Arial" font-size="14.00">Added(XorUrl)</text>
<text text-anchor="start" x="1822" y="-754.3" font-family="Arial" font-size="14.00">Updated(XorUrl)</text>
<text text-anchor="start" x="1822" y="-739.3" font-family="Arial" font-size="14.00">Removed(XorUrl)</text>
<text text-anchor="start" x="1822" y="-724.3" font-family="Arial" font-size="14.00">Failed(String)</text>
<polygon fill="none" stroke="black" points="1810,-709 1810,-830 1952,-830 1952,-709 1810,-709"/>
</a>
</g>
</g>
<!-- ndGetAttr -->
<g id="node10" class="node"><title>ndGetAttr</title>
<g id="a_node10_9"><a xlink:href="https://github.com/maidsafe/safe_network/blob/master/src/app/files/files_map.rs#:~:text=trait%20GetAttr" xlink:title="&lt;TABLE&gt;">
<polygon fill="lightgreen" stroke="none" points="1987,-750.5 1987,-787.5 2058,-787.5 2058,-750.5 1987,-750.5"/>
<polygon fill="none" stroke="black" points="1987,-750.5 1987,-787.5 2058,-787.5 2058,-750.5 1987,-750.5"/>
<text text-anchor="start" x="1998" y="-766.3" font-family="Arial" font-weight="bold" font-size="14.00">GetAttr</text>
<polygon fill="none" stroke="black" points="1985.5,-750 1985.5,-789 2058.5,-789 2058.5,-750 1985.5,-750"/>
</a>
</g>
</g>
<!-- ndFileMeta -->
<g id="node11" class="node"><title>ndFileMeta</title>
<g id="a_node11_10"><a xlink:href="https://github.com/maidsafe/safe_network/blob/master/src/app/files/metadata.rs#:~:text=struct%20FileMeta" xlink:title="&lt;TABLE&gt;">
<polygon fill="lightblue" stroke="none" points="2094,-821.5 2094,-858.5 2336,-858.5 2336,-821.5 2094,-821.5"/>
<polygon fill="none" stroke="black" points="2094,-821.5 2094,-858.5 2336,-858.5 2336,-821.5 2094,-821.5"/>
<text text-anchor="start" x="2185.5" y="-837.3" font-family="Arial" font-weight="bold" font-size="14.00">FileMeta</text>
<polygon fill="white" stroke="none" points="2094,-679.5 2094,-821.5 2336,-821.5 2336,-679.5 2094,-679.5"/>
<polygon fill="none" stroke="black" points="2094,-679.5 2094,-821.5 2336,-821.5 2336,-679.5 2094,-679.5"/>
<text text-anchor="start" x="2105" y="-799.3" font-family="Arial" font-size="14.00">&#45; created: String</text>
<text text-anchor="start" x="2105" y="-784.3" font-family="Arial" font-size="14.00">&#45; modified: String</text>
<text text-anchor="start" x="2105" y="-769.3" font-family="Arial" font-size="14.00">&#45; file_size: String</text>
<text text-anchor="start" x="2105" y="-754.3" font-family="Arial" font-size="14.00">&#45; file_type: String</text>
<text text-anchor="start" x="2105" y="-739.3" font-family="Arial" font-size="14.00">&#45; readonly: Option&lt;String&gt;</text>
<text text-anchor="start" x="2105" y="-724.3" font-family="Arial" font-size="14.00">&#45; mode_bits: Option&lt;String&gt;</text>
<text text-anchor="start" x="2105" y="-709.3" font-family="Arial" font-size="14.00">&#45; original_created: Option&lt;String&gt;</text>
<text text-anchor="start" x="2105" y="-694.3" font-family="Arial" font-size="14.00">&#45; original_modified: Option&lt;String&gt;</text>
<polygon fill="none" stroke="black" points="2093,-679 2093,-860 2337,-860 2337,-679 2093,-679"/>
</a>
</g>
</g>
<!-- ndRealPath -->
<g id="node12" class="node"><title>ndRealPath</title>
<g id="a_node12_11"><a xlink:href="https://github.com/maidsafe/safe_network/blob/master/src/app/files/realpath.rs#:~:text=trait%20RealPath" xlink:title="&lt;TABLE&gt;">
<polygon fill="lightgreen" stroke="none" points="2372,-750.5 2372,-787.5 2456,-787.5 2456,-750.5 2372,-750.5"/>
<polygon fill="none" stroke="black" points="2372,-750.5 2372,-787.5 2456,-787.5 2456,-750.5 2372,-750.5"/>
<text text-anchor="start" x="2383" y="-766.3" font-family="Arial" font-weight="bold" font-size="14.00">RealPath</text>
<polygon fill="none" stroke="black" points="2371,-750 2371,-789 2457,-789 2457,-750 2371,-750"/>
</a>
</g>
</g>
<!-- ndSafe -->
<g id="node13" class="node"><title>ndSafe</title>
<g id="a_node13_12"><a xlink:href="https://github.com/maidsafe/safe_network/blob/master/src/app/mod.rs#:~:text=struct%20Safe" xlink:title="&lt;TABLE&gt;">
<polygon fill="lightblue" stroke="none" points="1436,-72 1436,-109 1625,-109 1625,-72 1436,-72"/>
<polygon fill="none" stroke="black" points="1436,-72 1436,-109 1625,-109 1625,-72 1436,-72"/>
<text text-anchor="start" x="1515" y="-87.8" font-family="Arial" font-weight="bold" font-size="14.00">Safe</text>
<polygon fill="white" stroke="none" points="1436,-5 1436,-72 1625,-72 1625,-5 1436,-5"/>
<polygon fill="none" stroke="black" points="1436,-5 1436,-72 1625,-72 1625,-5 1436,-5"/>
<text text-anchor="start" x="1447" y="-49.8" font-family="Arial" font-size="14.00">&#45; client: Option&lt;Client&gt;</text>
<text text-anchor="start" x="1447" y="-34.8" font-family="Arial" font-size="14.00">+ xorurl_base: XorUrlBase</text>
<text text-anchor="start" x="1447" y="-19.8" font-family="Arial" font-size="14.00">+ dry_run_mode: bool</text>
<polygon fill="none" stroke="black" points="1434.5,-4 1434.5,-110 1625.5,-110 1625.5,-4 1434.5,-4"/>
</a>
</g>
</g>
<!-- ndNrsMap -->
<g id="node14" class="node"><title>ndNrsMap</title>
<g id="a_node14_13"><a xlink:href="https://github.com/maidsafe/safe_network/blob/master/src/app/nrs/nrs_map.rs#:~:text=struct%20NrsMap" xlink:title="&lt;TABLE&gt;">
<polygon fill="lightblue" stroke="none" points="1149,-244 1149,-281 1442,-281 1442,-244 1149,-244"/>
<polygon fill="none" stroke="black" points="1149,-244 1149,-281 1442,-281 1442,-244 1149,-244"/>
<text text-anchor="start" x="1268" y="-259.8" font-family="Arial" font-weight="bold" font-size="14.00">NrsMap</text>
<polygon fill="white" stroke="none" points="1149,-192 1149,-244 1442,-244 1442,-192 1149,-192"/>
<polygon fill="none" stroke="black" points="1149,-192 1149,-244 1442,-244 1442,-192 1149,-192"/>
<text text-anchor="start" x="1160" y="-221.8" font-family="Arial" font-size="14.00">+ map: BTreeMap&lt;SubName, SafeUrl&gt;</text>
<text text-anchor="start" x="1160" y="-206.8" font-family="Arial" font-size="14.00">+ subname_version: Option&lt;VersionHash&gt;</text>
<polygon fill="none" stroke="black" points="1147.5,-191.5 1147.5,-282.5 1442.5,-282.5 1442.5,-191.5 1147.5,-191.5"/>
</a>
</g>
</g>
<!-- ndNrsMap&#45;&gt;ndError -->
<g id="edge9" class="edge"><title>ndNrsMap&#45;&gt;ndError</title>
<path fill="none" stroke="black" d="M1258.66,-187.361C1244.05,-167.811 1226.98,-144.965 1211.28,-123.959"/>
<polygon fill="black" stroke="black" points="1211.13,-123.75 1204.33,-121.338 1203.95,-114.137 1210.74,-116.549 1211.13,-123.75"/>
</g>
<!-- ndNrsMap&#45;&gt;ndSafe -->
<g id="edge10" class="edge"><title>ndNrsMap&#45;&gt;ndSafe</title>
<path fill="none" stroke="black" d="M1359.21,-187.361C1386.54,-166.661 1418.75,-142.266 1447.79,-120.272"/>
<polygon fill="black" stroke="black" points="1455.89,-114.137 1450.63,-123.762 1451.9,-117.156 1447.92,-120.175 1447.92,-120.175 1447.92,-120.175 1451.9,-117.156 1445.2,-116.588 1455.89,-114.137 1455.89,-114.137"/>
</g>
<!-- ndSafeData -->
<g id="node15" class="node"><title>ndSafeData</title>
<g id="a_node15_14"><a xlink:href="https://github.com/maidsafe/safe_network/blob/master/src/app/resolver/safe_data.rs#:~:text=enum%20SafeData" xlink:title="&lt;TABLE&gt;">
<polygon fill="yellow" stroke="none" points="1516,-282 1516,-319 1648,-319 1648,-282 1516,-282"/>
<polygon fill="none" stroke="black" points="1516,-282 1516,-319 1648,-319 1648,-282 1516,-282"/>
<text text-anchor="start" x="1550.5" y="-297.8" font-family="Arial" font-weight="bold" font-size="14.00">SafeData</text>
<polygon fill="white" stroke="none" points="1516,-155 1516,-282 1648,-282 1648,-155 1516,-155"/>
<polygon fill="none" stroke="black" points="1516,-155 1516,-282 1648,-282 1648,-155 1516,-155"/>
<text text-anchor="start" x="1527" y="-259.8" font-family="Arial" font-size="14.00">SafeKey</text>
<text text-anchor="start" x="1527" y="-244.8" font-family="Arial" font-size="14.00">FilesContainer</text>
<text text-anchor="start" x="1527" y="-229.8" font-family="Arial" font-size="14.00">PublicFile</text>
<text text-anchor="start" x="1527" y="-214.8" font-family="Arial" font-size="14.00">NrsMapContainer</text>
<text text-anchor="start" x="1527" y="-199.8" font-family="Arial" font-size="14.00">Multimap</text>
<text text-anchor="start" x="1527" y="-184.8" font-family="Arial" font-size="14.00">PublicRegister</text>
<text text-anchor="start" x="1527" y="-169.8" font-family="Arial" font-size="14.00">PrivateRegister</text>
<polygon fill="none" stroke="black" points="1515,-154 1515,-320 1649,-320 1649,-154 1515,-154"/>
</a>
</g>
</g>
<!-- ndSafeData&#45;&gt;ndSafe -->
<g id="edge11" class="edge"><title>ndSafeData&#45;&gt;ndSafe</title>
<path fill="none" stroke="black" d="M1556.84,-149.868C1554.3,-141.193 1551.76,-132.483 1549.3,-124.066"/>
<polygon fill="black" stroke="black" points="1546.46,-114.339 1553.58,-122.676 1547.86,-119.139 1549.26,-123.938 1549.26,-123.938 1549.26,-123.938 1547.86,-119.139 1544.94,-125.2 1546.46,-114.339 1546.46,-114.339"/>
</g>
<!-- ndAuthdStatus -->
<g id="node16" class="node"><title>ndAuthdStatus</title>
<g id="a_node16_15"><a xlink:href="https://github.com/maidsafe/safe_network/blob/master/src/authd_client/authd_client_api.rs#:~:text=struct%20AuthdStatus" xlink:title="&lt;TABLE&gt;">
<polygon fill="lightblue" stroke="none" points="2492,-791.5 2492,-828.5 2659,-828.5 2659,-791.5 2492,-791.5"/>
<polygon fill="none" stroke="black" points="2492,-791.5 2492,-828.5 2659,-828.5 2659,-791.5 2492,-791.5"/>
<text text-anchor="start" x="2532.5" y="-807.3" font-family="Arial" font-weight="bold" font-size="14.00">AuthdStatus</text>
<polygon fill="white" stroke="none" points="2492,-709.5 2492,-791.5 2659,-791.5 2659,-709.5 2492,-709.5"/>
<polygon fill="none" stroke="black" points="2492,-709.5 2492,-791.5 2659,-791.5 2659,-709.5 2492,-709.5"/>
<text text-anchor="start" x="2503" y="-769.3" font-family="Arial" font-size="14.00">+ safe_unlocked: bool</text>
<text text-anchor="start" x="2503" y="-754.3" font-family="Arial" font-size="14.00">+ num_auth_reqs: u32</text>
<text text-anchor="start" x="2503" y="-739.3" font-family="Arial" font-size="14.00">+ num_notif_subs: u32</text>
<text text-anchor="start" x="2503" y="-724.3" font-family="Arial" font-size="14.00">+ authd_version: String</text>
<polygon fill="none" stroke="black" points="2490.5,-709 2490.5,-830 2659.5,-830 2659.5,-709 2490.5,-709"/>
</a>
</g>
</g>
<!-- ndSafeAuthdClient -->
<g id="node17" class="node"><title>ndSafeAuthdClient</title>
<g id="a_node17_16"><a xlink:href="https://github.com/maidsafe/safe_network/blob/master/src/authd_client/authd_client_api.rs#:~:text=struct%20SafeAuthdClient" xlink:title="&lt;TABLE&gt;">
<polygon fill="lightblue" stroke="none" points="2301,-506.5 2301,-543.5 2850,-543.5 2850,-506.5 2301,-506.5"/>
<polygon fill="none" stroke="black" points="2301,-506.5 2301,-543.5 2850,-543.5 2850,-506.5 2301,-506.5"/>
<text text-anchor="start" x="2519.5" y="-522.3" font-family="Arial" font-weight="bold" font-size="14.00">SafeAuthdClient</text>
<polygon fill="white" stroke="none" points="2301,-454.5 2301,-506.5 2850,-506.5 2850,-454.5 2301,-454.5"/>
<polygon fill="none" stroke="black" points="2301,-454.5 2301,-506.5 2850,-506.5 2850,-454.5 2301,-454.5"/>
<text text-anchor="start" x="2312" y="-484.3" font-family="Arial" font-size="14.00">+ authd_endpoint: String</text>
<text text-anchor="start" x="2312" y="-469.3" font-family="Arial" font-size="14.00">&#45; subscribed_endpoint: Option&lt;(String, task::JoinHandle&lt;()&gt;, task::JoinHandle&lt;()&gt;)&gt;</text>
<polygon fill="none" stroke="black" points="2299.5,-454 2299.5,-545 2850.5,-545 2850.5,-454 2299.5,-454"/>
</a>
</g>
</g>
<!-- ndAuthdStatus&#45;&gt;ndSafeAuthdClient -->
<g id="edge12" class="edge"><title>ndAuthdStatus&#45;&gt;ndSafeAuthdClient</title>
<path fill="none" stroke="black" d="M2575,-704.988C2575,-660.852 2575,-602.453 2575,-559.367"/>
<polygon fill="black" stroke="black" points="2575,-549.315 2579.5,-559.314 2575,-554.315 2575,-559.315 2575,-559.315 2575,-559.315 2575,-554.315 2570.5,-559.315 2575,-549.315 2575,-549.315"/>
</g>
<!-- ndVersionHashError -->
<g id="node18" class="node"><title>ndVersionHashError</title>
<g id="a_node18_17"><a xlink:href="https://github.com/maidsafe/safe_network/blob/master/src/safeurl/version_hash.rs#:~:text=enum%20VersionHashError" xlink:title="&lt;TABLE&gt;">
<polygon fill="yellow" stroke="none" points="2694,-784.5 2694,-821.5 2918,-821.5 2918,-784.5 2694,-784.5"/>
<polygon fill="none" stroke="black" points="2694,-784.5 2694,-821.5 2918,-821.5 2918,-784.5 2694,-784.5"/>
<text text-anchor="start" x="2743" y="-800.3" font-family="Arial" font-weight="bold" font-size="14.00">VersionHashError</text>
<polygon fill="white" stroke="none" points="2694,-717.5 2694,-784.5 2918,-784.5 2918,-717.5 2694,-717.5"/>
<polygon fill="none" stroke="black" points="2694,-717.5 2694,-784.5 2918,-784.5 2918,-717.5 2694,-717.5"/>
<text text-anchor="start" x="2705" y="-762.3" font-family="Arial" font-size="14.00">DecodingError(multibase::Error)</text>
<text text-anchor="start" x="2705" y="-747.3" font-family="Arial" font-size="14.00">InvalidHashLength</text>
<text text-anchor="start" x="2705" y="-732.3" font-family="Arial" font-size="14.00">InvalidEncoding</text>
<polygon fill="none" stroke="black" points="2693,-716.5 2693,-822.5 2919,-822.5 2919,-716.5 2693,-716.5"/>
</a>
</g>
</g>
<!-- ndVersionHash -->
<g id="node19" class="node"><title>ndVersionHash</title>
<g id="a_node19_18"><a xlink:href="https://github.com/maidsafe/safe_network/blob/master/src/safeurl/version_hash.rs#:~:text=struct%20VersionHash" xlink:title="&lt;TABLE&gt;">
<polygon fill="lightblue" stroke="none" points="1052,-769.5 1052,-806.5 1224,-806.5 1224,-769.5 1052,-769.5"/>
<polygon fill="none" stroke="black" points="1052,-769.5 1052,-806.5 1224,-806.5 1224,-769.5 1052,-769.5"/>
<text text-anchor="start" x="1093.5" y="-785.3" font-family="Arial" font-weight="bold" font-size="14.00">VersionHash</text>
<polygon fill="white" stroke="none" points="1052,-732.5 1052,-769.5 1224,-769.5 1224,-732.5 1052,-732.5"/>
<polygon fill="none" stroke="black" points="1052,-732.5 1052,-769.5 1224,-769.5 1224,-732.5 1052,-732.5"/>
<text text-anchor="start" x="1063" y="-747.3" font-family="Arial" font-size="14.00">&#45; entry_hash: EntryHash</text>
<polygon fill="none" stroke="black" points="1051,-731.5 1051,-807.5 1225,-807.5 1225,-731.5 1051,-731.5"/>
</a>
</g>
</g>
<!-- ndVersionHash&#45;&gt;ndNrsMap -->
<g id="edge13" class="edge"><title>ndVersionHash&#45;&gt;ndNrsMap</title>
<path fill="none" stroke="black" d="M1150.19,-727.314C1177.72,-634.276 1244.84,-407.504 1277.1,-298.483"/>
<polygon fill="black" stroke="black" points="1277.17,-298.238 1275.04,-291.35 1280.58,-286.731 1282.71,-293.62 1277.17,-298.238"/>
</g>
<!-- ndSafeUrl -->
<g id="node24" class="node"><title>ndSafeUrl</title>
<g id="a_node24_19"><a xlink:href="https://github.com/maidsafe/safe_network/blob/master/src/safeurl/mod.rs#:~:text=struct%20SafeUrl" xlink:title="&lt;TABLE&gt;">
<polygon fill="lightblue" stroke="none" points="1340,-596.5 1340,-633.5 1618,-633.5 1618,-596.5 1340,-596.5"/>
<polygon fill="none" stroke="black" points="1340,-596.5 1340,-633.5 1618,-633.5 1618,-596.5 1340,-596.5"/>
<text text-anchor="start" x="1453.5" y="-612.3" font-family="Arial" font-weight="bold" font-size="14.00">SafeUrl</text>
<polygon fill="white" stroke="none" points="1340,-364.5 1340,-596.5 1618,-596.5 1618,-364.5 1340,-364.5"/>
<polygon fill="none" stroke="black" points="1340,-364.5 1340,-596.5 1618,-596.5 1618,-364.5 1340,-364.5"/>
<text text-anchor="start" x="1351" y="-574.3" font-family="Arial" font-size="14.00">&#45; encoding_version: u64</text>
<text text-anchor="start" x="1351" y="-559.3" font-family="Arial" font-size="14.00">&#45; public_name: String</text>
<text text-anchor="start" x="1351" y="-544.3" font-family="Arial" font-size="14.00">&#45; top_name: String</text>
<text text-anchor="start" x="1351" y="-529.3" font-family="Arial" font-size="14.00">&#45; sub_names: String</text>
<text text-anchor="start" x="1351" y="-514.3" font-family="Arial" font-size="14.00">&#45; sub_names_vec: Vec&lt;String&gt;</text>
<text text-anchor="start" x="1351" y="-499.3" font-family="Arial" font-size="14.00">&#45; type_tag: u64</text>
<text text-anchor="start" x="1351" y="-484.3" font-family="Arial" font-size="14.00">&#45; address: DataAddress</text>
<text text-anchor="start" x="1351" y="-469.3" font-family="Arial" font-size="14.00">&#45; content_type: ContentType</text>
<text text-anchor="start" x="1351" y="-454.3" font-family="Arial" font-size="14.00">&#45; content_type_u16: u16</text>
<text text-anchor="start" x="1351" y="-439.3" font-family="Arial" font-size="14.00">&#45; path: String</text>
<text text-anchor="start" x="1351" y="-424.3" font-family="Arial" font-size="14.00">&#45; query_string: String</text>
<text text-anchor="start" x="1351" y="-409.3" font-family="Arial" font-size="14.00">&#45; fragment: String</text>
<text text-anchor="start" x="1351" y="-394.3" font-family="Arial" font-size="14.00">&#45; content_version: Option&lt;VersionHash&gt;</text>
<text text-anchor="start" x="1351" y="-379.3" font-family="Arial" font-size="14.00">&#45; url_type: UrlType</text>
<polygon fill="none" stroke="black" points="1339,-364 1339,-635 1619,-635 1619,-364 1339,-364"/>
</a>
</g>
</g>
<!-- ndVersionHash&#45;&gt;ndSafeUrl -->
<g id="edge14" class="edge"><title>ndVersionHash&#45;&gt;ndSafeUrl</title>
<path fill="none" stroke="black" d="M1181.7,-727.486C1199.98,-710.787 1221.67,-691.559 1242,-675 1267.14,-654.525 1294.38,-633.478 1321.13,-613.402"/>
<polygon fill="black" stroke="black" points="1321.35,-613.238 1323.76,-606.441 1330.96,-606.052 1328.55,-612.848 1321.35,-613.238"/>
</g>
<!-- ndXorUrlBase -->
<g id="node20" class="node"><title>ndXorUrlBase</title>
<g id="a_node20_20"><a xlink:href="https://github.com/maidsafe/safe_network/blob/master/src/safeurl/mod.rs#:~:text=enum%20XorUrlBase" xlink:title="&lt;TABLE&gt;">
<polygon fill="yellow" stroke="none" points="1673,-784.5 1673,-821.5 1775,-821.5 1775,-784.5 1673,-784.5"/>
<polygon fill="none" stroke="black" points="1673,-784.5 1673,-821.5 1775,-821.5 1775,-784.5 1673,-784.5"/>
<text text-anchor="start" x="1684" y="-800.3" font-family="Arial" font-weight="bold" font-size="14.00">XorUrlBase</text>
<polygon fill="white" stroke="none" points="1673,-717.5 1673,-784.5 1775,-784.5 1775,-717.5 1673,-717.5"/>
<polygon fill="none" stroke="black" points="1673,-717.5 1673,-784.5 1775,-784.5 1775,-717.5 1673,-717.5"/>
<text text-anchor="start" x="1684" y="-762.3" font-family="Arial" font-size="14.00">Base32z</text>
<text text-anchor="start" x="1684" y="-747.3" font-family="Arial" font-size="14.00">Base32</text>
<text text-anchor="start" x="1684" y="-732.3" font-family="Arial" font-size="14.00">Base64</text>
<polygon fill="none" stroke="black" points="1672,-716.5 1672,-822.5 1776,-822.5 1776,-716.5 1672,-716.5"/>
</a>
</g>
</g>
<!-- ndXorUrlBase&#45;&gt;ndSafe -->
<g id="edge15" class="edge"><title>ndXorUrlBase&#45;&gt;ndSafe</title>
<path fill="none" stroke="black" d="M1733.69,-712.472C1750.5,-597.806 1773.73,-331.873 1666,-150 1659.72,-139.406 1651.69,-129.768 1642.68,-121.064"/>
<polygon fill="black" stroke="black" points="1642.67,-121.051 1635.53,-119.996 1633.76,-113.005 1640.9,-114.06 1642.67,-121.051"/>
</g>
<!-- ndXorUrlBase&#45;&gt;ndSafeUrl -->
<g id="edge16" class="edge"><title>ndXorUrlBase&#45;&gt;ndSafeUrl</title>
<path fill="none" stroke="black" stroke-dasharray="5,2" d="M1683.83,-712.092C1674.37,-699.609 1664.1,-686.639 1654,-675 1645.9,-665.667 1637.41,-656.226 1628.72,-646.818"/>
<polygon fill="black" stroke="black" points="1621.7,-639.283 1631.81,-643.538 1625.11,-642.944 1628.52,-646.604 1628.52,-646.604 1628.52,-646.604 1625.11,-642.944 1625.22,-649.669 1621.7,-639.283 1621.7,-639.283"/>
</g>
<!-- ndContentType -->
<g id="node21" class="node"><title>ndContentType</title>
<g id="a_node21_21"><a xlink:href="https://github.com/maidsafe/safe_network/blob/master/src/safeurl/mod.rs#:~:text=enum%20ContentType" xlink:title="&lt;TABLE&gt;">
<polygon fill="yellow" stroke="none" points="1260,-806.5 1260,-843.5 1398,-843.5 1398,-806.5 1260,-806.5"/>
<polygon fill="none" stroke="black" points="1260,-806.5 1260,-843.5 1398,-843.5 1398,-806.5 1260,-806.5"/>
<text text-anchor="start" x="1284" y="-822.3" font-family="Arial" font-weight="bold" font-size="14.00">ContentType</text>
<polygon fill="white" stroke="none" points="1260,-694.5 1260,-806.5 1398,-806.5 1398,-694.5 1260,-694.5"/>
<polygon fill="none" stroke="black" points="1260,-694.5 1260,-806.5 1398,-806.5 1398,-694.5 1260,-694.5"/>
<text text-anchor="start" x="1271" y="-784.3" font-family="Arial" font-size="14.00">Raw</text>
<text text-anchor="start" x="1271" y="-769.3" font-family="Arial" font-size="14.00">Wallet</text>
<text text-anchor="start" x="1271" y="-754.3" font-family="Arial" font-size="14.00">FilesContainer</text>
<text text-anchor="start" x="1271" y="-739.3" font-family="Arial" font-size="14.00">NrsMapContainer</text>
<text text-anchor="start" x="1271" y="-724.3" font-family="Arial" font-size="14.00">Multimap</text>
<text text-anchor="start" x="1271" y="-709.3" font-family="Arial" font-size="14.00">MediaType(String)</text>
<polygon fill="none" stroke="black" points="1259,-694 1259,-845 1399,-845 1399,-694 1259,-694"/>
</a>
</g>
</g>
<!-- ndContentType&#45;&gt;ndSafeUrl -->
<g id="edge17" class="edge"><title>ndContentType&#45;&gt;ndSafeUrl</title>
<path fill="none" stroke="black" stroke-dasharray="5,2" d="M1372.99,-689.902C1380.16,-677.102 1387.78,-663.483 1395.52,-649.646"/>
<polygon fill="black" stroke="black" points="1395.6,-649.504 1395.04,-642.314 1401.46,-639.032 1402.02,-646.222 1395.6,-649.504"/>
</g>
<!-- ndDataType -->
<g id="node22" class="node"><title>ndDataType</title>
<g id="a_node22_22"><a xlink:href="https://github.com/maidsafe/safe_network/blob/master/src/safeurl/mod.rs#:~:text=enum%20DataType" xlink:title="&lt;TABLE&gt;">
<polygon fill="yellow" stroke="none" points="1435,-784.5 1435,-821.5 1524,-821.5 1524,-784.5 1435,-784.5"/>
<polygon fill="none" stroke="black" points="1435,-784.5 1435,-821.5 1524,-821.5 1524,-784.5 1435,-784.5"/>
<text text-anchor="start" x="1446" y="-800.3" font-family="Arial" font-weight="bold" font-size="14.00">DataType</text>
<polygon fill="white" stroke="none" points="1435,-717.5 1435,-784.5 1524,-784.5 1524,-717.5 1435,-717.5"/>
<polygon fill="none" stroke="black" points="1435,-717.5 1435,-784.5 1524,-784.5 1524,-717.5 1435,-717.5"/>
<text text-anchor="start" x="1446" y="-762.3" font-family="Arial" font-size="14.00">SafeKey</text>
<text text-anchor="start" x="1446" y="-747.3" font-family="Arial" font-size="14.00">File</text>
<text text-anchor="start" x="1446" y="-732.3" font-family="Arial" font-size="14.00">Register</text>
<polygon fill="none" stroke="black" points="1433.5,-716.5 1433.5,-822.5 1524.5,-822.5 1524.5,-716.5 1433.5,-716.5"/>
</a>
</g>
</g>
<!-- ndDataType&#45;&gt;ndSafeUrl -->
<g id="edge18" class="edge"><title>ndDataType&#45;&gt;ndSafeUrl</title>
<path fill="none" stroke="black" d="M1479,-712.318C1479,-693.533 1479,-671.625 1479,-649.161"/>
<polygon fill="black" stroke="black" points="1479,-639.16 1483.5,-649.16 1479,-644.16 1479,-649.16 1479,-649.16 1479,-649.16 1479,-644.16 1474.5,-649.16 1479,-639.16 1479,-639.16"/>
</g>
<!-- ndUrlType -->
<g id="node23" class="node"><title>ndUrlType</title>
<g id="a_node23_23"><a xlink:href="https://github.com/maidsafe/safe_network/blob/master/src/safeurl/mod.rs#:~:text=enum%20UrlType" xlink:title="&lt;TABLE&gt;">
<polygon fill="yellow" stroke="none" points="1560,-776.5 1560,-813.5 1637,-813.5 1637,-776.5 1560,-776.5"/>
<polygon fill="none" stroke="black" points="1560,-776.5 1560,-813.5 1637,-813.5 1637,-776.5 1560,-776.5"/>
<text text-anchor="start" x="1571" y="-792.3" font-family="Arial" font-weight="bold" font-size="14.00">UrlType</text>
<polygon fill="white" stroke="none" points="1560,-724.5 1560,-776.5 1637,-776.5 1637,-724.5 1560,-724.5"/>
<polygon fill="none" stroke="black" points="1560,-724.5 1560,-776.5 1637,-776.5 1637,-724.5 1560,-724.5"/>
<text text-anchor="start" x="1571" y="-754.3" font-family="Arial" font-size="14.00">XorUrl</text>
<text text-anchor="start" x="1571" y="-739.3" font-family="Arial" font-size="14.00">NrsUrl</text>
<polygon fill="none" stroke="black" points="1558.5,-724 1558.5,-815 1637.5,-815 1637.5,-724 1558.5,-724"/>
</a>
</g>
</g>
<!-- ndUrlType&#45;&gt;ndSafeUrl -->
<g id="edge19" class="edge"><title>ndUrlType&#45;&gt;ndSafeUrl</title>
<path fill="none" stroke="black" d="M1576.45,-719.967C1567.55,-699.929 1556.71,-675.515 1545.54,-650.345"/>
<polygon fill="black" stroke="black" points="1545.43,-650.1 1539.34,-646.24 1540.56,-639.133 1546.65,-642.993 1545.43,-650.1"/>
</g>
<!-- ndSafeUrl&#45;&gt;ndSafe -->
<g id="edge20" class="edge"><title>ndSafeUrl&#45;&gt;ndSafe</title>
<path fill="none" stroke="black" stroke-dasharray="5,2" d="M1477.69,-359.595C1479.35,-295.301 1484.55,-218.218 1498,-150 1499.69,-141.441 1501.99,-132.596 1504.6,-123.927"/>
<polygon fill="black" stroke="black" points="1507.66,-114.24 1508.94,-125.13 1506.15,-119.008 1504.65,-123.777 1504.65,-123.777 1504.65,-123.777 1506.15,-119.008 1500.36,-122.423 1507.66,-114.24 1507.66,-114.24"/>
</g>
<!-- ndSafeUrl&#45;&gt;ndNrsMap -->
<g id="edge21" class="edge"><title>ndSafeUrl&#45;&gt;ndNrsMap</title>
<path fill="none" stroke="black" d="M1381.07,-359.86C1364.93,-336.998 1349.02,-314.482 1335.36,-295.145"/>
<polygon fill="black" stroke="black" points="1329.45,-286.778 1338.9,-292.35 1332.34,-290.862 1335.22,-294.946 1335.22,-294.946 1335.22,-294.946 1332.34,-290.862 1331.55,-297.543 1329.45,-286.778 1329.45,-286.778"/>
</g>
<!-- ndSafeUrl&#45;&gt;ndSafeData -->
<g id="edge22" class="edge"><title>ndSafeUrl&#45;&gt;ndSafeData</title>
<path fill="none" stroke="black" d="M1533.82,-359.86C1537.31,-351.032 1540.78,-342.255 1544.16,-333.693"/>
<polygon fill="black" stroke="black" points="1547.95,-324.127 1548.45,-335.081 1546.11,-328.776 1544.27,-333.426 1544.27,-333.426 1544.27,-333.426 1546.11,-328.776 1540.08,-331.771 1547.95,-324.127 1547.95,-324.127"/>
</g>
<!-- ndUrlParts -->
<g id="node25" class="node"><title>ndUrlParts</title>
<g id="a_node25_24"><a xlink:href="https://github.com/maidsafe/safe_network/blob/master/src/safeurl/url_parts.rs#:~:text=struct%20UrlParts" xlink:title="&lt;TABLE&gt;">
<polygon fill="lightblue" stroke="none" points="2955,-821.5 2955,-858.5 3176,-858.5 3176,-821.5 2955,-821.5"/>
<polygon fill="none" stroke="black" points="2955,-821.5 2955,-858.5 3176,-858.5 3176,-821.5 2955,-821.5"/>
<text text-anchor="start" x="3037" y="-837.3" font-family="Arial" font-weight="bold" font-size="14.00">UrlParts</text>
<polygon fill="white" stroke="none" points="2955,-679.5 2955,-821.5 3176,-821.5 3176,-679.5 2955,-679.5"/>
<polygon fill="none" stroke="black" points="2955,-679.5 2955,-821.5 3176,-821.5 3176,-679.5 2955,-679.5"/>
<text text-anchor="start" x="2966" y="-799.3" font-family="Arial" font-size="14.00">&#45; scheme: String</text>
<text text-anchor="start" x="2966" y="-784.3" font-family="Arial" font-size="14.00">&#45; public_name: String</text>
<text text-anchor="start" x="2966" y="-769.3" font-family="Arial" font-size="14.00">&#45; top_name: String</text>
<text text-anchor="start" x="2966" y="-754.3" font-family="Arial" font-size="14.00">&#45; sub_names: String</text>
<text text-anchor="start" x="2966" y="-739.3" font-family="Arial" font-size="14.00">&#45; sub_names_vec: Vec&lt;String&gt;</text>
<text text-anchor="start" x="2966" y="-724.3" font-family="Arial" font-size="14.00">&#45; path: String</text>
<text text-anchor="start" x="2966" y="-709.3" font-family="Arial" font-size="14.00">&#45; query_string: String</text>
<text text-anchor="start" x="2966" y="-694.3" font-family="Arial" font-size="14.00">&#45; fragment: String</text>
<polygon fill="none" stroke="black" points="2953.5,-679 2953.5,-860 3176.5,-860 3176.5,-679 2953.5,-679"/>
</a>
</g>
</g>
</g>
</svg>
