<?xml version="1.0" encoding="UTF-8" standalone="no"?>
<!DOCTYPE svg PUBLIC "-//W3C//DTD SVG 1.1//EN"
 "http://www.w3.org/Graphics/SVG/1.1/DTD/svg11.dtd">
<!-- Generated by graphviz version 2.38.0 (20140413.2041)
 -->
<!-- Title: ml Pages: 1 -->
<svg width="1371pt" height="221pt"
 viewBox="0.00 0.00 1370.50 221.00" xmlns="http://www.w3.org/2000/svg" xmlns:xlink="http://www.w3.org/1999/xlink">
<g id="graph0" class="graph" transform="scale(1 1) rotate(0) translate(4 217)">
<title>ml</title>
<polygon fill="white" stroke="none" points="-4,4 -4,-217 1366.5,-217 1366.5,4 -4,4"/>
<!-- ndIpcResp -->
<g id="node1" class="node"><title>ndIpcResp</title>
<polygon fill="yellow" stroke="none" points="299.5,-87.5 299.5,-124.5 378.5,-124.5 378.5,-87.5 299.5,-87.5"/>
<polygon fill="none" stroke="black" points="299.5,-87.5 299.5,-124.5 378.5,-124.5 378.5,-87.5 299.5,-87.5"/>
<text text-anchor="start" x="310.5" y="-103.3" font-family="Arial" font-weight="bold" font-size="14.00">IpcResp</text>
<polygon fill="none" stroke="black" points="298,-87 298,-126 379,-126 379,-87 298,-87"/>
</g>
<!-- ndIpcMsg -->
<g id="node6" class="node"><title>ndIpcMsg</title>
<polygon fill="yellow" stroke="none" points="301.5,-4.5 301.5,-41.5 375.5,-41.5 375.5,-4.5 301.5,-4.5"/>
<polygon fill="none" stroke="black" points="301.5,-4.5 301.5,-41.5 375.5,-41.5 375.5,-4.5 301.5,-4.5"/>
<text text-anchor="start" x="312.5" y="-20.3" font-family="Arial" font-weight="bold" font-size="14.00">IpcMsg</text>
<polygon fill="none" stroke="black" points="300.5,-4 300.5,-43 376.5,-43 376.5,-4 300.5,-4"/>
</g>
<!-- ndIpcResp&#45;&gt;ndIpcMsg -->
<g id="edge1" class="edge"><title>ndIpcResp&#45;&gt;ndIpcMsg</title>
<path fill="none" stroke="black" d="M338.5,-82.937C338.5,-75.6257 338.5,-67.3371 338.5,-59.3477"/>
<polygon fill="black" stroke="black" points="338.5,-59.2229 334.5,-53.223 338.5,-47.2229 342.5,-53.2229 338.5,-59.2229"/>
</g>
<!-- ndAuthGranted -->
<g id="node2" class="node"><title>ndAuthGranted</title>
<polygon fill="lightblue" stroke="none" points="203.5,-170.5 203.5,-207.5 314.5,-207.5 314.5,-170.5 203.5,-170.5"/>
<polygon fill="none" stroke="black" points="203.5,-170.5 203.5,-207.5 314.5,-207.5 314.5,-170.5 203.5,-170.5"/>
<text text-anchor="start" x="214.5" y="-186.3" font-family="Arial" font-weight="bold" font-size="14.00">AuthGranted</text>
<polygon fill="none" stroke="black" points="202,-170 202,-209 315,-209 315,-170 202,-170"/>
</g>
<!-- ndAuthGranted&#45;&gt;ndIpcResp -->
<g id="edge2" class="edge"><title>ndAuthGranted&#45;&gt;ndIpcResp</title>
<path fill="none" stroke="black" d="M280.784,-165.937C289.037,-157.581 298.55,-147.949 307.442,-138.946"/>
<polygon fill="black" stroke="black" points="307.625,-138.761 308.995,-131.681 316.058,-130.223 314.687,-137.303 307.625,-138.761"/>
</g>
<!-- ndSafeAuthenticator -->
<g id="node8" class="node"><title>ndSafeAuthenticator</title>
<polygon fill="lightblue" stroke="none" points="116.5,-87.5 116.5,-124.5 263.5,-124.5 263.5,-87.5 116.5,-87.5"/>
<polygon fill="none" stroke="black" points="116.5,-87.5 116.5,-124.5 263.5,-124.5 263.5,-87.5 116.5,-87.5"/>
<text text-anchor="start" x="127.5" y="-103.3" font-family="Arial" font-weight="bold" font-size="14.00">SafeAuthenticator</text>
<polygon fill="none" stroke="black" points="115,-87 115,-126 264,-126 264,-87 115,-87"/>
</g>
<!-- ndAuthGranted&#45;&gt;ndSafeAuthenticator -->
<g id="edge3" class="edge"><title>ndAuthGranted&#45;&gt;ndSafeAuthenticator</title>
<path fill="none" stroke="black" d="M239.28,-165.937C231.939,-157.32 223.443,-147.346 215.57,-138.104"/>
<polygon fill="black" stroke="black" points="208.857,-130.223 218.767,-134.917 212.099,-134.029 215.341,-137.835 215.341,-137.835 215.341,-137.835 212.099,-134.029 211.916,-140.754 208.857,-130.223 208.857,-130.223"/>
</g>
<!-- ndIpcReq -->
<g id="node3" class="node"><title>ndIpcReq</title>
<polygon fill="yellow" stroke="none" points="9.5,-87.5 9.5,-124.5 80.5,-124.5 80.5,-87.5 9.5,-87.5"/>
<polygon fill="none" stroke="black" points="9.5,-87.5 9.5,-124.5 80.5,-124.5 80.5,-87.5 9.5,-87.5"/>
<text text-anchor="start" x="20.5" y="-103.3" font-family="Arial" font-weight="bold" font-size="14.00">IpcReq</text>
<polygon fill="none" stroke="black" points="8,-87 8,-126 81,-126 81,-87 8,-87"/>
</g>
<!-- ndIpcReq&#45;&gt;ndIpcMsg -->
<g id="edge4" class="edge"><title>ndIpcReq&#45;&gt;ndIpcMsg</title>
<path fill="none" stroke="black" d="M89.1224,-85.9505C91.9395,-84.905 94.7481,-83.9114 97.5,-83 158.729,-62.7229 230.824,-46.145 280.101,-35.8804"/>
<polygon fill="black" stroke="black" points="280.364,-35.8265 285.435,-30.6995 292.118,-33.4084 287.047,-38.5354 280.364,-35.8265"/>
</g>
<!-- ndAuthReq -->
<g id="node4" class="node"><title>ndAuthReq</title>
<polygon fill="lightblue" stroke="none" points="78.5,-170.5 78.5,-207.5 160.5,-207.5 160.5,-170.5 78.5,-170.5"/>
<polygon fill="none" stroke="black" points="78.5,-170.5 78.5,-207.5 160.5,-207.5 160.5,-170.5 78.5,-170.5"/>
<text text-anchor="start" x="89.5" y="-186.3" font-family="Arial" font-weight="bold" font-size="14.00">AuthReq</text>
<polygon fill="none" stroke="black" points="77.5,-170 77.5,-209 161.5,-209 161.5,-170 77.5,-170"/>
</g>
<!-- ndAuthReq&#45;&gt;ndIpcReq -->
<g id="edge5" class="edge"><title>ndAuthReq&#45;&gt;ndIpcReq</title>
<path fill="none" stroke="black" d="M98.6083,-165.937C90.9521,-157.668 82.1384,-148.149 73.8772,-139.227"/>
<polygon fill="black" stroke="black" points="73.6927,-139.028 66.6812,-137.343 65.5398,-130.223 72.5513,-131.908 73.6927,-139.028"/>
</g>
<!-- ndAuthReq&#45;&gt;ndSafeAuthenticator -->
<g id="edge6" class="edge"><title>ndAuthReq&#45;&gt;ndSafeAuthenticator</title>
<path fill="none" stroke="black" stroke-dasharray="5,2" d="M138.999,-165.937C146.521,-157.233 155.24,-147.144 163.294,-137.824"/>
<polygon fill="black" stroke="black" points="169.863,-130.223 166.729,-140.731 166.594,-134.006 163.324,-137.789 163.324,-137.789 163.324,-137.789 166.594,-134.006 159.919,-134.847 169.863,-130.223 169.863,-130.223"/>
</g>
<!-- ndIpcError -->
<g id="node5" class="node"><title>ndIpcError</title>
<polygon fill="yellow" stroke="none" points="413.5,-87.5 413.5,-124.5 493.5,-124.5 493.5,-87.5 413.5,-87.5"/>
<polygon fill="none" stroke="black" points="413.5,-87.5 413.5,-124.5 493.5,-124.5 493.5,-87.5 413.5,-87.5"/>
<text text-anchor="start" x="424.5" y="-103.3" font-family="Arial" font-weight="bold" font-size="14.00">IpcError</text>
<polygon fill="none" stroke="black" points="412.5,-87 412.5,-126 494.5,-126 494.5,-87 412.5,-87"/>
</g>
<!-- ndIpcError&#45;&gt;ndIpcMsg -->
<g id="edge7" class="edge"><title>ndIpcError&#45;&gt;ndIpcMsg</title>
<path fill="none" stroke="black" d="M421.466,-82.937C408.862,-74.059 394.211,-63.7399 380.76,-54.2655"/>
<polygon fill="black" stroke="black" points="380.572,-54.1331 373.363,-53.9483 370.761,-47.2229 377.97,-47.4078 380.572,-54.1331"/>
</g>
<!-- ndError -->
<g id="node7" class="node"><title>ndError</title>
<polygon fill="yellow" stroke="none" points="424.5,-4.5 424.5,-41.5 483.5,-41.5 483.5,-4.5 424.5,-4.5"/>
<polygon fill="none" stroke="black" points="424.5,-4.5 424.5,-41.5 483.5,-41.5 483.5,-4.5 424.5,-4.5"/>
<text text-anchor="start" x="435.5" y="-20.3" font-family="Arial" font-weight="bold" font-size="14.00">Error</text>
<polygon fill="none" stroke="black" points="423,-4 423,-43 484,-43 484,-4 423,-4"/>
</g>
<!-- ndIpcError&#45;&gt;ndError -->
<g id="edge8" class="edge"><title>ndIpcError&#45;&gt;ndError</title>
<path fill="none" stroke="black" d="M453.5,-82.937C453.5,-75.6257 453.5,-67.3371 453.5,-59.3477"/>
<polygon fill="black" stroke="black" points="453.5,-59.2229 449.5,-53.223 453.5,-47.2229 457.5,-53.2229 453.5,-59.2229"/>
</g>
<!-- ndSafeAppClient -->
<g id="node9" class="node"><title>ndSafeAppClient</title>
<polygon fill="lightblue" stroke="none" points="496.5,-170.5 496.5,-207.5 617.5,-207.5 617.5,-170.5 496.5,-170.5"/>
<polygon fill="none" stroke="black" points="496.5,-170.5 496.5,-207.5 617.5,-207.5 617.5,-170.5 496.5,-170.5"/>
<text text-anchor="start" x="507.5" y="-186.3" font-family="Arial" font-weight="bold" font-size="14.00">SafeAppClient</text>
<polygon fill="none" stroke="black" points="495,-170 495,-209 618,-209 618,-170 495,-170"/>
</g>
<!-- ndSafe -->
<g id="node13" class="node"><title>ndSafe</title>
<polygon fill="lightblue" stroke="none" points="530.5,-87.5 530.5,-124.5 583.5,-124.5 583.5,-87.5 530.5,-87.5"/>
<polygon fill="none" stroke="black" points="530.5,-87.5 530.5,-124.5 583.5,-124.5 583.5,-87.5 530.5,-87.5"/>
<text text-anchor="start" x="541.5" y="-103.3" font-family="Arial" font-weight="bold" font-size="14.00">Safe</text>
<polygon fill="none" stroke="black" points="529,-87 529,-126 584,-126 584,-87 529,-87"/>
</g>
<!-- ndSafeAppClient&#45;&gt;ndSafe -->
<g id="edge9" class="edge"><title>ndSafeAppClient&#45;&gt;ndSafe</title>
<path fill="none" stroke="black" d="M556.5,-165.937C556.5,-158.626 556.5,-150.337 556.5,-142.348"/>
<polygon fill="black" stroke="black" points="556.5,-142.223 552.5,-136.223 556.5,-130.223 560.5,-136.223 556.5,-142.223"/>
</g>
<!-- ndGetAttr -->
<g id="node10" class="node"><title>ndGetAttr</title>
<polygon fill="lightgreen" stroke="none" points="653.5,-170.5 653.5,-207.5 724.5,-207.5 724.5,-170.5 653.5,-170.5"/>
<polygon fill="none" stroke="black" points="653.5,-170.5 653.5,-207.5 724.5,-207.5 724.5,-170.5 653.5,-170.5"/>
<text text-anchor="start" x="664.5" y="-186.3" font-family="Arial" font-weight="bold" font-size="14.00">GetAttr</text>
<polygon fill="none" stroke="black" points="652,-170 652,-209 725,-209 725,-170 652,-170"/>
</g>
<!-- ndFileMeta -->
<g id="node11" class="node"><title>ndFileMeta</title>
<polygon fill="lightblue" stroke="none" points="760.5,-170.5 760.5,-207.5 841.5,-207.5 841.5,-170.5 760.5,-170.5"/>
<polygon fill="none" stroke="black" points="760.5,-170.5 760.5,-207.5 841.5,-207.5 841.5,-170.5 760.5,-170.5"/>
<text text-anchor="start" x="771.5" y="-186.3" font-family="Arial" font-weight="bold" font-size="14.00">FileMeta</text>
<polygon fill="none" stroke="black" points="759,-170 759,-209 842,-209 842,-170 759,-170"/>
</g>
<!-- ndRealPath -->
<g id="node12" class="node"><title>ndRealPath</title>
<polygon fill="lightgreen" stroke="none" points="877.5,-170.5 877.5,-207.5 961.5,-207.5 961.5,-170.5 877.5,-170.5"/>
<polygon fill="none" stroke="black" points="877.5,-170.5 877.5,-207.5 961.5,-207.5 961.5,-170.5 877.5,-170.5"/>
<text text-anchor="start" x="888.5" y="-186.3" font-family="Arial" font-weight="bold" font-size="14.00">RealPath</text>
<polygon fill="none" stroke="black" points="876.5,-170 876.5,-209 962.5,-209 962.5,-170 876.5,-170"/>
</g>
<!-- ndNrsMap -->
<g id="node14" class="node"><title>ndNrsMap</title>
<polygon fill="lightblue" stroke="none" points="998.5,-170.5 998.5,-207.5 1075.5,-207.5 1075.5,-170.5 998.5,-170.5"/>
<polygon fill="none" stroke="black" points="998.5,-170.5 998.5,-207.5 1075.5,-207.5 1075.5,-170.5 998.5,-170.5"/>
<text text-anchor="start" x="1009.5" y="-186.3" font-family="Arial" font-weight="bold" font-size="14.00">NrsMap</text>
<polygon fill="none" stroke="black" points="997,-170 997,-209 1076,-209 1076,-170 997,-170"/>
</g>
<!-- ndSafeData -->
<g id="node15" class="node"><title>ndSafeData</title>
<polygon fill="yellow" stroke="none" points="1111.5,-170.5 1111.5,-207.5 1196.5,-207.5 1196.5,-170.5 1111.5,-170.5"/>
<polygon fill="none" stroke="black" points="1111.5,-170.5 1111.5,-207.5 1196.5,-207.5 1196.5,-170.5 1111.5,-170.5"/>
<text text-anchor="start" x="1122.5" y="-186.3" font-family="Arial" font-weight="bold" font-size="14.00">SafeData</text>
<polygon fill="none" stroke="black" points="1110,-170 1110,-209 1197,-209 1197,-170 1110,-170"/>
</g>
<!-- ndAuthdStatus -->
<g id="node16" class="node"><title>ndAuthdStatus</title>
<polygon fill="lightblue" stroke="none" points="1232.5,-170.5 1232.5,-207.5 1340.5,-207.5 1340.5,-170.5 1232.5,-170.5"/>
<polygon fill="none" stroke="black" points="1232.5,-170.5 1232.5,-207.5 1340.5,-207.5 1340.5,-170.5 1232.5,-170.5"/>
<text text-anchor="start" x="1243.5" y="-186.3" font-family="Arial" font-weight="bold" font-size="14.00">AuthdStatus</text>
<polygon fill="none" stroke="black" points="1231.5,-170 1231.5,-209 1341.5,-209 1341.5,-170 1231.5,-170"/>
</g>
<!-- ndSafeAuthdClient -->
<g id="node17" class="node"><title>ndSafeAuthdClient</title>
<polygon fill="lightblue" stroke="none" points="1219.5,-87.5 1219.5,-124.5 1353.5,-124.5 1353.5,-87.5 1219.5,-87.5"/>
<polygon fill="none" stroke="black" points="1219.5,-87.5 1219.5,-124.5 1353.5,-124.5 1353.5,-87.5 1219.5,-87.5"/>
<text text-anchor="start" x="1230.5" y="-103.3" font-family="Arial" font-weight="bold" font-size="14.00">SafeAuthdClient</text>
<polygon fill="none" stroke="black" points="1218.5,-87 1218.5,-126 1354.5,-126 1354.5,-87 1218.5,-87"/>
</g>
<!-- ndAuthdStatus&#45;&gt;ndSafeAuthdClient -->
<g id="edge10" class="edge"><title>ndAuthdStatus&#45;&gt;ndSafeAuthdClient</title>
<path fill="none" stroke="black" d="M1286.5,-165.937C1286.5,-158.016 1286.5,-148.949 1286.5,-140.357"/>
<polygon fill="black" stroke="black" points="1286.5,-130.223 1291,-140.223 1286.5,-135.223 1286.5,-140.223 1286.5,-140.223 1286.5,-140.223 1286.5,-135.223 1282,-140.223 1286.5,-130.223 1286.5,-130.223"/>
</g>
</g>
</svg>
