<?xml version="1.0" encoding="UTF-8" standalone="no"?>
<!DOCTYPE svg PUBLIC "-//W3C//DTD SVG 1.1//EN"
 "http://www.w3.org/Graphics/SVG/1.1/DTD/svg11.dtd">
<!-- Generated by graphviz version 2.38.0 (20140413.2041)
 -->
<!-- Title: ml Pages: 1 -->
<svg width="1892pt" height="304pt"
 viewBox="0.00 0.00 1892.00 304.00" xmlns="http://www.w3.org/2000/svg" xmlns:xlink="http://www.w3.org/1999/xlink">
<g id="graph0" class="graph" transform="scale(1 1) rotate(0) translate(4 300)">
<title>ml</title>
<polygon fill="white" stroke="none" points="-4,4 -4,-300 1888,-300 1888,4 -4,4"/>
<!-- ndIpcResp -->
<g id="node1" class="node"><title>ndIpcResp</title>
<g id="a_node1_0"><a xlink:href="https://github.com/maidsafe/safe_network/blob/master/src/ipc/resp.rs#:~:text=enum%20IpcResp" xlink:title="&lt;TABLE&gt;">
<polygon fill="yellow" stroke="none" points="299.5,-170.5 299.5,-207.5 378.5,-207.5 378.5,-170.5 299.5,-170.5"/>
<polygon fill="none" stroke="black" points="299.5,-170.5 299.5,-207.5 378.5,-207.5 378.5,-170.5 299.5,-170.5"/>
<text text-anchor="start" x="310.5" y="-186.3" font-family="Arial" font-weight="bold" font-size="14.00">IpcResp</text>
<polygon fill="none" stroke="black" points="298,-170 298,-209 379,-209 379,-170 298,-170"/>
</a>
</g>
</g>
<!-- ndIpcMsg -->
<g id="node6" class="node"><title>ndIpcMsg</title>
<g id="a_node6_1"><a xlink:href="https://github.com/maidsafe/safe_network/blob/master/src/ipc/mod.rs#:~:text=enum%20IpcMsg" xlink:title="&lt;TABLE&gt;">
<polygon fill="yellow" stroke="none" points="301.5,-87.5 301.5,-124.5 375.5,-124.5 375.5,-87.5 301.5,-87.5"/>
<polygon fill="none" stroke="black" points="301.5,-87.5 301.5,-124.5 375.5,-124.5 375.5,-87.5 301.5,-87.5"/>
<text text-anchor="start" x="312.5" y="-103.3" font-family="Arial" font-weight="bold" font-size="14.00">IpcMsg</text>
<polygon fill="none" stroke="black" points="300.5,-87 300.5,-126 376.5,-126 376.5,-87 300.5,-87"/>
</a>
</g>
</g>
<!-- ndIpcResp&#45;&gt;ndIpcMsg -->
<g id="edge1" class="edge"><title>ndIpcResp&#45;&gt;ndIpcMsg</title>
<path fill="none" stroke="black" d="M338.5,-165.937C338.5,-158.626 338.5,-150.337 338.5,-142.348"/>
<polygon fill="black" stroke="black" points="338.5,-142.223 334.5,-136.223 338.5,-130.223 342.5,-136.223 338.5,-142.223"/>
</g>
<!-- ndAuthGranted -->
<g id="node2" class="node"><title>ndAuthGranted</title>
<g id="a_node2_2"><a xlink:href="https://github.com/maidsafe/safe_network/blob/master/src/ipc/resp.rs#:~:text=struct%20AuthGranted" xlink:title="&lt;TABLE&gt;">
<polygon fill="lightblue" stroke="none" points="203.5,-253.5 203.5,-290.5 314.5,-290.5 314.5,-253.5 203.5,-253.5"/>
<polygon fill="none" stroke="black" points="203.5,-253.5 203.5,-290.5 314.5,-290.5 314.5,-253.5 203.5,-253.5"/>
<text text-anchor="start" x="214.5" y="-269.3" font-family="Arial" font-weight="bold" font-size="14.00">AuthGranted</text>
<polygon fill="none" stroke="black" points="202,-253 202,-292 315,-292 315,-253 202,-253"/>
</a>
</g>
</g>
<!-- ndAuthGranted&#45;&gt;ndIpcResp -->
<g id="edge2" class="edge"><title>ndAuthGranted&#45;&gt;ndIpcResp</title>
<path fill="none" stroke="black" d="M280.784,-248.937C289.037,-240.581 298.55,-230.949 307.442,-221.946"/>
<polygon fill="black" stroke="black" points="307.625,-221.761 308.995,-214.681 316.058,-213.223 314.687,-220.303 307.625,-221.761"/>
</g>
<!-- ndSafeAuthenticator -->
<g id="node8" class="node"><title>ndSafeAuthenticator</title>
<g id="a_node8_3"><a xlink:href="https://github.com/maidsafe/safe_network/blob/master/src/authenticator/mod.rs#:~:text=struct%20SafeAuthenticator" xlink:title="&lt;TABLE&gt;">
<polygon fill="lightblue" stroke="none" points="116.5,-170.5 116.5,-207.5 263.5,-207.5 263.5,-170.5 116.5,-170.5"/>
<polygon fill="none" stroke="black" points="116.5,-170.5 116.5,-207.5 263.5,-207.5 263.5,-170.5 116.5,-170.5"/>
<text text-anchor="start" x="127.5" y="-186.3" font-family="Arial" font-weight="bold" font-size="14.00">SafeAuthenticator</text>
<polygon fill="none" stroke="black" points="115,-170 115,-209 264,-209 264,-170 115,-170"/>
</a>
</g>
</g>
<!-- ndAuthGranted&#45;&gt;ndSafeAuthenticator -->
<g id="edge3" class="edge"><title>ndAuthGranted&#45;&gt;ndSafeAuthenticator</title>
<path fill="none" stroke="black" d="M239.28,-248.937C231.939,-240.32 223.443,-230.346 215.57,-221.104"/>
<polygon fill="black" stroke="black" points="208.857,-213.223 218.767,-217.917 212.099,-217.029 215.341,-220.835 215.341,-220.835 215.341,-220.835 212.099,-217.029 211.916,-223.754 208.857,-213.223 208.857,-213.223"/>
</g>
<!-- ndIpcReq -->
<g id="node3" class="node"><title>ndIpcReq</title>
<g id="a_node3_4"><a xlink:href="https://github.com/maidsafe/safe_network/blob/master/src/ipc/req.rs#:~:text=enum%20IpcReq" xlink:title="&lt;TABLE&gt;">
<polygon fill="yellow" stroke="none" points="9.5,-170.5 9.5,-207.5 80.5,-207.5 80.5,-170.5 9.5,-170.5"/>
<polygon fill="none" stroke="black" points="9.5,-170.5 9.5,-207.5 80.5,-207.5 80.5,-170.5 9.5,-170.5"/>
<text text-anchor="start" x="20.5" y="-186.3" font-family="Arial" font-weight="bold" font-size="14.00">IpcReq</text>
<polygon fill="none" stroke="black" points="8,-170 8,-209 81,-209 81,-170 8,-170"/>
</a>
</g>
</g>
<!-- ndIpcReq&#45;&gt;ndIpcMsg -->
<g id="edge4" class="edge"><title>ndIpcReq&#45;&gt;ndIpcMsg</title>
<path fill="none" stroke="black" d="M89.1224,-168.95C91.9395,-167.905 94.7481,-166.911 97.5,-166 158.729,-145.723 230.824,-129.145 280.101,-118.88"/>
<polygon fill="black" stroke="black" points="280.364,-118.827 285.435,-113.699 292.118,-116.408 287.047,-121.535 280.364,-118.827"/>
</g>
<!-- ndAuthReq -->
<g id="node4" class="node"><title>ndAuthReq</title>
<g id="a_node4_5"><a xlink:href="https://github.com/maidsafe/safe_network/blob/master/src/ipc/req.rs#:~:text=struct%20AuthReq" xlink:title="&lt;TABLE&gt;">
<polygon fill="lightblue" stroke="none" points="78.5,-253.5 78.5,-290.5 160.5,-290.5 160.5,-253.5 78.5,-253.5"/>
<polygon fill="none" stroke="black" points="78.5,-253.5 78.5,-290.5 160.5,-290.5 160.5,-253.5 78.5,-253.5"/>
<text text-anchor="start" x="89.5" y="-269.3" font-family="Arial" font-weight="bold" font-size="14.00">AuthReq</text>
<polygon fill="none" stroke="black" points="77.5,-253 77.5,-292 161.5,-292 161.5,-253 77.5,-253"/>
</a>
</g>
</g>
<!-- ndAuthReq&#45;&gt;ndIpcReq -->
<g id="edge5" class="edge"><title>ndAuthReq&#45;&gt;ndIpcReq</title>
<path fill="none" stroke="black" d="M98.6083,-248.937C90.9521,-240.668 82.1384,-231.149 73.8772,-222.227"/>
<polygon fill="black" stroke="black" points="73.6927,-222.028 66.6812,-220.343 65.5398,-213.223 72.5513,-214.908 73.6927,-222.028"/>
</g>
<!-- ndAuthReq&#45;&gt;ndSafeAuthenticator -->
<g id="edge6" class="edge"><title>ndAuthReq&#45;&gt;ndSafeAuthenticator</title>
<path fill="none" stroke="black" stroke-dasharray="5,2" d="M138.999,-248.937C146.521,-240.233 155.24,-230.144 163.294,-220.824"/>
<polygon fill="black" stroke="black" points="169.863,-213.223 166.729,-223.731 166.594,-217.006 163.324,-220.789 163.324,-220.789 163.324,-220.789 166.594,-217.006 159.919,-217.847 169.863,-213.223 169.863,-213.223"/>
</g>
<!-- ndIpcError -->
<g id="node5" class="node"><title>ndIpcError</title>
<g id="a_node5_6"><a xlink:href="https://github.com/maidsafe/safe_network/blob/master/src/ipc/errors.rs#:~:text=enum%20IpcError" xlink:title="&lt;TABLE&gt;">
<polygon fill="yellow" stroke="none" points="413.5,-170.5 413.5,-207.5 493.5,-207.5 493.5,-170.5 413.5,-170.5"/>
<polygon fill="none" stroke="black" points="413.5,-170.5 413.5,-207.5 493.5,-207.5 493.5,-170.5 413.5,-170.5"/>
<text text-anchor="start" x="424.5" y="-186.3" font-family="Arial" font-weight="bold" font-size="14.00">IpcError</text>
<polygon fill="none" stroke="black" points="412.5,-170 412.5,-209 494.5,-209 494.5,-170 412.5,-170"/>
</a>
</g>
</g>
<!-- ndIpcError&#45;&gt;ndIpcMsg -->
<g id="edge7" class="edge"><title>ndIpcError&#45;&gt;ndIpcMsg</title>
<path fill="none" stroke="black" d="M421.466,-165.937C408.862,-157.059 394.211,-146.74 380.76,-137.266"/>
<polygon fill="black" stroke="black" points="380.572,-137.133 373.363,-136.948 370.761,-130.223 377.97,-130.408 380.572,-137.133"/>
</g>
<!-- ndError -->
<g id="node7" class="node"><title>ndError</title>
<g id="a_node7_7"><a xlink:href="https://github.com/maidsafe/safe_network/blob/master/src/url/errors.rs#:~:text=enum%20Error" xlink:title="&lt;TABLE&gt;">
<polygon fill="yellow" stroke="none" points="424.5,-87.5 424.5,-124.5 483.5,-124.5 483.5,-87.5 424.5,-87.5"/>
<polygon fill="none" stroke="black" points="424.5,-87.5 424.5,-124.5 483.5,-124.5 483.5,-87.5 424.5,-87.5"/>
<text text-anchor="start" x="435.5" y="-103.3" font-family="Arial" font-weight="bold" font-size="14.00">Error</text>
<polygon fill="none" stroke="black" points="423,-87 423,-126 484,-126 484,-87 423,-87"/>
</a>
</g>
</g>
<!-- ndIpcError&#45;&gt;ndError -->
<g id="edge8" class="edge"><title>ndIpcError&#45;&gt;ndError</title>
<path fill="none" stroke="black" d="M453.5,-165.937C453.5,-158.626 453.5,-150.337 453.5,-142.348"/>
<polygon fill="black" stroke="black" points="453.5,-142.223 449.5,-136.223 453.5,-130.223 457.5,-136.223 453.5,-142.223"/>
</g>
<!-- ndSafeAppClient -->
<g id="node9" class="node"><title>ndSafeAppClient</title>
<g id="a_node9_8"><a xlink:href="https://github.com/maidsafe/safe_network/blob/master/src/app/safe_client.rs#:~:text=struct%20SafeAppClient" xlink:title="&lt;TABLE&gt;">
<polygon fill="lightblue" stroke="none" points="519.5,-87.5 519.5,-124.5 640.5,-124.5 640.5,-87.5 519.5,-87.5"/>
<polygon fill="none" stroke="black" points="519.5,-87.5 519.5,-124.5 640.5,-124.5 640.5,-87.5 519.5,-87.5"/>
<text text-anchor="start" x="530.5" y="-103.3" font-family="Arial" font-weight="bold" font-size="14.00">SafeAppClient</text>
<polygon fill="none" stroke="black" points="518,-87 518,-126 641,-126 641,-87 518,-87"/>
</a>
</g>
</g>
<!-- ndSafe -->
<g id="node13" class="node"><title>ndSafe</title>
<g id="a_node13_9"><a xlink:href="https://github.com/maidsafe/safe_network/blob/master/src/app/mod.rs#:~:text=struct%20Safe" xlink:title="&lt;TABLE&gt;">
<polygon fill="lightblue" stroke="none" points="727.5,-4.5 727.5,-41.5 780.5,-41.5 780.5,-4.5 727.5,-4.5"/>
<polygon fill="none" stroke="black" points="727.5,-4.5 727.5,-41.5 780.5,-41.5 780.5,-4.5 727.5,-4.5"/>
<text text-anchor="start" x="738.5" y="-20.3" font-family="Arial" font-weight="bold" font-size="14.00">Safe</text>
<polygon fill="none" stroke="black" points="726,-4 726,-43 781,-43 781,-4 726,-4"/>
</a>
</g>
</g>
<!-- ndSafeAppClient&#45;&gt;ndSafe -->
<g id="edge9" class="edge"><title>ndSafeAppClient&#45;&gt;ndSafe</title>
<path fill="none" stroke="black" d="M627.969,-82.937C652.622,-71.4602 682.449,-57.5753 706.842,-46.2201"/>
<polygon fill="black" stroke="black" points="707.101,-46.0994 710.853,-39.9409 717.98,-41.035 714.229,-47.1936 707.101,-46.0994"/>
</g>
<!-- ndGetAttr -->
<g id="node10" class="node"><title>ndGetAttr</title>
<g id="a_node10_10"><a xlink:href="https://github.com/maidsafe/safe_network/blob/master/src/app/files/files_map.rs#:~:text=trait%20GetAttr" xlink:title="&lt;TABLE&gt;">
<polygon fill="lightgreen" stroke="none" points="1123.5,-253.5 1123.5,-290.5 1194.5,-290.5 1194.5,-253.5 1123.5,-253.5"/>
<polygon fill="none" stroke="black" points="1123.5,-253.5 1123.5,-290.5 1194.5,-290.5 1194.5,-253.5 1123.5,-253.5"/>
<text text-anchor="start" x="1134.5" y="-269.3" font-family="Arial" font-weight="bold" font-size="14.00">GetAttr</text>
<polygon fill="none" stroke="black" points="1122,-253 1122,-292 1195,-292 1195,-253 1122,-253"/>
</a>
</g>
</g>
<!-- ndFileMeta -->
<g id="node11" class="node"><title>ndFileMeta</title>
<g id="a_node11_11"><a xlink:href="https://github.com/maidsafe/safe_network/blob/master/src/app/files/metadata.rs#:~:text=struct%20FileMeta" xlink:title="&lt;TABLE&gt;">
<polygon fill="lightblue" stroke="none" points="1230.5,-253.5 1230.5,-290.5 1311.5,-290.5 1311.5,-253.5 1230.5,-253.5"/>
<polygon fill="none" stroke="black" points="1230.5,-253.5 1230.5,-290.5 1311.5,-290.5 1311.5,-253.5 1230.5,-253.5"/>
<text text-anchor="start" x="1241.5" y="-269.3" font-family="Arial" font-weight="bold" font-size="14.00">FileMeta</text>
<polygon fill="none" stroke="black" points="1229,-253 1229,-292 1312,-292 1312,-253 1229,-253"/>
</a>
</g>
</g>
<!-- ndRealPath -->
<g id="node12" class="node"><title>ndRealPath</title>
<g id="a_node12_12"><a xlink:href="https://github.com/maidsafe/safe_network/blob/master/src/app/files/realpath.rs#:~:text=trait%20RealPath" xlink:title="&lt;TABLE&gt;">
<polygon fill="lightgreen" stroke="none" points="1347.5,-253.5 1347.5,-290.5 1431.5,-290.5 1431.5,-253.5 1347.5,-253.5"/>
<polygon fill="none" stroke="black" points="1347.5,-253.5 1347.5,-290.5 1431.5,-290.5 1431.5,-253.5 1347.5,-253.5"/>
<text text-anchor="start" x="1358.5" y="-269.3" font-family="Arial" font-weight="bold" font-size="14.00">RealPath</text>
<polygon fill="none" stroke="black" points="1346.5,-253 1346.5,-292 1432.5,-292 1432.5,-253 1346.5,-253"/>
</a>
</g>
</g>
<!-- ndNrsMap -->
<g id="node14" class="node"><title>ndNrsMap</title>
<g id="a_node14_13"><a xlink:href="https://github.com/maidsafe/safe_network/blob/master/src/app/nrs/nrs_map.rs#:~:text=struct%20NrsMap" xlink:title="&lt;TABLE&gt;">
<polygon fill="lightblue" stroke="none" points="753.5,-87.5 753.5,-124.5 830.5,-124.5 830.5,-87.5 753.5,-87.5"/>
<polygon fill="none" stroke="black" points="753.5,-87.5 753.5,-124.5 830.5,-124.5 830.5,-87.5 753.5,-87.5"/>
<text text-anchor="start" x="764.5" y="-103.3" font-family="Arial" font-weight="bold" font-size="14.00">NrsMap</text>
<polygon fill="none" stroke="black" points="752,-87 752,-126 831,-126 831,-87 752,-87"/>
</a>
</g>
</g>
<!-- ndNrsMap&#45;&gt;ndSafe -->
<g id="edge10" class="edge"><title>ndNrsMap&#45;&gt;ndSafe</title>
<path fill="none" stroke="black" stroke-dasharray="5,2" d="M780.915,-82.937C777.077,-74.7553 772.664,-65.3497 768.517,-56.5093"/>
<polygon fill="black" stroke="black" points="764.16,-47.2229 772.481,-54.3649 766.284,-51.7496 768.407,-56.2762 768.407,-56.2762 768.407,-56.2762 766.284,-51.7496 764.333,-58.1875 764.16,-47.2229 764.16,-47.2229"/>
</g>
<!-- ndSafeData -->
<g id="node15" class="node"><title>ndSafeData</title>
<g id="a_node15_14"><a xlink:href="https://github.com/maidsafe/safe_network/blob/master/src/app/resolver/mod.rs#:~:text=enum%20SafeData" xlink:title="&lt;TABLE&gt;">
<polygon fill="yellow" stroke="none" points="866.5,-87.5 866.5,-124.5 951.5,-124.5 951.5,-87.5 866.5,-87.5"/>
<polygon fill="none" stroke="black" points="866.5,-87.5 866.5,-124.5 951.5,-124.5 951.5,-87.5 866.5,-87.5"/>
<text text-anchor="start" x="877.5" y="-103.3" font-family="Arial" font-weight="bold" font-size="14.00">SafeData</text>
<polygon fill="none" stroke="black" points="865,-87 865,-126 952,-126 952,-87 865,-87"/>
</a>
</g>
</g>
<!-- ndSafeData&#45;&gt;ndSafe -->
<g id="edge11" class="edge"><title>ndSafeData&#45;&gt;ndSafe</title>
<path fill="none" stroke="black" d="M865.324,-82.937C844.412,-72.0088 819.322,-58.8971 798.211,-47.8651"/>
<polygon fill="black" stroke="black" points="789.127,-43.118 800.074,-43.7613 793.558,-45.4338 797.99,-47.7496 797.99,-47.7496 797.99,-47.7496 793.558,-45.4338 795.906,-51.7378 789.127,-43.118 789.127,-43.118"/>
</g>
<!-- ndAuthdStatus -->
<g id="node16" class="node"><title>ndAuthdStatus</title>
<g id="a_node16_15"><a xlink:href="https://github.com/maidsafe/safe_network/blob/master/src/authd_client/authd_client_api.rs#:~:text=struct%20AuthdStatus" xlink:title="&lt;TABLE&gt;">
<polygon fill="lightblue" stroke="none" points="1467.5,-253.5 1467.5,-290.5 1575.5,-290.5 1575.5,-253.5 1467.5,-253.5"/>
<polygon fill="none" stroke="black" points="1467.5,-253.5 1467.5,-290.5 1575.5,-290.5 1575.5,-253.5 1467.5,-253.5"/>
<text text-anchor="start" x="1478.5" y="-269.3" font-family="Arial" font-weight="bold" font-size="14.00">AuthdStatus</text>
<polygon fill="none" stroke="black" points="1466.5,-253 1466.5,-292 1576.5,-292 1576.5,-253 1466.5,-253"/>
</a>
</g>
</g>
<!-- ndSafeAuthdClient -->
<g id="node17" class="node"><title>ndSafeAuthdClient</title>
<g id="a_node17_16"><a xlink:href="https://github.com/maidsafe/safe_network/blob/master/src/authd_client/authd_client_api.rs#:~:text=struct%20SafeAuthdClient" xlink:title="&lt;TABLE&gt;">
<polygon fill="lightblue" stroke="none" points="1454.5,-170.5 1454.5,-207.5 1588.5,-207.5 1588.5,-170.5 1454.5,-170.5"/>
<polygon fill="none" stroke="black" points="1454.5,-170.5 1454.5,-207.5 1588.5,-207.5 1588.5,-170.5 1454.5,-170.5"/>
<text text-anchor="start" x="1465.5" y="-186.3" font-family="Arial" font-weight="bold" font-size="14.00">SafeAuthdClient</text>
<polygon fill="none" stroke="black" points="1453.5,-170 1453.5,-209 1589.5,-209 1589.5,-170 1453.5,-170"/>
</a>
</g>
</g>
<!-- ndAuthdStatus&#45;&gt;ndSafeAuthdClient -->
<g id="edge12" class="edge"><title>ndAuthdStatus&#45;&gt;ndSafeAuthdClient</title>
<path fill="none" stroke="black" d="M1521.5,-248.937C1521.5,-241.016 1521.5,-231.949 1521.5,-223.357"/>
<polygon fill="black" stroke="black" points="1521.5,-213.223 1526,-223.223 1521.5,-218.223 1521.5,-223.223 1521.5,-223.223 1521.5,-223.223 1521.5,-218.223 1517,-223.223 1521.5,-213.223 1521.5,-213.223"/>
</g>
<!-- ndVersionHashError -->
<g id="node18" class="node"><title>ndVersionHashError</title>
<g id="a_node18_17"><a xlink:href="https://github.com/maidsafe/safe_network/blob/master/src/url/version_hash.rs#:~:text=enum%20VersionHashError" xlink:title="&lt;TABLE&gt;">
<polygon fill="yellow" stroke="none" points="1611.5,-253.5 1611.5,-290.5 1759.5,-290.5 1759.5,-253.5 1611.5,-253.5"/>
<polygon fill="none" stroke="black" points="1611.5,-253.5 1611.5,-290.5 1759.5,-290.5 1759.5,-253.5 1611.5,-253.5"/>
<text text-anchor="start" x="1622.5" y="-269.3" font-family="Arial" font-weight="bold" font-size="14.00">VersionHashError</text>
<polygon fill="none" stroke="black" points="1610.5,-253 1610.5,-292 1760.5,-292 1760.5,-253 1610.5,-253"/>
</a>
</g>
</g>
<!-- ndVersionHash -->
<g id="node19" class="node"><title>ndVersionHash</title>
<g id="a_node19_18"><a xlink:href="https://github.com/maidsafe/safe_network/blob/master/src/url/version_hash.rs#:~:text=struct%20VersionHash" xlink:title="&lt;TABLE&gt;">
<polygon fill="lightblue" stroke="none" points="451.5,-253.5 451.5,-290.5 562.5,-290.5 562.5,-253.5 451.5,-253.5"/>
<polygon fill="none" stroke="black" points="451.5,-253.5 451.5,-290.5 562.5,-290.5 562.5,-253.5 451.5,-253.5"/>
<text text-anchor="start" x="462.5" y="-269.3" font-family="Arial" font-weight="bold" font-size="14.00">VersionHash</text>
<polygon fill="none" stroke="black" points="450,-253 450,-292 563,-292 563,-253 450,-253"/>
</a>
</g>
</g>
<!-- ndVersionHash&#45;&gt;ndSafe -->
<g id="edge13" class="edge"><title>ndVersionHash&#45;&gt;ndSafe</title>
<path fill="none" stroke="black" d="M531.929,-248.808C562.418,-221.343 614.757,-173.374 657.5,-130 681.805,-105.336 708.2,-76.1408 727.15,-54.7221"/>
<polygon fill="black" stroke="black" points="733.777,-47.2056 730.539,-57.6826 730.47,-50.9561 727.164,-54.7065 727.164,-54.7065 727.164,-54.7065 730.47,-50.9561 723.788,-51.7304 733.777,-47.2056 733.777,-47.2056"/>
</g>
<!-- ndUrl -->
<g id="node24" class="node"><title>ndUrl</title>
<g id="a_node24_19"><a xlink:href="https://github.com/maidsafe/safe_network/blob/master/src/url/mod.rs#:~:text=struct%20Url" xlink:title="&lt;TABLE&gt;">
<polygon fill="lightblue" stroke="none" points="770.5,-170.5 770.5,-207.5 812.5,-207.5 812.5,-170.5 770.5,-170.5"/>
<polygon fill="none" stroke="black" points="770.5,-170.5 770.5,-207.5 812.5,-207.5 812.5,-170.5 770.5,-170.5"/>
<text text-anchor="start" x="781.5" y="-186.3" font-family="Arial" font-weight="bold" font-size="14.00">Url</text>
<polygon fill="none" stroke="black" points="769.5,-170 769.5,-209 813.5,-209 813.5,-170 769.5,-170"/>
</a>
</g>
</g>
<!-- ndVersionHash&#45;&gt;ndUrl -->
<g id="edge14" class="edge"><title>ndVersionHash&#45;&gt;ndUrl</title>
<path fill="none" stroke="black" d="M571.046,-251.772C574.24,-250.828 577.405,-249.899 580.5,-249 638.974,-232.007 706.885,-213.375 749.528,-201.809"/>
<polygon fill="black" stroke="black" points="749.801,-201.735 754.547,-196.306 761.384,-198.598 756.638,-204.027 749.801,-201.735"/>
</g>
<!-- ndXorUrlBase -->
<g id="node20" class="node"><title>ndXorUrlBase</title>
<g id="a_node20_20"><a xlink:href="https://github.com/maidsafe/safe_network/blob/master/src/url/mod.rs#:~:text=enum%20XorUrlBase" xlink:title="&lt;TABLE&gt;">
<polygon fill="yellow" stroke="none" points="985.5,-253.5 985.5,-290.5 1087.5,-290.5 1087.5,-253.5 985.5,-253.5"/>
<polygon fill="none" stroke="black" points="985.5,-253.5 985.5,-290.5 1087.5,-290.5 1087.5,-253.5 985.5,-253.5"/>
<text text-anchor="start" x="996.5" y="-269.3" font-family="Arial" font-weight="bold" font-size="14.00">XorUrlBase</text>
<polygon fill="none" stroke="black" points="984.5,-253 984.5,-292 1088.5,-292 1088.5,-253 984.5,-253"/>
</a>
</g>
</g>
<!-- ndXorUrlBase&#45;&gt;ndSafe -->
<g id="edge15" class="edge"><title>ndXorUrlBase&#45;&gt;ndSafe</title>
<path fill="none" stroke="black" d="M1034.93,-248.999C1030.94,-209.512 1016.96,-127.703 968.5,-83 922.694,-40.7429 849.394,-28.5036 801.344,-25.2363"/>
<polygon fill="black" stroke="black" points="801.088,-25.2222 794.876,-28.8851 789.106,-24.5602 795.317,-20.8973 801.088,-25.2222"/>
</g>
<!-- ndXorUrlBase&#45;&gt;ndUrl -->
<g id="edge16" class="edge"><title>ndXorUrlBase&#45;&gt;ndUrl</title>
<path fill="none" stroke="black" stroke-dasharray="5,2" d="M976.252,-251.581C931.06,-236.64 870.471,-216.609 831.21,-203.628"/>
<polygon fill="black" stroke="black" points="821.71,-200.488 832.617,-199.354 826.457,-202.057 831.204,-203.627 831.204,-203.627 831.204,-203.627 826.457,-202.057 829.792,-207.899 821.71,-200.488 821.71,-200.488"/>
</g>
<!-- ndContentType -->
<g id="node21" class="node"><title>ndContentType</title>
<g id="a_node21_21"><a xlink:href="https://github.com/maidsafe/safe_network/blob/master/src/url/mod.rs#:~:text=enum%20ContentType" xlink:title="&lt;TABLE&gt;">
<polygon fill="yellow" stroke="none" points="598.5,-253.5 598.5,-290.5 710.5,-290.5 710.5,-253.5 598.5,-253.5"/>
<polygon fill="none" stroke="black" points="598.5,-253.5 598.5,-290.5 710.5,-290.5 710.5,-253.5 598.5,-253.5"/>
<text text-anchor="start" x="609.5" y="-269.3" font-family="Arial" font-weight="bold" font-size="14.00">ContentType</text>
<polygon fill="none" stroke="black" points="597.5,-253 597.5,-292 711.5,-292 711.5,-253 597.5,-253"/>
</a>
</g>
</g>
<!-- ndContentType&#45;&gt;ndUrl -->
<g id="edge17" class="edge"><title>ndContentType&#45;&gt;ndUrl</title>
<path fill="none" stroke="black" stroke-dasharray="5,2" d="M692.662,-248.937C710.797,-238.215 732.486,-225.391 750.921,-214.492"/>
<polygon fill="black" stroke="black" points="751.018,-214.435 754.147,-207.938 761.347,-208.327 758.218,-214.824 751.018,-214.435"/>
</g>
<!-- ndDataType -->
<g id="node22" class="node"><title>ndDataType</title>
<g id="a_node22_22"><a xlink:href="https://github.com/maidsafe/safe_network/blob/master/src/url/mod.rs#:~:text=enum%20DataType" xlink:title="&lt;TABLE&gt;">
<polygon fill="yellow" stroke="none" points="747.5,-253.5 747.5,-290.5 836.5,-290.5 836.5,-253.5 747.5,-253.5"/>
<polygon fill="none" stroke="black" points="747.5,-253.5 747.5,-290.5 836.5,-290.5 836.5,-253.5 747.5,-253.5"/>
<text text-anchor="start" x="758.5" y="-269.3" font-family="Arial" font-weight="bold" font-size="14.00">DataType</text>
<polygon fill="none" stroke="black" points="746,-253 746,-292 837,-292 837,-253 746,-253"/>
</a>
</g>
</g>
<!-- ndDataType&#45;&gt;ndUrl -->
<g id="edge18" class="edge"><title>ndDataType&#45;&gt;ndUrl</title>
<path fill="none" stroke="black" d="M791.5,-248.937C791.5,-241.016 791.5,-231.949 791.5,-223.357"/>
<polygon fill="black" stroke="black" points="791.5,-213.223 796,-223.223 791.5,-218.223 791.5,-223.223 791.5,-223.223 791.5,-223.223 791.5,-218.223 787,-223.223 791.5,-213.223 791.5,-213.223"/>
</g>
<!-- ndUrlType -->
<g id="node23" class="node"><title>ndUrlType</title>
<g id="a_node23_23"><a xlink:href="https://github.com/maidsafe/safe_network/blob/master/src/url/mod.rs#:~:text=enum%20UrlType" xlink:title="&lt;TABLE&gt;">
<polygon fill="yellow" stroke="none" points="872.5,-253.5 872.5,-290.5 949.5,-290.5 949.5,-253.5 872.5,-253.5"/>
<polygon fill="none" stroke="black" points="872.5,-253.5 872.5,-290.5 949.5,-290.5 949.5,-253.5 872.5,-253.5"/>
<text text-anchor="start" x="883.5" y="-269.3" font-family="Arial" font-weight="bold" font-size="14.00">UrlType</text>
<polygon fill="none" stroke="black" points="871,-253 871,-292 950,-292 950,-253 871,-253"/>
</a>
</g>
</g>
<!-- ndUrlType&#45;&gt;ndUrl -->
<g id="edge19" class="edge"><title>ndUrlType&#45;&gt;ndUrl</title>
<path fill="none" stroke="black" d="M877.352,-248.937C863.159,-239.276 846.459,-227.909 831.58,-217.781"/>
<polygon fill="black" stroke="black" points="831.542,-217.756 824.332,-217.686 821.622,-211.004 828.833,-211.073 831.542,-217.756"/>
</g>
<!-- ndUrl&#45;&gt;ndSafe -->
<g id="edge20" class="edge"><title>ndUrl&#45;&gt;ndSafe</title>
<path fill="none" stroke="black" stroke-dasharray="5,2" d="M761.255,-165.847C750.705,-156.112 740.108,-143.793 734.5,-130 724.938,-106.485 730.959,-78.0784 738.672,-56.6681"/>
<polygon fill="black" stroke="black" points="742.409,-47.0694 742.975,-58.0207 740.595,-51.7288 738.781,-56.3882 738.781,-56.3882 738.781,-56.3882 740.595,-51.7288 734.588,-54.7556 742.409,-47.0694 742.409,-47.0694"/>
</g>
<!-- ndUrl&#45;&gt;ndNrsMap -->
<g id="edge21" class="edge"><title>ndUrl&#45;&gt;ndNrsMap</title>
<path fill="none" stroke="black" stroke-dasharray="5,2" d="M791.5,-165.937C791.5,-158.016 791.5,-148.949 791.5,-140.357"/>
<polygon fill="black" stroke="black" points="791.5,-130.223 796,-140.223 791.5,-135.223 791.5,-140.223 791.5,-140.223 791.5,-140.223 791.5,-135.223 787,-140.223 791.5,-130.223 791.5,-130.223"/>
</g>
<!-- ndUrl&#45;&gt;ndSafeData -->
<g id="edge22" class="edge"><title>ndUrl&#45;&gt;ndSafeData</title>
<path fill="none" stroke="black" d="M821.63,-167.64C835.441,-158.08 852.034,-146.592 867.001,-136.23"/>
<polygon fill="black" stroke="black" points="875.593,-130.282 869.932,-139.674 871.482,-133.128 867.371,-135.974 867.371,-135.974 867.371,-135.974 871.482,-133.128 864.809,-132.274 875.593,-130.282 875.593,-130.282"/>
</g>
<!-- ndUrlParts -->
<g id="node25" class="node"><title>ndUrlParts</title>
<g id="a_node25_24"><a xlink:href="https://github.com/maidsafe/safe_network/blob/master/src/url/url_parts.rs#:~:text=struct%20UrlParts" xlink:title="&lt;TABLE&gt;">
<polygon fill="lightblue" stroke="none" points="1796.5,-253.5 1796.5,-290.5 1875.5,-290.5 1875.5,-253.5 1796.5,-253.5"/>
<polygon fill="none" stroke="black" points="1796.5,-253.5 1796.5,-290.5 1875.5,-290.5 1875.5,-253.5 1796.5,-253.5"/>
<text text-anchor="start" x="1807.5" y="-269.3" font-family="Arial" font-weight="bold" font-size="14.00">UrlParts</text>
<polygon fill="none" stroke="black" points="1795,-253 1795,-292 1876,-292 1876,-253 1795,-253"/>
</a>
</g>
</g>
</g>
</svg>
