<?xml version="1.0" encoding="UTF-8" standalone="no"?>
<!DOCTYPE svg PUBLIC "-//W3C//DTD SVG 1.1//EN"
 "http://www.w3.org/Graphics/SVG/1.1/DTD/svg11.dtd">
<!-- Generated by graphviz version 2.38.0 (20140413.2041)
 -->
<!-- Title: ml Pages: 1 -->
<svg width="3155pt" height="872pt"
 viewBox="0.00 0.00 3154.50 872.00" xmlns="http://www.w3.org/2000/svg" xmlns:xlink="http://www.w3.org/1999/xlink">
<g id="graph0" class="graph" transform="scale(1 1) rotate(0) translate(4 868)">
<title>ml</title>
<polygon fill="white" stroke="none" points="-4,4 -4,-868 3150.5,-868 3150.5,4 -4,4"/>
<!-- ndIpcResp -->
<g id="node1" class="node"><title>ndIpcResp</title>
<g id="a_node1_0"><a xlink:href="https://github.com/maidsafe/safe_network/blob/master/src/ipc/resp.rs#:~:text=enum%20IpcResp" xlink:title="&lt;TABLE&gt;">
<polygon fill="yellow" stroke="none" points="615,-244 615,-281 921,-281 921,-244 615,-244"/>
<polygon fill="none" stroke="black" points="615,-244 615,-281 921,-281 921,-244 615,-244"/>
<text text-anchor="start" x="739.5" y="-259.8" font-family="Arial" font-weight="bold" font-size="14.00">IpcResp</text>
<polygon fill="white" stroke="none" points="615,-192 615,-244 921,-244 921,-192 615,-192"/>
<polygon fill="none" stroke="black" points="615,-192 615,-244 921,-244 921,-192 615,-192"/>
<text text-anchor="start" x="626" y="-221.8" font-family="Arial" font-size="14.00">Auth(Result&lt;AuthGranted, IpcError&gt;)</text>
<text text-anchor="start" x="626" y="-206.8" font-family="Arial" font-size="14.00">Unregistered(Result&lt;NodeConfig, IpcError&gt;)</text>
<polygon fill="none" stroke="black" points="614,-191.5 614,-282.5 922,-282.5 922,-191.5 614,-191.5"/>
</a>
</g>
</g>
<!-- ndIpcMsg -->
<g id="node6" class="node"><title>ndIpcMsg</title>
<g id="a_node6_1"><a xlink:href="https://github.com/maidsafe/safe_network/blob/master/src/ipc/mod.rs#:~:text=enum%20IpcMsg" xlink:title="&lt;TABLE&gt;">
<polygon fill="yellow" stroke="none" points="708,-72 708,-109 829,-109 829,-72 708,-72"/>
<polygon fill="none" stroke="black" points="708,-72 708,-109 829,-109 829,-72 708,-72"/>
<text text-anchor="start" x="742.5" y="-87.8" font-family="Arial" font-weight="bold" font-size="14.00">IpcMsg</text>
<polygon fill="white" stroke="none" points="708,-5 708,-72 829,-72 829,-5 708,-5"/>
<polygon fill="none" stroke="black" points="708,-5 708,-72 829,-72 829,-5 708,-5"/>
<text text-anchor="start" x="719" y="-49.8" font-family="Arial" font-size="14.00">Req(IpcReq)</text>
<text text-anchor="start" x="719" y="-34.8" font-family="Arial" font-size="14.00">Resp(IpcResp)</text>
<text text-anchor="start" x="719" y="-19.8" font-family="Arial" font-size="14.00">Err(IpcError)</text>
<polygon fill="none" stroke="black" points="706.5,-4 706.5,-110 829.5,-110 829.5,-4 706.5,-4"/>
</a>
</g>
</g>
<!-- ndIpcResp&#45;&gt;ndIpcMsg -->
<g id="edge1" class="edge"><title>ndIpcResp&#45;&gt;ndIpcMsg</title>
<path fill="none" stroke="black" d="M768,-187.361C768,-168.519 768,-146.615 768,-126.247"/>
<polygon fill="black" stroke="black" points="768,-126.137 764,-120.137 768,-114.137 772,-120.137 768,-126.137"/>
</g>
<!-- ndAuthGranted -->
<g id="node2" class="node"><title>ndAuthGranted</title>
<g id="a_node2_2"><a xlink:href="https://github.com/maidsafe/safe_network/blob/master/src/ipc/resp.rs#:~:text=struct%20AuthGranted" xlink:title="&lt;TABLE&gt;">
<polygon fill="lightblue" stroke="none" points="440,-506.5 440,-543.5 724,-543.5 724,-506.5 440,-506.5"/>
<polygon fill="none" stroke="black" points="440,-506.5 440,-543.5 724,-543.5 724,-506.5 440,-506.5"/>
<text text-anchor="start" x="537.5" y="-522.3" font-family="Arial" font-weight="bold" font-size="14.00">AuthGranted</text>
<polygon fill="white" stroke="none" points="440,-454.5 440,-506.5 724,-506.5 724,-454.5 440,-454.5"/>
<polygon fill="none" stroke="black" points="440,-454.5 440,-506.5 724,-506.5 724,-454.5 440,-454.5"/>
<text text-anchor="start" x="451" y="-484.3" font-family="Arial" font-size="14.00">+ app_keypair: Keypair</text>
<text text-anchor="start" x="451" y="-469.3" font-family="Arial" font-size="14.00">+ bootstrap_config: Option&lt;NodeConfig&gt;</text>
<polygon fill="none" stroke="black" points="439,-454 439,-545 725,-545 725,-454 439,-454"/>
</a>
</g>
</g>
<!-- ndAuthGranted&#45;&gt;ndIpcResp -->
<g id="edge2" class="edge"><title>ndAuthGranted&#45;&gt;ndIpcResp</title>
<path fill="none" stroke="black" d="M616.767,-449.808C647.722,-406.454 693.08,-342.928 726.043,-296.762"/>
<polygon fill="black" stroke="black" points="726.115,-296.661 726.346,-289.454 733.088,-286.895 732.857,-294.103 726.115,-296.661"/>
</g>
<!-- ndSafeAuthenticator -->
<g id="node8" class="node"><title>ndSafeAuthenticator</title>
<g id="a_node8_3"><a xlink:href="https://github.com/maidsafe/safe_network/blob/master/src/authenticator/mod.rs#:~:text=struct%20SafeAuthenticator" xlink:title="&lt;TABLE&gt;">
<polygon fill="lightblue" stroke="none" points="215,-252 215,-289 579,-289 579,-252 215,-252"/>
<polygon fill="none" stroke="black" points="215,-252 215,-289 579,-289 579,-252 215,-252"/>
<text text-anchor="start" x="334.5" y="-267.8" font-family="Arial" font-weight="bold" font-size="14.00">SafeAuthenticator</text>
<polygon fill="white" stroke="none" points="215,-185 215,-252 579,-252 579,-185 215,-185"/>
<polygon fill="none" stroke="black" points="215,-185 215,-252 579,-252 579,-185 215,-185"/>
<text text-anchor="start" x="226" y="-229.8" font-family="Arial" font-size="14.00">&#45; safe: Option&lt;(Client, RegisterAddress)&gt;</text>
<text text-anchor="start" x="226" y="-214.8" font-family="Arial" font-size="14.00">&#45; config_path: Option&lt;PathBuf&gt;</text>
<text text-anchor="start" x="226" y="-199.8" font-family="Arial" font-size="14.00">&#45; bootstrap_contacts: Option&lt;HashSet&lt;SocketAddr&gt;&gt;</text>
<polygon fill="none" stroke="black" points="214,-184 214,-290 580,-290 580,-184 214,-184"/>
</a>
</g>
</g>
<!-- ndAuthGranted&#45;&gt;ndSafeAuthenticator -->
<g id="edge3" class="edge"><title>ndAuthGranted&#45;&gt;ndSafeAuthenticator</title>
<path fill="none" stroke="black" d="M547.42,-449.808C517.884,-408.218 475.164,-348.064 442.792,-302.48"/>
<polygon fill="black" stroke="black" points="436.874,-294.146 446.333,-299.694 439.769,-298.223 442.664,-302.3 442.664,-302.3 442.664,-302.3 439.769,-298.223 438.995,-304.905 436.874,-294.146 436.874,-294.146"/>
</g>
<!-- ndIpcReq -->
<g id="node3" class="node"><title>ndIpcReq</title>
<g id="a_node3_4"><a xlink:href="https://github.com/maidsafe/safe_network/blob/master/src/ipc/req.rs#:~:text=enum%20IpcReq" xlink:title="&lt;TABLE&gt;">
<polygon fill="yellow" stroke="none" points="9,-244 9,-281 179,-281 179,-244 9,-244"/>
<polygon fill="none" stroke="black" points="9,-244 9,-281 179,-281 179,-244 9,-244"/>
<text text-anchor="start" x="69.5" y="-259.8" font-family="Arial" font-weight="bold" font-size="14.00">IpcReq</text>
<polygon fill="white" stroke="none" points="9,-192 9,-244 179,-244 179,-192 9,-192"/>
<polygon fill="none" stroke="black" points="9,-192 9,-244 179,-244 179,-192 9,-192"/>
<text text-anchor="start" x="20" y="-221.8" font-family="Arial" font-size="14.00">Auth(AuthReq)</text>
<text text-anchor="start" x="20" y="-206.8" font-family="Arial" font-size="14.00">Unregistered(Vec&lt;u8&gt;)</text>
<polygon fill="none" stroke="black" points="8,-191.5 8,-282.5 180,-282.5 180,-191.5 8,-191.5"/>
</a>
</g>
</g>
<!-- ndIpcReq&#45;&gt;ndIpcMsg -->
<g id="edge4" class="edge"><title>ndIpcReq&#45;&gt;ndIpcMsg</title>
<path fill="none" stroke="black" d="M141.34,-187.407C157.691,-173.24 176.969,-159.131 197,-150 359.422,-75.9578 571.614,-60.3843 686.13,-57.7803"/>
<polygon fill="black" stroke="black" points="686.254,-57.778 692.175,-53.6623 698.252,-57.5451 692.331,-61.6608 686.254,-57.778"/>
</g>
<!-- ndAuthReq -->
<g id="node4" class="node"><title>ndAuthReq</title>
<g id="a_node4_5"><a xlink:href="https://github.com/maidsafe/safe_network/blob/master/src/ipc/req.rs#:~:text=struct%20AuthReq" xlink:title="&lt;TABLE&gt;">
<polygon fill="lightblue" stroke="none" points="21,-521.5 21,-558.5 202,-558.5 202,-521.5 21,-521.5"/>
<polygon fill="none" stroke="black" points="21,-521.5 21,-558.5 202,-558.5 202,-521.5 21,-521.5"/>
<text text-anchor="start" x="81.5" y="-537.3" font-family="Arial" font-weight="bold" font-size="14.00">AuthReq</text>
<polygon fill="white" stroke="none" points="21,-439.5 21,-521.5 202,-521.5 202,-439.5 21,-439.5"/>
<polygon fill="none" stroke="black" points="21,-439.5 21,-521.5 202,-521.5 202,-439.5 21,-439.5"/>
<text text-anchor="start" x="32" y="-499.3" font-family="Arial" font-size="14.00">+ req_id: SafeAuthReqId</text>
<text text-anchor="start" x="32" y="-484.3" font-family="Arial" font-size="14.00">+ app_id: String</text>
<text text-anchor="start" x="32" y="-469.3" font-family="Arial" font-size="14.00">+ app_name: String</text>
<text text-anchor="start" x="32" y="-454.3" font-family="Arial" font-size="14.00">+ app_vendor: String</text>
<polygon fill="none" stroke="black" points="19.5,-439 19.5,-560 202.5,-560 202.5,-439 19.5,-439"/>
</a>
</g>
</g>
<!-- ndAuthReq&#45;&gt;ndIpcReq -->
<g id="edge5" class="edge"><title>ndAuthReq&#45;&gt;ndIpcReq</title>
<path fill="none" stroke="black" d="M106.841,-434.775C104.142,-393.413 100.645,-339.818 97.9814,-299.009"/>
<polygon fill="black" stroke="black" points="97.965,-298.756 93.5827,-293.03 97.1835,-286.782 101.566,-292.509 97.965,-298.756"/>
</g>
<!-- ndAuthReq&#45;&gt;ndSafeAuthenticator -->
<g id="edge6" class="edge"><title>ndAuthReq&#45;&gt;ndSafeAuthenticator</title>
<path fill="none" stroke="black" stroke-dasharray="5,2" d="M180.963,-434.775C225.517,-394.194 283,-341.836 327.469,-301.332"/>
<polygon fill="black" stroke="black" points="335.051,-294.426 330.688,-304.486 331.354,-297.793 327.658,-301.159 327.658,-301.159 327.658,-301.159 331.354,-297.793 324.628,-297.833 335.051,-294.426 335.051,-294.426"/>
</g>
<!-- ndIpcError -->
<g id="node5" class="node"><title>ndIpcError</title>
<g id="a_node5_6"><a xlink:href="https://github.com/maidsafe/safe_network/blob/master/src/ipc/errors.rs#:~:text=enum%20IpcError" xlink:title="&lt;TABLE&gt;">
<polygon fill="yellow" stroke="none" points="958,-267 958,-304 1113,-304 1113,-267 958,-267"/>
<polygon fill="none" stroke="black" points="958,-267 958,-304 1113,-304 1113,-267 958,-267"/>
<text text-anchor="start" x="1006.5" y="-282.8" font-family="Arial" font-weight="bold" font-size="14.00">IpcError</text>
<polygon fill="white" stroke="none" points="958,-170 958,-267 1113,-267 1113,-170 958,-170"/>
<polygon fill="none" stroke="black" points="958,-170 958,-267 1113,-267 1113,-170 958,-170"/>
<text text-anchor="start" x="969" y="-244.8" font-family="Arial" font-size="14.00">AuthDenied</text>
<text text-anchor="start" x="969" y="-229.8" font-family="Arial" font-size="14.00">InvalidMsg</text>
<text text-anchor="start" x="969" y="-214.8" font-family="Arial" font-size="14.00">EncodeDecodeError</text>
<text text-anchor="start" x="969" y="-199.8" font-family="Arial" font-size="14.00">AlreadyAuthorised</text>
<text text-anchor="start" x="969" y="-184.8" font-family="Arial" font-size="14.00">UnknownApp</text>
<polygon fill="none" stroke="black" points="956.5,-169 956.5,-305 1113.5,-305 1113.5,-169 956.5,-169"/>
</a>
</g>
</g>
<!-- ndIpcError&#45;&gt;ndIpcMsg -->
<g id="edge7" class="edge"><title>ndIpcError&#45;&gt;ndIpcMsg</title>
<path fill="none" stroke="black" d="M958.769,-164.878C952.23,-159.655 945.593,-154.628 939,-150 910.864,-130.249 878.011,-111.636 848.662,-96.3872"/>
<polygon fill="black" stroke="black" points="848.28,-96.1909 841.115,-97.0105 837.603,-90.7125 844.768,-89.8928 848.28,-96.1909"/>
</g>
<!-- ndError -->
<g id="node7" class="node"><title>ndError</title>
<g id="a_node7_7"><a xlink:href="https://github.com/maidsafe/safe_network/blob/master/src/safeurl/errors.rs#:~:text=enum%20Error" xlink:title="&lt;TABLE&gt;">
<polygon fill="yellow" stroke="none" points="1040,-72 1040,-109 1260,-109 1260,-72 1040,-72"/>
<polygon fill="none" stroke="black" points="1040,-72 1040,-109 1260,-109 1260,-72 1040,-72"/>
<text text-anchor="start" x="1131.5" y="-87.8" font-family="Arial" font-weight="bold" font-size="14.00">Error</text>
<polygon fill="white" stroke="none" points="1040,-5 1040,-72 1260,-72 1260,-5 1040,-5"/>
<polygon fill="none" stroke="black" points="1040,-5 1040,-72 1260,-72 1260,-5 1040,-5"/>
<text text-anchor="start" x="1051" y="-49.8" font-family="Arial" font-size="14.00">InvalidXorUrl(String)</text>
<text text-anchor="start" x="1051" y="-34.8" font-family="Arial" font-size="14.00">InvalidInput(String)</text>
<text text-anchor="start" x="1051" y="-19.8" font-family="Arial" font-size="14.00">UnsupportedMediaType(String)</text>
<polygon fill="none" stroke="black" points="1039,-4 1039,-110 1261,-110 1261,-4 1039,-4"/>
</a>
</g>
</g>
<!-- ndIpcError&#45;&gt;ndError -->
<g id="edge8" class="edge"><title>ndIpcError&#45;&gt;ndError</title>
<path fill="none" stroke="black" d="M1080.95,-164.882C1089.54,-151.587 1098.48,-137.736 1106.98,-124.584"/>
<polygon fill="black" stroke="black" points="1107.17,-124.29 1107.07,-117.08 1113.68,-114.211 1113.79,-121.421 1107.17,-124.29"/>
</g>
<!-- ndFilesMapChange -->
<g id="node9" class="node"><title>ndFilesMapChange</title>
<g id="a_node9_8"><a xlink:href="https://github.com/maidsafe/safe_network/blob/master/src/app/files/files_map.rs#:~:text=enum%20FilesMapChange" xlink:title="&lt;TABLE&gt;">
<polygon fill="yellow" stroke="none" points="1773,-791.5 1773,-828.5 1913,-828.5 1913,-791.5 1773,-791.5"/>
<polygon fill="none" stroke="black" points="1773,-791.5 1773,-828.5 1913,-828.5 1913,-791.5 1773,-791.5"/>
<text text-anchor="start" x="1784" y="-807.3" font-family="Arial" font-weight="bold" font-size="14.00">FilesMapChange</text>
<polygon fill="white" stroke="none" points="1773,-709.5 1773,-791.5 1913,-791.5 1913,-709.5 1773,-709.5"/>
<polygon fill="none" stroke="black" points="1773,-709.5 1773,-791.5 1913,-791.5 1913,-709.5 1773,-709.5"/>
<text text-anchor="start" x="1784" y="-769.3" font-family="Arial" font-size="14.00">Added(XorUrl)</text>
<text text-anchor="start" x="1784" y="-754.3" font-family="Arial" font-size="14.00">Updated(XorUrl)</text>
<text text-anchor="start" x="1784" y="-739.3" font-family="Arial" font-size="14.00">Removed(XorUrl)</text>
<text text-anchor="start" x="1784" y="-724.3" font-family="Arial" font-size="14.00">Failed(String)</text>
<polygon fill="none" stroke="black" points="1772,-709 1772,-830 1914,-830 1914,-709 1772,-709"/>
</a>
</g>
</g>
<!-- ndGetAttr -->
<g id="node10" class="node"><title>ndGetAttr</title>
<g id="a_node10_9"><a xlink:href="https://github.com/maidsafe/safe_network/blob/master/src/app/files/files_map.rs#:~:text=trait%20GetAttr" xlink:title="&lt;TABLE&gt;">
<polygon fill="lightgreen" stroke="none" points="1949,-750.5 1949,-787.5 2020,-787.5 2020,-750.5 1949,-750.5"/>
<polygon fill="none" stroke="black" points="1949,-750.5 1949,-787.5 2020,-787.5 2020,-750.5 1949,-750.5"/>
<text text-anchor="start" x="1960" y="-766.3" font-family="Arial" font-weight="bold" font-size="14.00">GetAttr</text>
<polygon fill="none" stroke="black" points="1947.5,-750 1947.5,-789 2020.5,-789 2020.5,-750 1947.5,-750"/>
</a>
</g>
</g>
<!-- ndFileMeta -->
<g id="node11" class="node"><title>ndFileMeta</title>
<g id="a_node11_10"><a xlink:href="https://github.com/maidsafe/safe_network/blob/master/src/app/files/metadata.rs#:~:text=struct%20FileMeta" xlink:title="&lt;TABLE&gt;">
<polygon fill="lightblue" stroke="none" points="2056,-821.5 2056,-858.5 2298,-858.5 2298,-821.5 2056,-821.5"/>
<polygon fill="none" stroke="black" points="2056,-821.5 2056,-858.5 2298,-858.5 2298,-821.5 2056,-821.5"/>
<text text-anchor="start" x="2147.5" y="-837.3" font-family="Arial" font-weight="bold" font-size="14.00">FileMeta</text>
<polygon fill="white" stroke="none" points="2056,-679.5 2056,-821.5 2298,-821.5 2298,-679.5 2056,-679.5"/>
<polygon fill="none" stroke="black" points="2056,-679.5 2056,-821.5 2298,-821.5 2298,-679.5 2056,-679.5"/>
<text text-anchor="start" x="2067" y="-799.3" font-family="Arial" font-size="14.00">&#45; created: String</text>
<text text-anchor="start" x="2067" y="-784.3" font-family="Arial" font-size="14.00">&#45; modified: String</text>
<text text-anchor="start" x="2067" y="-769.3" font-family="Arial" font-size="14.00">&#45; file_size: String</text>
<text text-anchor="start" x="2067" y="-754.3" font-family="Arial" font-size="14.00">&#45; file_type: String</text>
<text text-anchor="start" x="2067" y="-739.3" font-family="Arial" font-size="14.00">&#45; readonly: Option&lt;String&gt;</text>
<text text-anchor="start" x="2067" y="-724.3" font-family="Arial" font-size="14.00">&#45; mode_bits: Option&lt;String&gt;</text>
<text text-anchor="start" x="2067" y="-709.3" font-family="Arial" font-size="14.00">&#45; original_created: Option&lt;String&gt;</text>
<text text-anchor="start" x="2067" y="-694.3" font-family="Arial" font-size="14.00">&#45; original_modified: Option&lt;String&gt;</text>
<polygon fill="none" stroke="black" points="2055,-679 2055,-860 2299,-860 2299,-679 2055,-679"/>
</a>
</g>
</g>
<!-- ndRealPath -->
<g id="node12" class="node"><title>ndRealPath</title>
<g id="a_node12_11"><a xlink:href="https://github.com/maidsafe/safe_network/blob/master/src/app/files/realpath.rs#:~:text=trait%20RealPath" xlink:title="&lt;TABLE&gt;">
<polygon fill="lightgreen" stroke="none" points="2334,-750.5 2334,-787.5 2418,-787.5 2418,-750.5 2334,-750.5"/>
<polygon fill="none" stroke="black" points="2334,-750.5 2334,-787.5 2418,-787.5 2418,-750.5 2334,-750.5"/>
<text text-anchor="start" x="2345" y="-766.3" font-family="Arial" font-weight="bold" font-size="14.00">RealPath</text>
<polygon fill="none" stroke="black" points="2333,-750 2333,-789 2419,-789 2419,-750 2333,-750"/>
</a>
</g>
</g>
<!-- ndSafe -->
<g id="node13" class="node"><title>ndSafe</title>
<g id="a_node13_12"><a xlink:href="https://github.com/maidsafe/safe_network/blob/master/src/app/mod.rs#:~:text=struct%20Safe" xlink:title="&lt;TABLE&gt;">
<polygon fill="lightblue" stroke="none" points="1413,-72 1413,-109 1602,-109 1602,-72 1413,-72"/>
<polygon fill="none" stroke="black" points="1413,-72 1413,-109 1602,-109 1602,-72 1413,-72"/>
<text text-anchor="start" x="1492" y="-87.8" font-family="Arial" font-weight="bold" font-size="14.00">Safe</text>
<polygon fill="white" stroke="none" points="1413,-5 1413,-72 1602,-72 1602,-5 1413,-5"/>
<polygon fill="none" stroke="black" points="1413,-5 1413,-72 1602,-72 1602,-5 1413,-5"/>
<text text-anchor="start" x="1424" y="-49.8" font-family="Arial" font-size="14.00">&#45; client: Client</text>
<text text-anchor="start" x="1424" y="-34.8" font-family="Arial" font-size="14.00">+ xorurl_base: XorUrlBase</text>
<text text-anchor="start" x="1424" y="-19.8" font-family="Arial" font-size="14.00">+ dry_run_mode: bool</text>
<polygon fill="none" stroke="black" points="1411.5,-4 1411.5,-110 1602.5,-110 1602.5,-4 1411.5,-4"/>
</a>
</g>
</g>
<!-- ndNrsMap -->
<g id="node14" class="node"><title>ndNrsMap</title>
<g id="a_node14_13"><a xlink:href="https://github.com/maidsafe/safe_network/blob/master/src/app/nrs/nrs_map.rs#:~:text=struct%20NrsMap" xlink:title="&lt;TABLE&gt;">
<polygon fill="lightblue" stroke="none" points="1149,-237 1149,-274 1419,-274 1419,-237 1149,-237"/>
<polygon fill="none" stroke="black" points="1149,-237 1149,-274 1419,-274 1419,-237 1149,-237"/>
<text text-anchor="start" x="1256.5" y="-252.8" font-family="Arial" font-weight="bold" font-size="14.00">NrsMap</text>
<polygon fill="white" stroke="none" points="1149,-200 1149,-237 1419,-237 1419,-200 1149,-200"/>
<polygon fill="none" stroke="black" points="1149,-200 1149,-237 1419,-237 1419,-200 1149,-200"/>
<text text-anchor="start" x="1160" y="-214.8" font-family="Arial" font-size="14.00">+ map: BTreeMap&lt;SubName, SafeUrl&gt;</text>
<polygon fill="none" stroke="black" points="1148,-199 1148,-275 1420,-275 1420,-199 1148,-199"/>
</a>
</g>
</g>
<!-- ndNrsMap&#45;&gt;ndError -->
<g id="edge9" class="edge"><title>ndNrsMap&#45;&gt;ndError</title>
<path fill="none" stroke="black" d="M1252.92,-194.716C1237.09,-173.684 1217.46,-147.605 1199.6,-123.881"/>
<polygon fill="black" stroke="black" points="1199.55,-123.816 1192.74,-121.428 1192.33,-114.229 1199.13,-116.616 1199.55,-123.816"/>
</g>
<!-- ndNrsMap&#45;&gt;ndSafe -->
<g id="edge10" class="edge"><title>ndNrsMap&#45;&gt;ndSafe</title>
<path fill="none" stroke="black" d="M1335.44,-194.94C1363.07,-172.885 1397.71,-145.233 1428.62,-120.562"/>
<polygon fill="black" stroke="black" points="1436.81,-114.025 1431.8,-123.781 1432.9,-117.145 1429,-120.264 1429,-120.264 1429,-120.264 1432.9,-117.145 1426.19,-116.747 1436.81,-114.025 1436.81,-114.025"/>
</g>
<!-- ndSafeData -->
<g id="node15" class="node"><title>ndSafeData</title>
<g id="a_node15_14"><a xlink:href="https://github.com/maidsafe/safe_network/blob/master/src/app/resolver/safe_data.rs#:~:text=enum%20SafeData" xlink:title="&lt;TABLE&gt;">
<polygon fill="yellow" stroke="none" points="1493,-282 1493,-319 1625,-319 1625,-282 1493,-282"/>
<polygon fill="none" stroke="black" points="1493,-282 1493,-319 1625,-319 1625,-282 1493,-282"/>
<text text-anchor="start" x="1527.5" y="-297.8" font-family="Arial" font-weight="bold" font-size="14.00">SafeData</text>
<polygon fill="white" stroke="none" points="1493,-155 1493,-282 1625,-282 1625,-155 1493,-155"/>
<polygon fill="none" stroke="black" points="1493,-155 1493,-282 1625,-282 1625,-155 1493,-155"/>
<text text-anchor="start" x="1504" y="-259.8" font-family="Arial" font-size="14.00">SafeKey</text>
<text text-anchor="start" x="1504" y="-244.8" font-family="Arial" font-size="14.00">FilesContainer</text>
<text text-anchor="start" x="1504" y="-229.8" font-family="Arial" font-size="14.00">PublicFile</text>
<text text-anchor="start" x="1504" y="-214.8" font-family="Arial" font-size="14.00">NrsMapContainer</text>
<text text-anchor="start" x="1504" y="-199.8" font-family="Arial" font-size="14.00">Multimap</text>
<text text-anchor="start" x="1504" y="-184.8" font-family="Arial" font-size="14.00">PublicRegister</text>
<text text-anchor="start" x="1504" y="-169.8" font-family="Arial" font-size="14.00">PrivateRegister</text>
<polygon fill="none" stroke="black" points="1492,-154 1492,-320 1626,-320 1626,-154 1492,-154"/>
</a>
</g>
</g>
<!-- ndSafeData&#45;&gt;ndSafe -->
<g id="edge11" class="edge"><title>ndSafeData&#45;&gt;ndSafe</title>
<path fill="none" stroke="black" d="M1533.84,-149.868C1531.3,-141.193 1528.76,-132.483 1526.3,-124.066"/>
<polygon fill="black" stroke="black" points="1523.46,-114.339 1530.58,-122.676 1524.86,-119.139 1526.26,-123.938 1526.26,-123.938 1526.26,-123.938 1524.86,-119.139 1521.94,-125.2 1523.46,-114.339 1523.46,-114.339"/>
</g>
<!-- ndAuthdStatus -->
<g id="node16" class="node"><title>ndAuthdStatus</title>
<g id="a_node16_15"><a xlink:href="https://github.com/maidsafe/safe_network/blob/master/src/authd_client/authd_client_api.rs#:~:text=struct%20AuthdStatus" xlink:title="&lt;TABLE&gt;">
<polygon fill="lightblue" stroke="none" points="2454,-791.5 2454,-828.5 2621,-828.5 2621,-791.5 2454,-791.5"/>
<polygon fill="none" stroke="black" points="2454,-791.5 2454,-828.5 2621,-828.5 2621,-791.5 2454,-791.5"/>
<text text-anchor="start" x="2494.5" y="-807.3" font-family="Arial" font-weight="bold" font-size="14.00">AuthdStatus</text>
<polygon fill="white" stroke="none" points="2454,-709.5 2454,-791.5 2621,-791.5 2621,-709.5 2454,-709.5"/>
<polygon fill="none" stroke="black" points="2454,-709.5 2454,-791.5 2621,-791.5 2621,-709.5 2454,-709.5"/>
<text text-anchor="start" x="2465" y="-769.3" font-family="Arial" font-size="14.00">+ safe_unlocked: bool</text>
<text text-anchor="start" x="2465" y="-754.3" font-family="Arial" font-size="14.00">+ num_auth_reqs: u32</text>
<text text-anchor="start" x="2465" y="-739.3" font-family="Arial" font-size="14.00">+ num_notif_subs: u32</text>
<text text-anchor="start" x="2465" y="-724.3" font-family="Arial" font-size="14.00">+ authd_version: String</text>
<polygon fill="none" stroke="black" points="2452.5,-709 2452.5,-830 2621.5,-830 2621.5,-709 2452.5,-709"/>
</a>
</g>
</g>
<!-- ndSafeAuthdClient -->
<g id="node17" class="node"><title>ndSafeAuthdClient</title>
<g id="a_node17_16"><a xlink:href="https://github.com/maidsafe/safe_network/blob/master/src/authd_client/authd_client_api.rs#:~:text=struct%20SafeAuthdClient" xlink:title="&lt;TABLE&gt;">
<polygon fill="lightblue" stroke="none" points="2263,-506.5 2263,-543.5 2812,-543.5 2812,-506.5 2263,-506.5"/>
<polygon fill="none" stroke="black" points="2263,-506.5 2263,-543.5 2812,-543.5 2812,-506.5 2263,-506.5"/>
<text text-anchor="start" x="2481.5" y="-522.3" font-family="Arial" font-weight="bold" font-size="14.00">SafeAuthdClient</text>
<polygon fill="white" stroke="none" points="2263,-454.5 2263,-506.5 2812,-506.5 2812,-454.5 2263,-454.5"/>
<polygon fill="none" stroke="black" points="2263,-454.5 2263,-506.5 2812,-506.5 2812,-454.5 2263,-454.5"/>
<text text-anchor="start" x="2274" y="-484.3" font-family="Arial" font-size="14.00">+ authd_endpoint: String</text>
<text text-anchor="start" x="2274" y="-469.3" font-family="Arial" font-size="14.00">&#45; subscribed_endpoint: Option&lt;(String, task::JoinHandle&lt;()&gt;, task::JoinHandle&lt;()&gt;)&gt;</text>
<polygon fill="none" stroke="black" points="2261.5,-454 2261.5,-545 2812.5,-545 2812.5,-454 2261.5,-454"/>
</a>
</g>
</g>
<!-- ndAuthdStatus&#45;&gt;ndSafeAuthdClient -->
<g id="edge12" class="edge"><title>ndAuthdStatus&#45;&gt;ndSafeAuthdClient</title>
<path fill="none" stroke="black" d="M2537,-704.988C2537,-660.852 2537,-602.453 2537,-559.367"/>
<polygon fill="black" stroke="black" points="2537,-549.315 2541.5,-559.314 2537,-554.315 2537,-559.315 2537,-559.315 2537,-559.315 2537,-554.315 2532.5,-559.315 2537,-549.315 2537,-549.315"/>
</g>
<!-- ndVersionHashError -->
<g id="node18" class="node"><title>ndVersionHashError</title>
<g id="a_node18_17"><a xlink:href="https://github.com/maidsafe/safe_network/blob/master/src/safeurl/version_hash.rs#:~:text=enum%20VersionHashError" xlink:title="&lt;TABLE&gt;">
<polygon fill="yellow" stroke="none" points="2656,-784.5 2656,-821.5 2880,-821.5 2880,-784.5 2656,-784.5"/>
<polygon fill="none" stroke="black" points="2656,-784.5 2656,-821.5 2880,-821.5 2880,-784.5 2656,-784.5"/>
<text text-anchor="start" x="2705" y="-800.3" font-family="Arial" font-weight="bold" font-size="14.00">VersionHashError</text>
<polygon fill="white" stroke="none" points="2656,-717.5 2656,-784.5 2880,-784.5 2880,-717.5 2656,-717.5"/>
<polygon fill="none" stroke="black" points="2656,-717.5 2656,-784.5 2880,-784.5 2880,-717.5 2656,-717.5"/>
<text text-anchor="start" x="2667" y="-762.3" font-family="Arial" font-size="14.00">DecodingError(multibase::Error)</text>
<text text-anchor="start" x="2667" y="-747.3" font-family="Arial" font-size="14.00">InvalidHashLength</text>
<text text-anchor="start" x="2667" y="-732.3" font-family="Arial" font-size="14.00">InvalidEncoding</text>
<polygon fill="none" stroke="black" points="2655,-716.5 2655,-822.5 2881,-822.5 2881,-716.5 2655,-716.5"/>
</a>
</g>
</g>
<!-- ndVersionHash -->
<g id="node19" class="node"><title>ndVersionHash</title>
<g id="a_node19_18"><a xlink:href="https://github.com/maidsafe/safe_network/blob/master/src/safeurl/version_hash.rs#:~:text=struct%20VersionHash" xlink:title="&lt;TABLE&gt;">
<polygon fill="lightblue" stroke="none" points="1014,-769.5 1014,-806.5 1186,-806.5 1186,-769.5 1014,-769.5"/>
<polygon fill="none" stroke="black" points="1014,-769.5 1014,-806.5 1186,-806.5 1186,-769.5 1014,-769.5"/>
<text text-anchor="start" x="1055.5" y="-785.3" font-family="Arial" font-weight="bold" font-size="14.00">VersionHash</text>
<polygon fill="white" stroke="none" points="1014,-732.5 1014,-769.5 1186,-769.5 1186,-732.5 1014,-732.5"/>
<polygon fill="none" stroke="black" points="1014,-732.5 1014,-769.5 1186,-769.5 1186,-732.5 1014,-732.5"/>
<text text-anchor="start" x="1025" y="-747.3" font-family="Arial" font-size="14.00">&#45; entry_hash: EntryHash</text>
<polygon fill="none" stroke="black" points="1013,-731.5 1013,-807.5 1187,-807.5 1187,-731.5 1013,-731.5"/>
</a>
</g>
</g>
<!-- ndSafeUrl -->
<g id="node24" class="node"><title>ndSafeUrl</title>
<g id="a_node24_19"><a xlink:href="https://github.com/maidsafe/safe_network/blob/master/src/safeurl/mod.rs#:~:text=struct%20SafeUrl" xlink:title="&lt;TABLE&gt;">
<polygon fill="lightblue" stroke="none" points="1307,-596.5 1307,-633.5 1585,-633.5 1585,-596.5 1307,-596.5"/>
<polygon fill="none" stroke="black" points="1307,-596.5 1307,-633.5 1585,-633.5 1585,-596.5 1307,-596.5"/>
<text text-anchor="start" x="1420.5" y="-612.3" font-family="Arial" font-weight="bold" font-size="14.00">SafeUrl</text>
<polygon fill="white" stroke="none" points="1307,-364.5 1307,-596.5 1585,-596.5 1585,-364.5 1307,-364.5"/>
<polygon fill="none" stroke="black" points="1307,-364.5 1307,-596.5 1585,-596.5 1585,-364.5 1307,-364.5"/>
<text text-anchor="start" x="1318" y="-574.3" font-family="Arial" font-size="14.00">&#45; encoding_version: u64</text>
<text text-anchor="start" x="1318" y="-559.3" font-family="Arial" font-size="14.00">&#45; public_name: String</text>
<text text-anchor="start" x="1318" y="-544.3" font-family="Arial" font-size="14.00">&#45; top_name: String</text>
<text text-anchor="start" x="1318" y="-529.3" font-family="Arial" font-size="14.00">&#45; sub_names: String</text>
<text text-anchor="start" x="1318" y="-514.3" font-family="Arial" font-size="14.00">&#45; sub_names_vec: Vec&lt;String&gt;</text>
<text text-anchor="start" x="1318" y="-499.3" font-family="Arial" font-size="14.00">&#45; type_tag: u64</text>
<text text-anchor="start" x="1318" y="-484.3" font-family="Arial" font-size="14.00">&#45; address: DataAddress</text>
<text text-anchor="start" x="1318" y="-469.3" font-family="Arial" font-size="14.00">&#45; content_type: ContentType</text>
<text text-anchor="start" x="1318" y="-454.3" font-family="Arial" font-size="14.00">&#45; content_type_u16: u16</text>
<text text-anchor="start" x="1318" y="-439.3" font-family="Arial" font-size="14.00">&#45; path: String</text>
<text text-anchor="start" x="1318" y="-424.3" font-family="Arial" font-size="14.00">&#45; query_string: String</text>
<text text-anchor="start" x="1318" y="-409.3" font-family="Arial" font-size="14.00">&#45; fragment: String</text>
<text text-anchor="start" x="1318" y="-394.3" font-family="Arial" font-size="14.00">&#45; content_version: Option&lt;VersionHash&gt;</text>
<text text-anchor="start" x="1318" y="-379.3" font-family="Arial" font-size="14.00">&#45; url_type: UrlType</text>
<polygon fill="none" stroke="black" points="1306,-364 1306,-635 1586,-635 1586,-364 1306,-364"/>
</a>
</g>
</g>
<!-- ndVersionHash&#45;&gt;ndSafeUrl -->
<g id="edge13" class="edge"><title>ndVersionHash&#45;&gt;ndSafeUrl</title>
<path fill="none" stroke="black" d="M1143.62,-727.384C1161.89,-710.67 1183.59,-691.458 1204,-675 1230.6,-653.553 1259.57,-631.571 1287.91,-610.754"/>
<polygon fill="black" stroke="black" points="1288.21,-610.529 1290.69,-603.758 1297.9,-603.443 1295.42,-610.214 1288.21,-610.529"/>
</g>
<!-- ndXorUrlBase -->
<g id="node20" class="node"><title>ndXorUrlBase</title>
<g id="a_node20_20"><a xlink:href="https://github.com/maidsafe/safe_network/blob/master/src/safeurl/mod.rs#:~:text=enum%20XorUrlBase" xlink:title="&lt;TABLE&gt;">
<polygon fill="yellow" stroke="none" points="1635,-784.5 1635,-821.5 1737,-821.5 1737,-784.5 1635,-784.5"/>
<polygon fill="none" stroke="black" points="1635,-784.5 1635,-821.5 1737,-821.5 1737,-784.5 1635,-784.5"/>
<text text-anchor="start" x="1646" y="-800.3" font-family="Arial" font-weight="bold" font-size="14.00">XorUrlBase</text>
<polygon fill="white" stroke="none" points="1635,-717.5 1635,-784.5 1737,-784.5 1737,-717.5 1635,-717.5"/>
<polygon fill="none" stroke="black" points="1635,-717.5 1635,-784.5 1737,-784.5 1737,-717.5 1635,-717.5"/>
<text text-anchor="start" x="1646" y="-762.3" font-family="Arial" font-size="14.00">Base32z</text>
<text text-anchor="start" x="1646" y="-747.3" font-family="Arial" font-size="14.00">Base32</text>
<text text-anchor="start" x="1646" y="-732.3" font-family="Arial" font-size="14.00">Base64</text>
<polygon fill="none" stroke="black" points="1634,-716.5 1634,-822.5 1738,-822.5 1738,-716.5 1634,-716.5"/>
</a>
</g>
</g>
<!-- ndXorUrlBase&#45;&gt;ndSafe -->
<g id="edge14" class="edge"><title>ndXorUrlBase&#45;&gt;ndSafe</title>
<path fill="none" stroke="black" d="M1697.46,-712.186C1717.66,-597.563 1748.19,-332.564 1643,-150 1636.8,-139.237 1628.77,-129.473 1619.71,-120.679"/>
<polygon fill="black" stroke="black" points="1619.63,-120.605 1612.5,-119.538 1610.74,-112.545 1617.87,-113.611 1619.63,-120.605"/>
</g>
<!-- ndXorUrlBase&#45;&gt;ndSafeUrl -->
<g id="edge15" class="edge"><title>ndXorUrlBase&#45;&gt;ndSafeUrl</title>
<path fill="none" stroke="black" stroke-dasharray="5,2" d="M1645.7,-712.2C1636.25,-699.711 1626.02,-686.712 1616,-675 1607.97,-665.615 1599.57,-656.102 1590.97,-646.611"/>
<polygon fill="black" stroke="black" points="1584.04,-639.007 1594.11,-643.366 1587.41,-642.702 1590.78,-646.398 1590.78,-646.398 1590.78,-646.398 1587.41,-642.702 1587.45,-649.429 1584.04,-639.007 1584.04,-639.007"/>
</g>
<!-- ndContentType -->
<g id="node21" class="node"><title>ndContentType</title>
<g id="a_node21_21"><a xlink:href="https://github.com/maidsafe/safe_network/blob/master/src/safeurl/mod.rs#:~:text=enum%20ContentType" xlink:title="&lt;TABLE&gt;">
<polygon fill="yellow" stroke="none" points="1222,-806.5 1222,-843.5 1360,-843.5 1360,-806.5 1222,-806.5"/>
<polygon fill="none" stroke="black" points="1222,-806.5 1222,-843.5 1360,-843.5 1360,-806.5 1222,-806.5"/>
<text text-anchor="start" x="1246" y="-822.3" font-family="Arial" font-weight="bold" font-size="14.00">ContentType</text>
<polygon fill="white" stroke="none" points="1222,-694.5 1222,-806.5 1360,-806.5 1360,-694.5 1222,-694.5"/>
<polygon fill="none" stroke="black" points="1222,-694.5 1222,-806.5 1360,-806.5 1360,-694.5 1222,-694.5"/>
<text text-anchor="start" x="1233" y="-784.3" font-family="Arial" font-size="14.00">Raw</text>
<text text-anchor="start" x="1233" y="-769.3" font-family="Arial" font-size="14.00">Wallet</text>
<text text-anchor="start" x="1233" y="-754.3" font-family="Arial" font-size="14.00">FilesContainer</text>
<text text-anchor="start" x="1233" y="-739.3" font-family="Arial" font-size="14.00">NrsMapContainer</text>
<text text-anchor="start" x="1233" y="-724.3" font-family="Arial" font-size="14.00">Multimap</text>
<text text-anchor="start" x="1233" y="-709.3" font-family="Arial" font-size="14.00">MediaType(String)</text>
<polygon fill="none" stroke="black" points="1221,-694 1221,-845 1361,-845 1361,-694 1221,-694"/>
</a>
</g>
</g>
<!-- ndContentType&#45;&gt;ndSafeUrl -->
<g id="edge16" class="edge"><title>ndContentType&#45;&gt;ndSafeUrl</title>
<path fill="none" stroke="black" stroke-dasharray="5,2" d="M1336.46,-689.902C1343.86,-677.102 1351.74,-663.483 1359.74,-649.646"/>
<polygon fill="black" stroke="black" points="1359.87,-649.42 1359.41,-642.224 1365.88,-639.032 1366.34,-646.229 1359.87,-649.42"/>
</g>
<!-- ndDataType -->
<g id="node22" class="node"><title>ndDataType</title>
<g id="a_node22_22"><a xlink:href="https://github.com/maidsafe/safe_network/blob/master/src/safeurl/mod.rs#:~:text=enum%20DataType" xlink:title="&lt;TABLE&gt;">
<polygon fill="yellow" stroke="none" points="1397,-784.5 1397,-821.5 1486,-821.5 1486,-784.5 1397,-784.5"/>
<polygon fill="none" stroke="black" points="1397,-784.5 1397,-821.5 1486,-821.5 1486,-784.5 1397,-784.5"/>
<text text-anchor="start" x="1408" y="-800.3" font-family="Arial" font-weight="bold" font-size="14.00">DataType</text>
<polygon fill="white" stroke="none" points="1397,-717.5 1397,-784.5 1486,-784.5 1486,-717.5 1397,-717.5"/>
<polygon fill="none" stroke="black" points="1397,-717.5 1397,-784.5 1486,-784.5 1486,-717.5 1397,-717.5"/>
<text text-anchor="start" x="1408" y="-762.3" font-family="Arial" font-size="14.00">SafeKey</text>
<text text-anchor="start" x="1408" y="-747.3" font-family="Arial" font-size="14.00">File</text>
<text text-anchor="start" x="1408" y="-732.3" font-family="Arial" font-size="14.00">Register</text>
<polygon fill="none" stroke="black" points="1395.5,-716.5 1395.5,-822.5 1486.5,-822.5 1486.5,-716.5 1395.5,-716.5"/>
</a>
</g>
</g>
<!-- ndDataType&#45;&gt;ndSafeUrl -->
<g id="edge17" class="edge"><title>ndDataType&#45;&gt;ndSafeUrl</title>
<path fill="none" stroke="black" d="M1442.05,-712.318C1442.4,-693.533 1442.81,-671.625 1443.23,-649.161"/>
<polygon fill="black" stroke="black" points="1443.41,-639.16 1447.73,-649.243 1443.32,-644.159 1443.23,-649.159 1443.23,-649.159 1443.23,-649.159 1443.32,-644.159 1438.73,-649.075 1443.41,-639.16 1443.41,-639.16"/>
</g>
<!-- ndUrlType -->
<g id="node23" class="node"><title>ndUrlType</title>
<g id="a_node23_23"><a xlink:href="https://github.com/maidsafe/safe_network/blob/master/src/safeurl/mod.rs#:~:text=enum%20UrlType" xlink:title="&lt;TABLE&gt;">
<polygon fill="yellow" stroke="none" points="1522,-776.5 1522,-813.5 1599,-813.5 1599,-776.5 1522,-776.5"/>
<polygon fill="none" stroke="black" points="1522,-776.5 1522,-813.5 1599,-813.5 1599,-776.5 1522,-776.5"/>
<text text-anchor="start" x="1533" y="-792.3" font-family="Arial" font-weight="bold" font-size="14.00">UrlType</text>
<polygon fill="white" stroke="none" points="1522,-724.5 1522,-776.5 1599,-776.5 1599,-724.5 1522,-724.5"/>
<polygon fill="none" stroke="black" points="1522,-724.5 1522,-776.5 1599,-776.5 1599,-724.5 1522,-724.5"/>
<text text-anchor="start" x="1533" y="-754.3" font-family="Arial" font-size="14.00">XorUrl</text>
<text text-anchor="start" x="1533" y="-739.3" font-family="Arial" font-size="14.00">NrsUrl</text>
<polygon fill="none" stroke="black" points="1520.5,-724 1520.5,-815 1599.5,-815 1599.5,-724 1520.5,-724"/>
</a>
</g>
</g>
<!-- ndUrlType&#45;&gt;ndSafeUrl -->
<g id="edge18" class="edge"><title>ndUrlType&#45;&gt;ndSafeUrl</title>
<path fill="none" stroke="black" d="M1539.36,-719.967C1530.83,-699.929 1520.45,-675.515 1509.74,-650.345"/>
<polygon fill="black" stroke="black" points="1509.67,-650.175 1503.64,-646.22 1504.97,-639.133 1511,-643.088 1509.67,-650.175"/>
</g>
<!-- ndSafeUrl&#45;&gt;ndSafe -->
<g id="edge19" class="edge"><title>ndSafeUrl&#45;&gt;ndSafe</title>
<path fill="none" stroke="black" stroke-dasharray="5,2" d="M1449.53,-359.956C1453.2,-295.565 1460.52,-218.302 1475,-150 1476.81,-141.466 1479.19,-132.636 1481.83,-123.975"/>
<polygon fill="black" stroke="black" points="1484.92,-114.294 1486.17,-125.188 1483.4,-119.058 1481.88,-123.821 1481.88,-123.821 1481.88,-123.821 1483.4,-119.058 1477.6,-122.455 1484.92,-114.294 1484.92,-114.294"/>
</g>
<!-- ndSafeUrl&#45;&gt;ndNrsMap -->
<g id="edge20" class="edge"><title>ndSafeUrl&#45;&gt;ndNrsMap</title>
<path fill="none" stroke="black" d="M1359.78,-359.86C1343.72,-334.025 1327.92,-308.631 1314.95,-287.768"/>
<polygon fill="black" stroke="black" points="1309.57,-279.116 1318.67,-285.232 1312.21,-283.362 1314.85,-287.608 1314.85,-287.608 1314.85,-287.608 1312.21,-283.362 1311.03,-289.985 1309.57,-279.116 1309.57,-279.116"/>
</g>
<!-- ndSafeUrl&#45;&gt;ndSafeData -->
<g id="edge21" class="edge"><title>ndSafeUrl&#45;&gt;ndSafeData</title>
<path fill="none" stroke="black" d="M1506.14,-359.86C1510.01,-350.937 1513.86,-342.067 1517.61,-333.417"/>
<polygon fill="black" stroke="black" points="1521.64,-324.127 1521.79,-335.092 1519.65,-328.714 1517.66,-333.301 1517.66,-333.301 1517.66,-333.301 1519.65,-328.714 1513.53,-331.51 1521.64,-324.127 1521.64,-324.127"/>
</g>
<!-- ndUrlParts -->
<g id="node25" class="node"><title>ndUrlParts</title>
<g id="a_node25_24"><a xlink:href="https://github.com/maidsafe/safe_network/blob/master/src/safeurl/url_parts.rs#:~:text=struct%20UrlParts" xlink:title="&lt;TABLE&gt;">
<polygon fill="lightblue" stroke="none" points="2917,-821.5 2917,-858.5 3138,-858.5 3138,-821.5 2917,-821.5"/>
<polygon fill="none" stroke="black" points="2917,-821.5 2917,-858.5 3138,-858.5 3138,-821.5 2917,-821.5"/>
<text text-anchor="start" x="2999" y="-837.3" font-family="Arial" font-weight="bold" font-size="14.00">UrlParts</text>
<polygon fill="white" stroke="none" points="2917,-679.5 2917,-821.5 3138,-821.5 3138,-679.5 2917,-679.5"/>
<polygon fill="none" stroke="black" points="2917,-679.5 2917,-821.5 3138,-821.5 3138,-679.5 2917,-679.5"/>
<text text-anchor="start" x="2928" y="-799.3" font-family="Arial" font-size="14.00">&#45; scheme: String</text>
<text text-anchor="start" x="2928" y="-784.3" font-family="Arial" font-size="14.00">&#45; public_name: String</text>
<text text-anchor="start" x="2928" y="-769.3" font-family="Arial" font-size="14.00">&#45; top_name: String</text>
<text text-anchor="start" x="2928" y="-754.3" font-family="Arial" font-size="14.00">&#45; sub_names: String</text>
<text text-anchor="start" x="2928" y="-739.3" font-family="Arial" font-size="14.00">&#45; sub_names_vec: Vec&lt;String&gt;</text>
<text text-anchor="start" x="2928" y="-724.3" font-family="Arial" font-size="14.00">&#45; path: String</text>
<text text-anchor="start" x="2928" y="-709.3" font-family="Arial" font-size="14.00">&#45; query_string: String</text>
<text text-anchor="start" x="2928" y="-694.3" font-family="Arial" font-size="14.00">&#45; fragment: String</text>
<polygon fill="none" stroke="black" points="2915.5,-679 2915.5,-860 3138.5,-860 3138.5,-679 2915.5,-679"/>
</a>
</g>
</g>
</g>
</svg>
