<?xml version="1.0" encoding="UTF-8" standalone="no"?>
<!DOCTYPE svg PUBLIC "-//W3C//DTD SVG 1.1//EN"
 "http://www.w3.org/Graphics/SVG/1.1/DTD/svg11.dtd">
<!-- Generated by graphviz version 2.38.0 (20140413.2041)
 -->
<!-- Title: ml Pages: 1 -->
<svg width="3228pt" height="872pt"
 viewBox="0.00 0.00 3227.50 872.00" xmlns="http://www.w3.org/2000/svg" xmlns:xlink="http://www.w3.org/1999/xlink">
<g id="graph0" class="graph" transform="scale(1 1) rotate(0) translate(4 868)">
<title>ml</title>
<polygon fill="white" stroke="none" points="-4,4 -4,-868 3223.5,-868 3223.5,4 -4,4"/>
<!-- ndIpcResp -->
<g id="node1" class="node"><title>ndIpcResp</title>
<g id="a_node1_0"><a xlink:href="https://github.com/maidsafe/safe_network/blob/master/src/ipc/resp.rs#:~:text=enum%20IpcResp" xlink:title="&lt;TABLE&gt;">
<polygon fill="yellow" stroke="none" points="615,-244 615,-281 921,-281 921,-244 615,-244"/>
<polygon fill="none" stroke="black" points="615,-244 615,-281 921,-281 921,-244 615,-244"/>
<text text-anchor="start" x="739.5" y="-259.8" font-family="Arial" font-weight="bold" font-size="14.00">IpcResp</text>
<polygon fill="white" stroke="none" points="615,-192 615,-244 921,-244 921,-192 615,-192"/>
<polygon fill="none" stroke="black" points="615,-192 615,-244 921,-244 921,-192 615,-192"/>
<text text-anchor="start" x="626" y="-221.8" font-family="Arial" font-size="14.00">Auth(Result&lt;AuthGranted, IpcError&gt;)</text>
<text text-anchor="start" x="626" y="-206.8" font-family="Arial" font-size="14.00">Unregistered(Result&lt;NodeConfig, IpcError&gt;)</text>
<polygon fill="none" stroke="black" points="614,-191.5 614,-282.5 922,-282.5 922,-191.5 614,-191.5"/>
</a>
</g>
</g>
<!-- ndIpcMsg -->
<g id="node6" class="node"><title>ndIpcMsg</title>
<g id="a_node6_1"><a xlink:href="https://github.com/maidsafe/safe_network/blob/master/src/ipc/mod.rs#:~:text=enum%20IpcMsg" xlink:title="&lt;TABLE&gt;">
<polygon fill="yellow" stroke="none" points="708,-72 708,-109 829,-109 829,-72 708,-72"/>
<polygon fill="none" stroke="black" points="708,-72 708,-109 829,-109 829,-72 708,-72"/>
<text text-anchor="start" x="742.5" y="-87.8" font-family="Arial" font-weight="bold" font-size="14.00">IpcMsg</text>
<polygon fill="white" stroke="none" points="708,-5 708,-72 829,-72 829,-5 708,-5"/>
<polygon fill="none" stroke="black" points="708,-5 708,-72 829,-72 829,-5 708,-5"/>
<text text-anchor="start" x="719" y="-49.8" font-family="Arial" font-size="14.00">Req(IpcReq)</text>
<text text-anchor="start" x="719" y="-34.8" font-family="Arial" font-size="14.00">Resp(IpcResp)</text>
<text text-anchor="start" x="719" y="-19.8" font-family="Arial" font-size="14.00">Err(IpcError)</text>
<polygon fill="none" stroke="black" points="706.5,-4 706.5,-110 829.5,-110 829.5,-4 706.5,-4"/>
</a>
</g>
</g>
<!-- ndIpcResp&#45;&gt;ndIpcMsg -->
<g id="edge1" class="edge"><title>ndIpcResp&#45;&gt;ndIpcMsg</title>
<path fill="none" stroke="black" d="M768,-187.361C768,-168.519 768,-146.615 768,-126.247"/>
<polygon fill="black" stroke="black" points="768,-126.137 764,-120.137 768,-114.137 772,-120.137 768,-126.137"/>
</g>
<!-- ndAuthGranted -->
<g id="node2" class="node"><title>ndAuthGranted</title>
<g id="a_node2_2"><a xlink:href="https://github.com/maidsafe/safe_network/blob/master/src/ipc/resp.rs#:~:text=struct%20AuthGranted" xlink:title="&lt;TABLE&gt;">
<polygon fill="lightblue" stroke="none" points="440,-506.5 440,-543.5 724,-543.5 724,-506.5 440,-506.5"/>
<polygon fill="none" stroke="black" points="440,-506.5 440,-543.5 724,-543.5 724,-506.5 440,-506.5"/>
<text text-anchor="start" x="537.5" y="-522.3" font-family="Arial" font-weight="bold" font-size="14.00">AuthGranted</text>
<polygon fill="white" stroke="none" points="440,-454.5 440,-506.5 724,-506.5 724,-454.5 440,-454.5"/>
<polygon fill="none" stroke="black" points="440,-454.5 440,-506.5 724,-506.5 724,-454.5 440,-454.5"/>
<text text-anchor="start" x="451" y="-484.3" font-family="Arial" font-size="14.00">+ app_keypair: Keypair</text>
<text text-anchor="start" x="451" y="-469.3" font-family="Arial" font-size="14.00">+ bootstrap_config: Option&lt;NodeConfig&gt;</text>
<polygon fill="none" stroke="black" points="439,-454 439,-545 725,-545 725,-454 439,-454"/>
</a>
</g>
</g>
<!-- ndAuthGranted&#45;&gt;ndIpcResp -->
<g id="edge2" class="edge"><title>ndAuthGranted&#45;&gt;ndIpcResp</title>
<path fill="none" stroke="black" d="M616.767,-449.808C647.722,-406.454 693.08,-342.928 726.043,-296.762"/>
<polygon fill="black" stroke="black" points="726.115,-296.661 726.346,-289.454 733.088,-286.895 732.857,-294.103 726.115,-296.661"/>
</g>
<!-- ndSafeAuthenticator -->
<g id="node8" class="node"><title>ndSafeAuthenticator</title>
<g id="a_node8_3"><a xlink:href="https://github.com/maidsafe/safe_network/blob/master/src/authenticator/mod.rs#:~:text=struct%20SafeAuthenticator" xlink:title="&lt;TABLE&gt;">
<polygon fill="lightblue" stroke="none" points="215,-252 215,-289 579,-289 579,-252 215,-252"/>
<polygon fill="none" stroke="black" points="215,-252 215,-289 579,-289 579,-252 215,-252"/>
<text text-anchor="start" x="334.5" y="-267.8" font-family="Arial" font-weight="bold" font-size="14.00">SafeAuthenticator</text>
<polygon fill="white" stroke="none" points="215,-185 215,-252 579,-252 579,-185 215,-185"/>
<polygon fill="none" stroke="black" points="215,-185 215,-252 579,-252 579,-185 215,-185"/>
<text text-anchor="start" x="226" y="-229.8" font-family="Arial" font-size="14.00">&#45; safe: Option&lt;(Client, RegisterAddress)&gt;</text>
<text text-anchor="start" x="226" y="-214.8" font-family="Arial" font-size="14.00">&#45; config_path: Option&lt;PathBuf&gt;</text>
<text text-anchor="start" x="226" y="-199.8" font-family="Arial" font-size="14.00">&#45; bootstrap_contacts: Option&lt;HashSet&lt;SocketAddr&gt;&gt;</text>
<polygon fill="none" stroke="black" points="214,-184 214,-290 580,-290 580,-184 214,-184"/>
</a>
</g>
</g>
<!-- ndAuthGranted&#45;&gt;ndSafeAuthenticator -->
<g id="edge3" class="edge"><title>ndAuthGranted&#45;&gt;ndSafeAuthenticator</title>
<path fill="none" stroke="black" d="M547.42,-449.808C517.884,-408.218 475.164,-348.064 442.792,-302.48"/>
<polygon fill="black" stroke="black" points="436.874,-294.146 446.333,-299.694 439.769,-298.223 442.664,-302.3 442.664,-302.3 442.664,-302.3 439.769,-298.223 438.995,-304.905 436.874,-294.146 436.874,-294.146"/>
</g>
<!-- ndIpcReq -->
<g id="node3" class="node"><title>ndIpcReq</title>
<g id="a_node3_4"><a xlink:href="https://github.com/maidsafe/safe_network/blob/master/src/ipc/req.rs#:~:text=enum%20IpcReq" xlink:title="&lt;TABLE&gt;">
<polygon fill="yellow" stroke="none" points="9,-244 9,-281 179,-281 179,-244 9,-244"/>
<polygon fill="none" stroke="black" points="9,-244 9,-281 179,-281 179,-244 9,-244"/>
<text text-anchor="start" x="69.5" y="-259.8" font-family="Arial" font-weight="bold" font-size="14.00">IpcReq</text>
<polygon fill="white" stroke="none" points="9,-192 9,-244 179,-244 179,-192 9,-192"/>
<polygon fill="none" stroke="black" points="9,-192 9,-244 179,-244 179,-192 9,-192"/>
<text text-anchor="start" x="20" y="-221.8" font-family="Arial" font-size="14.00">Auth(AuthReq)</text>
<text text-anchor="start" x="20" y="-206.8" font-family="Arial" font-size="14.00">Unregistered(Vec&lt;u8&gt;)</text>
<polygon fill="none" stroke="black" points="8,-191.5 8,-282.5 180,-282.5 180,-191.5 8,-191.5"/>
</a>
</g>
</g>
<!-- ndIpcReq&#45;&gt;ndIpcMsg -->
<g id="edge4" class="edge"><title>ndIpcReq&#45;&gt;ndIpcMsg</title>
<path fill="none" stroke="black" d="M141.34,-187.407C157.691,-173.24 176.969,-159.131 197,-150 359.422,-75.9578 571.614,-60.3843 686.13,-57.7803"/>
<polygon fill="black" stroke="black" points="686.254,-57.778 692.175,-53.6623 698.252,-57.5451 692.331,-61.6608 686.254,-57.778"/>
</g>
<!-- ndAuthReq -->
<g id="node4" class="node"><title>ndAuthReq</title>
<g id="a_node4_5"><a xlink:href="https://github.com/maidsafe/safe_network/blob/master/src/ipc/req.rs#:~:text=struct%20AuthReq" xlink:title="&lt;TABLE&gt;">
<polygon fill="lightblue" stroke="none" points="21,-521.5 21,-558.5 202,-558.5 202,-521.5 21,-521.5"/>
<polygon fill="none" stroke="black" points="21,-521.5 21,-558.5 202,-558.5 202,-521.5 21,-521.5"/>
<text text-anchor="start" x="81.5" y="-537.3" font-family="Arial" font-weight="bold" font-size="14.00">AuthReq</text>
<polygon fill="white" stroke="none" points="21,-439.5 21,-521.5 202,-521.5 202,-439.5 21,-439.5"/>
<polygon fill="none" stroke="black" points="21,-439.5 21,-521.5 202,-521.5 202,-439.5 21,-439.5"/>
<text text-anchor="start" x="32" y="-499.3" font-family="Arial" font-size="14.00">+ req_id: SafeAuthReqId</text>
<text text-anchor="start" x="32" y="-484.3" font-family="Arial" font-size="14.00">+ app_id: String</text>
<text text-anchor="start" x="32" y="-469.3" font-family="Arial" font-size="14.00">+ app_name: String</text>
<text text-anchor="start" x="32" y="-454.3" font-family="Arial" font-size="14.00">+ app_vendor: String</text>
<polygon fill="none" stroke="black" points="19.5,-439 19.5,-560 202.5,-560 202.5,-439 19.5,-439"/>
</a>
</g>
</g>
<!-- ndAuthReq&#45;&gt;ndIpcReq -->
<g id="edge5" class="edge"><title>ndAuthReq&#45;&gt;ndIpcReq</title>
<path fill="none" stroke="black" d="M106.841,-434.775C104.142,-393.413 100.645,-339.818 97.9814,-299.009"/>
<polygon fill="black" stroke="black" points="97.965,-298.756 93.5827,-293.03 97.1835,-286.782 101.566,-292.509 97.965,-298.756"/>
</g>
<!-- ndAuthReq&#45;&gt;ndSafeAuthenticator -->
<g id="edge6" class="edge"><title>ndAuthReq&#45;&gt;ndSafeAuthenticator</title>
<path fill="none" stroke="black" stroke-dasharray="5,2" d="M180.963,-434.775C225.517,-394.194 283,-341.836 327.469,-301.332"/>
<polygon fill="black" stroke="black" points="335.051,-294.426 330.688,-304.486 331.354,-297.793 327.658,-301.159 327.658,-301.159 327.658,-301.159 331.354,-297.793 324.628,-297.833 335.051,-294.426 335.051,-294.426"/>
</g>
<!-- ndIpcError -->
<g id="node5" class="node"><title>ndIpcError</title>
<g id="a_node5_6"><a xlink:href="https://github.com/maidsafe/safe_network/blob/master/src/ipc/errors.rs#:~:text=enum%20IpcError" xlink:title="&lt;TABLE&gt;">
<polygon fill="yellow" stroke="none" points="958,-267 958,-304 1113,-304 1113,-267 958,-267"/>
<polygon fill="none" stroke="black" points="958,-267 958,-304 1113,-304 1113,-267 958,-267"/>
<text text-anchor="start" x="1006.5" y="-282.8" font-family="Arial" font-weight="bold" font-size="14.00">IpcError</text>
<polygon fill="white" stroke="none" points="958,-170 958,-267 1113,-267 1113,-170 958,-170"/>
<polygon fill="none" stroke="black" points="958,-170 958,-267 1113,-267 1113,-170 958,-170"/>
<text text-anchor="start" x="969" y="-244.8" font-family="Arial" font-size="14.00">AuthDenied</text>
<text text-anchor="start" x="969" y="-229.8" font-family="Arial" font-size="14.00">InvalidMsg</text>
<text text-anchor="start" x="969" y="-214.8" font-family="Arial" font-size="14.00">EncodeDecodeError</text>
<text text-anchor="start" x="969" y="-199.8" font-family="Arial" font-size="14.00">AlreadyAuthorised</text>
<text text-anchor="start" x="969" y="-184.8" font-family="Arial" font-size="14.00">UnknownApp</text>
<polygon fill="none" stroke="black" points="956.5,-169 956.5,-305 1113.5,-305 1113.5,-169 956.5,-169"/>
</a>
</g>
</g>
<!-- ndIpcError&#45;&gt;ndIpcMsg -->
<g id="edge7" class="edge"><title>ndIpcError&#45;&gt;ndIpcMsg</title>
<path fill="none" stroke="black" d="M958.769,-164.878C952.23,-159.655 945.593,-154.628 939,-150 910.864,-130.249 878.011,-111.636 848.662,-96.3872"/>
<polygon fill="black" stroke="black" points="848.28,-96.1909 841.115,-97.0105 837.603,-90.7125 844.768,-89.8928 848.28,-96.1909"/>
</g>
<!-- ndError -->
<g id="node7" class="node"><title>ndError</title>
<g id="a_node7_7"><a xlink:href="https://github.com/maidsafe/safe_network/blob/master/src/safeurl/errors.rs#:~:text=enum%20Error" xlink:title="&lt;TABLE&gt;">
<polygon fill="yellow" stroke="none" points="1049,-72 1049,-109 1269,-109 1269,-72 1049,-72"/>
<polygon fill="none" stroke="black" points="1049,-72 1049,-109 1269,-109 1269,-72 1049,-72"/>
<text text-anchor="start" x="1140.5" y="-87.8" font-family="Arial" font-weight="bold" font-size="14.00">Error</text>
<polygon fill="white" stroke="none" points="1049,-5 1049,-72 1269,-72 1269,-5 1049,-5"/>
<polygon fill="none" stroke="black" points="1049,-5 1049,-72 1269,-72 1269,-5 1049,-5"/>
<text text-anchor="start" x="1060" y="-49.8" font-family="Arial" font-size="14.00">InvalidXorUrl(String)</text>
<text text-anchor="start" x="1060" y="-34.8" font-family="Arial" font-size="14.00">InvalidInput(String)</text>
<text text-anchor="start" x="1060" y="-19.8" font-family="Arial" font-size="14.00">UnsupportedMediaType(String)</text>
<polygon fill="none" stroke="black" points="1048,-4 1048,-110 1270,-110 1270,-4 1048,-4"/>
</a>
</g>
</g>
<!-- ndIpcError&#45;&gt;ndError -->
<g id="edge8" class="edge"><title>ndIpcError&#45;&gt;ndError</title>
<path fill="none" stroke="black" d="M1084.54,-164.882C1093.9,-151.455 1103.64,-137.462 1112.89,-124.194"/>
<polygon fill="black" stroke="black" points="1112.98,-124.057 1113.13,-116.847 1119.84,-114.211 1119.69,-121.42 1112.98,-124.057"/>
</g>
<!-- ndSafeAppClient -->
<g id="node9" class="node"><title>ndSafeAppClient</title>
<g id="a_node9_8"><a xlink:href="https://github.com/maidsafe/safe_network/blob/master/src/app/safe_client.rs#:~:text=struct%20SafeAppClient" xlink:title="&lt;TABLE&gt;">
<polygon fill="lightblue" stroke="none" points="1456,-252 1456,-289 1677,-289 1677,-252 1456,-252"/>
<polygon fill="none" stroke="black" points="1456,-252 1456,-289 1677,-289 1677,-252 1456,-252"/>
<text text-anchor="start" x="1517" y="-267.8" font-family="Arial" font-weight="bold" font-size="14.00">SafeAppClient</text>
<polygon fill="white" stroke="none" points="1456,-185 1456,-252 1677,-252 1677,-185 1456,-185"/>
<polygon fill="none" stroke="black" points="1456,-185 1456,-252 1677,-252 1677,-185 1456,-185"/>
<text text-anchor="start" x="1467" y="-229.8" font-family="Arial" font-size="14.00">&#45; safe_client: Option&lt;Client&gt;</text>
<text text-anchor="start" x="1467" y="-214.8" font-family="Arial" font-size="14.00">&#45; config_path: Option&lt;PathBuf&gt;</text>
<text text-anchor="start" x="1467" y="-199.8" font-family="Arial" font-size="14.00">&#45; timeout: Duration</text>
<polygon fill="none" stroke="black" points="1454.5,-184 1454.5,-290 1677.5,-290 1677.5,-184 1454.5,-184"/>
</a>
</g>
</g>
<!-- ndSafe -->
<g id="node13" class="node"><title>ndSafe</title>
<g id="a_node13_9"><a xlink:href="https://github.com/maidsafe/safe_network/blob/master/src/app/mod.rs#:~:text=struct%20Safe" xlink:title="&lt;TABLE&gt;">
<polygon fill="lightblue" stroke="none" points="1614,-64 1614,-101 1814,-101 1814,-64 1614,-64"/>
<polygon fill="none" stroke="black" points="1614,-64 1614,-101 1814,-101 1814,-64 1614,-64"/>
<text text-anchor="start" x="1698.5" y="-79.8" font-family="Arial" font-weight="bold" font-size="14.00">Safe</text>
<polygon fill="white" stroke="none" points="1614,-12 1614,-64 1814,-64 1814,-12 1614,-12"/>
<polygon fill="none" stroke="black" points="1614,-12 1614,-64 1814,-64 1814,-12 1614,-12"/>
<text text-anchor="start" x="1625" y="-41.8" font-family="Arial" font-size="14.00">&#45; safe_client: SafeAppClient</text>
<text text-anchor="start" x="1625" y="-26.8" font-family="Arial" font-size="14.00">+ xorurl_base: XorUrlBase</text>
<polygon fill="none" stroke="black" points="1613,-11.5 1613,-102.5 1815,-102.5 1815,-11.5 1613,-11.5"/>
</a>
</g>
</g>
<!-- ndSafeAppClient&#45;&gt;ndSafe -->
<g id="edge9" class="edge"><title>ndSafeAppClient&#45;&gt;ndSafe</title>
<path fill="none" stroke="black" d="M1612.83,-179.68C1629.64,-159.456 1648.63,-136.619 1665.58,-116.236"/>
<polygon fill="black" stroke="black" points="1665.79,-115.984 1666.55,-108.813 1673.46,-106.757 1672.7,-113.928 1665.79,-115.984"/>
</g>
<!-- ndGetAttr -->
<g id="node10" class="node"><title>ndGetAttr</title>
<g id="a_node10_10"><a xlink:href="https://github.com/maidsafe/safe_network/blob/master/src/app/files/files_map.rs#:~:text=trait%20GetAttr" xlink:title="&lt;TABLE&gt;">
<polygon fill="lightgreen" stroke="none" points="2022,-750.5 2022,-787.5 2093,-787.5 2093,-750.5 2022,-750.5"/>
<polygon fill="none" stroke="black" points="2022,-750.5 2022,-787.5 2093,-787.5 2093,-750.5 2022,-750.5"/>
<text text-anchor="start" x="2033" y="-766.3" font-family="Arial" font-weight="bold" font-size="14.00">GetAttr</text>
<polygon fill="none" stroke="black" points="2020.5,-750 2020.5,-789 2093.5,-789 2093.5,-750 2020.5,-750"/>
</a>
</g>
</g>
<!-- ndFileMeta -->
<g id="node11" class="node"><title>ndFileMeta</title>
<g id="a_node11_11"><a xlink:href="https://github.com/maidsafe/safe_network/blob/master/src/app/files/metadata.rs#:~:text=struct%20FileMeta" xlink:title="&lt;TABLE&gt;">
<polygon fill="lightblue" stroke="none" points="2129,-821.5 2129,-858.5 2371,-858.5 2371,-821.5 2129,-821.5"/>
<polygon fill="none" stroke="black" points="2129,-821.5 2129,-858.5 2371,-858.5 2371,-821.5 2129,-821.5"/>
<text text-anchor="start" x="2220.5" y="-837.3" font-family="Arial" font-weight="bold" font-size="14.00">FileMeta</text>
<polygon fill="white" stroke="none" points="2129,-679.5 2129,-821.5 2371,-821.5 2371,-679.5 2129,-679.5"/>
<polygon fill="none" stroke="black" points="2129,-679.5 2129,-821.5 2371,-821.5 2371,-679.5 2129,-679.5"/>
<text text-anchor="start" x="2140" y="-799.3" font-family="Arial" font-size="14.00">&#45; created: String</text>
<text text-anchor="start" x="2140" y="-784.3" font-family="Arial" font-size="14.00">&#45; modified: String</text>
<text text-anchor="start" x="2140" y="-769.3" font-family="Arial" font-size="14.00">&#45; file_size: String</text>
<text text-anchor="start" x="2140" y="-754.3" font-family="Arial" font-size="14.00">&#45; file_type: String</text>
<text text-anchor="start" x="2140" y="-739.3" font-family="Arial" font-size="14.00">&#45; readonly: Option&lt;String&gt;</text>
<text text-anchor="start" x="2140" y="-724.3" font-family="Arial" font-size="14.00">&#45; mode_bits: Option&lt;String&gt;</text>
<text text-anchor="start" x="2140" y="-709.3" font-family="Arial" font-size="14.00">&#45; original_created: Option&lt;String&gt;</text>
<text text-anchor="start" x="2140" y="-694.3" font-family="Arial" font-size="14.00">&#45; original_modified: Option&lt;String&gt;</text>
<polygon fill="none" stroke="black" points="2128,-679 2128,-860 2372,-860 2372,-679 2128,-679"/>
</a>
</g>
</g>
<!-- ndRealPath -->
<g id="node12" class="node"><title>ndRealPath</title>
<g id="a_node12_12"><a xlink:href="https://github.com/maidsafe/safe_network/blob/master/src/app/files/realpath.rs#:~:text=trait%20RealPath" xlink:title="&lt;TABLE&gt;">
<polygon fill="lightgreen" stroke="none" points="2407,-750.5 2407,-787.5 2491,-787.5 2491,-750.5 2407,-750.5"/>
<polygon fill="none" stroke="black" points="2407,-750.5 2407,-787.5 2491,-787.5 2491,-750.5 2407,-750.5"/>
<text text-anchor="start" x="2418" y="-766.3" font-family="Arial" font-weight="bold" font-size="14.00">RealPath</text>
<polygon fill="none" stroke="black" points="2406,-750 2406,-789 2492,-789 2492,-750 2406,-750"/>
</a>
</g>
</g>
<!-- ndNrsMap -->
<g id="node14" class="node"><title>ndNrsMap</title>
<g id="a_node14_13"><a xlink:href="https://github.com/maidsafe/safe_network/blob/master/src/app/nrs/nrs_map.rs#:~:text=struct%20NrsMap" xlink:title="&lt;TABLE&gt;">
<polygon fill="lightblue" stroke="none" points="1149,-237 1149,-274 1419,-274 1419,-237 1149,-237"/>
<polygon fill="none" stroke="black" points="1149,-237 1149,-274 1419,-274 1419,-237 1149,-237"/>
<text text-anchor="start" x="1256.5" y="-252.8" font-family="Arial" font-weight="bold" font-size="14.00">NrsMap</text>
<polygon fill="white" stroke="none" points="1149,-200 1149,-237 1419,-237 1419,-200 1149,-200"/>
<polygon fill="none" stroke="black" points="1149,-200 1149,-237 1419,-237 1419,-200 1149,-200"/>
<text text-anchor="start" x="1160" y="-214.8" font-family="Arial" font-size="14.00">+ map: BTreeMap&lt;SubName, SafeUrl&gt;</text>
<polygon fill="none" stroke="black" points="1148,-199 1148,-275 1420,-275 1420,-199 1148,-199"/>
</a>
</g>
</g>
<!-- ndNrsMap&#45;&gt;ndError -->
<g id="edge10" class="edge"><title>ndNrsMap&#45;&gt;ndError</title>
<path fill="none" stroke="black" d="M1255.01,-194.716C1240.3,-173.778 1222.09,-147.837 1205.49,-124.198"/>
<polygon fill="black" stroke="black" points="1205.38,-124.049 1198.66,-121.438 1198.49,-114.229 1205.21,-116.84 1205.38,-124.049"/>
</g>
<!-- ndNrsMap&#45;&gt;ndSafe -->
<g id="edge11" class="edge"><title>ndNrsMap&#45;&gt;ndSafe</title>
<path fill="none" stroke="black" d="M1350.73,-194.822C1377.04,-179.573 1407.88,-162.878 1437,-150 1487.62,-127.616 1545.46,-107.586 1595.16,-91.9756"/>
<polygon fill="black" stroke="black" points="1604.98,-88.9131 1596.77,-96.1851 1600.21,-90.401 1595.43,-91.8889 1595.43,-91.8889 1595.43,-91.8889 1600.21,-90.401 1594.09,-87.5928 1604.98,-88.9131 1604.98,-88.9131"/>
</g>
<!-- ndSafeData -->
<g id="node15" class="node"><title>ndSafeData</title>
<g id="a_node15_14"><a xlink:href="https://github.com/maidsafe/safe_network/blob/master/src/app/resolver/safe_data.rs#:~:text=enum%20SafeData" xlink:title="&lt;TABLE&gt;">
<polygon fill="yellow" stroke="none" points="1751,-282 1751,-319 1883,-319 1883,-282 1751,-282"/>
<polygon fill="none" stroke="black" points="1751,-282 1751,-319 1883,-319 1883,-282 1751,-282"/>
<text text-anchor="start" x="1785.5" y="-297.8" font-family="Arial" font-weight="bold" font-size="14.00">SafeData</text>
<polygon fill="white" stroke="none" points="1751,-155 1751,-282 1883,-282 1883,-155 1751,-155"/>
<polygon fill="none" stroke="black" points="1751,-155 1751,-282 1883,-282 1883,-155 1751,-155"/>
<text text-anchor="start" x="1762" y="-259.8" font-family="Arial" font-size="14.00">SafeKey</text>
<text text-anchor="start" x="1762" y="-244.8" font-family="Arial" font-size="14.00">FilesContainer</text>
<text text-anchor="start" x="1762" y="-229.8" font-family="Arial" font-size="14.00">PublicBlob</text>
<text text-anchor="start" x="1762" y="-214.8" font-family="Arial" font-size="14.00">NrsMapContainer</text>
<text text-anchor="start" x="1762" y="-199.8" font-family="Arial" font-size="14.00">Multimap</text>
<text text-anchor="start" x="1762" y="-184.8" font-family="Arial" font-size="14.00">PublicRegister</text>
<text text-anchor="start" x="1762" y="-169.8" font-family="Arial" font-size="14.00">PrivateRegister</text>
<polygon fill="none" stroke="black" points="1750,-154 1750,-320 1884,-320 1884,-154 1750,-154"/>
</a>
</g>
</g>
<!-- ndSafeData&#45;&gt;ndSafe -->
<g id="edge12" class="edge"><title>ndSafeData&#45;&gt;ndSafe</title>
<path fill="none" stroke="black" d="M1767.16,-149.868C1760.5,-138.359 1753.8,-126.787 1747.52,-115.921"/>
<polygon fill="black" stroke="black" points="1742.34,-106.977 1751.24,-113.378 1744.84,-111.305 1747.35,-115.632 1747.35,-115.632 1747.35,-115.632 1744.84,-111.305 1743.45,-117.886 1742.34,-106.977 1742.34,-106.977"/>
</g>
<!-- ndAuthdStatus -->
<g id="node16" class="node"><title>ndAuthdStatus</title>
<g id="a_node16_15"><a xlink:href="https://github.com/maidsafe/safe_network/blob/master/src/authd_client/authd_client_api.rs#:~:text=struct%20AuthdStatus" xlink:title="&lt;TABLE&gt;">
<polygon fill="lightblue" stroke="none" points="2527,-791.5 2527,-828.5 2694,-828.5 2694,-791.5 2527,-791.5"/>
<polygon fill="none" stroke="black" points="2527,-791.5 2527,-828.5 2694,-828.5 2694,-791.5 2527,-791.5"/>
<text text-anchor="start" x="2567.5" y="-807.3" font-family="Arial" font-weight="bold" font-size="14.00">AuthdStatus</text>
<polygon fill="white" stroke="none" points="2527,-709.5 2527,-791.5 2694,-791.5 2694,-709.5 2527,-709.5"/>
<polygon fill="none" stroke="black" points="2527,-709.5 2527,-791.5 2694,-791.5 2694,-709.5 2527,-709.5"/>
<text text-anchor="start" x="2538" y="-769.3" font-family="Arial" font-size="14.00">+ safe_unlocked: bool</text>
<text text-anchor="start" x="2538" y="-754.3" font-family="Arial" font-size="14.00">+ num_auth_reqs: u32</text>
<text text-anchor="start" x="2538" y="-739.3" font-family="Arial" font-size="14.00">+ num_notif_subs: u32</text>
<text text-anchor="start" x="2538" y="-724.3" font-family="Arial" font-size="14.00">+ authd_version: String</text>
<polygon fill="none" stroke="black" points="2525.5,-709 2525.5,-830 2694.5,-830 2694.5,-709 2525.5,-709"/>
</a>
</g>
</g>
<!-- ndSafeAuthdClient -->
<g id="node17" class="node"><title>ndSafeAuthdClient</title>
<g id="a_node17_16"><a xlink:href="https://github.com/maidsafe/safe_network/blob/master/src/authd_client/authd_client_api.rs#:~:text=struct%20SafeAuthdClient" xlink:title="&lt;TABLE&gt;">
<polygon fill="lightblue" stroke="none" points="2336,-506.5 2336,-543.5 2885,-543.5 2885,-506.5 2336,-506.5"/>
<polygon fill="none" stroke="black" points="2336,-506.5 2336,-543.5 2885,-543.5 2885,-506.5 2336,-506.5"/>
<text text-anchor="start" x="2554.5" y="-522.3" font-family="Arial" font-weight="bold" font-size="14.00">SafeAuthdClient</text>
<polygon fill="white" stroke="none" points="2336,-454.5 2336,-506.5 2885,-506.5 2885,-454.5 2336,-454.5"/>
<polygon fill="none" stroke="black" points="2336,-454.5 2336,-506.5 2885,-506.5 2885,-454.5 2336,-454.5"/>
<text text-anchor="start" x="2347" y="-484.3" font-family="Arial" font-size="14.00">+ authd_endpoint: String</text>
<text text-anchor="start" x="2347" y="-469.3" font-family="Arial" font-size="14.00">&#45; subscribed_endpoint: Option&lt;(String, task::JoinHandle&lt;()&gt;, task::JoinHandle&lt;()&gt;)&gt;</text>
<polygon fill="none" stroke="black" points="2334.5,-454 2334.5,-545 2885.5,-545 2885.5,-454 2334.5,-454"/>
</a>
</g>
</g>
<!-- ndAuthdStatus&#45;&gt;ndSafeAuthdClient -->
<g id="edge13" class="edge"><title>ndAuthdStatus&#45;&gt;ndSafeAuthdClient</title>
<path fill="none" stroke="black" d="M2610,-704.988C2610,-660.852 2610,-602.453 2610,-559.367"/>
<polygon fill="black" stroke="black" points="2610,-549.315 2614.5,-559.314 2610,-554.315 2610,-559.315 2610,-559.315 2610,-559.315 2610,-554.315 2605.5,-559.315 2610,-549.315 2610,-549.315"/>
</g>
<!-- ndVersionHashError -->
<g id="node18" class="node"><title>ndVersionHashError</title>
<g id="a_node18_17"><a xlink:href="https://github.com/maidsafe/safe_network/blob/master/src/safeurl/version_hash.rs#:~:text=enum%20VersionHashError" xlink:title="&lt;TABLE&gt;">
<polygon fill="yellow" stroke="none" points="2729,-784.5 2729,-821.5 2953,-821.5 2953,-784.5 2729,-784.5"/>
<polygon fill="none" stroke="black" points="2729,-784.5 2729,-821.5 2953,-821.5 2953,-784.5 2729,-784.5"/>
<text text-anchor="start" x="2778" y="-800.3" font-family="Arial" font-weight="bold" font-size="14.00">VersionHashError</text>
<polygon fill="white" stroke="none" points="2729,-717.5 2729,-784.5 2953,-784.5 2953,-717.5 2729,-717.5"/>
<polygon fill="none" stroke="black" points="2729,-717.5 2729,-784.5 2953,-784.5 2953,-717.5 2729,-717.5"/>
<text text-anchor="start" x="2740" y="-762.3" font-family="Arial" font-size="14.00">DecodingError(multibase::Error)</text>
<text text-anchor="start" x="2740" y="-747.3" font-family="Arial" font-size="14.00">InvalidHashLength</text>
<text text-anchor="start" x="2740" y="-732.3" font-family="Arial" font-size="14.00">InvalidEncoding</text>
<polygon fill="none" stroke="black" points="2728,-716.5 2728,-822.5 2954,-822.5 2954,-716.5 2728,-716.5"/>
</a>
</g>
</g>
<!-- ndVersionHash -->
<g id="node19" class="node"><title>ndVersionHash</title>
<g id="a_node19_18"><a xlink:href="https://github.com/maidsafe/safe_network/blob/master/src/safeurl/version_hash.rs#:~:text=struct%20VersionHash" xlink:title="&lt;TABLE&gt;">
<polygon fill="lightblue" stroke="none" points="1263,-769.5 1263,-806.5 1435,-806.5 1435,-769.5 1263,-769.5"/>
<polygon fill="none" stroke="black" points="1263,-769.5 1263,-806.5 1435,-806.5 1435,-769.5 1263,-769.5"/>
<text text-anchor="start" x="1304.5" y="-785.3" font-family="Arial" font-weight="bold" font-size="14.00">VersionHash</text>
<polygon fill="white" stroke="none" points="1263,-732.5 1263,-769.5 1435,-769.5 1435,-732.5 1263,-732.5"/>
<polygon fill="none" stroke="black" points="1263,-732.5 1263,-769.5 1435,-769.5 1435,-732.5 1263,-732.5"/>
<text text-anchor="start" x="1274" y="-747.3" font-family="Arial" font-size="14.00">&#45; entry_hash: EntryHash</text>
<polygon fill="none" stroke="black" points="1262,-731.5 1262,-807.5 1436,-807.5 1436,-731.5 1262,-731.5"/>
</a>
</g>
</g>
<!-- ndSafeUrl -->
<g id="node24" class="node"><title>ndSafeUrl</title>
<g id="a_node24_19"><a xlink:href="https://github.com/maidsafe/safe_network/blob/master/src/safeurl/mod.rs#:~:text=struct%20SafeUrl" xlink:title="&lt;TABLE&gt;">
<polygon fill="lightblue" stroke="none" points="1556,-596.5 1556,-633.5 1834,-633.5 1834,-596.5 1556,-596.5"/>
<polygon fill="none" stroke="black" points="1556,-596.5 1556,-633.5 1834,-633.5 1834,-596.5 1556,-596.5"/>
<text text-anchor="start" x="1669.5" y="-612.3" font-family="Arial" font-weight="bold" font-size="14.00">SafeUrl</text>
<polygon fill="white" stroke="none" points="1556,-364.5 1556,-596.5 1834,-596.5 1834,-364.5 1556,-364.5"/>
<polygon fill="none" stroke="black" points="1556,-364.5 1556,-596.5 1834,-596.5 1834,-364.5 1556,-364.5"/>
<text text-anchor="start" x="1567" y="-574.3" font-family="Arial" font-size="14.00">&#45; encoding_version: u64</text>
<text text-anchor="start" x="1567" y="-559.3" font-family="Arial" font-size="14.00">&#45; public_name: String</text>
<text text-anchor="start" x="1567" y="-544.3" font-family="Arial" font-size="14.00">&#45; top_name: String</text>
<text text-anchor="start" x="1567" y="-529.3" font-family="Arial" font-size="14.00">&#45; sub_names: String</text>
<text text-anchor="start" x="1567" y="-514.3" font-family="Arial" font-size="14.00">&#45; sub_names_vec: Vec&lt;String&gt;</text>
<text text-anchor="start" x="1567" y="-499.3" font-family="Arial" font-size="14.00">&#45; type_tag: u64</text>
<text text-anchor="start" x="1567" y="-484.3" font-family="Arial" font-size="14.00">&#45; address: DataAddress</text>
<text text-anchor="start" x="1567" y="-469.3" font-family="Arial" font-size="14.00">&#45; content_type: ContentType</text>
<text text-anchor="start" x="1567" y="-454.3" font-family="Arial" font-size="14.00">&#45; content_type_u16: u16</text>
<text text-anchor="start" x="1567" y="-439.3" font-family="Arial" font-size="14.00">&#45; path: String</text>
<text text-anchor="start" x="1567" y="-424.3" font-family="Arial" font-size="14.00">&#45; query_string: String</text>
<text text-anchor="start" x="1567" y="-409.3" font-family="Arial" font-size="14.00">&#45; fragment: String</text>
<text text-anchor="start" x="1567" y="-394.3" font-family="Arial" font-size="14.00">&#45; content_version: Option&lt;VersionHash&gt;</text>
<text text-anchor="start" x="1567" y="-379.3" font-family="Arial" font-size="14.00">&#45; url_type: UrlType</text>
<polygon fill="none" stroke="black" points="1555,-364 1555,-635 1835,-635 1835,-364 1555,-364"/>
</a>
</g>
</g>
<!-- ndVersionHash&#45;&gt;ndSafeUrl -->
<g id="edge14" class="edge"><title>ndVersionHash&#45;&gt;ndSafeUrl</title>
<path fill="none" stroke="black" d="M1392.62,-727.384C1410.89,-710.67 1432.59,-691.458 1453,-675 1479.6,-653.553 1508.57,-631.571 1536.91,-610.754"/>
<polygon fill="black" stroke="black" points="1537.21,-610.529 1539.69,-603.758 1546.9,-603.443 1544.42,-610.214 1537.21,-610.529"/>
</g>
<!-- ndXorUrlBase -->
<g id="node20" class="node"><title>ndXorUrlBase</title>
<g id="a_node20_20"><a xlink:href="https://github.com/maidsafe/safe_network/blob/master/src/safeurl/mod.rs#:~:text=enum%20XorUrlBase" xlink:title="&lt;TABLE&gt;">
<polygon fill="yellow" stroke="none" points="1884,-784.5 1884,-821.5 1986,-821.5 1986,-784.5 1884,-784.5"/>
<polygon fill="none" stroke="black" points="1884,-784.5 1884,-821.5 1986,-821.5 1986,-784.5 1884,-784.5"/>
<text text-anchor="start" x="1895" y="-800.3" font-family="Arial" font-weight="bold" font-size="14.00">XorUrlBase</text>
<polygon fill="white" stroke="none" points="1884,-717.5 1884,-784.5 1986,-784.5 1986,-717.5 1884,-717.5"/>
<polygon fill="none" stroke="black" points="1884,-717.5 1884,-784.5 1986,-784.5 1986,-717.5 1884,-717.5"/>
<text text-anchor="start" x="1895" y="-762.3" font-family="Arial" font-size="14.00">Base32z</text>
<text text-anchor="start" x="1895" y="-747.3" font-family="Arial" font-size="14.00">Base32</text>
<text text-anchor="start" x="1895" y="-732.3" font-family="Arial" font-size="14.00">Base64</text>
<polygon fill="none" stroke="black" points="1883,-716.5 1883,-822.5 1987,-822.5 1987,-716.5 1883,-716.5"/>
</a>
</g>
</g>
<!-- ndXorUrlBase&#45;&gt;ndSafe -->
<g id="edge15" class="edge"><title>ndXorUrlBase&#45;&gt;ndSafe</title>
<path fill="none" stroke="black" d="M1949.23,-712.363C1975.21,-596.341 2017.56,-326.265 1901,-150 1884.86,-125.597 1860.26,-107.431 1834.16,-93.9968"/>
<polygon fill="black" stroke="black" points="1834.09,-93.9632 1826.94,-94.9327 1823.3,-88.7096 1830.45,-87.7401 1834.09,-93.9632"/>
</g>
<!-- ndXorUrlBase&#45;&gt;ndSafeUrl -->
<g id="edge16" class="edge"><title>ndXorUrlBase&#45;&gt;ndSafeUrl</title>
<path fill="none" stroke="black" stroke-dasharray="5,2" d="M1894.7,-712.2C1885.25,-699.711 1875.02,-686.712 1865,-675 1856.97,-665.615 1848.57,-656.102 1839.97,-646.611"/>
<polygon fill="black" stroke="black" points="1833.04,-639.007 1843.11,-643.366 1836.41,-642.702 1839.78,-646.398 1839.78,-646.398 1839.78,-646.398 1836.41,-642.702 1836.45,-649.429 1833.04,-639.007 1833.04,-639.007"/>
</g>
<!-- ndContentType -->
<g id="node21" class="node"><title>ndContentType</title>
<g id="a_node21_21"><a xlink:href="https://github.com/maidsafe/safe_network/blob/master/src/safeurl/mod.rs#:~:text=enum%20ContentType" xlink:title="&lt;TABLE&gt;">
<polygon fill="yellow" stroke="none" points="1471,-806.5 1471,-843.5 1609,-843.5 1609,-806.5 1471,-806.5"/>
<polygon fill="none" stroke="black" points="1471,-806.5 1471,-843.5 1609,-843.5 1609,-806.5 1471,-806.5"/>
<text text-anchor="start" x="1495" y="-822.3" font-family="Arial" font-weight="bold" font-size="14.00">ContentType</text>
<polygon fill="white" stroke="none" points="1471,-694.5 1471,-806.5 1609,-806.5 1609,-694.5 1471,-694.5"/>
<polygon fill="none" stroke="black" points="1471,-694.5 1471,-806.5 1609,-806.5 1609,-694.5 1471,-694.5"/>
<text text-anchor="start" x="1482" y="-784.3" font-family="Arial" font-size="14.00">Raw</text>
<text text-anchor="start" x="1482" y="-769.3" font-family="Arial" font-size="14.00">Wallet</text>
<text text-anchor="start" x="1482" y="-754.3" font-family="Arial" font-size="14.00">FilesContainer</text>
<text text-anchor="start" x="1482" y="-739.3" font-family="Arial" font-size="14.00">NrsMapContainer</text>
<text text-anchor="start" x="1482" y="-724.3" font-family="Arial" font-size="14.00">Multimap</text>
<text text-anchor="start" x="1482" y="-709.3" font-family="Arial" font-size="14.00">MediaType(String)</text>
<polygon fill="none" stroke="black" points="1470,-694 1470,-845 1610,-845 1610,-694 1470,-694"/>
</a>
</g>
</g>
<!-- ndContentType&#45;&gt;ndSafeUrl -->
<g id="edge17" class="edge"><title>ndContentType&#45;&gt;ndSafeUrl</title>
<path fill="none" stroke="black" stroke-dasharray="5,2" d="M1585.46,-689.902C1592.86,-677.102 1600.74,-663.483 1608.74,-649.646"/>
<polygon fill="black" stroke="black" points="1608.87,-649.42 1608.41,-642.224 1614.88,-639.032 1615.34,-646.229 1608.87,-649.42"/>
</g>
<!-- ndDataType -->
<g id="node22" class="node"><title>ndDataType</title>
<g id="a_node22_22"><a xlink:href="https://github.com/maidsafe/safe_network/blob/master/src/safeurl/mod.rs#:~:text=enum%20DataType" xlink:title="&lt;TABLE&gt;">
<polygon fill="yellow" stroke="none" points="1646,-784.5 1646,-821.5 1735,-821.5 1735,-784.5 1646,-784.5"/>
<polygon fill="none" stroke="black" points="1646,-784.5 1646,-821.5 1735,-821.5 1735,-784.5 1646,-784.5"/>
<text text-anchor="start" x="1657" y="-800.3" font-family="Arial" font-weight="bold" font-size="14.00">DataType</text>
<polygon fill="white" stroke="none" points="1646,-717.5 1646,-784.5 1735,-784.5 1735,-717.5 1646,-717.5"/>
<polygon fill="none" stroke="black" points="1646,-717.5 1646,-784.5 1735,-784.5 1735,-717.5 1646,-717.5"/>
<text text-anchor="start" x="1657" y="-762.3" font-family="Arial" font-size="14.00">SafeKey</text>
<text text-anchor="start" x="1657" y="-747.3" font-family="Arial" font-size="14.00">Bytes</text>
<text text-anchor="start" x="1657" y="-732.3" font-family="Arial" font-size="14.00">Register</text>
<polygon fill="none" stroke="black" points="1644.5,-716.5 1644.5,-822.5 1735.5,-822.5 1735.5,-716.5 1644.5,-716.5"/>
</a>
</g>
</g>
<!-- ndDataType&#45;&gt;ndSafeUrl -->
<g id="edge18" class="edge"><title>ndDataType&#45;&gt;ndSafeUrl</title>
<path fill="none" stroke="black" d="M1691.05,-712.318C1691.4,-693.533 1691.81,-671.625 1692.23,-649.161"/>
<polygon fill="black" stroke="black" points="1692.41,-639.16 1696.73,-649.243 1692.32,-644.159 1692.23,-649.159 1692.23,-649.159 1692.23,-649.159 1692.32,-644.159 1687.73,-649.075 1692.41,-639.16 1692.41,-639.16"/>
</g>
<!-- ndUrlType -->
<g id="node23" class="node"><title>ndUrlType</title>
<g id="a_node23_23"><a xlink:href="https://github.com/maidsafe/safe_network/blob/master/src/safeurl/mod.rs#:~:text=enum%20UrlType" xlink:title="&lt;TABLE&gt;">
<polygon fill="yellow" stroke="none" points="1771,-776.5 1771,-813.5 1848,-813.5 1848,-776.5 1771,-776.5"/>
<polygon fill="none" stroke="black" points="1771,-776.5 1771,-813.5 1848,-813.5 1848,-776.5 1771,-776.5"/>
<text text-anchor="start" x="1782" y="-792.3" font-family="Arial" font-weight="bold" font-size="14.00">UrlType</text>
<polygon fill="white" stroke="none" points="1771,-724.5 1771,-776.5 1848,-776.5 1848,-724.5 1771,-724.5"/>
<polygon fill="none" stroke="black" points="1771,-724.5 1771,-776.5 1848,-776.5 1848,-724.5 1771,-724.5"/>
<text text-anchor="start" x="1782" y="-754.3" font-family="Arial" font-size="14.00">XorUrl</text>
<text text-anchor="start" x="1782" y="-739.3" font-family="Arial" font-size="14.00">NrsUrl</text>
<polygon fill="none" stroke="black" points="1769.5,-724 1769.5,-815 1848.5,-815 1848.5,-724 1769.5,-724"/>
</a>
</g>
</g>
<!-- ndUrlType&#45;&gt;ndSafeUrl -->
<g id="edge19" class="edge"><title>ndUrlType&#45;&gt;ndSafeUrl</title>
<path fill="none" stroke="black" d="M1788.36,-719.967C1779.83,-699.929 1769.45,-675.515 1758.74,-650.345"/>
<polygon fill="black" stroke="black" points="1758.67,-650.175 1752.64,-646.22 1753.97,-639.133 1760,-643.088 1758.67,-650.175"/>
</g>
<!-- ndSafeUrl&#45;&gt;ndSafe -->
<g id="edge20" class="edge"><title>ndSafeUrl&#45;&gt;ndSafe</title>
<path fill="none" stroke="black" stroke-dasharray="5,2" d="M1700.99,-359.728C1704.51,-277.958 1708.79,-178.748 1711.46,-116.98"/>
<polygon fill="black" stroke="black" points="1711.9,-106.646 1715.97,-116.831 1711.69,-111.642 1711.47,-116.637 1711.47,-116.637 1711.47,-116.637 1711.69,-111.642 1706.97,-116.443 1711.9,-106.646 1711.9,-106.646"/>
</g>
<!-- ndSafeUrl&#45;&gt;ndNrsMap -->
<g id="edge21" class="edge"><title>ndSafeUrl&#45;&gt;ndNrsMap</title>
<path fill="none" stroke="black" d="M1546.91,-404.638C1482.52,-363.825 1409.95,-317.831 1357.4,-284.52"/>
<polygon fill="black" stroke="black" points="1348.81,-279.077 1359.66,-280.63 1353.03,-281.754 1357.26,-284.431 1357.26,-284.431 1357.26,-284.431 1353.03,-281.754 1354.85,-288.232 1348.81,-279.077 1348.81,-279.077"/>
</g>
<!-- ndSafeUrl&#45;&gt;ndSafeData -->
<g id="edge22" class="edge"><title>ndSafeUrl&#45;&gt;ndSafeData</title>
<path fill="none" stroke="black" d="M1759.93,-359.86C1764.11,-350.937 1768.26,-342.067 1772.31,-333.417"/>
<polygon fill="black" stroke="black" points="1776.66,-324.127 1776.5,-335.091 1774.54,-328.655 1772.42,-333.183 1772.42,-333.183 1772.42,-333.183 1774.54,-328.655 1768.35,-331.274 1776.66,-324.127 1776.66,-324.127"/>
</g>
<!-- ndUrlParts -->
<g id="node25" class="node"><title>ndUrlParts</title>
<g id="a_node25_24"><a xlink:href="https://github.com/maidsafe/safe_network/blob/master/src/safeurl/url_parts.rs#:~:text=struct%20UrlParts" xlink:title="&lt;TABLE&gt;">
<polygon fill="lightblue" stroke="none" points="2990,-821.5 2990,-858.5 3211,-858.5 3211,-821.5 2990,-821.5"/>
<polygon fill="none" stroke="black" points="2990,-821.5 2990,-858.5 3211,-858.5 3211,-821.5 2990,-821.5"/>
<text text-anchor="start" x="3072" y="-837.3" font-family="Arial" font-weight="bold" font-size="14.00">UrlParts</text>
<polygon fill="white" stroke="none" points="2990,-679.5 2990,-821.5 3211,-821.5 3211,-679.5 2990,-679.5"/>
<polygon fill="none" stroke="black" points="2990,-679.5 2990,-821.5 3211,-821.5 3211,-679.5 2990,-679.5"/>
<text text-anchor="start" x="3001" y="-799.3" font-family="Arial" font-size="14.00">&#45; scheme: String</text>
<text text-anchor="start" x="3001" y="-784.3" font-family="Arial" font-size="14.00">&#45; public_name: String</text>
<text text-anchor="start" x="3001" y="-769.3" font-family="Arial" font-size="14.00">&#45; top_name: String</text>
<text text-anchor="start" x="3001" y="-754.3" font-family="Arial" font-size="14.00">&#45; sub_names: String</text>
<text text-anchor="start" x="3001" y="-739.3" font-family="Arial" font-size="14.00">&#45; sub_names_vec: Vec&lt;String&gt;</text>
<text text-anchor="start" x="3001" y="-724.3" font-family="Arial" font-size="14.00">&#45; path: String</text>
<text text-anchor="start" x="3001" y="-709.3" font-family="Arial" font-size="14.00">&#45; query_string: String</text>
<text text-anchor="start" x="3001" y="-694.3" font-family="Arial" font-size="14.00">&#45; fragment: String</text>
<polygon fill="none" stroke="black" points="2988.5,-679 2988.5,-860 3211.5,-860 3211.5,-679 2988.5,-679"/>
</a>
</g>
</g>
</g>
</svg>
