<?xml version="1.0" encoding="UTF-8" standalone="no"?>
<!DOCTYPE svg PUBLIC "-//W3C//DTD SVG 1.1//EN"
 "http://www.w3.org/Graphics/SVG/1.1/DTD/svg11.dtd">
<!-- Generated by graphviz version 2.38.0 (20140413.2041)
 -->
<!-- Title: ml Pages: 1 -->
<svg width="1639pt" height="387pt"
 viewBox="0.00 0.00 1639.00 387.00" xmlns="http://www.w3.org/2000/svg" xmlns:xlink="http://www.w3.org/1999/xlink">
<g id="graph0" class="graph" transform="scale(1 1) rotate(0) translate(4 383)">
<title>ml</title>
<polygon fill="white" stroke="none" points="-4,4 -4,-383 1635,-383 1635,4 -4,4"/>
<!-- ndInput -->
<g id="node1" class="node"><title>ndInput</title>
<g id="a_node1_0"><a xlink:href="https://github.com/maidsafe/sn_bindgen/blob/master/src/lib.rs#:~:text=enum%20Input" xlink:title="&lt;TABLE&gt;">
<polygon fill="yellow" stroke="none" points="9,-87.5 9,-124.5 67,-124.5 67,-87.5 9,-87.5"/>
<polygon fill="none" stroke="black" points="9,-87.5 9,-124.5 67,-124.5 67,-87.5 9,-87.5"/>
<text text-anchor="start" x="20" y="-103.3" font-family="Arial" font-weight="bold" font-size="14.00">Input</text>
<polygon fill="none" stroke="black" points="8,-87 8,-126 68,-126 68,-87 8,-87"/>
</a>
</g>
</g>
<!-- ndBindgen -->
<g id="node2" class="node"><title>ndBindgen</title>
<g id="a_node2_1"><a xlink:href="https://github.com/maidsafe/sn_bindgen/blob/master/src/lib.rs#:~:text=struct%20Bindgen" xlink:title="&lt;TABLE&gt;">
<polygon fill="lightblue" stroke="none" points="78,-4.5 78,-41.5 159,-41.5 159,-4.5 78,-4.5"/>
<polygon fill="none" stroke="black" points="78,-4.5 78,-41.5 159,-41.5 159,-4.5 78,-4.5"/>
<text text-anchor="start" x="89" y="-20.3" font-family="Arial" font-weight="bold" font-size="14.00">Bindgen</text>
<polygon fill="none" stroke="black" points="76.5,-4 76.5,-43 159.5,-43 159.5,-4 76.5,-4"/>
</a>
</g>
</g>
<!-- ndInput&#45;&gt;ndBindgen -->
<g id="edge1" class="edge"><title>ndInput&#45;&gt;ndBindgen</title>
<path fill="none" stroke="black" d="M60.2845,-82.937C68.5371,-74.5812 78.0504,-64.9489 86.9424,-55.9458"/>
<polygon fill="black" stroke="black" points="87.1251,-55.7608 88.4954,-48.6811 95.5576,-47.2229 94.1873,-54.3027 87.1251,-55.7608"/>
</g>
<!-- ndIndentedWriter -->
<g id="node3" class="node"><title>ndIndentedWriter</title>
<g id="a_node3_2"><a xlink:href="https://github.com/maidsafe/sn_bindgen/blob/master/src/output.rs#:~:text=struct%20IndentedWriter" xlink:title="&lt;TABLE&gt;">
<polygon fill="lightblue" stroke="none" points="1045,-336.5 1045,-373.5 1170,-373.5 1170,-336.5 1045,-336.5"/>
<polygon fill="none" stroke="black" points="1045,-336.5 1045,-373.5 1170,-373.5 1170,-336.5 1045,-336.5"/>
<text text-anchor="start" x="1056" y="-352.3" font-family="Arial" font-weight="bold" font-size="14.00">IndentedWriter</text>
<polygon fill="none" stroke="black" points="1043.5,-336 1043.5,-375 1170.5,-375 1170.5,-336 1043.5,-336"/>
</a>
</g>
</g>
<!-- ndError -->
<g id="node4" class="node"><title>ndError</title>
<g id="a_node4_3"><a xlink:href="https://github.com/maidsafe/sn_bindgen/blob/master/src/errors.rs#:~:text=struct%20Error" xlink:title="&lt;TABLE&gt;">
<polygon fill="lightblue" stroke="none" points="168,-87.5 168,-124.5 227,-124.5 227,-87.5 168,-87.5"/>
<polygon fill="none" stroke="black" points="168,-87.5 168,-124.5 227,-124.5 227,-87.5 168,-87.5"/>
<text text-anchor="start" x="179" y="-103.3" font-family="Arial" font-weight="bold" font-size="14.00">Error</text>
<polygon fill="none" stroke="black" points="166.5,-87 166.5,-126 227.5,-126 227.5,-87 166.5,-87"/>
</a>
</g>
</g>
<!-- ndError&#45;&gt;ndBindgen -->
<g id="edge2" class="edge"><title>ndError&#45;&gt;ndBindgen</title>
<path fill="none" stroke="black" stroke-dasharray="5,2" d="M174.994,-82.937C166.42,-74.146 156.468,-63.9421 147.303,-54.5444"/>
<polygon fill="black" stroke="black" points="140.162,-47.2229 150.366,-51.2399 143.653,-50.8024 147.144,-54.3819 147.144,-54.3819 147.144,-54.3819 143.653,-50.8024 143.923,-57.5238 140.162,-47.2229 140.162,-47.2229"/>
</g>
<!-- ndLangJava -->
<g id="node8" class="node"><title>ndLangJava</title>
<g id="a_node8_4"><a xlink:href="https://github.com/maidsafe/sn_bindgen/blob/master/src/java/mod.rs#:~:text=struct%20LangJava" xlink:title="&lt;TABLE&gt;">
<polygon fill="lightblue" stroke="none" points="416,-4.5 416,-41.5 507,-41.5 507,-4.5 416,-4.5"/>
<polygon fill="none" stroke="black" points="416,-4.5 416,-41.5 507,-41.5 507,-4.5 416,-4.5"/>
<text text-anchor="start" x="427" y="-20.3" font-family="Arial" font-weight="bold" font-size="14.00">LangJava</text>
<polygon fill="none" stroke="black" points="414.5,-4 414.5,-43 507.5,-43 507.5,-4 414.5,-4"/>
</a>
</g>
</g>
<!-- ndError&#45;&gt;ndLangJava -->
<g id="edge3" class="edge"><title>ndError&#45;&gt;ndLangJava</title>
<path fill="none" stroke="black" d="M235.527,-86.7366C238.704,-85.4052 241.889,-84.1405 245,-83 294.915,-64.6997 353.184,-49.2486 396.615,-38.8297"/>
<polygon fill="black" stroke="black" points="406.483,-36.4875 397.792,-43.1753 401.618,-37.6422 396.753,-38.7969 396.753,-38.7969 396.753,-38.7969 401.618,-37.6422 395.714,-34.4186 406.483,-36.4875 406.483,-36.4875"/>
</g>
<!-- ndLangC -->
<g id="node17" class="node"><title>ndLangC</title>
<g id="a_node17_5"><a xlink:href="https://github.com/maidsafe/sn_bindgen/blob/master/src/lang_c/mod.rs#:~:text=struct%20LangC" xlink:title="&lt;TABLE&gt;">
<polygon fill="lightblue" stroke="none" points="918,-4.5 918,-41.5 986,-41.5 986,-4.5 918,-4.5"/>
<polygon fill="none" stroke="black" points="918,-4.5 918,-41.5 986,-41.5 986,-4.5 918,-4.5"/>
<text text-anchor="start" x="929" y="-20.3" font-family="Arial" font-weight="bold" font-size="14.00">LangC</text>
<polygon fill="none" stroke="black" points="917,-4 917,-43 987,-43 987,-4 917,-4"/>
</a>
</g>
</g>
<!-- ndError&#45;&gt;ndLangC -->
<g id="edge4" class="edge"><title>ndError&#45;&gt;ndLangC</title>
<path fill="none" stroke="black" d="M235.577,-85.9319C238.715,-84.7992 241.879,-83.7985 245,-83 492.635,-19.6401 565.079,-76.3588 819,-47 845.36,-43.9522 874.442,-39.1943 898.672,-34.8373"/>
<polygon fill="black" stroke="black" points="908.737,-33.0007 899.707,-39.2228 903.818,-33.8983 898.899,-34.7959 898.899,-34.7959 898.899,-34.7959 903.818,-33.8983 898.092,-30.3689 908.737,-33.0007 908.737,-33.0007"/>
</g>
<!-- ndLangCSharp -->
<g id="node20" class="node"><title>ndLangCSharp</title>
<g id="a_node20_6"><a xlink:href="https://github.com/maidsafe/sn_bindgen/blob/master/src/csharp/mod.rs#:~:text=struct%20LangCSharp" xlink:title="&lt;TABLE&gt;">
<polygon fill="lightblue" stroke="none" points="691,-4.5 691,-41.5 801,-41.5 801,-4.5 691,-4.5"/>
<polygon fill="none" stroke="black" points="691,-4.5 691,-41.5 801,-41.5 801,-4.5 691,-4.5"/>
<text text-anchor="start" x="702" y="-20.3" font-family="Arial" font-weight="bold" font-size="14.00">LangCSharp</text>
<polygon fill="none" stroke="black" points="690,-4 690,-43 802,-43 802,-4 690,-4"/>
</a>
</g>
</g>
<!-- ndError&#45;&gt;ndLangCSharp -->
<g id="edge5" class="edge"><title>ndError&#45;&gt;ndLangCSharp</title>
<path fill="none" stroke="black" d="M235.627,-86.1182C238.754,-84.9431 241.902,-83.8818 245,-83 285.028,-71.6071 541.876,-44.8758 671.456,-31.8686"/>
<polygon fill="black" stroke="black" points="681.697,-30.8427 672.195,-36.3172 676.721,-31.3411 671.746,-31.8396 671.746,-31.8396 671.746,-31.8396 676.721,-31.3411 671.298,-27.362 681.697,-30.8427 681.697,-30.8427"/>
</g>
<!-- ndLevel -->
<g id="node5" class="node"><title>ndLevel</title>
<g id="a_node5_7"><a xlink:href="https://github.com/maidsafe/sn_bindgen/blob/master/src/errors.rs#:~:text=enum%20Level" xlink:title="&lt;TABLE&gt;">
<polygon fill="yellow" stroke="none" points="141,-170.5 141,-207.5 201,-207.5 201,-170.5 141,-170.5"/>
<polygon fill="none" stroke="black" points="141,-170.5 141,-207.5 201,-207.5 201,-170.5 141,-170.5"/>
<text text-anchor="start" x="152" y="-186.3" font-family="Arial" font-weight="bold" font-size="14.00">Level</text>
<polygon fill="none" stroke="black" points="140,-170 140,-209 202,-209 202,-170 140,-170"/>
</a>
</g>
</g>
<!-- ndLevel&#45;&gt;ndError -->
<g id="edge6" class="edge"><title>ndLevel&#45;&gt;ndError</title>
<path fill="none" stroke="black" d="M178.242,-165.937C180.645,-158.452 183.377,-149.942 185.997,-141.778"/>
<polygon fill="black" stroke="black" points="186.039,-141.649 184.064,-134.713 189.706,-130.223 191.681,-137.158 186.039,-141.649"/>
</g>
<!-- ndJniArgResult -->
<g id="node6" class="node"><title>ndJniArgResult</title>
<g id="a_node6_8"><a xlink:href="https://github.com/maidsafe/sn_bindgen/blob/master/src/java/jni.rs#:~:text=struct%20JniArgResult" xlink:title="&lt;TABLE&gt;">
<polygon fill="lightblue" stroke="none" points="1206,-336.5 1206,-373.5 1318,-373.5 1318,-336.5 1206,-336.5"/>
<polygon fill="none" stroke="black" points="1206,-336.5 1206,-373.5 1318,-373.5 1318,-336.5 1206,-336.5"/>
<text text-anchor="start" x="1217" y="-352.3" font-family="Arial" font-weight="bold" font-size="14.00">JniArgResult</text>
<polygon fill="none" stroke="black" points="1205,-336 1205,-375 1319,-375 1319,-336 1205,-336"/>
</a>
</g>
</g>
<!-- ndJniCallback -->
<g id="node7" class="node"><title>ndJniCallback</title>
<g id="a_node7_9"><a xlink:href="https://github.com/maidsafe/sn_bindgen/blob/master/src/java/jni.rs#:~:text=struct%20JniCallback" xlink:title="&lt;TABLE&gt;">
<polygon fill="lightblue" stroke="none" points="1354,-336.5 1354,-373.5 1458,-373.5 1458,-336.5 1354,-336.5"/>
<polygon fill="none" stroke="black" points="1354,-336.5 1354,-373.5 1458,-373.5 1458,-336.5 1354,-336.5"/>
<text text-anchor="start" x="1365" y="-352.3" font-family="Arial" font-weight="bold" font-size="14.00">JniCallback</text>
<polygon fill="none" stroke="black" points="1353,-336 1353,-375 1459,-375 1459,-336 1353,-336"/>
</a>
</g>
</g>
<!-- ndContext -->
<g id="node9" class="node"><title>ndContext</title>
<g id="a_node9_10"><a xlink:href="https://github.com/maidsafe/sn_bindgen/blob/master/src/csharp/mod.rs#:~:text=struct%20Context" xlink:title="&lt;TABLE&gt;">
<polygon fill="lightblue" stroke="none" points="362,-87.5 362,-124.5 439,-124.5 439,-87.5 362,-87.5"/>
<polygon fill="none" stroke="black" points="362,-87.5 362,-124.5 439,-124.5 439,-87.5 362,-87.5"/>
<text text-anchor="start" x="373" y="-103.3" font-family="Arial" font-weight="bold" font-size="14.00">Context</text>
<polygon fill="none" stroke="black" points="360.5,-87 360.5,-126 439.5,-126 439.5,-87 360.5,-87"/>
</a>
</g>
</g>
<!-- ndContext&#45;&gt;ndLangJava -->
<g id="edge7" class="edge"><title>ndContext&#45;&gt;ndLangJava</title>
<path fill="none" stroke="black" d="M416.992,-82.937C423.022,-74.9294 429.936,-65.7494 436.469,-57.0743"/>
<polygon fill="black" stroke="black" points="436.669,-56.8087 437.083,-49.6095 443.888,-47.2229 443.473,-54.4222 436.669,-56.8087"/>
</g>
<!-- ndContext&#45;&gt;ndLangCSharp -->
<g id="edge8" class="edge"><title>ndContext&#45;&gt;ndLangCSharp</title>
<path fill="none" stroke="black" d="M447.756,-85.6435C450.528,-84.7002 453.29,-83.8104 456,-83 527.357,-61.6634 610.924,-45.7285 669.972,-35.9219"/>
<polygon fill="black" stroke="black" points="669.973,-35.9218 675.248,-31.0047 681.815,-33.9825 676.541,-38.8996 669.973,-35.9218"/>
</g>
<!-- ndJavaClassField -->
<g id="node10" class="node"><title>ndJavaClassField</title>
<g id="a_node10_11"><a xlink:href="https://github.com/maidsafe/sn_bindgen/blob/master/src/java/mod.rs#:~:text=struct%20JavaClassField" xlink:title="&lt;TABLE&gt;">
<polygon fill="lightblue" stroke="none" points="1494,-336.5 1494,-373.5 1622,-373.5 1622,-336.5 1494,-336.5"/>
<polygon fill="none" stroke="black" points="1494,-336.5 1494,-373.5 1622,-373.5 1622,-336.5 1494,-336.5"/>
<text text-anchor="start" x="1505" y="-352.3" font-family="Arial" font-weight="bold" font-size="14.00">JavaClassField</text>
<polygon fill="none" stroke="black" points="1493,-336 1493,-375 1623,-375 1623,-336 1493,-336"/>
</a>
</g>
</g>
<!-- ndFilterMode -->
<g id="node11" class="node"><title>ndFilterMode</title>
<g id="a_node11_12"><a xlink:href="https://github.com/maidsafe/sn_bindgen/blob/master/src/common.rs#:~:text=enum%20FilterMode" xlink:title="&lt;TABLE&gt;">
<polygon fill="yellow" stroke="none" points="475,-87.5 475,-124.5 572,-124.5 572,-87.5 475,-87.5"/>
<polygon fill="none" stroke="black" points="475,-87.5 475,-124.5 572,-124.5 572,-87.5 475,-87.5"/>
<text text-anchor="start" x="486" y="-103.3" font-family="Arial" font-weight="bold" font-size="14.00">FilterMode</text>
<polygon fill="none" stroke="black" points="473.5,-87 473.5,-126 572.5,-126 572.5,-87 473.5,-87"/>
</a>
</g>
</g>
<!-- ndFilterMode&#45;&gt;ndLangJava -->
<g id="edge9" class="edge"><title>ndFilterMode&#45;&gt;ndLangJava</title>
<path fill="none" stroke="black" stroke-dasharray="5,2" d="M505.73,-82.937C499.534,-74.8423 492.421,-65.5497 485.717,-56.7916"/>
<polygon fill="black" stroke="black" points="485.687,-56.7519 478.863,-54.4187 478.393,-47.2229 485.216,-49.5562 485.687,-56.7519"/>
</g>
<!-- ndFilterMode&#45;&gt;ndLangCSharp -->
<g id="edge10" class="edge"><title>ndFilterMode&#45;&gt;ndLangCSharp</title>
<path fill="none" stroke="black" stroke-dasharray="5,2" d="M580.718,-84.5351C608.63,-74.3966 642.456,-62.1103 672.217,-51.3002"/>
<polygon fill="black" stroke="black" points="672.552,-51.1786 676.825,-45.3705 683.831,-47.0817 679.557,-52.8899 672.552,-51.1786"/>
</g>
<!-- ndLang -->
<g id="node12" class="node"><title>ndLang</title>
<g id="a_node12_13"><a xlink:href="https://github.com/maidsafe/sn_bindgen/blob/master/src/common.rs#:~:text=trait%20Lang" xlink:title="&lt;TABLE&gt;">
<polygon fill="lightgreen" stroke="none" points="1097,-87.5 1097,-124.5 1155,-124.5 1155,-87.5 1097,-87.5"/>
<polygon fill="none" stroke="black" points="1097,-87.5 1097,-124.5 1155,-124.5 1155,-87.5 1097,-87.5"/>
<text text-anchor="start" x="1108" y="-103.3" font-family="Arial" font-weight="bold" font-size="14.00">Lang</text>
<polygon fill="none" stroke="black" points="1096,-87 1096,-126 1156,-126 1156,-87 1096,-87"/>
</a>
</g>
</g>
<!-- ndLang&#45;&gt;ndLangC -->
<g id="edge11" class="edge"><title>ndLang&#45;&gt;ndLangC</title>
<path fill="none" stroke="black" stroke-dasharray="5,2" d="M1087.81,-87.7242C1063.38,-76.3516 1031.36,-61.4443 1004.55,-48.9615"/>
<polygon fill="none" stroke="black" points="1005.84,-45.7044 995.3,-44.6571 1002.89,-52.0505 1005.84,-45.7044"/>
</g>
<!-- ndLang&#45;&gt;ndLangCSharp -->
<g id="edge12" class="edge"><title>ndLang&#45;&gt;ndLangCSharp</title>
<path fill="none" stroke="black" stroke-dasharray="5,2" d="M1087.75,-87.7721C1083.17,-86.0029 1078.52,-84.3612 1074,-83 1027.72,-69.0677 902.107,-48.3983 820.446,-35.7234"/>
<polygon fill="none" stroke="black" points="820.636,-32.2113 810.219,-34.1421 819.566,-39.1291 820.636,-32.2113"/>
</g>
<!-- ndStructField -->
<g id="node13" class="node"><title>ndStructField</title>
<g id="a_node13_14"><a xlink:href="https://github.com/maidsafe/sn_bindgen/blob/master/src/csharp/intermediate.rs#:~:text=struct%20StructField" xlink:title="&lt;TABLE&gt;">
<polygon fill="lightblue" stroke="none" points="851,-170.5 851,-207.5 949,-207.5 949,-170.5 851,-170.5"/>
<polygon fill="none" stroke="black" points="851,-170.5 851,-207.5 949,-207.5 949,-170.5 851,-170.5"/>
<text text-anchor="start" x="862" y="-186.3" font-family="Arial" font-weight="bold" font-size="14.00">StructField</text>
<polygon fill="none" stroke="black" points="850,-170 850,-209 950,-209 950,-170 850,-170"/>
</a>
</g>
</g>
<!-- ndStruct -->
<g id="node28" class="node"><title>ndStruct</title>
<g id="a_node28_15"><a xlink:href="https://github.com/maidsafe/sn_bindgen/blob/master/src/csharp/intermediate.rs#:~:text=struct%20Struct" xlink:title="&lt;TABLE&gt;">
<polygon fill="lightblue" stroke="none" points="920,-87.5 920,-124.5 985,-124.5 985,-87.5 920,-87.5"/>
<polygon fill="none" stroke="black" points="920,-87.5 920,-124.5 985,-124.5 985,-87.5 920,-87.5"/>
<text text-anchor="start" x="931" y="-103.3" font-family="Arial" font-weight="bold" font-size="14.00">Struct</text>
<polygon fill="none" stroke="black" points="918.5,-87 918.5,-126 985.5,-126 985.5,-87 918.5,-87"/>
</a>
</g>
</g>
<!-- ndStructField&#45;&gt;ndStruct -->
<g id="edge13" class="edge"><title>ndStructField&#45;&gt;ndStruct</title>
<path fill="none" stroke="black" d="M914.485,-165.937C919.57,-158.016 925.391,-148.949 930.906,-140.357"/>
<polygon fill="black" stroke="black" points="930.93,-140.321 930.805,-133.111 937.412,-130.223 937.537,-137.433 930.93,-140.321"/>
</g>
<!-- ndCTypeNamed -->
<g id="node14" class="node"><title>ndCTypeNamed</title>
<g id="a_node14_16"><a xlink:href="https://github.com/maidsafe/sn_bindgen/blob/master/src/lang_c/types.rs#:~:text=struct%20CTypeNamed" xlink:title="&lt;TABLE&gt;">
<polygon fill="lightblue" stroke="none" points="1210,-4.5 1210,-41.5 1326,-41.5 1326,-4.5 1210,-4.5"/>
<polygon fill="none" stroke="black" points="1210,-4.5 1210,-41.5 1326,-41.5 1326,-4.5 1210,-4.5"/>
<text text-anchor="start" x="1221" y="-20.3" font-family="Arial" font-weight="bold" font-size="14.00">CTypeNamed</text>
<polygon fill="none" stroke="black" points="1209,-4 1209,-43 1327,-43 1327,-4 1209,-4"/>
</a>
</g>
</g>
<!-- ndCPtrType -->
<g id="node15" class="node"><title>ndCPtrType</title>
<g id="a_node15_17"><a xlink:href="https://github.com/maidsafe/sn_bindgen/blob/master/src/lang_c/types.rs#:~:text=enum%20CPtrType" xlink:title="&lt;TABLE&gt;">
<polygon fill="yellow" stroke="none" points="1229,-170.5 1229,-207.5 1317,-207.5 1317,-170.5 1229,-170.5"/>
<polygon fill="none" stroke="black" points="1229,-170.5 1229,-207.5 1317,-207.5 1317,-170.5 1229,-170.5"/>
<text text-anchor="start" x="1240" y="-186.3" font-family="Arial" font-weight="bold" font-size="14.00">CPtrType</text>
<polygon fill="none" stroke="black" points="1228,-170 1228,-209 1318,-209 1318,-170 1228,-170"/>
</a>
</g>
</g>
<!-- ndCType -->
<g id="node16" class="node"><title>ndCType</title>
<g id="a_node16_18"><a xlink:href="https://github.com/maidsafe/sn_bindgen/blob/master/src/lang_c/types.rs#:~:text=enum%20CType" xlink:title="&lt;TABLE&gt;">
<polygon fill="yellow" stroke="none" points="1234,-87.5 1234,-124.5 1302,-124.5 1302,-87.5 1234,-87.5"/>
<polygon fill="none" stroke="black" points="1234,-87.5 1234,-124.5 1302,-124.5 1302,-87.5 1234,-87.5"/>
<text text-anchor="start" x="1245" y="-103.3" font-family="Arial" font-weight="bold" font-size="14.00">CType</text>
<polygon fill="none" stroke="black" points="1233,-87 1233,-126 1303,-126 1303,-87 1233,-87"/>
</a>
</g>
</g>
<!-- ndCPtrType&#45;&gt;ndCType -->
<g id="edge14" class="edge"><title>ndCPtrType&#45;&gt;ndCType</title>
<path fill="none" stroke="black" d="M1271.61,-165.937C1271.16,-158.626 1270.64,-150.337 1270.15,-142.348"/>
<polygon fill="black" stroke="black" points="1270.14,-142.2 1265.78,-136.458 1269.4,-130.223 1273.76,-135.965 1270.14,-142.2"/>
</g>
<!-- ndCType&#45;&gt;ndCTypeNamed -->
<g id="edge15" class="edge"><title>ndCType&#45;&gt;ndCTypeNamed</title>
<path fill="none" stroke="black" d="M1268,-82.937C1268,-75.6257 1268,-67.3371 1268,-59.3477"/>
<polygon fill="black" stroke="black" points="1268,-59.2229 1264,-53.223 1268,-47.2229 1272,-53.2229 1268,-59.2229"/>
</g>
<!-- ndCType&#45;&gt;ndLangC -->
<g id="edge16" class="edge"><title>ndCType&#45;&gt;ndLangC</title>
<path fill="none" stroke="black" stroke-dasharray="5,2" d="M1224.86,-89.0854C1218.58,-86.9153 1212.15,-84.8167 1206,-83 1137.45,-62.7479 1056.78,-45.2145 1005.05,-34.756"/>
<polygon fill="black" stroke="black" points="995.108,-32.7599 1005.8,-30.3154 1000.01,-33.7437 1004.91,-34.7274 1004.91,-34.7274 1004.91,-34.7274 1000.01,-33.7437 1004.03,-39.1395 995.108,-32.7599 995.108,-32.7599"/>
</g>
<!-- ndMode -->
<g id="node18" class="node"><title>ndMode</title>
<g id="a_node18_19"><a xlink:href="https://github.com/maidsafe/sn_bindgen/blob/master/src/csharp/emit.rs#:~:text=enum%20Mode" xlink:title="&lt;TABLE&gt;">
<polygon fill="yellow" stroke="none" points="263,-87.5 263,-124.5 325,-124.5 325,-87.5 263,-87.5"/>
<polygon fill="none" stroke="black" points="263,-87.5 263,-124.5 325,-124.5 325,-87.5 263,-87.5"/>
<text text-anchor="start" x="274" y="-103.3" font-family="Arial" font-weight="bold" font-size="14.00">Mode</text>
<polygon fill="none" stroke="black" points="262,-87 262,-126 326,-126 326,-87 262,-87"/>
</a>
</g>
</g>
<!-- ndMode&#45;&gt;ndLangJava -->
<g id="edge17" class="edge"><title>ndMode&#45;&gt;ndLangJava</title>
<path fill="none" stroke="black" stroke-dasharray="5,2" d="M334.001,-86.0985C355.383,-75.7276 382.044,-62.7959 405.411,-51.4624"/>
<polygon fill="black" stroke="black" points="414.522,-47.0433 407.488,-55.4562 410.023,-49.2253 405.524,-51.4074 405.524,-51.4074 405.524,-51.4074 410.023,-49.2253 403.561,-47.3585 414.522,-47.0433 414.522,-47.0433"/>
</g>
<!-- ndMode&#45;&gt;ndLangCSharp -->
<g id="edge18" class="edge"><title>ndMode&#45;&gt;ndLangCSharp</title>
<path fill="none" stroke="black" stroke-dasharray="5,2" d="M334.023,-86.0179C337.025,-84.8989 340.038,-83.8754 343,-83 403.06,-65.2533 573.002,-44.0521 671.973,-32.6773"/>
<polygon fill="black" stroke="black" points="681.912,-31.5407 672.488,-37.1479 676.944,-32.1088 671.976,-32.677 671.976,-32.677 671.976,-32.677 676.944,-32.1088 671.465,-28.2062 681.912,-31.5407 681.912,-31.5407"/>
</g>
<!-- ndStructMode -->
<g id="node19" class="node"><title>ndStructMode</title>
<g id="a_node19_20"><a xlink:href="https://github.com/maidsafe/sn_bindgen/blob/master/src/csharp/emit.rs#:~:text=enum%20StructMode" xlink:title="&lt;TABLE&gt;">
<polygon fill="yellow" stroke="none" points="237,-170.5 237,-207.5 341,-207.5 341,-170.5 237,-170.5"/>
<polygon fill="none" stroke="black" points="237,-170.5 237,-207.5 341,-207.5 341,-170.5 237,-170.5"/>
<text text-anchor="start" x="248" y="-186.3" font-family="Arial" font-weight="bold" font-size="14.00">StructMode</text>
<polygon fill="none" stroke="black" points="236,-170 236,-209 342,-209 342,-170 236,-170"/>
</a>
</g>
</g>
<!-- ndStructMode&#45;&gt;ndMode -->
<g id="edge19" class="edge"><title>ndStructMode&#45;&gt;ndMode</title>
<path fill="none" stroke="black" stroke-dasharray="5,2" d="M290.393,-165.937C290.882,-158.016 291.441,-148.949 291.972,-140.357"/>
<polygon fill="black" stroke="black" points="292.597,-130.223 296.473,-140.481 292.289,-135.213 291.981,-140.204 291.981,-140.204 291.981,-140.204 292.289,-135.213 287.49,-139.927 292.597,-130.223 292.597,-130.223"/>
</g>
<!-- ndSection -->
<g id="node21" class="node"><title>ndSection</title>
<g id="a_node21_21"><a xlink:href="https://github.com/maidsafe/sn_bindgen/blob/master/src/csharp/mod.rs#:~:text=struct%20Section" xlink:title="&lt;TABLE&gt;">
<polygon fill="lightblue" stroke="none" points="378,-170.5 378,-207.5 453,-207.5 453,-170.5 378,-170.5"/>
<polygon fill="none" stroke="black" points="378,-170.5 378,-207.5 453,-207.5 453,-170.5 378,-170.5"/>
<text text-anchor="start" x="389" y="-186.3" font-family="Arial" font-weight="bold" font-size="14.00">Section</text>
<polygon fill="none" stroke="black" points="376.5,-170 376.5,-209 453.5,-209 453.5,-170 376.5,-170"/>
</a>
</g>
</g>
<!-- ndSection&#45;&gt;ndContext -->
<g id="edge20" class="edge"><title>ndSection&#45;&gt;ndContext</title>
<path fill="none" stroke="black" d="M410.822,-165.937C409.452,-158.539 407.896,-150.14 406.4,-142.063"/>
<polygon fill="black" stroke="black" points="406.393,-142.022 401.367,-136.851 404.208,-130.223 409.234,-135.394 406.393,-142.022"/>
</g>
<!-- ndType -->
<g id="node22" class="node"><title>ndType</title>
<g id="a_node22_22"><a xlink:href="https://github.com/maidsafe/sn_bindgen/blob/master/src/csharp/intermediate.rs#:~:text=enum%20Type" xlink:title="&lt;TABLE&gt;">
<polygon fill="yellow" stroke="none" points="935,-253.5 935,-290.5 992,-290.5 992,-253.5 935,-253.5"/>
<polygon fill="none" stroke="black" points="935,-253.5 935,-290.5 992,-290.5 992,-253.5 935,-253.5"/>
<text text-anchor="start" x="946" y="-269.3" font-family="Arial" font-weight="bold" font-size="14.00">Type</text>
<polygon fill="none" stroke="black" points="933.5,-253 933.5,-292 992.5,-292 992.5,-253 933.5,-253"/>
</a>
</g>
</g>
<!-- ndType&#45;&gt;ndLangJava -->
<g id="edge21" class="edge"><title>ndType&#45;&gt;ndLangJava</title>
<path fill="none" stroke="black" stroke-dasharray="5,2" d="M925.414,-271.818C769.392,-272.752 178.341,-272.329 123,-213 97.2965,-185.444 142.345,-88.9115 149,-83 184.809,-51.1927 315.823,-35.6093 396.252,-28.8819"/>
<polygon fill="black" stroke="black" points="406.283,-28.0667 396.68,-33.362 401.299,-28.4718 396.315,-28.8768 396.315,-28.8768 396.315,-28.8768 401.299,-28.4718 395.951,-24.3916 406.283,-28.0667 406.283,-28.0667"/>
</g>
<!-- ndType&#45;&gt;ndContext -->
<g id="edge22" class="edge"><title>ndType&#45;&gt;ndContext</title>
<path fill="none" stroke="black" stroke-dasharray="5,2" d="M925.321,-270.165C829.773,-266.231 580.537,-252.374 509,-213 485.22,-199.912 489.16,-185.227 470,-166 459.835,-155.799 448.059,-145.464 437.1,-136.377"/>
<polygon fill="black" stroke="black" points="429.299,-130.001 439.889,-132.846 433.17,-133.166 437.042,-136.33 437.042,-136.33 437.042,-136.33 433.17,-133.166 434.194,-139.814 429.299,-130.001 429.299,-130.001"/>
</g>
<!-- ndType&#45;&gt;ndStructField -->
<g id="edge27" class="edge"><title>ndType&#45;&gt;ndStructField</title>
<path fill="none" stroke="black" d="M945.451,-248.937C939.155,-240.842 931.928,-231.55 925.116,-222.792"/>
<polygon fill="black" stroke="black" points="925.041,-222.695 918.2,-220.415 917.673,-213.223 924.514,-215.503 925.041,-222.695"/>
</g>
<!-- ndType&#45;&gt;ndLangC -->
<g id="edge23" class="edge"><title>ndType&#45;&gt;ndLangC</title>
<path fill="none" stroke="black" stroke-dasharray="5,2" d="M1000.65,-264.599C1034.77,-256.804 1084.93,-241.335 1120,-213 1168.53,-173.786 1211.06,-132.444 1173,-83 1152.67,-56.5939 1063.93,-39.6596 1005.27,-31.1325"/>
<polygon fill="black" stroke="black" points="995.046,-29.6873 1005.58,-26.6319 999.997,-30.3874 1004.95,-31.0876 1004.95,-31.0876 1004.95,-31.0876 999.997,-30.3874 1004.32,-35.5433 995.046,-29.6873 995.046,-29.6873"/>
</g>
<!-- ndType&#45;&gt;ndLangCSharp -->
<g id="edge24" class="edge"><title>ndType&#45;&gt;ndLangCSharp</title>
<path fill="none" stroke="black" stroke-dasharray="5,2" d="M1000.52,-264.936C1029.64,-257.657 1068.14,-242.754 1087,-213 1098.18,-195.357 1093.35,-185.9 1087,-166 1073.24,-122.884 1065.89,-107.753 1028,-83 1010.7,-71.6971 898.13,-50.5947 820.56,-37.0641"/>
<polygon fill="black" stroke="black" points="810.335,-35.2889 820.957,-32.5658 815.261,-36.1442 820.187,-36.9995 820.187,-36.9995 820.187,-36.9995 815.261,-36.1442 819.418,-41.4332 810.335,-35.2889 810.335,-35.2889"/>
</g>
<!-- ndFunction -->
<g id="node24" class="node"><title>ndFunction</title>
<g id="a_node24_23"><a xlink:href="https://github.com/maidsafe/sn_bindgen/blob/master/src/csharp/intermediate.rs#:~:text=struct%20Function" xlink:title="&lt;TABLE&gt;">
<polygon fill="lightblue" stroke="none" points="985,-170.5 985,-207.5 1069,-207.5 1069,-170.5 985,-170.5"/>
<polygon fill="none" stroke="black" points="985,-170.5 985,-207.5 1069,-207.5 1069,-170.5 985,-170.5"/>
<text text-anchor="start" x="996" y="-186.3" font-family="Arial" font-weight="bold" font-size="14.00">Function</text>
<polygon fill="none" stroke="black" points="984,-170 984,-209 1070,-209 1070,-170 984,-170"/>
</a>
</g>
</g>
<!-- ndType&#45;&gt;ndFunction -->
<g id="edge25" class="edge"><title>ndType&#45;&gt;ndFunction</title>
<path fill="none" stroke="black" d="M974.704,-248.937C980.558,-240.755 987.825,-231.35 995.092,-222.509"/>
<polygon fill="black" stroke="black" points="995.182,-222.403 995.987,-215.237 1002.91,-213.223 1002.11,-220.389 995.182,-222.403"/>
</g>
<!-- ndConst -->
<g id="node26" class="node"><title>ndConst</title>
<g id="a_node26_24"><a xlink:href="https://github.com/maidsafe/sn_bindgen/blob/master/src/csharp/intermediate.rs#:~:text=struct%20Const" xlink:title="&lt;TABLE&gt;">
<polygon fill="lightblue" stroke="none" points="608,-87.5 608,-124.5 672,-124.5 672,-87.5 608,-87.5"/>
<polygon fill="none" stroke="black" points="608,-87.5 608,-124.5 672,-124.5 672,-87.5 608,-87.5"/>
<text text-anchor="start" x="619" y="-103.3" font-family="Arial" font-weight="bold" font-size="14.00">Const</text>
<polygon fill="none" stroke="black" points="607,-87 607,-126 673,-126 673,-87 607,-87"/>
</a>
</g>
</g>
<!-- ndType&#45;&gt;ndConst -->
<g id="edge26" class="edge"><title>ndType&#45;&gt;ndConst</title>
<path fill="none" stroke="black" d="M925.375,-267.882C858.235,-260.744 721.401,-242.891 685,-213 663.477,-195.326 652.039,-165.473 646.092,-142.025"/>
<polygon fill="black" stroke="black" points="646.044,-141.814 640.816,-136.847 643.391,-130.111 648.618,-135.078 646.044,-141.814"/>
</g>
<!-- ndArraySize -->
<g id="node23" class="node"><title>ndArraySize</title>
<g id="a_node23_25"><a xlink:href="https://github.com/maidsafe/sn_bindgen/blob/master/src/csharp/intermediate.rs#:~:text=enum%20ArraySize" xlink:title="&lt;TABLE&gt;">
<polygon fill="yellow" stroke="none" points="918,-336.5 918,-373.5 1008,-373.5 1008,-336.5 918,-336.5"/>
<polygon fill="none" stroke="black" points="918,-336.5 918,-373.5 1008,-373.5 1008,-336.5 918,-336.5"/>
<text text-anchor="start" x="929" y="-352.3" font-family="Arial" font-weight="bold" font-size="14.00">ArraySize</text>
<polygon fill="none" stroke="black" points="917,-336 917,-375 1009,-375 1009,-336 917,-336"/>
</a>
</g>
</g>
<!-- ndArraySize&#45;&gt;ndType -->
<g id="edge28" class="edge"><title>ndArraySize&#45;&gt;ndType</title>
<path fill="none" stroke="black" d="M963,-331.937C963,-324.626 963,-316.337 963,-308.348"/>
<polygon fill="black" stroke="black" points="963,-308.223 959,-302.223 963,-296.223 967,-302.223 963,-308.223"/>
</g>
<!-- ndFunction&#45;&gt;ndLangCSharp -->
<g id="edge29" class="edge"><title>ndFunction&#45;&gt;ndLangCSharp</title>
<path fill="none" stroke="black" stroke-dasharray="5,2" d="M1028.13,-165.841C1028.01,-141.923 1023.92,-104.741 1002,-83 989.092,-70.1954 892.868,-50.6336 822.174,-37.7077"/>
<polygon fill="black" stroke="black" points="821.989,-37.6744 815.372,-40.5399 810.182,-35.5336 816.799,-32.6682 821.989,-37.6744"/>
</g>
<!-- ndFunction&#45;&gt;ndType -->
<g id="edge30" class="edge"><title>ndFunction&#45;&gt;ndType</title>
<path fill="none" stroke="black" d="M1015.18,-213.223C1009.31,-221.42 1002.03,-230.83 994.766,-239.663"/>
<polygon fill="black" stroke="black" points="994.684,-239.761 993.876,-246.926 986.951,-248.937 987.759,-241.771 994.684,-239.761"/>
</g>
<!-- ndSnippet -->
<g id="node25" class="node"><title>ndSnippet</title>
<g id="a_node25_26"><a xlink:href="https://github.com/maidsafe/sn_bindgen/blob/master/src/csharp/intermediate.rs#:~:text=struct%20Snippet" xlink:title="&lt;TABLE&gt;">
<polygon fill="lightblue" stroke="none" points="708,-87.5 708,-124.5 784,-124.5 784,-87.5 708,-87.5"/>
<polygon fill="none" stroke="black" points="708,-87.5 708,-124.5 784,-124.5 784,-87.5 708,-87.5"/>
<text text-anchor="start" x="719" y="-103.3" font-family="Arial" font-weight="bold" font-size="14.00">Snippet</text>
<polygon fill="none" stroke="black" points="707,-87 707,-126 785,-126 785,-87 707,-87"/>
</a>
</g>
</g>
<!-- ndSnippet&#45;&gt;ndLangCSharp -->
<g id="edge31" class="edge"><title>ndSnippet&#45;&gt;ndLangCSharp</title>
<path fill="none" stroke="black" d="M746,-82.937C746,-75.6257 746,-67.3371 746,-59.3477"/>
<polygon fill="black" stroke="black" points="746,-59.2229 742,-53.223 746,-47.2229 750,-53.2229 746,-59.2229"/>
</g>
<!-- ndConst&#45;&gt;ndLangJava -->
<g id="edge32" class="edge"><title>ndConst&#45;&gt;ndLangJava</title>
<path fill="none" stroke="black" stroke-dasharray="5,2" d="M598.934,-86.917C575.584,-76.351 545.941,-62.937 520.124,-51.2543"/>
<polygon fill="black" stroke="black" points="510.804,-47.037 521.77,-47.0599 515.359,-49.0983 519.915,-51.1597 519.915,-51.1597 519.915,-51.1597 515.359,-49.0983 518.059,-55.2595 510.804,-47.037 510.804,-47.037"/>
</g>
<!-- ndConst&#45;&gt;ndLangC -->
<g id="edge33" class="edge"><title>ndConst&#45;&gt;ndLangC</title>
<path fill="none" stroke="black" stroke-dasharray="5,2" d="M681.213,-86.1761C684.161,-85.0348 687.11,-83.9619 690,-83 760.625,-59.4963 845.1,-42.5505 898.657,-33.1277"/>
<polygon fill="black" stroke="black" points="908.615,-31.3999 899.531,-37.5433 903.688,-32.2547 898.762,-33.1096 898.762,-33.1096 898.762,-33.1096 903.688,-32.2547 897.992,-28.6758 908.615,-31.3999 908.615,-31.3999"/>
</g>
<!-- ndConst&#45;&gt;ndLangCSharp -->
<g id="edge34" class="edge"><title>ndConst&#45;&gt;ndLangCSharp</title>
<path fill="none" stroke="black" stroke-dasharray="5,2" d="M669.527,-82.937C681.031,-74.146 694.384,-63.9421 706.683,-54.5444"/>
<polygon fill="black" stroke="black" points="706.729,-54.509 709.068,-47.6877 716.264,-47.2229 713.925,-54.0443 706.729,-54.509"/>
</g>
<!-- ndConstValue -->
<g id="node27" class="node"><title>ndConstValue</title>
<g id="a_node27_27"><a xlink:href="https://github.com/maidsafe/sn_bindgen/blob/master/src/csharp/intermediate.rs#:~:text=enum%20ConstValue" xlink:title="&lt;TABLE&gt;">
<polygon fill="yellow" stroke="none" points="527,-170.5 527,-207.5 629,-207.5 629,-170.5 527,-170.5"/>
<polygon fill="none" stroke="black" points="527,-170.5 527,-207.5 629,-207.5 629,-170.5 527,-170.5"/>
<text text-anchor="start" x="538" y="-186.3" font-family="Arial" font-weight="bold" font-size="14.00">ConstValue</text>
<polygon fill="none" stroke="black" points="526,-170 526,-209 630,-209 630,-170 526,-170"/>
</a>
</g>
</g>
<!-- ndConstValue&#45;&gt;ndConst -->
<g id="edge35" class="edge"><title>ndConstValue&#45;&gt;ndConst</title>
<path fill="none" stroke="black" d="M595.27,-165.937C601.466,-157.842 608.579,-148.55 615.283,-139.792"/>
<polygon fill="black" stroke="black" points="615.313,-139.752 615.784,-132.556 622.607,-130.223 622.137,-137.419 615.313,-139.752"/>
</g>
<!-- ndStruct&#45;&gt;ndLangJava -->
<g id="edge36" class="edge"><title>ndStruct&#45;&gt;ndLangJava</title>
<path fill="none" stroke="black" stroke-dasharray="5,2" d="M910.323,-85.9912C907.204,-84.8785 904.075,-83.8636 901,-83 865.667,-73.0752 639.27,-45.5271 525.733,-32.08"/>
<polygon fill="black" stroke="black" points="515.77,-30.9019 526.229,-27.6074 520.735,-31.489 525.7,-32.0762 525.7,-32.0762 525.7,-32.0762 520.735,-31.489 525.172,-36.5451 515.77,-30.9019 515.77,-30.9019"/>
</g>
<!-- ndStruct&#45;&gt;ndLangC -->
<g id="edge37" class="edge"><title>ndStruct&#45;&gt;ndLangC</title>
<path fill="none" stroke="black" stroke-dasharray="5,2" d="M952,-82.937C952,-75.0164 952,-65.9488 952,-57.3574"/>
<polygon fill="black" stroke="black" points="952,-47.2229 956.5,-57.2229 952,-52.2229 952,-57.2229 952,-57.2229 952,-57.2229 952,-52.2229 947.5,-57.223 952,-47.2229 952,-47.2229"/>
</g>
<!-- ndStruct&#45;&gt;ndLangCSharp -->
<g id="edge38" class="edge"><title>ndStruct&#45;&gt;ndLangCSharp</title>
<path fill="none" stroke="black" stroke-dasharray="5,2" d="M910.331,-86.895C907.182,-85.557 904.046,-84.2455 901,-83 874.563,-72.1887 845.313,-60.9623 819.41,-51.2696"/>
<polygon fill="black" stroke="black" points="819.395,-51.2641 812.376,-52.9171 808.15,-47.0737 815.17,-45.4207 819.395,-51.2641"/>
</g>
<!-- ndEnum -->
<g id="node29" class="node"><title>ndEnum</title>
<g id="a_node29_28"><a xlink:href="https://github.com/maidsafe/sn_bindgen/blob/master/src/csharp/intermediate.rs#:~:text=struct%20Enum" xlink:title="&lt;TABLE&gt;">
<polygon fill="lightblue" stroke="none" points="821,-87.5 821,-124.5 884,-124.5 884,-87.5 821,-87.5"/>
<polygon fill="none" stroke="black" points="821,-87.5 821,-124.5 884,-124.5 884,-87.5 821,-87.5"/>
<text text-anchor="start" x="832" y="-103.3" font-family="Arial" font-weight="bold" font-size="14.00">Enum</text>
<polygon fill="none" stroke="black" points="819.5,-87 819.5,-126 884.5,-126 884.5,-87 819.5,-87"/>
</a>
</g>
</g>
<!-- ndEnum&#45;&gt;ndLangJava -->
<g id="edge39" class="edge"><title>ndEnum&#45;&gt;ndLangJava</title>
<path fill="none" stroke="black" stroke-dasharray="5,2" d="M811.395,-86.2177C808.25,-85.0363 805.095,-83.9452 802,-83 708.288,-54.3832 595.546,-38.483 526.077,-30.7127"/>
<polygon fill="black" stroke="black" points="515.729,-29.5797 526.159,-26.1949 520.699,-30.1239 525.669,-30.6682 525.669,-30.6682 525.669,-30.6682 520.699,-30.1239 525.179,-35.1414 515.729,-29.5797 515.729,-29.5797"/>
</g>
<!-- ndEnum&#45;&gt;ndLangC -->
<g id="edge40" class="edge"><title>ndEnum&#45;&gt;ndLangC</title>
<path fill="none" stroke="black" stroke-dasharray="5,2" d="M879.856,-82.937C891.031,-73.8849 904.056,-63.3347 915.939,-53.7092"/>
<polygon fill="black" stroke="black" points="923.947,-47.2229 919.009,-57.014 920.062,-50.3701 916.176,-53.5172 916.176,-53.5172 916.176,-53.5172 920.062,-50.3701 913.344,-50.0204 923.947,-47.2229 923.947,-47.2229"/>
</g>
<!-- ndEnum&#45;&gt;ndLangCSharp -->
<g id="edge41" class="edge"><title>ndEnum&#45;&gt;ndLangCSharp</title>
<path fill="none" stroke="black" stroke-dasharray="5,2" d="M822.473,-82.937C810.969,-74.146 797.616,-63.9421 785.317,-54.5444"/>
<polygon fill="black" stroke="black" points="785.271,-54.509 778.075,-54.0443 775.736,-47.2229 782.932,-47.6877 785.271,-54.509"/>
</g>
<!-- ndEnumVariant -->
<g id="node30" class="node"><title>ndEnumVariant</title>
<g id="a_node30_29"><a xlink:href="https://github.com/maidsafe/sn_bindgen/blob/master/src/csharp/intermediate.rs#:~:text=struct%20EnumVariant" xlink:title="&lt;TABLE&gt;">
<polygon fill="lightblue" stroke="none" points="703,-170.5 703,-207.5 815,-207.5 815,-170.5 703,-170.5"/>
<polygon fill="none" stroke="black" points="703,-170.5 703,-207.5 815,-207.5 815,-170.5 703,-170.5"/>
<text text-anchor="start" x="714" y="-186.3" font-family="Arial" font-weight="bold" font-size="14.00">EnumVariant</text>
<polygon fill="none" stroke="black" points="702,-170 702,-209 816,-209 816,-170 702,-170"/>
</a>
</g>
</g>
<!-- ndEnumVariant&#45;&gt;ndEnum -->
<g id="edge42" class="edge"><title>ndEnumVariant&#45;&gt;ndEnum</title>
<path fill="none" stroke="black" d="M784.906,-165.937C794.699,-157.407 806.02,-147.547 816.541,-138.384"/>
<polygon fill="black" stroke="black" points="816.862,-138.104 818.759,-131.147 825.911,-130.223 824.013,-137.18 816.862,-138.104"/>
</g>
</g>
</svg>
