<?xml version="1.0" encoding="UTF-8" standalone="no"?>
<!DOCTYPE svg PUBLIC "-//W3C//DTD SVG 1.1//EN"
 "http://www.w3.org/Graphics/SVG/1.1/DTD/svg11.dtd">
<!-- Generated by graphviz version 2.38.0 (20140413.2041)
 -->
<!-- Title: ml Pages: 1 -->
<svg width="3462pt" height="387pt"
 viewBox="0.00 0.00 3462.00 387.00" xmlns="http://www.w3.org/2000/svg" xmlns:xlink="http://www.w3.org/1999/xlink">
<g id="graph0" class="graph" transform="scale(1 1) rotate(0) translate(4 383)">
<title>ml</title>
<polygon fill="white" stroke="none" points="-4,4 -4,-383 3458,-383 3458,4 -4,4"/>
<!-- ndInput -->
<g id="node1" class="node"><title>ndInput</title>
<g id="a_node1_0"><a xlink:href="https://github.com/maidsafe/sn_bindgen/blob/master/src/lib.rs#:~:text=enum%20Input" xlink:title="&lt;TABLE&gt;">
<polygon fill="yellow" stroke="none" points="28,-87.5 28,-124.5 86,-124.5 86,-87.5 28,-87.5"/>
<polygon fill="none" stroke="black" points="28,-87.5 28,-124.5 86,-124.5 86,-87.5 28,-87.5"/>
<text text-anchor="start" x="39" y="-103.3" font-family="Arial" font-weight="bold" font-size="14.00">Input</text>
<polygon fill="none" stroke="black" points="27,-87 27,-126 87,-126 87,-87 27,-87"/>
</a>
</g>
</g>
<!-- ndBindgen -->
<g id="node2" class="node"><title>ndBindgen</title>
<g id="a_node2_1"><a xlink:href="https://github.com/maidsafe/sn_bindgen/blob/master/src/lib.rs#:~:text=struct%20Bindgen" xlink:title="&lt;TABLE&gt;">
<polygon fill="lightblue" stroke="none" points="9,-4.5 9,-41.5 529,-41.5 529,-4.5 9,-4.5"/>
<polygon fill="none" stroke="black" points="9,-4.5 9,-41.5 529,-41.5 529,-4.5 9,-4.5"/>
<text text-anchor="start" x="20" y="-20.3" font-family="Arial" font-weight="bold" font-size="14.00">pub struct Bindgen { &#160;&#160;&#160;/// The root source file of the crate. &#160;&#160;&#160;input: Input,}</text>
<polygon fill="none" stroke="black" points="8,-4 8,-43 530,-43 530,-4 8,-4"/>
</a>
</g>
</g>
<!-- ndInput&#45;&gt;ndBindgen -->
<g id="edge1" class="edge"><title>ndInput&#45;&gt;ndBindgen</title>
<path fill="none" stroke="black" d="M95.2323,-88.6593C99.8546,-86.7116 104.523,-84.7853 109,-83 136.281,-72.1209 166.473,-60.8793 193.212,-51.1935"/>
<polygon fill="black" stroke="black" points="193.547,-51.0728 197.834,-45.2746 204.836,-47.0019 200.548,-52.8002 193.547,-51.0728"/>
</g>
<!-- ndIndentedWriter -->
<g id="node3" class="node"><title>ndIndentedWriter</title>
<g id="a_node3_2"><a xlink:href="https://github.com/maidsafe/sn_bindgen/blob/master/src/output.rs#:~:text=struct%20IndentedWriter" xlink:title="&lt;TABLE&gt;">
<polygon fill="lightblue" stroke="none" points="1941,-336.5 1941,-373.5 2665,-373.5 2665,-336.5 1941,-336.5"/>
<polygon fill="none" stroke="black" points="1941,-336.5 1941,-373.5 2665,-373.5 2665,-336.5 1941,-336.5"/>
<text text-anchor="start" x="1952" y="-352.3" font-family="Arial" font-weight="bold" font-size="14.00">pub struct IndentedWriter { &#160;&#160;&#160;inner: String, &#160;&#160;&#160;indent: bool, &#160;&#160;&#160;indent_level: usize, &#160;&#160;&#160;indent_width: usize,}</text>
<polygon fill="none" stroke="black" points="1940,-336 1940,-375 2666,-375 2666,-336 1940,-336"/>
</a>
</g>
</g>
<!-- ndError -->
<g id="node4" class="node"><title>ndError</title>
<text text-anchor="middle" x="570" y="-102.8" font-family="Times,serif" font-size="14.00">ndError</text>
</g>
<!-- ndError&#45;&gt;ndBindgen -->
<g id="edge2" class="edge"><title>ndError&#45;&gt;ndBindgen</title>
<path fill="none" stroke="black" stroke-dasharray="5,2" d="M540.315,-97.5117C499.347,-86.4871 423.615,-66.1073 362.553,-49.6754"/>
<polygon fill="black" stroke="black" points="352.887,-47.0742 363.713,-45.3274 357.715,-48.3735 362.543,-49.6728 362.543,-49.6728 362.543,-49.6728 357.715,-48.3735 361.374,-54.0182 352.887,-47.0742 352.887,-47.0742"/>
</g>
<!-- ndLangJava -->
<g id="node8" class="node"><title>ndLangJava</title>
<text text-anchor="middle" x="809" y="-19.8" font-family="Times,serif" font-size="14.00">ndLangJava</text>
</g>
<!-- ndError&#45;&gt;ndLangJava -->
<g id="edge3" class="edge"><title>ndError&#45;&gt;ndLangJava</title>
<path fill="none" stroke="black" d="M597.706,-88.4513C601.434,-86.4744 605.262,-84.5976 609,-83 658.017,-62.0489 716.867,-45.8351 757.992,-35.8462"/>
<polygon fill="black" stroke="black" points="767.787,-33.5032 759.108,-40.2061 762.924,-34.6664 758.061,-35.8296 758.061,-35.8296 758.061,-35.8296 762.924,-34.6664 757.014,-31.453 767.787,-33.5032 767.787,-33.5032"/>
</g>
<!-- ndLangC -->
<g id="node17" class="node"><title>ndLangC</title>
<text text-anchor="middle" x="1613" y="-19.8" font-family="Times,serif" font-size="14.00">ndLangC</text>
</g>
<!-- ndError&#45;&gt;ndLangC -->
<g id="edge4" class="edge"><title>ndError&#45;&gt;ndLangC</title>
<path fill="none" stroke="black" d="M595.655,-88.4215C599.959,-86.2325 604.495,-84.3039 609,-83 800.416,-27.6013 1307.23,-71.4044 1505,-47 1526.37,-44.3634 1549.79,-39.7043 1569.35,-35.3071"/>
<polygon fill="black" stroke="black" points="1579.19,-33.0436 1570.45,-39.6703 1574.32,-34.1642 1569.45,-35.2848 1569.45,-35.2848 1569.45,-35.2848 1574.32,-34.1642 1568.44,-30.8993 1579.19,-33.0436 1579.19,-33.0436"/>
</g>
<!-- ndLangCSharp -->
<g id="node20" class="node"><title>ndLangCSharp</title>
<text text-anchor="middle" x="1447" y="-19.8" font-family="Times,serif" font-size="14.00">ndLangCSharp</text>
</g>
<!-- ndError&#45;&gt;ndLangCSharp -->
<g id="edge5" class="edge"><title>ndError&#45;&gt;ndLangCSharp</title>
<path fill="none" stroke="black" d="M596.12,-88.3186C600.291,-86.2039 604.664,-84.3246 609,-83 754.924,-38.4216 1222.15,-27.6339 1387.95,-25.1804"/>
<polygon fill="black" stroke="black" points="1397.97,-25.037 1388.03,-29.6798 1392.97,-25.1086 1387.97,-25.1803 1387.97,-25.1803 1387.97,-25.1803 1392.97,-25.1086 1387.9,-20.6807 1397.97,-25.037 1397.97,-25.037"/>
</g>
<!-- ndLevel -->
<g id="node5" class="node"><title>ndLevel</title>
<g id="a_node5_3"><a xlink:href="https://github.com/maidsafe/sn_bindgen/blob/master/src/errors.rs#:~:text=enum%20Level" xlink:title="&lt;TABLE&gt;">
<polygon fill="yellow" stroke="none" points="160,-170.5 160,-207.5 220,-207.5 220,-170.5 160,-170.5"/>
<polygon fill="none" stroke="black" points="160,-170.5 160,-207.5 220,-207.5 220,-170.5 160,-170.5"/>
<text text-anchor="start" x="171" y="-186.3" font-family="Arial" font-weight="bold" font-size="14.00">Level</text>
<polygon fill="none" stroke="black" points="159,-170 159,-209 221,-209 221,-170 159,-170"/>
</a>
</g>
</g>
<!-- ndLevel&#45;&gt;ndError -->
<g id="edge6" class="edge"><title>ndLevel&#45;&gt;ndError</title>
<path fill="none" stroke="black" d="M229.221,-169.11C232.158,-167.97 235.104,-166.916 238,-166 339.277,-133.962 463.825,-117.948 527.742,-111.34"/>
<polygon fill="black" stroke="black" points="528.121,-111.302 533.692,-106.724 540.061,-110.106 534.49,-114.684 528.121,-111.302"/>
</g>
<!-- ndJniArgResult -->
<g id="node6" class="node"><title>ndJniArgResult</title>
<text text-anchor="middle" x="2743" y="-351.8" font-family="Times,serif" font-size="14.00">ndJniArgResult</text>
</g>
<!-- ndJniCallback -->
<g id="node7" class="node"><title>ndJniCallback</title>
<text text-anchor="middle" x="2859" y="-351.8" font-family="Times,serif" font-size="14.00">ndJniCallback</text>
</g>
<!-- ndContext -->
<g id="node9" class="node"><title>ndContext</title>
<text text-anchor="middle" x="753" y="-102.8" font-family="Times,serif" font-size="14.00">ndContext</text>
</g>
<!-- ndContext&#45;&gt;ndLangJava -->
<g id="edge7" class="edge"><title>ndContext&#45;&gt;ndLangJava</title>
<path fill="none" stroke="black" d="M764.876,-88.322C772.226,-77.6903 781.825,-63.806 790.193,-51.7035"/>
<polygon fill="black" stroke="black" points="790.317,-51.524 790.439,-44.3139 797.141,-41.6533 797.019,-48.8634 790.317,-51.524"/>
</g>
<!-- ndContext&#45;&gt;ndLangCSharp -->
<g id="edge8" class="edge"><title>ndContext&#45;&gt;ndLangCSharp</title>
<path fill="none" stroke="black" d="M783.371,-88.4258C788.152,-86.2963 793.127,-84.3843 798,-83 907.466,-51.9048 1245.68,-33.5546 1385.52,-27.1213"/>
<polygon fill="black" stroke="black" points="1385.64,-27.1159 1391.45,-22.8477 1397.63,-26.5713 1391.81,-30.8395 1385.64,-27.1159"/>
</g>
<!-- ndJavaClassField -->
<g id="node10" class="node"><title>ndJavaClassField</title>
<g id="a_node10_4"><a xlink:href="https://github.com/maidsafe/sn_bindgen/blob/master/src/java/mod.rs#:~:text=struct%20JavaClassField" xlink:title="&lt;TABLE&gt;">
<polygon fill="lightblue" stroke="none" points="2933,-336.5 2933,-373.5 3445,-373.5 3445,-336.5 2933,-336.5"/>
<polygon fill="none" stroke="black" points="2933,-336.5 2933,-373.5 3445,-373.5 3445,-336.5 2933,-336.5"/>
<text text-anchor="start" x="2944" y="-352.3" font-family="Arial" font-weight="bold" font-size="14.00">struct JavaClassField { &#160;&#160;&#160;name: String, &#160;&#160;&#160;ty: JavaType, &#160;&#160;&#160;ty_str: String,}</text>
<polygon fill="none" stroke="black" points="2932,-336 2932,-375 3446,-375 3446,-336 2932,-336"/>
</a>
</g>
</g>
<!-- ndFilterMode -->
<g id="node11" class="node"><title>ndFilterMode</title>
<g id="a_node11_5"><a xlink:href="https://github.com/maidsafe/sn_bindgen/blob/master/src/common.rs#:~:text=enum%20FilterMode" xlink:title="&lt;TABLE&gt;">
<polygon fill="yellow" stroke="none" points="817,-87.5 817,-124.5 914,-124.5 914,-87.5 817,-87.5"/>
<polygon fill="none" stroke="black" points="817,-87.5 817,-124.5 914,-124.5 914,-87.5 817,-87.5"/>
<text text-anchor="start" x="828" y="-103.3" font-family="Arial" font-weight="bold" font-size="14.00">FilterMode</text>
<polygon fill="none" stroke="black" points="815.5,-87 815.5,-126 914.5,-126 914.5,-87 815.5,-87"/>
</a>
</g>
</g>
<!-- ndFilterMode&#45;&gt;ndLangJava -->
<g id="edge9" class="edge"><title>ndFilterMode&#45;&gt;ndLangJava</title>
<path fill="none" stroke="black" stroke-dasharray="5,2" d="M849.401,-82.937C842.675,-73.2091 834.754,-61.751 827.715,-51.5698"/>
<polygon fill="black" stroke="black" points="827.611,-51.4189 820.908,-48.7582 820.786,-41.5481 827.489,-44.2088 827.611,-51.4189"/>
</g>
<!-- ndFilterMode&#45;&gt;ndLangCSharp -->
<g id="edge10" class="edge"><title>ndFilterMode&#45;&gt;ndLangCSharp</title>
<path fill="none" stroke="black" stroke-dasharray="5,2" d="M922.525,-85.3241C925.713,-84.475 928.886,-83.6917 932,-83 1093.37,-47.161 1288.33,-32.6339 1385.58,-27.2869"/>
<polygon fill="black" stroke="black" points="1385.81,-27.2747 1391.59,-22.9609 1397.79,-26.6357 1392.02,-30.9495 1385.81,-27.2747"/>
</g>
<!-- ndLang -->
<g id="node12" class="node"><title>ndLang</title>
<g id="a_node12_6"><a xlink:href="https://github.com/maidsafe/sn_bindgen/blob/master/src/common.rs#:~:text=trait%20Lang" xlink:title="&lt;TABLE&gt;">
<polygon fill="lightgreen" stroke="none" points="2082,-87.5 2082,-124.5 2140,-124.5 2140,-87.5 2082,-87.5"/>
<polygon fill="none" stroke="black" points="2082,-87.5 2082,-124.5 2140,-124.5 2140,-87.5 2082,-87.5"/>
<text text-anchor="start" x="2093" y="-103.3" font-family="Arial" font-weight="bold" font-size="14.00">Lang</text>
<polygon fill="none" stroke="black" points="2081,-87 2081,-126 2141,-126 2141,-87 2081,-87"/>
</a>
</g>
</g>
<!-- ndLang&#45;&gt;ndLangC -->
<g id="edge11" class="edge"><title>ndLang&#45;&gt;ndLangC</title>
<path fill="none" stroke="black" stroke-dasharray="5,2" d="M2072.81,-87.5652C2068.22,-85.8331 2063.55,-84.2566 2059,-83 1915.28,-43.3166 1737.85,-30.2861 1656.94,-26.2258"/>
<polygon fill="none" stroke="black" points="1656.8,-22.7148 1646.64,-25.7315 1656.46,-29.7068 1656.8,-22.7148"/>
</g>
<!-- ndLang&#45;&gt;ndLangCSharp -->
<g id="edge12" class="edge"><title>ndLang&#45;&gt;ndLangCSharp</title>
<path fill="none" stroke="black" stroke-dasharray="5,2" d="M2072.88,-87.3083C2068.28,-85.6223 2063.59,-84.1269 2059,-83 1847.81,-31.0931 1786.74,-74.4523 1571,-47 1549.83,-44.3066 1526.8,-40.4 1506.39,-36.5954"/>
<polygon fill="none" stroke="black" points="1506.77,-33.1052 1496.29,-34.6822 1505.47,-39.9828 1506.77,-33.1052"/>
</g>
<!-- ndStructField -->
<g id="node13" class="node"><title>ndStructField</title>
<g id="a_node13_7"><a xlink:href="https://github.com/maidsafe/sn_bindgen/blob/master/src/csharp/intermediate.rs#:~:text=struct%20StructField" xlink:title="&lt;TABLE&gt;">
<polygon fill="lightblue" stroke="none" points="1290,-170.5 1290,-207.5 2006,-207.5 2006,-170.5 1290,-170.5"/>
<polygon fill="none" stroke="black" points="1290,-170.5 1290,-207.5 2006,-207.5 2006,-170.5 1290,-170.5"/>
<text text-anchor="start" x="1301" y="-186.3" font-family="Arial" font-weight="bold" font-size="14.00">pub struct StructField { &#160;&#160;&#160;pub docs: String, &#160;&#160;&#160;pub name: String, &#160;&#160;&#160;pub ty: Type, &#160;&#160;&#160;pub has_cap: bool,}</text>
<polygon fill="none" stroke="black" points="1289,-170 1289,-209 2007,-209 2007,-170 1289,-170"/>
</a>
</g>
</g>
<!-- ndStruct -->
<g id="node28" class="node"><title>ndStruct</title>
<text text-anchor="middle" x="1613" y="-102.8" font-family="Times,serif" font-size="14.00">ndStruct</text>
</g>
<!-- ndStructField&#45;&gt;ndStruct -->
<g id="edge13" class="edge"><title>ndStructField&#45;&gt;ndStruct</title>
<path fill="none" stroke="black" d="M1638.25,-165.937C1634.22,-156.619 1629.51,-145.713 1625.26,-135.862"/>
<polygon fill="black" stroke="black" points="1625.13,-135.564 1619.07,-131.643 1620.37,-124.548 1626.42,-128.469 1625.13,-135.564"/>
</g>
<!-- ndCTypeNamed -->
<g id="node14" class="node"><title>ndCTypeNamed</title>
<g id="a_node14_8"><a xlink:href="https://github.com/maidsafe/sn_bindgen/blob/master/src/lang_c/types.rs#:~:text=struct%20CTypeNamed" xlink:title="&lt;TABLE&gt;">
<polygon fill="lightblue" stroke="none" points="2073,-4.5 2073,-41.5 2434,-41.5 2434,-4.5 2073,-4.5"/>
<polygon fill="none" stroke="black" points="2073,-4.5 2073,-41.5 2434,-41.5 2434,-4.5 2073,-4.5"/>
<text text-anchor="start" x="2084" y="-20.3" font-family="Arial" font-weight="bold" font-size="14.00">pub struct CTypeNamed(pub String, pub CType);</text>
<polygon fill="none" stroke="black" points="2071.5,-4 2071.5,-43 2434.5,-43 2434.5,-4 2071.5,-4"/>
</a>
</g>
</g>
<!-- ndCPtrType -->
<g id="node15" class="node"><title>ndCPtrType</title>
<g id="a_node15_9"><a xlink:href="https://github.com/maidsafe/sn_bindgen/blob/master/src/lang_c/types.rs#:~:text=enum%20CPtrType" xlink:title="&lt;TABLE&gt;">
<polygon fill="yellow" stroke="none" points="2214,-170.5 2214,-207.5 2302,-207.5 2302,-170.5 2214,-170.5"/>
<polygon fill="none" stroke="black" points="2214,-170.5 2214,-207.5 2302,-207.5 2302,-170.5 2214,-170.5"/>
<text text-anchor="start" x="2225" y="-186.3" font-family="Arial" font-weight="bold" font-size="14.00">CPtrType</text>
<polygon fill="none" stroke="black" points="2213,-170 2213,-209 2303,-209 2303,-170 2213,-170"/>
</a>
</g>
</g>
<!-- ndCType -->
<g id="node16" class="node"><title>ndCType</title>
<g id="a_node16_10"><a xlink:href="https://github.com/maidsafe/sn_bindgen/blob/master/src/lang_c/types.rs#:~:text=enum%20CType" xlink:title="&lt;TABLE&gt;">
<polygon fill="yellow" stroke="none" points="2219,-87.5 2219,-124.5 2287,-124.5 2287,-87.5 2219,-87.5"/>
<polygon fill="none" stroke="black" points="2219,-87.5 2219,-124.5 2287,-124.5 2287,-87.5 2219,-87.5"/>
<text text-anchor="start" x="2230" y="-103.3" font-family="Arial" font-weight="bold" font-size="14.00">CType</text>
<polygon fill="none" stroke="black" points="2218,-87 2218,-126 2288,-126 2288,-87 2218,-87"/>
</a>
</g>
</g>
<!-- ndCPtrType&#45;&gt;ndCType -->
<g id="edge14" class="edge"><title>ndCPtrType&#45;&gt;ndCType</title>
<path fill="none" stroke="black" d="M2256.61,-165.937C2256.16,-158.626 2255.64,-150.337 2255.15,-142.348"/>
<polygon fill="black" stroke="black" points="2255.14,-142.2 2250.78,-136.458 2254.4,-130.223 2258.76,-135.965 2255.14,-142.2"/>
</g>
<!-- ndCType&#45;&gt;ndCTypeNamed -->
<g id="edge15" class="edge"><title>ndCType&#45;&gt;ndCTypeNamed</title>
<path fill="none" stroke="black" d="M2253,-82.937C2253,-75.6257 2253,-67.3371 2253,-59.3477"/>
<polygon fill="black" stroke="black" points="2253,-59.2229 2249,-53.223 2253,-47.2229 2257,-53.2229 2253,-59.2229"/>
</g>
<!-- ndCType&#45;&gt;ndLangC -->
<g id="edge16" class="edge"><title>ndCType&#45;&gt;ndLangC</title>
<path fill="none" stroke="black" stroke-dasharray="5,2" d="M2209.71,-88.2623C2203.5,-86.2401 2197.14,-84.402 2191,-83 1995.09,-38.2648 1754.02,-27.728 1656.75,-25.2548"/>
<polygon fill="black" stroke="black" points="1646.7,-25.0153 1656.8,-20.7549 1651.7,-25.1344 1656.7,-25.2536 1656.7,-25.2536 1656.7,-25.2536 1651.7,-25.1344 1656.59,-29.7523 1646.7,-25.0153 1646.7,-25.0153"/>
</g>
<!-- ndMode -->
<g id="node18" class="node"><title>ndMode</title>
<g id="a_node18_11"><a xlink:href="https://github.com/maidsafe/sn_bindgen/blob/master/src/csharp/emit.rs#:~:text=enum%20Mode" xlink:title="&lt;TABLE&gt;">
<polygon fill="yellow" stroke="none" points="627,-87.5 627,-124.5 689,-124.5 689,-87.5 627,-87.5"/>
<polygon fill="none" stroke="black" points="627,-87.5 627,-124.5 689,-124.5 689,-87.5 627,-87.5"/>
<text text-anchor="start" x="638" y="-103.3" font-family="Arial" font-weight="bold" font-size="14.00">Mode</text>
<polygon fill="none" stroke="black" points="626,-87 626,-126 690,-126 690,-87 626,-87"/>
</a>
</g>
</g>
<!-- ndMode&#45;&gt;ndLangJava -->
<g id="edge17" class="edge"><title>ndMode&#45;&gt;ndLangJava</title>
<path fill="none" stroke="black" stroke-dasharray="5,2" d="M698.069,-84.0061C719.628,-72.4414 746.172,-58.2026 767.888,-46.5532"/>
<polygon fill="black" stroke="black" points="776.871,-41.7345 770.186,-50.4272 772.465,-44.0981 768.059,-46.4617 768.059,-46.4617 768.059,-46.4617 772.465,-44.0981 765.932,-42.4962 776.871,-41.7345 776.871,-41.7345"/>
</g>
<!-- ndMode&#45;&gt;ndLangCSharp -->
<g id="edge18" class="edge"><title>ndMode&#45;&gt;ndLangCSharp</title>
<path fill="none" stroke="black" stroke-dasharray="5,2" d="M698.236,-85.7002C701.161,-84.6722 704.101,-83.7547 707,-83 835.392,-49.5758 1235.93,-32.0749 1387.81,-26.5046"/>
<polygon fill="black" stroke="black" points="1397.88,-26.1395 1388.05,-30.999 1392.88,-26.3207 1387.88,-26.502 1387.88,-26.502 1387.88,-26.502 1392.88,-26.3207 1387.72,-22.0049 1397.88,-26.1395 1397.88,-26.1395"/>
</g>
<!-- ndStructMode -->
<g id="node19" class="node"><title>ndStructMode</title>
<g id="a_node19_12"><a xlink:href="https://github.com/maidsafe/sn_bindgen/blob/master/src/csharp/emit.rs#:~:text=enum%20StructMode" xlink:title="&lt;TABLE&gt;">
<polygon fill="yellow" stroke="none" points="256,-170.5 256,-207.5 360,-207.5 360,-170.5 256,-170.5"/>
<polygon fill="none" stroke="black" points="256,-170.5 256,-207.5 360,-207.5 360,-170.5 256,-170.5"/>
<text text-anchor="start" x="267" y="-186.3" font-family="Arial" font-weight="bold" font-size="14.00">StructMode</text>
<polygon fill="none" stroke="black" points="255,-170 255,-209 361,-209 361,-170 255,-170"/>
</a>
</g>
</g>
<!-- ndStructMode&#45;&gt;ndMode -->
<g id="edge19" class="edge"><title>ndStructMode&#45;&gt;ndMode</title>
<path fill="none" stroke="black" stroke-dasharray="5,2" d="M369.307,-168.198C372.235,-167.416 375.143,-166.678 378,-166 478.668,-142.097 508.826,-159.493 608,-130 608.103,-129.969 608.205,-129.939 608.308,-129.908"/>
<polygon fill="black" stroke="black" points="617.966,-126.626 609.945,-134.104 613.232,-128.235 608.497,-129.844 608.497,-129.844 608.497,-129.844 613.232,-128.235 607.049,-125.583 617.966,-126.626 617.966,-126.626"/>
</g>
<!-- ndSection -->
<g id="node21" class="node"><title>ndSection</title>
<g id="a_node21_13"><a xlink:href="https://github.com/maidsafe/sn_bindgen/blob/master/src/csharp/mod.rs#:~:text=struct%20Section" xlink:title="&lt;TABLE&gt;">
<polygon fill="lightblue" stroke="none" points="397,-170.5 397,-207.5 918,-207.5 918,-170.5 397,-170.5"/>
<polygon fill="none" stroke="black" points="397,-170.5 397,-207.5 918,-207.5 918,-170.5 397,-170.5"/>
<text text-anchor="start" x="408" y="-186.3" font-family="Arial" font-weight="bold" font-size="14.00">pub struct Section { &#160;&#160;&#160;path: String, &#160;&#160;&#160;namespace: String, &#160;&#160;&#160;class: String,}</text>
<polygon fill="none" stroke="black" points="395.5,-170 395.5,-209 918.5,-209 918.5,-170 395.5,-170"/>
</a>
</g>
</g>
<!-- ndSection&#45;&gt;ndContext -->
<g id="edge20" class="edge"><title>ndSection&#45;&gt;ndContext</title>
<path fill="none" stroke="black" d="M683.741,-165.937C696.12,-155.492 710.863,-143.053 723.559,-132.341"/>
<polygon fill="black" stroke="black" points="723.623,-132.287 725.63,-125.36 732.795,-124.548 730.789,-131.475 723.623,-132.287"/>
</g>
<!-- ndType -->
<g id="node22" class="node"><title>ndType</title>
<g id="a_node22_14"><a xlink:href="https://github.com/maidsafe/sn_bindgen/blob/master/src/csharp/intermediate.rs#:~:text=enum%20Type" xlink:title="&lt;TABLE&gt;">
<polygon fill="yellow" stroke="none" points="1832,-253.5 1832,-290.5 1889,-290.5 1889,-253.5 1832,-253.5"/>
<polygon fill="none" stroke="black" points="1832,-253.5 1832,-290.5 1889,-290.5 1889,-253.5 1832,-253.5"/>
<text text-anchor="start" x="1843" y="-269.3" font-family="Arial" font-weight="bold" font-size="14.00">Type</text>
<polygon fill="none" stroke="black" points="1830.5,-253 1830.5,-292 1889.5,-292 1889.5,-253 1830.5,-253"/>
</a>
</g>
</g>
<!-- ndType&#45;&gt;ndLangJava -->
<g id="edge21" class="edge"><title>ndType&#45;&gt;ndLangJava</title>
<path fill="none" stroke="black" stroke-dasharray="5,2" d="M1822.35,-271.682C1576.02,-272.691 202.407,-275.499 142,-213 45.992,-113.667 -11.9579,-198.052 531,-83 610.035,-66.2525 701.747,-46.9859 757.554,-35.2808"/>
<polygon fill="black" stroke="black" points="767.545,-33.1855 758.682,-39.6422 762.652,-34.2118 757.758,-35.238 757.758,-35.238 757.758,-35.238 762.652,-34.2118 756.834,-30.8338 767.545,-33.1855 767.545,-33.1855"/>
</g>
<!-- ndType&#45;&gt;ndContext -->
<g id="edge22" class="edge"><title>ndType&#45;&gt;ndContext</title>
<path fill="none" stroke="black" stroke-dasharray="5,2" d="M1822.38,-270.76C1663.28,-267.396 1050.37,-251.99 974,-213 949.825,-200.657 957.888,-180.592 935,-166 881.915,-132.156 856.914,-152.196 798,-130 796.805,-129.55 795.599,-129.077 794.388,-128.587"/>
<polygon fill="black" stroke="black" points="785.087,-124.542 796.052,-124.404 789.672,-126.536 794.257,-128.53 794.257,-128.53 794.257,-128.53 789.672,-126.536 792.462,-132.657 785.087,-124.542 785.087,-124.542"/>
</g>
<!-- ndType&#45;&gt;ndStructField -->
<g id="edge27" class="edge"><title>ndType&#45;&gt;ndStructField</title>
<path fill="none" stroke="black" d="M1822.1,-257.019C1793.42,-246.062 1753.21,-230.699 1718.66,-217.498"/>
<polygon fill="black" stroke="black" points="1718.4,-217.396 1711.36,-218.992 1707.19,-213.113 1714.22,-211.518 1718.4,-217.396"/>
</g>
<!-- ndType&#45;&gt;ndLangC -->
<g id="edge23" class="edge"><title>ndType&#45;&gt;ndLangC</title>
<path fill="none" stroke="black" stroke-dasharray="5,2" d="M1897.69,-269.525C1969.11,-264.931 2119.98,-250.88 2153,-213 2190.99,-169.414 2196.64,-126.012 2158,-83 2124.67,-45.8994 1780.45,-30.3321 1656.87,-25.9105"/>
<polygon fill="black" stroke="black" points="1646.64,-25.5521 1656.79,-21.4051 1651.63,-25.7272 1656.63,-25.9023 1656.63,-25.9023 1656.63,-25.9023 1651.63,-25.7272 1656.47,-30.3996 1646.64,-25.5521 1646.64,-25.5521"/>
</g>
<!-- ndType&#45;&gt;ndLangCSharp -->
<g id="edge24" class="edge"><title>ndType&#45;&gt;ndLangCSharp</title>
<path fill="none" stroke="black" stroke-dasharray="5,2" d="M1897.71,-269.904C1983.03,-264.892 2179.06,-244.709 2120,-166 2080.41,-113.236 1899.52,-96.716 1835,-83 1719.17,-58.377 1687.95,-65.5756 1571,-47 1549.74,-43.6229 1526.5,-39.5178 1505.95,-35.7432"/>
<polygon fill="black" stroke="black" points="1496.1,-33.9214 1506.75,-31.3146 1501.01,-34.8305 1505.93,-35.7396 1505.93,-35.7396 1505.93,-35.7396 1501.01,-34.8305 1505.11,-40.1646 1496.1,-33.9214 1496.1,-33.9214"/>
</g>
<!-- ndFunction -->
<g id="node24" class="node"><title>ndFunction</title>
<text text-anchor="middle" x="2072" y="-185.8" font-family="Times,serif" font-size="14.00">ndFunction</text>
</g>
<!-- ndType&#45;&gt;ndFunction -->
<g id="edge25" class="edge"><title>ndType&#45;&gt;ndFunction</title>
<path fill="none" stroke="black" d="M1897.52,-256.75C1929.19,-245.551 1975.31,-229.339 2015,-213 2017.26,-212.069 2019.57,-211.09 2021.9,-210.081"/>
<polygon fill="black" stroke="black" points="2021.92,-210.075 2025.79,-203.992 2032.89,-205.227 2029.02,-211.31 2021.92,-210.075"/>
</g>
<!-- ndConst -->
<g id="node26" class="node"><title>ndConst</title>
<g id="a_node26_15"><a xlink:href="https://github.com/maidsafe/sn_bindgen/blob/master/src/csharp/intermediate.rs#:~:text=struct%20Const" xlink:title="&lt;TABLE&gt;">
<polygon fill="lightblue" stroke="none" points="950,-87.5 950,-124.5 1384,-124.5 1384,-87.5 950,-87.5"/>
<polygon fill="none" stroke="black" points="950,-87.5 950,-124.5 1384,-124.5 1384,-87.5 950,-87.5"/>
<text text-anchor="start" x="961" y="-103.3" font-family="Arial" font-weight="bold" font-size="14.00">pub struct Const { &#160;&#160;&#160;pub ty: Type, &#160;&#160;&#160;pub value: ConstValue,}</text>
<polygon fill="none" stroke="black" points="949,-87 949,-126 1385,-126 1385,-87 949,-87"/>
</a>
</g>
</g>
<!-- ndType&#45;&gt;ndConst -->
<g id="edge26" class="edge"><title>ndType&#45;&gt;ndConst</title>
<path fill="none" stroke="black" d="M1822.19,-271.305C1681.75,-270.193 1195.82,-262.753 1150,-213 1132.47,-193.971 1139.08,-164.371 1148.74,-141.362"/>
<polygon fill="black" stroke="black" points="1148.79,-141.255 1147.65,-134.133 1153.79,-130.347 1154.92,-137.468 1148.79,-141.255"/>
</g>
<!-- ndArraySize -->
<g id="node23" class="node"><title>ndArraySize</title>
<g id="a_node23_16"><a xlink:href="https://github.com/maidsafe/sn_bindgen/blob/master/src/csharp/intermediate.rs#:~:text=enum%20ArraySize" xlink:title="&lt;TABLE&gt;">
<polygon fill="yellow" stroke="none" points="1815,-336.5 1815,-373.5 1905,-373.5 1905,-336.5 1815,-336.5"/>
<polygon fill="none" stroke="black" points="1815,-336.5 1815,-373.5 1905,-373.5 1905,-336.5 1815,-336.5"/>
<text text-anchor="start" x="1826" y="-352.3" font-family="Arial" font-weight="bold" font-size="14.00">ArraySize</text>
<polygon fill="none" stroke="black" points="1814,-336 1814,-375 1906,-375 1906,-336 1814,-336"/>
</a>
</g>
</g>
<!-- ndArraySize&#45;&gt;ndType -->
<g id="edge28" class="edge"><title>ndArraySize&#45;&gt;ndType</title>
<path fill="none" stroke="black" d="M1860,-331.937C1860,-324.626 1860,-316.337 1860,-308.348"/>
<polygon fill="black" stroke="black" points="1860,-308.223 1856,-302.223 1860,-296.223 1864,-302.223 1860,-308.223"/>
</g>
<!-- ndFunction&#45;&gt;ndLangCSharp -->
<g id="edge29" class="edge"><title>ndFunction&#45;&gt;ndLangCSharp</title>
<path fill="none" stroke="black" stroke-dasharray="5,2" d="M2037.73,-171.443C2033.17,-169.468 2028.51,-167.593 2024,-166 1840.87,-101.341 1614.98,-55.2474 1508.3,-35.389"/>
<polygon fill="black" stroke="black" points="1508,-35.3337 1501.37,-38.1774 1496.2,-33.1541 1502.83,-30.3104 1508,-35.3337"/>
</g>
<!-- ndFunction&#45;&gt;ndType -->
<g id="edge30" class="edge"><title>ndFunction&#45;&gt;ndType</title>
<path fill="none" stroke="black" d="M2045.46,-207.593C2041.33,-209.476 2037.09,-211.318 2033,-213 1992.12,-229.829 1944.42,-246.523 1909.36,-257.743"/>
<polygon fill="black" stroke="black" points="1908.96,-257.868 1904.44,-263.487 1897.52,-261.475 1902.04,-255.857 1908.96,-257.868"/>
</g>
<!-- ndSnippet -->
<g id="node25" class="node"><title>ndSnippet</title>
<text text-anchor="middle" x="1447" y="-102.8" font-family="Times,serif" font-size="14.00">ndSnippet</text>
</g>
<!-- ndSnippet&#45;&gt;ndLangCSharp -->
<g id="edge31" class="edge"><title>ndSnippet&#45;&gt;ndLangCSharp</title>
<path fill="none" stroke="black" d="M1447,-88.322C1447,-78.3347 1447,-65.477 1447,-53.9225"/>
<polygon fill="black" stroke="black" points="1447,-53.6533 1443,-47.6533 1447,-41.6533 1451,-47.6532 1447,-53.6533"/>
</g>
<!-- ndConst&#45;&gt;ndLangJava -->
<g id="edge32" class="edge"><title>ndConst&#45;&gt;ndLangJava</title>
<path fill="none" stroke="black" stroke-dasharray="5,2" d="M1067.28,-82.937C1000.03,-67.721 914.066,-48.272 860.259,-36.0976"/>
<polygon fill="black" stroke="black" points="850.269,-33.8374 861.016,-31.6552 855.146,-34.9409 860.023,-36.0443 860.023,-36.0443 860.023,-36.0443 855.146,-34.9409 859.03,-40.4334 850.269,-33.8374 850.269,-33.8374"/>
</g>
<!-- ndConst&#45;&gt;ndLangC -->
<g id="edge33" class="edge"><title>ndConst&#45;&gt;ndLangC</title>
<path fill="none" stroke="black" stroke-dasharray="5,2" d="M1303.28,-82.9984C1364.97,-72.5346 1438.75,-59.6305 1505,-47 1526.31,-42.9377 1549.9,-38.0659 1569.59,-33.896"/>
<polygon fill="black" stroke="black" points="1579.49,-31.7874 1570.65,-38.271 1574.6,-32.8285 1569.71,-33.8696 1569.71,-33.8696 1569.71,-33.8696 1574.6,-32.8285 1568.77,-29.4682 1579.49,-31.7874 1579.49,-31.7874"/>
</g>
<!-- ndConst&#45;&gt;ndLangCSharp -->
<g id="edge34" class="edge"><title>ndConst&#45;&gt;ndLangCSharp</title>
<path fill="none" stroke="black" stroke-dasharray="5,2" d="M1245,-82.937C1289.57,-70.0426 1344.65,-54.1082 1386.03,-42.1372"/>
<polygon fill="black" stroke="black" points="1386.06,-42.128 1390.72,-36.6182 1397.59,-38.7933 1392.94,-44.3031 1386.06,-42.128"/>
</g>
<!-- ndConstValue -->
<g id="node27" class="node"><title>ndConstValue</title>
<g id="a_node27_17"><a xlink:href="https://github.com/maidsafe/sn_bindgen/blob/master/src/csharp/intermediate.rs#:~:text=enum%20ConstValue" xlink:title="&lt;TABLE&gt;">
<polygon fill="yellow" stroke="none" points="992,-170.5 992,-207.5 1094,-207.5 1094,-170.5 992,-170.5"/>
<polygon fill="none" stroke="black" points="992,-170.5 992,-207.5 1094,-207.5 1094,-170.5 992,-170.5"/>
<text text-anchor="start" x="1003" y="-186.3" font-family="Arial" font-weight="bold" font-size="14.00">ConstValue</text>
<polygon fill="none" stroke="black" points="991,-170 991,-209 1095,-209 1095,-170 991,-170"/>
</a>
</g>
</g>
<!-- ndConstValue&#45;&gt;ndConst -->
<g id="edge35" class="edge"><title>ndConstValue&#45;&gt;ndConst</title>
<path fill="none" stroke="black" d="M1077.54,-165.937C1091.27,-156.972 1107.24,-146.537 1121.86,-136.987"/>
<polygon fill="black" stroke="black" points="1122.17,-136.786 1125,-130.155 1132.21,-130.223 1129.38,-136.853 1122.17,-136.786"/>
</g>
<!-- ndStruct&#45;&gt;ndLangJava -->
<g id="edge36" class="edge"><title>ndStruct&#45;&gt;ndLangJava</title>
<path fill="none" stroke="black" stroke-dasharray="5,2" d="M1586.17,-88.348C1581.89,-86.2292 1577.42,-84.341 1573,-83 1439.05,-42.3826 1009.02,-29.0117 860.234,-25.5394"/>
<polygon fill="black" stroke="black" points="850.015,-25.3063 860.115,-21.0356 855.014,-25.4203 860.013,-25.5344 860.013,-25.5344 860.013,-25.5344 855.014,-25.4203 859.91,-30.0333 850.015,-25.3063 850.015,-25.3063"/>
</g>
<!-- ndStruct&#45;&gt;ndLangC -->
<g id="edge37" class="edge"><title>ndStruct&#45;&gt;ndLangC</title>
<path fill="none" stroke="black" stroke-dasharray="5,2" d="M1613,-88.322C1613,-77.6903 1613,-63.806 1613,-51.7035"/>
<polygon fill="black" stroke="black" points="1613,-41.6533 1617.5,-51.6532 1613,-46.6533 1613,-51.6533 1613,-51.6533 1613,-51.6533 1613,-46.6533 1608.5,-51.6533 1613,-41.6533 1613,-41.6533"/>
</g>
<!-- ndStruct&#45;&gt;ndLangCSharp -->
<g id="edge38" class="edge"><title>ndStruct&#45;&gt;ndLangCSharp</title>
<path fill="none" stroke="black" stroke-dasharray="5,2" d="M1583,-88.2925C1579.64,-86.4686 1576.26,-84.6714 1573,-83 1548.19,-70.2874 1520.1,-57.1287 1496.75,-46.5183"/>
<polygon fill="black" stroke="black" points="1496.63,-46.4676 1489.52,-47.6428 1485.7,-41.5274 1492.81,-40.3522 1496.63,-46.4676"/>
</g>
<!-- ndEnum -->
<g id="node29" class="node"><title>ndEnum</title>
<text text-anchor="middle" x="1532" y="-102.8" font-family="Times,serif" font-size="14.00">ndEnum</text>
</g>
<!-- ndEnum&#45;&gt;ndLangJava -->
<g id="edge39" class="edge"><title>ndEnum&#45;&gt;ndLangJava</title>
<path fill="none" stroke="black" stroke-dasharray="5,2" d="M1504.45,-88.3884C1500.08,-86.2641 1495.51,-84.3635 1491,-83 1372.93,-47.2868 997.888,-31.0259 860.271,-26.1533"/>
<polygon fill="black" stroke="black" points="850.007,-25.7955 860.158,-21.6467 855.004,-25.9697 860.001,-26.144 860.001,-26.144 860.001,-26.144 855.004,-25.9697 859.845,-30.6412 850.007,-25.7955 850.007,-25.7955"/>
</g>
<!-- ndEnum&#45;&gt;ndLangC -->
<g id="edge40" class="edge"><title>ndEnum&#45;&gt;ndLangC</title>
<path fill="none" stroke="black" stroke-dasharray="5,2" d="M1549.18,-88.322C1560.67,-76.8312 1575.96,-61.5409 1588.69,-48.8072"/>
<polygon fill="black" stroke="black" points="1595.85,-41.6533 1591.96,-51.9063 1592.31,-45.1888 1588.78,-48.7244 1588.78,-48.7244 1588.78,-48.7244 1592.31,-45.1888 1585.59,-45.5424 1595.85,-41.6533 1595.85,-41.6533"/>
</g>
<!-- ndEnum&#45;&gt;ndLangCSharp -->
<g id="edge41" class="edge"><title>ndEnum&#45;&gt;ndLangCSharp</title>
<path fill="none" stroke="black" stroke-dasharray="5,2" d="M1513.97,-88.322C1502.37,-77.2608 1487.06,-62.6788 1474.02,-50.2456"/>
<polygon fill="black" stroke="black" points="1473.69,-49.9317 1466.58,-48.6882 1465,-41.6533 1472.1,-42.8967 1473.69,-49.9317"/>
</g>
<!-- ndEnumVariant -->
<g id="node30" class="node"><title>ndEnumVariant</title>
<text text-anchor="middle" x="1211" y="-185.8" font-family="Times,serif" font-size="14.00">ndEnumVariant</text>
</g>
<!-- ndEnumVariant&#45;&gt;ndEnum -->
<g id="edge42" class="edge"><title>ndEnumVariant&#45;&gt;ndEnum</title>
<path fill="none" stroke="black" d="M1253.99,-171.488C1259.99,-169.457 1266.11,-167.556 1272,-166 1367.37,-140.818 1397.76,-162.189 1491,-130 1491.54,-129.815 1492.08,-129.622 1492.62,-129.424"/>
<polygon fill="black" stroke="black" points="1492.89,-129.305 1496.8,-123.245 1503.9,-124.524 1499.99,-130.583 1492.89,-129.305"/>
</g>
</g>
</svg>
