<?xml version="1.0" encoding="UTF-8" standalone="no"?>
<!DOCTYPE svg PUBLIC "-//W3C//DTD SVG 1.1//EN"
 "http://www.w3.org/Graphics/SVG/1.1/DTD/svg11.dtd">
<!-- Generated by graphviz version 2.38.0 (20140413.2041)
 -->
<!-- Title: ml Pages: 1 -->
<svg width="1461pt" height="387pt"
 viewBox="0.00 0.00 1461.00 387.00" xmlns="http://www.w3.org/2000/svg" xmlns:xlink="http://www.w3.org/1999/xlink">
<g id="graph0" class="graph" transform="scale(1 1) rotate(0) translate(4 383)">
<title>ml</title>
<polygon fill="white" stroke="none" points="-4,4 -4,-383 1457,-383 1457,4 -4,4"/>
<!-- ndInput -->
<g id="node1" class="node"><title>ndInput</title>
<g id="a_node1_0"><a xlink:href="https://github.com/maidsafe/sn_bindgen/blob/master/src/lib.rs#:~:text=enum%20Input" xlink:title="&lt;TABLE&gt;">
<polygon fill="yellow" stroke="none" points="9,-87.5 9,-124.5 67,-124.5 67,-87.5 9,-87.5"/>
<polygon fill="none" stroke="black" points="9,-87.5 9,-124.5 67,-124.5 67,-87.5 9,-87.5"/>
<text text-anchor="start" x="20" y="-103.3" font-family="Arial" font-weight="bold" font-size="14.00">Input</text>
<polygon fill="none" stroke="black" points="8,-87 8,-126 68,-126 68,-87 8,-87"/>
</a>
</g>
</g>
<!-- ndBindgen -->
<g id="node2" class="node"><title>ndBindgen</title>
<g id="a_node2_1"><a xlink:href="https://github.com/maidsafe/sn_bindgen/blob/master/src/lib.rs#:~:text=struct%20Bindgen" xlink:title="&lt;TABLE&gt;">
<polygon fill="lightblue" stroke="none" points="76,-4.5 76,-41.5 157,-41.5 157,-4.5 76,-4.5"/>
<polygon fill="none" stroke="black" points="76,-4.5 76,-41.5 157,-41.5 157,-4.5 76,-4.5"/>
<text text-anchor="start" x="87" y="-20.3" font-family="Arial" font-weight="bold" font-size="14.00">Bindgen</text>
<polygon fill="none" stroke="black" points="74.5,-4 74.5,-43 157.5,-43 157.5,-4 74.5,-4"/>
</a>
</g>
</g>
<!-- ndInput&#45;&gt;ndBindgen -->
<g id="edge1" class="edge"><title>ndInput&#45;&gt;ndBindgen</title>
<path fill="none" stroke="black" d="M59.7273,-82.937C67.7736,-74.5812 77.0492,-64.9489 85.7189,-55.9458"/>
<polygon fill="black" stroke="black" points="85.7949,-55.8668 87.0755,-48.7703 94.1186,-47.2229 92.8381,-54.3195 85.7949,-55.8668"/>
</g>
<!-- ndIndentedWriter -->
<g id="node3" class="node"><title>ndIndentedWriter</title>
<g id="a_node3_2"><a xlink:href="https://github.com/maidsafe/sn_bindgen/blob/master/src/output.rs#:~:text=struct%20IndentedWriter" xlink:title="&lt;TABLE&gt;">
<polygon fill="lightblue" stroke="none" points="867,-336.5 867,-373.5 992,-373.5 992,-336.5 867,-336.5"/>
<polygon fill="none" stroke="black" points="867,-336.5 867,-373.5 992,-373.5 992,-336.5 867,-336.5"/>
<text text-anchor="start" x="878" y="-352.3" font-family="Arial" font-weight="bold" font-size="14.00">IndentedWriter</text>
<polygon fill="none" stroke="black" points="865.5,-336 865.5,-375 992.5,-375 992.5,-336 865.5,-336"/>
</a>
</g>
</g>
<!-- ndError -->
<g id="node4" class="node"><title>ndError</title>
<g id="a_node4_3"><a xlink:href="https://github.com/maidsafe/sn_bindgen/blob/master/src/errors.rs#:~:text=struct%20Error" xlink:title="&lt;TABLE&gt;">
<polygon fill="lightblue" stroke="none" points="165,-87.5 165,-124.5 224,-124.5 224,-87.5 165,-87.5"/>
<polygon fill="none" stroke="black" points="165,-87.5 165,-124.5 224,-124.5 224,-87.5 165,-87.5"/>
<text text-anchor="start" x="176" y="-103.3" font-family="Arial" font-weight="bold" font-size="14.00">Error</text>
<polygon fill="none" stroke="black" points="163.5,-87 163.5,-126 224.5,-126 224.5,-87 163.5,-87"/>
</a>
</g>
</g>
<!-- ndError&#45;&gt;ndBindgen -->
<g id="edge2" class="edge"><title>ndError&#45;&gt;ndBindgen</title>
<path fill="none" stroke="black" stroke-dasharray="5,2" d="M172.273,-82.937C163.807,-74.146 153.981,-63.9421 144.932,-54.5444"/>
<polygon fill="black" stroke="black" points="137.881,-47.2229 148.059,-51.3048 141.35,-50.8246 144.818,-54.4262 144.818,-54.4262 144.818,-54.4262 141.35,-50.8246 141.576,-57.5476 137.881,-47.2229 137.881,-47.2229"/>
</g>
<!-- ndLangJava -->
<g id="node8" class="node"><title>ndLangJava</title>
<g id="a_node8_4"><a xlink:href="https://github.com/maidsafe/sn_bindgen/blob/master/src/java/mod.rs#:~:text=struct%20LangJava" xlink:title="&lt;TABLE&gt;">
<polygon fill="lightblue" stroke="none" points="386,-4.5 386,-41.5 477,-41.5 477,-4.5 386,-4.5"/>
<polygon fill="none" stroke="black" points="386,-4.5 386,-41.5 477,-41.5 477,-4.5 386,-4.5"/>
<text text-anchor="start" x="397" y="-20.3" font-family="Arial" font-weight="bold" font-size="14.00">LangJava</text>
<polygon fill="none" stroke="black" points="384.5,-4 384.5,-43 477.5,-43 477.5,-4 384.5,-4"/>
</a>
</g>
</g>
<!-- ndError&#45;&gt;ndLangJava -->
<g id="edge3" class="edge"><title>ndError&#45;&gt;ndLangJava</title>
<path fill="none" stroke="black" d="M232.529,-86.4991C235.375,-85.2672 238.219,-84.0867 241,-83 282.018,-66.9687 329.349,-52.3851 366.509,-41.7887"/>
<polygon fill="black" stroke="black" points="376.216,-39.0453 367.817,-46.0955 371.404,-40.4052 366.593,-41.7651 366.593,-41.7651 366.593,-41.7651 371.404,-40.4052 365.369,-37.4348 376.216,-39.0453 376.216,-39.0453"/>
</g>
<!-- ndLangC -->
<g id="node16" class="node"><title>ndLangC</title>
<g id="a_node16_5"><a xlink:href="https://github.com/maidsafe/sn_bindgen/blob/master/src/lang_c/mod.rs#:~:text=struct%20LangC" xlink:title="&lt;TABLE&gt;">
<polygon fill="lightblue" stroke="none" points="841,-4.5 841,-41.5 909,-41.5 909,-4.5 841,-4.5"/>
<polygon fill="none" stroke="black" points="841,-4.5 841,-41.5 909,-41.5 909,-4.5 841,-4.5"/>
<text text-anchor="start" x="852" y="-20.3" font-family="Arial" font-weight="bold" font-size="14.00">LangC</text>
<polygon fill="none" stroke="black" points="840,-4 840,-43 910,-43 910,-4 840,-4"/>
</a>
</g>
</g>
<!-- ndError&#45;&gt;ndLangC -->
<g id="edge4" class="edge"><title>ndError&#45;&gt;ndLangC</title>
<path fill="none" stroke="black" d="M232.551,-85.6629C235.367,-84.6438 238.201,-83.7384 241,-83 464.143,-24.1324 530.184,-77.028 759,-47 779.698,-44.2837 802.27,-40.1717 821.956,-36.2027"/>
<polygon fill="black" stroke="black" points="831.962,-34.1484 823.072,-40.5676 827.064,-35.154 822.167,-36.1596 822.167,-36.1596 822.167,-36.1596 827.064,-35.154 821.262,-31.7515 831.962,-34.1484 831.962,-34.1484"/>
</g>
<!-- ndLangCSharp -->
<g id="node19" class="node"><title>ndLangCSharp</title>
<g id="a_node19_6"><a xlink:href="https://github.com/maidsafe/sn_bindgen/blob/master/src/csharp/mod.rs#:~:text=struct%20LangCSharp" xlink:title="&lt;TABLE&gt;">
<polygon fill="lightblue" stroke="none" points="631,-4.5 631,-41.5 741,-41.5 741,-4.5 631,-4.5"/>
<polygon fill="none" stroke="black" points="631,-4.5 631,-41.5 741,-41.5 741,-4.5 631,-4.5"/>
<text text-anchor="start" x="642" y="-20.3" font-family="Arial" font-weight="bold" font-size="14.00">LangCSharp</text>
<polygon fill="none" stroke="black" points="630,-4 630,-43 742,-43 742,-4 630,-4"/>
</a>
</g>
</g>
<!-- ndError&#45;&gt;ndLangCSharp -->
<g id="edge5" class="edge"><title>ndError&#45;&gt;ndLangCSharp</title>
<path fill="none" stroke="black" d="M232.606,-85.8592C235.409,-84.7934 238.225,-83.8239 241,-83 258.528,-77.7961 489.634,-48.7677 611.662,-33.6537"/>
<polygon fill="black" stroke="black" points="621.688,-32.4128 612.317,-38.1071 616.726,-33.027 611.764,-33.6412 611.764,-33.6412 611.764,-33.6412 616.726,-33.027 611.211,-29.1753 621.688,-32.4128 621.688,-32.4128"/>
</g>
<!-- ndLevel -->
<g id="node5" class="node"><title>ndLevel</title>
<g id="a_node5_7"><a xlink:href="https://github.com/maidsafe/sn_bindgen/blob/master/src/errors.rs#:~:text=enum%20Level" xlink:title="&lt;TABLE&gt;">
<polygon fill="yellow" stroke="none" points="141,-170.5 141,-207.5 201,-207.5 201,-170.5 141,-170.5"/>
<polygon fill="none" stroke="black" points="141,-170.5 141,-207.5 201,-207.5 201,-170.5 141,-170.5"/>
<text text-anchor="start" x="152" y="-186.3" font-family="Arial" font-weight="bold" font-size="14.00">Level</text>
<polygon fill="none" stroke="black" points="140,-170 140,-209 202,-209 202,-170 140,-170"/>
</a>
</g>
</g>
<!-- ndLevel&#45;&gt;ndError -->
<g id="edge6" class="edge"><title>ndLevel&#45;&gt;ndError</title>
<path fill="none" stroke="black" d="M177.407,-165.937C179.532,-158.452 181.949,-149.942 184.267,-141.778"/>
<polygon fill="black" stroke="black" points="184.27,-141.767 182.061,-134.902 187.548,-130.223 189.757,-137.087 184.27,-141.767"/>
</g>
<!-- ndJniArgResult -->
<g id="node6" class="node"><title>ndJniArgResult</title>
<g id="a_node6_8"><a xlink:href="https://github.com/maidsafe/sn_bindgen/blob/master/src/java/jni.rs#:~:text=struct%20JniArgResult" xlink:title="&lt;TABLE&gt;">
<polygon fill="lightblue" stroke="none" points="1028,-336.5 1028,-373.5 1140,-373.5 1140,-336.5 1028,-336.5"/>
<polygon fill="none" stroke="black" points="1028,-336.5 1028,-373.5 1140,-373.5 1140,-336.5 1028,-336.5"/>
<text text-anchor="start" x="1039" y="-352.3" font-family="Arial" font-weight="bold" font-size="14.00">JniArgResult</text>
<polygon fill="none" stroke="black" points="1027,-336 1027,-375 1141,-375 1141,-336 1027,-336"/>
</a>
</g>
</g>
<!-- ndJniCallback -->
<g id="node7" class="node"><title>ndJniCallback</title>
<g id="a_node7_9"><a xlink:href="https://github.com/maidsafe/sn_bindgen/blob/master/src/java/jni.rs#:~:text=struct%20JniCallback" xlink:title="&lt;TABLE&gt;">
<polygon fill="lightblue" stroke="none" points="1176,-336.5 1176,-373.5 1280,-373.5 1280,-336.5 1176,-336.5"/>
<polygon fill="none" stroke="black" points="1176,-336.5 1176,-373.5 1280,-373.5 1280,-336.5 1176,-336.5"/>
<text text-anchor="start" x="1187" y="-352.3" font-family="Arial" font-weight="bold" font-size="14.00">JniCallback</text>
<polygon fill="none" stroke="black" points="1175,-336 1175,-375 1281,-375 1281,-336 1175,-336"/>
</a>
</g>
</g>
<!-- ndContext -->
<g id="node9" class="node"><title>ndContext</title>
<g id="a_node9_10"><a xlink:href="https://github.com/maidsafe/sn_bindgen/blob/master/src/csharp/mod.rs#:~:text=struct%20Context" xlink:title="&lt;TABLE&gt;">
<polygon fill="lightblue" stroke="none" points="393,-87.5 393,-124.5 470,-124.5 470,-87.5 393,-87.5"/>
<polygon fill="none" stroke="black" points="393,-87.5 393,-124.5 470,-124.5 470,-87.5 393,-87.5"/>
<text text-anchor="start" x="404" y="-103.3" font-family="Arial" font-weight="bold" font-size="14.00">Context</text>
<polygon fill="none" stroke="black" points="391.5,-87 391.5,-126 470.5,-126 470.5,-87 391.5,-87"/>
</a>
</g>
</g>
<!-- ndContext&#45;&gt;ndLangJava -->
<g id="edge7" class="edge"><title>ndContext&#45;&gt;ndLangJava</title>
<path fill="none" stroke="black" d="M424.877,-82.937C424.331,-75.6257 424.142,-67.3371 424.309,-59.3477"/>
<polygon fill="black" stroke="black" points="424.315,-59.2103 420.594,-53.0334 424.865,-47.2229 428.586,-53.3999 424.315,-59.2103"/>
</g>
<!-- ndContext&#45;&gt;ndLangJava -->
<g id="edge19" class="edge"><title>ndContext&#45;&gt;ndLangJava</title>
<path fill="none" stroke="black" d="M437.123,-82.937C437.669,-75.6257 437.858,-67.3371 437.691,-59.3477"/>
<polygon fill="black" stroke="black" points="437.685,-59.2103 433.414,-53.3999 437.135,-47.2229 441.406,-53.0334 437.685,-59.2103"/>
</g>
<!-- ndContext&#45;&gt;ndLangCSharp -->
<g id="edge8" class="edge"><title>ndContext&#45;&gt;ndLangCSharp</title>
<path fill="none" stroke="black" d="M478.698,-83.1041C478.799,-83.0693 478.899,-83.0346 479,-83 521.784,-68.2678 570.521,-53.8397 610.014,-42.9981"/>
<polygon fill="black" stroke="black" points="610.111,-42.9719 614.852,-37.538 621.691,-39.824 616.95,-45.2579 610.111,-42.9719"/>
</g>
<!-- ndContext&#45;&gt;ndLangCSharp -->
<g id="edge20" class="edge"><title>ndContext&#45;&gt;ndLangCSharp</title>
<path fill="none" stroke="black" d="M478.659,-89.665C484.838,-87.3404 491.065,-85.0436 497,-83 533.835,-70.3165 575.081,-57.8582 609.666,-47.7202"/>
<polygon fill="black" stroke="black" points="610.084,-47.5982 614.722,-42.0767 621.603,-44.2344 616.965,-49.7559 610.084,-47.5982"/>
</g>
<!-- ndJavaClassField -->
<g id="node10" class="node"><title>ndJavaClassField</title>
<g id="a_node10_11"><a xlink:href="https://github.com/maidsafe/sn_bindgen/blob/master/src/java/mod.rs#:~:text=struct%20JavaClassField" xlink:title="&lt;TABLE&gt;">
<polygon fill="lightblue" stroke="none" points="1316,-336.5 1316,-373.5 1444,-373.5 1444,-336.5 1316,-336.5"/>
<polygon fill="none" stroke="black" points="1316,-336.5 1316,-373.5 1444,-373.5 1444,-336.5 1316,-336.5"/>
<text text-anchor="start" x="1327" y="-352.3" font-family="Arial" font-weight="bold" font-size="14.00">JavaClassField</text>
<polygon fill="none" stroke="black" points="1315,-336 1315,-375 1445,-375 1445,-336 1315,-336"/>
</a>
</g>
</g>
<!-- ndFilterMode -->
<g id="node11" class="node"><title>ndFilterMode</title>
<g id="a_node11_12"><a xlink:href="https://github.com/maidsafe/sn_bindgen/blob/master/src/common.rs#:~:text=enum%20FilterMode" xlink:title="&lt;TABLE&gt;">
<polygon fill="yellow" stroke="none" points="260,-87.5 260,-124.5 357,-124.5 357,-87.5 260,-87.5"/>
<polygon fill="none" stroke="black" points="260,-87.5 260,-124.5 357,-124.5 357,-87.5 260,-87.5"/>
<text text-anchor="start" x="271" y="-103.3" font-family="Arial" font-weight="bold" font-size="14.00">FilterMode</text>
<polygon fill="none" stroke="black" points="258.5,-87 258.5,-126 357.5,-126 357.5,-87 258.5,-87"/>
</a>
</g>
</g>
<!-- ndFilterMode&#45;&gt;ndLangJava -->
<g id="edge9" class="edge"><title>ndFilterMode&#45;&gt;ndLangJava</title>
<path fill="none" stroke="black" stroke-dasharray="5,2" d="M342.262,-82.937C355.876,-73.9719 371.721,-63.5374 386.223,-53.9871"/>
<polygon fill="black" stroke="black" points="386.473,-53.8229 389.284,-47.1822 396.495,-47.2229 393.684,-53.8636 386.473,-53.8229"/>
</g>
<!-- ndFilterMode&#45;&gt;ndLangCSharp -->
<g id="edge10" class="edge"><title>ndFilterMode&#45;&gt;ndLangCSharp</title>
<path fill="none" stroke="black" stroke-dasharray="5,2" d="M365.805,-85.2707C368.565,-84.4697 371.307,-83.7076 374,-83 453.493,-62.1126 546.254,-45.7077 609.846,-35.6516"/>
<polygon fill="black" stroke="black" points="609.911,-35.6416 615.22,-30.7623 621.766,-33.7869 616.457,-38.6661 609.911,-35.6416"/>
</g>
<!-- ndLang -->
<g id="node12" class="node"><title>ndLang</title>
<g id="a_node12_13"><a xlink:href="https://github.com/maidsafe/sn_bindgen/blob/master/src/common.rs#:~:text=trait%20Lang" xlink:title="&lt;TABLE&gt;">
<polygon fill="lightgreen" stroke="none" points="1093,-87.5 1093,-124.5 1151,-124.5 1151,-87.5 1093,-87.5"/>
<polygon fill="none" stroke="black" points="1093,-87.5 1093,-124.5 1151,-124.5 1151,-87.5 1093,-87.5"/>
<text text-anchor="start" x="1104" y="-103.3" font-family="Arial" font-weight="bold" font-size="14.00">Lang</text>
<polygon fill="none" stroke="black" points="1092,-87 1092,-126 1152,-126 1152,-87 1092,-87"/>
</a>
</g>
</g>
<!-- ndLang&#45;&gt;ndLangC -->
<g id="edge11" class="edge"><title>ndLang&#45;&gt;ndLangC</title>
<path fill="none" stroke="black" stroke-dasharray="5,2" d="M1083.87,-88.3984C1079.23,-86.4965 1074.53,-84.6524 1070,-83 1022.56,-65.6863 967.323,-49.4748 927.777,-38.5291"/>
<polygon fill="none" stroke="black" points="928.646,-35.1381 918.076,-35.8623 926.79,-41.8877 928.646,-35.1381"/>
</g>
<!-- ndLang&#45;&gt;ndLangCSharp -->
<g id="edge12" class="edge"><title>ndLang&#45;&gt;ndLangCSharp</title>
<path fill="none" stroke="black" stroke-dasharray="5,2" d="M1083.79,-87.6296C1079.21,-85.8859 1074.54,-84.2892 1070,-83 963.278,-52.7099 932.629,-63.9901 823,-47 802.624,-43.8421 780.567,-40.2822 760.228,-36.9416"/>
<polygon fill="none" stroke="black" points="760.519,-33.4424 750.083,-35.2702 759.381,-40.3493 760.519,-33.4424"/>
</g>
<!-- ndStructField -->
<g id="node13" class="node"><title>ndStructField</title>
<g id="a_node13_14"><a xlink:href="https://github.com/maidsafe/sn_bindgen/blob/master/src/csharp/intermediate.rs#:~:text=struct%20StructField" xlink:title="&lt;TABLE&gt;">
<polygon fill="lightblue" stroke="none" points="693,-170.5 693,-207.5 791,-207.5 791,-170.5 693,-170.5"/>
<polygon fill="none" stroke="black" points="693,-170.5 693,-207.5 791,-207.5 791,-170.5 693,-170.5"/>
<text text-anchor="start" x="704" y="-186.3" font-family="Arial" font-weight="bold" font-size="14.00">StructField</text>
<polygon fill="none" stroke="black" points="692,-170 692,-209 792,-209 792,-170 692,-170"/>
</a>
</g>
</g>
<!-- ndStruct -->
<g id="node27" class="node"><title>ndStruct</title>
<g id="a_node27_15"><a xlink:href="https://github.com/maidsafe/sn_bindgen/blob/master/src/csharp/intermediate.rs#:~:text=struct%20Struct" xlink:title="&lt;TABLE&gt;">
<polygon fill="lightblue" stroke="none" points="704,-87.5 704,-124.5 769,-124.5 769,-87.5 704,-87.5"/>
<polygon fill="none" stroke="black" points="704,-87.5 704,-124.5 769,-124.5 769,-87.5 704,-87.5"/>
<text text-anchor="start" x="715" y="-103.3" font-family="Arial" font-weight="bold" font-size="14.00">Struct</text>
<polygon fill="none" stroke="black" points="702.5,-87 702.5,-126 769.5,-126 769.5,-87 702.5,-87"/>
</a>
</g>
</g>
<!-- ndStructField&#45;&gt;ndStruct -->
<g id="edge13" class="edge"><title>ndStructField&#45;&gt;ndStruct</title>
<path fill="none" stroke="black" d="M734.205,-165.937C733.118,-158.626 732.315,-150.337 731.89,-142.348"/>
<polygon fill="black" stroke="black" points="731.887,-142.218 727.719,-136.333 731.548,-130.223 735.716,-136.108 731.887,-142.218"/>
</g>
<!-- ndStructField&#45;&gt;ndStruct -->
<g id="edge40" class="edge"><title>ndStructField&#45;&gt;ndStruct</title>
<path fill="none" stroke="black" d="M746.452,-165.937C746.456,-158.626 746.031,-150.337 745.273,-142.348"/>
<polygon fill="black" stroke="black" points="745.247,-142.138 740.561,-136.657 743.818,-130.223 748.504,-135.704 745.247,-142.138"/>
</g>
<!-- ndCPtrType -->
<g id="node14" class="node"><title>ndCPtrType</title>
<g id="a_node14_16"><a xlink:href="https://github.com/maidsafe/sn_bindgen/blob/master/src/lang_c/types.rs#:~:text=enum%20CPtrType" xlink:title="&lt;TABLE&gt;">
<polygon fill="yellow" stroke="none" points="1167,-170.5 1167,-207.5 1255,-207.5 1255,-170.5 1167,-170.5"/>
<polygon fill="none" stroke="black" points="1167,-170.5 1167,-207.5 1255,-207.5 1255,-170.5 1167,-170.5"/>
<text text-anchor="start" x="1178" y="-186.3" font-family="Arial" font-weight="bold" font-size="14.00">CPtrType</text>
<polygon fill="none" stroke="black" points="1166,-170 1166,-209 1256,-209 1256,-170 1166,-170"/>
</a>
</g>
</g>
<!-- ndCType -->
<g id="node15" class="node"><title>ndCType</title>
<g id="a_node15_17"><a xlink:href="https://github.com/maidsafe/sn_bindgen/blob/master/src/lang_c/types.rs#:~:text=enum%20CType" xlink:title="&lt;TABLE&gt;">
<polygon fill="yellow" stroke="none" points="1187,-87.5 1187,-124.5 1255,-124.5 1255,-87.5 1187,-87.5"/>
<polygon fill="none" stroke="black" points="1187,-87.5 1187,-124.5 1255,-124.5 1255,-87.5 1187,-87.5"/>
<text text-anchor="start" x="1198" y="-103.3" font-family="Arial" font-weight="bold" font-size="14.00">CType</text>
<polygon fill="none" stroke="black" points="1186,-87 1186,-126 1256,-126 1256,-87 1186,-87"/>
</a>
</g>
</g>
<!-- ndCPtrType&#45;&gt;ndCType -->
<g id="edge14" class="edge"><title>ndCPtrType&#45;&gt;ndCType</title>
<path fill="none" stroke="black" d="M1213.79,-165.937C1214.69,-158.626 1215.71,-150.337 1216.7,-142.348"/>
<polygon fill="black" stroke="black" points="1216.72,-142.133 1213.49,-135.688 1218.19,-130.223 1221.43,-136.668 1216.72,-142.133"/>
</g>
<!-- ndCType&#45;&gt;ndLangC -->
<g id="edge15" class="edge"><title>ndCType&#45;&gt;ndLangC</title>
<path fill="none" stroke="black" stroke-dasharray="5,2" d="M1177.85,-86.0144C1174.88,-84.9262 1171.91,-83.9081 1169,-83 1086.58,-57.2878 987.511,-40.3329 927.988,-31.5833"/>
<polygon fill="black" stroke="black" points="918.066,-30.1471 928.607,-27.1261 923.014,-30.8634 927.963,-31.5797 927.963,-31.5797 927.963,-31.5797 923.014,-30.8634 927.318,-36.0333 918.066,-30.1471 918.066,-30.1471"/>
</g>
<!-- ndMode -->
<g id="node17" class="node"><title>ndMode</title>
<g id="a_node17_18"><a xlink:href="https://github.com/maidsafe/sn_bindgen/blob/master/src/csharp/emit.rs#:~:text=enum%20Mode" xlink:title="&lt;TABLE&gt;">
<polygon fill="yellow" stroke="none" points="506,-87.5 506,-124.5 568,-124.5 568,-87.5 506,-87.5"/>
<polygon fill="none" stroke="black" points="506,-87.5 506,-124.5 568,-124.5 568,-87.5 506,-87.5"/>
<text text-anchor="start" x="517" y="-103.3" font-family="Arial" font-weight="bold" font-size="14.00">Mode</text>
<polygon fill="none" stroke="black" points="505,-87 505,-126 569,-126 569,-87 505,-87"/>
</a>
</g>
</g>
<!-- ndMode&#45;&gt;ndLangJava -->
<g id="edge16" class="edge"><title>ndMode&#45;&gt;ndLangJava</title>
<path fill="none" stroke="black" stroke-dasharray="5,2" d="M507.473,-82.937C495.513,-73.7979 481.555,-63.1317 468.861,-53.4318"/>
<polygon fill="black" stroke="black" points="460.736,-47.2229 471.414,-49.7191 464.709,-50.2588 468.682,-53.2947 468.682,-53.2947 468.682,-53.2947 464.709,-50.2588 465.95,-56.8703 460.736,-47.2229 460.736,-47.2229"/>
</g>
<!-- ndMode&#45;&gt;ndLangCSharp -->
<g id="edge17" class="edge"><title>ndMode&#45;&gt;ndLangCSharp</title>
<path fill="none" stroke="black" stroke-dasharray="5,2" d="M577.322,-83.5802C595.327,-73.7921 616.733,-62.1553 635.766,-51.8082"/>
<polygon fill="black" stroke="black" points="644.608,-47.0017 637.972,-55.7314 640.215,-49.3897 635.822,-51.7778 635.822,-51.7778 635.822,-51.7778 640.215,-49.3897 633.673,-47.8243 644.608,-47.0017 644.608,-47.0017"/>
</g>
<!-- ndStructMode -->
<g id="node18" class="node"><title>ndStructMode</title>
<g id="a_node18_19"><a xlink:href="https://github.com/maidsafe/sn_bindgen/blob/master/src/csharp/emit.rs#:~:text=enum%20StructMode" xlink:title="&lt;TABLE&gt;">
<polygon fill="yellow" stroke="none" points="405,-170.5 405,-207.5 509,-207.5 509,-170.5 405,-170.5"/>
<polygon fill="none" stroke="black" points="405,-170.5 405,-207.5 509,-207.5 509,-170.5 405,-170.5"/>
<text text-anchor="start" x="416" y="-186.3" font-family="Arial" font-weight="bold" font-size="14.00">StructMode</text>
<polygon fill="none" stroke="black" points="404,-170 404,-209 510,-209 510,-170 404,-170"/>
</a>
</g>
</g>
<!-- ndStructMode&#45;&gt;ndMode -->
<g id="edge18" class="edge"><title>ndStructMode&#45;&gt;ndMode</title>
<path fill="none" stroke="black" stroke-dasharray="5,2" d="M479.284,-165.937C487.967,-157.146 498.045,-146.942 507.326,-137.544"/>
<polygon fill="black" stroke="black" points="514.558,-130.223 510.732,-140.5 511.044,-133.78 507.531,-137.338 507.531,-137.338 507.531,-137.338 511.044,-133.78 504.329,-134.176 514.558,-130.223 514.558,-130.223"/>
</g>
<!-- ndSection -->
<g id="node20" class="node"><title>ndSection</title>
<g id="a_node20_20"><a xlink:href="https://github.com/maidsafe/sn_bindgen/blob/master/src/csharp/mod.rs#:~:text=struct%20Section" xlink:title="&lt;TABLE&gt;">
<polygon fill="lightblue" stroke="none" points="294,-170.5 294,-207.5 369,-207.5 369,-170.5 294,-170.5"/>
<polygon fill="none" stroke="black" points="294,-170.5 294,-207.5 369,-207.5 369,-170.5 294,-170.5"/>
<text text-anchor="start" x="305" y="-186.3" font-family="Arial" font-weight="bold" font-size="14.00">Section</text>
<polygon fill="none" stroke="black" points="292.5,-170 292.5,-209 369.5,-209 369.5,-170 292.5,-170"/>
</a>
</g>
</g>
<!-- ndSection&#45;&gt;ndContext -->
<g id="edge21" class="edge"><title>ndSection&#45;&gt;ndContext</title>
<path fill="none" stroke="black" d="M358.856,-165.937C369.601,-157.233 382.057,-147.144 393.563,-137.824"/>
<polygon fill="black" stroke="black" points="393.622,-137.776 395.767,-130.891 402.947,-130.223 400.802,-137.108 393.622,-137.776"/>
</g>
<!-- ndType -->
<g id="node21" class="node"><title>ndType</title>
<g id="a_node21_21"><a xlink:href="https://github.com/maidsafe/sn_bindgen/blob/master/src/csharp/intermediate.rs#:~:text=enum%20Type" xlink:title="&lt;TABLE&gt;">
<polygon fill="yellow" stroke="none" points="757,-253.5 757,-290.5 814,-290.5 814,-253.5 757,-253.5"/>
<polygon fill="none" stroke="black" points="757,-253.5 757,-290.5 814,-290.5 814,-253.5 757,-253.5"/>
<text text-anchor="start" x="768" y="-269.3" font-family="Arial" font-weight="bold" font-size="14.00">Type</text>
<polygon fill="none" stroke="black" points="755.5,-253 755.5,-292 814.5,-292 814.5,-253 755.5,-253"/>
</a>
</g>
</g>
<!-- ndType&#45;&gt;ndLangJava -->
<g id="edge22" class="edge"><title>ndType&#45;&gt;ndLangJava</title>
<path fill="none" stroke="black" stroke-dasharray="5,2" d="M747.46,-271.068C613.598,-269.145 165.364,-259.273 123,-213 99.2904,-187.103 138.797,-89.73 146,-83 177.284,-53.7702 292.115,-37.5994 366.122,-30.0099"/>
<polygon fill="black" stroke="black" points="376.28,-28.9954 366.777,-34.4669 371.305,-29.4923 366.33,-29.9891 366.33,-29.9891 366.33,-29.9891 371.305,-29.4923 365.883,-25.5114 376.28,-28.9954 376.28,-28.9954"/>
</g>
<!-- ndType&#45;&gt;ndContext -->
<g id="edge23" class="edge"><title>ndType&#45;&gt;ndContext</title>
<path fill="none" stroke="black" stroke-dasharray="5,2" d="M747.142,-270.166C632.797,-265.555 297.736,-248.584 266,-213 252.096,-197.41 254.016,-183.109 266,-166 292.86,-127.652 321.222,-146.597 365,-130 367.843,-128.922 370.762,-127.805 373.716,-126.67"/>
<polygon fill="black" stroke="black" points="383.225,-123.013 375.506,-130.802 378.558,-124.807 373.891,-126.602 373.891,-126.602 373.891,-126.602 378.558,-124.807 372.276,-122.402 383.225,-123.013 383.225,-123.013"/>
</g>
<!-- ndType&#45;&gt;ndContext -->
<g id="edge26" class="edge"><title>ndType&#45;&gt;ndContext</title>
<path fill="none" stroke="black" stroke-dasharray="5,2" d="M747.378,-269.841C636.072,-264.793 315.032,-247.795 284,-213 270.096,-197.41 272.016,-183.109 284,-166 308.866,-130.498 335.02,-144.1 373.739,-133.056"/>
<polygon fill="black" stroke="black" points="383.299,-129.887 375.223,-137.305 378.553,-131.46 373.807,-133.034 373.807,-133.034 373.807,-133.034 378.553,-131.46 372.391,-128.762 383.299,-129.887 383.299,-129.887"/>
</g>
<!-- ndType&#45;&gt;ndStructField -->
<g id="edge29" class="edge"><title>ndType&#45;&gt;ndStructField</title>
<path fill="none" stroke="black" d="M773.022,-248.937C768.91,-241.19 764.215,-232.347 759.744,-223.925"/>
<polygon fill="black" stroke="black" points="759.69,-223.822 753.343,-220.398 754.063,-213.223 760.409,-216.647 759.69,-223.822"/>
</g>
<!-- ndType&#45;&gt;ndLangC -->
<g id="edge24" class="edge"><title>ndType&#45;&gt;ndLangC</title>
<path fill="none" stroke="black" stroke-dasharray="5,2" d="M822.554,-269.815C931.721,-264.535 1243.16,-246.629 1273,-213 1311.35,-169.782 1310.77,-126.725 1273,-83 1229.12,-32.1963 1026.7,-24.7051 928.594,-24.1248"/>
<polygon fill="black" stroke="black" points="918.299,-24.0872 928.315,-19.6239 923.299,-24.1055 928.299,-24.1238 928.299,-24.1238 928.299,-24.1238 923.299,-24.1055 928.282,-28.6238 918.299,-24.0872 918.299,-24.0872"/>
</g>
<!-- ndType&#45;&gt;ndLangCSharp -->
<g id="edge25" class="edge"><title>ndType&#45;&gt;ndLangCSharp</title>
<path fill="none" stroke="black" stroke-dasharray="5,2" d="M796.726,-248.804C801.555,-238.222 806.579,-225.278 809,-213 820.35,-155.433 821.784,-129.5 786,-83 776.541,-70.7088 763.708,-60.5145 750.391,-52.269"/>
<polygon fill="black" stroke="black" points="741.601,-47.1296 752.505,-48.2923 745.917,-49.6533 750.234,-52.177 750.234,-52.177 750.234,-52.177 745.917,-49.6533 747.962,-56.0617 741.601,-47.1296 741.601,-47.1296"/>
</g>
<!-- ndFunction -->
<g id="node23" class="node"><title>ndFunction</title>
<g id="a_node23_22"><a xlink:href="https://github.com/maidsafe/sn_bindgen/blob/master/src/csharp/intermediate.rs#:~:text=struct%20Function" xlink:title="&lt;TABLE&gt;">
<polygon fill="lightblue" stroke="none" points="1041,-170.5 1041,-207.5 1125,-207.5 1125,-170.5 1041,-170.5"/>
<polygon fill="none" stroke="black" points="1041,-170.5 1041,-207.5 1125,-207.5 1125,-170.5 1041,-170.5"/>
<text text-anchor="start" x="1052" y="-186.3" font-family="Arial" font-weight="bold" font-size="14.00">Function</text>
<polygon fill="none" stroke="black" points="1040,-170 1040,-209 1126,-209 1126,-170 1040,-170"/>
</a>
</g>
</g>
<!-- ndType&#45;&gt;ndFunction -->
<g id="edge27" class="edge"><title>ndType&#45;&gt;ndFunction</title>
<path fill="none" stroke="black" d="M822.805,-263.078C869.125,-252.514 949.851,-233.308 1018,-213 1018.7,-212.792 1019.4,-212.582 1020.1,-212.368"/>
<polygon fill="black" stroke="black" points="1020.24,-212.325 1024.76,-206.71 1031.69,-208.726 1027.16,-214.341 1020.24,-212.325"/>
</g>
<!-- ndConst -->
<g id="node25" class="node"><title>ndConst</title>
<g id="a_node25_23"><a xlink:href="https://github.com/maidsafe/sn_bindgen/blob/master/src/csharp/intermediate.rs#:~:text=struct%20Const" xlink:title="&lt;TABLE&gt;">
<polygon fill="lightblue" stroke="none" points="843,-87.5 843,-124.5 907,-124.5 907,-87.5 843,-87.5"/>
<polygon fill="none" stroke="black" points="843,-87.5 843,-124.5 907,-124.5 907,-87.5 843,-87.5"/>
<text text-anchor="start" x="854" y="-103.3" font-family="Arial" font-weight="bold" font-size="14.00">Const</text>
<polygon fill="none" stroke="black" points="842,-87 842,-126 908,-126 908,-87 842,-87"/>
</a>
</g>
</g>
<!-- ndType&#45;&gt;ndConst -->
<g id="edge28" class="edge"><title>ndType&#45;&gt;ndConst</title>
<path fill="none" stroke="black" d="M822.689,-265.911C875.034,-257.29 965.529,-238.983 985,-213 997.527,-196.284 995.758,-183.906 985,-166 981.426,-160.052 953.798,-145.369 927.127,-132.202"/>
<polygon fill="black" stroke="black" points="927.004,-132.142 919.857,-133.101 916.223,-126.872 923.37,-125.913 927.004,-132.142"/>
</g>
<!-- ndArraySize -->
<g id="node22" class="node"><title>ndArraySize</title>
<g id="a_node22_24"><a xlink:href="https://github.com/maidsafe/sn_bindgen/blob/master/src/csharp/intermediate.rs#:~:text=enum%20ArraySize" xlink:title="&lt;TABLE&gt;">
<polygon fill="yellow" stroke="none" points="740,-336.5 740,-373.5 830,-373.5 830,-336.5 740,-336.5"/>
<polygon fill="none" stroke="black" points="740,-336.5 740,-373.5 830,-373.5 830,-336.5 740,-336.5"/>
<text text-anchor="start" x="751" y="-352.3" font-family="Arial" font-weight="bold" font-size="14.00">ArraySize</text>
<polygon fill="none" stroke="black" points="739,-336 739,-375 831,-375 831,-336 739,-336"/>
</a>
</g>
</g>
<!-- ndArraySize&#45;&gt;ndType -->
<g id="edge30" class="edge"><title>ndArraySize&#45;&gt;ndType</title>
<path fill="none" stroke="black" d="M785,-331.937C785,-324.626 785,-316.337 785,-308.348"/>
<polygon fill="black" stroke="black" points="785,-308.223 781,-302.223 785,-296.223 789,-302.223 785,-308.223"/>
</g>
<!-- ndFunction&#45;&gt;ndLangCSharp -->
<g id="edge31" class="edge"><title>ndFunction&#45;&gt;ndLangCSharp</title>
<path fill="none" stroke="black" stroke-dasharray="5,2" d="M1079.55,-165.671C1074.59,-141.242 1063,-103.276 1037,-83 1036.32,-82.4689 865.145,-54.106 762.122,-37.0734"/>
<polygon fill="black" stroke="black" points="762.059,-37.0631 755.487,-40.031 750.22,-35.106 756.792,-32.1381 762.059,-37.0631"/>
</g>
<!-- ndSnippet -->
<g id="node24" class="node"><title>ndSnippet</title>
<g id="a_node24_25"><a xlink:href="https://github.com/maidsafe/sn_bindgen/blob/master/src/csharp/intermediate.rs#:~:text=struct%20Snippet" xlink:title="&lt;TABLE&gt;">
<polygon fill="lightblue" stroke="none" points="943,-87.5 943,-124.5 1019,-124.5 1019,-87.5 943,-87.5"/>
<polygon fill="none" stroke="black" points="943,-87.5 943,-124.5 1019,-124.5 1019,-87.5 943,-87.5"/>
<text text-anchor="start" x="954" y="-103.3" font-family="Arial" font-weight="bold" font-size="14.00">Snippet</text>
<polygon fill="none" stroke="black" points="942,-87 942,-126 1020,-126 1020,-87 942,-87"/>
</a>
</g>
</g>
<!-- ndSnippet&#45;&gt;ndLangCSharp -->
<g id="edge32" class="edge"><title>ndSnippet&#45;&gt;ndLangCSharp</title>
<path fill="none" stroke="black" d="M933.816,-85.9944C930.849,-84.9379 927.893,-83.93 925,-83 871.315,-65.7411 809.445,-50.7262 762.106,-40.2302"/>
<polygon fill="black" stroke="black" points="761.811,-40.1654 755.093,-42.7865 750.09,-37.5935 756.807,-34.9724 761.811,-40.1654"/>
</g>
<!-- ndConst&#45;&gt;ndLangJava -->
<g id="edge33" class="edge"><title>ndConst&#45;&gt;ndLangJava</title>
<path fill="none" stroke="black" stroke-dasharray="5,2" d="M833.959,-94.3551C818.936,-90.4792 801.758,-86.2842 786,-83 685.316,-62.0163 567.293,-43.8251 495.885,-33.5147"/>
<polygon fill="black" stroke="black" points="485.695,-32.0512 496.234,-29.0186 490.645,-32.7621 495.594,-33.4729 495.594,-33.4729 495.594,-33.4729 490.645,-32.7621 494.954,-37.9272 485.695,-32.0512 485.695,-32.0512"/>
</g>
<!-- ndConst&#45;&gt;ndLangC -->
<g id="edge34" class="edge"><title>ndConst&#45;&gt;ndLangC</title>
<path fill="none" stroke="black" stroke-dasharray="5,2" d="M875,-82.937C875,-75.0164 875,-65.9488 875,-57.3574"/>
<polygon fill="black" stroke="black" points="875,-47.2229 879.5,-57.2229 875,-52.2229 875,-57.2229 875,-57.2229 875,-57.2229 875,-52.2229 870.5,-57.223 875,-47.2229 875,-47.2229"/>
</g>
<!-- ndConst&#45;&gt;ndLangCSharp -->
<g id="edge35" class="edge"><title>ndConst&#45;&gt;ndLangCSharp</title>
<path fill="none" stroke="black" stroke-dasharray="5,2" d="M833.99,-87.9242C809.467,-77.4143 777.778,-63.8334 750.019,-51.9367"/>
<polygon fill="black" stroke="black" points="749.828,-51.8549 742.737,-53.1679 738.798,-47.1278 745.889,-45.8148 749.828,-51.8549"/>
</g>
<!-- ndConstValue -->
<g id="node26" class="node"><title>ndConstValue</title>
<g id="a_node26_26"><a xlink:href="https://github.com/maidsafe/sn_bindgen/blob/master/src/csharp/intermediate.rs#:~:text=enum%20ConstValue" xlink:title="&lt;TABLE&gt;">
<polygon fill="yellow" stroke="none" points="865,-170.5 865,-207.5 967,-207.5 967,-170.5 865,-170.5"/>
<polygon fill="none" stroke="black" points="865,-170.5 865,-207.5 967,-207.5 967,-170.5 865,-170.5"/>
<text text-anchor="start" x="876" y="-186.3" font-family="Arial" font-weight="bold" font-size="14.00">ConstValue</text>
<polygon fill="none" stroke="black" points="864,-170 864,-209 968,-209 968,-170 864,-170"/>
</a>
</g>
</g>
<!-- ndConstValue&#45;&gt;ndConst -->
<g id="edge36" class="edge"><title>ndConstValue&#45;&gt;ndConst</title>
<path fill="none" stroke="black" d="M904.579,-165.937C900.702,-158.278 896.282,-149.545 892.062,-141.209"/>
<polygon fill="black" stroke="black" points="891.921,-140.93 885.643,-137.383 886.502,-130.223 892.78,-133.77 891.921,-140.93"/>
</g>
<!-- ndStruct&#45;&gt;ndLangJava -->
<g id="edge37" class="edge"><title>ndStruct&#45;&gt;ndLangJava</title>
<path fill="none" stroke="black" stroke-dasharray="5,2" d="M694.223,-86.3185C691.127,-85.129 688.031,-84.0074 685,-83 621.997,-62.0565 547.78,-45.904 495.897,-35.9301"/>
<polygon fill="black" stroke="black" points="485.829,-34.0181 496.493,-31.4627 490.741,-34.9509 495.653,-35.8837 495.653,-35.8837 495.653,-35.8837 490.741,-34.9509 494.814,-40.3047 485.829,-34.0181 485.829,-34.0181"/>
</g>
<!-- ndStruct&#45;&gt;ndLangC -->
<g id="edge38" class="edge"><title>ndStruct&#45;&gt;ndLangC</title>
<path fill="none" stroke="black" stroke-dasharray="5,2" d="M774.719,-82.937C791,-73.4497 810.105,-62.3168 827.246,-52.3276"/>
<polygon fill="black" stroke="black" points="836.006,-47.2229 829.632,-56.1459 831.686,-49.7404 827.366,-52.2578 827.366,-52.2578 827.366,-52.2578 831.686,-49.7404 825.101,-48.3698 836.006,-47.2229 836.006,-47.2229"/>
</g>
<!-- ndStruct&#45;&gt;ndLangCSharp -->
<g id="edge39" class="edge"><title>ndStruct&#45;&gt;ndLangCSharp</title>
<path fill="none" stroke="black" stroke-dasharray="5,2" d="M722.072,-82.937C717.237,-75.1035 711.709,-66.148 706.457,-57.6408"/>
<polygon fill="black" stroke="black" points="706.33,-57.4342 699.774,-54.4297 700.027,-47.2229 706.582,-50.2275 706.33,-57.4342"/>
</g>
<!-- ndEnum -->
<g id="node28" class="node"><title>ndEnum</title>
<g id="a_node28_27"><a xlink:href="https://github.com/maidsafe/sn_bindgen/blob/master/src/csharp/intermediate.rs#:~:text=struct%20Enum" xlink:title="&lt;TABLE&gt;">
<polygon fill="lightblue" stroke="none" points="605,-87.5 605,-124.5 668,-124.5 668,-87.5 605,-87.5"/>
<polygon fill="none" stroke="black" points="605,-87.5 605,-124.5 668,-124.5 668,-87.5 605,-87.5"/>
<text text-anchor="start" x="616" y="-103.3" font-family="Arial" font-weight="bold" font-size="14.00">Enum</text>
<polygon fill="none" stroke="black" points="603.5,-87 603.5,-126 668.5,-126 668.5,-87 603.5,-87"/>
</a>
</g>
</g>
<!-- ndEnum&#45;&gt;ndLangJava -->
<g id="edge41" class="edge"><title>ndEnum&#45;&gt;ndLangJava</title>
<path fill="none" stroke="black" stroke-dasharray="5,2" d="M595.432,-86.9915C592.251,-85.6175 589.079,-84.2724 586,-83 556.515,-70.8153 523.481,-58.2068 495.51,-47.8294"/>
<polygon fill="black" stroke="black" points="485.841,-44.2562 496.781,-43.5018 490.531,-45.9895 495.221,-47.7228 495.221,-47.7228 495.221,-47.7228 490.531,-45.9895 493.661,-51.9437 485.841,-44.2562 485.841,-44.2562"/>
</g>
<!-- ndEnum&#45;&gt;ndLangC -->
<g id="edge42" class="edge"><title>ndEnum&#45;&gt;ndLangC</title>
<path fill="none" stroke="black" stroke-dasharray="5,2" d="M676.736,-86.3077C679.516,-85.1487 682.289,-84.0347 685,-83 730.437,-65.6597 783.418,-49.6849 821.873,-38.8259"/>
<polygon fill="black" stroke="black" points="831.818,-36.0401 823.403,-43.0707 827.004,-37.3888 822.189,-38.7375 822.189,-38.7375 822.189,-38.7375 827.004,-37.3888 820.975,-34.4043 831.818,-36.0401 831.818,-36.0401"/>
</g>
<!-- ndEnum&#45;&gt;ndLangCSharp -->
<g id="edge43" class="edge"><title>ndEnum&#45;&gt;ndLangCSharp</title>
<path fill="none" stroke="black" stroke-dasharray="5,2" d="M649.928,-82.937C654.763,-75.1035 660.291,-66.148 665.543,-57.6408"/>
<polygon fill="black" stroke="black" points="665.67,-57.4342 665.418,-50.2275 671.973,-47.2229 672.226,-54.4297 665.67,-57.4342"/>
</g>
<!-- ndEnumVariant -->
<g id="node29" class="node"><title>ndEnumVariant</title>
<g id="a_node29_28"><a xlink:href="https://github.com/maidsafe/sn_bindgen/blob/master/src/csharp/intermediate.rs#:~:text=struct%20EnumVariant" xlink:title="&lt;TABLE&gt;">
<polygon fill="lightblue" stroke="none" points="545,-170.5 545,-207.5 657,-207.5 657,-170.5 545,-170.5"/>
<polygon fill="none" stroke="black" points="545,-170.5 545,-207.5 657,-207.5 657,-170.5 545,-170.5"/>
<text text-anchor="start" x="556" y="-186.3" font-family="Arial" font-weight="bold" font-size="14.00">EnumVariant</text>
<polygon fill="none" stroke="black" points="544,-170 544,-209 658,-209 658,-170 544,-170"/>
</a>
</g>
</g>
<!-- ndEnumVariant&#45;&gt;ndEnum -->
<g id="edge44" class="edge"><title>ndEnumVariant&#45;&gt;ndEnum</title>
<path fill="none" stroke="black" d="M610.749,-165.937C614.021,-158.365 617.747,-149.744 621.312,-141.493"/>
<polygon fill="black" stroke="black" points="621.422,-141.239 620.13,-134.144 626.181,-130.223 627.473,-137.317 621.422,-141.239"/>
</g>
</g>
</svg>
