<?xml version="1.0" encoding="UTF-8" standalone="no"?>
<!DOCTYPE svg PUBLIC "-//W3C//DTD SVG 1.1//EN"
 "http://www.w3.org/Graphics/SVG/1.1/DTD/svg11.dtd">
<!-- Generated by graphviz version 2.38.0 (20140413.2041)
 -->
<!-- Title: ml Pages: 1 -->
<svg width="1206pt" height="553pt"
 viewBox="0.00 0.00 1205.50 553.00" xmlns="http://www.w3.org/2000/svg" xmlns:xlink="http://www.w3.org/1999/xlink">
<g id="graph0" class="graph" transform="scale(1 1) rotate(0) translate(4 549)">
<title>ml</title>
<polygon fill="white" stroke="none" points="-4,4 -4,-549 1201.5,-549 1201.5,4 -4,4"/>
<!-- ndInput -->
<g id="node1" class="node"><title>ndInput</title>
<polygon fill="yellow" stroke="none" points="198.5,-253.5 198.5,-290.5 256.5,-290.5 256.5,-253.5 198.5,-253.5"/>
<polygon fill="none" stroke="black" points="198.5,-253.5 198.5,-290.5 256.5,-290.5 256.5,-253.5 198.5,-253.5"/>
<text text-anchor="start" x="209.5" y="-269.3" font-family="Arial" font-weight="bold" font-size="14.00">Input</text>
<polygon fill="none" stroke="black" points="197.5,-253 197.5,-292 257.5,-292 257.5,-253 197.5,-253"/>
</g>
<!-- ndBindgen -->
<g id="node2" class="node"><title>ndBindgen</title>
<polygon fill="lightblue" stroke="none" points="199.5,-170.5 199.5,-207.5 280.5,-207.5 280.5,-170.5 199.5,-170.5"/>
<polygon fill="none" stroke="black" points="199.5,-170.5 199.5,-207.5 280.5,-207.5 280.5,-170.5 199.5,-170.5"/>
<text text-anchor="start" x="210.5" y="-186.3" font-family="Arial" font-weight="bold" font-size="14.00">Bindgen</text>
<polygon fill="none" stroke="black" points="198,-170 198,-209 281,-209 281,-170 198,-170"/>
</g>
<!-- ndInput&#45;&gt;ndBindgen -->
<g id="edge1" class="edge"><title>ndInput&#45;&gt;ndBindgen</title>
<path fill="none" stroke="black" d="M230.843,-248.937C231.926,-241.626 233.154,-233.337 234.337,-225.348"/>
<polygon fill="black" stroke="black" points="234.375,-225.093 231.297,-218.572 236.134,-213.223 239.211,-219.744 234.375,-225.093"/>
</g>
<!-- ndIndentedWriter -->
<g id="node3" class="node"><title>ndIndentedWriter</title>
<polygon fill="lightblue" stroke="none" points="607.5,-502.5 607.5,-539.5 732.5,-539.5 732.5,-502.5 607.5,-502.5"/>
<polygon fill="none" stroke="black" points="607.5,-502.5 607.5,-539.5 732.5,-539.5 732.5,-502.5 607.5,-502.5"/>
<text text-anchor="start" x="618.5" y="-518.3" font-family="Arial" font-weight="bold" font-size="14.00">IndentedWriter</text>
<polygon fill="none" stroke="black" points="606,-502 606,-541 733,-541 733,-502 606,-502"/>
</g>
<!-- ndError -->
<g id="node4" class="node"><title>ndError</title>
<polygon fill="lightblue" stroke="none" points="293.5,-253.5 293.5,-290.5 352.5,-290.5 352.5,-253.5 293.5,-253.5"/>
<polygon fill="none" stroke="black" points="293.5,-253.5 293.5,-290.5 352.5,-290.5 352.5,-253.5 293.5,-253.5"/>
<text text-anchor="start" x="304.5" y="-269.3" font-family="Arial" font-weight="bold" font-size="14.00">Error</text>
<polygon fill="none" stroke="black" points="292,-253 292,-292 353,-292 353,-253 292,-253"/>
</g>
<!-- ndError&#45;&gt;ndBindgen -->
<g id="edge2" class="edge"><title>ndError&#45;&gt;ndBindgen</title>
<path fill="none" stroke="black" stroke-dasharray="5,2" d="M299.38,-248.937C290.283,-240.059 279.709,-229.74 270,-220.266"/>
<polygon fill="black" stroke="black" points="262.784,-213.223 273.084,-216.987 266.362,-216.715 269.941,-220.207 269.941,-220.207 269.941,-220.207 266.362,-216.715 266.798,-223.428 262.784,-213.223 262.784,-213.223"/>
</g>
<!-- ndContext -->
<g id="node9" class="node"><title>ndContext</title>
<polygon fill="lightblue" stroke="none" points="406.5,-87.5 406.5,-124.5 483.5,-124.5 483.5,-87.5 406.5,-87.5"/>
<polygon fill="none" stroke="black" points="406.5,-87.5 406.5,-124.5 483.5,-124.5 483.5,-87.5 406.5,-87.5"/>
<text text-anchor="start" x="417.5" y="-103.3" font-family="Arial" font-weight="bold" font-size="14.00">Context</text>
<polygon fill="none" stroke="black" points="405,-87 405,-126 484,-126 484,-87 405,-87"/>
</g>
<!-- ndError&#45;&gt;ndContext -->
<g id="edge3" class="edge"><title>ndError&#45;&gt;ndContext</title>
<path fill="none" stroke="black" d="M327.918,-248.664C334.147,-225.958 346.092,-190.996 365.5,-166 374.259,-154.719 385.734,-144.562 397.213,-135.999"/>
<polygon fill="black" stroke="black" points="405.533,-130.053 400.014,-139.529 401.465,-132.96 397.397,-135.868 397.397,-135.868 397.397,-135.868 401.465,-132.96 394.781,-132.206 405.533,-130.053 405.533,-130.053"/>
</g>
<!-- ndLangC -->
<g id="node16" class="node"><title>ndLangC</title>
<polygon fill="lightblue" stroke="none" points="758.5,-170.5 758.5,-207.5 826.5,-207.5 826.5,-170.5 758.5,-170.5"/>
<polygon fill="none" stroke="black" points="758.5,-170.5 758.5,-207.5 826.5,-207.5 826.5,-170.5 758.5,-170.5"/>
<text text-anchor="start" x="769.5" y="-186.3" font-family="Arial" font-weight="bold" font-size="14.00">LangC</text>
<polygon fill="none" stroke="black" points="757.5,-170 757.5,-209 827.5,-209 827.5,-170 757.5,-170"/>
</g>
<!-- ndError&#45;&gt;ndLangC -->
<g id="edge4" class="edge"><title>ndError&#45;&gt;ndLangC</title>
<path fill="none" stroke="black" d="M361.133,-252.139C364.258,-250.959 367.405,-249.891 370.5,-249 496.581,-212.704 533.723,-232.278 663.5,-213 688.475,-209.29 716.06,-204.564 739.29,-200.402"/>
<polygon fill="black" stroke="black" points="749.294,-198.597 740.252,-204.801 744.373,-199.485 739.453,-200.373 739.453,-200.373 739.453,-200.373 744.373,-199.485 738.653,-195.944 749.294,-198.597 749.294,-198.597"/>
</g>
<!-- ndSection -->
<g id="node20" class="node"><title>ndSection</title>
<polygon fill="lightblue" stroke="none" points="571.5,-170.5 571.5,-207.5 646.5,-207.5 646.5,-170.5 571.5,-170.5"/>
<polygon fill="none" stroke="black" points="571.5,-170.5 571.5,-207.5 646.5,-207.5 646.5,-170.5 571.5,-170.5"/>
<text text-anchor="start" x="582.5" y="-186.3" font-family="Arial" font-weight="bold" font-size="14.00">Section</text>
<polygon fill="none" stroke="black" points="570,-170 570,-209 647,-209 647,-170 570,-170"/>
</g>
<!-- ndError&#45;&gt;ndSection -->
<g id="edge5" class="edge"><title>ndError&#45;&gt;ndSection</title>
<path fill="none" stroke="black" d="M361.263,-252.546C364.359,-251.274 367.463,-250.073 370.5,-249 379.145,-245.945 484.084,-220.474 551.7,-204.164"/>
<polygon fill="black" stroke="black" points="561.8,-201.729 553.133,-208.447 556.939,-202.901 552.078,-204.073 552.078,-204.073 552.078,-204.073 556.939,-202.901 551.023,-199.698 561.8,-201.729 561.8,-201.729"/>
</g>
<!-- ndLevel -->
<g id="node5" class="node"><title>ndLevel</title>
<polygon fill="yellow" stroke="none" points="292.5,-336.5 292.5,-373.5 352.5,-373.5 352.5,-336.5 292.5,-336.5"/>
<polygon fill="none" stroke="black" points="292.5,-336.5 292.5,-373.5 352.5,-373.5 352.5,-336.5 292.5,-336.5"/>
<text text-anchor="start" x="303.5" y="-352.3" font-family="Arial" font-weight="bold" font-size="14.00">Level</text>
<polygon fill="none" stroke="black" points="291.5,-336 291.5,-375 353.5,-375 353.5,-336 291.5,-336"/>
</g>
<!-- ndLevel&#45;&gt;ndError -->
<g id="edge6" class="edge"><title>ndLevel&#45;&gt;ndError</title>
<path fill="none" stroke="black" d="M322.5,-331.937C322.5,-324.626 322.5,-316.337 322.5,-308.348"/>
<polygon fill="black" stroke="black" points="322.5,-308.223 318.5,-302.223 322.5,-296.223 326.5,-302.223 322.5,-308.223"/>
</g>
<!-- ndJniArgResult -->
<g id="node6" class="node"><title>ndJniArgResult</title>
<polygon fill="lightblue" stroke="none" points="768.5,-502.5 768.5,-539.5 880.5,-539.5 880.5,-502.5 768.5,-502.5"/>
<polygon fill="none" stroke="black" points="768.5,-502.5 768.5,-539.5 880.5,-539.5 880.5,-502.5 768.5,-502.5"/>
<text text-anchor="start" x="779.5" y="-518.3" font-family="Arial" font-weight="bold" font-size="14.00">JniArgResult</text>
<polygon fill="none" stroke="black" points="767.5,-502 767.5,-541 881.5,-541 881.5,-502 767.5,-502"/>
</g>
<!-- ndJniCallback -->
<g id="node7" class="node"><title>ndJniCallback</title>
<polygon fill="lightblue" stroke="none" points="916.5,-502.5 916.5,-539.5 1020.5,-539.5 1020.5,-502.5 916.5,-502.5"/>
<polygon fill="none" stroke="black" points="916.5,-502.5 916.5,-539.5 1020.5,-539.5 1020.5,-502.5 916.5,-502.5"/>
<text text-anchor="start" x="927.5" y="-518.3" font-family="Arial" font-weight="bold" font-size="14.00">JniCallback</text>
<polygon fill="none" stroke="black" points="915.5,-502 915.5,-541 1021.5,-541 1021.5,-502 915.5,-502"/>
</g>
<!-- ndLangJava -->
<g id="node8" class="node"><title>ndLangJava</title>
<polygon fill="lightblue" stroke="none" points="399.5,-4.5 399.5,-41.5 490.5,-41.5 490.5,-4.5 399.5,-4.5"/>
<polygon fill="none" stroke="black" points="399.5,-4.5 399.5,-41.5 490.5,-41.5 490.5,-4.5 399.5,-4.5"/>
<text text-anchor="start" x="410.5" y="-20.3" font-family="Arial" font-weight="bold" font-size="14.00">LangJava</text>
<polygon fill="none" stroke="black" points="398,-4 398,-43 491,-43 491,-4 398,-4"/>
</g>
<!-- ndContext&#45;&gt;ndLangJava -->
<g id="edge7" class="edge"><title>ndContext&#45;&gt;ndLangJava</title>
<path fill="none" stroke="black" d="M438.377,-82.937C437.831,-75.6257 437.642,-67.3371 437.809,-59.3477"/>
<polygon fill="black" stroke="black" points="437.815,-59.2103 434.094,-53.0334 438.365,-47.2229 442.086,-53.3999 437.815,-59.2103"/>
</g>
<!-- ndContext&#45;&gt;ndLangJava -->
<g id="edge21" class="edge"><title>ndContext&#45;&gt;ndLangJava</title>
<path fill="none" stroke="black" d="M450.623,-82.937C451.169,-75.6257 451.358,-67.3371 451.191,-59.3477"/>
<polygon fill="black" stroke="black" points="451.185,-59.2103 446.914,-53.3999 450.635,-47.2229 454.906,-53.0334 451.185,-59.2103"/>
</g>
<!-- ndLangCSharp -->
<g id="node19" class="node"><title>ndLangCSharp</title>
<polygon fill="lightblue" stroke="none" points="693.5,-4.5 693.5,-41.5 803.5,-41.5 803.5,-4.5 693.5,-4.5"/>
<polygon fill="none" stroke="black" points="693.5,-4.5 693.5,-41.5 803.5,-41.5 803.5,-4.5 693.5,-4.5"/>
<text text-anchor="start" x="704.5" y="-20.3" font-family="Arial" font-weight="bold" font-size="14.00">LangCSharp</text>
<polygon fill="none" stroke="black" points="692.5,-4 692.5,-43 804.5,-43 804.5,-4 692.5,-4"/>
</g>
<!-- ndContext&#45;&gt;ndLangCSharp -->
<g id="edge8" class="edge"><title>ndContext&#45;&gt;ndLangCSharp</title>
<path fill="none" stroke="black" d="M492.186,-91.3909C540.587,-78.0189 616.115,-57.8485 672.703,-43.1538"/>
<polygon fill="black" stroke="black" points="672.857,-43.1139 677.663,-37.7375 684.474,-40.1056 679.669,-45.482 672.857,-43.1139"/>
</g>
<!-- ndContext&#45;&gt;ndLangCSharp -->
<g id="edge22" class="edge"><title>ndContext&#45;&gt;ndLangCSharp</title>
<path fill="none" stroke="black" d="M492.284,-94.0665C540.664,-81.7101 616.071,-61.7244 672.608,-46.338"/>
<polygon fill="black" stroke="black" points="672.793,-46.2877 677.528,-40.8493 684.37,-43.1289 679.634,-48.5672 672.793,-46.2877"/>
</g>
<!-- ndJavaClassField -->
<g id="node10" class="node"><title>ndJavaClassField</title>
<polygon fill="lightblue" stroke="none" points="1056.5,-502.5 1056.5,-539.5 1184.5,-539.5 1184.5,-502.5 1056.5,-502.5"/>
<polygon fill="none" stroke="black" points="1056.5,-502.5 1056.5,-539.5 1184.5,-539.5 1184.5,-502.5 1056.5,-502.5"/>
<text text-anchor="start" x="1067.5" y="-518.3" font-family="Arial" font-weight="bold" font-size="14.00">JavaClassField</text>
<polygon fill="none" stroke="black" points="1055.5,-502 1055.5,-541 1185.5,-541 1185.5,-502 1055.5,-502"/>
</g>
<!-- ndFilterMode -->
<g id="node11" class="node"><title>ndFilterMode</title>
<polygon fill="yellow" stroke="none" points="9.5,-253.5 9.5,-290.5 106.5,-290.5 106.5,-253.5 9.5,-253.5"/>
<polygon fill="none" stroke="black" points="9.5,-253.5 9.5,-290.5 106.5,-290.5 106.5,-253.5 9.5,-253.5"/>
<text text-anchor="start" x="20.5" y="-269.3" font-family="Arial" font-weight="bold" font-size="14.00">FilterMode</text>
<polygon fill="none" stroke="black" points="8,-253 8,-292 107,-292 107,-253 8,-253"/>
</g>
<!-- ndFilterMode&#45;&gt;ndLangJava -->
<g id="edge9" class="edge"><title>ndFilterMode&#45;&gt;ndLangJava</title>
<path fill="none" stroke="black" d="M48.4128,-248.846C34.4312,-209.852 13.2273,-129.746 53.5,-83 94.5706,-35.3274 277.382,-25.9342 377.831,-24.442"/>
<polygon fill="black" stroke="black" points="377.955,-24.4406 383.905,-20.3678 389.954,-24.2944 384.003,-28.3672 377.955,-24.4406"/>
</g>
<!-- ndFilterMode&#45;&gt;ndContext -->
<g id="edge10" class="edge"><title>ndFilterMode&#45;&gt;ndContext</title>
<path fill="none" stroke="black" stroke-dasharray="5,2" d="M66.707,-248.56C77.7999,-224.034 98.8506,-185.983 129.5,-166 171.026,-138.925 307.438,-121.193 386.469,-112.919"/>
<polygon fill="black" stroke="black" points="396.754,-111.861 387.266,-117.36 391.78,-112.373 386.806,-112.884 386.806,-112.884 386.806,-112.884 391.78,-112.373 386.346,-108.408 396.754,-111.861 396.754,-111.861"/>
</g>
<!-- ndFilterMode&#45;&gt;ndLangCSharp -->
<g id="edge11" class="edge"><title>ndFilterMode&#45;&gt;ndLangCSharp</title>
<path fill="none" stroke="black" d="M56.7906,-248.998C57.3034,-225.215 61.8983,-188.146 83.5,-166 164.748,-82.7029 515.29,-43.7798 672.135,-30.2879"/>
<polygon fill="black" stroke="black" points="672.485,-30.2584 678.127,-25.7671 684.442,-29.2474 678.801,-33.7387 672.485,-30.2584"/>
</g>
<!-- ndFilterMode&#45;&gt;ndSection -->
<g id="edge12" class="edge"><title>ndFilterMode&#45;&gt;ndSection</title>
<path fill="none" stroke="black" stroke-dasharray="5,2" d="M115.235,-260.034C135.783,-256.193 159.124,-252.103 180.5,-249 328.256,-227.553 367.377,-238.43 514.5,-213 526.643,-210.901 539.555,-208.155 551.795,-205.305"/>
<polygon fill="black" stroke="black" points="561.887,-202.899 553.203,-209.596 557.023,-204.059 552.159,-205.219 552.159,-205.219 552.159,-205.219 557.023,-204.059 551.116,-200.841 561.887,-202.899 561.887,-202.899"/>
</g>
<!-- ndLang -->
<g id="node12" class="node"><title>ndLang</title>
<polygon fill="lightgreen" stroke="none" points="624.5,-253.5 624.5,-290.5 682.5,-290.5 682.5,-253.5 624.5,-253.5"/>
<polygon fill="none" stroke="black" points="624.5,-253.5 624.5,-290.5 682.5,-290.5 682.5,-253.5 624.5,-253.5"/>
<text text-anchor="start" x="635.5" y="-269.3" font-family="Arial" font-weight="bold" font-size="14.00">Lang</text>
<polygon fill="none" stroke="black" points="623.5,-253 623.5,-292 683.5,-292 683.5,-253 623.5,-253"/>
</g>
<!-- ndLang&#45;&gt;ndLangC -->
<g id="edge13" class="edge"><title>ndLang&#45;&gt;ndLangC</title>
<path fill="none" stroke="black" stroke-dasharray="5,2" d="M691.85,-249.152C708.273,-239.582 727.623,-228.306 744.945,-218.212"/>
<polygon fill="none" stroke="black" points="746.914,-221.115 753.792,-213.056 743.39,-215.067 746.914,-221.115"/>
</g>
<!-- ndLang&#45;&gt;ndSection -->
<g id="edge14" class="edge"><title>ndLang&#45;&gt;ndSection</title>
<path fill="none" stroke="black" stroke-dasharray="5,2" d="M640.965,-248.937C636.371,-240.668 631.083,-231.149 626.126,-222.227"/>
<polygon fill="none" stroke="black" points="629.04,-220.265 621.124,-213.223 622.921,-223.664 629.04,-220.265"/>
</g>
<!-- ndStructField -->
<g id="node13" class="node"><title>ndStructField</title>
<polygon fill="lightblue" stroke="none" points="1090.5,-336.5 1090.5,-373.5 1188.5,-373.5 1188.5,-336.5 1090.5,-336.5"/>
<polygon fill="none" stroke="black" points="1090.5,-336.5 1090.5,-373.5 1188.5,-373.5 1188.5,-336.5 1090.5,-336.5"/>
<text text-anchor="start" x="1101.5" y="-352.3" font-family="Arial" font-weight="bold" font-size="14.00">StructField</text>
<polygon fill="none" stroke="black" points="1089.5,-336 1089.5,-375 1189.5,-375 1189.5,-336 1089.5,-336"/>
</g>
<!-- ndStruct -->
<g id="node27" class="node"><title>ndStruct</title>
<polygon fill="lightblue" stroke="none" points="1081.5,-253.5 1081.5,-290.5 1146.5,-290.5 1146.5,-253.5 1081.5,-253.5"/>
<polygon fill="none" stroke="black" points="1081.5,-253.5 1081.5,-290.5 1146.5,-290.5 1146.5,-253.5 1081.5,-253.5"/>
<text text-anchor="start" x="1092.5" y="-269.3" font-family="Arial" font-weight="bold" font-size="14.00">Struct</text>
<polygon fill="none" stroke="black" points="1080,-253 1080,-292 1147,-292 1147,-253 1080,-253"/>
</g>
<!-- ndStructField&#45;&gt;ndStruct -->
<g id="edge15" class="edge"><title>ndStructField&#45;&gt;ndStruct</title>
<path fill="none" stroke="black" d="M1126.13,-331.937C1123.21,-324.539 1120.32,-316.14 1117.91,-308.063"/>
<polygon fill="black" stroke="black" points="1117.84,-307.795 1112.39,-303.068 1114.66,-296.223 1120.1,-300.95 1117.84,-307.795"/>
</g>
<!-- ndStructField&#45;&gt;ndStruct -->
<g id="edge44" class="edge"><title>ndStructField&#45;&gt;ndStruct</title>
<path fill="none" stroke="black" d="M1138.38,-331.937C1136.52,-324.365 1133.93,-315.744 1131.08,-307.493"/>
<polygon fill="black" stroke="black" points="1131.08,-307.482 1125.25,-303.236 1126.93,-296.223 1132.76,-300.469 1131.08,-307.482"/>
</g>
<!-- ndCPtrType -->
<g id="node14" class="node"><title>ndCPtrType</title>
<polygon fill="yellow" stroke="none" points="966.5,-336.5 966.5,-373.5 1054.5,-373.5 1054.5,-336.5 966.5,-336.5"/>
<polygon fill="none" stroke="black" points="966.5,-336.5 966.5,-373.5 1054.5,-373.5 1054.5,-336.5 966.5,-336.5"/>
<text text-anchor="start" x="977.5" y="-352.3" font-family="Arial" font-weight="bold" font-size="14.00">CPtrType</text>
<polygon fill="none" stroke="black" points="965.5,-336 965.5,-375 1055.5,-375 1055.5,-336 965.5,-336"/>
</g>
<!-- ndCType -->
<g id="node15" class="node"><title>ndCType</title>
<polygon fill="yellow" stroke="none" points="976.5,-253.5 976.5,-290.5 1044.5,-290.5 1044.5,-253.5 976.5,-253.5"/>
<polygon fill="none" stroke="black" points="976.5,-253.5 976.5,-290.5 1044.5,-290.5 1044.5,-253.5 976.5,-253.5"/>
<text text-anchor="start" x="987.5" y="-269.3" font-family="Arial" font-weight="bold" font-size="14.00">CType</text>
<polygon fill="none" stroke="black" points="975.5,-253 975.5,-292 1045.5,-292 1045.5,-253 975.5,-253"/>
</g>
<!-- ndCPtrType&#45;&gt;ndCType -->
<g id="edge16" class="edge"><title>ndCPtrType&#45;&gt;ndCType</title>
<path fill="none" stroke="black" d="M1010.5,-331.937C1010.5,-324.626 1010.5,-316.337 1010.5,-308.348"/>
<polygon fill="black" stroke="black" points="1010.5,-308.223 1006.5,-302.223 1010.5,-296.223 1014.5,-302.223 1010.5,-308.223"/>
</g>
<!-- ndCType&#45;&gt;ndLangC -->
<g id="edge17" class="edge"><title>ndCType&#45;&gt;ndLangC</title>
<path fill="none" stroke="black" stroke-dasharray="5,2" d="M967.288,-254.299C962.641,-252.492 957.977,-250.697 953.5,-249 917.461,-235.342 876.651,-220.521 845.136,-209.214"/>
<polygon fill="black" stroke="black" points="835.67,-205.823 846.601,-204.959 840.377,-207.509 845.084,-209.195 845.084,-209.195 845.084,-209.195 840.377,-207.509 843.566,-213.432 835.67,-205.823 835.67,-205.823"/>
</g>
<!-- ndMode -->
<g id="node17" class="node"><title>ndMode</title>
<polygon fill="yellow" stroke="none" points="388.5,-253.5 388.5,-290.5 450.5,-290.5 450.5,-253.5 388.5,-253.5"/>
<polygon fill="none" stroke="black" points="388.5,-253.5 388.5,-290.5 450.5,-290.5 450.5,-253.5 388.5,-253.5"/>
<text text-anchor="start" x="399.5" y="-269.3" font-family="Arial" font-weight="bold" font-size="14.00">Mode</text>
<polygon fill="none" stroke="black" points="387.5,-253 387.5,-292 451.5,-292 451.5,-253 387.5,-253"/>
</g>
<!-- ndMode&#45;&gt;ndContext -->
<g id="edge18" class="edge"><title>ndMode&#45;&gt;ndContext</title>
<path fill="none" stroke="black" stroke-dasharray="5,2" d="M396.476,-248.865C387.823,-238.791 378.997,-226.223 374.5,-213 367.774,-193.224 365.653,-184.923 374.5,-166 379.74,-154.791 388.302,-144.975 397.669,-136.746"/>
<polygon fill="black" stroke="black" points="405.671,-130.211 400.772,-140.022 401.798,-133.374 397.926,-136.536 397.926,-136.536 397.926,-136.536 401.798,-133.374 395.079,-133.051 405.671,-130.211 405.671,-130.211"/>
</g>
<!-- ndStructMode -->
<g id="node18" class="node"><title>ndStructMode</title>
<polygon fill="yellow" stroke="none" points="392.5,-170.5 392.5,-207.5 496.5,-207.5 496.5,-170.5 392.5,-170.5"/>
<polygon fill="none" stroke="black" points="392.5,-170.5 392.5,-207.5 496.5,-207.5 496.5,-170.5 392.5,-170.5"/>
<text text-anchor="start" x="403.5" y="-186.3" font-family="Arial" font-weight="bold" font-size="14.00">StructMode</text>
<polygon fill="none" stroke="black" points="391.5,-170 391.5,-209 497.5,-209 497.5,-170 391.5,-170"/>
</g>
<!-- ndMode&#45;&gt;ndStructMode -->
<g id="edge19" class="edge"><title>ndMode&#45;&gt;ndStructMode</title>
<path fill="none" stroke="black" stroke-dasharray="5,2" d="M426.464,-248.937C428.962,-240.842 431.83,-231.55 434.533,-222.792"/>
<polygon fill="black" stroke="black" points="437.487,-213.223 438.837,-224.105 436.012,-218.001 434.538,-222.778 434.538,-222.778 434.538,-222.778 436.012,-218.001 430.238,-221.451 437.487,-213.223 437.487,-213.223"/>
</g>
<!-- ndMode&#45;&gt;ndSection -->
<g id="edge20" class="edge"><title>ndMode&#45;&gt;ndSection</title>
<path fill="none" stroke="black" stroke-dasharray="5,2" d="M459.582,-254.322C486.568,-242.756 522.536,-227.342 552.362,-214.559"/>
<polygon fill="black" stroke="black" points="561.811,-210.509 554.392,-218.585 557.215,-212.479 552.62,-214.449 552.62,-214.449 552.62,-214.449 557.215,-212.479 550.847,-210.313 561.811,-210.509 561.811,-210.509"/>
</g>
<!-- ndSection&#45;&gt;ndContext -->
<g id="edge23" class="edge"><title>ndSection&#45;&gt;ndContext</title>
<path fill="none" stroke="black" d="M562.817,-165.937C543.704,-156.497 521.293,-145.428 501.147,-135.478"/>
<polygon fill="black" stroke="black" points="500.982,-135.396 493.831,-136.326 490.222,-130.082 497.373,-129.153 500.982,-135.396"/>
</g>
<!-- ndType -->
<g id="node21" class="node"><title>ndType</title>
<polygon fill="yellow" stroke="none" points="497.5,-419.5 497.5,-456.5 554.5,-456.5 554.5,-419.5 497.5,-419.5"/>
<polygon fill="none" stroke="black" points="497.5,-419.5 497.5,-456.5 554.5,-456.5 554.5,-419.5 497.5,-419.5"/>
<text text-anchor="start" x="508.5" y="-435.3" font-family="Arial" font-weight="bold" font-size="14.00">Type</text>
<polygon fill="none" stroke="black" points="496,-419 496,-458 555,-458 555,-419 496,-419"/>
</g>
<!-- ndType&#45;&gt;ndContext -->
<g id="edge24" class="edge"><title>ndType&#45;&gt;ndContext</title>
<path fill="none" stroke="black" stroke-dasharray="5,2" d="M487.93,-437.159C408.079,-434.295 225.135,-414.91 171.5,-296 147.744,-243.332 135.333,-211.058 171.5,-166 197.583,-133.505 314.437,-117.946 386.634,-111.461"/>
<polygon fill="black" stroke="black" points="396.946,-110.569 387.371,-115.914 391.964,-111 386.983,-111.431 386.983,-111.431 386.983,-111.431 391.964,-111 386.595,-106.948 396.946,-110.569 396.946,-110.569"/>
</g>
<!-- ndType&#45;&gt;ndContext -->
<g id="edge26" class="edge"><title>ndType&#45;&gt;ndContext</title>
<path fill="none" stroke="black" stroke-dasharray="5,2" d="M487.877,-436.719C411.315,-432.541 240.939,-410.042 189.5,-296 165.744,-243.332 153.333,-211.058 189.5,-166 214.097,-135.356 319.418,-119.774 386.851,-112.659"/>
<polygon fill="black" stroke="black" points="396.921,-111.63 387.431,-117.124 391.947,-112.138 386.973,-112.647 386.973,-112.647 386.973,-112.647 391.947,-112.138 386.515,-108.17 396.921,-111.63 396.921,-111.63"/>
</g>
<!-- ndType&#45;&gt;ndStructField -->
<g id="edge30" class="edge"><title>ndType&#45;&gt;ndStructField</title>
<path fill="none" stroke="black" d="M563.09,-436.29C650.628,-432.878 874.812,-420.711 1069.36,-379.459"/>
<polygon fill="black" stroke="black" points="1069.51,-379.425 1074.54,-374.25 1081.24,-376.894 1076.22,-382.07 1069.51,-379.425"/>
</g>
<!-- ndType&#45;&gt;ndLangC -->
<g id="edge25" class="edge"><title>ndType&#45;&gt;ndLangC</title>
<path fill="none" stroke="black" stroke-dasharray="5,2" d="M563.013,-434.343C639.078,-427.392 808.417,-408.957 857.5,-379 912.304,-345.552 955.361,-302.916 920.5,-249 901.066,-218.944 879.755,-227.447 845.238,-214.73"/>
<polygon fill="black" stroke="black" points="835.66,-210.77 846.621,-210.432 840.281,-212.68 844.901,-214.591 844.901,-214.591 844.901,-214.591 840.281,-212.68 843.182,-218.75 835.66,-210.77 835.66,-210.77"/>
</g>
<!-- ndType&#45;&gt;ndSection -->
<g id="edge27" class="edge"><title>ndType&#45;&gt;ndSection</title>
<path fill="none" stroke="black" stroke-dasharray="5,2" d="M515.137,-414.8C499.76,-377.458 475.835,-301.938 506.5,-249 516.738,-231.325 534.556,-218.53 552.463,-209.5"/>
<polygon fill="black" stroke="black" points="561.796,-205.116 554.659,-213.441 557.271,-207.242 552.745,-209.368 552.745,-209.368 552.745,-209.368 557.271,-207.242 550.832,-205.295 561.796,-205.116 561.796,-205.116"/>
</g>
<!-- ndFunction -->
<g id="node23" class="node"><title>ndFunction</title>
<polygon fill="lightblue" stroke="none" points="818.5,-253.5 818.5,-290.5 902.5,-290.5 902.5,-253.5 818.5,-253.5"/>
<polygon fill="none" stroke="black" points="818.5,-253.5 818.5,-290.5 902.5,-290.5 902.5,-253.5 818.5,-253.5"/>
<text text-anchor="start" x="829.5" y="-269.3" font-family="Arial" font-weight="bold" font-size="14.00">Function</text>
<polygon fill="none" stroke="black" points="817.5,-253 817.5,-292 903.5,-292 903.5,-253 817.5,-253"/>
</g>
<!-- ndType&#45;&gt;ndFunction -->
<g id="edge28" class="edge"><title>ndType&#45;&gt;ndFunction</title>
<path fill="none" stroke="black" d="M563.156,-435.126C635.864,-429.786 791.837,-414.418 830.5,-379 849.929,-361.201 857.12,-331.82 859.625,-308.578"/>
<polygon fill="black" stroke="black" points="859.641,-308.373 856.125,-302.077 860.583,-296.41 864.1,-302.705 859.641,-308.373"/>
</g>
<!-- ndConst -->
<g id="node25" class="node"><title>ndConst</title>
<polygon fill="lightblue" stroke="none" points="524.5,-253.5 524.5,-290.5 588.5,-290.5 588.5,-253.5 524.5,-253.5"/>
<polygon fill="none" stroke="black" points="524.5,-253.5 524.5,-290.5 588.5,-290.5 588.5,-253.5 524.5,-253.5"/>
<text text-anchor="start" x="535.5" y="-269.3" font-family="Arial" font-weight="bold" font-size="14.00">Const</text>
<polygon fill="none" stroke="black" points="523.5,-253 523.5,-292 589.5,-292 589.5,-253 523.5,-253"/>
</g>
<!-- ndType&#45;&gt;ndConst -->
<g id="edge29" class="edge"><title>ndType&#45;&gt;ndConst</title>
<path fill="none" stroke="black" d="M529.419,-414.833C533.155,-393.449 539.01,-360.509 544.5,-332 545.993,-324.25 547.658,-315.936 549.263,-308.079"/>
<polygon fill="black" stroke="black" points="549.277,-308.009 546.571,-301.325 551.699,-296.255 554.406,-302.939 549.277,-308.009"/>
</g>
<!-- ndArraySize -->
<g id="node22" class="node"><title>ndArraySize</title>
<polygon fill="yellow" stroke="none" points="480.5,-502.5 480.5,-539.5 570.5,-539.5 570.5,-502.5 480.5,-502.5"/>
<polygon fill="none" stroke="black" points="480.5,-502.5 480.5,-539.5 570.5,-539.5 570.5,-502.5 480.5,-502.5"/>
<text text-anchor="start" x="491.5" y="-518.3" font-family="Arial" font-weight="bold" font-size="14.00">ArraySize</text>
<polygon fill="none" stroke="black" points="479.5,-502 479.5,-541 571.5,-541 571.5,-502 479.5,-502"/>
</g>
<!-- ndArraySize&#45;&gt;ndType -->
<g id="edge31" class="edge"><title>ndArraySize&#45;&gt;ndType</title>
<path fill="none" stroke="black" d="M525.5,-497.937C525.5,-490.626 525.5,-482.337 525.5,-474.348"/>
<polygon fill="black" stroke="black" points="525.5,-474.223 521.5,-468.223 525.5,-462.223 529.5,-468.223 525.5,-474.223"/>
</g>
<!-- ndFunction&#45;&gt;ndLangCSharp -->
<g id="edge32" class="edge"><title>ndFunction&#45;&gt;ndLangCSharp</title>
<path fill="none" stroke="black" d="M876.766,-248.765C901.574,-211.04 942.392,-134.562 906.5,-83 887.838,-56.1901 855.391,-41.6385 824.736,-33.752"/>
<polygon fill="black" stroke="black" points="824.35,-33.6624 817.601,-36.2031 812.66,-30.9507 819.409,-28.41 824.35,-33.6624"/>
</g>
<!-- ndFunction&#45;&gt;ndSection -->
<g id="edge33" class="edge"><title>ndFunction&#45;&gt;ndSection</title>
<path fill="none" stroke="black" stroke-dasharray="5,2" d="M809.319,-252.385C806.003,-251.22 802.709,-250.082 799.5,-249 754.553,-233.841 703.112,-218.181 664.947,-206.882"/>
<polygon fill="black" stroke="black" points="655.047,-203.961 665.912,-202.475 659.843,-205.376 664.639,-206.792 664.639,-206.792 664.639,-206.792 659.843,-205.376 663.365,-211.108 655.047,-203.961 655.047,-203.961"/>
</g>
<!-- ndSnippet -->
<g id="node24" class="node"><title>ndSnippet</title>
<polygon fill="lightblue" stroke="none" points="812.5,-87.5 812.5,-124.5 888.5,-124.5 888.5,-87.5 812.5,-87.5"/>
<polygon fill="none" stroke="black" points="812.5,-87.5 812.5,-124.5 888.5,-124.5 888.5,-87.5 812.5,-87.5"/>
<text text-anchor="start" x="823.5" y="-103.3" font-family="Arial" font-weight="bold" font-size="14.00">Snippet</text>
<polygon fill="none" stroke="black" points="811.5,-87 811.5,-126 889.5,-126 889.5,-87 811.5,-87"/>
</g>
<!-- ndSnippet&#45;&gt;ndLangCSharp -->
<g id="edge34" class="edge"><title>ndSnippet&#45;&gt;ndLangCSharp</title>
<path fill="none" stroke="black" d="M822.087,-82.937C811.127,-74.2331 798.422,-64.144 786.686,-54.8238"/>
<polygon fill="black" stroke="black" points="786.511,-54.6856 779.325,-54.0867 777.114,-47.2229 784.3,-47.8218 786.511,-54.6856"/>
</g>
<!-- ndConst&#45;&gt;ndContext -->
<g id="edge35" class="edge"><title>ndConst&#45;&gt;ndContext</title>
<path fill="none" stroke="black" stroke-dasharray="5,2" d="M551.016,-248.897C544.782,-226.371 533,-191.547 514.5,-166 506.653,-155.165 496.364,-145.111 486.098,-136.502"/>
<polygon fill="black" stroke="black" points="478.293,-130.212 488.903,-132.983 482.186,-133.35 486.079,-136.487 486.079,-136.487 486.079,-136.487 482.186,-133.35 483.255,-139.991 478.293,-130.212 478.293,-130.212"/>
</g>
<!-- ndConst&#45;&gt;ndLangC -->
<g id="edge36" class="edge"><title>ndConst&#45;&gt;ndLangC</title>
<path fill="none" stroke="black" stroke-dasharray="5,2" d="M597.773,-252.349C600.707,-251.167 603.636,-250.037 606.5,-249 662.466,-228.729 679.074,-231.953 735.5,-213 736.918,-212.524 738.353,-212.032 739.797,-211.527"/>
<polygon fill="black" stroke="black" points="749.414,-208.052 741.539,-215.683 744.711,-209.751 740.009,-211.451 740.009,-211.451 740.009,-211.451 744.711,-209.751 738.48,-207.219 749.414,-208.052 749.414,-208.052"/>
</g>
<!-- ndConst&#45;&gt;ndLangCSharp -->
<g id="edge37" class="edge"><title>ndConst&#45;&gt;ndLangCSharp</title>
<path fill="none" stroke="black" d="M597.698,-252.365C623.476,-239.763 653.61,-223.679 663.5,-213 704.948,-168.244 728.822,-99.8542 740.191,-58.923"/>
<polygon fill="black" stroke="black" points="740.236,-58.7544 737.914,-51.9272 743.323,-47.1583 745.645,-53.9855 740.236,-58.7544"/>
</g>
<!-- ndConst&#45;&gt;ndSection -->
<g id="edge38" class="edge"><title>ndConst&#45;&gt;ndSection</title>
<path fill="none" stroke="black" stroke-dasharray="5,2" d="M570.985,-248.937C576.405,-240.494 582.662,-230.748 588.493,-221.665"/>
<polygon fill="black" stroke="black" points="593.912,-213.223 592.297,-224.069 591.211,-217.431 588.51,-221.638 588.51,-221.638 588.51,-221.638 591.211,-217.431 584.723,-219.207 593.912,-213.223 593.912,-213.223"/>
</g>
<!-- ndConstValue -->
<g id="node26" class="node"><title>ndConstValue</title>
<polygon fill="yellow" stroke="none" points="562.5,-336.5 562.5,-373.5 664.5,-373.5 664.5,-336.5 562.5,-336.5"/>
<polygon fill="none" stroke="black" points="562.5,-336.5 562.5,-373.5 664.5,-373.5 664.5,-336.5 562.5,-336.5"/>
<text text-anchor="start" x="573.5" y="-352.3" font-family="Arial" font-weight="bold" font-size="14.00">ConstValue</text>
<polygon fill="none" stroke="black" points="561.5,-336 561.5,-375 665.5,-375 665.5,-336 561.5,-336"/>
</g>
<!-- ndConstValue&#45;&gt;ndConst -->
<g id="edge39" class="edge"><title>ndConstValue&#45;&gt;ndConst</title>
<path fill="none" stroke="black" d="M597.622,-331.937C591.987,-323.929 585.527,-314.749 579.423,-306.074"/>
<polygon fill="black" stroke="black" points="579.396,-306.037 572.672,-303.432 572.49,-296.223 579.214,-298.828 579.396,-306.037"/>
</g>
<!-- ndStruct&#45;&gt;ndContext -->
<g id="edge40" class="edge"><title>ndStruct&#45;&gt;ndContext</title>
<path fill="none" stroke="black" stroke-dasharray="5,2" d="M1071.68,-251.474C1019.65,-227.414 927.518,-187.597 844.5,-166 725.055,-134.927 580.961,-118.939 502.446,-111.974"/>
<polygon fill="black" stroke="black" points="492.275,-111.09 502.627,-107.473 497.256,-111.523 502.237,-111.956 502.237,-111.956 502.237,-111.956 497.256,-111.523 501.848,-116.44 492.275,-111.09 492.275,-111.09"/>
</g>
<!-- ndStruct&#45;&gt;ndLangC -->
<g id="edge41" class="edge"><title>ndStruct&#45;&gt;ndLangC</title>
<path fill="none" stroke="black" stroke-dasharray="5,2" d="M1071.74,-252.274C1068.64,-251.095 1065.54,-249.988 1062.5,-249 988.86,-225.051 900.714,-208.042 845.649,-198.744"/>
<polygon fill="black" stroke="black" points="835.763,-197.098 846.367,-194.302 840.695,-197.92 845.628,-198.741 845.628,-198.741 845.628,-198.741 840.695,-197.92 844.888,-203.18 835.763,-197.098 835.763,-197.098"/>
</g>
<!-- ndStruct&#45;&gt;ndLangCSharp -->
<g id="edge42" class="edge"><title>ndStruct&#45;&gt;ndLangCSharp</title>
<path fill="none" stroke="black" d="M1097.26,-248.9C1067.9,-209.628 1002.18,-128.63 928.5,-83 896.764,-63.3453 857.747,-49.6144 824.161,-40.4203"/>
<polygon fill="black" stroke="black" points="824.133,-40.4129 817.311,-42.752 812.529,-37.3552 819.35,-35.0161 824.133,-40.4129"/>
</g>
<!-- ndStruct&#45;&gt;ndSection -->
<g id="edge43" class="edge"><title>ndStruct&#45;&gt;ndSection</title>
<path fill="none" stroke="black" stroke-dasharray="5,2" d="M1071.84,-251.918C1068.72,-250.823 1065.58,-249.832 1062.5,-249 923.464,-211.505 883.092,-233.107 740.5,-213 715.736,-209.508 688.474,-204.977 665.188,-200.898"/>
<polygon fill="black" stroke="black" points="655.132,-199.121 665.762,-196.43 660.055,-199.991 664.979,-200.861 664.979,-200.861 664.979,-200.861 660.055,-199.991 664.196,-205.293 655.132,-199.121 655.132,-199.121"/>
</g>
<!-- ndEnum -->
<g id="node28" class="node"><title>ndEnum</title>
<polygon fill="lightblue" stroke="none" points="719.5,-253.5 719.5,-290.5 782.5,-290.5 782.5,-253.5 719.5,-253.5"/>
<polygon fill="none" stroke="black" points="719.5,-253.5 719.5,-290.5 782.5,-290.5 782.5,-253.5 719.5,-253.5"/>
<text text-anchor="start" x="730.5" y="-269.3" font-family="Arial" font-weight="bold" font-size="14.00">Enum</text>
<polygon fill="none" stroke="black" points="718,-253 718,-292 783,-292 783,-253 718,-253"/>
</g>
<!-- ndEnum&#45;&gt;ndContext -->
<g id="edge45" class="edge"><title>ndEnum&#45;&gt;ndContext</title>
<path fill="none" stroke="black" stroke-dasharray="5,2" d="M737.559,-248.572C722.748,-224.425 696.255,-187.047 663.5,-166 614.456,-134.487 548.844,-119.856 502.258,-113.121"/>
<polygon fill="black" stroke="black" points="492.325,-111.763 502.842,-108.66 497.279,-112.44 502.233,-113.118 502.233,-113.118 502.233,-113.118 497.279,-112.44 501.623,-117.577 492.325,-111.763 492.325,-111.763"/>
</g>
<!-- ndEnum&#45;&gt;ndLangC -->
<g id="edge46" class="edge"><title>ndEnum&#45;&gt;ndLangC</title>
<path fill="none" stroke="black" stroke-dasharray="5,2" d="M762.199,-248.937C766.487,-240.668 771.423,-231.149 776.049,-222.227"/>
<polygon fill="black" stroke="black" points="780.718,-213.223 780.109,-224.172 778.416,-217.662 776.115,-222.101 776.115,-222.101 776.115,-222.101 778.416,-217.662 772.12,-220.029 780.718,-213.223 780.718,-213.223"/>
</g>
<!-- ndEnum&#45;&gt;ndLangCSharp -->
<g id="edge47" class="edge"><title>ndEnum&#45;&gt;ndLangCSharp</title>
<path fill="none" stroke="black" d="M791.218,-251.289C813.728,-239.182 838.363,-224.048 844.5,-213 854.644,-194.739 854.023,-184.592 844.5,-166 832.016,-141.628 811.696,-151.31 794.5,-130 777.56,-109.008 765.694,-80.8171 758.262,-58.8579"/>
<polygon fill="black" stroke="black" points="758.247,-58.8122 752.607,-54.3193 754.585,-47.3847 760.225,-51.8776 758.247,-58.8122"/>
</g>
<!-- ndEnum&#45;&gt;ndSection -->
<g id="edge48" class="edge"><title>ndEnum&#45;&gt;ndSection</title>
<path fill="none" stroke="black" stroke-dasharray="5,2" d="M710.945,-248.937C694.313,-239.45 674.796,-228.317 657.284,-218.328"/>
<polygon fill="black" stroke="black" points="648.335,-213.223 659.251,-214.269 652.678,-215.7 657.021,-218.178 657.021,-218.178 657.021,-218.178 652.678,-215.7 654.792,-222.087 648.335,-213.223 648.335,-213.223"/>
</g>
<!-- ndEnumVariant -->
<g id="node29" class="node"><title>ndEnumVariant</title>
<polygon fill="lightblue" stroke="none" points="700.5,-336.5 700.5,-373.5 812.5,-373.5 812.5,-336.5 700.5,-336.5"/>
<polygon fill="none" stroke="black" points="700.5,-336.5 700.5,-373.5 812.5,-373.5 812.5,-336.5 700.5,-336.5"/>
<text text-anchor="start" x="711.5" y="-352.3" font-family="Arial" font-weight="bold" font-size="14.00">EnumVariant</text>
<polygon fill="none" stroke="black" points="699.5,-336 699.5,-375 813.5,-375 813.5,-336 699.5,-336"/>
</g>
<!-- ndEnumVariant&#45;&gt;ndEnum -->
<g id="edge49" class="edge"><title>ndEnumVariant&#45;&gt;ndEnum</title>
<path fill="none" stroke="black" d="M754.829,-331.937C754.287,-324.626 753.673,-316.337 753.081,-308.348"/>
<polygon fill="black" stroke="black" points="753.07,-308.19 748.637,-302.502 752.183,-296.223 756.616,-301.911 753.07,-308.19"/>
</g>
</g>
</svg>
