<?xml version="1.0" encoding="UTF-8" standalone="no"?>
<!DOCTYPE svg PUBLIC "-//W3C//DTD SVG 1.1//EN"
 "http://www.w3.org/Graphics/SVG/1.1/DTD/svg11.dtd">
<!-- Generated by graphviz version 2.38.0 (20140413.2041)
 -->
<!-- Title: ml Pages: 1 -->
<svg width="1574pt" height="387pt"
 viewBox="0.00 0.00 1574.00 387.00" xmlns="http://www.w3.org/2000/svg" xmlns:xlink="http://www.w3.org/1999/xlink">
<g id="graph0" class="graph" transform="scale(1 1) rotate(0) translate(4 383)">
<title>ml</title>
<polygon fill="white" stroke="none" points="-4,4 -4,-383 1570,-383 1570,4 -4,4"/>
<!-- ndInput -->
<g id="node1" class="node"><title>ndInput</title>
<g id="a_node1_0"><a xlink:href="https://github.com/maidsafe/sn_bindgen/blob/master/src/lib.rs#:~:text=enum%20Input" xlink:title="&lt;TABLE&gt;">
<polygon fill="yellow" stroke="none" points="9,-87.5 9,-124.5 67,-124.5 67,-87.5 9,-87.5"/>
<polygon fill="none" stroke="black" points="9,-87.5 9,-124.5 67,-124.5 67,-87.5 9,-87.5"/>
<text text-anchor="start" x="20" y="-103.3" font-family="Arial" font-weight="bold" font-size="14.00">Input</text>
<polygon fill="none" stroke="black" points="8,-87 8,-126 68,-126 68,-87 8,-87"/>
</a>
</g>
</g>
<!-- ndBindgen -->
<g id="node2" class="node"><title>ndBindgen</title>
<g id="a_node2_1"><a xlink:href="https://github.com/maidsafe/sn_bindgen/blob/master/src/lib.rs#:~:text=struct%20Bindgen" xlink:title="&lt;TABLE&gt;">
<polygon fill="lightblue" stroke="none" points="179,-4.5 179,-41.5 260,-41.5 260,-4.5 179,-4.5"/>
<polygon fill="none" stroke="black" points="179,-4.5 179,-41.5 260,-41.5 260,-4.5 179,-4.5"/>
<text text-anchor="start" x="190" y="-20.3" font-family="Arial" font-weight="bold" font-size="14.00">Bindgen</text>
<polygon fill="none" stroke="black" points="177.5,-4 177.5,-43 260.5,-43 260.5,-4 177.5,-4"/>
</a>
</g>
</g>
<!-- ndInput&#45;&gt;ndBindgen -->
<g id="edge1" class="edge"><title>ndInput&#45;&gt;ndBindgen</title>
<path fill="none" stroke="black" d="M76.3854,-88.322C100.084,-77.7165 131.016,-63.8742 158.012,-51.7928"/>
<polygon fill="black" stroke="black" points="158.356,-51.6392 162.198,-45.5372 169.309,-46.7374 165.466,-52.8394 158.356,-51.6392"/>
</g>
<!-- ndIndentedWriter -->
<g id="node3" class="node"><title>ndIndentedWriter</title>
<g id="a_node3_2"><a xlink:href="https://github.com/maidsafe/sn_bindgen/blob/master/src/output.rs#:~:text=struct%20IndentedWriter" xlink:title="&lt;TABLE&gt;">
<polygon fill="lightblue" stroke="none" points="980,-336.5 980,-373.5 1105,-373.5 1105,-336.5 980,-336.5"/>
<polygon fill="none" stroke="black" points="980,-336.5 980,-373.5 1105,-373.5 1105,-336.5 980,-336.5"/>
<text text-anchor="start" x="991" y="-352.3" font-family="Arial" font-weight="bold" font-size="14.00">IndentedWriter</text>
<polygon fill="none" stroke="black" points="978.5,-336 978.5,-375 1105.5,-375 1105.5,-336 978.5,-336"/>
</a>
</g>
</g>
<!-- ndError -->
<g id="node4" class="node"><title>ndError</title>
<g id="a_node4_3"><a xlink:href="https://github.com/maidsafe/sn_bindgen/blob/master/src/errors.rs#:~:text=struct%20Error" xlink:title="&lt;TABLE&gt;">
<polygon fill="lightblue" stroke="none" points="492,-87.5 492,-124.5 551,-124.5 551,-87.5 492,-87.5"/>
<polygon fill="none" stroke="black" points="492,-87.5 492,-124.5 551,-124.5 551,-87.5 492,-87.5"/>
<text text-anchor="start" x="503" y="-103.3" font-family="Arial" font-weight="bold" font-size="14.00">Error</text>
<polygon fill="none" stroke="black" points="490.5,-87 490.5,-126 551.5,-126 551.5,-87 490.5,-87"/>
</a>
</g>
</g>
<!-- ndError&#45;&gt;ndBindgen -->
<g id="edge2" class="edge"><title>ndError&#45;&gt;ndBindgen</title>
<path fill="none" stroke="black" stroke-dasharray="5,2" d="M482.254,-86.4964C479.154,-85.2351 476.045,-84.051 473,-83 408.035,-60.577 330.755,-44.1698 278.637,-34.5325"/>
<polygon fill="black" stroke="black" points="268.56,-32.6955 279.205,-30.0619 273.479,-33.5922 278.398,-34.4889 278.398,-34.4889 278.398,-34.4889 273.479,-33.5922 277.59,-38.916 268.56,-32.6955 268.56,-32.6955"/>
</g>
<!-- ndLangJava -->
<g id="node8" class="node"><title>ndLangJava</title>
<g id="a_node8_4"><a xlink:href="https://github.com/maidsafe/sn_bindgen/blob/master/src/java/mod.rs#:~:text=struct%20LangJava" xlink:title="&lt;TABLE&gt;">
<polygon fill="lightblue" stroke="none" points="424,-4.5 424,-41.5 515,-41.5 515,-4.5 424,-4.5"/>
<polygon fill="none" stroke="black" points="424,-4.5 424,-41.5 515,-41.5 515,-4.5 424,-4.5"/>
<text text-anchor="start" x="435" y="-20.3" font-family="Arial" font-weight="bold" font-size="14.00">LangJava</text>
<polygon fill="none" stroke="black" points="422.5,-4 422.5,-43 515.5,-43 515.5,-4 422.5,-4"/>
</a>
</g>
</g>
<!-- ndError&#45;&gt;ndLangJava -->
<g id="edge3" class="edge"><title>ndError&#45;&gt;ndLangJava</title>
<path fill="none" stroke="black" d="M506.515,-82.937C501.095,-74.4942 494.838,-64.7481 489.007,-55.6646"/>
<polygon fill="black" stroke="black" points="483.588,-47.2229 492.777,-53.2071 486.289,-51.4305 488.99,-55.6381 488.99,-55.6381 488.99,-55.6381 486.289,-51.4305 485.203,-58.0692 483.588,-47.2229 483.588,-47.2229"/>
</g>
<!-- ndLangC -->
<g id="node16" class="node"><title>ndLangC</title>
<g id="a_node16_5"><a xlink:href="https://github.com/maidsafe/sn_bindgen/blob/master/src/lang_c/mod.rs#:~:text=struct%20LangC" xlink:title="&lt;TABLE&gt;">
<polygon fill="lightblue" stroke="none" points="823,-4.5 823,-41.5 891,-41.5 891,-4.5 823,-4.5"/>
<polygon fill="none" stroke="black" points="823,-4.5 823,-41.5 891,-41.5 891,-4.5 823,-4.5"/>
<text text-anchor="start" x="834" y="-20.3" font-family="Arial" font-weight="bold" font-size="14.00">LangC</text>
<polygon fill="none" stroke="black" points="822,-4 822,-43 892,-43 892,-4 822,-4"/>
</a>
</g>
</g>
<!-- ndError&#45;&gt;ndLangC -->
<g id="edge4" class="edge"><title>ndError&#45;&gt;ndLangC</title>
<path fill="none" stroke="black" d="M559.635,-85.9525C562.431,-84.8645 565.237,-83.8645 568,-83 663.813,-53.0182 693.587,-71.2834 791,-47 795.346,-45.9166 799.815,-44.6763 804.279,-43.3472"/>
<polygon fill="black" stroke="black" points="813.999,-40.3219 805.788,-47.5907 809.225,-41.808 804.45,-43.294 804.45,-43.294 804.45,-43.294 809.225,-41.808 803.113,-38.9974 813.999,-40.3219 813.999,-40.3219"/>
</g>
<!-- ndLangCSharp -->
<g id="node19" class="node"><title>ndLangCSharp</title>
<g id="a_node19_6"><a xlink:href="https://github.com/maidsafe/sn_bindgen/blob/master/src/csharp/mod.rs#:~:text=struct%20LangCSharp" xlink:title="&lt;TABLE&gt;">
<polygon fill="lightblue" stroke="none" points="663,-4.5 663,-41.5 773,-41.5 773,-4.5 663,-4.5"/>
<polygon fill="none" stroke="black" points="663,-4.5 663,-41.5 773,-41.5 773,-4.5 663,-4.5"/>
<text text-anchor="start" x="674" y="-20.3" font-family="Arial" font-weight="bold" font-size="14.00">LangCSharp</text>
<polygon fill="none" stroke="black" points="662,-4 662,-43 774,-43 774,-4 662,-4"/>
</a>
</g>
</g>
<!-- ndError&#45;&gt;ndLangCSharp -->
<g id="edge5" class="edge"><title>ndError&#45;&gt;ndLangCSharp</title>
<path fill="none" stroke="black" d="M559.623,-86.729C562.447,-85.4431 565.261,-84.1877 568,-83 593.696,-71.8572 622.256,-60.4751 647.502,-50.748"/>
<polygon fill="black" stroke="black" points="657.003,-47.105 649.277,-54.887 652.334,-48.8951 647.666,-50.6853 647.666,-50.6853 647.666,-50.6853 652.334,-48.8951 646.055,-46.4836 657.003,-47.105 657.003,-47.105"/>
</g>
<!-- ndLevel -->
<g id="node5" class="node"><title>ndLevel</title>
<g id="a_node5_7"><a xlink:href="https://github.com/maidsafe/sn_bindgen/blob/master/src/errors.rs#:~:text=enum%20Level" xlink:title="&lt;TABLE&gt;">
<polygon fill="yellow" stroke="none" points="431,-170.5 431,-207.5 491,-207.5 491,-170.5 431,-170.5"/>
<polygon fill="none" stroke="black" points="431,-170.5 431,-207.5 491,-207.5 491,-170.5 431,-170.5"/>
<text text-anchor="start" x="442" y="-186.3" font-family="Arial" font-weight="bold" font-size="14.00">Level</text>
<polygon fill="none" stroke="black" points="430,-170 430,-209 492,-209 492,-170 430,-170"/>
</a>
</g>
</g>
<!-- ndLevel&#45;&gt;ndError -->
<g id="edge6" class="edge"><title>ndLevel&#45;&gt;ndError</title>
<path fill="none" stroke="black" d="M477.713,-165.937C483.645,-157.929 490.445,-148.749 496.871,-140.074"/>
<polygon fill="black" stroke="black" points="497.025,-139.866 497.383,-132.663 504.168,-130.223 503.811,-137.425 497.025,-139.866"/>
</g>
<!-- ndJniArgResult -->
<g id="node6" class="node"><title>ndJniArgResult</title>
<g id="a_node6_8"><a xlink:href="https://github.com/maidsafe/sn_bindgen/blob/master/src/java/jni.rs#:~:text=struct%20JniArgResult" xlink:title="&lt;TABLE&gt;">
<polygon fill="lightblue" stroke="none" points="1141,-336.5 1141,-373.5 1253,-373.5 1253,-336.5 1141,-336.5"/>
<polygon fill="none" stroke="black" points="1141,-336.5 1141,-373.5 1253,-373.5 1253,-336.5 1141,-336.5"/>
<text text-anchor="start" x="1152" y="-352.3" font-family="Arial" font-weight="bold" font-size="14.00">JniArgResult</text>
<polygon fill="none" stroke="black" points="1140,-336 1140,-375 1254,-375 1254,-336 1140,-336"/>
</a>
</g>
</g>
<!-- ndJniCallback -->
<g id="node7" class="node"><title>ndJniCallback</title>
<g id="a_node7_9"><a xlink:href="https://github.com/maidsafe/sn_bindgen/blob/master/src/java/jni.rs#:~:text=struct%20JniCallback" xlink:title="&lt;TABLE&gt;">
<polygon fill="lightblue" stroke="none" points="1289,-336.5 1289,-373.5 1393,-373.5 1393,-336.5 1289,-336.5"/>
<polygon fill="none" stroke="black" points="1289,-336.5 1289,-373.5 1393,-373.5 1393,-336.5 1289,-336.5"/>
<text text-anchor="start" x="1300" y="-352.3" font-family="Arial" font-weight="bold" font-size="14.00">JniCallback</text>
<polygon fill="none" stroke="black" points="1288,-336 1288,-375 1394,-375 1394,-336 1288,-336"/>
</a>
</g>
</g>
<!-- ndContext -->
<g id="node9" class="node"><title>ndContext</title>
<g id="a_node9_10"><a xlink:href="https://github.com/maidsafe/sn_bindgen/blob/master/src/csharp/mod.rs#:~:text=struct%20Context" xlink:title="&lt;TABLE&gt;">
<polygon fill="lightblue" stroke="none" points="379,-87.5 379,-124.5 456,-124.5 456,-87.5 379,-87.5"/>
<polygon fill="none" stroke="black" points="379,-87.5 379,-124.5 456,-124.5 456,-87.5 379,-87.5"/>
<text text-anchor="start" x="390" y="-103.3" font-family="Arial" font-weight="bold" font-size="14.00">Context</text>
<polygon fill="none" stroke="black" points="377.5,-87 377.5,-126 456.5,-126 456.5,-87 377.5,-87"/>
</a>
</g>
</g>
<!-- ndContext&#45;&gt;ndLangJava -->
<g id="edge7" class="edge"><title>ndContext&#45;&gt;ndLangJava</title>
<path fill="none" stroke="black" d="M431.485,-82.937C436.57,-75.0164 442.391,-65.9488 447.906,-57.3574"/>
<polygon fill="black" stroke="black" points="447.93,-57.3212 447.805,-50.1111 454.412,-47.2229 454.537,-54.433 447.93,-57.3212"/>
</g>
<!-- ndContext&#45;&gt;ndLangCSharp -->
<g id="edge8" class="edge"><title>ndContext&#45;&gt;ndLangCSharp</title>
<path fill="none" stroke="black" d="M464.792,-85.7582C467.554,-84.7856 470.304,-83.8582 473,-83 528.701,-65.2671 593.031,-50.103 641.792,-39.6599"/>
<polygon fill="black" stroke="black" points="642.099,-39.5949 647.14,-34.4383 653.839,-37.108 648.798,-42.2646 642.099,-39.5949"/>
</g>
<!-- ndJavaClassField -->
<g id="node10" class="node"><title>ndJavaClassField</title>
<g id="a_node10_11"><a xlink:href="https://github.com/maidsafe/sn_bindgen/blob/master/src/java/mod.rs#:~:text=struct%20JavaClassField" xlink:title="&lt;TABLE&gt;">
<polygon fill="lightblue" stroke="none" points="1429,-336.5 1429,-373.5 1557,-373.5 1557,-336.5 1429,-336.5"/>
<polygon fill="none" stroke="black" points="1429,-336.5 1429,-373.5 1557,-373.5 1557,-336.5 1429,-336.5"/>
<text text-anchor="start" x="1440" y="-352.3" font-family="Arial" font-weight="bold" font-size="14.00">JavaClassField</text>
<polygon fill="none" stroke="black" points="1428,-336 1428,-375 1558,-375 1558,-336 1428,-336"/>
</a>
</g>
</g>
<!-- ndFilterMode -->
<g id="node11" class="node"><title>ndFilterMode</title>
<g id="a_node11_12"><a xlink:href="https://github.com/maidsafe/sn_bindgen/blob/master/src/common.rs#:~:text=enum%20FilterMode" xlink:title="&lt;TABLE&gt;">
<polygon fill="yellow" stroke="none" points="147,-87.5 147,-124.5 244,-124.5 244,-87.5 147,-87.5"/>
<polygon fill="none" stroke="black" points="147,-87.5 147,-124.5 244,-124.5 244,-87.5 147,-87.5"/>
<text text-anchor="start" x="158" y="-103.3" font-family="Arial" font-weight="bold" font-size="14.00">FilterMode</text>
<polygon fill="none" stroke="black" points="145.5,-87 145.5,-126 244.5,-126 244.5,-87 145.5,-87"/>
</a>
</g>
</g>
<!-- ndFilterMode&#45;&gt;ndLangJava -->
<g id="edge9" class="edge"><title>ndFilterMode&#45;&gt;ndLangJava</title>
<path fill="none" stroke="black" stroke-dasharray="5,2" d="M252.686,-85.93C255.832,-84.9246 258.952,-83.9419 262,-83 308.764,-68.5494 361.901,-53.5619 402.628,-42.3749"/>
<polygon fill="black" stroke="black" points="402.734,-42.3459 407.465,-36.9036 414.308,-39.1773 409.578,-44.6196 402.734,-42.3459"/>
</g>
<!-- ndFilterMode&#45;&gt;ndLangCSharp -->
<g id="edge10" class="edge"><title>ndFilterMode&#45;&gt;ndLangCSharp</title>
<path fill="none" stroke="black" stroke-dasharray="5,2" d="M252.538,-85.3787C255.722,-84.5155 258.891,-83.7142 262,-83 280.233,-78.8119 516.39,-49.375 641.454,-33.9229"/>
<polygon fill="black" stroke="black" points="641.657,-33.898 647.121,-29.1927 653.566,-32.4272 648.102,-37.1324 641.657,-33.898"/>
</g>
<!-- ndLang -->
<g id="node12" class="node"><title>ndLang</title>
<g id="a_node12_13"><a xlink:href="https://github.com/maidsafe/sn_bindgen/blob/master/src/common.rs#:~:text=trait%20Lang" xlink:title="&lt;TABLE&gt;">
<polygon fill="lightgreen" stroke="none" points="1075,-87.5 1075,-124.5 1133,-124.5 1133,-87.5 1075,-87.5"/>
<polygon fill="none" stroke="black" points="1075,-87.5 1075,-124.5 1133,-124.5 1133,-87.5 1075,-87.5"/>
<text text-anchor="start" x="1086" y="-103.3" font-family="Arial" font-weight="bold" font-size="14.00">Lang</text>
<polygon fill="none" stroke="black" points="1074,-87 1074,-126 1134,-126 1134,-87 1074,-87"/>
</a>
</g>
</g>
<!-- ndLang&#45;&gt;ndLangC -->
<g id="edge11" class="edge"><title>ndLang&#45;&gt;ndLangC</title>
<path fill="none" stroke="black" stroke-dasharray="5,2" d="M1065.87,-88.3984C1061.23,-86.4965 1056.53,-84.6524 1052,-83 1004.56,-65.6863 949.323,-49.4748 909.777,-38.5291"/>
<polygon fill="none" stroke="black" points="910.646,-35.1381 900.076,-35.8623 908.79,-41.8877 910.646,-35.1381"/>
</g>
<!-- ndLang&#45;&gt;ndLangCSharp -->
<g id="edge12" class="edge"><title>ndLang&#45;&gt;ndLangCSharp</title>
<path fill="none" stroke="black" stroke-dasharray="5,2" d="M1065.79,-87.6296C1061.21,-85.8859 1056.54,-84.2892 1052,-83 945.278,-52.7099 913.75,-68.9206 805,-47 800.871,-46.1677 796.645,-45.2606 792.388,-44.3039"/>
<polygon fill="none" stroke="black" points="792.965,-40.8448 782.433,-41.9931 791.382,-47.6636 792.965,-40.8448"/>
</g>
<!-- ndStructField -->
<g id="node13" class="node"><title>ndStructField</title>
<g id="a_node13_14"><a xlink:href="https://github.com/maidsafe/sn_bindgen/blob/master/src/csharp/intermediate.rs#:~:text=struct%20StructField" xlink:title="&lt;TABLE&gt;">
<polygon fill="lightblue" stroke="none" points="675,-170.5 675,-207.5 773,-207.5 773,-170.5 675,-170.5"/>
<polygon fill="none" stroke="black" points="675,-170.5 675,-207.5 773,-207.5 773,-170.5 675,-170.5"/>
<text text-anchor="start" x="686" y="-186.3" font-family="Arial" font-weight="bold" font-size="14.00">StructField</text>
<polygon fill="none" stroke="black" points="674,-170 674,-209 774,-209 774,-170 674,-170"/>
</a>
</g>
</g>
<!-- ndStruct -->
<g id="node27" class="node"><title>ndStruct</title>
<g id="a_node27_15"><a xlink:href="https://github.com/maidsafe/sn_bindgen/blob/master/src/csharp/intermediate.rs#:~:text=struct%20Struct" xlink:title="&lt;TABLE&gt;">
<polygon fill="lightblue" stroke="none" points="686,-87.5 686,-124.5 751,-124.5 751,-87.5 686,-87.5"/>
<polygon fill="none" stroke="black" points="686,-87.5 686,-124.5 751,-124.5 751,-87.5 686,-87.5"/>
<text text-anchor="start" x="697" y="-103.3" font-family="Arial" font-weight="bold" font-size="14.00">Struct</text>
<polygon fill="none" stroke="black" points="684.5,-87 684.5,-126 751.5,-126 751.5,-87 684.5,-87"/>
</a>
</g>
</g>
<!-- ndStructField&#45;&gt;ndStruct -->
<g id="edge13" class="edge"><title>ndStructField&#45;&gt;ndStruct</title>
<path fill="none" stroke="black" d="M722.329,-165.937C721.787,-158.626 721.173,-150.337 720.581,-142.348"/>
<polygon fill="black" stroke="black" points="720.57,-142.19 716.137,-136.502 719.683,-130.223 724.116,-135.911 720.57,-142.19"/>
</g>
<!-- ndCPtrType -->
<g id="node14" class="node"><title>ndCPtrType</title>
<g id="a_node14_16"><a xlink:href="https://github.com/maidsafe/sn_bindgen/blob/master/src/lang_c/types.rs#:~:text=enum%20CPtrType" xlink:title="&lt;TABLE&gt;">
<polygon fill="yellow" stroke="none" points="1149,-170.5 1149,-207.5 1237,-207.5 1237,-170.5 1149,-170.5"/>
<polygon fill="none" stroke="black" points="1149,-170.5 1149,-207.5 1237,-207.5 1237,-170.5 1149,-170.5"/>
<text text-anchor="start" x="1160" y="-186.3" font-family="Arial" font-weight="bold" font-size="14.00">CPtrType</text>
<polygon fill="none" stroke="black" points="1148,-170 1148,-209 1238,-209 1238,-170 1148,-170"/>
</a>
</g>
</g>
<!-- ndCType -->
<g id="node15" class="node"><title>ndCType</title>
<g id="a_node15_17"><a xlink:href="https://github.com/maidsafe/sn_bindgen/blob/master/src/lang_c/types.rs#:~:text=enum%20CType" xlink:title="&lt;TABLE&gt;">
<polygon fill="yellow" stroke="none" points="1169,-87.5 1169,-124.5 1237,-124.5 1237,-87.5 1169,-87.5"/>
<polygon fill="none" stroke="black" points="1169,-87.5 1169,-124.5 1237,-124.5 1237,-87.5 1169,-87.5"/>
<text text-anchor="start" x="1180" y="-103.3" font-family="Arial" font-weight="bold" font-size="14.00">CType</text>
<polygon fill="none" stroke="black" points="1168,-87 1168,-126 1238,-126 1238,-87 1168,-87"/>
</a>
</g>
</g>
<!-- ndCPtrType&#45;&gt;ndCType -->
<g id="edge14" class="edge"><title>ndCPtrType&#45;&gt;ndCType</title>
<path fill="none" stroke="black" d="M1195.79,-165.937C1196.69,-158.626 1197.71,-150.337 1198.7,-142.348"/>
<polygon fill="black" stroke="black" points="1198.72,-142.133 1195.49,-135.688 1200.19,-130.223 1203.43,-136.668 1198.72,-142.133"/>
</g>
<!-- ndCType&#45;&gt;ndLangC -->
<g id="edge15" class="edge"><title>ndCType&#45;&gt;ndLangC</title>
<path fill="none" stroke="black" stroke-dasharray="5,2" d="M1159.85,-86.0144C1156.88,-84.9262 1153.91,-83.9081 1151,-83 1068.58,-57.2878 969.511,-40.3329 909.988,-31.5833"/>
<polygon fill="black" stroke="black" points="900.066,-30.1471 910.607,-27.1261 905.014,-30.8634 909.963,-31.5797 909.963,-31.5797 909.963,-31.5797 905.014,-30.8634 909.318,-36.0333 900.066,-30.1471 900.066,-30.1471"/>
</g>
<!-- ndMode -->
<g id="node17" class="node"><title>ndMode</title>
<g id="a_node17_18"><a xlink:href="https://github.com/maidsafe/sn_bindgen/blob/master/src/csharp/emit.rs#:~:text=enum%20Mode" xlink:title="&lt;TABLE&gt;">
<polygon fill="yellow" stroke="none" points="280,-87.5 280,-124.5 342,-124.5 342,-87.5 280,-87.5"/>
<polygon fill="none" stroke="black" points="280,-87.5 280,-124.5 342,-124.5 342,-87.5 280,-87.5"/>
<text text-anchor="start" x="291" y="-103.3" font-family="Arial" font-weight="bold" font-size="14.00">Mode</text>
<polygon fill="none" stroke="black" points="279,-87 279,-126 343,-126 343,-87 279,-87"/>
</a>
</g>
</g>
<!-- ndMode&#45;&gt;ndLangJava -->
<g id="edge16" class="edge"><title>ndMode&#45;&gt;ndLangJava</title>
<path fill="none" stroke="black" stroke-dasharray="5,2" d="M351.279,-84.8507C370.871,-74.8066 394.684,-62.5985 415.754,-51.7971"/>
<polygon fill="black" stroke="black" points="424.905,-47.1059 418.059,-55.6724 420.455,-49.387 416.006,-51.668 416.006,-51.668 416.006,-51.668 420.455,-49.387 413.953,-47.6635 424.905,-47.1059 424.905,-47.1059"/>
</g>
<!-- ndMode&#45;&gt;ndLangCSharp -->
<g id="edge17" class="edge"><title>ndMode&#45;&gt;ndLangCSharp</title>
<path fill="none" stroke="black" stroke-dasharray="5,2" d="M351.041,-86.078C354.038,-84.9449 357.045,-83.9017 360,-83 411.692,-67.2237 554.992,-46.3059 643.828,-34.2323"/>
<polygon fill="black" stroke="black" points="653.848,-32.8766 644.541,-38.6769 648.893,-33.5471 643.938,-34.2175 643.938,-34.2175 643.938,-34.2175 648.893,-33.5471 643.335,-29.7581 653.848,-32.8766 653.848,-32.8766"/>
</g>
<!-- ndStructMode -->
<g id="node18" class="node"><title>ndStructMode</title>
<g id="a_node18_19"><a xlink:href="https://github.com/maidsafe/sn_bindgen/blob/master/src/csharp/emit.rs#:~:text=enum%20StructMode" xlink:title="&lt;TABLE&gt;">
<polygon fill="yellow" stroke="none" points="141,-170.5 141,-207.5 245,-207.5 245,-170.5 141,-170.5"/>
<polygon fill="none" stroke="black" points="141,-170.5 141,-207.5 245,-207.5 245,-170.5 141,-170.5"/>
<text text-anchor="start" x="152" y="-186.3" font-family="Arial" font-weight="bold" font-size="14.00">StructMode</text>
<polygon fill="none" stroke="black" points="140,-170 140,-209 246,-209 246,-170 140,-170"/>
</a>
</g>
</g>
<!-- ndStructMode&#45;&gt;ndMode -->
<g id="edge18" class="edge"><title>ndStructMode&#45;&gt;ndMode</title>
<path fill="none" stroke="black" stroke-dasharray="5,2" d="M225.87,-165.937C239.31,-156.711 255.018,-145.928 269.256,-136.155"/>
<polygon fill="black" stroke="black" points="277.897,-130.223 272.2,-139.592 273.775,-133.053 269.653,-135.882 269.653,-135.882 269.653,-135.882 273.775,-133.053 267.106,-132.172 277.897,-130.223 277.897,-130.223"/>
</g>
<!-- ndSection -->
<g id="node20" class="node"><title>ndSection</title>
<g id="a_node20_20"><a xlink:href="https://github.com/maidsafe/sn_bindgen/blob/master/src/csharp/mod.rs#:~:text=struct%20Section" xlink:title="&lt;TABLE&gt;">
<polygon fill="lightblue" stroke="none" points="320,-170.5 320,-207.5 395,-207.5 395,-170.5 320,-170.5"/>
<polygon fill="none" stroke="black" points="320,-170.5 320,-207.5 395,-207.5 395,-170.5 320,-170.5"/>
<text text-anchor="start" x="331" y="-186.3" font-family="Arial" font-weight="bold" font-size="14.00">Section</text>
<polygon fill="none" stroke="black" points="318.5,-170 318.5,-209 395.5,-209 395.5,-170 318.5,-170"/>
</a>
</g>
</g>
<!-- ndSection&#45;&gt;ndContext -->
<g id="edge19" class="edge"><title>ndSection&#45;&gt;ndContext</title>
<path fill="none" stroke="black" d="M373.713,-165.937C379.645,-157.929 386.445,-148.749 392.871,-140.074"/>
<polygon fill="black" stroke="black" points="393.025,-139.866 393.383,-132.663 400.168,-130.223 399.811,-137.425 393.025,-139.866"/>
</g>
<!-- ndType -->
<g id="node21" class="node"><title>ndType</title>
<g id="a_node21_21"><a xlink:href="https://github.com/maidsafe/sn_bindgen/blob/master/src/csharp/intermediate.rs#:~:text=enum%20Type" xlink:title="&lt;TABLE&gt;">
<polygon fill="yellow" stroke="none" points="870,-253.5 870,-290.5 927,-290.5 927,-253.5 870,-253.5"/>
<polygon fill="none" stroke="black" points="870,-253.5 870,-290.5 927,-290.5 927,-253.5 870,-253.5"/>
<text text-anchor="start" x="881" y="-269.3" font-family="Arial" font-weight="bold" font-size="14.00">Type</text>
<polygon fill="none" stroke="black" points="868.5,-253 868.5,-292 927.5,-292 927.5,-253 868.5,-253"/>
</a>
</g>
</g>
<!-- ndType&#45;&gt;ndLangJava -->
<g id="edge20" class="edge"><title>ndType&#45;&gt;ndLangJava</title>
<path fill="none" stroke="black" stroke-dasharray="5,2" d="M860.342,-271.583C711.989,-271.526 173.577,-267.539 123,-213 109.201,-198.12 111.511,-101.406 128,-83 146.224,-62.6582 310.666,-41.6932 404.369,-31.2575"/>
<polygon fill="black" stroke="black" points="414.319,-30.1593 404.873,-35.7292 409.35,-30.7078 404.38,-31.2564 404.38,-31.2564 404.38,-31.2564 409.35,-30.7078 403.886,-26.7836 414.319,-30.1593 414.319,-30.1593"/>
</g>
<!-- ndType&#45;&gt;ndContext -->
<g id="edge21" class="edge"><title>ndType&#45;&gt;ndContext</title>
<path fill="none" stroke="black" stroke-dasharray="5,2" d="M860.297,-270.681C735.051,-267.575 338.646,-254.515 301,-213 286.968,-197.526 290.049,-183.788 301,-166 304.705,-159.982 332.586,-145.835 360.083,-132.961"/>
<polygon fill="black" stroke="black" points="369.358,-128.657 362.181,-136.948 364.822,-130.762 360.286,-132.866 360.286,-132.866 360.286,-132.866 364.822,-130.762 358.392,-128.784 369.358,-128.657 369.358,-128.657"/>
</g>
<!-- ndType&#45;&gt;ndStructField -->
<g id="edge26" class="edge"><title>ndType&#45;&gt;ndStructField</title>
<path fill="none" stroke="black" d="M860.245,-253.924C837.869,-243.508 809.012,-230.075 783.621,-218.254"/>
<polygon fill="black" stroke="black" points="783.487,-218.192 776.359,-219.286 772.608,-213.128 779.735,-212.034 783.487,-218.192"/>
</g>
<!-- ndType&#45;&gt;ndLangC -->
<g id="edge22" class="edge"><title>ndType&#45;&gt;ndLangC</title>
<path fill="none" stroke="black" stroke-dasharray="5,2" d="M935.626,-271.204C1018.83,-269.669 1214.29,-260.927 1255,-213 1292.41,-168.965 1292.77,-126.725 1255,-83 1211.12,-32.1963 1008.7,-24.7051 910.594,-24.1248"/>
<polygon fill="black" stroke="black" points="900.299,-24.0872 910.315,-19.6239 905.299,-24.1055 910.299,-24.1238 910.299,-24.1238 910.299,-24.1238 905.299,-24.1055 910.282,-28.6238 900.299,-24.0872 900.299,-24.0872"/>
</g>
<!-- ndType&#45;&gt;ndLangCSharp -->
<g id="edge23" class="edge"><title>ndType&#45;&gt;ndLangCSharp</title>
<path fill="none" stroke="black" stroke-dasharray="5,2" d="M865.815,-248.957C853.198,-238.987 839.307,-226.47 829,-213 790.216,-162.314 802.6,-136.629 768,-83 761.789,-73.3731 754.129,-63.6319 746.687,-54.933"/>
<polygon fill="black" stroke="black" points="739.963,-47.2704 749.941,-51.8182 743.261,-51.0285 746.559,-54.7865 746.559,-54.7865 746.559,-54.7865 743.261,-51.0285 743.177,-57.7548 739.963,-47.2704 739.963,-47.2704"/>
</g>
<!-- ndFunction -->
<g id="node23" class="node"><title>ndFunction</title>
<g id="a_node23_22"><a xlink:href="https://github.com/maidsafe/sn_bindgen/blob/master/src/csharp/intermediate.rs#:~:text=struct%20Function" xlink:title="&lt;TABLE&gt;">
<polygon fill="lightblue" stroke="none" points="1023,-170.5 1023,-207.5 1107,-207.5 1107,-170.5 1023,-170.5"/>
<polygon fill="none" stroke="black" points="1023,-170.5 1023,-207.5 1107,-207.5 1107,-170.5 1023,-170.5"/>
<text text-anchor="start" x="1034" y="-186.3" font-family="Arial" font-weight="bold" font-size="14.00">Function</text>
<polygon fill="none" stroke="black" points="1022,-170 1022,-209 1108,-209 1108,-170 1022,-170"/>
</a>
</g>
</g>
<!-- ndType&#45;&gt;ndFunction -->
<g id="edge24" class="edge"><title>ndType&#45;&gt;ndFunction</title>
<path fill="none" stroke="black" d="M935.854,-250.218C955.623,-240.234 980.262,-228.221 1002.73,-217.595"/>
<polygon fill="black" stroke="black" points="1003.03,-217.451 1006.76,-211.278 1013.89,-212.345 1010.17,-218.518 1003.03,-217.451"/>
</g>
<!-- ndConst -->
<g id="node25" class="node"><title>ndConst</title>
<g id="a_node25_23"><a xlink:href="https://github.com/maidsafe/sn_bindgen/blob/master/src/csharp/intermediate.rs#:~:text=struct%20Const" xlink:title="&lt;TABLE&gt;">
<polygon fill="lightblue" stroke="none" points="825,-87.5 825,-124.5 889,-124.5 889,-87.5 825,-87.5"/>
<polygon fill="none" stroke="black" points="825,-87.5 825,-124.5 889,-124.5 889,-87.5 825,-87.5"/>
<text text-anchor="start" x="836" y="-103.3" font-family="Arial" font-weight="bold" font-size="14.00">Const</text>
<polygon fill="none" stroke="black" points="824,-87 824,-126 890,-126 890,-87 824,-87"/>
</a>
</g>
</g>
<!-- ndType&#45;&gt;ndConst -->
<g id="edge25" class="edge"><title>ndType&#45;&gt;ndConst</title>
<path fill="none" stroke="black" d="M935.558,-249.241C947.945,-239.775 960.267,-227.536 967,-213 975.78,-194.046 977.758,-183.906 967,-166 963.426,-160.052 935.798,-145.369 909.127,-132.202"/>
<polygon fill="black" stroke="black" points="909.004,-132.142 901.857,-133.101 898.223,-126.872 905.37,-125.913 909.004,-132.142"/>
</g>
<!-- ndArraySize -->
<g id="node22" class="node"><title>ndArraySize</title>
<g id="a_node22_24"><a xlink:href="https://github.com/maidsafe/sn_bindgen/blob/master/src/csharp/intermediate.rs#:~:text=enum%20ArraySize" xlink:title="&lt;TABLE&gt;">
<polygon fill="yellow" stroke="none" points="853,-336.5 853,-373.5 943,-373.5 943,-336.5 853,-336.5"/>
<polygon fill="none" stroke="black" points="853,-336.5 853,-373.5 943,-373.5 943,-336.5 853,-336.5"/>
<text text-anchor="start" x="864" y="-352.3" font-family="Arial" font-weight="bold" font-size="14.00">ArraySize</text>
<polygon fill="none" stroke="black" points="852,-336 852,-375 944,-375 944,-336 852,-336"/>
</a>
</g>
</g>
<!-- ndArraySize&#45;&gt;ndType -->
<g id="edge27" class="edge"><title>ndArraySize&#45;&gt;ndType</title>
<path fill="none" stroke="black" d="M898,-331.937C898,-324.626 898,-316.337 898,-308.348"/>
<polygon fill="black" stroke="black" points="898,-308.223 894,-302.223 898,-296.223 902,-302.223 898,-308.223"/>
</g>
<!-- ndFunction&#45;&gt;ndLangCSharp -->
<g id="edge28" class="edge"><title>ndFunction&#45;&gt;ndLangCSharp</title>
<path fill="none" stroke="black" stroke-dasharray="5,2" d="M1061.54,-165.679C1056.58,-141.256 1044.98,-103.296 1019,-83 942.994,-23.6269 899.331,-67.0932 805,-47 801.452,-46.2443 797.831,-45.4403 794.18,-44.603"/>
<polygon fill="black" stroke="black" points="794.144,-44.5946 787.385,-47.1069 782.466,-41.8338 789.225,-39.3215 794.144,-44.5946"/>
</g>
<!-- ndFunction&#45;&gt;ndType -->
<g id="edge29" class="edge"><title>ndFunction&#45;&gt;ndType</title>
<path fill="none" stroke="black" d="M1024.5,-213.117C1001.02,-224.932 971.366,-239.289 946.634,-250.808"/>
<polygon fill="black" stroke="black" points="946.55,-250.847 942.782,-256.996 935.657,-255.882 939.425,-249.734 946.55,-250.847"/>
</g>
<!-- ndSnippet -->
<g id="node24" class="node"><title>ndSnippet</title>
<g id="a_node24_25"><a xlink:href="https://github.com/maidsafe/sn_bindgen/blob/master/src/csharp/intermediate.rs#:~:text=struct%20Snippet" xlink:title="&lt;TABLE&gt;">
<polygon fill="lightblue" stroke="none" points="925,-87.5 925,-124.5 1001,-124.5 1001,-87.5 925,-87.5"/>
<polygon fill="none" stroke="black" points="925,-87.5 925,-124.5 1001,-124.5 1001,-87.5 925,-87.5"/>
<text text-anchor="start" x="936" y="-103.3" font-family="Arial" font-weight="bold" font-size="14.00">Snippet</text>
<polygon fill="none" stroke="black" points="924,-87 924,-126 1002,-126 1002,-87 924,-87"/>
</a>
</g>
</g>
<!-- ndSnippet&#45;&gt;ndLangCSharp -->
<g id="edge30" class="edge"><title>ndSnippet&#45;&gt;ndLangCSharp</title>
<path fill="none" stroke="black" d="M915.747,-86.1985C912.797,-85.0914 909.863,-84.0165 907,-83 870.227,-69.946 828.871,-56.9574 794.242,-46.547"/>
<polygon fill="black" stroke="black" points="793.79,-46.412 786.896,-48.5267 782.292,-42.9763 789.186,-40.8616 793.79,-46.412"/>
</g>
<!-- ndConst&#45;&gt;ndLangJava -->
<g id="edge31" class="edge"><title>ndConst&#45;&gt;ndLangJava</title>
<path fill="none" stroke="black" stroke-dasharray="5,2" d="M815.903,-94.6137C800.874,-90.764 783.707,-86.5194 768,-83 687.738,-65.0167 594.659,-47.2956 533.949,-36.1535"/>
<polygon fill="black" stroke="black" points="523.747,-34.2871 534.393,-31.6601 528.665,-35.1869 533.584,-36.0867 533.584,-36.0867 533.584,-36.0867 528.665,-35.1869 532.774,-40.5132 523.747,-34.2871 523.747,-34.2871"/>
</g>
<!-- ndConst&#45;&gt;ndLangC -->
<g id="edge32" class="edge"><title>ndConst&#45;&gt;ndLangC</title>
<path fill="none" stroke="black" stroke-dasharray="5,2" d="M857,-82.937C857,-75.0164 857,-65.9488 857,-57.3574"/>
<polygon fill="black" stroke="black" points="857,-47.2229 861.5,-57.2229 857,-52.2229 857,-57.2229 857,-57.2229 857,-57.2229 857,-52.2229 852.5,-57.223 857,-47.2229 857,-47.2229"/>
</g>
<!-- ndConst&#45;&gt;ndLangCSharp -->
<g id="edge33" class="edge"><title>ndConst&#45;&gt;ndLangCSharp</title>
<path fill="none" stroke="black" stroke-dasharray="5,2" d="M818.281,-82.937C802.598,-73.7979 784.294,-63.1317 767.648,-53.4318"/>
<polygon fill="black" stroke="black" points="767.362,-53.2648 760.164,-53.6999 756.994,-47.2229 764.192,-46.7879 767.362,-53.2648"/>
</g>
<!-- ndConstValue -->
<g id="node26" class="node"><title>ndConstValue</title>
<g id="a_node26_26"><a xlink:href="https://github.com/maidsafe/sn_bindgen/blob/master/src/csharp/intermediate.rs#:~:text=enum%20ConstValue" xlink:title="&lt;TABLE&gt;">
<polygon fill="yellow" stroke="none" points="847,-170.5 847,-207.5 949,-207.5 949,-170.5 847,-170.5"/>
<polygon fill="none" stroke="black" points="847,-170.5 847,-207.5 949,-207.5 949,-170.5 847,-170.5"/>
<text text-anchor="start" x="858" y="-186.3" font-family="Arial" font-weight="bold" font-size="14.00">ConstValue</text>
<polygon fill="none" stroke="black" points="846,-170 846,-209 950,-209 950,-170 846,-170"/>
</a>
</g>
</g>
<!-- ndConstValue&#45;&gt;ndConst -->
<g id="edge34" class="edge"><title>ndConstValue&#45;&gt;ndConst</title>
<path fill="none" stroke="black" d="M886.579,-165.937C882.702,-158.278 878.282,-149.545 874.062,-141.209"/>
<polygon fill="black" stroke="black" points="873.921,-140.93 867.643,-137.383 868.502,-130.223 874.78,-133.77 873.921,-140.93"/>
</g>
<!-- ndStruct&#45;&gt;ndLangJava -->
<g id="edge35" class="edge"><title>ndStruct&#45;&gt;ndLangJava</title>
<path fill="none" stroke="black" stroke-dasharray="5,2" d="M676.429,-86.6403C673.258,-85.3611 670.089,-84.1325 667,-83 623.1,-66.9063 572.53,-52.0246 533.485,-41.2984"/>
<polygon fill="black" stroke="black" points="523.817,-38.6627 534.649,-36.9517 528.641,-39.978 533.465,-41.2932 533.465,-41.2932 533.465,-41.2932 528.641,-39.978 532.281,-45.6347 523.817,-38.6627 523.817,-38.6627"/>
</g>
<!-- ndStruct&#45;&gt;ndLangC -->
<g id="edge36" class="edge"><title>ndStruct&#45;&gt;ndLangC</title>
<path fill="none" stroke="black" stroke-dasharray="5,2" d="M756.719,-82.937C773,-73.4497 792.105,-62.3168 809.246,-52.3276"/>
<polygon fill="black" stroke="black" points="818.006,-47.2229 811.632,-56.1459 813.686,-49.7404 809.366,-52.2578 809.366,-52.2578 809.366,-52.2578 813.686,-49.7404 807.101,-48.3698 818.006,-47.2229 818.006,-47.2229"/>
</g>
<!-- ndStruct&#45;&gt;ndLangCSharp -->
<g id="edge37" class="edge"><title>ndStruct&#45;&gt;ndLangCSharp</title>
<path fill="none" stroke="black" stroke-dasharray="5,2" d="M718,-82.937C718,-75.6257 718,-67.3371 718,-59.3477"/>
<polygon fill="black" stroke="black" points="718,-59.2229 714,-53.223 718,-47.2229 722,-53.2229 718,-59.2229"/>
</g>
<!-- ndEnum -->
<g id="node28" class="node"><title>ndEnum</title>
<g id="a_node28_27"><a xlink:href="https://github.com/maidsafe/sn_bindgen/blob/master/src/csharp/intermediate.rs#:~:text=struct%20Enum" xlink:title="&lt;TABLE&gt;">
<polygon fill="lightblue" stroke="none" points="587,-87.5 587,-124.5 650,-124.5 650,-87.5 587,-87.5"/>
<polygon fill="none" stroke="black" points="587,-87.5 587,-124.5 650,-124.5 650,-87.5 587,-87.5"/>
<text text-anchor="start" x="598" y="-103.3" font-family="Arial" font-weight="bold" font-size="14.00">Enum</text>
<polygon fill="none" stroke="black" points="585.5,-87 585.5,-126 650.5,-126 650.5,-87 585.5,-87"/>
</a>
</g>
</g>
<!-- ndEnum&#45;&gt;ndLangJava -->
<g id="edge38" class="edge"><title>ndEnum&#45;&gt;ndLangJava</title>
<path fill="none" stroke="black" stroke-dasharray="5,2" d="M577.285,-83.3664C559.44,-73.6652 538.313,-62.1802 519.48,-51.942"/>
<polygon fill="black" stroke="black" points="510.443,-47.0294 521.378,-47.852 514.836,-49.4175 519.229,-51.8056 519.229,-51.8056 519.229,-51.8056 514.836,-49.4175 517.079,-55.7591 510.443,-47.0294 510.443,-47.0294"/>
</g>
<!-- ndEnum&#45;&gt;ndLangC -->
<g id="edge39" class="edge"><title>ndEnum&#45;&gt;ndLangC</title>
<path fill="none" stroke="black" stroke-dasharray="5,2" d="M658.716,-86.2569C661.501,-85.1102 664.281,-84.0128 667,-83 720.778,-62.9717 736.271,-64.2632 791,-47 795.272,-45.6526 799.687,-44.2246 804.116,-42.7676"/>
<polygon fill="black" stroke="black" points="813.781,-39.5513 805.714,-46.9786 809.037,-41.1301 804.293,-42.7088 804.293,-42.7088 804.293,-42.7088 809.037,-41.1301 802.872,-38.439 813.781,-39.5513 813.781,-39.5513"/>
</g>
<!-- ndEnum&#45;&gt;ndLangCSharp -->
<g id="edge40" class="edge"><title>ndEnum&#45;&gt;ndLangCSharp</title>
<path fill="none" stroke="black" stroke-dasharray="5,2" d="M645.856,-82.937C656.601,-74.2331 669.057,-64.144 680.563,-54.8238"/>
<polygon fill="black" stroke="black" points="680.622,-54.776 682.767,-47.8912 689.947,-47.2229 687.802,-54.1078 680.622,-54.776"/>
</g>
<!-- ndEnumVariant -->
<g id="node29" class="node"><title>ndEnumVariant</title>
<g id="a_node29_28"><a xlink:href="https://github.com/maidsafe/sn_bindgen/blob/master/src/csharp/intermediate.rs#:~:text=struct%20EnumVariant" xlink:title="&lt;TABLE&gt;">
<polygon fill="lightblue" stroke="none" points="527,-170.5 527,-207.5 639,-207.5 639,-170.5 527,-170.5"/>
<polygon fill="none" stroke="black" points="527,-170.5 527,-207.5 639,-207.5 639,-170.5 527,-170.5"/>
<text text-anchor="start" x="538" y="-186.3" font-family="Arial" font-weight="bold" font-size="14.00">EnumVariant</text>
<polygon fill="none" stroke="black" points="526,-170 526,-209 640,-209 640,-170 526,-170"/>
</a>
</g>
</g>
<!-- ndEnumVariant&#45;&gt;ndEnum -->
<g id="edge41" class="edge"><title>ndEnumVariant&#45;&gt;ndEnum</title>
<path fill="none" stroke="black" d="M592.749,-165.937C596.021,-158.365 599.747,-149.744 603.312,-141.493"/>
<polygon fill="black" stroke="black" points="603.422,-141.239 602.13,-134.144 608.181,-130.223 609.473,-137.317 603.422,-141.239"/>
</g>
</g>
</svg>
