<?xml version="1.0" encoding="UTF-8" standalone="no"?>
<!DOCTYPE svg PUBLIC "-//W3C//DTD SVG 1.1//EN"
 "http://www.w3.org/Graphics/SVG/1.1/DTD/svg11.dtd">
<!-- Generated by graphviz version 2.38.0 (20140413.2041)
 -->
<!-- Title: ml Pages: 1 -->
<svg width="5760pt" height="579pt"
 viewBox="0.00 0.00 5759.50 579.00" xmlns="http://www.w3.org/2000/svg" xmlns:xlink="http://www.w3.org/1999/xlink">
<g id="graph0" class="graph" transform="scale(1 1) rotate(0) translate(4 575)">
<title>ml</title>
<polygon fill="white" stroke="none" points="-4,4 -4,-575 5755.5,-575 5755.5,4 -4,4"/>
<!-- ndCmdArgs -->
<g id="node1" class="node"><title>ndCmdArgs</title>
<text text-anchor="middle" x="305.5" y="-146.8" font-family="Times,serif" font-size="14.00">ndCmdArgs</text>
</g>
<!-- ndSafeIdSubCommands -->
<g id="node2" class="node"><title>ndSafeIdSubCommands</title>
<g id="a_node2_0"><a xlink:href="https://github.com/maidsafe/safe_network/blob/master/src/subcommands/safe_id.rs#:~:text=enum%20SafeIdSubCommands" xlink:title="&lt;TABLE&gt;">
<polygon fill="yellow" stroke="none" points="619.5,-461 619.5,-498 792.5,-498 792.5,-461 619.5,-461"/>
<polygon fill="none" stroke="black" points="619.5,-461 619.5,-498 792.5,-498 792.5,-461 619.5,-461"/>
<text text-anchor="start" x="630.5" y="-476.8" font-family="Arial" font-weight="bold" font-size="14.00">SafeIdSubCommands</text>
<polygon fill="white" stroke="none" points="619.5,-409 619.5,-461 792.5,-461 792.5,-409 619.5,-409"/>
<polygon fill="none" stroke="black" points="619.5,-409 619.5,-461 792.5,-461 792.5,-409 619.5,-409"/>
<text text-anchor="start" x="630.5" y="-438.8" font-family="Arial" font-size="14.00">Create</text>
<text text-anchor="start" x="630.5" y="-423.8" font-family="Arial" font-size="14.00">Update</text>
<polygon fill="none" stroke="black" points="618,-408.5 618,-499.5 793,-499.5 793,-408.5 618,-408.5"/>
</a>
</g>
</g>
<!-- ndNrsSubCommands -->
<g id="node3" class="node"><title>ndNrsSubCommands</title>
<g id="a_node3_1"><a xlink:href="https://github.com/maidsafe/safe_network/blob/master/src/subcommands/nrs.rs#:~:text=enum%20NrsSubCommands" xlink:title="&lt;TABLE&gt;">
<polygon fill="yellow" stroke="none" points="828.5,-469 828.5,-506 982.5,-506 982.5,-469 828.5,-469"/>
<polygon fill="none" stroke="black" points="828.5,-469 828.5,-506 982.5,-506 982.5,-469 828.5,-469"/>
<text text-anchor="start" x="839.5" y="-484.8" font-family="Arial" font-weight="bold" font-size="14.00">NrsSubCommands</text>
<polygon fill="white" stroke="none" points="828.5,-402 828.5,-469 982.5,-469 982.5,-402 828.5,-402"/>
<polygon fill="none" stroke="black" points="828.5,-402 828.5,-469 982.5,-469 982.5,-402 828.5,-402"/>
<text text-anchor="start" x="839.5" y="-446.8" font-family="Arial" font-size="14.00">Add</text>
<text text-anchor="start" x="839.5" y="-431.8" font-family="Arial" font-size="14.00">Create</text>
<text text-anchor="start" x="839.5" y="-416.8" font-family="Arial" font-size="14.00">Remove</text>
<polygon fill="none" stroke="black" points="827.5,-401 827.5,-507 983.5,-507 983.5,-401 827.5,-401"/>
</a>
</g>
</g>
<!-- ndNetworksSubCommands -->
<g id="node4" class="node"><title>ndNetworksSubCommands</title>
<g id="a_node4_2"><a xlink:href="https://github.com/maidsafe/safe_network/blob/master/src/subcommands/networks.rs#:~:text=enum%20NetworksSubCommands" xlink:title="&lt;TABLE&gt;">
<polygon fill="yellow" stroke="none" points="1019.5,-484 1019.5,-521 1214.5,-521 1214.5,-484 1019.5,-484"/>
<polygon fill="none" stroke="black" points="1019.5,-484 1019.5,-521 1214.5,-521 1214.5,-484 1019.5,-484"/>
<text text-anchor="start" x="1030.5" y="-499.8" font-family="Arial" font-weight="bold" font-size="14.00">NetworksSubCommands</text>
<polygon fill="white" stroke="none" points="1019.5,-387 1019.5,-484 1214.5,-484 1214.5,-387 1019.5,-387"/>
<polygon fill="none" stroke="black" points="1019.5,-387 1019.5,-484 1214.5,-484 1214.5,-387 1019.5,-387"/>
<text text-anchor="start" x="1030.5" y="-461.8" font-family="Arial" font-size="14.00">Switch</text>
<text text-anchor="start" x="1030.5" y="-446.8" font-family="Arial" font-size="14.00">Check</text>
<text text-anchor="start" x="1030.5" y="-431.8" font-family="Arial" font-size="14.00">Add</text>
<text text-anchor="start" x="1030.5" y="-416.8" font-family="Arial" font-size="14.00">Set</text>
<text text-anchor="start" x="1030.5" y="-401.8" font-family="Arial" font-size="14.00">Remove</text>
<polygon fill="none" stroke="black" points="1018,-386 1018,-522 1215,-522 1215,-386 1018,-386"/>
</a>
</g>
</g>
<!-- ndNodeSubCommands -->
<g id="node5" class="node"><title>ndNodeSubCommands</title>
<g id="a_node5_3"><a xlink:href="https://github.com/maidsafe/safe_network/blob/master/src/subcommands/node.rs#:~:text=enum%20NodeSubCommands" xlink:title="&lt;TABLE&gt;">
<polygon fill="yellow" stroke="none" points="1250.5,-491 1250.5,-528 1416.5,-528 1416.5,-491 1250.5,-491"/>
<polygon fill="none" stroke="black" points="1250.5,-491 1250.5,-528 1416.5,-528 1416.5,-491 1250.5,-491"/>
<text text-anchor="start" x="1261.5" y="-506.8" font-family="Arial" font-weight="bold" font-size="14.00">NodeSubCommands</text>
<polygon fill="white" stroke="none" points="1250.5,-379 1250.5,-491 1416.5,-491 1416.5,-379 1250.5,-379"/>
<polygon fill="none" stroke="black" points="1250.5,-379 1250.5,-491 1416.5,-491 1416.5,-379 1250.5,-379"/>
<text text-anchor="start" x="1261.5" y="-468.8" font-family="Arial" font-size="14.00">BinVersion</text>
<text text-anchor="start" x="1261.5" y="-453.8" font-family="Arial" font-size="14.00">Install</text>
<text text-anchor="start" x="1261.5" y="-438.8" font-family="Arial" font-size="14.00">Join</text>
<text text-anchor="start" x="1261.5" y="-423.8" font-family="Arial" font-size="14.00">Run</text>
<text text-anchor="start" x="1261.5" y="-408.8" font-family="Arial" font-size="14.00">Killall</text>
<text text-anchor="start" x="1261.5" y="-393.8" font-family="Arial" font-size="14.00">Update</text>
<polygon fill="none" stroke="black" points="1249.5,-378.5 1249.5,-529.5 1417.5,-529.5 1417.5,-378.5 1249.5,-378.5"/>
</a>
</g>
</g>
<!-- ndOutputFmt -->
<g id="node6" class="node"><title>ndOutputFmt</title>
<g id="a_node6_4"><a xlink:href="https://github.com/maidsafe/safe_network/blob/master/src/subcommands/mod.rs#:~:text=enum%20OutputFmt" xlink:title="&lt;TABLE&gt;">
<polygon fill="yellow" stroke="none" points="9.5,-495 9.5,-532 298.5,-532 298.5,-495 9.5,-495"/>
<polygon fill="none" stroke="black" points="9.5,-495 9.5,-532 298.5,-532 298.5,-495 9.5,-495"/>
<text text-anchor="start" x="117" y="-510.8" font-family="Arial" font-weight="bold" font-size="14.00">OutputFmt</text>
<polygon fill="white" stroke="none" points="9.5,-413 9.5,-495 298.5,-495 298.5,-413 9.5,-413"/>
<polygon fill="none" stroke="black" points="9.5,-413 9.5,-495 298.5,-495 298.5,-413 9.5,-413"/>
<text text-anchor="start" x="20.5" y="-472.8" font-family="Arial" font-size="14.00">Pretty</text>
<text text-anchor="start" x="20.5" y="-457.8" font-family="Arial" font-size="14.00">Json</text>
<text text-anchor="start" x="20.5" y="-442.8" font-family="Arial" font-size="14.00">JsonCompact</text>
<text text-anchor="start" x="20.5" y="-427.8" font-family="Arial" font-size="14.00">Yaml</text>
<polygon fill="white" stroke="none" points="9.5,-376 9.5,-413 298.5,-413 298.5,-376 9.5,-376"/>
<polygon fill="none" stroke="black" points="9.5,-376 9.5,-413 298.5,-413 298.5,-376 9.5,-376"/>
<text text-anchor="start" x="20.5" y="-390.8" font-family="Arial" font-size="14.00">&#45; from_str(str: &amp;str) &#45;&gt; Result&lt;Self, String&gt;</text>
<polygon fill="none" stroke="black" points="8,-375 8,-533 299,-533 299,-375 8,-375"/>
</a>
</g>
</g>
<!-- ndOutputFmt&#45;&gt;ndCmdArgs -->
<g id="edge1" class="edge"><title>ndOutputFmt&#45;&gt;ndCmdArgs</title>
<path fill="none" stroke="black" d="M195.035,-370.614C227.161,-306.89 269.711,-222.488 291.433,-179.403"/>
<polygon fill="black" stroke="black" points="291.456,-179.357 290.585,-172.199 296.858,-168.642 297.729,-175.8 291.456,-179.357"/>
</g>
<!-- ndSubCommands -->
<g id="node7" class="node"><title>ndSubCommands</title>
<g id="a_node7_5"><a xlink:href="https://github.com/maidsafe/safe_network/blob/master/src/subcommands/mod.rs#:~:text=enum%20SubCommands" xlink:title="&lt;TABLE&gt;">
<polygon fill="yellow" stroke="none" points="334.5,-529 334.5,-566 582.5,-566 582.5,-529 334.5,-529"/>
<polygon fill="none" stroke="black" points="334.5,-529 334.5,-566 582.5,-566 582.5,-529 334.5,-529"/>
<text text-anchor="start" x="404.5" y="-544.8" font-family="Arial" font-weight="bold" font-size="14.00">SubCommands</text>
<polygon fill="white" stroke="none" points="334.5,-342 334.5,-529 582.5,-529 582.5,-342 334.5,-342"/>
<polygon fill="none" stroke="black" points="334.5,-342 334.5,-529 582.5,-529 582.5,-342 334.5,-342"/>
<text text-anchor="start" x="345.5" y="-506.8" font-family="Arial" font-size="14.00">Config</text>
<text text-anchor="start" x="345.5" y="-491.8" font-family="Arial" font-size="14.00">Networks</text>
<text text-anchor="start" x="345.5" y="-476.8" font-family="Arial" font-size="14.00">Cat(cat::CatCommands)</text>
<text text-anchor="start" x="345.5" y="-461.8" font-family="Arial" font-size="14.00">Dog(dog::DogCommands)</text>
<text text-anchor="start" x="345.5" y="-446.8" font-family="Arial" font-size="14.00">Files(files::FilesSubCommands)</text>
<text text-anchor="start" x="345.5" y="-431.8" font-family="Arial" font-size="14.00">Setup(setup::SetupSubCommands)</text>
<text text-anchor="start" x="345.5" y="-416.8" font-family="Arial" font-size="14.00">Nrs(nrs::NrsSubCommands)</text>
<text text-anchor="start" x="345.5" y="-401.8" font-family="Arial" font-size="14.00">Keys(keys::KeysSubCommands)</text>
<text text-anchor="start" x="345.5" y="-386.8" font-family="Arial" font-size="14.00">Xorurl</text>
<text text-anchor="start" x="345.5" y="-371.8" font-family="Arial" font-size="14.00">Update</text>
<text text-anchor="start" x="345.5" y="-356.8" font-family="Arial" font-size="14.00">Node</text>
<polygon fill="none" stroke="black" points="333.5,-341 333.5,-567 583.5,-567 583.5,-341 333.5,-341"/>
</a>
</g>
</g>
<!-- ndSubCommands&#45;&gt;ndCmdArgs -->
<g id="edge2" class="edge"><title>ndSubCommands&#45;&gt;ndCmdArgs</title>
<path fill="none" stroke="black" d="M399.565,-336.863C370.523,-279.633 337.91,-215.366 319.725,-179.531"/>
<polygon fill="black" stroke="black" points="319.567,-179.22 313.285,-175.68 314.137,-168.519 320.419,-172.06 319.567,-179.22"/>
</g>
<!-- ndCatCommands -->
<g id="node8" class="node"><title>ndCatCommands</title>
<text text-anchor="middle" x="1499.5" y="-450.3" font-family="Times,serif" font-size="14.00">ndCatCommands</text>
</g>
<!-- ndDogCommands -->
<g id="node9" class="node"><title>ndDogCommands</title>
<text text-anchor="middle" x="1631.5" y="-450.3" font-family="Times,serif" font-size="14.00">ndDogCommands</text>
</g>
<!-- ndXorurlSubCommands -->
<g id="node10" class="node"><title>ndXorurlSubCommands</title>
<g id="a_node10_6"><a xlink:href="https://github.com/maidsafe/safe_network/blob/master/src/subcommands/xorurl.rs#:~:text=enum%20XorurlSubCommands" xlink:title="&lt;TABLE&gt;">
<polygon fill="yellow" stroke="none" points="1717.5,-461 1717.5,-498 1890.5,-498 1890.5,-461 1717.5,-461"/>
<polygon fill="none" stroke="black" points="1717.5,-461 1717.5,-498 1890.5,-498 1890.5,-461 1717.5,-461"/>
<text text-anchor="start" x="1728.5" y="-476.8" font-family="Arial" font-weight="bold" font-size="14.00">XorurlSubCommands</text>
<polygon fill="white" stroke="none" points="1717.5,-409 1717.5,-461 1890.5,-461 1890.5,-409 1717.5,-409"/>
<polygon fill="none" stroke="black" points="1717.5,-409 1717.5,-461 1890.5,-461 1890.5,-409 1717.5,-409"/>
<text text-anchor="start" x="1728.5" y="-438.8" font-family="Arial" font-size="14.00">Decode</text>
<text text-anchor="start" x="1728.5" y="-423.8" font-family="Arial" font-size="14.00">Pk</text>
<polygon fill="none" stroke="black" points="1716,-408.5 1716,-499.5 1891,-499.5 1891,-408.5 1716,-408.5"/>
</a>
</g>
</g>
<!-- ndFileTreeNodeType -->
<g id="node11" class="node"><title>ndFileTreeNodeType</title>
<g id="a_node11_7"><a xlink:href="https://github.com/maidsafe/safe_network/blob/master/src/subcommands/files.rs#:~:text=enum%20FileTreeNodeType" xlink:title="&lt;TABLE&gt;">
<polygon fill="yellow" stroke="none" points="1926.5,-469 1926.5,-506 2075.5,-506 2075.5,-469 1926.5,-469"/>
<polygon fill="none" stroke="black" points="1926.5,-469 1926.5,-506 2075.5,-506 2075.5,-469 1926.5,-469"/>
<text text-anchor="start" x="1937.5" y="-484.8" font-family="Arial" font-weight="bold" font-size="14.00">FileTreeNodeType</text>
<polygon fill="white" stroke="none" points="1926.5,-402 1926.5,-469 2075.5,-469 2075.5,-402 1926.5,-402"/>
<polygon fill="none" stroke="black" points="1926.5,-402 1926.5,-469 2075.5,-469 2075.5,-402 1926.5,-402"/>
<text text-anchor="start" x="1937.5" y="-446.8" font-family="Arial" font-size="14.00">File</text>
<text text-anchor="start" x="1937.5" y="-431.8" font-family="Arial" font-size="14.00">Directory</text>
<text text-anchor="start" x="1937.5" y="-416.8" font-family="Arial" font-size="14.00">Symlink</text>
<polygon fill="none" stroke="black" points="1925,-401 1925,-507 2076,-507 2076,-401 1925,-401"/>
</a>
</g>
</g>
<!-- ndFileTreeNode -->
<g id="node12" class="node"><title>ndFileTreeNode</title>
<text text-anchor="middle" x="2000.5" y="-146.8" font-family="Times,serif" font-size="14.00">ndFileTreeNode</text>
</g>
<!-- ndFileTreeNodeType&#45;&gt;ndFileTreeNode -->
<g id="edge3" class="edge"><title>ndFileTreeNodeType&#45;&gt;ndFileTreeNode</title>
<path fill="none" stroke="black" stroke-dasharray="5,2" d="M2000.5,-396.997C2000.5,-332.903 2000.5,-230.382 2000.5,-180.563"/>
<polygon fill="black" stroke="black" points="2000.5,-180.535 1996.5,-174.535 2000.5,-168.535 2004.5,-174.535 2000.5,-180.535"/>
</g>
<!-- ndFilesSubCommands -->
<g id="node13" class="node"><title>ndFilesSubCommands</title>
<g id="a_node13_8"><a xlink:href="https://github.com/maidsafe/safe_network/blob/master/src/subcommands/files.rs#:~:text=enum%20FilesSubCommands" xlink:title="&lt;TABLE&gt;">
<polygon fill="yellow" stroke="none" points="2111.5,-499 2111.5,-536 2274.5,-536 2274.5,-499 2111.5,-499"/>
<polygon fill="none" stroke="black" points="2111.5,-499 2111.5,-536 2274.5,-536 2274.5,-499 2111.5,-499"/>
<text text-anchor="start" x="2122.5" y="-514.8" font-family="Arial" font-weight="bold" font-size="14.00">FilesSubCommands</text>
<polygon fill="white" stroke="none" points="2111.5,-372 2111.5,-499 2274.5,-499 2274.5,-372 2111.5,-372"/>
<polygon fill="none" stroke="black" points="2111.5,-372 2111.5,-499 2274.5,-499 2274.5,-372 2111.5,-372"/>
<text text-anchor="start" x="2122.5" y="-476.8" font-family="Arial" font-size="14.00">Put</text>
<text text-anchor="start" x="2122.5" y="-461.8" font-family="Arial" font-size="14.00">Get</text>
<text text-anchor="start" x="2122.5" y="-446.8" font-family="Arial" font-size="14.00">Sync</text>
<text text-anchor="start" x="2122.5" y="-431.8" font-family="Arial" font-size="14.00">Add</text>
<text text-anchor="start" x="2122.5" y="-416.8" font-family="Arial" font-size="14.00">Rm</text>
<text text-anchor="start" x="2122.5" y="-401.8" font-family="Arial" font-size="14.00">Ls</text>
<text text-anchor="start" x="2122.5" y="-386.8" font-family="Arial" font-size="14.00">Tree</text>
<polygon fill="none" stroke="black" points="2110,-371 2110,-537 2275,-537 2275,-371 2110,-371"/>
</a>
</g>
</g>
<!-- ndFilesGetStatus -->
<g id="node14" class="node"><title>ndFilesGetStatus</title>
<text text-anchor="middle" x="2355.5" y="-450.3" font-family="Times,serif" font-size="14.00">ndFilesGetStatus</text>
</g>
<!-- ndFileExistsAction -->
<g id="node15" class="node"><title>ndFileExistsAction</title>
<g id="a_node15_9"><a xlink:href="https://github.com/maidsafe/safe_network/blob/master/src/subcommands/files_get.rs#:~:text=enum%20FileExistsAction" xlink:title="&lt;TABLE&gt;">
<polygon fill="yellow" stroke="none" points="2437.5,-495 2437.5,-532 2726.5,-532 2726.5,-495 2437.5,-495"/>
<polygon fill="none" stroke="black" points="2437.5,-495 2437.5,-532 2726.5,-532 2726.5,-495 2437.5,-495"/>
<text text-anchor="start" x="2526" y="-510.8" font-family="Arial" font-weight="bold" font-size="14.00">FileExistsAction</text>
<polygon fill="white" stroke="none" points="2437.5,-428 2437.5,-495 2726.5,-495 2726.5,-428 2437.5,-428"/>
<polygon fill="none" stroke="black" points="2437.5,-428 2437.5,-495 2726.5,-495 2726.5,-428 2437.5,-428"/>
<text text-anchor="start" x="2448.5" y="-472.8" font-family="Arial" font-size="14.00">Overwrite</text>
<text text-anchor="start" x="2448.5" y="-457.8" font-family="Arial" font-size="14.00">Preserve</text>
<text text-anchor="start" x="2448.5" y="-442.8" font-family="Arial" font-size="14.00">Ask</text>
<polygon fill="white" stroke="none" points="2437.5,-376 2437.5,-428 2726.5,-428 2726.5,-376 2437.5,-376"/>
<polygon fill="none" stroke="black" points="2437.5,-376 2437.5,-428 2726.5,-428 2726.5,-376 2437.5,-376"/>
<text text-anchor="start" x="2448.5" y="-405.8" font-family="Arial" font-size="14.00">&#45; default() &#45;&gt; Self</text>
<text text-anchor="start" x="2448.5" y="-390.8" font-family="Arial" font-size="14.00">&#45; from_str(str: &amp;str) &#45;&gt; Result&lt;Self, String&gt;</text>
<polygon fill="none" stroke="black" points="2436,-375 2436,-533 2727,-533 2727,-375 2436,-375"/>
</a>
</g>
</g>
<!-- ndProgressIndicator -->
<g id="node16" class="node"><title>ndProgressIndicator</title>
<g id="a_node16_10"><a xlink:href="https://github.com/maidsafe/safe_network/blob/master/src/subcommands/files_get.rs#:~:text=enum%20ProgressIndicator" xlink:title="&lt;TABLE&gt;">
<polygon fill="yellow" stroke="none" points="2762.5,-495 2762.5,-532 3051.5,-532 3051.5,-495 2762.5,-495"/>
<polygon fill="none" stroke="black" points="2762.5,-495 2762.5,-532 3051.5,-532 3051.5,-495 2762.5,-495"/>
<text text-anchor="start" x="2843.5" y="-510.8" font-family="Arial" font-weight="bold" font-size="14.00">ProgressIndicator</text>
<polygon fill="white" stroke="none" points="2762.5,-428 2762.5,-495 3051.5,-495 3051.5,-428 2762.5,-428"/>
<polygon fill="none" stroke="black" points="2762.5,-428 2762.5,-495 3051.5,-495 3051.5,-428 2762.5,-428"/>
<text text-anchor="start" x="2773.5" y="-472.8" font-family="Arial" font-size="14.00">Bars</text>
<text text-anchor="start" x="2773.5" y="-457.8" font-family="Arial" font-size="14.00">Text</text>
<text text-anchor="start" x="2773.5" y="-442.8" font-family="Arial" font-size="14.00">None</text>
<polygon fill="white" stroke="none" points="2762.5,-376 2762.5,-428 3051.5,-428 3051.5,-376 2762.5,-376"/>
<polygon fill="none" stroke="black" points="2762.5,-376 2762.5,-428 3051.5,-428 3051.5,-376 2762.5,-376"/>
<text text-anchor="start" x="2773.5" y="-405.8" font-family="Arial" font-size="14.00">&#45; from_str(str: &amp;str) &#45;&gt; Result&lt;Self, String&gt;</text>
<text text-anchor="start" x="2773.5" y="-390.8" font-family="Arial" font-size="14.00">&#45; default() &#45;&gt; Self</text>
<polygon fill="none" stroke="black" points="2761,-375 2761,-533 3052,-533 3052,-375 2761,-375"/>
</a>
</g>
</g>
<!-- ndKeysSubCommands -->
<g id="node17" class="node"><title>ndKeysSubCommands</title>
<g id="a_node17_11"><a xlink:href="https://github.com/maidsafe/safe_network/blob/master/src/subcommands/keys.rs#:~:text=enum%20KeysSubCommands" xlink:title="&lt;TABLE&gt;">
<polygon fill="yellow" stroke="none" points="3087.5,-461 3087.5,-498 3252.5,-498 3252.5,-461 3087.5,-461"/>
<polygon fill="none" stroke="black" points="3087.5,-461 3087.5,-498 3252.5,-498 3252.5,-461 3087.5,-461"/>
<text text-anchor="start" x="3098.5" y="-476.8" font-family="Arial" font-weight="bold" font-size="14.00">KeysSubCommands</text>
<polygon fill="white" stroke="none" points="3087.5,-409 3087.5,-461 3252.5,-461 3252.5,-409 3087.5,-409"/>
<polygon fill="none" stroke="black" points="3087.5,-409 3087.5,-461 3252.5,-461 3252.5,-409 3087.5,-409"/>
<text text-anchor="start" x="3098.5" y="-438.8" font-family="Arial" font-size="14.00">Show</text>
<text text-anchor="start" x="3098.5" y="-423.8" font-family="Arial" font-size="14.00">Create</text>
<polygon fill="none" stroke="black" points="3086,-408.5 3086,-499.5 3253,-499.5 3253,-408.5 3086,-408.5"/>
</a>
</g>
</g>
<!-- ndConfigSubCommands -->
<g id="node18" class="node"><title>ndConfigSubCommands</title>
<g id="a_node18_12"><a xlink:href="https://github.com/maidsafe/safe_network/blob/master/src/subcommands/config.rs#:~:text=enum%20ConfigSubCommands" xlink:title="&lt;TABLE&gt;">
<polygon fill="yellow" stroke="none" points="3336.5,-165.5 3336.5,-202.5 3551.5,-202.5 3551.5,-165.5 3336.5,-165.5"/>
<polygon fill="none" stroke="black" points="3336.5,-165.5 3336.5,-202.5 3551.5,-202.5 3551.5,-165.5 3336.5,-165.5"/>
<text text-anchor="start" x="3367" y="-181.3" font-family="Arial" font-weight="bold" font-size="14.00">ConfigSubCommands</text>
<polygon fill="white" stroke="none" points="3336.5,-98.5 3336.5,-165.5 3551.5,-165.5 3551.5,-98.5 3336.5,-98.5"/>
<polygon fill="none" stroke="black" points="3336.5,-98.5 3336.5,-165.5 3551.5,-165.5 3551.5,-98.5 3336.5,-98.5"/>
<text text-anchor="start" x="3347.5" y="-143.3" font-family="Arial" font-size="14.00">Add(SettingAddCmd)</text>
<text text-anchor="start" x="3347.5" y="-128.3" font-family="Arial" font-size="14.00">Remove(SettingRemoveCmd)</text>
<text text-anchor="start" x="3347.5" y="-113.3" font-family="Arial" font-size="14.00">Clear</text>
<polygon fill="none" stroke="black" points="3335,-97.5 3335,-203.5 3552,-203.5 3552,-97.5 3335,-97.5"/>
</a>
</g>
</g>
<!-- ndSettingAddCmd -->
<g id="node19" class="node"><title>ndSettingAddCmd</title>
<g id="a_node19_13"><a xlink:href="https://github.com/maidsafe/safe_network/blob/master/src/subcommands/config.rs#:~:text=enum%20SettingAddCmd" xlink:title="&lt;TABLE&gt;">
<polygon fill="yellow" stroke="none" points="3288.5,-454 3288.5,-491 3419.5,-491 3419.5,-454 3288.5,-454"/>
<polygon fill="none" stroke="black" points="3288.5,-454 3288.5,-491 3419.5,-491 3419.5,-454 3288.5,-454"/>
<text text-anchor="start" x="3299.5" y="-469.8" font-family="Arial" font-weight="bold" font-size="14.00">SettingAddCmd</text>
<polygon fill="white" stroke="none" points="3288.5,-417 3288.5,-454 3419.5,-454 3419.5,-417 3288.5,-417"/>
<polygon fill="none" stroke="black" points="3288.5,-417 3288.5,-454 3419.5,-454 3419.5,-417 3288.5,-417"/>
<text text-anchor="start" x="3299.5" y="-431.8" font-family="Arial" font-size="14.00">Network</text>
<polygon fill="none" stroke="black" points="3287,-416 3287,-492 3420,-492 3420,-416 3287,-416"/>
</a>
</g>
</g>
<!-- ndSettingAddCmd&#45;&gt;ndConfigSubCommands -->
<g id="edge4" class="edge"><title>ndSettingAddCmd&#45;&gt;ndConfigSubCommands</title>
<path fill="none" stroke="black" d="M3365.83,-411.71C3380.6,-362.221 3405.56,-278.585 3423.2,-219.509"/>
<polygon fill="black" stroke="black" points="3423.3,-219.167 3421.18,-212.274 3426.73,-207.669 3428.85,-214.562 3423.3,-219.167"/>
</g>
<!-- ndSettingRemoveCmd -->
<g id="node20" class="node"><title>ndSettingRemoveCmd</title>
<g id="a_node20_14"><a xlink:href="https://github.com/maidsafe/safe_network/blob/master/src/subcommands/config.rs#:~:text=enum%20SettingRemoveCmd" xlink:title="&lt;TABLE&gt;">
<polygon fill="yellow" stroke="none" points="3454.5,-454 3454.5,-491 3614.5,-491 3614.5,-454 3454.5,-454"/>
<polygon fill="none" stroke="black" points="3454.5,-454 3454.5,-491 3614.5,-491 3614.5,-454 3454.5,-454"/>
<text text-anchor="start" x="3465.5" y="-469.8" font-family="Arial" font-weight="bold" font-size="14.00">SettingRemoveCmd</text>
<polygon fill="white" stroke="none" points="3454.5,-417 3454.5,-454 3614.5,-454 3614.5,-417 3454.5,-417"/>
<polygon fill="none" stroke="black" points="3454.5,-417 3454.5,-454 3614.5,-454 3614.5,-417 3454.5,-417"/>
<text text-anchor="start" x="3465.5" y="-431.8" font-family="Arial" font-size="14.00">Network</text>
<polygon fill="none" stroke="black" points="3453.5,-416 3453.5,-492 3615.5,-492 3615.5,-416 3453.5,-416"/>
</a>
</g>
</g>
<!-- ndSettingRemoveCmd&#45;&gt;ndConfigSubCommands -->
<g id="edge5" class="edge"><title>ndSettingRemoveCmd&#45;&gt;ndConfigSubCommands</title>
<path fill="none" stroke="black" d="M3522.04,-411.71C3507.1,-362.221 3481.86,-278.585 3464.03,-219.509"/>
<polygon fill="black" stroke="black" points="3463.92,-219.157 3458.36,-214.568 3460.45,-207.669 3466.02,-212.257 3463.92,-219.157"/>
</g>
<!-- ndSetupSubCommands -->
<g id="node21" class="node"><title>ndSetupSubCommands</title>
<g id="a_node21_15"><a xlink:href="https://github.com/maidsafe/safe_network/blob/master/src/subcommands/setup.rs#:~:text=enum%20SetupSubCommands" xlink:title="&lt;TABLE&gt;">
<polygon fill="yellow" stroke="none" points="3650.5,-454 3650.5,-491 3820.5,-491 3820.5,-454 3650.5,-454"/>
<polygon fill="none" stroke="black" points="3650.5,-454 3650.5,-491 3820.5,-491 3820.5,-454 3650.5,-454"/>
<text text-anchor="start" x="3661.5" y="-469.8" font-family="Arial" font-weight="bold" font-size="14.00">SetupSubCommands</text>
<polygon fill="white" stroke="none" points="3650.5,-417 3650.5,-454 3820.5,-454 3820.5,-417 3650.5,-417"/>
<polygon fill="none" stroke="black" points="3650.5,-417 3650.5,-454 3820.5,-454 3820.5,-417 3650.5,-417"/>
<text text-anchor="start" x="3661.5" y="-431.8" font-family="Arial" font-size="14.00">Completions</text>
<polygon fill="none" stroke="black" points="3649.5,-416 3649.5,-492 3821.5,-492 3821.5,-416 3649.5,-416"/>
</a>
</g>
</g>
<!-- ndEnvironment -->
<g id="node22" class="node"><title>ndEnvironment</title>
<text text-anchor="middle" x="3898.5" y="-450.3" font-family="Times,serif" font-size="14.00">ndEnvironment</text>
</g>
<!-- ndSafeSeed -->
<g id="node23" class="node"><title>ndSafeSeed</title>
<g id="a_node23_16"><a xlink:href="https://github.com/maidsafe/safe_network/blob/master/src/operations/auth_daemon.rs#:~:text=struct%20SafeSeed" xlink:title="&lt;TABLE&gt;">
<polygon fill="lightblue" stroke="none" points="3976.5,-461 3976.5,-498 4476.5,-498 4476.5,-461 3976.5,-461"/>
<polygon fill="none" stroke="black" points="3976.5,-461 3976.5,-498 4476.5,-498 4476.5,-461 3976.5,-461"/>
<text text-anchor="start" x="3987.5" y="-476.8" font-family="Arial" font-weight="bold" font-size="14.00">struct SafeSeed { &#160;&#160;&#160;pub passphrase: String, &#160;&#160;&#160;pub password: String,}</text>
<polygon fill="white" stroke="none" points="3976.5,-409 3976.5,-461 4476.5,-461 4476.5,-409 3976.5,-409"/>
<polygon fill="none" stroke="black" points="3976.5,-409 3976.5,-461 4476.5,-461 4476.5,-409 3976.5,-409"/>
<text text-anchor="start" x="3987.5" y="-438.8" font-family="Arial" font-size="14.00">+ passphrase: String</text>
<text text-anchor="start" x="3987.5" y="-423.8" font-family="Arial" font-size="14.00">+ password: String</text>
<polygon fill="none" stroke="black" points="3975.5,-408.5 3975.5,-499.5 4477.5,-499.5 4477.5,-408.5 3975.5,-408.5"/>
</a>
</g>
</g>
<!-- ndNetworkLauncher -->
<g id="node24" class="node"><title>ndNetworkLauncher</title>
<g id="a_node24_17"><a xlink:href="https://github.com/maidsafe/safe_network/blob/master/src/operations/config.rs#:~:text=trait%20NetworkLauncher" xlink:title="&lt;TABLE&gt;">
<polygon fill="lightgreen" stroke="none" points="4513.5,-461 4513.5,-498 4902.5,-498 4902.5,-461 4513.5,-461"/>
<polygon fill="none" stroke="black" points="4513.5,-461 4513.5,-498 4902.5,-498 4902.5,-461 4513.5,-461"/>
<text text-anchor="start" x="4646" y="-476.8" font-family="Arial" font-weight="bold" font-size="14.00">NetworkLauncher</text>
<polygon fill="white" stroke="none" points="4513.5,-409 4513.5,-461 4902.5,-461 4902.5,-409 4513.5,-409"/>
<polygon fill="none" stroke="black" points="4513.5,-409 4513.5,-461 4902.5,-461 4902.5,-409 4513.5,-409"/>
<text text-anchor="start" x="4524.5" y="-438.8" font-family="Arial" font-size="14.00">launch(&amp;mut Self, Vec&lt;String&gt;, u64) &#45;&gt; Result&lt;(), Report&gt;</text>
<text text-anchor="start" x="4524.5" y="-423.8" font-family="Arial" font-size="14.00">join(&amp;mut Self, Vec&lt;String&gt;) &#45;&gt; Result&lt;(), Report&gt;</text>
<polygon fill="none" stroke="black" points="4512,-408.5 4512,-499.5 4903,-499.5 4903,-408.5 4512,-408.5"/>
</a>
</g>
</g>
<!-- ndSnLaunchToolNetworkLauncher -->
<g id="node25" class="node"><title>ndSnLaunchToolNetworkLauncher</title>
<g id="a_node25_18"><a xlink:href="https://github.com/maidsafe/safe_network/blob/master/src/operations/config.rs#:~:text=struct%20SnLaunchToolNetworkLauncher" xlink:title="&lt;TABLE&gt;">
<polygon fill="lightblue" stroke="none" points="4466.5,-157.5 4466.5,-194.5 4948.5,-194.5 4948.5,-157.5 4466.5,-157.5"/>
<polygon fill="none" stroke="black" points="4466.5,-157.5 4466.5,-194.5 4948.5,-194.5 4948.5,-157.5 4466.5,-157.5"/>
<text text-anchor="start" x="4549.5" y="-173.3" font-family="Arial" font-weight="bold" font-size="14.00">pub struct SnLaunchToolNetworkLauncher {}</text>
<polygon fill="white" stroke="none" points="4466.5,-105.5 4466.5,-157.5 4948.5,-157.5 4948.5,-105.5 4466.5,-105.5"/>
<polygon fill="none" stroke="black" points="4466.5,-105.5 4466.5,-157.5 4948.5,-157.5 4948.5,-105.5 4466.5,-105.5"/>
<text text-anchor="start" x="4477.5" y="-135.3" font-family="Arial" font-size="14.00">&#45; launch(&amp;mut self, args: Vec&lt;String&gt;, interval: u64) &#45;&gt; Result&lt;(), Report&gt;</text>
<text text-anchor="start" x="4477.5" y="-120.3" font-family="Arial" font-size="14.00">&#45; join(&amp;mut self, args: Vec&lt;String&gt;) &#45;&gt; Result&lt;(), Report&gt;</text>
<polygon fill="none" stroke="black" points="4465.5,-105 4465.5,-196 4949.5,-196 4949.5,-105 4465.5,-105"/>
</a>
</g>
</g>
<!-- ndNetworkLauncher&#45;&gt;ndSnLaunchToolNetworkLauncher -->
<g id="edge6" class="edge"><title>ndNetworkLauncher&#45;&gt;ndSnLaunchToolNetworkLauncher</title>
<path fill="none" stroke="black" stroke-dasharray="5,2" d="M4707.5,-404.224C4707.5,-351.349 4707.5,-266.968 4707.5,-210.426"/>
<polygon fill="none" stroke="black" points="4711,-210.206 4707.5,-200.206 4704,-210.206 4711,-210.206"/>
</g>
<!-- ndNetworkInfo -->
<g id="node26" class="node"><title>ndNetworkInfo</title>
<g id="a_node26_19"><a xlink:href="https://github.com/maidsafe/safe_network/blob/master/src/operations/config.rs#:~:text=enum%20NetworkInfo" xlink:title="&lt;TABLE&gt;">
<polygon fill="yellow" stroke="none" points="5185.5,-487 5185.5,-524 5541.5,-524 5541.5,-487 5185.5,-487"/>
<polygon fill="none" stroke="black" points="5185.5,-487 5185.5,-524 5541.5,-524 5541.5,-487 5185.5,-487"/>
<text text-anchor="start" x="5321.5" y="-502.8" font-family="Arial" font-weight="bold" font-size="14.00">NetworkInfo</text>
<polygon fill="white" stroke="none" points="5185.5,-435 5185.5,-487 5541.5,-487 5541.5,-435 5185.5,-435"/>
<polygon fill="none" stroke="black" points="5185.5,-435 5185.5,-487 5541.5,-487 5541.5,-435 5185.5,-435"/>
<text text-anchor="start" x="5196.5" y="-464.8" font-family="Arial" font-size="14.00">NodeConfig(NodeConfig)</text>
<text text-anchor="start" x="5196.5" y="-449.8" font-family="Arial" font-size="14.00">ConnInfoLocation(String)</text>
<polygon fill="white" stroke="none" points="5185.5,-383 5185.5,-435 5541.5,-435 5541.5,-383 5185.5,-383"/>
<polygon fill="none" stroke="black" points="5185.5,-383 5185.5,-435 5541.5,-435 5541.5,-383 5185.5,-383"/>
<text text-anchor="start" x="5196.5" y="-412.8" font-family="Arial" font-size="14.00">&#45; fmt(&amp;self, f: &amp;mut fmt::Formatter&lt;&#39;_&gt;) &#45;&gt; fmt::Result</text>
<text text-anchor="start" x="5196.5" y="-397.8" font-family="Arial" font-size="14.00">&#45; matches(&amp;self, node_config: &amp;NodeConfig) &#45;&gt; bool</text>
<polygon fill="none" stroke="black" points="5184.5,-382.5 5184.5,-525.5 5542.5,-525.5 5542.5,-382.5 5184.5,-382.5"/>
</a>
</g>
</g>
<!-- ndConfig -->
<g id="node28" class="node"><title>ndConfig</title>
<g id="a_node28_20"><a xlink:href="https://github.com/maidsafe/safe_network/blob/master/src/operations/config.rs#:~:text=struct%20Config" xlink:title="&lt;TABLE&gt;">
<polygon fill="lightblue" stroke="none" points="4984.5,-258.5 4984.5,-295.5 5742.5,-295.5 5742.5,-258.5 4984.5,-258.5"/>
<polygon fill="none" stroke="black" points="4984.5,-258.5 4984.5,-295.5 5742.5,-295.5 5742.5,-258.5 4984.5,-258.5"/>
<text text-anchor="start" x="4995.5" y="-274.3" font-family="Arial" font-weight="bold" font-size="14.00">pub struct Config { &#160;&#160;&#160;settings: Settings, &#160;&#160;&#160;pub cli_config_path: PathBuf, &#160;&#160;&#160;pub node_config_path: PathBuf,}</text>
<polygon fill="white" stroke="none" points="4984.5,-191.5 4984.5,-258.5 5742.5,-258.5 5742.5,-191.5 4984.5,-191.5"/>
<polygon fill="none" stroke="black" points="4984.5,-191.5 4984.5,-258.5 5742.5,-258.5 5742.5,-191.5 4984.5,-191.5"/>
<text text-anchor="start" x="4995.5" y="-236.3" font-family="Arial" font-size="14.00">&#45; settings: Settings</text>
<text text-anchor="start" x="4995.5" y="-221.3" font-family="Arial" font-size="14.00">+ cli_config_path: PathBuf</text>
<text text-anchor="start" x="4995.5" y="-206.3" font-family="Arial" font-size="14.00">+ node_config_path: PathBuf</text>
<polygon fill="white" stroke="none" points="4984.5,-4.5 4984.5,-191.5 5742.5,-191.5 5742.5,-4.5 4984.5,-4.5"/>
<polygon fill="none" stroke="black" points="4984.5,-4.5 4984.5,-191.5 5742.5,-191.5 5742.5,-4.5 4984.5,-4.5"/>
<text text-anchor="start" x="4995.5" y="-169.3" font-family="Arial" font-size="14.00">&#45; new(cli_config_path: PathBuf, node_config_path: PathBuf) &#45;&gt; Result&lt;Config&gt;</text>
<text text-anchor="start" x="4995.5" y="-154.3" font-family="Arial" font-size="14.00">&#45; read_current_node_config(&amp;self) &#45;&gt; Result&lt;(PathBuf, NodeConfig)&gt;</text>
<text text-anchor="start" x="4995.5" y="-139.3" font-family="Arial" font-size="14.00">&#45; get_network_info(&amp;self, name: &amp;str) &#45;&gt; Result&lt;NodeConfig&gt;</text>
<text text-anchor="start" x="4995.5" y="-124.3" font-family="Arial" font-size="14.00">&#45; networks_iter(&amp;self) &#45;&gt; impl Iterator&lt;Item = (&amp;String, &amp;NetworkInfo)&gt;</text>
<text text-anchor="start" x="4995.5" y="-109.3" font-family="Arial" font-size="14.00">&#45; add_network(&amp;mut self, name: &amp;str, net_info: Option&lt;NetworkInfo&gt;) &#45;&gt; Result&lt;NetworkInfo&gt;</text>
<text text-anchor="start" x="4995.5" y="-94.3" font-family="Arial" font-size="14.00">&#45; remove_network(&amp;mut self, name: &amp;str) &#45;&gt; Result&lt;()&gt;</text>
<text text-anchor="start" x="4995.5" y="-79.3" font-family="Arial" font-size="14.00">&#45; clear(&amp;mut self) &#45;&gt; Result&lt;()&gt;</text>
<text text-anchor="start" x="4995.5" y="-64.3" font-family="Arial" font-size="14.00">&#45; switch_to_network(&amp;self, name: &amp;str) &#45;&gt; Result&lt;()&gt;</text>
<text text-anchor="start" x="4995.5" y="-49.3" font-family="Arial" font-size="14.00">&#45; print_networks(&amp;self)</text>
<text text-anchor="start" x="4995.5" y="-34.3" font-family="Arial" font-size="14.00">&#45; cache_node_config(&amp;self, network_name: &amp;str, node_config: &amp;NodeConfig) &#45;&gt; Result&lt;PathBuf&gt;</text>
<text text-anchor="start" x="4995.5" y="-19.3" font-family="Arial" font-size="14.00">&#45; write_settings_to_file(&amp;self) &#45;&gt; Result&lt;()&gt;</text>
<polygon fill="none" stroke="black" points="4983.5,-4 4983.5,-297 5743.5,-297 5743.5,-4 4983.5,-4"/>
</a>
</g>
</g>
<!-- ndNetworkInfo&#45;&gt;ndConfig -->
<g id="edge7" class="edge"><title>ndNetworkInfo&#45;&gt;ndConfig</title>
<path fill="none" stroke="black" d="M5357.58,-378.472C5357.09,-357.873 5356.82,-334.698 5356.76,-311.231"/>
<polygon fill="black" stroke="black" points="5356.75,-301.163 5361.26,-311.158 5356.76,-306.163 5356.76,-311.163 5356.76,-311.163 5356.76,-311.163 5356.76,-306.163 5352.26,-311.168 5356.75,-301.163 5356.75,-301.163"/>
</g>
<!-- ndSettings -->
<g id="node27" class="node"><title>ndSettings</title>
<text text-anchor="middle" x="5605.5" y="-450.3" font-family="Times,serif" font-size="14.00">ndSettings</text>
</g>
<!-- ndSettings&#45;&gt;ndConfig -->
<g id="edge8" class="edge"><title>ndSettings&#45;&gt;ndConfig</title>
<path fill="none" stroke="black" d="M5601.2,-435.749C5594.76,-412.05 5581,-368.752 5559.5,-337 5553.42,-328.026 5546.84,-319.159 5539.9,-310.453"/>
<polygon fill="black" stroke="black" points="5539.83,-310.364 5532.94,-308.249 5532.24,-301.072 5539.13,-303.187 5539.83,-310.364"/>
</g>
<!-- ndConfig&#45;&gt;ndNetworkInfo -->
<g id="edge9" class="edge"><title>ndConfig&#45;&gt;ndNetworkInfo</title>
<path fill="none" stroke="black" stroke-dasharray="5,2" d="M5370.25,-301.163C5370.26,-324.247 5370.05,-347.364 5369.64,-368.35"/>
<polygon fill="black" stroke="black" points="5369.42,-378.472 5365.14,-368.376 5369.52,-373.473 5369.63,-368.474 5369.63,-368.474 5369.63,-368.474 5369.52,-373.473 5374.13,-368.573 5369.42,-378.472 5369.42,-378.472"/>
</g>
</g>
</svg>
