<?xml version="1.0" encoding="UTF-8" standalone="no"?>
<!DOCTYPE svg PUBLIC "-//W3C//DTD SVG 1.1//EN"
 "http://www.w3.org/Graphics/SVG/1.1/DTD/svg11.dtd">
<!-- Generated by graphviz version 2.38.0 (20140413.2041)
 -->
<!-- Title: ml Pages: 1 -->
<svg width="4059pt" height="138pt"
 viewBox="0.00 0.00 4059.00 138.00" xmlns="http://www.w3.org/2000/svg" xmlns:xlink="http://www.w3.org/1999/xlink">
<g id="graph0" class="graph" transform="scale(1 1) rotate(0) translate(4 134)">
<title>ml</title>
<polygon fill="white" stroke="none" points="-4,4 -4,-134 4055,-134 4055,4 -4,4"/>
<!-- ndCmdArgs -->
<g id="node1" class="node"><title>ndCmdArgs</title>
<polygon fill="lightblue" stroke="none" points="87,-4.5 87,-41.5 175,-41.5 175,-4.5 87,-4.5"/>
<polygon fill="none" stroke="black" points="87,-4.5 87,-41.5 175,-41.5 175,-4.5 87,-4.5"/>
<text text-anchor="start" x="98" y="-20.3" font-family="Arial" font-weight="bold" font-size="14.00">CmdArgs</text>
<polygon fill="none" stroke="black" points="86,-4 86,-43 176,-43 176,-4 86,-4"/>
</g>
<!-- ndSafeIdSubCommands -->
<g id="node2" class="node"><title>ndSafeIdSubCommands</title>
<polygon fill="yellow" stroke="none" points="308,-87.5 308,-124.5 481,-124.5 481,-87.5 308,-87.5"/>
<polygon fill="none" stroke="black" points="308,-87.5 308,-124.5 481,-124.5 481,-87.5 308,-87.5"/>
<text text-anchor="start" x="319" y="-103.3" font-family="Arial" font-weight="bold" font-size="14.00">SafeIdSubCommands</text>
<polygon fill="none" stroke="black" points="306.5,-87 306.5,-126 481.5,-126 481.5,-87 306.5,-87"/>
</g>
<!-- ndNrsSubCommands -->
<g id="node3" class="node"><title>ndNrsSubCommands</title>
<polygon fill="yellow" stroke="none" points="517,-87.5 517,-124.5 671,-124.5 671,-87.5 517,-87.5"/>
<polygon fill="none" stroke="black" points="517,-87.5 517,-124.5 671,-124.5 671,-87.5 517,-87.5"/>
<text text-anchor="start" x="528" y="-103.3" font-family="Arial" font-weight="bold" font-size="14.00">NrsSubCommands</text>
<polygon fill="none" stroke="black" points="516,-87 516,-126 672,-126 672,-87 516,-87"/>
</g>
<!-- ndNetworksSubCommands -->
<g id="node4" class="node"><title>ndNetworksSubCommands</title>
<polygon fill="yellow" stroke="none" points="708,-87.5 708,-124.5 903,-124.5 903,-87.5 708,-87.5"/>
<polygon fill="none" stroke="black" points="708,-87.5 708,-124.5 903,-124.5 903,-87.5 708,-87.5"/>
<text text-anchor="start" x="719" y="-103.3" font-family="Arial" font-weight="bold" font-size="14.00">NetworksSubCommands</text>
<polygon fill="none" stroke="black" points="706.5,-87 706.5,-126 903.5,-126 903.5,-87 706.5,-87"/>
</g>
<!-- ndNodeSubCommands -->
<g id="node5" class="node"><title>ndNodeSubCommands</title>
<polygon fill="yellow" stroke="none" points="939,-87.5 939,-124.5 1105,-124.5 1105,-87.5 939,-87.5"/>
<polygon fill="none" stroke="black" points="939,-87.5 939,-124.5 1105,-124.5 1105,-87.5 939,-87.5"/>
<text text-anchor="start" x="950" y="-103.3" font-family="Arial" font-weight="bold" font-size="14.00">NodeSubCommands</text>
<polygon fill="none" stroke="black" points="938,-87 938,-126 1106,-126 1106,-87 938,-87"/>
</g>
<!-- ndOutputFmt -->
<g id="node6" class="node"><title>ndOutputFmt</title>
<polygon fill="yellow" stroke="none" points="9,-87.5 9,-124.5 105,-124.5 105,-87.5 9,-87.5"/>
<polygon fill="none" stroke="black" points="9,-87.5 9,-124.5 105,-124.5 105,-87.5 9,-87.5"/>
<text text-anchor="start" x="20" y="-103.3" font-family="Arial" font-weight="bold" font-size="14.00">OutputFmt</text>
<polygon fill="none" stroke="black" points="8,-87 8,-126 106,-126 106,-87 8,-87"/>
</g>
<!-- ndOutputFmt&#45;&gt;ndCmdArgs -->
<g id="edge1" class="edge"><title>ndOutputFmt&#45;&gt;ndCmdArgs</title>
<path fill="none" stroke="black" d="M77.6131,-82.937C85.1673,-74.6683 93.8635,-65.1495 102.015,-56.2273"/>
<polygon fill="black" stroke="black" points="102.147,-56.0824 103.241,-48.9547 110.241,-47.2229 109.147,-54.3506 102.147,-56.0824"/>
</g>
<!-- ndSubCommands -->
<g id="node7" class="node"><title>ndSubCommands</title>
<polygon fill="yellow" stroke="none" points="141,-87.5 141,-124.5 271,-124.5 271,-87.5 141,-87.5"/>
<polygon fill="none" stroke="black" points="141,-87.5 141,-124.5 271,-124.5 271,-87.5 141,-87.5"/>
<text text-anchor="start" x="152" y="-103.3" font-family="Arial" font-weight="bold" font-size="14.00">SubCommands</text>
<polygon fill="none" stroke="black" points="140,-87 140,-126 272,-126 272,-87 140,-87"/>
</g>
<!-- ndSubCommands&#45;&gt;ndCmdArgs -->
<g id="edge2" class="edge"><title>ndSubCommands&#45;&gt;ndCmdArgs</title>
<path fill="none" stroke="black" d="M185.108,-82.937C177.452,-74.6683 168.638,-65.1495 160.377,-56.2273"/>
<polygon fill="black" stroke="black" points="160.193,-56.0281 153.181,-54.3432 152.04,-47.2229 159.051,-48.9079 160.193,-56.0281"/>
</g>
<!-- ndCatCommands -->
<g id="node8" class="node"><title>ndCatCommands</title>
<polygon fill="lightblue" stroke="none" points="1142,-87.5 1142,-124.5 1267,-124.5 1267,-87.5 1142,-87.5"/>
<polygon fill="none" stroke="black" points="1142,-87.5 1142,-124.5 1267,-124.5 1267,-87.5 1142,-87.5"/>
<text text-anchor="start" x="1153" y="-103.3" font-family="Arial" font-weight="bold" font-size="14.00">CatCommands</text>
<polygon fill="none" stroke="black" points="1140.5,-87 1140.5,-126 1267.5,-126 1267.5,-87 1140.5,-87"/>
</g>
<!-- ndDogCommands -->
<g id="node9" class="node"><title>ndDogCommands</title>
<polygon fill="lightblue" stroke="none" points="1303,-87.5 1303,-124.5 1434,-124.5 1434,-87.5 1303,-87.5"/>
<polygon fill="none" stroke="black" points="1303,-87.5 1303,-124.5 1434,-124.5 1434,-87.5 1303,-87.5"/>
<text text-anchor="start" x="1314" y="-103.3" font-family="Arial" font-weight="bold" font-size="14.00">DogCommands</text>
<polygon fill="none" stroke="black" points="1301.5,-87 1301.5,-126 1434.5,-126 1434.5,-87 1301.5,-87"/>
</g>
<!-- ndXorurlSubCommands -->
<g id="node10" class="node"><title>ndXorurlSubCommands</title>
<polygon fill="yellow" stroke="none" points="1470,-87.5 1470,-124.5 1643,-124.5 1643,-87.5 1470,-87.5"/>
<polygon fill="none" stroke="black" points="1470,-87.5 1470,-124.5 1643,-124.5 1643,-87.5 1470,-87.5"/>
<text text-anchor="start" x="1481" y="-103.3" font-family="Arial" font-weight="bold" font-size="14.00">XorurlSubCommands</text>
<polygon fill="none" stroke="black" points="1468.5,-87 1468.5,-126 1643.5,-126 1643.5,-87 1468.5,-87"/>
</g>
<!-- ndFileTreeNodeType -->
<g id="node11" class="node"><title>ndFileTreeNodeType</title>
<polygon fill="yellow" stroke="none" points="1679,-87.5 1679,-124.5 1828,-124.5 1828,-87.5 1679,-87.5"/>
<polygon fill="none" stroke="black" points="1679,-87.5 1679,-124.5 1828,-124.5 1828,-87.5 1679,-87.5"/>
<text text-anchor="start" x="1690" y="-103.3" font-family="Arial" font-weight="bold" font-size="14.00">FileTreeNodeType</text>
<polygon fill="none" stroke="black" points="1677.5,-87 1677.5,-126 1828.5,-126 1828.5,-87 1677.5,-87"/>
</g>
<!-- ndFileTreeNode -->
<g id="node12" class="node"><title>ndFileTreeNode</title>
<polygon fill="lightblue" stroke="none" points="1696,-4.5 1696,-41.5 1811,-41.5 1811,-4.5 1696,-4.5"/>
<polygon fill="none" stroke="black" points="1696,-4.5 1696,-41.5 1811,-41.5 1811,-4.5 1696,-4.5"/>
<text text-anchor="start" x="1707" y="-20.3" font-family="Arial" font-weight="bold" font-size="14.00">FileTreeNode</text>
<polygon fill="none" stroke="black" points="1694.5,-4 1694.5,-43 1811.5,-43 1811.5,-4 1694.5,-4"/>
</g>
<!-- ndFileTreeNodeType&#45;&gt;ndFileTreeNode -->
<g id="edge3" class="edge"><title>ndFileTreeNodeType&#45;&gt;ndFileTreeNode</title>
<path fill="none" stroke="black" stroke-dasharray="5,2" d="M1753,-82.937C1753,-75.6257 1753,-67.3371 1753,-59.3477"/>
<polygon fill="black" stroke="black" points="1753,-59.2229 1749,-53.223 1753,-47.2229 1757,-53.2229 1753,-59.2229"/>
</g>
<!-- ndFilesSubCommands -->
<g id="node13" class="node"><title>ndFilesSubCommands</title>
<polygon fill="yellow" stroke="none" points="1864,-87.5 1864,-124.5 2027,-124.5 2027,-87.5 1864,-87.5"/>
<polygon fill="none" stroke="black" points="1864,-87.5 1864,-124.5 2027,-124.5 2027,-87.5 1864,-87.5"/>
<text text-anchor="start" x="1875" y="-103.3" font-family="Arial" font-weight="bold" font-size="14.00">FilesSubCommands</text>
<polygon fill="none" stroke="black" points="1862.5,-87 1862.5,-126 2027.5,-126 2027.5,-87 1862.5,-87"/>
</g>
<!-- ndFilesGetStatus -->
<g id="node14" class="node"><title>ndFilesGetStatus</title>
<polygon fill="lightblue" stroke="none" points="2063,-87.5 2063,-124.5 2187,-124.5 2187,-87.5 2063,-87.5"/>
<polygon fill="none" stroke="black" points="2063,-87.5 2063,-124.5 2187,-124.5 2187,-87.5 2063,-87.5"/>
<text text-anchor="start" x="2074" y="-103.3" font-family="Arial" font-weight="bold" font-size="14.00">FilesGetStatus</text>
<polygon fill="none" stroke="black" points="2062,-87 2062,-126 2188,-126 2188,-87 2062,-87"/>
</g>
<!-- ndFileExistsAction -->
<g id="node15" class="node"><title>ndFileExistsAction</title>
<polygon fill="yellow" stroke="none" points="2223,-87.5 2223,-124.5 2357,-124.5 2357,-87.5 2223,-87.5"/>
<polygon fill="none" stroke="black" points="2223,-87.5 2223,-124.5 2357,-124.5 2357,-87.5 2223,-87.5"/>
<text text-anchor="start" x="2234" y="-103.3" font-family="Arial" font-weight="bold" font-size="14.00">FileExistsAction</text>
<polygon fill="none" stroke="black" points="2222,-87 2222,-126 2358,-126 2358,-87 2222,-87"/>
</g>
<!-- ndProgressIndicator -->
<g id="node16" class="node"><title>ndProgressIndicator</title>
<polygon fill="yellow" stroke="none" points="2394,-87.5 2394,-124.5 2543,-124.5 2543,-87.5 2394,-87.5"/>
<polygon fill="none" stroke="black" points="2394,-87.5 2394,-124.5 2543,-124.5 2543,-87.5 2394,-87.5"/>
<text text-anchor="start" x="2405" y="-103.3" font-family="Arial" font-weight="bold" font-size="14.00">ProgressIndicator</text>
<polygon fill="none" stroke="black" points="2392.5,-87 2392.5,-126 2543.5,-126 2543.5,-87 2392.5,-87"/>
</g>
<!-- ndKeysSubCommands -->
<g id="node17" class="node"><title>ndKeysSubCommands</title>
<polygon fill="yellow" stroke="none" points="2579,-87.5 2579,-124.5 2744,-124.5 2744,-87.5 2579,-87.5"/>
<polygon fill="none" stroke="black" points="2579,-87.5 2579,-124.5 2744,-124.5 2744,-87.5 2579,-87.5"/>
<text text-anchor="start" x="2590" y="-103.3" font-family="Arial" font-weight="bold" font-size="14.00">KeysSubCommands</text>
<polygon fill="none" stroke="black" points="2577.5,-87 2577.5,-126 2744.5,-126 2744.5,-87 2577.5,-87"/>
</g>
<!-- ndConfigSubCommands -->
<g id="node18" class="node"><title>ndConfigSubCommands</title>
<polygon fill="yellow" stroke="none" points="2847,-4.5 2847,-41.5 3023,-41.5 3023,-4.5 2847,-4.5"/>
<polygon fill="none" stroke="black" points="2847,-4.5 2847,-41.5 3023,-41.5 3023,-4.5 2847,-4.5"/>
<text text-anchor="start" x="2858" y="-20.3" font-family="Arial" font-weight="bold" font-size="14.00">ConfigSubCommands</text>
<polygon fill="none" stroke="black" points="2846,-4 2846,-43 3024,-43 3024,-4 2846,-4"/>
</g>
<!-- ndSettingAddCmd -->
<g id="node19" class="node"><title>ndSettingAddCmd</title>
<polygon fill="yellow" stroke="none" points="2780,-87.5 2780,-124.5 2911,-124.5 2911,-87.5 2780,-87.5"/>
<polygon fill="none" stroke="black" points="2780,-87.5 2780,-124.5 2911,-124.5 2911,-87.5 2780,-87.5"/>
<text text-anchor="start" x="2791" y="-103.3" font-family="Arial" font-weight="bold" font-size="14.00">SettingAddCmd</text>
<polygon fill="none" stroke="black" points="2778.5,-87 2778.5,-126 2911.5,-126 2911.5,-87 2778.5,-87"/>
</g>
<!-- ndSettingAddCmd&#45;&gt;ndConfigSubCommands -->
<g id="edge4" class="edge"><title>ndSettingAddCmd&#45;&gt;ndConfigSubCommands</title>
<path fill="none" stroke="black" d="M2870.07,-82.937C2879.55,-74.4071 2890.5,-64.547 2900.68,-55.3839"/>
<polygon fill="black" stroke="black" points="2900.83,-55.2506 2902.62,-48.2636 2909.75,-47.2229 2907.97,-54.2099 2900.83,-55.2506"/>
</g>
<!-- ndSettingRemoveCmd -->
<g id="node20" class="node"><title>ndSettingRemoveCmd</title>
<polygon fill="yellow" stroke="none" points="2946,-87.5 2946,-124.5 3106,-124.5 3106,-87.5 2946,-87.5"/>
<polygon fill="none" stroke="black" points="2946,-87.5 2946,-124.5 3106,-124.5 3106,-87.5 2946,-87.5"/>
<text text-anchor="start" x="2957" y="-103.3" font-family="Arial" font-weight="bold" font-size="14.00">SettingRemoveCmd</text>
<polygon fill="none" stroke="black" points="2945,-87 2945,-126 3107,-126 3107,-87 2945,-87"/>
</g>
<!-- ndSettingRemoveCmd&#45;&gt;ndConfigSubCommands -->
<g id="edge5" class="edge"><title>ndSettingRemoveCmd&#45;&gt;ndConfigSubCommands</title>
<path fill="none" stroke="black" d="M3000.65,-82.937C2991.07,-74.4071 2979.99,-64.547 2969.7,-55.3839"/>
<polygon fill="black" stroke="black" points="2969.49,-55.2015 2962.35,-54.2 2960.53,-47.2229 2967.67,-48.2244 2969.49,-55.2015"/>
</g>
<!-- ndSetupSubCommands -->
<g id="node21" class="node"><title>ndSetupSubCommands</title>
<polygon fill="yellow" stroke="none" points="3142,-87.5 3142,-124.5 3312,-124.5 3312,-87.5 3142,-87.5"/>
<polygon fill="none" stroke="black" points="3142,-87.5 3142,-124.5 3312,-124.5 3312,-87.5 3142,-87.5"/>
<text text-anchor="start" x="3153" y="-103.3" font-family="Arial" font-weight="bold" font-size="14.00">SetupSubCommands</text>
<polygon fill="none" stroke="black" points="3141,-87 3141,-126 3313,-126 3313,-87 3141,-87"/>
</g>
<!-- ndEnvironment -->
<g id="node22" class="node"><title>ndEnvironment</title>
<polygon fill="lightblue" stroke="none" points="3348,-87.5 3348,-124.5 3460,-124.5 3460,-87.5 3348,-87.5"/>
<polygon fill="none" stroke="black" points="3348,-87.5 3348,-124.5 3460,-124.5 3460,-87.5 3348,-87.5"/>
<text text-anchor="start" x="3359" y="-103.3" font-family="Arial" font-weight="bold" font-size="14.00">Environment</text>
<polygon fill="none" stroke="black" points="3347,-87 3347,-126 3461,-126 3461,-87 3347,-87"/>
</g>
<!-- ndSafeSeed -->
<g id="node23" class="node"><title>ndSafeSeed</title>
<polygon fill="lightblue" stroke="none" points="3497,-87.5 3497,-124.5 3586,-124.5 3586,-87.5 3497,-87.5"/>
<polygon fill="none" stroke="black" points="3497,-87.5 3497,-124.5 3586,-124.5 3586,-87.5 3497,-87.5"/>
<text text-anchor="start" x="3508" y="-103.3" font-family="Arial" font-weight="bold" font-size="14.00">SafeSeed</text>
<polygon fill="none" stroke="black" points="3495.5,-87 3495.5,-126 3586.5,-126 3586.5,-87 3495.5,-87"/>
</g>
<!-- ndNetworkLauncher -->
<g id="node24" class="node"><title>ndNetworkLauncher</title>
<polygon fill="lightgreen" stroke="none" points="3622,-87.5 3622,-124.5 3768,-124.5 3768,-87.5 3622,-87.5"/>
<polygon fill="none" stroke="black" points="3622,-87.5 3622,-124.5 3768,-124.5 3768,-87.5 3622,-87.5"/>
<text text-anchor="start" x="3633" y="-103.3" font-family="Arial" font-weight="bold" font-size="14.00">NetworkLauncher</text>
<polygon fill="none" stroke="black" points="3621,-87 3621,-126 3769,-126 3769,-87 3621,-87"/>
</g>
<!-- ndSnLaunchToolNetworkLauncher -->
<g id="node25" class="node"><title>ndSnLaunchToolNetworkLauncher</title>
<polygon fill="lightblue" stroke="none" points="3571,-4.5 3571,-41.5 3819,-41.5 3819,-4.5 3571,-4.5"/>
<polygon fill="none" stroke="black" points="3571,-4.5 3571,-41.5 3819,-41.5 3819,-4.5 3571,-4.5"/>
<text text-anchor="start" x="3582" y="-20.3" font-family="Arial" font-weight="bold" font-size="14.00">SnLaunchToolNetworkLauncher</text>
<polygon fill="none" stroke="black" points="3570,-4 3570,-43 3820,-43 3820,-4 3570,-4"/>
</g>
<!-- ndNetworkLauncher&#45;&gt;ndSnLaunchToolNetworkLauncher -->
<g id="edge6" class="edge"><title>ndNetworkLauncher&#45;&gt;ndSnLaunchToolNetworkLauncher</title>
<path fill="none" stroke="black" stroke-dasharray="5,2" d="M3695,-82.937C3695,-75.0164 3695,-65.9488 3695,-57.3574"/>
<polygon fill="none" stroke="black" points="3698.5,-57.2229 3695,-47.2229 3691.5,-57.223 3698.5,-57.2229"/>
</g>
<!-- ndNetworkInfo -->
<g id="node26" class="node"><title>ndNetworkInfo</title>
<polygon fill="yellow" stroke="none" points="3820,-87.5 3820,-124.5 3926,-124.5 3926,-87.5 3820,-87.5"/>
<polygon fill="none" stroke="black" points="3820,-87.5 3820,-124.5 3926,-124.5 3926,-87.5 3820,-87.5"/>
<text text-anchor="start" x="3831" y="-103.3" font-family="Arial" font-weight="bold" font-size="14.00">NetworkInfo</text>
<polygon fill="none" stroke="black" points="3819,-87 3819,-126 3927,-126 3927,-87 3819,-87"/>
</g>
<!-- ndConfig -->
<g id="node28" class="node"><title>ndConfig</title>
<polygon fill="lightblue" stroke="none" points="3855,-4.5 3855,-41.5 3923,-41.5 3923,-4.5 3855,-4.5"/>
<polygon fill="none" stroke="black" points="3855,-4.5 3855,-41.5 3923,-41.5 3923,-4.5 3855,-4.5"/>
<text text-anchor="start" x="3866" y="-20.3" font-family="Arial" font-weight="bold" font-size="14.00">Config</text>
<polygon fill="none" stroke="black" points="3854,-4 3854,-43 3924,-43 3924,-4 3854,-4"/>
</g>
<!-- ndNetworkInfo&#45;&gt;ndConfig -->
<g id="edge7" class="edge"><title>ndNetworkInfo&#45;&gt;ndConfig</title>
<path fill="none" stroke="black" d="M3877.46,-82.937C3879.04,-74.9294 3880.85,-65.7494 3882.57,-57.0743"/>
<polygon fill="black" stroke="black" points="3884.51,-47.2229 3886.99,-57.9055 3883.54,-52.1282 3882.57,-57.0334 3882.57,-57.0334 3882.57,-57.0334 3883.54,-52.1282 3878.16,-56.1613 3884.51,-47.2229 3884.51,-47.2229"/>
</g>
<!-- ndSettings -->
<g id="node27" class="node"><title>ndSettings</title>
<polygon fill="lightblue" stroke="none" points="3962,-87.5 3962,-124.5 4042,-124.5 4042,-87.5 3962,-87.5"/>
<polygon fill="none" stroke="black" points="3962,-87.5 3962,-124.5 4042,-124.5 4042,-87.5 3962,-87.5"/>
<text text-anchor="start" x="3973" y="-103.3" font-family="Arial" font-weight="bold" font-size="14.00">Settings</text>
<polygon fill="none" stroke="black" points="3961,-87 3961,-126 4043,-126 4043,-87 3961,-87"/>
</g>
<!-- ndSettings&#45;&gt;ndConfig -->
<g id="edge8" class="edge"><title>ndSettings&#45;&gt;ndConfig</title>
<path fill="none" stroke="black" d="M3970.52,-82.937C3958.14,-74.059 3943.74,-63.7399 3930.52,-54.2655"/>
<polygon fill="black" stroke="black" points="3930.45,-54.2142 3923.25,-53.9696 3920.7,-47.2229 3927.91,-47.4675 3930.45,-54.2142"/>
</g>
</g>
</svg>
