<?xml version="1.0" encoding="UTF-8" standalone="no"?>
<!DOCTYPE svg PUBLIC "-//W3C//DTD SVG 1.1//EN"
 "http://www.w3.org/Graphics/SVG/1.1/DTD/svg11.dtd">
<!-- Generated by graphviz version 2.38.0 (20140413.2041)
 -->
<!-- Title: ml Pages: 1 -->
<svg width="5861pt" height="579pt"
 viewBox="0.00 0.00 5861.00 579.00" xmlns="http://www.w3.org/2000/svg" xmlns:xlink="http://www.w3.org/1999/xlink">
<g id="graph0" class="graph" transform="scale(1 1) rotate(0) translate(4 575)">
<title>ml</title>
<polygon fill="white" stroke="none" points="-4,4 -4,-575 5857,-575 5857,4 -4,4"/>
<!-- ndCmdArgs -->
<g id="node1" class="node"><title>ndCmdArgs</title>
<polygon fill="lightblue" stroke="none" points="183.5,-187.5 183.5,-224.5 427.5,-224.5 427.5,-187.5 183.5,-187.5"/>
<polygon fill="none" stroke="black" points="183.5,-187.5 183.5,-224.5 427.5,-224.5 427.5,-187.5 183.5,-187.5"/>
<text text-anchor="start" x="272.5" y="-203.3" font-family="Arial" font-weight="bold" font-size="14.00">CmdArgs</text>
<polygon fill="white" stroke="none" points="183.5,-75.5 183.5,-187.5 427.5,-187.5 427.5,-75.5 183.5,-75.5"/>
<polygon fill="none" stroke="black" points="183.5,-75.5 183.5,-187.5 427.5,-187.5 427.5,-75.5 183.5,-75.5"/>
<text text-anchor="start" x="194.5" y="-165.3" font-family="Arial" font-size="14.00">+ cmd: Option&lt;SubCommands&gt;</text>
<text text-anchor="start" x="194.5" y="-150.3" font-family="Arial" font-size="14.00">&#45; output_fmt: Option&lt;OutputFmt&gt;</text>
<text text-anchor="start" x="194.5" y="-135.3" font-family="Arial" font-size="14.00">&#45; output_json: bool</text>
<text text-anchor="start" x="194.5" y="-120.3" font-family="Arial" font-size="14.00">&#45; dry: bool</text>
<text text-anchor="start" x="194.5" y="-105.3" font-family="Arial" font-size="14.00">&#45; xorurl_base: Option&lt;XorUrlBase&gt;</text>
<text text-anchor="start" x="194.5" y="-90.3" font-family="Arial" font-size="14.00">+ endpoint: Option&lt;String&gt;</text>
<polygon fill="none" stroke="black" points="182.5,-75 182.5,-226 428.5,-226 428.5,-75 182.5,-75"/>
</g>
<!-- ndSafeIdSubCommands -->
<g id="node2" class="node"><title>ndSafeIdSubCommands</title>
<polygon fill="yellow" stroke="none" points="619.5,-461 619.5,-498 792.5,-498 792.5,-461 619.5,-461"/>
<polygon fill="none" stroke="black" points="619.5,-461 619.5,-498 792.5,-498 792.5,-461 619.5,-461"/>
<text text-anchor="start" x="630.5" y="-476.8" font-family="Arial" font-weight="bold" font-size="14.00">SafeIdSubCommands</text>
<polygon fill="white" stroke="none" points="619.5,-409 619.5,-461 792.5,-461 792.5,-409 619.5,-409"/>
<polygon fill="none" stroke="black" points="619.5,-409 619.5,-461 792.5,-461 792.5,-409 619.5,-409"/>
<text text-anchor="start" x="630.5" y="-438.8" font-family="Arial" font-size="14.00">Create</text>
<text text-anchor="start" x="630.5" y="-423.8" font-family="Arial" font-size="14.00">Update</text>
<polygon fill="none" stroke="black" points="618,-408.5 618,-499.5 793,-499.5 793,-408.5 618,-408.5"/>
</g>
<!-- ndNrsSubCommands -->
<g id="node3" class="node"><title>ndNrsSubCommands</title>
<polygon fill="yellow" stroke="none" points="828.5,-469 828.5,-506 982.5,-506 982.5,-469 828.5,-469"/>
<polygon fill="none" stroke="black" points="828.5,-469 828.5,-506 982.5,-506 982.5,-469 828.5,-469"/>
<text text-anchor="start" x="839.5" y="-484.8" font-family="Arial" font-weight="bold" font-size="14.00">NrsSubCommands</text>
<polygon fill="white" stroke="none" points="828.5,-402 828.5,-469 982.5,-469 982.5,-402 828.5,-402"/>
<polygon fill="none" stroke="black" points="828.5,-402 828.5,-469 982.5,-469 982.5,-402 828.5,-402"/>
<text text-anchor="start" x="839.5" y="-446.8" font-family="Arial" font-size="14.00">Add</text>
<text text-anchor="start" x="839.5" y="-431.8" font-family="Arial" font-size="14.00">Create</text>
<text text-anchor="start" x="839.5" y="-416.8" font-family="Arial" font-size="14.00">Remove</text>
<polygon fill="none" stroke="black" points="827.5,-401 827.5,-507 983.5,-507 983.5,-401 827.5,-401"/>
</g>
<!-- ndNetworksSubCommands -->
<g id="node4" class="node"><title>ndNetworksSubCommands</title>
<polygon fill="yellow" stroke="none" points="1019.5,-484 1019.5,-521 1214.5,-521 1214.5,-484 1019.5,-484"/>
<polygon fill="none" stroke="black" points="1019.5,-484 1019.5,-521 1214.5,-521 1214.5,-484 1019.5,-484"/>
<text text-anchor="start" x="1030.5" y="-499.8" font-family="Arial" font-weight="bold" font-size="14.00">NetworksSubCommands</text>
<polygon fill="white" stroke="none" points="1019.5,-387 1019.5,-484 1214.5,-484 1214.5,-387 1019.5,-387"/>
<polygon fill="none" stroke="black" points="1019.5,-387 1019.5,-484 1214.5,-484 1214.5,-387 1019.5,-387"/>
<text text-anchor="start" x="1030.5" y="-461.8" font-family="Arial" font-size="14.00">Switch</text>
<text text-anchor="start" x="1030.5" y="-446.8" font-family="Arial" font-size="14.00">Check</text>
<text text-anchor="start" x="1030.5" y="-431.8" font-family="Arial" font-size="14.00">Add</text>
<text text-anchor="start" x="1030.5" y="-416.8" font-family="Arial" font-size="14.00">Set</text>
<text text-anchor="start" x="1030.5" y="-401.8" font-family="Arial" font-size="14.00">Remove</text>
<polygon fill="none" stroke="black" points="1018,-386 1018,-522 1215,-522 1215,-386 1018,-386"/>
</g>
<!-- ndNodeSubCommands -->
<g id="node5" class="node"><title>ndNodeSubCommands</title>
<polygon fill="yellow" stroke="none" points="1250.5,-491 1250.5,-528 1416.5,-528 1416.5,-491 1250.5,-491"/>
<polygon fill="none" stroke="black" points="1250.5,-491 1250.5,-528 1416.5,-528 1416.5,-491 1250.5,-491"/>
<text text-anchor="start" x="1261.5" y="-506.8" font-family="Arial" font-weight="bold" font-size="14.00">NodeSubCommands</text>
<polygon fill="white" stroke="none" points="1250.5,-379 1250.5,-491 1416.5,-491 1416.5,-379 1250.5,-379"/>
<polygon fill="none" stroke="black" points="1250.5,-379 1250.5,-491 1416.5,-491 1416.5,-379 1250.5,-379"/>
<text text-anchor="start" x="1261.5" y="-468.8" font-family="Arial" font-size="14.00">BinVersion</text>
<text text-anchor="start" x="1261.5" y="-453.8" font-family="Arial" font-size="14.00">Install</text>
<text text-anchor="start" x="1261.5" y="-438.8" font-family="Arial" font-size="14.00">Join</text>
<text text-anchor="start" x="1261.5" y="-423.8" font-family="Arial" font-size="14.00">Run</text>
<text text-anchor="start" x="1261.5" y="-408.8" font-family="Arial" font-size="14.00">Killall</text>
<text text-anchor="start" x="1261.5" y="-393.8" font-family="Arial" font-size="14.00">Update</text>
<polygon fill="none" stroke="black" points="1249.5,-378.5 1249.5,-529.5 1417.5,-529.5 1417.5,-378.5 1249.5,-378.5"/>
</g>
<!-- ndOutputFmt -->
<g id="node6" class="node"><title>ndOutputFmt</title>
<polygon fill="yellow" stroke="none" points="9.5,-495 9.5,-532 298.5,-532 298.5,-495 9.5,-495"/>
<polygon fill="none" stroke="black" points="9.5,-495 9.5,-532 298.5,-532 298.5,-495 9.5,-495"/>
<text text-anchor="start" x="117" y="-510.8" font-family="Arial" font-weight="bold" font-size="14.00">OutputFmt</text>
<polygon fill="white" stroke="none" points="9.5,-413 9.5,-495 298.5,-495 298.5,-413 9.5,-413"/>
<polygon fill="none" stroke="black" points="9.5,-413 9.5,-495 298.5,-495 298.5,-413 9.5,-413"/>
<text text-anchor="start" x="20.5" y="-472.8" font-family="Arial" font-size="14.00">Pretty</text>
<text text-anchor="start" x="20.5" y="-457.8" font-family="Arial" font-size="14.00">Json</text>
<text text-anchor="start" x="20.5" y="-442.8" font-family="Arial" font-size="14.00">JsonCompact</text>
<text text-anchor="start" x="20.5" y="-427.8" font-family="Arial" font-size="14.00">Yaml</text>
<polygon fill="white" stroke="none" points="9.5,-376 9.5,-413 298.5,-413 298.5,-376 9.5,-376"/>
<polygon fill="none" stroke="black" points="9.5,-376 9.5,-413 298.5,-413 298.5,-376 9.5,-376"/>
<text text-anchor="start" x="20.5" y="-390.8" font-family="Arial" font-size="14.00">&#45; from_str(str: &amp;str) &#45;&gt; Result&lt;Self, String&gt;</text>
<polygon fill="none" stroke="black" points="8,-375 8,-533 299,-533 299,-375 8,-375"/>
</g>
<!-- ndOutputFmt&#45;&gt;ndCmdArgs -->
<g id="edge1" class="edge"><title>ndOutputFmt&#45;&gt;ndCmdArgs</title>
<path fill="none" stroke="black" d="M195.035,-370.614C215.288,-330.441 239.683,-282.051 260.391,-240.975"/>
<polygon fill="black" stroke="black" points="260.447,-240.865 259.576,-233.707 265.849,-230.15 266.72,-237.308 260.447,-240.865"/>
</g>
<!-- ndSubCommands -->
<g id="node7" class="node"><title>ndSubCommands</title>
<polygon fill="yellow" stroke="none" points="334.5,-529 334.5,-566 582.5,-566 582.5,-529 334.5,-529"/>
<polygon fill="none" stroke="black" points="334.5,-529 334.5,-566 582.5,-566 582.5,-529 334.5,-529"/>
<text text-anchor="start" x="404.5" y="-544.8" font-family="Arial" font-weight="bold" font-size="14.00">SubCommands</text>
<polygon fill="white" stroke="none" points="334.5,-342 334.5,-529 582.5,-529 582.5,-342 334.5,-342"/>
<polygon fill="none" stroke="black" points="334.5,-342 334.5,-529 582.5,-529 582.5,-342 334.5,-342"/>
<text text-anchor="start" x="345.5" y="-506.8" font-family="Arial" font-size="14.00">Config</text>
<text text-anchor="start" x="345.5" y="-491.8" font-family="Arial" font-size="14.00">Networks</text>
<text text-anchor="start" x="345.5" y="-476.8" font-family="Arial" font-size="14.00">Cat(cat::CatCommands)</text>
<text text-anchor="start" x="345.5" y="-461.8" font-family="Arial" font-size="14.00">Dog(dog::DogCommands)</text>
<text text-anchor="start" x="345.5" y="-446.8" font-family="Arial" font-size="14.00">Files(files::FilesSubCommands)</text>
<text text-anchor="start" x="345.5" y="-431.8" font-family="Arial" font-size="14.00">Setup(setup::SetupSubCommands)</text>
<text text-anchor="start" x="345.5" y="-416.8" font-family="Arial" font-size="14.00">Nrs(nrs::NrsSubCommands)</text>
<text text-anchor="start" x="345.5" y="-401.8" font-family="Arial" font-size="14.00">Keys(keys::KeysSubCommands)</text>
<text text-anchor="start" x="345.5" y="-386.8" font-family="Arial" font-size="14.00">Xorurl</text>
<text text-anchor="start" x="345.5" y="-371.8" font-family="Arial" font-size="14.00">Update</text>
<text text-anchor="start" x="345.5" y="-356.8" font-family="Arial" font-size="14.00">Node</text>
<polygon fill="none" stroke="black" points="333.5,-341 333.5,-567 583.5,-567 583.5,-341 333.5,-341"/>
</g>
<!-- ndSubCommands&#45;&gt;ndCmdArgs -->
<g id="edge2" class="edge"><title>ndSubCommands&#45;&gt;ndCmdArgs</title>
<path fill="none" stroke="black" d="M399.565,-336.863C383.446,-305.099 366.226,-271.167 350.985,-241.131"/>
<polygon fill="black" stroke="black" points="350.895,-240.954 344.613,-237.414 345.464,-230.253 351.747,-233.794 350.895,-240.954"/>
</g>
<!-- ndCatCommands -->
<g id="node8" class="node"><title>ndCatCommands</title>
<polygon fill="lightblue" stroke="none" points="1452.5,-461 1452.5,-498 1634.5,-498 1634.5,-461 1452.5,-461"/>
<polygon fill="none" stroke="black" points="1452.5,-461 1452.5,-498 1634.5,-498 1634.5,-461 1452.5,-461"/>
<text text-anchor="start" x="1492" y="-476.8" font-family="Arial" font-weight="bold" font-size="14.00">CatCommands</text>
<polygon fill="white" stroke="none" points="1452.5,-409 1452.5,-461 1634.5,-461 1634.5,-409 1452.5,-409"/>
<polygon fill="none" stroke="black" points="1452.5,-409 1452.5,-461 1634.5,-461 1634.5,-409 1452.5,-409"/>
<text text-anchor="start" x="1463.5" y="-438.8" font-family="Arial" font-size="14.00">&#45; location: Option&lt;String&gt;</text>
<text text-anchor="start" x="1463.5" y="-423.8" font-family="Arial" font-size="14.00">&#45; hexdump: bool</text>
<polygon fill="none" stroke="black" points="1451.5,-408.5 1451.5,-499.5 1635.5,-499.5 1635.5,-408.5 1451.5,-408.5"/>
</g>
<!-- ndDogCommands -->
<g id="node9" class="node"><title>ndDogCommands</title>
<polygon fill="lightblue" stroke="none" points="1670.5,-454 1670.5,-491 1852.5,-491 1852.5,-454 1670.5,-454"/>
<polygon fill="none" stroke="black" points="1670.5,-454 1670.5,-491 1852.5,-491 1852.5,-454 1670.5,-454"/>
<text text-anchor="start" x="1707" y="-469.8" font-family="Arial" font-weight="bold" font-size="14.00">DogCommands</text>
<polygon fill="white" stroke="none" points="1670.5,-417 1670.5,-454 1852.5,-454 1852.5,-417 1670.5,-417"/>
<polygon fill="none" stroke="black" points="1670.5,-417 1670.5,-454 1852.5,-454 1852.5,-417 1670.5,-417"/>
<text text-anchor="start" x="1681.5" y="-431.8" font-family="Arial" font-size="14.00">&#45; location: Option&lt;String&gt;</text>
<polygon fill="none" stroke="black" points="1669.5,-416 1669.5,-492 1853.5,-492 1853.5,-416 1669.5,-416"/>
</g>
<!-- ndXorurlSubCommands -->
<g id="node10" class="node"><title>ndXorurlSubCommands</title>
<polygon fill="yellow" stroke="none" points="1889.5,-461 1889.5,-498 2062.5,-498 2062.5,-461 1889.5,-461"/>
<polygon fill="none" stroke="black" points="1889.5,-461 1889.5,-498 2062.5,-498 2062.5,-461 1889.5,-461"/>
<text text-anchor="start" x="1900.5" y="-476.8" font-family="Arial" font-weight="bold" font-size="14.00">XorurlSubCommands</text>
<polygon fill="white" stroke="none" points="1889.5,-409 1889.5,-461 2062.5,-461 2062.5,-409 1889.5,-409"/>
<polygon fill="none" stroke="black" points="1889.5,-409 1889.5,-461 2062.5,-461 2062.5,-409 1889.5,-409"/>
<text text-anchor="start" x="1900.5" y="-438.8" font-family="Arial" font-size="14.00">Decode</text>
<text text-anchor="start" x="1900.5" y="-423.8" font-family="Arial" font-size="14.00">Pk</text>
<polygon fill="none" stroke="black" points="1888,-408.5 1888,-499.5 2063,-499.5 2063,-408.5 1888,-408.5"/>
</g>
<!-- ndFileTreeNodeType -->
<g id="node11" class="node"><title>ndFileTreeNodeType</title>
<polygon fill="yellow" stroke="none" points="2098.5,-469 2098.5,-506 2247.5,-506 2247.5,-469 2098.5,-469"/>
<polygon fill="none" stroke="black" points="2098.5,-469 2098.5,-506 2247.5,-506 2247.5,-469 2098.5,-469"/>
<text text-anchor="start" x="2109.5" y="-484.8" font-family="Arial" font-weight="bold" font-size="14.00">FileTreeNodeType</text>
<polygon fill="white" stroke="none" points="2098.5,-402 2098.5,-469 2247.5,-469 2247.5,-402 2098.5,-402"/>
<polygon fill="none" stroke="black" points="2098.5,-402 2098.5,-469 2247.5,-469 2247.5,-402 2098.5,-402"/>
<text text-anchor="start" x="2109.5" y="-446.8" font-family="Arial" font-size="14.00">File</text>
<text text-anchor="start" x="2109.5" y="-431.8" font-family="Arial" font-size="14.00">Directory</text>
<text text-anchor="start" x="2109.5" y="-416.8" font-family="Arial" font-size="14.00">Symlink</text>
<polygon fill="none" stroke="black" points="2097,-401 2097,-507 2248,-507 2248,-401 2097,-401"/>
</g>
<!-- ndFileTreeNode -->
<g id="node12" class="node"><title>ndFileTreeNode</title>
<polygon fill="lightblue" stroke="none" points="1900.5,-206.5 1900.5,-243.5 2444.5,-243.5 2444.5,-206.5 1900.5,-206.5"/>
<polygon fill="none" stroke="black" points="1900.5,-206.5 1900.5,-243.5 2444.5,-243.5 2444.5,-206.5 1900.5,-206.5"/>
<text text-anchor="start" x="2126" y="-222.3" font-family="Arial" font-weight="bold" font-size="14.00">FileTreeNode</text>
<polygon fill="white" stroke="none" points="1900.5,-124.5 1900.5,-206.5 2444.5,-206.5 2444.5,-124.5 1900.5,-124.5"/>
<polygon fill="none" stroke="black" points="1900.5,-124.5 1900.5,-206.5 2444.5,-206.5 2444.5,-124.5 1900.5,-124.5"/>
<text text-anchor="start" x="1911.5" y="-184.3" font-family="Arial" font-size="14.00">&#45; name: String</text>
<text text-anchor="start" x="1911.5" y="-169.3" font-family="Arial" font-size="14.00">&#45; fs_type: FileTreeNodeType</text>
<text text-anchor="start" x="1911.5" y="-154.3" font-family="Arial" font-size="14.00">&#45; details: FileDetails</text>
<text text-anchor="start" x="1911.5" y="-139.3" font-family="Arial" font-size="14.00">&#45; sub: Vec&lt;FileTreeNode&gt;</text>
<polygon fill="white" stroke="none" points="1900.5,-57.5 1900.5,-124.5 2444.5,-124.5 2444.5,-57.5 1900.5,-57.5"/>
<polygon fill="none" stroke="black" points="1900.5,-57.5 1900.5,-124.5 2444.5,-124.5 2444.5,-57.5 1900.5,-57.5"/>
<text text-anchor="start" x="1911.5" y="-102.3" font-family="Arial" font-size="14.00">&#45; new(name: &amp;str, fs_type: FileTreeNodeType, details: FileDetails) &#45;&gt; FileTreeNode</text>
<text text-anchor="start" x="1911.5" y="-87.3" font-family="Arial" font-size="14.00">&#45; find_child(&amp;mut self, name: &amp;str) &#45;&gt; Option&lt;&amp;mut FileTreeNode&gt;</text>
<text text-anchor="start" x="1911.5" y="-72.3" font-family="Arial" font-size="14.00">&#45; add_child(&amp;mut self, leaf: T) &#45;&gt; &amp;mut Self</text>
<polygon fill="none" stroke="black" points="1899.5,-56.5 1899.5,-244.5 2445.5,-244.5 2445.5,-56.5 1899.5,-56.5"/>
</g>
<!-- ndFileTreeNodeType&#45;&gt;ndFileTreeNode -->
<g id="edge3" class="edge"><title>ndFileTreeNodeType&#45;&gt;ndFileTreeNode</title>
<path fill="none" stroke="black" stroke-dasharray="5,2" d="M2172.5,-396.997C2172.5,-358.853 2172.5,-307.1 2172.5,-260.944"/>
<polygon fill="black" stroke="black" points="2172.5,-260.719 2168.5,-254.719 2172.5,-248.719 2176.5,-254.718 2172.5,-260.719"/>
</g>
<!-- ndFilesSubCommands -->
<g id="node13" class="node"><title>ndFilesSubCommands</title>
<polygon fill="yellow" stroke="none" points="2283.5,-499 2283.5,-536 2446.5,-536 2446.5,-499 2283.5,-499"/>
<polygon fill="none" stroke="black" points="2283.5,-499 2283.5,-536 2446.5,-536 2446.5,-499 2283.5,-499"/>
<text text-anchor="start" x="2294.5" y="-514.8" font-family="Arial" font-weight="bold" font-size="14.00">FilesSubCommands</text>
<polygon fill="white" stroke="none" points="2283.5,-372 2283.5,-499 2446.5,-499 2446.5,-372 2283.5,-372"/>
<polygon fill="none" stroke="black" points="2283.5,-372 2283.5,-499 2446.5,-499 2446.5,-372 2283.5,-372"/>
<text text-anchor="start" x="2294.5" y="-476.8" font-family="Arial" font-size="14.00">Put</text>
<text text-anchor="start" x="2294.5" y="-461.8" font-family="Arial" font-size="14.00">Get</text>
<text text-anchor="start" x="2294.5" y="-446.8" font-family="Arial" font-size="14.00">Sync</text>
<text text-anchor="start" x="2294.5" y="-431.8" font-family="Arial" font-size="14.00">Add</text>
<text text-anchor="start" x="2294.5" y="-416.8" font-family="Arial" font-size="14.00">Rm</text>
<text text-anchor="start" x="2294.5" y="-401.8" font-family="Arial" font-size="14.00">Ls</text>
<text text-anchor="start" x="2294.5" y="-386.8" font-family="Arial" font-size="14.00">Tree</text>
<polygon fill="none" stroke="black" points="2282,-371 2282,-537 2447,-537 2447,-371 2282,-371"/>
</g>
<!-- ndFilesGetStatus -->
<g id="node14" class="node"><title>ndFilesGetStatus</title>
<polygon fill="lightblue" stroke="none" points="2482.5,-514 2482.5,-551 2688.5,-551 2688.5,-514 2482.5,-514"/>
<polygon fill="none" stroke="black" points="2482.5,-514 2482.5,-551 2688.5,-551 2688.5,-514 2482.5,-514"/>
<text text-anchor="start" x="2534.5" y="-529.8" font-family="Arial" font-weight="bold" font-size="14.00">FilesGetStatus</text>
<polygon fill="white" stroke="none" points="2482.5,-357 2482.5,-514 2688.5,-514 2688.5,-357 2482.5,-357"/>
<polygon fill="none" stroke="black" points="2482.5,-357 2482.5,-514 2688.5,-514 2688.5,-357 2482.5,-357"/>
<text text-anchor="start" x="2493.5" y="-491.8" font-family="Arial" font-size="14.00">+ path_remote: &amp;&#39;a Path</text>
<text text-anchor="start" x="2493.5" y="-476.8" font-family="Arial" font-size="14.00">+ path_local: &amp;&#39;b Path</text>
<text text-anchor="start" x="2493.5" y="-461.8" font-family="Arial" font-size="14.00">+ total_files: u64</text>
<text text-anchor="start" x="2493.5" y="-446.8" font-family="Arial" font-size="14.00">+ current_file: u64</text>
<text text-anchor="start" x="2493.5" y="-431.8" font-family="Arial" font-size="14.00">+ total_transfer_bytes: u64</text>
<text text-anchor="start" x="2493.5" y="-416.8" font-family="Arial" font-size="14.00">+ transfer_bytes_written: u64</text>
<text text-anchor="start" x="2493.5" y="-401.8" font-family="Arial" font-size="14.00">+ file_size: u64</text>
<text text-anchor="start" x="2493.5" y="-386.8" font-family="Arial" font-size="14.00">+ file_bytes_written: u64</text>
<text text-anchor="start" x="2493.5" y="-371.8" font-family="Arial" font-size="14.00">+ file_type: String</text>
<polygon fill="none" stroke="black" points="2481.5,-356 2481.5,-552 2689.5,-552 2689.5,-356 2481.5,-356"/>
</g>
<!-- ndFileExistsAction -->
<g id="node15" class="node"><title>ndFileExistsAction</title>
<polygon fill="yellow" stroke="none" points="2724.5,-495 2724.5,-532 3013.5,-532 3013.5,-495 2724.5,-495"/>
<polygon fill="none" stroke="black" points="2724.5,-495 2724.5,-532 3013.5,-532 3013.5,-495 2724.5,-495"/>
<text text-anchor="start" x="2813" y="-510.8" font-family="Arial" font-weight="bold" font-size="14.00">FileExistsAction</text>
<polygon fill="white" stroke="none" points="2724.5,-428 2724.5,-495 3013.5,-495 3013.5,-428 2724.5,-428"/>
<polygon fill="none" stroke="black" points="2724.5,-428 2724.5,-495 3013.5,-495 3013.5,-428 2724.5,-428"/>
<text text-anchor="start" x="2735.5" y="-472.8" font-family="Arial" font-size="14.00">Overwrite</text>
<text text-anchor="start" x="2735.5" y="-457.8" font-family="Arial" font-size="14.00">Preserve</text>
<text text-anchor="start" x="2735.5" y="-442.8" font-family="Arial" font-size="14.00">Ask</text>
<polygon fill="white" stroke="none" points="2724.5,-376 2724.5,-428 3013.5,-428 3013.5,-376 2724.5,-376"/>
<polygon fill="none" stroke="black" points="2724.5,-376 2724.5,-428 3013.5,-428 3013.5,-376 2724.5,-376"/>
<text text-anchor="start" x="2735.5" y="-405.8" font-family="Arial" font-size="14.00">&#45; default() &#45;&gt; Self</text>
<text text-anchor="start" x="2735.5" y="-390.8" font-family="Arial" font-size="14.00">&#45; from_str(str: &amp;str) &#45;&gt; Result&lt;Self, String&gt;</text>
<polygon fill="none" stroke="black" points="2723,-375 2723,-533 3014,-533 3014,-375 2723,-375"/>
</g>
<!-- ndProgressIndicator -->
<g id="node16" class="node"><title>ndProgressIndicator</title>
<polygon fill="yellow" stroke="none" points="3049.5,-495 3049.5,-532 3338.5,-532 3338.5,-495 3049.5,-495"/>
<polygon fill="none" stroke="black" points="3049.5,-495 3049.5,-532 3338.5,-532 3338.5,-495 3049.5,-495"/>
<text text-anchor="start" x="3130.5" y="-510.8" font-family="Arial" font-weight="bold" font-size="14.00">ProgressIndicator</text>
<polygon fill="white" stroke="none" points="3049.5,-428 3049.5,-495 3338.5,-495 3338.5,-428 3049.5,-428"/>
<polygon fill="none" stroke="black" points="3049.5,-428 3049.5,-495 3338.5,-495 3338.5,-428 3049.5,-428"/>
<text text-anchor="start" x="3060.5" y="-472.8" font-family="Arial" font-size="14.00">Bars</text>
<text text-anchor="start" x="3060.5" y="-457.8" font-family="Arial" font-size="14.00">Text</text>
<text text-anchor="start" x="3060.5" y="-442.8" font-family="Arial" font-size="14.00">None</text>
<polygon fill="white" stroke="none" points="3049.5,-376 3049.5,-428 3338.5,-428 3338.5,-376 3049.5,-376"/>
<polygon fill="none" stroke="black" points="3049.5,-376 3049.5,-428 3338.5,-428 3338.5,-376 3049.5,-376"/>
<text text-anchor="start" x="3060.5" y="-405.8" font-family="Arial" font-size="14.00">&#45; from_str(str: &amp;str) &#45;&gt; Result&lt;Self, String&gt;</text>
<text text-anchor="start" x="3060.5" y="-390.8" font-family="Arial" font-size="14.00">&#45; default() &#45;&gt; Self</text>
<polygon fill="none" stroke="black" points="3048,-375 3048,-533 3339,-533 3339,-375 3048,-375"/>
</g>
<!-- ndKeysSubCommands -->
<g id="node17" class="node"><title>ndKeysSubCommands</title>
<polygon fill="yellow" stroke="none" points="3374.5,-461 3374.5,-498 3539.5,-498 3539.5,-461 3374.5,-461"/>
<polygon fill="none" stroke="black" points="3374.5,-461 3374.5,-498 3539.5,-498 3539.5,-461 3374.5,-461"/>
<text text-anchor="start" x="3385.5" y="-476.8" font-family="Arial" font-weight="bold" font-size="14.00">KeysSubCommands</text>
<polygon fill="white" stroke="none" points="3374.5,-409 3374.5,-461 3539.5,-461 3539.5,-409 3374.5,-409"/>
<polygon fill="none" stroke="black" points="3374.5,-409 3374.5,-461 3539.5,-461 3539.5,-409 3374.5,-409"/>
<text text-anchor="start" x="3385.5" y="-438.8" font-family="Arial" font-size="14.00">Show</text>
<text text-anchor="start" x="3385.5" y="-423.8" font-family="Arial" font-size="14.00">Create</text>
<polygon fill="none" stroke="black" points="3373,-408.5 3373,-499.5 3540,-499.5 3540,-408.5 3373,-408.5"/>
</g>
<!-- ndConfigSubCommands -->
<g id="node18" class="node"><title>ndConfigSubCommands</title>
<polygon fill="yellow" stroke="none" points="3623.5,-165.5 3623.5,-202.5 3838.5,-202.5 3838.5,-165.5 3623.5,-165.5"/>
<polygon fill="none" stroke="black" points="3623.5,-165.5 3623.5,-202.5 3838.5,-202.5 3838.5,-165.5 3623.5,-165.5"/>
<text text-anchor="start" x="3654" y="-181.3" font-family="Arial" font-weight="bold" font-size="14.00">ConfigSubCommands</text>
<polygon fill="white" stroke="none" points="3623.5,-98.5 3623.5,-165.5 3838.5,-165.5 3838.5,-98.5 3623.5,-98.5"/>
<polygon fill="none" stroke="black" points="3623.5,-98.5 3623.5,-165.5 3838.5,-165.5 3838.5,-98.5 3623.5,-98.5"/>
<text text-anchor="start" x="3634.5" y="-143.3" font-family="Arial" font-size="14.00">Add(SettingAddCmd)</text>
<text text-anchor="start" x="3634.5" y="-128.3" font-family="Arial" font-size="14.00">Remove(SettingRemoveCmd)</text>
<text text-anchor="start" x="3634.5" y="-113.3" font-family="Arial" font-size="14.00">Clear</text>
<polygon fill="none" stroke="black" points="3622,-97.5 3622,-203.5 3839,-203.5 3839,-97.5 3622,-97.5"/>
</g>
<!-- ndSettingAddCmd -->
<g id="node19" class="node"><title>ndSettingAddCmd</title>
<polygon fill="yellow" stroke="none" points="3575.5,-454 3575.5,-491 3706.5,-491 3706.5,-454 3575.5,-454"/>
<polygon fill="none" stroke="black" points="3575.5,-454 3575.5,-491 3706.5,-491 3706.5,-454 3575.5,-454"/>
<text text-anchor="start" x="3586.5" y="-469.8" font-family="Arial" font-weight="bold" font-size="14.00">SettingAddCmd</text>
<polygon fill="white" stroke="none" points="3575.5,-417 3575.5,-454 3706.5,-454 3706.5,-417 3575.5,-417"/>
<polygon fill="none" stroke="black" points="3575.5,-417 3575.5,-454 3706.5,-454 3706.5,-417 3575.5,-417"/>
<text text-anchor="start" x="3586.5" y="-431.8" font-family="Arial" font-size="14.00">Network</text>
<polygon fill="none" stroke="black" points="3574,-416 3574,-492 3707,-492 3707,-416 3574,-416"/>
</g>
<!-- ndSettingAddCmd&#45;&gt;ndConfigSubCommands -->
<g id="edge4" class="edge"><title>ndSettingAddCmd&#45;&gt;ndConfigSubCommands</title>
<path fill="none" stroke="black" d="M3652.83,-411.71C3667.6,-362.221 3692.56,-278.585 3710.2,-219.509"/>
<polygon fill="black" stroke="black" points="3710.3,-219.167 3708.18,-212.274 3713.73,-207.669 3715.85,-214.562 3710.3,-219.167"/>
</g>
<!-- ndSettingRemoveCmd -->
<g id="node20" class="node"><title>ndSettingRemoveCmd</title>
<polygon fill="yellow" stroke="none" points="3741.5,-454 3741.5,-491 3901.5,-491 3901.5,-454 3741.5,-454"/>
<polygon fill="none" stroke="black" points="3741.5,-454 3741.5,-491 3901.5,-491 3901.5,-454 3741.5,-454"/>
<text text-anchor="start" x="3752.5" y="-469.8" font-family="Arial" font-weight="bold" font-size="14.00">SettingRemoveCmd</text>
<polygon fill="white" stroke="none" points="3741.5,-417 3741.5,-454 3901.5,-454 3901.5,-417 3741.5,-417"/>
<polygon fill="none" stroke="black" points="3741.5,-417 3741.5,-454 3901.5,-454 3901.5,-417 3741.5,-417"/>
<text text-anchor="start" x="3752.5" y="-431.8" font-family="Arial" font-size="14.00">Network</text>
<polygon fill="none" stroke="black" points="3740.5,-416 3740.5,-492 3902.5,-492 3902.5,-416 3740.5,-416"/>
</g>
<!-- ndSettingRemoveCmd&#45;&gt;ndConfigSubCommands -->
<g id="edge5" class="edge"><title>ndSettingRemoveCmd&#45;&gt;ndConfigSubCommands</title>
<path fill="none" stroke="black" d="M3809.04,-411.71C3794.1,-362.221 3768.86,-278.585 3751.03,-219.509"/>
<polygon fill="black" stroke="black" points="3750.92,-219.157 3745.36,-214.568 3747.45,-207.669 3753.02,-212.257 3750.92,-219.157"/>
</g>
<!-- ndSetupSubCommands -->
<g id="node21" class="node"><title>ndSetupSubCommands</title>
<polygon fill="yellow" stroke="none" points="3937.5,-454 3937.5,-491 4107.5,-491 4107.5,-454 3937.5,-454"/>
<polygon fill="none" stroke="black" points="3937.5,-454 3937.5,-491 4107.5,-491 4107.5,-454 3937.5,-454"/>
<text text-anchor="start" x="3948.5" y="-469.8" font-family="Arial" font-weight="bold" font-size="14.00">SetupSubCommands</text>
<polygon fill="white" stroke="none" points="3937.5,-417 3937.5,-454 4107.5,-454 4107.5,-417 3937.5,-417"/>
<polygon fill="none" stroke="black" points="3937.5,-417 3937.5,-454 4107.5,-454 4107.5,-417 3937.5,-417"/>
<text text-anchor="start" x="3948.5" y="-431.8" font-family="Arial" font-size="14.00">Completions</text>
<polygon fill="none" stroke="black" points="3936.5,-416 3936.5,-492 4108.5,-492 4108.5,-416 3936.5,-416"/>
</g>
<!-- ndEnvironment -->
<g id="node22" class="node"><title>ndEnvironment</title>
<polygon fill="lightblue" stroke="none" points="4143.5,-461 4143.5,-498 4421.5,-498 4421.5,-461 4143.5,-461"/>
<polygon fill="none" stroke="black" points="4143.5,-461 4143.5,-498 4421.5,-498 4421.5,-461 4143.5,-461"/>
<text text-anchor="start" x="4237.5" y="-476.8" font-family="Arial" font-weight="bold" font-size="14.00">Environment</text>
<polygon fill="white" stroke="none" points="4143.5,-409 4143.5,-461 4421.5,-461 4421.5,-409 4143.5,-409"/>
<polygon fill="none" stroke="black" points="4143.5,-409 4143.5,-461 4421.5,-461 4421.5,-409 4143.5,-409"/>
<text text-anchor="start" x="4154.5" y="-438.8" font-family="Arial" font-size="14.00">&#45; safe_auth_passphrase: Option&lt;String&gt;</text>
<text text-anchor="start" x="4154.5" y="-423.8" font-family="Arial" font-size="14.00">&#45; safe_auth_password: Option&lt;String&gt;</text>
<polygon fill="none" stroke="black" points="4142.5,-408.5 4142.5,-499.5 4422.5,-499.5 4422.5,-408.5 4142.5,-408.5"/>
</g>
<!-- ndSafeSeed -->
<g id="node23" class="node"><title>ndSafeSeed</title>
<polygon fill="lightblue" stroke="none" points="4458.5,-461 4458.5,-498 4611.5,-498 4611.5,-461 4458.5,-461"/>
<polygon fill="none" stroke="black" points="4458.5,-461 4458.5,-498 4611.5,-498 4611.5,-461 4458.5,-461"/>
<text text-anchor="start" x="4501.5" y="-476.8" font-family="Arial" font-weight="bold" font-size="14.00">SafeSeed</text>
<polygon fill="white" stroke="none" points="4458.5,-409 4458.5,-461 4611.5,-461 4611.5,-409 4458.5,-409"/>
<polygon fill="none" stroke="black" points="4458.5,-409 4458.5,-461 4611.5,-461 4611.5,-409 4458.5,-409"/>
<text text-anchor="start" x="4469.5" y="-438.8" font-family="Arial" font-size="14.00">+ passphrase: String</text>
<text text-anchor="start" x="4469.5" y="-423.8" font-family="Arial" font-size="14.00">+ password: String</text>
<polygon fill="none" stroke="black" points="4457,-408.5 4457,-499.5 4612,-499.5 4612,-408.5 4457,-408.5"/>
</g>
<!-- ndNetworkLauncher -->
<g id="node24" class="node"><title>ndNetworkLauncher</title>
<polygon fill="lightgreen" stroke="none" points="4647.5,-454 4647.5,-491 5024.5,-491 5024.5,-454 4647.5,-454"/>
<polygon fill="none" stroke="black" points="4647.5,-454 4647.5,-491 5024.5,-491 5024.5,-454 4647.5,-454"/>
<text text-anchor="start" x="4774" y="-469.8" font-family="Arial" font-weight="bold" font-size="14.00">NetworkLauncher</text>
<polygon fill="white" stroke="none" points="4647.5,-417 4647.5,-454 5024.5,-454 5024.5,-417 4647.5,-417"/>
<polygon fill="none" stroke="black" points="4647.5,-417 4647.5,-454 5024.5,-454 5024.5,-417 4647.5,-417"/>
<text text-anchor="start" x="4658.5" y="-431.8" font-family="Arial" font-size="14.00">launch(&amp;mut Self, Vec&lt;&amp;str&gt;, u64) &#45;&gt; Result&lt;(), Report&gt;</text>
<polygon fill="none" stroke="black" points="4646,-416 4646,-492 5025,-492 5025,-416 4646,-416"/>
</g>
<!-- ndSnLaunchToolNetworkLauncher -->
<g id="node25" class="node"><title>ndSnLaunchToolNetworkLauncher</title>
<polygon fill="lightblue" stroke="none" points="4600.5,-150.5 4600.5,-187.5 5070.5,-187.5 5070.5,-150.5 4600.5,-150.5"/>
<polygon fill="none" stroke="black" points="4600.5,-150.5 4600.5,-187.5 5070.5,-187.5 5070.5,-150.5 4600.5,-150.5"/>
<text text-anchor="start" x="4722.5" y="-166.3" font-family="Arial" font-weight="bold" font-size="14.00">SnLaunchToolNetworkLauncher</text>
<polygon fill="white" stroke="none" points="4600.5,-113.5 4600.5,-150.5 5070.5,-150.5 5070.5,-113.5 4600.5,-113.5"/>
<polygon fill="none" stroke="black" points="4600.5,-113.5 4600.5,-150.5 5070.5,-150.5 5070.5,-113.5 4600.5,-113.5"/>
<text text-anchor="start" x="4611.5" y="-128.3" font-family="Arial" font-size="14.00">&#45; launch(&amp;mut self, args: Vec&lt;&amp;str&gt;, interval: u64) &#45;&gt; Result&lt;(), Report&gt;</text>
<polygon fill="none" stroke="black" points="4599.5,-112.5 4599.5,-188.5 5071.5,-188.5 5071.5,-112.5 4599.5,-112.5"/>
</g>
<!-- ndNetworkLauncher&#45;&gt;ndSnLaunchToolNetworkLauncher -->
<g id="edge6" class="edge"><title>ndNetworkLauncher&#45;&gt;ndSnLaunchToolNetworkLauncher</title>
<path fill="none" stroke="black" stroke-dasharray="5,2" d="M4835.5,-411.71C4835.5,-357.395 4835.5,-261.951 4835.5,-202.984"/>
<polygon fill="none" stroke="black" points="4839,-202.774 4835.5,-192.774 4832,-202.774 4839,-202.774"/>
</g>
<!-- ndNetworkInfo -->
<g id="node26" class="node"><title>ndNetworkInfo</title>
<polygon fill="yellow" stroke="none" points="5154.5,-487 5154.5,-524 5510.5,-524 5510.5,-487 5154.5,-487"/>
<polygon fill="none" stroke="black" points="5154.5,-487 5154.5,-524 5510.5,-524 5510.5,-487 5154.5,-487"/>
<text text-anchor="start" x="5290.5" y="-502.8" font-family="Arial" font-weight="bold" font-size="14.00">NetworkInfo</text>
<polygon fill="white" stroke="none" points="5154.5,-435 5154.5,-487 5510.5,-487 5510.5,-435 5154.5,-435"/>
<polygon fill="none" stroke="black" points="5154.5,-435 5154.5,-487 5510.5,-487 5510.5,-435 5154.5,-435"/>
<text text-anchor="start" x="5165.5" y="-464.8" font-family="Arial" font-size="14.00">NodeConfig(NodeConfig)</text>
<text text-anchor="start" x="5165.5" y="-449.8" font-family="Arial" font-size="14.00">ConnInfoLocation(String)</text>
<polygon fill="white" stroke="none" points="5154.5,-383 5154.5,-435 5510.5,-435 5510.5,-383 5154.5,-383"/>
<polygon fill="none" stroke="black" points="5154.5,-383 5154.5,-435 5510.5,-435 5510.5,-383 5154.5,-383"/>
<text text-anchor="start" x="5165.5" y="-412.8" font-family="Arial" font-size="14.00">&#45; fmt(&amp;self, f: &amp;mut fmt::Formatter&lt;&#39;_&gt;) &#45;&gt; fmt::Result</text>
<text text-anchor="start" x="5165.5" y="-397.8" font-family="Arial" font-size="14.00">&#45; matches(&amp;self, node_config: &amp;NodeConfig) &#45;&gt; bool</text>
<polygon fill="none" stroke="black" points="5153.5,-382.5 5153.5,-525.5 5511.5,-525.5 5511.5,-382.5 5153.5,-382.5"/>
</g>
<!-- ndConfig -->
<g id="node28" class="node"><title>ndConfig</title>
<polygon fill="lightblue" stroke="none" points="5107.5,-258.5 5107.5,-295.5 5746.5,-295.5 5746.5,-258.5 5107.5,-258.5"/>
<polygon fill="none" stroke="black" points="5107.5,-258.5 5107.5,-295.5 5746.5,-295.5 5746.5,-258.5 5107.5,-258.5"/>
<text text-anchor="start" x="5404" y="-274.3" font-family="Arial" font-weight="bold" font-size="14.00">Config</text>
<polygon fill="white" stroke="none" points="5107.5,-191.5 5107.5,-258.5 5746.5,-258.5 5746.5,-191.5 5107.5,-191.5"/>
<polygon fill="none" stroke="black" points="5107.5,-191.5 5107.5,-258.5 5746.5,-258.5 5746.5,-191.5 5107.5,-191.5"/>
<text text-anchor="start" x="5118.5" y="-236.3" font-family="Arial" font-size="14.00">&#45; settings: Settings</text>
<text text-anchor="start" x="5118.5" y="-221.3" font-family="Arial" font-size="14.00">+ cli_config_path: PathBuf</text>
<text text-anchor="start" x="5118.5" y="-206.3" font-family="Arial" font-size="14.00">+ node_config_path: PathBuf</text>
<polygon fill="white" stroke="none" points="5107.5,-4.5 5107.5,-191.5 5746.5,-191.5 5746.5,-4.5 5107.5,-4.5"/>
<polygon fill="none" stroke="black" points="5107.5,-4.5 5107.5,-191.5 5746.5,-191.5 5746.5,-4.5 5107.5,-4.5"/>
<text text-anchor="start" x="5118.5" y="-169.3" font-family="Arial" font-size="14.00">&#45; new(cli_config_path: PathBuf, node_config_path: PathBuf) &#45;&gt; Result&lt;Config&gt;</text>
<text text-anchor="start" x="5118.5" y="-154.3" font-family="Arial" font-size="14.00">&#45; read_current_node_config(&amp;self) &#45;&gt; Result&lt;(PathBuf, NodeConfig)&gt;</text>
<text text-anchor="start" x="5118.5" y="-139.3" font-family="Arial" font-size="14.00">&#45; get_network_info(&amp;self, name: &amp;str) &#45;&gt; Result&lt;NodeConfig&gt;</text>
<text text-anchor="start" x="5118.5" y="-124.3" font-family="Arial" font-size="14.00">&#45; networks_iter(&amp;self) &#45;&gt; impl Iterator&lt;Item = (&amp;String, &amp;NetworkInfo)&gt;</text>
<text text-anchor="start" x="5118.5" y="-109.3" font-family="Arial" font-size="14.00">&#45; add_network(&amp;mut self, name: &amp;str, net_info: Option&lt;NetworkInfo&gt;) &#45;&gt; Result&lt;NetworkInfo&gt;</text>
<text text-anchor="start" x="5118.5" y="-94.3" font-family="Arial" font-size="14.00">&#45; remove_network(&amp;mut self, name: &amp;str) &#45;&gt; Result&lt;()&gt;</text>
<text text-anchor="start" x="5118.5" y="-79.3" font-family="Arial" font-size="14.00">&#45; clear(&amp;mut self) &#45;&gt; Result&lt;()&gt;</text>
<text text-anchor="start" x="5118.5" y="-64.3" font-family="Arial" font-size="14.00">&#45; switch_to_network(&amp;self, name: &amp;str) &#45;&gt; Result&lt;()&gt;</text>
<text text-anchor="start" x="5118.5" y="-49.3" font-family="Arial" font-size="14.00">&#45; print_networks(&amp;self)</text>
<text text-anchor="start" x="5118.5" y="-34.3" font-family="Arial" font-size="14.00">&#45; cache_node_config(&amp;self, network_name: &amp;str, node_config: &amp;NodeConfig) &#45;&gt; Result&lt;PathBuf&gt;</text>
<text text-anchor="start" x="5118.5" y="-19.3" font-family="Arial" font-size="14.00">&#45; write_settings_to_file(&amp;self) &#45;&gt; Result&lt;()&gt;</text>
<polygon fill="none" stroke="black" points="5106,-4 5106,-297 5747,-297 5747,-4 5106,-4"/>
</g>
<!-- ndNetworkInfo&#45;&gt;ndConfig -->
<g id="edge7" class="edge"><title>ndNetworkInfo&#45;&gt;ndConfig</title>
<path fill="none" stroke="black" d="M5355.74,-378.472C5362.19,-357.781 5369.45,-334.491 5376.8,-310.917"/>
<polygon fill="black" stroke="black" points="5379.84,-301.163 5381.16,-312.049 5378.35,-305.937 5376.86,-310.71 5376.86,-310.71 5376.86,-310.71 5378.35,-305.937 5372.57,-309.37 5379.84,-301.163 5379.84,-301.163"/>
</g>
<!-- ndSettings -->
<g id="node27" class="node"><title>ndSettings</title>
<polygon fill="lightblue" stroke="none" points="5547.5,-454 5547.5,-491 5844.5,-491 5844.5,-454 5547.5,-454"/>
<polygon fill="none" stroke="black" points="5547.5,-454 5547.5,-491 5844.5,-491 5844.5,-454 5547.5,-454"/>
<text text-anchor="start" x="5667" y="-469.8" font-family="Arial" font-weight="bold" font-size="14.00">Settings</text>
<polygon fill="white" stroke="none" points="5547.5,-417 5547.5,-454 5844.5,-454 5844.5,-417 5547.5,-417"/>
<polygon fill="none" stroke="black" points="5547.5,-417 5547.5,-454 5844.5,-454 5844.5,-417 5547.5,-417"/>
<text text-anchor="start" x="5558.5" y="-431.8" font-family="Arial" font-size="14.00">&#45; networks: BTreeMap&lt;String, NetworkInfo&gt;</text>
<polygon fill="none" stroke="black" points="5546,-416 5546,-492 5845,-492 5845,-416 5546,-416"/>
</g>
<!-- ndSettings&#45;&gt;ndConfig -->
<g id="edge8" class="edge"><title>ndSettings&#45;&gt;ndConfig</title>
<path fill="none" stroke="black" d="M5658.66,-411.71C5634.68,-384.835 5601.72,-347.89 5568.16,-310.276"/>
<polygon fill="black" stroke="black" points="5568.07,-310.176 5561.09,-308.362 5560.08,-301.222 5567.06,-303.036 5568.07,-310.176"/>
</g>
</g>
</svg>
