<?xml version="1.0" encoding="UTF-8" standalone="no"?>
<!DOCTYPE svg PUBLIC "-//W3C//DTD SVG 1.1//EN"
 "http://www.w3.org/Graphics/SVG/1.1/DTD/svg11.dtd">
<!-- Generated by graphviz version 2.38.0 (20140413.2041)
 -->
<!-- Title: ml Pages: 1 -->
<svg width="4924pt" height="437pt"
 viewBox="0.00 0.00 4924.00 437.00" xmlns="http://www.w3.org/2000/svg" xmlns:xlink="http://www.w3.org/1999/xlink">
<g id="graph0" class="graph" transform="scale(1 1) rotate(0) translate(4 433)">
<title>ml</title>
<polygon fill="white" stroke="none" points="-4,4 -4,-433 4920,-433 4920,4 -4,4"/>
<!-- ndCmdArgs -->
<g id="node1" class="node"><title>ndCmdArgs</title>
<polygon fill="lightblue" stroke="none" points="50.5,-116.5 50.5,-153.5 294.5,-153.5 294.5,-116.5 50.5,-116.5"/>
<polygon fill="none" stroke="black" points="50.5,-116.5 50.5,-153.5 294.5,-153.5 294.5,-116.5 50.5,-116.5"/>
<text text-anchor="start" x="139.5" y="-132.3" font-family="Arial" font-weight="bold" font-size="14.00">CmdArgs</text>
<polygon fill="white" stroke="none" points="50.5,-4.5 50.5,-116.5 294.5,-116.5 294.5,-4.5 50.5,-4.5"/>
<polygon fill="none" stroke="black" points="50.5,-4.5 50.5,-116.5 294.5,-116.5 294.5,-4.5 50.5,-4.5"/>
<text text-anchor="start" x="61.5" y="-94.3" font-family="Arial" font-size="14.00">+ cmd: Option&lt;SubCommands&gt;</text>
<text text-anchor="start" x="61.5" y="-79.3" font-family="Arial" font-size="14.00">&#45; output_fmt: Option&lt;OutputFmt&gt;</text>
<text text-anchor="start" x="61.5" y="-64.3" font-family="Arial" font-size="14.00">&#45; output_json: bool</text>
<text text-anchor="start" x="61.5" y="-49.3" font-family="Arial" font-size="14.00">&#45; dry: bool</text>
<text text-anchor="start" x="61.5" y="-34.3" font-family="Arial" font-size="14.00">&#45; xorurl_base: Option&lt;XorUrlBase&gt;</text>
<text text-anchor="start" x="61.5" y="-19.3" font-family="Arial" font-size="14.00">+ endpoint: Option&lt;String&gt;</text>
<polygon fill="none" stroke="black" points="49.5,-4 49.5,-155 295.5,-155 295.5,-4 49.5,-4"/>
</g>
<!-- ndSafeIdSubCommands -->
<g id="node2" class="node"><title>ndSafeIdSubCommands</title>
<polygon fill="yellow" stroke="none" points="441.5,-319 441.5,-356 614.5,-356 614.5,-319 441.5,-319"/>
<polygon fill="none" stroke="black" points="441.5,-319 441.5,-356 614.5,-356 614.5,-319 441.5,-319"/>
<text text-anchor="start" x="452.5" y="-334.8" font-family="Arial" font-weight="bold" font-size="14.00">SafeIdSubCommands</text>
<polygon fill="white" stroke="none" points="441.5,-267 441.5,-319 614.5,-319 614.5,-267 441.5,-267"/>
<polygon fill="none" stroke="black" points="441.5,-267 441.5,-319 614.5,-319 614.5,-267 441.5,-267"/>
<text text-anchor="start" x="452.5" y="-296.8" font-family="Arial" font-size="14.00">Create</text>
<text text-anchor="start" x="452.5" y="-281.8" font-family="Arial" font-size="14.00">Update</text>
<polygon fill="none" stroke="black" points="440,-266.5 440,-357.5 615,-357.5 615,-266.5 440,-266.5"/>
</g>
<!-- ndNrsSubCommands -->
<g id="node3" class="node"><title>ndNrsSubCommands</title>
<polygon fill="yellow" stroke="none" points="650.5,-327 650.5,-364 804.5,-364 804.5,-327 650.5,-327"/>
<polygon fill="none" stroke="black" points="650.5,-327 650.5,-364 804.5,-364 804.5,-327 650.5,-327"/>
<text text-anchor="start" x="661.5" y="-342.8" font-family="Arial" font-weight="bold" font-size="14.00">NrsSubCommands</text>
<polygon fill="white" stroke="none" points="650.5,-260 650.5,-327 804.5,-327 804.5,-260 650.5,-260"/>
<polygon fill="none" stroke="black" points="650.5,-260 650.5,-327 804.5,-327 804.5,-260 650.5,-260"/>
<text text-anchor="start" x="661.5" y="-304.8" font-family="Arial" font-size="14.00">Add</text>
<text text-anchor="start" x="661.5" y="-289.8" font-family="Arial" font-size="14.00">Create</text>
<text text-anchor="start" x="661.5" y="-274.8" font-family="Arial" font-size="14.00">Remove</text>
<polygon fill="none" stroke="black" points="649.5,-259 649.5,-365 805.5,-365 805.5,-259 649.5,-259"/>
</g>
<!-- ndNetworksSubCommands -->
<g id="node4" class="node"><title>ndNetworksSubCommands</title>
<polygon fill="yellow" stroke="none" points="841.5,-342 841.5,-379 1036.5,-379 1036.5,-342 841.5,-342"/>
<polygon fill="none" stroke="black" points="841.5,-342 841.5,-379 1036.5,-379 1036.5,-342 841.5,-342"/>
<text text-anchor="start" x="852.5" y="-357.8" font-family="Arial" font-weight="bold" font-size="14.00">NetworksSubCommands</text>
<polygon fill="white" stroke="none" points="841.5,-245 841.5,-342 1036.5,-342 1036.5,-245 841.5,-245"/>
<polygon fill="none" stroke="black" points="841.5,-245 841.5,-342 1036.5,-342 1036.5,-245 841.5,-245"/>
<text text-anchor="start" x="852.5" y="-319.8" font-family="Arial" font-size="14.00">Switch</text>
<text text-anchor="start" x="852.5" y="-304.8" font-family="Arial" font-size="14.00">Check</text>
<text text-anchor="start" x="852.5" y="-289.8" font-family="Arial" font-size="14.00">Add</text>
<text text-anchor="start" x="852.5" y="-274.8" font-family="Arial" font-size="14.00">Set</text>
<text text-anchor="start" x="852.5" y="-259.8" font-family="Arial" font-size="14.00">Remove</text>
<polygon fill="none" stroke="black" points="840,-244 840,-380 1037,-380 1037,-244 840,-244"/>
</g>
<!-- ndNodeSubCommands -->
<g id="node5" class="node"><title>ndNodeSubCommands</title>
<polygon fill="yellow" stroke="none" points="1072.5,-349 1072.5,-386 1238.5,-386 1238.5,-349 1072.5,-349"/>
<polygon fill="none" stroke="black" points="1072.5,-349 1072.5,-386 1238.5,-386 1238.5,-349 1072.5,-349"/>
<text text-anchor="start" x="1083.5" y="-364.8" font-family="Arial" font-weight="bold" font-size="14.00">NodeSubCommands</text>
<polygon fill="white" stroke="none" points="1072.5,-237 1072.5,-349 1238.5,-349 1238.5,-237 1072.5,-237"/>
<polygon fill="none" stroke="black" points="1072.5,-237 1072.5,-349 1238.5,-349 1238.5,-237 1072.5,-237"/>
<text text-anchor="start" x="1083.5" y="-326.8" font-family="Arial" font-size="14.00">BinVersion</text>
<text text-anchor="start" x="1083.5" y="-311.8" font-family="Arial" font-size="14.00">Install</text>
<text text-anchor="start" x="1083.5" y="-296.8" font-family="Arial" font-size="14.00">Join</text>
<text text-anchor="start" x="1083.5" y="-281.8" font-family="Arial" font-size="14.00">Run</text>
<text text-anchor="start" x="1083.5" y="-266.8" font-family="Arial" font-size="14.00">Killall</text>
<text text-anchor="start" x="1083.5" y="-251.8" font-family="Arial" font-size="14.00">Update</text>
<polygon fill="none" stroke="black" points="1071.5,-236.5 1071.5,-387.5 1239.5,-387.5 1239.5,-236.5 1071.5,-236.5"/>
</g>
<!-- ndOutputFmt -->
<g id="node6" class="node"><title>ndOutputFmt</title>
<polygon fill="yellow" stroke="none" points="9.5,-334 9.5,-371 120.5,-371 120.5,-334 9.5,-334"/>
<polygon fill="none" stroke="black" points="9.5,-334 9.5,-371 120.5,-371 120.5,-334 9.5,-334"/>
<text text-anchor="start" x="28" y="-349.8" font-family="Arial" font-weight="bold" font-size="14.00">OutputFmt</text>
<polygon fill="white" stroke="none" points="9.5,-252 9.5,-334 120.5,-334 120.5,-252 9.5,-252"/>
<polygon fill="none" stroke="black" points="9.5,-252 9.5,-334 120.5,-334 120.5,-252 9.5,-252"/>
<text text-anchor="start" x="20.5" y="-311.8" font-family="Arial" font-size="14.00">Pretty</text>
<text text-anchor="start" x="20.5" y="-296.8" font-family="Arial" font-size="14.00">Json</text>
<text text-anchor="start" x="20.5" y="-281.8" font-family="Arial" font-size="14.00">JsonCompact</text>
<text text-anchor="start" x="20.5" y="-266.8" font-family="Arial" font-size="14.00">Yaml</text>
<polygon fill="none" stroke="black" points="8,-251.5 8,-372.5 121,-372.5 121,-251.5 8,-251.5"/>
</g>
<!-- ndOutputFmt&#45;&gt;ndCmdArgs -->
<g id="edge1" class="edge"><title>ndOutputFmt&#45;&gt;ndCmdArgs</title>
<path fill="none" stroke="black" d="M94.2974,-247.405C105.497,-223.502 118.448,-195.862 130.548,-170.037"/>
<polygon fill="black" stroke="black" points="130.583,-169.962 129.506,-162.832 135.674,-159.096 136.75,-166.226 130.583,-169.962"/>
</g>
<!-- ndSubCommands -->
<g id="node7" class="node"><title>ndSubCommands</title>
<polygon fill="yellow" stroke="none" points="156.5,-387 156.5,-424 404.5,-424 404.5,-387 156.5,-387"/>
<polygon fill="none" stroke="black" points="156.5,-387 156.5,-424 404.5,-424 404.5,-387 156.5,-387"/>
<text text-anchor="start" x="226.5" y="-402.8" font-family="Arial" font-weight="bold" font-size="14.00">SubCommands</text>
<polygon fill="white" stroke="none" points="156.5,-200 156.5,-387 404.5,-387 404.5,-200 156.5,-200"/>
<polygon fill="none" stroke="black" points="156.5,-200 156.5,-387 404.5,-387 404.5,-200 156.5,-200"/>
<text text-anchor="start" x="167.5" y="-364.8" font-family="Arial" font-size="14.00">Config</text>
<text text-anchor="start" x="167.5" y="-349.8" font-family="Arial" font-size="14.00">Networks</text>
<text text-anchor="start" x="167.5" y="-334.8" font-family="Arial" font-size="14.00">Cat(cat::CatCommands)</text>
<text text-anchor="start" x="167.5" y="-319.8" font-family="Arial" font-size="14.00">Dog(dog::DogCommands)</text>
<text text-anchor="start" x="167.5" y="-304.8" font-family="Arial" font-size="14.00">Files(files::FilesSubCommands)</text>
<text text-anchor="start" x="167.5" y="-289.8" font-family="Arial" font-size="14.00">Setup(setup::SetupSubCommands)</text>
<text text-anchor="start" x="167.5" y="-274.8" font-family="Arial" font-size="14.00">Nrs(nrs::NrsSubCommands)</text>
<text text-anchor="start" x="167.5" y="-259.8" font-family="Arial" font-size="14.00">Keys(keys::KeysSubCommands)</text>
<text text-anchor="start" x="167.5" y="-244.8" font-family="Arial" font-size="14.00">Xorurl</text>
<text text-anchor="start" x="167.5" y="-229.8" font-family="Arial" font-size="14.00">Update</text>
<text text-anchor="start" x="167.5" y="-214.8" font-family="Arial" font-size="14.00">Node</text>
<polygon fill="none" stroke="black" points="155.5,-199 155.5,-425 405.5,-425 405.5,-199 155.5,-199"/>
</g>
<!-- ndSubCommands&#45;&gt;ndCmdArgs -->
<g id="edge2" class="edge"><title>ndSubCommands&#45;&gt;ndCmdArgs</title>
<path fill="none" stroke="black" d="M226.025,-194.737C222.133,-186.43 218.244,-178.129 214.439,-170.008"/>
<polygon fill="black" stroke="black" points="214.401,-169.928 208.234,-166.192 209.31,-159.062 215.478,-162.798 214.401,-169.928"/>
</g>
<!-- ndCatCommands -->
<g id="node8" class="node"><title>ndCatCommands</title>
<polygon fill="lightblue" stroke="none" points="1274.5,-319 1274.5,-356 1456.5,-356 1456.5,-319 1274.5,-319"/>
<polygon fill="none" stroke="black" points="1274.5,-319 1274.5,-356 1456.5,-356 1456.5,-319 1274.5,-319"/>
<text text-anchor="start" x="1314" y="-334.8" font-family="Arial" font-weight="bold" font-size="14.00">CatCommands</text>
<polygon fill="white" stroke="none" points="1274.5,-267 1274.5,-319 1456.5,-319 1456.5,-267 1274.5,-267"/>
<polygon fill="none" stroke="black" points="1274.5,-267 1274.5,-319 1456.5,-319 1456.5,-267 1274.5,-267"/>
<text text-anchor="start" x="1285.5" y="-296.8" font-family="Arial" font-size="14.00">&#45; location: Option&lt;String&gt;</text>
<text text-anchor="start" x="1285.5" y="-281.8" font-family="Arial" font-size="14.00">&#45; hexdump: bool</text>
<polygon fill="none" stroke="black" points="1273.5,-266.5 1273.5,-357.5 1457.5,-357.5 1457.5,-266.5 1273.5,-266.5"/>
</g>
<!-- ndDogCommands -->
<g id="node9" class="node"><title>ndDogCommands</title>
<polygon fill="lightblue" stroke="none" points="1492.5,-312 1492.5,-349 1674.5,-349 1674.5,-312 1492.5,-312"/>
<polygon fill="none" stroke="black" points="1492.5,-312 1492.5,-349 1674.5,-349 1674.5,-312 1492.5,-312"/>
<text text-anchor="start" x="1529" y="-327.8" font-family="Arial" font-weight="bold" font-size="14.00">DogCommands</text>
<polygon fill="white" stroke="none" points="1492.5,-275 1492.5,-312 1674.5,-312 1674.5,-275 1492.5,-275"/>
<polygon fill="none" stroke="black" points="1492.5,-275 1492.5,-312 1674.5,-312 1674.5,-275 1492.5,-275"/>
<text text-anchor="start" x="1503.5" y="-289.8" font-family="Arial" font-size="14.00">&#45; location: Option&lt;String&gt;</text>
<polygon fill="none" stroke="black" points="1491.5,-274 1491.5,-350 1675.5,-350 1675.5,-274 1491.5,-274"/>
</g>
<!-- ndXorurlSubCommands -->
<g id="node10" class="node"><title>ndXorurlSubCommands</title>
<polygon fill="yellow" stroke="none" points="1711.5,-319 1711.5,-356 1884.5,-356 1884.5,-319 1711.5,-319"/>
<polygon fill="none" stroke="black" points="1711.5,-319 1711.5,-356 1884.5,-356 1884.5,-319 1711.5,-319"/>
<text text-anchor="start" x="1722.5" y="-334.8" font-family="Arial" font-weight="bold" font-size="14.00">XorurlSubCommands</text>
<polygon fill="white" stroke="none" points="1711.5,-267 1711.5,-319 1884.5,-319 1884.5,-267 1711.5,-267"/>
<polygon fill="none" stroke="black" points="1711.5,-267 1711.5,-319 1884.5,-319 1884.5,-267 1711.5,-267"/>
<text text-anchor="start" x="1722.5" y="-296.8" font-family="Arial" font-size="14.00">Decode</text>
<text text-anchor="start" x="1722.5" y="-281.8" font-family="Arial" font-size="14.00">Pk</text>
<polygon fill="none" stroke="black" points="1710,-266.5 1710,-357.5 1885,-357.5 1885,-266.5 1710,-266.5"/>
</g>
<!-- ndFileTreeNodeType -->
<g id="node11" class="node"><title>ndFileTreeNodeType</title>
<polygon fill="yellow" stroke="none" points="1920.5,-327 1920.5,-364 2069.5,-364 2069.5,-327 1920.5,-327"/>
<polygon fill="none" stroke="black" points="1920.5,-327 1920.5,-364 2069.5,-364 2069.5,-327 1920.5,-327"/>
<text text-anchor="start" x="1931.5" y="-342.8" font-family="Arial" font-weight="bold" font-size="14.00">FileTreeNodeType</text>
<polygon fill="white" stroke="none" points="1920.5,-260 1920.5,-327 2069.5,-327 2069.5,-260 1920.5,-260"/>
<polygon fill="none" stroke="black" points="1920.5,-260 1920.5,-327 2069.5,-327 2069.5,-260 1920.5,-260"/>
<text text-anchor="start" x="1931.5" y="-304.8" font-family="Arial" font-size="14.00">File</text>
<text text-anchor="start" x="1931.5" y="-289.8" font-family="Arial" font-size="14.00">Directory</text>
<text text-anchor="start" x="1931.5" y="-274.8" font-family="Arial" font-size="14.00">Symlink</text>
<polygon fill="none" stroke="black" points="1919,-259 1919,-365 2070,-365 2070,-259 1919,-259"/>
</g>
<!-- ndFileTreeNode -->
<g id="node12" class="node"><title>ndFileTreeNode</title>
<polygon fill="lightblue" stroke="none" points="1892.5,-101.5 1892.5,-138.5 2096.5,-138.5 2096.5,-101.5 1892.5,-101.5"/>
<polygon fill="none" stroke="black" points="1892.5,-101.5 1892.5,-138.5 2096.5,-138.5 2096.5,-101.5 1892.5,-101.5"/>
<text text-anchor="start" x="1948" y="-117.3" font-family="Arial" font-weight="bold" font-size="14.00">FileTreeNode</text>
<polygon fill="white" stroke="none" points="1892.5,-19.5 1892.5,-101.5 2096.5,-101.5 2096.5,-19.5 1892.5,-19.5"/>
<polygon fill="none" stroke="black" points="1892.5,-19.5 1892.5,-101.5 2096.5,-101.5 2096.5,-19.5 1892.5,-19.5"/>
<text text-anchor="start" x="1903.5" y="-79.3" font-family="Arial" font-size="14.00">&#45; name: String</text>
<text text-anchor="start" x="1903.5" y="-64.3" font-family="Arial" font-size="14.00">&#45; fs_type: FileTreeNodeType</text>
<text text-anchor="start" x="1903.5" y="-49.3" font-family="Arial" font-size="14.00">&#45; details: FileDetails</text>
<text text-anchor="start" x="1903.5" y="-34.3" font-family="Arial" font-size="14.00">&#45; sub: Vec&lt;FileTreeNode&gt;</text>
<polygon fill="none" stroke="black" points="1891.5,-19 1891.5,-140 2097.5,-140 2097.5,-19 1891.5,-19"/>
</g>
<!-- ndFileTreeNodeType&#45;&gt;ndFileTreeNode -->
<g id="edge3" class="edge"><title>ndFileTreeNodeType&#45;&gt;ndFileTreeNode</title>
<path fill="none" stroke="black" stroke-dasharray="5,2" d="M1994.5,-254.908C1994.5,-225.249 1994.5,-188.419 1994.5,-156.256"/>
<polygon fill="black" stroke="black" points="1994.5,-156.183 1990.5,-150.183 1994.5,-144.183 1998.5,-150.183 1994.5,-156.183"/>
</g>
<!-- ndFilesSubCommands -->
<g id="node13" class="node"><title>ndFilesSubCommands</title>
<polygon fill="yellow" stroke="none" points="2105.5,-357 2105.5,-394 2268.5,-394 2268.5,-357 2105.5,-357"/>
<polygon fill="none" stroke="black" points="2105.5,-357 2105.5,-394 2268.5,-394 2268.5,-357 2105.5,-357"/>
<text text-anchor="start" x="2116.5" y="-372.8" font-family="Arial" font-weight="bold" font-size="14.00">FilesSubCommands</text>
<polygon fill="white" stroke="none" points="2105.5,-230 2105.5,-357 2268.5,-357 2268.5,-230 2105.5,-230"/>
<polygon fill="none" stroke="black" points="2105.5,-230 2105.5,-357 2268.5,-357 2268.5,-230 2105.5,-230"/>
<text text-anchor="start" x="2116.5" y="-334.8" font-family="Arial" font-size="14.00">Put</text>
<text text-anchor="start" x="2116.5" y="-319.8" font-family="Arial" font-size="14.00">Get</text>
<text text-anchor="start" x="2116.5" y="-304.8" font-family="Arial" font-size="14.00">Sync</text>
<text text-anchor="start" x="2116.5" y="-289.8" font-family="Arial" font-size="14.00">Add</text>
<text text-anchor="start" x="2116.5" y="-274.8" font-family="Arial" font-size="14.00">Rm</text>
<text text-anchor="start" x="2116.5" y="-259.8" font-family="Arial" font-size="14.00">Ls</text>
<text text-anchor="start" x="2116.5" y="-244.8" font-family="Arial" font-size="14.00">Tree</text>
<polygon fill="none" stroke="black" points="2104,-229 2104,-395 2269,-395 2269,-229 2104,-229"/>
</g>
<!-- ndFilesGetStatus -->
<g id="node14" class="node"><title>ndFilesGetStatus</title>
<polygon fill="lightblue" stroke="none" points="2304.5,-372 2304.5,-409 2510.5,-409 2510.5,-372 2304.5,-372"/>
<polygon fill="none" stroke="black" points="2304.5,-372 2304.5,-409 2510.5,-409 2510.5,-372 2304.5,-372"/>
<text text-anchor="start" x="2356.5" y="-387.8" font-family="Arial" font-weight="bold" font-size="14.00">FilesGetStatus</text>
<polygon fill="white" stroke="none" points="2304.5,-215 2304.5,-372 2510.5,-372 2510.5,-215 2304.5,-215"/>
<polygon fill="none" stroke="black" points="2304.5,-215 2304.5,-372 2510.5,-372 2510.5,-215 2304.5,-215"/>
<text text-anchor="start" x="2315.5" y="-349.8" font-family="Arial" font-size="14.00">+ path_remote: &amp;&#39;a Path</text>
<text text-anchor="start" x="2315.5" y="-334.8" font-family="Arial" font-size="14.00">+ path_local: &amp;&#39;b Path</text>
<text text-anchor="start" x="2315.5" y="-319.8" font-family="Arial" font-size="14.00">+ total_files: u64</text>
<text text-anchor="start" x="2315.5" y="-304.8" font-family="Arial" font-size="14.00">+ current_file: u64</text>
<text text-anchor="start" x="2315.5" y="-289.8" font-family="Arial" font-size="14.00">+ total_transfer_bytes: u64</text>
<text text-anchor="start" x="2315.5" y="-274.8" font-family="Arial" font-size="14.00">+ transfer_bytes_written: u64</text>
<text text-anchor="start" x="2315.5" y="-259.8" font-family="Arial" font-size="14.00">+ file_size: u64</text>
<text text-anchor="start" x="2315.5" y="-244.8" font-family="Arial" font-size="14.00">+ file_bytes_written: u64</text>
<text text-anchor="start" x="2315.5" y="-229.8" font-family="Arial" font-size="14.00">+ file_type: String</text>
<polygon fill="none" stroke="black" points="2303.5,-214 2303.5,-410 2511.5,-410 2511.5,-214 2303.5,-214"/>
</g>
<!-- ndFileExistsAction -->
<g id="node15" class="node"><title>ndFileExistsAction</title>
<polygon fill="yellow" stroke="none" points="2546.5,-327 2546.5,-364 2680.5,-364 2680.5,-327 2546.5,-327"/>
<polygon fill="none" stroke="black" points="2546.5,-327 2546.5,-364 2680.5,-364 2680.5,-327 2546.5,-327"/>
<text text-anchor="start" x="2557.5" y="-342.8" font-family="Arial" font-weight="bold" font-size="14.00">FileExistsAction</text>
<polygon fill="white" stroke="none" points="2546.5,-260 2546.5,-327 2680.5,-327 2680.5,-260 2546.5,-260"/>
<polygon fill="none" stroke="black" points="2546.5,-260 2546.5,-327 2680.5,-327 2680.5,-260 2546.5,-260"/>
<text text-anchor="start" x="2557.5" y="-304.8" font-family="Arial" font-size="14.00">Overwrite</text>
<text text-anchor="start" x="2557.5" y="-289.8" font-family="Arial" font-size="14.00">Preserve</text>
<text text-anchor="start" x="2557.5" y="-274.8" font-family="Arial" font-size="14.00">Ask</text>
<polygon fill="none" stroke="black" points="2545.5,-259 2545.5,-365 2681.5,-365 2681.5,-259 2545.5,-259"/>
</g>
<!-- ndProgressIndicator -->
<g id="node16" class="node"><title>ndProgressIndicator</title>
<polygon fill="yellow" stroke="none" points="2717.5,-327 2717.5,-364 2866.5,-364 2866.5,-327 2717.5,-327"/>
<polygon fill="none" stroke="black" points="2717.5,-327 2717.5,-364 2866.5,-364 2866.5,-327 2717.5,-327"/>
<text text-anchor="start" x="2728.5" y="-342.8" font-family="Arial" font-weight="bold" font-size="14.00">ProgressIndicator</text>
<polygon fill="white" stroke="none" points="2717.5,-260 2717.5,-327 2866.5,-327 2866.5,-260 2717.5,-260"/>
<polygon fill="none" stroke="black" points="2717.5,-260 2717.5,-327 2866.5,-327 2866.5,-260 2717.5,-260"/>
<text text-anchor="start" x="2728.5" y="-304.8" font-family="Arial" font-size="14.00">Bars</text>
<text text-anchor="start" x="2728.5" y="-289.8" font-family="Arial" font-size="14.00">Text</text>
<text text-anchor="start" x="2728.5" y="-274.8" font-family="Arial" font-size="14.00">None</text>
<polygon fill="none" stroke="black" points="2716,-259 2716,-365 2867,-365 2867,-259 2716,-259"/>
</g>
<!-- ndKeysSubCommands -->
<g id="node17" class="node"><title>ndKeysSubCommands</title>
<polygon fill="yellow" stroke="none" points="2902.5,-319 2902.5,-356 3067.5,-356 3067.5,-319 2902.5,-319"/>
<polygon fill="none" stroke="black" points="2902.5,-319 2902.5,-356 3067.5,-356 3067.5,-319 2902.5,-319"/>
<text text-anchor="start" x="2913.5" y="-334.8" font-family="Arial" font-weight="bold" font-size="14.00">KeysSubCommands</text>
<polygon fill="white" stroke="none" points="2902.5,-267 2902.5,-319 3067.5,-319 3067.5,-267 2902.5,-267"/>
<polygon fill="none" stroke="black" points="2902.5,-267 2902.5,-319 3067.5,-319 3067.5,-267 2902.5,-267"/>
<text text-anchor="start" x="2913.5" y="-296.8" font-family="Arial" font-size="14.00">Show</text>
<text text-anchor="start" x="2913.5" y="-281.8" font-family="Arial" font-size="14.00">Create</text>
<polygon fill="none" stroke="black" points="2901,-266.5 2901,-357.5 3068,-357.5 3068,-266.5 2901,-266.5"/>
</g>
<!-- ndConfigSubCommands -->
<g id="node18" class="node"><title>ndConfigSubCommands</title>
<polygon fill="yellow" stroke="none" points="3151.5,-94.5 3151.5,-131.5 3366.5,-131.5 3366.5,-94.5 3151.5,-94.5"/>
<polygon fill="none" stroke="black" points="3151.5,-94.5 3151.5,-131.5 3366.5,-131.5 3366.5,-94.5 3151.5,-94.5"/>
<text text-anchor="start" x="3182" y="-110.3" font-family="Arial" font-weight="bold" font-size="14.00">ConfigSubCommands</text>
<polygon fill="white" stroke="none" points="3151.5,-27.5 3151.5,-94.5 3366.5,-94.5 3366.5,-27.5 3151.5,-27.5"/>
<polygon fill="none" stroke="black" points="3151.5,-27.5 3151.5,-94.5 3366.5,-94.5 3366.5,-27.5 3151.5,-27.5"/>
<text text-anchor="start" x="3162.5" y="-72.3" font-family="Arial" font-size="14.00">Add(SettingAddCmd)</text>
<text text-anchor="start" x="3162.5" y="-57.3" font-family="Arial" font-size="14.00">Remove(SettingRemoveCmd)</text>
<text text-anchor="start" x="3162.5" y="-42.3" font-family="Arial" font-size="14.00">Clear</text>
<polygon fill="none" stroke="black" points="3150,-26.5 3150,-132.5 3367,-132.5 3367,-26.5 3150,-26.5"/>
</g>
<!-- ndSettingAddCmd -->
<g id="node19" class="node"><title>ndSettingAddCmd</title>
<polygon fill="yellow" stroke="none" points="3103.5,-312 3103.5,-349 3234.5,-349 3234.5,-312 3103.5,-312"/>
<polygon fill="none" stroke="black" points="3103.5,-312 3103.5,-349 3234.5,-349 3234.5,-312 3103.5,-312"/>
<text text-anchor="start" x="3114.5" y="-327.8" font-family="Arial" font-weight="bold" font-size="14.00">SettingAddCmd</text>
<polygon fill="white" stroke="none" points="3103.5,-275 3103.5,-312 3234.5,-312 3234.5,-275 3103.5,-275"/>
<polygon fill="none" stroke="black" points="3103.5,-275 3103.5,-312 3234.5,-312 3234.5,-275 3103.5,-275"/>
<text text-anchor="start" x="3114.5" y="-289.8" font-family="Arial" font-size="14.00">Network</text>
<polygon fill="none" stroke="black" points="3102,-274 3102,-350 3235,-350 3235,-274 3102,-274"/>
</g>
<!-- ndSettingAddCmd&#45;&gt;ndConfigSubCommands -->
<g id="edge4" class="edge"><title>ndSettingAddCmd&#45;&gt;ndConfigSubCommands</title>
<path fill="none" stroke="black" d="M3184.59,-269.791C3197.8,-235.966 3216.77,-187.385 3232.18,-147.908"/>
<polygon fill="black" stroke="black" points="3232.27,-147.685 3230.72,-140.641 3236.63,-136.507 3238.18,-143.551 3232.27,-147.685"/>
</g>
<!-- ndSettingRemoveCmd -->
<g id="node20" class="node"><title>ndSettingRemoveCmd</title>
<polygon fill="yellow" stroke="none" points="3269.5,-312 3269.5,-349 3429.5,-349 3429.5,-312 3269.5,-312"/>
<polygon fill="none" stroke="black" points="3269.5,-312 3269.5,-349 3429.5,-349 3429.5,-312 3269.5,-312"/>
<text text-anchor="start" x="3280.5" y="-327.8" font-family="Arial" font-weight="bold" font-size="14.00">SettingRemoveCmd</text>
<polygon fill="white" stroke="none" points="3269.5,-275 3269.5,-312 3429.5,-312 3429.5,-275 3269.5,-275"/>
<polygon fill="none" stroke="black" points="3269.5,-275 3269.5,-312 3429.5,-312 3429.5,-275 3269.5,-275"/>
<text text-anchor="start" x="3280.5" y="-289.8" font-family="Arial" font-size="14.00">Network</text>
<polygon fill="none" stroke="black" points="3268.5,-274 3268.5,-350 3430.5,-350 3430.5,-274 3268.5,-274"/>
</g>
<!-- ndSettingRemoveCmd&#45;&gt;ndConfigSubCommands -->
<g id="edge5" class="edge"><title>ndSettingRemoveCmd&#45;&gt;ndConfigSubCommands</title>
<path fill="none" stroke="black" d="M3333.23,-269.791C3319.88,-235.966 3300.7,-187.385 3285.11,-147.908"/>
<polygon fill="black" stroke="black" points="3285.02,-147.668 3279.09,-143.556 3280.61,-136.507 3286.53,-140.619 3285.02,-147.668"/>
</g>
<!-- ndSetupSubCommands -->
<g id="node21" class="node"><title>ndSetupSubCommands</title>
<polygon fill="yellow" stroke="none" points="3465.5,-312 3465.5,-349 3635.5,-349 3635.5,-312 3465.5,-312"/>
<polygon fill="none" stroke="black" points="3465.5,-312 3465.5,-349 3635.5,-349 3635.5,-312 3465.5,-312"/>
<text text-anchor="start" x="3476.5" y="-327.8" font-family="Arial" font-weight="bold" font-size="14.00">SetupSubCommands</text>
<polygon fill="white" stroke="none" points="3465.5,-275 3465.5,-312 3635.5,-312 3635.5,-275 3465.5,-275"/>
<polygon fill="none" stroke="black" points="3465.5,-275 3465.5,-312 3635.5,-312 3635.5,-275 3465.5,-275"/>
<text text-anchor="start" x="3476.5" y="-289.8" font-family="Arial" font-size="14.00">Completions</text>
<polygon fill="none" stroke="black" points="3464.5,-274 3464.5,-350 3636.5,-350 3636.5,-274 3464.5,-274"/>
</g>
<!-- ndEnvironment -->
<g id="node22" class="node"><title>ndEnvironment</title>
<polygon fill="lightblue" stroke="none" points="3671.5,-319 3671.5,-356 3949.5,-356 3949.5,-319 3671.5,-319"/>
<polygon fill="none" stroke="black" points="3671.5,-319 3671.5,-356 3949.5,-356 3949.5,-319 3671.5,-319"/>
<text text-anchor="start" x="3765.5" y="-334.8" font-family="Arial" font-weight="bold" font-size="14.00">Environment</text>
<polygon fill="white" stroke="none" points="3671.5,-267 3671.5,-319 3949.5,-319 3949.5,-267 3671.5,-267"/>
<polygon fill="none" stroke="black" points="3671.5,-267 3671.5,-319 3949.5,-319 3949.5,-267 3671.5,-267"/>
<text text-anchor="start" x="3682.5" y="-296.8" font-family="Arial" font-size="14.00">&#45; safe_auth_passphrase: Option&lt;String&gt;</text>
<text text-anchor="start" x="3682.5" y="-281.8" font-family="Arial" font-size="14.00">&#45; safe_auth_password: Option&lt;String&gt;</text>
<polygon fill="none" stroke="black" points="3670.5,-266.5 3670.5,-357.5 3950.5,-357.5 3950.5,-266.5 3670.5,-266.5"/>
</g>
<!-- ndSafeSeed -->
<g id="node23" class="node"><title>ndSafeSeed</title>
<polygon fill="lightblue" stroke="none" points="3986.5,-319 3986.5,-356 4139.5,-356 4139.5,-319 3986.5,-319"/>
<polygon fill="none" stroke="black" points="3986.5,-319 3986.5,-356 4139.5,-356 4139.5,-319 3986.5,-319"/>
<text text-anchor="start" x="4029.5" y="-334.8" font-family="Arial" font-weight="bold" font-size="14.00">SafeSeed</text>
<polygon fill="white" stroke="none" points="3986.5,-267 3986.5,-319 4139.5,-319 4139.5,-267 3986.5,-267"/>
<polygon fill="none" stroke="black" points="3986.5,-267 3986.5,-319 4139.5,-319 4139.5,-267 3986.5,-267"/>
<text text-anchor="start" x="3997.5" y="-296.8" font-family="Arial" font-size="14.00">+ passphrase: String</text>
<text text-anchor="start" x="3997.5" y="-281.8" font-family="Arial" font-size="14.00">+ password: String</text>
<polygon fill="none" stroke="black" points="3985,-266.5 3985,-357.5 4140,-357.5 4140,-266.5 3985,-266.5"/>
</g>
<!-- ndNetworkLauncher -->
<g id="node24" class="node"><title>ndNetworkLauncher</title>
<polygon fill="lightgreen" stroke="none" points="4175.5,-293 4175.5,-330 4321.5,-330 4321.5,-293 4175.5,-293"/>
<polygon fill="none" stroke="black" points="4175.5,-293 4175.5,-330 4321.5,-330 4321.5,-293 4175.5,-293"/>
<text text-anchor="start" x="4186.5" y="-308.8" font-family="Arial" font-weight="bold" font-size="14.00">NetworkLauncher</text>
<polygon fill="none" stroke="black" points="4174.5,-292.5 4174.5,-331.5 4322.5,-331.5 4322.5,-292.5 4174.5,-292.5"/>
</g>
<!-- ndSnLaunchToolNetworkLauncher -->
<g id="node25" class="node"><title>ndSnLaunchToolNetworkLauncher</title>
<polygon fill="lightblue" stroke="none" points="4124.5,-60.5 4124.5,-97.5 4372.5,-97.5 4372.5,-60.5 4124.5,-60.5"/>
<polygon fill="none" stroke="black" points="4124.5,-60.5 4124.5,-97.5 4372.5,-97.5 4372.5,-60.5 4124.5,-60.5"/>
<text text-anchor="start" x="4135.5" y="-76.3" font-family="Arial" font-weight="bold" font-size="14.00">SnLaunchToolNetworkLauncher</text>
<polygon fill="none" stroke="black" points="4123.5,-60 4123.5,-99 4373.5,-99 4373.5,-60 4123.5,-60"/>
</g>
<!-- ndNetworkLauncher&#45;&gt;ndSnLaunchToolNetworkLauncher -->
<g id="edge6" class="edge"><title>ndNetworkLauncher&#45;&gt;ndSnLaunchToolNetworkLauncher</title>
<path fill="none" stroke="black" stroke-dasharray="5,2" d="M4248.5,-288.479C4248.5,-247.511 4248.5,-160.653 4248.5,-113.173"/>
<polygon fill="none" stroke="black" points="4252,-113.112 4248.5,-103.112 4245,-113.112 4252,-113.112"/>
</g>
<!-- ndNetworkInfo -->
<g id="node26" class="node"><title>ndNetworkInfo</title>
<polygon fill="yellow" stroke="none" points="4389.5,-319 4389.5,-356 4574.5,-356 4574.5,-319 4389.5,-319"/>
<polygon fill="none" stroke="black" points="4389.5,-319 4389.5,-356 4574.5,-356 4574.5,-319 4389.5,-319"/>
<text text-anchor="start" x="4440" y="-334.8" font-family="Arial" font-weight="bold" font-size="14.00">NetworkInfo</text>
<polygon fill="white" stroke="none" points="4389.5,-267 4389.5,-319 4574.5,-319 4574.5,-267 4389.5,-267"/>
<polygon fill="none" stroke="black" points="4389.5,-267 4389.5,-319 4574.5,-319 4574.5,-267 4389.5,-267"/>
<text text-anchor="start" x="4400.5" y="-296.8" font-family="Arial" font-size="14.00">NodeConfig(NodeConfig)</text>
<text text-anchor="start" x="4400.5" y="-281.8" font-family="Arial" font-size="14.00">ConnInfoLocation(String)</text>
<polygon fill="none" stroke="black" points="4388,-266.5 4388,-357.5 4575,-357.5 4575,-266.5 4388,-266.5"/>
</g>
<!-- ndConfig -->
<g id="node28" class="node"><title>ndConfig</title>
<polygon fill="lightblue" stroke="none" points="4409.5,-94.5 4409.5,-131.5 4616.5,-131.5 4616.5,-94.5 4409.5,-94.5"/>
<polygon fill="none" stroke="black" points="4409.5,-94.5 4409.5,-131.5 4616.5,-131.5 4616.5,-94.5 4409.5,-94.5"/>
<text text-anchor="start" x="4490" y="-110.3" font-family="Arial" font-weight="bold" font-size="14.00">Config</text>
<polygon fill="white" stroke="none" points="4409.5,-27.5 4409.5,-94.5 4616.5,-94.5 4616.5,-27.5 4409.5,-27.5"/>
<polygon fill="none" stroke="black" points="4409.5,-27.5 4409.5,-94.5 4616.5,-94.5 4616.5,-27.5 4409.5,-27.5"/>
<text text-anchor="start" x="4420.5" y="-72.3" font-family="Arial" font-size="14.00">&#45; settings: Settings</text>
<text text-anchor="start" x="4420.5" y="-57.3" font-family="Arial" font-size="14.00">+ cli_config_path: PathBuf</text>
<text text-anchor="start" x="4420.5" y="-42.3" font-family="Arial" font-size="14.00">+ node_config_path: PathBuf</text>
<polygon fill="none" stroke="black" points="4408,-26.5 4408,-132.5 4617,-132.5 4617,-26.5 4408,-26.5"/>
</g>
<!-- ndNetworkInfo&#45;&gt;ndConfig -->
<g id="edge7" class="edge"><title>ndNetworkInfo&#45;&gt;ndConfig</title>
<path fill="none" stroke="black" d="M4488.04,-262.399C4492.55,-228.835 4498.61,-183.782 4503.57,-146.911"/>
<polygon fill="black" stroke="black" points="4504.94,-136.745 4508.06,-147.256 4504.27,-141.7 4503.6,-146.656 4503.6,-146.656 4503.6,-146.656 4504.27,-141.7 4499.14,-146.056 4504.94,-136.745 4504.94,-136.745"/>
</g>
<!-- ndSettings -->
<g id="node27" class="node"><title>ndSettings</title>
<polygon fill="lightblue" stroke="none" points="4610.5,-312 4610.5,-349 4907.5,-349 4907.5,-312 4610.5,-312"/>
<polygon fill="none" stroke="black" points="4610.5,-312 4610.5,-349 4907.5,-349 4907.5,-312 4610.5,-312"/>
<text text-anchor="start" x="4730" y="-327.8" font-family="Arial" font-weight="bold" font-size="14.00">Settings</text>
<polygon fill="white" stroke="none" points="4610.5,-275 4610.5,-312 4907.5,-312 4907.5,-275 4610.5,-275"/>
<polygon fill="none" stroke="black" points="4610.5,-275 4610.5,-312 4907.5,-312 4907.5,-275 4610.5,-275"/>
<text text-anchor="start" x="4621.5" y="-289.8" font-family="Arial" font-size="14.00">&#45; networks: BTreeMap&lt;String, NetworkInfo&gt;</text>
<polygon fill="none" stroke="black" points="4609,-274 4609,-350 4908,-350 4908,-274 4609,-274"/>
</g>
<!-- ndSettings&#45;&gt;ndConfig -->
<g id="edge8" class="edge"><title>ndSettings&#45;&gt;ndConfig</title>
<path fill="none" stroke="black" d="M4714.52,-269.791C4677.49,-235.095 4623.89,-184.873 4581.21,-144.877"/>
<polygon fill="black" stroke="black" points="4581.03,-144.712 4573.92,-143.528 4572.27,-136.507 4579.39,-137.69 4581.03,-144.712"/>
</g>
</g>
</svg>
