<?xml version="1.0" encoding="UTF-8" standalone="no"?>
<!DOCTYPE svg PUBLIC "-//W3C//DTD SVG 1.1//EN"
 "http://www.w3.org/Graphics/SVG/1.1/DTD/svg11.dtd">
<!-- Generated by graphviz version 2.38.0 (20140413.2041)
 -->
<!-- Title: ml Pages: 1 -->
<svg width="5094pt" height="392pt"
 viewBox="0.00 0.00 5093.50 392.00" xmlns="http://www.w3.org/2000/svg" xmlns:xlink="http://www.w3.org/1999/xlink">
<g id="graph0" class="graph" transform="scale(1 1) rotate(0) translate(4 388)">
<title>ml</title>
<polygon fill="white" stroke="none" points="-4,4 -4,-388 5089.5,-388 5089.5,4 -4,4"/>
<!-- ndCmdArgs -->
<g id="node1" class="node"><title>ndCmdArgs</title>
<text text-anchor="middle" x="172.5" y="-53.3" font-family="Times,serif" font-size="14.00">ndCmdArgs</text>
</g>
<!-- ndSafeIdSubCommands -->
<g id="node2" class="node"><title>ndSafeIdSubCommands</title>
<g id="a_node2_0"><a xlink:href="https://github.com/maidsafe/safe_network/blob/master/src/subcommands/safe_id.rs#:~:text=enum%20SafeIdSubCommands" xlink:title="&lt;TABLE&gt;">
<polygon fill="yellow" stroke="none" points="441.5,-274 441.5,-311 614.5,-311 614.5,-274 441.5,-274"/>
<polygon fill="none" stroke="black" points="441.5,-274 441.5,-311 614.5,-311 614.5,-274 441.5,-274"/>
<text text-anchor="start" x="452.5" y="-289.8" font-family="Arial" font-weight="bold" font-size="14.00">SafeIdSubCommands</text>
<polygon fill="white" stroke="none" points="441.5,-222 441.5,-274 614.5,-274 614.5,-222 441.5,-222"/>
<polygon fill="none" stroke="black" points="441.5,-222 441.5,-274 614.5,-274 614.5,-222 441.5,-222"/>
<text text-anchor="start" x="452.5" y="-251.8" font-family="Arial" font-size="14.00">Create</text>
<text text-anchor="start" x="452.5" y="-236.8" font-family="Arial" font-size="14.00">Update</text>
<polygon fill="none" stroke="black" points="440,-221.5 440,-312.5 615,-312.5 615,-221.5 440,-221.5"/>
</a>
</g>
</g>
<!-- ndNrsSubCommands -->
<g id="node3" class="node"><title>ndNrsSubCommands</title>
<g id="a_node3_1"><a xlink:href="https://github.com/maidsafe/safe_network/blob/master/src/subcommands/nrs.rs#:~:text=enum%20NrsSubCommands" xlink:title="&lt;TABLE&gt;">
<polygon fill="yellow" stroke="none" points="650.5,-282 650.5,-319 804.5,-319 804.5,-282 650.5,-282"/>
<polygon fill="none" stroke="black" points="650.5,-282 650.5,-319 804.5,-319 804.5,-282 650.5,-282"/>
<text text-anchor="start" x="661.5" y="-297.8" font-family="Arial" font-weight="bold" font-size="14.00">NrsSubCommands</text>
<polygon fill="white" stroke="none" points="650.5,-215 650.5,-282 804.5,-282 804.5,-215 650.5,-215"/>
<polygon fill="none" stroke="black" points="650.5,-215 650.5,-282 804.5,-282 804.5,-215 650.5,-215"/>
<text text-anchor="start" x="661.5" y="-259.8" font-family="Arial" font-size="14.00">Add</text>
<text text-anchor="start" x="661.5" y="-244.8" font-family="Arial" font-size="14.00">Create</text>
<text text-anchor="start" x="661.5" y="-229.8" font-family="Arial" font-size="14.00">Remove</text>
<polygon fill="none" stroke="black" points="649.5,-214 649.5,-320 805.5,-320 805.5,-214 649.5,-214"/>
</a>
</g>
</g>
<!-- ndNetworksSubCommands -->
<g id="node4" class="node"><title>ndNetworksSubCommands</title>
<g id="a_node4_2"><a xlink:href="https://github.com/maidsafe/safe_network/blob/master/src/subcommands/networks.rs#:~:text=enum%20NetworksSubCommands" xlink:title="&lt;TABLE&gt;">
<polygon fill="yellow" stroke="none" points="841.5,-297 841.5,-334 1036.5,-334 1036.5,-297 841.5,-297"/>
<polygon fill="none" stroke="black" points="841.5,-297 841.5,-334 1036.5,-334 1036.5,-297 841.5,-297"/>
<text text-anchor="start" x="852.5" y="-312.8" font-family="Arial" font-weight="bold" font-size="14.00">NetworksSubCommands</text>
<polygon fill="white" stroke="none" points="841.5,-200 841.5,-297 1036.5,-297 1036.5,-200 841.5,-200"/>
<polygon fill="none" stroke="black" points="841.5,-200 841.5,-297 1036.5,-297 1036.5,-200 841.5,-200"/>
<text text-anchor="start" x="852.5" y="-274.8" font-family="Arial" font-size="14.00">Switch</text>
<text text-anchor="start" x="852.5" y="-259.8" font-family="Arial" font-size="14.00">Check</text>
<text text-anchor="start" x="852.5" y="-244.8" font-family="Arial" font-size="14.00">Add</text>
<text text-anchor="start" x="852.5" y="-229.8" font-family="Arial" font-size="14.00">Set</text>
<text text-anchor="start" x="852.5" y="-214.8" font-family="Arial" font-size="14.00">Remove</text>
<polygon fill="none" stroke="black" points="840,-199 840,-335 1037,-335 1037,-199 840,-199"/>
</a>
</g>
</g>
<!-- ndNodeSubCommands -->
<g id="node5" class="node"><title>ndNodeSubCommands</title>
<g id="a_node5_3"><a xlink:href="https://github.com/maidsafe/safe_network/blob/master/src/subcommands/node.rs#:~:text=enum%20NodeSubCommands" xlink:title="&lt;TABLE&gt;">
<polygon fill="yellow" stroke="none" points="1072.5,-304 1072.5,-341 1238.5,-341 1238.5,-304 1072.5,-304"/>
<polygon fill="none" stroke="black" points="1072.5,-304 1072.5,-341 1238.5,-341 1238.5,-304 1072.5,-304"/>
<text text-anchor="start" x="1083.5" y="-319.8" font-family="Arial" font-weight="bold" font-size="14.00">NodeSubCommands</text>
<polygon fill="white" stroke="none" points="1072.5,-192 1072.5,-304 1238.5,-304 1238.5,-192 1072.5,-192"/>
<polygon fill="none" stroke="black" points="1072.5,-192 1072.5,-304 1238.5,-304 1238.5,-192 1072.5,-192"/>
<text text-anchor="start" x="1083.5" y="-281.8" font-family="Arial" font-size="14.00">BinVersion</text>
<text text-anchor="start" x="1083.5" y="-266.8" font-family="Arial" font-size="14.00">Install</text>
<text text-anchor="start" x="1083.5" y="-251.8" font-family="Arial" font-size="14.00">Join</text>
<text text-anchor="start" x="1083.5" y="-236.8" font-family="Arial" font-size="14.00">Run</text>
<text text-anchor="start" x="1083.5" y="-221.8" font-family="Arial" font-size="14.00">Killall</text>
<text text-anchor="start" x="1083.5" y="-206.8" font-family="Arial" font-size="14.00">Update</text>
<polygon fill="none" stroke="black" points="1071.5,-191.5 1071.5,-342.5 1239.5,-342.5 1239.5,-191.5 1071.5,-191.5"/>
</a>
</g>
</g>
<!-- ndOutputFmt -->
<g id="node6" class="node"><title>ndOutputFmt</title>
<g id="a_node6_4"><a xlink:href="https://github.com/maidsafe/safe_network/blob/master/src/subcommands/mod.rs#:~:text=enum%20OutputFmt" xlink:title="&lt;TABLE&gt;">
<polygon fill="yellow" stroke="none" points="9.5,-289 9.5,-326 120.5,-326 120.5,-289 9.5,-289"/>
<polygon fill="none" stroke="black" points="9.5,-289 9.5,-326 120.5,-326 120.5,-289 9.5,-289"/>
<text text-anchor="start" x="28" y="-304.8" font-family="Arial" font-weight="bold" font-size="14.00">OutputFmt</text>
<polygon fill="white" stroke="none" points="9.5,-207 9.5,-289 120.5,-289 120.5,-207 9.5,-207"/>
<polygon fill="none" stroke="black" points="9.5,-207 9.5,-289 120.5,-289 120.5,-207 9.5,-207"/>
<text text-anchor="start" x="20.5" y="-266.8" font-family="Arial" font-size="14.00">Pretty</text>
<text text-anchor="start" x="20.5" y="-251.8" font-family="Arial" font-size="14.00">Json</text>
<text text-anchor="start" x="20.5" y="-236.8" font-family="Arial" font-size="14.00">JsonCompact</text>
<text text-anchor="start" x="20.5" y="-221.8" font-family="Arial" font-size="14.00">Yaml</text>
<polygon fill="none" stroke="black" points="8,-206.5 8,-327.5 121,-327.5 121,-206.5 8,-206.5"/>
</a>
</g>
</g>
<!-- ndOutputFmt&#45;&gt;ndCmdArgs -->
<g id="edge1" class="edge"><title>ndOutputFmt&#45;&gt;ndCmdArgs</title>
<path fill="none" stroke="black" d="M97.4904,-202.463C117.643,-163.65 142.421,-115.929 157.841,-86.2314"/>
<polygon fill="black" stroke="black" points="157.925,-86.0707 157.14,-78.9025 163.455,-75.4208 164.24,-82.589 157.925,-86.0707"/>
</g>
<!-- ndSubCommands -->
<g id="node7" class="node"><title>ndSubCommands</title>
<g id="a_node7_5"><a xlink:href="https://github.com/maidsafe/safe_network/blob/master/src/subcommands/mod.rs#:~:text=enum%20SubCommands" xlink:title="&lt;TABLE&gt;">
<polygon fill="yellow" stroke="none" points="156.5,-342 156.5,-379 404.5,-379 404.5,-342 156.5,-342"/>
<polygon fill="none" stroke="black" points="156.5,-342 156.5,-379 404.5,-379 404.5,-342 156.5,-342"/>
<text text-anchor="start" x="226.5" y="-357.8" font-family="Arial" font-weight="bold" font-size="14.00">SubCommands</text>
<polygon fill="white" stroke="none" points="156.5,-155 156.5,-342 404.5,-342 404.5,-155 156.5,-155"/>
<polygon fill="none" stroke="black" points="156.5,-155 156.5,-342 404.5,-342 404.5,-155 156.5,-155"/>
<text text-anchor="start" x="167.5" y="-319.8" font-family="Arial" font-size="14.00">Config</text>
<text text-anchor="start" x="167.5" y="-304.8" font-family="Arial" font-size="14.00">Networks</text>
<text text-anchor="start" x="167.5" y="-289.8" font-family="Arial" font-size="14.00">Cat(cat::CatCommands)</text>
<text text-anchor="start" x="167.5" y="-274.8" font-family="Arial" font-size="14.00">Dog(dog::DogCommands)</text>
<text text-anchor="start" x="167.5" y="-259.8" font-family="Arial" font-size="14.00">Files(files::FilesSubCommands)</text>
<text text-anchor="start" x="167.5" y="-244.8" font-family="Arial" font-size="14.00">Setup(setup::SetupSubCommands)</text>
<text text-anchor="start" x="167.5" y="-229.8" font-family="Arial" font-size="14.00">Nrs(nrs::NrsSubCommands)</text>
<text text-anchor="start" x="167.5" y="-214.8" font-family="Arial" font-size="14.00">Keys(keys::KeysSubCommands)</text>
<text text-anchor="start" x="167.5" y="-199.8" font-family="Arial" font-size="14.00">Xorurl</text>
<text text-anchor="start" x="167.5" y="-184.8" font-family="Arial" font-size="14.00">Update</text>
<text text-anchor="start" x="167.5" y="-169.8" font-family="Arial" font-size="14.00">Node</text>
<polygon fill="none" stroke="black" points="155.5,-154 155.5,-380 405.5,-380 405.5,-154 155.5,-154"/>
</a>
</g>
</g>
<!-- ndSubCommands&#45;&gt;ndCmdArgs -->
<g id="edge2" class="edge"><title>ndSubCommands&#45;&gt;ndCmdArgs</title>
<path fill="none" stroke="black" d="M220.185,-149.837C207.779,-125.945 195.824,-102.921 186.988,-85.9025"/>
<polygon fill="black" stroke="black" points="186.931,-85.7931 180.616,-82.3114 181.401,-75.1431 187.716,-78.6248 186.931,-85.7931"/>
</g>
<!-- ndCatCommands -->
<g id="node8" class="node"><title>ndCatCommands</title>
<text text-anchor="middle" x="1321.5" y="-263.3" font-family="Times,serif" font-size="14.00">ndCatCommands</text>
</g>
<!-- ndDogCommands -->
<g id="node9" class="node"><title>ndDogCommands</title>
<text text-anchor="middle" x="1453.5" y="-263.3" font-family="Times,serif" font-size="14.00">ndDogCommands</text>
</g>
<!-- ndXorurlSubCommands -->
<g id="node10" class="node"><title>ndXorurlSubCommands</title>
<g id="a_node10_6"><a xlink:href="https://github.com/maidsafe/safe_network/blob/master/src/subcommands/xorurl.rs#:~:text=enum%20XorurlSubCommands" xlink:title="&lt;TABLE&gt;">
<polygon fill="yellow" stroke="none" points="1539.5,-274 1539.5,-311 1712.5,-311 1712.5,-274 1539.5,-274"/>
<polygon fill="none" stroke="black" points="1539.5,-274 1539.5,-311 1712.5,-311 1712.5,-274 1539.5,-274"/>
<text text-anchor="start" x="1550.5" y="-289.8" font-family="Arial" font-weight="bold" font-size="14.00">XorurlSubCommands</text>
<polygon fill="white" stroke="none" points="1539.5,-222 1539.5,-274 1712.5,-274 1712.5,-222 1539.5,-222"/>
<polygon fill="none" stroke="black" points="1539.5,-222 1539.5,-274 1712.5,-274 1712.5,-222 1539.5,-222"/>
<text text-anchor="start" x="1550.5" y="-251.8" font-family="Arial" font-size="14.00">Decode</text>
<text text-anchor="start" x="1550.5" y="-236.8" font-family="Arial" font-size="14.00">Pk</text>
<polygon fill="none" stroke="black" points="1538,-221.5 1538,-312.5 1713,-312.5 1713,-221.5 1538,-221.5"/>
</a>
</g>
</g>
<!-- ndFileTreeNodeType -->
<g id="node11" class="node"><title>ndFileTreeNodeType</title>
<g id="a_node11_7"><a xlink:href="https://github.com/maidsafe/safe_network/blob/master/src/subcommands/files.rs#:~:text=enum%20FileTreeNodeType" xlink:title="&lt;TABLE&gt;">
<polygon fill="yellow" stroke="none" points="1748.5,-282 1748.5,-319 1897.5,-319 1897.5,-282 1748.5,-282"/>
<polygon fill="none" stroke="black" points="1748.5,-282 1748.5,-319 1897.5,-319 1897.5,-282 1748.5,-282"/>
<text text-anchor="start" x="1759.5" y="-297.8" font-family="Arial" font-weight="bold" font-size="14.00">FileTreeNodeType</text>
<polygon fill="white" stroke="none" points="1748.5,-215 1748.5,-282 1897.5,-282 1897.5,-215 1748.5,-215"/>
<polygon fill="none" stroke="black" points="1748.5,-215 1748.5,-282 1897.5,-282 1897.5,-215 1748.5,-215"/>
<text text-anchor="start" x="1759.5" y="-259.8" font-family="Arial" font-size="14.00">File</text>
<text text-anchor="start" x="1759.5" y="-244.8" font-family="Arial" font-size="14.00">Directory</text>
<text text-anchor="start" x="1759.5" y="-229.8" font-family="Arial" font-size="14.00">Symlink</text>
<polygon fill="none" stroke="black" points="1747,-214 1747,-320 1898,-320 1898,-214 1747,-214"/>
</a>
</g>
</g>
<!-- ndFileTreeNode -->
<g id="node12" class="node"><title>ndFileTreeNode</title>
<text text-anchor="middle" x="1822.5" y="-53.3" font-family="Times,serif" font-size="14.00">ndFileTreeNode</text>
</g>
<!-- ndFileTreeNodeType&#45;&gt;ndFileTreeNode -->
<g id="edge3" class="edge"><title>ndFileTreeNodeType&#45;&gt;ndFileTreeNode</title>
<path fill="none" stroke="black" stroke-dasharray="5,2" d="M1822.5,-209.986C1822.5,-170.61 1822.5,-119.479 1822.5,-87.7056"/>
<polygon fill="black" stroke="black" points="1822.5,-87.3644 1818.5,-81.3644 1822.5,-75.3644 1826.5,-81.3643 1822.5,-87.3644"/>
</g>
<!-- ndFilesSubCommands -->
<g id="node13" class="node"><title>ndFilesSubCommands</title>
<g id="a_node13_8"><a xlink:href="https://github.com/maidsafe/safe_network/blob/master/src/subcommands/files.rs#:~:text=enum%20FilesSubCommands" xlink:title="&lt;TABLE&gt;">
<polygon fill="yellow" stroke="none" points="1933.5,-312 1933.5,-349 2096.5,-349 2096.5,-312 1933.5,-312"/>
<polygon fill="none" stroke="black" points="1933.5,-312 1933.5,-349 2096.5,-349 2096.5,-312 1933.5,-312"/>
<text text-anchor="start" x="1944.5" y="-327.8" font-family="Arial" font-weight="bold" font-size="14.00">FilesSubCommands</text>
<polygon fill="white" stroke="none" points="1933.5,-185 1933.5,-312 2096.5,-312 2096.5,-185 1933.5,-185"/>
<polygon fill="none" stroke="black" points="1933.5,-185 1933.5,-312 2096.5,-312 2096.5,-185 1933.5,-185"/>
<text text-anchor="start" x="1944.5" y="-289.8" font-family="Arial" font-size="14.00">Put</text>
<text text-anchor="start" x="1944.5" y="-274.8" font-family="Arial" font-size="14.00">Get</text>
<text text-anchor="start" x="1944.5" y="-259.8" font-family="Arial" font-size="14.00">Sync</text>
<text text-anchor="start" x="1944.5" y="-244.8" font-family="Arial" font-size="14.00">Add</text>
<text text-anchor="start" x="1944.5" y="-229.8" font-family="Arial" font-size="14.00">Rm</text>
<text text-anchor="start" x="1944.5" y="-214.8" font-family="Arial" font-size="14.00">Ls</text>
<text text-anchor="start" x="1944.5" y="-199.8" font-family="Arial" font-size="14.00">Tree</text>
<polygon fill="none" stroke="black" points="1932,-184 1932,-350 2097,-350 2097,-184 1932,-184"/>
</a>
</g>
</g>
<!-- ndFilesGetStatus -->
<g id="node14" class="node"><title>ndFilesGetStatus</title>
<text text-anchor="middle" x="2177.5" y="-263.3" font-family="Times,serif" font-size="14.00">ndFilesGetStatus</text>
</g>
<!-- ndFileExistsAction -->
<g id="node15" class="node"><title>ndFileExistsAction</title>
<g id="a_node15_9"><a xlink:href="https://github.com/maidsafe/safe_network/blob/master/src/subcommands/files_get.rs#:~:text=enum%20FileExistsAction" xlink:title="&lt;TABLE&gt;">
<polygon fill="yellow" stroke="none" points="2259.5,-282 2259.5,-319 2393.5,-319 2393.5,-282 2259.5,-282"/>
<polygon fill="none" stroke="black" points="2259.5,-282 2259.5,-319 2393.5,-319 2393.5,-282 2259.5,-282"/>
<text text-anchor="start" x="2270.5" y="-297.8" font-family="Arial" font-weight="bold" font-size="14.00">FileExistsAction</text>
<polygon fill="white" stroke="none" points="2259.5,-215 2259.5,-282 2393.5,-282 2393.5,-215 2259.5,-215"/>
<polygon fill="none" stroke="black" points="2259.5,-215 2259.5,-282 2393.5,-282 2393.5,-215 2259.5,-215"/>
<text text-anchor="start" x="2270.5" y="-259.8" font-family="Arial" font-size="14.00">Overwrite</text>
<text text-anchor="start" x="2270.5" y="-244.8" font-family="Arial" font-size="14.00">Preserve</text>
<text text-anchor="start" x="2270.5" y="-229.8" font-family="Arial" font-size="14.00">Ask</text>
<polygon fill="none" stroke="black" points="2258.5,-214 2258.5,-320 2394.5,-320 2394.5,-214 2258.5,-214"/>
</a>
</g>
</g>
<!-- ndProgressIndicator -->
<g id="node16" class="node"><title>ndProgressIndicator</title>
<g id="a_node16_10"><a xlink:href="https://github.com/maidsafe/safe_network/blob/master/src/subcommands/files_get.rs#:~:text=enum%20ProgressIndicator" xlink:title="&lt;TABLE&gt;">
<polygon fill="yellow" stroke="none" points="2430.5,-282 2430.5,-319 2579.5,-319 2579.5,-282 2430.5,-282"/>
<polygon fill="none" stroke="black" points="2430.5,-282 2430.5,-319 2579.5,-319 2579.5,-282 2430.5,-282"/>
<text text-anchor="start" x="2441.5" y="-297.8" font-family="Arial" font-weight="bold" font-size="14.00">ProgressIndicator</text>
<polygon fill="white" stroke="none" points="2430.5,-215 2430.5,-282 2579.5,-282 2579.5,-215 2430.5,-215"/>
<polygon fill="none" stroke="black" points="2430.5,-215 2430.5,-282 2579.5,-282 2579.5,-215 2430.5,-215"/>
<text text-anchor="start" x="2441.5" y="-259.8" font-family="Arial" font-size="14.00">Bars</text>
<text text-anchor="start" x="2441.5" y="-244.8" font-family="Arial" font-size="14.00">Text</text>
<text text-anchor="start" x="2441.5" y="-229.8" font-family="Arial" font-size="14.00">None</text>
<polygon fill="none" stroke="black" points="2429,-214 2429,-320 2580,-320 2580,-214 2429,-214"/>
</a>
</g>
</g>
<!-- ndKeysSubCommands -->
<g id="node17" class="node"><title>ndKeysSubCommands</title>
<g id="a_node17_11"><a xlink:href="https://github.com/maidsafe/safe_network/blob/master/src/subcommands/keys.rs#:~:text=enum%20KeysSubCommands" xlink:title="&lt;TABLE&gt;">
<polygon fill="yellow" stroke="none" points="2615.5,-274 2615.5,-311 2780.5,-311 2780.5,-274 2615.5,-274"/>
<polygon fill="none" stroke="black" points="2615.5,-274 2615.5,-311 2780.5,-311 2780.5,-274 2615.5,-274"/>
<text text-anchor="start" x="2626.5" y="-289.8" font-family="Arial" font-weight="bold" font-size="14.00">KeysSubCommands</text>
<polygon fill="white" stroke="none" points="2615.5,-222 2615.5,-274 2780.5,-274 2780.5,-222 2615.5,-222"/>
<polygon fill="none" stroke="black" points="2615.5,-222 2615.5,-274 2780.5,-274 2780.5,-222 2615.5,-222"/>
<text text-anchor="start" x="2626.5" y="-251.8" font-family="Arial" font-size="14.00">Show</text>
<text text-anchor="start" x="2626.5" y="-236.8" font-family="Arial" font-size="14.00">Create</text>
<polygon fill="none" stroke="black" points="2614,-221.5 2614,-312.5 2781,-312.5 2781,-221.5 2614,-221.5"/>
</a>
</g>
</g>
<!-- ndConfigSubCommands -->
<g id="node18" class="node"><title>ndConfigSubCommands</title>
<g id="a_node18_12"><a xlink:href="https://github.com/maidsafe/safe_network/blob/master/src/subcommands/config.rs#:~:text=enum%20ConfigSubCommands" xlink:title="&lt;TABLE&gt;">
<polygon fill="yellow" stroke="none" points="2864.5,-72 2864.5,-109 3079.5,-109 3079.5,-72 2864.5,-72"/>
<polygon fill="none" stroke="black" points="2864.5,-72 2864.5,-109 3079.5,-109 3079.5,-72 2864.5,-72"/>
<text text-anchor="start" x="2895" y="-87.8" font-family="Arial" font-weight="bold" font-size="14.00">ConfigSubCommands</text>
<polygon fill="white" stroke="none" points="2864.5,-5 2864.5,-72 3079.5,-72 3079.5,-5 2864.5,-5"/>
<polygon fill="none" stroke="black" points="2864.5,-5 2864.5,-72 3079.5,-72 3079.5,-5 2864.5,-5"/>
<text text-anchor="start" x="2875.5" y="-49.8" font-family="Arial" font-size="14.00">Add(SettingAddCmd)</text>
<text text-anchor="start" x="2875.5" y="-34.8" font-family="Arial" font-size="14.00">Remove(SettingRemoveCmd)</text>
<text text-anchor="start" x="2875.5" y="-19.8" font-family="Arial" font-size="14.00">Clear</text>
<polygon fill="none" stroke="black" points="2863,-4 2863,-110 3080,-110 3080,-4 2863,-4"/>
</a>
</g>
</g>
<!-- ndSettingAddCmd -->
<g id="node19" class="node"><title>ndSettingAddCmd</title>
<g id="a_node19_13"><a xlink:href="https://github.com/maidsafe/safe_network/blob/master/src/subcommands/config.rs#:~:text=enum%20SettingAddCmd" xlink:title="&lt;TABLE&gt;">
<polygon fill="yellow" stroke="none" points="2816.5,-267 2816.5,-304 2947.5,-304 2947.5,-267 2816.5,-267"/>
<polygon fill="none" stroke="black" points="2816.5,-267 2816.5,-304 2947.5,-304 2947.5,-267 2816.5,-267"/>
<text text-anchor="start" x="2827.5" y="-282.8" font-family="Arial" font-weight="bold" font-size="14.00">SettingAddCmd</text>
<polygon fill="white" stroke="none" points="2816.5,-230 2816.5,-267 2947.5,-267 2947.5,-230 2816.5,-230"/>
<polygon fill="none" stroke="black" points="2816.5,-230 2816.5,-267 2947.5,-267 2947.5,-230 2816.5,-230"/>
<text text-anchor="start" x="2827.5" y="-244.8" font-family="Arial" font-size="14.00">Network</text>
<polygon fill="none" stroke="black" points="2815,-229 2815,-305 2948,-305 2948,-229 2815,-229"/>
</a>
</g>
</g>
<!-- ndSettingAddCmd&#45;&gt;ndConfigSubCommands -->
<g id="edge4" class="edge"><title>ndSettingAddCmd&#45;&gt;ndConfigSubCommands</title>
<path fill="none" stroke="black" d="M2899.28,-224.906C2911.52,-196.629 2928.05,-158.413 2942.21,-125.685"/>
<polygon fill="black" stroke="black" points="2942.35,-125.376 2941.06,-118.281 2947.11,-114.363 2948.4,-121.458 2942.35,-125.376"/>
</g>
<!-- ndSettingRemoveCmd -->
<g id="node20" class="node"><title>ndSettingRemoveCmd</title>
<g id="a_node20_14"><a xlink:href="https://github.com/maidsafe/safe_network/blob/master/src/subcommands/config.rs#:~:text=enum%20SettingRemoveCmd" xlink:title="&lt;TABLE&gt;">
<polygon fill="yellow" stroke="none" points="2982.5,-267 2982.5,-304 3142.5,-304 3142.5,-267 2982.5,-267"/>
<polygon fill="none" stroke="black" points="2982.5,-267 2982.5,-304 3142.5,-304 3142.5,-267 2982.5,-267"/>
<text text-anchor="start" x="2993.5" y="-282.8" font-family="Arial" font-weight="bold" font-size="14.00">SettingRemoveCmd</text>
<polygon fill="white" stroke="none" points="2982.5,-230 2982.5,-267 3142.5,-267 3142.5,-230 2982.5,-230"/>
<polygon fill="none" stroke="black" points="2982.5,-230 2982.5,-267 3142.5,-267 3142.5,-230 2982.5,-230"/>
<text text-anchor="start" x="2993.5" y="-244.8" font-family="Arial" font-size="14.00">Network</text>
<polygon fill="none" stroke="black" points="2981.5,-229 2981.5,-305 3143.5,-305 3143.5,-229 2981.5,-229"/>
</a>
</g>
</g>
<!-- ndSettingRemoveCmd&#45;&gt;ndConfigSubCommands -->
<g id="edge5" class="edge"><title>ndSettingRemoveCmd&#45;&gt;ndConfigSubCommands</title>
<path fill="none" stroke="black" d="M3044.52,-224.906C3032.15,-196.629 3015.43,-158.413 3001.11,-125.685"/>
<polygon fill="black" stroke="black" points="3000.97,-125.357 2994.9,-121.463 2996.16,-114.363 3002.23,-118.256 3000.97,-125.357"/>
</g>
<!-- ndSetupSubCommands -->
<g id="node21" class="node"><title>ndSetupSubCommands</title>
<g id="a_node21_15"><a xlink:href="https://github.com/maidsafe/safe_network/blob/master/src/subcommands/setup.rs#:~:text=enum%20SetupSubCommands" xlink:title="&lt;TABLE&gt;">
<polygon fill="yellow" stroke="none" points="3178.5,-267 3178.5,-304 3348.5,-304 3348.5,-267 3178.5,-267"/>
<polygon fill="none" stroke="black" points="3178.5,-267 3178.5,-304 3348.5,-304 3348.5,-267 3178.5,-267"/>
<text text-anchor="start" x="3189.5" y="-282.8" font-family="Arial" font-weight="bold" font-size="14.00">SetupSubCommands</text>
<polygon fill="white" stroke="none" points="3178.5,-230 3178.5,-267 3348.5,-267 3348.5,-230 3178.5,-230"/>
<polygon fill="none" stroke="black" points="3178.5,-230 3178.5,-267 3348.5,-267 3348.5,-230 3178.5,-230"/>
<text text-anchor="start" x="3189.5" y="-244.8" font-family="Arial" font-size="14.00">Completions</text>
<polygon fill="none" stroke="black" points="3177.5,-229 3177.5,-305 3349.5,-305 3349.5,-229 3177.5,-229"/>
</a>
</g>
</g>
<!-- ndEnvironment -->
<g id="node22" class="node"><title>ndEnvironment</title>
<text text-anchor="middle" x="3426.5" y="-263.3" font-family="Times,serif" font-size="14.00">ndEnvironment</text>
</g>
<!-- ndSafeSeed -->
<g id="node23" class="node"><title>ndSafeSeed</title>
<g id="a_node23_16"><a xlink:href="https://github.com/maidsafe/safe_network/blob/master/src/operations/auth_daemon.rs#:~:text=struct%20SafeSeed" xlink:title="&lt;TABLE&gt;">
<polygon fill="lightblue" stroke="none" points="3504.5,-274 3504.5,-311 4004.5,-311 4004.5,-274 3504.5,-274"/>
<polygon fill="none" stroke="black" points="3504.5,-274 3504.5,-311 4004.5,-311 4004.5,-274 3504.5,-274"/>
<text text-anchor="start" x="3515.5" y="-289.8" font-family="Arial" font-weight="bold" font-size="14.00">struct SafeSeed { &#160;&#160;&#160;pub passphrase: String, &#160;&#160;&#160;pub password: String,}</text>
<polygon fill="white" stroke="none" points="3504.5,-222 3504.5,-274 4004.5,-274 4004.5,-222 3504.5,-222"/>
<polygon fill="none" stroke="black" points="3504.5,-222 3504.5,-274 4004.5,-274 4004.5,-222 3504.5,-222"/>
<text text-anchor="start" x="3515.5" y="-251.8" font-family="Arial" font-size="14.00">+ passphrase: String</text>
<text text-anchor="start" x="3515.5" y="-236.8" font-family="Arial" font-size="14.00">+ password: String</text>
<polygon fill="none" stroke="black" points="3503.5,-221.5 3503.5,-312.5 4005.5,-312.5 4005.5,-221.5 3503.5,-221.5"/>
</a>
</g>
</g>
<!-- ndNetworkLauncher -->
<g id="node24" class="node"><title>ndNetworkLauncher</title>
<g id="a_node24_17"><a xlink:href="https://github.com/maidsafe/safe_network/blob/master/src/operations/config.rs#:~:text=trait%20NetworkLauncher" xlink:title="&lt;TABLE&gt;">
<polygon fill="lightgreen" stroke="none" points="4040.5,-248 4040.5,-285 4186.5,-285 4186.5,-248 4040.5,-248"/>
<polygon fill="none" stroke="black" points="4040.5,-248 4040.5,-285 4186.5,-285 4186.5,-248 4040.5,-248"/>
<text text-anchor="start" x="4051.5" y="-263.8" font-family="Arial" font-weight="bold" font-size="14.00">NetworkLauncher</text>
<polygon fill="none" stroke="black" points="4039.5,-247.5 4039.5,-286.5 4187.5,-286.5 4187.5,-247.5 4039.5,-247.5"/>
</a>
</g>
</g>
<!-- ndSnLaunchToolNetworkLauncher -->
<g id="node25" class="node"><title>ndSnLaunchToolNetworkLauncher</title>
<g id="a_node25_18"><a xlink:href="https://github.com/maidsafe/safe_network/blob/master/src/operations/config.rs#:~:text=struct%20SnLaunchToolNetworkLauncher" xlink:title="&lt;TABLE&gt;">
<polygon fill="lightblue" stroke="none" points="3944.5,-38 3944.5,-75 4282.5,-75 4282.5,-38 3944.5,-38"/>
<polygon fill="none" stroke="black" points="3944.5,-38 3944.5,-75 4282.5,-75 4282.5,-38 3944.5,-38"/>
<text text-anchor="start" x="3955.5" y="-53.8" font-family="Arial" font-weight="bold" font-size="14.00">pub struct SnLaunchToolNetworkLauncher {}</text>
<polygon fill="none" stroke="black" points="3943.5,-37.5 3943.5,-76.5 4283.5,-76.5 4283.5,-37.5 3943.5,-37.5"/>
</a>
</g>
</g>
<!-- ndNetworkLauncher&#45;&gt;ndSnLaunchToolNetworkLauncher -->
<g id="edge6" class="edge"><title>ndNetworkLauncher&#45;&gt;ndSnLaunchToolNetworkLauncher</title>
<path fill="none" stroke="black" stroke-dasharray="5,2" d="M4113.5,-243.344C4113.5,-206.46 4113.5,-133.282 4113.5,-90.7421"/>
<polygon fill="none" stroke="black" points="4117,-90.6276 4113.5,-80.6277 4110,-90.6277 4117,-90.6276"/>
</g>
<!-- ndNetworkInfo -->
<g id="node26" class="node"><title>ndNetworkInfo</title>
<g id="a_node26_19"><a xlink:href="https://github.com/maidsafe/safe_network/blob/master/src/operations/config.rs#:~:text=enum%20NetworkInfo" xlink:title="&lt;TABLE&gt;">
<polygon fill="yellow" stroke="none" points="4605.5,-274 4605.5,-311 4790.5,-311 4790.5,-274 4605.5,-274"/>
<polygon fill="none" stroke="black" points="4605.5,-274 4605.5,-311 4790.5,-311 4790.5,-274 4605.5,-274"/>
<text text-anchor="start" x="4656" y="-289.8" font-family="Arial" font-weight="bold" font-size="14.00">NetworkInfo</text>
<polygon fill="white" stroke="none" points="4605.5,-222 4605.5,-274 4790.5,-274 4790.5,-222 4605.5,-222"/>
<polygon fill="none" stroke="black" points="4605.5,-222 4605.5,-274 4790.5,-274 4790.5,-222 4605.5,-222"/>
<text text-anchor="start" x="4616.5" y="-251.8" font-family="Arial" font-size="14.00">NodeConfig(NodeConfig)</text>
<text text-anchor="start" x="4616.5" y="-236.8" font-family="Arial" font-size="14.00">ConnInfoLocation(String)</text>
<polygon fill="none" stroke="black" points="4604,-221.5 4604,-312.5 4791,-312.5 4791,-221.5 4604,-221.5"/>
</a>
</g>
</g>
<!-- ndConfig -->
<g id="node28" class="node"><title>ndConfig</title>
<g id="a_node28_20"><a xlink:href="https://github.com/maidsafe/safe_network/blob/master/src/operations/config.rs#:~:text=struct%20Config" xlink:title="&lt;TABLE&gt;">
<polygon fill="lightblue" stroke="none" points="4318.5,-72 4318.5,-109 5076.5,-109 5076.5,-72 4318.5,-72"/>
<polygon fill="none" stroke="black" points="4318.5,-72 4318.5,-109 5076.5,-109 5076.5,-72 4318.5,-72"/>
<text text-anchor="start" x="4329.5" y="-87.8" font-family="Arial" font-weight="bold" font-size="14.00">pub struct Config { &#160;&#160;&#160;settings: Settings, &#160;&#160;&#160;pub cli_config_path: PathBuf, &#160;&#160;&#160;pub node_config_path: PathBuf,}</text>
<polygon fill="white" stroke="none" points="4318.5,-5 4318.5,-72 5076.5,-72 5076.5,-5 4318.5,-5"/>
<polygon fill="none" stroke="black" points="4318.5,-5 4318.5,-72 5076.5,-72 5076.5,-5 4318.5,-5"/>
<text text-anchor="start" x="4329.5" y="-49.8" font-family="Arial" font-size="14.00">&#45; settings: Settings</text>
<text text-anchor="start" x="4329.5" y="-34.8" font-family="Arial" font-size="14.00">+ cli_config_path: PathBuf</text>
<text text-anchor="start" x="4329.5" y="-19.8" font-family="Arial" font-size="14.00">+ node_config_path: PathBuf</text>
<polygon fill="none" stroke="black" points="4317.5,-4 4317.5,-110 5077.5,-110 5077.5,-4 4317.5,-4"/>
</a>
</g>
</g>
<!-- ndNetworkInfo&#45;&gt;ndConfig -->
<g id="edge7" class="edge"><title>ndNetworkInfo&#45;&gt;ndConfig</title>
<path fill="none" stroke="black" d="M4691.69,-217.496C4690.65,-189.778 4690.47,-154.622 4691.16,-124.375"/>
<polygon fill="black" stroke="black" points="4691.42,-114.323 4695.66,-124.438 4691.29,-119.321 4691.16,-124.319 4691.16,-124.319 4691.16,-124.319 4691.29,-119.321 4686.66,-124.2 4691.42,-114.323 4691.42,-114.323"/>
</g>
<!-- ndSettings -->
<g id="node27" class="node"><title>ndSettings</title>
<text text-anchor="middle" x="4854.5" y="-263.3" font-family="Times,serif" font-size="14.00">ndSettings</text>
</g>
<!-- ndSettings&#45;&gt;ndConfig -->
<g id="edge8" class="edge"><title>ndSettings&#45;&gt;ndConfig</title>
<path fill="none" stroke="black" d="M4850.41,-248.962C4844.1,-225.131 4830.27,-181.262 4807.5,-150 4800.52,-140.417 4792.33,-131.215 4783.62,-122.585"/>
<polygon fill="black" stroke="black" points="4783.45,-122.427 4776.35,-121.186 4774.76,-114.152 4781.87,-115.393 4783.45,-122.427"/>
</g>
<!-- ndConfig&#45;&gt;ndNetworkInfo -->
<g id="edge9" class="edge"><title>ndConfig&#45;&gt;ndNetworkInfo</title>
<path fill="none" stroke="black" stroke-dasharray="5,2" d="M4703.58,-114.323C4704.45,-143.177 4704.47,-178.28 4703.64,-207.447"/>
<polygon fill="black" stroke="black" points="4703.31,-217.496 4699.14,-207.353 4703.48,-212.498 4703.64,-207.501 4703.64,-207.501 4703.64,-207.501 4703.48,-212.498 4708.14,-207.649 4703.31,-217.496 4703.31,-217.496"/>
</g>
</g>
</svg>
