<?xml version="1.0" encoding="UTF-8" standalone="no"?>
<!DOCTYPE svg PUBLIC "-//W3C//DTD SVG 1.1//EN"
 "http://www.w3.org/Graphics/SVG/1.1/DTD/svg11.dtd">
<!-- Generated by graphviz version 2.38.0 (20140413.2041)
 -->
<!-- Title: ml Pages: 1 -->
<svg width="5967pt" height="579pt"
 viewBox="0.00 0.00 5967.00 579.00" xmlns="http://www.w3.org/2000/svg" xmlns:xlink="http://www.w3.org/1999/xlink">
<g id="graph0" class="graph" transform="scale(1 1) rotate(0) translate(4 575)">
<title>ml</title>
<polygon fill="white" stroke="none" points="-4,4 -4,-575 5963,-575 5963,4 -4,4"/>
<!-- ndCmdArgs -->
<g id="node1" class="node"><title>ndCmdArgs</title>
<g id="a_node1_0"><a xlink:href="https://github.com/maidsafe/safe_network/blob/master/src/cli.rs#:~:text=struct%20CmdArgs" xlink:title="&lt;TABLE&gt;">
<polygon fill="lightblue" stroke="none" points="183.5,-180.5 183.5,-217.5 427.5,-217.5 427.5,-180.5 183.5,-180.5"/>
<polygon fill="none" stroke="black" points="183.5,-180.5 183.5,-217.5 427.5,-217.5 427.5,-180.5 183.5,-180.5"/>
<text text-anchor="start" x="272.5" y="-196.3" font-family="Arial" font-weight="bold" font-size="14.00">CmdArgs</text>
<polygon fill="white" stroke="none" points="183.5,-83.5 183.5,-180.5 427.5,-180.5 427.5,-83.5 183.5,-83.5"/>
<polygon fill="none" stroke="black" points="183.5,-83.5 183.5,-180.5 427.5,-180.5 427.5,-83.5 183.5,-83.5"/>
<text text-anchor="start" x="194.5" y="-158.3" font-family="Arial" font-size="14.00">+ cmd: SubCommands</text>
<text text-anchor="start" x="194.5" y="-143.3" font-family="Arial" font-size="14.00">&#45; output_fmt: Option&lt;OutputFmt&gt;</text>
<text text-anchor="start" x="194.5" y="-128.3" font-family="Arial" font-size="14.00">&#45; output_json: bool</text>
<text text-anchor="start" x="194.5" y="-113.3" font-family="Arial" font-size="14.00">&#45; dry: bool</text>
<text text-anchor="start" x="194.5" y="-98.3" font-family="Arial" font-size="14.00">&#45; xorurl_base: Option&lt;XorUrlBase&gt;</text>
<polygon fill="none" stroke="black" points="182.5,-82.5 182.5,-218.5 428.5,-218.5 428.5,-82.5 182.5,-82.5"/>
</a>
</g>
</g>
<!-- ndSafeIdSubCommands -->
<g id="node2" class="node"><title>ndSafeIdSubCommands</title>
<g id="a_node2_1"><a xlink:href="https://github.com/maidsafe/safe_network/blob/master/src/subcommands/safe_id.rs#:~:text=enum%20SafeIdSubCommands" xlink:title="&lt;TABLE&gt;">
<polygon fill="yellow" stroke="none" points="619.5,-461 619.5,-498 792.5,-498 792.5,-461 619.5,-461"/>
<polygon fill="none" stroke="black" points="619.5,-461 619.5,-498 792.5,-498 792.5,-461 619.5,-461"/>
<text text-anchor="start" x="630.5" y="-476.8" font-family="Arial" font-weight="bold" font-size="14.00">SafeIdSubCommands</text>
<polygon fill="white" stroke="none" points="619.5,-409 619.5,-461 792.5,-461 792.5,-409 619.5,-409"/>
<polygon fill="none" stroke="black" points="619.5,-409 619.5,-461 792.5,-461 792.5,-409 619.5,-409"/>
<text text-anchor="start" x="630.5" y="-438.8" font-family="Arial" font-size="14.00">Create</text>
<text text-anchor="start" x="630.5" y="-423.8" font-family="Arial" font-size="14.00">Update</text>
<polygon fill="none" stroke="black" points="618,-408.5 618,-499.5 793,-499.5 793,-408.5 618,-408.5"/>
</a>
</g>
</g>
<!-- ndNrsSubCommands -->
<g id="node3" class="node"><title>ndNrsSubCommands</title>
<g id="a_node3_2"><a xlink:href="https://github.com/maidsafe/safe_network/blob/master/src/subcommands/nrs.rs#:~:text=enum%20NrsSubCommands" xlink:title="&lt;TABLE&gt;">
<polygon fill="yellow" stroke="none" points="828.5,-469 828.5,-506 982.5,-506 982.5,-469 828.5,-469"/>
<polygon fill="none" stroke="black" points="828.5,-469 828.5,-506 982.5,-506 982.5,-469 828.5,-469"/>
<text text-anchor="start" x="839.5" y="-484.8" font-family="Arial" font-weight="bold" font-size="14.00">NrsSubCommands</text>
<polygon fill="white" stroke="none" points="828.5,-402 828.5,-469 982.5,-469 982.5,-402 828.5,-402"/>
<polygon fill="none" stroke="black" points="828.5,-402 828.5,-469 982.5,-469 982.5,-402 828.5,-402"/>
<text text-anchor="start" x="839.5" y="-446.8" font-family="Arial" font-size="14.00">Add</text>
<text text-anchor="start" x="839.5" y="-431.8" font-family="Arial" font-size="14.00">Register</text>
<text text-anchor="start" x="839.5" y="-416.8" font-family="Arial" font-size="14.00">Remove</text>
<polygon fill="none" stroke="black" points="827.5,-401 827.5,-507 983.5,-507 983.5,-401 827.5,-401"/>
</a>
</g>
</g>
<!-- ndNetworksSubCommands -->
<g id="node4" class="node"><title>ndNetworksSubCommands</title>
<g id="a_node4_3"><a xlink:href="https://github.com/maidsafe/safe_network/blob/master/src/subcommands/networks.rs#:~:text=enum%20NetworksSubCommands" xlink:title="&lt;TABLE&gt;">
<polygon fill="yellow" stroke="none" points="1019.5,-484 1019.5,-521 1214.5,-521 1214.5,-484 1019.5,-484"/>
<polygon fill="none" stroke="black" points="1019.5,-484 1019.5,-521 1214.5,-521 1214.5,-484 1019.5,-484"/>
<text text-anchor="start" x="1030.5" y="-499.8" font-family="Arial" font-weight="bold" font-size="14.00">NetworksSubCommands</text>
<polygon fill="white" stroke="none" points="1019.5,-387 1019.5,-484 1214.5,-484 1214.5,-387 1019.5,-387"/>
<polygon fill="none" stroke="black" points="1019.5,-387 1019.5,-484 1214.5,-484 1214.5,-387 1019.5,-387"/>
<text text-anchor="start" x="1030.5" y="-461.8" font-family="Arial" font-size="14.00">Switch</text>
<text text-anchor="start" x="1030.5" y="-446.8" font-family="Arial" font-size="14.00">Check</text>
<text text-anchor="start" x="1030.5" y="-431.8" font-family="Arial" font-size="14.00">Add</text>
<text text-anchor="start" x="1030.5" y="-416.8" font-family="Arial" font-size="14.00">Set</text>
<text text-anchor="start" x="1030.5" y="-401.8" font-family="Arial" font-size="14.00">Remove</text>
<polygon fill="none" stroke="black" points="1018,-386 1018,-522 1215,-522 1215,-386 1018,-386"/>
</a>
</g>
</g>
<!-- ndNodeSubCommands -->
<g id="node5" class="node"><title>ndNodeSubCommands</title>
<g id="a_node5_4"><a xlink:href="https://github.com/maidsafe/safe_network/blob/master/src/subcommands/node.rs#:~:text=enum%20NodeSubCommands" xlink:title="&lt;TABLE&gt;">
<polygon fill="yellow" stroke="none" points="1250.5,-491 1250.5,-528 1416.5,-528 1416.5,-491 1250.5,-491"/>
<polygon fill="none" stroke="black" points="1250.5,-491 1250.5,-528 1416.5,-528 1416.5,-491 1250.5,-491"/>
<text text-anchor="start" x="1261.5" y="-506.8" font-family="Arial" font-weight="bold" font-size="14.00">NodeSubCommands</text>
<polygon fill="white" stroke="none" points="1250.5,-379 1250.5,-491 1416.5,-491 1416.5,-379 1250.5,-379"/>
<polygon fill="none" stroke="black" points="1250.5,-379 1250.5,-491 1416.5,-491 1416.5,-379 1250.5,-379"/>
<text text-anchor="start" x="1261.5" y="-468.8" font-family="Arial" font-size="14.00">BinVersion</text>
<text text-anchor="start" x="1261.5" y="-453.8" font-family="Arial" font-size="14.00">Install</text>
<text text-anchor="start" x="1261.5" y="-438.8" font-family="Arial" font-size="14.00">Join</text>
<text text-anchor="start" x="1261.5" y="-423.8" font-family="Arial" font-size="14.00">Run</text>
<text text-anchor="start" x="1261.5" y="-408.8" font-family="Arial" font-size="14.00">Killall</text>
<text text-anchor="start" x="1261.5" y="-393.8" font-family="Arial" font-size="14.00">Update</text>
<polygon fill="none" stroke="black" points="1249.5,-378.5 1249.5,-529.5 1417.5,-529.5 1417.5,-378.5 1249.5,-378.5"/>
</a>
</g>
</g>
<!-- ndOutputFmt -->
<g id="node6" class="node"><title>ndOutputFmt</title>
<g id="a_node6_5"><a xlink:href="https://github.com/maidsafe/safe_network/blob/master/src/subcommands/mod.rs#:~:text=enum%20OutputFmt" xlink:title="&lt;TABLE&gt;">
<polygon fill="yellow" stroke="none" points="9.5,-495 9.5,-532 298.5,-532 298.5,-495 9.5,-495"/>
<polygon fill="none" stroke="black" points="9.5,-495 9.5,-532 298.5,-532 298.5,-495 9.5,-495"/>
<text text-anchor="start" x="117" y="-510.8" font-family="Arial" font-weight="bold" font-size="14.00">OutputFmt</text>
<polygon fill="white" stroke="none" points="9.5,-413 9.5,-495 298.5,-495 298.5,-413 9.5,-413"/>
<polygon fill="none" stroke="black" points="9.5,-413 9.5,-495 298.5,-495 298.5,-413 9.5,-413"/>
<text text-anchor="start" x="20.5" y="-472.8" font-family="Arial" font-size="14.00">Pretty</text>
<text text-anchor="start" x="20.5" y="-457.8" font-family="Arial" font-size="14.00">Json</text>
<text text-anchor="start" x="20.5" y="-442.8" font-family="Arial" font-size="14.00">JsonCompact</text>
<text text-anchor="start" x="20.5" y="-427.8" font-family="Arial" font-size="14.00">Yaml</text>
<polygon fill="white" stroke="none" points="9.5,-376 9.5,-413 298.5,-413 298.5,-376 9.5,-376"/>
<polygon fill="none" stroke="black" points="9.5,-376 9.5,-413 298.5,-413 298.5,-376 9.5,-376"/>
<text text-anchor="start" x="20.5" y="-390.8" font-family="Arial" font-size="14.00">&#45; from_str(str: &amp;str) &#45;&gt; Result&lt;Self, String&gt;</text>
<polygon fill="none" stroke="black" points="8,-375 8,-533 299,-533 299,-375 8,-375"/>
</a>
</g>
</g>
<!-- ndOutputFmt&#45;&gt;ndCmdArgs -->
<g id="edge1" class="edge"><title>ndOutputFmt&#45;&gt;ndCmdArgs</title>
<path fill="none" stroke="black" d="M195.035,-370.614C216.544,-327.95 242.725,-276.018 264.2,-233.421"/>
<polygon fill="black" stroke="black" points="264.293,-233.237 263.422,-226.079 269.695,-222.522 270.565,-229.68 264.293,-233.237"/>
</g>
<!-- ndSubCommands -->
<g id="node7" class="node"><title>ndSubCommands</title>
<g id="a_node7_6"><a xlink:href="https://github.com/maidsafe/safe_network/blob/master/src/subcommands/mod.rs#:~:text=enum%20SubCommands" xlink:title="&lt;TABLE&gt;">
<polygon fill="yellow" stroke="none" points="334.5,-529 334.5,-566 582.5,-566 582.5,-529 334.5,-529"/>
<polygon fill="none" stroke="black" points="334.5,-529 334.5,-566 582.5,-566 582.5,-529 334.5,-529"/>
<text text-anchor="start" x="404.5" y="-544.8" font-family="Arial" font-weight="bold" font-size="14.00">SubCommands</text>
<polygon fill="white" stroke="none" points="334.5,-342 334.5,-529 582.5,-529 582.5,-342 334.5,-342"/>
<polygon fill="none" stroke="black" points="334.5,-342 334.5,-529 582.5,-529 582.5,-342 334.5,-342"/>
<text text-anchor="start" x="345.5" y="-506.8" font-family="Arial" font-size="14.00">Config</text>
<text text-anchor="start" x="345.5" y="-491.8" font-family="Arial" font-size="14.00">Networks</text>
<text text-anchor="start" x="345.5" y="-476.8" font-family="Arial" font-size="14.00">Cat(cat::CatCommands)</text>
<text text-anchor="start" x="345.5" y="-461.8" font-family="Arial" font-size="14.00">Dog(dog::DogCommands)</text>
<text text-anchor="start" x="345.5" y="-446.8" font-family="Arial" font-size="14.00">Files(files::FilesSubCommands)</text>
<text text-anchor="start" x="345.5" y="-431.8" font-family="Arial" font-size="14.00">Setup(setup::SetupSubCommands)</text>
<text text-anchor="start" x="345.5" y="-416.8" font-family="Arial" font-size="14.00">Nrs(nrs::NrsSubCommands)</text>
<text text-anchor="start" x="345.5" y="-401.8" font-family="Arial" font-size="14.00">Keys(keys::KeysSubCommands)</text>
<text text-anchor="start" x="345.5" y="-386.8" font-family="Arial" font-size="14.00">Xorurl</text>
<text text-anchor="start" x="345.5" y="-371.8" font-family="Arial" font-size="14.00">Update</text>
<text text-anchor="start" x="345.5" y="-356.8" font-family="Arial" font-size="14.00">Node</text>
<polygon fill="none" stroke="black" points="333.5,-341 333.5,-567 583.5,-567 583.5,-341 333.5,-341"/>
</a>
</g>
</g>
<!-- ndSubCommands&#45;&gt;ndCmdArgs -->
<g id="edge2" class="edge"><title>ndSubCommands&#45;&gt;ndCmdArgs</title>
<path fill="none" stroke="black" d="M399.565,-336.863C382.095,-302.437 363.333,-265.464 347.196,-233.666"/>
<polygon fill="black" stroke="black" points="347.035,-233.348 340.753,-229.808 341.604,-222.647 347.887,-226.187 347.035,-233.348"/>
</g>
<!-- ndCatCommands -->
<g id="node8" class="node"><title>ndCatCommands</title>
<g id="a_node8_7"><a xlink:href="https://github.com/maidsafe/safe_network/blob/master/src/subcommands/cat.rs#:~:text=struct%20CatCommands" xlink:title="&lt;TABLE&gt;">
<polygon fill="lightblue" stroke="none" points="1452.5,-461 1452.5,-498 1634.5,-498 1634.5,-461 1452.5,-461"/>
<polygon fill="none" stroke="black" points="1452.5,-461 1452.5,-498 1634.5,-498 1634.5,-461 1452.5,-461"/>
<text text-anchor="start" x="1492" y="-476.8" font-family="Arial" font-weight="bold" font-size="14.00">CatCommands</text>
<polygon fill="white" stroke="none" points="1452.5,-409 1452.5,-461 1634.5,-461 1634.5,-409 1452.5,-409"/>
<polygon fill="none" stroke="black" points="1452.5,-409 1452.5,-461 1634.5,-461 1634.5,-409 1452.5,-409"/>
<text text-anchor="start" x="1463.5" y="-438.8" font-family="Arial" font-size="14.00">&#45; location: Option&lt;String&gt;</text>
<text text-anchor="start" x="1463.5" y="-423.8" font-family="Arial" font-size="14.00">&#45; hexdump: bool</text>
<polygon fill="none" stroke="black" points="1451.5,-408.5 1451.5,-499.5 1635.5,-499.5 1635.5,-408.5 1451.5,-408.5"/>
</a>
</g>
</g>
<!-- ndDogCommands -->
<g id="node9" class="node"><title>ndDogCommands</title>
<g id="a_node9_8"><a xlink:href="https://github.com/maidsafe/safe_network/blob/master/src/subcommands/dog.rs#:~:text=struct%20DogCommands" xlink:title="&lt;TABLE&gt;">
<polygon fill="lightblue" stroke="none" points="1670.5,-454 1670.5,-491 1852.5,-491 1852.5,-454 1670.5,-454"/>
<polygon fill="none" stroke="black" points="1670.5,-454 1670.5,-491 1852.5,-491 1852.5,-454 1670.5,-454"/>
<text text-anchor="start" x="1707" y="-469.8" font-family="Arial" font-weight="bold" font-size="14.00">DogCommands</text>
<polygon fill="white" stroke="none" points="1670.5,-417 1670.5,-454 1852.5,-454 1852.5,-417 1670.5,-417"/>
<polygon fill="none" stroke="black" points="1670.5,-417 1670.5,-454 1852.5,-454 1852.5,-417 1670.5,-417"/>
<text text-anchor="start" x="1681.5" y="-431.8" font-family="Arial" font-size="14.00">&#45; location: Option&lt;String&gt;</text>
<polygon fill="none" stroke="black" points="1669.5,-416 1669.5,-492 1853.5,-492 1853.5,-416 1669.5,-416"/>
</a>
</g>
</g>
<!-- ndXorurlSubCommands -->
<g id="node10" class="node"><title>ndXorurlSubCommands</title>
<g id="a_node10_9"><a xlink:href="https://github.com/maidsafe/safe_network/blob/master/src/subcommands/xorurl.rs#:~:text=enum%20XorurlSubCommands" xlink:title="&lt;TABLE&gt;">
<polygon fill="yellow" stroke="none" points="1889.5,-461 1889.5,-498 2062.5,-498 2062.5,-461 1889.5,-461"/>
<polygon fill="none" stroke="black" points="1889.5,-461 1889.5,-498 2062.5,-498 2062.5,-461 1889.5,-461"/>
<text text-anchor="start" x="1900.5" y="-476.8" font-family="Arial" font-weight="bold" font-size="14.00">XorurlSubCommands</text>
<polygon fill="white" stroke="none" points="1889.5,-409 1889.5,-461 2062.5,-461 2062.5,-409 1889.5,-409"/>
<polygon fill="none" stroke="black" points="1889.5,-409 1889.5,-461 2062.5,-461 2062.5,-409 1889.5,-409"/>
<text text-anchor="start" x="1900.5" y="-438.8" font-family="Arial" font-size="14.00">Decode</text>
<text text-anchor="start" x="1900.5" y="-423.8" font-family="Arial" font-size="14.00">Pk</text>
<polygon fill="none" stroke="black" points="1888,-408.5 1888,-499.5 2063,-499.5 2063,-408.5 1888,-408.5"/>
</a>
</g>
</g>
<!-- ndFileTreeNodeType -->
<g id="node11" class="node"><title>ndFileTreeNodeType</title>
<g id="a_node11_10"><a xlink:href="https://github.com/maidsafe/safe_network/blob/master/src/subcommands/files.rs#:~:text=enum%20FileTreeNodeType" xlink:title="&lt;TABLE&gt;">
<polygon fill="yellow" stroke="none" points="2098.5,-469 2098.5,-506 2247.5,-506 2247.5,-469 2098.5,-469"/>
<polygon fill="none" stroke="black" points="2098.5,-469 2098.5,-506 2247.5,-506 2247.5,-469 2098.5,-469"/>
<text text-anchor="start" x="2109.5" y="-484.8" font-family="Arial" font-weight="bold" font-size="14.00">FileTreeNodeType</text>
<polygon fill="white" stroke="none" points="2098.5,-402 2098.5,-469 2247.5,-469 2247.5,-402 2098.5,-402"/>
<polygon fill="none" stroke="black" points="2098.5,-402 2098.5,-469 2247.5,-469 2247.5,-402 2098.5,-402"/>
<text text-anchor="start" x="2109.5" y="-446.8" font-family="Arial" font-size="14.00">File</text>
<text text-anchor="start" x="2109.5" y="-431.8" font-family="Arial" font-size="14.00">Directory</text>
<text text-anchor="start" x="2109.5" y="-416.8" font-family="Arial" font-size="14.00">Symlink</text>
<polygon fill="none" stroke="black" points="2097,-401 2097,-507 2248,-507 2248,-401 2097,-401"/>
</a>
</g>
</g>
<!-- ndFileTreeNode -->
<g id="node12" class="node"><title>ndFileTreeNode</title>
<g id="a_node12_11"><a xlink:href="https://github.com/maidsafe/safe_network/blob/master/src/subcommands/files.rs#:~:text=struct%20FileTreeNode" xlink:title="&lt;TABLE&gt;">
<polygon fill="lightblue" stroke="none" points="1900.5,-206.5 1900.5,-243.5 2444.5,-243.5 2444.5,-206.5 1900.5,-206.5"/>
<polygon fill="none" stroke="black" points="1900.5,-206.5 1900.5,-243.5 2444.5,-243.5 2444.5,-206.5 1900.5,-206.5"/>
<text text-anchor="start" x="2126" y="-222.3" font-family="Arial" font-weight="bold" font-size="14.00">FileTreeNode</text>
<polygon fill="white" stroke="none" points="1900.5,-124.5 1900.5,-206.5 2444.5,-206.5 2444.5,-124.5 1900.5,-124.5"/>
<polygon fill="none" stroke="black" points="1900.5,-124.5 1900.5,-206.5 2444.5,-206.5 2444.5,-124.5 1900.5,-124.5"/>
<text text-anchor="start" x="1911.5" y="-184.3" font-family="Arial" font-size="14.00">&#45; name: String</text>
<text text-anchor="start" x="1911.5" y="-169.3" font-family="Arial" font-size="14.00">&#45; fs_type: FileTreeNodeType</text>
<text text-anchor="start" x="1911.5" y="-154.3" font-family="Arial" font-size="14.00">&#45; details: FileDetails</text>
<text text-anchor="start" x="1911.5" y="-139.3" font-family="Arial" font-size="14.00">&#45; sub: Vec&lt;FileTreeNode&gt;</text>
<polygon fill="white" stroke="none" points="1900.5,-57.5 1900.5,-124.5 2444.5,-124.5 2444.5,-57.5 1900.5,-57.5"/>
<polygon fill="none" stroke="black" points="1900.5,-57.5 1900.5,-124.5 2444.5,-124.5 2444.5,-57.5 1900.5,-57.5"/>
<text text-anchor="start" x="1911.5" y="-102.3" font-family="Arial" font-size="14.00">&#45; new(name: &amp;str, fs_type: FileTreeNodeType, details: FileDetails) &#45;&gt; FileTreeNode</text>
<text text-anchor="start" x="1911.5" y="-87.3" font-family="Arial" font-size="14.00">&#45; find_child(&amp;mut self, name: &amp;str) &#45;&gt; Option&lt;&amp;mut FileTreeNode&gt;</text>
<text text-anchor="start" x="1911.5" y="-72.3" font-family="Arial" font-size="14.00">&#45; add_child(&amp;mut self, leaf: T) &#45;&gt; &amp;mut Self</text>
<polygon fill="none" stroke="black" points="1899.5,-56.5 1899.5,-244.5 2445.5,-244.5 2445.5,-56.5 1899.5,-56.5"/>
</a>
</g>
</g>
<!-- ndFileTreeNodeType&#45;&gt;ndFileTreeNode -->
<g id="edge3" class="edge"><title>ndFileTreeNodeType&#45;&gt;ndFileTreeNode</title>
<path fill="none" stroke="black" stroke-dasharray="5,2" d="M2172.5,-396.997C2172.5,-358.853 2172.5,-307.1 2172.5,-260.944"/>
<polygon fill="black" stroke="black" points="2172.5,-260.719 2168.5,-254.719 2172.5,-248.719 2176.5,-254.718 2172.5,-260.719"/>
</g>
<!-- ndFilesSubCommands -->
<g id="node13" class="node"><title>ndFilesSubCommands</title>
<g id="a_node13_12"><a xlink:href="https://github.com/maidsafe/safe_network/blob/master/src/subcommands/files.rs#:~:text=enum%20FilesSubCommands" xlink:title="&lt;TABLE&gt;">
<polygon fill="yellow" stroke="none" points="2283.5,-499 2283.5,-536 2446.5,-536 2446.5,-499 2283.5,-499"/>
<polygon fill="none" stroke="black" points="2283.5,-499 2283.5,-536 2446.5,-536 2446.5,-499 2283.5,-499"/>
<text text-anchor="start" x="2294.5" y="-514.8" font-family="Arial" font-weight="bold" font-size="14.00">FilesSubCommands</text>
<polygon fill="white" stroke="none" points="2283.5,-372 2283.5,-499 2446.5,-499 2446.5,-372 2283.5,-372"/>
<polygon fill="none" stroke="black" points="2283.5,-372 2283.5,-499 2446.5,-499 2446.5,-372 2283.5,-372"/>
<text text-anchor="start" x="2294.5" y="-476.8" font-family="Arial" font-size="14.00">Put</text>
<text text-anchor="start" x="2294.5" y="-461.8" font-family="Arial" font-size="14.00">Get</text>
<text text-anchor="start" x="2294.5" y="-446.8" font-family="Arial" font-size="14.00">Sync</text>
<text text-anchor="start" x="2294.5" y="-431.8" font-family="Arial" font-size="14.00">Add</text>
<text text-anchor="start" x="2294.5" y="-416.8" font-family="Arial" font-size="14.00">Rm</text>
<text text-anchor="start" x="2294.5" y="-401.8" font-family="Arial" font-size="14.00">Ls</text>
<text text-anchor="start" x="2294.5" y="-386.8" font-family="Arial" font-size="14.00">Tree</text>
<polygon fill="none" stroke="black" points="2282,-371 2282,-537 2447,-537 2447,-371 2282,-371"/>
</a>
</g>
</g>
<!-- ndFilesGetStatus -->
<g id="node14" class="node"><title>ndFilesGetStatus</title>
<g id="a_node14_13"><a xlink:href="https://github.com/maidsafe/safe_network/blob/master/src/subcommands/files_get.rs#:~:text=struct%20FilesGetStatus" xlink:title="&lt;TABLE&gt;">
<polygon fill="lightblue" stroke="none" points="2482.5,-514 2482.5,-551 2688.5,-551 2688.5,-514 2482.5,-514"/>
<polygon fill="none" stroke="black" points="2482.5,-514 2482.5,-551 2688.5,-551 2688.5,-514 2482.5,-514"/>
<text text-anchor="start" x="2534.5" y="-529.8" font-family="Arial" font-weight="bold" font-size="14.00">FilesGetStatus</text>
<polygon fill="white" stroke="none" points="2482.5,-357 2482.5,-514 2688.5,-514 2688.5,-357 2482.5,-357"/>
<polygon fill="none" stroke="black" points="2482.5,-357 2482.5,-514 2688.5,-514 2688.5,-357 2482.5,-357"/>
<text text-anchor="start" x="2493.5" y="-491.8" font-family="Arial" font-size="14.00">+ path_remote: &amp;&#39;a Path</text>
<text text-anchor="start" x="2493.5" y="-476.8" font-family="Arial" font-size="14.00">+ path_local: &amp;&#39;b Path</text>
<text text-anchor="start" x="2493.5" y="-461.8" font-family="Arial" font-size="14.00">+ total_files: u64</text>
<text text-anchor="start" x="2493.5" y="-446.8" font-family="Arial" font-size="14.00">+ current_file: u64</text>
<text text-anchor="start" x="2493.5" y="-431.8" font-family="Arial" font-size="14.00">+ total_transfer_bytes: u64</text>
<text text-anchor="start" x="2493.5" y="-416.8" font-family="Arial" font-size="14.00">+ transfer_bytes_written: u64</text>
<text text-anchor="start" x="2493.5" y="-401.8" font-family="Arial" font-size="14.00">+ file_size: u64</text>
<text text-anchor="start" x="2493.5" y="-386.8" font-family="Arial" font-size="14.00">+ file_bytes_written: u64</text>
<text text-anchor="start" x="2493.5" y="-371.8" font-family="Arial" font-size="14.00">+ file_type: String</text>
<polygon fill="none" stroke="black" points="2481.5,-356 2481.5,-552 2689.5,-552 2689.5,-356 2481.5,-356"/>
</a>
</g>
</g>
<!-- ndFileExistsAction -->
<g id="node15" class="node"><title>ndFileExistsAction</title>
<g id="a_node15_14"><a xlink:href="https://github.com/maidsafe/safe_network/blob/master/src/subcommands/files_get.rs#:~:text=enum%20FileExistsAction" xlink:title="&lt;TABLE&gt;">
<polygon fill="yellow" stroke="none" points="2724.5,-495 2724.5,-532 3013.5,-532 3013.5,-495 2724.5,-495"/>
<polygon fill="none" stroke="black" points="2724.5,-495 2724.5,-532 3013.5,-532 3013.5,-495 2724.5,-495"/>
<text text-anchor="start" x="2813" y="-510.8" font-family="Arial" font-weight="bold" font-size="14.00">FileExistsAction</text>
<polygon fill="white" stroke="none" points="2724.5,-428 2724.5,-495 3013.5,-495 3013.5,-428 2724.5,-428"/>
<polygon fill="none" stroke="black" points="2724.5,-428 2724.5,-495 3013.5,-495 3013.5,-428 2724.5,-428"/>
<text text-anchor="start" x="2735.5" y="-472.8" font-family="Arial" font-size="14.00">Overwrite</text>
<text text-anchor="start" x="2735.5" y="-457.8" font-family="Arial" font-size="14.00">Preserve</text>
<text text-anchor="start" x="2735.5" y="-442.8" font-family="Arial" font-size="14.00">Ask</text>
<polygon fill="white" stroke="none" points="2724.5,-376 2724.5,-428 3013.5,-428 3013.5,-376 2724.5,-376"/>
<polygon fill="none" stroke="black" points="2724.5,-376 2724.5,-428 3013.5,-428 3013.5,-376 2724.5,-376"/>
<text text-anchor="start" x="2735.5" y="-405.8" font-family="Arial" font-size="14.00">&#45; default() &#45;&gt; Self</text>
<text text-anchor="start" x="2735.5" y="-390.8" font-family="Arial" font-size="14.00">&#45; from_str(str: &amp;str) &#45;&gt; Result&lt;Self, String&gt;</text>
<polygon fill="none" stroke="black" points="2723,-375 2723,-533 3014,-533 3014,-375 2723,-375"/>
</a>
</g>
</g>
<!-- ndProgressIndicator -->
<g id="node16" class="node"><title>ndProgressIndicator</title>
<g id="a_node16_15"><a xlink:href="https://github.com/maidsafe/safe_network/blob/master/src/subcommands/files_get.rs#:~:text=enum%20ProgressIndicator" xlink:title="&lt;TABLE&gt;">
<polygon fill="yellow" stroke="none" points="3049.5,-487 3049.5,-524 3338.5,-524 3338.5,-487 3049.5,-487"/>
<polygon fill="none" stroke="black" points="3049.5,-487 3049.5,-524 3338.5,-524 3338.5,-487 3049.5,-487"/>
<text text-anchor="start" x="3130.5" y="-502.8" font-family="Arial" font-weight="bold" font-size="14.00">ProgressIndicator</text>
<polygon fill="white" stroke="none" points="3049.5,-435 3049.5,-487 3338.5,-487 3338.5,-435 3049.5,-435"/>
<polygon fill="none" stroke="black" points="3049.5,-435 3049.5,-487 3338.5,-487 3338.5,-435 3049.5,-435"/>
<text text-anchor="start" x="3060.5" y="-464.8" font-family="Arial" font-size="14.00">Text</text>
<text text-anchor="start" x="3060.5" y="-449.8" font-family="Arial" font-size="14.00">None</text>
<polygon fill="white" stroke="none" points="3049.5,-383 3049.5,-435 3338.5,-435 3338.5,-383 3049.5,-383"/>
<polygon fill="none" stroke="black" points="3049.5,-383 3049.5,-435 3338.5,-435 3338.5,-383 3049.5,-383"/>
<text text-anchor="start" x="3060.5" y="-412.8" font-family="Arial" font-size="14.00">&#45; from_str(str: &amp;str) &#45;&gt; Result&lt;Self, String&gt;</text>
<text text-anchor="start" x="3060.5" y="-397.8" font-family="Arial" font-size="14.00">&#45; default() &#45;&gt; Self</text>
<polygon fill="none" stroke="black" points="3048,-382.5 3048,-525.5 3339,-525.5 3339,-382.5 3048,-382.5"/>
</a>
</g>
</g>
<!-- ndKeysSubCommands -->
<g id="node17" class="node"><title>ndKeysSubCommands</title>
<g id="a_node17_16"><a xlink:href="https://github.com/maidsafe/safe_network/blob/master/src/subcommands/keys.rs#:~:text=enum%20KeysSubCommands" xlink:title="&lt;TABLE&gt;">
<polygon fill="yellow" stroke="none" points="3374.5,-461 3374.5,-498 3539.5,-498 3539.5,-461 3374.5,-461"/>
<polygon fill="none" stroke="black" points="3374.5,-461 3374.5,-498 3539.5,-498 3539.5,-461 3374.5,-461"/>
<text text-anchor="start" x="3385.5" y="-476.8" font-family="Arial" font-weight="bold" font-size="14.00">KeysSubCommands</text>
<polygon fill="white" stroke="none" points="3374.5,-409 3374.5,-461 3539.5,-461 3539.5,-409 3374.5,-409"/>
<polygon fill="none" stroke="black" points="3374.5,-409 3374.5,-461 3539.5,-461 3539.5,-409 3374.5,-409"/>
<text text-anchor="start" x="3385.5" y="-438.8" font-family="Arial" font-size="14.00">Show</text>
<text text-anchor="start" x="3385.5" y="-423.8" font-family="Arial" font-size="14.00">Create</text>
<polygon fill="none" stroke="black" points="3373,-408.5 3373,-499.5 3540,-499.5 3540,-408.5 3373,-408.5"/>
</a>
</g>
</g>
<!-- ndConfigSubCommands -->
<g id="node18" class="node"><title>ndConfigSubCommands</title>
<g id="a_node18_17"><a xlink:href="https://github.com/maidsafe/safe_network/blob/master/src/subcommands/config.rs#:~:text=enum%20ConfigSubCommands" xlink:title="&lt;TABLE&gt;">
<polygon fill="yellow" stroke="none" points="3623.5,-165.5 3623.5,-202.5 3838.5,-202.5 3838.5,-165.5 3623.5,-165.5"/>
<polygon fill="none" stroke="black" points="3623.5,-165.5 3623.5,-202.5 3838.5,-202.5 3838.5,-165.5 3623.5,-165.5"/>
<text text-anchor="start" x="3654" y="-181.3" font-family="Arial" font-weight="bold" font-size="14.00">ConfigSubCommands</text>
<polygon fill="white" stroke="none" points="3623.5,-98.5 3623.5,-165.5 3838.5,-165.5 3838.5,-98.5 3623.5,-98.5"/>
<polygon fill="none" stroke="black" points="3623.5,-98.5 3623.5,-165.5 3838.5,-165.5 3838.5,-98.5 3623.5,-98.5"/>
<text text-anchor="start" x="3634.5" y="-143.3" font-family="Arial" font-size="14.00">Add(SettingAddCmd)</text>
<text text-anchor="start" x="3634.5" y="-128.3" font-family="Arial" font-size="14.00">Remove(SettingRemoveCmd)</text>
<text text-anchor="start" x="3634.5" y="-113.3" font-family="Arial" font-size="14.00">Clear</text>
<polygon fill="none" stroke="black" points="3622,-97.5 3622,-203.5 3839,-203.5 3839,-97.5 3622,-97.5"/>
</a>
</g>
</g>
<!-- ndSettingAddCmd -->
<g id="node19" class="node"><title>ndSettingAddCmd</title>
<g id="a_node19_18"><a xlink:href="https://github.com/maidsafe/safe_network/blob/master/src/subcommands/config.rs#:~:text=enum%20SettingAddCmd" xlink:title="&lt;TABLE&gt;">
<polygon fill="yellow" stroke="none" points="3575.5,-454 3575.5,-491 3706.5,-491 3706.5,-454 3575.5,-454"/>
<polygon fill="none" stroke="black" points="3575.5,-454 3575.5,-491 3706.5,-491 3706.5,-454 3575.5,-454"/>
<text text-anchor="start" x="3586.5" y="-469.8" font-family="Arial" font-weight="bold" font-size="14.00">SettingAddCmd</text>
<polygon fill="white" stroke="none" points="3575.5,-417 3575.5,-454 3706.5,-454 3706.5,-417 3575.5,-417"/>
<polygon fill="none" stroke="black" points="3575.5,-417 3575.5,-454 3706.5,-454 3706.5,-417 3575.5,-417"/>
<text text-anchor="start" x="3586.5" y="-431.8" font-family="Arial" font-size="14.00">Network</text>
<polygon fill="none" stroke="black" points="3574,-416 3574,-492 3707,-492 3707,-416 3574,-416"/>
</a>
</g>
</g>
<!-- ndSettingAddCmd&#45;&gt;ndConfigSubCommands -->
<g id="edge4" class="edge"><title>ndSettingAddCmd&#45;&gt;ndConfigSubCommands</title>
<path fill="none" stroke="black" d="M3652.83,-411.71C3667.6,-362.221 3692.56,-278.585 3710.2,-219.509"/>
<polygon fill="black" stroke="black" points="3710.3,-219.167 3708.18,-212.274 3713.73,-207.669 3715.85,-214.562 3710.3,-219.167"/>
</g>
<!-- ndSettingRemoveCmd -->
<g id="node20" class="node"><title>ndSettingRemoveCmd</title>
<g id="a_node20_19"><a xlink:href="https://github.com/maidsafe/safe_network/blob/master/src/subcommands/config.rs#:~:text=enum%20SettingRemoveCmd" xlink:title="&lt;TABLE&gt;">
<polygon fill="yellow" stroke="none" points="3741.5,-454 3741.5,-491 3901.5,-491 3901.5,-454 3741.5,-454"/>
<polygon fill="none" stroke="black" points="3741.5,-454 3741.5,-491 3901.5,-491 3901.5,-454 3741.5,-454"/>
<text text-anchor="start" x="3752.5" y="-469.8" font-family="Arial" font-weight="bold" font-size="14.00">SettingRemoveCmd</text>
<polygon fill="white" stroke="none" points="3741.5,-417 3741.5,-454 3901.5,-454 3901.5,-417 3741.5,-417"/>
<polygon fill="none" stroke="black" points="3741.5,-417 3741.5,-454 3901.5,-454 3901.5,-417 3741.5,-417"/>
<text text-anchor="start" x="3752.5" y="-431.8" font-family="Arial" font-size="14.00">Network</text>
<polygon fill="none" stroke="black" points="3740.5,-416 3740.5,-492 3902.5,-492 3902.5,-416 3740.5,-416"/>
</a>
</g>
</g>
<!-- ndSettingRemoveCmd&#45;&gt;ndConfigSubCommands -->
<g id="edge5" class="edge"><title>ndSettingRemoveCmd&#45;&gt;ndConfigSubCommands</title>
<path fill="none" stroke="black" d="M3809.04,-411.71C3794.1,-362.221 3768.86,-278.585 3751.03,-219.509"/>
<polygon fill="black" stroke="black" points="3750.92,-219.157 3745.36,-214.568 3747.45,-207.669 3753.02,-212.257 3750.92,-219.157"/>
</g>
<!-- ndSetupSubCommands -->
<g id="node21" class="node"><title>ndSetupSubCommands</title>
<g id="a_node21_20"><a xlink:href="https://github.com/maidsafe/safe_network/blob/master/src/subcommands/setup.rs#:~:text=enum%20SetupSubCommands" xlink:title="&lt;TABLE&gt;">
<polygon fill="yellow" stroke="none" points="3937.5,-454 3937.5,-491 4107.5,-491 4107.5,-454 3937.5,-454"/>
<polygon fill="none" stroke="black" points="3937.5,-454 3937.5,-491 4107.5,-491 4107.5,-454 3937.5,-454"/>
<text text-anchor="start" x="3948.5" y="-469.8" font-family="Arial" font-weight="bold" font-size="14.00">SetupSubCommands</text>
<polygon fill="white" stroke="none" points="3937.5,-417 3937.5,-454 4107.5,-454 4107.5,-417 3937.5,-417"/>
<polygon fill="none" stroke="black" points="3937.5,-417 3937.5,-454 4107.5,-454 4107.5,-417 3937.5,-417"/>
<text text-anchor="start" x="3948.5" y="-431.8" font-family="Arial" font-size="14.00">Completions</text>
<polygon fill="none" stroke="black" points="3936.5,-416 3936.5,-492 4108.5,-492 4108.5,-416 3936.5,-416"/>
</a>
</g>
</g>
<!-- ndEnvironment -->
<g id="node22" class="node"><title>ndEnvironment</title>
<g id="a_node22_21"><a xlink:href="https://github.com/maidsafe/safe_network/blob/master/src/operations/auth_daemon.rs#:~:text=struct%20Environment" xlink:title="&lt;TABLE&gt;">
<polygon fill="lightblue" stroke="none" points="4143.5,-461 4143.5,-498 4421.5,-498 4421.5,-461 4143.5,-461"/>
<polygon fill="none" stroke="black" points="4143.5,-461 4143.5,-498 4421.5,-498 4421.5,-461 4143.5,-461"/>
<text text-anchor="start" x="4237.5" y="-476.8" font-family="Arial" font-weight="bold" font-size="14.00">Environment</text>
<polygon fill="white" stroke="none" points="4143.5,-409 4143.5,-461 4421.5,-461 4421.5,-409 4143.5,-409"/>
<polygon fill="none" stroke="black" points="4143.5,-409 4143.5,-461 4421.5,-461 4421.5,-409 4143.5,-409"/>
<text text-anchor="start" x="4154.5" y="-438.8" font-family="Arial" font-size="14.00">&#45; safe_auth_passphrase: Option&lt;String&gt;</text>
<text text-anchor="start" x="4154.5" y="-423.8" font-family="Arial" font-size="14.00">&#45; safe_auth_password: Option&lt;String&gt;</text>
<polygon fill="none" stroke="black" points="4142.5,-408.5 4142.5,-499.5 4422.5,-499.5 4422.5,-408.5 4142.5,-408.5"/>
</a>
</g>
</g>
<!-- ndSafeSeed -->
<g id="node23" class="node"><title>ndSafeSeed</title>
<g id="a_node23_22"><a xlink:href="https://github.com/maidsafe/safe_network/blob/master/src/operations/auth_daemon.rs#:~:text=struct%20SafeSeed" xlink:title="&lt;TABLE&gt;">
<polygon fill="lightblue" stroke="none" points="4458.5,-461 4458.5,-498 4611.5,-498 4611.5,-461 4458.5,-461"/>
<polygon fill="none" stroke="black" points="4458.5,-461 4458.5,-498 4611.5,-498 4611.5,-461 4458.5,-461"/>
<text text-anchor="start" x="4501.5" y="-476.8" font-family="Arial" font-weight="bold" font-size="14.00">SafeSeed</text>
<polygon fill="white" stroke="none" points="4458.5,-409 4458.5,-461 4611.5,-461 4611.5,-409 4458.5,-409"/>
<polygon fill="none" stroke="black" points="4458.5,-409 4458.5,-461 4611.5,-461 4611.5,-409 4458.5,-409"/>
<text text-anchor="start" x="4469.5" y="-438.8" font-family="Arial" font-size="14.00">+ passphrase: String</text>
<text text-anchor="start" x="4469.5" y="-423.8" font-family="Arial" font-size="14.00">+ password: String</text>
<polygon fill="none" stroke="black" points="4457,-408.5 4457,-499.5 4612,-499.5 4612,-408.5 4457,-408.5"/>
</a>
</g>
</g>
<!-- ndNetworkLauncher -->
<g id="node24" class="node"><title>ndNetworkLauncher</title>
<g id="a_node24_23"><a xlink:href="https://github.com/maidsafe/safe_network/blob/master/src/operations/config.rs#:~:text=trait%20NetworkLauncher" xlink:title="&lt;TABLE&gt;">
<polygon fill="lightgreen" stroke="none" points="4647.5,-461 4647.5,-498 5036.5,-498 5036.5,-461 4647.5,-461"/>
<polygon fill="none" stroke="black" points="4647.5,-461 4647.5,-498 5036.5,-498 5036.5,-461 4647.5,-461"/>
<text text-anchor="start" x="4780" y="-476.8" font-family="Arial" font-weight="bold" font-size="14.00">NetworkLauncher</text>
<polygon fill="white" stroke="none" points="4647.5,-409 4647.5,-461 5036.5,-461 5036.5,-409 4647.5,-409"/>
<polygon fill="none" stroke="black" points="4647.5,-409 4647.5,-461 5036.5,-461 5036.5,-409 4647.5,-409"/>
<text text-anchor="start" x="4658.5" y="-438.8" font-family="Arial" font-size="14.00">launch(&amp;mut Self, Vec&lt;String&gt;, u64) &#45;&gt; Result&lt;(), Report&gt;</text>
<text text-anchor="start" x="4658.5" y="-423.8" font-family="Arial" font-size="14.00">join(&amp;mut Self, Vec&lt;String&gt;) &#45;&gt; Result&lt;(), Report&gt;</text>
<polygon fill="none" stroke="black" points="4646,-408.5 4646,-499.5 5037,-499.5 5037,-408.5 4646,-408.5"/>
</a>
</g>
</g>
<!-- ndSnLaunchToolNetworkLauncher -->
<g id="node25" class="node"><title>ndSnLaunchToolNetworkLauncher</title>
<g id="a_node25_24"><a xlink:href="https://github.com/maidsafe/safe_network/blob/master/src/operations/config.rs#:~:text=struct%20SnLaunchToolNetworkLauncher" xlink:title="&lt;TABLE&gt;">
<polygon fill="lightblue" stroke="none" points="4600.5,-157.5 4600.5,-194.5 5082.5,-194.5 5082.5,-157.5 4600.5,-157.5"/>
<polygon fill="none" stroke="black" points="4600.5,-157.5 4600.5,-194.5 5082.5,-194.5 5082.5,-157.5 4600.5,-157.5"/>
<text text-anchor="start" x="4728.5" y="-173.3" font-family="Arial" font-weight="bold" font-size="14.00">SnLaunchToolNetworkLauncher</text>
<polygon fill="white" stroke="none" points="4600.5,-105.5 4600.5,-157.5 5082.5,-157.5 5082.5,-105.5 4600.5,-105.5"/>
<polygon fill="none" stroke="black" points="4600.5,-105.5 4600.5,-157.5 5082.5,-157.5 5082.5,-105.5 4600.5,-105.5"/>
<text text-anchor="start" x="4611.5" y="-135.3" font-family="Arial" font-size="14.00">&#45; launch(&amp;mut self, args: Vec&lt;String&gt;, interval: u64) &#45;&gt; Result&lt;(), Report&gt;</text>
<text text-anchor="start" x="4611.5" y="-120.3" font-family="Arial" font-size="14.00">&#45; join(&amp;mut self, args: Vec&lt;String&gt;) &#45;&gt; Result&lt;(), Report&gt;</text>
<polygon fill="none" stroke="black" points="4599.5,-105 4599.5,-196 5083.5,-196 5083.5,-105 4599.5,-105"/>
</a>
</g>
</g>
<!-- ndNetworkLauncher&#45;&gt;ndSnLaunchToolNetworkLauncher -->
<g id="edge6" class="edge"><title>ndNetworkLauncher&#45;&gt;ndSnLaunchToolNetworkLauncher</title>
<path fill="none" stroke="black" stroke-dasharray="5,2" d="M4841.5,-404.224C4841.5,-351.349 4841.5,-266.968 4841.5,-210.426"/>
<polygon fill="none" stroke="black" points="4845,-210.206 4841.5,-200.206 4838,-210.206 4845,-210.206"/>
</g>
<!-- ndNetworkInfo -->
<g id="node26" class="node"><title>ndNetworkInfo</title>
<g id="a_node26_25"><a xlink:href="https://github.com/maidsafe/safe_network/blob/master/src/operations/config.rs#:~:text=enum%20NetworkInfo" xlink:title="&lt;TABLE&gt;">
<polygon fill="yellow" stroke="none" points="5260.5,-487 5260.5,-524 5616.5,-524 5616.5,-487 5260.5,-487"/>
<polygon fill="none" stroke="black" points="5260.5,-487 5260.5,-524 5616.5,-524 5616.5,-487 5260.5,-487"/>
<text text-anchor="start" x="5396.5" y="-502.8" font-family="Arial" font-weight="bold" font-size="14.00">NetworkInfo</text>
<polygon fill="white" stroke="none" points="5260.5,-435 5260.5,-487 5616.5,-487 5616.5,-435 5260.5,-435"/>
<polygon fill="none" stroke="black" points="5260.5,-435 5260.5,-487 5616.5,-487 5616.5,-435 5260.5,-435"/>
<text text-anchor="start" x="5271.5" y="-464.8" font-family="Arial" font-size="14.00">NodeConfig(NodeConfig)</text>
<text text-anchor="start" x="5271.5" y="-449.8" font-family="Arial" font-size="14.00">ConnInfoLocation(String)</text>
<polygon fill="white" stroke="none" points="5260.5,-383 5260.5,-435 5616.5,-435 5616.5,-383 5260.5,-383"/>
<polygon fill="none" stroke="black" points="5260.5,-383 5260.5,-435 5616.5,-435 5616.5,-383 5260.5,-383"/>
<text text-anchor="start" x="5271.5" y="-412.8" font-family="Arial" font-size="14.00">&#45; fmt(&amp;self, f: &amp;mut fmt::Formatter&lt;&#39;_&gt;) &#45;&gt; fmt::Result</text>
<text text-anchor="start" x="5271.5" y="-397.8" font-family="Arial" font-size="14.00">&#45; matches(&amp;self, node_config: &amp;NodeConfig) &#45;&gt; bool</text>
<polygon fill="none" stroke="black" points="5259.5,-382.5 5259.5,-525.5 5617.5,-525.5 5617.5,-382.5 5259.5,-382.5"/>
</a>
</g>
</g>
<!-- ndConfig -->
<g id="node28" class="node"><title>ndConfig</title>
<g id="a_node28_26"><a xlink:href="https://github.com/maidsafe/safe_network/blob/master/src/operations/config.rs#:~:text=struct%20Config" xlink:title="&lt;TABLE&gt;">
<polygon fill="lightblue" stroke="none" points="5119.5,-258.5 5119.5,-295.5 5758.5,-295.5 5758.5,-258.5 5119.5,-258.5"/>
<polygon fill="none" stroke="black" points="5119.5,-258.5 5119.5,-295.5 5758.5,-295.5 5758.5,-258.5 5119.5,-258.5"/>
<text text-anchor="start" x="5416" y="-274.3" font-family="Arial" font-weight="bold" font-size="14.00">Config</text>
<polygon fill="white" stroke="none" points="5119.5,-191.5 5119.5,-258.5 5758.5,-258.5 5758.5,-191.5 5119.5,-191.5"/>
<polygon fill="none" stroke="black" points="5119.5,-191.5 5119.5,-258.5 5758.5,-258.5 5758.5,-191.5 5119.5,-191.5"/>
<text text-anchor="start" x="5130.5" y="-236.3" font-family="Arial" font-size="14.00">&#45; settings: Settings</text>
<text text-anchor="start" x="5130.5" y="-221.3" font-family="Arial" font-size="14.00">+ cli_config_path: PathBuf</text>
<text text-anchor="start" x="5130.5" y="-206.3" font-family="Arial" font-size="14.00">+ node_config_path: PathBuf</text>
<polygon fill="white" stroke="none" points="5119.5,-4.5 5119.5,-191.5 5758.5,-191.5 5758.5,-4.5 5119.5,-4.5"/>
<polygon fill="none" stroke="black" points="5119.5,-4.5 5119.5,-191.5 5758.5,-191.5 5758.5,-4.5 5119.5,-4.5"/>
<text text-anchor="start" x="5130.5" y="-169.3" font-family="Arial" font-size="14.00">&#45; new(cli_config_path: PathBuf, node_config_path: PathBuf) &#45;&gt; Result&lt;Config&gt;</text>
<text text-anchor="start" x="5130.5" y="-154.3" font-family="Arial" font-size="14.00">&#45; read_current_node_config(&amp;self) &#45;&gt; Result&lt;(PathBuf, NodeConfig)&gt;</text>
<text text-anchor="start" x="5130.5" y="-139.3" font-family="Arial" font-size="14.00">&#45; get_network_info(&amp;self, name: &amp;str) &#45;&gt; Result&lt;NodeConfig&gt;</text>
<text text-anchor="start" x="5130.5" y="-124.3" font-family="Arial" font-size="14.00">&#45; networks_iter(&amp;self) &#45;&gt; impl Iterator&lt;Item = (&amp;String, &amp;NetworkInfo)&gt;</text>
<text text-anchor="start" x="5130.5" y="-109.3" font-family="Arial" font-size="14.00">&#45; add_network(&amp;mut self, name: &amp;str, net_info: Option&lt;NetworkInfo&gt;) &#45;&gt; Result&lt;NetworkInfo&gt;</text>
<text text-anchor="start" x="5130.5" y="-94.3" font-family="Arial" font-size="14.00">&#45; remove_network(&amp;mut self, name: &amp;str) &#45;&gt; Result&lt;()&gt;</text>
<text text-anchor="start" x="5130.5" y="-79.3" font-family="Arial" font-size="14.00">&#45; clear(&amp;mut self) &#45;&gt; Result&lt;()&gt;</text>
<text text-anchor="start" x="5130.5" y="-64.3" font-family="Arial" font-size="14.00">&#45; switch_to_network(&amp;self, name: &amp;str) &#45;&gt; Result&lt;()&gt;</text>
<text text-anchor="start" x="5130.5" y="-49.3" font-family="Arial" font-size="14.00">&#45; print_networks(&amp;self)</text>
<text text-anchor="start" x="5130.5" y="-34.3" font-family="Arial" font-size="14.00">&#45; cache_node_config(&amp;self, network_name: &amp;str, node_config: &amp;NodeConfig) &#45;&gt; Result&lt;PathBuf&gt;</text>
<text text-anchor="start" x="5130.5" y="-19.3" font-family="Arial" font-size="14.00">&#45; write_settings_to_file(&amp;self) &#45;&gt; Result&lt;()&gt;</text>
<polygon fill="none" stroke="black" points="5118,-4 5118,-297 5759,-297 5759,-4 5118,-4"/>
</a>
</g>
</g>
<!-- ndNetworkInfo&#45;&gt;ndConfig -->
<g id="edge7" class="edge"><title>ndNetworkInfo&#45;&gt;ndConfig</title>
<path fill="none" stroke="black" d="M5432.58,-378.472C5432.09,-357.873 5431.82,-334.698 5431.76,-311.231"/>
<polygon fill="black" stroke="black" points="5431.75,-301.163 5436.26,-311.158 5431.76,-306.163 5431.76,-311.163 5431.76,-311.163 5431.76,-311.163 5431.76,-306.163 5427.26,-311.168 5431.75,-301.163 5431.75,-301.163"/>
</g>
<!-- ndSettings -->
<g id="node27" class="node"><title>ndSettings</title>
<g id="a_node27_27"><a xlink:href="https://github.com/maidsafe/safe_network/blob/master/src/operations/config.rs#:~:text=struct%20Settings" xlink:title="&lt;TABLE&gt;">
<polygon fill="lightblue" stroke="none" points="5653.5,-454 5653.5,-491 5950.5,-491 5950.5,-454 5653.5,-454"/>
<polygon fill="none" stroke="black" points="5653.5,-454 5653.5,-491 5950.5,-491 5950.5,-454 5653.5,-454"/>
<text text-anchor="start" x="5773" y="-469.8" font-family="Arial" font-weight="bold" font-size="14.00">Settings</text>
<polygon fill="white" stroke="none" points="5653.5,-417 5653.5,-454 5950.5,-454 5950.5,-417 5653.5,-417"/>
<polygon fill="none" stroke="black" points="5653.5,-417 5653.5,-454 5950.5,-454 5950.5,-417 5653.5,-417"/>
<text text-anchor="start" x="5664.5" y="-431.8" font-family="Arial" font-size="14.00">&#45; networks: BTreeMap&lt;String, NetworkInfo&gt;</text>
<polygon fill="none" stroke="black" points="5652,-416 5652,-492 5951,-492 5951,-416 5652,-416"/>
</a>
</g>
</g>
<!-- ndSettings&#45;&gt;ndConfig -->
<g id="edge8" class="edge"><title>ndSettings&#45;&gt;ndConfig</title>
<path fill="none" stroke="black" d="M5751.79,-411.71C5719.09,-384.551 5674.01,-347.109 5628.23,-309.086"/>
<polygon fill="black" stroke="black" points="5627.99,-308.889 5620.82,-308.132 5618.76,-301.222 5625.93,-301.978 5627.99,-308.889"/>
</g>
<!-- ndConfig&#45;&gt;ndNetworkInfo -->
<g id="edge9" class="edge"><title>ndConfig&#45;&gt;ndNetworkInfo</title>
<path fill="none" stroke="black" stroke-dasharray="5,2" d="M5445.25,-301.163C5445.26,-324.247 5445.05,-347.364 5444.64,-368.35"/>
<polygon fill="black" stroke="black" points="5444.42,-378.472 5440.14,-368.376 5444.52,-373.473 5444.63,-368.474 5444.63,-368.474 5444.63,-368.474 5444.52,-373.473 5449.13,-368.573 5444.42,-378.472 5444.42,-378.472"/>
</g>
</g>
</svg>
