<?xml version="1.0" encoding="UTF-8" standalone="no"?>
<!DOCTYPE svg PUBLIC "-//W3C//DTD SVG 1.1//EN"
 "http://www.w3.org/Graphics/SVG/1.1/DTD/svg11.dtd">
<!-- Generated by graphviz version 2.38.0 (20140413.2041)
 -->
<!-- Title: ml Pages: 1 -->
<svg width="4960pt" height="138pt"
 viewBox="0.00 0.00 4960.00 138.00" xmlns="http://www.w3.org/2000/svg" xmlns:xlink="http://www.w3.org/1999/xlink">
<g id="graph0" class="graph" transform="scale(1 1) rotate(0) translate(4 134)">
<title>ml</title>
<polygon fill="white" stroke="none" points="-4,4 -4,-134 4956,-134 4956,4 -4,4"/>
<!-- ndCmdArgs -->
<g id="node1" class="node"><title>ndCmdArgs</title>
<text text-anchor="middle" x="131" y="-19.8" font-family="Times,serif" font-size="14.00">ndCmdArgs</text>
</g>
<!-- ndSafeIdSubCommands -->
<g id="node2" class="node"><title>ndSafeIdSubCommands</title>
<g id="a_node2_0"><a xlink:href="https://github.com/maidsafe/safe_network/blob/master/src/subcommands/safe_id.rs#:~:text=enum%20SafeIdSubCommands" xlink:title="&lt;TABLE&gt;">
<polygon fill="yellow" stroke="none" points="308,-87.5 308,-124.5 481,-124.5 481,-87.5 308,-87.5"/>
<polygon fill="none" stroke="black" points="308,-87.5 308,-124.5 481,-124.5 481,-87.5 308,-87.5"/>
<text text-anchor="start" x="319" y="-103.3" font-family="Arial" font-weight="bold" font-size="14.00">SafeIdSubCommands</text>
<polygon fill="none" stroke="black" points="306.5,-87 306.5,-126 481.5,-126 481.5,-87 306.5,-87"/>
</a>
</g>
</g>
<!-- ndNrsSubCommands -->
<g id="node3" class="node"><title>ndNrsSubCommands</title>
<g id="a_node3_1"><a xlink:href="https://github.com/maidsafe/safe_network/blob/master/src/subcommands/nrs.rs#:~:text=enum%20NrsSubCommands" xlink:title="&lt;TABLE&gt;">
<polygon fill="yellow" stroke="none" points="517,-87.5 517,-124.5 671,-124.5 671,-87.5 517,-87.5"/>
<polygon fill="none" stroke="black" points="517,-87.5 517,-124.5 671,-124.5 671,-87.5 517,-87.5"/>
<text text-anchor="start" x="528" y="-103.3" font-family="Arial" font-weight="bold" font-size="14.00">NrsSubCommands</text>
<polygon fill="none" stroke="black" points="516,-87 516,-126 672,-126 672,-87 516,-87"/>
</a>
</g>
</g>
<!-- ndNetworksSubCommands -->
<g id="node4" class="node"><title>ndNetworksSubCommands</title>
<g id="a_node4_2"><a xlink:href="https://github.com/maidsafe/safe_network/blob/master/src/subcommands/networks.rs#:~:text=enum%20NetworksSubCommands" xlink:title="&lt;TABLE&gt;">
<polygon fill="yellow" stroke="none" points="708,-87.5 708,-124.5 903,-124.5 903,-87.5 708,-87.5"/>
<polygon fill="none" stroke="black" points="708,-87.5 708,-124.5 903,-124.5 903,-87.5 708,-87.5"/>
<text text-anchor="start" x="719" y="-103.3" font-family="Arial" font-weight="bold" font-size="14.00">NetworksSubCommands</text>
<polygon fill="none" stroke="black" points="706.5,-87 706.5,-126 903.5,-126 903.5,-87 706.5,-87"/>
</a>
</g>
</g>
<!-- ndNodeSubCommands -->
<g id="node5" class="node"><title>ndNodeSubCommands</title>
<g id="a_node5_3"><a xlink:href="https://github.com/maidsafe/safe_network/blob/master/src/subcommands/node.rs#:~:text=enum%20NodeSubCommands" xlink:title="&lt;TABLE&gt;">
<polygon fill="yellow" stroke="none" points="939,-87.5 939,-124.5 1105,-124.5 1105,-87.5 939,-87.5"/>
<polygon fill="none" stroke="black" points="939,-87.5 939,-124.5 1105,-124.5 1105,-87.5 939,-87.5"/>
<text text-anchor="start" x="950" y="-103.3" font-family="Arial" font-weight="bold" font-size="14.00">NodeSubCommands</text>
<polygon fill="none" stroke="black" points="938,-87 938,-126 1106,-126 1106,-87 938,-87"/>
</a>
</g>
</g>
<!-- ndOutputFmt -->
<g id="node6" class="node"><title>ndOutputFmt</title>
<g id="a_node6_4"><a xlink:href="https://github.com/maidsafe/safe_network/blob/master/src/subcommands/mod.rs#:~:text=enum%20OutputFmt" xlink:title="&lt;TABLE&gt;">
<polygon fill="yellow" stroke="none" points="9,-87.5 9,-124.5 105,-124.5 105,-87.5 9,-87.5"/>
<polygon fill="none" stroke="black" points="9,-87.5 9,-124.5 105,-124.5 105,-87.5 9,-87.5"/>
<text text-anchor="start" x="20" y="-103.3" font-family="Arial" font-weight="bold" font-size="14.00">OutputFmt</text>
<polygon fill="none" stroke="black" points="8,-87 8,-126 106,-126 106,-87 8,-87"/>
</a>
</g>
</g>
<!-- ndOutputFmt&#45;&gt;ndCmdArgs -->
<g id="edge1" class="edge"><title>ndOutputFmt&#45;&gt;ndCmdArgs</title>
<path fill="none" stroke="black" d="M77.6131,-82.937C86.781,-72.9019 97.631,-61.0256 107.147,-50.6091"/>
<polygon fill="black" stroke="black" points="107.331,-50.4076 108.425,-43.2799 115.425,-41.5481 114.331,-48.6758 107.331,-50.4076"/>
</g>
<!-- ndSubCommands -->
<g id="node7" class="node"><title>ndSubCommands</title>
<g id="a_node7_5"><a xlink:href="https://github.com/maidsafe/safe_network/blob/master/src/subcommands/mod.rs#:~:text=enum%20SubCommands" xlink:title="&lt;TABLE&gt;">
<polygon fill="yellow" stroke="none" points="141,-87.5 141,-124.5 271,-124.5 271,-87.5 141,-87.5"/>
<polygon fill="none" stroke="black" points="141,-87.5 141,-124.5 271,-124.5 271,-87.5 141,-87.5"/>
<text text-anchor="start" x="152" y="-103.3" font-family="Arial" font-weight="bold" font-size="14.00">SubCommands</text>
<polygon fill="none" stroke="black" points="140,-87 140,-126 272,-126 272,-87 140,-87"/>
</a>
</g>
</g>
<!-- ndSubCommands&#45;&gt;ndCmdArgs -->
<g id="edge2" class="edge"><title>ndSubCommands&#45;&gt;ndCmdArgs</title>
<path fill="none" stroke="black" d="M185.108,-82.937C175.817,-72.9019 164.82,-61.0256 155.175,-50.6091"/>
<polygon fill="black" stroke="black" points="154.938,-50.3533 147.927,-48.6684 146.785,-41.5481 153.797,-43.2331 154.938,-50.3533"/>
</g>
<!-- ndCatCommands -->
<g id="node8" class="node"><title>ndCatCommands</title>
<text text-anchor="middle" x="1188" y="-102.8" font-family="Times,serif" font-size="14.00">ndCatCommands</text>
</g>
<!-- ndDogCommands -->
<g id="node9" class="node"><title>ndDogCommands</title>
<text text-anchor="middle" x="1320" y="-102.8" font-family="Times,serif" font-size="14.00">ndDogCommands</text>
</g>
<!-- ndXorurlSubCommands -->
<g id="node10" class="node"><title>ndXorurlSubCommands</title>
<g id="a_node10_6"><a xlink:href="https://github.com/maidsafe/safe_network/blob/master/src/subcommands/xorurl.rs#:~:text=enum%20XorurlSubCommands" xlink:title="&lt;TABLE&gt;">
<polygon fill="yellow" stroke="none" points="1406,-87.5 1406,-124.5 1579,-124.5 1579,-87.5 1406,-87.5"/>
<polygon fill="none" stroke="black" points="1406,-87.5 1406,-124.5 1579,-124.5 1579,-87.5 1406,-87.5"/>
<text text-anchor="start" x="1417" y="-103.3" font-family="Arial" font-weight="bold" font-size="14.00">XorurlSubCommands</text>
<polygon fill="none" stroke="black" points="1404.5,-87 1404.5,-126 1579.5,-126 1579.5,-87 1404.5,-87"/>
</a>
</g>
</g>
<!-- ndFileTreeNodeType -->
<g id="node11" class="node"><title>ndFileTreeNodeType</title>
<g id="a_node11_7"><a xlink:href="https://github.com/maidsafe/safe_network/blob/master/src/subcommands/files.rs#:~:text=enum%20FileTreeNodeType" xlink:title="&lt;TABLE&gt;">
<polygon fill="yellow" stroke="none" points="1615,-87.5 1615,-124.5 1764,-124.5 1764,-87.5 1615,-87.5"/>
<polygon fill="none" stroke="black" points="1615,-87.5 1615,-124.5 1764,-124.5 1764,-87.5 1615,-87.5"/>
<text text-anchor="start" x="1626" y="-103.3" font-family="Arial" font-weight="bold" font-size="14.00">FileTreeNodeType</text>
<polygon fill="none" stroke="black" points="1613.5,-87 1613.5,-126 1764.5,-126 1764.5,-87 1613.5,-87"/>
</a>
</g>
</g>
<!-- ndFileTreeNode -->
<g id="node12" class="node"><title>ndFileTreeNode</title>
<text text-anchor="middle" x="1689" y="-19.8" font-family="Times,serif" font-size="14.00">ndFileTreeNode</text>
</g>
<!-- ndFileTreeNodeType&#45;&gt;ndFileTreeNode -->
<g id="edge3" class="edge"><title>ndFileTreeNodeType&#45;&gt;ndFileTreeNode</title>
<path fill="none" stroke="black" stroke-dasharray="5,2" d="M1689,-82.937C1689,-73.9259 1689,-63.4301 1689,-53.8399"/>
<polygon fill="black" stroke="black" points="1689,-53.5481 1685,-47.5482 1689,-41.5481 1693,-47.5481 1689,-53.5481"/>
</g>
<!-- ndFilesSubCommands -->
<g id="node13" class="node"><title>ndFilesSubCommands</title>
<g id="a_node13_8"><a xlink:href="https://github.com/maidsafe/safe_network/blob/master/src/subcommands/files.rs#:~:text=enum%20FilesSubCommands" xlink:title="&lt;TABLE&gt;">
<polygon fill="yellow" stroke="none" points="1800,-87.5 1800,-124.5 1963,-124.5 1963,-87.5 1800,-87.5"/>
<polygon fill="none" stroke="black" points="1800,-87.5 1800,-124.5 1963,-124.5 1963,-87.5 1800,-87.5"/>
<text text-anchor="start" x="1811" y="-103.3" font-family="Arial" font-weight="bold" font-size="14.00">FilesSubCommands</text>
<polygon fill="none" stroke="black" points="1798.5,-87 1798.5,-126 1963.5,-126 1963.5,-87 1798.5,-87"/>
</a>
</g>
</g>
<!-- ndFilesGetStatus -->
<g id="node14" class="node"><title>ndFilesGetStatus</title>
<text text-anchor="middle" x="2044" y="-102.8" font-family="Times,serif" font-size="14.00">ndFilesGetStatus</text>
</g>
<!-- ndFileExistsAction -->
<g id="node15" class="node"><title>ndFileExistsAction</title>
<g id="a_node15_9"><a xlink:href="https://github.com/maidsafe/safe_network/blob/master/src/subcommands/files_get.rs#:~:text=enum%20FileExistsAction" xlink:title="&lt;TABLE&gt;">
<polygon fill="yellow" stroke="none" points="2126,-87.5 2126,-124.5 2260,-124.5 2260,-87.5 2126,-87.5"/>
<polygon fill="none" stroke="black" points="2126,-87.5 2126,-124.5 2260,-124.5 2260,-87.5 2126,-87.5"/>
<text text-anchor="start" x="2137" y="-103.3" font-family="Arial" font-weight="bold" font-size="14.00">FileExistsAction</text>
<polygon fill="none" stroke="black" points="2125,-87 2125,-126 2261,-126 2261,-87 2125,-87"/>
</a>
</g>
</g>
<!-- ndProgressIndicator -->
<g id="node16" class="node"><title>ndProgressIndicator</title>
<g id="a_node16_10"><a xlink:href="https://github.com/maidsafe/safe_network/blob/master/src/subcommands/files_get.rs#:~:text=enum%20ProgressIndicator" xlink:title="&lt;TABLE&gt;">
<polygon fill="yellow" stroke="none" points="2297,-87.5 2297,-124.5 2446,-124.5 2446,-87.5 2297,-87.5"/>
<polygon fill="none" stroke="black" points="2297,-87.5 2297,-124.5 2446,-124.5 2446,-87.5 2297,-87.5"/>
<text text-anchor="start" x="2308" y="-103.3" font-family="Arial" font-weight="bold" font-size="14.00">ProgressIndicator</text>
<polygon fill="none" stroke="black" points="2295.5,-87 2295.5,-126 2446.5,-126 2446.5,-87 2295.5,-87"/>
</a>
</g>
</g>
<!-- ndKeysSubCommands -->
<g id="node17" class="node"><title>ndKeysSubCommands</title>
<g id="a_node17_11"><a xlink:href="https://github.com/maidsafe/safe_network/blob/master/src/subcommands/keys.rs#:~:text=enum%20KeysSubCommands" xlink:title="&lt;TABLE&gt;">
<polygon fill="yellow" stroke="none" points="2482,-87.5 2482,-124.5 2647,-124.5 2647,-87.5 2482,-87.5"/>
<polygon fill="none" stroke="black" points="2482,-87.5 2482,-124.5 2647,-124.5 2647,-87.5 2482,-87.5"/>
<text text-anchor="start" x="2493" y="-103.3" font-family="Arial" font-weight="bold" font-size="14.00">KeysSubCommands</text>
<polygon fill="none" stroke="black" points="2480.5,-87 2480.5,-126 2647.5,-126 2647.5,-87 2480.5,-87"/>
</a>
</g>
</g>
<!-- ndConfigSubCommands -->
<g id="node18" class="node"><title>ndConfigSubCommands</title>
<g id="a_node18_12"><a xlink:href="https://github.com/maidsafe/safe_network/blob/master/src/subcommands/config.rs#:~:text=enum%20ConfigSubCommands" xlink:title="&lt;TABLE&gt;">
<polygon fill="yellow" stroke="none" points="2750,-4.5 2750,-41.5 2926,-41.5 2926,-4.5 2750,-4.5"/>
<polygon fill="none" stroke="black" points="2750,-4.5 2750,-41.5 2926,-41.5 2926,-4.5 2750,-4.5"/>
<text text-anchor="start" x="2761" y="-20.3" font-family="Arial" font-weight="bold" font-size="14.00">ConfigSubCommands</text>
<polygon fill="none" stroke="black" points="2749,-4 2749,-43 2927,-43 2927,-4 2749,-4"/>
</a>
</g>
</g>
<!-- ndSettingAddCmd -->
<g id="node19" class="node"><title>ndSettingAddCmd</title>
<g id="a_node19_13"><a xlink:href="https://github.com/maidsafe/safe_network/blob/master/src/subcommands/config.rs#:~:text=enum%20SettingAddCmd" xlink:title="&lt;TABLE&gt;">
<polygon fill="yellow" stroke="none" points="2683,-87.5 2683,-124.5 2814,-124.5 2814,-87.5 2683,-87.5"/>
<polygon fill="none" stroke="black" points="2683,-87.5 2683,-124.5 2814,-124.5 2814,-87.5 2683,-87.5"/>
<text text-anchor="start" x="2694" y="-103.3" font-family="Arial" font-weight="bold" font-size="14.00">SettingAddCmd</text>
<polygon fill="none" stroke="black" points="2681.5,-87 2681.5,-126 2814.5,-126 2814.5,-87 2681.5,-87"/>
</a>
</g>
</g>
<!-- ndSettingAddCmd&#45;&gt;ndConfigSubCommands -->
<g id="edge4" class="edge"><title>ndSettingAddCmd&#45;&gt;ndConfigSubCommands</title>
<path fill="none" stroke="black" d="M2773.07,-82.937C2782.55,-74.4071 2793.5,-64.547 2803.68,-55.3839"/>
<polygon fill="black" stroke="black" points="2803.83,-55.2506 2805.62,-48.2636 2812.75,-47.2229 2810.97,-54.2099 2803.83,-55.2506"/>
</g>
<!-- ndSettingRemoveCmd -->
<g id="node20" class="node"><title>ndSettingRemoveCmd</title>
<g id="a_node20_14"><a xlink:href="https://github.com/maidsafe/safe_network/blob/master/src/subcommands/config.rs#:~:text=enum%20SettingRemoveCmd" xlink:title="&lt;TABLE&gt;">
<polygon fill="yellow" stroke="none" points="2849,-87.5 2849,-124.5 3009,-124.5 3009,-87.5 2849,-87.5"/>
<polygon fill="none" stroke="black" points="2849,-87.5 2849,-124.5 3009,-124.5 3009,-87.5 2849,-87.5"/>
<text text-anchor="start" x="2860" y="-103.3" font-family="Arial" font-weight="bold" font-size="14.00">SettingRemoveCmd</text>
<polygon fill="none" stroke="black" points="2848,-87 2848,-126 3010,-126 3010,-87 2848,-87"/>
</a>
</g>
</g>
<!-- ndSettingRemoveCmd&#45;&gt;ndConfigSubCommands -->
<g id="edge5" class="edge"><title>ndSettingRemoveCmd&#45;&gt;ndConfigSubCommands</title>
<path fill="none" stroke="black" d="M2903.65,-82.937C2894.07,-74.4071 2882.99,-64.547 2872.7,-55.3839"/>
<polygon fill="black" stroke="black" points="2872.49,-55.2015 2865.35,-54.2 2863.53,-47.2229 2870.67,-48.2244 2872.49,-55.2015"/>
</g>
<!-- ndSetupSubCommands -->
<g id="node21" class="node"><title>ndSetupSubCommands</title>
<g id="a_node21_15"><a xlink:href="https://github.com/maidsafe/safe_network/blob/master/src/subcommands/setup.rs#:~:text=enum%20SetupSubCommands" xlink:title="&lt;TABLE&gt;">
<polygon fill="yellow" stroke="none" points="3045,-87.5 3045,-124.5 3215,-124.5 3215,-87.5 3045,-87.5"/>
<polygon fill="none" stroke="black" points="3045,-87.5 3045,-124.5 3215,-124.5 3215,-87.5 3045,-87.5"/>
<text text-anchor="start" x="3056" y="-103.3" font-family="Arial" font-weight="bold" font-size="14.00">SetupSubCommands</text>
<polygon fill="none" stroke="black" points="3044,-87 3044,-126 3216,-126 3216,-87 3044,-87"/>
</a>
</g>
</g>
<!-- ndEnvironment -->
<g id="node22" class="node"><title>ndEnvironment</title>
<text text-anchor="middle" x="3293" y="-102.8" font-family="Times,serif" font-size="14.00">ndEnvironment</text>
</g>
<!-- ndSafeSeed -->
<g id="node23" class="node"><title>ndSafeSeed</title>
<g id="a_node23_16"><a xlink:href="https://github.com/maidsafe/safe_network/blob/master/src/operations/auth_daemon.rs#:~:text=struct%20SafeSeed" xlink:title="&lt;TABLE&gt;">
<polygon fill="lightblue" stroke="none" points="3371,-87.5 3371,-124.5 3871,-124.5 3871,-87.5 3371,-87.5"/>
<polygon fill="none" stroke="black" points="3371,-87.5 3371,-124.5 3871,-124.5 3871,-87.5 3371,-87.5"/>
<text text-anchor="start" x="3382" y="-103.3" font-family="Arial" font-weight="bold" font-size="14.00">struct SafeSeed { &#160;&#160;&#160;pub passphrase: String, &#160;&#160;&#160;pub password: String,}</text>
<polygon fill="none" stroke="black" points="3370,-87 3370,-126 3872,-126 3872,-87 3370,-87"/>
</a>
</g>
</g>
<!-- ndNetworkLauncher -->
<g id="node24" class="node"><title>ndNetworkLauncher</title>
<g id="a_node24_17"><a xlink:href="https://github.com/maidsafe/safe_network/blob/master/src/operations/config.rs#:~:text=trait%20NetworkLauncher" xlink:title="&lt;TABLE&gt;">
<polygon fill="lightgreen" stroke="none" points="3907,-87.5 3907,-124.5 4053,-124.5 4053,-87.5 3907,-87.5"/>
<polygon fill="none" stroke="black" points="3907,-87.5 3907,-124.5 4053,-124.5 4053,-87.5 3907,-87.5"/>
<text text-anchor="start" x="3918" y="-103.3" font-family="Arial" font-weight="bold" font-size="14.00">NetworkLauncher</text>
<polygon fill="none" stroke="black" points="3906,-87 3906,-126 4054,-126 4054,-87 3906,-87"/>
</a>
</g>
</g>
<!-- ndSnLaunchToolNetworkLauncher -->
<g id="node25" class="node"><title>ndSnLaunchToolNetworkLauncher</title>
<g id="a_node25_18"><a xlink:href="https://github.com/maidsafe/safe_network/blob/master/src/operations/config.rs#:~:text=struct%20SnLaunchToolNetworkLauncher" xlink:title="&lt;TABLE&gt;">
<polygon fill="lightblue" stroke="none" points="3811,-4.5 3811,-41.5 4149,-41.5 4149,-4.5 3811,-4.5"/>
<polygon fill="none" stroke="black" points="3811,-4.5 3811,-41.5 4149,-41.5 4149,-4.5 3811,-4.5"/>
<text text-anchor="start" x="3822" y="-20.3" font-family="Arial" font-weight="bold" font-size="14.00">pub struct SnLaunchToolNetworkLauncher {}</text>
<polygon fill="none" stroke="black" points="3810,-4 3810,-43 4150,-43 4150,-4 3810,-4"/>
</a>
</g>
</g>
<!-- ndNetworkLauncher&#45;&gt;ndSnLaunchToolNetworkLauncher -->
<g id="edge6" class="edge"><title>ndNetworkLauncher&#45;&gt;ndSnLaunchToolNetworkLauncher</title>
<path fill="none" stroke="black" stroke-dasharray="5,2" d="M3980,-82.937C3980,-75.0164 3980,-65.9488 3980,-57.3574"/>
<polygon fill="none" stroke="black" points="3983.5,-57.2229 3980,-47.2229 3976.5,-57.223 3983.5,-57.2229"/>
</g>
<!-- ndNetworkInfo -->
<g id="node26" class="node"><title>ndNetworkInfo</title>
<g id="a_node26_19"><a xlink:href="https://github.com/maidsafe/safe_network/blob/master/src/operations/config.rs#:~:text=enum%20NetworkInfo" xlink:title="&lt;TABLE&gt;">
<polygon fill="yellow" stroke="none" points="4511,-87.5 4511,-124.5 4617,-124.5 4617,-87.5 4511,-87.5"/>
<polygon fill="none" stroke="black" points="4511,-87.5 4511,-124.5 4617,-124.5 4617,-87.5 4511,-87.5"/>
<text text-anchor="start" x="4522" y="-103.3" font-family="Arial" font-weight="bold" font-size="14.00">NetworkInfo</text>
<polygon fill="none" stroke="black" points="4510,-87 4510,-126 4618,-126 4618,-87 4510,-87"/>
</a>
</g>
</g>
<!-- ndConfig -->
<g id="node28" class="node"><title>ndConfig</title>
<g id="a_node28_20"><a xlink:href="https://github.com/maidsafe/safe_network/blob/master/src/operations/config.rs#:~:text=struct%20Config" xlink:title="&lt;TABLE&gt;">
<polygon fill="lightblue" stroke="none" points="4185,-4.5 4185,-41.5 4943,-41.5 4943,-4.5 4185,-4.5"/>
<polygon fill="none" stroke="black" points="4185,-4.5 4185,-41.5 4943,-41.5 4943,-4.5 4185,-4.5"/>
<text text-anchor="start" x="4196" y="-20.3" font-family="Arial" font-weight="bold" font-size="14.00">pub struct Config { &#160;&#160;&#160;settings: Settings, &#160;&#160;&#160;pub cli_config_path: PathBuf, &#160;&#160;&#160;pub node_config_path: PathBuf,}</text>
<polygon fill="none" stroke="black" points="4184,-4 4184,-43 4944,-43 4944,-4 4184,-4"/>
</a>
</g>
</g>
<!-- ndNetworkInfo&#45;&gt;ndConfig -->
<g id="edge7" class="edge"><title>ndNetworkInfo&#45;&gt;ndConfig</title>
<path fill="none" stroke="black" d="M4557.88,-82.937C4557.29,-75.0164 4557.11,-65.9488 4557.36,-57.3574"/>
<polygon fill="black" stroke="black" points="4557.86,-47.2229 4561.86,-57.4353 4557.61,-52.2167 4557.37,-57.2105 4557.37,-57.2105 4557.37,-57.2105 4557.61,-52.2167 4552.87,-56.9857 4557.86,-47.2229 4557.86,-47.2229"/>
</g>
<!-- ndSettings -->
<g id="node27" class="node"><title>ndSettings</title>
<text text-anchor="middle" x="4681" y="-102.8" font-family="Times,serif" font-size="14.00">ndSettings</text>
</g>
<!-- ndSettings&#45;&gt;ndConfig -->
<g id="edge8" class="edge"><title>ndSettings&#45;&gt;ndConfig</title>
<path fill="none" stroke="black" d="M4656.19,-88.322C4641.86,-78.4 4623.43,-65.6451 4606.83,-54.1493"/>
<polygon fill="black" stroke="black" points="4606.64,-54.0215 4599.43,-53.895 4596.78,-47.1909 4603.99,-47.3174 4606.64,-54.0215"/>
</g>
<!-- ndConfig&#45;&gt;ndNetworkInfo -->
<g id="edge9" class="edge"><title>ndConfig&#45;&gt;ndNetworkInfo</title>
<path fill="none" stroke="black" stroke-dasharray="5,2" d="M4570.14,-47.2229C4570.72,-55.1589 4570.89,-64.2309 4570.64,-72.8159"/>
<polygon fill="black" stroke="black" points="4570.12,-82.937 4566.14,-72.7217 4570.38,-77.9434 4570.63,-72.9498 4570.63,-72.9498 4570.63,-72.9498 4570.38,-77.9434 4575.12,-73.178 4570.12,-82.937 4570.12,-82.937"/>
</g>
</g>
</svg>
