<?xml version="1.0" encoding="UTF-8" standalone="no"?>
<!DOCTYPE svg PUBLIC "-//W3C//DTD SVG 1.1//EN"
 "http://www.w3.org/Graphics/SVG/1.1/DTD/svg11.dtd">
<!-- Generated by graphviz version 2.38.0 (20140413.2041)
 -->
<!-- Title: ml Pages: 1 -->
<svg width="1711pt" height="387pt"
 viewBox="0.00 0.00 1711.20 387.00" xmlns="http://www.w3.org/2000/svg" xmlns:xlink="http://www.w3.org/1999/xlink">
<g id="graph0" class="graph" transform="scale(1 1) rotate(0) translate(4 383)">
<title>ml</title>
<polygon fill="white" stroke="none" points="-4,4 -4,-383 1707.2,-383 1707.2,4 -4,4"/>
<!-- ndHash -->
<g id="node1" class="node"><title>ndHash</title>
<g id="a_node1_0"><a xlink:href="https://github.com/maidsafe/sn_dbc/blob/master/src/lib.rs#:~:text=struct%20Hash" xlink:title="&lt;TABLE&gt;">
<polygon fill="lightblue" stroke="none" points="690.154,-336.5 690.154,-373.5 748.154,-373.5 748.154,-336.5 690.154,-336.5"/>
<polygon fill="none" stroke="black" points="690.154,-336.5 690.154,-373.5 748.154,-373.5 748.154,-336.5 690.154,-336.5"/>
<text text-anchor="start" x="701.154" y="-352.3" font-family="Arial" font-weight="bold" font-size="14.00">Hash</text>
<polygon fill="none" stroke="black" points="689.154,-336 689.154,-375 749.154,-375 749.154,-336 689.154,-336"/>
</a>
</g>
</g>
<!-- ndSimpleKeyManager -->
<g id="node6" class="node"><title>ndSimpleKeyManager</title>
<g id="a_node6_1"><a xlink:href="https://github.com/maidsafe/sn_dbc/blob/master/src/key_manager.rs#:~:text=struct%20SimpleKeyManager" xlink:title="&lt;TABLE&gt;">
<polygon fill="lightblue" stroke="none" points="288.154,-170.5 288.154,-207.5 446.154,-207.5 446.154,-170.5 288.154,-170.5"/>
<polygon fill="none" stroke="black" points="288.154,-170.5 288.154,-207.5 446.154,-207.5 446.154,-170.5 288.154,-170.5"/>
<text text-anchor="start" x="299.154" y="-186.3" font-family="Arial" font-weight="bold" font-size="14.00">SimpleKeyManager</text>
<polygon fill="none" stroke="black" points="287.154,-170 287.154,-209 447.154,-209 447.154,-170 287.154,-170"/>
</a>
</g>
</g>
<!-- ndHash&#45;&gt;ndSimpleKeyManager -->
<g id="edge1" class="edge"><title>ndHash&#45;&gt;ndSimpleKeyManager</title>
<path fill="none" stroke="black" stroke-dasharray="5,2" d="M681.071,-353.125C602.679,-349.479 427.176,-336.847 386.154,-296 367.398,-277.325 363.618,-246.839 363.962,-223.429"/>
<polygon fill="black" stroke="black" points="364.372,-213.239 368.466,-223.412 364.171,-218.235 363.97,-223.231 363.97,-223.231 363.97,-223.231 364.171,-218.235 359.474,-223.05 364.372,-213.239 364.372,-213.239"/>
</g>
<!-- ndKeys -->
<g id="node7" class="node"><title>ndKeys</title>
<g id="a_node7_2"><a xlink:href="https://github.com/maidsafe/sn_dbc/blob/master/src/key_manager.rs#:~:text=struct%20Keys" xlink:title="&lt;TABLE&gt;">
<polygon fill="lightblue" stroke="none" points="272.154,-253.5 272.154,-290.5 330.154,-290.5 330.154,-253.5 272.154,-253.5"/>
<polygon fill="none" stroke="black" points="272.154,-253.5 272.154,-290.5 330.154,-290.5 330.154,-253.5 272.154,-253.5"/>
<text text-anchor="start" x="283.154" y="-269.3" font-family="Arial" font-weight="bold" font-size="14.00">Keys</text>
<polygon fill="none" stroke="black" points="271.154,-253 271.154,-292 331.154,-292 331.154,-253 271.154,-253"/>
</a>
</g>
</g>
<!-- ndHash&#45;&gt;ndKeys -->
<g id="edge2" class="edge"><title>ndHash&#45;&gt;ndKeys</title>
<path fill="none" stroke="black" stroke-dasharray="5,2" d="M681.061,-351.565C613.765,-345.688 469.919,-330.011 353.154,-296 351.737,-295.587 350.308,-295.146 348.873,-294.68"/>
<polygon fill="black" stroke="black" points="339.377,-291.309 350.306,-290.414 344.089,-292.982 348.801,-294.655 348.801,-294.655 348.801,-294.655 344.089,-292.982 347.295,-298.895 339.377,-291.309 339.377,-291.309"/>
</g>
<!-- ndDbcContent -->
<g id="node11" class="node"><title>ndDbcContent</title>
<g id="a_node11_3"><a xlink:href="https://github.com/maidsafe/sn_dbc/blob/master/src/dbc_content.rs#:~:text=struct%20DbcContent" xlink:title="&lt;TABLE&gt;">
<polygon fill="lightblue" stroke="none" points="1324.15,-170.5 1324.15,-207.5 1429.15,-207.5 1429.15,-170.5 1324.15,-170.5"/>
<polygon fill="none" stroke="black" points="1324.15,-170.5 1324.15,-207.5 1429.15,-207.5 1429.15,-170.5 1324.15,-170.5"/>
<text text-anchor="start" x="1335.15" y="-186.3" font-family="Arial" font-weight="bold" font-size="14.00">DbcContent</text>
<polygon fill="none" stroke="black" points="1322.65,-170 1322.65,-209 1429.65,-209 1429.65,-170 1322.65,-170"/>
</a>
</g>
</g>
<!-- ndHash&#45;&gt;ndDbcContent -->
<g id="edge3" class="edge"><title>ndHash&#45;&gt;ndDbcContent</title>
<path fill="none" stroke="black" d="M757.259,-352.663C860.64,-347.282 1144.45,-329.767 1231.15,-296 1275.25,-278.828 1318.1,-244.856 1345.64,-220.087"/>
<polygon fill="black" stroke="black" points="1353.33,-213.046 1348.99,-223.117 1349.64,-216.422 1345.95,-219.797 1345.95,-219.797 1345.95,-219.797 1349.64,-216.422 1342.91,-216.478 1353.33,-213.046 1353.33,-213.046"/>
</g>
<!-- ndPublicKeyBlstMappable -->
<g id="node13" class="node"><title>ndPublicKeyBlstMappable</title>
<g id="a_node13_4"><a xlink:href="https://github.com/maidsafe/sn_dbc/blob/master/src/blst.rs#:~:text=struct%20PublicKeyBlstMappable" xlink:title="&lt;TABLE&gt;">
<polygon fill="lightblue" stroke="none" points="26.1537,-170.5 26.1537,-207.5 214.154,-207.5 214.154,-170.5 26.1537,-170.5"/>
<polygon fill="none" stroke="black" points="26.1537,-170.5 26.1537,-207.5 214.154,-207.5 214.154,-170.5 26.1537,-170.5"/>
<text text-anchor="start" x="37.1537" y="-186.3" font-family="Arial" font-weight="bold" font-size="14.00">PublicKeyBlstMappable</text>
<polygon fill="none" stroke="black" points="25.1537,-170 25.1537,-209 215.154,-209 215.154,-170 25.1537,-170"/>
</a>
</g>
</g>
<!-- ndHash&#45;&gt;ndPublicKeyBlstMappable -->
<g id="edge4" class="edge"><title>ndHash&#45;&gt;ndPublicKeyBlstMappable</title>
<path fill="none" stroke="black" stroke-dasharray="5,2" d="M680.89,-353.771C552.798,-350.939 144.898,-338.617 106.154,-296 88.4271,-276.501 94.798,-245.983 103.918,-222.775"/>
<polygon fill="none" stroke="black" points="107.242,-223.903 107.932,-213.331 100.799,-221.165 107.242,-223.903"/>
</g>
<!-- ndSpentProofContent -->
<g id="node21" class="node"><title>ndSpentProofContent</title>
<g id="a_node21_5"><a xlink:href="https://github.com/maidsafe/sn_dbc/blob/master/src/spent_proof.rs#:~:text=struct%20SpentProofContent" xlink:title="&lt;TABLE&gt;">
<polygon fill="lightblue" stroke="none" points="756.154,-253.5 756.154,-290.5 912.154,-290.5 912.154,-253.5 756.154,-253.5"/>
<polygon fill="none" stroke="black" points="756.154,-253.5 756.154,-290.5 912.154,-290.5 912.154,-253.5 756.154,-253.5"/>
<text text-anchor="start" x="767.154" y="-269.3" font-family="Arial" font-weight="bold" font-size="14.00">SpentProofContent</text>
<polygon fill="none" stroke="black" points="755.154,-253 755.154,-292 913.154,-292 913.154,-253 755.154,-253"/>
</a>
</g>
</g>
<!-- ndHash&#45;&gt;ndSpentProofContent -->
<g id="edge5" class="edge"><title>ndHash&#45;&gt;ndSpentProofContent</title>
<path fill="none" stroke="black" d="M751.188,-331.937C763.792,-323.059 778.443,-312.74 791.894,-303.266"/>
<polygon fill="black" stroke="black" points="792.082,-303.133 794.684,-296.408 801.893,-296.223 799.291,-302.948 792.082,-303.133"/>
</g>
<!-- ndSpentProofShare -->
<g id="node22" class="node"><title>ndSpentProofShare</title>
<g id="a_node22_6"><a xlink:href="https://github.com/maidsafe/sn_dbc/blob/master/src/spent_proof.rs#:~:text=struct%20SpentProofShare" xlink:title="&lt;TABLE&gt;">
<polygon fill="lightblue" stroke="none" points="600.154,-170.5 600.154,-207.5 743.154,-207.5 743.154,-170.5 600.154,-170.5"/>
<polygon fill="none" stroke="black" points="600.154,-170.5 600.154,-207.5 743.154,-207.5 743.154,-170.5 600.154,-170.5"/>
<text text-anchor="start" x="611.154" y="-186.3" font-family="Arial" font-weight="bold" font-size="14.00">SpentProofShare</text>
<polygon fill="none" stroke="black" points="598.654,-170 598.654,-209 743.654,-209 743.654,-170 598.654,-170"/>
</a>
</g>
</g>
<!-- ndHash&#45;&gt;ndSpentProofShare -->
<g id="edge6" class="edge"><title>ndHash&#45;&gt;ndSpentProofShare</title>
<path fill="none" stroke="black" d="M716.941,-331.817C714.392,-310.137 709.323,-276.743 700.154,-249 697.207,-240.085 693.132,-230.815 688.966,-222.353"/>
<polygon fill="black" stroke="black" points="684.28,-213.204 692.844,-220.053 686.559,-217.654 688.839,-222.105 688.839,-222.105 688.839,-222.105 686.559,-217.654 684.834,-224.156 684.28,-213.204 684.28,-213.204"/>
</g>
<!-- ndSpentProof -->
<g id="node23" class="node"><title>ndSpentProof</title>
<g id="a_node23_7"><a xlink:href="https://github.com/maidsafe/sn_dbc/blob/master/src/spent_proof.rs#:~:text=struct%20SpentProof" xlink:title="&lt;TABLE&gt;">
<polygon fill="lightblue" stroke="none" points="779.154,-170.5 779.154,-207.5 880.154,-207.5 880.154,-170.5 779.154,-170.5"/>
<polygon fill="none" stroke="black" points="779.154,-170.5 779.154,-207.5 880.154,-207.5 880.154,-170.5 779.154,-170.5"/>
<text text-anchor="start" x="790.154" y="-186.3" font-family="Arial" font-weight="bold" font-size="14.00">SpentProof</text>
<polygon fill="none" stroke="black" points="777.654,-170 777.654,-209 880.654,-209 880.654,-170 777.654,-170"/>
</a>
</g>
</g>
<!-- ndHash&#45;&gt;ndSpentProof -->
<g id="edge7" class="edge"><title>ndHash&#45;&gt;ndSpentProof</title>
<path fill="none" stroke="black" stroke-dasharray="5,2" d="M757.511,-349.43C812.474,-341.289 909.329,-323.384 930.154,-296 942.798,-279.373 940.586,-267.098 930.154,-249 922.475,-235.679 910.475,-225.115 897.39,-216.844"/>
<polygon fill="black" stroke="black" points="888.669,-211.734 899.572,-212.907 892.983,-214.262 897.297,-216.79 897.297,-216.79 897.297,-216.79 892.983,-214.262 895.022,-220.673 888.669,-211.734 888.669,-211.734"/>
</g>
<!-- ndSpentBookNodeMock -->
<g id="node25" class="node"><title>ndSpentBookNodeMock</title>
<g id="a_node25_8"><a xlink:href="https://github.com/maidsafe/sn_dbc/blob/master/src/spentbook.rs#:~:text=struct%20SpentBookNodeMock" xlink:title="&lt;TABLE&gt;">
<polygon fill="lightblue" stroke="none" points="164.154,-87.5 164.154,-124.5 338.154,-124.5 338.154,-87.5 164.154,-87.5"/>
<polygon fill="none" stroke="black" points="164.154,-87.5 164.154,-124.5 338.154,-124.5 338.154,-87.5 164.154,-87.5"/>
<text text-anchor="start" x="175.154" y="-103.3" font-family="Arial" font-weight="bold" font-size="14.00">SpentBookNodeMock</text>
<polygon fill="none" stroke="black" points="163.154,-87 163.154,-126 339.154,-126 339.154,-87 163.154,-87"/>
</a>
</g>
</g>
<!-- ndHash&#45;&gt;ndSpentBookNodeMock -->
<g id="edge8" class="edge"><title>ndHash&#45;&gt;ndSpentBookNodeMock</title>
<path fill="none" stroke="black" d="M680.886,-354.3C561.362,-353.154 196.706,-345.581 91.1537,-296 43.9348,-273.82 28.1178,-261.198 8.15366,-213 0.159826,-193.701 -4.77339,-182.408 8.15366,-166 25.3895,-144.122 86.4407,-129.476 143.032,-120.31"/>
<polygon fill="black" stroke="black" points="143.166,-120.289 148.477,-115.411 155.023,-118.436 149.712,-123.315 143.166,-120.289"/>
</g>
<!-- ndTransactionValidator -->
<g id="node26" class="node"><title>ndTransactionValidator</title>
<g id="a_node26_9"><a xlink:href="https://github.com/maidsafe/sn_dbc/blob/master/src/validation.rs#:~:text=struct%20TransactionValidator" xlink:title="&lt;TABLE&gt;">
<polygon fill="lightblue" stroke="none" points="916.154,-170.5 916.154,-207.5 1083.15,-207.5 1083.15,-170.5 916.154,-170.5"/>
<polygon fill="none" stroke="black" points="916.154,-170.5 916.154,-207.5 1083.15,-207.5 1083.15,-170.5 916.154,-170.5"/>
<text text-anchor="start" x="927.154" y="-186.3" font-family="Arial" font-weight="bold" font-size="14.00">TransactionValidator</text>
<polygon fill="none" stroke="black" points="914.654,-170 914.654,-209 1083.65,-209 1083.65,-170 914.654,-170"/>
</a>
</g>
</g>
<!-- ndHash&#45;&gt;ndTransactionValidator -->
<g id="edge9" class="edge"><title>ndHash&#45;&gt;ndTransactionValidator</title>
<path fill="none" stroke="black" stroke-dasharray="5,2" d="M757.365,-354.38C806.942,-352.273 893.641,-341.69 949.154,-296 971.511,-277.599 984.486,-246.881 991.588,-223.323"/>
<polygon fill="black" stroke="black" points="994.367,-213.398 996.004,-224.241 993.019,-218.213 991.671,-223.028 991.671,-223.028 991.671,-223.028 993.019,-218.213 987.337,-221.815 994.367,-213.398 994.367,-213.398"/>
</g>
<!-- ndError -->
<g id="node2" class="node"><title>ndError</title>
<g id="a_node2_10"><a xlink:href="https://github.com/maidsafe/sn_dbc/blob/master/src/error.rs#:~:text=enum%20Error" xlink:title="&lt;TABLE&gt;">
<polygon fill="yellow" stroke="none" points="1155.15,-253.5 1155.15,-290.5 1214.15,-290.5 1214.15,-253.5 1155.15,-253.5"/>
<polygon fill="none" stroke="black" points="1155.15,-253.5 1155.15,-290.5 1214.15,-290.5 1214.15,-253.5 1155.15,-253.5"/>
<text text-anchor="start" x="1166.15" y="-269.3" font-family="Arial" font-weight="bold" font-size="14.00">Error</text>
<polygon fill="none" stroke="black" points="1153.65,-253 1153.65,-292 1214.65,-292 1214.65,-253 1153.65,-253"/>
</a>
</g>
</g>
<!-- ndDbc -->
<g id="node17" class="node"><title>ndDbc</title>
<g id="a_node17_11"><a xlink:href="https://github.com/maidsafe/sn_dbc/blob/master/src/dbc.rs#:~:text=struct%20Dbc" xlink:title="&lt;TABLE&gt;">
<polygon fill="lightblue" stroke="none" points="1261.15,-87.5 1261.15,-124.5 1311.15,-124.5 1311.15,-87.5 1261.15,-87.5"/>
<polygon fill="none" stroke="black" points="1261.15,-87.5 1261.15,-124.5 1311.15,-124.5 1311.15,-87.5 1261.15,-87.5"/>
<text text-anchor="start" x="1272.15" y="-103.3" font-family="Arial" font-weight="bold" font-size="14.00">Dbc</text>
<polygon fill="none" stroke="black" points="1260.15,-87 1260.15,-126 1312.15,-126 1312.15,-87 1260.15,-87"/>
</a>
</g>
</g>
<!-- ndError&#45;&gt;ndDbc -->
<g id="edge10" class="edge"><title>ndError&#45;&gt;ndDbc</title>
<path fill="none" stroke="black" d="M1222.89,-252.856C1239.02,-243.165 1256.45,-229.798 1267.15,-213 1280.91,-191.422 1285.37,-162.588 1286.55,-140.518"/>
<polygon fill="black" stroke="black" points="1286.89,-130.288 1291.06,-140.433 1286.73,-135.285 1286.56,-140.282 1286.56,-140.282 1286.56,-140.282 1286.73,-135.285 1282.06,-140.131 1286.89,-130.288 1286.89,-130.288"/>
</g>
<!-- ndAmountSecrets -->
<g id="node24" class="node"><title>ndAmountSecrets</title>
<g id="a_node24_12"><a xlink:href="https://github.com/maidsafe/sn_dbc/blob/master/src/amount_secrets.rs#:~:text=struct%20AmountSecrets" xlink:title="&lt;TABLE&gt;">
<polygon fill="lightblue" stroke="none" points="1119.15,-170.5 1119.15,-207.5 1249.15,-207.5 1249.15,-170.5 1119.15,-170.5"/>
<polygon fill="none" stroke="black" points="1119.15,-170.5 1119.15,-207.5 1249.15,-207.5 1249.15,-170.5 1119.15,-170.5"/>
<text text-anchor="start" x="1130.15" y="-186.3" font-family="Arial" font-weight="bold" font-size="14.00">AmountSecrets</text>
<polygon fill="none" stroke="black" points="1118.15,-170 1118.15,-209 1250.15,-209 1250.15,-170 1118.15,-170"/>
</a>
</g>
</g>
<!-- ndError&#45;&gt;ndAmountSecrets -->
<g id="edge11" class="edge"><title>ndError&#45;&gt;ndAmountSecrets</title>
<path fill="none" stroke="black" d="M1184.15,-248.937C1184.15,-241.016 1184.15,-231.949 1184.15,-223.357"/>
<polygon fill="black" stroke="black" points="1184.15,-213.223 1188.65,-223.223 1184.15,-218.223 1184.15,-223.223 1184.15,-223.223 1184.15,-223.223 1184.15,-218.223 1179.65,-223.223 1184.15,-213.223 1184.15,-213.223"/>
</g>
<!-- ndError&#45;&gt;ndTransactionValidator -->
<g id="edge12" class="edge"><title>ndError&#45;&gt;ndTransactionValidator</title>
<path fill="none" stroke="black" d="M1145.37,-254.52C1120.72,-243.725 1088.27,-229.519 1060.21,-217.232"/>
<polygon fill="black" stroke="black" points="1050.88,-213.146 1061.84,-213.035 1055.46,-215.151 1060.04,-217.157 1060.04,-217.157 1060.04,-217.157 1055.46,-215.151 1058.23,-221.279 1050.88,-213.146 1050.88,-213.146"/>
</g>
<!-- ndNodeSignature -->
<g id="node3" class="node"><title>ndNodeSignature</title>
<g id="a_node3_13"><a xlink:href="https://github.com/maidsafe/sn_dbc/blob/master/src/key_manager.rs#:~:text=struct%20NodeSignature" xlink:title="&lt;TABLE&gt;">
<polygon fill="lightblue" stroke="none" points="556.154,-253.5 556.154,-290.5 682.154,-290.5 682.154,-253.5 556.154,-253.5"/>
<polygon fill="none" stroke="black" points="556.154,-253.5 556.154,-290.5 682.154,-290.5 682.154,-253.5 556.154,-253.5"/>
<text text-anchor="start" x="567.154" y="-269.3" font-family="Arial" font-weight="bold" font-size="14.00">NodeSignature</text>
<polygon fill="none" stroke="black" points="555.154,-253 555.154,-292 683.154,-292 683.154,-253 555.154,-253"/>
</a>
</g>
</g>
<!-- ndNodeSignature&#45;&gt;ndSimpleKeyManager -->
<g id="edge13" class="edge"><title>ndNodeSignature&#45;&gt;ndSimpleKeyManager</title>
<path fill="none" stroke="black" d="M548.958,-248.937C517.278,-238.754 479.701,-226.676 446.955,-216.151"/>
<polygon fill="black" stroke="black" points="437.41,-213.082 448.307,-211.858 442.17,-214.612 446.93,-216.143 446.93,-216.143 446.93,-216.143 442.17,-214.612 445.553,-220.427 437.41,-213.082 437.41,-213.082"/>
</g>
<!-- ndNodeSignature&#45;&gt;ndSpentProofShare -->
<g id="edge14" class="edge"><title>ndNodeSignature&#45;&gt;ndSpentProofShare</title>
<path fill="none" stroke="black" d="M633.639,-248.937C638.723,-241.016 644.545,-231.949 650.06,-223.357"/>
<polygon fill="black" stroke="black" points="650.083,-223.321 649.959,-216.111 656.566,-213.223 656.691,-220.433 650.083,-223.321"/>
</g>
<!-- ndKeyManager -->
<g id="node4" class="node"><title>ndKeyManager</title>
<g id="a_node4_14"><a xlink:href="https://github.com/maidsafe/sn_dbc/blob/master/src/key_manager.rs#:~:text=trait%20KeyManager" xlink:title="&lt;TABLE&gt;">
<polygon fill="lightgreen" stroke="none" points="125.154,-253.5 125.154,-290.5 236.154,-290.5 236.154,-253.5 125.154,-253.5"/>
<polygon fill="none" stroke="black" points="125.154,-253.5 125.154,-290.5 236.154,-290.5 236.154,-253.5 125.154,-253.5"/>
<text text-anchor="start" x="136.154" y="-269.3" font-family="Arial" font-weight="bold" font-size="14.00">KeyManager</text>
<polygon fill="none" stroke="black" points="123.654,-253 123.654,-292 236.654,-292 236.654,-253 123.654,-253"/>
</a>
</g>
</g>
<!-- ndKeyManager&#45;&gt;ndSimpleKeyManager -->
<g id="edge15" class="edge"><title>ndKeyManager&#45;&gt;ndSimpleKeyManager</title>
<path fill="none" stroke="black" stroke-dasharray="5,2" d="M232.244,-248.937C255.045,-239.06 281.965,-227.4 305.736,-217.103"/>
<polygon fill="none" stroke="black" points="307.234,-220.269 315.019,-213.082 304.452,-213.845 307.234,-220.269"/>
</g>
<!-- ndKeyManager&#45;&gt;ndSpentBookNodeMock -->
<g id="edge16" class="edge"><title>ndKeyManager&#45;&gt;ndSpentBookNodeMock</title>
<path fill="none" stroke="black" stroke-dasharray="5,2" d="M205.496,-248.962C215.291,-238.904 225.679,-226.321 232.154,-213 243.2,-190.273 247.874,-161.975 249.827,-140.41"/>
<polygon fill="black" stroke="black" points="250.583,-130.418 254.316,-140.729 250.206,-135.404 249.828,-140.389 249.828,-140.389 249.828,-140.389 250.206,-135.404 245.341,-140.05 250.583,-130.418 250.583,-130.418"/>
</g>
<!-- ndSimpleSigner -->
<g id="node5" class="node"><title>ndSimpleSigner</title>
<g id="a_node5_15"><a xlink:href="https://github.com/maidsafe/sn_dbc/blob/master/src/key_manager.rs#:~:text=struct%20SimpleSigner" xlink:title="&lt;TABLE&gt;">
<polygon fill="lightblue" stroke="none" points="404.154,-253.5 404.154,-290.5 520.154,-290.5 520.154,-253.5 404.154,-253.5"/>
<polygon fill="none" stroke="black" points="404.154,-253.5 404.154,-290.5 520.154,-290.5 520.154,-253.5 404.154,-253.5"/>
<text text-anchor="start" x="415.154" y="-269.3" font-family="Arial" font-weight="bold" font-size="14.00">SimpleSigner</text>
<polygon fill="none" stroke="black" points="403.154,-253 403.154,-292 521.154,-292 521.154,-253 403.154,-253"/>
</a>
</g>
</g>
<!-- ndSimpleSigner&#45;&gt;ndSimpleKeyManager -->
<g id="edge17" class="edge"><title>ndSimpleSigner&#45;&gt;ndSimpleKeyManager</title>
<path fill="none" stroke="black" stroke-dasharray="5,2" d="M435.691,-248.937C425.585,-240.32 413.886,-230.346 403.047,-221.104"/>
<polygon fill="black" stroke="black" points="402.935,-221.009 395.774,-220.16 393.804,-213.223 400.965,-214.072 402.935,-221.009"/>
</g>
<!-- ndSimpleKeyManager&#45;&gt;ndSpentBookNodeMock -->
<g id="edge18" class="edge"><title>ndSimpleKeyManager&#45;&gt;ndSpentBookNodeMock</title>
<path fill="none" stroke="black" stroke-dasharray="5,2" d="M334.841,-165.937C322.127,-157.059 307.349,-146.74 293.781,-137.266"/>
<polygon fill="black" stroke="black" points="293.534,-137.093 286.324,-136.938 283.695,-130.223 290.905,-130.378 293.534,-137.093"/>
</g>
<!-- ndKeys&#45;&gt;ndSimpleKeyManager -->
<g id="edge19" class="edge"><title>ndKeys&#45;&gt;ndSimpleKeyManager</title>
<path fill="none" stroke="black" d="M319.538,-248.937C326.134,-240.842 333.706,-231.55 340.842,-222.792"/>
<polygon fill="black" stroke="black" points="341.059,-222.526 341.748,-215.348 348.639,-213.223 347.95,-220.401 341.059,-222.526"/>
</g>
<!-- ndReissueRequest -->
<g id="node8" class="node"><title>ndReissueRequest</title>
<g id="a_node8_16"><a xlink:href="https://github.com/maidsafe/sn_dbc/blob/master/src/mint.rs#:~:text=struct%20ReissueRequest" xlink:title="&lt;TABLE&gt;">
<polygon fill="lightblue" stroke="none" points="758.154,-87.5 758.154,-124.5 893.154,-124.5 893.154,-87.5 758.154,-87.5"/>
<polygon fill="none" stroke="black" points="758.154,-87.5 758.154,-124.5 893.154,-124.5 893.154,-87.5 758.154,-87.5"/>
<text text-anchor="start" x="769.154" y="-103.3" font-family="Arial" font-weight="bold" font-size="14.00">ReissueRequest</text>
<polygon fill="none" stroke="black" points="756.654,-87 756.654,-126 893.654,-126 893.654,-87 756.654,-87"/>
</a>
</g>
</g>
<!-- ndMintNode -->
<g id="node10" class="node"><title>ndMintNode</title>
<g id="a_node10_17"><a xlink:href="https://github.com/maidsafe/sn_dbc/blob/master/src/mint.rs#:~:text=struct%20MintNode" xlink:title="&lt;TABLE&gt;">
<polygon fill="lightblue" stroke="none" points="800.154,-4.5 800.154,-41.5 889.154,-41.5 889.154,-4.5 800.154,-4.5"/>
<polygon fill="none" stroke="black" points="800.154,-4.5 800.154,-41.5 889.154,-41.5 889.154,-4.5 800.154,-4.5"/>
<text text-anchor="start" x="811.154" y="-20.3" font-family="Arial" font-weight="bold" font-size="14.00">MintNode</text>
<polygon fill="none" stroke="black" points="798.654,-4 798.654,-43 889.654,-43 889.654,-4 798.654,-4"/>
</a>
</g>
</g>
<!-- ndReissueRequest&#45;&gt;ndMintNode -->
<g id="edge20" class="edge"><title>ndReissueRequest&#45;&gt;ndMintNode</title>
<path fill="none" stroke="black" stroke-dasharray="5,2" d="M830.446,-82.937C832.325,-74.9294 834.478,-65.7494 836.513,-57.0743"/>
<polygon fill="black" stroke="black" points="838.824,-47.2229 840.921,-57.9864 837.682,-52.0908 836.54,-56.9587 836.54,-56.9587 836.54,-56.9587 837.682,-52.0908 832.159,-55.931 838.824,-47.2229 838.824,-47.2229"/>
</g>
<!-- ndReissueRequestBuilder -->
<g id="node19" class="node"><title>ndReissueRequestBuilder</title>
<g id="a_node19_18"><a xlink:href="https://github.com/maidsafe/sn_dbc/blob/master/src/builder.rs#:~:text=struct%20ReissueRequestBuilder" xlink:title="&lt;TABLE&gt;">
<polygon fill="lightblue" stroke="none" points="579.154,-4.5 579.154,-41.5 764.154,-41.5 764.154,-4.5 579.154,-4.5"/>
<polygon fill="none" stroke="black" points="579.154,-4.5 579.154,-41.5 764.154,-41.5 764.154,-4.5 579.154,-4.5"/>
<text text-anchor="start" x="590.154" y="-20.3" font-family="Arial" font-weight="bold" font-size="14.00">ReissueRequestBuilder</text>
<polygon fill="none" stroke="black" points="577.654,-4 577.654,-43 764.654,-43 764.654,-4 577.654,-4"/>
</a>
</g>
</g>
<!-- ndReissueRequest&#45;&gt;ndReissueRequestBuilder -->
<g id="edge21" class="edge"><title>ndReissueRequest&#45;&gt;ndReissueRequestBuilder</title>
<path fill="none" stroke="black" d="M782.256,-82.937C763.893,-73.2787 742.288,-61.915 723.036,-51.7887"/>
<polygon fill="black" stroke="black" points="714.088,-47.0824 725.033,-47.7548 718.513,-49.4099 722.938,-51.7375 722.938,-51.7375 722.938,-51.7375 718.513,-49.4099 720.844,-55.7202 714.088,-47.0824 714.088,-47.0824"/>
</g>
<!-- ndReissueShare -->
<g id="node9" class="node"><title>ndReissueShare</title>
<g id="a_node9_19"><a xlink:href="https://github.com/maidsafe/sn_dbc/blob/master/src/mint.rs#:~:text=struct%20ReissueShare" xlink:title="&lt;TABLE&gt;">
<polygon fill="lightblue" stroke="none" points="929.154,-87.5 929.154,-124.5 1048.15,-124.5 1048.15,-87.5 929.154,-87.5"/>
<polygon fill="none" stroke="black" points="929.154,-87.5 929.154,-124.5 1048.15,-124.5 1048.15,-87.5 929.154,-87.5"/>
<text text-anchor="start" x="940.154" y="-103.3" font-family="Arial" font-weight="bold" font-size="14.00">ReissueShare</text>
<polygon fill="none" stroke="black" points="927.654,-87 927.654,-126 1048.65,-126 1048.65,-87 927.654,-87"/>
</a>
</g>
</g>
<!-- ndReissueShare&#45;&gt;ndMintNode -->
<g id="edge22" class="edge"><title>ndReissueShare&#45;&gt;ndMintNode</title>
<path fill="none" stroke="black" d="M948.042,-82.937C931.104,-73.4098 911.217,-62.2232 893.401,-52.2018"/>
<polygon fill="black" stroke="black" points="884.3,-47.0824 895.222,-48.0629 888.658,-49.5337 893.016,-51.985 893.016,-51.985 893.016,-51.985 888.658,-49.5337 890.81,-55.9071 884.3,-47.0824 884.3,-47.0824"/>
</g>
<!-- ndDbcBuilder -->
<g id="node20" class="node"><title>ndDbcBuilder</title>
<g id="a_node20_20"><a xlink:href="https://github.com/maidsafe/sn_dbc/blob/master/src/builder.rs#:~:text=struct%20DbcBuilder" xlink:title="&lt;TABLE&gt;">
<polygon fill="lightblue" stroke="none" points="1134.15,-4.5 1134.15,-41.5 1235.15,-41.5 1235.15,-4.5 1134.15,-4.5"/>
<polygon fill="none" stroke="black" points="1134.15,-4.5 1134.15,-41.5 1235.15,-41.5 1235.15,-4.5 1134.15,-4.5"/>
<text text-anchor="start" x="1145.15" y="-20.3" font-family="Arial" font-weight="bold" font-size="14.00">DbcBuilder</text>
<polygon fill="none" stroke="black" points="1132.65,-4 1132.65,-43 1235.65,-43 1235.65,-4 1132.65,-4"/>
</a>
</g>
</g>
<!-- ndReissueShare&#45;&gt;ndDbcBuilder -->
<g id="edge23" class="edge"><title>ndReissueShare&#45;&gt;ndDbcBuilder</title>
<path fill="none" stroke="black" stroke-dasharray="5,2" d="M1042.75,-82.937C1066.12,-73.2787 1093.62,-61.915 1118.12,-51.7887"/>
<polygon fill="black" stroke="black" points="1118.42,-51.6656 1122.44,-45.6772 1129.51,-47.0824 1125.49,-53.0708 1118.42,-51.6656"/>
</g>
<!-- ndDbcContent&#45;&gt;ndDbc -->
<g id="edge24" class="edge"><title>ndDbcContent&#45;&gt;ndDbc</title>
<path fill="none" stroke="black" d="M1351.08,-165.937C1341.61,-157.407 1330.65,-147.547 1320.47,-138.384"/>
<polygon fill="black" stroke="black" points="1320.32,-138.251 1313.19,-137.21 1311.4,-130.223 1318.54,-131.264 1320.32,-138.251"/>
</g>
<!-- ndGenesisMaterial -->
<g id="node12" class="node"><title>ndGenesisMaterial</title>
<g id="a_node12_21"><a xlink:href="https://github.com/maidsafe/sn_dbc/blob/master/src/genesis.rs#:~:text=struct%20GenesisMaterial" xlink:title="&lt;TABLE&gt;">
<polygon fill="lightblue" stroke="none" points="1542.15,-253.5 1542.15,-290.5 1677.15,-290.5 1677.15,-253.5 1542.15,-253.5"/>
<polygon fill="none" stroke="black" points="1542.15,-253.5 1542.15,-290.5 1677.15,-290.5 1677.15,-253.5 1542.15,-253.5"/>
<text text-anchor="start" x="1553.15" y="-269.3" font-family="Arial" font-weight="bold" font-size="14.00">GenesisMaterial</text>
<polygon fill="none" stroke="black" points="1540.65,-253 1540.65,-292 1677.65,-292 1677.65,-253 1540.65,-253"/>
</a>
</g>
</g>
<!-- ndPublicKeyBlstMappable&#45;&gt;ndSpentBookNodeMock -->
<g id="edge25" class="edge"><title>ndPublicKeyBlstMappable&#45;&gt;ndSpentBookNodeMock</title>
<path fill="none" stroke="black" d="M156.644,-165.937C171.284,-156.885 188.347,-146.335 203.914,-136.709"/>
<polygon fill="black" stroke="black" points="204.198,-136.534 207.197,-129.976 214.404,-130.223 211.405,-136.781 204.198,-136.534"/>
</g>
<!-- ndBlsHelper -->
<g id="node14" class="node"><title>ndBlsHelper</title>
<g id="a_node14_22"><a xlink:href="https://github.com/maidsafe/sn_dbc/blob/master/src/blst.rs#:~:text=struct%20BlsHelper" xlink:title="&lt;TABLE&gt;">
<polygon fill="lightblue" stroke="none" points="1593.15,-336.5 1593.15,-373.5 1683.15,-373.5 1683.15,-336.5 1593.15,-336.5"/>
<polygon fill="none" stroke="black" points="1593.15,-336.5 1593.15,-373.5 1683.15,-373.5 1683.15,-336.5 1593.15,-336.5"/>
<text text-anchor="start" x="1604.15" y="-352.3" font-family="Arial" font-weight="bold" font-size="14.00">BlsHelper</text>
<polygon fill="none" stroke="black" points="1592.15,-336 1592.15,-375 1684.15,-375 1684.15,-336 1592.15,-336"/>
</a>
</g>
</g>
<!-- ndOwner -->
<g id="node15" class="node"><title>ndOwner</title>
<g id="a_node15_23"><a xlink:href="https://github.com/maidsafe/sn_dbc/blob/master/src/owner.rs#:~:text=enum%20Owner" xlink:title="&lt;TABLE&gt;">
<polygon fill="yellow" stroke="none" points="1399.15,-253.5 1399.15,-290.5 1467.15,-290.5 1467.15,-253.5 1399.15,-253.5"/>
<polygon fill="none" stroke="black" points="1399.15,-253.5 1399.15,-290.5 1467.15,-290.5 1467.15,-253.5 1399.15,-253.5"/>
<text text-anchor="start" x="1410.15" y="-269.3" font-family="Arial" font-weight="bold" font-size="14.00">Owner</text>
<polygon fill="none" stroke="black" points="1398.15,-253 1398.15,-292 1468.15,-292 1468.15,-253 1398.15,-253"/>
</a>
</g>
</g>
<!-- ndOwner&#45;&gt;ndDbcContent -->
<g id="edge26" class="edge"><title>ndOwner&#45;&gt;ndDbcContent</title>
<path fill="none" stroke="black" d="M1417.28,-248.937C1411.64,-240.929 1405.18,-231.749 1399.08,-223.074"/>
<polygon fill="black" stroke="black" points="1399.05,-223.037 1392.33,-220.432 1392.14,-213.223 1398.87,-215.828 1399.05,-223.037"/>
</g>
<!-- ndOwnerOnce -->
<g id="node16" class="node"><title>ndOwnerOnce</title>
<g id="a_node16_24"><a xlink:href="https://github.com/maidsafe/sn_dbc/blob/master/src/owner.rs#:~:text=struct%20OwnerOnce" xlink:title="&lt;TABLE&gt;">
<polygon fill="lightblue" stroke="none" points="1452.15,-336.5 1452.15,-373.5 1557.15,-373.5 1557.15,-336.5 1452.15,-336.5"/>
<polygon fill="none" stroke="black" points="1452.15,-336.5 1452.15,-373.5 1557.15,-373.5 1557.15,-336.5 1452.15,-336.5"/>
<text text-anchor="start" x="1463.15" y="-352.3" font-family="Arial" font-weight="bold" font-size="14.00">OwnerOnce</text>
<polygon fill="none" stroke="black" points="1450.65,-336 1450.65,-375 1557.65,-375 1557.65,-336 1450.65,-336"/>
</a>
</g>
</g>
<!-- ndOwner&#45;&gt;ndOwnerOnce -->
<g id="edge27" class="edge"><title>ndOwner&#45;&gt;ndOwnerOnce</title>
<path fill="none" stroke="black" stroke-dasharray="5,2" d="M1459.21,-296.223C1467,-304.42 1475.4,-313.83 1482.86,-322.663"/>
<polygon fill="black" stroke="black" points="1482.87,-322.676 1489.77,-324.763 1490.5,-331.937 1483.6,-329.85 1482.87,-322.676"/>
</g>
<!-- ndOwner&#45;&gt;ndDbc -->
<g id="edge28" class="edge"><title>ndOwner&#45;&gt;ndDbc</title>
<path fill="none" stroke="black" d="M1444.23,-248.758C1453.65,-225.801 1463.18,-190.351 1446.15,-166 1420.29,-128.998 1368.38,-115.324 1330.68,-110.313"/>
<polygon fill="black" stroke="black" points="1320.46,-109.117 1330.92,-105.81 1325.43,-109.698 1330.39,-110.279 1330.39,-110.279 1330.39,-110.279 1325.43,-109.698 1329.87,-114.749 1320.46,-109.117 1320.46,-109.117"/>
</g>
<!-- ndOwnerOnce&#45;&gt;ndGenesisMaterial -->
<g id="edge29" class="edge"><title>ndOwnerOnce&#45;&gt;ndGenesisMaterial</title>
<path fill="none" stroke="black" d="M1533.4,-331.937C1544.68,-323.233 1557.76,-313.144 1569.85,-303.824"/>
<polygon fill="black" stroke="black" points="1570.2,-303.553 1572.5,-296.721 1579.7,-296.223 1577.39,-303.055 1570.2,-303.553"/>
</g>
<!-- ndOwnerOnce&#45;&gt;ndOwner -->
<g id="edge30" class="edge"><title>ndOwnerOnce&#45;&gt;ndOwner</title>
<path fill="none" stroke="black" stroke-dasharray="5,2" d="M1478.25,-331.937C1470.06,-323.32 1461.17,-313.346 1453.41,-304.104"/>
<polygon fill="black" stroke="black" points="1446.94,-296.223 1456.76,-301.092 1450.11,-300.086 1453.28,-303.949 1453.28,-303.949 1453.28,-303.949 1450.11,-300.086 1449.81,-306.806 1446.94,-296.223 1446.94,-296.223"/>
</g>
<!-- ndTransactionBuilder -->
<g id="node18" class="node"><title>ndTransactionBuilder</title>
<g id="a_node18_25"><a xlink:href="https://github.com/maidsafe/sn_dbc/blob/master/src/builder.rs#:~:text=struct%20TransactionBuilder" xlink:title="&lt;TABLE&gt;">
<polygon fill="lightblue" stroke="none" points="1271.15,-4.5 1271.15,-41.5 1427.15,-41.5 1427.15,-4.5 1271.15,-4.5"/>
<polygon fill="none" stroke="black" points="1271.15,-4.5 1271.15,-41.5 1427.15,-41.5 1427.15,-4.5 1271.15,-4.5"/>
<text text-anchor="start" x="1282.15" y="-20.3" font-family="Arial" font-weight="bold" font-size="14.00">TransactionBuilder</text>
<polygon fill="none" stroke="black" points="1270.15,-4 1270.15,-43 1428.15,-43 1428.15,-4 1270.15,-4"/>
</a>
</g>
</g>
<!-- ndOwnerOnce&#45;&gt;ndTransactionBuilder -->
<g id="edge31" class="edge"><title>ndOwnerOnce&#45;&gt;ndTransactionBuilder</title>
<path fill="none" stroke="black" stroke-dasharray="5,2" d="M1565.71,-334.929C1568.9,-333.934 1572.06,-332.953 1575.15,-332 1628.36,-315.589 1661.92,-340.673 1695.15,-296 1707.62,-279.241 1703.46,-268.168 1695.15,-249 1652.29,-150.034 1610.47,-138.754 1518.15,-83 1496.1,-69.6805 1470.58,-58.8491 1446.17,-50.2924"/>
<polygon fill="black" stroke="black" points="1436.52,-47.0046 1447.43,-45.9689 1441.25,-48.6166 1445.98,-50.2286 1445.98,-50.2286 1445.98,-50.2286 1441.25,-48.6166 1444.53,-54.4884 1436.52,-47.0046 1436.52,-47.0046"/>
</g>
<!-- ndOwnerOnce&#45;&gt;ndDbcBuilder -->
<g id="edge32" class="edge"><title>ndOwnerOnce&#45;&gt;ndDbcBuilder</title>
<path fill="none" stroke="black" d="M1505.2,-331.808C1505.8,-293.808 1501.95,-216.509 1465.15,-166 1438.36,-129.221 1327.4,-80.3743 1253.19,-50.7501"/>
<polygon fill="black" stroke="black" points="1243.88,-47.0569 1254.84,-46.5612 1248.53,-48.9005 1253.18,-50.7441 1253.18,-50.7441 1253.18,-50.7441 1248.53,-48.9005 1251.52,-54.9271 1243.88,-47.0569 1243.88,-47.0569"/>
</g>
<!-- ndDbc&#45;&gt;ndTransactionBuilder -->
<g id="edge33" class="edge"><title>ndDbc&#45;&gt;ndTransactionBuilder</title>
<path fill="none" stroke="black" stroke-dasharray="5,2" d="M1303.7,-82.937C1310.34,-74.4071 1318.01,-64.547 1325.13,-55.3839"/>
<polygon fill="black" stroke="black" points="1331.48,-47.2229 1328.89,-57.8792 1328.41,-51.1697 1325.34,-55.1165 1325.34,-55.1165 1325.34,-55.1165 1328.41,-51.1697 1321.79,-52.3537 1331.48,-47.2229 1331.48,-47.2229"/>
</g>
<!-- ndDbc&#45;&gt;ndDbcBuilder -->
<g id="edge34" class="edge"><title>ndDbc&#45;&gt;ndDbcBuilder</title>
<path fill="none" stroke="black" d="M1257.74,-82.937C1246.34,-73.8849 1233.06,-63.3347 1220.94,-53.7092"/>
<polygon fill="black" stroke="black" points="1212.77,-47.2229 1223.4,-49.9178 1216.68,-50.3324 1220.6,-53.4418 1220.6,-53.4418 1220.6,-53.4418 1216.68,-50.3324 1217.8,-56.9658 1212.77,-47.2229 1212.77,-47.2229"/>
</g>
<!-- ndSpentProofContent&#45;&gt;ndSpentProofShare -->
<g id="edge35" class="edge"><title>ndSpentProofContent&#45;&gt;ndSpentProofShare</title>
<path fill="none" stroke="black" d="M788.749,-248.937C769.753,-239.497 747.479,-228.428 727.455,-218.478"/>
<polygon fill="black" stroke="black" points="727.343,-218.423 720.19,-219.335 716.597,-213.082 723.75,-212.17 727.343,-218.423"/>
</g>
<!-- ndSpentProofContent&#45;&gt;ndSpentProof -->
<g id="edge36" class="edge"><title>ndSpentProofContent&#45;&gt;ndSpentProof</title>
<path fill="none" stroke="black" d="M832.761,-248.937C832.31,-241.626 831.798,-233.337 831.305,-225.348"/>
<polygon fill="black" stroke="black" points="831.296,-225.2 826.934,-219.458 830.556,-213.223 834.918,-218.965 831.296,-225.2"/>
</g>
<!-- ndSpentProofShare&#45;&gt;ndMintNode -->
<g id="edge37" class="edge"><title>ndSpentProofShare&#45;&gt;ndMintNode</title>
<path fill="none" stroke="black" d="M681.724,-165.612C693.264,-142.539 713.562,-106.998 739.154,-83 752.005,-70.9483 767.801,-60.483 783.2,-51.8684"/>
<polygon fill="black" stroke="black" points="792.197,-47.0122 785.534,-55.7224 787.797,-49.3873 783.397,-51.7625 783.397,-51.7625 783.397,-51.7625 787.797,-49.3873 781.259,-47.8026 792.197,-47.0122 792.197,-47.0122"/>
</g>
<!-- ndSpentProofShare&#45;&gt;ndReissueRequestBuilder -->
<g id="edge38" class="edge"><title>ndSpentProofShare&#45;&gt;ndReissueRequestBuilder</title>
<path fill="none" stroke="black" stroke-dasharray="5,2" d="M671.154,-165.697C671.154,-138.158 671.154,-91.5465 671.154,-59.4581"/>
<polygon fill="black" stroke="black" points="671.154,-59.1098 667.154,-53.1099 671.154,-47.1098 675.154,-53.1098 671.154,-59.1098"/>
</g>
<!-- ndSpentProofShare&#45;&gt;ndSpentBookNodeMock -->
<g id="edge39" class="edge"><title>ndSpentProofShare&#45;&gt;ndSpentBookNodeMock</title>
<path fill="none" stroke="black" d="M590.173,-172.882C523.923,-160.105 429.701,-141.934 357.397,-127.99"/>
<polygon fill="black" stroke="black" points="347.346,-126.051 358.017,-123.526 352.255,-126.998 357.165,-127.945 357.165,-127.945 357.165,-127.945 352.255,-126.998 356.312,-132.364 347.346,-126.051 347.346,-126.051"/>
</g>
<!-- ndSpentProof&#45;&gt;ndReissueRequest -->
<g id="edge40" class="edge"><title>ndSpentProof&#45;&gt;ndReissueRequest</title>
<path fill="none" stroke="black" d="M828.039,-165.937C827.678,-158.626 827.269,-150.337 826.875,-142.348"/>
<polygon fill="black" stroke="black" points="826.868,-142.208 822.577,-136.413 826.276,-130.223 830.567,-136.018 826.868,-142.208"/>
</g>
<!-- ndSpentProof&#45;&gt;ndReissueShare -->
<g id="edge41" class="edge"><title>ndSpentProof&#45;&gt;ndReissueShare</title>
<path fill="none" stroke="black" d="M873.444,-165.937C891.888,-156.541 913.501,-145.531 932.963,-135.616"/>
<polygon fill="black" stroke="black" points="933.133,-135.53 936.663,-129.242 943.825,-130.082 940.295,-136.37 933.133,-135.53"/>
</g>
<!-- ndSpentProof&#45;&gt;ndDbc -->
<g id="edge42" class="edge"><title>ndSpentProof&#45;&gt;ndDbc</title>
<path fill="none" stroke="black" d="M888.692,-168.163C891.541,-167.391 894.372,-166.664 897.154,-166 1019.29,-136.835 1166.64,-119.387 1239.99,-111.87"/>
<polygon fill="black" stroke="black" points="1240.02,-111.867 1245.59,-107.286 1251.96,-110.665 1246.39,-115.246 1240.02,-111.867"/>
</g>
<!-- ndAmountSecrets&#45;&gt;ndDbc -->
<g id="edge43" class="edge"><title>ndAmountSecrets&#45;&gt;ndDbc</title>
<path fill="none" stroke="black" stroke-dasharray="5,2" d="M1212.57,-165.937C1223.97,-156.885 1237.25,-146.335 1249.37,-136.709"/>
<polygon fill="black" stroke="black" points="1257.54,-130.223 1252.51,-139.966 1253.62,-133.332 1249.71,-136.442 1249.71,-136.442 1249.71,-136.442 1253.62,-133.332 1246.91,-132.918 1257.54,-130.223 1257.54,-130.223"/>
</g>
<!-- ndAmountSecrets&#45;&gt;ndTransactionBuilder -->
<g id="edge44" class="edge"><title>ndAmountSecrets&#45;&gt;ndTransactionBuilder</title>
<path fill="none" stroke="black" stroke-dasharray="5,2" d="M1192.43,-165.969C1201.82,-142.852 1219.05,-106.972 1243.15,-83 1255.43,-70.7963 1270.77,-60.3911 1285.94,-51.8899"/>
<polygon fill="black" stroke="black" points="1294.83,-47.1053 1288.15,-55.808 1290.42,-49.4755 1286.02,-51.8458 1286.02,-51.8458 1286.02,-51.8458 1290.42,-49.4755 1283.89,-47.8835 1294.83,-47.1053 1294.83,-47.1053"/>
</g>
<!-- ndAmountSecrets&#45;&gt;ndDbcBuilder -->
<g id="edge45" class="edge"><title>ndAmountSecrets&#45;&gt;ndDbcBuilder</title>
<path fill="none" stroke="black" d="M1184.15,-165.697C1184.15,-137.546 1184.15,-89.4655 1184.15,-57.3408"/>
<polygon fill="black" stroke="black" points="1184.15,-47.1098 1188.65,-57.1098 1184.15,-52.1098 1184.15,-57.1098 1184.15,-57.1098 1184.15,-57.1098 1184.15,-52.1098 1179.65,-57.1099 1184.15,-47.1098 1184.15,-47.1098"/>
</g>
</g>
</svg>
