<?xml version="1.0" encoding="UTF-8" standalone="no"?>
<!DOCTYPE svg PUBLIC "-//W3C//DTD SVG 1.1//EN"
 "http://www.w3.org/Graphics/SVG/1.1/DTD/svg11.dtd">
<!-- Generated by graphviz version 2.38.0 (20140413.2041)
 -->
<!-- Title: ml Pages: 1 -->
<svg width="1924pt" height="470pt"
 viewBox="0.00 0.00 1924.18 470.00" xmlns="http://www.w3.org/2000/svg" xmlns:xlink="http://www.w3.org/1999/xlink">
<g id="graph0" class="graph" transform="scale(1 1) rotate(0) translate(4 466)">
<title>ml</title>
<polygon fill="white" stroke="none" points="-4,4 -4,-466 1920.18,-466 1920.18,4 -4,4"/>
<!-- ndHash -->
<g id="node1" class="node"><title>ndHash</title>
<g id="a_node1_0"><a xlink:href="https://github.com/maidsafe/sn_dbc/blob/master/src/lib.rs#:~:text=struct%20Hash" xlink:title="&lt;TABLE&gt;">
<polygon fill="lightblue" stroke="none" points="899,-419.5 899,-456.5 957,-456.5 957,-419.5 899,-419.5"/>
<polygon fill="none" stroke="black" points="899,-419.5 899,-456.5 957,-456.5 957,-419.5 899,-419.5"/>
<text text-anchor="start" x="910" y="-435.3" font-family="Arial" font-weight="bold" font-size="14.00">Hash</text>
<polygon fill="none" stroke="black" points="898,-419 898,-458 958,-458 958,-419 898,-419"/>
</a>
</g>
</g>
<!-- ndSimpleKeyManager -->
<g id="node6" class="node"><title>ndSimpleKeyManager</title>
<g id="a_node6_1"><a xlink:href="https://github.com/maidsafe/sn_dbc/blob/master/src/key_manager.rs#:~:text=struct%20SimpleKeyManager" xlink:title="&lt;TABLE&gt;">
<polygon fill="lightblue" stroke="none" points="385,-253.5 385,-290.5 543,-290.5 543,-253.5 385,-253.5"/>
<polygon fill="none" stroke="black" points="385,-253.5 385,-290.5 543,-290.5 543,-253.5 385,-253.5"/>
<text text-anchor="start" x="396" y="-269.3" font-family="Arial" font-weight="bold" font-size="14.00">SimpleKeyManager</text>
<polygon fill="none" stroke="black" points="384,-253 384,-292 544,-292 544,-253 384,-253"/>
</a>
</g>
</g>
<!-- ndHash&#45;&gt;ndSimpleKeyManager -->
<g id="edge1" class="edge"><title>ndHash&#45;&gt;ndSimpleKeyManager</title>
<path fill="none" stroke="black" stroke-dasharray="5,2" d="M889.98,-435.802C780.24,-430.516 468.867,-412.653 439,-379 421.021,-358.741 431.153,-327.924 443.474,-304.819"/>
<polygon fill="black" stroke="black" points="448.436,-296.068 447.418,-306.987 445.97,-300.417 443.503,-304.767 443.503,-304.767 443.503,-304.767 445.97,-300.417 439.589,-302.547 448.436,-296.068 448.436,-296.068"/>
</g>
<!-- ndKeys -->
<g id="node7" class="node"><title>ndKeys</title>
<g id="a_node7_2"><a xlink:href="https://github.com/maidsafe/sn_dbc/blob/master/src/key_manager.rs#:~:text=struct%20Keys" xlink:title="&lt;TABLE&gt;">
<polygon fill="lightblue" stroke="none" points="457,-336.5 457,-373.5 515,-373.5 515,-336.5 457,-336.5"/>
<polygon fill="none" stroke="black" points="457,-336.5 457,-373.5 515,-373.5 515,-336.5 457,-336.5"/>
<text text-anchor="start" x="468" y="-352.3" font-family="Arial" font-weight="bold" font-size="14.00">Keys</text>
<polygon fill="none" stroke="black" points="456,-336 456,-375 516,-375 516,-336 456,-336"/>
</a>
</g>
</g>
<!-- ndHash&#45;&gt;ndKeys -->
<g id="edge2" class="edge"><title>ndHash&#45;&gt;ndKeys</title>
<path fill="none" stroke="black" stroke-dasharray="5,2" d="M889.868,-435.64C820.092,-431.433 667.492,-418.497 533.697,-378.791"/>
<polygon fill="black" stroke="black" points="524.097,-375.886 534.972,-374.475 528.883,-377.334 533.668,-378.783 533.668,-378.783 533.668,-378.783 528.883,-377.334 532.365,-383.09 524.097,-375.886 524.097,-375.886"/>
</g>
<!-- ndDbcContent -->
<g id="node11" class="node"><title>ndDbcContent</title>
<g id="a_node11_3"><a xlink:href="https://github.com/maidsafe/sn_dbc/blob/master/src/dbc_content.rs#:~:text=struct%20DbcContent" xlink:title="&lt;TABLE&gt;">
<polygon fill="lightblue" stroke="none" points="1523,-253.5 1523,-290.5 1628,-290.5 1628,-253.5 1523,-253.5"/>
<polygon fill="none" stroke="black" points="1523,-253.5 1523,-290.5 1628,-290.5 1628,-253.5 1523,-253.5"/>
<text text-anchor="start" x="1534" y="-269.3" font-family="Arial" font-weight="bold" font-size="14.00">DbcContent</text>
<polygon fill="none" stroke="black" points="1521.5,-253 1521.5,-292 1628.5,-292 1628.5,-253 1521.5,-253"/>
</a>
</g>
</g>
<!-- ndHash&#45;&gt;ndDbcContent -->
<g id="edge3" class="edge"><title>ndHash&#45;&gt;ndDbcContent</title>
<path fill="none" stroke="black" d="M966.097,-435.564C1068.07,-429.987 1345.21,-412.131 1430,-379 1474.07,-361.778 1516.93,-327.816 1544.47,-303.063"/>
<polygon fill="black" stroke="black" points="1552.17,-296.027 1547.82,-306.095 1548.48,-299.4 1544.79,-302.774 1544.79,-302.774 1544.79,-302.774 1548.48,-299.4 1541.75,-299.453 1552.17,-296.027 1552.17,-296.027"/>
</g>
<!-- ndPublicKeyBlstMappable -->
<g id="node13" class="node"><title>ndPublicKeyBlstMappable</title>
<g id="a_node13_4"><a xlink:href="https://github.com/maidsafe/sn_dbc/blob/master/src/blst.rs#:~:text=struct%20PublicKeyBlstMappable" xlink:title="&lt;TABLE&gt;">
<polygon fill="lightblue" stroke="none" points="9,-253.5 9,-290.5 197,-290.5 197,-253.5 9,-253.5"/>
<polygon fill="none" stroke="black" points="9,-253.5 9,-290.5 197,-290.5 197,-253.5 9,-253.5"/>
<text text-anchor="start" x="20" y="-269.3" font-family="Arial" font-weight="bold" font-size="14.00">PublicKeyBlstMappable</text>
<polygon fill="none" stroke="black" points="8,-253 8,-292 198,-292 198,-253 8,-253"/>
</a>
</g>
</g>
<!-- ndHash&#45;&gt;ndPublicKeyBlstMappable -->
<g id="edge4" class="edge"><title>ndHash&#45;&gt;ndPublicKeyBlstMappable</title>
<path fill="none" stroke="black" stroke-dasharray="5,2" d="M889.606,-437.531C760.3,-437.142 341.98,-431.741 220,-379 182.169,-362.643 148.336,-328.987 126.902,-304.066"/>
<polygon fill="none" stroke="black" points="129.502,-301.72 120.389,-296.315 124.142,-306.223 129.502,-301.72"/>
</g>
<!-- ndSpentProofContent -->
<g id="node21" class="node"><title>ndSpentProofContent</title>
<g id="a_node21_5"><a xlink:href="https://github.com/maidsafe/sn_dbc/blob/master/src/spent_proof.rs#:~:text=struct%20SpentProofContent" xlink:title="&lt;TABLE&gt;">
<polygon fill="lightblue" stroke="none" points="965,-336.5 965,-373.5 1121,-373.5 1121,-336.5 965,-336.5"/>
<polygon fill="none" stroke="black" points="965,-336.5 965,-373.5 1121,-373.5 1121,-336.5 965,-336.5"/>
<text text-anchor="start" x="976" y="-352.3" font-family="Arial" font-weight="bold" font-size="14.00">SpentProofContent</text>
<polygon fill="none" stroke="black" points="964,-336 964,-375 1122,-375 1122,-336 964,-336"/>
</a>
</g>
</g>
<!-- ndHash&#45;&gt;ndSpentProofContent -->
<g id="edge5" class="edge"><title>ndHash&#45;&gt;ndSpentProofContent</title>
<path fill="none" stroke="black" d="M960.034,-414.937C972.638,-406.059 987.289,-395.74 1000.74,-386.266"/>
<polygon fill="black" stroke="black" points="1000.93,-386.133 1003.53,-379.408 1010.74,-379.223 1008.14,-385.948 1000.93,-386.133"/>
</g>
<!-- ndSpentProofShare -->
<g id="node22" class="node"><title>ndSpentProofShare</title>
<g id="a_node22_6"><a xlink:href="https://github.com/maidsafe/sn_dbc/blob/master/src/spent_proof.rs#:~:text=struct%20SpentProofShare" xlink:title="&lt;TABLE&gt;">
<polygon fill="lightblue" stroke="none" points="772,-253.5 772,-290.5 915,-290.5 915,-253.5 772,-253.5"/>
<polygon fill="none" stroke="black" points="772,-253.5 772,-290.5 915,-290.5 915,-253.5 772,-253.5"/>
<text text-anchor="start" x="783" y="-269.3" font-family="Arial" font-weight="bold" font-size="14.00">SpentProofShare</text>
<polygon fill="none" stroke="black" points="770.5,-253 770.5,-292 915.5,-292 915.5,-253 770.5,-253"/>
</a>
</g>
</g>
<!-- ndHash&#45;&gt;ndSpentProofShare -->
<g id="edge6" class="edge"><title>ndHash&#45;&gt;ndSpentProofShare</title>
<path fill="none" stroke="black" d="M927.824,-414.664C926.733,-392.272 922.539,-357.83 908,-332 901.891,-321.147 893.023,-311.243 883.792,-302.794"/>
<polygon fill="black" stroke="black" points="876.004,-296.049 886.51,-299.194 879.784,-299.323 883.564,-302.596 883.564,-302.596 883.564,-302.596 879.784,-299.323 880.618,-305.998 876.004,-296.049 876.004,-296.049"/>
</g>
<!-- ndSpentProof -->
<g id="node23" class="node"><title>ndSpentProof</title>
<g id="a_node23_7"><a xlink:href="https://github.com/maidsafe/sn_dbc/blob/master/src/spent_proof.rs#:~:text=struct%20SpentProof" xlink:title="&lt;TABLE&gt;">
<polygon fill="lightblue" stroke="none" points="990,-253.5 990,-290.5 1091,-290.5 1091,-253.5 990,-253.5"/>
<polygon fill="none" stroke="black" points="990,-253.5 990,-290.5 1091,-290.5 1091,-253.5 990,-253.5"/>
<text text-anchor="start" x="1001" y="-269.3" font-family="Arial" font-weight="bold" font-size="14.00">SpentProof</text>
<polygon fill="none" stroke="black" points="988.5,-253 988.5,-292 1091.5,-292 1091.5,-253 988.5,-253"/>
</a>
</g>
</g>
<!-- ndHash&#45;&gt;ndSpentProof -->
<g id="edge7" class="edge"><title>ndHash&#45;&gt;ndSpentProof</title>
<path fill="none" stroke="black" stroke-dasharray="5,2" d="M966.357,-432.43C1021.32,-424.289 1118.18,-406.384 1139,-379 1151.64,-362.373 1149.35,-350.143 1139,-332 1131.76,-319.32 1120.59,-309.111 1108.3,-300.996"/>
<polygon fill="black" stroke="black" points="1099.66,-295.708 1110.54,-297.089 1103.93,-298.317 1108.19,-300.927 1108.19,-300.927 1108.19,-300.927 1103.93,-298.317 1105.84,-304.766 1099.66,-295.708 1099.66,-295.708"/>
</g>
<!-- ndSpentBookNodeMock -->
<g id="node25" class="node"><title>ndSpentBookNodeMock</title>
<g id="a_node25_8"><a xlink:href="https://github.com/maidsafe/sn_dbc/blob/master/src/spentbook.rs#:~:text=struct%20SpentBookNodeMock" xlink:title="&lt;TABLE&gt;">
<polygon fill="lightblue" stroke="none" points="240,-170.5 240,-207.5 414,-207.5 414,-170.5 240,-170.5"/>
<polygon fill="none" stroke="black" points="240,-170.5 240,-207.5 414,-207.5 414,-170.5 240,-170.5"/>
<text text-anchor="start" x="251" y="-186.3" font-family="Arial" font-weight="bold" font-size="14.00">SpentBookNodeMock</text>
<polygon fill="none" stroke="black" points="239,-170 239,-209 415,-209 415,-170 239,-170"/>
</a>
</g>
</g>
<!-- ndHash&#45;&gt;ndSpentBookNodeMock -->
<g id="edge8" class="edge"><title>ndHash&#45;&gt;ndSpentBookNodeMock</title>
<path fill="none" stroke="black" d="M889.725,-437.127C753.242,-435.406 296.23,-426.138 253,-379 211.555,-333.808 260.932,-262.698 296.615,-221.963"/>
<polygon fill="black" stroke="black" points="296.63,-221.946 297.668,-214.81 304.654,-213.023 303.616,-220.159 296.63,-221.946"/>
</g>
<!-- ndTransactionVerifier -->
<g id="node26" class="node"><title>ndTransactionVerifier</title>
<g id="a_node26_9"><a xlink:href="https://github.com/maidsafe/sn_dbc/blob/master/src/verification.rs#:~:text=struct%20TransactionVerifier" xlink:title="&lt;TABLE&gt;">
<polygon fill="lightblue" stroke="none" points="1127,-253.5 1127,-290.5 1282,-290.5 1282,-253.5 1127,-253.5"/>
<polygon fill="none" stroke="black" points="1127,-253.5 1127,-290.5 1282,-290.5 1282,-253.5 1127,-253.5"/>
<text text-anchor="start" x="1138" y="-269.3" font-family="Arial" font-weight="bold" font-size="14.00">TransactionVerifier</text>
<polygon fill="none" stroke="black" points="1125.5,-253 1125.5,-292 1282.5,-292 1282.5,-253 1125.5,-253"/>
</a>
</g>
</g>
<!-- ndHash&#45;&gt;ndTransactionVerifier -->
<g id="edge9" class="edge"><title>ndHash&#45;&gt;ndTransactionVerifier</title>
<path fill="none" stroke="black" stroke-dasharray="5,2" d="M966.005,-437.659C1015.75,-435.883 1103.05,-425.69 1158,-379 1179.75,-360.516 1191.55,-329.808 1197.73,-306.275"/>
<polygon fill="black" stroke="black" points="1200.12,-296.361 1202.15,-307.137 1198.95,-301.222 1197.78,-306.083 1197.78,-306.083 1197.78,-306.083 1198.95,-301.222 1193.4,-305.029 1200.12,-296.361 1200.12,-296.361"/>
</g>
<!-- ndError -->
<g id="node2" class="node"><title>ndError</title>
<g id="a_node2_10"><a xlink:href="https://github.com/maidsafe/sn_dbc/blob/master/src/error.rs#:~:text=enum%20Error" xlink:title="&lt;TABLE&gt;">
<polygon fill="yellow" stroke="none" points="1354,-336.5 1354,-373.5 1413,-373.5 1413,-336.5 1354,-336.5"/>
<polygon fill="none" stroke="black" points="1354,-336.5 1354,-373.5 1413,-373.5 1413,-336.5 1354,-336.5"/>
<text text-anchor="start" x="1365" y="-352.3" font-family="Arial" font-weight="bold" font-size="14.00">Error</text>
<polygon fill="none" stroke="black" points="1352.5,-336 1352.5,-375 1413.5,-375 1413.5,-336 1352.5,-336"/>
</a>
</g>
</g>
<!-- ndDbc -->
<g id="node17" class="node"><title>ndDbc</title>
<g id="a_node17_11"><a xlink:href="https://github.com/maidsafe/sn_dbc/blob/master/src/dbc.rs#:~:text=struct%20Dbc" xlink:title="&lt;TABLE&gt;">
<polygon fill="lightblue" stroke="none" points="1460,-170.5 1460,-207.5 1510,-207.5 1510,-170.5 1460,-170.5"/>
<polygon fill="none" stroke="black" points="1460,-170.5 1460,-207.5 1510,-207.5 1510,-170.5 1460,-170.5"/>
<text text-anchor="start" x="1471" y="-186.3" font-family="Arial" font-weight="bold" font-size="14.00">Dbc</text>
<polygon fill="none" stroke="black" points="1459,-170 1459,-209 1511,-209 1511,-170 1459,-170"/>
</a>
</g>
</g>
<!-- ndError&#45;&gt;ndDbc -->
<g id="edge10" class="edge"><title>ndError&#45;&gt;ndDbc</title>
<path fill="none" stroke="black" d="M1421.74,-335.856C1437.87,-326.165 1455.29,-312.798 1466,-296 1479.76,-274.422 1484.22,-245.588 1485.4,-223.518"/>
<polygon fill="black" stroke="black" points="1485.74,-213.288 1489.9,-223.433 1485.57,-218.285 1485.41,-223.282 1485.41,-223.282 1485.41,-223.282 1485.57,-218.285 1480.91,-223.131 1485.74,-213.288 1485.74,-213.288"/>
</g>
<!-- ndAmountSecrets -->
<g id="node24" class="node"><title>ndAmountSecrets</title>
<g id="a_node24_12"><a xlink:href="https://github.com/maidsafe/sn_dbc/blob/master/src/amount_secrets.rs#:~:text=struct%20AmountSecrets" xlink:title="&lt;TABLE&gt;">
<polygon fill="lightblue" stroke="none" points="1318,-253.5 1318,-290.5 1448,-290.5 1448,-253.5 1318,-253.5"/>
<polygon fill="none" stroke="black" points="1318,-253.5 1318,-290.5 1448,-290.5 1448,-253.5 1318,-253.5"/>
<text text-anchor="start" x="1329" y="-269.3" font-family="Arial" font-weight="bold" font-size="14.00">AmountSecrets</text>
<polygon fill="none" stroke="black" points="1317,-253 1317,-292 1449,-292 1449,-253 1317,-253"/>
</a>
</g>
</g>
<!-- ndError&#45;&gt;ndAmountSecrets -->
<g id="edge11" class="edge"><title>ndError&#45;&gt;ndAmountSecrets</title>
<path fill="none" stroke="black" d="M1383,-331.937C1383,-324.016 1383,-314.949 1383,-306.357"/>
<polygon fill="black" stroke="black" points="1383,-296.223 1387.5,-306.223 1383,-301.223 1383,-306.223 1383,-306.223 1383,-306.223 1383,-301.223 1378.5,-306.223 1383,-296.223 1383,-296.223"/>
</g>
<!-- ndError&#45;&gt;ndTransactionVerifier -->
<g id="edge12" class="edge"><title>ndError&#45;&gt;ndTransactionVerifier</title>
<path fill="none" stroke="black" d="M1344.16,-336.924C1320.52,-326.227 1289.85,-312.35 1263.23,-300.304"/>
<polygon fill="black" stroke="black" points="1254,-296.128 1264.97,-296.151 1258.56,-298.189 1263.12,-300.251 1263.12,-300.251 1263.12,-300.251 1258.56,-298.189 1261.26,-304.35 1254,-296.128 1254,-296.128"/>
</g>
<!-- ndIndexedSignatureShare -->
<g id="node3" class="node"><title>ndIndexedSignatureShare</title>
<g id="a_node3_13"><a xlink:href="https://github.com/maidsafe/sn_dbc/blob/master/src/key_manager.rs#:~:text=struct%20IndexedSignatureShare" xlink:title="&lt;TABLE&gt;">
<polygon fill="lightblue" stroke="none" points="704,-336.5 704,-373.5 891,-373.5 891,-336.5 704,-336.5"/>
<polygon fill="none" stroke="black" points="704,-336.5 704,-373.5 891,-373.5 891,-336.5 704,-336.5"/>
<text text-anchor="start" x="715" y="-352.3" font-family="Arial" font-weight="bold" font-size="14.00">IndexedSignatureShare</text>
<polygon fill="none" stroke="black" points="702.5,-336 702.5,-375 891.5,-375 891.5,-336 702.5,-336"/>
</a>
</g>
</g>
<!-- ndIndexedSignatureShare&#45;&gt;ndSimpleKeyManager -->
<g id="edge13" class="edge"><title>ndIndexedSignatureShare&#45;&gt;ndSimpleKeyManager</title>
<path fill="none" stroke="black" d="M704.241,-331.937C659.956,-321.165 606.95,-308.272 562.007,-297.34"/>
<polygon fill="black" stroke="black" points="552.251,-294.966 563.031,-292.958 557.109,-296.148 561.968,-297.33 561.968,-297.33 561.968,-297.33 557.109,-296.148 560.904,-301.703 552.251,-294.966 552.251,-294.966"/>
</g>
<!-- ndReissueShare -->
<g id="node9" class="node"><title>ndReissueShare</title>
<g id="a_node9_14"><a xlink:href="https://github.com/maidsafe/sn_dbc/blob/master/src/mint.rs#:~:text=struct%20ReissueShare" xlink:title="&lt;TABLE&gt;">
<polygon fill="lightblue" stroke="none" points="906,-170.5 906,-207.5 1025,-207.5 1025,-170.5 906,-170.5"/>
<polygon fill="none" stroke="black" points="906,-170.5 906,-207.5 1025,-207.5 1025,-170.5 906,-170.5"/>
<text text-anchor="start" x="917" y="-186.3" font-family="Arial" font-weight="bold" font-size="14.00">ReissueShare</text>
<polygon fill="none" stroke="black" points="904.5,-170 904.5,-209 1025.5,-209 1025.5,-170 904.5,-170"/>
</a>
</g>
</g>
<!-- ndIndexedSignatureShare&#45;&gt;ndReissueShare -->
<g id="edge14" class="edge"><title>ndIndexedSignatureShare&#45;&gt;ndReissueShare</title>
<path fill="none" stroke="black" d="M879.556,-331.901C898.877,-323.313 917.907,-311.668 932,-296 949.461,-276.587 957.683,-248.01 961.555,-225.493"/>
<polygon fill="black" stroke="black" points="961.59,-225.251 958.502,-218.734 963.329,-213.377 966.418,-219.894 961.59,-225.251"/>
</g>
<!-- ndMintNode -->
<g id="node10" class="node"><title>ndMintNode</title>
<g id="a_node10_15"><a xlink:href="https://github.com/maidsafe/sn_dbc/blob/master/src/mint.rs#:~:text=struct%20MintNode" xlink:title="&lt;TABLE&gt;">
<polygon fill="lightblue" stroke="none" points="848,-87.5 848,-124.5 937,-124.5 937,-87.5 848,-87.5"/>
<polygon fill="none" stroke="black" points="848,-87.5 848,-124.5 937,-124.5 937,-87.5 848,-87.5"/>
<text text-anchor="start" x="859" y="-103.3" font-family="Arial" font-weight="bold" font-size="14.00">MintNode</text>
<polygon fill="none" stroke="black" points="846.5,-87 846.5,-126 937.5,-126 937.5,-87 846.5,-87"/>
</a>
</g>
</g>
<!-- ndIndexedSignatureShare&#45;&gt;ndMintNode -->
<g id="edge15" class="edge"><title>ndIndexedSignatureShare&#45;&gt;ndMintNode</title>
<path fill="none" stroke="black" d="M774.479,-331.781C766.018,-321.694 757.389,-309.138 753,-296 746.381,-276.188 745.092,-268.334 753,-249 772.409,-201.546 816.256,-161.429 849.551,-136.165"/>
<polygon fill="black" stroke="black" points="857.768,-130.067 852.42,-139.64 853.753,-133.047 849.738,-136.027 849.738,-136.027 849.738,-136.027 853.753,-133.047 847.056,-132.413 857.768,-130.067 857.768,-130.067"/>
</g>
<!-- ndIndexedSignatureShare&#45;&gt;ndSpentProofShare -->
<g id="edge16" class="edge"><title>ndIndexedSignatureShare&#45;&gt;ndSpentProofShare</title>
<path fill="none" stroke="black" d="M809.814,-331.937C814.213,-324.19 819.235,-315.347 824.018,-306.925"/>
<polygon fill="black" stroke="black" points="824.17,-306.658 823.654,-299.465 830.096,-296.223 830.611,-303.416 824.17,-306.658"/>
</g>
<!-- ndKeyManager -->
<g id="node4" class="node"><title>ndKeyManager</title>
<g id="a_node4_16"><a xlink:href="https://github.com/maidsafe/sn_dbc/blob/master/src/key_manager.rs#:~:text=trait%20KeyManager" xlink:title="&lt;TABLE&gt;">
<polygon fill="lightgreen" stroke="none" points="272,-336.5 272,-373.5 383,-373.5 383,-336.5 272,-336.5"/>
<polygon fill="none" stroke="black" points="272,-336.5 272,-373.5 383,-373.5 383,-336.5 272,-336.5"/>
<text text-anchor="start" x="283" y="-352.3" font-family="Arial" font-weight="bold" font-size="14.00">KeyManager</text>
<polygon fill="none" stroke="black" points="270.5,-336 270.5,-375 383.5,-375 383.5,-336 270.5,-336"/>
</a>
</g>
</g>
<!-- ndKeyManager&#45;&gt;ndSimpleKeyManager -->
<g id="edge17" class="edge"><title>ndKeyManager&#45;&gt;ndSimpleKeyManager</title>
<path fill="none" stroke="black" stroke-dasharray="5,2" d="M365.162,-331.937C381.209,-322.45 400.038,-311.317 416.934,-301.328"/>
<polygon fill="none" stroke="black" points="418.741,-304.325 425.567,-296.223 415.178,-298.3 418.741,-304.325"/>
</g>
<!-- ndKeyManager&#45;&gt;ndSpentBookNodeMock -->
<g id="edge18" class="edge"><title>ndKeyManager&#45;&gt;ndSpentBookNodeMock</title>
<path fill="none" stroke="black" stroke-dasharray="5,2" d="M327,-331.697C327,-303.546 327,-255.465 327,-223.341"/>
<polygon fill="black" stroke="black" points="327,-213.11 331.5,-223.11 327,-218.11 327,-223.11 327,-223.11 327,-223.11 327,-218.11 322.5,-223.11 327,-213.11 327,-213.11"/>
</g>
<!-- ndSimpleSigner -->
<g id="node5" class="node"><title>ndSimpleSigner</title>
<g id="a_node5_17"><a xlink:href="https://github.com/maidsafe/sn_dbc/blob/master/src/key_manager.rs#:~:text=struct%20SimpleSigner" xlink:title="&lt;TABLE&gt;">
<polygon fill="lightblue" stroke="none" points="551,-336.5 551,-373.5 667,-373.5 667,-336.5 551,-336.5"/>
<polygon fill="none" stroke="black" points="551,-336.5 551,-373.5 667,-373.5 667,-336.5 551,-336.5"/>
<text text-anchor="start" x="562" y="-352.3" font-family="Arial" font-weight="bold" font-size="14.00">SimpleSigner</text>
<polygon fill="none" stroke="black" points="550,-336 550,-375 668,-375 668,-336 550,-336"/>
</a>
</g>
</g>
<!-- ndSimpleSigner&#45;&gt;ndSimpleKeyManager -->
<g id="edge19" class="edge"><title>ndSimpleSigner&#45;&gt;ndSimpleKeyManager</title>
<path fill="none" stroke="black" stroke-dasharray="5,2" d="M568.609,-331.937C552.024,-322.672 532.629,-311.838 515.075,-302.032"/>
<polygon fill="black" stroke="black" points="514.901,-301.935 507.713,-302.501 504.425,-296.082 511.614,-295.516 514.901,-301.935"/>
</g>
<!-- ndSimpleKeyManager&#45;&gt;ndSpentBookNodeMock -->
<g id="edge20" class="edge"><title>ndSimpleKeyManager&#45;&gt;ndSpentBookNodeMock</title>
<path fill="none" stroke="black" stroke-dasharray="5,2" d="M425.838,-248.937C410.38,-239.798 392.34,-229.132 375.934,-219.432"/>
<polygon fill="black" stroke="black" points="375.762,-219.33 368.562,-219.72 365.433,-213.223 372.633,-212.833 375.762,-219.33"/>
</g>
<!-- ndKeys&#45;&gt;ndSimpleKeyManager -->
<g id="edge21" class="edge"><title>ndKeys&#45;&gt;ndSimpleKeyManager</title>
<path fill="none" stroke="black" d="M479.872,-331.937C477.862,-324.539 475.581,-316.14 473.387,-308.063"/>
<polygon fill="black" stroke="black" points="473.317,-307.803 467.884,-303.062 470.172,-296.223 475.605,-300.965 473.317,-307.803"/>
</g>
<!-- ndReissueRequest -->
<g id="node8" class="node"><title>ndReissueRequest</title>
<g id="a_node8_18"><a xlink:href="https://github.com/maidsafe/sn_dbc/blob/master/src/mint.rs#:~:text=struct%20ReissueRequest" xlink:title="&lt;TABLE&gt;">
<polygon fill="lightblue" stroke="none" points="1061,-170.5 1061,-207.5 1196,-207.5 1196,-170.5 1061,-170.5"/>
<polygon fill="none" stroke="black" points="1061,-170.5 1061,-207.5 1196,-207.5 1196,-170.5 1061,-170.5"/>
<text text-anchor="start" x="1072" y="-186.3" font-family="Arial" font-weight="bold" font-size="14.00">ReissueRequest</text>
<polygon fill="none" stroke="black" points="1059.5,-170 1059.5,-209 1196.5,-209 1196.5,-170 1059.5,-170"/>
</a>
</g>
</g>
<!-- ndReissueRequest&#45;&gt;ndMintNode -->
<g id="edge22" class="edge"><title>ndReissueRequest&#45;&gt;ndMintNode</title>
<path fill="none" stroke="black" stroke-dasharray="5,2" d="M1062.26,-165.937C1028.87,-154.476 988.48,-140.614 955.421,-129.267"/>
<polygon fill="black" stroke="black" points="945.859,-125.985 956.778,-124.976 950.588,-127.609 955.317,-129.232 955.317,-129.232 955.317,-129.232 950.588,-127.609 953.856,-133.488 945.859,-125.985 945.859,-125.985"/>
</g>
<!-- ndReissueRequestBuilder -->
<g id="node19" class="node"><title>ndReissueRequestBuilder</title>
<g id="a_node19_19"><a xlink:href="https://github.com/maidsafe/sn_dbc/blob/master/src/builder.rs#:~:text=struct%20ReissueRequestBuilder" xlink:title="&lt;TABLE&gt;">
<polygon fill="lightblue" stroke="none" points="1036,-87.5 1036,-124.5 1221,-124.5 1221,-87.5 1036,-87.5"/>
<polygon fill="none" stroke="black" points="1036,-87.5 1036,-124.5 1221,-124.5 1221,-87.5 1036,-87.5"/>
<text text-anchor="start" x="1047" y="-103.3" font-family="Arial" font-weight="bold" font-size="14.00">ReissueRequestBuilder</text>
<polygon fill="none" stroke="black" points="1034.5,-87 1034.5,-126 1221.5,-126 1221.5,-87 1034.5,-87"/>
</a>
</g>
</g>
<!-- ndReissueRequest&#45;&gt;ndReissueRequestBuilder -->
<g id="edge23" class="edge"><title>ndReissueRequest&#45;&gt;ndReissueRequestBuilder</title>
<path fill="none" stroke="black" d="M1128,-165.937C1128,-158.016 1128,-148.949 1128,-140.357"/>
<polygon fill="black" stroke="black" points="1128,-130.223 1132.5,-140.223 1128,-135.223 1128,-140.223 1128,-140.223 1128,-140.223 1128,-135.223 1123.5,-140.223 1128,-130.223 1128,-130.223"/>
</g>
<!-- ndReissueShare&#45;&gt;ndMintNode -->
<g id="edge24" class="edge"><title>ndReissueShare&#45;&gt;ndMintNode</title>
<path fill="none" stroke="black" d="M944.665,-165.937C936.821,-157.233 927.729,-147.144 919.329,-137.824"/>
<polygon fill="black" stroke="black" points="912.479,-130.223 922.516,-134.639 915.826,-133.937 919.173,-137.651 919.173,-137.651 919.173,-137.651 915.826,-133.937 915.831,-140.664 912.479,-130.223 912.479,-130.223"/>
</g>
<!-- ndDbcBuilder -->
<g id="node20" class="node"><title>ndDbcBuilder</title>
<g id="a_node20_20"><a xlink:href="https://github.com/maidsafe/sn_dbc/blob/master/src/builder.rs#:~:text=struct%20DbcBuilder" xlink:title="&lt;TABLE&gt;">
<polygon fill="lightblue" stroke="none" points="1360,-87.5 1360,-124.5 1461,-124.5 1461,-87.5 1360,-87.5"/>
<polygon fill="none" stroke="black" points="1360,-87.5 1360,-124.5 1461,-124.5 1461,-87.5 1360,-87.5"/>
<text text-anchor="start" x="1371" y="-103.3" font-family="Arial" font-weight="bold" font-size="14.00">DbcBuilder</text>
<polygon fill="none" stroke="black" points="1358.5,-87 1358.5,-126 1461.5,-126 1461.5,-87 1358.5,-87"/>
</a>
</g>
</g>
<!-- ndReissueShare&#45;&gt;ndDbcBuilder -->
<g id="edge25" class="edge"><title>ndReissueShare&#45;&gt;ndDbcBuilder</title>
<path fill="none" stroke="black" stroke-dasharray="5,2" d="M1033.73,-167.947C1036.52,-167.263 1039.28,-166.61 1042,-166 1143.94,-143.1 1263.73,-125.81 1338.27,-116.167"/>
<polygon fill="black" stroke="black" points="1338.38,-116.152 1343.83,-111.422 1350.29,-114.628 1344.84,-119.358 1338.38,-116.152"/>
</g>
<!-- ndDbcContent&#45;&gt;ndDbc -->
<g id="edge26" class="edge"><title>ndDbcContent&#45;&gt;ndDbc</title>
<path fill="none" stroke="black" d="M1549.93,-248.937C1540.45,-240.407 1529.5,-230.547 1519.32,-221.384"/>
<polygon fill="black" stroke="black" points="1519.17,-221.251 1512.03,-220.21 1510.25,-213.223 1517.38,-214.264 1519.17,-221.251"/>
</g>
<!-- ndGenesisMaterial -->
<g id="node12" class="node"><title>ndGenesisMaterial</title>
<g id="a_node12_21"><a xlink:href="https://github.com/maidsafe/sn_dbc/blob/master/src/genesis.rs#:~:text=struct%20GenesisMaterial" xlink:title="&lt;TABLE&gt;">
<polygon fill="lightblue" stroke="none" points="1741,-336.5 1741,-373.5 1876,-373.5 1876,-336.5 1741,-336.5"/>
<polygon fill="none" stroke="black" points="1741,-336.5 1741,-373.5 1876,-373.5 1876,-336.5 1741,-336.5"/>
<text text-anchor="start" x="1752" y="-352.3" font-family="Arial" font-weight="bold" font-size="14.00">GenesisMaterial</text>
<polygon fill="none" stroke="black" points="1739.5,-336 1739.5,-375 1876.5,-375 1876.5,-336 1739.5,-336"/>
</a>
</g>
</g>
<!-- ndPublicKeyBlstMappable&#45;&gt;ndSpentBookNodeMock -->
<g id="edge27" class="edge"><title>ndPublicKeyBlstMappable&#45;&gt;ndSpentBookNodeMock</title>
<path fill="none" stroke="black" d="M165.396,-248.937C192.589,-239.104 224.671,-227.503 253.052,-217.24"/>
<polygon fill="black" stroke="black" points="253.265,-217.163 257.547,-211.361 264.55,-213.082 260.268,-218.884 253.265,-217.163"/>
</g>
<!-- ndBlsHelper -->
<g id="node14" class="node"><title>ndBlsHelper</title>
<g id="a_node14_22"><a xlink:href="https://github.com/maidsafe/sn_dbc/blob/master/src/blst.rs#:~:text=struct%20BlsHelper" xlink:title="&lt;TABLE&gt;">
<polygon fill="lightblue" stroke="none" points="1792,-419.5 1792,-456.5 1882,-456.5 1882,-419.5 1792,-419.5"/>
<polygon fill="none" stroke="black" points="1792,-419.5 1792,-456.5 1882,-456.5 1882,-419.5 1792,-419.5"/>
<text text-anchor="start" x="1803" y="-435.3" font-family="Arial" font-weight="bold" font-size="14.00">BlsHelper</text>
<polygon fill="none" stroke="black" points="1791,-419 1791,-458 1883,-458 1883,-419 1791,-419"/>
</a>
</g>
</g>
<!-- ndOwner -->
<g id="node15" class="node"><title>ndOwner</title>
<g id="a_node15_23"><a xlink:href="https://github.com/maidsafe/sn_dbc/blob/master/src/owner.rs#:~:text=enum%20Owner" xlink:title="&lt;TABLE&gt;">
<polygon fill="yellow" stroke="none" points="1598,-336.5 1598,-373.5 1666,-373.5 1666,-336.5 1598,-336.5"/>
<polygon fill="none" stroke="black" points="1598,-336.5 1598,-373.5 1666,-373.5 1666,-336.5 1598,-336.5"/>
<text text-anchor="start" x="1609" y="-352.3" font-family="Arial" font-weight="bold" font-size="14.00">Owner</text>
<polygon fill="none" stroke="black" points="1597,-336 1597,-375 1667,-375 1667,-336 1597,-336"/>
</a>
</g>
</g>
<!-- ndOwner&#45;&gt;ndDbcContent -->
<g id="edge28" class="edge"><title>ndOwner&#45;&gt;ndDbcContent</title>
<path fill="none" stroke="black" d="M1616.12,-331.937C1610.49,-323.929 1604.03,-314.749 1597.92,-306.074"/>
<polygon fill="black" stroke="black" points="1597.9,-306.037 1591.17,-303.432 1590.99,-296.223 1597.71,-298.828 1597.9,-306.037"/>
</g>
<!-- ndOwnerOnce -->
<g id="node16" class="node"><title>ndOwnerOnce</title>
<g id="a_node16_24"><a xlink:href="https://github.com/maidsafe/sn_dbc/blob/master/src/owner.rs#:~:text=struct%20OwnerOnce" xlink:title="&lt;TABLE&gt;">
<polygon fill="lightblue" stroke="none" points="1651,-419.5 1651,-456.5 1756,-456.5 1756,-419.5 1651,-419.5"/>
<polygon fill="none" stroke="black" points="1651,-419.5 1651,-456.5 1756,-456.5 1756,-419.5 1651,-419.5"/>
<text text-anchor="start" x="1662" y="-435.3" font-family="Arial" font-weight="bold" font-size="14.00">OwnerOnce</text>
<polygon fill="none" stroke="black" points="1649.5,-419 1649.5,-458 1756.5,-458 1756.5,-419 1649.5,-419"/>
</a>
</g>
</g>
<!-- ndOwner&#45;&gt;ndOwnerOnce -->
<g id="edge29" class="edge"><title>ndOwner&#45;&gt;ndOwnerOnce</title>
<path fill="none" stroke="black" stroke-dasharray="5,2" d="M1658.05,-379.223C1665.84,-387.42 1674.25,-396.83 1681.7,-405.663"/>
<polygon fill="black" stroke="black" points="1681.71,-405.676 1688.62,-407.763 1689.35,-414.937 1682.44,-412.85 1681.71,-405.676"/>
</g>
<!-- ndOwner&#45;&gt;ndDbc -->
<g id="edge30" class="edge"><title>ndOwner&#45;&gt;ndDbc</title>
<path fill="none" stroke="black" d="M1643.4,-331.763C1653.13,-308.809 1663.07,-273.363 1646,-249 1619.87,-211.709 1567.41,-198.099 1529.46,-193.182"/>
<polygon fill="black" stroke="black" points="1519.17,-192.013 1529.62,-188.671 1524.14,-192.578 1529.11,-193.142 1529.11,-193.142 1529.11,-193.142 1524.14,-192.578 1528.6,-197.613 1519.17,-192.013 1519.17,-192.013"/>
</g>
<!-- ndOwnerOnce&#45;&gt;ndGenesisMaterial -->
<g id="edge31" class="edge"><title>ndOwnerOnce&#45;&gt;ndGenesisMaterial</title>
<path fill="none" stroke="black" d="M1732.25,-414.937C1743.53,-406.233 1756.61,-396.144 1768.69,-386.824"/>
<polygon fill="black" stroke="black" points="1769.04,-386.553 1771.35,-379.721 1778.54,-379.223 1776.24,-386.055 1769.04,-386.553"/>
</g>
<!-- ndOwnerOnce&#45;&gt;ndOwner -->
<g id="edge32" class="edge"><title>ndOwnerOnce&#45;&gt;ndOwner</title>
<path fill="none" stroke="black" stroke-dasharray="5,2" d="M1677.1,-414.937C1668.9,-406.32 1660.01,-396.346 1652.26,-387.104"/>
<polygon fill="black" stroke="black" points="1645.78,-379.223 1655.61,-384.092 1648.96,-383.086 1652.13,-386.949 1652.13,-386.949 1652.13,-386.949 1648.96,-383.086 1648.65,-389.806 1645.78,-379.223 1645.78,-379.223"/>
</g>
<!-- ndTransactionBuilder -->
<g id="node18" class="node"><title>ndTransactionBuilder</title>
<g id="a_node18_25"><a xlink:href="https://github.com/maidsafe/sn_dbc/blob/master/src/builder.rs#:~:text=struct%20TransactionBuilder" xlink:title="&lt;TABLE&gt;">
<polygon fill="lightblue" stroke="none" points="1332,-4.5 1332,-41.5 1488,-41.5 1488,-4.5 1332,-4.5"/>
<polygon fill="none" stroke="black" points="1332,-4.5 1332,-41.5 1488,-41.5 1488,-4.5 1332,-4.5"/>
<text text-anchor="start" x="1343" y="-20.3" font-family="Arial" font-weight="bold" font-size="14.00">TransactionBuilder</text>
<polygon fill="none" stroke="black" points="1331,-4 1331,-43 1489,-43 1489,-4 1331,-4"/>
</a>
</g>
</g>
<!-- ndOwnerOnce&#45;&gt;ndTransactionBuilder -->
<g id="edge33" class="edge"><title>ndOwnerOnce&#45;&gt;ndTransactionBuilder</title>
<path fill="none" stroke="black" stroke-dasharray="5,2" d="M1764.56,-417.929C1767.75,-416.934 1770.91,-415.953 1774,-415 1827.21,-398.589 1856.92,-420.538 1894,-379 1925.73,-343.458 1913,-321.143 1913,-273.5 1913,-273.5 1913,-273.5 1913,-188.5 1913,-104.072 1653.61,-56.3287 1507.37,-36.1214"/>
<polygon fill="black" stroke="black" points="1497.04,-34.7139 1507.56,-31.6054 1502,-35.389 1506.95,-36.0642 1506.95,-36.0642 1506.95,-36.0642 1502,-35.389 1506.34,-40.523 1497.04,-34.7139 1497.04,-34.7139"/>
</g>
<!-- ndOwnerOnce&#45;&gt;ndDbcBuilder -->
<g id="edge34" class="edge"><title>ndOwnerOnce&#45;&gt;ndDbcBuilder</title>
<path fill="none" stroke="black" d="M1704.05,-414.808C1704.65,-376.808 1700.8,-299.509 1664,-249 1618.81,-186.972 1537.71,-148.712 1479.29,-127.866"/>
<polygon fill="black" stroke="black" points="1469.75,-124.545 1480.68,-123.584 1474.47,-126.19 1479.2,-127.834 1479.2,-127.834 1479.2,-127.834 1474.47,-126.19 1477.72,-132.084 1469.75,-124.545 1469.75,-124.545"/>
</g>
<!-- ndDbc&#45;&gt;ndTransactionBuilder -->
<g id="edge35" class="edge"><title>ndDbc&#45;&gt;ndTransactionBuilder</title>
<path fill="none" stroke="black" stroke-dasharray="5,2" d="M1488.36,-165.784C1490.58,-143.484 1491.04,-109.11 1478,-83 1472.45,-71.8984 1463.77,-62.0399 1454.44,-53.7262"/>
<polygon fill="black" stroke="black" points="1446.51,-47.1127 1457.07,-50.0595 1450.35,-50.3144 1454.19,-53.516 1454.19,-53.516 1454.19,-53.516 1450.35,-50.3144 1451.31,-56.9725 1446.51,-47.1127 1446.51,-47.1127"/>
</g>
<!-- ndDbc&#45;&gt;ndDbcBuilder -->
<g id="edge36" class="edge"><title>ndDbc&#45;&gt;ndDbcBuilder</title>
<path fill="none" stroke="black" d="M1464.11,-165.937C1456.05,-157.233 1446.71,-147.144 1438.08,-137.824"/>
<polygon fill="black" stroke="black" points="1431.04,-130.223 1441.14,-134.503 1434.44,-133.892 1437.83,-137.561 1437.83,-137.561 1437.83,-137.561 1434.44,-133.892 1434.53,-140.618 1431.04,-130.223 1431.04,-130.223"/>
</g>
<!-- ndReissueRequestBuilder&#45;&gt;ndTransactionBuilder -->
<g id="edge37" class="edge"><title>ndReissueRequestBuilder&#45;&gt;ndTransactionBuilder</title>
<path fill="none" stroke="black" d="M1206.55,-82.937C1242.31,-72.6669 1284.78,-60.4684 1321.64,-49.8799"/>
<polygon fill="black" stroke="black" points="1331.38,-47.0824 1323.01,-54.1683 1326.57,-48.4628 1321.77,-49.8431 1321.77,-49.8431 1321.77,-49.8431 1326.57,-48.4628 1320.53,-45.518 1331.38,-47.0824 1331.38,-47.0824"/>
</g>
<!-- ndDbcBuilder&#45;&gt;ndTransactionBuilder -->
<g id="edge38" class="edge"><title>ndDbcBuilder&#45;&gt;ndTransactionBuilder</title>
<path fill="none" stroke="black" d="M1410,-82.937C1410,-75.0164 1410,-65.9488 1410,-57.3574"/>
<polygon fill="black" stroke="black" points="1410,-47.2229 1414.5,-57.2229 1410,-52.2229 1410,-57.2229 1410,-57.2229 1410,-57.2229 1410,-52.2229 1405.5,-57.223 1410,-47.2229 1410,-47.2229"/>
</g>
<!-- ndSpentProofContent&#45;&gt;ndSpentProofShare -->
<g id="edge39" class="edge"><title>ndSpentProofContent&#45;&gt;ndSpentProofShare</title>
<path fill="none" stroke="black" d="M987.289,-331.937C963.333,-322.235 935.129,-310.812 910.04,-300.651"/>
<polygon fill="black" stroke="black" points="909.881,-300.587 902.819,-302.042 898.759,-296.082 905.822,-294.627 909.881,-300.587"/>
</g>
<!-- ndSpentProofContent&#45;&gt;ndSpentProof -->
<g id="edge40" class="edge"><title>ndSpentProofContent&#45;&gt;ndSpentProof</title>
<path fill="none" stroke="black" d="M1042.16,-331.937C1041.89,-324.626 1041.59,-316.337 1041.29,-308.348"/>
<polygon fill="black" stroke="black" points="1041.29,-308.215 1037.07,-302.367 1040.84,-296.223 1045.06,-302.071 1041.29,-308.215"/>
</g>
<!-- ndSpentProofShare&#45;&gt;ndMintNode -->
<g id="edge41" class="edge"><title>ndSpentProofShare&#45;&gt;ndMintNode</title>
<path fill="none" stroke="black" d="M842.337,-248.599C842.406,-226.762 844.359,-193.257 854,-166 857.357,-156.509 862.541,-147.014 868.01,-138.518"/>
<polygon fill="black" stroke="black" points="873.75,-130.067 871.854,-140.868 870.94,-134.204 868.131,-138.34 868.131,-138.34 868.131,-138.34 870.94,-134.204 864.408,-135.812 873.75,-130.067 873.75,-130.067"/>
</g>
<!-- ndSpentProofShare&#45;&gt;ndReissueRequestBuilder -->
<g id="edge42" class="edge"><title>ndSpentProofShare&#45;&gt;ndReissueRequestBuilder</title>
<path fill="none" stroke="black" stroke-dasharray="5,2" d="M846.375,-248.607C851.155,-224.49 862.253,-187.138 887,-166 906.86,-149.037 962.025,-135.013 1014.57,-124.952"/>
<polygon fill="black" stroke="black" points="1014.64,-124.94 1019.8,-119.907 1026.43,-122.738 1021.27,-127.771 1014.64,-124.94"/>
</g>
<!-- ndSpentProofShare&#45;&gt;ndSpentBookNodeMock -->
<g id="edge43" class="edge"><title>ndSpentProofShare&#45;&gt;ndSpentBookNodeMock</title>
<path fill="none" stroke="black" d="M762.375,-258.844C673.724,-244.928 530.921,-222.511 433.204,-207.171"/>
<polygon fill="black" stroke="black" points="423.299,-205.617 433.876,-202.722 428.239,-206.392 433.178,-207.168 433.178,-207.168 433.178,-207.168 428.239,-206.392 432.48,-211.613 423.299,-205.617 423.299,-205.617"/>
</g>
<!-- ndSpentProof&#45;&gt;ndReissueRequest -->
<g id="edge44" class="edge"><title>ndSpentProof&#45;&gt;ndReissueRequest</title>
<path fill="none" stroke="black" d="M1064.51,-248.937C1073.78,-240.407 1084.49,-230.547 1094.45,-221.384"/>
<polygon fill="black" stroke="black" points="1094.48,-221.35 1096.19,-214.343 1103.31,-213.223 1101.61,-220.229 1094.48,-221.35"/>
</g>
<!-- ndSpentProof&#45;&gt;ndReissueShare -->
<g id="edge45" class="edge"><title>ndSpentProof&#45;&gt;ndReissueShare</title>
<path fill="none" stroke="black" d="M1019.11,-248.937C1011.45,-240.668 1002.64,-231.149 994.377,-222.227"/>
<polygon fill="black" stroke="black" points="994.193,-222.028 987.181,-220.343 986.04,-213.223 993.051,-214.908 994.193,-222.028"/>
</g>
<!-- ndSpentProof&#45;&gt;ndDbc -->
<g id="edge46" class="edge"><title>ndSpentProof&#45;&gt;ndDbc</title>
<path fill="none" stroke="black" d="M1099.54,-251.179C1102.39,-250.403 1105.22,-249.671 1108,-249 1225.53,-220.643 1367.13,-202.982 1438.72,-195.182"/>
<polygon fill="black" stroke="black" points="1438.91,-195.162 1444.45,-190.545 1450.84,-193.883 1445.3,-198.5 1438.91,-195.162"/>
</g>
<!-- ndAmountSecrets&#45;&gt;ndDbc -->
<g id="edge47" class="edge"><title>ndAmountSecrets&#45;&gt;ndDbc</title>
<path fill="none" stroke="black" d="M1411.41,-248.937C1422.81,-239.885 1436.1,-229.335 1448.22,-219.709"/>
<polygon fill="black" stroke="black" points="1456.39,-213.223 1451.35,-222.966 1452.47,-216.332 1448.55,-219.442 1448.55,-219.442 1448.55,-219.442 1452.47,-216.332 1445.76,-215.918 1456.39,-213.223 1456.39,-213.223"/>
</g>
<!-- ndAmountSecrets&#45;&gt;ndTransactionBuilder -->
<g id="edge48" class="edge"><title>ndAmountSecrets&#45;&gt;ndTransactionBuilder</title>
<path fill="none" stroke="black" stroke-dasharray="5,2" d="M1368.92,-248.737C1348.29,-212.263 1315,-139.13 1341,-83 1346.21,-71.7554 1354.76,-61.8849 1364.1,-53.6097"/>
<polygon fill="black" stroke="black" points="1372.08,-47.0385 1367.22,-56.8704 1368.22,-50.2179 1364.36,-53.3974 1364.36,-53.3974 1364.36,-53.3974 1368.22,-50.2179 1361.5,-49.9243 1372.08,-47.0385 1372.08,-47.0385"/>
</g>
<!-- ndAmountSecrets&#45;&gt;ndDbcBuilder -->
<g id="edge49" class="edge"><title>ndAmountSecrets&#45;&gt;ndDbcBuilder</title>
<path fill="none" stroke="black" d="M1386.75,-248.697C1391.39,-220.546 1399.3,-172.465 1404.59,-140.341"/>
<polygon fill="black" stroke="black" points="1406.28,-130.11 1409.09,-140.708 1405.47,-135.043 1404.65,-139.977 1404.65,-139.977 1404.65,-139.977 1405.47,-135.043 1400.21,-139.246 1406.28,-130.11 1406.28,-130.11"/>
</g>
</g>
</svg>
