<?xml version="1.0" encoding="UTF-8" standalone="no"?>
<!DOCTYPE svg PUBLIC "-//W3C//DTD SVG 1.1//EN"
 "http://www.w3.org/Graphics/SVG/1.1/DTD/svg11.dtd">
<!-- Generated by graphviz version 2.38.0 (20140413.2041)
 -->
<!-- Title: ml Pages: 1 -->
<svg width="2499pt" height="1412pt"
 viewBox="0.00 0.00 2498.50 1412.00" xmlns="http://www.w3.org/2000/svg" xmlns:xlink="http://www.w3.org/1999/xlink">
<g id="graph0" class="graph" transform="scale(1 1) rotate(0) translate(4 1408)">
<title>ml</title>
<polygon fill="white" stroke="none" points="-4,4 -4,-1408 2494.5,-1408 2494.5,4 -4,4"/>
<!-- ndDbcHelper -->
<g id="node1" class="node"><title>ndDbcHelper</title>
<polygon fill="lightblue" stroke="none" points="9.5,-488 9.5,-525 104.5,-525 104.5,-488 9.5,-488"/>
<polygon fill="none" stroke="black" points="9.5,-488 9.5,-525 104.5,-525 104.5,-488 9.5,-488"/>
<text text-anchor="start" x="20.5" y="-503.8" font-family="Arial" font-weight="bold" font-size="14.00">DbcHelper</text>
<polygon fill="none" stroke="black" points="8,-487.5 8,-526.5 105,-526.5 105,-487.5 8,-487.5"/>
</g>
<!-- ndError -->
<g id="node2" class="node"><title>ndError</title>
<polygon fill="yellow" stroke="none" points="72.5,-1361.5 72.5,-1398.5 435.5,-1398.5 435.5,-1361.5 72.5,-1361.5"/>
<polygon fill="none" stroke="black" points="72.5,-1361.5 72.5,-1398.5 435.5,-1398.5 435.5,-1361.5 72.5,-1361.5"/>
<text text-anchor="start" x="235.5" y="-1377.3" font-family="Arial" font-weight="bold" font-size="14.00">Error</text>
<polygon fill="white" stroke="none" points="72.5,-919.5 72.5,-1361.5 435.5,-1361.5 435.5,-919.5 72.5,-919.5"/>
<polygon fill="none" stroke="black" points="72.5,-919.5 72.5,-1361.5 435.5,-1361.5 435.5,-919.5 72.5,-919.5"/>
<text text-anchor="start" x="83.5" y="-1339.3" font-family="Arial" font-size="14.00">Signing(String)</text>
<text text-anchor="start" x="83.5" y="-1324.3" font-family="Arial" font-size="14.00">UnknownInput</text>
<text text-anchor="start" x="83.5" y="-1309.3" font-family="Arial" font-size="14.00">FailedSignature</text>
<text text-anchor="start" x="83.5" y="-1294.3" font-family="Arial" font-size="14.00">UnrecognisedAuthority</text>
<text text-anchor="start" x="83.5" y="-1279.3" font-family="Arial" font-size="14.00">MissingReissueTransaction</text>
<text text-anchor="start" x="83.5" y="-1264.3" font-family="Arial" font-size="14.00">MissingSignatureForInput</text>
<text text-anchor="start" x="83.5" y="-1249.3" font-family="Arial" font-size="14.00">MissingSpentProof(SpendKey)</text>
<text text-anchor="start" x="83.5" y="-1234.3" font-family="Arial" font-size="14.00">InvalidSpentProofSignature(SpendKey)</text>
<text text-anchor="start" x="83.5" y="-1219.3" font-family="Arial" font-size="14.00">DbcReissueRequestDoesNotBalance</text>
<text text-anchor="start" x="83.5" y="-1204.3" font-family="Arial" font-size="14.00">TransactionMustHaveAnInput</text>
<text text-anchor="start" x="83.5" y="-1189.3" font-family="Arial" font-size="14.00">DbcContentNotPresentInTransactionOutput</text>
<text text-anchor="start" x="83.5" y="-1174.3" font-family="Arial" font-size="14.00">DbcContentParentsDifferentFromTransactionInputs</text>
<text text-anchor="start" x="83.5" y="-1159.3" font-family="Arial" font-size="14.00">ReissueRequestPublicKeySetMismatch</text>
<text text-anchor="start" x="83.5" y="-1144.3" font-family="Arial" font-size="14.00">ReissueRequestMissingSpentProofShare(SpendKey)</text>
<text text-anchor="start" x="83.5" y="-1129.3" font-family="Arial" font-size="14.00">ReissueSharePublicKeySetMismatch</text>
<text text-anchor="start" x="83.5" y="-1114.3" font-family="Arial" font-size="14.00">ReissueShareMintNodeSignaturesLenMismatch</text>
<text text-anchor="start" x="83.5" y="-1099.3" font-family="Arial" font-size="14.00">ReissueShareMintNodeSignatureNotFoundForInput</text>
<text text-anchor="start" x="83.5" y="-1084.3" font-family="Arial" font-size="14.00">ReissueShareDbcTransactionMismatch</text>
<text text-anchor="start" x="83.5" y="-1069.3" font-family="Arial" font-size="14.00">NoReissueShares</text>
<text text-anchor="start" x="83.5" y="-1054.3" font-family="Arial" font-size="14.00">RangeProof(bulletproofs::ProofError)</text>
<text text-anchor="start" x="83.5" y="-1039.3" font-family="Arial" font-size="14.00">DerivedOwnerKeyDoesNotMatch</text>
<text text-anchor="start" x="83.5" y="-1024.3" font-family="Arial" font-size="14.00">DecryptionBySharesFailed(blsttc::error::Error)</text>
<text text-anchor="start" x="83.5" y="-1009.3" font-family="Arial" font-size="14.00">DecryptionBySecretKeyFailed</text>
<text text-anchor="start" x="83.5" y="-994.3" font-family="Arial" font-size="14.00">AmountSecretsBytesInvalid</text>
<text text-anchor="start" x="83.5" y="-979.3" font-family="Arial" font-size="14.00">AmountCommitmentInvalid</text>
<text text-anchor="start" x="83.5" y="-964.3" font-family="Arial" font-size="14.00">Io(io::Error)</text>
<text text-anchor="start" x="83.5" y="-949.3" font-family="Arial" font-size="14.00">JsonSerialisation(serde_json::Error)</text>
<text text-anchor="start" x="83.5" y="-934.3" font-family="Arial" font-size="14.00">Infallible(std::convert::Infallible)</text>
<polygon fill="none" stroke="black" points="71,-919 71,-1400 436,-1400 436,-919 71,-919"/>
</g>
<!-- ndError&#45;&gt;ndDbcHelper -->
<g id="edge1" class="edge"><title>ndError&#45;&gt;ndDbcHelper</title>
<path fill="none" stroke="black" d="M96.6106,-914.662C91.7279,-902.816 87.314,-890.899 83.5,-879 45.1268,-759.286 49.5,-607.117 53.7986,-541.071"/>
<polygon fill="black" stroke="black" points="54.5084,-530.862 58.3039,-541.15 54.1615,-535.85 53.8147,-540.838 53.8147,-540.838 53.8147,-540.838 54.1615,-535.85 49.3255,-540.525 54.5084,-530.862 54.5084,-530.862"/>
</g>
<!-- ndAmountSecrets -->
<g id="node12" class="node"><title>ndAmountSecrets</title>
<polygon fill="lightblue" stroke="none" points="102.5,-836.5 102.5,-873.5 277.5,-873.5 277.5,-836.5 102.5,-836.5"/>
<polygon fill="none" stroke="black" points="102.5,-836.5 102.5,-873.5 277.5,-873.5 277.5,-836.5 102.5,-836.5"/>
<text text-anchor="start" x="136" y="-852.3" font-family="Arial" font-weight="bold" font-size="14.00">AmountSecrets</text>
<polygon fill="white" stroke="none" points="102.5,-784.5 102.5,-836.5 277.5,-836.5 277.5,-784.5 102.5,-784.5"/>
<polygon fill="none" stroke="black" points="102.5,-784.5 102.5,-836.5 277.5,-836.5 277.5,-784.5 102.5,-784.5"/>
<text text-anchor="start" x="113.5" y="-814.3" font-family="Arial" font-size="14.00">+ amount: Amount</text>
<text text-anchor="start" x="113.5" y="-799.3" font-family="Arial" font-size="14.00">+ blinding_factor: Scalar</text>
<polygon fill="none" stroke="black" points="101,-784 101,-875 278,-875 278,-784 101,-784"/>
</g>
<!-- ndError&#45;&gt;ndAmountSecrets -->
<g id="edge2" class="edge"><title>ndError&#45;&gt;ndAmountSecrets</title>
<path fill="none" stroke="black" d="M205.982,-914.968C204.195,-905.813 202.494,-897.094 200.91,-888.975"/>
<polygon fill="black" stroke="black" points="198.968,-879.024 205.3,-887.977 199.926,-883.932 200.883,-888.839 200.883,-888.839 200.883,-888.839 199.926,-883.932 196.467,-889.701 198.968,-879.024 198.968,-879.024"/>
</g>
<!-- ndDbcContent -->
<g id="node13" class="node"><title>ndDbcContent</title>
<polygon fill="lightblue" stroke="none" points="269.5,-702 269.5,-739 526.5,-739 526.5,-702 269.5,-702"/>
<polygon fill="none" stroke="black" points="269.5,-702 269.5,-739 526.5,-739 526.5,-702 269.5,-702"/>
<text text-anchor="start" x="356.5" y="-717.8" font-family="Arial" font-weight="bold" font-size="14.00">DbcContent</text>
<polygon fill="white" stroke="none" points="269.5,-605 269.5,-702 526.5,-702 526.5,-605 269.5,-605"/>
<polygon fill="none" stroke="black" points="269.5,-605 269.5,-702 526.5,-702 526.5,-605 269.5,-605"/>
<text text-anchor="start" x="280.5" y="-679.8" font-family="Arial" font-size="14.00">+ parents: BTreeSet&lt;SpendKey&gt;</text>
<text text-anchor="start" x="280.5" y="-664.8" font-family="Arial" font-size="14.00">+ amount_secrets_cipher: Ciphertext</text>
<text text-anchor="start" x="280.5" y="-649.8" font-family="Arial" font-size="14.00">+ commitment: CompressedRistretto</text>
<text text-anchor="start" x="280.5" y="-634.8" font-family="Arial" font-size="14.00">+ range_proof_bytes: Vec&lt;u8&gt;</text>
<text text-anchor="start" x="280.5" y="-619.8" font-family="Arial" font-size="14.00">+ owner: PublicKey</text>
<polygon fill="none" stroke="black" points="268,-604 268,-740 527,-740 527,-604 268,-604"/>
</g>
<!-- ndError&#45;&gt;ndDbcContent -->
<g id="edge3" class="edge"><title>ndError&#45;&gt;ndDbcContent</title>
<path fill="none" stroke="black" d="M325.816,-914.683C343.059,-856.549 360.278,-798.496 373.516,-753.861"/>
<polygon fill="black" stroke="black" points="376.365,-744.258 377.835,-755.125 374.943,-749.052 373.521,-753.845 373.521,-753.845 373.521,-753.845 374.943,-749.052 369.207,-752.566 376.365,-744.258 376.365,-744.258"/>
</g>
<!-- ndDbc -->
<g id="node15" class="node"><title>ndDbc</title>
<polygon fill="lightblue" stroke="none" points="526.5,-522 526.5,-559 966.5,-559 966.5,-522 526.5,-522"/>
<polygon fill="none" stroke="black" points="526.5,-522 526.5,-559 966.5,-559 966.5,-522 526.5,-522"/>
<text text-anchor="start" x="732.5" y="-537.8" font-family="Arial" font-weight="bold" font-size="14.00">Dbc</text>
<polygon fill="white" stroke="none" points="526.5,-455 526.5,-522 966.5,-522 966.5,-455 526.5,-455"/>
<polygon fill="none" stroke="black" points="526.5,-455 526.5,-522 966.5,-522 966.5,-455 526.5,-455"/>
<text text-anchor="start" x="537.5" y="-499.8" font-family="Arial" font-size="14.00">+ content: DbcContent</text>
<text text-anchor="start" x="537.5" y="-484.8" font-family="Arial" font-size="14.00">+ transaction: DbcTransaction</text>
<text text-anchor="start" x="537.5" y="-469.8" font-family="Arial" font-size="14.00">+ transaction_sigs: BTreeMap&lt;SpendKey, (PublicKey, Signature)&gt;</text>
<polygon fill="none" stroke="black" points="525.5,-454 525.5,-560 967.5,-560 967.5,-454 525.5,-454"/>
</g>
<!-- ndError&#45;&gt;ndDbc -->
<g id="edge4" class="edge"><title>ndError&#45;&gt;ndDbc</title>
<path fill="none" stroke="black" d="M438.127,-914.89C531.551,-791.619 637.653,-651.621 697.881,-572.152"/>
<polygon fill="black" stroke="black" points="703.922,-564.181 701.468,-574.869 700.901,-568.166 697.881,-572.151 697.881,-572.151 697.881,-572.151 700.901,-568.166 694.295,-569.433 703.922,-564.181 703.922,-564.181"/>
</g>
<!-- ndNodeSignature -->
<g id="node3" class="node"><title>ndNodeSignature</title>
<polygon fill="lightblue" stroke="none" points="2157.5,-364 2157.5,-401 2312.5,-401 2312.5,-364 2157.5,-364"/>
<polygon fill="none" stroke="black" points="2157.5,-364 2157.5,-401 2312.5,-401 2312.5,-364 2157.5,-364"/>
<text text-anchor="start" x="2183" y="-379.8" font-family="Arial" font-weight="bold" font-size="14.00">NodeSignature</text>
<polygon fill="white" stroke="none" points="2157.5,-312 2157.5,-364 2312.5,-364 2312.5,-312 2157.5,-312"/>
<polygon fill="none" stroke="black" points="2157.5,-312 2157.5,-364 2312.5,-364 2312.5,-312 2157.5,-312"/>
<text text-anchor="start" x="2168.5" y="-341.8" font-family="Arial" font-size="14.00">&#45; index: u64</text>
<text text-anchor="start" x="2168.5" y="-326.8" font-family="Arial" font-size="14.00">&#45; sig: SignatureShare</text>
<polygon fill="none" stroke="black" points="2156,-311.5 2156,-402.5 2313,-402.5 2313,-311.5 2156,-311.5"/>
</g>
<!-- ndSimpleKeyManager -->
<g id="node6" class="node"><title>ndSimpleKeyManager</title>
<polygon fill="lightblue" stroke="none" points="1369.5,-214.5 1369.5,-251.5 1551.5,-251.5 1551.5,-214.5 1369.5,-214.5"/>
<polygon fill="none" stroke="black" points="1369.5,-214.5 1369.5,-251.5 1551.5,-251.5 1551.5,-214.5 1369.5,-214.5"/>
<text text-anchor="start" x="1392.5" y="-230.3" font-family="Arial" font-weight="bold" font-size="14.00">SimpleKeyManager</text>
<polygon fill="white" stroke="none" points="1369.5,-147.5 1369.5,-214.5 1551.5,-214.5 1551.5,-147.5 1369.5,-147.5"/>
<polygon fill="none" stroke="black" points="1369.5,-147.5 1369.5,-214.5 1551.5,-214.5 1551.5,-147.5 1369.5,-147.5"/>
<text text-anchor="start" x="1380.5" y="-192.3" font-family="Arial" font-size="14.00">&#45; signer: SimpleSigner</text>
<text text-anchor="start" x="1380.5" y="-177.3" font-family="Arial" font-size="14.00">&#45; genesis_key: PublicKey</text>
<text text-anchor="start" x="1380.5" y="-162.3" font-family="Arial" font-size="14.00">&#45; cache: Keys</text>
<polygon fill="none" stroke="black" points="1368.5,-146.5 1368.5,-252.5 1552.5,-252.5 1552.5,-146.5 1368.5,-146.5"/>
</g>
<!-- ndNodeSignature&#45;&gt;ndSimpleKeyManager -->
<g id="edge5" class="edge"><title>ndNodeSignature&#45;&gt;ndSimpleKeyManager</title>
<path fill="none" stroke="black" d="M2158.1,-307.414C2151.62,-304.546 2145.05,-302.014 2138.5,-300 1915.8,-231.502 1842.42,-316.839 1615.5,-264 1600.63,-260.538 1585.34,-255.825 1570.43,-250.52"/>
<polygon fill="black" stroke="black" points="1560.69,-246.956 1571.63,-246.168 1565.39,-248.674 1570.08,-250.393 1570.08,-250.393 1570.08,-250.393 1565.39,-248.674 1568.54,-254.619 1560.69,-246.956 1560.69,-246.956"/>
</g>
<!-- ndGenesisDbcShare -->
<g id="node7" class="node"><title>ndGenesisDbcShare</title>
<polygon fill="lightblue" stroke="none" points="2156.5,-221.5 2156.5,-258.5 2388.5,-258.5 2388.5,-221.5 2156.5,-221.5"/>
<polygon fill="none" stroke="black" points="2156.5,-221.5 2156.5,-258.5 2388.5,-258.5 2388.5,-221.5 2156.5,-221.5"/>
<text text-anchor="start" x="2209" y="-237.3" font-family="Arial" font-weight="bold" font-size="14.00">GenesisDbcShare</text>
<polygon fill="white" stroke="none" points="2156.5,-139.5 2156.5,-221.5 2388.5,-221.5 2388.5,-139.5 2156.5,-139.5"/>
<polygon fill="none" stroke="black" points="2156.5,-139.5 2156.5,-221.5 2388.5,-221.5 2388.5,-139.5 2156.5,-139.5"/>
<text text-anchor="start" x="2167.5" y="-199.3" font-family="Arial" font-size="14.00">+ dbc_content: DbcContent</text>
<text text-anchor="start" x="2167.5" y="-184.3" font-family="Arial" font-size="14.00">+ transaction: DbcTransaction</text>
<text text-anchor="start" x="2167.5" y="-169.3" font-family="Arial" font-size="14.00">+ public_key_set: PublicKeySet</text>
<text text-anchor="start" x="2167.5" y="-154.3" font-family="Arial" font-size="14.00">+ transaction_sig: NodeSignature</text>
<polygon fill="none" stroke="black" points="2155.5,-139 2155.5,-260 2389.5,-260 2389.5,-139 2155.5,-139"/>
</g>
<!-- ndNodeSignature&#45;&gt;ndGenesisDbcShare -->
<g id="edge6" class="edge"><title>ndNodeSignature&#45;&gt;ndGenesisDbcShare</title>
<path fill="none" stroke="black" d="M2246.42,-307.225C2248.84,-297.324 2251.44,-286.691 2254.02,-276.112"/>
<polygon fill="black" stroke="black" points="2254.08,-275.888 2251.62,-269.11 2256.93,-264.231 2259.39,-271.009 2254.08,-275.888"/>
</g>
<!-- ndMintNode -->
<g id="node11" class="node"><title>ndMintNode</title>
<polygon fill="lightblue" stroke="none" points="2051.5,-49.5 2051.5,-86.5 2188.5,-86.5 2188.5,-49.5 2051.5,-49.5"/>
<polygon fill="none" stroke="black" points="2051.5,-49.5 2051.5,-86.5 2188.5,-86.5 2188.5,-49.5 2051.5,-49.5"/>
<text text-anchor="start" x="2086.5" y="-65.3" font-family="Arial" font-weight="bold" font-size="14.00">MintNode</text>
<polygon fill="white" stroke="none" points="2051.5,-12.5 2051.5,-49.5 2188.5,-49.5 2188.5,-12.5 2051.5,-12.5"/>
<polygon fill="none" stroke="black" points="2051.5,-12.5 2051.5,-49.5 2188.5,-49.5 2188.5,-12.5 2051.5,-12.5"/>
<text text-anchor="start" x="2062.5" y="-27.3" font-family="Arial" font-size="14.00">+ key_manager: K</text>
<polygon fill="none" stroke="black" points="2050,-11.5 2050,-87.5 2189,-87.5 2189,-11.5 2050,-11.5"/>
</g>
<!-- ndNodeSignature&#45;&gt;ndMintNode -->
<g id="edge7" class="edge"><title>ndNodeSignature&#45;&gt;ndMintNode</title>
<path fill="none" stroke="black" d="M2170.62,-307.464C2157.95,-294.73 2146.19,-280.023 2138.5,-264 2113.91,-212.807 2111.89,-146.776 2114.26,-101.791"/>
<polygon fill="black" stroke="black" points="2114.89,-91.6787 2118.76,-101.938 2114.58,-96.6692 2114.27,-101.66 2114.27,-101.66 2114.27,-101.66 2114.58,-96.6692 2109.78,-101.381 2114.89,-91.6787 2114.89,-91.6787"/>
</g>
<!-- ndSpentProofShare -->
<g id="node20" class="node"><title>ndSpentProofShare</title>
<polygon fill="lightblue" stroke="none" points="1633.5,-214.5 1633.5,-251.5 1907.5,-251.5 1907.5,-214.5 1633.5,-214.5"/>
<polygon fill="none" stroke="black" points="1633.5,-214.5 1633.5,-251.5 1907.5,-251.5 1907.5,-214.5 1633.5,-214.5"/>
<text text-anchor="start" x="1710" y="-230.3" font-family="Arial" font-weight="bold" font-size="14.00">SpentProofShare</text>
<polygon fill="white" stroke="none" points="1633.5,-147.5 1633.5,-214.5 1907.5,-214.5 1907.5,-147.5 1633.5,-147.5"/>
<polygon fill="none" stroke="black" points="1633.5,-147.5 1633.5,-214.5 1907.5,-214.5 1907.5,-147.5 1633.5,-147.5"/>
<text text-anchor="start" x="1644.5" y="-192.3" font-family="Arial" font-size="14.00">+ spent_sig: Signature</text>
<text text-anchor="start" x="1644.5" y="-177.3" font-family="Arial" font-size="14.00">+ spentbook_pks: PublicKeySet</text>
<text text-anchor="start" x="1644.5" y="-162.3" font-family="Arial" font-size="14.00">+ spentbook_sig_share: NodeSignature</text>
<polygon fill="none" stroke="black" points="1632.5,-146.5 1632.5,-252.5 1908.5,-252.5 1908.5,-146.5 1632.5,-146.5"/>
</g>
<!-- ndNodeSignature&#45;&gt;ndSpentProofShare -->
<g id="edge8" class="edge"><title>ndNodeSignature&#45;&gt;ndSpentProofShare</title>
<path fill="none" stroke="black" d="M2154.9,-307.48C2149.43,-304.795 2143.93,-302.27 2138.5,-300 2071.68,-272.059 1994.75,-249.825 1928.55,-233.523"/>
<polygon fill="black" stroke="black" points="1928.41,-233.489 1921.63,-235.957 1916.75,-230.651 1923.53,-228.184 1928.41,-233.489"/>
</g>
<!-- ndKeyManager -->
<g id="node4" class="node"><title>ndKeyManager</title>
<polygon fill="lightgreen" stroke="none" points="1405.5,-338 1405.5,-375 1516.5,-375 1516.5,-338 1405.5,-338"/>
<polygon fill="none" stroke="black" points="1405.5,-338 1405.5,-375 1516.5,-375 1516.5,-338 1405.5,-338"/>
<text text-anchor="start" x="1416.5" y="-353.8" font-family="Arial" font-weight="bold" font-size="14.00">KeyManager</text>
<polygon fill="none" stroke="black" points="1404,-337.5 1404,-376.5 1517,-376.5 1517,-337.5 1404,-337.5"/>
</g>
<!-- ndKeyManager&#45;&gt;ndSimpleKeyManager -->
<g id="edge9" class="edge"><title>ndKeyManager&#45;&gt;ndSimpleKeyManager</title>
<path fill="none" stroke="black" stroke-dasharray="5,2" d="M1460.5,-333.389C1460.5,-315.847 1460.5,-290.591 1460.5,-266.797"/>
<polygon fill="none" stroke="black" points="1464,-266.716 1460.5,-256.716 1457,-266.716 1464,-266.716"/>
</g>
<!-- ndSimpleSigner -->
<g id="node5" class="node"><title>ndSimpleSigner</title>
<polygon fill="lightblue" stroke="none" points="703.5,-364 703.5,-401 1097.5,-401 1097.5,-364 703.5,-364"/>
<polygon fill="none" stroke="black" points="703.5,-364 703.5,-401 1097.5,-401 1097.5,-364 703.5,-364"/>
<text text-anchor="start" x="853.5" y="-379.8" font-family="Arial" font-weight="bold" font-size="14.00">SimpleSigner</text>
<polygon fill="white" stroke="none" points="703.5,-312 703.5,-364 1097.5,-364 1097.5,-312 703.5,-312"/>
<polygon fill="none" stroke="black" points="703.5,-312 703.5,-364 1097.5,-364 1097.5,-312 703.5,-312"/>
<text text-anchor="start" x="714.5" y="-341.8" font-family="Arial" font-size="14.00">&#45; public_key_set: PublicKeySet</text>
<text text-anchor="start" x="714.5" y="-326.8" font-family="Arial" font-size="14.00">&#45; secret_key_share: (u64, SerdeSecret&lt;SecretKeyShare&gt;)</text>
<polygon fill="none" stroke="black" points="702.5,-311.5 702.5,-402.5 1098.5,-402.5 1098.5,-311.5 702.5,-311.5"/>
</g>
<!-- ndSimpleSigner&#45;&gt;ndSimpleKeyManager -->
<g id="edge10" class="edge"><title>ndSimpleSigner&#45;&gt;ndSimpleKeyManager</title>
<path fill="none" stroke="black" stroke-dasharray="5,2" d="M1086.55,-307.39C1151.79,-290.222 1216.7,-272.964 1248.5,-264 1281.11,-254.809 1316.4,-244.417 1348.66,-234.741"/>
<polygon fill="black" stroke="black" points="1348.91,-234.667 1353.5,-229.109 1360.4,-231.212 1355.81,-236.77 1348.91,-234.667"/>
</g>
<!-- ndGenesisDbcShare&#45;&gt;ndMintNode -->
<g id="edge11" class="edge"><title>ndGenesisDbcShare&#45;&gt;ndMintNode</title>
<path fill="none" stroke="black" d="M2206.73,-134.876C2194.25,-122.808 2181.39,-110.365 2169.5,-98.8641"/>
<polygon fill="black" stroke="black" points="2162.23,-91.8369 2172.55,-95.5552 2165.83,-95.3133 2169.42,-98.7896 2169.42,-98.7896 2169.42,-98.7896 2165.83,-95.3133 2166.29,-102.024 2162.23,-91.8369 2162.23,-91.8369"/>
</g>
<!-- ndReissueTransaction -->
<g id="node8" class="node"><title>ndReissueTransaction</title>
<polygon fill="lightblue" stroke="none" points="394.5,-364 394.5,-401 629.5,-401 629.5,-364 394.5,-364"/>
<polygon fill="none" stroke="black" points="394.5,-364 394.5,-401 629.5,-401 629.5,-364 394.5,-364"/>
<text text-anchor="start" x="442.5" y="-379.8" font-family="Arial" font-weight="bold" font-size="14.00">ReissueTransaction</text>
<polygon fill="white" stroke="none" points="394.5,-312 394.5,-364 629.5,-364 629.5,-312 394.5,-312"/>
<polygon fill="none" stroke="black" points="394.5,-312 394.5,-364 629.5,-364 629.5,-312 394.5,-312"/>
<text text-anchor="start" x="405.5" y="-341.8" font-family="Arial" font-size="14.00">+ inputs: HashSet&lt;Dbc&gt;</text>
<text text-anchor="start" x="405.5" y="-326.8" font-family="Arial" font-size="14.00">+ outputs: HashSet&lt;DbcContent&gt;</text>
<polygon fill="none" stroke="black" points="393,-311.5 393,-402.5 630,-402.5 630,-311.5 393,-311.5"/>
</g>
<!-- ndReissueRequest -->
<g id="node9" class="node"><title>ndReissueRequest</title>
<polygon fill="lightblue" stroke="none" points="548.5,-206.5 548.5,-243.5 904.5,-243.5 904.5,-206.5 548.5,-206.5"/>
<polygon fill="none" stroke="black" points="548.5,-206.5 548.5,-243.5 904.5,-243.5 904.5,-206.5 548.5,-206.5"/>
<text text-anchor="start" x="670" y="-222.3" font-family="Arial" font-weight="bold" font-size="14.00">ReissueRequest</text>
<polygon fill="white" stroke="none" points="548.5,-154.5 548.5,-206.5 904.5,-206.5 904.5,-154.5 548.5,-154.5"/>
<polygon fill="none" stroke="black" points="548.5,-154.5 548.5,-206.5 904.5,-206.5 904.5,-154.5 548.5,-154.5"/>
<text text-anchor="start" x="559.5" y="-184.3" font-family="Arial" font-size="14.00">+ transaction: ReissueTransaction</text>
<text text-anchor="start" x="559.5" y="-169.3" font-family="Arial" font-size="14.00">+ spent_proofs: BTreeMap&lt;SpendKey, SpentProof&gt;</text>
<polygon fill="none" stroke="black" points="547.5,-154 547.5,-245 905.5,-245 905.5,-154 547.5,-154"/>
</g>
<!-- ndReissueTransaction&#45;&gt;ndReissueRequest -->
<g id="edge12" class="edge"><title>ndReissueTransaction&#45;&gt;ndReissueRequest</title>
<path fill="none" stroke="black" d="M578.643,-307.438C601.067,-291.22 626.232,-273.019 649.356,-256.295"/>
<polygon fill="black" stroke="black" points="649.404,-256.26 651.921,-249.503 659.127,-249.228 656.609,-255.985 649.404,-256.26"/>
</g>
<!-- ndTransactionBuilder -->
<g id="node17" class="node"><title>ndTransactionBuilder</title>
<polygon fill="lightblue" stroke="none" points="87.5,-206.5 87.5,-243.5 374.5,-243.5 374.5,-206.5 87.5,-206.5"/>
<polygon fill="none" stroke="black" points="87.5,-206.5 87.5,-243.5 374.5,-243.5 374.5,-206.5 87.5,-206.5"/>
<text text-anchor="start" x="164" y="-222.3" font-family="Arial" font-weight="bold" font-size="14.00">TransactionBuilder</text>
<polygon fill="white" stroke="none" points="87.5,-154.5 87.5,-206.5 374.5,-206.5 374.5,-154.5 87.5,-154.5"/>
<polygon fill="none" stroke="black" points="87.5,-154.5 87.5,-206.5 374.5,-206.5 374.5,-154.5 87.5,-154.5"/>
<text text-anchor="start" x="98.5" y="-184.3" font-family="Arial" font-size="14.00">+ inputs: HashMap&lt;Dbc, AmountSecrets&gt;</text>
<text text-anchor="start" x="98.5" y="-169.3" font-family="Arial" font-size="14.00">+ outputs: Vec&lt;Output&gt;</text>
<polygon fill="none" stroke="black" points="86,-154 86,-245 375,-245 375,-154 86,-154"/>
</g>
<!-- ndReissueTransaction&#45;&gt;ndTransactionBuilder -->
<g id="edge13" class="edge"><title>ndReissueTransaction&#45;&gt;ndTransactionBuilder</title>
<path fill="none" stroke="black" d="M423.746,-307.438C393.26,-290.568 358.899,-271.554 327.696,-254.287"/>
<polygon fill="black" stroke="black" points="318.555,-249.228 329.483,-250.133 322.93,-251.649 327.305,-254.07 327.305,-254.07 327.305,-254.07 322.93,-251.649 325.126,-258.007 318.555,-249.228 318.555,-249.228"/>
</g>
<!-- ndReissueRequestBuilder -->
<g id="node18" class="node"><title>ndReissueRequestBuilder</title>
<polygon fill="lightblue" stroke="none" points="473.5,-56.5 473.5,-93.5 980.5,-93.5 980.5,-56.5 473.5,-56.5"/>
<polygon fill="none" stroke="black" points="473.5,-56.5 473.5,-93.5 980.5,-93.5 980.5,-56.5 473.5,-56.5"/>
<text text-anchor="start" x="645.5" y="-72.3" font-family="Arial" font-weight="bold" font-size="14.00">ReissueRequestBuilder</text>
<polygon fill="white" stroke="none" points="473.5,-4.5 473.5,-56.5 980.5,-56.5 980.5,-4.5 473.5,-4.5"/>
<polygon fill="none" stroke="black" points="473.5,-4.5 473.5,-56.5 980.5,-56.5 980.5,-4.5 473.5,-4.5"/>
<text text-anchor="start" x="484.5" y="-34.3" font-family="Arial" font-size="14.00">+ reissue_transaction: ReissueTransaction</text>
<text text-anchor="start" x="484.5" y="-19.3" font-family="Arial" font-size="14.00">+ spent_proof_shares: BTreeMap&lt;SpendKey, HashSet&lt;SpentProofShare&gt;&gt;</text>
<polygon fill="none" stroke="black" points="472,-4 472,-95 981,-95 981,-4 472,-4"/>
</g>
<!-- ndReissueTransaction&#45;&gt;ndReissueRequestBuilder -->
<g id="edge14" class="edge"><title>ndReissueTransaction&#45;&gt;ndReissueRequestBuilder</title>
<path fill="none" stroke="black" stroke-dasharray="5,2" d="M502.308,-307.158C496.049,-258.811 494.461,-184.977 530.5,-135 538.299,-124.185 547.778,-114.74 558.311,-106.495"/>
<polygon fill="black" stroke="black" points="558.559,-106.315 561.057,-99.5503 568.262,-99.255 565.764,-106.019 558.559,-106.315"/>
</g>
<!-- ndDbcBuilder -->
<g id="node19" class="node"><title>ndDbcBuilder</title>
<polygon fill="lightblue" stroke="none" points="940.5,-206.5 940.5,-243.5 1230.5,-243.5 1230.5,-206.5 940.5,-206.5"/>
<polygon fill="none" stroke="black" points="940.5,-206.5 940.5,-243.5 1230.5,-243.5 1230.5,-206.5 940.5,-206.5"/>
<text text-anchor="start" x="1046" y="-222.3" font-family="Arial" font-weight="bold" font-size="14.00">DbcBuilder</text>
<polygon fill="white" stroke="none" points="940.5,-154.5 940.5,-206.5 1230.5,-206.5 1230.5,-154.5 940.5,-154.5"/>
<polygon fill="none" stroke="black" points="940.5,-154.5 940.5,-206.5 1230.5,-206.5 1230.5,-154.5 940.5,-154.5"/>
<text text-anchor="start" x="951.5" y="-184.3" font-family="Arial" font-size="14.00">+ reissue_transaction: ReissueTransaction</text>
<text text-anchor="start" x="951.5" y="-169.3" font-family="Arial" font-size="14.00">+ reissue_shares: Vec&lt;ReissueShare&gt;</text>
<polygon fill="none" stroke="black" points="939.5,-154 939.5,-245 1231.5,-245 1231.5,-154 939.5,-154"/>
</g>
<!-- ndReissueTransaction&#45;&gt;ndDbcBuilder -->
<g id="edge15" class="edge"><title>ndReissueTransaction&#45;&gt;ndDbcBuilder</title>
<path fill="none" stroke="black" stroke-dasharray="5,2" d="M627.32,-307.422C635.765,-304.677 644.217,-302.162 652.5,-300 769.638,-269.427 805.262,-294.188 922.5,-264 934.535,-260.901 946.888,-257.17 959.149,-253.089"/>
<polygon fill="black" stroke="black" points="959.51,-252.965 963.891,-247.237 970.863,-249.077 966.483,-254.805 959.51,-252.965"/>
</g>
<!-- ndReissueRequest&#45;&gt;ndMintNode -->
<g id="edge16" class="edge"><title>ndReissueRequest&#45;&gt;ndMintNode</title>
<path fill="none" stroke="black" stroke-dasharray="5,2" d="M861.929,-149.936C882.033,-144.1 902.661,-138.854 922.5,-135 1135.32,-93.6518 1793.32,-63.6823 2031.93,-53.9209"/>
<polygon fill="black" stroke="black" points="2041.95,-53.5128 2032.14,-58.4161 2036.96,-53.7163 2031.96,-53.9199 2031.96,-53.9199 2031.96,-53.9199 2036.96,-53.7163 2031.78,-49.4236 2041.95,-53.5128 2041.95,-53.5128"/>
</g>
<!-- ndReissueRequest&#45;&gt;ndReissueRequestBuilder -->
<g id="edge17" class="edge"><title>ndReissueRequest&#45;&gt;ndReissueRequestBuilder</title>
<path fill="none" stroke="black" d="M726.5,-149.629C726.5,-136.68 726.5,-122.566 726.5,-109.155"/>
<polygon fill="black" stroke="black" points="726.5,-99.0672 731,-109.067 726.5,-104.067 726.5,-109.067 726.5,-109.067 726.5,-109.067 726.5,-104.067 722,-109.067 726.5,-99.0672 726.5,-99.0672"/>
</g>
<!-- ndReissueShare -->
<g id="node10" class="node"><title>ndReissueShare</title>
<polygon fill="lightblue" stroke="none" points="1810.5,-364 1810.5,-401 2120.5,-401 2120.5,-364 1810.5,-364"/>
<polygon fill="none" stroke="black" points="1810.5,-364 1810.5,-401 2120.5,-401 2120.5,-364 1810.5,-364"/>
<text text-anchor="start" x="1917" y="-379.8" font-family="Arial" font-weight="bold" font-size="14.00">ReissueShare</text>
<polygon fill="white" stroke="none" points="1810.5,-312 1810.5,-364 2120.5,-364 2120.5,-312 1810.5,-312"/>
<polygon fill="none" stroke="black" points="1810.5,-312 1810.5,-364 2120.5,-364 2120.5,-312 1810.5,-312"/>
<text text-anchor="start" x="1821.5" y="-341.8" font-family="Arial" font-size="14.00">+ dbc_transaction: DbcTransaction</text>
<text text-anchor="start" x="1821.5" y="-326.8" font-family="Arial" font-size="14.00">+ mint_node_signatures: MintNodeSignatures</text>
<polygon fill="none" stroke="black" points="1809.5,-311.5 1809.5,-402.5 2121.5,-402.5 2121.5,-311.5 1809.5,-311.5"/>
</g>
<!-- ndReissueShare&#45;&gt;ndMintNode -->
<g id="edge18" class="edge"><title>ndReissueShare&#45;&gt;ndMintNode</title>
<path fill="none" stroke="black" d="M1990.07,-307.255C2018.55,-250.765 2065.24,-158.135 2094.08,-100.936"/>
<polygon fill="black" stroke="black" points="2098.72,-91.7247 2098.24,-102.68 2096.47,-96.1895 2094.22,-100.654 2094.22,-100.654 2094.22,-100.654 2096.47,-96.1895 2090.2,-98.6286 2098.72,-91.7247 2098.72,-91.7247"/>
</g>
<!-- ndReissueShare&#45;&gt;ndDbcBuilder -->
<g id="edge19" class="edge"><title>ndReissueShare&#45;&gt;ndDbcBuilder</title>
<path fill="none" stroke="black" stroke-dasharray="5,2" d="M1824.59,-307.447C1813.81,-304.636 1803.03,-302.104 1792.5,-300 1599.66,-261.461 1545.71,-294.921 1351.5,-264 1319.03,-258.83 1284.67,-251.812 1251.81,-244.322"/>
<polygon fill="black" stroke="black" points="1251.47,-244.244 1244.72,-246.791 1239.77,-241.544 1246.52,-238.996 1251.47,-244.244"/>
</g>
<!-- ndAmountSecrets&#45;&gt;ndDbcHelper -->
<g id="edge20" class="edge"><title>ndAmountSecrets&#45;&gt;ndDbcHelper</title>
<path fill="none" stroke="black" d="M149.48,-779.823C141.434,-768.521 133.59,-756.212 127.5,-744 93.3262,-675.476 72.2342,-587.423 62.6347,-540.635"/>
<polygon fill="black" stroke="black" points="60.6532,-530.753 67.0316,-539.673 61.6363,-535.655 62.6194,-540.558 62.6194,-540.558 62.6194,-540.558 61.6363,-535.655 58.2073,-541.443 60.6532,-530.753 60.6532,-530.753"/>
</g>
<!-- ndAmountSecrets&#45;&gt;ndDbcContent -->
<g id="edge21" class="edge"><title>ndAmountSecrets&#45;&gt;ndDbcContent</title>
<path fill="none" stroke="black" stroke-dasharray="5,2" d="M254.457,-779.938C266.993,-770.566 280.415,-760.532 293.829,-750.504"/>
<polygon fill="black" stroke="black" points="302.173,-744.266 296.858,-753.858 298.168,-747.26 294.164,-750.254 294.164,-750.254 294.164,-750.254 298.168,-747.26 291.469,-746.65 302.173,-744.266 302.173,-744.266"/>
</g>
<!-- ndAmountSecrets&#45;&gt;ndTransactionBuilder -->
<g id="edge22" class="edge"><title>ndAmountSecrets&#45;&gt;ndTransactionBuilder</title>
<path fill="none" stroke="black" stroke-dasharray="5,2" d="M178.329,-779.647C158.758,-685.044 124.585,-471.101 171.5,-300 175.448,-285.601 182.079,-271.174 189.501,-257.949"/>
<polygon fill="black" stroke="black" points="194.743,-249.001 193.571,-259.904 192.216,-253.315 189.688,-257.629 189.688,-257.629 189.688,-257.629 192.216,-253.315 185.806,-255.355 194.743,-249.001 194.743,-249.001"/>
</g>
<!-- ndDbcContent&#45;&gt;ndDbcHelper -->
<g id="edge23" class="edge"><title>ndDbcContent&#45;&gt;ndDbcHelper</title>
<path fill="none" stroke="black" stroke-dasharray="5,2" d="M259.785,-605.172C208.339,-580.58 152.755,-554.011 112.734,-534.88"/>
<polygon fill="black" stroke="black" points="103.674,-530.549 114.637,-530.802 108.185,-532.706 112.696,-534.862 112.696,-534.862 112.696,-534.862 108.185,-532.706 110.755,-538.922 103.674,-530.549 103.674,-530.549"/>
</g>
<!-- ndDbcContent&#45;&gt;ndGenesisDbcShare -->
<g id="edge24" class="edge"><title>ndDbcContent&#45;&gt;ndGenesisDbcShare</title>
<path fill="none" stroke="black" d="M535.047,-670.326C790.722,-666.944 1355.62,-649.455 1822.5,-564 2054.07,-521.615 2189.56,-602.566 2330.5,-414 2360.56,-373.783 2344.8,-318.969 2322.17,-274.952"/>
<polygon fill="black" stroke="black" points="2322.13,-274.873 2315.77,-271.476 2316.46,-264.298 2322.82,-267.695 2322.13,-274.873"/>
</g>
<!-- ndDbcContent&#45;&gt;ndReissueTransaction -->
<g id="edge25" class="edge"><title>ndDbcContent&#45;&gt;ndReissueTransaction</title>
<path fill="none" stroke="black" d="M422.01,-599.617C437.08,-556.223 456.987,-499.765 475.5,-450 479.365,-439.611 483.572,-428.605 487.703,-417.955"/>
<polygon fill="black" stroke="black" points="487.777,-417.764 486.23,-410.721 492.136,-406.584 493.684,-413.627 487.777,-417.764"/>
</g>
<!-- ndDbcContent&#45;&gt;ndDbc -->
<g id="edge26" class="edge"><title>ndDbcContent&#45;&gt;ndDbc</title>
<path fill="none" stroke="black" d="M535.184,-606.695C561.539,-594.386 589.069,-581.528 615.218,-569.315"/>
<polygon fill="black" stroke="black" points="615.459,-569.202 619.203,-563.039 626.332,-564.124 622.588,-570.288 615.459,-569.202"/>
</g>
<!-- ndDbcTransaction -->
<g id="node14" class="node"><title>ndDbcTransaction</title>
<polygon fill="lightblue" stroke="none" points="1850.5,-679 1850.5,-716 2080.5,-716 2080.5,-679 1850.5,-679"/>
<polygon fill="none" stroke="black" points="1850.5,-679 1850.5,-716 2080.5,-716 2080.5,-679 1850.5,-679"/>
<text text-anchor="start" x="1909.5" y="-694.8" font-family="Arial" font-weight="bold" font-size="14.00">DbcTransaction</text>
<polygon fill="white" stroke="none" points="1850.5,-627 1850.5,-679 2080.5,-679 2080.5,-627 1850.5,-627"/>
<polygon fill="none" stroke="black" points="1850.5,-627 1850.5,-679 2080.5,-679 2080.5,-627 1850.5,-627"/>
<text text-anchor="start" x="1861.5" y="-656.8" font-family="Arial" font-size="14.00">+ inputs: BTreeSet&lt;SpendKey&gt;</text>
<text text-anchor="start" x="1861.5" y="-641.8" font-family="Arial" font-size="14.00">+ outputs: BTreeSet&lt;PublicKey&gt;</text>
<polygon fill="none" stroke="black" points="1849.5,-626.5 1849.5,-717.5 2081.5,-717.5 2081.5,-626.5 1849.5,-626.5"/>
</g>
<!-- ndDbcTransaction&#45;&gt;ndGenesisDbcShare -->
<g id="edge27" class="edge"><title>ndDbcTransaction&#45;&gt;ndGenesisDbcShare</title>
<path fill="none" stroke="black" d="M2089.75,-654.236C2193.65,-637.369 2330.09,-607.581 2363.5,-564 2434.89,-470.883 2405.97,-409.376 2363.5,-300 2360.01,-291.002 2355.28,-282.321 2349.8,-274.089"/>
<polygon fill="black" stroke="black" points="2349.76,-274.039 2343.02,-271.486 2342.78,-264.278 2349.53,-266.831 2349.76,-274.039"/>
</g>
<!-- ndDbcTransaction&#45;&gt;ndReissueTransaction -->
<g id="edge28" class="edge"><title>ndDbcTransaction&#45;&gt;ndReissueTransaction</title>
<path fill="none" stroke="black" d="M1841.42,-671.316C1505.65,-670.886 598.36,-660.702 508.5,-564 472.547,-525.31 479.069,-462.714 491.027,-416.664"/>
<polygon fill="black" stroke="black" points="493.733,-406.81 495.424,-417.645 492.409,-411.632 491.085,-416.453 491.085,-416.453 491.085,-416.453 492.409,-411.632 486.745,-415.262 493.733,-406.81 493.733,-406.81"/>
</g>
<!-- ndDbcTransaction&#45;&gt;ndReissueShare -->
<g id="edge29" class="edge"><title>ndDbcTransaction&#45;&gt;ndReissueShare</title>
<path fill="none" stroke="black" d="M1965.5,-622.437C1965.5,-567.612 1965.5,-478.329 1965.5,-418.885"/>
<polygon fill="black" stroke="black" points="1965.5,-418.677 1961.5,-412.677 1965.5,-406.677 1969.5,-412.677 1965.5,-418.677"/>
</g>
<!-- ndDbcTransaction&#45;&gt;ndMintNode -->
<g id="edge30" class="edge"><title>ndDbcTransaction&#45;&gt;ndMintNode</title>
<path fill="none" stroke="black" stroke-dasharray="5,2" d="M2089.61,-657.028C2203.46,-641.388 2360.06,-611.772 2398.5,-564 2518.05,-415.429 2520.73,-287.705 2406.5,-135 2382.42,-102.807 2282.52,-78.6506 2207.3,-64.5824"/>
<polygon fill="black" stroke="black" points="2197.33,-62.7487 2207.98,-60.1313 2202.25,-63.6529 2207.16,-64.5571 2207.16,-64.5571 2207.16,-64.5571 2202.25,-63.6529 2206.35,-68.9829 2197.33,-62.7487 2197.33,-62.7487"/>
</g>
<!-- ndDbcTransaction&#45;&gt;ndDbc -->
<g id="edge31" class="edge"><title>ndDbcTransaction&#45;&gt;ndDbc</title>
<path fill="none" stroke="black" d="M1841.34,-654.398C1641.49,-627.674 1244.9,-574.644 987.909,-540.28"/>
<polygon fill="black" stroke="black" points="987.672,-540.249 981.194,-543.418 975.778,-538.658 982.255,-535.489 987.672,-540.249"/>
</g>
<!-- ndDbc&#45;&gt;ndReissueTransaction -->
<g id="edge32" class="edge"><title>ndDbc&#45;&gt;ndReissueTransaction</title>
<path fill="none" stroke="black" d="M657.321,-449.837C638.171,-437.776 617.952,-425.042 598.871,-413.025"/>
<polygon fill="black" stroke="black" points="598.86,-413.018 591.651,-413.205 588.706,-406.623 595.915,-406.436 598.86,-413.018"/>
</g>
<!-- ndDbc&#45;&gt;ndTransactionBuilder -->
<g id="edge33" class="edge"><title>ndDbc&#45;&gt;ndTransactionBuilder</title>
<path fill="none" stroke="black" stroke-dasharray="5,2" d="M517.485,-496.899C385.382,-486.298 237.337,-463.402 195.5,-414 159.656,-371.675 176.807,-307.145 197.742,-260.106"/>
<polygon fill="black" stroke="black" points="197.775,-260.037 196.671,-252.91 202.825,-249.151 203.928,-256.277 197.775,-260.037"/>
</g>
<!-- ndDbc&#45;&gt;ndDbcBuilder -->
<g id="edge34" class="edge"><title>ndDbc&#45;&gt;ndDbcBuilder</title>
<path fill="none" stroke="black" d="M704.165,-449.753C675.703,-404.594 649.395,-342.004 685.5,-300 720.225,-259.602 871.035,-277.752 922.5,-264 934.892,-260.689 947.631,-256.742 960.267,-252.459"/>
<polygon fill="black" stroke="black" points="969.901,-249.123 961.924,-256.647 965.176,-250.759 960.452,-252.395 960.452,-252.395 960.452,-252.395 965.176,-250.759 958.979,-248.142 969.901,-249.123 969.901,-249.123"/>
</g>
<!-- ndSpentProof -->
<g id="node21" class="node"><title>ndSpentProof</title>
<polygon fill="lightblue" stroke="none" points="1134.5,-372 1134.5,-409 1369.5,-409 1369.5,-372 1134.5,-372"/>
<polygon fill="none" stroke="black" points="1134.5,-372 1134.5,-409 1369.5,-409 1369.5,-372 1134.5,-372"/>
<text text-anchor="start" x="1212.5" y="-387.8" font-family="Arial" font-weight="bold" font-size="14.00">SpentProof</text>
<polygon fill="white" stroke="none" points="1134.5,-305 1134.5,-372 1369.5,-372 1369.5,-305 1134.5,-305"/>
<polygon fill="none" stroke="black" points="1134.5,-305 1134.5,-372 1369.5,-372 1369.5,-305 1134.5,-305"/>
<text text-anchor="start" x="1145.5" y="-349.8" font-family="Arial" font-size="14.00">+ spent_sig: Signature</text>
<text text-anchor="start" x="1145.5" y="-334.8" font-family="Arial" font-size="14.00">+ spentbook_pub_key: PublicKey</text>
<text text-anchor="start" x="1145.5" y="-319.8" font-family="Arial" font-size="14.00">+ spentbook_sig: Signature</text>
<polygon fill="none" stroke="black" points="1133,-304 1133,-410 1370,-410 1370,-304 1133,-304"/>
</g>
<!-- ndDbc&#45;&gt;ndSpentProof -->
<g id="edge35" class="edge"><title>ndDbc&#45;&gt;ndSpentProof</title>
<path fill="none" stroke="black" stroke-dasharray="5,2" d="M975.832,-454.357C1019.59,-443.051 1064.96,-430.33 1114.95,-414.092"/>
<polygon fill="black" stroke="black" points="1124.67,-410.908 1116.57,-418.297 1119.92,-412.464 1115.17,-414.02 1115.17,-414.02 1115.17,-414.02 1119.92,-412.464 1113.77,-409.743 1124.67,-410.908 1124.67,-410.908"/>
</g>
<!-- ndDbcPacket -->
<g id="node23" class="node"><title>ndDbcPacket</title>
<polygon fill="lightblue" stroke="none" points="1552.5,-364 1552.5,-401 1774.5,-401 1774.5,-364 1552.5,-364"/>
<polygon fill="none" stroke="black" points="1552.5,-364 1552.5,-401 1774.5,-401 1774.5,-364 1552.5,-364"/>
<text text-anchor="start" x="1625.5" y="-379.8" font-family="Arial" font-weight="bold" font-size="14.00">DbcPacket</text>
<polygon fill="white" stroke="none" points="1552.5,-312 1552.5,-364 1774.5,-364 1774.5,-312 1552.5,-312"/>
<polygon fill="none" stroke="black" points="1552.5,-312 1552.5,-364 1774.5,-364 1774.5,-312 1552.5,-312"/>
<text text-anchor="start" x="1563.5" y="-341.8" font-family="Arial" font-size="14.00">&#45; dbc: Dbc</text>
<text text-anchor="start" x="1563.5" y="-326.8" font-family="Arial" font-size="14.00">&#45; owner_keyset: DerivedKeySet</text>
<polygon fill="none" stroke="black" points="1551.5,-311.5 1551.5,-402.5 1775.5,-402.5 1775.5,-311.5 1551.5,-311.5"/>
</g>
<!-- ndDbc&#45;&gt;ndDbcPacket -->
<g id="edge36" class="edge"><title>ndDbc&#45;&gt;ndDbcPacket</title>
<path fill="none" stroke="black" stroke-dasharray="5,2" d="M975.804,-496.755C1134.59,-486.112 1349.62,-463.223 1533.5,-414 1537.6,-412.902 1541.74,-411.698 1545.89,-410.406"/>
<polygon fill="black" stroke="black" points="1546.22,-410.299 1550.67,-404.625 1557.62,-406.55 1553.17,-412.224 1546.22,-410.299"/>
</g>
<!-- ndOutput -->
<g id="node16" class="node"><title>ndOutput</title>
<polygon fill="lightblue" stroke="none" points="213.5,-364 213.5,-401 357.5,-401 357.5,-364 213.5,-364"/>
<polygon fill="none" stroke="black" points="213.5,-364 213.5,-401 357.5,-401 357.5,-364 213.5,-364"/>
<text text-anchor="start" x="261.5" y="-379.8" font-family="Arial" font-weight="bold" font-size="14.00">Output</text>
<polygon fill="white" stroke="none" points="213.5,-312 213.5,-364 357.5,-364 357.5,-312 213.5,-312"/>
<polygon fill="none" stroke="black" points="213.5,-312 213.5,-364 357.5,-364 357.5,-312 213.5,-312"/>
<text text-anchor="start" x="224.5" y="-341.8" font-family="Arial" font-size="14.00">+ amount: Amount</text>
<text text-anchor="start" x="224.5" y="-326.8" font-family="Arial" font-size="14.00">+ owner: PublicKey</text>
<polygon fill="none" stroke="black" points="212.5,-311.5 212.5,-402.5 358.5,-402.5 358.5,-311.5 212.5,-311.5"/>
</g>
<!-- ndOutput&#45;&gt;ndTransactionBuilder -->
<g id="edge37" class="edge"><title>ndOutput&#45;&gt;ndTransactionBuilder</title>
<path fill="none" stroke="black" stroke-dasharray="5,2" d="M268.249,-307.225C263.027,-292.462 257.23,-276.073 251.777,-260.657"/>
<polygon fill="black" stroke="black" points="251.692,-260.415 245.92,-256.092 247.69,-249.101 253.462,-253.424 251.692,-260.415"/>
</g>
<!-- ndSpentProofShare&#45;&gt;ndReissueRequestBuilder -->
<g id="edge38" class="edge"><title>ndSpentProofShare&#45;&gt;ndReissueRequestBuilder</title>
<path fill="none" stroke="black" stroke-dasharray="5,2" d="M1624.32,-148.485C1606.01,-143.358 1587.42,-138.688 1569.5,-135 1382.04,-96.4237 1167.36,-75.2321 1001.56,-63.7187"/>
<polygon fill="black" stroke="black" points="1001.17,-63.6926 994.914,-67.2731 989.201,-62.8724 995.461,-59.2918 1001.17,-63.6926"/>
</g>
<!-- ndDerivedKeySet -->
<g id="node22" class="node"><title>ndDerivedKeySet</title>
<polygon fill="lightblue" stroke="none" points="1522.5,-522 1522.5,-559 1805.5,-559 1805.5,-522 1522.5,-522"/>
<polygon fill="none" stroke="black" points="1522.5,-522 1522.5,-559 1805.5,-559 1805.5,-522 1522.5,-522"/>
<text text-anchor="start" x="1612" y="-537.8" font-family="Arial" font-weight="bold" font-size="14.00">DerivedKeySet</text>
<polygon fill="white" stroke="none" points="1522.5,-455 1522.5,-522 1805.5,-522 1805.5,-455 1522.5,-455"/>
<polygon fill="none" stroke="black" points="1522.5,-455 1522.5,-522 1805.5,-522 1805.5,-455 1522.5,-455"/>
<text text-anchor="start" x="1533.5" y="-499.8" font-family="Arial" font-size="14.00">&#45; public_key: PublicKey</text>
<text text-anchor="start" x="1533.5" y="-484.8" font-family="Arial" font-size="14.00">&#45; derivation_index: [u8; 32]</text>
<text text-anchor="start" x="1533.5" y="-469.8" font-family="Arial" font-size="14.00">&#45; secret_key_set: Option&lt;SecretKeySet&gt;</text>
<polygon fill="none" stroke="black" points="1521,-454 1521,-560 1806,-560 1806,-454 1521,-454"/>
</g>
<!-- ndDerivedKeySet&#45;&gt;ndDbcPacket -->
<g id="edge39" class="edge"><title>ndDerivedKeySet&#45;&gt;ndDbcPacket</title>
<path fill="none" stroke="black" stroke-dasharray="5,2" d="M1663.5,-449.625C1663.5,-439.636 1663.5,-429.192 1663.5,-419.081"/>
<polygon fill="black" stroke="black" points="1663.5,-418.964 1659.5,-412.964 1663.5,-406.964 1667.5,-412.964 1663.5,-418.964"/>
</g>
</g>
</svg>
