<?xml version="1.0" encoding="UTF-8" standalone="no"?>
<!DOCTYPE svg PUBLIC "-//W3C//DTD SVG 1.1//EN"
 "http://www.w3.org/Graphics/SVG/1.1/DTD/svg11.dtd">
<!-- Generated by graphviz version 2.38.0 (20140413.2041)
 -->
<!-- Title: ml Pages: 1 -->
<svg width="1705pt" height="470pt"
 viewBox="0.00 0.00 1704.82 470.00" xmlns="http://www.w3.org/2000/svg" xmlns:xlink="http://www.w3.org/1999/xlink">
<g id="graph0" class="graph" transform="scale(1 1) rotate(0) translate(4 466)">
<title>ml</title>
<polygon fill="white" stroke="none" points="-4,4 -4,-466 1700.82,-466 1700.82,4 -4,4"/>
<!-- ndHash -->
<g id="node1" class="node"><title>ndHash</title>
<g id="a_node1_0"><a xlink:href="https://github.com/maidsafe/sn_dbc/blob/master/src/lib.rs#:~:text=struct%20Hash" xlink:title="&lt;TABLE&gt;">
<polygon fill="lightblue" stroke="none" points="637.637,-419.5 637.637,-456.5 695.637,-456.5 695.637,-419.5 637.637,-419.5"/>
<polygon fill="none" stroke="black" points="637.637,-419.5 637.637,-456.5 695.637,-456.5 695.637,-419.5 637.637,-419.5"/>
<text text-anchor="start" x="648.637" y="-435.3" font-family="Arial" font-weight="bold" font-size="14.00">Hash</text>
<polygon fill="none" stroke="black" points="636.637,-419 636.637,-458 696.637,-458 696.637,-419 636.637,-419"/>
</a>
</g>
</g>
<!-- ndSimpleKeyManager -->
<g id="node6" class="node"><title>ndSimpleKeyManager</title>
<g id="a_node6_1"><a xlink:href="https://github.com/maidsafe/sn_dbc/blob/master/src/key_manager.rs#:~:text=struct%20SimpleKeyManager" xlink:title="&lt;TABLE&gt;">
<polygon fill="lightblue" stroke="none" points="160.637,-253.5 160.637,-290.5 318.637,-290.5 318.637,-253.5 160.637,-253.5"/>
<polygon fill="none" stroke="black" points="160.637,-253.5 160.637,-290.5 318.637,-290.5 318.637,-253.5 160.637,-253.5"/>
<text text-anchor="start" x="171.637" y="-269.3" font-family="Arial" font-weight="bold" font-size="14.00">SimpleKeyManager</text>
<polygon fill="none" stroke="black" points="159.637,-253 159.637,-292 319.637,-292 319.637,-253 159.637,-253"/>
</a>
</g>
</g>
<!-- ndHash&#45;&gt;ndSimpleKeyManager -->
<g id="edge1" class="edge"><title>ndHash&#45;&gt;ndSimpleKeyManager</title>
<path fill="none" stroke="black" stroke-dasharray="5,2" d="M628.475,-433.024C584.316,-426.515 510.631,-411.467 455.637,-379 430.467,-364.141 434.342,-347.62 409.637,-332 387.744,-318.158 362.181,-307.144 337.628,-298.577"/>
<polygon fill="black" stroke="black" points="327.915,-295.294 338.829,-294.233 332.652,-296.895 337.389,-298.496 337.389,-298.496 337.389,-298.496 332.652,-296.895 335.948,-302.759 327.915,-295.294 327.915,-295.294"/>
</g>
<!-- ndKeys -->
<g id="node7" class="node"><title>ndKeys</title>
<g id="a_node7_2"><a xlink:href="https://github.com/maidsafe/sn_dbc/blob/master/src/key_manager.rs#:~:text=struct%20Keys" xlink:title="&lt;TABLE&gt;">
<polygon fill="lightblue" stroke="none" points="333.637,-336.5 333.637,-373.5 391.637,-373.5 391.637,-336.5 333.637,-336.5"/>
<polygon fill="none" stroke="black" points="333.637,-336.5 333.637,-373.5 391.637,-373.5 391.637,-336.5 333.637,-336.5"/>
<text text-anchor="start" x="344.637" y="-352.3" font-family="Arial" font-weight="bold" font-size="14.00">Keys</text>
<polygon fill="none" stroke="black" points="332.637,-336 332.637,-375 392.637,-375 392.637,-336 332.637,-336"/>
</a>
</g>
</g>
<!-- ndHash&#45;&gt;ndKeys -->
<g id="edge2" class="edge"><title>ndHash&#45;&gt;ndKeys</title>
<path fill="none" stroke="black" stroke-dasharray="5,2" d="M628.481,-430.865C578.605,-421.69 488.862,-403.452 414.637,-379 413.206,-378.529 411.761,-378.033 410.307,-377.518"/>
<polygon fill="black" stroke="black" points="400.671,-373.884 411.616,-373.203 405.35,-375.649 410.028,-377.413 410.028,-377.413 410.028,-377.413 405.35,-375.649 408.44,-381.624 400.671,-373.884 400.671,-373.884"/>
</g>
<!-- ndDbcContent -->
<g id="node11" class="node"><title>ndDbcContent</title>
<g id="a_node11_3"><a xlink:href="https://github.com/maidsafe/sn_dbc/blob/master/src/dbc_content.rs#:~:text=struct%20DbcContent" xlink:title="&lt;TABLE&gt;">
<polygon fill="lightblue" stroke="none" points="1303.64,-253.5 1303.64,-290.5 1408.64,-290.5 1408.64,-253.5 1303.64,-253.5"/>
<polygon fill="none" stroke="black" points="1303.64,-253.5 1303.64,-290.5 1408.64,-290.5 1408.64,-253.5 1303.64,-253.5"/>
<text text-anchor="start" x="1314.64" y="-269.3" font-family="Arial" font-weight="bold" font-size="14.00">DbcContent</text>
<polygon fill="none" stroke="black" points="1302.14,-253 1302.14,-292 1409.14,-292 1409.14,-253 1302.14,-253"/>
</a>
</g>
</g>
<!-- ndHash&#45;&gt;ndDbcContent -->
<g id="edge3" class="edge"><title>ndHash&#45;&gt;ndDbcContent</title>
<path fill="none" stroke="black" d="M704.773,-435.954C812.587,-431.184 1117.8,-414.801 1210.64,-379 1254.79,-361.974 1297.63,-327.975 1325.15,-303.16"/>
<polygon fill="black" stroke="black" points="1332.83,-296.105 1328.51,-306.181 1329.15,-299.485 1325.47,-302.866 1325.47,-302.866 1325.47,-302.866 1329.15,-299.485 1322.42,-299.55 1332.83,-296.105 1332.83,-296.105"/>
</g>
<!-- ndPublicKeyBlstMappable -->
<g id="node13" class="node"><title>ndPublicKeyBlstMappable</title>
<g id="a_node13_4"><a xlink:href="https://github.com/maidsafe/sn_dbc/blob/master/src/blst.rs#:~:text=struct%20PublicKeyBlstMappable" xlink:title="&lt;TABLE&gt;">
<polygon fill="lightblue" stroke="none" points="354.637,-253.5 354.637,-290.5 542.637,-290.5 542.637,-253.5 354.637,-253.5"/>
<polygon fill="none" stroke="black" points="354.637,-253.5 354.637,-290.5 542.637,-290.5 542.637,-253.5 354.637,-253.5"/>
<text text-anchor="start" x="365.637" y="-269.3" font-family="Arial" font-weight="bold" font-size="14.00">PublicKeyBlstMappable</text>
<polygon fill="none" stroke="black" points="353.637,-253 353.637,-292 543.637,-292 543.637,-253 353.637,-253"/>
</a>
</g>
</g>
<!-- ndHash&#45;&gt;ndPublicKeyBlstMappable -->
<g id="edge4" class="edge"><title>ndHash&#45;&gt;ndPublicKeyBlstMappable</title>
<path fill="none" stroke="black" stroke-dasharray="5,2" d="M628.33,-434.918C587.783,-430.192 524.403,-416.821 485.637,-379 465.998,-359.841 456.767,-329.675 452.436,-306.499"/>
<polygon fill="none" stroke="black" points="455.853,-305.703 450.772,-296.406 448.946,-306.843 455.853,-305.703"/>
</g>
<!-- ndSpentProofContent -->
<g id="node21" class="node"><title>ndSpentProofContent</title>
<g id="a_node21_5"><a xlink:href="https://github.com/maidsafe/sn_dbc/blob/master/src/spent_proof.rs#:~:text=struct%20SpentProofContent" xlink:title="&lt;TABLE&gt;">
<polygon fill="lightblue" stroke="none" points="703.637,-336.5 703.637,-373.5 859.637,-373.5 859.637,-336.5 703.637,-336.5"/>
<polygon fill="none" stroke="black" points="703.637,-336.5 703.637,-373.5 859.637,-373.5 859.637,-336.5 703.637,-336.5"/>
<text text-anchor="start" x="714.637" y="-352.3" font-family="Arial" font-weight="bold" font-size="14.00">SpentProofContent</text>
<polygon fill="none" stroke="black" points="702.637,-336 702.637,-375 860.637,-375 860.637,-336 702.637,-336"/>
</a>
</g>
</g>
<!-- ndHash&#45;&gt;ndSpentProofContent -->
<g id="edge5" class="edge"><title>ndHash&#45;&gt;ndSpentProofContent</title>
<path fill="none" stroke="black" d="M698.671,-414.937C711.275,-406.059 725.926,-395.74 739.377,-386.266"/>
<polygon fill="black" stroke="black" points="739.565,-386.133 742.167,-379.408 749.376,-379.223 746.774,-385.948 739.565,-386.133"/>
</g>
<!-- ndSpentProofShare -->
<g id="node22" class="node"><title>ndSpentProofShare</title>
<g id="a_node22_6"><a xlink:href="https://github.com/maidsafe/sn_dbc/blob/master/src/spent_proof.rs#:~:text=struct%20SpentProofShare" xlink:title="&lt;TABLE&gt;">
<polygon fill="lightblue" stroke="none" points="579.637,-253.5 579.637,-290.5 722.637,-290.5 722.637,-253.5 579.637,-253.5"/>
<polygon fill="none" stroke="black" points="579.637,-253.5 579.637,-290.5 722.637,-290.5 722.637,-253.5 579.637,-253.5"/>
<text text-anchor="start" x="590.637" y="-269.3" font-family="Arial" font-weight="bold" font-size="14.00">SpentProofShare</text>
<polygon fill="none" stroke="black" points="578.137,-253 578.137,-292 723.137,-292 723.137,-253 578.137,-253"/>
</a>
</g>
</g>
<!-- ndHash&#45;&gt;ndSpentProofShare -->
<g id="edge6" class="edge"><title>ndHash&#45;&gt;ndSpentProofShare</title>
<path fill="none" stroke="black" d="M664.412,-414.697C661.666,-386.546 656.975,-338.465 653.841,-306.341"/>
<polygon fill="black" stroke="black" points="652.843,-296.11 658.292,-305.626 653.328,-301.086 653.814,-306.063 653.814,-306.063 653.814,-306.063 653.328,-301.086 649.335,-306.5 652.843,-296.11 652.843,-296.11"/>
</g>
<!-- ndSpentProof -->
<g id="node23" class="node"><title>ndSpentProof</title>
<g id="a_node23_7"><a xlink:href="https://github.com/maidsafe/sn_dbc/blob/master/src/spent_proof.rs#:~:text=struct%20SpentProof" xlink:title="&lt;TABLE&gt;">
<polygon fill="lightblue" stroke="none" points="758.637,-253.5 758.637,-290.5 859.637,-290.5 859.637,-253.5 758.637,-253.5"/>
<polygon fill="none" stroke="black" points="758.637,-253.5 758.637,-290.5 859.637,-290.5 859.637,-253.5 758.637,-253.5"/>
<text text-anchor="start" x="769.637" y="-269.3" font-family="Arial" font-weight="bold" font-size="14.00">SpentProof</text>
<polygon fill="none" stroke="black" points="757.137,-253 757.137,-292 860.137,-292 860.137,-253 757.137,-253"/>
</a>
</g>
</g>
<!-- ndHash&#45;&gt;ndSpentProof -->
<g id="edge7" class="edge"><title>ndHash&#45;&gt;ndSpentProof</title>
<path fill="none" stroke="black" stroke-dasharray="5,2" d="M704.994,-432.43C759.957,-424.289 856.812,-406.384 877.637,-379 890.281,-362.373 886.416,-350.954 877.637,-332 872.428,-320.755 863.875,-310.885 854.534,-302.61"/>
<polygon fill="black" stroke="black" points="846.559,-296.038 857.138,-298.924 850.418,-299.218 854.277,-302.397 854.277,-302.397 854.277,-302.397 850.418,-299.218 851.415,-305.87 846.559,-296.038 846.559,-296.038"/>
</g>
<!-- ndSpentBookNodeMock -->
<g id="node25" class="node"><title>ndSpentBookNodeMock</title>
<g id="a_node25_8"><a xlink:href="https://github.com/maidsafe/sn_dbc/blob/master/src/spentbook.rs#:~:text=struct%20SpentBookNodeMock" xlink:title="&lt;TABLE&gt;">
<polygon fill="lightblue" stroke="none" points="152.637,-170.5 152.637,-207.5 326.637,-207.5 326.637,-170.5 152.637,-170.5"/>
<polygon fill="none" stroke="black" points="152.637,-170.5 152.637,-207.5 326.637,-207.5 326.637,-170.5 152.637,-170.5"/>
<text text-anchor="start" x="163.637" y="-186.3" font-family="Arial" font-weight="bold" font-size="14.00">SpentBookNodeMock</text>
<polygon fill="none" stroke="black" points="151.637,-170 151.637,-209 327.637,-209 327.637,-170 151.637,-170"/>
</a>
</g>
</g>
<!-- ndHash&#45;&gt;ndSpentBookNodeMock -->
<g id="edge8" class="edge"><title>ndHash&#45;&gt;ndSpentBookNodeMock</title>
<path fill="none" stroke="black" d="M628.346,-436.997C495.039,-434.853 57.1253,-424.384 15.6367,-379 -43.1933,-314.646 77.408,-251.895 163.381,-217.497"/>
<polygon fill="black" stroke="black" points="163.563,-217.426 167.685,-211.509 174.732,-213.038 170.61,-218.955 163.563,-217.426"/>
</g>
<!-- ndTransactionValidator -->
<g id="node26" class="node"><title>ndTransactionValidator</title>
<g id="a_node26_9"><a xlink:href="https://github.com/maidsafe/sn_dbc/blob/master/src/validation.rs#:~:text=struct%20TransactionValidator" xlink:title="&lt;TABLE&gt;">
<polygon fill="lightblue" stroke="none" points="895.637,-253.5 895.637,-290.5 1062.64,-290.5 1062.64,-253.5 895.637,-253.5"/>
<polygon fill="none" stroke="black" points="895.637,-253.5 895.637,-290.5 1062.64,-290.5 1062.64,-253.5 895.637,-253.5"/>
<text text-anchor="start" x="906.637" y="-269.3" font-family="Arial" font-weight="bold" font-size="14.00">TransactionValidator</text>
<polygon fill="none" stroke="black" points="894.137,-253 894.137,-292 1063.14,-292 1063.14,-253 894.137,-253"/>
</a>
</g>
</g>
<!-- ndHash&#45;&gt;ndTransactionValidator -->
<g id="edge9" class="edge"><title>ndHash&#45;&gt;ndTransactionValidator</title>
<path fill="none" stroke="black" stroke-dasharray="5,2" d="M704.683,-435.35C752.928,-431.029 836.998,-418.037 896.637,-379 925.035,-360.412 947.757,-328.611 962.015,-304.771"/>
<polygon fill="black" stroke="black" points="967.059,-296.069 965.938,-306.977 964.552,-300.394 962.044,-304.72 962.044,-304.72 962.044,-304.72 964.552,-300.394 958.151,-302.464 967.059,-296.069 967.059,-296.069"/>
</g>
<!-- ndError -->
<g id="node2" class="node"><title>ndError</title>
<g id="a_node2_10"><a xlink:href="https://github.com/maidsafe/sn_dbc/blob/master/src/error.rs#:~:text=enum%20Error" xlink:title="&lt;TABLE&gt;">
<polygon fill="yellow" stroke="none" points="1134.64,-336.5 1134.64,-373.5 1193.64,-373.5 1193.64,-336.5 1134.64,-336.5"/>
<polygon fill="none" stroke="black" points="1134.64,-336.5 1134.64,-373.5 1193.64,-373.5 1193.64,-336.5 1134.64,-336.5"/>
<text text-anchor="start" x="1145.64" y="-352.3" font-family="Arial" font-weight="bold" font-size="14.00">Error</text>
<polygon fill="none" stroke="black" points="1133.14,-336 1133.14,-375 1194.14,-375 1194.14,-336 1133.14,-336"/>
</a>
</g>
</g>
<!-- ndDbc -->
<g id="node17" class="node"><title>ndDbc</title>
<g id="a_node17_11"><a xlink:href="https://github.com/maidsafe/sn_dbc/blob/master/src/dbc.rs#:~:text=struct%20Dbc" xlink:title="&lt;TABLE&gt;">
<polygon fill="lightblue" stroke="none" points="1240.64,-170.5 1240.64,-207.5 1290.64,-207.5 1290.64,-170.5 1240.64,-170.5"/>
<polygon fill="none" stroke="black" points="1240.64,-170.5 1240.64,-207.5 1290.64,-207.5 1290.64,-170.5 1240.64,-170.5"/>
<text text-anchor="start" x="1251.64" y="-186.3" font-family="Arial" font-weight="bold" font-size="14.00">Dbc</text>
<polygon fill="none" stroke="black" points="1239.64,-170 1239.64,-209 1291.64,-209 1291.64,-170 1239.64,-170"/>
</a>
</g>
</g>
<!-- ndError&#45;&gt;ndDbc -->
<g id="edge10" class="edge"><title>ndError&#45;&gt;ndDbc</title>
<path fill="none" stroke="black" d="M1202.37,-335.856C1218.5,-326.165 1235.93,-312.798 1246.64,-296 1260.39,-274.422 1264.85,-245.588 1266.03,-223.518"/>
<polygon fill="black" stroke="black" points="1266.38,-213.288 1270.54,-223.433 1266.21,-218.285 1266.04,-223.282 1266.04,-223.282 1266.04,-223.282 1266.21,-218.285 1261.54,-223.131 1266.38,-213.288 1266.38,-213.288"/>
</g>
<!-- ndAmountSecrets -->
<g id="node24" class="node"><title>ndAmountSecrets</title>
<g id="a_node24_12"><a xlink:href="https://github.com/maidsafe/sn_dbc/blob/master/src/amount_secrets.rs#:~:text=struct%20AmountSecrets" xlink:title="&lt;TABLE&gt;">
<polygon fill="lightblue" stroke="none" points="1098.64,-253.5 1098.64,-290.5 1228.64,-290.5 1228.64,-253.5 1098.64,-253.5"/>
<polygon fill="none" stroke="black" points="1098.64,-253.5 1098.64,-290.5 1228.64,-290.5 1228.64,-253.5 1098.64,-253.5"/>
<text text-anchor="start" x="1109.64" y="-269.3" font-family="Arial" font-weight="bold" font-size="14.00">AmountSecrets</text>
<polygon fill="none" stroke="black" points="1097.64,-253 1097.64,-292 1229.64,-292 1229.64,-253 1097.64,-253"/>
</a>
</g>
</g>
<!-- ndError&#45;&gt;ndAmountSecrets -->
<g id="edge11" class="edge"><title>ndError&#45;&gt;ndAmountSecrets</title>
<path fill="none" stroke="black" d="M1163.64,-331.937C1163.64,-324.016 1163.64,-314.949 1163.64,-306.357"/>
<polygon fill="black" stroke="black" points="1163.64,-296.223 1168.14,-306.223 1163.64,-301.223 1163.64,-306.223 1163.64,-306.223 1163.64,-306.223 1163.64,-301.223 1159.14,-306.223 1163.64,-296.223 1163.64,-296.223"/>
</g>
<!-- ndError&#45;&gt;ndTransactionValidator -->
<g id="edge12" class="edge"><title>ndError&#45;&gt;ndTransactionValidator</title>
<path fill="none" stroke="black" d="M1124.85,-337.52C1100.2,-326.725 1067.75,-312.519 1039.69,-300.232"/>
<polygon fill="black" stroke="black" points="1030.36,-296.146 1041.32,-296.035 1034.94,-298.151 1039.52,-300.157 1039.52,-300.157 1039.52,-300.157 1034.94,-298.151 1037.71,-304.279 1030.36,-296.146 1030.36,-296.146"/>
</g>
<!-- ndNodeSignature -->
<g id="node3" class="node"><title>ndNodeSignature</title>
<g id="a_node3_13"><a xlink:href="https://github.com/maidsafe/sn_dbc/blob/master/src/key_manager.rs#:~:text=struct%20NodeSignature" xlink:title="&lt;TABLE&gt;">
<polygon fill="lightblue" stroke="none" points="503.637,-336.5 503.637,-373.5 629.637,-373.5 629.637,-336.5 503.637,-336.5"/>
<polygon fill="none" stroke="black" points="503.637,-336.5 503.637,-373.5 629.637,-373.5 629.637,-336.5 503.637,-336.5"/>
<text text-anchor="start" x="514.637" y="-352.3" font-family="Arial" font-weight="bold" font-size="14.00">NodeSignature</text>
<polygon fill="none" stroke="black" points="502.637,-336 502.637,-375 630.637,-375 630.637,-336 502.637,-336"/>
</a>
</g>
</g>
<!-- ndNodeSignature&#45;&gt;ndSimpleKeyManager -->
<g id="edge13" class="edge"><title>ndNodeSignature&#45;&gt;ndSimpleKeyManager</title>
<path fill="none" stroke="black" d="M494.47,-336.624C448.449,-325.224 388.213,-310.303 337.86,-297.831"/>
<polygon fill="black" stroke="black" points="327.928,-295.37 338.717,-293.407 332.781,-296.573 337.635,-297.775 337.635,-297.775 337.635,-297.775 332.781,-296.573 336.553,-302.143 327.928,-295.37 327.928,-295.37"/>
</g>
<!-- ndNodeSignature&#45;&gt;ndSpentProofShare -->
<g id="edge14" class="edge"><title>ndNodeSignature&#45;&gt;ndSpentProofShare</title>
<path fill="none" stroke="black" d="M590.035,-331.937C598.791,-323.494 608.898,-313.748 618.318,-304.665"/>
<polygon fill="black" stroke="black" points="618.434,-304.553 619.977,-297.508 627.072,-296.223 625.53,-303.267 618.434,-304.553"/>
</g>
<!-- ndKeyManager -->
<g id="node4" class="node"><title>ndKeyManager</title>
<g id="a_node4_14"><a xlink:href="https://github.com/maidsafe/sn_dbc/blob/master/src/key_manager.rs#:~:text=trait%20KeyManager" xlink:title="&lt;TABLE&gt;">
<polygon fill="lightgreen" stroke="none" points="34.6367,-336.5 34.6367,-373.5 145.637,-373.5 145.637,-336.5 34.6367,-336.5"/>
<polygon fill="none" stroke="black" points="34.6367,-336.5 34.6367,-373.5 145.637,-373.5 145.637,-336.5 34.6367,-336.5"/>
<text text-anchor="start" x="45.6367" y="-352.3" font-family="Arial" font-weight="bold" font-size="14.00">KeyManager</text>
<polygon fill="none" stroke="black" points="33.1367,-336 33.1367,-375 146.137,-375 146.137,-336 33.1367,-336"/>
</a>
</g>
</g>
<!-- ndKeyManager&#45;&gt;ndSimpleKeyManager -->
<g id="edge15" class="edge"><title>ndKeyManager&#45;&gt;ndSimpleKeyManager</title>
<path fill="none" stroke="black" stroke-dasharray="5,2" d="M131.42,-331.937C149.225,-322.322 170.159,-311.018 188.847,-300.926"/>
<polygon fill="none" stroke="black" points="190.682,-303.914 197.818,-296.082 187.355,-297.754 190.682,-303.914"/>
</g>
<!-- ndKeyManager&#45;&gt;ndSpentBookNodeMock -->
<g id="edge16" class="edge"><title>ndKeyManager&#45;&gt;ndSpentBookNodeMock</title>
<path fill="none" stroke="black" stroke-dasharray="5,2" d="M96.8542,-331.702C105.036,-308.702 120.219,-273.218 142.637,-249 153.7,-237.049 167.756,-226.708 181.711,-218.186"/>
<polygon fill="black" stroke="black" points="190.359,-213.117 184.007,-222.056 186.045,-215.646 181.732,-218.174 181.732,-218.174 181.732,-218.174 186.045,-215.646 179.456,-214.292 190.359,-213.117 190.359,-213.117"/>
</g>
<!-- ndSimpleSigner -->
<g id="node5" class="node"><title>ndSimpleSigner</title>
<g id="a_node5_15"><a xlink:href="https://github.com/maidsafe/sn_dbc/blob/master/src/key_manager.rs#:~:text=struct%20SimpleSigner" xlink:title="&lt;TABLE&gt;">
<polygon fill="lightblue" stroke="none" points="181.637,-336.5 181.637,-373.5 297.637,-373.5 297.637,-336.5 181.637,-336.5"/>
<polygon fill="none" stroke="black" points="181.637,-336.5 181.637,-373.5 297.637,-373.5 297.637,-336.5 181.637,-336.5"/>
<text text-anchor="start" x="192.637" y="-352.3" font-family="Arial" font-weight="bold" font-size="14.00">SimpleSigner</text>
<polygon fill="none" stroke="black" points="180.637,-336 180.637,-375 298.637,-375 298.637,-336 180.637,-336"/>
</a>
</g>
</g>
<!-- ndSimpleSigner&#45;&gt;ndSimpleKeyManager -->
<g id="edge17" class="edge"><title>ndSimpleSigner&#45;&gt;ndSimpleKeyManager</title>
<path fill="none" stroke="black" stroke-dasharray="5,2" d="M239.637,-331.937C239.637,-324.626 239.637,-316.337 239.637,-308.348"/>
<polygon fill="black" stroke="black" points="239.637,-308.223 235.637,-302.223 239.637,-296.223 243.637,-302.223 239.637,-308.223"/>
</g>
<!-- ndSimpleKeyManager&#45;&gt;ndSpentBookNodeMock -->
<g id="edge18" class="edge"><title>ndSimpleKeyManager&#45;&gt;ndSpentBookNodeMock</title>
<path fill="none" stroke="black" stroke-dasharray="5,2" d="M239.637,-248.937C239.637,-241.626 239.637,-233.337 239.637,-225.348"/>
<polygon fill="black" stroke="black" points="239.637,-225.223 235.637,-219.223 239.637,-213.223 243.637,-219.223 239.637,-225.223"/>
</g>
<!-- ndKeys&#45;&gt;ndSimpleKeyManager -->
<g id="edge19" class="edge"><title>ndKeys&#45;&gt;ndSimpleKeyManager</title>
<path fill="none" stroke="black" d="M328.374,-331.937C314.761,-322.972 298.916,-312.537 284.413,-302.987"/>
<polygon fill="black" stroke="black" points="284.164,-302.823 276.953,-302.864 274.142,-296.223 281.353,-296.182 284.164,-302.823"/>
</g>
<!-- ndReissueRequest -->
<g id="node8" class="node"><title>ndReissueRequest</title>
<g id="a_node8_16"><a xlink:href="https://github.com/maidsafe/sn_dbc/blob/master/src/mint.rs#:~:text=struct%20ReissueRequest" xlink:title="&lt;TABLE&gt;">
<polygon fill="lightblue" stroke="none" points="719.637,-170.5 719.637,-207.5 854.637,-207.5 854.637,-170.5 719.637,-170.5"/>
<polygon fill="none" stroke="black" points="719.637,-170.5 719.637,-207.5 854.637,-207.5 854.637,-170.5 719.637,-170.5"/>
<text text-anchor="start" x="730.637" y="-186.3" font-family="Arial" font-weight="bold" font-size="14.00">ReissueRequest</text>
<polygon fill="none" stroke="black" points="718.137,-170 718.137,-209 855.137,-209 855.137,-170 718.137,-170"/>
</a>
</g>
</g>
<!-- ndMintNode -->
<g id="node10" class="node"><title>ndMintNode</title>
<g id="a_node10_17"><a xlink:href="https://github.com/maidsafe/sn_dbc/blob/master/src/mint.rs#:~:text=struct%20MintNode" xlink:title="&lt;TABLE&gt;">
<polygon fill="lightblue" stroke="none" points="881.637,-87.5 881.637,-124.5 970.637,-124.5 970.637,-87.5 881.637,-87.5"/>
<polygon fill="none" stroke="black" points="881.637,-87.5 881.637,-124.5 970.637,-124.5 970.637,-87.5 881.637,-87.5"/>
<text text-anchor="start" x="892.637" y="-103.3" font-family="Arial" font-weight="bold" font-size="14.00">MintNode</text>
<polygon fill="none" stroke="black" points="880.137,-87 880.137,-126 971.137,-126 971.137,-87 880.137,-87"/>
</a>
</g>
</g>
<!-- ndReissueRequest&#45;&gt;ndMintNode -->
<g id="edge20" class="edge"><title>ndReissueRequest&#45;&gt;ndMintNode</title>
<path fill="none" stroke="black" stroke-dasharray="5,2" d="M825.356,-165.937C841.637,-156.45 860.741,-145.317 877.883,-135.328"/>
<polygon fill="black" stroke="black" points="886.643,-130.223 880.269,-139.146 882.323,-132.74 878.003,-135.258 878.003,-135.258 878.003,-135.258 882.323,-132.74 875.737,-131.37 886.643,-130.223 886.643,-130.223"/>
</g>
<!-- ndReissueRequestBuilder -->
<g id="node19" class="node"><title>ndReissueRequestBuilder</title>
<g id="a_node19_18"><a xlink:href="https://github.com/maidsafe/sn_dbc/blob/master/src/builder.rs#:~:text=struct%20ReissueRequestBuilder" xlink:title="&lt;TABLE&gt;">
<polygon fill="lightblue" stroke="none" points="660.637,-87.5 660.637,-124.5 845.637,-124.5 845.637,-87.5 660.637,-87.5"/>
<polygon fill="none" stroke="black" points="660.637,-87.5 660.637,-124.5 845.637,-124.5 845.637,-87.5 660.637,-87.5"/>
<text text-anchor="start" x="671.637" y="-103.3" font-family="Arial" font-weight="bold" font-size="14.00">ReissueRequestBuilder</text>
<polygon fill="none" stroke="black" points="659.137,-87 659.137,-126 846.137,-126 846.137,-87 659.137,-87"/>
</a>
</g>
</g>
<!-- ndReissueRequest&#45;&gt;ndReissueRequestBuilder -->
<g id="edge21" class="edge"><title>ndReissueRequest&#45;&gt;ndReissueRequestBuilder</title>
<path fill="none" stroke="black" d="M777.166,-165.937C773.732,-157.755 769.784,-148.35 766.073,-139.509"/>
<polygon fill="black" stroke="black" points="762.175,-130.223 770.194,-137.702 764.11,-134.833 766.045,-139.444 766.045,-139.444 766.045,-139.444 764.11,-134.833 761.896,-141.185 762.175,-130.223 762.175,-130.223"/>
</g>
<!-- ndReissueShare -->
<g id="node9" class="node"><title>ndReissueShare</title>
<g id="a_node9_19"><a xlink:href="https://github.com/maidsafe/sn_dbc/blob/master/src/mint.rs#:~:text=struct%20ReissueShare" xlink:title="&lt;TABLE&gt;">
<polygon fill="lightblue" stroke="none" points="929.637,-170.5 929.637,-207.5 1048.64,-207.5 1048.64,-170.5 929.637,-170.5"/>
<polygon fill="none" stroke="black" points="929.637,-170.5 929.637,-207.5 1048.64,-207.5 1048.64,-170.5 929.637,-170.5"/>
<text text-anchor="start" x="940.637" y="-186.3" font-family="Arial" font-weight="bold" font-size="14.00">ReissueShare</text>
<polygon fill="none" stroke="black" points="928.137,-170 928.137,-209 1049.14,-209 1049.14,-170 928.137,-170"/>
</a>
</g>
</g>
<!-- ndReissueShare&#45;&gt;ndMintNode -->
<g id="edge22" class="edge"><title>ndReissueShare&#45;&gt;ndMintNode</title>
<path fill="none" stroke="black" d="M971.088,-165.937C964.453,-157.407 956.784,-147.547 949.658,-138.384"/>
<polygon fill="black" stroke="black" points="943.31,-130.223 953.002,-135.354 946.38,-134.17 949.45,-138.116 949.45,-138.116 949.45,-138.116 946.38,-134.17 945.897,-140.879 943.31,-130.223 943.31,-130.223"/>
</g>
<!-- ndDbcBuilder -->
<g id="node20" class="node"><title>ndDbcBuilder</title>
<g id="a_node20_20"><a xlink:href="https://github.com/maidsafe/sn_dbc/blob/master/src/builder.rs#:~:text=struct%20DbcBuilder" xlink:title="&lt;TABLE&gt;">
<polygon fill="lightblue" stroke="none" points="1140.64,-87.5 1140.64,-124.5 1241.64,-124.5 1241.64,-87.5 1140.64,-87.5"/>
<polygon fill="none" stroke="black" points="1140.64,-87.5 1140.64,-124.5 1241.64,-124.5 1241.64,-87.5 1140.64,-87.5"/>
<text text-anchor="start" x="1151.64" y="-103.3" font-family="Arial" font-weight="bold" font-size="14.00">DbcBuilder</text>
<polygon fill="none" stroke="black" points="1139.14,-87 1139.14,-126 1242.14,-126 1242.14,-87 1139.14,-87"/>
</a>
</g>
</g>
<!-- ndReissueShare&#45;&gt;ndDbcBuilder -->
<g id="edge23" class="edge"><title>ndReissueShare&#45;&gt;ndDbcBuilder</title>
<path fill="none" stroke="black" stroke-dasharray="5,2" d="M1044.9,-165.937C1069.1,-156.235 1097.59,-144.812 1122.93,-134.651"/>
<polygon fill="black" stroke="black" points="1123.18,-134.549 1127.26,-128.603 1134.32,-130.082 1130.24,-136.028 1123.18,-134.549"/>
</g>
<!-- ndDbcContent&#45;&gt;ndDbc -->
<g id="edge24" class="edge"><title>ndDbcContent&#45;&gt;ndDbc</title>
<path fill="none" stroke="black" d="M1330.57,-248.937C1321.09,-240.407 1310.13,-230.547 1299.95,-221.384"/>
<polygon fill="black" stroke="black" points="1299.8,-221.251 1292.67,-220.21 1290.88,-213.223 1298.02,-214.264 1299.8,-221.251"/>
</g>
<!-- ndGenesisMaterial -->
<g id="node12" class="node"><title>ndGenesisMaterial</title>
<g id="a_node12_21"><a xlink:href="https://github.com/maidsafe/sn_dbc/blob/master/src/genesis.rs#:~:text=struct%20GenesisMaterial" xlink:title="&lt;TABLE&gt;">
<polygon fill="lightblue" stroke="none" points="1521.64,-336.5 1521.64,-373.5 1656.64,-373.5 1656.64,-336.5 1521.64,-336.5"/>
<polygon fill="none" stroke="black" points="1521.64,-336.5 1521.64,-373.5 1656.64,-373.5 1656.64,-336.5 1521.64,-336.5"/>
<text text-anchor="start" x="1532.64" y="-352.3" font-family="Arial" font-weight="bold" font-size="14.00">GenesisMaterial</text>
<polygon fill="none" stroke="black" points="1520.14,-336 1520.14,-375 1657.14,-375 1657.14,-336 1520.14,-336"/>
</a>
</g>
</g>
<!-- ndPublicKeyBlstMappable&#45;&gt;ndSpentBookNodeMock -->
<g id="edge25" class="edge"><title>ndPublicKeyBlstMappable&#45;&gt;ndSpentBookNodeMock</title>
<path fill="none" stroke="black" d="M390.419,-248.937C365.272,-239.191 335.646,-227.709 309.34,-217.514"/>
<polygon fill="black" stroke="black" points="309.094,-217.419 302.054,-218.98 297.905,-213.082 304.945,-211.521 309.094,-217.419"/>
</g>
<!-- ndBlsHelper -->
<g id="node14" class="node"><title>ndBlsHelper</title>
<g id="a_node14_22"><a xlink:href="https://github.com/maidsafe/sn_dbc/blob/master/src/blst.rs#:~:text=struct%20BlsHelper" xlink:title="&lt;TABLE&gt;">
<polygon fill="lightblue" stroke="none" points="1572.64,-419.5 1572.64,-456.5 1662.64,-456.5 1662.64,-419.5 1572.64,-419.5"/>
<polygon fill="none" stroke="black" points="1572.64,-419.5 1572.64,-456.5 1662.64,-456.5 1662.64,-419.5 1572.64,-419.5"/>
<text text-anchor="start" x="1583.64" y="-435.3" font-family="Arial" font-weight="bold" font-size="14.00">BlsHelper</text>
<polygon fill="none" stroke="black" points="1571.64,-419 1571.64,-458 1663.64,-458 1663.64,-419 1571.64,-419"/>
</a>
</g>
</g>
<!-- ndOwner -->
<g id="node15" class="node"><title>ndOwner</title>
<g id="a_node15_23"><a xlink:href="https://github.com/maidsafe/sn_dbc/blob/master/src/owner.rs#:~:text=enum%20Owner" xlink:title="&lt;TABLE&gt;">
<polygon fill="yellow" stroke="none" points="1378.64,-336.5 1378.64,-373.5 1446.64,-373.5 1446.64,-336.5 1378.64,-336.5"/>
<polygon fill="none" stroke="black" points="1378.64,-336.5 1378.64,-373.5 1446.64,-373.5 1446.64,-336.5 1378.64,-336.5"/>
<text text-anchor="start" x="1389.64" y="-352.3" font-family="Arial" font-weight="bold" font-size="14.00">Owner</text>
<polygon fill="none" stroke="black" points="1377.64,-336 1377.64,-375 1447.64,-375 1447.64,-336 1377.64,-336"/>
</a>
</g>
</g>
<!-- ndOwner&#45;&gt;ndDbcContent -->
<g id="edge26" class="edge"><title>ndOwner&#45;&gt;ndDbcContent</title>
<path fill="none" stroke="black" d="M1396.76,-331.937C1391.12,-323.929 1384.66,-314.749 1378.56,-306.074"/>
<polygon fill="black" stroke="black" points="1378.53,-306.037 1371.81,-303.432 1371.63,-296.223 1378.35,-298.828 1378.53,-306.037"/>
</g>
<!-- ndOwnerOnce -->
<g id="node16" class="node"><title>ndOwnerOnce</title>
<g id="a_node16_24"><a xlink:href="https://github.com/maidsafe/sn_dbc/blob/master/src/owner.rs#:~:text=struct%20OwnerOnce" xlink:title="&lt;TABLE&gt;">
<polygon fill="lightblue" stroke="none" points="1431.64,-419.5 1431.64,-456.5 1536.64,-456.5 1536.64,-419.5 1431.64,-419.5"/>
<polygon fill="none" stroke="black" points="1431.64,-419.5 1431.64,-456.5 1536.64,-456.5 1536.64,-419.5 1431.64,-419.5"/>
<text text-anchor="start" x="1442.64" y="-435.3" font-family="Arial" font-weight="bold" font-size="14.00">OwnerOnce</text>
<polygon fill="none" stroke="black" points="1430.14,-419 1430.14,-458 1537.14,-458 1537.14,-419 1430.14,-419"/>
</a>
</g>
</g>
<!-- ndOwner&#45;&gt;ndOwnerOnce -->
<g id="edge27" class="edge"><title>ndOwner&#45;&gt;ndOwnerOnce</title>
<path fill="none" stroke="black" stroke-dasharray="5,2" d="M1438.69,-379.223C1446.48,-387.42 1454.89,-396.83 1462.34,-405.663"/>
<polygon fill="black" stroke="black" points="1462.35,-405.676 1469.25,-407.763 1469.98,-414.937 1463.08,-412.85 1462.35,-405.676"/>
</g>
<!-- ndOwner&#45;&gt;ndDbc -->
<g id="edge28" class="edge"><title>ndOwner&#45;&gt;ndDbc</title>
<path fill="none" stroke="black" d="M1423.71,-331.758C1433.13,-308.801 1442.66,-273.351 1425.64,-249 1399.77,-211.998 1347.86,-198.324 1310.17,-193.313"/>
<polygon fill="black" stroke="black" points="1299.94,-192.117 1310.4,-188.81 1304.91,-192.698 1309.88,-193.279 1309.88,-193.279 1309.88,-193.279 1304.91,-192.698 1309.35,-197.749 1299.94,-192.117 1299.94,-192.117"/>
</g>
<!-- ndOwnerOnce&#45;&gt;ndGenesisMaterial -->
<g id="edge29" class="edge"><title>ndOwnerOnce&#45;&gt;ndGenesisMaterial</title>
<path fill="none" stroke="black" d="M1512.89,-414.937C1524.17,-406.233 1537.25,-396.144 1549.33,-386.824"/>
<polygon fill="black" stroke="black" points="1549.68,-386.553 1551.99,-379.721 1559.18,-379.223 1556.87,-386.055 1549.68,-386.553"/>
</g>
<!-- ndOwnerOnce&#45;&gt;ndOwner -->
<g id="edge30" class="edge"><title>ndOwnerOnce&#45;&gt;ndOwner</title>
<path fill="none" stroke="black" stroke-dasharray="5,2" d="M1457.74,-414.937C1449.54,-406.32 1440.65,-396.346 1432.89,-387.104"/>
<polygon fill="black" stroke="black" points="1426.42,-379.223 1436.24,-384.092 1429.59,-383.086 1432.77,-386.949 1432.77,-386.949 1432.77,-386.949 1429.59,-383.086 1429.29,-389.806 1426.42,-379.223 1426.42,-379.223"/>
</g>
<!-- ndTransactionBuilder -->
<g id="node18" class="node"><title>ndTransactionBuilder</title>
<g id="a_node18_25"><a xlink:href="https://github.com/maidsafe/sn_dbc/blob/master/src/builder.rs#:~:text=struct%20TransactionBuilder" xlink:title="&lt;TABLE&gt;">
<polygon fill="lightblue" stroke="none" points="1112.64,-4.5 1112.64,-41.5 1268.64,-41.5 1268.64,-4.5 1112.64,-4.5"/>
<polygon fill="none" stroke="black" points="1112.64,-4.5 1112.64,-41.5 1268.64,-41.5 1268.64,-4.5 1112.64,-4.5"/>
<text text-anchor="start" x="1123.64" y="-20.3" font-family="Arial" font-weight="bold" font-size="14.00">TransactionBuilder</text>
<polygon fill="none" stroke="black" points="1111.64,-4 1111.64,-43 1269.64,-43 1269.64,-4 1111.64,-4"/>
</a>
</g>
</g>
<!-- ndOwnerOnce&#45;&gt;ndTransactionBuilder -->
<g id="edge31" class="edge"><title>ndOwnerOnce&#45;&gt;ndTransactionBuilder</title>
<path fill="none" stroke="black" stroke-dasharray="5,2" d="M1545.19,-417.929C1548.38,-416.934 1551.55,-415.953 1554.64,-415 1607.85,-398.589 1637.56,-420.538 1674.64,-379 1706.36,-343.458 1693.64,-321.143 1693.64,-273.5 1693.64,-273.5 1693.64,-273.5 1693.64,-188.5 1693.64,-104.072 1434.24,-56.3287 1288.01,-36.1214"/>
<polygon fill="black" stroke="black" points="1277.68,-34.7139 1288.19,-31.6054 1282.63,-35.389 1287.59,-36.0642 1287.59,-36.0642 1287.59,-36.0642 1282.63,-35.389 1286.98,-40.523 1277.68,-34.7139 1277.68,-34.7139"/>
</g>
<!-- ndOwnerOnce&#45;&gt;ndDbcBuilder -->
<g id="edge32" class="edge"><title>ndOwnerOnce&#45;&gt;ndDbcBuilder</title>
<path fill="none" stroke="black" d="M1484.68,-414.808C1485.28,-376.808 1481.44,-299.509 1444.64,-249 1399.44,-186.972 1318.34,-148.712 1259.92,-127.866"/>
<polygon fill="black" stroke="black" points="1250.39,-124.545 1261.31,-123.584 1255.11,-126.19 1259.83,-127.834 1259.83,-127.834 1259.83,-127.834 1255.11,-126.19 1258.35,-132.084 1250.39,-124.545 1250.39,-124.545"/>
</g>
<!-- ndDbc&#45;&gt;ndTransactionBuilder -->
<g id="edge33" class="edge"><title>ndDbc&#45;&gt;ndTransactionBuilder</title>
<path fill="none" stroke="black" stroke-dasharray="5,2" d="M1269,-165.784C1271.22,-143.484 1271.68,-109.11 1258.64,-83 1253.09,-71.8984 1244.41,-62.0399 1235.08,-53.7262"/>
<polygon fill="black" stroke="black" points="1227.15,-47.1127 1237.71,-50.0595 1230.99,-50.3144 1234.83,-53.516 1234.83,-53.516 1234.83,-53.516 1230.99,-50.3144 1231.95,-56.9725 1227.15,-47.1127 1227.15,-47.1127"/>
</g>
<!-- ndDbc&#45;&gt;ndDbcBuilder -->
<g id="edge34" class="edge"><title>ndDbc&#45;&gt;ndDbcBuilder</title>
<path fill="none" stroke="black" d="M1244.75,-165.937C1236.69,-157.233 1227.34,-147.144 1218.71,-137.824"/>
<polygon fill="black" stroke="black" points="1211.68,-130.223 1221.77,-134.503 1215.07,-133.892 1218.47,-137.561 1218.47,-137.561 1218.47,-137.561 1215.07,-133.892 1215.17,-140.618 1211.68,-130.223 1211.68,-130.223"/>
</g>
<!-- ndReissueRequestBuilder&#45;&gt;ndTransactionBuilder -->
<g id="edge35" class="edge"><title>ndReissueRequestBuilder&#45;&gt;ndTransactionBuilder</title>
<path fill="none" stroke="black" d="M854.207,-84.627C857.046,-84.0748 859.861,-83.5314 862.637,-83 940.181,-68.1567 1028.28,-52.5114 1093.63,-41.1389"/>
<polygon fill="black" stroke="black" points="1103.51,-39.422 1094.43,-45.5677 1098.59,-40.278 1093.66,-41.1341 1093.66,-41.1341 1093.66,-41.1341 1098.59,-40.278 1092.89,-36.7005 1103.51,-39.422 1103.51,-39.422"/>
</g>
<!-- ndDbcBuilder&#45;&gt;ndTransactionBuilder -->
<g id="edge36" class="edge"><title>ndDbcBuilder&#45;&gt;ndTransactionBuilder</title>
<path fill="none" stroke="black" d="M1190.64,-82.937C1190.64,-75.0164 1190.64,-65.9488 1190.64,-57.3574"/>
<polygon fill="black" stroke="black" points="1190.64,-47.2229 1195.14,-57.2229 1190.64,-52.2229 1190.64,-57.2229 1190.64,-57.2229 1190.64,-57.2229 1190.64,-52.2229 1186.14,-57.223 1190.64,-47.2229 1190.64,-47.2229"/>
</g>
<!-- ndSpentProofContent&#45;&gt;ndSpentProofShare -->
<g id="edge37" class="edge"><title>ndSpentProofContent&#45;&gt;ndSpentProofShare</title>
<path fill="none" stroke="black" d="M745.146,-331.937C730.506,-322.885 713.443,-312.335 697.876,-302.709"/>
<polygon fill="black" stroke="black" points="697.593,-302.534 690.386,-302.781 687.386,-296.223 694.593,-295.976 697.593,-302.534"/>
</g>
<!-- ndSpentProofContent&#45;&gt;ndSpentProof -->
<g id="edge38" class="edge"><title>ndSpentProofContent&#45;&gt;ndSpentProof</title>
<path fill="none" stroke="black" d="M789.158,-331.937C791.653,-324.452 794.489,-315.942 797.211,-307.778"/>
<polygon fill="black" stroke="black" points="797.268,-307.607 795.37,-300.65 801.062,-296.223 802.96,-303.18 797.268,-307.607"/>
</g>
<!-- ndSpentProofShare&#45;&gt;ndMintNode -->
<g id="edge39" class="edge"><title>ndSpentProofShare&#45;&gt;ndMintNode</title>
<path fill="none" stroke="black" d="M731.439,-250.918C793.363,-235.018 868.739,-215.335 871.637,-213 894.628,-194.474 908.812,-163.568 916.837,-139.982"/>
<polygon fill="black" stroke="black" points="919.908,-130.38 921.148,-141.275 918.385,-135.142 916.862,-139.905 916.862,-139.905 916.862,-139.905 918.385,-135.142 912.576,-138.534 919.908,-130.38 919.908,-130.38"/>
</g>
<!-- ndSpentProofShare&#45;&gt;ndReissueRequestBuilder -->
<g id="edge40" class="edge"><title>ndSpentProofShare&#45;&gt;ndReissueRequestBuilder</title>
<path fill="none" stroke="black" stroke-dasharray="5,2" d="M659.239,-248.696C668.059,-226.634 682.963,-192.706 700.637,-166 706.739,-156.779 714.216,-147.509 721.577,-139.153"/>
<polygon fill="black" stroke="black" points="721.685,-139.035 722.763,-131.905 729.76,-130.159 728.681,-137.289 721.685,-139.035"/>
</g>
<!-- ndSpentProofShare&#45;&gt;ndSpentBookNodeMock -->
<g id="edge41" class="edge"><title>ndSpentProofShare&#45;&gt;ndSpentBookNodeMock</title>
<path fill="none" stroke="black" d="M569.741,-251.014C566.671,-250.32 563.628,-249.646 560.637,-249 489.287,-233.597 408.437,-218.878 345.727,-208.058"/>
<polygon fill="black" stroke="black" points="335.823,-206.355 346.441,-203.615 340.751,-207.203 345.678,-208.05 345.678,-208.05 345.678,-208.05 340.751,-207.203 344.916,-212.485 335.823,-206.355 335.823,-206.355"/>
</g>
<!-- ndSpentProof&#45;&gt;ndReissueRequest -->
<g id="edge42" class="edge"><title>ndSpentProof&#45;&gt;ndReissueRequest</title>
<path fill="none" stroke="black" d="M802.508,-248.937C800.499,-241.539 798.218,-233.14 796.024,-225.063"/>
<polygon fill="black" stroke="black" points="795.954,-224.803 790.521,-220.062 792.808,-213.223 798.241,-217.965 795.954,-224.803"/>
</g>
<!-- ndSpentProof&#45;&gt;ndReissueShare -->
<g id="edge43" class="edge"><title>ndSpentProof&#45;&gt;ndReissueShare</title>
<path fill="none" stroke="black" d="M858.777,-248.937C880.045,-239.366 905.036,-228.121 927.384,-218.064"/>
<polygon fill="black" stroke="black" points="927.511,-218.007 931.341,-211.897 938.454,-213.082 934.624,-219.192 927.511,-218.007"/>
</g>
<!-- ndSpentProof&#45;&gt;ndDbc -->
<g id="edge44" class="edge"><title>ndSpentProof&#45;&gt;ndDbc</title>
<path fill="none" stroke="black" d="M868.175,-251.163C871.024,-250.391 873.855,-249.664 876.637,-249 998.771,-219.835 1146.13,-202.387 1219.47,-194.87"/>
<polygon fill="black" stroke="black" points="1219.5,-194.867 1225.07,-190.286 1231.44,-193.665 1225.87,-198.246 1219.5,-194.867"/>
</g>
<!-- ndAmountSecrets&#45;&gt;ndDbc -->
<g id="edge45" class="edge"><title>ndAmountSecrets&#45;&gt;ndDbc</title>
<path fill="none" stroke="black" stroke-dasharray="5,2" d="M1192.05,-248.937C1203.45,-239.885 1216.73,-229.335 1228.85,-219.709"/>
<polygon fill="black" stroke="black" points="1237.02,-213.223 1231.99,-222.966 1233.11,-216.332 1229.19,-219.442 1229.19,-219.442 1229.19,-219.442 1233.11,-216.332 1226.39,-215.918 1237.02,-213.223 1237.02,-213.223"/>
</g>
<!-- ndAmountSecrets&#45;&gt;ndTransactionBuilder -->
<g id="edge46" class="edge"><title>ndAmountSecrets&#45;&gt;ndTransactionBuilder</title>
<path fill="none" stroke="black" stroke-dasharray="5,2" d="M1149.55,-248.737C1128.93,-212.263 1095.64,-139.13 1121.64,-83 1126.85,-71.7554 1135.4,-61.8849 1144.74,-53.6097"/>
<polygon fill="black" stroke="black" points="1152.71,-47.0385 1147.86,-56.8704 1148.86,-50.2179 1145,-53.3974 1145,-53.3974 1145,-53.3974 1148.86,-50.2179 1142.14,-49.9243 1152.71,-47.0385 1152.71,-47.0385"/>
</g>
<!-- ndAmountSecrets&#45;&gt;ndDbcBuilder -->
<g id="edge47" class="edge"><title>ndAmountSecrets&#45;&gt;ndDbcBuilder</title>
<path fill="none" stroke="black" d="M1167.39,-248.697C1172.03,-220.546 1179.94,-172.465 1185.23,-140.341"/>
<polygon fill="black" stroke="black" points="1186.91,-130.11 1189.73,-140.708 1186.1,-135.043 1185.29,-139.977 1185.29,-139.977 1185.29,-139.977 1186.1,-135.043 1180.85,-139.246 1186.91,-130.11 1186.91,-130.11"/>
</g>
</g>
</svg>
