<?xml version="1.0" encoding="UTF-8" standalone="no"?>
<!DOCTYPE svg PUBLIC "-//W3C//DTD SVG 1.1//EN"
 "http://www.w3.org/Graphics/SVG/1.1/DTD/svg11.dtd">
<!-- Generated by graphviz version 2.38.0 (20140413.2041)
 -->
<!-- Title: ml Pages: 1 -->
<svg width="1546pt" height="553pt"
 viewBox="0.00 0.00 1546.29 553.00" xmlns="http://www.w3.org/2000/svg" xmlns:xlink="http://www.w3.org/1999/xlink">
<g id="graph0" class="graph" transform="scale(1 1) rotate(0) translate(4 549)">
<title>ml</title>
<polygon fill="white" stroke="none" points="-4,4 -4,-549 1542.29,-549 1542.29,4 -4,4"/>
<!-- ndDbcHelper -->
<g id="node1" class="node"><title>ndDbcHelper</title>
<polygon fill="lightblue" stroke="none" points="9.5,-253.5 9.5,-290.5 104.5,-290.5 104.5,-253.5 9.5,-253.5"/>
<polygon fill="none" stroke="black" points="9.5,-253.5 9.5,-290.5 104.5,-290.5 104.5,-253.5 9.5,-253.5"/>
<text text-anchor="start" x="20.5" y="-269.3" font-family="Arial" font-weight="bold" font-size="14.00">DbcHelper</text>
<polygon fill="none" stroke="black" points="8,-253 8,-292 105,-292 105,-253 8,-253"/>
</g>
<!-- ndError -->
<g id="node2" class="node"><title>ndError</title>
<polygon fill="yellow" stroke="none" points="194.5,-502.5 194.5,-539.5 253.5,-539.5 253.5,-502.5 194.5,-502.5"/>
<polygon fill="none" stroke="black" points="194.5,-502.5 194.5,-539.5 253.5,-539.5 253.5,-502.5 194.5,-502.5"/>
<text text-anchor="start" x="205.5" y="-518.3" font-family="Arial" font-weight="bold" font-size="14.00">Error</text>
<polygon fill="none" stroke="black" points="193,-502 193,-541 254,-541 254,-502 193,-502"/>
</g>
<!-- ndError&#45;&gt;ndDbcHelper -->
<g id="edge1" class="edge"><title>ndError&#45;&gt;ndDbcHelper</title>
<path fill="none" stroke="black" d="M184.763,-514.265C153.579,-507.133 111.174,-492.267 87.5,-462 52.3305,-417.037 50.4395,-347.325 52.976,-306.469"/>
<polygon fill="black" stroke="black" points="53.7416,-296.245 57.4822,-306.553 53.3682,-301.231 52.9948,-306.217 52.9948,-306.217 52.9948,-306.217 53.3682,-301.231 48.5073,-305.881 53.7416,-296.245 53.7416,-296.245"/>
</g>
<!-- ndAmountSecrets -->
<g id="node12" class="node"><title>ndAmountSecrets</title>
<polygon fill="lightblue" stroke="none" points="105.5,-419.5 105.5,-456.5 235.5,-456.5 235.5,-419.5 105.5,-419.5"/>
<polygon fill="none" stroke="black" points="105.5,-419.5 105.5,-456.5 235.5,-456.5 235.5,-419.5 105.5,-419.5"/>
<text text-anchor="start" x="116.5" y="-435.3" font-family="Arial" font-weight="bold" font-size="14.00">AmountSecrets</text>
<polygon fill="none" stroke="black" points="104.5,-419 104.5,-458 236.5,-458 236.5,-419 104.5,-419"/>
</g>
<!-- ndError&#45;&gt;ndAmountSecrets -->
<g id="edge2" class="edge"><title>ndError&#45;&gt;ndAmountSecrets</title>
<path fill="none" stroke="black" d="M208.737,-497.937C203.212,-489.494 196.835,-479.748 190.892,-470.665"/>
<polygon fill="black" stroke="black" points="185.368,-462.223 194.609,-468.127 188.106,-466.407 190.843,-470.591 190.843,-470.591 190.843,-470.591 188.106,-466.407 187.078,-473.055 185.368,-462.223 185.368,-462.223"/>
</g>
<!-- ndDbcContent -->
<g id="node13" class="node"><title>ndDbcContent</title>
<polygon fill="lightblue" stroke="none" points="292.5,-336.5 292.5,-373.5 397.5,-373.5 397.5,-336.5 292.5,-336.5"/>
<polygon fill="none" stroke="black" points="292.5,-336.5 292.5,-373.5 397.5,-373.5 397.5,-336.5 292.5,-336.5"/>
<text text-anchor="start" x="303.5" y="-352.3" font-family="Arial" font-weight="bold" font-size="14.00">DbcContent</text>
<polygon fill="none" stroke="black" points="291,-336 291,-375 398,-375 398,-336 291,-336"/>
</g>
<!-- ndError&#45;&gt;ndDbcContent -->
<g id="edge3" class="edge"><title>ndError&#45;&gt;ndDbcContent</title>
<path fill="none" stroke="black" d="M240.325,-497.697C261.546,-468.934 298.117,-419.366 321.799,-387.269"/>
<polygon fill="black" stroke="black" points="327.818,-379.11 325.502,-389.828 324.85,-383.133 321.881,-387.157 321.881,-387.157 321.881,-387.157 324.85,-383.133 318.26,-384.485 327.818,-379.11 327.818,-379.11"/>
</g>
<!-- ndDbc -->
<g id="node15" class="node"><title>ndDbc</title>
<polygon fill="lightblue" stroke="none" points="469.5,-253.5 469.5,-290.5 519.5,-290.5 519.5,-253.5 469.5,-253.5"/>
<polygon fill="none" stroke="black" points="469.5,-253.5 469.5,-290.5 519.5,-290.5 519.5,-253.5 469.5,-253.5"/>
<text text-anchor="start" x="480.5" y="-269.3" font-family="Arial" font-weight="bold" font-size="14.00">Dbc</text>
<polygon fill="none" stroke="black" points="468.5,-253 468.5,-292 520.5,-292 520.5,-253 468.5,-253"/>
</g>
<!-- ndError&#45;&gt;ndDbc -->
<g id="edge4" class="edge"><title>ndError&#45;&gt;ndDbc</title>
<path fill="none" stroke="black" d="M260.025,-497.957C300.337,-472.093 365.936,-427.024 414.5,-379 437.442,-356.313 459.277,-326.787 474.321,-304.743"/>
<polygon fill="black" stroke="black" points="479.94,-296.393 478.091,-307.202 477.149,-300.541 474.357,-304.689 474.357,-304.689 474.357,-304.689 477.149,-300.541 470.624,-302.177 479.94,-296.393 479.94,-296.393"/>
</g>
<!-- ndNodeSignature -->
<g id="node3" class="node"><title>ndNodeSignature</title>
<polygon fill="lightblue" stroke="none" points="1280.5,-170.5 1280.5,-207.5 1406.5,-207.5 1406.5,-170.5 1280.5,-170.5"/>
<polygon fill="none" stroke="black" points="1280.5,-170.5 1280.5,-207.5 1406.5,-207.5 1406.5,-170.5 1280.5,-170.5"/>
<text text-anchor="start" x="1291.5" y="-186.3" font-family="Arial" font-weight="bold" font-size="14.00">NodeSignature</text>
<polygon fill="none" stroke="black" points="1279.5,-170 1279.5,-209 1407.5,-209 1407.5,-170 1279.5,-170"/>
</g>
<!-- ndSimpleKeyManager -->
<g id="node6" class="node"><title>ndSimpleKeyManager</title>
<polygon fill="lightblue" stroke="none" points="819.5,-87.5 819.5,-124.5 977.5,-124.5 977.5,-87.5 819.5,-87.5"/>
<polygon fill="none" stroke="black" points="819.5,-87.5 819.5,-124.5 977.5,-124.5 977.5,-87.5 819.5,-87.5"/>
<text text-anchor="start" x="830.5" y="-103.3" font-family="Arial" font-weight="bold" font-size="14.00">SimpleKeyManager</text>
<polygon fill="none" stroke="black" points="818.5,-87 818.5,-126 978.5,-126 978.5,-87 818.5,-87"/>
</g>
<!-- ndNodeSignature&#45;&gt;ndSimpleKeyManager -->
<g id="edge5" class="edge"><title>ndNodeSignature&#45;&gt;ndSimpleKeyManager</title>
<path fill="none" stroke="black" d="M1271.19,-167.922C1268.26,-167.245 1265.36,-166.601 1262.5,-166 1153.08,-142.99 1123.74,-148.741 1013.5,-130 1008.05,-129.073 1002.46,-128.089 996.816,-127.071"/>
<polygon fill="black" stroke="black" points="986.633,-125.206 997.28,-122.581 991.551,-126.107 996.469,-127.007 996.469,-127.007 996.469,-127.007 991.551,-126.107 995.659,-131.434 986.633,-125.206 986.633,-125.206"/>
</g>
<!-- ndGenesisDbcShare -->
<g id="node7" class="node"><title>ndGenesisDbcShare</title>
<polygon fill="lightblue" stroke="none" points="1334.5,-87.5 1334.5,-124.5 1483.5,-124.5 1483.5,-87.5 1334.5,-87.5"/>
<polygon fill="none" stroke="black" points="1334.5,-87.5 1334.5,-124.5 1483.5,-124.5 1483.5,-87.5 1334.5,-87.5"/>
<text text-anchor="start" x="1345.5" y="-103.3" font-family="Arial" font-weight="bold" font-size="14.00">GenesisDbcShare</text>
<polygon fill="none" stroke="black" points="1333,-87 1333,-126 1484,-126 1484,-87 1333,-87"/>
</g>
<!-- ndNodeSignature&#45;&gt;ndGenesisDbcShare -->
<g id="edge6" class="edge"><title>ndNodeSignature&#45;&gt;ndGenesisDbcShare</title>
<path fill="none" stroke="black" d="M1361.61,-165.937C1368.1,-157.842 1375.56,-148.55 1382.59,-139.792"/>
<polygon fill="black" stroke="black" points="1382.76,-139.582 1383.39,-132.399 1390.27,-130.223 1389.63,-137.406 1382.76,-139.582"/>
</g>
<!-- ndMintNode -->
<g id="node11" class="node"><title>ndMintNode</title>
<polygon fill="lightblue" stroke="none" points="1253.5,-4.5 1253.5,-41.5 1342.5,-41.5 1342.5,-4.5 1253.5,-4.5"/>
<polygon fill="none" stroke="black" points="1253.5,-4.5 1253.5,-41.5 1342.5,-41.5 1342.5,-4.5 1253.5,-4.5"/>
<text text-anchor="start" x="1264.5" y="-20.3" font-family="Arial" font-weight="bold" font-size="14.00">MintNode</text>
<polygon fill="none" stroke="black" points="1252,-4 1252,-43 1343,-43 1343,-4 1252,-4"/>
</g>
<!-- ndNodeSignature&#45;&gt;ndMintNode -->
<g id="edge7" class="edge"><title>ndNodeSignature&#45;&gt;ndMintNode</title>
<path fill="none" stroke="black" d="M1331.47,-165.975C1326.21,-155.32 1320.37,-142.269 1316.5,-130 1308.99,-106.16 1304.13,-78.2962 1301.21,-57.1926"/>
<polygon fill="black" stroke="black" points="1299.89,-47.1271 1305.65,-56.4577 1300.54,-52.0847 1301.19,-57.0423 1301.19,-57.0423 1301.19,-57.0423 1300.54,-52.0847 1296.72,-57.6269 1299.89,-47.1271 1299.89,-47.1271"/>
</g>
<!-- ndSpentProofShare -->
<g id="node20" class="node"><title>ndSpentProofShare</title>
<polygon fill="lightblue" stroke="none" points="1031.5,-87.5 1031.5,-124.5 1174.5,-124.5 1174.5,-87.5 1031.5,-87.5"/>
<polygon fill="none" stroke="black" points="1031.5,-87.5 1031.5,-124.5 1174.5,-124.5 1174.5,-87.5 1031.5,-87.5"/>
<text text-anchor="start" x="1042.5" y="-103.3" font-family="Arial" font-weight="bold" font-size="14.00">SpentProofShare</text>
<polygon fill="none" stroke="black" points="1030,-87 1030,-126 1175,-126 1175,-87 1030,-87"/>
</g>
<!-- ndNodeSignature&#45;&gt;ndSpentProofShare -->
<g id="edge8" class="edge"><title>ndNodeSignature&#45;&gt;ndSpentProofShare</title>
<path fill="none" stroke="black" d="M1276.37,-165.937C1246.85,-156.017 1211.98,-144.297 1181.25,-133.967"/>
<polygon fill="black" stroke="black" points="1181.06,-133.905 1174.1,-135.785 1169.69,-130.082 1176.65,-128.202 1181.06,-133.905"/>
</g>
<!-- ndKeyManager -->
<g id="node4" class="node"><title>ndKeyManager</title>
<polygon fill="lightgreen" stroke="none" points="843.5,-170.5 843.5,-207.5 954.5,-207.5 954.5,-170.5 843.5,-170.5"/>
<polygon fill="none" stroke="black" points="843.5,-170.5 843.5,-207.5 954.5,-207.5 954.5,-170.5 843.5,-170.5"/>
<text text-anchor="start" x="854.5" y="-186.3" font-family="Arial" font-weight="bold" font-size="14.00">KeyManager</text>
<polygon fill="none" stroke="black" points="842,-170 842,-209 955,-209 955,-170 842,-170"/>
</g>
<!-- ndKeyManager&#45;&gt;ndSimpleKeyManager -->
<g id="edge9" class="edge"><title>ndKeyManager&#45;&gt;ndSimpleKeyManager</title>
<path fill="none" stroke="black" stroke-dasharray="5,2" d="M898.5,-165.937C898.5,-158.016 898.5,-148.949 898.5,-140.357"/>
<polygon fill="none" stroke="black" points="902,-140.223 898.5,-130.223 895,-140.223 902,-140.223"/>
</g>
<!-- ndSimpleSigner -->
<g id="node5" class="node"><title>ndSimpleSigner</title>
<polygon fill="lightblue" stroke="none" points="553.5,-170.5 553.5,-207.5 669.5,-207.5 669.5,-170.5 553.5,-170.5"/>
<polygon fill="none" stroke="black" points="553.5,-170.5 553.5,-207.5 669.5,-207.5 669.5,-170.5 553.5,-170.5"/>
<text text-anchor="start" x="564.5" y="-186.3" font-family="Arial" font-weight="bold" font-size="14.00">SimpleSigner</text>
<polygon fill="none" stroke="black" points="552.5,-170 552.5,-209 670.5,-209 670.5,-170 552.5,-170"/>
</g>
<!-- ndSimpleSigner&#45;&gt;ndSimpleKeyManager -->
<g id="edge10" class="edge"><title>ndSimpleSigner&#45;&gt;ndSimpleKeyManager</title>
<path fill="none" stroke="black" stroke-dasharray="5,2" d="M678.677,-168.816C681.998,-167.86 685.286,-166.917 688.5,-166 726.594,-155.129 768.644,-143.368 805.047,-133.262"/>
<polygon fill="black" stroke="black" points="805.092,-133.249 809.804,-127.791 816.655,-130.042 811.942,-135.5 805.092,-133.249"/>
</g>
<!-- ndGenesisDbcShare&#45;&gt;ndMintNode -->
<g id="edge11" class="edge"><title>ndGenesisDbcShare&#45;&gt;ndMintNode</title>
<path fill="none" stroke="black" d="M1377.58,-82.937C1364.94,-73.7108 1350.16,-62.9283 1336.77,-53.1549"/>
<polygon fill="black" stroke="black" points="1328.64,-47.2229 1339.37,-49.4826 1332.68,-50.1703 1336.72,-53.1177 1336.72,-53.1177 1336.72,-53.1177 1332.68,-50.1703 1334.06,-56.7527 1328.64,-47.2229 1328.64,-47.2229"/>
</g>
<!-- ndReissueTransaction -->
<g id="node8" class="node"><title>ndReissueTransaction</title>
<polygon fill="lightblue" stroke="none" points="318.5,-170.5 318.5,-207.5 479.5,-207.5 479.5,-170.5 318.5,-170.5"/>
<polygon fill="none" stroke="black" points="318.5,-170.5 318.5,-207.5 479.5,-207.5 479.5,-170.5 318.5,-170.5"/>
<text text-anchor="start" x="329.5" y="-186.3" font-family="Arial" font-weight="bold" font-size="14.00">ReissueTransaction</text>
<polygon fill="none" stroke="black" points="317,-170 317,-209 480,-209 480,-170 317,-170"/>
</g>
<!-- ndReissueRequest -->
<g id="node9" class="node"><title>ndReissueRequest</title>
<polygon fill="lightblue" stroke="none" points="436.5,-87.5 436.5,-124.5 571.5,-124.5 571.5,-87.5 436.5,-87.5"/>
<polygon fill="none" stroke="black" points="436.5,-87.5 436.5,-124.5 571.5,-124.5 571.5,-87.5 436.5,-87.5"/>
<text text-anchor="start" x="447.5" y="-103.3" font-family="Arial" font-weight="bold" font-size="14.00">ReissueRequest</text>
<polygon fill="none" stroke="black" points="435,-87 435,-126 572,-126 572,-87 435,-87"/>
</g>
<!-- ndReissueTransaction&#45;&gt;ndReissueRequest -->
<g id="edge12" class="edge"><title>ndReissueTransaction&#45;&gt;ndReissueRequest</title>
<path fill="none" stroke="black" d="M427.748,-165.937C439.031,-157.233 452.11,-147.144 464.191,-137.824"/>
<polygon fill="black" stroke="black" points="464.543,-137.553 466.85,-130.721 474.044,-130.223 471.737,-137.055 464.543,-137.553"/>
</g>
<!-- ndTransactionBuilder -->
<g id="node17" class="node"><title>ndTransactionBuilder</title>
<polygon fill="lightblue" stroke="none" points="132.5,-87.5 132.5,-124.5 288.5,-124.5 288.5,-87.5 132.5,-87.5"/>
<polygon fill="none" stroke="black" points="132.5,-87.5 132.5,-124.5 288.5,-124.5 288.5,-87.5 132.5,-87.5"/>
<text text-anchor="start" x="143.5" y="-103.3" font-family="Arial" font-weight="bold" font-size="14.00">TransactionBuilder</text>
<polygon fill="none" stroke="black" points="131.5,-87 131.5,-126 289.5,-126 289.5,-87 131.5,-87"/>
</g>
<!-- ndReissueTransaction&#45;&gt;ndTransactionBuilder -->
<g id="edge13" class="edge"><title>ndReissueTransaction&#45;&gt;ndTransactionBuilder</title>
<path fill="none" stroke="black" d="M346.132,-165.937C323.208,-156.06 296.144,-144.4 272.246,-134.103"/>
<polygon fill="black" stroke="black" points="262.913,-130.082 273.878,-129.907 267.505,-132.061 272.097,-134.039 272.097,-134.039 272.097,-134.039 267.505,-132.061 270.317,-138.172 262.913,-130.082 262.913,-130.082"/>
</g>
<!-- ndReissueRequestBuilder -->
<g id="node18" class="node"><title>ndReissueRequestBuilder</title>
<polygon fill="lightblue" stroke="none" points="411.5,-4.5 411.5,-41.5 596.5,-41.5 596.5,-4.5 411.5,-4.5"/>
<polygon fill="none" stroke="black" points="411.5,-4.5 411.5,-41.5 596.5,-41.5 596.5,-4.5 411.5,-4.5"/>
<text text-anchor="start" x="422.5" y="-20.3" font-family="Arial" font-weight="bold" font-size="14.00">ReissueRequestBuilder</text>
<polygon fill="none" stroke="black" points="410,-4 410,-43 597,-43 597,-4 410,-4"/>
</g>
<!-- ndReissueTransaction&#45;&gt;ndReissueRequestBuilder -->
<g id="edge14" class="edge"><title>ndReissueTransaction&#45;&gt;ndReissueRequestBuilder</title>
<path fill="none" stroke="black" stroke-dasharray="5,2" d="M397.671,-165.656C397.917,-142.942 401.286,-107.975 417.5,-83 424.802,-71.752 435.105,-62.1069 446.054,-54.0812"/>
<polygon fill="black" stroke="black" points="446.299,-53.9144 449.011,-47.2328 456.222,-47.1665 453.51,-53.8481 446.299,-53.9144"/>
</g>
<!-- ndDbcBuilder -->
<g id="node19" class="node"><title>ndDbcBuilder</title>
<polygon fill="lightblue" stroke="none" points="607.5,-87.5 607.5,-124.5 708.5,-124.5 708.5,-87.5 607.5,-87.5"/>
<polygon fill="none" stroke="black" points="607.5,-87.5 607.5,-124.5 708.5,-124.5 708.5,-87.5 607.5,-87.5"/>
<text text-anchor="start" x="618.5" y="-103.3" font-family="Arial" font-weight="bold" font-size="14.00">DbcBuilder</text>
<polygon fill="none" stroke="black" points="606,-87 606,-126 709,-126 709,-87 606,-87"/>
</g>
<!-- ndReissueTransaction&#45;&gt;ndDbcBuilder -->
<g id="edge15" class="edge"><title>ndReissueTransaction&#45;&gt;ndDbcBuilder</title>
<path fill="none" stroke="black" stroke-dasharray="5,2" d="M473.456,-165.965C505.765,-156.152 544.229,-144.34 586.192,-131.029"/>
<polygon fill="black" stroke="black" points="586.385,-130.968 590.89,-125.337 597.82,-127.331 593.315,-132.961 586.385,-130.968"/>
</g>
<!-- ndReissueRequest&#45;&gt;ndMintNode -->
<g id="edge16" class="edge"><title>ndReissueRequest&#45;&gt;ndMintNode</title>
<path fill="none" stroke="black" stroke-dasharray="5,2" d="M580.25,-84.7154C583.365,-84.0955 586.457,-83.5197 589.5,-83 824.819,-42.8079 1109.04,-29.9507 1233.68,-26.0698"/>
<polygon fill="black" stroke="black" points="1243.81,-25.7634 1233.95,-30.5638 1238.82,-25.9146 1233.82,-26.0658 1233.82,-26.0658 1233.82,-26.0658 1238.82,-25.9146 1233.68,-21.5679 1243.81,-25.7634 1243.81,-25.7634"/>
</g>
<!-- ndReissueRequest&#45;&gt;ndReissueRequestBuilder -->
<g id="edge17" class="edge"><title>ndReissueRequest&#45;&gt;ndReissueRequestBuilder</title>
<path fill="none" stroke="black" d="M503.5,-82.937C503.5,-75.0164 503.5,-65.9488 503.5,-57.3574"/>
<polygon fill="black" stroke="black" points="503.5,-47.2229 508,-57.2229 503.5,-52.2229 503.5,-57.2229 503.5,-57.2229 503.5,-57.2229 503.5,-52.2229 499,-57.223 503.5,-47.2229 503.5,-47.2229"/>
</g>
<!-- ndReissueShare -->
<g id="node10" class="node"><title>ndReissueShare</title>
<polygon fill="lightblue" stroke="none" points="1125.5,-170.5 1125.5,-207.5 1244.5,-207.5 1244.5,-170.5 1125.5,-170.5"/>
<polygon fill="none" stroke="black" points="1125.5,-170.5 1125.5,-207.5 1244.5,-207.5 1244.5,-170.5 1125.5,-170.5"/>
<text text-anchor="start" x="1136.5" y="-186.3" font-family="Arial" font-weight="bold" font-size="14.00">ReissueShare</text>
<polygon fill="none" stroke="black" points="1124,-170 1124,-209 1245,-209 1245,-170 1124,-170"/>
</g>
<!-- ndReissueShare&#45;&gt;ndMintNode -->
<g id="edge18" class="edge"><title>ndReissueShare&#45;&gt;ndMintNode</title>
<path fill="none" stroke="black" d="M1200.21,-165.697C1219.95,-137.056 1253.89,-87.7871 1276.02,-55.6794"/>
<polygon fill="black" stroke="black" points="1281.92,-47.1098 1279.95,-57.8976 1279.08,-51.2271 1276.25,-55.3444 1276.25,-55.3444 1276.25,-55.3444 1279.08,-51.2271 1272.54,-52.7912 1281.92,-47.1098 1281.92,-47.1098"/>
</g>
<!-- ndReissueShare&#45;&gt;ndDbcBuilder -->
<g id="edge19" class="edge"><title>ndReissueShare&#45;&gt;ndDbcBuilder</title>
<path fill="none" stroke="black" stroke-dasharray="5,2" d="M1115.75,-168.008C1112.63,-167.288 1109.54,-166.613 1106.5,-166 972.702,-138.994 936.732,-148.539 801.5,-130 778.019,-126.781 752.443,-122.905 729.449,-119.285"/>
<polygon fill="black" stroke="black" points="729.18,-119.242 722.628,-122.253 717.329,-117.363 723.881,-114.352 729.18,-119.242"/>
</g>
<!-- ndAmountSecrets&#45;&gt;ndDbcHelper -->
<g id="edge20" class="edge"><title>ndAmountSecrets&#45;&gt;ndDbcHelper</title>
<path fill="none" stroke="black" d="M153.534,-414.878C145.531,-404.091 135.913,-390.958 127.5,-379 110.159,-354.353 91.1253,-325.996 77.1336,-304.892"/>
<polygon fill="black" stroke="black" points="71.4655,-296.323 80.7358,-302.181 74.2241,-300.493 76.9827,-304.664 76.9827,-304.664 76.9827,-304.664 74.2241,-300.493 73.2295,-307.146 71.4655,-296.323 71.4655,-296.323"/>
</g>
<!-- ndAmountSecrets&#45;&gt;ndDbcContent -->
<g id="edge21" class="edge"><title>ndAmountSecrets&#45;&gt;ndDbcContent</title>
<path fill="none" stroke="black" stroke-dasharray="5,2" d="M218.969,-414.937C239.998,-405.148 264.79,-393.606 286.764,-383.377"/>
<polygon fill="black" stroke="black" points="295.99,-379.082 288.823,-387.382 291.457,-381.193 286.924,-383.303 286.924,-383.303 286.924,-383.303 291.457,-381.193 285.025,-379.223 295.99,-379.082 295.99,-379.082"/>
</g>
<!-- ndAmountSecrets&#45;&gt;ndTransactionBuilder -->
<g id="edge22" class="edge"><title>ndAmountSecrets&#45;&gt;ndTransactionBuilder</title>
<path fill="none" stroke="black" stroke-dasharray="5,2" d="M167.868,-414.831C163.114,-367.589 155.657,-255.552 179.5,-166 181.954,-156.783 186.075,-147.394 190.523,-138.914"/>
<polygon fill="black" stroke="black" points="195.416,-130.119 194.487,-141.046 192.985,-134.489 190.554,-138.858 190.554,-138.858 190.554,-138.858 192.985,-134.489 186.622,-136.67 195.416,-130.119 195.416,-130.119"/>
</g>
<!-- ndDbcContent&#45;&gt;ndDbcHelper -->
<g id="edge23" class="edge"><title>ndDbcContent&#45;&gt;ndDbcHelper</title>
<path fill="none" stroke="black" stroke-dasharray="5,2" d="M282.717,-337.123C235.71,-323.903 171.125,-305.738 122.994,-292.202"/>
<polygon fill="black" stroke="black" points="113.292,-289.473 124.137,-287.848 118.105,-290.827 122.919,-292.18 122.919,-292.18 122.919,-292.18 118.105,-290.827 121.7,-296.512 113.292,-289.473 113.292,-289.473"/>
</g>
<!-- ndDbcContent&#45;&gt;ndGenesisDbcShare -->
<g id="edge24" class="edge"><title>ndDbcContent&#45;&gt;ndGenesisDbcShare</title>
<path fill="none" stroke="black" d="M406.104,-353.845C538.056,-351.57 857.389,-341.405 1120.5,-296 1258.52,-272.182 1339.5,-324.316 1424.5,-213 1440.01,-192.688 1434.16,-163.631 1425.46,-141.153"/>
<polygon fill="black" stroke="black" points="1425.45,-141.122 1419.42,-137.166 1420.75,-130.079 1426.78,-134.036 1425.45,-141.122"/>
</g>
<!-- ndDbcContent&#45;&gt;ndReissueTransaction -->
<g id="edge25" class="edge"><title>ndDbcContent&#45;&gt;ndReissueTransaction</title>
<path fill="none" stroke="black" d="M352.008,-331.697C361.157,-303.913 376.697,-256.716 387.27,-224.606"/>
<polygon fill="black" stroke="black" points="387.302,-224.508 385.379,-217.558 391.055,-213.11 392.978,-220.06 387.302,-224.508"/>
</g>
<!-- ndDbcContent&#45;&gt;ndDbc -->
<g id="edge26" class="edge"><title>ndDbcContent&#45;&gt;ndDbc</title>
<path fill="none" stroke="black" d="M386.283,-331.937C405.885,-321.352 429.281,-308.718 449.296,-297.91"/>
<polygon fill="black" stroke="black" points="449.463,-297.82 452.842,-291.449 460.022,-292.118 456.643,-298.489 449.463,-297.82"/>
</g>
<!-- ndDbcTransaction -->
<g id="node14" class="node"><title>ndDbcTransaction</title>
<polygon fill="lightblue" stroke="none" points="1117.5,-336.5 1117.5,-373.5 1251.5,-373.5 1251.5,-336.5 1117.5,-336.5"/>
<polygon fill="none" stroke="black" points="1117.5,-336.5 1117.5,-373.5 1251.5,-373.5 1251.5,-336.5 1117.5,-336.5"/>
<text text-anchor="start" x="1128.5" y="-352.3" font-family="Arial" font-weight="bold" font-size="14.00">DbcTransaction</text>
<polygon fill="none" stroke="black" points="1116.5,-336 1116.5,-375 1252.5,-375 1252.5,-336 1116.5,-336"/>
</g>
<!-- ndDbcTransaction&#45;&gt;ndGenesisDbcShare -->
<g id="edge27" class="edge"><title>ndDbcTransaction&#45;&gt;ndGenesisDbcShare</title>
<path fill="none" stroke="black" d="M1260.59,-348.712C1332.58,-341.468 1433.12,-326.156 1457.5,-296 1493.82,-251.068 1477.24,-220.302 1457.5,-166 1454.03,-156.44 1448.23,-147.352 1441.81,-139.313"/>
<polygon fill="black" stroke="black" points="1441.66,-139.133 1434.7,-137.22 1433.79,-130.066 1440.75,-131.979 1441.66,-139.133"/>
</g>
<!-- ndDbcTransaction&#45;&gt;ndReissueTransaction -->
<g id="edge28" class="edge"><title>ndDbcTransaction&#45;&gt;ndReissueTransaction</title>
<path fill="none" stroke="black" d="M1108.21,-352.613C931.497,-347.649 505.048,-332.044 451.5,-296 426.802,-279.375 413.068,-247.653 405.808,-223.317"/>
<polygon fill="black" stroke="black" points="403.08,-213.405 410.072,-221.852 404.407,-218.226 405.734,-223.046 405.734,-223.046 405.734,-223.046 404.407,-218.226 401.395,-224.241 403.08,-213.405 403.08,-213.405"/>
</g>
<!-- ndDbcTransaction&#45;&gt;ndReissueShare -->
<g id="edge29" class="edge"><title>ndDbcTransaction&#45;&gt;ndReissueShare</title>
<path fill="none" stroke="black" d="M1184.5,-331.697C1184.5,-304.158 1184.5,-257.546 1184.5,-225.458"/>
<polygon fill="black" stroke="black" points="1184.5,-225.11 1180.5,-219.11 1184.5,-213.11 1188.5,-219.11 1184.5,-225.11"/>
</g>
<!-- ndDbcTransaction&#45;&gt;ndMintNode -->
<g id="edge30" class="edge"><title>ndDbcTransaction&#45;&gt;ndMintNode</title>
<path fill="none" stroke="black" stroke-dasharray="5,2" d="M1260.65,-349.503C1338.54,-342.711 1452.19,-327.587 1481.5,-296 1546.18,-226.306 1558.72,-158.937 1501.5,-83 1484.47,-60.4013 1414.44,-43.861 1361.13,-34.2446"/>
<polygon fill="black" stroke="black" points="1351.05,-32.4718 1361.68,-29.7722 1355.98,-33.338 1360.9,-34.2042 1360.9,-34.2042 1360.9,-34.2042 1355.98,-33.338 1360.12,-38.6362 1351.05,-32.4718 1351.05,-32.4718"/>
</g>
<!-- ndDbcTransaction&#45;&gt;ndDbc -->
<g id="edge31" class="edge"><title>ndDbcTransaction&#45;&gt;ndDbc</title>
<path fill="none" stroke="black" d="M1108.35,-345.561C964.635,-328.69 657.377,-292.62 540.722,-278.926"/>
<polygon fill="black" stroke="black" points="540.664,-278.919 534.239,-282.193 528.746,-277.52 535.172,-274.247 540.664,-278.919"/>
</g>
<!-- ndDbc&#45;&gt;ndReissueTransaction -->
<g id="edge32" class="edge"><title>ndDbc&#45;&gt;ndReissueTransaction</title>
<path fill="none" stroke="black" d="M467.759,-248.937C457.546,-240.32 445.724,-230.346 434.771,-221.104"/>
<polygon fill="black" stroke="black" points="434.602,-220.961 427.437,-220.149 425.431,-213.223 432.596,-214.035 434.602,-220.961"/>
</g>
<!-- ndDbc&#45;&gt;ndTransactionBuilder -->
<g id="edge33" class="edge"><title>ndDbc&#45;&gt;ndTransactionBuilder</title>
<path fill="none" stroke="black" stroke-dasharray="5,2" d="M460.312,-270.114C388.75,-266.422 227.023,-253.666 193.5,-213 177.22,-193.252 183.423,-164.151 192.605,-141.512"/>
<polygon fill="black" stroke="black" points="192.695,-141.31 191.48,-134.202 197.574,-130.347 198.789,-137.455 192.695,-141.31"/>
</g>
<!-- ndDbc&#45;&gt;ndDbcBuilder -->
<g id="edge34" class="edge"><title>ndDbc&#45;&gt;ndDbcBuilder</title>
<path fill="none" stroke="black" d="M498.274,-248.719C503.195,-225.398 513.867,-189.354 535.5,-166 544.17,-156.641 567.447,-144.692 591.374,-134.036"/>
<polygon fill="black" stroke="black" points="600.547,-130.023 593.189,-138.154 595.966,-132.027 591.386,-134.031 591.386,-134.031 591.386,-134.031 595.966,-132.027 589.582,-129.908 600.547,-130.023 600.547,-130.023"/>
</g>
<!-- ndSpentProof -->
<g id="node21" class="node"><title>ndSpentProof</title>
<polygon fill="lightblue" stroke="none" points="706.5,-170.5 706.5,-207.5 807.5,-207.5 807.5,-170.5 706.5,-170.5"/>
<polygon fill="none" stroke="black" points="706.5,-170.5 706.5,-207.5 807.5,-207.5 807.5,-170.5 706.5,-170.5"/>
<text text-anchor="start" x="717.5" y="-186.3" font-family="Arial" font-weight="bold" font-size="14.00">SpentProof</text>
<polygon fill="none" stroke="black" points="705,-170 705,-209 808,-209 808,-170 705,-170"/>
</g>
<!-- ndDbc&#45;&gt;ndSpentProof -->
<g id="edge35" class="edge"><title>ndDbc&#45;&gt;ndSpentProof</title>
<path fill="none" stroke="black" stroke-dasharray="5,2" d="M528.732,-261.359C565.404,-250.444 625.555,-232.392 686.843,-213.182"/>
<polygon fill="black" stroke="black" points="696.685,-210.089 688.494,-217.38 691.915,-211.588 687.145,-213.087 687.145,-213.087 687.145,-213.087 691.915,-211.588 685.796,-208.793 696.685,-210.089 696.685,-210.089"/>
</g>
<!-- ndDbcPacket -->
<g id="node23" class="node"><title>ndDbcPacket</title>
<polygon fill="lightblue" stroke="none" points="990.5,-170.5 990.5,-207.5 1088.5,-207.5 1088.5,-170.5 990.5,-170.5"/>
<polygon fill="none" stroke="black" points="990.5,-170.5 990.5,-207.5 1088.5,-207.5 1088.5,-170.5 990.5,-170.5"/>
<text text-anchor="start" x="1001.5" y="-186.3" font-family="Arial" font-weight="bold" font-size="14.00">DbcPacket</text>
<polygon fill="none" stroke="black" points="989.5,-170 989.5,-209 1089.5,-209 1089.5,-170 989.5,-170"/>
</g>
<!-- ndDbc&#45;&gt;ndDbcPacket -->
<g id="edge36" class="edge"><title>ndDbc&#45;&gt;ndDbcPacket</title>
<path fill="none" stroke="black" stroke-dasharray="5,2" d="M528.516,-269.703C605.595,-265.132 799.44,-250.823 969.305,-213.508"/>
<polygon fill="black" stroke="black" points="969.522,-213.459 974.504,-208.246 981.233,-210.84 976.25,-216.053 969.522,-213.459"/>
</g>
<!-- ndOutput -->
<g id="node16" class="node"><title>ndOutput</title>
<polygon fill="lightblue" stroke="none" points="211.5,-170.5 211.5,-207.5 281.5,-207.5 281.5,-170.5 211.5,-170.5"/>
<polygon fill="none" stroke="black" points="211.5,-170.5 211.5,-207.5 281.5,-207.5 281.5,-170.5 211.5,-170.5"/>
<text text-anchor="start" x="222.5" y="-186.3" font-family="Arial" font-weight="bold" font-size="14.00">Output</text>
<polygon fill="none" stroke="black" points="210.5,-170 210.5,-209 282.5,-209 282.5,-170 210.5,-170"/>
</g>
<!-- ndOutput&#45;&gt;ndTransactionBuilder -->
<g id="edge37" class="edge"><title>ndOutput&#45;&gt;ndTransactionBuilder</title>
<path fill="none" stroke="black" stroke-dasharray="5,2" d="M236.472,-165.937C233.068,-158.278 229.187,-149.545 225.482,-141.209"/>
<polygon fill="black" stroke="black" points="225.473,-141.189 219.381,-137.33 220.599,-130.223 226.691,-134.081 225.473,-141.189"/>
</g>
<!-- ndSpentProofShare&#45;&gt;ndReissueRequestBuilder -->
<g id="edge38" class="edge"><title>ndSpentProofShare&#45;&gt;ndReissueRequestBuilder</title>
<path fill="none" stroke="black" stroke-dasharray="5,2" d="M1021.73,-87.7192C1012.9,-86.013 1004.02,-84.3999 995.5,-83 866.423,-61.7981 717.089,-45.1427 617.109,-35.1136"/>
<polygon fill="black" stroke="black" points="617.106,-35.1135 610.739,-38.4988 605.166,-33.9236 611.533,-30.5382 617.106,-35.1135"/>
</g>
<!-- ndDerivedKeySet -->
<g id="node22" class="node"><title>ndDerivedKeySet</title>
<polygon fill="lightblue" stroke="none" points="976.5,-253.5 976.5,-290.5 1102.5,-290.5 1102.5,-253.5 976.5,-253.5"/>
<polygon fill="none" stroke="black" points="976.5,-253.5 976.5,-290.5 1102.5,-290.5 1102.5,-253.5 976.5,-253.5"/>
<text text-anchor="start" x="987.5" y="-269.3" font-family="Arial" font-weight="bold" font-size="14.00">DerivedKeySet</text>
<polygon fill="none" stroke="black" points="975.5,-253 975.5,-292 1103.5,-292 1103.5,-253 975.5,-253"/>
</g>
<!-- ndDerivedKeySet&#45;&gt;ndDbcPacket -->
<g id="edge39" class="edge"><title>ndDerivedKeySet&#45;&gt;ndDbcPacket</title>
<path fill="none" stroke="black" stroke-dasharray="5,2" d="M1039.5,-248.937C1039.5,-241.626 1039.5,-233.337 1039.5,-225.348"/>
<polygon fill="black" stroke="black" points="1039.5,-225.223 1035.5,-219.223 1039.5,-213.223 1043.5,-219.223 1039.5,-225.223"/>
</g>
</g>
</svg>
