<?xml version="1.0" encoding="UTF-8" standalone="no"?>
<!DOCTYPE svg PUBLIC "-//W3C//DTD SVG 1.1//EN"
 "http://www.w3.org/Graphics/SVG/1.1/DTD/svg11.dtd">
<!-- Generated by graphviz version 2.38.0 (20140413.2041)
 -->
<!-- Title: ml Pages: 1 -->
<svg width="1801pt" height="387pt"
 viewBox="0.00 0.00 1801.42 387.00" xmlns="http://www.w3.org/2000/svg" xmlns:xlink="http://www.w3.org/1999/xlink">
<g id="graph0" class="graph" transform="scale(1 1) rotate(0) translate(4 383)">
<title>ml</title>
<polygon fill="white" stroke="none" points="-4,4 -4,-383 1797.42,-383 1797.42,4 -4,4"/>
<!-- ndHash -->
<g id="node1" class="node"><title>ndHash</title>
<g id="a_node1_0"><a xlink:href="https://github.com/maidsafe/sn_dbc/blob/master/src/lib.rs#:~:text=struct%20Hash" xlink:title="&lt;TABLE&gt;">
<polygon fill="lightblue" stroke="none" points="675,-336.5 675,-373.5 733,-373.5 733,-336.5 675,-336.5"/>
<polygon fill="none" stroke="black" points="675,-336.5 675,-373.5 733,-373.5 733,-336.5 675,-336.5"/>
<text text-anchor="start" x="686" y="-352.3" font-family="Arial" font-weight="bold" font-size="14.00">Hash</text>
<polygon fill="none" stroke="black" points="674,-336 674,-375 734,-375 734,-336 674,-336"/>
</a>
</g>
</g>
<!-- ndSimpleKeyManager -->
<g id="node6" class="node"><title>ndSimpleKeyManager</title>
<g id="a_node6_1"><a xlink:href="https://github.com/maidsafe/sn_dbc/blob/master/src/key_manager.rs#:~:text=struct%20SimpleKeyManager" xlink:title="&lt;TABLE&gt;">
<polygon fill="lightblue" stroke="none" points="402,-170.5 402,-207.5 560,-207.5 560,-170.5 402,-170.5"/>
<polygon fill="none" stroke="black" points="402,-170.5 402,-207.5 560,-207.5 560,-170.5 402,-170.5"/>
<text text-anchor="start" x="413" y="-186.3" font-family="Arial" font-weight="bold" font-size="14.00">SimpleKeyManager</text>
<polygon fill="none" stroke="black" points="401,-170 401,-209 561,-209 561,-170 401,-170"/>
</a>
</g>
</g>
<!-- ndHash&#45;&gt;ndSimpleKeyManager -->
<g id="edge1" class="edge"><title>ndHash&#45;&gt;ndSimpleKeyManager</title>
<path fill="none" stroke="black" stroke-dasharray="5,2" d="M665.8,-349.975C628.073,-343.714 570.702,-329.15 533,-296 511.092,-276.737 497.442,-246.119 489.656,-222.818"/>
<polygon fill="black" stroke="black" points="486.576,-213.015 493.866,-221.207 488.075,-217.785 489.573,-222.556 489.573,-222.556 489.573,-222.556 488.075,-217.785 485.28,-223.904 486.576,-213.015 486.576,-213.015"/>
</g>
<!-- ndKeys -->
<g id="node7" class="node"><title>ndKeys</title>
<g id="a_node7_2"><a xlink:href="https://github.com/maidsafe/sn_dbc/blob/master/src/key_manager.rs#:~:text=struct%20Keys" xlink:title="&lt;TABLE&gt;">
<polygon fill="lightblue" stroke="none" points="419,-253.5 419,-290.5 477,-290.5 477,-253.5 419,-253.5"/>
<polygon fill="none" stroke="black" points="419,-253.5 419,-290.5 477,-290.5 477,-253.5 419,-253.5"/>
<text text-anchor="start" x="430" y="-269.3" font-family="Arial" font-weight="bold" font-size="14.00">Keys</text>
<polygon fill="none" stroke="black" points="418,-253 418,-292 478,-292 478,-253 418,-253"/>
</a>
</g>
</g>
<!-- ndHash&#45;&gt;ndKeys -->
<g id="edge2" class="edge"><title>ndHash&#45;&gt;ndKeys</title>
<path fill="none" stroke="black" stroke-dasharray="5,2" d="M665.938,-345.156C624.61,-334.648 556.888,-316.368 500,-296 498.582,-295.492 497.147,-294.965 495.704,-294.422"/>
<polygon fill="black" stroke="black" points="486.113,-290.656 497.066,-290.122 490.767,-292.483 495.421,-294.311 495.421,-294.311 495.421,-294.311 490.767,-292.483 493.776,-298.5 486.113,-290.656 486.113,-290.656"/>
</g>
<!-- ndDbcContent -->
<g id="node12" class="node"><title>ndDbcContent</title>
<g id="a_node12_3"><a xlink:href="https://github.com/maidsafe/sn_dbc/blob/master/src/dbc_content.rs#:~:text=struct%20DbcContent" xlink:title="&lt;TABLE&gt;">
<polygon fill="lightblue" stroke="none" points="1180,-170.5 1180,-207.5 1285,-207.5 1285,-170.5 1180,-170.5"/>
<polygon fill="none" stroke="black" points="1180,-170.5 1180,-207.5 1285,-207.5 1285,-170.5 1180,-170.5"/>
<text text-anchor="start" x="1191" y="-186.3" font-family="Arial" font-weight="bold" font-size="14.00">DbcContent</text>
<polygon fill="none" stroke="black" points="1178.5,-170 1178.5,-209 1285.5,-209 1285.5,-170 1178.5,-170"/>
</a>
</g>
</g>
<!-- ndHash&#45;&gt;ndDbcContent -->
<g id="edge3" class="edge"><title>ndHash&#45;&gt;ndDbcContent</title>
<path fill="none" stroke="black" d="M742.191,-355.097C814.344,-354.888 974.361,-347.996 1096,-296 1098.87,-294.773 1155.95,-250.191 1195.24,-219.38"/>
<polygon fill="black" stroke="black" points="1203.32,-213.035 1198.23,-222.748 1199.39,-216.121 1195.46,-219.208 1195.46,-219.208 1195.46,-219.208 1199.39,-216.121 1192.68,-215.667 1203.32,-213.035 1203.32,-213.035"/>
</g>
<!-- ndPublicKeyBlstMappable -->
<g id="node13" class="node"><title>ndPublicKeyBlstMappable</title>
<g id="a_node13_4"><a xlink:href="https://github.com/maidsafe/sn_dbc/blob/master/src/blst.rs#:~:text=struct%20PublicKeyBlstMappable" xlink:title="&lt;TABLE&gt;">
<polygon fill="lightblue" stroke="none" points="9,-170.5 9,-207.5 197,-207.5 197,-170.5 9,-170.5"/>
<polygon fill="none" stroke="black" points="9,-170.5 9,-207.5 197,-207.5 197,-170.5 9,-170.5"/>
<text text-anchor="start" x="20" y="-186.3" font-family="Arial" font-weight="bold" font-size="14.00">PublicKeyBlstMappable</text>
<polygon fill="none" stroke="black" points="8,-170 8,-209 198,-209 198,-170 8,-170"/>
</a>
</g>
</g>
<!-- ndHash&#45;&gt;ndPublicKeyBlstMappable -->
<g id="edge4" class="edge"><title>ndHash&#45;&gt;ndPublicKeyBlstMappable</title>
<path fill="none" stroke="black" stroke-dasharray="5,2" d="M665.995,-352.861C566.329,-348.099 299.639,-332.237 220,-296 182.486,-278.93 148.596,-245.401 127.063,-220.704"/>
<polygon fill="none" stroke="black" points="129.668,-218.366 120.516,-213.028 124.342,-222.908 129.668,-218.366"/>
</g>
<!-- ndSpentProofContent -->
<g id="node21" class="node"><title>ndSpentProofContent</title>
<g id="a_node21_5"><a xlink:href="https://github.com/maidsafe/sn_dbc/blob/master/src/spent_proof.rs#:~:text=struct%20SpentProofContent" xlink:title="&lt;TABLE&gt;">
<polygon fill="lightblue" stroke="none" points="903,-253.5 903,-290.5 1059,-290.5 1059,-253.5 903,-253.5"/>
<polygon fill="none" stroke="black" points="903,-253.5 903,-290.5 1059,-290.5 1059,-253.5 903,-253.5"/>
<text text-anchor="start" x="914" y="-269.3" font-family="Arial" font-weight="bold" font-size="14.00">SpentProofContent</text>
<polygon fill="none" stroke="black" points="902,-253 902,-292 1060,-292 1060,-253 902,-253"/>
</a>
</g>
</g>
<!-- ndHash&#45;&gt;ndSpentProofContent -->
<g id="edge5" class="edge"><title>ndHash&#45;&gt;ndSpentProofContent</title>
<path fill="none" stroke="black" d="M742.225,-343.322C780.778,-332.049 841.674,-314.242 892.317,-299.433"/>
<polygon fill="black" stroke="black" points="892.432,-299.399 897.068,-293.876 903.949,-296.031 899.313,-301.554 892.432,-299.399"/>
</g>
<!-- ndSpentProofShare -->
<g id="node22" class="node"><title>ndSpentProofShare</title>
<g id="a_node22_6"><a xlink:href="https://github.com/maidsafe/sn_dbc/blob/master/src/spent_proof.rs#:~:text=struct%20SpentProofShare" xlink:title="&lt;TABLE&gt;">
<polygon fill="lightblue" stroke="none" points="704,-170.5 704,-207.5 847,-207.5 847,-170.5 704,-170.5"/>
<polygon fill="none" stroke="black" points="704,-170.5 704,-207.5 847,-207.5 847,-170.5 704,-170.5"/>
<text text-anchor="start" x="715" y="-186.3" font-family="Arial" font-weight="bold" font-size="14.00">SpentProofShare</text>
<polygon fill="none" stroke="black" points="702.5,-170 702.5,-209 847.5,-209 847.5,-170 702.5,-170"/>
</a>
</g>
</g>
<!-- ndHash&#45;&gt;ndSpentProofShare -->
<g id="edge6" class="edge"><title>ndHash&#45;&gt;ndSpentProofShare</title>
<path fill="none" stroke="black" d="M704.57,-331.582C705.921,-309.435 710.146,-275.447 723,-249 727.957,-238.801 735.208,-229.034 742.731,-220.503"/>
<polygon fill="black" stroke="black" points="749.658,-213.038 746.155,-223.429 746.257,-216.703 742.856,-220.368 742.856,-220.368 742.856,-220.368 746.257,-216.703 739.558,-217.307 749.658,-213.038 749.658,-213.038"/>
</g>
<!-- ndSpentProof -->
<g id="node23" class="node"><title>ndSpentProof</title>
<g id="a_node23_7"><a xlink:href="https://github.com/maidsafe/sn_dbc/blob/master/src/spent_proof.rs#:~:text=struct%20SpentProof" xlink:title="&lt;TABLE&gt;">
<polygon fill="lightblue" stroke="none" points="1004,-170.5 1004,-207.5 1105,-207.5 1105,-170.5 1004,-170.5"/>
<polygon fill="none" stroke="black" points="1004,-170.5 1004,-207.5 1105,-207.5 1105,-170.5 1004,-170.5"/>
<text text-anchor="start" x="1015" y="-186.3" font-family="Arial" font-weight="bold" font-size="14.00">SpentProof</text>
<polygon fill="none" stroke="black" points="1002.5,-170 1002.5,-209 1105.5,-209 1105.5,-170 1002.5,-170"/>
</a>
</g>
</g>
<!-- ndHash&#45;&gt;ndSpentProof -->
<g id="edge7" class="edge"><title>ndHash&#45;&gt;ndSpentProof</title>
<path fill="none" stroke="black" stroke-dasharray="5,2" d="M742.002,-354.495C828.145,-353.592 1034.13,-346.123 1077,-296 1094.35,-275.717 1085.29,-245.361 1073.82,-222.411"/>
<polygon fill="black" stroke="black" points="1069.01,-213.392 1077.69,-220.097 1071.36,-217.804 1073.72,-222.215 1073.72,-222.215 1073.72,-222.215 1071.36,-217.804 1069.75,-224.333 1069.01,-213.392 1069.01,-213.392"/>
</g>
<!-- ndSpentBookNodeMock -->
<g id="node25" class="node"><title>ndSpentBookNodeMock</title>
<g id="a_node25_8"><a xlink:href="https://github.com/maidsafe/sn_dbc/blob/master/src/spentbook.rs#:~:text=struct%20SpentBookNodeMock" xlink:title="&lt;TABLE&gt;">
<polygon fill="lightblue" stroke="none" points="240,-87.5 240,-124.5 414,-124.5 414,-87.5 240,-87.5"/>
<polygon fill="none" stroke="black" points="240,-87.5 240,-124.5 414,-124.5 414,-87.5 240,-87.5"/>
<text text-anchor="start" x="251" y="-103.3" font-family="Arial" font-weight="bold" font-size="14.00">SpentBookNodeMock</text>
<polygon fill="none" stroke="black" points="239,-87 239,-126 415,-126 415,-87 239,-87"/>
</a>
</g>
</g>
<!-- ndHash&#45;&gt;ndSpentBookNodeMock -->
<g id="edge8" class="edge"><title>ndHash&#45;&gt;ndSpentBookNodeMock</title>
<path fill="none" stroke="black" d="M665.987,-352.398C562.244,-346.278 280.165,-326.916 253,-296 212.718,-250.156 261.086,-179.816 296.405,-139.277"/>
<polygon fill="black" stroke="black" points="296.59,-139.07 297.612,-131.931 304.595,-130.13 303.572,-137.268 296.59,-139.07"/>
</g>
<!-- ndTransactionValidator -->
<g id="node26" class="node"><title>ndTransactionValidator</title>
<g id="a_node26_9"><a xlink:href="https://github.com/maidsafe/sn_dbc/blob/master/src/validation.rs#:~:text=struct%20TransactionValidator" xlink:title="&lt;TABLE&gt;">
<polygon fill="lightblue" stroke="none" points="1359,-170.5 1359,-207.5 1526,-207.5 1526,-170.5 1359,-170.5"/>
<polygon fill="none" stroke="black" points="1359,-170.5 1359,-207.5 1526,-207.5 1526,-170.5 1359,-170.5"/>
<text text-anchor="start" x="1370" y="-186.3" font-family="Arial" font-weight="bold" font-size="14.00">TransactionValidator</text>
<polygon fill="none" stroke="black" points="1357.5,-170 1357.5,-209 1526.5,-209 1526.5,-170 1357.5,-170"/>
</a>
</g>
</g>
<!-- ndHash&#45;&gt;ndTransactionValidator -->
<g id="edge9" class="edge"><title>ndHash&#45;&gt;ndTransactionValidator</title>
<path fill="none" stroke="black" stroke-dasharray="5,2" d="M742.028,-352.091C818.261,-346.672 994.82,-331.142 1139,-296 1199.1,-281.352 1211.61,-269.404 1270,-249 1301.17,-238.11 1335.6,-226.345 1365.42,-216.242"/>
<polygon fill="black" stroke="black" points="1374.93,-213.023 1366.9,-220.491 1370.2,-214.626 1365.46,-216.229 1365.46,-216.229 1365.46,-216.229 1370.2,-214.626 1364.02,-211.966 1374.93,-213.023 1374.93,-213.023"/>
</g>
<!-- ndError -->
<g id="node2" class="node"><title>ndError</title>
<g id="a_node2_10"><a xlink:href="https://github.com/maidsafe/sn_dbc/blob/master/src/error.rs#:~:text=enum%20Error" xlink:title="&lt;TABLE&gt;">
<polygon fill="yellow" stroke="none" points="1600,-253.5 1600,-290.5 1659,-290.5 1659,-253.5 1600,-253.5"/>
<polygon fill="none" stroke="black" points="1600,-253.5 1600,-290.5 1659,-290.5 1659,-253.5 1600,-253.5"/>
<text text-anchor="start" x="1611" y="-269.3" font-family="Arial" font-weight="bold" font-size="14.00">Error</text>
<polygon fill="none" stroke="black" points="1598.5,-253 1598.5,-292 1659.5,-292 1659.5,-253 1598.5,-253"/>
</a>
</g>
</g>
<!-- ndDbc -->
<g id="node17" class="node"><title>ndDbc</title>
<g id="a_node17_11"><a xlink:href="https://github.com/maidsafe/sn_dbc/blob/master/src/dbc.rs#:~:text=struct%20Dbc" xlink:title="&lt;TABLE&gt;">
<polygon fill="lightblue" stroke="none" points="1475,-87.5 1475,-124.5 1525,-124.5 1525,-87.5 1475,-87.5"/>
<polygon fill="none" stroke="black" points="1475,-87.5 1475,-124.5 1525,-124.5 1525,-87.5 1475,-87.5"/>
<text text-anchor="start" x="1486" y="-103.3" font-family="Arial" font-weight="bold" font-size="14.00">Dbc</text>
<polygon fill="none" stroke="black" points="1474,-87 1474,-126 1526,-126 1526,-87 1474,-87"/>
</a>
</g>
</g>
<!-- ndError&#45;&gt;ndDbc -->
<g id="edge10" class="edge"><title>ndError&#45;&gt;ndDbc</title>
<path fill="none" stroke="black" d="M1611.06,-248.697C1588.44,-219.934 1549.45,-170.366 1524.2,-138.269"/>
<polygon fill="black" stroke="black" points="1517.78,-130.11 1527.5,-135.188 1520.88,-134.04 1523.97,-137.97 1523.97,-137.97 1523.97,-137.97 1520.88,-134.04 1520.43,-140.752 1517.78,-130.11 1517.78,-130.11"/>
</g>
<!-- ndAmountSecrets -->
<g id="node24" class="node"><title>ndAmountSecrets</title>
<g id="a_node24_12"><a xlink:href="https://github.com/maidsafe/sn_dbc/blob/master/src/amount_secrets.rs#:~:text=struct%20AmountSecrets" xlink:title="&lt;TABLE&gt;">
<polygon fill="lightblue" stroke="none" points="1637,-170.5 1637,-207.5 1767,-207.5 1767,-170.5 1637,-170.5"/>
<polygon fill="none" stroke="black" points="1637,-170.5 1637,-207.5 1767,-207.5 1767,-170.5 1637,-170.5"/>
<text text-anchor="start" x="1648" y="-186.3" font-family="Arial" font-weight="bold" font-size="14.00">AmountSecrets</text>
<polygon fill="none" stroke="black" points="1636,-170 1636,-209 1768,-209 1768,-170 1636,-170"/>
</a>
</g>
</g>
<!-- ndError&#45;&gt;ndAmountSecrets -->
<g id="edge11" class="edge"><title>ndError&#45;&gt;ndAmountSecrets</title>
<path fill="none" stroke="black" d="M1649.33,-248.937C1657.18,-240.233 1666.27,-230.144 1674.67,-220.824"/>
<polygon fill="black" stroke="black" points="1681.52,-213.223 1678.17,-223.664 1678.17,-216.937 1674.83,-220.651 1674.83,-220.651 1674.83,-220.651 1678.17,-216.937 1671.48,-217.639 1681.52,-213.223 1681.52,-213.223"/>
</g>
<!-- ndError&#45;&gt;ndTransactionValidator -->
<g id="edge12" class="edge"><title>ndError&#45;&gt;ndTransactionValidator</title>
<path fill="none" stroke="black" d="M1590.25,-254.717C1565.26,-243.892 1532.22,-229.578 1503.67,-217.211"/>
<polygon fill="black" stroke="black" points="1494.18,-213.1 1505.14,-212.946 1498.76,-215.087 1503.35,-217.075 1503.35,-217.075 1503.35,-217.075 1498.76,-215.087 1501.56,-221.204 1494.18,-213.1 1494.18,-213.1"/>
</g>
<!-- ndNodeSignature -->
<g id="node3" class="node"><title>ndNodeSignature</title>
<g id="a_node3_13"><a xlink:href="https://github.com/maidsafe/sn_dbc/blob/master/src/key_manager.rs#:~:text=struct%20NodeSignature" xlink:title="&lt;TABLE&gt;">
<polygon fill="lightblue" stroke="none" points="741,-253.5 741,-290.5 867,-290.5 867,-253.5 741,-253.5"/>
<polygon fill="none" stroke="black" points="741,-253.5 741,-290.5 867,-290.5 867,-253.5 741,-253.5"/>
<text text-anchor="start" x="752" y="-269.3" font-family="Arial" font-weight="bold" font-size="14.00">NodeSignature</text>
<polygon fill="none" stroke="black" points="740,-253 740,-292 868,-292 868,-253 740,-253"/>
</a>
</g>
</g>
<!-- ndNodeSignature&#45;&gt;ndSimpleKeyManager -->
<g id="edge13" class="edge"><title>ndNodeSignature&#45;&gt;ndSimpleKeyManager</title>
<path fill="none" stroke="black" d="M731.915,-253.423C686.856,-242.123 628.238,-227.423 578.991,-215.074"/>
<polygon fill="black" stroke="black" points="569.273,-212.637 580.068,-210.704 574.123,-213.853 578.973,-215.069 578.973,-215.069 578.973,-215.069 574.123,-213.853 577.878,-219.434 569.273,-212.637 569.273,-212.637"/>
</g>
<!-- ndGenesisDbcShare -->
<g id="node8" class="node"><title>ndGenesisDbcShare</title>
<g id="a_node8_14"><a xlink:href="https://github.com/maidsafe/sn_dbc/blob/master/src/mint.rs#:~:text=struct%20GenesisDbcShare" xlink:title="&lt;TABLE&gt;">
<polygon fill="lightblue" stroke="none" points="1158,-87.5 1158,-124.5 1307,-124.5 1307,-87.5 1158,-87.5"/>
<polygon fill="none" stroke="black" points="1158,-87.5 1158,-124.5 1307,-124.5 1307,-87.5 1158,-87.5"/>
<text text-anchor="start" x="1169" y="-103.3" font-family="Arial" font-weight="bold" font-size="14.00">GenesisDbcShare</text>
<polygon fill="none" stroke="black" points="1156.5,-87 1156.5,-126 1307.5,-126 1307.5,-87 1156.5,-87"/>
</a>
</g>
</g>
<!-- ndNodeSignature&#45;&gt;ndGenesisDbcShare -->
<g id="edge14" class="edge"><title>ndNodeSignature&#45;&gt;ndGenesisDbcShare</title>
<path fill="none" stroke="black" d="M835.853,-248.961C870.882,-225.148 929.576,-188.053 985,-166 1046.87,-141.384 1068.35,-145.695 1136.52,-130.497"/>
<polygon fill="black" stroke="black" points="1136.66,-130.464 1141.61,-125.219 1148.36,-127.769 1143.41,-133.014 1136.66,-130.464"/>
</g>
<!-- ndNodeSignature&#45;&gt;ndSpentProofShare -->
<g id="edge15" class="edge"><title>ndNodeSignature&#45;&gt;ndSpentProofShare</title>
<path fill="none" stroke="black" d="M795.922,-248.937C793.242,-241.452 790.195,-232.942 787.272,-224.778"/>
<polygon fill="black" stroke="black" points="787.18,-224.521 781.392,-220.22 783.135,-213.223 788.924,-217.524 787.18,-224.521"/>
</g>
<!-- ndKeyManager -->
<g id="node4" class="node"><title>ndKeyManager</title>
<g id="a_node4_15"><a xlink:href="https://github.com/maidsafe/sn_dbc/blob/master/src/key_manager.rs#:~:text=trait%20KeyManager" xlink:title="&lt;TABLE&gt;">
<polygon fill="lightgreen" stroke="none" points="272,-253.5 272,-290.5 383,-290.5 383,-253.5 272,-253.5"/>
<polygon fill="none" stroke="black" points="272,-253.5 272,-290.5 383,-290.5 383,-253.5 272,-253.5"/>
<text text-anchor="start" x="283" y="-269.3" font-family="Arial" font-weight="bold" font-size="14.00">KeyManager</text>
<polygon fill="none" stroke="black" points="270.5,-253 270.5,-292 383.5,-292 383.5,-253 270.5,-253"/>
</a>
</g>
</g>
<!-- ndKeyManager&#45;&gt;ndSimpleKeyManager -->
<g id="edge16" class="edge"><title>ndKeyManager&#45;&gt;ndSimpleKeyManager</title>
<path fill="none" stroke="black" stroke-dasharray="5,2" d="M369.898,-248.937C388.26,-239.279 409.865,-227.915 429.118,-217.789"/>
<polygon fill="none" stroke="black" points="430.845,-220.835 438.066,-213.082 427.586,-214.64 430.845,-220.835"/>
</g>
<!-- ndKeyManager&#45;&gt;ndSpentBookNodeMock -->
<g id="edge17" class="edge"><title>ndKeyManager&#45;&gt;ndSpentBookNodeMock</title>
<path fill="none" stroke="black" stroke-dasharray="5,2" d="M327,-248.697C327,-220.546 327,-172.465 327,-140.341"/>
<polygon fill="black" stroke="black" points="327,-130.11 331.5,-140.11 327,-135.11 327,-140.11 327,-140.11 327,-140.11 327,-135.11 322.5,-140.11 327,-130.11 327,-130.11"/>
</g>
<!-- ndSimpleSigner -->
<g id="node5" class="node"><title>ndSimpleSigner</title>
<g id="a_node5_16"><a xlink:href="https://github.com/maidsafe/sn_dbc/blob/master/src/key_manager.rs#:~:text=struct%20SimpleSigner" xlink:title="&lt;TABLE&gt;">
<polygon fill="lightblue" stroke="none" points="551,-253.5 551,-290.5 667,-290.5 667,-253.5 551,-253.5"/>
<polygon fill="none" stroke="black" points="551,-253.5 551,-290.5 667,-290.5 667,-253.5 551,-253.5"/>
<text text-anchor="start" x="562" y="-269.3" font-family="Arial" font-weight="bold" font-size="14.00">SimpleSigner</text>
<polygon fill="none" stroke="black" points="550,-253 550,-292 668,-292 668,-253 550,-253"/>
</a>
</g>
</g>
<!-- ndSimpleSigner&#45;&gt;ndSimpleKeyManager -->
<g id="edge18" class="edge"><title>ndSimpleSigner&#45;&gt;ndSimpleKeyManager</title>
<path fill="none" stroke="black" stroke-dasharray="5,2" d="M573.345,-248.937C559.04,-239.885 542.368,-229.335 527.158,-219.709"/>
<polygon fill="black" stroke="black" points="527.048,-219.64 519.839,-219.811 516.908,-213.223 524.117,-213.051 527.048,-219.64"/>
</g>
<!-- ndSimpleKeyManager&#45;&gt;ndSpentBookNodeMock -->
<g id="edge19" class="edge"><title>ndSimpleKeyManager&#45;&gt;ndSpentBookNodeMock</title>
<path fill="none" stroke="black" stroke-dasharray="5,2" d="M438.102,-165.937C420.321,-156.585 399.5,-145.633 380.719,-135.755"/>
<polygon fill="black" stroke="black" points="380.555,-135.669 373.383,-136.416 369.934,-130.082 377.107,-129.335 380.555,-135.669"/>
</g>
<!-- ndKeys&#45;&gt;ndSimpleKeyManager -->
<g id="edge20" class="edge"><title>ndKeys&#45;&gt;ndSimpleKeyManager</title>
<path fill="none" stroke="black" d="M457.192,-248.937C460.277,-241.365 463.79,-232.744 467.151,-224.493"/>
<polygon fill="black" stroke="black" points="467.215,-224.336 465.774,-217.27 471.743,-213.223 473.183,-220.289 467.215,-224.336"/>
</g>
<!-- ndMintNode -->
<g id="node11" class="node"><title>ndMintNode</title>
<g id="a_node11_17"><a xlink:href="https://github.com/maidsafe/sn_dbc/blob/master/src/mint.rs#:~:text=struct%20MintNode" xlink:title="&lt;TABLE&gt;">
<polygon fill="lightblue" stroke="none" points="985,-4.5 985,-41.5 1074,-41.5 1074,-4.5 985,-4.5"/>
<polygon fill="none" stroke="black" points="985,-4.5 985,-41.5 1074,-41.5 1074,-4.5 985,-4.5"/>
<text text-anchor="start" x="996" y="-20.3" font-family="Arial" font-weight="bold" font-size="14.00">MintNode</text>
<polygon fill="none" stroke="black" points="983.5,-4 983.5,-43 1074.5,-43 1074.5,-4 983.5,-4"/>
</a>
</g>
</g>
<!-- ndGenesisDbcShare&#45;&gt;ndMintNode -->
<g id="edge21" class="edge"><title>ndGenesisDbcShare&#45;&gt;ndMintNode</title>
<path fill="none" stroke="black" d="M1175.45,-82.937C1149.65,-72.6393 1118.98,-60.4028 1092.39,-49.7945"/>
<polygon fill="black" stroke="black" points="1082.8,-45.9665 1093.75,-45.493 1087.44,-47.8195 1092.09,-49.6726 1092.09,-49.6726 1092.09,-49.6726 1087.44,-47.8195 1090.42,-53.8521 1082.8,-45.9665 1082.8,-45.9665"/>
</g>
<!-- ndReissueRequest -->
<g id="node9" class="node"><title>ndReissueRequest</title>
<g id="a_node9_18"><a xlink:href="https://github.com/maidsafe/sn_dbc/blob/master/src/mint.rs#:~:text=struct%20ReissueRequest" xlink:title="&lt;TABLE&gt;">
<polygon fill="lightblue" stroke="none" points="832,-87.5 832,-124.5 967,-124.5 967,-87.5 832,-87.5"/>
<polygon fill="none" stroke="black" points="832,-87.5 832,-124.5 967,-124.5 967,-87.5 832,-87.5"/>
<text text-anchor="start" x="843" y="-103.3" font-family="Arial" font-weight="bold" font-size="14.00">ReissueRequest</text>
<polygon fill="none" stroke="black" points="830.5,-87 830.5,-126 967.5,-126 967.5,-87 830.5,-87"/>
</a>
</g>
</g>
<!-- ndReissueRequest&#45;&gt;ndMintNode -->
<g id="edge22" class="edge"><title>ndReissueRequest&#45;&gt;ndMintNode</title>
<path fill="none" stroke="black" stroke-dasharray="5,2" d="M935.212,-82.937C950.299,-73.5367 967.979,-62.5209 983.897,-52.6028"/>
<polygon fill="black" stroke="black" points="992.531,-47.2229 986.423,-56.3305 988.287,-49.8671 984.044,-52.5112 984.044,-52.5112 984.044,-52.5112 988.287,-49.8671 981.664,-48.6919 992.531,-47.2229 992.531,-47.2229"/>
</g>
<!-- ndReissueRequestBuilder -->
<g id="node19" class="node"><title>ndReissueRequestBuilder</title>
<g id="a_node19_19"><a xlink:href="https://github.com/maidsafe/sn_dbc/blob/master/src/builder.rs#:~:text=struct%20ReissueRequestBuilder" xlink:title="&lt;TABLE&gt;">
<polygon fill="lightblue" stroke="none" points="698,-4.5 698,-41.5 883,-41.5 883,-4.5 698,-4.5"/>
<polygon fill="none" stroke="black" points="698,-4.5 698,-41.5 883,-41.5 883,-4.5 698,-4.5"/>
<text text-anchor="start" x="709" y="-20.3" font-family="Arial" font-weight="bold" font-size="14.00">ReissueRequestBuilder</text>
<polygon fill="none" stroke="black" points="696.5,-4 696.5,-43 883.5,-43 883.5,-4 696.5,-4"/>
</a>
</g>
</g>
<!-- ndReissueRequest&#45;&gt;ndReissueRequestBuilder -->
<g id="edge23" class="edge"><title>ndReissueRequest&#45;&gt;ndReissueRequestBuilder</title>
<path fill="none" stroke="black" d="M868.637,-82.937C856.339,-73.7979 841.986,-63.1317 828.933,-53.4318"/>
<polygon fill="black" stroke="black" points="820.578,-47.2229 831.288,-49.5757 824.591,-50.2053 828.604,-53.1876 828.604,-53.1876 828.604,-53.1876 824.591,-50.2053 825.92,-56.7995 820.578,-47.2229 820.578,-47.2229"/>
</g>
<!-- ndReissueShare -->
<g id="node10" class="node"><title>ndReissueShare</title>
<g id="a_node10_20"><a xlink:href="https://github.com/maidsafe/sn_dbc/blob/master/src/mint.rs#:~:text=struct%20ReissueShare" xlink:title="&lt;TABLE&gt;">
<polygon fill="lightblue" stroke="none" points="1003,-87.5 1003,-124.5 1122,-124.5 1122,-87.5 1003,-87.5"/>
<polygon fill="none" stroke="black" points="1003,-87.5 1003,-124.5 1122,-124.5 1122,-87.5 1003,-87.5"/>
<text text-anchor="start" x="1014" y="-103.3" font-family="Arial" font-weight="bold" font-size="14.00">ReissueShare</text>
<polygon fill="none" stroke="black" points="1001.5,-87 1001.5,-126 1122.5,-126 1122.5,-87 1001.5,-87"/>
</a>
</g>
</g>
<!-- ndReissueShare&#45;&gt;ndMintNode -->
<g id="edge24" class="edge"><title>ndReissueShare&#45;&gt;ndMintNode</title>
<path fill="none" stroke="black" d="M1052.81,-82.937C1049.47,-74.7553 1045.64,-65.3497 1042.04,-56.5093"/>
<polygon fill="black" stroke="black" points="1038.26,-47.2229 1046.2,-54.786 1040.14,-51.8534 1042.03,-56.4839 1042.03,-56.4839 1042.03,-56.4839 1040.14,-51.8534 1037.86,-58.1817 1038.26,-47.2229 1038.26,-47.2229"/>
</g>
<!-- ndDbcBuilder -->
<g id="node20" class="node"><title>ndDbcBuilder</title>
<g id="a_node20_21"><a xlink:href="https://github.com/maidsafe/sn_dbc/blob/master/src/builder.rs#:~:text=struct%20DbcBuilder" xlink:title="&lt;TABLE&gt;">
<polygon fill="lightblue" stroke="none" points="1468,-4.5 1468,-41.5 1569,-41.5 1569,-4.5 1468,-4.5"/>
<polygon fill="none" stroke="black" points="1468,-4.5 1468,-41.5 1569,-41.5 1569,-4.5 1468,-4.5"/>
<text text-anchor="start" x="1479" y="-20.3" font-family="Arial" font-weight="bold" font-size="14.00">DbcBuilder</text>
<polygon fill="none" stroke="black" points="1466.5,-4 1466.5,-43 1569.5,-43 1569.5,-4 1466.5,-4"/>
</a>
</g>
</g>
<!-- ndReissueShare&#45;&gt;ndDbcBuilder -->
<g id="edge25" class="edge"><title>ndReissueShare&#45;&gt;ndDbcBuilder</title>
<path fill="none" stroke="black" stroke-dasharray="5,2" d="M1130.73,-84.9314C1133.52,-84.2517 1136.28,-83.6044 1139,-83 1244.89,-59.4632 1369.51,-42.19 1446.13,-32.7414"/>
<polygon fill="black" stroke="black" points="1446.56,-32.6895 1452.03,-27.9924 1458.47,-31.2364 1453,-35.9335 1446.56,-32.6895"/>
</g>
<!-- ndDbcContent&#45;&gt;ndGenesisDbcShare -->
<g id="edge26" class="edge"><title>ndDbcContent&#45;&gt;ndGenesisDbcShare</title>
<path fill="none" stroke="black" d="M1232,-165.937C1232,-158.626 1232,-150.337 1232,-142.348"/>
<polygon fill="black" stroke="black" points="1232,-142.223 1228,-136.223 1232,-130.223 1236,-136.223 1232,-142.223"/>
</g>
<!-- ndDbcContent&#45;&gt;ndDbc -->
<g id="edge27" class="edge"><title>ndDbcContent&#45;&gt;ndDbc</title>
<path fill="none" stroke="black" d="M1293.82,-169.815C1342.82,-155.007 1410.16,-134.654 1454.36,-121.294"/>
<polygon fill="black" stroke="black" points="1454.41,-121.278 1459,-115.713 1465.9,-117.806 1461.32,-123.371 1454.41,-121.278"/>
</g>
<!-- ndPublicKeyBlstMappable&#45;&gt;ndSpentBookNodeMock -->
<g id="edge28" class="edge"><title>ndPublicKeyBlstMappable&#45;&gt;ndSpentBookNodeMock</title>
<path fill="none" stroke="black" d="M165.396,-165.937C192.589,-156.104 224.671,-144.503 253.052,-134.24"/>
<polygon fill="black" stroke="black" points="253.265,-134.163 257.547,-128.361 264.55,-130.082 260.268,-135.884 253.265,-134.163"/>
</g>
<!-- ndBlsHelper -->
<g id="node14" class="node"><title>ndBlsHelper</title>
<g id="a_node14_22"><a xlink:href="https://github.com/maidsafe/sn_dbc/blob/master/src/blst.rs#:~:text=struct%20BlsHelper" xlink:title="&lt;TABLE&gt;">
<polygon fill="lightblue" stroke="none" points="1411,-336.5 1411,-373.5 1501,-373.5 1501,-336.5 1411,-336.5"/>
<polygon fill="none" stroke="black" points="1411,-336.5 1411,-373.5 1501,-373.5 1501,-336.5 1411,-336.5"/>
<text text-anchor="start" x="1422" y="-352.3" font-family="Arial" font-weight="bold" font-size="14.00">BlsHelper</text>
<polygon fill="none" stroke="black" points="1410,-336 1410,-375 1502,-375 1502,-336 1410,-336"/>
</a>
</g>
</g>
<!-- ndOwner -->
<g id="node15" class="node"><title>ndOwner</title>
<g id="a_node15_23"><a xlink:href="https://github.com/maidsafe/sn_dbc/blob/master/src/owner.rs#:~:text=enum%20Owner" xlink:title="&lt;TABLE&gt;">
<polygon fill="yellow" stroke="none" points="1288,-253.5 1288,-290.5 1356,-290.5 1356,-253.5 1288,-253.5"/>
<polygon fill="none" stroke="black" points="1288,-253.5 1288,-290.5 1356,-290.5 1356,-253.5 1288,-253.5"/>
<text text-anchor="start" x="1299" y="-269.3" font-family="Arial" font-weight="bold" font-size="14.00">Owner</text>
<polygon fill="none" stroke="black" points="1287,-253 1287,-292 1357,-292 1357,-253 1287,-253"/>
</a>
</g>
</g>
<!-- ndOwner&#45;&gt;ndDbcContent -->
<g id="edge29" class="edge"><title>ndOwner&#45;&gt;ndDbcContent</title>
<path fill="none" stroke="black" d="M1296.93,-248.937C1287.45,-240.407 1276.5,-230.547 1266.32,-221.384"/>
<polygon fill="black" stroke="black" points="1266.17,-221.251 1259.03,-220.21 1257.25,-213.223 1264.38,-214.264 1266.17,-221.251"/>
</g>
<!-- ndOwnerOnce -->
<g id="node16" class="node"><title>ndOwnerOnce</title>
<g id="a_node16_24"><a xlink:href="https://github.com/maidsafe/sn_dbc/blob/master/src/owner.rs#:~:text=struct%20OwnerOnce" xlink:title="&lt;TABLE&gt;">
<polygon fill="lightblue" stroke="none" points="1270,-336.5 1270,-373.5 1375,-373.5 1375,-336.5 1270,-336.5"/>
<polygon fill="none" stroke="black" points="1270,-336.5 1270,-373.5 1375,-373.5 1375,-336.5 1270,-336.5"/>
<text text-anchor="start" x="1281" y="-352.3" font-family="Arial" font-weight="bold" font-size="14.00">OwnerOnce</text>
<polygon fill="none" stroke="black" points="1268.5,-336 1268.5,-375 1375.5,-375 1375.5,-336 1268.5,-336"/>
</a>
</g>
</g>
<!-- ndOwner&#45;&gt;ndOwnerOnce -->
<g id="edge30" class="edge"><title>ndOwner&#45;&gt;ndOwnerOnce</title>
<path fill="none" stroke="black" stroke-dasharray="5,2" d="M1328.14,-296.223C1328.68,-303.548 1328.86,-311.842 1328.69,-319.827"/>
<polygon fill="black" stroke="black" points="1328.68,-319.95 1332.4,-326.13 1328.12,-331.937 1324.41,-325.757 1328.68,-319.95"/>
</g>
<!-- ndOwner&#45;&gt;ndDbc -->
<g id="edge31" class="edge"><title>ndOwner&#45;&gt;ndDbc</title>
<path fill="none" stroke="black" d="M1319.71,-248.627C1318.64,-225.231 1320.73,-189.126 1340,-166 1368.64,-131.625 1419.3,-117.448 1455.96,-111.602"/>
<polygon fill="black" stroke="black" points="1465.9,-110.164 1456.64,-116.05 1460.95,-110.88 1456,-111.596 1456,-111.596 1456,-111.596 1460.95,-110.88 1455.36,-107.143 1465.9,-110.164 1465.9,-110.164"/>
</g>
<!-- ndOwnerOnce&#45;&gt;ndGenesisDbcShare -->
<g id="edge32" class="edge"><title>ndOwnerOnce&#45;&gt;ndGenesisDbcShare</title>
<path fill="none" stroke="black" d="M1280.31,-331.943C1241.24,-308.175 1185.31,-266.737 1161,-213 1152.39,-193.968 1152.09,-184.892 1161,-166 1166.06,-155.279 1174.15,-145.858 1183.09,-137.883"/>
<polygon fill="black" stroke="black" points="1183.33,-137.689 1185.45,-130.797 1192.63,-130.103 1190.51,-136.995 1183.33,-137.689"/>
</g>
<!-- ndOwnerOnce&#45;&gt;ndOwner -->
<g id="edge33" class="edge"><title>ndOwnerOnce&#45;&gt;ndOwner</title>
<path fill="none" stroke="black" stroke-dasharray="5,2" d="M1315.88,-331.937C1315.29,-324.016 1315.11,-314.949 1315.36,-306.357"/>
<polygon fill="black" stroke="black" points="1315.86,-296.223 1319.86,-306.435 1315.61,-301.217 1315.37,-306.21 1315.37,-306.21 1315.37,-306.21 1315.61,-301.217 1310.87,-305.986 1315.86,-296.223 1315.86,-296.223"/>
</g>
<!-- ndTransactionBuilder -->
<g id="node18" class="node"><title>ndTransactionBuilder</title>
<g id="a_node18_25"><a xlink:href="https://github.com/maidsafe/sn_dbc/blob/master/src/builder.rs#:~:text=struct%20TransactionBuilder" xlink:title="&lt;TABLE&gt;">
<polygon fill="lightblue" stroke="none" points="1624,-4.5 1624,-41.5 1780,-41.5 1780,-4.5 1624,-4.5"/>
<polygon fill="none" stroke="black" points="1624,-4.5 1624,-41.5 1780,-41.5 1780,-4.5 1624,-4.5"/>
<text text-anchor="start" x="1635" y="-20.3" font-family="Arial" font-weight="bold" font-size="14.00">TransactionBuilder</text>
<polygon fill="none" stroke="black" points="1623,-4 1623,-43 1781,-43 1781,-4 1623,-4"/>
</a>
</g>
</g>
<!-- ndOwnerOnce&#45;&gt;ndTransactionBuilder -->
<g id="edge34" class="edge"><title>ndOwnerOnce&#45;&gt;ndTransactionBuilder</title>
<path fill="none" stroke="black" stroke-dasharray="5,2" d="M1383.78,-334.199C1386.88,-333.406 1389.97,-332.667 1393,-332 1570.82,-292.89 1704.53,-376.327 1785,-213 1812.07,-158.049 1765.74,-92.2292 1732.13,-54.6957"/>
<polygon fill="black" stroke="black" points="1725.18,-47.1299 1735.26,-51.4507 1728.56,-50.8123 1731.94,-54.4947 1731.94,-54.4947 1731.94,-54.4947 1728.56,-50.8123 1728.63,-57.5388 1725.18,-47.1299 1725.18,-47.1299"/>
</g>
<!-- ndOwnerOnce&#45;&gt;ndDbcBuilder -->
<g id="edge35" class="edge"><title>ndOwnerOnce&#45;&gt;ndDbcBuilder</title>
<path fill="none" stroke="black" d="M1383.51,-334.221C1436.43,-313.127 1509.38,-274.45 1543,-213 1570.1,-163.475 1549.84,-96.0022 1533.4,-56.6591"/>
<polygon fill="black" stroke="black" points="1529.33,-47.2908 1537.44,-54.6724 1531.32,-51.8774 1533.31,-56.464 1533.31,-56.464 1533.31,-56.464 1531.32,-51.8774 1529.18,-58.2557 1529.33,-47.2908 1529.33,-47.2908"/>
</g>
<!-- ndDbc&#45;&gt;ndTransactionBuilder -->
<g id="edge36" class="edge"><title>ndDbc&#45;&gt;ndTransactionBuilder</title>
<path fill="none" stroke="black" stroke-dasharray="5,2" d="M1534.27,-91.7595C1562.15,-80.5788 1602.31,-64.4731 1636.35,-50.8252"/>
<polygon fill="black" stroke="black" points="1645.77,-47.047 1638.16,-54.9457 1641.13,-48.908 1636.49,-50.7689 1636.49,-50.7689 1636.49,-50.7689 1641.13,-48.908 1634.82,-46.5922 1645.77,-47.047 1645.77,-47.047"/>
</g>
<!-- ndDbc&#45;&gt;ndDbcBuilder -->
<g id="edge37" class="edge"><title>ndDbc&#45;&gt;ndDbcBuilder</title>
<path fill="none" stroke="black" d="M1505.01,-82.937C1506.79,-74.9294 1508.83,-65.7494 1510.76,-57.0743"/>
<polygon fill="black" stroke="black" points="1512.95,-47.2229 1515.17,-57.961 1511.87,-52.1039 1510.78,-56.9848 1510.78,-56.9848 1510.78,-56.9848 1511.87,-52.1039 1506.39,-56.0086 1512.95,-47.2229 1512.95,-47.2229"/>
</g>
<!-- ndSpentProofContent&#45;&gt;ndSpentProofShare -->
<g id="edge38" class="edge"><title>ndSpentProofContent&#45;&gt;ndSpentProofShare</title>
<path fill="none" stroke="black" d="M923.618,-248.937C898.832,-239.191 869.631,-227.709 843.702,-217.514"/>
<polygon fill="black" stroke="black" points="843.599,-217.474 836.552,-219.001 832.432,-213.082 839.479,-211.555 843.599,-217.474"/>
</g>
<!-- ndSpentProofContent&#45;&gt;ndSpentProof -->
<g id="edge39" class="edge"><title>ndSpentProofContent&#45;&gt;ndSpentProof</title>
<path fill="none" stroke="black" d="M1001.33,-248.937C1008.79,-240.668 1017.37,-231.149 1025.41,-222.227"/>
<polygon fill="black" stroke="black" points="1025.49,-222.137 1026.53,-215.002 1033.52,-213.223 1032.48,-220.358 1025.49,-222.137"/>
</g>
<!-- ndSpentProofShare&#45;&gt;ndMintNode -->
<g id="edge40" class="edge"><title>ndSpentProofShare&#45;&gt;ndMintNode</title>
<path fill="none" stroke="black" d="M777.101,-165.802C780.533,-141.851 789.526,-104.641 813,-83 835.185,-62.5477 909.971,-45.3773 965.358,-35.0359"/>
<polygon fill="black" stroke="black" points="975.457,-33.1852 966.432,-39.4141 970.539,-34.0865 965.621,-34.9878 965.621,-34.9878 965.621,-34.9878 970.539,-34.0865 964.81,-30.5615 975.457,-33.1852 975.457,-33.1852"/>
</g>
<!-- ndSpentProofShare&#45;&gt;ndReissueRequestBuilder -->
<g id="edge41" class="edge"><title>ndSpentProofShare&#45;&gt;ndReissueRequestBuilder</title>
<path fill="none" stroke="black" stroke-dasharray="5,2" d="M775.277,-165.8C775.727,-144.393 776.907,-111.437 780,-83 780.838,-75.2952 782.047,-67.0677 783.336,-59.2898"/>
<polygon fill="black" stroke="black" points="783.385,-59.01 780.482,-52.4092 785.458,-47.1904 788.362,-53.7913 783.385,-59.01"/>
</g>
<!-- ndSpentProofShare&#45;&gt;ndSpentBookNodeMock -->
<g id="edge42" class="edge"><title>ndSpentProofShare&#45;&gt;ndSpentBookNodeMock</title>
<path fill="none" stroke="black" d="M694.389,-173.925C621.43,-160.734 513.46,-141.213 433.43,-126.743"/>
<polygon fill="black" stroke="black" points="423.32,-124.915 433.961,-122.266 428.24,-125.805 433.16,-126.694 433.16,-126.694 433.16,-126.694 428.24,-125.805 432.36,-131.122 423.32,-124.915 423.32,-124.915"/>
</g>
<!-- ndSpentProof&#45;&gt;ndReissueRequest -->
<g id="edge43" class="edge"><title>ndSpentProof&#45;&gt;ndReissueRequest</title>
<path fill="none" stroke="black" d="M1010.82,-165.937C992.927,-156.585 971.971,-145.633 953.067,-135.755"/>
<polygon fill="black" stroke="black" points="952.849,-135.64 945.678,-136.406 942.213,-130.082 949.383,-129.316 952.849,-135.64"/>
</g>
<!-- ndSpentProof&#45;&gt;ndReissueShare -->
<g id="edge44" class="edge"><title>ndSpentProof&#45;&gt;ndReissueShare</title>
<path fill="none" stroke="black" d="M1056.23,-165.937C1056.95,-158.626 1057.77,-150.337 1058.56,-142.348"/>
<polygon fill="black" stroke="black" points="1058.58,-142.165 1055.19,-135.801 1059.76,-130.223 1063.15,-136.587 1058.58,-142.165"/>
</g>
<!-- ndSpentProof&#45;&gt;ndDbc -->
<g id="edge45" class="edge"><title>ndSpentProof&#45;&gt;ndDbc</title>
<path fill="none" stroke="black" d="M1113.63,-175.56C1129.04,-172.326 1145.62,-168.943 1161,-166 1265.43,-146.017 1388.56,-125.536 1453.87,-114.914"/>
<polygon fill="black" stroke="black" points="1453.92,-114.907 1459.2,-109.998 1465.76,-112.986 1460.48,-117.895 1453.92,-114.907"/>
</g>
<!-- ndAmountSecrets&#45;&gt;ndGenesisDbcShare -->
<g id="edge46" class="edge"><title>ndAmountSecrets&#45;&gt;ndGenesisDbcShare</title>
<path fill="none" stroke="black" d="M1627.79,-175.71C1546.67,-161.73 1416.45,-139.288 1327.7,-123.993"/>
<polygon fill="black" stroke="black" points="1327.56,-123.969 1320.97,-126.892 1315.73,-121.931 1322.33,-119.008 1327.56,-123.969"/>
</g>
<!-- ndAmountSecrets&#45;&gt;ndDbc -->
<g id="edge47" class="edge"><title>ndAmountSecrets&#45;&gt;ndDbc</title>
<path fill="none" stroke="black" stroke-dasharray="5,2" d="M1645.73,-165.937C1613.39,-152.969 1573.39,-136.927 1543.48,-124.934"/>
<polygon fill="black" stroke="black" points="1534.14,-121.191 1545.1,-120.736 1538.78,-123.052 1543.42,-124.913 1543.42,-124.913 1543.42,-124.913 1538.78,-123.052 1541.75,-129.09 1534.14,-121.191 1534.14,-121.191"/>
</g>
<!-- ndAmountSecrets&#45;&gt;ndTransactionBuilder -->
<g id="edge48" class="edge"><title>ndAmountSecrets&#45;&gt;ndTransactionBuilder</title>
<path fill="none" stroke="black" stroke-dasharray="5,2" d="M1702,-165.697C1702,-137.546 1702,-89.4655 1702,-57.3408"/>
<polygon fill="black" stroke="black" points="1702,-47.1098 1706.5,-57.1098 1702,-52.1098 1702,-57.1098 1702,-57.1098 1702,-57.1098 1702,-52.1098 1697.5,-57.1099 1702,-47.1098 1702,-47.1098"/>
</g>
<!-- ndAmountSecrets&#45;&gt;ndDbcBuilder -->
<g id="edge49" class="edge"><title>ndAmountSecrets&#45;&gt;ndDbcBuilder</title>
<path fill="none" stroke="black" d="M1676.42,-165.697C1643.73,-136.567 1587.11,-86.0966 1551.15,-54.048"/>
<polygon fill="black" stroke="black" points="1543.37,-47.1098 1553.83,-50.4042 1547.1,-50.4367 1550.83,-53.7636 1550.83,-53.7636 1550.83,-53.7636 1547.1,-50.4367 1547.84,-57.1229 1543.37,-47.1098 1543.37,-47.1098"/>
</g>
</g>
</svg>
