<?xml version="1.0" encoding="UTF-8" standalone="no"?>
<!DOCTYPE svg PUBLIC "-//W3C//DTD SVG 1.1//EN"
 "http://www.w3.org/Graphics/SVG/1.1/DTD/svg11.dtd">
<!-- Generated by graphviz version 2.38.0 (20140413.2041)
 -->
<!-- Title: ml Pages: 1 -->
<svg width="1331pt" height="470pt"
 viewBox="0.00 0.00 1331.25 470.00" xmlns="http://www.w3.org/2000/svg" xmlns:xlink="http://www.w3.org/1999/xlink">
<g id="graph0" class="graph" transform="scale(1 1) rotate(0) translate(4 466)">
<title>ml</title>
<polygon fill="white" stroke="none" points="-4,4 -4,-466 1327.25,-466 1327.25,4 -4,4"/>
<!-- ndHash -->
<g id="node1" class="node"><title>ndHash</title>
<g id="a_node1_0"><a xlink:href="https://github.com/maidsafe/sn_dbc/blob/master/src/lib.rs#:~:text=struct%20Hash" xlink:title="&lt;TABLE&gt;">
<polygon fill="lightblue" stroke="none" points="809,-419.5 809,-456.5 867,-456.5 867,-419.5 809,-419.5"/>
<polygon fill="none" stroke="black" points="809,-419.5 809,-456.5 867,-456.5 867,-419.5 809,-419.5"/>
<text text-anchor="start" x="820" y="-435.3" font-family="Arial" font-weight="bold" font-size="14.00">Hash</text>
<polygon fill="none" stroke="black" points="808,-419 808,-458 868,-458 868,-419 808,-419"/>
</a>
</g>
</g>
<!-- ndKeyManager -->
<g id="node4" class="node"><title>ndKeyManager</title>
<g id="a_node4_1"><a xlink:href="https://github.com/maidsafe/sn_dbc/blob/master/src/mock/key_manager.rs#:~:text=struct%20KeyManager" xlink:title="&lt;TABLE&gt;">
<polygon fill="lightblue" stroke="none" points="690,-253.5 690,-290.5 801,-290.5 801,-253.5 690,-253.5"/>
<polygon fill="none" stroke="black" points="690,-253.5 690,-290.5 801,-290.5 801,-253.5 690,-253.5"/>
<text text-anchor="start" x="701" y="-269.3" font-family="Arial" font-weight="bold" font-size="14.00">KeyManager</text>
<polygon fill="none" stroke="black" points="688.5,-253 688.5,-292 801.5,-292 801.5,-253 688.5,-253"/>
</a>
</g>
</g>
<!-- ndHash&#45;&gt;ndKeyManager -->
<g id="edge1" class="edge"><title>ndHash&#45;&gt;ndKeyManager</title>
<path fill="none" stroke="black" stroke-dasharray="5,2" d="M799.879,-428.801C773.825,-420.655 741.189,-405.611 725,-379 711.496,-356.802 718.624,-327.504 727.922,-305.416"/>
<polygon fill="black" stroke="black" points="732.132,-296.13 732.101,-307.096 730.067,-300.684 728.002,-305.238 728.002,-305.238 728.002,-305.238 730.067,-300.684 723.904,-303.38 732.132,-296.13 732.132,-296.13"/>
</g>
<!-- ndDbcContent -->
<g id="node5" class="node"><title>ndDbcContent</title>
<g id="a_node5_2"><a xlink:href="https://github.com/maidsafe/sn_dbc/blob/master/src/dbc_content.rs#:~:text=struct%20DbcContent" xlink:title="&lt;TABLE&gt;">
<polygon fill="lightblue" stroke="none" points="510,-253.5 510,-290.5 615,-290.5 615,-253.5 510,-253.5"/>
<polygon fill="none" stroke="black" points="510,-253.5 510,-290.5 615,-290.5 615,-253.5 510,-253.5"/>
<text text-anchor="start" x="521" y="-269.3" font-family="Arial" font-weight="bold" font-size="14.00">DbcContent</text>
<polygon fill="none" stroke="black" points="508.5,-253 508.5,-292 615.5,-292 615.5,-253 508.5,-253"/>
</a>
</g>
</g>
<!-- ndHash&#45;&gt;ndDbcContent -->
<g id="edge2" class="edge"><title>ndHash&#45;&gt;ndDbcContent</title>
<path fill="none" stroke="black" d="M799.879,-433.793C736.327,-426.819 612.749,-409.625 583,-379 564.494,-359.949 560.068,-329.505 559.79,-306.206"/>
<polygon fill="black" stroke="black" points="559.919,-296.071 564.292,-306.127 559.855,-301.071 559.792,-306.07 559.792,-306.07 559.792,-306.07 559.855,-301.071 555.292,-306.013 559.919,-296.071 559.919,-296.071"/>
</g>
<!-- ndKeys -->
<g id="node9" class="node"><title>ndKeys</title>
<g id="a_node9_3"><a xlink:href="https://github.com/maidsafe/sn_dbc/blob/master/src/mock/key_manager.rs#:~:text=struct%20Keys" xlink:title="&lt;TABLE&gt;">
<polygon fill="lightblue" stroke="none" points="743,-336.5 743,-373.5 801,-373.5 801,-336.5 743,-336.5"/>
<polygon fill="none" stroke="black" points="743,-336.5 743,-373.5 801,-373.5 801,-336.5 743,-336.5"/>
<text text-anchor="start" x="754" y="-352.3" font-family="Arial" font-weight="bold" font-size="14.00">Keys</text>
<polygon fill="none" stroke="black" points="742,-336 742,-375 802,-375 802,-336 742,-336"/>
</a>
</g>
</g>
<!-- ndHash&#45;&gt;ndKeys -->
<g id="edge3" class="edge"><title>ndHash&#45;&gt;ndKeys</title>
<path fill="none" stroke="black" stroke-dasharray="5,2" d="M819.615,-414.937C812.594,-406.32 804.467,-396.346 796.936,-387.104"/>
<polygon fill="black" stroke="black" points="790.515,-379.223 800.32,-384.133 793.673,-383.099 796.832,-386.975 796.832,-386.975 796.832,-386.975 793.673,-383.099 793.343,-389.818 790.515,-379.223 790.515,-379.223"/>
</g>
<!-- ndSpentBookNode -->
<g id="node10" class="node"><title>ndSpentBookNode</title>
<g id="a_node10_4"><a xlink:href="https://github.com/maidsafe/sn_dbc/blob/master/src/mock/spentbook.rs#:~:text=struct%20SpentBookNode" xlink:title="&lt;TABLE&gt;">
<polygon fill="lightblue" stroke="none" points="721,-170.5 721,-207.5 857,-207.5 857,-170.5 721,-170.5"/>
<polygon fill="none" stroke="black" points="721,-170.5 721,-207.5 857,-207.5 857,-170.5 721,-170.5"/>
<text text-anchor="start" x="732" y="-186.3" font-family="Arial" font-weight="bold" font-size="14.00">SpentBookNode</text>
<polygon fill="none" stroke="black" points="720,-170 720,-209 858,-209 858,-170 720,-170"/>
</a>
</g>
</g>
<!-- ndHash&#45;&gt;ndSpentBookNode -->
<g id="edge4" class="edge"><title>ndHash&#45;&gt;ndSpentBookNode</title>
<path fill="none" stroke="black" d="M838.156,-414.953C837.842,-379.086 834.907,-307.145 818,-249 815.548,-240.566 811.923,-231.878 808.061,-223.863"/>
<polygon fill="black" stroke="black" points="808.007,-223.758 801.712,-220.24 802.539,-213.076 808.834,-216.594 808.007,-223.758"/>
</g>
<!-- ndSpentProofContent -->
<g id="node16" class="node"><title>ndSpentProofContent</title>
<g id="a_node16_5"><a xlink:href="https://github.com/maidsafe/sn_dbc/blob/master/src/spent_proof.rs#:~:text=struct%20SpentProofContent" xlink:title="&lt;TABLE&gt;">
<polygon fill="lightblue" stroke="none" points="1137,-336.5 1137,-373.5 1293,-373.5 1293,-336.5 1137,-336.5"/>
<polygon fill="none" stroke="black" points="1137,-336.5 1137,-373.5 1293,-373.5 1293,-336.5 1137,-336.5"/>
<text text-anchor="start" x="1148" y="-352.3" font-family="Arial" font-weight="bold" font-size="14.00">SpentProofContent</text>
<polygon fill="none" stroke="black" points="1136,-336 1136,-375 1294,-375 1294,-336 1136,-336"/>
</a>
</g>
</g>
<!-- ndHash&#45;&gt;ndSpentProofContent -->
<g id="edge5" class="edge"><title>ndHash&#45;&gt;ndSpentProofContent</title>
<path fill="none" stroke="black" d="M876.425,-429.486C929.773,-418.331 1029.28,-397.414 1114,-379 1114.71,-378.845 1115.43,-378.689 1116.15,-378.533"/>
<polygon fill="black" stroke="black" points="1116.24,-378.512 1121.25,-373.323 1127.97,-375.949 1122.96,-381.138 1116.24,-378.512"/>
</g>
<!-- ndSpentProofShare -->
<g id="node17" class="node"><title>ndSpentProofShare</title>
<g id="a_node17_6"><a xlink:href="https://github.com/maidsafe/sn_dbc/blob/master/src/spent_proof.rs#:~:text=struct%20SpentProofShare" xlink:title="&lt;TABLE&gt;">
<polygon fill="lightblue" stroke="none" points="1013,-253.5 1013,-290.5 1156,-290.5 1156,-253.5 1013,-253.5"/>
<polygon fill="none" stroke="black" points="1013,-253.5 1013,-290.5 1156,-290.5 1156,-253.5 1013,-253.5"/>
<text text-anchor="start" x="1024" y="-269.3" font-family="Arial" font-weight="bold" font-size="14.00">SpentProofShare</text>
<polygon fill="none" stroke="black" points="1011.5,-253 1011.5,-292 1156.5,-292 1156.5,-253 1011.5,-253"/>
</a>
</g>
</g>
<!-- ndHash&#45;&gt;ndSpentProofShare -->
<g id="edge6" class="edge"><title>ndHash&#45;&gt;ndSpentProofShare</title>
<path fill="none" stroke="black" d="M876.307,-435.625C983.799,-429.974 1282.3,-411.47 1311,-379 1357.09,-326.854 1256.68,-298.663 1175.02,-284.863"/>
<polygon fill="black" stroke="black" points="1164.66,-283.171 1175.26,-280.342 1169.6,-283.977 1174.53,-284.783 1174.53,-284.783 1174.53,-284.783 1169.6,-283.977 1173.8,-289.224 1164.66,-283.171 1164.66,-283.171"/>
</g>
<!-- ndSpentProof -->
<g id="node18" class="node"><title>ndSpentProof</title>
<g id="a_node18_7"><a xlink:href="https://github.com/maidsafe/sn_dbc/blob/master/src/spent_proof.rs#:~:text=struct%20SpentProof" xlink:title="&lt;TABLE&gt;">
<polygon fill="lightblue" stroke="none" points="876,-253.5 876,-290.5 977,-290.5 977,-253.5 876,-253.5"/>
<polygon fill="none" stroke="black" points="876,-253.5 876,-290.5 977,-290.5 977,-253.5 876,-253.5"/>
<text text-anchor="start" x="887" y="-269.3" font-family="Arial" font-weight="bold" font-size="14.00">SpentProof</text>
<polygon fill="none" stroke="black" points="874.5,-253 874.5,-292 977.5,-292 977.5,-253 874.5,-253"/>
</a>
</g>
</g>
<!-- ndHash&#45;&gt;ndSpentProof -->
<g id="edge7" class="edge"><title>ndHash&#45;&gt;ndSpentProof</title>
<path fill="none" stroke="black" stroke-dasharray="5,2" d="M876.312,-433.909C938.027,-427.245 1055.07,-410.673 1080,-379 1092.92,-362.585 1091.86,-349.194 1080,-332 1077.27,-328.036 1034.77,-312.047 995.117,-297.785"/>
<polygon fill="black" stroke="black" points="985.656,-294.396 996.588,-293.532 990.363,-296.082 995.07,-297.769 995.07,-297.769 995.07,-297.769 990.363,-296.082 993.553,-302.005 985.656,-294.396 985.656,-294.396"/>
</g>
<!-- ndError -->
<g id="node2" class="node"><title>ndError</title>
<g id="a_node2_8"><a xlink:href="https://github.com/maidsafe/sn_dbc/blob/master/src/mock/error.rs#:~:text=enum%20Error" xlink:title="&lt;TABLE&gt;">
<polygon fill="yellow" stroke="none" points="213,-336.5 213,-373.5 272,-373.5 272,-336.5 213,-336.5"/>
<polygon fill="none" stroke="black" points="213,-336.5 213,-373.5 272,-373.5 272,-336.5 213,-336.5"/>
<text text-anchor="start" x="224" y="-352.3" font-family="Arial" font-weight="bold" font-size="14.00">Error</text>
<polygon fill="none" stroke="black" points="211.5,-336 211.5,-375 272.5,-375 272.5,-336 211.5,-336"/>
</a>
</g>
</g>
<!-- ndDbc -->
<g id="node13" class="node"><title>ndDbc</title>
<g id="a_node13_9"><a xlink:href="https://github.com/maidsafe/sn_dbc/blob/master/src/dbc.rs#:~:text=struct%20Dbc" xlink:title="&lt;TABLE&gt;">
<polygon fill="lightblue" stroke="none" points="437,-170.5 437,-207.5 487,-207.5 487,-170.5 437,-170.5"/>
<polygon fill="none" stroke="black" points="437,-170.5 437,-207.5 487,-207.5 487,-170.5 437,-170.5"/>
<text text-anchor="start" x="448" y="-186.3" font-family="Arial" font-weight="bold" font-size="14.00">Dbc</text>
<polygon fill="none" stroke="black" points="436,-170 436,-209 488,-209 488,-170 436,-170"/>
</a>
</g>
</g>
<!-- ndError&#45;&gt;ndDbc -->
<g id="edge8" class="edge"><title>ndError&#45;&gt;ndDbc</title>
<path fill="none" stroke="black" d="M239.455,-331.579C238.166,-307.796 240.174,-271.057 261,-249 308.069,-199.151 346.041,-234.925 411,-213 413.407,-212.188 415.857,-211.305 418.315,-210.376"/>
<polygon fill="black" stroke="black" points="427.766,-206.606 420.145,-214.491 423.122,-208.458 418.478,-210.311 418.478,-210.311 418.478,-210.311 423.122,-208.458 416.811,-206.131 427.766,-206.606 427.766,-206.606"/>
</g>
<!-- ndAmountSecrets -->
<g id="node19" class="node"><title>ndAmountSecrets</title>
<g id="a_node19_10"><a xlink:href="https://github.com/maidsafe/sn_dbc/blob/master/src/amount_secrets.rs#:~:text=struct%20AmountSecrets" xlink:title="&lt;TABLE&gt;">
<polygon fill="lightblue" stroke="none" points="75,-253.5 75,-290.5 205,-290.5 205,-253.5 75,-253.5"/>
<polygon fill="none" stroke="black" points="75,-253.5 75,-290.5 205,-290.5 205,-253.5 75,-253.5"/>
<text text-anchor="start" x="86" y="-269.3" font-family="Arial" font-weight="bold" font-size="14.00">AmountSecrets</text>
<polygon fill="none" stroke="black" points="74,-253 74,-292 206,-292 206,-253 74,-253"/>
</a>
</g>
</g>
<!-- ndError&#45;&gt;ndAmountSecrets -->
<g id="edge9" class="edge"><title>ndError&#45;&gt;ndAmountSecrets</title>
<path fill="none" stroke="black" d="M213.587,-331.937C202.188,-322.885 188.903,-312.335 176.782,-302.709"/>
<polygon fill="black" stroke="black" points="168.614,-296.223 179.244,-298.918 172.53,-299.332 176.445,-302.442 176.445,-302.442 176.445,-302.442 172.53,-299.332 173.647,-305.966 168.614,-296.223 168.614,-296.223"/>
</g>
<!-- ndTransactionVerifier -->
<g id="node20" class="node"><title>ndTransactionVerifier</title>
<g id="a_node20_11"><a xlink:href="https://github.com/maidsafe/sn_dbc/blob/master/src/verification.rs#:~:text=struct%20TransactionVerifier" xlink:title="&lt;TABLE&gt;">
<polygon fill="lightblue" stroke="none" points="280,-253.5 280,-290.5 435,-290.5 435,-253.5 280,-253.5"/>
<polygon fill="none" stroke="black" points="280,-253.5 280,-290.5 435,-290.5 435,-253.5 280,-253.5"/>
<text text-anchor="start" x="291" y="-269.3" font-family="Arial" font-weight="bold" font-size="14.00">TransactionVerifier</text>
<polygon fill="none" stroke="black" points="278.5,-253 278.5,-292 435.5,-292 435.5,-253 278.5,-253"/>
</a>
</g>
</g>
<!-- ndError&#45;&gt;ndTransactionVerifier -->
<g id="edge10" class="edge"><title>ndError&#45;&gt;ndTransactionVerifier</title>
<path fill="none" stroke="black" d="M274.034,-331.937C287.133,-322.711 302.441,-311.928 316.317,-302.155"/>
<polygon fill="black" stroke="black" points="324.739,-296.223 319.155,-305.66 320.651,-299.102 316.563,-301.981 316.563,-301.981 316.563,-301.981 320.651,-299.102 313.972,-298.302 324.739,-296.223 324.739,-296.223"/>
</g>
<!-- ndIndexedSignatureShare -->
<g id="node3" class="node"><title>ndIndexedSignatureShare</title>
<g id="a_node3_12"><a xlink:href="https://github.com/maidsafe/sn_dbc/blob/master/src/key_manager.rs#:~:text=struct%20IndexedSignatureShare" xlink:title="&lt;TABLE&gt;">
<polygon fill="lightblue" stroke="none" points="876,-336.5 876,-373.5 1063,-373.5 1063,-336.5 876,-336.5"/>
<polygon fill="none" stroke="black" points="876,-336.5 876,-373.5 1063,-373.5 1063,-336.5 876,-336.5"/>
<text text-anchor="start" x="887" y="-352.3" font-family="Arial" font-weight="bold" font-size="14.00">IndexedSignatureShare</text>
<polygon fill="none" stroke="black" points="874.5,-336 874.5,-375 1063.5,-375 1063.5,-336 874.5,-336"/>
</a>
</g>
</g>
<!-- ndIndexedSignatureShare&#45;&gt;ndKeyManager -->
<g id="edge11" class="edge"><title>ndIndexedSignatureShare&#45;&gt;ndKeyManager</title>
<path fill="none" stroke="black" d="M906.604,-331.937C878.807,-321.885 845.901,-309.987 817.061,-299.558"/>
<polygon fill="black" stroke="black" points="807.45,-296.082 818.384,-295.251 812.152,-297.783 816.854,-299.483 816.854,-299.483 816.854,-299.483 812.152,-297.783 815.324,-303.715 807.45,-296.082 807.45,-296.082"/>
</g>
<!-- ndIndexedSignatureShare&#45;&gt;ndSpentProofShare -->
<g id="edge12" class="edge"><title>ndIndexedSignatureShare&#45;&gt;ndSpentProofShare</title>
<path fill="none" stroke="black" d="M1001.03,-331.937C1013.64,-323.059 1028.29,-312.74 1041.74,-303.266"/>
<polygon fill="black" stroke="black" points="1041.93,-303.133 1044.53,-296.408 1051.74,-296.223 1049.14,-302.948 1041.93,-303.133"/>
</g>
<!-- ndKeyManager&#45;&gt;ndSpentBookNode -->
<g id="edge13" class="edge"><title>ndKeyManager&#45;&gt;ndSpentBookNode</title>
<path fill="none" stroke="black" stroke-dasharray="5,2" d="M757.256,-248.937C761.748,-240.668 766.919,-231.149 771.765,-222.227"/>
<polygon fill="black" stroke="black" points="776.657,-213.223 775.838,-224.158 774.27,-217.617 771.883,-222.01 771.883,-222.01 771.883,-222.01 774.27,-217.617 767.929,-219.862 776.657,-213.223 776.657,-213.223"/>
</g>
<!-- ndDbcContent&#45;&gt;ndDbc -->
<g id="edge14" class="edge"><title>ndDbcContent&#45;&gt;ndDbc</title>
<path fill="none" stroke="black" d="M534.144,-248.937C523.399,-240.233 510.943,-230.144 499.437,-220.824"/>
<polygon fill="black" stroke="black" points="499.378,-220.776 492.198,-220.108 490.053,-213.223 497.233,-213.891 499.378,-220.776"/>
</g>
<!-- ndGenesisMaterial -->
<g id="node6" class="node"><title>ndGenesisMaterial</title>
<g id="a_node6_13"><a xlink:href="https://github.com/maidsafe/sn_dbc/blob/master/src/genesis.rs#:~:text=struct%20GenesisMaterial" xlink:title="&lt;TABLE&gt;">
<polygon fill="lightblue" stroke="none" points="180,-170.5 180,-207.5 315,-207.5 315,-170.5 180,-170.5"/>
<polygon fill="none" stroke="black" points="180,-170.5 180,-207.5 315,-207.5 315,-170.5 180,-170.5"/>
<text text-anchor="start" x="191" y="-186.3" font-family="Arial" font-weight="bold" font-size="14.00">GenesisMaterial</text>
<polygon fill="none" stroke="black" points="178.5,-170 178.5,-209 315.5,-209 315.5,-170 178.5,-170"/>
</a>
</g>
</g>
<!-- ndGenesisBuilder -->
<g id="node7" class="node"><title>ndGenesisBuilder</title>
<g id="a_node7_14"><a xlink:href="https://github.com/maidsafe/sn_dbc/blob/master/src/mock/genesis_builder.rs#:~:text=struct%20GenesisBuilder" xlink:title="&lt;TABLE&gt;">
<polygon fill="lightblue" stroke="none" points="293,-87.5 293,-124.5 423,-124.5 423,-87.5 293,-87.5"/>
<polygon fill="none" stroke="black" points="293,-87.5 293,-124.5 423,-124.5 423,-87.5 293,-87.5"/>
<text text-anchor="start" x="304" y="-103.3" font-family="Arial" font-weight="bold" font-size="14.00">GenesisBuilder</text>
<polygon fill="none" stroke="black" points="292,-87 292,-126 424,-126 424,-87 292,-87"/>
</a>
</g>
</g>
<!-- ndGenesisMaterial&#45;&gt;ndGenesisBuilder -->
<g id="edge15" class="edge"><title>ndGenesisMaterial&#45;&gt;ndGenesisBuilder</title>
<path fill="none" stroke="black" d="M277.92,-165.937C290.563,-156.711 305.339,-145.928 318.732,-136.155"/>
<polygon fill="black" stroke="black" points="326.861,-130.223 321.436,-139.753 322.822,-133.17 318.783,-136.118 318.783,-136.118 318.783,-136.118 322.822,-133.17 316.131,-132.483 326.861,-130.223 326.861,-130.223"/>
</g>
<!-- ndSigner -->
<g id="node8" class="node"><title>ndSigner</title>
<g id="a_node8_15"><a xlink:href="https://github.com/maidsafe/sn_dbc/blob/master/src/mock/key_manager.rs#:~:text=struct%20Signer" xlink:title="&lt;TABLE&gt;">
<polygon fill="lightblue" stroke="none" points="601,-336.5 601,-373.5 669,-373.5 669,-336.5 601,-336.5"/>
<polygon fill="none" stroke="black" points="601,-336.5 601,-373.5 669,-373.5 669,-336.5 601,-336.5"/>
<text text-anchor="start" x="612" y="-352.3" font-family="Arial" font-weight="bold" font-size="14.00">Signer</text>
<polygon fill="none" stroke="black" points="600,-336 600,-375 670,-375 670,-336 600,-336"/>
</a>
</g>
</g>
<!-- ndSigner&#45;&gt;ndKeyManager -->
<g id="edge16" class="edge"><title>ndSigner&#45;&gt;ndKeyManager</title>
<path fill="none" stroke="black" stroke-dasharray="5,2" d="M665.641,-331.937C678.17,-322.711 692.813,-311.928 706.086,-302.155"/>
<polygon fill="black" stroke="black" points="714.142,-296.223 708.758,-305.776 710.115,-299.188 706.089,-302.152 706.089,-302.152 706.089,-302.152 710.115,-299.188 703.421,-298.529 714.142,-296.223 714.142,-296.223"/>
</g>
<!-- ndKeys&#45;&gt;ndKeyManager -->
<g id="edge17" class="edge"><title>ndKeys&#45;&gt;ndKeyManager</title>
<path fill="none" stroke="black" d="M764.479,-331.937C761.984,-324.452 759.147,-315.942 756.426,-307.778"/>
<polygon fill="black" stroke="black" points="756.369,-307.607 750.677,-303.18 752.574,-296.223 758.266,-300.65 756.369,-307.607"/>
</g>
<!-- ndSpentBookNode&#45;&gt;ndGenesisBuilder -->
<g id="edge18" class="edge"><title>ndSpentBookNode&#45;&gt;ndGenesisBuilder</title>
<path fill="none" stroke="black" stroke-dasharray="5,2" d="M711.946,-174.019C636.017,-159.749 520.322,-138.006 442.056,-123.297"/>
<polygon fill="black" stroke="black" points="432.226,-121.45 442.885,-118.874 437.14,-122.373 442.054,-123.297 442.054,-123.297 442.054,-123.297 437.14,-122.373 441.222,-127.719 432.226,-121.45 432.226,-121.45"/>
</g>
<!-- ndOwner -->
<g id="node11" class="node"><title>ndOwner</title>
<g id="a_node11_16"><a xlink:href="https://github.com/maidsafe/sn_dbc/blob/master/src/owner.rs#:~:text=enum%20Owner" xlink:title="&lt;TABLE&gt;">
<polygon fill="yellow" stroke="none" points="421,-336.5 421,-373.5 489,-373.5 489,-336.5 421,-336.5"/>
<polygon fill="none" stroke="black" points="421,-336.5 421,-373.5 489,-373.5 489,-336.5 421,-336.5"/>
<text text-anchor="start" x="432" y="-352.3" font-family="Arial" font-weight="bold" font-size="14.00">Owner</text>
<polygon fill="none" stroke="black" points="420,-336 420,-375 490,-375 490,-336 420,-336"/>
</a>
</g>
</g>
<!-- ndOwner&#45;&gt;ndDbcContent -->
<g id="edge19" class="edge"><title>ndOwner&#45;&gt;ndDbcContent</title>
<path fill="none" stroke="black" d="M484.805,-331.937C496.418,-323.146 509.897,-312.942 522.312,-303.544"/>
<polygon fill="black" stroke="black" points="522.416,-303.466 524.785,-296.655 531.983,-296.223 529.614,-303.034 522.416,-303.466"/>
</g>
<!-- ndOwnerOnce -->
<g id="node12" class="node"><title>ndOwnerOnce</title>
<g id="a_node12_17"><a xlink:href="https://github.com/maidsafe/sn_dbc/blob/master/src/owner.rs#:~:text=struct%20OwnerOnce" xlink:title="&lt;TABLE&gt;">
<polygon fill="lightblue" stroke="none" points="403,-419.5 403,-456.5 508,-456.5 508,-419.5 403,-419.5"/>
<polygon fill="none" stroke="black" points="403,-419.5 403,-456.5 508,-456.5 508,-419.5 403,-419.5"/>
<text text-anchor="start" x="414" y="-435.3" font-family="Arial" font-weight="bold" font-size="14.00">OwnerOnce</text>
<polygon fill="none" stroke="black" points="401.5,-419 401.5,-458 508.5,-458 508.5,-419 401.5,-419"/>
</a>
</g>
</g>
<!-- ndOwner&#45;&gt;ndOwnerOnce -->
<g id="edge20" class="edge"><title>ndOwner&#45;&gt;ndOwnerOnce</title>
<path fill="none" stroke="black" stroke-dasharray="5,2" d="M461.135,-379.223C461.676,-386.548 461.86,-394.842 461.688,-402.827"/>
<polygon fill="black" stroke="black" points="461.682,-402.95 465.398,-409.13 461.123,-414.937 457.407,-408.757 461.682,-402.95"/>
</g>
<!-- ndOwner&#45;&gt;ndDbc -->
<g id="edge21" class="edge"><title>ndOwner&#45;&gt;ndDbc</title>
<path fill="none" stroke="black" d="M455.973,-331.697C457.175,-303.546 459.227,-255.465 460.598,-223.341"/>
<polygon fill="black" stroke="black" points="461.035,-213.11 465.104,-223.293 460.822,-218.105 460.608,-223.101 460.608,-223.101 460.608,-223.101 460.822,-218.105 456.113,-222.909 461.035,-213.11 461.035,-213.11"/>
</g>
<!-- ndOwnerOnce&#45;&gt;ndGenesisMaterial -->
<g id="edge22" class="edge"><title>ndOwnerOnce&#45;&gt;ndGenesisMaterial</title>
<path fill="none" stroke="black" d="M393.209,-438.092C298.903,-435.11 123.051,-413.243 57,-296 46.747,-277.8 44.5914,-265.804 57,-249 80.4028,-217.307 120.71,-202.247 158.194,-195.287"/>
<polygon fill="black" stroke="black" points="158.4,-195.253 163.67,-190.331 170.24,-193.301 164.971,-198.224 158.4,-195.253"/>
</g>
<!-- ndOwnerOnce&#45;&gt;ndOwner -->
<g id="edge23" class="edge"><title>ndOwnerOnce&#45;&gt;ndOwner</title>
<path fill="none" stroke="black" stroke-dasharray="5,2" d="M448.877,-414.937C448.285,-407.016 448.113,-397.949 448.358,-389.357"/>
<polygon fill="black" stroke="black" points="448.865,-379.223 452.86,-389.435 448.615,-384.217 448.365,-389.21 448.365,-389.21 448.365,-389.21 448.615,-384.217 443.871,-388.986 448.865,-379.223 448.865,-379.223"/>
</g>
<!-- ndTransactionBuilder -->
<g id="node14" class="node"><title>ndTransactionBuilder</title>
<g id="a_node14_18"><a xlink:href="https://github.com/maidsafe/sn_dbc/blob/master/src/builder.rs#:~:text=struct%20TransactionBuilder" xlink:title="&lt;TABLE&gt;">
<polygon fill="lightblue" stroke="none" points="223,-4.5 223,-41.5 379,-41.5 379,-4.5 223,-4.5"/>
<polygon fill="none" stroke="black" points="223,-4.5 223,-41.5 379,-41.5 379,-4.5 223,-4.5"/>
<text text-anchor="start" x="234" y="-20.3" font-family="Arial" font-weight="bold" font-size="14.00">TransactionBuilder</text>
<polygon fill="none" stroke="black" points="222,-4 222,-43 380,-43 380,-4 222,-4"/>
</a>
</g>
</g>
<!-- ndOwnerOnce&#45;&gt;ndTransactionBuilder -->
<g id="edge24" class="edge"><title>ndOwnerOnce&#45;&gt;ndTransactionBuilder</title>
<path fill="none" stroke="black" stroke-dasharray="5,2" d="M393.155,-433.316C301.148,-426.177 133.521,-409.383 82,-379 30.8459,-348.833 0,-332.887 0,-273.5 0,-273.5 0,-273.5 0,-188.5 0,-93.9521 115.933,-53.5932 203.901,-36.5786"/>
<polygon fill="black" stroke="black" points="213.938,-34.7137 204.929,-40.9647 209.022,-35.627 204.107,-36.5404 204.107,-36.5404 204.107,-36.5404 209.022,-35.627 203.285,-32.1161 213.938,-34.7137 213.938,-34.7137"/>
</g>
<!-- ndDbcBuilder -->
<g id="node15" class="node"><title>ndDbcBuilder</title>
<g id="a_node15_19"><a xlink:href="https://github.com/maidsafe/sn_dbc/blob/master/src/builder.rs#:~:text=struct%20DbcBuilder" xlink:title="&lt;TABLE&gt;">
<polygon fill="lightblue" stroke="none" points="551,-87.5 551,-124.5 652,-124.5 652,-87.5 551,-87.5"/>
<polygon fill="none" stroke="black" points="551,-87.5 551,-124.5 652,-124.5 652,-87.5 551,-87.5"/>
<text text-anchor="start" x="562" y="-103.3" font-family="Arial" font-weight="bold" font-size="14.00">DbcBuilder</text>
<polygon fill="none" stroke="black" points="549.5,-87 549.5,-126 652.5,-126 652.5,-87 549.5,-87"/>
</a>
</g>
</g>
<!-- ndOwnerOnce&#45;&gt;ndDbcBuilder -->
<g id="edge25" class="edge"><title>ndOwnerOnce&#45;&gt;ndDbcBuilder</title>
<path fill="none" stroke="black" d="M481.616,-414.831C507.264,-393.161 547.324,-359.773 583,-332 604.324,-315.4 619.796,-320.111 632,-296 657.614,-245.398 635.175,-178.287 617.452,-139.303"/>
<polygon fill="black" stroke="black" points="613.08,-130.025 621.413,-137.153 615.211,-134.548 617.343,-139.071 617.343,-139.071 617.343,-139.071 615.211,-134.548 613.272,-140.989 613.08,-130.025 613.08,-130.025"/>
</g>
<!-- ndDbc&#45;&gt;ndGenesisBuilder -->
<g id="edge26" class="edge"><title>ndDbc&#45;&gt;ndGenesisBuilder</title>
<path fill="none" stroke="black" d="M433.03,-165.937C421.296,-156.798 407.601,-146.132 395.147,-136.432"/>
<polygon fill="black" stroke="black" points="387.175,-130.223 397.83,-132.817 391.12,-133.295 395.065,-136.368 395.065,-136.368 395.065,-136.368 391.12,-133.295 392.299,-139.918 387.175,-130.223 387.175,-130.223"/>
</g>
<!-- ndDbc&#45;&gt;ndTransactionBuilder -->
<g id="edge27" class="edge"><title>ndDbc&#45;&gt;ndTransactionBuilder</title>
<path fill="none" stroke="black" stroke-dasharray="5,2" d="M463.334,-165.744C463.479,-142.443 460.158,-106.415 441,-83 429.459,-68.8943 413.93,-58.1402 397.412,-49.9563"/>
<polygon fill="black" stroke="black" points="388.153,-45.6691 399.118,-45.7872 392.69,-47.77 397.227,-49.8708 397.227,-49.8708 397.227,-49.8708 392.69,-47.77 395.336,-53.9543 388.153,-45.6691 388.153,-45.6691"/>
</g>
<!-- ndDbc&#45;&gt;ndDbcBuilder -->
<g id="edge28" class="edge"><title>ndDbc&#45;&gt;ndDbcBuilder</title>
<path fill="none" stroke="black" d="M496.003,-168.685C513.21,-158.658 534.386,-146.318 553.202,-135.353"/>
<polygon fill="black" stroke="black" points="561.94,-130.262 555.565,-139.185 557.62,-132.779 553.3,-135.297 553.3,-135.297 553.3,-135.297 557.62,-132.779 551.034,-131.409 561.94,-130.262 561.94,-130.262"/>
</g>
<!-- ndDbcBuilder&#45;&gt;ndTransactionBuilder -->
<g id="edge29" class="edge"><title>ndDbcBuilder&#45;&gt;ndTransactionBuilder</title>
<path fill="none" stroke="black" d="M541.371,-89.4002C499.327,-78.0483 442.181,-62.6188 394.157,-49.6525"/>
<polygon fill="black" stroke="black" points="384.37,-47.0098 395.197,-45.2721 389.197,-48.3132 394.024,-49.6166 394.024,-49.6166 394.024,-49.6166 389.197,-48.3132 392.851,-53.961 384.37,-47.0098 384.37,-47.0098"/>
</g>
<!-- ndSpentProofContent&#45;&gt;ndSpentProofShare -->
<g id="edge30" class="edge"><title>ndSpentProofContent&#45;&gt;ndSpentProofShare</title>
<path fill="none" stroke="black" d="M1178.51,-331.937C1163.87,-322.885 1146.81,-312.335 1131.24,-302.709"/>
<polygon fill="black" stroke="black" points="1130.96,-302.534 1123.75,-302.781 1120.75,-296.223 1127.96,-295.976 1130.96,-302.534"/>
</g>
<!-- ndSpentProofContent&#45;&gt;ndSpentProof -->
<g id="edge31" class="edge"><title>ndSpentProofContent&#45;&gt;ndSpentProof</title>
<path fill="none" stroke="black" d="M1127.8,-332.722C1090.03,-322.98 1045.09,-310.981 997.21,-296.89"/>
<polygon fill="black" stroke="black" points="997.145,-296.871 990.255,-299.001 985.639,-293.461 992.529,-291.331 997.145,-296.871"/>
</g>
<!-- ndSpentProofShare&#45;&gt;ndSpentBookNode -->
<g id="edge32" class="edge"><title>ndSpentProofShare&#45;&gt;ndSpentBookNode</title>
<path fill="none" stroke="black" d="M1003.39,-249.366C963.911,-238.526 916.322,-225.46 876.019,-214.393"/>
<polygon fill="black" stroke="black" points="866.207,-211.699 877.041,-210.008 871.028,-213.023 875.85,-214.347 875.85,-214.347 875.85,-214.347 871.028,-213.023 874.658,-218.686 866.207,-211.699 866.207,-211.699"/>
</g>
<!-- ndSpentProofShare&#45;&gt;ndDbcBuilder -->
<g id="edge33" class="edge"><title>ndSpentProofShare&#45;&gt;ndDbcBuilder</title>
<path fill="none" stroke="black" stroke-dasharray="5,2" d="M1053.53,-248.948C1019.35,-224.761 961.426,-187.006 906,-166 829.193,-136.891 735.789,-121.71 672.742,-114.189"/>
<polygon fill="black" stroke="black" points="672.472,-114.158 666.054,-117.445 660.551,-112.785 666.969,-109.498 672.472,-114.158"/>
</g>
<!-- ndSpentProof&#45;&gt;ndDbc -->
<g id="edge34" class="edge"><title>ndSpentProof&#45;&gt;ndDbc</title>
<path fill="none" stroke="black" d="M866.39,-258.608C850.678,-255.34 833.722,-251.928 818,-249 707.282,-228.38 576.469,-207.866 508.41,-197.482"/>
<polygon fill="black" stroke="black" points="508.315,-197.467 501.782,-200.519 496.451,-195.663 502.985,-192.61 508.315,-197.467"/>
</g>
<!-- ndSpentProof&#45;&gt;ndDbcBuilder -->
<g id="edge35" class="edge"><title>ndSpentProof&#45;&gt;ndDbcBuilder</title>
<path fill="none" stroke="black" d="M921.258,-248.841C914.959,-224.561 901.406,-186.724 875,-166 843.818,-141.527 741.279,-124.504 670.882,-115.364"/>
<polygon fill="black" stroke="black" points="660.742,-114.073 671.23,-110.872 665.702,-114.705 670.661,-115.336 670.661,-115.336 670.661,-115.336 665.702,-114.705 670.093,-119.8 660.742,-114.073 660.742,-114.073"/>
</g>
<!-- ndAmountSecrets&#45;&gt;ndGenesisBuilder -->
<g id="edge36" class="edge"><title>ndAmountSecrets&#45;&gt;ndGenesisBuilder</title>
<path fill="none" stroke="black" d="M214.195,-252.654C264.528,-239.238 323.433,-222.044 332,-213 350.338,-193.642 356.352,-163.497 358.06,-140.379"/>
<polygon fill="black" stroke="black" points="358.571,-130.315 362.558,-140.531 358.318,-135.309 358.064,-140.303 358.064,-140.303 358.064,-140.303 358.318,-135.309 353.57,-140.074 358.571,-130.315 358.571,-130.315"/>
</g>
<!-- ndAmountSecrets&#45;&gt;ndDbc -->
<g id="edge37" class="edge"><title>ndAmountSecrets&#45;&gt;ndDbc</title>
<path fill="none" stroke="black" d="M214.346,-252.179C218.96,-251.077 223.539,-250.008 228,-249 308.853,-230.726 331.93,-237.881 411,-213 413.423,-212.237 415.886,-211.395 418.354,-210.496"/>
<polygon fill="black" stroke="black" points="427.832,-206.806 420.145,-214.628 423.172,-208.62 418.513,-210.435 418.513,-210.435 418.513,-210.435 423.172,-208.62 416.88,-206.241 427.832,-206.806 427.832,-206.806"/>
</g>
<!-- ndAmountSecrets&#45;&gt;ndTransactionBuilder -->
<g id="edge38" class="edge"><title>ndAmountSecrets&#45;&gt;ndTransactionBuilder</title>
<path fill="none" stroke="black" stroke-dasharray="5,2" d="M140.761,-248.833C142.343,-226.57 147.071,-192.224 161,-166 185.435,-119.999 229.628,-79.1146 261.843,-53.2683"/>
<polygon fill="black" stroke="black" points="269.756,-47.0272 264.691,-56.7534 265.83,-50.1237 261.904,-53.2201 261.904,-53.2201 261.904,-53.2201 265.83,-50.1237 259.117,-49.6868 269.756,-47.0272 269.756,-47.0272"/>
</g>
<!-- ndAmountSecrets&#45;&gt;ndDbcBuilder -->
<g id="edge39" class="edge"><title>ndAmountSecrets&#45;&gt;ndDbcBuilder</title>
<path fill="none" stroke="black" d="M214.111,-253.141C272.006,-238.543 344.806,-219.526 358,-213 388.678,-197.826 388.702,-181.918 419,-166 454.165,-147.525 496.23,-133.538 531.057,-123.881"/>
<polygon fill="black" stroke="black" points="541.146,-121.148 532.671,-128.106 536.32,-122.455 531.494,-123.763 531.494,-123.763 531.494,-123.763 536.32,-122.455 530.317,-119.42 541.146,-121.148 541.146,-121.148"/>
</g>
</g>
</svg>
