<?xml version="1.0" encoding="UTF-8" standalone="no"?>
<!DOCTYPE svg PUBLIC "-//W3C//DTD SVG 1.1//EN"
 "http://www.w3.org/Graphics/SVG/1.1/DTD/svg11.dtd">
<!-- Generated by graphviz version 2.38.0 (20140413.2041)
 -->
<!-- Title: ml Pages: 1 -->
<svg width="2646pt" height="1172pt"
 viewBox="0.00 0.00 2646.27 1172.00" xmlns="http://www.w3.org/2000/svg" xmlns:xlink="http://www.w3.org/1999/xlink">
<g id="graph0" class="graph" transform="scale(1 1) rotate(0) translate(4 1168)">
<title>ml</title>
<polygon fill="white" stroke="none" points="-4,4 -4,-1168 2642.27,-1168 2642.27,4 -4,4"/>
<!-- ndHash -->
<g id="node1" class="node"><title>ndHash</title>
<g id="a_node1_0"><a xlink:href="https://github.com/maidsafe/sn_dbc/blob/master/src/lib.rs#:~:text=struct%20Hash" xlink:title="&lt;TABLE&gt;">
<polygon fill="lightblue" stroke="none" points="1151.68,-1114.5 1151.68,-1151.5 1229.68,-1151.5 1229.68,-1114.5 1151.68,-1114.5"/>
<polygon fill="none" stroke="black" points="1151.68,-1114.5 1151.68,-1151.5 1229.68,-1151.5 1229.68,-1114.5 1151.68,-1114.5"/>
<text text-anchor="start" x="1172.68" y="-1130.3" font-family="Arial" font-weight="bold" font-size="14.00">Hash</text>
<polygon fill="white" stroke="none" points="1151.68,-1077.5 1151.68,-1114.5 1229.68,-1114.5 1229.68,-1077.5 1151.68,-1077.5"/>
<polygon fill="none" stroke="black" points="1151.68,-1077.5 1151.68,-1114.5 1229.68,-1114.5 1229.68,-1077.5 1151.68,-1077.5"/>
<text text-anchor="start" x="1162.68" y="-1092.3" font-family="Arial" font-size="14.00">&#45; [u8; 32]</text>
<polygon fill="none" stroke="black" points="1150.68,-1076.5 1150.68,-1152.5 1230.68,-1152.5 1230.68,-1076.5 1150.68,-1076.5"/>
</a>
</g>
</g>
<!-- ndSimpleKeyManager -->
<g id="node6" class="node"><title>ndSimpleKeyManager</title>
<g id="a_node6_1"><a xlink:href="https://github.com/maidsafe/sn_dbc/blob/master/src/key_manager.rs#:~:text=struct%20SimpleKeyManager" xlink:title="&lt;TABLE&gt;">
<polygon fill="lightblue" stroke="none" points="637.678,-559 637.678,-596 800.678,-596 800.678,-559 637.678,-559"/>
<polygon fill="none" stroke="black" points="637.678,-559 637.678,-596 800.678,-596 800.678,-559 637.678,-559"/>
<text text-anchor="start" x="651.178" y="-574.8" font-family="Arial" font-weight="bold" font-size="14.00">SimpleKeyManager</text>
<polygon fill="white" stroke="none" points="637.678,-507 637.678,-559 800.678,-559 800.678,-507 637.678,-507"/>
<polygon fill="none" stroke="black" points="637.678,-507 637.678,-559 800.678,-559 800.678,-507 637.678,-507"/>
<text text-anchor="start" x="648.678" y="-536.8" font-family="Arial" font-size="14.00">&#45; signer: SimpleSigner</text>
<text text-anchor="start" x="648.678" y="-521.8" font-family="Arial" font-size="14.00">&#45; cache: Keys</text>
<polygon fill="none" stroke="black" points="636.178,-506.5 636.178,-597.5 801.178,-597.5 801.178,-506.5 636.178,-506.5"/>
</a>
</g>
</g>
<!-- ndHash&#45;&gt;ndSimpleKeyManager -->
<g id="edge1" class="edge"><title>ndHash&#45;&gt;ndSimpleKeyManager</title>
<path fill="none" stroke="black" stroke-dasharray="5,2" d="M1142.58,-1111.42C1039.39,-1105.88 801.949,-1086.98 750.678,-1029 723.621,-998.404 719.261,-732.362 718.685,-611.866"/>
<polygon fill="black" stroke="black" points="718.644,-601.71 723.185,-611.692 718.664,-606.71 718.685,-611.71 718.685,-611.71 718.685,-611.71 718.664,-606.71 714.185,-611.728 718.644,-601.71 718.644,-601.71"/>
</g>
<!-- ndKeys -->
<g id="node7" class="node"><title>ndKeys</title>
<g id="a_node7_2"><a xlink:href="https://github.com/maidsafe/sn_dbc/blob/master/src/key_manager.rs#:~:text=struct%20Keys" xlink:title="&lt;TABLE&gt;">
<polygon fill="lightblue" stroke="none" points="99.6777,-837 99.6777,-874 264.678,-874 264.678,-837 99.6777,-837"/>
<polygon fill="none" stroke="black" points="99.6777,-837 99.6777,-874 264.678,-874 264.678,-837 99.6777,-837"/>
<text text-anchor="start" x="164.178" y="-852.8" font-family="Arial" font-weight="bold" font-size="14.00">Keys</text>
<polygon fill="white" stroke="none" points="99.6777,-800 99.6777,-837 264.678,-837 264.678,-800 99.6777,-800"/>
<polygon fill="none" stroke="black" points="99.6777,-800 99.6777,-837 264.678,-837 264.678,-800 99.6777,-800"/>
<text text-anchor="start" x="110.678" y="-814.8" font-family="Arial" font-size="14.00">&#45; HashSet&lt;PublicKey&gt;</text>
<polygon fill="none" stroke="black" points="98.1777,-799 98.1777,-875 265.178,-875 265.178,-799 98.1777,-799"/>
</a>
</g>
</g>
<!-- ndHash&#45;&gt;ndKeys -->
<g id="edge2" class="edge"><title>ndHash&#45;&gt;ndKeys</title>
<path fill="none" stroke="black" stroke-dasharray="5,2" d="M1142.57,-1111.68C965.219,-1104.62 354.607,-1077.01 282.678,-1029 234.53,-996.861 207.728,-934.058 194.033,-889.242"/>
<polygon fill="black" stroke="black" points="191.147,-879.404 198.28,-887.733 192.555,-884.202 193.962,-889 193.962,-889 193.962,-889 192.555,-884.202 189.644,-890.266 191.147,-879.404 191.147,-879.404"/>
</g>
<!-- ndDbcContent -->
<g id="node8" class="node"><title>ndDbcContent</title>
<g id="a_node8_3"><a xlink:href="https://github.com/maidsafe/sn_dbc/blob/master/src/dbc_content.rs#:~:text=struct%20DbcContent" xlink:title="&lt;TABLE&gt;">
<polygon fill="lightblue" stroke="none" points="1674.68,-567 1674.68,-604 1935.68,-604 1935.68,-567 1674.68,-567"/>
<polygon fill="none" stroke="black" points="1674.68,-567 1674.68,-604 1935.68,-604 1935.68,-567 1674.68,-567"/>
<text text-anchor="start" x="1763.68" y="-582.8" font-family="Arial" font-weight="bold" font-size="14.00">DbcContent</text>
<polygon fill="white" stroke="none" points="1674.68,-500 1674.68,-567 1935.68,-567 1935.68,-500 1674.68,-500"/>
<polygon fill="none" stroke="black" points="1674.68,-500 1674.68,-567 1935.68,-567 1935.68,-500 1674.68,-500"/>
<text text-anchor="start" x="1685.68" y="-544.8" font-family="Arial" font-size="14.00">+ owner_base: Owner</text>
<text text-anchor="start" x="1685.68" y="-529.8" font-family="Arial" font-size="14.00">+ owner_derivation_cipher: Ciphertext</text>
<text text-anchor="start" x="1685.68" y="-514.8" font-family="Arial" font-size="14.00">+ amount_secrets_cipher: Ciphertext</text>
<polygon fill="none" stroke="black" points="1673.18,-499 1673.18,-605 1936.18,-605 1936.18,-499 1673.18,-499"/>
</a>
</g>
</g>
<!-- ndHash&#45;&gt;ndDbcContent -->
<g id="edge3" class="edge"><title>ndHash&#45;&gt;ndDbcContent</title>
<path fill="none" stroke="black" d="M1238.95,-1109.16C1330.51,-1099.93 1524.4,-1075.32 1570.68,-1029 1694.22,-905.34 1554.44,-787.493 1655.68,-645 1663.33,-634.237 1672.67,-624.478 1682.91,-615.692"/>
<polygon fill="black" stroke="black" points="1690.9,-609.162 1686,-618.974 1687.03,-612.326 1683.15,-615.489 1683.15,-615.489 1683.15,-615.489 1687.03,-612.326 1680.31,-612.004 1690.9,-609.162 1690.9,-609.162"/>
</g>
<!-- ndSpentProofContent -->
<g id="node15" class="node"><title>ndSpentProofContent</title>
<g id="a_node15_4"><a xlink:href="https://github.com/maidsafe/sn_dbc/blob/master/src/spent_proof.rs#:~:text=struct%20SpentProofContent" xlink:title="&lt;TABLE&gt;">
<polygon fill="lightblue" stroke="none" points="1227.68,-852 1227.68,-889 1523.68,-889 1523.68,-852 1227.68,-852"/>
<polygon fill="none" stroke="black" points="1227.68,-852 1227.68,-889 1523.68,-889 1523.68,-852 1227.68,-852"/>
<text text-anchor="start" x="1308.68" y="-867.8" font-family="Arial" font-weight="bold" font-size="14.00">SpentProofContent</text>
<polygon fill="white" stroke="none" points="1227.68,-785 1227.68,-852 1523.68,-852 1523.68,-785 1227.68,-785"/>
<polygon fill="none" stroke="black" points="1227.68,-785 1227.68,-852 1523.68,-852 1523.68,-785 1227.68,-785"/>
<text text-anchor="start" x="1238.68" y="-829.8" font-family="Arial" font-size="14.00">+ key_image: KeyImage</text>
<text text-anchor="start" x="1238.68" y="-814.8" font-family="Arial" font-size="14.00">+ transaction_hash: Hash</text>
<text text-anchor="start" x="1238.68" y="-799.8" font-family="Arial" font-size="14.00">+ public_commitments: Vec&lt;Commitment&gt;</text>
<polygon fill="none" stroke="black" points="1226.68,-784 1226.68,-890 1524.68,-890 1524.68,-784 1226.68,-784"/>
</a>
</g>
</g>
<!-- ndHash&#45;&gt;ndSpentProofContent -->
<g id="edge4" class="edge"><title>ndHash&#45;&gt;ndSpentProofContent</title>
<path fill="none" stroke="black" d="M1218.37,-1072.25C1248.19,-1027.86 1296.05,-956.576 1331.16,-904.291"/>
<polygon fill="black" stroke="black" points="1331.32,-904.063 1331.34,-896.852 1338.01,-894.101 1337.98,-901.312 1331.32,-904.063"/>
</g>
<!-- ndSpentProofShare -->
<g id="node16" class="node"><title>ndSpentProofShare</title>
<g id="a_node16_5"><a xlink:href="https://github.com/maidsafe/sn_dbc/blob/master/src/spent_proof.rs#:~:text=struct%20SpentProofShare" xlink:title="&lt;TABLE&gt;">
<polygon fill="lightblue" stroke="none" points="999.678,-567 999.678,-604 1328.68,-604 1328.68,-567 999.678,-567"/>
<polygon fill="none" stroke="black" points="999.678,-567 999.678,-604 1328.68,-604 1328.68,-567 999.678,-567"/>
<text text-anchor="start" x="1103.68" y="-582.8" font-family="Arial" font-weight="bold" font-size="14.00">SpentProofShare</text>
<polygon fill="white" stroke="none" points="999.678,-500 999.678,-567 1328.68,-567 1328.68,-500 999.678,-500"/>
<polygon fill="none" stroke="black" points="999.678,-500 999.678,-567 1328.68,-567 1328.68,-500 999.678,-500"/>
<text text-anchor="start" x="1010.68" y="-544.8" font-family="Arial" font-size="14.00">+ content: SpentProofContent</text>
<text text-anchor="start" x="1010.68" y="-529.8" font-family="Arial" font-size="14.00">+ spentbook_pks: PublicKeySet</text>
<text text-anchor="start" x="1010.68" y="-514.8" font-family="Arial" font-size="14.00">+ spentbook_sig_share: IndexedSignatureShare</text>
<polygon fill="none" stroke="black" points="998.178,-499 998.178,-605 1329.18,-605 1329.18,-499 998.178,-499"/>
</a>
</g>
</g>
<!-- ndHash&#45;&gt;ndSpentProofShare -->
<g id="edge5" class="edge"><title>ndHash&#45;&gt;ndSpentProofShare</title>
<path fill="none" stroke="black" d="M1189.38,-1072.43C1186.71,-990.9 1180.05,-802.863 1170.68,-645 1170.19,-636.725 1169.61,-628.036 1169,-619.439"/>
<polygon fill="black" stroke="black" points="1168.27,-609.419 1173.48,-619.066 1168.63,-614.405 1168.99,-619.392 1168.99,-619.392 1168.99,-619.392 1168.63,-614.405 1164.51,-619.719 1168.27,-609.419 1168.27,-609.419"/>
</g>
<!-- ndSpentProof -->
<g id="node17" class="node"><title>ndSpentProof</title>
<g id="a_node17_6"><a xlink:href="https://github.com/maidsafe/sn_dbc/blob/master/src/spent_proof.rs#:~:text=struct%20SpentProof" xlink:title="&lt;TABLE&gt;">
<polygon fill="lightblue" stroke="none" points="1364.68,-567 1364.68,-604 1599.68,-604 1599.68,-567 1364.68,-567"/>
<polygon fill="none" stroke="black" points="1364.68,-567 1364.68,-604 1599.68,-604 1599.68,-567 1364.68,-567"/>
<text text-anchor="start" x="1442.68" y="-582.8" font-family="Arial" font-weight="bold" font-size="14.00">SpentProof</text>
<polygon fill="white" stroke="none" points="1364.68,-500 1364.68,-567 1599.68,-567 1599.68,-500 1364.68,-500"/>
<polygon fill="none" stroke="black" points="1364.68,-500 1364.68,-567 1599.68,-567 1599.68,-500 1364.68,-500"/>
<text text-anchor="start" x="1375.68" y="-544.8" font-family="Arial" font-size="14.00">+ content: SpentProofContent</text>
<text text-anchor="start" x="1375.68" y="-529.8" font-family="Arial" font-size="14.00">+ spentbook_pub_key: PublicKey</text>
<text text-anchor="start" x="1375.68" y="-514.8" font-family="Arial" font-size="14.00">+ spentbook_sig: Signature</text>
<polygon fill="none" stroke="black" points="1363.18,-499 1363.18,-605 1600.18,-605 1600.18,-499 1363.18,-499"/>
</a>
</g>
</g>
<!-- ndHash&#45;&gt;ndSpentProof -->
<g id="edge6" class="edge"><title>ndHash&#45;&gt;ndSpentProof</title>
<path fill="none" stroke="black" stroke-dasharray="5,2" d="M1238.88,-1109.12C1326.09,-1100.1 1504.49,-1076.2 1541.68,-1029 1594.49,-961.97 1565.99,-726.796 1541.68,-645 1538.96,-635.843 1535,-626.747 1530.4,-618.038"/>
<polygon fill="black" stroke="black" points="1525.4,-609.117 1534.21,-615.638 1527.84,-613.478 1530.29,-617.839 1530.29,-617.839 1530.29,-617.839 1527.84,-613.478 1526.36,-620.04 1525.4,-609.117 1525.4,-609.117"/>
</g>
<!-- ndSpentBookNodeMock -->
<g id="node19" class="node"><title>ndSpentBookNodeMock</title>
<g id="a_node19_7"><a xlink:href="https://github.com/maidsafe/sn_dbc/blob/master/src/spentbook.rs#:~:text=struct%20SpentBookNodeMock" xlink:title="&lt;TABLE&gt;">
<polygon fill="lightblue" stroke="none" points="602.678,-417 602.678,-454 952.678,-454 952.678,-417 602.678,-417"/>
<polygon fill="none" stroke="black" points="602.678,-417 602.678,-454 952.678,-454 952.678,-417 602.678,-417"/>
<text text-anchor="start" x="701.678" y="-432.8" font-family="Arial" font-weight="bold" font-size="14.00">SpentBookNodeMock</text>
<polygon fill="white" stroke="none" points="602.678,-320 602.678,-417 952.678,-417 952.678,-320 602.678,-320"/>
<polygon fill="none" stroke="black" points="602.678,-320 602.678,-417 952.678,-417 952.678,-320 602.678,-320"/>
<text text-anchor="start" x="613.678" y="-394.8" font-family="Arial" font-size="14.00">+ key_manager: SimpleKeyManager</text>
<text text-anchor="start" x="613.678" y="-379.8" font-family="Arial" font-size="14.00">+ transactions: HashMap&lt;Hash, RingCtTransaction&gt;</text>
<text text-anchor="start" x="613.678" y="-364.8" font-family="Arial" font-size="14.00">+ key_images: BTreeMap&lt;KeyImage, Hash&gt;</text>
<text text-anchor="start" x="613.678" y="-349.8" font-family="Arial" font-size="14.00">+ outputs: BTreeMap&lt;PublicKey, OutputProof&gt;</text>
<text text-anchor="start" x="613.678" y="-334.8" font-family="Arial" font-size="14.00">+ genesis: (KeyImage, Commitment)</text>
<polygon fill="none" stroke="black" points="601.678,-319 601.678,-455 953.678,-455 953.678,-319 601.678,-319"/>
</a>
</g>
</g>
<!-- ndHash&#45;&gt;ndSpentBookNodeMock -->
<g id="edge7" class="edge"><title>ndHash&#45;&gt;ndSpentBookNodeMock</title>
<path fill="none" stroke="black" d="M1142.38,-1113.59C938.303,-1113.47 153.753,-1107.85 80.6777,-1029 -35.3313,-903.824 -16.9195,-785.007 80.6777,-645 192.744,-484.237 417.327,-423.774 581.38,-401.182"/>
<polygon fill="black" stroke="black" points="581.685,-401.142 587.104,-396.384 593.579,-399.557 588.161,-404.314 581.685,-401.142"/>
</g>
<!-- ndError -->
<g id="node2" class="node"><title>ndError</title>
<g id="a_node2_8"><a xlink:href="https://github.com/maidsafe/sn_dbc/blob/master/src/error.rs#:~:text=enum%20Error" xlink:title="&lt;TABLE&gt;">
<polygon fill="yellow" stroke="none" points="2236.68,-987 2236.68,-1024 2550.68,-1024 2550.68,-987 2236.68,-987"/>
<polygon fill="none" stroke="black" points="2236.68,-987 2236.68,-1024 2550.68,-1024 2550.68,-987 2236.68,-987"/>
<text text-anchor="start" x="2375.18" y="-1002.8" font-family="Arial" font-weight="bold" font-size="14.00">Error</text>
<polygon fill="white" stroke="none" points="2236.68,-650 2236.68,-987 2550.68,-987 2550.68,-650 2236.68,-650"/>
<polygon fill="none" stroke="black" points="2236.68,-650 2236.68,-987 2550.68,-987 2550.68,-650 2236.68,-650"/>
<text text-anchor="start" x="2247.68" y="-964.8" font-family="Arial" font-size="14.00">FailedSignature</text>
<text text-anchor="start" x="2247.68" y="-949.8" font-family="Arial" font-size="14.00">UnrecognisedAuthority</text>
<text text-anchor="start" x="2247.68" y="-934.8" font-family="Arial" font-size="14.00">InvalidSpentProofSignature(KeyImage, String)</text>
<text text-anchor="start" x="2247.68" y="-919.8" font-family="Arial" font-size="14.00">InvalidTransactionHash</text>
<text text-anchor="start" x="2247.68" y="-904.8" font-family="Arial" font-size="14.00">DbcContentNotPresentInTransactionOutput</text>
<text text-anchor="start" x="2247.68" y="-889.8" font-family="Arial" font-size="14.00">OutputProofNotFound</text>
<text text-anchor="start" x="2247.68" y="-874.8" font-family="Arial" font-size="14.00">PublicKeyNotUniqueAcrossOutputs</text>
<text text-anchor="start" x="2247.68" y="-859.8" font-family="Arial" font-size="14.00">SpentProofInputLenMismatch</text>
<text text-anchor="start" x="2247.68" y="-844.8" font-family="Arial" font-size="14.00">SpentProofInputKeyImageMismatch</text>
<text text-anchor="start" x="2247.68" y="-829.8" font-family="Arial" font-size="14.00">MissingSpentProofShare(KeyImage)</text>
<text text-anchor="start" x="2247.68" y="-814.8" font-family="Arial" font-size="14.00">DecryptionBySecretKeyFailed</text>
<text text-anchor="start" x="2247.68" y="-799.8" font-family="Arial" font-size="14.00">AmountSecretsBytesInvalid</text>
<text text-anchor="start" x="2247.68" y="-784.8" font-family="Arial" font-size="14.00">AmountCommitmentsDoNotMatch</text>
<text text-anchor="start" x="2247.68" y="-769.8" font-family="Arial" font-size="14.00">SecretKeyUnavailable</text>
<text text-anchor="start" x="2247.68" y="-754.8" font-family="Arial" font-size="14.00">PublicKeyNotFound</text>
<text text-anchor="start" x="2247.68" y="-739.8" font-family="Arial" font-size="14.00">SecretKeyDoesNotMatchPublicKey</text>
<text text-anchor="start" x="2247.68" y="-724.8" font-family="Arial" font-size="14.00">SpentbookKeyImageAlreadySpent</text>
<text text-anchor="start" x="2247.68" y="-709.8" font-family="Arial" font-size="14.00">SpentbookRingSizeMismatch(usize, usize)</text>
<text text-anchor="start" x="2247.68" y="-694.8" font-family="Arial" font-size="14.00">Blsttc(blsttc::error::Error)</text>
<text text-anchor="start" x="2247.68" y="-679.8" font-family="Arial" font-size="14.00">RingCt(blst_ringct::Error)</text>
<text text-anchor="start" x="2247.68" y="-664.8" font-family="Arial" font-size="14.00">Infallible(std::convert::Infallible)</text>
<polygon fill="none" stroke="black" points="2235.68,-649 2235.68,-1025 2551.68,-1025 2551.68,-649 2235.68,-649"/>
</a>
</g>
</g>
<!-- ndDbc -->
<g id="node12" class="node"><title>ndDbc</title>
<g id="a_node12_9"><a xlink:href="https://github.com/maidsafe/sn_dbc/blob/master/src/dbc.rs#:~:text=struct%20Dbc" xlink:title="&lt;TABLE&gt;">
<polygon fill="lightblue" stroke="none" points="1782.68,-402 1782.68,-439 2059.68,-439 2059.68,-402 1782.68,-402"/>
<polygon fill="none" stroke="black" points="1782.68,-402 1782.68,-439 2059.68,-439 2059.68,-402 1782.68,-402"/>
<text text-anchor="start" x="1907.18" y="-417.8" font-family="Arial" font-weight="bold" font-size="14.00">Dbc</text>
<polygon fill="white" stroke="none" points="1782.68,-335 1782.68,-402 2059.68,-402 2059.68,-335 1782.68,-335"/>
<polygon fill="none" stroke="black" points="1782.68,-335 1782.68,-402 2059.68,-402 2059.68,-335 1782.68,-335"/>
<text text-anchor="start" x="1793.68" y="-379.8" font-family="Arial" font-size="14.00">+ content: DbcContent</text>
<text text-anchor="start" x="1793.68" y="-364.8" font-family="Arial" font-size="14.00">+ transaction: RingCtTransaction</text>
<text text-anchor="start" x="1793.68" y="-349.8" font-family="Arial" font-size="14.00">+ spent_proofs: BTreeSet&lt;SpentProof&gt;</text>
<polygon fill="none" stroke="black" points="1781.18,-334 1781.18,-440 2060.18,-440 2060.18,-334 1781.18,-334"/>
</a>
</g>
</g>
<!-- ndError&#45;&gt;ndDbc -->
<g id="edge8" class="edge"><title>ndError&#45;&gt;ndDbc</title>
<path fill="none" stroke="black" d="M2227.44,-650.13C2224.55,-648.356 2221.62,-646.644 2218.68,-645 2144.39,-603.533 2098.45,-660.423 2030.68,-609 2023.76,-603.753 1981.53,-516.614 1951.47,-453.35"/>
<polygon fill="black" stroke="black" points="1947.12,-444.201 1955.48,-451.306 1949.27,-448.718 1951.41,-453.235 1951.41,-453.235 1951.41,-453.235 1949.27,-448.718 1947.35,-455.165 1947.12,-444.201 1947.12,-444.201"/>
</g>
<!-- ndAmountSecrets -->
<g id="node18" class="node"><title>ndAmountSecrets</title>
<g id="a_node18_10"><a xlink:href="https://github.com/maidsafe/sn_dbc/blob/master/src/amount_secrets.rs#:~:text=struct%20AmountSecrets" xlink:title="&lt;TABLE&gt;">
<polygon fill="lightblue" stroke="none" points="2048.68,-552 2048.68,-589 2221.68,-589 2221.68,-552 2048.68,-552"/>
<polygon fill="none" stroke="black" points="2048.68,-552 2048.68,-589 2221.68,-589 2221.68,-552 2048.68,-552"/>
<text text-anchor="start" x="2081.18" y="-567.8" font-family="Arial" font-weight="bold" font-size="14.00">AmountSecrets</text>
<polygon fill="white" stroke="none" points="2048.68,-515 2048.68,-552 2221.68,-552 2221.68,-515 2048.68,-515"/>
<polygon fill="none" stroke="black" points="2048.68,-515 2048.68,-552 2221.68,-552 2221.68,-515 2048.68,-515"/>
<text text-anchor="start" x="2059.68" y="-529.8" font-family="Arial" font-size="14.00">&#45; RevealedCommitment</text>
<polygon fill="none" stroke="black" points="2047.18,-514 2047.18,-590 2222.18,-590 2222.18,-514 2047.18,-514"/>
</a>
</g>
</g>
<!-- ndError&#45;&gt;ndAmountSecrets -->
<g id="edge9" class="edge"><title>ndError&#45;&gt;ndAmountSecrets</title>
<path fill="none" stroke="black" d="M2227.45,-654.37C2209.84,-635.129 2193.22,-616.968 2179.04,-601.477"/>
<polygon fill="black" stroke="black" points="2172.29,-594.094 2182.36,-598.433 2175.66,-597.782 2179.04,-601.471 2179.04,-601.471 2179.04,-601.471 2175.66,-597.782 2175.72,-604.509 2172.29,-594.094 2172.29,-594.094"/>
</g>
<!-- ndTransactionVerifier -->
<g id="node20" class="node"><title>ndTransactionVerifier</title>
<g id="a_node20_11"><a xlink:href="https://github.com/maidsafe/sn_dbc/blob/master/src/verification.rs#:~:text=struct%20TransactionVerifier" xlink:title="&lt;TABLE&gt;">
<polygon fill="lightblue" stroke="none" points="2316.68,-533 2316.68,-570 2471.68,-570 2471.68,-533 2316.68,-533"/>
<polygon fill="none" stroke="black" points="2316.68,-533 2316.68,-570 2471.68,-570 2471.68,-533 2316.68,-533"/>
<text text-anchor="start" x="2327.68" y="-548.8" font-family="Arial" font-weight="bold" font-size="14.00">TransactionVerifier</text>
<polygon fill="none" stroke="black" points="2315.18,-532.5 2315.18,-571.5 2472.18,-571.5 2472.18,-532.5 2315.18,-532.5"/>
</a>
</g>
</g>
<!-- ndError&#45;&gt;ndTransactionVerifier -->
<g id="edge10" class="edge"><title>ndError&#45;&gt;ndTransactionVerifier</title>
<path fill="none" stroke="black" d="M2393.68,-644.882C2393.68,-622.457 2393.68,-601.936 2393.68,-586.003"/>
<polygon fill="black" stroke="black" points="2393.68,-575.738 2398.18,-585.738 2393.68,-580.738 2393.68,-585.738 2393.68,-585.738 2393.68,-585.738 2393.68,-580.738 2389.18,-585.738 2393.68,-575.738 2393.68,-575.738"/>
</g>
<!-- ndIndexedSignatureShare -->
<g id="node3" class="node"><title>ndIndexedSignatureShare</title>
<g id="a_node3_12"><a xlink:href="https://github.com/maidsafe/sn_dbc/blob/master/src/key_manager.rs#:~:text=struct%20IndexedSignatureShare" xlink:title="&lt;TABLE&gt;">
<polygon fill="lightblue" stroke="none" points="916.678,-844 916.678,-881 1153.68,-881 1153.68,-844 916.678,-844"/>
<polygon fill="none" stroke="black" points="916.678,-844 916.678,-881 1153.68,-881 1153.68,-844 916.678,-844"/>
<text text-anchor="start" x="952.678" y="-859.8" font-family="Arial" font-weight="bold" font-size="14.00">IndexedSignatureShare</text>
<polygon fill="white" stroke="none" points="916.678,-792 916.678,-844 1153.68,-844 1153.68,-792 916.678,-792"/>
<polygon fill="none" stroke="black" points="916.678,-792 916.678,-844 1153.68,-844 1153.68,-792 916.678,-792"/>
<text text-anchor="start" x="927.678" y="-821.8" font-family="Arial" font-size="14.00">&#45; index: u64</text>
<text text-anchor="start" x="927.678" y="-806.8" font-family="Arial" font-size="14.00">&#45; signature_share: SignatureShare</text>
<polygon fill="none" stroke="black" points="915.178,-791.5 915.178,-882.5 1154.18,-882.5 1154.18,-791.5 915.178,-791.5"/>
</a>
</g>
</g>
<!-- ndIndexedSignatureShare&#45;&gt;ndSimpleKeyManager -->
<g id="edge11" class="edge"><title>ndIndexedSignatureShare&#45;&gt;ndSimpleKeyManager</title>
<path fill="none" stroke="black" d="M1008.47,-787.102C984.141,-745.249 944.65,-685.51 897.678,-645 874.381,-624.908 845.935,-607.754 818.638,-593.894"/>
<polygon fill="black" stroke="black" points="809.434,-589.32 820.392,-589.74 813.912,-591.545 818.389,-593.77 818.389,-593.77 818.389,-593.77 813.912,-591.545 816.387,-597.8 809.434,-589.32 809.434,-589.32"/>
</g>
<!-- ndIndexedSignatureShare&#45;&gt;ndSpentProofShare -->
<g id="edge12" class="edge"><title>ndIndexedSignatureShare&#45;&gt;ndSpentProofShare</title>
<path fill="none" stroke="black" d="M1056.85,-787.351C1077.86,-741.267 1109.59,-671.659 1133.01,-620.271"/>
<polygon fill="black" stroke="black" points="1133.05,-620.189 1131.9,-613.07 1138.03,-609.27 1139.18,-616.389 1133.05,-620.189"/>
</g>
<!-- ndKeyManager -->
<g id="node4" class="node"><title>ndKeyManager</title>
<g id="a_node4_13"><a xlink:href="https://github.com/maidsafe/sn_dbc/blob/master/src/key_manager.rs#:~:text=trait%20KeyManager" xlink:title="&lt;TABLE&gt;">
<polygon fill="lightgreen" stroke="none" points="769.678,-818 769.678,-855 880.678,-855 880.678,-818 769.678,-818"/>
<polygon fill="none" stroke="black" points="769.678,-818 769.678,-855 880.678,-855 880.678,-818 769.678,-818"/>
<text text-anchor="start" x="780.678" y="-833.8" font-family="Arial" font-weight="bold" font-size="14.00">KeyManager</text>
<polygon fill="none" stroke="black" points="768.178,-817.5 768.178,-856.5 881.178,-856.5 881.178,-817.5 768.178,-817.5"/>
</a>
</g>
</g>
<!-- ndKeyManager&#45;&gt;ndSimpleKeyManager -->
<g id="edge13" class="edge"><title>ndKeyManager&#45;&gt;ndSimpleKeyManager</title>
<path fill="none" stroke="black" stroke-dasharray="5,2" d="M816.182,-813.319C799.931,-769.931 763.977,-673.94 740.564,-611.432"/>
<polygon fill="none" stroke="black" points="743.704,-609.837 736.919,-601.7 737.149,-612.293 743.704,-609.837"/>
</g>
<!-- ndKeyManager&#45;&gt;ndSpentBookNodeMock -->
<g id="edge14" class="edge"><title>ndKeyManager&#45;&gt;ndSpentBookNodeMock</title>
<path fill="none" stroke="black" stroke-dasharray="5,2" d="M826.808,-813.385C831.437,-758.305 840.277,-613.061 817.678,-495 816.039,-486.438 813.783,-477.661 811.171,-468.997"/>
<polygon fill="black" stroke="black" points="808.085,-459.279 815.401,-467.447 809.598,-464.044 811.112,-468.81 811.112,-468.81 811.112,-468.81 809.598,-464.044 806.823,-470.172 808.085,-459.279 808.085,-459.279"/>
</g>
<!-- ndSimpleSigner -->
<g id="node5" class="node"><title>ndSimpleSigner</title>
<g id="a_node5_14"><a xlink:href="https://github.com/maidsafe/sn_dbc/blob/master/src/key_manager.rs#:~:text=struct%20SimpleSigner" xlink:title="&lt;TABLE&gt;">
<polygon fill="lightblue" stroke="none" points="300.678,-844 300.678,-881 694.678,-881 694.678,-844 300.678,-844"/>
<polygon fill="none" stroke="black" points="300.678,-844 300.678,-881 694.678,-881 694.678,-844 300.678,-844"/>
<text text-anchor="start" x="450.678" y="-859.8" font-family="Arial" font-weight="bold" font-size="14.00">SimpleSigner</text>
<polygon fill="white" stroke="none" points="300.678,-792 300.678,-844 694.678,-844 694.678,-792 300.678,-792"/>
<polygon fill="none" stroke="black" points="300.678,-792 300.678,-844 694.678,-844 694.678,-792 300.678,-792"/>
<text text-anchor="start" x="311.678" y="-821.8" font-family="Arial" font-size="14.00">&#45; public_key_set: PublicKeySet</text>
<text text-anchor="start" x="311.678" y="-806.8" font-family="Arial" font-size="14.00">&#45; secret_key_share: (u64, SerdeSecret&lt;SecretKeyShare&gt;)</text>
<polygon fill="none" stroke="black" points="299.678,-791.5 299.678,-882.5 695.678,-882.5 695.678,-791.5 299.678,-791.5"/>
</a>
</g>
</g>
<!-- ndSimpleSigner&#45;&gt;ndSimpleKeyManager -->
<g id="edge15" class="edge"><title>ndSimpleSigner&#45;&gt;ndSimpleKeyManager</title>
<path fill="none" stroke="black" stroke-dasharray="5,2" d="M535.669,-787.351C573.697,-738.654 632.239,-663.688 672.829,-611.712"/>
<polygon fill="black" stroke="black" points="673.057,-611.42 673.597,-604.229 680.443,-601.962 679.902,-609.153 673.057,-611.42"/>
</g>
<!-- ndSimpleKeyManager&#45;&gt;ndSpentBookNodeMock -->
<g id="edge16" class="edge"><title>ndSimpleKeyManager&#45;&gt;ndSpentBookNodeMock</title>
<path fill="none" stroke="black" stroke-dasharray="5,2" d="M736.38,-502.095C739.969,-492.178 743.838,-481.49 747.717,-470.774"/>
<polygon fill="black" stroke="black" points="747.833,-470.452 746.114,-463.449 751.917,-459.168 753.636,-466.171 747.833,-470.452"/>
</g>
<!-- ndKeys&#45;&gt;ndSimpleKeyManager -->
<g id="edge17" class="edge"><title>ndKeys&#45;&gt;ndSimpleKeyManager</title>
<path fill="none" stroke="black" d="M192.159,-794.882C205.59,-750.84 233.263,-682.267 282.678,-645 334.226,-606.123 503.912,-578.831 615.763,-564.545"/>
<polygon fill="black" stroke="black" points="615.845,-564.535 621.298,-559.816 627.751,-563.035 622.298,-567.753 615.845,-564.535"/>
</g>
<!-- ndDbcContent&#45;&gt;ndDbc -->
<g id="edge18" class="edge"><title>ndDbcContent&#45;&gt;ndDbc</title>
<path fill="none" stroke="black" d="M1844.6,-494.905C1853.89,-481.842 1863.88,-467.812 1873.46,-454.354"/>
<polygon fill="black" stroke="black" points="1873.73,-453.976 1873.95,-446.768 1880.68,-444.199 1880.46,-451.407 1873.73,-453.976"/>
</g>
<!-- ndGenesisMaterial -->
<g id="node9" class="node"><title>ndGenesisMaterial</title>
<g id="a_node9_15"><a xlink:href="https://github.com/maidsafe/sn_dbc/blob/master/src/genesis.rs#:~:text=struct%20GenesisMaterial" xlink:title="&lt;TABLE&gt;">
<polygon fill="lightblue" stroke="none" points="1973.68,-852 1973.68,-889 2200.68,-889 2200.68,-852 1973.68,-852"/>
<polygon fill="none" stroke="black" points="1973.68,-852 1973.68,-889 2200.68,-889 2200.68,-852 1973.68,-852"/>
<text text-anchor="start" x="2030.68" y="-867.8" font-family="Arial" font-weight="bold" font-size="14.00">GenesisMaterial</text>
<polygon fill="white" stroke="none" points="1973.68,-785 1973.68,-852 2200.68,-852 2200.68,-785 1973.68,-785"/>
<polygon fill="none" stroke="black" points="1973.68,-785 1973.68,-852 2200.68,-852 2200.68,-785 1973.68,-785"/>
<text text-anchor="start" x="1984.68" y="-829.8" font-family="Arial" font-size="14.00">+ ringct_material: RingCtMaterial</text>
<text text-anchor="start" x="1984.68" y="-814.8" font-family="Arial" font-size="14.00">+ owner_once: OwnerOnce</text>
<text text-anchor="start" x="1984.68" y="-799.8" font-family="Arial" font-size="14.00">+ input_key_image: KeyImage</text>
<polygon fill="none" stroke="black" points="1972.18,-784 1972.18,-890 2201.18,-890 2201.18,-784 1972.18,-784"/>
</a>
</g>
</g>
<!-- ndOwner -->
<g id="node10" class="node"><title>ndOwner</title>
<g id="a_node10_16"><a xlink:href="https://github.com/maidsafe/sn_dbc/blob/master/src/owner.rs#:~:text=enum%20Owner" xlink:title="&lt;TABLE&gt;">
<polygon fill="yellow" stroke="none" points="1674.68,-844 1674.68,-881 1937.68,-881 1937.68,-844 1674.68,-844"/>
<polygon fill="none" stroke="black" points="1674.68,-844 1674.68,-881 1937.68,-881 1937.68,-844 1674.68,-844"/>
<text text-anchor="start" x="1783.18" y="-859.8" font-family="Arial" font-weight="bold" font-size="14.00">Owner</text>
<polygon fill="white" stroke="none" points="1674.68,-792 1674.68,-844 1937.68,-844 1937.68,-792 1674.68,-792"/>
<polygon fill="none" stroke="black" points="1674.68,-792 1674.68,-844 1937.68,-844 1937.68,-792 1674.68,-792"/>
<text text-anchor="start" x="1685.68" y="-821.8" font-family="Arial" font-size="14.00">SecretKey(SerdeSecret&lt;SecretKey&gt;)</text>
<text text-anchor="start" x="1685.68" y="-806.8" font-family="Arial" font-size="14.00">PublicKey(PublicKey)</text>
<polygon fill="none" stroke="black" points="1673.18,-791.5 1673.18,-882.5 1938.18,-882.5 1938.18,-791.5 1673.18,-791.5"/>
</a>
</g>
</g>
<!-- ndOwner&#45;&gt;ndDbcContent -->
<g id="edge19" class="edge"><title>ndOwner&#45;&gt;ndDbcContent</title>
<path fill="none" stroke="black" d="M1805.51,-787.351C1805.34,-741.653 1805.1,-672.825 1804.92,-621.568"/>
<polygon fill="black" stroke="black" points="1804.92,-621.27 1800.9,-615.284 1804.88,-609.27 1808.9,-615.256 1804.92,-621.27"/>
</g>
<!-- ndOwnerOnce -->
<g id="node11" class="node"><title>ndOwnerOnce</title>
<g id="a_node11_17"><a xlink:href="https://github.com/maidsafe/sn_dbc/blob/master/src/owner.rs#:~:text=struct%20OwnerOnce" xlink:title="&lt;TABLE&gt;">
<polygon fill="lightblue" stroke="none" points="1684.68,-1121.5 1684.68,-1158.5 1927.68,-1158.5 1927.68,-1121.5 1684.68,-1121.5"/>
<polygon fill="none" stroke="black" points="1684.68,-1121.5 1684.68,-1158.5 1927.68,-1158.5 1927.68,-1121.5 1684.68,-1121.5"/>
<text text-anchor="start" x="1764.68" y="-1137.3" font-family="Arial" font-weight="bold" font-size="14.00">OwnerOnce</text>
<polygon fill="white" stroke="none" points="1684.68,-1069.5 1684.68,-1121.5 1927.68,-1121.5 1927.68,-1069.5 1684.68,-1069.5"/>
<polygon fill="none" stroke="black" points="1684.68,-1069.5 1684.68,-1121.5 1927.68,-1121.5 1927.68,-1069.5 1684.68,-1069.5"/>
<text text-anchor="start" x="1695.68" y="-1099.3" font-family="Arial" font-size="14.00">+ owner_base: Owner</text>
<text text-anchor="start" x="1695.68" y="-1084.3" font-family="Arial" font-size="14.00">+ derivation_index: DerivationIndex</text>
<polygon fill="none" stroke="black" points="1683.18,-1069 1683.18,-1160 1928.18,-1160 1928.18,-1069 1683.18,-1069"/>
</a>
</g>
</g>
<!-- ndOwner&#45;&gt;ndOwnerOnce -->
<g id="edge20" class="edge"><title>ndOwner&#45;&gt;ndOwnerOnce</title>
<path fill="none" stroke="black" stroke-dasharray="5,2" d="M1810.97,-886.596C1812.76,-932.87 1812.9,-1002.68 1811.39,-1052.63"/>
<polygon fill="black" stroke="black" points="1811.38,-1052.89 1815.17,-1059.02 1810.97,-1064.88 1807.18,-1058.75 1811.38,-1052.89"/>
</g>
<!-- ndOwner&#45;&gt;ndDbc -->
<g id="edge21" class="edge"><title>ndOwner&#45;&gt;ndDbc</title>
<path fill="none" stroke="black" d="M1849.73,-787.129C1885.58,-743.837 1933.44,-677.096 1953.68,-609 1968.78,-558.18 1958.35,-498.637 1945.35,-454.168"/>
<polygon fill="black" stroke="black" points="1942.37,-444.347 1949.58,-452.607 1943.82,-449.131 1945.27,-453.915 1945.27,-453.915 1945.27,-453.915 1943.82,-449.131 1940.97,-455.224 1942.37,-444.347 1942.37,-444.347"/>
</g>
<!-- ndOwnerOnce&#45;&gt;ndGenesisMaterial -->
<g id="edge22" class="edge"><title>ndOwnerOnce&#45;&gt;ndGenesisMaterial</title>
<path fill="none" stroke="black" d="M1906.86,-1064.97C1924.11,-1054.39 1941.13,-1042.32 1955.68,-1029 1994.53,-993.433 2027.92,-944.257 2051.26,-904.711"/>
<polygon fill="black" stroke="black" points="2051.4,-904.472 2050.96,-897.274 2057.43,-894.094 2057.87,-901.292 2051.4,-904.472"/>
</g>
<!-- ndOwnerOnce&#45;&gt;ndOwner -->
<g id="edge23" class="edge"><title>ndOwnerOnce&#45;&gt;ndOwner</title>
<path fill="none" stroke="black" stroke-dasharray="5,2" d="M1800.39,-1064.88C1798.57,-1017.91 1798.45,-946.716 1800.04,-896.632"/>
<polygon fill="black" stroke="black" points="1800.39,-886.596 1804.53,-896.748 1800.21,-891.593 1800.04,-896.59 1800.04,-896.59 1800.04,-896.59 1800.21,-891.593 1795.54,-896.432 1800.39,-886.596 1800.39,-886.596"/>
</g>
<!-- ndTransactionBuilder -->
<g id="node13" class="node"><title>ndTransactionBuilder</title>
<g id="a_node13_18"><a xlink:href="https://github.com/maidsafe/sn_dbc/blob/master/src/builder.rs#:~:text=struct%20TransactionBuilder" xlink:title="&lt;TABLE&gt;">
<polygon fill="lightblue" stroke="none" points="1968.68,-56.5 1968.68,-93.5 2238.68,-93.5 2238.68,-56.5 1968.68,-56.5"/>
<polygon fill="none" stroke="black" points="1968.68,-56.5 1968.68,-93.5 2238.68,-93.5 2238.68,-56.5 1968.68,-56.5"/>
<text text-anchor="start" x="2036.68" y="-72.3" font-family="Arial" font-weight="bold" font-size="14.00">TransactionBuilder</text>
<polygon fill="white" stroke="none" points="1968.68,-4.5 1968.68,-56.5 2238.68,-56.5 2238.68,-4.5 1968.68,-4.5"/>
<polygon fill="none" stroke="black" points="1968.68,-4.5 1968.68,-56.5 2238.68,-56.5 2238.68,-4.5 1968.68,-4.5"/>
<text text-anchor="start" x="1979.68" y="-34.3" font-family="Arial" font-size="14.00">&#45; ringct_material: RingCtMaterial</text>
<text text-anchor="start" x="1979.68" y="-19.3" font-family="Arial" font-size="14.00">&#45; output_owner_map: OutputOwnerMap</text>
<polygon fill="none" stroke="black" points="1967.68,-4 1967.68,-95 2239.68,-95 2239.68,-4 1967.68,-4"/>
</a>
</g>
</g>
<!-- ndOwnerOnce&#45;&gt;ndTransactionBuilder -->
<g id="edge24" class="edge"><title>ndOwnerOnce&#45;&gt;ndTransactionBuilder</title>
<path fill="none" stroke="black" stroke-dasharray="5,2" d="M1936.56,-1108.15C2143.3,-1098.37 2526.45,-1074.31 2568.68,-1029 2713.03,-874.112 2587.68,-764.724 2587.68,-553 2587.68,-553 2587.68,-553 2587.68,-386 2587.68,-222.715 2399.31,-132.588 2257.6,-87.8881"/>
<polygon fill="black" stroke="black" points="2247.91,-84.8786 2258.8,-83.5468 2252.69,-86.3615 2257.46,-87.8443 2257.46,-87.8443 2257.46,-87.8443 2252.69,-86.3615 2256.13,-92.1419 2247.91,-84.8786 2247.91,-84.8786"/>
</g>
<!-- ndDbcBuilder -->
<g id="node14" class="node"><title>ndDbcBuilder</title>
<g id="a_node14_19"><a xlink:href="https://github.com/maidsafe/sn_dbc/blob/master/src/builder.rs#:~:text=struct%20DbcBuilder" xlink:title="&lt;TABLE&gt;">
<polygon fill="lightblue" stroke="none" points="1414.68,-237 1414.68,-274 1920.68,-274 1920.68,-237 1414.68,-237"/>
<polygon fill="none" stroke="black" points="1414.68,-237 1414.68,-274 1920.68,-274 1920.68,-237 1414.68,-237"/>
<text text-anchor="start" x="1628.18" y="-252.8" font-family="Arial" font-weight="bold" font-size="14.00">DbcBuilder</text>
<polygon fill="white" stroke="none" points="1414.68,-140 1414.68,-237 1920.68,-237 1920.68,-140 1414.68,-140"/>
<polygon fill="none" stroke="black" points="1414.68,-140 1414.68,-237 1920.68,-237 1920.68,-140 1414.68,-140"/>
<text text-anchor="start" x="1425.68" y="-214.8" font-family="Arial" font-size="14.00">+ transaction: RingCtTransaction</text>
<text text-anchor="start" x="1425.68" y="-199.8" font-family="Arial" font-size="14.00">+ revealed_commitments: Vec&lt;RevealedCommitment&gt;</text>
<text text-anchor="start" x="1425.68" y="-184.8" font-family="Arial" font-size="14.00">+ output_owner_map: OutputOwnerMap</text>
<text text-anchor="start" x="1425.68" y="-169.8" font-family="Arial" font-size="14.00">+ ringct_material: RingCtMaterial</text>
<text text-anchor="start" x="1425.68" y="-154.8" font-family="Arial" font-size="14.00">+ spent_proof_shares: BTreeMap&lt;KeyImage, HashSet&lt;SpentProofShare&gt;&gt;</text>
<polygon fill="none" stroke="black" points="1413.68,-139 1413.68,-275 1921.68,-275 1921.68,-139 1413.68,-139"/>
</a>
</g>
</g>
<!-- ndOwnerOnce&#45;&gt;ndDbcBuilder -->
<g id="edge25" class="edge"><title>ndOwnerOnce&#45;&gt;ndDbcBuilder</title>
<path fill="none" stroke="black" d="M1688.45,-1065C1675.42,-1054.97 1663.9,-1043.06 1655.68,-1029 1583.5,-905.493 1631.87,-471.006 1656.14,-289.075"/>
<polygon fill="black" stroke="black" points="1657.49,-279.031 1660.62,-289.541 1656.82,-283.987 1656.16,-288.942 1656.16,-288.942 1656.16,-288.942 1656.82,-283.987 1651.7,-288.343 1657.49,-279.031 1657.49,-279.031"/>
</g>
<!-- ndDbc&#45;&gt;ndTransactionBuilder -->
<g id="edge26" class="edge"><title>ndDbc&#45;&gt;ndTransactionBuilder</title>
<path fill="none" stroke="black" stroke-dasharray="5,2" d="M1951.31,-329.845C1984.86,-268.327 2038.41,-170.165 2072.27,-108.086"/>
<polygon fill="black" stroke="black" points="2077.12,-99.1977 2076.28,-110.132 2074.72,-103.587 2072.33,-107.977 2072.33,-107.977 2072.33,-107.977 2074.72,-103.587 2068.38,-105.822 2077.12,-99.1977 2077.12,-99.1977"/>
</g>
<!-- ndDbc&#45;&gt;ndDbcBuilder -->
<g id="edge27" class="edge"><title>ndDbc&#45;&gt;ndDbcBuilder</title>
<path fill="none" stroke="black" d="M1840.97,-329.924C1820.68,-315.647 1798.52,-300.054 1777.03,-284.935"/>
<polygon fill="black" stroke="black" points="1768.83,-279.167 1779.6,-281.24 1772.92,-282.044 1777.01,-284.921 1777.01,-284.921 1777.01,-284.921 1772.92,-282.044 1774.42,-288.601 1768.83,-279.167 1768.83,-279.167"/>
</g>
<!-- ndDbcBuilder&#45;&gt;ndTransactionBuilder -->
<g id="edge28" class="edge"><title>ndDbcBuilder&#45;&gt;ndTransactionBuilder</title>
<path fill="none" stroke="black" d="M1866.86,-134.962C1897.64,-123.985 1928.92,-112.828 1958.23,-102.375"/>
<polygon fill="black" stroke="black" points="1967.67,-99.0067 1959.76,-106.604 1962.96,-100.686 1958.25,-102.366 1958.25,-102.366 1958.25,-102.366 1962.96,-100.686 1956.74,-98.1275 1967.67,-99.0067 1967.67,-99.0067"/>
</g>
<!-- ndSpentProofContent&#45;&gt;ndSpentProofShare -->
<g id="edge29" class="edge"><title>ndSpentProofContent&#45;&gt;ndSpentProofShare</title>
<path fill="none" stroke="black" d="M1333.54,-779.75C1298.86,-733.453 1249.63,-667.744 1213.1,-618.971"/>
<polygon fill="black" stroke="black" points="1212.93,-618.748 1206.13,-616.344 1205.74,-609.144 1212.53,-611.547 1212.93,-618.748"/>
</g>
<!-- ndSpentProofContent&#45;&gt;ndSpentProof -->
<g id="edge30" class="edge"><title>ndSpentProofContent&#45;&gt;ndSpentProof</title>
<path fill="none" stroke="black" d="M1396.75,-779.75C1413.91,-733.936 1438.19,-669.114 1456.39,-620.504"/>
<polygon fill="black" stroke="black" points="1456.44,-620.381 1454.8,-613.359 1460.65,-609.144 1462.29,-616.165 1456.44,-620.381"/>
</g>
<!-- ndSpentProofShare&#45;&gt;ndDbcBuilder -->
<g id="edge31" class="edge"><title>ndSpentProofShare&#45;&gt;ndDbcBuilder</title>
<path fill="none" stroke="black" stroke-dasharray="5,2" d="M1246.06,-494.936C1329.54,-438.124 1459.37,-349.767 1552.91,-286.109"/>
<polygon fill="black" stroke="black" points="1553.06,-286.003 1555.77,-279.32 1562.98,-279.251 1560.27,-285.934 1553.06,-286.003"/>
</g>
<!-- ndSpentProofShare&#45;&gt;ndSpentBookNodeMock -->
<g id="edge32" class="edge"><title>ndSpentProofShare&#45;&gt;ndSpentBookNodeMock</title>
<path fill="none" stroke="black" d="M1030.84,-494.905C1006.46,-484.611 980.665,-473.718 955.228,-462.976"/>
<polygon fill="black" stroke="black" points="945.875,-459.026 956.838,-458.771 950.482,-460.972 955.088,-462.917 955.088,-462.917 955.088,-462.917 950.482,-460.972 953.337,-467.062 945.875,-459.026 945.875,-459.026"/>
</g>
<!-- ndSpentProof&#45;&gt;ndDbc -->
<g id="edge33" class="edge"><title>ndSpentProof&#45;&gt;ndDbc</title>
<path fill="none" stroke="black" d="M1608.36,-503.963C1656.16,-486.216 1711.15,-465.796 1761.55,-447.085"/>
<polygon fill="black" stroke="black" points="1761.65,-447.048 1765.88,-441.21 1772.9,-442.871 1768.66,-448.71 1761.65,-447.048"/>
</g>
<!-- ndSpentProof&#45;&gt;ndDbcBuilder -->
<g id="edge34" class="edge"><title>ndSpentProof&#45;&gt;ndDbcBuilder</title>
<path fill="none" stroke="black" d="M1512.18,-494.745C1542.64,-438.589 1589.72,-351.753 1624.11,-288.347"/>
<polygon fill="black" stroke="black" points="1629.08,-279.169 1628.27,-290.105 1626.7,-283.564 1624.32,-287.96 1624.32,-287.96 1624.32,-287.96 1626.7,-283.564 1620.36,-285.815 1629.08,-279.169 1629.08,-279.169"/>
</g>
<!-- ndAmountSecrets&#45;&gt;ndDbc -->
<g id="edge35" class="edge"><title>ndAmountSecrets&#45;&gt;ndDbc</title>
<path fill="none" stroke="black" d="M2080.68,-509.868C2057,-491.834 2028.69,-470.272 2002.51,-450.333"/>
<polygon fill="black" stroke="black" points="1994.46,-444.202 2005.15,-446.682 1998.44,-447.232 2002.42,-450.262 2002.42,-450.262 2002.42,-450.262 1998.44,-447.232 1999.69,-453.842 1994.46,-444.202 1994.46,-444.202"/>
</g>
<!-- ndAmountSecrets&#45;&gt;ndTransactionBuilder -->
<g id="edge36" class="edge"><title>ndAmountSecrets&#45;&gt;ndTransactionBuilder</title>
<path fill="none" stroke="black" stroke-dasharray="5,2" d="M2132.11,-509.616C2126.62,-420.856 2113.68,-211.946 2107.33,-109.389"/>
<polygon fill="black" stroke="black" points="2106.69,-99.2085 2111.8,-108.911 2107,-104.199 2107.31,-109.189 2107.31,-109.189 2107.31,-109.189 2107,-104.199 2102.82,-109.468 2106.69,-99.2085 2106.69,-99.2085"/>
</g>
<!-- ndAmountSecrets&#45;&gt;ndDbcBuilder -->
<g id="edge37" class="edge"><title>ndAmountSecrets&#45;&gt;ndDbcBuilder</title>
<path fill="none" stroke="black" d="M2127.11,-509.82C2115.02,-445.963 2091.34,-328.91 2077.68,-315 2055.42,-292.329 2001.5,-272.775 1939.82,-256.816"/>
<polygon fill="black" stroke="black" points="1929.86,-254.286 1940.66,-252.386 1934.71,-255.517 1939.56,-256.748 1939.56,-256.748 1939.56,-256.748 1934.71,-255.517 1938.45,-261.109 1929.86,-254.286 1929.86,-254.286"/>
</g>
</g>
</svg>
