<?xml version="1.0" encoding="UTF-8" standalone="no"?>
<!DOCTYPE svg PUBLIC "-//W3C//DTD SVG 1.1//EN"
 "http://www.w3.org/Graphics/SVG/1.1/DTD/svg11.dtd">
<!-- Generated by graphviz version 2.38.0 (20140413.2041)
 -->
<!-- Title: ml Pages: 1 -->
<svg width="1478pt" height="636pt"
 viewBox="0.00 0.00 1478.00 636.00" xmlns="http://www.w3.org/2000/svg" xmlns:xlink="http://www.w3.org/1999/xlink">
<g id="graph0" class="graph" transform="scale(1 1) rotate(0) translate(4 632)">
<title>ml</title>
<polygon fill="white" stroke="none" points="-4,4 -4,-632 1474,-632 1474,4 -4,4"/>
<!-- ndHash -->
<g id="node1" class="node"><title>ndHash</title>
<g id="a_node1_0"><a xlink:href="https://github.com/maidsafe/sn_dbc/blob/master/src/lib.rs#:~:text=struct%20Hash" xlink:title="&lt;TABLE&gt;">
<polygon fill="lightblue" stroke="none" points="641,-419.5 641,-456.5 699,-456.5 699,-419.5 641,-419.5"/>
<polygon fill="none" stroke="black" points="641,-419.5 641,-456.5 699,-456.5 699,-419.5 641,-419.5"/>
<text text-anchor="start" x="652" y="-435.3" font-family="Arial" font-weight="bold" font-size="14.00">Hash</text>
<polygon fill="none" stroke="black" points="640,-419 640,-458 700,-458 700,-419 640,-419"/>
</a>
</g>
</g>
<!-- ndSimpleKeyManager -->
<g id="node7" class="node"><title>ndSimpleKeyManager</title>
<g id="a_node7_1"><a xlink:href="https://github.com/maidsafe/sn_dbc/blob/master/src/key_manager.rs#:~:text=struct%20SimpleKeyManager" xlink:title="&lt;TABLE&gt;">
<polygon fill="lightblue" stroke="none" points="202,-253.5 202,-290.5 360,-290.5 360,-253.5 202,-253.5"/>
<polygon fill="none" stroke="black" points="202,-253.5 202,-290.5 360,-290.5 360,-253.5 202,-253.5"/>
<text text-anchor="start" x="213" y="-269.3" font-family="Arial" font-weight="bold" font-size="14.00">SimpleKeyManager</text>
<polygon fill="none" stroke="black" points="201,-253 201,-292 361,-292 361,-253 201,-253"/>
</a>
</g>
</g>
<!-- ndHash&#45;&gt;ndSimpleKeyManager -->
<g id="edge1" class="edge"><title>ndHash&#45;&gt;ndSimpleKeyManager</title>
<path fill="none" stroke="black" stroke-dasharray="5,2" d="M631.83,-431.745C593.119,-424.476 532.83,-409.098 489,-379 466.856,-363.794 473,-347.414 451,-332 429.561,-316.979 403.924,-305.522 379.14,-296.905"/>
<polygon fill="black" stroke="black" points="369.328,-293.622 380.239,-292.527 374.069,-295.208 378.811,-296.795 378.811,-296.795 378.811,-296.795 374.069,-295.208 377.383,-301.062 369.328,-293.622 369.328,-293.622"/>
</g>
<!-- ndKeys -->
<g id="node8" class="node"><title>ndKeys</title>
<g id="a_node8_2"><a xlink:href="https://github.com/maidsafe/sn_dbc/blob/master/src/key_manager.rs#:~:text=struct%20Keys" xlink:title="&lt;TABLE&gt;">
<polygon fill="lightblue" stroke="none" points="375,-336.5 375,-373.5 433,-373.5 433,-336.5 375,-336.5"/>
<polygon fill="none" stroke="black" points="375,-336.5 375,-373.5 433,-373.5 433,-336.5 375,-336.5"/>
<text text-anchor="start" x="386" y="-352.3" font-family="Arial" font-weight="bold" font-size="14.00">Keys</text>
<polygon fill="none" stroke="black" points="374,-336 374,-375 434,-375 434,-336 374,-336"/>
</a>
</g>
</g>
<!-- ndHash&#45;&gt;ndKeys -->
<g id="edge2" class="edge"><title>ndHash&#45;&gt;ndKeys</title>
<path fill="none" stroke="black" stroke-dasharray="5,2" d="M631.617,-428.745C588.398,-418.488 516.327,-400.178 456,-379 454.579,-378.501 453.142,-377.981 451.695,-377.445"/>
<polygon fill="black" stroke="black" points="442.094,-373.711 453.045,-373.142 446.754,-375.523 451.414,-377.336 451.414,-377.336 451.414,-377.336 446.754,-375.523 449.783,-381.53 442.094,-373.711 442.094,-373.711"/>
</g>
<!-- ndDbcContent -->
<g id="node15" class="node"><title>ndDbcContent</title>
<g id="a_node15_3"><a xlink:href="https://github.com/maidsafe/sn_dbc/blob/master/src/dbc_content.rs#:~:text=struct%20DbcContent" xlink:title="&lt;TABLE&gt;">
<polygon fill="lightblue" stroke="none" points="878,-336.5 878,-373.5 983,-373.5 983,-336.5 878,-336.5"/>
<polygon fill="none" stroke="black" points="878,-336.5 878,-373.5 983,-373.5 983,-336.5 878,-336.5"/>
<text text-anchor="start" x="889" y="-352.3" font-family="Arial" font-weight="bold" font-size="14.00">DbcContent</text>
<polygon fill="none" stroke="black" points="876.5,-336 876.5,-375 983.5,-375 983.5,-336 876.5,-336"/>
</a>
</g>
</g>
<!-- ndHash&#45;&gt;ndDbcContent -->
<g id="edge3" class="edge"><title>ndHash&#45;&gt;ndDbcContent</title>
<path fill="none" stroke="black" d="M708.034,-425.81C744.204,-414.674 800.4,-397.326 858.684,-379.091"/>
<polygon fill="black" stroke="black" points="868.434,-376.038 860.236,-383.32 863.663,-377.532 858.891,-379.026 858.891,-379.026 858.891,-379.026 863.663,-377.532 857.547,-374.732 868.434,-376.038 868.434,-376.038"/>
</g>
<!-- ndDbcTransaction -->
<g id="node16" class="node"><title>ndDbcTransaction</title>
<g id="a_node16_4"><a xlink:href="https://github.com/maidsafe/sn_dbc/blob/master/src/dbc_transaction.rs#:~:text=struct%20DbcTransaction" xlink:title="&lt;TABLE&gt;">
<polygon fill="lightblue" stroke="none" points="707,-336.5 707,-373.5 841,-373.5 841,-336.5 707,-336.5"/>
<polygon fill="none" stroke="black" points="707,-336.5 707,-373.5 841,-373.5 841,-336.5 707,-336.5"/>
<text text-anchor="start" x="718" y="-352.3" font-family="Arial" font-weight="bold" font-size="14.00">DbcTransaction</text>
<polygon fill="none" stroke="black" points="706,-336 706,-375 842,-375 842,-336 706,-336"/>
</a>
</g>
</g>
<!-- ndHash&#45;&gt;ndDbcTransaction -->
<g id="edge4" class="edge"><title>ndHash&#45;&gt;ndDbcTransaction</title>
<path fill="none" stroke="black" d="M698.97,-414.937C710.704,-405.798 724.399,-395.132 736.853,-385.432"/>
<polygon fill="black" stroke="black" points="744.825,-379.223 739.701,-388.918 740.88,-382.295 736.935,-385.368 736.935,-385.368 736.935,-385.368 740.88,-382.295 734.17,-381.817 744.825,-379.223 744.825,-379.223"/>
</g>
<!-- ndSpentProof -->
<g id="node24" class="node"><title>ndSpentProof</title>
<g id="a_node24_5"><a xlink:href="https://github.com/maidsafe/sn_dbc/blob/master/src/spent_proof.rs#:~:text=struct%20SpentProof" xlink:title="&lt;TABLE&gt;">
<polygon fill="lightblue" stroke="none" points="549,-170.5 549,-207.5 650,-207.5 650,-170.5 549,-170.5"/>
<polygon fill="none" stroke="black" points="549,-170.5 549,-207.5 650,-207.5 650,-170.5 549,-170.5"/>
<text text-anchor="start" x="560" y="-186.3" font-family="Arial" font-weight="bold" font-size="14.00">SpentProof</text>
<polygon fill="none" stroke="black" points="547.5,-170 547.5,-209 650.5,-209 650.5,-170 547.5,-170"/>
</a>
</g>
</g>
<!-- ndHash&#45;&gt;ndSpentProof -->
<g id="edge5" class="edge"><title>ndHash&#45;&gt;ndSpentProof</title>
<path fill="none" stroke="black" stroke-dasharray="5,2" d="M671.768,-414.833C672.355,-391.604 669.719,-355.634 651,-332 626.035,-300.48 590.062,-329.617 568,-296 553.27,-273.556 564.077,-243.935 576.81,-221.795"/>
<polygon fill="black" stroke="black" points="582.121,-213.108 580.745,-223.987 579.513,-217.374 576.905,-221.64 576.905,-221.64 576.905,-221.64 579.513,-217.374 573.066,-219.292 582.121,-213.108 582.121,-213.108"/>
</g>
<!-- ndDbcHelper -->
<g id="node2" class="node"><title>ndDbcHelper</title>
<g id="a_node2_6"><a xlink:href="https://github.com/maidsafe/sn_dbc/blob/master/src/lib.rs#:~:text=struct%20DbcHelper" xlink:title="&lt;TABLE&gt;">
<polygon fill="lightblue" stroke="none" points="1181,-253.5 1181,-290.5 1276,-290.5 1276,-253.5 1181,-253.5"/>
<polygon fill="none" stroke="black" points="1181,-253.5 1181,-290.5 1276,-290.5 1276,-253.5 1181,-253.5"/>
<text text-anchor="start" x="1192" y="-269.3" font-family="Arial" font-weight="bold" font-size="14.00">DbcHelper</text>
<polygon fill="none" stroke="black" points="1179.5,-253 1179.5,-292 1276.5,-292 1276.5,-253 1179.5,-253"/>
</a>
</g>
</g>
<!-- ndError -->
<g id="node3" class="node"><title>ndError</title>
<g id="a_node3_7"><a xlink:href="https://github.com/maidsafe/sn_dbc/blob/master/src/error.rs#:~:text=enum%20Error" xlink:title="&lt;TABLE&gt;">
<polygon fill="yellow" stroke="none" points="1058,-502.5 1058,-539.5 1117,-539.5 1117,-502.5 1058,-502.5"/>
<polygon fill="none" stroke="black" points="1058,-502.5 1058,-539.5 1117,-539.5 1117,-502.5 1058,-502.5"/>
<text text-anchor="start" x="1069" y="-518.3" font-family="Arial" font-weight="bold" font-size="14.00">Error</text>
<polygon fill="none" stroke="black" points="1056.5,-502 1056.5,-541 1117.5,-541 1117.5,-502 1056.5,-502"/>
</a>
</g>
</g>
<!-- ndError&#45;&gt;ndDbcHelper -->
<g id="edge6" class="edge"><title>ndError&#45;&gt;ndDbcHelper</title>
<path fill="none" stroke="black" d="M1125.59,-517.994C1162.63,-513.297 1216.72,-499.92 1243,-462 1275.3,-415.385 1257.18,-345.843 1241.97,-305.545"/>
<polygon fill="black" stroke="black" points="1238.3,-296.203 1246.15,-303.864 1240.13,-300.857 1241.96,-305.51 1241.96,-305.51 1241.96,-305.51 1240.13,-300.857 1237.77,-307.156 1238.3,-296.203 1238.3,-296.203"/>
</g>
<!-- ndAmountSecrets -->
<g id="node14" class="node"><title>ndAmountSecrets</title>
<g id="a_node14_8"><a xlink:href="https://github.com/maidsafe/sn_dbc/blob/master/src/dbc_content.rs#:~:text=struct%20AmountSecrets" xlink:title="&lt;TABLE&gt;">
<polygon fill="lightblue" stroke="none" points="1095,-419.5 1095,-456.5 1225,-456.5 1225,-419.5 1095,-419.5"/>
<polygon fill="none" stroke="black" points="1095,-419.5 1095,-456.5 1225,-456.5 1225,-419.5 1095,-419.5"/>
<text text-anchor="start" x="1106" y="-435.3" font-family="Arial" font-weight="bold" font-size="14.00">AmountSecrets</text>
<polygon fill="none" stroke="black" points="1094,-419 1094,-458 1226,-458 1226,-419 1094,-419"/>
</a>
</g>
</g>
<!-- ndError&#45;&gt;ndAmountSecrets -->
<g id="edge7" class="edge"><title>ndError&#45;&gt;ndAmountSecrets</title>
<path fill="none" stroke="black" d="M1107.33,-497.937C1115.18,-489.233 1124.27,-479.144 1132.67,-469.824"/>
<polygon fill="black" stroke="black" points="1139.52,-462.223 1136.17,-472.664 1136.17,-465.937 1132.83,-469.651 1132.83,-469.651 1132.83,-469.651 1136.17,-465.937 1129.48,-466.639 1139.52,-462.223 1139.52,-462.223"/>
</g>
<!-- ndError&#45;&gt;ndDbcContent -->
<g id="edge8" class="edge"><title>ndError&#45;&gt;ndDbcContent</title>
<path fill="none" stroke="black" d="M1065.17,-497.697C1037.4,-468.689 989.373,-418.52 958.674,-386.453"/>
<polygon fill="black" stroke="black" points="951.645,-379.11 961.811,-383.222 955.102,-382.722 958.56,-386.333 958.56,-386.333 958.56,-386.333 955.102,-382.722 955.309,-389.445 951.645,-379.11 951.645,-379.11"/>
</g>
<!-- ndDbc -->
<g id="node17" class="node"><title>ndDbc</title>
<g id="a_node17_9"><a xlink:href="https://github.com/maidsafe/sn_dbc/blob/master/src/dbc.rs#:~:text=struct%20Dbc" xlink:title="&lt;TABLE&gt;">
<polygon fill="lightblue" stroke="none" points="932,-253.5 932,-290.5 982,-290.5 982,-253.5 932,-253.5"/>
<polygon fill="none" stroke="black" points="932,-253.5 932,-290.5 982,-290.5 982,-253.5 932,-253.5"/>
<text text-anchor="start" x="943" y="-269.3" font-family="Arial" font-weight="bold" font-size="14.00">Dbc</text>
<polygon fill="none" stroke="black" points="931,-253 931,-292 983,-292 983,-253 931,-253"/>
</a>
</g>
</g>
<!-- ndError&#45;&gt;ndDbc -->
<g id="edge9" class="edge"><title>ndError&#45;&gt;ndDbc</title>
<path fill="none" stroke="black" d="M1082.51,-497.822C1073.53,-453.942 1052.6,-359.33 1034,-332 1025.01,-318.793 1012.07,-307.322 999.348,-298.121"/>
<polygon fill="black" stroke="black" points="991.067,-292.406 1001.85,-294.382 995.182,-295.246 999.298,-298.086 999.298,-298.086 999.298,-298.086 995.182,-295.246 996.742,-301.79 991.067,-292.406 991.067,-292.406"/>
</g>
<!-- ndNodeSignature -->
<g id="node4" class="node"><title>ndNodeSignature</title>
<g id="a_node4_10"><a xlink:href="https://github.com/maidsafe/sn_dbc/blob/master/src/key_manager.rs#:~:text=struct%20NodeSignature" xlink:title="&lt;TABLE&gt;">
<polygon fill="lightblue" stroke="none" points="507,-336.5 507,-373.5 633,-373.5 633,-336.5 507,-336.5"/>
<polygon fill="none" stroke="black" points="507,-336.5 507,-373.5 633,-373.5 633,-336.5 507,-336.5"/>
<text text-anchor="start" x="518" y="-352.3" font-family="Arial" font-weight="bold" font-size="14.00">NodeSignature</text>
<polygon fill="none" stroke="black" points="506,-336 506,-375 634,-375 634,-336 506,-336"/>
</a>
</g>
</g>
<!-- ndNodeSignature&#45;&gt;ndSimpleKeyManager -->
<g id="edge10" class="edge"><title>ndNodeSignature&#45;&gt;ndSimpleKeyManager</title>
<path fill="none" stroke="black" d="M497.819,-334.269C459.433,-323.511 411.875,-310.181 371.089,-298.75"/>
<polygon fill="black" stroke="black" points="361.419,-296.039 372.262,-294.405 366.233,-297.389 371.048,-298.738 371.048,-298.738 371.048,-298.738 366.233,-297.389 369.833,-303.071 361.419,-296.039 361.419,-296.039"/>
</g>
<!-- ndGenesisDbcShare -->
<g id="node9" class="node"><title>ndGenesisDbcShare</title>
<g id="a_node9_11"><a xlink:href="https://github.com/maidsafe/sn_dbc/blob/master/src/mint.rs#:~:text=struct%20GenesisDbcShare" xlink:title="&lt;TABLE&gt;">
<polygon fill="lightblue" stroke="none" points="587,-253.5 587,-290.5 736,-290.5 736,-253.5 587,-253.5"/>
<polygon fill="none" stroke="black" points="587,-253.5 587,-290.5 736,-290.5 736,-253.5 587,-253.5"/>
<text text-anchor="start" x="598" y="-269.3" font-family="Arial" font-weight="bold" font-size="14.00">GenesisDbcShare</text>
<polygon fill="none" stroke="black" points="585.5,-253 585.5,-292 736.5,-292 736.5,-253 585.5,-253"/>
</a>
</g>
</g>
<!-- ndNodeSignature&#45;&gt;ndGenesisDbcShare -->
<g id="edge11" class="edge"><title>ndNodeSignature&#45;&gt;ndGenesisDbcShare</title>
<path fill="none" stroke="black" d="M595.349,-331.937C604.931,-323.407 616.009,-313.547 626.303,-304.384"/>
<polygon fill="black" stroke="black" points="626.508,-304.201 628.33,-297.224 635.472,-296.223 633.65,-303.2 626.508,-304.201"/>
</g>
<!-- ndMintNode -->
<g id="node13" class="node"><title>ndMintNode</title>
<g id="a_node13_12"><a xlink:href="https://github.com/maidsafe/sn_dbc/blob/master/src/mint.rs#:~:text=struct%20MintNode" xlink:title="&lt;TABLE&gt;">
<polygon fill="lightblue" stroke="none" points="471,-4.5 471,-41.5 560,-41.5 560,-4.5 471,-4.5"/>
<polygon fill="none" stroke="black" points="471,-4.5 471,-41.5 560,-41.5 560,-4.5 471,-4.5"/>
<text text-anchor="start" x="482" y="-20.3" font-family="Arial" font-weight="bold" font-size="14.00">MintNode</text>
<polygon fill="none" stroke="black" points="469.5,-4 469.5,-43 560.5,-43 560.5,-4 469.5,-4"/>
</a>
</g>
</g>
<!-- ndNodeSignature&#45;&gt;ndMintNode -->
<g id="edge12" class="edge"><title>ndNodeSignature&#45;&gt;ndMintNode</title>
<path fill="none" stroke="black" d="M540.654,-331.866C530.088,-322.053 519.242,-309.673 513,-296 473.612,-209.723 488.128,-177.097 500,-83 501.082,-74.4213 503.024,-65.2988 505.159,-56.8732"/>
<polygon fill="black" stroke="black" points="507.814,-47.0248 509.556,-57.8515 506.513,-51.8524 505.211,-56.68 505.211,-56.68 505.211,-56.68 506.513,-51.8524 500.866,-55.5085 507.814,-47.0248 507.814,-47.0248"/>
</g>
<!-- ndSpentProofShare -->
<g id="node23" class="node"><title>ndSpentProofShare</title>
<g id="a_node23_13"><a xlink:href="https://github.com/maidsafe/sn_dbc/blob/master/src/spent_proof.rs#:~:text=struct%20SpentProofShare" xlink:title="&lt;TABLE&gt;">
<polygon fill="lightblue" stroke="none" points="804,-87.5 804,-124.5 947,-124.5 947,-87.5 804,-87.5"/>
<polygon fill="none" stroke="black" points="804,-87.5 804,-124.5 947,-124.5 947,-87.5 804,-87.5"/>
<text text-anchor="start" x="815" y="-103.3" font-family="Arial" font-weight="bold" font-size="14.00">SpentProofShare</text>
<polygon fill="none" stroke="black" points="802.5,-87 802.5,-126 947.5,-126 947.5,-87 802.5,-87"/>
</a>
</g>
</g>
<!-- ndNodeSignature&#45;&gt;ndSpentProofShare -->
<g id="edge13" class="edge"><title>ndNodeSignature&#45;&gt;ndSpentProofShare</title>
<path fill="none" stroke="black" d="M554.302,-331.716C529.66,-292.883 488.752,-213.48 530,-166 565.406,-125.244 710.955,-139.095 782.155,-130.037"/>
<polygon fill="black" stroke="black" points="782.284,-130.016 787.585,-125.128 794.136,-128.14 788.835,-133.029 782.284,-130.016"/>
</g>
<!-- ndKeyManager -->
<g id="node5" class="node"><title>ndKeyManager</title>
<g id="a_node5_14"><a xlink:href="https://github.com/maidsafe/sn_dbc/blob/master/src/key_manager.rs#:~:text=trait%20KeyManager" xlink:title="&lt;TABLE&gt;">
<polygon fill="lightgreen" stroke="none" points="76,-336.5 76,-373.5 187,-373.5 187,-336.5 76,-336.5"/>
<polygon fill="none" stroke="black" points="76,-336.5 76,-373.5 187,-373.5 187,-336.5 76,-336.5"/>
<text text-anchor="start" x="87" y="-352.3" font-family="Arial" font-weight="bold" font-size="14.00">KeyManager</text>
<polygon fill="none" stroke="black" points="74.5,-336 74.5,-375 187.5,-375 187.5,-336 74.5,-336"/>
</a>
</g>
</g>
<!-- ndKeyManager&#45;&gt;ndSimpleKeyManager -->
<g id="edge14" class="edge"><title>ndKeyManager&#45;&gt;ndSimpleKeyManager</title>
<path fill="none" stroke="black" stroke-dasharray="5,2" d="M172.783,-331.937C190.588,-322.322 211.523,-311.018 230.211,-300.926"/>
<polygon fill="none" stroke="black" points="232.045,-303.914 239.181,-296.082 228.719,-297.754 232.045,-303.914"/>
</g>
<!-- ndSimpleSigner -->
<g id="node6" class="node"><title>ndSimpleSigner</title>
<g id="a_node6_15"><a xlink:href="https://github.com/maidsafe/sn_dbc/blob/master/src/key_manager.rs#:~:text=struct%20SimpleSigner" xlink:title="&lt;TABLE&gt;">
<polygon fill="lightblue" stroke="none" points="223,-336.5 223,-373.5 339,-373.5 339,-336.5 223,-336.5"/>
<polygon fill="none" stroke="black" points="223,-336.5 223,-373.5 339,-373.5 339,-336.5 223,-336.5"/>
<text text-anchor="start" x="234" y="-352.3" font-family="Arial" font-weight="bold" font-size="14.00">SimpleSigner</text>
<polygon fill="none" stroke="black" points="222,-336 222,-375 340,-375 340,-336 222,-336"/>
</a>
</g>
</g>
<!-- ndSimpleSigner&#45;&gt;ndSimpleKeyManager -->
<g id="edge15" class="edge"><title>ndSimpleSigner&#45;&gt;ndSimpleKeyManager</title>
<path fill="none" stroke="black" stroke-dasharray="5,2" d="M281,-331.937C281,-324.626 281,-316.337 281,-308.348"/>
<polygon fill="black" stroke="black" points="281,-308.223 277,-302.223 281,-296.223 285,-302.223 281,-308.223"/>
</g>
<!-- ndKeys&#45;&gt;ndSimpleKeyManager -->
<g id="edge16" class="edge"><title>ndKeys&#45;&gt;ndSimpleKeyManager</title>
<path fill="none" stroke="black" d="M369.738,-331.937C356.124,-322.972 340.279,-312.537 325.777,-302.987"/>
<polygon fill="black" stroke="black" points="325.527,-302.823 318.316,-302.864 315.505,-296.223 322.716,-296.182 325.527,-302.823"/>
</g>
<!-- ndGenesisDbcShare&#45;&gt;ndMintNode -->
<g id="edge17" class="edge"><title>ndGenesisDbcShare&#45;&gt;ndMintNode</title>
<path fill="none" stroke="black" d="M577.366,-249.963C559.032,-241.384 541.642,-229.477 530,-213 497.412,-166.877 501.847,-97.6236 508.264,-57.153"/>
<polygon fill="black" stroke="black" points="509.961,-47.2728 512.703,-57.8904 509.114,-52.2006 508.268,-57.1284 508.268,-57.1284 508.268,-57.1284 509.114,-52.2006 503.833,-56.3664 509.961,-47.2728 509.961,-47.2728"/>
</g>
<!-- ndReissueTransaction -->
<g id="node10" class="node"><title>ndReissueTransaction</title>
<g id="a_node10_16"><a xlink:href="https://github.com/maidsafe/sn_dbc/blob/master/src/mint.rs#:~:text=struct%20ReissueTransaction" xlink:title="&lt;TABLE&gt;">
<polygon fill="lightblue" stroke="none" points="880,-170.5 880,-207.5 1041,-207.5 1041,-170.5 880,-170.5"/>
<polygon fill="none" stroke="black" points="880,-170.5 880,-207.5 1041,-207.5 1041,-170.5 880,-170.5"/>
<text text-anchor="start" x="891" y="-186.3" font-family="Arial" font-weight="bold" font-size="14.00">ReissueTransaction</text>
<polygon fill="none" stroke="black" points="878.5,-170 878.5,-209 1041.5,-209 1041.5,-170 878.5,-170"/>
</a>
</g>
</g>
<!-- ndReissueRequest -->
<g id="node11" class="node"><title>ndReissueRequest</title>
<g id="a_node11_17"><a xlink:href="https://github.com/maidsafe/sn_dbc/blob/master/src/mint.rs#:~:text=struct%20ReissueRequest" xlink:title="&lt;TABLE&gt;">
<polygon fill="lightblue" stroke="none" points="633,-87.5 633,-124.5 768,-124.5 768,-87.5 633,-87.5"/>
<polygon fill="none" stroke="black" points="633,-87.5 633,-124.5 768,-124.5 768,-87.5 633,-87.5"/>
<text text-anchor="start" x="644" y="-103.3" font-family="Arial" font-weight="bold" font-size="14.00">ReissueRequest</text>
<polygon fill="none" stroke="black" points="631.5,-87 631.5,-126 768.5,-126 768.5,-87 631.5,-87"/>
</a>
</g>
</g>
<!-- ndReissueTransaction&#45;&gt;ndReissueRequest -->
<g id="edge18" class="edge"><title>ndReissueTransaction&#45;&gt;ndReissueRequest</title>
<path fill="none" stroke="black" d="M887.576,-165.937C855.451,-155.929 817.449,-144.09 784.08,-133.694"/>
<polygon fill="black" stroke="black" points="783.943,-133.652 777.025,-135.686 772.487,-130.082 779.405,-128.048 783.943,-133.652"/>
</g>
<!-- ndTransactionBuilder -->
<g id="node19" class="node"><title>ndTransactionBuilder</title>
<g id="a_node19_18"><a xlink:href="https://github.com/maidsafe/sn_dbc/blob/master/src/builder.rs#:~:text=struct%20TransactionBuilder" xlink:title="&lt;TABLE&gt;">
<polygon fill="lightblue" stroke="none" points="1210,-87.5 1210,-124.5 1366,-124.5 1366,-87.5 1210,-87.5"/>
<polygon fill="none" stroke="black" points="1210,-87.5 1210,-124.5 1366,-124.5 1366,-87.5 1210,-87.5"/>
<text text-anchor="start" x="1221" y="-103.3" font-family="Arial" font-weight="bold" font-size="14.00">TransactionBuilder</text>
<polygon fill="none" stroke="black" points="1209,-87 1209,-126 1367,-126 1367,-87 1209,-87"/>
</a>
</g>
</g>
<!-- ndReissueTransaction&#45;&gt;ndTransactionBuilder -->
<g id="edge19" class="edge"><title>ndReissueTransaction&#45;&gt;ndTransactionBuilder</title>
<path fill="none" stroke="black" d="M1049.63,-166.366C1093.45,-155.544 1146.27,-142.502 1191.03,-131.447"/>
<polygon fill="black" stroke="black" points="1200.75,-129.047 1192.12,-135.813 1195.89,-130.246 1191.04,-131.445 1191.04,-131.445 1191.04,-131.445 1195.89,-130.246 1189.96,-127.076 1200.75,-129.047 1200.75,-129.047"/>
</g>
<!-- ndReissueRequestBuilder -->
<g id="node20" class="node"><title>ndReissueRequestBuilder</title>
<g id="a_node20_19"><a xlink:href="https://github.com/maidsafe/sn_dbc/blob/master/src/builder.rs#:~:text=struct%20ReissueRequestBuilder" xlink:title="&lt;TABLE&gt;">
<polygon fill="lightblue" stroke="none" points="906,-4.5 906,-41.5 1091,-41.5 1091,-4.5 906,-4.5"/>
<polygon fill="none" stroke="black" points="906,-4.5 906,-41.5 1091,-41.5 1091,-4.5 906,-4.5"/>
<text text-anchor="start" x="917" y="-20.3" font-family="Arial" font-weight="bold" font-size="14.00">ReissueRequestBuilder</text>
<polygon fill="none" stroke="black" points="904.5,-4 904.5,-43 1091.5,-43 1091.5,-4 904.5,-4"/>
</a>
</g>
</g>
<!-- ndReissueTransaction&#45;&gt;ndReissueRequestBuilder -->
<g id="edge20" class="edge"><title>ndReissueTransaction&#45;&gt;ndReissueRequestBuilder</title>
<path fill="none" stroke="black" stroke-dasharray="5,2" d="M1049.78,-169.367C1069.9,-160.722 1088.86,-148.183 1101,-130 1112.6,-112.628 1111.51,-101.053 1101,-83 1094.04,-71.0406 1083.62,-61.3264 1072.04,-53.5036"/>
<polygon fill="black" stroke="black" points="1071.86,-53.3877 1064.65,-53.6556 1061.63,-47.1068 1068.84,-46.8389 1071.86,-53.3877"/>
</g>
<!-- ndDbcBuilder -->
<g id="node21" class="node"><title>ndDbcBuilder</title>
<g id="a_node21_20"><a xlink:href="https://github.com/maidsafe/sn_dbc/blob/master/src/builder.rs#:~:text=struct%20DbcBuilder" xlink:title="&lt;TABLE&gt;">
<polygon fill="lightblue" stroke="none" points="983,-87.5 983,-124.5 1084,-124.5 1084,-87.5 983,-87.5"/>
<polygon fill="none" stroke="black" points="983,-87.5 983,-124.5 1084,-124.5 1084,-87.5 983,-87.5"/>
<text text-anchor="start" x="994" y="-103.3" font-family="Arial" font-weight="bold" font-size="14.00">DbcBuilder</text>
<polygon fill="none" stroke="black" points="981.5,-87 981.5,-126 1084.5,-126 1084.5,-87 981.5,-87"/>
</a>
</g>
</g>
<!-- ndReissueTransaction&#45;&gt;ndDbcBuilder -->
<g id="edge21" class="edge"><title>ndReissueTransaction&#45;&gt;ndDbcBuilder</title>
<path fill="none" stroke="black" stroke-dasharray="5,2" d="M980.335,-165.937C987.787,-157.668 996.365,-148.149 1004.41,-139.227"/>
<polygon fill="black" stroke="black" points="1004.49,-139.137 1005.53,-132.002 1012.52,-130.223 1011.48,-137.358 1004.49,-139.137"/>
</g>
<!-- ndReissueRequest&#45;&gt;ndMintNode -->
<g id="edge22" class="edge"><title>ndReissueRequest&#45;&gt;ndMintNode</title>
<path fill="none" stroke="black" stroke-dasharray="5,2" d="M648.467,-82.937C625.909,-73.0602 599.278,-61.3999 575.761,-51.1033"/>
<polygon fill="black" stroke="black" points="566.577,-47.0824 577.542,-46.971 571.157,-49.0878 575.737,-51.0932 575.737,-51.0932 575.737,-51.0932 571.157,-49.0878 573.933,-55.2154 566.577,-47.0824 566.577,-47.0824"/>
</g>
<!-- ndReissueRequest&#45;&gt;ndReissueRequestBuilder -->
<g id="edge23" class="edge"><title>ndReissueRequest&#45;&gt;ndReissueRequestBuilder</title>
<path fill="none" stroke="black" d="M776.742,-84.6405C815.937,-73.9869 863.934,-60.9409 905.194,-49.7258"/>
<polygon fill="black" stroke="black" points="914.98,-47.066 906.51,-54.0314 910.155,-48.3775 905.33,-49.689 905.33,-49.689 905.33,-49.689 910.155,-48.3775 904.149,-45.3465 914.98,-47.066 914.98,-47.066"/>
</g>
<!-- ndReissueShare -->
<g id="node12" class="node"><title>ndReissueShare</title>
<g id="a_node12_21"><a xlink:href="https://github.com/maidsafe/sn_dbc/blob/master/src/mint.rs#:~:text=struct%20ReissueShare" xlink:title="&lt;TABLE&gt;">
<polygon fill="lightblue" stroke="none" points="725,-170.5 725,-207.5 844,-207.5 844,-170.5 725,-170.5"/>
<polygon fill="none" stroke="black" points="725,-170.5 725,-207.5 844,-207.5 844,-170.5 725,-170.5"/>
<text text-anchor="start" x="736" y="-186.3" font-family="Arial" font-weight="bold" font-size="14.00">ReissueShare</text>
<polygon fill="none" stroke="black" points="723.5,-170 723.5,-209 844.5,-209 844.5,-170 723.5,-170"/>
</a>
</g>
</g>
<!-- ndReissueShare&#45;&gt;ndMintNode -->
<g id="edge24" class="edge"><title>ndReissueShare&#45;&gt;ndMintNode</title>
<path fill="none" stroke="black" d="M715.107,-168.574C675.884,-156.5 631.224,-141.3 614,-130 590.328,-114.47 590.346,-103.672 571,-83 562.294,-73.697 552.734,-63.6494 544.015,-54.5503"/>
<polygon fill="black" stroke="black" points="536.927,-47.1673 547.099,-51.2645 540.39,-50.7742 543.853,-54.381 543.853,-54.381 543.853,-54.381 540.39,-50.7742 540.607,-57.4975 536.927,-47.1673 536.927,-47.1673"/>
</g>
<!-- ndReissueShare&#45;&gt;ndDbcBuilder -->
<g id="edge25" class="edge"><title>ndReissueShare&#45;&gt;ndDbcBuilder</title>
<path fill="none" stroke="black" stroke-dasharray="5,2" d="M852.812,-166.154C883.538,-156.171 920.464,-144.169 961.71,-130.744"/>
<polygon fill="black" stroke="black" points="961.751,-130.731 966.219,-125.07 973.162,-127.016 968.695,-132.677 961.751,-130.731"/>
</g>
<!-- ndAmountSecrets&#45;&gt;ndDbcHelper -->
<g id="edge26" class="edge"><title>ndAmountSecrets&#45;&gt;ndDbcHelper</title>
<path fill="none" stroke="black" d="M1169.46,-414.697C1181.23,-386.301 1201.41,-337.628 1214.73,-305.506"/>
<polygon fill="black" stroke="black" points="1218.63,-296.11 1218.95,-307.071 1216.71,-300.729 1214.79,-305.347 1214.79,-305.347 1214.79,-305.347 1216.71,-300.729 1210.64,-303.624 1218.63,-296.11 1218.63,-296.11"/>
</g>
<!-- ndAmountSecrets&#45;&gt;ndDbcContent -->
<g id="edge27" class="edge"><title>ndAmountSecrets&#45;&gt;ndDbcContent</title>
<path fill="none" stroke="black" stroke-dasharray="5,2" d="M1095.93,-414.937C1066.55,-404.588 1031.6,-392.281 1001.38,-381.637"/>
<polygon fill="black" stroke="black" points="991.742,-378.244 1002.67,-377.321 996.458,-379.905 1001.17,-381.566 1001.17,-381.566 1001.17,-381.566 996.458,-379.905 999.679,-385.81 991.742,-378.244 991.742,-378.244"/>
</g>
<!-- ndAmountSecrets&#45;&gt;ndTransactionBuilder -->
<g id="edge28" class="edge"><title>ndAmountSecrets&#45;&gt;ndTransactionBuilder</title>
<path fill="none" stroke="black" stroke-dasharray="5,2" d="M1192.49,-414.815C1224.97,-389.953 1272.88,-346.777 1293,-296 1313.34,-244.672 1304.71,-179.166 1296.45,-140.437"/>
<polygon fill="black" stroke="black" points="1294.16,-130.258 1300.75,-139.024 1295.26,-135.136 1296.36,-140.013 1296.36,-140.013 1296.36,-140.013 1295.26,-135.136 1291.97,-141.003 1294.16,-130.258 1294.16,-130.258"/>
</g>
<!-- ndDbcContent&#45;&gt;ndDbcHelper -->
<g id="edge29" class="edge"><title>ndDbcContent&#45;&gt;ndDbcHelper</title>
<path fill="none" stroke="black" stroke-dasharray="5,2" d="M991.919,-340.339C1036.58,-329.792 1098.45,-314.501 1161.5,-296.053"/>
<polygon fill="black" stroke="black" points="1171.21,-293.188 1162.89,-300.333 1166.42,-294.602 1161.62,-296.016 1161.62,-296.016 1161.62,-296.016 1166.42,-294.602 1160.35,-291.7 1171.21,-293.188 1171.21,-293.188"/>
</g>
<!-- ndDbcContent&#45;&gt;ndGenesisDbcShare -->
<g id="edge30" class="edge"><title>ndDbcContent&#45;&gt;ndGenesisDbcShare</title>
<path fill="none" stroke="black" d="M868.449,-334.913C865.255,-333.922 862.091,-332.946 859,-332 823.589,-321.159 784.51,-309.54 750.492,-299.537"/>
<polygon fill="black" stroke="black" points="750.198,-299.451 743.314,-301.598 738.684,-296.07 745.568,-293.922 750.198,-299.451"/>
</g>
<!-- ndDbcContent&#45;&gt;ndReissueTransaction -->
<g id="edge31" class="edge"><title>ndDbcContent&#45;&gt;ndReissueTransaction</title>
<path fill="none" stroke="black" d="M920.405,-331.702C912.661,-309.938 904.488,-276.485 914,-249 917.274,-239.539 922.781,-230.445 928.869,-222.363"/>
<polygon fill="black" stroke="black" points="928.883,-222.346 929.579,-215.168 936.472,-213.05 935.776,-220.228 928.883,-222.346"/>
</g>
<!-- ndDbcContent&#45;&gt;ndDbc -->
<g id="edge32" class="edge"><title>ndDbcContent&#45;&gt;ndDbc</title>
<path fill="none" stroke="black" d="M937.521,-331.937C940.016,-324.452 942.853,-315.942 945.574,-307.778"/>
<polygon fill="black" stroke="black" points="945.631,-307.607 943.734,-300.65 949.426,-296.223 951.323,-303.18 945.631,-307.607"/>
</g>
<!-- ndDbcTransaction&#45;&gt;ndGenesisDbcShare -->
<g id="edge33" class="edge"><title>ndDbcTransaction&#45;&gt;ndGenesisDbcShare</title>
<path fill="none" stroke="black" d="M742.523,-331.937C730.138,-323.059 715.742,-312.74 702.525,-303.266"/>
<polygon fill="black" stroke="black" points="702.453,-303.214 695.246,-302.97 692.7,-296.223 699.907,-296.468 702.453,-303.214"/>
</g>
<!-- ndDbcTransaction&#45;&gt;ndReissueTransaction -->
<g id="edge34" class="edge"><title>ndDbcTransaction&#45;&gt;ndReissueTransaction</title>
<path fill="none" stroke="black" d="M799.863,-331.697C832.9,-302.567 890.14,-252.097 926.488,-220.048"/>
<polygon fill="black" stroke="black" points="934.357,-213.11 929.833,-223.099 930.607,-216.417 926.856,-219.723 926.856,-219.723 926.856,-219.723 930.607,-216.417 923.88,-216.348 934.357,-213.11 934.357,-213.11"/>
</g>
<!-- ndDbcTransaction&#45;&gt;ndReissueShare -->
<g id="edge35" class="edge"><title>ndDbcTransaction&#45;&gt;ndReissueShare</title>
<path fill="none" stroke="black" d="M779.752,-331.884C782.208,-321.098 784.785,-307.965 786,-296 788.39,-272.455 787.859,-245.807 786.745,-225.183"/>
<polygon fill="black" stroke="black" points="786.745,-225.179 782.38,-219.44 785.998,-213.202 790.364,-218.942 786.745,-225.179"/>
</g>
<!-- ndDbcTransaction&#45;&gt;ndMintNode -->
<g id="edge36" class="edge"><title>ndDbcTransaction&#45;&gt;ndMintNode</title>
<path fill="none" stroke="black" stroke-dasharray="5,2" d="M774.018,-331.821C773.047,-309.236 768.792,-274.367 753,-249 739.094,-226.662 724.965,-231.239 706,-213 686.436,-194.184 689.116,-181.738 667,-166 629.873,-139.58 605.235,-160.074 571,-130 548.781,-110.481 533.937,-79.9648 525.148,-56.7636"/>
<polygon fill="black" stroke="black" points="521.748,-47.3215 529.37,-55.2055 523.442,-52.0258 525.136,-56.7301 525.136,-56.7301 525.136,-56.7301 523.442,-52.0258 520.902,-58.2547 521.748,-47.3215 521.748,-47.3215"/>
</g>
<!-- ndDbcTransaction&#45;&gt;ndDbc -->
<g id="edge37" class="edge"><title>ndDbcTransaction&#45;&gt;ndDbc</title>
<path fill="none" stroke="black" d="M824.976,-331.937C852.153,-319.908 885.307,-305.233 911.592,-293.599"/>
<polygon fill="black" stroke="black" points="911.795,-293.509 915.663,-287.422 922.769,-288.652 918.901,-294.738 911.795,-293.509"/>
</g>
<!-- ndDbc&#45;&gt;ndReissueTransaction -->
<g id="edge38" class="edge"><title>ndDbc&#45;&gt;ndReissueTransaction</title>
<path fill="none" stroke="black" d="M957.836,-248.937C958.106,-241.626 958.413,-233.337 958.709,-225.348"/>
<polygon fill="black" stroke="black" points="958.714,-225.215 954.939,-219.071 959.158,-213.223 962.934,-219.367 958.714,-225.215"/>
</g>
<!-- ndDbc&#45;&gt;ndTransactionBuilder -->
<g id="edge39" class="edge"><title>ndDbc&#45;&gt;ndTransactionBuilder</title>
<path fill="none" stroke="black" stroke-dasharray="5,2" d="M991.205,-253.446C994.172,-251.927 997.134,-250.428 1000,-249 1033.45,-232.333 1044.28,-232.775 1076,-213 1104.45,-195.262 1105.89,-182.627 1135,-166 1156.44,-153.754 1180.94,-143.085 1203.95,-134.332"/>
<polygon fill="black" stroke="black" points="1204.22,-134.234 1208.45,-128.397 1215.47,-130.061 1211.24,-135.898 1204.22,-134.234"/>
</g>
<!-- ndDbc&#45;&gt;ndDbcBuilder -->
<g id="edge40" class="edge"><title>ndDbc&#45;&gt;ndDbcBuilder</title>
<path fill="none" stroke="black" d="M991.12,-252.803C1019.66,-236.996 1056.05,-216.39 1058,-213 1071.08,-190.312 1062.56,-161.125 1052.05,-139.203"/>
<polygon fill="black" stroke="black" points="1047.49,-130.293 1056.05,-137.14 1049.77,-134.743 1052.05,-139.193 1052.05,-139.193 1052.05,-139.193 1049.77,-134.743 1048.04,-141.245 1047.49,-130.293 1047.49,-130.293"/>
</g>
<!-- ndDbc&#45;&gt;ndSpentProof -->
<g id="edge41" class="edge"><title>ndDbc&#45;&gt;ndSpentProof</title>
<path fill="none" stroke="black" stroke-dasharray="5,2" d="M922.997,-263.807C864.869,-250.655 745.271,-223.595 668.77,-206.286"/>
<polygon fill="black" stroke="black" points="658.735,-204.016 669.482,-201.833 663.612,-205.119 668.489,-206.222 668.489,-206.222 668.489,-206.222 663.612,-205.119 667.496,-210.611 658.735,-204.016 658.735,-204.016"/>
</g>
<!-- ndDbcPacket -->
<g id="node26" class="node"><title>ndDbcPacket</title>
<g id="a_node26_22"><a xlink:href="https://github.com/maidsafe/sn_dbc/blob/master/src/dbc_packet.rs#:~:text=struct%20DbcPacket" xlink:title="&lt;TABLE&gt;">
<polygon fill="lightblue" stroke="none" points="1153,-170.5 1153,-207.5 1251,-207.5 1251,-170.5 1153,-170.5"/>
<polygon fill="none" stroke="black" points="1153,-170.5 1153,-207.5 1251,-207.5 1251,-170.5 1153,-170.5"/>
<text text-anchor="start" x="1164" y="-186.3" font-family="Arial" font-weight="bold" font-size="14.00">DbcPacket</text>
<polygon fill="none" stroke="black" points="1152,-170 1152,-209 1252,-209 1252,-170 1152,-170"/>
</a>
</g>
</g>
<!-- ndDbc&#45;&gt;ndDbcPacket -->
<g id="edge42" class="edge"><title>ndDbc&#45;&gt;ndDbcPacket</title>
<path fill="none" stroke="black" stroke-dasharray="5,2" d="M991.438,-252.678C994.301,-251.36 997.179,-250.114 1000,-249 1055.76,-226.979 1072.49,-229.943 1130,-213 1130.71,-212.792 1131.42,-212.582 1132.13,-212.37"/>
<polygon fill="black" stroke="black" points="1132.4,-212.29 1136.99,-206.733 1143.89,-208.838 1139.3,-214.395 1132.4,-212.29"/>
</g>
<!-- ndOutput -->
<g id="node18" class="node"><title>ndOutput</title>
<g id="a_node18_23"><a xlink:href="https://github.com/maidsafe/sn_dbc/blob/master/src/builder.rs#:~:text=struct%20Output" xlink:title="&lt;TABLE&gt;">
<polygon fill="lightblue" stroke="none" points="1325,-170.5 1325,-207.5 1395,-207.5 1395,-170.5 1325,-170.5"/>
<polygon fill="none" stroke="black" points="1325,-170.5 1325,-207.5 1395,-207.5 1395,-170.5 1325,-170.5"/>
<text text-anchor="start" x="1336" y="-186.3" font-family="Arial" font-weight="bold" font-size="14.00">Output</text>
<polygon fill="none" stroke="black" points="1324,-170 1324,-209 1396,-209 1396,-170 1324,-170"/>
</a>
</g>
</g>
<!-- ndOutput&#45;&gt;ndTransactionBuilder -->
<g id="edge43" class="edge"><title>ndOutput&#45;&gt;ndTransactionBuilder</title>
<path fill="none" stroke="black" stroke-dasharray="5,2" d="M1339.94,-165.937C1332.59,-157.668 1324.13,-148.149 1316.2,-139.227"/>
<polygon fill="black" stroke="black" points="1316.17,-139.192 1309.19,-137.365 1308.2,-130.223 1315.17,-132.05 1316.17,-139.192"/>
</g>
<!-- ndSpendKey -->
<g id="node22" class="node"><title>ndSpendKey</title>
<g id="a_node22_24"><a xlink:href="https://github.com/maidsafe/sn_dbc/blob/master/src/spent_proof.rs#:~:text=struct%20SpendKey" xlink:title="&lt;TABLE&gt;">
<polygon fill="lightblue" stroke="none" points="931,-585.5 931,-622.5 1026,-622.5 1026,-585.5 931,-585.5"/>
<polygon fill="none" stroke="black" points="931,-585.5 931,-622.5 1026,-622.5 1026,-585.5 931,-585.5"/>
<text text-anchor="start" x="942" y="-601.3" font-family="Arial" font-weight="bold" font-size="14.00">SpendKey</text>
<polygon fill="none" stroke="black" points="929.5,-585 929.5,-624 1026.5,-624 1026.5,-585 929.5,-585"/>
</a>
</g>
</g>
<!-- ndSpendKey&#45;&gt;ndError -->
<g id="edge44" class="edge"><title>ndSpendKey&#45;&gt;ndError</title>
<path fill="none" stroke="black" d="M1008.36,-580.937C1020.19,-572.146 1033.92,-561.942 1046.57,-552.544"/>
<polygon fill="black" stroke="black" points="1046.79,-552.38 1049.22,-545.591 1056.42,-545.223 1053.99,-552.012 1046.79,-552.38"/>
</g>
<!-- ndSpendKey&#45;&gt;ndReissueRequest -->
<g id="edge45" class="edge"><title>ndSpendKey&#45;&gt;ndReissueRequest</title>
<path fill="none" stroke="black" d="M921.192,-598.597C737.614,-581.467 165.908,-517.644 57,-379 -95.379,-185.016 401.175,-127.863 610.96,-112.59"/>
<polygon fill="black" stroke="black" points="611.179,-112.574 616.881,-108.16 623.149,-111.726 617.446,-116.14 611.179,-112.574"/>
</g>
<!-- ndSpendKey&#45;&gt;ndMintNode -->
<g id="edge46" class="edge"><title>ndSpendKey&#45;&gt;ndMintNode</title>
<path fill="none" stroke="black" d="M921.121,-603.371C803.814,-602.062 527.066,-593.576 301,-545 162.406,-515.22 0,-581.257 0,-439.5 0,-439.5 0,-439.5 0,-188.5 0,-94.783 313.55,-47.4679 451.337,-31.2"/>
<polygon fill="black" stroke="black" points="461.343,-30.0368 451.93,-35.6614 456.377,-30.6142 451.41,-31.1915 451.41,-31.1915 451.41,-31.1915 456.377,-30.6142 450.891,-26.7216 461.343,-30.0368 461.343,-30.0368"/>
</g>
<!-- ndSpendKey&#45;&gt;ndDbcContent -->
<g id="edge47" class="edge"><title>ndSpendKey&#45;&gt;ndDbcContent</title>
<path fill="none" stroke="black" d="M973.57,-580.706C965.141,-537.327 946.744,-442.66 936.764,-391.305"/>
<polygon fill="black" stroke="black" points="936.708,-391.019 931.637,-385.892 934.419,-379.239 939.49,-384.366 936.708,-391.019"/>
</g>
<!-- ndSpendKey&#45;&gt;ndDbcTransaction -->
<g id="edge48" class="edge"><title>ndSpendKey&#45;&gt;ndDbcTransaction</title>
<path fill="none" stroke="black" d="M959.174,-580.706C922.74,-536.592 842.498,-439.437 800.62,-388.732"/>
<polygon fill="black" stroke="black" points="800.422,-388.492 793.517,-386.413 792.781,-379.239 799.686,-381.318 800.422,-388.492"/>
</g>
<!-- ndSpendKey&#45;&gt;ndDbc -->
<g id="edge49" class="edge"><title>ndSpendKey&#45;&gt;ndDbc</title>
<path fill="none" stroke="black" d="M985.593,-580.99C1000.35,-533.579 1029.03,-420.521 1000,-332 996.962,-322.737 991.834,-313.731 986.157,-305.672"/>
<polygon fill="black" stroke="black" points="986.072,-305.561 979.252,-303.22 978.789,-296.024 985.61,-298.364 986.072,-305.561"/>
</g>
<!-- ndSpendKey&#45;&gt;ndTransactionBuilder -->
<g id="edge50" class="edge"><title>ndSpendKey&#45;&gt;ndTransactionBuilder</title>
<path fill="none" stroke="black" d="M1034.58,-583.824C1156.28,-541.404 1432,-444.725 1432,-439.5 1432,-439.5 1432,-439.5 1432,-271.5 1432,-223.857 1442.05,-203.765 1413,-166 1403.02,-153.024 1389.46,-142.808 1374.95,-134.802"/>
<polygon fill="black" stroke="black" points="1365.82,-130.098 1376.77,-130.675 1370.26,-132.387 1374.71,-134.676 1374.71,-134.676 1374.71,-134.676 1370.26,-132.387 1372.65,-138.677 1365.82,-130.098 1365.82,-130.098"/>
</g>
<!-- ndSpendKey&#45;&gt;ndReissueRequestBuilder -->
<g id="edge51" class="edge"><title>ndSpendKey&#45;&gt;ndReissueRequestBuilder</title>
<path fill="none" stroke="black" stroke-dasharray="5,2" d="M1034.73,-583.623C1037.86,-582.697 1040.96,-581.815 1044,-581 1236.7,-529.342 1470,-639.005 1470,-439.5 1470,-439.5 1470,-439.5 1470,-188.5 1470,-128.006 1436.54,-112.987 1384,-83 1338.77,-57.1836 1208.74,-41.2812 1112.03,-32.6934"/>
<polygon fill="black" stroke="black" points="1111.76,-32.6706 1105.44,-36.136 1099.81,-31.6314 1106.13,-28.1661 1111.76,-32.6706"/>
</g>
<!-- ndSpentProofShare&#45;&gt;ndReissueRequestBuilder -->
<g id="edge52" class="edge"><title>ndSpentProofShare&#45;&gt;ndReissueRequestBuilder</title>
<path fill="none" stroke="black" stroke-dasharray="5,2" d="M909.262,-82.937C922.876,-73.9719 938.721,-63.5374 953.223,-53.9871"/>
<polygon fill="black" stroke="black" points="953.473,-53.8229 956.284,-47.1822 963.495,-47.2229 960.684,-53.8636 953.473,-53.8229"/>
</g>
<!-- ndDerivedKeySet -->
<g id="node25" class="node"><title>ndDerivedKeySet</title>
<g id="a_node25_25"><a xlink:href="https://github.com/maidsafe/sn_dbc/blob/master/src/dbc_packet.rs#:~:text=struct%20DerivedKeySet" xlink:title="&lt;TABLE&gt;">
<polygon fill="lightblue" stroke="none" points="1018,-253.5 1018,-290.5 1144,-290.5 1144,-253.5 1018,-253.5"/>
<polygon fill="none" stroke="black" points="1018,-253.5 1018,-290.5 1144,-290.5 1144,-253.5 1018,-253.5"/>
<text text-anchor="start" x="1029" y="-269.3" font-family="Arial" font-weight="bold" font-size="14.00">DerivedKeySet</text>
<polygon fill="none" stroke="black" points="1017,-253 1017,-292 1145,-292 1145,-253 1017,-253"/>
</a>
</g>
</g>
<!-- ndDerivedKeySet&#45;&gt;ndDbcPacket -->
<g id="edge53" class="edge"><title>ndDerivedKeySet&#45;&gt;ndDbcPacket</title>
<path fill="none" stroke="black" stroke-dasharray="5,2" d="M1114.71,-248.937C1128.1,-239.972 1143.68,-229.537 1157.95,-219.987"/>
<polygon fill="black" stroke="black" points="1158.08,-219.898 1160.84,-213.237 1168.06,-213.223 1165.3,-219.885 1158.08,-219.898"/>
</g>
<!-- ndSecretKeySetWrapper -->
<g id="node27" class="node"><title>ndSecretKeySetWrapper</title>
<g id="a_node27_26"><a xlink:href="https://github.com/maidsafe/sn_dbc/blob/master/src/dbc_packet.rs#:~:text=struct%20SecretKeySetWrapper" xlink:title="&lt;TABLE&gt;">
<polygon fill="lightblue" stroke="none" points="1062,-585.5 1062,-622.5 1238,-622.5 1238,-585.5 1062,-585.5"/>
<polygon fill="none" stroke="black" points="1062,-585.5 1062,-622.5 1238,-622.5 1238,-585.5 1062,-585.5"/>
<text text-anchor="start" x="1073" y="-601.3" font-family="Arial" font-weight="bold" font-size="14.00">SecretKeySetWrapper</text>
<polygon fill="none" stroke="black" points="1061,-585 1061,-624 1239,-624 1239,-585 1061,-585"/>
</a>
</g>
</g>
</g>
</svg>
