<?xml version="1.0" encoding="UTF-8" standalone="no"?>
<!DOCTYPE svg PUBLIC "-//W3C//DTD SVG 1.1//EN"
 "http://www.w3.org/Graphics/SVG/1.1/DTD/svg11.dtd">
<!-- Generated by graphviz version 2.38.0 (20140413.2041)
 -->
<!-- Title: ml Pages: 1 -->
<svg width="2119pt" height="962pt"
 viewBox="0.00 0.00 2119.18 962.00" xmlns="http://www.w3.org/2000/svg" xmlns:xlink="http://www.w3.org/1999/xlink">
<g id="graph0" class="graph" transform="scale(1 1) rotate(0) translate(4 958)">
<title>ml</title>
<polygon fill="white" stroke="none" points="-4,4 -4,-958 2115.18,-958 2115.18,4 -4,4"/>
<!-- ndHash -->
<g id="node1" class="node"><title>ndHash</title>
<g id="a_node1_0"><a xlink:href="https://github.com/maidsafe/sn_dbc/blob/master/src/lib.rs#:~:text=struct%20Hash" xlink:title="&lt;TABLE&gt;">
<polygon fill="lightblue" stroke="none" points="1386.32,-904.5 1386.32,-941.5 1464.32,-941.5 1464.32,-904.5 1386.32,-904.5"/>
<polygon fill="none" stroke="black" points="1386.32,-904.5 1386.32,-941.5 1464.32,-941.5 1464.32,-904.5 1386.32,-904.5"/>
<text text-anchor="start" x="1407.32" y="-920.3" font-family="Arial" font-weight="bold" font-size="14.00">Hash</text>
<polygon fill="white" stroke="none" points="1386.32,-867.5 1386.32,-904.5 1464.32,-904.5 1464.32,-867.5 1386.32,-867.5"/>
<polygon fill="none" stroke="black" points="1386.32,-867.5 1386.32,-904.5 1464.32,-904.5 1464.32,-867.5 1386.32,-867.5"/>
<text text-anchor="start" x="1397.32" y="-882.3" font-family="Arial" font-size="14.00">&#45; [u8; 32]</text>
<polygon fill="none" stroke="black" points="1385.32,-866.5 1385.32,-942.5 1465.32,-942.5 1465.32,-866.5 1385.32,-866.5"/>
</a>
</g>
</g>
<!-- ndKeyManager -->
<g id="node4" class="node"><title>ndKeyManager</title>
<g id="a_node4_1"><a xlink:href="https://github.com/maidsafe/sn_dbc/blob/master/src/mock/key_manager.rs#:~:text=struct%20KeyManager" xlink:title="&lt;TABLE&gt;">
<polygon fill="lightblue" stroke="none" points="1246.32,-619 1246.32,-656 1365.32,-656 1365.32,-619 1246.32,-619"/>
<polygon fill="none" stroke="black" points="1246.32,-619 1246.32,-656 1365.32,-656 1365.32,-619 1246.32,-619"/>
<text text-anchor="start" x="1261.32" y="-634.8" font-family="Arial" font-weight="bold" font-size="14.00">KeyManager</text>
<polygon fill="white" stroke="none" points="1246.32,-567 1246.32,-619 1365.32,-619 1365.32,-567 1246.32,-567"/>
<polygon fill="none" stroke="black" points="1246.32,-567 1246.32,-619 1365.32,-619 1365.32,-567 1246.32,-567"/>
<text text-anchor="start" x="1257.32" y="-596.8" font-family="Arial" font-size="14.00">&#45; signer: Signer</text>
<text text-anchor="start" x="1257.32" y="-581.8" font-family="Arial" font-size="14.00">&#45; cache: Keys</text>
<polygon fill="none" stroke="black" points="1244.82,-566.5 1244.82,-657.5 1365.82,-657.5 1365.82,-566.5 1244.82,-566.5"/>
</a>
</g>
</g>
<!-- ndHash&#45;&gt;ndKeyManager -->
<g id="edge1" class="edge"><title>ndHash&#45;&gt;ndKeyManager</title>
<path fill="none" stroke="black" stroke-dasharray="5,2" d="M1376.92,-900.339C1324.43,-894.024 1242.98,-875.17 1204.32,-819 1175.6,-777.263 1183.85,-751.345 1204.32,-705 1210.28,-691.515 1219.3,-679.154 1229.54,-668.168"/>
<polygon fill="black" stroke="black" points="1236.81,-660.784 1233,-671.069 1233.3,-664.348 1229.79,-667.913 1229.79,-667.913 1229.79,-667.913 1233.3,-664.348 1226.59,-664.757 1236.81,-660.784 1236.81,-660.784"/>
</g>
<!-- ndDbcContent -->
<g id="node5" class="node"><title>ndDbcContent</title>
<g id="a_node5_2"><a xlink:href="https://github.com/maidsafe/sn_dbc/blob/master/src/dbc_content.rs#:~:text=struct%20DbcContent" xlink:title="&lt;TABLE&gt;">
<polygon fill="lightblue" stroke="none" points="568.324,-627 568.324,-664 829.324,-664 829.324,-627 568.324,-627"/>
<polygon fill="none" stroke="black" points="568.324,-627 568.324,-664 829.324,-664 829.324,-627 568.324,-627"/>
<text text-anchor="start" x="657.324" y="-642.8" font-family="Arial" font-weight="bold" font-size="14.00">DbcContent</text>
<polygon fill="white" stroke="none" points="568.324,-560 568.324,-627 829.324,-627 829.324,-560 568.324,-560"/>
<polygon fill="none" stroke="black" points="568.324,-560 568.324,-627 829.324,-627 829.324,-560 568.324,-560"/>
<text text-anchor="start" x="579.324" y="-604.8" font-family="Arial" font-size="14.00">+ owner_base: Owner</text>
<text text-anchor="start" x="579.324" y="-589.8" font-family="Arial" font-size="14.00">+ owner_derivation_cipher: Ciphertext</text>
<text text-anchor="start" x="579.324" y="-574.8" font-family="Arial" font-size="14.00">+ amount_secrets_cipher: Ciphertext</text>
<polygon fill="none" stroke="black" points="566.824,-559 566.824,-665 829.824,-665 829.824,-559 566.824,-559"/>
</a>
</g>
</g>
<!-- ndHash&#45;&gt;ndDbcContent -->
<g id="edge2" class="edge"><title>ndHash&#45;&gt;ndDbcContent</title>
<path fill="none" stroke="black" d="M1377.23,-900.857C1228.48,-892.24 783.024,-862.961 736.324,-819 699.028,-783.89 691.269,-725.057 691.834,-679.233"/>
<polygon fill="black" stroke="black" points="692.097,-669.075 696.337,-679.188 691.968,-674.073 691.839,-679.072 691.839,-679.072 691.839,-679.072 691.968,-674.073 687.34,-678.956 692.097,-669.075 692.097,-669.075"/>
</g>
<!-- ndKeys -->
<g id="node9" class="node"><title>ndKeys</title>
<g id="a_node9_3"><a xlink:href="https://github.com/maidsafe/sn_dbc/blob/master/src/mock/key_manager.rs#:~:text=struct%20Keys" xlink:title="&lt;TABLE&gt;">
<polygon fill="lightblue" stroke="none" points="1223.32,-762 1223.32,-799 1388.32,-799 1388.32,-762 1223.32,-762"/>
<polygon fill="none" stroke="black" points="1223.32,-762 1223.32,-799 1388.32,-799 1388.32,-762 1223.32,-762"/>
<text text-anchor="start" x="1287.82" y="-777.8" font-family="Arial" font-weight="bold" font-size="14.00">Keys</text>
<polygon fill="white" stroke="none" points="1223.32,-725 1223.32,-762 1388.32,-762 1388.32,-725 1223.32,-725"/>
<polygon fill="none" stroke="black" points="1223.32,-725 1223.32,-762 1388.32,-762 1388.32,-725 1223.32,-725"/>
<text text-anchor="start" x="1234.32" y="-739.8" font-family="Arial" font-size="14.00">&#45; HashSet&lt;PublicKey&gt;</text>
<polygon fill="none" stroke="black" points="1221.82,-724 1221.82,-800 1388.82,-800 1388.82,-724 1221.82,-724"/>
</a>
</g>
</g>
<!-- ndHash&#45;&gt;ndKeys -->
<g id="edge3" class="edge"><title>ndHash&#45;&gt;ndKeys</title>
<path fill="none" stroke="black" stroke-dasharray="5,2" d="M1390.29,-862.484C1376.86,-846.753 1361.39,-828.641 1347.36,-812.219"/>
<polygon fill="black" stroke="black" points="1340.61,-804.31 1350.52,-808.992 1343.85,-808.112 1347.1,-811.914 1347.1,-811.914 1347.1,-811.914 1343.85,-808.112 1343.68,-814.837 1340.61,-804.31 1340.61,-804.31"/>
</g>
<!-- ndSpentBookNode -->
<g id="node10" class="node"><title>ndSpentBookNode</title>
<g id="a_node10_4"><a xlink:href="https://github.com/maidsafe/sn_dbc/blob/master/src/mock/spentbook.rs#:~:text=struct%20SpentBookNode" xlink:title="&lt;TABLE&gt;">
<polygon fill="lightblue" stroke="none" points="1146.32,-477 1146.32,-514 1496.32,-514 1496.32,-477 1146.32,-477"/>
<polygon fill="none" stroke="black" points="1146.32,-477 1146.32,-514 1496.32,-514 1496.32,-477 1146.32,-477"/>
<text text-anchor="start" x="1264.32" y="-492.8" font-family="Arial" font-weight="bold" font-size="14.00">SpentBookNode</text>
<polygon fill="white" stroke="none" points="1146.32,-380 1146.32,-477 1496.32,-477 1496.32,-380 1146.32,-380"/>
<polygon fill="none" stroke="black" points="1146.32,-380 1146.32,-477 1496.32,-477 1496.32,-380 1146.32,-380"/>
<text text-anchor="start" x="1157.32" y="-454.8" font-family="Arial" font-size="14.00">+ key_manager: mock::KeyManager</text>
<text text-anchor="start" x="1157.32" y="-439.8" font-family="Arial" font-size="14.00">+ transactions: HashMap&lt;Hash, RingCtTransaction&gt;</text>
<text text-anchor="start" x="1157.32" y="-424.8" font-family="Arial" font-size="14.00">+ key_images: BTreeMap&lt;KeyImage, Hash&gt;</text>
<text text-anchor="start" x="1157.32" y="-409.8" font-family="Arial" font-size="14.00">+ outputs: BTreeMap&lt;PublicKey, OutputProof&gt;</text>
<text text-anchor="start" x="1157.32" y="-394.8" font-family="Arial" font-size="14.00">+ genesis: (KeyImage, Commitment)</text>
<polygon fill="none" stroke="black" points="1145.32,-379 1145.32,-515 1497.32,-515 1497.32,-379 1145.32,-379"/>
</a>
</g>
</g>
<!-- ndHash&#45;&gt;ndSpentBookNode -->
<g id="edge4" class="edge"><title>ndHash&#45;&gt;ndSpentBookNode</title>
<path fill="none" stroke="black" d="M1425.79,-862.257C1425.34,-795.711 1419.37,-661.362 1382.32,-555 1379.41,-546.646 1375.85,-538.197 1371.92,-529.903"/>
<polygon fill="black" stroke="black" points="1371.9,-529.861 1365.66,-526.262 1366.57,-519.109 1372.82,-522.709 1371.9,-529.861"/>
</g>
<!-- ndSpentProofContent -->
<g id="node16" class="node"><title>ndSpentProofContent</title>
<g id="a_node16_5"><a xlink:href="https://github.com/maidsafe/sn_dbc/blob/master/src/spent_proof.rs#:~:text=struct%20SpentProofContent" xlink:title="&lt;TABLE&gt;">
<polygon fill="lightblue" stroke="none" points="1774.32,-777 1774.32,-814 2070.32,-814 2070.32,-777 1774.32,-777"/>
<polygon fill="none" stroke="black" points="1774.32,-777 1774.32,-814 2070.32,-814 2070.32,-777 1774.32,-777"/>
<text text-anchor="start" x="1855.32" y="-792.8" font-family="Arial" font-weight="bold" font-size="14.00">SpentProofContent</text>
<polygon fill="white" stroke="none" points="1774.32,-710 1774.32,-777 2070.32,-777 2070.32,-710 1774.32,-710"/>
<polygon fill="none" stroke="black" points="1774.32,-710 1774.32,-777 2070.32,-777 2070.32,-710 1774.32,-710"/>
<text text-anchor="start" x="1785.32" y="-754.8" font-family="Arial" font-size="14.00">+ key_image: KeyImage</text>
<text text-anchor="start" x="1785.32" y="-739.8" font-family="Arial" font-size="14.00">+ transaction_hash: Hash</text>
<text text-anchor="start" x="1785.32" y="-724.8" font-family="Arial" font-size="14.00">+ public_commitments: Vec&lt;Commitment&gt;</text>
<polygon fill="none" stroke="black" points="1773.32,-709 1773.32,-815 2071.32,-815 2071.32,-709 1773.32,-709"/>
</a>
</g>
</g>
<!-- ndHash&#45;&gt;ndSpentProofContent -->
<g id="edge5" class="edge"><title>ndHash&#45;&gt;ndSpentProofContent</title>
<path fill="none" stroke="black" d="M1473.37,-892.05C1537.18,-876.612 1653.28,-847.731 1751.32,-819 1752.03,-818.794 1752.73,-818.587 1753.44,-818.38"/>
<polygon fill="black" stroke="black" points="1753.47,-818.369 1758.08,-812.822 1764.97,-814.942 1760.36,-820.489 1753.47,-818.369"/>
</g>
<!-- ndSpentProofShare -->
<g id="node17" class="node"><title>ndSpentProofShare</title>
<g id="a_node17_6"><a xlink:href="https://github.com/maidsafe/sn_dbc/blob/master/src/spent_proof.rs#:~:text=struct%20SpentProofShare" xlink:title="&lt;TABLE&gt;">
<polygon fill="lightblue" stroke="none" points="1734.32,-627 1734.32,-664 2063.32,-664 2063.32,-627 1734.32,-627"/>
<polygon fill="none" stroke="black" points="1734.32,-627 1734.32,-664 2063.32,-664 2063.32,-627 1734.32,-627"/>
<text text-anchor="start" x="1838.32" y="-642.8" font-family="Arial" font-weight="bold" font-size="14.00">SpentProofShare</text>
<polygon fill="white" stroke="none" points="1734.32,-560 1734.32,-627 2063.32,-627 2063.32,-560 1734.32,-560"/>
<polygon fill="none" stroke="black" points="1734.32,-560 1734.32,-627 2063.32,-627 2063.32,-560 1734.32,-560"/>
<text text-anchor="start" x="1745.32" y="-604.8" font-family="Arial" font-size="14.00">+ content: SpentProofContent</text>
<text text-anchor="start" x="1745.32" y="-589.8" font-family="Arial" font-size="14.00">+ spentbook_pks: PublicKeySet</text>
<text text-anchor="start" x="1745.32" y="-574.8" font-family="Arial" font-size="14.00">+ spentbook_sig_share: IndexedSignatureShare</text>
<polygon fill="none" stroke="black" points="1732.82,-559 1732.82,-665 2063.82,-665 2063.82,-559 1732.82,-559"/>
</a>
</g>
</g>
<!-- ndHash&#45;&gt;ndSpentProofShare -->
<g id="edge6" class="edge"><title>ndHash&#45;&gt;ndSpentProofShare</title>
<path fill="none" stroke="black" d="M1473.49,-900.974C1619.17,-892.847 2047.66,-865.18 2088.32,-819 2121.81,-780.976 2115.23,-747.929 2088.32,-705 2081.49,-694.096 2072.95,-684.453 2063.32,-675.929"/>
<polygon fill="black" stroke="black" points="2055.36,-669.331 2065.93,-672.251 2059.21,-672.523 2063.06,-675.715 2063.06,-675.715 2063.06,-675.715 2059.21,-672.523 2060.18,-679.178 2055.36,-669.331 2055.36,-669.331"/>
</g>
<!-- ndSpentProof -->
<g id="node18" class="node"><title>ndSpentProof</title>
<g id="a_node18_7"><a xlink:href="https://github.com/maidsafe/sn_dbc/blob/master/src/spent_proof.rs#:~:text=struct%20SpentProof" xlink:title="&lt;TABLE&gt;">
<polygon fill="lightblue" stroke="none" points="1463.32,-627 1463.32,-664 1698.32,-664 1698.32,-627 1463.32,-627"/>
<polygon fill="none" stroke="black" points="1463.32,-627 1463.32,-664 1698.32,-664 1698.32,-627 1463.32,-627"/>
<text text-anchor="start" x="1541.32" y="-642.8" font-family="Arial" font-weight="bold" font-size="14.00">SpentProof</text>
<polygon fill="white" stroke="none" points="1463.32,-560 1463.32,-627 1698.32,-627 1698.32,-560 1463.32,-560"/>
<polygon fill="none" stroke="black" points="1463.32,-560 1463.32,-627 1698.32,-627 1698.32,-560 1463.32,-560"/>
<text text-anchor="start" x="1474.32" y="-604.8" font-family="Arial" font-size="14.00">+ content: SpentProofContent</text>
<text text-anchor="start" x="1474.32" y="-589.8" font-family="Arial" font-size="14.00">+ spentbook_pub_key: PublicKey</text>
<text text-anchor="start" x="1474.32" y="-574.8" font-family="Arial" font-size="14.00">+ spentbook_sig: Signature</text>
<polygon fill="none" stroke="black" points="1461.82,-559 1461.82,-665 1698.82,-665 1698.82,-559 1461.82,-559"/>
</a>
</g>
</g>
<!-- ndHash&#45;&gt;ndSpentProof -->
<g id="edge7" class="edge"><title>ndHash&#45;&gt;ndSpentProof</title>
<path fill="none" stroke="black" stroke-dasharray="5,2" d="M1473.48,-896.611C1548.56,-884.774 1687.99,-858.022 1717.32,-819 1747.77,-778.499 1741.16,-749.712 1717.32,-705 1711.69,-694.433 1704.25,-684.863 1695.73,-676.248"/>
<polygon fill="black" stroke="black" points="1688.34,-669.235 1698.69,-672.855 1691.97,-672.677 1695.59,-676.119 1695.59,-676.119 1695.59,-676.119 1691.97,-672.677 1692.5,-679.383 1688.34,-669.235 1688.34,-669.235"/>
</g>
<!-- ndError -->
<g id="node2" class="node"><title>ndError</title>
<g id="a_node2_8"><a xlink:href="https://github.com/maidsafe/sn_dbc/blob/master/src/mock/error.rs#:~:text=enum%20Error" xlink:title="&lt;TABLE&gt;">
<polygon fill="yellow" stroke="none" points="120.324,-769 120.324,-806 342.324,-806 342.324,-769 120.324,-769"/>
<polygon fill="none" stroke="black" points="120.324,-769 120.324,-806 342.324,-806 342.324,-769 120.324,-769"/>
<text text-anchor="start" x="212.824" y="-784.8" font-family="Arial" font-weight="bold" font-size="14.00">Error</text>
<polygon fill="white" stroke="none" points="120.324,-717 120.324,-769 342.324,-769 342.324,-717 120.324,-717"/>
<polygon fill="none" stroke="black" points="120.324,-717 120.324,-769 342.324,-769 342.324,-717 120.324,-717"/>
<text text-anchor="start" x="131.324" y="-746.8" font-family="Arial" font-size="14.00">KeyImageAlreadySpent</text>
<text text-anchor="start" x="131.324" y="-731.8" font-family="Arial" font-size="14.00">RingSizeMismatch(usize, usize)</text>
<polygon fill="none" stroke="black" points="119.324,-716.5 119.324,-807.5 343.324,-807.5 343.324,-716.5 119.324,-716.5"/>
</a>
</g>
</g>
<!-- ndDbc -->
<g id="node13" class="node"><title>ndDbc</title>
<g id="a_node13_9"><a xlink:href="https://github.com/maidsafe/sn_dbc/blob/master/src/dbc.rs#:~:text=struct%20Dbc" xlink:title="&lt;TABLE&gt;">
<polygon fill="lightblue" stroke="none" points="432.324,-462 432.324,-499 709.324,-499 709.324,-462 432.324,-462"/>
<polygon fill="none" stroke="black" points="432.324,-462 432.324,-499 709.324,-499 709.324,-462 432.324,-462"/>
<text text-anchor="start" x="556.824" y="-477.8" font-family="Arial" font-weight="bold" font-size="14.00">Dbc</text>
<polygon fill="white" stroke="none" points="432.324,-395 432.324,-462 709.324,-462 709.324,-395 432.324,-395"/>
<polygon fill="none" stroke="black" points="432.324,-395 432.324,-462 709.324,-462 709.324,-395 432.324,-395"/>
<text text-anchor="start" x="443.324" y="-439.8" font-family="Arial" font-size="14.00">+ content: DbcContent</text>
<text text-anchor="start" x="443.324" y="-424.8" font-family="Arial" font-size="14.00">+ transaction: RingCtTransaction</text>
<text text-anchor="start" x="443.324" y="-409.8" font-family="Arial" font-size="14.00">+ spent_proofs: BTreeSet&lt;SpentProof&gt;</text>
<polygon fill="none" stroke="black" points="430.824,-394 430.824,-500 709.824,-500 709.824,-394 430.824,-394"/>
</a>
</g>
</g>
<!-- ndError&#45;&gt;ndDbc -->
<g id="edge8" class="edge"><title>ndError&#45;&gt;ndDbc</title>
<path fill="none" stroke="black" d="M259.253,-712.058C266.565,-698.343 274.128,-683.276 280.324,-669 301.646,-619.878 282.51,-593.888 319.324,-555 348.659,-524.014 369.002,-535.566 408.324,-519 416.637,-515.498 425.175,-511.865 433.778,-508.177"/>
<polygon fill="black" stroke="black" points="443.129,-504.157 435.719,-512.24 438.536,-506.131 433.942,-508.106 433.942,-508.106 433.942,-508.106 438.536,-506.131 432.165,-503.972 443.129,-504.157 443.129,-504.157"/>
</g>
<!-- ndAmountSecrets -->
<g id="node19" class="node"><title>ndAmountSecrets</title>
<g id="a_node19_10"><a xlink:href="https://github.com/maidsafe/sn_dbc/blob/master/src/amount_secrets.rs#:~:text=struct%20AmountSecrets" xlink:title="&lt;TABLE&gt;">
<polygon fill="lightblue" stroke="none" points="90.3244,-612 90.3244,-649 263.324,-649 263.324,-612 90.3244,-612"/>
<polygon fill="none" stroke="black" points="90.3244,-612 90.3244,-649 263.324,-649 263.324,-612 90.3244,-612"/>
<text text-anchor="start" x="122.824" y="-627.8" font-family="Arial" font-weight="bold" font-size="14.00">AmountSecrets</text>
<polygon fill="white" stroke="none" points="90.3244,-575 90.3244,-612 263.324,-612 263.324,-575 90.3244,-575"/>
<polygon fill="none" stroke="black" points="90.3244,-575 90.3244,-612 263.324,-612 263.324,-575 90.3244,-575"/>
<text text-anchor="start" x="101.324" y="-589.8" font-family="Arial" font-size="14.00">&#45; RevealedCommitment</text>
<polygon fill="none" stroke="black" points="88.8244,-574 88.8244,-650 263.824,-650 263.824,-574 88.8244,-574"/>
</a>
</g>
</g>
<!-- ndError&#45;&gt;ndAmountSecrets -->
<g id="edge9" class="edge"><title>ndError&#45;&gt;ndAmountSecrets</title>
<path fill="none" stroke="black" d="M213.163,-712.129C207.411,-696.65 201.04,-679.506 195.236,-663.889"/>
<polygon fill="black" stroke="black" points="191.706,-654.391 199.408,-662.197 193.448,-659.078 195.19,-663.764 195.19,-663.764 195.19,-663.764 193.448,-659.078 190.972,-665.332 191.706,-654.391 191.706,-654.391"/>
</g>
<!-- ndTransactionVerifier -->
<g id="node20" class="node"><title>ndTransactionVerifier</title>
<g id="a_node20_11"><a xlink:href="https://github.com/maidsafe/sn_dbc/blob/master/src/verification.rs#:~:text=struct%20TransactionVerifier" xlink:title="&lt;TABLE&gt;">
<polygon fill="lightblue" stroke="none" points="338.324,-593 338.324,-630 493.324,-630 493.324,-593 338.324,-593"/>
<polygon fill="none" stroke="black" points="338.324,-593 338.324,-630 493.324,-630 493.324,-593 338.324,-593"/>
<text text-anchor="start" x="349.324" y="-608.8" font-family="Arial" font-weight="bold" font-size="14.00">TransactionVerifier</text>
<polygon fill="none" stroke="black" points="336.824,-592.5 336.824,-631.5 493.824,-631.5 493.824,-592.5 336.824,-592.5"/>
</a>
</g>
</g>
<!-- ndError&#45;&gt;ndTransactionVerifier -->
<g id="edge10" class="edge"><title>ndError&#45;&gt;ndTransactionVerifier</title>
<path fill="none" stroke="black" d="M291.828,-712.334C320.624,-689.172 354.103,-662.244 378.932,-642.272"/>
<polygon fill="black" stroke="black" points="387.002,-635.781 382.03,-645.555 383.106,-638.915 379.21,-642.049 379.21,-642.049 379.21,-642.049 383.106,-638.915 376.389,-638.542 387.002,-635.781 387.002,-635.781"/>
</g>
<!-- ndIndexedSignatureShare -->
<g id="node3" class="node"><title>ndIndexedSignatureShare</title>
<g id="a_node3_12"><a xlink:href="https://github.com/maidsafe/sn_dbc/blob/master/src/key_manager.rs#:~:text=struct%20IndexedSignatureShare" xlink:title="&lt;TABLE&gt;">
<polygon fill="lightblue" stroke="none" points="1463.32,-769 1463.32,-806 1700.32,-806 1700.32,-769 1463.32,-769"/>
<polygon fill="none" stroke="black" points="1463.32,-769 1463.32,-806 1700.32,-806 1700.32,-769 1463.32,-769"/>
<text text-anchor="start" x="1499.32" y="-784.8" font-family="Arial" font-weight="bold" font-size="14.00">IndexedSignatureShare</text>
<polygon fill="white" stroke="none" points="1463.32,-717 1463.32,-769 1700.32,-769 1700.32,-717 1463.32,-717"/>
<polygon fill="none" stroke="black" points="1463.32,-717 1463.32,-769 1700.32,-769 1700.32,-717 1463.32,-717"/>
<text text-anchor="start" x="1474.32" y="-746.8" font-family="Arial" font-size="14.00">&#45; index: u64</text>
<text text-anchor="start" x="1474.32" y="-731.8" font-family="Arial" font-size="14.00">&#45; signature_share: SignatureShare</text>
<polygon fill="none" stroke="black" points="1461.82,-716.5 1461.82,-807.5 1700.82,-807.5 1700.82,-716.5 1461.82,-716.5"/>
</a>
</g>
</g>
<!-- ndIndexedSignatureShare&#45;&gt;ndKeyManager -->
<g id="edge11" class="edge"><title>ndIndexedSignatureShare&#45;&gt;ndKeyManager</title>
<path fill="none" stroke="black" d="M1490.57,-712.334C1455.81,-693.695 1416.5,-672.618 1383.07,-654.689"/>
<polygon fill="black" stroke="black" points="1374.25,-649.962 1385.19,-650.722 1378.66,-652.325 1383.07,-654.688 1383.07,-654.688 1383.07,-654.688 1378.66,-652.325 1380.94,-658.654 1374.25,-649.962 1374.25,-649.962"/>
</g>
<!-- ndIndexedSignatureShare&#45;&gt;ndSpentProofShare -->
<g id="edge12" class="edge"><title>ndIndexedSignatureShare&#45;&gt;ndSpentProofShare</title>
<path fill="none" stroke="black" d="M1685.56,-712.334C1711.65,-700.153 1739.97,-686.931 1767.18,-674.226"/>
<polygon fill="black" stroke="black" points="1767.49,-674.085 1771.23,-667.923 1778.36,-669.009 1774.62,-675.171 1767.49,-674.085"/>
</g>
<!-- ndKeyManager&#45;&gt;ndSpentBookNode -->
<g id="edge13" class="edge"><title>ndKeyManager&#45;&gt;ndSpentBookNode</title>
<path fill="none" stroke="black" stroke-dasharray="5,2" d="M1310.12,-562.095C1311.14,-551.756 1312.24,-540.579 1313.33,-529.405"/>
<polygon fill="black" stroke="black" points="1314.34,-519.168 1317.84,-529.56 1313.85,-524.144 1313.36,-529.12 1313.36,-529.12 1313.36,-529.12 1313.85,-524.144 1308.88,-528.681 1314.34,-519.168 1314.34,-519.168"/>
</g>
<!-- ndDbcContent&#45;&gt;ndDbc -->
<g id="edge14" class="edge"><title>ndDbcContent&#45;&gt;ndDbc</title>
<path fill="none" stroke="black" d="M654.274,-554.905C643.916,-541.714 632.783,-527.537 622.12,-513.958"/>
<polygon fill="black" stroke="black" points="621.867,-513.637 615.016,-511.388 614.456,-504.199 621.308,-506.447 621.867,-513.637"/>
</g>
<!-- ndGenesisMaterial -->
<g id="node6" class="node"><title>ndGenesisMaterial</title>
<g id="a_node6_13"><a xlink:href="https://github.com/maidsafe/sn_dbc/blob/master/src/genesis.rs#:~:text=struct%20GenesisMaterial" xlink:title="&lt;TABLE&gt;">
<polygon fill="lightblue" stroke="none" points="92.3244,-462 92.3244,-499 319.324,-499 319.324,-462 92.3244,-462"/>
<polygon fill="none" stroke="black" points="92.3244,-462 92.3244,-499 319.324,-499 319.324,-462 92.3244,-462"/>
<text text-anchor="start" x="149.324" y="-477.8" font-family="Arial" font-weight="bold" font-size="14.00">GenesisMaterial</text>
<polygon fill="white" stroke="none" points="92.3244,-395 92.3244,-462 319.324,-462 319.324,-395 92.3244,-395"/>
<polygon fill="none" stroke="black" points="92.3244,-395 92.3244,-462 319.324,-462 319.324,-395 92.3244,-395"/>
<text text-anchor="start" x="103.324" y="-439.8" font-family="Arial" font-size="14.00">+ ringct_material: RingCtMaterial</text>
<text text-anchor="start" x="103.324" y="-424.8" font-family="Arial" font-size="14.00">+ owner_once: OwnerOnce</text>
<text text-anchor="start" x="103.324" y="-409.8" font-family="Arial" font-size="14.00">+ input_key_image: KeyImage</text>
<polygon fill="none" stroke="black" points="90.8244,-394 90.8244,-500 319.824,-500 319.824,-394 90.8244,-394"/>
</a>
</g>
</g>
<!-- ndGenesisBuilder -->
<g id="node7" class="node"><title>ndGenesisBuilder</title>
<g id="a_node7_14"><a xlink:href="https://github.com/maidsafe/sn_dbc/blob/master/src/mock/genesis_builder.rs#:~:text=struct%20GenesisBuilder" xlink:title="&lt;TABLE&gt;">
<polygon fill="lightblue" stroke="none" points="185.324,-274 185.324,-311 530.324,-311 530.324,-274 185.324,-274"/>
<polygon fill="none" stroke="black" points="185.324,-274 185.324,-311 530.324,-311 530.324,-274 185.324,-274"/>
<text text-anchor="start" x="303.824" y="-289.8" font-family="Arial" font-weight="bold" font-size="14.00">GenesisBuilder</text>
<polygon fill="white" stroke="none" points="185.324,-222 185.324,-274 530.324,-274 530.324,-222 185.324,-222"/>
<polygon fill="none" stroke="black" points="185.324,-222 185.324,-274 530.324,-274 530.324,-222 185.324,-222"/>
<text text-anchor="start" x="196.324" y="-251.8" font-family="Arial" font-size="14.00">+ genesis_amount: Amount</text>
<text text-anchor="start" x="196.324" y="-236.8" font-family="Arial" font-size="14.00">+ spentbook_nodes: Vec&lt;mock::SpentBookNode&gt;</text>
<polygon fill="none" stroke="black" points="183.824,-221.5 183.824,-312.5 530.824,-312.5 530.824,-221.5 183.824,-221.5"/>
</a>
</g>
</g>
<!-- ndGenesisMaterial&#45;&gt;ndGenesisBuilder -->
<g id="edge15" class="edge"><title>ndGenesisMaterial&#45;&gt;ndGenesisBuilder</title>
<path fill="none" stroke="black" d="M253.418,-389.68C271.156,-368.907 291.25,-345.377 309.008,-324.582"/>
<polygon fill="black" stroke="black" points="315.689,-316.757 312.618,-327.284 312.442,-320.559 309.195,-324.362 309.195,-324.362 309.195,-324.362 312.442,-320.559 305.773,-321.439 315.689,-316.757 315.689,-316.757"/>
</g>
<!-- ndSigner -->
<g id="node8" class="node"><title>ndSigner</title>
<g id="a_node8_15"><a xlink:href="https://github.com/maidsafe/sn_dbc/blob/master/src/mock/key_manager.rs#:~:text=struct%20Signer" xlink:title="&lt;TABLE&gt;">
<polygon fill="lightblue" stroke="none" points="754.324,-769 754.324,-806 1148.32,-806 1148.32,-769 754.324,-769"/>
<polygon fill="none" stroke="black" points="754.324,-769 754.324,-806 1148.32,-806 1148.32,-769 754.324,-769"/>
<text text-anchor="start" x="928.324" y="-784.8" font-family="Arial" font-weight="bold" font-size="14.00">Signer</text>
<polygon fill="white" stroke="none" points="754.324,-717 754.324,-769 1148.32,-769 1148.32,-717 754.324,-717"/>
<polygon fill="none" stroke="black" points="754.324,-717 754.324,-769 1148.32,-769 1148.32,-717 754.324,-717"/>
<text text-anchor="start" x="765.324" y="-746.8" font-family="Arial" font-size="14.00">&#45; public_key_set: PublicKeySet</text>
<text text-anchor="start" x="765.324" y="-731.8" font-family="Arial" font-size="14.00">&#45; secret_key_share: (u64, SerdeSecret&lt;SecretKeyShare&gt;)</text>
<polygon fill="none" stroke="black" points="753.324,-716.5 753.324,-807.5 1149.32,-807.5 1149.32,-716.5 753.324,-716.5"/>
</a>
</g>
</g>
<!-- ndSigner&#45;&gt;ndKeyManager -->
<g id="edge16" class="edge"><title>ndSigner&#45;&gt;ndKeyManager</title>
<path fill="none" stroke="black" stroke-dasharray="5,2" d="M1067.73,-712.334C1120.04,-690.462 1180.39,-665.231 1227.18,-645.671"/>
<polygon fill="black" stroke="black" points="1236.65,-641.712 1229.16,-649.721 1232.04,-643.641 1227.42,-645.569 1227.42,-645.569 1227.42,-645.569 1232.04,-643.641 1225.69,-641.417 1236.65,-641.712 1236.65,-641.712"/>
</g>
<!-- ndKeys&#45;&gt;ndKeyManager -->
<g id="edge17" class="edge"><title>ndKeys&#45;&gt;ndKeyManager</title>
<path fill="none" stroke="black" d="M1305.32,-719.774C1305.32,-705.533 1305.32,-689.264 1305.32,-673.791"/>
<polygon fill="black" stroke="black" points="1305.32,-673.606 1301.32,-667.606 1305.32,-661.606 1309.32,-667.606 1305.32,-673.606"/>
</g>
<!-- ndSpentBookNode&#45;&gt;ndGenesisBuilder -->
<g id="edge18" class="edge"><title>ndSpentBookNode&#45;&gt;ndGenesisBuilder</title>
<path fill="none" stroke="black" stroke-dasharray="5,2" d="M1137.2,-426.6C988.979,-409.159 775.85,-379.957 592.324,-339 567.335,-333.423 541.133,-326.554 515.663,-319.306"/>
<polygon fill="black" stroke="black" points="505.942,-316.511 516.796,-314.949 510.747,-317.892 515.552,-319.274 515.552,-319.274 515.552,-319.274 510.747,-317.892 514.309,-323.599 505.942,-316.511 505.942,-316.511"/>
</g>
<!-- ndOwner -->
<g id="node11" class="node"><title>ndOwner</title>
<g id="a_node11_16"><a xlink:href="https://github.com/maidsafe/sn_dbc/blob/master/src/owner.rs#:~:text=enum%20Owner" xlink:title="&lt;TABLE&gt;">
<polygon fill="yellow" stroke="none" points="379.324,-769 379.324,-806 642.324,-806 642.324,-769 379.324,-769"/>
<polygon fill="none" stroke="black" points="379.324,-769 379.324,-806 642.324,-806 642.324,-769 379.324,-769"/>
<text text-anchor="start" x="487.824" y="-784.8" font-family="Arial" font-weight="bold" font-size="14.00">Owner</text>
<polygon fill="white" stroke="none" points="379.324,-717 379.324,-769 642.324,-769 642.324,-717 379.324,-717"/>
<polygon fill="none" stroke="black" points="379.324,-717 379.324,-769 642.324,-769 642.324,-717 379.324,-717"/>
<text text-anchor="start" x="390.324" y="-746.8" font-family="Arial" font-size="14.00">SecretKey(SerdeSecret&lt;SecretKey&gt;)</text>
<text text-anchor="start" x="390.324" y="-731.8" font-family="Arial" font-size="14.00">PublicKey(PublicKey)</text>
<polygon fill="none" stroke="black" points="377.824,-716.5 377.824,-807.5 642.824,-807.5 642.824,-716.5 377.824,-716.5"/>
</a>
</g>
</g>
<!-- ndOwner&#45;&gt;ndDbcContent -->
<g id="edge19" class="edge"><title>ndOwner&#45;&gt;ndDbcContent</title>
<path fill="none" stroke="black" d="M572.143,-712.334C586.541,-701 602.084,-688.764 617.177,-676.882"/>
<polygon fill="black" stroke="black" points="617.584,-676.561 619.824,-669.707 627.013,-669.139 624.773,-675.993 617.584,-676.561"/>
</g>
<!-- ndOwnerOnce -->
<g id="node12" class="node"><title>ndOwnerOnce</title>
<g id="a_node12_17"><a xlink:href="https://github.com/maidsafe/sn_dbc/blob/master/src/owner.rs#:~:text=struct%20OwnerOnce" xlink:title="&lt;TABLE&gt;">
<polygon fill="lightblue" stroke="none" points="389.324,-911.5 389.324,-948.5 632.324,-948.5 632.324,-911.5 389.324,-911.5"/>
<polygon fill="none" stroke="black" points="389.324,-911.5 389.324,-948.5 632.324,-948.5 632.324,-911.5 389.324,-911.5"/>
<text text-anchor="start" x="469.324" y="-927.3" font-family="Arial" font-weight="bold" font-size="14.00">OwnerOnce</text>
<polygon fill="white" stroke="none" points="389.324,-859.5 389.324,-911.5 632.324,-911.5 632.324,-859.5 389.324,-859.5"/>
<polygon fill="none" stroke="black" points="389.324,-859.5 389.324,-911.5 632.324,-911.5 632.324,-859.5 389.324,-859.5"/>
<text text-anchor="start" x="400.324" y="-889.3" font-family="Arial" font-size="14.00">+ owner_base: Owner</text>
<text text-anchor="start" x="400.324" y="-874.3" font-family="Arial" font-size="14.00">+ derivation_index: DerivationIndex</text>
<polygon fill="none" stroke="black" points="387.824,-859 387.824,-950 632.824,-950 632.824,-859 387.824,-859"/>
</a>
</g>
</g>
<!-- ndOwner&#45;&gt;ndOwnerOnce -->
<g id="edge20" class="edge"><title>ndOwner&#45;&gt;ndOwnerOnce</title>
<path fill="none" stroke="black" stroke-dasharray="5,2" d="M516.783,-811.66C517.062,-821.682 517.141,-832.354 517.019,-842.743"/>
<polygon fill="black" stroke="black" points="517.019,-842.757 520.901,-848.833 516.785,-854.754 512.903,-848.677 517.019,-842.757"/>
</g>
<!-- ndOwner&#45;&gt;ndDbc -->
<g id="edge21" class="edge"><title>ndOwner&#45;&gt;ndDbc</title>
<path fill="none" stroke="black" d="M519.452,-712.285C527.298,-670.532 538.954,-608.79 549.324,-555 551.866,-541.817 554.611,-527.726 557.252,-514.242"/>
<polygon fill="black" stroke="black" points="559.246,-504.074 561.737,-514.753 558.284,-508.98 557.321,-513.887 557.321,-513.887 557.321,-513.887 558.284,-508.98 552.906,-513.021 559.246,-504.074 559.246,-504.074"/>
</g>
<!-- ndOwnerOnce&#45;&gt;ndGenesisMaterial -->
<g id="edge22" class="edge"><title>ndOwnerOnce&#45;&gt;ndGenesisMaterial</title>
<path fill="none" stroke="black" d="M379.685,-891.95C275.499,-880.01 140.87,-857.562 102.324,-819 18.8049,-735.445 20.0993,-661.456 71.3244,-555 78.9284,-539.198 90.1279,-525.002 102.866,-512.511"/>
<polygon fill="black" stroke="black" points="103.102,-512.292 104.785,-505.28 111.905,-504.136 110.222,-511.148 103.102,-512.292"/>
</g>
<!-- ndOwnerOnce&#45;&gt;ndOwner -->
<g id="edge23" class="edge"><title>ndOwnerOnce&#45;&gt;ndOwner</title>
<path fill="none" stroke="black" stroke-dasharray="5,2" d="M503.864,-854.754C503.571,-844.183 503.5,-832.893 503.652,-821.976"/>
<polygon fill="black" stroke="black" points="503.866,-811.66 508.158,-821.751 503.762,-816.659 503.659,-821.657 503.659,-821.657 503.659,-821.657 503.762,-816.659 499.16,-821.564 503.866,-811.66 503.866,-811.66"/>
</g>
<!-- ndTransactionBuilder -->
<g id="node14" class="node"><title>ndTransactionBuilder</title>
<g id="a_node14_18"><a xlink:href="https://github.com/maidsafe/sn_dbc/blob/master/src/builder.rs#:~:text=struct%20TransactionBuilder" xlink:title="&lt;TABLE&gt;">
<polygon fill="lightblue" stroke="none" points="176.324,-116.5 176.324,-153.5 446.324,-153.5 446.324,-116.5 176.324,-116.5"/>
<polygon fill="none" stroke="black" points="176.324,-116.5 176.324,-153.5 446.324,-153.5 446.324,-116.5 176.324,-116.5"/>
<text text-anchor="start" x="244.324" y="-132.3" font-family="Arial" font-weight="bold" font-size="14.00">TransactionBuilder</text>
<polygon fill="white" stroke="none" points="176.324,-4.5 176.324,-116.5 446.324,-116.5 446.324,-4.5 176.324,-4.5"/>
<polygon fill="none" stroke="black" points="176.324,-4.5 176.324,-116.5 446.324,-116.5 446.324,-4.5 176.324,-4.5"/>
<text text-anchor="start" x="187.324" y="-94.3" font-family="Arial" font-size="14.00">&#45; true_inputs: Vec&lt;TrueInput&gt;</text>
<text text-anchor="start" x="187.324" y="-79.3" font-family="Arial" font-size="14.00">&#45; ringct_material: RingCtMaterial</text>
<text text-anchor="start" x="187.324" y="-64.3" font-family="Arial" font-size="14.00">&#45; output_owner_map: OutputOwnerMap</text>
<text text-anchor="start" x="187.324" y="-49.3" font-family="Arial" font-size="14.00">&#45; available_decoys: Vec&lt;DecoyInput&gt;</text>
<text text-anchor="start" x="187.324" y="-34.3" font-family="Arial" font-size="14.00">&#45; decoys_per_input: usize</text>
<text text-anchor="start" x="187.324" y="-19.3" font-family="Arial" font-size="14.00">&#45; require_all_decoys: bool</text>
<polygon fill="none" stroke="black" points="175.324,-4 175.324,-155 447.324,-155 447.324,-4 175.324,-4"/>
</a>
</g>
</g>
<!-- ndOwnerOnce&#45;&gt;ndTransactionBuilder -->
<g id="edge24" class="edge"><title>ndOwnerOnce&#45;&gt;ndTransactionBuilder</title>
<path fill="none" stroke="black" stroke-dasharray="5,2" d="M379.814,-897.628C255.257,-889.09 80.0001,-868.43 34.3244,-819 -28.1034,-751.441 14.3244,-704.986 14.3244,-613 14.3244,-613 14.3244,-613 14.3244,-446 14.3244,-330.765 6.60869,-284.396 79.3244,-195 100.258,-169.264 128.424,-148.848 157.907,-132.823"/>
<polygon fill="black" stroke="black" points="167.093,-127.99 160.338,-136.629 162.668,-130.318 158.243,-132.647 158.243,-132.647 158.243,-132.647 162.668,-130.318 156.147,-128.664 167.093,-127.99 167.093,-127.99"/>
</g>
<!-- ndDbcBuilder -->
<g id="node15" class="node"><title>ndDbcBuilder</title>
<g id="a_node15_19"><a xlink:href="https://github.com/maidsafe/sn_dbc/blob/master/src/builder.rs#:~:text=struct%20DbcBuilder" xlink:title="&lt;TABLE&gt;">
<polygon fill="lightblue" stroke="none" points="610.324,-297 610.324,-334 1116.32,-334 1116.32,-297 610.324,-297"/>
<polygon fill="none" stroke="black" points="610.324,-297 610.324,-334 1116.32,-334 1116.32,-297 610.324,-297"/>
<text text-anchor="start" x="823.824" y="-312.8" font-family="Arial" font-weight="bold" font-size="14.00">DbcBuilder</text>
<polygon fill="white" stroke="none" points="610.324,-200 610.324,-297 1116.32,-297 1116.32,-200 610.324,-200"/>
<polygon fill="none" stroke="black" points="610.324,-200 610.324,-297 1116.32,-297 1116.32,-200 610.324,-200"/>
<text text-anchor="start" x="621.324" y="-274.8" font-family="Arial" font-size="14.00">+ transaction: RingCtTransaction</text>
<text text-anchor="start" x="621.324" y="-259.8" font-family="Arial" font-size="14.00">+ revealed_commitments: Vec&lt;RevealedCommitment&gt;</text>
<text text-anchor="start" x="621.324" y="-244.8" font-family="Arial" font-size="14.00">+ output_owner_map: OutputOwnerMap</text>
<text text-anchor="start" x="621.324" y="-229.8" font-family="Arial" font-size="14.00">+ ringct_material: RingCtMaterial</text>
<text text-anchor="start" x="621.324" y="-214.8" font-family="Arial" font-size="14.00">+ spent_proof_shares: BTreeMap&lt;KeyImage, HashSet&lt;SpentProofShare&gt;&gt;</text>
<polygon fill="none" stroke="black" points="609.324,-199 609.324,-335 1117.32,-335 1117.32,-199 609.324,-199"/>
</a>
</g>
</g>
<!-- ndOwnerOnce&#45;&gt;ndDbcBuilder -->
<g id="edge25" class="edge"><title>ndOwnerOnce&#45;&gt;ndDbcBuilder</title>
<path fill="none" stroke="black" d="M610.907,-854.975C628.031,-844.397 644.914,-832.326 659.324,-819 704.214,-777.489 687.522,-741.832 736.324,-705 777.384,-674.012 815.257,-709.999 846.324,-669 915.819,-577.288 902.731,-437.038 884.685,-349.032"/>
<polygon fill="black" stroke="black" points="882.581,-339.095 889.055,-347.946 883.616,-343.987 884.652,-348.878 884.652,-348.878 884.652,-348.878 883.616,-343.987 880.25,-349.81 882.581,-339.095 882.581,-339.095"/>
</g>
<!-- ndDbc&#45;&gt;ndGenesisBuilder -->
<g id="edge26" class="edge"><title>ndDbc&#45;&gt;ndGenesisBuilder</title>
<path fill="none" stroke="black" d="M503.222,-389.924C477.694,-368.591 448.651,-344.32 423.235,-323.08"/>
<polygon fill="black" stroke="black" points="415.471,-316.592 426.03,-319.551 419.308,-319.798 423.144,-323.004 423.144,-323.004 423.144,-323.004 419.308,-319.798 420.259,-326.457 415.471,-316.592 415.471,-316.592"/>
</g>
<!-- ndDbc&#45;&gt;ndTransactionBuilder -->
<g id="edge27" class="edge"><title>ndDbc&#45;&gt;ndTransactionBuilder</title>
<path fill="none" stroke="black" stroke-dasharray="5,2" d="M579.971,-389.845C586.195,-335.186 586.91,-252.218 547.324,-195 526.898,-165.475 496.67,-143.276 464.615,-126.69"/>
<polygon fill="black" stroke="black" points="455.532,-122.16 466.489,-122.597 460.007,-124.392 464.481,-126.623 464.481,-126.623 464.481,-126.623 460.007,-124.392 462.472,-130.65 455.532,-122.16 455.532,-122.16"/>
</g>
<!-- ndDbc&#45;&gt;ndDbcBuilder -->
<g id="edge28" class="edge"><title>ndDbc&#45;&gt;ndDbcBuilder</title>
<path fill="none" stroke="black" d="M662.629,-389.924C686.412,-375.476 712.414,-359.68 737.581,-344.39"/>
<polygon fill="black" stroke="black" points="746.443,-339.006 740.233,-348.045 742.17,-341.603 737.897,-344.199 737.897,-344.199 737.897,-344.199 742.17,-341.603 735.56,-340.353 746.443,-339.006 746.443,-339.006"/>
</g>
<!-- ndDbcBuilder&#45;&gt;ndTransactionBuilder -->
<g id="edge29" class="edge"><title>ndDbcBuilder&#45;&gt;ndTransactionBuilder</title>
<path fill="none" stroke="black" d="M651.88,-194.944C589.782,-174.076 523.065,-151.656 465.284,-132.238"/>
<polygon fill="black" stroke="black" points="455.72,-129.024 466.632,-127.944 460.459,-130.617 465.199,-132.21 465.199,-132.21 465.199,-132.21 460.459,-130.617 463.765,-136.475 455.72,-129.024 455.72,-129.024"/>
</g>
<!-- ndSpentProofContent&#45;&gt;ndSpentProofShare -->
<g id="edge30" class="edge"><title>ndSpentProofContent&#45;&gt;ndSpentProofShare</title>
<path fill="none" stroke="black" d="M1913.18,-704.625C1911.93,-696.922 1910.64,-688.949 1909.36,-681.066"/>
<polygon fill="black" stroke="black" points="1909.36,-681.063 1904.45,-675.781 1907.44,-669.218 1912.35,-674.5 1909.36,-681.063"/>
</g>
<!-- ndSpentProofContent&#45;&gt;ndSpentProof -->
<g id="edge31" class="edge"><title>ndSpentProofContent&#45;&gt;ndSpentProof</title>
<path fill="none" stroke="black" d="M1792.54,-704.837C1768.21,-694.306 1742.69,-683.263 1718.12,-672.631"/>
<polygon fill="black" stroke="black" points="1717.92,-672.545 1710.83,-673.833 1706.91,-667.779 1714,-666.491 1717.92,-672.545"/>
</g>
<!-- ndSpentProofShare&#45;&gt;ndSpentBookNode -->
<g id="edge32" class="edge"><title>ndSpentProofShare&#45;&gt;ndSpentBookNode</title>
<path fill="none" stroke="black" d="M1724.5,-557.661C1721.42,-556.763 1718.36,-555.876 1715.32,-555 1650.39,-536.252 1579.16,-516.625 1515.34,-499.376"/>
<polygon fill="black" stroke="black" points="1505.58,-496.738 1516.4,-495 1510.4,-498.042 1515.23,-499.345 1515.23,-499.345 1515.23,-499.345 1510.4,-498.042 1514.06,-503.689 1505.58,-496.738 1505.58,-496.738"/>
</g>
<!-- ndSpentProofShare&#45;&gt;ndDbcBuilder -->
<g id="edge33" class="edge"><title>ndSpentProofShare&#45;&gt;ndDbcBuilder</title>
<path fill="none" stroke="black" stroke-dasharray="5,2" d="M1836.83,-554.805C1772.74,-499.627 1666.96,-417.706 1560.32,-375 1426.97,-321.594 1269.44,-294.666 1137.9,-281.163"/>
<polygon fill="black" stroke="black" points="1137.6,-281.133 1131.23,-284.516 1125.66,-279.938 1132.03,-276.555 1137.6,-281.133"/>
</g>
<!-- ndSpentProof&#45;&gt;ndDbc -->
<g id="edge34" class="edge"><title>ndSpentProof&#45;&gt;ndDbc</title>
<path fill="none" stroke="black" d="M1453.71,-572.259C1430.13,-565.881 1405.59,-559.797 1382.32,-555 1350.79,-548.499 957.367,-497.63 729.953,-468.433"/>
<polygon fill="black" stroke="black" points="729.811,-468.415 723.35,-471.618 717.909,-466.887 724.369,-463.683 729.811,-468.415"/>
</g>
<!-- ndSpentProof&#45;&gt;ndDbcBuilder -->
<g id="edge35" class="edge"><title>ndSpentProof&#45;&gt;ndDbcBuilder</title>
<path fill="none" stroke="black" d="M1580.81,-554.98C1578.05,-500.748 1564.87,-420.278 1514.32,-375 1458.24,-324.755 1288.02,-297.897 1135.72,-283.656"/>
<polygon fill="black" stroke="black" points="1125.71,-282.736 1136.08,-279.171 1130.69,-283.194 1135.67,-283.652 1135.67,-283.652 1135.67,-283.652 1130.69,-283.194 1135.26,-288.133 1125.71,-282.736 1125.71,-282.736"/>
</g>
<!-- ndAmountSecrets&#45;&gt;ndGenesisBuilder -->
<g id="edge36" class="edge"><title>ndAmountSecrets&#45;&gt;ndGenesisBuilder</title>
<path fill="none" stroke="black" d="M255.37,-569.776C292.986,-549.406 330.974,-527.417 336.324,-519 372.907,-461.448 372.712,-380.87 366.972,-326.676"/>
<polygon fill="black" stroke="black" points="365.801,-316.54 371.419,-325.958 366.375,-321.507 366.949,-326.474 366.949,-326.474 366.949,-326.474 366.375,-321.507 362.478,-326.991 365.801,-316.54 365.801,-316.54"/>
</g>
<!-- ndAmountSecrets&#45;&gt;ndDbc -->
<g id="edge37" class="edge"><title>ndAmountSecrets&#45;&gt;ndDbc</title>
<path fill="none" stroke="black" d="M252.421,-569.995C263.64,-564.616 275.175,-559.439 286.324,-555 338.848,-534.087 355.218,-538.385 408.324,-519 417.833,-515.529 427.58,-511.775 437.344,-507.867"/>
<polygon fill="black" stroke="black" points="446.705,-504.079 439.124,-512.002 442.07,-505.955 437.436,-507.831 437.436,-507.831 437.436,-507.831 442.07,-505.955 435.747,-503.659 446.705,-504.079 446.705,-504.079"/>
</g>
<!-- ndAmountSecrets&#45;&gt;ndTransactionBuilder -->
<g id="edge38" class="edge"><title>ndAmountSecrets&#45;&gt;ndTransactionBuilder</title>
<path fill="none" stroke="black" stroke-dasharray="5,2" d="M113.686,-569.962C97.4884,-555.914 82.1407,-538.696 73.3244,-519 47.1767,-460.585 58.2081,-437.189 73.3244,-375 94.5929,-287.501 109.031,-264.469 166.324,-195 174.537,-185.042 183.751,-175.385 193.448,-166.181"/>
<polygon fill="black" stroke="black" points="200.95,-159.233 196.671,-169.33 197.281,-162.631 193.613,-166.029 193.613,-166.029 193.613,-166.029 197.281,-162.631 190.555,-162.727 200.95,-159.233 200.95,-159.233"/>
</g>
<!-- ndAmountSecrets&#45;&gt;ndDbcBuilder -->
<g id="edge39" class="edge"><title>ndAmountSecrets&#45;&gt;ndDbcBuilder</title>
<path fill="none" stroke="black" d="M246.999,-569.892C256.746,-564.674 266.709,-559.569 276.324,-555 315.609,-536.333 337.625,-550.776 367.324,-519 413.202,-469.916 364.052,-420.675 413.324,-375 417.319,-371.297 498.811,-351.501 591.371,-329.924"/>
<polygon fill="black" stroke="black" points="601.236,-327.627 592.517,-334.277 596.366,-328.761 591.497,-329.895 591.497,-329.895 591.497,-329.895 596.366,-328.761 590.476,-325.512 601.236,-327.627 601.236,-327.627"/>
</g>
</g>
</svg>
