<?xml version="1.0" encoding="UTF-8" standalone="no"?>
<!DOCTYPE svg PUBLIC "-//W3C//DTD SVG 1.1//EN"
 "http://www.w3.org/Graphics/SVG/1.1/DTD/svg11.dtd">
<!-- Generated by graphviz version 2.38.0 (20140413.2041)
 -->
<!-- Title: ml Pages: 1 -->
<svg width="720pt" height="144pt"
 viewBox="0.00 0.00 720.00 144.00" xmlns="http://www.w3.org/2000/svg" xmlns:xlink="http://www.w3.org/1999/xlink">
<g id="graph0" class="graph" transform="scale(1 1) rotate(0) translate(4 140)">
<title>ml</title>
<polygon fill="white" stroke="none" points="-4,4 -4,-140 716,-140 716,4 -4,4"/>
<!-- ndChunk -->
<g id="node1" class="node"><title>ndChunk</title>
<polygon fill="lightblue" stroke="none" points="9.5,-94 9.5,-131 318.5,-131 318.5,-94 9.5,-94"/>
<polygon fill="none" stroke="black" points="9.5,-94 9.5,-131 318.5,-131 318.5,-94 9.5,-94"/>
<text text-anchor="start" x="141" y="-109.8" font-family="Arial" font-weight="bold" font-size="14.00">Chunk</text>
<polygon fill="white" stroke="none" points="9.5,-57 9.5,-94 318.5,-94 318.5,-57 9.5,-57"/>
<polygon fill="none" stroke="black" points="9.5,-57 9.5,-94 318.5,-94 318.5,-57 9.5,-57"/>
<text text-anchor="start" x="20.5" y="-71.8" font-family="Arial" font-size="14.00">&#45; file: File</text>
<polygon fill="white" stroke="none" points="9.5,-5 9.5,-57 318.5,-57 318.5,-5 9.5,-5"/>
<polygon fill="none" stroke="black" points="9.5,-5 9.5,-57 318.5,-57 318.5,-5 9.5,-5"/>
<text text-anchor="start" x="20.5" y="-34.8" font-family="Arial" font-size="14.00">&#45; try_new(path: P) &#45;&gt; Result&lt;Chunk&gt;</text>
<text text-anchor="start" x="20.5" y="-19.8" font-family="Arial" font-size="14.00">&#45; calculate_entropy(&amp;mut self) &#45;&gt; Result&lt;f64&gt;</text>
<polygon fill="none" stroke="black" points="8,-4 8,-132 319,-132 319,-4 8,-4"/>
</g>
<!-- ndError -->
<g id="node2" class="node"><title>ndError</title>
<polygon fill="yellow" stroke="none" points="353.5,-75 353.5,-112 547.5,-112 547.5,-75 353.5,-75"/>
<polygon fill="none" stroke="black" points="353.5,-75 353.5,-112 547.5,-112 547.5,-75 353.5,-75"/>
<text text-anchor="start" x="432" y="-90.8" font-family="Arial" font-weight="bold" font-size="14.00">Error</text>
<polygon fill="white" stroke="none" points="353.5,-23 353.5,-75 547.5,-75 547.5,-23 353.5,-23"/>
<polygon fill="none" stroke="black" points="353.5,-23 353.5,-75 547.5,-75 547.5,-23 353.5,-23"/>
<text text-anchor="start" x="364.5" y="-52.8" font-family="Arial" font-size="14.00">IoError(std::io::Error)</text>
<text text-anchor="start" x="364.5" y="-37.8" font-family="Arial" font-size="14.00">WalkDirError(walkdir::Error)</text>
<polygon fill="none" stroke="black" points="352.5,-22.5 352.5,-113.5 548.5,-113.5 548.5,-22.5 352.5,-22.5"/>
</g>
<!-- ndCmdArgs -->
<g id="node3" class="node"><title>ndCmdArgs</title>
<polygon fill="lightblue" stroke="none" points="584.5,-68 584.5,-105 703.5,-105 703.5,-68 584.5,-68"/>
<polygon fill="none" stroke="black" points="584.5,-68 584.5,-105 703.5,-105 703.5,-68 584.5,-68"/>
<text text-anchor="start" x="611" y="-83.8" font-family="Arial" font-weight="bold" font-size="14.00">CmdArgs</text>
<polygon fill="white" stroke="none" points="584.5,-31 584.5,-68 703.5,-68 703.5,-31 584.5,-31"/>
<polygon fill="none" stroke="black" points="584.5,-31 584.5,-68 703.5,-68 703.5,-31 584.5,-31"/>
<text text-anchor="start" x="595.5" y="-45.8" font-family="Arial" font-size="14.00">&#45; input: PathBuf</text>
<polygon fill="none" stroke="black" points="583,-30 583,-106 704,-106 704,-30 583,-30"/>
</g>
</g>
</svg>
