<?xml version="1.0" encoding="UTF-8" standalone="no"?>
<!DOCTYPE svg PUBLIC "-//W3C//DTD SVG 1.1//EN"
 "http://www.w3.org/Graphics/SVG/1.1/DTD/svg11.dtd">
<!-- Generated by graphviz version 2.38.0 (20140413.2041)
 -->
<!-- Title: ml Pages: 1 -->
<svg width="1056pt" height="107pt"
 viewBox="0.00 0.00 1055.50 107.00" xmlns="http://www.w3.org/2000/svg" xmlns:xlink="http://www.w3.org/1999/xlink">
<g id="graph0" class="graph" transform="scale(1 1) rotate(0) translate(4 103)">
<title>ml</title>
<polygon fill="white" stroke="none" points="-4,4 -4,-103 1051.5,-103 1051.5,4 -4,4"/>
<!-- ndChunk -->
<g id="node1" class="node"><title>ndChunk</title>
<g id="a_node1_0"><a xlink:href="https://github.com/maidsafe/sn_entropy_check/blob/master/src/lib.rs#:~:text=struct%20Chunk" xlink:title="&lt;TABLE&gt;">
<polygon fill="lightblue" stroke="none" points="9,-49.5 9,-86.5 239,-86.5 239,-49.5 9,-49.5"/>
<polygon fill="none" stroke="black" points="9,-49.5 9,-86.5 239,-86.5 239,-49.5 9,-49.5"/>
<text text-anchor="start" x="20" y="-65.3" font-family="Arial" font-weight="bold" font-size="14.00">pub struct Chunk { &#160;&#160;&#160;file: File,}</text>
<polygon fill="white" stroke="none" points="9,-12.5 9,-49.5 239,-49.5 239,-12.5 9,-12.5"/>
<polygon fill="none" stroke="black" points="9,-12.5 9,-49.5 239,-49.5 239,-12.5 9,-12.5"/>
<text text-anchor="start" x="20" y="-27.3" font-family="Arial" font-size="14.00">&#45; file: File</text>
<polygon fill="none" stroke="black" points="8,-11.5 8,-87.5 240,-87.5 240,-11.5 8,-11.5"/>
</a>
</g>
</g>
<!-- ndError -->
<g id="node2" class="node"><title>ndError</title>
<g id="a_node2_1"><a xlink:href="https://github.com/maidsafe/sn_entropy_check/blob/master/src/lib.rs#:~:text=enum%20Error" xlink:title="&lt;TABLE&gt;">
<polygon fill="yellow" stroke="none" points="275,-56.5 275,-93.5 469,-93.5 469,-56.5 275,-56.5"/>
<polygon fill="none" stroke="black" points="275,-56.5 275,-93.5 469,-93.5 469,-56.5 275,-56.5"/>
<text text-anchor="start" x="353.5" y="-72.3" font-family="Arial" font-weight="bold" font-size="14.00">Error</text>
<polygon fill="white" stroke="none" points="275,-4.5 275,-56.5 469,-56.5 469,-4.5 275,-4.5"/>
<polygon fill="none" stroke="black" points="275,-4.5 275,-56.5 469,-56.5 469,-4.5 275,-4.5"/>
<text text-anchor="start" x="286" y="-34.3" font-family="Arial" font-size="14.00">IoError(std::io::Error)</text>
<text text-anchor="start" x="286" y="-19.3" font-family="Arial" font-size="14.00">WalkDirError(walkdir::Error)</text>
<polygon fill="none" stroke="black" points="274,-4 274,-95 470,-95 470,-4 274,-4"/>
</a>
</g>
</g>
<!-- ndCmdArgs -->
<g id="node3" class="node"><title>ndCmdArgs</title>
<g id="a_node3_2"><a xlink:href="https://github.com/maidsafe/sn_entropy_check/blob/master/src/main.rs#:~:text=struct%20CmdArgs" xlink:title="&lt;TABLE&gt;">
<polygon fill="lightblue" stroke="none" points="506,-49.5 506,-86.5 1039,-86.5 1039,-49.5 506,-49.5"/>
<polygon fill="none" stroke="black" points="506,-49.5 506,-86.5 1039,-86.5 1039,-49.5 506,-49.5"/>
<text text-anchor="start" x="517" y="-65.3" font-family="Arial" font-weight="bold" font-size="14.00">pub struct CmdArgs { &#160;&#160;&#160;#[structopt(parse(from_os_str))] &#160;&#160;&#160;input: PathBuf,}</text>
<polygon fill="white" stroke="none" points="506,-12.5 506,-49.5 1039,-49.5 1039,-12.5 506,-12.5"/>
<polygon fill="none" stroke="black" points="506,-12.5 506,-49.5 1039,-49.5 1039,-12.5 506,-12.5"/>
<text text-anchor="start" x="517" y="-27.3" font-family="Arial" font-size="14.00">&#45; input: PathBuf</text>
<polygon fill="none" stroke="black" points="504.5,-11.5 504.5,-87.5 1039.5,-87.5 1039.5,-11.5 504.5,-11.5"/>
</a>
</g>
</g>
</g>
</svg>
