<?xml version="1.0" encoding="UTF-8" standalone="no"?>
<!DOCTYPE svg PUBLIC "-//W3C//DTD SVG 1.1//EN"
 "http://www.w3.org/Graphics/SVG/1.1/DTD/svg11.dtd">
<!-- Generated by graphviz version 2.38.0 (20140413.2041)
 -->
<!-- Title: ml Pages: 1 -->
<svg width="314pt" height="55pt"
 viewBox="0.00 0.00 314.00 55.00" xmlns="http://www.w3.org/2000/svg" xmlns:xlink="http://www.w3.org/1999/xlink">
<g id="graph0" class="graph" transform="scale(1 1) rotate(0) translate(4 51)">
<title>ml</title>
<polygon fill="white" stroke="none" points="-4,4 -4,-51 310,-51 310,4 -4,4"/>
<!-- ndChunk -->
<g id="node1" class="node"><title>ndChunk</title>
<g id="a_node1_0"><a xlink:href="https://github.com/maidsafe/sn_entropy_check/blob/master/src/lib.rs#:~:text=struct%20Chunk" xlink:title="&lt;TABLE&gt;">
<polygon fill="lightblue" stroke="none" points="9,-4.5 9,-41.5 77,-41.5 77,-4.5 9,-4.5"/>
<polygon fill="none" stroke="black" points="9,-4.5 9,-41.5 77,-41.5 77,-4.5 9,-4.5"/>
<text text-anchor="start" x="20" y="-20.3" font-family="Arial" font-weight="bold" font-size="14.00">Chunk</text>
<polygon fill="none" stroke="black" points="8,-4 8,-43 78,-43 78,-4 8,-4"/>
</a>
</g>
</g>
<!-- ndError -->
<g id="node2" class="node"><title>ndError</title>
<g id="a_node2_1"><a xlink:href="https://github.com/maidsafe/sn_entropy_check/blob/master/src/lib.rs#:~:text=enum%20Error" xlink:title="&lt;TABLE&gt;">
<polygon fill="yellow" stroke="none" points="114,-4.5 114,-41.5 173,-41.5 173,-4.5 114,-4.5"/>
<polygon fill="none" stroke="black" points="114,-4.5 114,-41.5 173,-41.5 173,-4.5 114,-4.5"/>
<text text-anchor="start" x="125" y="-20.3" font-family="Arial" font-weight="bold" font-size="14.00">Error</text>
<polygon fill="none" stroke="black" points="112.5,-4 112.5,-43 173.5,-43 173.5,-4 112.5,-4"/>
</a>
</g>
</g>
<!-- ndCmdArgs -->
<g id="node3" class="node"><title>ndCmdArgs</title>
<g id="a_node3_2"><a xlink:href="https://github.com/maidsafe/sn_entropy_check/blob/master/src/main.rs#:~:text=struct%20CmdArgs" xlink:title="&lt;TABLE&gt;">
<polygon fill="lightblue" stroke="none" points="209,-4.5 209,-41.5 297,-41.5 297,-4.5 209,-4.5"/>
<polygon fill="none" stroke="black" points="209,-4.5 209,-41.5 297,-41.5 297,-4.5 209,-4.5"/>
<text text-anchor="start" x="220" y="-20.3" font-family="Arial" font-weight="bold" font-size="14.00">CmdArgs</text>
<polygon fill="none" stroke="black" points="208,-4 208,-43 298,-43 298,-4 208,-4"/>
</a>
</g>
</g>
</g>
</svg>
