<?xml version="1.0" encoding="UTF-8" standalone="no"?>
<!DOCTYPE svg PUBLIC "-//W3C//DTD SVG 1.1//EN"
 "http://www.w3.org/Graphics/SVG/1.1/DTD/svg11.dtd">
<!-- Generated by graphviz version 2.38.0 (20140413.2041)
 -->
<!-- Title: ml Pages: 1 -->
<svg width="492pt" height="107pt"
 viewBox="0.00 0.00 491.50 107.00" xmlns="http://www.w3.org/2000/svg" xmlns:xlink="http://www.w3.org/1999/xlink">
<g id="graph0" class="graph" transform="scale(1 1) rotate(0) translate(4 103)">
<title>ml</title>
<polygon fill="white" stroke="none" points="-4,4 -4,-103 487.5,-103 487.5,4 -4,4"/>
<!-- ndChunk -->
<g id="node1" class="node"><title>ndChunk</title>
<polygon fill="lightblue" stroke="none" points="9,-49.5 9,-86.5 89,-86.5 89,-49.5 9,-49.5"/>
<polygon fill="none" stroke="black" points="9,-49.5 9,-86.5 89,-86.5 89,-49.5 9,-49.5"/>
<text text-anchor="start" x="26" y="-65.3" font-family="Arial" font-weight="bold" font-size="14.00">Chunk</text>
<polygon fill="white" stroke="none" points="9,-12.5 9,-49.5 89,-49.5 89,-12.5 9,-12.5"/>
<polygon fill="none" stroke="black" points="9,-12.5 9,-49.5 89,-49.5 89,-12.5 9,-12.5"/>
<text text-anchor="start" x="20" y="-27.3" font-family="Arial" font-size="14.00">&#45; file: File</text>
<polygon fill="none" stroke="black" points="8,-11.5 8,-87.5 90,-87.5 90,-11.5 8,-11.5"/>
</g>
<!-- ndError -->
<g id="node2" class="node"><title>ndError</title>
<polygon fill="yellow" stroke="none" points="125,-56.5 125,-93.5 319,-93.5 319,-56.5 125,-56.5"/>
<polygon fill="none" stroke="black" points="125,-56.5 125,-93.5 319,-93.5 319,-56.5 125,-56.5"/>
<text text-anchor="start" x="203.5" y="-72.3" font-family="Arial" font-weight="bold" font-size="14.00">Error</text>
<polygon fill="white" stroke="none" points="125,-4.5 125,-56.5 319,-56.5 319,-4.5 125,-4.5"/>
<polygon fill="none" stroke="black" points="125,-4.5 125,-56.5 319,-56.5 319,-4.5 125,-4.5"/>
<text text-anchor="start" x="136" y="-34.3" font-family="Arial" font-size="14.00">IoError(std::io::Error)</text>
<text text-anchor="start" x="136" y="-19.3" font-family="Arial" font-size="14.00">WalkDirError(walkdir::Error)</text>
<polygon fill="none" stroke="black" points="124,-4 124,-95 320,-95 320,-4 124,-4"/>
</g>
<!-- ndCmdArgs -->
<g id="node3" class="node"><title>ndCmdArgs</title>
<polygon fill="lightblue" stroke="none" points="356,-49.5 356,-86.5 475,-86.5 475,-49.5 356,-49.5"/>
<polygon fill="none" stroke="black" points="356,-49.5 356,-86.5 475,-86.5 475,-49.5 356,-49.5"/>
<text text-anchor="start" x="382.5" y="-65.3" font-family="Arial" font-weight="bold" font-size="14.00">CmdArgs</text>
<polygon fill="white" stroke="none" points="356,-12.5 356,-49.5 475,-49.5 475,-12.5 356,-12.5"/>
<polygon fill="none" stroke="black" points="356,-12.5 356,-49.5 475,-49.5 475,-12.5 356,-12.5"/>
<text text-anchor="start" x="367" y="-27.3" font-family="Arial" font-size="14.00">&#45; input: PathBuf</text>
<polygon fill="none" stroke="black" points="354.5,-11.5 354.5,-87.5 475.5,-87.5 475.5,-11.5 354.5,-11.5"/>
</g>
</g>
</svg>
