<?xml version="1.0" encoding="UTF-8" standalone="no"?>
<!DOCTYPE svg PUBLIC "-//W3C//DTD SVG 1.1//EN"
 "http://www.w3.org/Graphics/SVG/1.1/DTD/svg11.dtd">
<!-- Generated by graphviz version 2.38.0 (20140413.2041)
 -->
<!-- Title: ml Pages: 1 -->
<svg width="355pt" height="92pt"
 viewBox="0.00 0.00 355.00 92.00" xmlns="http://www.w3.org/2000/svg" xmlns:xlink="http://www.w3.org/1999/xlink">
<g id="graph0" class="graph" transform="scale(1 1) rotate(0) translate(4 88)">
<title>ml</title>
<polygon fill="white" stroke="none" points="-4,4 -4,-88 351,-88 351,4 -4,4"/>
<!-- ndFakeClock -->
<g id="node1" class="node"><title>ndFakeClock</title>
<g id="a_node1_0"><a xlink:href="https://github.com/maidsafe/sn_fake_clock/blob/master/src/lib.rs#:~:text=struct%20FakeClock" xlink:title="&lt;TABLE&gt;">
<polygon fill="lightblue" stroke="none" points="9.5,-42 9.5,-79 338.5,-79 338.5,-42 9.5,-42"/>
<polygon fill="none" stroke="black" points="9.5,-42 9.5,-79 338.5,-79 338.5,-42 9.5,-42"/>
<text text-anchor="start" x="20.5" y="-57.8" font-family="Arial" font-weight="bold" font-size="14.00">pub struct FakeClock { &#160;&#160;&#160;time_created: u64,}</text>
<polygon fill="white" stroke="none" points="9.5,-5 9.5,-42 338.5,-42 338.5,-5 9.5,-5"/>
<polygon fill="none" stroke="black" points="9.5,-5 9.5,-42 338.5,-42 338.5,-5 9.5,-5"/>
<text text-anchor="start" x="20.5" y="-19.8" font-family="Arial" font-size="14.00">&#45; time_created: u64</text>
<polygon fill="none" stroke="black" points="8,-4 8,-80 339,-80 339,-4 8,-4"/>
</a>
</g>
</g>
</g>
</svg>
