<?xml version="1.0" encoding="UTF-8" standalone="no"?>
<!DOCTYPE svg PUBLIC "-//W3C//DTD SVG 1.1//EN"
 "http://www.w3.org/Graphics/SVG/1.1/DTD/svg11.dtd">
<!-- Generated by graphviz version 2.38.0 (20140413.2041)
 -->
<!-- Title: ml Pages: 1 -->
<svg width="3503pt" height="138pt"
 viewBox="0.00 0.00 3502.50 138.00" xmlns="http://www.w3.org/2000/svg" xmlns:xlink="http://www.w3.org/1999/xlink">
<g id="graph0" class="graph" transform="scale(1 1) rotate(0) translate(4 134)">
<title>ml</title>
<polygon fill="white" stroke="none" points="-4,4 -4,-134 3498.5,-134 3498.5,4 -4,4"/>
<!-- ndOpaqueCtx -->
<g id="node1" class="node"><title>ndOpaqueCtx</title>
<g id="a_node1_0"><a xlink:href="https://github.com/maidsafe/sn_ffi_utils/blob/master/src/lib.rs#:~:text=struct%20OpaqueCtx" xlink:title="&lt;TABLE&gt;">
<polygon fill="lightblue" stroke="none" points="9,-87.5 9,-124.5 311,-124.5 311,-87.5 9,-87.5"/>
<polygon fill="none" stroke="black" points="9,-87.5 9,-124.5 311,-124.5 311,-87.5 9,-87.5"/>
<text text-anchor="start" x="20" y="-103.3" font-family="Arial" font-weight="bold" font-size="14.00">pub struct OpaqueCtx(pub *mut c_void);</text>
<polygon fill="none" stroke="black" points="8,-87 8,-126 312,-126 312,-87 8,-87"/>
</a>
</g>
</g>
<!-- ndErrorCode -->
<g id="node2" class="node"><title>ndErrorCode</title>
<g id="a_node2_1"><a xlink:href="https://github.com/maidsafe/sn_ffi_utils/blob/master/src/lib.rs#:~:text=trait%20ErrorCode" xlink:title="&lt;TABLE&gt;">
<polygon fill="lightgreen" stroke="none" points="347,-87.5 347,-124.5 443,-124.5 443,-87.5 347,-87.5"/>
<polygon fill="none" stroke="black" points="347,-87.5 347,-124.5 443,-124.5 443,-87.5 347,-87.5"/>
<text text-anchor="start" x="358" y="-103.3" font-family="Arial" font-weight="bold" font-size="14.00">ErrorCode</text>
<polygon fill="none" stroke="black" points="346,-87 346,-126 444,-126 444,-87 346,-87"/>
</a>
</g>
</g>
<!-- ndTestError -->
<g id="node12" class="node"><title>ndTestError</title>
<g id="a_node12_2"><a xlink:href="https://github.com/maidsafe/sn_ffi_utils/blob/master/src/test_utils.rs#:~:text=enum%20TestError" xlink:title="&lt;TABLE&gt;">
<polygon fill="yellow" stroke="none" points="351,-4.5 351,-41.5 440,-41.5 440,-4.5 351,-4.5"/>
<polygon fill="none" stroke="black" points="351,-4.5 351,-41.5 440,-41.5 440,-4.5 351,-4.5"/>
<text text-anchor="start" x="362" y="-20.3" font-family="Arial" font-weight="bold" font-size="14.00">TestError</text>
<polygon fill="none" stroke="black" points="349.5,-4 349.5,-43 440.5,-43 440.5,-4 349.5,-4"/>
</a>
</g>
</g>
<!-- ndErrorCode&#45;&gt;ndTestError -->
<g id="edge1" class="edge"><title>ndErrorCode&#45;&gt;ndTestError</title>
<path fill="none" stroke="black" stroke-dasharray="5,2" d="M395,-82.937C395,-75.0164 395,-65.9488 395,-57.3574"/>
<polygon fill="none" stroke="black" points="398.5,-57.2229 395,-47.2229 391.5,-57.223 398.5,-57.2229"/>
</g>
<!-- ndEnvGuard -->
<g id="node3" class="node"><title>ndEnvGuard</title>
<g id="a_node3_3"><a xlink:href="https://github.com/maidsafe/sn_ffi_utils/blob/master/src/java.rs#:~:text=enum%20EnvGuard" xlink:title="&lt;TABLE&gt;">
<polygon fill="yellow" stroke="none" points="480,-87.5 480,-124.5 573,-124.5 573,-87.5 480,-87.5"/>
<polygon fill="none" stroke="black" points="480,-87.5 480,-124.5 573,-124.5 573,-87.5 480,-87.5"/>
<text text-anchor="start" x="491" y="-103.3" font-family="Arial" font-weight="bold" font-size="14.00">EnvGuard</text>
<polygon fill="none" stroke="black" points="478.5,-87 478.5,-126 573.5,-126 573.5,-87 478.5,-87"/>
</a>
</g>
</g>
<!-- ndReprC -->
<g id="node4" class="node"><title>ndReprC</title>
<g id="a_node4_4"><a xlink:href="https://github.com/maidsafe/sn_ffi_utils/blob/master/src/repr_c.rs#:~:text=trait%20ReprC" xlink:title="&lt;TABLE&gt;">
<polygon fill="lightgreen" stroke="none" points="608,-87.5 608,-124.5 674,-124.5 674,-87.5 608,-87.5"/>
<polygon fill="none" stroke="black" points="608,-87.5 608,-124.5 674,-124.5 674,-87.5 608,-87.5"/>
<text text-anchor="start" x="619" y="-103.3" font-family="Arial" font-weight="bold" font-size="14.00">ReprC</text>
<polygon fill="none" stroke="black" points="607,-87 607,-126 675,-126 675,-87 607,-87"/>
</a>
</g>
</g>
<!-- ndNativeResult -->
<g id="node8" class="node"><title>ndNativeResult</title>
<text text-anchor="middle" x="1147" y="-19.8" font-family="Times,serif" font-size="14.00">ndNativeResult</text>
</g>
<!-- ndReprC&#45;&gt;ndNativeResult -->
<g id="edge2" class="edge"><title>ndReprC&#45;&gt;ndNativeResult</title>
<path fill="none" stroke="black" stroke-dasharray="5,2" d="M683.24,-85.7756C686.172,-84.7451 689.11,-83.8051 692,-83 829.637,-44.6586 997.811,-31.3261 1086.13,-26.7802"/>
<polygon fill="none" stroke="black" points="1086.43,-30.27 1096.24,-26.2805 1086.08,-23.2786 1086.43,-30.27"/>
</g>
<!-- ndCallback -->
<g id="node5" class="node"><title>ndCallback</title>
<g id="a_node5_5"><a xlink:href="https://github.com/maidsafe/sn_ffi_utils/blob/master/src/callback.rs#:~:text=trait%20Callback" xlink:title="&lt;TABLE&gt;">
<polygon fill="lightgreen" stroke="none" points="1758,-87.5 1758,-124.5 1841,-124.5 1841,-87.5 1758,-87.5"/>
<polygon fill="none" stroke="black" points="1758,-87.5 1758,-124.5 1841,-124.5 1841,-87.5 1758,-87.5"/>
<text text-anchor="start" x="1769" y="-103.3" font-family="Arial" font-weight="bold" font-size="14.00">Callback</text>
<polygon fill="none" stroke="black" points="1756.5,-87 1756.5,-126 1841.5,-126 1841.5,-87 1756.5,-87"/>
</a>
</g>
</g>
<!-- ndCallbackArgs -->
<g id="node6" class="node"><title>ndCallbackArgs</title>
<g id="a_node6_6"><a xlink:href="https://github.com/maidsafe/sn_ffi_utils/blob/master/src/callback.rs#:~:text=trait%20CallbackArgs" xlink:title="&lt;TABLE&gt;">
<polygon fill="lightgreen" stroke="none" points="1877,-87.5 1877,-124.5 1993,-124.5 1993,-87.5 1877,-87.5"/>
<polygon fill="none" stroke="black" points="1877,-87.5 1877,-124.5 1993,-124.5 1993,-87.5 1877,-87.5"/>
<text text-anchor="start" x="1888" y="-103.3" font-family="Arial" font-weight="bold" font-size="14.00">CallbackArgs</text>
<polygon fill="none" stroke="black" points="1876,-87 1876,-126 1994,-126 1994,-87 1876,-87"/>
</a>
</g>
</g>
<!-- ndSafePtr -->
<g id="node7" class="node"><title>ndSafePtr</title>
<g id="a_node7_7"><a xlink:href="https://github.com/maidsafe/sn_ffi_utils/blob/master/src/vec.rs#:~:text=trait%20SafePtr" xlink:title="&lt;TABLE&gt;">
<polygon fill="lightgreen" stroke="none" points="2029,-87.5 2029,-124.5 2103,-124.5 2103,-87.5 2029,-87.5"/>
<polygon fill="none" stroke="black" points="2029,-87.5 2029,-124.5 2103,-124.5 2103,-87.5 2029,-87.5"/>
<text text-anchor="start" x="2040" y="-103.3" font-family="Arial" font-weight="bold" font-size="14.00">SafePtr</text>
<polygon fill="none" stroke="black" points="2028,-87 2028,-126 2104,-126 2104,-87 2028,-87"/>
</a>
</g>
</g>
<!-- ndFfiResult -->
<g id="node9" class="node"><title>ndFfiResult</title>
<g id="a_node9_8"><a xlink:href="https://github.com/maidsafe/sn_ffi_utils/blob/master/src/result.rs#:~:text=struct%20FfiResult" xlink:title="&lt;TABLE&gt;">
<polygon fill="lightblue" stroke="none" points="710,-87.5 710,-124.5 1585,-124.5 1585,-87.5 710,-87.5"/>
<polygon fill="none" stroke="black" points="710,-87.5 710,-124.5 1585,-124.5 1585,-87.5 710,-87.5"/>
<text text-anchor="start" x="721" y="-103.3" font-family="Arial" font-weight="bold" font-size="14.00">pub struct FfiResult { &#160;&#160;&#160;/// Unique error code. &#160;&#160;&#160;pub error_code: i32, &#160;&#160;&#160;/// Error description. &#160;&#160;&#160;pub description: *const c_char,}</text>
<polygon fill="none" stroke="black" points="708.5,-87 708.5,-126 1585.5,-126 1585.5,-87 708.5,-87"/>
</a>
</g>
</g>
<!-- ndFfiResult&#45;&gt;ndNativeResult -->
<g id="edge3" class="edge"><title>ndFfiResult&#45;&gt;ndNativeResult</title>
<path fill="none" stroke="black" d="M1147,-82.937C1147,-73.2091 1147,-61.751 1147,-51.5698"/>
<polygon fill="black" stroke="black" points="1147,-41.5481 1151.5,-51.5481 1147,-46.5481 1147,-51.5481 1147,-51.5481 1147,-51.5481 1147,-46.5481 1142.5,-51.5482 1147,-41.5481 1147,-41.5481"/>
</g>
<!-- ndUserData -->
<g id="node10" class="node"><title>ndUserData</title>
<g id="a_node10_9"><a xlink:href="https://github.com/maidsafe/sn_ffi_utils/blob/master/src/test_utils.rs#:~:text=struct%20UserData" xlink:title="&lt;TABLE&gt;">
<polygon fill="lightblue" stroke="none" points="2140,-87.5 2140,-124.5 3363,-124.5 3363,-87.5 2140,-87.5"/>
<polygon fill="none" stroke="black" points="2140,-87.5 2140,-124.5 3363,-124.5 3363,-87.5 2140,-87.5"/>
<text text-anchor="start" x="2151" y="-103.3" font-family="Arial" font-weight="bold" font-size="14.00">pub struct UserData { &#160;&#160;&#160;/// Common field, used by standard callbacks. &#160;&#160;&#160;pub common: *mut c_void, &#160;&#160;&#160;/// Custom field, used by additional callbacks. &#160;&#160;&#160;pub custom: *mut c_void,}</text>
<polygon fill="none" stroke="black" points="2138.5,-87 2138.5,-126 3363.5,-126 3363.5,-87 2138.5,-87"/>
</a>
</g>
</g>
<!-- ndSendWrapper -->
<g id="node11" class="node"><title>ndSendWrapper</title>
<text text-anchor="middle" x="3442" y="-102.8" font-family="Times,serif" font-size="14.00">ndSendWrapper</text>
</g>
<!-- ndStringError -->
<g id="node13" class="node"><title>ndStringError</title>
<g id="a_node13_10"><a xlink:href="https://github.com/maidsafe/sn_ffi_utils/blob/master/src/string.rs#:~:text=enum%20StringError" xlink:title="&lt;TABLE&gt;">
<polygon fill="yellow" stroke="none" points="1621,-87.5 1621,-124.5 1722,-124.5 1722,-87.5 1621,-87.5"/>
<polygon fill="none" stroke="black" points="1621,-87.5 1621,-124.5 1722,-124.5 1722,-87.5 1621,-87.5"/>
<text text-anchor="start" x="1632" y="-103.3" font-family="Arial" font-weight="bold" font-size="14.00">StringError</text>
<polygon fill="none" stroke="black" points="1619.5,-87 1619.5,-126 1722.5,-126 1722.5,-87 1619.5,-87"/>
</a>
</g>
</g>
<!-- ndStringError&#45;&gt;ndNativeResult -->
<g id="edge4" class="edge"><title>ndStringError&#45;&gt;ndNativeResult</title>
<path fill="none" stroke="black" d="M1611.48,-85.0881C1608.63,-84.3359 1605.79,-83.6341 1603,-83 1463.56,-51.2967 1295.96,-35.3161 1207.9,-28.5789"/>
<polygon fill="black" stroke="black" points="1197.82,-27.8217 1208.13,-24.0836 1202.81,-28.1964 1207.8,-28.571 1207.8,-28.571 1207.8,-28.571 1202.81,-28.1964 1207.46,-33.0584 1197.82,-27.8217 1197.82,-27.8217"/>
</g>
</g>
</svg>
