<?xml version="1.0" encoding="UTF-8" standalone="no"?>
<!DOCTYPE svg PUBLIC "-//W3C//DTD SVG 1.1//EN"
 "http://www.w3.org/Graphics/SVG/1.1/DTD/svg11.dtd">
<!-- Generated by graphviz version 2.38.0 (20140413.2041)
 -->
<!-- Title: ml Pages: 1 -->
<svg width="1443pt" height="257pt"
 viewBox="0.00 0.00 1443.00 257.00" xmlns="http://www.w3.org/2000/svg" xmlns:xlink="http://www.w3.org/1999/xlink">
<g id="graph0" class="graph" transform="scale(1 1) rotate(0) translate(4 253)">
<title>ml</title>
<polygon fill="white" stroke="none" points="-4,4 -4,-253 1439,-253 1439,4 -4,4"/>
<!-- ndErrorCode -->
<g id="node1" class="node"><title>ndErrorCode</title>
<g id="a_node1_0"><a xlink:href="https://github.com/maidsafe/sn_ffi_utils/blob/master/src/lib.rs#:~:text=trait%20ErrorCode" xlink:title="&lt;TABLE&gt;">
<polygon fill="lightgreen" stroke="none" points="21,-173 21,-210 117,-210 117,-173 21,-173"/>
<polygon fill="none" stroke="black" points="21,-173 21,-210 117,-210 117,-173 21,-173"/>
<text text-anchor="start" x="32" y="-188.8" font-family="Arial" font-weight="bold" font-size="14.00">ErrorCode</text>
<polygon fill="none" stroke="black" points="20,-172.5 20,-211.5 118,-211.5 118,-172.5 20,-172.5"/>
</a>
</g>
</g>
<!-- ndTestError -->
<g id="node10" class="node"><title>ndTestError</title>
<g id="a_node10_1"><a xlink:href="https://github.com/maidsafe/sn_ffi_utils/blob/master/src/test_utils.rs#:~:text=enum%20TestError" xlink:title="&lt;TABLE&gt;">
<polygon fill="yellow" stroke="none" points="9,-56.5 9,-93.5 129,-93.5 129,-56.5 9,-56.5"/>
<polygon fill="none" stroke="black" points="9,-56.5 9,-93.5 129,-93.5 129,-56.5 9,-56.5"/>
<text text-anchor="start" x="35.5" y="-72.3" font-family="Arial" font-weight="bold" font-size="14.00">TestError</text>
<polygon fill="white" stroke="none" points="9,-4.5 9,-56.5 129,-56.5 129,-4.5 9,-4.5"/>
<polygon fill="none" stroke="black" points="9,-4.5 9,-56.5 129,-56.5 129,-4.5 9,-4.5"/>
<text text-anchor="start" x="20" y="-34.3" font-family="Arial" font-size="14.00">FromStr(String)</text>
<text text-anchor="start" x="20" y="-19.3" font-family="Arial" font-size="14.00">Test</text>
<polygon fill="none" stroke="black" points="8,-4 8,-95 130,-95 130,-4 8,-4"/>
</a>
</g>
</g>
<!-- ndErrorCode&#45;&gt;ndTestError -->
<g id="edge1" class="edge"><title>ndErrorCode&#45;&gt;ndTestError</title>
<path fill="none" stroke="black" stroke-dasharray="5,2" d="M69,-168.426C69,-152.427 69,-130.182 69,-109.319"/>
<polygon fill="none" stroke="black" points="72.5001,-109.221 69,-99.2212 65.5001,-109.221 72.5001,-109.221"/>
</g>
<!-- ndEnvGuard -->
<g id="node2" class="node"><title>ndEnvGuard</title>
<g id="a_node2_2"><a xlink:href="https://github.com/maidsafe/sn_ffi_utils/blob/master/src/java.rs#:~:text=enum%20EnvGuard" xlink:title="&lt;TABLE&gt;">
<polygon fill="yellow" stroke="none" points="153,-199 153,-236 335,-236 335,-199 153,-199"/>
<polygon fill="none" stroke="black" points="153,-199 153,-236 335,-236 335,-199 153,-199"/>
<text text-anchor="start" x="208.5" y="-214.8" font-family="Arial" font-weight="bold" font-size="14.00">EnvGuard</text>
<polygon fill="white" stroke="none" points="153,-147 153,-199 335,-199 335,-147 153,-147"/>
<polygon fill="none" stroke="black" points="153,-147 153,-199 335,-199 335,-147 153,-147"/>
<text text-anchor="start" x="164" y="-176.8" font-family="Arial" font-size="14.00">Auto(JNIEnv&lt;&#39;a&gt;)</text>
<text text-anchor="start" x="164" y="-161.8" font-family="Arial" font-size="14.00">Manual(AttachGuard&lt;&#39;a&gt;)</text>
<polygon fill="none" stroke="black" points="152,-146.5 152,-237.5 336,-237.5 336,-146.5 152,-146.5"/>
</a>
</g>
</g>
<!-- ndReprC -->
<g id="node3" class="node"><title>ndReprC</title>
<g id="a_node3_3"><a xlink:href="https://github.com/maidsafe/sn_ffi_utils/blob/master/src/repr_c.rs#:~:text=trait%20ReprC" xlink:title="&lt;TABLE&gt;">
<polygon fill="lightgreen" stroke="none" points="371,-173 371,-210 437,-210 437,-173 371,-173"/>
<polygon fill="none" stroke="black" points="371,-173 371,-210 437,-210 437,-173 371,-173"/>
<text text-anchor="start" x="382" y="-188.8" font-family="Arial" font-weight="bold" font-size="14.00">ReprC</text>
<polygon fill="none" stroke="black" points="370,-172.5 370,-211.5 438,-211.5 438,-172.5 370,-172.5"/>
</a>
</g>
</g>
<!-- ndNativeResult -->
<g id="node7" class="node"><title>ndNativeResult</title>
<g id="a_node7_4"><a xlink:href="https://github.com/maidsafe/sn_ffi_utils/blob/master/src/result.rs#:~:text=struct%20NativeResult" xlink:title="&lt;TABLE&gt;">
<polygon fill="lightblue" stroke="none" points="469,-56.5 469,-93.5 676,-93.5 676,-56.5 469,-56.5"/>
<polygon fill="none" stroke="black" points="469,-56.5 469,-93.5 676,-93.5 676,-56.5 469,-56.5"/>
<text text-anchor="start" x="529" y="-72.3" font-family="Arial" font-weight="bold" font-size="14.00">NativeResult</text>
<polygon fill="white" stroke="none" points="469,-4.5 469,-56.5 676,-56.5 676,-4.5 469,-4.5"/>
<polygon fill="none" stroke="black" points="469,-4.5 469,-56.5 676,-56.5 676,-4.5 469,-4.5"/>
<text text-anchor="start" x="480" y="-34.3" font-family="Arial" font-size="14.00">+ error_code: i32</text>
<text text-anchor="start" x="480" y="-19.3" font-family="Arial" font-size="14.00">+ description: Option&lt;String&gt;</text>
<polygon fill="none" stroke="black" points="467.5,-4 467.5,-95 676.5,-95 676.5,-4 467.5,-4"/>
</a>
</g>
</g>
<!-- ndReprC&#45;&gt;ndNativeResult -->
<g id="edge2" class="edge"><title>ndReprC&#45;&gt;ndNativeResult</title>
<path fill="none" stroke="black" stroke-dasharray="5,2" d="M422.628,-168.462C431.884,-157.824 443.523,-145.246 455,-135 466.346,-124.871 478.89,-114.794 491.426,-105.315"/>
<polygon fill="none" stroke="black" points="493.729,-107.963 499.65,-99.1768 489.542,-102.353 493.729,-107.963"/>
</g>
<!-- ndCallback -->
<g id="node4" class="node"><title>ndCallback</title>
<g id="a_node4_5"><a xlink:href="https://github.com/maidsafe/sn_ffi_utils/blob/master/src/callback.rs#:~:text=trait%20Callback" xlink:title="&lt;TABLE&gt;">
<polygon fill="lightgreen" stroke="none" points="873,-173 873,-210 956,-210 956,-173 873,-173"/>
<polygon fill="none" stroke="black" points="873,-173 873,-210 956,-210 956,-173 873,-173"/>
<text text-anchor="start" x="884" y="-188.8" font-family="Arial" font-weight="bold" font-size="14.00">Callback</text>
<polygon fill="none" stroke="black" points="871.5,-172.5 871.5,-211.5 956.5,-211.5 956.5,-172.5 871.5,-172.5"/>
</a>
</g>
</g>
<!-- ndCallbackArgs -->
<g id="node5" class="node"><title>ndCallbackArgs</title>
<g id="a_node5_6"><a xlink:href="https://github.com/maidsafe/sn_ffi_utils/blob/master/src/callback.rs#:~:text=trait%20CallbackArgs" xlink:title="&lt;TABLE&gt;">
<polygon fill="lightgreen" stroke="none" points="992,-173 992,-210 1108,-210 1108,-173 992,-173"/>
<polygon fill="none" stroke="black" points="992,-173 992,-210 1108,-210 1108,-173 992,-173"/>
<text text-anchor="start" x="1003" y="-188.8" font-family="Arial" font-weight="bold" font-size="14.00">CallbackArgs</text>
<polygon fill="none" stroke="black" points="991,-172.5 991,-211.5 1109,-211.5 1109,-172.5 991,-172.5"/>
</a>
</g>
</g>
<!-- ndSafePtr -->
<g id="node6" class="node"><title>ndSafePtr</title>
<g id="a_node6_7"><a xlink:href="https://github.com/maidsafe/sn_ffi_utils/blob/master/src/vec.rs#:~:text=trait%20SafePtr" xlink:title="&lt;TABLE&gt;">
<polygon fill="lightgreen" stroke="none" points="1144,-173 1144,-210 1218,-210 1218,-173 1144,-173"/>
<polygon fill="none" stroke="black" points="1144,-173 1144,-210 1218,-210 1218,-173 1144,-173"/>
<text text-anchor="start" x="1155" y="-188.8" font-family="Arial" font-weight="bold" font-size="14.00">SafePtr</text>
<polygon fill="none" stroke="black" points="1143,-172.5 1143,-211.5 1219,-211.5 1219,-172.5 1143,-172.5"/>
</a>
</g>
</g>
<!-- ndFfiResult -->
<g id="node8" class="node"><title>ndFfiResult</title>
<g id="a_node8_8"><a xlink:href="https://github.com/maidsafe/sn_ffi_utils/blob/master/src/result.rs#:~:text=struct%20FfiResult" xlink:title="&lt;TABLE&gt;">
<polygon fill="lightblue" stroke="none" points="473,-199 473,-236 671,-236 671,-199 473,-199"/>
<polygon fill="none" stroke="black" points="473,-199 473,-236 671,-236 671,-199 473,-199"/>
<text text-anchor="start" x="541.5" y="-214.8" font-family="Arial" font-weight="bold" font-size="14.00">FfiResult</text>
<polygon fill="white" stroke="none" points="473,-147 473,-199 671,-199 671,-147 473,-147"/>
<polygon fill="none" stroke="black" points="473,-147 473,-199 671,-199 671,-147 473,-147"/>
<text text-anchor="start" x="484" y="-176.8" font-family="Arial" font-size="14.00">+ error_code: i32</text>
<text text-anchor="start" x="484" y="-161.8" font-family="Arial" font-size="14.00">+ description: *const c_char</text>
<polygon fill="none" stroke="black" points="472,-146.5 472,-237.5 672,-237.5 672,-146.5 472,-146.5"/>
</a>
</g>
</g>
<!-- ndFfiResult&#45;&gt;ndNativeResult -->
<g id="edge3" class="edge"><title>ndFfiResult&#45;&gt;ndNativeResult</title>
<path fill="none" stroke="black" d="M572,-142.254C572,-131.683 572,-120.393 572,-109.476"/>
<polygon fill="black" stroke="black" points="572,-99.1596 576.5,-109.16 572,-104.16 572,-109.16 572,-109.16 572,-109.16 572,-104.16 567.5,-109.16 572,-99.1596 572,-99.1596"/>
</g>
<!-- ndUserData -->
<g id="node9" class="node"><title>ndUserData</title>
<g id="a_node9_9"><a xlink:href="https://github.com/maidsafe/sn_ffi_utils/blob/master/src/test_utils.rs#:~:text=struct%20UserData" xlink:title="&lt;TABLE&gt;">
<polygon fill="lightblue" stroke="none" points="1254,-199 1254,-236 1426,-236 1426,-199 1254,-199"/>
<polygon fill="none" stroke="black" points="1254,-199 1254,-236 1426,-236 1426,-199 1254,-199"/>
<text text-anchor="start" x="1308" y="-214.8" font-family="Arial" font-weight="bold" font-size="14.00">UserData</text>
<polygon fill="white" stroke="none" points="1254,-147 1254,-199 1426,-199 1426,-147 1254,-147"/>
<polygon fill="none" stroke="black" points="1254,-147 1254,-199 1426,-199 1426,-147 1254,-147"/>
<text text-anchor="start" x="1265" y="-176.8" font-family="Arial" font-size="14.00">+ common: *mut c_void</text>
<text text-anchor="start" x="1265" y="-161.8" font-family="Arial" font-size="14.00">+ custom: *mut c_void</text>
<polygon fill="none" stroke="black" points="1253,-146.5 1253,-237.5 1427,-237.5 1427,-146.5 1253,-146.5"/>
</a>
</g>
</g>
<!-- ndStringError -->
<g id="node11" class="node"><title>ndStringError</title>
<g id="a_node11_10"><a xlink:href="https://github.com/maidsafe/sn_ffi_utils/blob/master/src/string.rs#:~:text=enum%20StringError" xlink:title="&lt;TABLE&gt;">
<polygon fill="yellow" stroke="none" points="708,-207 708,-244 837,-244 837,-207 708,-207"/>
<polygon fill="none" stroke="black" points="708,-207 708,-244 837,-244 837,-207 708,-207"/>
<text text-anchor="start" x="733" y="-222.8" font-family="Arial" font-weight="bold" font-size="14.00">StringError</text>
<polygon fill="white" stroke="none" points="708,-140 708,-207 837,-207 837,-140 708,-140"/>
<polygon fill="none" stroke="black" points="708,-140 708,-207 837,-207 837,-140 708,-140"/>
<text text-anchor="start" x="719" y="-184.8" font-family="Arial" font-size="14.00">Utf8(String)</text>
<text text-anchor="start" x="719" y="-169.8" font-family="Arial" font-size="14.00">Null(String)</text>
<text text-anchor="start" x="719" y="-154.8" font-family="Arial" font-size="14.00">IntoString(String)</text>
<polygon fill="none" stroke="black" points="706.5,-139 706.5,-245 837.5,-245 837.5,-139 706.5,-139"/>
</a>
</g>
</g>
<!-- ndStringError&#45;&gt;ndNativeResult -->
<g id="edge4" class="edge"><title>ndStringError&#45;&gt;ndNativeResult</title>
<path fill="none" stroke="black" d="M698.379,-139.282C682.445,-128.088 665.548,-116.218 649.471,-104.924"/>
<polygon fill="black" stroke="black" points="641.148,-99.0765 651.918,-101.143 645.239,-101.951 649.331,-104.825 649.331,-104.825 649.331,-104.825 645.239,-101.951 646.744,-108.507 641.148,-99.0765 641.148,-99.0765"/>
</g>
</g>
</svg>
