<?xml version="1.0" encoding="UTF-8" standalone="no"?>
<!DOCTYPE svg PUBLIC "-//W3C//DTD SVG 1.1//EN"
 "http://www.w3.org/Graphics/SVG/1.1/DTD/svg11.dtd">
<!-- Generated by graphviz version 2.38.0 (20140413.2041)
 -->
<!-- Title: ml Pages: 1 -->
<svg width="2633pt" height="391pt"
 viewBox="0.00 0.00 2633.00 391.00" xmlns="http://www.w3.org/2000/svg" xmlns:xlink="http://www.w3.org/1999/xlink">
<g id="graph0" class="graph" transform="scale(1 1) rotate(0) translate(4 387)">
<title>ml</title>
<polygon fill="white" stroke="none" points="-4,4 -4,-387 2629,-387 2629,4 -4,4"/>
<!-- ndOpaqueCtx -->
<g id="node1" class="node"><title>ndOpaqueCtx</title>
<g id="a_node1_0"><a xlink:href="https://github.com/maidsafe/sn_ffi_utils/blob/master/src/lib.rs#:~:text=struct%20OpaqueCtx" xlink:title="&lt;TABLE&gt;">
<polygon fill="lightblue" stroke="none" points="9,-318.5 9,-355.5 189,-355.5 189,-318.5 9,-318.5"/>
<polygon fill="none" stroke="black" points="9,-318.5 9,-355.5 189,-355.5 189,-318.5 9,-318.5"/>
<text text-anchor="start" x="59.5" y="-334.3" font-family="Arial" font-weight="bold" font-size="14.00">OpaqueCtx</text>
<polygon fill="white" stroke="none" points="9,-281.5 9,-318.5 189,-318.5 189,-281.5 9,-281.5"/>
<polygon fill="none" stroke="black" points="9,-281.5 9,-318.5 189,-318.5 189,-281.5 9,-281.5"/>
<text text-anchor="start" x="20" y="-296.3" font-family="Arial" font-size="14.00">+ *mut c_void</text>
<polygon fill="white" stroke="none" points="9,-228.5 9,-281.5 189,-281.5 189,-228.5 9,-228.5"/>
<polygon fill="none" stroke="black" points="9,-228.5 9,-281.5 189,-281.5 189,-228.5 9,-228.5"/>
<text text-anchor="start" x="20" y="-244.3" font-family="Arial" font-size="14.00">&#45; into(self) &#45;&gt; *mut c_void</text>
<polygon fill="none" stroke="black" points="8,-228 8,-357 190,-357 190,-228 8,-228"/>
</a>
</g>
</g>
<!-- ndErrorCode -->
<g id="node2" class="node"><title>ndErrorCode</title>
<g id="a_node2_1"><a xlink:href="https://github.com/maidsafe/sn_ffi_utils/blob/master/src/lib.rs#:~:text=trait%20ErrorCode" xlink:title="&lt;TABLE&gt;">
<polygon fill="lightgreen" stroke="none" points="226,-292.5 226,-329.5 403,-329.5 403,-292.5 226,-292.5"/>
<polygon fill="none" stroke="black" points="226,-292.5 226,-329.5 403,-329.5 403,-292.5 226,-292.5"/>
<text text-anchor="start" x="277.5" y="-308.3" font-family="Arial" font-weight="bold" font-size="14.00">ErrorCode</text>
<polygon fill="white" stroke="none" points="226,-255.5 226,-292.5 403,-292.5 403,-255.5 226,-255.5"/>
<polygon fill="none" stroke="black" points="226,-255.5 226,-292.5 403,-292.5 403,-255.5 226,-255.5"/>
<text text-anchor="start" x="237" y="-270.3" font-family="Arial" font-size="14.00">error_code(&amp;Self) &#45;&gt; i32</text>
<polygon fill="none" stroke="black" points="224.5,-254.5 224.5,-330.5 403.5,-330.5 403.5,-254.5 224.5,-254.5"/>
</a>
</g>
</g>
<!-- ndTestError -->
<g id="node12" class="node"><title>ndTestError</title>
<g id="a_node12_2"><a xlink:href="https://github.com/maidsafe/sn_ffi_utils/blob/master/src/test_utils.rs#:~:text=enum%20TestError" xlink:title="&lt;TABLE&gt;">
<polygon fill="yellow" stroke="none" points="151,-124 151,-161 478,-161 478,-124 151,-124"/>
<polygon fill="none" stroke="black" points="151,-124 151,-161 478,-161 478,-124 151,-124"/>
<text text-anchor="start" x="281" y="-139.8" font-family="Arial" font-weight="bold" font-size="14.00">TestError</text>
<polygon fill="white" stroke="none" points="151,-72 151,-124 478,-124 478,-72 151,-72"/>
<polygon fill="none" stroke="black" points="151,-72 151,-124 478,-124 478,-72 151,-72"/>
<text text-anchor="start" x="162" y="-101.8" font-family="Arial" font-size="14.00">FromStr(String)</text>
<text text-anchor="start" x="162" y="-86.8" font-family="Arial" font-size="14.00">Test</text>
<polygon fill="white" stroke="none" points="151,-5 151,-72 478,-72 478,-5 151,-5"/>
<polygon fill="none" stroke="black" points="151,-5 151,-72 478,-72 478,-5 151,-5"/>
<text text-anchor="start" x="162" y="-49.8" font-family="Arial" font-size="14.00">&#45; from(s: &amp;&#39;a str) &#45;&gt; Self</text>
<text text-anchor="start" x="162" y="-34.8" font-family="Arial" font-size="14.00">&#45; error_code(&amp;self) &#45;&gt; i32</text>
<text text-anchor="start" x="162" y="-19.8" font-family="Arial" font-size="14.00">&#45; fmt(&amp;self, f: &amp;mut fmt::Formatter) &#45;&gt; fmt::Result</text>
<polygon fill="none" stroke="black" points="149.5,-4 149.5,-162 478.5,-162 478.5,-4 149.5,-4"/>
</a>
</g>
</g>
<!-- ndErrorCode&#45;&gt;ndTestError -->
<g id="edge1" class="edge"><title>ndErrorCode&#45;&gt;ndTestError</title>
<path fill="none" stroke="black" stroke-dasharray="5,2" d="M314,-250.008C314,-228.813 314,-202.117 314,-176.367"/>
<polygon fill="none" stroke="black" points="317.5,-176.178 314,-166.178 310.5,-176.178 317.5,-176.178"/>
</g>
<!-- ndEnvGuard -->
<g id="node3" class="node"><title>ndEnvGuard</title>
<g id="a_node3_3"><a xlink:href="https://github.com/maidsafe/sn_ffi_utils/blob/master/src/java.rs#:~:text=enum%20EnvGuard" xlink:title="&lt;TABLE&gt;">
<polygon fill="yellow" stroke="none" points="439,-325.5 439,-362.5 784,-362.5 784,-325.5 439,-325.5"/>
<polygon fill="none" stroke="black" points="439,-325.5 439,-362.5 784,-362.5 784,-325.5 439,-325.5"/>
<text text-anchor="start" x="576" y="-341.3" font-family="Arial" font-weight="bold" font-size="14.00">EnvGuard</text>
<polygon fill="white" stroke="none" points="439,-273.5 439,-325.5 784,-325.5 784,-273.5 439,-273.5"/>
<polygon fill="none" stroke="black" points="439,-273.5 439,-325.5 784,-325.5 784,-273.5 439,-273.5"/>
<text text-anchor="start" x="450" y="-303.3" font-family="Arial" font-size="14.00">Auto(JNIEnv&lt;&#39;a&gt;)</text>
<text text-anchor="start" x="450" y="-288.3" font-family="Arial" font-size="14.00">Manual(AttachGuard&lt;&#39;a&gt;)</text>
<polygon fill="white" stroke="none" points="439,-221.5 439,-273.5 784,-273.5 784,-221.5 439,-221.5"/>
<polygon fill="none" stroke="black" points="439,-221.5 439,-273.5 784,-273.5 784,-221.5 439,-221.5"/>
<text text-anchor="start" x="450" y="-251.3" font-family="Arial" font-size="14.00">&#45; new(vm: Option&lt;&amp;&#39;a JavaVM&gt;) &#45;&gt; JniResult&lt;Self&gt;</text>
<text text-anchor="start" x="450" y="-236.3" font-family="Arial" font-size="14.00">&#45; env(&amp;self) &#45;&gt; &amp;JNIEnv</text>
<polygon fill="none" stroke="black" points="437.5,-221 437.5,-364 784.5,-364 784.5,-221 437.5,-221"/>
</a>
</g>
</g>
<!-- ndReprC -->
<g id="node4" class="node"><title>ndReprC</title>
<g id="a_node4_4"><a xlink:href="https://github.com/maidsafe/sn_ffi_utils/blob/master/src/repr_c.rs#:~:text=trait%20ReprC" xlink:title="&lt;TABLE&gt;">
<polygon fill="lightgreen" stroke="none" points="820,-292.5 820,-329.5 1191,-329.5 1191,-292.5 820,-292.5"/>
<polygon fill="none" stroke="black" points="820,-292.5 820,-329.5 1191,-329.5 1191,-292.5 820,-292.5"/>
<text text-anchor="start" x="983.5" y="-308.3" font-family="Arial" font-weight="bold" font-size="14.00">ReprC</text>
<polygon fill="white" stroke="none" points="820,-255.5 820,-292.5 1191,-292.5 1191,-255.5 820,-255.5"/>
<polygon fill="none" stroke="black" points="820,-255.5 820,-292.5 1191,-292.5 1191,-255.5 820,-255.5"/>
<text text-anchor="start" x="831" y="-270.3" font-family="Arial" font-size="14.00">clone_from_repr_c(Self::C) &#45;&gt; Result&lt;Self, Self::Error&gt;</text>
<polygon fill="none" stroke="black" points="818.5,-254.5 818.5,-330.5 1191.5,-330.5 1191.5,-254.5 818.5,-254.5"/>
</a>
</g>
</g>
<!-- ndNativeResult -->
<g id="node8" class="node"><title>ndNativeResult</title>
<g id="a_node8_5"><a xlink:href="https://github.com/maidsafe/sn_ffi_utils/blob/master/src/result.rs#:~:text=struct%20NativeResult" xlink:title="&lt;TABLE&gt;">
<polygon fill="lightblue" stroke="none" points="1112,-116 1112,-153 1540,-153 1540,-116 1112,-116"/>
<polygon fill="none" stroke="black" points="1112,-116 1112,-153 1540,-153 1540,-116 1112,-116"/>
<text text-anchor="start" x="1282.5" y="-131.8" font-family="Arial" font-weight="bold" font-size="14.00">NativeResult</text>
<polygon fill="white" stroke="none" points="1112,-64 1112,-116 1540,-116 1540,-64 1112,-64"/>
<polygon fill="none" stroke="black" points="1112,-64 1112,-116 1540,-116 1540,-64 1112,-64"/>
<text text-anchor="start" x="1123" y="-93.8" font-family="Arial" font-size="14.00">+ error_code: i32</text>
<text text-anchor="start" x="1123" y="-78.8" font-family="Arial" font-size="14.00">+ description: Option&lt;String&gt;</text>
<polygon fill="white" stroke="none" points="1112,-12 1112,-64 1540,-64 1540,-12 1112,-12"/>
<polygon fill="none" stroke="black" points="1112,-12 1112,-64 1540,-64 1540,-12 1112,-12"/>
<text text-anchor="start" x="1123" y="-41.8" font-family="Arial" font-size="14.00">&#45; into_repr_c(self) &#45;&gt; Result&lt;FfiResult, StringError&gt;</text>
<text text-anchor="start" x="1123" y="-26.8" font-family="Arial" font-size="14.00">&#45; clone_from_repr_c(repr_c: Self::C) &#45;&gt; Result&lt;Self, Self::Error&gt;</text>
<polygon fill="none" stroke="black" points="1111,-11.5 1111,-154.5 1541,-154.5 1541,-11.5 1111,-11.5"/>
</a>
</g>
</g>
<!-- ndReprC&#45;&gt;ndNativeResult -->
<g id="edge2" class="edge"><title>ndReprC&#45;&gt;ndNativeResult</title>
<path fill="none" stroke="black" stroke-dasharray="5,2" d="M1068.8,-250.257C1106.93,-225.611 1156.66,-193.464 1202.22,-164.013"/>
<polygon fill="none" stroke="black" points="1204.18,-166.916 1210.68,-158.548 1200.38,-161.037 1204.18,-166.916"/>
</g>
<!-- ndCallback -->
<g id="node5" class="node"><title>ndCallback</title>
<g id="a_node5_6"><a xlink:href="https://github.com/maidsafe/sn_ffi_utils/blob/master/src/callback.rs#:~:text=trait%20Callback" xlink:title="&lt;TABLE&gt;">
<polygon fill="lightgreen" stroke="none" points="1721,-292.5 1721,-329.5 1804,-329.5 1804,-292.5 1721,-292.5"/>
<polygon fill="none" stroke="black" points="1721,-292.5 1721,-329.5 1804,-329.5 1804,-292.5 1721,-292.5"/>
<text text-anchor="start" x="1732" y="-308.3" font-family="Arial" font-weight="bold" font-size="14.00">Callback</text>
<polygon fill="white" stroke="none" points="1721,-254.5 1721,-292.5 1804,-292.5 1804,-254.5 1721,-254.5"/>
<polygon fill="none" stroke="black" points="1721,-254.5 1721,-292.5 1804,-292.5 1804,-254.5 1721,-254.5"/>
<polygon fill="none" stroke="black" points="1719.5,-254 1719.5,-331 1804.5,-331 1804.5,-254 1719.5,-254"/>
</a>
</g>
</g>
<!-- ndCallbackArgs -->
<g id="node6" class="node"><title>ndCallbackArgs</title>
<g id="a_node6_7"><a xlink:href="https://github.com/maidsafe/sn_ffi_utils/blob/master/src/callback.rs#:~:text=trait%20CallbackArgs" xlink:title="&lt;TABLE&gt;">
<polygon fill="lightgreen" stroke="none" points="1840,-292.5 1840,-329.5 1960,-329.5 1960,-292.5 1840,-292.5"/>
<polygon fill="none" stroke="black" points="1840,-292.5 1840,-329.5 1960,-329.5 1960,-292.5 1840,-292.5"/>
<text text-anchor="start" x="1853" y="-308.3" font-family="Arial" font-weight="bold" font-size="14.00">CallbackArgs</text>
<polygon fill="white" stroke="none" points="1840,-255.5 1840,-292.5 1960,-292.5 1960,-255.5 1840,-255.5"/>
<polygon fill="none" stroke="black" points="1840,-255.5 1840,-292.5 1960,-292.5 1960,-255.5 1840,-255.5"/>
<text text-anchor="start" x="1851" y="-270.3" font-family="Arial" font-size="14.00">default() &#45;&gt; Self</text>
<polygon fill="none" stroke="black" points="1839,-254.5 1839,-330.5 1961,-330.5 1961,-254.5 1839,-254.5"/>
</a>
</g>
</g>
<!-- ndSafePtr -->
<g id="node7" class="node"><title>ndSafePtr</title>
<g id="a_node7_8"><a xlink:href="https://github.com/maidsafe/sn_ffi_utils/blob/master/src/vec.rs#:~:text=trait%20SafePtr" xlink:title="&lt;TABLE&gt;">
<polygon fill="lightgreen" stroke="none" points="1997,-292.5 1997,-329.5 2254,-329.5 2254,-292.5 1997,-292.5"/>
<polygon fill="none" stroke="black" points="1997,-292.5 1997,-329.5 2254,-329.5 2254,-292.5 1997,-292.5"/>
<text text-anchor="start" x="2099.5" y="-308.3" font-family="Arial" font-weight="bold" font-size="14.00">SafePtr</text>
<polygon fill="white" stroke="none" points="1997,-255.5 1997,-292.5 2254,-292.5 2254,-255.5 1997,-255.5"/>
<polygon fill="none" stroke="black" points="1997,-255.5 1997,-292.5 2254,-292.5 2254,-255.5 1997,-255.5"/>
<text text-anchor="start" x="2008" y="-270.3" font-family="Arial" font-size="14.00">as_safe_ptr(&amp;Self) &#45;&gt; *const Self::Ptr</text>
<polygon fill="none" stroke="black" points="1995.5,-254.5 1995.5,-330.5 2254.5,-330.5 2254.5,-254.5 1995.5,-254.5"/>
</a>
</g>
</g>
<!-- ndFfiResult -->
<g id="node9" class="node"><title>ndFfiResult</title>
<g id="a_node9_9"><a xlink:href="https://github.com/maidsafe/sn_ffi_utils/blob/master/src/result.rs#:~:text=struct%20FfiResult" xlink:title="&lt;TABLE&gt;">
<polygon fill="lightblue" stroke="none" points="1227,-318.5 1227,-355.5 1425,-355.5 1425,-318.5 1227,-318.5"/>
<polygon fill="none" stroke="black" points="1227,-318.5 1227,-355.5 1425,-355.5 1425,-318.5 1227,-318.5"/>
<text text-anchor="start" x="1295.5" y="-334.3" font-family="Arial" font-weight="bold" font-size="14.00">FfiResult</text>
<polygon fill="white" stroke="none" points="1227,-266.5 1227,-318.5 1425,-318.5 1425,-266.5 1227,-266.5"/>
<polygon fill="none" stroke="black" points="1227,-266.5 1227,-318.5 1425,-318.5 1425,-266.5 1227,-266.5"/>
<text text-anchor="start" x="1238" y="-296.3" font-family="Arial" font-size="14.00">+ error_code: i32</text>
<text text-anchor="start" x="1238" y="-281.3" font-family="Arial" font-size="14.00">+ description: *const c_char</text>
<polygon fill="white" stroke="none" points="1227,-229.5 1227,-266.5 1425,-266.5 1425,-229.5 1227,-229.5"/>
<polygon fill="none" stroke="black" points="1227,-229.5 1227,-266.5 1425,-266.5 1425,-229.5 1227,-229.5"/>
<text text-anchor="start" x="1238" y="-244.3" font-family="Arial" font-size="14.00">&#45; drop(&amp;mut self)</text>
<polygon fill="none" stroke="black" points="1226,-228.5 1226,-356.5 1426,-356.5 1426,-228.5 1226,-228.5"/>
</a>
</g>
</g>
<!-- ndFfiResult&#45;&gt;ndNativeResult -->
<g id="edge3" class="edge"><title>ndFfiResult&#45;&gt;ndNativeResult</title>
<path fill="none" stroke="black" d="M1326,-224.417C1326,-206.734 1326,-187.42 1326,-168.931"/>
<polygon fill="black" stroke="black" points="1326,-158.759 1330.5,-168.759 1326,-163.759 1326,-168.759 1326,-168.759 1326,-168.759 1326,-163.759 1321.5,-168.759 1326,-158.759 1326,-158.759"/>
</g>
<!-- ndUserData -->
<g id="node10" class="node"><title>ndUserData</title>
<g id="a_node10_10"><a xlink:href="https://github.com/maidsafe/sn_ffi_utils/blob/master/src/test_utils.rs#:~:text=struct%20UserData" xlink:title="&lt;TABLE&gt;">
<polygon fill="lightblue" stroke="none" points="2290,-318.5 2290,-355.5 2462,-355.5 2462,-318.5 2290,-318.5"/>
<polygon fill="none" stroke="black" points="2290,-318.5 2290,-355.5 2462,-355.5 2462,-318.5 2290,-318.5"/>
<text text-anchor="start" x="2344" y="-334.3" font-family="Arial" font-weight="bold" font-size="14.00">UserData</text>
<polygon fill="white" stroke="none" points="2290,-266.5 2290,-318.5 2462,-318.5 2462,-266.5 2290,-266.5"/>
<polygon fill="none" stroke="black" points="2290,-266.5 2290,-318.5 2462,-318.5 2462,-266.5 2290,-266.5"/>
<text text-anchor="start" x="2301" y="-296.3" font-family="Arial" font-size="14.00">+ common: *mut c_void</text>
<text text-anchor="start" x="2301" y="-281.3" font-family="Arial" font-size="14.00">+ custom: *mut c_void</text>
<polygon fill="white" stroke="none" points="2290,-229.5 2290,-266.5 2462,-266.5 2462,-229.5 2290,-229.5"/>
<polygon fill="none" stroke="black" points="2290,-229.5 2290,-266.5 2462,-266.5 2462,-229.5 2290,-229.5"/>
<text text-anchor="start" x="2301" y="-244.3" font-family="Arial" font-size="14.00">&#45; default() &#45;&gt; Self</text>
<polygon fill="none" stroke="black" points="2289,-228.5 2289,-356.5 2463,-356.5 2463,-228.5 2289,-228.5"/>
</a>
</g>
</g>
<!-- ndSendWrapper -->
<g id="node11" class="node"><title>ndSendWrapper</title>
<g id="a_node11_11"><a xlink:href="https://github.com/maidsafe/sn_ffi_utils/blob/master/src/test_utils.rs#:~:text=struct%20SendWrapper" xlink:title="&lt;TABLE&gt;">
<polygon fill="lightblue" stroke="none" points="2498,-311.5 2498,-348.5 2616,-348.5 2616,-311.5 2498,-311.5"/>
<polygon fill="none" stroke="black" points="2498,-311.5 2498,-348.5 2616,-348.5 2616,-311.5 2498,-311.5"/>
<text text-anchor="start" x="2509" y="-327.3" font-family="Arial" font-weight="bold" font-size="14.00">SendWrapper</text>
<polygon fill="white" stroke="none" points="2498,-274.5 2498,-311.5 2616,-311.5 2616,-274.5 2498,-274.5"/>
<polygon fill="none" stroke="black" points="2498,-274.5 2498,-311.5 2616,-311.5 2616,-274.5 2498,-274.5"/>
<text text-anchor="start" x="2509" y="-289.3" font-family="Arial" font-size="14.00">+ T</text>
<polygon fill="white" stroke="none" points="2498,-236.5 2498,-274.5 2616,-274.5 2616,-236.5 2498,-236.5"/>
<polygon fill="none" stroke="black" points="2498,-236.5 2498,-274.5 2616,-274.5 2616,-236.5 2498,-236.5"/>
<polygon fill="none" stroke="black" points="2497,-235.5 2497,-349.5 2617,-349.5 2617,-235.5 2497,-235.5"/>
</a>
</g>
</g>
<!-- ndStringError -->
<g id="node13" class="node"><title>ndStringError</title>
<g id="a_node13_12"><a xlink:href="https://github.com/maidsafe/sn_ffi_utils/blob/master/src/string.rs#:~:text=enum%20StringError" xlink:title="&lt;TABLE&gt;">
<polygon fill="yellow" stroke="none" points="1462,-340.5 1462,-377.5 1685,-377.5 1685,-340.5 1462,-340.5"/>
<polygon fill="none" stroke="black" points="1462,-340.5 1462,-377.5 1685,-377.5 1685,-340.5 1462,-340.5"/>
<text text-anchor="start" x="1534" y="-356.3" font-family="Arial" font-weight="bold" font-size="14.00">StringError</text>
<polygon fill="white" stroke="none" points="1462,-273.5 1462,-340.5 1685,-340.5 1685,-273.5 1462,-273.5"/>
<polygon fill="none" stroke="black" points="1462,-273.5 1462,-340.5 1685,-340.5 1685,-273.5 1462,-273.5"/>
<text text-anchor="start" x="1473" y="-318.3" font-family="Arial" font-size="14.00">Utf8(String)</text>
<text text-anchor="start" x="1473" y="-303.3" font-family="Arial" font-size="14.00">Null(String)</text>
<text text-anchor="start" x="1473" y="-288.3" font-family="Arial" font-size="14.00">IntoString(String)</text>
<polygon fill="white" stroke="none" points="1462,-206.5 1462,-273.5 1685,-273.5 1685,-206.5 1462,-206.5"/>
<polygon fill="none" stroke="black" points="1462,-206.5 1462,-273.5 1685,-273.5 1685,-206.5 1462,-206.5"/>
<text text-anchor="start" x="1473" y="-251.3" font-family="Arial" font-size="14.00">&#45; from(e: Utf8Error) &#45;&gt; Self</text>
<text text-anchor="start" x="1473" y="-236.3" font-family="Arial" font-size="14.00">&#45; from(e: NulError) &#45;&gt; Self</text>
<text text-anchor="start" x="1473" y="-221.3" font-family="Arial" font-size="14.00">&#45; from(e: IntoStringError) &#45;&gt; Self</text>
<polygon fill="none" stroke="black" points="1460.5,-206 1460.5,-379 1685.5,-379 1685.5,-206 1460.5,-206"/>
</a>
</g>
</g>
<!-- ndStringError&#45;&gt;ndNativeResult -->
<g id="edge4" class="edge"><title>ndStringError&#45;&gt;ndNativeResult</title>
<path fill="none" stroke="black" d="M1466.46,-201.996C1451.92,-189.779 1437.05,-177.294 1422.7,-165.236"/>
<polygon fill="black" stroke="black" points="1414.78,-158.585 1425.33,-161.572 1418.61,-161.801 1422.44,-165.017 1422.44,-165.017 1422.44,-165.017 1418.61,-161.801 1419.55,-168.463 1414.78,-158.585 1414.78,-158.585"/>
</g>
</g>
</svg>
