<?xml version="1.0" encoding="UTF-8" standalone="no"?>
<!DOCTYPE svg PUBLIC "-//W3C//DTD SVG 1.1//EN"
 "http://www.w3.org/Graphics/SVG/1.1/DTD/svg11.dtd">
<!-- Generated by graphviz version 2.38.0 (20140413.2041)
 -->
<!-- Title: ml Pages: 1 -->
<svg width="1132pt" height="932pt"
 viewBox="0.00 0.00 1132.40 932.00" xmlns="http://www.w3.org/2000/svg" xmlns:xlink="http://www.w3.org/1999/xlink">
<g id="graph0" class="graph" transform="scale(1 1) rotate(0) translate(4 928)">
<title>ml</title>
<polygon fill="white" stroke="none" points="-4,4 -4,-928 1128.4,-928 1128.4,4 -4,4"/>
<!-- ndFsInodePosix -->
<g id="node1" class="node"><title>ndFsInodePosix</title>
<polygon fill="lightblue" stroke="none" points="125.901,-821.5 125.901,-858.5 243.901,-858.5 243.901,-821.5 125.901,-821.5"/>
<polygon fill="none" stroke="black" points="125.901,-821.5 125.901,-858.5 243.901,-858.5 243.901,-821.5 125.901,-821.5"/>
<text text-anchor="start" x="136.901" y="-837.3" font-family="Arial" font-weight="bold" font-size="14.00">FsInodePosix</text>
<polygon fill="white" stroke="none" points="125.901,-739.5 125.901,-821.5 243.901,-821.5 243.901,-739.5 125.901,-739.5"/>
<polygon fill="none" stroke="black" points="125.901,-739.5 125.901,-821.5 243.901,-821.5 243.901,-739.5 125.901,-739.5"/>
<text text-anchor="start" x="136.901" y="-799.3" font-family="Arial" font-size="14.00">+ perm: u16</text>
<text text-anchor="start" x="136.901" y="-784.3" font-family="Arial" font-size="14.00">+ uid: u32</text>
<text text-anchor="start" x="136.901" y="-769.3" font-family="Arial" font-size="14.00">+ gid: u32</text>
<text text-anchor="start" x="136.901" y="-754.3" font-family="Arial" font-size="14.00">+ flags: u32</text>
<polygon fill="none" stroke="black" points="124.901,-739 124.901,-860 244.901,-860 244.901,-739 124.901,-739"/>
</g>
<!-- ndFsInodeOs -->
<g id="node3" class="node"><title>ndFsInodeOs</title>
<polygon fill="yellow" stroke="none" points="323.901,-597 323.901,-634 525.901,-634 525.901,-597 323.901,-597"/>
<polygon fill="none" stroke="black" points="323.901,-597 323.901,-634 525.901,-634 525.901,-597 323.901,-597"/>
<text text-anchor="start" x="386.901" y="-612.8" font-family="Arial" font-weight="bold" font-size="14.00">FsInodeOs</text>
<polygon fill="white" stroke="none" points="323.901,-530 323.901,-597 525.901,-597 525.901,-530 323.901,-530"/>
<polygon fill="none" stroke="black" points="323.901,-530 323.901,-597 525.901,-597 525.901,-530 323.901,-530"/>
<text text-anchor="start" x="334.901" y="-574.8" font-family="Arial" font-size="14.00">Posix(FsInodePosix)</text>
<text text-anchor="start" x="334.901" y="-559.8" font-family="Arial" font-size="14.00">Windows(FsInodeWindows)</text>
<text text-anchor="start" x="334.901" y="-544.8" font-family="Arial" font-size="14.00">Empty</text>
<polygon fill="none" stroke="black" points="322.901,-529 322.901,-635 526.901,-635 526.901,-529 322.901,-529"/>
</g>
<!-- ndFsInodePosix&#45;&gt;ndFsInodeOs -->
<g id="edge1" class="edge"><title>ndFsInodePosix&#45;&gt;ndFsInodeOs</title>
<path fill="none" stroke="black" d="M253.034,-737.323C284.314,-709.235 321.418,-675.919 353.13,-647.444"/>
<polygon fill="black" stroke="black" points="353.424,-647.18 355.216,-640.195 362.353,-639.163 360.561,-646.148 353.424,-647.18"/>
</g>
<!-- ndFsMetadata -->
<g id="node10" class="node"><title>ndFsMetadata</title>
<polygon fill="yellow" stroke="none" points="551.901,-102 551.901,-139 787.901,-139 787.901,-102 551.901,-102"/>
<polygon fill="none" stroke="black" points="551.901,-102 551.901,-139 787.901,-139 787.901,-102 551.901,-102"/>
<text text-anchor="start" x="628.901" y="-117.8" font-family="Arial" font-weight="bold" font-size="14.00">FsMetadata</text>
<polygon fill="white" stroke="none" points="551.901,-5 551.901,-102 787.901,-102 787.901,-5 551.901,-5"/>
<polygon fill="none" stroke="black" points="551.901,-5 551.901,-102 787.901,-102 787.901,-5 551.901,-5"/>
<text text-anchor="start" x="562.901" y="-79.8" font-family="Arial" font-size="14.00">InodeDirectory(FsInodeDirectory)</text>
<text text-anchor="start" x="562.901" y="-64.8" font-family="Arial" font-size="14.00">InodeSymlink(FsInodeSymlink)</text>
<text text-anchor="start" x="562.901" y="-49.8" font-family="Arial" font-size="14.00">InodeFile(FsInodeFile)</text>
<text text-anchor="start" x="562.901" y="-34.8" font-family="Arial" font-size="14.00">RefFile(FsRefFile)</text>
<text text-anchor="start" x="562.901" y="-19.8" font-family="Arial" font-size="14.00">Empty</text>
<polygon fill="none" stroke="black" points="550.901,-4 550.901,-140 788.901,-140 788.901,-4 550.901,-4"/>
</g>
<!-- ndFsInodePosix&#45;&gt;ndFsMetadata -->
<g id="edge2" class="edge"><title>ndFsInodePosix&#45;&gt;ndFsMetadata</title>
<path fill="none" stroke="black" d="M141.325,-734.948C63.3671,-612.671 -79.6256,-342.422 56.9011,-180 116.478,-109.123 371.099,-85.1897 532.861,-77.1116"/>
<polygon fill="black" stroke="black" points="542.897,-76.6248 533.126,-81.6041 537.902,-76.8671 532.908,-77.1094 532.908,-77.1094 532.908,-77.1094 537.902,-76.8671 532.69,-72.6147 542.897,-76.6248 542.897,-76.6248"/>
</g>
<!-- ndFsInodeWindows -->
<g id="node2" class="node"><title>ndFsInodeWindows</title>
<polygon fill="lightblue" stroke="none" points="425.901,-881.5 425.901,-918.5 611.901,-918.5 611.901,-881.5 425.901,-881.5"/>
<polygon fill="none" stroke="black" points="425.901,-881.5 425.901,-918.5 611.901,-918.5 611.901,-881.5 425.901,-881.5"/>
<text text-anchor="start" x="458.901" y="-897.3" font-family="Arial" font-weight="bold" font-size="14.00">FsInodeWindows</text>
<polygon fill="white" stroke="none" points="425.901,-679.5 425.901,-881.5 611.901,-881.5 611.901,-679.5 425.901,-679.5"/>
<polygon fill="none" stroke="black" points="425.901,-679.5 425.901,-881.5 611.901,-881.5 611.901,-679.5 425.901,-679.5"/>
<text text-anchor="start" x="436.901" y="-859.3" font-family="Arial" font-size="14.00">+ archive: bool</text>
<text text-anchor="start" x="436.901" y="-844.3" font-family="Arial" font-size="14.00">+ hidden: bool</text>
<text text-anchor="start" x="436.901" y="-829.3" font-family="Arial" font-size="14.00">+ system: bool</text>
<text text-anchor="start" x="436.901" y="-814.3" font-family="Arial" font-size="14.00">+ readonly: bool</text>
<text text-anchor="start" x="436.901" y="-799.3" font-family="Arial" font-size="14.00">+ compressed: bool</text>
<text text-anchor="start" x="436.901" y="-784.3" font-family="Arial" font-size="14.00">+ encrypted: bool</text>
<text text-anchor="start" x="436.901" y="-769.3" font-family="Arial" font-size="14.00">+ notcontentindexed: bool</text>
<text text-anchor="start" x="436.901" y="-754.3" font-family="Arial" font-size="14.00">+ reparsepoint: bool</text>
<text text-anchor="start" x="436.901" y="-739.3" font-family="Arial" font-size="14.00">+ notindexed: bool</text>
<text text-anchor="start" x="436.901" y="-724.3" font-family="Arial" font-size="14.00">+ offline: bool</text>
<text text-anchor="start" x="436.901" y="-709.3" font-family="Arial" font-size="14.00">+ sparse: bool</text>
<text text-anchor="start" x="436.901" y="-694.3" font-family="Arial" font-size="14.00">+ temporary: bool</text>
<polygon fill="none" stroke="black" points="424.901,-679 424.901,-920 612.901,-920 612.901,-679 424.901,-679"/>
</g>
<!-- ndFsInodeWindows&#45;&gt;ndFsInodeOs -->
<g id="edge3" class="edge"><title>ndFsInodeWindows&#45;&gt;ndFsInodeOs</title>
<path fill="none" stroke="black" d="M464.902,-674.704C461.273,-666.385 457.701,-658.196 454.276,-650.342"/>
<polygon fill="black" stroke="black" points="454.169,-650.098 448.104,-646.198 449.371,-639.099 455.437,-643 454.169,-650.098"/>
</g>
<!-- ndFsInodeWindows&#45;&gt;ndFsMetadata -->
<g id="edge4" class="edge"><title>ndFsInodeWindows&#45;&gt;ndFsMetadata</title>
<path fill="none" stroke="black" d="M608.544,-674.907C673.722,-576.998 756.485,-433.864 791.901,-294 804.338,-244.884 812.811,-226.151 791.901,-180 787.406,-170.078 781.486,-160.713 774.673,-151.962"/>
<polygon fill="black" stroke="black" points="768.181,-144.099 778.019,-148.945 771.365,-147.955 774.548,-151.811 774.548,-151.811 774.548,-151.811 771.365,-147.955 771.078,-154.676 768.181,-144.099 768.181,-144.099"/>
</g>
<!-- ndFsInodeCommon -->
<g id="node4" class="node"><title>ndFsInodeCommon</title>
<polygon fill="lightblue" stroke="none" points="346.901,-446.5 346.901,-483.5 503.901,-483.5 503.901,-446.5 346.901,-446.5"/>
<polygon fill="none" stroke="black" points="346.901,-446.5 346.901,-483.5 503.901,-483.5 503.901,-446.5 346.901,-446.5"/>
<text text-anchor="start" x="365.401" y="-462.3" font-family="Arial" font-weight="bold" font-size="14.00">FsInodeCommon</text>
<polygon fill="white" stroke="none" points="346.901,-334.5 346.901,-446.5 503.901,-446.5 503.901,-334.5 346.901,-334.5"/>
<polygon fill="none" stroke="black" points="346.901,-334.5 346.901,-446.5 503.901,-446.5 503.901,-334.5 346.901,-334.5"/>
<text text-anchor="start" x="357.901" y="-424.3" font-family="Arial" font-size="14.00">+ size: u64</text>
<text text-anchor="start" x="357.901" y="-409.3" font-family="Arial" font-size="14.00">+ mtime: Timespec</text>
<text text-anchor="start" x="357.901" y="-394.3" font-family="Arial" font-size="14.00">+ ctime: Timespec</text>
<text text-anchor="start" x="357.901" y="-379.3" font-family="Arial" font-size="14.00">+ crtime: Timespec</text>
<text text-anchor="start" x="357.901" y="-364.3" font-family="Arial" font-size="14.00">+ links: u32</text>
<text text-anchor="start" x="357.901" y="-349.3" font-family="Arial" font-size="14.00">+ osattrs: FsInodeOs</text>
<polygon fill="none" stroke="black" points="345.401,-334 345.401,-485 504.401,-485 504.401,-334 345.401,-334"/>
</g>
<!-- ndFsInodeOs&#45;&gt;ndFsInodeCommon -->
<g id="edge5" class="edge"><title>ndFsInodeOs&#45;&gt;ndFsInodeCommon</title>
<path fill="none" stroke="black" d="M424.901,-524.699C424.901,-517.163 424.901,-509.284 424.901,-501.341"/>
<polygon fill="black" stroke="black" points="424.901,-501.271 420.901,-495.271 424.901,-489.271 428.901,-495.271 424.901,-501.271"/>
</g>
<!-- ndFsInodeDirectory -->
<g id="node5" class="node"><title>ndFsInodeDirectory</title>
<polygon fill="lightblue" stroke="none" points="565.901,-244 565.901,-281 774.901,-281 774.901,-244 565.901,-244"/>
<polygon fill="none" stroke="black" points="565.901,-244 565.901,-281 774.901,-281 774.901,-244 565.901,-244"/>
<text text-anchor="start" x="609.901" y="-259.8" font-family="Arial" font-weight="bold" font-size="14.00">FsInodeDirectory</text>
<polygon fill="white" stroke="none" points="565.901,-192 565.901,-244 774.901,-244 774.901,-192 565.901,-192"/>
<polygon fill="none" stroke="black" points="565.901,-192 565.901,-244 774.901,-244 774.901,-192 565.901,-192"/>
<text text-anchor="start" x="576.901" y="-221.8" font-family="Arial" font-size="14.00">+ common: FsInodeCommon</text>
<text text-anchor="start" x="576.901" y="-206.8" font-family="Arial" font-size="14.00">+ name: OsString</text>
<polygon fill="none" stroke="black" points="564.401,-191.5 564.401,-282.5 775.401,-282.5 775.401,-191.5 564.401,-191.5"/>
</g>
<!-- ndFsInodeCommon&#45;&gt;ndFsInodeDirectory -->
<g id="edge6" class="edge"><title>ndFsInodeCommon&#45;&gt;ndFsInodeDirectory</title>
<path fill="none" stroke="black" d="M512.66,-347.427C537.881,-329.875 565.245,-310.832 589.968,-293.627"/>
<polygon fill="black" stroke="black" points="590.173,-293.484 592.813,-286.773 600.023,-286.629 597.383,-293.34 590.173,-293.484"/>
</g>
<!-- ndFsInodeSymlink -->
<g id="node6" class="node"><title>ndFsInodeSymlink</title>
<polygon fill="lightblue" stroke="none" points="75.9011,-252 75.9011,-289 284.901,-289 284.901,-252 75.9011,-252"/>
<polygon fill="none" stroke="black" points="75.9011,-252 75.9011,-289 284.901,-289 284.901,-252 75.9011,-252"/>
<text text-anchor="start" x="124.401" y="-267.8" font-family="Arial" font-weight="bold" font-size="14.00">FsInodeSymlink</text>
<polygon fill="white" stroke="none" points="75.9011,-185 75.9011,-252 284.901,-252 284.901,-185 75.9011,-185"/>
<polygon fill="none" stroke="black" points="75.9011,-185 75.9011,-252 284.901,-252 284.901,-185 75.9011,-185"/>
<text text-anchor="start" x="86.9011" y="-229.8" font-family="Arial" font-size="14.00">+ common: FsInodeCommon</text>
<text text-anchor="start" x="86.9011" y="-214.8" font-family="Arial" font-size="14.00">+ name: OsString</text>
<text text-anchor="start" x="86.9011" y="-199.8" font-family="Arial" font-size="14.00">+ symlink: OsString</text>
<polygon fill="none" stroke="black" points="74.4011,-184 74.4011,-290 285.401,-290 285.401,-184 74.4011,-184"/>
</g>
<!-- ndFsInodeCommon&#45;&gt;ndFsInodeSymlink -->
<g id="edge7" class="edge"><title>ndFsInodeCommon&#45;&gt;ndFsInodeSymlink</title>
<path fill="none" stroke="black" d="M337.143,-347.427C315.472,-332.346 292.22,-316.165 270.421,-300.994"/>
<polygon fill="black" stroke="black" points="270.368,-300.958 263.158,-300.814 260.518,-294.103 267.728,-294.247 270.368,-300.958"/>
</g>
<!-- ndFsInodeFile -->
<g id="node7" class="node"><title>ndFsInodeFile</title>
<polygon fill="lightblue" stroke="none" points="320.901,-237 320.901,-274 529.901,-274 529.901,-237 320.901,-237"/>
<polygon fill="none" stroke="black" points="320.901,-237 320.901,-274 529.901,-274 529.901,-237 320.901,-237"/>
<text text-anchor="start" x="384.401" y="-252.8" font-family="Arial" font-weight="bold" font-size="14.00">FsInodeFile</text>
<polygon fill="white" stroke="none" points="320.901,-200 320.901,-237 529.901,-237 529.901,-200 320.901,-200"/>
<polygon fill="none" stroke="black" points="320.901,-200 320.901,-237 529.901,-237 529.901,-200 320.901,-200"/>
<text text-anchor="start" x="331.901" y="-214.8" font-family="Arial" font-size="14.00">+ common: FsInodeCommon</text>
<polygon fill="none" stroke="black" points="319.401,-199 319.401,-275 530.401,-275 530.401,-199 319.401,-199"/>
</g>
<!-- ndFsInodeCommon&#45;&gt;ndFsInodeFile -->
<g id="edge8" class="edge"><title>ndFsInodeCommon&#45;&gt;ndFsInodeFile</title>
<path fill="none" stroke="black" d="M424.901,-329.738C424.901,-316.786 424.901,-303.634 424.901,-291.485"/>
<polygon fill="black" stroke="black" points="424.901,-291.239 420.901,-285.239 424.901,-279.239 428.901,-285.239 424.901,-291.239"/>
</g>
<!-- ndFsInodeDirectory&#45;&gt;ndFsMetadata -->
<g id="edge9" class="edge"><title>ndFsInodeDirectory&#45;&gt;ndFsMetadata</title>
<path fill="none" stroke="black" d="M669.901,-187.095C669.901,-177.389 669.901,-166.945 669.901,-156.458"/>
<polygon fill="black" stroke="black" points="669.901,-156.168 665.901,-150.168 669.901,-144.168 673.901,-150.168 669.901,-156.168"/>
</g>
<!-- ndFsInodeSymlink&#45;&gt;ndFsMetadata -->
<g id="edge10" class="edge"><title>ndFsInodeSymlink&#45;&gt;ndFsMetadata</title>
<path fill="none" stroke="black" d="M293.648,-183.148C296.417,-182.068 299.171,-181.017 301.901,-180 376.311,-152.277 461.322,-127.147 530.878,-108.219"/>
<polygon fill="black" stroke="black" points="531.205,-108.13 535.953,-102.702 542.789,-104.996 538.042,-110.424 531.205,-108.13"/>
</g>
<!-- ndFsInodeFile&#45;&gt;ndFsMetadata -->
<g id="edge11" class="edge"><title>ndFsInodeFile&#45;&gt;ndFsMetadata</title>
<path fill="none" stroke="black" d="M486.725,-194.868C506.853,-181.477 529.904,-166.141 552.71,-150.968"/>
<polygon fill="black" stroke="black" points="552.817,-150.897 555.597,-144.243 562.808,-144.25 560.028,-150.903 552.817,-150.897"/>
</g>
<!-- ndFsRefFile -->
<g id="node8" class="node"><title>ndFsRefFile</title>
<polygon fill="lightblue" stroke="none" points="849.901,-244 849.901,-281 982.901,-281 982.901,-244 849.901,-244"/>
<polygon fill="none" stroke="black" points="849.901,-244 849.901,-281 982.901,-281 982.901,-244 849.901,-244"/>
<text text-anchor="start" x="883.901" y="-259.8" font-family="Arial" font-weight="bold" font-size="14.00">FsRefFile</text>
<polygon fill="white" stroke="none" points="849.901,-192 849.901,-244 982.901,-244 982.901,-192 849.901,-192"/>
<polygon fill="none" stroke="black" points="849.901,-192 849.901,-244 982.901,-244 982.901,-192 849.901,-192"/>
<text text-anchor="start" x="860.901" y="-221.8" font-family="Arial" font-size="14.00">+ name: OsString</text>
<text text-anchor="start" x="860.901" y="-206.8" font-family="Arial" font-size="14.00">+ inode_id: u64</text>
<polygon fill="none" stroke="black" points="848.401,-191.5 848.401,-282.5 983.401,-282.5 983.401,-191.5 848.401,-191.5"/>
</g>
<!-- ndFsRefFile&#45;&gt;ndFsMetadata -->
<g id="edge12" class="edge"><title>ndFsRefFile&#45;&gt;ndFsMetadata</title>
<path fill="none" stroke="black" d="M842.426,-187.315C825.025,-175.785 806.036,-163.203 787.224,-150.739"/>
<polygon fill="black" stroke="black" points="787.112,-150.664 779.901,-150.685 777.109,-144.036 784.32,-144.016 787.112,-150.664"/>
</g>
<!-- ndDirentKind -->
<g id="node9" class="node"><title>ndDirentKind</title>
<polygon fill="yellow" stroke="none" points="1018.9,-252 1018.9,-289 1115.9,-289 1115.9,-252 1018.9,-252"/>
<polygon fill="none" stroke="black" points="1018.9,-252 1018.9,-289 1115.9,-289 1115.9,-252 1018.9,-252"/>
<text text-anchor="start" x="1029.9" y="-267.8" font-family="Arial" font-weight="bold" font-size="14.00">DirentKind</text>
<polygon fill="white" stroke="none" points="1018.9,-185 1018.9,-252 1115.9,-252 1115.9,-185 1018.9,-185"/>
<polygon fill="none" stroke="black" points="1018.9,-185 1018.9,-252 1115.9,-252 1115.9,-185 1018.9,-185"/>
<text text-anchor="start" x="1029.9" y="-229.8" font-family="Arial" font-size="14.00">File</text>
<text text-anchor="start" x="1029.9" y="-214.8" font-family="Arial" font-size="14.00">Directory</text>
<text text-anchor="start" x="1029.9" y="-199.8" font-family="Arial" font-size="14.00">Symlink</text>
<polygon fill="none" stroke="black" points="1017.4,-184 1017.4,-290 1116.4,-290 1116.4,-184 1017.4,-184"/>
</g>
<!-- ndDirentKind&#45;&gt;ndFsMetadata -->
<g id="edge13" class="edge"><title>ndDirentKind&#45;&gt;ndFsMetadata</title>
<path fill="none" stroke="black" d="M1009.13,-184.95C1006.41,-183.196 1003.66,-181.535 1000.9,-180 940.801,-146.529 868.653,-121.66 807.077,-104.365"/>
<polygon fill="black" stroke="black" points="797.289,-101.654 808.127,-99.9865 802.107,-102.989 806.926,-104.323 806.926,-104.323 806.926,-104.323 802.107,-102.989 805.725,-108.66 797.289,-101.654 797.289,-101.654"/>
</g>
<!-- ndSnFs -->
<g id="node11" class="node"><title>ndSnFs</title>
<polygon fill="lightblue" stroke="none" points="647.901,-806.5 647.901,-843.5 913.901,-843.5 913.901,-806.5 647.901,-806.5"/>
<polygon fill="none" stroke="black" points="647.901,-806.5 647.901,-843.5 913.901,-843.5 913.901,-806.5 647.901,-806.5"/>
<text text-anchor="start" x="762.401" y="-822.3" font-family="Arial" font-weight="bold" font-size="14.00">SnFs</text>
<polygon fill="white" stroke="none" points="647.901,-754.5 647.901,-806.5 913.901,-806.5 913.901,-754.5 647.901,-754.5"/>
<polygon fill="none" stroke="black" points="647.901,-754.5 647.901,-806.5 913.901,-806.5 913.901,-754.5 647.901,-754.5"/>
<text text-anchor="start" x="658.901" y="-784.3" font-family="Arial" font-size="14.00">&#45; replica: Arc&lt;Mutex&lt;FsTreeReplica&gt;&gt;</text>
<text text-anchor="start" x="658.901" y="-769.3" font-family="Arial" font-size="14.00">&#45; mountpoint: Dir</text>
<polygon fill="none" stroke="black" points="646.901,-754 646.901,-845 914.901,-845 914.901,-754 646.901,-754"/>
</g>
</g>
</svg>
