<?xml version="1.0" encoding="UTF-8" standalone="no"?>
<!DOCTYPE svg PUBLIC "-//W3C//DTD SVG 1.1//EN"
 "http://www.w3.org/Graphics/SVG/1.1/DTD/svg11.dtd">
<!-- Generated by graphviz version 2.38.0 (20140413.2041)
 -->
<!-- Title: ml Pages: 1 -->
<svg width="4451pt" height="391pt"
 viewBox="0.00 0.00 4450.50 391.00" xmlns="http://www.w3.org/2000/svg" xmlns:xlink="http://www.w3.org/1999/xlink">
<g id="graph0" class="graph" transform="scale(1 1) rotate(0) translate(4 387)">
<title>ml</title>
<polygon fill="white" stroke="none" points="-4,4 -4,-387 4446.5,-387 4446.5,4 -4,4"/>
<!-- ndOpaqueCtx -->
<g id="node1" class="node"><title>ndOpaqueCtx</title>
<g id="a_node1_0"><a xlink:href="https://github.com/maidsafe/sn_ffi_utils/blob/master/src/lib.rs#:~:text=struct%20OpaqueCtx" xlink:title="&lt;TABLE&gt;">
<polygon fill="lightblue" stroke="none" points="9,-318.5 9,-355.5 311,-355.5 311,-318.5 9,-318.5"/>
<polygon fill="none" stroke="black" points="9,-318.5 9,-355.5 311,-355.5 311,-318.5 9,-318.5"/>
<text text-anchor="start" x="20" y="-334.3" font-family="Arial" font-weight="bold" font-size="14.00">pub struct OpaqueCtx(pub *mut c_void);</text>
<polygon fill="white" stroke="none" points="9,-281.5 9,-318.5 311,-318.5 311,-281.5 9,-281.5"/>
<polygon fill="none" stroke="black" points="9,-281.5 9,-318.5 311,-318.5 311,-281.5 9,-281.5"/>
<text text-anchor="start" x="20" y="-296.3" font-family="Arial" font-size="14.00">+ *mut c_void</text>
<polygon fill="white" stroke="none" points="9,-228.5 9,-281.5 311,-281.5 311,-228.5 9,-228.5"/>
<polygon fill="none" stroke="black" points="9,-228.5 9,-281.5 311,-281.5 311,-228.5 9,-228.5"/>
<text text-anchor="start" x="20" y="-244.3" font-family="Arial" font-size="14.00">&#45; into(self) &#45;&gt; *mut c_void</text>
<polygon fill="none" stroke="black" points="8,-228 8,-357 312,-357 312,-228 8,-228"/>
</a>
</g>
</g>
<!-- ndErrorCode -->
<g id="node2" class="node"><title>ndErrorCode</title>
<g id="a_node2_1"><a xlink:href="https://github.com/maidsafe/sn_ffi_utils/blob/master/src/lib.rs#:~:text=trait%20ErrorCode" xlink:title="&lt;TABLE&gt;">
<polygon fill="lightgreen" stroke="none" points="348,-292.5 348,-329.5 525,-329.5 525,-292.5 348,-292.5"/>
<polygon fill="none" stroke="black" points="348,-292.5 348,-329.5 525,-329.5 525,-292.5 348,-292.5"/>
<text text-anchor="start" x="399.5" y="-308.3" font-family="Arial" font-weight="bold" font-size="14.00">ErrorCode</text>
<polygon fill="white" stroke="none" points="348,-255.5 348,-292.5 525,-292.5 525,-255.5 348,-255.5"/>
<polygon fill="none" stroke="black" points="348,-255.5 348,-292.5 525,-292.5 525,-255.5 348,-255.5"/>
<text text-anchor="start" x="359" y="-270.3" font-family="Arial" font-size="14.00">error_code(&amp;Self) &#45;&gt; i32</text>
<polygon fill="none" stroke="black" points="346.5,-254.5 346.5,-330.5 525.5,-330.5 525.5,-254.5 346.5,-254.5"/>
</a>
</g>
</g>
<!-- ndTestError -->
<g id="node12" class="node"><title>ndTestError</title>
<g id="a_node12_2"><a xlink:href="https://github.com/maidsafe/sn_ffi_utils/blob/master/src/test_utils.rs#:~:text=enum%20TestError" xlink:title="&lt;TABLE&gt;">
<polygon fill="yellow" stroke="none" points="273,-124 273,-161 600,-161 600,-124 273,-124"/>
<polygon fill="none" stroke="black" points="273,-124 273,-161 600,-161 600,-124 273,-124"/>
<text text-anchor="start" x="403" y="-139.8" font-family="Arial" font-weight="bold" font-size="14.00">TestError</text>
<polygon fill="white" stroke="none" points="273,-72 273,-124 600,-124 600,-72 273,-72"/>
<polygon fill="none" stroke="black" points="273,-72 273,-124 600,-124 600,-72 273,-72"/>
<text text-anchor="start" x="284" y="-101.8" font-family="Arial" font-size="14.00">FromStr(String)</text>
<text text-anchor="start" x="284" y="-86.8" font-family="Arial" font-size="14.00">Test</text>
<polygon fill="white" stroke="none" points="273,-5 273,-72 600,-72 600,-5 273,-5"/>
<polygon fill="none" stroke="black" points="273,-5 273,-72 600,-72 600,-5 273,-5"/>
<text text-anchor="start" x="284" y="-49.8" font-family="Arial" font-size="14.00">&#45; from(s: &amp;&#39;a str) &#45;&gt; Self</text>
<text text-anchor="start" x="284" y="-34.8" font-family="Arial" font-size="14.00">&#45; error_code(&amp;self) &#45;&gt; i32</text>
<text text-anchor="start" x="284" y="-19.8" font-family="Arial" font-size="14.00">&#45; fmt(&amp;self, f: &amp;mut fmt::Formatter) &#45;&gt; fmt::Result</text>
<polygon fill="none" stroke="black" points="271.5,-4 271.5,-162 600.5,-162 600.5,-4 271.5,-4"/>
</a>
</g>
</g>
<!-- ndErrorCode&#45;&gt;ndTestError -->
<g id="edge1" class="edge"><title>ndErrorCode&#45;&gt;ndTestError</title>
<path fill="none" stroke="black" stroke-dasharray="5,2" d="M436,-250.008C436,-228.813 436,-202.117 436,-176.367"/>
<polygon fill="none" stroke="black" points="439.5,-176.178 436,-166.178 432.5,-176.178 439.5,-176.178"/>
</g>
<!-- ndEnvGuard -->
<g id="node3" class="node"><title>ndEnvGuard</title>
<g id="a_node3_3"><a xlink:href="https://github.com/maidsafe/sn_ffi_utils/blob/master/src/java.rs#:~:text=enum%20EnvGuard" xlink:title="&lt;TABLE&gt;">
<polygon fill="yellow" stroke="none" points="561,-325.5 561,-362.5 906,-362.5 906,-325.5 561,-325.5"/>
<polygon fill="none" stroke="black" points="561,-325.5 561,-362.5 906,-362.5 906,-325.5 561,-325.5"/>
<text text-anchor="start" x="698" y="-341.3" font-family="Arial" font-weight="bold" font-size="14.00">EnvGuard</text>
<polygon fill="white" stroke="none" points="561,-273.5 561,-325.5 906,-325.5 906,-273.5 561,-273.5"/>
<polygon fill="none" stroke="black" points="561,-273.5 561,-325.5 906,-325.5 906,-273.5 561,-273.5"/>
<text text-anchor="start" x="572" y="-303.3" font-family="Arial" font-size="14.00">Auto(JNIEnv&lt;&#39;a&gt;)</text>
<text text-anchor="start" x="572" y="-288.3" font-family="Arial" font-size="14.00">Manual(AttachGuard&lt;&#39;a&gt;)</text>
<polygon fill="white" stroke="none" points="561,-221.5 561,-273.5 906,-273.5 906,-221.5 561,-221.5"/>
<polygon fill="none" stroke="black" points="561,-221.5 561,-273.5 906,-273.5 906,-221.5 561,-221.5"/>
<text text-anchor="start" x="572" y="-251.3" font-family="Arial" font-size="14.00">&#45; new(vm: Option&lt;&amp;&#39;a JavaVM&gt;) &#45;&gt; JniResult&lt;Self&gt;</text>
<text text-anchor="start" x="572" y="-236.3" font-family="Arial" font-size="14.00">&#45; env(&amp;self) &#45;&gt; &amp;JNIEnv</text>
<polygon fill="none" stroke="black" points="559.5,-221 559.5,-364 906.5,-364 906.5,-221 559.5,-221"/>
</a>
</g>
</g>
<!-- ndReprC -->
<g id="node4" class="node"><title>ndReprC</title>
<g id="a_node4_4"><a xlink:href="https://github.com/maidsafe/sn_ffi_utils/blob/master/src/repr_c.rs#:~:text=trait%20ReprC" xlink:title="&lt;TABLE&gt;">
<polygon fill="lightgreen" stroke="none" points="942,-292.5 942,-329.5 1313,-329.5 1313,-292.5 942,-292.5"/>
<polygon fill="none" stroke="black" points="942,-292.5 942,-329.5 1313,-329.5 1313,-292.5 942,-292.5"/>
<text text-anchor="start" x="1105.5" y="-308.3" font-family="Arial" font-weight="bold" font-size="14.00">ReprC</text>
<polygon fill="white" stroke="none" points="942,-255.5 942,-292.5 1313,-292.5 1313,-255.5 942,-255.5"/>
<polygon fill="none" stroke="black" points="942,-255.5 942,-292.5 1313,-292.5 1313,-255.5 942,-255.5"/>
<text text-anchor="start" x="953" y="-270.3" font-family="Arial" font-size="14.00">clone_from_repr_c(Self::C) &#45;&gt; Result&lt;Self, Self::Error&gt;</text>
<polygon fill="none" stroke="black" points="940.5,-254.5 940.5,-330.5 1313.5,-330.5 1313.5,-254.5 940.5,-254.5"/>
</a>
</g>
</g>
<!-- ndNativeResult -->
<g id="node8" class="node"><title>ndNativeResult</title>
<text text-anchor="middle" x="1786" y="-79.3" font-family="Times,serif" font-size="14.00">ndNativeResult</text>
</g>
<!-- ndReprC&#45;&gt;ndNativeResult -->
<g id="edge2" class="edge"><title>ndReprC&#45;&gt;ndNativeResult</title>
<path fill="none" stroke="black" stroke-dasharray="5,2" d="M1212.64,-250.287C1248.67,-233.91 1291.35,-215.74 1331,-202 1469.47,-154.014 1637.57,-115.286 1725.59,-96.4396"/>
<polygon fill="none" stroke="black" points="1726.35,-99.8558 1735.4,-94.3498 1724.89,-93.0094 1726.35,-99.8558"/>
</g>
<!-- ndCallback -->
<g id="node5" class="node"><title>ndCallback</title>
<g id="a_node5_5"><a xlink:href="https://github.com/maidsafe/sn_ffi_utils/blob/master/src/callback.rs#:~:text=trait%20Callback" xlink:title="&lt;TABLE&gt;">
<polygon fill="lightgreen" stroke="none" points="2519,-292.5 2519,-329.5 2602,-329.5 2602,-292.5 2519,-292.5"/>
<polygon fill="none" stroke="black" points="2519,-292.5 2519,-329.5 2602,-329.5 2602,-292.5 2519,-292.5"/>
<text text-anchor="start" x="2530" y="-308.3" font-family="Arial" font-weight="bold" font-size="14.00">Callback</text>
<polygon fill="white" stroke="none" points="2519,-254.5 2519,-292.5 2602,-292.5 2602,-254.5 2519,-254.5"/>
<polygon fill="none" stroke="black" points="2519,-254.5 2519,-292.5 2602,-292.5 2602,-254.5 2519,-254.5"/>
<polygon fill="none" stroke="black" points="2517.5,-254 2517.5,-331 2602.5,-331 2602.5,-254 2517.5,-254"/>
</a>
</g>
</g>
<!-- ndCallbackArgs -->
<g id="node6" class="node"><title>ndCallbackArgs</title>
<g id="a_node6_6"><a xlink:href="https://github.com/maidsafe/sn_ffi_utils/blob/master/src/callback.rs#:~:text=trait%20CallbackArgs" xlink:title="&lt;TABLE&gt;">
<polygon fill="lightgreen" stroke="none" points="2638,-292.5 2638,-329.5 2758,-329.5 2758,-292.5 2638,-292.5"/>
<polygon fill="none" stroke="black" points="2638,-292.5 2638,-329.5 2758,-329.5 2758,-292.5 2638,-292.5"/>
<text text-anchor="start" x="2651" y="-308.3" font-family="Arial" font-weight="bold" font-size="14.00">CallbackArgs</text>
<polygon fill="white" stroke="none" points="2638,-255.5 2638,-292.5 2758,-292.5 2758,-255.5 2638,-255.5"/>
<polygon fill="none" stroke="black" points="2638,-255.5 2638,-292.5 2758,-292.5 2758,-255.5 2638,-255.5"/>
<text text-anchor="start" x="2649" y="-270.3" font-family="Arial" font-size="14.00">default() &#45;&gt; Self</text>
<polygon fill="none" stroke="black" points="2637,-254.5 2637,-330.5 2759,-330.5 2759,-254.5 2637,-254.5"/>
</a>
</g>
</g>
<!-- ndSafePtr -->
<g id="node7" class="node"><title>ndSafePtr</title>
<g id="a_node7_7"><a xlink:href="https://github.com/maidsafe/sn_ffi_utils/blob/master/src/vec.rs#:~:text=trait%20SafePtr" xlink:title="&lt;TABLE&gt;">
<polygon fill="lightgreen" stroke="none" points="2795,-292.5 2795,-329.5 3052,-329.5 3052,-292.5 2795,-292.5"/>
<polygon fill="none" stroke="black" points="2795,-292.5 2795,-329.5 3052,-329.5 3052,-292.5 2795,-292.5"/>
<text text-anchor="start" x="2897.5" y="-308.3" font-family="Arial" font-weight="bold" font-size="14.00">SafePtr</text>
<polygon fill="white" stroke="none" points="2795,-255.5 2795,-292.5 3052,-292.5 3052,-255.5 2795,-255.5"/>
<polygon fill="none" stroke="black" points="2795,-255.5 2795,-292.5 3052,-292.5 3052,-255.5 2795,-255.5"/>
<text text-anchor="start" x="2806" y="-270.3" font-family="Arial" font-size="14.00">as_safe_ptr(&amp;Self) &#45;&gt; *const Self::Ptr</text>
<polygon fill="none" stroke="black" points="2793.5,-254.5 2793.5,-330.5 3052.5,-330.5 3052.5,-254.5 2793.5,-254.5"/>
</a>
</g>
</g>
<!-- ndFfiResult -->
<g id="node9" class="node"><title>ndFfiResult</title>
<g id="a_node9_8"><a xlink:href="https://github.com/maidsafe/sn_ffi_utils/blob/master/src/result.rs#:~:text=struct%20FfiResult" xlink:title="&lt;TABLE&gt;">
<polygon fill="lightblue" stroke="none" points="1349,-318.5 1349,-355.5 2224,-355.5 2224,-318.5 1349,-318.5"/>
<polygon fill="none" stroke="black" points="1349,-318.5 1349,-355.5 2224,-355.5 2224,-318.5 1349,-318.5"/>
<text text-anchor="start" x="1360" y="-334.3" font-family="Arial" font-weight="bold" font-size="14.00">pub struct FfiResult { &#160;&#160;&#160;/// Unique error code. &#160;&#160;&#160;pub error_code: i32, &#160;&#160;&#160;/// Error description. &#160;&#160;&#160;pub description: *const c_char,}</text>
<polygon fill="white" stroke="none" points="1349,-266.5 1349,-318.5 2224,-318.5 2224,-266.5 1349,-266.5"/>
<polygon fill="none" stroke="black" points="1349,-266.5 1349,-318.5 2224,-318.5 2224,-266.5 1349,-266.5"/>
<text text-anchor="start" x="1360" y="-296.3" font-family="Arial" font-size="14.00">+ error_code: i32</text>
<text text-anchor="start" x="1360" y="-281.3" font-family="Arial" font-size="14.00">+ description: *const c_char</text>
<polygon fill="white" stroke="none" points="1349,-229.5 1349,-266.5 2224,-266.5 2224,-229.5 1349,-229.5"/>
<polygon fill="none" stroke="black" points="1349,-229.5 1349,-266.5 2224,-266.5 2224,-229.5 1349,-229.5"/>
<text text-anchor="start" x="1360" y="-244.3" font-family="Arial" font-size="14.00">&#45; drop(&amp;mut self)</text>
<polygon fill="none" stroke="black" points="1347.5,-228.5 1347.5,-356.5 2224.5,-356.5 2224.5,-228.5 1347.5,-228.5"/>
</a>
</g>
</g>
<!-- ndFfiResult&#45;&gt;ndNativeResult -->
<g id="edge3" class="edge"><title>ndFfiResult&#45;&gt;ndNativeResult</title>
<path fill="none" stroke="black" d="M1786,-224.417C1786,-185.99 1786,-139.86 1786,-111.233"/>
<polygon fill="black" stroke="black" points="1786,-101.17 1790.5,-111.17 1786,-106.17 1786,-111.17 1786,-111.17 1786,-111.17 1786,-106.17 1781.5,-111.17 1786,-101.17 1786,-101.17"/>
</g>
<!-- ndUserData -->
<g id="node10" class="node"><title>ndUserData</title>
<g id="a_node10_9"><a xlink:href="https://github.com/maidsafe/sn_ffi_utils/blob/master/src/test_utils.rs#:~:text=struct%20UserData" xlink:title="&lt;TABLE&gt;">
<polygon fill="lightblue" stroke="none" points="3088,-318.5 3088,-355.5 4311,-355.5 4311,-318.5 3088,-318.5"/>
<polygon fill="none" stroke="black" points="3088,-318.5 3088,-355.5 4311,-355.5 4311,-318.5 3088,-318.5"/>
<text text-anchor="start" x="3099" y="-334.3" font-family="Arial" font-weight="bold" font-size="14.00">pub struct UserData { &#160;&#160;&#160;/// Common field, used by standard callbacks. &#160;&#160;&#160;pub common: *mut c_void, &#160;&#160;&#160;/// Custom field, used by additional callbacks. &#160;&#160;&#160;pub custom: *mut c_void,}</text>
<polygon fill="white" stroke="none" points="3088,-266.5 3088,-318.5 4311,-318.5 4311,-266.5 3088,-266.5"/>
<polygon fill="none" stroke="black" points="3088,-266.5 3088,-318.5 4311,-318.5 4311,-266.5 3088,-266.5"/>
<text text-anchor="start" x="3099" y="-296.3" font-family="Arial" font-size="14.00">+ common: *mut c_void</text>
<text text-anchor="start" x="3099" y="-281.3" font-family="Arial" font-size="14.00">+ custom: *mut c_void</text>
<polygon fill="white" stroke="none" points="3088,-229.5 3088,-266.5 4311,-266.5 4311,-229.5 3088,-229.5"/>
<polygon fill="none" stroke="black" points="3088,-229.5 3088,-266.5 4311,-266.5 4311,-229.5 3088,-229.5"/>
<text text-anchor="start" x="3099" y="-244.3" font-family="Arial" font-size="14.00">&#45; default() &#45;&gt; Self</text>
<polygon fill="none" stroke="black" points="3086.5,-228.5 3086.5,-356.5 4311.5,-356.5 4311.5,-228.5 3086.5,-228.5"/>
</a>
</g>
</g>
<!-- ndSendWrapper -->
<g id="node11" class="node"><title>ndSendWrapper</title>
<text text-anchor="middle" x="4390" y="-288.8" font-family="Times,serif" font-size="14.00">ndSendWrapper</text>
</g>
<!-- ndStringError -->
<g id="node13" class="node"><title>ndStringError</title>
<g id="a_node13_10"><a xlink:href="https://github.com/maidsafe/sn_ffi_utils/blob/master/src/string.rs#:~:text=enum%20StringError" xlink:title="&lt;TABLE&gt;">
<polygon fill="yellow" stroke="none" points="2260,-340.5 2260,-377.5 2483,-377.5 2483,-340.5 2260,-340.5"/>
<polygon fill="none" stroke="black" points="2260,-340.5 2260,-377.5 2483,-377.5 2483,-340.5 2260,-340.5"/>
<text text-anchor="start" x="2332" y="-356.3" font-family="Arial" font-weight="bold" font-size="14.00">StringError</text>
<polygon fill="white" stroke="none" points="2260,-273.5 2260,-340.5 2483,-340.5 2483,-273.5 2260,-273.5"/>
<polygon fill="none" stroke="black" points="2260,-273.5 2260,-340.5 2483,-340.5 2483,-273.5 2260,-273.5"/>
<text text-anchor="start" x="2271" y="-318.3" font-family="Arial" font-size="14.00">Utf8(String)</text>
<text text-anchor="start" x="2271" y="-303.3" font-family="Arial" font-size="14.00">Null(String)</text>
<text text-anchor="start" x="2271" y="-288.3" font-family="Arial" font-size="14.00">IntoString(String)</text>
<polygon fill="white" stroke="none" points="2260,-206.5 2260,-273.5 2483,-273.5 2483,-206.5 2260,-206.5"/>
<polygon fill="none" stroke="black" points="2260,-206.5 2260,-273.5 2483,-273.5 2483,-206.5 2260,-206.5"/>
<text text-anchor="start" x="2271" y="-251.3" font-family="Arial" font-size="14.00">&#45; from(e: Utf8Error) &#45;&gt; Self</text>
<text text-anchor="start" x="2271" y="-236.3" font-family="Arial" font-size="14.00">&#45; from(e: NulError) &#45;&gt; Self</text>
<text text-anchor="start" x="2271" y="-221.3" font-family="Arial" font-size="14.00">&#45; from(e: IntoStringError) &#45;&gt; Self</text>
<polygon fill="none" stroke="black" points="2258.5,-206 2258.5,-379 2483.5,-379 2483.5,-206 2258.5,-206"/>
</a>
</g>
</g>
<!-- ndStringError&#45;&gt;ndNativeResult -->
<g id="edge4" class="edge"><title>ndStringError&#45;&gt;ndNativeResult</title>
<path fill="none" stroke="black" d="M2250.18,-205.915C2247.46,-204.557 2244.73,-203.25 2242,-202 2107.8,-140.47 1936.09,-107.038 1846.52,-92.6749"/>
<polygon fill="black" stroke="black" points="1836.54,-91.0988 1847.12,-88.2135 1841.48,-91.8786 1846.41,-92.6584 1846.41,-92.6584 1846.41,-92.6584 1841.48,-91.8786 1845.71,-97.1034 1836.54,-91.0988 1836.54,-91.0988"/>
</g>
</g>
</svg>
