<?xml version="1.0" encoding="UTF-8" standalone="no"?>
<!DOCTYPE svg PUBLIC "-//W3C//DTD SVG 1.1//EN"
 "http://www.w3.org/Graphics/SVG/1.1/DTD/svg11.dtd">
<!-- Generated by graphviz version 2.38.0 (20140413.2041)
 -->
<!-- Title: ml Pages: 1 -->
<svg width="995pt" height="138pt"
 viewBox="0.00 0.00 995.00 138.00" xmlns="http://www.w3.org/2000/svg" xmlns:xlink="http://www.w3.org/1999/xlink">
<g id="graph0" class="graph" transform="scale(1 1) rotate(0) translate(4 134)">
<title>ml</title>
<polygon fill="white" stroke="none" points="-4,4 -4,-134 991,-134 991,4 -4,4"/>
<!-- ndErrorCode -->
<g id="node1" class="node"><title>ndErrorCode</title>
<polygon fill="lightgreen" stroke="none" points="9,-87.5 9,-124.5 105,-124.5 105,-87.5 9,-87.5"/>
<polygon fill="none" stroke="black" points="9,-87.5 9,-124.5 105,-124.5 105,-87.5 9,-87.5"/>
<text text-anchor="start" x="20" y="-103.3" font-family="Arial" font-weight="bold" font-size="14.00">ErrorCode</text>
<polygon fill="none" stroke="black" points="8,-87 8,-126 106,-126 106,-87 8,-87"/>
</g>
<!-- ndTestError -->
<g id="node10" class="node"><title>ndTestError</title>
<polygon fill="yellow" stroke="none" points="13,-4.5 13,-41.5 102,-41.5 102,-4.5 13,-4.5"/>
<polygon fill="none" stroke="black" points="13,-4.5 13,-41.5 102,-41.5 102,-4.5 13,-4.5"/>
<text text-anchor="start" x="24" y="-20.3" font-family="Arial" font-weight="bold" font-size="14.00">TestError</text>
<polygon fill="none" stroke="black" points="11.5,-4 11.5,-43 102.5,-43 102.5,-4 11.5,-4"/>
</g>
<!-- ndErrorCode&#45;&gt;ndTestError -->
<g id="edge1" class="edge"><title>ndErrorCode&#45;&gt;ndTestError</title>
<path fill="none" stroke="black" stroke-dasharray="5,2" d="M57,-82.937C57,-75.0164 57,-65.9488 57,-57.3574"/>
<polygon fill="none" stroke="black" points="60.5001,-57.2229 57,-47.2229 53.5001,-57.223 60.5001,-57.2229"/>
</g>
<!-- ndEnvGuard -->
<g id="node2" class="node"><title>ndEnvGuard</title>
<polygon fill="yellow" stroke="none" points="142,-87.5 142,-124.5 235,-124.5 235,-87.5 142,-87.5"/>
<polygon fill="none" stroke="black" points="142,-87.5 142,-124.5 235,-124.5 235,-87.5 142,-87.5"/>
<text text-anchor="start" x="153" y="-103.3" font-family="Arial" font-weight="bold" font-size="14.00">EnvGuard</text>
<polygon fill="none" stroke="black" points="140.5,-87 140.5,-126 235.5,-126 235.5,-87 140.5,-87"/>
</g>
<!-- ndReprC -->
<g id="node3" class="node"><title>ndReprC</title>
<polygon fill="lightgreen" stroke="none" points="270,-87.5 270,-124.5 336,-124.5 336,-87.5 270,-87.5"/>
<polygon fill="none" stroke="black" points="270,-87.5 270,-124.5 336,-124.5 336,-87.5 270,-87.5"/>
<text text-anchor="start" x="281" y="-103.3" font-family="Arial" font-weight="bold" font-size="14.00">ReprC</text>
<polygon fill="none" stroke="black" points="269,-87 269,-126 337,-126 337,-87 269,-87"/>
</g>
<!-- ndNativeResult -->
<g id="node7" class="node"><title>ndNativeResult</title>
<polygon fill="lightblue" stroke="none" points="368,-4.5 368,-41.5 477,-41.5 477,-4.5 368,-4.5"/>
<polygon fill="none" stroke="black" points="368,-4.5 368,-41.5 477,-41.5 477,-4.5 368,-4.5"/>
<text text-anchor="start" x="379" y="-20.3" font-family="Arial" font-weight="bold" font-size="14.00">NativeResult</text>
<polygon fill="none" stroke="black" points="366.5,-4 366.5,-43 477.5,-43 477.5,-4 366.5,-4"/>
</g>
<!-- ndReprC&#45;&gt;ndNativeResult -->
<g id="edge2" class="edge"><title>ndReprC&#45;&gt;ndNativeResult</title>
<path fill="none" stroke="black" stroke-dasharray="5,2" d="M336.148,-82.937C349.83,-73.6238 365.843,-62.7248 380.308,-52.8786"/>
<polygon fill="none" stroke="black" points="382.32,-55.7432 388.617,-47.2229 378.381,-49.9565 382.32,-55.7432"/>
</g>
<!-- ndCallback -->
<g id="node4" class="node"><title>ndCallback</title>
<polygon fill="lightgreen" stroke="none" points="513,-4.5 513,-41.5 596,-41.5 596,-4.5 513,-4.5"/>
<polygon fill="none" stroke="black" points="513,-4.5 513,-41.5 596,-41.5 596,-4.5 513,-4.5"/>
<text text-anchor="start" x="524" y="-20.3" font-family="Arial" font-weight="bold" font-size="14.00">Callback</text>
<polygon fill="none" stroke="black" points="511.5,-4 511.5,-43 596.5,-43 596.5,-4 511.5,-4"/>
</g>
<!-- ndCallbackArgs -->
<g id="node5" class="node"><title>ndCallbackArgs</title>
<polygon fill="lightgreen" stroke="none" points="630,-87.5 630,-124.5 746,-124.5 746,-87.5 630,-87.5"/>
<polygon fill="none" stroke="black" points="630,-87.5 630,-124.5 746,-124.5 746,-87.5 630,-87.5"/>
<text text-anchor="start" x="641" y="-103.3" font-family="Arial" font-weight="bold" font-size="14.00">CallbackArgs</text>
<polygon fill="none" stroke="black" points="629,-87 629,-126 747,-126 747,-87 629,-87"/>
</g>
<!-- ndSafePtr -->
<g id="node6" class="node"><title>ndSafePtr</title>
<polygon fill="lightgreen" stroke="none" points="782,-87.5 782,-124.5 856,-124.5 856,-87.5 782,-87.5"/>
<polygon fill="none" stroke="black" points="782,-87.5 782,-124.5 856,-124.5 856,-87.5 782,-87.5"/>
<text text-anchor="start" x="793" y="-103.3" font-family="Arial" font-weight="bold" font-size="14.00">SafePtr</text>
<polygon fill="none" stroke="black" points="781,-87 781,-126 857,-126 857,-87 781,-87"/>
</g>
<!-- ndFfiResult -->
<g id="node8" class="node"><title>ndFfiResult</title>
<polygon fill="lightblue" stroke="none" points="511,-87.5 511,-124.5 594,-124.5 594,-87.5 511,-87.5"/>
<polygon fill="none" stroke="black" points="511,-87.5 511,-124.5 594,-124.5 594,-87.5 511,-87.5"/>
<text text-anchor="start" x="522" y="-103.3" font-family="Arial" font-weight="bold" font-size="14.00">FfiResult</text>
<polygon fill="none" stroke="black" points="509.5,-87 509.5,-126 594.5,-126 594.5,-87 509.5,-87"/>
</g>
<!-- ndFfiResult&#45;&gt;ndCallback -->
<g id="edge3" class="edge"><title>ndFfiResult&#45;&gt;ndCallback</title>
<path fill="none" stroke="black" stroke-dasharray="5,2" d="M552.557,-82.937C552.753,-75.0164 552.977,-65.9488 553.189,-57.3574"/>
<polygon fill="black" stroke="black" points="553.439,-47.2229 557.691,-57.331 553.315,-52.2214 553.192,-57.2199 553.192,-57.2199 553.192,-57.2199 553.315,-52.2214 548.693,-57.1088 553.439,-47.2229 553.439,-47.2229"/>
</g>
<!-- ndFfiResult&#45;&gt;ndNativeResult -->
<g id="edge4" class="edge"><title>ndFfiResult&#45;&gt;ndNativeResult</title>
<path fill="none" stroke="black" d="M515.788,-82.937C500.701,-73.5367 483.021,-62.5209 467.103,-52.6028"/>
<polygon fill="black" stroke="black" points="458.469,-47.2229 469.336,-48.6919 462.713,-49.8671 466.956,-52.5112 466.956,-52.5112 466.956,-52.5112 462.713,-49.8671 464.577,-56.3305 458.469,-47.2229 458.469,-47.2229"/>
</g>
<!-- ndUserData -->
<g id="node9" class="node"><title>ndUserData</title>
<polygon fill="lightblue" stroke="none" points="892,-87.5 892,-124.5 978,-124.5 978,-87.5 892,-87.5"/>
<polygon fill="none" stroke="black" points="892,-87.5 892,-124.5 978,-124.5 978,-87.5 892,-87.5"/>
<text text-anchor="start" x="903" y="-103.3" font-family="Arial" font-weight="bold" font-size="14.00">UserData</text>
<polygon fill="none" stroke="black" points="891,-87 891,-126 979,-126 979,-87 891,-87"/>
</g>
<!-- ndStringError -->
<g id="node11" class="node"><title>ndStringError</title>
<polygon fill="yellow" stroke="none" points="373,-87.5 373,-124.5 474,-124.5 474,-87.5 373,-87.5"/>
<polygon fill="none" stroke="black" points="373,-87.5 373,-124.5 474,-124.5 474,-87.5 373,-87.5"/>
<text text-anchor="start" x="384" y="-103.3" font-family="Arial" font-weight="bold" font-size="14.00">StringError</text>
<polygon fill="none" stroke="black" points="371.5,-87 371.5,-126 474.5,-126 474.5,-87 371.5,-87"/>
</g>
<!-- ndStringError&#45;&gt;ndNativeResult -->
<g id="edge5" class="edge"><title>ndStringError&#45;&gt;ndNativeResult</title>
<path fill="none" stroke="black" d="M422.721,-82.937C422.624,-75.0164 422.512,-65.9488 422.406,-57.3574"/>
<polygon fill="black" stroke="black" points="422.281,-47.2229 426.904,-57.1666 422.342,-52.2226 422.404,-57.2222 422.404,-57.2222 422.404,-57.2222 422.342,-52.2226 417.904,-57.2778 422.281,-47.2229 422.281,-47.2229"/>
</g>
</g>
</svg>
