<?xml version="1.0" encoding="UTF-8" standalone="no"?>
<!DOCTYPE svg PUBLIC "-//W3C//DTD SVG 1.1//EN"
 "http://www.w3.org/Graphics/SVG/1.1/DTD/svg11.dtd">
<!-- Generated by graphviz version 2.38.0 (20140413.2041)
 -->
<!-- Title: ml Pages: 1 -->
<svg width="172pt" height="92pt"
 viewBox="0.00 0.00 172.00 92.00" xmlns="http://www.w3.org/2000/svg" xmlns:xlink="http://www.w3.org/1999/xlink">
<g id="graph0" class="graph" transform="scale(1 1) rotate(0) translate(4 88)">
<title>ml</title>
<polygon fill="white" stroke="none" points="-4,4 -4,-88 168,-88 168,4 -4,4"/>
<!-- ndFakeClock -->
<g id="node1" class="node"><title>ndFakeClock</title>
<polygon fill="lightblue" stroke="none" points="9,-42 9,-79 155,-79 155,-42 9,-42"/>
<polygon fill="none" stroke="black" points="9,-42 9,-79 155,-79 155,-42 9,-42"/>
<text text-anchor="start" x="45" y="-57.8" font-family="Arial" font-weight="bold" font-size="14.00">FakeClock</text>
<polygon fill="white" stroke="none" points="9,-5 9,-42 155,-42 155,-5 9,-5"/>
<polygon fill="none" stroke="black" points="9,-5 9,-42 155,-42 155,-5 9,-5"/>
<text text-anchor="start" x="20" y="-19.8" font-family="Arial" font-size="14.00">&#45; time_created: u64</text>
<polygon fill="none" stroke="black" points="8,-4 8,-80 156,-80 156,-4 8,-4"/>
</g>
</g>
</svg>
