<?xml version="1.0" encoding="UTF-8" standalone="no"?>
<!DOCTYPE svg PUBLIC "-//W3C//DTD SVG 1.1//EN"
 "http://www.w3.org/Graphics/SVG/1.1/DTD/svg11.dtd">
<!-- Generated by graphviz version 2.38.0 (20140413.2041)
 -->
<!-- Title: ml Pages: 1 -->
<svg width="3620pt" height="257pt"
 viewBox="0.00 0.00 3619.50 257.00" xmlns="http://www.w3.org/2000/svg" xmlns:xlink="http://www.w3.org/1999/xlink">
<g id="graph0" class="graph" transform="scale(1 1) rotate(0) translate(4 253)">
<title>ml</title>
<polygon fill="white" stroke="none" points="-4,4 -4,-253 3615.5,-253 3615.5,4 -4,4"/>
<!-- ndOpaqueCtx -->
<g id="node1" class="node"><title>ndOpaqueCtx</title>
<g id="a_node1_0"><a xlink:href="https://github.com/maidsafe/sn_ffi_utils/blob/master/src/lib.rs#:~:text=struct%20OpaqueCtx" xlink:title="&lt;TABLE&gt;">
<polygon fill="lightblue" stroke="none" points="9,-192 9,-229 311,-229 311,-192 9,-192"/>
<polygon fill="none" stroke="black" points="9,-192 9,-229 311,-229 311,-192 9,-192"/>
<text text-anchor="start" x="20" y="-207.8" font-family="Arial" font-weight="bold" font-size="14.00">pub struct OpaqueCtx(pub *mut c_void);</text>
<polygon fill="white" stroke="none" points="9,-155 9,-192 311,-192 311,-155 9,-155"/>
<polygon fill="none" stroke="black" points="9,-155 9,-192 311,-192 311,-155 9,-155"/>
<text text-anchor="start" x="20" y="-169.8" font-family="Arial" font-size="14.00">+ *mut c_void</text>
<polygon fill="none" stroke="black" points="8,-154 8,-230 312,-230 312,-154 8,-154"/>
</a>
</g>
</g>
<!-- ndErrorCode -->
<g id="node2" class="node"><title>ndErrorCode</title>
<g id="a_node2_1"><a xlink:href="https://github.com/maidsafe/sn_ffi_utils/blob/master/src/lib.rs#:~:text=trait%20ErrorCode" xlink:title="&lt;TABLE&gt;">
<polygon fill="lightgreen" stroke="none" points="347,-173 347,-210 443,-210 443,-173 347,-173"/>
<polygon fill="none" stroke="black" points="347,-173 347,-210 443,-210 443,-173 347,-173"/>
<text text-anchor="start" x="358" y="-188.8" font-family="Arial" font-weight="bold" font-size="14.00">ErrorCode</text>
<polygon fill="none" stroke="black" points="346,-172.5 346,-211.5 444,-211.5 444,-172.5 346,-172.5"/>
</a>
</g>
</g>
<!-- ndTestError -->
<g id="node12" class="node"><title>ndTestError</title>
<g id="a_node12_2"><a xlink:href="https://github.com/maidsafe/sn_ffi_utils/blob/master/src/test_utils.rs#:~:text=enum%20TestError" xlink:title="&lt;TABLE&gt;">
<polygon fill="yellow" stroke="none" points="335,-56.5 335,-93.5 455,-93.5 455,-56.5 335,-56.5"/>
<polygon fill="none" stroke="black" points="335,-56.5 335,-93.5 455,-93.5 455,-56.5 335,-56.5"/>
<text text-anchor="start" x="361.5" y="-72.3" font-family="Arial" font-weight="bold" font-size="14.00">TestError</text>
<polygon fill="white" stroke="none" points="335,-4.5 335,-56.5 455,-56.5 455,-4.5 335,-4.5"/>
<polygon fill="none" stroke="black" points="335,-4.5 335,-56.5 455,-56.5 455,-4.5 335,-4.5"/>
<text text-anchor="start" x="346" y="-34.3" font-family="Arial" font-size="14.00">FromStr(String)</text>
<text text-anchor="start" x="346" y="-19.3" font-family="Arial" font-size="14.00">Test</text>
<polygon fill="none" stroke="black" points="334,-4 334,-95 456,-95 456,-4 334,-4"/>
</a>
</g>
</g>
<!-- ndErrorCode&#45;&gt;ndTestError -->
<g id="edge1" class="edge"><title>ndErrorCode&#45;&gt;ndTestError</title>
<path fill="none" stroke="black" stroke-dasharray="5,2" d="M395,-168.426C395,-152.427 395,-130.182 395,-109.319"/>
<polygon fill="none" stroke="black" points="398.5,-109.221 395,-99.2212 391.5,-109.221 398.5,-109.221"/>
</g>
<!-- ndEnvGuard -->
<g id="node3" class="node"><title>ndEnvGuard</title>
<g id="a_node3_3"><a xlink:href="https://github.com/maidsafe/sn_ffi_utils/blob/master/src/java.rs#:~:text=enum%20EnvGuard" xlink:title="&lt;TABLE&gt;">
<polygon fill="yellow" stroke="none" points="479,-199 479,-236 661,-236 661,-199 479,-199"/>
<polygon fill="none" stroke="black" points="479,-199 479,-236 661,-236 661,-199 479,-199"/>
<text text-anchor="start" x="534.5" y="-214.8" font-family="Arial" font-weight="bold" font-size="14.00">EnvGuard</text>
<polygon fill="white" stroke="none" points="479,-147 479,-199 661,-199 661,-147 479,-147"/>
<polygon fill="none" stroke="black" points="479,-147 479,-199 661,-199 661,-147 479,-147"/>
<text text-anchor="start" x="490" y="-176.8" font-family="Arial" font-size="14.00">Auto(JNIEnv&lt;&#39;a&gt;)</text>
<text text-anchor="start" x="490" y="-161.8" font-family="Arial" font-size="14.00">Manual(AttachGuard&lt;&#39;a&gt;)</text>
<polygon fill="none" stroke="black" points="478,-146.5 478,-237.5 662,-237.5 662,-146.5 478,-146.5"/>
</a>
</g>
</g>
<!-- ndReprC -->
<g id="node4" class="node"><title>ndReprC</title>
<g id="a_node4_4"><a xlink:href="https://github.com/maidsafe/sn_ffi_utils/blob/master/src/repr_c.rs#:~:text=trait%20ReprC" xlink:title="&lt;TABLE&gt;">
<polygon fill="lightgreen" stroke="none" points="697,-173 697,-210 763,-210 763,-173 697,-173"/>
<polygon fill="none" stroke="black" points="697,-173 697,-210 763,-210 763,-173 697,-173"/>
<text text-anchor="start" x="708" y="-188.8" font-family="Arial" font-weight="bold" font-size="14.00">ReprC</text>
<polygon fill="none" stroke="black" points="696,-172.5 696,-211.5 764,-211.5 764,-172.5 696,-172.5"/>
</a>
</g>
</g>
<!-- ndNativeResult -->
<g id="node8" class="node"><title>ndNativeResult</title>
<text text-anchor="middle" x="1236" y="-45.8" font-family="Times,serif" font-size="14.00">ndNativeResult</text>
</g>
<!-- ndReprC&#45;&gt;ndNativeResult -->
<g id="edge2" class="edge"><title>ndReprC&#45;&gt;ndNativeResult</title>
<path fill="none" stroke="black" stroke-dasharray="5,2" d="M745.113,-168.295C754.141,-156.532 766.637,-142.994 781,-135 908.423,-64.083 1083.88,-51.2498 1175.21,-49.7862"/>
<polygon fill="none" stroke="black" points="1175.43,-53.2839 1185.38,-49.665 1175.34,-46.2844 1175.43,-53.2839"/>
</g>
<!-- ndCallback -->
<g id="node5" class="node"><title>ndCallback</title>
<g id="a_node5_5"><a xlink:href="https://github.com/maidsafe/sn_ffi_utils/blob/master/src/callback.rs#:~:text=trait%20Callback" xlink:title="&lt;TABLE&gt;">
<polygon fill="lightgreen" stroke="none" points="1875,-173 1875,-210 1958,-210 1958,-173 1875,-173"/>
<polygon fill="none" stroke="black" points="1875,-173 1875,-210 1958,-210 1958,-173 1875,-173"/>
<text text-anchor="start" x="1886" y="-188.8" font-family="Arial" font-weight="bold" font-size="14.00">Callback</text>
<polygon fill="none" stroke="black" points="1873.5,-172.5 1873.5,-211.5 1958.5,-211.5 1958.5,-172.5 1873.5,-172.5"/>
</a>
</g>
</g>
<!-- ndCallbackArgs -->
<g id="node6" class="node"><title>ndCallbackArgs</title>
<g id="a_node6_6"><a xlink:href="https://github.com/maidsafe/sn_ffi_utils/blob/master/src/callback.rs#:~:text=trait%20CallbackArgs" xlink:title="&lt;TABLE&gt;">
<polygon fill="lightgreen" stroke="none" points="1994,-173 1994,-210 2110,-210 2110,-173 1994,-173"/>
<polygon fill="none" stroke="black" points="1994,-173 1994,-210 2110,-210 2110,-173 1994,-173"/>
<text text-anchor="start" x="2005" y="-188.8" font-family="Arial" font-weight="bold" font-size="14.00">CallbackArgs</text>
<polygon fill="none" stroke="black" points="1993,-172.5 1993,-211.5 2111,-211.5 2111,-172.5 1993,-172.5"/>
</a>
</g>
</g>
<!-- ndSafePtr -->
<g id="node7" class="node"><title>ndSafePtr</title>
<g id="a_node7_7"><a xlink:href="https://github.com/maidsafe/sn_ffi_utils/blob/master/src/vec.rs#:~:text=trait%20SafePtr" xlink:title="&lt;TABLE&gt;">
<polygon fill="lightgreen" stroke="none" points="2146,-173 2146,-210 2220,-210 2220,-173 2146,-173"/>
<polygon fill="none" stroke="black" points="2146,-173 2146,-210 2220,-210 2220,-173 2146,-173"/>
<text text-anchor="start" x="2157" y="-188.8" font-family="Arial" font-weight="bold" font-size="14.00">SafePtr</text>
<polygon fill="none" stroke="black" points="2145,-172.5 2145,-211.5 2221,-211.5 2221,-172.5 2145,-172.5"/>
</a>
</g>
</g>
<!-- ndFfiResult -->
<g id="node9" class="node"><title>ndFfiResult</title>
<g id="a_node9_8"><a xlink:href="https://github.com/maidsafe/sn_ffi_utils/blob/master/src/result.rs#:~:text=struct%20FfiResult" xlink:title="&lt;TABLE&gt;">
<polygon fill="lightblue" stroke="none" points="799,-199 799,-236 1674,-236 1674,-199 799,-199"/>
<polygon fill="none" stroke="black" points="799,-199 799,-236 1674,-236 1674,-199 799,-199"/>
<text text-anchor="start" x="810" y="-214.8" font-family="Arial" font-weight="bold" font-size="14.00">pub struct FfiResult { &#160;&#160;&#160;/// Unique error code. &#160;&#160;&#160;pub error_code: i32, &#160;&#160;&#160;/// Error description. &#160;&#160;&#160;pub description: *const c_char,}</text>
<polygon fill="white" stroke="none" points="799,-147 799,-199 1674,-199 1674,-147 799,-147"/>
<polygon fill="none" stroke="black" points="799,-147 799,-199 1674,-199 1674,-147 799,-147"/>
<text text-anchor="start" x="810" y="-176.8" font-family="Arial" font-size="14.00">+ error_code: i32</text>
<text text-anchor="start" x="810" y="-161.8" font-family="Arial" font-size="14.00">+ description: *const c_char</text>
<polygon fill="none" stroke="black" points="797.5,-146.5 797.5,-237.5 1674.5,-237.5 1674.5,-146.5 797.5,-146.5"/>
</a>
</g>
</g>
<!-- ndFfiResult&#45;&gt;ndNativeResult -->
<g id="edge3" class="edge"><title>ndFfiResult&#45;&gt;ndNativeResult</title>
<path fill="none" stroke="black" d="M1236,-142.254C1236,-120.756 1236,-96.2849 1236,-78.0241"/>
<polygon fill="black" stroke="black" points="1236,-67.7996 1240.5,-77.7995 1236,-72.7996 1236,-77.7996 1236,-77.7996 1236,-77.7996 1236,-72.7996 1231.5,-77.7996 1236,-67.7996 1236,-67.7996"/>
</g>
<!-- ndUserData -->
<g id="node10" class="node"><title>ndUserData</title>
<g id="a_node10_9"><a xlink:href="https://github.com/maidsafe/sn_ffi_utils/blob/master/src/test_utils.rs#:~:text=struct%20UserData" xlink:title="&lt;TABLE&gt;">
<polygon fill="lightblue" stroke="none" points="2257,-199 2257,-236 3480,-236 3480,-199 2257,-199"/>
<polygon fill="none" stroke="black" points="2257,-199 2257,-236 3480,-236 3480,-199 2257,-199"/>
<text text-anchor="start" x="2268" y="-214.8" font-family="Arial" font-weight="bold" font-size="14.00">pub struct UserData { &#160;&#160;&#160;/// Common field, used by standard callbacks. &#160;&#160;&#160;pub common: *mut c_void, &#160;&#160;&#160;/// Custom field, used by additional callbacks. &#160;&#160;&#160;pub custom: *mut c_void,}</text>
<polygon fill="white" stroke="none" points="2257,-147 2257,-199 3480,-199 3480,-147 2257,-147"/>
<polygon fill="none" stroke="black" points="2257,-147 2257,-199 3480,-199 3480,-147 2257,-147"/>
<text text-anchor="start" x="2268" y="-176.8" font-family="Arial" font-size="14.00">+ common: *mut c_void</text>
<text text-anchor="start" x="2268" y="-161.8" font-family="Arial" font-size="14.00">+ custom: *mut c_void</text>
<polygon fill="none" stroke="black" points="2255.5,-146.5 2255.5,-237.5 3480.5,-237.5 3480.5,-146.5 2255.5,-146.5"/>
</a>
</g>
</g>
<!-- ndSendWrapper -->
<g id="node11" class="node"><title>ndSendWrapper</title>
<text text-anchor="middle" x="3559" y="-188.3" font-family="Times,serif" font-size="14.00">ndSendWrapper</text>
</g>
<!-- ndStringError -->
<g id="node13" class="node"><title>ndStringError</title>
<g id="a_node13_10"><a xlink:href="https://github.com/maidsafe/sn_ffi_utils/blob/master/src/string.rs#:~:text=enum%20StringError" xlink:title="&lt;TABLE&gt;">
<polygon fill="yellow" stroke="none" points="1710,-207 1710,-244 1839,-244 1839,-207 1710,-207"/>
<polygon fill="none" stroke="black" points="1710,-207 1710,-244 1839,-244 1839,-207 1710,-207"/>
<text text-anchor="start" x="1735" y="-222.8" font-family="Arial" font-weight="bold" font-size="14.00">StringError</text>
<polygon fill="white" stroke="none" points="1710,-140 1710,-207 1839,-207 1839,-140 1710,-140"/>
<polygon fill="none" stroke="black" points="1710,-140 1710,-207 1839,-207 1839,-140 1710,-140"/>
<text text-anchor="start" x="1721" y="-184.8" font-family="Arial" font-size="14.00">Utf8(String)</text>
<text text-anchor="start" x="1721" y="-169.8" font-family="Arial" font-size="14.00">Null(String)</text>
<text text-anchor="start" x="1721" y="-154.8" font-family="Arial" font-size="14.00">IntoString(String)</text>
<polygon fill="none" stroke="black" points="1708.5,-139 1708.5,-245 1839.5,-245 1839.5,-139 1708.5,-139"/>
</a>
</g>
</g>
<!-- ndStringError&#45;&gt;ndNativeResult -->
<g id="edge4" class="edge"><title>ndStringError&#45;&gt;ndNativeResult</title>
<path fill="none" stroke="black" d="M1700.12,-138.63C1697.42,-137.333 1694.71,-136.117 1692,-135 1557.8,-79.6473 1386.44,-60.3491 1296.83,-53.7762"/>
<polygon fill="black" stroke="black" points="1286.84,-53.0716 1297.13,-49.2864 1291.83,-53.4234 1296.82,-53.7753 1296.82,-53.7753 1296.82,-53.7753 1291.83,-53.4234 1296.5,-58.2641 1286.84,-53.0716 1286.84,-53.0716"/>
</g>
</g>
</svg>
