<?xml version="1.0" encoding="UTF-8" standalone="no"?>
<!DOCTYPE svg PUBLIC "-//W3C//DTD SVG 1.1//EN"
 "http://www.w3.org/Graphics/SVG/1.1/DTD/svg11.dtd">
<!-- Generated by graphviz version 2.38.0 (20140413.2041)
 -->
<!-- Title: ml Pages: 1 -->
<svg width="3884pt" height="1453pt"
 viewBox="0.00 0.00 3884.00 1453.00" xmlns="http://www.w3.org/2000/svg" xmlns:xlink="http://www.w3.org/1999/xlink">
<g id="graph0" class="graph" transform="scale(1 1) rotate(0) translate(4 1449)">
<title>ml</title>
<polygon fill="white" stroke="none" points="-4,4 -4,-1449 3880,-1449 3880,4 -4,4"/>
<!-- ndFsInodePosix -->
<g id="node1" class="node"><title>ndFsInodePosix</title>
<g id="a_node1_0"><a xlink:href="https://github.com/maidsafe/sn_fs/blob/master/src/metadata.rs#:~:text=struct%20FsInodePosix" xlink:title="&lt;TABLE&gt;">
<polygon fill="lightblue" stroke="none" points="2373.5,-1342.5 2373.5,-1379.5 3029.5,-1379.5 3029.5,-1342.5 2373.5,-1342.5"/>
<polygon fill="none" stroke="black" points="2373.5,-1342.5 2373.5,-1379.5 3029.5,-1379.5 3029.5,-1342.5 2373.5,-1342.5"/>
<text text-anchor="start" x="2384.5" y="-1358.3" font-family="Arial" font-weight="bold" font-size="14.00">pub struct FsInodePosix { &#160;&#160;&#160;pub perm: u16, &#160;&#160;&#160;pub uid: u32, &#160;&#160;&#160;pub gid: u32, &#160;&#160;&#160;pub flags: u32,}</text>
<polygon fill="white" stroke="none" points="2373.5,-1260.5 2373.5,-1342.5 3029.5,-1342.5 3029.5,-1260.5 2373.5,-1260.5"/>
<polygon fill="none" stroke="black" points="2373.5,-1260.5 2373.5,-1342.5 3029.5,-1342.5 3029.5,-1260.5 2373.5,-1260.5"/>
<text text-anchor="start" x="2384.5" y="-1320.3" font-family="Arial" font-size="14.00">+ perm: u16</text>
<text text-anchor="start" x="2384.5" y="-1305.3" font-family="Arial" font-size="14.00">+ uid: u32</text>
<text text-anchor="start" x="2384.5" y="-1290.3" font-family="Arial" font-size="14.00">+ gid: u32</text>
<text text-anchor="start" x="2384.5" y="-1275.3" font-family="Arial" font-size="14.00">+ flags: u32</text>
<polygon fill="none" stroke="black" points="2372.5,-1260 2372.5,-1381 3030.5,-1381 3030.5,-1260 2372.5,-1260"/>
</a>
</g>
</g>
<!-- ndFsInodeOs -->
<g id="node3" class="node"><title>ndFsInodeOs</title>
<g id="a_node3_1"><a xlink:href="https://github.com/maidsafe/sn_fs/blob/master/src/metadata.rs#:~:text=enum%20FsInodeOs" xlink:title="&lt;TABLE&gt;">
<polygon fill="yellow" stroke="none" points="1031.5,-1117.5 1031.5,-1154.5 1412.5,-1154.5 1412.5,-1117.5 1031.5,-1117.5"/>
<polygon fill="none" stroke="black" points="1031.5,-1117.5 1031.5,-1154.5 1412.5,-1154.5 1412.5,-1117.5 1031.5,-1117.5"/>
<text text-anchor="start" x="1184" y="-1133.3" font-family="Arial" font-weight="bold" font-size="14.00">FsInodeOs</text>
<polygon fill="white" stroke="none" points="1031.5,-1050.5 1031.5,-1117.5 1412.5,-1117.5 1412.5,-1050.5 1031.5,-1050.5"/>
<polygon fill="none" stroke="black" points="1031.5,-1050.5 1031.5,-1117.5 1412.5,-1117.5 1412.5,-1050.5 1031.5,-1050.5"/>
<text text-anchor="start" x="1042.5" y="-1095.3" font-family="Arial" font-size="14.00">Posix(FsInodePosix)</text>
<text text-anchor="start" x="1042.5" y="-1080.3" font-family="Arial" font-size="14.00">Windows(FsInodeWindows)</text>
<text text-anchor="start" x="1042.5" y="-1065.3" font-family="Arial" font-size="14.00">Empty</text>
<polygon fill="white" stroke="none" points="1031.5,-983.5 1031.5,-1050.5 1412.5,-1050.5 1412.5,-983.5 1031.5,-983.5"/>
<polygon fill="none" stroke="black" points="1031.5,-983.5 1031.5,-1050.5 1412.5,-1050.5 1412.5,-983.5 1031.5,-983.5"/>
<text text-anchor="start" x="1042.5" y="-1028.3" font-family="Arial" font-size="14.00">&#45; posix(&amp;self) &#45;&gt; Option&lt;&amp;FsInodePosix&gt;</text>
<text text-anchor="start" x="1042.5" y="-1013.3" font-family="Arial" font-size="14.00">&#45; posix_mut(&amp;mut self) &#45;&gt; Option&lt;&amp;mut FsInodePosix&gt;</text>
<text text-anchor="start" x="1042.5" y="-998.3" font-family="Arial" font-size="14.00">&#45; windows(&amp;mut self) &#45;&gt; Option&lt;&amp;mut FsInodeWindows&gt;</text>
<polygon fill="none" stroke="black" points="1030,-983 1030,-1156 1413,-1156 1413,-983 1030,-983"/>
</a>
</g>
</g>
<!-- ndFsInodePosix&#45;&gt;ndFsInodeOs -->
<g id="edge1" class="edge"><title>ndFsInodePosix&#45;&gt;ndFsInodeOs</title>
<path fill="none" stroke="black" d="M2522.51,-1255.88C2455.2,-1234.04 2377.54,-1211.26 2305.5,-1196 2006.13,-1132.57 1652.98,-1099.22 1433.11,-1083.24"/>
<polygon fill="black" stroke="black" points="1433.08,-1083.24 1426.8,-1086.8 1421.11,-1082.38 1427.38,-1078.82 1433.08,-1083.24"/>
</g>
<!-- ndFsMetadata -->
<g id="node10" class="node"><title>ndFsMetadata</title>
<g id="a_node10_2"><a xlink:href="https://github.com/maidsafe/sn_fs/blob/master/src/metadata.rs#:~:text=enum%20FsMetadata" xlink:title="&lt;TABLE&gt;">
<polygon fill="yellow" stroke="none" points="2358.5,-556 2358.5,-593 2727.5,-593 2727.5,-556 2358.5,-556"/>
<polygon fill="none" stroke="black" points="2358.5,-556 2358.5,-593 2727.5,-593 2727.5,-556 2358.5,-556"/>
<text text-anchor="start" x="2502" y="-571.8" font-family="Arial" font-weight="bold" font-size="14.00">FsMetadata</text>
<polygon fill="white" stroke="none" points="2358.5,-459 2358.5,-556 2727.5,-556 2727.5,-459 2358.5,-459"/>
<polygon fill="none" stroke="black" points="2358.5,-459 2358.5,-556 2727.5,-556 2727.5,-459 2358.5,-459"/>
<text text-anchor="start" x="2369.5" y="-533.8" font-family="Arial" font-size="14.00">InodeDirectory(FsInodeDirectory)</text>
<text text-anchor="start" x="2369.5" y="-518.8" font-family="Arial" font-size="14.00">InodeSymlink(FsInodeSymlink)</text>
<text text-anchor="start" x="2369.5" y="-503.8" font-family="Arial" font-size="14.00">InodeFile(FsInodeFile)</text>
<text text-anchor="start" x="2369.5" y="-488.8" font-family="Arial" font-size="14.00">RefFile(FsRefFile)</text>
<text text-anchor="start" x="2369.5" y="-473.8" font-family="Arial" font-size="14.00">Empty</text>
<polygon fill="white" stroke="none" points="2358.5,-77 2358.5,-459 2727.5,-459 2727.5,-77 2358.5,-77"/>
<polygon fill="none" stroke="black" points="2358.5,-77 2358.5,-459 2727.5,-459 2727.5,-77 2358.5,-77"/>
<text text-anchor="start" x="2369.5" y="-436.8" font-family="Arial" font-size="14.00">&#45; name(&amp;self) &#45;&gt; &amp;OsStr</text>
<text text-anchor="start" x="2369.5" y="-421.8" font-family="Arial" font-size="14.00">&#45; is_inode_directory(&amp;self) &#45;&gt; bool</text>
<text text-anchor="start" x="2369.5" y="-406.8" font-family="Arial" font-size="14.00">&#45; is_inode_symlink(&amp;self) &#45;&gt; bool</text>
<text text-anchor="start" x="2369.5" y="-391.8" font-family="Arial" font-size="14.00">&#45; is_inode_file(&amp;self) &#45;&gt; bool</text>
<text text-anchor="start" x="2369.5" y="-376.8" font-family="Arial" font-size="14.00">&#45; is_ref_file(&amp;self) &#45;&gt; bool</text>
<text text-anchor="start" x="2369.5" y="-361.8" font-family="Arial" font-size="14.00">&#45; is_empty(&amp;self) &#45;&gt; bool</text>
<text text-anchor="start" x="2369.5" y="-346.8" font-family="Arial" font-size="14.00">&#45; dirent_kind(&amp;self) &#45;&gt; Option&lt;DirentKind&gt;</text>
<text text-anchor="start" x="2369.5" y="-331.8" font-family="Arial" font-size="14.00">&#45; size(&amp;self) &#45;&gt; u64</text>
<text text-anchor="start" x="2369.5" y="-316.8" font-family="Arial" font-size="14.00">&#45; mtime(&amp;self) &#45;&gt; Timespec</text>
<text text-anchor="start" x="2369.5" y="-301.8" font-family="Arial" font-size="14.00">&#45; set_mtime(&amp;mut self, ts: Timespec)</text>
<text text-anchor="start" x="2369.5" y="-286.8" font-family="Arial" font-size="14.00">&#45; ctime(&amp;self) &#45;&gt; Timespec</text>
<text text-anchor="start" x="2369.5" y="-271.8" font-family="Arial" font-size="14.00">&#45; set_ctime(&amp;mut self, ts: Timespec)</text>
<text text-anchor="start" x="2369.5" y="-256.8" font-family="Arial" font-size="14.00">&#45; crtime(&amp;self) &#45;&gt; Timespec</text>
<text text-anchor="start" x="2369.5" y="-241.8" font-family="Arial" font-size="14.00">&#45; set_crtime(&amp;mut self, ts: Timespec)</text>
<text text-anchor="start" x="2369.5" y="-226.8" font-family="Arial" font-size="14.00">&#45; set_size(&amp;mut self, size: u64)</text>
<text text-anchor="start" x="2369.5" y="-211.8" font-family="Arial" font-size="14.00">&#45; inode_id(&amp;self) &#45;&gt; Option&lt;u64&gt;</text>
<text text-anchor="start" x="2369.5" y="-196.8" font-family="Arial" font-size="14.00">&#45; set_name(&amp;mut self, name: &amp;OsStr)</text>
<text text-anchor="start" x="2369.5" y="-181.8" font-family="Arial" font-size="14.00">&#45; symlink(&amp;self) &#45;&gt; &amp;OsStr</text>
<text text-anchor="start" x="2369.5" y="-166.8" font-family="Arial" font-size="14.00">&#45; set_symlink(&amp;mut self, link: &amp;OsStr)</text>
<text text-anchor="start" x="2369.5" y="-151.8" font-family="Arial" font-size="14.00">&#45; links_dec(&amp;mut self) &#45;&gt; u32</text>
<text text-anchor="start" x="2369.5" y="-136.8" font-family="Arial" font-size="14.00">&#45; links_inc(&amp;mut self) &#45;&gt; u32</text>
<text text-anchor="start" x="2369.5" y="-121.8" font-family="Arial" font-size="14.00">&#45; links(&amp;self) &#45;&gt; u32</text>
<text text-anchor="start" x="2369.5" y="-106.8" font-family="Arial" font-size="14.00">&#45; posix(&amp;self) &#45;&gt; Option&lt;&amp;FsInodePosix&gt;</text>
<text text-anchor="start" x="2369.5" y="-91.8" font-family="Arial" font-size="14.00">&#45; posix_mut(&amp;mut self) &#45;&gt; Option&lt;&amp;mut FsInodePosix&gt;</text>
<polygon fill="none" stroke="black" points="2357,-76 2357,-594 2728,-594 2728,-76 2357,-76"/>
</a>
</g>
</g>
<!-- ndFsInodePosix&#45;&gt;ndFsMetadata -->
<g id="edge2" class="edge"><title>ndFsInodePosix&#45;&gt;ndFsMetadata</title>
<path fill="none" stroke="black" d="M2746.18,-1255.66C2827.1,-1131.57 2980.83,-850.933 2882.5,-634 2852.4,-567.599 2799.39,-510.153 2744.05,-463.905"/>
<polygon fill="black" stroke="black" points="2736.23,-457.454 2746.8,-460.345 2740.08,-460.635 2743.94,-463.816 2743.94,-463.816 2743.94,-463.816 2740.08,-460.635 2741.08,-467.288 2736.23,-457.454 2736.23,-457.454"/>
</g>
<!-- ndFsInodeWindows -->
<g id="node2" class="node"><title>ndFsInodeWindows</title>
<g id="a_node2_3"><a xlink:href="https://github.com/maidsafe/sn_fs/blob/master/src/metadata.rs#:~:text=struct%20FsInodeWindows" xlink:title="&lt;TABLE&gt;">
<polygon fill="lightblue" stroke="none" points="155.5,-1402.5 155.5,-1439.5 2287.5,-1439.5 2287.5,-1402.5 155.5,-1402.5"/>
<polygon fill="none" stroke="black" points="155.5,-1402.5 155.5,-1439.5 2287.5,-1439.5 2287.5,-1402.5 155.5,-1402.5"/>
<text text-anchor="start" x="166.5" y="-1418.3" font-family="Arial" font-weight="bold" font-size="14.00">pub struct FsInodeWindows { &#160;&#160;&#160;pub archive: bool, &#160;&#160;&#160;pub hidden: bool, &#160;&#160;&#160;pub system: bool, &#160;&#160;&#160;pub readonly: bool, &#160;&#160;&#160;pub compressed: bool, &#160;&#160;&#160;pub encrypted: bool, &#160;&#160;&#160;pub notcontentindexed: bool, &#160;&#160;&#160;pub reparsepoint: bool, &#160;&#160;&#160;pub notindexed: bool, &#160;&#160;&#160;pub offline: bool, &#160;&#160;&#160;pub sparse: bool, &#160;&#160;&#160;pub temporary: bool,}</text>
<polygon fill="white" stroke="none" points="155.5,-1200.5 155.5,-1402.5 2287.5,-1402.5 2287.5,-1200.5 155.5,-1200.5"/>
<polygon fill="none" stroke="black" points="155.5,-1200.5 155.5,-1402.5 2287.5,-1402.5 2287.5,-1200.5 155.5,-1200.5"/>
<text text-anchor="start" x="166.5" y="-1380.3" font-family="Arial" font-size="14.00">+ archive: bool</text>
<text text-anchor="start" x="166.5" y="-1365.3" font-family="Arial" font-size="14.00">+ hidden: bool</text>
<text text-anchor="start" x="166.5" y="-1350.3" font-family="Arial" font-size="14.00">+ system: bool</text>
<text text-anchor="start" x="166.5" y="-1335.3" font-family="Arial" font-size="14.00">+ readonly: bool</text>
<text text-anchor="start" x="166.5" y="-1320.3" font-family="Arial" font-size="14.00">+ compressed: bool</text>
<text text-anchor="start" x="166.5" y="-1305.3" font-family="Arial" font-size="14.00">+ encrypted: bool</text>
<text text-anchor="start" x="166.5" y="-1290.3" font-family="Arial" font-size="14.00">+ notcontentindexed: bool</text>
<text text-anchor="start" x="166.5" y="-1275.3" font-family="Arial" font-size="14.00">+ reparsepoint: bool</text>
<text text-anchor="start" x="166.5" y="-1260.3" font-family="Arial" font-size="14.00">+ notindexed: bool</text>
<text text-anchor="start" x="166.5" y="-1245.3" font-family="Arial" font-size="14.00">+ offline: bool</text>
<text text-anchor="start" x="166.5" y="-1230.3" font-family="Arial" font-size="14.00">+ sparse: bool</text>
<text text-anchor="start" x="166.5" y="-1215.3" font-family="Arial" font-size="14.00">+ temporary: bool</text>
<polygon fill="none" stroke="black" points="154.5,-1200 154.5,-1441 2288.5,-1441 2288.5,-1200 154.5,-1200"/>
</a>
</g>
</g>
<!-- ndFsInodeWindows&#45;&gt;ndFsInodeOs -->
<g id="edge3" class="edge"><title>ndFsInodeWindows&#45;&gt;ndFsInodeOs</title>
<path fill="none" stroke="black" d="M1221.5,-1195.73C1221.5,-1187.88 1221.5,-1180.03 1221.5,-1172.29"/>
<polygon fill="black" stroke="black" points="1221.5,-1172.26 1217.5,-1166.26 1221.5,-1160.26 1225.5,-1166.26 1221.5,-1172.26"/>
</g>
<!-- ndFsInodeCommon -->
<g id="node4" class="node"><title>ndFsInodeCommon</title>
<g id="a_node4_4"><a xlink:href="https://github.com/maidsafe/sn_fs/blob/master/src/metadata.rs#:~:text=struct%20FsInodeCommon" xlink:title="&lt;TABLE&gt;">
<polygon fill="lightblue" stroke="none" points="227.5,-900.5 227.5,-937.5 2016.5,-937.5 2016.5,-900.5 227.5,-900.5"/>
<polygon fill="none" stroke="black" points="227.5,-900.5 227.5,-937.5 2016.5,-937.5 2016.5,-900.5 227.5,-900.5"/>
<text text-anchor="start" x="238.5" y="-916.3" font-family="Arial" font-weight="bold" font-size="14.00">pub struct FsInodeCommon { &#160;&#160;&#160;pub size: u64, &#160;&#160;&#160;pub mtime: Timespec, &#160;// modified time. (file contents changed) &#160;&#160;&#160;pub ctime: Timespec, &#160;// changed time. &#160;(metadata changed) &#160;&#160;&#160;pub crtime: Timespec, // created time. &#160;&#160;&#160;pub links: u32, &#160;&#160;&#160;pub osattrs: FsInodeOs,}</text>
<polygon fill="white" stroke="none" points="227.5,-788.5 227.5,-900.5 2016.5,-900.5 2016.5,-788.5 227.5,-788.5"/>
<polygon fill="none" stroke="black" points="227.5,-788.5 227.5,-900.5 2016.5,-900.5 2016.5,-788.5 227.5,-788.5"/>
<text text-anchor="start" x="238.5" y="-878.3" font-family="Arial" font-size="14.00">+ size: u64</text>
<text text-anchor="start" x="238.5" y="-863.3" font-family="Arial" font-size="14.00">+ mtime: Timespec</text>
<text text-anchor="start" x="238.5" y="-848.3" font-family="Arial" font-size="14.00">+ ctime: Timespec</text>
<text text-anchor="start" x="238.5" y="-833.3" font-family="Arial" font-size="14.00">+ crtime: Timespec</text>
<text text-anchor="start" x="238.5" y="-818.3" font-family="Arial" font-size="14.00">+ links: u32</text>
<text text-anchor="start" x="238.5" y="-803.3" font-family="Arial" font-size="14.00">+ osattrs: FsInodeOs</text>
<polygon fill="none" stroke="black" points="226,-788 226,-939 2017,-939 2017,-788 226,-788"/>
</a>
</g>
</g>
<!-- ndFsInodeOs&#45;&gt;ndFsInodeCommon -->
<g id="edge4" class="edge"><title>ndFsInodeOs&#45;&gt;ndFsInodeCommon</title>
<path fill="none" stroke="black" d="M1177.49,-978.726C1173.49,-970.568 1169.44,-962.305 1165.45,-954.149"/>
<polygon fill="black" stroke="black" points="1165.32,-953.887 1159.08,-950.261 1160.04,-943.112 1166.27,-946.739 1165.32,-953.887"/>
</g>
<!-- ndFsInodeDirectory -->
<g id="node5" class="node"><title>ndFsInodeDirectory</title>
<g id="a_node5_5"><a xlink:href="https://github.com/maidsafe/sn_fs/blob/master/src/metadata.rs#:~:text=struct%20FsInodeDirectory" xlink:title="&lt;TABLE&gt;">
<polygon fill="lightblue" stroke="none" points="9.5,-698 9.5,-735 638.5,-735 638.5,-698 9.5,-698"/>
<polygon fill="none" stroke="black" points="9.5,-698 9.5,-735 638.5,-735 638.5,-698 9.5,-698"/>
<text text-anchor="start" x="20.5" y="-713.8" font-family="Arial" font-weight="bold" font-size="14.00">pub struct FsInodeDirectory { &#160;&#160;&#160;pub common: FsInodeCommon, &#160;&#160;&#160;pub name: OsString,}</text>
<polygon fill="white" stroke="none" points="9.5,-646 9.5,-698 638.5,-698 638.5,-646 9.5,-646"/>
<polygon fill="none" stroke="black" points="9.5,-646 9.5,-698 638.5,-698 638.5,-646 9.5,-646"/>
<text text-anchor="start" x="20.5" y="-675.8" font-family="Arial" font-size="14.00">+ common: FsInodeCommon</text>
<text text-anchor="start" x="20.5" y="-660.8" font-family="Arial" font-size="14.00">+ name: OsString</text>
<polygon fill="none" stroke="black" points="8,-645.5 8,-736.5 639,-736.5 639,-645.5 8,-645.5"/>
</a>
</g>
</g>
<!-- ndFsInodeCommon&#45;&gt;ndFsInodeDirectory -->
<g id="edge5" class="edge"><title>ndFsInodeCommon&#45;&gt;ndFsInodeDirectory</title>
<path fill="none" stroke="black" d="M754.032,-783.987C689.031,-770.099 622.906,-755.971 562.617,-743.09"/>
<polygon fill="black" stroke="black" points="562.374,-743.038 555.671,-745.696 550.639,-740.53 557.342,-737.872 562.374,-743.038"/>
</g>
<!-- ndFsInodeSymlink -->
<g id="node6" class="node"><title>ndFsInodeSymlink</title>
<g id="a_node6_6"><a xlink:href="https://github.com/maidsafe/sn_fs/blob/master/src/metadata.rs#:~:text=struct%20FsInodeSymlink" xlink:title="&lt;TABLE&gt;">
<polygon fill="lightblue" stroke="none" points="674.5,-706 674.5,-743 1468.5,-743 1468.5,-706 674.5,-706"/>
<polygon fill="none" stroke="black" points="674.5,-706 674.5,-743 1468.5,-743 1468.5,-706 674.5,-706"/>
<text text-anchor="start" x="685.5" y="-721.8" font-family="Arial" font-weight="bold" font-size="14.00">pub struct FsInodeSymlink { &#160;&#160;&#160;pub common: FsInodeCommon, &#160;&#160;&#160;pub name: OsString, &#160;&#160;&#160;pub symlink: OsString,}</text>
<polygon fill="white" stroke="none" points="674.5,-639 674.5,-706 1468.5,-706 1468.5,-639 674.5,-639"/>
<polygon fill="none" stroke="black" points="674.5,-639 674.5,-706 1468.5,-706 1468.5,-639 674.5,-639"/>
<text text-anchor="start" x="685.5" y="-683.8" font-family="Arial" font-size="14.00">+ common: FsInodeCommon</text>
<text text-anchor="start" x="685.5" y="-668.8" font-family="Arial" font-size="14.00">+ name: OsString</text>
<text text-anchor="start" x="685.5" y="-653.8" font-family="Arial" font-size="14.00">+ symlink: OsString</text>
<polygon fill="none" stroke="black" points="673.5,-638 673.5,-744 1469.5,-744 1469.5,-638 673.5,-638"/>
</a>
</g>
</g>
<!-- ndFsInodeCommon&#45;&gt;ndFsInodeSymlink -->
<g id="edge6" class="edge"><title>ndFsInodeCommon&#45;&gt;ndFsInodeSymlink</title>
<path fill="none" stroke="black" d="M1098.4,-783.738C1096.06,-775.742 1093.69,-767.669 1091.38,-759.804"/>
<polygon fill="black" stroke="black" points="1091.32,-759.577 1085.79,-754.946 1087.94,-748.062 1093.47,-752.694 1091.32,-759.577"/>
</g>
<!-- ndFsInodeFile -->
<g id="node7" class="node"><title>ndFsInodeFile</title>
<g id="a_node7_7"><a xlink:href="https://github.com/maidsafe/sn_fs/blob/master/src/metadata.rs#:~:text=struct%20FsInodeFile" xlink:title="&lt;TABLE&gt;">
<polygon fill="lightblue" stroke="none" points="1505.5,-691 1505.5,-728 2864.5,-728 2864.5,-691 1505.5,-691"/>
<polygon fill="none" stroke="black" points="1505.5,-691 1505.5,-728 2864.5,-728 2864.5,-691 1505.5,-691"/>
<text text-anchor="start" x="1516.5" y="-706.8" font-family="Arial" font-weight="bold" font-size="14.00">pub struct FsInodeFile { &#160;&#160;&#160;pub common: FsInodeCommon, &#160;&#160;&#160;// public xorname; &#160;&#160;In the future, we expect to store file content in SafeNetwork, referenced by XorName. &#160;&#160;&#160;// pub content: SparseBuf,}</text>
<polygon fill="white" stroke="none" points="1505.5,-654 1505.5,-691 2864.5,-691 2864.5,-654 1505.5,-654"/>
<polygon fill="none" stroke="black" points="1505.5,-654 1505.5,-691 2864.5,-691 2864.5,-654 1505.5,-654"/>
<text text-anchor="start" x="1516.5" y="-668.8" font-family="Arial" font-size="14.00">+ common: FsInodeCommon</text>
<polygon fill="none" stroke="black" points="1504,-653 1504,-729 2865,-729 2865,-653 1504,-653"/>
</a>
</g>
</g>
<!-- ndFsInodeCommon&#45;&gt;ndFsInodeFile -->
<g id="edge7" class="edge"><title>ndFsInodeCommon&#45;&gt;ndFsInodeFile</title>
<path fill="none" stroke="black" d="M1611,-783.987C1716.29,-767.099 1823.79,-749.855 1916.84,-734.931"/>
<polygon fill="black" stroke="black" points="1916.85,-734.929 1922.15,-730.029 1928.7,-733.029 1923.41,-737.928 1916.85,-734.929"/>
</g>
<!-- ndFsInodeDirectory&#45;&gt;ndFsMetadata -->
<g id="edge8" class="edge"><title>ndFsInodeDirectory&#45;&gt;ndFsMetadata</title>
<path fill="none" stroke="black" d="M610.913,-641.482C626.33,-638.937 641.601,-636.43 656.5,-634 1267.35,-534.38 1990.38,-421.56 2337.03,-367.783"/>
<polygon fill="black" stroke="black" points="2337.09,-367.774 2342.41,-362.902 2348.95,-365.935 2343.64,-370.807 2337.09,-367.774"/>
</g>
<!-- ndFsInodeSymlink&#45;&gt;ndFsMetadata -->
<g id="edge9" class="edge"><title>ndFsInodeSymlink&#45;&gt;ndFsMetadata</title>
<path fill="none" stroke="black" d="M1304.58,-633.908C1589.06,-565.447 2065.62,-450.761 2336.97,-385.461"/>
<polygon fill="black" stroke="black" points="2337.27,-385.389 2342.17,-380.096 2348.94,-382.581 2344.04,-387.874 2337.27,-385.389"/>
</g>
<!-- ndFsInodeFile&#45;&gt;ndFsMetadata -->
<g id="edge10" class="edge"><title>ndFsInodeFile&#45;&gt;ndFsMetadata</title>
<path fill="none" stroke="black" d="M2226.27,-648.699C2255.49,-619.802 2296.91,-578.846 2340.18,-536.061"/>
<polygon fill="black" stroke="black" points="2340.32,-535.92 2341.77,-528.857 2348.85,-527.483 2347.4,-534.546 2340.32,-535.92"/>
</g>
<!-- ndFsRefFile -->
<g id="node8" class="node"><title>ndFsRefFile</title>
<g id="a_node8_8"><a xlink:href="https://github.com/maidsafe/sn_fs/blob/master/src/metadata.rs#:~:text=struct%20FsRefFile" xlink:title="&lt;TABLE&gt;">
<polygon fill="lightblue" stroke="none" points="2939.5,-698 2939.5,-735 3734.5,-735 3734.5,-698 2939.5,-698"/>
<polygon fill="none" stroke="black" points="2939.5,-698 2939.5,-735 3734.5,-735 3734.5,-698 2939.5,-698"/>
<text text-anchor="start" x="2950.5" y="-713.8" font-family="Arial" font-weight="bold" font-size="14.00">pub struct FsRefFile { &#160;&#160;&#160;pub name: OsString, &#160;&#160;&#160;pub inode_id: u64, // for looking up FsInodeFile under /inodefiles}</text>
<polygon fill="white" stroke="none" points="2939.5,-646 2939.5,-698 3734.5,-698 3734.5,-646 2939.5,-646"/>
<polygon fill="none" stroke="black" points="2939.5,-646 2939.5,-698 3734.5,-698 3734.5,-646 2939.5,-646"/>
<text text-anchor="start" x="2950.5" y="-675.8" font-family="Arial" font-size="14.00">+ name: OsString</text>
<text text-anchor="start" x="2950.5" y="-660.8" font-family="Arial" font-size="14.00">+ inode_id: u64</text>
<polygon fill="none" stroke="black" points="2938,-645.5 2938,-736.5 3735,-736.5 3735,-645.5 2938,-645.5"/>
</a>
</g>
</g>
<!-- ndFsRefFile&#45;&gt;ndFsMetadata -->
<g id="edge11" class="edge"><title>ndFsRefFile&#45;&gt;ndFsMetadata</title>
<path fill="none" stroke="black" d="M3227.35,-641.335C3104.08,-586.377 2900.75,-495.723 2747.59,-427.439"/>
<polygon fill="black" stroke="black" points="2747.15,-427.242 2740.04,-428.453 2736.19,-422.356 2743.3,-421.146 2747.15,-427.242"/>
</g>
<!-- ndDirentKind -->
<g id="node9" class="node"><title>ndDirentKind</title>
<g id="a_node9_9"><a xlink:href="https://github.com/maidsafe/sn_fs/blob/master/src/metadata.rs#:~:text=enum%20DirentKind" xlink:title="&lt;TABLE&gt;">
<polygon fill="yellow" stroke="none" points="3770.5,-706 3770.5,-743 3867.5,-743 3867.5,-706 3770.5,-706"/>
<polygon fill="none" stroke="black" points="3770.5,-706 3770.5,-743 3867.5,-743 3867.5,-706 3770.5,-706"/>
<text text-anchor="start" x="3781.5" y="-721.8" font-family="Arial" font-weight="bold" font-size="14.00">DirentKind</text>
<polygon fill="white" stroke="none" points="3770.5,-639 3770.5,-706 3867.5,-706 3867.5,-639 3770.5,-639"/>
<polygon fill="none" stroke="black" points="3770.5,-639 3770.5,-706 3867.5,-706 3867.5,-639 3770.5,-639"/>
<text text-anchor="start" x="3781.5" y="-683.8" font-family="Arial" font-size="14.00">File</text>
<text text-anchor="start" x="3781.5" y="-668.8" font-family="Arial" font-size="14.00">Directory</text>
<text text-anchor="start" x="3781.5" y="-653.8" font-family="Arial" font-size="14.00">Symlink</text>
<polygon fill="none" stroke="black" points="3769,-638 3769,-744 3868,-744 3868,-638 3769,-638"/>
</a>
</g>
</g>
<!-- ndDirentKind&#45;&gt;ndFsMetadata -->
<g id="edge12" class="edge"><title>ndDirentKind&#45;&gt;ndFsMetadata</title>
<path fill="none" stroke="black" d="M3760.86,-638.7C3758.1,-637.014 3755.31,-635.436 3752.5,-634 3423.67,-465.914 2995.39,-389.491 2746.48,-357.223"/>
<polygon fill="black" stroke="black" points="2736.24,-355.907 2746.73,-352.718 2741.2,-356.544 2746.16,-357.181 2746.16,-357.181 2746.16,-357.181 2741.2,-356.544 2745.58,-361.645 2736.24,-355.907 2736.24,-355.907"/>
</g>
<!-- ndSnFs -->
<g id="node11" class="node"><title>ndSnFs</title>
<text text-anchor="middle" x="2542.5" y="-14.3" font-family="Times,serif" font-size="14.00">ndSnFs</text>
</g>
<!-- ndFsMetadata&#45;&gt;ndSnFs -->
<g id="edge13" class="edge"><title>ndFsMetadata&#45;&gt;ndSnFs</title>
<path fill="none" stroke="black" stroke-dasharray="5,2" d="M2542.5,-71.7239C2542.5,-62.255 2542.5,-53.7108 2542.5,-46.3921"/>
<polygon fill="black" stroke="black" points="2542.5,-36.2648 2547,-46.2647 2542.5,-41.2648 2542.5,-46.2648 2542.5,-46.2648 2542.5,-46.2648 2542.5,-41.2648 2538,-46.2648 2542.5,-36.2648 2542.5,-36.2648"/>
</g>
</g>
</svg>
