<?xml version="1.0" encoding="UTF-8" standalone="no"?>
<!DOCTYPE svg PUBLIC "-//W3C//DTD SVG 1.1//EN"
 "http://www.w3.org/Graphics/SVG/1.1/DTD/svg11.dtd">
<!-- Generated by graphviz version 2.38.0 (20140413.2041)
 -->
<!-- Title: ml Pages: 1 -->
<svg width="3884pt" height="1004pt"
 viewBox="0.00 0.00 3884.00 1004.00" xmlns="http://www.w3.org/2000/svg" xmlns:xlink="http://www.w3.org/1999/xlink">
<g id="graph0" class="graph" transform="scale(1 1) rotate(0) translate(4 1000)">
<title>ml</title>
<polygon fill="white" stroke="none" points="-4,4 -4,-1000 3880,-1000 3880,4 -4,4"/>
<!-- ndFsInodePosix -->
<g id="node1" class="node"><title>ndFsInodePosix</title>
<g id="a_node1_0"><a xlink:href="https://github.com/maidsafe/sn_fs/blob/master/src/metadata.rs#:~:text=struct%20FsInodePosix" xlink:title="&lt;TABLE&gt;">
<polygon fill="lightblue" stroke="none" points="2373.5,-893.5 2373.5,-930.5 3029.5,-930.5 3029.5,-893.5 2373.5,-893.5"/>
<polygon fill="none" stroke="black" points="2373.5,-893.5 2373.5,-930.5 3029.5,-930.5 3029.5,-893.5 2373.5,-893.5"/>
<text text-anchor="start" x="2384.5" y="-909.3" font-family="Arial" font-weight="bold" font-size="14.00">pub struct FsInodePosix { &#160;&#160;&#160;pub perm: u16, &#160;&#160;&#160;pub uid: u32, &#160;&#160;&#160;pub gid: u32, &#160;&#160;&#160;pub flags: u32,}</text>
<polygon fill="white" stroke="none" points="2373.5,-811.5 2373.5,-893.5 3029.5,-893.5 3029.5,-811.5 2373.5,-811.5"/>
<polygon fill="none" stroke="black" points="2373.5,-811.5 2373.5,-893.5 3029.5,-893.5 3029.5,-811.5 2373.5,-811.5"/>
<text text-anchor="start" x="2384.5" y="-871.3" font-family="Arial" font-size="14.00">+ perm: u16</text>
<text text-anchor="start" x="2384.5" y="-856.3" font-family="Arial" font-size="14.00">+ uid: u32</text>
<text text-anchor="start" x="2384.5" y="-841.3" font-family="Arial" font-size="14.00">+ gid: u32</text>
<text text-anchor="start" x="2384.5" y="-826.3" font-family="Arial" font-size="14.00">+ flags: u32</text>
<polygon fill="none" stroke="black" points="2372.5,-811 2372.5,-932 3030.5,-932 3030.5,-811 2372.5,-811"/>
</a>
</g>
</g>
<!-- ndFsInodeOs -->
<g id="node3" class="node"><title>ndFsInodeOs</title>
<g id="a_node3_1"><a xlink:href="https://github.com/maidsafe/sn_fs/blob/master/src/metadata.rs#:~:text=enum%20FsInodeOs" xlink:title="&lt;TABLE&gt;">
<polygon fill="yellow" stroke="none" points="1120.5,-669 1120.5,-706 1322.5,-706 1322.5,-669 1120.5,-669"/>
<polygon fill="none" stroke="black" points="1120.5,-669 1120.5,-706 1322.5,-706 1322.5,-669 1120.5,-669"/>
<text text-anchor="start" x="1183.5" y="-684.8" font-family="Arial" font-weight="bold" font-size="14.00">FsInodeOs</text>
<polygon fill="white" stroke="none" points="1120.5,-602 1120.5,-669 1322.5,-669 1322.5,-602 1120.5,-602"/>
<polygon fill="none" stroke="black" points="1120.5,-602 1120.5,-669 1322.5,-669 1322.5,-602 1120.5,-602"/>
<text text-anchor="start" x="1131.5" y="-646.8" font-family="Arial" font-size="14.00">Posix(FsInodePosix)</text>
<text text-anchor="start" x="1131.5" y="-631.8" font-family="Arial" font-size="14.00">Windows(FsInodeWindows)</text>
<text text-anchor="start" x="1131.5" y="-616.8" font-family="Arial" font-size="14.00">Empty</text>
<polygon fill="none" stroke="black" points="1119.5,-601 1119.5,-707 1323.5,-707 1323.5,-601 1119.5,-601"/>
</a>
</g>
</g>
<!-- ndFsInodePosix&#45;&gt;ndFsInodeOs -->
<g id="edge1" class="edge"><title>ndFsInodePosix&#45;&gt;ndFsInodeOs</title>
<path fill="none" stroke="black" d="M2526.69,-806.979C2458.52,-784.595 2379.18,-761.436 2305.5,-747 1961.3,-679.557 1546.05,-661.55 1343.95,-656.745"/>
<polygon fill="black" stroke="black" points="1343.83,-656.743 1337.74,-660.604 1331.84,-656.467 1337.93,-652.606 1343.83,-656.743"/>
</g>
<!-- ndFsMetadata -->
<g id="node10" class="node"><title>ndFsMetadata</title>
<g id="a_node10_2"><a xlink:href="https://github.com/maidsafe/sn_fs/blob/master/src/metadata.rs#:~:text=enum%20FsMetadata" xlink:title="&lt;TABLE&gt;">
<polygon fill="yellow" stroke="none" points="2424.5,-174 2424.5,-211 2660.5,-211 2660.5,-174 2424.5,-174"/>
<polygon fill="none" stroke="black" points="2424.5,-174 2424.5,-211 2660.5,-211 2660.5,-174 2424.5,-174"/>
<text text-anchor="start" x="2501.5" y="-189.8" font-family="Arial" font-weight="bold" font-size="14.00">FsMetadata</text>
<polygon fill="white" stroke="none" points="2424.5,-77 2424.5,-174 2660.5,-174 2660.5,-77 2424.5,-77"/>
<polygon fill="none" stroke="black" points="2424.5,-77 2424.5,-174 2660.5,-174 2660.5,-77 2424.5,-77"/>
<text text-anchor="start" x="2435.5" y="-151.8" font-family="Arial" font-size="14.00">InodeDirectory(FsInodeDirectory)</text>
<text text-anchor="start" x="2435.5" y="-136.8" font-family="Arial" font-size="14.00">InodeSymlink(FsInodeSymlink)</text>
<text text-anchor="start" x="2435.5" y="-121.8" font-family="Arial" font-size="14.00">InodeFile(FsInodeFile)</text>
<text text-anchor="start" x="2435.5" y="-106.8" font-family="Arial" font-size="14.00">RefFile(FsRefFile)</text>
<text text-anchor="start" x="2435.5" y="-91.8" font-family="Arial" font-size="14.00">Empty</text>
<polygon fill="none" stroke="black" points="2423.5,-76 2423.5,-212 2661.5,-212 2661.5,-76 2423.5,-76"/>
</a>
</g>
</g>
<!-- ndFsInodePosix&#45;&gt;ndFsMetadata -->
<g id="edge2" class="edge"><title>ndFsInodePosix&#45;&gt;ndFsMetadata</title>
<path fill="none" stroke="black" d="M2733.58,-806.828C2801.53,-667.744 2948.56,-342.04 2882.5,-252 2857.54,-217.984 2762.72,-189.849 2679.53,-170.98"/>
<polygon fill="black" stroke="black" points="2669.71,-168.783 2680.45,-166.575 2674.59,-169.874 2679.47,-170.966 2679.47,-170.966 2679.47,-170.966 2674.59,-169.874 2678.49,-175.358 2669.71,-168.783 2669.71,-168.783"/>
</g>
<!-- ndFsInodeWindows -->
<g id="node2" class="node"><title>ndFsInodeWindows</title>
<g id="a_node2_3"><a xlink:href="https://github.com/maidsafe/sn_fs/blob/master/src/metadata.rs#:~:text=struct%20FsInodeWindows" xlink:title="&lt;TABLE&gt;">
<polygon fill="lightblue" stroke="none" points="155.5,-953.5 155.5,-990.5 2287.5,-990.5 2287.5,-953.5 155.5,-953.5"/>
<polygon fill="none" stroke="black" points="155.5,-953.5 155.5,-990.5 2287.5,-990.5 2287.5,-953.5 155.5,-953.5"/>
<text text-anchor="start" x="166.5" y="-969.3" font-family="Arial" font-weight="bold" font-size="14.00">pub struct FsInodeWindows { &#160;&#160;&#160;pub archive: bool, &#160;&#160;&#160;pub hidden: bool, &#160;&#160;&#160;pub system: bool, &#160;&#160;&#160;pub readonly: bool, &#160;&#160;&#160;pub compressed: bool, &#160;&#160;&#160;pub encrypted: bool, &#160;&#160;&#160;pub notcontentindexed: bool, &#160;&#160;&#160;pub reparsepoint: bool, &#160;&#160;&#160;pub notindexed: bool, &#160;&#160;&#160;pub offline: bool, &#160;&#160;&#160;pub sparse: bool, &#160;&#160;&#160;pub temporary: bool,}</text>
<polygon fill="white" stroke="none" points="155.5,-751.5 155.5,-953.5 2287.5,-953.5 2287.5,-751.5 155.5,-751.5"/>
<polygon fill="none" stroke="black" points="155.5,-751.5 155.5,-953.5 2287.5,-953.5 2287.5,-751.5 155.5,-751.5"/>
<text text-anchor="start" x="166.5" y="-931.3" font-family="Arial" font-size="14.00">+ archive: bool</text>
<text text-anchor="start" x="166.5" y="-916.3" font-family="Arial" font-size="14.00">+ hidden: bool</text>
<text text-anchor="start" x="166.5" y="-901.3" font-family="Arial" font-size="14.00">+ system: bool</text>
<text text-anchor="start" x="166.5" y="-886.3" font-family="Arial" font-size="14.00">+ readonly: bool</text>
<text text-anchor="start" x="166.5" y="-871.3" font-family="Arial" font-size="14.00">+ compressed: bool</text>
<text text-anchor="start" x="166.5" y="-856.3" font-family="Arial" font-size="14.00">+ encrypted: bool</text>
<text text-anchor="start" x="166.5" y="-841.3" font-family="Arial" font-size="14.00">+ notcontentindexed: bool</text>
<text text-anchor="start" x="166.5" y="-826.3" font-family="Arial" font-size="14.00">+ reparsepoint: bool</text>
<text text-anchor="start" x="166.5" y="-811.3" font-family="Arial" font-size="14.00">+ notindexed: bool</text>
<text text-anchor="start" x="166.5" y="-796.3" font-family="Arial" font-size="14.00">+ offline: bool</text>
<text text-anchor="start" x="166.5" y="-781.3" font-family="Arial" font-size="14.00">+ sparse: bool</text>
<text text-anchor="start" x="166.5" y="-766.3" font-family="Arial" font-size="14.00">+ temporary: bool</text>
<polygon fill="none" stroke="black" points="154.5,-751 154.5,-992 2288.5,-992 2288.5,-751 154.5,-751"/>
</a>
</g>
</g>
<!-- ndFsInodeWindows&#45;&gt;ndFsInodeOs -->
<g id="edge3" class="edge"><title>ndFsInodeWindows&#45;&gt;ndFsInodeOs</title>
<path fill="none" stroke="black" d="M1221.5,-746.704C1221.5,-738.675 1221.5,-730.768 1221.5,-723.165"/>
<polygon fill="black" stroke="black" points="1221.5,-723.099 1217.5,-717.099 1221.5,-711.099 1225.5,-717.099 1221.5,-723.099"/>
</g>
<!-- ndFsInodeCommon -->
<g id="node4" class="node"><title>ndFsInodeCommon</title>
<g id="a_node4_4"><a xlink:href="https://github.com/maidsafe/sn_fs/blob/master/src/metadata.rs#:~:text=struct%20FsInodeCommon" xlink:title="&lt;TABLE&gt;">
<polygon fill="lightblue" stroke="none" points="227.5,-518.5 227.5,-555.5 2016.5,-555.5 2016.5,-518.5 227.5,-518.5"/>
<polygon fill="none" stroke="black" points="227.5,-518.5 227.5,-555.5 2016.5,-555.5 2016.5,-518.5 227.5,-518.5"/>
<text text-anchor="start" x="238.5" y="-534.3" font-family="Arial" font-weight="bold" font-size="14.00">pub struct FsInodeCommon { &#160;&#160;&#160;pub size: u64, &#160;&#160;&#160;pub mtime: Timespec, &#160;// modified time. (file contents changed) &#160;&#160;&#160;pub ctime: Timespec, &#160;// changed time. &#160;(metadata changed) &#160;&#160;&#160;pub crtime: Timespec, // created time. &#160;&#160;&#160;pub links: u32, &#160;&#160;&#160;pub osattrs: FsInodeOs,}</text>
<polygon fill="white" stroke="none" points="227.5,-406.5 227.5,-518.5 2016.5,-518.5 2016.5,-406.5 227.5,-406.5"/>
<polygon fill="none" stroke="black" points="227.5,-406.5 227.5,-518.5 2016.5,-518.5 2016.5,-406.5 227.5,-406.5"/>
<text text-anchor="start" x="238.5" y="-496.3" font-family="Arial" font-size="14.00">+ size: u64</text>
<text text-anchor="start" x="238.5" y="-481.3" font-family="Arial" font-size="14.00">+ mtime: Timespec</text>
<text text-anchor="start" x="238.5" y="-466.3" font-family="Arial" font-size="14.00">+ ctime: Timespec</text>
<text text-anchor="start" x="238.5" y="-451.3" font-family="Arial" font-size="14.00">+ crtime: Timespec</text>
<text text-anchor="start" x="238.5" y="-436.3" font-family="Arial" font-size="14.00">+ links: u32</text>
<text text-anchor="start" x="238.5" y="-421.3" font-family="Arial" font-size="14.00">+ osattrs: FsInodeOs</text>
<polygon fill="none" stroke="black" points="226,-406 226,-557 2017,-557 2017,-406 226,-406"/>
</a>
</g>
</g>
<!-- ndFsInodeOs&#45;&gt;ndFsInodeCommon -->
<g id="edge4" class="edge"><title>ndFsInodeOs&#45;&gt;ndFsInodeCommon</title>
<path fill="none" stroke="black" d="M1188.48,-596.699C1183.75,-588.631 1178.78,-580.17 1173.79,-571.657"/>
<polygon fill="black" stroke="black" points="1173.77,-571.622 1167.28,-568.47 1167.7,-561.271 1174.19,-564.423 1173.77,-571.622"/>
</g>
<!-- ndFsInodeDirectory -->
<g id="node5" class="node"><title>ndFsInodeDirectory</title>
<g id="a_node5_5"><a xlink:href="https://github.com/maidsafe/sn_fs/blob/master/src/metadata.rs#:~:text=struct%20FsInodeDirectory" xlink:title="&lt;TABLE&gt;">
<polygon fill="lightblue" stroke="none" points="9.5,-316 9.5,-353 638.5,-353 638.5,-316 9.5,-316"/>
<polygon fill="none" stroke="black" points="9.5,-316 9.5,-353 638.5,-353 638.5,-316 9.5,-316"/>
<text text-anchor="start" x="20.5" y="-331.8" font-family="Arial" font-weight="bold" font-size="14.00">pub struct FsInodeDirectory { &#160;&#160;&#160;pub common: FsInodeCommon, &#160;&#160;&#160;pub name: OsString,}</text>
<polygon fill="white" stroke="none" points="9.5,-264 9.5,-316 638.5,-316 638.5,-264 9.5,-264"/>
<polygon fill="none" stroke="black" points="9.5,-264 9.5,-316 638.5,-316 638.5,-264 9.5,-264"/>
<text text-anchor="start" x="20.5" y="-293.8" font-family="Arial" font-size="14.00">+ common: FsInodeCommon</text>
<text text-anchor="start" x="20.5" y="-278.8" font-family="Arial" font-size="14.00">+ name: OsString</text>
<polygon fill="none" stroke="black" points="8,-263.5 8,-354.5 639,-354.5 639,-263.5 8,-263.5"/>
</a>
</g>
</g>
<!-- ndFsInodeCommon&#45;&gt;ndFsInodeDirectory -->
<g id="edge5" class="edge"><title>ndFsInodeCommon&#45;&gt;ndFsInodeDirectory</title>
<path fill="none" stroke="black" d="M754.032,-401.987C689.031,-388.099 622.906,-373.971 562.617,-361.09"/>
<polygon fill="black" stroke="black" points="562.374,-361.038 555.671,-363.696 550.639,-358.53 557.342,-355.872 562.374,-361.038"/>
</g>
<!-- ndFsInodeSymlink -->
<g id="node6" class="node"><title>ndFsInodeSymlink</title>
<g id="a_node6_6"><a xlink:href="https://github.com/maidsafe/sn_fs/blob/master/src/metadata.rs#:~:text=struct%20FsInodeSymlink" xlink:title="&lt;TABLE&gt;">
<polygon fill="lightblue" stroke="none" points="674.5,-324 674.5,-361 1468.5,-361 1468.5,-324 674.5,-324"/>
<polygon fill="none" stroke="black" points="674.5,-324 674.5,-361 1468.5,-361 1468.5,-324 674.5,-324"/>
<text text-anchor="start" x="685.5" y="-339.8" font-family="Arial" font-weight="bold" font-size="14.00">pub struct FsInodeSymlink { &#160;&#160;&#160;pub common: FsInodeCommon, &#160;&#160;&#160;pub name: OsString, &#160;&#160;&#160;pub symlink: OsString,}</text>
<polygon fill="white" stroke="none" points="674.5,-257 674.5,-324 1468.5,-324 1468.5,-257 674.5,-257"/>
<polygon fill="none" stroke="black" points="674.5,-257 674.5,-324 1468.5,-324 1468.5,-257 674.5,-257"/>
<text text-anchor="start" x="685.5" y="-301.8" font-family="Arial" font-size="14.00">+ common: FsInodeCommon</text>
<text text-anchor="start" x="685.5" y="-286.8" font-family="Arial" font-size="14.00">+ name: OsString</text>
<text text-anchor="start" x="685.5" y="-271.8" font-family="Arial" font-size="14.00">+ symlink: OsString</text>
<polygon fill="none" stroke="black" points="673.5,-256 673.5,-362 1469.5,-362 1469.5,-256 673.5,-256"/>
</a>
</g>
</g>
<!-- ndFsInodeCommon&#45;&gt;ndFsInodeSymlink -->
<g id="edge6" class="edge"><title>ndFsInodeCommon&#45;&gt;ndFsInodeSymlink</title>
<path fill="none" stroke="black" d="M1098.4,-401.738C1096.06,-393.742 1093.69,-385.669 1091.38,-377.804"/>
<polygon fill="black" stroke="black" points="1091.32,-377.577 1085.79,-372.946 1087.94,-366.062 1093.47,-370.694 1091.32,-377.577"/>
</g>
<!-- ndFsInodeFile -->
<g id="node7" class="node"><title>ndFsInodeFile</title>
<g id="a_node7_7"><a xlink:href="https://github.com/maidsafe/sn_fs/blob/master/src/metadata.rs#:~:text=struct%20FsInodeFile" xlink:title="&lt;TABLE&gt;">
<polygon fill="lightblue" stroke="none" points="1505.5,-309 1505.5,-346 2864.5,-346 2864.5,-309 1505.5,-309"/>
<polygon fill="none" stroke="black" points="1505.5,-309 1505.5,-346 2864.5,-346 2864.5,-309 1505.5,-309"/>
<text text-anchor="start" x="1516.5" y="-324.8" font-family="Arial" font-weight="bold" font-size="14.00">pub struct FsInodeFile { &#160;&#160;&#160;pub common: FsInodeCommon, &#160;&#160;&#160;// public xorname; &#160;&#160;In the future, we expect to store file content in SafeNetwork, referenced by XorName. &#160;&#160;&#160;// pub content: SparseBuf,}</text>
<polygon fill="white" stroke="none" points="1505.5,-272 1505.5,-309 2864.5,-309 2864.5,-272 1505.5,-272"/>
<polygon fill="none" stroke="black" points="1505.5,-272 1505.5,-309 2864.5,-309 2864.5,-272 1505.5,-272"/>
<text text-anchor="start" x="1516.5" y="-286.8" font-family="Arial" font-size="14.00">+ common: FsInodeCommon</text>
<polygon fill="none" stroke="black" points="1504,-271 1504,-347 2865,-347 2865,-271 1504,-271"/>
</a>
</g>
</g>
<!-- ndFsInodeCommon&#45;&gt;ndFsInodeFile -->
<g id="edge7" class="edge"><title>ndFsInodeCommon&#45;&gt;ndFsInodeFile</title>
<path fill="none" stroke="black" d="M1611,-401.987C1716.29,-385.099 1823.79,-367.855 1916.84,-352.931"/>
<polygon fill="black" stroke="black" points="1916.85,-352.929 1922.15,-348.029 1928.7,-351.029 1923.41,-355.928 1916.85,-352.929"/>
</g>
<!-- ndFsInodeDirectory&#45;&gt;ndFsMetadata -->
<g id="edge8" class="edge"><title>ndFsInodeDirectory&#45;&gt;ndFsMetadata</title>
<path fill="none" stroke="black" d="M597.561,-259.458C617.472,-256.686 637.274,-254.155 656.5,-252 1307.17,-179.055 2090.02,-154.808 2403.15,-147.668"/>
<polygon fill="black" stroke="black" points="2403.45,-147.661 2409.36,-143.527 2415.45,-147.391 2409.54,-151.525 2403.45,-147.661"/>
</g>
<!-- ndFsInodeSymlink&#45;&gt;ndFsMetadata -->
<g id="edge9" class="edge"><title>ndFsInodeSymlink&#45;&gt;ndFsMetadata</title>
<path fill="none" stroke="black" d="M1477.53,-253.065C1480.53,-252.707 1483.52,-252.352 1486.5,-252 1814.46,-213.268 2200.76,-176.327 2402.99,-157.651"/>
<polygon fill="black" stroke="black" points="2403.21,-157.631 2408.81,-153.097 2415.16,-156.529 2409.55,-161.063 2403.21,-157.631"/>
</g>
<!-- ndFsInodeFile&#45;&gt;ndFsMetadata -->
<g id="edge10" class="edge"><title>ndFsInodeFile&#45;&gt;ndFsMetadata</title>
<path fill="none" stroke="black" d="M2274.84,-266.868C2314.08,-249.001 2360.93,-227.672 2404.38,-207.888"/>
<polygon fill="black" stroke="black" points="2404.42,-207.867 2408.23,-201.74 2415.35,-202.894 2411.54,-209.021 2404.42,-207.867"/>
</g>
<!-- ndFsRefFile -->
<g id="node8" class="node"><title>ndFsRefFile</title>
<g id="a_node8_8"><a xlink:href="https://github.com/maidsafe/sn_fs/blob/master/src/metadata.rs#:~:text=struct%20FsRefFile" xlink:title="&lt;TABLE&gt;">
<polygon fill="lightblue" stroke="none" points="2939.5,-316 2939.5,-353 3734.5,-353 3734.5,-316 2939.5,-316"/>
<polygon fill="none" stroke="black" points="2939.5,-316 2939.5,-353 3734.5,-353 3734.5,-316 2939.5,-316"/>
<text text-anchor="start" x="2950.5" y="-331.8" font-family="Arial" font-weight="bold" font-size="14.00">pub struct FsRefFile { &#160;&#160;&#160;pub name: OsString, &#160;&#160;&#160;pub inode_id: u64, // for looking up FsInodeFile under /inodefiles}</text>
<polygon fill="white" stroke="none" points="2939.5,-264 2939.5,-316 3734.5,-316 3734.5,-264 2939.5,-264"/>
<polygon fill="none" stroke="black" points="2939.5,-264 2939.5,-316 3734.5,-316 3734.5,-264 2939.5,-264"/>
<text text-anchor="start" x="2950.5" y="-293.8" font-family="Arial" font-size="14.00">+ name: OsString</text>
<text text-anchor="start" x="2950.5" y="-278.8" font-family="Arial" font-size="14.00">+ inode_id: u64</text>
<polygon fill="none" stroke="black" points="2938,-263.5 2938,-354.5 3735,-354.5 3735,-263.5 2938,-263.5"/>
</a>
</g>
</g>
<!-- ndFsRefFile&#45;&gt;ndFsMetadata -->
<g id="edge11" class="edge"><title>ndFsRefFile&#45;&gt;ndFsMetadata</title>
<path fill="none" stroke="black" d="M3100.16,-259.481C2963.85,-231.499 2797.16,-197.279 2681.71,-173.578"/>
<polygon fill="black" stroke="black" points="2681.4,-173.515 2674.72,-176.227 2669.65,-171.102 2676.33,-168.39 2681.4,-173.515"/>
</g>
<!-- ndDirentKind -->
<g id="node9" class="node"><title>ndDirentKind</title>
<g id="a_node9_9"><a xlink:href="https://github.com/maidsafe/sn_fs/blob/master/src/metadata.rs#:~:text=enum%20DirentKind" xlink:title="&lt;TABLE&gt;">
<polygon fill="yellow" stroke="none" points="3770.5,-324 3770.5,-361 3867.5,-361 3867.5,-324 3770.5,-324"/>
<polygon fill="none" stroke="black" points="3770.5,-324 3770.5,-361 3867.5,-361 3867.5,-324 3770.5,-324"/>
<text text-anchor="start" x="3781.5" y="-339.8" font-family="Arial" font-weight="bold" font-size="14.00">DirentKind</text>
<polygon fill="white" stroke="none" points="3770.5,-257 3770.5,-324 3867.5,-324 3867.5,-257 3770.5,-257"/>
<polygon fill="none" stroke="black" points="3770.5,-257 3770.5,-324 3867.5,-324 3867.5,-257 3770.5,-257"/>
<text text-anchor="start" x="3781.5" y="-301.8" font-family="Arial" font-size="14.00">File</text>
<text text-anchor="start" x="3781.5" y="-286.8" font-family="Arial" font-size="14.00">Directory</text>
<text text-anchor="start" x="3781.5" y="-271.8" font-family="Arial" font-size="14.00">Symlink</text>
<polygon fill="none" stroke="black" points="3769,-256 3769,-362 3868,-362 3868,-256 3769,-256"/>
</a>
</g>
</g>
<!-- ndDirentKind&#45;&gt;ndFsMetadata -->
<g id="edge12" class="edge"><title>ndDirentKind&#45;&gt;ndFsMetadata</title>
<path fill="none" stroke="black" d="M3760.72,-255.927C3758.02,-254.479 3755.27,-253.159 3752.5,-252 3561.92,-172.342 2954.51,-151.941 2679.78,-146.752"/>
<polygon fill="black" stroke="black" points="2669.75,-146.567 2679.83,-142.252 2674.74,-146.659 2679.74,-146.752 2679.74,-146.752 2679.74,-146.752 2674.74,-146.659 2679.66,-151.251 2669.75,-146.567 2669.75,-146.567"/>
</g>
<!-- ndSnFs -->
<g id="node11" class="node"><title>ndSnFs</title>
<text text-anchor="middle" x="2542.5" y="-14.3" font-family="Times,serif" font-size="14.00">ndSnFs</text>
</g>
<!-- ndFsMetadata&#45;&gt;ndSnFs -->
<g id="edge13" class="edge"><title>ndFsMetadata&#45;&gt;ndSnFs</title>
<path fill="none" stroke="black" stroke-dasharray="5,2" d="M2542.5,-71.9468C2542.5,-62.8254 2542.5,-53.9711 2542.5,-46.1968"/>
<polygon fill="black" stroke="black" points="2542.5,-36.01 2547,-46.01 2542.5,-41.01 2542.5,-46.01 2542.5,-46.01 2542.5,-46.01 2542.5,-41.01 2538,-46.0101 2542.5,-36.01 2542.5,-36.01"/>
</g>
</g>
</svg>
