<?xml version="1.0" encoding="UTF-8" standalone="no"?>
<!DOCTYPE svg PUBLIC "-//W3C//DTD SVG 1.1//EN"
 "http://www.w3.org/Graphics/SVG/1.1/DTD/svg11.dtd">
<!-- Generated by graphviz version 2.38.0 (20140413.2041)
 -->
<!-- Title: ml Pages: 1 -->
<svg width="808pt" height="387pt"
 viewBox="0.00 0.00 808.05 387.00" xmlns="http://www.w3.org/2000/svg" xmlns:xlink="http://www.w3.org/1999/xlink">
<g id="graph0" class="graph" transform="scale(1 1) rotate(0) translate(4 383)">
<title>ml</title>
<polygon fill="white" stroke="none" points="-4,4 -4,-383 804.053,-383 804.053,4 -4,4"/>
<!-- ndFsInodePosix -->
<g id="node1" class="node"><title>ndFsInodePosix</title>
<polygon fill="lightblue" stroke="none" points="34.5534,-336.5 34.5534,-373.5 152.553,-373.5 152.553,-336.5 34.5534,-336.5"/>
<polygon fill="none" stroke="black" points="34.5534,-336.5 34.5534,-373.5 152.553,-373.5 152.553,-336.5 34.5534,-336.5"/>
<text text-anchor="start" x="45.5534" y="-352.3" font-family="Arial" font-weight="bold" font-size="14.00">FsInodePosix</text>
<polygon fill="none" stroke="black" points="33.5534,-336 33.5534,-375 153.553,-375 153.553,-336 33.5534,-336"/>
</g>
<!-- ndFsInodeOs -->
<g id="node3" class="node"><title>ndFsInodeOs</title>
<polygon fill="yellow" stroke="none" points="215.553,-253.5 215.553,-290.5 313.553,-290.5 313.553,-253.5 215.553,-253.5"/>
<polygon fill="none" stroke="black" points="215.553,-253.5 215.553,-290.5 313.553,-290.5 313.553,-253.5 215.553,-253.5"/>
<text text-anchor="start" x="226.553" y="-269.3" font-family="Arial" font-weight="bold" font-size="14.00">FsInodeOs</text>
<polygon fill="none" stroke="black" points="214.553,-253 214.553,-292 314.553,-292 314.553,-253 214.553,-253"/>
</g>
<!-- ndFsInodePosix&#45;&gt;ndFsInodeOs -->
<g id="edge1" class="edge"><title>ndFsInodePosix&#45;&gt;ndFsInodeOs</title>
<path fill="none" stroke="black" d="M141.186,-331.937C161.207,-322.454 184.699,-311.326 205.781,-301.34"/>
<polygon fill="black" stroke="black" points="206.035,-301.219 209.745,-295.036 216.88,-296.082 213.17,-302.266 206.035,-301.219"/>
</g>
<!-- ndFsMetadata -->
<g id="node10" class="node"><title>ndFsMetadata</title>
<polygon fill="yellow" stroke="none" points="372.553,-4.5 372.553,-41.5 476.553,-41.5 476.553,-4.5 372.553,-4.5"/>
<polygon fill="none" stroke="black" points="372.553,-4.5 372.553,-41.5 476.553,-41.5 476.553,-4.5 372.553,-4.5"/>
<text text-anchor="start" x="383.553" y="-20.3" font-family="Arial" font-weight="bold" font-size="14.00">FsMetadata</text>
<polygon fill="none" stroke="black" points="371.553,-4 371.553,-43 477.553,-43 477.553,-4 371.553,-4"/>
</g>
<!-- ndFsInodePosix&#45;&gt;ndFsMetadata -->
<g id="edge2" class="edge"><title>ndFsInodePosix&#45;&gt;ndFsMetadata</title>
<path fill="none" stroke="black" d="M75.9615,-331.773C38.8393,-280.905 -39.0543,-156.587 24.5534,-83 66.1943,-34.8262 249.773,-25.5536 353.152,-24.238"/>
<polygon fill="black" stroke="black" points="363.204,-24.1319 353.252,-28.7373 358.205,-24.1848 353.205,-24.2376 353.205,-24.2376 353.205,-24.2376 358.205,-24.1848 353.157,-19.7378 363.204,-24.1319 363.204,-24.1319"/>
</g>
<!-- ndFsInodeWindows -->
<g id="node2" class="node"><title>ndFsInodeWindows</title>
<polygon fill="lightblue" stroke="none" points="276.553,-336.5 276.553,-373.5 418.553,-373.5 418.553,-336.5 276.553,-336.5"/>
<polygon fill="none" stroke="black" points="276.553,-336.5 276.553,-373.5 418.553,-373.5 418.553,-336.5 276.553,-336.5"/>
<text text-anchor="start" x="287.553" y="-352.3" font-family="Arial" font-weight="bold" font-size="14.00">FsInodeWindows</text>
<polygon fill="none" stroke="black" points="275.553,-336 275.553,-375 419.553,-375 419.553,-336 275.553,-336"/>
</g>
<!-- ndFsInodeWindows&#45;&gt;ndFsInodeOs -->
<g id="edge3" class="edge"><title>ndFsInodeWindows&#45;&gt;ndFsInodeOs</title>
<path fill="none" stroke="black" d="M324.433,-331.937C315.782,-323.494 305.795,-313.748 296.488,-304.665"/>
<polygon fill="black" stroke="black" points="296.426,-304.604 289.338,-303.276 287.837,-296.223 294.925,-297.551 296.426,-304.604"/>
</g>
<!-- ndFsInodeWindows&#45;&gt;ndFsMetadata -->
<g id="edge4" class="edge"><title>ndFsInodeWindows&#45;&gt;ndFsMetadata</title>
<path fill="none" stroke="black" d="M372.3,-331.927C411.294,-294.484 485.485,-215.17 513.553,-130 520.092,-110.161 523.47,-101.385 513.553,-83 506.984,-70.8212 496.651,-60.7636 485.314,-52.6279"/>
<polygon fill="black" stroke="black" points="476.922,-47.0406 487.74,-48.8366 481.084,-49.8115 485.246,-52.5824 485.246,-52.5824 485.246,-52.5824 481.084,-49.8115 482.752,-56.3282 476.922,-47.0406 476.922,-47.0406"/>
</g>
<!-- ndFsInodeCommon -->
<g id="node4" class="node"><title>ndFsInodeCommon</title>
<polygon fill="lightblue" stroke="none" points="193.553,-170.5 193.553,-207.5 335.553,-207.5 335.553,-170.5 193.553,-170.5"/>
<polygon fill="none" stroke="black" points="193.553,-170.5 193.553,-207.5 335.553,-207.5 335.553,-170.5 193.553,-170.5"/>
<text text-anchor="start" x="204.553" y="-186.3" font-family="Arial" font-weight="bold" font-size="14.00">FsInodeCommon</text>
<polygon fill="none" stroke="black" points="192.553,-170 192.553,-209 336.553,-209 336.553,-170 192.553,-170"/>
</g>
<!-- ndFsInodeOs&#45;&gt;ndFsInodeCommon -->
<g id="edge5" class="edge"><title>ndFsInodeOs&#45;&gt;ndFsInodeCommon</title>
<path fill="none" stroke="black" d="M264.553,-248.937C264.553,-241.626 264.553,-233.337 264.553,-225.348"/>
<polygon fill="black" stroke="black" points="264.554,-225.223 260.553,-219.223 264.553,-213.223 268.553,-219.223 264.554,-225.223"/>
</g>
<!-- ndFsInodeDirectory -->
<g id="node5" class="node"><title>ndFsInodeDirectory</title>
<polygon fill="lightblue" stroke="none" points="353.553,-87.5 353.553,-124.5 496.553,-124.5 496.553,-87.5 353.553,-87.5"/>
<polygon fill="none" stroke="black" points="353.553,-87.5 353.553,-124.5 496.553,-124.5 496.553,-87.5 353.553,-87.5"/>
<text text-anchor="start" x="364.553" y="-103.3" font-family="Arial" font-weight="bold" font-size="14.00">FsInodeDirectory</text>
<polygon fill="none" stroke="black" points="352.053,-87 352.053,-126 497.053,-126 497.053,-87 352.053,-87"/>
</g>
<!-- ndFsInodeCommon&#45;&gt;ndFsInodeDirectory -->
<g id="edge6" class="edge"><title>ndFsInodeCommon&#45;&gt;ndFsInodeDirectory</title>
<path fill="none" stroke="black" d="M309.122,-165.937C327.682,-156.541 349.431,-145.531 369.015,-135.616"/>
<polygon fill="black" stroke="black" points="369.24,-135.502 372.787,-129.224 379.946,-130.082 376.4,-136.361 369.24,-135.502"/>
</g>
<!-- ndFsInodeSymlink -->
<g id="node6" class="node"><title>ndFsInodeSymlink</title>
<polygon fill="lightblue" stroke="none" points="42.5534,-87.5 42.5534,-124.5 176.553,-124.5 176.553,-87.5 42.5534,-87.5"/>
<polygon fill="none" stroke="black" points="42.5534,-87.5 42.5534,-124.5 176.553,-124.5 176.553,-87.5 42.5534,-87.5"/>
<text text-anchor="start" x="53.5534" y="-103.3" font-family="Arial" font-weight="bold" font-size="14.00">FsInodeSymlink</text>
<polygon fill="none" stroke="black" points="41.5534,-87 41.5534,-126 177.553,-126 177.553,-87 41.5534,-87"/>
</g>
<!-- ndFsInodeCommon&#45;&gt;ndFsInodeSymlink -->
<g id="edge7" class="edge"><title>ndFsInodeCommon&#45;&gt;ndFsInodeSymlink</title>
<path fill="none" stroke="black" d="M221.377,-165.937C203.481,-156.585 182.524,-145.633 163.621,-135.755"/>
<polygon fill="black" stroke="black" points="163.402,-135.64 156.232,-136.406 152.767,-130.082 159.937,-129.316 163.402,-135.64"/>
</g>
<!-- ndFsInodeFile -->
<g id="node7" class="node"><title>ndFsInodeFile</title>
<polygon fill="lightblue" stroke="none" points="212.553,-87.5 212.553,-124.5 316.553,-124.5 316.553,-87.5 212.553,-87.5"/>
<polygon fill="none" stroke="black" points="212.553,-87.5 212.553,-124.5 316.553,-124.5 316.553,-87.5 212.553,-87.5"/>
<text text-anchor="start" x="223.553" y="-103.3" font-family="Arial" font-weight="bold" font-size="14.00">FsInodeFile</text>
<polygon fill="none" stroke="black" points="211.553,-87 211.553,-126 317.553,-126 317.553,-87 211.553,-87"/>
</g>
<!-- ndFsInodeCommon&#45;&gt;ndFsInodeFile -->
<g id="edge8" class="edge"><title>ndFsInodeCommon&#45;&gt;ndFsInodeFile</title>
<path fill="none" stroke="black" d="M264.553,-165.937C264.553,-158.626 264.553,-150.337 264.553,-142.348"/>
<polygon fill="black" stroke="black" points="264.554,-142.223 260.553,-136.223 264.553,-130.223 268.553,-136.223 264.554,-142.223"/>
</g>
<!-- ndFsInodeDirectory&#45;&gt;ndFsMetadata -->
<g id="edge9" class="edge"><title>ndFsInodeDirectory&#45;&gt;ndFsMetadata</title>
<path fill="none" stroke="black" d="M424.553,-82.937C424.553,-75.6257 424.553,-67.3371 424.553,-59.3477"/>
<polygon fill="black" stroke="black" points="424.554,-59.2229 420.553,-53.223 424.553,-47.2229 428.553,-53.2229 424.554,-59.2229"/>
</g>
<!-- ndFsInodeSymlink&#45;&gt;ndFsMetadata -->
<g id="edge10" class="edge"><title>ndFsInodeSymlink&#45;&gt;ndFsMetadata</title>
<path fill="none" stroke="black" d="M186,-85.2267C188.887,-84.4729 191.746,-83.7286 194.553,-83 247.088,-69.3663 306.456,-54.274 351.716,-42.834"/>
<polygon fill="black" stroke="black" points="351.861,-42.7973 356.699,-37.4496 363.496,-39.8583 358.658,-45.206 351.861,-42.7973"/>
</g>
<!-- ndFsInodeFile&#45;&gt;ndFsMetadata -->
<g id="edge11" class="edge"><title>ndFsInodeFile&#45;&gt;ndFsMetadata</title>
<path fill="none" stroke="black" d="M309.122,-82.937C327.682,-73.541 349.431,-62.5308 369.015,-52.6161"/>
<polygon fill="black" stroke="black" points="369.24,-52.5024 372.787,-46.2237 379.946,-47.0824 376.4,-53.3611 369.24,-52.5024"/>
</g>
<!-- ndFsRefFile -->
<g id="node8" class="node"><title>ndFsRefFile</title>
<polygon fill="lightblue" stroke="none" points="571.553,-87.5 571.553,-124.5 658.553,-124.5 658.553,-87.5 571.553,-87.5"/>
<polygon fill="none" stroke="black" points="571.553,-87.5 571.553,-124.5 658.553,-124.5 658.553,-87.5 571.553,-87.5"/>
<text text-anchor="start" x="582.553" y="-103.3" font-family="Arial" font-weight="bold" font-size="14.00">FsRefFile</text>
<polygon fill="none" stroke="black" points="570.053,-87 570.053,-126 659.053,-126 659.053,-87 570.053,-87"/>
</g>
<!-- ndFsRefFile&#45;&gt;ndFsMetadata -->
<g id="edge12" class="edge"><title>ndFsRefFile&#45;&gt;ndFsMetadata</title>
<path fill="none" stroke="black" d="M561.88,-83.0446C539.221,-73.3846 512.523,-62.003 488.722,-51.8561"/>
<polygon fill="black" stroke="black" points="488.698,-51.8458 481.61,-53.1724 477.659,-47.1398 484.747,-45.8132 488.698,-51.8458"/>
</g>
<!-- ndDirentKind -->
<g id="node9" class="node"><title>ndDirentKind</title>
<polygon fill="yellow" stroke="none" points="694.553,-87.5 694.553,-124.5 791.553,-124.5 791.553,-87.5 694.553,-87.5"/>
<polygon fill="none" stroke="black" points="694.553,-87.5 694.553,-124.5 791.553,-124.5 791.553,-87.5 694.553,-87.5"/>
<text text-anchor="start" x="705.553" y="-103.3" font-family="Arial" font-weight="bold" font-size="14.00">DirentKind</text>
<polygon fill="none" stroke="black" points="693.053,-87 693.053,-126 792.053,-126 792.053,-87 693.053,-87"/>
</g>
<!-- ndDirentKind&#45;&gt;ndFsMetadata -->
<g id="edge13" class="edge"><title>ndDirentKind&#45;&gt;ndFsMetadata</title>
<path fill="none" stroke="black" d="M684.709,-85.4134C681.96,-84.5741 679.231,-83.765 676.553,-83 616.027,-65.7049 546.241,-49.8126 495.476,-38.9712"/>
<polygon fill="black" stroke="black" points="485.585,-36.8713 496.302,-34.5462 490.476,-37.9097 495.367,-38.9481 495.367,-38.9481 495.367,-38.9481 490.476,-37.9097 494.433,-43.35 485.585,-36.8713 485.585,-36.8713"/>
</g>
<!-- ndSnFs -->
<g id="node11" class="node"><title>ndSnFs</title>
<polygon fill="lightblue" stroke="none" points="455.553,-336.5 455.553,-373.5 514.553,-373.5 514.553,-336.5 455.553,-336.5"/>
<polygon fill="none" stroke="black" points="455.553,-336.5 455.553,-373.5 514.553,-373.5 514.553,-336.5 455.553,-336.5"/>
<text text-anchor="start" x="466.553" y="-352.3" font-family="Arial" font-weight="bold" font-size="14.00">SnFs</text>
<polygon fill="none" stroke="black" points="454.053,-336 454.053,-375 515.053,-375 515.053,-336 454.053,-336"/>
</g>
</g>
</svg>
