<?xml version="1.0" encoding="UTF-8" standalone="no"?>
<!DOCTYPE svg PUBLIC "-//W3C//DTD SVG 1.1//EN"
 "http://www.w3.org/Graphics/SVG/1.1/DTD/svg11.dtd">
<!-- Generated by graphviz version 2.38.0 (20140413.2041)
 -->
<!-- Title: ml Pages: 1 -->
<svg width="774pt" height="470pt"
 viewBox="0.00 0.00 774.00 470.00" xmlns="http://www.w3.org/2000/svg" xmlns:xlink="http://www.w3.org/1999/xlink">
<g id="graph0" class="graph" transform="scale(1 1) rotate(0) translate(4 466)">
<title>ml</title>
<polygon fill="white" stroke="none" points="-4,4 -4,-466 770,-466 770,4 -4,4"/>
<!-- ndFsInodePosix -->
<g id="node1" class="node"><title>ndFsInodePosix</title>
<g id="a_node1_0"><a xlink:href="https://github.com/maidsafe/sn_fs/blob/master/src/metadata.rs#:~:text=struct%20FsInodePosix" xlink:title="&lt;TABLE&gt;">
<polygon fill="lightblue" stroke="none" points="401.5,-419.5 401.5,-456.5 519.5,-456.5 519.5,-419.5 401.5,-419.5"/>
<polygon fill="none" stroke="black" points="401.5,-419.5 401.5,-456.5 519.5,-456.5 519.5,-419.5 401.5,-419.5"/>
<text text-anchor="start" x="412.5" y="-435.3" font-family="Arial" font-weight="bold" font-size="14.00">FsInodePosix</text>
<polygon fill="none" stroke="black" points="400.5,-419 400.5,-458 520.5,-458 520.5,-419 400.5,-419"/>
</a>
</g>
</g>
<!-- ndFsInodeOs -->
<g id="node3" class="node"><title>ndFsInodeOs</title>
<g id="a_node3_1"><a xlink:href="https://github.com/maidsafe/sn_fs/blob/master/src/metadata.rs#:~:text=enum%20FsInodeOs" xlink:title="&lt;TABLE&gt;">
<polygon fill="yellow" stroke="none" points="235.5,-336.5 235.5,-373.5 333.5,-373.5 333.5,-336.5 235.5,-336.5"/>
<polygon fill="none" stroke="black" points="235.5,-336.5 235.5,-373.5 333.5,-373.5 333.5,-336.5 235.5,-336.5"/>
<text text-anchor="start" x="246.5" y="-352.3" font-family="Arial" font-weight="bold" font-size="14.00">FsInodeOs</text>
<polygon fill="none" stroke="black" points="234.5,-336 234.5,-375 334.5,-375 334.5,-336 234.5,-336"/>
</a>
</g>
</g>
<!-- ndFsInodePosix&#45;&gt;ndFsInodeOs -->
<g id="edge1" class="edge"><title>ndFsInodePosix&#45;&gt;ndFsInodeOs</title>
<path fill="none" stroke="black" d="M411.474,-414.937C390.773,-405.41 366.466,-394.223 344.691,-384.202"/>
<polygon fill="black" stroke="black" points="344.469,-384.099 337.346,-385.224 333.568,-379.082 340.691,-377.957 344.469,-384.099"/>
</g>
<!-- ndFsMetadata -->
<g id="node10" class="node"><title>ndFsMetadata</title>
<g id="a_node10_2"><a xlink:href="https://github.com/maidsafe/sn_fs/blob/master/src/metadata.rs#:~:text=enum%20FsMetadata" xlink:title="&lt;TABLE&gt;">
<polygon fill="yellow" stroke="none" points="402.5,-87.5 402.5,-124.5 506.5,-124.5 506.5,-87.5 402.5,-87.5"/>
<polygon fill="none" stroke="black" points="402.5,-87.5 402.5,-124.5 506.5,-124.5 506.5,-87.5 402.5,-87.5"/>
<text text-anchor="start" x="413.5" y="-103.3" font-family="Arial" font-weight="bold" font-size="14.00">FsMetadata</text>
<polygon fill="none" stroke="black" points="401.5,-87 401.5,-126 507.5,-126 507.5,-87 401.5,-87"/>
</a>
</g>
</g>
<!-- ndFsInodePosix&#45;&gt;ndFsMetadata -->
<g id="edge2" class="edge"><title>ndFsInodePosix&#45;&gt;ndFsMetadata</title>
<path fill="none" stroke="black" d="M466.45,-414.682C477.791,-367.625 499.73,-256.618 480.5,-166 478.589,-156.995 475.193,-147.693 471.473,-139.229"/>
<polygon fill="black" stroke="black" points="467.197,-130.089 475.51,-137.24 469.315,-134.618 471.434,-139.147 471.434,-139.147 471.434,-139.147 469.315,-134.618 467.358,-141.054 467.197,-130.089 467.197,-130.089"/>
</g>
<!-- ndFsInodeWindows -->
<g id="node2" class="node"><title>ndFsInodeWindows</title>
<g id="a_node2_3"><a xlink:href="https://github.com/maidsafe/sn_fs/blob/master/src/metadata.rs#:~:text=struct%20FsInodeWindows" xlink:title="&lt;TABLE&gt;">
<polygon fill="lightblue" stroke="none" points="213.5,-419.5 213.5,-456.5 355.5,-456.5 355.5,-419.5 213.5,-419.5"/>
<polygon fill="none" stroke="black" points="213.5,-419.5 213.5,-456.5 355.5,-456.5 355.5,-419.5 213.5,-419.5"/>
<text text-anchor="start" x="224.5" y="-435.3" font-family="Arial" font-weight="bold" font-size="14.00">FsInodeWindows</text>
<polygon fill="none" stroke="black" points="212.5,-419 212.5,-458 356.5,-458 356.5,-419 212.5,-419"/>
</a>
</g>
</g>
<!-- ndFsInodeWindows&#45;&gt;ndFsInodeOs -->
<g id="edge3" class="edge"><title>ndFsInodeWindows&#45;&gt;ndFsInodeOs</title>
<path fill="none" stroke="black" d="M284.5,-414.937C284.5,-407.626 284.5,-399.337 284.5,-391.348"/>
<polygon fill="black" stroke="black" points="284.5,-391.223 280.5,-385.223 284.5,-379.223 288.5,-385.223 284.5,-391.223"/>
</g>
<!-- ndFsInodeCommon -->
<g id="node4" class="node"><title>ndFsInodeCommon</title>
<g id="a_node4_4"><a xlink:href="https://github.com/maidsafe/sn_fs/blob/master/src/metadata.rs#:~:text=struct%20FsInodeCommon" xlink:title="&lt;TABLE&gt;">
<polygon fill="lightblue" stroke="none" points="194.5,-253.5 194.5,-290.5 336.5,-290.5 336.5,-253.5 194.5,-253.5"/>
<polygon fill="none" stroke="black" points="194.5,-253.5 194.5,-290.5 336.5,-290.5 336.5,-253.5 194.5,-253.5"/>
<text text-anchor="start" x="205.5" y="-269.3" font-family="Arial" font-weight="bold" font-size="14.00">FsInodeCommon</text>
<polygon fill="none" stroke="black" points="193.5,-253 193.5,-292 337.5,-292 337.5,-253 193.5,-253"/>
</a>
</g>
</g>
<!-- ndFsInodeOs&#45;&gt;ndFsInodeCommon -->
<g id="edge4" class="edge"><title>ndFsInodeOs&#45;&gt;ndFsInodeCommon</title>
<path fill="none" stroke="black" d="M279.207,-331.937C277.472,-324.539 275.502,-316.14 273.607,-308.063"/>
<polygon fill="black" stroke="black" points="273.571,-307.906 268.306,-302.978 270.83,-296.223 276.095,-301.151 273.571,-307.906"/>
</g>
<!-- ndFsInodeDirectory -->
<g id="node5" class="node"><title>ndFsInodeDirectory</title>
<g id="a_node5_5"><a xlink:href="https://github.com/maidsafe/sn_fs/blob/master/src/metadata.rs#:~:text=struct%20FsInodeDirectory" xlink:title="&lt;TABLE&gt;">
<polygon fill="lightblue" stroke="none" points="9.5,-170.5 9.5,-207.5 152.5,-207.5 152.5,-170.5 9.5,-170.5"/>
<polygon fill="none" stroke="black" points="9.5,-170.5 9.5,-207.5 152.5,-207.5 152.5,-170.5 9.5,-170.5"/>
<text text-anchor="start" x="20.5" y="-186.3" font-family="Arial" font-weight="bold" font-size="14.00">FsInodeDirectory</text>
<polygon fill="none" stroke="black" points="8,-170 8,-209 153,-209 153,-170 8,-170"/>
</a>
</g>
</g>
<!-- ndFsInodeCommon&#45;&gt;ndFsInodeDirectory -->
<g id="edge5" class="edge"><title>ndFsInodeCommon&#45;&gt;ndFsInodeDirectory</title>
<path fill="none" stroke="black" d="M213.967,-248.937C192.008,-239.322 166.189,-228.018 143.14,-217.926"/>
<polygon fill="black" stroke="black" points="143.07,-217.895 135.969,-219.153 132.077,-213.082 139.178,-211.825 143.07,-217.895"/>
</g>
<!-- ndFsInodeSymlink -->
<g id="node6" class="node"><title>ndFsInodeSymlink</title>
<g id="a_node6_6"><a xlink:href="https://github.com/maidsafe/sn_fs/blob/master/src/metadata.rs#:~:text=struct%20FsInodeSymlink" xlink:title="&lt;TABLE&gt;">
<polygon fill="lightblue" stroke="none" points="188.5,-170.5 188.5,-207.5 322.5,-207.5 322.5,-170.5 188.5,-170.5"/>
<polygon fill="none" stroke="black" points="188.5,-170.5 188.5,-207.5 322.5,-207.5 322.5,-170.5 188.5,-170.5"/>
<text text-anchor="start" x="199.5" y="-186.3" font-family="Arial" font-weight="bold" font-size="14.00">FsInodeSymlink</text>
<polygon fill="none" stroke="black" points="187.5,-170 187.5,-209 323.5,-209 323.5,-170 187.5,-170"/>
</a>
</g>
</g>
<!-- ndFsInodeCommon&#45;&gt;ndFsInodeSymlink -->
<g id="edge6" class="edge"><title>ndFsInodeCommon&#45;&gt;ndFsInodeSymlink</title>
<path fill="none" stroke="black" d="M262.714,-248.937C261.812,-241.626 260.789,-233.337 259.802,-225.348"/>
<polygon fill="black" stroke="black" points="259.776,-225.133 255.071,-219.668 258.305,-213.223 263.01,-218.688 259.776,-225.133"/>
</g>
<!-- ndFsInodeFile -->
<g id="node7" class="node"><title>ndFsInodeFile</title>
<g id="a_node7_7"><a xlink:href="https://github.com/maidsafe/sn_fs/blob/master/src/metadata.rs#:~:text=struct%20FsInodeFile" xlink:title="&lt;TABLE&gt;">
<polygon fill="lightblue" stroke="none" points="358.5,-170.5 358.5,-207.5 462.5,-207.5 462.5,-170.5 358.5,-170.5"/>
<polygon fill="none" stroke="black" points="358.5,-170.5 358.5,-207.5 462.5,-207.5 462.5,-170.5 358.5,-170.5"/>
<text text-anchor="start" x="369.5" y="-186.3" font-family="Arial" font-weight="bold" font-size="14.00">FsInodeFile</text>
<polygon fill="none" stroke="black" points="357.5,-170 357.5,-209 463.5,-209 463.5,-170 357.5,-170"/>
</a>
</g>
</g>
<!-- ndFsInodeCommon&#45;&gt;ndFsInodeFile -->
<g id="edge7" class="edge"><title>ndFsInodeCommon&#45;&gt;ndFsInodeFile</title>
<path fill="none" stroke="black" d="M305.891,-248.937C322.476,-239.672 341.871,-228.838 359.425,-219.032"/>
<polygon fill="black" stroke="black" points="359.599,-218.935 362.886,-212.516 370.075,-213.082 366.787,-219.501 359.599,-218.935"/>
</g>
<!-- ndFsInodeDirectory&#45;&gt;ndFsMetadata -->
<g id="edge8" class="edge"><title>ndFsInodeDirectory&#45;&gt;ndFsMetadata</title>
<path fill="none" stroke="black" d="M161.415,-168.102C164.48,-167.383 167.516,-166.68 170.5,-166 241.984,-149.71 324.051,-133.021 381.523,-121.659"/>
<polygon fill="black" stroke="black" points="381.627,-121.639 386.74,-116.554 393.401,-119.318 388.288,-124.403 381.627,-121.639"/>
</g>
<!-- ndFsInodeSymlink&#45;&gt;ndFsMetadata -->
<g id="edge9" class="edge"><title>ndFsInodeSymlink&#45;&gt;ndFsMetadata</title>
<path fill="none" stroke="black" d="M310.933,-165.937C334.768,-156.235 362.832,-144.812 387.795,-134.651"/>
<polygon fill="black" stroke="black" points="387.905,-134.606 391.955,-128.64 399.02,-130.082 394.971,-136.049 387.905,-134.606"/>
</g>
<!-- ndFsInodeFile&#45;&gt;ndFsMetadata -->
<g id="edge10" class="edge"><title>ndFsInodeFile&#45;&gt;ndFsMetadata</title>
<path fill="none" stroke="black" d="M422.756,-165.937C426.964,-158.19 431.768,-149.347 436.343,-140.925"/>
<polygon fill="black" stroke="black" points="436.429,-140.768 435.778,-133.586 442.157,-130.223 442.808,-137.405 436.429,-140.768"/>
</g>
<!-- ndFsRefFile -->
<g id="node8" class="node"><title>ndFsRefFile</title>
<g id="a_node8_8"><a xlink:href="https://github.com/maidsafe/sn_fs/blob/master/src/metadata.rs#:~:text=struct%20FsRefFile" xlink:title="&lt;TABLE&gt;">
<polygon fill="lightblue" stroke="none" points="537.5,-170.5 537.5,-207.5 624.5,-207.5 624.5,-170.5 537.5,-170.5"/>
<polygon fill="none" stroke="black" points="537.5,-170.5 537.5,-207.5 624.5,-207.5 624.5,-170.5 537.5,-170.5"/>
<text text-anchor="start" x="548.5" y="-186.3" font-family="Arial" font-weight="bold" font-size="14.00">FsRefFile</text>
<polygon fill="none" stroke="black" points="536,-170 536,-209 625,-209 625,-170 536,-170"/>
</a>
</g>
</g>
<!-- ndFsRefFile&#45;&gt;ndFsMetadata -->
<g id="edge11" class="edge"><title>ndFsRefFile&#45;&gt;ndFsMetadata</title>
<path fill="none" stroke="black" d="M545.402,-165.937C531.456,-156.972 515.225,-146.537 500.369,-136.987"/>
<polygon fill="black" stroke="black" points="499.941,-136.712 492.731,-136.832 489.847,-130.223 497.057,-130.103 499.941,-136.712"/>
</g>
<!-- ndDirentKind -->
<g id="node9" class="node"><title>ndDirentKind</title>
<g id="a_node9_9"><a xlink:href="https://github.com/maidsafe/sn_fs/blob/master/src/metadata.rs#:~:text=enum%20DirentKind" xlink:title="&lt;TABLE&gt;">
<polygon fill="yellow" stroke="none" points="660.5,-170.5 660.5,-207.5 757.5,-207.5 757.5,-170.5 660.5,-170.5"/>
<polygon fill="none" stroke="black" points="660.5,-170.5 660.5,-207.5 757.5,-207.5 757.5,-170.5 660.5,-170.5"/>
<text text-anchor="start" x="671.5" y="-186.3" font-family="Arial" font-weight="bold" font-size="14.00">DirentKind</text>
<polygon fill="none" stroke="black" points="659,-170 659,-209 758,-209 758,-170 659,-170"/>
</a>
</g>
</g>
<!-- ndDirentKind&#45;&gt;ndFsMetadata -->
<g id="edge12" class="edge"><title>ndDirentKind&#45;&gt;ndFsMetadata</title>
<path fill="none" stroke="black" d="M650.938,-168.775C648.087,-167.83 645.262,-166.9 642.5,-166 603.882,-153.411 560.609,-139.905 525.323,-129.045"/>
<polygon fill="black" stroke="black" points="515.593,-126.056 526.473,-124.691 520.372,-127.524 525.151,-128.993 525.151,-128.993 525.151,-128.993 520.372,-127.524 523.83,-133.294 515.593,-126.056 515.593,-126.056"/>
</g>
<!-- ndSnFs -->
<g id="node11" class="node"><title>ndSnFs</title>
<g id="a_node11_10"><a xlink:href="https://github.com/maidsafe/sn_fs/blob/master/src/main.rs#:~:text=struct%20SnFs" xlink:title="&lt;TABLE&gt;">
<polygon fill="lightblue" stroke="none" points="425.5,-4.5 425.5,-41.5 484.5,-41.5 484.5,-4.5 425.5,-4.5"/>
<polygon fill="none" stroke="black" points="425.5,-4.5 425.5,-41.5 484.5,-41.5 484.5,-4.5 425.5,-4.5"/>
<text text-anchor="start" x="436.5" y="-20.3" font-family="Arial" font-weight="bold" font-size="14.00">SnFs</text>
<polygon fill="none" stroke="black" points="424,-4 424,-43 485,-43 485,-4 424,-4"/>
</a>
</g>
</g>
<!-- ndFsMetadata&#45;&gt;ndSnFs -->
<g id="edge13" class="edge"><title>ndFsMetadata&#45;&gt;ndSnFs</title>
<path fill="none" stroke="black" stroke-dasharray="5,2" d="M454.5,-82.937C454.5,-75.0164 454.5,-65.9488 454.5,-57.3574"/>
<polygon fill="black" stroke="black" points="454.5,-47.2229 459,-57.2229 454.5,-52.2229 454.5,-57.2229 454.5,-57.2229 454.5,-57.2229 454.5,-52.2229 450,-57.223 454.5,-47.2229 454.5,-47.2229"/>
</g>
</g>
</svg>
