<?xml version="1.0" encoding="UTF-8" standalone="no"?>
<!DOCTYPE svg PUBLIC "-//W3C//DTD SVG 1.1//EN"
 "http://www.w3.org/Graphics/SVG/1.1/DTD/svg11.dtd">
<!-- Generated by graphviz version 2.38.0 (20140413.2041)
 -->
<!-- Title: ml Pages: 1 -->
<svg width="2346pt" height="527pt"
 viewBox="0.00 0.00 2345.50 527.00" xmlns="http://www.w3.org/2000/svg" xmlns:xlink="http://www.w3.org/1999/xlink">
<g id="graph0" class="graph" transform="scale(1 1) rotate(0) translate(4 523)">
<title>ml</title>
<polygon fill="white" stroke="none" points="-4,4 -4,-523 2341.5,-523 2341.5,4 -4,4"/>
<!-- ndErrorCode -->
<g id="node1" class="node"><title>ndErrorCode</title>
<polygon fill="lightgreen" stroke="none" points="84.5,-368.5 84.5,-405.5 261.5,-405.5 261.5,-368.5 84.5,-368.5"/>
<polygon fill="none" stroke="black" points="84.5,-368.5 84.5,-405.5 261.5,-405.5 261.5,-368.5 84.5,-368.5"/>
<text text-anchor="start" x="136" y="-384.3" font-family="Arial" font-weight="bold" font-size="14.00">ErrorCode</text>
<polygon fill="white" stroke="none" points="84.5,-331.5 84.5,-368.5 261.5,-368.5 261.5,-331.5 84.5,-331.5"/>
<polygon fill="none" stroke="black" points="84.5,-331.5 84.5,-368.5 261.5,-368.5 261.5,-331.5 84.5,-331.5"/>
<text text-anchor="start" x="95.5" y="-346.3" font-family="Arial" font-size="14.00">error_code(&amp;Self) &#45;&gt; i32</text>
<polygon fill="none" stroke="black" points="83,-330.5 83,-406.5 262,-406.5 262,-330.5 83,-330.5"/>
</g>
<!-- ndTestError -->
<g id="node10" class="node"><title>ndTestError</title>
<polygon fill="yellow" stroke="none" points="9.5,-132 9.5,-169 336.5,-169 336.5,-132 9.5,-132"/>
<polygon fill="none" stroke="black" points="9.5,-132 9.5,-169 336.5,-169 336.5,-132 9.5,-132"/>
<text text-anchor="start" x="139.5" y="-147.8" font-family="Arial" font-weight="bold" font-size="14.00">TestError</text>
<polygon fill="white" stroke="none" points="9.5,-80 9.5,-132 336.5,-132 336.5,-80 9.5,-80"/>
<polygon fill="none" stroke="black" points="9.5,-80 9.5,-132 336.5,-132 336.5,-80 9.5,-80"/>
<text text-anchor="start" x="20.5" y="-109.8" font-family="Arial" font-size="14.00">FromStr(String)</text>
<text text-anchor="start" x="20.5" y="-94.8" font-family="Arial" font-size="14.00">Test</text>
<polygon fill="white" stroke="none" points="9.5,-13 9.5,-80 336.5,-80 336.5,-13 9.5,-13"/>
<polygon fill="none" stroke="black" points="9.5,-13 9.5,-80 336.5,-80 336.5,-13 9.5,-13"/>
<text text-anchor="start" x="20.5" y="-57.8" font-family="Arial" font-size="14.00">&#45; from(s: &amp;&#39;a str) &#45;&gt; Self</text>
<text text-anchor="start" x="20.5" y="-42.8" font-family="Arial" font-size="14.00">&#45; error_code(&amp;self) &#45;&gt; i32</text>
<text text-anchor="start" x="20.5" y="-27.8" font-family="Arial" font-size="14.00">&#45; fmt(&amp;self, f: &amp;mut fmt::Formatter) &#45;&gt; fmt::Result</text>
<polygon fill="none" stroke="black" points="8,-12 8,-170 337,-170 337,-12 8,-12"/>
</g>
<!-- ndErrorCode&#45;&gt;ndTestError -->
<g id="edge1" class="edge"><title>ndErrorCode&#45;&gt;ndTestError</title>
<path fill="none" stroke="black" stroke-dasharray="5,2" d="M172.5,-326.255C172.5,-288.838 172.5,-232.329 172.5,-184.187"/>
<polygon fill="none" stroke="black" points="176,-184.051 172.5,-174.051 169,-184.051 176,-184.051"/>
</g>
<!-- ndEnvGuard -->
<g id="node2" class="node"><title>ndEnvGuard</title>
<polygon fill="yellow" stroke="none" points="297.5,-401.5 297.5,-438.5 642.5,-438.5 642.5,-401.5 297.5,-401.5"/>
<polygon fill="none" stroke="black" points="297.5,-401.5 297.5,-438.5 642.5,-438.5 642.5,-401.5 297.5,-401.5"/>
<text text-anchor="start" x="434.5" y="-417.3" font-family="Arial" font-weight="bold" font-size="14.00">EnvGuard</text>
<polygon fill="white" stroke="none" points="297.5,-349.5 297.5,-401.5 642.5,-401.5 642.5,-349.5 297.5,-349.5"/>
<polygon fill="none" stroke="black" points="297.5,-349.5 297.5,-401.5 642.5,-401.5 642.5,-349.5 297.5,-349.5"/>
<text text-anchor="start" x="308.5" y="-379.3" font-family="Arial" font-size="14.00">Auto(JNIEnv&lt;&#39;a&gt;)</text>
<text text-anchor="start" x="308.5" y="-364.3" font-family="Arial" font-size="14.00">Manual(AttachGuard&lt;&#39;a&gt;)</text>
<polygon fill="white" stroke="none" points="297.5,-297.5 297.5,-349.5 642.5,-349.5 642.5,-297.5 297.5,-297.5"/>
<polygon fill="none" stroke="black" points="297.5,-297.5 297.5,-349.5 642.5,-349.5 642.5,-297.5 297.5,-297.5"/>
<text text-anchor="start" x="308.5" y="-327.3" font-family="Arial" font-size="14.00">&#45; new(vm: Option&lt;&amp;&#39;a JavaVM&gt;) &#45;&gt; JniResult&lt;Self&gt;</text>
<text text-anchor="start" x="308.5" y="-312.3" font-family="Arial" font-size="14.00">&#45; env(&amp;self) &#45;&gt; &amp;JNIEnv</text>
<polygon fill="none" stroke="black" points="296,-297 296,-440 643,-440 643,-297 296,-297"/>
</g>
<!-- ndReprC -->
<g id="node3" class="node"><title>ndReprC</title>
<polygon fill="lightgreen" stroke="none" points="677.5,-476.5 677.5,-513.5 1105.5,-513.5 1105.5,-476.5 677.5,-476.5"/>
<polygon fill="none" stroke="black" points="677.5,-476.5 677.5,-513.5 1105.5,-513.5 1105.5,-476.5 677.5,-476.5"/>
<text text-anchor="start" x="869.5" y="-492.3" font-family="Arial" font-weight="bold" font-size="14.00">ReprC</text>
<polygon fill="white" stroke="none" points="677.5,-439.5 677.5,-476.5 1105.5,-476.5 1105.5,-439.5 677.5,-439.5"/>
<polygon fill="none" stroke="black" points="677.5,-439.5 677.5,-476.5 1105.5,-476.5 1105.5,-439.5 677.5,-439.5"/>
<text text-anchor="start" x="688.5" y="-454.3" font-family="Arial" font-size="14.00">clone_from_repr_c(Self::C) &#45;&gt; Result&lt;Self, Self::Error&gt;</text>
<polygon fill="white" stroke="none" points="677.5,-222.5 677.5,-439.5 1105.5,-439.5 1105.5,-222.5 677.5,-222.5"/>
<polygon fill="none" stroke="black" points="677.5,-222.5 677.5,-439.5 1105.5,-439.5 1105.5,-222.5 677.5,-222.5"/>
<text text-anchor="start" x="688.5" y="-417.3" font-family="Arial" font-size="14.00">&#45; clone_from_repr_c(repr_c: Self::C) &#45;&gt; Result&lt;Self, Self::Error&gt;</text>
<text text-anchor="start" x="688.5" y="-402.3" font-family="Arial" font-size="14.00">&#45; clone_from_repr_c(repr_c: Self::C) &#45;&gt; Result&lt;Self, Self::Error&gt;</text>
<text text-anchor="start" x="688.5" y="-387.3" font-family="Arial" font-size="14.00">&#45; clone_from_repr_c(repr_c: Self::C) &#45;&gt; Result&lt;Self, Self::Error&gt;</text>
<text text-anchor="start" x="688.5" y="-372.3" font-family="Arial" font-size="14.00">&#45; clone_from_repr_c(repr_c: Self::C) &#45;&gt; Result&lt;Self, Self::Error&gt;</text>
<text text-anchor="start" x="688.5" y="-357.3" font-family="Arial" font-size="14.00">&#45; clone_from_repr_c(repr_c: Self::C) &#45;&gt; Result&lt;Self, Self::Error&gt;</text>
<text text-anchor="start" x="688.5" y="-342.3" font-family="Arial" font-size="14.00">&#45; clone_from_repr_c(repr_c: Self::C) &#45;&gt; Result&lt;Self, Self::Error&gt;</text>
<text text-anchor="start" x="688.5" y="-327.3" font-family="Arial" font-size="14.00">&#45; clone_from_repr_c(repr_c: Self::C) &#45;&gt; Result&lt;Self, Self::Error&gt;</text>
<text text-anchor="start" x="688.5" y="-312.3" font-family="Arial" font-size="14.00">&#45; clone_from_repr_c(repr_c: Self::C) &#45;&gt; Result&lt;Self, Self::Error&gt;</text>
<text text-anchor="start" x="688.5" y="-297.3" font-family="Arial" font-size="14.00">&#45; clone_from_repr_c(repr_c: Self::C) &#45;&gt; Result&lt;Self, Self::Error&gt;</text>
<text text-anchor="start" x="688.5" y="-282.3" font-family="Arial" font-size="14.00">&#45; clone_from_repr_c(repr_c: Self::C) &#45;&gt; Result&lt;Self, Self::Error&gt;</text>
<text text-anchor="start" x="688.5" y="-267.3" font-family="Arial" font-size="14.00">&#45; clone_from_repr_c(repr_c: Self::C) &#45;&gt; Result&lt;Self, Self::Error&gt;</text>
<text text-anchor="start" x="688.5" y="-252.3" font-family="Arial" font-size="14.00">&#45; clone_from_repr_c(repr_c: Self::C) &#45;&gt; Result&lt;Self, Self::Error&gt;</text>
<text text-anchor="start" x="688.5" y="-237.3" font-family="Arial" font-size="14.00">&#45; clone_from_repr_c(repr_c: Self::C) &#45;&gt; Result&lt;Self, Self::Error&gt;</text>
<polygon fill="none" stroke="black" points="676.5,-222 676.5,-515 1106.5,-515 1106.5,-222 676.5,-222"/>
</g>
<!-- ndNativeResult -->
<g id="node7" class="node"><title>ndNativeResult</title>
<polygon fill="lightblue" stroke="none" points="974.5,-124 974.5,-161 1402.5,-161 1402.5,-124 974.5,-124"/>
<polygon fill="none" stroke="black" points="974.5,-124 974.5,-161 1402.5,-161 1402.5,-124 974.5,-124"/>
<text text-anchor="start" x="1145" y="-139.8" font-family="Arial" font-weight="bold" font-size="14.00">NativeResult</text>
<polygon fill="white" stroke="none" points="974.5,-72 974.5,-124 1402.5,-124 1402.5,-72 974.5,-72"/>
<polygon fill="none" stroke="black" points="974.5,-72 974.5,-124 1402.5,-124 1402.5,-72 974.5,-72"/>
<text text-anchor="start" x="985.5" y="-101.8" font-family="Arial" font-size="14.00">+ error_code: i32</text>
<text text-anchor="start" x="985.5" y="-86.8" font-family="Arial" font-size="14.00">+ description: Option&lt;String&gt;</text>
<polygon fill="white" stroke="none" points="974.5,-20 974.5,-72 1402.5,-72 1402.5,-20 974.5,-20"/>
<polygon fill="none" stroke="black" points="974.5,-20 974.5,-72 1402.5,-72 1402.5,-20 974.5,-20"/>
<text text-anchor="start" x="985.5" y="-49.8" font-family="Arial" font-size="14.00">&#45; into_repr_c(self) &#45;&gt; Result&lt;FfiResult, StringError&gt;</text>
<text text-anchor="start" x="985.5" y="-34.8" font-family="Arial" font-size="14.00">&#45; clone_from_repr_c(repr_c: Self::C) &#45;&gt; Result&lt;Self, Self::Error&gt;</text>
<polygon fill="none" stroke="black" points="973.5,-19.5 973.5,-162.5 1403.5,-162.5 1403.5,-19.5 973.5,-19.5"/>
</g>
<!-- ndReprC&#45;&gt;ndNativeResult -->
<g id="edge2" class="edge"><title>ndReprC&#45;&gt;ndNativeResult</title>
<path fill="none" stroke="black" stroke-dasharray="5,2" d="M1053.04,-217.657C1069.41,-202.473 1085.56,-187.486 1100.7,-173.443"/>
<polygon fill="none" stroke="black" points="1103.1,-175.995 1108.05,-166.628 1098.34,-170.863 1103.1,-175.995"/>
</g>
<!-- ndCallback -->
<g id="node4" class="node"><title>ndCallback</title>
<polygon fill="lightgreen" stroke="none" points="1438.5,-140 1438.5,-177 1944.5,-177 1944.5,-140 1438.5,-140"/>
<polygon fill="none" stroke="black" points="1438.5,-140 1438.5,-177 1944.5,-177 1944.5,-140 1438.5,-140"/>
<text text-anchor="start" x="1661" y="-155.8" font-family="Arial" font-weight="bold" font-size="14.00">Callback</text>
<polygon fill="white" stroke="none" points="1438.5,-102 1438.5,-140 1944.5,-140 1944.5,-102 1438.5,-102"/>
<polygon fill="none" stroke="black" points="1438.5,-102 1438.5,-140 1944.5,-140 1944.5,-102 1438.5,-102"/>
<polygon fill="white" stroke="none" points="1438.5,-5 1438.5,-102 1944.5,-102 1944.5,-5 1438.5,-5"/>
<polygon fill="none" stroke="black" points="1438.5,-5 1438.5,-102 1944.5,-102 1944.5,-5 1438.5,-5"/>
<text text-anchor="start" x="1449.5" y="-79.8" font-family="Arial" font-size="14.00">&#45; call(&amp;self, user_data: *mut c_void, error: *const FfiResult, _args: Self::Args)</text>
<text text-anchor="start" x="1449.5" y="-64.8" font-family="Arial" font-size="14.00">&#45; call(&amp;self, user_data: *mut c_void, error: *const FfiResult, args: Self::Args)</text>
<text text-anchor="start" x="1449.5" y="-49.8" font-family="Arial" font-size="14.00">&#45; call(&amp;self, user_data: *mut c_void, error: *const FfiResult, args: Self::Args)</text>
<text text-anchor="start" x="1449.5" y="-34.8" font-family="Arial" font-size="14.00">&#45; call(&amp;self, user_data: *mut c_void, error: *const FfiResult, args: Self::Args)</text>
<text text-anchor="start" x="1449.5" y="-19.8" font-family="Arial" font-size="14.00">&#45; call(&amp;self, user_data: *mut c_void, error: *const FfiResult, args: Self::Args)</text>
<polygon fill="none" stroke="black" points="1437.5,-4 1437.5,-178 1945.5,-178 1945.5,-4 1437.5,-4"/>
</g>
<!-- ndCallbackArgs -->
<g id="node5" class="node"><title>ndCallbackArgs</title>
<polygon fill="lightgreen" stroke="none" points="1698.5,-476.5 1698.5,-513.5 1826.5,-513.5 1826.5,-476.5 1698.5,-476.5"/>
<polygon fill="none" stroke="black" points="1698.5,-476.5 1698.5,-513.5 1826.5,-513.5 1826.5,-476.5 1698.5,-476.5"/>
<text text-anchor="start" x="1715.5" y="-492.3" font-family="Arial" font-weight="bold" font-size="14.00">CallbackArgs</text>
<polygon fill="white" stroke="none" points="1698.5,-439.5 1698.5,-476.5 1826.5,-476.5 1826.5,-439.5 1698.5,-439.5"/>
<polygon fill="none" stroke="black" points="1698.5,-439.5 1698.5,-476.5 1826.5,-476.5 1826.5,-439.5 1698.5,-439.5"/>
<text text-anchor="start" x="1709.5" y="-454.3" font-family="Arial" font-size="14.00">default() &#45;&gt; Self</text>
<polygon fill="white" stroke="none" points="1698.5,-222.5 1698.5,-439.5 1826.5,-439.5 1826.5,-222.5 1698.5,-222.5"/>
<polygon fill="none" stroke="black" points="1698.5,-222.5 1698.5,-439.5 1826.5,-439.5 1826.5,-222.5 1698.5,-222.5"/>
<text text-anchor="start" x="1709.5" y="-417.3" font-family="Arial" font-size="14.00">&#45; default() &#45;&gt; Self</text>
<text text-anchor="start" x="1709.5" y="-402.3" font-family="Arial" font-size="14.00">&#45; default() &#45;&gt; Self</text>
<text text-anchor="start" x="1709.5" y="-387.3" font-family="Arial" font-size="14.00">&#45; default() &#45;&gt; Self</text>
<text text-anchor="start" x="1709.5" y="-372.3" font-family="Arial" font-size="14.00">&#45; default() &#45;&gt; Self</text>
<text text-anchor="start" x="1709.5" y="-357.3" font-family="Arial" font-size="14.00">&#45; default() &#45;&gt; Self</text>
<text text-anchor="start" x="1709.5" y="-342.3" font-family="Arial" font-size="14.00">&#45; default() &#45;&gt; Self</text>
<text text-anchor="start" x="1709.5" y="-327.3" font-family="Arial" font-size="14.00">&#45; default() &#45;&gt; Self</text>
<text text-anchor="start" x="1709.5" y="-312.3" font-family="Arial" font-size="14.00">&#45; default() &#45;&gt; Self</text>
<text text-anchor="start" x="1709.5" y="-297.3" font-family="Arial" font-size="14.00">&#45; default() &#45;&gt; Self</text>
<text text-anchor="start" x="1709.5" y="-282.3" font-family="Arial" font-size="14.00">&#45; default() &#45;&gt; Self</text>
<text text-anchor="start" x="1709.5" y="-267.3" font-family="Arial" font-size="14.00">&#45; default() &#45;&gt; Self</text>
<text text-anchor="start" x="1709.5" y="-252.3" font-family="Arial" font-size="14.00">&#45; default() &#45;&gt; Self</text>
<text text-anchor="start" x="1709.5" y="-237.3" font-family="Arial" font-size="14.00">&#45; default() &#45;&gt; Self</text>
<polygon fill="none" stroke="black" points="1697.5,-222 1697.5,-515 1827.5,-515 1827.5,-222 1697.5,-222"/>
</g>
<!-- ndSafePtr -->
<g id="node6" class="node"><title>ndSafePtr</title>
<polygon fill="lightgreen" stroke="none" points="1863.5,-386.5 1863.5,-423.5 2120.5,-423.5 2120.5,-386.5 1863.5,-386.5"/>
<polygon fill="none" stroke="black" points="1863.5,-386.5 1863.5,-423.5 2120.5,-423.5 2120.5,-386.5 1863.5,-386.5"/>
<text text-anchor="start" x="1966" y="-402.3" font-family="Arial" font-weight="bold" font-size="14.00">SafePtr</text>
<polygon fill="white" stroke="none" points="1863.5,-349.5 1863.5,-386.5 2120.5,-386.5 2120.5,-349.5 1863.5,-349.5"/>
<polygon fill="none" stroke="black" points="1863.5,-349.5 1863.5,-386.5 2120.5,-386.5 2120.5,-349.5 1863.5,-349.5"/>
<text text-anchor="start" x="1874.5" y="-364.3" font-family="Arial" font-size="14.00">as_safe_ptr(&amp;Self) &#45;&gt; *const Self::Ptr</text>
<polygon fill="white" stroke="none" points="1863.5,-312.5 1863.5,-349.5 2120.5,-349.5 2120.5,-312.5 1863.5,-312.5"/>
<polygon fill="none" stroke="black" points="1863.5,-312.5 1863.5,-349.5 2120.5,-349.5 2120.5,-312.5 1863.5,-312.5"/>
<text text-anchor="start" x="1874.5" y="-327.3" font-family="Arial" font-size="14.00">&#45; as_safe_ptr(&amp;self) &#45;&gt; *const T</text>
<polygon fill="none" stroke="black" points="1862,-312 1862,-425 2121,-425 2121,-312 1862,-312"/>
</g>
<!-- ndFfiResult -->
<g id="node8" class="node"><title>ndFfiResult</title>
<polygon fill="lightblue" stroke="none" points="1464.5,-394.5 1464.5,-431.5 1662.5,-431.5 1662.5,-394.5 1464.5,-394.5"/>
<polygon fill="none" stroke="black" points="1464.5,-394.5 1464.5,-431.5 1662.5,-431.5 1662.5,-394.5 1464.5,-394.5"/>
<text text-anchor="start" x="1533" y="-410.3" font-family="Arial" font-weight="bold" font-size="14.00">FfiResult</text>
<polygon fill="white" stroke="none" points="1464.5,-342.5 1464.5,-394.5 1662.5,-394.5 1662.5,-342.5 1464.5,-342.5"/>
<polygon fill="none" stroke="black" points="1464.5,-342.5 1464.5,-394.5 1662.5,-394.5 1662.5,-342.5 1464.5,-342.5"/>
<text text-anchor="start" x="1475.5" y="-372.3" font-family="Arial" font-size="14.00">+ error_code: i32</text>
<text text-anchor="start" x="1475.5" y="-357.3" font-family="Arial" font-size="14.00">+ description: *const c_char</text>
<polygon fill="white" stroke="none" points="1464.5,-305.5 1464.5,-342.5 1662.5,-342.5 1662.5,-305.5 1464.5,-305.5"/>
<polygon fill="none" stroke="black" points="1464.5,-305.5 1464.5,-342.5 1662.5,-342.5 1662.5,-305.5 1464.5,-305.5"/>
<text text-anchor="start" x="1475.5" y="-320.3" font-family="Arial" font-size="14.00">&#45; drop(&amp;mut self)</text>
<polygon fill="none" stroke="black" points="1463.5,-304.5 1463.5,-432.5 1663.5,-432.5 1663.5,-304.5 1463.5,-304.5"/>
</g>
<!-- ndFfiResult&#45;&gt;ndCallback -->
<g id="edge3" class="edge"><title>ndFfiResult&#45;&gt;ndCallback</title>
<path fill="none" stroke="black" stroke-dasharray="5,2" d="M1594.65,-300.457C1609.9,-267.641 1628.56,-227.478 1645.41,-191.196"/>
<polygon fill="black" stroke="black" points="1649.66,-182.063 1649.52,-193.028 1647.55,-186.597 1645.44,-191.132 1645.44,-191.132 1645.44,-191.132 1647.55,-186.597 1641.36,-189.236 1649.66,-182.063 1649.66,-182.063"/>
</g>
<!-- ndFfiResult&#45;&gt;ndNativeResult -->
<g id="edge4" class="edge"><title>ndFfiResult&#45;&gt;ndNativeResult</title>
<path fill="none" stroke="black" d="M1485.71,-300.452C1454.01,-273.964 1416.61,-243.763 1381.5,-218 1360.62,-202.677 1337.95,-187.047 1315.75,-172.245"/>
<polygon fill="black" stroke="black" points="1307.27,-166.615 1318.09,-168.395 1311.43,-169.379 1315.6,-172.144 1315.6,-172.144 1315.6,-172.144 1311.43,-169.379 1313.11,-175.894 1307.27,-166.615 1307.27,-166.615"/>
</g>
<!-- ndUserData -->
<g id="node9" class="node"><title>ndUserData</title>
<polygon fill="lightblue" stroke="none" points="2156.5,-394.5 2156.5,-431.5 2328.5,-431.5 2328.5,-394.5 2156.5,-394.5"/>
<polygon fill="none" stroke="black" points="2156.5,-394.5 2156.5,-431.5 2328.5,-431.5 2328.5,-394.5 2156.5,-394.5"/>
<text text-anchor="start" x="2210.5" y="-410.3" font-family="Arial" font-weight="bold" font-size="14.00">UserData</text>
<polygon fill="white" stroke="none" points="2156.5,-342.5 2156.5,-394.5 2328.5,-394.5 2328.5,-342.5 2156.5,-342.5"/>
<polygon fill="none" stroke="black" points="2156.5,-342.5 2156.5,-394.5 2328.5,-394.5 2328.5,-342.5 2156.5,-342.5"/>
<text text-anchor="start" x="2167.5" y="-372.3" font-family="Arial" font-size="14.00">+ common: *mut c_void</text>
<text text-anchor="start" x="2167.5" y="-357.3" font-family="Arial" font-size="14.00">+ custom: *mut c_void</text>
<polygon fill="white" stroke="none" points="2156.5,-305.5 2156.5,-342.5 2328.5,-342.5 2328.5,-305.5 2156.5,-305.5"/>
<polygon fill="none" stroke="black" points="2156.5,-305.5 2156.5,-342.5 2328.5,-342.5 2328.5,-305.5 2156.5,-305.5"/>
<text text-anchor="start" x="2167.5" y="-320.3" font-family="Arial" font-size="14.00">&#45; default() &#45;&gt; Self</text>
<polygon fill="none" stroke="black" points="2155.5,-304.5 2155.5,-432.5 2329.5,-432.5 2329.5,-304.5 2155.5,-304.5"/>
</g>
<!-- ndStringError -->
<g id="node11" class="node"><title>ndStringError</title>
<polygon fill="yellow" stroke="none" points="1141.5,-416.5 1141.5,-453.5 1364.5,-453.5 1364.5,-416.5 1141.5,-416.5"/>
<polygon fill="none" stroke="black" points="1141.5,-416.5 1141.5,-453.5 1364.5,-453.5 1364.5,-416.5 1141.5,-416.5"/>
<text text-anchor="start" x="1213.5" y="-432.3" font-family="Arial" font-weight="bold" font-size="14.00">StringError</text>
<polygon fill="white" stroke="none" points="1141.5,-349.5 1141.5,-416.5 1364.5,-416.5 1364.5,-349.5 1141.5,-349.5"/>
<polygon fill="none" stroke="black" points="1141.5,-349.5 1141.5,-416.5 1364.5,-416.5 1364.5,-349.5 1141.5,-349.5"/>
<text text-anchor="start" x="1152.5" y="-394.3" font-family="Arial" font-size="14.00">Utf8(String)</text>
<text text-anchor="start" x="1152.5" y="-379.3" font-family="Arial" font-size="14.00">Null(String)</text>
<text text-anchor="start" x="1152.5" y="-364.3" font-family="Arial" font-size="14.00">IntoString(String)</text>
<polygon fill="white" stroke="none" points="1141.5,-282.5 1141.5,-349.5 1364.5,-349.5 1364.5,-282.5 1141.5,-282.5"/>
<polygon fill="none" stroke="black" points="1141.5,-282.5 1141.5,-349.5 1364.5,-349.5 1364.5,-282.5 1141.5,-282.5"/>
<text text-anchor="start" x="1152.5" y="-327.3" font-family="Arial" font-size="14.00">&#45; from(e: Utf8Error) &#45;&gt; Self</text>
<text text-anchor="start" x="1152.5" y="-312.3" font-family="Arial" font-size="14.00">&#45; from(e: NulError) &#45;&gt; Self</text>
<text text-anchor="start" x="1152.5" y="-297.3" font-family="Arial" font-size="14.00">&#45; from(e: IntoStringError) &#45;&gt; Self</text>
<polygon fill="none" stroke="black" points="1140,-282 1140,-455 1365,-455 1365,-282 1140,-282"/>
</g>
<!-- ndStringError&#45;&gt;ndNativeResult -->
<g id="edge5" class="edge"><title>ndStringError&#45;&gt;ndNativeResult</title>
<path fill="none" stroke="black" d="M1231.63,-277.672C1224.06,-245.085 1215.54,-208.41 1208.09,-176.315"/>
<polygon fill="black" stroke="black" points="1205.81,-166.511 1212.46,-175.233 1206.94,-171.381 1208.07,-176.252 1208.07,-176.252 1208.07,-176.252 1206.94,-171.381 1203.69,-177.27 1205.81,-166.511 1205.81,-166.511"/>
</g>
</g>
</svg>
