<?xml version="1.0" encoding="UTF-8" standalone="no"?>
<!DOCTYPE svg PUBLIC "-//W3C//DTD SVG 1.1//EN"
 "http://www.w3.org/Graphics/SVG/1.1/DTD/svg11.dtd">
<!-- Generated by graphviz version 2.38.0 (20140413.2041)
 -->
<!-- Title: ml Pages: 1 -->
<svg width="2338pt" height="391pt"
 viewBox="0.00 0.00 2337.50 391.00" xmlns="http://www.w3.org/2000/svg" xmlns:xlink="http://www.w3.org/1999/xlink">
<g id="graph0" class="graph" transform="scale(1 1) rotate(0) translate(4 387)">
<title>ml</title>
<polygon fill="white" stroke="none" points="-4,4 -4,-387 2333.5,-387 2333.5,4 -4,4"/>
<!-- ndErrorCode -->
<g id="node1" class="node"><title>ndErrorCode</title>
<g id="a_node1_0"><a xlink:href="https://github.com/maidsafe/sn_ffi_utils/blob/master/src/lib.rs#:~:text=trait%20ErrorCode" xlink:title="&lt;TABLE&gt;">
<polygon fill="lightgreen" stroke="none" points="84.5,-292.5 84.5,-329.5 261.5,-329.5 261.5,-292.5 84.5,-292.5"/>
<polygon fill="none" stroke="black" points="84.5,-292.5 84.5,-329.5 261.5,-329.5 261.5,-292.5 84.5,-292.5"/>
<text text-anchor="start" x="136" y="-308.3" font-family="Arial" font-weight="bold" font-size="14.00">ErrorCode</text>
<polygon fill="white" stroke="none" points="84.5,-255.5 84.5,-292.5 261.5,-292.5 261.5,-255.5 84.5,-255.5"/>
<polygon fill="none" stroke="black" points="84.5,-255.5 84.5,-292.5 261.5,-292.5 261.5,-255.5 84.5,-255.5"/>
<text text-anchor="start" x="95.5" y="-270.3" font-family="Arial" font-size="14.00">error_code(&amp;Self) &#45;&gt; i32</text>
<polygon fill="none" stroke="black" points="83,-254.5 83,-330.5 262,-330.5 262,-254.5 83,-254.5"/>
</a>
</g>
</g>
<!-- ndTestError -->
<g id="node10" class="node"><title>ndTestError</title>
<g id="a_node10_1"><a xlink:href="https://github.com/maidsafe/sn_ffi_utils/blob/master/src/test_utils.rs#:~:text=enum%20TestError" xlink:title="&lt;TABLE&gt;">
<polygon fill="yellow" stroke="none" points="9.5,-124 9.5,-161 336.5,-161 336.5,-124 9.5,-124"/>
<polygon fill="none" stroke="black" points="9.5,-124 9.5,-161 336.5,-161 336.5,-124 9.5,-124"/>
<text text-anchor="start" x="139.5" y="-139.8" font-family="Arial" font-weight="bold" font-size="14.00">TestError</text>
<polygon fill="white" stroke="none" points="9.5,-72 9.5,-124 336.5,-124 336.5,-72 9.5,-72"/>
<polygon fill="none" stroke="black" points="9.5,-72 9.5,-124 336.5,-124 336.5,-72 9.5,-72"/>
<text text-anchor="start" x="20.5" y="-101.8" font-family="Arial" font-size="14.00">FromStr(String)</text>
<text text-anchor="start" x="20.5" y="-86.8" font-family="Arial" font-size="14.00">Test</text>
<polygon fill="white" stroke="none" points="9.5,-5 9.5,-72 336.5,-72 336.5,-5 9.5,-5"/>
<polygon fill="none" stroke="black" points="9.5,-5 9.5,-72 336.5,-72 336.5,-5 9.5,-5"/>
<text text-anchor="start" x="20.5" y="-49.8" font-family="Arial" font-size="14.00">&#45; from(s: &amp;&#39;a str) &#45;&gt; Self</text>
<text text-anchor="start" x="20.5" y="-34.8" font-family="Arial" font-size="14.00">&#45; error_code(&amp;self) &#45;&gt; i32</text>
<text text-anchor="start" x="20.5" y="-19.8" font-family="Arial" font-size="14.00">&#45; fmt(&amp;self, f: &amp;mut fmt::Formatter) &#45;&gt; fmt::Result</text>
<polygon fill="none" stroke="black" points="8,-4 8,-162 337,-162 337,-4 8,-4"/>
</a>
</g>
</g>
<!-- ndErrorCode&#45;&gt;ndTestError -->
<g id="edge1" class="edge"><title>ndErrorCode&#45;&gt;ndTestError</title>
<path fill="none" stroke="black" stroke-dasharray="5,2" d="M172.5,-250.008C172.5,-228.813 172.5,-202.117 172.5,-176.367"/>
<polygon fill="none" stroke="black" points="176,-176.178 172.5,-166.178 169,-176.178 176,-176.178"/>
</g>
<!-- ndEnvGuard -->
<g id="node2" class="node"><title>ndEnvGuard</title>
<g id="a_node2_2"><a xlink:href="https://github.com/maidsafe/sn_ffi_utils/blob/master/src/java.rs#:~:text=enum%20EnvGuard" xlink:title="&lt;TABLE&gt;">
<polygon fill="yellow" stroke="none" points="297.5,-325.5 297.5,-362.5 642.5,-362.5 642.5,-325.5 297.5,-325.5"/>
<polygon fill="none" stroke="black" points="297.5,-325.5 297.5,-362.5 642.5,-362.5 642.5,-325.5 297.5,-325.5"/>
<text text-anchor="start" x="434.5" y="-341.3" font-family="Arial" font-weight="bold" font-size="14.00">EnvGuard</text>
<polygon fill="white" stroke="none" points="297.5,-273.5 297.5,-325.5 642.5,-325.5 642.5,-273.5 297.5,-273.5"/>
<polygon fill="none" stroke="black" points="297.5,-273.5 297.5,-325.5 642.5,-325.5 642.5,-273.5 297.5,-273.5"/>
<text text-anchor="start" x="308.5" y="-303.3" font-family="Arial" font-size="14.00">Auto(JNIEnv&lt;&#39;a&gt;)</text>
<text text-anchor="start" x="308.5" y="-288.3" font-family="Arial" font-size="14.00">Manual(AttachGuard&lt;&#39;a&gt;)</text>
<polygon fill="white" stroke="none" points="297.5,-221.5 297.5,-273.5 642.5,-273.5 642.5,-221.5 297.5,-221.5"/>
<polygon fill="none" stroke="black" points="297.5,-221.5 297.5,-273.5 642.5,-273.5 642.5,-221.5 297.5,-221.5"/>
<text text-anchor="start" x="308.5" y="-251.3" font-family="Arial" font-size="14.00">&#45; new(vm: Option&lt;&amp;&#39;a JavaVM&gt;) &#45;&gt; JniResult&lt;Self&gt;</text>
<text text-anchor="start" x="308.5" y="-236.3" font-family="Arial" font-size="14.00">&#45; env(&amp;self) &#45;&gt; &amp;JNIEnv</text>
<polygon fill="none" stroke="black" points="296,-221 296,-364 643,-364 643,-221 296,-221"/>
</a>
</g>
</g>
<!-- ndReprC -->
<g id="node3" class="node"><title>ndReprC</title>
<g id="a_node3_3"><a xlink:href="https://github.com/maidsafe/sn_ffi_utils/blob/master/src/repr_c.rs#:~:text=trait%20ReprC" xlink:title="&lt;TABLE&gt;">
<polygon fill="lightgreen" stroke="none" points="678.5,-292.5 678.5,-329.5 1049.5,-329.5 1049.5,-292.5 678.5,-292.5"/>
<polygon fill="none" stroke="black" points="678.5,-292.5 678.5,-329.5 1049.5,-329.5 1049.5,-292.5 678.5,-292.5"/>
<text text-anchor="start" x="842" y="-308.3" font-family="Arial" font-weight="bold" font-size="14.00">ReprC</text>
<polygon fill="white" stroke="none" points="678.5,-255.5 678.5,-292.5 1049.5,-292.5 1049.5,-255.5 678.5,-255.5"/>
<polygon fill="none" stroke="black" points="678.5,-255.5 678.5,-292.5 1049.5,-292.5 1049.5,-255.5 678.5,-255.5"/>
<text text-anchor="start" x="689.5" y="-270.3" font-family="Arial" font-size="14.00">clone_from_repr_c(Self::C) &#45;&gt; Result&lt;Self, Self::Error&gt;</text>
<polygon fill="none" stroke="black" points="677,-254.5 677,-330.5 1050,-330.5 1050,-254.5 677,-254.5"/>
</a>
</g>
</g>
<!-- ndNativeResult -->
<g id="node7" class="node"><title>ndNativeResult</title>
<g id="a_node7_4"><a xlink:href="https://github.com/maidsafe/sn_ffi_utils/blob/master/src/result.rs#:~:text=struct%20NativeResult" xlink:title="&lt;TABLE&gt;">
<polygon fill="lightblue" stroke="none" points="970.5,-116 970.5,-153 1398.5,-153 1398.5,-116 970.5,-116"/>
<polygon fill="none" stroke="black" points="970.5,-116 970.5,-153 1398.5,-153 1398.5,-116 970.5,-116"/>
<text text-anchor="start" x="1141" y="-131.8" font-family="Arial" font-weight="bold" font-size="14.00">NativeResult</text>
<polygon fill="white" stroke="none" points="970.5,-64 970.5,-116 1398.5,-116 1398.5,-64 970.5,-64"/>
<polygon fill="none" stroke="black" points="970.5,-64 970.5,-116 1398.5,-116 1398.5,-64 970.5,-64"/>
<text text-anchor="start" x="981.5" y="-93.8" font-family="Arial" font-size="14.00">+ error_code: i32</text>
<text text-anchor="start" x="981.5" y="-78.8" font-family="Arial" font-size="14.00">+ description: Option&lt;String&gt;</text>
<polygon fill="white" stroke="none" points="970.5,-12 970.5,-64 1398.5,-64 1398.5,-12 970.5,-12"/>
<polygon fill="none" stroke="black" points="970.5,-12 970.5,-64 1398.5,-64 1398.5,-12 970.5,-12"/>
<text text-anchor="start" x="981.5" y="-41.8" font-family="Arial" font-size="14.00">&#45; into_repr_c(self) &#45;&gt; Result&lt;FfiResult, StringError&gt;</text>
<text text-anchor="start" x="981.5" y="-26.8" font-family="Arial" font-size="14.00">&#45; clone_from_repr_c(repr_c: Self::C) &#45;&gt; Result&lt;Self, Self::Error&gt;</text>
<polygon fill="none" stroke="black" points="969.5,-11.5 969.5,-154.5 1399.5,-154.5 1399.5,-11.5 969.5,-11.5"/>
</a>
</g>
</g>
<!-- ndReprC&#45;&gt;ndNativeResult -->
<g id="edge2" class="edge"><title>ndReprC&#45;&gt;ndNativeResult</title>
<path fill="none" stroke="black" stroke-dasharray="5,2" d="M927.303,-250.257C965.429,-225.611 1015.16,-193.464 1060.72,-164.013"/>
<polygon fill="none" stroke="black" points="1062.68,-166.916 1069.18,-158.548 1058.88,-161.037 1062.68,-166.916"/>
</g>
<!-- ndCallback -->
<g id="node4" class="node"><title>ndCallback</title>
<g id="a_node4_5"><a xlink:href="https://github.com/maidsafe/sn_ffi_utils/blob/master/src/callback.rs#:~:text=trait%20Callback" xlink:title="&lt;TABLE&gt;">
<polygon fill="lightgreen" stroke="none" points="1579.5,-292.5 1579.5,-329.5 1662.5,-329.5 1662.5,-292.5 1579.5,-292.5"/>
<polygon fill="none" stroke="black" points="1579.5,-292.5 1579.5,-329.5 1662.5,-329.5 1662.5,-292.5 1579.5,-292.5"/>
<text text-anchor="start" x="1590.5" y="-308.3" font-family="Arial" font-weight="bold" font-size="14.00">Callback</text>
<polygon fill="white" stroke="none" points="1579.5,-254.5 1579.5,-292.5 1662.5,-292.5 1662.5,-254.5 1579.5,-254.5"/>
<polygon fill="none" stroke="black" points="1579.5,-254.5 1579.5,-292.5 1662.5,-292.5 1662.5,-254.5 1579.5,-254.5"/>
<polygon fill="none" stroke="black" points="1578,-254 1578,-331 1663,-331 1663,-254 1578,-254"/>
</a>
</g>
</g>
<!-- ndCallbackArgs -->
<g id="node5" class="node"><title>ndCallbackArgs</title>
<g id="a_node5_6"><a xlink:href="https://github.com/maidsafe/sn_ffi_utils/blob/master/src/callback.rs#:~:text=trait%20CallbackArgs" xlink:title="&lt;TABLE&gt;">
<polygon fill="lightgreen" stroke="none" points="1698.5,-292.5 1698.5,-329.5 1818.5,-329.5 1818.5,-292.5 1698.5,-292.5"/>
<polygon fill="none" stroke="black" points="1698.5,-292.5 1698.5,-329.5 1818.5,-329.5 1818.5,-292.5 1698.5,-292.5"/>
<text text-anchor="start" x="1711.5" y="-308.3" font-family="Arial" font-weight="bold" font-size="14.00">CallbackArgs</text>
<polygon fill="white" stroke="none" points="1698.5,-255.5 1698.5,-292.5 1818.5,-292.5 1818.5,-255.5 1698.5,-255.5"/>
<polygon fill="none" stroke="black" points="1698.5,-255.5 1698.5,-292.5 1818.5,-292.5 1818.5,-255.5 1698.5,-255.5"/>
<text text-anchor="start" x="1709.5" y="-270.3" font-family="Arial" font-size="14.00">default() &#45;&gt; Self</text>
<polygon fill="none" stroke="black" points="1697.5,-254.5 1697.5,-330.5 1819.5,-330.5 1819.5,-254.5 1697.5,-254.5"/>
</a>
</g>
</g>
<!-- ndSafePtr -->
<g id="node6" class="node"><title>ndSafePtr</title>
<g id="a_node6_7"><a xlink:href="https://github.com/maidsafe/sn_ffi_utils/blob/master/src/vec.rs#:~:text=trait%20SafePtr" xlink:title="&lt;TABLE&gt;">
<polygon fill="lightgreen" stroke="none" points="1855.5,-292.5 1855.5,-329.5 2112.5,-329.5 2112.5,-292.5 1855.5,-292.5"/>
<polygon fill="none" stroke="black" points="1855.5,-292.5 1855.5,-329.5 2112.5,-329.5 2112.5,-292.5 1855.5,-292.5"/>
<text text-anchor="start" x="1958" y="-308.3" font-family="Arial" font-weight="bold" font-size="14.00">SafePtr</text>
<polygon fill="white" stroke="none" points="1855.5,-255.5 1855.5,-292.5 2112.5,-292.5 2112.5,-255.5 1855.5,-255.5"/>
<polygon fill="none" stroke="black" points="1855.5,-255.5 1855.5,-292.5 2112.5,-292.5 2112.5,-255.5 1855.5,-255.5"/>
<text text-anchor="start" x="1866.5" y="-270.3" font-family="Arial" font-size="14.00">as_safe_ptr(&amp;Self) &#45;&gt; *const Self::Ptr</text>
<polygon fill="none" stroke="black" points="1854,-254.5 1854,-330.5 2113,-330.5 2113,-254.5 1854,-254.5"/>
</a>
</g>
</g>
<!-- ndFfiResult -->
<g id="node8" class="node"><title>ndFfiResult</title>
<g id="a_node8_8"><a xlink:href="https://github.com/maidsafe/sn_ffi_utils/blob/master/src/result.rs#:~:text=struct%20FfiResult" xlink:title="&lt;TABLE&gt;">
<polygon fill="lightblue" stroke="none" points="1085.5,-318.5 1085.5,-355.5 1283.5,-355.5 1283.5,-318.5 1085.5,-318.5"/>
<polygon fill="none" stroke="black" points="1085.5,-318.5 1085.5,-355.5 1283.5,-355.5 1283.5,-318.5 1085.5,-318.5"/>
<text text-anchor="start" x="1154" y="-334.3" font-family="Arial" font-weight="bold" font-size="14.00">FfiResult</text>
<polygon fill="white" stroke="none" points="1085.5,-266.5 1085.5,-318.5 1283.5,-318.5 1283.5,-266.5 1085.5,-266.5"/>
<polygon fill="none" stroke="black" points="1085.5,-266.5 1085.5,-318.5 1283.5,-318.5 1283.5,-266.5 1085.5,-266.5"/>
<text text-anchor="start" x="1096.5" y="-296.3" font-family="Arial" font-size="14.00">+ error_code: i32</text>
<text text-anchor="start" x="1096.5" y="-281.3" font-family="Arial" font-size="14.00">+ description: *const c_char</text>
<polygon fill="white" stroke="none" points="1085.5,-229.5 1085.5,-266.5 1283.5,-266.5 1283.5,-229.5 1085.5,-229.5"/>
<polygon fill="none" stroke="black" points="1085.5,-229.5 1085.5,-266.5 1283.5,-266.5 1283.5,-229.5 1085.5,-229.5"/>
<text text-anchor="start" x="1096.5" y="-244.3" font-family="Arial" font-size="14.00">&#45; drop(&amp;mut self)</text>
<polygon fill="none" stroke="black" points="1084.5,-228.5 1084.5,-356.5 1284.5,-356.5 1284.5,-228.5 1084.5,-228.5"/>
</a>
</g>
</g>
<!-- ndFfiResult&#45;&gt;ndNativeResult -->
<g id="edge3" class="edge"><title>ndFfiResult&#45;&gt;ndNativeResult</title>
<path fill="none" stroke="black" d="M1184.5,-224.417C1184.5,-206.734 1184.5,-187.42 1184.5,-168.931"/>
<polygon fill="black" stroke="black" points="1184.5,-158.759 1189,-168.759 1184.5,-163.759 1184.5,-168.759 1184.5,-168.759 1184.5,-168.759 1184.5,-163.759 1180,-168.759 1184.5,-158.759 1184.5,-158.759"/>
</g>
<!-- ndUserData -->
<g id="node9" class="node"><title>ndUserData</title>
<g id="a_node9_9"><a xlink:href="https://github.com/maidsafe/sn_ffi_utils/blob/master/src/test_utils.rs#:~:text=struct%20UserData" xlink:title="&lt;TABLE&gt;">
<polygon fill="lightblue" stroke="none" points="2148.5,-318.5 2148.5,-355.5 2320.5,-355.5 2320.5,-318.5 2148.5,-318.5"/>
<polygon fill="none" stroke="black" points="2148.5,-318.5 2148.5,-355.5 2320.5,-355.5 2320.5,-318.5 2148.5,-318.5"/>
<text text-anchor="start" x="2202.5" y="-334.3" font-family="Arial" font-weight="bold" font-size="14.00">UserData</text>
<polygon fill="white" stroke="none" points="2148.5,-266.5 2148.5,-318.5 2320.5,-318.5 2320.5,-266.5 2148.5,-266.5"/>
<polygon fill="none" stroke="black" points="2148.5,-266.5 2148.5,-318.5 2320.5,-318.5 2320.5,-266.5 2148.5,-266.5"/>
<text text-anchor="start" x="2159.5" y="-296.3" font-family="Arial" font-size="14.00">+ common: *mut c_void</text>
<text text-anchor="start" x="2159.5" y="-281.3" font-family="Arial" font-size="14.00">+ custom: *mut c_void</text>
<polygon fill="white" stroke="none" points="2148.5,-229.5 2148.5,-266.5 2320.5,-266.5 2320.5,-229.5 2148.5,-229.5"/>
<polygon fill="none" stroke="black" points="2148.5,-229.5 2148.5,-266.5 2320.5,-266.5 2320.5,-229.5 2148.5,-229.5"/>
<text text-anchor="start" x="2159.5" y="-244.3" font-family="Arial" font-size="14.00">&#45; default() &#45;&gt; Self</text>
<polygon fill="none" stroke="black" points="2147.5,-228.5 2147.5,-356.5 2321.5,-356.5 2321.5,-228.5 2147.5,-228.5"/>
</a>
</g>
</g>
<!-- ndStringError -->
<g id="node11" class="node"><title>ndStringError</title>
<g id="a_node11_10"><a xlink:href="https://github.com/maidsafe/sn_ffi_utils/blob/master/src/string.rs#:~:text=enum%20StringError" xlink:title="&lt;TABLE&gt;">
<polygon fill="yellow" stroke="none" points="1320.5,-340.5 1320.5,-377.5 1543.5,-377.5 1543.5,-340.5 1320.5,-340.5"/>
<polygon fill="none" stroke="black" points="1320.5,-340.5 1320.5,-377.5 1543.5,-377.5 1543.5,-340.5 1320.5,-340.5"/>
<text text-anchor="start" x="1392.5" y="-356.3" font-family="Arial" font-weight="bold" font-size="14.00">StringError</text>
<polygon fill="white" stroke="none" points="1320.5,-273.5 1320.5,-340.5 1543.5,-340.5 1543.5,-273.5 1320.5,-273.5"/>
<polygon fill="none" stroke="black" points="1320.5,-273.5 1320.5,-340.5 1543.5,-340.5 1543.5,-273.5 1320.5,-273.5"/>
<text text-anchor="start" x="1331.5" y="-318.3" font-family="Arial" font-size="14.00">Utf8(String)</text>
<text text-anchor="start" x="1331.5" y="-303.3" font-family="Arial" font-size="14.00">Null(String)</text>
<text text-anchor="start" x="1331.5" y="-288.3" font-family="Arial" font-size="14.00">IntoString(String)</text>
<polygon fill="white" stroke="none" points="1320.5,-206.5 1320.5,-273.5 1543.5,-273.5 1543.5,-206.5 1320.5,-206.5"/>
<polygon fill="none" stroke="black" points="1320.5,-206.5 1320.5,-273.5 1543.5,-273.5 1543.5,-206.5 1320.5,-206.5"/>
<text text-anchor="start" x="1331.5" y="-251.3" font-family="Arial" font-size="14.00">&#45; from(e: Utf8Error) &#45;&gt; Self</text>
<text text-anchor="start" x="1331.5" y="-236.3" font-family="Arial" font-size="14.00">&#45; from(e: NulError) &#45;&gt; Self</text>
<text text-anchor="start" x="1331.5" y="-221.3" font-family="Arial" font-size="14.00">&#45; from(e: IntoStringError) &#45;&gt; Self</text>
<polygon fill="none" stroke="black" points="1319,-206 1319,-379 1544,-379 1544,-206 1319,-206"/>
</a>
</g>
</g>
<!-- ndStringError&#45;&gt;ndNativeResult -->
<g id="edge4" class="edge"><title>ndStringError&#45;&gt;ndNativeResult</title>
<path fill="none" stroke="black" d="M1324.96,-201.996C1310.42,-189.779 1295.55,-177.294 1281.2,-165.236"/>
<polygon fill="black" stroke="black" points="1273.28,-158.585 1283.83,-161.572 1277.11,-161.801 1280.94,-165.017 1280.94,-165.017 1280.94,-165.017 1277.11,-161.801 1278.05,-168.463 1273.28,-158.585 1273.28,-158.585"/>
</g>
</g>
</svg>
