<?xml version="1.0" encoding="UTF-8" standalone="no"?>
<!DOCTYPE svg PUBLIC "-//W3C//DTD SVG 1.1//EN"
 "http://www.w3.org/Graphics/SVG/1.1/DTD/svg11.dtd">
<!-- Generated by graphviz version 2.38.0 (20140413.2041)
 -->
<!-- Title: ml Pages: 1 -->
<svg width="1324pt" height="257pt"
 viewBox="0.00 0.00 1324.00 257.00" xmlns="http://www.w3.org/2000/svg" xmlns:xlink="http://www.w3.org/1999/xlink">
<g id="graph0" class="graph" transform="scale(1 1) rotate(0) translate(4 253)">
<title>ml</title>
<polygon fill="white" stroke="none" points="-4,4 -4,-253 1320,-253 1320,4 -4,4"/>
<!-- ndErrorCode -->
<g id="node1" class="node"><title>ndErrorCode</title>
<polygon fill="lightgreen" stroke="none" points="21,-173 21,-210 117,-210 117,-173 21,-173"/>
<polygon fill="none" stroke="black" points="21,-173 21,-210 117,-210 117,-173 21,-173"/>
<text text-anchor="start" x="32" y="-188.8" font-family="Arial" font-weight="bold" font-size="14.00">ErrorCode</text>
<polygon fill="none" stroke="black" points="20,-172.5 20,-211.5 118,-211.5 118,-172.5 20,-172.5"/>
</g>
<!-- ndTestError -->
<g id="node10" class="node"><title>ndTestError</title>
<polygon fill="yellow" stroke="none" points="9,-56.5 9,-93.5 129,-93.5 129,-56.5 9,-56.5"/>
<polygon fill="none" stroke="black" points="9,-56.5 9,-93.5 129,-93.5 129,-56.5 9,-56.5"/>
<text text-anchor="start" x="35.5" y="-72.3" font-family="Arial" font-weight="bold" font-size="14.00">TestError</text>
<polygon fill="white" stroke="none" points="9,-4.5 9,-56.5 129,-56.5 129,-4.5 9,-4.5"/>
<polygon fill="none" stroke="black" points="9,-4.5 9,-56.5 129,-56.5 129,-4.5 9,-4.5"/>
<text text-anchor="start" x="20" y="-34.3" font-family="Arial" font-size="14.00">FromStr(String)</text>
<text text-anchor="start" x="20" y="-19.3" font-family="Arial" font-size="14.00">Test</text>
<polygon fill="none" stroke="black" points="8,-4 8,-95 130,-95 130,-4 8,-4"/>
</g>
<!-- ndErrorCode&#45;&gt;ndTestError -->
<g id="edge1" class="edge"><title>ndErrorCode&#45;&gt;ndTestError</title>
<path fill="none" stroke="black" stroke-dasharray="5,2" d="M69,-168.426C69,-152.427 69,-130.182 69,-109.319"/>
<polygon fill="none" stroke="black" points="72.5001,-109.221 69,-99.2212 65.5001,-109.221 72.5001,-109.221"/>
</g>
<!-- ndEnvGuard -->
<g id="node2" class="node"><title>ndEnvGuard</title>
<polygon fill="yellow" stroke="none" points="153,-199 153,-236 335,-236 335,-199 153,-199"/>
<polygon fill="none" stroke="black" points="153,-199 153,-236 335,-236 335,-199 153,-199"/>
<text text-anchor="start" x="208.5" y="-214.8" font-family="Arial" font-weight="bold" font-size="14.00">EnvGuard</text>
<polygon fill="white" stroke="none" points="153,-147 153,-199 335,-199 335,-147 153,-147"/>
<polygon fill="none" stroke="black" points="153,-147 153,-199 335,-199 335,-147 153,-147"/>
<text text-anchor="start" x="164" y="-176.8" font-family="Arial" font-size="14.00">Auto(JNIEnv&lt;&#39;a&gt;)</text>
<text text-anchor="start" x="164" y="-161.8" font-family="Arial" font-size="14.00">Manual(AttachGuard&lt;&#39;a&gt;)</text>
<polygon fill="none" stroke="black" points="152,-146.5 152,-237.5 336,-237.5 336,-146.5 152,-146.5"/>
</g>
<!-- ndReprC -->
<g id="node3" class="node"><title>ndReprC</title>
<polygon fill="lightgreen" stroke="none" points="371,-173 371,-210 437,-210 437,-173 371,-173"/>
<polygon fill="none" stroke="black" points="371,-173 371,-210 437,-210 437,-173 371,-173"/>
<text text-anchor="start" x="382" y="-188.8" font-family="Arial" font-weight="bold" font-size="14.00">ReprC</text>
<polygon fill="none" stroke="black" points="370,-172.5 370,-211.5 438,-211.5 438,-172.5 370,-172.5"/>
</g>
<!-- ndNativeResult -->
<g id="node7" class="node"><title>ndNativeResult</title>
<polygon fill="lightblue" stroke="none" points="435,-56.5 435,-93.5 642,-93.5 642,-56.5 435,-56.5"/>
<polygon fill="none" stroke="black" points="435,-56.5 435,-93.5 642,-93.5 642,-56.5 435,-56.5"/>
<text text-anchor="start" x="495" y="-72.3" font-family="Arial" font-weight="bold" font-size="14.00">NativeResult</text>
<polygon fill="white" stroke="none" points="435,-4.5 435,-56.5 642,-56.5 642,-4.5 435,-4.5"/>
<polygon fill="none" stroke="black" points="435,-4.5 435,-56.5 642,-56.5 642,-4.5 435,-4.5"/>
<text text-anchor="start" x="446" y="-34.3" font-family="Arial" font-size="14.00">+ error_code: i32</text>
<text text-anchor="start" x="446" y="-19.3" font-family="Arial" font-size="14.00">+ description: Option&lt;String&gt;</text>
<polygon fill="none" stroke="black" points="433.5,-4 433.5,-95 642.5,-95 642.5,-4 433.5,-4"/>
</g>
<!-- ndReprC&#45;&gt;ndNativeResult -->
<g id="edge2" class="edge"><title>ndReprC&#45;&gt;ndNativeResult</title>
<path fill="none" stroke="black" stroke-dasharray="5,2" d="M424.159,-168.477C433.459,-158.187 444.699,-145.891 455,-135 463.783,-125.714 473.194,-115.956 482.41,-106.503"/>
<polygon fill="none" stroke="black" points="484.919,-108.943 489.406,-99.3458 479.913,-104.05 484.919,-108.943"/>
</g>
<!-- ndCallback -->
<g id="node4" class="node"><title>ndCallback</title>
<polygon fill="lightgreen" stroke="none" points="697,-30.5 697,-67.5 780,-67.5 780,-30.5 697,-30.5"/>
<polygon fill="none" stroke="black" points="697,-30.5 697,-67.5 780,-67.5 780,-30.5 697,-30.5"/>
<text text-anchor="start" x="708" y="-46.3" font-family="Arial" font-weight="bold" font-size="14.00">Callback</text>
<polygon fill="none" stroke="black" points="695.5,-30 695.5,-69 780.5,-69 780.5,-30 695.5,-30"/>
</g>
<!-- ndCallbackArgs -->
<g id="node5" class="node"><title>ndCallbackArgs</title>
<polygon fill="lightgreen" stroke="none" points="873,-173 873,-210 989,-210 989,-173 873,-173"/>
<polygon fill="none" stroke="black" points="873,-173 873,-210 989,-210 989,-173 873,-173"/>
<text text-anchor="start" x="884" y="-188.8" font-family="Arial" font-weight="bold" font-size="14.00">CallbackArgs</text>
<polygon fill="none" stroke="black" points="872,-172.5 872,-211.5 990,-211.5 990,-172.5 872,-172.5"/>
</g>
<!-- ndSafePtr -->
<g id="node6" class="node"><title>ndSafePtr</title>
<polygon fill="lightgreen" stroke="none" points="1025,-173 1025,-210 1099,-210 1099,-173 1025,-173"/>
<polygon fill="none" stroke="black" points="1025,-173 1025,-210 1099,-210 1099,-173 1025,-173"/>
<text text-anchor="start" x="1036" y="-188.8" font-family="Arial" font-weight="bold" font-size="14.00">SafePtr</text>
<polygon fill="none" stroke="black" points="1024,-172.5 1024,-211.5 1100,-211.5 1100,-172.5 1024,-172.5"/>
</g>
<!-- ndFfiResult -->
<g id="node8" class="node"><title>ndFfiResult</title>
<polygon fill="lightblue" stroke="none" points="639,-199 639,-236 837,-236 837,-199 639,-199"/>
<polygon fill="none" stroke="black" points="639,-199 639,-236 837,-236 837,-199 639,-199"/>
<text text-anchor="start" x="707.5" y="-214.8" font-family="Arial" font-weight="bold" font-size="14.00">FfiResult</text>
<polygon fill="white" stroke="none" points="639,-147 639,-199 837,-199 837,-147 639,-147"/>
<polygon fill="none" stroke="black" points="639,-147 639,-199 837,-199 837,-147 639,-147"/>
<text text-anchor="start" x="650" y="-176.8" font-family="Arial" font-size="14.00">+ error_code: i32</text>
<text text-anchor="start" x="650" y="-161.8" font-family="Arial" font-size="14.00">+ description: *const c_char</text>
<polygon fill="none" stroke="black" points="638,-146.5 638,-237.5 838,-237.5 838,-146.5 638,-146.5"/>
</g>
<!-- ndFfiResult&#45;&gt;ndCallback -->
<g id="edge3" class="edge"><title>ndFfiResult&#45;&gt;ndCallback</title>
<path fill="none" stroke="black" stroke-dasharray="5,2" d="M738,-142.254C738,-122.826 738,-100.97 738,-83.4635"/>
<polygon fill="black" stroke="black" points="738,-73.1859 742.5,-83.1859 738,-78.1859 738,-83.1859 738,-83.1859 738,-83.1859 738,-78.1859 733.5,-83.186 738,-73.1859 738,-73.1859"/>
</g>
<!-- ndFfiResult&#45;&gt;ndNativeResult -->
<g id="edge4" class="edge"><title>ndFfiResult&#45;&gt;ndNativeResult</title>
<path fill="none" stroke="black" d="M668.891,-142.451C651.717,-130.386 633.194,-117.374 615.641,-105.043"/>
<polygon fill="black" stroke="black" points="607.111,-99.0508 617.881,-101.117 611.203,-101.925 615.294,-104.799 615.294,-104.799 615.294,-104.799 611.203,-101.925 612.707,-108.481 607.111,-99.0508 607.111,-99.0508"/>
</g>
<!-- ndUserData -->
<g id="node9" class="node"><title>ndUserData</title>
<polygon fill="lightblue" stroke="none" points="1135,-199 1135,-236 1307,-236 1307,-199 1135,-199"/>
<polygon fill="none" stroke="black" points="1135,-199 1135,-236 1307,-236 1307,-199 1135,-199"/>
<text text-anchor="start" x="1189" y="-214.8" font-family="Arial" font-weight="bold" font-size="14.00">UserData</text>
<polygon fill="white" stroke="none" points="1135,-147 1135,-199 1307,-199 1307,-147 1135,-147"/>
<polygon fill="none" stroke="black" points="1135,-147 1135,-199 1307,-199 1307,-147 1135,-147"/>
<text text-anchor="start" x="1146" y="-176.8" font-family="Arial" font-size="14.00">+ common: *mut c_void</text>
<text text-anchor="start" x="1146" y="-161.8" font-family="Arial" font-size="14.00">+ custom: *mut c_void</text>
<polygon fill="none" stroke="black" points="1134,-146.5 1134,-237.5 1308,-237.5 1308,-146.5 1134,-146.5"/>
</g>
<!-- ndStringError -->
<g id="node11" class="node"><title>ndStringError</title>
<polygon fill="yellow" stroke="none" points="474,-207 474,-244 603,-244 603,-207 474,-207"/>
<polygon fill="none" stroke="black" points="474,-207 474,-244 603,-244 603,-207 474,-207"/>
<text text-anchor="start" x="499" y="-222.8" font-family="Arial" font-weight="bold" font-size="14.00">StringError</text>
<polygon fill="white" stroke="none" points="474,-140 474,-207 603,-207 603,-140 474,-140"/>
<polygon fill="none" stroke="black" points="474,-140 474,-207 603,-207 603,-140 474,-140"/>
<text text-anchor="start" x="485" y="-184.8" font-family="Arial" font-size="14.00">Utf8(String)</text>
<text text-anchor="start" x="485" y="-169.8" font-family="Arial" font-size="14.00">Null(String)</text>
<text text-anchor="start" x="485" y="-154.8" font-family="Arial" font-size="14.00">IntoString(String)</text>
<polygon fill="none" stroke="black" points="472.5,-139 472.5,-245 603.5,-245 603.5,-139 472.5,-139"/>
</g>
<!-- ndStringError&#45;&gt;ndNativeResult -->
<g id="edge5" class="edge"><title>ndStringError&#45;&gt;ndNativeResult</title>
<path fill="none" stroke="black" d="M538,-134.663C538,-126.304 538,-117.672 538,-109.265"/>
<polygon fill="black" stroke="black" points="538,-99.1565 542.5,-109.156 538,-104.157 538,-109.157 538,-109.157 538,-109.157 538,-104.157 533.5,-109.157 538,-99.1565 538,-99.1565"/>
</g>
</g>
</svg>
