<?xml version="1.0" encoding="UTF-8" standalone="no"?>
<!DOCTYPE svg PUBLIC "-//W3C//DTD SVG 1.1//EN"
 "http://www.w3.org/Graphics/SVG/1.1/DTD/svg11.dtd">
<!-- Generated by graphviz version 2.38.0 (20140413.2041)
 -->
<!-- Title: ml Pages: 1 -->
<svg width="1731pt" height="257pt"
 viewBox="0.00 0.00 1730.50 257.00" xmlns="http://www.w3.org/2000/svg" xmlns:xlink="http://www.w3.org/1999/xlink">
<g id="graph0" class="graph" transform="scale(1 1) rotate(0) translate(4 253)">
<title>ml</title>
<polygon fill="white" stroke="none" points="-4,4 -4,-253 1726.5,-253 1726.5,4 -4,4"/>
<!-- ndOpaqueCtx -->
<g id="node1" class="node"><title>ndOpaqueCtx</title>
<g id="a_node1_0"><a xlink:href="https://github.com/maidsafe/sn_ffi_utils/blob/master/src/lib.rs#:~:text=struct%20OpaqueCtx" xlink:title="&lt;TABLE&gt;">
<polygon fill="lightblue" stroke="none" points="9.5,-192 9.5,-229 118.5,-229 118.5,-192 9.5,-192"/>
<polygon fill="none" stroke="black" points="9.5,-192 9.5,-229 118.5,-229 118.5,-192 9.5,-192"/>
<text text-anchor="start" x="24.5" y="-207.8" font-family="Arial" font-weight="bold" font-size="14.00">OpaqueCtx</text>
<polygon fill="white" stroke="none" points="9.5,-155 9.5,-192 118.5,-192 118.5,-155 9.5,-155"/>
<polygon fill="none" stroke="black" points="9.5,-155 9.5,-192 118.5,-192 118.5,-155 9.5,-155"/>
<text text-anchor="start" x="20.5" y="-169.8" font-family="Arial" font-size="14.00">+ *mut c_void</text>
<polygon fill="none" stroke="black" points="8,-154 8,-230 119,-230 119,-154 8,-154"/>
</a>
</g>
</g>
<!-- ndErrorCode -->
<g id="node2" class="node"><title>ndErrorCode</title>
<g id="a_node2_1"><a xlink:href="https://github.com/maidsafe/sn_ffi_utils/blob/master/src/lib.rs#:~:text=trait%20ErrorCode" xlink:title="&lt;TABLE&gt;">
<polygon fill="lightgreen" stroke="none" points="154.5,-173 154.5,-210 250.5,-210 250.5,-173 154.5,-173"/>
<polygon fill="none" stroke="black" points="154.5,-173 154.5,-210 250.5,-210 250.5,-173 154.5,-173"/>
<text text-anchor="start" x="165.5" y="-188.8" font-family="Arial" font-weight="bold" font-size="14.00">ErrorCode</text>
<polygon fill="none" stroke="black" points="153.5,-172.5 153.5,-211.5 251.5,-211.5 251.5,-172.5 153.5,-172.5"/>
</a>
</g>
</g>
<!-- ndTestError -->
<g id="node12" class="node"><title>ndTestError</title>
<g id="a_node12_2"><a xlink:href="https://github.com/maidsafe/sn_ffi_utils/blob/master/src/test_utils.rs#:~:text=enum%20TestError" xlink:title="&lt;TABLE&gt;">
<polygon fill="yellow" stroke="none" points="142.5,-56.5 142.5,-93.5 262.5,-93.5 262.5,-56.5 142.5,-56.5"/>
<polygon fill="none" stroke="black" points="142.5,-56.5 142.5,-93.5 262.5,-93.5 262.5,-56.5 142.5,-56.5"/>
<text text-anchor="start" x="169" y="-72.3" font-family="Arial" font-weight="bold" font-size="14.00">TestError</text>
<polygon fill="white" stroke="none" points="142.5,-4.5 142.5,-56.5 262.5,-56.5 262.5,-4.5 142.5,-4.5"/>
<polygon fill="none" stroke="black" points="142.5,-4.5 142.5,-56.5 262.5,-56.5 262.5,-4.5 142.5,-4.5"/>
<text text-anchor="start" x="153.5" y="-34.3" font-family="Arial" font-size="14.00">FromStr(String)</text>
<text text-anchor="start" x="153.5" y="-19.3" font-family="Arial" font-size="14.00">Test</text>
<polygon fill="none" stroke="black" points="141.5,-4 141.5,-95 263.5,-95 263.5,-4 141.5,-4"/>
</a>
</g>
</g>
<!-- ndErrorCode&#45;&gt;ndTestError -->
<g id="edge1" class="edge"><title>ndErrorCode&#45;&gt;ndTestError</title>
<path fill="none" stroke="black" stroke-dasharray="5,2" d="M202.5,-168.426C202.5,-152.427 202.5,-130.182 202.5,-109.319"/>
<polygon fill="none" stroke="black" points="206,-109.221 202.5,-99.2212 199,-109.221 206,-109.221"/>
</g>
<!-- ndEnvGuard -->
<g id="node3" class="node"><title>ndEnvGuard</title>
<g id="a_node3_3"><a xlink:href="https://github.com/maidsafe/sn_ffi_utils/blob/master/src/java.rs#:~:text=enum%20EnvGuard" xlink:title="&lt;TABLE&gt;">
<polygon fill="yellow" stroke="none" points="286.5,-199 286.5,-236 468.5,-236 468.5,-199 286.5,-199"/>
<polygon fill="none" stroke="black" points="286.5,-199 286.5,-236 468.5,-236 468.5,-199 286.5,-199"/>
<text text-anchor="start" x="342" y="-214.8" font-family="Arial" font-weight="bold" font-size="14.00">EnvGuard</text>
<polygon fill="white" stroke="none" points="286.5,-147 286.5,-199 468.5,-199 468.5,-147 286.5,-147"/>
<polygon fill="none" stroke="black" points="286.5,-147 286.5,-199 468.5,-199 468.5,-147 286.5,-147"/>
<text text-anchor="start" x="297.5" y="-176.8" font-family="Arial" font-size="14.00">Auto(JNIEnv&lt;&#39;a&gt;)</text>
<text text-anchor="start" x="297.5" y="-161.8" font-family="Arial" font-size="14.00">Manual(AttachGuard&lt;&#39;a&gt;)</text>
<polygon fill="none" stroke="black" points="285.5,-146.5 285.5,-237.5 469.5,-237.5 469.5,-146.5 285.5,-146.5"/>
</a>
</g>
</g>
<!-- ndReprC -->
<g id="node4" class="node"><title>ndReprC</title>
<g id="a_node4_4"><a xlink:href="https://github.com/maidsafe/sn_ffi_utils/blob/master/src/repr_c.rs#:~:text=trait%20ReprC" xlink:title="&lt;TABLE&gt;">
<polygon fill="lightgreen" stroke="none" points="504.5,-173 504.5,-210 570.5,-210 570.5,-173 504.5,-173"/>
<polygon fill="none" stroke="black" points="504.5,-173 504.5,-210 570.5,-210 570.5,-173 504.5,-173"/>
<text text-anchor="start" x="515.5" y="-188.8" font-family="Arial" font-weight="bold" font-size="14.00">ReprC</text>
<polygon fill="none" stroke="black" points="503.5,-172.5 503.5,-211.5 571.5,-211.5 571.5,-172.5 503.5,-172.5"/>
</a>
</g>
</g>
<!-- ndNativeResult -->
<g id="node8" class="node"><title>ndNativeResult</title>
<g id="a_node8_5"><a xlink:href="https://github.com/maidsafe/sn_ffi_utils/blob/master/src/result.rs#:~:text=struct%20NativeResult" xlink:title="&lt;TABLE&gt;">
<polygon fill="lightblue" stroke="none" points="602.5,-56.5 602.5,-93.5 809.5,-93.5 809.5,-56.5 602.5,-56.5"/>
<polygon fill="none" stroke="black" points="602.5,-56.5 602.5,-93.5 809.5,-93.5 809.5,-56.5 602.5,-56.5"/>
<text text-anchor="start" x="662.5" y="-72.3" font-family="Arial" font-weight="bold" font-size="14.00">NativeResult</text>
<polygon fill="white" stroke="none" points="602.5,-4.5 602.5,-56.5 809.5,-56.5 809.5,-4.5 602.5,-4.5"/>
<polygon fill="none" stroke="black" points="602.5,-4.5 602.5,-56.5 809.5,-56.5 809.5,-4.5 602.5,-4.5"/>
<text text-anchor="start" x="613.5" y="-34.3" font-family="Arial" font-size="14.00">+ error_code: i32</text>
<text text-anchor="start" x="613.5" y="-19.3" font-family="Arial" font-size="14.00">+ description: Option&lt;String&gt;</text>
<polygon fill="none" stroke="black" points="601,-4 601,-95 810,-95 810,-4 601,-4"/>
</a>
</g>
</g>
<!-- ndReprC&#45;&gt;ndNativeResult -->
<g id="edge2" class="edge"><title>ndReprC&#45;&gt;ndNativeResult</title>
<path fill="none" stroke="black" stroke-dasharray="5,2" d="M556.128,-168.462C565.384,-157.824 577.023,-145.246 588.5,-135 599.846,-124.871 612.39,-114.794 624.926,-105.315"/>
<polygon fill="none" stroke="black" points="627.229,-107.963 633.15,-99.1768 623.042,-102.353 627.229,-107.963"/>
</g>
<!-- ndCallback -->
<g id="node5" class="node"><title>ndCallback</title>
<g id="a_node5_6"><a xlink:href="https://github.com/maidsafe/sn_ffi_utils/blob/master/src/callback.rs#:~:text=trait%20Callback" xlink:title="&lt;TABLE&gt;">
<polygon fill="lightgreen" stroke="none" points="1006.5,-173 1006.5,-210 1089.5,-210 1089.5,-173 1006.5,-173"/>
<polygon fill="none" stroke="black" points="1006.5,-173 1006.5,-210 1089.5,-210 1089.5,-173 1006.5,-173"/>
<text text-anchor="start" x="1017.5" y="-188.8" font-family="Arial" font-weight="bold" font-size="14.00">Callback</text>
<polygon fill="none" stroke="black" points="1005,-172.5 1005,-211.5 1090,-211.5 1090,-172.5 1005,-172.5"/>
</a>
</g>
</g>
<!-- ndCallbackArgs -->
<g id="node6" class="node"><title>ndCallbackArgs</title>
<g id="a_node6_7"><a xlink:href="https://github.com/maidsafe/sn_ffi_utils/blob/master/src/callback.rs#:~:text=trait%20CallbackArgs" xlink:title="&lt;TABLE&gt;">
<polygon fill="lightgreen" stroke="none" points="1125.5,-173 1125.5,-210 1241.5,-210 1241.5,-173 1125.5,-173"/>
<polygon fill="none" stroke="black" points="1125.5,-173 1125.5,-210 1241.5,-210 1241.5,-173 1125.5,-173"/>
<text text-anchor="start" x="1136.5" y="-188.8" font-family="Arial" font-weight="bold" font-size="14.00">CallbackArgs</text>
<polygon fill="none" stroke="black" points="1124.5,-172.5 1124.5,-211.5 1242.5,-211.5 1242.5,-172.5 1124.5,-172.5"/>
</a>
</g>
</g>
<!-- ndSafePtr -->
<g id="node7" class="node"><title>ndSafePtr</title>
<g id="a_node7_8"><a xlink:href="https://github.com/maidsafe/sn_ffi_utils/blob/master/src/vec.rs#:~:text=trait%20SafePtr" xlink:title="&lt;TABLE&gt;">
<polygon fill="lightgreen" stroke="none" points="1277.5,-173 1277.5,-210 1351.5,-210 1351.5,-173 1277.5,-173"/>
<polygon fill="none" stroke="black" points="1277.5,-173 1277.5,-210 1351.5,-210 1351.5,-173 1277.5,-173"/>
<text text-anchor="start" x="1288.5" y="-188.8" font-family="Arial" font-weight="bold" font-size="14.00">SafePtr</text>
<polygon fill="none" stroke="black" points="1276.5,-172.5 1276.5,-211.5 1352.5,-211.5 1352.5,-172.5 1276.5,-172.5"/>
</a>
</g>
</g>
<!-- ndFfiResult -->
<g id="node9" class="node"><title>ndFfiResult</title>
<g id="a_node9_9"><a xlink:href="https://github.com/maidsafe/sn_ffi_utils/blob/master/src/result.rs#:~:text=struct%20FfiResult" xlink:title="&lt;TABLE&gt;">
<polygon fill="lightblue" stroke="none" points="606.5,-199 606.5,-236 804.5,-236 804.5,-199 606.5,-199"/>
<polygon fill="none" stroke="black" points="606.5,-199 606.5,-236 804.5,-236 804.5,-199 606.5,-199"/>
<text text-anchor="start" x="675" y="-214.8" font-family="Arial" font-weight="bold" font-size="14.00">FfiResult</text>
<polygon fill="white" stroke="none" points="606.5,-147 606.5,-199 804.5,-199 804.5,-147 606.5,-147"/>
<polygon fill="none" stroke="black" points="606.5,-147 606.5,-199 804.5,-199 804.5,-147 606.5,-147"/>
<text text-anchor="start" x="617.5" y="-176.8" font-family="Arial" font-size="14.00">+ error_code: i32</text>
<text text-anchor="start" x="617.5" y="-161.8" font-family="Arial" font-size="14.00">+ description: *const c_char</text>
<polygon fill="none" stroke="black" points="605.5,-146.5 605.5,-237.5 805.5,-237.5 805.5,-146.5 605.5,-146.5"/>
</a>
</g>
</g>
<!-- ndFfiResult&#45;&gt;ndNativeResult -->
<g id="edge3" class="edge"><title>ndFfiResult&#45;&gt;ndNativeResult</title>
<path fill="none" stroke="black" d="M705.5,-142.254C705.5,-131.683 705.5,-120.393 705.5,-109.476"/>
<polygon fill="black" stroke="black" points="705.5,-99.1596 710,-109.16 705.5,-104.16 705.5,-109.16 705.5,-109.16 705.5,-109.16 705.5,-104.16 701,-109.16 705.5,-99.1596 705.5,-99.1596"/>
</g>
<!-- ndUserData -->
<g id="node10" class="node"><title>ndUserData</title>
<g id="a_node10_10"><a xlink:href="https://github.com/maidsafe/sn_ffi_utils/blob/master/src/test_utils.rs#:~:text=struct%20UserData" xlink:title="&lt;TABLE&gt;">
<polygon fill="lightblue" stroke="none" points="1387.5,-199 1387.5,-236 1559.5,-236 1559.5,-199 1387.5,-199"/>
<polygon fill="none" stroke="black" points="1387.5,-199 1387.5,-236 1559.5,-236 1559.5,-199 1387.5,-199"/>
<text text-anchor="start" x="1441.5" y="-214.8" font-family="Arial" font-weight="bold" font-size="14.00">UserData</text>
<polygon fill="white" stroke="none" points="1387.5,-147 1387.5,-199 1559.5,-199 1559.5,-147 1387.5,-147"/>
<polygon fill="none" stroke="black" points="1387.5,-147 1387.5,-199 1559.5,-199 1559.5,-147 1387.5,-147"/>
<text text-anchor="start" x="1398.5" y="-176.8" font-family="Arial" font-size="14.00">+ common: *mut c_void</text>
<text text-anchor="start" x="1398.5" y="-161.8" font-family="Arial" font-size="14.00">+ custom: *mut c_void</text>
<polygon fill="none" stroke="black" points="1386.5,-146.5 1386.5,-237.5 1560.5,-237.5 1560.5,-146.5 1386.5,-146.5"/>
</a>
</g>
</g>
<!-- ndSendWrapper -->
<g id="node11" class="node"><title>ndSendWrapper</title>
<g id="a_node11_11"><a xlink:href="https://github.com/maidsafe/sn_ffi_utils/blob/master/src/test_utils.rs#:~:text=struct%20SendWrapper" xlink:title="&lt;TABLE&gt;">
<polygon fill="lightblue" stroke="none" points="1595.5,-192 1595.5,-229 1713.5,-229 1713.5,-192 1595.5,-192"/>
<polygon fill="none" stroke="black" points="1595.5,-192 1595.5,-229 1713.5,-229 1713.5,-192 1595.5,-192"/>
<text text-anchor="start" x="1606.5" y="-207.8" font-family="Arial" font-weight="bold" font-size="14.00">SendWrapper</text>
<polygon fill="white" stroke="none" points="1595.5,-155 1595.5,-192 1713.5,-192 1713.5,-155 1595.5,-155"/>
<polygon fill="none" stroke="black" points="1595.5,-155 1595.5,-192 1713.5,-192 1713.5,-155 1595.5,-155"/>
<text text-anchor="start" x="1606.5" y="-169.8" font-family="Arial" font-size="14.00">+ T</text>
<polygon fill="none" stroke="black" points="1594.5,-154 1594.5,-230 1714.5,-230 1714.5,-154 1594.5,-154"/>
</a>
</g>
</g>
<!-- ndStringError -->
<g id="node13" class="node"><title>ndStringError</title>
<g id="a_node13_12"><a xlink:href="https://github.com/maidsafe/sn_ffi_utils/blob/master/src/string.rs#:~:text=enum%20StringError" xlink:title="&lt;TABLE&gt;">
<polygon fill="yellow" stroke="none" points="841.5,-207 841.5,-244 970.5,-244 970.5,-207 841.5,-207"/>
<polygon fill="none" stroke="black" points="841.5,-207 841.5,-244 970.5,-244 970.5,-207 841.5,-207"/>
<text text-anchor="start" x="866.5" y="-222.8" font-family="Arial" font-weight="bold" font-size="14.00">StringError</text>
<polygon fill="white" stroke="none" points="841.5,-140 841.5,-207 970.5,-207 970.5,-140 841.5,-140"/>
<polygon fill="none" stroke="black" points="841.5,-140 841.5,-207 970.5,-207 970.5,-140 841.5,-140"/>
<text text-anchor="start" x="852.5" y="-184.8" font-family="Arial" font-size="14.00">Utf8(String)</text>
<text text-anchor="start" x="852.5" y="-169.8" font-family="Arial" font-size="14.00">Null(String)</text>
<text text-anchor="start" x="852.5" y="-154.8" font-family="Arial" font-size="14.00">IntoString(String)</text>
<polygon fill="none" stroke="black" points="840,-139 840,-245 971,-245 971,-139 840,-139"/>
</a>
</g>
</g>
<!-- ndStringError&#45;&gt;ndNativeResult -->
<g id="edge4" class="edge"><title>ndStringError&#45;&gt;ndNativeResult</title>
<path fill="none" stroke="black" d="M831.879,-139.282C815.945,-128.088 799.048,-116.218 782.971,-104.924"/>
<polygon fill="black" stroke="black" points="774.648,-99.0765 785.418,-101.143 778.739,-101.951 782.831,-104.825 782.831,-104.825 782.831,-104.825 778.739,-101.951 780.244,-108.507 774.648,-99.0765 774.648,-99.0765"/>
</g>
</g>
</svg>
