<?xml version="1.0" encoding="UTF-8" standalone="no"?>
<!DOCTYPE svg PUBLIC "-//W3C//DTD SVG 1.1//EN"
 "http://www.w3.org/Graphics/SVG/1.1/DTD/svg11.dtd">
<!-- Generated by graphviz version 2.38.0 (20140413.2041)
 -->
<!-- Title: ml Pages: 1 -->
<svg width="3884pt" height="459pt"
 viewBox="0.00 0.00 3884.00 459.00" xmlns="http://www.w3.org/2000/svg" xmlns:xlink="http://www.w3.org/1999/xlink">
<g id="graph0" class="graph" transform="scale(1 1) rotate(0) translate(4 455)">
<title>ml</title>
<polygon fill="white" stroke="none" points="-4,4 -4,-455 3880,-455 3880,4 -4,4"/>
<!-- ndFsInodePosix -->
<g id="node1" class="node"><title>ndFsInodePosix</title>
<g id="a_node1_0"><a xlink:href="https://github.com/maidsafe/sn_fs/blob/master/src/metadata.rs#:~:text=struct%20FsInodePosix" xlink:title="&lt;TABLE&gt;">
<polygon fill="lightblue" stroke="none" points="2373.5,-408.5 2373.5,-445.5 3029.5,-445.5 3029.5,-408.5 2373.5,-408.5"/>
<polygon fill="none" stroke="black" points="2373.5,-408.5 2373.5,-445.5 3029.5,-445.5 3029.5,-408.5 2373.5,-408.5"/>
<text text-anchor="start" x="2384.5" y="-424.3" font-family="Arial" font-weight="bold" font-size="14.00">pub struct FsInodePosix { &#160;&#160;&#160;pub perm: u16, &#160;&#160;&#160;pub uid: u32, &#160;&#160;&#160;pub gid: u32, &#160;&#160;&#160;pub flags: u32,}</text>
<polygon fill="none" stroke="black" points="2372.5,-408 2372.5,-447 3030.5,-447 3030.5,-408 2372.5,-408"/>
</a>
</g>
</g>
<!-- ndFsInodeOs -->
<g id="node3" class="node"><title>ndFsInodeOs</title>
<g id="a_node3_1"><a xlink:href="https://github.com/maidsafe/sn_fs/blob/master/src/metadata.rs#:~:text=enum%20FsInodeOs" xlink:title="&lt;TABLE&gt;">
<polygon fill="yellow" stroke="none" points="1172.5,-325.5 1172.5,-362.5 1270.5,-362.5 1270.5,-325.5 1172.5,-325.5"/>
<polygon fill="none" stroke="black" points="1172.5,-325.5 1172.5,-362.5 1270.5,-362.5 1270.5,-325.5 1172.5,-325.5"/>
<text text-anchor="start" x="1183.5" y="-341.3" font-family="Arial" font-weight="bold" font-size="14.00">FsInodeOs</text>
<polygon fill="none" stroke="black" points="1171.5,-325 1171.5,-364 1271.5,-364 1271.5,-325 1171.5,-325"/>
</a>
</g>
</g>
<!-- ndFsInodePosix&#45;&gt;ndFsInodeOs -->
<g id="edge1" class="edge"><title>ndFsInodePosix&#45;&gt;ndFsInodeOs</title>
<path fill="none" stroke="black" d="M2364.49,-407.286C2344.53,-406.169 2324.75,-405.066 2305.5,-404 1922.99,-382.812 1464.5,-358.389 1291.85,-349.227"/>
<polygon fill="black" stroke="black" points="1291.65,-349.217 1285.45,-352.893 1279.67,-348.581 1285.87,-344.904 1291.65,-349.217"/>
</g>
<!-- ndFsMetadata -->
<g id="node10" class="node"><title>ndFsMetadata</title>
<g id="a_node10_2"><a xlink:href="https://github.com/maidsafe/sn_fs/blob/master/src/metadata.rs#:~:text=enum%20FsMetadata" xlink:title="&lt;TABLE&gt;">
<polygon fill="yellow" stroke="none" points="2490.5,-76.5 2490.5,-113.5 2594.5,-113.5 2594.5,-76.5 2490.5,-76.5"/>
<polygon fill="none" stroke="black" points="2490.5,-76.5 2490.5,-113.5 2594.5,-113.5 2594.5,-76.5 2490.5,-76.5"/>
<text text-anchor="start" x="2501.5" y="-92.3" font-family="Arial" font-weight="bold" font-size="14.00">FsMetadata</text>
<polygon fill="none" stroke="black" points="2489.5,-76 2489.5,-115 2595.5,-115 2595.5,-76 2489.5,-76"/>
</a>
</g>
</g>
<!-- ndFsInodePosix&#45;&gt;ndFsMetadata -->
<g id="edge2" class="edge"><title>ndFsInodePosix&#45;&gt;ndFsMetadata</title>
<path fill="none" stroke="black" d="M2736.83,-403.85C2807.72,-355.696 2954.59,-240.558 2882.5,-155 2848.82,-115.032 2703.04,-102.37 2613.66,-98.3596"/>
<polygon fill="black" stroke="black" points="2603.59,-97.9333 2613.77,-93.8602 2608.59,-98.1448 2613.58,-98.3562 2613.58,-98.3562 2613.58,-98.3562 2608.59,-98.1448 2613.39,-102.852 2603.59,-97.9333 2603.59,-97.9333"/>
</g>
<!-- ndFsInodeWindows -->
<g id="node2" class="node"><title>ndFsInodeWindows</title>
<g id="a_node2_3"><a xlink:href="https://github.com/maidsafe/sn_fs/blob/master/src/metadata.rs#:~:text=struct%20FsInodeWindows" xlink:title="&lt;TABLE&gt;">
<polygon fill="lightblue" stroke="none" points="155.5,-408.5 155.5,-445.5 2287.5,-445.5 2287.5,-408.5 155.5,-408.5"/>
<polygon fill="none" stroke="black" points="155.5,-408.5 155.5,-445.5 2287.5,-445.5 2287.5,-408.5 155.5,-408.5"/>
<text text-anchor="start" x="166.5" y="-424.3" font-family="Arial" font-weight="bold" font-size="14.00">pub struct FsInodeWindows { &#160;&#160;&#160;pub archive: bool, &#160;&#160;&#160;pub hidden: bool, &#160;&#160;&#160;pub system: bool, &#160;&#160;&#160;pub readonly: bool, &#160;&#160;&#160;pub compressed: bool, &#160;&#160;&#160;pub encrypted: bool, &#160;&#160;&#160;pub notcontentindexed: bool, &#160;&#160;&#160;pub reparsepoint: bool, &#160;&#160;&#160;pub notindexed: bool, &#160;&#160;&#160;pub offline: bool, &#160;&#160;&#160;pub sparse: bool, &#160;&#160;&#160;pub temporary: bool,}</text>
<polygon fill="none" stroke="black" points="154.5,-408 154.5,-447 2288.5,-447 2288.5,-408 154.5,-408"/>
</a>
</g>
</g>
<!-- ndFsInodeWindows&#45;&gt;ndFsInodeOs -->
<g id="edge3" class="edge"><title>ndFsInodeWindows&#45;&gt;ndFsInodeOs</title>
<path fill="none" stroke="black" d="M1221.5,-403.937C1221.5,-396.626 1221.5,-388.337 1221.5,-380.348"/>
<polygon fill="black" stroke="black" points="1221.5,-380.223 1217.5,-374.223 1221.5,-368.223 1225.5,-374.223 1221.5,-380.223"/>
</g>
<!-- ndFsInodeCommon -->
<g id="node4" class="node"><title>ndFsInodeCommon</title>
<g id="a_node4_4"><a xlink:href="https://github.com/maidsafe/sn_fs/blob/master/src/metadata.rs#:~:text=struct%20FsInodeCommon" xlink:title="&lt;TABLE&gt;">
<polygon fill="lightblue" stroke="none" points="227.5,-242.5 227.5,-279.5 2016.5,-279.5 2016.5,-242.5 227.5,-242.5"/>
<polygon fill="none" stroke="black" points="227.5,-242.5 227.5,-279.5 2016.5,-279.5 2016.5,-242.5 227.5,-242.5"/>
<text text-anchor="start" x="238.5" y="-258.3" font-family="Arial" font-weight="bold" font-size="14.00">pub struct FsInodeCommon { &#160;&#160;&#160;pub size: u64, &#160;&#160;&#160;pub mtime: Timespec, &#160;// modified time. (file contents changed) &#160;&#160;&#160;pub ctime: Timespec, &#160;// changed time. &#160;(metadata changed) &#160;&#160;&#160;pub crtime: Timespec, // created time. &#160;&#160;&#160;pub links: u32, &#160;&#160;&#160;pub osattrs: FsInodeOs,}</text>
<polygon fill="none" stroke="black" points="226,-242 226,-281 2017,-281 2017,-242 226,-242"/>
</a>
</g>
</g>
<!-- ndFsInodeOs&#45;&gt;ndFsInodeCommon -->
<g id="edge4" class="edge"><title>ndFsInodeOs&#45;&gt;ndFsInodeCommon</title>
<path fill="none" stroke="black" d="M1193.64,-320.937C1182.9,-312.233 1170.44,-302.144 1158.94,-292.824"/>
<polygon fill="black" stroke="black" points="1158.88,-292.776 1151.7,-292.108 1149.55,-285.223 1156.73,-285.891 1158.88,-292.776"/>
</g>
<!-- ndFsInodeDirectory -->
<g id="node5" class="node"><title>ndFsInodeDirectory</title>
<g id="a_node5_5"><a xlink:href="https://github.com/maidsafe/sn_fs/blob/master/src/metadata.rs#:~:text=struct%20FsInodeDirectory" xlink:title="&lt;TABLE&gt;">
<polygon fill="lightblue" stroke="none" points="9.5,-159.5 9.5,-196.5 638.5,-196.5 638.5,-159.5 9.5,-159.5"/>
<polygon fill="none" stroke="black" points="9.5,-159.5 9.5,-196.5 638.5,-196.5 638.5,-159.5 9.5,-159.5"/>
<text text-anchor="start" x="20.5" y="-175.3" font-family="Arial" font-weight="bold" font-size="14.00">pub struct FsInodeDirectory { &#160;&#160;&#160;pub common: FsInodeCommon, &#160;&#160;&#160;pub name: OsString,}</text>
<polygon fill="none" stroke="black" points="8,-159 8,-198 639,-198 639,-159 8,-159"/>
</a>
</g>
</g>
<!-- ndFsInodeCommon&#45;&gt;ndFsInodeDirectory -->
<g id="edge5" class="edge"><title>ndFsInodeCommon&#45;&gt;ndFsInodeDirectory</title>
<path fill="none" stroke="black" d="M899.743,-237.991C793.161,-227.172 665.403,-214.204 557.296,-203.231"/>
<polygon fill="black" stroke="black" points="557.161,-203.218 550.788,-206.591 545.223,-202.006 551.596,-198.632 557.161,-203.218"/>
</g>
<!-- ndFsInodeSymlink -->
<g id="node6" class="node"><title>ndFsInodeSymlink</title>
<g id="a_node6_6"><a xlink:href="https://github.com/maidsafe/sn_fs/blob/master/src/metadata.rs#:~:text=struct%20FsInodeSymlink" xlink:title="&lt;TABLE&gt;">
<polygon fill="lightblue" stroke="none" points="674.5,-159.5 674.5,-196.5 1468.5,-196.5 1468.5,-159.5 674.5,-159.5"/>
<polygon fill="none" stroke="black" points="674.5,-159.5 674.5,-196.5 1468.5,-196.5 1468.5,-159.5 674.5,-159.5"/>
<text text-anchor="start" x="685.5" y="-175.3" font-family="Arial" font-weight="bold" font-size="14.00">pub struct FsInodeSymlink { &#160;&#160;&#160;pub common: FsInodeCommon, &#160;&#160;&#160;pub name: OsString, &#160;&#160;&#160;pub symlink: OsString,}</text>
<polygon fill="none" stroke="black" points="673.5,-159 673.5,-198 1469.5,-198 1469.5,-159 673.5,-159"/>
</a>
</g>
</g>
<!-- ndFsInodeCommon&#45;&gt;ndFsInodeSymlink -->
<g id="edge6" class="edge"><title>ndFsInodeCommon&#45;&gt;ndFsInodeSymlink</title>
<path fill="none" stroke="black" d="M1107.57,-237.937C1102.74,-230.103 1097.21,-221.148 1091.96,-212.641"/>
<polygon fill="black" stroke="black" points="1091.83,-212.434 1085.27,-209.43 1085.53,-202.223 1092.08,-205.227 1091.83,-212.434"/>
</g>
<!-- ndFsInodeFile -->
<g id="node7" class="node"><title>ndFsInodeFile</title>
<g id="a_node7_7"><a xlink:href="https://github.com/maidsafe/sn_fs/blob/master/src/metadata.rs#:~:text=struct%20FsInodeFile" xlink:title="&lt;TABLE&gt;">
<polygon fill="lightblue" stroke="none" points="1505.5,-159.5 1505.5,-196.5 2864.5,-196.5 2864.5,-159.5 1505.5,-159.5"/>
<polygon fill="none" stroke="black" points="1505.5,-159.5 1505.5,-196.5 2864.5,-196.5 2864.5,-159.5 1505.5,-159.5"/>
<text text-anchor="start" x="1516.5" y="-175.3" font-family="Arial" font-weight="bold" font-size="14.00">pub struct FsInodeFile { &#160;&#160;&#160;pub common: FsInodeCommon, &#160;&#160;&#160;// public xorname; &#160;&#160;In the future, we expect to store file content in SafeNetwork, referenced by XorName. &#160;&#160;&#160;// pub content: SparseBuf,}</text>
<polygon fill="none" stroke="black" points="1504,-159 1504,-198 2865,-198 2865,-159 1504,-159"/>
</a>
</g>
</g>
<!-- ndFsInodeCommon&#45;&gt;ndFsInodeFile -->
<g id="edge7" class="edge"><title>ndFsInodeCommon&#45;&gt;ndFsInodeFile</title>
<path fill="none" stroke="black" d="M1416.9,-237.991C1560.17,-227.074 1732.16,-213.968 1877,-202.931"/>
<polygon fill="black" stroke="black" points="1877.18,-202.918 1882.86,-198.473 1889.15,-202.006 1883.47,-206.45 1877.18,-202.918"/>
</g>
<!-- ndFsInodeDirectory&#45;&gt;ndFsMetadata -->
<g id="edge8" class="edge"><title>ndFsInodeDirectory&#45;&gt;ndFsMetadata</title>
<path fill="none" stroke="black" d="M647.34,-155.459C650.408,-155.303 653.462,-155.15 656.5,-155 1361.96,-120.238 2216.93,-102.534 2469.15,-97.8132"/>
<polygon fill="black" stroke="black" points="2469.41,-97.8085 2475.34,-93.6975 2481.41,-97.5851 2475.49,-101.696 2469.41,-97.8085"/>
</g>
<!-- ndFsInodeSymlink&#45;&gt;ndFsMetadata -->
<g id="edge9" class="edge"><title>ndFsInodeSymlink&#45;&gt;ndFsMetadata</title>
<path fill="none" stroke="black" d="M1477.84,-155.125C1823.27,-136.104 2290.73,-110.363 2469.16,-100.538"/>
<polygon fill="black" stroke="black" points="2469.27,-100.532 2475.04,-96.2085 2481.25,-99.8725 2475.48,-104.196 2469.27,-100.532"/>
</g>
<!-- ndFsInodeFile&#45;&gt;ndFsMetadata -->
<g id="edge10" class="edge"><title>ndFsInodeFile&#45;&gt;ndFsMetadata</title>
<path fill="none" stroke="black" d="M2284.22,-154.937C2343.08,-141.62 2416.27,-125.061 2469.69,-112.973"/>
<polygon fill="black" stroke="black" points="2469.76,-112.959 2474.72,-107.734 2481.46,-110.311 2476.49,-115.536 2469.76,-112.959"/>
</g>
<!-- ndFsRefFile -->
<g id="node8" class="node"><title>ndFsRefFile</title>
<g id="a_node8_8"><a xlink:href="https://github.com/maidsafe/sn_fs/blob/master/src/metadata.rs#:~:text=struct%20FsRefFile" xlink:title="&lt;TABLE&gt;">
<polygon fill="lightblue" stroke="none" points="2939.5,-159.5 2939.5,-196.5 3734.5,-196.5 3734.5,-159.5 2939.5,-159.5"/>
<polygon fill="none" stroke="black" points="2939.5,-159.5 2939.5,-196.5 3734.5,-196.5 3734.5,-159.5 2939.5,-159.5"/>
<text text-anchor="start" x="2950.5" y="-175.3" font-family="Arial" font-weight="bold" font-size="14.00">pub struct FsRefFile { &#160;&#160;&#160;pub name: OsString, &#160;&#160;&#160;pub inode_id: u64, // for looking up FsInodeFile under /inodefiles}</text>
<polygon fill="none" stroke="black" points="2938,-159 2938,-198 3735,-198 3735,-159 2938,-159"/>
</a>
</g>
</g>
<!-- ndFsRefFile&#45;&gt;ndFsMetadata -->
<g id="edge11" class="edge"><title>ndFsRefFile&#45;&gt;ndFsMetadata</title>
<path fill="none" stroke="black" d="M3115.85,-154.991C2948.43,-137.911 2728.5,-115.475 2615.89,-103.987"/>
<polygon fill="black" stroke="black" points="2615.62,-103.96 2609.25,-107.33 2603.69,-102.742 2610.06,-99.3716 2615.62,-103.96"/>
</g>
<!-- ndDirentKind -->
<g id="node9" class="node"><title>ndDirentKind</title>
<g id="a_node9_9"><a xlink:href="https://github.com/maidsafe/sn_fs/blob/master/src/metadata.rs#:~:text=enum%20DirentKind" xlink:title="&lt;TABLE&gt;">
<polygon fill="yellow" stroke="none" points="3770.5,-159.5 3770.5,-196.5 3867.5,-196.5 3867.5,-159.5 3770.5,-159.5"/>
<polygon fill="none" stroke="black" points="3770.5,-159.5 3770.5,-196.5 3867.5,-196.5 3867.5,-159.5 3770.5,-159.5"/>
<text text-anchor="start" x="3781.5" y="-175.3" font-family="Arial" font-weight="bold" font-size="14.00">DirentKind</text>
<polygon fill="none" stroke="black" points="3769,-159 3769,-198 3868,-198 3868,-159 3769,-159"/>
</a>
</g>
</g>
<!-- ndDirentKind&#45;&gt;ndFsMetadata -->
<g id="edge12" class="edge"><title>ndDirentKind&#45;&gt;ndFsMetadata</title>
<path fill="none" stroke="black" d="M3760.8,-156.808C3758.01,-156.131 3755.24,-155.522 3752.5,-155 3532.12,-112.975 2838.68,-100.366 2613.73,-97.3309"/>
<polygon fill="black" stroke="black" points="2603.69,-97.1977 2613.75,-92.8309 2608.69,-97.2641 2613.69,-97.3305 2613.69,-97.3305 2613.69,-97.3305 2608.69,-97.2641 2613.63,-101.83 2603.69,-97.1977 2603.69,-97.1977"/>
</g>
<!-- ndSnFs -->
<g id="node11" class="node"><title>ndSnFs</title>
<text text-anchor="middle" x="2542.5" y="-14.3" font-family="Times,serif" font-size="14.00">ndSnFs</text>
</g>
<!-- ndFsMetadata&#45;&gt;ndSnFs -->
<g id="edge13" class="edge"><title>ndFsMetadata&#45;&gt;ndSnFs</title>
<path fill="none" stroke="black" stroke-dasharray="5,2" d="M2542.5,-71.8475C2542.5,-63.7848 2542.5,-54.622 2542.5,-46.2165"/>
<polygon fill="black" stroke="black" points="2542.5,-36.1144 2547,-46.1144 2542.5,-41.1144 2542.5,-46.1144 2542.5,-46.1144 2542.5,-46.1144 2542.5,-41.1144 2538,-46.1145 2542.5,-36.1144 2542.5,-36.1144"/>
</g>
</g>
</svg>
