<?xml version="1.0" encoding="UTF-8" standalone="no"?>
<!DOCTYPE svg PUBLIC "-//W3C//DTD SVG 1.1//EN"
 "http://www.w3.org/Graphics/SVG/1.1/DTD/svg11.dtd">
<!-- Generated by graphviz version 2.38.0 (20140413.2041)
 -->
<!-- Title: ml Pages: 1 -->
<svg width="1118pt" height="1359pt"
 viewBox="0.00 0.00 1118.27 1359.00" xmlns="http://www.w3.org/2000/svg" xmlns:xlink="http://www.w3.org/1999/xlink">
<g id="graph0" class="graph" transform="scale(1 1) rotate(0) translate(4 1355)">
<title>ml</title>
<polygon fill="white" stroke="none" points="-4,4 -4,-1355 1114.27,-1355 1114.27,4 -4,4"/>
<!-- ndFsInodePosix -->
<g id="node1" class="node"><title>ndFsInodePosix</title>
<polygon fill="lightblue" stroke="none" points="111.772,-1248.5 111.772,-1285.5 229.772,-1285.5 229.772,-1248.5 111.772,-1248.5"/>
<polygon fill="none" stroke="black" points="111.772,-1248.5 111.772,-1285.5 229.772,-1285.5 229.772,-1248.5 111.772,-1248.5"/>
<text text-anchor="start" x="122.772" y="-1264.3" font-family="Arial" font-weight="bold" font-size="14.00">FsInodePosix</text>
<polygon fill="white" stroke="none" points="111.772,-1166.5 111.772,-1248.5 229.772,-1248.5 229.772,-1166.5 111.772,-1166.5"/>
<polygon fill="none" stroke="black" points="111.772,-1166.5 111.772,-1248.5 229.772,-1248.5 229.772,-1166.5 111.772,-1166.5"/>
<text text-anchor="start" x="122.772" y="-1226.3" font-family="Arial" font-size="14.00">+ perm: u16</text>
<text text-anchor="start" x="122.772" y="-1211.3" font-family="Arial" font-size="14.00">+ uid: u32</text>
<text text-anchor="start" x="122.772" y="-1196.3" font-family="Arial" font-size="14.00">+ gid: u32</text>
<text text-anchor="start" x="122.772" y="-1181.3" font-family="Arial" font-size="14.00">+ flags: u32</text>
<polygon fill="none" stroke="black" points="110.772,-1166 110.772,-1287 230.772,-1287 230.772,-1166 110.772,-1166"/>
</g>
<!-- ndFsInodeOs -->
<g id="node3" class="node"><title>ndFsInodeOs</title>
<polygon fill="yellow" stroke="none" points="309.772,-1024 309.772,-1061 511.772,-1061 511.772,-1024 309.772,-1024"/>
<polygon fill="none" stroke="black" points="309.772,-1024 309.772,-1061 511.772,-1061 511.772,-1024 309.772,-1024"/>
<text text-anchor="start" x="372.772" y="-1039.8" font-family="Arial" font-weight="bold" font-size="14.00">FsInodeOs</text>
<polygon fill="white" stroke="none" points="309.772,-957 309.772,-1024 511.772,-1024 511.772,-957 309.772,-957"/>
<polygon fill="none" stroke="black" points="309.772,-957 309.772,-1024 511.772,-1024 511.772,-957 309.772,-957"/>
<text text-anchor="start" x="320.772" y="-1001.8" font-family="Arial" font-size="14.00">Posix(FsInodePosix)</text>
<text text-anchor="start" x="320.772" y="-986.8" font-family="Arial" font-size="14.00">Windows(FsInodeWindows)</text>
<text text-anchor="start" x="320.772" y="-971.8" font-family="Arial" font-size="14.00">Empty</text>
<polygon fill="none" stroke="black" points="308.772,-956 308.772,-1062 512.772,-1062 512.772,-956 308.772,-956"/>
</g>
<!-- ndFsInodePosix&#45;&gt;ndFsInodeOs -->
<g id="edge1" class="edge"><title>ndFsInodePosix&#45;&gt;ndFsInodeOs</title>
<path fill="none" stroke="black" d="M238.905,-1164.32C270.186,-1136.24 307.289,-1102.92 339.001,-1074.44"/>
<polygon fill="black" stroke="black" points="339.296,-1074.18 341.088,-1067.2 348.224,-1066.16 346.432,-1073.15 339.296,-1074.18"/>
</g>
<!-- ndFsMetadata -->
<g id="node10" class="node"><title>ndFsMetadata</title>
<polygon fill="yellow" stroke="none" points="465.772,-528.5 465.772,-565.5 846.772,-565.5 846.772,-528.5 465.772,-528.5"/>
<polygon fill="none" stroke="black" points="465.772,-528.5 465.772,-565.5 846.772,-565.5 846.772,-528.5 465.772,-528.5"/>
<text text-anchor="start" x="615.272" y="-544.3" font-family="Arial" font-weight="bold" font-size="14.00">FsMetadata</text>
<polygon fill="white" stroke="none" points="465.772,-431.5 465.772,-528.5 846.772,-528.5 846.772,-431.5 465.772,-431.5"/>
<polygon fill="none" stroke="black" points="465.772,-431.5 465.772,-528.5 846.772,-528.5 846.772,-431.5 465.772,-431.5"/>
<text text-anchor="start" x="476.772" y="-506.3" font-family="Arial" font-size="14.00">InodeDirectory(FsInodeDirectory)</text>
<text text-anchor="start" x="476.772" y="-491.3" font-family="Arial" font-size="14.00">InodeSymlink(FsInodeSymlink)</text>
<text text-anchor="start" x="476.772" y="-476.3" font-family="Arial" font-size="14.00">InodeFile(FsInodeFile)</text>
<text text-anchor="start" x="476.772" y="-461.3" font-family="Arial" font-size="14.00">RefFile(FsRefFile)</text>
<text text-anchor="start" x="476.772" y="-446.3" font-family="Arial" font-size="14.00">Empty</text>
<polygon fill="white" stroke="none" points="465.772,-4.5 465.772,-431.5 846.772,-431.5 846.772,-4.5 465.772,-4.5"/>
<polygon fill="none" stroke="black" points="465.772,-4.5 465.772,-431.5 846.772,-431.5 846.772,-4.5 465.772,-4.5"/>
<text text-anchor="start" x="476.772" y="-409.3" font-family="Arial" font-size="14.00">&#45; posix(&amp;self) &#45;&gt; Option&lt;&amp;FsInodePosix&gt;</text>
<text text-anchor="start" x="476.772" y="-394.3" font-family="Arial" font-size="14.00">&#45; posix_mut(&amp;mut self) &#45;&gt; Option&lt;&amp;mut FsInodePosix&gt;</text>
<text text-anchor="start" x="476.772" y="-379.3" font-family="Arial" font-size="14.00">&#45; windows(&amp;mut self) &#45;&gt; Option&lt;&amp;mut FsInodeWindows&gt;</text>
<text text-anchor="start" x="476.772" y="-364.3" font-family="Arial" font-size="14.00">&#45; name(&amp;self) &#45;&gt; &amp;OsStr</text>
<text text-anchor="start" x="476.772" y="-349.3" font-family="Arial" font-size="14.00">&#45; is_inode_directory(&amp;self) &#45;&gt; bool</text>
<text text-anchor="start" x="476.772" y="-334.3" font-family="Arial" font-size="14.00">&#45; is_inode_symlink(&amp;self) &#45;&gt; bool</text>
<text text-anchor="start" x="476.772" y="-319.3" font-family="Arial" font-size="14.00">&#45; is_inode_file(&amp;self) &#45;&gt; bool</text>
<text text-anchor="start" x="476.772" y="-304.3" font-family="Arial" font-size="14.00">&#45; is_ref_file(&amp;self) &#45;&gt; bool</text>
<text text-anchor="start" x="476.772" y="-289.3" font-family="Arial" font-size="14.00">&#45; is_empty(&amp;self) &#45;&gt; bool</text>
<text text-anchor="start" x="476.772" y="-274.3" font-family="Arial" font-size="14.00">&#45; dirent_kind(&amp;self) &#45;&gt; Option&lt;DirentKind&gt;</text>
<text text-anchor="start" x="476.772" y="-259.3" font-family="Arial" font-size="14.00">&#45; size(&amp;self) &#45;&gt; u64</text>
<text text-anchor="start" x="476.772" y="-244.3" font-family="Arial" font-size="14.00">&#45; mtime(&amp;self) &#45;&gt; Timespec</text>
<text text-anchor="start" x="476.772" y="-229.3" font-family="Arial" font-size="14.00">&#45; set_mtime(&amp;mut self, ts: Timespec)</text>
<text text-anchor="start" x="476.772" y="-214.3" font-family="Arial" font-size="14.00">&#45; ctime(&amp;self) &#45;&gt; Timespec</text>
<text text-anchor="start" x="476.772" y="-199.3" font-family="Arial" font-size="14.00">&#45; set_ctime(&amp;mut self, ts: Timespec)</text>
<text text-anchor="start" x="476.772" y="-184.3" font-family="Arial" font-size="14.00">&#45; crtime(&amp;self) &#45;&gt; Timespec</text>
<text text-anchor="start" x="476.772" y="-169.3" font-family="Arial" font-size="14.00">&#45; set_crtime(&amp;mut self, ts: Timespec)</text>
<text text-anchor="start" x="476.772" y="-154.3" font-family="Arial" font-size="14.00">&#45; set_size(&amp;mut self, size: u64)</text>
<text text-anchor="start" x="476.772" y="-139.3" font-family="Arial" font-size="14.00">&#45; inode_id(&amp;self) &#45;&gt; Option&lt;u64&gt;</text>
<text text-anchor="start" x="476.772" y="-124.3" font-family="Arial" font-size="14.00">&#45; set_name(&amp;mut self, name: &amp;OsStr)</text>
<text text-anchor="start" x="476.772" y="-109.3" font-family="Arial" font-size="14.00">&#45; symlink(&amp;self) &#45;&gt; &amp;OsStr</text>
<text text-anchor="start" x="476.772" y="-94.3" font-family="Arial" font-size="14.00">&#45; set_symlink(&amp;mut self, link: &amp;OsStr)</text>
<text text-anchor="start" x="476.772" y="-79.3" font-family="Arial" font-size="14.00">&#45; links_dec(&amp;mut self) &#45;&gt; u32</text>
<text text-anchor="start" x="476.772" y="-64.3" font-family="Arial" font-size="14.00">&#45; links_inc(&amp;mut self) &#45;&gt; u32</text>
<text text-anchor="start" x="476.772" y="-49.3" font-family="Arial" font-size="14.00">&#45; links(&amp;self) &#45;&gt; u32</text>
<text text-anchor="start" x="476.772" y="-34.3" font-family="Arial" font-size="14.00">&#45; posix(&amp;self) &#45;&gt; Option&lt;&amp;FsInodePosix&gt;</text>
<text text-anchor="start" x="476.772" y="-19.3" font-family="Arial" font-size="14.00">&#45; posix_mut(&amp;mut self) &#45;&gt; Option&lt;&amp;mut FsInodePosix&gt;</text>
<polygon fill="none" stroke="black" points="464.272,-4 464.272,-567 847.272,-567 847.272,-4 464.272,-4"/>
</g>
<!-- ndFsInodePosix&#45;&gt;ndFsMetadata -->
<g id="edge2" class="edge"><title>ndFsInodePosix&#45;&gt;ndFsMetadata</title>
<path fill="none" stroke="black" d="M129.775,-1161.7C59.5853,-1043.61 -66.003,-786.618 42.7724,-607 129.961,-463.028 305.418,-380.635 446.36,-335.547"/>
<polygon fill="black" stroke="black" points="456.019,-332.498 447.838,-339.8 451.251,-334.004 446.483,-335.509 446.483,-335.509 446.483,-335.509 451.251,-334.004 445.129,-331.217 456.019,-332.498 456.019,-332.498"/>
</g>
<!-- ndFsInodeWindows -->
<g id="node2" class="node"><title>ndFsInodeWindows</title>
<polygon fill="lightblue" stroke="none" points="411.772,-1308.5 411.772,-1345.5 597.772,-1345.5 597.772,-1308.5 411.772,-1308.5"/>
<polygon fill="none" stroke="black" points="411.772,-1308.5 411.772,-1345.5 597.772,-1345.5 597.772,-1308.5 411.772,-1308.5"/>
<text text-anchor="start" x="444.772" y="-1324.3" font-family="Arial" font-weight="bold" font-size="14.00">FsInodeWindows</text>
<polygon fill="white" stroke="none" points="411.772,-1106.5 411.772,-1308.5 597.772,-1308.5 597.772,-1106.5 411.772,-1106.5"/>
<polygon fill="none" stroke="black" points="411.772,-1106.5 411.772,-1308.5 597.772,-1308.5 597.772,-1106.5 411.772,-1106.5"/>
<text text-anchor="start" x="422.772" y="-1286.3" font-family="Arial" font-size="14.00">+ archive: bool</text>
<text text-anchor="start" x="422.772" y="-1271.3" font-family="Arial" font-size="14.00">+ hidden: bool</text>
<text text-anchor="start" x="422.772" y="-1256.3" font-family="Arial" font-size="14.00">+ system: bool</text>
<text text-anchor="start" x="422.772" y="-1241.3" font-family="Arial" font-size="14.00">+ readonly: bool</text>
<text text-anchor="start" x="422.772" y="-1226.3" font-family="Arial" font-size="14.00">+ compressed: bool</text>
<text text-anchor="start" x="422.772" y="-1211.3" font-family="Arial" font-size="14.00">+ encrypted: bool</text>
<text text-anchor="start" x="422.772" y="-1196.3" font-family="Arial" font-size="14.00">+ notcontentindexed: bool</text>
<text text-anchor="start" x="422.772" y="-1181.3" font-family="Arial" font-size="14.00">+ reparsepoint: bool</text>
<text text-anchor="start" x="422.772" y="-1166.3" font-family="Arial" font-size="14.00">+ notindexed: bool</text>
<text text-anchor="start" x="422.772" y="-1151.3" font-family="Arial" font-size="14.00">+ offline: bool</text>
<text text-anchor="start" x="422.772" y="-1136.3" font-family="Arial" font-size="14.00">+ sparse: bool</text>
<text text-anchor="start" x="422.772" y="-1121.3" font-family="Arial" font-size="14.00">+ temporary: bool</text>
<polygon fill="none" stroke="black" points="410.772,-1106 410.772,-1347 598.772,-1347 598.772,-1106 410.772,-1106"/>
</g>
<!-- ndFsInodeWindows&#45;&gt;ndFsInodeOs -->
<g id="edge3" class="edge"><title>ndFsInodeWindows&#45;&gt;ndFsInodeOs</title>
<path fill="none" stroke="black" d="M450.773,-1101.7C447.144,-1093.38 443.573,-1085.2 440.147,-1077.34"/>
<polygon fill="black" stroke="black" points="440.04,-1077.1 433.975,-1073.2 435.243,-1066.1 441.308,-1070 440.04,-1077.1"/>
</g>
<!-- ndFsInodeWindows&#45;&gt;ndFsMetadata -->
<g id="edge4" class="edge"><title>ndFsInodeWindows&#45;&gt;ndFsMetadata</title>
<path fill="none" stroke="black" d="M594.415,-1101.91C659.594,-1004 742.356,-860.864 777.772,-721 789.264,-675.617 788.745,-627.75 781.197,-581.03"/>
<polygon fill="black" stroke="black" points="779.481,-571.079 785.615,-580.169 780.331,-576.006 781.18,-580.934 781.18,-580.934 781.18,-580.934 780.331,-576.006 776.746,-581.698 779.481,-571.079 779.481,-571.079"/>
</g>
<!-- ndFsInodeCommon -->
<g id="node4" class="node"><title>ndFsInodeCommon</title>
<polygon fill="lightblue" stroke="none" points="332.772,-873.5 332.772,-910.5 489.772,-910.5 489.772,-873.5 332.772,-873.5"/>
<polygon fill="none" stroke="black" points="332.772,-873.5 332.772,-910.5 489.772,-910.5 489.772,-873.5 332.772,-873.5"/>
<text text-anchor="start" x="351.272" y="-889.3" font-family="Arial" font-weight="bold" font-size="14.00">FsInodeCommon</text>
<polygon fill="white" stroke="none" points="332.772,-761.5 332.772,-873.5 489.772,-873.5 489.772,-761.5 332.772,-761.5"/>
<polygon fill="none" stroke="black" points="332.772,-761.5 332.772,-873.5 489.772,-873.5 489.772,-761.5 332.772,-761.5"/>
<text text-anchor="start" x="343.772" y="-851.3" font-family="Arial" font-size="14.00">+ size: u64</text>
<text text-anchor="start" x="343.772" y="-836.3" font-family="Arial" font-size="14.00">+ mtime: Timespec</text>
<text text-anchor="start" x="343.772" y="-821.3" font-family="Arial" font-size="14.00">+ ctime: Timespec</text>
<text text-anchor="start" x="343.772" y="-806.3" font-family="Arial" font-size="14.00">+ crtime: Timespec</text>
<text text-anchor="start" x="343.772" y="-791.3" font-family="Arial" font-size="14.00">+ links: u32</text>
<text text-anchor="start" x="343.772" y="-776.3" font-family="Arial" font-size="14.00">+ osattrs: FsInodeOs</text>
<polygon fill="none" stroke="black" points="331.272,-761 331.272,-912 490.272,-912 490.272,-761 331.272,-761"/>
</g>
<!-- ndFsInodeOs&#45;&gt;ndFsInodeCommon -->
<g id="edge5" class="edge"><title>ndFsInodeOs&#45;&gt;ndFsInodeCommon</title>
<path fill="none" stroke="black" d="M410.772,-951.699C410.772,-944.163 410.772,-936.284 410.772,-928.341"/>
<polygon fill="black" stroke="black" points="410.772,-928.271 406.772,-922.271 410.772,-916.271 414.772,-922.271 410.772,-928.271"/>
</g>
<!-- ndFsInodeDirectory -->
<g id="node5" class="node"><title>ndFsInodeDirectory</title>
<polygon fill="lightblue" stroke="none" points="551.772,-671 551.772,-708 760.772,-708 760.772,-671 551.772,-671"/>
<polygon fill="none" stroke="black" points="551.772,-671 551.772,-708 760.772,-708 760.772,-671 551.772,-671"/>
<text text-anchor="start" x="595.772" y="-686.8" font-family="Arial" font-weight="bold" font-size="14.00">FsInodeDirectory</text>
<polygon fill="white" stroke="none" points="551.772,-619 551.772,-671 760.772,-671 760.772,-619 551.772,-619"/>
<polygon fill="none" stroke="black" points="551.772,-619 551.772,-671 760.772,-671 760.772,-619 551.772,-619"/>
<text text-anchor="start" x="562.772" y="-648.8" font-family="Arial" font-size="14.00">+ common: FsInodeCommon</text>
<text text-anchor="start" x="562.772" y="-633.8" font-family="Arial" font-size="14.00">+ name: OsString</text>
<polygon fill="none" stroke="black" points="550.272,-618.5 550.272,-709.5 761.272,-709.5 761.272,-618.5 550.272,-618.5"/>
</g>
<!-- ndFsInodeCommon&#45;&gt;ndFsInodeDirectory -->
<g id="edge6" class="edge"><title>ndFsInodeCommon&#45;&gt;ndFsInodeDirectory</title>
<path fill="none" stroke="black" d="M498.531,-774.427C523.753,-756.875 551.116,-737.832 575.839,-720.627"/>
<polygon fill="black" stroke="black" points="576.045,-720.484 578.685,-713.773 585.894,-713.629 583.254,-720.34 576.045,-720.484"/>
</g>
<!-- ndFsInodeSymlink -->
<g id="node6" class="node"><title>ndFsInodeSymlink</title>
<polygon fill="lightblue" stroke="none" points="61.7724,-679 61.7724,-716 270.772,-716 270.772,-679 61.7724,-679"/>
<polygon fill="none" stroke="black" points="61.7724,-679 61.7724,-716 270.772,-716 270.772,-679 61.7724,-679"/>
<text text-anchor="start" x="110.272" y="-694.8" font-family="Arial" font-weight="bold" font-size="14.00">FsInodeSymlink</text>
<polygon fill="white" stroke="none" points="61.7724,-612 61.7724,-679 270.772,-679 270.772,-612 61.7724,-612"/>
<polygon fill="none" stroke="black" points="61.7724,-612 61.7724,-679 270.772,-679 270.772,-612 61.7724,-612"/>
<text text-anchor="start" x="72.7724" y="-656.8" font-family="Arial" font-size="14.00">+ common: FsInodeCommon</text>
<text text-anchor="start" x="72.7724" y="-641.8" font-family="Arial" font-size="14.00">+ name: OsString</text>
<text text-anchor="start" x="72.7724" y="-626.8" font-family="Arial" font-size="14.00">+ symlink: OsString</text>
<polygon fill="none" stroke="black" points="60.2724,-611 60.2724,-717 271.272,-717 271.272,-611 60.2724,-611"/>
</g>
<!-- ndFsInodeCommon&#45;&gt;ndFsInodeSymlink -->
<g id="edge7" class="edge"><title>ndFsInodeCommon&#45;&gt;ndFsInodeSymlink</title>
<path fill="none" stroke="black" d="M323.014,-774.427C301.343,-759.346 278.091,-743.165 256.292,-727.994"/>
<polygon fill="black" stroke="black" points="256.239,-727.958 249.03,-727.814 246.39,-721.103 253.599,-721.247 256.239,-727.958"/>
</g>
<!-- ndFsInodeFile -->
<g id="node7" class="node"><title>ndFsInodeFile</title>
<polygon fill="lightblue" stroke="none" points="306.772,-664 306.772,-701 515.772,-701 515.772,-664 306.772,-664"/>
<polygon fill="none" stroke="black" points="306.772,-664 306.772,-701 515.772,-701 515.772,-664 306.772,-664"/>
<text text-anchor="start" x="370.272" y="-679.8" font-family="Arial" font-weight="bold" font-size="14.00">FsInodeFile</text>
<polygon fill="white" stroke="none" points="306.772,-627 306.772,-664 515.772,-664 515.772,-627 306.772,-627"/>
<polygon fill="none" stroke="black" points="306.772,-627 306.772,-664 515.772,-664 515.772,-627 306.772,-627"/>
<text text-anchor="start" x="317.772" y="-641.8" font-family="Arial" font-size="14.00">+ common: FsInodeCommon</text>
<polygon fill="none" stroke="black" points="305.272,-626 305.272,-702 516.272,-702 516.272,-626 305.272,-626"/>
</g>
<!-- ndFsInodeCommon&#45;&gt;ndFsInodeFile -->
<g id="edge8" class="edge"><title>ndFsInodeCommon&#45;&gt;ndFsInodeFile</title>
<path fill="none" stroke="black" d="M410.772,-756.738C410.772,-743.786 410.772,-730.634 410.772,-718.485"/>
<polygon fill="black" stroke="black" points="410.772,-718.239 406.772,-712.239 410.772,-706.239 414.772,-712.239 410.772,-718.239"/>
</g>
<!-- ndFsInodeDirectory&#45;&gt;ndFsMetadata -->
<g id="edge9" class="edge"><title>ndFsInodeDirectory&#45;&gt;ndFsMetadata</title>
<path fill="none" stroke="black" d="M655.772,-614.165C655.772,-604.887 655.772,-594.58 655.772,-583.51"/>
<polygon fill="black" stroke="black" points="655.772,-583.21 651.772,-577.211 655.772,-571.21 659.772,-577.21 655.772,-583.21"/>
</g>
<!-- ndFsInodeSymlink&#45;&gt;ndFsMetadata -->
<g id="edge10" class="edge"><title>ndFsInodeSymlink&#45;&gt;ndFsMetadata</title>
<path fill="none" stroke="black" d="M238.866,-606.838C293.888,-564.56 372.23,-504.365 446.176,-447.547"/>
<polygon fill="black" stroke="black" points="446.592,-447.228 448.912,-440.4 456.107,-439.916 453.787,-446.744 446.592,-447.228"/>
</g>
<!-- ndFsInodeFile&#45;&gt;ndFsMetadata -->
<g id="edge11" class="edge"><title>ndFsInodeFile&#45;&gt;ndFsMetadata</title>
<path fill="none" stroke="black" d="M437.458,-621.991C445.088,-610.266 454.037,-596.514 463.877,-581.392"/>
<polygon fill="black" stroke="black" points="463.922,-581.323 463.842,-574.112 470.467,-571.265 470.548,-578.475 463.922,-581.323"/>
</g>
<!-- ndFsRefFile -->
<g id="node8" class="node"><title>ndFsRefFile</title>
<polygon fill="lightblue" stroke="none" points="835.772,-671 835.772,-708 968.772,-708 968.772,-671 835.772,-671"/>
<polygon fill="none" stroke="black" points="835.772,-671 835.772,-708 968.772,-708 968.772,-671 835.772,-671"/>
<text text-anchor="start" x="869.772" y="-686.8" font-family="Arial" font-weight="bold" font-size="14.00">FsRefFile</text>
<polygon fill="white" stroke="none" points="835.772,-619 835.772,-671 968.772,-671 968.772,-619 835.772,-619"/>
<polygon fill="none" stroke="black" points="835.772,-619 835.772,-671 968.772,-671 968.772,-619 835.772,-619"/>
<text text-anchor="start" x="846.772" y="-648.8" font-family="Arial" font-size="14.00">+ name: OsString</text>
<text text-anchor="start" x="846.772" y="-633.8" font-family="Arial" font-size="14.00">+ inode_id: u64</text>
<polygon fill="none" stroke="black" points="834.272,-618.5 834.272,-709.5 969.272,-709.5 969.272,-618.5 834.272,-618.5"/>
</g>
<!-- ndFsRefFile&#45;&gt;ndFsMetadata -->
<g id="edge12" class="edge"><title>ndFsRefFile&#45;&gt;ndFsMetadata</title>
<path fill="none" stroke="black" d="M869.864,-614.165C863.415,-604.294 856.205,-593.26 848.444,-581.381"/>
<polygon fill="black" stroke="black" points="848.362,-581.256 841.732,-578.421 841.798,-571.21 848.429,-574.045 848.362,-581.256"/>
</g>
<!-- ndDirentKind -->
<g id="node9" class="node"><title>ndDirentKind</title>
<polygon fill="yellow" stroke="none" points="1004.77,-679 1004.77,-716 1101.77,-716 1101.77,-679 1004.77,-679"/>
<polygon fill="none" stroke="black" points="1004.77,-679 1004.77,-716 1101.77,-716 1101.77,-679 1004.77,-679"/>
<text text-anchor="start" x="1015.77" y="-694.8" font-family="Arial" font-weight="bold" font-size="14.00">DirentKind</text>
<polygon fill="white" stroke="none" points="1004.77,-612 1004.77,-679 1101.77,-679 1101.77,-612 1004.77,-612"/>
<polygon fill="none" stroke="black" points="1004.77,-612 1004.77,-679 1101.77,-679 1101.77,-612 1004.77,-612"/>
<text text-anchor="start" x="1015.77" y="-656.8" font-family="Arial" font-size="14.00">File</text>
<text text-anchor="start" x="1015.77" y="-641.8" font-family="Arial" font-size="14.00">Directory</text>
<text text-anchor="start" x="1015.77" y="-626.8" font-family="Arial" font-size="14.00">Symlink</text>
<polygon fill="none" stroke="black" points="1003.27,-611 1003.27,-717 1102.27,-717 1102.27,-611 1003.27,-611"/>
</g>
<!-- ndDirentKind&#45;&gt;ndFsMetadata -->
<g id="edge13" class="edge"><title>ndDirentKind&#45;&gt;ndFsMetadata</title>
<path fill="none" stroke="black" d="M995.045,-608.254C959.555,-574.596 911.696,-529.209 863.129,-483.149"/>
<polygon fill="black" stroke="black" points="855.646,-476.052 865.998,-479.668 859.274,-479.493 862.902,-482.934 862.902,-482.934 862.902,-482.934 859.274,-479.493 859.805,-486.199 855.646,-476.052 855.646,-476.052"/>
</g>
<!-- ndSnFs -->
<g id="node11" class="node"><title>ndSnFs</title>
<polygon fill="lightblue" stroke="none" points="633.772,-1233.5 633.772,-1270.5 899.772,-1270.5 899.772,-1233.5 633.772,-1233.5"/>
<polygon fill="none" stroke="black" points="633.772,-1233.5 633.772,-1270.5 899.772,-1270.5 899.772,-1233.5 633.772,-1233.5"/>
<text text-anchor="start" x="748.272" y="-1249.3" font-family="Arial" font-weight="bold" font-size="14.00">SnFs</text>
<polygon fill="white" stroke="none" points="633.772,-1181.5 633.772,-1233.5 899.772,-1233.5 899.772,-1181.5 633.772,-1181.5"/>
<polygon fill="none" stroke="black" points="633.772,-1181.5 633.772,-1233.5 899.772,-1233.5 899.772,-1181.5 633.772,-1181.5"/>
<text text-anchor="start" x="644.772" y="-1211.3" font-family="Arial" font-size="14.00">&#45; replica: Arc&lt;Mutex&lt;FsTreeReplica&gt;&gt;</text>
<text text-anchor="start" x="644.772" y="-1196.3" font-family="Arial" font-size="14.00">&#45; mountpoint: Dir</text>
<polygon fill="none" stroke="black" points="632.772,-1181 632.772,-1272 900.772,-1272 900.772,-1181 632.772,-1181"/>
</g>
</g>
</svg>
