<?xml version="1.0" encoding="UTF-8" standalone="no"?>
<!DOCTYPE svg PUBLIC "-//W3C//DTD SVG 1.1//EN"
 "http://www.w3.org/Graphics/SVG/1.1/DTD/svg11.dtd">
<!-- Generated by graphviz version 2.38.0 (20140413.2041)
 -->
<!-- Title: ml Pages: 1 -->
<svg width="1113pt" height="138pt"
 viewBox="0.00 0.00 1113.00 138.00" xmlns="http://www.w3.org/2000/svg" xmlns:xlink="http://www.w3.org/1999/xlink">
<g id="graph0" class="graph" transform="scale(1 1) rotate(0) translate(4 134)">
<title>ml</title>
<polygon fill="white" stroke="none" points="-4,4 -4,-134 1109,-134 1109,4 -4,4"/>
<!-- ndErrorCode -->
<g id="node1" class="node"><title>ndErrorCode</title>
<g id="a_node1_0"><a xlink:href="https://github.com/maidsafe/sn_ffi_utils/blob/master/src/lib.rs#:~:text=trait%20ErrorCode" xlink:title="&lt;TABLE&gt;">
<polygon fill="lightgreen" stroke="none" points="9,-87.5 9,-124.5 105,-124.5 105,-87.5 9,-87.5"/>
<polygon fill="none" stroke="black" points="9,-87.5 9,-124.5 105,-124.5 105,-87.5 9,-87.5"/>
<text text-anchor="start" x="20" y="-103.3" font-family="Arial" font-weight="bold" font-size="14.00">ErrorCode</text>
<polygon fill="none" stroke="black" points="8,-87 8,-126 106,-126 106,-87 8,-87"/>
</a>
</g>
</g>
<!-- ndTestError -->
<g id="node10" class="node"><title>ndTestError</title>
<g id="a_node10_1"><a xlink:href="https://github.com/maidsafe/sn_ffi_utils/blob/master/src/test_utils.rs#:~:text=enum%20TestError" xlink:title="&lt;TABLE&gt;">
<polygon fill="yellow" stroke="none" points="13,-4.5 13,-41.5 102,-41.5 102,-4.5 13,-4.5"/>
<polygon fill="none" stroke="black" points="13,-4.5 13,-41.5 102,-41.5 102,-4.5 13,-4.5"/>
<text text-anchor="start" x="24" y="-20.3" font-family="Arial" font-weight="bold" font-size="14.00">TestError</text>
<polygon fill="none" stroke="black" points="11.5,-4 11.5,-43 102.5,-43 102.5,-4 11.5,-4"/>
</a>
</g>
</g>
<!-- ndErrorCode&#45;&gt;ndTestError -->
<g id="edge1" class="edge"><title>ndErrorCode&#45;&gt;ndTestError</title>
<path fill="none" stroke="black" stroke-dasharray="5,2" d="M57,-82.937C57,-75.0164 57,-65.9488 57,-57.3574"/>
<polygon fill="none" stroke="black" points="60.5001,-57.2229 57,-47.2229 53.5001,-57.223 60.5001,-57.2229"/>
</g>
<!-- ndEnvGuard -->
<g id="node2" class="node"><title>ndEnvGuard</title>
<g id="a_node2_2"><a xlink:href="https://github.com/maidsafe/sn_ffi_utils/blob/master/src/java.rs#:~:text=enum%20EnvGuard" xlink:title="&lt;TABLE&gt;">
<polygon fill="yellow" stroke="none" points="142,-87.5 142,-124.5 235,-124.5 235,-87.5 142,-87.5"/>
<polygon fill="none" stroke="black" points="142,-87.5 142,-124.5 235,-124.5 235,-87.5 142,-87.5"/>
<text text-anchor="start" x="153" y="-103.3" font-family="Arial" font-weight="bold" font-size="14.00">EnvGuard</text>
<polygon fill="none" stroke="black" points="140.5,-87 140.5,-126 235.5,-126 235.5,-87 140.5,-87"/>
</a>
</g>
</g>
<!-- ndReprC -->
<g id="node3" class="node"><title>ndReprC</title>
<g id="a_node3_3"><a xlink:href="https://github.com/maidsafe/sn_ffi_utils/blob/master/src/repr_c.rs#:~:text=trait%20ReprC" xlink:title="&lt;TABLE&gt;">
<polygon fill="lightgreen" stroke="none" points="270,-87.5 270,-124.5 336,-124.5 336,-87.5 270,-87.5"/>
<polygon fill="none" stroke="black" points="270,-87.5 270,-124.5 336,-124.5 336,-87.5 270,-87.5"/>
<text text-anchor="start" x="281" y="-103.3" font-family="Arial" font-weight="bold" font-size="14.00">ReprC</text>
<polygon fill="none" stroke="black" points="269,-87 269,-126 337,-126 337,-87 269,-87"/>
</a>
</g>
</g>
<!-- ndNativeResult -->
<g id="node7" class="node"><title>ndNativeResult</title>
<g id="a_node7_4"><a xlink:href="https://github.com/maidsafe/sn_ffi_utils/blob/master/src/result.rs#:~:text=struct%20NativeResult" xlink:title="&lt;TABLE&gt;">
<polygon fill="lightblue" stroke="none" points="360,-4.5 360,-41.5 469,-41.5 469,-4.5 360,-4.5"/>
<polygon fill="none" stroke="black" points="360,-4.5 360,-41.5 469,-41.5 469,-4.5 360,-4.5"/>
<text text-anchor="start" x="371" y="-20.3" font-family="Arial" font-weight="bold" font-size="14.00">NativeResult</text>
<polygon fill="none" stroke="black" points="358.5,-4 358.5,-43 469.5,-43 469.5,-4 358.5,-4"/>
</a>
</g>
</g>
<!-- ndReprC&#45;&gt;ndNativeResult -->
<g id="edge2" class="edge"><title>ndReprC&#45;&gt;ndNativeResult</title>
<path fill="none" stroke="black" stroke-dasharray="5,2" d="M333.92,-82.937C346.563,-73.7108 361.339,-62.9283 374.732,-53.1549"/>
<polygon fill="none" stroke="black" points="376.846,-55.945 382.861,-47.2229 372.72,-50.2904 376.846,-55.945"/>
</g>
<!-- ndCallback -->
<g id="node4" class="node"><title>ndCallback</title>
<g id="a_node4_5"><a xlink:href="https://github.com/maidsafe/sn_ffi_utils/blob/master/src/callback.rs#:~:text=trait%20Callback" xlink:title="&lt;TABLE&gt;">
<polygon fill="lightgreen" stroke="none" points="629,-87.5 629,-124.5 712,-124.5 712,-87.5 629,-87.5"/>
<polygon fill="none" stroke="black" points="629,-87.5 629,-124.5 712,-124.5 712,-87.5 629,-87.5"/>
<text text-anchor="start" x="640" y="-103.3" font-family="Arial" font-weight="bold" font-size="14.00">Callback</text>
<polygon fill="none" stroke="black" points="627.5,-87 627.5,-126 712.5,-126 712.5,-87 627.5,-87"/>
</a>
</g>
</g>
<!-- ndCallbackArgs -->
<g id="node5" class="node"><title>ndCallbackArgs</title>
<g id="a_node5_6"><a xlink:href="https://github.com/maidsafe/sn_ffi_utils/blob/master/src/callback.rs#:~:text=trait%20CallbackArgs" xlink:title="&lt;TABLE&gt;">
<polygon fill="lightgreen" stroke="none" points="748,-87.5 748,-124.5 864,-124.5 864,-87.5 748,-87.5"/>
<polygon fill="none" stroke="black" points="748,-87.5 748,-124.5 864,-124.5 864,-87.5 748,-87.5"/>
<text text-anchor="start" x="759" y="-103.3" font-family="Arial" font-weight="bold" font-size="14.00">CallbackArgs</text>
<polygon fill="none" stroke="black" points="747,-87 747,-126 865,-126 865,-87 747,-87"/>
</a>
</g>
</g>
<!-- ndSafePtr -->
<g id="node6" class="node"><title>ndSafePtr</title>
<g id="a_node6_7"><a xlink:href="https://github.com/maidsafe/sn_ffi_utils/blob/master/src/vec.rs#:~:text=trait%20SafePtr" xlink:title="&lt;TABLE&gt;">
<polygon fill="lightgreen" stroke="none" points="900,-87.5 900,-124.5 974,-124.5 974,-87.5 900,-87.5"/>
<polygon fill="none" stroke="black" points="900,-87.5 900,-124.5 974,-124.5 974,-87.5 900,-87.5"/>
<text text-anchor="start" x="911" y="-103.3" font-family="Arial" font-weight="bold" font-size="14.00">SafePtr</text>
<polygon fill="none" stroke="black" points="899,-87 899,-126 975,-126 975,-87 899,-87"/>
</a>
</g>
</g>
<!-- ndFfiResult -->
<g id="node8" class="node"><title>ndFfiResult</title>
<g id="a_node8_8"><a xlink:href="https://github.com/maidsafe/sn_ffi_utils/blob/master/src/result.rs#:~:text=struct%20FfiResult" xlink:title="&lt;TABLE&gt;">
<polygon fill="lightblue" stroke="none" points="373,-87.5 373,-124.5 456,-124.5 456,-87.5 373,-87.5"/>
<polygon fill="none" stroke="black" points="373,-87.5 373,-124.5 456,-124.5 456,-87.5 373,-87.5"/>
<text text-anchor="start" x="384" y="-103.3" font-family="Arial" font-weight="bold" font-size="14.00">FfiResult</text>
<polygon fill="none" stroke="black" points="371.5,-87 371.5,-126 456.5,-126 456.5,-87 371.5,-87"/>
</a>
</g>
</g>
<!-- ndFfiResult&#45;&gt;ndNativeResult -->
<g id="edge3" class="edge"><title>ndFfiResult&#45;&gt;ndNativeResult</title>
<path fill="none" stroke="black" d="M414,-82.937C414,-75.0164 414,-65.9488 414,-57.3574"/>
<polygon fill="black" stroke="black" points="414,-47.2229 418.5,-57.2229 414,-52.2229 414,-57.2229 414,-57.2229 414,-57.2229 414,-52.2229 409.5,-57.223 414,-47.2229 414,-47.2229"/>
</g>
<!-- ndUserData -->
<g id="node9" class="node"><title>ndUserData</title>
<g id="a_node9_9"><a xlink:href="https://github.com/maidsafe/sn_ffi_utils/blob/master/src/test_utils.rs#:~:text=struct%20UserData" xlink:title="&lt;TABLE&gt;">
<polygon fill="lightblue" stroke="none" points="1010,-87.5 1010,-124.5 1096,-124.5 1096,-87.5 1010,-87.5"/>
<polygon fill="none" stroke="black" points="1010,-87.5 1010,-124.5 1096,-124.5 1096,-87.5 1010,-87.5"/>
<text text-anchor="start" x="1021" y="-103.3" font-family="Arial" font-weight="bold" font-size="14.00">UserData</text>
<polygon fill="none" stroke="black" points="1009,-87 1009,-126 1097,-126 1097,-87 1009,-87"/>
</a>
</g>
</g>
<!-- ndStringError -->
<g id="node11" class="node"><title>ndStringError</title>
<g id="a_node11_10"><a xlink:href="https://github.com/maidsafe/sn_ffi_utils/blob/master/src/string.rs#:~:text=enum%20StringError" xlink:title="&lt;TABLE&gt;">
<polygon fill="yellow" stroke="none" points="492,-87.5 492,-124.5 593,-124.5 593,-87.5 492,-87.5"/>
<polygon fill="none" stroke="black" points="492,-87.5 492,-124.5 593,-124.5 593,-87.5 492,-87.5"/>
<text text-anchor="start" x="503" y="-103.3" font-family="Arial" font-weight="bold" font-size="14.00">StringError</text>
<polygon fill="none" stroke="black" points="490.5,-87 490.5,-126 593.5,-126 593.5,-87 490.5,-87"/>
</a>
</g>
</g>
<!-- ndStringError&#45;&gt;ndNativeResult -->
<g id="edge4" class="edge"><title>ndStringError&#45;&gt;ndNativeResult</title>
<path fill="none" stroke="black" d="M506.345,-82.937C491.49,-73.5367 474.082,-62.5209 458.409,-52.6028"/>
<polygon fill="black" stroke="black" points="449.908,-47.2229 460.764,-48.7678 454.133,-49.8967 458.358,-52.5704 458.358,-52.5704 458.358,-52.5704 454.133,-49.8967 455.952,-56.373 449.908,-47.2229 449.908,-47.2229"/>
</g>
</g>
</svg>
