<?xml version="1.0" encoding="UTF-8" standalone="no"?>
<!DOCTYPE svg PUBLIC "-//W3C//DTD SVG 1.1//EN"
 "http://www.w3.org/Graphics/SVG/1.1/DTD/svg11.dtd">
<!-- Generated by graphviz version 2.38.0 (20140413.2041)
 -->
<!-- Title: ml Pages: 1 -->
<svg width="179pt" height="260pt"
 viewBox="0.00 0.00 178.50 260.00" xmlns="http://www.w3.org/2000/svg" xmlns:xlink="http://www.w3.org/1999/xlink">
<g id="graph0" class="graph" transform="scale(1 1) rotate(0) translate(4 256)">
<title>ml</title>
<polygon fill="white" stroke="none" points="-4,4 -4,-256 174.5,-256 174.5,4 -4,4"/>
<!-- ndLaunch -->
<g id="node1" class="node"><title>ndLaunch</title>
<text text-anchor="middle" x="35.5" y="-14.3" font-family="Times,serif" font-size="14.00">ndLaunch</text>
</g>
<!-- ndJoin -->
<g id="node2" class="node"><title>ndJoin</title>
<text text-anchor="middle" x="116.5" y="-14.3" font-family="Times,serif" font-size="14.00">ndJoin</text>
</g>
<!-- ndCommonArgs -->
<g id="node3" class="node"><title>ndCommonArgs</title>
<text text-anchor="middle" x="116.5" y="-86.3" font-family="Times,serif" font-size="14.00">ndCommonArgs</text>
</g>
<!-- ndCommonArgs&#45;&gt;ndLaunch -->
<g id="edge1" class="edge"><title>ndCommonArgs&#45;&gt;ndLaunch</title>
<path fill="none" stroke="black" d="M96.4775,-71.6966C86.8648,-63.3893 75.1634,-53.2771 64.5914,-44.1407"/>
<polygon fill="black" stroke="black" points="64.3715,-43.9507 57.2164,-43.054 55.2922,-36.1043 62.4473,-37.0011 64.3715,-43.9507"/>
</g>
<!-- ndCommonArgs&#45;&gt;ndJoin -->
<g id="edge2" class="edge"><title>ndCommonArgs&#45;&gt;ndJoin</title>
<path fill="none" stroke="black" d="M116.5,-71.6966C116.5,-64.5761 116.5,-56.1294 116.5,-48.1079"/>
<polygon fill="black" stroke="black" points="116.5,-48.1043 112.5,-42.1044 116.5,-36.1043 120.5,-42.1043 116.5,-48.1043"/>
</g>
<!-- ndNodeCmd -->
<g id="node4" class="node"><title>ndNodeCmd</title>
<text text-anchor="middle" x="75.5" y="-158.3" font-family="Times,serif" font-size="14.00">ndNodeCmd</text>
</g>
<!-- ndNodeCmd&#45;&gt;ndLaunch -->
<g id="edge3" class="edge"><title>ndNodeCmd&#45;&gt;ndLaunch</title>
<path fill="none" stroke="black" stroke-dasharray="5,2" d="M67.2944,-143.647C62.7259,-133.446 57.2259,-120.196 53.5,-108 47.2917,-87.6787 42.6309,-64.0837 39.6092,-46.2959"/>
<polygon fill="black" stroke="black" points="37.9803,-36.3076 44.0313,-45.4529 38.7851,-41.2424 39.59,-46.1773 39.59,-46.1773 39.59,-46.1773 38.7851,-41.2424 35.1486,-46.9016 37.9803,-36.3076 37.9803,-36.3076"/>
</g>
<!-- ndNodeCmd&#45;&gt;ndCommonArgs -->
<g id="edge4" class="edge"><title>ndNodeCmd&#45;&gt;ndCommonArgs</title>
<path fill="none" stroke="black" d="M85.6348,-143.697C90.3516,-135.644 96.0618,-125.894 101.282,-116.982"/>
<polygon fill="black" stroke="black" points="106.482,-108.104 105.311,-119.008 103.955,-112.419 101.428,-116.733 101.428,-116.733 101.428,-116.733 103.955,-112.419 97.5447,-114.459 106.482,-108.104 106.482,-108.104"/>
</g>
<!-- ndNodeArgs -->
<g id="node5" class="node"><title>ndNodeArgs</title>
<text text-anchor="middle" x="75.5" y="-230.3" font-family="Times,serif" font-size="14.00">ndNodeArgs</text>
</g>
<!-- ndNodeArgs&#45;&gt;ndNodeCmd -->
<g id="edge5" class="edge"><title>ndNodeArgs&#45;&gt;ndNodeCmd</title>
<path fill="none" stroke="black" d="M75.5,-215.697C75.5,-208.576 75.5,-200.129 75.5,-192.108"/>
<polygon fill="black" stroke="black" points="75.5001,-192.104 71.5,-186.104 75.5,-180.104 79.5,-186.104 75.5001,-192.104"/>
</g>
</g>
</svg>
