<?xml version="1.0" encoding="UTF-8" standalone="no"?>
<!DOCTYPE svg PUBLIC "-//W3C//DTD SVG 1.1//EN"
 "http://www.w3.org/Graphics/SVG/1.1/DTD/svg11.dtd">
<!-- Generated by graphviz version 2.38.0 (20140413.2041)
 -->
<!-- Title: ml Pages: 1 -->
<svg width="1144pt" height="1020pt"
 viewBox="0.00 0.00 1144.00 1020.00" xmlns="http://www.w3.org/2000/svg" xmlns:xlink="http://www.w3.org/1999/xlink">
<g id="graph0" class="graph" transform="scale(1 1) rotate(0) translate(4 1016)">
<title>ml</title>
<polygon fill="white" stroke="none" points="-4,4 -4,-1016 1140,-1016 1140,4 -4,4"/>
<!-- ndLaunch -->
<g id="node1" class="node"><title>ndLaunch</title>
<g id="a_node1_0"><a xlink:href="https://github.com/maidsafe/sn_launch_tool/blob/master/src/lib.rs#:~:text=struct%20Launch" xlink:title="&lt;TABLE&gt;">
<polygon fill="lightblue" stroke="none" points="9.5,-228.5 9.5,-265.5 798.5,-265.5 798.5,-228.5 9.5,-228.5"/>
<polygon fill="none" stroke="black" points="9.5,-228.5 9.5,-265.5 798.5,-265.5 798.5,-228.5 9.5,-228.5"/>
<text text-anchor="start" x="377.5" y="-244.3" font-family="Arial" font-weight="bold" font-size="14.00">Launch</text>
<polygon fill="white" stroke="none" points="9.5,-86.5 9.5,-228.5 798.5,-228.5 798.5,-86.5 9.5,-86.5"/>
<polygon fill="none" stroke="black" points="9.5,-86.5 9.5,-228.5 798.5,-228.5 798.5,-86.5 9.5,-86.5"/>
<text text-anchor="start" x="20.5" y="-206.3" font-family="Arial" font-size="14.00">&#45; common: CommonArgs</text>
<text text-anchor="start" x="20.5" y="-191.3" font-family="Arial" font-size="14.00">&#45; interval: u64</text>
<text text-anchor="start" x="20.5" y="-176.3" font-family="Arial" font-size="14.00">&#45; idle_timeout_msec: Option&lt;u64&gt;</text>
<text text-anchor="start" x="20.5" y="-161.3" font-family="Arial" font-size="14.00">&#45; keep_alive_interval_msec: Option&lt;u64&gt;</text>
<text text-anchor="start" x="20.5" y="-146.3" font-family="Arial" font-size="14.00">&#45; nodes_dir: PathBuf</text>
<text text-anchor="start" x="20.5" y="-131.3" font-family="Arial" font-size="14.00">&#45; num_nodes: usize</text>
<text text-anchor="start" x="20.5" y="-116.3" font-family="Arial" font-size="14.00">&#45; ip: Option&lt;String&gt;</text>
<text text-anchor="start" x="20.5" y="-101.3" font-family="Arial" font-size="14.00">&#45; add_nodes_to_existing_network: bool</text>
<polygon fill="white" stroke="none" points="9.5,-4.5 9.5,-86.5 798.5,-86.5 798.5,-4.5 9.5,-4.5"/>
<polygon fill="none" stroke="black" points="9.5,-4.5 9.5,-86.5 798.5,-86.5 798.5,-4.5 9.5,-4.5"/>
<text text-anchor="start" x="20.5" y="-64.3" font-family="Arial" font-size="14.00">&#45; run(&amp;self) &#45;&gt; Result&lt;()&gt;</text>
<text text-anchor="start" x="20.5" y="-49.3" font-family="Arial" font-size="14.00">&#45; run_genesis(&amp;self, node_cmd: &amp;NodeCmd) &#45;&gt; Result&lt;()&gt;</text>
<text text-anchor="start" x="20.5" y="-34.3" font-family="Arial" font-size="14.00">&#45; run_node(&amp;self, node_cmd: &amp;NodeCmd, node_idx: usize, contacts: &amp;[SocketAddr], genesis_key_str: &amp;str) &#45;&gt; Result&lt;()&gt;</text>
<text text-anchor="start" x="20.5" y="-19.3" font-family="Arial" font-size="14.00">&#45; node_ids(&amp;self) &#45;&gt; Result&lt;RangeInclusive&lt;usize&gt;&gt;</text>
<polygon fill="none" stroke="black" points="8,-4 8,-267 799,-267 799,-4 8,-4"/>
</a>
</g>
</g>
<!-- ndJoin -->
<g id="node2" class="node"><title>ndJoin</title>
<g id="a_node2_1"><a xlink:href="https://github.com/maidsafe/sn_launch_tool/blob/master/src/lib.rs#:~:text=struct%20Join" xlink:title="&lt;TABLE&gt;">
<polygon fill="lightblue" stroke="none" points="834.5,-213.5 834.5,-250.5 1127.5,-250.5 1127.5,-213.5 834.5,-213.5"/>
<polygon fill="none" stroke="black" points="834.5,-213.5 834.5,-250.5 1127.5,-250.5 1127.5,-213.5 834.5,-213.5"/>
<text text-anchor="start" x="965.5" y="-229.3" font-family="Arial" font-weight="bold" font-size="14.00">Join</text>
<polygon fill="white" stroke="none" points="834.5,-56.5 834.5,-213.5 1127.5,-213.5 1127.5,-56.5 834.5,-56.5"/>
<polygon fill="none" stroke="black" points="834.5,-56.5 834.5,-213.5 1127.5,-213.5 1127.5,-56.5 834.5,-56.5"/>
<text text-anchor="start" x="845.5" y="-191.3" font-family="Arial" font-size="14.00">&#45; common: CommonArgs</text>
<text text-anchor="start" x="845.5" y="-176.3" font-family="Arial" font-size="14.00">&#45; nodes_dir: PathBuf</text>
<text text-anchor="start" x="845.5" y="-161.3" font-family="Arial" font-size="14.00">&#45; max_capacity: Option&lt;u64&gt;</text>
<text text-anchor="start" x="845.5" y="-146.3" font-family="Arial" font-size="14.00">&#45; hard_coded_contacts: Vec&lt;SocketAddr&gt;</text>
<text text-anchor="start" x="845.5" y="-131.3" font-family="Arial" font-size="14.00">&#45; genesis_key: String</text>
<text text-anchor="start" x="845.5" y="-116.3" font-family="Arial" font-size="14.00">&#45; local_addr: Option&lt;SocketAddr&gt;</text>
<text text-anchor="start" x="845.5" y="-101.3" font-family="Arial" font-size="14.00">&#45; public_addr: Option&lt;SocketAddr&gt;</text>
<text text-anchor="start" x="845.5" y="-86.3" font-family="Arial" font-size="14.00">&#45; skip_auto_port_forwarding: bool</text>
<text text-anchor="start" x="845.5" y="-71.3" font-family="Arial" font-size="14.00">&#45; clear_data: bool</text>
<polygon fill="white" stroke="none" points="834.5,-19.5 834.5,-56.5 1127.5,-56.5 1127.5,-19.5 834.5,-19.5"/>
<polygon fill="none" stroke="black" points="834.5,-19.5 834.5,-56.5 1127.5,-56.5 1127.5,-19.5 834.5,-19.5"/>
<text text-anchor="start" x="845.5" y="-34.3" font-family="Arial" font-size="14.00">&#45; run(&amp;self) &#45;&gt; Result&lt;()&gt;</text>
<polygon fill="none" stroke="black" points="833,-19 833,-252 1128,-252 1128,-19 833,-19"/>
</a>
</g>
</g>
<!-- ndCommonArgs -->
<g id="node3" class="node"><title>ndCommonArgs</title>
<g id="a_node3_2"><a xlink:href="https://github.com/maidsafe/sn_launch_tool/blob/master/src/lib.rs#:~:text=struct%20CommonArgs" xlink:title="&lt;TABLE&gt;">
<polygon fill="lightblue" stroke="none" points="440.5,-475.5 440.5,-512.5 724.5,-512.5 724.5,-475.5 440.5,-475.5"/>
<polygon fill="none" stroke="black" points="440.5,-475.5 440.5,-512.5 724.5,-512.5 724.5,-475.5 440.5,-475.5"/>
<text text-anchor="start" x="534" y="-491.3" font-family="Arial" font-weight="bold" font-size="14.00">CommonArgs</text>
<polygon fill="white" stroke="none" points="440.5,-363.5 440.5,-475.5 724.5,-475.5 724.5,-363.5 440.5,-363.5"/>
<polygon fill="none" stroke="black" points="440.5,-363.5 440.5,-475.5 724.5,-475.5 724.5,-363.5 440.5,-363.5"/>
<text text-anchor="start" x="451.5" y="-453.3" font-family="Arial" font-size="14.00">&#45; node_path: Option&lt;PathBuf&gt;</text>
<text text-anchor="start" x="451.5" y="-438.3" font-family="Arial" font-size="14.00">&#45; nodes_verbosity: u8</text>
<text text-anchor="start" x="451.5" y="-423.3" font-family="Arial" font-size="14.00">&#45; rust_log: Option&lt;String&gt;</text>
<text text-anchor="start" x="451.5" y="-408.3" font-family="Arial" font-size="14.00">&#45; json_logs: bool</text>
<text text-anchor="start" x="451.5" y="-393.3" font-family="Arial" font-size="14.00">&#45; is_local: bool</text>
<text text-anchor="start" x="451.5" y="-378.3" font-family="Arial" font-size="14.00">&#45; flame: bool</text>
<polygon fill="white" stroke="none" points="440.5,-311.5 440.5,-363.5 724.5,-363.5 724.5,-311.5 440.5,-311.5"/>
<polygon fill="none" stroke="black" points="440.5,-311.5 440.5,-363.5 724.5,-363.5 724.5,-311.5 440.5,-311.5"/>
<text text-anchor="start" x="451.5" y="-341.3" font-family="Arial" font-size="14.00">&#45; node_cmd(&amp;self) &#45;&gt; Result&lt;NodeCmd&gt;</text>
<text text-anchor="start" x="451.5" y="-326.3" font-family="Arial" font-size="14.00">&#45; rust_log(&amp;self) &#45;&gt; Cow&lt;&#39;_, str&gt;</text>
<polygon fill="none" stroke="black" points="439.5,-311 439.5,-514 725.5,-514 725.5,-311 439.5,-311"/>
</a>
</g>
</g>
<!-- ndCommonArgs&#45;&gt;ndLaunch -->
<g id="edge1" class="edge"><title>ndCommonArgs&#45;&gt;ndLaunch</title>
<path fill="none" stroke="black" d="M514.317,-306.75C508.849,-298.349 503.269,-289.776 497.663,-281.165"/>
<polygon fill="black" stroke="black" points="497.624,-281.104 490.998,-278.257 491.078,-271.047 497.703,-273.893 497.624,-281.104"/>
</g>
<!-- ndCommonArgs&#45;&gt;ndJoin -->
<g id="edge2" class="edge"><title>ndCommonArgs&#45;&gt;ndJoin</title>
<path fill="none" stroke="black" d="M733.654,-324.619C761.325,-307.52 789.619,-289.215 815.5,-271 819.006,-268.532 822.534,-266.012 826.073,-263.449"/>
<polygon fill="black" stroke="black" points="826.393,-263.215 828.868,-256.442 836.072,-256.121 833.597,-262.894 826.393,-263.215"/>
</g>
<!-- ndNodeCmd -->
<g id="node4" class="node"><title>ndNodeCmd</title>
<g id="a_node4_3"><a xlink:href="https://github.com/maidsafe/sn_launch_tool/blob/master/src/cmd.rs#:~:text=struct%20NodeCmd" xlink:title="&lt;TABLE&gt;">
<polygon fill="lightblue" stroke="none" points="121.5,-798 121.5,-835 864.5,-835 864.5,-798 121.5,-798"/>
<polygon fill="none" stroke="black" points="121.5,-798 121.5,-835 864.5,-835 864.5,-798 121.5,-798"/>
<text text-anchor="start" x="458.5" y="-813.8" font-family="Arial" font-weight="bold" font-size="14.00">NodeCmd</text>
<polygon fill="white" stroke="none" points="121.5,-716 121.5,-798 864.5,-798 864.5,-716 121.5,-716"/>
<polygon fill="none" stroke="black" points="121.5,-716 121.5,-798 864.5,-798 864.5,-716 121.5,-716"/>
<text text-anchor="start" x="132.5" y="-775.8" font-family="Arial" font-size="14.00">&#45; path: Cow&lt;&#39;a, OsStr&gt;</text>
<text text-anchor="start" x="132.5" y="-760.8" font-family="Arial" font-size="14.00">&#45; envs: Vec&lt;(Cow&lt;&#39;a, OsStr&gt;, Cow&lt;&#39;a, OsStr&gt;)&gt;</text>
<text text-anchor="start" x="132.5" y="-745.8" font-family="Arial" font-size="14.00">&#45; args: NodeArgs&lt;&#39;a&gt;</text>
<text text-anchor="start" x="132.5" y="-730.8" font-family="Arial" font-size="14.00">&#45; flame: bool</text>
<polygon fill="white" stroke="none" points="121.5,-559 121.5,-716 864.5,-716 864.5,-559 121.5,-559"/>
<polygon fill="none" stroke="black" points="121.5,-559 121.5,-716 864.5,-716 864.5,-559 121.5,-559"/>
<text text-anchor="start" x="132.5" y="-693.8" font-family="Arial" font-size="14.00">&#45; new(path: P) &#45;&gt; Self</text>
<text text-anchor="start" x="132.5" y="-678.8" font-family="Arial" font-size="14.00">&#45; path(&amp;self) &#45;&gt; &amp;Path</text>
<text text-anchor="start" x="132.5" y="-663.8" font-family="Arial" font-size="14.00">&#45; set_flame(&amp;mut self, flame: bool)</text>
<text text-anchor="start" x="132.5" y="-648.8" font-family="Arial" font-size="14.00">&#45; gen_flamegraph(&amp;self) &#45;&gt; bool</text>
<text text-anchor="start" x="132.5" y="-633.8" font-family="Arial" font-size="14.00">&#45; args(&amp;self) &#45;&gt; &amp;NodeArgs</text>
<text text-anchor="start" x="132.5" y="-618.8" font-family="Arial" font-size="14.00">&#45; push_env(&amp;mut self, key: K, value: V)</text>
<text text-anchor="start" x="132.5" y="-603.8" font-family="Arial" font-size="14.00">&#45; push_arg(&amp;mut self, arg: A)</text>
<text text-anchor="start" x="132.5" y="-588.8" font-family="Arial" font-size="14.00">&#45; version(&amp;self) &#45;&gt; Result&lt;String&gt;</text>
<text text-anchor="start" x="132.5" y="-573.8" font-family="Arial" font-size="14.00">&#45; run(&amp;self, node_name: &amp;str, node_dir: &amp;Path, contacts: &amp;[SocketAddr], genesis_key: Option&lt;&amp;str&gt;) &#45;&gt; Result&lt;()&gt;</text>
<polygon fill="none" stroke="black" points="120,-558 120,-836 865,-836 865,-558 120,-558"/>
</a>
</g>
</g>
<!-- ndNodeCmd&#45;&gt;ndLaunch -->
<g id="edge3" class="edge"><title>ndNodeCmd&#45;&gt;ndLaunch</title>
<path fill="none" stroke="black" stroke-dasharray="5,2" d="M431.994,-553.956C428.301,-541.937 425.053,-529.848 422.5,-518 405.891,-440.916 400.612,-353.134 399.721,-281.223"/>
<polygon fill="black" stroke="black" points="399.624,-271.184 404.221,-281.14 399.672,-276.184 399.721,-281.184 399.721,-281.184 399.721,-281.184 399.672,-276.184 395.221,-281.227 399.624,-271.184 399.624,-271.184"/>
</g>
<!-- ndNodeCmd&#45;&gt;ndCommonArgs -->
<g id="edge4" class="edge"><title>ndNodeCmd&#45;&gt;ndCommonArgs</title>
<path fill="none" stroke="black" d="M537.764,-553.922C540.562,-545.137 543.36,-536.357 546.112,-527.716"/>
<polygon fill="black" stroke="black" points="549.199,-518.028 550.451,-528.922 547.681,-522.792 546.164,-527.556 546.164,-527.556 546.164,-527.556 547.681,-522.792 541.876,-526.19 549.199,-518.028 549.199,-518.028"/>
</g>
<!-- ndNodeArgs -->
<g id="node5" class="node"><title>ndNodeArgs</title>
<g id="a_node5_4"><a xlink:href="https://github.com/maidsafe/sn_launch_tool/blob/master/src/cmd.rs#:~:text=struct%20NodeArgs" xlink:title="&lt;TABLE&gt;">
<polygon fill="lightblue" stroke="none" points="329.5,-970 329.5,-1007 656.5,-1007 656.5,-970 329.5,-970"/>
<polygon fill="none" stroke="black" points="329.5,-970 329.5,-1007 656.5,-1007 656.5,-970 329.5,-970"/>
<text text-anchor="start" x="458" y="-985.8" font-family="Arial" font-weight="bold" font-size="14.00">NodeArgs</text>
<polygon fill="white" stroke="none" points="329.5,-933 329.5,-970 656.5,-970 656.5,-933 329.5,-933"/>
<polygon fill="none" stroke="black" points="329.5,-933 329.5,-970 656.5,-970 656.5,-933 329.5,-933"/>
<text text-anchor="start" x="340.5" y="-947.8" font-family="Arial" font-size="14.00">&#45; Vec&lt;Cow&lt;&#39;a, OsStr&gt;&gt;</text>
<polygon fill="white" stroke="none" points="329.5,-881 329.5,-933 656.5,-933 656.5,-881 329.5,-881"/>
<polygon fill="none" stroke="black" points="329.5,-881 329.5,-933 656.5,-933 656.5,-881 329.5,-881"/>
<text text-anchor="start" x="340.5" y="-910.8" font-family="Arial" font-size="14.00">&#45; push(&amp;mut self, arg: A)</text>
<text text-anchor="start" x="340.5" y="-895.8" font-family="Arial" font-size="14.00">&#45; fmt(&amp;self, f: &amp;mut fmt::Formatter) &#45;&gt; fmt::Result</text>
<polygon fill="none" stroke="black" points="328,-880 328,-1008 657,-1008 657,-880 328,-880"/>
</a>
</g>
</g>
<!-- ndNodeArgs&#45;&gt;ndNodeCmd -->
<g id="edge5" class="edge"><title>ndNodeArgs&#45;&gt;ndNodeCmd</title>
<path fill="none" stroke="black" d="M492.5,-875.729C492.5,-868.297 492.5,-860.522 492.5,-852.553"/>
<polygon fill="black" stroke="black" points="492.5,-852.328 488.5,-846.328 492.5,-840.328 496.5,-846.328 492.5,-852.328"/>
</g>
</g>
</svg>
