<?xml version="1.0" encoding="UTF-8" standalone="no"?>
<!DOCTYPE svg PUBLIC "-//W3C//DTD SVG 1.1//EN"
 "http://www.w3.org/Graphics/SVG/1.1/DTD/svg11.dtd">
<!-- Generated by graphviz version 2.38.0 (20140413.2041)
 -->
<!-- Title: ml Pages: 1 -->
<svg width="1144pt" height="788pt"
 viewBox="0.00 0.00 1144.00 788.00" xmlns="http://www.w3.org/2000/svg" xmlns:xlink="http://www.w3.org/1999/xlink">
<g id="graph0" class="graph" transform="scale(1 1) rotate(0) translate(4 784)">
<title>ml</title>
<polygon fill="white" stroke="none" points="-4,4 -4,-784 1140,-784 1140,4 -4,4"/>
<!-- ndLaunch -->
<g id="node1" class="node"><title>ndLaunch</title>
<polygon fill="lightblue" stroke="none" points="9.5,-228.5 9.5,-265.5 798.5,-265.5 798.5,-228.5 9.5,-228.5"/>
<polygon fill="none" stroke="black" points="9.5,-228.5 9.5,-265.5 798.5,-265.5 798.5,-228.5 9.5,-228.5"/>
<text text-anchor="start" x="377.5" y="-244.3" font-family="Arial" font-weight="bold" font-size="14.00">Launch</text>
<polygon fill="white" stroke="none" points="9.5,-86.5 9.5,-228.5 798.5,-228.5 798.5,-86.5 9.5,-86.5"/>
<polygon fill="none" stroke="black" points="9.5,-86.5 9.5,-228.5 798.5,-228.5 798.5,-86.5 9.5,-86.5"/>
<text text-anchor="start" x="20.5" y="-206.3" font-family="Arial" font-size="14.00">&#45; common: CommonArgs</text>
<text text-anchor="start" x="20.5" y="-191.3" font-family="Arial" font-size="14.00">&#45; interval: u64</text>
<text text-anchor="start" x="20.5" y="-176.3" font-family="Arial" font-size="14.00">&#45; idle_timeout_msec: u64</text>
<text text-anchor="start" x="20.5" y="-161.3" font-family="Arial" font-size="14.00">&#45; keep_alive_interval_msec: Option&lt;u64&gt;</text>
<text text-anchor="start" x="20.5" y="-146.3" font-family="Arial" font-size="14.00">&#45; nodes_dir: PathBuf</text>
<text text-anchor="start" x="20.5" y="-131.3" font-family="Arial" font-size="14.00">&#45; num_nodes: usize</text>
<text text-anchor="start" x="20.5" y="-116.3" font-family="Arial" font-size="14.00">&#45; ip: Option&lt;String&gt;</text>
<text text-anchor="start" x="20.5" y="-101.3" font-family="Arial" font-size="14.00">&#45; add_nodes_to_existing_network: bool</text>
<polygon fill="white" stroke="none" points="9.5,-4.5 9.5,-86.5 798.5,-86.5 798.5,-4.5 9.5,-4.5"/>
<polygon fill="none" stroke="black" points="9.5,-4.5 9.5,-86.5 798.5,-86.5 798.5,-4.5 9.5,-4.5"/>
<text text-anchor="start" x="20.5" y="-64.3" font-family="Arial" font-size="14.00">&#45; run(&amp;self) &#45;&gt; Result&lt;()&gt;</text>
<text text-anchor="start" x="20.5" y="-49.3" font-family="Arial" font-size="14.00">&#45; run_genesis(&amp;self, node_cmd: &amp;NodeCmd) &#45;&gt; Result&lt;()&gt;</text>
<text text-anchor="start" x="20.5" y="-34.3" font-family="Arial" font-size="14.00">&#45; run_node(&amp;self, node_cmd: &amp;NodeCmd, node_idx: usize, contacts: &amp;[SocketAddr], genesis_key_str: &amp;str) &#45;&gt; Result&lt;()&gt;</text>
<text text-anchor="start" x="20.5" y="-19.3" font-family="Arial" font-size="14.00">&#45; node_ids(&amp;self) &#45;&gt; Result&lt;RangeInclusive&lt;usize&gt;&gt;</text>
<polygon fill="none" stroke="black" points="8,-4 8,-267 799,-267 799,-4 8,-4"/>
</g>
<!-- ndJoin -->
<g id="node2" class="node"><title>ndJoin</title>
<polygon fill="lightblue" stroke="none" points="834.5,-206.5 834.5,-243.5 1127.5,-243.5 1127.5,-206.5 834.5,-206.5"/>
<polygon fill="none" stroke="black" points="834.5,-206.5 834.5,-243.5 1127.5,-243.5 1127.5,-206.5 834.5,-206.5"/>
<text text-anchor="start" x="965.5" y="-222.3" font-family="Arial" font-weight="bold" font-size="14.00">Join</text>
<polygon fill="white" stroke="none" points="834.5,-64.5 834.5,-206.5 1127.5,-206.5 1127.5,-64.5 834.5,-64.5"/>
<polygon fill="none" stroke="black" points="834.5,-64.5 834.5,-206.5 1127.5,-206.5 1127.5,-64.5 834.5,-64.5"/>
<text text-anchor="start" x="845.5" y="-184.3" font-family="Arial" font-size="14.00">&#45; common: CommonArgs</text>
<text text-anchor="start" x="845.5" y="-169.3" font-family="Arial" font-size="14.00">&#45; nodes_dir: PathBuf</text>
<text text-anchor="start" x="845.5" y="-154.3" font-family="Arial" font-size="14.00">&#45; max_capacity: Option&lt;u64&gt;</text>
<text text-anchor="start" x="845.5" y="-139.3" font-family="Arial" font-size="14.00">&#45; hard_coded_contacts: Vec&lt;SocketAddr&gt;</text>
<text text-anchor="start" x="845.5" y="-124.3" font-family="Arial" font-size="14.00">&#45; genesis_key: String</text>
<text text-anchor="start" x="845.5" y="-109.3" font-family="Arial" font-size="14.00">&#45; local_addr: Option&lt;SocketAddr&gt;</text>
<text text-anchor="start" x="845.5" y="-94.3" font-family="Arial" font-size="14.00">&#45; public_addr: Option&lt;SocketAddr&gt;</text>
<text text-anchor="start" x="845.5" y="-79.3" font-family="Arial" font-size="14.00">&#45; clear_data: bool</text>
<polygon fill="white" stroke="none" points="834.5,-27.5 834.5,-64.5 1127.5,-64.5 1127.5,-27.5 834.5,-27.5"/>
<polygon fill="none" stroke="black" points="834.5,-27.5 834.5,-64.5 1127.5,-64.5 1127.5,-27.5 834.5,-27.5"/>
<text text-anchor="start" x="845.5" y="-42.3" font-family="Arial" font-size="14.00">&#45; run(&amp;self) &#45;&gt; Result&lt;()&gt;</text>
<polygon fill="none" stroke="black" points="833,-26.5 833,-244.5 1128,-244.5 1128,-26.5 833,-26.5"/>
</g>
<!-- ndCommonArgs -->
<g id="node3" class="node"><title>ndCommonArgs</title>
<polygon fill="lightblue" stroke="none" points="440.5,-461 440.5,-498 724.5,-498 724.5,-461 440.5,-461"/>
<polygon fill="none" stroke="black" points="440.5,-461 440.5,-498 724.5,-498 724.5,-461 440.5,-461"/>
<text text-anchor="start" x="534" y="-476.8" font-family="Arial" font-weight="bold" font-size="14.00">CommonArgs</text>
<polygon fill="white" stroke="none" points="440.5,-364 440.5,-461 724.5,-461 724.5,-364 440.5,-364"/>
<polygon fill="none" stroke="black" points="440.5,-364 440.5,-461 724.5,-461 724.5,-364 440.5,-364"/>
<text text-anchor="start" x="451.5" y="-438.8" font-family="Arial" font-size="14.00">&#45; node_path: Option&lt;PathBuf&gt;</text>
<text text-anchor="start" x="451.5" y="-423.8" font-family="Arial" font-size="14.00">&#45; nodes_verbosity: u8</text>
<text text-anchor="start" x="451.5" y="-408.8" font-family="Arial" font-size="14.00">&#45; rust_log: Option&lt;String&gt;</text>
<text text-anchor="start" x="451.5" y="-393.8" font-family="Arial" font-size="14.00">&#45; json_logs: bool</text>
<text text-anchor="start" x="451.5" y="-378.8" font-family="Arial" font-size="14.00">&#45; is_local: bool</text>
<polygon fill="white" stroke="none" points="440.5,-312 440.5,-364 724.5,-364 724.5,-312 440.5,-312"/>
<polygon fill="none" stroke="black" points="440.5,-312 440.5,-364 724.5,-364 724.5,-312 440.5,-312"/>
<text text-anchor="start" x="451.5" y="-341.8" font-family="Arial" font-size="14.00">&#45; node_cmd(&amp;self) &#45;&gt; Result&lt;NodeCmd&gt;</text>
<text text-anchor="start" x="451.5" y="-326.8" font-family="Arial" font-size="14.00">&#45; rust_log(&amp;self) &#45;&gt; Cow&lt;&#39;_, str&gt;</text>
<polygon fill="none" stroke="black" points="439.5,-311 439.5,-499 725.5,-499 725.5,-311 439.5,-311"/>
</g>
<!-- ndCommonArgs&#45;&gt;ndLaunch -->
<g id="edge1" class="edge"><title>ndCommonArgs&#45;&gt;ndLaunch</title>
<path fill="none" stroke="black" d="M517.371,-306.67C511.838,-298.402 506.172,-289.934 500.464,-281.404"/>
<polygon fill="black" stroke="black" points="500.424,-281.345 493.763,-278.583 493.751,-271.372 500.412,-274.134 500.424,-281.345"/>
</g>
<!-- ndCommonArgs&#45;&gt;ndJoin -->
<g id="edge2" class="edge"><title>ndCommonArgs&#45;&gt;ndJoin</title>
<path fill="none" stroke="black" d="M733.587,-322.611C761.333,-306.308 789.671,-288.72 815.5,-271 822.519,-266.185 829.61,-261.147 836.704,-255.967"/>
<polygon fill="black" stroke="black" points="836.723,-255.953 839.17,-249.17 846.373,-248.821 843.925,-255.604 836.723,-255.953"/>
</g>
<!-- ndNodeCmd -->
<g id="node4" class="node"><title>ndNodeCmd</title>
<polygon fill="lightblue" stroke="none" points="140.5,-737.5 140.5,-774.5 844.5,-774.5 844.5,-737.5 140.5,-737.5"/>
<polygon fill="none" stroke="black" points="140.5,-737.5 140.5,-774.5 844.5,-774.5 844.5,-737.5 140.5,-737.5"/>
<text text-anchor="start" x="458" y="-753.3" font-family="Arial" font-weight="bold" font-size="14.00">NodeCmd</text>
<polygon fill="white" stroke="none" points="140.5,-670.5 140.5,-737.5 844.5,-737.5 844.5,-670.5 140.5,-670.5"/>
<polygon fill="none" stroke="black" points="140.5,-670.5 140.5,-737.5 844.5,-737.5 844.5,-670.5 140.5,-670.5"/>
<text text-anchor="start" x="151.5" y="-715.3" font-family="Arial" font-size="14.00">&#45; path: Cow&lt;&#39;a, OsStr&gt;</text>
<text text-anchor="start" x="151.5" y="-700.3" font-family="Arial" font-size="14.00">&#45; envs: Vec&lt;(Cow&lt;&#39;a, OsStr&gt;, Cow&lt;&#39;a, OsStr&gt;)&gt;</text>
<text text-anchor="start" x="151.5" y="-685.3" font-family="Arial" font-size="14.00">&#45; args: NodeArgs&lt;&#39;a&gt;</text>
<polygon fill="white" stroke="none" points="140.5,-543.5 140.5,-670.5 844.5,-670.5 844.5,-543.5 140.5,-543.5"/>
<polygon fill="none" stroke="black" points="140.5,-543.5 140.5,-670.5 844.5,-670.5 844.5,-543.5 140.5,-543.5"/>
<text text-anchor="start" x="151.5" y="-648.3" font-family="Arial" font-size="14.00">&#45; new(path: P) &#45;&gt; Self</text>
<text text-anchor="start" x="151.5" y="-633.3" font-family="Arial" font-size="14.00">&#45; path(&amp;self) &#45;&gt; &amp;Path</text>
<text text-anchor="start" x="151.5" y="-618.3" font-family="Arial" font-size="14.00">&#45; args(&amp;self) &#45;&gt; &amp;NodeArgs</text>
<text text-anchor="start" x="151.5" y="-603.3" font-family="Arial" font-size="14.00">&#45; push_env(&amp;mut self, key: K, value: V)</text>
<text text-anchor="start" x="151.5" y="-588.3" font-family="Arial" font-size="14.00">&#45; push_arg(&amp;mut self, arg: A)</text>
<text text-anchor="start" x="151.5" y="-573.3" font-family="Arial" font-size="14.00">&#45; version(&amp;self) &#45;&gt; Result&lt;String&gt;</text>
<text text-anchor="start" x="151.5" y="-558.3" font-family="Arial" font-size="14.00">&#45; run(&amp;self, node_dir: impl AsRef&lt;Path&gt;, contacts: &amp;[SocketAddr], genesis_key: Option&lt;&amp;str&gt;) &#45;&gt; Result&lt;()&gt;</text>
<polygon fill="none" stroke="black" points="139.5,-543 139.5,-776 845.5,-776 845.5,-543 139.5,-543"/>
</g>
<!-- ndNodeCmd&#45;&gt;ndLaunch -->
<g id="edge3" class="edge"><title>ndNodeCmd&#45;&gt;ndLaunch</title>
<path fill="none" stroke="black" stroke-dasharray="5,2" d="M433.352,-538.653C429.09,-526.805 425.355,-514.798 422.5,-503 405.184,-431.433 399.63,-349.791 398.747,-281.756"/>
<polygon fill="black" stroke="black" points="398.647,-271.389 403.244,-281.345 398.696,-276.388 398.744,-281.388 398.744,-281.388 398.744,-281.388 398.696,-276.388 394.244,-281.432 398.647,-271.389 398.647,-271.389"/>
</g>
<!-- ndNodeCmd&#45;&gt;ndCommonArgs -->
<g id="edge4" class="edge"><title>ndNodeCmd&#45;&gt;ndCommonArgs</title>
<path fill="none" stroke="black" d="M535.128,-538.905C538.231,-530.199 541.349,-521.451 544.423,-512.827"/>
<polygon fill="black" stroke="black" points="547.872,-503.152 548.753,-514.082 546.193,-507.862 544.514,-512.571 544.514,-512.571 544.514,-512.571 546.193,-507.862 540.275,-511.061 547.872,-503.152 547.872,-503.152"/>
</g>
</g>
</svg>
