<?xml version="1.0" encoding="UTF-8" standalone="no"?>
<!DOCTYPE svg PUBLIC "-//W3C//DTD SVG 1.1//EN"
 "http://www.w3.org/Graphics/SVG/1.1/DTD/svg11.dtd">
<!-- Generated by graphviz version 2.38.0 (20140413.2041)
 -->
<!-- Title: ml Pages: 1 -->
<svg width="640pt" height="647pt"
 viewBox="0.00 0.00 640.00 647.00" xmlns="http://www.w3.org/2000/svg" xmlns:xlink="http://www.w3.org/1999/xlink">
<g id="graph0" class="graph" transform="scale(1 1) rotate(0) translate(4 643)">
<title>ml</title>
<polygon fill="white" stroke="none" points="-4,4 -4,-643 636,-643 636,4 -4,4"/>
<!-- ndLaunch -->
<g id="node1" class="node"><title>ndLaunch</title>
<g id="a_node1_0"><a xlink:href="https://github.com/maidsafe/sn_launch_tool/blob/master/src/lib.rs#:~:text=struct%20Launch" xlink:title="&lt;TABLE&gt;">
<polygon fill="lightblue" stroke="none" points="9.5,-146.5 9.5,-183.5 294.5,-183.5 294.5,-146.5 9.5,-146.5"/>
<polygon fill="none" stroke="black" points="9.5,-146.5 9.5,-183.5 294.5,-183.5 294.5,-146.5 9.5,-146.5"/>
<text text-anchor="start" x="125.5" y="-162.3" font-family="Arial" font-weight="bold" font-size="14.00">Launch</text>
<polygon fill="white" stroke="none" points="9.5,-4.5 9.5,-146.5 294.5,-146.5 294.5,-4.5 9.5,-4.5"/>
<polygon fill="none" stroke="black" points="9.5,-4.5 9.5,-146.5 294.5,-146.5 294.5,-4.5 9.5,-4.5"/>
<text text-anchor="start" x="20.5" y="-124.3" font-family="Arial" font-size="14.00">&#45; common: CommonArgs</text>
<text text-anchor="start" x="20.5" y="-109.3" font-family="Arial" font-size="14.00">&#45; interval: u64</text>
<text text-anchor="start" x="20.5" y="-94.3" font-family="Arial" font-size="14.00">&#45; idle_timeout_msec: u64</text>
<text text-anchor="start" x="20.5" y="-79.3" font-family="Arial" font-size="14.00">&#45; keep_alive_interval_msec: Option&lt;u64&gt;</text>
<text text-anchor="start" x="20.5" y="-64.3" font-family="Arial" font-size="14.00">&#45; nodes_dir: PathBuf</text>
<text text-anchor="start" x="20.5" y="-49.3" font-family="Arial" font-size="14.00">&#45; num_nodes: usize</text>
<text text-anchor="start" x="20.5" y="-34.3" font-family="Arial" font-size="14.00">&#45; ip: Option&lt;String&gt;</text>
<text text-anchor="start" x="20.5" y="-19.3" font-family="Arial" font-size="14.00">&#45; add_nodes_to_existing_network: bool</text>
<polygon fill="none" stroke="black" points="8,-4 8,-185 295,-185 295,-4 8,-4"/>
</a>
</g>
</g>
<!-- ndJoin -->
<g id="node2" class="node"><title>ndJoin</title>
<g id="a_node2_1"><a xlink:href="https://github.com/maidsafe/sn_launch_tool/blob/master/src/lib.rs#:~:text=struct%20Join" xlink:title="&lt;TABLE&gt;">
<polygon fill="lightblue" stroke="none" points="330.5,-146.5 330.5,-183.5 623.5,-183.5 623.5,-146.5 330.5,-146.5"/>
<polygon fill="none" stroke="black" points="330.5,-146.5 330.5,-183.5 623.5,-183.5 623.5,-146.5 330.5,-146.5"/>
<text text-anchor="start" x="461.5" y="-162.3" font-family="Arial" font-weight="bold" font-size="14.00">Join</text>
<polygon fill="white" stroke="none" points="330.5,-4.5 330.5,-146.5 623.5,-146.5 623.5,-4.5 330.5,-4.5"/>
<polygon fill="none" stroke="black" points="330.5,-4.5 330.5,-146.5 623.5,-146.5 623.5,-4.5 330.5,-4.5"/>
<text text-anchor="start" x="341.5" y="-124.3" font-family="Arial" font-size="14.00">&#45; common: CommonArgs</text>
<text text-anchor="start" x="341.5" y="-109.3" font-family="Arial" font-size="14.00">&#45; nodes_dir: PathBuf</text>
<text text-anchor="start" x="341.5" y="-94.3" font-family="Arial" font-size="14.00">&#45; max_capacity: Option&lt;u64&gt;</text>
<text text-anchor="start" x="341.5" y="-79.3" font-family="Arial" font-size="14.00">&#45; hard_coded_contacts: Vec&lt;SocketAddr&gt;</text>
<text text-anchor="start" x="341.5" y="-64.3" font-family="Arial" font-size="14.00">&#45; genesis_key: String</text>
<text text-anchor="start" x="341.5" y="-49.3" font-family="Arial" font-size="14.00">&#45; local_addr: Option&lt;SocketAddr&gt;</text>
<text text-anchor="start" x="341.5" y="-34.3" font-family="Arial" font-size="14.00">&#45; public_addr: Option&lt;SocketAddr&gt;</text>
<text text-anchor="start" x="341.5" y="-19.3" font-family="Arial" font-size="14.00">&#45; clear_data: bool</text>
<polygon fill="none" stroke="black" points="329,-4 329,-185 624,-185 624,-4 329,-4"/>
</a>
</g>
</g>
<!-- ndCommonArgs -->
<g id="node3" class="node"><title>ndCommonArgs</title>
<g id="a_node3_2"><a xlink:href="https://github.com/maidsafe/sn_launch_tool/blob/master/src/lib.rs#:~:text=struct%20CommonArgs" xlink:title="&lt;TABLE&gt;">
<polygon fill="lightblue" stroke="none" points="189.5,-327 189.5,-364 404.5,-364 404.5,-327 189.5,-327"/>
<polygon fill="none" stroke="black" points="189.5,-327 189.5,-364 404.5,-364 404.5,-327 189.5,-327"/>
<text text-anchor="start" x="248.5" y="-342.8" font-family="Arial" font-weight="bold" font-size="14.00">CommonArgs</text>
<polygon fill="white" stroke="none" points="189.5,-230 189.5,-327 404.5,-327 404.5,-230 189.5,-230"/>
<polygon fill="none" stroke="black" points="189.5,-230 189.5,-327 404.5,-327 404.5,-230 189.5,-230"/>
<text text-anchor="start" x="200.5" y="-304.8" font-family="Arial" font-size="14.00">&#45; node_path: Option&lt;PathBuf&gt;</text>
<text text-anchor="start" x="200.5" y="-289.8" font-family="Arial" font-size="14.00">&#45; nodes_verbosity: u8</text>
<text text-anchor="start" x="200.5" y="-274.8" font-family="Arial" font-size="14.00">&#45; rust_log: Option&lt;String&gt;</text>
<text text-anchor="start" x="200.5" y="-259.8" font-family="Arial" font-size="14.00">&#45; json_logs: bool</text>
<text text-anchor="start" x="200.5" y="-244.8" font-family="Arial" font-size="14.00">&#45; is_local: bool</text>
<polygon fill="none" stroke="black" points="188,-229 188,-365 405,-365 405,-229 188,-229"/>
</a>
</g>
</g>
<!-- ndCommonArgs&#45;&gt;ndLaunch -->
<g id="edge1" class="edge"><title>ndCommonArgs&#45;&gt;ndLaunch</title>
<path fill="none" stroke="black" d="M244.97,-224.747C238.938,-216.405 232.693,-207.77 226.424,-199.102"/>
<polygon fill="black" stroke="black" points="226.379,-199.039 219.621,-196.521 219.347,-189.315 226.104,-191.833 226.379,-199.039"/>
</g>
<!-- ndCommonArgs&#45;&gt;ndJoin -->
<g id="edge2" class="edge"><title>ndCommonArgs&#45;&gt;ndJoin</title>
<path fill="none" stroke="black" d="M360.468,-224.747C368.198,-216.136 376.209,-207.213 384.244,-198.263"/>
<polygon fill="black" stroke="black" points="384.26,-198.245 385.292,-191.108 392.277,-189.315 391.245,-196.452 384.26,-198.245"/>
</g>
<!-- ndNodeCmd -->
<g id="node4" class="node"><title>ndNodeCmd</title>
<g id="a_node4_3"><a xlink:href="https://github.com/maidsafe/sn_launch_tool/blob/master/src/cmd.rs#:~:text=struct%20NodeCmd" xlink:title="&lt;TABLE&gt;">
<polygon fill="lightblue" stroke="none" points="60.5,-477 60.5,-514 386.5,-514 386.5,-477 60.5,-477"/>
<polygon fill="none" stroke="black" points="60.5,-477 60.5,-514 386.5,-514 386.5,-477 60.5,-477"/>
<text text-anchor="start" x="189" y="-492.8" font-family="Arial" font-weight="bold" font-size="14.00">NodeCmd</text>
<polygon fill="white" stroke="none" points="60.5,-410 60.5,-477 386.5,-477 386.5,-410 60.5,-410"/>
<polygon fill="none" stroke="black" points="60.5,-410 60.5,-477 386.5,-477 386.5,-410 60.5,-410"/>
<text text-anchor="start" x="71.5" y="-454.8" font-family="Arial" font-size="14.00">&#45; path: Cow&lt;&#39;a, OsStr&gt;</text>
<text text-anchor="start" x="71.5" y="-439.8" font-family="Arial" font-size="14.00">&#45; envs: Vec&lt;(Cow&lt;&#39;a, OsStr&gt;, Cow&lt;&#39;a, OsStr&gt;)&gt;</text>
<text text-anchor="start" x="71.5" y="-424.8" font-family="Arial" font-size="14.00">&#45; args: NodeArgs&lt;&#39;a&gt;</text>
<polygon fill="none" stroke="black" points="59.5,-409 59.5,-515 387.5,-515 387.5,-409 59.5,-409"/>
</a>
</g>
</g>
<!-- ndNodeCmd&#45;&gt;ndLaunch -->
<g id="edge3" class="edge"><title>ndNodeCmd&#45;&gt;ndLaunch</title>
<path fill="none" stroke="black" stroke-dasharray="5,2" d="M185.914,-404.922C179.771,-393.457 174.21,-381.166 170.5,-369 153.904,-314.581 148.664,-251.354 147.793,-199.408"/>
<polygon fill="black" stroke="black" points="147.675,-189.175 152.29,-199.123 147.733,-194.175 147.79,-199.175 147.79,-199.175 147.79,-199.175 147.733,-194.175 143.291,-199.226 147.675,-189.175 147.675,-189.175"/>
</g>
<!-- ndNodeCmd&#45;&gt;ndCommonArgs -->
<g id="edge4" class="edge"><title>ndNodeCmd&#45;&gt;ndCommonArgs</title>
<path fill="none" stroke="black" d="M248.622,-404.905C252.449,-396.361 256.46,-387.404 260.464,-378.463"/>
<polygon fill="black" stroke="black" points="264.626,-369.17 264.646,-380.136 262.583,-373.733 260.539,-378.297 260.539,-378.297 260.539,-378.297 262.583,-373.733 256.432,-376.457 264.626,-369.17 264.626,-369.17"/>
</g>
<!-- ndNodeArgs -->
<g id="node5" class="node"><title>ndNodeArgs</title>
<g id="a_node5_4"><a xlink:href="https://github.com/maidsafe/sn_launch_tool/blob/master/src/cmd.rs#:~:text=struct%20NodeArgs" xlink:title="&lt;TABLE&gt;">
<polygon fill="lightblue" stroke="none" points="137.5,-597 137.5,-634 309.5,-634 309.5,-597 137.5,-597"/>
<polygon fill="none" stroke="black" points="137.5,-597 137.5,-634 309.5,-634 309.5,-597 137.5,-597"/>
<text text-anchor="start" x="188.5" y="-612.8" font-family="Arial" font-weight="bold" font-size="14.00">NodeArgs</text>
<polygon fill="white" stroke="none" points="137.5,-560 137.5,-597 309.5,-597 309.5,-560 137.5,-560"/>
<polygon fill="none" stroke="black" points="137.5,-560 137.5,-597 309.5,-597 309.5,-560 137.5,-560"/>
<text text-anchor="start" x="148.5" y="-574.8" font-family="Arial" font-size="14.00">&#45; Vec&lt;Cow&lt;&#39;a, OsStr&gt;&gt;</text>
<polygon fill="none" stroke="black" points="136.5,-559 136.5,-635 310.5,-635 310.5,-559 136.5,-559"/>
</a>
</g>
</g>
<!-- ndNodeArgs&#45;&gt;ndNodeCmd -->
<g id="edge5" class="edge"><title>ndNodeArgs&#45;&gt;ndNodeCmd</title>
<path fill="none" stroke="black" d="M223.5,-554.647C223.5,-547.341 223.5,-539.56 223.5,-531.737"/>
<polygon fill="black" stroke="black" points="223.5,-531.473 219.5,-525.473 223.5,-519.473 227.5,-525.473 223.5,-531.473"/>
</g>
</g>
</svg>
