<?xml version="1.0" encoding="UTF-8" standalone="no"?>
<!DOCTYPE svg PUBLIC "-//W3C//DTD SVG 1.1//EN"
 "http://www.w3.org/Graphics/SVG/1.1/DTD/svg11.dtd">
<!-- Generated by graphviz version 2.38.0 (20140413.2041)
 -->
<!-- Title: ml Pages: 1 -->
<svg width="640pt" height="662pt"
 viewBox="0.00 0.00 640.00 662.00" xmlns="http://www.w3.org/2000/svg" xmlns:xlink="http://www.w3.org/1999/xlink">
<g id="graph0" class="graph" transform="scale(1 1) rotate(0) translate(4 658)">
<title>ml</title>
<polygon fill="white" stroke="none" points="-4,4 -4,-658 636,-658 636,4 -4,4"/>
<!-- ndLaunch -->
<g id="node1" class="node"><title>ndLaunch</title>
<g id="a_node1_0"><a xlink:href="https://github.com/maidsafe/sn_launch_tool/blob/master/src/lib.rs#:~:text=struct%20Launch" xlink:title="&lt;TABLE&gt;">
<polygon fill="lightblue" stroke="none" points="9.5,-154 9.5,-191 294.5,-191 294.5,-154 9.5,-154"/>
<polygon fill="none" stroke="black" points="9.5,-154 9.5,-191 294.5,-191 294.5,-154 9.5,-154"/>
<text text-anchor="start" x="125.5" y="-169.8" font-family="Arial" font-weight="bold" font-size="14.00">Launch</text>
<polygon fill="white" stroke="none" points="9.5,-12 9.5,-154 294.5,-154 294.5,-12 9.5,-12"/>
<polygon fill="none" stroke="black" points="9.5,-12 9.5,-154 294.5,-154 294.5,-12 9.5,-12"/>
<text text-anchor="start" x="20.5" y="-131.8" font-family="Arial" font-size="14.00">&#45; common: CommonArgs</text>
<text text-anchor="start" x="20.5" y="-116.8" font-family="Arial" font-size="14.00">&#45; interval: u64</text>
<text text-anchor="start" x="20.5" y="-101.8" font-family="Arial" font-size="14.00">&#45; idle_timeout_msec: u64</text>
<text text-anchor="start" x="20.5" y="-86.8" font-family="Arial" font-size="14.00">&#45; keep_alive_interval_msec: Option&lt;u64&gt;</text>
<text text-anchor="start" x="20.5" y="-71.8" font-family="Arial" font-size="14.00">&#45; nodes_dir: PathBuf</text>
<text text-anchor="start" x="20.5" y="-56.8" font-family="Arial" font-size="14.00">&#45; num_nodes: usize</text>
<text text-anchor="start" x="20.5" y="-41.8" font-family="Arial" font-size="14.00">&#45; ip: Option&lt;String&gt;</text>
<text text-anchor="start" x="20.5" y="-26.8" font-family="Arial" font-size="14.00">&#45; add_nodes_to_existing_network: bool</text>
<polygon fill="none" stroke="black" points="8,-11.5 8,-192.5 295,-192.5 295,-11.5 8,-11.5"/>
</a>
</g>
</g>
<!-- ndJoin -->
<g id="node2" class="node"><title>ndJoin</title>
<g id="a_node2_1"><a xlink:href="https://github.com/maidsafe/sn_launch_tool/blob/master/src/lib.rs#:~:text=struct%20Join" xlink:title="&lt;TABLE&gt;">
<polygon fill="lightblue" stroke="none" points="330.5,-162 330.5,-199 623.5,-199 623.5,-162 330.5,-162"/>
<polygon fill="none" stroke="black" points="330.5,-162 330.5,-199 623.5,-199 623.5,-162 330.5,-162"/>
<text text-anchor="start" x="461.5" y="-177.8" font-family="Arial" font-weight="bold" font-size="14.00">Join</text>
<polygon fill="white" stroke="none" points="330.5,-5 330.5,-162 623.5,-162 623.5,-5 330.5,-5"/>
<polygon fill="none" stroke="black" points="330.5,-5 330.5,-162 623.5,-162 623.5,-5 330.5,-5"/>
<text text-anchor="start" x="341.5" y="-139.8" font-family="Arial" font-size="14.00">&#45; common: CommonArgs</text>
<text text-anchor="start" x="341.5" y="-124.8" font-family="Arial" font-size="14.00">&#45; nodes_dir: PathBuf</text>
<text text-anchor="start" x="341.5" y="-109.8" font-family="Arial" font-size="14.00">&#45; max_capacity: Option&lt;u64&gt;</text>
<text text-anchor="start" x="341.5" y="-94.8" font-family="Arial" font-size="14.00">&#45; hard_coded_contacts: Vec&lt;SocketAddr&gt;</text>
<text text-anchor="start" x="341.5" y="-79.8" font-family="Arial" font-size="14.00">&#45; genesis_key: String</text>
<text text-anchor="start" x="341.5" y="-64.8" font-family="Arial" font-size="14.00">&#45; local_addr: Option&lt;SocketAddr&gt;</text>
<text text-anchor="start" x="341.5" y="-49.8" font-family="Arial" font-size="14.00">&#45; public_addr: Option&lt;SocketAddr&gt;</text>
<text text-anchor="start" x="341.5" y="-34.8" font-family="Arial" font-size="14.00">&#45; clear_data: bool</text>
<text text-anchor="start" x="341.5" y="-19.8" font-family="Arial" font-size="14.00">&#45; skip_auto_port_forwarding: bool</text>
<polygon fill="none" stroke="black" points="329,-4 329,-200 624,-200 624,-4 329,-4"/>
</a>
</g>
</g>
<!-- ndCommonArgs -->
<g id="node3" class="node"><title>ndCommonArgs</title>
<g id="a_node3_2"><a xlink:href="https://github.com/maidsafe/sn_launch_tool/blob/master/src/lib.rs#:~:text=struct%20CommonArgs" xlink:title="&lt;TABLE&gt;">
<polygon fill="lightblue" stroke="none" points="189.5,-342 189.5,-379 404.5,-379 404.5,-342 189.5,-342"/>
<polygon fill="none" stroke="black" points="189.5,-342 189.5,-379 404.5,-379 404.5,-342 189.5,-342"/>
<text text-anchor="start" x="248.5" y="-357.8" font-family="Arial" font-weight="bold" font-size="14.00">CommonArgs</text>
<polygon fill="white" stroke="none" points="189.5,-245 189.5,-342 404.5,-342 404.5,-245 189.5,-245"/>
<polygon fill="none" stroke="black" points="189.5,-245 189.5,-342 404.5,-342 404.5,-245 189.5,-245"/>
<text text-anchor="start" x="200.5" y="-319.8" font-family="Arial" font-size="14.00">&#45; node_path: Option&lt;PathBuf&gt;</text>
<text text-anchor="start" x="200.5" y="-304.8" font-family="Arial" font-size="14.00">&#45; nodes_verbosity: u8</text>
<text text-anchor="start" x="200.5" y="-289.8" font-family="Arial" font-size="14.00">&#45; rust_log: Option&lt;String&gt;</text>
<text text-anchor="start" x="200.5" y="-274.8" font-family="Arial" font-size="14.00">&#45; json_logs: bool</text>
<text text-anchor="start" x="200.5" y="-259.8" font-family="Arial" font-size="14.00">&#45; is_local: bool</text>
<polygon fill="none" stroke="black" points="188,-244 188,-380 405,-380 405,-244 188,-244"/>
</a>
</g>
</g>
<!-- ndCommonArgs&#45;&gt;ndLaunch -->
<g id="edge1" class="edge"><title>ndCommonArgs&#45;&gt;ndLaunch</title>
<path fill="none" stroke="black" d="M247.005,-240C239.517,-229.259 231.664,-217.994 223.814,-206.734"/>
<polygon fill="black" stroke="black" points="223.789,-206.697 217.076,-204.062 216.926,-196.853 223.639,-199.487 223.789,-206.697"/>
</g>
<!-- ndCommonArgs&#45;&gt;ndJoin -->
<g id="edge2" class="edge"><title>ndCommonArgs&#45;&gt;ndJoin</title>
<path fill="none" stroke="black" d="M357.942,-240C365.35,-231.44 373.046,-222.547 380.798,-213.589"/>
<polygon fill="black" stroke="black" points="381.035,-213.315 381.936,-206.161 388.887,-204.241 387.986,-211.396 381.035,-213.315"/>
</g>
<!-- ndNodeCmd -->
<g id="node4" class="node"><title>ndNodeCmd</title>
<g id="a_node4_3"><a xlink:href="https://github.com/maidsafe/sn_launch_tool/blob/master/src/cmd.rs#:~:text=struct%20NodeCmd" xlink:title="&lt;TABLE&gt;">
<polygon fill="lightblue" stroke="none" points="60.5,-492 60.5,-529 386.5,-529 386.5,-492 60.5,-492"/>
<polygon fill="none" stroke="black" points="60.5,-492 60.5,-529 386.5,-529 386.5,-492 60.5,-492"/>
<text text-anchor="start" x="189" y="-507.8" font-family="Arial" font-weight="bold" font-size="14.00">NodeCmd</text>
<polygon fill="white" stroke="none" points="60.5,-425 60.5,-492 386.5,-492 386.5,-425 60.5,-425"/>
<polygon fill="none" stroke="black" points="60.5,-425 60.5,-492 386.5,-492 386.5,-425 60.5,-425"/>
<text text-anchor="start" x="71.5" y="-469.8" font-family="Arial" font-size="14.00">&#45; path: Cow&lt;&#39;a, OsStr&gt;</text>
<text text-anchor="start" x="71.5" y="-454.8" font-family="Arial" font-size="14.00">&#45; envs: Vec&lt;(Cow&lt;&#39;a, OsStr&gt;, Cow&lt;&#39;a, OsStr&gt;)&gt;</text>
<text text-anchor="start" x="71.5" y="-439.8" font-family="Arial" font-size="14.00">&#45; args: NodeArgs&lt;&#39;a&gt;</text>
<polygon fill="none" stroke="black" points="59.5,-424 59.5,-530 387.5,-530 387.5,-424 59.5,-424"/>
</a>
</g>
</g>
<!-- ndNodeCmd&#45;&gt;ndLaunch -->
<g id="edge3" class="edge"><title>ndNodeCmd&#45;&gt;ndLaunch</title>
<path fill="none" stroke="black" stroke-dasharray="5,2" d="M185.896,-419.927C179.754,-408.462 174.199,-396.169 170.5,-384 153.2,-327.084 148.052,-260.803 147.413,-206.911"/>
<polygon fill="black" stroke="black" points="147.344,-196.651 151.911,-206.621 147.378,-201.651 147.412,-206.651 147.412,-206.651 147.412,-206.651 147.378,-201.651 142.912,-206.682 147.344,-196.651 147.344,-196.651"/>
</g>
<!-- ndNodeCmd&#45;&gt;ndCommonArgs -->
<g id="edge4" class="edge"><title>ndNodeCmd&#45;&gt;ndCommonArgs</title>
<path fill="none" stroke="black" d="M248.622,-419.905C252.449,-411.361 256.46,-402.404 260.464,-393.463"/>
<polygon fill="black" stroke="black" points="264.626,-384.17 264.646,-395.136 262.583,-388.733 260.539,-393.297 260.539,-393.297 260.539,-393.297 262.583,-388.733 256.432,-391.457 264.626,-384.17 264.626,-384.17"/>
</g>
<!-- ndNodeArgs -->
<g id="node5" class="node"><title>ndNodeArgs</title>
<g id="a_node5_4"><a xlink:href="https://github.com/maidsafe/sn_launch_tool/blob/master/src/cmd.rs#:~:text=struct%20NodeArgs" xlink:title="&lt;TABLE&gt;">
<polygon fill="lightblue" stroke="none" points="137.5,-612 137.5,-649 309.5,-649 309.5,-612 137.5,-612"/>
<polygon fill="none" stroke="black" points="137.5,-612 137.5,-649 309.5,-649 309.5,-612 137.5,-612"/>
<text text-anchor="start" x="188.5" y="-627.8" font-family="Arial" font-weight="bold" font-size="14.00">NodeArgs</text>
<polygon fill="white" stroke="none" points="137.5,-575 137.5,-612 309.5,-612 309.5,-575 137.5,-575"/>
<polygon fill="none" stroke="black" points="137.5,-575 137.5,-612 309.5,-612 309.5,-575 137.5,-575"/>
<text text-anchor="start" x="148.5" y="-589.8" font-family="Arial" font-size="14.00">&#45; Vec&lt;Cow&lt;&#39;a, OsStr&gt;&gt;</text>
<polygon fill="none" stroke="black" points="136.5,-574 136.5,-650 310.5,-650 310.5,-574 136.5,-574"/>
</a>
</g>
</g>
<!-- ndNodeArgs&#45;&gt;ndNodeCmd -->
<g id="edge5" class="edge"><title>ndNodeArgs&#45;&gt;ndNodeCmd</title>
<path fill="none" stroke="black" d="M223.5,-569.647C223.5,-562.341 223.5,-554.56 223.5,-546.737"/>
<polygon fill="black" stroke="black" points="223.5,-546.473 219.5,-540.473 223.5,-534.473 227.5,-540.473 223.5,-546.473"/>
</g>
</g>
</svg>
