<?xml version="1.0" encoding="UTF-8" standalone="no"?>
<!DOCTYPE svg PUBLIC "-//W3C//DTD SVG 1.1//EN"
 "http://www.w3.org/Graphics/SVG/1.1/DTD/svg11.dtd">
<!-- Generated by graphviz version 2.38.0 (20140413.2041)
 -->
<!-- Title: ml Pages: 1 -->
<svg width="640pt" height="692pt"
 viewBox="0.00 0.00 640.00 692.00" xmlns="http://www.w3.org/2000/svg" xmlns:xlink="http://www.w3.org/1999/xlink">
<g id="graph0" class="graph" transform="scale(1 1) rotate(0) translate(4 688)">
<title>ml</title>
<polygon fill="white" stroke="none" points="-4,4 -4,-688 636,-688 636,4 -4,4"/>
<!-- ndLaunch -->
<g id="node1" class="node"><title>ndLaunch</title>
<g id="a_node1_0"><a xlink:href="https://github.com/maidsafe/sn_launch_tool/blob/master/src/lib.rs#:~:text=struct%20Launch" xlink:title="&lt;TABLE&gt;">
<polygon fill="lightblue" stroke="none" points="9.5,-154 9.5,-191 294.5,-191 294.5,-154 9.5,-154"/>
<polygon fill="none" stroke="black" points="9.5,-154 9.5,-191 294.5,-191 294.5,-154 9.5,-154"/>
<text text-anchor="start" x="125.5" y="-169.8" font-family="Arial" font-weight="bold" font-size="14.00">Launch</text>
<polygon fill="white" stroke="none" points="9.5,-12 9.5,-154 294.5,-154 294.5,-12 9.5,-12"/>
<polygon fill="none" stroke="black" points="9.5,-12 9.5,-154 294.5,-154 294.5,-12 9.5,-12"/>
<text text-anchor="start" x="20.5" y="-131.8" font-family="Arial" font-size="14.00">&#45; common: CommonArgs</text>
<text text-anchor="start" x="20.5" y="-116.8" font-family="Arial" font-size="14.00">&#45; interval: u64</text>
<text text-anchor="start" x="20.5" y="-101.8" font-family="Arial" font-size="14.00">&#45; idle_timeout_msec: Option&lt;u64&gt;</text>
<text text-anchor="start" x="20.5" y="-86.8" font-family="Arial" font-size="14.00">&#45; keep_alive_interval_msec: Option&lt;u64&gt;</text>
<text text-anchor="start" x="20.5" y="-71.8" font-family="Arial" font-size="14.00">&#45; nodes_dir: PathBuf</text>
<text text-anchor="start" x="20.5" y="-56.8" font-family="Arial" font-size="14.00">&#45; num_nodes: usize</text>
<text text-anchor="start" x="20.5" y="-41.8" font-family="Arial" font-size="14.00">&#45; ip: Option&lt;String&gt;</text>
<text text-anchor="start" x="20.5" y="-26.8" font-family="Arial" font-size="14.00">&#45; add_nodes_to_existing_network: bool</text>
<polygon fill="none" stroke="black" points="8,-11.5 8,-192.5 295,-192.5 295,-11.5 8,-11.5"/>
</a>
</g>
</g>
<!-- ndJoin -->
<g id="node2" class="node"><title>ndJoin</title>
<g id="a_node2_1"><a xlink:href="https://github.com/maidsafe/sn_launch_tool/blob/master/src/lib.rs#:~:text=struct%20Join" xlink:title="&lt;TABLE&gt;">
<polygon fill="lightblue" stroke="none" points="330.5,-162 330.5,-199 623.5,-199 623.5,-162 330.5,-162"/>
<polygon fill="none" stroke="black" points="330.5,-162 330.5,-199 623.5,-199 623.5,-162 330.5,-162"/>
<text text-anchor="start" x="461.5" y="-177.8" font-family="Arial" font-weight="bold" font-size="14.00">Join</text>
<polygon fill="white" stroke="none" points="330.5,-5 330.5,-162 623.5,-162 623.5,-5 330.5,-5"/>
<polygon fill="none" stroke="black" points="330.5,-5 330.5,-162 623.5,-162 623.5,-5 330.5,-5"/>
<text text-anchor="start" x="341.5" y="-139.8" font-family="Arial" font-size="14.00">&#45; common: CommonArgs</text>
<text text-anchor="start" x="341.5" y="-124.8" font-family="Arial" font-size="14.00">&#45; nodes_dir: PathBuf</text>
<text text-anchor="start" x="341.5" y="-109.8" font-family="Arial" font-size="14.00">&#45; max_capacity: Option&lt;u64&gt;</text>
<text text-anchor="start" x="341.5" y="-94.8" font-family="Arial" font-size="14.00">&#45; hard_coded_contacts: Vec&lt;SocketAddr&gt;</text>
<text text-anchor="start" x="341.5" y="-79.8" font-family="Arial" font-size="14.00">&#45; genesis_key: String</text>
<text text-anchor="start" x="341.5" y="-64.8" font-family="Arial" font-size="14.00">&#45; local_addr: Option&lt;SocketAddr&gt;</text>
<text text-anchor="start" x="341.5" y="-49.8" font-family="Arial" font-size="14.00">&#45; public_addr: Option&lt;SocketAddr&gt;</text>
<text text-anchor="start" x="341.5" y="-34.8" font-family="Arial" font-size="14.00">&#45; skip_auto_port_forwarding: bool</text>
<text text-anchor="start" x="341.5" y="-19.8" font-family="Arial" font-size="14.00">&#45; clear_data: bool</text>
<polygon fill="none" stroke="black" points="329,-4 329,-200 624,-200 624,-4 329,-4"/>
</a>
</g>
</g>
<!-- ndCommonArgs -->
<g id="node3" class="node"><title>ndCommonArgs</title>
<g id="a_node3_2"><a xlink:href="https://github.com/maidsafe/sn_launch_tool/blob/master/src/lib.rs#:~:text=struct%20CommonArgs" xlink:title="&lt;TABLE&gt;">
<polygon fill="lightblue" stroke="none" points="189.5,-356.5 189.5,-393.5 404.5,-393.5 404.5,-356.5 189.5,-356.5"/>
<polygon fill="none" stroke="black" points="189.5,-356.5 189.5,-393.5 404.5,-393.5 404.5,-356.5 189.5,-356.5"/>
<text text-anchor="start" x="248.5" y="-372.3" font-family="Arial" font-weight="bold" font-size="14.00">CommonArgs</text>
<polygon fill="white" stroke="none" points="189.5,-244.5 189.5,-356.5 404.5,-356.5 404.5,-244.5 189.5,-244.5"/>
<polygon fill="none" stroke="black" points="189.5,-244.5 189.5,-356.5 404.5,-356.5 404.5,-244.5 189.5,-244.5"/>
<text text-anchor="start" x="200.5" y="-334.3" font-family="Arial" font-size="14.00">&#45; node_path: Option&lt;PathBuf&gt;</text>
<text text-anchor="start" x="200.5" y="-319.3" font-family="Arial" font-size="14.00">&#45; nodes_verbosity: u8</text>
<text text-anchor="start" x="200.5" y="-304.3" font-family="Arial" font-size="14.00">&#45; rust_log: Option&lt;String&gt;</text>
<text text-anchor="start" x="200.5" y="-289.3" font-family="Arial" font-size="14.00">&#45; json_logs: bool</text>
<text text-anchor="start" x="200.5" y="-274.3" font-family="Arial" font-size="14.00">&#45; is_local: bool</text>
<text text-anchor="start" x="200.5" y="-259.3" font-family="Arial" font-size="14.00">&#45; flame: bool</text>
<polygon fill="none" stroke="black" points="188,-244 188,-395 405,-395 405,-244 188,-244"/>
</a>
</g>
</g>
<!-- ndCommonArgs&#45;&gt;ndLaunch -->
<g id="edge1" class="edge"><title>ndCommonArgs&#45;&gt;ndLaunch</title>
<path fill="none" stroke="black" d="M243.536,-239.785C236.289,-229.014 228.761,-217.826 221.271,-206.695"/>
<polygon fill="black" stroke="black" points="221.112,-206.458 214.444,-203.713 214.413,-196.502 221.082,-199.247 221.112,-206.458"/>
</g>
<!-- ndCommonArgs&#45;&gt;ndJoin -->
<g id="edge2" class="edge"><title>ndCommonArgs&#45;&gt;ndJoin</title>
<path fill="none" stroke="black" d="M362.248,-239.785C369.404,-231.218 376.78,-222.387 384.178,-213.53"/>
<polygon fill="black" stroke="black" points="384.193,-213.512 384.97,-206.343 391.886,-204.302 391.11,-211.471 384.193,-213.512"/>
</g>
<!-- ndNodeCmd -->
<g id="node4" class="node"><title>ndNodeCmd</title>
<g id="a_node4_3"><a xlink:href="https://github.com/maidsafe/sn_launch_tool/blob/master/src/cmd.rs#:~:text=struct%20NodeCmd" xlink:title="&lt;TABLE&gt;">
<polygon fill="lightblue" stroke="none" points="60.5,-521.5 60.5,-558.5 386.5,-558.5 386.5,-521.5 60.5,-521.5"/>
<polygon fill="none" stroke="black" points="60.5,-521.5 60.5,-558.5 386.5,-558.5 386.5,-521.5 60.5,-521.5"/>
<text text-anchor="start" x="189" y="-537.3" font-family="Arial" font-weight="bold" font-size="14.00">NodeCmd</text>
<polygon fill="white" stroke="none" points="60.5,-439.5 60.5,-521.5 386.5,-521.5 386.5,-439.5 60.5,-439.5"/>
<polygon fill="none" stroke="black" points="60.5,-439.5 60.5,-521.5 386.5,-521.5 386.5,-439.5 60.5,-439.5"/>
<text text-anchor="start" x="71.5" y="-499.3" font-family="Arial" font-size="14.00">&#45; path: Cow&lt;&#39;a, OsStr&gt;</text>
<text text-anchor="start" x="71.5" y="-484.3" font-family="Arial" font-size="14.00">&#45; envs: Vec&lt;(Cow&lt;&#39;a, OsStr&gt;, Cow&lt;&#39;a, OsStr&gt;)&gt;</text>
<text text-anchor="start" x="71.5" y="-469.3" font-family="Arial" font-size="14.00">&#45; args: NodeArgs&lt;&#39;a&gt;</text>
<text text-anchor="start" x="71.5" y="-454.3" font-family="Arial" font-size="14.00">&#45; flame: bool</text>
<polygon fill="none" stroke="black" points="59.5,-439 59.5,-560 387.5,-560 387.5,-439 59.5,-439"/>
</a>
</g>
</g>
<!-- ndNodeCmd&#45;&gt;ndLaunch -->
<g id="edge3" class="edge"><title>ndNodeCmd&#45;&gt;ndLaunch</title>
<path fill="none" stroke="black" stroke-dasharray="5,2" d="M184.557,-434.88C178.947,-423.293 173.923,-411.049 170.5,-399 152.846,-336.85 147.933,-264.52 147.512,-206.917"/>
<polygon fill="black" stroke="black" points="147.483,-196.706 152.012,-206.693 147.497,-201.706 147.512,-206.706 147.512,-206.706 147.512,-206.706 147.497,-201.706 143.012,-206.719 147.483,-196.706 147.483,-196.706"/>
</g>
<!-- ndNodeCmd&#45;&gt;ndCommonArgs -->
<g id="edge4" class="edge"><title>ndNodeCmd&#45;&gt;ndCommonArgs</title>
<path fill="none" stroke="black" d="M249.546,-434.992C253.071,-426.396 256.738,-417.454 260.4,-408.525"/>
<polygon fill="black" stroke="black" points="264.208,-399.239 264.577,-410.199 262.311,-403.865 260.414,-408.492 260.414,-408.492 260.414,-408.492 262.311,-403.865 256.25,-406.784 264.208,-399.239 264.208,-399.239"/>
</g>
<!-- ndNodeArgs -->
<g id="node5" class="node"><title>ndNodeArgs</title>
<g id="a_node5_4"><a xlink:href="https://github.com/maidsafe/sn_launch_tool/blob/master/src/cmd.rs#:~:text=struct%20NodeArgs" xlink:title="&lt;TABLE&gt;">
<polygon fill="lightblue" stroke="none" points="137.5,-642 137.5,-679 309.5,-679 309.5,-642 137.5,-642"/>
<polygon fill="none" stroke="black" points="137.5,-642 137.5,-679 309.5,-679 309.5,-642 137.5,-642"/>
<text text-anchor="start" x="188.5" y="-657.8" font-family="Arial" font-weight="bold" font-size="14.00">NodeArgs</text>
<polygon fill="white" stroke="none" points="137.5,-605 137.5,-642 309.5,-642 309.5,-605 137.5,-605"/>
<polygon fill="none" stroke="black" points="137.5,-605 137.5,-642 309.5,-642 309.5,-605 137.5,-605"/>
<text text-anchor="start" x="148.5" y="-619.8" font-family="Arial" font-size="14.00">&#45; Vec&lt;Cow&lt;&#39;a, OsStr&gt;&gt;</text>
<polygon fill="none" stroke="black" points="136.5,-604 136.5,-680 310.5,-680 310.5,-604 136.5,-604"/>
</a>
</g>
</g>
<!-- ndNodeArgs&#45;&gt;ndNodeCmd -->
<g id="edge5" class="edge"><title>ndNodeArgs&#45;&gt;ndNodeCmd</title>
<path fill="none" stroke="black" d="M223.5,-599.984C223.5,-592.42 223.5,-584.305 223.5,-576.092"/>
<polygon fill="black" stroke="black" points="223.5,-576.042 219.5,-570.042 223.5,-564.042 227.5,-570.042 223.5,-576.042"/>
</g>
</g>
</svg>
