<?xml version="1.0" encoding="UTF-8" standalone="no"?>
<!DOCTYPE svg PUBLIC "-//W3C//DTD SVG 1.1//EN"
 "http://www.w3.org/Graphics/SVG/1.1/DTD/svg11.dtd">
<!-- Generated by graphviz version 2.38.0 (20140413.2041)
 -->
<!-- Title: ml Pages: 1 -->
<svg width="220pt" height="221pt"
 viewBox="0.00 0.00 220.00 221.00" xmlns="http://www.w3.org/2000/svg" xmlns:xlink="http://www.w3.org/1999/xlink">
<g id="graph0" class="graph" transform="scale(1 1) rotate(0) translate(4 217)">
<title>ml</title>
<polygon fill="white" stroke="none" points="-4,4 -4,-217 216,-217 216,4 -4,4"/>
<!-- ndLaunch -->
<g id="node1" class="node"><title>ndLaunch</title>
<polygon fill="lightblue" stroke="none" points="9.5,-4.5 9.5,-41.5 84.5,-41.5 84.5,-4.5 9.5,-4.5"/>
<polygon fill="none" stroke="black" points="9.5,-4.5 9.5,-41.5 84.5,-41.5 84.5,-4.5 9.5,-4.5"/>
<text text-anchor="start" x="20.5" y="-20.3" font-family="Arial" font-weight="bold" font-size="14.00">Launch</text>
<polygon fill="none" stroke="black" points="8,-4 8,-43 85,-43 85,-4 8,-4"/>
</g>
<!-- ndJoin -->
<g id="node2" class="node"><title>ndJoin</title>
<polygon fill="lightblue" stroke="none" points="120.5,-4.5 120.5,-41.5 173.5,-41.5 173.5,-4.5 120.5,-4.5"/>
<polygon fill="none" stroke="black" points="120.5,-4.5 120.5,-41.5 173.5,-41.5 173.5,-4.5 120.5,-4.5"/>
<text text-anchor="start" x="131.5" y="-20.3" font-family="Arial" font-weight="bold" font-size="14.00">Join</text>
<polygon fill="none" stroke="black" points="119,-4 119,-43 174,-43 174,-4 119,-4"/>
</g>
<!-- ndCommonArgs -->
<g id="node3" class="node"><title>ndCommonArgs</title>
<polygon fill="lightblue" stroke="none" points="84.5,-87.5 84.5,-124.5 203.5,-124.5 203.5,-87.5 84.5,-87.5"/>
<polygon fill="none" stroke="black" points="84.5,-87.5 84.5,-124.5 203.5,-124.5 203.5,-87.5 84.5,-87.5"/>
<text text-anchor="start" x="95.5" y="-103.3" font-family="Arial" font-weight="bold" font-size="14.00">CommonArgs</text>
<polygon fill="none" stroke="black" points="83,-87 83,-126 204,-126 204,-87 83,-87"/>
</g>
<!-- ndCommonArgs&#45;&gt;ndLaunch -->
<g id="edge1" class="edge"><title>ndCommonArgs&#45;&gt;ndLaunch</title>
<path fill="none" stroke="black" d="M116.48,-82.937C106.161,-74.3201 94.2164,-64.3457 83.1488,-55.1036"/>
<polygon fill="black" stroke="black" points="82.9223,-54.9145 75.753,-54.139 73.7114,-47.2229 80.8807,-47.9984 82.9223,-54.9145"/>
</g>
<!-- ndCommonArgs&#45;&gt;ndJoin -->
<g id="edge2" class="edge"><title>ndCommonArgs&#45;&gt;ndJoin</title>
<path fill="none" stroke="black" d="M144.336,-82.937C144.606,-75.6257 144.913,-67.3371 145.209,-59.3477"/>
<polygon fill="black" stroke="black" points="145.214,-59.2147 141.439,-53.0708 145.658,-47.2229 149.434,-53.3669 145.214,-59.2147"/>
</g>
<!-- ndNodeCmd -->
<g id="node4" class="node"><title>ndNodeCmd</title>
<polygon fill="lightblue" stroke="none" points="49.5,-170.5 49.5,-207.5 140.5,-207.5 140.5,-170.5 49.5,-170.5"/>
<polygon fill="none" stroke="black" points="49.5,-170.5 49.5,-207.5 140.5,-207.5 140.5,-170.5 49.5,-170.5"/>
<text text-anchor="start" x="60.5" y="-186.3" font-family="Arial" font-weight="bold" font-size="14.00">NodeCmd</text>
<polygon fill="none" stroke="black" points="48,-170 48,-209 141,-209 141,-170 48,-170"/>
</g>
<!-- ndNodeCmd&#45;&gt;ndLaunch -->
<g id="edge3" class="edge"><title>ndNodeCmd&#45;&gt;ndLaunch</title>
<path fill="none" stroke="black" stroke-dasharray="5,2" d="M81.3737,-165.796C75.7496,-155.213 69.5553,-142.27 65.5,-130 57.6561,-106.267 52.8129,-78.3978 49.9809,-57.265"/>
<polygon fill="black" stroke="black" points="48.713,-47.1831 54.4257,-56.5434 49.3369,-52.144 49.9609,-57.1049 49.9609,-57.1049 49.9609,-57.1049 49.3369,-52.144 45.496,-57.6665 48.713,-47.1831 48.713,-47.1831"/>
</g>
<!-- ndNodeCmd&#45;&gt;ndCommonArgs -->
<g id="edge4" class="edge"><title>ndNodeCmd&#45;&gt;ndCommonArgs</title>
<path fill="none" stroke="black" d="M108.149,-165.937C113.204,-157.581 119.031,-147.949 124.477,-138.946"/>
<polygon fill="black" stroke="black" points="129.754,-130.223 128.428,-141.108 127.166,-134.501 124.578,-138.779 124.578,-138.779 124.578,-138.779 127.166,-134.501 120.728,-136.45 129.754,-130.223 129.754,-130.223"/>
</g>
</g>
</svg>
