<?xml version="1.0" encoding="UTF-8" standalone="no"?>
<!DOCTYPE svg PUBLIC "-//W3C//DTD SVG 1.1//EN"
 "http://www.w3.org/Graphics/SVG/1.1/DTD/svg11.dtd">
<!-- Generated by graphviz version 2.38.0 (20140413.2041)
 -->
<!-- Title: ml Pages: 1 -->
<svg width="1788pt" height="221pt"
 viewBox="0.00 0.00 1788.00 221.00" xmlns="http://www.w3.org/2000/svg" xmlns:xlink="http://www.w3.org/1999/xlink">
<g id="graph0" class="graph" transform="scale(1 1) rotate(0) translate(4 217)">
<title>ml</title>
<polygon fill="white" stroke="none" points="-4,4 -4,-217 1784,-217 1784,4 -4,4"/>
<!-- ndPaidInvoice -->
<g id="node1" class="node"><title>ndPaidInvoice</title>
<g id="a_node1_0"><a xlink:href="https://github.com/dan-da/sn_payment/blob/master/src/paid_invoice.rs#:~:text=struct%20PaidInvoice" xlink:title="&lt;TABLE&gt;">
<polygon fill="lightblue" stroke="none" points="764.5,-4.5 764.5,-41.5 1295.5,-41.5 1295.5,-4.5 764.5,-4.5"/>
<polygon fill="none" stroke="black" points="764.5,-4.5 764.5,-41.5 1295.5,-41.5 1295.5,-4.5 764.5,-4.5"/>
<text text-anchor="start" x="775.5" y="-20.3" font-family="Arial" font-weight="bold" font-size="14.00">pub struct PaidInvoice { &#160;&#160;&#160;pub invoice: Invoice, &#160;&#160;&#160;pub payment: Payment,}</text>
<polygon fill="none" stroke="black" points="763,-4 763,-43 1296,-43 1296,-4 763,-4"/>
</a>
</g>
</g>
<!-- ndError -->
<g id="node2" class="node"><title>ndError</title>
<g id="a_node2_1"><a xlink:href="https://github.com/dan-da/sn_payment/blob/master/src/error.rs#:~:text=enum%20Error" xlink:title="&lt;TABLE&gt;">
<polygon fill="yellow" stroke="none" points="1712.5,-170.5 1712.5,-207.5 1771.5,-207.5 1771.5,-170.5 1712.5,-170.5"/>
<polygon fill="none" stroke="black" points="1712.5,-170.5 1712.5,-207.5 1771.5,-207.5 1771.5,-170.5 1712.5,-170.5"/>
<text text-anchor="start" x="1723.5" y="-186.3" font-family="Arial" font-weight="bold" font-size="14.00">Error</text>
<polygon fill="none" stroke="black" points="1711,-170 1711,-209 1772,-209 1772,-170 1711,-170"/>
</a>
</g>
</g>
<!-- ndInvoice -->
<g id="node3" class="node"><title>ndInvoice</title>
<g id="a_node3_2"><a xlink:href="https://github.com/dan-da/sn_payment/blob/master/src/invoice.rs#:~:text=struct%20Invoice" xlink:title="&lt;TABLE&gt;">
<polygon fill="lightblue" stroke="none" points="534.5,-87.5 534.5,-124.5 1151.5,-124.5 1151.5,-87.5 534.5,-87.5"/>
<polygon fill="none" stroke="black" points="534.5,-87.5 534.5,-124.5 1151.5,-124.5 1151.5,-87.5 534.5,-87.5"/>
<text text-anchor="start" x="545.5" y="-103.3" font-family="Arial" font-weight="bold" font-size="14.00">pub struct Invoice { &#160;&#160;&#160;pub content: InvoiceContent, &#160;&#160;&#160;pub payto_signature: Signature,}</text>
<polygon fill="none" stroke="black" points="533,-87 533,-126 1152,-126 1152,-87 533,-87"/>
</a>
</g>
</g>
<!-- ndInvoice&#45;&gt;ndPaidInvoice -->
<g id="edge1" class="edge"><title>ndInvoice&#45;&gt;ndPaidInvoice</title>
<path fill="none" stroke="black" d="M894.59,-82.937C916.786,-73.3224 942.885,-62.0178 966.183,-51.9262"/>
<polygon fill="black" stroke="black" points="966.354,-51.8521 970.27,-45.7967 977.365,-47.0824 973.45,-53.1377 966.354,-51.8521"/>
</g>
<!-- ndInvoiceContent -->
<g id="node4" class="node"><title>ndInvoiceContent</title>
<g id="a_node4_3"><a xlink:href="https://github.com/dan-da/sn_payment/blob/master/src/invoice_content.rs#:~:text=struct%20InvoiceContent" xlink:title="&lt;TABLE&gt;">
<polygon fill="lightblue" stroke="none" points="9.5,-170.5 9.5,-207.5 1676.5,-207.5 1676.5,-170.5 9.5,-170.5"/>
<polygon fill="none" stroke="black" points="9.5,-170.5 9.5,-207.5 1676.5,-207.5 1676.5,-170.5 9.5,-170.5"/>
<text text-anchor="start" x="20.5" y="-186.3" font-family="Arial" font-weight="bold" font-size="14.00">pub struct InvoiceContent { &#160;&#160;&#160;pub amount_commitment: CompressedRistretto, &#160;&#160;&#160;pub amount_secrets_cipher: Ciphertext, &#160;&#160;&#160;pub payto_public_key: PublicKey, // Owner&#39;s well&#45;known key. &#160;must match key DbcPacket.owner_key().public_key}</text>
<polygon fill="none" stroke="black" points="8,-170 8,-209 1677,-209 1677,-170 8,-170"/>
</a>
</g>
</g>
<!-- ndInvoiceContent&#45;&gt;ndInvoice -->
<g id="edge2" class="edge"><title>ndInvoiceContent&#45;&gt;ndInvoice</title>
<path fill="none" stroke="black" d="M842.5,-165.937C842.5,-158.626 842.5,-150.337 842.5,-142.348"/>
<polygon fill="black" stroke="black" points="842.5,-142.223 838.5,-136.223 842.5,-130.223 846.5,-136.223 842.5,-142.223"/>
</g>
<!-- ndPayment -->
<g id="node5" class="node"><title>ndPayment</title>
<text text-anchor="middle" x="1217.5" y="-102.8" font-family="Times,serif" font-size="14.00">ndPayment</text>
</g>
<!-- ndPayment&#45;&gt;ndPaidInvoice -->
<g id="edge3" class="edge"><title>ndPayment&#45;&gt;ndPaidInvoice</title>
<path fill="none" stroke="black" d="M1181.41,-88.3804C1177.4,-86.5401 1173.37,-84.715 1169.5,-83 1145.7,-72.4543 1119.41,-61.3324 1096.1,-51.651"/>
<polygon fill="black" stroke="black" points="1096.01,-51.613 1088.93,-53.0137 1084.92,-47.0228 1091.99,-45.6221 1096.01,-51.613"/>
</g>
</g>
</svg>
