<?xml version="1.0" encoding="UTF-8" standalone="no"?>
<!DOCTYPE svg PUBLIC "-//W3C//DTD SVG 1.1//EN"
 "http://www.w3.org/Graphics/SVG/1.1/DTD/svg11.dtd">
<!-- Generated by graphviz version 2.38.0 (20140413.2041)
 -->
<!-- Title: ml Pages: 1 -->
<svg width="640pt" height="422pt"
 viewBox="0.00 0.00 639.50 422.00" xmlns="http://www.w3.org/2000/svg" xmlns:xlink="http://www.w3.org/1999/xlink">
<g id="graph0" class="graph" transform="scale(1 1) rotate(0) translate(4 418)">
<title>ml</title>
<polygon fill="white" stroke="none" points="-4,4 -4,-418 635.5,-418 635.5,4 -4,4"/>
<!-- ndPaidInvoice -->
<g id="node1" class="node"><title>ndPaidInvoice</title>
<g id="a_node1_0"><a xlink:href="https://github.com/dan-da/sn_payment/blob/master/src/paid_invoice.rs#:~:text=struct%20PaidInvoice" xlink:title="&lt;TABLE&gt;">
<polygon fill="lightblue" stroke="none" points="215.5,-56.5 215.5,-93.5 367.5,-93.5 367.5,-56.5 215.5,-56.5"/>
<polygon fill="none" stroke="black" points="215.5,-56.5 215.5,-93.5 367.5,-93.5 367.5,-56.5 215.5,-56.5"/>
<text text-anchor="start" x="250.5" y="-72.3" font-family="Arial" font-weight="bold" font-size="14.00">PaidInvoice</text>
<polygon fill="white" stroke="none" points="215.5,-4.5 215.5,-56.5 367.5,-56.5 367.5,-4.5 215.5,-4.5"/>
<polygon fill="none" stroke="black" points="215.5,-4.5 215.5,-56.5 367.5,-56.5 367.5,-4.5 215.5,-4.5"/>
<text text-anchor="start" x="226.5" y="-34.3" font-family="Arial" font-size="14.00">+ invoice: Invoice</text>
<text text-anchor="start" x="226.5" y="-19.3" font-family="Arial" font-size="14.00">+ payment: Payment</text>
<polygon fill="none" stroke="black" points="214.5,-4 214.5,-95 368.5,-95 368.5,-4 214.5,-4"/>
</a>
</g>
</g>
<!-- ndError -->
<g id="node2" class="node"><title>ndError</title>
<g id="a_node2_1"><a xlink:href="https://github.com/dan-da/sn_payment/blob/master/src/error.rs#:~:text=enum%20Error" xlink:title="&lt;TABLE&gt;">
<polygon fill="yellow" stroke="none" points="356.5,-372 356.5,-409 622.5,-409 622.5,-372 356.5,-372"/>
<polygon fill="none" stroke="black" points="356.5,-372 356.5,-409 622.5,-409 622.5,-372 356.5,-372"/>
<text text-anchor="start" x="471" y="-387.8" font-family="Arial" font-weight="bold" font-size="14.00">Error</text>
<polygon fill="white" stroke="none" points="356.5,-275 356.5,-372 622.5,-372 622.5,-275 356.5,-275"/>
<polygon fill="none" stroke="black" points="356.5,-275 356.5,-372 622.5,-372 622.5,-275 356.5,-275"/>
<text text-anchor="start" x="367.5" y="-349.8" font-family="Arial" font-size="14.00">MemoTooLong</text>
<text text-anchor="start" x="367.5" y="-334.8" font-family="Arial" font-size="14.00">PaymentDoesNotMatchInvoiceAmount</text>
<text text-anchor="start" x="367.5" y="-319.8" font-family="Arial" font-size="14.00">InvoiceSignatureInvalid</text>
<text text-anchor="start" x="367.5" y="-304.8" font-family="Arial" font-size="14.00">AmountCommitmentInvalid</text>
<text text-anchor="start" x="367.5" y="-289.8" font-family="Arial" font-size="14.00">Dbc(sn_dbc::Error)</text>
<polygon fill="none" stroke="black" points="355.5,-274 355.5,-410 623.5,-410 623.5,-274 355.5,-274"/>
</a>
</g>
</g>
<!-- ndInvoice -->
<g id="node3" class="node"><title>ndInvoice</title>
<g id="a_node3_2"><a xlink:href="https://github.com/dan-da/sn_payment/blob/master/src/invoice.rs#:~:text=struct%20Invoice" xlink:title="&lt;TABLE&gt;">
<polygon fill="lightblue" stroke="none" points="63.5,-191.5 63.5,-228.5 266.5,-228.5 266.5,-191.5 63.5,-191.5"/>
<polygon fill="none" stroke="black" points="63.5,-191.5 63.5,-228.5 266.5,-228.5 266.5,-191.5 63.5,-191.5"/>
<text text-anchor="start" x="139.5" y="-207.3" font-family="Arial" font-weight="bold" font-size="14.00">Invoice</text>
<polygon fill="white" stroke="none" points="63.5,-139.5 63.5,-191.5 266.5,-191.5 266.5,-139.5 63.5,-139.5"/>
<polygon fill="none" stroke="black" points="63.5,-139.5 63.5,-191.5 266.5,-191.5 266.5,-139.5 63.5,-139.5"/>
<text text-anchor="start" x="74.5" y="-169.3" font-family="Arial" font-size="14.00">+ content: InvoiceContent</text>
<text text-anchor="start" x="74.5" y="-154.3" font-family="Arial" font-size="14.00">+ payto_signature: Signature</text>
<polygon fill="none" stroke="black" points="62,-139 62,-230 267,-230 267,-139 62,-139"/>
</a>
</g>
</g>
<!-- ndInvoice&#45;&gt;ndPaidInvoice -->
<g id="edge1" class="edge"><title>ndInvoice&#45;&gt;ndPaidInvoice</title>
<path fill="none" stroke="black" d="M211.069,-134.731C219.352,-126.057 228.049,-116.949 236.539,-108.058"/>
<polygon fill="black" stroke="black" points="236.649,-107.942 237.9,-100.84 244.937,-99.2632 243.686,-106.365 236.649,-107.942"/>
</g>
<!-- ndInvoiceContent -->
<g id="node4" class="node"><title>ndInvoiceContent</title>
<g id="a_node4_3"><a xlink:href="https://github.com/dan-da/sn_payment/blob/master/src/invoice_content.rs#:~:text=struct%20InvoiceContent" xlink:title="&lt;TABLE&gt;">
<polygon fill="lightblue" stroke="none" points="9.5,-357 9.5,-394 320.5,-394 320.5,-357 9.5,-357"/>
<polygon fill="none" stroke="black" points="9.5,-357 9.5,-394 320.5,-394 320.5,-357 9.5,-357"/>
<text text-anchor="start" x="112" y="-372.8" font-family="Arial" font-weight="bold" font-size="14.00">InvoiceContent</text>
<polygon fill="white" stroke="none" points="9.5,-290 9.5,-357 320.5,-357 320.5,-290 9.5,-290"/>
<polygon fill="none" stroke="black" points="9.5,-290 9.5,-357 320.5,-357 320.5,-290 9.5,-290"/>
<text text-anchor="start" x="20.5" y="-334.8" font-family="Arial" font-size="14.00">+ amount_commitment: CompressedRistretto</text>
<text text-anchor="start" x="20.5" y="-319.8" font-family="Arial" font-size="14.00">+ amount_secrets_cipher: Ciphertext</text>
<text text-anchor="start" x="20.5" y="-304.8" font-family="Arial" font-size="14.00">+ payto_public_key: PublicKey</text>
<polygon fill="none" stroke="black" points="8,-289 8,-395 321,-395 321,-289 8,-289"/>
</a>
</g>
</g>
<!-- ndInvoiceContent&#45;&gt;ndInvoice -->
<g id="edge2" class="edge"><title>ndInvoiceContent&#45;&gt;ndInvoice</title>
<path fill="none" stroke="black" d="M164.5,-284.861C164.5,-272.399 164.5,-259.132 164.5,-246.487"/>
<polygon fill="black" stroke="black" points="164.5,-246.101 160.5,-240.101 164.5,-234.101 168.5,-240.101 164.5,-246.101"/>
</g>
<!-- ndPayment -->
<g id="node5" class="node"><title>ndPayment</title>
<g id="a_node5_4"><a xlink:href="https://github.com/dan-da/sn_payment/blob/master/src/payment.rs#:~:text=struct%20Payment" xlink:title="&lt;TABLE&gt;">
<polygon fill="lightblue" stroke="none" points="302.5,-184.5 302.5,-221.5 537.5,-221.5 537.5,-184.5 302.5,-184.5"/>
<polygon fill="none" stroke="black" points="302.5,-184.5 302.5,-221.5 537.5,-221.5 537.5,-184.5 302.5,-184.5"/>
<text text-anchor="start" x="389.5" y="-200.3" font-family="Arial" font-weight="bold" font-size="14.00">Payment</text>
<polygon fill="white" stroke="none" points="302.5,-147.5 302.5,-184.5 537.5,-184.5 537.5,-147.5 302.5,-147.5"/>
<polygon fill="none" stroke="black" points="302.5,-147.5 302.5,-184.5 537.5,-184.5 537.5,-147.5 302.5,-147.5"/>
<text text-anchor="start" x="313.5" y="-162.3" font-family="Arial" font-size="14.00">+ dbc_packets: Vec&lt;DbcPacket&gt;</text>
<polygon fill="none" stroke="black" points="301,-146.5 301,-222.5 538,-222.5 538,-146.5 301,-146.5"/>
</a>
</g>
</g>
<!-- ndPayment&#45;&gt;ndPaidInvoice -->
<g id="edge3" class="edge"><title>ndPayment&#45;&gt;ndPaidInvoice</title>
<path fill="none" stroke="black" d="M379.702,-142.147C369.292,-131.331 357.881,-119.474 346.821,-107.982"/>
<polygon fill="black" stroke="black" points="346.777,-107.936 339.734,-106.387 338.456,-99.2897 345.498,-100.839 346.777,-107.936"/>
</g>
</g>
</svg>
