<?xml version="1.0" encoding="UTF-8" standalone="no"?>
<!DOCTYPE svg PUBLIC "-//W3C//DTD SVG 1.1//EN"
 "http://www.w3.org/Graphics/SVG/1.1/DTD/svg11.dtd">
<!-- Generated by graphviz version 2.38.0 (20140413.2041)
 -->
<!-- Title: ml Pages: 1 -->
<svg width="876pt" height="736pt"
 viewBox="0.00 0.00 875.50 736.00" xmlns="http://www.w3.org/2000/svg" xmlns:xlink="http://www.w3.org/1999/xlink">
<g id="graph0" class="graph" transform="scale(1 1) rotate(0) translate(4 732)">
<title>ml</title>
<polygon fill="white" stroke="none" points="-4,4 -4,-732 871.5,-732 871.5,4 -4,4"/>
<!-- ndPrefix -->
<g id="node1" class="node"><title>ndPrefix</title>
<polygon fill="lightblue" stroke="none" points="9,-686 9,-723 473,-723 473,-686 9,-686"/>
<polygon fill="none" stroke="black" points="9,-686 9,-723 473,-723 473,-686 9,-686"/>
<text text-anchor="start" x="220.5" y="-701.8" font-family="Arial" font-weight="bold" font-size="14.00">Prefix</text>
<polygon fill="white" stroke="none" points="9,-634 9,-686 473,-686 473,-634 9,-634"/>
<polygon fill="none" stroke="black" points="9,-634 9,-686 473,-686 473,-634 9,-634"/>
<text text-anchor="start" x="20" y="-663.8" font-family="Arial" font-size="14.00">&#45; bit_count: u16</text>
<text text-anchor="start" x="20" y="-648.8" font-family="Arial" font-size="14.00">&#45; name: XorName</text>
<polygon fill="white" stroke="none" points="9,-177 9,-634 473,-634 473,-177 9,-177"/>
<polygon fill="none" stroke="black" points="9,-177 9,-634 473,-634 473,-177 9,-177"/>
<text text-anchor="start" x="20" y="-611.8" font-family="Arial" font-size="14.00">&#45; new(bit_count: usize, name: XorName) &#45;&gt; Self</text>
<text text-anchor="start" x="20" y="-596.8" font-family="Arial" font-size="14.00">&#45; name(&amp;self) &#45;&gt; XorName</text>
<text text-anchor="start" x="20" y="-581.8" font-family="Arial" font-size="14.00">&#45; pushed(mut self, bit: bool) &#45;&gt; Self</text>
<text text-anchor="start" x="20" y="-566.8" font-family="Arial" font-size="14.00">&#45; popped(mut self) &#45;&gt; Self</text>
<text text-anchor="start" x="20" y="-551.8" font-family="Arial" font-size="14.00">&#45; bit_count(&amp;self) &#45;&gt; usize</text>
<text text-anchor="start" x="20" y="-536.8" font-family="Arial" font-size="14.00">&#45; is_empty(&amp;self) &#45;&gt; bool</text>
<text text-anchor="start" x="20" y="-521.8" font-family="Arial" font-size="14.00">&#45; is_compatible(&amp;self, other: &amp;Self) &#45;&gt; bool</text>
<text text-anchor="start" x="20" y="-506.8" font-family="Arial" font-size="14.00">&#45; is_extension_of(&amp;self, other: &amp;Self) &#45;&gt; bool</text>
<text text-anchor="start" x="20" y="-491.8" font-family="Arial" font-size="14.00">&#45; is_neighbour(&amp;self, other: &amp;Self) &#45;&gt; bool</text>
<text text-anchor="start" x="20" y="-476.8" font-family="Arial" font-size="14.00">&#45; common_prefix(&amp;self, name: &amp;XorName) &#45;&gt; usize</text>
<text text-anchor="start" x="20" y="-461.8" font-family="Arial" font-size="14.00">&#45; matches(&amp;self, name: &amp;XorName) &#45;&gt; bool</text>
<text text-anchor="start" x="20" y="-446.8" font-family="Arial" font-size="14.00">&#45; cmp_distance(&amp;self, other: &amp;Self, target: &amp;XorName) &#45;&gt; Ordering</text>
<text text-anchor="start" x="20" y="-431.8" font-family="Arial" font-size="14.00">&#45; cmp_breadth_first(&amp;self, other: &amp;Self) &#45;&gt; Ordering</text>
<text text-anchor="start" x="20" y="-416.8" font-family="Arial" font-size="14.00">&#45; lower_bound(&amp;self) &#45;&gt; XorName</text>
<text text-anchor="start" x="20" y="-401.8" font-family="Arial" font-size="14.00">&#45; upper_bound(&amp;self) &#45;&gt; XorName</text>
<text text-anchor="start" x="20" y="-386.8" font-family="Arial" font-size="14.00">&#45; range_inclusive(&amp;self) &#45;&gt; RangeInclusive&lt;XorName&gt;</text>
<text text-anchor="start" x="20" y="-371.8" font-family="Arial" font-size="14.00">&#45; is_covered_by(&amp;self, prefixes: I) &#45;&gt; bool</text>
<text text-anchor="start" x="20" y="-356.8" font-family="Arial" font-size="14.00">&#45; is_covered_by_impl(&amp;self, prefixes: I, max_prefix_len: usize) &#45;&gt; bool</text>
<text text-anchor="start" x="20" y="-341.8" font-family="Arial" font-size="14.00">&#45; with_flipped_bit(&amp;self, i: u8) &#45;&gt; Self</text>
<text text-anchor="start" x="20" y="-326.8" font-family="Arial" font-size="14.00">&#45; substituted_in(&amp;self, mut name: XorName) &#45;&gt; XorName</text>
<text text-anchor="start" x="20" y="-311.8" font-family="Arial" font-size="14.00">&#45; sibling(&amp;self) &#45;&gt; Self</text>
<text text-anchor="start" x="20" y="-296.8" font-family="Arial" font-size="14.00">&#45; ancestor(&amp;self, bit_count: u8) &#45;&gt; Self</text>
<text text-anchor="start" x="20" y="-281.8" font-family="Arial" font-size="14.00">&#45; ancestors(&amp;self) &#45;&gt; Ancestors</text>
<text text-anchor="start" x="20" y="-266.8" font-family="Arial" font-size="14.00">&#45; eq(&amp;self, other: &amp;Self) &#45;&gt; bool</text>
<text text-anchor="start" x="20" y="-251.8" font-family="Arial" font-size="14.00">&#45; partial_cmp(&amp;self, other: &amp;Self) &#45;&gt; Option&lt;Ordering&gt;</text>
<text text-anchor="start" x="20" y="-236.8" font-family="Arial" font-size="14.00">&#45; cmp(&amp;self, other: &amp;Self) &#45;&gt; Ordering</text>
<text text-anchor="start" x="20" y="-221.8" font-family="Arial" font-size="14.00">&#45; hash(&amp;self, state: &amp;mut H)</text>
<text text-anchor="start" x="20" y="-206.8" font-family="Arial" font-size="14.00">&#45; fmt(&amp;self, formatter: &amp;mut Formatter) &#45;&gt; FmtResult</text>
<text text-anchor="start" x="20" y="-191.8" font-family="Arial" font-size="14.00">&#45; fmt(&amp;self, formatter: &amp;mut Formatter) &#45;&gt; FmtResult</text>
<polygon fill="none" stroke="black" points="8,-176 8,-724 474,-724 474,-176 8,-176"/>
</g>
<!-- ndAncestors -->
<g id="node3" class="node"><title>ndAncestors</title>
<polygon fill="lightblue" stroke="none" points="108,-94 108,-131 374,-131 374,-94 108,-94"/>
<polygon fill="none" stroke="black" points="108,-94 108,-131 374,-131 374,-94 108,-94"/>
<text text-anchor="start" x="205" y="-109.8" font-family="Arial" font-weight="bold" font-size="14.00">Ancestors</text>
<polygon fill="white" stroke="none" points="108,-42 108,-94 374,-94 374,-42 108,-42"/>
<polygon fill="none" stroke="black" points="108,-42 108,-94 374,-94 374,-42 108,-42"/>
<text text-anchor="start" x="119" y="-71.8" font-family="Arial" font-size="14.00">&#45; target: Prefix</text>
<text text-anchor="start" x="119" y="-56.8" font-family="Arial" font-size="14.00">&#45; current_len: usize</text>
<polygon fill="white" stroke="none" points="108,-5 108,-42 374,-42 374,-5 108,-5"/>
<polygon fill="none" stroke="black" points="108,-5 108,-42 374,-42 374,-5 108,-5"/>
<text text-anchor="start" x="119" y="-19.8" font-family="Arial" font-size="14.00">&#45; next(&amp;mut self) &#45;&gt; Option&lt;Self::Item&gt;</text>
<polygon fill="none" stroke="black" points="107,-4 107,-132 375,-132 375,-4 107,-4"/>
</g>
<!-- ndPrefix&#45;&gt;ndAncestors -->
<g id="edge1" class="edge"><title>ndPrefix&#45;&gt;ndAncestors</title>
<path fill="none" stroke="black" d="M241,-171.833C241,-163.717 241,-155.871 241,-148.378"/>
<polygon fill="black" stroke="black" points="241,-148.114 237,-142.115 241,-136.114 245,-142.114 241,-148.114"/>
</g>
<!-- ndFromStrError -->
<g id="node2" class="node"><title>ndFromStrError</title>
<polygon fill="lightblue" stroke="none" points="510,-476 510,-513 859,-513 859,-476 510,-476"/>
<polygon fill="none" stroke="black" points="510,-476 510,-513 859,-513 859,-476 510,-476"/>
<text text-anchor="start" x="637.5" y="-491.8" font-family="Arial" font-weight="bold" font-size="14.00">FromStrError</text>
<polygon fill="white" stroke="none" points="510,-439 510,-476 859,-476 859,-439 510,-439"/>
<polygon fill="none" stroke="black" points="510,-439 510,-476 859,-476 859,-439 510,-439"/>
<text text-anchor="start" x="521" y="-453.8" font-family="Arial" font-size="14.00">+ invalid_char: char</text>
<polygon fill="white" stroke="none" points="510,-387 510,-439 859,-439 859,-387 510,-387"/>
<polygon fill="none" stroke="black" points="510,-387 510,-439 859,-439 859,-387 510,-387"/>
<text text-anchor="start" x="521" y="-416.8" font-family="Arial" font-size="14.00">&#45; fmt(&amp;self, formatter: &amp;mut Formatter) &#45;&gt; FmtResult</text>
<text text-anchor="start" x="521" y="-401.8" font-family="Arial" font-size="14.00">&#45; from_str(bits: &amp;str) &#45;&gt; Result&lt;Self, Self::Err&gt;</text>
<polygon fill="none" stroke="black" points="508.5,-386 508.5,-514 859.5,-514 859.5,-386 508.5,-386"/>
</g>
</g>
</svg>
