<?xml version="1.0" encoding="UTF-8" standalone="no"?>
<!DOCTYPE svg PUBLIC "-//W3C//DTD SVG 1.1//EN"
 "http://www.w3.org/Graphics/SVG/1.1/DTD/svg11.dtd">
<!-- Generated by graphviz version 2.38.0 (20140413.2041)
 -->
<!-- Title: ml Pages: 1 -->
<svg width="388pt" height="362pt"
 viewBox="0.00 0.00 387.50 362.00" xmlns="http://www.w3.org/2000/svg" xmlns:xlink="http://www.w3.org/1999/xlink">
<g id="graph0" class="graph" transform="scale(1 1) rotate(0) translate(4 358)">
<title>ml</title>
<polygon fill="white" stroke="none" points="-4,4 -4,-358 383.5,-358 383.5,4 -4,4"/>
<!-- ndPrefix -->
<g id="node1" class="node"><title>ndPrefix</title>
<g id="a_node1_0"><a xlink:href="https://github.com/maidsafe/xor_name/blob/master/src/prefix.rs#:~:text=struct%20Prefix" xlink:title="&lt;TABLE&gt;">
<polygon fill="lightblue" stroke="none" points="33,-191.5 33,-228.5 167,-228.5 167,-191.5 33,-191.5"/>
<polygon fill="none" stroke="black" points="33,-191.5 33,-228.5 167,-228.5 167,-191.5 33,-191.5"/>
<text text-anchor="start" x="79.5" y="-207.3" font-family="Arial" font-weight="bold" font-size="14.00">Prefix</text>
<polygon fill="white" stroke="none" points="33,-139.5 33,-191.5 167,-191.5 167,-139.5 33,-139.5"/>
<polygon fill="none" stroke="black" points="33,-139.5 33,-191.5 167,-191.5 167,-139.5 33,-139.5"/>
<text text-anchor="start" x="44" y="-169.3" font-family="Arial" font-size="14.00">&#45; bit_count: u16</text>
<text text-anchor="start" x="44" y="-154.3" font-family="Arial" font-size="14.00">&#45; name: XorName</text>
<polygon fill="none" stroke="black" points="32,-139 32,-230 168,-230 168,-139 32,-139"/>
</a>
</g>
</g>
<!-- ndAncestors -->
<g id="node3" class="node"><title>ndAncestors</title>
<g id="a_node3_1"><a xlink:href="https://github.com/maidsafe/xor_name/blob/master/src/prefix.rs#:~:text=struct%20Ancestors" xlink:title="&lt;TABLE&gt;">
<polygon fill="lightblue" stroke="none" points="29,-56.5 29,-93.5 171,-93.5 171,-56.5 29,-56.5"/>
<polygon fill="none" stroke="black" points="29,-56.5 29,-93.5 171,-93.5 171,-56.5 29,-56.5"/>
<text text-anchor="start" x="64" y="-72.3" font-family="Arial" font-weight="bold" font-size="14.00">Ancestors</text>
<polygon fill="white" stroke="none" points="29,-4.5 29,-56.5 171,-56.5 171,-4.5 29,-4.5"/>
<polygon fill="none" stroke="black" points="29,-4.5 29,-56.5 171,-56.5 171,-4.5 29,-4.5"/>
<text text-anchor="start" x="40" y="-34.3" font-family="Arial" font-size="14.00">&#45; target: Prefix</text>
<text text-anchor="start" x="40" y="-19.3" font-family="Arial" font-size="14.00">&#45; current_len: usize</text>
<polygon fill="none" stroke="black" points="28,-4 28,-95 172,-95 172,-4 28,-4"/>
</a>
</g>
</g>
<!-- ndPrefix&#45;&gt;ndAncestors -->
<g id="edge1" class="edge"><title>ndPrefix&#45;&gt;ndAncestors</title>
<path fill="none" stroke="black" d="M93.4679,-134.731C93.2772,-127.141 93.2117,-119.219 93.2713,-111.401"/>
<polygon fill="black" stroke="black" points="93.2735,-111.262 89.3713,-105.198 93.4681,-99.2632 97.3703,-105.327 93.2735,-111.262"/>
</g>
<!-- ndFromStrError -->
<g id="node2" class="node"><title>ndFromStrError</title>
<g id="a_node2_2"><a xlink:href="https://github.com/maidsafe/xor_name/blob/master/src/prefix.rs#:~:text=struct%20FromStrError" xlink:title="&lt;TABLE&gt;">
<polygon fill="lightblue" stroke="none" points="228,-312 228,-349 371,-349 371,-312 228,-312"/>
<polygon fill="none" stroke="black" points="228,-312 228,-349 371,-349 371,-312 228,-312"/>
<text text-anchor="start" x="252.5" y="-327.8" font-family="Arial" font-weight="bold" font-size="14.00">FromStrError</text>
<polygon fill="white" stroke="none" points="228,-275 228,-312 371,-312 371,-275 228,-275"/>
<polygon fill="none" stroke="black" points="228,-275 228,-312 371,-312 371,-275 228,-275"/>
<text text-anchor="start" x="239" y="-289.8" font-family="Arial" font-size="14.00">+ invalid_char: char</text>
<polygon fill="none" stroke="black" points="226.5,-274 226.5,-350 371.5,-350 371.5,-274 226.5,-274"/>
</a>
</g>
</g>
<!-- ndAncestors&#45;&gt;ndPrefix -->
<g id="edge2" class="edge"><title>ndAncestors&#45;&gt;ndPrefix</title>
<path fill="none" stroke="black" d="M106.532,-99.2632C106.739,-107.485 106.798,-116.098 106.711,-124.545"/>
<polygon fill="black" stroke="black" points="106.532,-134.731 102.209,-124.653 106.62,-129.732 106.708,-124.732 106.708,-124.732 106.708,-124.732 106.62,-129.732 111.207,-124.812 106.532,-134.731 106.532,-134.731"/>
</g>
<!-- ndXorName -->
<g id="node4" class="node"><title>ndXorName</title>
<g id="a_node4_3"><a xlink:href="https://github.com/maidsafe/xor_name/blob/master/src/lib.rs#:~:text=struct%20XorName" xlink:title="&lt;TABLE&gt;">
<polygon fill="lightblue" stroke="none" points="9,-312 9,-349 191,-349 191,-312 9,-312"/>
<polygon fill="none" stroke="black" points="9,-312 9,-349 191,-349 191,-312 9,-312"/>
<text text-anchor="start" x="68" y="-327.8" font-family="Arial" font-weight="bold" font-size="14.00">XorName</text>
<polygon fill="white" stroke="none" points="9,-275 9,-312 191,-312 191,-275 9,-275"/>
<polygon fill="none" stroke="black" points="9,-275 9,-312 191,-312 191,-275 9,-275"/>
<text text-anchor="start" x="20" y="-289.8" font-family="Arial" font-size="14.00">+ [u8; XOR_NAME_LEN]</text>
<polygon fill="none" stroke="black" points="8,-274 8,-350 192,-350 192,-274 8,-274"/>
</a>
</g>
</g>
<!-- ndXorName&#45;&gt;ndPrefix -->
<g id="edge3" class="edge"><title>ndXorName&#45;&gt;ndPrefix</title>
<path fill="none" stroke="black" stroke-dasharray="5,2" d="M100,-269.907C100,-262.311 100,-254.233 100,-246.2"/>
<polygon fill="black" stroke="black" points="100,-246.111 96,-240.111 100,-234.111 104,-240.111 100,-246.111"/>
</g>
</g>
</svg>
