<?xml version="1.0" encoding="UTF-8" standalone="no"?>
<!DOCTYPE svg PUBLIC "-//W3C//DTD SVG 1.1//EN"
 "http://www.w3.org/Graphics/SVG/1.1/DTD/svg11.dtd">
<!-- Generated by graphviz version 2.38.0 (20140413.2041)
 -->
<!-- Title: ml Pages: 1 -->
<svg width="864pt" height="1163pt"
 viewBox="0.00 0.00 864.00 1163.00" xmlns="http://www.w3.org/2000/svg" xmlns:xlink="http://www.w3.org/1999/xlink">
<g id="graph0" class="graph" transform="scale(1 1) rotate(0) translate(4 1159)">
<title>ml</title>
<polygon fill="white" stroke="none" points="-4,4 -4,-1159 860,-1159 860,4 -4,4"/>
<!-- ndPrefix -->
<g id="node1" class="node"><title>ndPrefix</title>
<g id="a_node1_0"><a xlink:href="https://github.com/maidsafe/xor_name/blob/master/src/prefix.rs#:~:text=struct%20Prefix" xlink:title="&lt;TABLE&gt;">
<polygon fill="lightblue" stroke="none" points="9,-700.5 9,-737.5 473,-737.5 473,-700.5 9,-700.5"/>
<polygon fill="none" stroke="black" points="9,-700.5 9,-737.5 473,-737.5 473,-700.5 9,-700.5"/>
<text text-anchor="start" x="51.5" y="-716.3" font-family="Arial" font-weight="bold" font-size="14.00">pub struct Prefix { &#160;&#160;&#160;bit_count: u16, &#160;&#160;&#160;name: XorName,}</text>
<polygon fill="white" stroke="none" points="9,-648.5 9,-700.5 473,-700.5 473,-648.5 9,-648.5"/>
<polygon fill="none" stroke="black" points="9,-648.5 9,-700.5 473,-700.5 473,-648.5 9,-648.5"/>
<text text-anchor="start" x="20" y="-678.3" font-family="Arial" font-size="14.00">&#45; bit_count: u16</text>
<text text-anchor="start" x="20" y="-663.3" font-family="Arial" font-size="14.00">&#45; name: XorName</text>
<polygon fill="white" stroke="none" points="9,-176.5 9,-648.5 473,-648.5 473,-176.5 9,-176.5"/>
<polygon fill="none" stroke="black" points="9,-176.5 9,-648.5 473,-648.5 473,-176.5 9,-176.5"/>
<text text-anchor="start" x="20" y="-626.3" font-family="Arial" font-size="14.00">&#45; new(bit_count: usize, name: XorName) &#45;&gt; Self</text>
<text text-anchor="start" x="20" y="-611.3" font-family="Arial" font-size="14.00">&#45; name(&amp;self) &#45;&gt; XorName</text>
<text text-anchor="start" x="20" y="-596.3" font-family="Arial" font-size="14.00">&#45; pushed(mut self, bit: bool) &#45;&gt; Self</text>
<text text-anchor="start" x="20" y="-581.3" font-family="Arial" font-size="14.00">&#45; popped(mut self) &#45;&gt; Self</text>
<text text-anchor="start" x="20" y="-566.3" font-family="Arial" font-size="14.00">&#45; bit_count(&amp;self) &#45;&gt; usize</text>
<text text-anchor="start" x="20" y="-551.3" font-family="Arial" font-size="14.00">&#45; is_empty(&amp;self) &#45;&gt; bool</text>
<text text-anchor="start" x="20" y="-536.3" font-family="Arial" font-size="14.00">&#45; is_compatible(&amp;self, other: &amp;Self) &#45;&gt; bool</text>
<text text-anchor="start" x="20" y="-521.3" font-family="Arial" font-size="14.00">&#45; is_extension_of(&amp;self, other: &amp;Self) &#45;&gt; bool</text>
<text text-anchor="start" x="20" y="-506.3" font-family="Arial" font-size="14.00">&#45; is_neighbour(&amp;self, other: &amp;Self) &#45;&gt; bool</text>
<text text-anchor="start" x="20" y="-491.3" font-family="Arial" font-size="14.00">&#45; common_prefix(&amp;self, name: &amp;XorName) &#45;&gt; usize</text>
<text text-anchor="start" x="20" y="-476.3" font-family="Arial" font-size="14.00">&#45; matches(&amp;self, name: &amp;XorName) &#45;&gt; bool</text>
<text text-anchor="start" x="20" y="-461.3" font-family="Arial" font-size="14.00">&#45; cmp_distance(&amp;self, other: &amp;Self, target: &amp;XorName) &#45;&gt; Ordering</text>
<text text-anchor="start" x="20" y="-446.3" font-family="Arial" font-size="14.00">&#45; cmp_breadth_first(&amp;self, other: &amp;Self) &#45;&gt; Ordering</text>
<text text-anchor="start" x="20" y="-431.3" font-family="Arial" font-size="14.00">&#45; lower_bound(&amp;self) &#45;&gt; XorName</text>
<text text-anchor="start" x="20" y="-416.3" font-family="Arial" font-size="14.00">&#45; upper_bound(&amp;self) &#45;&gt; XorName</text>
<text text-anchor="start" x="20" y="-401.3" font-family="Arial" font-size="14.00">&#45; range_inclusive(&amp;self) &#45;&gt; RangeInclusive&lt;XorName&gt;</text>
<text text-anchor="start" x="20" y="-386.3" font-family="Arial" font-size="14.00">&#45; is_covered_by(&amp;self, prefixes: I) &#45;&gt; bool</text>
<text text-anchor="start" x="20" y="-371.3" font-family="Arial" font-size="14.00">&#45; is_covered_by_impl(&amp;self, prefixes: I, max_prefix_len: usize) &#45;&gt; bool</text>
<text text-anchor="start" x="20" y="-356.3" font-family="Arial" font-size="14.00">&#45; with_flipped_bit(&amp;self, i: u8) &#45;&gt; Self</text>
<text text-anchor="start" x="20" y="-341.3" font-family="Arial" font-size="14.00">&#45; substituted_in(&amp;self, mut name: XorName) &#45;&gt; XorName</text>
<text text-anchor="start" x="20" y="-326.3" font-family="Arial" font-size="14.00">&#45; sibling(&amp;self) &#45;&gt; Self</text>
<text text-anchor="start" x="20" y="-311.3" font-family="Arial" font-size="14.00">&#45; ancestor(&amp;self, bit_count: u8) &#45;&gt; Self</text>
<text text-anchor="start" x="20" y="-296.3" font-family="Arial" font-size="14.00">&#45; ancestors(&amp;self) &#45;&gt; Ancestors</text>
<text text-anchor="start" x="20" y="-281.3" font-family="Arial" font-size="14.00">&#45; eq(&amp;self, other: &amp;Self) &#45;&gt; bool</text>
<text text-anchor="start" x="20" y="-266.3" font-family="Arial" font-size="14.00">&#45; partial_cmp(&amp;self, other: &amp;Self) &#45;&gt; Option&lt;Ordering&gt;</text>
<text text-anchor="start" x="20" y="-251.3" font-family="Arial" font-size="14.00">&#45; cmp(&amp;self, other: &amp;Self) &#45;&gt; Ordering</text>
<text text-anchor="start" x="20" y="-236.3" font-family="Arial" font-size="14.00">&#45; hash(&amp;self, state: &amp;mut H)</text>
<text text-anchor="start" x="20" y="-221.3" font-family="Arial" font-size="14.00">&#45; fmt(&amp;self, formatter: &amp;mut Formatter) &#45;&gt; FmtResult</text>
<text text-anchor="start" x="20" y="-206.3" font-family="Arial" font-size="14.00">&#45; fmt(&amp;self, formatter: &amp;mut Formatter) &#45;&gt; FmtResult</text>
<text text-anchor="start" x="20" y="-191.3" font-family="Arial" font-size="14.00">&#45; from_str(bits: &amp;str) &#45;&gt; Result&lt;Self, Self::Err&gt;</text>
<polygon fill="none" stroke="black" points="8,-176 8,-739 474,-739 474,-176 8,-176"/>
</a>
</g>
</g>
<!-- ndAncestors -->
<g id="node3" class="node"><title>ndAncestors</title>
<g id="a_node3_1"><a xlink:href="https://github.com/maidsafe/xor_name/blob/master/src/prefix.rs#:~:text=struct%20Ancestors" xlink:title="&lt;TABLE&gt;">
<polygon fill="lightblue" stroke="none" points="23,-94 23,-131 459,-131 459,-94 23,-94"/>
<polygon fill="none" stroke="black" points="23,-94 23,-131 459,-131 459,-94 23,-94"/>
<text text-anchor="start" x="34" y="-109.8" font-family="Arial" font-weight="bold" font-size="14.00">pub struct Ancestors { &#160;&#160;&#160;target: Prefix, &#160;&#160;&#160;current_len: usize,}</text>
<polygon fill="white" stroke="none" points="23,-42 23,-94 459,-94 459,-42 23,-42"/>
<polygon fill="none" stroke="black" points="23,-42 23,-94 459,-94 459,-42 23,-42"/>
<text text-anchor="start" x="34" y="-71.8" font-family="Arial" font-size="14.00">&#45; target: Prefix</text>
<text text-anchor="start" x="34" y="-56.8" font-family="Arial" font-size="14.00">&#45; current_len: usize</text>
<polygon fill="white" stroke="none" points="23,-5 23,-42 459,-42 459,-5 23,-5"/>
<polygon fill="none" stroke="black" points="23,-5 23,-42 459,-42 459,-5 23,-5"/>
<text text-anchor="start" x="34" y="-19.8" font-family="Arial" font-size="14.00">&#45; next(&amp;mut self) &#45;&gt; Option&lt;Self::Item&gt;</text>
<polygon fill="none" stroke="black" points="22,-4 22,-132 460,-132 460,-4 22,-4"/>
</a>
</g>
</g>
<!-- ndPrefix&#45;&gt;ndAncestors -->
<g id="edge1" class="edge"><title>ndPrefix&#45;&gt;ndAncestors</title>
<path fill="none" stroke="black" d="M234.96,-171.826C235.098,-163.59 235.257,-155.637 235.436,-148.052"/>
<polygon fill="black" stroke="black" points="235.436,-148.046 231.592,-141.945 235.746,-136.05 239.59,-142.151 235.436,-148.046"/>
</g>
<!-- ndFromStrError -->
<g id="node2" class="node"><title>ndFromStrError</title>
<g id="a_node2_2"><a xlink:href="https://github.com/maidsafe/xor_name/blob/master/src/prefix.rs#:~:text=struct%20FromStrError" xlink:title="&lt;TABLE&gt;">
<polygon fill="lightblue" stroke="none" points="467,-985 467,-1022 847,-1022 847,-985 467,-985"/>
<polygon fill="none" stroke="black" points="467,-985 467,-1022 847,-1022 847,-985 467,-985"/>
<text text-anchor="start" x="478" y="-1000.8" font-family="Arial" font-weight="bold" font-size="14.00">pub struct FromStrError { &#160;&#160;&#160;pub invalid_char: char,}</text>
<polygon fill="white" stroke="none" points="467,-948 467,-985 847,-985 847,-948 467,-948"/>
<polygon fill="none" stroke="black" points="467,-948 467,-985 847,-985 847,-948 467,-948"/>
<text text-anchor="start" x="478" y="-962.8" font-family="Arial" font-size="14.00">+ invalid_char: char</text>
<polygon fill="white" stroke="none" points="467,-911 467,-948 847,-948 847,-911 467,-911"/>
<polygon fill="none" stroke="black" points="467,-911 467,-948 847,-948 847,-911 467,-911"/>
<text text-anchor="start" x="478" y="-925.8" font-family="Arial" font-size="14.00">&#45; fmt(&amp;self, formatter: &amp;mut Formatter) &#45;&gt; FmtResult</text>
<polygon fill="none" stroke="black" points="466,-910.5 466,-1023.5 848,-1023.5 848,-910.5 466,-910.5"/>
</a>
</g>
</g>
<!-- ndAncestors&#45;&gt;ndPrefix -->
<g id="edge2" class="edge"><title>ndAncestors&#45;&gt;ndPrefix</title>
<path fill="none" stroke="black" d="M246.254,-136.05C246.48,-144.077 246.68,-152.621 246.854,-161.564"/>
<polygon fill="black" stroke="black" points="247.04,-171.826 242.36,-161.909 246.95,-166.826 246.859,-161.827 246.859,-161.827 246.859,-161.827 246.95,-166.826 251.358,-161.746 247.04,-171.826 247.04,-171.826"/>
</g>
<!-- ndXorName -->
<g id="node4" class="node"><title>ndXorName</title>
<g id="a_node4_3"><a xlink:href="https://github.com/maidsafe/xor_name/blob/master/src/lib.rs#:~:text=struct%20XorName" xlink:title="&lt;TABLE&gt;">
<polygon fill="lightblue" stroke="none" points="51,-1113 51,-1150 431,-1150 431,-1113 51,-1113"/>
<polygon fill="none" stroke="black" points="51,-1113 51,-1150 431,-1150 431,-1113 51,-1113"/>
<text text-anchor="start" x="72.5" y="-1128.8" font-family="Arial" font-weight="bold" font-size="14.00">pub struct XorName(pub [u8; XOR_NAME_LEN]);</text>
<polygon fill="white" stroke="none" points="51,-1076 51,-1113 431,-1113 431,-1076 51,-1076"/>
<polygon fill="none" stroke="black" points="51,-1076 51,-1113 431,-1113 431,-1076 51,-1076"/>
<text text-anchor="start" x="62" y="-1090.8" font-family="Arial" font-size="14.00">+ [u8; XOR_NAME_LEN]</text>
<polygon fill="white" stroke="none" points="51,-784 51,-1076 431,-1076 431,-784 51,-784"/>
<polygon fill="none" stroke="black" points="51,-784 51,-1076 431,-1076 431,-784 51,-784"/>
<text text-anchor="start" x="62" y="-1053.8" font-family="Arial" font-size="14.00">&#45; from_content(content: &amp;[u8]) &#45;&gt; Self</text>
<text text-anchor="start" x="62" y="-1038.8" font-family="Arial" font-size="14.00">&#45; from_content_parts(content_parts: &amp;[&amp;[u8]]) &#45;&gt; Self</text>
<text text-anchor="start" x="62" y="-1023.8" font-family="Arial" font-size="14.00">&#45; random() &#45;&gt; Self</text>
<text text-anchor="start" x="62" y="-1008.8" font-family="Arial" font-size="14.00">&#45; bit(&amp;self, i: u8) &#45;&gt; bool</text>
<text text-anchor="start" x="62" y="-993.8" font-family="Arial" font-size="14.00">&#45; cmp_distance(&amp;self, lhs: &amp;Self, rhs: &amp;Self) &#45;&gt; Ordering</text>
<text text-anchor="start" x="62" y="-978.8" font-family="Arial" font-size="14.00">&#45; with_bit(mut self, i: u8, bit: bool) &#45;&gt; Self</text>
<text text-anchor="start" x="62" y="-963.8" font-family="Arial" font-size="14.00">&#45; with_flipped_bit(mut self, i: u8) &#45;&gt; Self</text>
<text text-anchor="start" x="62" y="-948.8" font-family="Arial" font-size="14.00">&#45; set_remaining(mut self, n: u8, val: bool) &#45;&gt; Self</text>
<text text-anchor="start" x="62" y="-933.8" font-family="Arial" font-size="14.00">&#45; common_prefix(&amp;self, other: &amp;Self) &#45;&gt; usize</text>
<text text-anchor="start" x="62" y="-918.8" font-family="Arial" font-size="14.00">&#45; fmt(&amp;self, formatter: &amp;mut fmt::Formatter) &#45;&gt; fmt::Result</text>
<text text-anchor="start" x="62" y="-903.8" font-family="Arial" font-size="14.00">&#45; fmt(&amp;self, formatter: &amp;mut fmt::Formatter) &#45;&gt; fmt::Result</text>
<text text-anchor="start" x="62" y="-888.8" font-family="Arial" font-size="14.00">&#45; fmt(&amp;self, formatter: &amp;mut fmt::Formatter) &#45;&gt; fmt::Result</text>
<text text-anchor="start" x="62" y="-873.8" font-family="Arial" font-size="14.00">&#45; fmt(&amp;self, formatter: &amp;mut fmt::Formatter) &#45;&gt; fmt::Result</text>
<text text-anchor="start" x="62" y="-858.8" font-family="Arial" font-size="14.00">&#45; fmt(&amp;self, formatter: &amp;mut fmt::Formatter) &#45;&gt; fmt::Result</text>
<text text-anchor="start" x="62" y="-843.8" font-family="Arial" font-size="14.00">&#45; not(mut self) &#45;&gt; Self</text>
<text text-anchor="start" x="62" y="-828.8" font-family="Arial" font-size="14.00">&#45; as_ref(&amp;self) &#45;&gt; &amp;Self</text>
<text text-anchor="start" x="62" y="-813.8" font-family="Arial" font-size="14.00">&#45; as_ref(&amp;self) &#45;&gt; &amp;[u8]</text>
<text text-anchor="start" x="62" y="-798.8" font-family="Arial" font-size="14.00">&#45; deref(&amp;self) &#45;&gt; &amp;Self::Target</text>
<polygon fill="none" stroke="black" points="50,-783 50,-1151 432,-1151 432,-783 50,-783"/>
</a>
</g>
</g>
<!-- ndXorName&#45;&gt;ndPrefix -->
<g id="edge3" class="edge"><title>ndXorName&#45;&gt;ndPrefix</title>
<path fill="none" stroke="black" stroke-dasharray="5,2" d="M241,-778.828C241,-771.043 241,-763.168 241,-755.235"/>
<polygon fill="black" stroke="black" points="241,-755.155 237,-749.155 241,-743.155 245,-749.155 241,-755.155"/>
</g>
</g>
</svg>
