<?xml version="1.0" encoding="UTF-8" standalone="no"?>
<!DOCTYPE svg PUBLIC "-//W3C//DTD SVG 1.1//EN"
 "http://www.w3.org/Graphics/SVG/1.1/DTD/svg11.dtd">
<!-- Generated by graphviz version 2.38.0 (20140413.2041)
 -->
<!-- Title: ml Pages: 1 -->
<svg width="268pt" height="221pt"
 viewBox="0.00 0.00 268.00 221.00" xmlns="http://www.w3.org/2000/svg" xmlns:xlink="http://www.w3.org/1999/xlink">
<g id="graph0" class="graph" transform="scale(1 1) rotate(0) translate(4 217)">
<title>ml</title>
<polygon fill="white" stroke="none" points="-4,4 -4,-217 264,-217 264,4 -4,4"/>
<!-- ndPrefix -->
<g id="node1" class="node"><title>ndPrefix</title>
<g id="a_node1_0"><a xlink:href="https://github.com/maidsafe/xor_name/blob/master/src/prefix.rs#:~:text=struct%20Prefix" xlink:title="&lt;TABLE&gt;">
<polygon fill="lightblue" stroke="none" points="25,-87.5 25,-124.5 88,-124.5 88,-87.5 25,-87.5"/>
<polygon fill="none" stroke="black" points="25,-87.5 25,-124.5 88,-124.5 88,-87.5 25,-87.5"/>
<text text-anchor="start" x="36" y="-103.3" font-family="Arial" font-weight="bold" font-size="14.00">Prefix</text>
<polygon fill="none" stroke="black" points="23.5,-87 23.5,-126 88.5,-126 88.5,-87 23.5,-87"/>
</a>
</g>
</g>
<!-- ndAncestors -->
<g id="node3" class="node"><title>ndAncestors</title>
<g id="a_node3_1"><a xlink:href="https://github.com/maidsafe/xor_name/blob/master/src/prefix.rs#:~:text=struct%20Ancestors" xlink:title="&lt;TABLE&gt;">
<polygon fill="lightblue" stroke="none" points="9,-4.5 9,-41.5 103,-41.5 103,-4.5 9,-4.5"/>
<polygon fill="none" stroke="black" points="9,-4.5 9,-41.5 103,-41.5 103,-4.5 9,-4.5"/>
<text text-anchor="start" x="20" y="-20.3" font-family="Arial" font-weight="bold" font-size="14.00">Ancestors</text>
<polygon fill="none" stroke="black" points="8,-4 8,-43 104,-43 104,-4 8,-4"/>
</a>
</g>
</g>
<!-- ndPrefix&#45;&gt;ndAncestors -->
<g id="edge1" class="edge"><title>ndPrefix&#45;&gt;ndAncestors</title>
<path fill="none" stroke="black" d="M49.8766,-82.937C49.3309,-75.6257 49.1417,-67.3371 49.3088,-59.3477"/>
<polygon fill="black" stroke="black" points="49.315,-59.2103 45.5941,-53.0334 49.8648,-47.2229 53.5857,-53.3999 49.315,-59.2103"/>
</g>
<!-- ndFromStrError -->
<g id="node2" class="node"><title>ndFromStrError</title>
<g id="a_node2_2"><a xlink:href="https://github.com/maidsafe/xor_name/blob/master/src/prefix.rs#:~:text=struct%20FromStrError" xlink:title="&lt;TABLE&gt;">
<polygon fill="lightblue" stroke="none" points="135,-170.5 135,-207.5 251,-207.5 251,-170.5 135,-170.5"/>
<polygon fill="none" stroke="black" points="135,-170.5 135,-207.5 251,-207.5 251,-170.5 135,-170.5"/>
<text text-anchor="start" x="146" y="-186.3" font-family="Arial" font-weight="bold" font-size="14.00">FromStrError</text>
<polygon fill="none" stroke="black" points="134,-170 134,-209 252,-209 252,-170 134,-170"/>
</a>
</g>
</g>
<!-- ndAncestors&#45;&gt;ndPrefix -->
<g id="edge2" class="edge"><title>ndAncestors&#45;&gt;ndPrefix</title>
<path fill="none" stroke="black" d="M62.1352,-47.2229C62.7208,-55.1589 62.888,-64.2309 62.637,-72.8159"/>
<polygon fill="black" stroke="black" points="62.1234,-82.937 58.1361,-72.7217 62.3768,-77.9434 62.6303,-72.9498 62.6303,-72.9498 62.6303,-72.9498 62.3768,-77.9434 67.1245,-73.178 62.1234,-82.937 62.1234,-82.937"/>
</g>
<!-- ndXorName -->
<g id="node4" class="node"><title>ndXorName</title>
<g id="a_node4_3"><a xlink:href="https://github.com/maidsafe/xor_name/blob/master/src/lib.rs#:~:text=struct%20XorName" xlink:title="&lt;TABLE&gt;">
<polygon fill="lightblue" stroke="none" points="13,-170.5 13,-207.5 99,-207.5 99,-170.5 13,-170.5"/>
<polygon fill="none" stroke="black" points="13,-170.5 13,-207.5 99,-207.5 99,-170.5 13,-170.5"/>
<text text-anchor="start" x="24" y="-186.3" font-family="Arial" font-weight="bold" font-size="14.00">XorName</text>
<polygon fill="none" stroke="black" points="12,-170 12,-209 100,-209 100,-170 12,-170"/>
</a>
</g>
</g>
<!-- ndXorName&#45;&gt;ndPrefix -->
<g id="edge3" class="edge"><title>ndXorName&#45;&gt;ndPrefix</title>
<path fill="none" stroke="black" stroke-dasharray="5,2" d="M56,-165.937C56,-158.626 56,-150.337 56,-142.348"/>
<polygon fill="black" stroke="black" points="56.0001,-142.223 52,-136.223 56,-130.223 60,-136.223 56.0001,-142.223"/>
</g>
</g>
</svg>
